<?xml version="1.0" encoding="utf-8"?>
<!-- Generator: Adobe Illustrator 24.0.3, SVG Export Plug-In . SVG Version: 6.00 Build 0)  -->
<svg version="1.1" id="レイヤー_1" xmlns="http://www.w3.org/2000/svg" xmlns:xlink="http://www.w3.org/1999/xlink" x="0px"
	 y="0px" viewBox="0 0 101.4 218.7" style="enable-background:new 0 0 101.4 218.7;" xml:space="preserve">
<style type="text/css">
	.st0{fill:#EB6666;}
	.st1{fill:#B6B0AC;}
	.st2{fill:#EE7A64;}
	.st3{fill:#F2EED7;}
	.st4{fill:#B47B4C;}
	.st5{fill:#705C51;}
</style>
<g>
	<g>
		<path class="st0" d="M40.2,41.8c4.6,8.1,6.9,19.6,2.7,23.8c0,0-3.8-5.1-5.4-6.5C25.2,48.5,12.9,34.5,10.2,18
			C7.5,1.4,35.6,33.7,40.2,41.8z"/>
	</g>
	<g>
		<path class="st1" d="M66.8,18.6c4.4-5.5,13.2-9.7,15.2-7.8c5.7,5.3,22.8,29.3,18.7,33.9c-1.2,1.3-19.5-9.9-22.2-15.9
			c-0.3-0.6-4,3.7-7.2,9.3c-2.7,4.7-6,17.7-10.3,19.2c-4.2,1.5-7.3-8.8-7.3-8.8S55,33.6,66.8,18.6z"/>
	</g>
	<g>
		<path class="st1" d="M21.4,179.3c-5,4.1-26.4,1.8-20.4-13.5c4.4-11.1,19-0.2,19-0.2S24.5,176.7,21.4,179.3z"/>
	</g>
	<g>
		<path class="st1" d="M2.8,2.9C3.2-4.8,9.3,4,25.1,15.6c15.8,11.5,24.6,39.2,24.6,39.2l-0.4,2.3c-0.4,2.3-0.3,0.6-2.6-2.1
			c-2.3-2.7-7.9-16-26.3-24.9C10.1,25.2,2.4,10.6,2.8,2.9z"/>
	</g>
	<g>
		<path class="st1" d="M74.2,102.6c0,0,4.1,4,11.3,10.2c7.5,6.6,8.3,9.6,7.9,15.5c-0.3,4.6-7.2,6.5-6.7-0.5c0.4-4.6-4.7-6.8-9.9-7.3
			C68.9,119.8,74.2,102.6,74.2,102.6z"/>
	</g>
	<g>
		<path class="st2" d="M90.3,76.1c0.4-0.5,1.4-1.5,2.1-1.8c1.2,2.3,1.9,4.4,1.9,6.1c0,0.9-0.6,2-1.6,3.2
			C90.1,81.7,88.1,78.9,90.3,76.1z"/>
	</g>
	<g>
		<path class="st3" d="M63.6,190.9c-12.3,0-23-4-25-25c-2.5-26.9,18.8-56.3,28.1-56.7c5.6-0.2,9.8,4.4,13,11.1
			c1.8,8.1,3.5,17.4,4.7,26.8c2.3,18-0.4,28.6-3.2,34.5C76.2,187,69.6,190.9,63.6,190.9z"/>
	</g>
	<g>
		<path class="st1" d="M52.9,111.4l1.9-1.5c1.2,0.8,18.1,10.6,17.7,18.7c-0.4,8.1-2.8,8.2-4.2,6.3c-2.5-3.4-0.2-7.5-5.9-8.8
			C51.6,123.4,47.6,116.5,52.9,111.4z"/>
	</g>
	<g>
		<path class="st1" d="M27,68.5c4-11.7,17-24.3,31.7-23.7c9,0.3,27.5,17.9,33.6,29.6c-0.7,0.4-1.4,1.2-1.8,1.6
			c-2.1,2.7-0.4,5.7,2.2,7.6c-3.2,3.8-10.6,8.5-17.2,8.9c-3.3-1.6-5.6-4.4-7.3-7.6c0.4-0.3,0.8-0.8,1-1.2c0.5-0.8-0.7-1.5-1.2-0.7
			c-0.3,0.4-0.6,0.8-1,1.1c-0.1,0-0.1,0.1-0.2,0.1c-0.3,0.2-0.6,0.3-1,0.4c-0.2,0-0.5,0.1-0.8,0.1c0,0-0.3,0-0.2,0
			c-0.9-0.2-1.3,1.2-0.4,1.4c0.9,0.2,1.7,0,2.5-0.3c1.4,2.5,3.2,4.9,5.4,6.6c0,0,0,0,0,0s3.7,11.8,7.3,28c-3.2-6.7-7.4-11.3-13-11.1
			c-9.2,0.4-30.5,29.8-28.1,56.7c1.9,20.9,12.7,25,25,25c6,0,12.6-3.9,17.5-9.3c-2.2,4.7-4.5,6.4-4.5,6.4s20.1,9.3,16.1,18.8
			c-2.4,5.8-23.8-14.2-27.3-13.8c-3.5,0.4-17.3,0.8-17.3,0.8s20.8,12.9,16.1,23.8c-2.7,6.3-21.8-15.5-29.2-19.2
			c-5.9-2.9-16.1-4.2-21.6-27.3C7.8,147.9,19.5,90.2,27,68.5z"/>
	</g>
	<g>
		<path class="st4" d="M66.9,85.7c-0.8,0.3-1.6,0.5-2.5,0.3c-0.9-0.2-0.5-1.6,0.4-1.4c-0.1,0,0.2,0,0.2,0c0.3,0,0.5,0,0.8-0.1
			c0.4-0.1,0.7-0.2,1-0.4c0.1-0.1,0.1-0.1,0.2-0.1c0.4-0.3,0.7-0.7,1-1.1c0.5-0.8,1.8-0.1,1.2,0.7c-0.3,0.4-0.6,0.9-1,1.2
			c1.7,3.2,4,6,7.3,7.6c-1.1,0.1-2.1,0-3.1-0.2C70.1,90.6,68.3,88.2,66.9,85.7z"/>
	</g>
	<g>
		<path class="st0" d="M99.6,44.7c-4.1-1.2-18.8-10.5-21.1-15.9c-0.3-0.6-4,3.7-7.2,9.4c-0.3,0.6-0.7,1.3-1,2c1.7-6.1,4-12,8.4-16.6
			C86.6,30,91.2,39.3,99.6,44.7z"/>
	</g>
	<g>
		<g>
			<path class="st5" d="M52.9,65.2c0.9,1.5,2.4,3,4.2,3.2c2.2,0.2,2.7-2.3,2.6-4c-0.1-0.9,1.4-0.9,1.4,0c0.2,2.3-0.7,5.1-3.3,5.4
				c-2.6,0.3-4.9-1.7-6.2-3.9C51.2,65.2,52.5,64.4,52.9,65.2L52.9,65.2z"/>
		</g>
	</g>
	<g>
		<g>
			<path class="st5" d="M67.4,58.2c0.8,1.3,2.1,2.7,3.7,2.8c1.9,0.2,2.4-2.1,2.2-3.5c-0.1-0.9,1.4-0.9,1.4,0c0.2,2.1-0.7,4.6-3,4.9
				c-2.4,0.3-4.5-1.6-5.6-3.5C65.6,58.1,66.9,57.4,67.4,58.2L67.4,58.2z"/>
		</g>
	</g>
</g>
</svg>
