<?xml version="1.0" encoding="utf-8"?>
<!-- Generator: Adobe Illustrator 24.0.3, SVG Export Plug-In . SVG Version: 6.00 Build 0)  -->
<svg version="1.1" id="レイヤー_1" xmlns="http://www.w3.org/2000/svg" xmlns:xlink="http://www.w3.org/1999/xlink" x="0px"
	 y="0px" viewBox="0 0 334.4 47.6" style="enable-background:new 0 0 334.4 47.6;" xml:space="preserve">
<style type="text/css">
	.st0{fill:#503819;}
</style>
<g>
	<path class="st0" d="M0.6,2.3c0.2,0,0.4,0,0.6,0.1c0.2,0.1,0.5,0.1,0.9,0.1h3.8c0.9,0,1.9,0,3.1,0.1c0.2,0,0.5-0.1,0.8-0.2
		c0.4,0,0.6,0.3,0.6,0.8c0,0,0,0.2-0.1,0.4c-0.1,0.4-0.1,1.1-0.2,2.1c-0.1,1.3-0.1,2.7-0.1,4.2c0,1.1,0,2.6,0.1,4.6
		c0,0.6-0.2,0.8-0.6,0.8c-1.7-0.1-3.2-0.2-4.5-0.2c-1.7,0-2.7,0-3.2,0.1c-0.4,0-0.8,0.1-1.4,0.2c-0.4,0-0.6-0.2-0.6-0.7
		c0.1-2.1,0.1-3.9,0.1-5.5c0-1.7,0-3.7-0.1-6.1C0,2.5,0.2,2.3,0.6,2.3z M5.1,13.9c1.1,0,2.3,0,3.6,0.1C8.9,14,9,13.8,9,13.6
		c0-1.7,0-3.3,0-4.6C5.8,9,3.3,9.1,1.5,9.2c0,0-0.1,0-0.1,0c0,1.4-0.1,2.8-0.1,4.2c0,0.4,0.2,0.6,0.5,0.6
		C2.7,13.9,3.8,13.9,5.1,13.9z M1.4,7.9c0.1,0,0.2,0,0.3,0L8.9,8C9,8,9,8,9,8c0-1.6,0-3,0.1-4c0-0.2-0.1-0.3-0.3-0.3
		c-1.6,0-3.9-0.1-6.9-0.1c-0.3,0-0.4,0.2-0.4,0.5C1.4,5.4,1.4,6.7,1.4,7.9z"/>
	<path class="st0" d="M18.6,3.3h4.8c0-0.7,0-1.5-0.1-2.3c0-0.6,0.2-0.9,0.7-0.9c0.4,0,0.6,0.3,0.6,0.9c0,0.8,0,1.5-0.1,2.3h5.5
		c0.2,0,0.3,0.1,0.3,0.3c0,0.3-0.1,0.6-0.2,0.8c-0.2,0.2-0.4,0.3-0.7,0.3s-1-0.1-2.1-0.2c-0.7,0-1.6-0.1-2.4-0.1
		c0.2,0.2,0.4,0.4,0.6,0.7c2.9,3,4.7,4.7,5.4,5c0.5,0.2,1,0.3,1.7,0.5c0.3,0,0.4,0.1,0.4,0.4c0,0.4-0.2,0.7-0.7,1.1
		c-0.5,0.4-0.9,0.6-1.4,0.6c-0.3,0-0.7-0.2-1-0.5c-1.2-1.6-2.5-3.3-3.9-5c-0.5-0.6-1-1.1-1.5-1.4v0l0,6.7h3.7c0.2,0,0.3,0.1,0.3,0.3
		c0,0.3-0.1,0.6-0.2,0.8c-0.2,0.2-0.4,0.3-0.7,0.3c-0.2,0-0.7-0.1-1.4-0.2c-0.5,0-1.1-0.1-1.6-0.1l0,2.3c0,1-0.2,1.5-0.7,1.5
		c-0.4,0-0.6-0.5-0.6-1.5c0-0.8,0-1.5,0-2.3c-1.4,0-2.3,0.1-3,0.2c-0.4,0.1-0.6,0.2-0.7,0.2c-0.4,0-0.6-0.2-0.7-0.6
		c0-0.2,0.1-0.4,0.3-0.6c0.2-0.1,0.4-0.2,0.7-0.2h3.3c0-2.7,0-4.9,0-6.7v0c-1.2,2-2.2,3.4-2.9,4.1c-1,1-2.1,1.9-3.4,2.5
		c-0.3,0.2-0.6,0.3-0.8,0.3c-0.4,0-0.8-0.2-1.1-0.5c-0.3-0.3-0.4-0.6-0.4-0.9c0-0.2,0.1-0.4,0.3-0.4c1.4-0.3,2.5-0.7,3.3-1.2
		c0.7-0.4,1.4-1,2.1-1.8C21.2,7,22,5.9,22.9,4.4c-1.6,0-2.9,0.1-3.7,0.2c-0.5,0.1-0.9,0.2-1,0.2c-0.4,0-0.7-0.3-0.7-0.7
		c0-0.2,0.1-0.4,0.3-0.6C18,3.4,18.3,3.3,18.6,3.3z"/>
	<path class="st0" d="M51.4,12c-0.1,0.5-0.3,1.1-0.6,1.7c-0.4,0.6-0.8,0.9-1.2,0.9c-0.2,0-0.6-0.2-1.4-0.6c-1.4-0.7-3.4-1.1-6.1-1.1
		c-1.3,0-2.6,0.3-3.8,0.8c-1.3,0.6-2,0.8-1.9,0.8c-0.4,0-0.7-0.3-0.7-0.9c0-0.5,0.2-0.8,0.5-1c0.5-0.3,1.5-0.6,3.2-0.8
		c1.4-0.2,2.5-0.3,3.4-0.3c0-3.1-0.1-5.4-0.1-7H42c-0.9,0-1.6,0-2,0.1c-0.9,0.2-1.4,0.3-1.4,0.3c-0.4,0-0.6-0.2-0.6-0.7
		c0-0.6,0.3-0.9,1-0.9c0.8,0,2,0,3.7-0.1c1.6-0.1,2.8-0.1,3.7-0.1c1.3,0,2,0.1,2.1,0.2c0,0.4-0.1,0.7-0.3,1
		c-0.2,0.3-0.5,0.5-0.8,0.5c-0.2,0-0.5,0-0.8-0.1c-0.4-0.1-0.7-0.1-0.8-0.1c-0.3,0-0.9,0-1.6,0l0,7c0.5,0,1.5,0.1,3,0.1
		c1.2,0.1,2.2,0.1,3,0.1c0.1,0,0.3,0,0.5,0c0.2-0.1,0.4-0.1,0.5-0.1C51.2,11.9,51.4,11.9,51.4,12z"/>
	<path class="st0" d="M67.1,4.2c0,0.4-0.1,1.3-0.2,3l-0.4,5.1c0.3,0.3,0.4,0.6,0.4,0.8c0,0.4-0.3,0.7-1,0.7c-0.2,0-0.8-0.1-1.8-0.2
		c-1-0.1-2.1-0.1-3.1-0.1c-1,0-1.9,0.1-2.7,0.3c-0.7,0.2-1.2,0.3-1.6,0.3c-0.4,0-0.5-0.3-0.5-0.8c0-0.4,0.2-0.7,0.7-0.8
		c0.5-0.2,1.8-0.3,3.7-0.3h3.1c0.5,0,1,0,1.6,0.1l0.1-7c-0.4-0.1-1.6-0.2-3.6-0.2c-1.1,0-2,0-2.9,0.1c-1.2,0.2-1.8,0.2-1.8,0.2
		c-0.3,0-0.5-0.2-0.5-0.7c0-0.6,0.5-0.9,1.6-0.9c0.8,0,2,0,3.6,0.1c1.6,0,2.8,0,3.6,0c0.2,0,0.3-0.1,0.4-0.2c0.1,0,0.2,0,0.3,0
		C66.8,3.5,67.1,3.7,67.1,4.2z"/>
	<path class="st0" d="M85,4.7c0,1.2-0.1,3.2-0.3,6.2c0,0.7-0.1,1.7-0.3,3.1c-0.1,0.4-0.3,0.7-0.4,0.7c-0.3,0-0.6-0.2-0.7-0.5
		c-0.3-0.2-1.5-0.3-3.7-0.3c-2,0-3.1,0.1-3.5,0.2c-0.2,0.1-0.4,0.2-0.6,0.4c-0.2,0.1-0.3,0.2-0.4,0.2c-0.4,0-0.6-0.6-0.6-1.7
		c-0.2-3.8-0.3-6.7-0.3-8.5c0-0.5,0.3-0.8,0.9-0.8c0.1,0,0.2,0,0.4,0.1c0.1,0.1,0.2,0.1,0.4,0.1c0.5,0,1.3,0,2.3,0
		c1,0,1.8-0.1,2.3-0.1c0.3,0,0.8,0,1.5,0.1c0.7,0,1.2,0,1.5,0c0.1,0,0.3,0,0.4-0.1c0.2,0,0.3,0,0.5,0C84.8,3.5,85,3.9,85,4.7z
		 M83.6,5.4C83.5,5.1,82.5,5,80.5,5h-2.4c-0.8,0-1.3,0-1.4,0c-0.7,0.1-1.1,0.4-1,0.7l0.1,6.6c0.4-0.1,0.8-0.1,1.2-0.1
		c3.7,0,5.9,0,6.6,0.1C83.6,8.4,83.6,6,83.6,5.4z"/>
	<path class="st0" d="M94.7,8.8c0,0.2-0.1,0.3-0.4,0.3c-0.6,0-1.4-0.1-2.4-0.4c-0.6-0.1-0.9-0.4-0.9-0.8c0-0.6,0.3-0.9,0.8-0.9
		c0.3,0,0.8,0.3,1.6,0.8C94.3,8.2,94.7,8.6,94.7,8.8z M104.6,6c0,0.4-0.4,1.2-1.3,2.4c-1.8,2.5-4.5,4.6-7.9,6.2
		c-1.5,0.7-2.4,1.1-2.7,1.1c-0.3,0-0.5-0.1-0.7-0.3c-0.2-0.3-0.3-0.6-0.3-0.9c0-0.5,0.3-0.8,0.9-0.9c2.7-0.5,5.2-1.7,7.4-3.5
		c1.6-1.3,2.8-2.5,3.6-3.6c0.4-0.5,0.6-0.7,0.7-0.7C104.5,5.6,104.6,5.7,104.6,6z M95.8,5.2c0,0.2-0.1,0.3-0.3,0.3
		c-0.4,0-1-0.2-1.9-0.6c-0.9-0.5-1.4-0.9-1.4-1.2c0-0.6,0.3-0.9,0.8-0.9c0.3,0,0.6,0.2,0.9,0.5C95.2,4.4,95.8,5,95.8,5.2z
		 M103.5,3.3c0,0.2-0.1,0.4-0.4,0.6c-0.2,0.2-0.5,0.3-0.6,0.3c-0.2,0-0.5-0.4-0.9-1.2c-0.4-0.8-0.6-1.3-0.6-1.6c0-0.2,0-0.3,0.1-0.3
		s0.2,0.1,0.3,0.3c0.6,0.8,1.1,1.4,1.7,1.6C103.4,3,103.5,3.2,103.5,3.3z M106.1,2.2c0,0.1-0.2,0.4-0.4,0.6
		c-0.2,0.3-0.4,0.4-0.6,0.5c-0.3-0.1-0.7-0.5-1.1-1.1c-0.5-0.7-0.7-1.2-0.7-1.5c0-0.1,0-0.2,0.1-0.2c0,0,0.3,0.2,0.7,0.5
		c0.4,0.4,0.7,0.6,0.8,0.6C105.3,1.8,105.7,2,106.1,2.2z"/>
	<path class="st0" d="M123.5,13.2c-0.1,0.3-0.4,0.7-0.9,1.2c-0.5,0.5-0.9,0.7-1.2,0.7c-0.2,0-0.8-0.6-1.6-1.8
		c-0.8-1.2-1.9-2.3-3.4-3.5c-1.6,1.9-3.1,3.3-4.4,4.1c-1.1,0.7-1.8,1-2.2,1c-0.3,0-0.6-0.2-1-0.6c-0.3-0.4-0.5-0.8-0.5-1.1
		c0-0.2,0.2-0.3,0.6-0.4c3.5-0.7,6.4-3,8.8-6.8c0.3-0.5,0.5-0.8,0.7-1.1c0.3-0.6,0.5-1,0.6-1.1c-0.1,0-0.6-0.1-1.6-0.1
		c-2,0-3.6,0.1-4.8,0.4c-0.6,0.2-1,0.2-1.3,0.2c-0.3,0-0.4-0.2-0.4-0.7c0-0.3,0.2-0.6,0.5-0.8c0.3-0.2,1.4-0.3,3.4-0.3h2.8
		c0.6,0,1,0,1.3,0.1c0.1-0.1,0.4-0.1,0.7-0.1c0.5,0,0.7,0.2,0.7,0.6c0,0.4-0.4,1.4-1.3,2.9c-0.7,1.2-1.3,2.2-1.9,2.9l3.4,2.5
		c0.9,0.7,1.6,1,2,1.2c0.2,0,0.4,0.1,0.6,0.1C123.4,12.9,123.5,13,123.5,13.2z"/>
	<path class="st0" d="M138.6,10c0,0.3-0.3,0.7-1,1.2c-0.7,0.5-1.1,0.8-1.4,0.8c-0.2,0-0.6-0.3-1-1c-1.2-1.7-2.6-3-4.3-3.9
		c0,0.9,0,2.3,0,4.2c0,1.8,0.1,3.2,0.1,4.2c0,0.7-0.3,1-0.8,1c-0.4,0-0.6-0.4-0.6-1.2c0-0.7,0-1.8,0-3.2c0-1.4,0.1-2.5,0.1-3.2V4.6
		c0-0.3,0-0.8-0.1-1.4c0-0.7,0-1.1,0-1.5c0-0.6,0.2-0.9,0.7-0.9c0.5,0,0.7,0.3,0.7,0.9c0,0.5,0,1.2-0.1,2.1c0,0.9-0.1,1.7-0.1,2.1
		c1.3,0.7,2.7,1.5,4.2,2.5c1.3,0.8,2.2,1.2,3,1.3C138.5,9.8,138.6,9.9,138.6,10z"/>
	<path class="st0" d="M144.6,3.2h4.8L149.4,1c0-0.6,0.2-0.8,0.7-0.8c0.5,0,0.8,0.3,0.8,0.8l-0.1,2.2h5.5c0.2,0,0.3,0.1,0.3,0.3
		c0,0.3-0.1,0.6-0.2,0.8c-0.2,0.2-0.4,0.3-0.7,0.3s-1-0.1-2.1-0.2c-0.9,0-1.8-0.1-2.8-0.1l-0.1,2.6c1,0,1.9,0.1,2.7,0.1
		c0.2-0.1,0.5-0.1,0.6-0.1c0.4,0,0.6,0.3,0.6,0.8c0,0.1-0.1,0.2-0.3,0.4c-0.2,0.2-0.6,0.9-1.4,1.9c-0.6,0.7-1.2,1.4-1.9,2.1
		c2,1.2,3.7,2,5,2.4c1.1,0.4,2,0.6,2.7,0.6c0.1,0,0.2,0.1,0.2,0.3c0,0.5-0.2,0.9-0.7,1.4c-0.3,0.3-0.6,0.4-0.9,0.4
		c-0.3,0-0.6-0.1-1-0.2c-0.5-0.2-1.8-1-3.8-2.4c-1-0.7-1.8-1.2-2.5-1.7c-0.5,0.5-1.1,0.9-1.7,1.4c-1.2,1-2.3,1.7-3.3,2.1
		c-0.8,0.4-1.4,0.6-1.9,0.6c-0.3,0-0.6-0.2-0.9-0.5c-0.4-0.3-0.6-0.7-0.6-1.1c0-0.3,0.1-0.4,0.4-0.5c0.6,0,1.4-0.2,2.5-0.5
		c1.6-0.5,3-1.2,4-1.9c0.1-0.1,0.2-0.2,0.3-0.3c-0.4-0.2-0.7-0.4-1-0.6c-0.7-0.3-1.3-0.6-2-0.7c-0.3-0.1-0.5-0.3-0.5-0.6
		c0-0.4,0.2-0.6,0.5-0.6c0.2,0,0.5,0.1,0.8,0.3c1.2,0.6,2.2,1.1,3.2,1.6c0.9-0.8,1.7-1.7,2.6-2.7c0.2-0.2,0.3-0.3,0.3-0.4
		c0-0.2-0.1-0.3-0.2-0.3C152.4,8,152.1,8,151.8,8c-2.4,0-3.9,0.1-4.7,0.2c-0.5,0.1-0.8,0.1-1,0.1c-0.3,0-0.5-0.2-0.5-0.6
		c0-0.3,0.1-0.6,0.4-0.7c0.3-0.1,0.9-0.2,1.9-0.2c0.5,0,1,0,1.4,0l-0.1-2.5c-1.9,0-3.3,0.1-4.2,0.2c-0.5,0.1-0.9,0.2-1,0.2
		c-0.4,0-0.6-0.3-0.6-0.7c0-0.2,0.1-0.4,0.3-0.6C144.1,3.3,144.3,3.2,144.6,3.2z"/>
	<path class="st0" d="M162.5,3.7h2c0-0.9,0-1.8,0-2.7c0-0.7,0.3-1,0.7-1c0.4,0,0.6,0.2,0.6,0.7c0,0.1,0,0.4-0.1,0.7
		c0,0.4-0.1,0.7-0.1,0.9c0,0.5,0,0.9,0,1.3h2.1c0.1,0,0.2,0.1,0.2,0.3c0,0.3-0.1,0.5-0.2,0.7c-0.2,0.2-0.4,0.3-0.7,0.3
		c-0.1,0-0.4,0-0.9-0.1c-0.2,0-0.4,0-0.6,0c0,1.3,0,2.6,0.1,3.7c0.7-0.2,1.2-0.3,1.6-0.4c0.2,0,0.3,0.1,0.3,0.4
		c0,0.4-0.1,0.6-0.4,0.6c-0.5,0.2-1,0.4-1.5,0.6c0,1.5,0.1,2.6,0.1,3.4c0,1.4-0.3,2.4-0.8,3.1c-0.5,0.5-1,0.8-1.7,0.8
		c-0.3,0-0.6-0.1-0.9-0.4c-0.2-0.2-0.2-0.5-0.2-0.7c0-0.2,0.1-0.4,0.4-0.5c1-0.3,1.5-0.6,1.7-1.1c0.2-0.4,0.2-0.9,0.2-1.6
		c0-0.9,0-1.7,0-2.6c-1,0.4-1.9,0.9-2.8,1.4c-0.4,0-0.6-0.2-0.6-0.6c0-0.4,0.1-0.6,0.2-0.8c0.1-0.2,0.2-0.4,0.5-0.5
		c1-0.4,1.9-0.7,2.7-0.9c0-1.2,0-2.4,0-3.6c0-0.1,0-0.3,0-0.5c-0.9,0-1.6,0.1-2,0.2c-0.2,0.1-0.4,0.2-0.5,0.2
		c-0.4,0-0.6-0.2-0.6-0.6c0-0.2,0.1-0.5,0.3-0.6C161.9,3.8,162.2,3.7,162.5,3.7z M170.5,5.8h6.4c0.1,0,0.2,0.1,0.2,0.2
		c0,0.3-0.1,0.5-0.2,0.7c-0.2,0.2-0.4,0.3-0.7,0.3c-0.1,0-0.5,0-1.1-0.1c-0.6,0-1.2,0-1.9,0c-0.1,0-0.2,0-0.2,0c0,0,0,0.1,0,0.1
		c-0.1,0.4-0.3,0.8-0.5,1.3h5.6c0.2,0,0.3,0.1,0.3,0.2c0,0.3-0.1,0.6-0.2,0.8c-0.2,0.3-0.4,0.4-0.7,0.4c-0.2,0-0.7-0.1-1.5-0.2
		c-0.8,0-1.7-0.1-2.7-0.1c-0.4,0-0.9,0-1.2,0c-0.1,0.3-0.3,0.6-0.4,0.9c-0.7,1.1-1.5,2-2.3,2.6c-0.5,0.4-1,0.6-1.3,0.6
		c-0.2,0-0.4-0.1-0.6-0.3c-0.3-0.3-0.4-0.6-0.4-0.9c0-0.2,0.2-0.4,0.6-0.5c1-0.2,2-0.7,2.8-1.6c0.2-0.2,0.4-0.5,0.6-0.7
		c-0.4,0-0.7,0.1-1,0.1c-0.4,0.1-0.7,0.1-0.8,0.1c-0.3,0-0.5-0.3-0.6-0.7c0-0.2,0.1-0.4,0.3-0.6c0.2-0.1,0.4-0.2,0.7-0.2h2
		c0.2-0.4,0.4-0.9,0.6-1.4c-0.6,0-1,0.1-1.4,0.1c-0.3,0.1-0.5,0.1-0.6,0.1c-0.3,0-0.5-0.2-0.6-0.6c0-0.2,0.1-0.4,0.3-0.6
		C170,5.9,170.2,5.8,170.5,5.8z M168.8,3.6c0.3,0.1,0.4,0.1,0.6,0.1c0.4,0,0.8-0.2,1.3-0.6c0.1,0,0.2,0.1,0.2,0.2
		c0,0.2-0.2,0.5-0.6,1.1c-0.4,0.5-0.7,0.8-1,0.8c-0.2,0-0.4-0.1-0.5-0.3c-0.2-0.3-0.2-0.6-0.2-1C168.7,3.7,168.7,3.6,168.8,3.6z
		 M177,0.5c0.2,0,0.3,0.1,0.3,0.4c0,0.3-0.1,0.4-0.2,0.5c-2,0.6-3.6,1-4.9,1.2c-0.9,0.1-1.4,0.2-1.7,0.2c-0.3,0-0.6-0.1-0.9-0.4
		c-0.2-0.2-0.3-0.5-0.3-0.7c0-0.2,0.1-0.3,0.3-0.3c1.7,0,3.1-0.1,4.2-0.3c1.1-0.1,2.1-0.3,2.8-0.5C176.8,0.5,176.9,0.5,177,0.5z
		 M172.3,10.5c0.9,0,2,0,3.2,0.1l0.4-0.1c0.4,0,0.6,0.2,0.6,0.5c0,0.2-0.1,0.5-0.3,0.8c-0.5,0.8-0.9,1.5-1.3,2.1
		c1,0.5,1.9,0.8,2.6,1.1c0.7,0.2,1.2,0.3,1.7,0.3c0.1,0,0.2,0.1,0.2,0.2c0,0.4-0.2,0.9-0.6,1.4c-0.2,0.3-0.5,0.4-0.8,0.4
		c-0.2,0-0.4,0-0.6-0.1c-0.3-0.1-1-0.6-2.2-1.4c-0.4-0.3-0.8-0.6-1.2-0.8c-0.7,0.7-1.4,1.2-2.2,1.6c-0.5,0.2-0.9,0.4-1.2,0.4
		c-0.3,0-0.6-0.1-0.9-0.4c-0.3-0.3-0.4-0.6-0.4-0.9c0-0.3,0.1-0.4,0.3-0.4c0.9,0,1.6-0.1,2-0.2c0.4-0.1,0.9-0.3,1.3-0.6
		c-0.2-0.1-0.4-0.3-0.6-0.4c-0.4-0.2-0.8-0.4-1.2-0.4c-0.3-0.1-0.5-0.3-0.5-0.6c0-0.4,0.2-0.6,0.5-0.6c0.1,0,0.3,0,0.5,0.1
		c0.9,0.4,1.6,0.7,2.3,1c0.4-0.5,0.8-1.1,1.1-1.7c0-0.2-0.1-0.3-0.3-0.3c-0.8,0-1.7,0.1-2.8,0.2c-0.3,0-0.4-0.1-0.4-0.4
		c0-0.2,0.1-0.4,0.2-0.5C171.9,10.6,172.1,10.5,172.3,10.5z M173.5,3c0.4,0,0.6,0.2,0.6,0.7l-0.3,1.1c0,0.2-0.1,0.3-0.3,0.3
		c-0.2,0-0.4-0.1-0.4-0.3l-0.2-1.2C172.9,3.2,173.1,3,173.5,3z M176.1,2.4C176.1,2.4,176.1,2.5,176.1,2.4c0.6,0.4,1,0.6,1.3,0.8
		c0.2,0.1,0.5,0.2,0.8,0.2c0.1,0,0.2,0.1,0.2,0.3s-0.1,0.4-0.3,0.6c-0.4,0.3-0.7,0.5-0.9,0.5c-0.1,0-0.2-0.1-0.2-0.2
		c-0.1-0.2-0.4-0.7-0.9-1.7c0-0.1-0.1-0.1-0.1-0.2C176,2.5,176,2.4,176.1,2.4z"/>
	<path class="st0" d="M182,5.1h2.2c0-1.2,0-2.6-0.1-4c0-0.6,0.2-0.9,0.6-0.9c0.4,0,0.6,0.3,0.6,0.9c0,1.5-0.1,2.8-0.1,4h2.6
		c0.2,0,0.3,0.1,0.3,0.3c0,0.3-0.1,0.6-0.2,0.8c-0.2,0.2-0.4,0.3-0.7,0.3c-0.1,0-0.5-0.1-1-0.2c-0.3,0-0.6,0-0.9,0l0.1,9.6
		c0,1-0.2,1.5-0.7,1.5c-0.4,0-0.6-0.5-0.6-1.5c0-4,0.1-7.2,0.1-9.6c-0.9,0-1.6,0.1-2,0.2c-0.3,0.1-0.4,0.2-0.5,0.2
		c-0.4,0-0.6-0.3-0.7-0.7c0-0.2,0.1-0.4,0.3-0.6C181.4,5.1,181.7,5.1,182,5.1z M189,10.5c0.1-0.3,0.1-0.6,0.1-0.9
		c0-0.4,0.2-0.6,0.5-0.6c0.1,0,0.3,0.1,0.4,0.2c0.1,0.2,0.2,0.3,0.2,0.4l0,0.1c0,0.2-0.1,0.5-0.1,0.8h1.4c0.1,0,0.3-0.1,0.6-0.2
		c0.4,0,0.7,0.2,0.7,0.7c-0.2,0.9-0.4,1.9-0.4,2.8c-0.1,1.3-0.4,2.1-0.9,2.5c-0.4,0.4-0.9,0.6-1.4,0.6c-0.3,0-0.6-0.1-0.8-0.4
		c-0.1-0.3-0.2-0.5-0.2-0.7c0-0.3,0.1-0.4,0.3-0.5c0.7,0,1.1-0.2,1.3-0.4c0.3-0.2,0.5-0.9,0.6-1.9c0.1-0.7,0.1-1.1,0.1-1.2
		c0-0.2-0.1-0.4-0.2-0.4h-1.5c-0.2,1.1-0.6,2.2-1,3c-0.3,0.6-0.6,1.2-0.9,1.6c-0.4,0.5-0.7,0.7-0.9,0.7c-0.2,0-0.4-0.1-0.7-0.4
		c-0.2-0.3-0.3-0.5-0.3-0.7c0-0.2,0.1-0.3,0.4-0.4c0.4-0.1,0.7-0.4,1.1-0.9c0.4-0.4,0.8-1.2,1.2-2.3c0.1-0.2,0.1-0.4,0.2-0.6
		c-0.3,0-0.6,0.1-0.8,0.1c-0.3,0.1-0.5,0.2-0.6,0.2c-0.3,0-0.5-0.2-0.5-0.5c0-0.5,0.2-0.8,0.6-0.8C187.7,10.5,188.2,10.5,189,10.5z
		 M192.1,2.3c0.1-0.5,0.2-1,0.3-1.5c0-0.4,0.2-0.6,0.5-0.6c0.1,0,0.2,0.1,0.3,0.2c0.1,0.2,0.2,0.3,0.2,0.4l0,0.1
		c-0.1,0.3-0.2,0.8-0.3,1.4h2.8c0.1,0,0.3-0.1,0.6-0.2c0.4,0,0.7,0.2,0.7,0.7c-0.2,0.9-0.4,1.9-0.5,2.8c-0.1,1.3-0.4,2.1-0.9,2.5
		c-0.4,0.4-1,0.6-1.6,0.6c-0.3,0-0.6-0.1-0.8-0.4c-0.1-0.3-0.2-0.5-0.2-0.7c0-0.3,0.1-0.4,0.3-0.5c0.8,0,1.3-0.2,1.6-0.4
		c0.3-0.2,0.5-0.9,0.7-1.9c0.1-0.6,0.1-1,0.1-1.2c0-0.3-0.1-0.4-0.2-0.4h-2.8c0,0,0,0,0,0c-0.3,1-0.7,1.9-1.2,2.8
		c-0.4,0.6-0.7,1.2-1.2,1.7c-0.6,0.5-1,0.8-1.2,0.8c-0.2,0-0.5-0.2-0.7-0.5c-0.2-0.3-0.3-0.5-0.3-0.7c0-0.2,0.1-0.3,0.4-0.4
		c0.5-0.1,1-0.5,1.4-1c0.5-0.4,1.1-1.3,1.6-2.4c0-0.1,0.1-0.2,0.1-0.3c-0.4,0-0.8,0.1-1.3,0.1c-0.4,0.1-0.7,0.2-0.8,0.2
		c-0.3,0-0.5-0.2-0.5-0.5c0-0.5,0.2-0.8,0.6-0.8C190.2,2.3,191,2.3,192.1,2.3z M195.4,10.5c0.1-0.3,0.1-0.6,0.1-0.9
		c0-0.4,0.2-0.6,0.5-0.6c0.1,0,0.2,0.1,0.4,0.2c0.1,0.2,0.2,0.3,0.2,0.4l0,0.1c0,0.2-0.1,0.5-0.1,0.8h1.5c0.1,0,0.3-0.1,0.6-0.2
		c0.4,0,0.6,0.2,0.6,0.7c-0.2,0.9-0.3,1.9-0.4,2.8c-0.1,1.3-0.3,2.1-0.8,2.5c-0.3,0.4-0.8,0.6-1.2,0.6c-0.3,0-0.6-0.1-0.8-0.4
		c-0.1-0.3-0.2-0.5-0.2-0.7c0-0.3,0.1-0.4,0.3-0.5c0.6,0,1-0.2,1.1-0.4c0.2-0.2,0.4-0.9,0.5-1.9c0.1-0.7,0.1-1.1,0.1-1.2
		c0-0.2-0.1-0.4-0.2-0.4h-1.6c-0.2,1.1-0.5,2.2-0.9,3c-0.2,0.6-0.5,1.2-0.8,1.6c-0.4,0.5-0.7,0.7-0.8,0.7c-0.2,0-0.5-0.1-0.7-0.4
		c-0.2-0.3-0.3-0.5-0.3-0.7c0-0.2,0.1-0.3,0.4-0.4c0.3-0.1,0.7-0.4,1-0.9c0.4-0.4,0.7-1.2,1.1-2.3c0.1-0.2,0.1-0.4,0.2-0.6
		c-0.3,0-0.5,0.1-0.8,0.1c-0.3,0.1-0.5,0.2-0.6,0.2c-0.3,0-0.5-0.2-0.5-0.5c0-0.5,0.2-0.8,0.6-0.8C194.1,10.5,194.6,10.5,195.4,10.5
		z"/>
	<path class="st0" d="M210.1,0.3c0.3,0,0.4,0.2,0.4,0.5c0.2,0,0.6,0.2,1,0.6c3,2.2,4.8,3.5,5.6,3.8c0.5,0.1,1,0.3,1.7,0.3
		c0.3,0,0.4,0.1,0.4,0.4c0,0.4-0.2,0.7-0.7,1.1c-0.5,0.4-0.9,0.6-1.4,0.6c-0.3,0-0.6-0.2-0.9-0.5c-1.2-1.3-2.6-2.6-4.1-3.9
		c-0.7-0.5-1.2-0.9-1.8-1.2c-0.1,0-0.2-0.1-0.2-0.2c-1,1.3-2.2,2.4-3.4,3.3c-1,0.8-2.2,1.5-3.6,2c-0.3,0.1-0.5,0.1-0.6,0.1
		c-0.3,0-0.7-0.2-1-0.7c-0.3-0.3-0.5-0.6-0.5-0.9c0-0.2,0.2-0.4,0.6-0.4c1-0.1,1.7-0.2,2.2-0.4c1.2-0.3,2.3-0.8,3.3-1.6
		c1.1-0.8,2-1.7,2.7-2.7C209.7,0.4,209.9,0.3,210.1,0.3z M204.2,9.7c0.1,0,0.3,0,0.4,0.1c1.9-0.2,3.6-0.3,5.1-0.3
		c0.9,0,2.4,0,4.3,0.1c0.3,0,0.6,0,0.9,0c0.2,0,0.5,0,0.8-0.1c0.3-0.1,0.5-0.2,0.6-0.2c0.2,0,0.2,0.1,0.2,0.2c0,0.4-0.2,0.8-0.5,1.2
		c-0.3,0.5-0.6,0.7-0.9,0.7c-0.2,0-0.6-0.1-1.1-0.3c-1.2-0.4-2.6-0.6-4.3-0.6c-0.1,0-0.2,0-0.2,0c0,0.1,0.1,0.3,0.1,0.5
		c0,0.1,0,0.2-0.1,0.2c-0.5,0.8-0.8,1.5-1.1,2c-0.2,0.4-0.5,0.8-0.8,1.2c0,0.1,0.1,0.2,0.3,0.2h4.8c0.3,0,0.4-0.1,0.4-0.3
		c0,0,0-0.1,0-0.1c-0.2-0.4-0.5-1-0.9-1.5c0-0.1-0.1-0.1-0.1-0.1c0-0.4,0.2-0.7,0.6-0.7c0.1,0,0.2,0,0.2,0.1c0.5,0.7,1,1.6,1.6,2.7
		c0.1,0.1,0.1,0.3,0.1,0.4c0,0.4-0.2,0.6-0.6,0.6h-6.2c-0.4,0-0.9,0-1.5,0.1c-0.5,0-0.8-0.2-0.8-0.6c0-0.2,0.1-0.4,0.3-0.6
		c0.2-0.2,0.4-0.5,0.6-0.7c0.3-0.4,0.6-0.8,0.8-1.2c0.3-0.5,0.6-1.2,1-2.1c0,0,0,0,0-0.1c-1.5,0-2.6,0.2-3.3,0.4
		c-0.4,0.1-0.8,0.2-1,0.2c-0.3,0-0.5-0.2-0.5-0.6c0-0.2,0.1-0.5,0.2-0.7C203.9,9.8,204.1,9.7,204.2,9.7z M207.6,6.2h5.7
		c0.1,0,0.2,0.1,0.2,0.3c0,0.2-0.1,0.5-0.2,0.6c-0.2,0.2-0.4,0.3-0.7,0.3c-0.1,0-0.5,0-1-0.1c-0.5,0-1.1,0-1.7,0
		c-1,0-1.8,0.1-2.3,0.2c-0.3,0.1-0.4,0.2-0.5,0.2c-0.4,0-0.6-0.3-0.6-0.7c0-0.2,0.1-0.4,0.3-0.6C207,6.3,207.3,6.2,207.6,6.2z"/>
	<path class="st0" d="M236.3,8.5c0,2.8-1.3,4.9-3.9,6.3c-1,0.6-1.9,0.9-2.4,0.9c-0.3,0-0.7-0.2-1-0.5c-0.4-0.3-0.6-0.7-0.6-1.1
		c0-0.1,0.2-0.3,0.5-0.3c0.2,0,0.6-0.1,1-0.2c1.2-0.2,2.2-0.6,2.9-1.1c0.7-0.5,1.3-1.1,1.7-1.8c0.5-0.8,0.7-1.7,0.7-2.6
		c0-0.7-0.2-1.5-0.6-2.2c-0.8-1.6-2.2-2.4-4.1-2.4c-0.1,0-0.2,0-0.3,0c-0.2,0-0.2,0-0.3,0c-0.8,4.1-1.8,7.2-3,9
		c-0.7,1.1-1.4,1.6-1.9,1.6c-0.7,0-1.3-0.6-1.8-1.9c-0.4-1-0.6-2-0.6-3c0-1.5,0.4-2.9,1.3-4.1c1.3-1.9,3.4-2.8,6.1-2.8
		c1.7,0,3.1,0.5,4.3,1.6C235.6,5,236.3,6.5,236.3,8.5z M228.6,3.6c-1.8,0.4-3,1.1-3.8,2.2C224,7,223.6,8,223.6,9
		c0,0.6,0.1,1.2,0.3,2c0.3,0.9,0.6,1.3,1,1.3c0.4,0,0.8-0.3,1.2-1C227.1,9.7,228,7.1,228.6,3.6z"/>
	<path class="st0" d="M244.4,7.2c0.2,0,0.3,0.1,0.3,0.3c0,0.3-0.1,0.5-0.2,0.6l-3.7,1.4c-0.5,0-0.7-0.2-0.7-0.7c0-0.6,0.2-1,0.6-1
		L244.4,7.2z M242.3,0.5c0.1,0,0.2,0.1,0.5,0.2c0.6,0.5,1.4,1.1,2.3,1.7c0.1,0.1,0.1,0.2,0.1,0.3c0,0.2-0.1,0.4-0.4,0.4
		c-0.1,0-0.2,0-0.4-0.1c-1.3-0.4-2.1-0.6-2.4-0.7c-0.4-0.3-0.6-0.6-0.6-1C241.5,0.7,241.8,0.5,242.3,0.5z M244.7,13
		c0.2,0,0.3,0.1,0.3,0.4c0,0.2,0,0.4-0.1,0.6c-1.3,1.8-2.1,2.7-2.3,2.7c-0.6,0-0.9-0.2-0.9-0.6c0-0.5,0.1-0.9,0.3-1
		C242,15,242.9,14.3,244.7,13z M247.9,3.4h3l0-2.3c0-0.6,0.2-0.8,0.6-0.8c0.5,0,0.8,0.3,0.8,0.8l-0.1,2.3h3.8c0.2,0,0.3,0.1,0.3,0.3
		c0,0.3-0.1,0.6-0.2,0.8c-0.2,0.2-0.4,0.3-0.7,0.3c-0.2,0-0.7-0.1-1.4-0.2c-0.6,0-1.1-0.1-1.8-0.1l-0.1,2.9c0.8,0,1.7,0.1,2.7,0.3
		c0.9,0.1,1.8,0.2,2.6,0.2c0.3,0,0.6,0,0.9-0.1c0.1,0,0.1,0.1,0.1,0.3c0,0.4-0.1,0.8-0.3,1.2c-0.2,0.4-0.4,0.6-0.6,0.6
		c-0.2,0-0.5-0.1-0.8-0.2c-1-0.5-1.9-0.8-2.8-1c-0.7-0.1-1.5-0.2-2.4-0.2c-1.1,0-2.1,0.1-3,0.3c-0.9,0.3-1.8,0.6-2.6,1
		c-0.3,0.1-0.5,0.2-0.6,0.2c-0.4,0-0.5-0.3-0.6-0.7c0-0.2,0.1-0.5,0.3-0.7c0.2-0.2,0.4-0.3,0.7-0.4c2.3-0.5,4.1-0.8,5.2-0.8
		l-0.1-2.9c-1.2,0-2.1,0.1-2.7,0.2c-0.4,0.1-0.6,0.2-0.7,0.2c-0.4,0-0.6-0.2-0.7-0.6c0-0.2,0.1-0.4,0.3-0.6
		C247.3,3.4,247.6,3.4,247.9,3.4z M250.8,8.8c0.5,0,0.7,0.3,0.7,1c0,0.1,0,0.2-0.1,0.3c-0.5,1.1-1,2-1.3,2.6c-0.3,0.5-0.6,1-0.9,1.7
		c0,0.1,0.1,0.2,0.3,0.2h4.8c0.3,0,0.4-0.1,0.4-0.3c0,0,0-0.1,0-0.1c-0.3-0.6-0.7-1.3-1.1-2c-0.1-0.1-0.1-0.2-0.1-0.2
		c0-0.4,0.2-0.6,0.6-0.6c0.1,0,0.2,0.1,0.3,0.2c0.5,0.9,1.2,2,1.8,3.3c0.1,0.1,0.1,0.3,0.1,0.5c0,0.4-0.2,0.6-0.6,0.6h-6.1
		c-0.4,0-1,0-1.6,0.1c-0.5,0-0.8-0.2-0.8-0.6c0-0.2,0.1-0.5,0.3-0.7c0.2-0.3,0.5-0.6,0.7-0.9c0.3-0.4,0.6-1,1-1.6
		c0.4-0.7,0.7-1.5,1.1-2.6C250.4,9,250.6,8.8,250.8,8.8z"/>
	<path class="st0" d="M268.7,1.1c0.5,0,0.8,0.2,0.8,0.7c-0.2,0.9-0.3,2-0.4,3.2c0,0.8-0.1,1.6-0.3,2.4c0.2,0.1,0.6,0.4,1,0.9
		c3.2,3.2,5.2,5,5.9,5.4c0.5,0.2,1.1,0.4,1.8,0.5c0.3,0,0.4,0.2,0.4,0.5c0,0.3-0.3,0.7-0.8,1.1c-0.5,0.4-1,0.5-1.5,0.5
		c-0.3,0-0.7-0.2-1-0.5c-1.3-1.8-2.7-3.6-4.3-5.4c-0.7-0.7-1.3-1.3-1.9-1.6c-0.1,0.3-0.2,0.7-0.3,1c-0.7,1.6-1.7,2.9-2.8,3.8
		c-1.4,1.3-2.7,1.9-3.9,1.9c-0.3,0-0.5-0.1-0.7-0.4c-0.4-0.4-0.6-0.8-0.6-1.2c0-0.3,0.2-0.5,0.7-0.5c1.3-0.2,2.3-0.6,3.1-1.1
		c1.3-0.6,2.4-1.9,3.2-3.9c0.6-1.6,0.9-3.4,0.9-5.6V1.8C268.1,1.3,268.3,1.1,268.7,1.1z"/>
	<path class="st0" d="M280.5,3.8h1.9c0-0.9,0-1.8-0.1-2.7c0-0.6,0.2-0.9,0.6-0.9c0.4,0,0.6,0.3,0.6,0.9c0,1,0,1.9-0.1,2.7h1.6
		c0.1,0,0.2,0.1,0.2,0.3c0,0.3-0.1,0.5-0.2,0.6c-0.2,0.2-0.4,0.3-0.7,0.3c-0.1,0-0.3,0-0.7-0.1c-0.1,0-0.1,0-0.2,0
		c0,0.3,0,0.5,0,0.8l0,1.8c0,0,0,0,0.1,0c0.1,0,0.4,0.3,0.9,0.8c0.5,0.6,0.8,1,0.8,1.2c0,0.3-0.2,0.5-0.5,0.5
		c-0.1,0-0.1-0.1-0.2-0.2c-0.5-0.5-0.8-0.9-1.1-1.1l0.1,6.9c0,1-0.2,1.5-0.7,1.5c-0.4,0-0.6-0.5-0.6-1.5c0-2.4,0-4.5,0.1-6.3
		c-0.2,0.4-0.4,0.7-0.7,1c-0.3,0.5-0.7,0.9-1.2,1.2c-0.1,0.1-0.2,0.1-0.2,0.1c-0.3,0-0.6-0.2-0.9-0.6c-0.3-0.3-0.4-0.6-0.4-0.9
		c0-0.2,0.2-0.3,0.5-0.3c0.3,0,0.6-0.1,0.7-0.2c0.4-0.1,0.7-0.4,1.1-0.7c0.4-0.4,0.7-0.8,0.9-1.2c0.1-0.1,0.1-0.2,0.2-0.2
		c0-0.6,0-1.2,0-1.8c0-0.3,0-0.5,0-0.8c-0.9,0-1.5,0.1-1.9,0.2c-0.2,0.1-0.4,0.2-0.4,0.2c-0.4,0-0.6-0.2-0.6-0.6
		c0-0.2,0.1-0.5,0.3-0.6C280,3.9,280.2,3.8,280.5,3.8z M287.1,2.1l2.1,0.1c0.4-0.1,0.7-0.1,0.8-0.1c0.5,0,0.7,0.2,0.7,0.7
		c-0.1,0.8-0.2,1.6-0.3,2.5c0,0.5,0,1.4,0,2.8c0,0.4-0.2,0.6-0.6,0.6c-0.1,0-0.2,0-0.3-0.1c-0.1,0-0.1,0-0.2,0c-1,0-1.8,0.1-2.3,0.2
		c0,0-0.1,0-0.1,0c0,1.3-0.1,2.5-0.1,3.7c0,0.2,0,0.3,0.1,0.3c1.3-0.4,2.2-0.6,2.6-0.7c-0.2-0.4-0.4-0.7-0.5-1
		c-0.1-0.2-0.2-0.3-0.2-0.5c0-0.3,0.2-0.5,0.6-0.5c0.3,0,0.4,0.1,0.6,0.3c0.3,0.6,0.6,1.3,0.9,2.1c0.1,0.4,0.2,0.7,0.2,0.9
		c0,0.3-0.2,0.4-0.5,0.5c-0.2,0-0.3-0.1-0.4-0.3c-0.1-0.2-0.1-0.3-0.2-0.5c-0.1,0.1-0.2,0.1-0.3,0.1c-1,0.2-1.7,0.4-2.3,0.6
		c-0.4,0.2-0.8,0.4-1,0.6c-0.2,0.2-0.3,0.3-0.4,0.3c-0.4,0-0.6-0.3-0.6-0.8c0-0.1,0.1-0.4,0.2-0.8c0.1-0.3,0.2-0.9,0.2-1.6
		c0.1-1.4,0.2-2.8,0.2-4c0-1.6-0.1-3.3-0.2-4.9c0-0.4,0.2-0.7,0.6-0.7c0.2,0,0.4,0.1,0.5,0.2C286.9,2.1,287,2.1,287.1,2.1z M287,6.1
		c0,0.6,0,1.1,0,1.7c0,0,0.1,0,0.1,0h2.2c0,0,0.1,0,0.1,0c0,0,0-0.1,0-0.1c0-0.7,0-1.3,0-1.8c0,0-0.1,0-0.1,0
		c-0.9,0-1.6,0.1-2.2,0.2C287.1,6.1,287,6.1,287,6.1z M287,3.3c0,0.6,0,1.2,0,1.7c0.1,0,0.1,0,0.2,0h2c0.1,0,0.1,0,0.2,0
		c0-0.6,0-1.1,0.1-1.5c0-0.2-0.1-0.3-0.2-0.3C288.6,3.2,287.9,3.2,287,3.3z M291.8,4.7c0.5,0,0.7,0.2,0.7,0.6c0,0.6-0.1,1.4-0.2,2.3
		c0,0.1,0.1,0.2,0.2,0.2c0.3,0,0.7-0.1,1.1-0.1c0.1-0.7,0.1-1.4,0.1-2.1V4.8c0-0.4,0.2-0.5,0.5-0.6c0.4,0,0.5,0.2,0.6,0.6
		c0,0.6-0.1,1.5-0.2,2.6c0,0.1,0,0.1,0,0.2c0,0,0.1,0,0.1,0c0.4,0,1.2,0,2.4,0.1c0.1,0,0.2,0.1,0.2,0.4c0,0.3-0.1,0.5-0.2,0.6
		c-0.2,0.1-0.3,0.1-0.5,0.1c-0.7,0-1.3-0.1-1.8-0.1c-0.1,0-0.2,0-0.4,0c-0.1,0.6-0.2,1.1-0.3,1.7c0.1-0.1,0.2-0.1,0.3-0.1
		c0.4,0,0.7,0.3,0.7,0.8c0,0.8-0.1,1.8-0.2,3.1c0,0.2,0.1,0.3,0.4,0.3c0.3,0.1,0.6,0.1,1,0.1s0.8-0.1,1.4-0.4c0.1,0,0.2,0.1,0.2,0.4
		c0,0.4-0.1,0.8-0.3,1.3c-0.2,0.5-0.4,0.8-0.6,0.8c-0.1,0-0.4-0.1-0.9-0.2c-0.5-0.2-1.1-0.4-1.7-0.7c-0.4-0.2-0.6-0.5-0.6-1
		c0.1-0.7,0.2-1.4,0.2-2.1c0-0.4,0-0.9-0.1-1.6c-0.1,0.5-0.3,1-0.4,1.5c-0.6,1.6-1.3,2.7-2.1,3.4c-0.4,0.4-0.8,0.7-1,0.7
		c-0.2,0-0.5-0.2-0.7-0.4c-0.1-0.2-0.2-0.4-0.3-0.6c0-0.1,0.1-0.2,0.2-0.3c1.3-0.9,2.3-2,2.8-3.3c0.4-0.9,0.8-2.1,1-3.3
		c-0.3,0-0.5,0-0.8,0.1c-0.4,0-0.7,0.1-0.9,0.2c-0.1,0-0.2,0.1-0.3,0.1c-0.3,0-0.4-0.2-0.4-0.5c0-0.1,0.1-0.4,0.2-0.7
		c0.1-0.4,0.1-0.7,0.1-1.1c0-0.2,0-0.5-0.1-0.9c-0.1-0.4-0.1-0.7-0.1-0.8C291.3,4.9,291.5,4.7,291.8,4.7z M292.3,2.3h4.5
		c0.2,0,0.3,0.1,0.3,0.3c0,0.3-0.1,0.6-0.2,0.8c-0.2,0.2-0.4,0.3-0.7,0.3c-0.1,0-0.4-0.1-0.7-0.2c-0.4,0-0.8-0.1-1.3-0.1
		c-0.9,0-1.5,0.1-1.9,0.2c-0.2,0.1-0.4,0.2-0.4,0.2c-0.4,0-0.6-0.2-0.7-0.6c0-0.2,0.1-0.4,0.3-0.6C291.7,2.3,292,2.3,292.3,2.3z"/>
	<path class="st0" d="M308.3,8c0.1,0,0.2,0,0.4,0.1c0.2,0.2,0.3,0.4,0.3,0.7c0,0.1-0.1,0.3-0.2,0.5c-0.1,0.1-0.1,0.2-0.1,0.2
		c1.1,0,2.5,0.1,4,0.2c1.2,0.1,2.3,0.1,3.1,0.1c0.5,0,1-0.1,1.7-0.2c0.1,0,0.2,0.2,0.2,0.5c0,0.5-0.2,1-0.6,1.6
		c-0.3,0.4-0.5,0.6-0.7,0.6c-0.4,0-0.8-0.1-1.4-0.4c-0.9-0.4-1.8-0.7-2.9-0.8c-0.1,0-0.1,0-0.1,0v0c0,0-0.1,0.1-0.1,0.2
		c-0.4,0.8-1,1.8-1.9,2.9c0.9,0.4,1.6,0.8,2.1,1.2c0.5,0.3,0.9,0.5,1.3,0.6c0.1,0.1,0.2,0.1,0.2,0.2c0,0.2-0.1,0.4-0.3,0.6
		c-0.2,0.2-0.4,0.3-0.6,0.3c-0.2,0-0.5-0.2-0.9-0.5c-0.6-0.4-1.5-1-2.7-1.6c-0.8,0.7-1.6,1.2-2.4,1.6c-0.8,0.4-1.4,0.6-1.9,0.6
		c-0.2,0-0.4-0.1-0.7-0.3c-0.3-0.3-0.4-0.6-0.4-1c0-0.3,0.2-0.4,0.6-0.5c1.2-0.1,2.4-0.5,3.4-1.1c-1.2-0.6-2-0.8-2.5-0.8
		c-0.4,0-0.6-0.2-0.6-0.5c0-0.1,0.1-0.2,0.2-0.4c0.5-0.4,1-1,1.4-1.7c-0.7,0-1.4,0.1-2.1,0.2c-0.8,0.1-2.1,0.5-3.7,1.3
		c-0.5,0-0.7-0.2-0.7-0.6c0-0.3,0.1-0.5,0.3-0.7c0.2-0.3,0.6-0.5,1-0.5c2.5-0.4,4.6-0.7,6.2-0.8c0.2-0.3,0.4-0.6,0.6-1
		C307.9,8.2,308.1,8,308.3,8z M302.8,0.7h12.7c0.2,0,0.3,0.1,0.3,0.3c0,0.3-0.1,0.6-0.2,0.8c-0.2,0.2-0.4,0.3-0.7,0.3
		c-0.3,0-1.1-0.1-2.3-0.2c-0.5,0-1-0.1-1.6-0.1l0,1.8c0.7,0,1.4,0,2.2,0.1c0.2,0,0.4-0.1,0.7-0.2c0.4,0,0.6,0.2,0.6,0.7l0,0.1
		c-0.1,0.1-0.1,0.3-0.1,0.6c0,0.4-0.1,0.8-0.1,1.3c0,0.2,0,0.5,0.1,0.9c0,0.5-0.2,0.7-0.5,0.7c-1.8-0.1-3.5-0.2-4.9-0.2
		c-1.9,0-3.1,0-3.6,0.1c-0.4,0-1,0.1-1.6,0.1c-0.3,0-0.5-0.2-0.5-0.6c0.1-0.7,0.2-1.3,0.2-1.8c0-0.4-0.1-0.9-0.2-1.5
		c0-0.4,0.2-0.6,0.6-0.6c0.2,0,0.4,0,0.5,0.1s0.4,0.1,0.8,0.1h1.6l0-1.8c-1.3,0-2.3,0.1-3,0.2c-0.6,0.1-1,0.2-1.1,0.2
		c-0.4,0-0.7-0.3-0.7-0.7c0-0.2,0.1-0.4,0.3-0.6C302.2,0.7,302.4,0.7,302.8,0.7z M306.6,6.7l0-2.1c-0.6,0-1.2,0-1.9,0
		c-0.2,0-0.3,0.2-0.3,0.5c0,0.5-0.1,0.9-0.2,1.3c0,0.2,0.1,0.4,0.4,0.4C305.2,6.7,305.9,6.7,306.6,6.7z M310.9,10.8
		c-0.8-0.1-1.6-0.1-2.5-0.1c-0.2,0-0.4,0-0.6,0c-0.3,0.5-0.7,0.9-1,1.3c-0.1,0.1-0.1,0.2-0.1,0.2c0,0.1,0.1,0.3,0.4,0.4
		c0.6,0.3,1.2,0.6,1.7,0.8C309.6,12.7,310.4,11.8,310.9,10.8z M308.8,6.7c0.4,0,0.7,0,1.1,0l0-2c-0.7,0-1.5,0-2.3,0l0,2.1
		C307.9,6.7,308.3,6.7,308.8,6.7z M309.8,3.6l0-1.8c-0.5,0-0.9,0-1.4,0c-0.3,0-0.5,0-0.8,0l0,1.8h1.9C309.6,3.6,309.7,3.6,309.8,3.6
		z M310.9,4.7l0,2c0.6,0,1.3,0,2,0c0.2,0,0.3-0.1,0.3-0.3V5c0-0.2,0-0.3-0.1-0.3C312.4,4.7,311.6,4.7,310.9,4.7z"/>
	<path class="st0" d="M334.4,6.1c0,0.3-0.3,0.6-0.8,1c-1.2,0.9-2.9,2-5.1,3.4c0,0.1,0,0.4,0,0.8c0,0.3,0,0.6,0,0.8
		c0,0.5-0.2,0.7-0.7,0.7c-0.3,0-0.4-0.2-0.5-0.6c0-0.1,0-0.4,0-1c-0.8,0.5-1.4,0.8-1.7,1.1c-0.7,0.6-1.1,1.1-1.1,1.7
		c0,0.4,0.3,0.6,1,0.8c0.5,0.1,1,0.2,1.5,0.2c1.5,0,2.8-0.3,4-0.8c0.9-0.4,1.4-0.6,1.4-0.6c0.1,0,0.2,0.1,0.2,0.4
		c0,0.5-0.1,1-0.4,1.5c-0.2,0.4-0.7,0.6-1.6,0.8c-0.7,0.1-1.4,0.1-2.3,0.1c-1.1,0-2.1-0.1-2.9-0.4c-1.3-0.4-1.9-1.1-1.9-2
		c0-0.8,0.5-1.6,1.4-2.4c0.1-0.2,0.9-0.7,2.2-1.7c0-0.9-0.1-1.4-0.1-1.6c-0.1-0.6-0.5-0.9-1.1-0.9c-0.7,0-1.4,0.2-1.9,0.5
		c-0.2,0.1-0.8,0.6-1.7,1.4c-0.1,0.1-0.2,0.2-0.4,0.3c-0.4,0-0.6-0.3-0.6-0.9c0-0.4,0.4-0.9,1.2-1.4c1.1-0.8,2.1-1.8,3-3.2
		c-0.4,0.1-1.1,0.2-2,0.3c0,0-0.3,0.1-0.8,0.2c-0.4,0.1-0.6,0.2-0.8,0.2c-0.3,0-0.5-0.2-0.5-0.7c0-0.6,0.4-0.9,1.2-1
		c0.7,0,1.9-0.1,3.3-0.1c0.1-0.3,0.4-0.9,0.8-1.9c0.2-0.5,0.4-0.7,0.8-0.7c0.5,0,0.7,0.2,0.7,0.7c0,0.2-0.3,0.8-0.9,1.9
		c0.4,0,1.1,0,1.9,0c0.9,0,1.5,0,1.9,0c0.1,0,0.3,0,0.5,0c0.2,0,0.4-0.1,0.5-0.1c0.1,0,0.2,0.1,0.2,0.2c0,0.3-0.2,0.6-0.4,1
		c-0.3,0.4-0.5,0.6-0.8,0.6s-0.5-0.1-0.8-0.2c-0.3-0.1-0.5-0.1-0.8-0.2c-0.6-0.2-1.6-0.3-2.8-0.3c-0.6,1-1.3,1.9-1.9,2.6
		c0.5-0.1,1-0.1,1.4-0.1c1.1,0,1.8,0.8,1.8,2.3c0,0.2,0,0.3,0.1,0.4c1.8-1.3,3.3-2.4,4.4-3.3c0.4-0.3,0.7-0.4,0.9-0.4
		C334.2,5.4,334.4,5.6,334.4,6.1z"/>
	<path class="st0" d="M119.8,43c-0.2,1.3-0.7,2.1-1.6,2.4c-0.3,0.1-1.2,0.2-2.7,0.2c-1.8,0-3.2-0.2-4.4-0.6
		c-1.9-0.6-2.9-1.7-2.9-3.2c0-0.4,0.1-0.9,0.3-1.4c0.2-0.6,0.6-0.9,0.9-0.9c0.1,0,0.2,0.1,0.2,0.3c-0.1,0.1-0.2,0.4-0.4,0.9
		c-0.1,0.3-0.2,0.7-0.2,1c0,1.3,1.3,2,3.9,2c2,0,3.7-0.2,4.9-0.6c1.1-0.3,1.7-0.5,1.7-0.5C119.6,42.7,119.7,42.8,119.8,43z
		 M117.2,34.2c0,0.3-0.3,0.5-0.7,0.8c-2.2,1.2-3.3,1.8-3.5,1.8s-0.2-0.1-0.2-0.3c0-0.3,0.3-0.6,1-1.1c0.7-0.5,1.1-0.8,1.1-0.9
		c-0.1,0-0.3-0.1-0.7-0.1c-1.3,0-2.3,0-2.9,0.1c-0.1,0-0.3,0.1-0.7,0.2c-0.3,0-0.5,0.1-0.7,0.1c-0.4,0-0.6-0.2-0.6-0.5
		c0-0.6,0.2-0.9,0.7-1.1c0.5-0.2,1.3-0.2,2.3-0.2h1.3C115.8,33,117,33.4,117.2,34.2z M120.9,33c0,0.1-0.1,0.4-0.4,0.7
		c-0.2,0.3-0.4,0.5-0.5,0.5c-0.2,0-0.6-0.3-1.2-1c-0.6-0.7-0.8-1.1-0.8-1.3c0-0.2,0.1-0.3,0.2-0.3c0.5,0.2,1.3,0.6,2.5,1.1
		C120.9,32.8,120.9,32.9,120.9,33z M124,31.7c0,0.1-0.1,0.4-0.4,0.7c-0.2,0.3-0.4,0.5-0.5,0.5c-0.3,0-0.7-0.3-1.3-1
		c-0.6-0.7-0.9-1.1-0.9-1.4c0-0.2,0.1-0.3,0.2-0.3c0.4,0.2,0.8,0.4,1.2,0.6c0.3,0.2,0.8,0.3,1.3,0.5C123.8,31.4,124,31.5,124,31.7z"
		/>
	<path class="st0" d="M125.1,42.9c0.3,0.1,0.6,0.1,0.7,0.1c0.4,0,1-0.2,1.6-0.6c0.2,0,0.2,0.1,0.2,0.3c0,0.2-0.2,0.6-0.7,1.2
		c-0.4,0.7-0.8,1-1.2,1c-0.2,0-0.5-0.1-0.6-0.4c-0.2-0.4-0.3-0.8-0.3-1.2C124.9,43.1,125,42.9,125.1,42.9z M129.5,29.9
		c0.4,0,0.6,0.3,0.6,0.8c0,0.3-0.1,0.7-0.4,1.1c-0.7,1.1-1.4,2.1-2.3,2.9c-0.2,0.1-0.2,0.3-0.2,0.5c0,0,0.1,0.2,0.4,0.3
		c0.2,0.1,0.5,0.4,0.9,0.7c0,0,0,0.1,0.1,0.1c0.7-0.9,1.5-1.8,2.2-2.6c0.1-0.1,0.2-0.1,0.4-0.1c0.1,0,0.2,0.1,0.3,0.2
		c0.1,0.1,0.1,0.3,0.1,0.5c0,0.2-0.1,0.4-0.2,0.5c-1.2,1.4-2.3,2.8-3.5,4.3c-0.1,0.1-0.1,0.2-0.1,0.4c0,0,0,0.1,0.1,0.1
		c0.1,0,0.5,0.1,1.1,0.1c0.8,0,1.5,0,2-0.1c0.1,0,0.2-0.1,0.2-0.3c-0.2-0.5-0.4-1-0.6-1.4c-0.1-0.1-0.1-0.2-0.1-0.3
		c0-0.1,0-0.2,0.1-0.4c0.1-0.1,0.3-0.2,0.4-0.2c0.1,0,0.2,0.1,0.3,0.4c0.3,0.5,0.6,1.1,0.9,1.8c0.1,0.3,0.2,0.6,0.2,0.8
		c0,0.5-0.2,0.8-0.6,0.8c-0.2-0.1-0.5-0.1-0.7-0.1c-0.4,0-0.8,0.1-1.1,0.1c0,0.1,0,0.2,0,0.4c-0.1,0.7-0.1,1.2-0.1,1.8l0.1,2.9
		c0,1-0.2,1.5-0.7,1.5c-0.4,0-0.6-0.5-0.6-1.5c0-1.2,0.1-2.2,0.1-2.9c0-0.5,0-1.1-0.1-1.8c0-0.1,0-0.3,0-0.4c-0.4,0-0.7,0-1.1-0.1
		c-0.3,0-0.7,0-1.1,0.1c-0.5,0-0.8-0.2-0.8-0.6c0-0.2,0.1-0.5,0.3-0.8c0.7-0.8,1.3-1.5,1.9-2.2c0,0,0,0-0.1,0c-0.9-0.6-1.6-1-2-1.1
		c-0.2-0.1-0.4-0.2-0.4-0.5c0-0.2,0.1-0.5,0.3-0.6c0.4-0.3,0.7-0.6,1.1-1.1c0.8-0.9,1.6-2,2.2-3.4C129.2,30,129.3,29.9,129.5,29.9z
		 M131,42.3c0.1,0,0.2,0,0.3,0.1c0.3,0.5,0.7,0.9,1.2,1.1c0.2,0.1,0.3,0.2,0.3,0.4c0,0.3-0.1,0.5-0.3,0.7c-0.2,0.2-0.4,0.2-0.7,0.2
		c-0.2,0-0.4-0.3-0.7-0.9c-0.3-0.6-0.4-1-0.4-1.2C130.8,42.4,130.9,42.3,131,42.3z M136.8,31.2h4.1c0.1,0,0.3-0.1,0.7-0.2
		c0.5,0,0.7,0.3,0.7,0.8c-0.3,1.1-0.4,2.2-0.5,3.3c-0.1,1.5-0.5,2.5-1,3c-0.4,0.4-1,0.6-1.7,0.6c-0.3,0-0.6-0.2-0.8-0.5
		c-0.1-0.3-0.2-0.6-0.2-0.8c0-0.3,0.1-0.4,0.3-0.5c0.9,0,1.4-0.2,1.7-0.5c0.3-0.3,0.6-1.1,0.8-2.4c0.1-0.8,0.1-1.3,0.1-1.5
		c0-0.2-0.1-0.4-0.2-0.4h-3c0,0,0,0.1,0,0.1c0,0,0,0.1-0.1,0.2c-0.2,0.9-0.6,1.9-1.1,3c-0.6,1-1.1,1.8-1.8,2.4
		c-0.4,0.4-0.7,0.6-1,0.6c-0.2,0-0.4-0.1-0.7-0.3c-0.3-0.3-0.5-0.7-0.5-1c0-0.2,0.2-0.4,0.6-0.5c0.7-0.1,1.4-0.6,2.1-1.4
		c0.6-0.8,1-1.8,1.3-3c-0.6,0-1.1,0.1-1.7,0.2c-0.5,0.1-0.8,0.2-0.9,0.2c-0.3,0-0.5-0.2-0.5-0.5c0-0.5,0.2-0.9,0.6-0.9
		C134.5,31.3,135.4,31.2,136.8,31.2z M134.5,39.8c0.2,0,0.4,0,0.6,0.1c0.2,0.1,0.5,0.1,0.8,0.1h2.5c0.6,0,1.2,0,2,0.1
		c0.2,0,0.4-0.1,0.7-0.2c0.4,0,0.6,0.3,0.6,0.8c0,0,0,0.1-0.1,0.2c-0.1,0.2-0.1,0.5-0.1,1c0,0.6-0.1,1.3-0.1,2.1c0,0.4,0,1,0.1,1.8
		c0,0.6-0.2,0.8-0.6,0.8c-1.3-0.2-2.4-0.3-3.4-0.3c-1.1,0-1.8,0-2.2,0.1c-0.3,0-0.6,0.1-0.9,0.2c-0.4,0-0.6-0.2-0.6-0.7
		c0.1-1,0.1-1.9,0.1-2.7c0-0.8,0-1.7-0.1-2.7C133.9,40.1,134.1,39.8,134.5,39.8z M137.6,45.2c0.8,0,1.6,0,2.5,0.1
		c0.2,0,0.3-0.1,0.3-0.4v-3.4c0-0.2-0.1-0.3-0.2-0.3c-1.1-0.1-2.6-0.1-4.6-0.1c-0.3,0-0.4,0.2-0.4,0.5c0,1.1-0.1,2.2-0.2,3.2
		c0,0.3,0.2,0.5,0.5,0.5C136.1,45.2,136.8,45.2,137.6,45.2z"/>
	<path class="st0" d="M154.2,30.3c0.3,0,0.4,0.2,0.4,0.5c0.2,0,0.6,0.2,1,0.6c2.9,2.1,4.7,3.3,5.4,3.6c0.5,0.1,1,0.2,1.7,0.3
		c0.3,0,0.4,0.1,0.4,0.4c0,0.3-0.2,0.7-0.7,1.1c-0.5,0.4-0.9,0.5-1.4,0.5c-0.3,0-0.7-0.2-1-0.5c-1.2-1.2-2.5-2.5-4-3.7
		c-0.6-0.5-1.2-0.9-1.7-1.1c-0.1-0.1-0.2-0.1-0.3-0.2c-1,1.2-2.2,2.3-3.4,3.2c-1,0.8-2.2,1.4-3.5,1.9c-0.3,0.1-0.5,0.1-0.6,0.1
		c-0.3,0-0.7-0.2-1-0.7c-0.3-0.4-0.5-0.7-0.5-0.9c0-0.2,0.2-0.4,0.6-0.4c1-0.1,1.7-0.2,2.2-0.4c1.1-0.3,2.2-0.8,3.3-1.5
		c1.1-0.8,2-1.6,2.7-2.6C153.9,30.4,154,30.3,154.2,30.3z M151.5,36c0.5,0,0.7,0.3,0.7,0.8c0,1.6,0,2.7-0.1,3.5c0,2.5-0.3,4.3-1,5.2
		c-0.7,1-1.4,1.5-2.1,1.5c-0.3,0-0.7-0.2-1-0.6c-0.2-0.3-0.3-0.5-0.3-0.7c0-0.2,0.1-0.2,0.4-0.3c1-0.1,1.8-0.6,2.3-1.5
		c0.4-0.7,0.6-2,0.6-3.9c0-1-0.1-2.1-0.2-3.2C150.9,36.2,151.1,36,151.5,36z M156.6,36c0.4,0,0.6,0.3,0.6,0.9c0,1.1-0.1,2.1-0.1,2.9
		l0.2,5.7c0,1-0.2,1.5-0.7,1.5c-0.4,0-0.6-0.5-0.6-1.5c0-2.4-0.1-4.4-0.1-5.7c0-0.9,0-1.8-0.1-2.9C155.9,36.3,156.1,36,156.6,36z"/>
	<path class="st0" d="M178.6,41.3c0,0.5-0.1,1-0.3,1.6c-0.4,1-1.4,1.9-3,2.5c-1.3,0.5-2.6,0.8-3.8,0.8c-1.4,0-2.4-0.7-2.9-2.1
		c-0.3-0.9-0.4-3.2-0.4-6.8c0-3.6,0.1-5.6,0.2-5.8c0.2-0.2,0.4-0.4,0.7-0.4c0.5,0,0.7,0.4,0.7,1.1c0,0.2,0,0.9-0.1,2.1
		c-0.2,1.9-0.3,3.7-0.3,5.3c0,1.4,0,2.3,0.1,2.6c0.1,1.2,0.3,2,0.8,2.3c0.3,0.2,0.7,0.3,1.2,0.3c1,0,2.1-0.3,3.3-1
		c1.1-0.6,2.1-1.4,2.9-2.3c0.5-0.6,0.8-0.9,0.9-0.9C178.5,40.6,178.6,40.8,178.6,41.3z"/>
	<path class="st0" d="M196.9,44.1c-0.1,0.3-0.3,0.7-0.7,1.2c-0.4,0.5-0.7,0.8-0.9,0.8c-0.3,0-0.9-0.3-1.7-0.9
		c-0.5-0.4-1-0.8-1.5-1.2c-0.4-0.3-1-0.6-1.7-0.9c-0.1,2-1.2,3-3.2,3c-0.7,0-1.4-0.2-1.9-0.6c-0.7-0.4-1-1.1-1-1.9
		c0-0.9,0.4-1.5,1.1-1.9c0.6-0.3,1.2-0.5,2.1-0.5c0.5,0,1.2,0.1,1.9,0.3c0-0.4,0-0.9,0-1.5c0-0.8,0-1.3,0-1.5c0,0,0,0,0-0.1
		c0-0.1,0-0.1,0-0.1c-1.3,0.1-2.4,0.2-3.3,0.4c-0.1,0-0.2,0-0.3,0.1c-0.1,0.1-0.2,0.1-0.3,0.1c-0.3,0-0.5-0.2-0.5-0.7
		c0-0.5,0.4-0.9,1.1-0.9c0.6-0.1,1.7-0.2,3.3-0.2c0-0.8,0-1.8,0-3c-1.1,0-1.8,0.1-1.9,0.1c-0.7,0.1-1.4,0.2-1.9,0.3
		c-0.5,0.2-0.8,0.2-0.8,0.2c-0.5,0-0.7-0.3-0.7-0.9c0-0.2,0.1-0.4,0.2-0.5c0.2-0.2,1.9-0.3,5.2-0.3c0-1.1-0.1-1.8-0.1-1.9
		c0-0.6,0.2-0.9,0.7-0.9c0.5,0,0.8,0.3,0.8,0.9c0,0.5,0,1.2-0.1,1.9c2.5,0.1,4.1,0.2,4.9,0.2c0.3,0,0.4,0.1,0.4,0.2
		c0,0.3-0.1,0.6-0.3,1c-0.2,0.4-0.4,0.6-0.6,0.6c0.1,0-0.3-0.1-1-0.4c-0.7-0.2-1.9-0.4-3.5-0.5c0,1,0,2,0,2.9c1.6,0,2.9,0.1,4.1,0.3
		c0.1,0,0.2,0,0.2,0.1c0,0,0.1,0.1,0.1,0.2c0,0.3-0.1,0.5-0.2,0.8c-0.1,0.3-0.3,0.5-0.5,0.5c0,0-0.5-0.1-1.3-0.3
		c-0.7-0.2-1.5-0.2-2.4-0.3c0,0.2,0,1.3-0.1,3.6c1.3,0.4,2.4,0.9,3.6,1.4c0.8,0.3,1.6,0.5,2.4,0.6C196.8,43.8,196.9,43.9,196.9,44.1
		z M189.4,42.6c-0.8-0.3-1.5-0.4-2.1-0.4c-1.4,0-2.1,0.5-2.1,1.4c0,0.4,0.3,0.8,0.8,1c0.4,0.2,0.8,0.3,1.2,0.3
		c0.7,0,1.2-0.2,1.6-0.6C189.1,44,189.3,43.4,189.4,42.6z"/>
	<path class="st0" d="M216.2,34.2c-0.1,0.3-0.3,0.8-0.6,1.2c-0.4,0.5-0.7,0.8-1,0.8c-0.3-0.1-0.7-0.3-1.2-0.6
		c-1.1-0.5-2.4-0.8-3.7-0.9c0,0.9,0,2.2-0.1,4c0.4,1.1,0.6,1.9,0.6,2.4c0,1-0.3,1.9-0.8,2.8c-0.5,0.8-1.1,1.5-1.9,1.9
		c-1,0.6-1.7,0.8-2.3,0.8c-0.3,0-0.7-0.2-1-0.6c-0.3-0.4-0.5-0.8-0.5-1.2c0-0.1,0.2-0.2,0.6-0.3c1.2-0.1,2-0.2,2.5-0.4
		c0.9-0.3,1.6-0.9,2-1.8c0.3-0.6,0.4-1.1,0.4-1.5c0,0,0-0.1,0-0.1c0-0.1,0-0.2,0-0.2c-0.3,0.5-0.6,0.9-1.1,1.2
		c-0.5,0.3-1,0.5-1.5,0.5c-0.7,0-1.3-0.3-1.8-0.8c-0.5-0.5-0.8-1.2-0.8-1.9c0-0.9,0.3-1.5,0.9-2c0.5-0.4,1.1-0.6,1.9-0.6
		c0.6,0,1.1,0.2,1.8,0.6c0-0.4,0-1.3,0-2.8c-2,0-3.9,0.3-5.5,0.9c-0.9,0.4-1.5,0.6-1.6,0.6c-0.4,0-0.7-0.3-0.7-0.9
		c0-0.5,0.5-0.9,1.6-1.2c0.7-0.1,1.3-0.2,2-0.3c1.2-0.2,2.5-0.3,4.1-0.3c-0.1-1.5-0.1-2.3-0.1-2.4c0-0.7,0.2-1,0.6-1
		c0.5,0,0.7,0.4,0.7,1.3c0,0.2,0,0.6,0,1.1c0,0.4,0,0.8,0,1c2.3,0.2,4.3,0.3,6,0.3C216,34,216.1,34.1,216.2,34.2z M208.6,39
		c-0.4-0.7-1-1-1.7-1c-0.5,0-0.9,0.1-1.2,0.4c-0.4,0.3-0.6,0.7-0.6,1.2c0,0.5,0.1,0.9,0.4,1.2c0.3,0.3,0.7,0.4,1.1,0.4
		C207.7,41.1,208.4,40.4,208.6,39z"/>
	<path class="st0" d="M224.7,44.7c0,0.8-0.2,1.5-0.7,2c-0.5,0.5-1,0.8-1.7,0.8c-0.7,0-1.3-0.3-1.7-0.8c-0.5-0.6-0.7-1.2-0.7-2
		c0-0.8,0.2-1.5,0.7-2c0.5-0.6,1.1-0.9,1.7-0.9c0.7,0,1.3,0.3,1.7,0.9C224.5,43.3,224.7,43.9,224.7,44.7z M224,44.7
		c0-0.5-0.2-1-0.5-1.4c-0.3-0.4-0.7-0.6-1.2-0.6c-0.4,0-0.8,0.2-1.2,0.6c-0.3,0.4-0.5,0.9-0.5,1.4s0.2,1,0.5,1.4
		c0.3,0.4,0.7,0.6,1.2,0.6c0.5,0,0.9-0.2,1.2-0.6C223.8,45.7,224,45.3,224,44.7z"/>
</g>
</svg>
