<?xml version="1.0" encoding="utf-8"?>
<!-- Generator: Adobe Illustrator 24.0.3, SVG Export Plug-In . SVG Version: 6.00 Build 0)  -->
<svg version="1.1" id="レイヤー_1" xmlns="http://www.w3.org/2000/svg" xmlns:xlink="http://www.w3.org/1999/xlink" x="0px"
	 y="0px" viewBox="0 0 160.7 159.8" style="enable-background:new 0 0 160.7 159.8;" xml:space="preserve">
<style type="text/css">
	.st0{fill:#1E191A;}
	.st1{fill:#463C38;}
	.st2{fill:#F2E6CA;}
	.st3{fill:#CE3327;}
	.st4{fill:#045B8D;}
	.st5{fill:#332723;}
	.st6{fill:#202115;}
</style>
<g>
	<g>
		<g>
			<g>
				<path class="st0" d="M69.9,107c0.6-5.6,2.2-10.7,4.3-15.8c1.6-3.6,3.3-7.1,4.9-10.6l-2.7-1.1c0,0-16.7,21.5-17.7,33
					c-0.9,11.1,4.2,20.2,6.9,20.9c2.7,0.7,5.2,1.3,5.2,1.3s1.1,4.5,5.7,7.1c3.3,1.8,5.1,2.1,6.6,1.7c-3.4-6.3-7.7-12-10.6-18.7
					C70.1,119.1,69.2,113.2,69.9,107z"/>
			</g>
			<g>
				<path class="st1" d="M79.1,80.6c-1.6,3.6-3.4,7-4.9,10.6c-2.1,5.1-3.8,10.2-4.3,15.8c-0.5,4.4-0.2,8.7,0.9,12.8
					c0-1.4,0.1-2.9,0.4-4.3c0.2-1.1,1.4-2.5,2.4-2.1c1.2,0.5,2.3,1.2,3.3,2.1c-1.2-2.9-1.8-6-1.9-9.2c-0.1-2.7,0.3-5.1,0.5-7.7
					c0.4-5.8,2.8-10.8,4.9-16.1c0.2-0.4,0.3-0.8,0.3-1.2L79.1,80.6z"/>
			</g>
			<g>
				<path class="st1" d="M78.3,90.9c-0.8,3.3-1.1,6.3-0.9,9.6c0.1,3.5,0.8,6.8,1.9,10c0.3-1,1-1.9,2-2.6c0.4-0.3,0.9-0.3,1.3-0.1
					c-1.6-2.1-2.9-4.6-3.8-8.1C77.9,96.4,77.9,93.4,78.3,90.9C78.3,90.8,78.3,90.9,78.3,90.9z"/>
			</g>
			<g>
				<path class="st0" d="M80.8,81.3c-0.1,0.4-0.2,0.8-0.3,1.2c-2.1,5.3-4.5,10.3-4.9,16.1c-0.2,2.6-0.5,5-0.5,7.7
					c0.1,2.1,0.3,4.1,0.8,6c0-0.5,0.1-1,0.2-1.5c0.1-0.8,0.7-1.6,1.6-1.4c0.8,0.1,1.3,0.6,1.7,1.2c-1.1-3.2-1.8-6.6-2-10.1
					c-0.2-3.3,0.1-6.3,0.9-9.6c0,0,0,0,0,0c0.8-5.6,3.4-9.1,3.4-9.1L80.8,81.3z"/>
			</g>
			<g>
				<path class="st1" d="M66.4,121.9c-0.1-1.8-0.2-3.4,0-5.2c0.6-5.8,1-11.2,2.5-17c2-7.3,4.7-13.7,8.6-19.7l-1-0.4
					c0,0-10.9,14-15.6,25.5c0,0,0,0,0,0c0,0,0,0,0,0c0,0.1-0.1,0.2-0.1,0.3c0,0,0,0,0,0.1c0,0.1-0.1,0.2-0.1,0.3c0,0,0,0,0,0
					c-0.1,0.3-0.2,0.5-0.3,0.8c0,0,0,0,0,0.1c0,0.1-0.1,0.2-0.1,0.3c0,0,0,0.1,0,0.1c0,0.1-0.1,0.2-0.1,0.3c0,0,0,0.1,0,0.1
					c0,0.1-0.1,0.2-0.1,0.3c0,0,0,0.1,0,0.1c0,0.1-0.1,0.2-0.1,0.4c0,0,0,0,0,0c-0.5,1.6-0.8,3.1-0.9,4.4c-0.2,3,0,5.9,0.5,8.5
					c0,0,0,0,0,0c0.7,3.7,1.9,6.8,3.2,9c0,0,0,0,0,0c0.1,0.1,0.1,0.2,0.2,0.3c0,0,0,0,0,0c0.1,0.1,0.1,0.2,0.2,0.3c0,0,0,0,0,0
					c1,1.6,2.1,2.6,2.9,2.8c1.5,0.4,2.9,0.7,3.9,1c-0.6-1.9-1.3-3.8-1.9-5.7C66.9,126.5,66.7,124.2,66.4,121.9z"/>
			</g>
			<g>
				<g>
					<path class="st2" d="M93.7,119.2c-1.1-1.4-2.3-2.7-3.5-3.8c-2.6,0.7-5.2,1.4-7.8,2.1c0,0,0,0.1,0.1,0.1c0,0,0-0.1-0.1-0.1
						c-0.7,0.2-1.3,0.3-2,0.5c-7.2,1.8-14.1,2.7-21.3,2.5c0.1,0.8,0.3,1.6,0.5,2.3c1,0,2,0.1,3,0.1
						C73.4,122.9,83.4,121.8,93.7,119.2z M78.9,119.3c0.1,0.1,0.1,0.2,0.2,0.3c0,0,0,0,0,0C79.1,119.5,79,119.4,78.9,119.3z"/>
				</g>
				<g>
					<path class="st2" d="M76.4,131.4c-3.6,0.2-6.7,0.2-10.2-0.6c-1.5-0.3-2.8-0.9-4.1-1.4c0.4,0.8,0.9,1.5,1.4,2.1
						c0.6,0.3,1.2,0.7,2,0.8c4.7,0.9,8.9,1,13.9,0.6c6.2-0.4,11.9-1.3,17.7-3.1c-0.3-1.1-0.3-2.2-0.5-3.3
						C90,128.9,83.6,130.9,76.4,131.4z"/>
				</g>
				<g>
					<path class="st2" d="M66.5,94.1c-0.7,1.1-1.3,2.2-1.9,3.3c2.5,0.9,5.2,1.4,8.1,1.6c2,0.1,4,0.2,6,0.2c-0.2-0.9-0.4-1.8-0.5-2.7
						c-1.6-0.2-3.3-0.4-4.9-0.7C71,95.4,68.7,94.8,66.5,94.1z"/>
				</g>
				<g>
					<path class="st2" d="M70.7,87.6c1.3,0.9,2.6,1.7,3.9,2.5c1.2,0.6,2.4,1.3,3.6,1.8c0-0.4,0.1-0.7,0.1-1.1c0.1-0.4,0.1-0.7,0.2-1
						c-2.3-1.1-4.6-2.4-6.7-3.8C71.4,86.5,71,87,70.7,87.6z"/>
				</g>
				<g>
					<path class="st2" d="M60.9,105c-0.4,1.1-0.8,2.1-1.1,3.1c2.6,0.2,5.1,0.3,7.8,0.3c4.9-0.1,9.6-0.8,14.2-1.9
						c-0.2-0.4-0.4-0.7-0.7-1.1c-4.9,0.5-9.8,0.5-14.8,0.2C64.4,105.5,62.6,105.3,60.9,105z"/>
				</g>
			</g>
			<g>
				<path class="st0" d="M74.3,78.5c0,0-22.2-2-45.8,9.4S0.1,105,0,109.3c-0.1,7,4.4,14.7,15.1,18.3c14.8,5,31.7,3,34.3-1.5
					c2.6-4.5,4.8-12,11.1-23.6C66.4,91.7,78.8,80,78.8,80L74.3,78.5z"/>
			</g>
			<g>
				<path class="st0" d="M76.4,121.3c-2.1,1.8-2.5,4.4-2.1,7c2.7,5.2,6.1,10,8.9,15.2c0,0,0,0,0,0c0.6-0.1,1.1-0.4,1.7-0.6
					c1.9-0.8,4-2.4,5.9-4.4c-1.1-2.6-2.3-5.2-3.8-7.7c-1.9-3.3-4.2-6-6.3-9c-0.6-0.3-1.2-0.5-1.9-0.7
					C77.8,120.8,77,120.8,76.4,121.3z"/>
			</g>
			<g>
				<path class="st3" d="M77,115.5c-1-0.9-2.1-1.6-3.3-2.1c-1-0.4-2.1,1-2.4,2.1c-0.3,1.4-0.4,2.9-0.4,4.3c0.4,1.6,1,3.2,1.7,4.8
					c0.5,1.2,1.1,2.4,1.7,3.6c-0.3-2.6,0-5.2,2.1-7c0.6-0.5,1.4-0.5,2.4-0.2c0.6,0.2,1.3,0.5,1.9,0.7c-0.7-1-1.4-2-2-3
					C78,117.7,77.4,116.6,77,115.5z"/>
			</g>
			<g>
				<path class="st3" d="M84.3,112c0.6-0.3,1.4-0.4,2-0.2c-1.3-1.2-2.6-2.5-3.7-4c-0.4-0.2-0.9-0.2-1.3,0.1c-1.1,0.7-1.7,1.6-2,2.6
					c0.5,1.3,1,2.7,1.6,4c0.4,0.8,0.8,1.6,1.2,2.4c0-0.1,0-0.2-0.1-0.3C81.7,114.7,82.6,112.9,84.3,112z"/>
			</g>
			<g>
				<path class="st0" d="M84.3,112c-1.7,0.8-2.6,2.6-2.3,4.5c0,0.1,0,0.2,0.1,0.3c2.8,4.8,7.1,8.5,11,12.4c0.8,0.7,1.4,1.5,2.1,2.3
					c0-0.1,0.1-0.2,0.1-0.3c1.4-3.6,1.6-7.5-0.8-10.9c-2.6-3.8-5.6-6.1-8.3-8.6C85.7,111.7,85,111.7,84.3,112z"/>
			</g>
			<g>
				<path class="st0" d="M81.1,117.2c-1.3,0-1.8,1-2,1.9c-0.2,1,0.4,1.9,0.4,2.2c2.5,3.9,5,5.5,7.4,9.5c1.5,2.5,2.7,5.1,3.8,7.7
					c1.8-1.9,3.5-4.3,4.5-6.8c-0.6-0.8-1.3-1.6-2.1-2.3c-3.9-3.8-7.9-7.4-10.7-12C82,117.2,81.6,117.2,81.1,117.2z"/>
			</g>
			<g>
				<path class="st3" d="M77.7,109.4c-0.9-0.2-1.5,0.7-1.6,1.4c-0.1,0.5-0.1,1-0.2,1.5c0.2,0.8,0.4,1.5,0.7,2.3
					c0.5,1.4,1.2,2.9,2,4.2c0.2,0.3,0.4,0.6,0.6,0.9c0-0.3,0.1-0.7,0.2-1c0.2-0.9,1-1.4,1.8-1.5c0.5-0.1,0.9,0,1.3,0.2
					c-0.6-0.9-1.1-1.9-1.5-2.9c-0.6-1.3-1.1-2.6-1.5-3.9C78.9,110,78.4,109.5,77.7,109.4z"/>
			</g>
			<g>
				<path class="st2" d="M94.5,122.9c-0.2-0.2-0.4-0.4-0.7-0.4c-0.6-0.1-1.1,0.5-1.3,1.1c-0.6,1.7-0.3,3.4,0.3,5.1
					c-1.1,0-2.2,0.7-2.8,1.7c-0.8,1.4-0.7,3.2-0.2,4.7c-1.3-1.4-3.8-1.3-5.2,0c-1.5,1.2-2.1,3.3-2.1,5.2c0,1.9,0.5,3.8,0.8,5.7
					c0.8,4.6,0.9,9.3,0.1,13.8c1.4-0.3,2.3-1.8,2.8-3.1c1.2-3,1.8-6.2,1.7-9.5c0-1.9-0.3-3.9,0-5.8c0.1-0.5,0.2-0.9,0.5-1.2
					c0.8-0.6,1.9,0,2.5,0.8c0.7,0.8,1.3,1.7,1.8,2.7c0.2,0.4,0.5,1,0.9,1.1c0.6,0.2,1.1-0.4,1.4-1c0.9-2.3-0.8-4.7-1.2-7.1
					c-0.1-0.6-0.1-1.4,0.4-1.8c0.7-0.4,1.5,0.2,2.1,0.7c0.9,0.8,1.8,1.5,2.7,2.1c0.4,0.3,0.9,0.5,1.3,0.3c0.2-0.2,0.4-0.4,0.4-0.7
					c0.2-1.3-0.4-2.5-1.3-3.5c-0.8-1-1.8-1.9-2.3-3.1c-0.6-1.4-0.5-2.9-0.8-4.4C96.1,125,95.4,123.8,94.5,122.9z"/>
			</g>
			<g>
				<g>
					<path class="st2" d="M33.2,130.6c-3-1-6-2.1-9-3.5c-6.6-3-12.3-7-17-12.2c-2.6-2.8-4.4-6.2-5.6-9.8c-0.7,0.9-1.1,1.8-1.4,2.6
						c2.2,3.9,4.8,7.5,8,10.7c3.1,3.1,6.4,5.7,10,8.5c1.3,1,2.5,1.9,3.8,2.7C25.9,130.3,29.7,130.6,33.2,130.6z"/>
				</g>
				<g>
					<path class="st2" d="M33.8,114.3c-3.8-2-7.2-3.9-10.8-6.5c-2.8-2.1-4.9-4.5-6.9-7.1c-1.1-1.5-2.1-3-3-4.6
						c-0.8,0.5-1.6,1-2.4,1.4c0.4,1.1,0.7,2.1,1.4,3.1c3.7,5.9,8.9,10,15.2,13.3c7.7,4,15.7,6.7,24.1,8c0.3-0.6,0.6-1.3,0.9-2
						C45.7,119.1,39.6,117.2,33.8,114.3z"/>
				</g>
				<g>
					<path class="st2" d="M30.3,87.3c0-0.1-0.1-0.1-0.1-0.2c-0.6,0.3-1.1,0.5-1.7,0.8c-0.3,0.1-0.6,0.3-0.8,0.4
						c3.3,5.9,7.3,10.9,13.5,14.3c5.2,2.9,10.7,4.5,16.5,5.2c0.5-1,1-2.1,1.6-3.1c-3.6-0.7-7-1.6-10.5-3
						C41.3,98.7,34.3,94.7,30.3,87.3z"/>
				</g>
				<g>
					<path class="st2" d="M49.5,80.7c-0.7,0.2-1.5,0.3-2.2,0.5c2.3,4.2,5,7.9,8.6,11.1c2.4,2.1,5.1,3.7,8,4.8
						c0.7-1.1,1.5-2.1,2.3-3.1C59.1,91.6,52.8,87.5,49.5,80.7z"/>
				</g>
				<g>
					<path class="st2" d="M64,78.6c-0.9,0.1-1.8,0.1-2.8,0.2c2.9,3.5,6.1,6.5,10,9.1c0.5-0.5,0.9-1,1.4-1.5
						C69.3,84.3,66.4,81.8,64,78.6z"/>
				</g>
			</g>
			<g>
				<path class="st2" d="M59.5,88.5c-5.3,3-10.3,5.4-16,7.2C38.1,97.5,32,98.6,26.8,96c-2.1-1-4-2.6-5.7-4.3c-0.6,0.3-1.3,0.7-1.9,1
					c0.5,2,2.2,3.9,3.9,5.1c12.1,9.5,26.9,0.5,37.4-7.2c5.2-3.8,10.3-7.7,15.6-11.5L75,78.8C70,82.1,65,85.5,59.5,88.5z"/>
			</g>
			<g>
				<g>
					<path class="st2" d="M30.3,101.3c-5.7,6.2-10.2,13.4-13.6,21.3c-0.7,1.6-1.4,3.3-2,4.9c0.1,0.1,0.3,0.1,0.5,0.2
						c0.5,0.2,0.9,0.3,1.4,0.4c0.6-1.6,1.3-3.3,2-4.9c3.5-8,7.9-15.4,13.8-21.5C31.6,101.6,30.9,101.5,30.3,101.3z"/>
				</g>
				<g>
					<path class="st2" d="M22.5,97.2c-0.1,0.1-0.2,0.2-0.3,0.3c-6.9,6.6-13.5,13.1-19.7,20.7c0.4,0.7,0.9,1.3,1.4,2
						c5.6-8.3,12-16,20-22c-0.2-0.2-0.5-0.3-0.7-0.5C22.9,97.6,22.7,97.4,22.5,97.2z"/>
				</g>
				<g>
					<path class="st2" d="M40.4,101.2c-0.7,1-1.3,2.1-1.9,3.2c-4.2,7.3-8,14.4-11.5,22.1c-0.5,1.2-1.1,2.4-1.6,3.6
						c0.8,0.1,1.6,0.2,2.4,0.3c4-10.4,9-20.3,14.9-29.8C41.9,100.8,41.1,101,40.4,101.2z"/>
				</g>
				<g>
					<path class="st2" d="M60.5,90.6c-1.1,0.8-2.3,1.7-3.5,2.5c-4.6,6.9-8.8,14-12.6,21.4c-2.6,5-4.2,10.3-5.1,15.8
						c0.7-0.1,1.4-0.2,2.1-0.3c1.9-6.5,4.4-12.8,7.2-19c3.2-7,6.6-13.7,11.7-19.5c0.7-0.8,1.4-1.6,2.2-2.3
						C61.8,89.6,61.2,90.1,60.5,90.6z"/>
				</g>
			</g>
			<g>
				<g>
					<path class="st4" d="M82.4,133.8c4.3-2.4,0.5-8.9-2.3-6.7C77.3,129.3,78.2,136.1,82.4,133.8z"/>
				</g>
				<g>
					<path class="st4" d="M87.9,116.4c-2.5,2.4-0.1,10.4,3,6.8C94,119.6,90.2,114.3,87.9,116.4z"/>
				</g>
				<g>
					<path class="st4" d="M85,123.4c-2.4,0.8-0.4,9,2.9,6.2C91.1,126.9,88.2,122.3,85,123.4z"/>
				</g>
			</g>
		</g>
		<g>
			<g>
				<path class="st0" d="M108.3,69.8c-5.6,0.4-10.8,2-15.9,3.9c-3.7,1.5-7.1,3.2-10.7,4.7l-1-2.7c0,0,21.9-16.2,33.4-16.9
					c11.1-0.6,20.1,4.7,20.7,7.4c0.6,2.7,1.1,5.2,1.1,5.2s4.5,1.2,6.9,5.9c1.8,3.3,1.9,5.1,1.6,6.6c-6.2-3.6-11.9-7.9-18.5-11
					C120.3,70.3,114.4,69.3,108.3,69.8z"/>
			</g>
			<g>
				<path class="st1" d="M81.7,78.4c3.6-1.5,7.1-3.2,10.7-4.7c5.1-2,10.3-3.5,15.9-3.9c4.4-0.4,8.7,0,12.8,1.3
					c-1.4,0-2.9,0.1-4.3,0.3c-1.1,0.2-2.5,1.3-2.2,2.3c0.4,1.2,1.1,2.4,2,3.4c-2.9-1.3-6-1.9-9.2-2.1c-2.7-0.1-5.1,0.1-7.7,0.3
					c-5.8,0.3-10.9,2.5-16.2,4.5c-0.4,0.1-0.8,0.2-1.2,0.3L81.7,78.4z"/>
			</g>
			<g>
				<path class="st1" d="M91.9,77.8c3.3-0.7,6.3-0.9,9.6-0.7c3.5,0.2,6.8,1,10,2.2c-1,0.3-1.9,0.9-2.7,2c-0.3,0.4-0.3,0.9-0.2,1.3
					c-2-1.6-4.6-3-8-4C97.4,77.6,94.4,77.5,91.9,77.8C91.9,77.8,91.9,77.8,91.9,77.8z"/>
			</g>
			<g>
				<path class="st0" d="M82.3,80.1c0.4-0.1,0.8-0.2,1.2-0.3c5.3-2,10.4-4.3,16.2-4.5c2.6-0.1,5.1-0.4,7.7-0.3c2.1,0.1,4.1,0.4,6,1
					c-0.5,0-1,0.1-1.5,0.1c-0.8,0.1-1.6,0.6-1.5,1.6c0.1,0.8,0.6,1.3,1.2,1.7c-3.2-1.2-6.5-2-10.1-2.2c-3.3-0.2-6.3,0-9.6,0.7
					c0,0,0,0,0,0c-5.6,0.7-9.2,3.2-9.2,3.2L82.3,80.1z"/>
			</g>
			<g>
				<path class="st1" d="M123.2,66.7c-1.8-0.1-3.4-0.3-5.2-0.2c-5.8,0.5-11.2,0.8-17,2.1C93.6,70.4,87.1,73,81,76.7l-0.4-1
					c0,0,14.3-10.6,25.8-15c0,0,0,0,0,0c0,0,0,0,0,0c0.1,0,0.2-0.1,0.3-0.1c0,0,0,0,0.1,0c0.1,0,0.2-0.1,0.3-0.1c0,0,0,0,0,0
					c0.3-0.1,0.5-0.2,0.8-0.3c0,0,0,0,0.1,0c0.1,0,0.2-0.1,0.3-0.1c0,0,0.1,0,0.1,0c0.1,0,0.2-0.1,0.3-0.1c0,0,0.1,0,0.1,0
					c0.1,0,0.2-0.1,0.3-0.1c0,0,0.1,0,0.1,0c0.1,0,0.2-0.1,0.4-0.1c0,0,0,0,0,0c1.6-0.5,3.1-0.7,4.4-0.8c3-0.2,5.9,0.1,8.5,0.7
					c0,0,0,0,0,0c3.7,0.8,6.7,2.1,8.9,3.4c0,0,0,0,0,0c0.1,0.1,0.2,0.1,0.3,0.2c0,0,0,0,0,0c0.1,0.1,0.2,0.1,0.3,0.2c0,0,0,0,0,0
					c1.6,1.1,2.5,2.1,2.7,2.9c0.4,1.5,0.7,2.9,0.9,3.9c-1.9-0.7-3.8-1.4-5.7-2.1C127.8,67.3,125.6,67,123.2,66.7z"/>
			</g>
			<g>
				<g>
					<path class="st2" d="M124.2,62.9c0-1,0-2,0-3c-0.7-0.2-1.5-0.4-2.3-0.5c0,7.2-1.1,14.1-3,21.3c-0.2,0.7-0.4,1.3-0.5,2
						c0,0,0.1,0,0.1,0.1c0,0-0.1,0-0.1-0.1c-0.7,2.6-1.5,5.2-2.2,7.7c1.1,1.2,2.3,2.4,3.7,3.6C122.7,83.6,124.1,73.7,124.2,62.9z
						 M120.6,79.3C120.6,79.3,120.6,79.3,120.6,79.3c-0.1-0.1-0.2-0.1-0.3-0.2C120.4,79.2,120.5,79.3,120.6,79.3z"/>
				</g>
				<g>
					<path class="st2" d="M132.5,76.9c0.3-3.6,0.3-6.7-0.4-10.2c-0.3-1.5-0.8-2.8-1.3-4.1c0.8,0.5,1.5,0.9,2.1,1.4
						c0.3,0.6,0.6,1.2,0.8,2c0.8,4.7,0.8,9,0.3,13.9c-0.6,6.2-1.5,11.9-3.5,17.6c-1.1-0.3-2.2-0.3-3.3-0.6
						C129.7,90.4,131.8,84.1,132.5,76.9z"/>
				</g>
				<g>
					<path class="st2" d="M95.4,66.1c1.1-0.6,2.2-1.2,3.3-1.8c0.8,2.6,1.3,5.3,1.5,8.1c0.1,2,0.1,4,0,6c-0.9-0.2-1.8-0.4-2.7-0.5
						c-0.2-1.6-0.4-3.3-0.6-4.9C96.6,70.7,96.1,68.4,95.4,66.1z"/>
				</g>
				<g>
					<path class="st2" d="M88.8,70.1c0.8,1.3,1.6,2.6,2.4,4c0.6,1.2,1.2,2.4,1.8,3.6c-0.4,0-0.7,0.1-1.1,0.1c-0.4,0-0.7,0.1-1,0.1
						c-1.1-2.4-2.3-4.6-3.7-6.8C87.7,70.9,88.3,70.5,88.8,70.1z"/>
				</g>
				<g>
					<path class="st2" d="M106.5,60.7c1.1-0.4,2.1-0.8,3.1-1.1c0.2,2.6,0.2,5.2,0.1,7.8c-0.2,4.9-1,9.6-2.2,14.2
						c-0.3-0.2-0.7-0.5-1.1-0.7c0.6-4.9,0.8-9.8,0.6-14.8C106.8,64.3,106.7,62.5,106.5,60.7z"/>
				</g>
			</g>
			<g>
				<path class="st0" d="M79.7,73.6c0,0-1.5-22.2,10.5-45.6s17.8-28,22.1-28c7,0,14.6,4.8,18,15.5c4.7,14.9,2.2,31.7-2.4,34.2
					c-4.6,2.5-12.1,4.5-23.9,10.6C93,66,81,78.1,81,78.1L79.7,73.6z"/>
			</g>
			<g>
				<path class="st0" d="M122.4,76.7c1.8-2,4.5-2.4,7-2c5.2,2.8,9.9,6.3,14.9,9.2c0,0,0,0,0,0c-0.1,0.6-0.4,1.1-0.6,1.7
					c-0.8,1.9-2.5,3.9-4.5,5.8c-2.6-1.1-5.1-2.5-7.6-4c-3.2-2-5.9-4.3-8.8-6.5c-0.3-0.6-0.5-1.2-0.7-1.9
					C121.8,78.1,121.8,77.2,122.4,76.7z"/>
			</g>
			<g>
				<path class="st3" d="M116.6,77.1c-0.8-1-1.5-2.1-2-3.4c-0.4-1,1.1-2.1,2.2-2.3c1.4-0.3,2.9-0.4,4.3-0.3c1.6,0.5,3.2,1.1,4.8,1.8
					c1.2,0.6,2.4,1.2,3.5,1.8c-2.6-0.4-5.2-0.1-7,2c-0.5,0.6-0.5,1.4-0.3,2.3c0.2,0.6,0.4,1.3,0.7,1.9c-0.9-0.7-1.9-1.4-3-2.1
					C118.8,78.1,117.7,77.6,116.6,77.1z"/>
			</g>
			<g>
				<path class="st3" d="M112.9,84.4c-0.3,0.6-0.4,1.3-0.3,2c-1.2-1.4-2.4-2.6-3.9-3.8c-0.1-0.4-0.1-0.9,0.2-1.3
					c0.8-1.1,1.7-1.7,2.7-2c1.3,0.5,2.6,1.1,3.9,1.7c0.8,0.4,1.6,0.8,2.3,1.3c-0.1,0-0.2,0-0.3-0.1
					C115.6,81.8,113.8,82.7,112.9,84.4z"/>
			</g>
			<g>
				<path class="st0" d="M112.9,84.4c0.9-1.7,2.7-2.5,4.6-2.1c0.1,0,0.2,0,0.3,0.1c4.7,2.9,8.4,7.3,12.2,11.3
					c0.7,0.8,1.5,1.5,2.3,2.1c-0.1,0-0.2,0.1-0.3,0.1c-3.7,1.3-7.6,1.4-10.8-1c-3.7-2.7-6-5.7-8.4-8.5
					C112.5,85.7,112.6,85,112.9,84.4z"/>
			</g>
			<g>
				<path class="st0" d="M118.1,81.3c0-1.3,1-1.8,1.9-2c1-0.1,1.8,0.4,2.2,0.4c3.8,2.6,5.4,5.2,9.3,7.7c2.5,1.5,5,2.9,7.6,4
					c-2,1.8-4.4,3.4-6.9,4.3c-0.8-0.7-1.5-1.4-2.3-2.1c-3.7-3.9-7.2-8.1-11.7-11C118.1,82.2,118.1,81.8,118.1,81.3z"/>
			</g>
			<g>
				<path class="st3" d="M110.5,77.6c-0.2-0.9,0.7-1.5,1.5-1.6c0.5-0.1,1-0.1,1.5-0.1c0.8,0.2,1.5,0.5,2.3,0.8
					c1.4,0.6,2.8,1.3,4.2,2.1c0.3,0.2,0.6,0.4,0.9,0.6c-0.3,0-0.7,0.1-1,0.1c-0.9,0.2-1.4,0.9-1.6,1.8c-0.1,0.5,0,0.9,0.2,1.3
					c-0.9-0.6-1.8-1.1-2.8-1.6c-1.3-0.6-2.5-1.2-3.8-1.6C111.1,78.9,110.6,78.4,110.5,77.6z"/>
			</g>
			<g>
				<path class="st2" d="M123.6,94.8c-0.2-0.2-0.3-0.4-0.4-0.7c-0.1-0.6,0.5-1.1,1.1-1.3c1.7-0.6,3.4-0.3,5.1,0.4
					c0-1.1,0.7-2.2,1.7-2.7c1.4-0.8,3.2-0.6,4.7-0.1c-1.4-1.3-1.2-3.8,0.1-5.2c1.3-1.4,3.3-2,5.2-2c1.9,0,3.8,0.6,5.7,1
					c4.5,0.9,9.3,1.1,13.8,0.4c-0.4,1.4-1.8,2.2-3.2,2.7c-3,1.1-6.3,1.7-9.5,1.5c-1.9-0.1-3.9-0.4-5.8-0.2c-0.5,0.1-1,0.2-1.3,0.5
					c-0.6,0.7,0,1.9,0.7,2.6c0.8,0.7,1.7,1.4,2.6,1.8c0.4,0.2,1,0.5,1.1,1c0.1,0.6-0.5,1.1-1,1.3c-2.3,0.8-4.6-0.9-7-1.4
					c-0.6-0.1-1.4-0.1-1.8,0.4c-0.5,0.7,0.1,1.5,0.7,2.1c0.7,0.9,1.4,1.8,2.1,2.8c0.3,0.4,0.5,0.9,0.3,1.3c-0.2,0.2-0.4,0.3-0.7,0.4
					c-1.3,0.2-2.5-0.5-3.5-1.3c-1-0.8-1.8-1.8-3-2.4c-1.4-0.6-2.9-0.5-4.4-0.9C125.6,96.5,124.4,95.8,123.6,94.8z"/>
			</g>
			<g>
				<g>
					<path class="st2" d="M132.7,33.7c-0.9-3.1-2-6-3.3-9c-2.9-6.7-6.7-12.4-11.8-17.3c-2.8-2.7-6.1-4.6-9.7-5.8
						c0.9-0.7,1.8-1.1,2.6-1.3c3.8,2.3,7.4,4.9,10.5,8.2c3,3.2,5.5,6.5,8.2,10.2c0.9,1.3,1.8,2.6,2.6,3.9
						C132.6,26.4,132.8,30.2,132.7,33.7z"/>
				</g>
				<g>
					<path class="st2" d="M116.4,33.9c-1.9-3.8-3.8-7.3-6.2-10.9c-2-2.8-4.4-5-6.9-7.1c-1.4-1.2-3-2.1-4.5-3.1
						c0.5-0.8,1-1.6,1.5-2.3c1.1,0.4,2.1,0.8,3.1,1.4c5.8,3.9,9.8,9.1,12.9,15.5c3.8,7.8,6.3,15.9,7.4,24.3
						c-0.7,0.3-1.3,0.5-2.1,0.8C120.9,45.9,119.2,39.7,116.4,33.9z"/>
				</g>
				<g>
					<path class="st2" d="M89.5,29.8c-0.1,0-0.1-0.1-0.2-0.1c0.3-0.6,0.5-1.1,0.8-1.7c0.1-0.3,0.3-0.6,0.4-0.8
						c5.8,3.5,10.7,7.6,13.9,13.8c2.7,5.3,4.2,10.8,4.8,16.6c-1,0.5-2.1,1-3.2,1.5c-0.6-3.6-1.5-7.1-2.7-10.6
						C100.6,41.1,96.8,34,89.5,29.8z"/>
				</g>
				<g>
					<path class="st2" d="M82.4,48.8c0.2-0.7,0.4-1.5,0.6-2.2c4.1,2.4,7.8,5.2,10.9,8.9c2,2.5,3.5,5.2,4.6,8.1
						c-1.1,0.7-2.1,1.5-3.2,2.2C93.1,58.7,89.1,52.3,82.4,48.8z"/>
				</g>
				<g>
					<path class="st2" d="M80,63.2c0.1-0.9,0.2-1.8,0.3-2.8c3.4,2.9,6.4,6.3,8.9,10.2c-0.5,0.4-1,0.9-1.5,1.3
						C85.6,68.7,83.1,65.7,80,63.2z"/>
				</g>
			</g>
			<g>
				<path class="st2" d="M90,59c3.1-5.2,5.6-10.2,7.6-15.8c1.9-5.4,3.1-11.4,0.6-16.7c-1-2.2-2.5-4-4.2-5.8c0.3-0.6,0.7-1.2,1-1.8
					c2,0.5,3.8,2.3,5,4c9.2,12.3-0.1,26.9-8.1,37.2c-4,5.1-8,10.2-11.8,15.3l-0.3-1.1C83.3,69.3,86.8,64.4,90,59z"/>
			</g>
			<g>
				<g>
					<path class="st2" d="M103.5,30.1c6.3-5.6,13.6-9.9,21.6-13.1c1.6-0.7,3.3-1.3,5-1.9c0,0.2,0.1,0.3,0.1,0.5
						c0.1,0.5,0.3,0.9,0.4,1.4c-1.7,0.6-3.3,1.2-4.9,1.8c-8.1,3.3-15.6,7.5-21.9,13.3C103.8,31.4,103.7,30.7,103.5,30.1z"/>
				</g>
				<g>
					<path class="st2" d="M99.6,22.2c0.1-0.1,0.2-0.2,0.3-0.3c6.8-6.8,13.5-13.2,21.2-19.2c0.7,0.4,1.3,0.9,2,1.4
						c-8.5,5.4-16.3,11.6-22.4,19.5c-0.2-0.2-0.3-0.5-0.5-0.7C100,22.6,99.8,22.4,99.6,22.2z"/>
				</g>
				<g>
					<path class="st2" d="M103.2,40.2c1-0.6,2.1-1.2,3.2-1.8c7.4-4,14.6-7.6,22.3-11c1.2-0.5,2.4-1,3.7-1.5c0.1,0.8,0.2,1.6,0.2,2.4
						c-10.5,3.8-20.6,8.5-30.1,14.2C102.7,41.7,103,40.9,103.2,40.2z"/>
				</g>
				<g>
					<path class="st2" d="M92,60.1c0.9-1.1,1.7-2.3,2.6-3.4c7-4.5,14.2-8.5,21.7-12.1c5.1-2.4,10.4-3.9,15.9-4.8
						c-0.1,0.7-0.2,1.4-0.4,2.1c-6.5,1.8-12.9,4.1-19.2,6.8c-7.1,3-13.8,6.3-19.8,11.3c-0.8,0.7-1.6,1.4-2.4,2.1
						C91,61.3,91.5,60.7,92,60.1z"/>
				</g>
			</g>
			<g>
				<g>
					<path class="st4" d="M134.8,82.9c-2.5,4.2-8.9,0.3-6.7-2.5C130.3,77.8,137.2,78.8,134.8,82.9z"/>
				</g>
				<g>
					<path class="st4" d="M117.2,88.1c2.4-2.5,10.4,0.2,6.7,3.1C120.3,94.2,115,90.3,117.2,88.1z"/>
				</g>
				<g>
					<path class="st4" d="M124.3,85.3c0.9-2.4,9-0.2,6.2,3C127.6,91.5,123.1,88.5,124.3,85.3z"/>
				</g>
			</g>
		</g>
		<g>
			<path class="st0" d="M91.3,93.4c-5.7-5.2-8.5-6.5-8.5-6.5l5.4-4.1c0,0,1.2,2.1,6.6,6.6c4.5,3.7,10.3,6,10.5,8.2
				c0.3,3.3-4.2,5.8-5.3,5.3C97.2,101.8,97.8,99.3,91.3,93.4z"/>
		</g>
		<g>
			<path class="st5" d="M88.6,82.9c0.8,2.1-2.2,6.2-4.8,5.2c-2.6-1-6.9-6.6-9.7-8.8c-2.8-2.2-4.2-1.5-4.8-3.9
				c-0.5-2.4,4.2-7.6,7.5-6.8c1.9,0.5,1.2,1.8,3.8,5.1C82.3,75.9,87.6,80.3,88.6,82.9z"/>
		</g>
		<g>
			<g>
				<path class="st6" d="M68.1,66.1C68.1,66,68.1,66,68.1,66.1c0-0.1,0-0.2-0.1-0.3c-0.1-0.5-0.2-1.1-0.4-1.6
					c-0.4-1.6-1-3.2-1.9-4.6c-0.5-0.8-1-1.6-1.7-2.4c-0.7-0.8-1.6-1.4-2.5-2.1c-1.7-1.2-3.4-2.3-5.1-3.4c-0.2-0.1-0.4-0.3-0.6-0.4
					c-0.6,0.5-1.4,0.7-2.2,0.1c-2-1.4,0.1-4,2.3-2.9c0.6,0.3,0.7,1,0.6,1.6c1.8,1.1,3.5,2.2,5.2,3.4c1,0.7,2,1.3,2.8,2.2
					c0.7,0.7,1.4,1.6,2,2.4c1,1.6,1.7,3.3,2.2,5c0.3,1,0.5,1.9,0.6,2.9c0,0.3-0.3,0.6-0.6,0.7c-0.4,0-0.6-0.3-0.7-0.6
					C68.1,66.2,68.1,66.1,68.1,66.1z"/>
			</g>
			<g>
				<path class="st6" d="M51,58.2c-0.6,0.2-1.1,0.1-1.5-0.5c-1.3-2,0.9-4,2.4-2.3c0.6,0.7,0.5,1.5,0.1,2c1,1.3,2,2.5,3.2,3.7
					c1.5,1.5,3.1,2.9,5,4c1.4,0.9,3,1.6,4.6,2.2c0.4,0.1,0.5,0.2,0.8,0.3c0.2,0.1,0.5,0.2,0.7,0.2c0.2,0.1,0.4,0.1,0.6,0.2
					c0.8,0.2,0.5,1.4-0.3,1.2c-0.7-0.2-1.4-0.4-2-0.7c-1.5-0.6-3-1.3-4.4-2.1c-3.5-2-6.5-4.9-9-8C51.2,58.4,51.1,58.3,51,58.2z"/>
			</g>
		</g>
		<g>
			<path class="st1" d="M65.4,64.7c2.6-3.2,10.1-2.3,10.3,2c0.2,4.3-7,7.9-7.9,7.6C65.2,73.6,62.6,68.1,65.4,64.7z"/>
		</g>
	</g>
	<g>
		<g>
			<path class="st6" d="M64.9,68.5c-0.5,0-2.1,0.2-1.6,1.1c0.3,0.6,1.1,0.9,1.6,1.2c0.2,0.1,0.4-0.2,0.2-0.3
				c-0.4-0.2-0.8-0.4-1.2-0.7c-0.2-0.2-0.5-0.5-0.1-0.7c0.3-0.1,0.7-0.1,1.1-0.2C65.1,68.8,65.1,68.5,64.9,68.5L64.9,68.5z"/>
		</g>
	</g>
	<g>
		<g>
			<path class="st6" d="M69.3,64.2c0-0.4-0.2-2.1,0.6-1.6c0.4,0.3,0.7,0.9,0.9,1.4c0.1,0.2,0.4,0.1,0.3-0.2
				c-0.3-0.6-0.7-1.4-1.3-1.7c-1-0.4-0.9,1.5-0.9,2C68.9,64.4,69.3,64.4,69.3,64.2L69.3,64.2z"/>
		</g>
	</g>
</g>
</svg>
