<?xml version="1.0" encoding="utf-8"?>
<!-- Generator: Adobe Illustrator 24.0.3, SVG Export Plug-In . SVG Version: 6.00 Build 0)  -->
<svg version="1.1" id="レイヤー_1" xmlns="http://www.w3.org/2000/svg" xmlns:xlink="http://www.w3.org/1999/xlink" x="0px"
	 y="0px" viewBox="0 0 452.3 47.7" style="enable-background:new 0 0 452.3 47.7;" xml:space="preserve">
<style type="text/css">
	.st0{fill:#503819;}
</style>
<g>
	<path class="st0" d="M51.1,1c4.3,0,7.2,0.1,8.6,0.2l0.7-0.1c0.4,0,0.6,0.2,0.6,0.6c0,0.2-0.2,0.5-0.6,0.7c-1.1,0.8-2.4,1.8-4,3.2
		C56.3,5.9,56.1,6,56,6.1c0.2,0.4,0.4,0.7,0.5,1.2c0.1,0.2,0.2,0.4,0.2,0.6c1.1,0,2.4,0.1,3.8,0.1c1.5,0.1,2.7,0.1,3.7,0.1
		c0.5,0,1.1-0.1,1.8-0.2c0.1,0,0.2,0.2,0.2,0.5c0,0.5-0.2,1-0.6,1.6c-0.3,0.4-0.5,0.6-0.7,0.6c-0.4,0-1-0.1-1.6-0.4
		c-1-0.4-2.2-0.7-3.4-0.8c-0.9-0.1-1.9-0.2-2.9-0.2c0.1,0.7,0.1,1.5,0.1,2.3c0,1.6-0.2,2.7-0.5,3.5c-0.4,0.8-0.9,1.4-1.6,1.8
		c-0.6,0.3-1.2,0.5-1.8,0.5c-0.4,0-0.8-0.1-1-0.4c-0.3-0.3-0.4-0.6-0.4-1c0-0.2,0.2-0.4,0.5-0.4c1.2,0,2-0.2,2.4-0.6
		c0.4-0.3,0.7-0.8,0.8-1.3c0.2-0.6,0.3-1.3,0.3-2.2c0-0.9,0-1.7-0.1-2.4c0,0-0.1,0-0.1,0c-1.7,0-3.4,0.1-5,0.3
		c-1,0.1-2.5,0.5-4.4,1.3c-0.6,0-0.8-0.2-0.8-0.7c0-0.3,0.1-0.5,0.4-0.7c0.3-0.3,0.7-0.5,1.2-0.5c3.8-0.6,6.7-0.9,8.8-1
		c0-0.1-0.1-0.2-0.1-0.3C55,6.8,54.6,6,54,5.4c-0.1-0.1-0.2-0.3-0.2-0.4c0-0.4,0.2-0.6,0.5-0.6c0.1,0,0.3,0.2,0.6,0.5
		C55,4.9,55.2,5,55.3,5.2c0,0,0.1-0.1,0.2-0.1l3.1-2.6c0-0.2-0.1-0.3-0.4-0.3c-2.7,0-5.2,0.1-7.6,0.3c-0.5,0-0.8-0.2-0.8-0.5
		c0-0.2,0.1-0.5,0.4-0.6C50.4,1.1,50.7,1,51.1,1z"/>
	<path class="st0" d="M76.4,0.5c0.4,0,0.6,0.2,0.6,0.5c0,0.2-0.1,0.4-0.2,0.7c-0.7,0.8-1.5,1.6-2.3,2.4c0.1,0.2,0.1,0.4,0.1,0.6
		c-0.1,1.3-0.1,2.6-0.1,3.6l0.1,7.5c0,1-0.3,1.5-0.8,1.5c-0.4,0-0.6-0.5-0.6-1.5c0.1-3.2,0.1-5.7,0.1-7.5c0-1,0-2-0.1-3.2
		c-0.2,0.1-0.4,0.2-0.5,0.4c-0.6,0.4-1.1,0.7-1.6,0.7c-0.3,0-0.7-0.1-1.1-0.4c-0.4-0.3-0.5-0.6-0.5-0.9c0-0.2,0.2-0.4,0.5-0.4
		c1.2-0.3,2.2-0.7,3.2-1.3c1-0.6,2-1.4,2.9-2.4C76.2,0.5,76.3,0.5,76.4,0.5z M78.3,5.2h2L80.2,2c0-0.5,0.2-0.7,0.7-0.7
		c0.6,0,0.8,0.2,0.8,0.7l0,3.2h3.4L85,2c0-0.5,0.2-0.7,0.7-0.7c0.6,0,0.9,0.2,0.9,0.7l-0.1,3.2h2.6c0.2,0,0.4,0.1,0.4,0.3
		c0,0.3-0.1,0.6-0.3,0.8c-0.2,0.2-0.5,0.3-0.8,0.3c-0.3,0-0.9-0.1-1.9-0.2l-0.1,3.8c0.3,0,0.5,0,0.7,0.1c1.1,0.1,2.1,0.2,3,0.2
		c0.4,0,0.8,0,1.1-0.1c0.1,0,0.1,0.1,0.1,0.3c0,0.4-0.1,0.9-0.4,1.3c-0.3,0.5-0.5,0.7-0.8,0.7c-0.3,0-0.6-0.1-0.9-0.3
		c-1.1-0.5-2.2-0.9-3.2-1.1c-0.8-0.1-1.7-0.2-2.8-0.2c-1.3,0-2.5,0.1-3.5,0.3c-1,0.2-2,0.6-3,1c-0.3,0.1-0.5,0.2-0.7,0.2
		c-0.5,0-0.7-0.3-0.7-0.8c0-0.3,0.1-0.5,0.4-0.7c0.2-0.2,0.5-0.3,0.8-0.4c1.4-0.2,2.7-0.4,3.7-0.5l-0.1-3.8c-0.6,0-1.1,0.1-1.5,0.1
		c-0.5,0.1-0.8,0.2-1,0.2c-0.4,0-0.7-0.3-0.7-0.7c0-0.2,0.1-0.4,0.4-0.6C77.7,5.2,77.9,5.2,78.3,5.2z M77.8,14.6
		c0.4,0.1,0.7,0.1,0.8,0.1c0.7,0,1.6-0.4,2.6-1.1c0.2,0,0.3,0.1,0.3,0.3c0,0.3-0.4,0.8-1.1,1.6c-0.7,0.8-1.3,1.2-1.8,1.2
		c-0.3,0-0.5-0.2-0.7-0.5c-0.2-0.4-0.4-0.8-0.4-1.2C77.5,14.8,77.6,14.6,77.8,14.6z M81.7,10c0.7-0.1,1.3-0.1,1.8-0.1
		c0.6,0,1.1,0,1.8,0.1l-0.1-3.7c-0.7,0-1.4,0-2.1,0c-0.5,0-0.9,0-1.3,0L81.7,10z M85.5,13.6c0,0,0.1,0,0.1,0c0.8,0.5,1.5,0.9,2,1
		c0.3,0.1,0.8,0.2,1.3,0.2c0.2,0,0.3,0.1,0.3,0.3c0,0.3-0.2,0.6-0.5,0.9c-0.7,0.4-1.2,0.6-1.5,0.6c-0.1,0-0.3-0.1-0.4-0.2
		c-0.2-0.2-0.7-1-1.5-2.3c-0.1-0.1-0.1-0.2-0.1-0.3C85.2,13.7,85.3,13.6,85.5,13.6z"/>
	<path class="st0" d="M108.3,7.8c0,1.6-0.3,3.2-0.8,4.8c-0.8,2-1.8,3-3.2,3c-0.3,0-0.6-0.2-1-0.7c-0.4-0.5-0.5-0.9-0.5-1.2
		c0-0.2,0.3-0.3,1-0.3c0.8-0.1,1.3-0.3,1.5-0.5c0.6-0.5,1-1.4,1.4-2.8c0.3-1.1,0.4-2.2,0.4-3.2c0-1-0.5-1.4-1.6-1.4
		c-0.4,0-1.1,0-2,0.1c-0.5,1.8-1,3.3-1.6,4.4c-0.6,1.3-1.5,2.6-2.6,3.9c-1,1.1-1.7,1.7-2.1,1.7c-0.3,0-0.7-0.2-1.1-0.6
		c-0.4-0.4-0.6-0.6-0.6-0.9c0-0.1,0.1-0.3,0.3-0.4c0.2-0.1,0.6-0.3,1-0.6c1.1-0.7,2.1-1.5,2.9-2.5c1-1.2,1.8-2.9,2.6-4.9
		c-0.8,0.1-2.1,0.3-3.7,0.6c-0.4,0-0.6-0.2-0.6-0.6c0-0.7,0.7-1,2.2-1.1c0.4,0,1.2-0.1,2.4-0.1c0.2-0.8,0.4-1.6,0.4-2.6
		c0-0.5,0.2-0.8,0.6-0.8c0.5,0,0.7,0.2,0.7,0.7c0,0.2-0.2,1.1-0.5,2.6c0.8,0,1.3,0,1.6,0c1.1,0,1.9,0.3,2.4,0.9
		C108.1,5.8,108.3,6.6,108.3,7.8z M115.8,7.1c0,0.2-0.2,0.6-0.7,1.2c-0.5,0.5-0.8,0.8-1.1,0.8c-0.5,0-1.2-0.6-2.2-1.7
		c-1-1.1-1.5-1.9-1.5-2.4c0-0.2,0.1-0.4,0.3-0.4c0.1,0,0.4,0.2,0.9,0.6c0.5,0.4,1,0.8,1.8,1.2c0.6,0.3,1.2,0.5,1.8,0.5
		C115.6,6.8,115.8,6.9,115.8,7.1z"/>
	<path class="st0" d="M135.7,11.3c0,1.6-0.9,3-2.7,3.9c-1.5,0.8-3.2,1.2-5,1.2c-0.9,0-1.6-0.2-2-0.7c-0.5-0.5-0.7-0.9-0.7-1.2
		c0-0.2,0.1-0.3,0.4-0.3c0.3,0,0.7,0,1.2,0.1c0.6,0,1,0,1.3,0c1.5,0,2.8-0.2,3.8-0.6c1.5-0.6,2.2-1.6,2.2-2.9c0-0.5-0.3-1-0.8-1.5
		c-0.5-0.4-1.3-0.7-2.2-0.7c-1.2,0-2.4,0.2-3.7,0.7c-1.3,0.5-2.3,1.2-3,2.1c-0.4,0.5-0.7,0.7-0.9,0.7c-0.4,0-0.6-0.2-0.7-0.6
		c0-0.1,0-0.4,0-1c0-2,0.2-3.8,0.6-5.6c0.2-0.8,0.5-1.2,1-1.2c0.5,0,0.7,0.2,0.7,0.6c0,0-0.2,0.6-0.5,1.8c-0.3,1.1-0.5,2.2-0.5,3.4
		c2.1-1.3,4.4-2,6.8-2c1.2,0,2.2,0.3,3,0.8C135.1,9.3,135.7,10.2,135.7,11.3z M132.5,2.3c-0.1,0.3-0.3,0.7-0.7,1.2
		c-0.4,0.5-0.7,0.7-0.9,0.7c-0.3,0-1-0.5-2.2-1.4C127.6,1.9,127,1.3,127,1c0-0.3,0.1-0.4,0.3-0.4c0.1,0,0.3,0.1,0.7,0.3
		c0.4,0.3,1,0.5,1.8,0.7c0.3,0.1,1,0.2,2.2,0.3C132.3,2,132.4,2.1,132.5,2.3z"/>
	<path class="st0" d="M143.9,3.7c0.2,0,0.5,0,0.7,0.1c0.2,0,0.6,0.1,1.1,0.1h5.2c0-0.8,0-1.7-0.1-2.6c0-0.7,0.3-1,0.9-1
		c0.5,0,0.7,0.3,0.7,1c0,0.9-0.1,1.8-0.1,2.6h0.5c1.6,0,3.5,0,5.7,0.1c0.2,0,0.6-0.1,0.9-0.2c0.5,0,0.7,0.3,0.7,0.8
		c0,0,0,0.1-0.1,0.2c-0.1,0.2-0.1,0.6-0.2,1.1c-0.1,0.7-0.1,1.4-0.1,2.2c0,0.5,0,1.1,0.1,1.9c0,0.6-0.2,0.8-0.6,0.8
		c-2.5-0.1-4.8-0.2-6.8-0.2l0.1,4.9c0,1.1-0.3,1.7-0.9,1.7c-0.5,0-0.8-0.6-0.8-1.7c0-1.8,0.1-3.4,0.1-4.9c-2.4,0-3.9,0-4.6,0.1
		c-0.7,0-1.4,0.1-2.4,0.2c-0.4,0-0.6-0.2-0.6-0.7c0.1-1.1,0.2-2.1,0.2-2.9c0-0.8-0.1-1.8-0.2-2.9C143.1,3.9,143.4,3.7,143.9,3.7z
		 M150.8,9.5c0-1.4,0-2.6,0-3.6c0-0.3,0-0.5,0-0.8c-1.7,0-3.5,0-5.5,0c-0.3,0-0.5,0.2-0.5,0.5c0,1.2-0.1,2.4-0.2,3.5
		c0,0.4,0.2,0.6,0.6,0.6C146.8,9.5,148.7,9.5,150.8,9.5z M152.2,5.1c0,0.3,0,0.5,0,0.8l0.1,3.6c1.8,0,3.7,0,5.7,0.1
		c0.3,0,0.4-0.1,0.4-0.4c0-1.7,0-3,0.1-3.7c0-0.2-0.1-0.3-0.4-0.3C156.5,5.1,154.6,5.1,152.2,5.1z"/>
	<path class="st0" d="M176.4,0c0.6,0,0.8,0.3,0.8,0.8c-0.1,0.4-0.2,0.9-0.2,1.2c1.2,0,2.7,0.1,4.2,0.3c1.5,0.1,2.8,0.2,3.9,0.2
		c0.5,0,1.1-0.1,1.8-0.2c0.1,0,0.2,0.2,0.2,0.5c0,0.5-0.2,1-0.6,1.6C186.2,4.8,186,5,185.8,5c-0.4,0-1-0.1-1.7-0.4
		c-1.1-0.5-2.2-0.8-3.5-1c-1.4-0.2-2.9-0.3-4.6-0.3c-1.7,0-3.4,0.1-5,0.2c-1,0.1-2.5,0.4-4.4,1.1c-0.6,0-0.8-0.2-0.8-0.7
		c0-0.3,0.1-0.5,0.4-0.7c0.3-0.3,0.7-0.5,1.2-0.5c3.7-0.4,6.5-0.6,8.6-0.7c0-0.4-0.1-0.8-0.2-1.1C175.6,0.3,175.8,0,176.4,0z
		 M169.9,9.1c0.3,0,0.5,0.1,0.6,0.2l11.4,0.1c0.2,0,0.6-0.1,1-0.2c0.6,0,0.8,0.2,0.8,0.6c-0.2,0.9-0.4,2-0.4,3.2
		c0,0.8,0.1,1.9,0.2,3.4c0,0.6-0.2,0.9-0.7,0.9c-0.2,0-0.4-0.1-0.5-0.3c-0.1-0.3-0.1-0.7-0.1-1.2c0-2.3,0.1-4,0.2-5.3
		c0-0.1-0.2-0.2-0.6-0.2c-4.1,0-7.8,0-11.1,0.1c0,0.8,0,1.5,0,1.9c0,1.8-0.2,3-0.7,3.7c-0.5,0.7-1,1.1-1.5,1.1
		c-0.4,0-0.8-0.2-1.2-0.6c-0.2-0.3-0.3-0.5-0.3-0.7c0-0.1,0.1-0.2,0.3-0.2c0.7-0.1,1.3-0.4,1.7-1c0.3-0.4,0.5-1.3,0.5-2.6
		c0-0.7-0.1-1.4-0.2-2.2C169.3,9.3,169.5,9.1,169.9,9.1z M173.4,4.2c0.2,0,0.4,0,0.6,0c0.2,0,0.5,0,0.9,0h2.2c0.5,0,1.1,0,1.8,0.1
		c0.2,0,0.5,0,0.7-0.1c0.4,0,0.7,0.2,0.7,0.6c0,0,0,0,0,0.1c-0.1,0.1-0.1,0.3-0.2,0.6c0,0.4-0.1,0.8-0.1,1.2c0,0.2,0,0.5,0.1,0.9
		c0,0.4-0.2,0.6-0.6,0.6c-1.1-0.1-2.1-0.2-3-0.2c-1.2,0-1.9,0-2.2,0.1c-0.3,0-0.6,0.1-1,0.2c-0.4,0-0.6-0.2-0.6-0.7
		c0.1-0.6,0.2-1.1,0.2-1.6c0-0.4-0.1-0.8-0.2-1.4C172.7,4.4,173,4.2,173.4,4.2z M174.1,11.5c0.2,0,0.4,0,0.6,0c0.2,0,0.5,0,0.9,0
		h1.5c0.3,0,0.7,0,1.2,0.1c0.2,0,0.4,0,0.7-0.1c0.4,0,0.6,0.2,0.6,0.6c0,0,0,0.1,0,0.1c-0.1,0.1-0.1,0.3-0.1,0.6
		c0,0.4-0.1,0.8-0.1,1.3c0,0.2,0,0.6,0.1,1c0,0.4-0.2,0.6-0.6,0.6c-0.9-0.1-1.8-0.2-2.5-0.2c-0.9,0-1.4,0-1.6,0.1
		c-0.2,0-0.4,0.1-0.7,0.2c-0.4,0-0.6-0.2-0.6-0.6c0.1-0.7,0.2-1.3,0.2-1.8c0-0.4-0.1-0.9-0.2-1.5C173.4,11.8,173.6,11.5,174.1,11.5z
		 M176.5,7.3c0.6,0,1.2,0,2,0.1c0.2,0,0.4-0.1,0.4-0.4V5.6c0-0.1-0.1-0.2-0.2-0.2c-0.9-0.1-2.3-0.1-4-0.1c-0.2,0-0.4,0.1-0.4,0.4
		c0,0.4-0.1,0.8-0.2,1.2c0,0.3,0.2,0.5,0.5,0.5C175.1,7.4,175.8,7.3,176.5,7.3z M176.3,14.9c0.4,0,0.9,0,1.5,0.1
		c0.3,0,0.4-0.1,0.4-0.4v-1.7c0-0.1-0.1-0.2-0.2-0.2c-0.6-0.1-1.5-0.1-2.7-0.1c-0.3,0-0.4,0.1-0.4,0.4c0,0.5-0.1,1-0.2,1.5
		c0,0.3,0.2,0.5,0.5,0.5C175.5,14.9,175.9,14.9,176.3,14.9z"/>
	<path class="st0" d="M196.6,1.8c0.4,0,0.6,0.2,0.6,0.5c0,0.2-0.1,0.4-0.2,0.6c-0.3,0.6-0.6,1.2-1,1.7h3.9l0-3
		c0-0.6,0.3-0.8,0.8-0.8c0.6,0,0.9,0.3,0.9,0.8l0,3h5.6c0.2,0,0.4,0.1,0.4,0.3c0,0.3-0.1,0.6-0.3,0.8C207,5.9,206.7,6,206.3,6
		c-0.3,0-0.9-0.1-2-0.2c-0.9,0-1.8-0.1-2.8-0.1l0,3.5h4.8c0.2,0,0.4,0.1,0.4,0.3c0,0.3-0.1,0.6-0.3,0.8c-0.2,0.2-0.5,0.3-0.8,0.3
		c-0.3,0-0.9-0.1-1.8-0.2c-0.7,0-1.4-0.1-2.2-0.1l-0.1,3.8c1.3,0,2.8,0.2,4.3,0.4c1.5,0.2,2.9,0.3,4.2,0.3c0.4,0,0.8,0,1.1-0.1
		c0.1,0,0.1,0.1,0.1,0.3c0,0.4-0.1,0.9-0.3,1.3c-0.3,0.5-0.5,0.7-0.8,0.7c-0.4,0-0.8-0.1-1.2-0.3c-1.6-0.6-3.1-1-4.4-1.2
		c-1.1-0.1-2.3-0.2-3.9-0.2c-1.8,0-3.3,0.1-4.6,0.3c-1.4,0.3-2.8,0.7-4.1,1.2c-0.4,0.2-0.7,0.2-1,0.2c-0.5,0-0.7-0.3-0.7-0.8
		c0-0.3,0.1-0.5,0.4-0.7c0.2-0.2,0.5-0.3,0.8-0.4c4-0.6,6.9-1,8.7-1l-0.1-3.8c-1.6,0-2.8,0.1-3.6,0.3c-0.5,0.1-0.8,0.2-0.9,0.2
		c-0.5,0-0.8-0.3-0.8-0.8c0-0.2,0.2-0.4,0.4-0.6c0.2-0.1,0.5-0.2,0.9-0.2h4.1l0-3.5c-1.6,0-2.8,0.1-3.6,0.2c-0.5,0.1-0.9,0.2-1,0.2
		c-0.2,0-0.3,0-0.4-0.1c-0.3,0.4-0.6,0.7-0.8,1.1c-0.4,0.5-0.8,0.7-1.1,0.7c-0.3,0-0.7-0.1-1.1-0.4c-0.4-0.3-0.5-0.6-0.5-0.9
		c0-0.2,0.2-0.4,0.5-0.4c0.8-0.3,1.6-0.8,2.3-1.4c0.8-0.7,1.4-1.6,2.1-2.8C196.4,1.8,196.5,1.8,196.6,1.8z"/>
	<path class="st0" d="M222.3,16.2c0,0.3-0.3,0.6-0.9,1c-0.6,0.4-1,0.6-1.3,0.6s-0.6-0.3-1-0.8c-0.8-1.2-1.7-2.3-2.4-3.1
		c-0.7-0.8-1-1.3-1-1.5c0-0.3,0.2-0.4,0.5-0.4c0.2,0,1.5,0.9,3.8,2.8c0.5,0.4,1.2,0.8,2.1,1.2C222.2,15.9,222.3,16,222.3,16.2z"/>
	<path class="st0" d="M235.7,0.2c0.6,0,0.8,0.3,0.8,0.8c-0.1,0.8-0.2,1.4-0.2,2c0.7,0,1.3,0.1,1.9,0.1c0.2-0.1,0.4-0.1,0.6-0.1
		c0.4,0,0.7,0.3,0.7,0.8c0,0.1-0.1,0.2-0.2,0.3c-0.1,0.2-0.4,0.7-0.9,1.4c-0.5,0.8-1,1.4-1.6,2.1c0.2,0.1,0.6,0.4,1.3,0.9
		c0.9,0.6,1.3,1.1,1.3,1.3c0,0.4-0.2,0.6-0.7,0.6c-0.1,0-0.2-0.1-0.4-0.2c-0.8-0.6-1.4-1-1.8-1.2c-0.1,0.8-0.1,1.5-0.1,2.2l0.1,4.5
		c0,1-0.3,1.5-0.8,1.5c-0.4,0-0.6-0.5-0.6-1.5c0.1-1.9,0.1-3.4,0.1-4.5c0-0.6,0-1.2-0.1-1.9c-0.6,0.6-1.2,1-1.7,1.3
		c-0.5,0.3-0.9,0.4-1.2,0.4c-0.3,0-0.6-0.1-0.9-0.4c-0.4-0.3-0.6-0.6-0.6-0.9c0-0.2,0.2-0.3,0.5-0.4c0.4,0,0.9-0.1,1.6-0.3
		c1-0.4,1.8-0.9,2.5-1.5c0.8-0.7,1.6-1.6,2.4-2.8c0.1-0.1,0.2-0.2,0.2-0.3c0-0.2-0.1-0.3-0.2-0.3c-0.3-0.1-0.5-0.1-0.8-0.1
		c-2,0-3.3,0.1-3.9,0.2c-0.4,0.1-0.6,0.1-0.8,0.1c-0.4,0-0.6-0.2-0.6-0.6c0-0.3,0.2-0.6,0.6-0.7c0.3-0.1,1-0.2,2.3-0.2
		c0.3,0,0.5,0,0.8,0c0-0.7-0.1-1.3-0.3-1.9C234.9,0.5,235.1,0.2,235.7,0.2z M241.3,7h3.1l-0.1-4.7c0-0.5,0.2-0.7,0.7-0.7
		c0.6,0,0.8,0.2,0.8,0.7L245.8,7h3.8c0.2,0,0.4,0.1,0.4,0.3c0,0.3-0.1,0.6-0.3,0.8c-0.2,0.2-0.5,0.3-0.8,0.3c-0.2,0-0.7-0.1-1.4-0.2
		c-0.5,0-1.1,0-1.7,0l-0.1,4.9c0.8,0,1.7,0.1,2.7,0.2c0.9,0.1,1.8,0.1,2.7,0.1c0.4,0,0.7,0,1.1-0.1c0.1,0,0.1,0.1,0.1,0.3
		c0,0.4-0.1,0.9-0.4,1.3c-0.3,0.5-0.5,0.7-0.8,0.7s-0.5-0.1-0.8-0.3c-1-0.5-2-0.9-2.9-1.1c-0.7-0.1-1.6-0.2-2.5-0.2
		c-1.2,0-2.2,0.1-3,0.3c-0.9,0.2-1.8,0.6-2.7,1c-0.3,0.1-0.5,0.2-0.6,0.2c-0.4,0-0.6-0.3-0.6-0.7c0-0.3,0.1-0.5,0.4-0.7
		c0.2-0.2,0.5-0.3,0.8-0.4c2.4-0.4,4.1-0.7,5.3-0.7l-0.1-4.9c-1.3,0-2.2,0.1-2.8,0.2c-0.4,0.1-0.7,0.2-0.8,0.2
		c-0.4,0-0.7-0.3-0.7-0.7c0-0.2,0.1-0.4,0.4-0.6C240.7,7.1,241,7,241.3,7z"/>
	<path class="st0" d="M266.1,0.4c0.3,0,0.5,0.2,0.5,0.5c0.3,0,0.7,0.2,1.2,0.6c3.5,2.2,5.7,3.5,6.6,3.8c0.6,0.1,1.2,0.3,2,0.3
		c0.3,0,0.5,0.1,0.5,0.4c0,0.4-0.3,0.7-0.8,1.1c-0.5,0.4-1.1,0.6-1.7,0.6c-0.4,0-0.8-0.2-1.1-0.5c-1.4-1.3-3-2.6-4.8-3.9
		c-0.8-0.5-1.5-0.9-2.1-1.2c-0.1,0-0.2-0.1-0.3-0.2c-1.2,1.3-2.6,2.4-4,3.3c-1.2,0.8-2.6,1.5-4.2,2c-0.3,0.1-0.6,0.1-0.7,0.1
		c-0.4,0-0.8-0.2-1.2-0.7c-0.4-0.3-0.6-0.6-0.6-0.9c0-0.2,0.3-0.4,0.7-0.4c1.2-0.1,2-0.2,2.5-0.4c1.4-0.3,2.7-0.8,3.9-1.6
		c1.3-0.8,2.3-1.7,3.2-2.7C265.7,0.5,265.9,0.4,266.1,0.4z M259.2,9.8c0.2,0,0.3,0,0.5,0.1c2.2-0.2,4.2-0.3,6-0.3
		c1.1,0,2.8,0,5.1,0.1c0.4,0,0.7,0,1,0c0.2,0,0.5,0,1-0.1c0.4-0.1,0.6-0.2,0.7-0.2c0.2,0,0.3,0.1,0.3,0.2c0,0.4-0.2,0.8-0.6,1.2
		c-0.4,0.5-0.7,0.7-1.1,0.7c-0.3,0-0.7-0.1-1.3-0.3c-1.4-0.4-3.1-0.6-5.1-0.6c-0.1,0-0.2,0-0.3,0c0,0.1,0.1,0.3,0.1,0.5
		c0,0.1,0,0.2-0.1,0.2c-0.5,0.8-1,1.5-1.3,2c-0.3,0.4-0.6,0.8-1,1.2c0,0.1,0.1,0.2,0.4,0.2h5.6c0.3,0,0.5-0.1,0.5-0.3
		c0,0,0-0.1,0-0.1c-0.3-0.4-0.6-1-1-1.5c0-0.1-0.1-0.1-0.1-0.1c0-0.4,0.2-0.7,0.7-0.7c0.1,0,0.2,0,0.3,0.1c0.6,0.7,1.2,1.6,1.9,2.7
		c0.1,0.1,0.1,0.3,0.1,0.4c0,0.4-0.2,0.6-0.6,0.6h-7.3c-0.5,0-1.1,0-1.8,0.1c-0.6,0-0.9-0.2-0.9-0.6c0-0.2,0.1-0.4,0.4-0.6
		c0.3-0.2,0.5-0.5,0.7-0.7c0.3-0.4,0.6-0.8,1-1.2c0.4-0.5,0.8-1.2,1.2-2.1c0,0,0,0,0-0.1c-1.8,0-3.1,0.2-3.9,0.4
		c-0.5,0.1-0.9,0.2-1.2,0.2c-0.4,0-0.6-0.2-0.6-0.6c0-0.2,0.1-0.5,0.3-0.7C258.8,9.9,259,9.8,259.2,9.8z M263.1,6.3h6.7
		c0.2,0,0.3,0.1,0.3,0.3c0,0.2-0.1,0.5-0.3,0.6c-0.2,0.2-0.5,0.3-0.8,0.3c-0.2,0-0.5,0-1.1-0.1c-0.6,0-1.3,0-2,0
		c-1.2,0-2.1,0.1-2.7,0.2c-0.3,0.1-0.5,0.2-0.6,0.2c-0.5,0-0.7-0.3-0.7-0.7c0-0.2,0.1-0.4,0.4-0.6C262.5,6.4,262.8,6.3,263.1,6.3z"
		/>
	<path class="st0" d="M288.9,1.2c0.6,0,0.9,0.2,0.9,0.7c-0.2,0.9-0.4,2-0.5,3.2c0,0.8-0.2,1.6-0.3,2.4c0.3,0.1,0.6,0.4,1.1,0.9
		c3.7,3.2,6.1,5,7,5.4c0.6,0.2,1.3,0.4,2.1,0.5c0.3,0,0.5,0.2,0.5,0.5c0,0.3-0.3,0.7-0.9,1.1c-0.6,0.4-1.2,0.5-1.8,0.5
		c-0.4,0-0.8-0.2-1.1-0.5c-1.5-1.8-3.2-3.6-5.1-5.4c-0.8-0.7-1.5-1.3-2.2-1.6c-0.1,0.3-0.3,0.7-0.4,1c-0.9,1.6-2,2.9-3.2,3.8
		c-1.7,1.3-3.2,1.9-4.5,1.9c-0.3,0-0.6-0.1-0.9-0.4c-0.4-0.4-0.6-0.8-0.6-1.2c0-0.3,0.3-0.5,0.8-0.5c1.5-0.2,2.7-0.6,3.7-1.1
		c1.5-0.6,2.8-1.9,3.8-3.9c0.7-1.6,1-3.4,1-5.6V1.9C288.2,1.4,288.4,1.2,288.9,1.2z"/>
	<path class="st0" d="M314.8,0.8c0.6,0,0.8,0.3,0.8,0.8c0,0.1,0,0.3-0.1,0.5c-0.3,0.8-0.5,1.3-0.7,1.6l6.4,0c0.2,0,0.6-0.1,1.2-0.2
		c0.6,0,0.9,0.2,0.9,0.6c-0.3,1.5-0.4,3.3-0.4,5.5c0,1.5,0.1,3.6,0.3,6.3c0,0.7-0.3,1-0.9,1c-0.3,0-0.5-0.1-0.6-0.4
		c-0.1-0.3-0.1-0.8-0.1-1.3c0-4.3,0.1-7.7,0.2-10.1c0-0.2-0.2-0.3-0.7-0.3c-4.7,0-9,0-12.9,0.1v5.8c0,1.2-0.1,2.2-0.3,3.1
		c-0.2,0.9-0.5,1.6-1,2.2c-0.4,0.5-0.8,0.8-1.1,0.8c-0.3,0-0.7-0.2-1.1-0.5c-0.5-0.4-0.7-0.6-0.7-0.8c0-0.2,0.1-0.3,0.4-0.4
		c0.7-0.3,1.3-0.9,1.7-1.8c0.4-0.8,0.6-2.6,0.6-5.3c0-1.3-0.1-2.7-0.3-4.2c0-0.4,0.2-0.6,0.7-0.6c0.2,0,0.4,0,0.6,0.1l5.8,0
		c0.2-0.7,0.3-1.4,0.3-2.1C314.1,1,314.3,0.8,314.8,0.8z M311.9,7.8c0.2,0,0.4,0,0.6,0.1c0.2,0.1,0.5,0.1,0.9,0.1h2
		c0.4,0,1,0,1.6,0.1c0.2,0,0.5-0.1,0.8-0.2c0.4,0,0.6,0.3,0.6,0.8l0,0.1c-0.1,0.2-0.1,0.4-0.2,0.9c0,0.5-0.1,1.1-0.1,1.7
		c0,0.4,0,0.9,0.1,1.5c0,0.5-0.2,0.7-0.6,0.7c-1-0.1-2-0.2-2.8-0.2c-1.1,0-1.9,0-2.2,0c-0.3,0-0.6,0.1-0.9,0.1
		c-0.4,0-0.6-0.2-0.6-0.7c0.1-0.9,0.2-1.6,0.2-2.3c0-0.6-0.1-1.3-0.2-2.2C311.3,8,311.5,7.8,311.9,7.8z M314.9,12.3
		c0.5,0,1.1,0,1.8,0.1c0.2,0,0.4-0.1,0.4-0.3V9.4c0-0.2-0.1-0.3-0.2-0.3C316,9,314.8,9,313.1,9c-0.2,0-0.4,0.2-0.4,0.5
		c0,0.9-0.1,1.7-0.2,2.5c0,0.3,0.2,0.4,0.5,0.4C313.6,12.3,314.2,12.3,314.9,12.3z"/>
	<path class="st0" d="M336,11.3c-0.1,0.6-0.5,1.5-1.1,2.7c-0.7,1.4-1.3,2-1.7,2c-0.5,0-1-0.6-1.4-1.9c-0.4-1.3-0.6-2.9-0.6-4.9
		c0-1.3,0.1-2.8,0.4-4.3c0.4-2.2,1-3.3,1.7-3.3c0.5,0,0.8,0.2,0.8,0.7c0,0.2-0.3,1-0.8,2.5c-0.5,1.3-0.8,2.8-0.8,4.4
		c0,0.7,0.1,1.6,0.2,2.5c0.2,1.4,0.4,2,0.8,2c0.3,0,0.8-0.4,1.3-1.3c0.5-0.9,0.9-1.4,1-1.4C335.9,11,336,11.1,336,11.3z M347.2,5.6
		c-0.1,0.3-0.2,0.6-0.4,0.8c-0.2,0.3-0.5,0.4-0.7,0.4c-0.1,0-0.5-0.1-1-0.2c-0.4-0.1-1-0.1-1.7-0.1c0,2.3-0.2,4-0.3,4.9
		c-0.4,1.8-1.1,3.2-2.2,4.3c-0.8,0.8-1.6,1.2-2.2,1.2c-0.2,0-0.6-0.2-1.1-0.5c-0.5-0.3-0.7-0.6-0.7-0.8c0-0.1,0.4-0.2,1.1-0.5
		c1.2-0.4,2.1-1.1,2.9-2.1c0.8-1.2,1.3-2.9,1.3-5.1c0-0.2,0-0.4,0-0.8c0-0.4,0-0.6,0-0.8c-1.6,0-2.9,0.2-3.7,0.3
		c-0.6,0.2-1,0.2-1,0.2c-0.3,0-0.5-0.2-0.5-0.5c0-0.7,0.5-1.1,1.4-1.2c0.8,0,2.1-0.1,3.7-0.1c-0.1-2.2-0.2-3.3-0.2-3.4
		c0-0.6,0.2-0.8,0.6-0.8c0.4,0,0.7,0.3,0.8,0.8c0.1,0.6,0.2,1.8,0.2,3.5c0.3,0,0.7,0,1.2,0c0.5,0,0.9,0,1.1,0c0.7,0,1,0,0.9,0
		C346.9,5.3,347.2,5.4,347.2,5.6z"/>
	<path class="st0" d="M369.5,14.2c-0.1,0.3-0.3,0.7-0.8,1.2c-0.4,0.5-0.8,0.8-1.1,0.8c-0.4,0-1-0.3-2-0.9c-0.6-0.4-1.2-0.8-1.7-1.2
		c-0.5-0.3-1.1-0.6-2-0.9c-0.2,2-1.4,3-3.7,3c-0.9,0-1.6-0.2-2.3-0.6c-0.8-0.4-1.2-1.1-1.2-1.9c0-0.9,0.4-1.5,1.3-1.9
		c0.7-0.3,1.5-0.5,2.4-0.5c0.6,0,1.4,0.1,2.2,0.3c0-0.4,0-0.9,0-1.5c0-0.8,0-1.3,0-1.5c0,0,0,0,0-0.1c0-0.1,0-0.1,0-0.1
		c-1.6,0.1-2.9,0.2-3.9,0.4c-0.1,0-0.2,0-0.4,0.1c-0.2,0.1-0.3,0.1-0.4,0.1c-0.4,0-0.6-0.2-0.6-0.7c0-0.5,0.4-0.9,1.3-0.9
		c0.7-0.1,2-0.2,3.8-0.2c0-0.8,0-1.8,0-3c-1.3,0-2.1,0.1-2.3,0.1c-0.9,0.1-1.6,0.2-2.3,0.3c-0.6,0.2-0.9,0.2-1,0.2
		c-0.5,0-0.8-0.3-0.8-0.9c0-0.2,0.1-0.4,0.2-0.5c0.2-0.2,2.2-0.3,6.1-0.3c0-1.1-0.1-1.8-0.1-1.9c0-0.6,0.3-0.9,0.8-0.9
		c0.6,0,0.9,0.3,0.9,0.9c0,0.5,0,1.2-0.1,1.9c2.9,0.1,4.9,0.2,5.8,0.2c0.4,0,0.5,0.1,0.5,0.2c0,0.3-0.1,0.6-0.4,1
		c-0.3,0.4-0.5,0.6-0.7,0.6c0.1,0-0.3-0.1-1.2-0.4c-0.9-0.2-2.2-0.4-4.1-0.5c0,1,0,2,0,2.9c1.8,0,3.4,0.1,4.8,0.3
		c0.1,0,0.2,0,0.3,0.1c0,0,0.1,0.1,0.1,0.2c0,0.3-0.1,0.5-0.3,0.8c-0.2,0.3-0.4,0.5-0.6,0.5c0,0-0.6-0.1-1.5-0.3
		c-0.8-0.2-1.8-0.2-2.9-0.3c0,0.2,0,1.3-0.1,3.6c1.5,0.4,2.9,0.9,4.2,1.4c0.9,0.3,1.8,0.5,2.8,0.6C369.3,13.9,369.4,14,369.5,14.2z
		 M360.6,12.7c-1-0.3-1.8-0.4-2.4-0.4c-1.6,0-2.5,0.5-2.5,1.4c0,0.4,0.3,0.8,0.9,1c0.4,0.2,0.9,0.3,1.4,0.3c0.8,0,1.4-0.2,1.8-0.6
		C360.3,14.1,360.5,13.5,360.6,12.7z"/>
	<path class="st0" d="M392,3.6c0,0.4-0.2,0.6-0.6,0.6c-0.2,0-0.4,0-0.8-0.1C390.3,4,390,4,389.8,4c-1.8,0-3.5,0.5-4.9,1.6
		c-1.6,1.2-2.4,2.7-2.4,4.5c0,1.5,0.7,2.6,2,3.3c1.1,0.6,2.4,0.9,4,0.9c0.3,0,0.6,0,1.2,0c0.5-0.1,0.9-0.1,1.2-0.1
		c0.2,0,0.3,0.1,0.3,0.3c-0.1,0.5-0.4,1-0.9,1.4c-0.5,0.4-1,0.6-1.5,0.6c-2,0-3.7-0.5-5.2-1.5c-1.6-1.1-2.4-2.6-2.4-4.5
		c0-1.5,0.5-2.8,1.5-3.9c0.8-0.9,1.9-1.7,3.5-2.5c-3.2,0.3-6.1,0.8-8.8,1.5c-0.3,0.1-0.6,0.2-1,0.3c-0.4,0-0.6-0.2-0.6-0.6
		c0-0.4,0.1-0.8,0.3-1c0.2-0.2,0.7-0.4,1.4-0.5c2.2-0.3,5-0.6,8.5-0.8c2.9-0.2,4.7-0.3,5.1-0.3c0.3,0,0.5,0.1,0.7,0.3
		C391.9,3.1,392,3.3,392,3.6z M391,8c0,0.1-0.2,0.4-0.5,0.7c-0.2,0.3-0.4,0.5-0.6,0.5c-0.3,0-0.8-0.3-1.4-1c-0.7-0.7-1-1.1-1-1.4
		c0-0.2,0.1-0.3,0.2-0.3c0.1,0,0.4,0.2,0.9,0.5c0.4,0.3,1.1,0.5,1.9,0.6C390.8,7.7,390.9,7.8,391,8z M394.5,7.1
		c0,0.1-0.2,0.4-0.5,0.7c-0.3,0.3-0.4,0.5-0.6,0.5c-0.3,0-0.7-0.3-1.4-1c-0.7-0.7-1-1.1-1-1.4c0-0.2,0.1-0.3,0.2-0.3
		c0,0,0.3,0.1,0.8,0.4c0.6,0.4,1.3,0.6,2,0.7C394.3,6.8,394.4,6.9,394.5,7.1z"/>
	<path class="st0" d="M405.2,14.8c0,0.8-0.3,1.5-0.8,2c-0.5,0.5-1.2,0.8-2,0.8c-0.8,0-1.5-0.3-2-0.8c-0.6-0.6-0.8-1.2-0.8-2
		s0.3-1.5,0.8-2c0.6-0.6,1.2-0.9,2-0.9c0.8,0,1.5,0.3,2,0.9C404.9,13.4,405.2,14,405.2,14.8z M404.3,14.8c0-0.5-0.2-1-0.6-1.4
		c-0.4-0.4-0.8-0.6-1.4-0.6c-0.5,0-1,0.2-1.4,0.6c-0.4,0.4-0.6,0.9-0.6,1.4s0.2,1,0.6,1.4c0.4,0.4,0.9,0.6,1.4,0.6
		c0.5,0,1-0.2,1.4-0.6C404.1,15.8,404.3,15.4,404.3,14.8z"/>
	<path class="st0" d="M14.9,33.3c0,0.5-0.5,1.6-1.6,3.4c-1,1.6-1.7,2.7-2.3,3.4c0.9,0.7,1.7,1.2,2.5,1.4c0.2,0.1,0.4,0.2,0.6,0.4
		c0,0.2-0.3,0.6-0.9,1c-0.5,0.4-0.9,0.6-1.1,0.6c-0.2,0-0.6-0.3-1.1-1c-0.4-0.4-0.7-0.9-1.1-1.3c-1.1,1-2.3,2-3.7,3.1
		c-1.9,1.4-3.3,2.1-4.1,2.1c-0.3,0-0.8-0.2-1.2-0.5c-0.5-0.3-0.7-0.7-0.7-1c0-0.2,0.3-0.4,0.9-0.5c2.8-0.7,5.4-2.1,7.8-4.2
		c-0.5-0.4-1-0.8-1.5-1.2c-0.8-0.7-1.2-1.1-1.2-1.2c0-0.2,0.2-0.3,0.5-0.3c0.2,0,0.8,0.3,1.6,0.8c0.5,0.4,1.1,0.7,1.6,1
		c0.5-0.6,1.2-1.4,1.9-2.4c0.9-1.2,1.4-2.1,1.5-2.6C13,34,12,33.9,10.4,33.9c-0.8,0-1.8,0-3,0.1c-0.6,0.8-1.3,1.5-2.1,2.3
		c-1.1,1-1.8,1.6-2.4,1.6c-0.3,0-0.6-0.2-1.1-0.5c-0.4-0.3-0.6-0.6-0.6-0.8c0-0.1,0.3-0.2,1-0.5c1.2-0.5,2.2-1.1,3.2-1.8
		c0.7-0.6,1.6-1.6,2.4-3.1c0.3-0.4,0.5-0.6,0.7-0.6c0.4,0,0.5,0.2,0.5,0.5c0,0.2-0.3,0.8-0.8,1.7c4.3-0.1,6.3-0.1,6-0.1
		C14.6,32.7,14.9,32.9,14.9,33.3z"/>
	<path class="st0" d="M39.9,38.5c0,0.2-0.3,0.6-1,1.2c-0.6,0.5-1.1,0.8-1.4,0.8c-0.3,0-0.7-0.1-1.2-0.4c-1.6-0.8-3.8-1.2-6.6-1.2
		c-2.4,0-4.5,0.3-6.3,0.9c-0.7,0.2-1.1,0.3-1.2,0.3c-0.2,0-0.4-0.1-0.6-0.3c-0.2-0.2-0.3-0.4-0.3-0.5c0-0.4,0.1-0.7,0.4-0.9
		c0.4-0.3,1.6-0.5,3.8-0.7c1.6-0.1,2.9-0.2,4.1-0.2c1.7,0,3.6,0.2,5.6,0.5c1.4,0.2,2.4,0.3,3,0.3c0.1,0,0.3,0,0.6-0.1
		c0.3-0.1,0.5-0.1,0.6-0.1C39.8,38.1,39.9,38.3,39.9,38.5z"/>
	<path class="st0" d="M63.7,34.2c0,0.3-0.2,0.7-0.5,1.2c-0.3,0.5-0.6,0.7-1,0.7c-0.1,0-0.8-0.2-2.1-0.5c-0.8-0.2-1.7-0.4-2.7-0.4
		c0,0.2,0,0.4,0,0.8c0,0.3,0,0.6,0,0.7c0,3.7-1.5,6.6-4.4,8.7c-1,0.8-1.7,1.1-2.1,1.1c-0.3,0-0.6-0.2-1.2-0.6
		c-0.5-0.4-0.8-0.6-0.8-0.8c0-0.2,0.4-0.5,1.3-0.7c1.2-0.4,2.2-0.9,3-1.5c1.1-0.9,1.9-2,2.3-3.5c0.3-1,0.5-2.4,0.6-4.2
		c-2.3,0-4.2,0.4-5.7,1c-0.4,0.5-0.8,1.1-1.3,1.6c-0.7,0.8-1.2,1.2-1.5,1.2c-0.2,0-0.6-0.2-1.1-0.5c-0.5-0.3-0.7-0.6-0.7-0.8
		c0-0.2,0.4-0.4,1.1-0.8c1-0.5,1.8-1.1,2.6-2c0.9-1.1,1.5-2.1,1.7-2.9c0.2-0.6,0.5-0.9,0.9-0.9c0.3,0,0.4,0.2,0.4,0.5
		c0,0.4-0.4,1.4-1.1,2.9c2.2-0.4,4.2-0.5,6-0.5c0.5,0,1.4,0,2.5,0.1c1.1,0,1.9,0.1,2.4,0.1c0.1,0,0.3,0,0.6,0c0.3,0,0.4,0,0.6,0
		C63.6,34,63.7,34.1,63.7,34.2z M63.5,31.5c0,0.2-0.2,0.4-0.5,0.6c-0.3,0.3-0.5,0.4-0.7,0.4c-0.3,0-0.7-0.4-1.2-1.2
		c-0.4-0.8-0.7-1.4-0.7-1.7c0-0.2,0-0.3,0.1-0.3c0.1,0,0.3,0.1,0.4,0.3c0.7,0.8,1.3,1.4,2,1.6C63.3,31.3,63.4,31.4,63.5,31.5z
		 M66.5,30.5c-0.1,0.2-0.2,0.4-0.5,0.6c-0.3,0.3-0.5,0.4-0.7,0.5c-0.3-0.1-0.8-0.5-1.3-1.2c-0.6-0.7-0.9-1.2-0.9-1.5
		c0-0.1,0.1-0.2,0.2-0.2c0,0,0.3,0.2,0.8,0.5c0.5,0.4,0.8,0.6,0.9,0.6C65.5,30,66,30.2,66.5,30.5z"/>
	<path class="st0" d="M73.7,39.3c0,0.2-0.1,0.4-0.3,0.4c-0.2,0-0.7-0.4-1.3-1.2c-0.6-0.8-0.9-1.4-0.9-1.7c0-0.4,0.3-0.6,0.8-0.6
		c0.3,0,0.6,0.4,1.1,1.3C73.5,38.3,73.7,38.9,73.7,39.3z M82.7,36.5c0,0.4-0.2,1.1-0.6,2.2c-1,2.6-2.9,4.8-5.7,6.7
		c-1.4,0.9-2.4,1.4-3,1.4c-0.3,0-0.6-0.1-1.1-0.4c-0.4-0.3-0.6-0.5-0.6-0.8c0-0.2,0.5-0.4,1.4-0.6c1.3-0.4,2.6-0.9,3.8-1.7
		c1.4-0.9,2.5-1.9,3.2-3c0.3-0.5,0.6-1.2,0.9-2c0.2-0.7,0.4-1.4,0.7-2.1c0.1-0.3,0.3-0.4,0.6-0.4C82.6,36,82.7,36.1,82.7,36.5z
		 M77.4,38.9c0,0.3-0.1,0.4-0.2,0.4c-0.2,0-0.5-0.4-0.9-1.3c-0.4-0.8-0.6-1.4-0.6-1.7c0-0.5,0.3-0.7,0.8-0.7
		C77.1,35.7,77.4,36.8,77.4,38.9z"/>
	<path class="st0" d="M103.5,40.1c0,0.3-0.4,0.7-1.1,1.2c-0.8,0.5-1.3,0.8-1.6,0.8c-0.3,0-0.7-0.3-1.2-1c-1.4-1.7-3.1-3-5.1-3.9
		c0,0.9,0,2.3,0,4.2c0,1.8,0.1,3.2,0.1,4.2c0,0.7-0.3,1-0.9,1c-0.5,0-0.7-0.4-0.7-1.2c0-0.7,0-1.8,0-3.2c0-1.4,0.1-2.5,0.1-3.2v-4.4
		c0-0.3,0-0.8-0.1-1.4c0-0.7,0-1.1,0-1.5c0-0.6,0.3-0.9,0.9-0.9c0.5,0,0.8,0.3,0.8,0.9c0,0.5,0,1.2-0.1,2.1s-0.1,1.7-0.1,2.1
		c1.6,0.7,3.2,1.5,5,2.5c1.5,0.8,2.6,1.2,3.5,1.3C103.3,39.9,103.5,40,103.5,40.1z"/>
	<path class="st0" d="M115.8,41.6c-0.2,0.8-0.5,1.6-0.9,2.5c-0.6,1.3-1.1,1.9-1.5,1.9c-0.5,0-0.9-0.6-1.3-1.9
		c-0.3-1.1-0.5-2.7-0.5-4.8c0-0.8,0.1-2,0.4-3.6c0.3-1.7,0.6-2.8,0.9-3.4c0.2-0.4,0.5-0.6,0.9-0.6c0.5,0,0.8,0.2,0.8,0.7
		c0,0.1-0.1,0.5-0.4,1c-0.4,0.8-0.6,1.7-0.9,2.8c-0.3,1.1-0.4,2.1-0.4,2.8c0,3.1,0.2,4.7,0.7,4.7c0.2,0,0.7-0.8,1.5-2.3
		c0.1-0.2,0.2-0.3,0.3-0.3C115.7,41.3,115.8,41.4,115.8,41.6z M127.9,42.4c0,0.1-0.2,0.5-0.5,1.2c-0.3,0.6-0.6,0.9-1,1.1
		c-0.5,0.2-1.6,0.3-3.4,0.3c-1.4,0-2.6-0.2-3.6-0.6c-1.4-0.6-2.1-1.5-2.1-2.7c0-1.3,0.3-2,0.9-2c0.1,0,0.2,0.1,0.2,0.3
		c-0.2,0.6-0.2,1-0.2,1.2c0,1.4,1.1,2.1,3.3,2.1c0.9,0,2-0.1,3.2-0.3c0.7-0.1,1.3-0.3,1.9-0.5c0.5-0.2,0.8-0.3,1-0.3
		C127.7,42,127.8,42.2,127.9,42.4z M125.8,33.7c0,0.2-0.6,0.8-1.8,1.6c-1.2,0.8-1.9,1.2-2.1,1.2c-0.3,0-0.4-0.1-0.4-0.3
		c0-0.1,0.3-0.5,0.8-1c0.5-0.4,0.8-0.8,1.1-0.9c-0.1,0-0.2,0-0.3,0c-1,0-2.1,0.1-3.3,0.3c-1.3,0.2-1.9,0.4-1.8,0.4
		c-0.3,0-0.4-0.2-0.4-0.5c0-0.5,0.2-0.8,0.6-1c0.2,0,0.6-0.1,1.3-0.2c1.6-0.2,3.5-0.2,5.6-0.2C125.5,33,125.8,33.3,125.8,33.7z"/>
	<path class="st0" d="M142.5,30.6c0.3,0,0.5,0.2,0.6,0.5c0.3,0,0.6,0.3,1.2,0.7c3.6,2.3,5.9,3.6,6.7,3.8c0.6,0.2,1.3,0.3,2,0.3
		c0.3,0,0.5,0.1,0.5,0.4c0,0.4-0.3,0.7-0.8,1.1c-0.5,0.4-1.1,0.5-1.7,0.5c-0.4,0-0.8-0.2-1.1-0.5c-1.5-1.3-3.1-2.6-5-4
		c-0.8-0.5-1.5-0.9-2.1-1.2c-0.1,0-0.2-0.1-0.3-0.1c-1.2,1.3-2.5,2.4-3.8,3.3c-1.2,0.8-2.5,1.5-4.1,2c-0.3,0.1-0.6,0.2-0.7,0.2
		c-0.4,0-0.8-0.2-1.2-0.7c-0.4-0.3-0.5-0.6-0.5-0.9c0-0.2,0.3-0.3,0.6-0.4c1.1-0.1,2-0.2,2.5-0.4c1.3-0.3,2.6-0.9,3.8-1.7
		c1.2-0.8,2.2-1.7,3.1-2.8C142.1,30.7,142.3,30.6,142.5,30.6z M138.1,40.1c0.2,0,0.5,0,0.7,0.1c0.2,0.1,0.6,0.1,1,0.1h3.5
		c0.8,0,1.7,0,2.8,0.1c0.2,0,0.5-0.1,0.8-0.2c0.4,0,0.7,0.2,0.7,0.7c0,0,0,0.1-0.1,0.2c-0.1,0.2-0.1,0.5-0.1,0.9
		c0,0.6-0.1,1.2-0.1,1.8c0,0.4,0,0.9,0.1,1.6c0,0.5-0.2,0.7-0.7,0.7c-1.6-0.1-3-0.2-4.2-0.2c-1.6,0-2.6,0-3.1,0.1
		c-0.4,0-0.8,0.1-1.3,0.1c-0.4,0-0.6-0.2-0.6-0.6c0.1-0.9,0.2-1.7,0.2-2.4c0-0.7-0.1-1.4-0.2-2.4C137.4,40.4,137.6,40.1,138.1,40.1z
		 M139.4,36.5h7.3c0.2,0,0.4,0.1,0.4,0.3c0,0.3-0.1,0.6-0.3,0.8c-0.2,0.2-0.5,0.3-0.8,0.3c-0.2,0-0.6-0.1-1.2-0.2
		c-0.7,0-1.4-0.1-2.2-0.1c-1.4,0-2.3,0.1-2.9,0.2c-0.4,0.1-0.6,0.2-0.7,0.2c-0.5,0-0.8-0.3-0.8-0.7c0-0.2,0.2-0.4,0.4-0.6
		C138.7,36.5,139,36.5,139.4,36.5z M142.5,44.9c1,0,2,0,3.2,0.1c0.3,0,0.4-0.1,0.4-0.3v-3c0-0.2-0.1-0.3-0.2-0.3
		c-1.5-0.1-3.6-0.1-6.4-0.1c-0.3,0-0.5,0.2-0.5,0.5c0,1-0.1,1.9-0.2,2.8c0,0.2,0.2,0.4,0.6,0.4C140.3,44.9,141.3,44.9,142.5,44.9z"
		/>
	<path class="st0" d="M175.9,40.1c0,1.2-0.4,2.2-1.2,3.2c-0.7,0.8-1.7,1.4-2.9,1.8c-1.1,0.4-2,0.6-2.8,0.6c-0.3,0-0.7-0.2-1.2-0.6
		c-0.5-0.4-0.7-0.8-0.7-1.2c0-0.2,0.4-0.2,1.3-0.2c4-0.1,6.1-1.5,6.1-4.2c0-1-0.4-1.7-1.1-2.3c-0.6-0.5-1.4-0.7-2.4-0.7
		c-2.2,0-4.4,0.9-6.6,2.8c0,0.7,0,1.8,0,3.3c0,1.5,0,2.6,0,3.3c0,0.5-0.3,0.8-0.9,0.8c-0.4,0-0.6-0.4-0.6-1.2c0-0.1,0-0.6,0-1.6
		c0-1,0-2.4,0.1-4.3c-1.1,1.2-2,2.4-2.8,3.7c-0.3,0.4-0.5,0.6-0.7,0.6c-0.5,0-0.8-0.3-0.8-0.9c0-0.4,0.6-1.4,1.9-2.8
		c0.8-0.9,1.6-1.8,2.4-2.6c0-0.5,0-1.2,0.1-2.2c-1.4,0.2-2.5,0.4-3.4,0.8c-0.3,0-0.5-0.2-0.5-0.7c0-0.5,0.4-0.9,1.2-1
		c0.2,0,1.1-0.1,2.7-0.3l0.1-2.2c0-0.9,0.3-1.3,0.7-1.3c0.5,0,0.8,0.2,0.8,0.7c0,0.3,0,0.7-0.1,1.4c0,0.6-0.1,1.1-0.1,1.4
		c0,0,0.1,0,0.2,0c0,0,0.1,0,0.1,0c0.6,0,0.8,0.2,0.8,0.6c0,0.3-0.2,0.6-0.5,1.2c-0.3,0.4-0.5,0.7-0.7,1.1c0,0.1,0,0.3,0,0.5
		c0,0.2,0,0.4,0,0.5c2.4-1.6,4.5-2.3,6.4-2.3c1.4,0,2.6,0.4,3.6,1.3C175.4,37.7,175.9,38.8,175.9,40.1z"/>
	<path class="st0" d="M201.3,36.4c0,0.3-0.2,0.7-0.7,1.2c-0.4,0.5-0.8,0.8-1.1,0.8c-0.2,0-0.9-0.2-1.9-0.6c-0.6-0.2-1.3-0.4-2.1-0.6
		c-0.2,0.8-0.3,1.6-0.5,2.5c-0.3,1.1-0.8,1.7-1.5,1.7c-0.4,0-1-0.2-1.7-0.7c-0.8-0.5-1.1-0.9-1.1-1.2c0-0.2,0.1-0.3,0.4-0.3
		c0.4,0.1,0.7,0.3,1.1,0.5c0.5,0.2,0.8,0.4,1,0.4c0.4,0,0.8-1,1-2.9c-0.1,0-0.2,0-0.3,0c-0.2,0-0.3,0-0.4,0c-1.7,0-3.4,0.1-5,0.2
		c0,0.9-0.1,1.7-0.1,2.4c0,1.8,0.1,2.9,0.4,3.4c0.4,0.8,1.4,1.2,3,1.2c1.6,0,3.6-0.3,5.8-1c0.2-0.1,0.4-0.1,0.6-0.1
		c0.1,0,0.2,0.1,0.2,0.4s-0.2,0.7-0.5,1.2c-0.3,0.5-0.9,0.9-1.8,1.1c-0.4,0.1-1.2,0.1-2.2,0.1c-1.6,0-3-0.2-4.1-0.6
		c-1.1-0.4-1.9-1.2-2.3-2.3c-0.3-0.8-0.4-1.9-0.4-3.4c0-0.3,0-0.7,0-1.2c0-0.5,0-0.9,0-1.2c-1.5,0.2-2.9,0.6-4.1,0.9l-0.9,0.3
		c-0.4,0-0.6-0.2-0.6-0.5c0-0.4,0.1-0.7,0.3-1c0.2-0.3,2-0.5,5.2-0.8v-3.5c0-0.7,0.3-1.1,1-1.1c0.4,0,0.6,0.3,0.6,0.8
		c0,0.4,0,1-0.1,1.8c-0.1,0.8-0.1,1.4-0.1,1.8c2.3-0.1,4.2-0.2,5.8-0.2c0-0.4,0-0.9,0-1.6c0-0.8,0-1.4,0-1.6c0-0.6,0-0.9,0-1
		c0.1-0.3,0.4-0.5,0.8-0.5c0.3,0,0.6,0.2,0.6,0.6c0,0.1,0,0.4,0,0.9c0,0.6-0.1,1.7-0.3,3.4c1.4,0.2,2.8,0.2,4.1,0.2
		c0.1,0,0.4,0,0.6-0.1c0.3-0.1,0.5-0.1,0.6-0.1C201.2,36.1,201.3,36.2,201.3,36.4z"/>
	<path class="st0" d="M218,34c0,0.2-0.1,0.4-0.3,0.7c-0.2,0.3-0.3,0.5-0.5,0.5c-1.1-0.2-2-0.3-2.8-0.3c-0.1,0-0.3,0-0.5,0
		c-0.2,0-0.4,0-0.5,0c-0.4,1.7-0.8,3.3-1.4,4.7c-1.6,4.1-2.9,6.1-3.8,6.1c-0.3,0-0.6-0.1-1-0.2c-0.5-0.2-0.7-0.4-0.7-0.6
		c0-0.1,0.3-0.5,1-1.2c1.1-1.1,2.1-2.5,3-4.1c0.9-1.6,1.5-3.2,1.8-4.6c-1.5,0.1-2.9,0.3-4.1,0.7c-0.4-0.1-0.6-0.2-0.6-0.6
		s0.1-0.5,0.2-0.7c0.1-0.2,0.9-0.3,2.2-0.5c0.8-0.1,1.6-0.2,2.4-0.2c0.1-0.6,0.2-1.4,0.2-2.1c0-0.6,0.3-0.9,0.7-0.9
		c0.4,0,0.7,0.2,0.7,0.6c0,0.2-0.1,1-0.4,2.3c2.1-0.1,3.4-0.2,3.7-0.2S218,33.7,218,34z M224.5,43.6c0,0.4-0.1,0.8-0.4,1.4
		c-0.3,0.5-0.8,0.9-1.5,1.1c-0.4,0.1-1,0.1-1.9,0.1c-4.1,0-6.1-1-6.1-3c0-0.3,0.1-0.6,0.2-0.9c0.1-0.4,0.3-0.6,0.6-0.6
		c0.3,0,0.4,0.1,0.4,0.4c0,0.1,0,0.3-0.1,0.5c0,0.2-0.1,0.4-0.1,0.5c0,0.9,0.8,1.4,2.3,1.4c2.4,0,4.4-0.4,5.8-1.1
		c0.4-0.2,0.6-0.3,0.6-0.3C224.4,43.2,224.5,43.3,224.5,43.6z M222.2,37.3c-0.1,0.2-0.6,0.7-1.5,1.4c-0.9,0.7-1.6,1.1-1.9,1.2
		c-0.1,0-0.2-0.1-0.2-0.3c0-0.2,0.2-0.5,0.6-0.9c0.3-0.2,0.6-0.5,0.8-0.8c-0.1,0-0.3,0-0.6,0c-1.1,0-2,0.1-2.7,0.2
		c-0.9,0.2-1.3,0.3-1.3,0.3c-0.3,0-0.5-0.1-0.5-0.4c0-0.3,0.1-0.5,0.3-0.7c0.4-0.4,1.9-0.6,4.6-0.6h0.9
		C221.6,36.7,222.1,36.9,222.2,37.3z"/>
	<path class="st0" d="M231,32h6c0.2,0,0.3,0.1,0.3,0.3c0,0.3-0.1,0.5-0.3,0.6c-0.2,0.2-0.5,0.3-0.8,0.3c-0.1,0-0.5,0-1-0.1
		c-0.3,0-0.5,0-0.8,0l0,3.3h2.4c0.2,0,0.3,0.1,0.3,0.3c0,0.2-0.1,0.5-0.3,0.6c-0.2,0.2-0.4,0.3-0.8,0.3c-0.1,0-0.4,0-0.9-0.1
		c-0.2,0-0.5,0-0.7,0l0,3.5c1.1-0.3,1.9-0.4,2.5-0.5c0.3,0,0.4,0.1,0.4,0.4c0,0.4-0.2,0.6-0.5,0.7c-2.3,0.6-4.4,1.4-6.3,2.3
		c-0.5,0-0.7-0.2-0.7-0.6c0-0.4,0.1-0.6,0.2-0.8c0.1-0.2,0.3-0.3,0.6-0.4c0.9-0.2,1.7-0.5,2.5-0.6l0-3.8c-0.8,0-1.4,0.1-1.8,0.2
		c-0.3,0.1-0.4,0.2-0.5,0.2c-0.4,0-0.7-0.2-0.7-0.6c0-0.2,0.1-0.4,0.4-0.6c0.2-0.1,0.5-0.2,0.8-0.2h1.8l0-3.3
		c-0.8,0-1.5,0.1-1.9,0.2c-0.3,0.1-0.5,0.2-0.6,0.2c-0.4,0-0.7-0.3-0.7-0.7c0-0.2,0.1-0.4,0.4-0.6C230.4,32,230.7,32,231,32z
		 M240.3,37.2c0.2,0,0.4,0,0.6,0c0.2,0,0.5,0,0.9,0h2.8c0.6,0,1.4,0,2.2,0.1c0.2,0,0.5,0,0.8-0.1c0.4,0,0.6,0.2,0.6,0.6
		c0,0,0,0,0,0.1c-0.1,0.1-0.1,0.3-0.2,0.6c0,0.4-0.1,0.7-0.1,1.1c0,0.2,0,0.4,0.1,0.8c0,0.4-0.2,0.6-0.6,0.6C246.2,41,245,41,244,41
		c0,0.1,0.1,0.3,0.1,0.5c-0.1,0.6-0.1,1.2-0.1,1.7l0.1,2.8c0,0.9-0.2,1.3-0.7,1.3c-0.4,0-0.6-0.4-0.6-1.3c0.1-1.2,0.1-2.1,0.1-2.8
		c0-0.4,0-0.8,0-1.2c-1,1.2-2.2,2.2-3.6,3.2c-0.6,0.4-1.1,0.6-1.4,0.6c-0.3,0-0.6-0.1-1-0.4c-0.3-0.3-0.5-0.5-0.5-0.8
		c0-0.2,0.2-0.3,0.5-0.3c1.1-0.2,2.1-0.6,3-1.2c0.9-0.5,1.7-1.2,2.5-2c-0.4,0-0.7,0-0.9,0.1c-0.3,0-0.6,0.1-1.1,0.2
		c-0.4,0-0.6-0.2-0.6-0.6c0.1-0.6,0.2-1.1,0.2-1.5c0-0.3-0.1-0.7-0.2-1.2C239.7,37.4,239.9,37.2,240.3,37.2z M238.8,35.4h11
		c0.2,0,0.3,0.1,0.3,0.3c0,0.2-0.1,0.5-0.3,0.6c-0.2,0.2-0.4,0.3-0.8,0.3c-0.3,0-0.9,0-1.9-0.1c-1.1,0-2.2,0-3.5,0
		c-2,0-3.4,0.1-4.3,0.2c-0.5,0.1-0.8,0.2-1,0.2c-0.4,0-0.6-0.2-0.7-0.6c0-0.2,0.2-0.4,0.4-0.6C238.2,35.5,238.5,35.4,238.8,35.4z
		 M239,30.6c0.2,0,0.4,0,0.6,0c0.2,0,0.5,0,0.9,0h4.2c0.9,0,2.1,0,3.4,0.1c0.2,0,0.5,0,0.7-0.1c0.4,0,0.7,0.2,0.7,0.6l0,0.1
		c-0.1,0.1-0.1,0.3-0.2,0.6c0,0.4-0.1,0.7-0.1,1.2c0,0.2,0,0.5,0.1,0.8c0,0.4-0.2,0.7-0.6,0.7c-1.9-0.1-3.6-0.2-5.1-0.2
		c-1.7,0-2.8,0-3.3,0.1c-0.4,0-0.9,0.1-1.5,0.2c-0.4,0-0.6-0.2-0.6-0.7c0.1-0.6,0.2-1.1,0.2-1.5c0-0.4-0.1-0.8-0.2-1.3
		C238.4,30.8,238.6,30.6,239,30.6z M241.9,33.5l0-1.8c-0.5,0-1,0-1.6,0c-0.3,0-0.4,0.1-0.4,0.4c0,0.4-0.1,0.7-0.2,1
		c0,0.3,0.2,0.5,0.5,0.5C240.7,33.5,241.3,33.5,241.9,33.5z M243.7,40c0.8,0,1.7,0,2.7,0.1c0.2,0,0.4-0.1,0.4-0.4v-1.1
		c0-0.1-0.1-0.2-0.2-0.2c-1.2-0.1-2.9-0.1-5.1-0.1c-0.3,0-0.4,0.1-0.4,0.4c0,0.3-0.1,0.6-0.2,0.9c0,0.3,0.2,0.5,0.5,0.5
		C242.1,40.1,242.8,40,243.7,40z M243.7,33.5c0.4,0,0.8,0,1.2,0l-0.1-1.8c-0.6,0-1.2,0-1.9,0v1.8C243.2,33.5,243.5,33.5,243.7,33.5z
		 M249.3,40.5c0.5,0,0.7,0.2,0.7,0.7c0,0.3-0.2,0.5-0.5,0.7c-0.7,0.4-1.6,0.8-2.7,1.2c-0.1,0-0.2,0.1-0.3,0.1l0,0
		c1.8,1.2,2.9,1.9,3.3,2.1c0.3,0.1,0.6,0.1,1,0.2c0.3,0,0.4,0.1,0.4,0.3c0,0.3-0.2,0.5-0.6,0.8c-0.4,0.3-0.9,0.4-1.3,0.4
		c-0.3,0-0.6-0.1-0.8-0.3c-0.6-0.8-1.3-1.6-2-2.4c-0.3-0.3-0.6-0.6-0.9-0.7c0,0-0.1,0-0.1,0c-0.1,0-0.1,0-0.1,0
		c-0.4,0-0.6-0.2-0.6-0.5c0-0.2,0.1-0.4,0.3-0.5c1.6-0.8,2.9-1.4,3.8-2.1C249.2,40.6,249.3,40.5,249.3,40.5z M245.9,31.7v1.8
		c0.6,0,1.2,0,1.8,0.1c0.3,0,0.4-0.1,0.4-0.4V32c0-0.1-0.1-0.2-0.2-0.2C247.3,31.8,246.7,31.7,245.9,31.7z"/>
	<path class="st0" d="M256.4,34.9h1.9l0-3.6c0-0.6,0.2-0.8,0.7-0.8c0.6,0,0.9,0.3,0.9,0.8l-0.1,3.6h2.3c0.2,0,0.3,0.1,0.3,0.3
		c0,0.3-0.1,0.5-0.3,0.6c-0.2,0.2-0.4,0.3-0.8,0.3c-0.1,0-0.4,0-0.9-0.1c-0.2,0-0.4,0-0.6,0l-0.1,4.3c1.1-0.3,2-0.4,2.6-0.5
		c0.3,0,0.4,0.1,0.4,0.4c0,0.4-0.2,0.6-0.5,0.6c-2.2,0.6-4.2,1.3-6,2.1c-0.5,0-0.7-0.2-0.7-0.6s0.1-0.6,0.2-0.8
		c0.1-0.2,0.2-0.3,0.6-0.4c0.8-0.2,1.5-0.4,2.2-0.5l0-4.6c-0.8,0-1.4,0.1-1.8,0.2c-0.3,0.1-0.5,0.2-0.6,0.2c-0.4,0-0.7-0.2-0.7-0.6
		c0-0.2,0.1-0.5,0.4-0.6C255.8,34.9,256.1,34.9,256.4,34.9z M265.3,36.7c0.2,0,0.5,0,0.7,0c0.2,0,0.6,0,1,0h3c0.7,0,1.5,0,2.4,0.1
		c0.2,0,0.5,0,0.8-0.1c0.4,0,0.7,0.2,0.7,0.6c0,0,0,0.1-0.1,0.2c-0.1,0.2-0.1,0.5-0.1,0.9c0,0.6-0.1,1.2-0.1,1.8c0,0.4,0,1,0.1,1.7
		c0,0.4-0.2,0.7-0.7,0.7c-0.7-0.1-1.3-0.1-1.9-0.1c0,0,0,0.1,0,0.1c0,0.6,0,1.4-0.1,2.3c0,0.2,0.1,0.3,0.2,0.3
		c0.2,0,0.8,0.1,1.6,0.1c1.4,0,2.7-0.2,3.7-0.6c0.2,0,0.3,0.2,0.3,0.5c0,0.4-0.1,0.8-0.4,1.3c-0.3,0.5-0.6,0.8-0.9,0.8
		c-0.2,0-1.9-0.2-5.1-0.7c-0.5-0.1-0.7-0.4-0.7-0.8c0.1-0.9,0.1-1.5,0.1-2c0-0.4,0-0.9-0.1-1.4c-0.2,0-0.4,0-0.7,0
		c-0.3,0-0.6,0-0.9,0c0,0.1,0,0.1,0,0.2c0,0-0.1,0-0.1,0.1c-0.3,0.6-0.9,1.4-1.7,2.2c-0.8,0.8-1.7,1.3-2.6,1.7
		c-0.6,0.3-1.1,0.4-1.5,0.4c-0.3,0-0.5-0.1-0.8-0.3c-0.4-0.3-0.6-0.6-0.6-1c0-0.3,0.3-0.4,0.8-0.5c1.1-0.1,2.2-0.4,3.2-0.9
		c0.9-0.5,1.5-1.2,2-1.9c-0.2,0-0.4,0-0.6,0c-0.3,0-0.7,0.1-1.2,0.2c-0.4,0-0.6-0.2-0.6-0.7c0.1-0.9,0.2-1.7,0.2-2.4
		c0-0.7-0.1-1.4-0.2-2.4C264.7,36.9,264.9,36.7,265.3,36.7z M269.2,30.1c0.6,0,0.9,0.3,0.9,0.8c-0.1,0.3-0.2,0.6-0.2,0.9h4.6
		c0.2,0,0.3,0.1,0.3,0.3c0,0.3-0.1,0.5-0.3,0.6c-0.2,0.2-0.5,0.3-0.8,0.3c-0.2,0-0.7,0-1.6-0.1l-0.4,1.7h3.8c0.2,0,0.4,0.1,0.4,0.2
		c0,0.3-0.1,0.6-0.3,0.9c-0.2,0.2-0.5,0.4-0.8,0.4c-0.3,0-1-0.1-2-0.2c-1.1-0.1-2.3-0.1-3.6-0.1c-2,0-3.5,0.1-4.4,0.2
		c-0.5,0.1-0.9,0.1-1,0.1c-0.4,0-0.6-0.2-0.7-0.6c0-0.2,0.2-0.4,0.4-0.6c0.2-0.1,0.4-0.2,0.8-0.2h2.9l-0.5-1.7c-0.4,0-0.7,0.1-1,0.1
		c-0.4,0.1-0.7,0.2-0.8,0.2c-0.4,0-0.6-0.2-0.7-0.6c0-0.2,0.2-0.4,0.4-0.6c0.2-0.1,0.4-0.2,0.8-0.2h3.4c0-0.3-0.1-0.6-0.2-0.8
		C268.3,30.4,268.6,30.1,269.2,30.1z M269.2,41.5c0.9,0,1.8,0,2.9,0.1c0.3,0,0.4-0.1,0.4-0.4v-1.1c0,0-0.1,0-0.1,0
		c-2.6,0-4.6,0.1-6.1,0.2c0,0-0.1,0-0.1,0c0,0.3,0,0.6-0.1,0.8c0,0.3,0.2,0.5,0.6,0.5C267.4,41.6,268.2,41.5,269.2,41.5z
		 M266.3,39.2c0,0,0.1,0,0.1,0h5.9c0.1,0,0.1,0,0.2,0v-1.2c0-0.1-0.1-0.2-0.2-0.2c-1.3,0-3.1-0.1-5.5-0.1c-0.3,0-0.5,0.1-0.5,0.4
		C266.3,38.5,266.3,38.9,266.3,39.2z M268,34.7h2.7l0.2-1.8c-0.5,0-1.1,0-1.7,0c-0.5,0-1,0-1.4,0L268,34.7z"/>
	<path class="st0" d="M284,32.4h2.5l0-1.3c0-0.5,0.2-0.7,0.7-0.7c0.6,0,0.8,0.2,0.8,0.7l0,1.3h2.6c0.2,0,0.3,0.1,0.3,0.2
		c0,0.2,0,0.3-0.1,0.5c0.4-0.7,0.8-1.4,1.2-2.2c0.1,0,0.2-0.1,0.4-0.1c0.4,0,0.5,0.2,0.6,0.6c0,0.2-0.1,0.4-0.2,0.5
		c-0.8,1.3-1.5,2.5-2.1,3.5h2.1c0.2,0,0.2,0.1,0.3,0.3c0,0.2-0.1,0.5-0.3,0.6c-0.2,0.2-0.4,0.3-0.8,0.3c-0.3,0-0.9,0-1.8-0.1
		c-0.1,0-0.2,0-0.3,0c-0.4,0.5-0.7,0.9-1,1.3c0.8,0,1.5,0,2,0.1h0.7c0.4,0,0.6,0.2,0.6,0.6c0,0.1-0.1,0.3-0.4,0.5
		c-0.7,0.5-1.6,1.2-2.6,2.1c0,0-0.1,0.1-0.1,0.1c0.2,0.2,0.4,0.5,0.6,0.8c0,0.1,0,0.1,0,0.2c1.4-0.3,2.5-0.5,3.3-0.6
		c0.2,0,0.3,0.1,0.3,0.3c0,0.3-0.1,0.5-0.4,0.6c-1,0.3-2,0.5-2.9,0.8c0.1,0.4,0.1,0.8,0.1,1.2c0,0.9-0.2,1.5-0.5,1.9
		c-0.3,0.4-0.8,0.8-1.4,1c-0.5,0.2-1.1,0.2-1.6,0.2c-0.4,0-0.7-0.1-1-0.4c-0.2-0.3-0.3-0.6-0.3-0.9c0-0.2,0.2-0.3,0.5-0.3
		c1,0,1.7-0.1,2.1-0.2c0.4-0.1,0.6-0.3,0.7-0.5c0.1-0.2,0.2-0.5,0.2-0.9c0-0.3,0-0.6,0-0.8c-2.1,0.6-4,1.3-5.9,2
		c-0.4,0-0.6-0.2-0.6-0.5c0-0.3,0.1-0.5,0.2-0.7c0.1-0.3,0.4-0.5,0.9-0.6c2-0.5,3.7-1,5.1-1.3c0,0,0-0.1,0-0.1
		c-0.2-0.4-0.5-0.8-0.9-1.1c-0.1-0.1-0.2-0.1-0.2-0.2c0-0.4,0.2-0.6,0.5-0.6c0.1,0,0.2,0.1,0.5,0.3c0,0,0,0,0,0l1.7-1.5
		c0-0.1-0.2-0.2-0.5-0.2c-0.5,0-1,0-1.4,0c-1.4,1.5-2.9,2.6-4.7,3.5c-0.5,0.3-0.9,0.4-1.2,0.4c-0.5,0-0.9-0.2-1.2-0.5
		c-0.3-0.3-0.4-0.5-0.4-0.9c0-0.2,0.1-0.3,0.4-0.3c1.9-0.4,3.5-1,4.6-1.8c0.2-0.1,0.4-0.3,0.6-0.5c-1,0-1.9,0.1-2.8,0.1
		c-0.4,0-0.7-0.1-0.7-0.4c0-0.2,0.1-0.4,0.3-0.5c0.2-0.1,0.4-0.2,0.7-0.2c1.4,0,2.6,0,3.7,0c0.4-0.4,0.8-0.8,1.1-1.2
		c0,0,0.1,0,0.1-0.1c-0.5,0-1,0-1.6,0c-1.9,0-3.2,0.1-4,0.2c-0.5,0.1-0.8,0.2-0.9,0.2c-0.4,0-0.7-0.3-0.7-0.7c0-0.2,0.1-0.4,0.4-0.6
		c0.2-0.1,0.5-0.2,0.8-0.2h4.3l0-1.8c-1.1,0-1.9,0-2.4,0.1c-0.3,0.1-0.5,0.1-0.6,0.1c-0.4,0-0.6-0.3-0.7-0.7c0-0.2,0.1-0.4,0.4-0.6
		C283.4,32.4,283.7,32.4,284,32.4z M289.3,35.3c0.4-0.6,0.9-1.3,1.3-2.1c0,0,0,0.1,0,0.1c-0.2,0.2-0.5,0.3-0.8,0.3
		c-0.1,0-0.5,0-1.1-0.1c-0.3,0-0.5,0-0.8,0l-0.1,1.8H289.3z M298.2,36.4c0.4,0,0.6,0.2,0.6,0.6c0,0.5-0.1,1.2-0.2,2.2
		c-0.2,1.2-0.4,2.3-0.9,3.3c1,0.9,1.9,1.5,2.5,1.9c0.7,0.4,1.4,0.6,1.8,0.6c0.2,0,0.3,0.1,0.3,0.3c0,0.5-0.3,0.9-0.8,1.4
		c-0.3,0.3-0.6,0.4-1,0.4c-0.2,0-0.4-0.1-0.6-0.2c-0.3-0.2-1.1-1.1-2.4-2.6c-0.2-0.2-0.4-0.5-0.6-0.7c-0.8,1.2-1.8,2.1-2.8,2.7
		c-0.6,0.4-1,0.6-1.4,0.6c-0.3,0-0.6-0.2-0.9-0.4c-0.2-0.2-0.3-0.4-0.3-0.6c0-0.2,0.1-0.3,0.2-0.4c1.9-0.7,3.2-1.5,4.1-2.5
		c0.1-0.1,0.2-0.2,0.2-0.3c-0.6-0.7-1.1-1.2-1.4-1.5c-0.4-0.4-0.8-0.6-1.3-0.8c-0.4-0.1-0.7-0.3-0.7-0.6c0-0.5,0.3-0.7,0.7-0.7
		c0.1,0,0.3,0.1,0.5,0.3c1.1,0.8,2,1.6,2.8,2.4c0.3-0.6,0.5-1.3,0.6-2c0.1-0.6,0.2-1.2,0.2-1.8v-0.8
		C297.6,36.6,297.8,36.4,298.2,36.4z M295.5,30.5c0.6,0,0.8,0.3,0.8,0.8c0,0.6-0.2,1.6-0.6,2.8c0,0,0,0,0,0h5.6
		c0.2,0,0.4,0.1,0.4,0.2c0,0.3-0.1,0.6-0.3,0.9c-0.2,0.2-0.5,0.4-0.8,0.4c-0.1,0-0.4-0.1-0.9-0.2c-0.5,0-1-0.1-1.6-0.1
		c-1.1,0-1.8,0-2.3,0.1c-0.3,0.1-0.4,0.1-0.5,0.1c0,0,0,0-0.1,0c-0.2,0.6-0.5,1-0.6,1.3c-0.3,0.4-0.6,0.6-1,0.6
		c-0.3,0-0.5-0.1-0.5-0.4c0-0.1,0.1-0.2,0.2-0.4c1.1-1.9,1.6-3.8,1.7-5.6C294.9,30.7,295.1,30.5,295.5,30.5z"/>
	<path class="st0" d="M317.1,29.9c0.6,0,0.8,0.3,0.8,0.9c-0.1,0.4-0.2,0.8-0.2,1.1c1.2,0,2.6,0.1,4.2,0.3c1.5,0.1,2.8,0.2,3.8,0.2
		c0.5,0,1.2-0.1,1.9-0.2c0.1,0,0.2,0.2,0.2,0.5c0,0.5-0.2,1-0.6,1.6c-0.3,0.4-0.6,0.6-0.8,0.6c-0.4,0-1-0.2-1.7-0.5
		c-1.1-0.5-2.2-0.8-3.5-1c-1.4-0.2-2.9-0.3-4.5-0.3c-0.2,0-0.4,0-0.6,0c0,0.1,0,0.2,0,0.3c0,0,0,0.1-0.1,0.2c-0.4,0.5-0.8,1-1,1.3
		c-0.2,0.2-0.5,0.5-0.8,0.8c0,0.1,0.1,0.2,0.4,0.2h5.4c0.2,0,0.4-0.1,0.4-0.3c0,0,0,0,0-0.1c-0.2-0.3-0.5-0.6-0.8-1
		c0,0-0.1-0.1-0.1-0.1c0-0.4,0.2-0.6,0.7-0.6c0.1,0,0.2,0,0.2,0.1c0.5,0.6,1.1,1.3,1.7,2.2c0.1,0.1,0.1,0.2,0.1,0.3
		c0,0.4-0.2,0.6-0.6,0.6h-6.9c-0.5,0-1,0-1.7,0.1c-0.6,0-0.8-0.2-0.8-0.6c0-0.2,0.1-0.4,0.3-0.6c0.2-0.2,0.4-0.3,0.6-0.5
		c0.3-0.2,0.5-0.5,0.8-0.8c0.3-0.4,0.6-0.8,0.9-1.3c-1,0-2,0.1-2.9,0.2c-1,0.1-2.4,0.5-4.3,1.3c-0.6,0-0.8-0.2-0.8-0.7
		c0-0.3,0.1-0.5,0.4-0.7c0.3-0.3,0.7-0.5,1.1-0.5c3.6-0.5,6.3-0.8,8.3-0.8c0-0.4-0.1-0.7-0.2-1.1C316.2,30.2,316.5,29.9,317.1,29.9z
		 M313,37.9c0.3,0,0.5,0.1,0.6,0.2l6.3,0.1c0.2,0,0.5-0.1,1-0.2c0.6,0,0.8,0.2,0.8,0.6c-0.3,1-0.4,2.3-0.4,3.8
		c0,0.9,0.1,2.3,0.2,4.1c0,0.6-0.2,0.9-0.7,0.9c-0.2,0-0.4-0.1-0.5-0.3c-0.1-0.3-0.1-0.7-0.1-1.2c0-0.5,0-1,0-1.4
		c-2.8,0-5,0.1-6.6,0.2c0,0-0.1,0-0.1,0c-0.2,0.5-0.4,1-0.7,1.3c-0.8,0.8-1.5,1.2-2.2,1.2c-0.4,0-0.8-0.2-1.2-0.7
		c-0.2-0.3-0.3-0.6-0.3-0.8c0-0.1,0.1-0.2,0.4-0.2c1-0.1,1.9-0.5,2.5-1.2c0.4-0.5,0.7-1.6,0.7-3.1c0-0.8-0.1-1.6-0.3-2.5
		C312.3,38.1,312.5,37.9,313,37.9z M313.8,43.5h6.5c0-0.6,0-1.2,0-1.7c-2.7,0-4.8,0.1-6.3,0.2c0,0-0.1,0-0.1,0
		C313.9,42.6,313.9,43.1,313.8,43.5z M313.9,40.9c0,0,0.1,0,0.1,0h6.2c0,0,0.1,0,0.1,0c0-0.6,0.1-1.1,0.1-1.5c0-0.1-0.2-0.2-0.6-0.2
		c-2.2,0-4.1,0-5.9,0.1C314,39.9,313.9,40.4,313.9,40.9z"/>
	<path class="st0" d="M348.7,36.2c0,0.3-0.3,0.6-0.9,1c-1.4,0.9-3.4,2-6,3.4c0,0.1,0,0.4,0,0.8c0,0.3,0,0.6,0,0.8
		c0,0.5-0.3,0.7-0.8,0.7c-0.3,0-0.5-0.2-0.6-0.6c0-0.1,0-0.4,0-1c-1,0.5-1.6,0.8-1.9,1.1c-0.8,0.6-1.2,1.1-1.2,1.7
		c0,0.4,0.4,0.6,1.2,0.8c0.6,0.1,1.2,0.2,1.8,0.2c1.7,0,3.3-0.3,4.7-0.8c1.1-0.4,1.6-0.6,1.7-0.6c0.1,0,0.2,0.1,0.2,0.4
		c0,0.5-0.2,1-0.5,1.5c-0.2,0.4-0.9,0.6-1.9,0.8c-0.8,0.1-1.7,0.1-2.7,0.1c-1.3,0-2.4-0.1-3.4-0.4c-1.5-0.4-2.2-1.1-2.2-2
		c0-0.8,0.6-1.6,1.7-2.4c0.2-0.2,1.1-0.7,2.6-1.7c0-0.9-0.1-1.4-0.1-1.6c-0.2-0.6-0.6-0.9-1.2-0.9c-0.9,0-1.6,0.2-2.2,0.5
		c-0.3,0.1-0.9,0.6-1.9,1.4c-0.1,0.1-0.3,0.2-0.5,0.3c-0.4,0-0.7-0.3-0.7-0.9c0-0.4,0.5-0.9,1.4-1.4c1.3-0.8,2.5-1.8,3.5-3.2
		c-0.5,0.1-1.3,0.2-2.3,0.3c0,0-0.3,0.1-0.9,0.2c-0.4,0.1-0.7,0.2-0.9,0.2c-0.4,0-0.6-0.2-0.6-0.7c0-0.6,0.5-0.9,1.4-1
		c0.9,0,2.2-0.1,3.9-0.1c0.2-0.3,0.5-0.9,0.9-1.9c0.2-0.5,0.5-0.7,0.9-0.7c0.5,0,0.8,0.2,0.8,0.7c0,0.2-0.3,0.8-1,1.9
		c0.5,0,1.2,0,2.3,0c1,0,1.8,0,2.3,0c0.1,0,0.3,0,0.6,0c0.2,0,0.4-0.1,0.6-0.1c0.1,0,0.2,0.1,0.3,0.2c0,0.3-0.2,0.6-0.5,1
		c-0.3,0.4-0.6,0.6-0.9,0.6c-0.3,0-0.6-0.1-0.9-0.2c-0.3-0.1-0.6-0.1-0.9-0.2c-0.7-0.2-1.8-0.3-3.3-0.3c-0.8,1-1.5,1.9-2.2,2.6
		c0.6-0.1,1.1-0.1,1.6-0.1c1.3,0,2.1,0.8,2.2,2.3c0,0.2,0,0.3,0.1,0.4c2.1-1.3,3.9-2.4,5.2-3.3c0.4-0.3,0.8-0.4,1.1-0.4
		C348.5,35.5,348.7,35.7,348.7,36.2z"/>
	<path class="st0" d="M357.1,36.8l2.5,0.1c0.3,0,0.6,0,1-0.1c0.4,0,0.6,0.2,0.6,0.7c-0.2,0.7-0.4,1.2-0.4,1.7
		c-0.2,1.1-0.6,2.1-1.1,3c-0.5,1.1-1.3,2-2.2,2.7c-0.6,0.4-1,0.6-1.4,0.6c-0.4,0-0.9-0.2-1.3-0.5c-0.4-0.3-0.6-0.6-0.6-0.9
		c0-0.2,0.2-0.3,0.5-0.4c1-0.2,1.8-0.5,2.4-0.9c0.5-0.4,1-0.9,1.5-1.7c0.4-0.6,0.7-1.5,1-2.8c0-0.2-0.1-0.3-0.2-0.4
		c-0.3-0.1-0.6-0.1-0.8-0.1c-1.1,0-2.1,0.2-3,0.5c-0.4,0-0.6-0.2-0.6-0.6c0-0.4,0.2-0.6,0.6-0.8C356,36.8,356.5,36.8,357.1,36.8z
		 M360.3,31.1h0.5c1.1-0.1,2-0.2,2.9-0.2c1.3,0,2.7,0,4.2,0.1c0.3,0,0.6,0,0.8-0.1c0.5,0,0.7,0.2,0.7,0.7c0,0.2-0.2,0.4-0.5,0.6
		c-0.2,0.1-0.7,0.5-1.5,1.1c-0.7,0.5-1.4,1.1-2.1,1.7c-0.2,0.2-0.4,0.3-0.5,0.3c0.3,0.4,0.5,0.8,0.7,1.2h1.3c0.4,0,0.6,0.2,0.6,0.6
		c0,0.3-0.2,0.4-0.6,0.4c-0.4,0-0.7,0-1.1,0c0.1,0.5,0.3,1,0.3,1.5h1.3c0.4,0,0.6,0.2,0.6,0.6c0,0.3-0.2,0.5-0.6,0.5
		c-0.4,0-0.8,0-1.2,0c0,0.5,0.1,1.1,0.1,1.7h2.8c0.2,0,0.4,0.1,0.4,0.3c0,0.3-0.1,0.6-0.3,0.8c-0.2,0.2-0.5,0.3-0.8,0.3
		c-0.2,0-0.6-0.1-1.3-0.2c-0.3,0-0.5,0-0.8,0c-0.1,0.9-0.3,1.7-0.5,2.3c-0.4,0.8-0.9,1.3-1.7,1.7c-0.6,0.3-1.2,0.4-1.8,0.4
		c-0.4,0-0.8-0.1-1-0.4c-0.3-0.3-0.4-0.6-0.4-1c0-0.2,0.2-0.4,0.5-0.4c1.2,0,2-0.2,2.5-0.5c0.4-0.3,0.7-0.7,0.8-1.2
		c0.1-0.3,0.1-0.6,0.2-0.9c-1.3,0-2.3,0.1-2.9,0.2c-0.4,0.1-0.6,0.2-0.7,0.2c-0.5,0-0.7-0.2-0.7-0.6c0-0.2,0.1-0.4,0.4-0.6
		c0.2-0.1,0.5-0.2,0.8-0.2h3.2c0-0.6,0-1.1,0-1.7c-1,0-1.8,0.1-2.5,0.1c-0.5,0-0.7-0.2-0.7-0.6c0-0.4,0.3-0.7,0.9-0.7h2.2
		c-0.1-0.5-0.2-1-0.3-1.4c-0.7,0-1.2,0.1-1.7,0.1c-0.5,0-0.8-0.2-0.8-0.5c0-0.4,0.3-0.6,0.8-0.6h1.3c-0.2-0.5-0.5-1-0.9-1.4
		c-0.2-0.1-0.2-0.3-0.2-0.5c0-0.4,0.2-0.7,0.5-0.7c0.1,0,0.3,0.2,0.6,0.5c0,0,0.1,0.1,0.1,0.1c0-0.1,0.1-0.1,0.2-0.2
		c0.3-0.3,1-0.9,2.1-1.7c0.2-0.1,0.2-0.2,0.2-0.2c0-0.1-0.2-0.2-0.6-0.2c-1.6,0-3,0-4.1,0.1c-0.5,0.1-1.2,0.2-2,0.3
		c-0.5,0-0.7-0.2-0.7-0.5c0-0.2,0.1-0.4,0.3-0.7C359.9,31.2,360.1,31.1,360.3,31.1z M372.4,35.1c0.6,0,0.8,0.3,0.8,0.8
		c0,0.3-0.2,0.5-0.5,0.7c-0.7,0.4-1.6,0.8-2.7,1.2c-0.1,0-0.2,0.1-0.2,0.1c0.1,0.1,0.2,0.3,0.3,0.5c2.1,2.9,3.4,4.6,3.9,4.9
		c0.3,0.2,0.7,0.3,1.2,0.5c0.3,0,0.5,0.1,0.5,0.4c0,0.3-0.2,0.6-0.7,0.9c-0.5,0.3-1,0.5-1.5,0.5c-0.4,0-0.7-0.1-1-0.4
		c-0.7-1.6-1.5-3.3-2.4-4.9c-0.4-0.7-0.7-1.2-1-1.5c-0.1-0.1-0.2-0.2-0.2-0.4c0,0-0.1,0-0.1,0c-0.4,0-0.7-0.2-0.7-0.5
		c0-0.2,0.1-0.4,0.4-0.5c1.6-0.8,2.8-1.5,3.7-2.1C372.2,35.1,372.3,35.1,372.4,35.1z"/>
	<path class="st0" d="M392.5,37.8c0,1.5-0.4,2.9-1.2,4.4c-0.8,1.5-1.8,2.6-3.1,3.4c-1.2,0.8-2.2,1.2-3,1.2c-0.4,0-0.8-0.2-1.2-0.6
		c-0.5-0.4-0.7-0.8-0.7-1.2c0-0.2,0.4-0.3,1.1-0.3c1.9-0.1,3.5-0.8,4.8-2c1.5-1.4,2.2-3.1,2.2-5.4c0-3-0.7-4.6-2.2-4.6
		c-0.7,0-1.4,0.4-2.1,1.1c-0.5,0.6-0.9,1.2-1.3,2c-0.5,1.1-0.9,2.5-1,4c0,0.7-0.3,1-0.7,1c-0.9,0-1.3-1.6-1.3-4.7
		c0-1.1,0.1-2.2,0.3-3.3c0.3-1.6,0.7-2.4,1.2-2.4c0.4,0,0.6,0.3,0.6,0.9c0,0-0.1,0.5-0.3,1.5c-0.3,1.2-0.4,2.7-0.5,4.6
		c0.6-1.6,1.2-2.9,1.8-3.7c1-1.3,2.1-1.9,3.5-1.9c1.2,0,2.1,0.7,2.7,2.2C392.3,35,392.5,36.3,392.5,37.8z"/>
	<path class="st0" d="M416.8,44.2c-0.1,0.3-0.3,0.7-0.8,1.2c-0.4,0.5-0.8,0.8-1.1,0.8c-0.4,0-1-0.3-2-0.9c-0.6-0.4-1.2-0.8-1.7-1.2
		c-0.5-0.3-1.1-0.6-2-0.9c-0.2,2-1.4,3-3.7,3c-0.9,0-1.6-0.2-2.3-0.6c-0.8-0.4-1.2-1.1-1.2-1.9c0-0.9,0.4-1.5,1.3-1.9
		c0.7-0.3,1.5-0.5,2.4-0.5c0.6,0,1.4,0.1,2.2,0.3c0-0.4,0-0.9,0-1.5c0-0.8,0-1.3,0-1.5c0,0,0,0,0-0.1c0-0.1,0-0.1,0-0.1
		c-1.6,0.1-2.9,0.2-3.9,0.4c-0.1,0-0.2,0-0.4,0.1c-0.2,0.1-0.3,0.1-0.4,0.1c-0.4,0-0.6-0.2-0.6-0.7c0-0.5,0.4-0.9,1.3-0.9
		c0.7-0.1,2-0.2,3.8-0.2c0-0.8,0-1.8,0-3c-1.3,0-2.1,0.1-2.3,0.1c-0.9,0.1-1.6,0.2-2.3,0.3c-0.6,0.2-0.9,0.2-1,0.2
		c-0.5,0-0.8-0.3-0.8-0.9c0-0.2,0.1-0.4,0.2-0.5c0.2-0.2,2.2-0.3,6.1-0.3c0-1.1-0.1-1.8-0.1-1.9c0-0.6,0.3-0.9,0.8-0.9
		c0.6,0,0.9,0.3,0.9,0.9c0,0.5,0,1.2-0.1,1.9c2.9,0.1,4.9,0.2,5.8,0.2c0.4,0,0.5,0.1,0.5,0.2c0,0.3-0.1,0.6-0.4,1
		c-0.3,0.4-0.5,0.6-0.7,0.6c0.1,0-0.3-0.1-1.2-0.4c-0.9-0.2-2.2-0.4-4.1-0.5c0,1,0,2,0,2.9c1.8,0,3.4,0.1,4.8,0.3
		c0.1,0,0.2,0,0.3,0.1c0,0,0.1,0.1,0.1,0.2c0,0.3-0.1,0.5-0.3,0.8c-0.2,0.3-0.4,0.5-0.6,0.5c0,0-0.6-0.1-1.5-0.3
		c-0.8-0.2-1.8-0.2-2.9-0.3c0,0.2,0,1.3-0.1,3.6c1.5,0.4,2.9,0.9,4.2,1.4c0.9,0.3,1.8,0.5,2.8,0.6C416.6,43.9,416.8,44,416.8,44.2z
		 M408,42.7c-1-0.3-1.8-0.4-2.4-0.4c-1.6,0-2.5,0.5-2.5,1.4c0,0.4,0.3,0.8,0.9,1c0.4,0.2,0.9,0.3,1.4,0.3c0.8,0,1.4-0.2,1.8-0.6
		C407.6,44.1,407.8,43.5,408,42.7z"/>
	<path class="st0" d="M440.8,34.3c-0.1,0.3-0.3,0.8-0.7,1.2c-0.4,0.5-0.8,0.8-1.1,0.8c-0.3-0.1-0.8-0.3-1.4-0.6
		c-1.3-0.5-2.8-0.8-4.4-0.9c0,0.9,0,2.2-0.1,4c0.4,1.1,0.6,1.9,0.6,2.4c0,1-0.3,1.9-1,2.8c-0.6,0.8-1.4,1.5-2.3,1.9
		c-1.1,0.6-2,0.8-2.7,0.8c-0.4,0-0.8-0.2-1.2-0.6c-0.4-0.4-0.6-0.8-0.6-1.2c0-0.1,0.2-0.2,0.7-0.3c1.4-0.1,2.4-0.2,3-0.4
		c1.1-0.3,1.9-0.9,2.4-1.8c0.3-0.6,0.5-1.1,0.5-1.5c0,0,0-0.1,0-0.1c0-0.1,0-0.2,0-0.2c-0.3,0.5-0.7,0.9-1.3,1.2
		c-0.6,0.3-1.2,0.5-1.7,0.5c-0.8,0-1.5-0.3-2.2-0.8c-0.6-0.5-1-1.2-1-1.9c0-0.9,0.4-1.5,1.1-2c0.6-0.4,1.4-0.6,2.3-0.6
		c0.7,0,1.3,0.2,2.1,0.6c0-0.4,0-1.3,0-2.8c-2.4,0-4.5,0.3-6.5,0.9c-1.1,0.4-1.7,0.6-1.8,0.6c-0.5,0-0.8-0.3-0.8-0.9
		c0-0.5,0.6-0.9,1.9-1.2c0.8-0.1,1.6-0.2,2.4-0.3c1.4-0.2,3-0.3,4.8-0.3c-0.1-1.5-0.1-2.3-0.1-2.4c0-0.7,0.2-1,0.7-1
		c0.6,0,0.8,0.4,0.8,1.3c0,0.2,0,0.6,0,1.1c0,0.4,0,0.8,0,1c2.7,0.2,5.1,0.3,7.1,0.3C440.6,34.1,440.7,34.2,440.8,34.3z M431.9,39
		c-0.5-0.7-1.2-1-2-1c-0.5,0-1,0.1-1.5,0.4c-0.5,0.3-0.7,0.7-0.7,1.2c0,0.5,0.2,0.9,0.5,1.2c0.4,0.3,0.8,0.4,1.3,0.4
		C430.9,41.2,431.7,40.5,431.9,39z"/>
	<path class="st0" d="M452.3,44.8c0,0.8-0.3,1.5-0.8,2c-0.5,0.5-1.2,0.8-2,0.8c-0.8,0-1.5-0.3-2-0.8c-0.6-0.6-0.8-1.2-0.8-2
		s0.3-1.5,0.8-2c0.6-0.6,1.2-0.9,2-0.9c0.8,0,1.5,0.3,2,0.9C452.1,43.4,452.3,44,452.3,44.8z M451.4,44.8c0-0.5-0.2-1-0.6-1.4
		c-0.4-0.4-0.8-0.6-1.4-0.6c-0.5,0-1,0.2-1.4,0.6c-0.4,0.4-0.6,0.9-0.6,1.4s0.2,1,0.6,1.4c0.4,0.4,0.9,0.6,1.4,0.6
		c0.5,0,1-0.2,1.4-0.6C451.2,45.8,451.4,45.4,451.4,44.8z"/>
</g>
</svg>
