<?xml version="1.0" encoding="utf-8"?>
<!-- Generator: Adobe Illustrator 24.0.3, SVG Export Plug-In . SVG Version: 6.00 Build 0)  -->
<svg version="1.1" id="レイヤー_1" xmlns="http://www.w3.org/2000/svg" xmlns:xlink="http://www.w3.org/1999/xlink" x="0px"
	 y="0px" viewBox="0 0 835.8 20.5" style="enable-background:new 0 0 835.8 20.5;" xml:space="preserve">
<style type="text/css">
	.st0{fill:#503819;}
</style>
<g>
	<path class="st0" d="M0.3,3.3c0.5,0.1,0.8,0.1,1.1,0.1c1.1,0,2.5-0.4,4.3-1.3C5.9,2.1,6,2.2,6,2.4c0,0.3-0.6,1-1.7,1.9
		c-1.1,1-2.1,1.5-2.9,1.5c-0.4,0-0.7-0.2-1-0.5C0.2,4.8,0,4.3,0,3.7C0,3.4,0.1,3.3,0.3,3.3z M11.1,0.7c0.7,0,1.1,0.3,1.1,1L12,8.2
		l5.4,0.1c0.3,0,0.7,0,1.3-0.1c0.7,0,1.1,0.3,1.1,0.8c-0.3,2.6-0.4,5.4-0.4,8.4c0,0.7-0.4,1-1,1c-1.8-0.1-4.1-0.2-7-0.2
		c-3,0-5.6,0.1-7.9,0.3c-0.5,0-0.8-0.2-0.8-0.6c0-0.5,0.2-0.9,0.5-1c1.5-0.1,3.8-0.2,6.8-0.2c1.8,0,4.2,0,7.2,0.1
		c0.4,0,0.6-0.3,0.6-1c0-0.7,0-1.4,0-2c0,0,0,0-0.1,0c-6,0-10.7,0.1-14.1,0.2c-0.6,0-0.9-0.2-0.9-0.6c0-0.5,0.4-0.8,1.1-0.8h13.9
		c0,0,0,0,0.1,0c0-0.9,0-1.7,0.1-2.4c0-0.3-0.2-0.4-0.6-0.4c-1.1-0.1-3.2-0.1-6.1-0.1c-2.3,0-4.9,0.1-7.8,0.3
		c-0.4,0-0.6-0.2-0.6-0.7c0-0.6,0.3-0.9,0.8-1l6.7-0.1l-0.2-6.6C10.2,1,10.5,0.7,11.1,0.7z M16.5,2c0,0,0.1,0,0.2,0.1
		C18,2.8,19,3.3,19.8,3.5c0.5,0.2,1.2,0.3,2.1,0.3c0.2,0,0.3,0.1,0.3,0.3c0,0.4-0.2,0.7-0.6,1c-0.8,0.5-1.4,0.7-1.8,0.7
		c-0.2,0-0.5-0.1-0.6-0.3c-0.4-0.3-1.3-1.2-2.8-2.9c-0.1-0.1-0.2-0.3-0.2-0.4C16.2,2.1,16.3,2,16.5,2z"/>
	<path class="st0" d="M27.9,0.7c0.3,0,0.6,0,0.8,0.1C29,0.8,29.4,0.9,30,0.9h8.8c2,0,4.3,0,7.1,0.1c0.3,0,0.7-0.1,1.1-0.2
		c0.6,0,0.9,0.3,0.9,1c0,0,0,0.2-0.1,0.5c-0.1,0.5-0.2,1.6-0.3,3.1c-0.1,1.9-0.1,4-0.1,6.2c0,1.7,0,4,0.1,6.9c0,0.7-0.3,1-0.8,1
		c-3.5-0.1-6.6-0.2-9.4-0.2c-3.5,0-5.7,0-6.6,0.1c-0.8,0-1.7,0.1-2.9,0.3c-0.5,0-0.8-0.3-0.8-0.9c0.1-3,0.2-5.7,0.2-8
		c0-2.5-0.1-5.5-0.2-9.1C27,1,27.3,0.7,27.9,0.7z M37.3,17.7c2.4,0,5.1,0,8.1,0.1c0.3,0,0.4-0.1,0.4-0.4c0-6.8,0-11.7,0.1-14.6
		c0-0.2-0.1-0.3-0.4-0.3c-3.7-0.1-9-0.1-16-0.1c-0.4,0-0.5,0.2-0.5,0.6c0,5.1-0.1,9.8-0.2,14.3c0,0.4,0.2,0.7,0.6,0.7
		C31.7,17.8,34.3,17.7,37.3,17.7z M31.4,6c0.2,0,0.4,0,0.5,0.1c1.9-0.2,3.7-0.3,5.2-0.3c0.6,0,1.4,0,2.3,0.1c0-0.7,0-1.2,0-1.5
		c0-0.7,0.3-1.1,0.9-1.1c0.6,0,0.9,0.3,0.9,0.9c0,0.1,0,0.3-0.1,0.6C41,5.2,40.9,5.6,40.9,6c0.1,0,0.3,0,0.4,0c0.3,0,0.6,0,0.9,0
		s0.6,0,1.1-0.1c0.4-0.1,0.7-0.2,0.8-0.2c0.2,0,0.3,0.1,0.3,0.2c0,0.4-0.2,0.9-0.6,1.5c-0.4,0.5-0.8,0.8-1.2,0.8
		c-0.2,0-0.6-0.1-1.2-0.3c-0.2-0.1-0.3-0.1-0.5-0.2c0.1,2.1,0.1,3.8,0.1,5c0,1.7-0.5,2.8-1.6,3.2c-0.7,0.3-1.3,0.4-1.8,0.4
		c-0.4,0-0.7-0.1-1-0.4c-0.3-0.3-0.5-0.7-0.5-1.1c0-0.2,0.1-0.4,0.4-0.4c1.1-0.1,1.8-0.3,2.2-0.5c0.4-0.2,0.6-0.5,0.7-1
		c0.1-0.4,0.2-1.2,0.2-2.4c0-1.1,0-2.2-0.1-3.3c-0.7-0.1-1.5-0.2-2.4-0.2c-2.4,0-4,0.1-4.9,0.4c-0.4,0.2-0.8,0.2-1.1,0.2
		c-0.4,0-0.6-0.2-0.6-0.6c0-0.3,0.1-0.6,0.3-0.8C30.9,6.1,31.2,6,31.4,6z M35.7,9.9c0.2,0,0.3,0.1,0.3,0.3c0,0.2-0.1,0.4-0.2,0.6
		c-1.9,1.8-3,2.7-3.3,2.7c-0.7,0-1-0.2-1-0.6c0-0.5,0.1-0.8,0.3-1C31.8,11.8,33.1,11.1,35.7,9.9z"/>
	<path class="st0" d="M59.3,0.3c0.4,0,0.6,0.2,0.6,0.5c0,0.3-0.1,0.5-0.2,0.8c-0.7,1-1.5,1.9-2.4,2.8c0.2,0.2,0.3,0.5,0.3,0.9
		c-0.1,1.5-0.1,2.9-0.1,4.2l0.1,8.6c0,1.2-0.3,1.7-1,1.7c-0.5,0-0.8-0.6-0.8-1.7c0.1-3.7,0.1-6.5,0.1-8.6c0-1.1,0-2.4-0.1-3.8
		c-0.2,0.2-0.5,0.4-0.7,0.6c-0.7,0.6-1.3,0.8-1.7,0.8c-0.4,0-0.8-0.2-1.2-0.5c-0.4-0.3-0.6-0.7-0.6-1c0-0.3,0.2-0.4,0.6-0.4
		c1.3-0.3,2.4-0.9,3.5-1.6c1.2-0.7,2.2-1.8,3.2-3.1C59,0.4,59.2,0.3,59.3,0.3z M61.8,4.9h4.7c0-1.1-0.1-2.2-0.1-3.5
		c0-0.7,0.3-1.1,0.9-1.1s0.9,0.4,0.9,1.1c0,1.3-0.1,2.4-0.1,3.5h5.9c0.3,0,0.4,0.1,0.4,0.3c0,0.3-0.1,0.6-0.3,0.9
		c-0.3,0.2-0.6,0.4-1,0.4c-0.3,0-1-0.1-2.1-0.2C70,6.3,69,6.3,68,6.3c0.2,0.1,0.6,0.4,1,1c3.2,3.4,5.2,5.3,6,5.7
		c0.5,0.2,1.1,0.4,1.8,0.5c0.4,0,0.5,0.1,0.5,0.4c0,0.4-0.3,0.7-0.8,1.1c-0.6,0.4-1.1,0.6-1.8,0.6c-0.4,0-0.8-0.1-1.2-0.4
		c-1.3-1.9-2.7-3.8-4.3-5.7c-0.5-0.5-0.9-1-1.3-1.3l0.1,6.6h3.6c0.2,0,0.3,0.1,0.3,0.2c0,0.3-0.1,0.6-0.3,0.8
		c-0.2,0.2-0.5,0.4-0.9,0.4c-0.2,0-0.6,0-1.3-0.1c-0.4,0-0.8,0-1.3,0l0,2.2c0,1.2-0.3,1.7-1,1.7c-0.5,0-0.8-0.6-0.8-1.7
		c0-0.8,0-1.5,0-2.2c-1.2,0-2,0.1-2.5,0.2c-0.4,0.1-0.6,0.1-0.7,0.1c-0.5,0-0.7-0.3-0.8-0.8c0-0.2,0.2-0.5,0.4-0.7
		c0.2-0.1,0.5-0.2,0.9-0.2h2.7c0-2.6,0-4.7,0-6.6c-1.1,2.1-2,3.6-2.7,4.3c-1,1.1-2,2.1-3.3,2.8c-0.3,0.2-0.6,0.3-0.8,0.3
		c-0.5,0-1-0.2-1.3-0.5c-0.3-0.3-0.5-0.6-0.5-0.9c0-0.2,0.1-0.3,0.4-0.3c1.3-0.3,2.4-0.8,3.2-1.4c0.7-0.5,1.4-1.2,2-2
		c0.7-0.9,1.5-2.3,2.4-4.1c-1.7,0-2.9,0.1-3.7,0.3c-0.6,0.2-0.9,0.3-1.1,0.3c-0.6,0-0.9-0.3-1-0.9c0-0.3,0.2-0.5,0.5-0.8
		C61,5,61.3,4.9,61.8,4.9z"/>
	<path class="st0" d="M102.2,4.8c0,0.4-0.2,0.8-0.6,1.3c-0.4,0.5-0.7,0.8-1.1,0.8c-0.4,0-1-0.1-1.8-0.4c-1-0.3-2.4-0.5-4-0.6
		c0,0.8,0.1,2.1,0.1,4.1c0.1,1.7,0.1,3.1,0.1,4.1c0,1.7-0.4,2.9-1.3,3.6c-1,0.8-2,1.3-3.1,1.3c-0.4,0-0.9-0.2-1.4-0.5
		c-0.6-0.3-0.9-0.7-0.9-1.1c0-0.2,0.5-0.3,1.5-0.3c1.1,0,2-0.3,2.4-0.7c0.6-0.4,0.9-1.2,0.9-2.4c0-0.8,0-2,0-3.6c0-1.6,0-2.8,0-3.6
		c-2.8,3.6-5.4,6.1-7.9,7.3c-1.2,0.6-2,0.9-2.5,0.9c-0.4,0-0.8-0.2-1.3-0.5c-0.4-0.4-0.7-0.7-0.7-1.1c0-0.2,0.4-0.4,1.3-0.6
		c2.2-0.5,4.2-1.4,6.2-2.8c1.4-1,2.8-2.4,4.2-4.2c-2.3,0.1-4.1,0.3-5.4,0.5c-0.1,0-0.6,0.1-1.6,0.4C84.7,6.9,84.2,7,84,7
		c-0.4,0-0.6-0.3-0.6-0.8c0-0.4,0.1-0.6,0.3-0.9c0.5-0.5,3.6-0.8,9.4-0.8V1.3c0-0.6,0.3-0.9,0.9-0.9c0.6,0,0.8,0.4,0.8,1.1l0,0.3
		c-0.1,0-0.1,0.4-0.1,1.1c0,0.4,0,0.9,0.1,1.5c0.5,0,1.4,0,2.5,0c0.3,0,0.9,0,1.7,0.1c0.7,0.1,1.3,0.1,1.7,0.1c0.1,0,0.1,0,0.3-0.1
		c0.1-0.1,0.2-0.1,0.3-0.1h0.8C102.1,4.6,102.2,4.7,102.2,4.8z"/>
	<path class="st0" d="M121.3,3.1c0,1.2-0.1,3.2-0.4,6c-0.3,3.6-1.9,6.3-4.6,8.2c-1.8,1.3-3.3,1.9-4.5,1.9c-0.3,0-0.9-0.2-1.6-0.7
		c-0.7-0.5-1-0.9-1-1.2c0-0.2,0.7-0.4,2.1-0.6c2.4-0.4,4.3-1.3,5.8-2.8c1.5-1.5,2.3-4,2.3-7.6c0-0.4,0-1.1-0.1-2
		c0-0.9-0.1-1.5-0.1-2c0-0.6,0.3-0.8,0.9-0.8C120.9,1.6,121.3,2.1,121.3,3.1z M111.4,10.1c0,0.6-0.3,1-0.9,1c-0.7,0-1-0.5-1-1.5V3
		c0-0.8,0.3-1.2,0.9-1.2c0.5,0,0.8,0.6,0.8,1.9c0,0.3,0,0.6,0,1c0,0.3,0,0.6,0,0.6c0,0.5,0,1.3,0.1,2.4
		C111.4,8.8,111.4,9.6,111.4,10.1z"/>
	<path class="st0" d="M134.2,10.1c0,0.2-0.2,0.3-0.6,0.3c-0.8,0-1.9-0.1-3.2-0.4c-0.8-0.2-1.2-0.5-1.2-1c0-0.7,0.3-1.1,1-1.1
		c0.4,0,1.1,0.3,2.2,0.9C133.6,9.4,134.2,9.9,134.2,10.1z M147.7,6.9c0,0.5-0.6,1.4-1.7,2.7c-2.5,2.9-6.1,5.3-10.9,7.2
		c-2.1,0.8-3.4,1.2-3.7,1.2c-0.4,0-0.7-0.1-1-0.4c-0.3-0.3-0.4-0.7-0.4-1.1c0-0.6,0.4-1,1.3-1.1c3.7-0.6,7.1-1.9,10.1-4
		c2.1-1.5,3.8-2.9,5-4.3c0.5-0.6,0.8-0.9,1-0.9C147.6,6.4,147.7,6.5,147.7,6.9z M135.7,6c0,0.2-0.2,0.3-0.5,0.3
		c-0.5,0-1.4-0.3-2.6-0.8c-1.3-0.6-1.9-1-1.9-1.5c0-0.7,0.4-1,1.1-1c0.4,0,0.8,0.2,1.3,0.6C134.9,5,135.7,5.8,135.7,6z M146.3,3.7
		c0,0.2-0.2,0.4-0.6,0.7c-0.3,0.3-0.6,0.4-0.9,0.4c-0.3,0-0.7-0.5-1.3-1.5c-0.6-0.9-0.8-1.5-0.8-1.9c0-0.2,0.1-0.4,0.2-0.4
		c0.1,0,0.3,0.1,0.4,0.3c0.8,1,1.5,1.6,2.3,1.9C146.1,3.4,146.2,3.6,146.3,3.7z M149.8,2.5c0,0.2-0.2,0.4-0.6,0.7
		c-0.3,0.3-0.6,0.5-0.8,0.6c-0.4-0.1-0.9-0.5-1.6-1.3c-0.6-0.8-1-1.4-1-1.7c0-0.1,0.1-0.2,0.2-0.2c0,0,0.4,0.2,1,0.6
		c0.6,0.4,1,0.7,1.1,0.7C148.7,2,149.2,2.2,149.8,2.5z"/>
	<path class="st0" d="M174.2,6.4c0,0.5-0.3,1-0.8,1.7c-0.5,0.7-0.9,1-1.3,1c-0.1,0-0.5-0.1-1.2-0.4c-1.5-0.7-3.7-1-6.4-1
		c0,3.7-1,6.7-2.9,9.2c-1.2,1.5-2.2,2.3-3.1,2.3c-0.4,0-0.8-0.1-1.4-0.4c-0.6-0.3-1-0.7-1-1c0-0.2,0.4-0.5,1.3-0.9
		c1.3-0.6,2.3-1.2,2.9-1.9c1.5-1.6,2.4-4,2.7-7.3c-1,0-2.4,0.1-4.4,0.3c-1,0.2-2.1,0.4-3.2,0.7c-1.2,0.3-1.8,0.5-1.7,0.5
		c-0.5,0-0.7-0.3-0.7-0.9c0-0.5,0.2-0.9,0.5-1.1c0.4-0.3,1.9-0.6,4.4-0.8c1.7-0.1,3.4-0.2,5-0.3c-0.1-1.5-0.2-2.8-0.2-4
		c0-0.5,0.4-0.8,1.1-0.8c0.5,0,0.7,0.5,0.7,1.6L164.5,6c0.9,0,2.3,0.1,4.3,0.3c1.8,0.1,3.2,0.2,4.2,0.2c0.3,0,0.7-0.1,1-0.2
		L174.2,6.4z"/>
	<path class="st0" d="M184.5,4.5c0,1.6-0.2,3.3-0.6,5c-0.5,1.9-1.1,3.4-2,4.6c-0.8,1.1-1.4,1.8-1.9,2.2c-0.7,0.5-1.1,0.8-1.3,0.8
		c-0.3,0-0.7-0.2-1.4-0.7c-0.7-0.4-1-0.8-1-1c0-0.2,0.4-0.5,1.2-0.8c2.3-0.9,3.9-2.7,4.9-5.2c0.4-1.2,0.7-2.9,0.8-5.1
		c0.1-0.7,0.2-1,0.6-1C184.2,3.2,184.5,3.6,184.5,4.5z M198.1,9.2c0,0.2-0.7,1.1-2,2.6c-1,1.1-2.2,2.2-3.6,3.4
		c-1.8,1.5-3.2,2.2-4.1,2.2c-0.7,0-1.1-0.5-1.1-1.4c0-0.7,0-1.7,0.1-3.1c0.1-1.4,0.1-2.4,0.1-3c0-0.8,0-1.9-0.1-3.3
		c-0.1-1.5-0.1-2.6-0.1-3.3c0-0.8,0.4-1.2,1.2-1.2c0.3,0,0.5,0.1,0.6,0.4c0.1,0.2,0.2,0.5,0.2,0.8L189,14.7c0.4,0,1.4-0.5,2.9-1.5
		c1.3-0.9,2.7-2,4.1-3.4c0.9-0.9,1.4-1.3,1.5-1.3C197.8,8.5,198.1,8.7,198.1,9.2z"/>
	<path class="st0" d="M222.1,9.8c0,3.2-1.8,5.7-5.3,7.4c-1.4,0.7-2.5,1-3.3,1c-0.5,0-0.9-0.2-1.4-0.6c-0.5-0.4-0.8-0.8-0.8-1.2
		c0-0.2,0.2-0.3,0.6-0.4c0.3,0,0.8-0.1,1.3-0.2c1.6-0.2,3-0.7,4-1.3c1-0.6,1.7-1.3,2.3-2.2c0.7-1,1-2,1-3.1c0-0.8-0.3-1.7-0.8-2.6
		c-1.1-1.8-3-2.7-5.7-2.7c-0.1,0-0.3,0-0.4,0c-0.2,0-0.3,0-0.4,0c-1,4.8-2.4,8.3-4.2,10.5c-1,1.3-1.9,1.9-2.5,1.9
		c-1,0-1.8-0.7-2.4-2.2c-0.5-1.2-0.8-2.4-0.8-3.5c0-1.8,0.6-3.4,1.8-4.8c1.8-2.2,4.6-3.3,8.4-3.3c2.3,0,4.3,0.6,5.9,1.8
		C221.2,5.7,222.1,7.5,222.1,9.8z M211.5,4.1c-2.4,0.4-4.2,1.3-5.3,2.6c-1.1,1.3-1.6,2.5-1.6,3.7c0,0.7,0.1,1.4,0.4,2.3
		c0.4,1,0.8,1.5,1.4,1.5c0.5,0,1-0.4,1.7-1.2C209.6,11.2,210.7,8.2,211.5,4.1z"/>
	<path class="st0" d="M233.5,1.8c0.4,0,0.6,0.2,0.6,0.6c0,0.3-0.1,0.5-0.2,0.8c-0.4,0.7-0.7,1.4-1.1,2h4.6l-0.1-3.5
		c0-0.7,0.3-1,0.9-1c0.7,0,1.1,0.3,1.1,1l-0.1,3.5h6.5c0.3,0,0.4,0.1,0.4,0.3c0,0.4-0.1,0.7-0.3,0.9c-0.3,0.3-0.6,0.4-1,0.4
		c-0.3,0-1.1-0.1-2.4-0.2c-1-0.1-2.1-0.1-3.3-0.1l-0.1,4h5.6c0.3,0,0.4,0.1,0.4,0.3c0,0.4-0.1,0.7-0.3,0.9c-0.3,0.3-0.6,0.4-1,0.4
		c-0.3,0-1-0.1-2.1-0.3c-0.8,0-1.7-0.1-2.6-0.1l-0.1,4.4c1.5,0.1,3.2,0.2,5.1,0.4c1.7,0.2,3.3,0.3,4.9,0.3c0.4,0,0.9,0,1.3-0.1
		c0.1,0,0.1,0.1,0.1,0.3c0,0.5-0.1,1-0.4,1.6c-0.3,0.6-0.6,0.8-0.9,0.8c-0.4,0-0.9-0.1-1.4-0.3c-1.8-0.7-3.6-1.2-5.2-1.4
		c-1.2-0.2-2.7-0.3-4.5-0.3c-2.1,0-3.8,0.1-5.4,0.4c-1.6,0.4-3.2,0.8-4.8,1.4c-0.5,0.2-0.8,0.3-1.1,0.3c-0.6,0-0.8-0.4-0.9-1
		c0-0.3,0.1-0.6,0.4-0.9c0.3-0.2,0.6-0.4,1-0.4c4.6-0.7,8-1.1,10.2-1.2l-0.1-4.4c-1.9,0-3.3,0.1-4.2,0.3c-0.6,0.2-0.9,0.3-1.1,0.3
		c-0.6,0-0.9-0.3-1-0.9c0-0.3,0.2-0.5,0.5-0.8c0.3-0.1,0.6-0.2,1-0.2h4.7l-0.1-4c-1.9,0-3.2,0.1-4.1,0.3c-0.6,0.2-1,0.3-1.2,0.3
		c-0.2,0-0.4,0-0.5-0.1c-0.3,0.4-0.6,0.8-1,1.2c-0.5,0.6-0.9,0.8-1.3,0.8c-0.4,0-0.8-0.2-1.2-0.5c-0.4-0.3-0.6-0.7-0.6-1
		c0-0.3,0.2-0.4,0.5-0.4c1-0.3,1.8-0.9,2.6-1.7c0.9-0.8,1.7-1.9,2.4-3.2C233.2,1.9,233.4,1.8,233.5,1.8z"/>
	<path class="st0" d="M254,2.1c0.7,0,1.1,0.3,1.1,0.8c0,0.7-0.1,1.5-0.2,2.4c0,0.2,0.1,0.3,0.4,0.3c0.7-0.1,1.6-0.1,2.6-0.1
		c0-1.3,0-2.8-0.1-4.4c0-0.7,0.3-1.1,0.9-1.1s0.9,0.4,0.9,1.1c-0.1,1.6-0.1,3.1-0.1,4.4c0.6,0,1.3,0,2.2,0.1c0.2,0,0.3,0.1,0.3,0.4
		c0,0.3-0.1,0.6-0.3,0.7c-0.2,0.1-0.5,0.2-0.8,0.2c-0.5,0-1-0.1-1.4-0.1l0,3.8c0.8-0.2,1.5-0.4,2-0.5c0.3,0,0.4,0.1,0.4,0.4
		c0,0.4-0.2,0.7-0.5,0.8c-0.7,0.2-1.3,0.5-1.9,0.7l0.1,6c0,1.2-0.3,1.7-1,1.7c-0.5,0-0.8-0.6-0.8-1.7c0-2,0-3.7,0.1-5.3
		c-1.5,0.6-2.9,1.3-4.2,2c-0.6,0-0.9-0.2-0.9-0.7c0-0.4,0.1-0.8,0.2-1c0.1-0.3,0.3-0.5,0.7-0.6c1.6-0.5,3-1,4.2-1.3
		c0-1.6,0-3.1,0-4.3c-0.9,0-1.8,0.1-2.7,0.2c-0.5,0.1-1,0.2-1.4,0.3c-0.2,0.1-0.3,0.1-0.4,0.1c-0.4,0-0.6-0.2-0.6-0.6
		c0-0.1,0.1-0.4,0.4-0.8c0.1-0.4,0.2-0.9,0.2-1.3c0-0.3,0-0.6-0.1-1.1c-0.1-0.5-0.1-0.8-0.1-0.9C253.2,2.3,253.5,2.1,254,2.1z
		 M267.4,0.6c0.4,0,0.7,0.2,0.7,0.5c0,0.2-0.1,0.4-0.2,0.7c-0.3,0.7-0.7,1.5-1.1,2.1c0.7,0,1.6-0.1,2.9-0.1h5.4c0.2,0,0.5-0.1,1-0.2
		c0.7,0,1,0.3,1,1c-0.4,2.4-0.7,4.8-0.8,7.2c-0.2,3.3-0.7,5.5-1.6,6.5c-0.7,0.9-1.6,1.4-2.7,1.4c-0.5,0-0.9-0.2-1.2-0.6
		c-0.2-0.4-0.3-0.7-0.3-1c0-0.3,0.1-0.5,0.4-0.6c1.5-0.1,2.4-0.6,2.8-1.3c0.5-0.7,1-2.9,1.3-6.6c0.2-2.2,0.3-3.6,0.3-4.1
		c0-0.3-0.1-0.4-0.3-0.4H273c0,0,0,0.1,0,0.1L273,5.5c-0.2,0.6-0.4,1.6-0.7,2.9c-0.6,2.2-1.4,4.2-2.5,5.9c-0.6,1.1-1.3,2.1-2.1,2.9
		c-1,0.9-1.7,1.3-2.2,1.3c-0.4,0-0.7-0.2-1.1-0.6c-0.4-0.4-0.5-0.7-0.5-1c0-0.2,0.2-0.4,0.7-0.4c0.8-0.2,1.7-0.8,2.6-1.8
		c1-0.8,1.9-2.3,2.9-4.4c0.7-1.6,1.1-3.3,1.3-5.1c0-0.1,0-0.1,0-0.1h-0.6c-0.5,0-0.9,0-1.4,0l0,0.1c-0.1,0.4-0.3,1.1-0.6,2
		c-0.5,1.5-1.2,2.9-2,4c-0.5,0.8-1.1,1.4-1.7,2c-0.8,0.6-1.4,0.9-1.8,0.9c-0.3,0-0.7-0.2-1-0.6c-0.3-0.4-0.5-0.7-0.5-1
		c0-0.2,0.2-0.3,0.7-0.4c0.7-0.1,1.4-0.5,2.1-1.1c0.8-0.5,1.6-1.4,2.4-2.8c0.5-1,0.9-2,1.1-3.1c-0.2,0-0.5,0-0.7,0.1
		c-0.7,0.1-1.1,0.2-1.2,0.2c-0.1,0-0.2,0-0.3,0c-0.2,0.2-0.3,0.5-0.5,0.7c-0.4,0.5-0.7,0.8-1,0.8c-0.4,0-0.8-0.2-1.1-0.5
		c-0.4-0.3-0.6-0.6-0.6-1c0-0.2,0.2-0.3,0.5-0.3c0.8-0.3,1.5-0.8,2.1-1.6c0.7-0.7,1.3-1.7,1.9-2.9C267.2,0.6,267.3,0.6,267.4,0.6z"
		/>
	<path class="st0" d="M297.2,7c0.5,0,0.7,0.2,0.8,0.7c0,0.2-0.1,0.4-0.3,0.5c-0.1,0-0.1,0.1-0.1,0.1c0.9,0.7,1.8,1.4,2.7,2.1
		c0.3,0,0.5,0.2,0.8,0.3c0.3,0.2,0.4,0.5,0.4,0.8c0,0.4-0.4,0.7-1.3,1.1c-4.3,2.8-8.4,4.9-12.3,6.2c-1.6,0.6-3.3,0.9-5.1,0.9
		c-0.4,0-0.8-0.1-1.2-0.4c-0.7-0.7-1-1.3-1-2c0-0.4,0.1-0.6,0.4-0.6c0.2,0,0.4,0.1,0.6,0.3c0.4,0.2,1,0.3,1.7,0.3
		c2.1,0,4-0.2,5.5-0.6c1.2-0.3,2.4-0.7,3.6-1.2c-0.7-0.7-1.2-1.1-1.5-1.3c-0.3-0.1-0.4-0.3-0.4-0.6c0-0.6,0.3-0.9,1-0.9
		c0.1,0,0.4,0.3,1.1,1c0.6,0.6,1,1.1,1,1.3c1-0.5,2.1-1,3.2-1.6c1.8-0.9,2.6-1.5,2.6-1.8c0-0.1-0.1-0.3-0.4-0.5
		c-0.8-0.5-1.5-1-2.2-1.4c-0.2-0.1-0.3-0.3-0.4-0.4c-2.5,1.5-4.8,2.6-6.9,3.4c-1.8,0.7-3.1,1.1-3.8,1.1c-0.4,0-0.8-0.1-1.2-0.4
		c-0.3-0.3-0.5-0.6-0.5-1c0-0.2,0.1-0.4,0.3-0.4c3.1-0.6,5.5-1.2,7.1-1.8c1.5-0.5,3.3-1.4,5.5-2.8C296.8,7.1,297,7,297.2,7z
		 M294.7,0c0.4,0,0.6,0.2,0.6,0.7c0,0.1,0,0.2-0.1,0.3c0.7,0.6,1.4,1.2,2,1.8c0.2,0,0.4,0.1,0.6,0.3c0.2,0.2,0.3,0.4,0.3,0.7
		c0,0.2-0.3,0.5-1,0.9c-3.2,2.1-6.3,3.6-9.2,4.6c-1.2,0.4-2.5,0.7-3.9,0.7c-0.3,0-0.5-0.1-0.8-0.4c-0.4-0.6-0.6-1.1-0.6-1.7
		c0-0.4,0.1-0.5,0.3-0.5c0.2,0,0.4,0.1,0.6,0.2c0.4,0.1,0.9,0.2,1.5,0.2c1.5,0,2.7-0.1,3.8-0.4c0.4-0.1,0.9-0.3,1.3-0.4
		c-0.6-0.6-1-1-1.3-1.1c-0.3-0.1-0.4-0.3-0.4-0.5c0-0.6,0.3-0.9,1-0.9c0.1,0,0.4,0.3,1.1,0.9c0.6,0.6,0.9,1,0.9,1.2
		c1-0.4,1.9-0.9,2.9-1.4c1.2-0.6,1.8-1,1.8-1.2c0-0.1-0.1-0.3-0.3-0.5c-0.5-0.5-1-0.9-1.5-1.2c-0.1-0.1-0.2-0.2-0.3-0.4
		c-2.1,1-4,1.8-5.7,2.3c-1.5,0.5-2.5,0.7-3.1,0.7c-0.4,0-0.8-0.1-1.1-0.4c-0.3-0.3-0.4-0.6-0.4-0.9c0-0.2,0.1-0.4,0.3-0.4
		c2.6-0.4,4.5-0.7,5.8-1.1c1.2-0.3,2.7-0.9,4.5-1.7C294.3,0.1,294.5,0,294.7,0z"/>
	<path class="st0" d="M307.5,4.2h3.3c0-1-0.1-1.9-0.1-3c0-0.7,0.3-1.1,0.9-1.1c0.6,0,0.9,0.4,0.9,1.1c0,1-0.1,2-0.1,3h3
		c0.2,0,0.3,0.1,0.3,0.3c0,0.3-0.1,0.6-0.3,0.8c-0.2,0.2-0.5,0.3-0.9,0.3c-0.2,0-0.6,0-1.3-0.1c-0.3,0-0.6,0-0.9,0
		c0,0.4,0,0.8,0,1.1l0,1.4c0.1,0,0.1,0,0.2,0c0.1,0,0.5,0.3,1.2,0.9c0.7,0.6,1.1,1,1.1,1.3c0,0.4-0.3,0.7-0.8,0.7
		c-0.1,0-0.2-0.1-0.3-0.2c-0.6-0.5-1-0.9-1.4-1.1l0.2,8.7c0,1.2-0.3,1.7-1,1.7c-0.5,0-0.8-0.6-0.8-1.7c0-3.2,0-6,0-8.3
		c-0.4,0.6-0.8,1.2-1.3,1.7c-0.6,0.7-1.2,1.2-1.9,1.6c-0.1,0.1-0.3,0.1-0.3,0.1c-0.4,0-0.8-0.3-1.3-0.8c-0.4-0.4-0.6-0.7-0.6-1
		c0-0.2,0.3-0.3,0.6-0.3c0.5-0.1,0.9-0.2,1.2-0.3c0.6-0.2,1.2-0.5,1.8-1.1c0.6-0.5,1.1-1.2,1.4-1.8c0.1-0.1,0.2-0.2,0.4-0.3
		c0-0.4,0-0.8,0-1.2c0-0.4,0-0.8,0-1.2c-1.4,0-2.5,0.1-3.1,0.3c-0.4,0.1-0.6,0.2-0.7,0.2c-0.5,0-0.8-0.3-0.9-0.8
		c0-0.3,0.2-0.5,0.4-0.8C306.8,4.2,307.1,4.2,307.5,4.2z M319.9,0.2c0.4,0.1,0.7,0.3,0.8,0.8c0.2,1.1,0.3,1.7,0.3,2c0,0,0,0.1,0,0.1
		h3.9c0-0.1,0.2-0.9,0.6-2.4c0.1-0.3,0.4-0.4,0.8-0.4c0.6,0,0.9,0.3,1,0.9c0,0.1-0.1,0.3-0.2,0.5c-0.5,0.6-0.9,1-1.1,1.4
		c0,0.1-0.1,0.1-0.1,0.1h3c0.3,0,0.4,0.1,0.4,0.3c0,0.4-0.1,0.7-0.3,0.9c-0.3,0.3-0.6,0.4-1,0.4c-0.3,0-0.9-0.1-1.9-0.2
		c-0.8-0.1-1.6-0.1-2.5-0.1c0,0.1,0,0.3,0,0.4c0,0.4,0,0.9-0.1,1.3h4c0.2,0,0.3,0.1,0.3,0.2c0,0.3-0.1,0.6-0.3,0.8
		c-0.2,0.2-0.5,0.4-0.9,0.4c-0.2,0-0.7,0-1.5-0.1c-0.5,0-1.1,0-1.7,0c0,0.6,0,1.2,0,1.8c1.1,0,2.5,0.1,4.2,0.2c0.4,0,0.7,0,1,0
		c0.2,0,0.6,0,1.1-0.1c0.5-0.1,0.7-0.2,0.8-0.2c0.2,0,0.3,0.1,0.3,0.2c0,0.4-0.2,0.9-0.6,1.5c-0.4,0.5-0.8,0.8-1.2,0.8
		c-0.3,0-0.7-0.1-1.4-0.3c-1.2-0.4-2.6-0.6-4.2-0.6l0.2,7.6c0,1.2-0.3,1.7-1,1.7c-0.5,0-0.8-0.6-0.8-1.7c0-3.1,0-5.7,0-7.7
		c-2.2,0-3.8,0.2-4.7,0.4c-0.5,0.2-0.8,0.3-1.1,0.3c-0.4,0-0.6-0.2-0.6-0.7c0-0.3,0.1-0.6,0.3-0.8c0.2-0.3,0.4-0.4,0.6-0.4
		c0.2,0,0.4,0,0.6,0.1c1.8-0.2,3.5-0.3,4.9-0.3c0-0.6,0-1.2,0-1.8c-1.3,0-2.2,0.1-2.8,0.2c-0.4,0.1-0.7,0.1-0.8,0.1
		c-0.5,0-0.7-0.3-0.8-0.8c0-0.2,0.2-0.5,0.4-0.7c0.2-0.1,0.5-0.2,0.9-0.2h3c0-0.4,0-0.9-0.1-1.3c0-0.2,0-0.3,0-0.4
		c-1.6,0-2.8,0.1-3.5,0.2c-0.5,0.1-0.8,0.2-1,0.2c-0.5,0-0.8-0.3-0.9-0.8c0-0.3,0.2-0.5,0.4-0.8c0.2-0.2,0.6-0.3,1-0.3h2
		c0,0-0.1-0.1-0.1-0.1c-0.2-0.4-0.5-0.9-0.7-1.3c-0.1-0.2-0.2-0.4-0.2-0.6C318.9,0.5,319.2,0.2,319.9,0.2z M320.1,16
		c0.3,0,0.4,0.1,0.4,0.4c0,0.2-0.1,0.4-0.2,0.7c-2,1.5-3.1,2.2-3.4,2.2c-0.7,0-1.1-0.2-1.1-0.7c0-0.6,0.1-0.9,0.4-1.1
		C316.3,17.4,317.5,16.9,320.1,16z M317.6,12.2c0.1,0,0.6,0.3,1.6,0.8c1,0.6,1.5,1,1.5,1.2c0,0.5-0.3,0.8-0.8,0.8
		c-0.1,0-0.2-0.1-0.4-0.2c-1-0.6-1.8-1-2.3-1.2c-0.5-0.1-0.7-0.3-0.7-0.5C316.5,12.5,316.9,12.2,317.6,12.2z M328.3,12.2
		c0.5,0,0.8,0.3,0.8,1c0,0.4-0.1,0.6-0.3,0.6c-1.9,0.8-2.9,1.2-3,1.2c-0.4,0-0.6-0.1-0.6-0.3c0-0.2,0.1-0.4,0.2-0.6l2.5-1.8
		C328.1,12.2,328.3,12.2,328.3,12.2z M325.5,16c0,0,0.1,0,0.1,0.1c1,0.6,1.7,1.1,2.3,1.3c0.4,0.2,0.9,0.3,1.6,0.3
		c0.2,0,0.3,0.1,0.3,0.3c0,0.3-0.2,0.6-0.6,0.9c-0.7,0.4-1.3,0.7-1.6,0.7c-0.2,0-0.3-0.1-0.5-0.3c-0.3-0.2-0.9-1.1-1.9-2.6
		c-0.1-0.1-0.1-0.2-0.1-0.3C325.2,16.1,325.3,16,325.5,16z"/>
	<path class="st0" d="M335.2,3.3c0.5,0,0.8,0.3,0.8,1c-0.1,0.8-0.1,1.5-0.1,2.1v3.5c0,1.1-0.3,1.6-0.9,1.6c-0.5,0-0.8-0.5-0.8-1.6
		c0.1-1.5,0.2-2.7,0.2-3.5c0-0.6,0-1.3-0.1-2.1C334.3,3.6,334.6,3.3,335.2,3.3z M338.5,0c0.6,0,0.9,0.4,0.9,1.1
		c-0.1,2-0.1,3.8-0.1,5.4l0.1,11.6c0,1.2-0.3,1.7-1,1.7c-0.5,0-0.8-0.6-0.8-1.7c0.1-5,0.1-8.9,0.1-11.6c0-1.6,0-3.4-0.1-5.4
		C337.6,0.4,337.9,0,338.5,0z M342,1.3c0.6,0,0.9,0.3,0.9,0.8l-1.6,3.5c-0.1,0.3-0.3,0.4-0.7,0.4c-0.3,0-0.4-0.2-0.4-0.6l1.1-3.5
		C341.3,1.5,341.6,1.3,342,1.3z M346,2.5c0.4,0,0.6,0.2,0.6,0.5c0,0.3-0.1,0.5-0.2,0.8c-0.2,0.6-0.5,1.2-0.8,1.7c0,0,0,0,0.1,0h3.7
		l-0.1-4.1c0-0.7,0.3-1,0.9-1c0.7,0,1.1,0.3,1.1,1l-0.1,4.1h5.2c0.3,0,0.4,0.1,0.4,0.3c0,0.4-0.1,0.7-0.3,0.9
		c-0.3,0.3-0.6,0.4-1,0.4c-0.3,0-0.9-0.1-1.9-0.3c-0.8,0-1.6-0.1-2.5-0.1l-0.1,3.8h4.4c0.3,0,0.4,0.1,0.4,0.3c0,0.3-0.1,0.6-0.3,0.9
		c-0.3,0.3-0.6,0.4-1,0.4c-0.2,0-0.8-0.1-1.7-0.3c-0.6,0-1.2-0.1-1.8-0.1l-0.1,4.2c0.9,0,1.9,0.1,3,0.2c1.1,0.1,2.2,0.1,3.2,0.1
		c0.4,0,0.9,0,1.3-0.1c0.1,0,0.1,0.1,0.1,0.3c0,0.5-0.1,1-0.4,1.6c-0.3,0.6-0.6,0.8-0.9,0.8c-0.3,0-0.6-0.1-0.9-0.3
		c-1.2-0.6-2.4-1-3.5-1.1c-0.8-0.1-1.8-0.2-3.1-0.2c-1.4,0-2.6,0.1-3.6,0.3c-1.1,0.3-2.1,0.7-3.2,1.1c-0.3,0.1-0.6,0.2-0.8,0.2
		c-0.5,0-0.7-0.3-0.8-0.8c0-0.3,0.1-0.6,0.4-0.8c0.2-0.2,0.5-0.4,0.9-0.4c3-0.5,5.2-0.8,6.6-0.9l-0.1-4.2c-1.5,0-2.6,0.1-3.3,0.2
		c-0.4,0.1-0.7,0.2-0.9,0.2c-0.5,0-0.8-0.3-0.9-0.8c0-0.3,0.2-0.5,0.4-0.8c0.2-0.1,0.6-0.2,1-0.2h3.6l-0.1-3.8
		c-1.5,0-2.5,0.1-3.3,0.3c-0.5,0.1-0.8,0.2-1,0.2c-0.2,0-0.3-0.1-0.4-0.1c-0.2,0.4-0.4,0.7-0.6,1c-0.4,0.5-0.7,0.8-0.9,0.8
		c-0.4,0-0.8-0.2-1.2-0.5c-0.4-0.3-0.6-0.7-0.6-1c0-0.3,0.2-0.4,0.5-0.4c0.7-0.3,1.4-0.8,2-1.5c0.6-0.7,1.2-1.6,1.8-2.8
		C345.8,2.6,345.9,2.5,346,2.5z"/>
	<path class="st0" d="M378.7,4.8c0,0.4-0.1,1.6-0.2,3.4l-0.5,5.9c0.4,0.4,0.6,0.7,0.6,0.9c0,0.5-0.5,0.8-1.4,0.8
		c-0.3,0-1.1-0.1-2.5-0.2c-1.4-0.1-2.9-0.1-4.3-0.1c-1.4,0-2.7,0.1-3.7,0.3c-1,0.2-1.7,0.3-2.2,0.3c-0.5,0-0.7-0.3-0.7-1
		c0-0.5,0.3-0.8,1-1c0.7-0.2,2.5-0.3,5.1-0.3h4.3c0.7,0,1.4,0,2.2,0.1l0.1-8.2c-0.6-0.2-2.2-0.3-4.9-0.3c-1.5,0-2.8,0.1-3.9,0.2
		C365.8,6,365,6,365.1,6c-0.5,0-0.7-0.3-0.7-0.9c0-0.7,0.7-1.1,2.2-1.1c1.1,0,2.8,0,5,0.1c2.2,0,3.9,0,5,0c0.2,0,0.4-0.1,0.6-0.2
		c0.1,0,0.3-0.1,0.4-0.1C378.3,3.9,378.7,4.2,378.7,4.8z"/>
	<path class="st0" d="M392.5,6.9c0,0.3-0.2,0.5-0.5,0.5c-0.6,0-1.6-0.3-3-1c-1.5-0.7-2.3-1.3-2.3-1.9c0-0.3,0.1-0.6,0.4-0.8
		c0.3-0.2,0.6-0.4,0.9-0.4c0.4,0,1.2,0.5,2.5,1.6C391.8,6,392.5,6.6,392.5,6.9z M403.4,5.4c0,0.5-0.7,1.7-2,3.5
		c-2.8,3.8-6.3,6.5-10.7,8.3c-1.3,0.6-2.2,0.8-2.7,0.8c-0.8,0-1.2-0.4-1.2-1.2c0-0.7,0.5-1.2,1.6-1.4c1.2-0.2,2.6-0.8,4.4-1.6
		c2.2-1,4.2-2.3,5.9-3.9c1.7-1.6,2.9-3.1,3.6-4.5c0.2-0.4,0.4-0.6,0.7-0.6C403.2,4.8,403.4,5,403.4,5.4z"/>
	<path class="st0" d="M429.6,7.3c0,0.5-0.3,1-0.8,1.7c-0.5,0.6-1,1-1.4,1c-0.1,0-0.5-0.2-1.2-0.5c-1.4-0.7-3.5-1.1-6.3-1.2
		c0,0.2,0,0.5,0.1,0.9c0,0.4,0,0.7,0,0.8c0,1.3-0.3,2.6-0.8,3.9c-0.5,1.3-1.2,2.4-2.1,3.3c-1.2,1.2-2.2,1.8-2.9,1.8
		c-0.3,0-0.8-0.2-1.3-0.5c-0.5-0.4-0.8-0.7-0.8-1c0-0.2,0.2-0.3,0.5-0.4c0.7-0.2,1.4-0.6,2.3-1.1c1-0.7,1.9-1.5,2.6-2.6
		c0.7-1.1,1.1-2.3,1.1-3.4c0-0.2,0-0.5-0.1-0.8c0-0.4,0-0.7,0-0.9c-3.3,0.1-5.8,0.5-7.4,1c-1.1,0.4-1.6,0.6-1.5,0.6
		c-0.5,0-0.7-0.3-0.7-0.9c0-0.5,0.2-0.9,0.5-1.1c0.8-0.6,4.2-0.9,10.2-0.9c1,0,2.5,0,4.5,0.1s3.5,0.1,4.5,0.1c0.4,0,0.8,0,1-0.1
		C429.4,7.1,429.5,7.1,429.6,7.3z M425.2,2.5c0,0.3-0.1,0.5-0.4,0.8c-0.3,0.2-0.6,0.3-0.8,0.3c-0.5,0-1.2,0-2.1-0.1
		c-0.9-0.1-1.6-0.1-2.1-0.1c-1.6,0-3,0-4.1,0.1c-2.1,0.2-3,0.3-2.8,0.3c-0.3,0-0.5-0.1-0.5-0.4c0-0.4,0.1-0.7,0.4-1
		c0.3-0.3,0.5-0.4,0.8-0.4c-0.1,0,0.1,0,0.4,0c0.1,0,0.2,0.1,0.4,0.1c0.9,0,2.3,0,4.1,0c1.8,0,3.2,0,4.1,0
		C424.4,1.8,425.2,2.1,425.2,2.5z"/>
	<path class="st0" d="M440.7,6.9c0,0.3-0.2,0.5-0.5,0.5c-0.6,0-1.6-0.3-3-1c-1.5-0.7-2.3-1.3-2.3-1.9c0-0.3,0.1-0.6,0.4-0.8
		c0.3-0.2,0.6-0.4,0.9-0.4c0.4,0,1.2,0.5,2.5,1.6C440,6,440.7,6.6,440.7,6.9z M451.6,5.4c0,0.5-0.7,1.7-2,3.5
		c-2.8,3.8-6.3,6.5-10.7,8.3c-1.3,0.6-2.2,0.8-2.7,0.8c-0.8,0-1.2-0.4-1.2-1.2c0-0.7,0.5-1.2,1.6-1.4c1.2-0.2,2.6-0.8,4.4-1.6
		c2.2-1,4.2-2.3,5.9-3.9c1.7-1.6,2.9-3.1,3.6-4.5c0.2-0.4,0.4-0.6,0.7-0.6C451.4,4.8,451.6,5,451.6,5.4z"/>
	<path class="st0" d="M462,7.9c0,0.4-0.1,0.6-0.4,0.6c-0.3,0-0.9-0.6-1.9-1.8c-0.9-1.2-1.4-2-1.4-2.5c0-0.6,0.4-0.9,1.2-0.9
		c0.4,0,0.8,0.6,1.5,1.9C461.6,6.6,462,7.4,462,7.9z M475.1,3.8c0,0.7-0.3,1.8-0.8,3.3c-0.8,2.2-2.1,4.2-3.8,6
		c-1.3,1.4-2.9,2.7-4.7,3.9c-1.9,1.3-3.4,2-4.4,2c-0.4,0-0.9-0.2-1.5-0.6c-0.6-0.4-0.9-0.7-0.9-1.1c0-0.2,0.7-0.5,2-0.9
		c1.8-0.5,3.6-1.3,5.4-2.5c2.1-1.3,3.6-2.8,4.6-4.4c0.5-0.7,0.9-1.7,1.3-2.9c0.3-1,0.7-2,1-3c0.2-0.4,0.5-0.6,0.9-0.6
		C474.9,3,475.1,3.3,475.1,3.8z M467.4,7.4c0,0.4-0.1,0.6-0.4,0.6c-0.2,0-0.7-0.6-1.3-1.9c-0.6-1.2-0.9-2.1-0.9-2.4
		c0-0.7,0.4-1,1.2-1c0.5,0,0.8,0.7,1.1,2C467.3,5.7,467.4,6.6,467.4,7.4z"/>
	<path class="st0" d="M500.4,4c0,0.4-0.2,0.7-0.7,0.7c-0.2,0-0.5,0-1-0.1c-0.4-0.1-0.7-0.1-0.9-0.1c-2.1,0-4.1,0.6-5.8,1.9
		c-1.9,1.4-2.9,3.1-2.9,5.2c0,1.8,0.8,3,2.3,3.9c1.2,0.7,2.8,1.1,4.7,1.1c0.3,0,0.8,0,1.4-0.1c0.6-0.1,1.1-0.1,1.4-0.1
		c0.2,0,0.3,0.1,0.4,0.3c-0.1,0.6-0.5,1.1-1,1.6c-0.6,0.5-1.1,0.7-1.7,0.7c-2.3,0-4.3-0.6-6-1.8c-1.9-1.3-2.8-3.1-2.8-5.3
		c0-1.7,0.6-3.3,1.7-4.6c0.9-1,2.3-2,4-2.9c-3.7,0.3-7.1,0.9-10.3,1.7c-0.3,0.1-0.7,0.2-1.2,0.3c-0.5,0-0.7-0.3-0.7-0.7
		c0-0.5,0.1-0.9,0.3-1.1c0.3-0.2,0.8-0.4,1.6-0.5c2.5-0.3,5.8-0.6,9.9-1c3.4-0.3,5.4-0.4,6-0.4c0.3,0,0.6,0.1,0.8,0.4
		C500.3,3.4,500.4,3.7,500.4,4z M499.2,9.1c-0.1,0.2-0.3,0.5-0.6,0.9c-0.3,0.4-0.5,0.6-0.6,0.6c-0.3,0-0.9-0.4-1.7-1.1
		c-0.8-0.8-1.1-1.3-1.1-1.6c0-0.2,0.1-0.3,0.3-0.3c0.1,0,0.4,0.2,1,0.5c0.5,0.3,1.3,0.5,2.3,0.7C498.9,8.8,499.1,8.9,499.2,9.1z
		 M503.2,8c-0.1,0.2-0.2,0.4-0.6,0.8c-0.3,0.4-0.5,0.6-0.7,0.6c-0.3,0-0.9-0.4-1.7-1.1c-0.8-0.8-1.1-1.3-1.1-1.6
		c0-0.2,0.1-0.3,0.3-0.3c0.1,0,0.4,0.2,1,0.5c0.7,0.4,1.5,0.7,2.3,0.8C503,7.7,503.1,7.8,503.2,8z"/>
	<path class="st0" d="M514.5,18.6c0,0.3-0.4,0.7-1.1,1.1c-0.7,0.5-1.2,0.7-1.5,0.7s-0.7-0.3-1.2-1c-1-1.4-1.9-2.6-2.8-3.6
		c-0.8-0.9-1.2-1.5-1.2-1.7c0-0.3,0.2-0.5,0.5-0.5c0.3,0,1.8,1.1,4.5,3.2c0.6,0.5,1.4,0.9,2.4,1.3C514.3,18.3,514.4,18.4,514.5,18.6
		z"/>
	<path class="st0" d="M545.1,15.3c-0.1,0.3-0.5,0.8-1.2,1.4c-0.7,0.6-1.2,0.9-1.6,0.9c-0.3,0-1-0.7-2.2-2c-1.1-1.4-2.7-2.7-4.7-4.1
		c-2.2,2.2-4.2,3.8-6.1,4.8c-1.5,0.8-2.5,1.2-3,1.2c-0.4,0-0.8-0.2-1.3-0.7c-0.5-0.5-0.7-0.9-0.7-1.2c0-0.2,0.3-0.3,0.8-0.4
		c4.7-0.8,8.8-3.5,12.1-7.9c0.4-0.6,0.7-1,1-1.3c0.4-0.7,0.7-1.1,0.8-1.3c-0.1-0.1-0.8-0.1-2.1-0.1c-2.8,0-4.9,0.2-6.6,0.5
		c-0.8,0.2-1.4,0.3-1.7,0.3c-0.4,0-0.6-0.3-0.6-0.9c0-0.4,0.2-0.7,0.6-0.9c0.4-0.2,2-0.4,4.6-0.4h3.8c0.8,0,1.4,0,1.8,0.1
		c0.2-0.1,0.5-0.1,1-0.1c0.7,0,1,0.2,1,0.7c0,0.5-0.6,1.6-1.8,3.4c-1,1.4-1.8,2.5-2.5,3.4l4.6,2.9c1.2,0.8,2.1,1.2,2.8,1.4
		c0.2,0.1,0.5,0.1,0.8,0.1C544.9,15,545.1,15.1,545.1,15.3z"/>
	<path class="st0" d="M569.2,7.3c0,0.5-0.3,1-0.8,1.7c-0.5,0.6-1,1-1.4,1c-0.1,0-0.5-0.2-1.2-0.5c-1.4-0.7-3.5-1.1-6.3-1.2
		c0,0.2,0,0.5,0.1,0.9c0,0.4,0,0.7,0,0.8c0,1.3-0.3,2.6-0.8,3.9s-1.2,2.4-2.1,3.3c-1.2,1.2-2.2,1.8-2.9,1.8c-0.3,0-0.8-0.2-1.3-0.5
		c-0.5-0.4-0.8-0.7-0.8-1c0-0.2,0.2-0.3,0.5-0.4c0.7-0.2,1.4-0.6,2.3-1.1c1-0.7,1.9-1.5,2.6-2.6c0.7-1.1,1.1-2.3,1.1-3.4
		c0-0.2,0-0.5-0.1-0.8c0-0.4,0-0.7,0-0.9c-3.3,0.1-5.8,0.5-7.4,1c-1.1,0.4-1.6,0.6-1.5,0.6c-0.5,0-0.7-0.3-0.7-0.9
		c0-0.5,0.2-0.9,0.5-1.1c0.8-0.6,4.2-0.9,10.2-0.9c1,0,2.5,0,4.5,0.1s3.5,0.1,4.5,0.1c0.4,0,0.8,0,1-0.1
		C569,7.1,569.1,7.1,569.2,7.3z M564.8,2.5c0,0.3-0.1,0.5-0.4,0.8c-0.3,0.2-0.6,0.3-0.8,0.3c-0.5,0-1.2,0-2.1-0.1
		c-0.9-0.1-1.6-0.1-2.1-0.1c-1.6,0-3,0-4.1,0.1c-2.1,0.2-3,0.3-2.8,0.3c-0.3,0-0.5-0.1-0.5-0.4c0-0.4,0.1-0.7,0.4-1
		c0.3-0.3,0.5-0.4,0.8-0.4c-0.1,0,0.1,0,0.4,0c0.1,0,0.2,0.1,0.4,0.1c0.9,0,2.3,0,4.1,0c1.8,0,3.2,0,4.1,0
		C564,1.8,564.8,2.1,564.8,2.5z"/>
	<path class="st0" d="M595,9.7c0,0.3-0.4,0.7-1.1,1.3c-0.7,0.6-1.3,0.9-1.6,0.9c-0.4,0-0.9-0.1-1.5-0.4c-1.8-1-4.4-1.4-7.7-1.4
		c-2.8,0-5.2,0.4-7.3,1.1c-0.8,0.3-1.2,0.4-1.4,0.4c-0.2,0-0.4-0.1-0.6-0.3c-0.2-0.2-0.3-0.4-0.3-0.6c0-0.4,0.2-0.8,0.5-1.1
		c0.4-0.4,1.9-0.6,4.4-0.8c1.8-0.1,3.4-0.2,4.8-0.2c2,0,4.2,0.2,6.6,0.6c1.6,0.3,2.8,0.4,3.6,0.4c0.1,0,0.4,0,0.7-0.1
		c0.3-0.1,0.5-0.1,0.7-0.1C594.9,9.3,595,9.4,595,9.7z"/>
	<path class="st0" d="M605.6,10.1c0,0.2-0.2,0.3-0.6,0.3c-0.8,0-1.9-0.1-3.2-0.4c-0.8-0.2-1.2-0.5-1.2-1c0-0.7,0.3-1.1,1-1.1
		c0.4,0,1.1,0.3,2.2,0.9C605,9.4,605.6,9.9,605.6,10.1z M619.1,6.9c0,0.5-0.6,1.4-1.7,2.7c-2.5,2.9-6.1,5.3-10.9,7.2
		c-2.1,0.8-3.4,1.2-3.7,1.2c-0.4,0-0.7-0.1-1-0.4c-0.3-0.3-0.4-0.7-0.4-1.1c0-0.6,0.4-1,1.3-1.1c3.7-0.6,7.1-1.9,10.1-4
		c2.1-1.5,3.8-2.9,5-4.3c0.5-0.6,0.8-0.9,1-0.9C619,6.4,619.1,6.5,619.1,6.9z M607.1,6c0,0.2-0.2,0.3-0.5,0.3
		c-0.5,0-1.4-0.3-2.6-0.8c-1.3-0.6-1.9-1-1.9-1.5c0-0.7,0.4-1,1.1-1c0.4,0,0.8,0.2,1.3,0.6C606.2,5,607.1,5.8,607.1,6z M617.7,3.7
		c0,0.2-0.2,0.4-0.6,0.7c-0.3,0.3-0.6,0.4-0.9,0.4c-0.3,0-0.7-0.5-1.3-1.5c-0.6-0.9-0.8-1.5-0.8-1.9c0-0.2,0.1-0.4,0.2-0.4
		s0.3,0.1,0.4,0.3c0.8,1,1.5,1.6,2.3,1.9C617.4,3.4,617.6,3.6,617.7,3.7z M621.2,2.5c0,0.2-0.2,0.4-0.6,0.7
		c-0.3,0.3-0.6,0.5-0.8,0.6c-0.4-0.1-0.9-0.5-1.6-1.3c-0.6-0.8-1-1.4-1-1.7c0-0.1,0.1-0.2,0.2-0.2c0,0,0.4,0.2,1,0.6
		c0.6,0.4,1,0.7,1.1,0.7C620.1,2,620.6,2.2,621.2,2.5z"/>
	<path class="st0" d="M644.7,8.5c0,1.4-0.6,2.5-1.8,3.4c-1.1,0.8-2.3,1.1-3.8,1.1c-1,0-1.6-0.3-2.1-0.8c-0.5-0.5-0.7-1-0.7-1.5
		c0-0.3,0-0.4,0.1-0.4c0.3,0,0.7,0.1,1.4,0.3c0.6,0.1,1.1,0.2,1.5,0.2c0.9,0,1.7-0.2,2.4-0.6c0.9-0.5,1.4-1.1,1.4-1.9
		c0-0.7-0.3-1.3-0.9-1.7c-0.5-0.4-1.1-0.5-1.9-0.5c-1.9,0-4.5,0.6-7.9,1.7c0.5,2.7,1.2,5.1,2.2,7c0.7,1.4,1.5,2.4,2.3,3.2
		c0.2,0.1,0.4,0.4,0.7,0.7c-0.1,0.3-0.4,0.5-1,0.8c-0.6,0.2-1,0.4-1.4,0.4c-0.8,0-1.7-1.7-2.7-5.2c-0.7-2.4-1.3-4.6-1.5-6.5
		c-1,0.4-2.4,0.9-4.4,1.7l-1.6,0.6c-0.6,0-1-0.4-1-1.1c0-0.5,1-1,2.9-1.7c0.4-0.1,1.6-0.5,3.8-1.1c-0.2-2.1-0.3-3.7-0.3-5
		c0-0.6,0.3-0.9,0.9-0.9c0.4,0,0.6,0.3,0.7,0.8c0,0.3,0,0.8,0,1.5c0,1.2,0.1,2.2,0.2,3.2c3.5-0.9,6.1-1.3,7.7-1.3
		c1.2,0,2.3,0.3,3.2,0.9C644.2,6.4,644.7,7.3,644.7,8.5z M639.1,1.1c0,0.3-0.4,0.9-1.3,1.8c-0.9,0.9-1.5,1.3-1.8,1.3
		c-0.3,0-0.7-0.2-1.1-0.7c-0.4-0.5-0.7-0.8-0.7-1.1c0-0.2,0.4-0.3,1.2-0.3c0.6-0.1,1.3-0.3,2.1-0.7c0.8-0.4,1.2-0.7,1.2-0.7
		C639,0.7,639.1,0.8,639.1,1.1z"/>
	<path class="st0" d="M649.5,3.9h7.8c0.2,0,0.3,0.1,0.3,0.3c0,0.3-0.1,0.6-0.3,0.8c-0.2,0.2-0.6,0.3-0.9,0.3c-0.2,0-0.6,0-1.3-0.1
		c-0.7,0-1.5,0-2.3,0c-1.4,0-2.5,0.1-3.1,0.2c-0.4,0.1-0.6,0.2-0.7,0.2c-0.5,0-0.8-0.3-0.9-0.8c0-0.3,0.2-0.5,0.4-0.8
		C648.7,4,649,3.9,649.5,3.9z M650.4,13.2c0.3,0,0.5,0,0.8,0.1c0.3,0.1,0.7,0.1,1.2,0.1h1.5c0.3,0,0.7,0,1.2,0.1
		c0.3,0,0.6-0.1,1-0.2c0.5,0,0.8,0.3,0.8,0.9c0,0,0,0.1-0.1,0.1c-0.1,0.1-0.1,0.4-0.2,0.8c-0.1,0.5-0.1,1.1-0.1,1.7
		c0,0.3,0,0.7,0.1,1.3c0,0.6-0.3,0.9-0.8,0.9c-0.8-0.1-1.5-0.2-2.2-0.2c-1.2,0-1.9,0-2.2,0.1c-0.3,0-0.6,0.1-1,0.1
		c-0.5,0-0.8-0.3-0.8-0.8c0.1-0.9,0.2-1.6,0.2-2.3c0-0.6-0.1-1.2-0.2-2C649.6,13.5,649.8,13.2,650.4,13.2z M651.1,10.1h4.5
		c0.5,0,0.8,0.2,0.8,0.6c0,0.4-0.3,0.6-0.8,0.6c-2,0-3.6,0.1-4.7,0.2c-0.6,0-0.9-0.2-0.9-0.6C650,10.3,650.4,10.1,651.1,10.1z
		 M651.2,1h4.4c0.5,0,0.8,0.2,0.8,0.7c0,0.4-0.3,0.5-0.8,0.5c-2,0-3.5,0.1-4.6,0.2c-0.6,0-0.9-0.2-0.9-0.6
		C650.1,1.2,650.5,1,651.2,1z M651.2,7.2h4.4c0.5,0,0.8,0.2,0.8,0.6c0,0.4-0.3,0.6-0.8,0.6c-2,0-3.5,0.1-4.6,0.2
		c-0.6,0-0.9-0.2-0.9-0.7C650.1,7.5,650.5,7.2,651.2,7.2z M653.5,17.5c0.3,0,0.6,0,1,0.1c0.3,0,0.4-0.1,0.4-0.3v-2.2
		c0-0.2-0.1-0.3-0.2-0.3c-0.6-0.1-1.5-0.1-2.7-0.1c-0.4,0-0.5,0.2-0.5,0.5c0,0.7-0.1,1.4-0.2,2c0,0.3,0.2,0.4,0.6,0.4
		C652.3,17.5,652.9,17.5,653.5,17.5z M660,2h1.9l0-1c0-0.5,0.3-0.8,0.8-0.8c0.6,0,0.9,0.3,0.9,0.9V2h3.4V1c0-0.5,0.3-0.8,0.8-0.8
		c0.6,0,0.9,0.3,0.9,0.9l0,0.9h2.9c0.2,0,0.3,0.1,0.3,0.3c0,0.3-0.1,0.6-0.3,0.8c-0.2,0.2-0.6,0.3-0.9,0.3c-0.3,0-0.9,0-2-0.1
		c0,0,0,0-0.1,0l0,1.1h2.5c0.2,0,0.3,0.1,0.3,0.4c0,0.2-0.1,0.4-0.3,0.5c-0.2,0.2-0.4,0.3-0.7,0.3c-0.5,0-1.2-0.1-1.9-0.1l-0.1,1.3
		h4c0.3,0,0.4,0.1,0.4,0.3c0,0.4-0.1,0.7-0.3,0.9c-0.3,0.3-0.6,0.4-1,0.4c-0.3,0-1.1-0.1-2.4-0.3c-1,0-2.1-0.1-3.2-0.1v1.2l2.7,0
		c0.2,0,0.6-0.1,1.2-0.2c0.7,0,1,0.2,1,0.7c-0.3,1.2-0.4,2.6-0.4,4.4c0,0.2,0,0.4,0,0.6c0.4,0,0.8,0,1.1,0c0.2,0,0.6,0,1.1-0.1
		c0.4-0.1,0.7-0.2,0.8-0.2c0.1,0,0.2,0.1,0.2,0.2c0,0.4-0.2,0.8-0.6,1.3c-0.4,0.5-0.7,0.8-1.1,0.8c-0.3,0-0.8-0.1-1.5-0.3
		c0,0.7,0.1,1.5,0.1,2.3c0,0.7-0.3,1.1-0.9,1.1c-0.3,0-0.5-0.1-0.6-0.4c-0.1-0.4-0.1-0.8-0.1-1.3c0-0.7,0-1.4,0-2
		c-1.3-0.2-2.9-0.3-4.6-0.3c-1.3,0-2.3,0-3.2,0.1c-0.1,1-0.3,1.8-0.6,2.3c-0.5,1-0.9,1.4-1.4,1.4c-0.4,0-0.9-0.2-1.3-0.7
		c-0.2-0.3-0.4-0.6-0.4-0.8c0-0.1,0.1-0.2,0.3-0.3c0.7-0.1,1.2-0.6,1.6-1.4c0.1-0.1,0.1-0.2,0.1-0.4c-0.3,0.1-0.5,0.1-0.7,0.2
		c-0.5,0.1-0.9,0.2-1.2,0.2c-0.4,0-0.5-0.2-0.5-0.6c0-0.3,0.1-0.5,0.3-0.8c0.2-0.2,0.4-0.4,0.6-0.4c0.2,0,0.4,0,0.6,0.1
		c0.4,0,0.8-0.1,1.2-0.1c0-0.5,0.1-1.2,0.1-2c0-0.9-0.1-1.9-0.2-2.9c0-0.5,0.3-0.8,0.8-0.8c0.2,0,0.4,0,0.5,0.1l3.4,0.1V8.2
		c-2.1,0-3.6,0.1-4.6,0.2c-0.6,0.1-1,0.2-1.2,0.2c-0.5,0-0.8-0.3-0.9-0.8c0-0.3,0.2-0.5,0.4-0.7c0.2-0.2,0.6-0.3,1-0.3h3.1l-0.1-1.4
		c-0.6,0-1.3,0.1-2.1,0.3c-0.5,0-0.8-0.2-0.8-0.5c0-0.2,0.1-0.4,0.3-0.6c0.2-0.2,0.4-0.3,0.7-0.3h1.8l-0.1-1.1
		c-0.6,0-1.1,0.1-1.5,0.2c-0.5,0.1-0.9,0.2-1,0.2c-0.5,0-0.7-0.3-0.8-0.8c0-0.2,0.2-0.5,0.4-0.7C659.3,2,659.6,2,660,2z M661.2,14.8
		c1.1-0.1,2.2-0.1,3.1-0.1c0,0,0,0,0.1,0l0-1.5c-1.2,0-2.3,0.1-3.1,0.2h0c0,0,0,0.1,0,0.1C661.2,13.9,661.2,14.4,661.2,14.8z
		 M661.3,12.2c0.1,0,0.1,0,0.2,0h2.9l0-1.5c-1.1,0-2.1,0-3.1,0.1C661.3,11.3,661.3,11.7,661.3,12.2z M663.5,4.4h3.4V3.2
		c-0.6,0-1.3,0-2,0c-0.5,0-1,0-1.5,0V4.4z M663.5,6.9h3.5l0-1.4c-1,0-2.2,0-3.5-0.1V6.9z M665.8,13.2l0,1.5c0.9,0,2,0.1,3.2,0.1
		c0-0.6,0-1.1,0.1-1.7C667.9,13.1,666.8,13.1,665.8,13.2z M665.8,10.6l0,1.5h3.2c0-0.5,0.1-0.9,0.1-1.3c0-0.1-0.2-0.2-0.7-0.2
		C667.6,10.6,666.7,10.6,665.8,10.6z"/>
	<path class="st0" d="M681.4,8.3c0.3,0,0.4,0.1,0.4,0.3c0,0.4-0.1,0.6-0.3,0.6l-4.7,1.5c-0.7,0-1-0.3-1-0.9c0-0.7,0.3-1.1,0.8-1.2
		L681.4,8.3z M678.4,0.4c0.1,0,0.3,0.1,0.6,0.2c0.8,0.6,1.7,1.2,2.8,2C682,2.8,682,2.9,682,3c0,0.3-0.2,0.4-0.6,0.4
		c-0.1,0-0.3,0-0.5-0.1c-1.5-0.5-2.5-0.8-2.9-0.9c-0.5-0.3-0.8-0.7-0.8-1.2C677.3,0.7,677.7,0.4,678.4,0.4z M682.2,14.8
		c0.3,0,0.4,0.1,0.4,0.4c0,0.2-0.1,0.4-0.2,0.7c-1.7,2.2-2.7,3.3-2.9,3.3c-0.8,0-1.2-0.2-1.2-0.7c0-0.6,0.1-1,0.4-1.2
		C678.7,17.1,679.8,16.3,682.2,14.8z M691.3,0c0.7,0,1,0.3,1,1c-0.1,0.5-0.2,1-0.3,1.5c2.4,0,4.6,0.1,6.4,0.3l1.1-0.2
		c0.5,0,0.8,0.2,0.8,0.5c0,0.1-0.1,0.3-0.2,0.5c-0.3,0.6-0.5,1.6-0.6,3c0,0.4-0.2,0.7-0.7,0.7c-0.4,0-0.6-0.2-0.6-0.7
		c0-0.8,0-1.5,0.1-2.2c0-0.1-0.1-0.1-0.4-0.3c-1.7-0.3-3.7-0.5-6-0.5c-2.2,0-4.3,0.1-6.2,0.3c-0.5,0-0.9,0.2-1,0.4l-0.1,0.2
		c0,1.3-0.1,2.1-0.3,2.3c-0.1,0.3-0.3,0.4-0.7,0.4c-0.3,0-0.4-0.1-0.4-0.3c0-1.6-0.2-2.9-0.4-4c0-0.4,0.3-0.7,0.8-0.7
		c0.4,0,0.6,0,0.8,0.1c0.3,0.1,0.5,0.2,0.7,0.2c1.3-0.1,3.1-0.1,5.2-0.1c0.1,0,0.1,0,0.2,0c-0.1-0.5-0.1-0.9-0.3-1.3
		C690.4,0.4,690.7,0,691.3,0z M684.9,17.5c0.4,0.1,0.8,0.1,1,0.1c0.7,0,1.6-0.3,2.7-0.9c0.2,0,0.3,0.1,0.3,0.3
		c0,0.3-0.4,0.8-1.1,1.6c-0.7,0.8-1.4,1.2-1.9,1.2c-0.3,0-0.6-0.2-0.9-0.5c-0.3-0.4-0.4-0.9-0.4-1.5
		C684.5,17.6,684.6,17.5,684.9,17.5z M687.2,5.4h9.5c0.3,0,0.4,0.1,0.4,0.3c0,0.4-0.1,0.7-0.3,0.9c-0.3,0.3-0.6,0.4-1,0.4
		c-0.2,0-0.8-0.1-1.7-0.2c-0.6-0.1-1.2-0.1-1.8-0.1l0,1.6h0c0.9,0,2,0,3.3,0.1c0.3,0,0.6-0.1,1-0.2c0.5,0,0.8,0.3,0.8,0.9
		c0,0,0,0.1-0.1,0.2c-0.1,0.2-0.1,0.6-0.2,1.2c-0.1,0.8-0.1,1.6-0.1,2.5c0,0.5,0,1.3,0.1,2.2c0,0.6-0.3,0.9-0.8,0.9
		c-1.9-0.1-3.6-0.2-5.1-0.2c-1.8,0-2.9,0-3.4,0.1c-0.4,0-0.9,0.1-1.5,0.1c-0.5,0-0.8-0.3-0.8-0.8c0.1-1.2,0.2-2.3,0.2-3.2
		c0-0.9-0.1-2-0.2-3.2c0-0.5,0.3-0.8,0.8-0.8c0.3,0,0.5,0,0.8,0.1c0.3,0.1,0.6,0.1,1.1,0.1h2.4V6.7c-1.5,0-2.5,0.1-3.2,0.3
		c-0.4,0.1-0.7,0.2-0.9,0.2c-0.5,0-0.8-0.3-0.9-0.8c0-0.3,0.2-0.5,0.4-0.8C686.4,5.5,686.8,5.4,687.2,5.4z M690.8,14.6l0-2
		c-1.3,0-2.3,0.1-3.2,0.1c-0.1,0-0.1,0-0.2,0c0,0.5-0.1,1-0.1,1.5c0,0.3,0.2,0.4,0.7,0.4C688.7,14.6,689.7,14.6,690.8,14.6z
		 M687.4,11.4c0.1,0,0.2,0,0.3,0h3.1V9.5c-0.9,0-1.8,0-2.8,0c-0.4,0-0.6,0.2-0.6,0.6C687.4,10.5,687.4,11,687.4,11.4z M692.2,12.5
		l0,2.1c0.9,0,1.9,0.1,2.9,0.1c0.3,0,0.4-0.1,0.4-0.3v-1.9c0,0-0.1,0-0.1,0C694.3,12.5,693.2,12.5,692.2,12.5z M692.3,9.5v1.8h3.1
		c0.1,0,0.2,0,0.2,0V10c0-0.2-0.1-0.3-0.2-0.3C694.5,9.6,693.5,9.6,692.3,9.5z M694.3,16.7c0,0,0.1,0,0.2,0.1c1,0.5,1.7,0.8,2.3,1
		c0.4,0.1,0.9,0.2,1.6,0.2c0.2,0,0.3,0.1,0.3,0.3c0,0.3-0.2,0.6-0.6,0.9c-0.7,0.4-1.2,0.6-1.6,0.6c-0.2,0-0.3-0.1-0.4-0.2
		c-0.3-0.2-0.9-1-1.9-2.4c-0.1-0.1-0.1-0.2-0.1-0.3C694,16.9,694.1,16.7,694.3,16.7z"/>
	<path class="st0" d="M722.5,7c0,0.4-0.3,0.7-1,1.2c-1.6,1-4,2.3-7,3.9c0,0.1,0,0.4,0,0.9c0,0.4,0.1,0.7,0.1,0.9
		c0,0.6-0.3,0.9-1,0.9c-0.4,0-0.6-0.2-0.7-0.7c0-0.1-0.1-0.5-0.1-1.1c-1.1,0.6-1.9,1-2.3,1.3c-1,0.7-1.5,1.3-1.5,2
		c0,0.4,0.5,0.7,1.4,1c0.7,0.1,1.4,0.2,2,0.2c2,0,3.8-0.3,5.5-0.9c1.3-0.5,1.9-0.7,2-0.7c0.2,0,0.3,0.1,0.3,0.4
		c0,0.6-0.2,1.1-0.6,1.8c-0.3,0.4-1,0.7-2.2,0.9c-0.9,0.1-1.9,0.2-3.1,0.2c-1.5,0-2.9-0.1-4-0.4c-1.7-0.5-2.6-1.3-2.6-2.4
		c0-0.9,0.6-1.9,1.9-2.9c0.2-0.2,1.2-0.8,3.1-2c0-1-0.1-1.7-0.2-1.9c-0.2-0.7-0.7-1-1.5-1c-1,0-1.9,0.2-2.6,0.6
		c-0.3,0.2-1.1,0.7-2.3,1.7c-0.1,0.1-0.3,0.2-0.6,0.4c-0.5,0-0.8-0.4-0.8-1.1c0-0.5,0.5-1,1.6-1.7c1.5-0.9,2.9-2.2,4.1-3.7
		c-0.6,0.1-1.5,0.2-2.7,0.4c0,0-0.4,0.1-1.1,0.2c-0.5,0.1-0.8,0.2-1,0.2c-0.4,0-0.6-0.3-0.6-0.8c0-0.7,0.5-1.1,1.6-1.1
		c1,0,2.6-0.1,4.6-0.1c0.2-0.3,0.5-1.1,1.1-2.2c0.3-0.6,0.6-0.9,1.1-0.9c0.6,0,1,0.3,1,0.9c0,0.2-0.4,0.9-1.2,2.2c0.6,0,1.5,0,2.6,0
		c1.2,0,2.1,0,2.6,0c0.1,0,0.3,0,0.6,0c0.3-0.1,0.5-0.1,0.6-0.1c0.2,0,0.3,0.1,0.3,0.3c0,0.3-0.2,0.7-0.6,1.2
		c-0.4,0.4-0.7,0.7-1,0.7c-0.3,0-0.7-0.1-1.1-0.2C717,5,716.7,5,716.3,4.8c-0.9-0.2-2.1-0.3-3.9-0.3c-0.9,1.2-1.7,2.2-2.6,3
		c0.7-0.1,1.3-0.1,1.9-0.1c1.6,0,2.4,0.9,2.5,2.6c0,0.2,0,0.3,0.1,0.4c2.5-1.5,4.5-2.8,6.1-3.8c0.5-0.3,0.9-0.4,1.3-0.4
		C722.2,6.2,722.5,6.5,722.5,7z"/>
	<path class="st0" d="M734.5,4.8c0.4,0,0.6,0.2,0.6,0.6c0,0.3-0.1,0.5-0.2,0.8c-0.7,0.8-1.4,1.6-2.2,2.4c0.1,0.2,0.2,0.5,0.2,0.8
		c-0.1,1.1-0.1,2.2-0.1,3.1l0.1,5.8c0,1.2-0.3,1.7-1,1.7c-0.5,0-0.8-0.6-0.8-1.7c0.1-2.5,0.1-4.4,0.1-5.8c0-0.8,0-1.7-0.1-2.6
		c-0.4,0.3-0.7,0.6-1.1,0.8c-0.7,0.5-1.3,0.8-1.8,0.8c-0.4,0-0.8-0.2-1.2-0.5c-0.4-0.3-0.6-0.7-0.6-1c0-0.3,0.2-0.4,0.6-0.4
		c1.3-0.3,2.6-0.8,3.7-1.5c1.2-0.7,2.3-1.6,3.3-2.9C734.2,4.9,734.4,4.8,734.5,4.8z M734,0.1c0.4,0,0.6,0.2,0.6,0.6
		c0,0.2-0.1,0.4-0.2,0.6c-1.1,1.2-2.4,2.3-3.9,3.2c-0.6,0.4-1.1,0.6-1.5,0.6c-0.4,0-0.8-0.2-1.1-0.5s-0.6-0.6-0.6-1
		c0-0.2,0.2-0.3,0.5-0.3c1.1-0.2,2.1-0.5,3-1c1-0.5,1.9-1.2,2.8-2C733.8,0.2,733.9,0.1,734,0.1z M742.4,6.9c1.1,0,2.5,0,4.1,0.1
		c1.2,0.1,2.2,0.1,3.1,0.1c0.6,0,1.3-0.1,2.1-0.2c0.1,0,0.2,0.2,0.2,0.6c0,0.6-0.2,1.2-0.7,1.8c-0.3,0.5-0.6,0.7-0.8,0.7
		c-0.4,0-0.8-0.1-1.4-0.4c-0.9-0.4-1.8-0.8-2.9-0.9c-0.4-0.1-0.7-0.1-1.1-0.1c0,0,0,0,0,0.1c0,0.1,0,0.3-0.1,0.6
		c-0.1,0.5-0.1,1-0.1,1.5c0.1,2.6,0.1,4.5,0.1,5.9c0,1.6-0.6,2.6-1.7,3c-0.7,0.3-1.3,0.4-2,0.4c-0.4,0-0.8-0.1-1.1-0.4
		c-0.4-0.3-0.5-0.7-0.5-1.2c0-0.2,0.2-0.4,0.4-0.4c1.2-0.1,2-0.2,2.4-0.4c0.4-0.2,0.7-0.5,0.8-0.8c0.1-0.4,0.2-1,0.2-2.1
		c0-1.3-0.1-2.5-0.2-3.7c0-1.1-0.1-1.8-0.1-2.1c0-0.2,0-0.3,0.1-0.4c-0.3,0-0.6,0-0.9,0c-1.2,0-2.3,0.1-3.4,0.2
		c-0.7,0.1-1.7,0.5-3,1.1c-0.7,0-1-0.3-1-0.8c0-0.3,0.1-0.6,0.4-0.9c0.3-0.4,0.8-0.6,1.3-0.6C739.2,7.1,741.1,6.9,742.4,6.9z
		 M739.8,1.8h7.6c0.3,0,0.4,0.1,0.4,0.3c0,0.4-0.1,0.7-0.3,0.9c-0.3,0.3-0.6,0.4-1,0.4c-0.2,0-0.6-0.1-1.3-0.2
		c-0.7-0.1-1.5-0.1-2.3-0.1c-1.4,0-2.4,0.1-3.1,0.3c-0.4,0.1-0.6,0.2-0.7,0.2c-0.5,0-0.8-0.3-0.9-0.8c0-0.3,0.2-0.5,0.4-0.8
		C739.1,1.9,739.4,1.8,739.8,1.8z"/>
	<path class="st0" d="M765.5,12.7c0,0.6-0.6,1.6-1.8,3.1c-1.3,1.6-2.3,2.4-3.1,2.4c-0.7,0-1.4-0.4-2.2-1.3c-1.4-1.6-2.1-4.6-2.1-8.9
		c0-2.2,0.1-3.5,0.3-4c0.2-0.4,0.5-0.6,0.9-0.6c0.6,0,0.9,0.3,0.9,0.9c0,0.1-0.1,0.6-0.2,1.5c-0.2,1.7-0.3,3.2-0.3,4.6
		c0,1.8,0.3,3.2,1,4.2c0.6,0.9,1.1,1.4,1.7,1.4c0.6,0,1.4-0.6,2.6-1.8c1.2-1.2,1.8-1.8,2-1.8C765.4,12.3,765.5,12.4,765.5,12.7z
		 M776.1,11.9c-0.1,0.4-0.4,0.8-0.9,1.4c-0.5,0.5-1,0.8-1.4,0.8c-0.6,0-1.5-1-2.7-2.9c-1.2-1.9-1.8-3.2-1.8-3.9
		c0-0.3,0.1-0.4,0.4-0.4c0.2,0,0.6,0.4,1.2,1.1c0.6,0.8,1.4,1.5,2.2,2.2c0.8,0.7,1.6,1.1,2.3,1.3c0.2,0.1,0.4,0.1,0.4,0.1
		C776,11.7,776.1,11.8,776.1,11.9z"/>
	<path class="st0" d="M798.8,16.3c-0.1,0.3-0.4,0.8-0.9,1.4c-0.5,0.6-0.9,0.9-1.2,0.9c-0.4,0-1.2-0.3-2.3-1c-0.7-0.4-1.4-0.9-2-1.3
		c-0.5-0.3-1.3-0.7-2.3-1.1c-0.2,2.3-1.6,3.5-4.3,3.5c-1,0-1.9-0.2-2.7-0.6c-0.9-0.5-1.4-1.3-1.4-2.2c0-1,0.5-1.8,1.5-2.2
		c0.8-0.4,1.7-0.6,2.8-0.6c0.7,0,1.6,0.1,2.5,0.3c0-0.4,0-1,0-1.8c0-0.9,0-1.5,0-1.7c0,0,0-0.1,0-0.1c0-0.1,0-0.1,0-0.1
		c-1.8,0.1-3.4,0.2-4.5,0.4c-0.1,0-0.2,0.1-0.4,0.1c-0.2,0.1-0.3,0.1-0.4,0.1c-0.5,0-0.7-0.3-0.7-0.9c0-0.6,0.5-1,1.6-1.1
		c0.8-0.1,2.3-0.2,4.5-0.2c0-0.9-0.1-2.1-0.1-3.4c-1.6,0-2.5,0.1-2.7,0.1c-1,0.1-1.9,0.2-2.6,0.4c-0.7,0.2-1.1,0.3-1.1,0.3
		c-0.6,0-1-0.3-1-1c0-0.2,0.1-0.4,0.3-0.6c0.2-0.3,2.6-0.4,7.1-0.4c-0.1-1.3-0.1-2-0.1-2.2c0-0.7,0.3-1,0.9-1c0.7,0,1.1,0.3,1.1,1
		c0,0.6,0,1.4-0.1,2.2c3.4,0.2,5.7,0.2,6.8,0.2c0.4,0,0.6,0.1,0.6,0.2c0,0.3-0.1,0.7-0.4,1.1c-0.3,0.4-0.6,0.7-0.9,0.7
		c0.1,0-0.4-0.1-1.4-0.4c-1-0.3-2.6-0.4-4.8-0.6c0,1.2-0.1,2.3-0.1,3.4c2.1,0,4,0.1,5.6,0.3c0.1,0,0.3,0,0.3,0.1
		c0.1,0.1,0.1,0.1,0.2,0.2c-0.1,0.3-0.2,0.6-0.3,0.9c-0.2,0.4-0.4,0.6-0.6,0.6c-0.1,0-0.6-0.1-1.8-0.3c-1-0.2-2.1-0.3-3.3-0.3
		c0,0.2,0,1.6-0.1,4.1c1.7,0.5,3.4,1,4.9,1.6c1,0.4,2.1,0.6,3.2,0.7C798.6,16,798.8,16.1,798.8,16.3z M788.5,14.6
		c-1.1-0.3-2.1-0.5-2.9-0.5c-1.9,0-2.9,0.6-2.9,1.7c0,0.5,0.4,0.9,1.1,1.1c0.5,0.2,1,0.4,1.6,0.4c1,0,1.7-0.2,2.2-0.6
		C788.1,16.2,788.4,15.5,788.5,14.6z"/>
	<path class="st0" d="M824.5,4.8c-0.1,0.4-0.4,0.9-0.8,1.5c-0.5,0.6-0.9,0.9-1.3,1c-0.4-0.1-0.9-0.4-1.6-0.6c-1.5-0.6-3.2-1-5.1-1.1
		c0,1.1,0,2.6-0.1,4.7c0.5,1.3,0.8,2.2,0.8,2.8c0,1.2-0.4,2.3-1.1,3.3c-0.7,1-1.6,1.7-2.7,2.2c-1.3,0.7-2.4,1-3.2,1
		c-0.4,0-0.9-0.2-1.4-0.7c-0.5-0.5-0.7-1-0.7-1.4c0-0.2,0.3-0.3,0.9-0.3c1.6-0.1,2.8-0.3,3.5-0.5c1.3-0.4,2.2-1.1,2.7-2
		c0.4-0.7,0.6-1.3,0.6-1.7c0,0,0-0.1,0-0.2c0-0.1,0-0.2,0-0.2c-0.4,0.6-0.8,1.1-1.5,1.4c-0.7,0.4-1.3,0.5-2,0.5
		c-0.9,0-1.8-0.3-2.5-1c-0.7-0.6-1.1-1.4-1.1-2.2c0-1,0.4-1.8,1.3-2.4c0.7-0.5,1.6-0.7,2.7-0.7c0.8,0,1.6,0.2,2.4,0.6
		c0-0.5,0-1.6-0.1-3.3c-2.8,0-5.3,0.4-7.6,1.1c-1.3,0.4-2,0.6-2.1,0.6c-0.6,0-0.9-0.3-0.9-1c0-0.6,0.7-1.1,2.2-1.3
		c0.9-0.1,1.8-0.2,2.8-0.3c1.6-0.2,3.5-0.3,5.6-0.3c-0.1-1.8-0.2-2.7-0.2-2.8c0-0.8,0.3-1.1,0.9-1.1c0.7,0,1,0.5,1,1.5
		c0,0.3,0,0.7-0.1,1.3c0,0.5-0.1,0.9-0.1,1.2c3.2,0.2,5.9,0.3,8.3,0.3C824.3,4.6,824.4,4.6,824.5,4.8z M814.1,10.3
		c-0.6-0.8-1.4-1.2-2.4-1.2c-0.6,0-1.2,0.1-1.7,0.4c-0.6,0.4-0.8,0.8-0.8,1.4c0,0.6,0.2,1,0.6,1.4c0.4,0.3,0.9,0.5,1.5,0.5
		C813,12.9,813.9,12,814.1,10.3z"/>
	<path class="st0" d="M835.8,17.1c0,0.9-0.3,1.7-1,2.4c-0.6,0.6-1.4,1-2.4,1c-0.9,0-1.7-0.3-2.4-1c-0.7-0.7-1-1.4-1-2.4
		s0.3-1.7,1-2.4c0.7-0.7,1.4-1,2.4-1c1,0,1.7,0.3,2.4,1C835.4,15.4,835.8,16.1,835.8,17.1z M834.7,17.1c0-0.6-0.2-1.2-0.7-1.7
		c-0.4-0.4-1-0.6-1.6-0.6c-0.6,0-1.2,0.2-1.6,0.6c-0.4,0.5-0.7,1-0.7,1.7s0.2,1.2,0.7,1.6c0.5,0.5,1,0.7,1.6,0.7
		c0.6,0,1.2-0.2,1.6-0.7C834.5,18.2,834.7,17.7,834.7,17.1z"/>
</g>
</svg>
