<?xml version="1.0" encoding="utf-8"?>
<!-- Generator: Adobe Illustrator 24.0.3, SVG Export Plug-In . SVG Version: 6.00 Build 0)  -->
<svg version="1.1" id="レイヤー_1" xmlns="http://www.w3.org/2000/svg" xmlns:xlink="http://www.w3.org/1999/xlink" x="0px"
	 y="0px" viewBox="0 0 237.9 142.9" style="enable-background:new 0 0 237.9 142.9;" xml:space="preserve">
<style type="text/css">
	.st0{fill:#9E9075;}
	.st1{fill:#5E4940;}
	.st2{fill:#705D53;}
	.st3{fill:#AF523D;}
	.st4{fill:#D7CBAC;}
	.st5{fill:#D5B792;}
</style>
<g>
	<g>
		<path class="st0" d="M46.6,51.4c1-1.2,2-2.7,2.3-4.2c0.9,0,1.9-0.3,2.7-0.9c0.5-0.4-0.2-1-0.7-0.7c-1.2,1-3.3,0.8-4.7-0.2
			c-0.5-0.3-1,0.5-0.5,0.8c0.7,0.5,1.5,0.8,2.2,1c-0.8,3.4-4.3,6.3-6.8,8.4c0,0-0.1,0-0.1,0.1c0.3,0.1,0.6,0.2,0.9,0.3
			c0.3-0.2,0.6-0.3,0.8-0.4C44.1,54.1,45.5,52.8,46.6,51.4z"/>
	</g>
	<g>
		<path class="st0" d="M172.7,38.9C158,35.2,93,37,76.2,23.8c-1.5-1.1,3.8-21.1-0.8-21.2c-4.5-0.1-10.9,12.9-10.9,12.9
			s-15.2-1.8-18.4-1.8c0,0,1.6-12.4-1.3-13.7c-2.8-1.3-8.4,14.8-9.1,15.2c-1.7,1-19.6,4.3-29.5,8.3c0.5,3.7-1.5,7.3-4.5,9.8
			C8.3,43,30.2,52.1,41.1,55.5c0,0,0.1,0,0.1-0.1c2.5-2.1,6-5,6.8-8.4c-0.8-0.1-1.6-0.5-2.2-1c-0.5-0.3,0-1.2,0.5-0.8
			c1.4,1,3.5,1.2,4.7,0.2c0.5-0.4,1.1,0.3,0.7,0.7c-0.8,0.6-1.7,0.9-2.7,0.9c-0.3,1.6-1.3,3-2.3,4.2c-1.2,1.4-2.5,2.7-3.9,4
			c-0.2,0.1-0.4,0.3-0.8,0.4c1.2,0.4,2.3,0.6,3.2,0.9c10.4,2.9,16.7,11.7,21.6,20.1c0.1,0.3,10.9,31.7,11.8,43.1
			c0.8,10.5-6.6,20.1-0.8,21.5c8.4,2,14.5-8.8,15.2-19.6c0.7-10.9,2.8-28.1,5.8-29c3.1-0.9,0.5,18.4,0.6,25.5
			c0.2,13.9-4.6,20.1-0.5,23.5c5.7,4.7,12.4-5.8,15.3-18.3c2.6-11,6.9-27.6,7.9-31.4c7.7,0,19.6-0.3,31.6-1.5
			c2.7,9.6,4,18.7,5.1,26.1c1.5,10.4-4.5,20.6,1,21.5c7.8,1.4,12.6-9.8,12.4-20.7c-0.2-10.9,0.3-28.2,3-29.4
			c2.8-1.2,3.6,20.4,3.6,27.6c0,11.7-3.5,18.2,0.5,21.2c5.6,4.3,10.9-6.7,12.6-19.3c1.2-9.3,3.2-25.1,3.4-40
			C195.6,54.3,187.5,42.7,172.7,38.9z"/>
	</g>
	<g>
		<g>
			<path class="st1" d="M55,33.3c-1.3,1.1-3.1,2.2-4.9,2.3c-3.1,0.1-1.4-3.5-0.3-4.7c0.5-0.6-0.3-1.4-0.8-0.8
				c-1.5,1.8-3.1,5.1-0.2,6.5c2.3,1.1,5.3-0.9,7.1-2.3C56.4,33.6,55.6,32.8,55,33.3L55,33.3z"/>
		</g>
	</g>
	<g>
		<path class="st2" d="M6.4,23.6c-3.8,1.6-6.5,3.2-6.4,4.9c0.1,1.6,0.7,3.3,1.8,4.9C4.8,30.9,6.8,27.2,6.4,23.6z"/>
	</g>
	<g>
		<g>
			<path class="st1" d="M37.7,23.5c-1.2,1.1-2.7,2.2-4.3,2.6c-1.5,0.4-3-0.5-2.6-2.2c0.2-0.8,0.8-1.6,1.4-2.1
				c0.5-0.5-0.3-1.4-0.8-0.8c-1.7,1.6-3.1,5.3,0.1,6.2c2.5,0.8,5.3-1.3,7.1-2.9C39.1,23.8,38.3,23,37.7,23.5L37.7,23.5z"/>
		</g>
	</g>
	<g>
		<path class="st3" d="M156.1,83.3l4.1,33.2L156.1,83.3z"/>
	</g>
	<g>
		<path class="st0" d="M237.9,105.2c0,0-10-7.4-12.5-22.5c-2.5-15-8.2-34.4-18.8-37.4c-14-4-24.8-1.6-24.8-1.6l5,7.2
			c0,0,4.8-1.7,9.5,7.7c4.7,9.4-5.1,19,11.9,35.5C219.7,105.4,229.3,107.2,237.9,105.2z"/>
	</g>
	<g>
		<path class="st1" d="M75.1,6.9c-1.3-0.2-11.7,15-7.2,16.8c1.6,0.6,5.8,0.2,6.7-2.2C75.6,19.1,77.5,7.2,75.1,6.9z"/>
	</g>
	<g>
		<path class="st1" d="M43,3.6c-1.4-0.2-5,8.3-5,11.3c0,0.5,3.1,0.6,4.5-0.9C44.5,11.8,44.4,3.7,43,3.6z"/>
	</g>
	<g>
		<path class="st4" d="M51.2,39.1c-4.1-1.6-8.8,4.1-14.1,2.5c-1.9-0.3-2.5-1.9-2.5-3.4c0-3.2,1.9-5.4,4-7.5
			c-2.2,0.2-4.3,0.1-6.6-0.3c-3.1-0.3-6-1.3-8.5-3.4c-2.6-2-3.3-5-2.7-7.8c-5.1,1.3-10.5,2.8-14.6,4.5c0.5,3.7-1.5,7.3-4.5,9.8
			C8.3,43,30.2,52.1,41.1,55.5c0,0,0.1,0,0.1-0.1c2.5-2.1,6-5,6.8-8.4c-0.8-0.1-1.6-0.5-2.2-1c-0.5-0.3,0-1.2,0.5-0.8
			c1.4,1,3.5,1.2,4.7,0.2c0.5-0.4,1.1,0.3,0.7,0.7c-0.8,0.6-1.7,0.9-2.7,0.9c-0.3,1.6-1.3,3-2.3,4.2c-1.2,1.4-2.5,2.7-3.9,4
			c-0.2,0.1-0.4,0.3-0.8,0.4c1.2,0.4,2.3,0.6,3.2,0.9c2.8,0.8,5.3,2,7.6,3.5C57.2,52.3,60.4,42.5,51.2,39.1z"/>
	</g>
	<g>
		<path class="st4" d="M189.3,77.4c-3.8,2.2-2.5-7.2-4.7-10.3c-2.2-3.8-6.9-0.9-9.1,1.6c-1.6,1.9-2.5,4.1-3.4,6.6
			c-1.6,3.8-8.1,4.7-9.7,0.3c-0.9-2.8,1.9-6.9-0.9-8.1c-8.8-3.8-11.9,8.5-18.8,12.2c-1.6,0.9-3.4,1.3-5.3,1.3c-6-0.3-8.1-6-7.8-11.3
			c0.3-2.5-3.4-3.1-5.3-1.6c-1.3,1.3-1.6,2.8-2.5,4.1c-2.8,3.4-6,6.6-10.3,7.5c-7.8,1.6-10-6.9-12.2-12.5c-0.9-2.5-5-3.8-7.8-2.5
			c-5.6,2.5-6.6,9.4-9.7,14.1c-1.6,3.1-5,5.3-8.8,5c-3-0.4-4.3-2.7-5.4-5c2.3,6.9,10.4,31.4,11.1,41.3c0.8,10.5-6.6,20.1-0.8,21.5
			c8.4,2,14.5-8.8,15.2-19.6c0.7-10.9,2.8-28.1,5.8-29c3.1-0.9,0.5,18.4,0.6,25.5c0.2,13.9-4.6,20.1-0.5,23.5
			c5.7,4.7,12.4-5.8,15.3-18.3c2.6-11,6.9-27.6,7.9-31.4c7.7,0,19.6-0.3,31.6-1.5c2.7,9.6,4,18.7,5.1,26.1c1.5,10.4-4.5,20.6,1,21.5
			c7.8,1.4,12.6-9.8,12.4-20.7c-0.2-10.9,0.3-28.2,3-29.4c2.8-1.2,3.6,20.4,3.6,27.6c0,11.7-3.5,18.2,0.5,21.2
			c5.6,4.3,10.9-6.7,12.6-19.3c1.2-9.3,3.2-25.1,3.4-40c0-2.1,0-4.2-0.1-6.1C193.7,74.1,191.7,76.1,189.3,77.4z"/>
	</g>
	<g>
		<g>
			<path class="st5" d="M98.8,38.8c-3.5-0.8-7-1.9-10.3-3.3c-0.5-0.2-1,0.7-0.4,1c3.4,1.5,6.6,3.2,10.3,3.8
				C99.3,40.4,99.8,39,98.8,38.8z"/>
		</g>
		<g>
			<path class="st5" d="M89.4,48.9c-2.4-1-4.9-1.8-7.4-2.8c-0.7-0.3-0.9,0.8-0.3,1.1c2.4,1,4.7,2.4,7.3,3.1
				C89.9,50.5,90.2,49.2,89.4,48.9z"/>
		</g>
		<g>
			<path class="st5" d="M105.3,49.5c-2.8-0.8-5.9-1.3-8.5-2.7c-0.6-0.3-1.2,0.6-0.6,1c2.8,1.5,5.6,2.7,8.6,3.6
				C106,51.7,106.5,49.8,105.3,49.5z"/>
		</g>
		<g>
			<path class="st5" d="M103.9,63c-4.1-1.8-7.9-4.3-11.3-7.1c-0.6-0.5-1.4,0.3-0.9,0.8c3.7,3,6.9,6.4,11.4,8
				C104.1,65.1,104.9,63.4,103.9,63z"/>
		</g>
		<g>
			<path class="st5" d="M126.8,40.9c-3.7-0.6-7.6,0.3-11.4-0.2c-0.7-0.1-1,1-0.3,1.1c3.8,0.6,7.8,1.6,11.7,1
				C127.7,42.6,127.8,41.1,126.8,40.9z"/>
		</g>
		<g>
			<path class="st5" d="M122.9,52.1c-3.7-0.8-7.3-2-11-3.1c-0.7-0.2-0.9,0.8-0.3,1c3.7,1.2,7,3.1,10.7,4
				C123.6,54.4,124.2,52.4,122.9,52.1z"/>
		</g>
		<g>
			<path class="st5" d="M147.1,55.8c-2.6-1.4-5-3.1-7.9-4.1c-0.7-0.2-0.9,0.8-0.3,1.1c2.7,1,4.6,3.4,7.2,4.7
				C147.2,58.1,148.2,56.4,147.1,55.8z"/>
		</g>
		<g>
			<path class="st5" d="M152,48.7c-3.8-2.1-8.3-1.9-12-4.4c-0.5-0.3-1,0.5-0.5,0.8c3.5,2.4,8,3.3,11.9,4.9
				C152.2,50.4,152.7,49.1,152,48.7z"/>
		</g>
		<g>
			<path class="st5" d="M138.1,63.7c-3.7-1.1-7.3-2.5-10.4-4.8c-0.6-0.4-1.1,0.5-0.6,0.9c3.3,2.5,6.4,4.7,10.5,5.7
				C138.8,65.8,139.3,64,138.1,63.7z"/>
		</g>
		<g>
			<path class="st5" d="M173.8,54.8c-3.5-0.6-6.9-1-10.3-1.9c-0.7-0.2-1.1,1-0.3,1.1c3.4,0.8,6.8,1.7,10.2,2.3
				C174.4,56.6,174.8,55,173.8,54.8z"/>
		</g>
		<g>
			<path class="st5" d="M161.7,45c-3.1-1.2-6.3-2-8.8-4.2c-0.6-0.5-1.5,0.3-0.9,0.8c2.7,2.4,5.7,4.1,9.2,5
				C162.3,46.9,162.7,45.4,161.7,45z"/>
		</g>
		<g>
			<path class="st5" d="M179.7,46.7c-3.7-1.6-7.8-2-11.5-3.7c-0.7-0.3-1.3,0.7-0.6,1c3.6,1.7,7.3,3.5,11.3,4.4
				C179.9,48.6,180.7,47.1,179.7,46.7z"/>
		</g>
		<g>
			<path class="st5" d="M171.7,62.7c-1-0.3-2.1-0.4-3.2-0.6c-1.2-0.3-2.3-0.8-3.4-1.3c-0.7-0.4-1.3,0.6-0.6,1.1
				c1.9,1.3,4.6,2.8,7,2.7C172.5,64.4,172.7,63,171.7,62.7z"/>
		</g>
		<g>
			<path class="st5" d="M188.6,54.5c-1.6-0.8-3.2-1.5-4.7-2.5c-0.6-0.4-1.2,0.6-0.6,1c1.5,1.1,2.9,2.4,4.7,3
				C188.8,56.3,189.4,54.9,188.6,54.5z"/>
		</g>
		<g>
			<path class="st5" d="M79,62.7c-2.2-1.8-5-2.2-7.5-3.6c-0.7-0.4-1.3,0.6-0.6,1c2.3,1.4,4.7,2.5,6.9,4.1
				C78.7,64.8,79.8,63.4,79,62.7z"/>
		</g>
		<g>
			<path class="st5" d="M76,78.7c-1.1-1.7-2.1-3.3-3.3-4.9c-0.4-0.6-1.4,0.2-1,0.8c1.1,1.6,2.1,3.2,3.1,4.8
				C75.3,80.2,76.5,79.5,76,78.7z"/>
		</g>
		<g>
			<path class="st5" d="M118.6,64.5c-2.3-2.1-4.6-4.2-7-6.2c-0.6-0.5-1.5,0.3-0.9,0.9c2.4,2.1,4.2,4.8,6.9,6.5
				C118.4,66.2,119.2,65.1,118.6,64.5z"/>
		</g>
		<g>
			<path class="st5" d="M150.4,65.5c-2.1-0.7-4.3-1.6-5.8-3.3c-0.6-0.7-1.6,0.3-1,1c1.8,2,3.8,3.3,6.3,4.2
				C151.1,67.9,151.6,66,150.4,65.5z"/>
		</g>
	</g>
</g>
</svg>
