<?xml version="1.0" encoding="utf-8"?>
<!-- Generator: Adobe Illustrator 24.0.3, SVG Export Plug-In . SVG Version: 6.00 Build 0)  -->
<svg version="1.1" id="レイヤー_1" xmlns="http://www.w3.org/2000/svg" xmlns:xlink="http://www.w3.org/1999/xlink" x="0px"
	 y="0px" viewBox="0 0 166.3 175.2" style="enable-background:new 0 0 166.3 175.2;" xml:space="preserve">
<style type="text/css">
	.st0{fill:#498C43;}
	.st1{fill:none;stroke:#503819;stroke-width:4.5394;stroke-miterlimit:10;}
	.st2{fill:#FFFFFF;stroke:#503819;stroke-width:5.3942;stroke-miterlimit:10;}
	.st3{fill:#503819;}
	.st4{fill:#FFFFFF;stroke:#503819;stroke-width:5.1172;stroke-miterlimit:10;}
	.st5{fill:#F5FAFC;}
	.st6{fill:none;stroke:#503819;stroke-width:5.9117;stroke-miterlimit:10;}
	.st7{fill:#E24F4A;stroke:#503819;stroke-width:3.7056;stroke-miterlimit:10;}
	.st8{fill:#C4DAE7;}
	.st9{fill:#503819;stroke:#503819;stroke-width:3.5066;stroke-miterlimit:10;}
	.st10{fill:#7AB2BF;stroke:#503819;stroke-width:3.7056;stroke-miterlimit:10;}
	.st11{fill:#FFFFFF;stroke:#503819;stroke-width:2.2998;stroke-miterlimit:10;}
	.st12{fill:#FFFFFF;}
	.st13{fill:#F3BD49;}
	.st14{fill:none;stroke:#503819;stroke-width:2.8011;stroke-miterlimit:10;}
	.st15{fill:#7AB2BF;stroke:#503819;stroke-width:2.3661;stroke-miterlimit:10;}
	.st16{fill:url(#SVGID_1_);}
	.st17{fill:url(#SVGID_2_);}
	.st18{fill:url(#SVGID_3_);}
	.st19{fill:url(#SVGID_4_);}
	.st20{fill:url(#SVGID_5_);}
	.st21{fill:#F5FAFC;stroke:#503819;stroke-width:2.9569;stroke-miterlimit:10;}
	.st22{fill:#F5FAFC;stroke:#503819;stroke-width:2.9141;stroke-miterlimit:10;}
	.st23{fill:none;stroke:#503819;stroke-width:3.9178;stroke-miterlimit:10;}
	.st24{fill:none;stroke:#503819;stroke-width:3.6381;stroke-miterlimit:10;}
	.st25{fill:none;stroke:#503819;stroke-width:2.9887;stroke-miterlimit:10;}
	.st26{fill:none;stroke:#503819;stroke-width:3.8585;stroke-miterlimit:10;}
	.st27{fill:none;stroke:#503819;stroke-width:2.411;stroke-miterlimit:10;}
	.st28{fill:none;stroke:#503819;stroke-width:3.6627;stroke-miterlimit:10;}
	.st29{fill:none;stroke:#503819;stroke-width:3.517;stroke-miterlimit:10;}
	.st30{fill:none;stroke:#503819;stroke-width:1.6773;stroke-linecap:round;stroke-miterlimit:10;}
	.st31{fill:#78B436;stroke:#503819;stroke-width:2.8649;stroke-miterlimit:10;}
</style>
<g>
	<g>
		<g>
			<path class="st0" d="M143.4,138.7V87.3c0-4.7-4.2-8.4-9.4-8.4h-31.4c-5.2,0-9.4,3.8-9.4,8.4v51.4"/>
			<path class="st1" d="M150.4,140.4V78.3c0-5.6-4.7-10.2-10.5-10.2h-35.1c-5.8,0-10.5,4.6-10.5,10.2v62.1"/>
			<g>
				<g>
					<g>
						<g>
							<path class="st2" d="M101.6,96.1C88.4,96.8,77.5,86,78.1,72.7c0.6-11.3,9.8-20.6,21.1-21.1c13.2-0.7,24.1,10.2,23.5,23.4
								C122.1,86.3,112.9,95.6,101.6,96.1z"/>
						</g>
					</g>
				</g>
				<g>
					<g>
						<g>
							<path class="st3" d="M100,92.7c-9,0.5-16.3-7.2-15.9-16.5c0.4-8,6.6-14.5,14.3-14.9c9-0.5,16.3,7.2,15.9,16.5
								C113.9,85.8,107.6,92.3,100,92.7z"/>
						</g>
					</g>
				</g>
			</g>
			<polyline class="st4" points="163.7,175.2 163.7,140.9 3.1,140.9 3.1,173.9 			"/>
			<path class="st5" d="M63.3,137.2c0-21.2,17.2-38.3,38.3-38.3s38.3,17.2,38.3,38.3"/>
			<path class="st3" d="M67.5,136.5c0-17.8,14.3-32.2,32-32.2s32,14.4,32,32.2"/>
			<path class="st6" d="M61,137.2c0-22.4,17.7-40.6,39.5-40.6s39.5,18.2,39.5,40.6"/>
			
				<rect x="60" y="131.9" transform="matrix(-1 -1.224647e-16 1.224647e-16 -1 181.4994 272.5021)" class="st7" width="61.4" height="8.8"/>
			
				<rect x="15" y="151.4" transform="matrix(-1 -1.224647e-16 1.224647e-16 -1 170.4102 325.2549)" class="st8" width="140.4" height="22.4"/>
			<path class="st9" d="M118.2,140.1c0-7.2,5.9-13.1,13.1-13.1c7.2,0,13.1,5.9,13.1,13.1H118.2z"/>
			
				<rect x="60" y="131.9" transform="matrix(-1 -1.224647e-16 1.224647e-16 -1 181.4994 272.5021)" class="st10" width="61.4" height="8.8"/>
			
				<rect x="60" y="126.9" transform="matrix(-1 -1.224647e-16 1.224647e-16 -1 180.8089 261.3865)" class="st11" width="60.8" height="7.6"/>
			<g>
				<g>
					<g>
						<g>
							<g>
								<path class="st12" d="M42.5,19.1C25.6,19,16.9,38.3,26.7,49c6.6,7.2,4.5,13.6,4.5,13.6h20.3c-2.4-7.6,1.5-9.8,2.7-11.8
									C67.1,36.8,58.3,19.2,42.5,19.1z"/>
							</g>
							<g>
								<path class="st13" d="M49.4,51.1c-1.1,1.3-5,3.4-3.5,9.4H35.1c0,0,0.8-5.1-3.4-10.9c-4.2-5.7-3.9-14.9,1.1-20.1
									c2.4-2.5,5.7-3.9,9.1-3.8c2.2,0.1,4.3,0.6,6.2,1.7c3,1.7,5.2,4.9,5.8,8.3c0.7,3.8,0.1,7.8-1.5,11.3
									C51.7,48.4,50.4,50,49.4,51.1"/>
							</g>
							<g>
								<path class="st14" d="M42.5,19.1c-18.7,0-25.7,19.2-15.8,29.9c6.6,7.2,4.5,13.6,4.5,13.6h20.3c-2.4-7.6,1.5-9.8,2.7-11.8
									C67.1,36.8,55.3,19.1,42.5,19.1z"/>
							</g>
						</g>
					</g>
					<g>
						<g>
							<path class="st3" d="M37.3,62.2c0-4.7,0-9.3-0.1-14c-0.1-1.9,0.5-5.4-1.2-6.9c-2.5-2.2-4.9,0.7-3.7,3.3
								c1.7,3.6,7.2,3.4,9.7,0.8c1.6-1.7,3-7.4-1.3-6.2c-3.8,1.1-2.8,5.6-0.3,7.3c2.6,1.7,9.1,1.6,10.2-2.1c0.9-3.2-3.3-4.4-5.4-2.7
								c-2.1,1.6-1.8,4.5-1.8,6.8c0,4.7,0.3,9.4,0.5,14.2c0,1,1.6,1,1.6,0c-0.2-3.8-0.4-7.7-0.5-11.5c0-0.4-0.4-6.5,1.3-5.3
								c-0.7,0.1-1.3,0.2-2,0.2c-2.7,0.3-3.7-0.5-2.9-2.5c-2.2,2.6-4.3,3-6.2,1c-2.4-1.6-2.3-1.5,0.3,0.1c0.6,1,0.1,4,0.2,5.2
								c0.1,4.1,0,8.2,0,12.2C35.7,63.2,37.3,63.2,37.3,62.2L37.3,62.2z"/>
						</g>
					</g>
				</g>
				<path class="st15" d="M54.3,67.7H29c-0.4,0-0.8-0.4-0.8-0.8v-3.2c0-0.4,0.4-0.8,0.8-0.8h25.3c0.4,0,0.8,0.4,0.8,0.8v3.2
					C55.1,67.3,54.7,67.7,54.3,67.7z"/>
				<path class="st15" d="M54.3,72.4H29c-0.4,0-0.8-0.4-0.8-0.8v-3.2c0-0.4,0.4-0.8,0.8-0.8h25.3c0.4,0,0.8,0.4,0.8,0.8v3.2
					C55.1,72.1,54.7,72.4,54.3,72.4z"/>
			</g>
			<g>
				<linearGradient id="SVGID_1_" gradientUnits="userSpaceOnUse" x1="43.4355" y1="7.1859" x2="44.3055" y2="7.1859">
					<stop  offset="0" style="stop-color:#3C4451"/>
					<stop  offset="1" style="stop-color:#3C4451"/>
				</linearGradient>
				<path class="st16" d="M44.8,13.2c0.2-4,0.4-8,0.6-12.1c0.1-1.5-2.3-1.5-2.4,0c-0.2,4-0.4,8-0.6,12.1
					C42.3,14.8,44.7,14.8,44.8,13.2L44.8,13.2z"/>
			</g>
			<g>
				<linearGradient id="SVGID_2_" gradientUnits="userSpaceOnUse" x1="59.9172" y1="16.9858" x2="70.4595" y2="16.9858">
					<stop  offset="0" style="stop-color:#3C4451"/>
					<stop  offset="1" style="stop-color:#3C4451"/>
				</linearGradient>
				<path class="st17" d="M60.7,21.6c3.5-2.3,6.9-4.6,10.4-7c1.4-0.9,0.1-3.1-1.3-2.2c-3.5,2.3-6.9,4.6-10.4,7
					C58,20.3,59.3,22.5,60.7,21.6L60.7,21.6z"/>
			</g>
			<g>
				<linearGradient id="SVGID_3_" gradientUnits="userSpaceOnUse" x1="66.1964" y1="35.1127" x2="82.5341" y2="35.1127">
					<stop  offset="0" style="stop-color:#3C4451"/>
					<stop  offset="1" style="stop-color:#3C4451"/>
				</linearGradient>
				<path class="st18" d="M66.6,38.4c5.4-1.2,10.8-2.4,16.3-3.5c1.9-0.4,1.1-3.4-0.8-3c-5.4,1.2-10.8,2.4-16.3,3.5
					C63.9,35.8,64.7,38.8,66.6,38.4L66.6,38.4z"/>
			</g>
			<g>
				<linearGradient id="SVGID_4_" gradientUnits="userSpaceOnUse" x1="4.7827" y1="30.9705" x2="17.2334" y2="30.9705">
					<stop  offset="0" style="stop-color:#3C4451"/>
					<stop  offset="1" style="stop-color:#3C4451"/>
				</linearGradient>
				<path class="st19" d="M17.5,31.5c-4.1-1.2-8.2-2.4-12.4-3.5c-1.6-0.5-2.3,2-0.7,2.5c4.1,1.2,8.2,2.4,12.4,3.5
					C18.4,34.4,19.1,32,17.5,31.5L17.5,31.5z"/>
			</g>
			<g>
				<linearGradient id="SVGID_5_" gradientUnits="userSpaceOnUse" x1="17.6733" y1="13.385" x2="25.2398" y2="13.385">
					<stop  offset="0" style="stop-color:#3C4451"/>
					<stop  offset="1" style="stop-color:#3C4451"/>
				</linearGradient>
				<path class="st20" d="M26,16.4c-2.4-2.6-4.9-5.2-7.3-7.8c-1.2-1.2-3,0.6-1.8,1.8c2.4,2.6,4.9,5.2,7.3,7.8
					C25.4,19.4,27.2,17.6,26,16.4L26,16.4z"/>
			</g>
		</g>
	</g>
	<g>
		<path class="st12" d="M71.5,138.5H2.8c-1.4,0-2.6-1.2-2.6-2.6v-10.5c0-1.4,1.2-2.6,2.6-2.6h68.7V138.5z"/>
		<path class="st21" d="M64.6,106.1H11.7c-1.2,0-2.2-1-2.2-2.2v-8.8c0-1.2,1-2.2,2.2-2.2h52.9V106.1z"/>
		<path class="st22" d="M60.6,91.9H17.7c-1,0-1.7-0.8-1.7-1.7v-7c0-1,0.8-1.7,1.7-1.7h42.9V91.9z"/>
		<path class="st8" d="M62.3,104.8H18.4c-1.9,0-3.4-1.5-3.4-3.3v-1.3c0-1.8,1.5-3.3,3.4-3.3h43.9"/>
		<path class="st8" d="M58.4,90.4H22.6c-1.5,0-2.7-0.9-2.7-2.1v-0.8c0-1.2,1.2-2.1,2.7-2.1h35.8"/>
		<path class="st8" d="M70.5,130.7v0.8c0,2.1-1.7,3.9-3.9,3.9H9.3c-2.1,0-3.9-1.7-3.9-3.9v-0.8c0-2.1,1.7-3.9,3.9-3.9h57.4
			C68.8,126.9,70.5,128.6,70.5,130.7z"/>
		<path class="st23" d="M69.7,138.5H4.6c-1.4,0-2.6-1.2-2.6-2.6v-10.5c0-1.4,1.2-2.6,2.6-2.6h65.2V138.5z"/>
		<line class="st24" x1="19" y1="93.3" x2="19" y2="106.1"/>
		<line class="st25" x1="24" y1="82.5" x2="24" y2="92.6"/>
		<line class="st26" x1="12.3" y1="123" x2="12.3" y2="137.4"/>
		<line class="st27" x1="22.3" y1="131.2" x2="62.3" y2="131.2"/>
		<path class="st12" d="M67.7,122.8H8.6c-1.4,0-2.5-1.1-2.5-2.5v-10.1c0-1.4,1.1-2.5,2.5-2.5h59.1V122.8z"/>
		<path class="st8" d="M66,119.8H12.6c-0.7,0-1.2-0.5-1.2-1.2v-4.9c0-0.7,0.5-1.2,1.2-1.2H66c0.7,0,1.2,0.5,1.2,1.2v4.9
			C67.2,119.2,66.7,119.8,66,119.8z"/>
		<path class="st28" d="M67.7,122.8H8.6c-1.4,0-2.5-1.1-2.5-2.5v-10.1c0-1.4,1.1-2.5,2.5-2.5h59.1V122.8z"/>
		<line class="st29" x1="16.5" y1="107.9" x2="16.5" y2="121.7"/>
		<line class="st30" x1="29.6" y1="99.6" x2="53" y2="99.6"/>
		<polygon class="st31" points="33.8,100 33.8,124.4 38.9,118.6 44.5,125 44.5,100 		"/>
	</g>
</g>
</svg>
