<?xml version="1.0" encoding="utf-8"?>
<!-- Generator: Adobe Illustrator 24.0.3, SVG Export Plug-In . SVG Version: 6.00 Build 0)  -->
<svg version="1.1" id="レイヤー_1" xmlns="http://www.w3.org/2000/svg" xmlns:xlink="http://www.w3.org/1999/xlink" x="0px"
	 y="0px" viewBox="0 0 182.4 156.3" style="enable-background:new 0 0 182.4 156.3;" xml:space="preserve">
<style type="text/css">
	.st0{fill:#F5B91B;}
	.st1{fill:#F7BF96;}
	.st2{fill:#1CAEBB;}
	.st3{fill:#087877;}
	.st4{fill:#88705C;}
	.st5{fill:#463C38;}
	.st6{fill:#B19C89;}
	.st7{fill:#AB9075;}
	.st8{fill:#705D53;}
	.st9{fill:#5EC2D3;}
	.st10{fill:#EE7A64;}
	.st11{fill:#A4DAF4;}
	.st12{fill:#C4AA95;}
	.st13{fill:#5E4940;}
	.st14{fill:#89CFDE;}
	.st15{fill:#705C51;}
</style>
<g>
	<g>
		<path class="st0" d="M173.3,126.2c0.1-8-88-0.2-86.7,6c0,0-3.1,3.7,9.2,17.1c4.2,4.5,19.4,7.8,34.7,6.8c13.8-0.9,24.9-4.3,28.5-7
			C164.5,144.9,173.1,134.5,173.3,126.2z"/>
	</g>
	<g>
		<path class="st1" d="M86.1,133.3c-3-22,86.7-24.3,87.2-7C173.8,148.9,89.3,157.1,86.1,133.3z"/>
	</g>
	<g>
		<path class="st2" d="M167.1,128.4c-4.6-2.7-13.2-5.2-19.4-5.9c-13.9-1.3-24.7-0.3-38.2,3.5c-15.9,4.5-20.4,11.4-21,12.4
			c12.3,15.3,69.6,10.3,82.4-5.4C170,131.1,168.5,129.2,167.1,128.4z"/>
	</g>
	<g>
		<path class="st3" d="M121.2,125.8c-1.3-3.2-2.6-5.1-6.8-7.5c-1.6-0.9-5.6,5.9-11.5,5.9c-1.3,0-0.9,4.6,1,9.3l0.9,0.4
			C107.3,135.2,122.5,129,121.2,125.8z"/>
	</g>
	<g>
		<path class="st4" d="M82.6,95.8c-1.9-1.6-3.7-2.9-6-3.2c-6.9-1.3-13.7-5-20.6-4.1c4,12.1,12.1,18.5,12.6,21.1
			c1.1,6.7-3.2,11.5-1.9,13.5c2.2,3.5,11.3,6.6,11.2,4.2c-0.1-2.4-4.3-6.4-4.3-6.4c1-0.7,8.5-4.2,11.1-17.1c0.1-0.7,0.2-1.4,0.3-2.1
			c-0.5-1.4-0.9-2.8-1.1-4.2C83.8,96.8,83.2,96.3,82.6,95.8z"/>
	</g>
	<g>
		<path class="st5" d="M25.7,0c0,0-4.6,25.1-1.3,38.7c5.6,22.4,17.1,19.4,26.5,19.9c9.4,0.4,2.1,15-4.5,18.4
			C39.8,80.3,22,89.3,9.9,76.3c-7.2-7.7-13.2-22.4-7.7-41C8.6,13.8,15.8,7,25.7,0z"/>
	</g>
	<g>
		<g>
			<path class="st6" d="M34.9,56.2c-3.7,2.9-8,5.1-10.1,10c-1.7,3.8-3.4,7.7-4.5,11.7c-0.4,1.5-0.8,2.8-1,4.2
				c4.3,1.3,8.8,1,12.9,0.2c0.2-8.6,2.4-17.1,5.9-24.8C37,57.2,36,56.8,34.9,56.2z"/>
		</g>
		<g>
			<path class="st6" d="M11,14.7C9.6,16.8,8.3,19.2,7,22c5.4-1.4,10.9-1.8,16.2-0.3c0.1-2.2,0.2-4.4,0.4-6.5
				C19.6,14,15.2,13.9,11,14.7z"/>
		</g>
		<g>
			<path class="st6" d="M24.6,6.9C25.2,2.8,25.7,0,25.7,0c-2.8,2-5.3,4-7.7,6.2C20.2,6.1,22.5,6.3,24.6,6.9z"/>
		</g>
		<g>
			<path class="st6" d="M23.3,31.5C16.1,31.4,9,31.7,2.2,35.9C2.1,35.9,2,36,1.9,36C0.4,41.3-0.1,46.3,0,50.9
				C6.9,44.5,15.4,40,24.5,39c0-0.1-0.1-0.3-0.1-0.4C23.8,36.5,23.5,34.1,23.3,31.5z"/>
		</g>
		<g>
			<path class="st6" d="M26.5,45.4c-10,4.3-19.3,10.7-22.4,22.3c1.7,3.4,3.7,6.3,5.8,8.6c0.2,0.2,0.4,0.4,0.6,0.6
				c3.1-11.4,9.9-20.1,19-25.8C28.4,49.5,27.4,47.6,26.5,45.4z"/>
		</g>
	</g>
	<g>
		<path class="st7" d="M115.8,86.1c-3.6-10-7-15.6-11.5-21.4c0,0-26.2-26.3-45.7-21.4c-16.9,4.3-25.8,20.1-23.9,38.5
			c2.4,22.6,18.8,31.2,19.9,34.6c2,6.4-1.6,11.8,0,13.7c2.6,3.1,12.1,4.9,11.7,2.6c-0.4-2.4-5.1-5.7-5.1-5.7
			c0.9-0.9,7.8-5.4,8.5-18.5c0.2-3.3-0.4-6.1-0.4-6.1s5.8,3.3,11.5,5.1c4.1,1.3,5.9,3,8.5,6C96,121,97,125.6,103.6,127
			c5.6,1.2,6-1.9,3.8-3.8c-2.1-1.9-3.3-3.5-5.6-6.4c-2-2.6-4.6-7.5-3.8-9.9c1.9-5.9,8.2-7.4,10-3.2c4,9.5,3.7,12,3.3,13.9
			c-0.4,1.9-0.6,6.2,1.7,5.6c2.4-0.6,5.7-4.6,5.7-14C118.7,99.6,119.4,96.1,115.8,86.1z"/>
	</g>
	<g>
		<g>
			<path class="st8" d="M82.9,57.5c-3.3,8.8,9.1,8.3,9.1,8.3l1-2.1C92.9,63.7,83.9,54.8,82.9,57.5z"/>
		</g>
		<g>
			<path class="st8" d="M115.8,44.8c-3.5-2.9-8.8,10-8.8,10l2.3,1.3C111.5,55.4,119.6,47.8,115.8,44.8z"/>
		</g>
	</g>
	<g>
		<path class="st9" d="M131.2,109.4c0,0-4.2-13.7,4.5-12.4C140.8,97.8,132.8,102.6,131.2,109.4z"/>
	</g>
	<g>
		<path class="st10" d="M84.1,60.2c-0.7,3.4,5.4,4.7,5.4,4.7l0.5-1.2C90,63.7,84.2,59.6,84.1,60.2z"/>
	</g>
	<g>
		<path class="st10" d="M114.5,47.8c-0.8-0.6-5.3,6-5.3,6l0.8,0.4C111.3,53.9,116.3,49.3,114.5,47.8z"/>
	</g>
	<g>
		<path class="st9" d="M164.9,99.5c-6.3-6.8-13,9.2-13,9.2C158.7,101.6,168.7,103.6,164.9,99.5z"/>
	</g>
	<g>
		<path class="st11" d="M163.7,77.5c-5.8-7.6-10.3,11.3-10.3,11.3C159.2,80.2,166.7,81.5,163.7,77.5z"/>
	</g>
	<g>
		<path class="st12" d="M135.5,64.5c0.4-1.1,4.5-0.6,4.5-0.6c-13.8-9.5-21.3-11.2-31.9-10.4c-10.7,0.9-19.2,8.9-21.9,16.3
			c-5.4,15-3.3,22.2-3.3,22.2s1.5-1.9,4.2-3.2c0,0-0.5,2.6,0.5,5.7c0,0,5.7-5,17-2.7c1.6,0.3,3.8,0.8,6.1,1.3c-1.6-1.3-3-3-4.1-4.8
			c-0.7,0.4-1.4,0.7-2.2,0.7c-0.5,0-0.5-0.7-0.1-0.7c1.4,0,2.6-0.9,3.3-2c0.3-0.4,0.8,0.1,0.5,0.5c-0.3,0.4-0.6,0.8-1,1.2
			c1.3,2.1,3,4.1,5.1,5.6c3.7,0.7,7.5,1.4,9.8,1.4c2.7,0,2.2-6.6,6-13c6.6-11.2,12.1-15.3,12.1-15.3
			C138.4,65.2,135.5,64.5,135.5,64.5z"/>
	</g>
	<g>
		<path class="st13" d="M107.1,87.9c0.4-0.4,0.8-0.8,1-1.2c0.3-0.4-0.3-0.9-0.5-0.5c-0.7,1.1-1.9,2.1-3.3,2c-0.5,0-0.4,0.7,0.1,0.7
			c0.8,0,1.6-0.2,2.2-0.7c1.1,1.8,2.5,3.5,4.1,4.8c0.5,0.1,1,0.2,1.6,0.3C110.1,92,108.4,90,107.1,87.9z"/>
	</g>
	<g>
		<path class="st14" d="M146.8,67.3c-8.5-2.5-3,14.5-3,14.5C145.1,72.3,152.6,69,146.8,67.3z"/>
	</g>
	<g>
		<path class="st14" d="M141.5,95.5c0,0,2-12.7,8.5-8.2C153.8,89.9,145.5,90.7,141.5,95.5z"/>
	</g>
	<g>
		<path class="st9" d="M169.6,107.9c0,0,15.3-3.5,12.4,3.8C180.8,114.9,176.4,109.2,169.6,107.9z"/>
	</g>
	<g>
		<g>
			<path class="st14" d="M107.1,135.4c-1.4-0.1-2.9-0.1-4.3-0.4c-0.6-0.1-0.9,0.8-0.3,0.9c1.5,0.3,3,0.6,4.5,0.5
				C107.7,136.4,107.7,135.4,107.1,135.4z"/>
		</g>
		<g>
			<path class="st14" d="M112.6,136.9c-1.8,0.4-3.6,1.1-5.4,1.6c-0.6,0.2-0.4,1,0.2,0.9c1.9-0.4,3.8-0.9,5.5-1.6
				C113.5,137.6,113.2,136.7,112.6,136.9z"/>
		</g>
		<g>
			<path class="st14" d="M119.8,131.6c-0.7,0.4-1.4,0.8-2,1.3c-0.5,0.4,0,1.1,0.5,0.7c0.6-0.4,1.3-0.8,1.9-1.2
				C120.7,132,120.3,131.3,119.8,131.6z"/>
		</g>
		<g>
			<path class="st14" d="M124.7,126.1c-0.2,0.9-0.7,1.7-1.3,2.4c-0.5,0.6,0.3,1.4,0.8,0.8c0.7-0.9,1.1-1.9,1.3-3
				C125.6,125.8,124.8,125.5,124.7,126.1z"/>
		</g>
		<g>
			<path class="st14" d="M129.6,126.5c-0.2,1.7-1.5,2.9-2.7,4.1c-0.4,0.4,0.1,1.1,0.6,0.8c1.6-1.1,2.6-2.9,2.8-4.9
				C130.4,126,129.7,126,129.6,126.5z"/>
		</g>
		<g>
			<path class="st14" d="M122,136.9c-0.8,0.7-1.7,1.2-2.5,1.8c-0.5,0.4-0.1,1.3,0.5,0.9c1-0.6,2-1.2,2.9-1.9
				C123.4,137.3,122.6,136.4,122,136.9z"/>
		</g>
		<g>
			<path class="st14" d="M99.4,137.4c-0.1-0.8-0.1-1.5,0-2.3c0.1-0.5-0.7-0.6-0.8-0.1c-0.2,0.9-0.2,1.8,0,2.6
				C98.6,138.2,99.5,138,99.4,137.4z"/>
		</g>
		<g>
			<path class="st14" d="M99.1,141c-1.7-0.4-3.7-1.1-4.6-2.7c-0.3-0.6-1.1-0.1-0.8,0.5c1,2.1,2.9,3.1,5.1,3.5
				C99.6,142.4,99.9,141.2,99.1,141z"/>
		</g>
		<g>
			<path class="st14" d="M132.4,138.1c-2.5,1.5-5.2,2.9-7.8,4.2c-0.5,0.3-0.1,1,0.4,0.8c2.7-1.2,5.3-2.5,7.9-4.1
				C133.5,138.6,133,137.7,132.4,138.1z"/>
		</g>
		<g>
			<path class="st14" d="M134,130.5c-0.6,1.2-1.4,2.4-2.1,3.6c-0.4,0.6,0.6,1.2,1,0.6c0.8-1.2,1.6-2.3,2.2-3.5
				C135.4,130.4,134.4,129.8,134,130.5z"/>
		</g>
		<g>
			<path class="st14" d="M135.1,125c-0.2-0.3-0.3-0.8-0.2-1.2c0-0.3-0.1-0.6-0.4-0.7c-0.3-0.1-0.6,0.1-0.7,0.4
				c-0.2,0.7-0.1,1.4,0.4,2c0.2,0.2,0.5,0.4,0.7,0.2C135.2,125.6,135.3,125.2,135.1,125z"/>
		</g>
		<g>
			<path class="st14" d="M141.5,129.1c-0.3,0.6-0.4,1.3-0.7,1.9c-0.3,0.9-0.8,1.7-1.4,2.4c-0.4,0.4,0.2,1,0.6,0.6
				c1.1-1.3,2.4-2.8,2.6-4.6C142.8,128.8,141.8,128.5,141.5,129.1z"/>
		</g>
		<g>
			<path class="st14" d="M148.5,124.9c-0.2-0.4-0.8-0.1-0.7,0.3c0.3,0.8,0.3,1.5,0.3,2.3c0,0.7-0.3,1.4-0.3,2.1c0,0.5,0.7,0.8,1,0.3
				C149.6,128.5,149.1,126.4,148.5,124.9z"/>
		</g>
		<g>
			<path class="st14" d="M143.7,124.5c0-0.6-0.8-0.6-0.9,0c0,0.2,0,0.5-0.1,0.7c0,0.3-0.1,0.6-0.1,0.9c0.1,0.3,0.5,0.4,0.7,0.2
				C143.8,125.9,143.7,125.1,143.7,124.5z"/>
		</g>
		<g>
			<path class="st14" d="M118.2,142.5c-1.4-0.3-2.8,0-4.2,0.1c-1.5,0.1-3,0.3-4.5,0.2c-0.5,0-0.5,0.8,0,0.8c1.5,0.2,3,0.2,4.5,0.2
				c1.4,0,2.9,0.1,4.2-0.2C118.7,143.5,118.8,142.6,118.2,142.5z"/>
		</g>
		<g>
			<path class="st14" d="M140.1,139.1c-1.2,1.4-2.3,2.6-3.8,3.7c-0.5,0.3-0.1,1.1,0.4,0.8c1.7-0.9,3.7-2,4.3-3.9
				C141.3,139.1,140.5,138.6,140.1,139.1z"/>
		</g>
		<g>
			<path class="st14" d="M147.6,134.5c0-0.5-0.9-0.6-0.8,0c0.1,2.1-1.1,3.8-1.6,5.8c-0.2,0.7,0.8,1.1,1.1,0.5
				C147.5,138.9,147.7,136.7,147.6,134.5z"/>
		</g>
		<g>
			<path class="st14" d="M155.4,136.5c-0.2,1.2-1.3,1.7-1.9,2.6c-0.3,0.4,0.3,0.9,0.7,0.7c1.2-0.6,1.8-1.9,2-3.1
				C156.2,136.2,155.5,136.1,155.4,136.5z"/>
		</g>
		<g>
			<path class="st14" d="M160.2,127.7c-0.1-0.4-0.8-0.4-0.8,0.1c0.1,1.3-0.5,2.7-1.1,3.8c-0.3,0.7,0.6,1.2,1,0.6
				C160.3,130.9,160.7,129.3,160.2,127.7z"/>
		</g>
		<g>
			<path class="st14" d="M154.3,128.8c-0.1-0.5-1-0.4-0.9,0.1c0.1,0.9-0.3,1.7-0.6,2.6c-0.2,0.5,0.6,0.8,0.9,0.4
				C154.4,131,154.5,129.9,154.3,128.8z"/>
		</g>
		<g>
			<path class="st14" d="M165.1,133.7c-0.6,1-1.4,1.8-2,2.7c-0.3,0.5,0.4,1,0.8,0.6c0.9-0.8,1.5-1.8,2.1-2.8
				C166.4,133.6,165.5,133.1,165.1,133.7z"/>
		</g>
		<g>
			<path class="st14" d="M166.5,129.4c-0.2-0.6-1.1-0.4-1,0.2c0.1,0.5,0.2,1.1,0.3,1.6c0,0.6,0.9,0.6,1,0
				C166.8,130.6,166.6,130,166.5,129.4z"/>
		</g>
	</g>
	<g>
		<path class="st15" d="M118.4,94.5c1.4,0.2,2.7,0.3,3.6,0.3c1.7,0,2.1-2.5,3.1-6c0,0-0.1,0-0.1,0C120.2,87.9,118,91.2,118.4,94.5z"
			/>
	</g>
	<g>
		<path class="st5" d="M116.2,64.5c-3.2,0.2-6,2.8-6.2,6.2c-1.1-1.3-3.8-2.6-5.3-2.3c-8.9,1-13.4,14.4-12.5,23.8
			c1.4-0.4,3.1-0.8,5.2-0.9c1.5-5.7,7.5-8.6,12.9-10.7c0.6-0.2,1.7-3.4,1.7-4.9c0.9-0.4,3.3,2.5,4.6,2c5.6-1.9,9.2-2.9,15.1-1.6
			c2.4-3.4,4.4-5.7,5.9-7.3C130,66.4,124.3,63.8,116.2,64.5z"/>
	</g>
	<g>
		<g>
			<path class="st6" d="M120.7,70.5c-0.3,1.2-0.7,2.6-1.5,3.5c-1.1,1.3-2.8-0.9-3.3-1.9c-0.2-0.5-0.9-0.1-0.7,0.4
				c0.6,1.3,2.3,3.2,3.9,2.5c1.4-0.6,2-2.9,2.3-4.3C121.6,70.2,120.8,70,120.7,70.5L120.7,70.5z"/>
		</g>
	</g>
	<g>
		<g>
			<path class="st6" d="M104.1,76.1c0.7,1,1.4,3-0.2,3.6c-1.2,0.4-3-0.3-4.1-0.8c-0.5-0.2-0.9,0.5-0.4,0.7c1.5,0.7,3.8,1.6,5.4,0.6
				c1.5-1,0.8-3.2,0.1-4.5C104.5,75.2,103.8,75.6,104.1,76.1L104.1,76.1z"/>
		</g>
	</g>
</g>
</svg>
