<?xml version="1.0" encoding="utf-8"?>
<!-- Generator: Adobe Illustrator 24.0.3, SVG Export Plug-In . SVG Version: 6.00 Build 0)  -->
<svg version="1.1" id="レイヤー_1" xmlns="http://www.w3.org/2000/svg" xmlns:xlink="http://www.w3.org/1999/xlink" x="0px"
	 y="0px" viewBox="0 0 182.2 29.1" style="enable-background:new 0 0 182.2 29.1;" xml:space="preserve">
<style type="text/css">
	.st0{fill:#503819;}
</style>
<g>
	<g>
		<path class="st0" d="M1.4,13.1h8.4c0.2,0,0.3,0.1,0.3,0.3c0,0.3-0.1,0.6-0.3,0.8c-0.2,0.2-0.6,0.3-0.9,0.3c-0.2,0-0.7,0-1.4-0.1
			c-0.8,0-1.6,0-2.5,0c-1.5,0-2.7,0.1-3.4,0.2c-0.4,0.1-0.7,0.2-0.8,0.2c-0.5,0-0.8-0.3-0.9-0.8c0-0.3,0.2-0.5,0.4-0.8
			C0.7,13.2,1,13.1,1.4,13.1z M2.1,22.4c0.3,0,0.5,0,0.8,0.1c0.3,0.1,0.7,0.1,1.2,0.1h1.7c0.4,0,0.8,0,1.4,0.1c0.3,0,0.6-0.1,1-0.2
			c0.5,0,0.8,0.3,0.8,0.9c0,0,0,0.1-0.1,0.1c-0.1,0.2-0.1,0.5-0.2,0.9c-0.1,0.5-0.1,1.1-0.1,1.7c0,0.3,0,0.8,0.1,1.3
			c0,0.6-0.3,0.9-0.8,0.9c-1-0.1-2-0.2-2.8-0.2c-1.1,0-1.8,0-2.1,0.1c-0.2,0-0.5,0.1-0.9,0.2c-0.5,0-0.8-0.3-0.8-0.8
			c0.1-0.9,0.2-1.6,0.2-2.3c0-0.6-0.1-1.3-0.2-2.1C1.3,22.7,1.6,22.4,2.1,22.4z M3,9.9h4.8c0.5,0,0.8,0.2,0.8,0.7
			c0,0.4-0.3,0.5-0.8,0.5c-2.1,0-3.8,0.1-5,0.2c-0.6,0-0.9-0.2-0.9-0.6C1.8,10.2,2.2,9.9,3,9.9z M3,16.3h4.7c0.5,0,0.8,0.2,0.8,0.6
			c0,0.4-0.3,0.6-0.8,0.6c-2.1,0-3.8,0.1-4.9,0.2c-0.6,0-0.9-0.2-0.9-0.7C1.8,16.5,2.2,16.3,3,16.3z M3,19.2h4.7
			c0.5,0,0.8,0.2,0.8,0.6c0,0.4-0.3,0.6-0.8,0.6c-2.1,0-3.8,0.1-4.9,0.2c-0.6,0-0.9-0.2-0.9-0.6C1.8,19.4,2.2,19.2,3,19.2z M5,26.8
			c0.5,0,1,0,1.6,0.1c0.3,0,0.4-0.1,0.4-0.3v-2.3c0-0.2-0.1-0.3-0.2-0.3c-0.7-0.1-1.8-0.1-3.2-0.1c-0.4,0-0.6,0.2-0.6,0.5
			c0,0.7-0.1,1.4-0.2,2.1c0,0.3,0.2,0.4,0.6,0.4C4,26.8,4.5,26.8,5,26.8z M20.1,9.6c0.7,0,1.1,0.4,1.1,1.2c0,0.3-0.2,0.6-0.6,0.7
			c-0.6,0.2-1.5,0.4-2.8,0.7c-1.5,0.3-3,0.5-4.6,0.7c0,0.3,0,0.6,0,0.9v1.8c1,0,1.9-0.1,2.7-0.1c1.3,0,2.5,0,3.6,0.1
			c0.9,0,1.5,0.1,1.8,0.1c0.9,0,1.8-0.1,2.6-0.3c0.3-0.1,0.5-0.1,0.7-0.1c0.2,0,0.3,0.2,0.3,0.5c0,0.5-0.2,1-0.6,1.7
			c-0.4,0.5-0.7,0.8-1,0.8c-0.3,0-0.7-0.1-1.1-0.3c-0.7-0.3-1.5-0.6-2.3-0.8c-0.3,0-0.6-0.1-0.8-0.1c0,0.1,0,0.2,0,0.3
			c-0.1,1.2-0.1,2.4-0.1,3.4V21c2,1,3.1,1.7,3.1,2c0,0.4-0.3,0.7-0.8,0.7c-0.2,0-0.5-0.1-0.9-0.3c-0.5-0.3-1-0.5-1.4-0.7l0.1,4.5
			c0,1.2-0.3,1.7-1,1.7c-0.5,0-0.8-0.6-0.8-1.7c0.1-2.1,0.1-3.9,0.1-5.3c-0.7-0.3-1.3-0.5-1.7-0.6c-1-0.2-1.4-0.6-1.4-0.9
			c0-0.6,0.4-0.9,1.1-0.9c0.1,0,0.8,0.3,2.1,0.8c0-0.9-0.1-1.9-0.1-3c0-0.2,0-0.4,0.1-0.5c-0.5,0-1-0.1-1.6-0.1
			c-0.9,0-1.8,0.1-2.7,0.3v0.1c0,1.8-0.1,3.4-0.3,4.6c-0.3,1.3-0.7,2.4-1.3,3.4c-0.4,0.6-0.6,0.9-0.8,0.9c-0.4,0-0.9-0.2-1.5-0.7
			c-0.4-0.3-0.6-0.6-0.6-0.9c0-0.3,0.2-0.5,0.5-0.5c0.4-0.1,0.7-0.3,1-0.6c0.5-0.4,0.9-1.3,1.2-2.6c0.2-1.1,0.4-2.5,0.4-4.1
			c0-1-0.1-2.3-0.2-4.1c0-0.6,0.3-0.9,0.8-0.9c0.1,0,0.3,0,0.4,0.1c1.8-0.2,3.2-0.4,4.2-0.7c1-0.3,1.9-0.7,2.9-1.2
			C19.9,9.7,20,9.6,20.1,9.6z"/>
		<path class="st0" d="M30,13.1h8.3c0-0.9-0.1-1.9-0.1-2.9c0-0.7,0.3-1.1,0.9-1.1c0.6,0,0.9,0.4,0.9,1.1c0,1-0.1,2-0.1,2.9h9.4
			c0.3,0,0.4,0.1,0.4,0.3c0,0.4-0.1,0.7-0.3,0.9c-0.3,0.3-0.6,0.4-1,0.4c-0.5,0-1.7-0.1-3.5-0.2c-1.5-0.1-3.2-0.1-5-0.1
			c0,0.4,0,0.8,0,1.3l0.2,11.6c0,1.2-0.3,1.7-1,1.7c-0.5,0-0.8-0.6-0.8-1.7c0-5,0-8.9,0-11.6c0-0.4,0-0.8,0-1.3
			c-3.3,0-5.7,0.1-7.2,0.3c-0.9,0.2-1.4,0.3-1.7,0.3c-0.6,0-0.9-0.3-1-0.9c0-0.3,0.2-0.5,0.5-0.8C29.2,13.2,29.6,13.1,30,13.1z
			 M35.4,22.7c0.3,0,0.4,0.1,0.4,0.4c0,0.2-0.1,0.4-0.2,0.7c-3,2.4-4.7,3.6-5.2,3.6c-0.8,0-1.2-0.2-1.2-0.7c0-0.6,0.1-1,0.4-1.2
			C29.7,25.3,31.6,24.4,35.4,22.7z M31.8,16.5c0.1,0,0.7,0.4,1.9,1.1c1.1,0.8,1.7,1.4,1.7,1.7c0,0.5-0.3,0.8-0.9,0.8
			c-0.1,0-0.3-0.1-0.5-0.2c-1.2-0.9-2.1-1.4-2.7-1.6c-0.5-0.2-0.8-0.4-0.8-0.7C30.6,16.9,31,16.5,31.8,16.5z M46.7,16.4
			c0.6,0,0.9,0.3,0.9,1c0,0.5-0.1,0.8-0.3,0.9c-2.3,1.3-3.4,1.9-3.5,1.9c-0.5,0-0.8-0.1-0.8-0.4c0-0.1,0.1-0.3,0.2-0.4l3.1-2.6
			C46.6,16.5,46.7,16.4,46.7,16.4z M43.5,22.2c0,0,0.1,0,0.2,0.1c1.4,0.9,2.6,1.6,3.4,1.9c0.6,0.2,1.4,0.4,2.4,0.4
			c0.2,0,0.3,0.1,0.3,0.4c0,0.4-0.2,0.7-0.7,1.1c-0.8,0.5-1.5,0.8-1.9,0.8c-0.3,0-0.5-0.1-0.8-0.3c-0.4-0.3-1.5-1.5-3.2-3.5
			c-0.1-0.1-0.2-0.3-0.2-0.4C43,22.4,43.2,22.2,43.5,22.2z M45.5,9.2c0.5,0,0.8,0.2,0.8,0.6c0,0.3,0,0.6-0.1,0.7
			c-1.5,1-2.3,1.5-2.4,1.5c-0.3,0-0.4-0.1-0.4-0.3c0-0.1,0.5-0.8,1.4-2.1C45,9.3,45.2,9.2,45.5,9.2z"/>
		<path class="st0" d="M64.2,14.1h0.2c0.4-1.5,0.6-2.8,0.7-4.1c0.1-0.6,0.3-0.9,0.8-0.9c0.6,0,1,0.3,1,1c0,0.1-0.1,0.5-0.3,1
			c-0.2,1.1-0.4,2-0.6,2.9h6.9c0.2,0,0.5-0.1,1-0.2c0.7,0,1.1,0.4,1.1,1.1c-0.5,2.2-0.9,4.4-1.1,6.7c-0.3,3.1-1,5.1-2,6
			c-0.9,0.9-2.1,1.3-3.4,1.3c-0.4,0-0.8-0.2-1.1-0.6c-0.2-0.4-0.3-0.7-0.3-1s0.1-0.5,0.4-0.5c1.9-0.1,3.1-0.5,3.6-1.2
			c0.7-0.7,1.2-2.7,1.7-6.1c0.2-2.1,0.3-3.3,0.3-3.8c0-0.3-0.1-0.4-0.3-0.4h-7c-0.5,1.7-0.9,3.1-1.4,4.1c-0.7,1.8-1.8,3.4-3.1,5
			c-1,1.3-2.4,2.4-4.2,3.4c-0.7,0.4-1.3,0.6-1.8,0.6c-0.3,0-0.6-0.2-1-0.5c-0.3-0.4-0.5-0.8-0.6-1.1c0-0.2,0.1-0.4,0.3-0.4
			c1.8-0.4,3.2-0.9,4.1-1.7c1.3-0.9,2.5-2.3,3.7-4.1c0.9-1.6,1.7-3.3,2.2-5.3c-1.3,0-2.5,0.1-3.8,0.2c-0.9,0.1-1.5,0.2-1.7,0.2
			c-0.4,0-0.7-0.2-0.7-0.5c0-0.6,0.3-1,0.9-1.1C59.6,14.1,61.5,14.1,64.2,14.1z"/>
		<path class="st0" d="M94.2,17.9c0,1.9-0.3,3.8-1,5.5c-0.9,2.4-2.1,3.6-3.7,3.6c-0.4,0-0.7-0.3-1.2-0.8c-0.4-0.6-0.6-1.1-0.6-1.4
			c0-0.2,0.4-0.3,1.2-0.4c0.9-0.1,1.5-0.3,1.8-0.6c0.7-0.5,1.2-1.6,1.6-3.2c0.3-1.3,0.5-2.6,0.5-3.7c0-1.1-0.6-1.7-1.8-1.7
			c-0.5,0-1.3,0-2.4,0.1c-0.6,2.1-1.2,3.8-1.8,5.1C86,22,85,23.5,83.7,25c-1.1,1.3-2,2-2.5,2c-0.3,0-0.8-0.2-1.3-0.6
			c-0.5-0.4-0.8-0.8-0.8-1c0-0.2,0.1-0.3,0.4-0.5c0.3-0.1,0.7-0.3,1.2-0.6c1.3-0.8,2.5-1.7,3.4-2.9c1.1-1.4,2.1-3.3,3-5.7
			c-1,0.1-2.4,0.4-4.3,0.7c-0.5,0-0.7-0.3-0.7-0.7c0-0.8,0.9-1.2,2.6-1.3c0.4,0,1.4-0.1,2.8-0.2c0.3-0.9,0.4-1.9,0.4-3
			c0-0.6,0.3-0.9,0.8-0.9c0.5,0,0.8,0.3,0.8,0.8c0,0.2-0.2,1.3-0.6,3.1c0.9,0,1.6-0.1,1.9-0.1c1.3,0,2.2,0.4,2.7,1.1
			C94,15.6,94.2,16.6,94.2,17.9z M103,17.1c0,0.3-0.3,0.7-0.8,1.4c-0.5,0.6-1,0.9-1.2,0.9c-0.6,0-1.4-0.7-2.6-2s-1.7-2.3-1.7-2.9
			c0-0.3,0.1-0.4,0.3-0.4c0.1,0,0.5,0.2,1,0.7c0.5,0.5,1.2,1,2,1.3c0.7,0.4,1.4,0.6,2.2,0.6C102.7,16.8,103,16.9,103,17.1z
			 M101.9,13.4c-0.1,0.2-0.2,0.5-0.6,0.9c-0.3,0.4-0.5,0.6-0.7,0.6c-0.3,0-0.9-0.4-1.6-1.1c-0.8-0.8-1.1-1.3-1.1-1.6
			c0-0.2,0.1-0.3,0.3-0.3c0.1,0,0.4,0.1,1,0.4c0.7,0.4,1.5,0.7,2.3,0.8C101.7,13,101.9,13.2,101.9,13.4z M104.7,11.4
			c-0.1,0.2-0.2,0.5-0.5,0.9c-0.3,0.4-0.5,0.6-0.7,0.6c-0.3,0-0.9-0.4-1.7-1.1c-0.8-0.7-1.1-1.3-1.1-1.6c0-0.2,0.1-0.3,0.3-0.3
			c0.1,0,0.4,0.2,1,0.5c0.7,0.4,1.5,0.7,2.3,0.7C104.4,11.1,104.6,11.2,104.7,11.4z"/>
		<path class="st0" d="M123.7,8.3c0.3,0,0.7,0,1,0.1c0.3,0.1,0.9,0.1,1.5,0.1h3.9c0.9,0,1.9,0.1,3.1,0.2c0.3,0,0.8-0.1,1.3-0.2
			c0.7,0,1.1,0.3,1.1,1l-0.1,0.1c-0.1,0.2-0.2,0.4-0.3,0.8c-0.1,0.5-0.1,1.1-0.1,1.7c0,0.2,0.1,0.6,0.2,1c0,0.7-0.3,1.1-0.9,1.1
			c-1.5-0.2-2.8-0.3-4-0.3c0.1,0.2,0.1,0.4,0.1,0.8c0,0.4-0.1,0.7-0.1,1.1h5.4c0.3,0,0.5,0.1,0.5,0.3c0,0.5-0.1,0.9-0.4,1.2
			c-0.3,0.3-0.8,0.5-1.3,0.5c-0.3,0-1-0.1-2-0.2c-0.7,0-1.5-0.1-2.2-0.1c0,0.1,0,0.1,0,0.2l0,2h8.2c0.3,0,0.5,0.1,0.5,0.4
			c0,0.4-0.1,0.8-0.4,1.1c-0.3,0.3-0.8,0.5-1.3,0.5c-0.5,0-1.6-0.1-3.4-0.2c-1.1-0.1-2.3-0.1-3.5-0.1l0,1.4c0,0.6-0.1,1-0.2,1.4
			c3.3,0.3,5.8,0.5,7.5,0.5c1,0,1.9-0.1,2.6-0.2c0.4-0.1,0.7-0.1,1-0.1c0.2,0,0.3,0.2,0.3,0.6c0,0.7-0.4,1.6-1.1,2.5
			c-0.7,0.9-1.3,1.4-1.9,1.4c-0.7,0-1.3-0.1-2-0.3c-8.8-2-14.9-3.2-18.2-3.8c-2.8-0.5-4.6-0.8-5.4-0.8c-1,0-2.1,0.8-3.4,2.5
			c-0.3,0.4-0.8,0.6-1.2,0.6c-0.7,0-1.1-0.3-1.1-0.9c0-0.3,0.9-1.4,2.7-3.1c0.3-0.3,0.6-0.5,0.9-0.7c0.6-3.4,1.4-6.3,2.4-8.7
			c0-0.2,0-0.4-0.1-0.4c-0.1,0-0.3,0-0.4,0c-1,0-1.8,0-2.6,0.1c-0.3,0.1-0.7,0.2-1.1,0.3c-0.6,0-1-0.3-1-0.9c0-0.9,0.8-1.4,2.4-1.4
			c1.2,0,2.4,0.1,3.6,0.3c0.5-0.2,0.9-0.3,1.2-0.3c0.9,0,1.4,0.4,1.4,1.2c0,0.3-0.2,0.7-0.6,1.1c-0.9,1.3-1.5,2.6-2,4.1
			c-0.5,1.3-0.8,2.8-1,4.4c1.3,0.1,3.7,0.4,7.3,0.8c2.9,0.4,5.5,0.7,7.8,0.9c-0.1-0.3-0.1-0.7-0.1-1.2c0-0.5,0.1-1,0.1-1.4
			c-0.1,0-0.3,0-0.4,0c-3.5,0-6,0.1-7.5,0.3c-0.9,0.2-1.5,0.3-1.7,0.3c-0.7,0-1-0.4-1.1-1.1c0-0.3,0.2-0.7,0.6-1
			c0.3-0.2,0.8-0.3,1.3-0.3h1.9c0-0.1,0-0.2,0-0.3c0.1-0.2,0.2-0.5,0.2-0.8c0-0.5-0.1-1.2-0.4-2c0-0.7,0.4-1.1,1.2-1.1
			c0.5,0,0.8,0.1,1,0.4c0.2-0.1,0.5-0.1,0.7-0.1h4.3c0-0.3,0-0.7-0.1-1.1c0-0.3,0.1-0.6,0.2-0.8c-1.5,0-2.5,0.1-3,0.2
			c-0.5,0-1,0.1-1.7,0.3c-0.6,0-0.9-0.3-0.9-1c0.2-0.9,0.3-1.6,0.3-2.2c0-0.5-0.1-1-0.3-1.7C122.6,8.7,123,8.3,123.7,8.3z
			 M110.6,1.9l5.3,2.5c0.4,0.2,0.6,0.5,0.6,0.9c0,0.3-0.3,0.5-0.8,0.5l-5.3-1.1c-0.8-0.2-1.2-0.8-1.2-1.9
			C109.2,2.2,109.7,1.9,110.6,1.9z M125.9,1.6c0.2,0,0.4,0,0.6,0l0-0.5c0-0.7,0.4-1.1,1.1-1.1c0.8,0,1.2,0.4,1.2,1.3l-0.1,0.4
			c2.1,0.1,4,0.4,5.7,0.7c0.2-0.3,0.5-0.5,0.8-0.5c0.8,0,1.2,0.3,1.2,1c0,0.2-0.1,0.4-0.4,0.6c-0.5,0.5-0.9,1.2-1.3,2.2h4.2
			c0.3,0,0.5,0.2,0.5,0.5c0,0.4-0.1,0.8-0.4,1.1c-0.3,0.3-0.8,0.5-1.3,0.5c-0.5,0-1.5-0.1-3.2-0.2c-1.7-0.1-3.6-0.1-5.7-0.1
			c-3.3,0-5.6,0.1-7.1,0.3c-0.9,0.2-1.4,0.3-1.6,0.3c-0.7-0.1-1-0.4-1.1-1.1c0-0.3,0.2-0.6,0.6-1c0.3-0.2,0.8-0.3,1.3-0.3h5.2
			l0.2-2.3c-1.4,0.1-2.4,0.2-3.2,0.4c-0.5,0.1-0.8,0.2-0.9,0.2c-0.6,0-1-0.3-1-0.8c0-0.6,0.3-1,0.9-1.2C122.8,1.7,124,1.6,125.9,1.6
			z M128.2,19.6c0-0.8,0-1.4,0-2c0-0.1,0-0.1,0-0.2c-1.8,0-3.1,0.1-3.9,0.2c-0.3,0.1-0.6,0.2-0.8,0.2v0c0,0.7-0.1,1.3-0.2,1.7H128.2
			z M129,12.4c1.1,0,2.3,0.1,3.6,0.2c0.4,0,0.6-0.2,0.6-0.5v-1.6c0-0.2-0.1-0.3-0.3-0.3c-1.7-0.1-4.1-0.2-7.2-0.2
			c-0.4,0-0.6,0.2-0.6,0.6c0,0.5-0.1,0.9-0.3,1.2c0,0.4,0.3,0.6,0.8,0.6C126.6,12.4,127.7,12.4,129,12.4z M128.5,3.3l-0.4,2.4h4.9
			c0.2-0.6,0.3-1.2,0.6-1.7c0-0.2-0.1-0.3-0.3-0.3C132.2,3.4,130.6,3.3,128.5,3.3z"/>
		<path class="st0" d="M168.1,15c0,2.4-0.9,4.7-2.7,7c-1.6,1.9-3.6,3.4-6,4.5c-2.6,1.2-4.6,1.8-5.8,1.8c-0.7,0-1.3-0.3-2-0.9
			c-0.7-0.6-1.1-1.3-1.1-2c0-0.3,1.1-0.6,3.3-0.8c2.7-0.3,5.4-1.3,7.8-3c2.9-1.9,4.3-4.2,4.3-6.7c0-3.1-1.6-4.6-4.7-4.6
			c-2.5,0-5.2,0.8-8.2,2.4c-0.5,0.3-1.3,0.7-2.3,1.2c-0.4,0-0.7-0.2-0.9-0.7c-0.2-0.3-0.3-0.7-0.3-1.1c0-1,1.6-1.9,4.9-2.8
			c2.7-0.6,4.8-1,6.3-1c3,0,5.2,1,6.5,3.1C167.8,12.7,168.1,13.9,168.1,15z M165.7,3.1c0,0.4-0.2,0.8-0.6,1.1
			c-0.4,0.3-0.8,0.5-1.2,0.5c-0.2,0-0.7-0.1-1.4-0.2c-0.4-0.1-1.4-0.1-2.9-0.1c-2.1,0-3.8,0.1-5,0.3c-0.2,0-0.5,0.1-1.1,0.2
			c-0.5,0.1-0.8,0.2-1,0.2c-0.5,0-0.7-0.3-0.7-0.9c0-1.3,0.6-1.9,1.7-1.9c1.3-0.1,3.1-0.1,5.2-0.1h3.2
			C164.4,2.1,165.7,2.5,165.7,3.1z"/>
		<path class="st0" d="M182.2,23.8c0,0.7-0.3,1.3-0.8,1.8c-0.5,0.5-1.1,0.7-1.9,0.7c-0.7,0-1.4-0.2-1.8-0.7
			c-0.5-0.5-0.7-1.1-0.7-1.8c0-1.5,0.9-2.3,2.6-2.3c0.7,0,1.4,0.2,1.9,0.6C181.9,22.5,182.2,23.1,182.2,23.8z M181.4,2.2
			c-0.3,0.8-0.4,3.5-0.4,8.2c0,4.1,0.1,6.3,0.2,6.7c-0.1,1.1-0.6,1.7-1.7,1.7c-1.1,0-1.7-0.6-1.7-1.7c0-0.7,0.1-1.9,0.2-3.4
			c0.1-1.5,0.1-2.6,0.1-3.4c0-0.9-0.1-2.2-0.2-4.1c-0.1-1.8-0.2-3.2-0.2-4.1c0-1.2,0.6-1.8,1.9-1.8C180.7,0.5,181.4,1.1,181.4,2.2z"
			/>
	</g>
</g>
</svg>
