<?xml version="1.0" encoding="utf-8"?>
<!-- Generator: Adobe Illustrator 24.0.3, SVG Export Plug-In . SVG Version: 6.00 Build 0)  -->
<svg version="1.1" id="レイヤー_1" xmlns="http://www.w3.org/2000/svg" xmlns:xlink="http://www.w3.org/1999/xlink" x="0px"
	 y="0px" viewBox="0 0 155.9 29" style="enable-background:new 0 0 155.9 29;" xml:space="preserve">
<style type="text/css">
	.st0{fill:#503819;}
</style>
<g>
	<g>
		<path class="st0" d="M5.6,17.4c0.3,0,0.4,0.1,0.4,0.3c0,0.4-0.1,0.6-0.3,0.6L1,19.9c-0.7,0-1-0.3-1-0.9c0-0.7,0.3-1.1,0.8-1.2
			L5.6,17.4z M2.6,9.5c0.1,0,0.3,0.1,0.6,0.2C4,10.3,5,11,6,11.7c0.1,0.1,0.2,0.2,0.2,0.3c0,0.3-0.2,0.4-0.6,0.4
			c-0.1,0-0.3,0-0.5-0.1c-1.5-0.5-2.5-0.8-2.9-0.9c-0.5-0.3-0.8-0.7-0.8-1.2C1.5,9.8,1.9,9.5,2.6,9.5z M6.4,23.9
			c0.3,0,0.4,0.1,0.4,0.4c0,0.2-0.1,0.4-0.2,0.7c-1.7,2.2-2.7,3.3-2.9,3.3c-0.8,0-1.2-0.2-1.2-0.7c0-0.6,0.1-1,0.4-1.2
			C2.9,26.2,4,25.3,6.4,23.9z M15.5,9.1c0.7,0,1,0.3,1,1c-0.1,0.5-0.2,1-0.3,1.5c2.4,0,4.6,0.1,6.4,0.3l1.1-0.2
			c0.5,0,0.8,0.2,0.8,0.5c0,0.1-0.1,0.3-0.2,0.5c-0.3,0.6-0.5,1.6-0.6,3c0,0.4-0.2,0.7-0.7,0.7c-0.4,0-0.6-0.2-0.6-0.7
			c0-0.8,0-1.5,0.1-2.2c0-0.1-0.1-0.1-0.4-0.3c-1.7-0.3-3.7-0.5-6-0.5c-2.2,0-4.3,0.1-6.2,0.3c-0.5,0-0.9,0.2-1,0.4L9,13.6
			c0,1.3-0.1,2.1-0.3,2.3c-0.1,0.3-0.3,0.4-0.7,0.4c-0.3,0-0.4-0.1-0.4-0.3c0-1.6-0.2-2.9-0.4-4c0-0.4,0.3-0.7,0.8-0.7
			c0.4,0,0.6,0,0.8,0.1c0.3,0.1,0.5,0.2,0.7,0.2c1.3-0.1,3.1-0.1,5.2-0.1c0.1,0,0.1,0,0.2,0c-0.1-0.5-0.1-0.9-0.3-1.3
			C14.6,9.4,14.9,9.1,15.5,9.1z M9.1,26.6c0.4,0.1,0.8,0.1,1,0.1c0.7,0,1.6-0.3,2.7-0.9c0.2,0,0.3,0.1,0.3,0.3
			c0,0.3-0.4,0.8-1.1,1.6c-0.7,0.8-1.4,1.2-1.9,1.2c-0.3,0-0.6-0.2-0.9-0.5c-0.3-0.4-0.4-0.9-0.4-1.5C8.7,26.7,8.8,26.6,9.1,26.6z
			 M11.4,14.4h9.5c0.3,0,0.4,0.1,0.4,0.3c0,0.4-0.1,0.7-0.3,0.9c-0.3,0.3-0.6,0.4-1,0.4c-0.2,0-0.8-0.1-1.7-0.2
			c-0.6-0.1-1.2-0.1-1.8-0.1l0,1.6h0c0.9,0,2,0,3.3,0.1c0.3,0,0.6-0.1,1-0.2c0.5,0,0.8,0.3,0.8,0.9c0,0,0,0.1-0.1,0.2
			c-0.1,0.2-0.1,0.6-0.2,1.2c-0.1,0.8-0.1,1.6-0.1,2.5c0,0.5,0,1.3,0.1,2.2c0,0.6-0.3,0.9-0.8,0.9c-1.9-0.1-3.6-0.2-5.1-0.2
			c-1.8,0-2.9,0-3.4,0.1c-0.4,0-0.9,0.1-1.5,0.1c-0.5,0-0.8-0.3-0.8-0.8c0.1-1.2,0.2-2.3,0.2-3.2c0-0.9-0.1-2-0.2-3.2
			c0-0.5,0.3-0.8,0.8-0.8c0.3,0,0.5,0,0.8,0.1c0.3,0.1,0.6,0.1,1.1,0.1h2.4v-1.7c-1.5,0-2.5,0.1-3.2,0.3c-0.4,0.1-0.7,0.2-0.9,0.2
			c-0.5,0-0.8-0.3-0.9-0.8c0-0.3,0.2-0.5,0.4-0.8C10.6,14.5,11,14.4,11.4,14.4z M15,23.6l0-2c-1.2,0-2.3,0.1-3.2,0.1
			c-0.1,0-0.1,0-0.2,0c0,0.5-0.1,1-0.1,1.5c0,0.3,0.2,0.4,0.7,0.4C12.9,23.7,13.9,23.6,15,23.6z M11.6,20.5c0.1,0,0.2,0,0.3,0h3.1
			v-1.8c-0.9,0-1.8,0-2.8,0c-0.4,0-0.6,0.2-0.6,0.6C11.6,19.6,11.6,20,11.6,20.5z M16.4,21.6l0,2.1c0.9,0,1.9,0.1,2.9,0.1
			c0.3,0,0.4-0.1,0.4-0.3v-1.9c0,0-0.1,0-0.1,0C18.5,21.5,17.4,21.5,16.4,21.6z M16.5,18.6v1.8h3.1c0.1,0,0.2,0,0.2,0V19
			c0-0.2-0.1-0.3-0.2-0.3C18.7,18.7,17.7,18.6,16.5,18.6z M18.5,25.8c0,0,0.1,0,0.2,0.1c1,0.5,1.7,0.8,2.3,1
			c0.4,0.1,0.9,0.2,1.6,0.2c0.2,0,0.3,0.1,0.3,0.3c0,0.3-0.2,0.6-0.6,0.9c-0.7,0.4-1.2,0.6-1.6,0.6c-0.2,0-0.3-0.1-0.4-0.2
			c-0.3-0.2-0.9-1-1.9-2.4c-0.1-0.1-0.1-0.2-0.1-0.3C18.2,25.9,18.3,25.8,18.5,25.8z"/>
		<path class="st0" d="M30.9,11.7c0.7,0,1,0.3,1.1,0.9c0.1,0.7,0.1,2,0.1,4.1c0,0.3,0.2,0.4,0.6,0.4c1.7-0.1,3.3-0.2,5-0.2l-0.1-6
			c0-0.7,0.3-1,0.9-1c0.7,0,1.1,0.3,1.1,1l-0.1,6c1.6,0,3.3,0,5.1,0.1c0.3,0,0.4-0.1,0.4-0.4c-0.1-0.7-0.1-1.8-0.1-3.2
			c0-1.1,0.3-1.6,1-1.6s1,0.4,1,1.1c-0.2,1-0.3,2-0.3,2.9c0.1,0.9,0.1,1.5,0.1,1.8c0,0.6-0.3,0.9-0.9,0.9c-1.4-0.1-3.5-0.1-6.3-0.1
			l-0.1,8.1c2,0,4.2,0.1,6.6,0.1c0.4,0,0.6-0.2,0.6-0.5c-0.1-0.9-0.1-2.2-0.1-3.9c0-1.1,0.3-1.6,1-1.6c0.7,0,1,0.4,1,1.1
			c-0.2,1.2-0.3,2.3-0.3,3.3C48,25.9,48,26.7,48,27c0,0.7-0.3,1-0.9,1c-1.9-0.1-4.8-0.2-8.7-0.2c-3,0-6,0.2-8.9,0.6
			c-0.7,0-1-0.3-1-1c0.1-0.7,0.2-1.4,0.2-2.1c0-0.9-0.2-2.3-0.4-4.2c0-0.5,0.3-0.8,0.9-0.8c0.7,0,1,0.3,1.1,0.9
			c0.1,0.8,0.1,2.4,0.1,4.9c0,0.3,0.2,0.4,0.6,0.4c2.3-0.1,4.5-0.2,6.8-0.2l-0.1-8.1c-2.2,0-4.3,0.1-6.4,0.4c-0.7,0-1-0.3-1-1
			c0.1-0.6,0.2-1.2,0.2-1.7c0-0.8-0.1-1.9-0.4-3.5C30,12,30.3,11.7,30.9,11.7z"/>
		<path class="st0" d="M67.9,17.9c0,1.9-0.3,3.8-1,5.5C66,25.9,64.8,27,63.2,27c-0.4,0-0.7-0.3-1.2-0.8c-0.4-0.6-0.6-1.1-0.6-1.4
			c0-0.2,0.4-0.3,1.2-0.4c0.9-0.1,1.5-0.3,1.8-0.6c0.7-0.5,1.2-1.6,1.6-3.2c0.3-1.3,0.5-2.6,0.5-3.7c0-1.1-0.6-1.7-1.8-1.7
			c-0.5,0-1.3,0-2.4,0.1c-0.6,2.1-1.2,3.8-1.8,5.1c-0.7,1.5-1.8,3.1-3.1,4.5c-1.1,1.3-2,2-2.5,2c-0.3,0-0.8-0.2-1.3-0.6
			c-0.5-0.4-0.8-0.8-0.8-1c0-0.2,0.1-0.3,0.4-0.5c0.3-0.1,0.7-0.3,1.2-0.6c1.3-0.8,2.5-1.7,3.4-2.9c1.1-1.4,2.1-3.3,3-5.7
			c-1,0.1-2.4,0.4-4.3,0.7c-0.5,0-0.7-0.3-0.7-0.7c0-0.8,0.9-1.2,2.6-1.3c0.4,0,1.4-0.1,2.8-0.2c0.3-0.9,0.4-1.9,0.4-3
			c0-0.6,0.3-0.9,0.8-0.9c0.5,0,0.8,0.3,0.8,0.8c0,0.2-0.2,1.3-0.6,3.1c0.9,0,1.6-0.1,1.9-0.1c1.3,0,2.2,0.4,2.7,1.1
			C67.7,15.6,67.9,16.6,67.9,17.9z M76.7,17.1c0,0.3-0.3,0.7-0.8,1.4c-0.5,0.6-1,0.9-1.2,0.9c-0.6,0-1.4-0.7-2.6-2s-1.7-2.3-1.7-2.9
			c0-0.3,0.1-0.4,0.3-0.4c0.1,0,0.5,0.2,1,0.7c0.5,0.5,1.2,1,2,1.3c0.7,0.4,1.4,0.6,2.2,0.6C76.4,16.8,76.7,16.9,76.7,17.1z
			 M75.6,13.4c-0.1,0.2-0.2,0.5-0.6,0.9c-0.3,0.4-0.5,0.6-0.7,0.6c-0.3,0-0.9-0.4-1.6-1.1c-0.8-0.8-1.1-1.3-1.1-1.6
			c0-0.2,0.1-0.3,0.3-0.3c0.1,0,0.4,0.1,1,0.4c0.7,0.4,1.5,0.7,2.3,0.8C75.4,13,75.6,13.2,75.6,13.4z M78.4,11.4
			c-0.1,0.2-0.2,0.5-0.5,0.9c-0.3,0.4-0.5,0.6-0.7,0.6c-0.3,0-0.9-0.4-1.7-1.1c-0.8-0.7-1.1-1.3-1.1-1.6c0-0.2,0.1-0.3,0.3-0.3
			c0.1,0,0.4,0.2,1,0.5c0.7,0.4,1.5,0.7,2.3,0.7C78.1,11.1,78.3,11.2,78.4,11.4z"/>
		<path class="st0" d="M97.4,8.3c0.3,0,0.7,0,1,0.1c0.3,0.1,0.9,0.1,1.5,0.1h3.9c0.9,0,1.9,0.1,3.1,0.2c0.3,0,0.8-0.1,1.3-0.2
			c0.7,0,1.1,0.3,1.1,1l-0.1,0.1c-0.1,0.2-0.2,0.4-0.3,0.8c-0.1,0.5-0.1,1.1-0.1,1.7c0,0.2,0.1,0.6,0.2,1c0,0.7-0.3,1.1-0.9,1.1
			c-1.5-0.2-2.8-0.3-4-0.3c0.1,0.2,0.1,0.4,0.1,0.8c0,0.4-0.1,0.7-0.1,1.1h5.4c0.3,0,0.5,0.1,0.5,0.3c0,0.5-0.1,0.9-0.4,1.2
			c-0.3,0.3-0.8,0.5-1.3,0.5c-0.3,0-1-0.1-2-0.2c-0.7,0-1.5-0.1-2.2-0.1c0,0.1,0,0.1,0,0.2l0,2h8.2c0.3,0,0.5,0.1,0.5,0.4
			c0,0.4-0.1,0.8-0.4,1.1c-0.3,0.3-0.8,0.5-1.3,0.5c-0.5,0-1.6-0.1-3.4-0.2c-1.1-0.1-2.3-0.1-3.5-0.1l0,1.4c0,0.6-0.1,1-0.2,1.4
			c3.3,0.3,5.8,0.5,7.5,0.5c1,0,1.9-0.1,2.6-0.2c0.4-0.1,0.7-0.1,1-0.1c0.2,0,0.3,0.2,0.3,0.6c0,0.7-0.4,1.6-1.1,2.5
			c-0.7,0.9-1.3,1.4-1.9,1.4c-0.7,0-1.3-0.1-2-0.3c-8.8-2-14.9-3.2-18.2-3.8c-2.8-0.5-4.6-0.8-5.4-0.8c-1,0-2.1,0.8-3.4,2.5
			C83,26.8,82.6,27,82.1,27c-0.7,0-1.1-0.3-1.1-0.9c0-0.3,0.9-1.4,2.7-3.1c0.3-0.3,0.6-0.5,0.9-0.7c0.6-3.4,1.4-6.3,2.4-8.7
			c0-0.2,0-0.4-0.1-0.4c-0.1,0-0.3,0-0.4,0c-1,0-1.8,0-2.6,0.1c-0.3,0.1-0.7,0.2-1.1,0.3c-0.6,0-1-0.3-1-0.9c0-0.9,0.8-1.4,2.4-1.4
			c1.2,0,2.4,0.1,3.6,0.3c0.5-0.2,0.9-0.3,1.2-0.3c0.9,0,1.4,0.4,1.4,1.2c0,0.3-0.2,0.7-0.6,1.1c-0.9,1.3-1.5,2.6-2,4.1
			c-0.5,1.3-0.8,2.8-1,4.4c1.3,0.1,3.7,0.4,7.3,0.8c2.9,0.4,5.5,0.7,7.8,0.9c-0.1-0.3-0.1-0.7-0.1-1.2c0-0.5,0.1-1,0.1-1.4
			c-0.1,0-0.3,0-0.4,0c-3.5,0-6,0.1-7.5,0.3c-0.9,0.2-1.5,0.3-1.7,0.3c-0.7,0-1-0.4-1.1-1.1c0-0.3,0.2-0.7,0.6-1
			c0.3-0.2,0.8-0.3,1.3-0.3h1.9c0-0.1,0-0.2,0-0.3c0.1-0.2,0.2-0.5,0.2-0.8c0-0.5-0.1-1.2-0.4-2c0-0.7,0.4-1.1,1.2-1.1
			c0.5,0,0.8,0.1,1,0.4c0.2-0.1,0.5-0.1,0.7-0.1h4.3c0-0.3,0-0.7-0.1-1.1c0-0.3,0.1-0.6,0.2-0.8c-1.5,0-2.5,0.1-3,0.2
			c-0.5,0-1,0.1-1.7,0.3c-0.6,0-0.9-0.3-0.9-1c0.2-0.9,0.3-1.6,0.3-2.2c0-0.5-0.1-1-0.3-1.7C96.3,8.7,96.7,8.3,97.4,8.3z M84.3,1.9
			l5.3,2.5c0.4,0.2,0.6,0.5,0.6,0.9c0,0.3-0.3,0.5-0.8,0.5l-5.3-1.1c-0.8-0.2-1.2-0.8-1.2-1.9C82.9,2.2,83.4,1.9,84.3,1.9z
			 M99.6,1.6c0.2,0,0.4,0,0.6,0l0-0.5c0-0.7,0.4-1.1,1.1-1.1c0.8,0,1.2,0.4,1.2,1.3l-0.1,0.4c2.1,0.1,4,0.4,5.7,0.7
			c0.2-0.3,0.5-0.5,0.8-0.5c0.8,0,1.2,0.3,1.2,1c0,0.2-0.1,0.4-0.4,0.6c-0.5,0.5-0.9,1.2-1.3,2.2h4.2c0.3,0,0.5,0.2,0.5,0.5
			c0,0.4-0.1,0.8-0.4,1.1c-0.3,0.3-0.8,0.5-1.3,0.5c-0.5,0-1.5-0.1-3.2-0.2c-1.7-0.1-3.6-0.1-5.7-0.1c-3.3,0-5.6,0.1-7.1,0.3
			C94.6,7.9,94.1,8,93.8,8c-0.7-0.1-1-0.4-1.1-1.1c0-0.3,0.2-0.6,0.6-1c0.3-0.2,0.8-0.3,1.3-0.3h5.2l0.2-2.3
			c-1.4,0.1-2.4,0.2-3.2,0.4c-0.5,0.1-0.8,0.2-0.9,0.2c-0.6,0-1-0.3-1-0.8c0-0.6,0.3-1,0.9-1.2C96.5,1.7,97.7,1.6,99.6,1.6z
			 M101.9,19.6c0-0.8,0-1.4,0-2c0-0.1,0-0.1,0-0.2c-1.8,0-3.1,0.1-3.9,0.2c-0.3,0.1-0.6,0.2-0.8,0.2v0c0,0.7-0.1,1.3-0.2,1.7H101.9z
			 M102.7,12.4c1.1,0,2.3,0.1,3.6,0.2c0.4,0,0.6-0.2,0.6-0.5v-1.6c0-0.2-0.1-0.3-0.3-0.3c-1.7-0.1-4.1-0.2-7.2-0.2
			c-0.4,0-0.6,0.2-0.6,0.6c0,0.5-0.1,0.9-0.3,1.2c0,0.4,0.3,0.6,0.8,0.6C100.3,12.4,101.4,12.4,102.7,12.4z M102.2,3.3l-0.4,2.4h4.9
			c0.2-0.6,0.3-1.2,0.6-1.7c0-0.2-0.1-0.3-0.3-0.3C105.9,3.4,104.3,3.3,102.2,3.3z"/>
		<path class="st0" d="M141.9,15c0,2.4-0.9,4.7-2.7,7c-1.6,1.9-3.6,3.4-6,4.5c-2.6,1.2-4.6,1.8-5.8,1.8c-0.7,0-1.3-0.3-2-0.9
			c-0.7-0.6-1.1-1.3-1.1-2c0-0.3,1.1-0.6,3.3-0.8c2.7-0.3,5.4-1.3,7.8-3c2.9-1.9,4.3-4.2,4.3-6.7c0-3.1-1.6-4.6-4.7-4.6
			c-2.5,0-5.2,0.8-8.2,2.4c-0.5,0.3-1.3,0.7-2.3,1.2c-0.4,0-0.7-0.2-0.9-0.7c-0.2-0.3-0.3-0.7-0.3-1.1c0-1,1.6-1.9,4.9-2.8
			c2.7-0.6,4.8-1,6.3-1c3,0,5.2,1,6.5,3.1C141.5,12.7,141.9,13.9,141.9,15z M139.4,3.1c0,0.4-0.2,0.8-0.6,1.1
			c-0.4,0.3-0.8,0.5-1.2,0.5c-0.2,0-0.7-0.1-1.4-0.2c-0.4-0.1-1.4-0.1-2.9-0.1c-2.1,0-3.8,0.1-5,0.3c-0.2,0-0.5,0.1-1.1,0.2
			c-0.5,0.1-0.8,0.2-1,0.2c-0.5,0-0.7-0.3-0.7-0.9c0-1.3,0.6-1.9,1.7-1.9c1.3-0.1,3.1-0.1,5.2-0.1h3.2
			C138.1,2.1,139.4,2.5,139.4,3.1z"/>
		<path class="st0" d="M155.9,23.8c0,0.7-0.3,1.3-0.8,1.8c-0.5,0.5-1.1,0.7-1.9,0.7c-0.7,0-1.4-0.2-1.8-0.7
			c-0.5-0.5-0.7-1.1-0.7-1.8c0-1.5,0.9-2.3,2.6-2.3c0.7,0,1.4,0.2,1.9,0.6C155.6,22.5,155.9,23.1,155.9,23.8z M155.1,2.2
			c-0.3,0.8-0.4,3.5-0.4,8.2c0,4.1,0.1,6.3,0.2,6.7c-0.1,1.1-0.6,1.7-1.7,1.7c-1.1,0-1.7-0.6-1.7-1.7c0-0.7,0.1-1.9,0.2-3.4
			c0.1-1.5,0.1-2.6,0.1-3.4c0-0.9-0.1-2.2-0.2-4.1c-0.1-1.8-0.2-3.2-0.2-4.1c0-1.2,0.6-1.8,1.9-1.8C154.5,0.5,155.1,1.1,155.1,2.2z"
			/>
	</g>
</g>
</svg>
