<?xml version="1.0" encoding="utf-8"?>
<!-- Generator: Adobe Illustrator 24.0.3, SVG Export Plug-In . SVG Version: 6.00 Build 0)  -->
<svg version="1.1" id="レイヤー_1" xmlns="http://www.w3.org/2000/svg" xmlns:xlink="http://www.w3.org/1999/xlink" x="0px"
	 y="0px" viewBox="0 0 409.4 51.7" style="enable-background:new 0 0 409.4 51.7;" xml:space="preserve">
<style type="text/css">
	.st0{fill:#513813;}
</style>
<g>
	<g>
		<path class="st0" d="M3.4,2.7c0.3,0,0.5,0,0.8,0.1C4.5,2.8,5,2.9,5.5,2.9h4.8c1.1,0,2.4,0,3.9,0.1c0.3,0,0.7-0.1,1.1-0.2
			c0.6,0,0.9,0.3,0.9,0.9c0,0.1,0,0.2-0.1,0.5c-0.1,0.5-0.2,1.5-0.3,2.9c-0.1,1.8-0.1,3.8-0.1,5.9c0,1.6,0,3.7,0.1,6.5
			c0,0.7-0.3,1-0.8,1c-2.3-0.2-4.4-0.3-6.2-0.3c-2,0-3.3,0-3.9,0.1c-0.5,0-1,0.1-1.7,0.2c-0.5,0-0.8-0.3-0.8-0.8
			c0.1-2.9,0.2-5.4,0.2-7.6c0-2.4-0.1-5.2-0.2-8.5C2.5,2.9,2.8,2.7,3.4,2.7z M8.9,18.8c1.5,0,3.1,0,4.9,0.1c0.3,0,0.4-0.1,0.4-0.4
			c0-1.4,0-2.7,0-3.9c-4.6,0-7.8,0.1-9.9,0.3c0,1.2,0,2.4-0.1,3.5c0,0.4,0.2,0.5,0.6,0.5C6.1,18.8,7.4,18.8,8.9,18.8z M4.4,13.3
			c0.1,0,0.1,0,0.2,0h9.1c0.2,0,0.4,0,0.6,0.1c0-1.5,0-2.8,0-4c-4.5,0-7.8,0.1-9.8,0.3C4.5,10.9,4.5,12.1,4.4,13.3z M4.5,8.1
			c0.1,0,0.1,0,0.2,0h9.1c0.2,0,0.3,0,0.5,0c0-1.4,0-2.6,0.1-3.5c0-0.2-0.1-0.3-0.4-0.3c-2-0.1-5-0.1-8.9-0.1
			c-0.4,0-0.5,0.2-0.5,0.5C4.5,5.9,4.5,7,4.5,8.1z"/>
		<path class="st0" d="M28.1,2.2c0.7,0,1.1,0.3,1.1,1c0,0.2-0.1,0.4-0.2,0.7c-0.4,1.1-0.7,1.8-1,2.2h0.6c0.5,0,1.1,0,1.8,0.1
			c0.3,0,0.6-0.1,1-0.2c0.5,0,0.8,0.3,0.8,0.9c0,0,0,0.1-0.1,0.4c-0.1,0.4-0.1,1.1-0.2,2.1C32,10.7,32,12.2,32,13.7
			c0,1.1,0,2.6,0.1,4.4c0,0.7-0.3,1-0.8,1c-1.2-0.2-2.2-0.3-3.2-0.3c-1.4,0-2.2,0-2.6,0.1c-0.3,0-0.7,0.1-1.1,0.2
			c-0.5,0-0.8-0.3-0.8-0.8c0.1-2.1,0.2-3.9,0.2-5.5c0-1.7-0.1-3.7-0.2-6.1c0-0.5,0.3-0.8,0.8-0.8c0.3,0,0.5,0,0.8,0.1
			c0.3,0.1,0.6,0.1,1.1,0.1h0.3c0.3-1,0.4-2,0.4-2.9C27.2,2.6,27.5,2.2,28.1,2.2z M28.1,17.4c0.6,0,1.2,0,2,0.1
			c0.3,0,0.4-0.1,0.4-0.4v-4.2c0,0-0.1,0-0.1,0c-2.1,0-3.8,0.1-4.9,0.2c0,0,0,0-0.1,0c0,1.3-0.1,2.6-0.2,3.8c0,0.4,0.2,0.6,0.7,0.6
			C26.6,17.5,27.3,17.4,28.1,17.4z M25.5,11.8c0.1,0,0.2,0,0.3,0h4.7c0,0,0.1,0,0.1,0V7.9c0-0.2-0.1-0.3-0.2-0.3
			c-1-0.1-2.4-0.1-4.3-0.1c-0.4,0-0.6,0.2-0.6,0.6C25.5,9.3,25.5,10.5,25.5,11.8z M36.8,2.2c0.7,0,1.1,0.4,1.1,1.1
			c0,0.7-0.3,1.7-0.9,3c0.5,0,1.4-0.1,2.5-0.1h4.4c0.2,0,0.5-0.1,1-0.2C45.6,6,46,6.4,46,7.1c-0.5,2.3-0.8,4.6-1,6.8
			c-0.2,3.1-0.8,5.2-1.8,6.2c-0.8,0.9-1.8,1.3-3,1.3c-0.5,0-0.9-0.2-1.2-0.6c-0.2-0.4-0.3-0.7-0.3-1s0.1-0.5,0.4-0.6
			c1.6-0.1,2.7-0.5,3.1-1.2c0.6-0.7,1-2.8,1.4-6.2C43.9,9.8,44,8.5,44,8c0-0.3-0.1-0.4-0.3-0.4h-3.1c-1.1,0-2.1,0.1-3.2,0.2
			C36.9,8,36.5,8,36.3,8c-0.1,0-0.1,0-0.1,0c-0.3,0.6-0.6,1-0.8,1.4c-0.4,0.4-0.9,0.6-1.3,0.6c-0.4,0-0.6-0.2-0.6-0.6
			c0-0.1,0.1-0.2,0.3-0.4c1.4-2,2.2-4,2.2-6C36,2.5,36.3,2.2,36.8,2.2z M39.1,12c0.3,0,0.4,0.2,0.4,0.4c0,0.2-0.1,0.4-0.2,0.6
			c-2,1.9-3.1,2.9-3.4,2.9c-0.7,0-1.1-0.2-1.1-0.6c0-0.6,0.1-0.9,0.4-1.1C35.3,14,36.5,13.3,39.1,12z"/>
		<path class="st0" d="M68.6,17.4c-0.1,0.4-0.4,0.9-0.9,1.5c-0.6,0.7-1,1-1.3,1c-0.7,0-2-0.8-4-2.3c-1.8,1.5-3.7,2.3-5.7,2.3
			c-1.5,0-2.8-0.4-4-1.1c-1.4-0.8-2-1.9-2-3.3c0-1.1,0.6-2.1,1.8-3.1c0.6-0.5,1.7-1.1,3.2-1.9c-0.8-1.3-1.3-2.5-1.3-3.8
			c0-1.1,0.4-1.9,1.2-2.5c0.7-0.5,1.6-0.8,2.7-0.8c1.1,0,2,0.2,2.7,0.7c0.9,0.6,1.3,1.4,1.3,2.4c0,1.5-1.3,3-3.9,4.5
			c1.4,1.7,2.8,3,4.1,4c0.4-0.7,0.8-1.4,1.3-2c0.5-0.9,1-1.3,1.4-1.3c0.7,0,1.1,0.3,1.1,0.8c0,0.3-0.3,1-0.9,1.8
			C64.8,15,64.4,15.5,64,16c0.9,0.7,2.3,1.1,4.3,1.1C68.4,17.1,68.6,17.2,68.6,17.4z M61,16.4c-1.4-1.1-2.8-2.6-4.2-4.5
			c-1.1,0.6-1.9,1.1-2.3,1.4c-0.9,0.7-1.3,1.4-1.3,2.2c0,0.8,0.4,1.4,1.2,1.9c0.7,0.4,1.4,0.6,2.3,0.6C58.1,18,59.6,17.4,61,16.4z
			 M60.8,6.6c0-0.6-0.3-1-0.8-1.3c-0.5-0.3-1-0.4-1.7-0.4c-0.6,0-1.1,0.2-1.6,0.6C56.3,5.8,56,6.3,56,6.9c0,0.7,0.4,1.7,1.3,2.9
			C59.6,8.9,60.8,7.8,60.8,6.6z"/>
		<path class="st0" d="M91.8,5.3c0,0.6-0.6,1.9-1.9,3.9c-1.1,1.8-2,3.1-2.7,3.9c1.1,0.8,2,1.3,2.9,1.6c0.2,0.1,0.4,0.2,0.7,0.4
			c0,0.3-0.4,0.7-1,1.2c-0.6,0.5-1.1,0.7-1.3,0.7c-0.3,0-0.7-0.4-1.3-1.1c-0.4-0.5-0.8-1-1.2-1.6c-1.3,1.2-2.7,2.4-4.4,3.6
			c-2.3,1.6-3.9,2.4-4.8,2.4c-0.4,0-0.9-0.2-1.5-0.6c-0.6-0.4-0.9-0.8-0.9-1.1c0-0.2,0.4-0.4,1.1-0.6c3.2-0.8,6.3-2.4,9.2-5
			c-0.6-0.5-1.2-1-1.8-1.4c-0.9-0.8-1.4-1.3-1.4-1.4c0-0.2,0.2-0.3,0.5-0.3c0.3,0,0.9,0.3,1.8,0.9c0.6,0.4,1.3,0.8,1.9,1.2
			c0.6-0.7,1.4-1.6,2.2-2.9c1-1.4,1.6-2.4,1.8-3C89.6,6.1,88.5,6,86.6,6c-1,0-2.1,0.1-3.4,0.2c-0.7,0.9-1.5,1.8-2.5,2.7
			c-1.2,1.2-2.2,1.8-2.8,1.8c-0.3,0-0.8-0.2-1.3-0.5c-0.5-0.3-0.7-0.7-0.7-1c0-0.1,0.4-0.3,1.2-0.6c1.4-0.6,2.6-1.3,3.7-2.1
			c0.9-0.7,1.8-1.9,2.9-3.6c0.3-0.4,0.6-0.7,0.8-0.7c0.4,0,0.6,0.2,0.6,0.6c0,0.2-0.3,0.9-1,2c5-0.1,7.3-0.2,7-0.2
			C91.6,4.6,91.8,4.8,91.8,5.3z"/>
		<path class="st0" d="M118.8,11.4c0,0.3-0.4,0.7-1.1,1.3c-0.7,0.6-1.3,0.9-1.6,0.9c-0.4,0-0.9-0.1-1.5-0.4c-1.8-1-4.4-1.4-7.7-1.4
			c-2.8,0-5.2,0.4-7.3,1.1c-0.8,0.3-1.2,0.4-1.4,0.4c-0.2,0-0.4-0.1-0.6-0.3c-0.2-0.2-0.3-0.4-0.3-0.6c0-0.4,0.2-0.8,0.5-1.1
			c0.4-0.4,1.9-0.6,4.4-0.8c1.8-0.1,3.4-0.2,4.8-0.2c2,0,4.2,0.2,6.6,0.6c1.6,0.3,2.8,0.4,3.6,0.4c0.1,0,0.4,0,0.7-0.1
			c0.3-0.1,0.6-0.1,0.7-0.1C118.7,10.9,118.8,11.1,118.8,11.4z"/>
		<path class="st0" d="M144.2,6.3c0,0.4-0.2,0.9-0.6,1.4c-0.4,0.5-0.7,0.8-1.1,0.8c-0.1,0-1-0.2-2.5-0.6c-0.9-0.2-1.9-0.4-3.1-0.5
			c0,0.2,0,0.5,0,0.9c0,0.4,0,0.7,0,0.9c0,4.3-1.7,7.7-5.1,10.2c-1.2,0.9-2,1.3-2.5,1.3c-0.3,0-0.8-0.2-1.4-0.6
			c-0.6-0.4-0.9-0.7-0.9-1c0-0.2,0.5-0.5,1.5-0.9c1.4-0.5,2.5-1.1,3.4-1.8c1.3-1,2.2-2.4,2.7-4.1c0.4-1.2,0.6-2.8,0.7-5
			c-2.7,0-4.9,0.4-6.7,1.1c-0.4,0.6-0.9,1.3-1.5,1.9c-0.8,0.9-1.4,1.4-1.8,1.4c-0.3,0-0.7-0.2-1.3-0.6c-0.6-0.4-0.9-0.7-0.9-0.9
			c0-0.2,0.4-0.5,1.3-0.9c1.1-0.5,2.1-1.3,3-2.4c1.1-1.3,1.7-2.4,2-3.4c0.2-0.7,0.5-1,1-1c0.3,0,0.5,0.2,0.5,0.6
			c0,0.5-0.4,1.6-1.3,3.4c2.5-0.4,4.9-0.6,7-0.6c0.6,0,1.6,0,2.9,0.1c1.3,0.1,2.2,0.1,2.9,0.1c0.2,0,0.4,0,0.7,0
			c0.3,0,0.5-0.1,0.7-0.1C144.1,6.1,144.2,6.2,144.2,6.3z M144,3.2c0,0.2-0.2,0.4-0.6,0.7c-0.3,0.3-0.6,0.4-0.8,0.4
			c-0.3,0-0.8-0.5-1.3-1.5c-0.5-0.9-0.8-1.6-0.8-2c0-0.2,0.1-0.3,0.2-0.3c0.2,0,0.3,0.1,0.5,0.3c0.8,1,1.5,1.6,2.3,1.9
			C143.7,2.9,143.9,3.1,144,3.2z M147.5,2c-0.1,0.2-0.3,0.4-0.6,0.7c-0.3,0.3-0.6,0.5-0.8,0.5c-0.4-0.1-0.9-0.6-1.5-1.3
			c-0.7-0.8-1-1.4-1-1.7c0-0.1,0.1-0.2,0.2-0.2c0.1,0,0.4,0.2,1,0.6c0.6,0.4,1,0.6,1.1,0.7C146.3,1.5,146.9,1.7,147.5,2z"/>
		<path class="st0" d="M153.6,12.3c0,0.3-0.1,0.4-0.3,0.4c-0.3,0-0.8-0.5-1.5-1.5c-0.7-1-1.1-1.6-1.1-2c0-0.5,0.3-0.7,1-0.7
			c0.3,0,0.8,0.5,1.3,1.5C153.3,11.2,153.6,11.9,153.6,12.3z M164.1,9c0,0.4-0.2,1.2-0.7,2.5c-1.2,3-3.4,5.6-6.7,7.9
			c-1.6,1.1-2.7,1.6-3.5,1.6c-0.3,0-0.7-0.1-1.2-0.4c-0.5-0.3-0.7-0.6-0.7-0.9c0-0.2,0.5-0.4,1.6-0.7c1.5-0.4,3-1.1,4.4-1.9
			c1.6-1,2.9-2.2,3.7-3.5c0.4-0.6,0.7-1.4,1.1-2.3c0.2-0.8,0.5-1.6,0.8-2.4c0.1-0.3,0.3-0.5,0.7-0.5C163.9,8.4,164.1,8.6,164.1,9z
			 M157.9,11.9c0,0.3-0.1,0.5-0.3,0.5c-0.2,0-0.6-0.5-1-1.5c-0.5-1-0.8-1.7-0.8-2c0-0.5,0.3-0.8,1-0.8
			C157.6,8.1,157.9,9.3,157.9,11.9z"/>
		<path class="st0" d="M186,13.3c0,0.3-0.4,0.8-1.3,1.4c-0.9,0.6-1.5,1-1.9,1c-0.3,0-0.8-0.4-1.4-1.2c-1.6-1.9-3.6-3.4-6-4.5
			c0,1.1,0,2.7,0.1,4.8c0.1,2.1,0.1,3.8,0.1,4.9c0,0.8-0.3,1.2-1,1.2c-0.6,0-0.9-0.5-0.9-1.4c0-0.8,0-2.1,0.1-3.7
			c0.1-1.7,0.1-2.9,0.1-3.7V6.9c0-0.4,0-0.9-0.1-1.7c0-0.8-0.1-1.3-0.1-1.7c0-0.7,0.3-1,1-1c0.6,0,1,0.3,1,1c0,0.6,0,1.4-0.1,2.5
			c-0.1,1.1-0.1,1.9-0.1,2.5c1.8,0.8,3.8,1.8,5.8,2.9c1.7,0.9,3.1,1.4,4.1,1.6C185.8,13,186,13.1,186,13.3z"/>
		<path class="st0" d="M198.1,15c-0.3,1-0.6,1.9-1.1,2.9c-0.7,1.5-1.3,2.2-1.8,2.2c-0.6,0-1.1-0.8-1.5-2.3c-0.4-1.3-0.6-3.2-0.6-5.6
			c0-1,0.2-2.3,0.5-4.1c0.4-2,0.7-3.3,1.1-4c0.2-0.5,0.6-0.7,1.1-0.7c0.6,0,0.9,0.3,0.9,0.9c0,0.1-0.1,0.5-0.4,1.2
			c-0.4,0.9-0.8,2-1,3.2c-0.3,1.3-0.5,2.4-0.5,3.3c0,3.7,0.3,5.5,0.8,5.5c0.2,0,0.8-0.9,1.7-2.6c0.1-0.2,0.2-0.3,0.4-0.3
			C197.9,14.6,198.1,14.8,198.1,15z M212.2,15.9c-0.1,0.1-0.3,0.6-0.6,1.3c-0.3,0.7-0.7,1.1-1.2,1.3c-0.6,0.2-1.9,0.3-3.9,0.3
			c-1.6,0-3-0.3-4.2-0.8c-1.6-0.7-2.5-1.8-2.5-3.1c0-1.5,0.4-2.3,1.1-2.3c0.1,0,0.2,0.1,0.3,0.3c-0.2,0.7-0.3,1.2-0.3,1.4
			c0,1.6,1.3,2.4,3.8,2.4c1.1,0,2.3-0.1,3.7-0.3c0.8-0.1,1.5-0.3,2.2-0.6c0.6-0.3,1-0.4,1.2-0.4C212,15.5,212.1,15.6,212.2,15.9z
			 M209.7,5.8c0,0.3-0.7,0.9-2,1.9c-1.4,1-2.2,1.4-2.5,1.4c-0.3,0-0.5-0.1-0.5-0.3c0-0.2,0.3-0.5,0.9-1.1c0.5-0.5,1-0.9,1.3-1.1
			c-0.1,0-0.2-0.1-0.4-0.1c-1.2,0-2.5,0.1-3.9,0.4c-1.5,0.3-2.2,0.4-2.1,0.4c-0.3,0-0.5-0.2-0.5-0.6c0-0.6,0.2-1,0.7-1.1
			c0.2-0.1,0.7-0.1,1.5-0.2c1.9-0.2,4.1-0.3,6.6-0.3C209.4,5,209.7,5.3,209.7,5.8z"/>
		<path class="st0" d="M226.9,2.1c0.4,0,0.6,0.2,0.6,0.5c0.3,0.1,0.7,0.3,1.3,0.8c4.2,2.7,6.8,4.2,7.9,4.5c0.7,0.2,1.5,0.3,2.4,0.4
			c0.4,0,0.6,0.1,0.6,0.4c0,0.4-0.3,0.8-1,1.2c-0.6,0.4-1.3,0.6-2,0.6c-0.4,0-0.9-0.2-1.3-0.5c-1.7-1.5-3.6-3.1-5.8-4.6
			c-0.9-0.6-1.8-1.1-2.5-1.4c-0.1-0.1-0.2-0.1-0.3-0.2c-1.4,1.5-2.9,2.8-4.5,3.9c-1.4,1-3,1.8-4.8,2.4c-0.4,0.1-0.7,0.2-0.8,0.2
			c-0.4,0-0.9-0.3-1.5-0.8c-0.4-0.4-0.6-0.7-0.6-1.1c0.1-0.3,0.3-0.4,0.8-0.4c1.3-0.1,2.3-0.3,2.9-0.4c1.5-0.4,3-1,4.5-1.9
			c1.4-0.9,2.6-2,3.6-3.2C226.5,2.2,226.7,2.1,226.9,2.1z M221.8,13.3c0.3,0,0.5,0,0.8,0.1c0.3,0.1,0.6,0.1,1.1,0.1h4.1
			c0.9,0,2,0,3.3,0.1c0.3,0,0.6-0.1,1-0.2c0.5,0,0.8,0.3,0.8,0.9c0,0,0,0.1-0.1,0.2c-0.1,0.2-0.1,0.5-0.2,1.1
			c-0.1,0.7-0.1,1.4-0.1,2.2c0,0.4,0,1.1,0.1,1.8c0,0.6-0.3,0.9-0.8,0.9c-1.8-0.1-3.4-0.2-4.9-0.2c-1.9,0-3.1,0-3.6,0.1
			c-0.4,0-1,0.1-1.6,0.1c-0.5,0-0.8-0.3-0.8-0.8c0.1-1.1,0.2-2,0.2-2.8c0-0.8-0.1-1.7-0.2-2.7C221,13.5,221.3,13.3,221.8,13.3z
			 M223.3,9h8.5c0.3,0,0.4,0.1,0.4,0.3c0,0.3-0.1,0.6-0.3,0.9c-0.3,0.2-0.6,0.4-1,0.4c-0.2,0-0.7-0.1-1.5-0.2
			c-0.8-0.1-1.6-0.1-2.5-0.1c-1.6,0-2.7,0.1-3.4,0.3c-0.4,0.2-0.7,0.3-0.8,0.3c-0.6,0-0.9-0.3-1-0.9c0-0.3,0.2-0.5,0.5-0.8
			C222.5,9.1,222.8,9,223.3,9z M226.9,18.8c1.1,0,2.4,0,3.7,0.1c0.3,0,0.4-0.1,0.4-0.3v-3.5c0-0.2-0.1-0.3-0.2-0.3
			c-1.7-0.1-4.2-0.1-7.4-0.1c-0.4,0-0.6,0.2-0.6,0.6c0,1.2-0.1,2.2-0.2,3.3c0,0.3,0.2,0.4,0.7,0.4C224.3,18.9,225.5,18.8,226.9,18.8
			z"/>
		<path class="st0" d="M263.6,13.2c0,1.4-0.5,2.6-1.5,3.7c-0.8,1-2,1.7-3.3,2.2c-1.3,0.4-2.4,0.6-3.2,0.6c-0.4,0-0.9-0.2-1.4-0.7
			c-0.5-0.5-0.8-1-0.8-1.3c0-0.2,0.5-0.3,1.5-0.3c4.7-0.1,7.1-1.7,7.1-4.8c0-1.1-0.4-2-1.3-2.7C259.9,9.3,259,9,257.8,9
			c-2.5,0-5.1,1.1-7.7,3.3c0,0.8,0,2.1,0.1,3.9c0,1.7,0,3,0,3.9c0,0.6-0.4,0.9-1.1,0.9c-0.4,0-0.7-0.5-0.7-1.4
			c0-0.1-0.1-0.7-0.1-1.8c0-1.2,0-2.9,0.1-5c-1.3,1.4-2.3,2.8-3.3,4.3c-0.4,0.5-0.6,0.8-0.8,0.8c-0.6,0-0.9-0.3-0.9-1
			c0-0.5,0.7-1.6,2.2-3.3c1-1,1.9-2.1,2.9-3.1c0-0.6,0-1.4,0.1-2.6c-1.6,0.2-2.9,0.5-3.9,0.9c-0.4,0-0.6-0.3-0.6-0.9
			c0-0.6,0.5-1,1.4-1.1c0.2,0,1.3-0.1,3.1-0.3l0.1-2.6c0-1,0.3-1.6,0.9-1.6c0.6,0,0.9,0.3,0.9,0.9c0,0.3,0,0.9-0.1,1.6
			c-0.1,0.7-0.1,1.3-0.1,1.6c0,0,0.1,0,0.3,0c0.1,0,0.1,0,0.2,0c0.7,0,1,0.3,1,0.8c0,0.3-0.2,0.7-0.6,1.3c-0.3,0.4-0.6,0.8-0.9,1.2
			c0,0.1,0,0.3-0.1,0.6c0,0.2,0,0.4,0,0.6c2.8-1.8,5.3-2.7,7.5-2.7c1.6,0,3,0.5,4.1,1.5C263,10.4,263.6,11.7,263.6,13.2z"/>
		<path class="st0" d="M290.9,8.9c0,0.4-0.3,0.8-0.8,1.5c-0.5,0.6-0.9,0.9-1.3,0.9c-0.3,0-1-0.2-2.2-0.7c-0.7-0.2-1.5-0.4-2.4-0.6
			c-0.2,1-0.4,1.9-0.6,2.9c-0.4,1.3-0.9,1.9-1.7,1.9c-0.5,0-1.1-0.3-2-0.8c-0.9-0.6-1.3-1-1.3-1.4c0-0.2,0.1-0.3,0.4-0.3
			c0.4,0.2,0.8,0.3,1.2,0.5c0.6,0.3,1,0.4,1.2,0.4c0.5,0,0.9-1.1,1.2-3.4c-0.1,0-0.2,0-0.4,0c-0.2,0-0.3,0-0.4,0
			c-2,0-3.9,0.1-5.9,0.2c-0.1,1-0.1,2-0.1,2.8c0,2.1,0.2,3.4,0.5,4c0.5,0.9,1.7,1.4,3.5,1.4c1.9,0,4.2-0.4,6.8-1.1
			c0.3-0.1,0.5-0.1,0.7-0.1c0.1,0,0.2,0.2,0.2,0.4c0,0.3-0.2,0.8-0.5,1.4c-0.4,0.6-1.1,1-2.1,1.2c-0.5,0.1-1.4,0.2-2.6,0.2
			c-1.9,0-3.5-0.3-4.8-0.8c-1.3-0.5-2.2-1.4-2.7-2.7c-0.3-1-0.5-2.3-0.5-3.9c0-0.3,0-0.8,0-1.4c0-0.6,0-1,0-1.3
			c-1.8,0.3-3.4,0.6-4.8,1.1l-1,0.3c-0.4,0-0.6-0.2-0.6-0.6c0-0.4,0.1-0.8,0.4-1.1c0.3-0.3,2.3-0.6,6.1-0.9v-4
			c0-0.8,0.4-1.3,1.2-1.3c0.5,0,0.8,0.3,0.8,0.9c0,0.4-0.1,1.1-0.2,2.1c-0.1,1-0.1,1.7-0.1,2.1c2.6-0.1,4.9-0.2,6.8-0.2
			c0-0.4,0-1.1,0-1.9c0-1,0.1-1.6,0.1-1.9c0-0.7,0-1.1,0.1-1.2c0.1-0.4,0.4-0.6,0.9-0.6c0.4,0,0.6,0.2,0.8,0.7
			c0,0.1,0.1,0.5,0.1,1.1c0,0.7-0.1,2-0.3,3.9c1.6,0.2,3.2,0.3,4.8,0.3c0.2,0,0.4,0,0.8-0.1c0.3-0.1,0.6-0.1,0.8-0.1
			C290.9,8.6,290.9,8.7,290.9,8.9z"/>
		<path class="st0" d="M314.5,5.7c0,0.4-0.2,0.7-0.7,0.7c-0.2,0-0.5,0-1-0.1c-0.4-0.1-0.7-0.1-0.9-0.1c-2.1,0-4.1,0.6-5.8,1.9
			c-1.9,1.4-2.9,3.1-2.9,5.2c0,1.8,0.8,3,2.3,3.9c1.2,0.7,2.8,1.1,4.7,1.1c0.3,0,0.8,0,1.4-0.1c0.6-0.1,1.1-0.1,1.4-0.1
			c0.2,0,0.3,0.1,0.4,0.3c-0.1,0.6-0.5,1.1-1,1.6c-0.6,0.5-1.1,0.7-1.7,0.7c-2.3,0-4.3-0.6-6-1.8c-1.9-1.3-2.8-3.1-2.8-5.3
			c0-1.7,0.6-3.3,1.7-4.6c0.9-1,2.3-2,4-2.9c-3.7,0.3-7.1,0.9-10.3,1.7c-0.3,0.1-0.7,0.2-1.2,0.3c-0.5,0-0.7-0.3-0.7-0.7
			c0-0.5,0.1-0.9,0.3-1.1c0.3-0.2,0.8-0.4,1.6-0.5c2.5-0.3,5.8-0.6,9.9-1c3.4-0.3,5.4-0.4,6-0.4c0.3,0,0.6,0.1,0.8,0.4
			C314.4,5,314.5,5.3,314.5,5.7z"/>
		<path class="st0" d="M320.8,9.7c0.9,0,1.8,0.1,2.7,0.2c0.3-0.1,0.6-0.2,0.9-0.2c0.7,0,1,0.3,1,0.9c0,0.2-0.1,0.4-0.4,0.7
			c-0.6,0.8-1.1,1.7-1.4,2.7c-0.3,0.9-0.6,1.8-0.8,2.9c1,0.1,2.7,0.3,5.2,0.6c6.2,0.8,10.3,1.2,12.5,1.2c0.7,0,1.4-0.1,1.8-0.2
			c0.3-0.1,0.5-0.1,0.7-0.1c0.1,0,0.2,0.1,0.2,0.4c0,0.5-0.3,1.1-0.8,1.8c-0.5,0.7-0.9,1-1.3,1c-0.5,0-1-0.1-1.5-0.2
			c-6.3-1.4-10.7-2.4-13.1-2.7c-2-0.4-3.3-0.6-3.9-0.6c-0.7,0-1.5,0.6-2.4,1.8c-0.2,0.3-0.5,0.5-0.8,0.5c-0.5,0-0.8-0.2-0.8-0.6
			c0-0.2,0.6-1,1.8-2.3c0.1-0.2,0.3-0.3,0.4-0.4c0.5-2.2,1.1-4.1,1.8-5.7c0-0.2,0-0.3,0-0.3c-0.1,0-0.1-0.1-0.2-0.1
			c-0.7,0-1.4,0-2,0.1c-0.2,0.1-0.5,0.1-0.8,0.2c-0.4,0-0.6-0.2-0.6-0.7C319.1,10,319.7,9.7,320.8,9.7z M321,2.5l3.6,2
			c0.4,0.1,0.6,0.3,0.6,0.6c0,0.2-0.2,0.3-0.6,0.3l-3.8-0.9c-0.6-0.1-0.9-0.6-0.9-1.3C319.9,2.8,320.3,2.5,321,2.5z M329.1,9.8h1.7
			V9.5c0-0.5,0.3-0.8,0.8-0.8c0.6,0,0.9,0.3,0.9,0.9v0.1h3.8l0-0.2c0-0.5,0.3-0.8,0.8-0.8c0.6,0,0.9,0.3,0.9,0.9v0.1h2.7
			c0.2,0,0.3,0.1,0.3,0.3c0,0.3-0.1,0.6-0.3,0.8c-0.2,0.2-0.6,0.3-0.9,0.3c-0.3,0-0.9,0-1.9-0.1l-0.1,1.4c0.7,0,1.5,0.1,2.4,0.1
			c0.4,0,0.8,0,1.1,0c0.2,0,0.6,0,1.1-0.1c0.4-0.1,0.7-0.2,0.8-0.2c0.1,0,0.2,0.1,0.2,0.2c0,0.4-0.2,0.8-0.6,1.3
			c-0.4,0.5-0.7,0.8-1.1,0.8c-0.3,0-0.8-0.1-1.6-0.3c-1.6-0.4-3.5-0.6-5.8-0.6c-3.1,0-5.2,0.1-6.4,0.4c-0.6,0.1-1,0.2-1.4,0.2
			c-0.4,0-0.5-0.2-0.5-0.6c0-0.3,0.1-0.5,0.3-0.8c0.2-0.2,0.4-0.3,0.6-0.3c0.2,0,0.4,0,0.6,0.1c1.2-0.1,2.4-0.2,3.6-0.3l-0.1-1.4
			c-0.5,0-0.9,0.1-1.3,0.1c-0.5,0.2-0.9,0.2-1,0.2c-0.5,0-0.7-0.3-0.8-0.8c0-0.2,0.2-0.4,0.4-0.6C328.4,9.8,328.7,9.8,329.1,9.8z
			 M328.7,2.1l3.1,0.1c0.5-0.1,0.8-0.2,1-0.2c0.6,0,0.9,0.3,0.9,0.9c-0.2,0.3-0.3,0.7-0.4,1c0,0.2,0,0.6,0,1.1
			c0,0.5-0.2,0.8-0.7,0.8c-0.2,0-0.3,0-0.4-0.1h0c-1.2,0-2.2,0.1-2.9,0.2h0c0,0.3,0,0.7-0.1,1c0,0.1,0.1,0.2,0.3,0.2h2.9
			c0.7,0,1.1,0.1,1.1,0.4c0,0.5-0.3,0.8-0.8,0.8l-2-0.1c-0.9,0-1.6,0.1-2.2,0.2c-0.5,0-0.8-0.2-0.8-0.5c0.1-0.5,0.1-0.9,0.1-1.2
			c0-0.4,0-0.9-0.1-1.5c0-0.4,0.3-0.5,0.8-0.5c0.2,0,0.4,0,0.6,0.1c0.1,0,0.2,0,0.3,0h2.5c0,0,0-0.1,0-0.1c0-0.5,0.1-0.9,0.2-1.1
			c0-0.2-0.1-0.3-0.3-0.3c-0.9,0-2,0-3.4,0.1c-0.4,0-0.7-0.1-0.7-0.4c0-0.3,0.1-0.5,0.4-0.6C328.4,2.2,328.6,2.1,328.7,2.1z
			 M328.1,15.3c0.4,0.1,0.8,0.1,1,0.1c0.7,0,1.5-0.3,2.5-0.8c0.1,0,0.2,0.1,0.2,0.3c0,0.2-0.3,0.7-1,1.4c-0.7,0.7-1.2,1.1-1.7,1.1
			c-0.3,0-0.6-0.2-0.8-0.5c-0.3-0.4-0.4-0.8-0.4-1.3C327.9,15.5,327.9,15.3,328.1,15.3z M336.2,12.4l0-1.4c-0.7,0-1.4,0-2.1,0
			c-0.6,0-1.2,0-1.7,0l-0.1,1.4c0.7,0,1.3,0,2,0C334.8,12.4,335.4,12.4,336.2,12.4z M336.1,2.1l3.7,0.1c0.5-0.1,0.8-0.2,1-0.2
			c0.6,0,0.9,0.3,0.9,0.9c-0.2,0.3-0.3,0.7-0.4,1c0,0.2,0,0.6,0,1.1c0,0.5-0.2,0.8-0.7,0.8c-0.2,0-0.3,0-0.4-0.1h0
			c-1.3,0-2.3,0.1-3.1,0.2h0c0,0.3,0,0.7-0.1,1c0,0.1,0.1,0.2,0.3,0.2h3.2c0.7,0,1.1,0.1,1.1,0.4c0,0.5-0.3,0.8-0.8,0.8l-2.1-0.1
			c-0.9,0-1.7,0.1-2.4,0.2c-0.5,0-0.8-0.2-0.8-0.5c0.1-0.5,0.1-0.9,0.1-1.2c0-0.4,0-0.9-0.1-1.5c0-0.4,0.3-0.5,0.8-0.5
			c0.3,0,0.5,0,0.6,0.1c0.1,0,0.2,0,0.3,0h2.7c0,0,0-0.1,0-0.1c0-0.5,0.1-0.9,0.2-1.1c0-0.2-0.1-0.3-0.3-0.3c-1.1,0-2.4,0-4,0.1
			c-0.4,0-0.7-0.1-0.7-0.4c0-0.3,0.1-0.5,0.4-0.6C335.7,2.2,335.9,2.1,336.1,2.1z M336.9,14.7l0.1,0.1c0.8,0.5,1.4,0.8,1.9,0.9
			c0.3,0.1,0.7,0.2,1.3,0.2c0.2,0,0.3,0.1,0.3,0.3c0,0.3-0.2,0.6-0.6,0.9c-0.7,0.4-1.2,0.6-1.6,0.6c-0.1,0-0.2-0.1-0.3-0.2
			c-0.2-0.2-0.6-1-1.3-2.2c-0.1-0.1-0.1-0.2-0.1-0.3C336.5,14.8,336.7,14.7,336.9,14.7z"/>
		<path class="st0" d="M369.2,15.5c-0.1,0.3-0.5,0.8-1.2,1.4s-1.2,0.9-1.5,0.9c-0.3,0-0.7-0.3-1.3-0.9c-1.4-1.4-3-2.9-5-4.7
			c-2.7-2.5-4.3-3.8-4.7-3.8c-0.4,0-1.5,1-3.4,2.9c-1.9,2-3.1,2.9-3.6,2.9c-0.3,0-0.6-0.1-0.8-0.3c-0.2-0.2-0.3-0.5-0.3-0.8
			c0-0.4,0.2-0.7,0.7-1c2.2-1.6,4.1-3.1,5.7-4.5c0.6-0.5,1.1-0.7,1.6-0.7c0.6,0,1.5,0.5,2.8,1.5l5.9,4.4c1.5,1.1,3,1.9,4.4,2.3
			C368.7,15.3,369,15.4,369.2,15.5z M363.3,5.6c0,0.2-0.2,0.4-0.6,0.7s-0.6,0.4-0.9,0.4c-0.3,0-0.8-0.5-1.4-1.4
			c-0.6-0.9-0.9-1.6-0.9-2c0-0.2,0.1-0.3,0.2-0.3c0.2,0,0.3,0.1,0.5,0.3c0.8,1,1.6,1.6,2.4,1.9C363,5.3,363.2,5.4,363.3,5.6z
			 M366.8,4.4c-0.1,0.2-0.3,0.4-0.6,0.7c-0.3,0.3-0.6,0.5-0.8,0.5c-0.4-0.1-1-0.5-1.7-1.3c-0.6-0.8-1-1.3-1-1.7
			c0-0.1,0.1-0.2,0.2-0.2l1.3,0.8c0.9,0.5,1.6,0.8,2,0.9C366.6,4.2,366.8,4.3,366.8,4.4z"/>
		<path class="st0" d="M391.2,14.8c0,2-0.9,3.5-2.7,4.5c-1.5,0.9-3.3,1.3-5.4,1.3c-1,0-2-0.2-2.9-0.7c-1.1-0.6-1.7-1.3-1.7-2.2
			c0-1.4,0.9-2.2,2.6-2.2c2.1,0,3.8,1,5,3.1c0.9-0.3,1.7-0.8,2.2-1.4c0.6-0.7,1-1.5,1-2.4c0-1-0.4-1.9-1.3-2.4
			c-0.7-0.5-1.7-0.7-2.8-0.7c-1.5,0-2.9,0.3-4.5,0.8c-1.6,0.6-2.9,1.3-3.9,2.3c-0.5,0.4-0.9,0.7-1,0.7c-0.6,0-0.9-0.3-0.9-1
			c0-0.4,0.3-0.8,0.9-1.3l9.1-7.8c0.1-0.1,0.2-0.2,0.4-0.3c-0.1-0.1-0.3-0.1-0.6-0.1c-0.8,0-1.9,0.1-3.3,0.2c-1.7,0.1-2.7,0.2-3,0.3
			c-0.5,0-0.8-0.3-0.8-0.9c0-0.5,0.6-0.8,1.7-0.9c2-0.1,4.8-0.1,8.2-0.1c0.8,0,1.1,0.2,1.1,0.6c0,0.2-0.3,0.6-0.8,1
			c-3,2.3-5.7,4.5-8,6.6c1.8-0.8,3.8-1.1,5.9-1.1c1.4,0,2.7,0.3,3.8,1C390.6,12.3,391.2,13.4,391.2,14.8z M384.4,19.1
			c-1.1-1.7-2.2-2.5-3.3-2.5c-0.9,0-1.3,0.4-1.3,1.1c0,1,1.1,1.5,3.3,1.5C383.3,19.2,383.7,19.1,384.4,19.1z"/>
		<path class="st0" d="M405,20c0,0.5-0.2,0.9-0.6,1.2c-0.4,0.3-0.8,0.5-1.3,0.5c-0.5,0-0.9-0.2-1.3-0.5c-0.3-0.3-0.5-0.7-0.5-1.2
			c0-1.1,0.6-1.6,1.8-1.6c0.5,0,1,0.1,1.3,0.4C404.9,19.1,405,19.5,405,20z M404.5,4.8c-0.2,0.6-0.3,2.5-0.3,5.8
			c0,2.8,0,4.4,0.1,4.7c-0.1,0.8-0.4,1.2-1.2,1.2c-0.8,0-1.2-0.4-1.2-1.2c0-0.5,0-1.3,0.1-2.4c0.1-1,0.1-1.8,0.1-2.4
			c0-0.6-0.1-1.5-0.2-2.9c-0.1-1.3-0.1-2.3-0.1-2.9c0-0.8,0.4-1.2,1.3-1.2C404,3.6,404.5,4,404.5,4.8z"/>
		<path class="st0" d="M1.4,31.9c0.8,0,1.2,0.3,1.2,0.9c0,0.6,0,1.1,0,1.7c0,0,0.1,0,0.1,0h4.9c0.5,0,0.8,0.2,0.8,0.6
			c0,0.4-0.3,0.6-0.8,0.6c-2.2,0-3.9,0.1-5.2,0.2c-0.1,1-0.2,1.9-0.3,2.7c0,0.2,0.1,0.3,0.3,0.3c3.2-0.6,5-0.9,5.6-0.9
			c0.4,0,0.6,0.2,0.6,0.5c0,0.5-0.3,0.7-0.8,0.8c-1.8,0.2-3.3,0.4-4.4,0.7c-0.9,0.2-1.5,0.5-1.9,0.7C1.3,41,1,41.1,0.8,41.1
			c-0.5,0-0.8-0.3-0.8-1c0-0.1,0.1-0.3,0.3-0.5c0.2-0.2,0.3-0.6,0.3-1c0.1-1,0.2-1.8,0.2-2.6c0-1.1-0.1-2.1-0.2-3.2
			C0.7,32.2,0.9,31.9,1.4,31.9z M10.1,39.4c0.6,0,0.9,0.3,0.9,0.9c0,0.1,0,0.2-0.1,0.4c-0.3,0.6-0.5,1-0.7,1.3H11c1,0,2.1,0,3.5,0.1
			c0.3,0,0.6-0.1,1-0.2c0.5,0,0.8,0.3,0.8,0.9c0,0,0,0.1-0.1,0.2c-0.1,0.3-0.1,0.8-0.2,1.5c-0.1,0.9-0.1,1.9-0.1,2.9
			c0,0.7,0,1.6,0.1,2.8c0,0.6-0.3,0.9-0.8,0.9c-1.9-0.1-3.5-0.2-5-0.2c-2,0-3.3,0-3.8,0.1c-0.5,0-1,0.1-1.7,0.2
			c-0.5,0-0.8-0.3-0.8-0.8c0.1-1.4,0.2-2.7,0.2-3.8c0-1.1-0.1-2.4-0.2-3.9c0-0.5,0.3-0.8,0.8-0.8c0.3,0,0.5,0,0.8,0.1
			c0.3,0.1,0.6,0.1,1.1,0.1h2.2c0.2-0.6,0.3-1.2,0.3-1.7C9.2,39.7,9.5,39.4,10.1,39.4z M10.2,49.6c1.1,0,2.4,0,3.8,0.1
			c0.3,0,0.4-0.1,0.4-0.3V47c0,0-0.1,0-0.1,0c-3.7,0-6.6,0.1-8.6,0.2c0,0.7-0.1,1.4-0.1,2.1c0,0.3,0.2,0.4,0.7,0.4
			C7.4,49.7,8.7,49.6,10.2,49.6z M5.8,45.8c0.1,0,0.1,0,0.1,0h8.4c0,0,0.1,0,0.1,0v-2.1c0-0.2-0.1-0.3-0.2-0.3
			c-1.8-0.1-4.4-0.1-7.9-0.1c-0.4,0-0.6,0.2-0.6,0.6C5.8,44.5,5.8,45.2,5.8,45.8z M12.5,31.8c0.6,0,0.9,0.3,0.9,0.8
			c0,0.7,0,1.5-0.1,2.5c1.8-0.6,3.3-1.1,4.5-1.6c0.4-0.1,0.7-0.2,0.9-0.2c0.5,0,0.8,0.3,0.8,1c0,0.2-0.2,0.4-0.7,0.5
			c-3.1,0.8-4.9,1.3-5.5,1.4c0,0.5-0.1,1-0.1,1.6c0,0.3,0.1,0.5,0.4,0.5c0.5,0.1,1.8,0.1,3.9,0.1c1.8,0,3.4-0.2,4.8-0.5
			c0.2,0,0.3,0.2,0.3,0.5c0,0.5-0.2,1-0.6,1.6c-0.4,0.6-0.8,1-1.2,1c-0.4,0-3-0.3-8.1-0.9c-0.8-0.1-1.1-0.5-1.1-1.1
			c0.1-1.6,0.2-2.8,0.2-3.7c0-0.9,0-1.8-0.1-2.9C11.7,32,12,31.8,12.5,31.8z"/>
		<path class="st0" d="M46,36.2c-0.1,0.4-0.3,0.9-0.7,1.5c-0.5,0.7-0.9,1-1.2,1c-0.1,0-0.6-0.1-1.3-0.4c-1-0.4-2.8-0.7-5.4-0.8
			c0.8,2.3,1.9,4.1,3.3,5.5c0.2,0.2,0.4,0.5,0.7,0.8c-0.1,0.5-0.4,0.9-0.7,1c-0.2,0-0.6-0.2-1.4-0.6c-0.8-0.4-1.4-0.6-1.7-0.7
			c-0.8-0.2-1.7-0.3-2.7-0.3c-3.1,0-4.7,0.9-4.7,2.6c0,1,0.5,1.7,1.5,2.1c0.7,0.3,1.6,0.5,2.7,0.5c2.4,0,4.2-0.3,5.5-0.9
			c0.7-0.3,1.1-0.5,1.2-0.5c0.2,0,0.4,0.1,0.4,0.4c0,0.4-0.1,0.9-0.4,1.5c-0.5,1-2.1,1.5-4.7,1.5c-1.9,0-3.5-0.3-4.9-0.8
			c-1.9-0.7-2.8-1.9-2.8-3.5c0-1.5,0.7-2.6,2.2-3.3c1.1-0.6,2.5-0.8,4.1-0.8c1.1,0,2.3,0.2,3.7,0.6c-1.2-1.5-2.1-3.2-2.8-5.1
			c-2.7,0.1-5,0.5-7,1c-0.7,0.2-1.1,0.3-1.5,0.3c-0.4,0-0.7-0.3-0.7-1c0-0.7,0.6-1,1.8-1.1c1.5-0.1,3.8-0.3,6.8-0.5
			c-0.6-1.4-0.8-2.4-0.8-2.9c0-0.6,0.3-0.9,1-0.9c0.4,0,0.7,0.5,1,1.5c0.2,0.7,0.3,1.5,0.5,2.2c2.3,0,4.6-0.1,7-0.1
			c0.2,0,0.4,0,0.8-0.1c0.4,0,0.6-0.1,0.8-0.1C45.9,35.9,46,36,46,36.2z"/>
		<path class="st0" d="M70.2,45.3c0,2-1.1,3.3-3.2,4c-1.3,0.4-2.5,0.6-3.7,0.6c-1.7,0-2.8-0.7-3.3-2.1c-0.1-0.3-0.3-1.6-0.6-3.9
			c-0.1-1.4-0.6-2.1-1.4-2.1c-1.6,0-2.9,0.7-3.9,2c-0.4,0.6-1.1,1.9-1.9,3.8c-0.6,1.4-1.1,2.1-1.6,2.1c-0.7,0-1-0.3-1-1
			c0-0.3,0.1-0.7,0.4-1.1c1.2-2.2,3.7-7,7.4-14.6c0.2-0.5,0.6-0.7,1.1-0.7c0.6,0,1,0.3,1,0.9c0,0.3-0.7,1.7-2.1,4.2
			c-0.8,1.5-1.6,3-2.5,4.4c1.1-0.7,2.2-1,3.2-1c0.7,0,1.4,0.3,2,0.8c0.4,0.5,0.7,1.3,1,2.5c0.3,1.7,0.5,2.7,0.5,2.7
			c0.3,0.9,0.8,1.3,1.5,1.3c0.8,0,1.7-0.3,2.9-0.9c1.1-0.5,1.9-1.1,2.6-1.7c0.8-0.8,1.2-1.1,1.3-1.1C70.1,44.4,70.2,44.7,70.2,45.3z
			"/>
		<path class="st0" d="M80.8,45c-0.3,1-0.6,1.9-1.1,2.9c-0.7,1.5-1.3,2.2-1.8,2.2c-0.6,0-1.1-0.8-1.5-2.3c-0.4-1.3-0.6-3.2-0.6-5.6
			c0-1,0.2-2.3,0.5-4.1c0.4-2,0.7-3.3,1.1-4c0.2-0.5,0.6-0.7,1.1-0.7c0.6,0,0.9,0.3,0.9,0.9c0,0.1-0.1,0.5-0.4,1.2
			c-0.4,0.9-0.8,2-1,3.2c-0.3,1.3-0.5,2.4-0.5,3.3c0,3.7,0.3,5.5,0.8,5.5c0.2,0,0.8-0.9,1.7-2.6c0.1-0.2,0.2-0.3,0.4-0.3
			C80.7,44.6,80.8,44.8,80.8,45z M94.9,45.9c-0.1,0.1-0.3,0.6-0.6,1.3c-0.3,0.7-0.7,1.1-1.2,1.3c-0.6,0.2-1.9,0.3-3.9,0.3
			c-1.6,0-3-0.3-4.2-0.8c-1.6-0.7-2.5-1.8-2.5-3.1c0-1.5,0.4-2.3,1.1-2.3c0.1,0,0.2,0.1,0.3,0.3c-0.2,0.7-0.3,1.2-0.3,1.4
			c0,1.6,1.3,2.4,3.8,2.4c1.1,0,2.3-0.1,3.7-0.3c0.8-0.1,1.5-0.3,2.2-0.6c0.6-0.3,1-0.4,1.2-0.4C94.8,45.5,94.9,45.6,94.9,45.9z
			 M92.5,35.8c0,0.3-0.7,0.9-2,1.9c-1.4,1-2.2,1.4-2.5,1.4c-0.3,0-0.5-0.1-0.5-0.3c0-0.2,0.3-0.5,0.9-1.1c0.5-0.5,1-0.9,1.3-1.1
			c-0.1,0-0.2-0.1-0.4-0.1c-1.2,0-2.5,0.1-3.9,0.4c-1.5,0.3-2.2,0.4-2.1,0.4c-0.3,0-0.5-0.2-0.5-0.6c0-0.6,0.2-1,0.7-1.1
			c0.2-0.1,0.7-0.1,1.5-0.2c1.9-0.2,4.1-0.3,6.6-0.3C92.2,35,92.5,35.3,92.5,35.8z"/>
		<path class="st0" d="M120.4,41.3c0,0.4-0.3,0.8-0.8,1.4c-0.6,0.6-1,0.8-1.4,0.8s-1-0.5-1.8-1.5c-0.6-0.7-1.4-2.2-2.3-4.4
			c0-0.1-0.1-0.2-0.2-0.2c0,0.1-0.1,0.4-0.1,0.9c0,0.2,0,0.5,0.1,0.9c0,0.4,0.1,0.7,0.1,0.8c0,2.8-0.5,5.2-1.6,7.1
			c-1.3,2.4-3.3,3.6-5.9,3.6c-0.8,0-1.6-0.2-2.5-0.7c-1.8-0.9-2.7-2.6-2.7-5.1c0-2.9,1.5-6.1,4.4-9.5c-2.7,1.1-4.5,1.7-5.4,1.7
			c-0.5,0-0.8-0.2-0.8-0.6c0-0.4,0.1-0.6,0.3-0.9c0.2-0.2,0.5-0.4,1-0.4c1.1-0.1,2.2-0.4,3.4-0.7c0.2,0,0.9-0.3,2.3-0.8
			c1.2-0.4,1.9-0.6,1.9-0.6c0.5,0,0.7,0.2,0.7,0.6c0,0.3-0.4,0.8-1.2,1.5c-1.3,1.1-2.4,2.5-3.4,4.3c-1.1,1.9-1.7,3.6-1.7,5.1
			c0,1.3,0.3,2.3,0.8,3.1c0.6,0.9,1.5,1.3,2.7,1.3c2.2,0,3.9-1.3,5.2-3.8c0.9-2,1.4-4.2,1.4-6.7c0-1.1-0.1-2.1-0.3-2.8
			c-0.1-0.3-0.1-0.6-0.1-0.8c0-0.5,0.2-0.8,0.6-0.8c0.3,0,0.5,0.2,0.7,0.5c0.6,1.2,1.1,2,1.3,2.5c0.5,0.9,1.1,1.7,1.7,2.3
			c0.7,0.8,1.7,1.3,2.8,1.7C120.2,41,120.4,41.1,120.4,41.3z M120.5,33.6c0,0.6-0.3,1.2-0.9,1.8c-0.6,0.6-1.2,0.8-1.8,0.8
			c-0.7,0-1.3-0.3-1.8-0.8c-0.5-0.5-0.8-1.2-0.8-1.8c0-0.8,0.3-1.4,0.8-1.9c0.5-0.5,1.1-0.8,1.9-0.8c0.7,0,1.3,0.3,1.8,0.8
			C120.2,32.2,120.5,32.9,120.5,33.6z M119.5,33.6c0-0.4-0.2-0.8-0.5-1.2c-0.3-0.4-0.7-0.5-1.1-0.5c-0.5,0-0.9,0.2-1.2,0.5
			c-0.3,0.3-0.4,0.7-0.4,1.2c0,0.4,0.1,0.8,0.4,1.1c0.3,0.3,0.7,0.5,1.1,0.5c0.4,0,0.7-0.2,1.1-0.5
			C119.3,34.3,119.5,33.9,119.5,33.6z"/>
		<path class="st0" d="M142.6,43.4c0,1.2-0.5,2.4-1.6,3.5c-0.9,1-2,1.8-3.2,2.3c-1.6,0.7-2.7,1-3.4,1c-0.3,0-0.7-0.2-1.1-0.6
			c-0.5-0.4-0.8-0.8-0.8-1c0-0.2,0.3-0.3,0.8-0.4c1.6-0.2,2.9-0.4,3.7-0.6c1.4-0.4,2.4-1.1,3.1-2c0.7-0.8,1-1.5,1-2.2
			c0-1.9-1.4-2.9-4.1-2.9c-1.4,0-3.2,0.2-5.2,0.6c-2,0.4-3.6,0.8-5,1.3c-0.4,0-0.7-0.3-0.7-0.8c0-0.6,0.5-1.1,1.6-1.3
			c2.6-0.6,5.5-0.9,8.6-0.9c2.6,0,4.4,0.6,5.3,1.9C142.4,42,142.6,42.7,142.6,43.4z"/>
		<path class="st0" d="M161.4,36.1c0,0.2-0.1,0.4-0.3,0.8c-0.2,0.3-0.4,0.5-0.6,0.6c-1.2-0.2-2.3-0.3-3.2-0.3c-0.1,0-0.3,0-0.6,0
			c-0.3,0-0.5,0-0.6,0c-0.4,2-1,3.8-1.6,5.5c-1.9,4.8-3.4,7.2-4.5,7.2c-0.3,0-0.7-0.1-1.2-0.3c-0.6-0.2-0.8-0.4-0.8-0.7
			c0-0.1,0.4-0.6,1.1-1.4c1.3-1.3,2.4-2.9,3.4-4.7c1-1.9,1.7-3.7,2.1-5.4c-1.8,0.1-3.4,0.4-4.7,0.9c-0.4-0.1-0.6-0.3-0.6-0.6
			c0-0.4,0.1-0.6,0.2-0.8c0.2-0.2,1-0.4,2.6-0.5c1-0.1,1.9-0.2,2.9-0.3c0.1-0.7,0.2-1.6,0.3-2.5c0-0.7,0.3-1,0.8-1
			c0.5,0,0.8,0.2,0.8,0.7c0,0.2-0.2,1.1-0.5,2.7c2.5-0.1,3.9-0.2,4.4-0.2C161.2,35.7,161.4,35.8,161.4,36.1z M168.9,47.3
			c0,0.4-0.2,1-0.5,1.6c-0.4,0.6-0.9,1-1.7,1.2c-0.5,0.1-1.2,0.2-2.2,0.2c-4.8,0-7.2-1.2-7.2-3.5c0-0.4,0.1-0.7,0.2-1.1
			c0.2-0.5,0.4-0.7,0.7-0.7c0.3,0,0.4,0.2,0.4,0.5c0,0.1,0,0.3-0.1,0.6c-0.1,0.2-0.1,0.4-0.1,0.6c0,1.1,0.9,1.7,2.7,1.7
			c2.8,0,5.1-0.4,6.7-1.3c0.4-0.2,0.7-0.3,0.7-0.3C168.8,46.8,168.9,47,168.9,47.3z M166.3,39.9c-0.1,0.2-0.7,0.8-1.8,1.6
			c-1.1,0.9-1.8,1.3-2.2,1.4c-0.1,0-0.2-0.1-0.2-0.3c0-0.3,0.2-0.6,0.6-1.1c0.3-0.3,0.6-0.6,1-0.9c-0.2,0-0.4-0.1-0.7-0.1
			c-1.3,0-2.3,0.1-3.2,0.3c-1,0.2-1.5,0.4-1.6,0.4c-0.4,0-0.5-0.1-0.5-0.4c0-0.3,0.1-0.6,0.3-0.8c0.4-0.5,2.2-0.7,5.3-0.7h1
			C165.6,39.3,166.2,39.5,166.3,39.9z"/>
		<path class="st0" d="M187.3,40.5c0,1.7-0.5,3.4-1.5,5.1c-0.9,1.7-2.1,3-3.6,3.9c-1.4,0.9-2.6,1.3-3.6,1.3c-0.4,0-0.9-0.2-1.5-0.7
			c-0.6-0.5-0.8-0.9-0.8-1.3c0-0.2,0.4-0.3,1.2-0.4c2.2-0.2,4-1,5.6-2.4c1.7-1.6,2.6-3.7,2.6-6.2c0-3.5-0.9-5.3-2.6-5.3
			c-0.8,0-1.6,0.4-2.4,1.3c-0.6,0.7-1.1,1.4-1.5,2.4c-0.6,1.3-1,2.9-1.1,4.7c-0.1,0.8-0.3,1.2-0.8,1.2c-1,0-1.6-1.8-1.6-5.5
			c0-1.3,0.1-2.6,0.3-3.8c0.3-1.9,0.8-2.8,1.5-2.8c0.4,0,0.7,0.3,0.7,1c0,0-0.1,0.6-0.4,1.7c-0.3,1.3-0.5,3.1-0.6,5.3
			c0.7-1.9,1.4-3.3,2.2-4.3c1.1-1.5,2.5-2.2,4-2.2c1.4,0,2.5,0.8,3.2,2.5C187,37.3,187.3,38.8,187.3,40.5z"/>
		<path class="st0" d="M213.9,41.5c0,3.2-1.8,5.7-5.3,7.4c-1.4,0.7-2.5,1-3.3,1c-0.5,0-0.9-0.2-1.4-0.6c-0.5-0.4-0.8-0.8-0.8-1.2
			c0-0.2,0.2-0.3,0.6-0.4c0.3,0,0.8-0.1,1.3-0.2c1.6-0.2,3-0.7,4-1.3c1-0.6,1.7-1.3,2.3-2.2c0.7-1,1-2,1-3.1c0-0.8-0.3-1.7-0.8-2.6
			c-1.1-1.8-3-2.7-5.7-2.7c-0.1,0-0.3,0-0.4,0c-0.2,0-0.3,0-0.4,0c-1,4.8-2.4,8.3-4.2,10.5c-1,1.3-1.9,1.9-2.5,1.9
			c-1,0-1.8-0.7-2.4-2.2c-0.5-1.2-0.8-2.4-0.8-3.5c0-1.8,0.6-3.4,1.8-4.8c1.8-2.2,4.6-3.3,8.4-3.3c2.3,0,4.3,0.6,5.9,1.8
			C213,37.4,213.9,39.2,213.9,41.5z M203.3,35.8c-2.4,0.4-4.2,1.3-5.3,2.6c-1.1,1.3-1.6,2.5-1.6,3.7c0,0.7,0.1,1.4,0.4,2.3
			c0.4,1,0.8,1.5,1.4,1.5c0.5,0,1-0.4,1.7-1.2C201.4,42.9,202.5,39.9,203.3,35.8z"/>
		<path class="st0" d="M219.3,35.6h7.8c0.2,0,0.3,0.1,0.3,0.3c0,0.3-0.1,0.6-0.3,0.8c-0.2,0.2-0.6,0.3-0.9,0.3c-0.2,0-0.6,0-1.3-0.1
			c-0.7,0-1.5,0-2.3,0c-1.4,0-2.5,0.1-3.1,0.2c-0.4,0.1-0.6,0.2-0.7,0.2c-0.5,0-0.8-0.3-0.9-0.8c0-0.3,0.2-0.5,0.4-0.8
			C218.6,35.7,218.9,35.6,219.3,35.6z M220.2,44.9c0.3,0,0.5,0,0.8,0.1c0.3,0.1,0.7,0.1,1.2,0.1h1.5c0.3,0,0.7,0,1.2,0.1
			c0.3,0,0.6-0.1,1-0.2c0.5,0,0.8,0.3,0.8,0.9c0,0,0,0.1-0.1,0.1c-0.1,0.1-0.1,0.4-0.2,0.8c-0.1,0.5-0.1,1.1-0.1,1.7
			c0,0.3,0,0.7,0.1,1.3c0,0.6-0.3,0.9-0.8,0.9c-0.8-0.1-1.5-0.2-2.2-0.2c-1.2,0-1.9,0-2.2,0.1c-0.3,0-0.6,0.1-1,0.1
			c-0.5,0-0.8-0.3-0.8-0.8c0.1-0.9,0.2-1.6,0.2-2.3c0-0.6-0.1-1.2-0.2-2C219.4,45.2,219.7,44.9,220.2,44.9z M220.9,41.8h4.5
			c0.5,0,0.8,0.2,0.8,0.6c0,0.4-0.3,0.6-0.8,0.6c-2,0-3.6,0.1-4.7,0.2c-0.6,0-0.9-0.2-0.9-0.6C219.9,42,220.2,41.8,220.9,41.8z
			 M221.1,32.7h4.4c0.5,0,0.8,0.2,0.8,0.7c0,0.4-0.3,0.5-0.8,0.5c-2,0-3.5,0.1-4.6,0.2c-0.6,0-0.9-0.2-0.9-0.6
			C220,32.9,220.3,32.7,221.1,32.7z M221.1,38.9h4.4c0.5,0,0.8,0.2,0.8,0.6c0,0.4-0.3,0.6-0.8,0.6c-2,0-3.5,0.1-4.6,0.2
			c-0.6,0-0.9-0.2-0.9-0.7C220,39.2,220.3,38.9,221.1,38.9z M223.4,49.2c0.3,0,0.6,0,1,0.1c0.3,0,0.4-0.1,0.4-0.3v-2.2
			c0-0.2-0.1-0.3-0.2-0.3c-0.6-0.1-1.5-0.1-2.7-0.1c-0.4,0-0.5,0.2-0.5,0.5c0,0.7-0.1,1.4-0.2,2c0,0.3,0.2,0.4,0.6,0.4
			C222.2,49.2,222.7,49.2,223.4,49.2z M229.8,33.6h1.9l0-1c0-0.5,0.3-0.8,0.8-0.8c0.6,0,0.9,0.3,0.9,0.9v0.9h3.4v-1
			c0-0.5,0.3-0.8,0.8-0.8c0.6,0,0.9,0.3,0.9,0.9l0,0.9h2.9c0.2,0,0.3,0.1,0.3,0.3c0,0.3-0.1,0.6-0.3,0.8c-0.2,0.2-0.6,0.3-0.9,0.3
			c-0.3,0-0.9,0-2-0.1c0,0,0,0-0.1,0l0,1.1h2.5c0.2,0,0.3,0.1,0.3,0.4c0,0.2-0.1,0.4-0.3,0.5c-0.2,0.2-0.4,0.3-0.7,0.3
			c-0.5,0-1.2-0.1-1.9-0.1l-0.1,1.3h4c0.3,0,0.4,0.1,0.4,0.3c0,0.4-0.1,0.7-0.3,0.9c-0.3,0.3-0.6,0.4-1,0.4c-0.3,0-1.1-0.1-2.4-0.3
			c-1,0-2.1-0.1-3.2-0.1v1.2l2.7,0c0.2,0,0.6-0.1,1.2-0.2c0.7,0,1,0.2,1,0.7c-0.3,1.2-0.4,2.6-0.4,4.4c0,0.2,0,0.4,0,0.6
			c0.4,0,0.8,0,1.1,0c0.2,0,0.6,0,1.1-0.1c0.4-0.1,0.7-0.2,0.8-0.2c0.1,0,0.2,0.1,0.2,0.2c0,0.4-0.2,0.8-0.6,1.3
			c-0.4,0.5-0.7,0.8-1.1,0.8c-0.3,0-0.8-0.1-1.5-0.3c0,0.7,0.1,1.5,0.1,2.3c0,0.7-0.3,1.1-0.9,1.1c-0.3,0-0.5-0.1-0.6-0.4
			c-0.1-0.4-0.1-0.8-0.1-1.3c0-0.7,0-1.4,0-2c-1.3-0.2-2.9-0.3-4.6-0.3c-1.3,0-2.3,0-3.2,0.1c-0.1,1-0.3,1.8-0.6,2.3
			c-0.5,1-0.9,1.4-1.4,1.4c-0.4,0-0.9-0.2-1.3-0.7c-0.2-0.3-0.4-0.6-0.4-0.8c0-0.1,0.1-0.2,0.3-0.3c0.7-0.1,1.2-0.6,1.6-1.4
			c0.1-0.1,0.1-0.2,0.1-0.4c-0.3,0.1-0.5,0.1-0.7,0.2c-0.5,0.1-0.9,0.2-1.2,0.2c-0.4,0-0.5-0.2-0.5-0.6c0-0.3,0.1-0.5,0.3-0.8
			c0.2-0.2,0.4-0.4,0.6-0.4c0.2,0,0.4,0,0.6,0.1c0.4,0,0.8-0.1,1.2-0.1c0-0.5,0.1-1.2,0.1-2c0-0.9-0.1-1.9-0.2-2.9
			c0-0.5,0.3-0.8,0.8-0.8c0.2,0,0.4,0,0.5,0.1l3.4,0.1v-1.1c-2.1,0-3.6,0.1-4.6,0.2c-0.6,0.1-1,0.2-1.2,0.2c-0.5,0-0.8-0.3-0.9-0.8
			c0-0.3,0.2-0.5,0.4-0.7c0.2-0.2,0.6-0.3,1-0.3h3.1l-0.1-1.4c-0.6,0-1.3,0.1-2.1,0.3c-0.5,0-0.8-0.2-0.8-0.5c0-0.2,0.1-0.4,0.3-0.6
			c0.2-0.2,0.4-0.3,0.7-0.3h1.8l-0.1-1.1c-0.6,0-1.1,0.1-1.5,0.2c-0.5,0.1-0.9,0.2-1,0.2c-0.5,0-0.7-0.3-0.8-0.8
			c0-0.2,0.2-0.5,0.4-0.7C229.1,33.7,229.4,33.6,229.8,33.6z M231.1,46.5c1.1-0.1,2.2-0.1,3.1-0.1c0,0,0,0,0.1,0l0-1.5
			c-1.2,0-2.3,0.1-3.1,0.2h0c0,0,0,0.1,0,0.1C231.1,45.6,231.1,46.1,231.1,46.5z M231.1,43.8c0.1,0,0.1,0,0.2,0h2.9l0-1.5
			c-1.1,0-2.1,0-3.1,0.1C231.1,42.9,231.1,43.4,231.1,43.8z M233.3,36h3.4v-1.2c-0.6,0-1.3,0-2,0c-0.5,0-1,0-1.5,0V36z M233.3,38.6
			h3.5l0-1.4c-1,0-2.2,0-3.5-0.1V38.6z M235.6,44.8l0,1.5c0.9,0,2,0.1,3.2,0.1c0-0.6,0-1.1,0.1-1.7
			C237.7,44.8,236.6,44.8,235.6,44.8z M235.7,42.3l0,1.5h3.2c0-0.5,0.1-0.9,0.1-1.3c0-0.1-0.2-0.2-0.7-0.2
			C237.4,42.3,236.5,42.3,235.7,42.3z"/>
		<path class="st0" d="M251.2,40c0.3,0,0.4,0.1,0.4,0.3c0,0.4-0.1,0.6-0.3,0.6l-4.7,1.5c-0.7,0-1-0.3-1-0.9c0-0.7,0.3-1.1,0.8-1.2
			L251.2,40z M248.3,32.1c0.1,0,0.3,0.1,0.6,0.2c0.8,0.6,1.7,1.2,2.8,2c0.1,0.1,0.2,0.2,0.2,0.3c0,0.3-0.2,0.4-0.6,0.4
			c-0.1,0-0.3,0-0.5-0.1c-1.5-0.5-2.5-0.8-2.9-0.9c-0.5-0.3-0.8-0.7-0.8-1.2C247.2,32.4,247.5,32.1,248.3,32.1z M252,46.5
			c0.3,0,0.4,0.1,0.4,0.4c0,0.2-0.1,0.4-0.2,0.7c-1.7,2.2-2.7,3.3-2.9,3.3c-0.8,0-1.2-0.2-1.2-0.7c0-0.6,0.1-1,0.4-1.2
			C248.5,48.8,249.7,48,252,46.5z M261.2,31.7c0.7,0,1,0.3,1,1c-0.1,0.5-0.2,1-0.3,1.5c2.4,0,4.6,0.1,6.4,0.3l1.1-0.2
			c0.5,0,0.8,0.2,0.8,0.5c0,0.1-0.1,0.3-0.2,0.5c-0.3,0.6-0.5,1.6-0.6,3c0,0.4-0.2,0.7-0.7,0.7c-0.4,0-0.6-0.2-0.6-0.7
			c0-0.8,0-1.5,0.1-2.2c0-0.1-0.1-0.1-0.4-0.3c-1.7-0.3-3.7-0.5-6-0.5c-2.2,0-4.3,0.1-6.2,0.3c-0.5,0-0.9,0.2-1,0.4l-0.1,0.2
			c0,1.3-0.1,2.1-0.3,2.3c-0.1,0.3-0.3,0.4-0.7,0.4c-0.3,0-0.4-0.1-0.4-0.3c0-1.6-0.2-2.9-0.4-4c0-0.4,0.3-0.7,0.8-0.7
			c0.4,0,0.6,0,0.8,0.1c0.3,0.1,0.5,0.2,0.7,0.2c1.3-0.1,3.1-0.1,5.2-0.1c0.1,0,0.1,0,0.2,0c-0.1-0.5-0.1-0.9-0.3-1.3
			C260.2,32,260.5,31.7,261.2,31.7z M254.7,49.2c0.4,0.1,0.8,0.1,1,0.1c0.7,0,1.6-0.3,2.7-0.9c0.2,0,0.3,0.1,0.3,0.3
			c0,0.3-0.4,0.8-1.1,1.6c-0.7,0.8-1.4,1.2-1.9,1.2c-0.3,0-0.6-0.2-0.9-0.5c-0.3-0.4-0.4-0.9-0.4-1.5
			C254.4,49.3,254.5,49.2,254.7,49.2z M257,37.1h9.5c0.3,0,0.4,0.1,0.4,0.3c0,0.4-0.1,0.7-0.3,0.9c-0.3,0.3-0.6,0.4-1,0.4
			c-0.2,0-0.8-0.1-1.7-0.2c-0.6-0.1-1.2-0.1-1.8-0.1l0,1.6h0c0.9,0,2,0,3.3,0.1c0.3,0,0.6-0.1,1-0.2c0.5,0,0.8,0.3,0.8,0.9
			c0,0,0,0.1-0.1,0.2c-0.1,0.2-0.1,0.6-0.2,1.2c-0.1,0.8-0.1,1.6-0.1,2.5c0,0.5,0,1.3,0.1,2.2c0,0.6-0.3,0.9-0.8,0.9
			c-1.9-0.1-3.6-0.2-5.1-0.2c-1.8,0-2.9,0-3.4,0.1c-0.4,0-0.9,0.1-1.5,0.1c-0.5,0-0.8-0.3-0.8-0.8c0.1-1.2,0.2-2.3,0.2-3.2
			c0-0.9-0.1-2-0.2-3.2c0-0.5,0.3-0.8,0.8-0.8c0.3,0,0.5,0,0.8,0.1c0.3,0.1,0.6,0.1,1.1,0.1h2.4v-1.7c-1.5,0-2.5,0.1-3.2,0.3
			c-0.4,0.1-0.7,0.2-0.9,0.2c-0.5,0-0.8-0.3-0.9-0.8c0-0.3,0.2-0.5,0.4-0.8C256.3,37.1,256.6,37.1,257,37.1z M260.6,46.2l0-2
			c-1.3,0-2.3,0.1-3.2,0.1c-0.1,0-0.1,0-0.2,0c0,0.5-0.1,1-0.1,1.5c0,0.3,0.2,0.4,0.7,0.4C258.5,46.3,259.5,46.2,260.6,46.2z
			 M257.2,43.1c0.1,0,0.2,0,0.3,0h3.1v-1.8c-0.9,0-1.8,0-2.8,0c-0.4,0-0.6,0.2-0.6,0.6C257.2,42.2,257.2,42.6,257.2,43.1z
			 M262.1,44.2l0,2.1c0.9,0,1.9,0.1,2.9,0.1c0.3,0,0.4-0.1,0.4-0.3v-1.9c0,0-0.1,0-0.1,0C264.1,44.1,263.1,44.1,262.1,44.2z
			 M262.1,41.2V43h3.1c0.1,0,0.2,0,0.2,0v-1.4c0-0.2-0.1-0.3-0.2-0.3C264.4,41.3,263.3,41.2,262.1,41.2z M264.1,48.4
			c0,0,0.1,0,0.2,0.1c1,0.5,1.7,0.8,2.3,1c0.4,0.1,0.9,0.2,1.6,0.2c0.2,0,0.3,0.1,0.3,0.3c0,0.3-0.2,0.6-0.6,0.9
			c-0.7,0.4-1.2,0.6-1.6,0.6c-0.2,0-0.3-0.1-0.4-0.2c-0.3-0.2-0.9-1-1.9-2.4c-0.1-0.1-0.1-0.2-0.1-0.3
			C263.8,48.5,263.9,48.4,264.1,48.4z"/>
		<path class="st0" d="M293.7,46.9c-0.1,0.3-0.5,0.8-1.2,1.4c-0.7,0.6-1.2,0.9-1.6,0.9c-0.3,0-1-0.7-2.2-2c-1.1-1.4-2.7-2.7-4.7-4.1
			c-2.2,2.2-4.2,3.8-6.1,4.8c-1.5,0.8-2.5,1.2-3,1.2c-0.4,0-0.8-0.2-1.3-0.7c-0.5-0.5-0.7-0.9-0.7-1.2c0-0.2,0.3-0.3,0.8-0.4
			c4.7-0.8,8.8-3.5,12.1-7.9c0.4-0.6,0.7-1,1-1.3c0.4-0.7,0.7-1.1,0.8-1.3c-0.1-0.1-0.8-0.1-2.1-0.1c-2.8,0-4.9,0.2-6.6,0.5
			c-0.8,0.2-1.4,0.3-1.7,0.3c-0.4,0-0.6-0.3-0.6-0.9c0-0.4,0.2-0.7,0.6-0.9c0.4-0.2,2-0.4,4.6-0.4h3.8c0.8,0,1.4,0,1.8,0.1
			c0.2-0.1,0.5-0.1,1-0.1c0.7,0,1,0.2,1,0.7c0,0.5-0.6,1.6-1.8,3.4c-1,1.4-1.8,2.5-2.5,3.4l4.6,2.9c1.2,0.8,2.1,1.2,2.8,1.4
			c0.2,0.1,0.5,0.1,0.8,0.1C293.4,46.7,293.6,46.8,293.7,46.9z"/>
		<path class="st0" d="M315.8,35.3c0,0.6-0.6,1.9-1.9,3.9c-1.1,1.8-2,3.1-2.7,3.9c1.1,0.8,2,1.3,2.9,1.6c0.2,0.1,0.4,0.2,0.7,0.4
			c0,0.3-0.4,0.7-1,1.2c-0.6,0.5-1.1,0.7-1.3,0.7c-0.3,0-0.7-0.4-1.3-1.1c-0.4-0.5-0.8-1-1.2-1.6c-1.3,1.2-2.7,2.4-4.4,3.6
			c-2.3,1.6-3.9,2.4-4.8,2.4c-0.4,0-0.9-0.2-1.5-0.6c-0.6-0.4-0.9-0.8-0.9-1.1c0-0.2,0.4-0.4,1.1-0.6c3.2-0.8,6.3-2.4,9.2-5
			c-0.6-0.5-1.2-1-1.8-1.4c-0.9-0.8-1.4-1.3-1.4-1.4c0-0.2,0.2-0.3,0.5-0.3c0.3,0,0.9,0.3,1.8,0.9c0.6,0.4,1.3,0.8,1.9,1.2
			c0.6-0.7,1.4-1.6,2.2-2.9c1-1.4,1.6-2.4,1.8-3c-0.2-0.2-1.3-0.3-3.2-0.3c-1,0-2.1,0.1-3.4,0.2c-0.7,0.9-1.5,1.8-2.5,2.7
			c-1.2,1.2-2.2,1.8-2.8,1.8c-0.3,0-0.8-0.2-1.3-0.5c-0.5-0.3-0.7-0.7-0.7-1c0-0.1,0.4-0.3,1.2-0.6c1.4-0.6,2.6-1.3,3.7-2.1
			c0.9-0.7,1.8-1.9,2.9-3.6c0.3-0.4,0.6-0.7,0.8-0.7c0.4,0,0.6,0.2,0.6,0.6c0,0.2-0.3,0.9-1,2c5-0.1,7.3-0.2,7-0.2
			C315.6,34.6,315.8,34.8,315.8,35.3z"/>
		<path class="st0" d="M338.7,33.6c0,0.6-0.8,1.6-2.4,3c-1.3,1.2-2.4,2-3.2,2.6c0,2.1,0,4.2,0,6c0,0.4,0,1.1,0.1,2.1
			c0.1,0.9,0.1,1.6,0.1,2.1c0,1-0.2,1.5-0.7,1.5c-0.8,0-1.1-0.5-1.1-1.5c0-4.4,0-7.5,0.1-9.4c-3.5,1.7-6.2,2.6-8.1,2.6
			c-0.5,0-1-0.2-1.5-0.7c-0.5-0.5-0.8-1-0.8-1.5c0-0.2,0.3-0.4,0.9-0.4c0.3,0,0.8,0,1.5,0c3.2-0.2,6-1,8.4-2.3
			c2.2-1.2,3.8-2.5,4.7-3.8c0.5-0.7,0.9-1.1,1.3-1.1C338.4,32.8,338.7,33.1,338.7,33.6z"/>
		<path class="st0" d="M350.5,36.2c0,1.6-0.2,3.3-0.6,5c-0.5,1.9-1.1,3.4-2,4.6c-0.8,1.1-1.4,1.8-1.9,2.2c-0.7,0.5-1.1,0.8-1.3,0.8
			c-0.3,0-0.7-0.2-1.4-0.7c-0.7-0.4-1-0.8-1-1c0-0.2,0.4-0.5,1.2-0.8c2.3-0.9,3.9-2.7,4.9-5.2c0.4-1.2,0.7-2.9,0.8-5.1
			c0.1-0.7,0.2-1,0.6-1C350.2,34.9,350.5,35.3,350.5,36.2z M364.1,40.9c0,0.2-0.7,1.1-2,2.6c-1,1.1-2.2,2.2-3.6,3.4
			c-1.8,1.5-3.2,2.2-4.1,2.2c-0.7,0-1.1-0.5-1.1-1.4c0-0.7,0-1.7,0.1-3.1c0.1-1.4,0.1-2.4,0.1-3c0-0.8,0-1.9-0.1-3.3
			c-0.1-1.5-0.1-2.6-0.1-3.3c0-0.8,0.4-1.2,1.2-1.2c0.3,0,0.5,0.1,0.6,0.4c0.1,0.2,0.2,0.5,0.2,0.8L355,46.4c0.4,0,1.4-0.5,2.9-1.5
			c1.3-0.9,2.7-2,4.1-3.4c0.9-0.9,1.4-1.3,1.5-1.3C363.9,40.1,364.1,40.4,364.1,40.9z"/>
		<path class="st0" d="M374,45.2c0,0.5-0.3,1.5-1,3c-0.7,1.5-1.2,2.3-1.7,2.3c-0.9,0-1.5-1.1-1.9-3.4c-0.2-1.3-0.3-2.8-0.3-4.5
			c0-1.4,0.2-3.1,0.6-5.2c0.5-2.7,1-4.1,1.7-4.1c0.7,0,1,0.3,1.1,1c-0.1,0.2-0.5,1.3-1.1,3.2c-0.6,1.9-0.9,3.8-0.9,5.5
			c0,1.8,0.1,3.2,0.4,4.1c0.1,0.6,0.3,0.8,0.4,0.8c0.2,0,0.6-0.5,1.1-1.6c0.6-1.1,1-1.6,1.1-1.6C373.9,44.7,374,44.9,374,45.2z
			 M390,47.4c-0.1,0.4-0.4,0.8-0.9,1.4c-0.5,0.6-0.9,0.8-1.3,0.8c-0.2,0-0.8-0.3-1.7-1c-1-0.8-1.9-1.4-2.8-1.8c-0.5,2-1.7,3-3.8,3
			c-1,0-1.8-0.2-2.5-0.6c-0.9-0.5-1.3-1.1-1.3-2c0-1.7,1.5-2.6,4.5-2.6c0.4,0,1,0.1,1.7,0.2c0-1.5-0.1-3.7-0.1-6.6
			c-1.6,0-2.8,0.1-3.6,0.3c-0.1,0-0.4,0.1-0.9,0.2c-0.4,0.1-0.7,0.1-0.9,0.1c-0.4,0-0.6-0.3-0.6-0.8c0-0.2,0.1-0.5,0.3-0.7
			c0.2-0.2,2.1-0.4,5.7-0.4c-0.1-1.5-0.1-2.4-0.1-2.8c0-0.6,0.3-0.9,0.9-0.9c0.7,0,1,0.4,1,1.2V37c3.2,0,3.9,0,2.3-0.1
			c1.5,0.1,2.2,0.2,2.4,0.5c-0.3,1-0.7,1.5-1.2,1.5c-0.2,0-0.8-0.1-1.7-0.3c-0.9-0.2-1.5-0.3-1.8-0.4v1.9c0,0.4,0,1.2,0.1,2.5
			c0,1.1,0,1.9,0,2.6c0.2,0,1.2,0.4,2.9,1.1c1.2,0.4,2.2,0.7,3,0.8C389.8,47.2,390,47.3,390,47.4z M381.9,46.2
			c-1-0.3-1.9-0.4-2.7-0.4c-1.5,0-2.3,0.5-2.3,1.5c0,0.4,0.3,0.8,0.8,1c0.5,0.2,0.9,0.3,1.4,0.3C380.8,48.6,381.7,47.8,381.9,46.2z"
			/>
		<path class="st0" d="M409.4,37.9c0,1.2-0.4,2.1-1.2,2.9c-0.5,0.4-1.3,1-2.5,1.5c-1,0.5-1.7,0.9-1.9,1.3c-0.2,0.2-0.3,0.8-0.4,1.8
			c-0.1,0.7-0.4,1.1-0.8,1.1c-0.7,0-1-0.3-1-1c0-1,0.1-1.8,0.4-2.3c0.3-0.5,0.9-1,1.7-1.5c2.3-1.3,3.4-2.6,3.4-3.9
			c0-0.9-0.4-1.6-1.2-2.2c-0.7-0.5-1.6-0.7-2.5-0.7c-1.4,0-2.7,0.4-3.7,1.1c-0.6,0.4-1.2,1.1-1.8,2c-0.5,0.7-0.8,1.1-1,1.1
			c-0.4,0-0.7-0.1-0.9-0.4c-0.2-0.3-0.3-0.7-0.3-1c0-0.4,0.3-0.9,0.8-1.5c1.7-1.8,4-2.7,7-2.7c1.5,0,2.9,0.3,4,1
			C408.8,35.4,409.4,36.5,409.4,37.9z M404.2,50c0,0.5-0.2,0.9-0.6,1.2c-0.4,0.3-0.8,0.5-1.3,0.5c-0.5,0-1-0.2-1.3-0.5
			c-0.3-0.3-0.4-0.7-0.4-1.2c0-1.1,0.6-1.6,1.8-1.6c0.5,0,0.9,0.1,1.3,0.4C404,49.1,404.2,49.5,404.2,50z"/>
	</g>
</g>
</svg>
