<?xml version="1.0" encoding="utf-8"?>
<!-- Generator: Adobe Illustrator 24.0.3, SVG Export Plug-In . SVG Version: 6.00 Build 0)  -->
<svg version="1.1" id="レイヤー_1" xmlns="http://www.w3.org/2000/svg" xmlns:xlink="http://www.w3.org/1999/xlink" x="0px"
	 y="0px" viewBox="0 0 358.6 107.8" style="enable-background:new 0 0 358.6 107.8;" xml:space="preserve">
<style type="text/css">
	.st0{fill:#513813;}
</style>
<g>
	<g>
		<path class="st0" d="M57.7,1.9c0.4,0,0.6,0.2,0.6,0.5c0,0.2-0.1,0.4-0.2,0.6c-0.3,0.6-0.6,1.2-1,1.7H61l0-3c0-0.6,0.3-0.8,0.8-0.8
			c0.6,0,0.9,0.3,0.9,0.8l0,3h5.6c0.2,0,0.4,0.1,0.4,0.3c0,0.3-0.1,0.6-0.3,0.8c-0.2,0.2-0.5,0.3-0.8,0.3c-0.3,0-0.9-0.1-2-0.2
			c-0.9,0-1.8-0.1-2.8-0.1l0,3.5h4.8c0.2,0,0.4,0.1,0.4,0.3c0,0.3-0.1,0.6-0.3,0.8c-0.2,0.2-0.5,0.3-0.8,0.3c-0.3,0-0.9-0.1-1.8-0.2
			c-0.7,0-1.4-0.1-2.2-0.1l-0.1,3.8c1.3,0,2.8,0.2,4.3,0.4c1.5,0.2,2.9,0.3,4.2,0.3c0.4,0,0.8,0,1.1-0.1c0.1,0,0.1,0.1,0.1,0.3
			c0,0.4-0.1,0.9-0.3,1.3c-0.3,0.5-0.5,0.7-0.8,0.7c-0.4,0-0.8-0.1-1.2-0.3c-1.6-0.6-3.1-1-4.4-1.2c-1.1-0.1-2.3-0.2-3.9-0.2
			c-1.8,0-3.3,0.1-4.6,0.3c-1.4,0.3-2.8,0.7-4.1,1.2c-0.4,0.2-0.7,0.2-1,0.2c-0.5,0-0.7-0.3-0.7-0.8c0-0.3,0.1-0.5,0.4-0.7
			c0.2-0.2,0.5-0.3,0.8-0.4c4-0.6,6.9-1,8.7-1l-0.1-3.8c-1.6,0-2.8,0.1-3.6,0.3c-0.5,0.1-0.8,0.2-0.9,0.2c-0.5,0-0.8-0.3-0.8-0.8
			c0-0.2,0.2-0.4,0.4-0.6c0.2-0.1,0.5-0.2,0.9-0.2h4.1l0-3.5c-1.6,0-2.8,0.1-3.6,0.2c-0.5,0.1-0.9,0.2-1,0.2c-0.2,0-0.3,0-0.4-0.1
			c-0.3,0.4-0.6,0.7-0.8,1.1C54.8,7.7,54.4,8,54.2,8c-0.3,0-0.7-0.1-1.1-0.4c-0.4-0.3-0.5-0.6-0.5-0.9c0-0.2,0.2-0.4,0.5-0.4
			c0.8-0.3,1.6-0.8,2.3-1.4c0.8-0.7,1.4-1.6,2.1-2.8C57.5,1.9,57.6,1.9,57.7,1.9z"/>
		<path class="st0" d="M77.3,2.1c0.6,0,0.9,0.2,0.9,0.7c0,0.6-0.1,1.2-0.2,2.1c0,0.2,0.1,0.3,0.4,0.3C79,5,79.7,5,80.6,5
			c0-1.1,0-2.4-0.1-3.7c0-0.6,0.2-0.9,0.7-0.9c0.5,0,0.7,0.3,0.7,0.9C82,2.6,82,3.9,81.9,5c0.5,0,1.1,0,1.9,0.1
			c0.2,0,0.3,0.1,0.3,0.4c0,0.3-0.1,0.5-0.3,0.6c-0.2,0.1-0.4,0.1-0.6,0.1c-0.5,0-0.9-0.1-1.2-0.1l0,3.3c0.7-0.2,1.3-0.3,1.8-0.4
			c0.3,0,0.4,0.1,0.4,0.4c0,0.4-0.2,0.6-0.5,0.6c-0.6,0.2-1.1,0.4-1.7,0.6l0,5.1c0,1-0.3,1.5-0.8,1.5c-0.4,0-0.6-0.5-0.6-1.5
			c0-1.7,0-3.2,0-4.6c-1.3,0.5-2.5,1.1-3.6,1.7c-0.5,0-0.7-0.2-0.7-0.6c0-0.4,0.1-0.6,0.2-0.8c0.1-0.2,0.3-0.4,0.6-0.5
			c1.4-0.4,2.6-0.8,3.6-1.1c0-1.4,0-2.6,0-3.7c-0.8,0-1.5,0.1-2.3,0.2c-0.5,0-0.9,0.1-1.2,0.3c-0.2,0.1-0.3,0.1-0.3,0.1
			c-0.4,0-0.6-0.2-0.6-0.5c0-0.1,0.1-0.4,0.4-0.7c0.1-0.4,0.2-0.8,0.2-1.2c0-0.2,0-0.5,0-0.9c-0.1-0.4-0.1-0.7-0.1-0.8
			C76.6,2.3,76.8,2.1,77.3,2.1z M88.8,0.8c0.4,0,0.6,0.2,0.6,0.5c0,0.2-0.1,0.4-0.2,0.6c-0.3,0.6-0.6,1.2-0.9,1.8c0.6,0,1.4,0,2.5,0
			h4.6c0.1,0,0.4-0.1,0.8-0.2c0.6,0,0.8,0.3,0.8,0.8c-0.4,2.1-0.6,4.1-0.7,6.2c-0.2,2.8-0.6,4.7-1.4,5.6c-0.6,0.8-1.4,1.2-2.3,1.2
			c-0.4,0-0.8-0.2-1-0.5c-0.2-0.3-0.3-0.6-0.3-0.9c0-0.3,0.1-0.4,0.4-0.5c1.3-0.1,2.1-0.5,2.4-1.1c0.4-0.6,0.8-2.5,1.1-5.6
			c0.1-1.9,0.2-3.1,0.2-3.5c0-0.2-0.1-0.4-0.3-0.4h-1.6c0,0,0,0.1,0,0.1l0,0.2c-0.1,0.5-0.3,1.4-0.6,2.5c-0.5,1.9-1.2,3.6-2.1,5.1
			c-0.5,1-1.1,1.8-1.8,2.5c-0.9,0.8-1.5,1.2-1.8,1.2c-0.3,0-0.6-0.2-1-0.6c-0.3-0.3-0.5-0.6-0.5-0.8c0-0.2,0.2-0.3,0.6-0.4
			c0.7-0.2,1.5-0.7,2.2-1.5c0.8-0.7,1.7-2,2.5-3.8c0.6-1.4,1-2.9,1.1-4.4c0,0,0-0.1,0-0.1h-0.5c-0.4,0-0.8,0-1.2,0l0,0.1
			c-0.1,0.4-0.3,0.9-0.5,1.7C89.5,7.8,89,9,88.2,10c-0.4,0.7-0.9,1.2-1.5,1.7c-0.7,0.5-1.2,0.8-1.5,0.8c-0.3,0-0.6-0.2-0.9-0.5
			c-0.3-0.3-0.4-0.6-0.4-0.8c0-0.2,0.2-0.3,0.6-0.4c0.6-0.1,1.2-0.4,1.8-1c0.7-0.4,1.3-1.2,2-2.4c0.4-0.9,0.8-1.7,0.9-2.6
			c-0.2,0-0.4,0-0.6,0.1c-0.6,0.1-0.9,0.2-1.1,0.2c-0.1,0-0.2,0-0.2,0c-0.1,0.2-0.3,0.4-0.4,0.6c-0.3,0.4-0.6,0.7-0.8,0.7
			c-0.3,0-0.6-0.1-1-0.4s-0.5-0.5-0.5-0.8c0-0.2,0.2-0.2,0.5-0.3c0.7-0.3,1.3-0.7,1.8-1.3C87.5,2.9,88,2,88.5,0.9
			C88.6,0.8,88.7,0.8,88.8,0.8z"/>
		<path class="st0" d="M116.3,6.3c0.4,0,0.6,0.2,0.6,0.6c0,0.2-0.1,0.3-0.3,0.5c0,0-0.1,0.1-0.1,0.1c0.8,0.6,1.5,1.2,2.3,1.8
			c0.2,0,0.5,0.1,0.6,0.3c0.2,0.2,0.4,0.4,0.4,0.7c0,0.3-0.4,0.6-1.1,1c-3.7,2.4-7.2,4.2-10.5,5.3c-1.3,0.5-2.8,0.8-4.4,0.8
			c-0.4,0-0.7-0.1-1-0.4c-0.6-0.6-0.8-1.1-0.8-1.7c0-0.4,0.1-0.6,0.4-0.6c0.2,0,0.4,0.1,0.6,0.2c0.4,0.2,0.8,0.2,1.4,0.2
			c1.8,0,3.4-0.2,4.7-0.5c1-0.3,2-0.6,3.1-1.1c-0.6-0.6-1-1-1.3-1.1c-0.3-0.1-0.4-0.3-0.4-0.5c0-0.5,0.3-0.8,0.8-0.8
			c0,0,0.4,0.3,0.9,0.8c0.5,0.5,0.8,0.9,0.8,1.1c0.9-0.4,1.8-0.8,2.7-1.3c1.5-0.8,2.3-1.3,2.3-1.5c0-0.1-0.1-0.3-0.4-0.5
			c-0.7-0.4-1.3-0.8-1.9-1.2c-0.1-0.1-0.3-0.2-0.3-0.4c-2.2,1.3-4.1,2.3-5.9,3c-1.5,0.6-2.6,0.9-3.3,0.9c-0.4,0-0.7-0.1-1-0.4
			c-0.3-0.2-0.4-0.5-0.4-0.8c0-0.2,0.1-0.3,0.3-0.4c2.7-0.5,4.7-1,6.1-1.6c1.3-0.4,2.8-1.2,4.7-2.4C115.9,6.4,116.1,6.3,116.3,6.3z
			 M114.1,0.3c0.4,0,0.5,0.2,0.6,0.6c0,0.1,0,0.2-0.1,0.3c0.6,0.5,1.2,1,1.8,1.6c0.2,0,0.4,0.1,0.5,0.3c0.2,0.2,0.3,0.4,0.3,0.6
			c0,0.2-0.3,0.5-0.9,0.7c-2.8,1.8-5.4,3.1-7.9,3.9c-1,0.4-2.1,0.6-3.3,0.6c-0.2,0-0.5-0.1-0.7-0.4c-0.4-0.5-0.6-1-0.6-1.4
			c0-0.3,0.1-0.5,0.3-0.5c0.2,0,0.3,0.1,0.5,0.2c0.3,0.1,0.8,0.2,1.3,0.2c1.3,0,2.3-0.1,3.2-0.4c0.4-0.1,0.8-0.2,1.1-0.4
			c-0.5-0.5-0.9-0.8-1.2-1c-0.3-0.1-0.4-0.3-0.4-0.5c0-0.5,0.3-0.8,0.8-0.8c0.1,0,0.4,0.3,0.9,0.8c0.5,0.5,0.7,0.8,0.8,1.1
			c0.8-0.3,1.7-0.7,2.5-1.2c1-0.5,1.5-0.9,1.5-1.1c0-0.1-0.1-0.3-0.3-0.4c-0.4-0.4-0.9-0.8-1.3-1.1c-0.1-0.1-0.2-0.2-0.2-0.3
			c-1.8,0.9-3.4,1.5-4.9,2c-1.2,0.4-2.1,0.6-2.7,0.6c-0.4,0-0.7-0.1-0.9-0.4c-0.3-0.2-0.4-0.5-0.4-0.8c0-0.2,0.1-0.3,0.3-0.4
			c2.2-0.3,3.9-0.6,5-1c1-0.3,2.3-0.8,3.8-1.5C113.8,0.4,113.9,0.3,114.1,0.3z"/>
		<path class="st0" d="M127.1,3.9h2.8c0-0.8-0.1-1.7-0.1-2.5c0-0.6,0.2-0.9,0.7-0.9c0.5,0,0.8,0.3,0.8,0.9c0,0.9-0.1,1.7-0.1,2.5
			h2.6c0.2,0,0.3,0.1,0.3,0.3c0,0.3-0.1,0.5-0.3,0.7c-0.2,0.2-0.5,0.3-0.8,0.3c-0.2,0-0.5,0-1.1-0.1c-0.2,0-0.5,0-0.7,0
			c0,0.3,0,0.7,0,1l0,1.2c0,0,0.1,0,0.2,0c0,0,0.4,0.3,1,0.8c0.6,0.5,0.9,0.9,0.9,1.1c0,0.4-0.2,0.6-0.7,0.6c0,0-0.1,0-0.3-0.1
			c-0.5-0.4-0.9-0.8-1.2-0.9l0.1,7.5c0,1-0.3,1.5-0.9,1.5c-0.4,0-0.6-0.5-0.6-1.5c0-2.8,0-5.1,0-7.1c-0.4,0.5-0.7,1-1.1,1.4
			c-0.5,0.6-1,1-1.7,1.4c-0.1,0.1-0.2,0.1-0.3,0.1c-0.4,0-0.7-0.2-1.1-0.6c-0.3-0.3-0.5-0.6-0.5-0.9c0-0.2,0.2-0.3,0.6-0.3
			c0.4-0.1,0.8-0.1,1-0.2c0.5-0.2,1-0.5,1.5-0.9c0.5-0.5,0.9-1,1.2-1.6c0.1-0.1,0.2-0.2,0.3-0.2c0-0.4,0-0.7,0-1c0-0.3,0-0.7,0-1
			c-1.2,0-2.1,0.1-2.7,0.2c-0.3,0.1-0.5,0.2-0.6,0.2c-0.4,0-0.7-0.2-0.7-0.6c0-0.2,0.1-0.4,0.4-0.6C126.4,3.9,126.7,3.9,127.1,3.9z
			 M137.7,0.5c0.4,0.1,0.6,0.3,0.7,0.6c0.2,0.9,0.3,1.5,0.3,1.7c0,0,0,0.1,0,0.1h3.4c0-0.1,0.2-0.8,0.6-2c0.1-0.3,0.3-0.4,0.7-0.4
			c0.5,0,0.8,0.3,0.8,0.7c0,0.1-0.1,0.3-0.2,0.4c-0.4,0.5-0.7,0.9-1,1.2c0,0-0.1,0.1-0.1,0.1h2.6c0.2,0,0.3,0.1,0.4,0.3
			c0,0.3-0.1,0.6-0.3,0.8c-0.2,0.2-0.5,0.3-0.9,0.3c-0.2,0-0.8-0.1-1.6-0.2c-0.7,0-1.4-0.1-2.1-0.1c0,0.1,0,0.2,0,0.4
			c0,0.4,0,0.8,0,1.1h3.4c0.2,0,0.3,0.1,0.3,0.2c0,0.3-0.1,0.5-0.3,0.7c-0.2,0.2-0.5,0.3-0.8,0.3c-0.2,0-0.6,0-1.3-0.1
			c-0.4,0-0.9,0-1.4,0c0,0.5,0,1,0,1.5c0.9,0,2.1,0.1,3.6,0.1c0.3,0,0.6,0,0.9,0c0.2,0,0.5,0,1-0.1c0.4-0.1,0.6-0.2,0.7-0.2
			c0.2,0,0.3,0.1,0.3,0.2c0,0.4-0.2,0.8-0.6,1.3c-0.4,0.5-0.7,0.7-1.1,0.7c-0.2,0-0.6-0.1-1.2-0.3c-1-0.3-2.2-0.5-3.6-0.6L141,16
			c0,1-0.3,1.5-0.8,1.5c-0.4,0-0.6-0.5-0.6-1.5c0-2.7,0-4.9,0-6.6c-1.9,0-3.2,0.1-4,0.4c-0.4,0.1-0.7,0.2-1,0.2
			c-0.4,0-0.6-0.2-0.6-0.6c0-0.2,0.1-0.5,0.3-0.7c0.2-0.2,0.4-0.3,0.6-0.3c0.2,0,0.3,0,0.5,0.1c1.6-0.2,3-0.3,4.2-0.3
			c0-0.5,0-1,0-1.5c-1.1,0-1.9,0.1-2.4,0.1c-0.4,0.1-0.6,0.1-0.7,0.1c-0.4,0-0.6-0.2-0.7-0.6c0-0.2,0.1-0.4,0.4-0.6
			c0.2-0.1,0.4-0.2,0.8-0.2h2.6c0-0.4,0-0.7,0-1.1c0-0.1,0-0.3,0-0.4c-1.4,0-2.4,0.1-3,0.2c-0.4,0.1-0.7,0.2-0.9,0.2
			c-0.4,0-0.7-0.2-0.7-0.6c0-0.2,0.1-0.5,0.4-0.6c0.2-0.1,0.5-0.2,0.8-0.2h1.7c0,0-0.1-0.1-0.1-0.1c-0.2-0.4-0.4-0.7-0.6-1.1
			c-0.1-0.2-0.1-0.4-0.1-0.6C136.8,0.7,137.1,0.5,137.7,0.5z M137.9,14c0.3,0,0.4,0.1,0.4,0.4c0,0.2-0.1,0.4-0.2,0.6
			c-1.7,1.2-2.6,1.9-2.9,1.9c-0.6,0-0.9-0.2-0.9-0.6c0-0.5,0.1-0.8,0.4-0.9C134.6,15.2,135.7,14.8,137.9,14z M135.7,10.7
			c0.1,0,0.5,0.2,1.4,0.7c0.8,0.5,1.2,0.8,1.2,1.1c0,0.4-0.2,0.6-0.7,0.6c-0.1,0-0.2,0-0.4-0.1c-0.9-0.5-1.5-0.9-1.9-1
			c-0.4-0.1-0.6-0.3-0.6-0.4C134.8,11,135.1,10.7,135.7,10.7z M144.9,10.7c0.4,0,0.7,0.3,0.7,0.8c0,0.3-0.1,0.5-0.3,0.6
			c-1.6,0.7-2.5,1-2.5,1c-0.4,0-0.6-0.1-0.6-0.3c0-0.2,0.1-0.3,0.2-0.5l2.2-1.6C144.8,10.7,144.9,10.7,144.9,10.7z M142.5,14
			c0,0,0.1,0,0.1,0c0.8,0.5,1.5,0.9,2,1.1c0.3,0.1,0.8,0.2,1.3,0.2c0.2,0,0.3,0.1,0.3,0.3c0,0.3-0.2,0.5-0.5,0.7
			c-0.6,0.4-1.1,0.6-1.4,0.6c-0.2,0-0.3-0.1-0.4-0.2c-0.2-0.2-0.8-1-1.7-2.2c-0.1-0.1-0.1-0.2-0.1-0.3C142.2,14.1,142.3,14,142.5,14
			z"/>
		<path class="st0" d="M152.8,3.1c0.4,0,0.6,0.3,0.6,0.8c-0.1,0.7-0.1,1.3-0.1,1.8v3c0,0.9-0.2,1.4-0.7,1.4c-0.4,0-0.6-0.5-0.6-1.4
			c0.1-1.3,0.2-2.3,0.2-3c0-0.5,0-1.1-0.1-1.8C152,3.4,152.3,3.1,152.8,3.1z M155.6,0.3c0.5,0,0.7,0.3,0.7,0.9
			c-0.1,1.7-0.1,3.3-0.1,4.7l0.1,10c0,1-0.3,1.5-0.8,1.5c-0.4,0-0.6-0.5-0.6-1.5c0.1-4.3,0.1-7.6,0.1-10c0-1.4,0-2.9-0.1-4.7
			C154.8,0.6,155.1,0.3,155.6,0.3z M158.6,1.4c0.5,0,0.7,0.2,0.7,0.6l-1.4,3c-0.1,0.3-0.3,0.4-0.6,0.4c-0.2,0-0.4-0.2-0.4-0.5l0.9-3
			C158,1.6,158.2,1.4,158.6,1.4z M162,2.4c0.4,0,0.6,0.2,0.6,0.5c0,0.2-0.1,0.5-0.2,0.7c-0.2,0.5-0.4,1-0.7,1.5c0,0,0,0,0,0h3.1
			l0-3.6c0-0.6,0.2-0.8,0.7-0.8c0.6,0,0.9,0.3,0.9,0.8l0,3.6h4.5c0.2,0,0.4,0.1,0.4,0.3c0,0.3-0.1,0.6-0.3,0.8
			c-0.2,0.2-0.5,0.3-0.8,0.3c-0.2,0-0.8-0.1-1.6-0.2c-0.7,0-1.4-0.1-2.1-0.1l0,3.3h3.8c0.2,0,0.3,0.1,0.4,0.3c0,0.3-0.1,0.6-0.3,0.8
			c-0.2,0.2-0.5,0.3-0.9,0.3c-0.2,0-0.7-0.1-1.4-0.2c-0.5,0-1-0.1-1.6-0.1l0,3.6c0.8,0,1.6,0.1,2.5,0.2c1,0.1,1.9,0.1,2.8,0.1
			c0.4,0,0.8,0,1.1-0.1c0.1,0,0.1,0.1,0.1,0.3c0,0.4-0.1,0.9-0.4,1.3c-0.3,0.5-0.5,0.7-0.8,0.7s-0.5-0.1-0.8-0.3c-1.1-0.5-2-0.8-3-1
			c-0.7-0.1-1.6-0.2-2.6-0.2c-1.2,0-2.2,0.1-3.1,0.3c-0.9,0.2-1.8,0.6-2.7,1c-0.3,0.1-0.5,0.2-0.6,0.2c-0.4,0-0.6-0.3-0.6-0.7
			c0-0.3,0.1-0.5,0.3-0.7c0.2-0.2,0.5-0.3,0.8-0.4c2.5-0.4,4.4-0.7,5.6-0.7l-0.1-3.6c-1.3,0-2.2,0.1-2.8,0.2
			c-0.4,0.1-0.6,0.2-0.8,0.2c-0.4,0-0.7-0.2-0.7-0.6c0-0.2,0.1-0.4,0.4-0.6c0.2-0.1,0.5-0.2,0.8-0.2h3.1l0-3.3
			c-1.2,0-2.2,0.1-2.8,0.2c-0.4,0.1-0.7,0.2-0.8,0.2c-0.2,0-0.3,0-0.4-0.1c-0.2,0.3-0.4,0.6-0.6,0.8c-0.3,0.4-0.6,0.6-0.8,0.6
			c-0.3,0-0.7-0.1-1.1-0.4C158.2,7.2,158,7,158,6.7c0-0.2,0.2-0.4,0.5-0.4c0.6-0.3,1.2-0.7,1.7-1.2c0.5-0.6,1-1.4,1.5-2.4
			C161.8,2.5,162,2.4,162,2.4z"/>
		<path class="st0" d="M194.6,7.5c0,1.2-0.5,2.1-1.6,2.9c-0.9,0.7-2,1-3.2,1c-0.8,0-1.4-0.2-1.8-0.6c-0.4-0.5-0.6-0.9-0.6-1.3
			c0-0.2,0-0.3,0.1-0.3c0.2,0,0.6,0.1,1.2,0.2c0.5,0.1,1,0.2,1.3,0.2c0.7,0,1.4-0.2,2.1-0.6c0.8-0.4,1.2-1,1.2-1.6
			c0-0.6-0.2-1.1-0.7-1.5c-0.4-0.3-1-0.5-1.6-0.5c-1.6,0-3.9,0.5-6.8,1.4c0.4,2.4,1,4.4,1.9,6c0.6,1.2,1.3,2.1,2,2.7
			c0.2,0.1,0.4,0.3,0.6,0.6c0,0.2-0.3,0.4-0.8,0.7c-0.5,0.2-0.9,0.3-1.2,0.3c-0.7,0-1.5-1.5-2.4-4.4c-0.6-2.1-1.1-3.9-1.3-5.5
			c-0.8,0.3-2.1,0.8-3.7,1.4l-1.3,0.6c-0.5,0-0.8-0.3-0.8-0.9c0-0.4,0.8-0.9,2.5-1.4c0.3-0.1,1.4-0.4,3.2-0.9
			c-0.2-1.8-0.3-3.2-0.3-4.2c0-0.5,0.3-0.7,0.8-0.7c0.3,0,0.5,0.2,0.6,0.7c0,0.3,0,0.7,0,1.3c0,1,0.1,1.9,0.2,2.7
			c3-0.8,5.2-1.2,6.6-1.2c1.1,0,2,0.2,2.7,0.7C194.1,5.8,194.6,6.5,194.6,7.5z M189.8,1.2c0,0.3-0.4,0.8-1.1,1.6
			c-0.8,0.8-1.3,1.1-1.5,1.1c-0.3,0-0.6-0.2-1-0.6c-0.4-0.4-0.6-0.7-0.6-0.9c0-0.1,0.4-0.2,1.1-0.3c0.5,0,1.1-0.3,1.8-0.6
			c0.7-0.4,1-0.6,1-0.6C189.7,0.9,189.8,1,189.8,1.2z"/>
		<path class="st0" d="M210.6,6.1c1.3,0,2.8,0.1,4.5,0.2c1.3,0.1,2.5,0.1,3.4,0.1c0.5,0,1.1-0.1,1.8-0.3c0.1,0,0.2,0.2,0.2,0.5
			c0,0.5-0.2,1.1-0.6,1.6c-0.3,0.4-0.5,0.6-0.7,0.6c-0.4,0-0.9-0.1-1.5-0.4c-0.9-0.4-2-0.8-3.1-0.9c-1.2-0.2-2.6-0.3-4.1-0.3
			c-0.6,0-1.2,0-1.8,0c-0.4,0.6-0.8,1.3-1.3,2c-1.2,1.4-2.6,2.5-3.9,3.3c-0.9,0.5-1.7,0.8-2.3,0.8c-0.3,0-0.5-0.1-0.8-0.3
			c-0.4-0.3-0.5-0.7-0.5-1c0-0.2,0.2-0.4,0.7-0.5c1.8-0.2,3.4-1,4.9-2.2c0.7-0.6,1.3-1.3,1.8-2c-0.5,0-1,0.1-1.6,0.1
			c-0.9,0.1-2.4,0.5-4.2,1.3c-0.6,0-0.8-0.2-0.8-0.7c0-0.3,0.1-0.5,0.4-0.7c0.3-0.3,0.7-0.5,1.2-0.5c2.3-0.4,4.2-0.6,5.9-0.7
			c0.3-0.5,0.6-1.1,0.8-1.7c0-0.2,0.2-0.3,0.5-0.3c0.4,0,0.7,0.2,0.7,0.7c0,0-0.1,0.1-0.1,0.3c-0.1,0.3-0.3,0.6-0.5,1
			C209.8,6.1,210.3,6.1,210.6,6.1z M202,1.9h4.2l-0.1-0.7c0-0.4,0.2-0.6,0.7-0.6s0.7,0.2,0.7,0.7v0.6h5.2l0.1-0.6
			c0-0.6,0.2-0.8,0.7-0.8s0.7,0.2,0.7,0.7l-0.2,0.7h5.1c0.2,0,0.3,0.1,0.4,0.3c0,0.3-0.1,0.6-0.3,0.8c-0.2,0.2-0.5,0.3-0.9,0.3
			c-0.4,0-1.5-0.1-3.2-0.2c-0.5,0-0.9,0-1.4,0l-0.3,1c-0.1,0.3-0.3,0.4-0.6,0.4c-0.3,0-0.5-0.2-0.5-0.6l0.1-0.8c-1,0-2,0-3,0
			c-0.7,0-1.4,0-2.1,0v0.8c0,0.4-0.2,0.6-0.5,0.6c-0.3,0-0.5-0.2-0.6-0.6L206.5,3c-1.5,0-2.6,0.1-3.4,0.2c-0.8,0.1-1.3,0.2-1.5,0.2
			c-0.5,0-0.8-0.3-0.8-0.7c0-0.2,0.2-0.5,0.4-0.6C201.3,1.9,201.6,1.9,202,1.9z M207.6,10.5c0.2,0,0.5,0,0.7,0.1
			c0.2,0.1,0.6,0.1,1,0.1h3c0.7,0,1.5,0,2.4,0.1c0.2,0,0.5-0.1,0.8-0.2c0.4,0,0.7,0.2,0.7,0.7c0,0,0,0.1,0,0.2
			c-0.1,0.2-0.1,0.5-0.2,0.9c0,0.6-0.1,1.2-0.1,1.8c0,0.4,0,0.9,0.1,1.6c0,0.5-0.2,0.7-0.6,0.7c-1.5-0.1-2.9-0.2-4.1-0.2
			c-1.3,0-2.1,0-2.5,0.1c-0.3,0-0.6,0.1-1.1,0.1c-0.4,0-0.6-0.2-0.6-0.6c0.1-0.9,0.2-1.7,0.2-2.4c0-0.6-0.1-1.4-0.2-2.4
			C206.9,10.7,207.1,10.5,207.6,10.5z M211.1,15.3c0.9,0,2,0,3.1,0.1c0.2,0,0.4-0.1,0.4-0.3v-3c0-0.2-0.1-0.3-0.2-0.3
			c-1.2-0.1-3-0.1-5.4-0.1c-0.3,0-0.5,0.2-0.5,0.5c0,1-0.1,1.9-0.2,2.8c0,0.3,0.2,0.4,0.6,0.4C209.5,15.3,210.3,15.3,211.1,15.3z"/>
		<path class="st0" d="M231.4,2.5h3.3L234.7,1c0-0.5,0.3-0.7,0.8-0.7c0.6,0,0.8,0.2,0.8,0.7l-0.1,1.5h3.9c0.1,0,0.2,0,0.2,0.1
			c0.4-0.4,0.8-0.9,1.2-1.3c0.1-0.1,0.3-0.1,0.5-0.1c0.4,0,0.5,0.3,0.6,0.6c0,0.2-0.1,0.3-0.2,0.4c-1.2,1.3-2.3,2.4-3.3,3.3
			c0.4,0,0.9,0.1,1.3,0.1c1.4,0.1,2.6,0.2,3.7,0.2c0.5,0,1.2-0.1,1.9-0.3c0.1,0,0.2,0.2,0.2,0.5c0,0.5-0.2,1-0.6,1.6
			c-0.3,0.4-0.6,0.6-0.8,0.6c-0.4,0-1-0.1-1.6-0.4c-1-0.4-2.1-0.7-3.3-0.9c-0.6-0.1-1.3-0.1-1.9-0.2c-1,0.8-1.8,1.5-2.6,1.9
			c-0.3,0.2-0.6,0.4-0.8,0.5c0.2,0,0.4,0,0.6,0h2.5c0.6,0,1.3,0,2,0.1c0.2,0,0.5-0.1,0.9-0.2c0.4,0,0.6,0.3,0.6,0.8c0,0,0,0.1,0,0.2
			c-0.1,0.2-0.1,0.6-0.2,1.2c0,0.8-0.1,1.6-0.1,2.5c0,0.6,0,1.3,0.1,2.3c0,0.6-0.2,0.8-0.6,0.8c-1.2-0.2-2.4-0.3-3.4-0.3
			c-1.3,0-2.1,0-2.5,0.1c-0.3,0-0.7,0.1-1.1,0.2c-0.4,0-0.7-0.2-0.7-0.7c0.1-1.2,0.2-2.3,0.2-3.2c0-0.8,0-1.8-0.1-2.9
			c-1.4,0.7-2.9,1.3-4.5,1.8c-0.7,0.3-1.3,0.4-1.7,0.4c-0.5,0-0.9-0.2-1.2-0.5c-0.3-0.3-0.5-0.6-0.5-0.9c0-0.2,0.1-0.4,0.4-0.4
			c2.8-0.4,5-0.9,6.7-1.6c1.3-0.5,2.7-1.3,4-2.2c-0.2,0-0.3,0-0.5,0c-1.6,0-3.2,0.1-4.7,0.2c-0.9,0.1-2.3,0.5-4.1,1.1
			c-0.5,0-0.7-0.2-0.7-0.6c0-0.3,0.1-0.5,0.3-0.7c0.3-0.3,0.6-0.5,1.1-0.5c3.2-0.4,5.6-0.6,7.5-0.6l-0.1-1.8c-1.4,0-2.4,0.1-3,0.2
			C231.3,4,231,4,230.9,4c-0.5,0-0.7-0.2-0.7-0.6c0-0.2,0.1-0.4,0.4-0.6C230.8,2.6,231,2.5,231.4,2.5z M236.9,15.4
			c0.7,0,1.5,0,2.4,0.1c0.2,0,0.4-0.1,0.4-0.4v-1.9c-2.3,0-4.1,0.1-5.3,0.2c0,0-0.1,0-0.1,0c0,0.5,0,1.1-0.1,1.6
			c0,0.3,0.2,0.5,0.6,0.5C235.3,15.4,236.1,15.4,236.9,15.4z M234.3,12.2c0.1,0,0.1,0,0.2,0h5.2v-1.6c0-0.2-0.1-0.3-0.2-0.3
			c-1.1-0.1-2.7-0.1-4.7-0.1c-0.3,0-0.5,0.2-0.5,0.5C234.3,11.2,234.3,11.7,234.3,12.2z M237.3,5.5c0.6-0.5,1.2-1.1,1.9-1.7
			c-0.3,0-0.7,0-1.4-0.1c-0.5,0-1.1,0-1.7,0l-0.1,1.8C236.5,5.4,236.9,5.5,237.3,5.5z"/>
		<path class="st0" d="M260.8,0c0.6,0,0.8,0.3,0.8,0.9c-0.1,0.4-0.2,0.8-0.2,1.1c1.2,0,2.6,0.1,4.2,0.3c1.5,0.1,2.8,0.2,3.8,0.2
			c0.5,0,1.2-0.1,1.9-0.2c0.1,0,0.2,0.2,0.2,0.5c0,0.5-0.2,1-0.6,1.6c-0.3,0.4-0.6,0.6-0.8,0.6c-0.4,0-1-0.2-1.7-0.5
			c-1.1-0.5-2.2-0.8-3.5-1c-1.4-0.2-2.9-0.3-4.5-0.3c-0.2,0-0.4,0-0.6,0c0,0.1,0,0.2,0,0.3c0,0,0,0.1-0.1,0.2c-0.4,0.5-0.8,1-1,1.3
			c-0.2,0.2-0.5,0.5-0.8,0.8c0,0.1,0.1,0.2,0.4,0.2h5.4c0.2,0,0.4-0.1,0.4-0.3c0,0,0,0,0-0.1c-0.2-0.3-0.5-0.6-0.8-1
			c0,0-0.1-0.1-0.1-0.1c0-0.4,0.2-0.6,0.7-0.6c0.1,0,0.2,0,0.2,0.1c0.5,0.6,1.1,1.3,1.7,2.2c0.1,0.1,0.1,0.2,0.1,0.3
			c0,0.4-0.2,0.6-0.6,0.6h-6.9c-0.5,0-1,0-1.7,0.1c-0.6,0-0.8-0.2-0.8-0.6c0-0.2,0.1-0.4,0.3-0.6c0.2-0.2,0.4-0.3,0.6-0.5
			c0.3-0.2,0.5-0.5,0.8-0.8c0.3-0.4,0.6-0.8,0.9-1.3c-1,0-2,0.1-2.9,0.2c-1,0.1-2.4,0.5-4.3,1.3c-0.6,0-0.8-0.2-0.8-0.7
			c0-0.3,0.1-0.5,0.4-0.7c0.3-0.3,0.7-0.5,1.1-0.5c3.6-0.5,6.3-0.8,8.3-0.8c0-0.4-0.1-0.7-0.2-1.1C259.9,0.3,260.2,0,260.8,0z
			 M256.7,8c0.3,0,0.5,0.1,0.6,0.2l6.3,0.1c0.2,0,0.5-0.1,1-0.2c0.6,0,0.8,0.2,0.8,0.6c-0.3,1-0.4,2.3-0.4,3.8
			c0,0.9,0.1,2.3,0.2,4.1c0,0.6-0.2,0.9-0.7,0.9c-0.2,0-0.4-0.1-0.5-0.3c-0.1-0.3-0.1-0.7-0.1-1.2c0-0.5,0-1,0-1.4
			c-2.8,0-5,0.1-6.6,0.2c0,0-0.1,0-0.1,0c-0.2,0.5-0.4,1-0.7,1.3c-0.8,0.8-1.5,1.2-2.2,1.2c-0.4,0-0.8-0.2-1.2-0.7
			c-0.2-0.3-0.3-0.6-0.3-0.8c0-0.1,0.1-0.2,0.4-0.2c1-0.1,1.9-0.5,2.5-1.2c0.4-0.5,0.7-1.6,0.7-3.1c0-0.8-0.1-1.6-0.3-2.5
			C256,8.2,256.2,8,256.7,8z M257.5,13.6h6.5c0-0.6,0-1.2,0-1.7c-2.7,0-4.8,0.1-6.3,0.2c0,0-0.1,0-0.1,0
			C257.6,12.7,257.6,13.2,257.5,13.6z M257.6,11c0,0,0.1,0,0.1,0h6.2c0,0,0.1,0,0.1,0c0-0.6,0.1-1.1,0.1-1.5c0-0.1-0.2-0.2-0.6-0.2
			c-2.2,0-4.1,0-5.9,0.1C257.6,10,257.6,10.5,257.6,11z"/>
		<path class="st0" d="M279.6,3.6h7.1c-0.1-1.2-0.1-2-0.1-2.4c0-0.4,0.2-0.6,0.6-0.6c0.5,0,0.8,0.3,0.8,0.7v0.8c0,0.5,0,1,0,1.5h6.3
			c0.2,0,0.4,0.1,0.4,0.2c0,0.3-0.1,0.6-0.3,0.8c-0.2,0.2-0.5,0.4-0.8,0.4c-0.4,0-1.3-0.1-2.7-0.2c-0.9,0-1.8-0.1-2.8-0.1
			c0,0.8,0.1,1.5,0.2,2.1c0.2,1.4,0.6,2.7,1.2,3.7c0.2,0.4,0.4,0.8,0.7,1.2c0.8-1.2,1.4-2.6,1.9-4.3c0-0.2,0.2-0.3,0.6-0.3
			c0.4,0,0.6,0.2,0.6,0.7c0,0-0.1,0.1-0.1,0.3c-0.4,1.3-1.1,2.8-2,4.5c0,0-0.1,0.1-0.1,0.1c0.4,0.4,0.8,0.7,1.2,1
			c0.8,0.6,1.8,1,3,1.3c0.3,0,0.4,0.2,0.4,0.5c0,0.3-0.2,0.6-0.5,1c-0.4,0.4-0.7,0.6-1.1,0.6c-0.3,0-0.7-0.2-1.2-0.6
			c-1-0.7-1.9-1.5-2.8-2.5c-0.7,0.8-1.4,1.5-2.1,2.1c-0.8,0.6-1.4,0.9-1.8,0.9c-0.3,0-0.6-0.1-0.8-0.3c-0.4-0.4-0.6-0.7-0.6-1.1
			c0-0.2,0.3-0.4,0.8-0.5c1.3-0.2,2.6-0.9,3.7-2.1c-0.7-1.1-1.2-2.3-1.6-3.6c-0.4-1.1-0.6-2.7-0.8-4.7c-0.2,0-0.4,0-0.6,0
			c-2.6,0-4.5,0-5.7,0.1c-0.5,0.1-0.8,0.1-1.1,0.1c0,0.1,0,0.3,0,0.4l0,2.7c0.3,0,0.9-0.1,1.7-0.1h2.5c0.1,0,0.4-0.1,0.8-0.2
			c0.6,0,0.8,0.3,0.8,0.8c-0.3,1-0.5,2.1-0.6,3.1c-0.1,1.4-0.5,2.4-1.1,2.8c-0.5,0.4-1.1,0.6-1.8,0.6c-0.4,0-0.7-0.2-1-0.5
			c-0.2-0.3-0.3-0.6-0.3-0.8c0-0.3,0.1-0.4,0.4-0.5c0.9,0,1.5-0.2,1.7-0.4c0.3-0.3,0.6-1,0.8-2.2c0.1-0.8,0.2-1.2,0.2-1.4
			c0-0.3-0.1-0.4-0.3-0.4h-1.5c-0.7,0-1.4,0.1-2,0.2c-0.2,0.1-0.4,0.1-0.5,0.1c0,1-0.2,1.9-0.4,2.6c-0.4,1.1-0.9,2-1.6,2.9
			c-0.4,0.5-0.8,0.7-1.1,0.7c-0.4,0-0.9-0.2-1.4-0.7c-0.4-0.3-0.6-0.6-0.6-0.9c0-0.3,0.2-0.4,0.6-0.5c0.5-0.1,0.9-0.2,1.2-0.5
			c0.7-0.4,1.2-1.1,1.5-2.1c0.3-0.9,0.4-2,0.4-3.4c0-0.8-0.1-1.9-0.3-3.4c0-0.6,0.2-0.8,0.7-0.8c0.3,0,0.6,0.1,0.7,0.2
			C279.3,3.6,279.4,3.6,279.6,3.6z M292.5,0.6c0.4,0,0.6,0.2,0.6,0.6c0,0.3,0,0.5-0.1,0.7c-1.2,0.9-1.8,1.4-1.9,1.4
			c-0.3,0-0.5-0.1-0.5-0.4c0-0.1,0.3-0.7,1-1.9C291.9,0.7,292.2,0.6,292.5,0.6z"/>
		<path class="st0" d="M306.6,16.2c0,0.3-0.3,0.6-0.9,1c-0.6,0.4-1,0.6-1.3,0.6c-0.3,0-0.6-0.3-1-0.8c-0.8-1.2-1.7-2.3-2.4-3.1
			c-0.7-0.8-1-1.3-1-1.5c0-0.3,0.2-0.4,0.5-0.4c0.2,0,1.5,0.9,3.8,2.8c0.5,0.4,1.2,0.8,2.1,1.2C306.4,16,306.5,16.1,306.6,16.2z"/>
		<path class="st0" d="M60.9,35.4h2l0-3.9c0-0.6,0.2-0.8,0.7-0.8c0.6,0,0.9,0.3,0.9,0.8l-0.1,3.9h2.4c0.2,0,0.3,0.1,0.3,0.3
			c0,0.2-0.1,0.5-0.3,0.6c-0.2,0.2-0.5,0.3-0.8,0.3c-0.1,0-0.5,0-1-0.1c-0.2,0-0.5,0-0.7,0l-0.1,4.6c1.1-0.2,2-0.4,2.6-0.5
			c0.3,0,0.4,0.1,0.4,0.4c0,0.4-0.2,0.6-0.5,0.7c-2.3,0.6-4.4,1.3-6.3,2.1c-0.5,0-0.7-0.2-0.7-0.6c0-0.4,0.1-0.6,0.2-0.8
			c0.1-0.2,0.3-0.3,0.6-0.4c0.9-0.2,1.7-0.4,2.4-0.6l0-4.9c-0.9,0-1.5,0.1-1.9,0.2c-0.3,0.1-0.5,0.2-0.6,0.2c-0.4,0-0.7-0.2-0.7-0.6
			c0-0.2,0.1-0.4,0.4-0.6C60.3,35.5,60.6,35.4,60.9,35.4z M79,35c0.5,0,0.7,0.3,0.7,0.8c0,0.1-0.1,0.3-0.2,0.5
			c-0.3,0.7-0.8,1.9-1.5,3.8c-0.1,0.4-0.3,0.6-0.7,0.6c-0.4,0-0.6-0.2-0.6-0.5c0.1-0.7,0.5-1.8,1-3.4c0-0.1-0.1-0.2-0.4-0.2
			c-0.2,0-0.6,0-1.1,0.1c-0.6,0.1-1.2,0.2-1.7,0.3l0,3.7c0,0.9-0.2,1.4-0.7,1.4c-0.4,0-0.6-0.5-0.6-1.4c0-1.3,0-2.4,0-3.4
			c-0.9,0.2-1.7,0.4-2.4,0.6c0,1.7-0.1,3.7-0.1,5.8c0,0.4,0.2,0.6,0.6,0.7c0.8,0.1,2.7,0.1,5.9,0.1c1.5,0,2.8-0.2,4-0.6
			c0.2,0,0.3,0.2,0.3,0.5c0,0.4-0.1,0.9-0.4,1.4c-0.3,0.6-0.6,0.9-0.8,0.9c-0.4,0-3.6-0.3-9.6-0.9c-0.9-0.1-1.4-0.5-1.4-1.1
			c0.1-2.6,0.2-4.6,0.2-6c0-0.1,0-0.3,0-0.4c-0.5,0.2-1,0.4-1.6,0.6c-0.6,0-0.8-0.2-0.8-0.6c0-0.3,0.1-0.5,0.3-0.8
			c0.1-0.2,0.4-0.3,0.7-0.3c0.5-0.1,1-0.2,1.5-0.4c0-1,0-2.1-0.1-3.2c0-0.4,0.2-0.6,0.7-0.6c0.6,0,0.8,0.3,0.8,0.8
			c0,0.8,0,1.7,0,2.7c0.9-0.2,1.7-0.4,2.4-0.5c0-0.6,0-1.1,0-1.6c0-0.9,0-2-0.1-3.1c0-0.6,0.2-0.8,0.7-0.8c0.4,0,0.6,0.3,0.6,0.8
			c-0.1,1.2-0.1,2.2-0.1,3.1l0,1.4c1-0.2,1.9-0.3,2.7-0.4c0.5-0.1,0.8-0.2,1.1-0.3C78.6,35,78.8,35,79,35z"/>
		<path class="st0" d="M86.9,35.6h2l-0.1-3.3c0-0.6,0.2-0.8,0.7-0.8c0.6,0,0.9,0.3,0.9,0.8l0,3.3h2.2c0.2,0,0.3,0.1,0.3,0.3
			c0,0.3-0.1,0.5-0.3,0.7c-0.2,0.2-0.5,0.3-0.8,0.3c-0.1,0-0.4,0-1-0.1c-0.2,0-0.4,0-0.5,0l-0.1,4.2c0.9-0.3,1.6-0.4,2.1-0.5
			c0.2,0,0.3,0.1,0.3,0.4c0,0.3-0.1,0.5-0.4,0.6c-2,0.7-4,1.6-5.7,2.5c-0.5,0-0.7-0.2-0.7-0.6c0-0.3,0.1-0.6,0.2-0.7
			c0.1-0.2,0.2-0.4,0.5-0.5c0.9-0.3,1.7-0.5,2.4-0.8L89,36.8c-0.9,0-1.6,0.1-2,0.2c-0.3,0.1-0.5,0.2-0.6,0.2c-0.4,0-0.7-0.2-0.7-0.6
			c0-0.2,0.1-0.4,0.4-0.6C86.3,35.7,86.5,35.6,86.9,35.6z M99.3,41.9c0.2,0,0.3,0.1,0.3,0.4c0,0.3-0.1,0.5-0.4,0.6
			c-2,0.6-3.9,1.3-5.6,2.1c-0.5,0-0.7-0.2-0.7-0.6c0-0.3,0.1-0.6,0.2-0.7c0.1-0.2,0.2-0.3,0.5-0.4C96.3,42.5,98.2,42.1,99.3,41.9z
			 M94.4,33.6h6c0-0.9,0-1.8,0-2.6c0-0.4,0.2-0.6,0.6-0.6c0.4,0,0.6,0.2,0.6,0.6c0,0.9-0.1,1.8-0.1,2.6h4.5c0.2,0,0.4,0.1,0.4,0.3
			c0,0.3-0.1,0.6-0.3,0.8c-0.2,0.2-0.5,0.3-0.8,0.3c-0.3,0-1-0.1-2.1-0.2c-0.5,0-1.1,0-1.7,0c0,1.1,0.2,2.3,0.4,3.4
			c0.2,1.2,0.5,2.2,0.9,3.1c0.6-1,1.1-2.1,1.5-3.5c0-0.2,0.2-0.3,0.5-0.3c0.4,0,0.7,0.2,0.7,0.6c0,0-0.1,0.1-0.1,0.3
			c-0.4,1.2-1,2.5-1.8,4.1c0,0,0,0,0,0c0.1,0.2,0.2,0.4,0.3,0.5c0.8,1.2,1.8,1.9,3,2.3c0.2,0.1,0.4,0.3,0.4,0.5
			c0,0.2-0.2,0.5-0.6,0.8c-0.4,0.3-0.7,0.4-1,0.4c-0.3,0-0.6-0.1-1-0.4c-0.8-0.6-1.5-1.5-2.1-2.8c-0.6,0.7-1.2,1.3-1.9,1.8
			c-0.7,0.5-1.2,0.8-1.7,0.8c-0.3,0-0.5-0.1-0.8-0.3c-0.4-0.3-0.6-0.7-0.6-1c0-0.2,0.3-0.4,0.8-0.5c1.2-0.2,2.4-0.9,3.5-2
			c-0.1-0.2-0.1-0.3-0.2-0.5c-0.7-1.9-1-4-1.2-6.2c0-0.4,0-0.8,0-1.2c-0.3,0-0.6,0-0.9,0c-2.1,0-3.6,0.1-4.5,0.2
			c-0.5,0.1-0.9,0.2-1,0.2c-0.5,0-0.7-0.2-0.7-0.6c0-0.2,0.1-0.4,0.4-0.6C93.8,33.6,94,33.6,94.4,33.6z M94.4,36.7
			c0.2,0,0.4,0,0.6,0s0.5,0,0.9,0h1c0.2,0,0.5,0,0.8,0.1c0.2,0,0.5,0,0.7-0.1c0.4,0,0.7,0.2,0.7,0.6c0,0,0,0,0,0.1
			c-0.1,0.1-0.1,0.3-0.2,0.6c0,0.4-0.1,0.8-0.1,1.3c0,0.2,0,0.5,0.1,1c0,0.4-0.2,0.6-0.6,0.6c-0.8-0.1-1.4-0.2-2-0.2
			c-0.8,0-1.2,0-1.4,0.1c-0.2,0-0.4,0.1-0.6,0.2c-0.4,0-0.6-0.2-0.6-0.6c0.1-0.7,0.2-1.2,0.2-1.7c0-0.4-0.1-0.9-0.2-1.5
			C93.7,36.9,94,36.7,94.4,36.7z M96.4,40c0.3,0,0.6,0,1,0.1c0.2,0,0.4-0.1,0.4-0.4v-1.6c0-0.1-0.1-0.2-0.2-0.2
			c-0.4-0.1-1.1-0.1-2-0.1c-0.2,0-0.4,0.1-0.4,0.4c0,0.5-0.1,1-0.2,1.4c0,0.3,0.2,0.5,0.5,0.5C95.8,40,96,40,96.4,40z M104.9,30.7
			c0.4,0,0.6,0.2,0.6,0.6c0,0.3,0,0.5-0.1,0.6c-1,0.7-1.6,1.1-1.7,1.1c-0.2,0-0.4-0.1-0.4-0.3c0-0.1,0.3-0.6,0.8-1.6
			C104.4,30.8,104.6,30.7,104.9,30.7z"/>
		<path class="st0" d="M116,37.7c0.2,0,0.4,0.1,0.4,0.3c0,0.3-0.1,0.5-0.3,0.6l-4.3,1.6c-0.6,0-0.8-0.2-0.8-0.7c0-0.6,0.2-1,0.6-1
			L116,37.7z M113.5,30.7c0.1,0,0.3,0.1,0.6,0.2c0.8,0.6,1.7,1.3,2.7,2c0.1,0.1,0.2,0.2,0.2,0.3c0,0.3-0.2,0.4-0.5,0.4
			c-0.1,0-0.2,0-0.5-0.1c-1.5-0.6-2.4-0.9-2.8-1.1c-0.4-0.3-0.7-0.6-0.7-1C112.6,30.9,112.9,30.7,113.5,30.7z M116.5,43.2
			c0.3,0,0.4,0.1,0.4,0.4c0,0.2-0.1,0.4-0.2,0.6c-1.6,1.8-2.5,2.6-2.7,2.6c-0.7,0-1-0.2-1-0.6c0-0.5,0.1-0.9,0.4-1
			C113.3,45.1,114.4,44.4,116.5,43.2z M128.8,30.9c0.3,0,0.5,0.1,0.5,0.4c0,0.3-0.1,0.5-0.4,0.6c-1.4,0.4-2.6,0.8-3.8,1.1l0,3.4
			c0.7,0,1.6,0,2.5,0.1c1,0,1.8,0.1,2.5,0.1c0.5,0,1-0.1,1.7-0.2c0.1,0,0.2,0.2,0.2,0.5c0,0.5-0.2,1-0.6,1.6
			c-0.3,0.4-0.5,0.6-0.7,0.6c-0.3,0-0.7-0.1-1.2-0.4c-0.7-0.4-1.5-0.6-2.4-0.8c-0.7-0.1-1.4-0.2-2.1-0.2l0,3.5h0
			c0.7,0,1.5,0,2.4,0.1c0.2,0,0.5-0.1,0.9-0.2c0.4,0,0.6,0.2,0.6,0.7c0,0,0,0.1,0,0.2c-0.1,0.2-0.1,0.5-0.2,0.9
			c0,0.6-0.1,1.2-0.1,1.8c0,0.4,0,0.9,0.1,1.6c0,0.5-0.2,0.8-0.6,0.8c-1.5-0.1-2.8-0.2-3.9-0.2c-1.4,0-2.2,0-2.6,0
			c-0.3,0-0.7,0.1-1.2,0.1c-0.4,0-0.6-0.2-0.6-0.7c0.1-0.9,0.2-1.7,0.2-2.4c0-0.6-0.1-1.4-0.2-2.4c0-0.4,0.2-0.6,0.6-0.6
			c0.2,0,0.5,0,0.7,0.1c0.2,0.1,0.6,0.1,1,0.1h1.6l0-3.5c-0.9,0-1.8,0.1-2.6,0.2c-0.6,0.1-1.5,0.4-2.7,1c-0.6,0-0.8-0.2-0.8-0.6
			c0-0.3,0.1-0.5,0.4-0.7c0.3-0.3,0.7-0.5,1.2-0.5c1.9-0.3,3.5-0.4,4.6-0.5l0-3c-0.4,0.1-0.8,0.2-1.2,0.2c-1.1,0.2-1.9,0.3-2.2,0.3
			c-0.4,0-0.8-0.2-1.2-0.5c-0.2-0.2-0.4-0.5-0.4-0.8c0-0.2,0.1-0.3,0.4-0.3c2.2,0,4.1-0.2,5.5-0.5c1.5-0.2,2.7-0.5,3.7-0.8
			C128.5,30.9,128.7,30.9,128.8,30.9z M124.2,45.5c0.9,0,1.8,0,2.9,0.1c0.2,0,0.4-0.1,0.4-0.3v-3c0-0.2-0.1-0.3-0.2-0.3
			c-1.2,0-3.1-0.1-5.4-0.1c-0.3,0-0.5,0.2-0.5,0.5c0,1-0.1,1.9-0.2,2.8c0,0.3,0.2,0.4,0.6,0.4C122.5,45.5,123.3,45.5,124.2,45.5z"/>
		<path class="st0" d="M137.5,33.1c0.4,0,0.6,0.3,0.6,0.8c-0.1,0.7-0.1,1.3-0.1,1.8v3c0,0.9-0.2,1.4-0.7,1.4c-0.4,0-0.6-0.5-0.6-1.4
			c0.1-1.3,0.2-2.3,0.2-3c0-0.5,0-1.1-0.1-1.8C136.7,33.4,137,33.1,137.5,33.1z M140.3,30.3c0.5,0,0.7,0.3,0.7,0.9
			c-0.1,1.7-0.1,3.3-0.1,4.7l0.1,10c0,1-0.3,1.5-0.8,1.5c-0.4,0-0.6-0.5-0.6-1.5c0.1-4.3,0.1-7.6,0.1-10c0-1.4,0-2.9-0.1-4.7
			C139.6,30.6,139.8,30.3,140.3,30.3z M143.3,31.4c0.5,0,0.7,0.2,0.7,0.6l-1.4,3c-0.1,0.3-0.3,0.4-0.6,0.4c-0.2,0-0.4-0.2-0.4-0.5
			l0.9-3C142.7,31.6,142.9,31.4,143.3,31.4z M146.8,32.4c0.4,0,0.6,0.2,0.6,0.5c0,0.2-0.1,0.5-0.2,0.7c-0.2,0.5-0.4,1-0.7,1.5
			c0,0,0,0,0,0h3.1l0-3.6c0-0.6,0.2-0.8,0.7-0.8c0.6,0,0.9,0.3,0.9,0.8l0,3.6h4.5c0.2,0,0.4,0.1,0.4,0.3c0,0.3-0.1,0.6-0.3,0.8
			c-0.2,0.2-0.5,0.3-0.8,0.3c-0.2,0-0.8-0.1-1.6-0.2c-0.7,0-1.4-0.1-2.1-0.1l0,3.3h3.8c0.2,0,0.3,0.1,0.4,0.3c0,0.3-0.1,0.6-0.3,0.8
			c-0.2,0.2-0.5,0.3-0.9,0.3c-0.2,0-0.7-0.1-1.4-0.2c-0.5,0-1-0.1-1.6-0.1l0,3.6c0.8,0,1.6,0.1,2.5,0.2c1,0.1,1.9,0.1,2.8,0.1
			c0.4,0,0.8,0,1.1-0.1c0.1,0,0.1,0.1,0.1,0.3c0,0.4-0.1,0.9-0.4,1.3c-0.3,0.5-0.5,0.7-0.8,0.7s-0.5-0.1-0.8-0.3c-1.1-0.5-2-0.8-3-1
			c-0.7-0.1-1.6-0.2-2.6-0.2c-1.2,0-2.2,0.1-3.1,0.3c-0.9,0.2-1.8,0.6-2.7,1c-0.3,0.1-0.5,0.2-0.6,0.2c-0.4,0-0.6-0.3-0.6-0.7
			c0-0.3,0.1-0.5,0.3-0.7c0.2-0.2,0.5-0.3,0.8-0.4c2.5-0.4,4.4-0.7,5.6-0.7l-0.1-3.6c-1.3,0-2.2,0.1-2.8,0.2
			c-0.4,0.1-0.6,0.2-0.8,0.2c-0.4,0-0.7-0.2-0.7-0.6c0-0.2,0.1-0.4,0.4-0.6c0.2-0.1,0.5-0.2,0.8-0.2h3.1l0-3.3
			c-1.2,0-2.2,0.1-2.8,0.2c-0.4,0.1-0.7,0.2-0.8,0.2c-0.2,0-0.3,0-0.4-0.1c-0.2,0.3-0.4,0.6-0.6,0.8c-0.3,0.4-0.6,0.6-0.8,0.6
			c-0.3,0-0.7-0.1-1.1-0.4c-0.4-0.3-0.5-0.6-0.5-0.9c0-0.2,0.2-0.4,0.5-0.4c0.6-0.3,1.2-0.7,1.7-1.2c0.5-0.6,1-1.4,1.5-2.4
			C146.6,32.5,146.7,32.4,146.8,32.4z"/>
		<path class="st0" d="M168.8,30.6c0.4,0,0.6,0.2,0.6,0.5c0,0.2-0.1,0.4-0.2,0.7c-0.7,0.9-1.5,1.7-2.3,2.4c0.1,0.2,0.1,0.4,0.1,0.6
			c-0.1,1.3-0.1,2.5-0.1,3.6l0,7.4c0,1-0.3,1.5-0.9,1.5c-0.4,0-0.6-0.5-0.6-1.5c0.1-3.2,0.2-5.6,0.2-7.4c0-0.9,0-2,0-3.1
			c-0.3,0.2-0.5,0.4-0.8,0.6c-0.7,0.5-1.2,0.7-1.7,0.7c-0.3,0-0.7-0.2-1.1-0.5c-0.4-0.3-0.5-0.6-0.5-0.9c0-0.2,0.2-0.4,0.5-0.4
			c1.2-0.3,2.4-0.8,3.4-1.4c1.1-0.7,2.2-1.6,3.1-2.8C168.6,30.6,168.7,30.6,168.8,30.6z M178.6,35c0.6,0,0.9,0.3,0.9,0.9
			c0,0.3-0.2,0.5-0.6,0.7c-0.9,0.3-2.1,0.7-3.7,1.1c-1.1,0.3-1.8,0.5-2,0.5c0,0-0.1,0-0.1,0c0,1.6-0.1,3.4-0.1,5.3
			c0,0.4,0.2,0.6,0.5,0.6c0.6,0.1,2.2,0.1,4.7,0.1c1.6,0,3-0.2,4.3-0.6c0.2,0,0.3,0.2,0.3,0.5c0,0.4-0.2,0.9-0.5,1.5
			c-0.4,0.6-0.7,0.9-1,0.9c-0.4,0-3.2-0.3-8.5-0.9c-0.8-0.1-1.2-0.5-1.2-1.1c0.1-2.7,0.2-4.8,0.2-6.2c0-1.6,0-3.3-0.1-5.3
			c0-0.4,0.2-0.6,0.6-0.6c0.6,0,0.9,0.2,0.9,0.7c0,1.2,0,2.5,0,3.9c2.1-0.7,3.8-1.4,5-2C178.3,35,178.5,35,178.6,35z"/>
		<path class="st0" d="M190.5,30.2c0.4,0,0.6,0.2,0.6,0.5c0,0.2-0.1,0.4-0.2,0.6c-0.1,0.2-0.2,0.3-0.3,0.5h4.9
			c0.2,0,0.3,0.1,0.3,0.2c0,0.3-0.1,0.5-0.3,0.7c-0.2,0.2-0.4,0.3-0.8,0.3c-0.1,0-0.4,0-0.8-0.1c-0.3,0-0.7,0-1,0
			c0,0.2,0.1,0.5,0.1,1c0,0.4-0.1,0.6-0.4,0.6c-0.3,0-0.4-0.1-0.5-0.3c-0.3-0.7-0.5-1-0.5-1.2c0,0,0,0,0-0.1c-0.5,0-0.9,0.1-1.2,0.1
			c-0.3,0.1-0.4,0.1-0.5,0.1c-0.1,0-0.2,0-0.2,0c-0.4,0.6-0.8,1.1-1.3,1.6c-0.4,0.4-0.7,0.6-0.9,0.6c-0.3,0-0.7-0.2-1.1-0.5
			c-0.4-0.3-0.5-0.6-0.5-0.9c0-0.2,0.2-0.3,0.5-0.4c0.7-0.2,1.4-0.6,2-1.1c0.7-0.5,1.3-1.2,1.8-2.2
			C190.3,30.3,190.4,30.2,190.5,30.2z M191.7,35.5h3.9l0-0.3c0-0.5,0.3-0.7,0.8-0.7c0.6,0,0.8,0.2,0.8,0.7l0,0.3h4.6
			c0.2,0,0.4,0.1,0.4,0.3c0,0.3-0.1,0.6-0.3,0.8c-0.2,0.2-0.5,0.3-0.8,0.3c-0.2,0-0.8-0.1-1.8-0.2c-0.7,0-1.4-0.1-2.1-0.1l-0.1,1.5
			c1.3,0,2.6,0.1,4.1,0.3c1.4,0.1,2.7,0.2,4,0.2c0.4,0,0.7,0,1.1-0.1c0.1,0,0.1,0.1,0.1,0.3c0,0.4-0.1,0.9-0.4,1.3
			c-0.3,0.5-0.5,0.7-0.8,0.7c-0.4,0-0.8-0.1-1.2-0.3c-1.5-0.6-2.9-0.9-4.2-1.1c-1-0.1-2.3-0.2-3.7-0.2c-1.7,0-3.1,0.1-4.3,0.3
			c-1.3,0.3-2.6,0.6-3.8,1c-0.4,0.1-0.7,0.2-0.9,0.2c-0.4,0-0.6-0.3-0.7-0.7c0-0.3,0.1-0.5,0.4-0.7c0.2-0.2,0.5-0.4,0.8-0.4
			c3.7-0.5,6.5-0.8,8.2-0.8l-0.1-1.5c-1.6,0-2.8,0.1-3.5,0.2c-0.5,0.1-0.8,0.2-0.9,0.2c-0.5,0-0.7-0.2-0.8-0.6
			c0-0.2,0.2-0.4,0.4-0.6C191.1,35.6,191.4,35.5,191.7,35.5z M190.9,41.4h7.7c0-0.2,0-0.3,0-0.4c0-0.7,0.3-1,0.8-1
			c0.6,0,0.8,0.3,0.8,0.8c0,0.1,0,0.3-0.1,0.6h2.7c0.2,0,0.4,0.1,0.4,0.3c0,0.3-0.1,0.6-0.3,0.8c-0.2,0.2-0.5,0.3-0.8,0.3
			c-0.3,0-1-0.1-2.1-0.2c0,0.1,0,0.1,0,0.2c0.1,1.1,0.1,2,0.1,2.5c0,0.9-0.4,1.5-1.2,1.7c-0.5,0.1-1,0.2-1.5,0.2
			c-0.4,0-0.6-0.1-0.9-0.3c-0.3-0.3-0.4-0.6-0.4-0.9c0-0.2,0.1-0.3,0.4-0.4c0.8,0,1.4-0.1,1.7-0.2c0.3-0.1,0.5-0.2,0.6-0.3
			c0.1-0.2,0.1-0.5,0.1-0.9c0-0.6,0-1.2-0.1-1.8c-0.8,0-1.6,0-2.5,0c-2.1,0-3.7,0.1-4.6,0.2c-0.6,0.1-0.9,0.2-1.1,0.2
			c-0.4,0-0.7-0.3-0.7-0.7c0-0.2,0.1-0.4,0.4-0.6C190.3,41.4,190.5,41.4,190.9,41.4z M194.8,43.7c0.2,0,0.3,0.1,0.3,0.4
			c0,0.1-0.1,0.3-0.2,0.5c-1.6,1.4-2.5,2.2-2.7,2.2c-0.6,0-0.8-0.2-0.8-0.5c0-0.5,0.1-0.8,0.4-0.9C191.7,45.2,192.8,44.6,194.8,43.7
			z M199.1,30.3c0.4,0,0.6,0.2,0.6,0.5c0,0.2-0.1,0.4-0.2,0.6c-0.1,0.2-0.1,0.3-0.2,0.5h4.4c0.8,0,1.6-0.2,2.6-0.5
			c0.2,0,0.3,0.1,0.3,0.4c0,0.4-0.1,0.7-0.3,1.1c-0.2,0.4-0.6,0.5-1,0.5c-1.5-0.2-2.7-0.4-3.5-0.4c0,0.3,0.1,0.6,0.1,1
			c0,0.4-0.1,0.6-0.4,0.6c-0.3,0-0.4-0.1-0.5-0.3c-0.3-0.7-0.5-1.1-0.5-1.2c-0.5,0-1,0.1-1.6,0.2c-0.1,0-0.2,0-0.3,0
			c-0.2,0.3-0.4,0.6-0.6,0.8c-0.2,0.3-0.4,0.4-0.6,0.4c-0.3,0-0.6-0.1-1-0.4c-0.3-0.3-0.5-0.5-0.5-0.8c0-0.2,0.2-0.2,0.5-0.3
			c0.5-0.2,0.9-0.4,1.2-0.8c0.4-0.4,0.8-0.9,1.1-1.5C199,30.4,199.1,30.3,199.1,30.3z"/>
		<path class="st0" d="M216.9,41.7c-0.2,0.8-0.5,1.6-0.9,2.5c-0.6,1.3-1.1,1.9-1.5,1.9c-0.5,0-0.9-0.6-1.3-1.9
			c-0.3-1.1-0.5-2.7-0.5-4.8c0-0.8,0.1-2,0.4-3.6c0.3-1.7,0.6-2.8,0.9-3.4c0.2-0.4,0.5-0.6,0.9-0.6c0.5,0,0.8,0.2,0.8,0.7
			c0,0.1-0.1,0.5-0.4,1c-0.4,0.8-0.6,1.7-0.9,2.8c-0.3,1.1-0.4,2.1-0.4,2.8c0,3.1,0.2,4.7,0.7,4.7c0.2,0,0.7-0.8,1.5-2.3
			c0.1-0.2,0.2-0.3,0.3-0.3C216.8,41.4,216.9,41.5,216.9,41.7z M229,42.5c0,0.1-0.2,0.5-0.5,1.2c-0.3,0.6-0.6,0.9-1,1.1
			c-0.5,0.2-1.6,0.3-3.4,0.3c-1.4,0-2.6-0.2-3.6-0.6c-1.4-0.6-2.1-1.5-2.1-2.7c0-1.3,0.3-2,0.9-2c0.1,0,0.2,0.1,0.2,0.3
			c-0.2,0.6-0.2,1-0.2,1.2c0,1.4,1.1,2.1,3.3,2.1c0.9,0,2-0.1,3.2-0.3c0.7-0.1,1.3-0.3,1.9-0.5c0.5-0.2,0.8-0.3,1-0.3
			C228.8,42.1,228.9,42.3,229,42.5z M226.9,33.8c0,0.2-0.6,0.8-1.8,1.6c-1.2,0.8-1.9,1.2-2.1,1.2c-0.3,0-0.4-0.1-0.4-0.3
			c0-0.1,0.3-0.5,0.8-1c0.5-0.4,0.8-0.8,1.1-0.9c-0.1,0-0.2,0-0.3,0c-1,0-2.1,0.1-3.3,0.3c-1.3,0.2-1.9,0.4-1.8,0.4
			c-0.3,0-0.4-0.2-0.4-0.5c0-0.5,0.2-0.8,0.6-1c0.2,0,0.6-0.1,1.3-0.2c1.6-0.2,3.5-0.2,5.6-0.2C226.7,33.1,226.9,33.4,226.9,33.8z"
			/>
		<path class="st0" d="M237.3,30.8l4.7,0.1c0.5-0.1,0.8-0.1,0.9-0.1c0.6,0,0.9,0.2,0.9,0.6c-0.2,0.7-0.3,1.4-0.4,2.2
			c0,0.4,0,1.3,0,2.5c0,0.4-0.2,0.7-0.6,0.7c-0.1,0-0.3,0-0.4-0.1c0,0-0.1,0-0.1,0c-2.1,0-3.7,0.1-4.9,0.2c0,0,0,0,0,0v2.5
			c0,1.5-0.1,2.7-0.2,3.8c-0.2,1-0.4,1.9-0.8,2.7c-0.4,0.7-0.6,1-0.9,1c-0.3,0-0.7-0.2-1.1-0.5c-0.4-0.4-0.7-0.6-0.7-0.8
			c0-0.2,0.1-0.3,0.4-0.4c0.6-0.4,1.1-1.2,1.4-2.2c0.4-1.1,0.5-3.3,0.5-6.6c0-1.6-0.1-3.3-0.3-5.1c0-0.4,0.2-0.6,0.7-0.6
			c0.3,0,0.5,0,0.6,0.1C237.1,30.8,237.2,30.8,237.3,30.8z M237.3,31.8c0,0.1,0,0.2,0,0.3v1.2c0,0,0.1,0,0.1,0h4.7h0
			c0-0.5,0-1,0.1-1.3c0-0.2-0.1-0.3-0.3-0.3C240.7,31.7,239.2,31.7,237.3,31.8z M237.3,35.8c0,0,0.1,0,0.1,0h4.7c0,0,0-0.1,0-0.1
			c0-0.5,0-1,0-1.5c-2,0-3.6,0.1-4.8,0.2c0,0,0,0,0,0V35.8z M243.2,37.8c0.3,0,0.5,0.2,0.6,0.5c0.1,0.6,0.1,0.9,0.1,1
			c0,0,0,0.1,0,0.1c0.9,0,1.7,0,2.4,0c0-0.2,0.1-0.6,0.2-1.2c0.1-0.2,0.3-0.4,0.6-0.4c0.4,0,0.7,0.2,0.7,0.6c0,0.1,0,0.2-0.1,0.3
			c-0.2,0.3-0.4,0.5-0.5,0.7c0.8,0,1.4,0,1.8-0.1c0.2,0,0.3,0.1,0.3,0.4c0,0.2-0.1,0.3-0.2,0.5c-0.2,0.2-0.4,0.3-0.7,0.3
			c-0.7-0.1-1.6-0.1-2.9-0.2c0,0.1,0,0.2,0,0.3c-0.1,0.4-0.1,0.8-0.2,1.3c0.8,0,1.8,0.1,3.1,0.1c0.3,0,0.5,0,0.7,0
			c0.2,0,0.5,0,0.9-0.1c0.4-0.1,0.6-0.1,0.7-0.1c0.1,0,0.2,0.1,0.2,0.2c0,0.4-0.2,0.7-0.5,1.2c-0.3,0.4-0.6,0.6-0.9,0.6
			c-0.2,0-0.5-0.1-1-0.3c-0.9-0.3-2-0.5-3.4-0.5c-0.1,0.5-0.2,0.9-0.4,1.3c-0.4,0.8-0.9,1.4-1.5,1.8c-0.8,0.6-1.4,0.9-2.1,0.9
			c-0.3,0-0.5-0.1-0.7-0.3c-0.3-0.3-0.5-0.7-0.5-1c0-0.1,0.1-0.2,0.4-0.2c0.7-0.1,1.3-0.2,1.7-0.4c0.7-0.2,1.3-0.8,1.8-1.6
			c0.1-0.2,0.2-0.4,0.3-0.6c-1.6,0-2.8,0.1-3.5,0.4c-0.4,0.1-0.7,0.2-0.9,0.2c-0.3,0-0.5-0.2-0.5-0.6c0-0.2,0.1-0.4,0.3-0.6
			c0.2-0.2,0.3-0.3,0.5-0.3c0.2,0,0.3,0,0.5,0.1c1.4-0.2,2.7-0.2,3.8-0.3c0-0.2,0-0.3,0-0.5c-0.1-0.4-0.1-0.7-0.1-1c0,0,0-0.1,0-0.1
			c-0.2,0-0.4,0-0.6,0c-0.6,0-1.3,0.1-2.4,0.3c-0.4,0-0.6-0.2-0.6-0.5c0-0.2,0.1-0.4,0.3-0.6c0.2-0.2,0.4-0.3,0.6-0.3l0.8,0.1
			c0.3,0,0.6,0,0.9,0c-0.2-0.3-0.3-0.5-0.5-0.7c-0.1-0.1-0.1-0.3-0.1-0.4C242.5,38,242.7,37.8,243.2,37.8z M246.5,44.4
			c0,0,0.1,0,0.1,0c0.7,0.4,1.2,0.7,1.7,0.8c0.3,0.1,0.7,0.2,1.1,0.2c0.1,0,0.2,0.1,0.2,0.3c0,0.2-0.1,0.5-0.4,0.7
			c-0.5,0.4-1,0.5-1.2,0.5c-0.1,0-0.2-0.1-0.3-0.2c-0.2-0.2-0.6-0.8-1.3-1.9c0-0.1-0.1-0.2-0.1-0.2
			C246.2,44.5,246.3,44.4,246.5,44.4z M246.9,30.7c0.2,0,0.4,0,0.6,0.1l4.8,0.1c0.2,0,0.6-0.1,1.1-0.2c0.6,0,0.9,0.2,0.9,0.6
			c-0.3,1.9-0.5,4.2-0.5,6.9c0,1.9,0.1,4.7,0.3,8.2c0,0.6-0.3,0.9-0.8,0.9c-0.2,0-0.4-0.1-0.5-0.4c-0.1-0.3-0.1-0.7-0.1-1.2
			c0-3.5,0-6.5,0.1-9.1c-0.1,0-0.1,0-0.2,0c-0.9-0.1-1.6-0.1-2.2-0.1c-0.7,0-1.4,0-2.2,0.1c-0.4,0-0.7,0.1-1,0.2
			c-0.1,0-0.2,0.1-0.3,0.1c-0.4,0-0.6-0.1-0.6-0.4c0-0.2,0-0.6,0.1-1c0-0.6,0.1-1.1,0.1-1.7c0-0.3,0-0.8-0.1-1.4
			c-0.1-0.6-0.1-1-0.1-1.2C246.3,30.8,246.5,30.7,246.9,30.7z M252.6,35.5c0-0.5,0-1,0-1.4c-2,0-3.6,0.1-4.8,0.2c-0.1,0-0.2,0-0.2,0
			c0,0.3,0,0.7-0.1,1c0,0.2,0.1,0.3,0.3,0.3c0.6-0.1,1.4-0.1,2.3-0.1H252.6z M247.7,33.2c0.1,0,0.2,0,0.2,0h4.7c0,0,0,0,0,0
			c0-0.4,0-0.8,0-1.2c0-0.2-0.2-0.3-0.7-0.3c-1.6,0-3,0-4.3,0C247.8,32.2,247.7,32.7,247.7,33.2z"/>
		<path class="st0" d="M278.2,34.4c-0.1,0.3-0.3,0.8-0.7,1.2c-0.4,0.5-0.8,0.8-1.1,0.8c-0.3-0.1-0.8-0.3-1.4-0.6
			c-1.3-0.5-2.8-0.8-4.4-0.9c0,0.9,0,2.2-0.1,4c0.4,1.1,0.6,1.9,0.6,2.4c0,1-0.3,1.9-1,2.8c-0.6,0.8-1.4,1.5-2.3,1.9
			c-1.1,0.6-2,0.8-2.7,0.8c-0.4,0-0.8-0.2-1.2-0.6c-0.4-0.4-0.6-0.8-0.6-1.2c0-0.1,0.2-0.2,0.7-0.3c1.4-0.1,2.4-0.2,3-0.4
			c1.1-0.3,1.9-0.9,2.4-1.8c0.3-0.6,0.5-1.1,0.5-1.5c0,0,0-0.1,0-0.1c0-0.1,0-0.2,0-0.2c-0.3,0.5-0.7,0.9-1.3,1.2
			c-0.6,0.3-1.2,0.5-1.7,0.5c-0.8,0-1.5-0.3-2.2-0.8c-0.6-0.5-1-1.2-1-1.9c0-0.9,0.4-1.5,1.1-2c0.6-0.4,1.4-0.6,2.3-0.6
			c0.7,0,1.3,0.2,2.1,0.6c0-0.4,0-1.3,0-2.8c-2.4,0-4.5,0.3-6.5,0.9c-1.1,0.4-1.7,0.6-1.8,0.6c-0.5,0-0.8-0.3-0.8-0.9
			c0-0.5,0.6-0.9,1.9-1.2c0.8-0.1,1.6-0.2,2.4-0.3c1.4-0.2,3-0.3,4.8-0.3c-0.1-1.5-0.1-2.3-0.1-2.4c0-0.7,0.2-1,0.7-1
			c0.6,0,0.8,0.4,0.8,1.3c0,0.2,0,0.6,0,1.1c0,0.4,0,0.8,0,1c2.7,0.2,5.1,0.3,7.1,0.3C278,34.2,278.2,34.3,278.2,34.4z M269.3,39.1
			c-0.5-0.7-1.2-1-2-1c-0.5,0-1,0.1-1.5,0.4c-0.5,0.3-0.7,0.7-0.7,1.2c0,0.5,0.2,0.9,0.5,1.2c0.4,0.3,0.8,0.4,1.3,0.4
			C268.3,41.3,269.1,40.6,269.3,39.1z"/>
		<path class="st0" d="M297.8,41.5c0,1.7-0.8,3-2.4,3.9c-1.3,0.7-2.8,1.1-4.7,1.1c-0.9,0-1.7-0.2-2.5-0.6c-0.9-0.5-1.4-1.1-1.4-1.9
			c0-1.2,0.7-1.8,2.2-1.8c1.8,0,3.2,0.9,4.3,2.6c0.8-0.3,1.4-0.6,1.9-1.2c0.5-0.6,0.8-1.3,0.8-2.1c0-0.9-0.4-1.6-1.1-2.1
			c-0.6-0.4-1.4-0.6-2.4-0.6c-1.2,0-2.5,0.2-3.8,0.6c-1.4,0.5-2.5,1.1-3.4,1.9c-0.4,0.4-0.7,0.6-0.9,0.6c-0.5,0-0.8-0.3-0.8-0.8
			c0-0.3,0.3-0.7,0.8-1.2l7.8-6.7c0.1-0.1,0.2-0.2,0.3-0.3c-0.1-0.1-0.3-0.1-0.5-0.1c-0.7,0-1.7,0-2.8,0.1c-1.5,0.1-2.3,0.2-2.6,0.3
			c-0.5,0-0.7-0.2-0.7-0.7c0-0.5,0.5-0.7,1.4-0.7c1.7,0,4.1-0.1,7-0.1c0.7,0,1,0.2,1,0.5c0,0.2-0.2,0.5-0.7,0.8
			c-2.6,2-4.9,3.9-6.9,5.6c1.6-0.7,3.3-1,5-1c1.2,0,2.3,0.3,3.2,0.9C297.3,39.4,297.8,40.4,297.8,41.5z M292,45.2
			c-0.9-1.4-1.9-2.1-2.9-2.1c-0.8,0-1.2,0.3-1.2,0.9c0,0.8,1,1.3,2.9,1.3C291,45.3,291.4,45.2,292,45.2z"/>
		<path class="st0" d="M18.4,64.4c0,0.3-0.2,0.7-0.5,1.1c-0.3,0.4-0.6,0.6-0.9,0.6c-0.3,0-0.8-0.1-1.6-0.3c-0.9-0.3-2-0.5-3.5-0.5
			c0,0.7,0.1,1.8,0.1,3.5c0,1.5,0.1,2.6,0.1,3.5c0,1.5-0.4,2.5-1.1,3.1c-0.8,0.7-1.7,1.1-2.7,1.1c-0.4,0-0.8-0.1-1.2-0.4
			c-0.5-0.3-0.7-0.6-0.7-1c0-0.2,0.4-0.3,1.3-0.3c1,0,1.7-0.2,2.1-0.6c0.5-0.4,0.7-1.1,0.7-2c0-0.7,0-1.7,0-3c0-1.4,0-2.4,0-3.1
			c-2.4,3.1-4.6,5.2-6.7,6.3c-1,0.5-1.8,0.8-2.1,0.8c-0.3,0-0.7-0.2-1.1-0.5c-0.4-0.3-0.6-0.6-0.6-1c0-0.1,0.4-0.3,1.1-0.5
			c1.9-0.4,3.6-1.2,5.3-2.4c1.2-0.8,2.4-2,3.6-3.6c-2,0.1-3.5,0.2-4.6,0.4c0,0-0.5,0.1-1.3,0.3c-0.7,0.2-1.1,0.3-1.2,0.3
			c-0.4,0-0.6-0.2-0.6-0.7c0-0.3,0.1-0.6,0.3-0.7c0.4-0.4,3.1-0.7,8-0.7v-2.8c0-0.5,0.3-0.7,0.8-0.7c0.5,0,0.7,0.3,0.7,1l0,0.3
			c-0.1,0-0.1,0.3-0.1,1c0,0.4,0,0.8,0,1.3c0.5,0,1.2,0,2.1,0c0.3,0,0.8,0,1.5,0.1c0.6,0.1,1.1,0.1,1.5,0.1c0,0,0.1,0,0.2,0
			c0.1,0,0.2-0.1,0.2-0.1h0.7C18.3,64.3,18.4,64.3,18.4,64.4z"/>
		<path class="st0" d="M36.7,63c0,1-0.1,2.8-0.3,5.1c-0.3,3.1-1.6,5.4-4,7.1c-1.6,1.1-2.9,1.6-3.9,1.6c-0.3,0-0.7-0.2-1.4-0.6
			c-0.6-0.4-0.9-0.8-0.9-1c0-0.2,0.6-0.3,1.8-0.5c2-0.3,3.7-1.1,5-2.4c1.3-1.2,2-3.4,2-6.5c0-0.4,0-0.9-0.1-1.7c0-0.8,0-1.3,0-1.7
			c0-0.5,0.3-0.7,0.8-0.7C36.4,61.7,36.7,62.1,36.7,63z M28.3,69c0,0.5-0.2,0.8-0.7,0.8c-0.6,0-0.9-0.4-0.9-1.2v-5.6
			c0-0.7,0.3-1,0.8-1c0.5,0,0.7,0.6,0.7,1.7c0,0.2,0,0.5,0,0.8c0,0.3,0,0.5,0,0.6c0,0.5,0,1.1,0.1,2C28.2,67.8,28.3,68.5,28.3,69z"
			/>
		<path class="st0" d="M49.8,69c0,0.2-0.2,0.3-0.5,0.3c-0.7,0-1.6-0.1-2.8-0.4c-0.7-0.1-1-0.4-1-0.8c0-0.6,0.3-0.9,0.9-0.9
			c0.3,0,0.9,0.3,1.9,0.8C49.3,68.4,49.8,68.7,49.8,69z M61.4,66.2c0,0.4-0.5,1.2-1.5,2.4c-2.1,2.5-5.3,4.6-9.3,6.2
			c-1.8,0.7-2.9,1.1-3.2,1.1c-0.4,0-0.6-0.1-0.9-0.3c-0.2-0.3-0.4-0.6-0.4-0.9c0-0.5,0.4-0.8,1.1-0.9c3.2-0.5,6.1-1.7,8.7-3.5
			c1.8-1.3,3.2-2.5,4.2-3.6c0.4-0.5,0.7-0.7,0.8-0.7C61.2,65.8,61.4,65.9,61.4,66.2z M51.1,65.4c0,0.2-0.1,0.3-0.4,0.3
			c-0.5,0-1.2-0.2-2.2-0.6c-1.1-0.5-1.7-0.9-1.7-1.2c0-0.6,0.3-0.9,1-0.9c0.3,0,0.7,0.2,1.1,0.5C50.3,64.6,51.1,65.2,51.1,65.4z
			 M60.1,63.5c0,0.2-0.2,0.4-0.5,0.6c-0.3,0.2-0.5,0.3-0.7,0.3c-0.2,0-0.6-0.4-1.1-1.2c-0.5-0.8-0.7-1.3-0.7-1.6
			c0-0.2,0.1-0.3,0.2-0.3c0.1,0,0.2,0.1,0.4,0.3c0.7,0.8,1.3,1.4,2,1.6C59.9,63.2,60.1,63.4,60.1,63.5z M63.1,62.4
			c0,0.1-0.2,0.4-0.5,0.6s-0.5,0.4-0.7,0.5c-0.3-0.1-0.8-0.5-1.3-1.1c-0.5-0.7-0.8-1.2-0.8-1.5c0-0.1,0-0.2,0.1-0.2
			c0,0,0.3,0.2,0.8,0.5c0.5,0.4,0.8,0.6,0.9,0.6C62.2,62,62.7,62.2,63.1,62.4z"/>
		<path class="st0" d="M86.1,65.8c0,0.4-0.3,0.9-0.7,1.4C85,67.7,84.6,68,84.2,68c-0.1,0-0.4-0.1-1-0.4c-1.3-0.6-3.2-0.9-5.5-0.9
			c0,3.1-0.8,5.8-2.5,7.9c-1,1.3-1.9,1.9-2.6,1.9c-0.3,0-0.7-0.1-1.2-0.4c-0.5-0.3-0.8-0.6-0.8-0.9c0-0.2,0.4-0.4,1.1-0.8
			c1.1-0.5,2-1,2.5-1.6c1.3-1.4,2.1-3.5,2.3-6.2c-0.8,0-2.1,0.1-3.7,0.2c-0.9,0.1-1.8,0.3-2.7,0.6c-1.1,0.3-1.5,0.4-1.4,0.4
			c-0.4,0-0.6-0.3-0.6-0.8c0-0.4,0.1-0.8,0.4-1c0.4-0.3,1.6-0.5,3.8-0.6c1.5-0.1,2.9-0.2,4.3-0.2c-0.1-1.2-0.1-2.4-0.1-3.5
			c0-0.4,0.3-0.7,0.9-0.7c0.4,0,0.6,0.4,0.6,1.3l0,2.8c0.8,0,2,0.1,3.7,0.2c1.6,0.1,2.8,0.1,3.6,0.1c0.3,0,0.6-0.1,0.9-0.2
			L86.1,65.8z"/>
		<path class="st0" d="M96.8,64.1c0,1.4-0.2,2.8-0.6,4.3c-0.4,1.6-1,3-1.7,4c-0.7,0.9-1.2,1.5-1.6,1.9c-0.6,0.4-0.9,0.6-1.2,0.6
			c-0.2,0-0.6-0.2-1.2-0.6c-0.6-0.4-0.8-0.7-0.8-0.9c0-0.2,0.3-0.4,1-0.7c2-0.8,3.4-2.3,4.2-4.5c0.4-1,0.6-2.5,0.7-4.4
			c0-0.6,0.2-0.8,0.5-0.8C96.6,63,96.8,63.4,96.8,64.1z M108.5,68.2c0,0.2-0.6,0.9-1.8,2.2c-0.9,0.9-1.9,1.9-3.1,2.9
			c-1.6,1.2-2.7,1.9-3.5,1.9c-0.6,0-0.9-0.4-0.9-1.2c0-0.6,0-1.5,0-2.6c0-1.2,0.1-2,0.1-2.6c0-0.7,0-1.6-0.1-2.9
			c-0.1-1.3-0.1-2.2-0.1-2.9c0-0.7,0.3-1.1,1-1.1c0.2,0,0.4,0.1,0.5,0.4c0.1,0.2,0.2,0.4,0.2,0.6l-0.1,10c0.3,0,1.2-0.4,2.5-1.3
			c1.1-0.8,2.3-1.7,3.5-2.9c0.8-0.8,1.2-1.2,1.2-1.2C108.3,67.5,108.5,67.7,108.5,68.2z"/>
		<path class="st0" d="M131,68.7c0,2.8-1.5,4.9-4.6,6.3c-1.2,0.6-2.2,0.9-2.9,0.9c-0.4,0-0.8-0.2-1.2-0.5c-0.4-0.3-0.7-0.7-0.7-1.1
			c0-0.1,0.2-0.3,0.6-0.3c0.3,0,0.7-0.1,1.2-0.2c1.4-0.2,2.6-0.6,3.5-1.1c0.8-0.5,1.5-1.1,2-1.8c0.6-0.8,0.8-1.7,0.8-2.6
			c0-0.7-0.2-1.5-0.7-2.2c-0.9-1.6-2.5-2.4-4.8-2.4c-0.1,0-0.2,0-0.4,0c-0.2,0-0.3,0-0.3,0c-0.9,4.1-2.1,7.2-3.6,9
			c-0.9,1.1-1.6,1.6-2.2,1.6c-0.8,0-1.5-0.6-2.1-1.9c-0.4-1-0.6-2-0.6-3c0-1.5,0.5-2.9,1.5-4.1c1.6-1.9,4-2.8,7.2-2.8
			c2,0,3.7,0.5,5.1,1.6C130.2,65.2,131,66.7,131,68.7z M122,63.8c-2.1,0.4-3.6,1.1-4.5,2.2c-0.9,1.1-1.4,2.2-1.4,3.2
			c0,0.6,0.1,1.2,0.4,2c0.3,0.9,0.7,1.3,1.2,1.3c0.4,0,0.9-0.3,1.4-1C120.3,69.9,121.3,67.3,122,63.8z"/>
		<path class="st0" d="M137.6,63.7h6.7c0.2,0,0.3,0.1,0.3,0.3c0,0.3-0.1,0.5-0.2,0.7c-0.2,0.2-0.5,0.3-0.8,0.3c-0.1,0-0.5,0-1.1-0.1
			c-0.6,0-1.3,0-2,0c-1.2,0-2.1,0.1-2.7,0.2c-0.3,0.1-0.5,0.2-0.6,0.2c-0.5,0-0.7-0.2-0.8-0.6c0-0.2,0.2-0.4,0.4-0.6
			C137,63.7,137.3,63.7,137.6,63.7z M138.4,71.6c0.2,0,0.4,0,0.7,0.1c0.2,0.1,0.6,0.1,1,0.1h1.2c0.3,0,0.6,0,1,0.1
			c0.2,0,0.5-0.1,0.8-0.2c0.4,0,0.6,0.2,0.6,0.7c0,0,0,0.1,0,0.1c-0.1,0.1-0.1,0.4-0.1,0.7c-0.1,0.4-0.1,0.9-0.1,1.4
			c0,0.3,0,0.6,0.1,1.1c0,0.5-0.2,0.7-0.6,0.7c-0.7-0.1-1.3-0.2-1.9-0.2c-1,0-1.6,0-1.9,0.1c-0.2,0-0.5,0.1-0.8,0.1
			c-0.4,0-0.7-0.2-0.7-0.6c0.1-0.7,0.2-1.4,0.2-1.9c0-0.5-0.1-1.1-0.2-1.7C137.7,71.9,138,71.6,138.4,71.6z M139,68.9h3.8
			c0.4,0,0.6,0.2,0.6,0.6c0,0.3-0.2,0.5-0.6,0.5c-1.7,0-3.1,0.1-4,0.2c-0.5,0-0.7-0.2-0.7-0.6C138.1,69.1,138.4,68.9,139,68.9z
			 M139.1,61.1h3.7c0.4,0,0.6,0.2,0.6,0.6c0,0.3-0.2,0.5-0.6,0.5c-1.7,0-3,0.1-3.9,0.2c-0.5,0-0.7-0.2-0.7-0.6
			C138.2,61.4,138.5,61.1,139.1,61.1z M139.1,66.5h3.7c0.4,0,0.6,0.2,0.6,0.6c0,0.3-0.2,0.5-0.6,0.5c-1.7,0-3,0.1-3.9,0.2
			c-0.5,0-0.7-0.2-0.7-0.6C138.2,66.7,138.5,66.5,139.1,66.5z M141.1,75.3c0.3,0,0.5,0,0.8,0.1c0.3,0,0.4-0.1,0.4-0.3v-1.9
			c0-0.2-0.1-0.3-0.2-0.3c-0.5-0.1-1.3-0.1-2.4-0.1c-0.3,0-0.5,0.2-0.5,0.5c0,0.6-0.1,1.2-0.2,1.7c0,0.3,0.2,0.4,0.6,0.4
			C140.1,75.3,140.6,75.3,141.1,75.3z M146.6,62h1.6l0-0.8c0-0.4,0.2-0.6,0.6-0.6c0.5,0,0.7,0.2,0.7,0.7V62h2.9v-0.8
			c0-0.4,0.2-0.6,0.6-0.6c0.5,0,0.7,0.2,0.7,0.7l0,0.7h2.5c0.2,0,0.3,0.1,0.3,0.3c0,0.3-0.1,0.5-0.2,0.6c-0.2,0.2-0.5,0.3-0.8,0.3
			c-0.2,0-0.8,0-1.7-0.1c0,0,0,0,0,0l0,1h2.2c0.2,0,0.3,0.1,0.3,0.4c0,0.2-0.1,0.3-0.2,0.5c-0.2,0.2-0.4,0.3-0.6,0.3
			c-0.5,0-1-0.1-1.6-0.1l0,1.1h3.5c0.2,0,0.4,0.1,0.4,0.3c0,0.3-0.1,0.6-0.3,0.8c-0.2,0.2-0.5,0.3-0.8,0.3c-0.3,0-1-0.1-2-0.2
			c-0.9,0-1.8-0.1-2.8-0.1v1l2.4,0c0.2,0,0.6-0.1,1-0.2c0.6,0,0.8,0.2,0.8,0.6c-0.2,1-0.4,2.3-0.4,3.7c0,0.2,0,0.4,0,0.5
			c0.4,0,0.7,0,0.9,0c0.2,0,0.5,0,0.9-0.1c0.4-0.1,0.6-0.2,0.7-0.2c0.1,0,0.2,0.1,0.2,0.2c0,0.4-0.2,0.7-0.5,1.1
			c-0.3,0.4-0.6,0.6-0.9,0.6c-0.3,0-0.7-0.1-1.2-0.2c0,0.6,0.1,1.3,0.1,2c0,0.6-0.2,0.9-0.7,0.9c-0.2,0-0.4-0.1-0.5-0.3
			c-0.1-0.3-0.1-0.7-0.1-1.2c0-0.6,0-1.2,0-1.7c-1.1-0.2-2.4-0.3-3.9-0.3c-1.1,0-2,0-2.8,0.1c-0.1,0.9-0.3,1.5-0.5,2
			c-0.4,0.8-0.8,1.2-1.2,1.2c-0.4,0-0.7-0.2-1.1-0.6c-0.2-0.3-0.3-0.5-0.3-0.7c0-0.1,0.1-0.2,0.2-0.2c0.6-0.1,1-0.5,1.4-1.2
			c0-0.1,0.1-0.2,0.1-0.3c-0.2,0-0.4,0.1-0.6,0.1c-0.4,0.1-0.8,0.2-1,0.2c-0.3,0-0.5-0.2-0.5-0.6c0-0.2,0.1-0.4,0.3-0.6
			c0.1-0.2,0.3-0.3,0.5-0.3c0.2,0,0.3,0,0.5,0.1c0.4,0,0.7-0.1,1.1-0.1c0-0.5,0-1,0-1.7c0-0.8-0.1-1.6-0.2-2.5
			c0-0.4,0.2-0.7,0.6-0.7c0.2,0,0.3,0,0.4,0.1l3,0v-1c-1.8,0-3.1,0.1-4,0.2c-0.5,0.1-0.9,0.2-1,0.2c-0.5,0-0.7-0.3-0.8-0.7
			c0-0.2,0.2-0.4,0.4-0.6c0.2-0.1,0.5-0.2,0.8-0.2h2.6l-0.1-1.2c-0.5,0-1.1,0.1-1.8,0.3c-0.4,0-0.6-0.2-0.6-0.5
			c0-0.2,0.1-0.4,0.3-0.5c0.2-0.2,0.4-0.2,0.6-0.2h1.6l0-1c-0.5,0-1,0.1-1.3,0.1c-0.4,0.1-0.7,0.2-0.9,0.2c-0.4,0-0.6-0.2-0.7-0.6
			c0-0.2,0.2-0.4,0.4-0.6C146.1,62,146.3,62,146.6,62z M147.7,73c1-0.1,1.9-0.1,2.7-0.1c0,0,0,0,0.1,0l0-1.3c-1,0-1.9,0.1-2.7,0.1h0
			c0,0,0,0.1,0,0.1C147.7,72.2,147.7,72.6,147.7,73z M147.8,70.7c0.1,0,0.1,0,0.2,0h2.5l0-1.3c-0.9,0-1.8,0-2.7,0
			C147.8,69.9,147.8,70.4,147.8,70.7z M149.6,64h3v-1c-0.5,0-1.1,0-1.7,0c-0.4,0-0.9,0-1.2,0V64z M149.6,66.2h3l0-1.2
			c-0.9,0-1.9,0-3,0V66.2z M151.6,71.6l0,1.3c0.8,0,1.7,0.1,2.7,0.1c0-0.5,0-1,0-1.4C153.4,71.5,152.5,71.6,151.6,71.6z M151.7,69.4
			l0,1.3h2.8c0-0.4,0.1-0.8,0.1-1.1c0-0.1-0.2-0.2-0.6-0.2C153.2,69.4,152.4,69.4,151.7,69.4z"/>
		<path class="st0" d="M166.9,67.4c0.3,0,0.4,0.1,0.4,0.3c0,0.3-0.1,0.5-0.3,0.6l-4,1.3c-0.6,0-0.8-0.2-0.8-0.7c0-0.6,0.2-1,0.6-1
			L166.9,67.4z M164.4,60.7c0.1,0,0.3,0.1,0.6,0.2c0.7,0.5,1.4,1.1,2.4,1.7c0.1,0.1,0.2,0.2,0.2,0.3c0,0.2-0.2,0.4-0.5,0.4
			c-0.1,0-0.2,0-0.4-0.1c-1.3-0.4-2.1-0.6-2.5-0.7c-0.4-0.3-0.6-0.6-0.6-1C163.5,60.9,163.8,60.7,164.4,60.7z M167.6,73
			c0.2,0,0.4,0.1,0.4,0.4c0,0.2-0.1,0.4-0.2,0.6c-1.5,1.9-2.3,2.8-2.5,2.8c-0.7,0-1-0.2-1-0.6c0-0.5,0.1-0.9,0.4-1
			C164.6,75,165.6,74.2,167.6,73z M175.5,60.3c0.6,0,0.8,0.3,0.8,0.8c-0.1,0.4-0.2,0.9-0.2,1.2c2.1,0,3.9,0.1,5.5,0.3l0.9-0.2
			c0.4,0,0.6,0.2,0.6,0.5c0,0.1,0,0.3-0.1,0.4c-0.2,0.5-0.4,1.4-0.5,2.6c0,0.4-0.2,0.6-0.6,0.6c-0.4,0-0.6-0.2-0.6-0.6
			c0-0.7,0-1.3,0.1-1.9c0,0-0.1-0.1-0.3-0.2c-1.5-0.3-3.2-0.4-5.1-0.4c-1.9,0-3.7,0.1-5.3,0.3c-0.5,0-0.7,0.1-0.8,0.3l0,0.1
			c0,1.1-0.1,1.8-0.3,2c-0.1,0.3-0.3,0.4-0.6,0.4c-0.2,0-0.4-0.1-0.4-0.3c0-1.3-0.1-2.5-0.4-3.5c0-0.4,0.2-0.6,0.6-0.6
			c0.3,0,0.5,0,0.7,0.1c0.2,0.1,0.4,0.2,0.6,0.2c1.2-0.1,2.6-0.1,4.5-0.1c0.1,0,0.1,0,0.2,0c0-0.4-0.1-0.8-0.2-1.1
			C174.7,60.6,174.9,60.3,175.5,60.3z M169.9,75.3c0.4,0.1,0.7,0.1,0.8,0.1c0.6,0,1.4-0.2,2.4-0.7c0.2,0,0.3,0.1,0.3,0.3
			c0,0.2-0.3,0.7-1,1.4c-0.6,0.7-1.2,1.1-1.7,1.1c-0.3,0-0.5-0.1-0.7-0.4c-0.3-0.4-0.4-0.8-0.4-1.2
			C169.7,75.4,169.8,75.3,169.9,75.3z M171.9,64.9h8.2c0.2,0,0.4,0.1,0.4,0.3c0,0.3-0.1,0.6-0.3,0.8c-0.2,0.2-0.5,0.3-0.8,0.3
			c-0.2,0-0.7-0.1-1.4-0.2c-0.5,0-1-0.1-1.6-0.1l0,1.4h0c0.8,0,1.7,0,2.8,0.1c0.2,0,0.5-0.1,0.8-0.2c0.4,0,0.7,0.2,0.7,0.7
			c0,0,0,0.1-0.1,0.2c-0.1,0.2-0.1,0.5-0.1,1c0,0.7-0.1,1.4-0.1,2.1c0,0.5,0,1.1,0.1,1.9c0,0.5-0.2,0.7-0.7,0.7
			c-1.6-0.1-3.1-0.2-4.4-0.2c-1.5,0-2.5,0-3,0c-0.3,0-0.8,0.1-1.3,0.1c-0.4,0-0.6-0.2-0.6-0.6c0.1-1.1,0.2-2,0.2-2.8
			c0-0.8-0.1-1.7-0.2-2.8c0-0.4,0.2-0.7,0.6-0.7c0.2,0,0.5,0,0.7,0.1c0.2,0.1,0.6,0.1,1,0.1h2.1V66c-1.2,0-2.2,0.1-2.7,0.2
			c-0.4,0.1-0.6,0.2-0.7,0.2c-0.5,0-0.7-0.2-0.8-0.6c0-0.2,0.2-0.4,0.4-0.6C171.3,65,171.6,64.9,171.9,64.9z M175,72.8l0-1.7
			c-1.1,0-2,0.1-2.8,0.1c-0.1,0-0.1,0-0.2,0c0,0.4-0.1,0.9-0.1,1.3c0,0.3,0.2,0.4,0.6,0.4C173.2,72.8,174.1,72.8,175,72.8z
			 M172.1,70.1c0.1,0,0.2,0,0.2,0h2.7v-1.6c-0.7,0-1.5,0-2.4,0c-0.3,0-0.5,0.2-0.5,0.5C172.1,69.3,172.1,69.7,172.1,70.1z M176.3,71
			l0,1.8c0.8,0,1.6,0,2.5,0.1c0.3,0,0.4-0.1,0.4-0.3V71c0,0-0.1,0-0.1,0C178,71,177.1,71,176.3,71z M176.3,68.5V70h2.7
			c0.1,0,0.1,0,0.2,0v-1.2c0-0.2-0.1-0.3-0.2-0.3C178.2,68.5,177.3,68.5,176.3,68.5z M178,74.6c0,0,0.1,0,0.1,0
			c0.8,0.4,1.5,0.7,2,0.9c0.4,0.1,0.8,0.2,1.4,0.2c0.2,0,0.3,0.1,0.3,0.3c0,0.3-0.2,0.5-0.5,0.8c-0.6,0.4-1.1,0.6-1.4,0.6
			c-0.1,0-0.3-0.1-0.4-0.2c-0.2-0.2-0.8-0.9-1.7-2c-0.1-0.1-0.1-0.2-0.1-0.2C177.7,74.7,177.8,74.6,178,74.6z"/>
		<path class="st0" d="M193.6,60.3c0.4,0,0.6,0.2,0.6,0.5c0,0.2-0.1,0.4-0.2,0.6c-0.5,0.8-1.1,1.6-1.8,2.3c0.1,0.2,0.2,0.4,0.2,0.7
			c-0.1,1.4-0.1,2.6-0.1,3.7l0.1,7.7c0,1-0.3,1.5-0.9,1.5c-0.4,0-0.6-0.5-0.6-1.5c0.1-3.3,0.1-5.9,0.1-7.7c0-0.9,0-2-0.1-3.1
			c-0.2,0.2-0.4,0.3-0.6,0.5c-0.5,0.5-1,0.7-1.3,0.7c-0.4,0-0.7-0.1-1.1-0.4c-0.4-0.3-0.6-0.6-0.6-0.9c0-0.2,0.2-0.3,0.5-0.4
			c1-0.3,2-0.8,2.8-1.4c0.9-0.7,1.8-1.6,2.6-2.7C193.4,60.4,193.5,60.3,193.6,60.3z M199,60.5c0.4,0,0.6,0.2,0.6,0.5
			c0,0.2-0.1,0.5-0.2,0.7c-0.3,0.5-0.6,1-0.8,1.4c1.1,0,2.1,0,3,0c1.1,0,2.1,0,3,0.1c0.8,0,1.3,0,1.5,0c0.8,0,1.6-0.1,2.3-0.2
			c0.2-0.1,0.4-0.1,0.6-0.1c0.2,0,0.3,0.2,0.3,0.5c0,0.4-0.2,0.8-0.5,1.3c-0.3,0.4-0.6,0.6-0.9,0.6c-0.3,0-0.6-0.1-0.9-0.3
			c-0.6-0.3-1.2-0.5-1.9-0.6c-1.2-0.2-2.3-0.3-3.4-0.3c-0.5,0-0.9,0-1.3,0c0,0.1,0,0.2,0,0.3c-0.1,1.1-0.1,2.1-0.1,3
			c0.1,0,0.2,0,0.4,0h4.8c0.2,0,0.3,0.1,0.4,0.2c0,0.3-0.1,0.6-0.3,0.8c-0.2,0.3-0.5,0.4-0.8,0.4c-0.1,0-0.4-0.1-0.8-0.2
			c-0.4,0-0.8-0.1-1.3-0.1c-0.9,0-1.6,0-2,0.1c-0.2,0.1-0.3,0.1-0.4,0.1l0,2.7c0.1,0,0.2,0,0.3,0h5.3c0.2,0,0.4,0.1,0.4,0.2
			c0,0.3-0.1,0.6-0.3,0.8c-0.2,0.3-0.5,0.4-0.8,0.4c-0.1,0-0.4-0.1-0.9-0.2c-0.5,0-1-0.1-1.5-0.1c-1,0-1.7,0-2.2,0.1
			c-0.1,0-0.3,0.1-0.4,0.1l0,2.8c0,1-0.3,1.5-0.8,1.5c-0.4,0-0.7-0.5-0.7-1.5c0.1-3.2,0.1-5.8,0.1-7.6c0-1.1,0-2.3-0.1-3.7
			c0-0.1,0-0.1,0-0.2c-0.4,0-0.8,0.1-1.2,0.2c-0.3,0.3-0.5,0.7-0.8,1c-0.4,0.4-0.7,0.7-1,0.7c-0.3,0-0.7-0.1-1.1-0.4
			c-0.4-0.3-0.5-0.6-0.5-0.9c0-0.2,0.2-0.4,0.5-0.4c0.8-0.3,1.5-0.7,2.1-1.3c0.7-0.6,1.3-1.4,1.9-2.5
			C198.8,60.5,198.9,60.5,199,60.5z"/>
		<path class="st0" d="M217.3,63.6h7.1c-0.1-1.2-0.1-2-0.1-2.4c0-0.4,0.2-0.6,0.6-0.6c0.5,0,0.8,0.3,0.8,0.7v0.8c0,0.5,0,1,0,1.5
			h6.3c0.2,0,0.4,0.1,0.4,0.2c0,0.3-0.1,0.6-0.3,0.8c-0.2,0.2-0.5,0.4-0.8,0.4c-0.4,0-1.3-0.1-2.7-0.2c-0.9,0-1.8-0.1-2.8-0.1
			c0,0.8,0.1,1.5,0.2,2.1c0.2,1.4,0.6,2.7,1.2,3.7c0.2,0.4,0.4,0.8,0.7,1.2c0.8-1.2,1.4-2.6,1.9-4.3c0-0.2,0.2-0.3,0.6-0.3
			c0.4,0,0.6,0.2,0.6,0.7c0,0-0.1,0.1-0.1,0.3c-0.4,1.3-1.1,2.8-2,4.5c0,0-0.1,0.1-0.1,0.1c0.4,0.4,0.8,0.7,1.2,1
			c0.8,0.6,1.8,1,3,1.3c0.3,0,0.4,0.2,0.4,0.5c0,0.3-0.2,0.6-0.5,1c-0.4,0.4-0.7,0.6-1.1,0.6c-0.3,0-0.7-0.2-1.2-0.6
			c-1-0.7-1.9-1.5-2.8-2.5c-0.7,0.8-1.4,1.5-2.1,2.1c-0.8,0.6-1.4,0.9-1.8,0.9c-0.3,0-0.6-0.1-0.8-0.3c-0.4-0.4-0.6-0.7-0.6-1.1
			c0-0.2,0.3-0.4,0.8-0.5c1.3-0.2,2.6-0.9,3.7-2.1c-0.7-1.1-1.2-2.3-1.6-3.6c-0.4-1.1-0.6-2.7-0.8-4.7c-0.2,0-0.4,0-0.6,0
			c-2.6,0-4.5,0-5.7,0.1c-0.5,0.1-0.8,0.1-1.1,0.1c0,0.1,0,0.3,0,0.4l0,2.7c0.3,0,0.9-0.1,1.7-0.1h2.5c0.1,0,0.4-0.1,0.8-0.2
			c0.6,0,0.8,0.3,0.8,0.8c-0.3,1-0.5,2.1-0.6,3.1c-0.1,1.4-0.5,2.4-1.1,2.8c-0.5,0.4-1.1,0.6-1.8,0.6c-0.4,0-0.7-0.2-1-0.5
			c-0.2-0.3-0.3-0.6-0.3-0.8c0-0.3,0.1-0.4,0.4-0.5c0.9,0,1.5-0.2,1.7-0.4c0.3-0.3,0.6-1,0.8-2.2c0.1-0.8,0.2-1.2,0.2-1.4
			c0-0.3-0.1-0.4-0.3-0.4h-1.5c-0.7,0-1.4,0.1-2,0.2c-0.2,0.1-0.4,0.1-0.5,0.1c0,1-0.2,1.9-0.4,2.6c-0.4,1.1-0.9,2-1.6,2.9
			c-0.4,0.5-0.8,0.7-1.1,0.7c-0.4,0-0.9-0.2-1.4-0.7c-0.4-0.3-0.6-0.6-0.6-0.9c0-0.3,0.2-0.4,0.6-0.5c0.5-0.1,0.9-0.2,1.2-0.5
			c0.7-0.4,1.2-1.1,1.5-2.1c0.3-0.9,0.4-2,0.4-3.4c0-0.8-0.1-1.9-0.3-3.4c0-0.6,0.2-0.8,0.7-0.8c0.3,0,0.6,0.1,0.7,0.2
			C217.1,63.6,217.2,63.6,217.3,63.6z M230.3,60.6c0.4,0,0.6,0.2,0.6,0.6c0,0.3,0,0.5-0.1,0.7c-1.2,0.9-1.8,1.4-1.9,1.4
			c-0.3,0-0.5-0.1-0.5-0.4c0-0.1,0.3-0.7,1-1.9C229.7,60.7,229.9,60.6,230.3,60.6z"/>
		<path class="st0" d="M253.8,64.5c0,0.3-0.2,0.7-0.6,1.2c-0.4,0.5-0.7,0.7-1,0.7c0.1,0-0.4-0.1-1.5-0.4c-1.3-0.3-2.6-0.5-3.9-0.5
			c-0.2,0-0.4,0-0.6,0c-0.3,0-0.6,0-0.7,0c-0.1,1.1-0.2,2.1-0.2,3l4.2,0c0.8,0,1.1,0.1,1.1,0.3c0,0.2-0.1,0.5-0.3,0.7
			c-0.2,0.2-0.4,0.4-0.6,0.4c-1.3-0.2-2.2-0.3-2.8-0.3c-0.2,0-0.7,0-1.6,0c0,1.5,0.1,2.6,0.3,3.4c0.3,1.4,1,2.2,2,2.2
			c0.7,0,1.5-0.2,2.5-0.6c1-0.5,1.7-1,2.2-1.5c0.3-0.3,0.5-0.5,0.6-0.5c0.3,0,0.4,0.3,0.4,0.8c0,0.8-0.1,1.4-0.4,1.8
			c-0.3,0.5-1,0.8-2.3,1.1c-0.9,0.2-1.8,0.3-2.6,0.3c-1.8,0-3-0.8-3.5-2.3c-0.4-0.9-0.5-2.4-0.5-4.5c-1.1,0.1-1.8,0.1-1.9,0.1
			c-0.8,0.1-1.5,0.2-1.8,0.3c-0.4,0.1-0.6,0.2-0.5,0.2c-0.3,0-0.4-0.2-0.4-0.6c0-0.5,0.4-0.8,1.1-1c0.5-0.1,1.8-0.2,3.7-0.3
			c0-1.5,0-2.5,0.1-3l-1.6,0.1c-0.5,0.1-1.1,0.2-1.9,0.4c-1.1,0.3-1.7,0.5-1.8,0.6c-0.3,0-0.5-0.2-0.5-0.6c0-0.8,0.5-1.3,1.4-1.3
			c1-0.1,2.5-0.2,4.5-0.3c0.1-1,0.1-1.8,0.1-2.4c0-0.8,0.3-1.2,0.8-1.2c0.6,0,0.9,0.3,0.9,0.8c0,0-0.1,0.9-0.4,2.7c0.2,0,0.5,0,1,0
			c0.4,0,0.7,0,0.9,0c0.5,0,1.2,0,2.1,0c0.9,0,1.6,0,2.1,0c0.6,0,1.1,0,1.3-0.1c0.4,0,0.5-0.1,0.6-0.1
			C253.7,64.4,253.8,64.4,253.8,64.5z"/>
		<path class="st0" d="M262.5,66.9l2.5,0.1c0.3,0,0.6,0,1-0.1c0.4,0,0.6,0.2,0.6,0.7c-0.2,0.7-0.4,1.2-0.4,1.7
			c-0.2,1.1-0.6,2.1-1.1,3c-0.5,1.1-1.3,2-2.2,2.7c-0.6,0.4-1,0.6-1.4,0.6c-0.4,0-0.9-0.2-1.3-0.5c-0.4-0.3-0.6-0.6-0.6-0.9
			c0-0.2,0.2-0.3,0.5-0.4c1-0.2,1.8-0.5,2.4-0.9c0.5-0.4,1-0.9,1.5-1.7c0.4-0.6,0.7-1.5,1-2.8c0-0.2-0.1-0.3-0.2-0.4
			c-0.3-0.1-0.6-0.1-0.8-0.1c-1.1,0-2.1,0.2-3,0.5c-0.4,0-0.6-0.2-0.6-0.6c0-0.4,0.2-0.6,0.6-0.8C261.4,66.9,261.9,66.9,262.5,66.9z
			 M265.7,61.2h0.5c1.1-0.1,2-0.2,2.9-0.2c1.3,0,2.7,0,4.2,0.1c0.3,0,0.6,0,0.8-0.1c0.5,0,0.7,0.2,0.7,0.7c0,0.2-0.2,0.4-0.5,0.6
			c-0.2,0.1-0.7,0.5-1.5,1.1c-0.7,0.5-1.4,1.1-2.1,1.7c-0.2,0.2-0.4,0.3-0.5,0.3c0.3,0.4,0.5,0.8,0.7,1.2h1.3c0.4,0,0.6,0.2,0.6,0.6
			c0,0.3-0.2,0.4-0.6,0.4c-0.4,0-0.7,0-1.1,0c0.1,0.5,0.3,1,0.3,1.5h1.3c0.4,0,0.6,0.2,0.6,0.6c0,0.3-0.2,0.5-0.6,0.5
			c-0.4,0-0.8,0-1.2,0c0,0.5,0.1,1.1,0.1,1.7h2.8c0.2,0,0.4,0.1,0.4,0.3c0,0.3-0.1,0.6-0.3,0.8c-0.2,0.2-0.5,0.3-0.8,0.3
			c-0.2,0-0.6-0.1-1.3-0.2c-0.3,0-0.5,0-0.8,0c-0.1,0.9-0.3,1.7-0.5,2.3c-0.4,0.8-0.9,1.3-1.7,1.7c-0.6,0.3-1.2,0.4-1.8,0.4
			c-0.4,0-0.8-0.1-1-0.4c-0.3-0.3-0.4-0.6-0.4-1c0-0.2,0.2-0.4,0.5-0.4c1.2,0,2-0.2,2.5-0.5c0.4-0.3,0.7-0.7,0.8-1.2
			c0.1-0.3,0.1-0.6,0.2-0.9c-1.3,0-2.3,0.1-2.9,0.2c-0.4,0.1-0.6,0.2-0.7,0.2c-0.5,0-0.7-0.2-0.7-0.6c0-0.2,0.1-0.4,0.4-0.6
			c0.2-0.1,0.5-0.2,0.8-0.2h3.2c0-0.6,0-1.1,0-1.7c-1,0-1.8,0.1-2.5,0.1c-0.5,0-0.7-0.2-0.7-0.6c0-0.4,0.3-0.7,0.9-0.7h2.2
			c-0.1-0.5-0.2-1-0.3-1.4c-0.7,0-1.2,0.1-1.7,0.1c-0.5,0-0.8-0.2-0.8-0.5c0-0.4,0.3-0.6,0.8-0.6h1.3c-0.2-0.5-0.5-1-0.9-1.4
			c-0.2-0.1-0.2-0.3-0.2-0.5c0-0.4,0.2-0.7,0.5-0.7c0.1,0,0.3,0.2,0.6,0.5c0,0,0.1,0.1,0.1,0.1c0-0.1,0.1-0.1,0.2-0.2
			c0.3-0.3,1-0.9,2.1-1.7c0.2-0.1,0.2-0.2,0.2-0.2c0-0.1-0.2-0.2-0.6-0.2c-1.6,0-3,0-4.1,0.1c-0.5,0.1-1.2,0.2-2,0.3
			c-0.5,0-0.7-0.2-0.7-0.5c0-0.2,0.1-0.4,0.3-0.7C265.3,61.3,265.5,61.2,265.7,61.2z M277.8,65.2c0.6,0,0.8,0.3,0.8,0.8
			c0,0.3-0.2,0.5-0.5,0.7c-0.7,0.4-1.6,0.8-2.7,1.2c-0.1,0-0.2,0.1-0.2,0.1c0.1,0.1,0.2,0.3,0.3,0.5c2.1,2.9,3.4,4.6,3.9,4.9
			c0.3,0.2,0.7,0.3,1.2,0.5c0.3,0,0.5,0.1,0.5,0.4c0,0.3-0.2,0.6-0.7,0.9c-0.5,0.3-1,0.5-1.5,0.5c-0.4,0-0.7-0.1-1-0.4
			c-0.7-1.6-1.5-3.3-2.4-4.9c-0.4-0.7-0.7-1.2-1-1.5c-0.1-0.1-0.2-0.2-0.2-0.4c0,0-0.1,0-0.1,0c-0.4,0-0.7-0.2-0.7-0.5
			c0-0.2,0.1-0.4,0.4-0.5c1.6-0.8,2.8-1.5,3.7-2.1C277.6,65.2,277.7,65.2,277.8,65.2z"/>
		<path class="st0" d="M297.9,67.8c0,1.5-0.4,2.9-1.2,4.4c-0.8,1.5-1.8,2.6-3.1,3.4c-1.2,0.8-2.2,1.2-3,1.2c-0.4,0-0.8-0.2-1.2-0.6
			c-0.5-0.4-0.7-0.8-0.7-1.2c0-0.2,0.4-0.3,1.1-0.3c1.9-0.1,3.5-0.8,4.8-2c1.5-1.4,2.2-3.1,2.2-5.4c0-3-0.7-4.6-2.2-4.6
			c-0.7,0-1.4,0.4-2.1,1.1c-0.5,0.6-0.9,1.2-1.3,2c-0.5,1.1-0.9,2.5-1,4c0,0.7-0.3,1-0.7,1c-0.9,0-1.3-1.6-1.3-4.7
			c0-1.1,0.1-2.2,0.3-3.3c0.3-1.6,0.7-2.4,1.2-2.4c0.4,0,0.6,0.3,0.6,0.9c0,0-0.1,0.5-0.3,1.5c-0.3,1.2-0.4,2.7-0.5,4.6
			c0.6-1.6,1.2-2.9,1.8-3.7c1-1.3,2.1-1.9,3.5-1.9c1.2,0,2.1,0.7,2.7,2.2C297.7,65.1,297.9,66.4,297.9,67.8z"/>
		<path class="st0" d="M322.2,74.3c-0.1,0.3-0.3,0.7-0.8,1.2c-0.4,0.5-0.8,0.8-1.1,0.8c-0.4,0-1-0.3-2-0.9c-0.6-0.4-1.2-0.8-1.7-1.2
			c-0.5-0.3-1.1-0.6-2-0.9c-0.2,2-1.4,3-3.7,3c-0.9,0-1.6-0.2-2.3-0.6c-0.8-0.4-1.2-1.1-1.2-1.9c0-0.9,0.4-1.5,1.3-1.9
			c0.7-0.3,1.5-0.5,2.4-0.5c0.6,0,1.4,0.1,2.2,0.3c0-0.4,0-0.9,0-1.5c0-0.8,0-1.3,0-1.5c0,0,0,0,0-0.1c0-0.1,0-0.1,0-0.1
			c-1.6,0.1-2.9,0.2-3.9,0.4c-0.1,0-0.2,0-0.4,0.1c-0.2,0.1-0.3,0.1-0.4,0.1c-0.4,0-0.6-0.2-0.6-0.7c0-0.5,0.4-0.9,1.3-0.9
			c0.7-0.1,2-0.2,3.8-0.2c0-0.8,0-1.8,0-3c-1.3,0-2.1,0.1-2.3,0.1c-0.9,0.1-1.6,0.2-2.3,0.3c-0.6,0.2-0.9,0.2-1,0.2
			c-0.5,0-0.8-0.3-0.8-0.9c0-0.2,0.1-0.4,0.2-0.5c0.2-0.2,2.2-0.3,6.1-0.3c0-1.1-0.1-1.8-0.1-1.9c0-0.6,0.3-0.9,0.8-0.9
			c0.6,0,0.9,0.3,0.9,0.9c0,0.5,0,1.2-0.1,1.9c2.9,0.1,4.9,0.2,5.8,0.2c0.4,0,0.5,0.1,0.5,0.2c0,0.3-0.1,0.6-0.4,1
			c-0.3,0.4-0.5,0.6-0.7,0.6c0.1,0-0.3-0.1-1.2-0.4c-0.9-0.2-2.2-0.4-4.1-0.5c0,1,0,2,0,2.9c1.8,0,3.4,0.1,4.8,0.3
			c0.1,0,0.2,0,0.3,0.1c0,0,0.1,0.1,0.1,0.2c0,0.3-0.1,0.5-0.3,0.8c-0.2,0.3-0.4,0.5-0.6,0.5c0,0-0.6-0.1-1.5-0.3
			c-0.8-0.2-1.8-0.2-2.9-0.3c0,0.2,0,1.3-0.1,3.6c1.5,0.4,2.9,0.9,4.2,1.4c0.9,0.3,1.8,0.5,2.8,0.6C322,74,322.2,74.1,322.2,74.3z
			 M313.4,72.8c-1-0.3-1.8-0.4-2.4-0.4c-1.6,0-2.5,0.5-2.5,1.4c0,0.4,0.3,0.8,0.9,1c0.4,0.2,0.9,0.3,1.4,0.3c0.8,0,1.4-0.2,1.8-0.6
			C313,74.2,313.2,73.6,313.4,72.8z"/>
		<path class="st0" d="M346.2,64.4c-0.1,0.3-0.3,0.8-0.7,1.2c-0.4,0.5-0.8,0.8-1.1,0.8c-0.3-0.1-0.8-0.3-1.4-0.6
			c-1.3-0.5-2.8-0.8-4.4-0.9c0,0.9,0,2.2-0.1,4c0.4,1.1,0.6,1.9,0.6,2.4c0,1-0.3,1.9-1,2.8c-0.6,0.8-1.4,1.5-2.3,1.9
			c-1.1,0.6-2,0.8-2.7,0.8c-0.4,0-0.8-0.2-1.2-0.6c-0.4-0.4-0.6-0.8-0.6-1.2c0-0.1,0.2-0.2,0.7-0.3c1.4-0.1,2.4-0.2,3-0.4
			c1.1-0.3,1.9-0.9,2.4-1.8c0.3-0.6,0.5-1.1,0.5-1.5c0,0,0-0.1,0-0.1c0-0.1,0-0.2,0-0.2c-0.3,0.5-0.7,0.9-1.3,1.2
			c-0.6,0.3-1.2,0.5-1.7,0.5c-0.8,0-1.5-0.3-2.2-0.8c-0.6-0.5-1-1.2-1-1.9c0-0.9,0.4-1.5,1.1-2c0.6-0.4,1.4-0.6,2.3-0.6
			c0.7,0,1.3,0.2,2.1,0.6c0-0.4,0-1.3,0-2.8c-2.4,0-4.5,0.3-6.5,0.9c-1.1,0.4-1.7,0.6-1.8,0.6c-0.5,0-0.8-0.3-0.8-0.9
			c0-0.5,0.6-0.9,1.9-1.2c0.8-0.1,1.6-0.2,2.4-0.3c1.4-0.2,3-0.3,4.8-0.3c-0.1-1.5-0.1-2.3-0.1-2.4c0-0.7,0.2-1,0.7-1
			c0.6,0,0.8,0.4,0.8,1.3c0,0.2,0,0.6,0,1.1c0,0.4,0,0.8,0,1c2.7,0.2,5.1,0.3,7.1,0.3C346,64.2,346.1,64.3,346.2,64.4z M337.3,69.1
			c-0.5-0.7-1.2-1-2-1c-0.5,0-1,0.1-1.5,0.4c-0.5,0.3-0.7,0.7-0.7,1.2c0,0.5,0.2,0.9,0.5,1.2c0.4,0.3,0.8,0.4,1.3,0.4
			C336.3,71.3,337.1,70.6,337.3,69.1z"/>
		<path class="st0" d="M358.6,76.2c0,0.3-0.3,0.6-0.9,1c-0.6,0.4-1,0.6-1.3,0.6c-0.3,0-0.6-0.3-1-0.8c-0.8-1.2-1.7-2.3-2.4-3.1
			c-0.7-0.8-1-1.3-1-1.5c0-0.3,0.2-0.4,0.5-0.4c0.2,0,1.5,0.9,3.8,2.8c0.5,0.4,1.2,0.8,2.1,1.2C358.4,76,358.6,76.1,358.6,76.2z"/>
		<path class="st0" d="M61.1,101.7c0,1.2-0.6,2.3-1.8,3.2c-1.1,0.8-2.3,1.2-3.6,1.2c-0.4,0-0.8-0.2-1.3-0.6
			c-0.5-0.4-0.7-0.8-0.7-1.2c0-0.2,0.1-0.3,0.3-0.3c0.1,0,0.3,0,0.5,0c0.2,0,0.4,0,0.5,0c1.8,0,3-0.3,3.7-1c0.6-0.5,0.9-1.1,0.9-1.8
			c0-0.6-0.3-1.2-1-1.6C58.1,99.2,57.2,99,56,99c-1.5,0-3.1,0.3-4.8,0.9l-0.1,4.1c0,1.4-0.5,2-1.3,2c-0.8,0-1.7-0.3-2.7-0.8
			c-1.1-0.6-1.7-1.3-1.7-2c0-0.8,0.5-1.6,1.6-2.4c0.8-0.6,1.7-1.1,2.7-1.5c0-0.7,0-1.9,0-3.6c-0.6,0-1.6,0.1-2.9,0.2
			c-0.7,0.2-1,0.3-0.9,0.3c-0.4,0-0.6-0.2-0.6-0.6c0-0.3,0.1-0.5,0.3-0.7c0.1-0.2,0.8-0.3,1.9-0.4c0.7,0,1.4,0,2.2,0
			c0-0.3,0-0.7,0-1.3c0-0.6,0-1,0-1.3c0-0.5,0.2-0.8,0.7-0.8c0.5,0,0.8,0.3,0.8,0.9l0,2.4c0.5,0,1.2,0,2.1,0c0.9,0,1.6,0,2.1,0
			c0.4,0,0.6,0.1,0.6,0.3c0,0.3-0.1,0.5-0.3,0.8c-0.2,0.3-0.4,0.4-0.6,0.5c-0.7-0.2-1.6-0.3-2.7-0.3c-0.1,0-0.3,0-0.6,0
			c-0.3,0-0.4,0-0.6,0l-0.1,3.1c1.6-0.5,3.2-0.8,4.7-0.8c0.9,0,1.8,0.1,2.6,0.4c1,0.3,1.7,0.8,2.1,1.4
			C60.9,100.4,61.1,101,61.1,101.7z M49.8,100.5c-1.9,1-2.8,1.8-2.8,2.5c0,0.5,0.3,0.9,0.8,1.2c0.5,0.2,1,0.4,1.5,0.4
			c0.3,0,0.5-0.3,0.5-0.8C49.8,103,49.8,101.9,49.8,100.5z M62.3,95.4c0,0.2-0.3,0.6-0.7,1c-0.4,0.4-0.7,0.7-1,0.7
			c-0.3,0-0.9-0.5-1.8-1.5c-0.8-1-1.2-1.7-1.2-2.1c0-0.2,0.1-0.3,0.2-0.3c0.1,0,0.6,0.3,1.5,0.8c0.9,0.6,1.7,0.9,2.3,1
			C62,95.1,62.2,95.2,62.3,95.4z"/>
		<path class="st0" d="M73.2,90.3c0.4,0,0.6,0.2,0.6,0.5c0,0.2-0.1,0.4-0.2,0.6c-0.1,0.1-0.1,0.2-0.2,0.3h11.1
			c0.2,0,0.4,0.1,0.4,0.3c0,0.3-0.1,0.6-0.3,0.8c-0.2,0.2-0.5,0.3-0.8,0.3c-0.3,0-1-0.1-2-0.2c-1.1,0-2.3-0.1-3.6-0.1
			c-2,0-3.5,0.1-4.4,0.2c-0.5,0.1-0.9,0.2-1,0.2c-0.2,0-0.3,0-0.4-0.1c-0.5,0.6-1.1,1.2-1.7,1.8c-0.4,0.4-0.8,0.6-1.1,0.6
			c-0.4,0-0.7-0.2-1.1-0.5c-0.4-0.3-0.6-0.6-0.6-0.9c0-0.2,0.2-0.3,0.5-0.4c0.9-0.2,1.6-0.6,2.4-1.1c0.8-0.5,1.5-1.2,2.1-2.2
			C73,90.4,73.1,90.3,73.2,90.3z M77.4,99c0.4,0,0.6,0.2,0.6,0.7c0,0-0.1,0.1-0.1,0.2c-0.4,0.9-1,1.8-1.8,2.9
			c1.3,0.8,2.5,1.6,3.6,2.5c0.2,0.2,0.3,0.4,0.3,0.6c0,0.3-0.2,0.4-0.5,0.5c-0.2,0-0.5-0.1-0.7-0.3c-1.4-0.9-2.6-1.7-3.5-2.3
			c-1.1,1.1-2.2,2-3.4,2.6c-0.8,0.5-1.6,0.7-2.1,0.7c-0.3,0-0.5-0.1-0.8-0.3c-0.4-0.3-0.5-0.6-0.5-1c0-0.2,0.2-0.4,0.7-0.5
			c1.6-0.2,3.1-0.8,4.5-1.8c0.1-0.1,0.3-0.3,0.4-0.4c-0.8-0.5-2-1-3.6-1.6c-0.3-0.2-0.5-0.4-0.5-0.6c0-0.5,0.3-0.8,0.8-0.9
			c0.2,0,0.4,0.1,0.6,0.2c0.6,0.4,1.8,1.1,3.4,2c0,0,0.1,0.1,0.1,0.1c0.7-0.8,1.3-1.8,1.8-3C77,99.1,77.1,99,77.4,99z M76.3,96.7
			c2.2,0,4.3,0.1,6.2,0.3c0.2,0,0.4-0.1,0.6-0.1c0.6,0,0.8,0.3,0.8,0.8c0,0.1,0,0.2-0.1,0.3c-0.2,0.4-0.4,0.8-0.5,1.3
			c0,0.4-0.1,1-0.1,1.7c0,1,0.2,1.7,0.5,2.1c0.5,0.6,1.1,1.1,1.7,1.3c0.6,0.3,1.4,0.4,2.5,0.4c0.3,0,0.4,0.1,0.5,0.3
			c0,0.4-0.2,0.9-0.6,1.3c-0.4,0.5-0.9,0.7-1.4,0.7c-0.5,0-1.1-0.2-1.8-0.7c-0.9-0.5-1.5-1.1-1.9-1.9c-0.5-0.8-0.7-1.9-0.7-3.3
			c0-0.9,0.1-1.8,0.3-2.6c0-0.4-0.2-0.6-0.6-0.7c-1.2-0.1-2.6-0.2-4-0.2c-1.1,0-2.2,0-3.4,0.1c-1,0-1.9,0.1-2.8,0.3
			c-0.5,0-0.8-0.2-0.8-0.6c0-0.6,0.3-0.9,1-1C73,96.7,74.5,96.7,76.3,96.7z M74.6,94.2h7.6c0.2,0,0.3,0.1,0.3,0.2
			c0,0.3-0.1,0.5-0.3,0.7c-0.2,0.2-0.5,0.3-0.8,0.3c-0.2,0-0.6,0-1.3-0.1c-0.7,0-1.5,0-2.3,0c-1.4,0-2.4,0-3,0.1
			c-0.4,0.1-0.6,0.1-0.7,0.1c-0.4,0-0.6-0.3-0.6-0.7c0-0.2,0.1-0.4,0.3-0.6C74,94.3,74.3,94.2,74.6,94.2z"/>
		<path class="st0" d="M94.2,92.1h3c0-0.4,0-0.9,0-1.3c0-0.6,0.2-0.9,0.7-0.9c0.4,0,0.7,0.3,0.7,0.9c0,0.4,0,0.9,0,1.3h3.4
			c0.2,0,0.4,0.1,0.4,0.3c0,0.3-0.1,0.6-0.3,0.8c-0.2,0.2-0.5,0.3-0.8,0.3c-0.2,0-0.6-0.1-1.3-0.2c-0.4,0-0.9,0-1.4,0
			c0,0.6,0,1.1,0,1.7h0c0.5,0,1.2,0,1.9,0.1c0.2,0,0.5-0.1,0.8-0.2c0.4,0,0.6,0.2,0.6,0.7c0,0,0,0.1,0,0.2c-0.1,0.2-0.1,0.6-0.1,1.1
			c0,0.7-0.1,1.4-0.1,2.2c0,0.5,0,1.1,0.1,2c0,0.5-0.2,0.7-0.6,0.7c-0.9-0.1-1.7-0.2-2.5-0.2l0,1.6h3.4c0.2,0,0.4,0.1,0.4,0.3
			c0,0.3-0.1,0.6-0.3,0.8c-0.2,0.2-0.5,0.3-0.8,0.3c-0.2,0-0.7-0.1-1.4-0.2c-0.4,0-0.8-0.1-1.3-0.1l0,1.8c0,0.9-0.3,1.4-0.8,1.4
			c-0.4,0-0.6-0.5-0.6-1.4c0-0.6,0-1.2,0-1.8c-1.4,0-2.4,0.1-3,0.2c-0.4,0.1-0.6,0.2-0.7,0.2c-0.5,0-0.7-0.2-0.8-0.6
			c0-0.2,0.2-0.5,0.4-0.6c0.2-0.1,0.5-0.2,0.8-0.2h3.3c0-0.5,0-1.1,0-1.6c-0.9,0-1.5,0-1.8,0c-0.3,0-0.6,0.1-1,0.1
			c-0.4,0-0.7-0.2-0.7-0.7c0.1-1.1,0.2-2,0.2-2.8c0-0.8-0.1-1.7-0.2-2.8c0-0.4,0.2-0.6,0.7-0.6c0.2,0,0.4,0,0.7,0.1
			c0.2,0.1,0.6,0.1,1,0.1h1.1c0-0.5,0-1.1,0-1.7c-1.2,0-2.2,0.1-2.7,0.2c-0.4,0.1-0.6,0.2-0.7,0.2c-0.4,0-0.7-0.3-0.7-0.7
			c0-0.2,0.1-0.4,0.4-0.6C93.5,92.1,93.8,92.1,94.2,92.1z M97.2,100.3c0-0.6,0-1.2,0-1.7c-0.7,0-1.3,0.1-1.8,0.1c-0.1,0-0.1,0-0.2,0
			c0,0.5-0.1,0.9-0.1,1.3c0,0.3,0.2,0.4,0.6,0.4C96.1,100.4,96.6,100.3,97.2,100.3z M95.3,97.6c0.1,0,0.1,0,0.2,0h1.7
			c0-0.6,0-1.2,0-1.7c-0.4,0-0.9,0-1.4,0c-0.3,0-0.5,0.2-0.5,0.5C95.3,96.8,95.3,97.2,95.3,97.6z M98.4,95.9l0,1.7h1.8
			c0,0,0.1,0,0.1,0v-1.3c0-0.2-0.1-0.3-0.2-0.3C99.7,96,99.1,95.9,98.4,95.9z M98.5,98.6l0,1.8c0.5,0,1,0,1.5,0.1
			c0.3,0,0.4-0.1,0.4-0.3v-1.6C99.7,98.5,99,98.6,98.5,98.6z M104.7,101h2.3l0-1.3c0-0.5,0.3-0.7,0.8-0.7c0.6,0,0.8,0.2,0.8,0.7
			l0,1.3h3.2c0.2,0,0.3,0.1,0.3,0.3c0,0.3-0.1,0.5-0.2,0.7c-0.2,0.2-0.5,0.3-0.8,0.3c-0.2,0-0.6,0-1.2-0.1c-0.4,0-0.9,0-1.3,0
			l-0.1,2.4c0.7,0,1.4,0.1,2.3,0.2c0.8,0.1,1.6,0.1,2.3,0.1c0.4,0,0.7,0,1-0.1c0.1,0,0.1,0.1,0.1,0.3c0,0.4-0.1,0.8-0.3,1.2
			c-0.2,0.4-0.5,0.7-0.7,0.7c-0.2,0-0.4-0.1-0.6-0.2c-0.9-0.5-1.7-0.8-2.4-0.9c-0.6-0.1-1.3-0.2-2.2-0.2c-1,0-1.9,0.1-2.6,0.2
			c-0.8,0.2-1.5,0.5-2.3,0.9c-0.2,0.1-0.4,0.2-0.6,0.2c-0.4,0-0.6-0.3-0.7-0.7c0-0.2,0.1-0.5,0.3-0.7c0.2-0.2,0.4-0.3,0.7-0.4
			c1.9-0.4,3.4-0.6,4.4-0.6l-0.1-2.4c-1,0-1.7,0.1-2.2,0.2c-0.3,0.1-0.6,0.2-0.6,0.2c-0.5,0-0.7-0.2-0.7-0.6c0-0.2,0.1-0.5,0.4-0.6
			C104.1,101,104.3,101,104.7,101z M105.4,91.4h4.9c0.1,0,0.2,0,0.4-0.1c0.2-0.1,0.3-0.1,0.3-0.1c0.4,0,0.6,0.3,0.6,0.7
			c0,0.2-0.1,0.3-0.3,0.6c-0.3,0.3-0.6,0.7-0.9,1.2c-0.5,0.9-1.1,1.7-1.6,2.3c1.5,0.8,2.5,1.3,3,1.4c0.5,0.1,1.1,0.2,1.8,0.3
			c0.3,0,0.5,0.1,0.5,0.4c0,0.3-0.2,0.6-0.7,0.9c-0.5,0.3-1,0.5-1.5,0.5c-0.4,0-0.7-0.1-1-0.4c-0.9-0.7-1.8-1.4-2.8-2.1
			c-0.1,0.1-0.2,0.2-0.2,0.2c-0.9,0.8-1.7,1.4-2.5,1.8c-0.8,0.4-1.5,0.6-1.8,0.6c-0.3,0-0.6-0.2-0.8-0.4c-0.3-0.2-0.4-0.4-0.4-0.6
			c0-0.2,0.1-0.4,0.4-0.4c1.9-0.6,3.3-1.2,4.1-1.9c0,0,0.1-0.1,0.1-0.1c-0.2-0.1-0.3-0.2-0.5-0.3c-0.7-0.4-1.3-0.8-1.9-1
			c-0.3-0.1-0.4-0.2-0.4-0.4c0-0.4,0.2-0.6,0.6-0.6c0.2,0,0.6,0.2,1.1,0.5c0.7,0.4,1.3,0.7,1.9,1c0.5-0.5,1-1.2,1.6-2.1
			c0.2-0.3,0.3-0.6,0.3-0.7c0-0.1-0.1-0.2-0.3-0.2c-1.1,0-2.2,0.1-3.3,0.2c-0.7,0.1-1.2,0.2-1.4,0.2c-0.3,0-0.5-0.2-0.5-0.6
			c0-0.2,0.1-0.4,0.4-0.6C104.8,91.5,105.1,91.4,105.4,91.4z"/>
		<path class="st0" d="M124.6,101.7c-0.2,0.8-0.5,1.6-0.9,2.5c-0.6,1.3-1.1,1.9-1.5,1.9c-0.5,0-0.9-0.6-1.3-1.9
			c-0.3-1.1-0.5-2.7-0.5-4.8c0-0.8,0.1-2,0.4-3.6c0.3-1.7,0.6-2.8,0.9-3.4c0.2-0.4,0.5-0.6,0.9-0.6c0.5,0,0.8,0.2,0.8,0.7
			c0,0.1-0.1,0.5-0.4,1c-0.4,0.8-0.6,1.7-0.9,2.8c-0.3,1.1-0.4,2.1-0.4,2.8c0,3.1,0.2,4.7,0.7,4.7c0.2,0,0.7-0.8,1.5-2.3
			c0.1-0.2,0.2-0.3,0.3-0.3C124.4,101.4,124.5,101.5,124.6,101.7z M136.6,102.5c0,0.1-0.2,0.5-0.5,1.2c-0.3,0.6-0.6,0.9-1,1.1
			c-0.5,0.2-1.6,0.3-3.4,0.3c-1.4,0-2.6-0.2-3.6-0.6c-1.4-0.6-2.1-1.5-2.1-2.7c0-1.3,0.3-2,0.9-2c0.1,0,0.2,0.1,0.2,0.3
			c-0.2,0.6-0.2,1-0.2,1.2c0,1.4,1.1,2.1,3.3,2.1c0.9,0,2-0.1,3.2-0.3c0.7-0.1,1.3-0.3,1.9-0.5c0.5-0.2,0.8-0.3,1-0.3
			C136.5,102.1,136.6,102.3,136.6,102.5z M134.5,93.8c0,0.2-0.6,0.8-1.8,1.6c-1.2,0.8-1.9,1.2-2.1,1.2c-0.3,0-0.4-0.1-0.4-0.3
			c0-0.1,0.3-0.5,0.8-1c0.5-0.4,0.8-0.8,1.1-0.9c-0.1,0-0.2,0-0.3,0c-1,0-2.1,0.1-3.3,0.3c-1.3,0.2-1.9,0.4-1.8,0.4
			c-0.3,0-0.4-0.2-0.4-0.5c0-0.5,0.2-0.8,0.6-1c0.2,0,0.6-0.1,1.3-0.2c1.6-0.2,3.5-0.2,5.6-0.2C134.3,93.1,134.5,93.4,134.5,93.8z"
			/>
		<path class="st0" d="M157.8,103.2c-0.2,1.3-0.8,2.1-1.8,2.4c-0.4,0.1-1.4,0.2-3.2,0.2c-2.1,0-3.8-0.2-5.2-0.6
			c-2.3-0.6-3.4-1.7-3.4-3.2c0-0.4,0.1-0.9,0.3-1.4c0.3-0.6,0.6-0.9,1.1-0.9c0.1,0,0.2,0.1,0.3,0.3c-0.1,0.1-0.2,0.4-0.5,0.9
			c-0.2,0.3-0.3,0.7-0.3,1c0,1.3,1.5,2,4.6,2c2.4,0,4.3-0.2,5.8-0.6c1.3-0.3,2-0.5,2-0.5C157.7,102.9,157.8,103,157.8,103.2z
			 M154.7,94.4c0,0.3-0.3,0.5-0.9,0.8c-2.5,1.2-3.9,1.8-4.1,1.8c-0.2,0-0.3-0.1-0.3-0.3c0-0.3,0.4-0.6,1.2-1.1
			c0.8-0.5,1.2-0.8,1.3-0.9c-0.1,0-0.3-0.1-0.8-0.1c-1.5,0-2.7,0-3.4,0.1c-0.1,0-0.4,0.1-0.8,0.2c-0.3,0-0.6,0.1-0.8,0.1
			c-0.5,0-0.7-0.2-0.7-0.5c0-0.6,0.3-0.9,0.8-1.1c0.6-0.2,1.5-0.2,2.7-0.2h1.6C153.2,93.1,154.6,93.6,154.7,94.4z M159.2,93.2
			c0,0.1-0.1,0.4-0.4,0.7c-0.3,0.3-0.5,0.5-0.6,0.5c-0.3,0-0.8-0.3-1.4-1c-0.7-0.7-1-1.1-1-1.3c0-0.2,0.1-0.3,0.2-0.3
			c0.6,0.2,1.6,0.6,3,1.1C159.1,93,159.2,93.1,159.2,93.2z M162.8,91.9c0,0.1-0.1,0.4-0.4,0.7c-0.3,0.3-0.5,0.5-0.6,0.5
			c-0.3,0-0.8-0.3-1.5-1c-0.7-0.7-1-1.1-1-1.4c0-0.2,0.1-0.3,0.2-0.3c0.4,0.2,0.9,0.4,1.4,0.6c0.4,0.2,0.9,0.3,1.5,0.5
			C162.6,91.6,162.8,91.7,162.8,91.9z"/>
		<path class="st0" d="M167.7,93.9h3c0-0.8,0-1.7-0.1-2.6c0-0.6,0.2-0.9,0.7-0.9c0.5,0,0.8,0.3,0.8,0.9c0,0.9-0.1,1.8-0.1,2.6h3.1
			c0.2,0,0.3,0.1,0.4,0.3c0,0.3-0.1,0.6-0.3,0.8c-0.2,0.2-0.5,0.3-0.8,0.3c-0.2,0-0.6-0.1-1.2-0.2c-0.4,0-0.7-0.1-1.1-0.1
			c0,0.3,0,0.6,0,0.9l0,1.9c0.1,0,0.2,0,0.3,0c0.1,0,0.6,0.3,1.6,1c0.9,0.7,1.4,1.2,1.4,1.5c0,0.4-0.2,0.6-0.6,0.6
			c-0.1,0-0.2-0.1-0.4-0.2c-1-0.8-1.7-1.3-2.2-1.5l0.1,6.6c0,1-0.3,1.5-0.9,1.5c-0.4,0-0.6-0.5-0.6-1.5c0-2.4,0.1-4.6,0.1-6.4
			c-0.4,0.5-0.8,1-1.2,1.4c-0.6,0.6-1.2,1.1-2,1.5c-0.2,0.1-0.3,0.1-0.4,0.1c-0.4,0-0.8-0.2-1.2-0.7c-0.4-0.4-0.6-0.7-0.6-0.9
			c0-0.2,0.3-0.4,0.7-0.4c0.5-0.1,0.9-0.1,1.2-0.2c0.7-0.2,1.3-0.5,1.9-1c0.6-0.5,1.1-1.1,1.5-1.7c0,0,0.1-0.1,0.1-0.1
			c0-0.5,0-1,0-1.4c0-0.3,0-0.6,0-0.9c-1.3,0-2.2,0.1-2.8,0.3c-0.4,0.1-0.6,0.2-0.7,0.2c-0.5,0-0.8-0.3-0.8-0.7
			c0-0.2,0.2-0.4,0.4-0.6C167,93.9,167.3,93.9,167.7,93.9z M177.5,92.8c0.2,0,0.5,0,0.7,0.1c0.2,0.1,0.6,0.1,1,0.1h2.4
			c0.6,0,1.2,0,2,0.1c0.2,0,0.5-0.1,0.8-0.2c0.4,0,0.7,0.3,0.7,0.8c0,0,0,0.2,0,0.4c-0.1,0.4-0.1,1.1-0.2,2.2c0,1.4-0.1,2.9-0.1,4.4
			c0,1.2,0,2.8,0.1,4.8c0,0.6-0.2,0.8-0.6,0.8c-1.2-0.2-2.2-0.3-3.1-0.3c-1.3,0-2.2,0-2.5,0.1c-0.3,0-0.7,0.1-1.1,0.2
			c-0.4,0-0.6-0.2-0.6-0.6c0.1-2.2,0.2-4.1,0.2-5.7c0-1.8-0.1-3.9-0.2-6.5C176.8,93,177,92.8,177.5,92.8z M181.2,104.9
			c0.6,0,1.3,0,2.1,0.1c0.2,0,0.4-0.1,0.4-0.4v-2.7c0,0-0.1,0-0.1,0c-2.2,0-3.8,0.1-5.1,0.2c0,0-0.1,0-0.1,0c0,0.8-0.1,1.6-0.1,2.4
			c0,0.3,0.2,0.5,0.6,0.5C179.5,105,180.3,104.9,181.2,104.9z M178.3,100.9c0.1,0,0.2,0,0.3,0h4.9c0,0,0.1,0,0.1,0V98
			c0,0-0.1,0-0.1,0c-2.2,0-3.8,0.1-5.1,0.2h0C178.4,99.1,178.4,100,178.3,100.9z M178.4,97c0.1,0,0.1,0,0.2,0h4.9c0,0,0.1,0,0.1,0
			v-2.4c0-0.2-0.1-0.3-0.2-0.3c-1-0.1-2.5-0.1-4.5-0.1c-0.3,0-0.5,0.2-0.5,0.5C178.4,95.4,178.4,96.2,178.4,97z"/>
		<path class="st0" d="M191.9,93.7h6.8c0.2,0,0.3,0.1,0.3,0.3c0,0.3-0.1,0.5-0.3,0.7c-0.2,0.2-0.4,0.3-0.8,0.3c-0.2,0-0.5,0-1.2-0.1
			c-0.6,0-1.3,0-2,0c-1.3,0-2.2,0.1-2.7,0.2c-0.3,0.1-0.5,0.2-0.6,0.2c-0.5,0-0.7-0.2-0.8-0.6c0-0.2,0.2-0.4,0.4-0.6
			C191.2,93.7,191.5,93.7,191.9,93.7z M192.5,101.6c0.2,0,0.5,0,0.7,0.1c0.2,0.1,0.6,0.1,1,0.1h1.3c0.3,0,0.7,0,1.1,0.1
			c0.2,0,0.5-0.1,0.9-0.2c0.4,0,0.6,0.2,0.6,0.7c0,0,0,0.1,0,0.1c-0.1,0.1-0.1,0.4-0.2,0.7c0,0.4-0.1,0.9-0.1,1.5
			c0,0.3,0,0.7,0.1,1.2c0,0.5-0.2,0.7-0.6,0.7c-0.8-0.1-1.5-0.2-2.2-0.2c-1,0-1.6,0-1.8,0c-0.2,0-0.5,0.1-0.8,0.1
			c-0.4,0-0.6-0.2-0.6-0.7c0.1-0.7,0.2-1.4,0.2-1.9c0-0.5-0.1-1.1-0.2-1.8C191.9,101.9,192.1,101.6,192.5,101.6z M193.1,90.9h4.6
			c0.2,0,0.3,0.1,0.3,0.2c0,0.3-0.1,0.5-0.3,0.7c-0.2,0.2-0.4,0.3-0.8,0.3c-0.1,0-0.3,0-0.7-0.1c-0.4,0-0.8,0-1.2,0
			c-0.9,0-1.5,0.1-1.9,0.2c-0.2,0.1-0.4,0.1-0.4,0.1c-0.4,0-0.6-0.2-0.6-0.6c0-0.2,0.1-0.4,0.4-0.6
			C192.5,90.9,192.8,90.9,193.1,90.9z M193,96.4h4.2c0.4,0,0.6,0.2,0.6,0.6c0,0.3-0.2,0.5-0.6,0.5c-1.9,0-3.4,0.1-4.4,0.2
			c-0.5,0-0.7-0.2-0.7-0.6C192.1,96.6,192.4,96.4,193,96.4z M193,98.8h4.2c0.4,0,0.6,0.2,0.6,0.6c0,0.3-0.2,0.5-0.6,0.5
			c-1.9,0-3.4,0.1-4.4,0.2c-0.5,0-0.7-0.2-0.7-0.6C192.1,99,192.4,98.8,193,98.8z M195.2,105.4c0.3,0,0.7,0,1.1,0.1
			c0.2,0,0.4-0.1,0.4-0.3v-2c0-0.2-0.1-0.3-0.2-0.3c-0.6-0.1-1.4-0.1-2.5-0.1c-0.3,0-0.5,0.2-0.5,0.5c0,0.6-0.1,1.2-0.2,1.8
			c0,0.3,0.2,0.4,0.6,0.4C194.2,105.4,194.7,105.4,195.2,105.4z M204.9,98c0.6,0,0.8,0.2,0.8,0.7c-0.1,0.6-0.2,1.2-0.2,1.9
			c0,0.4-0.1,0.9-0.1,1.3c0.2,0,0.4,0.2,0.8,0.5c2.3,1.7,3.7,2.6,4.3,2.8c0.4,0.1,0.8,0.2,1.3,0.2c0.3,0,0.5,0.1,0.5,0.4
			c0,0.3-0.2,0.6-0.7,0.9c-0.5,0.3-1,0.5-1.5,0.5c-0.4,0-0.7-0.1-1-0.4c-0.8-1-1.7-2-2.8-3.1c-0.4-0.4-0.8-0.7-1.1-0.9
			c-0.1,0.2-0.1,0.4-0.2,0.6c-0.5,1-1.1,1.7-1.8,2.3c-0.9,0.8-1.7,1.2-2.5,1.2c-0.3,0-0.5-0.1-0.7-0.4c-0.4-0.4-0.6-0.7-0.6-1.1
			c0-0.2,0.1-0.3,0.4-0.3c0.8-0.1,1.5-0.3,2-0.6c0.8-0.3,1.5-1,2.1-2.1c0.4-0.8,0.6-1.8,0.6-3v-1C204.3,98.2,204.5,98,204.9,98z
			 M204.8,90.6c0.5,0,0.8,0.2,0.8,0.6c-0.1,0.5-0.2,1-0.2,1.6c0,0.4-0.1,0.8-0.2,1.2c0.2,0,0.4,0.1,0.7,0.3c2.2,1.2,3.5,1.8,4,2
			c0.4,0.1,0.8,0.1,1.2,0.2c0.3,0,0.4,0.1,0.4,0.4c0,0.3-0.2,0.6-0.7,0.9c-0.5,0.3-0.9,0.4-1.4,0.4c-0.3,0-0.6-0.1-0.9-0.4
			c-0.8-0.8-1.6-1.6-2.6-2.4c-0.3-0.3-0.6-0.5-0.9-0.6c0,0.1-0.1,0.2-0.1,0.3c-0.4,0.8-1,1.5-1.6,1.9c-0.8,0.7-1.6,1-2.3,1
			c-0.3,0-0.5-0.1-0.7-0.3c-0.4-0.3-0.5-0.7-0.5-1c0-0.1,0.1-0.2,0.4-0.2c0.8-0.1,1.4-0.2,1.9-0.5c0.8-0.2,1.4-0.8,1.9-1.7
			c0.4-0.7,0.5-1.5,0.5-2.4c-0.1-0.4-0.1-0.7-0.1-1C204.2,90.7,204.4,90.6,204.8,90.6z M199.9,100.2c0.4,0.1,0.7,0.1,0.8,0.1
			c0.5,0,1.1-0.2,1.8-0.5c0.1,0,0.2,0.1,0.2,0.3c0,0.2-0.2,0.6-0.7,1.1c-0.5,0.6-0.9,0.9-1.2,0.9c-0.3,0-0.5-0.1-0.7-0.4
			c-0.2-0.3-0.4-0.7-0.4-1.1C199.7,100.4,199.8,100.2,199.9,100.2z M200.1,92.1c0.4,0.1,0.6,0.1,0.8,0.1c0.4,0,1-0.1,1.6-0.4
			c0.1,0,0.2,0.1,0.2,0.3c0,0.2-0.2,0.5-0.6,1.1c-0.4,0.5-0.8,0.8-1.1,0.8c-0.3,0-0.5-0.1-0.7-0.4c-0.2-0.3-0.4-0.7-0.4-1.1
			C199.9,92.2,200,92.1,200.1,92.1z M207.3,91.8C207.4,91.8,207.4,91.8,207.3,91.8c0.7,0.3,1.2,0.4,1.5,0.5c0.3,0.1,0.6,0.1,1,0.1
			c0.1,0,0.2,0.1,0.2,0.3c0,0.2-0.1,0.5-0.4,0.7c-0.5,0.3-1,0.5-1.2,0.5c-0.1,0-0.2,0-0.2-0.1c-0.1-0.1-0.5-0.7-1-1.6
			c0-0.1,0-0.1,0-0.2C207.1,91.9,207.2,91.8,207.3,91.8z M207.6,99.9C207.6,99.9,207.7,99.9,207.6,99.9c0.7,0.3,1.2,0.5,1.6,0.6
			c0.2,0.1,0.6,0.1,1,0.1c0.1,0,0.2,0.1,0.2,0.3c0,0.2-0.2,0.5-0.5,0.7c-0.5,0.3-0.9,0.5-1.2,0.5c-0.1,0-0.2,0-0.2-0.1
			c-0.1-0.2-0.5-0.7-1-1.6c0-0.1,0-0.2,0-0.2C207.4,100,207.5,99.9,207.6,99.9z"/>
		<path class="st0" d="M229.5,105c0,0.3-0.4,0.7-1.1,1.2c-0.7,0.5-1.2,0.7-1.5,0.7c-0.2,0-0.5-0.3-1-1c-0.8-1.1-1.8-2.2-3-3.2
			c-1.2-1-2.6-2-4.2-3c-0.5-0.3-0.8-0.5-0.8-0.8c0-0.2,0.4-0.7,1.3-1.3c1-0.7,2-1.7,2.9-2.8c0.5-0.6,1.3-1.7,2.4-3.3
			c0.3-0.4,0.6-0.6,1-0.6c0.6,0,0.9,0.3,0.9,0.9c0,0.4-0.8,1.5-2.5,3.1c-1.3,1.3-2.4,2.2-3.3,2.9c-0.3,0.2-0.7,0.6-1.3,1
			c2.8,1.6,4.9,3,6.3,4.1c0.7,0.5,1.2,0.9,1.5,1.1c0.6,0.4,1.2,0.6,1.7,0.8C229.1,104.8,229.3,104.9,229.5,105z"/>
		<path class="st0" d="M249.2,94.1c0,0.2-0.1,0.4-0.3,0.7s-0.3,0.5-0.5,0.5c-1.1-0.2-2-0.3-2.8-0.3c-0.1,0-0.3,0-0.5,0
			c-0.2,0-0.4,0-0.5,0c-0.4,1.7-0.8,3.3-1.4,4.7c-1.6,4.1-2.9,6.1-3.8,6.1c-0.3,0-0.6-0.1-1-0.2c-0.5-0.2-0.7-0.4-0.7-0.6
			c0-0.1,0.3-0.5,1-1.2c1.1-1.1,2.1-2.5,3-4.1c0.9-1.6,1.5-3.2,1.8-4.6c-1.5,0.1-2.9,0.3-4.1,0.7c-0.4-0.1-0.6-0.2-0.6-0.6
			s0.1-0.5,0.2-0.7c0.1-0.2,0.9-0.3,2.2-0.5c0.8-0.1,1.6-0.2,2.4-0.2c0.1-0.6,0.2-1.4,0.2-2.1c0-0.6,0.3-0.9,0.7-0.9
			c0.4,0,0.7,0.2,0.7,0.6c0,0.2-0.1,1-0.4,2.3c2.1-0.1,3.4-0.2,3.7-0.2S249.2,93.8,249.2,94.1z M255.6,103.7c0,0.4-0.1,0.8-0.4,1.4
			c-0.3,0.5-0.8,0.9-1.5,1.1c-0.4,0.1-1,0.1-1.9,0.1c-4.1,0-6.1-1-6.1-3c0-0.3,0.1-0.6,0.2-0.9c0.1-0.4,0.3-0.6,0.6-0.6
			c0.3,0,0.4,0.1,0.4,0.4c0,0.1,0,0.3-0.1,0.5c0,0.2-0.1,0.4-0.1,0.5c0,0.9,0.8,1.4,2.3,1.4c2.4,0,4.4-0.4,5.8-1.1
			c0.4-0.2,0.6-0.3,0.6-0.3C255.5,103.2,255.6,103.4,255.6,103.7z M253.4,97.4c-0.1,0.2-0.6,0.7-1.5,1.4c-0.9,0.7-1.6,1.1-1.9,1.2
			c-0.1,0-0.2-0.1-0.2-0.3c0-0.2,0.2-0.5,0.6-0.9c0.3-0.2,0.6-0.5,0.8-0.8c-0.1,0-0.3,0-0.6,0c-1.1,0-2,0.1-2.7,0.2
			c-0.9,0.2-1.3,0.3-1.3,0.3c-0.3,0-0.5-0.1-0.5-0.4c0-0.3,0.1-0.5,0.3-0.7c0.4-0.4,1.9-0.6,4.6-0.6h0.9
			C252.8,96.8,253.3,97,253.4,97.4z M254.4,93.2c0,0.1-0.1,0.4-0.4,0.7c-0.3,0.3-0.5,0.5-0.6,0.5c-0.3,0-0.8-0.3-1.4-1
			c-0.7-0.7-1-1.1-1-1.3c0-0.2,0.1-0.3,0.2-0.3c0.6,0.2,1.6,0.6,3,1.1C254.3,93,254.4,93.1,254.4,93.2z M257.4,91.9
			c0,0.2-0.2,0.4-0.5,0.7c-0.3,0.3-0.5,0.5-0.6,0.5c-0.3,0-0.7-0.3-1.4-1c-0.6-0.7-0.9-1.1-0.9-1.4c0-0.2,0.1-0.3,0.2-0.3
			c0,0,0.5,0.2,1.3,0.6c0.4,0.2,0.8,0.3,1.5,0.5C257.2,91.6,257.4,91.7,257.4,91.9z"/>
		<path class="st0" d="M278.2,94.2c0,0.3-0.2,0.8-0.6,1.3c-0.4,0.6-0.8,0.9-1,0.9c-0.1,0-0.5-0.1-1.1-0.4c-0.8-0.3-2.4-0.6-4.6-0.7
			c0.7,1.9,1.6,3.5,2.8,4.7c0.2,0.2,0.4,0.4,0.6,0.7c-0.1,0.4-0.3,0.7-0.6,0.9c-0.1,0-0.6-0.2-1.2-0.5c-0.7-0.3-1.2-0.5-1.4-0.6
			c-0.7-0.2-1.4-0.3-2.3-0.3c-2.7,0-4,0.7-4,2.2c0,0.8,0.4,1.4,1.3,1.8c0.6,0.3,1.4,0.4,2.3,0.4c2,0,3.6-0.3,4.8-0.8
			c0.6-0.3,1-0.4,1.1-0.4c0.2,0,0.3,0.1,0.3,0.3c0,0.3-0.1,0.7-0.4,1.3c-0.4,0.9-1.8,1.3-4.1,1.3c-1.6,0-3-0.2-4.2-0.6
			c-1.6-0.6-2.4-1.6-2.4-3c0-1.3,0.6-2.2,1.9-2.8c1-0.5,2.2-0.7,3.6-0.7c1,0,2,0.2,3.1,0.5c-1-1.3-1.8-2.8-2.4-4.4
			c-2.3,0.1-4.3,0.4-6,0.9c-0.6,0.2-1,0.2-1.2,0.2c-0.4,0-0.6-0.3-0.6-0.9c0-0.6,0.5-0.9,1.5-1c1.3-0.1,3.2-0.2,5.8-0.5
			c-0.5-1.2-0.7-2-0.7-2.4c0-0.5,0.3-0.8,0.9-0.8c0.3,0,0.6,0.4,0.8,1.3c0.1,0.6,0.3,1.3,0.4,1.9c1.9,0,3.9,0,6,0c0.1,0,0.4,0,0.6,0
			c0.3,0,0.6,0,0.7,0C278.1,93.9,278.2,94,278.2,94.2z"/>
		<path class="st0" d="M293.4,101.2c0,0.5-0.5,1.4-1.6,2.7c-1.1,1.3-2,2-2.6,2c-0.6,0-1.2-0.4-1.9-1.1c-1.2-1.4-1.8-3.9-1.8-7.6
			c0-1.9,0.1-3,0.3-3.5c0.2-0.3,0.4-0.5,0.8-0.5c0.5,0,0.8,0.2,0.8,0.7c0,0-0.1,0.5-0.2,1.3c-0.2,1.4-0.3,2.7-0.3,3.9
			c0,1.5,0.3,2.7,0.8,3.6c0.5,0.8,1,1.2,1.5,1.2c0.5,0,1.2-0.5,2.3-1.5c1-1,1.6-1.5,1.7-1.5C293.3,100.8,293.4,100.9,293.4,101.2z
			 M302.4,100.5c0,0.3-0.3,0.7-0.8,1.2c-0.5,0.4-0.9,0.6-1.2,0.6c-0.5,0-1.3-0.8-2.3-2.4c-1-1.6-1.6-2.8-1.6-3.3
			c0-0.2,0.1-0.3,0.3-0.3c0.2,0,0.5,0.3,1,1c0.5,0.7,1.2,1.3,1.9,1.8c0.7,0.6,1.4,1,1.9,1.1c0.2,0,0.3,0.1,0.4,0.1
			C302.3,100.3,302.4,100.4,302.4,100.5z"/>
		<path class="st0" d="M314.3,104.9c0,0.8-0.3,1.5-0.8,2c-0.5,0.5-1.2,0.8-2,0.8c-0.8,0-1.5-0.3-2-0.8c-0.6-0.6-0.8-1.2-0.8-2
			s0.3-1.5,0.8-2c0.6-0.6,1.2-0.9,2-0.9c0.8,0,1.5,0.3,2,0.9C314,103.4,314.3,104.1,314.3,104.9z M313.4,104.9c0-0.5-0.2-1-0.6-1.4
			c-0.4-0.4-0.8-0.6-1.4-0.6c-0.5,0-1,0.2-1.4,0.6c-0.4,0.4-0.6,0.9-0.6,1.4s0.2,1,0.6,1.4c0.4,0.4,0.9,0.6,1.4,0.6
			c0.5,0,1-0.2,1.4-0.6C313.2,105.9,313.4,105.5,313.4,104.9z"/>
	</g>
</g>
</svg>
