<?xml version="1.0" encoding="utf-8"?>
<!-- Generator: Adobe Illustrator 24.0.3, SVG Export Plug-In . SVG Version: 6.00 Build 0)  -->
<svg version="1.1" id="レイヤー_1" xmlns="http://www.w3.org/2000/svg" xmlns:xlink="http://www.w3.org/1999/xlink" x="0px"
	 y="0px" viewBox="0 0 638.8 47.8" style="enable-background:new 0 0 638.8 47.8;" xml:space="preserve">
<style type="text/css">
	.st0{fill:#503819;}
</style>
<g>
	<g>
		<path class="st0" d="M74.9,1.9c0.4,0,0.6,0.2,0.6,0.5c0,0.2-0.1,0.4-0.2,0.6c-0.3,0.6-0.6,1.2-1,1.7h3.9l0-3
			c0-0.6,0.3-0.8,0.8-0.8c0.6,0,0.9,0.3,0.9,0.8l0,3h5.6c0.2,0,0.4,0.1,0.4,0.3c0,0.3-0.1,0.6-0.3,0.8c-0.2,0.2-0.5,0.3-0.8,0.3
			c-0.3,0-0.9-0.1-2-0.2c-0.9,0-1.8-0.1-2.8-0.1l0,3.5h4.8c0.2,0,0.4,0.1,0.4,0.3c0,0.3-0.1,0.6-0.3,0.8c-0.2,0.2-0.5,0.3-0.8,0.3
			c-0.3,0-0.9-0.1-1.8-0.2c-0.7,0-1.4-0.1-2.2-0.1l-0.1,3.8c1.3,0,2.8,0.2,4.3,0.4c1.5,0.2,2.9,0.3,4.2,0.3c0.4,0,0.8,0,1.1-0.1
			c0.1,0,0.1,0.1,0.1,0.3c0,0.4-0.1,0.9-0.3,1.3c-0.3,0.5-0.5,0.7-0.8,0.7c-0.4,0-0.8-0.1-1.2-0.3c-1.6-0.6-3.1-1-4.4-1.2
			c-1.1-0.1-2.3-0.2-3.9-0.2c-1.8,0-3.3,0.1-4.6,0.3c-1.4,0.3-2.8,0.7-4.1,1.2c-0.4,0.2-0.7,0.2-1,0.2c-0.5,0-0.7-0.3-0.7-0.8
			c0-0.3,0.1-0.5,0.4-0.7c0.2-0.2,0.5-0.3,0.8-0.4c4-0.6,6.9-1,8.7-1l-0.1-3.8c-1.6,0-2.8,0.1-3.6,0.3c-0.5,0.1-0.8,0.2-0.9,0.2
			c-0.5,0-0.8-0.3-0.8-0.8c0-0.2,0.2-0.4,0.4-0.6c0.2-0.1,0.5-0.2,0.9-0.2h4.1l0-3.5c-1.6,0-2.8,0.1-3.6,0.2c-0.5,0.1-0.9,0.2-1,0.2
			c-0.2,0-0.3,0-0.4-0.1c-0.3,0.4-0.6,0.7-0.8,1.1C71.9,7.7,71.6,8,71.3,8c-0.3,0-0.7-0.1-1.1-0.4c-0.4-0.3-0.5-0.6-0.5-0.9
			c0-0.2,0.2-0.4,0.5-0.4C71,6,71.7,5.5,72.4,4.8c0.8-0.7,1.4-1.6,2.1-2.8C74.6,1.9,74.8,1.9,74.9,1.9z"/>
		<path class="st0" d="M94.4,2.1c0.6,0,0.9,0.2,0.9,0.7c0,0.6-0.1,1.2-0.2,2.1c0,0.2,0.1,0.3,0.4,0.3C96.1,5,96.9,5,97.8,5
			c0-1.1,0-2.4-0.1-3.7c0-0.6,0.2-0.9,0.7-0.9s0.7,0.3,0.7,0.9c0,1.4-0.1,2.6-0.1,3.8c0.5,0,1.1,0,1.9,0.1c0.2,0,0.3,0.1,0.3,0.4
			c0,0.3-0.1,0.5-0.3,0.6c-0.2,0.1-0.4,0.1-0.6,0.1c-0.5,0-0.9-0.1-1.2-0.1l0,3.3c0.7-0.2,1.3-0.3,1.8-0.4c0.3,0,0.4,0.1,0.4,0.4
			c0,0.4-0.2,0.6-0.5,0.6c-0.6,0.2-1.1,0.4-1.7,0.6l0,5.1c0,1-0.3,1.5-0.8,1.5c-0.4,0-0.6-0.5-0.6-1.5c0-1.7,0-3.2,0-4.6
			c-1.3,0.5-2.5,1.1-3.6,1.7c-0.5,0-0.7-0.2-0.7-0.6c0-0.4,0.1-0.6,0.2-0.8c0.1-0.2,0.3-0.4,0.6-0.5c1.4-0.4,2.6-0.8,3.6-1.1
			c0-1.4,0-2.6,0-3.7c-0.8,0-1.5,0.1-2.3,0.2c-0.5,0-0.9,0.1-1.2,0.3c-0.2,0.1-0.3,0.1-0.3,0.1c-0.4,0-0.6-0.2-0.6-0.5
			c0-0.1,0.1-0.4,0.4-0.7c0.1-0.4,0.2-0.8,0.2-1.2c0-0.2,0-0.5,0-0.9c-0.1-0.4-0.1-0.7-0.1-0.8C93.8,2.3,94,2.1,94.4,2.1z
			 M105.9,0.8c0.4,0,0.6,0.2,0.6,0.5c0,0.2-0.1,0.4-0.2,0.6c-0.3,0.6-0.6,1.2-0.9,1.8c0.6,0,1.4,0,2.5,0h4.6c0.1,0,0.4-0.1,0.8-0.2
			c0.6,0,0.8,0.3,0.8,0.8c-0.4,2.1-0.6,4.1-0.7,6.2c-0.2,2.8-0.6,4.7-1.4,5.6c-0.6,0.8-1.4,1.2-2.3,1.2c-0.4,0-0.8-0.2-1-0.5
			c-0.2-0.3-0.3-0.6-0.3-0.9c0-0.3,0.1-0.4,0.4-0.5c1.3-0.1,2.1-0.5,2.4-1.1c0.4-0.6,0.8-2.5,1.1-5.6c0.1-1.9,0.2-3.1,0.2-3.5
			c0-0.2-0.1-0.4-0.3-0.4h-1.6c0,0,0,0.1,0,0.1l0,0.2c-0.1,0.5-0.3,1.4-0.6,2.5c-0.5,1.9-1.2,3.6-2.1,5.1c-0.5,1-1.1,1.8-1.8,2.5
			c-0.9,0.8-1.5,1.2-1.8,1.2c-0.3,0-0.6-0.2-1-0.6c-0.3-0.3-0.5-0.6-0.5-0.8c0-0.2,0.2-0.3,0.6-0.4c0.7-0.2,1.5-0.7,2.2-1.5
			c0.8-0.7,1.7-2,2.5-3.8c0.6-1.4,1-2.9,1.1-4.4c0,0,0-0.1,0-0.1h-0.5c-0.4,0-0.8,0-1.2,0l0,0.1c-0.1,0.4-0.3,0.9-0.5,1.7
			c-0.4,1.3-1,2.4-1.7,3.5c-0.4,0.7-0.9,1.2-1.5,1.7c-0.7,0.5-1.2,0.8-1.5,0.8c-0.3,0-0.6-0.2-0.9-0.5c-0.3-0.3-0.4-0.6-0.4-0.8
			c0-0.2,0.2-0.3,0.6-0.4c0.6-0.1,1.2-0.4,1.8-1c0.7-0.4,1.3-1.2,2-2.4c0.4-0.9,0.8-1.7,0.9-2.6c-0.2,0-0.4,0-0.6,0.1
			c-0.6,0.1-0.9,0.2-1.1,0.2c-0.1,0-0.2,0-0.2,0c-0.1,0.2-0.3,0.4-0.4,0.6c-0.3,0.4-0.6,0.7-0.8,0.7c-0.3,0-0.6-0.1-1-0.4
			s-0.5-0.5-0.5-0.8c0-0.2,0.2-0.2,0.5-0.3c0.7-0.3,1.3-0.7,1.8-1.3c0.6-0.6,1.1-1.4,1.7-2.5C105.8,0.8,105.9,0.8,105.9,0.8z"/>
		<path class="st0" d="M133.4,6.3c0.4,0,0.6,0.2,0.6,0.6c0,0.2-0.1,0.3-0.3,0.5c0,0-0.1,0.1-0.1,0.1c0.8,0.6,1.5,1.2,2.3,1.8
			c0.2,0,0.5,0.1,0.6,0.3c0.2,0.2,0.4,0.4,0.4,0.7c0,0.3-0.4,0.6-1.1,1c-3.7,2.4-7.2,4.2-10.5,5.3c-1.3,0.5-2.8,0.8-4.4,0.8
			c-0.4,0-0.7-0.1-1-0.4c-0.6-0.6-0.8-1.1-0.8-1.7c0-0.4,0.1-0.6,0.4-0.6c0.2,0,0.4,0.1,0.6,0.2c0.4,0.2,0.8,0.2,1.4,0.2
			c1.8,0,3.4-0.2,4.7-0.5c1-0.3,2-0.6,3.1-1.1c-0.6-0.6-1-1-1.3-1.1c-0.3-0.1-0.4-0.3-0.4-0.5c0-0.5,0.3-0.8,0.8-0.8
			c0,0,0.4,0.3,0.9,0.8c0.5,0.5,0.8,0.9,0.8,1.1c0.9-0.4,1.8-0.8,2.7-1.3c1.5-0.8,2.3-1.3,2.3-1.5c0-0.1-0.1-0.3-0.4-0.5
			c-0.7-0.4-1.3-0.8-1.9-1.2c-0.1-0.1-0.3-0.2-0.3-0.4c-2.2,1.3-4.1,2.3-5.9,3c-1.5,0.6-2.6,0.9-3.3,0.9c-0.4,0-0.7-0.1-1-0.4
			c-0.3-0.2-0.4-0.5-0.4-0.8c0-0.2,0.1-0.3,0.3-0.4c2.7-0.5,4.7-1,6.1-1.6c1.3-0.4,2.8-1.2,4.7-2.4C133,6.4,133.2,6.3,133.4,6.3z
			 M131.2,0.3c0.4,0,0.5,0.2,0.6,0.6c0,0.1,0,0.2-0.1,0.3c0.6,0.5,1.2,1,1.8,1.6c0.2,0,0.4,0.1,0.5,0.3c0.2,0.2,0.3,0.4,0.3,0.6
			c0,0.2-0.3,0.5-0.9,0.7c-2.8,1.8-5.4,3.1-7.9,3.9c-1,0.4-2.1,0.6-3.3,0.6c-0.2,0-0.5-0.1-0.7-0.4c-0.4-0.5-0.6-1-0.6-1.4
			c0-0.3,0.1-0.5,0.3-0.5c0.2,0,0.3,0.1,0.5,0.2c0.3,0.1,0.8,0.2,1.3,0.2c1.3,0,2.3-0.1,3.2-0.4c0.4-0.1,0.8-0.2,1.1-0.4
			c-0.5-0.5-0.9-0.8-1.2-1c-0.3-0.1-0.4-0.3-0.4-0.5c0-0.5,0.3-0.8,0.8-0.8c0.1,0,0.4,0.3,0.9,0.8c0.5,0.5,0.7,0.8,0.8,1.1
			c0.8-0.3,1.7-0.7,2.5-1.2c1-0.5,1.5-0.9,1.5-1.1c0-0.1-0.1-0.3-0.3-0.4c-0.4-0.4-0.9-0.8-1.3-1.1c-0.1-0.1-0.2-0.2-0.2-0.3
			c-1.8,0.9-3.4,1.5-4.9,2c-1.2,0.4-2.1,0.6-2.7,0.6c-0.4,0-0.7-0.1-0.9-0.4c-0.3-0.2-0.4-0.5-0.4-0.8c0-0.2,0.1-0.3,0.3-0.4
			c2.2-0.3,3.9-0.6,5-1c1-0.3,2.3-0.8,3.8-1.5C130.9,0.4,131,0.3,131.2,0.3z"/>
		<path class="st0" d="M144.2,3.9h2.8c0-0.8-0.1-1.7-0.1-2.5c0-0.6,0.2-0.9,0.7-0.9c0.5,0,0.8,0.3,0.8,0.9c0,0.9-0.1,1.7-0.1,2.5
			h2.6c0.2,0,0.3,0.1,0.3,0.3c0,0.3-0.1,0.5-0.3,0.7c-0.2,0.2-0.5,0.3-0.8,0.3c-0.2,0-0.5,0-1.1-0.1c-0.2,0-0.5,0-0.7,0
			c0,0.3,0,0.7,0,1l0,1.2c0,0,0.1,0,0.2,0c0,0,0.4,0.3,1,0.8c0.6,0.5,0.9,0.9,0.9,1.1c0,0.4-0.2,0.6-0.7,0.6c0,0-0.1,0-0.3-0.1
			c-0.5-0.4-0.9-0.8-1.2-0.9l0.1,7.5c0,1-0.3,1.5-0.9,1.5c-0.4,0-0.6-0.5-0.6-1.5c0-2.8,0-5.1,0-7.1c-0.4,0.5-0.7,1-1.1,1.4
			c-0.5,0.6-1,1-1.7,1.4c-0.1,0.1-0.2,0.1-0.3,0.1c-0.4,0-0.7-0.2-1.1-0.6c-0.3-0.3-0.5-0.6-0.5-0.9c0-0.2,0.2-0.3,0.6-0.3
			c0.4-0.1,0.8-0.1,1-0.2c0.5-0.2,1-0.5,1.5-0.9c0.5-0.5,0.9-1,1.2-1.6c0.1-0.1,0.2-0.2,0.3-0.2c0-0.4,0-0.7,0-1c0-0.3,0-0.7,0-1
			c-1.2,0-2.1,0.1-2.7,0.2c-0.3,0.1-0.5,0.2-0.6,0.2c-0.4,0-0.7-0.2-0.7-0.6c0-0.2,0.1-0.4,0.4-0.6C143.6,3.9,143.9,3.9,144.2,3.9z
			 M154.8,0.5c0.4,0.1,0.6,0.3,0.7,0.6c0.2,0.9,0.3,1.5,0.3,1.7c0,0,0,0.1,0,0.1h3.4c0-0.1,0.2-0.8,0.6-2c0.1-0.3,0.3-0.4,0.7-0.4
			c0.5,0,0.8,0.3,0.8,0.7c0,0.1-0.1,0.3-0.2,0.4c-0.4,0.5-0.7,0.9-1,1.2c0,0-0.1,0.1-0.1,0.1h2.6c0.2,0,0.3,0.1,0.4,0.3
			c0,0.3-0.1,0.6-0.3,0.8c-0.2,0.2-0.5,0.3-0.9,0.3c-0.2,0-0.8-0.1-1.6-0.2c-0.7,0-1.4-0.1-2.1-0.1c0,0.1,0,0.2,0,0.4
			c0,0.4,0,0.8,0,1.1h3.4c0.2,0,0.3,0.1,0.3,0.2c0,0.3-0.1,0.5-0.3,0.7c-0.2,0.2-0.5,0.3-0.8,0.3c-0.2,0-0.6,0-1.3-0.1
			c-0.4,0-0.9,0-1.4,0c0,0.5,0,1,0,1.5c0.9,0,2.1,0.1,3.6,0.1c0.3,0,0.6,0,0.9,0c0.2,0,0.5,0,1-0.1c0.4-0.1,0.6-0.2,0.7-0.2
			c0.2,0,0.3,0.1,0.3,0.2c0,0.4-0.2,0.8-0.6,1.3c-0.4,0.5-0.7,0.7-1.1,0.7c-0.2,0-0.6-0.1-1.2-0.3c-1-0.3-2.2-0.5-3.6-0.6l0.1,6.6
			c0,1-0.3,1.5-0.8,1.5c-0.4,0-0.6-0.5-0.6-1.5c0-2.7,0-4.9,0-6.6c-1.9,0-3.2,0.1-4,0.4c-0.4,0.1-0.7,0.2-1,0.2
			c-0.4,0-0.6-0.2-0.6-0.6c0-0.2,0.1-0.5,0.3-0.7c0.2-0.2,0.4-0.3,0.6-0.3c0.2,0,0.3,0,0.5,0.1c1.6-0.2,3-0.3,4.2-0.3
			c0-0.5,0-1,0-1.5c-1.1,0-1.9,0.1-2.4,0.1c-0.4,0.1-0.6,0.1-0.7,0.1c-0.4,0-0.6-0.2-0.7-0.6c0-0.2,0.1-0.4,0.4-0.6
			c0.2-0.1,0.4-0.2,0.8-0.2h2.6c0-0.4,0-0.7,0-1.1c0-0.1,0-0.3,0-0.4c-1.4,0-2.4,0.1-3,0.2c-0.4,0.1-0.7,0.2-0.9,0.2
			c-0.4,0-0.7-0.2-0.7-0.6c0-0.2,0.1-0.5,0.4-0.6c0.2-0.1,0.5-0.2,0.8-0.2h1.7c0,0-0.1-0.1-0.1-0.1c-0.2-0.4-0.4-0.7-0.6-1.1
			C154,1.5,154,1.3,154,1.1C154,0.7,154.2,0.5,154.8,0.5z M155,14c0.3,0,0.4,0.1,0.4,0.4c0,0.2-0.1,0.4-0.2,0.6
			c-1.7,1.2-2.6,1.9-2.9,1.9c-0.6,0-0.9-0.2-0.9-0.6c0-0.5,0.1-0.8,0.4-0.9C151.7,15.2,152.8,14.8,155,14z M152.8,10.7
			c0.1,0,0.5,0.2,1.4,0.7c0.8,0.5,1.2,0.8,1.2,1.1c0,0.4-0.2,0.6-0.7,0.6c-0.1,0-0.2,0-0.4-0.1c-0.9-0.5-1.5-0.9-1.9-1
			c-0.4-0.1-0.6-0.3-0.6-0.4C151.9,11,152.2,10.7,152.8,10.7z M162,10.7c0.4,0,0.7,0.3,0.7,0.8c0,0.3-0.1,0.5-0.3,0.6
			c-1.6,0.7-2.5,1-2.5,1c-0.4,0-0.6-0.1-0.6-0.3c0-0.2,0.1-0.3,0.2-0.5l2.2-1.6C161.9,10.7,162,10.7,162,10.7z M159.6,14
			c0,0,0.1,0,0.1,0c0.8,0.5,1.5,0.9,2,1.1c0.3,0.1,0.8,0.2,1.3,0.2c0.2,0,0.3,0.1,0.3,0.3c0,0.3-0.2,0.5-0.5,0.7
			c-0.6,0.4-1.1,0.6-1.4,0.6c-0.2,0-0.3-0.1-0.4-0.2c-0.2-0.2-0.8-1-1.7-2.2c-0.1-0.1-0.1-0.2-0.1-0.3C159.3,14.1,159.4,14,159.6,14
			z"/>
		<path class="st0" d="M169.9,3.1c0.4,0,0.6,0.3,0.6,0.8c-0.1,0.7-0.1,1.3-0.1,1.8v3c0,0.9-0.2,1.4-0.7,1.4c-0.4,0-0.6-0.5-0.6-1.4
			c0.1-1.3,0.2-2.3,0.2-3c0-0.5,0-1.1-0.1-1.8C169.1,3.4,169.4,3.1,169.9,3.1z M172.7,0.3c0.5,0,0.7,0.3,0.7,0.9
			c-0.1,1.7-0.1,3.3-0.1,4.7l0.1,10c0,1-0.3,1.5-0.8,1.5c-0.4,0-0.6-0.5-0.6-1.5c0.1-4.3,0.1-7.6,0.1-10c0-1.4,0-2.9-0.1-4.7
			C172,0.6,172.2,0.3,172.7,0.3z M175.7,1.4c0.5,0,0.7,0.2,0.7,0.6l-1.4,3c-0.1,0.3-0.3,0.4-0.6,0.4c-0.2,0-0.4-0.2-0.4-0.5l0.9-3
			C175.1,1.6,175.3,1.4,175.7,1.4z M179.2,2.4c0.4,0,0.6,0.2,0.6,0.5c0,0.2-0.1,0.5-0.2,0.7c-0.2,0.5-0.4,1-0.7,1.5c0,0,0,0,0,0h3.1
			l0-3.6c0-0.6,0.2-0.8,0.7-0.8c0.6,0,0.9,0.3,0.9,0.8l0,3.6h4.5c0.2,0,0.4,0.1,0.4,0.3c0,0.3-0.1,0.6-0.3,0.8
			c-0.2,0.2-0.5,0.3-0.8,0.3c-0.2,0-0.8-0.1-1.6-0.2c-0.7,0-1.4-0.1-2.1-0.1l0,3.3h3.8c0.2,0,0.3,0.1,0.4,0.3c0,0.3-0.1,0.6-0.3,0.8
			c-0.2,0.2-0.5,0.3-0.9,0.3c-0.2,0-0.7-0.1-1.4-0.2c-0.5,0-1-0.1-1.6-0.1l0,3.6c0.8,0,1.6,0.1,2.5,0.2c1,0.1,1.9,0.1,2.8,0.1
			c0.4,0,0.8,0,1.1-0.1c0.1,0,0.1,0.1,0.1,0.3c0,0.4-0.1,0.9-0.4,1.3c-0.3,0.5-0.5,0.7-0.8,0.7s-0.5-0.1-0.8-0.3c-1.1-0.5-2-0.8-3-1
			c-0.7-0.1-1.6-0.2-2.6-0.2c-1.2,0-2.2,0.1-3.1,0.3c-0.9,0.2-1.8,0.6-2.7,1c-0.3,0.1-0.5,0.2-0.6,0.2c-0.4,0-0.6-0.3-0.6-0.7
			c0-0.3,0.1-0.5,0.3-0.7c0.2-0.2,0.5-0.3,0.8-0.4c2.5-0.4,4.4-0.7,5.6-0.7l-0.1-3.6c-1.3,0-2.2,0.1-2.8,0.2
			c-0.4,0.1-0.6,0.2-0.8,0.2c-0.4,0-0.7-0.2-0.7-0.6c0-0.2,0.1-0.4,0.4-0.6c0.2-0.1,0.5-0.2,0.8-0.2h3.1l0-3.3
			c-1.2,0-2.2,0.1-2.8,0.2c-0.4,0.1-0.7,0.2-0.8,0.2c-0.2,0-0.3,0-0.4-0.1c-0.2,0.3-0.4,0.6-0.6,0.8c-0.3,0.4-0.6,0.6-0.8,0.6
			c-0.3,0-0.7-0.1-1.1-0.4c-0.4-0.3-0.5-0.6-0.5-0.9c0-0.2,0.2-0.4,0.5-0.4c0.6-0.3,1.2-0.7,1.7-1.2c0.5-0.6,1-1.4,1.5-2.4
			C179,2.5,179.1,2.4,179.2,2.4z"/>
		<path class="st0" d="M211.7,7.5c0,1.2-0.5,2.1-1.6,2.9c-0.9,0.7-2,1-3.2,1c-0.8,0-1.4-0.2-1.8-0.6c-0.4-0.5-0.6-0.9-0.6-1.3
			c0-0.2,0-0.3,0.1-0.3c0.2,0,0.6,0.1,1.2,0.2c0.5,0.1,1,0.2,1.3,0.2c0.7,0,1.4-0.2,2.1-0.6c0.8-0.4,1.2-1,1.2-1.6
			c0-0.6-0.2-1.1-0.7-1.5c-0.4-0.3-1-0.5-1.6-0.5c-1.6,0-3.9,0.5-6.8,1.4c0.4,2.4,1,4.4,1.9,6c0.6,1.2,1.3,2.1,2,2.7
			c0.2,0.1,0.4,0.3,0.6,0.6c0,0.2-0.3,0.4-0.8,0.7c-0.5,0.2-0.9,0.3-1.2,0.3c-0.7,0-1.5-1.5-2.4-4.4c-0.6-2.1-1.1-3.9-1.3-5.5
			c-0.8,0.3-2.1,0.8-3.7,1.4L195,9.2c-0.5,0-0.8-0.3-0.8-0.9c0-0.4,0.8-0.9,2.5-1.4c0.3-0.1,1.4-0.4,3.2-0.9
			c-0.2-1.8-0.3-3.2-0.3-4.2c0-0.5,0.3-0.7,0.8-0.7c0.3,0,0.5,0.2,0.6,0.7c0,0.3,0,0.7,0,1.3c0,1,0.1,1.9,0.2,2.7
			c3-0.8,5.2-1.2,6.6-1.2c1.1,0,2,0.2,2.7,0.7C211.3,5.8,211.7,6.5,211.7,7.5z M206.9,1.2c0,0.3-0.4,0.8-1.1,1.6
			c-0.8,0.8-1.3,1.1-1.5,1.1c-0.3,0-0.6-0.2-1-0.6c-0.4-0.4-0.6-0.7-0.6-0.9c0-0.1,0.4-0.2,1.1-0.3c0.5,0,1.1-0.3,1.8-0.6
			c0.7-0.4,1-0.6,1-0.6C206.8,0.9,206.9,1,206.9,1.2z"/>
		<path class="st0" d="M227.8,6.1c1.3,0,2.8,0.1,4.5,0.2c1.3,0.1,2.5,0.1,3.4,0.1c0.5,0,1.1-0.1,1.8-0.3c0.1,0,0.2,0.2,0.2,0.5
			c0,0.5-0.2,1.1-0.6,1.6c-0.3,0.4-0.5,0.6-0.7,0.6c-0.4,0-0.9-0.1-1.5-0.4c-0.9-0.4-2-0.8-3.1-0.9c-1.2-0.2-2.6-0.3-4.1-0.3
			c-0.6,0-1.2,0-1.8,0c-0.4,0.6-0.8,1.3-1.3,2c-1.2,1.4-2.6,2.5-3.9,3.3c-0.9,0.5-1.7,0.8-2.3,0.8c-0.3,0-0.5-0.1-0.8-0.3
			c-0.4-0.3-0.5-0.7-0.5-1c0-0.2,0.2-0.4,0.7-0.5c1.8-0.2,3.4-1,4.9-2.2c0.7-0.6,1.3-1.3,1.8-2c-0.5,0-1,0.1-1.6,0.1
			c-0.9,0.1-2.4,0.5-4.2,1.3c-0.6,0-0.8-0.2-0.8-0.7c0-0.3,0.1-0.5,0.4-0.7c0.3-0.3,0.7-0.5,1.2-0.5c2.3-0.4,4.2-0.6,5.9-0.7
			c0.3-0.5,0.6-1.1,0.8-1.7c0-0.2,0.2-0.3,0.5-0.3c0.4,0,0.7,0.2,0.7,0.7c0,0-0.1,0.1-0.1,0.3c-0.1,0.3-0.3,0.6-0.5,1
			C227,6.1,227.4,6.1,227.8,6.1z M219.2,1.9h4.2l-0.1-0.7c0-0.4,0.2-0.6,0.7-0.6c0.5,0,0.7,0.2,0.7,0.7v0.6h5.2l0.1-0.6
			c0-0.6,0.2-0.8,0.7-0.8c0.5,0,0.7,0.2,0.7,0.7l-0.2,0.7h5.1c0.2,0,0.3,0.1,0.4,0.3c0,0.3-0.1,0.6-0.3,0.8
			c-0.2,0.2-0.5,0.3-0.9,0.3c-0.4,0-1.5-0.1-3.2-0.2c-0.5,0-0.9,0-1.4,0l-0.3,1c-0.1,0.3-0.3,0.4-0.6,0.4c-0.3,0-0.5-0.2-0.5-0.6
			l0.1-0.8c-1,0-2,0-3,0c-0.7,0-1.4,0-2.1,0v0.8c0,0.4-0.2,0.6-0.5,0.6c-0.3,0-0.5-0.2-0.6-0.6L223.6,3c-1.5,0-2.6,0.1-3.4,0.2
			c-0.8,0.1-1.3,0.2-1.5,0.2c-0.5,0-0.8-0.3-0.8-0.7c0-0.2,0.2-0.5,0.4-0.6C218.5,1.9,218.8,1.9,219.2,1.9z M224.7,10.5
			c0.2,0,0.5,0,0.7,0.1c0.2,0.1,0.6,0.1,1,0.1h3c0.7,0,1.5,0,2.4,0.1c0.2,0,0.5-0.1,0.8-0.2c0.4,0,0.7,0.2,0.7,0.7c0,0,0,0.1,0,0.2
			c-0.1,0.2-0.1,0.5-0.2,0.9c0,0.6-0.1,1.2-0.1,1.8c0,0.4,0,0.9,0.1,1.6c0,0.5-0.2,0.7-0.6,0.7c-1.5-0.1-2.9-0.2-4.1-0.2
			c-1.3,0-2.1,0-2.5,0.1c-0.3,0-0.6,0.1-1.1,0.1c-0.4,0-0.6-0.2-0.6-0.6c0.1-0.9,0.2-1.7,0.2-2.4c0-0.6-0.1-1.4-0.2-2.4
			C224,10.7,224.2,10.5,224.7,10.5z M228.3,15.3c0.9,0,2,0,3.1,0.1c0.2,0,0.4-0.1,0.4-0.3v-3c0-0.2-0.1-0.3-0.2-0.3
			c-1.2-0.1-3-0.1-5.4-0.1c-0.3,0-0.5,0.2-0.5,0.5c0,1-0.1,1.9-0.2,2.8c0,0.3,0.2,0.4,0.6,0.4C226.6,15.3,227.4,15.3,228.3,15.3z"/>
		<path class="st0" d="M248.5,2.5h3.3L251.8,1c0-0.5,0.3-0.7,0.8-0.7c0.6,0,0.8,0.2,0.8,0.7l-0.1,1.5h3.9c0.1,0,0.2,0,0.2,0.1
			c0.4-0.4,0.8-0.9,1.2-1.3c0.1-0.1,0.3-0.1,0.5-0.1c0.4,0,0.5,0.3,0.6,0.6c0,0.2-0.1,0.3-0.2,0.4c-1.2,1.3-2.3,2.4-3.3,3.3
			c0.4,0,0.9,0.1,1.3,0.1c1.4,0.1,2.6,0.2,3.7,0.2c0.5,0,1.2-0.1,1.9-0.3c0.1,0,0.2,0.2,0.2,0.5c0,0.5-0.2,1-0.6,1.6
			c-0.3,0.4-0.6,0.6-0.8,0.6c-0.4,0-1-0.1-1.6-0.4c-1-0.4-2.1-0.7-3.3-0.9c-0.6-0.1-1.3-0.1-1.9-0.2c-1,0.8-1.8,1.5-2.6,1.9
			c-0.3,0.2-0.6,0.4-0.8,0.5c0.2,0,0.4,0,0.6,0h2.5c0.6,0,1.3,0,2,0.1c0.2,0,0.5-0.1,0.9-0.2c0.4,0,0.6,0.3,0.6,0.8c0,0,0,0.1,0,0.2
			c-0.1,0.2-0.1,0.6-0.2,1.2c0,0.8-0.1,1.6-0.1,2.5c0,0.6,0,1.3,0.1,2.3c0,0.6-0.2,0.8-0.6,0.8c-1.2-0.2-2.4-0.3-3.4-0.3
			c-1.3,0-2.1,0-2.5,0.1c-0.3,0-0.7,0.1-1.1,0.2c-0.4,0-0.7-0.2-0.7-0.7c0.1-1.2,0.2-2.3,0.2-3.2c0-0.8,0-1.8-0.1-2.9
			c-1.4,0.7-2.9,1.3-4.5,1.8c-0.7,0.3-1.3,0.4-1.7,0.4c-0.5,0-0.9-0.2-1.2-0.5c-0.3-0.3-0.5-0.6-0.5-0.9c0-0.2,0.1-0.4,0.4-0.4
			c2.8-0.4,5-0.9,6.7-1.6c1.3-0.5,2.7-1.3,4-2.2c-0.2,0-0.3,0-0.5,0c-1.6,0-3.2,0.1-4.7,0.2c-0.9,0.1-2.3,0.5-4.1,1.1
			c-0.5,0-0.7-0.2-0.7-0.6c0-0.3,0.1-0.5,0.3-0.7c0.3-0.3,0.6-0.5,1.1-0.5c3.2-0.4,5.6-0.6,7.5-0.6l-0.1-1.8c-1.4,0-2.4,0.1-3,0.2
			C248.4,4,248.2,4,248,4c-0.5,0-0.7-0.2-0.7-0.6c0-0.2,0.1-0.4,0.4-0.6C247.9,2.6,248.2,2.5,248.5,2.5z M254,15.4
			c0.7,0,1.5,0,2.4,0.1c0.2,0,0.4-0.1,0.4-0.4v-1.9c-2.3,0-4.1,0.1-5.3,0.2c0,0-0.1,0-0.1,0c0,0.5,0,1.1-0.1,1.6
			c0,0.3,0.2,0.5,0.6,0.5C252.4,15.4,253.2,15.4,254,15.4z M251.4,12.2c0.1,0,0.1,0,0.2,0h5.2v-1.6c0-0.2-0.1-0.3-0.2-0.3
			c-1.1-0.1-2.7-0.1-4.7-0.1c-0.3,0-0.5,0.2-0.5,0.5C251.4,11.2,251.4,11.7,251.4,12.2z M254.5,5.5c0.6-0.5,1.2-1.1,1.9-1.7
			c-0.3,0-0.7,0-1.4-0.1c-0.5,0-1.1,0-1.7,0l-0.1,1.8C253.6,5.4,254,5.5,254.5,5.5z"/>
		<path class="st0" d="M277.9,0c0.6,0,0.8,0.3,0.8,0.9c-0.1,0.4-0.2,0.8-0.2,1.1c1.2,0,2.6,0.1,4.2,0.3c1.5,0.1,2.8,0.2,3.8,0.2
			c0.5,0,1.2-0.1,1.9-0.2c0.1,0,0.2,0.2,0.2,0.5c0,0.5-0.2,1-0.6,1.6c-0.3,0.4-0.6,0.6-0.8,0.6c-0.4,0-1-0.2-1.7-0.5
			c-1.1-0.5-2.2-0.8-3.5-1c-1.4-0.2-2.9-0.3-4.5-0.3c-0.2,0-0.4,0-0.6,0c0,0.1,0,0.2,0,0.3c0,0,0,0.1-0.1,0.2c-0.4,0.5-0.8,1-1,1.3
			c-0.2,0.2-0.5,0.5-0.8,0.8c0,0.1,0.1,0.2,0.4,0.2h5.4c0.2,0,0.4-0.1,0.4-0.3c0,0,0,0,0-0.1c-0.2-0.3-0.5-0.6-0.8-1
			c0,0-0.1-0.1-0.1-0.1c0-0.4,0.2-0.6,0.7-0.6c0.1,0,0.2,0,0.2,0.1c0.5,0.6,1.1,1.3,1.7,2.2c0.1,0.1,0.1,0.2,0.1,0.3
			c0,0.4-0.2,0.6-0.6,0.6h-6.9c-0.5,0-1,0-1.7,0.1c-0.6,0-0.8-0.2-0.8-0.6c0-0.2,0.1-0.4,0.3-0.6c0.2-0.2,0.4-0.3,0.6-0.5
			c0.3-0.2,0.5-0.5,0.8-0.8c0.3-0.4,0.6-0.8,0.9-1.3c-1,0-2,0.1-2.9,0.2c-1,0.1-2.4,0.5-4.3,1.3c-0.6,0-0.8-0.2-0.8-0.7
			c0-0.3,0.1-0.5,0.4-0.7c0.3-0.3,0.7-0.5,1.1-0.5c3.6-0.5,6.3-0.8,8.3-0.8c0-0.4-0.1-0.7-0.2-1.1C277,0.3,277.3,0,277.9,0z
			 M273.9,8c0.3,0,0.5,0.1,0.6,0.2l6.3,0.1c0.2,0,0.5-0.1,1-0.2c0.6,0,0.8,0.2,0.8,0.6c-0.3,1-0.4,2.3-0.4,3.8
			c0,0.9,0.1,2.3,0.2,4.1c0,0.6-0.2,0.9-0.7,0.9c-0.2,0-0.4-0.1-0.5-0.3c-0.1-0.3-0.1-0.7-0.1-1.2c0-0.5,0-1,0-1.4
			c-2.8,0-5,0.1-6.6,0.2c0,0-0.1,0-0.1,0c-0.2,0.5-0.4,1-0.7,1.3c-0.8,0.8-1.5,1.2-2.2,1.2c-0.4,0-0.8-0.2-1.2-0.7
			c-0.2-0.3-0.3-0.6-0.3-0.8c0-0.1,0.1-0.2,0.4-0.2c1-0.1,1.9-0.5,2.5-1.2c0.4-0.5,0.7-1.6,0.7-3.1c0-0.8-0.1-1.6-0.3-2.5
			C273.1,8.2,273.3,8,273.9,8z M274.6,13.6h6.5c0-0.6,0-1.2,0-1.7c-2.7,0-4.8,0.1-6.3,0.2c0,0-0.1,0-0.1,0
			C274.7,12.7,274.7,13.2,274.6,13.6z M274.7,11c0,0,0.1,0,0.1,0h6.2c0,0,0.1,0,0.1,0c0-0.6,0.1-1.1,0.1-1.5c0-0.1-0.2-0.2-0.6-0.2
			c-2.2,0-4.1,0-5.9,0.1C274.8,10,274.8,10.5,274.7,11z"/>
		<path class="st0" d="M296.7,3.6h7.1c-0.1-1.2-0.1-2-0.1-2.4c0-0.4,0.2-0.6,0.6-0.6c0.5,0,0.8,0.3,0.8,0.7v0.8c0,0.5,0,1,0,1.5h6.3
			c0.2,0,0.4,0.1,0.4,0.2c0,0.3-0.1,0.6-0.3,0.8c-0.2,0.2-0.5,0.4-0.8,0.4c-0.4,0-1.3-0.1-2.7-0.2c-0.9,0-1.8-0.1-2.8-0.1
			c0,0.8,0.1,1.5,0.2,2.1c0.2,1.4,0.6,2.7,1.2,3.7c0.2,0.4,0.4,0.8,0.7,1.2c0.8-1.2,1.4-2.6,1.9-4.3c0-0.2,0.2-0.3,0.6-0.3
			c0.4,0,0.6,0.2,0.6,0.7c0,0-0.1,0.1-0.1,0.3c-0.4,1.3-1.1,2.8-2,4.5c0,0-0.1,0.1-0.1,0.1c0.4,0.4,0.8,0.7,1.2,1
			c0.8,0.6,1.8,1,3,1.3c0.3,0,0.4,0.2,0.4,0.5c0,0.3-0.2,0.6-0.5,1c-0.4,0.4-0.7,0.6-1.1,0.6c-0.3,0-0.7-0.2-1.2-0.6
			c-1-0.7-1.9-1.5-2.8-2.5c-0.7,0.8-1.4,1.5-2.1,2.1c-0.8,0.6-1.4,0.9-1.8,0.9c-0.3,0-0.6-0.1-0.8-0.3c-0.4-0.4-0.6-0.7-0.6-1.1
			c0-0.2,0.3-0.4,0.8-0.5c1.3-0.2,2.6-0.9,3.7-2.1c-0.7-1.1-1.2-2.3-1.6-3.6c-0.4-1.1-0.6-2.7-0.8-4.7c-0.2,0-0.4,0-0.6,0
			c-2.6,0-4.5,0-5.7,0.1C297,4.9,296.7,5,296.4,5c0,0.1,0,0.3,0,0.4l0,2.7c0.3,0,0.9-0.1,1.7-0.1h2.5c0.1,0,0.4-0.1,0.8-0.2
			c0.6,0,0.8,0.3,0.8,0.8c-0.3,1-0.5,2.1-0.6,3.1c-0.1,1.4-0.5,2.4-1.1,2.8c-0.5,0.4-1.1,0.6-1.8,0.6c-0.4,0-0.7-0.2-1-0.5
			c-0.2-0.3-0.3-0.6-0.3-0.8c0-0.3,0.1-0.4,0.4-0.5c0.9,0,1.5-0.2,1.7-0.4c0.3-0.3,0.6-1,0.8-2.2c0.1-0.8,0.2-1.2,0.2-1.4
			c0-0.3-0.1-0.4-0.3-0.4H299c-0.7,0-1.4,0.1-2,0.2c-0.2,0.1-0.4,0.1-0.5,0.1c0,1-0.2,1.9-0.4,2.6c-0.4,1.1-0.9,2-1.6,2.9
			c-0.4,0.5-0.8,0.7-1.1,0.7c-0.4,0-0.9-0.2-1.4-0.7c-0.4-0.3-0.6-0.6-0.6-0.9c0-0.3,0.2-0.4,0.6-0.5c0.5-0.1,0.9-0.2,1.2-0.5
			c0.7-0.4,1.2-1.1,1.5-2.1c0.3-0.9,0.4-2,0.4-3.4c0-0.8-0.1-1.9-0.3-3.4c0-0.6,0.2-0.8,0.7-0.8c0.3,0,0.6,0.1,0.7,0.2
			C296.4,3.6,296.6,3.6,296.7,3.6z M309.6,0.6c0.4,0,0.6,0.2,0.6,0.6c0,0.3,0,0.5-0.1,0.7c-1.2,0.9-1.8,1.4-1.9,1.4
			c-0.3,0-0.5-0.1-0.5-0.4c0-0.1,0.3-0.7,1-1.9C309.1,0.7,309.3,0.6,309.6,0.6z"/>
		<path class="st0" d="M323.7,16.2c0,0.3-0.3,0.6-0.9,1c-0.6,0.4-1,0.6-1.3,0.6c-0.3,0-0.6-0.3-1-0.8c-0.8-1.2-1.7-2.3-2.4-3.1
			c-0.7-0.8-1-1.3-1-1.5c0-0.3,0.2-0.4,0.5-0.4c0.2,0,1.5,0.9,3.8,2.8c0.5,0.4,1.2,0.8,2.1,1.2C323.5,16,323.6,16.1,323.7,16.2z"/>
		<path class="st0" d="M333.4,5.4h2l0-3.9c0-0.6,0.2-0.8,0.7-0.8c0.6,0,0.9,0.3,0.9,0.8l-0.1,3.9h2.4c0.2,0,0.3,0.1,0.3,0.3
			c0,0.2-0.1,0.5-0.3,0.6c-0.2,0.2-0.5,0.3-0.8,0.3c-0.1,0-0.5,0-1-0.1c-0.2,0-0.5,0-0.7,0l-0.1,4.6c1.1-0.2,2-0.4,2.6-0.5
			c0.3,0,0.4,0.1,0.4,0.4c0,0.4-0.2,0.6-0.5,0.7c-2.3,0.6-4.4,1.3-6.3,2.1c-0.5,0-0.7-0.2-0.7-0.6c0-0.4,0.1-0.6,0.2-0.8
			c0.1-0.2,0.3-0.3,0.6-0.4c0.9-0.2,1.7-0.4,2.4-0.6l0-4.9c-0.9,0-1.5,0.1-1.9,0.2c-0.3,0.1-0.5,0.2-0.6,0.2c-0.4,0-0.7-0.2-0.7-0.6
			c0-0.2,0.1-0.4,0.4-0.6C332.7,5.5,333,5.4,333.4,5.4z M351.5,5c0.5,0,0.7,0.3,0.7,0.8c0,0.1-0.1,0.3-0.2,0.5
			c-0.3,0.7-0.8,1.9-1.5,3.8c-0.1,0.4-0.3,0.6-0.7,0.6c-0.4,0-0.6-0.2-0.6-0.5c0.1-0.7,0.5-1.8,1-3.4c0-0.1-0.1-0.2-0.4-0.2
			c-0.2,0-0.6,0-1.1,0.1c-0.6,0.1-1.2,0.2-1.7,0.3l0,3.7c0,0.9-0.2,1.4-0.7,1.4c-0.4,0-0.6-0.5-0.6-1.4c0-1.3,0-2.4,0-3.4
			c-0.9,0.2-1.7,0.4-2.4,0.6c0,1.7-0.1,3.7-0.1,5.8c0,0.4,0.2,0.6,0.6,0.7c0.8,0.1,2.7,0.1,5.9,0.1c1.5,0,2.8-0.2,4-0.6
			c0.2,0,0.3,0.2,0.3,0.5c0,0.4-0.1,0.9-0.4,1.4c-0.3,0.6-0.6,0.9-0.8,0.9c-0.4,0-3.6-0.3-9.6-0.9c-0.9-0.1-1.4-0.5-1.4-1.1
			c0.1-2.6,0.2-4.6,0.2-6c0-0.1,0-0.3,0-0.4c-0.5,0.2-1,0.4-1.6,0.6c-0.6,0-0.8-0.2-0.8-0.6c0-0.3,0.1-0.5,0.3-0.8
			c0.1-0.2,0.4-0.3,0.7-0.3c0.5-0.1,1-0.2,1.5-0.4c0-1,0-2.1-0.1-3.2c0-0.4,0.2-0.6,0.7-0.6c0.6,0,0.8,0.3,0.8,0.8
			c0,0.8,0,1.7,0,2.7c0.9-0.2,1.7-0.4,2.4-0.5c0-0.6,0-1.1,0-1.6c0-0.9,0-2-0.1-3.1c0-0.6,0.2-0.8,0.7-0.8c0.4,0,0.6,0.3,0.6,0.8
			c-0.1,1.2-0.1,2.2-0.1,3.1l0,1.4c1-0.2,1.9-0.3,2.7-0.4c0.5-0.1,0.8-0.2,1.1-0.3C351.1,5,351.3,5,351.5,5z"/>
		<path class="st0" d="M359.4,5.6h2l-0.1-3.3c0-0.6,0.2-0.8,0.7-0.8c0.6,0,0.9,0.3,0.9,0.8l0,3.3h2.2c0.2,0,0.3,0.1,0.3,0.3
			c0,0.3-0.1,0.5-0.3,0.7c-0.2,0.2-0.5,0.3-0.8,0.3c-0.1,0-0.4,0-1-0.1c-0.2,0-0.4,0-0.5,0l-0.1,4.2c0.9-0.3,1.6-0.4,2.1-0.5
			c0.2,0,0.3,0.1,0.3,0.4c0,0.3-0.1,0.5-0.4,0.6c-2,0.7-4,1.6-5.7,2.5c-0.5,0-0.7-0.2-0.7-0.6c0-0.3,0.1-0.6,0.2-0.7
			c0.1-0.2,0.2-0.4,0.5-0.5c0.9-0.3,1.7-0.5,2.4-0.8l-0.1-4.6c-0.9,0-1.6,0.1-2,0.2c-0.3,0.1-0.5,0.2-0.6,0.2
			c-0.4,0-0.7-0.2-0.7-0.6c0-0.2,0.1-0.4,0.4-0.6C358.7,5.7,359,5.6,359.4,5.6z M371.7,11.9c0.2,0,0.3,0.1,0.3,0.4
			c0,0.3-0.1,0.5-0.4,0.6c-2,0.6-3.9,1.3-5.6,2.1c-0.5,0-0.7-0.2-0.7-0.6c0-0.3,0.1-0.6,0.2-0.7c0.1-0.2,0.2-0.3,0.5-0.4
			C368.7,12.5,370.7,12.1,371.7,11.9z M366.8,3.6h6c0-0.9,0-1.8,0-2.6c0-0.4,0.2-0.6,0.6-0.6c0.4,0,0.6,0.2,0.6,0.6
			c0,0.9-0.1,1.8-0.1,2.6h4.5c0.2,0,0.4,0.1,0.4,0.3c0,0.3-0.1,0.6-0.3,0.8c-0.2,0.2-0.5,0.3-0.8,0.3c-0.3,0-1-0.1-2.1-0.2
			c-0.5,0-1.1,0-1.7,0c0,1.1,0.2,2.3,0.4,3.4c0.2,1.2,0.5,2.2,0.9,3.1c0.6-1,1.1-2.1,1.5-3.5c0-0.2,0.2-0.3,0.5-0.3
			c0.4,0,0.7,0.2,0.7,0.6c0,0-0.1,0.1-0.1,0.3c-0.4,1.2-1,2.5-1.8,4.1c0,0,0,0,0,0c0.1,0.2,0.2,0.4,0.3,0.5c0.8,1.2,1.8,1.9,3,2.3
			c0.2,0.1,0.4,0.3,0.4,0.5c0,0.2-0.2,0.5-0.6,0.8c-0.4,0.3-0.7,0.4-1,0.4c-0.3,0-0.6-0.1-1-0.4c-0.8-0.6-1.5-1.5-2.1-2.8
			c-0.6,0.7-1.2,1.3-1.9,1.8c-0.7,0.5-1.2,0.8-1.7,0.8c-0.3,0-0.5-0.1-0.8-0.3c-0.4-0.3-0.6-0.7-0.6-1c0-0.2,0.3-0.4,0.8-0.5
			c1.2-0.2,2.4-0.9,3.5-2c-0.1-0.2-0.1-0.3-0.2-0.5c-0.7-1.9-1-4-1.2-6.2c0-0.4,0-0.8,0-1.2c-0.3,0-0.6,0-0.9,0
			c-2.1,0-3.6,0.1-4.5,0.2c-0.5,0.1-0.9,0.2-1,0.2c-0.5,0-0.7-0.2-0.7-0.6c0-0.2,0.1-0.4,0.4-0.6C366.2,3.6,366.5,3.6,366.8,3.6z
			 M366.8,6.7c0.2,0,0.4,0,0.6,0s0.5,0,0.9,0h1c0.2,0,0.5,0,0.8,0.1c0.2,0,0.5,0,0.7-0.1c0.4,0,0.7,0.2,0.7,0.6c0,0,0,0,0,0.1
			c-0.1,0.1-0.1,0.3-0.2,0.6c0,0.4-0.1,0.8-0.1,1.3c0,0.2,0,0.5,0.1,1c0,0.4-0.2,0.6-0.6,0.6c-0.8-0.1-1.4-0.2-2-0.2
			c-0.8,0-1.2,0-1.4,0.1c-0.2,0-0.4,0.1-0.6,0.2c-0.4,0-0.6-0.2-0.6-0.6c0.1-0.7,0.2-1.2,0.2-1.7c0-0.4-0.1-0.9-0.2-1.5
			C366.2,6.9,366.4,6.7,366.8,6.7z M368.8,10c0.3,0,0.6,0,1,0.1c0.2,0,0.4-0.1,0.4-0.4V8.1c0-0.1-0.1-0.2-0.2-0.2
			c-0.4-0.1-1.1-0.1-2-0.1c-0.2,0-0.4,0.1-0.4,0.4c0,0.5-0.1,1-0.2,1.4c0,0.3,0.2,0.5,0.5,0.5C368.2,10,368.5,10,368.8,10z
			 M377.4,0.7c0.4,0,0.6,0.2,0.6,0.6c0,0.3,0,0.5-0.1,0.6c-1,0.7-1.6,1.1-1.7,1.1c-0.2,0-0.4-0.1-0.4-0.3c0-0.1,0.3-0.6,0.8-1.6
			C376.9,0.8,377.1,0.7,377.4,0.7z"/>
		<path class="st0" d="M388.5,7.7c0.2,0,0.4,0.1,0.4,0.3c0,0.3-0.1,0.5-0.3,0.6l-4.3,1.6c-0.6,0-0.8-0.2-0.8-0.7c0-0.6,0.2-1,0.6-1
			L388.5,7.7z M386,0.7c0.1,0,0.3,0.1,0.6,0.2c0.8,0.6,1.7,1.3,2.7,2c0.1,0.1,0.2,0.2,0.2,0.3c0,0.3-0.2,0.4-0.5,0.4
			c-0.1,0-0.2,0-0.5-0.1c-1.5-0.6-2.4-0.9-2.8-1.1c-0.4-0.3-0.7-0.6-0.7-1C385,0.9,385.3,0.7,386,0.7z M389,13.2
			c0.3,0,0.4,0.1,0.4,0.4c0,0.2-0.1,0.4-0.2,0.6c-1.6,1.8-2.5,2.6-2.7,2.6c-0.7,0-1-0.2-1-0.6c0-0.5,0.1-0.9,0.4-1
			C385.8,15.1,386.8,14.4,389,13.2z M401.2,0.9c0.3,0,0.5,0.1,0.5,0.4c0,0.3-0.1,0.5-0.4,0.6c-1.4,0.4-2.6,0.8-3.8,1.1l0,3.4
			c0.7,0,1.6,0,2.5,0.1c1,0,1.8,0.1,2.5,0.1c0.5,0,1-0.1,1.7-0.2c0.1,0,0.2,0.2,0.2,0.5c0,0.5-0.2,1-0.6,1.6
			c-0.3,0.4-0.5,0.6-0.7,0.6c-0.3,0-0.7-0.1-1.2-0.4c-0.7-0.4-1.5-0.6-2.4-0.8c-0.7-0.1-1.4-0.2-2.1-0.2l0,3.5h0
			c0.7,0,1.5,0,2.4,0.1c0.2,0,0.5-0.1,0.9-0.2c0.4,0,0.6,0.2,0.6,0.7c0,0,0,0.1,0,0.2c-0.1,0.2-0.1,0.5-0.2,0.9
			c0,0.6-0.1,1.2-0.1,1.8c0,0.4,0,0.9,0.1,1.6c0,0.5-0.2,0.8-0.6,0.8c-1.5-0.1-2.8-0.2-3.9-0.2c-1.4,0-2.2,0-2.6,0
			c-0.3,0-0.7,0.1-1.2,0.1c-0.4,0-0.6-0.2-0.6-0.7c0.1-0.9,0.2-1.7,0.2-2.4c0-0.6-0.1-1.4-0.2-2.4c0-0.4,0.2-0.6,0.6-0.6
			c0.2,0,0.5,0,0.7,0.1c0.2,0.1,0.6,0.1,1,0.1h1.6l0-3.5c-0.9,0-1.8,0.1-2.6,0.2c-0.6,0.1-1.5,0.4-2.7,1c-0.6,0-0.8-0.2-0.8-0.6
			c0-0.3,0.1-0.5,0.4-0.7c0.3-0.3,0.7-0.5,1.2-0.5c1.9-0.3,3.5-0.4,4.6-0.5l0-3c-0.4,0.1-0.8,0.2-1.2,0.2c-1.1,0.2-1.9,0.3-2.2,0.3
			c-0.4,0-0.8-0.2-1.2-0.5c-0.2-0.2-0.4-0.5-0.4-0.8c0-0.2,0.1-0.3,0.4-0.3c2.2,0,4.1-0.2,5.5-0.5c1.5-0.2,2.7-0.5,3.7-0.8
			C401,0.9,401.1,0.9,401.2,0.9z M396.7,15.5c0.9,0,1.8,0,2.9,0.1c0.2,0,0.4-0.1,0.4-0.3v-3c0-0.2-0.1-0.3-0.2-0.3
			c-1.2,0-3.1-0.1-5.4-0.1c-0.3,0-0.5,0.2-0.5,0.5c0,1-0.1,1.9-0.2,2.8c0,0.3,0.2,0.4,0.6,0.4C394.9,15.5,395.7,15.5,396.7,15.5z"/>
		<path class="st0" d="M410,3.1c0.4,0,0.6,0.3,0.6,0.8c-0.1,0.7-0.1,1.3-0.1,1.8v3c0,0.9-0.2,1.4-0.7,1.4c-0.4,0-0.6-0.5-0.6-1.4
			c0.1-1.3,0.2-2.3,0.2-3c0-0.5,0-1.1-0.1-1.8C409.2,3.4,409.5,3.1,410,3.1z M412.8,0.3c0.5,0,0.7,0.3,0.7,0.9
			c-0.1,1.7-0.1,3.3-0.1,4.7l0.1,10c0,1-0.3,1.5-0.8,1.5c-0.4,0-0.6-0.5-0.6-1.5c0.1-4.3,0.1-7.6,0.1-10c0-1.4,0-2.9-0.1-4.7
			C412,0.6,412.3,0.3,412.8,0.3z M415.8,1.4c0.5,0,0.7,0.2,0.7,0.6l-1.4,3c-0.1,0.3-0.3,0.4-0.6,0.4c-0.2,0-0.4-0.2-0.4-0.5l0.9-3
			C415.2,1.6,415.4,1.4,415.8,1.4z M419.2,2.4c0.4,0,0.6,0.2,0.6,0.5c0,0.2-0.1,0.5-0.2,0.7c-0.2,0.5-0.4,1-0.7,1.5c0,0,0,0,0,0h3.1
			l0-3.6c0-0.6,0.2-0.8,0.7-0.8c0.6,0,0.9,0.3,0.9,0.8l0,3.6h4.5c0.2,0,0.4,0.1,0.4,0.3c0,0.3-0.1,0.6-0.3,0.8
			c-0.2,0.2-0.5,0.3-0.8,0.3c-0.2,0-0.8-0.1-1.6-0.2c-0.7,0-1.4-0.1-2.1-0.1l0,3.3h3.8c0.2,0,0.3,0.1,0.4,0.3c0,0.3-0.1,0.6-0.3,0.8
			c-0.2,0.2-0.5,0.3-0.9,0.3c-0.2,0-0.7-0.1-1.4-0.2c-0.5,0-1-0.1-1.6-0.1l0,3.6c0.8,0,1.6,0.1,2.5,0.2c1,0.1,1.9,0.1,2.8,0.1
			c0.4,0,0.8,0,1.1-0.1c0.1,0,0.1,0.1,0.1,0.3c0,0.4-0.1,0.9-0.4,1.3c-0.3,0.5-0.5,0.7-0.8,0.7s-0.5-0.1-0.8-0.3c-1.1-0.5-2-0.8-3-1
			c-0.7-0.1-1.6-0.2-2.6-0.2c-1.2,0-2.2,0.1-3.1,0.3c-0.9,0.2-1.8,0.6-2.7,1c-0.3,0.1-0.5,0.2-0.6,0.2c-0.4,0-0.6-0.3-0.6-0.7
			c0-0.3,0.1-0.5,0.3-0.7c0.2-0.2,0.5-0.3,0.8-0.4c2.5-0.4,4.4-0.7,5.6-0.7l-0.1-3.6c-1.3,0-2.2,0.1-2.8,0.2
			c-0.4,0.1-0.6,0.2-0.8,0.2c-0.4,0-0.7-0.2-0.7-0.6c0-0.2,0.1-0.4,0.4-0.6c0.2-0.1,0.5-0.2,0.8-0.2h3.1l0-3.3
			c-1.2,0-2.2,0.1-2.8,0.2c-0.4,0.1-0.7,0.2-0.8,0.2c-0.2,0-0.3,0-0.4-0.1c-0.2,0.3-0.4,0.6-0.6,0.8C417.3,7.8,417,8,416.8,8
			c-0.3,0-0.7-0.1-1.1-0.4c-0.4-0.3-0.5-0.6-0.5-0.9c0-0.2,0.2-0.4,0.5-0.4c0.6-0.3,1.2-0.7,1.7-1.2c0.5-0.6,1-1.4,1.5-2.4
			C419,2.5,419.1,2.4,419.2,2.4z"/>
		<path class="st0" d="M441.3,0.6c0.4,0,0.6,0.2,0.6,0.5c0,0.2-0.1,0.4-0.2,0.7c-0.7,0.9-1.5,1.7-2.3,2.4c0.1,0.2,0.1,0.4,0.1,0.6
			c-0.1,1.3-0.1,2.5-0.1,3.6l0,7.4c0,1-0.3,1.5-0.9,1.5c-0.4,0-0.6-0.5-0.6-1.5c0.1-3.2,0.2-5.6,0.2-7.4c0-0.9,0-2,0-3.1
			c-0.3,0.2-0.5,0.4-0.8,0.6c-0.7,0.5-1.2,0.7-1.7,0.7c-0.3,0-0.7-0.2-1.1-0.5c-0.4-0.3-0.5-0.6-0.5-0.9c0-0.2,0.2-0.4,0.5-0.4
			c1.2-0.3,2.4-0.8,3.4-1.4c1.1-0.7,2.2-1.6,3.1-2.8C441.1,0.6,441.2,0.6,441.3,0.6z M451.1,5c0.6,0,0.9,0.3,0.9,0.9
			c0,0.3-0.2,0.5-0.6,0.7c-0.9,0.3-2.1,0.7-3.7,1.1c-1.1,0.3-1.8,0.5-2,0.5c0,0-0.1,0-0.1,0c0,1.6-0.1,3.4-0.1,5.3
			c0,0.4,0.2,0.6,0.5,0.6c0.6,0.1,2.2,0.1,4.7,0.1c1.6,0,3-0.2,4.3-0.6c0.2,0,0.3,0.2,0.3,0.5c0,0.4-0.2,0.9-0.5,1.5
			c-0.4,0.6-0.7,0.9-1,0.9c-0.4,0-3.2-0.3-8.5-0.9c-0.8-0.1-1.2-0.5-1.2-1.1c0.1-2.7,0.2-4.8,0.2-6.2c0-1.6,0-3.3-0.1-5.3
			c0-0.4,0.2-0.6,0.6-0.6c0.6,0,0.9,0.2,0.9,0.7c0,1.2,0,2.5,0,3.9c2.1-0.7,3.8-1.4,5-2C450.8,5,451,5,451.1,5z"/>
		<path class="st0" d="M463,0.2c0.4,0,0.6,0.2,0.6,0.5c0,0.2-0.1,0.4-0.2,0.6c-0.1,0.2-0.2,0.3-0.3,0.5h4.9c0.2,0,0.3,0.1,0.3,0.2
			c0,0.3-0.1,0.5-0.3,0.7c-0.2,0.2-0.4,0.3-0.8,0.3c-0.1,0-0.4,0-0.8-0.1c-0.3,0-0.7,0-1,0c0,0.2,0.1,0.5,0.1,1
			c0,0.4-0.1,0.6-0.4,0.6c-0.3,0-0.4-0.1-0.5-0.3c-0.3-0.7-0.5-1-0.5-1.2c0,0,0,0,0-0.1c-0.5,0-0.9,0.1-1.2,0.1
			c-0.3,0.1-0.4,0.1-0.5,0.1c-0.1,0-0.2,0-0.2,0c-0.4,0.6-0.8,1.1-1.3,1.6c-0.4,0.4-0.7,0.6-0.9,0.6c-0.3,0-0.7-0.2-1.1-0.5
			c-0.4-0.3-0.5-0.6-0.5-0.9c0-0.2,0.2-0.3,0.5-0.4c0.7-0.2,1.4-0.6,2-1.1c0.7-0.5,1.3-1.2,1.8-2.2C462.8,0.3,462.9,0.2,463,0.2z
			 M464.2,5.5h3.9l0-0.3c0-0.5,0.3-0.7,0.8-0.7c0.6,0,0.8,0.2,0.8,0.7l0,0.3h4.6c0.2,0,0.4,0.1,0.4,0.3c0,0.3-0.1,0.6-0.3,0.8
			c-0.2,0.2-0.5,0.3-0.8,0.3c-0.2,0-0.8-0.1-1.8-0.2c-0.7,0-1.4-0.1-2.1-0.1l-0.1,1.5c1.3,0,2.6,0.1,4.1,0.3c1.4,0.1,2.7,0.2,4,0.2
			c0.4,0,0.7,0,1.1-0.1c0.1,0,0.1,0.1,0.1,0.3c0,0.4-0.1,0.9-0.4,1.3c-0.3,0.5-0.5,0.7-0.8,0.7c-0.4,0-0.8-0.1-1.2-0.3
			c-1.5-0.6-2.9-0.9-4.2-1.1c-1-0.1-2.3-0.2-3.7-0.2c-1.7,0-3.1,0.1-4.3,0.3c-1.3,0.3-2.6,0.6-3.8,1c-0.4,0.1-0.7,0.2-0.9,0.2
			c-0.4,0-0.6-0.3-0.7-0.7c0-0.3,0.1-0.5,0.4-0.7c0.2-0.2,0.5-0.4,0.8-0.4c3.7-0.5,6.5-0.8,8.2-0.8l-0.1-1.5c-1.6,0-2.8,0.1-3.5,0.2
			C464.2,7,463.9,7,463.7,7c-0.5,0-0.7-0.2-0.8-0.6c0-0.2,0.2-0.4,0.4-0.6C463.6,5.6,463.8,5.5,464.2,5.5z M463.4,11.4h7.7
			c0-0.2,0-0.3,0-0.4c0-0.7,0.3-1,0.8-1c0.6,0,0.8,0.3,0.8,0.8c0,0.1,0,0.3-0.1,0.6h2.7c0.2,0,0.4,0.1,0.4,0.3
			c0,0.3-0.1,0.6-0.3,0.8c-0.2,0.2-0.5,0.3-0.8,0.3c-0.3,0-1-0.1-2.1-0.2c0,0.1,0,0.1,0,0.2c0.1,1.1,0.1,2,0.1,2.5
			c0,0.9-0.4,1.5-1.2,1.7c-0.5,0.1-1,0.2-1.5,0.2c-0.4,0-0.6-0.1-0.9-0.3c-0.3-0.3-0.4-0.6-0.4-0.9c0-0.2,0.1-0.3,0.4-0.4
			c0.8,0,1.4-0.1,1.7-0.2c0.3-0.1,0.5-0.2,0.6-0.3c0.1-0.2,0.1-0.5,0.1-0.9c0-0.6,0-1.2-0.1-1.8c-0.8,0-1.6,0-2.5,0
			c-2.1,0-3.7,0.1-4.6,0.2c-0.6,0.1-0.9,0.2-1.1,0.2c-0.4,0-0.7-0.3-0.7-0.7c0-0.2,0.1-0.4,0.4-0.6C462.7,11.4,463,11.4,463.4,11.4z
			 M467.3,13.7c0.2,0,0.3,0.1,0.3,0.4c0,0.1-0.1,0.3-0.2,0.5c-1.6,1.4-2.5,2.2-2.7,2.2c-0.6,0-0.8-0.2-0.8-0.5
			c0-0.5,0.1-0.8,0.4-0.9C464.2,15.2,465.2,14.6,467.3,13.7z M471.6,0.3c0.4,0,0.6,0.2,0.6,0.5c0,0.2-0.1,0.4-0.2,0.6
			c-0.1,0.2-0.1,0.3-0.2,0.5h4.4c0.8,0,1.6-0.2,2.6-0.5c0.2,0,0.3,0.1,0.3,0.4c0,0.4-0.1,0.7-0.3,1.1c-0.2,0.4-0.6,0.5-1,0.5
			c-1.5-0.2-2.7-0.4-3.5-0.4c0,0.3,0.1,0.6,0.1,1c0,0.4-0.1,0.6-0.4,0.6c-0.3,0-0.4-0.1-0.5-0.3C473.2,3.4,473,3,473,2.9
			c-0.5,0-1,0.1-1.6,0.2c-0.1,0-0.2,0-0.3,0c-0.2,0.3-0.4,0.6-0.6,0.8c-0.2,0.3-0.4,0.4-0.6,0.4c-0.3,0-0.6-0.1-1-0.4
			c-0.3-0.3-0.5-0.5-0.5-0.8c0-0.2,0.2-0.2,0.5-0.3c0.5-0.2,0.9-0.4,1.2-0.8c0.4-0.4,0.8-0.9,1.1-1.5C471.5,0.4,471.5,0.3,471.6,0.3
			z"/>
		<path class="st0" d="M489.4,11.7c-0.2,0.8-0.5,1.6-0.9,2.5c-0.6,1.3-1.1,1.9-1.5,1.9c-0.5,0-0.9-0.6-1.3-1.9
			c-0.3-1.1-0.5-2.7-0.5-4.8c0-0.8,0.1-2,0.4-3.6c0.3-1.7,0.6-2.8,0.9-3.4c0.2-0.4,0.5-0.6,0.9-0.6c0.5,0,0.8,0.2,0.8,0.7
			c0,0.1-0.1,0.5-0.4,1c-0.4,0.8-0.6,1.7-0.9,2.8c-0.3,1.1-0.4,2.1-0.4,2.8c0,3.1,0.2,4.7,0.7,4.7c0.2,0,0.7-0.8,1.5-2.3
			c0.1-0.2,0.2-0.3,0.3-0.3C489.3,11.4,489.4,11.5,489.4,11.7z M501.5,12.5c0,0.1-0.2,0.5-0.5,1.2c-0.3,0.6-0.6,0.9-1,1.1
			c-0.5,0.2-1.6,0.3-3.4,0.3c-1.4,0-2.6-0.2-3.6-0.6c-1.4-0.6-2.1-1.5-2.1-2.7c0-1.3,0.3-2,0.9-2c0.1,0,0.2,0.1,0.2,0.3
			c-0.2,0.6-0.2,1-0.2,1.2c0,1.4,1.1,2.1,3.3,2.1c0.9,0,2-0.1,3.2-0.3c0.7-0.1,1.3-0.3,1.9-0.5c0.5-0.2,0.8-0.3,1-0.3
			C501.3,12.1,501.4,12.3,501.5,12.5z M499.4,3.8c0,0.2-0.6,0.8-1.8,1.6c-1.2,0.8-1.9,1.2-2.1,1.2c-0.3,0-0.4-0.1-0.4-0.3
			c0-0.1,0.3-0.5,0.8-1c0.5-0.4,0.8-0.8,1.1-0.9c-0.1,0-0.2,0-0.3,0c-1,0-2.1,0.1-3.3,0.3C492,4.9,491.4,5,491.5,5
			c-0.3,0-0.4-0.2-0.4-0.5c0-0.5,0.2-0.8,0.6-1c0.2,0,0.6-0.1,1.3-0.2c1.6-0.2,3.5-0.2,5.6-0.2C499.1,3.1,499.4,3.4,499.4,3.8z"/>
		<path class="st0" d="M509.7,0.8l4.7,0.1c0.5-0.1,0.8-0.1,0.9-0.1c0.6,0,0.9,0.2,0.9,0.6c-0.2,0.7-0.3,1.4-0.4,2.2
			c0,0.4,0,1.3,0,2.5c0,0.4-0.2,0.7-0.6,0.7c-0.1,0-0.3,0-0.4-0.1c0,0-0.1,0-0.1,0c-2.1,0-3.7,0.1-4.9,0.2c0,0,0,0,0,0v2.5
			c0,1.5-0.1,2.7-0.2,3.8c-0.2,1-0.4,1.9-0.8,2.7c-0.4,0.7-0.6,1-0.9,1c-0.3,0-0.7-0.2-1.1-0.5c-0.4-0.4-0.7-0.6-0.7-0.8
			c0-0.2,0.1-0.3,0.4-0.4c0.6-0.4,1.1-1.2,1.4-2.2c0.4-1.1,0.5-3.3,0.5-6.6c0-1.6-0.1-3.3-0.3-5.1c0-0.4,0.2-0.6,0.7-0.6
			c0.3,0,0.5,0,0.6,0.1C509.6,0.8,509.7,0.8,509.7,0.8z M509.8,1.8c0,0.1,0,0.2,0,0.3v1.2c0,0,0.1,0,0.1,0h4.7h0c0-0.5,0-1,0.1-1.3
			c0-0.2-0.1-0.3-0.3-0.3C513.2,1.7,511.6,1.7,509.8,1.8z M509.8,5.8c0,0,0.1,0,0.1,0h4.7c0,0,0-0.1,0-0.1c0-0.5,0-1,0-1.5
			c-2,0-3.6,0.1-4.8,0.2c0,0,0,0,0,0V5.8z M515.6,7.8c0.3,0,0.5,0.2,0.6,0.5c0.1,0.6,0.1,0.9,0.1,1c0,0,0,0.1,0,0.1
			c0.9,0,1.7,0,2.4,0c0-0.2,0.1-0.6,0.2-1.2c0.1-0.2,0.3-0.4,0.6-0.4c0.4,0,0.7,0.2,0.7,0.6c0,0.1,0,0.2-0.1,0.3
			c-0.2,0.3-0.4,0.5-0.5,0.7c0.8,0,1.4,0,1.8-0.1c0.2,0,0.3,0.1,0.3,0.4c0,0.2-0.1,0.3-0.2,0.5c-0.2,0.2-0.4,0.3-0.7,0.3
			c-0.7-0.1-1.6-0.1-2.9-0.2c0,0.1,0,0.2,0,0.3c-0.1,0.4-0.1,0.8-0.2,1.3c0.8,0,1.8,0.1,3.1,0.1c0.3,0,0.5,0,0.7,0
			c0.2,0,0.5,0,0.9-0.1c0.4-0.1,0.6-0.1,0.7-0.1c0.1,0,0.2,0.1,0.2,0.2c0,0.4-0.2,0.7-0.5,1.2c-0.3,0.4-0.6,0.6-0.9,0.6
			c-0.2,0-0.5-0.1-1-0.3c-0.9-0.3-2-0.5-3.4-0.5c-0.1,0.5-0.2,0.9-0.4,1.3c-0.4,0.8-0.9,1.4-1.5,1.8c-0.8,0.6-1.4,0.9-2.1,0.9
			c-0.3,0-0.5-0.1-0.7-0.3c-0.3-0.3-0.5-0.7-0.5-1c0-0.1,0.1-0.2,0.4-0.2c0.7-0.1,1.3-0.2,1.7-0.4c0.7-0.2,1.3-0.8,1.8-1.6
			c0.1-0.2,0.2-0.4,0.3-0.6c-1.6,0-2.8,0.1-3.5,0.4c-0.4,0.1-0.7,0.2-0.9,0.2c-0.3,0-0.5-0.2-0.5-0.6c0-0.2,0.1-0.4,0.3-0.6
			c0.2-0.2,0.3-0.3,0.5-0.3c0.2,0,0.3,0,0.5,0.1c1.4-0.2,2.7-0.2,3.8-0.3c0-0.2,0-0.3,0-0.5c-0.1-0.4-0.1-0.7-0.1-1c0,0,0-0.1,0-0.1
			c-0.2,0-0.4,0-0.6,0c-0.6,0-1.3,0.1-2.4,0.3c-0.4,0-0.6-0.2-0.6-0.5c0-0.2,0.1-0.4,0.3-0.6c0.2-0.2,0.4-0.3,0.6-0.3l0.8,0.1
			c0.3,0,0.6,0,0.9,0c-0.2-0.3-0.3-0.5-0.5-0.7C515,8.5,515,8.4,515,8.3C515,8,515.2,7.8,515.6,7.8z M518.9,14.4c0,0,0.1,0,0.1,0
			c0.7,0.4,1.2,0.7,1.7,0.8c0.3,0.1,0.7,0.2,1.1,0.2c0.1,0,0.2,0.1,0.2,0.3c0,0.2-0.1,0.5-0.4,0.7c-0.5,0.4-1,0.5-1.2,0.5
			c-0.1,0-0.2-0.1-0.3-0.2c-0.2-0.2-0.6-0.8-1.3-1.9c0-0.1-0.1-0.2-0.1-0.2C518.7,14.5,518.8,14.4,518.9,14.4z M519.3,0.7
			c0.2,0,0.4,0,0.6,0.1l4.8,0.1c0.2,0,0.6-0.1,1.1-0.2c0.6,0,0.9,0.2,0.9,0.6c-0.3,1.9-0.5,4.2-0.5,6.9c0,1.9,0.1,4.7,0.3,8.2
			c0,0.6-0.3,0.9-0.8,0.9c-0.2,0-0.4-0.1-0.5-0.4c-0.1-0.3-0.1-0.7-0.1-1.2c0-3.5,0-6.5,0.1-9.1c-0.1,0-0.1,0-0.2,0
			c-0.9-0.1-1.6-0.1-2.2-0.1c-0.7,0-1.4,0-2.2,0.1c-0.4,0-0.7,0.1-1,0.2c-0.1,0-0.2,0.1-0.3,0.1c-0.4,0-0.6-0.1-0.6-0.4
			c0-0.2,0-0.6,0.1-1c0-0.6,0.1-1.1,0.1-1.7c0-0.3,0-0.8-0.1-1.4c-0.1-0.6-0.1-1-0.1-1.2C518.7,0.8,518.9,0.7,519.3,0.7z M525.1,5.5
			c0-0.5,0-1,0-1.4c-2,0-3.6,0.1-4.8,0.2c-0.1,0-0.2,0-0.2,0c0,0.3,0,0.7-0.1,1c0,0.2,0.1,0.3,0.3,0.3c0.6-0.1,1.4-0.1,2.3-0.1
			H525.1z M520.2,3.2c0.1,0,0.2,0,0.2,0h4.7c0,0,0,0,0,0c0-0.4,0-0.8,0-1.2c0-0.2-0.2-0.3-0.7-0.3c-1.6,0-3,0-4.3,0
			C520.2,2.2,520.2,2.7,520.2,3.2z"/>
		<path class="st0" d="M550.7,4.4c-0.1,0.3-0.3,0.8-0.7,1.2c-0.4,0.5-0.8,0.8-1.1,0.8c-0.3-0.1-0.8-0.3-1.4-0.6
			c-1.3-0.5-2.8-0.8-4.4-0.9c0,0.9,0,2.2-0.1,4c0.4,1.1,0.6,1.9,0.6,2.4c0,1-0.3,1.9-1,2.8c-0.6,0.8-1.4,1.5-2.3,1.9
			c-1.1,0.6-2,0.8-2.7,0.8c-0.4,0-0.8-0.2-1.2-0.6c-0.4-0.4-0.6-0.8-0.6-1.2c0-0.1,0.2-0.2,0.7-0.3c1.4-0.1,2.4-0.2,3-0.4
			c1.1-0.3,1.9-0.9,2.4-1.8c0.3-0.6,0.5-1.1,0.5-1.5c0,0,0-0.1,0-0.1c0-0.1,0-0.2,0-0.2c-0.3,0.5-0.7,0.9-1.3,1.2
			c-0.6,0.3-1.2,0.5-1.7,0.5c-0.8,0-1.5-0.3-2.2-0.8c-0.6-0.5-1-1.2-1-1.9c0-0.9,0.4-1.5,1.1-2c0.6-0.4,1.4-0.6,2.3-0.6
			c0.7,0,1.3,0.2,2.1,0.6c0-0.4,0-1.3,0-2.8c-2.4,0-4.5,0.3-6.5,0.9c-1.1,0.4-1.7,0.6-1.8,0.6c-0.5,0-0.8-0.3-0.8-0.9
			c0-0.5,0.6-0.9,1.9-1.2c0.8-0.1,1.6-0.2,2.4-0.3c1.4-0.2,3-0.3,4.8-0.3c-0.1-1.5-0.1-2.3-0.1-2.4c0-0.7,0.2-1,0.7-1
			c0.6,0,0.8,0.4,0.8,1.3c0,0.2,0,0.6,0,1.1c0,0.4,0,0.8,0,1c2.7,0.2,5.1,0.3,7.1,0.3C550.5,4.2,550.6,4.3,550.7,4.4z M541.8,9.1
			c-0.5-0.7-1.2-1-2-1c-0.5,0-1,0.1-1.5,0.4c-0.5,0.3-0.7,0.7-0.7,1.2c0,0.5,0.2,0.9,0.5,1.2c0.4,0.3,0.8,0.4,1.3,0.4
			C540.8,11.3,541.6,10.6,541.8,9.1z"/>
		<path class="st0" d="M570.3,11.5c0,1.7-0.8,3-2.4,3.9c-1.3,0.7-2.8,1.1-4.7,1.1c-0.9,0-1.7-0.2-2.5-0.6c-0.9-0.5-1.4-1.1-1.4-1.9
			c0-1.2,0.7-1.8,2.2-1.8c1.8,0,3.2,0.9,4.3,2.6c0.8-0.3,1.4-0.6,1.9-1.2c0.5-0.6,0.8-1.3,0.8-2.1c0-0.9-0.4-1.6-1.1-2.1
			c-0.6-0.4-1.4-0.6-2.4-0.6c-1.2,0-2.5,0.2-3.8,0.6c-1.4,0.5-2.5,1.1-3.4,1.9c-0.4,0.4-0.7,0.6-0.9,0.6c-0.5,0-0.8-0.3-0.8-0.8
			c0-0.3,0.3-0.7,0.8-1.2l7.8-6.7c0.1-0.1,0.2-0.2,0.3-0.3C565,3,564.9,3,564.6,3c-0.7,0-1.7,0-2.8,0.1c-1.5,0.1-2.3,0.2-2.6,0.3
			c-0.5,0-0.7-0.2-0.7-0.7c0-0.5,0.5-0.7,1.4-0.7c1.7,0,4.1-0.1,7-0.1c0.7,0,1,0.2,1,0.5c0,0.2-0.2,0.5-0.7,0.8
			c-2.6,2-4.9,3.9-6.9,5.6c1.6-0.7,3.3-1,5-1c1.2,0,2.3,0.3,3.2,0.9C569.8,9.4,570.3,10.4,570.3,11.5z M564.4,15.2
			c-0.9-1.4-1.9-2.1-2.9-2.1c-0.8,0-1.2,0.3-1.2,0.9c0,0.8,1,1.3,2.9,1.3C563.4,15.3,563.8,15.2,564.4,15.2z"/>
		<path class="st0" d="M18.4,34.4c0,0.3-0.2,0.7-0.5,1.1c-0.3,0.4-0.6,0.6-0.9,0.6c-0.3,0-0.8-0.1-1.6-0.3c-0.9-0.3-2-0.5-3.5-0.5
			c0,0.7,0.1,1.8,0.1,3.5c0,1.5,0.1,2.6,0.1,3.5c0,1.5-0.4,2.5-1.1,3.1c-0.8,0.7-1.7,1.1-2.7,1.1c-0.4,0-0.8-0.1-1.2-0.4
			c-0.5-0.3-0.7-0.6-0.7-1c0-0.2,0.4-0.3,1.3-0.3c1,0,1.7-0.2,2.1-0.6c0.5-0.4,0.7-1.1,0.7-2c0-0.7,0-1.7,0-3c0-1.4,0-2.4,0-3.1
			c-2.4,3.1-4.6,5.2-6.7,6.3c-1,0.5-1.8,0.8-2.1,0.8c-0.3,0-0.7-0.2-1.1-0.5c-0.4-0.3-0.6-0.6-0.6-1c0-0.1,0.4-0.3,1.1-0.5
			c1.9-0.4,3.6-1.2,5.3-2.4c1.2-0.8,2.4-2,3.6-3.6c-2,0.1-3.5,0.2-4.6,0.4c0,0-0.5,0.1-1.3,0.3c-0.7,0.2-1.1,0.3-1.2,0.3
			c-0.4,0-0.6-0.2-0.6-0.7c0-0.3,0.1-0.6,0.3-0.7c0.4-0.4,3.1-0.7,8-0.7v-2.8c0-0.5,0.3-0.7,0.8-0.7c0.5,0,0.7,0.3,0.7,1l0,0.3
			c-0.1,0-0.1,0.3-0.1,1c0,0.4,0,0.8,0,1.3c0.5,0,1.2,0,2.1,0c0.3,0,0.8,0,1.5,0.1c0.6,0.1,1.1,0.1,1.5,0.1c0,0,0.1,0,0.2,0
			c0.1,0,0.2-0.1,0.2-0.1h0.7C18.3,34.3,18.4,34.3,18.4,34.4z"/>
		<path class="st0" d="M36.7,33c0,1-0.1,2.8-0.3,5.1c-0.3,3.1-1.6,5.4-4,7.1c-1.6,1.1-2.9,1.6-3.9,1.6c-0.3,0-0.7-0.2-1.4-0.6
			c-0.6-0.4-0.9-0.8-0.9-1c0-0.2,0.6-0.3,1.8-0.5c2-0.3,3.7-1.1,5-2.4c1.3-1.2,2-3.4,2-6.5c0-0.4,0-0.9-0.1-1.7c0-0.8,0-1.3,0-1.7
			c0-0.5,0.3-0.7,0.8-0.7C36.4,31.7,36.7,32.1,36.7,33z M28.3,39c0,0.5-0.2,0.8-0.7,0.8c-0.6,0-0.9-0.4-0.9-1.2v-5.6
			c0-0.7,0.3-1,0.8-1c0.5,0,0.7,0.6,0.7,1.7c0,0.2,0,0.5,0,0.8c0,0.3,0,0.5,0,0.6c0,0.5,0,1.1,0.1,2C28.2,37.8,28.3,38.5,28.3,39z"
			/>
		<path class="st0" d="M49.8,39c0,0.2-0.2,0.3-0.5,0.3c-0.7,0-1.6-0.1-2.8-0.4c-0.7-0.1-1-0.4-1-0.8c0-0.6,0.3-0.9,0.9-0.9
			c0.3,0,0.9,0.3,1.9,0.8C49.3,38.4,49.8,38.7,49.8,39z M61.4,36.2c0,0.4-0.5,1.2-1.5,2.4c-2.1,2.5-5.3,4.6-9.3,6.2
			c-1.8,0.7-2.9,1.1-3.2,1.1c-0.4,0-0.6-0.1-0.9-0.3c-0.2-0.3-0.4-0.6-0.4-0.9c0-0.5,0.4-0.8,1.1-0.9c3.2-0.5,6.1-1.7,8.7-3.5
			c1.8-1.3,3.2-2.5,4.2-3.6c0.4-0.5,0.7-0.7,0.8-0.7C61.2,35.8,61.4,35.9,61.4,36.2z M51.1,35.4c0,0.2-0.1,0.3-0.4,0.3
			c-0.5,0-1.2-0.2-2.2-0.6c-1.1-0.5-1.7-0.9-1.7-1.2c0-0.6,0.3-0.9,1-0.9c0.3,0,0.7,0.2,1.1,0.5C50.3,34.6,51.1,35.2,51.1,35.4z
			 M60.1,33.5c0,0.2-0.2,0.4-0.5,0.6c-0.3,0.2-0.5,0.3-0.7,0.3c-0.2,0-0.6-0.4-1.1-1.2c-0.5-0.8-0.7-1.3-0.7-1.6
			c0-0.2,0.1-0.3,0.2-0.3s0.2,0.1,0.4,0.3c0.7,0.8,1.3,1.4,2,1.6C59.9,33.2,60.1,33.4,60.1,33.5z M63.1,32.4c0,0.1-0.2,0.4-0.5,0.6
			s-0.5,0.4-0.7,0.5c-0.3-0.1-0.8-0.5-1.3-1.1c-0.5-0.7-0.8-1.2-0.8-1.5c0-0.1,0-0.2,0.1-0.2c0,0,0.3,0.2,0.8,0.5
			c0.5,0.4,0.8,0.6,0.9,0.6C62.2,32,62.7,32.2,63.1,32.4z"/>
		<path class="st0" d="M86.1,35.8c0,0.4-0.3,0.9-0.7,1.4C85,37.7,84.6,38,84.2,38c-0.1,0-0.4-0.1-1-0.4c-1.3-0.6-3.2-0.9-5.5-0.9
			c0,3.1-0.8,5.8-2.5,7.9c-1,1.3-1.9,1.9-2.6,1.9c-0.3,0-0.7-0.1-1.2-0.4c-0.5-0.3-0.8-0.6-0.8-0.9c0-0.2,0.4-0.4,1.1-0.8
			c1.1-0.5,2-1,2.5-1.6c1.3-1.4,2.1-3.5,2.3-6.2c-0.8,0-2.1,0.1-3.7,0.2c-0.9,0.1-1.8,0.3-2.7,0.6c-1.1,0.3-1.5,0.4-1.4,0.4
			c-0.4,0-0.6-0.3-0.6-0.8c0-0.4,0.1-0.8,0.4-1c0.4-0.3,1.6-0.5,3.8-0.6c1.5-0.1,2.9-0.2,4.3-0.2c-0.1-1.2-0.1-2.4-0.1-3.5
			c0-0.4,0.3-0.7,0.9-0.7c0.4,0,0.6,0.4,0.6,1.3l0,2.8c0.8,0,2,0.1,3.7,0.2c1.6,0.1,2.8,0.1,3.6,0.1c0.3,0,0.6-0.1,0.9-0.2
			L86.1,35.8z"/>
		<path class="st0" d="M96.8,34.1c0,1.4-0.2,2.8-0.6,4.3c-0.4,1.6-1,3-1.7,4c-0.7,0.9-1.2,1.5-1.6,1.9c-0.6,0.4-0.9,0.6-1.2,0.6
			c-0.2,0-0.6-0.2-1.2-0.6c-0.6-0.4-0.8-0.7-0.8-0.9c0-0.2,0.3-0.4,1-0.7c2-0.8,3.4-2.3,4.2-4.5c0.4-1,0.6-2.5,0.7-4.4
			c0-0.6,0.2-0.8,0.5-0.8C96.6,33,96.8,33.4,96.8,34.1z M108.5,38.2c0,0.2-0.6,0.9-1.8,2.2c-0.9,0.9-1.9,1.9-3.1,2.9
			c-1.6,1.2-2.7,1.9-3.5,1.9c-0.6,0-0.9-0.4-0.9-1.2c0-0.6,0-1.5,0-2.6c0-1.2,0.1-2,0.1-2.6c0-0.7,0-1.6-0.1-2.9
			c-0.1-1.3-0.1-2.2-0.1-2.9c0-0.7,0.3-1.1,1-1.1c0.2,0,0.4,0.1,0.5,0.4c0.1,0.2,0.2,0.4,0.2,0.6l-0.1,10c0.3,0,1.2-0.4,2.5-1.3
			c1.1-0.8,2.3-1.7,3.5-2.9c0.8-0.8,1.2-1.2,1.2-1.2C108.3,37.5,108.5,37.7,108.5,38.2z"/>
		<path class="st0" d="M131,38.7c0,2.8-1.5,4.9-4.6,6.3c-1.2,0.6-2.2,0.9-2.9,0.9c-0.4,0-0.8-0.2-1.2-0.5c-0.4-0.3-0.7-0.7-0.7-1.1
			c0-0.1,0.2-0.3,0.6-0.3c0.3,0,0.7-0.1,1.2-0.2c1.4-0.2,2.6-0.6,3.5-1.1c0.8-0.5,1.5-1.1,2-1.8c0.6-0.8,0.8-1.7,0.8-2.6
			c0-0.7-0.2-1.5-0.7-2.2c-0.9-1.6-2.5-2.4-4.8-2.4c-0.1,0-0.2,0-0.4,0c-0.2,0-0.3,0-0.3,0c-0.9,4.1-2.1,7.2-3.6,9
			c-0.9,1.1-1.6,1.6-2.2,1.6c-0.8,0-1.5-0.6-2.1-1.9c-0.4-1-0.6-2-0.6-3c0-1.5,0.5-2.9,1.5-4.1c1.6-1.9,4-2.8,7.2-2.8
			c2,0,3.7,0.5,5.1,1.6C130.2,35.2,131,36.7,131,38.7z M122,33.8c-2.1,0.4-3.6,1.1-4.5,2.2c-0.9,1.1-1.4,2.2-1.4,3.2
			c0,0.6,0.1,1.2,0.4,2c0.3,0.9,0.7,1.3,1.2,1.3c0.4,0,0.9-0.3,1.4-1C120.3,39.9,121.3,37.3,122,33.8z"/>
		<path class="st0" d="M137.6,33.7h6.7c0.2,0,0.3,0.1,0.3,0.3c0,0.3-0.1,0.5-0.2,0.7c-0.2,0.2-0.5,0.3-0.8,0.3c-0.1,0-0.5,0-1.1-0.1
			c-0.6,0-1.3,0-2,0c-1.2,0-2.1,0.1-2.7,0.2c-0.3,0.1-0.5,0.2-0.6,0.2c-0.5,0-0.7-0.2-0.8-0.6c0-0.2,0.2-0.4,0.4-0.6
			C137,33.7,137.3,33.7,137.6,33.7z M138.4,41.6c0.2,0,0.4,0,0.7,0.1c0.2,0.1,0.6,0.1,1,0.1h1.2c0.3,0,0.6,0,1,0.1
			c0.2,0,0.5-0.1,0.8-0.2c0.4,0,0.6,0.2,0.6,0.7c0,0,0,0.1,0,0.1c-0.1,0.1-0.1,0.4-0.1,0.7c-0.1,0.4-0.1,0.9-0.1,1.4
			c0,0.3,0,0.6,0.1,1.1c0,0.5-0.2,0.7-0.6,0.7c-0.7-0.1-1.3-0.2-1.9-0.2c-1,0-1.6,0-1.9,0.1c-0.2,0-0.5,0.1-0.8,0.1
			c-0.4,0-0.7-0.2-0.7-0.6c0.1-0.7,0.2-1.4,0.2-1.9c0-0.5-0.1-1.1-0.2-1.7C137.7,41.9,138,41.6,138.4,41.6z M139,38.9h3.8
			c0.4,0,0.6,0.2,0.6,0.6c0,0.3-0.2,0.5-0.6,0.5c-1.7,0-3.1,0.1-4,0.2c-0.5,0-0.7-0.2-0.7-0.6C138.1,39.1,138.4,38.9,139,38.9z
			 M139.1,31.1h3.7c0.4,0,0.6,0.2,0.6,0.6c0,0.3-0.2,0.5-0.6,0.5c-1.7,0-3,0.1-3.9,0.2c-0.5,0-0.7-0.2-0.7-0.6
			C138.2,31.4,138.5,31.1,139.1,31.1z M139.1,36.5h3.7c0.4,0,0.6,0.2,0.6,0.6c0,0.3-0.2,0.5-0.6,0.5c-1.7,0-3,0.1-3.9,0.2
			c-0.5,0-0.7-0.2-0.7-0.6C138.2,36.7,138.5,36.5,139.1,36.5z M141.1,45.3c0.3,0,0.5,0,0.8,0.1c0.3,0,0.4-0.1,0.4-0.3v-1.9
			c0-0.2-0.1-0.3-0.2-0.3c-0.5-0.1-1.3-0.1-2.4-0.1c-0.3,0-0.5,0.2-0.5,0.5c0,0.6-0.1,1.2-0.2,1.7c0,0.3,0.2,0.4,0.6,0.4
			C140.1,45.3,140.6,45.3,141.1,45.3z M146.6,32h1.6l0-0.8c0-0.4,0.2-0.6,0.6-0.6c0.5,0,0.7,0.2,0.7,0.7V32h2.9v-0.8
			c0-0.4,0.2-0.6,0.6-0.6c0.5,0,0.7,0.2,0.7,0.7l0,0.7h2.5c0.2,0,0.3,0.1,0.3,0.3c0,0.3-0.1,0.5-0.2,0.6c-0.2,0.2-0.5,0.3-0.8,0.3
			c-0.2,0-0.8,0-1.7-0.1c0,0,0,0,0,0l0,1h2.2c0.2,0,0.3,0.1,0.3,0.4c0,0.2-0.1,0.3-0.2,0.5c-0.2,0.2-0.4,0.3-0.6,0.3
			c-0.5,0-1-0.1-1.6-0.1l0,1.1h3.5c0.2,0,0.4,0.1,0.4,0.3c0,0.3-0.1,0.6-0.3,0.8c-0.2,0.2-0.5,0.3-0.8,0.3c-0.3,0-1-0.1-2-0.2
			c-0.9,0-1.8-0.1-2.8-0.1v1l2.4,0c0.2,0,0.6-0.1,1-0.2c0.6,0,0.8,0.2,0.8,0.6c-0.2,1-0.4,2.3-0.4,3.7c0,0.2,0,0.4,0,0.5
			c0.4,0,0.7,0,0.9,0c0.2,0,0.5,0,0.9-0.1c0.4-0.1,0.6-0.2,0.7-0.2c0.1,0,0.2,0.1,0.2,0.2c0,0.4-0.2,0.7-0.5,1.1
			c-0.3,0.4-0.6,0.6-0.9,0.6c-0.3,0-0.7-0.1-1.2-0.2c0,0.6,0.1,1.3,0.1,2c0,0.6-0.2,0.9-0.7,0.9c-0.2,0-0.4-0.1-0.5-0.3
			c-0.1-0.3-0.1-0.7-0.1-1.2c0-0.6,0-1.2,0-1.7c-1.1-0.2-2.4-0.3-3.9-0.3c-1.1,0-2,0-2.8,0.1c-0.1,0.9-0.3,1.5-0.5,2
			c-0.4,0.8-0.8,1.2-1.2,1.2c-0.4,0-0.7-0.2-1.1-0.6c-0.2-0.3-0.3-0.5-0.3-0.7c0-0.1,0.1-0.2,0.2-0.2c0.6-0.1,1-0.5,1.4-1.2
			c0-0.1,0.1-0.2,0.1-0.3c-0.2,0-0.4,0.1-0.6,0.1c-0.4,0.1-0.8,0.2-1,0.2c-0.3,0-0.5-0.2-0.5-0.6c0-0.2,0.1-0.4,0.3-0.6
			c0.1-0.2,0.3-0.3,0.5-0.3c0.2,0,0.3,0,0.5,0.1c0.4,0,0.7-0.1,1.1-0.1c0-0.5,0-1,0-1.7c0-0.8-0.1-1.6-0.2-2.5
			c0-0.4,0.2-0.7,0.6-0.7c0.2,0,0.3,0,0.4,0.1l3,0v-1c-1.8,0-3.1,0.1-4,0.2c-0.5,0.1-0.9,0.2-1,0.2c-0.5,0-0.7-0.3-0.8-0.7
			c0-0.2,0.2-0.4,0.4-0.6c0.2-0.1,0.5-0.2,0.8-0.2h2.6l-0.1-1.2c-0.5,0-1.1,0.1-1.8,0.3c-0.4,0-0.6-0.2-0.6-0.5
			c0-0.2,0.1-0.4,0.3-0.5c0.2-0.2,0.4-0.2,0.6-0.2h1.6l0-1c-0.5,0-1,0.1-1.3,0.1c-0.4,0.1-0.7,0.2-0.9,0.2c-0.4,0-0.6-0.2-0.7-0.6
			c0-0.2,0.2-0.4,0.4-0.6C146.1,32,146.3,32,146.6,32z M147.7,43c1-0.1,1.9-0.1,2.7-0.1c0,0,0,0,0.1,0l0-1.3c-1,0-1.9,0.1-2.7,0.1h0
			c0,0,0,0.1,0,0.1C147.7,42.2,147.7,42.6,147.7,43z M147.8,40.7c0.1,0,0.1,0,0.2,0h2.5l0-1.3c-0.9,0-1.8,0-2.7,0
			C147.8,39.9,147.8,40.4,147.8,40.7z M149.6,34h3v-1c-0.5,0-1.1,0-1.7,0c-0.4,0-0.9,0-1.2,0V34z M149.6,36.2h3l0-1.2
			c-0.9,0-1.9,0-3,0V36.2z M151.6,41.6l0,1.3c0.8,0,1.7,0.1,2.7,0.1c0-0.5,0-1,0-1.4C153.4,41.5,152.5,41.6,151.6,41.6z M151.7,39.4
			l0,1.3h2.8c0-0.4,0.1-0.8,0.1-1.1c0-0.1-0.2-0.2-0.6-0.2C153.2,39.4,152.4,39.4,151.7,39.4z"/>
		<path class="st0" d="M166.9,37.4c0.3,0,0.4,0.1,0.4,0.3c0,0.3-0.1,0.5-0.3,0.6l-4,1.3c-0.6,0-0.8-0.2-0.8-0.7c0-0.6,0.2-1,0.6-1
			L166.9,37.4z M164.4,30.7c0.1,0,0.3,0.1,0.6,0.2c0.7,0.5,1.4,1.1,2.4,1.7c0.1,0.1,0.2,0.2,0.2,0.3c0,0.2-0.2,0.4-0.5,0.4
			c-0.1,0-0.2,0-0.4-0.1c-1.3-0.4-2.1-0.6-2.5-0.7c-0.4-0.3-0.6-0.6-0.6-1C163.5,30.9,163.8,30.7,164.4,30.7z M167.6,43
			c0.2,0,0.4,0.1,0.4,0.4c0,0.2-0.1,0.4-0.2,0.6c-1.5,1.9-2.3,2.8-2.5,2.8c-0.7,0-1-0.2-1-0.6c0-0.5,0.1-0.9,0.4-1
			C164.6,45,165.6,44.2,167.6,43z M175.5,30.3c0.6,0,0.8,0.3,0.8,0.8c-0.1,0.4-0.2,0.9-0.2,1.2c2.1,0,3.9,0.1,5.5,0.3l0.9-0.2
			c0.4,0,0.6,0.2,0.6,0.5c0,0.1,0,0.3-0.1,0.4c-0.2,0.5-0.4,1.4-0.5,2.6c0,0.4-0.2,0.6-0.6,0.6c-0.4,0-0.6-0.2-0.6-0.6
			c0-0.7,0-1.3,0.1-1.9c0,0-0.1-0.1-0.3-0.2c-1.5-0.3-3.2-0.4-5.1-0.4c-1.9,0-3.7,0.1-5.3,0.3c-0.5,0-0.7,0.1-0.8,0.3l0,0.1
			c0,1.1-0.1,1.8-0.3,2c-0.1,0.3-0.3,0.4-0.6,0.4c-0.2,0-0.4-0.1-0.4-0.3c0-1.3-0.1-2.5-0.4-3.5c0-0.4,0.2-0.6,0.6-0.6
			c0.3,0,0.5,0,0.7,0.1c0.2,0.1,0.4,0.2,0.6,0.2c1.2-0.1,2.6-0.1,4.5-0.1c0.1,0,0.1,0,0.2,0c0-0.4-0.1-0.8-0.2-1.1
			C174.7,30.6,174.9,30.3,175.5,30.3z M169.9,45.3c0.4,0.1,0.7,0.1,0.8,0.1c0.6,0,1.4-0.2,2.4-0.7c0.2,0,0.3,0.1,0.3,0.3
			c0,0.2-0.3,0.7-1,1.4c-0.6,0.7-1.2,1.1-1.7,1.1c-0.3,0-0.5-0.1-0.7-0.4c-0.3-0.4-0.4-0.8-0.4-1.2
			C169.7,45.4,169.8,45.3,169.9,45.3z M171.9,34.9h8.2c0.2,0,0.4,0.1,0.4,0.3c0,0.3-0.1,0.6-0.3,0.8c-0.2,0.2-0.5,0.3-0.8,0.3
			c-0.2,0-0.7-0.1-1.4-0.2c-0.5,0-1-0.1-1.6-0.1l0,1.4h0c0.8,0,1.7,0,2.8,0.1c0.2,0,0.5-0.1,0.8-0.2c0.4,0,0.7,0.2,0.7,0.7
			c0,0,0,0.1-0.1,0.2c-0.1,0.2-0.1,0.5-0.1,1c0,0.7-0.1,1.4-0.1,2.1c0,0.5,0,1.1,0.1,1.9c0,0.5-0.2,0.7-0.7,0.7
			c-1.6-0.1-3.1-0.2-4.4-0.2c-1.5,0-2.5,0-3,0c-0.3,0-0.8,0.1-1.3,0.1c-0.4,0-0.6-0.2-0.6-0.6c0.1-1.1,0.2-2,0.2-2.8
			c0-0.8-0.1-1.7-0.2-2.8c0-0.4,0.2-0.7,0.6-0.7c0.2,0,0.5,0,0.7,0.1c0.2,0.1,0.6,0.1,1,0.1h2.1V36c-1.2,0-2.2,0.1-2.7,0.2
			c-0.4,0.1-0.6,0.2-0.7,0.2c-0.5,0-0.7-0.2-0.8-0.6c0-0.2,0.2-0.4,0.4-0.6C171.3,35,171.6,34.9,171.9,34.9z M175,42.8l0-1.7
			c-1.1,0-2,0.1-2.8,0.1c-0.1,0-0.1,0-0.2,0c0,0.4-0.1,0.9-0.1,1.3c0,0.3,0.2,0.4,0.6,0.4C173.2,42.8,174.1,42.8,175,42.8z
			 M172.1,40.1c0.1,0,0.2,0,0.2,0h2.7v-1.6c-0.7,0-1.5,0-2.4,0c-0.3,0-0.5,0.2-0.5,0.5C172.1,39.3,172.1,39.7,172.1,40.1z M176.3,41
			l0,1.8c0.8,0,1.6,0,2.5,0.1c0.3,0,0.4-0.1,0.4-0.3V41c0,0-0.1,0-0.1,0C178,41,177.1,41,176.3,41z M176.3,38.5V40h2.7
			c0.1,0,0.1,0,0.2,0v-1.2c0-0.2-0.1-0.3-0.2-0.3C178.2,38.5,177.3,38.5,176.3,38.5z M178,44.6c0,0,0.1,0,0.1,0
			c0.8,0.4,1.5,0.7,2,0.9c0.4,0.1,0.8,0.2,1.4,0.2c0.2,0,0.3,0.1,0.3,0.3c0,0.3-0.2,0.5-0.5,0.8c-0.6,0.4-1.1,0.6-1.4,0.6
			c-0.1,0-0.3-0.1-0.4-0.2c-0.2-0.2-0.8-0.9-1.7-2c-0.1-0.1-0.1-0.2-0.1-0.2C177.7,44.7,177.8,44.6,178,44.6z"/>
		<path class="st0" d="M193.6,30.3c0.4,0,0.6,0.2,0.6,0.5c0,0.2-0.1,0.4-0.2,0.6c-0.5,0.8-1.1,1.6-1.8,2.3c0.1,0.2,0.2,0.4,0.2,0.7
			c-0.1,1.4-0.1,2.6-0.1,3.7l0.1,7.7c0,1-0.3,1.5-0.9,1.5c-0.4,0-0.6-0.5-0.6-1.5c0.1-3.3,0.1-5.9,0.1-7.7c0-0.9,0-2-0.1-3.1
			c-0.2,0.2-0.4,0.3-0.6,0.5c-0.5,0.5-1,0.7-1.3,0.7c-0.4,0-0.7-0.1-1.1-0.4c-0.4-0.3-0.6-0.6-0.6-0.9c0-0.2,0.2-0.3,0.5-0.4
			c1-0.3,2-0.8,2.8-1.4c0.9-0.7,1.8-1.6,2.6-2.7C193.4,30.4,193.5,30.3,193.6,30.3z M199,30.5c0.4,0,0.6,0.2,0.6,0.5
			c0,0.2-0.1,0.5-0.2,0.7c-0.3,0.5-0.6,1-0.8,1.4c1.1,0,2.1,0,3,0c1.1,0,2.1,0,3,0.1c0.8,0,1.3,0,1.5,0c0.8,0,1.6-0.1,2.3-0.2
			c0.2-0.1,0.4-0.1,0.6-0.1c0.2,0,0.3,0.2,0.3,0.5c0,0.4-0.2,0.8-0.5,1.3c-0.3,0.4-0.6,0.6-0.9,0.6s-0.6-0.1-0.9-0.3
			c-0.6-0.3-1.2-0.5-1.9-0.6c-1.2-0.2-2.3-0.3-3.4-0.3c-0.5,0-0.9,0-1.3,0c0,0.1,0,0.2,0,0.3c-0.1,1.1-0.1,2.1-0.1,3
			c0.1,0,0.2,0,0.4,0h4.8c0.2,0,0.3,0.1,0.4,0.2c0,0.3-0.1,0.6-0.3,0.8c-0.2,0.3-0.5,0.4-0.8,0.4c-0.1,0-0.4-0.1-0.8-0.2
			c-0.4,0-0.8-0.1-1.3-0.1c-0.9,0-1.6,0-2,0.1c-0.2,0.1-0.3,0.1-0.4,0.1l0,2.7c0.1,0,0.2,0,0.3,0h5.3c0.2,0,0.4,0.1,0.4,0.2
			c0,0.3-0.1,0.6-0.3,0.8c-0.2,0.3-0.5,0.4-0.8,0.4c-0.1,0-0.4-0.1-0.9-0.2c-0.5,0-1-0.1-1.5-0.1c-1,0-1.7,0-2.2,0.1
			c-0.1,0-0.3,0.1-0.4,0.1l0,2.8c0,1-0.3,1.5-0.8,1.5c-0.4,0-0.7-0.5-0.7-1.5c0.1-3.2,0.1-5.8,0.1-7.6c0-1.1,0-2.3-0.1-3.7
			c0-0.1,0-0.1,0-0.2c-0.4,0-0.8,0.1-1.2,0.2c-0.3,0.3-0.5,0.7-0.8,1c-0.4,0.4-0.7,0.7-1,0.7c-0.3,0-0.7-0.1-1.1-0.4
			c-0.4-0.3-0.5-0.6-0.5-0.9c0-0.2,0.2-0.4,0.5-0.4c0.8-0.3,1.5-0.7,2.1-1.3c0.7-0.6,1.3-1.4,1.9-2.5
			C198.8,30.5,198.9,30.5,199,30.5z"/>
		<path class="st0" d="M217.3,33.6h7.1c-0.1-1.2-0.1-2-0.1-2.4c0-0.4,0.2-0.6,0.6-0.6c0.5,0,0.8,0.3,0.8,0.7v0.8c0,0.5,0,1,0,1.5
			h6.3c0.2,0,0.4,0.1,0.4,0.2c0,0.3-0.1,0.6-0.3,0.8c-0.2,0.2-0.5,0.4-0.8,0.4c-0.4,0-1.3-0.1-2.7-0.2c-0.9,0-1.8-0.1-2.8-0.1
			c0,0.8,0.1,1.5,0.2,2.1c0.2,1.4,0.6,2.7,1.2,3.7c0.2,0.4,0.4,0.8,0.7,1.2c0.8-1.2,1.4-2.6,1.9-4.3c0-0.2,0.2-0.3,0.6-0.3
			c0.4,0,0.6,0.2,0.6,0.7c0,0-0.1,0.1-0.1,0.3c-0.4,1.3-1.1,2.8-2,4.5c0,0-0.1,0.1-0.1,0.1c0.4,0.4,0.8,0.7,1.2,1
			c0.8,0.6,1.8,1,3,1.3c0.3,0,0.4,0.2,0.4,0.5c0,0.3-0.2,0.6-0.5,1c-0.4,0.4-0.7,0.6-1.1,0.6c-0.3,0-0.7-0.2-1.2-0.6
			c-1-0.7-1.9-1.5-2.8-2.5c-0.7,0.8-1.4,1.5-2.1,2.1c-0.8,0.6-1.4,0.9-1.8,0.9c-0.3,0-0.6-0.1-0.8-0.3c-0.4-0.4-0.6-0.7-0.6-1.1
			c0-0.2,0.3-0.4,0.8-0.5c1.3-0.2,2.6-0.9,3.7-2.1c-0.7-1.1-1.2-2.3-1.6-3.6c-0.4-1.1-0.6-2.7-0.8-4.7c-0.2,0-0.4,0-0.6,0
			c-2.6,0-4.5,0-5.7,0.1c-0.5,0.1-0.8,0.1-1.1,0.1c0,0.1,0,0.3,0,0.4l0,2.7c0.3,0,0.9-0.1,1.7-0.1h2.5c0.1,0,0.4-0.1,0.8-0.2
			c0.6,0,0.8,0.3,0.8,0.8c-0.3,1-0.5,2.1-0.6,3.1c-0.1,1.4-0.5,2.4-1.1,2.8c-0.5,0.4-1.1,0.6-1.8,0.6c-0.4,0-0.7-0.2-1-0.5
			c-0.2-0.3-0.3-0.6-0.3-0.8c0-0.3,0.1-0.4,0.4-0.5c0.9,0,1.5-0.2,1.7-0.4c0.3-0.3,0.6-1,0.8-2.2c0.1-0.8,0.2-1.2,0.2-1.4
			c0-0.3-0.1-0.4-0.3-0.4h-1.5c-0.7,0-1.4,0.1-2,0.2c-0.2,0.1-0.4,0.1-0.5,0.1c0,1-0.2,1.9-0.4,2.6c-0.4,1.1-0.9,2-1.6,2.9
			c-0.4,0.5-0.8,0.7-1.1,0.7c-0.4,0-0.9-0.2-1.4-0.7c-0.4-0.3-0.6-0.6-0.6-0.9c0-0.3,0.2-0.4,0.6-0.5c0.5-0.1,0.9-0.2,1.2-0.5
			c0.7-0.4,1.2-1.1,1.5-2.1c0.3-0.9,0.4-2,0.4-3.4c0-0.8-0.1-1.9-0.3-3.4c0-0.6,0.2-0.8,0.7-0.8c0.3,0,0.6,0.1,0.7,0.2
			C217.1,33.6,217.2,33.6,217.3,33.6z M230.3,30.6c0.4,0,0.6,0.2,0.6,0.6c0,0.3,0,0.5-0.1,0.7c-1.2,0.9-1.8,1.4-1.9,1.4
			c-0.3,0-0.5-0.1-0.5-0.4c0-0.1,0.3-0.7,1-1.9C229.7,30.7,229.9,30.6,230.3,30.6z"/>
		<path class="st0" d="M253.8,34.5c0,0.3-0.2,0.7-0.6,1.2c-0.4,0.5-0.7,0.7-1,0.7c0.1,0-0.4-0.1-1.5-0.4c-1.3-0.3-2.6-0.5-3.9-0.5
			c-0.2,0-0.4,0-0.6,0c-0.3,0-0.6,0-0.7,0c-0.1,1.1-0.2,2.1-0.2,3l4.2,0c0.8,0,1.1,0.1,1.1,0.3c0,0.2-0.1,0.5-0.3,0.7
			c-0.2,0.2-0.4,0.4-0.6,0.4c-1.3-0.2-2.2-0.3-2.8-0.3c-0.2,0-0.7,0-1.6,0c0,1.5,0.1,2.6,0.3,3.4c0.3,1.4,1,2.2,2,2.2
			c0.7,0,1.5-0.2,2.5-0.6c1-0.5,1.7-1,2.2-1.5c0.3-0.3,0.5-0.5,0.6-0.5c0.3,0,0.4,0.3,0.4,0.8c0,0.8-0.1,1.4-0.4,1.8
			c-0.3,0.5-1,0.8-2.3,1.1c-0.9,0.2-1.8,0.3-2.6,0.3c-1.8,0-3-0.8-3.5-2.3c-0.4-0.9-0.5-2.4-0.5-4.5c-1.1,0.1-1.8,0.1-1.9,0.1
			c-0.8,0.1-1.5,0.2-1.8,0.3c-0.4,0.1-0.6,0.2-0.5,0.2c-0.3,0-0.4-0.2-0.4-0.6c0-0.5,0.4-0.8,1.1-1c0.5-0.1,1.8-0.2,3.7-0.3
			c0-1.5,0-2.5,0.1-3l-1.6,0.1c-0.5,0.1-1.1,0.2-1.9,0.4c-1.1,0.3-1.7,0.5-1.8,0.6c-0.3,0-0.5-0.2-0.5-0.6c0-0.8,0.5-1.3,1.4-1.3
			c1-0.1,2.5-0.2,4.5-0.3c0.1-1,0.1-1.8,0.1-2.4c0-0.8,0.3-1.2,0.8-1.2c0.6,0,0.9,0.3,0.9,0.8c0,0-0.1,0.9-0.4,2.7c0.2,0,0.5,0,1,0
			c0.4,0,0.7,0,0.9,0c0.5,0,1.2,0,2.1,0c0.9,0,1.6,0,2.1,0c0.6,0,1.1,0,1.3-0.1c0.4,0,0.5-0.1,0.6-0.1
			C253.7,34.4,253.8,34.4,253.8,34.5z"/>
		<path class="st0" d="M262.5,36.9l2.5,0.1c0.3,0,0.6,0,1-0.1c0.4,0,0.6,0.2,0.6,0.7c-0.2,0.7-0.4,1.2-0.4,1.7
			c-0.2,1.1-0.6,2.1-1.1,3c-0.5,1.1-1.3,2-2.2,2.7c-0.6,0.4-1,0.6-1.4,0.6c-0.4,0-0.9-0.2-1.3-0.5c-0.4-0.3-0.6-0.6-0.6-0.9
			c0-0.2,0.2-0.3,0.5-0.4c1-0.2,1.8-0.5,2.4-0.9c0.5-0.4,1-0.9,1.5-1.7c0.4-0.6,0.7-1.5,1-2.8c0-0.2-0.1-0.3-0.2-0.4
			c-0.3-0.1-0.6-0.1-0.8-0.1c-1.1,0-2.1,0.2-3,0.5c-0.4,0-0.6-0.2-0.6-0.6c0-0.4,0.2-0.6,0.6-0.8C261.4,36.9,261.9,36.9,262.5,36.9z
			 M265.7,31.2h0.5c1.1-0.1,2-0.2,2.9-0.2c1.3,0,2.7,0,4.2,0.1c0.3,0,0.6,0,0.8-0.1c0.5,0,0.7,0.2,0.7,0.7c0,0.2-0.2,0.4-0.5,0.6
			c-0.2,0.1-0.7,0.5-1.5,1.1c-0.7,0.5-1.4,1.1-2.1,1.7c-0.2,0.2-0.4,0.3-0.5,0.3c0.3,0.4,0.5,0.8,0.7,1.2h1.3c0.4,0,0.6,0.2,0.6,0.6
			c0,0.3-0.2,0.4-0.6,0.4c-0.4,0-0.7,0-1.1,0c0.1,0.5,0.3,1,0.3,1.5h1.3c0.4,0,0.6,0.2,0.6,0.6c0,0.3-0.2,0.5-0.6,0.5
			c-0.4,0-0.8,0-1.2,0c0,0.5,0.1,1.1,0.1,1.7h2.8c0.2,0,0.4,0.1,0.4,0.3c0,0.3-0.1,0.6-0.3,0.8c-0.2,0.2-0.5,0.3-0.8,0.3
			c-0.2,0-0.6-0.1-1.3-0.2c-0.3,0-0.5,0-0.8,0c-0.1,0.9-0.3,1.7-0.5,2.3c-0.4,0.8-0.9,1.3-1.7,1.7c-0.6,0.3-1.2,0.4-1.8,0.4
			c-0.4,0-0.8-0.1-1-0.4c-0.3-0.3-0.4-0.6-0.4-1c0-0.2,0.2-0.4,0.5-0.4c1.2,0,2-0.2,2.5-0.5c0.4-0.3,0.7-0.7,0.8-1.2
			c0.1-0.3,0.1-0.6,0.2-0.9c-1.3,0-2.3,0.1-2.9,0.2c-0.4,0.1-0.6,0.2-0.7,0.2c-0.5,0-0.7-0.2-0.7-0.6c0-0.2,0.1-0.4,0.4-0.6
			c0.2-0.1,0.5-0.2,0.8-0.2h3.2c0-0.6,0-1.1,0-1.7c-1,0-1.8,0.1-2.5,0.1c-0.5,0-0.7-0.2-0.7-0.6c0-0.4,0.3-0.7,0.9-0.7h2.2
			c-0.1-0.5-0.2-1-0.3-1.4c-0.7,0-1.2,0.1-1.7,0.1c-0.5,0-0.8-0.2-0.8-0.5c0-0.4,0.3-0.6,0.8-0.6h1.3c-0.2-0.5-0.5-1-0.9-1.4
			c-0.2-0.1-0.2-0.3-0.2-0.5c0-0.4,0.2-0.7,0.5-0.7c0.1,0,0.3,0.2,0.6,0.5c0,0,0.1,0.1,0.1,0.1c0-0.1,0.1-0.1,0.2-0.2
			c0.3-0.3,1-0.9,2.1-1.7c0.2-0.1,0.2-0.2,0.2-0.2c0-0.1-0.2-0.2-0.6-0.2c-1.6,0-3,0-4.1,0.1c-0.5,0.1-1.2,0.2-2,0.3
			c-0.5,0-0.7-0.2-0.7-0.5c0-0.2,0.1-0.4,0.3-0.7C265.3,31.3,265.5,31.2,265.7,31.2z M277.8,35.2c0.6,0,0.8,0.3,0.8,0.8
			c0,0.3-0.2,0.5-0.5,0.7c-0.7,0.4-1.6,0.8-2.7,1.2c-0.1,0-0.2,0.1-0.2,0.1c0.1,0.1,0.2,0.3,0.3,0.5c2.1,2.9,3.4,4.6,3.9,4.9
			c0.3,0.2,0.7,0.3,1.2,0.5c0.3,0,0.5,0.1,0.5,0.4c0,0.3-0.2,0.6-0.7,0.9c-0.5,0.3-1,0.5-1.5,0.5c-0.4,0-0.7-0.1-1-0.4
			c-0.7-1.6-1.5-3.3-2.4-4.9c-0.4-0.7-0.7-1.2-1-1.5c-0.1-0.1-0.2-0.2-0.2-0.4c0,0-0.1,0-0.1,0c-0.4,0-0.7-0.2-0.7-0.5
			c0-0.2,0.1-0.4,0.4-0.5c1.6-0.8,2.8-1.5,3.7-2.1C277.6,35.2,277.7,35.2,277.8,35.2z"/>
		<path class="st0" d="M297.9,37.8c0,1.5-0.4,2.9-1.2,4.4c-0.8,1.5-1.8,2.6-3.1,3.4c-1.2,0.8-2.2,1.2-3,1.2c-0.4,0-0.8-0.2-1.2-0.6
			c-0.5-0.4-0.7-0.8-0.7-1.2c0-0.2,0.4-0.3,1.1-0.3c1.9-0.1,3.5-0.8,4.8-2c1.5-1.4,2.2-3.1,2.2-5.4c0-3-0.7-4.6-2.2-4.6
			c-0.7,0-1.4,0.4-2.1,1.1c-0.5,0.6-0.9,1.2-1.3,2c-0.5,1.1-0.9,2.5-1,4c0,0.7-0.3,1-0.7,1c-0.9,0-1.3-1.6-1.3-4.7
			c0-1.1,0.1-2.2,0.3-3.3c0.3-1.6,0.7-2.4,1.2-2.4c0.4,0,0.6,0.3,0.6,0.9c0,0-0.1,0.5-0.3,1.5c-0.3,1.2-0.4,2.7-0.5,4.6
			c0.6-1.6,1.2-2.9,1.8-3.7c1-1.3,2.1-1.9,3.5-1.9c1.2,0,2.1,0.7,2.7,2.2C297.7,35.1,297.9,36.4,297.9,37.8z"/>
		<path class="st0" d="M322.2,44.3c-0.1,0.3-0.3,0.7-0.8,1.2c-0.4,0.5-0.8,0.8-1.1,0.8c-0.4,0-1-0.3-2-0.9c-0.6-0.4-1.2-0.8-1.7-1.2
			c-0.5-0.3-1.1-0.6-2-0.9c-0.2,2-1.4,3-3.7,3c-0.9,0-1.6-0.2-2.3-0.6c-0.8-0.4-1.2-1.1-1.2-1.9c0-0.9,0.4-1.5,1.3-1.9
			c0.7-0.3,1.5-0.5,2.4-0.5c0.6,0,1.4,0.1,2.2,0.3c0-0.4,0-0.9,0-1.5c0-0.8,0-1.3,0-1.5c0,0,0,0,0-0.1c0-0.1,0-0.1,0-0.1
			c-1.6,0.1-2.9,0.2-3.9,0.4c-0.1,0-0.2,0-0.4,0.1c-0.2,0.1-0.3,0.1-0.4,0.1c-0.4,0-0.6-0.2-0.6-0.7c0-0.5,0.4-0.9,1.3-0.9
			c0.7-0.1,2-0.2,3.8-0.2c0-0.8,0-1.8,0-3c-1.3,0-2.1,0.1-2.3,0.1c-0.9,0.1-1.6,0.2-2.3,0.3c-0.6,0.2-0.9,0.2-1,0.2
			c-0.5,0-0.8-0.3-0.8-0.9c0-0.2,0.1-0.4,0.2-0.5c0.2-0.2,2.2-0.3,6.1-0.3c0-1.1-0.1-1.8-0.1-1.9c0-0.6,0.3-0.9,0.8-0.9
			c0.6,0,0.9,0.3,0.9,0.9c0,0.5,0,1.2-0.1,1.9c2.9,0.1,4.9,0.2,5.8,0.2c0.4,0,0.5,0.1,0.5,0.2c0,0.3-0.1,0.6-0.4,1
			c-0.3,0.4-0.5,0.6-0.7,0.6c0.1,0-0.3-0.1-1.2-0.4c-0.9-0.2-2.2-0.4-4.1-0.5c0,1,0,2,0,2.9c1.8,0,3.4,0.1,4.8,0.3
			c0.1,0,0.2,0,0.3,0.1c0,0,0.1,0.1,0.1,0.2c0,0.3-0.1,0.5-0.3,0.8c-0.2,0.3-0.4,0.5-0.6,0.5c0,0-0.6-0.1-1.5-0.3
			c-0.8-0.2-1.8-0.2-2.9-0.3c0,0.2,0,1.3-0.1,3.6c1.5,0.4,2.9,0.9,4.2,1.4c0.9,0.3,1.8,0.5,2.8,0.6C322,44,322.2,44.1,322.2,44.3z
			 M313.4,42.8c-1-0.3-1.8-0.4-2.4-0.4c-1.6,0-2.5,0.5-2.5,1.4c0,0.4,0.3,0.8,0.9,1c0.4,0.2,0.9,0.3,1.4,0.3c0.8,0,1.4-0.2,1.8-0.6
			C313,44.2,313.2,43.6,313.4,42.8z"/>
		<path class="st0" d="M346.2,34.4c-0.1,0.3-0.3,0.8-0.7,1.2c-0.4,0.5-0.8,0.8-1.1,0.8c-0.3-0.1-0.8-0.3-1.4-0.6
			c-1.3-0.5-2.8-0.8-4.4-0.9c0,0.9,0,2.2-0.1,4c0.4,1.1,0.6,1.9,0.6,2.4c0,1-0.3,1.9-1,2.8c-0.6,0.8-1.4,1.5-2.3,1.9
			c-1.1,0.6-2,0.8-2.7,0.8c-0.4,0-0.8-0.2-1.2-0.6c-0.4-0.4-0.6-0.8-0.6-1.2c0-0.1,0.2-0.2,0.7-0.3c1.4-0.1,2.4-0.2,3-0.4
			c1.1-0.3,1.9-0.9,2.4-1.8c0.3-0.6,0.5-1.1,0.5-1.5c0,0,0-0.1,0-0.1c0-0.1,0-0.2,0-0.2c-0.3,0.5-0.7,0.9-1.3,1.2
			c-0.6,0.3-1.2,0.5-1.7,0.5c-0.8,0-1.5-0.3-2.2-0.8c-0.6-0.5-1-1.2-1-1.9c0-0.9,0.4-1.5,1.1-2c0.6-0.4,1.4-0.6,2.3-0.6
			c0.7,0,1.3,0.2,2.1,0.6c0-0.4,0-1.3,0-2.8c-2.4,0-4.5,0.3-6.5,0.9c-1.1,0.4-1.7,0.6-1.8,0.6c-0.5,0-0.8-0.3-0.8-0.9
			c0-0.5,0.6-0.9,1.9-1.2c0.8-0.1,1.6-0.2,2.4-0.3c1.4-0.2,3-0.3,4.8-0.3c-0.1-1.5-0.1-2.3-0.1-2.4c0-0.7,0.2-1,0.7-1
			c0.6,0,0.8,0.4,0.8,1.3c0,0.2,0,0.6,0,1.1c0,0.4,0,0.8,0,1c2.7,0.2,5.1,0.3,7.1,0.3C346,34.2,346.1,34.3,346.2,34.4z M337.3,39.1
			c-0.5-0.7-1.2-1-2-1c-0.5,0-1,0.1-1.5,0.4c-0.5,0.3-0.7,0.7-0.7,1.2c0,0.5,0.2,0.9,0.5,1.2c0.4,0.3,0.8,0.4,1.3,0.4
			C336.3,41.3,337.1,40.6,337.3,39.1z"/>
		<path class="st0" d="M358.6,46.2c0,0.3-0.3,0.6-0.9,1c-0.6,0.4-1,0.6-1.3,0.6c-0.3,0-0.6-0.3-1-0.8c-0.8-1.2-1.7-2.3-2.4-3.1
			c-0.7-0.8-1-1.3-1-1.5c0-0.3,0.2-0.4,0.5-0.4c0.2,0,1.5,0.9,3.8,2.8c0.5,0.4,1.2,0.8,2.1,1.2C358.4,46,358.6,46.1,358.6,46.2z"/>
		<path class="st0" d="M385.6,41.7c0,1.2-0.6,2.3-1.8,3.2c-1.1,0.8-2.3,1.2-3.6,1.2c-0.4,0-0.8-0.2-1.3-0.6
			c-0.5-0.4-0.7-0.8-0.7-1.2c0-0.2,0.1-0.3,0.3-0.3c0.1,0,0.3,0,0.5,0c0.2,0,0.4,0,0.5,0c1.8,0,3-0.3,3.7-1c0.6-0.5,0.9-1.1,0.9-1.8
			c0-0.6-0.3-1.2-1-1.6c-0.6-0.4-1.4-0.6-2.6-0.6c-1.5,0-3.1,0.3-4.8,0.9l-0.1,4.1c0,1.4-0.5,2-1.3,2c-0.8,0-1.7-0.3-2.7-0.8
			c-1.1-0.6-1.7-1.3-1.7-2c0-0.8,0.5-1.6,1.6-2.4c0.8-0.6,1.7-1.1,2.7-1.5c0-0.7,0-1.9,0-3.6c-0.6,0-1.6,0.1-2.9,0.2
			c-0.7,0.2-1,0.3-0.9,0.3c-0.4,0-0.6-0.2-0.6-0.6c0-0.3,0.1-0.5,0.3-0.7c0.1-0.2,0.8-0.3,1.9-0.4c0.7,0,1.4,0,2.2,0
			c0-0.3,0-0.7,0-1.3c0-0.6,0-1,0-1.3c0-0.5,0.2-0.8,0.7-0.8c0.5,0,0.8,0.3,0.8,0.9l0,2.4c0.5,0,1.2,0,2.1,0c0.9,0,1.6,0,2.1,0
			c0.4,0,0.6,0.1,0.6,0.3c0,0.3-0.1,0.5-0.3,0.8c-0.2,0.3-0.4,0.4-0.6,0.5c-0.7-0.2-1.6-0.3-2.7-0.3c-0.1,0-0.3,0-0.6,0
			c-0.3,0-0.4,0-0.6,0l-0.1,3.1c1.6-0.5,3.2-0.8,4.7-0.8c0.9,0,1.8,0.1,2.6,0.4c1,0.3,1.7,0.8,2.1,1.4
			C385.5,40.4,385.6,41,385.6,41.7z M374.3,40.5c-1.9,1-2.8,1.8-2.8,2.5c0,0.5,0.3,0.9,0.8,1.2c0.5,0.2,1,0.4,1.5,0.4
			c0.3,0,0.5-0.3,0.5-0.8C374.3,43,374.3,41.9,374.3,40.5z M386.8,35.4c0,0.2-0.3,0.6-0.7,1c-0.4,0.4-0.7,0.7-1,0.7
			c-0.3,0-0.9-0.5-1.8-1.5c-0.8-1-1.2-1.7-1.2-2.1c0-0.2,0.1-0.3,0.2-0.3c0.1,0,0.6,0.3,1.5,0.8c0.9,0.6,1.7,0.9,2.3,1
			C386.5,35.1,386.7,35.2,386.8,35.4z"/>
		<path class="st0" d="M397.7,30.3c0.4,0,0.6,0.2,0.6,0.5c0,0.2-0.1,0.4-0.2,0.6c-0.1,0.1-0.1,0.2-0.2,0.3H409
			c0.2,0,0.4,0.1,0.4,0.3c0,0.3-0.1,0.6-0.3,0.8c-0.2,0.2-0.5,0.3-0.8,0.3c-0.3,0-1-0.1-2-0.2c-1.1,0-2.3-0.1-3.6-0.1
			c-2,0-3.5,0.1-4.4,0.2c-0.5,0.1-0.9,0.2-1,0.2c-0.2,0-0.3,0-0.4-0.1c-0.5,0.6-1.1,1.2-1.7,1.8c-0.4,0.4-0.8,0.6-1.1,0.6
			c-0.4,0-0.7-0.2-1.1-0.5c-0.4-0.3-0.6-0.6-0.6-0.9c0-0.2,0.2-0.3,0.5-0.4c0.9-0.2,1.6-0.6,2.4-1.1c0.8-0.5,1.5-1.2,2.1-2.2
			C397.5,30.4,397.6,30.3,397.7,30.3z M401.9,39c0.4,0,0.6,0.2,0.6,0.7c0,0-0.1,0.1-0.1,0.2c-0.4,0.9-1,1.8-1.8,2.9
			c1.3,0.8,2.5,1.6,3.6,2.5c0.2,0.2,0.3,0.4,0.3,0.6c0,0.3-0.2,0.4-0.5,0.5c-0.2,0-0.5-0.1-0.7-0.3c-1.4-0.9-2.6-1.7-3.5-2.3
			c-1.1,1.1-2.2,2-3.4,2.6c-0.8,0.5-1.6,0.7-2.1,0.7c-0.3,0-0.5-0.1-0.8-0.3c-0.4-0.3-0.5-0.6-0.5-1c0-0.2,0.2-0.4,0.7-0.5
			c1.6-0.2,3.1-0.8,4.5-1.8c0.1-0.1,0.3-0.3,0.4-0.4c-0.8-0.5-2-1-3.6-1.6c-0.3-0.2-0.5-0.4-0.5-0.6c0-0.5,0.3-0.8,0.8-0.9
			c0.2,0,0.4,0.1,0.6,0.2c0.6,0.4,1.8,1.1,3.4,2c0,0,0.1,0.1,0.1,0.1c0.7-0.8,1.3-1.8,1.8-3C401.5,39.1,401.7,39,401.9,39z
			 M400.8,36.7c2.2,0,4.3,0.1,6.2,0.3c0.2,0,0.4-0.1,0.6-0.1c0.6,0,0.8,0.3,0.8,0.8c0,0.1,0,0.2-0.1,0.3c-0.2,0.4-0.4,0.8-0.5,1.3
			c0,0.4-0.1,1-0.1,1.7c0,1,0.2,1.7,0.5,2.1c0.5,0.6,1.1,1.1,1.7,1.3c0.6,0.3,1.4,0.4,2.5,0.4c0.3,0,0.4,0.1,0.5,0.3
			c0,0.4-0.2,0.9-0.6,1.3c-0.4,0.5-0.9,0.7-1.4,0.7c-0.5,0-1.1-0.2-1.8-0.7c-0.9-0.5-1.5-1.1-1.9-1.9c-0.5-0.8-0.7-1.9-0.7-3.3
			c0-0.9,0.1-1.8,0.3-2.6c0-0.4-0.2-0.6-0.6-0.7c-1.2-0.1-2.6-0.2-4-0.2c-1.1,0-2.2,0-3.4,0.1c-1,0-1.9,0.1-2.8,0.3
			c-0.5,0-0.8-0.2-0.8-0.6c0-0.6,0.3-0.9,1-1C397.5,36.7,399,36.7,400.8,36.7z M399.1,34.2h7.6c0.2,0,0.3,0.1,0.3,0.2
			c0,0.3-0.1,0.5-0.3,0.7c-0.2,0.2-0.5,0.3-0.8,0.3c-0.2,0-0.6,0-1.3-0.1c-0.7,0-1.5,0-2.3,0c-1.4,0-2.4,0-3,0.1
			c-0.4,0.1-0.6,0.1-0.7,0.1c-0.4,0-0.6-0.3-0.6-0.7c0-0.2,0.1-0.4,0.3-0.6C398.5,34.3,398.8,34.2,399.1,34.2z"/>
		<path class="st0" d="M418.7,32.1h3c0-0.4,0-0.9,0-1.3c0-0.6,0.2-0.9,0.7-0.9c0.4,0,0.7,0.3,0.7,0.9c0,0.4,0,0.9,0,1.3h3.4
			c0.2,0,0.4,0.1,0.4,0.3c0,0.3-0.1,0.6-0.3,0.8c-0.2,0.2-0.5,0.3-0.8,0.3c-0.2,0-0.6-0.1-1.3-0.2c-0.4,0-0.9,0-1.4,0
			c0,0.6,0,1.1,0,1.7h0c0.5,0,1.2,0,1.9,0.1c0.2,0,0.5-0.1,0.8-0.2c0.4,0,0.6,0.2,0.6,0.7c0,0,0,0.1,0,0.2c-0.1,0.2-0.1,0.6-0.1,1.1
			c0,0.7-0.1,1.4-0.1,2.2c0,0.5,0,1.1,0.1,2c0,0.5-0.2,0.7-0.6,0.7c-0.9-0.1-1.7-0.2-2.5-0.2l0,1.6h3.4c0.2,0,0.4,0.1,0.4,0.3
			c0,0.3-0.1,0.6-0.3,0.8c-0.2,0.2-0.5,0.3-0.8,0.3c-0.2,0-0.7-0.1-1.4-0.2c-0.4,0-0.8-0.1-1.3-0.1l0,1.8c0,0.9-0.3,1.4-0.8,1.4
			c-0.4,0-0.6-0.5-0.6-1.4c0-0.6,0-1.2,0-1.8c-1.4,0-2.4,0.1-3,0.2c-0.4,0.1-0.6,0.2-0.7,0.2c-0.5,0-0.7-0.2-0.8-0.6
			c0-0.2,0.2-0.5,0.4-0.6c0.2-0.1,0.5-0.2,0.8-0.2h3.3c0-0.5,0-1.1,0-1.6c-0.9,0-1.5,0-1.8,0c-0.3,0-0.6,0.1-1,0.1
			c-0.4,0-0.7-0.2-0.7-0.7c0.1-1.1,0.2-2,0.2-2.8c0-0.8-0.1-1.7-0.2-2.8c0-0.4,0.2-0.6,0.7-0.6c0.2,0,0.4,0,0.7,0.1
			c0.2,0.1,0.6,0.1,1,0.1h1.1c0-0.5,0-1.1,0-1.7c-1.2,0-2.2,0.1-2.7,0.2c-0.4,0.1-0.6,0.2-0.7,0.2c-0.4,0-0.7-0.3-0.7-0.7
			c0-0.2,0.1-0.4,0.4-0.6C418.1,32.1,418.4,32.1,418.7,32.1z M421.7,40.3c0-0.6,0-1.2,0-1.7c-0.7,0-1.3,0.1-1.8,0.1
			c-0.1,0-0.1,0-0.2,0c0,0.5-0.1,0.9-0.1,1.3c0,0.3,0.2,0.4,0.6,0.4C420.7,40.4,421.2,40.3,421.7,40.3z M419.8,37.6
			c0.1,0,0.1,0,0.2,0h1.7c0-0.6,0-1.2,0-1.7c-0.4,0-0.9,0-1.4,0c-0.3,0-0.5,0.2-0.5,0.5C419.8,36.8,419.8,37.2,419.8,37.6z
			 M422.9,35.9l0,1.7h1.8c0,0,0.1,0,0.1,0v-1.3c0-0.2-0.1-0.3-0.2-0.3C424.2,36,423.6,35.9,422.9,35.9z M423,38.6l0,1.8
			c0.5,0,1,0,1.5,0.1c0.3,0,0.4-0.1,0.4-0.3v-1.6C424.2,38.5,423.6,38.6,423,38.6z M429.2,41h2.3l0-1.3c0-0.5,0.3-0.7,0.8-0.7
			c0.6,0,0.8,0.2,0.8,0.7l0,1.3h3.2c0.2,0,0.3,0.1,0.3,0.3c0,0.3-0.1,0.5-0.2,0.7c-0.2,0.2-0.5,0.3-0.8,0.3c-0.2,0-0.6,0-1.2-0.1
			c-0.4,0-0.9,0-1.3,0l-0.1,2.4c0.7,0,1.4,0.1,2.3,0.2c0.8,0.1,1.6,0.1,2.3,0.1c0.4,0,0.7,0,1-0.1c0.1,0,0.1,0.1,0.1,0.3
			c0,0.4-0.1,0.8-0.3,1.2c-0.2,0.4-0.5,0.7-0.7,0.7c-0.2,0-0.4-0.1-0.6-0.2c-0.9-0.5-1.7-0.8-2.4-0.9c-0.6-0.1-1.3-0.2-2.2-0.2
			c-1,0-1.9,0.1-2.6,0.2c-0.8,0.2-1.5,0.5-2.3,0.9c-0.2,0.1-0.4,0.2-0.6,0.2c-0.4,0-0.6-0.3-0.7-0.7c0-0.2,0.1-0.5,0.3-0.7
			c0.2-0.2,0.4-0.3,0.7-0.4c1.9-0.4,3.4-0.6,4.4-0.6l-0.1-2.4c-1,0-1.7,0.1-2.2,0.2c-0.3,0.1-0.6,0.2-0.6,0.2
			c-0.5,0-0.7-0.2-0.7-0.6c0-0.2,0.1-0.5,0.4-0.6C428.6,41,428.9,41,429.2,41z M430,31.4h4.9c0.1,0,0.2,0,0.4-0.1
			c0.2-0.1,0.3-0.1,0.3-0.1c0.4,0,0.6,0.3,0.6,0.7c0,0.2-0.1,0.3-0.3,0.6c-0.3,0.3-0.6,0.7-0.9,1.2c-0.5,0.9-1.1,1.7-1.6,2.3
			c1.5,0.8,2.5,1.3,3,1.4c0.5,0.1,1.1,0.2,1.8,0.3c0.3,0,0.5,0.1,0.5,0.4c0,0.3-0.2,0.6-0.7,0.9c-0.5,0.3-1,0.5-1.5,0.5
			c-0.4,0-0.7-0.1-1-0.4c-0.9-0.7-1.8-1.4-2.8-2.1c-0.1,0.1-0.2,0.2-0.2,0.2c-0.9,0.8-1.7,1.4-2.5,1.8c-0.8,0.4-1.5,0.6-1.8,0.6
			c-0.3,0-0.6-0.2-0.8-0.4c-0.3-0.2-0.4-0.4-0.4-0.6c0-0.2,0.1-0.4,0.4-0.4c1.9-0.6,3.3-1.2,4.1-1.9c0,0,0.1-0.1,0.1-0.1
			c-0.2-0.1-0.3-0.2-0.5-0.3c-0.7-0.4-1.3-0.8-1.9-1c-0.3-0.1-0.4-0.2-0.4-0.4c0-0.4,0.2-0.6,0.6-0.6c0.2,0,0.6,0.2,1.1,0.5
			c0.7,0.4,1.3,0.7,1.9,1c0.5-0.5,1-1.2,1.6-2.1c0.2-0.3,0.3-0.6,0.3-0.7c0-0.1-0.1-0.2-0.3-0.2c-1.1,0-2.2,0.1-3.3,0.2
			c-0.7,0.1-1.2,0.2-1.4,0.2c-0.3,0-0.5-0.2-0.5-0.6c0-0.2,0.1-0.4,0.4-0.6C429.3,31.5,429.6,31.4,430,31.4z"/>
		<path class="st0" d="M449.1,41.7c-0.2,0.8-0.5,1.6-0.9,2.5c-0.6,1.3-1.1,1.9-1.5,1.9c-0.5,0-0.9-0.6-1.3-1.9
			c-0.3-1.1-0.5-2.7-0.5-4.8c0-0.8,0.1-2,0.4-3.6c0.3-1.7,0.6-2.8,0.9-3.4c0.2-0.4,0.5-0.6,0.9-0.6c0.5,0,0.8,0.2,0.8,0.7
			c0,0.1-0.1,0.5-0.4,1c-0.4,0.8-0.6,1.7-0.9,2.8c-0.3,1.1-0.4,2.1-0.4,2.8c0,3.1,0.2,4.7,0.7,4.7c0.2,0,0.7-0.8,1.5-2.3
			c0.1-0.2,0.2-0.3,0.3-0.3C449,41.4,449.1,41.5,449.1,41.7z M461.2,42.5c0,0.1-0.2,0.5-0.5,1.2c-0.3,0.6-0.6,0.9-1,1.1
			c-0.5,0.2-1.6,0.3-3.4,0.3c-1.4,0-2.6-0.2-3.6-0.6c-1.4-0.6-2.1-1.5-2.1-2.7c0-1.3,0.3-2,0.9-2c0.1,0,0.2,0.1,0.2,0.3
			c-0.2,0.6-0.2,1-0.2,1.2c0,1.4,1.1,2.1,3.3,2.1c0.9,0,2-0.1,3.2-0.3c0.7-0.1,1.3-0.3,1.9-0.5c0.5-0.2,0.8-0.3,1-0.3
			C461,42.1,461.1,42.3,461.2,42.5z M459.1,33.8c0,0.2-0.6,0.8-1.8,1.6c-1.2,0.8-1.9,1.2-2.1,1.2c-0.3,0-0.4-0.1-0.4-0.3
			c0-0.1,0.3-0.5,0.8-1c0.5-0.4,0.8-0.8,1.1-0.9c-0.1,0-0.2,0-0.3,0c-1,0-2.1,0.1-3.3,0.3c-1.3,0.2-1.9,0.4-1.8,0.4
			c-0.3,0-0.4-0.2-0.4-0.5c0-0.5,0.2-0.8,0.6-1c0.2,0,0.6-0.1,1.3-0.2c1.6-0.2,3.5-0.2,5.6-0.2C458.8,33.1,459.1,33.4,459.1,33.8z"
			/>
		<path class="st0" d="M482.4,43.2c-0.2,1.3-0.8,2.1-1.8,2.4c-0.4,0.1-1.4,0.2-3.2,0.2c-2.1,0-3.8-0.2-5.2-0.6
			c-2.3-0.6-3.4-1.7-3.4-3.2c0-0.4,0.1-0.9,0.3-1.4c0.3-0.6,0.6-0.9,1.1-0.9c0.1,0,0.2,0.1,0.3,0.3c-0.1,0.1-0.2,0.4-0.5,0.9
			c-0.2,0.3-0.3,0.7-0.3,1c0,1.3,1.5,2,4.6,2c2.4,0,4.3-0.2,5.8-0.6c1.3-0.3,2-0.5,2-0.5C482.2,42.9,482.3,43,482.4,43.2z
			 M479.3,34.4c0,0.3-0.3,0.5-0.9,0.8c-2.5,1.2-3.9,1.8-4.1,1.8c-0.2,0-0.3-0.1-0.3-0.3c0-0.3,0.4-0.6,1.2-1.1
			c0.8-0.5,1.2-0.8,1.3-0.9c-0.1,0-0.3-0.1-0.8-0.1c-1.5,0-2.7,0-3.4,0.1c-0.1,0-0.4,0.1-0.8,0.2c-0.3,0-0.6,0.1-0.8,0.1
			c-0.5,0-0.7-0.2-0.7-0.5c0-0.6,0.3-0.9,0.8-1.1c0.6-0.2,1.5-0.2,2.7-0.2h1.6C477.7,33.1,479.1,33.6,479.3,34.4z M483.7,33.2
			c0,0.1-0.1,0.4-0.4,0.7c-0.3,0.3-0.5,0.5-0.6,0.5c-0.3,0-0.8-0.3-1.4-1c-0.7-0.7-1-1.1-1-1.3c0-0.2,0.1-0.3,0.2-0.3
			c0.6,0.2,1.6,0.6,3,1.1C483.7,33,483.7,33.1,483.7,33.2z M487.3,31.9c0,0.1-0.1,0.4-0.4,0.7c-0.3,0.3-0.5,0.5-0.6,0.5
			c-0.3,0-0.8-0.3-1.5-1c-0.7-0.7-1-1.1-1-1.4c0-0.2,0.1-0.3,0.2-0.3c0.4,0.2,0.9,0.4,1.4,0.6c0.4,0.2,0.9,0.3,1.5,0.5
			C487.2,31.6,487.3,31.7,487.3,31.9z"/>
		<path class="st0" d="M492.3,33.9h3c0-0.8,0-1.7-0.1-2.6c0-0.6,0.2-0.9,0.7-0.9c0.5,0,0.8,0.3,0.8,0.9c0,0.9-0.1,1.8-0.1,2.6h3.1
			c0.2,0,0.3,0.1,0.4,0.3c0,0.3-0.1,0.6-0.3,0.8c-0.2,0.2-0.5,0.3-0.8,0.3c-0.2,0-0.6-0.1-1.2-0.2c-0.4,0-0.7-0.1-1.1-0.1
			c0,0.3,0,0.6,0,0.9l0,1.9c0.1,0,0.2,0,0.3,0c0.1,0,0.6,0.3,1.6,1c0.9,0.7,1.4,1.2,1.4,1.5c0,0.4-0.2,0.6-0.6,0.6
			c-0.1,0-0.2-0.1-0.4-0.2c-1-0.8-1.7-1.3-2.2-1.5l0.1,6.6c0,1-0.3,1.5-0.9,1.5c-0.4,0-0.6-0.5-0.6-1.5c0-2.4,0.1-4.6,0.1-6.4
			c-0.4,0.5-0.8,1-1.2,1.4c-0.6,0.6-1.2,1.1-2,1.5c-0.2,0.1-0.3,0.1-0.4,0.1c-0.4,0-0.8-0.2-1.2-0.7c-0.4-0.4-0.6-0.7-0.6-0.9
			c0-0.2,0.3-0.4,0.7-0.4c0.5-0.1,0.9-0.1,1.2-0.2c0.7-0.2,1.3-0.5,1.9-1c0.6-0.5,1.1-1.1,1.5-1.7c0,0,0.1-0.1,0.1-0.1
			c0-0.5,0-1,0-1.4c0-0.3,0-0.6,0-0.9c-1.3,0-2.2,0.1-2.8,0.3c-0.4,0.1-0.6,0.2-0.7,0.2c-0.5,0-0.8-0.3-0.8-0.7
			c0-0.2,0.2-0.4,0.4-0.6C491.6,33.9,491.9,33.9,492.3,33.9z M502,32.8c0.2,0,0.5,0,0.7,0.1c0.2,0.1,0.6,0.1,1,0.1h2.4
			c0.6,0,1.2,0,2,0.1c0.2,0,0.5-0.1,0.8-0.2c0.4,0,0.7,0.3,0.7,0.8c0,0,0,0.2,0,0.4c-0.1,0.4-0.1,1.1-0.2,2.2c0,1.4-0.1,2.9-0.1,4.4
			c0,1.2,0,2.8,0.1,4.8c0,0.6-0.2,0.8-0.6,0.8c-1.2-0.2-2.2-0.3-3.1-0.3c-1.3,0-2.2,0-2.5,0.1c-0.3,0-0.7,0.1-1.1,0.2
			c-0.4,0-0.6-0.2-0.6-0.6c0.1-2.2,0.2-4.1,0.2-5.7c0-1.8-0.1-3.9-0.2-6.5C501.4,33,501.6,32.8,502,32.8z M505.7,44.9
			c0.6,0,1.3,0,2.1,0.1c0.2,0,0.4-0.1,0.4-0.4v-2.7c0,0-0.1,0-0.1,0c-2.2,0-3.8,0.1-5.1,0.2c0,0-0.1,0-0.1,0c0,0.8-0.1,1.6-0.1,2.4
			c0,0.3,0.2,0.5,0.6,0.5C504,45,504.8,44.9,505.7,44.9z M502.9,40.9c0.1,0,0.2,0,0.3,0h4.9c0,0,0.1,0,0.1,0V38c0,0-0.1,0-0.1,0
			c-2.2,0-3.8,0.1-5.1,0.2h0C502.9,39.1,502.9,40,502.9,40.9z M502.9,37c0.1,0,0.1,0,0.2,0h4.9c0,0,0.1,0,0.1,0v-2.4
			c0-0.2-0.1-0.3-0.2-0.3c-1-0.1-2.5-0.1-4.5-0.1c-0.3,0-0.5,0.2-0.5,0.5C502.9,35.4,502.9,36.2,502.9,37z"/>
		<path class="st0" d="M516.4,33.7h6.8c0.2,0,0.3,0.1,0.3,0.3c0,0.3-0.1,0.5-0.3,0.7c-0.2,0.2-0.4,0.3-0.8,0.3c-0.2,0-0.5,0-1.2-0.1
			c-0.6,0-1.3,0-2,0c-1.3,0-2.2,0.1-2.7,0.2c-0.3,0.1-0.5,0.2-0.6,0.2c-0.5,0-0.7-0.2-0.8-0.6c0-0.2,0.2-0.4,0.4-0.6
			C515.8,33.7,516,33.7,516.4,33.7z M517,41.6c0.2,0,0.5,0,0.7,0.1c0.2,0.1,0.6,0.1,1,0.1h1.3c0.3,0,0.7,0,1.1,0.1
			c0.2,0,0.5-0.1,0.9-0.2c0.4,0,0.6,0.2,0.6,0.7c0,0,0,0.1,0,0.1c-0.1,0.1-0.1,0.4-0.2,0.7c0,0.4-0.1,0.9-0.1,1.5
			c0,0.3,0,0.7,0.1,1.2c0,0.5-0.2,0.7-0.6,0.7c-0.8-0.1-1.5-0.2-2.2-0.2c-1,0-1.6,0-1.8,0c-0.2,0-0.5,0.1-0.8,0.1
			c-0.4,0-0.6-0.2-0.6-0.7c0.1-0.7,0.2-1.4,0.2-1.9c0-0.5-0.1-1.1-0.2-1.8C516.4,41.9,516.6,41.6,517,41.6z M517.6,30.9h4.6
			c0.2,0,0.3,0.1,0.3,0.2c0,0.3-0.1,0.5-0.3,0.7c-0.2,0.2-0.4,0.3-0.8,0.3c-0.1,0-0.3,0-0.7-0.1c-0.4,0-0.8,0-1.2,0
			c-0.9,0-1.5,0.1-1.9,0.2c-0.2,0.1-0.4,0.1-0.4,0.1c-0.4,0-0.6-0.2-0.6-0.6c0-0.2,0.1-0.4,0.4-0.6C517,30.9,517.3,30.9,517.6,30.9z
			 M517.5,36.4h4.2c0.4,0,0.6,0.2,0.6,0.6c0,0.3-0.2,0.5-0.6,0.5c-1.9,0-3.4,0.1-4.4,0.2c-0.5,0-0.7-0.2-0.7-0.6
			C516.6,36.6,516.9,36.4,517.5,36.4z M517.5,38.8h4.2c0.4,0,0.6,0.2,0.6,0.6c0,0.3-0.2,0.5-0.6,0.5c-1.9,0-3.4,0.1-4.4,0.2
			c-0.5,0-0.7-0.2-0.7-0.6C516.6,39,516.9,38.8,517.5,38.8z M519.7,45.4c0.3,0,0.7,0,1.1,0.1c0.2,0,0.4-0.1,0.4-0.3v-2
			c0-0.2-0.1-0.3-0.2-0.3c-0.6-0.1-1.4-0.1-2.5-0.1c-0.3,0-0.5,0.2-0.5,0.5c0,0.6-0.1,1.2-0.2,1.8c0,0.3,0.2,0.4,0.6,0.4
			C518.8,45.4,519.2,45.4,519.7,45.4z M529.4,38c0.6,0,0.8,0.2,0.8,0.7c-0.1,0.6-0.2,1.2-0.2,1.9c0,0.4-0.1,0.9-0.1,1.3
			c0.2,0,0.4,0.2,0.8,0.5c2.3,1.7,3.7,2.6,4.3,2.8c0.4,0.1,0.8,0.2,1.3,0.2c0.3,0,0.5,0.1,0.5,0.4c0,0.3-0.2,0.6-0.7,0.9
			c-0.5,0.3-1,0.5-1.5,0.5c-0.4,0-0.7-0.1-1-0.4c-0.8-1-1.7-2-2.8-3.1c-0.4-0.4-0.8-0.7-1.1-0.9c-0.1,0.2-0.1,0.4-0.2,0.6
			c-0.5,1-1.1,1.7-1.8,2.3c-0.9,0.8-1.7,1.2-2.5,1.2c-0.3,0-0.5-0.1-0.7-0.4c-0.4-0.4-0.6-0.7-0.6-1.1c0-0.2,0.1-0.3,0.4-0.3
			c0.8-0.1,1.5-0.3,2-0.6c0.8-0.3,1.5-1,2.1-2.1c0.4-0.8,0.6-1.8,0.6-3v-1C528.9,38.2,529.1,38,529.4,38z M529.3,30.6
			c0.5,0,0.8,0.2,0.8,0.6c-0.1,0.5-0.2,1-0.2,1.6c0,0.4-0.1,0.8-0.2,1.2c0.2,0,0.4,0.1,0.7,0.3c2.2,1.2,3.5,1.8,4,2
			c0.4,0.1,0.8,0.1,1.2,0.2c0.3,0,0.4,0.1,0.4,0.4c0,0.3-0.2,0.6-0.7,0.9c-0.5,0.3-0.9,0.4-1.4,0.4c-0.3,0-0.6-0.1-0.9-0.4
			c-0.8-0.8-1.6-1.6-2.6-2.4c-0.3-0.3-0.6-0.5-0.9-0.6c0,0.1-0.1,0.2-0.1,0.3c-0.4,0.8-1,1.5-1.6,1.9c-0.8,0.7-1.6,1-2.3,1
			c-0.3,0-0.5-0.1-0.7-0.3c-0.4-0.3-0.5-0.7-0.5-1c0-0.1,0.1-0.2,0.4-0.2c0.8-0.1,1.4-0.2,1.9-0.5c0.8-0.2,1.4-0.8,1.9-1.7
			c0.4-0.7,0.5-1.5,0.5-2.4c-0.1-0.4-0.1-0.7-0.1-1C528.8,30.7,529,30.6,529.3,30.6z M524.5,40.2c0.4,0.1,0.7,0.1,0.8,0.1
			c0.5,0,1.1-0.2,1.8-0.5c0.1,0,0.2,0.1,0.2,0.3c0,0.2-0.2,0.6-0.7,1.1c-0.5,0.6-0.9,0.9-1.2,0.9c-0.3,0-0.5-0.1-0.7-0.4
			c-0.2-0.3-0.4-0.7-0.4-1.1C524.3,40.4,524.3,40.2,524.5,40.2z M524.7,32.1c0.4,0.1,0.6,0.1,0.8,0.1c0.4,0,1-0.1,1.6-0.4
			c0.1,0,0.2,0.1,0.2,0.3c0,0.2-0.2,0.5-0.6,1.1c-0.4,0.5-0.8,0.8-1.1,0.8c-0.3,0-0.5-0.1-0.7-0.4c-0.2-0.3-0.4-0.7-0.4-1.1
			C524.5,32.2,524.5,32.1,524.7,32.1z M531.9,31.8C531.9,31.8,531.9,31.8,531.9,31.8c0.7,0.3,1.2,0.4,1.5,0.5c0.3,0.1,0.6,0.1,1,0.1
			c0.1,0,0.2,0.1,0.2,0.3c0,0.2-0.1,0.5-0.4,0.7c-0.5,0.3-1,0.5-1.2,0.5c-0.1,0-0.2,0-0.2-0.1c-0.1-0.1-0.5-0.7-1-1.6
			c0-0.1,0-0.1,0-0.2C531.6,31.9,531.7,31.8,531.9,31.8z M532.1,39.9C532.2,39.9,532.2,39.9,532.1,39.9c0.7,0.3,1.2,0.5,1.6,0.6
			c0.2,0.1,0.6,0.1,1,0.1c0.1,0,0.2,0.1,0.2,0.3c0,0.2-0.2,0.5-0.5,0.7c-0.5,0.3-0.9,0.5-1.2,0.5c-0.1,0-0.2,0-0.2-0.1
			c-0.1-0.2-0.5-0.7-1-1.6c0-0.1,0-0.2,0-0.2C531.9,40,532,39.9,532.1,39.9z"/>
		<path class="st0" d="M554,45c0,0.3-0.4,0.7-1.1,1.2c-0.7,0.5-1.2,0.7-1.5,0.7c-0.2,0-0.5-0.3-1-1c-0.8-1.1-1.8-2.2-3-3.2
			c-1.2-1-2.6-2-4.2-3c-0.5-0.3-0.8-0.5-0.8-0.8c0-0.2,0.4-0.7,1.3-1.3c1-0.7,2-1.7,2.9-2.8c0.5-0.6,1.3-1.7,2.4-3.3
			c0.3-0.4,0.6-0.6,1-0.6c0.6,0,0.9,0.3,0.9,0.9c0,0.4-0.8,1.5-2.5,3.1c-1.3,1.3-2.4,2.2-3.3,2.9c-0.3,0.2-0.7,0.6-1.3,1
			c2.8,1.6,4.9,3,6.3,4.1c0.7,0.5,1.2,0.9,1.5,1.1c0.6,0.4,1.2,0.6,1.7,0.8C553.7,44.8,553.8,44.9,554,45z"/>
		<path class="st0" d="M573.7,34.1c0,0.2-0.1,0.4-0.3,0.7s-0.3,0.5-0.5,0.5c-1.1-0.2-2-0.3-2.8-0.3c-0.1,0-0.3,0-0.5,0
			c-0.2,0-0.4,0-0.5,0c-0.4,1.7-0.8,3.3-1.4,4.7c-1.6,4.1-2.9,6.1-3.8,6.1c-0.3,0-0.6-0.1-1-0.2c-0.5-0.2-0.7-0.4-0.7-0.6
			c0-0.1,0.3-0.5,1-1.2c1.1-1.1,2.1-2.5,3-4.1c0.9-1.6,1.5-3.2,1.8-4.6c-1.5,0.1-2.9,0.3-4.1,0.7c-0.4-0.1-0.6-0.2-0.6-0.6
			s0.1-0.5,0.2-0.7c0.1-0.2,0.9-0.3,2.2-0.5c0.8-0.1,1.6-0.2,2.4-0.2c0.1-0.6,0.2-1.4,0.2-2.1c0-0.6,0.3-0.9,0.7-0.9
			c0.4,0,0.7,0.2,0.7,0.6c0,0.2-0.1,1-0.4,2.3c2.1-0.1,3.4-0.2,3.7-0.2S573.7,33.8,573.7,34.1z M580.2,43.7c0,0.4-0.1,0.8-0.4,1.4
			c-0.3,0.5-0.8,0.9-1.5,1.1c-0.4,0.1-1,0.1-1.9,0.1c-4.1,0-6.1-1-6.1-3c0-0.3,0.1-0.6,0.2-0.9c0.1-0.4,0.3-0.6,0.6-0.6
			c0.3,0,0.4,0.1,0.4,0.4c0,0.1,0,0.3-0.1,0.5c0,0.2-0.1,0.4-0.1,0.5c0,0.9,0.8,1.4,2.3,1.4c2.4,0,4.4-0.4,5.8-1.1
			c0.4-0.2,0.6-0.3,0.6-0.3C580.1,43.2,580.2,43.4,580.2,43.7z M577.9,37.4c-0.1,0.2-0.6,0.7-1.5,1.4c-0.9,0.7-1.6,1.1-1.9,1.2
			c-0.1,0-0.2-0.1-0.2-0.3c0-0.2,0.2-0.5,0.6-0.9c0.3-0.2,0.6-0.5,0.8-0.8c-0.1,0-0.3,0-0.6,0c-1.1,0-2,0.1-2.7,0.2
			c-0.9,0.2-1.3,0.3-1.3,0.3c-0.3,0-0.5-0.1-0.5-0.4c0-0.3,0.1-0.5,0.3-0.7c0.4-0.4,1.9-0.6,4.6-0.6h0.9
			C577.3,36.8,577.8,37,577.9,37.4z M578.9,33.2c0,0.1-0.1,0.4-0.4,0.7c-0.3,0.3-0.5,0.5-0.6,0.5c-0.3,0-0.8-0.3-1.4-1
			c-0.7-0.7-1-1.1-1-1.3c0-0.2,0.1-0.3,0.2-0.3c0.6,0.2,1.6,0.6,3,1.1C578.9,33,578.9,33.1,578.9,33.2z M581.9,31.9
			c0,0.2-0.2,0.4-0.5,0.7c-0.3,0.3-0.5,0.5-0.6,0.5c-0.3,0-0.7-0.3-1.4-1c-0.6-0.7-0.9-1.1-0.9-1.4c0-0.2,0.1-0.3,0.2-0.3
			c0,0,0.5,0.2,1.3,0.6c0.4,0.2,0.8,0.3,1.5,0.5C581.8,31.6,581.9,31.7,581.9,31.9z"/>
		<path class="st0" d="M602.8,34.2c0,0.3-0.2,0.8-0.6,1.3c-0.4,0.6-0.8,0.9-1,0.9c-0.1,0-0.5-0.1-1.1-0.4c-0.8-0.3-2.4-0.6-4.6-0.7
			c0.7,1.9,1.6,3.5,2.8,4.7c0.2,0.2,0.4,0.4,0.6,0.7c-0.1,0.4-0.3,0.7-0.6,0.9c-0.1,0-0.6-0.2-1.2-0.5c-0.7-0.3-1.2-0.5-1.4-0.6
			c-0.7-0.2-1.4-0.3-2.3-0.3c-2.7,0-4,0.7-4,2.2c0,0.8,0.4,1.4,1.3,1.8c0.6,0.3,1.4,0.4,2.3,0.4c2,0,3.6-0.3,4.8-0.8
			c0.6-0.3,1-0.4,1.1-0.4c0.2,0,0.3,0.1,0.3,0.3c0,0.3-0.1,0.7-0.4,1.3c-0.4,0.9-1.8,1.3-4.1,1.3c-1.6,0-3-0.2-4.2-0.6
			c-1.6-0.6-2.4-1.6-2.4-3c0-1.3,0.6-2.2,1.9-2.8c1-0.5,2.2-0.7,3.6-0.7c1,0,2,0.2,3.1,0.5c-1-1.3-1.8-2.8-2.4-4.4
			c-2.3,0.1-4.3,0.4-6,0.9c-0.6,0.2-1,0.2-1.2,0.2c-0.4,0-0.6-0.3-0.6-0.9c0-0.6,0.5-0.9,1.5-1c1.3-0.1,3.2-0.2,5.8-0.5
			c-0.5-1.2-0.7-2-0.7-2.4c0-0.5,0.3-0.8,0.9-0.8c0.3,0,0.6,0.4,0.8,1.3c0.1,0.6,0.3,1.3,0.4,1.9c1.9,0,3.9,0,6,0c0.1,0,0.4,0,0.6,0
			c0.3,0,0.6,0,0.7,0C602.6,33.9,602.7,34,602.8,34.2z"/>
		<path class="st0" d="M617.9,41.2c0,0.5-0.5,1.4-1.6,2.7c-1.1,1.3-2,2-2.6,2c-0.6,0-1.2-0.4-1.9-1.1c-1.2-1.4-1.8-3.9-1.8-7.6
			c0-1.9,0.1-3,0.3-3.5c0.2-0.3,0.4-0.5,0.8-0.5c0.5,0,0.8,0.2,0.8,0.7c0,0-0.1,0.5-0.2,1.3c-0.2,1.4-0.3,2.7-0.3,3.9
			c0,1.5,0.3,2.7,0.8,3.6c0.5,0.8,1,1.2,1.5,1.2c0.5,0,1.2-0.5,2.3-1.5c1-1,1.6-1.5,1.7-1.5C617.8,40.8,617.9,40.9,617.9,41.2z
			 M627,40.5c0,0.3-0.3,0.7-0.8,1.2c-0.5,0.4-0.9,0.6-1.2,0.6c-0.5,0-1.3-0.8-2.3-2.4c-1-1.6-1.6-2.8-1.6-3.3c0-0.2,0.1-0.3,0.3-0.3
			c0.2,0,0.5,0.3,1,1c0.5,0.7,1.2,1.3,1.9,1.8c0.7,0.6,1.4,1,1.9,1.1c0.2,0,0.3,0.1,0.4,0.1C626.8,40.3,626.9,40.4,627,40.5z"/>
		<path class="st0" d="M638.8,44.9c0,0.8-0.3,1.5-0.8,2c-0.5,0.5-1.2,0.8-2,0.8c-0.8,0-1.5-0.3-2-0.8c-0.6-0.6-0.8-1.2-0.8-2
			s0.3-1.5,0.8-2c0.6-0.6,1.2-0.9,2-0.9c0.8,0,1.5,0.3,2,0.9C638.5,43.4,638.8,44.1,638.8,44.9z M637.9,44.9c0-0.5-0.2-1-0.6-1.4
			c-0.4-0.4-0.8-0.6-1.4-0.6c-0.5,0-1,0.2-1.4,0.6c-0.4,0.4-0.6,0.9-0.6,1.4s0.2,1,0.6,1.4c0.4,0.4,0.9,0.6,1.4,0.6
			c0.5,0,1-0.2,1.4-0.6C637.7,45.9,637.9,45.5,637.9,44.9z"/>
	</g>
</g>
</svg>
