<?xml version="1.0" encoding="utf-8"?>
<!-- Generator: Adobe Illustrator 24.0.3, SVG Export Plug-In . SVG Version: 6.00 Build 0)  -->
<svg version="1.1" id="レイヤー_1" xmlns="http://www.w3.org/2000/svg" xmlns:xlink="http://www.w3.org/1999/xlink" x="0px"
	 y="0px" viewBox="0 0 460.3 77.6" style="enable-background:new 0 0 460.3 77.6;" xml:space="preserve">
<style type="text/css">
	.st0{fill:#503819;}
</style>
<g>
	<path class="st0" d="M47.1,13c-0.2,1.3-0.8,2.1-1.8,2.4c-0.4,0.1-1.4,0.2-3.2,0.2c-2,0-3.8-0.2-5.2-0.6c-2.3-0.6-3.4-1.7-3.4-3.2
		c0-0.5,0.1-0.9,0.4-1.4c0.3-0.6,0.6-0.9,1.1-0.9c0.1,0,0.2,0.1,0.2,0.3c0,0.1-0.2,0.4-0.4,0.9c-0.2,0.4-0.3,0.7-0.3,1
		c0,1.3,1.5,2,4.6,2c2.4,0,4.3-0.2,5.8-0.6c1.4-0.3,2-0.5,2-0.5C47,12.7,47.1,12.8,47.1,13z M44,4.2c0,0.2-0.3,0.5-0.9,0.8
		c-2.5,1.2-3.9,1.8-4.1,1.8c-0.2,0-0.3-0.1-0.3-0.3c0-0.3,0.4-0.6,1.2-1.1c0.8-0.5,1.2-0.8,1.3-0.9c-0.1-0.1-0.4-0.1-0.8-0.1
		c-1.5,0-2.6,0.1-3.4,0.2c-1.1,0.1-1.6,0.2-1.6,0.2c-0.5,0-0.7-0.2-0.7-0.5c0-0.7,0.5-1.1,1.4-1.2c0.2,0,1-0.1,2.1-0.1h1.5
		C42.6,3,44,3.4,44,4.2z"/>
	<path class="st0" d="M71.7,12.6c0,0.4-0.2,0.9-0.5,1.6c-0.4,0.9-1.7,1.3-3.8,1.3c-2.4,0-3.7-0.9-3.7-2.8c0-0.7,0.3-1.8,1-3.4
		c0.6-1.6,1-2.6,1-3.2c0-0.2-0.1-0.4-0.3-0.5c-0.2-0.1-0.4-0.2-0.6-0.2c-1.7,0-3.7,1.2-6.1,3.7v4.7c0,0.2,0,0.6,0,1c0,0.5,0,0.8,0,1
		c0,0.5-0.3,0.8-0.9,0.8c-0.3,0-0.5-0.2-0.6-0.6c-0.1-0.4-0.1-2.6,0-6.5c-1.2,1.4-2.2,2.7-2.8,3.6c-0.3,0.4-0.5,0.6-0.7,0.6
		c-0.5,0-0.8-0.3-0.8-0.9c0-0.4,0.6-1.4,1.9-2.8c0,0,0.8-0.9,2.4-2.6V7.2c0-0.1,0-0.7,0.1-1.9C55.9,5.5,54.8,5.7,54,6
		c-0.3,0-0.5-0.2-0.5-0.5c0-0.6,0.4-1,1.2-1.1c0.4-0.1,1.3-0.2,2.7-0.4l0-2.3c0-0.9,0.3-1.3,0.8-1.3c0.5,0,0.7,0.2,0.7,0.7
		c-0.1,0.1-0.2,1.1-0.2,2.8c0,0,0.1,0,0.2,0c0.1,0,0.2,0,0.2,0c0.5,0,0.8,0.2,0.8,0.6c0,0.3-0.2,0.7-0.5,1.2
		c-0.2,0.4-0.5,0.7-0.8,1.1v0.9c0.9-0.9,1.8-1.6,2.9-2.2C62.9,4.7,64,4.2,65,4.2c0.5,0,0.9,0.2,1.3,0.5C66.8,5.1,67,5.5,67,6
		c0,0.5-0.3,1.6-0.9,3.3c-0.6,1.8-0.9,2.9-0.9,3.5c0,0.7,0.4,1,1.3,1c0.9,0,1.9-0.3,3.1-0.9c1.2-0.6,1.8-0.9,1.9-0.9
		C71.6,12,71.7,12.2,71.7,12.6z"/>
	<path class="st0" d="M92,14.1c-0.1,0.3-0.3,0.7-0.8,1.2c-0.4,0.5-0.8,0.8-1.1,0.8c-0.4,0-1-0.3-2-0.9c-0.6-0.4-1.2-0.8-1.7-1.2
		c-0.5-0.3-1.1-0.6-2-0.9c-0.2,2-1.4,3-3.7,3c-0.9,0-1.6-0.2-2.3-0.6c-0.8-0.4-1.2-1.1-1.2-1.9c0-0.9,0.4-1.5,1.3-1.9
		c0.7-0.3,1.5-0.5,2.4-0.5c0.6,0,1.4,0.1,2.2,0.3c0-0.4,0-0.9,0-1.5c0-0.8,0-1.3,0-1.5c0,0,0,0,0-0.1c0-0.1,0-0.1,0-0.1
		c-1.6,0.1-2.9,0.2-3.9,0.4c-0.1,0-0.2,0-0.4,0.1c-0.2,0.1-0.3,0.1-0.4,0.1c-0.4,0-0.6-0.2-0.6-0.7c0-0.5,0.4-0.9,1.3-0.9
		c0.7-0.1,2-0.2,3.8-0.2c0-0.8,0-1.8,0-3c-1.3,0-2.1,0.1-2.3,0.1c-0.9,0.1-1.6,0.2-2.3,0.3c-0.6,0.2-0.9,0.2-1,0.2
		c-0.5,0-0.8-0.3-0.8-0.9c0-0.2,0.1-0.4,0.2-0.5C77.3,3.1,79.3,3,83.1,3c0-1.1-0.1-1.8-0.1-1.9c0-0.6,0.3-0.9,0.8-0.9
		c0.6,0,0.9,0.3,0.9,0.9c0,0.5,0,1.2-0.1,1.9c2.9,0.1,4.9,0.2,5.8,0.2c0.4,0,0.5,0.1,0.5,0.2c0,0.3-0.1,0.6-0.4,1
		c-0.3,0.4-0.5,0.6-0.7,0.6c0.1,0-0.3-0.1-1.2-0.4c-0.9-0.2-2.2-0.4-4.1-0.5c0,1,0,2,0,2.9c1.8,0,3.4,0.1,4.8,0.3
		c0.1,0,0.2,0,0.3,0.1c0,0,0.1,0.1,0.1,0.2c0,0.3-0.1,0.5-0.3,0.8c-0.2,0.3-0.4,0.5-0.6,0.5c0,0-0.6-0.1-1.5-0.3
		c-0.8-0.2-1.8-0.2-2.9-0.3c0,0.2,0,1.3-0.1,3.6c1.5,0.4,2.9,0.9,4.2,1.4c0.9,0.3,1.8,0.5,2.8,0.6C91.8,13.8,91.9,13.9,92,14.1z
		 M83.1,12.6c-1-0.3-1.8-0.4-2.4-0.4c-1.6,0-2.5,0.5-2.5,1.4c0,0.4,0.3,0.8,0.9,1c0.4,0.2,0.9,0.3,1.4,0.3c0.8,0,1.4-0.2,1.8-0.6
		C82.7,14,83,13.4,83.1,12.6z"/>
	<path class="st0" d="M113.1,3.5c0,0.4-0.2,0.6-0.6,0.6c-0.2,0-0.4,0-0.8-0.1c-0.4,0-0.6-0.1-0.8-0.1c-1.8,0-3.5,0.5-4.9,1.6
		c-1.6,1.2-2.4,2.7-2.4,4.5c0,1.5,0.7,2.6,2,3.3c1.1,0.6,2.4,0.9,4,0.9c0.3,0,0.6,0,1.2,0c0.5-0.1,0.9-0.1,1.2-0.1
		c0.2,0,0.3,0.1,0.3,0.3c-0.1,0.5-0.4,1-0.9,1.4c-0.5,0.4-1,0.6-1.5,0.6c-2,0-3.7-0.5-5.2-1.5c-1.6-1.1-2.4-2.6-2.4-4.5
		c0-1.5,0.5-2.8,1.5-3.9c0.8-0.9,1.9-1.7,3.5-2.5c-3.2,0.3-6.1,0.8-8.8,1.5c-0.3,0.1-0.6,0.2-1,0.3c-0.4,0-0.6-0.2-0.6-0.6
		c0-0.4,0.1-0.8,0.3-1c0.2-0.2,0.7-0.4,1.4-0.5c2.2-0.3,5-0.6,8.5-0.8c2.9-0.2,4.7-0.3,5.1-0.3c0.3,0,0.5,0.1,0.7,0.3
		C113,3,113.1,3.2,113.1,3.5z M112,7.9c0,0.1-0.2,0.4-0.5,0.7c-0.2,0.3-0.4,0.5-0.6,0.5c-0.3,0-0.8-0.3-1.4-1c-0.7-0.7-1-1.1-1-1.4
		c0-0.2,0.1-0.3,0.2-0.3c0.1,0,0.4,0.2,0.9,0.5c0.4,0.3,1.1,0.5,1.9,0.6C111.8,7.6,112,7.7,112,7.9z M115.5,7c0,0.1-0.2,0.4-0.5,0.7
		c-0.3,0.3-0.4,0.5-0.6,0.5c-0.3,0-0.7-0.3-1.4-1c-0.7-0.7-1-1.1-1-1.4c0-0.2,0.1-0.3,0.2-0.3c0,0,0.3,0.1,0.8,0.4
		c0.6,0.4,1.3,0.6,2,0.7C115.3,6.7,115.4,6.8,115.5,7z"/>
	<path class="st0" d="M136.1,8.5c0,2.8-1.5,4.9-4.6,6.3c-1.2,0.6-2.2,0.9-2.9,0.9c-0.4,0-0.8-0.2-1.2-0.5c-0.4-0.3-0.7-0.7-0.7-1.1
		c0-0.1,0.2-0.3,0.6-0.3c0.3,0,0.7-0.1,1.2-0.2c1.4-0.2,2.6-0.6,3.5-1.1c0.8-0.5,1.5-1.1,2-1.8c0.6-0.8,0.8-1.7,0.8-2.6
		c0-0.7-0.2-1.5-0.7-2.2c-0.9-1.6-2.5-2.4-4.8-2.4c-0.1,0-0.2,0-0.4,0c-0.2,0-0.3,0-0.3,0c-0.9,4.1-2.1,7.2-3.6,9
		c-0.9,1.1-1.6,1.6-2.2,1.6c-0.8,0-1.5-0.6-2.1-1.9c-0.4-1-0.6-2-0.6-3c0-1.5,0.5-2.9,1.5-4.1c1.6-1.9,4-2.8,7.2-2.8
		c2,0,3.7,0.5,5.1,1.6C135.3,5,136.1,6.5,136.1,8.5z M127.1,3.6c-2.1,0.4-3.6,1.1-4.5,2.2C121.7,7,121.2,8,121.2,9
		c0,0.6,0.1,1.2,0.4,2c0.3,0.9,0.7,1.3,1.2,1.3c0.4,0,0.9-0.3,1.4-1C125.4,9.7,126.4,7.1,127.1,3.6z"/>
	<path class="st0" d="M145.9,7.5c0.2,0,0.4,0.1,0.4,0.3c0,0.3-0.1,0.5-0.3,0.6l-4.3,1.6c-0.6,0-0.8-0.2-0.8-0.7c0-0.6,0.2-1,0.6-1
		L145.9,7.5z M143.3,0.5c0.1,0,0.3,0.1,0.6,0.2c0.8,0.6,1.7,1.3,2.7,2c0.1,0.1,0.2,0.2,0.2,0.3c0,0.3-0.2,0.4-0.5,0.4
		c-0.1,0-0.2,0-0.5-0.1c-1.5-0.6-2.4-0.9-2.8-1.1c-0.4-0.3-0.7-0.6-0.7-1C142.4,0.7,142.7,0.5,143.3,0.5z M146.3,13
		c0.3,0,0.4,0.1,0.4,0.4c0,0.2-0.1,0.4-0.2,0.6c-1.6,1.8-2.5,2.6-2.7,2.6c-0.7,0-1-0.2-1-0.6c0-0.5,0.1-0.9,0.4-1
		C143.1,14.9,144.2,14.2,146.3,13z M158.6,0.7c0.3,0,0.5,0.1,0.5,0.4c0,0.3-0.1,0.5-0.4,0.6c-1.4,0.4-2.6,0.8-3.8,1.1l0,3.4
		c0.7,0,1.6,0,2.5,0.1c1,0,1.8,0.1,2.5,0.1c0.5,0,1-0.1,1.7-0.2c0.1,0,0.2,0.2,0.2,0.5c0,0.5-0.2,1-0.6,1.6
		c-0.3,0.4-0.5,0.6-0.7,0.6c-0.3,0-0.7-0.1-1.2-0.4c-0.7-0.4-1.5-0.6-2.4-0.8c-0.7-0.1-1.4-0.2-2.1-0.2l0,3.5h0c0.7,0,1.5,0,2.4,0.1
		c0.2,0,0.5-0.1,0.9-0.2c0.4,0,0.6,0.2,0.6,0.7c0,0,0,0.1,0,0.2c-0.1,0.2-0.1,0.5-0.2,0.9c0,0.6-0.1,1.2-0.1,1.8
		c0,0.4,0,0.9,0.1,1.6c0,0.5-0.2,0.8-0.6,0.8c-1.5-0.1-2.8-0.2-3.9-0.2c-1.4,0-2.2,0-2.6,0c-0.3,0-0.7,0.1-1.2,0.1
		c-0.4,0-0.6-0.2-0.6-0.7c0.1-0.9,0.2-1.7,0.2-2.4c0-0.6-0.1-1.4-0.2-2.4c0-0.4,0.2-0.6,0.6-0.6c0.2,0,0.5,0,0.7,0.1
		c0.2,0.1,0.6,0.1,1,0.1h1.6l0-3.5c-0.9,0-1.8,0.1-2.6,0.2c-0.6,0.1-1.5,0.4-2.7,1c-0.6,0-0.8-0.2-0.8-0.6c0-0.3,0.1-0.5,0.4-0.7
		c0.3-0.3,0.7-0.5,1.2-0.5c1.9-0.3,3.5-0.4,4.6-0.5l0-3c-0.4,0.1-0.8,0.2-1.2,0.2c-1.1,0.2-1.9,0.3-2.2,0.3c-0.4,0-0.8-0.2-1.2-0.5
		c-0.2-0.2-0.4-0.5-0.4-0.8c0-0.2,0.1-0.3,0.4-0.3c2.2,0,4.1-0.2,5.5-0.5c1.5-0.2,2.7-0.5,3.7-0.8C158.3,0.7,158.5,0.7,158.6,0.7z
		 M154,15.3c0.9,0,1.8,0,2.9,0.1c0.2,0,0.4-0.1,0.4-0.3v-3c0-0.2-0.1-0.3-0.2-0.3c-1.2,0-3.1-0.1-5.4-0.1c-0.3,0-0.5,0.2-0.5,0.5
		c0,1-0.1,1.9-0.2,2.8c0,0.3,0.2,0.4,0.6,0.4C152.3,15.3,153.1,15.3,154,15.3z"/>
	<path class="st0" d="M174.5,0.3c0.3,0,0.5,0.2,0.5,0.5c0,0.3-0.1,0.5-0.4,0.6c-1.2,0.3-2.4,0.5-3.4,0.6v1.4h4.2
		c0.2,0,0.4,0.1,0.4,0.3c0,0.3-0.1,0.6-0.3,0.8c-0.2,0.2-0.5,0.3-0.8,0.3c-0.2,0-0.8-0.1-1.7-0.2c-0.6,0-1.2-0.1-1.8-0.1v1.1
		c0.7,0,1.5,0,2.4,0.1c0.2,0,0.5,0,0.8-0.1c0.4,0,0.7,0.2,0.7,0.6c0,0,0,0.1-0.1,0.1c-0.1,0.2-0.1,0.4-0.1,0.8
		c0,0.5-0.1,1.1-0.1,1.7c0,0.4,0,0.9,0.1,1.5c0,0.4-0.2,0.6-0.7,0.6c-1.1-0.1-2.1-0.2-3-0.2l0,1.1h3.3c0.2,0,0.3,0.1,0.3,0.3
		c0,0.3-0.1,0.5-0.3,0.6c-0.2,0.2-0.5,0.3-0.8,0.3c-0.2,0-0.6,0-1.3-0.1c-0.4,0-0.8,0-1.2,0v1.1c1.4-0.2,2.5-0.3,3.3-0.4
		c0.2,0,0.3,0.1,0.3,0.4c0,0.3-0.1,0.5-0.4,0.6c-3,0.5-5.8,1.1-8.3,1.8c-0.5,0-0.8-0.2-0.8-0.6c0-0.3,0.1-0.6,0.2-0.7
		c0.1-0.1,0.4-0.2,0.8-0.3c1.4-0.2,2.6-0.4,3.6-0.5v-1.3c-1.2,0-2.1,0.1-2.7,0.2c-0.4,0.1-0.6,0.2-0.7,0.2c-0.4,0-0.6-0.3-0.6-0.7
		c0-0.2,0.1-0.4,0.3-0.6c0.2-0.1,0.5-0.2,0.8-0.2h2.9V11c-1.2,0-2,0-2.4,0.1c-0.3,0-0.7,0.1-1.2,0.2c-0.4,0-0.6-0.2-0.6-0.6
		c0.1-0.9,0.2-1.6,0.2-2.3c0-0.6-0.1-1.3-0.2-2.2c0-0.4,0.2-0.6,0.6-0.6c0.2,0,0.5,0,0.7,0c0.2,0,0.6,0,1,0h1.8V4.5
		c-1.7,0-2.9,0.1-3.6,0.2c-0.4,0.1-0.7,0.2-0.9,0.2c-0.4,0-0.7-0.2-0.7-0.6c0-0.2,0.1-0.4,0.4-0.6c0.2-0.1,0.5-0.2,0.8-0.2h4.1
		l0-1.2c-0.3,0-0.6,0.1-0.9,0.1c-1,0.1-1.7,0.2-2,0.2c-0.4,0-0.8-0.1-1.1-0.4c-0.2-0.2-0.3-0.5-0.3-0.7c0-0.2,0.1-0.3,0.4-0.3
		c2,0,3.7-0.1,5-0.3c1.3-0.1,2.4-0.3,3.3-0.5C174.2,0.3,174.4,0.3,174.5,0.3z M169.7,10V8.9c-1,0-1.8,0.1-2.5,0.1
		c-0.1,0-0.1,0-0.2,0c0,0.2-0.1,0.4-0.1,0.7c0,0.3,0.2,0.5,0.6,0.5C168.2,10.1,168.9,10,169.7,10z M167.1,7.9c0.1,0,0.2,0,0.2,0h2.4
		l0-1.2c-0.6,0-1.3,0-2.1,0c-0.3,0-0.5,0.1-0.5,0.4C167.1,7.3,167.1,7.6,167.1,7.9z M171.2,6.7l0,1.2h2.3c0,0,0.1,0,0.1,0v-1
		c0-0.1-0.1-0.2-0.2-0.2C172.7,6.7,172,6.7,171.2,6.7z M171.1,8.8v1.2c0.6,0,1.3,0,2,0.1c0.3,0,0.4-0.1,0.4-0.4v-1
		C172.7,8.8,171.9,8.8,171.1,8.8z M179.5,5.2c0.2-1.5,0.4-2.9,0.4-4.1c0-0.4,0.3-0.6,0.6-0.6c0.5,0,0.7,0.2,0.7,0.7
		c0,0.1,0,0.4-0.1,0.9c-0.1,1.2-0.3,2.2-0.4,3.2h3c0.1,0,0.4-0.1,0.8-0.2c0.6,0,0.8,0.3,0.8,0.8c-0.4,1.8-0.6,3.6-0.7,5.4
		c-0.2,2.5-0.6,4.1-1.4,4.8c-0.6,0.7-1.4,1.1-2.4,1.1c-0.4,0-0.8-0.2-1-0.5c-0.2-0.3-0.3-0.6-0.3-0.9s0.1-0.4,0.4-0.5
		c1.3-0.1,2.1-0.4,2.5-0.9c0.5-0.5,0.8-2.1,1.1-4.7c0.2-1.6,0.2-2.6,0.2-2.9c0-0.3-0.1-0.4-0.3-0.4h-3c-0.2,1.2-0.4,2.2-0.6,3
		c-0.4,1.5-0.9,3-1.5,4.3c-0.5,1.1-1.2,2.1-2.1,2.9c-0.3,0.3-0.6,0.5-0.9,0.5c-0.2,0-0.5-0.1-0.8-0.4c-0.3-0.3-0.4-0.6-0.5-0.9
		c0-0.2,0.1-0.4,0.3-0.4c0.9-0.3,1.5-0.8,2-1.4c0.6-0.8,1.2-2,1.8-3.6c0.4-1.2,0.7-2.5,1-4c-0.6,0-1.1,0.1-1.7,0.2
		c-0.5,0.1-0.8,0.2-1,0.2c-0.4,0-0.6-0.2-0.6-0.5c0-0.5,0.2-0.8,0.7-0.9C177.2,5.2,178.1,5.2,179.5,5.2z"/>
	<path class="st0" d="M206,3.5c0,0.4-0.2,0.6-0.6,0.6c-0.2,0-0.4,0-0.8-0.1c-0.4,0-0.6-0.1-0.8-0.1c-1.8,0-3.5,0.5-4.9,1.6
		c-1.6,1.2-2.4,2.7-2.4,4.5c0,1.5,0.7,2.6,2,3.3c1.1,0.6,2.4,0.9,4,0.9c0.3,0,0.6,0,1.2,0c0.5-0.1,0.9-0.1,1.2-0.1
		c0.2,0,0.3,0.1,0.3,0.3c-0.1,0.5-0.4,1-0.9,1.4c-0.5,0.4-1,0.6-1.5,0.6c-2,0-3.7-0.5-5.2-1.5c-1.6-1.1-2.4-2.6-2.4-4.5
		c0-1.5,0.5-2.8,1.5-3.9c0.8-0.9,1.9-1.7,3.5-2.5c-3.2,0.3-6.1,0.8-8.8,1.5c-0.3,0.1-0.6,0.2-1,0.3c-0.4,0-0.6-0.2-0.6-0.6
		c0-0.4,0.1-0.8,0.3-1c0.2-0.2,0.7-0.4,1.4-0.5c2.2-0.3,5-0.6,8.5-0.8c2.9-0.2,4.7-0.3,5.1-0.3c0.3,0,0.5,0.1,0.7,0.3
		C205.9,3,206,3.2,206,3.5z M204.9,7.9c0,0.1-0.2,0.4-0.5,0.7c-0.2,0.3-0.4,0.5-0.6,0.5c-0.3,0-0.8-0.3-1.4-1c-0.7-0.7-1-1.1-1-1.4
		c0-0.2,0.1-0.3,0.2-0.3c0.1,0,0.4,0.2,0.9,0.5c0.4,0.3,1.1,0.5,1.9,0.6C204.7,7.6,204.9,7.7,204.9,7.9z M208.4,7
		c0,0.1-0.2,0.4-0.5,0.7c-0.3,0.3-0.4,0.5-0.6,0.5c-0.3,0-0.7-0.3-1.4-1c-0.7-0.7-1-1.1-1-1.4c0-0.2,0.1-0.3,0.2-0.3
		c0,0,0.3,0.1,0.8,0.4c0.6,0.4,1.3,0.6,2,0.7C208.2,6.7,208.4,6.8,208.4,7z"/>
	<path class="st0" d="M212.8,5.1h2.1l-0.1-4c0-0.5,0.2-0.7,0.7-0.7c0.6,0,0.9,0.2,0.9,0.7l-0.1,4h2.4c0.2,0,0.3,0.1,0.3,0.3
		c0,0.2-0.1,0.5-0.3,0.6c-0.2,0.2-0.4,0.3-0.8,0.3c-0.1,0-0.5,0-1-0.1c-0.2,0-0.5,0-0.7,0l-0.1,4.4c1-0.2,1.8-0.4,2.3-0.4
		c0.3,0,0.4,0.1,0.4,0.4c0,0.4-0.2,0.6-0.5,0.6c-2.2,0.6-4.2,1.3-6,2.1c-0.5,0-0.7-0.2-0.7-0.6s0.1-0.7,0.2-0.9
		c0.1-0.2,0.3-0.3,0.6-0.4c0.9-0.2,1.8-0.4,2.5-0.6l-0.1-4.7c-0.9,0-1.6,0.1-2.1,0.2c-0.3,0.1-0.5,0.2-0.6,0.2
		c-0.5,0-0.7-0.3-0.8-0.7c0-0.2,0.2-0.4,0.4-0.6C212.1,5.1,212.4,5.1,212.8,5.1z M223.1,4.5c0.5,0,0.7,0.2,0.7,0.7l0.1,1.6
		c0,0.1,0,0.2,0,0.3c0.7-0.1,1.2-0.1,1.7-0.1c0.6,0,1.2,0,1.9,0.1c0-0.1,0-0.2,0-0.3l0.2-1.5c0-0.6,0.2-0.8,0.7-0.8s0.7,0.2,0.7,0.7
		L228.5,7c0,0.1-0.1,0.1-0.1,0.2c0.3,0,0.6,0.1,0.9,0.1c1,0.1,2,0.2,2.9,0.2c0.4,0,0.7,0,1-0.1c0.1,0,0.1,0.1,0.1,0.3
		c0,0.4-0.1,0.8-0.3,1.2c-0.2,0.4-0.5,0.7-0.7,0.7c-0.3,0-0.6-0.1-0.8-0.3c-1.1-0.5-2.1-0.8-3.1-1c-0.7-0.1-1.6-0.2-2.7-0.2
		c-1.2,0-2.2,0.1-3.1,0.2c-0.9,0.2-1.9,0.5-2.8,0.9c-0.3,0.1-0.5,0.2-0.7,0.2c-0.4,0-0.6-0.3-0.6-0.7c0-0.2,0.1-0.5,0.3-0.7
		c0.2-0.2,0.5-0.3,0.8-0.3c1.4-0.2,2.6-0.4,3.6-0.5c-0.1-0.1-0.1-0.3-0.2-0.5l-0.6-1.6C222.4,4.7,222.6,4.5,223.1,4.5z M225.6,0.2
		c0.6,0,0.9,0.3,0.9,0.8c-0.1,0.5-0.2,1-0.2,1.5h4.8c0.2,0,0.4,0.1,0.4,0.3c0,0.3-0.1,0.6-0.3,0.8c-0.2,0.2-0.5,0.3-0.8,0.3
		c-0.2,0-0.8-0.1-1.7-0.2c-0.9,0-1.9-0.1-3-0.1c-1.7,0-3,0.1-3.8,0.2c-0.4,0.1-0.7,0.2-0.9,0.2c-0.5,0-0.8-0.3-0.8-0.7
		c0-0.2,0.2-0.4,0.4-0.6c0.2-0.1,0.5-0.2,0.9-0.2h3.6c0-0.5-0.1-1-0.2-1.4C224.8,0.5,225.1,0.2,225.6,0.2z M222.1,10
		c0.2,0,0.5,0,0.7,0.1c0.2,0.1,0.6,0.1,1,0.1h2.9c0.7,0,1.4,0,2.3,0.1c0.2,0,0.5-0.1,0.8-0.2c0.4,0,0.7,0.2,0.7,0.7
		c0,0,0,0.1-0.1,0.2c-0.1,0.2-0.1,0.5-0.1,1c0,0.6-0.1,1.3-0.1,2c0,0.4,0,1,0.1,1.8c0,0.5-0.2,0.7-0.7,0.7c-1.5-0.1-2.8-0.2-3.9-0.2
		c-1.3,0-2.2,0-2.5,0c-0.3,0-0.7,0.1-1.1,0.1c-0.4,0-0.6-0.2-0.6-0.7c0.1-1,0.2-1.8,0.2-2.6c0-0.7-0.1-1.6-0.2-2.6
		C221.4,10.3,221.6,10,222.1,10z M225.7,15.2c0.9,0,1.8,0,2.9,0.1c0.3,0,0.4-0.1,0.4-0.3v-3.4c0-0.2-0.1-0.3-0.2-0.3
		c-1.2-0.1-3-0.1-5.3-0.1c-0.3,0-0.5,0.2-0.5,0.5c0,1.1-0.1,2.2-0.2,3.2c0,0.3,0.2,0.4,0.6,0.4C224,15.2,224.8,15.2,225.7,15.2z"/>
	<path class="st0" d="M252.1,10.2c0,1-0.5,2-1.4,3c-0.8,0.9-1.7,1.5-2.7,2c-1.3,0.6-2.3,0.9-2.9,0.9c-0.3,0-0.6-0.2-1-0.5
		c-0.4-0.4-0.6-0.6-0.6-0.9c0-0.2,0.2-0.3,0.7-0.4c1.4-0.1,2.5-0.3,3.2-0.6c1.2-0.4,2.1-0.9,2.7-1.7c0.6-0.7,0.9-1.3,0.9-1.9
		c0-1.7-1.2-2.5-3.5-2.5c-1.2,0-2.7,0.2-4.5,0.5c-1.7,0.3-3.1,0.7-4.2,1.2c-0.4,0-0.6-0.2-0.6-0.7c0-0.5,0.5-0.9,1.4-1.2
		c2.2-0.5,4.7-0.8,7.3-0.8c2.2,0,3.8,0.5,4.6,1.6C251.9,8.9,252.1,9.5,252.1,10.2z"/>
	<path class="st0" d="M268.7,3.9c0,0.2-0.1,0.4-0.3,0.7c-0.2,0.3-0.3,0.5-0.5,0.5c-1.1-0.2-2-0.3-2.8-0.3c-0.1,0-0.3,0-0.5,0
		c-0.2,0-0.4,0-0.5,0c-0.4,1.7-0.8,3.3-1.4,4.7c-1.6,4.1-2.9,6.1-3.8,6.1c-0.3,0-0.6-0.1-1-0.2c-0.5-0.2-0.7-0.4-0.7-0.6
		c0-0.1,0.3-0.5,1-1.2c1.1-1.1,2.1-2.5,3-4.1c0.9-1.6,1.5-3.2,1.8-4.6c-1.5,0.1-2.9,0.3-4.1,0.7c-0.4-0.1-0.6-0.2-0.6-0.6
		c0-0.3,0.1-0.5,0.2-0.7c0.1-0.2,0.9-0.3,2.2-0.5c0.8-0.1,1.6-0.2,2.4-0.2c0.1-0.6,0.2-1.4,0.2-2.1c0-0.6,0.3-0.9,0.7-0.9
		s0.7,0.2,0.7,0.6c0,0.2-0.1,1-0.4,2.3c2.1-0.1,3.4-0.2,3.7-0.2S268.7,3.6,268.7,3.9z M275.2,13.5c0,0.4-0.1,0.8-0.4,1.4
		c-0.3,0.5-0.8,0.9-1.5,1.1c-0.4,0.1-1,0.1-1.9,0.1c-4.1,0-6.1-1-6.1-3c0-0.3,0.1-0.6,0.2-0.9c0.1-0.4,0.3-0.6,0.6-0.6
		c0.3,0,0.4,0.1,0.4,0.4c0,0.1,0,0.3-0.1,0.5c0,0.2-0.1,0.4-0.1,0.5c0,0.9,0.8,1.4,2.3,1.4c2.4,0,4.4-0.4,5.8-1.1
		c0.4-0.2,0.6-0.3,0.6-0.3C275.1,13.1,275.2,13.2,275.2,13.5z M272.9,7.2c-0.1,0.2-0.6,0.7-1.5,1.4c-0.9,0.7-1.6,1.1-1.9,1.2
		c-0.1,0-0.2-0.1-0.2-0.3c0-0.2,0.2-0.5,0.6-0.9c0.3-0.2,0.6-0.5,0.8-0.8c-0.1,0-0.3,0-0.6,0c-1.1,0-2,0.1-2.7,0.2
		c-0.9,0.2-1.3,0.3-1.3,0.3c-0.3,0-0.5-0.1-0.5-0.4c0-0.3,0.1-0.5,0.3-0.7c0.4-0.4,1.9-0.6,4.6-0.6h0.9
		C272.3,6.6,272.8,6.8,272.9,7.2z"/>
	<path class="st0" d="M283.6,0.5c0.4,0,0.6,0.2,0.6,0.5c0,0.2-0.1,0.4-0.2,0.7c-0.2,0.4-0.4,0.8-0.6,1.2h6.2c0.2,0,0.3,0.1,0.4,0.3
		c0,0.3-0.1,0.6-0.3,0.8c-0.2,0.2-0.5,0.3-0.9,0.3c-0.1,0-0.5,0-1-0.1c-0.4,0-0.8,0-1.2,0c0,0,0,0.1,0,0.1c-0.1,0.8-0.2,1.8-0.3,2.8
		c0,0.3,0,0.6,0,0.8h4.1c0.2,0,0.4,0.1,0.4,0.3c0,0.3-0.1,0.6-0.3,0.8c-0.2,0.2-0.5,0.3-0.8,0.3c-0.2,0-0.8,0-1.6-0.1
		c-0.6,0-1.2,0-1.9,0c-0.1,0.6-0.2,1.2-0.4,1.7c0.1,0,0.2,0,0.3,0c0.1,0,0.8,0.4,2.1,1.2c1.2,0.9,1.8,1.5,1.8,1.8
		c0,0.4-0.2,0.6-0.6,0.6c-0.1,0-0.3-0.1-0.5-0.3c-1.2-1-2.2-1.6-2.8-1.8c-0.3-0.1-0.6-0.3-0.7-0.4c-0.5,1.1-1.1,2-1.7,2.6
		c-1.1,1.1-2,1.7-2.9,1.7c-0.3,0-0.6-0.1-0.8-0.4c-0.4-0.4-0.6-0.8-0.6-1.1c0-0.3,0.2-0.4,0.5-0.5c0.9-0.2,1.7-0.5,2.4-0.9
		c1-0.5,1.8-1.6,2.4-3.4c0.1-0.3,0.2-0.6,0.2-0.9c-1.5,0-2.7,0.1-3.4,0.2c-0.4,0.1-0.7,0.2-0.8,0.2c-0.5,0-0.8-0.3-0.9-0.7
		c0-0.2,0.2-0.5,0.4-0.6c0.2-0.1,0.5-0.2,0.9-0.2h4c0.1-0.8,0.2-1.7,0.2-2.7c0-0.4-0.1-0.7-0.1-1c-0.7,0-1.3,0.1-1.7,0.1
		c-0.3,0.1-0.5,0.1-0.6,0.1c-0.1,0-0.2,0-0.3,0c-0.2,0.3-0.5,0.7-0.7,1c-0.3,0.4-0.6,0.6-0.8,0.6c-0.3,0-0.7-0.1-1.1-0.4
		c-0.4-0.3-0.5-0.6-0.5-0.9c0-0.2,0.2-0.4,0.5-0.4c0.7-0.2,1.3-0.6,1.8-1.2c0.6-0.6,1.1-1.3,1.7-2.3C283.4,0.5,283.5,0.5,283.6,0.5z
		 M292.3,4c0.2,0,0.5,0,0.7,0.1c0.2,0.1,0.6,0.1,1,0.1h2.1c0.5,0,1,0,1.7,0.1c0.2,0,0.5-0.1,0.9-0.2c0.4,0,0.6,0.2,0.6,0.7
		c0,0,0,0.1,0,0.2c-0.1,0.2-0.1,0.6-0.2,1.2c0,0.8-0.1,1.5-0.1,2.4c0,0.5,0,1.2,0.1,2.2c0,0.6-0.2,0.9-0.6,0.9
		c-1.2-0.2-2.3-0.3-3.3-0.3c-1.1,0-1.7,0-2,0.1c-0.2,0-0.5,0.1-0.9,0.2c-0.4,0-0.6-0.2-0.6-0.7c0.1-1.2,0.2-2.2,0.2-3.1
		c0-0.9-0.1-1.9-0.2-3.2C291.6,4.3,291.8,4,292.3,4z M295.2,10.2c0.7,0,1.4,0,2.3,0.1c0.2,0,0.4-0.1,0.4-0.4V5.7
		c0-0.2-0.1-0.3-0.2-0.3c-0.9-0.1-2.2-0.1-3.9-0.1c-0.3,0-0.5,0.2-0.5,0.5c0,1.4-0.1,2.8-0.2,4c0,0.3,0.2,0.5,0.6,0.5
		C294,10.3,294.5,10.2,295.2,10.2z"/>
	<path class="st0" d="M304,3.5h5.7c0.2,0,0.3,0.1,0.3,0.3c0,0.3-0.1,0.5-0.3,0.7c-0.2,0.2-0.4,0.3-0.8,0.3c-0.1,0-0.4,0-0.9-0.1
		c-0.5,0-1,0-1.7,0c-1.1,0-1.8,0.1-2.3,0.2c-0.3,0.1-0.4,0.2-0.5,0.2c-0.5,0-0.7-0.2-0.8-0.6c0-0.2,0.2-0.4,0.4-0.6
		C303.4,3.5,303.7,3.5,304,3.5z M304.6,11.5c0.2,0,0.4,0,0.7,0.1c0.2,0.1,0.6,0.1,1,0.1h1.2c0.3,0,0.6,0,0.9,0.1
		c0.2,0,0.5-0.1,0.8-0.2c0.4,0,0.6,0.2,0.6,0.7l0,0.1c-0.1,0.1-0.1,0.4-0.1,0.7c0,0.4-0.1,0.9-0.1,1.4c0,0.3,0,0.6,0.1,1.1
		c0,0.5-0.2,0.7-0.7,0.7c-0.8-0.1-1.5-0.2-2.2-0.2c-0.8,0-1.3,0-1.6,0.1c-0.2,0-0.4,0.1-0.7,0.1c-0.4,0-0.7-0.2-0.7-0.6
		c0.1-0.7,0.2-1.4,0.2-1.9c0-0.5-0.1-1-0.2-1.7C303.9,11.8,304.1,11.5,304.6,11.5z M305.2,0.8h3.4c0.4,0,0.6,0.2,0.6,0.6
		c0,0.3-0.2,0.5-0.6,0.5c-1.5,0-2.7,0.1-3.6,0.2c-0.5,0-0.7-0.2-0.7-0.6C304.3,1.1,304.6,0.8,305.2,0.8z M305.1,6.3h3.4
		c0.4,0,0.6,0.2,0.6,0.6c0,0.3-0.2,0.4-0.6,0.4c-1.5,0-2.7,0.1-3.6,0.2c-0.5,0-0.7-0.2-0.7-0.5C304.3,6.5,304.6,6.3,305.1,6.3z
		 M305.1,8.8h3.4c0.4,0,0.6,0.2,0.6,0.6c0,0.3-0.2,0.4-0.6,0.4c-1.5,0-2.7,0.1-3.6,0.2c-0.5,0-0.7-0.2-0.7-0.5
		C304.3,9,304.6,8.8,305.1,8.8z M306.8,15.1c0.4,0,0.7,0,1.1,0.1c0.3,0,0.4-0.1,0.4-0.3v-1.8c0-0.2-0.1-0.3-0.2-0.3
		c-0.5,0-1.2-0.1-2.2-0.1c-0.3,0-0.5,0.2-0.5,0.5c0,0.6-0.1,1.1-0.2,1.6c0,0.3,0.2,0.4,0.6,0.4C306.2,15.1,306.5,15.1,306.8,15.1z
		 M312.4,4.3c0.4,0,0.6,0.2,0.6,0.6v1.2h2.1V4.8c0.1-0.3,0.3-0.5,0.7-0.5c0.4,0,0.6,0.2,0.6,0.6L316,6.1h2.5c0-0.1,0-0.1,0-0.2
		c-0.1-1.8-0.1-3.5-0.1-4.9c0-0.4,0.2-0.6,0.6-0.6c0.4,0,0.6,0.2,0.7,0.6c-0.1,0.9-0.1,1.8-0.1,2.7c0,0.8,0,1.5,0.1,2.3h3.8
		c0.2,0,0.4,0.1,0.4,0.3c0,0.3-0.1,0.6-0.3,0.8c-0.2,0.2-0.5,0.3-0.8,0.3c-0.3,0-1.1-0.1-2.3-0.2c-0.2,0-0.5,0-0.7,0
		c0,0.3,0.1,0.6,0.1,0.9c0.3,1.6,0.7,3,1.2,4.1c0.5-0.9,1-2,1.3-3.3c0-0.2,0.2-0.3,0.5-0.3c0.4,0,0.6,0.2,0.6,0.6
		c0,0-0.1,0.1-0.1,0.2c-0.3,1.1-0.8,2.3-1.5,3.7c0,0-0.1,0.1-0.1,0.1c0.7,1,1.5,1.6,2.4,2c0.2,0.1,0.4,0.2,0.4,0.5
		c0,0.2-0.2,0.5-0.6,0.8c-0.4,0.3-0.7,0.4-1,0.4c-0.2,0-0.5-0.1-0.8-0.4c-0.5-0.4-1-1-1.4-1.8c-0.4,0.5-0.8,1-1.3,1.3
		c-0.6,0.5-1,0.7-1.4,0.7c-0.2,0-0.5-0.1-0.7-0.3c-0.3-0.3-0.5-0.6-0.5-0.9c0-0.2,0.2-0.4,0.6-0.5c0.9-0.2,1.8-0.7,2.7-1.6
		c-0.2-0.5-0.4-1-0.6-1.5c-0.5-1.5-0.8-3.1-0.9-4.9c-0.6,0-1.3,0-2,0c-2.2,0-3.9,0.1-4.8,0.2c-0.6,0.1-0.9,0.2-1.1,0.2
		c-0.5,0-0.7-0.3-0.8-0.7c0-0.2,0.2-0.4,0.4-0.6c0.2-0.1,0.5-0.2,0.8-0.2h1.1l-0.4-1.2C311.8,4.5,312,4.3,312.4,4.3z M314,0.5
		c0.6,0,0.8,0.3,0.8,0.8c-0.1,0.4-0.2,0.8-0.2,1.2h2.5c0.2,0,0.3,0.1,0.3,0.2c0,0.3-0.1,0.5-0.3,0.7c-0.2,0.2-0.5,0.3-0.8,0.3
		c-0.1,0-0.4,0-0.9,0c-0.5,0-1,0-1.6,0c-1,0-1.7,0-2.2,0.1c-0.3,0.1-0.4,0.1-0.5,0.1c-0.4,0-0.6-0.2-0.6-0.6c0-0.2,0.1-0.4,0.3-0.6
		c0.2-0.1,0.5-0.2,0.8-0.2h1.7c0-0.4-0.1-0.8-0.2-1.1C313.2,0.8,313.5,0.5,314,0.5z M311.6,8.7c0.2,0,0.4,0,0.6,0c0.2,0,0.5,0,0.9,0
		h1.3c0.3,0,0.6,0,1.1,0.1c0.2,0,0.4,0,0.7-0.1c0.4,0,0.6,0.2,0.6,0.7c0,0,0,0.1,0,0.2c0,0.2-0.1,0.5-0.1,1c0,0.6,0,1.3,0,2v1.9
		c0,0.4-0.2,0.6-0.6,0.6c-0.9-0.1-1.6-0.2-2.3-0.2c-0.8,0-1.2,0-1.4,0.1c-0.2,0-0.4,0.1-0.6,0.2c-0.4,0-0.6-0.2-0.6-0.6
		c0.1-1,0.2-1.9,0.2-2.7s-0.1-1.7-0.2-2.8C311,8.9,311.2,8.7,311.6,8.7z M313.7,14.2c0.4,0,0.9,0,1.5,0.1c0.2,0,0.3-0.1,0.3-0.4
		v-1.5c-1.2,0-2.2,0.1-2.9,0.2c-0.1,0-0.2,0-0.2,0c0,0.4,0,0.8,0,1.2c0,0.3,0.2,0.5,0.5,0.5C313,14.2,313.3,14.2,313.7,14.2z
		 M312.3,11.5c0.1,0,0.2,0,0.3,0h2.7c0,0,0.1,0,0.1,0v-1.3c0-0.1-0.1-0.2-0.2-0.2c-0.6-0.1-1.4-0.1-2.5-0.1c-0.3,0-0.4,0.1-0.4,0.4
		C312.4,10.7,312.4,11.1,312.3,11.5z M322.8,1.4c0.4,0,0.6,0.2,0.6,0.6c0,0.3,0,0.5-0.1,0.7c-1.2,0.9-1.9,1.4-2,1.4
		c-0.3,0-0.5-0.1-0.5-0.4c0-0.1,0.4-0.7,1.1-1.9C322.2,1.5,322.4,1.4,322.8,1.4z"/>
	<path class="st0" d="M345.5,7.3c0,1.2-0.5,2.1-1.6,2.9c-0.9,0.7-2,1-3.2,1c-0.8,0-1.4-0.2-1.8-0.6c-0.4-0.5-0.6-0.9-0.6-1.3
		c0-0.2,0-0.3,0.1-0.3c0.2,0,0.6,0.1,1.2,0.2c0.5,0.1,1,0.2,1.3,0.2c0.7,0,1.4-0.2,2.1-0.6c0.8-0.4,1.2-1,1.2-1.6
		c0-0.6-0.2-1.1-0.7-1.5c-0.4-0.3-1-0.5-1.6-0.5c-1.6,0-3.9,0.5-6.8,1.4c0.4,2.4,1,4.4,1.9,6c0.6,1.2,1.3,2.1,2,2.7
		c0.2,0.1,0.4,0.3,0.6,0.6c0,0.2-0.3,0.4-0.8,0.7c-0.5,0.2-0.9,0.3-1.2,0.3c-0.7,0-1.5-1.5-2.4-4.4c-0.6-2.1-1.1-3.9-1.3-5.5
		c-0.8,0.3-2.1,0.8-3.7,1.4L328.7,9c-0.5,0-0.8-0.3-0.8-0.9c0-0.4,0.8-0.9,2.5-1.4c0.3-0.1,1.4-0.4,3.2-0.9
		c-0.2-1.8-0.3-3.2-0.3-4.2c0-0.5,0.3-0.7,0.8-0.7c0.3,0,0.5,0.2,0.6,0.7c0,0.3,0,0.7,0,1.3c0,1,0.1,1.9,0.2,2.7
		c3-0.8,5.2-1.2,6.6-1.2c1.1,0,2,0.2,2.7,0.7C345,5.6,345.5,6.4,345.5,7.3z M340.7,1c0,0.3-0.4,0.8-1.1,1.6
		c-0.8,0.8-1.3,1.1-1.5,1.1c-0.3,0-0.6-0.2-1-0.6c-0.4-0.4-0.6-0.7-0.6-0.9c0-0.1,0.4-0.2,1.1-0.3c0.5,0,1.1-0.3,1.8-0.6
		c0.7-0.4,1-0.6,1-0.6C340.6,0.7,340.7,0.8,340.7,1z"/>
	<path class="st0" d="M353.3,3.4h7.1c-0.1-1.2-0.1-2-0.1-2.4c0-0.4,0.2-0.6,0.6-0.6c0.5,0,0.8,0.3,0.8,0.7v0.8c0,0.5,0,1,0,1.5h6.3
		c0.2,0,0.4,0.1,0.4,0.2c0,0.3-0.1,0.6-0.3,0.8c-0.2,0.2-0.5,0.4-0.8,0.4c-0.4,0-1.3-0.1-2.7-0.2c-0.9,0-1.8-0.1-2.8-0.1
		c0,0.8,0.1,1.5,0.2,2.1c0.2,1.4,0.6,2.7,1.2,3.7c0.2,0.4,0.4,0.8,0.7,1.2c0.8-1.2,1.4-2.6,1.9-4.3c0-0.2,0.2-0.3,0.6-0.3
		c0.4,0,0.6,0.2,0.6,0.7c0,0-0.1,0.1-0.1,0.3c-0.4,1.3-1.1,2.8-2,4.5c0,0-0.1,0.1-0.1,0.1c0.4,0.4,0.8,0.7,1.2,1
		c0.8,0.6,1.8,1,3,1.3c0.3,0,0.4,0.2,0.4,0.5c0,0.3-0.2,0.6-0.5,1c-0.4,0.4-0.7,0.6-1.1,0.6c-0.3,0-0.7-0.2-1.2-0.6
		c-1-0.7-1.9-1.5-2.8-2.5c-0.7,0.8-1.4,1.5-2.1,2.1c-0.8,0.6-1.4,0.9-1.8,0.9c-0.3,0-0.6-0.1-0.8-0.3c-0.4-0.4-0.6-0.7-0.6-1.1
		c0-0.2,0.3-0.4,0.8-0.5c1.3-0.2,2.6-0.9,3.7-2.1c-0.7-1.1-1.2-2.3-1.6-3.6c-0.4-1.1-0.6-2.7-0.8-4.7c-0.2,0-0.4,0-0.6,0
		c-2.6,0-4.5,0-5.7,0.1c-0.5,0.1-0.8,0.1-1.1,0.1c0,0.1,0,0.3,0,0.4l0,2.7c0.3,0,0.9-0.1,1.7-0.1h2.5c0.1,0,0.4-0.1,0.8-0.2
		c0.6,0,0.8,0.3,0.8,0.8c-0.3,1-0.5,2.1-0.6,3.1c-0.1,1.4-0.5,2.4-1.1,2.8c-0.5,0.4-1.1,0.6-1.8,0.6c-0.4,0-0.7-0.2-1-0.5
		c-0.2-0.3-0.3-0.6-0.3-0.8c0-0.3,0.1-0.4,0.4-0.5c0.9,0,1.5-0.2,1.7-0.4c0.3-0.3,0.6-1,0.8-2.2c0.1-0.8,0.2-1.2,0.2-1.4
		c0-0.3-0.1-0.4-0.3-0.4h-1.5c-0.7,0-1.4,0.1-2,0.2c-0.2,0.1-0.4,0.1-0.5,0.1c0,1-0.2,1.9-0.4,2.6c-0.4,1.1-0.9,2-1.6,2.9
		c-0.4,0.5-0.8,0.7-1.1,0.7c-0.4,0-0.9-0.2-1.4-0.7c-0.4-0.3-0.6-0.6-0.6-0.9c0-0.3,0.2-0.4,0.6-0.5c0.5-0.1,0.9-0.2,1.2-0.5
		c0.7-0.4,1.2-1.1,1.5-2.1c0.3-0.9,0.4-2,0.4-3.4c0-0.8-0.1-1.9-0.3-3.4c0-0.6,0.2-0.8,0.7-0.8c0.3,0,0.6,0.1,0.7,0.2
		C353,3.4,353.2,3.4,353.3,3.4z M366.3,0.4c0.4,0,0.6,0.2,0.6,0.6c0,0.3,0,0.5-0.1,0.7C365.7,2.5,365,3,364.9,3
		c-0.3,0-0.5-0.1-0.5-0.4c0-0.1,0.3-0.7,1-1.9C365.7,0.5,365.9,0.4,366.3,0.4z"/>
	<path class="st0" d="M373,3.9L374,4c3,0,5,0,6-0.1c0.2,0,0.3,0.2,0.3,0.5c0,0.2-0.1,0.3-0.3,0.5c-0.2,0.2-0.4,0.3-0.7,0.3
		c-0.5,0-1.3-0.1-2.2-0.1l-0.1,5c1.3-0.3,2.4-0.4,3.1-0.5c0.2,0,0.4,0.1,0.4,0.4c0,0.4-0.2,0.6-0.5,0.7c-2.6,0.6-5.1,1.4-7.3,2.2
		c-0.5,0-0.7-0.2-0.7-0.6c0-0.4,0.1-0.6,0.2-0.8c0.1-0.2,0.3-0.3,0.7-0.4c1.1-0.3,2-0.5,2.9-0.6l-0.1-5.3c-0.1,0-0.2,0-0.3,0
		c-0.6,0-1.4,0.1-2.5,0.3c-0.5,0-0.7-0.2-0.7-0.6c0-0.2,0.1-0.4,0.3-0.6C372.6,4,372.8,3.9,373,3.9z M385.3,4.3
		c0.3-1.1,0.4-2.2,0.6-3.4c0-0.4,0.2-0.6,0.6-0.6c0.2,0,0.3,0.1,0.5,0.2c0.2,0.2,0.3,0.3,0.3,0.4l-0.1,0.2c-0.1,0.7-0.4,1.7-0.6,3.1
		h3.9c0.1,0,0.4-0.1,0.8-0.2c0.6,0,0.9,0.3,0.9,0.9c-0.4,1.9-0.6,3.7-0.8,5.6c-0.2,2.6-0.7,4.2-1.4,5c-0.7,0.7-1.5,1.1-2.4,1.1
		c-0.4,0-0.7-0.2-1-0.5c-0.2-0.3-0.2-0.6-0.2-0.8c0-0.3,0.1-0.4,0.4-0.5c1.3-0.1,2.1-0.4,2.4-1c0.4-0.6,0.8-2.3,1.1-5.1
		c0.1-1.7,0.2-2.8,0.2-3.2c0-0.2-0.1-0.4-0.3-0.4h-3.8c-0.1,0-0.2,0-0.2,0c-0.6,2.2-1.3,4.2-2.3,6c-0.6,1.3-1.3,2.4-2.1,3.4
		c-1,1-1.7,1.6-2.2,1.6c-0.3,0-0.6-0.2-1-0.6c-0.3-0.3-0.4-0.6-0.4-0.9c0-0.2,0.2-0.3,0.6-0.4c0.9-0.3,1.8-1,2.7-2.1
		c1-1,1.9-2.8,2.9-5.3c0.2-0.5,0.4-1.1,0.5-1.6c-0.6,0-1.1,0.1-1.7,0.1c-0.6,0.1-0.9,0.2-1.1,0.2c-0.4,0-0.6-0.2-0.6-0.5
		c0-0.5,0.3-0.9,0.8-0.9C382.9,4.4,383.8,4.3,385.3,4.3z"/>
	<path class="st0" d="M401.9,0c0.4,0,0.6,0.2,0.6,0.5c0,0.2-0.1,0.4-0.2,0.6c-0.5,0.8-1.1,1.6-1.6,2.3c0.1,0.2,0.2,0.4,0.2,0.7
		c-0.1,1.4-0.1,2.6-0.1,3.7l0.1,7.7c0,1-0.3,1.5-0.8,1.5c-0.4,0-0.6-0.5-0.6-1.5c0.1-3.3,0.1-5.9,0.1-7.7c0-0.9,0-2-0.1-3.1
		c-0.3,0.3-0.5,0.5-0.8,0.8c-0.6,0.5-1,0.8-1.4,0.8c-0.3,0-0.7-0.2-1.1-0.5c-0.4-0.3-0.5-0.6-0.5-0.9c0-0.2,0.2-0.3,0.5-0.4
		c1.1-0.3,2-0.8,2.9-1.6c0.9-0.7,1.8-1.7,2.6-3C401.7,0.1,401.8,0,401.9,0z M404.2,1.2h6.6c0.2,0,0.4,0.1,0.4,0.3
		c0,0.3-0.1,0.6-0.3,0.8c-0.2,0.2-0.5,0.3-0.8,0.3c-0.2,0-0.5-0.1-1.1-0.2c-0.3,0-0.6,0-1,0c0,0.2-0.1,0.4-0.3,0.5
		c-0.5,0.9-1,1.8-1.5,2.5h2.5c0.1,0,0.2,0,0.4-0.1c0.1-0.1,0.3-0.1,0.5-0.1c0.6,0,0.8,0.2,0.8,0.6c0,0.1-0.1,0.3-0.2,0.5
		c-0.3,0.6-0.6,1.3-0.9,2.1c-0.8,2.1-1.6,3.6-2.4,4.6c-0.7,1.1-1.4,2-2.2,2.8c-0.6,0.5-1,0.8-1.3,0.8c-0.3,0-0.6-0.1-1-0.3
		c-0.3-0.2-0.4-0.4-0.4-0.6c0-0.1,0.1-0.2,0.2-0.3c1.4-0.8,2.5-1.7,3.2-2.6c0.4-0.4,0.8-1,1.2-1.7c0,0-0.1-0.1-0.1-0.1
		c-0.8-0.5-1.3-0.9-1.7-1c-0.3-0.1-0.5-0.3-0.5-0.4c0-0.5,0.3-0.8,0.8-0.8c0.1,0,0.5,0.2,1.2,0.7c0.3,0.2,0.6,0.4,0.8,0.6
		c0.4-0.9,0.9-2,1.4-3.3c0-0.2-0.1-0.3-0.2-0.3c-1,0-1.9,0-2.8,0c-0.5,0.8-1,1.4-1.4,1.9c-0.8,0.9-1.3,1.4-1.6,1.4
		c-0.3,0-0.6-0.1-0.9-0.3c-0.2-0.2-0.3-0.4-0.3-0.7c0-0.2,0.1-0.3,0.3-0.4c1.3-0.9,2.3-1.7,3-2.6c0.6-0.7,1.3-1.9,2.1-3.6
		c-1,0-1.8,0.1-2.3,0.2c-0.3,0.1-0.5,0.2-0.6,0.2c-0.5,0-0.8-0.3-0.8-0.7c0-0.2,0.2-0.4,0.4-0.6C403.5,1.3,403.8,1.2,404.2,1.2z
		 M412.3,3.2c0.4,0,0.6,0.3,0.6,0.8c-0.1,0.7-0.1,1.3-0.1,1.8l0.1,3c0,0.9-0.2,1.4-0.7,1.4c-0.4,0-0.6-0.5-0.6-1.4
		c0-1.3,0.1-2.3,0.1-3c0-0.5,0-1.2-0.1-1.8C411.5,3.5,411.8,3.2,412.3,3.2z M416.1,0.5c0.5,0,0.8,0.2,0.8,0.7c0,0.1,0,0.3-0.1,0.7
		c0,0.4,0,0.7,0,0.9c0,2.5,0,4.7,0.1,6.5c0.1,1.7,0.1,2.9,0.1,3.8c0,1.3-0.4,2.3-1.1,3c-0.6,0.5-1.4,0.7-2.2,0.8
		c-0.4,0-0.7-0.1-1-0.4c-0.2-0.2-0.3-0.5-0.3-0.7c0-0.3,0.2-0.4,0.5-0.5c1.3-0.3,2.1-0.6,2.4-1c0.2-0.3,0.3-0.8,0.3-1.5
		c0-2.4,0-4.8-0.1-7.2c-0.1-1.3-0.1-2.6-0.1-4.1C415.3,0.8,415.6,0.5,416.1,0.5z"/>
	<path class="st0" d="M426.9,16.1c0,0.3-0.3,0.6-0.9,1c-0.6,0.4-1,0.6-1.3,0.6c-0.3,0-0.6-0.3-1-0.8c-0.8-1.2-1.7-2.3-2.4-3.1
		c-0.7-0.8-1-1.3-1-1.5c0-0.3,0.2-0.4,0.5-0.4c0.2,0,1.5,0.9,3.8,2.8c0.5,0.4,1.2,0.8,2.1,1.2C426.7,15.8,426.9,15.9,426.9,16.1z"/>
	<path class="st0" d="M11.8,32.2c0,0.5-0.3,1.6-0.8,3.3c-0.5,1.5-1.2,3-2.3,4.6c-1,1.5-2.2,2.8-3.4,3.7C4,44.8,3,45.3,2.1,45.3
		c-0.3,0-0.7-0.2-1.3-0.6c-0.5-0.4-0.8-0.7-0.8-1c0-0.1,0.3-0.3,1-0.5c1.2-0.4,2.1-0.8,2.6-1.1c1.3-0.7,2.5-1.7,3.5-2.9
		c2.1-2.4,3.1-4.8,3.1-7.2c0-0.5,0.2-0.8,0.7-0.8C11.5,31.4,11.8,31.6,11.8,32.2z"/>
	<path class="st0" d="M33.5,34.2c0,1.9-0.6,3.7-1.7,5.5c-1,1.6-2.4,2.9-4,4.1c-2.3,1.6-4.1,2.4-5.4,2.4c-0.3,0-0.7-0.2-1.2-0.6
		c-0.5-0.4-0.7-0.7-0.7-1c0-0.2,0.6-0.4,1.7-0.5c1.4-0.2,2.9-0.8,4.5-1.6c1.3-0.7,2.5-1.7,3.6-3c1.2-1.5,1.8-2.8,1.8-4.2
		c0-0.2-0.5-0.3-1.5-0.4c-0.9-0.1-2.2-0.1-3.9-0.1c-1.5,0-3,0.1-4.2,0.3c-0.8,0.1-1.2,0.2-1.2,0.4c0,2.1-0.3,3.1-0.9,3.1
		c-0.3,0-0.5-0.1-0.5-0.4c0-1,0-1.8-0.1-2.4c-0.1-0.9-0.2-1.5-0.2-1.6c0-0.5,0.2-0.7,0.6-0.7c0.1,0,0.4,0.1,0.7,0.2
		c0.3,0.1,0.6,0.2,0.7,0.2c0.4,0,1-0.1,1.8-0.2c0.5,0,1.3-0.1,2.4-0.1c-0.1-1.1-0.1-2-0.1-2.6c0-0.4,0.3-0.6,0.9-0.6
		c0.5,0,0.7,0.2,0.7,0.6c0,0.3,0,0.8-0.1,1.3c0,0.7-0.1,1.2-0.1,1.3c3.3,0.1,4.8,0.1,4.6,0.1c0.1,0,0.3,0,0.6-0.1
		c0.2-0.1,0.4-0.1,0.6-0.1C33.3,33.5,33.5,33.7,33.5,34.2z"/>
	<path class="st0" d="M44.2,35.1c0,0.4-0.2,1.3-0.5,2.6c-0.3,1.3-0.8,2.5-1.5,3.6c-1,1.6-1.8,2.4-2.4,2.4c-0.4,0-0.8-0.2-1.3-0.6
		c-0.5-0.4-0.7-0.8-0.7-1.1c0-0.1,0.4-0.3,1.2-0.6c1.2-0.5,2.1-1.3,2.9-2.4c0.7-1,1.2-2.3,1.5-4.1c0-0.4,0.2-0.6,0.5-0.6
		C44,34.5,44.2,34.7,44.2,35.1z M57,41.9c0,0.3-0.3,0.7-0.9,1.2c-0.6,0.5-1,0.8-1.3,0.8c-0.9,0-2-1.3-3.3-4
		c-1.2-2.5-1.9-4.2-1.9-5.3c0-0.3,0.2-0.4,0.5-0.4c0.2,0,0.4,0.2,0.5,0.5c0.1,0.2,0.2,0.6,0.4,1.1c0.6,1.3,1.2,2.4,1.8,3.2
		c1,1.2,2,2,3,2.3C56.2,41.4,56.6,41.6,57,41.9z"/>
	<path class="st0" d="M75.4,34.2c0,1.9-0.6,3.7-1.7,5.5c-1,1.6-2.4,2.9-4,4.1c-2.3,1.6-4.1,2.4-5.4,2.4c-0.3,0-0.7-0.2-1.2-0.6
		c-0.5-0.4-0.7-0.7-0.7-1c0-0.2,0.6-0.4,1.7-0.5c1.4-0.2,2.9-0.8,4.5-1.6c1.3-0.7,2.5-1.7,3.6-3c1.2-1.5,1.8-2.8,1.8-4.2
		c0-0.2-0.5-0.3-1.5-0.4c-0.9-0.1-2.2-0.1-3.9-0.1c-1.5,0-3,0.1-4.2,0.3c-0.8,0.1-1.2,0.2-1.2,0.4c0,2.1-0.3,3.1-0.9,3.1
		c-0.3,0-0.5-0.1-0.5-0.4c0-1,0-1.8-0.1-2.4c-0.1-0.9-0.2-1.5-0.2-1.6c0-0.5,0.2-0.7,0.6-0.7c0.1,0,0.4,0.1,0.7,0.2
		c0.3,0.1,0.6,0.2,0.7,0.2c0.4,0,1-0.1,1.8-0.2c0.5,0,1.3-0.1,2.4-0.1c-0.1-1.1-0.1-2-0.1-2.6c0-0.4,0.3-0.6,0.9-0.6
		c0.5,0,0.7,0.2,0.7,0.6c0,0.3,0,0.8-0.1,1.3c0,0.7-0.1,1.2-0.1,1.3c3.3,0.1,4.8,0.1,4.6,0.1c0.1,0,0.3,0,0.6-0.1
		c0.2-0.1,0.4-0.1,0.6-0.1C75.2,33.5,75.4,33.7,75.4,34.2z"/>
	<path class="st0" d="M92.2,33.7c0,0.2-0.1,0.4-0.3,0.7c-0.2,0.3-0.3,0.4-0.5,0.5c-1.1-0.2-2-0.3-2.8-0.3c-0.1,0-0.3,0-0.5,0
		c-0.2,0-0.4,0-0.5,0c-0.4,1.7-0.8,3.2-1.4,4.7c-1.6,4.1-2.9,6.2-3.8,6.2c-0.3,0-0.6-0.1-1-0.3c-0.5-0.2-0.7-0.4-0.7-0.6
		c0-0.1,0.3-0.5,1-1.2c1.1-1.1,2.1-2.5,2.9-4.1c0.9-1.7,1.5-3.2,1.8-4.7c-0.6,0-1.5,0.2-2.7,0.4c-0.9,0.3-1.4,0.4-1.3,0.4
		c-0.4,0-0.6-0.2-0.6-0.5c0-0.3,0.1-0.6,0.2-0.7c0.2-0.2,0.9-0.3,2.2-0.5c0.8,0,1.7-0.1,2.5-0.2c0.1-0.6,0.2-1.4,0.2-2.1
		c0-0.6,0.3-0.9,0.7-0.9c0.4,0,0.7,0.2,0.7,0.6c0,0.2-0.1,0.9-0.4,2.3c1.8-0.1,3-0.1,3.7-0.1C92,33.3,92.2,33.5,92.2,33.7z
		 M98.3,44.2c-0.1,0.3-0.3,0.6-0.7,1.1c-0.4,0.5-0.7,0.7-1,0.7c-0.1,0-0.7-0.3-1.9-1c-1.3-0.8-2-1.2-2.1-1.3
		c-0.3,1.6-1.4,2.5-3.5,2.5c-0.8,0-1.6-0.2-2.2-0.6c-0.7-0.5-1.1-1.1-1.1-1.8c0-1.5,1.2-2.3,3.5-2.3c0.6,0,1.2,0.1,2,0.4v-1.2
		c0-0.5,0-1-0.1-1.4c0-0.1,0-0.4-0.1-0.7c0-0.3-0.1-0.5-0.1-0.7c0-0.5,0.2-0.8,0.7-0.8c0.4,0,0.6,0.3,0.6,1c0,1,0.1,2.4,0.2,4.3
		c0.8,0.3,1.6,0.6,2.4,0.8c0.9,0.3,1.8,0.5,2.5,0.6c0.2,0,0.3,0.1,0.4,0.1C98.1,44,98.2,44.1,98.3,44.2z M91.2,43.2
		c-1.2-0.4-2.1-0.6-2.7-0.6c-1.2,0-1.7,0.4-1.7,1.2s0.6,1.2,1.8,1.2C90.2,45,91.1,44.4,91.2,43.2z M98.4,36.1c0,0.3-0.1,0.7-0.4,1.1
		c-0.3,0.5-0.6,0.7-0.8,0.7c-0.6,0-1.4-0.4-2.3-1.2c-0.9-0.8-1.4-1.6-1.4-2.2c0-0.2,0.1-0.3,0.2-0.3c0.6,0.3,1.2,0.6,1.8,1
		c0.5,0.3,1.2,0.4,2,0.5C98.1,35.8,98.4,35.9,98.4,36.1z"/>
	<path class="st0" d="M118.4,43.2c0,0.6-0.2,1.1-0.5,1.5c-0.3,0.4-0.8,0.7-1.3,0.8c-0.9,0.2-2.6,0.3-5.2,0.3c-4.7,0-7-1-7-3.1
		c0-1,0.4-1.9,1.3-2.8c0.2-0.2,1-0.9,2.4-2.1c-0.2-1-0.2-1.8-0.2-2.6V33c0-1.5,0.3-2.3,0.8-2.3c0.6,0,0.9,0.3,0.9,0.9
		c0,0.1,0,0.3-0.1,0.5c-0.1,0.3-0.1,0.5-0.1,0.6c-0.1,0.7-0.1,1.6-0.1,2.7c0,0.5,0,1.1,0.1,1.5c2.3-1.7,3.7-2.6,4.2-2.6
		c0.3,0,0.5,0.1,0.6,0.3c0.1,0.2,0.2,0.3,0.4,0.5c0,0.4-0.3,0.7-0.8,1c-1,0.5-2.1,1.1-3.1,1.6c-1.5,0.8-2.7,1.6-3.5,2.3
		c-1.1,0.9-1.7,1.8-1.7,2.7c0,1.1,1,1.7,3.1,1.7c1.3,0,2.9-0.1,4.7-0.3c1.5-0.2,2.8-0.5,3.9-0.8c0.4-0.2,0.8-0.2,1-0.2
		C118.3,42.9,118.4,43,118.4,43.2z M118.6,33.8c0,0.1-0.1,0.4-0.4,0.7c-0.3,0.4-0.5,0.5-0.6,0.5c-0.3,0-0.8-0.3-1.4-1
		c-0.6-0.7-0.9-1.1-0.9-1.3c0-0.2,0.1-0.3,0.2-0.3c0,0,0.3,0.2,1.1,0.5c0.7,0.3,1.3,0.5,1.7,0.5C118.5,33.5,118.6,33.6,118.6,33.8z
		 M121.4,32.1c0,0.2-0.2,0.4-0.5,0.8c-0.3,0.3-0.5,0.5-0.6,0.5c-0.3,0-0.7-0.3-1.4-1c-0.7-0.6-1-1.1-1-1.4c0-0.2,0.1-0.3,0.2-0.3
		c0.1,0,0.4,0.1,0.9,0.4c0.6,0.4,1.3,0.6,2,0.6C121.2,31.8,121.4,31.9,121.4,32.1z"/>
	<path class="st0" d="M140.7,36.1c0,0.3-0.3,0.6-0.9,1c-1.4,0.9-3.4,2-6,3.4c0,0.1,0,0.4,0,0.8c0,0.3,0,0.6,0,0.8
		c0,0.5-0.3,0.7-0.8,0.7c-0.3,0-0.5-0.2-0.6-0.6c0-0.1,0-0.4,0-1c-1,0.5-1.6,0.8-1.9,1.1c-0.8,0.6-1.2,1.1-1.2,1.7
		c0,0.4,0.4,0.6,1.2,0.8c0.6,0.1,1.2,0.2,1.8,0.2c1.7,0,3.3-0.3,4.7-0.8c1.1-0.4,1.6-0.6,1.7-0.6c0.1,0,0.2,0.1,0.2,0.4
		c0,0.5-0.2,1-0.5,1.5c-0.2,0.4-0.9,0.6-1.9,0.8c-0.8,0.1-1.7,0.1-2.7,0.1c-1.3,0-2.4-0.1-3.4-0.4c-1.5-0.4-2.2-1.1-2.2-2
		c0-0.8,0.6-1.6,1.7-2.4c0.2-0.2,1.1-0.7,2.6-1.7c0-0.9-0.1-1.4-0.1-1.6c-0.2-0.6-0.6-0.9-1.2-0.9c-0.9,0-1.6,0.2-2.2,0.5
		c-0.3,0.1-0.9,0.6-1.9,1.4c-0.1,0.1-0.3,0.2-0.5,0.3c-0.4,0-0.7-0.3-0.7-0.9c0-0.4,0.5-0.9,1.4-1.4c1.3-0.8,2.5-1.8,3.5-3.2
		c-0.5,0.1-1.3,0.2-2.3,0.3c0,0-0.3,0.1-0.9,0.2c-0.4,0.1-0.7,0.2-0.9,0.2c-0.4,0-0.6-0.2-0.6-0.7c0-0.6,0.5-0.9,1.4-1
		c0.9,0,2.2-0.1,3.9-0.1c0.2-0.3,0.5-0.9,0.9-1.9c0.2-0.5,0.5-0.7,0.9-0.7c0.5,0,0.8,0.2,0.8,0.7c0,0.2-0.3,0.8-1,1.9
		c0.5,0,1.2,0,2.3,0c1,0,1.8,0,2.3,0c0.1,0,0.3,0,0.6,0c0.2,0,0.4-0.1,0.6-0.1c0.1,0,0.2,0.1,0.3,0.2c0,0.3-0.2,0.6-0.5,1
		c-0.3,0.4-0.6,0.6-0.9,0.6c-0.3,0-0.6-0.1-0.9-0.2c-0.3-0.1-0.6-0.1-0.9-0.2c-0.7-0.2-1.8-0.3-3.3-0.3c-0.8,1-1.5,1.9-2.2,2.6
		c0.6-0.1,1.1-0.1,1.6-0.1c1.3,0,2.1,0.8,2.2,2.3c0,0.2,0,0.3,0.1,0.4c2.1-1.3,3.9-2.4,5.2-3.3c0.4-0.3,0.8-0.4,1.1-0.4
		C140.4,35.4,140.7,35.6,140.7,36.1z"/>
	<path class="st0" d="M160.7,33.2c0,0.5-0.5,1.6-1.6,3.4c-1,1.6-1.7,2.7-2.3,3.4c0.9,0.7,1.7,1.2,2.5,1.4c0.2,0.1,0.4,0.2,0.6,0.4
		c0,0.2-0.3,0.6-0.9,1c-0.5,0.4-0.9,0.6-1.1,0.6c-0.2,0-0.6-0.3-1.1-1c-0.4-0.4-0.7-0.9-1.1-1.3c-1.1,1-2.3,2-3.7,3.1
		c-1.9,1.4-3.3,2.1-4.1,2.1c-0.3,0-0.8-0.2-1.2-0.5c-0.5-0.3-0.7-0.7-0.7-1c0-0.2,0.3-0.4,0.9-0.5c2.8-0.7,5.4-2.1,7.8-4.2
		c-0.5-0.4-1-0.8-1.5-1.2c-0.8-0.7-1.2-1.1-1.2-1.2c0-0.2,0.2-0.3,0.5-0.3c0.2,0,0.8,0.3,1.6,0.8c0.5,0.4,1.1,0.7,1.6,1
		c0.5-0.6,1.2-1.4,1.9-2.4c0.9-1.2,1.4-2.1,1.5-2.6c-0.2-0.1-1.1-0.2-2.8-0.2c-0.8,0-1.8,0-3,0.1c-0.6,0.8-1.3,1.5-2.1,2.3
		c-1.1,1-1.8,1.6-2.4,1.6c-0.3,0-0.6-0.2-1.1-0.5c-0.4-0.3-0.6-0.6-0.6-0.8c0-0.1,0.3-0.2,1-0.5c1.2-0.5,2.2-1.1,3.2-1.8
		c0.7-0.6,1.6-1.6,2.4-3.1c0.3-0.4,0.5-0.6,0.7-0.6c0.4,0,0.5,0.2,0.5,0.5c0,0.2-0.3,0.8-0.8,1.7c4.3-0.1,6.3-0.1,6-0.1
		C160.5,32.6,160.7,32.8,160.7,33.2z"/>
	<path class="st0" d="M184.3,38.4c0,0.2-0.3,0.6-1,1.2s-1.1,0.8-1.4,0.8c-0.3,0-0.7-0.1-1.2-0.4c-1.6-0.8-3.8-1.2-6.6-1.2
		c-2.4,0-4.5,0.3-6.3,0.9c-0.7,0.2-1.1,0.3-1.2,0.3c-0.2,0-0.4-0.1-0.6-0.3c-0.2-0.2-0.3-0.4-0.3-0.5c0-0.4,0.1-0.7,0.4-0.9
		c0.4-0.3,1.6-0.5,3.8-0.7c1.6-0.1,2.9-0.2,4.1-0.2c1.7,0,3.6,0.2,5.6,0.5c1.4,0.2,2.4,0.3,3,0.3c0.1,0,0.3,0,0.6-0.1
		c0.3-0.1,0.5-0.1,0.6-0.1C184.2,38,184.3,38.2,184.3,38.4z"/>
	<path class="st0" d="M206.6,34.1c0,0.3-0.2,0.7-0.5,1.2c-0.3,0.5-0.6,0.7-1,0.7c-0.1,0-0.8-0.2-2.1-0.5c-0.8-0.2-1.7-0.4-2.7-0.4
		c0,0.2,0,0.4,0,0.8c0,0.3,0,0.6,0,0.7c0,3.7-1.5,6.6-4.4,8.7c-1,0.8-1.7,1.1-2.1,1.1c-0.3,0-0.6-0.2-1.2-0.6
		c-0.5-0.4-0.8-0.6-0.8-0.8c0-0.2,0.4-0.5,1.3-0.7c1.2-0.4,2.2-0.9,3-1.5c1.1-0.9,1.9-2,2.3-3.5c0.3-1,0.5-2.4,0.6-4.2
		c-2.3,0-4.2,0.4-5.7,1c-0.4,0.5-0.8,1.1-1.3,1.6c-0.7,0.8-1.2,1.2-1.5,1.2c-0.2,0-0.6-0.2-1.1-0.5c-0.5-0.3-0.7-0.6-0.7-0.8
		c0-0.2,0.4-0.4,1.1-0.8c1-0.5,1.8-1.1,2.6-2c0.9-1.1,1.5-2.1,1.7-2.9c0.2-0.6,0.5-0.9,0.9-0.9c0.3,0,0.4,0.2,0.4,0.5
		c0,0.4-0.4,1.4-1.1,2.9c2.2-0.4,4.2-0.5,6-0.5c0.5,0,1.4,0,2.5,0.1c1.1,0,1.9,0.1,2.4,0.1c0.1,0,0.3,0,0.6,0c0.3,0,0.4,0,0.6,0
		S206.6,34,206.6,34.1z M206.4,31.4c0,0.2-0.2,0.4-0.5,0.6c-0.3,0.3-0.5,0.4-0.7,0.4c-0.3,0-0.7-0.4-1.2-1.2
		c-0.4-0.8-0.7-1.4-0.7-1.7c0-0.2,0-0.3,0.1-0.3c0.1,0,0.3,0.1,0.4,0.3c0.7,0.8,1.3,1.4,2,1.6C206.2,31.2,206.4,31.3,206.4,31.4z
		 M209.4,30.4c-0.1,0.2-0.2,0.4-0.5,0.6c-0.3,0.3-0.5,0.4-0.7,0.5c-0.3-0.1-0.8-0.5-1.3-1.2c-0.6-0.7-0.9-1.2-0.9-1.5
		c0-0.1,0.1-0.2,0.2-0.2c0,0,0.3,0.2,0.8,0.5c0.5,0.4,0.8,0.6,0.9,0.6C208.4,29.9,208.9,30.1,209.4,30.4z"/>
	<path class="st0" d="M215.2,39.2c0,0.2-0.1,0.4-0.3,0.4c-0.2,0-0.7-0.4-1.3-1.2c-0.6-0.8-0.9-1.4-0.9-1.7c0-0.4,0.3-0.6,0.8-0.6
		c0.3,0,0.6,0.4,1.1,1.3C215,38.2,215.2,38.8,215.2,39.2z M224.3,36.4c0,0.4-0.2,1.1-0.6,2.2c-1,2.6-2.9,4.8-5.7,6.7
		c-1.4,0.9-2.4,1.4-3,1.4c-0.3,0-0.6-0.1-1.1-0.4c-0.4-0.3-0.6-0.5-0.6-0.8c0-0.2,0.5-0.4,1.4-0.6c1.3-0.4,2.6-0.9,3.8-1.7
		c1.4-0.9,2.5-1.9,3.2-3c0.3-0.5,0.6-1.2,0.9-2c0.2-0.7,0.4-1.4,0.7-2.1c0.1-0.3,0.3-0.4,0.6-0.4C224.1,35.9,224.3,36,224.3,36.4z
		 M218.9,38.8c0,0.3-0.1,0.4-0.2,0.4c-0.2,0-0.5-0.4-0.9-1.3c-0.4-0.8-0.6-1.4-0.6-1.7c0-0.5,0.3-0.7,0.8-0.7
		C218.6,35.6,218.9,36.7,218.9,38.8z"/>
	<path class="st0" d="M243.6,40c0,0.3-0.4,0.7-1.1,1.2c-0.8,0.5-1.3,0.8-1.6,0.8c-0.3,0-0.7-0.3-1.2-1c-1.4-1.7-3.1-3-5.1-3.9
		c0,0.9,0,2.3,0,4.2c0,1.8,0.1,3.2,0.1,4.2c0,0.7-0.3,1-0.9,1c-0.5,0-0.7-0.4-0.7-1.2c0-0.7,0-1.8,0-3.2c0-1.4,0.1-2.5,0.1-3.2v-4.4
		c0-0.3,0-0.8-0.1-1.4c0-0.7,0-1.1,0-1.5c0-0.6,0.3-0.9,0.9-0.9c0.5,0,0.8,0.3,0.8,0.9c0,0.5,0,1.2-0.1,2.1c0,0.9-0.1,1.7-0.1,2.1
		c1.6,0.7,3.2,1.5,5,2.5c1.5,0.8,2.6,1.2,3.5,1.3C243.4,39.8,243.6,39.9,243.6,40z"/>
	<path class="st0" d="M266.8,37.3c0,1.2-0.5,2.1-1.6,2.9c-0.9,0.7-2,1-3.2,1c-0.8,0-1.4-0.2-1.8-0.6c-0.4-0.5-0.6-0.9-0.6-1.3
		c0-0.2,0-0.3,0.1-0.3c0.2,0,0.6,0.1,1.2,0.2c0.5,0.1,1,0.2,1.3,0.2c0.7,0,1.4-0.2,2.1-0.6c0.8-0.4,1.2-1,1.2-1.6
		c0-0.6-0.2-1.1-0.7-1.5c-0.4-0.3-1-0.5-1.6-0.5c-1.6,0-3.9,0.5-6.8,1.4c0.4,2.4,1,4.4,1.9,6c0.6,1.2,1.3,2.1,2,2.7
		c0.2,0.1,0.4,0.3,0.6,0.6c0,0.2-0.3,0.4-0.8,0.7c-0.5,0.2-0.9,0.3-1.2,0.3c-0.7,0-1.5-1.5-2.4-4.4c-0.6-2.1-1.1-3.9-1.3-5.5
		c-0.8,0.3-2.1,0.8-3.7,1.4l-1.3,0.6c-0.5,0-0.8-0.3-0.8-0.9c0-0.4,0.8-0.9,2.5-1.4c0.3-0.1,1.4-0.4,3.2-0.9
		c-0.2-1.8-0.3-3.2-0.3-4.2c0-0.5,0.3-0.7,0.8-0.7c0.3,0,0.5,0.2,0.6,0.7c0,0.3,0,0.7,0,1.3c0,1,0.1,1.9,0.2,2.7
		c3-0.8,5.2-1.2,6.6-1.2c1.1,0,2,0.2,2.7,0.7C266.4,35.6,266.8,36.4,266.8,37.3z M262,31c0,0.3-0.4,0.8-1.1,1.6
		c-0.8,0.8-1.3,1.1-1.5,1.1c-0.3,0-0.6-0.2-1-0.6c-0.4-0.4-0.6-0.7-0.6-0.9c0-0.1,0.4-0.2,1.1-0.3c0.5,0,1.1-0.3,1.8-0.6
		c0.7-0.4,1-0.6,1-0.6C261.9,30.7,262,30.8,262,31z"/>
	<path class="st0" d="M286.8,31.8c0,0.5-0.7,1.4-2,2.6c-1.1,1-2,1.7-2.8,2.2c0,1.8,0,3.6,0,5.2c0,0.3,0,0.9,0.1,1.8
		c0.1,0.8,0.1,1.4,0.1,1.8c0,0.8-0.2,1.3-0.6,1.3c-0.7,0-1-0.4-1-1.3c0-3.7,0-6.4,0.1-8c-3,1.5-5.3,2.2-6.9,2.2
		c-0.4,0-0.9-0.2-1.3-0.6c-0.4-0.4-0.6-0.9-0.6-1.3c0-0.2,0.3-0.3,0.8-0.4c0.3,0,0.7,0,1.2,0c2.8-0.2,5.2-0.8,7.2-2
		c1.9-1.1,3.2-2.2,4-3.3c0.4-0.6,0.8-0.9,1.2-0.9C286.6,31.1,286.8,31.3,286.8,31.8z"/>
	<path class="st0" d="M309.3,42.9c-0.2,0.6-0.6,0.9-1,0.9c-0.3,0-0.7-0.2-1.2-0.6l-2.7-2.3c-1.6-1.3-2.8-2.4-3.6-3.1
		c-0.3-0.3-0.9-0.8-1.6-1.4c-0.8-0.6-1.2-0.9-1.4-0.9c-0.2,0-1.1,0.9-2.7,2.6c-1.6,1.7-2.7,2.5-3.2,2.5c-0.3,0-0.6-0.1-0.8-0.3
		c-0.2-0.2-0.3-0.4-0.3-0.7c0-0.2,0.2-0.5,0.7-0.8c1.2-0.8,2.7-2,4.5-3.6c0.9-0.8,1.5-1.2,1.9-1.2c0.4,0,0.9,0.3,1.5,0.8
		c1,0.9,2.6,2.2,4.8,3.9l4.1,2.8C308.9,42,309.3,42.4,309.3,42.9z M305.5,34c0,0.2-0.2,0.4-0.5,0.6c-0.3,0.2-0.5,0.3-0.7,0.3
		c-0.3,0-0.6-0.4-1.1-1.2c-0.5-0.8-0.7-1.3-0.7-1.7c0-0.2,0.1-0.3,0.2-0.3c0.1,0,0.3,0.1,0.4,0.3c0.7,0.8,1.3,1.4,2,1.6
		C305.3,33.8,305.4,33.9,305.5,34z M308.5,33c-0.1,0.2-0.2,0.4-0.5,0.7c-0.3,0.2-0.5,0.4-0.6,0.4c-0.3-0.1-0.8-0.5-1.3-1.1
		c-0.5-0.7-0.8-1.2-0.8-1.5c0-0.1,0-0.2,0.1-0.2c0,0,0.3,0.2,0.8,0.5c0.5,0.4,0.8,0.6,0.9,0.6C307.5,32.6,308,32.8,308.5,33z"/>
	<path class="st0" d="M319.8,36c0,0.3-0.1,0.4-0.4,0.4c-0.5,0-1.4-0.3-2.5-0.9c-1.3-0.6-1.9-1.1-1.9-1.6c0-0.3,0.1-0.5,0.3-0.7
		c0.2-0.2,0.5-0.3,0.7-0.3c0.3,0,1.1,0.4,2.2,1.3C319.2,35.2,319.8,35.8,319.8,36z M329.1,34.8c0,0.5-0.6,1.5-1.8,3
		c-2.4,3.2-5.4,5.6-9.2,7.1c-1.1,0.5-1.9,0.7-2.3,0.7c-0.7,0-1-0.3-1-1c0-0.6,0.4-1,1.3-1.2c1-0.2,2.3-0.7,3.8-1.3
		c1.9-0.8,3.6-2,5-3.4c1.5-1.4,2.5-2.7,3-3.8c0.2-0.4,0.4-0.5,0.6-0.5C329,34.2,329.1,34.4,329.1,34.8z"/>
	<path class="st0" d="M347.5,40c0,0.3-0.4,0.7-1.1,1.2c-0.8,0.5-1.3,0.8-1.6,0.8c-0.3,0-0.7-0.3-1.2-1c-1.4-1.7-3.1-3-5.1-3.9
		c0,0.9,0,2.3,0,4.2c0,1.8,0.1,3.2,0.1,4.2c0,0.7-0.3,1-0.9,1c-0.5,0-0.7-0.4-0.7-1.2c0-0.7,0-1.8,0-3.2c0-1.4,0.1-2.5,0.1-3.2v-4.4
		c0-0.3,0-0.8-0.1-1.4c0-0.7,0-1.1,0-1.5c0-0.6,0.3-0.9,0.9-0.9c0.5,0,0.8,0.3,0.8,0.9c0,0.5,0,1.2-0.1,2.1c0,0.9-0.1,1.7-0.1,2.1
		c1.6,0.7,3.2,1.5,5,2.5c1.5,0.8,2.6,1.2,3.5,1.3C347.3,39.8,347.5,39.9,347.5,40z"/>
	<path class="st0" d="M358.4,41.5c-0.2,0.8-0.5,1.6-0.9,2.5c-0.6,1.3-1.1,1.9-1.5,1.9c-0.5,0-0.9-0.6-1.3-1.9
		c-0.3-1.1-0.5-2.7-0.5-4.8c0-0.8,0.1-2,0.4-3.6c0.3-1.7,0.6-2.8,0.9-3.4c0.2-0.4,0.5-0.6,0.9-0.6c0.5,0,0.8,0.2,0.8,0.7
		c0,0.1-0.1,0.5-0.4,1c-0.4,0.8-0.6,1.7-0.9,2.8c-0.3,1.1-0.4,2.1-0.4,2.8c0,3.1,0.2,4.7,0.7,4.7c0.2,0,0.7-0.8,1.5-2.3
		c0.1-0.2,0.2-0.3,0.3-0.3C358.3,41.2,358.4,41.3,358.4,41.5z M370.5,42.3c0,0.1-0.2,0.5-0.5,1.2c-0.3,0.6-0.6,0.9-1,1.1
		c-0.5,0.2-1.6,0.3-3.4,0.3c-1.4,0-2.6-0.2-3.6-0.6c-1.4-0.6-2.1-1.5-2.1-2.7c0-1.3,0.3-2,0.9-2c0.1,0,0.2,0.1,0.2,0.3
		c-0.2,0.6-0.2,1-0.2,1.2c0,1.4,1.1,2.1,3.3,2.1c0.9,0,2-0.1,3.2-0.3c0.7-0.1,1.3-0.3,1.9-0.5c0.5-0.2,0.8-0.3,1-0.3
		C370.3,42,370.4,42.1,370.5,42.3z M368.4,33.6c0,0.2-0.6,0.8-1.8,1.6c-1.2,0.8-1.9,1.2-2.1,1.2c-0.3,0-0.4-0.1-0.4-0.3
		c0-0.1,0.3-0.5,0.8-1c0.5-0.4,0.8-0.8,1.1-0.9c-0.1,0-0.2,0-0.3,0c-1,0-2.1,0.1-3.3,0.3c-1.3,0.2-1.9,0.4-1.8,0.4
		c-0.3,0-0.4-0.2-0.4-0.5c0-0.5,0.2-0.8,0.6-1c0.2,0,0.6-0.1,1.3-0.2c1.6-0.2,3.5-0.2,5.6-0.2C368.1,33,368.4,33.2,368.4,33.6z"/>
	<path class="st0" d="M383.6,30.5c0.3,0,0.5,0.2,0.6,0.5c0.3,0,0.6,0.3,1.2,0.7c3.6,2.3,5.9,3.6,6.7,3.8c0.6,0.2,1.3,0.3,2,0.3
		c0.3,0,0.5,0.1,0.5,0.4c0,0.4-0.3,0.7-0.8,1.1c-0.5,0.4-1.1,0.5-1.7,0.5c-0.4,0-0.8-0.2-1.1-0.5c-1.5-1.3-3.1-2.6-5-4
		c-0.8-0.5-1.5-0.9-2.1-1.2c-0.1,0-0.2-0.1-0.3-0.1c-1.2,1.3-2.5,2.4-3.8,3.3c-1.2,0.8-2.5,1.5-4.1,2c-0.3,0.1-0.6,0.2-0.7,0.2
		c-0.4,0-0.8-0.2-1.2-0.7c-0.4-0.3-0.5-0.6-0.5-0.9c0-0.2,0.3-0.3,0.6-0.4c1.1-0.1,2-0.2,2.5-0.4c1.3-0.3,2.6-0.9,3.8-1.7
		c1.2-0.8,2.2-1.7,3.1-2.8C383.3,30.6,383.4,30.5,383.6,30.5z M379.2,40c0.2,0,0.5,0,0.7,0.1c0.2,0.1,0.6,0.1,1,0.1h3.5
		c0.8,0,1.7,0,2.8,0.1c0.2,0,0.5-0.1,0.8-0.2c0.4,0,0.7,0.2,0.7,0.7c0,0,0,0.1-0.1,0.2c-0.1,0.2-0.1,0.5-0.1,0.9
		c0,0.6-0.1,1.2-0.1,1.8c0,0.4,0,0.9,0.1,1.6c0,0.5-0.2,0.7-0.7,0.7c-1.6-0.1-3-0.2-4.2-0.2c-1.6,0-2.6,0-3.1,0.1
		c-0.4,0-0.8,0.1-1.3,0.1c-0.4,0-0.6-0.2-0.6-0.6c0.1-0.9,0.2-1.7,0.2-2.4c0-0.7-0.1-1.4-0.2-2.4C378.6,40.3,378.8,40,379.2,40z
		 M380.5,36.4h7.3c0.2,0,0.4,0.1,0.4,0.3c0,0.3-0.1,0.6-0.3,0.8c-0.2,0.2-0.5,0.3-0.8,0.3c-0.2,0-0.6-0.1-1.2-0.2
		c-0.7,0-1.4-0.1-2.2-0.1c-1.4,0-2.3,0.1-2.9,0.2c-0.4,0.1-0.6,0.2-0.7,0.2c-0.5,0-0.8-0.3-0.8-0.7c0-0.2,0.2-0.4,0.4-0.6
		C379.9,36.4,380.2,36.4,380.5,36.4z M383.6,44.8c1,0,2,0,3.2,0.1c0.3,0,0.4-0.1,0.4-0.3v-3c0-0.2-0.1-0.3-0.2-0.3
		c-1.5-0.1-3.6-0.1-6.4-0.1c-0.3,0-0.5,0.2-0.5,0.5c0,1-0.1,1.9-0.2,2.8c0,0.2,0.2,0.4,0.6,0.4C381.4,44.8,382.5,44.8,383.6,44.8z"
		/>
	<path class="st0" d="M415.6,40c0,1.2-0.4,2.2-1.2,3.2c-0.7,0.8-1.7,1.4-2.9,1.8c-1.1,0.4-2,0.6-2.8,0.6c-0.3,0-0.7-0.2-1.2-0.6
		c-0.5-0.4-0.7-0.8-0.7-1.2c0-0.2,0.4-0.2,1.3-0.2c4-0.1,6.1-1.5,6.1-4.2c0-1-0.4-1.7-1.1-2.3c-0.6-0.5-1.4-0.7-2.4-0.7
		c-2.2,0-4.4,0.9-6.6,2.8c0,0.7,0,1.8,0,3.3c0,1.5,0,2.6,0,3.3c0,0.5-0.3,0.8-0.9,0.8c-0.4,0-0.6-0.4-0.6-1.2c0-0.1,0-0.6,0-1.6
		c0-1,0-2.4,0.1-4.3c-1.1,1.2-2,2.4-2.8,3.7c-0.3,0.4-0.5,0.6-0.7,0.6c-0.5,0-0.8-0.3-0.8-0.9c0-0.4,0.6-1.4,1.9-2.8
		c0.8-0.9,1.6-1.8,2.4-2.6c0-0.5,0-1.2,0.1-2.2c-1.4,0.2-2.5,0.4-3.4,0.8c-0.3,0-0.5-0.2-0.5-0.7c0-0.5,0.4-0.9,1.2-1
		c0.2,0,1.1-0.1,2.7-0.3l0.1-2.2c0-0.9,0.3-1.3,0.7-1.3c0.5,0,0.8,0.2,0.8,0.7c0,0.3,0,0.7-0.1,1.4c0,0.6-0.1,1.1-0.1,1.4
		c0,0,0.1,0,0.2,0c0,0,0.1,0,0.1,0c0.6,0,0.8,0.2,0.8,0.6c0,0.3-0.2,0.6-0.5,1.2c-0.3,0.4-0.5,0.7-0.7,1.1c0,0.1,0,0.3,0,0.5
		c0,0.2,0,0.4,0,0.5c2.4-1.6,4.5-2.3,6.4-2.3c1.4,0,2.6,0.4,3.6,1.3C415.1,37.6,415.6,38.7,415.6,40z"/>
	<path class="st0" d="M439.6,36.3c0,0.3-0.2,0.7-0.7,1.2c-0.4,0.5-0.8,0.8-1.1,0.8c-0.2,0-0.9-0.2-1.9-0.6c-0.6-0.2-1.3-0.4-2.1-0.6
		c-0.2,0.8-0.3,1.6-0.5,2.5c-0.3,1.1-0.8,1.7-1.5,1.7c-0.4,0-1-0.2-1.7-0.7c-0.8-0.5-1.1-0.9-1.1-1.2c0-0.2,0.1-0.3,0.4-0.3
		c0.4,0.1,0.7,0.3,1.1,0.5c0.5,0.2,0.8,0.4,1,0.4c0.4,0,0.8-1,1-2.9c-0.1,0-0.2,0-0.3,0c-0.2,0-0.3,0-0.4,0c-1.7,0-3.4,0.1-5,0.2
		c0,0.9-0.1,1.7-0.1,2.4c0,1.8,0.1,2.9,0.4,3.4c0.4,0.8,1.4,1.2,3,1.2c1.6,0,3.6-0.3,5.8-1c0.2-0.1,0.4-0.1,0.6-0.1
		c0.1,0,0.2,0.1,0.2,0.4c0,0.3-0.2,0.7-0.5,1.2c-0.3,0.5-0.9,0.9-1.8,1.1c-0.4,0.1-1.2,0.1-2.2,0.1c-1.6,0-3-0.2-4.1-0.6
		c-1.1-0.4-1.9-1.2-2.3-2.3c-0.3-0.8-0.4-1.9-0.4-3.4c0-0.3,0-0.7,0-1.2c0-0.5,0-0.9,0-1.2c-1.5,0.2-2.9,0.6-4.1,0.9l-0.9,0.3
		c-0.4,0-0.6-0.2-0.6-0.5c0-0.4,0.1-0.7,0.3-1c0.2-0.3,2-0.5,5.2-0.8v-3.5c0-0.7,0.3-1.1,1-1.1c0.4,0,0.6,0.3,0.6,0.8
		c0,0.4,0,1-0.1,1.8c-0.1,0.8-0.1,1.4-0.1,1.8c2.3-0.1,4.2-0.2,5.8-0.2c0-0.4,0-0.9,0-1.6c0-0.8,0-1.4,0-1.6c0-0.6,0-0.9,0-1
		c0.1-0.3,0.4-0.5,0.8-0.5c0.3,0,0.6,0.2,0.6,0.6c0,0.1,0,0.4,0,0.9c0,0.6-0.1,1.7-0.3,3.4c1.4,0.2,2.8,0.2,4.1,0.2
		c0.1,0,0.4,0,0.6-0.1c0.3-0.1,0.5-0.1,0.6-0.1C439.5,36,439.6,36.1,439.6,36.3z"/>
	<path class="st0" d="M460.3,33.5c0,0.4-0.2,0.6-0.6,0.6c-0.2,0-0.4,0-0.8-0.1c-0.4,0-0.6-0.1-0.8-0.1c-1.8,0-3.5,0.5-4.9,1.6
		c-1.6,1.2-2.4,2.7-2.4,4.5c0,1.5,0.7,2.6,2,3.3c1.1,0.6,2.4,0.9,4,0.9c0.3,0,0.6,0,1.2,0c0.5-0.1,0.9-0.1,1.2-0.1
		c0.2,0,0.3,0.1,0.3,0.3c-0.1,0.5-0.4,1-0.9,1.4c-0.5,0.4-1,0.6-1.5,0.6c-2,0-3.7-0.5-5.2-1.5c-1.6-1.1-2.4-2.6-2.4-4.5
		c0-1.5,0.5-2.8,1.5-3.9c0.8-0.9,1.9-1.7,3.5-2.5c-3.2,0.3-6.1,0.8-8.8,1.5c-0.3,0.1-0.6,0.2-1,0.3c-0.4,0-0.6-0.2-0.6-0.6
		c0-0.4,0.1-0.8,0.3-1c0.2-0.2,0.7-0.4,1.4-0.5c2.2-0.3,5-0.6,8.5-0.8c2.9-0.2,4.7-0.3,5.1-0.3c0.3,0,0.5,0.1,0.7,0.3
		C460.2,33,460.3,33.2,460.3,33.5z"/>
	<path class="st0" d="M177.7,71.5c0,1.2-0.6,2.3-1.8,3.2c-1.1,0.8-2.3,1.2-3.6,1.2c-0.4,0-0.8-0.2-1.3-0.6c-0.5-0.4-0.7-0.8-0.7-1.2
		c0-0.2,0.1-0.3,0.3-0.3c0.1,0,0.3,0,0.5,0c0.2,0,0.4,0,0.5,0c1.8,0,3-0.3,3.7-1c0.6-0.5,0.9-1.1,0.9-1.8c0-0.6-0.3-1.2-1-1.6
		c-0.6-0.4-1.4-0.6-2.6-0.6c-1.5,0-3.1,0.3-4.8,0.9l-0.1,4.1c0,1.4-0.5,2-1.3,2c-0.8,0-1.7-0.3-2.7-0.8c-1.1-0.6-1.7-1.3-1.7-2
		c0-0.8,0.5-1.6,1.6-2.4c0.8-0.6,1.7-1.1,2.7-1.5c0-0.7,0-1.9,0-3.6c-0.6,0-1.6,0.1-2.9,0.2c-0.7,0.2-1,0.3-0.9,0.3
		c-0.4,0-0.6-0.2-0.6-0.6c0-0.3,0.1-0.5,0.3-0.7c0.1-0.2,0.8-0.3,1.9-0.4c0.7,0,1.4,0,2.2,0c0-0.3,0-0.7,0-1.3c0-0.6,0-1,0-1.3
		c0-0.5,0.2-0.8,0.7-0.8c0.5,0,0.8,0.3,0.8,0.9l0,2.4c0.5,0,1.2,0,2.1,0c0.9,0,1.6,0,2.1,0c0.4,0,0.6,0.1,0.6,0.3
		c0,0.3-0.1,0.5-0.3,0.8s-0.4,0.4-0.6,0.5c-0.7-0.2-1.6-0.3-2.7-0.3c-0.1,0-0.3,0-0.6,0c-0.3,0-0.4,0-0.6,0l-0.1,3.1
		c1.6-0.5,3.2-0.8,4.7-0.8c0.9,0,1.8,0.1,2.6,0.4c1,0.3,1.7,0.8,2.1,1.4C177.5,70.2,177.7,70.8,177.7,71.5z M166.4,70.3
		c-1.9,1-2.8,1.8-2.8,2.5c0,0.5,0.3,0.9,0.8,1.2c0.5,0.2,1,0.4,1.5,0.4c0.3,0,0.5-0.3,0.5-0.8C166.3,72.8,166.3,71.7,166.4,70.3z
		 M178.8,65.2c0,0.2-0.3,0.6-0.7,1c-0.4,0.4-0.7,0.7-1,0.7c-0.3,0-0.9-0.5-1.8-1.5c-0.8-1-1.2-1.7-1.2-2.1c0-0.2,0.1-0.3,0.2-0.3
		c0.1,0,0.6,0.3,1.5,0.8c0.9,0.6,1.7,0.9,2.3,1C178.6,64.9,178.8,65,178.8,65.2z"/>
	<path class="st0" d="M183.9,63.7h7.1c0.2,0,0.3,0.1,0.3,0.3c0,0.3-0.1,0.5-0.3,0.7c-0.2,0.2-0.5,0.3-0.8,0.3c-0.2,0-0.6,0-1.2-0.1
		c-0.7,0-1.4,0-2.2,0c-1.3,0-2.3,0.1-2.8,0.2c-0.3,0.1-0.6,0.2-0.6,0.2c-0.5,0-0.7-0.2-0.8-0.6c0-0.2,0.2-0.4,0.4-0.6
		C183.2,63.7,183.5,63.7,183.9,63.7z M184.5,71.4c0.2,0,0.4,0,0.7,0.1c0.2,0.1,0.6,0.1,1,0.1h1.6c0.4,0,0.8,0,1.3,0.1
		c0.2,0,0.5-0.1,0.8-0.2c0.4,0,0.6,0.2,0.6,0.7c0,0,0,0.1,0,0.1c-0.1,0.1-0.1,0.4-0.1,0.7c0,0.4-0.1,0.9-0.1,1.5
		c0,0.3,0,0.7,0.1,1.2c0,0.5-0.2,0.7-0.7,0.7c-0.9-0.1-1.8-0.2-2.5-0.2c-1,0-1.6,0-1.9,0c-0.2,0-0.5,0.1-0.8,0.1
		c-0.4,0-0.7-0.2-0.7-0.7c0.1-0.7,0.2-1.4,0.2-1.9c0-0.5-0.1-1.1-0.2-1.8C183.9,71.7,184.1,71.4,184.5,71.4z M185.4,60.9h4.5
		c0.2,0,0.3,0.1,0.3,0.2c0,0.3-0.1,0.5-0.3,0.7c-0.2,0.2-0.4,0.3-0.8,0.3c-0.1,0-0.3,0-0.7-0.1c-0.4,0-0.8,0-1.2,0
		c-0.8,0-1.5,0-1.8,0.1c-0.2,0.1-0.4,0.1-0.4,0.1c-0.4,0-0.6-0.3-0.6-0.7c0-0.2,0.1-0.4,0.3-0.6C184.8,61,185,60.9,185.4,60.9z
		 M185.5,66.4h3.8c0.4,0,0.6,0.2,0.6,0.6c0,0.3-0.2,0.5-0.6,0.5c-1.7,0-3.1,0.1-4,0.2c-0.5,0-0.7-0.2-0.7-0.6
		C184.5,66.6,184.8,66.4,185.5,66.4z M185.5,68.8h3.8c0.4,0,0.6,0.2,0.6,0.6c0,0.3-0.2,0.5-0.6,0.5c-1.7,0-3.1,0.1-4,0.2
		c-0.5,0-0.7-0.2-0.7-0.6C184.5,69,184.8,68.8,185.5,68.8z M187.2,75.2c0.4,0,0.9,0,1.5,0.1c0.3,0,0.4-0.1,0.4-0.3v-2
		c0-0.2-0.1-0.3-0.2-0.3c-0.7-0.1-1.7-0.1-3-0.1c-0.3,0-0.5,0.2-0.5,0.5c0,0.6-0.1,1.2-0.2,1.8c0,0.3,0.2,0.4,0.6,0.4
		C186.2,75.2,186.7,75.2,187.2,75.2z M202,60.8c0.3,0,0.5,0.2,0.5,0.5c0,0.3-0.1,0.5-0.4,0.6c-1.4,0.4-2.7,0.6-3.8,0.9l0,3.2
		c0.6,0,1.2,0.1,1.9,0.1c0.9,0.1,1.7,0.1,2.4,0.1c0.5,0,1.1-0.1,1.8-0.2c0.1,0,0.2,0.2,0.2,0.5c0,0.5-0.2,1-0.6,1.5
		c-0.3,0.4-0.5,0.6-0.7,0.6c-0.3,0-0.6-0.1-1.1-0.4c-0.7-0.4-1.4-0.7-2.2-0.8c-0.5-0.1-1.1-0.2-1.6-0.2l0,3.1h0.1
		c0.6,0,1.3,0,2.2,0.1c0.2,0,0.5-0.1,0.8-0.2c0.4,0,0.6,0.2,0.6,0.7c0,0,0,0.1,0,0.2c-0.1,0.2-0.1,0.5-0.1,0.9
		c0,0.6-0.1,1.2-0.1,1.9c0,0.4,0,1,0.1,1.7c0,0.5-0.2,0.7-0.7,0.7c-1.3-0.1-2.5-0.2-3.6-0.2c-1.3,0-2.2,0-2.5,0.1
		c-0.3,0-0.7,0.1-1.1,0.1c-0.4,0-0.6-0.2-0.6-0.6c0.1-1,0.2-1.8,0.2-2.5c0-0.7-0.1-1.5-0.2-2.4c0-0.4,0.2-0.7,0.6-0.7
		c0.2,0,0.5,0,0.7,0.1c0.2,0.1,0.6,0.1,1,0.1h1.3l0-3.2c-0.9,0-1.8,0.1-2.7,0.2c-0.6,0.1-1.4,0.4-2.5,1c-0.5,0-0.8-0.2-0.8-0.6
		c0-0.3,0.1-0.5,0.3-0.7c0.3-0.3,0.6-0.5,1.1-0.5c1.9-0.4,3.4-0.5,4.5-0.6l0-2.9c-0.3,0.1-0.6,0.1-0.9,0.2c-1.1,0.1-1.8,0.2-2.2,0.2
		c-0.4,0-0.8-0.2-1.2-0.5c-0.2-0.2-0.4-0.5-0.4-0.8c0-0.2,0.1-0.3,0.4-0.3c2.2,0,4-0.2,5.4-0.4c1.4-0.2,2.6-0.4,3.6-0.6
		C201.7,60.9,201.8,60.8,202,60.8z M197.5,75c0.8,0,1.6,0,2.5,0.1c0.3,0,0.4-0.1,0.4-0.3v-3.2c0-0.2-0.1-0.3-0.2-0.3
		c-1.1-0.1-2.8-0.1-5-0.1c-0.3,0-0.5,0.2-0.5,0.5c0,1.1-0.1,2.1-0.2,3c0,0.2,0.2,0.4,0.6,0.4C195.8,75,196.6,75,197.5,75z"/>
	<path class="st0" d="M222.3,71.3c0,0.5-0.1,1-0.4,1.6c-0.4,1-1.6,1.9-3.6,2.5c-1.6,0.5-3.1,0.8-4.5,0.8c-1.7,0-2.8-0.7-3.4-2.1
		c-0.4-0.9-0.5-3.2-0.5-6.8c0-3.6,0.1-5.6,0.3-5.8c0.2-0.2,0.5-0.4,0.8-0.4c0.6,0,0.9,0.4,0.9,1.1c0,0.2-0.1,0.9-0.2,2.1
		c-0.2,1.9-0.3,3.7-0.3,5.3c0,1.4,0,2.3,0.1,2.6c0.1,1.2,0.4,2,0.9,2.3c0.4,0.2,0.8,0.3,1.4,0.3c1.2,0,2.5-0.3,3.9-1
		c1.3-0.6,2.4-1.4,3.4-2.3c0.6-0.6,1-0.9,1-0.9C222.2,70.6,222.3,70.8,222.3,71.3z"/>
	<path class="st0" d="M242.2,71.3c0,0.5-0.1,1-0.4,1.6c-0.4,1-1.6,1.9-3.6,2.5c-1.6,0.5-3.1,0.8-4.5,0.8c-1.7,0-2.8-0.7-3.4-2.1
		c-0.4-0.9-0.5-3.2-0.5-6.8c0-3.6,0.1-5.6,0.3-5.8c0.2-0.2,0.5-0.4,0.8-0.4c0.6,0,0.9,0.4,0.9,1.1c0,0.2-0.1,0.9-0.2,2.1
		c-0.2,1.9-0.3,3.7-0.3,5.3c0,1.4,0,2.3,0.1,2.6c0.1,1.2,0.4,2,0.9,2.3c0.4,0.2,0.8,0.3,1.4,0.3c1.2,0,2.5-0.3,3.9-1
		c1.3-0.6,2.4-1.4,3.4-2.3c0.6-0.6,1-0.9,1-0.9C242.1,70.6,242.2,70.8,242.2,71.3z"/>
	<path class="st0" d="M263.8,74.1c-0.1,0.3-0.3,0.7-0.8,1.2c-0.4,0.5-0.8,0.8-1.1,0.8c-0.4,0-1-0.3-2-0.9c-0.6-0.4-1.2-0.8-1.7-1.2
		c-0.5-0.3-1.1-0.6-2-0.9c-0.2,2-1.4,3-3.7,3c-0.9,0-1.6-0.2-2.3-0.6c-0.8-0.4-1.2-1.1-1.2-1.9c0-0.9,0.4-1.5,1.3-1.9
		c0.7-0.3,1.5-0.5,2.4-0.5c0.6,0,1.4,0.1,2.2,0.3c0-0.4,0-0.9,0-1.5c0-0.8,0-1.3,0-1.5c0,0,0,0,0-0.1c0-0.1,0-0.1,0-0.1
		c-1.6,0.1-2.9,0.2-3.9,0.4c-0.1,0-0.2,0-0.4,0.1c-0.2,0.1-0.3,0.1-0.4,0.1c-0.4,0-0.6-0.2-0.6-0.7c0-0.5,0.4-0.9,1.3-0.9
		c0.7-0.1,2-0.2,3.8-0.2c0-0.8,0-1.8,0-3c-1.3,0-2.1,0.1-2.3,0.1c-0.9,0.1-1.6,0.2-2.3,0.3c-0.6,0.2-0.9,0.2-1,0.2
		c-0.5,0-0.8-0.3-0.8-0.9c0-0.2,0.1-0.4,0.2-0.5c0.2-0.2,2.2-0.3,6.1-0.3c0-1.1-0.1-1.8-0.1-1.9c0-0.6,0.3-0.9,0.8-0.9
		c0.6,0,0.9,0.3,0.9,0.9c0,0.5,0,1.2-0.1,1.9c2.9,0.1,4.9,0.2,5.8,0.2c0.4,0,0.5,0.1,0.5,0.2c0,0.3-0.1,0.6-0.4,1
		c-0.3,0.4-0.5,0.6-0.7,0.6c0.1,0-0.3-0.1-1.2-0.4c-0.9-0.2-2.2-0.4-4.1-0.5c0,1,0,2,0,2.9c1.8,0,3.4,0.1,4.8,0.3
		c0.1,0,0.2,0,0.3,0.1c0,0,0.1,0.1,0.1,0.2c0,0.3-0.1,0.5-0.3,0.8c-0.2,0.3-0.4,0.5-0.6,0.5c0,0-0.6-0.1-1.5-0.3
		c-0.8-0.2-1.8-0.2-2.9-0.3c0,0.2,0,1.3-0.1,3.6c1.5,0.4,2.9,0.9,4.2,1.4c0.9,0.3,1.8,0.5,2.8,0.6C263.6,73.8,263.8,73.9,263.8,74.1
		z M255,72.6c-1-0.3-1.8-0.4-2.4-0.4c-1.6,0-2.5,0.5-2.5,1.4c0,0.4,0.3,0.8,0.9,1c0.4,0.2,0.9,0.3,1.4,0.3c0.8,0,1.4-0.2,1.8-0.6
		C254.6,74,254.9,73.4,255,72.6z"/>
	<path class="st0" d="M286.4,64.2c-0.1,0.3-0.3,0.8-0.7,1.2c-0.4,0.5-0.8,0.8-1.1,0.8c-0.3-0.1-0.8-0.3-1.4-0.6
		c-1.3-0.5-2.8-0.8-4.4-0.9c0,0.9,0,2.2-0.1,4c0.4,1.1,0.6,1.9,0.6,2.4c0,1-0.3,1.9-1,2.8c-0.6,0.8-1.4,1.5-2.3,1.9
		c-1.1,0.6-2,0.8-2.7,0.8c-0.4,0-0.8-0.2-1.2-0.6c-0.4-0.4-0.6-0.8-0.6-1.2c0-0.1,0.2-0.2,0.7-0.3c1.4-0.1,2.4-0.2,3-0.4
		c1.1-0.3,1.9-0.9,2.4-1.8c0.3-0.6,0.5-1.1,0.5-1.5c0,0,0-0.1,0-0.1c0-0.1,0-0.2,0-0.2c-0.3,0.5-0.7,0.9-1.3,1.2
		c-0.6,0.3-1.2,0.5-1.7,0.5c-0.8,0-1.5-0.3-2.2-0.8c-0.6-0.5-1-1.2-1-1.9c0-0.9,0.4-1.5,1.1-2c0.6-0.4,1.4-0.6,2.3-0.6
		c0.7,0,1.3,0.2,2.1,0.6c0-0.4,0-1.3,0-2.8c-2.4,0-4.5,0.3-6.5,0.9c-1.1,0.4-1.7,0.6-1.8,0.6c-0.5,0-0.8-0.3-0.8-0.9
		c0-0.5,0.6-0.9,1.9-1.2c0.8-0.1,1.6-0.2,2.4-0.3c1.4-0.2,3-0.3,4.8-0.3c-0.1-1.5-0.1-2.3-0.1-2.4c0-0.7,0.2-1,0.7-1
		c0.6,0,0.8,0.4,0.8,1.3c0,0.2,0,0.6,0,1.1c0,0.4,0,0.8,0,1c2.7,0.2,5.1,0.3,7.1,0.3C286.1,64,286.3,64.1,286.4,64.2z M277.4,69
		c-0.5-0.7-1.2-1-2-1c-0.5,0-1,0.1-1.5,0.4c-0.5,0.3-0.7,0.7-0.7,1.2c0,0.5,0.2,0.9,0.5,1.2c0.4,0.3,0.8,0.4,1.3,0.4
		C276.5,71.1,277.3,70.4,277.4,69z"/>
	<path class="st0" d="M296.5,74.7c0,0.8-0.3,1.5-0.8,2c-0.5,0.5-1.2,0.8-2,0.8c-0.8,0-1.5-0.3-2-0.8c-0.6-0.6-0.8-1.2-0.8-2
		c0-0.8,0.3-1.5,0.8-2c0.6-0.6,1.2-0.9,2-0.9c0.8,0,1.5,0.3,2,0.9C296.2,73.3,296.5,73.9,296.5,74.7z M295.6,74.7
		c0-0.5-0.2-1-0.6-1.4c-0.4-0.4-0.8-0.6-1.4-0.6c-0.5,0-1,0.2-1.4,0.6c-0.4,0.4-0.6,0.9-0.6,1.4s0.2,1,0.6,1.4
		c0.4,0.4,0.9,0.6,1.4,0.6c0.5,0,1-0.2,1.4-0.6C295.4,75.7,295.6,75.3,295.6,74.7z"/>
</g>
</svg>
