<?xml version="1.0" encoding="utf-8"?>
<!-- Generator: Adobe Illustrator 24.0.3, SVG Export Plug-In . SVG Version: 6.00 Build 0)  -->
<svg version="1.1" id="レイヤー_1" xmlns="http://www.w3.org/2000/svg" xmlns:xlink="http://www.w3.org/1999/xlink" x="0px"
	 y="0px" viewBox="0 0 193.5 157.5" style="enable-background:new 0 0 193.5 157.5;" xml:space="preserve">
<style type="text/css">
	.st0{fill:#C4DAE7;}
	.st1{fill:none;stroke:#503819;stroke-width:2.6527;stroke-miterlimit:10;}
	.st2{fill:none;stroke:#503819;stroke-width:4.5475;stroke-miterlimit:10;}
	.st3{fill:#7AB942;}
	.st4{fill:#699288;}
	.st5{fill:none;stroke:#503819;stroke-width:4.4532;stroke-miterlimit:10;}
	.st6{fill:#7AB2BF;stroke:#503819;stroke-width:3.5564;stroke-miterlimit:10;}
	.st7{fill:#503819;}
	.st8{fill:#F3BD49;stroke:#503819;stroke-width:4.4368;stroke-miterlimit:10;}
</style>
<g>
	<g>
		<g>
			<path class="st0" d="M162.8,116c0,4.2-3.7,7.6-8.2,7.6H27.7c-4.5,0-8.2-3.4-8.2-7.6V44c0-4.2,3.7-7.6,8.2-7.6h126.9
				c4.5,0,8.2,3.4,8.2,7.6V116z"/>
			<g>
				<g>
					<path class="st1" d="M137.6,104.4c0,0.9-0.7,1.6-1.6,1.6H12.8c-0.9,0-1.6-0.7-1.6-1.6V26.2c0-0.9,0.7-1.6,1.6-1.6H136
						c0.9,0,1.6,0.7,1.6,1.6V104.4z"/>
				</g>
			</g>
			<rect x="2.3" y="15.3" class="st2" width="145.5" height="98.1"/>
		</g>
		<g>
			<g>
				<ellipse class="st3" cx="134.2" cy="53.3" rx="48.7" ry="49.5"/>
				<path class="st4" d="M134.1,1.5l-0.5,54.9l51.6-6.1C185.2,50.4,176.7,10.8,134.1,1.5z"/>
				<circle class="st5" cx="133.5" cy="52.5" r="50.3"/>
				<path class="st6" d="M132.5,2.2v54.9l49.7-4.7c0,0,1.1,21.5-9.6,29.7l-40.1-24.5"/>
			</g>
		</g>
		<g>
			<g>
				<g>
					<path class="st7" d="M47.2,74.2c10,0.5,18.2-7.7,17.7-17.7c-0.4-8.5-7.4-15.5-15.9-15.9c-10-0.5-18.2,7.7-17.7,17.7
						C31.7,66.9,38.7,73.8,47.2,74.2z"/>
				</g>
			</g>
			<path class="st7" d="M33.3,111.4L26.2,129c-1.2,3.5-5.4,5-8.7,3.9c-1.9-0.7-3.4-2.2-4.2-4c-0.8-2,0-4.4,0.6-6.4
				c2.3-7.3,4.6-14.6,6.9-21.9c1.9-6.2,4-13.3,8.7-18c4.4-4.4,10.2-7.5,16.6-7.5c2.7,0,13.5,0,19.5,0.3c0,0,31.8-8.1,33.7-8.4
				c1.9-0.3,3.9-0.1,5.5,0.9c1.2,0.8,1.9,1.8,2.2,3c0.5,2-0.2,4.3-1.6,5.9c-2.8,3.1-7.5,4.3-11.3,5.7c-4.5,1.7-9,3.4-13.5,5
				c-2.7,1-5.5,1.6-7.4,3.9c-1.6,1.8-2.5,4.1-3.2,6.5c-0.8,3-1,6.1-1.1,9.3c-0.5,9.7-1.3,19.5-1.3,29.2c0,4.6,0.1,9.3,0.1,13.9
				c0,3.5-2.5,6.6-6,7.1c-4.3,0.6-8.1-2.7-8.1-6.9v-24.3h-6.4v23.3c0,3.5-2.5,6.6-5.9,7.1c-4.3,0.7-8.1-2.7-8.1-6.9v-38.3"/>
		</g>
		<polyline class="st7" points="103.3,76.6 147.4,45.6 145.1,42.5 98.7,69.4 		"/>
		<path class="st8" d="M154.2,47.4c-1.2-0.1-2.3-0.9-3.1-1.8l-14.3-17.3c-1.4-1.7-1-4.2,0.9-5.4c1.9-1.2,4.6-0.8,6.1,0.9L155,37.3
			l28.8-26.4c1.6-1.5,4.4-1.5,6.1,0c1.7,1.5,1.8,3.9,0.2,5.4l-32.3,29.8c-0.9,0.8-2.2,1.4-3.4,1.3C154.3,47.4,154.3,47.4,154.2,47.4
			z"/>
		<polygon class="st3" points="44.2,78.5 53,78.5 49.9,83.9 52.3,99.1 48.4,105.1 44.2,99.1 47,83.9 		"/>
	</g>
</g>
</svg>
