<?xml version="1.0" encoding="utf-8"?>
<!-- Generator: Adobe Illustrator 24.0.3, SVG Export Plug-In . SVG Version: 6.00 Build 0)  -->
<svg version="1.1" id="レイヤー_1" xmlns="http://www.w3.org/2000/svg" xmlns:xlink="http://www.w3.org/1999/xlink" x="0px"
	 y="0px" viewBox="0 0 148.4 118" style="enable-background:new 0 0 148.4 118;" xml:space="preserve">
<style type="text/css">
	.st0{fill:#F6BA45;}
	.st1{fill:#637B32;}
	.st2{fill:#44622F;}
	.st3{fill:#7E872D;}
	.st4{fill:#F8D69F;}
	.st5{fill:#1E191A;}
</style>
<g>
	<g>
		<path class="st0" d="M56.3,55.8c0,0,10.8,9.2,20.9,12.7c9.6,3.3,42.4,11.2,55.5-5.4C145.8,46.4,58.2,27,56.3,55.8z"/>
	</g>
	<g>
		<path class="st1" d="M148.4,53.1c-0.7-2.8-12.9-27.5-41.9-32.4c-27.3-4.6-41.7,4.2-41.7,4.2c-5.6,4.5-23.3,9.4-17.6,21.8
			c0.7,1.5,3.6,4.2,3.5,4.2c2.7,3.2,2.1,7,1.4,9.7c-1.8,7.1-12.9,17-16.6,16.1c-3.3-0.8-13.7-7.8-15.6-9.1c1.5-2.6-2.3-4.3-5.5-2.7
			c-3.9,2,0.1,6.7,3.8,4.4c0.8,0.7,2.3,1.8,5,3.5c4.8,3.1,10,4.8,10,4.8s-2.6,0.6-10,0.9C14.4,79,11.8,77.5,9.9,76
			c-1-0.8-3.4-2.3-5.9-2.3c-3.6-0.1-4.7,3.3-3.6,5.6C2.6,84,9,79.1,9,79.1s4.7,3.8,10.3,3.1c5.7-0.7,11.3-0.4,11.3-0.4
			s-8.1,4.6-14.7,4.7c-3.2,0.1-6.8-1-9.8-0.7C2.9,86.1,2,89.4,2.6,91c2.8,6.8,10.5-0.7,10.5-0.7s2.1,0.4,8.6-1.2
			c5.6-1.3,9.2-3.1,9.2-3.1s-2,4-3.9,5.8c-1.8,1.8-4.6,4.2-4.6,4.2s-4-0.3-5.9,3.1c-2,3.4,2.2,8.2,6.1,5.4c3.6-2.6,2.5-5.1,2.5-5.1
			s4.8-4.2,8.1-9.5c3-4.7,3.5-6.5,3.5-6.5s20.1-12.6,23.3-22.4c1-3.2,3.9-6.6,5.8-7.7c6.4-4,18.9-7.4,22.6-5.7
			c2.4,1.1,0.9,8.9-3.6,19.9c-3.9,9.5-10.3,17.5-12.9,18c-4.2,0.8-6.9,1.2-11.7,0.7c-4.5-0.5-6.4-2.3-6.4-2.3s-2.3-2.6-4-0.2
			c-1.1,1.5,0.5,3.9,1.6,3.7c1.2-0.2,2.5-1,2.5-1s0.6,0.9,5.3,1.6c4.1,0.7,8.2,0.6,8.2,0.6s-5.1,2.3-12.4,3.5c-7.5,1.3-9.5,0-9.5,0
			s-5.8,0.4-4.9,4.6c0.9,4.7,5,3.9,6.5,2.6c1.5-1.3,1.7-3.5,1.7-3.5s4.4,1.3,11.2-0.8c6.8-2.1,10.5-3.8,10.5-3.8s-2.3,3.5-8.1,7.9
			c-2.7,2-5.2,4.4-6.2,4.6c-0.8,0.2-3.8-0.3-5.7,1.3c-2.8,2.4-2.5,7.3,2,6.5c3.4-0.5,4.2-4.3,4.2-4.3s4.1-1.3,9.5-6.1
			c6-5.3,8.5-8.4,8.5-8.4s0.6,2.5-2.3,9.4c-2,4.6-5.4,8.5-6.7,8.7c-2.9,0.3-5.1,3.7-3,6.3c1.8,2.3,6.4,0.7,7.3-0.9
			c1.1-1.9,0.5-4.1,0.5-4.1c-0.1,0.6,3.8,0.1,7.1-10.5c3-9.3,1.4-12.9,1.4-12.9s6.3-7,12.3-19.4c5.8-12,4.8-14.5,7.3-17.8
			c1.3-1.7,3.3-3,5.2-3.1c6.3-0.2,10.5,2.5,10.5,2.5s-5.9,1.3-9.5,5.9c-5.8,7.4-1.7,12.3,4.7,15.3c6.2,2.9,13.6,2.7,13.8,2.9
			c-1.8,0.8-4.8,2.1-8.8,3.2c-7,2-13.4,1.2-13.4,1.2s-4-2.3-5.9,1.2c-2.1,3.8-0.4,6.8,2.5,5.5c2.8-1.3,3.2-3.2,3.2-3.2
			s0.6,0.3,7.5-0.4c7.3-0.8,9.6-1.6,9.6-1.6s-3.6,3.6-9.3,6.7c-5.7,3.2-8.7,4.4-8.7,4.4s-5.1-0.1-6.4,4.4c-0.7,2.3,4.4,4.2,6.6,2.2
			c2.6-2.3,2.1-4.3,2.1-4.3s3.4,0,10.5-4.8c7.1-4.8,9.9-7.4,9.9-7.4s-4.7,6.5-8.1,10.2c-3.4,3.6-6.1,6.4-7.1,6.2
			c-0.9-0.2-6.8,0.1-4.9,4.9c1.4,3.5,4.5,3.4,6.3,1.5s1.5-4,1.5-4s4-3.8,8.6-8.4c4-4,7.2-9.1,7.2-9.1s-2.1,4.3-3.6,10.1
			c-1.6,6.1-1.9,10-1.9,10s-5.3,0.9-3.8,4c2.4,5.3,7.8,0.7,7.5-1.8c-0.1-1-0.2-2.6-0.2-2.6s1.9-11.8,5.7-17.5
			c3.9-5.6,7.1-6.5,5.7-9.8c0-0.1-1.1-2,0.5-5.2C137.8,66.8,149.1,55.9,148.4,53.1z"/>
	</g>
	<g>
		<path class="st2" d="M15.5,43.9c-0.4,1.5,0.8,5.4,8.5,7.3c7.4,1.9,14.6,0.8,16.1,0.8c4.4,0,7.2,1.2,12.9-0.2c7-1.8,7.8-3.9,10.3-5
			c7.2-3.2,24-21.4,19.4-22.3C75.3,23.1,16.1,41.9,15.5,43.9z"/>
	</g>
	<g>
		<path class="st3" d="M20.2,30.8c1.9,3.4,2.2,7.9,1.2,8.8c-1.5,1.4-4.3,1.8-5.4,3c-1.5,1.7-1.1,1.9-0.1,2.7
			c4.3,3.2,18,2.5,21.8,1.9c3.8-0.6,9-3.2,12.4-3.5c3.4-0.2,5.8,0,10.3-1.9c7.7-3.2,9.9-5.1,14.4-8.5c5.7-4.2,9.3-8.1,7.6-9.6
			c-1.7-1.5-5.1-0.1-5.8-3.2c-1.2-5-3.7-19-8-20.2C61.9-1.6,56.3,6,56.3,6s-5.5,0.2-10.6,1.2C39.4,8.5,35,11.5,35,11.5
			s-8.1-4.2-13.7-0.8C15.7,14.1,17.6,26.2,20.2,30.8z"/>
	</g>
	<g>
		<path class="st4" d="M16,14.7c-4.1,5.1,0.1,23.4,9.5,20C37,30.5,32.7,15,27.9,11.9C23.2,8.9,18,12.2,16,14.7z"/>
	</g>
	<g>
		<path class="st5" d="M14.6,22.6c0,0,2.8,3.9,7.5,3.5c5.6-0.6,10.3-4.6,10.3-4.6s-4.2,0.4-8.8,1C19.5,23.1,14.6,22.6,14.6,22.6z"/>
	</g>
	<g>
		<path class="st4" d="M72.1,1.3c5.1,3.1,9.1,19.8-1.2,21.7c-10.5,2-12.4-13.8-9.6-18.4C64.1,0.3,69.6-0.2,72.1,1.3z"/>
	</g>
	<g>
		<path class="st5" d="M76.5,8c0,0-1,5-5.4,6.4c-5.3,1.7-10.4-0.4-10.4-0.4s3.6-0.7,8.3-2.3C72.9,10.3,76.5,8,76.5,8z"/>
	</g>
	<g>
		<g>
			<path class="st2" d="M90,22.6c-1.8,4,6.4,4.9,6.1,1.4C95.8,20.5,91.4,19.4,90,22.6z"/>
		</g>
		<g>
			<path class="st2" d="M102.1,26.1c-1.5,3,6.8,5.2,6.7,2S103.7,22.8,102.1,26.1z"/>
		</g>
		<g>
			<path class="st2" d="M109.2,32.3c-1.1,2.6,3.3,3.9,3.5,1.4C113,31.3,109.9,30.7,109.2,32.3z"/>
		</g>
		<g>
			<path class="st2" d="M115.3,28.7c-1.5,3.1,5.6,6.3,6.1,2.7S116.5,26.3,115.3,28.7z"/>
		</g>
		<g>
			<path class="st2" d="M110.9,23.4c-0.9,2.3,3.2,4.9,4.1,2.2C115.7,23.6,111.8,21.1,110.9,23.4z"/>
		</g>
		<g>
			<path class="st2" d="M126.6,31.6c-1.9,2.2,3.7,7.3,4.9,4.5C132.7,33.2,128.8,29,126.6,31.6z"/>
		</g>
		<g>
			<path class="st2" d="M120.4,35c-2,2.7,4.2,5,4.8,2.1C125.7,34.2,121.8,33.1,120.4,35z"/>
		</g>
	</g>
</g>
</svg>
