<?xml version="1.0" encoding="utf-8"?>
<!-- Generator: Adobe Illustrator 24.0.3, SVG Export Plug-In . SVG Version: 6.00 Build 0)  -->
<svg version="1.1" id="レイヤー_1" xmlns="http://www.w3.org/2000/svg" xmlns:xlink="http://www.w3.org/1999/xlink" x="0px"
	 y="0px" viewBox="0 0 138.9 62" style="enable-background:new 0 0 138.9 62;" xml:space="preserve">
<style type="text/css">
	.st0{fill:#32A2D3;}
</style>
<g>
	<g>
		<path class="st0" d="M19.4,6.6c0.1,0,0.4,0.1,0.8,0.2c1,0.7,2.1,1.5,3.5,2.4c0.1,0.1,0.2,0.2,0.2,0.4c0,0.3-0.2,0.4-0.6,0.4
			c-0.1,0-0.3-0.1-0.6-0.2c-1.9-0.6-3.2-1-3.7-1.1c-0.5-0.4-0.8-0.8-0.8-1.3C18.4,6.8,18.7,6.6,19.4,6.6z M23.9,15.4
			c0.3,0,0.4,0.1,0.4,0.4c0,0.2-0.1,0.4-0.2,0.6c-2.5,2.6-4,3.9-4.4,3.9c-0.8,0-1.2-0.2-1.2-0.6c0-0.6,0.1-1,0.4-1.2
			C19,18.4,20.6,17.3,23.9,15.4z M32,10.6c0.5,0,0.8,0.3,0.9,0.8c0,0.6-0.1,1.5-0.3,2.6c-0.1,0.6-0.2,1.2-0.3,1.7
			c0.2,0.1,0.6,0.4,1,0.7c3.4,2.6,5.5,4.1,6.3,4.4c0.5,0.2,1.2,0.3,1.9,0.4c0.4,0,0.6,0.1,0.6,0.4c0,0.4-0.3,0.8-1,1.2
			c-0.6,0.4-1.2,0.6-1.9,0.6c-0.4,0-0.8-0.1-1.2-0.4c-1.3-1.5-2.8-3.1-4.4-4.6c-0.6-0.6-1.2-1-1.7-1.3c-0.3,0.8-0.6,1.5-1.1,2.2
			c-1.1,1.6-2.3,2.7-3.6,3.4c-0.7,0.4-1.3,0.6-1.8,0.6c-0.3,0-0.7-0.2-1-0.5c-0.2-0.3-0.4-0.5-0.4-0.7c0-0.2,0.1-0.4,0.2-0.4
			c2.3-0.8,3.9-1.8,5-3.1c1-1.1,1.6-2.4,1.9-4c0.2-0.7,0.3-1.5,0.3-2.2v-1C31.3,10.9,31.5,10.6,32,10.6z M30.8,4.3
			c0.4,0,0.6,0.2,0.6,0.5c0,0.3-0.1,0.5-0.2,0.8c-0.3,0.7-0.7,1.3-1,2c1.4-0.1,2.6-0.1,3.8-0.1c1.6,0,3.4,0,5.3,0.1
			c0.3,0,0.6,0,1-0.1c0.5,0,0.8,0.2,0.8,0.7c0,0.3-0.1,0.5-0.4,0.7C40.5,9,40,9.5,39.3,10.3c-0.6,0.7-1.3,1.5-1.9,2.2
			c-0.2,0.3-0.4,0.4-0.5,0.4c-0.4,0-0.7-0.1-0.7-0.4c0-0.2,0.1-0.4,0.2-0.7c0.2-0.5,0.7-1.3,1.5-2.5c0.1-0.2,0.2-0.3,0.2-0.4
			c0-0.1-0.2-0.1-0.7-0.1c-2.2,0-3.9,0-5.3,0.1c-0.7,0.1-1.5,0.2-2.6,0.3c-0.1,0-0.2,0-0.3,0c-0.3,0.5-0.7,1-1,1.4
			c-0.5,0.6-0.8,0.9-1.1,0.9c-0.4,0-0.8-0.2-1.2-0.5c-0.4-0.3-0.6-0.7-0.6-1c0-0.3,0.2-0.4,0.5-0.4c0.9-0.3,1.7-0.9,2.4-1.7
			C29,7,29.7,5.9,30.4,4.5C30.6,4.3,30.7,4.3,30.8,4.3z"/>
		<path class="st0" d="M54.8,11.1c-0.1-1.5-0.1-3.2-0.3-5.4c0-0.4,0.3-0.7,0.8-0.7c0.6,0,0.9,0.3,1,0.8c0.1,1,0.1,2.8,0.1,5.2
			c1.1,0,2.3,0.1,3.6,0.2c0-1.3,0-2.9,0-4.5c0-1,0.3-1.4,0.9-1.4c0.5,0,0.8,0.3,0.8,1c-0.1,1.8-0.2,3.5-0.2,5.1c0.1,0,0.2,0,0.3,0
			c1.7,0.1,3.2,0.2,4.4,0.2c0.5,0,1.2-0.1,2-0.2c0.1,0,0.2,0.2,0.2,0.5c0,0.6-0.2,1.2-0.6,1.8c-0.3,0.4-0.6,0.7-0.8,0.7
			c-0.5,0-1.2-0.2-1.9-0.5c-1.1-0.5-2.3-0.8-3.5-1c0.1,2,0.1,3.3,0.1,3.9c0,0.6-0.3,0.9-0.8,0.9c-0.5-0.1-1.3-0.1-2.4-0.1
			c-0.9,0-1.8,0.1-2.7,0.4c-0.6,0-0.9-0.3-0.9-1c0.1-1.3,0.1-2.5,0.1-3.8c0-0.3,0-0.5,0-0.8c-1.3,0-2.6,0.1-3.9,0.2
			c0,2.5-0.1,5.1-0.2,7.9c0,0.3,0.1,0.4,0.4,0.4h9.9c0.4,0,1.1,0,2.3-0.1c0.4,0,0.6,0.2,0.6,0.5c0,0.3-0.1,0.5-0.4,0.8
			c-0.3,0.3-0.7,0.5-1.1,0.5c-1.9-0.1-4-0.2-6.4-0.2c-2.4,0-4.4,0.1-6.1,0.2c-0.8,0-1.2-0.4-1.2-1.1c0.3-3.3,0.4-6,0.4-8
			c0-0.3,0-0.6,0-0.8c-1.2,0.2-2.8,0.8-4.8,1.6c-0.7,0-1-0.3-1-0.8c0-0.3,0.1-0.6,0.4-0.8c0.3-0.4,0.8-0.6,1.3-0.6
			c1.5-0.2,2.8-0.5,4-0.6c0-1.7-0.1-3.5-0.2-5.3c0-0.6,0.3-0.9,0.9-0.9c0.7,0,1.1,0.4,1.1,1.3c0,1.5,0,3,0,4.6
			C52.4,11.2,53.7,11.1,54.8,11.1z M56.4,12.5c0,1.1,0,2.2,0,3.5c0,0.3,0.1,0.4,0.4,0.4c0.5-0.1,1-0.2,1.5-0.2c0.4,0,0.8,0,1.2,0.1
			c0.4,0,0.6-0.1,0.6-0.4c0-0.9-0.1-2-0.1-3.2C58.9,12.6,57.7,12.5,56.4,12.5z"/>
		<path class="st0" d="M78.8,4.3c0.4,0,0.7,0.2,0.7,0.5c0,0.3-0.1,0.5-0.2,0.8c-0.8,1-1.6,1.8-2.5,2.7c0.1,0.2,0.1,0.4,0.1,0.7
			c-0.1,1.6-0.1,3-0.1,4.3l0.1,8.8c0,1.2-0.3,1.7-1,1.7c-0.5,0-0.8-0.6-0.8-1.7c0.1-3.8,0.1-6.7,0.1-8.8c0-1.1,0-2.3-0.1-3.7
			c-0.2,0.2-0.5,0.4-0.7,0.6c-0.7,0.5-1.3,0.8-1.8,0.8c-0.4,0-0.8-0.2-1.2-0.5c-0.4-0.3-0.6-0.7-0.6-1c0-0.3,0.2-0.4,0.6-0.4
			c1.4-0.3,2.6-0.8,3.7-1.5c1.2-0.7,2.3-1.7,3.4-2.9C78.6,4.3,78.7,4.3,78.8,4.3z M79.8,11.3h4.8c-0.1-0.8-0.2-1.7-0.3-2.7
			c-0.1-1.7-0.2-2.8-0.2-3.3c0-0.5,0.3-0.8,0.8-0.8c0.6,0,0.9,0.3,0.9,0.9v1c0,2.1,0.1,3.7,0.3,4.9h7.2c0.3,0,0.4,0.1,0.4,0.3
			c0,0.3-0.1,0.6-0.3,0.9c-0.3,0.3-0.6,0.4-1,0.4c-0.3,0-1.1-0.1-2.4-0.3c-1.1-0.1-2.3-0.1-3.6-0.1c0.3,1.3,0.8,2.4,1.4,3.4
			c1,1.6,2.1,2.9,3.4,3.7c1,0.7,2.3,1.2,3.9,1.5c0.3,0.1,0.4,0.2,0.4,0.6c0,0.4-0.2,0.8-0.6,1.2c-0.4,0.4-0.8,0.7-1.3,0.7
			c-0.4,0-0.9-0.2-1.6-0.6c-1.5-0.9-2.9-2.1-4.2-3.6c-1.1-1.4-2-2.9-2.5-4.6c-0.2-0.6-0.4-1.3-0.6-2.2c-2,0-3.4,0.1-4.4,0.3
			c-0.6,0.2-1,0.3-1.2,0.3c-0.6,0-0.9-0.3-1-0.9c0-0.3,0.2-0.5,0.5-0.8C79,11.3,79.4,11.3,79.8,11.3z M91.7,5c0.6,0,0.9,0.3,0.9,0.8
			c0,0.4,0,0.6-0.1,0.8c-1.6,1.2-2.5,1.7-2.6,1.7c-0.4,0-0.5-0.1-0.5-0.4c0-0.1,0.5-0.9,1.5-2.4C91,5.2,91.3,5,91.7,5z"/>
		<path class="st0" d="M117.1,19.3c0,0.7-0.2,1.3-0.6,1.8c-0.4,0.5-0.9,0.8-1.5,1c-1,0.2-3.1,0.4-6,0.4c-5.5,0-8.2-1.2-8.2-3.7
			c0-1.1,0.5-2.2,1.5-3.3c0.2-0.2,1.1-1,2.8-2.4c-0.2-1.1-0.3-2.1-0.3-3.1V7.4c0-1.8,0.3-2.7,1-2.7c0.7,0,1,0.4,1,1.1
			c0,0.1,0,0.4-0.1,0.6c-0.1,0.4-0.1,0.6-0.1,0.7c-0.1,0.8-0.1,1.8-0.1,3.2c0,0.6,0,1.2,0.1,1.8c2.7-2,4.3-3,4.9-3
			c0.4,0,0.6,0.1,0.7,0.3c0.1,0.2,0.3,0.4,0.4,0.6c-0.1,0.4-0.4,0.8-0.9,1.1c-1.2,0.6-2.4,1.2-3.6,1.9c-1.8,1-3.1,1.8-4.1,2.6
			c-1.3,1.1-1.9,2.1-1.9,3.1c0,1.3,1.2,1.9,3.6,1.9c1.5,0,3.4-0.1,5.5-0.4c1.8-0.2,3.3-0.5,4.5-1c0.5-0.2,0.9-0.3,1.2-0.3
			C117,18.9,117.1,19,117.1,19.3z"/>
		<path class="st0" d="M8.3,34.6c0.9,0,1.3,0.4,1.4,1.1c0.1,0.8,0.1,2.6,0.1,5.2c0,0.4,0.2,0.5,0.7,0.5c2.1-0.2,4.3-0.3,6.4-0.3
			l-0.1-7.7c0-0.9,0.4-1.3,1.2-1.3c0.9,0,1.4,0.4,1.4,1.3l-0.1,7.7c2,0,4.2,0,6.6,0.1c0.4,0,0.6-0.2,0.6-0.5
			c-0.1-0.9-0.1-2.3-0.1-4.1c0-1.4,0.4-2.1,1.3-2.1c0.8,0,1.3,0.5,1.3,1.4c-0.3,1.3-0.4,2.6-0.4,3.7c0.1,1.2,0.1,2,0.1,2.4
			c0,0.7-0.4,1.1-1.2,1.1c-1.8-0.1-4.6-0.1-8.1-0.1l-0.1,10.4c2.6,0,5.4,0.1,8.4,0.1c0.5,0,0.7-0.2,0.7-0.7
			c-0.1-1.2-0.1-2.9-0.1-5.1c0-1.4,0.4-2.1,1.3-2.1c0.8,0,1.3,0.5,1.3,1.4c-0.3,1.6-0.4,3-0.4,4.3c0.1,1.5,0.1,2.4,0.1,2.9
			c0,0.8-0.4,1.3-1.1,1.3c-2.4-0.2-6.2-0.3-11.2-0.3c-3.9,0-7.7,0.2-11.4,0.7c-0.8,0-1.3-0.4-1.3-1.3c0.2-0.9,0.3-1.8,0.3-2.7
			c0-1.2-0.2-3-0.6-5.4c0-0.6,0.4-1,1.1-1c0.9,0,1.3,0.4,1.4,1.1c0.1,1,0.1,3.1,0.1,6.3c0,0.4,0.2,0.5,0.7,0.5
			c2.9-0.2,5.8-0.3,8.7-0.3L17,43c-2.8,0-5.6,0.2-8.3,0.5c-0.8,0-1.3-0.4-1.3-1.3c0.2-0.8,0.3-1.5,0.3-2.2c0-1-0.2-2.5-0.5-4.5
			C7.2,34.9,7.5,34.6,8.3,34.6z"/>
		<path class="st0" d="M51.2,31.5c0.5,0,0.7,0.2,0.8,0.7c0.4,0,1,0.4,1.7,1c5.3,3.4,8.5,5.3,9.8,5.7c0.8,0.2,1.8,0.4,3,0.5
			c0.5,0,0.7,0.2,0.7,0.5c0,0.5-0.4,1.1-1.3,1.6c-0.8,0.6-1.7,0.8-2.6,0.8c-0.6,0-1.1-0.2-1.7-0.7c-2.1-1.9-4.5-3.9-7.2-5.9
			c-1.2-0.8-2.2-1.4-3.1-1.8c-0.2-0.1-0.3-0.2-0.4-0.3c-1.8,1.9-3.8,3.5-5.9,4.9c-1.8,1.2-3.9,2.2-6.3,3c-0.5,0.1-0.9,0.2-1.1,0.2
			c-0.6,0-1.2-0.3-1.8-1c-0.6-0.5-0.8-0.9-0.8-1.3c0.1-0.4,0.4-0.6,1-0.6c1.7-0.1,3-0.3,3.8-0.5c2-0.5,4-1.3,5.9-2.4
			c1.9-1.2,3.5-2.5,4.8-4C50.6,31.6,50.9,31.5,51.2,31.5z M40.9,45.5c0.3,0,0.5,0,0.7,0.1c3.4-0.3,6.4-0.4,9-0.4
			c1.7,0,4.2,0.1,7.6,0.2c0.6,0,1.1,0.1,1.5,0.1c0.3,0,0.8-0.1,1.4-0.2c0.6-0.2,1-0.3,1.1-0.3c0.3,0,0.4,0.1,0.4,0.3
			c0,0.6-0.3,1.2-0.8,1.9c-0.5,0.7-1.1,1.1-1.6,1.1c-0.4,0-1.1-0.1-2-0.4c-2.1-0.6-4.6-0.8-7.7-0.8c-0.1,0-0.3,0-0.4,0
			c0.1,0.2,0.1,0.4,0.1,0.7c0,0.1,0,0.2-0.1,0.4c-0.8,1.3-1.5,2.3-1.9,3c-0.4,0.6-0.9,1.2-1.5,1.9c0,0.2,0.2,0.3,0.6,0.3h8.4
			c0.5,0,0.7-0.1,0.7-0.4c0,0,0-0.1-0.1-0.2c-0.4-0.7-0.9-1.4-1.5-2.3c-0.1-0.1-0.1-0.2-0.1-0.2c0-0.7,0.4-1,1.1-1
			c0.1,0,0.3,0.1,0.4,0.2c0.8,1.1,1.8,2.4,2.8,4c0.1,0.2,0.2,0.4,0.2,0.6c0,0.6-0.3,1-1,1h-11c-0.7,0-1.6,0-2.7,0.1
			c-0.9,0-1.4-0.3-1.4-1c0-0.2,0.2-0.5,0.5-0.9c0.4-0.4,0.7-0.7,1-1.1c0.5-0.5,1-1.2,1.5-1.9c0.6-0.8,1.1-1.8,1.7-3.1
			c0,0,0-0.1,0-0.1c-2.7,0.1-4.6,0.3-5.8,0.5c-0.7,0.2-1.3,0.3-1.8,0.3c-0.6,0-0.9-0.3-0.9-0.8c0-0.4,0.1-0.7,0.4-1.1
			C40.3,45.7,40.6,45.5,40.9,45.5z M46.8,40.3h10c0.3,0,0.4,0.2,0.4,0.4c0,0.4-0.1,0.7-0.4,1c-0.3,0.3-0.7,0.4-1.2,0.4
			c-0.2,0-0.8,0-1.7-0.1c-0.9,0-1.9,0-3,0c-1.8,0-3.2,0.1-4,0.3c-0.5,0.2-0.8,0.3-0.9,0.3c-0.7,0-1.1-0.4-1.1-1c0-0.3,0.2-0.7,0.5-1
			C45.8,40.4,46.3,40.3,46.8,40.3z"/>
		<path class="st0" d="M96.8,50.7c-0.5,2.1-1,3.4-1.7,3.9c-0.5,0.4-1.9,0.6-4.1,0.6c-2.8,0-4.7-0.4-5.7-1.1
			c-0.7-0.6-1.2-1.4-1.4-2.7c-0.1-1-0.3-2-0.3-2.9c-0.2-0.9-0.7-1.3-1.4-1.3c-1.2,0-2.5,0.6-4,1.9c-0.8,0.7-2,1.9-3.5,3.6
			c-1.2,1.3-1.9,1.9-2.2,1.9c-0.8,0-1.2-0.6-1.2-1.7c0-0.6,0.3-1.2,0.8-1.6c3.3-2.7,5.7-4.6,7.2-5.8c2.7-2.1,5.1-3.9,7.4-5.5
			c-4.3,0-8.3,0.7-12,2.2c-0.5,0-0.7-0.3-0.7-1c0-1.2,0.8-2,2.3-2.1l7.7-0.7c2-0.2,3.7-0.3,4.9-0.3c0.7,0,1.1,0.3,1.1,0.9
			c0,0.3-0.3,0.7-1,1.3c-1.7,1.3-4.3,3.3-7.7,6c0.7-0.2,1.3-0.3,1.7-0.3c1.2,0,2.1,0.6,2.6,1.7c0.3,0.6,0.5,1.8,0.6,3.3
			c0.1,1.1,0.7,1.7,1.9,1.7c2.2,0,4.4-0.6,6.6-1.7c0.9-0.4,1.4-0.6,1.7-0.6C96.6,50.2,96.7,50.4,96.8,50.7z M89.3,33.6
			c0,0.4-0.2,0.8-0.5,1.1c-0.4,0.3-0.7,0.4-1.2,0.4c-0.3,0-0.7-0.1-1.4-0.2c-0.4-0.1-1.5-0.1-3.1-0.1c-1.9,0-3.4,0.1-4.5,0.3
			c-0.1,0-0.5,0.1-1,0.2c-0.4,0.1-0.7,0.1-0.9,0.1c-0.4,0-0.6-0.3-0.6-0.8c0-1.1,0.5-1.7,1.5-1.7c1.2-0.1,2.8-0.1,4.7-0.1h2.8
			C87.9,32.7,89.3,33,89.3,33.6z"/>
		<path class="st0" d="M125.2,48.1c0,2.6-1.2,4.5-3.5,5.8c-1.9,1.1-4.2,1.7-7,1.7c-1.3,0-2.6-0.3-3.8-0.9c-1.4-0.7-2.1-1.7-2.1-2.9
			c0-1.8,1.1-2.8,3.3-2.8c2.7,0,4.8,1.3,6.4,4c1.2-0.4,2.2-1,2.9-1.8c0.8-0.9,1.2-1.9,1.2-3.1c0-1.3-0.5-2.4-1.6-3.1
			c-0.9-0.6-2.1-0.9-3.6-0.9c-1.9,0-3.8,0.3-5.8,1c-2,0.7-3.7,1.7-5.1,2.9c-0.7,0.6-1.1,0.9-1.3,0.9c-0.8,0-1.2-0.4-1.2-1.2
			c0-0.5,0.4-1,1.2-1.7l11.7-10c0.1-0.1,0.3-0.3,0.5-0.4c-0.2-0.1-0.4-0.1-0.8-0.1c-1.1,0-2.5,0.1-4.2,0.2c-2.2,0.1-3.5,0.2-3.9,0.4
			c-0.7,0-1-0.3-1-1.1c0-0.7,0.7-1.1,2.2-1.1c2.6-0.1,6.1-0.1,10.5-0.1c1,0,1.5,0.3,1.5,0.8c0,0.3-0.3,0.7-1,1.2
			c-3.9,3-7.3,5.8-10.3,8.4c2.4-1,4.9-1.5,7.5-1.5c1.8,0,3.5,0.4,4.9,1.3C124.4,44.9,125.2,46.3,125.2,48.1z M116.4,53.5
			c-1.4-2.1-2.8-3.2-4.3-3.2c-1.2,0-1.7,0.5-1.7,1.4c0,1.3,1.4,1.9,4.3,1.9C114.9,53.6,115.5,53.6,116.4,53.5z"/>
		<path class="st0" d="M136.3,52.2c0,0.7-0.2,1.2-0.7,1.6c-0.5,0.4-1,0.6-1.7,0.6c-0.7,0-1.2-0.2-1.7-0.6s-0.6-0.9-0.6-1.6
			c0-1.4,0.8-2.1,2.3-2.1c0.7,0,1.2,0.2,1.7,0.5C136.1,51,136.3,51.5,136.3,52.2z M135.6,32.8c-0.3,0.7-0.4,3.2-0.4,7.4
			c0,3.6,0.1,5.7,0.2,6c-0.1,1-0.6,1.5-1.5,1.5c-1,0-1.5-0.5-1.5-1.5c0-0.7,0-1.7,0.1-3c0.1-1.3,0.1-2.4,0.1-3c0-0.8-0.1-2-0.2-3.7
			c-0.1-1.7-0.2-2.9-0.2-3.7c0-1.1,0.6-1.6,1.7-1.6C135.1,31.2,135.6,31.7,135.6,32.8z"/>
	</g>
</g>
</svg>
