<?xml version="1.0" encoding="utf-8"?>
<!-- Generator: Adobe Illustrator 24.0.3, SVG Export Plug-In . SVG Version: 6.00 Build 0)  -->
<svg version="1.1" id="レイヤー_1" xmlns="http://www.w3.org/2000/svg" xmlns:xlink="http://www.w3.org/1999/xlink" x="0px"
	 y="0px" viewBox="0 0 183.5 69.8" style="enable-background:new 0 0 183.5 69.8;" xml:space="preserve">
<style type="text/css">
	.st0{fill:#DB90B1;}
</style>
<g>
	<g>
		<path class="st0" d="M28.9,15.2l6.4-0.3c-0.1-1.2-0.2-2.3-0.3-3.3c0-0.7,0.2-1,0.8-1c0.7,0,1,0.2,1,0.8c0,0.3,0,0.5-0.1,0.8
			l0.1,1.2l0,1.4l7.9-0.3c0.3,0,0.4,0.1,0.5,0.3c0,0.4-0.1,0.7-0.3,0.9c-0.2,0.3-0.6,0.4-1,0.4c-0.4,0-1.3,0-2.9,0
			c-1.3,0-2.7,0.1-4.3,0.1l0,0.9c0,0.7,0,1.3-0.1,1.9c0.3,0.1,0.8,0.4,1.4,1c4.4,3.5,7.2,5.4,8.3,5.8c0.7,0.2,1.5,0.4,2.4,0.5
			c0.4,0,0.7,0.2,0.7,0.6s-0.3,0.9-1,1.4c-0.7,0.5-1.4,0.7-2.2,0.8c-0.5,0-1.1-0.1-1.6-0.5c-1.8-2-3.8-4-6-6
			c-0.9-0.7-1.7-1.3-2.4-1.7c-0.1,0.4-0.2,0.8-0.3,1.2c-0.8,2.1-2.1,3.8-3.8,4.9c-1.8,1.1-3.6,1.6-5.4,1.7c-0.5,0-1-0.1-1.5-0.5
			c-0.4-0.3-0.6-0.7-0.7-1.2c0-0.4,0.2-0.5,0.5-0.6c0.6,0.1,1,0.1,1.3,0.1c2.2-0.1,3.9-0.6,5.1-1.5c1.3-0.8,2.2-2.1,2.8-3.7
			c0.5-1.3,0.7-3,0.7-4.9c-2.5,0.1-4.3,0.3-5.4,0.5c-0.7,0.2-1.2,0.3-1.4,0.3c-0.6,0-0.9-0.3-1-0.9c0-0.3,0.2-0.5,0.4-0.8
			C28.1,15.3,28.4,15.2,28.9,15.2z"/>
		<path class="st0" d="M63.8,10.3c0.7,0,1.1,0.2,1.1,0.8c-0.2,1.1-0.3,2.3-0.4,3.8c0,1-0.1,1.9-0.2,2.8c0.3,0.1,0.8,0.4,1.4,1
			c4.5,3.5,7.3,5.5,8.4,5.9c0.7,0.2,1.5,0.4,2.5,0.5c0.4,0,0.6,0.2,0.6,0.5c0,0.4-0.3,0.8-1,1.3c-0.7,0.4-1.3,0.7-2.1,0.7
			c-0.5,0-0.9-0.1-1.3-0.5c-1.8-2-3.9-4-6.2-6c-1-0.8-1.8-1.4-2.6-1.8c-0.1,0.4-0.3,0.8-0.4,1.2c-0.9,2-2.1,3.5-3.6,4.6
			c-1.9,1.6-3.6,2.4-5.2,2.5c-0.4,0-0.7-0.1-1-0.4c-0.5-0.5-0.8-0.9-0.8-1.4c0-0.3,0.3-0.5,0.9-0.6c1.7-0.4,3.1-0.8,4.3-1.4
			c1.8-0.7,3.2-2.3,4.2-4.7c0.7-1.8,1-4,0.9-6.6l-0.1-1.3C63,10.6,63.3,10.3,63.8,10.3z"/>
		<path class="st0" d="M83.5,9.3c0.3,0,0.6,0.1,0.7,0.2L99.5,9c0.3,0,0.7-0.1,1.3-0.4c0.7,0,1.1,0.2,1.1,0.7
			c-0.3,2.1-0.4,4.7-0.2,7.7c0.1,2.1,0.3,5.2,0.7,9.1c0,0.7-0.3,1.1-0.9,1.1c-0.3,0-0.5-0.1-0.6-0.4c-0.1-0.4-0.2-0.8-0.2-1.4
			c-0.3-6.4-0.4-11.4-0.5-15c0-0.2-0.3-0.3-0.8-0.3c-5.5,0.2-10.4,0.5-14.9,0.7l0.3,6.5c0.1,2.2,0,4.1-0.3,5.8
			c-0.3,1.6-0.7,2.7-1.1,3.5c-0.5,0.8-1,1.3-1.4,1.3c-0.4,0-0.9-0.1-1.2-0.3c-0.4-0.2-0.6-0.5-0.6-0.9c0-0.2,0.2-0.4,0.5-0.6
			c0.7-0.6,1.2-1.3,1.7-2.3c0.4-0.9,0.6-2,0.7-3.5c0.1-1.4,0.2-3.2,0.1-5.3c-0.1-1.2-0.2-2.9-0.4-4.9C82.7,9.6,83,9.4,83.5,9.3z
			 M88.3,13.5l9.3-0.4c0.3,0,0.4,0.1,0.4,0.3c0,0.4-0.1,0.7-0.3,0.9c-0.2,0.3-0.6,0.4-1,0.4c-0.2,0-0.8-0.1-1.6-0.2
			c-0.9,0-1.8,0-2.8,0c-1.7,0.1-2.9,0.2-3.7,0.5c-0.4,0.2-0.7,0.3-0.8,0.3c-0.6,0-0.9-0.3-1-0.8c0-0.3,0.2-0.5,0.4-0.8
			C87.5,13.6,87.8,13.5,88.3,13.5z M88.6,17.6c0.3,0,0.5,0,0.8,0.1c0.3,0.1,0.7,0.1,1.2,0.1l2.7-0.1c0.6,0,1.4,0,2.2,0
			c0.3,0,0.6-0.1,1-0.3c0.5,0,0.8,0.3,0.8,0.8c0,0,0,0.1,0,0.2c-0.1,0.2-0.1,0.5-0.1,1c0,0.6,0,1.2,0,1.9c0,0.4,0.1,0.8,0.1,1.5
			c0,0.7-0.2,1-0.7,1c-1.3-0.2-2.5-0.2-3.6-0.2c-1.5,0.1-2.4,0.1-2.8,0.2c-0.4,0.1-0.8,0.2-1.2,0.3c-0.5,0-0.8-0.2-0.8-0.8
			c0.1-1,0.1-1.8,0.1-2.5c0-0.7-0.1-1.5-0.3-2.4C87.8,17.8,88,17.6,88.6,17.6z M92.8,22.2c0.7,0,1.5,0,2.4,0c0.3,0,0.4-0.2,0.4-0.5
			l-0.1-2.5c0-0.2-0.1-0.3-0.2-0.3c-1.2,0-2.8,0-5,0.1c-0.4,0-0.5,0.2-0.5,0.6c0,0.8,0,1.6-0.1,2.3c0,0.4,0.2,0.6,0.7,0.5
			C91,22.3,91.8,22.2,92.8,22.2z"/>
		<path class="st0" d="M117.6,13.7l-0.3-5.3c0-0.7,0.3-1,0.9-1c0.7,0,1.1,0.3,1.1,0.9l0.1,5.4c1.4,0,3,0.1,4.8,0.2
			c1.9,0.1,3.4,0.1,4.6,0.1c0.6,0,1.2-0.1,1.8-0.2c0.1,0,0.2,0.1,0.2,0.2c0,0.6-0.1,1.2-0.4,1.8c-0.3,0.5-0.6,0.8-0.9,0.8
			c-0.3,0-0.6,0-1-0.1c-1.8-0.5-3.5-0.9-5.2-1c-1.1-0.1-2.4-0.2-3.9-0.1l0.2,7.6l6.4-0.3c0.3,0,0.4,0.1,0.5,0.3
			c0,0.4-0.1,0.7-0.3,0.9c-0.2,0.3-0.6,0.4-1,0.4c-0.3,0-1.1,0-2.4-0.1c-1.3,0-2.8,0.1-4.3,0.1c-2.4,0.1-4.2,0.3-5.3,0.5
			c-0.6,0.2-1,0.2-1.2,0.2c-0.6,0-0.9-0.3-1-0.8c0-0.3,0.2-0.5,0.4-0.8c0.3-0.2,0.6-0.3,1.1-0.3l5.6-0.2l-0.4-7.6
			c-2.3,0.1-4.2,0.4-5.6,0.7c-1.5,0.3-2.9,0.7-4,1.2c-0.4,0.2-0.7,0.3-0.9,0.3c-0.7,0-1-0.3-1.1-0.8c0-0.3,0.1-0.6,0.4-0.9
			c0.3-0.3,0.6-0.4,0.9-0.5C112.3,14.3,115.6,13.8,117.6,13.7z"/>
		<path class="st0" d="M154.1,15c0.1,3.2-1.5,5.8-5,7.6c-1.4,0.7-2.5,1.1-3.3,1.2c-0.5,0-1-0.2-1.5-0.5c-0.5-0.4-0.8-0.8-0.8-1.2
			c0-0.2,0.2-0.3,0.6-0.4c0.3-0.1,0.8-0.1,1.3-0.3c1.6-0.3,3-0.8,4-1.4c0.9-0.6,1.7-1.4,2.2-2.3c0.6-1,0.9-2,0.8-3.1
			c0-0.8-0.3-1.7-0.9-2.5c-1.2-1.8-3.1-2.6-5.8-2.5c-0.1,0-0.3,0-0.4,0c-0.2,0-0.3,0-0.4,0c-0.8,4.9-2.1,8.4-3.7,10.7
			c-1,1.3-1.8,2-2.5,2c-1,0-1.8-0.7-2.5-2.1c-0.6-1.2-0.9-2.3-0.9-3.5c-0.1-1.8,0.5-3.4,1.6-4.9c1.7-2.3,4.5-3.5,8.2-3.6
			c2.3-0.1,4.3,0.4,6,1.6C153,11,154,12.7,154.1,15z M143.3,9.8c-2.4,0.5-4.1,1.5-5.1,2.8c-1,1.3-1.5,2.6-1.4,3.8
			c0,0.7,0.2,1.4,0.5,2.3c0.4,1,0.9,1.5,1.4,1.5c0.5,0,1-0.4,1.6-1.2C141.7,16.9,142.7,13.9,143.3,9.8z"/>
		<path class="st0" d="M6.3,48.5c1.2,0,2.3,0,3.4,0.1c0.4-0.2,0.7-0.3,1-0.3c0.8,0,1.1,0.3,1.2,1.1c0,0.3-0.1,0.6-0.4,1
			c-0.7,1.2-1.2,2.4-1.5,3.7c-0.3,1.2-0.5,2.6-0.7,4.1c1.1,0.1,3,0.2,5.8,0.5c6.9,0.7,11.7,0.9,14.2,0.8c0.9,0,1.6-0.2,2.2-0.3
			c0.4-0.1,0.6-0.2,0.8-0.2c0.2,0,0.3,0.2,0.3,0.6c0,0.7-0.2,1.5-0.8,2.4c-0.5,0.9-1,1.3-1.5,1.4c-0.5,0-1.1,0-1.6-0.2
			c-7.2-1.5-12.2-2.4-14.9-2.8c-2.3-0.4-3.8-0.5-4.4-0.5c-0.8,0-1.7,0.8-2.7,2.3c-0.3,0.4-0.6,0.6-1,0.6c-0.6,0-0.9-0.2-0.9-0.8
			c0-0.3,0.7-1.3,2-2.9c0.2-0.3,0.5-0.6,0.8-0.7c0.4-3,0.9-5.6,1.6-7.9c0-0.2,0-0.3-0.1-0.4c-0.1,0-0.2,0-0.3,0
			c-0.9,0-1.7,0.1-2.5,0.2c-0.3,0.1-0.6,0.2-1,0.3c-0.5,0-0.8-0.2-0.8-0.8C4.4,49,5,48.5,6.3,48.5z M6.5,40l4.6,2.2
			c0.4,0.2,0.5,0.4,0.6,0.8c0,0.3-0.2,0.4-0.6,0.5l-4.6-0.9c-0.7-0.2-1-0.7-1.1-1.6C5.3,40.4,5.7,40,6.5,40z M15,40.8l5.3-0.2
			c0-0.4-0.1-0.8-0.1-1.3c0-0.8,0.2-1.3,0.8-1.3c0.6,0,0.9,0.4,0.9,1.2c0,0.4,0,0.9,0,1.3l6.7-0.3c0.2,0,0.4,0.1,0.4,0.3
			c0,0.4-0.1,0.8-0.3,1.1c-0.2,0.3-0.6,0.5-1,0.5c-0.3,0-1.1,0-2.4,0c-1.1,0-2.2,0.1-3.4,0.1c0,0.6,0,1.2,0,1.7l0.4,0
			c1,0,2.2,0,3.6,0c0.3,0,0.7-0.1,1.1-0.3c0.6,0,0.9,0.3,0.9,1.1L28,44.8c-0.1,0.2-0.1,0.7-0.1,1.3c0,0.9-0.1,1.8,0,2.7
			c0,0.6,0.1,1.3,0.2,2.3c0,0.8-0.2,1.2-0.8,1.2c-1.8-0.1-3.3-0.1-4.7-0.1l0.1,1.7l7.1-0.3c0.3,0,0.5,0.1,0.5,0.4
			c0,0.5-0.1,0.9-0.3,1.2c-0.3,0.4-0.7,0.5-1.1,0.6c-0.4,0-1.3,0-2.7-0.2c-1.1,0-2.2,0-3.4,0l0,1c0.1,1.3-0.2,2-0.9,2
			c-0.5,0-0.8-0.6-0.8-1.9c0-0.3,0-0.7,0-1c-2.5,0.1-4.4,0.3-5.5,0.6c-0.7,0.2-1.1,0.3-1.3,0.3c-0.6,0-1-0.3-1.1-0.9
			c0-0.3,0.2-0.7,0.5-1c0.3-0.2,0.6-0.3,1.1-0.3l6.2-0.3c0-0.6-0.1-1.2-0.1-1.7c-1.5,0.1-2.4,0.1-2.9,0.2c-0.5,0-1.1,0.1-1.8,0.3
			c-0.6,0-0.9-0.3-0.9-1c0.1-1.4,0.1-2.6,0.1-3.6c0-1-0.2-2.1-0.4-3.4c0-0.7,0.2-1,0.8-1c0.3,0,0.6,0,0.9,0.1C17,44,17.4,44,18,44
			l2.5-0.1c0-0.5-0.1-1.1-0.1-1.7c-2.2,0.1-3.8,0.3-4.8,0.5c-0.6,0.1-1,0.2-1.2,0.2c-0.5,0-0.8-0.3-0.9-0.9c0-0.3,0.1-0.6,0.4-0.9
			C14.2,40.9,14.5,40.8,15,40.8z M20.8,50.7c0-0.7-0.1-1.3-0.1-1.9c-1.3,0.1-2.5,0.2-3.5,0.4c0,0-0.1,0-0.1,0c0,0.4-0.1,0.9-0.1,1.3
			c0,0.4,0.3,0.6,0.8,0.5C18.7,50.8,19.7,50.7,20.8,50.7z M17.2,47.4c0,0,0.1,0,0.1,0l3.4-0.1c0-0.6-0.1-1.3-0.1-1.8
			c-0.9,0-1.8,0.1-2.9,0.1c-0.4,0-0.6,0.3-0.6,0.7C17.1,46.7,17.1,47.1,17.2,47.4z M22.1,45.4l0.1,1.8l3.8-0.2c0,0,0.1,0,0.1,0
			l-0.1-1.3c0-0.3-0.1-0.4-0.3-0.4C24.8,45.4,23.6,45.4,22.1,45.4z M22.3,48.7l0.1,1.9c1,0,2.2,0,3.4,0c0.3,0,0.5-0.2,0.5-0.5
			l-0.1-1.7C24.8,48.5,23.5,48.6,22.3,48.7z"/>
		<path class="st0" d="M35.7,43l3.6-0.2c-0.1-1.3-0.1-2.6-0.2-4.1c0-1,0.4-1.6,1.1-1.6c0.7,0,1,0.3,1.1,1.1c0,0.2,0,0.6-0.1,1.1
			c0,0.6-0.1,1,0,1.4c0,0.7,0.1,1.4,0.1,2l3-0.1c0.2,0,0.4,0.2,0.4,0.4c0,0.4-0.1,0.7-0.3,1c-0.3,0.3-0.6,0.4-1,0.4
			c-0.2,0-0.7,0-1.4,0c-0.2,0-0.4,0-0.6,0c0.1,1.9,0.2,3.6,0.3,5.1c1-0.4,1.9-0.6,2.5-0.8c0.3,0,0.5,0.2,0.5,0.6
			c0,0.5-0.2,0.9-0.6,1c-0.8,0.4-1.6,0.7-2.3,1.1c0.2,2.3,0.3,4.1,0.3,5.4c0.1,2-0.3,3.6-1.1,4.7c-0.7,0.8-1.6,1.2-2.6,1.4
			c-0.5,0-1-0.1-1.4-0.5c-0.3-0.3-0.4-0.7-0.4-1.1c0-0.4,0.2-0.6,0.6-0.7c1.5-0.5,2.4-1,2.7-1.7c0.2-0.5,0.3-1.3,0.3-2.4
			c-0.1-1.4-0.1-2.7-0.2-4.1c-1.5,0.8-3,1.7-4.3,2.6c-0.7,0-1-0.2-1-0.8c0-0.6,0-1,0.2-1.3c0.1-0.3,0.3-0.6,0.8-0.8
			c1.6-0.7,3-1.3,4.3-1.8c-0.1-1.7-0.2-3.4-0.3-5.1c0-0.2-0.1-0.4-0.1-0.7c0,0-0.1,0-0.1,0c-1.6,0.1-2.7,0.2-3.4,0.5
			c-0.4,0.2-0.7,0.3-0.8,0.3c-0.6,0-1-0.3-1-0.9c0-0.4,0.2-0.7,0.5-1C34.8,43.1,35.2,43,35.7,43z M47.6,52.3l9.4-0.4
			c0.1,0,0.3,0,0.5-0.1c0.2-0.1,0.4-0.2,0.6-0.2c0.6,0,0.9,0.4,0.9,1.1c0,0.1-0.1,0.3-0.3,0.4c-0.5,0.4-1.2,1.2-2.1,2.2
			c0,0.2,0.1,0.3,0.3,0.3l3.4-0.1c0.2,0,0.4,0,0.6-0.1c0.2-0.1,0.4-0.1,0.6-0.1c0.5,0,0.8,0.3,0.9,0.9c0,0,0,0.1-0.1,0.3
			c-0.2,0.2-0.3,0.4-0.4,0.7c-0.7,1.6-1.3,2.7-1.9,3.3c-0.5,0.6-1.1,1-1.8,1.4c-0.5,0.2-0.9,0.3-1.2,0.4c-0.5,0-1-0.2-1.4-0.7
			c-0.4-0.4-0.6-0.7-0.7-1c0-0.3,0.1-0.5,0.3-0.6c0.8-0.1,1.5-0.3,2-0.4c0.6-0.1,1.1-0.3,1.5-0.6c0.4-0.2,0.9-0.7,1.6-1.6
			c0-0.2-0.1-0.2-0.4-0.2c-2.6,0.1-4,0.2-4.3,0.3c-0.2,0.1-0.4,0.2-0.5,0.2c-0.6,0-0.9-0.3-0.9-0.9c0-0.1,0.1-0.3,0.2-0.6
			c0.5-0.8,1.1-1.5,1.7-2.3c0-0.1-0.1-0.1-0.2-0.1c-1.3,0.1-2.5,0.1-3.6,0.2c0,0.1,0,0.2,0,0.3c0,0-0.1,0.1-0.1,0.3
			c-0.3,1.2-0.9,2.5-1.6,4.1c-0.8,1.4-1.7,2.5-2.7,3.3c-0.6,0.5-1.2,0.8-1.6,0.8c-0.4,0-0.7-0.1-1.1-0.4c-0.5-0.5-0.8-0.9-0.8-1.4
			c0-0.4,0.3-0.6,1-0.8c1.2-0.2,2.3-0.9,3.2-2c0.9-1.1,1.5-2.4,2-4c-0.5,0-1,0.1-1.4,0.1c-1,0.2-1.6,0.4-1.7,0.4
			c-0.6,0-0.9-0.3-0.9-0.8c0-0.2,0.1-0.5,0.3-0.8C47.1,52.5,47.3,52.3,47.6,52.3z M49.9,37.3c0.5,0,0.8,0.2,0.8,0.6
			c0,0.1-0.1,0.4-0.3,0.7c-0.3,0.6-0.6,1.1-0.9,1.6c0,0,0.1,0,0.1,0l11.6-0.5c0.2,0,0.4,0.1,0.4,0.3c0,0.4-0.1,0.8-0.3,1.1
			c-0.3,0.3-0.6,0.5-1,0.5c-0.3,0-1,0-2-0.1c-0.9,0-1.9,0-2.9,0.1l0.1,1.4l4.8-0.2c0.2,0,0.4,0.1,0.4,0.3c0,0.4-0.1,0.7-0.3,1
			c-0.2,0.3-0.6,0.5-0.9,0.5c-0.3,0-0.9,0-1.9-0.1c-0.7,0-1.4,0-2.1,0l0,1.5l4.9-0.2c0.2,0,0.4,0.1,0.4,0.3c0,0.4-0.1,0.7-0.3,1
			c-0.2,0.3-0.6,0.5-0.9,0.5c-0.3,0-0.9,0-1.9-0.1c-0.7,0-1.4,0-2.2,0l0,1.4c0.7,0,1.5,0,2.1,0c1.1,0,1.7,0,2,0
			c0.9,0,1.9-0.2,2.7-0.4c0.3-0.1,0.5-0.2,0.7-0.2c0.2,0,0.3,0.2,0.3,0.7c0,0.5-0.2,1-0.5,1.6c-0.3,0.5-0.6,0.8-0.9,0.8
			c-0.3,0-0.8-0.1-1.2-0.3c-0.8-0.3-1.7-0.5-2.6-0.6c-1.5-0.2-3.1-0.2-4.6-0.2c-1.5,0.1-3,0.3-4.4,0.6c-0.2,0.2-0.5,0.3-0.8,0.4
			c-0.5,0-0.8-0.3-0.8-1.1c0-1.2,0-2.3,0-3.5c0-0.9-0.2-2-0.3-3.3c-0.3,0.2-0.5,0.4-0.8,0.4c-0.3,0-0.7-0.1-1.2-0.5
			c-0.4-0.3-0.6-0.6-0.7-0.9c0-0.1,0.1-0.2,0.2-0.3c0.8-0.3,1.5-0.8,2.1-1.5c0.8-0.8,1.7-1.8,2.6-3.1C49.6,37.4,49.7,37.3,49.9,37.3
			z M53.7,43l-0.1-1.4c-1.5,0.1-2.6,0.2-3.4,0.4c-0.5,0.2-0.9,0.3-1,0.3c0,0-0.1,0-0.1,0c0,0.3,0.1,0.6,0.1,1c0.1,0,0.2,0,0.3,0
			L53.7,43z M53.9,46l-0.1-1.5c-1.7,0.1-3,0.2-3.7,0.3c-0.3,0.1-0.6,0.1-0.7,0.1c0,0.4,0.1,0.8,0.1,1.3c0.1,0,0.2,0,0.4-0.1L53.9,46
			z M54,48.8L54,47.4c-1.7,0.1-2.9,0.2-3.7,0.3c-0.4,0.1-0.7,0.2-0.8,0.2c0,0.3,0,0.6,0,1c0,0.1,0,0.2,0,0.3c1.5-0.1,2.8-0.2,4-0.3
			C53.7,48.8,53.9,48.8,54,48.8z M55.6,37.1c0.5,0,0.8,0.2,0.8,0.6c0,0.4,0,0.7-0.1,0.9c-1.2,1-1.9,1.5-2,1.5
			c-0.3,0-0.5-0.1-0.5-0.4c0-0.1,0.3-0.8,0.9-2.1C54.9,37.2,55.2,37.1,55.6,37.1z"/>
		<path class="st0" d="M87.9,41.6c0,0.5-0.2,1.1-0.7,1.8c-0.4,0.7-0.9,1.1-1.3,1.1c0.2,0-0.5-0.2-2.1-0.5c-1.8-0.4-3.6-0.5-5.3-0.5
			c-0.2,0-0.5,0-0.9,0c-0.4,0-0.7,0.1-0.9,0.1c-0.1,1.6-0.2,3.1-0.1,4.5l5.6-0.3c1,0,1.5,0.1,1.5,0.4c0,0.3-0.1,0.7-0.3,1.1
			c-0.2,0.4-0.5,0.6-0.8,0.7c-1.7-0.3-3-0.4-3.8-0.3c-0.3,0-1,0.1-2.1,0.2c0.1,2.3,0.3,3.9,0.6,5c0.5,2.1,1.5,3.2,2.9,3.1
			c0.9,0,2.1-0.4,3.3-1.1c1.3-0.8,2.2-1.6,2.8-2.4c0.4-0.5,0.7-0.8,0.8-0.8c0.4,0,0.6,0.4,0.6,1.2c0.1,1.2-0.1,2.1-0.5,2.8
			c-0.4,0.7-1.4,1.3-3,1.7c-1.2,0.4-2.4,0.6-3.5,0.6c-2.4,0.1-4-1-4.9-3.2c-0.5-1.3-0.9-3.6-1-6.7c-1.5,0.2-2.4,0.3-2.6,0.3
			c-1.1,0.1-2,0.3-2.5,0.5c-0.6,0.2-0.8,0.4-0.7,0.4c-0.4,0-0.6-0.3-0.6-0.8c0-0.8,0.4-1.3,1.4-1.5c0.7-0.2,2.4-0.4,5-0.6
			c-0.1-2.2-0.1-3.7,0-4.5l-2.1,0.3c-0.7,0.1-1.5,0.4-2.5,0.7c-1.4,0.6-2.2,0.9-2.4,1C67.3,45.8,67,45.5,67,45
			c-0.1-1.2,0.6-1.9,1.8-2.1c1.3-0.2,3.3-0.4,6-0.8c0-1.5,0-2.7,0-3.6c-0.1-1.2,0.3-1.8,1-1.9c0.8,0,1.2,0.4,1.3,1.2
			c0-0.1-0.1,1.3-0.4,4.1c0.3,0,0.7,0,1.3-0.1c0.5,0,1,0,1.3-0.1c0.6,0,1.6,0,2.8,0c1.3,0,2.2,0,2.9-0.1c0.8,0,1.4-0.1,1.8-0.2
			c0.5-0.1,0.7-0.1,0.8-0.1C87.7,41.4,87.8,41.5,87.9,41.6z"/>
		<path class="st0" d="M99.1,45.3c0.3,0,0.5,0.1,0.5,0.4c0,0.5-0.1,0.8-0.4,0.8l-5.9,2.5c-0.8,0-1.1-0.3-1.2-1.1
			c0-0.9,0.2-1.5,0.8-1.6L99.1,45.3z M95,35.6c0.1,0,0.4,0.1,0.8,0.2c1,0.8,2.3,1.7,3.7,2.7c0.2,0.1,0.2,0.3,0.2,0.4
			c0,0.4-0.2,0.6-0.6,0.6c-0.1,0-0.3,0-0.6-0.2c-2-0.7-3.2-1.1-3.7-1.2c-0.6-0.4-0.9-0.9-0.9-1.5C93.8,36,94.2,35.7,95,35.6z
			 M99.6,53.9c0.3,0,0.5,0.2,0.5,0.6c0,0.3-0.1,0.6-0.2,0.9c-2,2.7-3.2,4.1-3.5,4.1c-0.9,0-1.4-0.2-1.4-0.8c0-0.8,0.1-1.3,0.5-1.6
			C95.4,56.8,96.8,55.8,99.6,53.9z M101.6,35.9c0.4,0,0.7,0,0.9,0.1c0.4,0.2,0.6,0.2,0.9,0.2c1.4-0.2,3.3-0.3,5.6-0.4
			c3.3-0.1,6-0.1,8.4,0.1l1.2-0.3c0.6,0,0.9,0.2,0.9,0.6c0,0.2,0,0.5-0.2,0.7c-0.3,0.9-0.5,2.3-0.5,4.2c0,0.6-0.2,0.9-0.7,0.9
			c-0.5,0-0.8-0.3-0.8-0.8c-0.1-1.2-0.1-2.3,0-3.2c0-0.1-0.1-0.2-0.4-0.3c-1.8-0.3-3.8-0.4-6.1-0.3c-2.4,0.1-4.7,0.3-6.7,0.7
			c-0.6,0.1-0.9,0.2-1,0.5l0,0.3c0.1,1.9,0,3-0.2,3.4c-0.1,0.4-0.3,0.6-0.7,0.6c-0.3,0-0.5-0.1-0.5-0.4c-0.1-2.2-0.3-4-0.8-5.6
			C100.7,36.2,101,35.9,101.6,35.9z M104,47.1l5.4-0.2c0-0.5-0.1-1-0.1-1.5c0-0.9,0.3-1.4,1-1.4c0.7,0,1,0.4,1.1,1.4
			c0,0.5,0,1,0,1.5l6.8-0.3c0.3,0,0.5,0.1,0.5,0.4c0,0.4-0.1,0.8-0.3,1.2c-0.3,0.3-0.7,0.5-1.1,0.6c-0.3,0-1.2,0-2.5-0.2
			c-1,0-2.2,0-3.3,0c0,0.2,0,0.3,0,0.5c0.2,0.1,0.6,0.4,1,0.8c3.6,2.9,5.8,4.5,6.7,4.8c0.5,0.2,1.2,0.3,2,0.4c0.4,0,0.7,0.2,0.7,0.5
			c0,0.5-0.3,0.9-0.9,1.4c-0.6,0.5-1.3,0.7-2,0.8c-0.5,0-1-0.1-1.4-0.5c-1.4-1.7-2.9-3.5-4.6-5.2c-0.4-0.4-0.8-0.8-1.2-1l0.4,6.6
			c0.1,1.5-0.3,2.2-1,2.3c-0.6,0-0.9-0.7-1-2.2c0-2.4-0.1-4.5-0.1-6.2c-1,1.7-1.8,2.9-2.5,3.5c-0.9,1-2,1.9-3.3,2.6
			c-0.3,0.2-0.6,0.4-0.8,0.4c-0.6,0-1.2-0.2-1.6-0.6c-0.4-0.4-0.6-0.8-0.6-1.3c0-0.3,0.2-0.4,0.5-0.5c1.4-0.3,2.5-0.7,3.4-1.3
			c0.7-0.4,1.4-1,2.1-1.8c0.7-0.8,1.6-2,2.5-3.6c0,0,0.1-0.1,0.1-0.1c0-0.1,0-0.2,0-0.3c-2.2,0.1-3.8,0.3-4.8,0.6
			c-0.6,0.2-1.1,0.4-1.2,0.4c-0.7,0-1.1-0.3-1.2-1.1c0-0.3,0.2-0.7,0.5-1C103.1,47.2,103.5,47.1,104,47.1z M108.2,38.3
			c0.4,0,0.7,0.2,0.7,0.5c0,0.3-0.2,0.9-0.5,1.7c-0.4,1.1-0.8,1.9-1.3,2.4c-0.5,0.6-0.9,0.9-1.2,1c-0.5,0-1-0.1-1.4-0.4
			c-0.4-0.3-0.6-0.7-0.6-1c0-0.3,0.1-0.5,0.4-0.6c0.8-0.2,1.4-0.4,1.8-0.6c0.6-0.3,1.2-1.2,1.9-2.6C108,38.4,108.1,38.3,108.2,38.3z
			 M112,38.1c0.6,0,0.9,0.2,0.9,0.7c0,0.6,0,1.4,0,2.4c0,0.3,0.1,0.4,0.4,0.4l2.2-0.1c0.8,0,1.3,0.1,1.3,0.5c0,0.6-0.3,1-1,1
			l-1.5-0.1c-0.8,0-1.5,0.2-2,0.5c-0.6,0-0.9-0.2-0.9-0.8c0.1-0.7,0.1-1.2,0.1-1.6c0-0.6-0.1-1.3-0.2-2.2
			C111.1,38.4,111.4,38.1,112,38.1z"/>
		<path class="st0" d="M146.8,53.7c-0.1,0.4-0.4,1.1-1,1.8c-0.6,0.8-1,1.2-1.4,1.2c-0.5,0-1.4-0.4-2.7-1.2c-0.8-0.5-1.6-1.1-2.4-1.6
			c-0.6-0.4-1.5-0.8-2.7-1.3c-0.1,3-1.7,4.6-4.8,4.7c-1.2,0.1-2.2-0.2-3.1-0.7c-1.1-0.6-1.7-1.5-1.7-2.8c-0.1-1.3,0.5-2.3,1.7-3
			c0.9-0.5,1.9-0.8,3.2-0.9c0.9,0,1.9,0.1,3,0.3c0-0.6,0-1.3-0.1-2.3c0-1.2-0.1-1.9-0.1-2.2c0,0,0-0.1,0-0.1c0-0.1,0-0.2,0-0.2
			c-2.1,0.2-3.9,0.5-5.2,0.8c-0.1,0-0.2,0.1-0.5,0.2c-0.2,0.1-0.4,0.2-0.5,0.2c-0.5,0-0.8-0.3-0.9-1.1c0-0.8,0.5-1.3,1.8-1.5
			c0.9-0.2,2.7-0.4,5.2-0.5c-0.1-1.2-0.2-2.7-0.3-4.4c-1.8,0.1-2.8,0.2-3.1,0.2c-1.2,0.1-2.2,0.4-3,0.6c-0.8,0.3-1.2,0.4-1.3,0.4
			c-0.7,0-1.1-0.4-1.2-1.3c0-0.3,0.1-0.5,0.3-0.8c0.3-0.3,3-0.6,8.2-0.9c-0.1-1.7-0.2-2.6-0.2-2.8c0-0.9,0.3-1.3,1-1.4
			c0.8,0,1.2,0.4,1.3,1.3c0,0.8,0,1.8,0,2.9c4,0,6.6,0,7.8-0.1c0.5,0,0.7,0.1,0.7,0.3c0,0.4-0.1,0.9-0.4,1.5c-0.3,0.6-0.6,0.9-1,0.9
			c0.1,0-0.4-0.2-1.6-0.5c-1.2-0.3-3-0.4-5.5-0.5c0,1.5,0.1,3,0.1,4.4c2.5-0.1,4.6-0.1,6.5,0.1c0.2,0,0.3,0,0.4,0.1
			c0.1,0.1,0.1,0.2,0.2,0.3c0,0.4-0.2,0.8-0.3,1.2c-0.2,0.5-0.5,0.8-0.7,0.8c-0.1,0-0.8-0.1-2.1-0.3c-1.1-0.2-2.4-0.3-3.9-0.2
			c0,0.2,0,2,0.1,5.3c2,0.6,3.9,1.2,5.8,1.8c1.2,0.4,2.5,0.7,3.8,0.7C146.5,53.3,146.7,53.4,146.8,53.7z M134.7,51.9
			c-1.3-0.4-2.4-0.5-3.3-0.5c-2.2,0.1-3.3,0.9-3.2,2.3c0,0.6,0.5,1.1,1.3,1.4c0.6,0.3,1.2,0.4,1.9,0.4c1.1,0,1.9-0.4,2.5-0.9
			C134.3,54.1,134.6,53.2,134.7,51.9z"/>
		<path class="st0" d="M171.2,48.5c0.1,2.6-0.9,4.6-2.9,6c-1.7,1.2-3.7,1.8-6.2,1.9c-1.2,0.1-2.3-0.2-3.4-0.8c-1.3-0.7-2-1.6-2-2.8
			c-0.1-1.8,0.9-2.8,2.9-2.9c2.4-0.1,4.4,1.1,5.9,3.7c1.1-0.4,1.9-1.1,2.5-1.9c0.7-0.9,1-2,1-3.1c-0.1-1.3-0.6-2.4-1.6-3.1
			c-0.9-0.6-2-0.8-3.3-0.8c-1.7,0.1-3.4,0.5-5.1,1.2c-1.8,0.8-3.3,1.8-4.4,3.1c-0.6,0.6-1,0.9-1.2,0.9c-0.7,0-1.1-0.4-1.1-1.2
			c0-0.5,0.3-1,1-1.8l10.1-10.5c0.1-0.1,0.3-0.3,0.4-0.5c-0.2-0.1-0.4-0.1-0.7-0.1c-1,0-2.2,0.2-3.8,0.4c-2,0.2-3.1,0.4-3.5,0.6
			c-0.6,0.1-1-0.3-1-1.1c0-0.7,0.6-1.1,1.9-1.2c2.3-0.2,5.5-0.3,9.5-0.5c0.9,0,1.3,0.2,1.4,0.7c0,0.3-0.3,0.7-0.9,1.3
			c-3.4,3.1-6.4,6.1-8.9,8.8c2.1-1.1,4.3-1.7,6.7-1.8c1.7-0.1,3.1,0.3,4.4,1.1C170.3,45.4,171.1,46.8,171.2,48.5z M163.5,54.3
			c-1.3-2.1-2.7-3.1-4-3c-1,0-1.5,0.5-1.5,1.5c0.1,1.3,1.4,1.9,3.9,1.7C162.2,54.5,162.7,54.4,163.5,54.3z"/>
		<path class="st0" d="M179.3,32.9c-0.2,0.7-0.2,3.2,0,7.4c0.2,3.6,0.3,5.7,0.5,6c0,1-0.5,1.5-1.3,1.6c-0.9,0-1.4-0.4-1.5-1.4
			c0-0.7,0-1.7,0-3c0-1.3,0-2.4,0-3c0-0.8-0.2-2-0.4-3.7c-0.2-1.6-0.3-2.9-0.3-3.7c0-1.1,0.4-1.6,1.5-1.6S179.3,31.8,179.3,32.9z
			 M180.8,52.3c0,0.7-0.2,1.2-0.6,1.6c-0.4,0.4-0.9,0.7-1.5,0.7c-0.6,0-1.1-0.2-1.5-0.5c-0.4-0.4-0.6-0.9-0.7-1.6
			c-0.1-1.4,0.6-2.1,2-2.1c0.6,0,1.1,0.1,1.6,0.5C180.6,51.1,180.8,51.6,180.8,52.3z"/>
	</g>
</g>
</svg>
