<?xml version="1.0" encoding="utf-8"?>
<!-- Generator: Adobe Illustrator 24.0.3, SVG Export Plug-In . SVG Version: 6.00 Build 0)  -->
<svg version="1.1" id="レイヤー_1" xmlns="http://www.w3.org/2000/svg" xmlns:xlink="http://www.w3.org/1999/xlink" x="0px"
	 y="0px" viewBox="0 0 188.2 77.5" style="enable-background:new 0 0 188.2 77.5;" xml:space="preserve">
<style type="text/css">
	.st0{fill:#ED9027;}
</style>
<g>
	<g>
		<path class="st0" d="M10.9,9c0.6,0,0.8,0.4,0.8,1l-0.1,1.5c0,0.1,0,0.2,0,0.2l3,0.3c0-0.1,0-0.1,0-0.2l0.3-1.6
			c0.1-0.4,0.4-0.6,0.8-0.6c0.6,0,0.8,0.3,0.8,0.9L15.6,12c0,0,0,0.1-0.1,0.1l1.8,0.2c0.2,0,0.3,0.1,0.3,0.3c0,0.3-0.2,0.6-0.4,0.8
			c-0.2,0.2-0.6,0.3-0.9,0.3c-0.2,0-0.7-0.1-1.4-0.2c-0.4-0.1-0.8-0.1-1.2-0.1c0,0.1,0,0.1,0,0.2c-0.1,0.7-0.2,1.3-0.3,1.9l4,0.3
			c0.3,0,0.4,0.2,0.4,0.4c0,0.4-0.2,0.6-0.4,0.9c-0.3,0.2-0.6,0.3-1,0.3c-0.2,0-0.8-0.2-1.7-0.4c-0.5-0.1-1-0.1-1.5-0.2l0,0.6
			c0.1,0,0.2,0,0.3,0c0.1,0,0.5,0.3,1.3,1c0.8,0.7,1.1,1.2,1.1,1.4c0,0.4-0.3,0.6-0.8,0.6c-0.1,0-0.2-0.1-0.3-0.2
			c-0.7-0.7-1.3-1.2-1.7-1.4l-0.3,4.3c-0.1,1.1-0.4,1.6-1,1.6c-0.5,0-0.7-0.6-0.6-1.7c0.2-1.8,0.3-3.3,0.5-4.6
			c-0.6,0.6-1.3,1.2-1.9,1.7C8.9,20.8,8,21.3,7,21.6c-0.2,0.1-0.4,0.1-0.5,0.1c-0.4,0-0.8-0.3-1.2-0.9c-0.4-0.4-0.5-0.7-0.5-1
			c0.1-0.2,0.3-0.3,0.7-0.3c0.7,0,1.3-0.1,1.6-0.1c0.9-0.2,1.7-0.5,2.5-1c0.8-0.5,1.5-1.1,2.1-1.8c-1.8-0.2-3-0.2-3.8-0.1
			c-0.5,0.1-0.8,0.2-0.9,0.1c-0.5-0.1-0.8-0.4-0.8-0.9c0-0.3,0.2-0.5,0.5-0.7c0.2-0.1,0.6-0.2,1-0.1l4.4,0.4c0-0.6,0.1-1.3,0.1-2
			c0-0.1,0-0.2,0-0.2C10.6,13,9.5,12.9,8.8,13c-0.4,0.1-0.7,0.1-0.8,0.1c-0.5-0.1-0.7-0.4-0.7-0.8c0-0.2,0.2-0.4,0.5-0.6
			c0.2-0.1,0.5-0.1,0.9-0.1l1.7,0.1c0-0.1,0-0.2-0.1-0.3L10,9.7C10,9.2,10.3,9,10.9,9z M13.7,4.9c0.7,0.1,0.9,0.4,0.9,1.1
			c-0.2,0.5-0.3,1.1-0.4,1.5l3.7,0.3c0.2,0,0.3,0.1,0.3,0.4c0,0.3-0.1,0.5-0.4,0.7c-0.2,0.2-0.5,0.3-0.9,0.3c-0.2,0-0.7-0.1-1.5-0.2
			c-0.8-0.1-1.7-0.2-2.7-0.3c-1.6-0.1-2.8-0.2-3.6-0.1C8.7,8.7,8.4,8.7,8.3,8.7C7.8,8.6,7.5,8.3,7.5,7.9c0-0.3,0.2-0.5,0.5-0.7
			C8.2,7,8.6,7,9,7l3.8,0.3c0-0.5-0.1-1-0.2-1.4C12.7,5.2,13,4.8,13.7,4.9z M28,6.9c0.7,0.1,1.1,0.5,1,1.3c0,0.3-0.2,0.5-0.7,0.6
			c-0.6,0.1-1.5,0.2-2.7,0.4c-1.4,0.2-3,0.2-4.5,0.3l0,0l0,0l-0.3,3.3c1.2,0.1,2.3,0.1,3.3,0.2c0.9,0.1,1.7,0.2,2.5,0.4
			c0.6,0.1,1,0.2,1.2,0.2c0.9,0.1,1.7,0.1,2.5,0c0.3-0.1,0.5-0.1,0.7-0.1c0.2,0,0.3,0.2,0.3,0.6c0,0.4-0.3,0.9-0.7,1.4
			c-0.4,0.4-0.7,0.6-1,0.6s-0.5-0.1-0.8-0.4c-0.5-0.3-1.1-0.6-1.7-0.8c-0.3-0.1-0.7-0.2-1-0.3c0,0.1,0,0.3,0,0.4
			c-0.2,1.1-0.3,2.2-0.4,3.1l-0.3,6c-0.1,1.2-0.5,1.7-1.1,1.6c-0.5,0-0.7-0.6-0.6-1.8c0.2-2.5,0.4-4.5,0.5-5.9
			c0.1-0.9,0.1-2,0.1-3.1c0-0.2,0.1-0.4,0.1-0.5c-0.2,0-0.3,0-0.5,0c-1.1-0.1-2.3-0.1-3.4,0.1l-0.2,2.1c-0.1,1.4-0.3,2.6-0.6,3.5
			s-0.6,1.8-1.1,2.5c-0.4,0.6-0.8,0.9-1.1,0.8c-0.3,0-0.7-0.2-1.2-0.6c-0.5-0.4-0.7-0.7-0.7-1c0-0.2,0.2-0.3,0.5-0.4
			c0.8-0.3,1.4-0.9,1.8-1.9c0.5-1,0.9-3,1.1-6.1c0.1-1.5,0.2-3.1,0.1-4.8c0-0.4,0.3-0.6,0.9-0.6c0.3,0,0.5,0.1,0.6,0.2
			c1.6,0,2.9-0.1,3.8-0.3c0.9-0.2,1.9-0.5,2.8-0.8C27.7,6.9,27.9,6.9,28,6.9z"/>
		<path class="st0" d="M49.2,20.9c0,0.6-0.2,1.2-0.6,1.8c-0.6,1.2-2.1,2-4.4,2.5c-1.9,0.5-3.7,0.6-5.3,0.5c-2-0.2-3.2-1.1-3.7-2.8
			c-0.3-1.1-0.3-3.8,0.1-8c0.4-4.2,0.7-6.5,0.9-6.7c0.2-0.3,0.6-0.4,1-0.3c0.7,0.1,1,0.5,0.9,1.4c0,0.3-0.2,1.1-0.4,2.4
			c-0.5,2.2-0.8,4.3-0.9,6.1c-0.1,1.6-0.2,2.6-0.2,3.1c0,1.4,0.3,2.3,0.8,2.7c0.4,0.3,0.9,0.5,1.6,0.5c1.4,0.1,2.9-0.1,4.6-0.8
			c1.6-0.6,2.9-1.4,4.1-2.3c0.8-0.7,1.2-1,1.3-1C49.1,20.1,49.2,20.4,49.2,20.9z"/>
		<path class="st0" d="M63.3,21.8c-0.1,0.6-0.8,1.6-2.1,3c-1.4,1.4-2.5,2.1-3.3,2.1c-0.7-0.1-1.4-0.6-2.1-1.5
			c-1.3-1.7-1.7-4.7-1.3-9c0.2-2.2,0.4-3.5,0.7-4c0.2-0.4,0.5-0.5,1-0.5c0.6,0.1,0.9,0.4,0.8,0.9c0,0.1-0.1,0.6-0.3,1.5
			c-0.4,1.7-0.6,3.2-0.7,4.5c-0.2,1.8,0,3.2,0.6,4.2c0.5,1,1,1.5,1.6,1.5s1.5-0.5,2.8-1.5c1.3-1.1,2-1.6,2.1-1.6
			C63.3,21.3,63.4,21.5,63.3,21.8z M74,21.9c-0.1,0.4-0.4,0.8-1,1.3c-0.6,0.5-1.1,0.7-1.5,0.6c-0.6,0-1.4-1.1-2.5-3.1
			c-1-2-1.5-3.4-1.5-4c0-0.3,0.2-0.4,0.4-0.4c0.2,0,0.5,0.4,1.1,1.2c0.5,0.8,1.2,1.6,2,2.3c0.8,0.8,1.5,1.3,2.1,1.5
			c0.2,0.1,0.3,0.1,0.4,0.1C73.8,21.7,73.9,21.8,74,21.9z"/>
		<path class="st0" d="M87,18.9c-0.1,1.1-0.6,2.5-1.7,4.2c-0.9,1.6-2.3,2.9-4.1,4.1c-1.8,1.2-3.2,1.8-4.1,1.8
			c-0.3,0-0.8-0.3-1.4-0.9c-0.6-0.6-0.8-1-0.8-1.4c0-0.1,0.3-0.3,1-0.3c0.9-0.1,2.1-0.4,3.3-0.8c1.5-0.5,2.8-1.4,3.9-2.6
			c1.3-1.3,2-2.7,2.2-4.1c0.1-0.9,0.4-1.3,0.9-1.3C86.9,17.7,87.1,18.1,87,18.9z M95.9,15.6c-0.1,0.7-0.9,1.6-2.5,3
			c-1.6,1.3-2.8,2.1-3.6,2.2c-0.3,0-0.5-0.2-0.4-0.5l1.8-1.8c1.2-1.2,1.7-2,1.8-2.5c-0.4-0.2-1.7-0.3-3.8-0.5c-2.5-0.2-5-0.2-7.4,0
			c-1.7,0.1-2.5,0.2-2.5,0.2c-0.5,0-0.8-0.4-0.7-1c0-0.5,0.2-0.9,0.6-1.1c0.4-0.3,2.4-0.3,6.1,0l3.1,0.3c2,0.2,3.9,0.4,5.6,0.7
			c0.1-0.1,0.5-0.1,1.1,0c0.3,0,0.5,0.1,0.7,0.3C95.8,15.2,95.9,15.4,95.9,15.6z"/>
		<path class="st0" d="M115.9,15.5c0,0.6-0.9,1.5-2.6,2.8c-1.4,1.1-2.5,1.8-3.5,2.3c-0.2,2.1-0.3,4.1-0.5,6c0,0.4-0.1,1.1-0.1,2.1
			c0,0.9,0,1.6-0.1,2.1c-0.1,1-0.4,1.5-0.9,1.4c-0.8-0.1-1.1-0.6-1-1.6c0.4-4.4,0.7-7.5,0.9-9.3c-3.6,1.4-6.4,2-8.3,1.9
			c-0.5,0-1-0.3-1.5-0.8c-0.5-0.5-0.7-1.1-0.6-1.6c0-0.2,0.3-0.3,0.9-0.3c0.3,0,0.8,0.1,1.5,0.1c3.2,0.1,6.1-0.5,8.6-1.6
			c2.3-1,4-2.2,5-3.4c0.5-0.7,1-1,1.4-0.9C115.7,14.7,115.9,15,115.9,15.5z"/>
		<path class="st0" d="M139.2,22.9c-0.1,0.5-0.4,1-1,1.6c-0.6,0.6-1.1,0.9-1.5,0.8c-0.1,0-0.5-0.2-1.2-0.6c-1.4-0.8-3.4-1.4-6.2-1.7
			c0,0.2,0,0.5,0,0.9c0,0.4,0,0.7,0,0.8c-0.1,1.3-0.5,2.5-1.1,3.8c-0.6,1.3-1.4,2.3-2.3,3.1c-1.3,1.1-2.3,1.7-3.1,1.6
			c-0.3,0-0.7-0.2-1.3-0.6c-0.5-0.4-0.8-0.7-0.7-1c0-0.2,0.2-0.3,0.5-0.4c0.7-0.1,1.5-0.4,2.4-0.9c1.1-0.6,2-1.4,2.8-2.4
			c0.8-1.1,1.3-2.2,1.4-3.3c0-0.2,0-0.5,0-0.8c0-0.4,0-0.7,0-0.9c-3.3-0.2-5.8,0-7.5,0.4c-1.1,0.3-1.7,0.4-1.6,0.5
			c-0.5,0-0.7-0.4-0.7-0.9c0-0.5,0.2-0.9,0.6-1.1c0.9-0.5,4.3-0.6,10.3,0c1,0.1,2.5,0.3,4.4,0.5c2,0.3,3.4,0.4,4.4,0.5
			c0.4,0,0.8,0,1,0C139.1,22.6,139.2,22.7,139.2,22.9z M135.3,17.7c0,0.3-0.2,0.5-0.5,0.7c-0.3,0.2-0.6,0.3-0.8,0.3
			c-0.5,0-1.2-0.1-2.1-0.3c-0.9-0.2-1.6-0.2-2.1-0.3c-1.6-0.1-3-0.2-4.1-0.2c-2.1,0-3,0-2.8,0c-0.3,0-0.5-0.2-0.4-0.4
			c0-0.4,0.2-0.7,0.4-1c0.3-0.3,0.6-0.4,0.9-0.4c-0.1,0,0.1,0,0.4,0c0.1,0,0.2,0.1,0.4,0.1c0.9,0.1,2.3,0.2,4.1,0.3
			c1.8,0.1,3.2,0.2,4.1,0.3C134.5,17,135.3,17.3,135.3,17.7z M139.4,17.9c0,0.2-0.3,0.4-0.6,0.7c-0.4,0.2-0.7,0.4-0.9,0.3
			c-0.3,0-0.7-0.5-1.2-1.5c-0.5-1-0.7-1.7-0.7-2c0-0.2,0.1-0.3,0.2-0.3c0.2,0,0.3,0.1,0.5,0.3c0.8,1.1,1.6,1.7,2.2,2
			C139.2,17.6,139.3,17.7,139.4,17.9z M143,17c0,0.1-0.2,0.4-0.6,0.7c-0.4,0.3-0.7,0.4-0.8,0.4c-0.4-0.1-0.9-0.6-1.4-1.4
			c-0.6-0.8-0.8-1.4-0.8-1.8c0-0.1,0.1-0.2,0.2-0.2c0,0,0.4,0.3,1.2,0.9c0.8,0.6,1.4,1,1.8,1.1C142.8,16.8,142.9,16.9,143,17z"/>
		<path class="st0" d="M151.9,24.5c-0.1,1.1-0.6,2.5-1.7,4.2c-0.9,1.6-2.3,2.9-4.1,4.1c-1.8,1.2-3.2,1.8-4.1,1.8
			c-0.3,0-0.8-0.3-1.4-0.9c-0.6-0.6-0.8-1-0.8-1.4c0-0.1,0.3-0.3,1-0.3c0.9-0.1,2.1-0.4,3.3-0.8c1.5-0.5,2.8-1.4,3.9-2.6
			c1.3-1.3,2-2.7,2.2-4.1c0.1-0.9,0.4-1.3,0.9-1.3C151.7,23.3,152,23.7,151.9,24.5z M160.8,21.2c-0.1,0.7-0.9,1.6-2.5,3
			c-1.6,1.3-2.8,2.1-3.6,2.2c-0.3,0-0.5-0.2-0.4-0.5l1.8-1.8c1.2-1.2,1.7-2,1.8-2.5c-0.4-0.2-1.7-0.3-3.8-0.5c-2.5-0.2-5-0.2-7.4,0
			c-1.7,0.1-2.5,0.2-2.5,0.2c-0.5,0-0.8-0.4-0.7-1c0-0.5,0.2-0.9,0.6-1.1c0.4-0.3,2.4-0.3,6.1,0l3.1,0.3c2,0.2,3.9,0.4,5.6,0.7
			c0.1-0.1,0.5-0.1,1.1,0c0.3,0,0.5,0.1,0.7,0.3C160.7,20.8,160.8,21,160.8,21.2z"/>
		<path class="st0" d="M176.7,27.7c-0.2,1.9-0.6,3.7-1.5,5.4c-1.1,2.3-2.4,3.4-4,3.2c-0.4,0-0.7-0.3-1.1-0.9
			c-0.4-0.6-0.5-1.1-0.5-1.5c0-0.2,0.4-0.3,1.2-0.3c0.9-0.1,1.5-0.2,1.8-0.4c0.7-0.5,1.3-1.5,1.9-3.1c0.4-1.3,0.7-2.5,0.8-3.6
			c0.1-1.1-0.5-1.7-1.7-1.8c-0.5,0-1.2-0.1-2.4-0.1c-0.8,2.1-1.5,3.7-2.3,4.9c-0.9,1.5-2,2.9-3.4,4.3c-1.2,1.2-2.1,1.8-2.7,1.7
			c-0.3,0-0.7-0.3-1.2-0.8c-0.5-0.5-0.7-0.8-0.7-1.1c0-0.2,0.2-0.3,0.4-0.4c0.3-0.1,0.7-0.3,1.2-0.5c1.4-0.6,2.6-1.5,3.6-2.6
			c1.2-1.3,2.4-3.1,3.5-5.5c-1,0-2.4,0.1-4.4,0.4c-0.5-0.1-0.7-0.3-0.6-0.8c0.1-0.8,1-1.1,2.7-1.1c0.4,0,1.4,0,2.8,0.1
			c0.3-0.9,0.6-1.8,0.7-2.9c0.1-0.6,0.4-0.9,0.8-0.9c0.5,0,0.8,0.3,0.7,0.9c0,0.2-0.3,1.2-0.8,3c0.9,0,1.6,0.1,1.9,0.1
			c1.3,0.1,2.2,0.6,2.6,1.3C176.7,25.4,176.8,26.4,176.7,27.7z M185.5,27.6c0,0.3-0.3,0.7-1,1.3c-0.6,0.6-1,0.8-1.3,0.8
			c-0.6,0-1.4-0.8-2.4-2.2s-1.5-2.4-1.5-3c0-0.3,0.1-0.4,0.4-0.4c0.1,0,0.4,0.3,0.9,0.8c0.5,0.5,1.1,1.1,1.9,1.5
			c0.7,0.4,1.4,0.7,2.1,0.8C185.2,27.3,185.5,27.4,185.5,27.6z M184.8,23.8c-0.1,0.2-0.3,0.5-0.6,0.8c-0.3,0.4-0.6,0.5-0.7,0.5
			c-0.3,0-0.8-0.5-1.5-1.3c-0.7-0.8-1-1.4-1-1.7c0-0.2,0.1-0.3,0.3-0.3c0.1,0,0.4,0.2,0.9,0.5c0.7,0.5,1.4,0.8,2.2,1
			C184.6,23.5,184.7,23.6,184.8,23.8z M187.6,22.1c-0.1,0.2-0.3,0.5-0.6,0.8c-0.3,0.3-0.6,0.5-0.7,0.5c-0.3,0-0.9-0.5-1.5-1.3
			c-0.7-0.8-1-1.4-1-1.7c0-0.2,0.1-0.3,0.3-0.3c0.1,0,0.4,0.2,0.9,0.6c0.7,0.5,1.4,0.8,2.3,0.9C187.4,21.7,187.6,21.9,187.6,22.1z"
			/>
		<path class="st0" d="M36.8,36.4c0.5,0,0.8,0.3,0.8,0.8c0,0.3-0.2,0.6-0.4,0.9c-0.5,0.8-1.1,1.7-1.7,2.4l5.8,0.5l0.3-4.5
			c0.1-0.8,0.5-1.2,1.3-1.2c0.9,0.1,1.4,0.5,1.3,1.4l-0.5,4.5l8.3,0.7c0.4,0,0.5,0.2,0.5,0.4c0,0.5-0.2,0.8-0.5,1.1
			c-0.4,0.3-0.8,0.4-1.3,0.4c-0.4,0-1.4-0.2-3-0.5c-1.3-0.2-2.7-0.3-4.2-0.5l-0.5,5.2l7.2,0.6c0.4,0.1,0.5,0.2,0.5,0.5
			c0,0.5-0.2,0.8-0.5,1.1c-0.4,0.3-0.8,0.4-1.3,0.4c-0.4,0-1.3-0.2-2.7-0.6c-1-0.1-2.2-0.3-3.3-0.4l-0.6,5.6c2,0.2,4.1,0.6,6.4,1.1
			c2.2,0.5,4.2,0.8,6.2,0.9c0.6,0,1.1,0,1.7,0c0.1,0,0.1,0.1,0.1,0.4c-0.1,0.7-0.3,1.3-0.7,2c-0.5,0.7-0.9,1-1.3,1
			c-0.6,0-1.1-0.2-1.7-0.6c-2.3-1.1-4.4-1.9-6.4-2.3c-1.6-0.4-3.5-0.6-5.7-0.8C38.3,56.9,36,56.8,34,57c-2.1,0.3-4.2,0.7-6.3,1.3
			c-0.6,0.2-1.1,0.3-1.5,0.2c-0.7-0.1-1-0.6-1-1.4c0-0.4,0.3-0.7,0.7-1.1c0.4-0.3,0.8-0.4,1.3-0.5c6-0.4,10.4-0.6,13.2-0.4l0.4-5.6
			c-2.4-0.2-4.2-0.2-5.4-0.1c-0.7,0.2-1.2,0.2-1.4,0.2c-0.8-0.1-1.2-0.5-1.2-1.3c0.1-0.3,0.3-0.6,0.7-0.9c0.4-0.2,0.8-0.2,1.4-0.2
			l6.1,0.5l0.4-5.2c-2.4-0.2-4.2-0.2-5.3-0.1c-0.8,0.1-1.3,0.2-1.5,0.2c-0.3,0-0.5-0.1-0.6-0.2c-0.5,0.5-0.9,1-1.4,1.5
			c-0.7,0.7-1.3,1-1.7,0.9c-0.5,0-1-0.3-1.5-0.8c-0.5-0.5-0.7-0.9-0.7-1.4c0-0.3,0.3-0.5,0.7-0.5c1.3-0.3,2.5-0.9,3.6-1.9
			c1.2-0.9,2.4-2.2,3.4-3.9C36.5,36.5,36.7,36.4,36.8,36.4z"/>
		<path class="st0" d="M85.8,59.3c-0.2,0.4-0.6,1-1.3,1.7c-0.7,0.7-1.3,1-1.7,1c-0.6,0-1.5-0.6-2.9-1.6c-0.8-0.7-1.6-1.3-2.4-1.9
			c-0.7-0.5-1.6-1-2.8-1.7c-0.5,3-2.5,4.3-5.9,4c-1.3-0.1-2.4-0.5-3.3-1.1c-1.1-0.8-1.6-1.8-1.5-3c0.1-1.3,0.9-2.2,2.2-2.7
			c1-0.4,2.2-0.5,3.7-0.4c1,0.1,2,0.3,3.2,0.7c0-0.5,0.1-1.3,0.2-2.3c0.1-1.2,0.2-1.9,0.2-2.2c0,0,0-0.1,0-0.1c0-0.1,0-0.2,0-0.2
			c-2.4-0.1-4.3-0.1-5.8,0.1c-0.1,0-0.3,0-0.6,0.1c-0.2,0.1-0.4,0.1-0.6,0.1c-0.6-0.1-0.9-0.4-0.8-1.2c0.1-0.8,0.8-1.2,2.1-1.2
			c1.1-0.1,3,0,5.8,0.2c0.1-1.2,0.2-2.7,0.3-4.4c-2-0.1-3.2-0.2-3.4-0.2c-1.3,0-2.5,0.1-3.4,0.2c-0.9,0.2-1.4,0.2-1.5,0.2
			c-0.8-0.1-1.2-0.5-1.1-1.4c0-0.3,0.2-0.5,0.4-0.7c0.3-0.3,3.4-0.2,9.1,0.3c0.1-1.7,0.1-2.6,0.1-2.8c0.1-0.9,0.5-1.3,1.3-1.2
			c0.9,0.1,1.3,0.6,1.2,1.4c-0.1,0.8-0.2,1.7-0.4,2.9c4.4,0.6,7.2,0.9,8.7,1c0.5,0,0.8,0.2,0.8,0.4c0,0.4-0.3,0.9-0.7,1.4
			c-0.4,0.5-0.8,0.8-1.2,0.8c0.1,0-0.5-0.2-1.7-0.7c-1.3-0.4-3.3-0.9-6-1.2c-0.2,1.5-0.3,3-0.4,4.4c2.7,0.2,5.1,0.6,7.1,1
			c0.2,0,0.3,0.1,0.4,0.1c0.1,0.1,0.1,0.2,0.2,0.3c-0.1,0.4-0.3,0.7-0.5,1.1C82.6,50.8,82.3,51,82,51c-0.1,0-0.8-0.2-2.2-0.6
			c-1.2-0.3-2.6-0.6-4.2-0.8c0,0.2-0.2,2-0.6,5.3c2.1,0.8,4.2,1.7,6.1,2.6c1.3,0.6,2.7,1,4.1,1.3C85.5,58.8,85.7,59,85.8,59.3z
			 M72.8,55.9c-1.4-0.5-2.6-0.8-3.6-0.9c-2.5-0.2-3.8,0.4-3.9,1.8c-0.1,0.6,0.4,1.2,1.2,1.6c0.6,0.4,1.3,0.6,2,0.6
			c1.2,0.1,2.2-0.1,2.8-0.6C72,58,72.5,57.1,72.8,55.9z"/>
		<path class="st0" d="M120.8,60c0,0.5-0.4,1.3-0.9,2.3c-0.8,1.3-2.7,1.8-5.9,1.5c-3.7-0.3-5.4-1.9-5.1-4.7c0.1-1,0.7-2.7,1.9-5
			c1.2-2.3,1.8-3.8,1.8-4.6c0-0.3-0.1-0.6-0.4-0.8c-0.3-0.2-0.6-0.3-0.9-0.4c-2.6-0.2-5.7,1.3-9.5,4.7l-0.6,7c0,0.3-0.1,0.8-0.1,1.5
			c0,0.7,0,1.2-0.1,1.5c-0.1,0.8-0.5,1.1-1.4,1c-0.4,0-0.7-0.3-0.8-0.9c-0.1-0.6,0.2-3.8,0.8-9.7c-2,2-3.6,3.7-4.6,5.1
			c-0.5,0.6-0.8,0.9-1.1,0.9c-0.8-0.1-1.1-0.5-1-1.4c0.1-0.6,1.1-1.9,3.2-4c0,0,1.3-1.2,3.9-3.6l0-0.4c0-0.1,0.1-1.1,0.4-2.9
			c-2.2,0.1-3.9,0.4-5.1,0.7c-0.5-0.1-0.7-0.3-0.7-0.7c0.1-0.9,0.7-1.4,1.9-1.5c0.7-0.1,2-0.2,4-0.3l0.4-3.4c0.2-1.3,0.6-2,1.3-1.9
			c0.7,0.1,1.1,0.5,1,1.2c-0.2,0.2-0.4,1.6-0.6,4.1c0.1,0,0.2,0,0.3,0c0.1,0,0.3,0,0.3,0c0.8,0.1,1.2,0.4,1.1,1.1
			c0,0.4-0.3,1-0.9,1.7c-0.4,0.5-0.8,1-1.3,1.5l-0.1,1.4c1.4-1.2,3-2.2,4.6-3c2-1.1,3.8-1.5,5.2-1.4c0.7,0.1,1.4,0.4,1.9,0.9
			c0.6,0.6,0.9,1.2,0.9,1.9c-0.1,0.7-0.7,2.4-1.8,4.9c-1.1,2.6-1.7,4.3-1.8,5.1c-0.1,1,0.5,1.6,1.8,1.7c1.3,0.1,2.9-0.2,4.7-0.9
			c1.9-0.8,2.9-1.1,3-1.1C120.7,59.2,120.8,59.5,120.8,60z"/>
		<path class="st0" d="M148.8,60.6c-0.2,2.6-1.6,4.4-4,5.5c-2,0.9-4.4,1.3-7.1,1c-1.3-0.1-2.5-0.5-3.7-1.3c-1.3-0.8-2-1.9-1.9-3.1
			c0.2-1.8,1.3-2.7,3.6-2.5c2.7,0.2,4.7,1.7,6,4.5c1.2-0.3,2.2-0.8,3-1.5c0.9-0.8,1.4-1.8,1.5-3c0.1-1.3-0.3-2.4-1.3-3.3
			c-0.9-0.7-2.1-1.1-3.5-1.2c-1.9-0.2-3.8,0-5.8,0.5c-2.1,0.5-3.9,1.4-5.3,2.5c-0.7,0.5-1.2,0.8-1.4,0.7c-0.8-0.1-1.1-0.5-1.1-1.3
			c0-0.5,0.5-1,1.3-1.6l12.5-9c0.2-0.1,0.3-0.2,0.5-0.4c-0.2-0.1-0.4-0.2-0.7-0.2c-1.1-0.1-2.5-0.1-4.2-0.1
			c-2.2-0.1-3.5-0.1-3.9,0.1c-0.7,0-1-0.4-0.9-1.2c0.1-0.7,0.8-1,2.2-0.9c2.6,0.2,6.1,0.4,10.5,0.8c1,0.1,1.4,0.4,1.4,0.9
			c0,0.3-0.4,0.7-1.1,1.1c-4.2,2.6-7.8,5.1-11,7.5c2.5-0.8,5-1.1,7.6-0.8c1.8,0.2,3.4,0.7,4.7,1.7C148.3,57.4,149,58.8,148.8,60.6z
			 M139.6,65.3c-1.2-2.2-2.5-3.4-4-3.6c-1.1-0.1-1.8,0.3-1.8,1.3c-0.1,1.3,1.3,2,4.1,2.3C138.1,65.3,138.7,65.3,139.6,65.3z"/>
		<path class="st0" d="M159.6,65.7c-0.1,0.7-0.3,1.2-0.9,1.6c-0.5,0.4-1.1,0.5-1.7,0.5c-0.7-0.1-1.2-0.3-1.6-0.8
			c-0.4-0.4-0.6-1-0.5-1.7c0.1-1.4,0.9-2,2.5-1.8c0.7,0.1,1.2,0.3,1.7,0.7C159.5,64.5,159.7,65,159.6,65.7z M160.6,46.3
			c-0.3,0.7-0.7,3.1-1,7.3c-0.3,3.6-0.4,5.6-0.3,6c-0.2,1-0.7,1.5-1.6,1.4c-1-0.1-1.5-0.6-1.4-1.6c0.1-0.7,0.2-1.7,0.4-3
			c0.2-1.3,0.3-2.3,0.4-3c0.1-0.8,0.1-2,0.1-3.7c0-1.7,0.1-2.9,0.1-3.7c0.1-1.1,0.7-1.5,1.8-1.4S160.6,45.2,160.6,46.3z"/>
	</g>
</g>
</svg>
