<?xml version="1.0" encoding="utf-8"?>
<!-- Generator: Adobe Illustrator 24.0.3, SVG Export Plug-In . SVG Version: 6.00 Build 0)  -->
<svg version="1.1" id="レイヤー_1" xmlns="http://www.w3.org/2000/svg" xmlns:xlink="http://www.w3.org/1999/xlink" x="0px"
	 y="0px" viewBox="0 0 318.7 78.3" style="enable-background:new 0 0 318.7 78.3;" xml:space="preserve">
<style type="text/css">
	.st0{fill:#513813;}
</style>
<g>
	<g>
		<path class="st0" d="M28,6.6c1.3,0,2.8,0.1,4.5,0.2C33.9,6.9,35.1,7,36,7c0.5,0,1.1-0.1,1.8-0.3c0.1,0,0.2,0.2,0.2,0.5
			c0,0.5-0.2,1.1-0.6,1.6c-0.3,0.4-0.5,0.6-0.7,0.6c-0.4,0-0.9-0.1-1.5-0.4c-0.9-0.4-2-0.8-3.1-0.9c-1.2-0.2-2.6-0.3-4.1-0.3
			c-0.6,0-1.2,0-1.8,0c-0.4,0.6-0.8,1.3-1.3,2c-1.2,1.4-2.6,2.5-3.9,3.3c-0.9,0.5-1.7,0.8-2.3,0.8c-0.3,0-0.5-0.1-0.8-0.3
			c-0.4-0.3-0.5-0.7-0.5-1c0-0.2,0.2-0.4,0.7-0.5c1.8-0.2,3.4-1,4.9-2.2c0.7-0.6,1.3-1.3,1.8-2c-0.5,0-1,0.1-1.6,0.1
			c-0.9,0.1-2.4,0.5-4.2,1.3c-0.6,0-0.8-0.2-0.8-0.7c0-0.3,0.1-0.5,0.4-0.7c0.3-0.3,0.7-0.5,1.2-0.5c2.3-0.4,4.2-0.6,5.9-0.7
			C25.8,6.2,26,5.6,26.3,5c0-0.2,0.2-0.3,0.5-0.3c0.4,0,0.7,0.2,0.7,0.7c0,0-0.1,0.1-0.1,0.3c-0.1,0.3-0.3,0.6-0.5,1
			C27.2,6.6,27.7,6.6,28,6.6z M19.4,2.4h4.2l-0.1-0.7c0-0.4,0.2-0.6,0.7-0.6C24.8,1,25,1.2,25,1.7v0.6h5.2l0.1-0.6
			c0-0.6,0.2-0.8,0.7-0.8c0.5,0,0.7,0.2,0.7,0.7l-0.2,0.7h5.1c0.2,0,0.3,0.1,0.4,0.3C37,3,37,3.2,36.8,3.5c-0.2,0.2-0.5,0.3-0.9,0.3
			c-0.4,0-1.5-0.1-3.2-0.2c-0.5,0-0.9,0-1.4,0l-0.3,1c-0.1,0.3-0.3,0.4-0.6,0.4c-0.3,0-0.5-0.2-0.5-0.6l0.1-0.8c-1,0-2,0-3,0
			c-0.7,0-1.4,0-2.1,0v0.8c0,0.4-0.2,0.6-0.5,0.6c-0.3,0-0.5-0.2-0.6-0.6l-0.1-0.7c-1.5,0-2.6,0.1-3.4,0.2C19.7,3.9,19.2,4,18.9,4
			c-0.5,0-0.8-0.3-0.8-0.7c0-0.2,0.2-0.5,0.4-0.6C18.7,2.4,19,2.4,19.4,2.4z M24.9,11c0.2,0,0.5,0,0.7,0.1c0.2,0.1,0.6,0.1,1,0.1h3
			c0.7,0,1.5,0,2.4,0.1c0.2,0,0.5-0.1,0.8-0.2c0.4,0,0.7,0.2,0.7,0.7c0,0,0,0.1,0,0.2c-0.1,0.2-0.1,0.5-0.2,0.9
			c0,0.6-0.1,1.2-0.1,1.8c0,0.4,0,0.9,0.1,1.6c0,0.5-0.2,0.7-0.6,0.7c-1.5-0.1-2.9-0.2-4.1-0.2c-1.3,0-2.1,0-2.5,0.1
			c-0.3,0-0.6,0.1-1.1,0.1c-0.4,0-0.6-0.2-0.6-0.6c0.1-0.9,0.2-1.7,0.2-2.4c0-0.6-0.1-1.4-0.2-2.4C24.3,11.2,24.5,11,24.9,11z
			 M28.5,15.8c0.9,0,2,0,3.1,0.1c0.2,0,0.4-0.1,0.4-0.3v-3c0-0.2-0.1-0.3-0.2-0.3c-1.2-0.1-3-0.1-5.4-0.1c-0.3,0-0.5,0.2-0.5,0.5
			c0,1-0.1,1.9-0.2,2.8c0,0.3,0.2,0.4,0.6,0.4C26.9,15.8,27.7,15.8,28.5,15.8z"/>
		<path class="st0" d="M48.8,3h3.3l-0.1-1.5c0-0.5,0.3-0.7,0.8-0.7c0.6,0,0.8,0.2,0.8,0.7L53.6,3h3.9c0.1,0,0.2,0,0.2,0.1
			c0.4-0.4,0.8-0.9,1.2-1.3c0.1-0.1,0.3-0.1,0.5-0.1c0.4,0,0.5,0.3,0.6,0.6c0,0.2-0.1,0.3-0.2,0.4c-1.2,1.3-2.3,2.4-3.3,3.3
			c0.4,0,0.9,0.1,1.3,0.1c1.4,0.1,2.6,0.2,3.7,0.2c0.5,0,1.2-0.1,1.9-0.3c0.1,0,0.2,0.2,0.2,0.5c0,0.5-0.2,1-0.6,1.6
			c-0.3,0.4-0.6,0.6-0.8,0.6c-0.4,0-1-0.1-1.6-0.4c-1-0.4-2.1-0.7-3.3-0.9c-0.6-0.1-1.3-0.1-1.9-0.2c-1,0.8-1.8,1.5-2.6,1.9
			c-0.3,0.2-0.6,0.4-0.8,0.5c0.2,0,0.4,0,0.6,0H55c0.6,0,1.3,0,2,0.1c0.2,0,0.5-0.1,0.9-0.2c0.4,0,0.6,0.3,0.6,0.8c0,0,0,0.1,0,0.2
			c-0.1,0.2-0.1,0.6-0.2,1.2c0,0.8-0.1,1.6-0.1,2.5c0,0.6,0,1.3,0.1,2.3c0,0.6-0.2,0.8-0.6,0.8c-1.2-0.2-2.4-0.3-3.4-0.3
			c-1.3,0-2.1,0-2.5,0.1c-0.3,0-0.7,0.1-1.1,0.2c-0.4,0-0.7-0.2-0.7-0.7c0.1-1.2,0.2-2.3,0.2-3.2c0-0.8,0-1.8-0.1-2.9
			c-1.4,0.7-2.9,1.3-4.5,1.8c-0.7,0.3-1.3,0.4-1.7,0.4c-0.5,0-0.9-0.2-1.2-0.5c-0.3-0.3-0.5-0.6-0.5-0.9c0-0.2,0.1-0.4,0.4-0.4
			c2.8-0.4,5-0.9,6.7-1.6c1.3-0.5,2.7-1.3,4-2.2c-0.2,0-0.3,0-0.5,0c-1.6,0-3.2,0.1-4.7,0.2c-0.9,0.1-2.3,0.5-4.1,1.1
			c-0.5,0-0.7-0.2-0.7-0.6c0-0.3,0.1-0.5,0.3-0.7c0.3-0.3,0.6-0.5,1.1-0.5C47.9,6.2,50.4,6,52.2,6l-0.1-1.8c-1.4,0-2.4,0.1-3,0.2
			c-0.4,0.1-0.7,0.2-0.8,0.2c-0.5,0-0.7-0.2-0.7-0.6c0-0.2,0.1-0.4,0.4-0.6C48.2,3.1,48.4,3,48.8,3z M54.3,15.9c0.7,0,1.5,0,2.4,0.1
			c0.2,0,0.4-0.1,0.4-0.4v-1.9c-2.3,0-4.1,0.1-5.3,0.2c0,0-0.1,0-0.1,0c0,0.5,0,1.1-0.1,1.6c0,0.3,0.2,0.5,0.6,0.5
			C52.7,15.9,53.5,15.9,54.3,15.9z M51.7,12.7c0.1,0,0.1,0,0.2,0H57v-1.6c0-0.2-0.1-0.3-0.2-0.3c-1.1-0.1-2.7-0.1-4.7-0.1
			c-0.3,0-0.5,0.2-0.5,0.5C51.7,11.7,51.7,12.2,51.7,12.7z M54.7,6c0.6-0.5,1.2-1.1,1.9-1.7c-0.3,0-0.7,0-1.4-0.1
			c-0.5,0-1.1,0-1.7,0L53.5,6C53.9,6,54.3,6,54.7,6z"/>
		<path class="st0" d="M79.9,4.6c0,0.2-0.1,0.4-0.3,0.7c-0.2,0.3-0.3,0.5-0.5,0.5c-1.1-0.2-2-0.3-2.8-0.3c-0.1,0-0.3,0-0.5,0
			c-0.2,0-0.4,0-0.5,0c-0.4,1.7-0.8,3.3-1.4,4.7c-1.6,4.1-2.9,6.1-3.8,6.1c-0.3,0-0.6-0.1-1-0.2c-0.5-0.2-0.7-0.4-0.7-0.6
			c0-0.1,0.3-0.5,1-1.2c1.1-1.1,2.1-2.5,3-4.1c0.9-1.6,1.5-3.2,1.8-4.6C72.6,5.7,71.2,6,70,6.4c-0.4-0.1-0.6-0.2-0.6-0.6
			s0.1-0.5,0.2-0.7c0.1-0.2,0.9-0.3,2.2-0.5c0.8-0.1,1.6-0.2,2.4-0.2c0.1-0.6,0.2-1.4,0.2-2.1c0-0.6,0.3-0.9,0.7-0.9
			C75.8,1.4,76,1.6,76,2c0,0.2-0.1,1-0.4,2.3c2.1-0.1,3.4-0.2,3.7-0.2S79.9,4.3,79.9,4.6z M86.3,14.2c0,0.4-0.1,0.8-0.4,1.4
			c-0.3,0.5-0.8,0.9-1.5,1.1c-0.4,0.1-1,0.1-1.9,0.1c-4.1,0-6.1-1-6.1-3c0-0.3,0.1-0.6,0.2-0.9c0.1-0.4,0.3-0.6,0.6-0.6
			c0.3,0,0.4,0.1,0.4,0.4c0,0.1,0,0.3-0.1,0.5c0,0.2-0.1,0.4-0.1,0.5c0,0.9,0.8,1.4,2.3,1.4c2.4,0,4.4-0.4,5.8-1.1
			c0.4-0.2,0.6-0.3,0.6-0.3C86.2,13.8,86.3,13.9,86.3,14.2z M84.1,7.9c-0.1,0.2-0.6,0.7-1.5,1.4c-0.9,0.7-1.6,1.1-1.9,1.2
			c-0.1,0-0.2-0.1-0.2-0.3c0-0.2,0.2-0.5,0.6-0.9c0.3-0.2,0.6-0.5,0.8-0.8c-0.1,0-0.3,0-0.6,0c-1.1,0-2,0.1-2.7,0.2
			C77.7,8.9,77.2,9,77.2,9c-0.3,0-0.5-0.1-0.5-0.4c0-0.3,0.1-0.5,0.3-0.7c0.4-0.4,1.9-0.6,4.6-0.6h0.9C83.5,7.3,84,7.5,84.1,7.9z"/>
		<path class="st0" d="M108.8,5.4c0,0.2-0.2,0.6-0.6,1.1c-0.4,0.5-0.7,0.7-1,0.7L106,6.8c-1.8-0.6-3.8-0.8-6-0.8c-0.1,0-0.2,0-0.3,0
			c-0.2,0-0.3,0-0.4,0c-0.4,1.7-0.9,3.2-1.6,4.3c1.4-0.7,2.9-1,4.7-1c1.2,0,2.2,0.2,3.1,0.7c1.1,0.5,1.7,1.3,1.7,2.4
			c0,1.7-1,3-3.1,3.8c-1.5,0.6-3.2,0.9-5.2,0.9c-0.6,0-1.1-0.2-1.5-0.5c-0.5-0.4-0.8-0.8-0.8-1.3c0-0.2,0.1-0.3,0.3-0.3
			c0.4,0,0.9,0.1,1.6,0.2c0.7,0.1,1.2,0.1,1.6,0.1c1.4,0,2.6-0.2,3.6-0.6c1.4-0.6,2.2-1.4,2.2-2.5c0-0.7-0.5-1.3-1.4-1.6
			c-0.7-0.2-1.4-0.3-2.3-0.3c-1,0-2,0.2-3,0.7c-0.6,0.3-1.4,0.7-2.2,1.2c-0.7,0.5-1.1,0.7-1.2,0.7c-0.2,0-0.3-0.1-0.5-0.3
			c-0.1-0.2-0.2-0.3-0.2-0.5c0-0.2,0.1-0.3,0.3-0.6c1.3-1.6,2.2-3.4,2.7-5.2c-1.8,0.2-3.4,0.5-4.7,1c-0.6,0.2-0.9,0.3-1,0.3
			c-0.4,0-0.6-0.2-0.6-0.5c0-0.4,0.1-0.7,0.3-0.9c0.2-0.3,0.5-0.4,0.9-0.5c0.8-0.1,2.6-0.4,5.4-0.6c0.1-0.9,0.2-1.7,0.2-2.4
			c0-0.6,0.2-0.9,0.6-0.9c0.5,0,0.8,0.4,0.8,1.1c0,0.5-0.1,1.2-0.3,2.2c2.1,0,3.9,0,5.5,0.1c1.9,0.1,2.7,0.2,2.5,0.2
			c1.3,0,1.6,0,0.8,0C108.6,5.1,108.8,5.2,108.8,5.4z"/>
		<path class="st0" d="M131.1,9.2c0,2.8-1.5,4.9-4.6,6.3c-1.2,0.6-2.2,0.9-2.9,0.9c-0.4,0-0.8-0.2-1.2-0.5c-0.4-0.3-0.7-0.7-0.7-1.1
			c0-0.1,0.2-0.3,0.6-0.3c0.3,0,0.7-0.1,1.2-0.2c1.4-0.2,2.6-0.6,3.5-1.1c0.8-0.5,1.5-1.1,2-1.8c0.6-0.8,0.8-1.7,0.8-2.6
			c0-0.7-0.2-1.5-0.7-2.2c-0.9-1.6-2.5-2.4-4.8-2.4c-0.1,0-0.2,0-0.4,0c-0.2,0-0.3,0-0.3,0c-0.9,4.1-2.1,7.2-3.6,9
			c-0.9,1.1-1.6,1.6-2.2,1.6c-0.8,0-1.5-0.6-2.1-1.9c-0.4-1-0.6-2-0.6-3c0-1.5,0.5-2.9,1.5-4.1c1.6-1.9,4-2.8,7.2-2.8
			c2,0,3.7,0.5,5.1,1.6C130.4,5.7,131.1,7.2,131.1,9.2z M122.1,4.3c-2.1,0.4-3.6,1.1-4.5,2.2c-0.9,1.1-1.4,2.2-1.4,3.2
			c0,0.6,0.1,1.2,0.4,2c0.3,0.9,0.7,1.3,1.2,1.3c0.4,0,0.9-0.3,1.4-1C120.4,10.4,121.4,7.8,122.1,4.3z"/>
		<path class="st0" d="M144.7,5.1h0.2c0.3-1.3,0.5-2.4,0.6-3.5c0-0.5,0.3-0.7,0.6-0.7c0.5,0,0.8,0.3,0.9,0.8c0,0.1-0.1,0.4-0.2,0.9
			c-0.2,0.9-0.4,1.8-0.6,2.5h5.9c0.1,0,0.4-0.1,0.9-0.2c0.6,0,0.9,0.3,0.9,0.9c-0.5,1.9-0.8,3.8-0.9,5.7c-0.2,2.6-0.8,4.3-1.8,5.2
			c-0.8,0.8-1.8,1.1-3,1.1c-0.4,0-0.7-0.2-1-0.5c-0.2-0.3-0.2-0.6-0.2-0.8c0-0.3,0.1-0.4,0.4-0.5c1.6-0.1,2.6-0.5,3.1-1
			c0.6-0.6,1-2.3,1.4-5.2c0.2-1.8,0.3-2.9,0.3-3.3c0-0.2-0.1-0.4-0.3-0.4h-6c-0.4,1.5-0.8,2.6-1.2,3.6c-0.6,1.5-1.5,3-2.6,4.3
			c-0.9,1.1-2.1,2.1-3.6,2.9c-0.6,0.3-1.1,0.5-1.5,0.5c-0.3,0-0.5-0.2-0.8-0.5c-0.3-0.4-0.4-0.7-0.5-1c0-0.2,0.1-0.3,0.3-0.4
			c1.5-0.3,2.7-0.8,3.5-1.4c1.1-0.8,2.2-1.9,3.2-3.5c0.8-1.3,1.4-2.8,1.9-4.5c-1.1,0-2.1,0.1-3.2,0.2c-0.8,0.1-1.3,0.2-1.5,0.2
			c-0.4,0-0.6-0.2-0.6-0.5c0-0.5,0.2-0.9,0.7-0.9C140.7,5.1,142.3,5.1,144.7,5.1z"/>
		<path class="st0" d="M175.5,13.9c0,0.6-0.2,1.1-0.5,1.5c-0.3,0.4-0.8,0.7-1.3,0.8c-0.9,0.2-2.6,0.3-5.2,0.3c-4.7,0-7-1-7-3.1
			c0-1,0.4-1.9,1.3-2.8c0.2-0.2,1-0.9,2.4-2.1c-0.2-1-0.2-1.8-0.2-2.6V3.6c0-1.5,0.3-2.3,0.8-2.3c0.6,0,0.9,0.3,0.9,0.9
			c0,0.1,0,0.3-0.1,0.5c-0.1,0.3-0.1,0.5-0.1,0.6c-0.1,0.7-0.1,1.6-0.1,2.7c0,0.5,0,1.1,0.1,1.5c2.3-1.7,3.7-2.6,4.2-2.6
			c0.3,0,0.5,0.1,0.6,0.3c0.1,0.2,0.2,0.3,0.4,0.5c0,0.4-0.3,0.7-0.8,1c-1,0.5-2.1,1.1-3.1,1.6c-1.5,0.8-2.7,1.6-3.5,2.3
			c-1.1,0.9-1.7,1.8-1.7,2.7c0,1.1,1,1.7,3.1,1.7c1.3,0,2.9-0.1,4.7-0.3c1.5-0.2,2.8-0.5,3.9-0.8c0.4-0.2,0.8-0.2,1-0.2
			C175.4,13.6,175.5,13.7,175.5,13.9z"/>
		<path class="st0" d="M192,7.5c0,0.9-0.4,2.2-1.1,3.7c-0.7,1.4-1.7,2.7-3.2,3.8c-1.5,1.2-2.6,1.8-3.4,1.8c-0.3,0-0.7-0.2-1.2-0.7
			c-0.5-0.4-0.8-0.8-0.8-1.1c0-0.1,0.3-0.2,0.8-0.3c0.8-0.1,1.7-0.5,2.8-1c1.2-0.6,2.3-1.4,3.1-2.5c1-1.2,1.5-2.4,1.6-3.7
			c0-0.8,0.2-1.2,0.6-1.2C191.7,6.5,192,6.8,192,7.5z M199.3,4c0,0.6-0.6,1.5-1.9,2.7c-1.3,1.3-2.3,2-2.9,2.2
			c-0.3,0-0.4-0.1-0.4-0.4l1.4-1.6c0.9-1.1,1.3-1.8,1.3-2.2c-0.3-0.1-1.4-0.2-3.3-0.2c-2.2,0-4.3,0.2-6.3,0.6
			c-1.4,0.2-2.1,0.4-2.1,0.4c-0.4,0-0.7-0.3-0.7-0.8c0-0.4,0.1-0.7,0.4-1c0.3-0.3,2-0.4,5.2-0.4h2.6c1.7,0,3.3,0.1,4.8,0.2
			c0.1-0.1,0.4-0.1,0.9-0.1c0.2,0,0.4,0.1,0.6,0.2C199.2,3.6,199.3,3.8,199.3,4z"/>
		<path class="st0" d="M219.7,2.5c0,0.5-0.7,1.4-2,2.6c-1.1,1-2,1.7-2.8,2.2c0,1.8,0,3.6,0,5.2c0,0.3,0,0.9,0.1,1.8
			c0.1,0.8,0.1,1.4,0.1,1.8c0,0.8-0.2,1.3-0.6,1.3c-0.7,0-1-0.4-1-1.3c0-3.7,0-6.4,0.1-8c-3,1.5-5.3,2.2-6.9,2.2
			c-0.4,0-0.9-0.2-1.3-0.6c-0.4-0.4-0.6-0.9-0.6-1.3c0-0.2,0.3-0.3,0.8-0.4c0.3,0,0.7,0,1.2,0c2.8-0.2,5.2-0.8,7.2-2
			c1.9-1.1,3.2-2.2,4-3.3c0.4-0.6,0.8-0.9,1.2-0.9C219.5,1.8,219.7,2,219.7,2.5z"/>
		<path class="st0" d="M243.7,7c0,0.4-0.3,0.9-0.7,1.4c-0.4,0.5-0.8,0.8-1.2,0.8c-0.1,0-0.4-0.2-1-0.5c-1.2-0.6-3-0.9-5.4-1
			c0,0.2,0,0.4,0,0.7c0,0.3,0,0.6,0,0.7c0,1.1-0.2,2.2-0.7,3.4c-0.4,1.2-1,2.1-1.8,2.8c-1,1.1-1.9,1.6-2.5,1.6
			c-0.3,0-0.6-0.1-1.1-0.4c-0.5-0.3-0.7-0.6-0.7-0.8c0-0.2,0.1-0.3,0.4-0.3c0.6-0.2,1.2-0.5,2-1c0.9-0.6,1.6-1.3,2.2-2.3
			c0.6-1,0.9-2,0.9-3c0-0.2,0-0.4-0.1-0.7c0-0.3,0-0.6,0-0.7c-2.8,0.1-5,0.4-6.4,0.9c-0.9,0.3-1.4,0.5-1.3,0.5
			c-0.4,0-0.6-0.2-0.6-0.7c0-0.4,0.1-0.8,0.4-1c0.7-0.5,3.6-0.8,8.8-0.8c0.8,0,2.1,0,3.8,0.1s3,0.1,3.8,0.1c0.4,0,0.7,0,0.9-0.1
			C243.5,6.8,243.6,6.9,243.7,7z M239.9,2.9c0,0.2-0.1,0.5-0.3,0.6c-0.2,0.2-0.5,0.3-0.7,0.3c-0.4,0-1,0-1.8-0.1
			c-0.8-0.1-1.4-0.1-1.8-0.1c-1.4,0-2.6,0-3.6,0.1c-1.8,0.1-2.6,0.2-2.4,0.2c-0.3,0-0.4-0.1-0.4-0.3c0-0.3,0.1-0.6,0.3-0.9
			c0.2-0.3,0.5-0.4,0.7-0.4c-0.1,0,0,0,0.4,0c0.1,0,0.2,0,0.4,0c0.8,0,2,0,3.5,0c1.6,0,2.8,0,3.6,0C239.2,2.4,239.9,2.6,239.9,2.9z
			 M243.4,2.8c0,0.2-0.2,0.4-0.5,0.6c-0.3,0.2-0.6,0.4-0.7,0.4c-0.3,0-0.6-0.4-1.1-1.2c-0.5-0.8-0.7-1.4-0.7-1.7
			c0-0.2,0-0.3,0.1-0.3c0.1,0,0.3,0.1,0.4,0.2c0.8,0.8,1.5,1.4,2,1.6C243.2,2.5,243.4,2.6,243.4,2.8z M246.4,1.7
			c0,0.1-0.2,0.3-0.5,0.6c-0.3,0.3-0.5,0.4-0.7,0.4c-0.4-0.1-0.8-0.5-1.3-1.1c-0.5-0.7-0.8-1.2-0.8-1.5c0-0.1,0-0.2,0.1-0.2
			c0,0,0.4,0.2,1.1,0.7c0.7,0.5,1.3,0.7,1.6,0.8C246.2,1.5,246.4,1.6,246.4,1.7z"/>
		<path class="st0" d="M258,7.5c0,0.9-0.4,2.2-1.1,3.7c-0.7,1.4-1.7,2.7-3.2,3.8c-1.5,1.2-2.6,1.8-3.4,1.8c-0.3,0-0.7-0.2-1.2-0.7
			c-0.5-0.4-0.8-0.8-0.8-1.1c0-0.1,0.3-0.2,0.8-0.3c0.8-0.1,1.7-0.5,2.8-1c1.2-0.6,2.3-1.4,3.1-2.5c1-1.2,1.5-2.4,1.6-3.7
			c0-0.8,0.2-1.2,0.6-1.2C257.8,6.5,258,6.8,258,7.5z M265.3,4c0,0.6-0.6,1.5-1.9,2.7c-1.3,1.3-2.3,2-2.9,2.2
			c-0.3,0-0.4-0.1-0.4-0.4l1.4-1.6c0.9-1.1,1.3-1.8,1.3-2.2c-0.3-0.1-1.4-0.2-3.3-0.2c-2.2,0-4.3,0.2-6.3,0.6
			c-1.4,0.2-2.1,0.4-2.1,0.4c-0.4,0-0.7-0.3-0.7-0.8c0-0.4,0.1-0.7,0.4-1c0.3-0.3,2-0.4,5.2-0.4h2.6c1.7,0,3.3,0.1,4.8,0.2
			c0.1-0.1,0.4-0.1,0.9-0.1c0.2,0,0.4,0.1,0.6,0.2C265.2,3.6,265.3,3.8,265.3,4z"/>
		<path class="st0" d="M287.8,6.8c0,0.3-0.3,0.6-0.9,1c-1.4,0.9-3.4,2-6,3.4c0,0.1,0,0.4,0,0.8c0,0.3,0,0.6,0,0.8
			c0,0.5-0.3,0.7-0.8,0.7c-0.3,0-0.5-0.2-0.6-0.6c0-0.1,0-0.4,0-1c-1,0.5-1.6,0.8-1.9,1.1c-0.8,0.6-1.2,1.1-1.2,1.7
			c0,0.4,0.4,0.6,1.2,0.8c0.6,0.1,1.2,0.2,1.8,0.2c1.7,0,3.3-0.3,4.7-0.8c1.1-0.4,1.6-0.6,1.7-0.6c0.1,0,0.2,0.1,0.2,0.4
			c0,0.5-0.2,1-0.5,1.5c-0.2,0.4-0.9,0.6-1.9,0.8c-0.8,0.1-1.7,0.1-2.7,0.1c-1.3,0-2.4-0.1-3.4-0.4c-1.5-0.4-2.2-1.1-2.2-2
			c0-0.8,0.6-1.6,1.7-2.4c0.2-0.2,1.1-0.7,2.6-1.7c0-0.9-0.1-1.4-0.1-1.6C279.1,8.3,278.7,8,278,8c-0.9,0-1.6,0.2-2.2,0.5
			c-0.3,0.1-0.9,0.6-1.9,1.4c-0.1,0.1-0.3,0.2-0.5,0.3c-0.4,0-0.7-0.3-0.7-0.9c0-0.4,0.5-0.9,1.4-1.4c1.3-0.8,2.5-1.8,3.5-3.2
			c-0.5,0.1-1.3,0.2-2.3,0.3c0,0-0.3,0.1-0.9,0.2c-0.4,0.1-0.7,0.2-0.9,0.2c-0.4,0-0.6-0.2-0.6-0.7c0-0.6,0.5-0.9,1.4-1
			c0.9,0,2.2-0.1,3.9-0.1c0.2-0.3,0.5-0.9,0.9-1.9c0.2-0.5,0.5-0.7,0.9-0.7c0.5,0,0.8,0.2,0.8,0.7c0,0.2-0.3,0.8-1,1.9
			c0.5,0,1.2,0,2.3,0c1,0,1.8,0,2.3,0c0.1,0,0.3,0,0.6,0c0.2,0,0.4-0.1,0.6-0.1c0.1,0,0.2,0.1,0.3,0.2c0,0.3-0.2,0.6-0.5,1
			c-0.3,0.4-0.6,0.6-0.9,0.6c-0.3,0-0.6-0.1-0.9-0.2c-0.3-0.1-0.6-0.1-0.9-0.2c-0.7-0.2-1.8-0.3-3.3-0.3c-0.8,1-1.5,1.9-2.2,2.6
			c0.6-0.1,1.1-0.1,1.6-0.1c1.3,0,2.1,0.8,2.2,2.3c0,0.2,0,0.3,0.1,0.4c2.1-1.3,3.9-2.4,5.2-3.3c0.4-0.3,0.8-0.4,1.1-0.4
			C287.5,6.1,287.8,6.3,287.8,6.8z"/>
		<path class="st0" d="M302,16.8c0,0.3-0.3,0.6-0.9,1c-0.6,0.4-1,0.6-1.3,0.6c-0.3,0-0.6-0.3-1-0.8c-0.8-1.2-1.7-2.3-2.4-3.1
			c-0.7-0.8-1-1.3-1-1.5c0-0.3,0.2-0.4,0.5-0.4c0.2,0,1.5,0.9,3.8,2.8c0.5,0.4,1.2,0.8,2.1,1.2C301.8,16.5,301.9,16.6,302,16.8z"/>
		<path class="st0" d="M57.3,31c0.3,0,0.5,0.1,0.5,0.4c0.3,0,0.6,0.3,1.2,0.7c3.5,2.4,5.7,3.7,6.6,4c0.6,0.1,1.2,0.3,2,0.3
			c0.3,0,0.5,0.1,0.5,0.4c0,0.4-0.3,0.7-0.8,1.1c-0.5,0.4-1.1,0.6-1.7,0.6c-0.4,0-0.8-0.2-1.1-0.5c-1.4-1.4-3-2.7-4.8-4.1
			c-0.8-0.6-1.5-1-2.1-1.2c-0.1,0-0.2-0.1-0.2-0.1c-1.2,1.3-2.6,2.4-4,3.4c-1.2,0.8-2.6,1.5-4.2,2C48.7,38,48.5,38,48.3,38
			c-0.4,0-0.8-0.2-1.2-0.7c-0.4-0.3-0.6-0.6-0.6-0.9c0-0.2,0.3-0.3,0.7-0.4c1.1-0.1,2-0.2,2.5-0.4c1.3-0.3,2.6-0.8,3.9-1.6
			c1.2-0.8,2.3-1.7,3.1-2.8C56.9,31.1,57.1,31,57.3,31z M56.7,40.3c1.1,0,2.5,0.1,4.2,0.2c0.4-0.1,0.6-0.2,0.8-0.2
			c0.4,0,0.7,0.2,0.7,0.6c0,0.2-0.1,0.5-0.4,0.8c-0.4,0.4-0.9,1.1-1.4,2.2c-0.8,1.3-1.2,2.2-1.4,2.8c-0.2,0.7-0.6,1-1.2,1
			c-0.3,0-0.5-0.2-0.5-0.5c0.6-1.5,1.5-3.3,2.8-5.4c0-0.2-0.1-0.3-0.2-0.3c-0.3,0-1,0-1.9,0c-1.2,0-2.4,0-3.6,0.1
			c-0.8,0-1.6,0.2-2.4,0.3c-0.4,0-0.7-0.2-0.7-0.5c0-0.2,0.1-0.5,0.3-0.7c0.2-0.2,0.6-0.3,1-0.4C54,40.3,55.4,40.3,56.7,40.3z
			 M54.6,36.8h6.2c0.2,0,0.4,0.1,0.4,0.3c0,0.3-0.1,0.6-0.3,0.8c-0.2,0.2-0.5,0.3-0.8,0.3c-0.1,0-0.5-0.1-1-0.2
			c-0.6,0-1.2-0.1-1.8-0.1c-1.2,0-2,0.1-2.5,0.2c-0.3,0.1-0.5,0.2-0.6,0.2c-0.5,0-0.7-0.3-0.8-0.7c0-0.2,0.2-0.4,0.4-0.6
			C54,36.9,54.3,36.8,54.6,36.8z"/>
		<path class="st0" d="M87,43.7c-0.2,1.3-0.8,2.1-1.8,2.4c-0.4,0.1-1.4,0.2-3.2,0.2c-2,0-3.8-0.2-5.2-0.6c-2.3-0.6-3.4-1.7-3.4-3.2
			c0-0.5,0.1-0.9,0.4-1.4c0.3-0.6,0.6-0.9,1.1-0.9c0.1,0,0.2,0.1,0.2,0.3c0,0.1-0.2,0.4-0.4,0.9c-0.2,0.4-0.3,0.7-0.3,1
			c0,1.3,1.5,2,4.6,2c2.4,0,4.3-0.2,5.8-0.6c1.4-0.3,2-0.5,2-0.5C86.9,43.4,87,43.5,87,43.7z M83.9,34.9c0,0.2-0.3,0.5-0.9,0.8
			c-2.5,1.2-3.9,1.8-4.1,1.8s-0.3-0.1-0.3-0.3c0-0.3,0.4-0.6,1.2-1.1c0.8-0.5,1.2-0.8,1.3-0.9c-0.1-0.1-0.4-0.1-0.8-0.1
			c-1.5,0-2.6,0.1-3.4,0.2c-1.1,0.1-1.6,0.2-1.6,0.2c-0.5,0-0.7-0.2-0.7-0.5c0-0.7,0.5-1.1,1.4-1.2c0.2,0,1-0.1,2.1-0.1h1.5
			C82.5,33.6,83.9,34.1,83.9,34.9z"/>
		<path class="st0" d="M110.3,38.2c0,0.4-0.2,0.6-0.7,0.6c-0.4,0-1.1,0-2-0.1c-0.9,0-1.5-0.1-2-0.1c-0.7,0-1.2,0-1.6,0.1
			c-0.8,0.2-1.6,0.7-2.4,1.4c-0.8,0.8-1.2,1.6-1.2,2.4c0,1,0.4,1.7,1.2,2.2c0.7,0.4,1.5,0.6,2.6,0.6c0.9,0,1.5-0.1,1.9-0.2
			c0.5-0.1,0.8-0.2,0.8-0.2c0.2,0,0.3,0.2,0.3,0.5c0,0.4-0.2,0.8-0.7,1.3c-0.5,0.5-1,0.8-1.8,0.8c-1,0-2-0.2-3.1-0.7
			c-1.7-0.7-2.6-2-2.6-3.9c0-0.8,0.3-1.6,1-2.4c0.6-0.8,1.2-1.3,2-1.6c-3.3,0.3-6.1,0.9-8.3,1.8c-0.5,0-0.8-0.2-0.8-0.6
			c0-0.3,0.1-0.6,0.3-0.8c0.2-0.2,0.6-0.4,1.1-0.5c1.9-0.5,3.6-1.2,5.1-2c1.4-0.8,2.8-2,4.2-3.5c-1.2,0.2-2.7,0.3-4.3,0.5
			c-1.3,0.1-2,0.2-2.3,0.2c-0.5,0-0.8-0.2-0.8-0.6c0-0.3,0.1-0.5,0.3-0.7c0.2-0.2,0.4-0.3,0.7-0.3c0.2,0,0.4,0,0.7,0
			c0.3,0,0.6,0.1,0.7,0.1c0.4,0,0.8,0,1.3-0.1c0.7-0.1,1.2-0.1,1.4-0.1l1.9-0.1c0.2,0,0.6-0.1,1.1-0.1c0.4-0.1,0.8-0.1,1.1-0.1
			c0.4,0,0.6,0.3,0.8,0.9c-0.1,0.4-1.3,1.4-3.6,2.9c-1.8,1.2-3.2,2.1-4.3,2.7c1.6-0.4,3.8-0.6,6.4-0.9c2.3-0.2,3.5-0.4,3.7-0.4
			c0.4,0,0.8,0.1,1.1,0.4C110.1,37.6,110.3,37.9,110.3,38.2z"/>
		<path class="st0" d="M121.8,32.4c0.4,0,0.6,0.2,0.6,0.5c0,0.2-0.1,0.4-0.2,0.6c-0.3,0.6-0.6,1.2-1,1.7h3.9l0-3
			c0-0.6,0.3-0.8,0.8-0.8c0.6,0,0.9,0.3,0.9,0.8l0,3h5.6c0.2,0,0.4,0.1,0.4,0.3c0,0.3-0.1,0.6-0.3,0.8c-0.2,0.2-0.5,0.3-0.8,0.3
			c-0.3,0-0.9-0.1-2-0.2c-0.9,0-1.8-0.1-2.8-0.1l0,3.5h4.8c0.2,0,0.4,0.1,0.4,0.3c0,0.3-0.1,0.6-0.3,0.8c-0.2,0.2-0.5,0.3-0.8,0.3
			c-0.3,0-0.9-0.1-1.8-0.2c-0.7,0-1.4-0.1-2.2-0.1l-0.1,3.8c1.3,0,2.8,0.2,4.3,0.4c1.5,0.2,2.9,0.3,4.2,0.3c0.4,0,0.8,0,1.1-0.1
			c0.1,0,0.1,0.1,0.1,0.3c0,0.4-0.1,0.9-0.3,1.3c-0.3,0.5-0.5,0.7-0.8,0.7c-0.4,0-0.8-0.1-1.2-0.3c-1.6-0.6-3.1-1-4.4-1.2
			c-1.1-0.1-2.3-0.2-3.9-0.2c-1.8,0-3.3,0.1-4.6,0.3c-1.4,0.3-2.8,0.7-4.1,1.2c-0.4,0.2-0.7,0.2-1,0.2c-0.5,0-0.7-0.3-0.7-0.8
			c0-0.3,0.1-0.5,0.4-0.7c0.2-0.2,0.5-0.3,0.8-0.4c4-0.6,6.9-1,8.7-1l-0.1-3.8c-1.6,0-2.8,0.1-3.6,0.3c-0.5,0.1-0.8,0.2-0.9,0.2
			c-0.5,0-0.8-0.3-0.8-0.8c0-0.2,0.2-0.4,0.4-0.6c0.2-0.1,0.5-0.2,0.9-0.2h4.1l0-3.5c-1.6,0-2.8,0.1-3.6,0.2c-0.5,0.1-0.9,0.2-1,0.2
			c-0.2,0-0.3,0-0.4-0.1c-0.3,0.4-0.6,0.7-0.8,1.1c-0.4,0.5-0.8,0.7-1.1,0.7c-0.3,0-0.7-0.1-1.1-0.4c-0.4-0.3-0.5-0.6-0.5-0.9
			c0-0.2,0.2-0.4,0.5-0.4c0.8-0.3,1.6-0.8,2.3-1.4c0.8-0.7,1.4-1.6,2.1-2.8C121.6,32.4,121.7,32.4,121.8,32.4z"/>
		<path class="st0" d="M141.3,32.6c0.6,0,0.9,0.2,0.9,0.7c0,0.6-0.1,1.2-0.2,2.1c0,0.2,0.1,0.3,0.4,0.3c0.6,0,1.4-0.1,2.2-0.1
			c0-1.1,0-2.4-0.1-3.7c0-0.6,0.2-0.9,0.7-0.9c0.5,0,0.7,0.3,0.7,0.9c0,1.4-0.1,2.6-0.1,3.8c0.5,0,1.1,0,1.9,0.1
			c0.2,0,0.3,0.1,0.3,0.4c0,0.3-0.1,0.5-0.3,0.6c-0.2,0.1-0.4,0.1-0.6,0.1c-0.5,0-0.9-0.1-1.2-0.1l0,3.3c0.7-0.2,1.3-0.3,1.8-0.4
			c0.3,0,0.4,0.1,0.4,0.4c0,0.4-0.2,0.6-0.5,0.6c-0.6,0.2-1.1,0.4-1.7,0.6l0,5.1c0,1-0.3,1.5-0.8,1.5c-0.4,0-0.6-0.5-0.6-1.5
			c0-1.7,0-3.2,0-4.6c-1.3,0.5-2.5,1.1-3.6,1.7c-0.5,0-0.7-0.2-0.7-0.6c0-0.4,0.1-0.6,0.2-0.8c0.1-0.2,0.3-0.4,0.6-0.5
			c1.4-0.4,2.6-0.8,3.6-1.1c0-1.4,0-2.6,0-3.7c-0.8,0-1.5,0.1-2.3,0.2c-0.5,0-0.9,0.1-1.2,0.3c-0.2,0.1-0.3,0.1-0.3,0.1
			c-0.4,0-0.6-0.2-0.6-0.5c0-0.1,0.1-0.4,0.4-0.7c0.1-0.4,0.2-0.8,0.2-1.2c0-0.2,0-0.5,0-0.9c-0.1-0.4-0.1-0.7-0.1-0.8
			C140.7,32.8,140.9,32.6,141.3,32.6z M152.9,31.3c0.4,0,0.6,0.2,0.6,0.5c0,0.2-0.1,0.4-0.2,0.6c-0.3,0.6-0.6,1.2-0.9,1.8
			c0.6,0,1.4,0,2.5,0h4.6c0.1,0,0.4-0.1,0.8-0.2c0.6,0,0.8,0.3,0.8,0.8c-0.4,2.1-0.6,4.1-0.7,6.2c-0.2,2.8-0.6,4.7-1.4,5.6
			c-0.6,0.8-1.4,1.2-2.3,1.2c-0.4,0-0.8-0.2-1-0.5c-0.2-0.3-0.3-0.6-0.3-0.9c0-0.3,0.1-0.4,0.4-0.5c1.3-0.1,2.1-0.5,2.4-1.1
			c0.4-0.6,0.8-2.5,1.1-5.6c0.1-1.9,0.2-3.1,0.2-3.5c0-0.2-0.1-0.4-0.3-0.4h-1.6c0,0,0,0.1,0,0.1l0,0.2c-0.1,0.5-0.3,1.4-0.6,2.5
			c-0.5,1.9-1.2,3.6-2.1,5.1c-0.5,1-1.1,1.8-1.8,2.5c-0.9,0.8-1.5,1.2-1.8,1.2c-0.3,0-0.6-0.2-1-0.6c-0.3-0.3-0.5-0.6-0.5-0.8
			c0-0.2,0.2-0.3,0.6-0.4c0.7-0.2,1.5-0.7,2.2-1.5c0.8-0.7,1.7-2,2.5-3.8c0.6-1.4,1-2.9,1.1-4.4c0,0,0-0.1,0-0.1h-0.5
			c-0.4,0-0.8,0-1.2,0l0,0.1c-0.1,0.4-0.3,0.9-0.5,1.7c-0.4,1.3-1,2.4-1.7,3.5c-0.4,0.7-0.9,1.2-1.5,1.7c-0.7,0.5-1.2,0.8-1.5,0.8
			c-0.3,0-0.6-0.2-0.9-0.5c-0.3-0.3-0.4-0.6-0.4-0.8c0-0.2,0.2-0.3,0.6-0.4c0.6-0.1,1.2-0.4,1.8-1c0.7-0.4,1.3-1.2,2-2.4
			c0.4-0.9,0.8-1.7,0.9-2.6c-0.2,0-0.4,0-0.6,0.1c-0.6,0.1-0.9,0.2-1.1,0.2c-0.1,0-0.2,0-0.2,0c-0.1,0.2-0.3,0.4-0.4,0.6
			c-0.3,0.4-0.6,0.7-0.8,0.7c-0.3,0-0.6-0.1-1-0.4c-0.3-0.3-0.5-0.5-0.5-0.8c0-0.2,0.2-0.2,0.5-0.3c0.7-0.3,1.3-0.7,1.8-1.3
			c0.6-0.6,1.1-1.4,1.7-2.5C152.7,31.3,152.8,31.3,152.9,31.3z"/>
		<path class="st0" d="M180.3,36.8c0.4,0,0.6,0.2,0.6,0.6c0,0.2-0.1,0.3-0.3,0.5c0,0-0.1,0.1-0.1,0.1c0.8,0.6,1.5,1.2,2.3,1.8
			c0.2,0,0.5,0.1,0.6,0.3c0.2,0.2,0.4,0.4,0.4,0.7c0,0.3-0.4,0.6-1.1,1c-3.7,2.4-7.2,4.2-10.5,5.3c-1.3,0.5-2.8,0.8-4.4,0.8
			c-0.4,0-0.7-0.1-1-0.4c-0.6-0.6-0.8-1.1-0.8-1.7c0-0.4,0.1-0.6,0.4-0.6c0.2,0,0.4,0.1,0.6,0.2c0.4,0.2,0.8,0.2,1.4,0.2
			c1.8,0,3.4-0.2,4.7-0.5c1-0.3,2-0.6,3.1-1.1c-0.6-0.6-1-1-1.3-1.1c-0.3-0.1-0.4-0.3-0.4-0.5c0-0.5,0.3-0.8,0.8-0.8
			c0,0,0.4,0.3,0.9,0.8c0.5,0.5,0.8,0.9,0.8,1.1c0.9-0.4,1.8-0.8,2.7-1.3c1.5-0.8,2.3-1.3,2.3-1.5c0-0.1-0.1-0.3-0.4-0.5
			c-0.7-0.4-1.3-0.8-1.9-1.2c-0.1-0.1-0.3-0.2-0.3-0.4c-2.2,1.3-4.1,2.3-5.9,3c-1.5,0.6-2.6,0.9-3.3,0.9c-0.4,0-0.7-0.1-1-0.4
			c-0.3-0.2-0.4-0.5-0.4-0.8c0-0.2,0.1-0.3,0.3-0.4c2.7-0.5,4.7-1,6.1-1.6c1.3-0.4,2.8-1.2,4.7-2.4C180,36.9,180.2,36.8,180.3,36.8z
			 M178.2,30.8c0.4,0,0.5,0.2,0.6,0.6c0,0.1,0,0.2-0.1,0.3c0.6,0.5,1.2,1,1.8,1.6c0.2,0,0.4,0.1,0.5,0.3c0.2,0.2,0.3,0.4,0.3,0.6
			c0,0.2-0.3,0.5-0.9,0.7c-2.8,1.8-5.4,3.1-7.9,3.9c-1,0.4-2.1,0.6-3.3,0.6c-0.2,0-0.5-0.1-0.7-0.4c-0.4-0.5-0.6-1-0.6-1.4
			c0-0.3,0.1-0.5,0.3-0.5c0.2,0,0.3,0.1,0.5,0.2c0.3,0.1,0.8,0.2,1.3,0.2c1.3,0,2.3-0.1,3.2-0.4c0.4-0.1,0.8-0.2,1.1-0.4
			c-0.5-0.5-0.9-0.8-1.2-1c-0.3-0.1-0.4-0.3-0.4-0.5c0-0.5,0.3-0.8,0.8-0.8c0.1,0,0.4,0.3,0.9,0.8c0.5,0.5,0.7,0.8,0.8,1.1
			c0.8-0.3,1.7-0.7,2.5-1.2c1-0.5,1.5-0.9,1.5-1.1c0-0.1-0.1-0.3-0.3-0.4c-0.4-0.4-0.9-0.8-1.3-1.1c-0.1-0.1-0.2-0.2-0.2-0.3
			c-1.8,0.9-3.4,1.5-4.9,2c-1.2,0.4-2.1,0.6-2.7,0.6c-0.4,0-0.7-0.1-0.9-0.4c-0.3-0.2-0.4-0.5-0.4-0.8c0-0.2,0.1-0.3,0.3-0.4
			c2.2-0.3,3.9-0.6,5-1c1-0.3,2.3-0.8,3.8-1.5C177.8,30.9,178,30.8,178.2,30.8z"/>
		<path class="st0" d="M191.2,34.4h2.8c0-0.8-0.1-1.7-0.1-2.5c0-0.6,0.2-0.9,0.7-0.9c0.5,0,0.8,0.3,0.8,0.9c0,0.9-0.1,1.7-0.1,2.5
			h2.6c0.2,0,0.3,0.1,0.3,0.3c0,0.3-0.1,0.5-0.3,0.7c-0.2,0.2-0.5,0.3-0.8,0.3c-0.2,0-0.5,0-1.1-0.1c-0.2,0-0.5,0-0.7,0
			c0,0.3,0,0.7,0,1l0,1.2c0,0,0.1,0,0.2,0c0,0,0.4,0.3,1,0.8c0.6,0.5,0.9,0.9,0.9,1.1c0,0.4-0.2,0.6-0.7,0.6c0,0-0.1,0-0.3-0.1
			c-0.5-0.4-0.9-0.8-1.2-0.9l0.1,7.5c0,1-0.3,1.5-0.9,1.5c-0.4,0-0.6-0.5-0.6-1.5c0-2.8,0-5.1,0-7.1c-0.4,0.5-0.7,1-1.1,1.4
			c-0.5,0.6-1,1-1.7,1.4c-0.1,0.1-0.2,0.1-0.3,0.1c-0.4,0-0.7-0.2-1.1-0.6c-0.3-0.3-0.5-0.6-0.5-0.9c0-0.2,0.2-0.3,0.6-0.3
			c0.4-0.1,0.8-0.1,1-0.2c0.5-0.2,1-0.5,1.5-0.9c0.5-0.5,0.9-1,1.2-1.6c0.1-0.1,0.2-0.2,0.3-0.2c0-0.4,0-0.7,0-1c0-0.3,0-0.7,0-1
			c-1.2,0-2.1,0.1-2.7,0.2c-0.3,0.1-0.5,0.2-0.6,0.2c-0.4,0-0.7-0.2-0.7-0.6c0-0.2,0.1-0.4,0.4-0.6
			C190.5,34.4,190.8,34.4,191.2,34.4z M201.7,31c0.4,0.1,0.6,0.3,0.7,0.6c0.2,0.9,0.3,1.5,0.3,1.7c0,0,0,0.1,0,0.1h3.4
			c0-0.1,0.2-0.8,0.6-2c0.1-0.3,0.3-0.4,0.7-0.4c0.5,0,0.8,0.3,0.8,0.7c0,0.1-0.1,0.3-0.2,0.4c-0.4,0.5-0.7,0.9-1,1.2
			c0,0-0.1,0.1-0.1,0.1h2.6c0.2,0,0.3,0.1,0.4,0.3c0,0.3-0.1,0.6-0.3,0.8c-0.2,0.2-0.5,0.3-0.9,0.3c-0.2,0-0.8-0.1-1.6-0.2
			c-0.7,0-1.4-0.1-2.1-0.1c0,0.1,0,0.2,0,0.4c0,0.4,0,0.8,0,1.1h3.4c0.2,0,0.3,0.1,0.3,0.2c0,0.3-0.1,0.5-0.3,0.7
			c-0.2,0.2-0.5,0.3-0.8,0.3c-0.2,0-0.6,0-1.3-0.1c-0.4,0-0.9,0-1.4,0c0,0.5,0,1,0,1.5c0.9,0,2.1,0.1,3.6,0.1c0.3,0,0.6,0,0.9,0
			c0.2,0,0.5,0,1-0.1c0.4-0.1,0.6-0.2,0.7-0.2c0.2,0,0.3,0.1,0.3,0.2c0,0.4-0.2,0.8-0.6,1.3c-0.4,0.5-0.7,0.7-1.1,0.7
			c-0.2,0-0.6-0.1-1.2-0.3c-1-0.3-2.2-0.5-3.6-0.6l0.1,6.6c0,1-0.3,1.5-0.8,1.5c-0.4,0-0.6-0.5-0.6-1.5c0-2.7,0-4.9,0-6.6
			c-1.9,0-3.2,0.1-4,0.4c-0.4,0.1-0.7,0.2-1,0.2c-0.4,0-0.6-0.2-0.6-0.6c0-0.2,0.1-0.5,0.3-0.7c0.2-0.2,0.4-0.3,0.6-0.3
			c0.2,0,0.3,0,0.5,0.1c1.6-0.2,3-0.3,4.2-0.3c0-0.5,0-1,0-1.5c-1.1,0-1.9,0.1-2.4,0.1c-0.4,0.1-0.6,0.1-0.7,0.1
			c-0.4,0-0.6-0.2-0.7-0.6c0-0.2,0.1-0.4,0.4-0.6c0.2-0.1,0.4-0.2,0.8-0.2h2.6c0-0.4,0-0.7,0-1.1c0-0.1,0-0.3,0-0.4
			c-1.4,0-2.4,0.1-3,0.2c-0.4,0.1-0.7,0.2-0.9,0.2c-0.4,0-0.7-0.2-0.7-0.6c0-0.2,0.1-0.5,0.4-0.6c0.2-0.1,0.5-0.2,0.8-0.2h1.7
			c0,0-0.1-0.1-0.1-0.1c-0.2-0.4-0.4-0.7-0.6-1.1c-0.1-0.2-0.1-0.4-0.1-0.6C200.9,31.2,201.2,31,201.7,31z M201.9,44.5
			c0.3,0,0.4,0.1,0.4,0.4c0,0.2-0.1,0.4-0.2,0.6c-1.7,1.2-2.6,1.9-2.9,1.9c-0.6,0-0.9-0.2-0.9-0.6c0-0.5,0.1-0.8,0.4-0.9
			C198.6,45.7,199.7,45.3,201.9,44.5z M199.8,41.2c0.1,0,0.5,0.2,1.4,0.7c0.8,0.5,1.2,0.8,1.2,1.1c0,0.4-0.2,0.6-0.7,0.6
			c-0.1,0-0.2,0-0.4-0.1c-0.9-0.5-1.5-0.9-1.9-1c-0.4-0.1-0.6-0.3-0.6-0.4C198.8,41.5,199.2,41.2,199.8,41.2z M209,41.2
			c0.4,0,0.7,0.3,0.7,0.8c0,0.3-0.1,0.5-0.3,0.6c-1.6,0.7-2.5,1-2.5,1c-0.4,0-0.6-0.1-0.6-0.3c0-0.2,0.1-0.3,0.2-0.5l2.2-1.6
			C208.8,41.2,209,41.2,209,41.2z M206.5,44.5c0,0,0.1,0,0.1,0c0.8,0.5,1.5,0.9,2,1.1c0.3,0.1,0.8,0.2,1.3,0.2
			c0.2,0,0.3,0.1,0.3,0.3c0,0.3-0.2,0.5-0.5,0.7c-0.6,0.4-1.1,0.6-1.4,0.6c-0.2,0-0.3-0.1-0.4-0.2c-0.2-0.2-0.8-1-1.7-2.2
			c-0.1-0.1-0.1-0.2-0.1-0.3C206.3,44.6,206.4,44.5,206.5,44.5z"/>
		<path class="st0" d="M216.8,33.6c0.4,0,0.6,0.3,0.6,0.8c-0.1,0.7-0.1,1.3-0.1,1.8v3c0,0.9-0.2,1.4-0.7,1.4c-0.4,0-0.6-0.5-0.6-1.4
			c0.1-1.3,0.2-2.3,0.2-3c0-0.5,0-1.1-0.1-1.8C216.1,33.9,216.3,33.6,216.8,33.6z M219.6,30.8c0.5,0,0.7,0.3,0.7,0.9
			c-0.1,1.7-0.1,3.3-0.1,4.7l0.1,10c0,1-0.3,1.5-0.8,1.5c-0.4,0-0.6-0.5-0.6-1.5c0.1-4.3,0.1-7.6,0.1-10c0-1.4,0-2.9-0.1-4.7
			C218.9,31.1,219.2,30.8,219.6,30.8z M222.6,31.9c0.5,0,0.7,0.2,0.7,0.6l-1.4,3c-0.1,0.3-0.3,0.4-0.6,0.4c-0.2,0-0.4-0.2-0.4-0.5
			l0.9-3C222.1,32.1,222.3,31.9,222.6,31.9z M226.1,33c0.4,0,0.6,0.2,0.6,0.5c0,0.2-0.1,0.5-0.2,0.7c-0.2,0.5-0.4,1-0.7,1.5
			c0,0,0,0,0,0h3.1l0-3.6c0-0.6,0.2-0.8,0.7-0.8c0.6,0,0.9,0.3,0.9,0.8l0,3.6h4.5c0.2,0,0.4,0.1,0.4,0.3c0,0.3-0.1,0.6-0.3,0.8
			c-0.2,0.2-0.5,0.3-0.8,0.3c-0.2,0-0.8-0.1-1.6-0.2c-0.7,0-1.4-0.1-2.1-0.1l0,3.3h3.8c0.2,0,0.3,0.1,0.4,0.3c0,0.3-0.1,0.6-0.3,0.8
			c-0.2,0.2-0.5,0.3-0.9,0.3c-0.2,0-0.7-0.1-1.4-0.2c-0.5,0-1-0.1-1.6-0.1l0,3.6c0.8,0,1.6,0.1,2.5,0.2c1,0.1,1.9,0.1,2.8,0.1
			c0.4,0,0.8,0,1.1-0.1c0.1,0,0.1,0.1,0.1,0.3c0,0.4-0.1,0.9-0.4,1.3c-0.3,0.5-0.5,0.7-0.8,0.7s-0.5-0.1-0.8-0.3c-1.1-0.5-2-0.8-3-1
			c-0.7-0.1-1.6-0.2-2.6-0.2c-1.2,0-2.2,0.1-3.1,0.3c-0.9,0.2-1.8,0.6-2.7,1c-0.3,0.1-0.5,0.2-0.6,0.2c-0.4,0-0.6-0.3-0.6-0.7
			c0-0.3,0.1-0.5,0.3-0.7c0.2-0.2,0.5-0.3,0.8-0.4c2.5-0.4,4.4-0.7,5.6-0.7l-0.1-3.6c-1.3,0-2.2,0.1-2.8,0.2
			c-0.4,0.1-0.6,0.2-0.8,0.2c-0.4,0-0.7-0.2-0.7-0.6c0-0.2,0.1-0.4,0.4-0.6c0.2-0.1,0.5-0.2,0.8-0.2h3.1l0-3.3
			c-1.2,0-2.2,0.1-2.8,0.2c-0.4,0.1-0.7,0.2-0.8,0.2c-0.2,0-0.3,0-0.4-0.1c-0.2,0.3-0.4,0.6-0.6,0.8c-0.3,0.4-0.6,0.6-0.8,0.6
			c-0.3,0-0.7-0.1-1.1-0.4c-0.4-0.3-0.5-0.6-0.5-0.9c0-0.2,0.2-0.4,0.5-0.4c0.6-0.3,1.2-0.7,1.7-1.2c0.5-0.6,1-1.4,1.5-2.4
			C225.9,33,226,33,226.1,33z"/>
		<path class="st0" d="M247,42.2c-0.2,0.8-0.5,1.6-0.9,2.5c-0.6,1.3-1.1,1.9-1.5,1.9c-0.5,0-0.9-0.6-1.3-1.9
			c-0.3-1.1-0.5-2.7-0.5-4.8c0-0.8,0.1-2,0.4-3.6c0.3-1.7,0.6-2.8,0.9-3.4c0.2-0.4,0.5-0.6,0.9-0.6c0.5,0,0.8,0.2,0.8,0.7
			c0,0.1-0.1,0.5-0.4,1c-0.4,0.8-0.6,1.7-0.9,2.8c-0.3,1.1-0.4,2.1-0.4,2.8c0,3.1,0.2,4.7,0.7,4.7c0.2,0,0.7-0.8,1.5-2.3
			c0.1-0.2,0.2-0.3,0.3-0.3C246.9,41.9,247,42,247,42.2z M259.1,43c0,0.1-0.2,0.5-0.5,1.2c-0.3,0.6-0.6,0.9-1,1.1
			c-0.5,0.2-1.6,0.3-3.4,0.3c-1.4,0-2.6-0.2-3.6-0.6c-1.4-0.6-2.1-1.5-2.1-2.7c0-1.3,0.3-2,0.9-2c0.1,0,0.2,0.1,0.2,0.3
			c-0.2,0.6-0.2,1-0.2,1.2c0,1.4,1.1,2.1,3.3,2.1c0.9,0,2-0.1,3.2-0.3c0.7-0.1,1.3-0.3,1.9-0.5c0.5-0.2,0.8-0.3,1-0.3
			C258.9,42.6,259,42.8,259.1,43z M257,34.3c0,0.2-0.6,0.8-1.8,1.6c-1.2,0.8-1.9,1.2-2.1,1.2c-0.3,0-0.4-0.1-0.4-0.3
			c0-0.1,0.3-0.5,0.8-1c0.5-0.4,0.8-0.8,1.1-0.9c-0.1,0-0.2,0-0.3,0c-1,0-2.1,0.1-3.3,0.3c-1.3,0.2-1.9,0.4-1.8,0.4
			c-0.3,0-0.4-0.2-0.4-0.5c0-0.5,0.2-0.8,0.6-1c0.2,0,0.6-0.1,1.3-0.2c1.6-0.2,3.5-0.2,5.6-0.2C256.8,33.6,257,33.9,257,34.3z"/>
		<path class="st0" d="M271.4,45.4c0,0.8-0.3,1.5-0.8,2c-0.5,0.5-1.2,0.8-2,0.8c-0.8,0-1.5-0.3-2-0.8c-0.6-0.6-0.8-1.2-0.8-2
			s0.3-1.5,0.8-2c0.6-0.6,1.2-0.9,2-0.9c0.8,0,1.5,0.3,2,0.9C271.1,44,271.4,44.6,271.4,45.4z M270.5,45.4c0-0.5-0.2-1-0.6-1.4
			c-0.4-0.4-0.8-0.6-1.4-0.6c-0.5,0-1,0.2-1.4,0.6c-0.4,0.4-0.6,0.9-0.6,1.4s0.2,1,0.6,1.4c0.4,0.4,0.9,0.6,1.4,0.6
			c0.5,0,1-0.2,1.4-0.6C270.3,46.4,270.5,46,270.5,45.4z"/>
		<path class="st0" d="M19.6,67c0,0.3-0.2,0.7-0.7,1.2c-0.4,0.5-0.8,0.8-1.1,0.8c-0.2,0-0.9-0.2-1.9-0.6c-0.6-0.2-1.3-0.4-2.1-0.6
			c-0.2,0.8-0.3,1.6-0.5,2.5C13.1,71.5,12.6,72,12,72c-0.4,0-1-0.2-1.7-0.7c-0.8-0.5-1.1-0.9-1.1-1.2c0-0.2,0.1-0.3,0.4-0.3
			c0.4,0.1,0.7,0.3,1.1,0.5c0.5,0.2,0.8,0.4,1,0.4c0.4,0,0.8-1,1-2.9c-0.1,0-0.2,0-0.3,0c-0.2,0-0.3,0-0.4,0c-1.7,0-3.4,0.1-5,0.2
			c0,0.9-0.1,1.7-0.1,2.4c0,1.8,0.1,2.9,0.4,3.4c0.4,0.8,1.4,1.2,3,1.2c1.6,0,3.6-0.3,5.8-1c0.2-0.1,0.4-0.1,0.6-0.1
			c0.1,0,0.2,0.1,0.2,0.4s-0.2,0.7-0.5,1.2c-0.3,0.5-0.9,0.9-1.8,1.1c-0.4,0.1-1.2,0.1-2.2,0.1c-1.6,0-3-0.2-4.1-0.6
			c-1.1-0.4-1.9-1.2-2.3-2.3c-0.3-0.8-0.4-1.9-0.4-3.4c0-0.3,0-0.7,0-1.2c0-0.5,0-0.9,0-1.2C4,68.3,2.6,68.6,1.4,69l-0.9,0.3
			C0.2,69.2,0,69,0,68.7c0-0.4,0.1-0.7,0.3-1c0.2-0.3,2-0.5,5.2-0.8v-3.5c0-0.7,0.3-1.1,1-1.1c0.4,0,0.6,0.3,0.6,0.8
			c0,0.4,0,1-0.1,1.8c-0.1,0.8-0.1,1.4-0.1,1.8c2.3-0.1,4.2-0.2,5.8-0.2c0-0.4,0-0.9,0-1.6c0-0.8,0-1.4,0-1.6c0-0.6,0-0.9,0-1
			c0.1-0.3,0.4-0.5,0.8-0.5c0.3,0,0.6,0.2,0.6,0.6c0,0.1,0,0.4,0,0.9c0,0.6-0.1,1.7-0.3,3.4c1.4,0.2,2.8,0.2,4.1,0.2
			c0.1,0,0.4,0,0.6-0.1c0.3-0.1,0.5-0.1,0.6-0.1C19.6,66.7,19.6,66.8,19.6,67z M19.4,64.1c0,0.1-0.2,0.4-0.5,0.7
			c-0.2,0.3-0.4,0.5-0.6,0.5c-0.3,0-0.8-0.3-1.4-1c-0.6-0.7-1-1.1-1-1.4c0-0.2,0.1-0.3,0.2-0.3c0.1,0,0.4,0.1,0.9,0.4
			c0.6,0.4,1.2,0.6,2,0.6C19.2,63.8,19.4,64,19.4,64.1z M21.8,62.4c0,0.2-0.2,0.4-0.5,0.8c-0.3,0.3-0.5,0.5-0.6,0.5
			c-0.3,0-0.8-0.3-1.4-1c-0.7-0.7-1-1.1-1-1.4c0-0.2,0.1-0.3,0.2-0.3c0,0,0.3,0.1,0.8,0.4c0.4,0.3,1.1,0.5,2,0.6
			C21.6,62.1,21.7,62.2,21.8,62.4z"/>
		<path class="st0" d="M44.2,69c0,0.3-0.2,0.7-0.7,1.2C43,70.7,42.6,71,42.3,71s-0.8-0.4-1.5-1.3c-0.5-0.6-1.2-1.9-2-3.7
			c0-0.1-0.1-0.2-0.1-0.2c0,0.1,0,0.3,0,0.8c0,0.2,0,0.4,0,0.7c0,0.3,0,0.6,0,0.7c0,2.4-0.4,4.5-1.3,6.1c-1.1,2.1-2.8,3.1-5,3.1
			c-0.7,0-1.4-0.2-2.2-0.6c-1.5-0.8-2.3-2.2-2.3-4.3c0-2.5,1.3-5.2,3.8-8.2c-2.3,1-3.9,1.4-4.6,1.4c-0.4,0-0.6-0.2-0.6-0.5
			c0-0.3,0.1-0.6,0.2-0.7c0.2-0.2,0.5-0.3,0.8-0.4c0.9-0.1,1.9-0.3,3-0.6c0.2,0,0.8-0.2,1.9-0.6c1-0.4,1.6-0.5,1.7-0.5
			c0.4,0,0.6,0.2,0.6,0.5c0,0.3-0.4,0.7-1.1,1.3c-1.1,0.9-2.1,2.2-3,3.6c-1,1.6-1.4,3.1-1.4,4.4c0,1.1,0.2,2,0.7,2.6
			c0.5,0.8,1.3,1.2,2.3,1.2c1.9,0,3.3-1.1,4.4-3.3c0.8-1.7,1.2-3.6,1.2-5.8c0-1-0.1-1.8-0.2-2.4c0-0.3-0.1-0.5-0.1-0.7
			c0-0.4,0.2-0.7,0.6-0.7c0.2,0,0.4,0.1,0.6,0.4c0.5,1,0.9,1.7,1.2,2.1c0.5,0.8,1,1.4,1.5,2c0.6,0.7,1.4,1.1,2.4,1.4
			C44,68.8,44.2,68.9,44.2,69z"/>
		<path class="st0" d="M65.5,72.2c0,1.2-0.6,2.3-1.8,3.2c-1.1,0.8-2.3,1.2-3.6,1.2c-0.4,0-0.8-0.2-1.3-0.6c-0.5-0.4-0.7-0.8-0.7-1.2
			c0-0.2,0.1-0.3,0.3-0.3c0.1,0,0.3,0,0.5,0c0.2,0,0.4,0,0.5,0c1.8,0,3-0.3,3.7-1c0.6-0.5,0.9-1.1,0.9-1.8c0-0.6-0.3-1.2-1-1.6
			c-0.6-0.4-1.4-0.6-2.6-0.6c-1.5,0-3.1,0.3-4.8,0.9l-0.1,4.1c0,1.4-0.5,2-1.3,2c-0.8,0-1.7-0.3-2.7-0.8c-1.1-0.6-1.7-1.3-1.7-2
			c0-0.8,0.5-1.6,1.6-2.4c0.8-0.6,1.7-1.1,2.7-1.5c0-0.7,0-1.9,0-3.6c-0.6,0-1.6,0.1-2.9,0.2c-0.7,0.2-1,0.3-0.9,0.3
			c-0.4,0-0.6-0.2-0.6-0.6c0-0.3,0.1-0.5,0.3-0.7c0.1-0.2,0.8-0.3,1.9-0.4c0.7,0,1.4,0,2.2,0c0-0.3,0-0.7,0-1.3c0-0.6,0-1,0-1.3
			c0-0.5,0.2-0.8,0.7-0.8c0.5,0,0.8,0.3,0.8,0.9l0,2.4c0.5,0,1.2,0,2.1,0c0.9,0,1.6,0,2.1,0c0.4,0,0.6,0.1,0.6,0.3
			c0,0.3-0.1,0.5-0.3,0.8c-0.2,0.3-0.4,0.4-0.6,0.5c-0.7-0.2-1.6-0.3-2.7-0.3c-0.1,0-0.3,0-0.6,0c-0.3,0-0.4,0-0.6,0l-0.1,3.1
			c1.6-0.5,3.2-0.8,4.7-0.8c0.9,0,1.8,0.1,2.6,0.4c1,0.3,1.7,0.8,2.1,1.4C65.3,70.9,65.5,71.5,65.5,72.2z M54.2,71
			c-1.9,1-2.8,1.8-2.8,2.5c0,0.5,0.3,0.9,0.8,1.2c0.5,0.2,1,0.4,1.5,0.4c0.3,0,0.5-0.3,0.5-0.8C54.2,73.5,54.2,72.4,54.2,71z
			 M66.7,65.9c0,0.2-0.3,0.6-0.7,1c-0.4,0.4-0.7,0.7-1,0.7c-0.3,0-0.9-0.5-1.8-1.5c-0.8-1-1.2-1.7-1.2-2.1c0-0.2,0.1-0.3,0.2-0.3
			c0.1,0,0.6,0.3,1.5,0.8c0.9,0.6,1.7,0.9,2.3,1C66.4,65.6,66.6,65.7,66.7,65.9z"/>
		<path class="st0" d="M77.6,60.8c0.4,0,0.6,0.2,0.6,0.5c0,0.2-0.1,0.4-0.2,0.6c-0.1,0.1-0.1,0.2-0.2,0.3h11.1
			c0.2,0,0.4,0.1,0.4,0.3c0,0.3-0.1,0.6-0.3,0.8c-0.2,0.2-0.5,0.3-0.8,0.3c-0.3,0-1-0.1-2-0.2c-1.1,0-2.3-0.1-3.6-0.1
			c-2,0-3.5,0.1-4.4,0.2c-0.5,0.1-0.9,0.2-1,0.2c-0.2,0-0.3,0-0.4-0.1c-0.5,0.6-1.1,1.2-1.7,1.8c-0.4,0.4-0.8,0.6-1.1,0.6
			c-0.4,0-0.7-0.2-1.1-0.5c-0.4-0.3-0.6-0.6-0.6-0.9c0-0.2,0.2-0.3,0.5-0.4c0.9-0.2,1.6-0.6,2.4-1.1c0.8-0.5,1.5-1.2,2.1-2.2
			C77.4,60.9,77.5,60.8,77.6,60.8z M81.8,69.5c0.4,0,0.6,0.2,0.6,0.7c0,0-0.1,0.1-0.1,0.2c-0.4,0.9-1,1.8-1.8,2.9
			c1.3,0.8,2.5,1.6,3.6,2.5c0.2,0.2,0.3,0.4,0.3,0.6c0,0.3-0.2,0.4-0.5,0.5c-0.2,0-0.5-0.1-0.7-0.3c-1.4-0.9-2.6-1.7-3.5-2.3
			c-1.1,1.1-2.2,2-3.4,2.6c-0.8,0.5-1.6,0.7-2.1,0.7c-0.3,0-0.5-0.1-0.8-0.3c-0.4-0.3-0.5-0.6-0.5-1c0-0.2,0.2-0.4,0.7-0.5
			c1.6-0.2,3.1-0.8,4.5-1.8c0.1-0.1,0.3-0.3,0.4-0.4c-0.8-0.5-2-1-3.6-1.6c-0.3-0.2-0.5-0.4-0.5-0.6c0-0.5,0.3-0.8,0.8-0.9
			c0.2,0,0.4,0.1,0.6,0.2c0.6,0.4,1.8,1.1,3.4,2c0,0,0.1,0.1,0.1,0.1c0.7-0.8,1.3-1.8,1.8-3C81.4,69.6,81.6,69.5,81.8,69.5z
			 M80.7,67.2c2.2,0,4.3,0.1,6.2,0.3c0.2,0,0.4-0.1,0.6-0.1c0.6,0,0.8,0.3,0.8,0.8c0,0.1,0,0.2-0.1,0.3c-0.2,0.4-0.4,0.8-0.5,1.3
			c0,0.4-0.1,1-0.1,1.7c0,1,0.2,1.7,0.5,2.1c0.5,0.6,1.1,1.1,1.7,1.3c0.6,0.3,1.4,0.4,2.5,0.4c0.3,0,0.4,0.1,0.5,0.3
			c0,0.4-0.2,0.9-0.6,1.3c-0.4,0.5-0.9,0.7-1.4,0.7c-0.5,0-1.1-0.2-1.8-0.7c-0.9-0.5-1.5-1.1-1.9-1.9c-0.5-0.8-0.7-1.9-0.7-3.3
			c0-0.9,0.1-1.8,0.3-2.6c0-0.4-0.2-0.6-0.6-0.7c-1.2-0.1-2.6-0.2-4-0.2c-1.1,0-2.2,0-3.4,0.1c-1,0-1.9,0.1-2.8,0.3
			c-0.5,0-0.8-0.2-0.8-0.6c0-0.6,0.3-0.9,1-1C77.4,67.2,78.9,67.2,80.7,67.2z M79,64.7h7.6c0.2,0,0.3,0.1,0.3,0.2
			c0,0.3-0.1,0.5-0.3,0.7c-0.2,0.2-0.5,0.3-0.8,0.3c-0.2,0-0.6,0-1.3-0.1c-0.7,0-1.5,0-2.3,0c-1.4,0-2.4,0-3,0.1
			c-0.4,0.1-0.6,0.1-0.7,0.1c-0.4,0-0.6-0.3-0.6-0.7c0-0.2,0.1-0.4,0.3-0.6C78.4,64.8,78.7,64.7,79,64.7z"/>
		<path class="st0" d="M98.6,62.6h3c0-0.4,0-0.9,0-1.3c0-0.6,0.2-0.9,0.7-0.9c0.4,0,0.7,0.3,0.7,0.9c0,0.4,0,0.9,0,1.3h3.4
			c0.2,0,0.4,0.1,0.4,0.3c0,0.3-0.1,0.6-0.3,0.8c-0.2,0.2-0.5,0.3-0.8,0.3c-0.2,0-0.6-0.1-1.3-0.2c-0.4,0-0.9,0-1.4,0
			c0,0.6,0,1.1,0,1.7h0c0.5,0,1.2,0,1.9,0.1c0.2,0,0.5-0.1,0.8-0.2c0.4,0,0.6,0.2,0.6,0.7c0,0,0,0.1,0,0.2c-0.1,0.2-0.1,0.6-0.1,1.1
			c0,0.7-0.1,1.4-0.1,2.2c0,0.5,0,1.1,0.1,2c0,0.5-0.2,0.7-0.6,0.7c-0.9-0.1-1.7-0.2-2.5-0.2l0,1.6h3.4c0.2,0,0.4,0.1,0.4,0.3
			c0,0.3-0.1,0.6-0.3,0.8c-0.2,0.2-0.5,0.3-0.8,0.3c-0.2,0-0.7-0.1-1.4-0.2c-0.4,0-0.8-0.1-1.3-0.1l0,1.8c0,0.9-0.3,1.4-0.8,1.4
			c-0.4,0-0.6-0.5-0.6-1.4c0-0.6,0-1.2,0-1.8c-1.4,0-2.4,0.1-3,0.2C98.2,75,97.9,75,97.9,75c-0.5,0-0.7-0.2-0.8-0.6
			c0-0.2,0.2-0.5,0.4-0.6c0.2-0.1,0.5-0.2,0.8-0.2h3.3c0-0.5,0-1.1,0-1.6c-0.9,0-1.5,0-1.8,0c-0.3,0-0.6,0.1-1,0.1
			c-0.4,0-0.7-0.2-0.7-0.7c0.1-1.1,0.2-2,0.2-2.8c0-0.8-0.1-1.7-0.2-2.8c0-0.4,0.2-0.6,0.7-0.6c0.2,0,0.4,0,0.7,0.1
			c0.2,0.1,0.6,0.1,1,0.1h1.1c0-0.5,0-1.1,0-1.7c-1.2,0-2.2,0.1-2.7,0.2c-0.4,0.1-0.6,0.2-0.7,0.2c-0.4,0-0.7-0.3-0.7-0.7
			c0-0.2,0.1-0.4,0.4-0.6C98,62.6,98.2,62.6,98.6,62.6z M101.6,70.8c0-0.6,0-1.2,0-1.7c-0.7,0-1.3,0.1-1.8,0.1c-0.1,0-0.1,0-0.2,0
			c0,0.5-0.1,0.9-0.1,1.3c0,0.3,0.2,0.4,0.6,0.4C100.5,70.9,101,70.8,101.6,70.8z M99.7,68.1c0.1,0,0.1,0,0.2,0h1.7
			c0-0.6,0-1.2,0-1.7c-0.4,0-0.9,0-1.4,0c-0.3,0-0.5,0.2-0.5,0.5C99.7,67.3,99.7,67.7,99.7,68.1z M102.8,66.4l0,1.7h1.8
			c0,0,0.1,0,0.1,0v-1.3c0-0.2-0.1-0.3-0.2-0.3C104.1,66.5,103.5,66.4,102.8,66.4z M102.9,69.1l0,1.8c0.5,0,1,0,1.5,0.1
			c0.3,0,0.4-0.1,0.4-0.3V69C104.1,69,103.5,69.1,102.9,69.1z M109.1,71.5h2.3l0-1.3c0-0.5,0.3-0.7,0.8-0.7c0.6,0,0.8,0.2,0.8,0.7
			l0,1.3h3.2c0.2,0,0.3,0.1,0.3,0.3c0,0.3-0.1,0.5-0.2,0.7c-0.2,0.2-0.5,0.3-0.8,0.3c-0.2,0-0.6,0-1.2-0.1c-0.4,0-0.9,0-1.3,0
			l-0.1,2.4c0.7,0,1.4,0.1,2.3,0.2c0.8,0.1,1.6,0.1,2.3,0.1c0.4,0,0.7,0,1-0.1c0.1,0,0.1,0.1,0.1,0.3c0,0.4-0.1,0.8-0.3,1.2
			c-0.2,0.4-0.5,0.7-0.7,0.7c-0.2,0-0.4-0.1-0.6-0.2c-0.9-0.5-1.7-0.8-2.4-0.9c-0.6-0.1-1.3-0.2-2.2-0.2c-1,0-1.9,0.1-2.6,0.2
			c-0.8,0.2-1.5,0.5-2.3,0.9c-0.2,0.1-0.4,0.2-0.6,0.2c-0.4,0-0.6-0.3-0.7-0.7c0-0.2,0.1-0.5,0.3-0.7c0.2-0.2,0.4-0.3,0.7-0.4
			c1.9-0.4,3.4-0.6,4.4-0.6l-0.1-2.4c-1,0-1.7,0.1-2.2,0.2c-0.3,0.1-0.6,0.2-0.6,0.2c-0.5,0-0.7-0.2-0.7-0.6c0-0.2,0.1-0.5,0.4-0.6
			C108.5,71.5,108.8,71.5,109.1,71.5z M109.9,61.9h4.9c0.1,0,0.2,0,0.4-0.1c0.2-0.1,0.3-0.1,0.3-0.1c0.4,0,0.6,0.3,0.6,0.7
			c0,0.2-0.1,0.3-0.3,0.6c-0.3,0.3-0.6,0.7-0.9,1.2c-0.5,0.9-1.1,1.7-1.6,2.3c1.5,0.8,2.5,1.3,3,1.4c0.5,0.1,1.1,0.2,1.8,0.3
			c0.3,0,0.5,0.1,0.5,0.4c0,0.3-0.2,0.6-0.7,0.9c-0.5,0.3-1,0.5-1.5,0.5c-0.4,0-0.7-0.1-1-0.4c-0.9-0.7-1.8-1.4-2.8-2.1
			c-0.1,0.1-0.2,0.2-0.2,0.2c-0.9,0.8-1.7,1.4-2.5,1.8c-0.8,0.4-1.5,0.6-1.8,0.6c-0.3,0-0.6-0.2-0.8-0.4c-0.3-0.2-0.4-0.4-0.4-0.6
			c0-0.2,0.1-0.4,0.4-0.4c1.9-0.6,3.3-1.2,4.1-1.9c0,0,0.1-0.1,0.1-0.1c-0.2-0.1-0.3-0.2-0.5-0.3c-0.7-0.4-1.3-0.8-1.9-1
			c-0.3-0.1-0.4-0.2-0.4-0.4c0-0.4,0.2-0.6,0.6-0.6c0.2,0,0.6,0.2,1.1,0.5c0.7,0.4,1.3,0.7,1.9,1c0.5-0.5,1-1.2,1.6-2.1
			c0.2-0.3,0.3-0.6,0.3-0.7c0-0.1-0.1-0.2-0.3-0.2c-1.1,0-2.2,0.1-3.3,0.2c-0.7,0.1-1.2,0.2-1.4,0.2c-0.3,0-0.5-0.2-0.5-0.6
			c0-0.2,0.1-0.4,0.4-0.6C109.2,62,109.5,61.9,109.9,61.9z"/>
		<path class="st0" d="M129,72.2c-0.2,0.8-0.5,1.6-0.9,2.5c-0.6,1.3-1.1,1.9-1.5,1.9c-0.5,0-0.9-0.6-1.3-1.9
			c-0.3-1.1-0.5-2.7-0.5-4.8c0-0.8,0.1-2,0.4-3.6c0.3-1.7,0.6-2.8,0.9-3.4c0.2-0.4,0.5-0.6,0.9-0.6c0.5,0,0.8,0.2,0.8,0.7
			c0,0.1-0.1,0.5-0.4,1c-0.4,0.8-0.6,1.7-0.9,2.8c-0.3,1.1-0.4,2.1-0.4,2.8c0,3.1,0.2,4.7,0.7,4.7c0.2,0,0.7-0.8,1.5-2.3
			c0.1-0.2,0.2-0.3,0.3-0.3C128.8,71.9,129,72,129,72.2z M141,73c0,0.1-0.2,0.5-0.5,1.2c-0.3,0.6-0.6,0.9-1,1.1
			c-0.5,0.2-1.6,0.3-3.4,0.3c-1.4,0-2.6-0.2-3.6-0.6c-1.4-0.6-2.1-1.5-2.1-2.7c0-1.3,0.3-2,0.9-2c0.1,0,0.2,0.1,0.2,0.3
			c-0.2,0.6-0.2,1-0.2,1.2c0,1.4,1.1,2.1,3.3,2.1c0.9,0,2-0.1,3.2-0.3c0.7-0.1,1.3-0.3,1.9-0.5c0.5-0.2,0.8-0.3,1-0.3
			C140.9,72.6,141,72.8,141,73z M139,64.3c0,0.2-0.6,0.8-1.8,1.6c-1.2,0.8-1.9,1.2-2.1,1.2c-0.3,0-0.4-0.1-0.4-0.3
			c0-0.1,0.3-0.5,0.8-1c0.5-0.4,0.8-0.8,1.1-0.9c-0.1,0-0.2,0-0.3,0c-1,0-2.1,0.1-3.3,0.3c-1.3,0.2-1.9,0.4-1.8,0.4
			c-0.3,0-0.4-0.2-0.4-0.5c0-0.5,0.2-0.8,0.6-1c0.2,0,0.6-0.1,1.3-0.2c1.6-0.2,3.5-0.2,5.6-0.2C138.7,63.6,139,63.9,139,64.3z"/>
		<path class="st0" d="M162.2,73.7c-0.2,1.3-0.8,2.1-1.8,2.4c-0.4,0.1-1.4,0.2-3.2,0.2c-2.1,0-3.8-0.2-5.2-0.6
			c-2.3-0.6-3.4-1.7-3.4-3.2c0-0.4,0.1-0.9,0.3-1.4c0.3-0.6,0.6-0.9,1.1-0.9c0.1,0,0.2,0.1,0.3,0.3c-0.1,0.1-0.2,0.4-0.5,0.9
			c-0.2,0.3-0.3,0.7-0.3,1c0,1.3,1.5,2,4.6,2c2.4,0,4.3-0.2,5.8-0.6c1.3-0.3,2-0.5,2-0.5C162.1,73.4,162.2,73.5,162.2,73.7z
			 M159.2,64.9c0,0.3-0.3,0.5-0.9,0.8c-2.5,1.2-3.9,1.8-4.1,1.8c-0.2,0-0.3-0.1-0.3-0.3c0-0.3,0.4-0.6,1.2-1.1
			c0.8-0.5,1.2-0.8,1.3-0.9c-0.1,0-0.3-0.1-0.8-0.1c-1.5,0-2.7,0-3.4,0.1c-0.1,0-0.4,0.1-0.8,0.2c-0.3,0-0.6,0.1-0.8,0.1
			c-0.5,0-0.7-0.2-0.7-0.5c0-0.6,0.3-0.9,0.8-1.1c0.6-0.2,1.5-0.2,2.7-0.2h1.6C157.6,63.6,159,64.1,159.2,64.9z M163.6,63.7
			c0,0.1-0.1,0.4-0.4,0.7c-0.3,0.3-0.5,0.5-0.6,0.5c-0.3,0-0.8-0.3-1.4-1c-0.7-0.7-1-1.1-1-1.3c0-0.2,0.1-0.3,0.2-0.3
			c0.6,0.2,1.6,0.6,3,1.1C163.5,63.5,163.6,63.6,163.6,63.7z M167.2,62.4c0,0.1-0.1,0.4-0.4,0.7c-0.3,0.3-0.5,0.5-0.6,0.5
			c-0.3,0-0.8-0.3-1.5-1c-0.7-0.7-1-1.1-1-1.4c0-0.2,0.1-0.3,0.2-0.3c0.4,0.2,0.9,0.4,1.4,0.6c0.4,0.2,0.9,0.3,1.5,0.5
			C167,62.1,167.2,62.2,167.2,62.4z"/>
		<path class="st0" d="M172.1,64.4h3c0-0.8,0-1.7-0.1-2.6c0-0.6,0.2-0.9,0.7-0.9c0.5,0,0.8,0.3,0.8,0.9c0,0.9-0.1,1.8-0.1,2.6h3.1
			c0.2,0,0.3,0.1,0.4,0.3c0,0.3-0.1,0.6-0.3,0.8c-0.2,0.2-0.5,0.3-0.8,0.3c-0.2,0-0.6-0.1-1.2-0.2c-0.4,0-0.7-0.1-1.1-0.1
			c0,0.3,0,0.6,0,0.9l0,1.9c0.1,0,0.2,0,0.3,0c0.1,0,0.6,0.3,1.6,1c0.9,0.7,1.4,1.2,1.4,1.5c0,0.4-0.2,0.6-0.6,0.6
			c-0.1,0-0.2-0.1-0.4-0.2c-1-0.8-1.7-1.3-2.2-1.5l0.1,6.6c0,1-0.3,1.5-0.9,1.5c-0.4,0-0.6-0.5-0.6-1.5c0-2.4,0.1-4.6,0.1-6.4
			c-0.4,0.5-0.8,1-1.2,1.4c-0.6,0.6-1.2,1.1-2,1.5c-0.2,0.1-0.3,0.1-0.4,0.1c-0.4,0-0.8-0.2-1.2-0.7c-0.4-0.4-0.6-0.7-0.6-0.9
			c0-0.2,0.3-0.4,0.7-0.4c0.5-0.1,0.9-0.1,1.2-0.2c0.7-0.2,1.3-0.5,1.9-1c0.6-0.5,1.1-1.1,1.5-1.7c0,0,0.1-0.1,0.1-0.1
			c0-0.5,0-1,0-1.4c0-0.3,0-0.6,0-0.9c-1.3,0-2.2,0.1-2.8,0.3c-0.4,0.1-0.6,0.2-0.7,0.2c-0.5,0-0.8-0.3-0.8-0.7
			c0-0.2,0.2-0.4,0.4-0.6C171.5,64.4,171.8,64.4,172.1,64.4z M181.9,63.3c0.2,0,0.5,0,0.7,0.1c0.2,0.1,0.6,0.1,1,0.1h2.4
			c0.6,0,1.2,0,2,0.1c0.2,0,0.5-0.1,0.8-0.2c0.4,0,0.7,0.3,0.7,0.8c0,0,0,0.2,0,0.4c-0.1,0.4-0.1,1.1-0.2,2.2c0,1.4-0.1,2.9-0.1,4.4
			c0,1.2,0,2.8,0.1,4.8c0,0.6-0.2,0.8-0.6,0.8c-1.2-0.2-2.2-0.3-3.1-0.3c-1.3,0-2.2,0-2.5,0.1c-0.3,0-0.7,0.1-1.1,0.2
			c-0.4,0-0.6-0.2-0.6-0.6c0.1-2.2,0.2-4.1,0.2-5.7c0-1.8-0.1-3.9-0.2-6.5C181.2,63.6,181.5,63.3,181.9,63.3z M185.6,75.4
			c0.6,0,1.3,0,2.1,0.1c0.2,0,0.4-0.1,0.4-0.4v-2.7c0,0-0.1,0-0.1,0c-2.2,0-3.8,0.1-5.1,0.2c0,0-0.1,0-0.1,0c0,0.8-0.1,1.6-0.1,2.4
			c0,0.3,0.2,0.5,0.6,0.5C183.9,75.5,184.7,75.4,185.6,75.4z M182.8,71.4c0.1,0,0.2,0,0.3,0h4.9c0,0,0.1,0,0.1,0v-2.9
			c0,0-0.1,0-0.1,0c-2.2,0-3.8,0.1-5.1,0.2h0C182.8,69.6,182.8,70.5,182.8,71.4z M182.8,67.5c0.1,0,0.1,0,0.2,0h4.9c0,0,0.1,0,0.1,0
			V65c0-0.2-0.1-0.3-0.2-0.3c-1-0.1-2.5-0.1-4.5-0.1c-0.3,0-0.5,0.2-0.5,0.5C182.8,65.9,182.8,66.7,182.8,67.5z"/>
		<path class="st0" d="M196.3,64.2h6.8c0.2,0,0.3,0.1,0.3,0.3c0,0.3-0.1,0.5-0.3,0.7c-0.2,0.2-0.4,0.3-0.8,0.3c-0.2,0-0.5,0-1.2-0.1
			c-0.6,0-1.3,0-2,0c-1.3,0-2.2,0.1-2.7,0.2c-0.3,0.1-0.5,0.2-0.6,0.2c-0.5,0-0.7-0.2-0.8-0.6c0-0.2,0.2-0.4,0.4-0.6
			C195.6,64.2,195.9,64.2,196.3,64.2z M196.9,72.1c0.2,0,0.5,0,0.7,0.1c0.2,0.1,0.6,0.1,1,0.1h1.3c0.3,0,0.7,0,1.1,0.1
			c0.2,0,0.5-0.1,0.9-0.2c0.4,0,0.6,0.2,0.6,0.7c0,0,0,0.1,0,0.1c-0.1,0.1-0.1,0.4-0.2,0.7c0,0.4-0.1,0.9-0.1,1.5
			c0,0.3,0,0.7,0.1,1.2c0,0.5-0.2,0.7-0.6,0.7c-0.8-0.1-1.5-0.2-2.2-0.2c-1,0-1.6,0-1.8,0c-0.2,0-0.5,0.1-0.8,0.1
			c-0.4,0-0.6-0.2-0.6-0.7c0.1-0.7,0.2-1.4,0.2-1.9c0-0.5-0.1-1.1-0.2-1.8C196.3,72.4,196.5,72.1,196.9,72.1z M197.5,61.4h4.6
			c0.2,0,0.3,0.1,0.3,0.2c0,0.3-0.1,0.5-0.3,0.7c-0.2,0.2-0.4,0.3-0.8,0.3c-0.1,0-0.3,0-0.7-0.1c-0.4,0-0.8,0-1.2,0
			c-0.9,0-1.5,0.1-1.9,0.2c-0.2,0.1-0.4,0.1-0.4,0.1c-0.4,0-0.6-0.2-0.6-0.6c0-0.2,0.1-0.4,0.4-0.6
			C196.9,61.4,197.2,61.4,197.5,61.4z M197.4,66.9h4.2c0.4,0,0.6,0.2,0.6,0.6c0,0.3-0.2,0.5-0.6,0.5c-1.9,0-3.4,0.1-4.4,0.2
			c-0.5,0-0.7-0.2-0.7-0.6C196.5,67.1,196.8,66.9,197.4,66.9z M197.4,69.3h4.2c0.4,0,0.6,0.2,0.6,0.6c0,0.3-0.2,0.5-0.6,0.5
			c-1.9,0-3.4,0.1-4.4,0.2c-0.5,0-0.7-0.2-0.7-0.6C196.5,69.6,196.8,69.3,197.4,69.3z M199.6,75.9c0.3,0,0.7,0,1.1,0.1
			c0.2,0,0.4-0.1,0.4-0.3v-2c0-0.2-0.1-0.3-0.2-0.3c-0.6-0.1-1.4-0.1-2.5-0.1c-0.3,0-0.5,0.2-0.5,0.5c0,0.6-0.1,1.2-0.2,1.8
			c0,0.3,0.2,0.4,0.6,0.4C198.6,75.9,199.1,75.9,199.6,75.9z M209.3,68.5c0.6,0,0.8,0.2,0.8,0.7c-0.1,0.6-0.2,1.2-0.2,1.9
			c0,0.4-0.1,0.9-0.1,1.3c0.2,0,0.4,0.2,0.8,0.5c2.3,1.7,3.7,2.6,4.3,2.8c0.4,0.1,0.8,0.2,1.3,0.2c0.3,0,0.5,0.1,0.5,0.4
			c0,0.3-0.2,0.6-0.7,0.9c-0.5,0.3-1,0.5-1.5,0.5c-0.4,0-0.7-0.1-1-0.4c-0.8-1-1.7-2-2.8-3.1c-0.4-0.4-0.8-0.7-1.1-0.9
			c-0.1,0.2-0.1,0.4-0.2,0.6c-0.5,1-1.1,1.7-1.8,2.3c-0.9,0.8-1.7,1.2-2.5,1.2c-0.3,0-0.5-0.1-0.7-0.4c-0.4-0.4-0.6-0.7-0.6-1.1
			c0-0.2,0.1-0.3,0.4-0.3c0.8-0.1,1.5-0.3,2-0.6c0.8-0.3,1.5-1,2.1-2.1c0.4-0.8,0.6-1.8,0.6-3v-1C208.8,68.7,208.9,68.5,209.3,68.5z
			 M209.2,61.1c0.5,0,0.8,0.2,0.8,0.6c-0.1,0.5-0.2,1-0.2,1.6c0,0.4-0.1,0.8-0.2,1.2c0.2,0,0.4,0.1,0.7,0.3c2.2,1.2,3.5,1.8,4,2
			c0.4,0.1,0.8,0.1,1.2,0.2c0.3,0,0.4,0.1,0.4,0.4c0,0.3-0.2,0.6-0.7,0.9c-0.5,0.3-0.9,0.4-1.4,0.4c-0.3,0-0.6-0.1-0.9-0.4
			c-0.8-0.8-1.6-1.6-2.6-2.4c-0.3-0.3-0.6-0.5-0.9-0.6c0,0.1-0.1,0.2-0.1,0.3c-0.4,0.8-1,1.5-1.6,1.9c-0.8,0.7-1.6,1-2.3,1
			c-0.3,0-0.5-0.1-0.7-0.3c-0.4-0.3-0.5-0.7-0.5-1c0-0.1,0.1-0.2,0.4-0.2c0.8-0.1,1.4-0.2,1.9-0.5c0.8-0.2,1.4-0.8,1.9-1.7
			c0.4-0.7,0.5-1.5,0.5-2.4c-0.1-0.4-0.1-0.7-0.1-1C208.7,61.2,208.8,61.1,209.2,61.1z M204.3,70.7c0.4,0.1,0.7,0.1,0.8,0.1
			c0.5,0,1.1-0.2,1.8-0.5c0.1,0,0.2,0.1,0.2,0.3c0,0.2-0.2,0.6-0.7,1.1c-0.5,0.6-0.9,0.9-1.2,0.9c-0.3,0-0.5-0.1-0.7-0.4
			c-0.2-0.3-0.4-0.7-0.4-1.1C204.2,70.9,204.2,70.7,204.3,70.7z M204.5,62.6c0.4,0.1,0.6,0.1,0.8,0.1c0.4,0,1-0.1,1.6-0.4
			c0.1,0,0.2,0.1,0.2,0.3c0,0.2-0.2,0.5-0.6,1.1c-0.4,0.5-0.8,0.8-1.1,0.8c-0.3,0-0.5-0.1-0.7-0.4c-0.2-0.3-0.4-0.7-0.4-1.1
			C204.3,62.7,204.4,62.6,204.5,62.6z M211.8,62.3C211.8,62.3,211.8,62.3,211.8,62.3c0.7,0.3,1.2,0.4,1.5,0.5c0.3,0.1,0.6,0.1,1,0.1
			c0.1,0,0.2,0.1,0.2,0.3c0,0.2-0.1,0.5-0.4,0.7c-0.5,0.3-1,0.5-1.2,0.5c-0.1,0-0.2,0-0.2-0.1c-0.1-0.1-0.5-0.7-1-1.6
			c0-0.1,0-0.1,0-0.2C211.5,62.4,211.6,62.3,211.8,62.3z M212,70.4C212,70.4,212.1,70.4,212,70.4c0.7,0.3,1.2,0.5,1.6,0.6
			c0.2,0.1,0.6,0.1,1,0.1c0.1,0,0.2,0.1,0.2,0.3c0,0.2-0.2,0.5-0.5,0.7c-0.5,0.3-0.9,0.5-1.2,0.5c-0.1,0-0.2,0-0.2-0.1
			c-0.1-0.2-0.5-0.7-1-1.6c0-0.1,0-0.2,0-0.2C211.8,70.5,211.9,70.4,212,70.4z"/>
		<path class="st0" d="M233.9,75.5c0,0.3-0.4,0.7-1.1,1.2c-0.7,0.5-1.2,0.7-1.5,0.7c-0.2,0-0.5-0.3-1-1c-0.8-1.1-1.8-2.2-3-3.2
			c-1.2-1-2.6-2-4.2-3c-0.5-0.3-0.8-0.5-0.8-0.8c0-0.2,0.4-0.7,1.3-1.3c1-0.7,2-1.7,2.9-2.8c0.5-0.6,1.3-1.7,2.4-3.3
			c0.3-0.4,0.6-0.6,1-0.6c0.6,0,0.9,0.3,0.9,0.9c0,0.4-0.8,1.5-2.5,3.1c-1.3,1.3-2.4,2.2-3.3,2.9c-0.3,0.2-0.7,0.6-1.3,1
			c2.8,1.6,4.9,3,6.3,4.1c0.7,0.5,1.2,0.9,1.5,1.1c0.6,0.4,1.2,0.6,1.7,0.8C233.5,75.3,233.7,75.4,233.9,75.5z"/>
		<path class="st0" d="M253.6,64.6c0,0.2-0.1,0.4-0.3,0.7s-0.3,0.5-0.5,0.5c-1.1-0.2-2-0.3-2.8-0.3c-0.1,0-0.3,0-0.5,0
			c-0.2,0-0.4,0-0.5,0c-0.4,1.7-0.8,3.3-1.4,4.7c-1.6,4.1-2.9,6.1-3.8,6.1c-0.3,0-0.6-0.1-1-0.2c-0.5-0.2-0.7-0.4-0.7-0.6
			c0-0.1,0.3-0.5,1-1.2c1.1-1.1,2.1-2.5,3-4.1c0.9-1.6,1.5-3.2,1.8-4.6c-1.5,0.1-2.9,0.3-4.1,0.7c-0.4-0.1-0.6-0.2-0.6-0.6
			s0.1-0.5,0.2-0.7c0.1-0.2,0.9-0.3,2.2-0.5c0.8-0.1,1.6-0.2,2.4-0.2c0.1-0.6,0.2-1.4,0.2-2.1c0-0.6,0.3-0.9,0.7-0.9
			c0.4,0,0.7,0.2,0.7,0.6c0,0.2-0.1,1-0.4,2.3c2.1-0.1,3.4-0.2,3.7-0.2S253.6,64.3,253.6,64.6z M260,74.2c0,0.4-0.1,0.8-0.4,1.4
			c-0.3,0.5-0.8,0.9-1.5,1.1c-0.4,0.1-1,0.1-1.9,0.1c-4.1,0-6.1-1-6.1-3c0-0.3,0.1-0.6,0.2-0.9c0.1-0.4,0.3-0.6,0.6-0.6
			c0.3,0,0.4,0.1,0.4,0.4c0,0.1,0,0.3-0.1,0.5c0,0.2-0.1,0.4-0.1,0.5c0,0.9,0.8,1.4,2.3,1.4c2.4,0,4.4-0.4,5.8-1.1
			c0.4-0.2,0.6-0.3,0.6-0.3C260,73.8,260,73.9,260,74.2z M257.8,67.9c-0.1,0.2-0.6,0.7-1.5,1.4c-0.9,0.7-1.6,1.1-1.9,1.2
			c-0.1,0-0.2-0.1-0.2-0.3c0-0.2,0.2-0.5,0.6-0.9c0.3-0.2,0.6-0.5,0.8-0.8c-0.1,0-0.3,0-0.6,0c-1.1,0-2,0.1-2.7,0.2
			c-0.9,0.2-1.3,0.3-1.3,0.3c-0.3,0-0.5-0.1-0.5-0.4c0-0.3,0.1-0.5,0.3-0.7c0.4-0.4,1.9-0.6,4.6-0.6h0.9
			C257.2,67.3,257.7,67.5,257.8,67.9z M258.8,63.7c0,0.1-0.1,0.4-0.4,0.7c-0.3,0.3-0.5,0.5-0.6,0.5c-0.3,0-0.8-0.3-1.4-1
			c-0.7-0.7-1-1.1-1-1.3c0-0.2,0.1-0.3,0.2-0.3c0.6,0.2,1.6,0.6,3,1.1C258.7,63.5,258.8,63.6,258.8,63.7z M261.8,62.4
			c0,0.2-0.2,0.4-0.5,0.7c-0.3,0.3-0.5,0.5-0.6,0.5c-0.3,0-0.7-0.3-1.4-1c-0.6-0.7-0.9-1.1-0.9-1.4c0-0.2,0.1-0.3,0.2-0.3
			c0,0,0.5,0.2,1.3,0.6c0.4,0.2,0.8,0.3,1.5,0.5C261.6,62.1,261.8,62.2,261.8,62.4z"/>
		<path class="st0" d="M282.6,64.7c0,0.3-0.2,0.8-0.6,1.3c-0.4,0.6-0.8,0.9-1,0.9c-0.1,0-0.5-0.1-1.1-0.4c-0.8-0.3-2.4-0.6-4.6-0.7
			c0.7,1.9,1.6,3.5,2.8,4.7c0.2,0.2,0.4,0.4,0.6,0.7c-0.1,0.4-0.3,0.7-0.6,0.9c-0.1,0-0.6-0.2-1.2-0.5c-0.7-0.3-1.2-0.5-1.4-0.6
			c-0.7-0.2-1.4-0.3-2.3-0.3c-2.7,0-4,0.7-4,2.2c0,0.8,0.4,1.4,1.3,1.8c0.6,0.3,1.4,0.4,2.3,0.4c2,0,3.6-0.3,4.8-0.8
			c0.6-0.3,1-0.4,1.1-0.4c0.2,0,0.3,0.1,0.3,0.3c0,0.3-0.1,0.7-0.4,1.3c-0.4,0.9-1.8,1.3-4.1,1.3c-1.6,0-3-0.2-4.2-0.6
			c-1.6-0.6-2.4-1.6-2.4-3c0-1.3,0.6-2.2,1.9-2.8c1-0.5,2.2-0.7,3.6-0.7c1,0,2,0.2,3.1,0.5c-1-1.3-1.8-2.8-2.4-4.4
			c-2.3,0.1-4.3,0.4-6,0.9c-0.6,0.2-1,0.2-1.2,0.2c-0.4,0-0.6-0.3-0.6-0.9c0-0.6,0.5-0.9,1.5-1c1.3-0.1,3.2-0.2,5.8-0.5
			c-0.5-1.2-0.7-2-0.7-2.4c0-0.5,0.3-0.8,0.9-0.8c0.3,0,0.6,0.4,0.8,1.3c0.1,0.6,0.3,1.3,0.4,1.9c1.9,0,3.9,0,6,0c0.1,0,0.4,0,0.6,0
			c0.3,0,0.6,0,0.7,0C282.5,64.4,282.6,64.5,282.6,64.7z"/>
		<path class="st0" d="M297.8,71.7c0,0.5-0.5,1.4-1.6,2.7c-1.1,1.3-2,2-2.6,2c-0.6,0-1.2-0.4-1.9-1.1c-1.2-1.4-1.8-3.9-1.8-7.6
			c0-1.9,0.1-3,0.3-3.5c0.2-0.3,0.4-0.5,0.8-0.5c0.5,0,0.8,0.2,0.8,0.7c0,0-0.1,0.5-0.2,1.3c-0.2,1.4-0.3,2.7-0.3,3.9
			c0,1.5,0.3,2.7,0.8,3.6c0.5,0.8,1,1.2,1.5,1.2c0.5,0,1.2-0.5,2.3-1.5c1-1,1.6-1.5,1.7-1.5C297.7,71.3,297.8,71.4,297.8,71.7z
			 M306.8,71c0,0.3-0.3,0.7-0.8,1.2c-0.5,0.4-0.9,0.6-1.2,0.6c-0.5,0-1.3-0.8-2.3-2.4c-1-1.6-1.6-2.8-1.6-3.3c0-0.2,0.1-0.3,0.3-0.3
			c0.2,0,0.5,0.3,1,1c0.5,0.7,1.2,1.3,1.9,1.8c0.7,0.6,1.4,1,1.9,1.1c0.2,0,0.3,0.1,0.4,0.1C306.7,70.8,306.8,70.9,306.8,71z"/>
		<path class="st0" d="M318.7,75.4c0,0.8-0.3,1.5-0.8,2c-0.5,0.5-1.2,0.8-2,0.8c-0.8,0-1.5-0.3-2-0.8c-0.6-0.6-0.8-1.2-0.8-2
			s0.3-1.5,0.8-2c0.6-0.6,1.2-0.9,2-0.9c0.8,0,1.5,0.3,2,0.9C318.4,74,318.7,74.6,318.7,75.4z M317.8,75.4c0-0.5-0.2-1-0.6-1.4
			c-0.4-0.4-0.8-0.6-1.4-0.6c-0.5,0-1,0.2-1.4,0.6c-0.4,0.4-0.6,0.9-0.6,1.4s0.2,1,0.6,1.4c0.4,0.4,0.9,0.6,1.4,0.6
			c0.5,0,1-0.2,1.4-0.6C317.6,76.4,317.8,76,317.8,75.4z"/>
	</g>
</g>
</svg>
