<?xml version="1.0" encoding="utf-8"?>
<!-- Generator: Adobe Illustrator 24.0.3, SVG Export Plug-In . SVG Version: 6.00 Build 0)  -->
<svg version="1.1" id="レイヤー_1" xmlns="http://www.w3.org/2000/svg" xmlns:xlink="http://www.w3.org/1999/xlink" x="0px"
	 y="0px" viewBox="0 0 517.9 48.3" style="enable-background:new 0 0 517.9 48.3;" xml:space="preserve">
<style type="text/css">
	.st0{fill:#503819;}
</style>
<g>
	<path class="st0" d="M10.8,6.6c1.3,0,2.8,0.1,4.5,0.2C16.6,6.9,17.8,7,18.7,7c0.5,0,1.1-0.1,1.8-0.3c0.1,0,0.2,0.2,0.2,0.5
		c0,0.5-0.2,1.1-0.6,1.6c-0.3,0.4-0.5,0.6-0.7,0.6c-0.4,0-0.9-0.1-1.5-0.4c-0.9-0.4-2-0.8-3.1-0.9c-1.2-0.2-2.6-0.3-4.1-0.3
		c-0.6,0-1.2,0-1.8,0C8.4,8.5,8,9.2,7.5,9.9c-1.2,1.4-2.6,2.5-3.9,3.3c-0.9,0.5-1.7,0.8-2.3,0.8c-0.3,0-0.5-0.1-0.8-0.3
		C0.2,13.3,0,13,0,12.6c0-0.2,0.2-0.4,0.7-0.5c1.8-0.2,3.4-1,4.9-2.2c0.7-0.6,1.3-1.3,1.8-2C6.9,8,6.4,8,5.9,8.1
		C5,8.2,3.6,8.6,1.7,9.3c-0.6,0-0.8-0.2-0.8-0.7c0-0.3,0.1-0.5,0.4-0.7c0.3-0.3,0.7-0.5,1.2-0.5c2.3-0.4,4.2-0.6,5.9-0.7
		C8.5,6.2,8.8,5.6,9,5c0-0.2,0.2-0.3,0.5-0.3c0.4,0,0.7,0.2,0.7,0.7c0,0-0.1,0.1-0.1,0.3C9.9,6,9.7,6.3,9.5,6.6
		C10,6.6,10.4,6.6,10.8,6.6z M2.2,2.4h4.2L6.3,1.6C6.3,1.2,6.5,1,7,1c0.5,0,0.7,0.2,0.7,0.7v0.6H13L13,1.7c0-0.6,0.2-0.8,0.7-0.8
		c0.5,0,0.7,0.2,0.7,0.7l-0.2,0.7h5.1c0.2,0,0.3,0.1,0.4,0.3c0,0.3-0.1,0.6-0.3,0.8c-0.2,0.2-0.5,0.3-0.9,0.3
		c-0.4,0-1.5-0.1-3.2-0.2c-0.5,0-0.9,0-1.4,0l-0.3,1c-0.1,0.3-0.3,0.4-0.6,0.4c-0.3,0-0.5-0.2-0.5-0.6l0.1-0.8c-1,0-2,0-3,0
		c-0.7,0-1.4,0-2.1,0v0.8c0,0.4-0.2,0.6-0.5,0.6C7,4.9,6.8,4.7,6.7,4.3L6.6,3.6C5.2,3.6,4,3.7,3.2,3.8C2.4,3.9,1.9,4,1.7,4
		C1.2,4,0.9,3.7,0.8,3.2C0.9,3,1,2.8,1.2,2.6C1.5,2.4,1.8,2.4,2.2,2.4z M7.7,11c0.2,0,0.5,0,0.7,0.1c0.2,0.1,0.6,0.1,1,0.1h3
		c0.7,0,1.5,0,2.4,0.1c0.2,0,0.5-0.1,0.8-0.2c0.4,0,0.7,0.2,0.7,0.7c0,0,0,0.1,0,0.2c-0.1,0.2-0.1,0.5-0.2,0.9
		c0,0.6-0.1,1.2-0.1,1.8c0,0.4,0,0.9,0.1,1.6c0,0.5-0.2,0.7-0.6,0.7c-1.5-0.1-2.9-0.2-4.1-0.2c-1.3,0-2.1,0-2.5,0.1
		c-0.3,0-0.6,0.1-1.1,0.1c-0.4,0-0.6-0.2-0.6-0.6c0.1-0.9,0.2-1.7,0.2-2.4c0-0.6-0.1-1.4-0.2-2.4C7,11.2,7.2,11,7.7,11z M11.3,15.8
		c0.9,0,2,0,3.1,0.1c0.2,0,0.4-0.1,0.4-0.3v-3c0-0.2-0.1-0.3-0.2-0.3c-1.2-0.1-3-0.1-5.4-0.1c-0.3,0-0.5,0.2-0.5,0.5
		c0,1-0.1,1.9-0.2,2.8c0,0.3,0.2,0.4,0.6,0.4C9.6,15.8,10.4,15.8,11.3,15.8z"/>
	<path class="st0" d="M31.5,3h3.3l-0.1-1.5c0-0.5,0.3-0.7,0.8-0.7c0.6,0,0.8,0.2,0.8,0.7L36.3,3h3.9c0.1,0,0.2,0,0.2,0.1
		c0.4-0.4,0.8-0.9,1.2-1.3c0.1-0.1,0.3-0.1,0.5-0.1c0.4,0,0.5,0.3,0.6,0.6c0,0.2-0.1,0.3-0.2,0.4c-1.2,1.3-2.3,2.4-3.3,3.3
		c0.4,0,0.9,0.1,1.3,0.1c1.4,0.1,2.6,0.2,3.7,0.2c0.5,0,1.2-0.1,1.9-0.3c0.1,0,0.2,0.2,0.2,0.5c0,0.5-0.2,1-0.6,1.6
		c-0.3,0.4-0.6,0.6-0.8,0.6c-0.4,0-1-0.1-1.6-0.4c-1-0.4-2.1-0.7-3.3-0.9c-0.6-0.1-1.3-0.1-1.9-0.2C37,8,36.1,8.6,35.4,9
		c-0.3,0.2-0.6,0.4-0.8,0.5c0.2,0,0.4,0,0.6,0h2.5c0.6,0,1.3,0,2,0.1c0.2,0,0.5-0.1,0.9-0.2c0.4,0,0.6,0.3,0.6,0.8c0,0,0,0.1,0,0.2
		c-0.1,0.2-0.1,0.6-0.2,1.2c0,0.8-0.1,1.6-0.1,2.5c0,0.6,0,1.3,0.1,2.3c0,0.6-0.2,0.8-0.6,0.8C39.2,17.1,38,17,37,17
		c-1.3,0-2.1,0-2.5,0.1c-0.3,0-0.7,0.1-1.1,0.2c-0.4,0-0.7-0.2-0.7-0.7c0.1-1.2,0.2-2.3,0.2-3.2c0-0.8,0-1.8-0.1-2.9
		c-1.4,0.7-2.9,1.3-4.5,1.8c-0.7,0.3-1.3,0.4-1.7,0.4c-0.5,0-0.9-0.2-1.2-0.5c-0.3-0.3-0.5-0.6-0.5-0.9c0-0.2,0.1-0.4,0.4-0.4
		c2.8-0.4,5-0.9,6.7-1.6c1.3-0.5,2.7-1.3,4-2.2c-0.2,0-0.3,0-0.5,0c-1.6,0-3.2,0.1-4.7,0.2c-0.9,0.1-2.3,0.5-4.1,1.1
		c-0.5,0-0.7-0.2-0.7-0.6c0-0.3,0.1-0.5,0.3-0.7c0.3-0.3,0.6-0.5,1.1-0.5C30.6,6.2,33.1,6,35,6l-0.1-1.8c-1.4,0-2.4,0.1-3,0.2
		c-0.4,0.1-0.7,0.2-0.8,0.2c-0.5,0-0.7-0.2-0.7-0.6c0-0.2,0.1-0.4,0.4-0.6C30.9,3.1,31.2,3,31.5,3z M37,15.9c0.7,0,1.5,0,2.4,0.1
		c0.2,0,0.4-0.1,0.4-0.4v-1.9c-2.3,0-4.1,0.1-5.3,0.2c0,0-0.1,0-0.1,0c0,0.5,0,1.1-0.1,1.6c0,0.3,0.2,0.5,0.6,0.5
		C35.4,15.9,36.2,15.9,37,15.9z M34.4,12.7c0.1,0,0.1,0,0.2,0h5.2v-1.6c0-0.2-0.1-0.3-0.2-0.3c-1.1-0.1-2.7-0.1-4.7-0.1
		c-0.3,0-0.5,0.2-0.5,0.5C34.4,11.7,34.4,12.2,34.4,12.7z M37.5,6c0.6-0.5,1.2-1.1,1.9-1.7c-0.3,0-0.7,0-1.4-0.1c-0.5,0-1.1,0-1.7,0
		L36.2,6C36.6,6,37,6,37.5,6z"/>
	<path class="st0" d="M62.6,4.6c0,0.2-0.1,0.4-0.3,0.7c-0.2,0.3-0.3,0.5-0.5,0.5c-1.1-0.2-2-0.3-2.8-0.3c-0.1,0-0.3,0-0.5,0
		c-0.2,0-0.4,0-0.5,0c-0.4,1.7-0.8,3.3-1.4,4.7c-1.6,4.1-2.9,6.1-3.8,6.1c-0.3,0-0.6-0.1-1-0.2c-0.5-0.2-0.7-0.4-0.7-0.6
		c0-0.1,0.3-0.5,1-1.2c1.1-1.1,2.1-2.5,3-4.1c0.9-1.6,1.5-3.2,1.8-4.6c-1.5,0.1-2.9,0.3-4.1,0.7c-0.4-0.1-0.6-0.2-0.6-0.6
		s0.1-0.5,0.2-0.7c0.1-0.2,0.9-0.3,2.2-0.5c0.8-0.1,1.6-0.2,2.4-0.2c0.1-0.6,0.2-1.4,0.2-2.1c0-0.6,0.3-0.9,0.7-0.9
		c0.4,0,0.7,0.2,0.7,0.6c0,0.2-0.1,1-0.4,2.3c2.1-0.1,3.4-0.2,3.7-0.2S62.6,4.3,62.6,4.6z M69,14.2c0,0.4-0.1,0.8-0.4,1.4
		c-0.3,0.5-0.8,0.9-1.5,1.1c-0.4,0.1-1,0.1-1.9,0.1c-4.1,0-6.1-1-6.1-3c0-0.3,0.1-0.6,0.2-0.9c0.1-0.4,0.3-0.6,0.6-0.6
		c0.3,0,0.4,0.1,0.4,0.4c0,0.1,0,0.3-0.1,0.5c0,0.2-0.1,0.4-0.1,0.5c0,0.9,0.8,1.4,2.3,1.4c2.4,0,4.4-0.4,5.8-1.1
		c0.4-0.2,0.6-0.3,0.6-0.3C69,13.8,69,13.9,69,14.2z M66.8,7.9c-0.1,0.2-0.6,0.7-1.5,1.4c-0.9,0.7-1.6,1.1-1.9,1.2
		c-0.1,0-0.2-0.1-0.2-0.3c0-0.2,0.2-0.5,0.6-0.9C64,9,64.3,8.8,64.6,8.5c-0.1,0-0.3,0-0.6,0c-1.1,0-2,0.1-2.7,0.2
		C60.4,8.9,60,9,60,9c-0.3,0-0.5-0.1-0.5-0.4c0-0.3,0.1-0.5,0.3-0.7c0.4-0.4,1.9-0.6,4.6-0.6h0.9C66.2,7.3,66.7,7.5,66.8,7.9z"/>
	<path class="st0" d="M91.6,5.4c0,0.2-0.2,0.6-0.6,1.1c-0.4,0.5-0.7,0.7-1,0.7l-1.2-0.4c-1.8-0.6-3.8-0.8-6-0.8c-0.1,0-0.2,0-0.3,0
		c-0.2,0-0.3,0-0.4,0c-0.4,1.7-0.9,3.2-1.6,4.3c1.4-0.7,2.9-1,4.7-1c1.2,0,2.2,0.2,3.1,0.7c1.1,0.5,1.7,1.3,1.7,2.4
		c0,1.7-1,3-3.1,3.8c-1.5,0.6-3.2,0.9-5.2,0.9c-0.6,0-1.1-0.2-1.5-0.5c-0.5-0.4-0.8-0.8-0.8-1.3c0-0.2,0.1-0.3,0.3-0.3
		c0.4,0,0.9,0.1,1.6,0.2c0.7,0.1,1.2,0.1,1.6,0.1c1.4,0,2.6-0.2,3.6-0.6c1.4-0.6,2.2-1.4,2.2-2.5c0-0.7-0.5-1.3-1.4-1.6
		c-0.7-0.2-1.4-0.3-2.3-0.3c-1,0-2,0.2-3,0.7c-0.6,0.3-1.4,0.7-2.2,1.2c-0.7,0.5-1.1,0.7-1.2,0.7c-0.2,0-0.3-0.1-0.5-0.3
		c-0.1-0.2-0.2-0.3-0.2-0.5c0-0.2,0.1-0.3,0.3-0.6c1.3-1.6,2.2-3.4,2.7-5.2c-1.8,0.2-3.4,0.5-4.7,1c-0.6,0.2-0.9,0.3-1,0.3
		c-0.4,0-0.6-0.2-0.6-0.5c0-0.4,0.1-0.7,0.3-0.9c0.2-0.3,0.5-0.4,0.9-0.5c0.8-0.1,2.6-0.4,5.4-0.6C81,4.1,81,3.3,81,2.5
		c0-0.6,0.2-0.9,0.6-0.9c0.5,0,0.8,0.4,0.8,1.1c0,0.5-0.1,1.2-0.3,2.2c2.1,0,3.9,0,5.5,0.1c1.9,0.1,2.7,0.2,2.5,0.2
		c1.3,0,1.6,0,0.8,0C91.4,5.1,91.6,5.2,91.6,5.4z"/>
	<path class="st0" d="M113.8,9.2c0,2.8-1.5,4.9-4.6,6.3c-1.2,0.6-2.2,0.9-2.9,0.9c-0.4,0-0.8-0.2-1.2-0.5c-0.4-0.3-0.7-0.7-0.7-1.1
		c0-0.1,0.2-0.3,0.6-0.3c0.3,0,0.7-0.1,1.2-0.2c1.4-0.2,2.6-0.6,3.5-1.1c0.8-0.5,1.5-1.1,2-1.8c0.6-0.8,0.8-1.7,0.8-2.6
		c0-0.7-0.2-1.5-0.7-2.2c-0.9-1.6-2.5-2.4-4.8-2.4c-0.1,0-0.2,0-0.4,0c-0.2,0-0.3,0-0.3,0c-0.9,4.1-2.1,7.2-3.6,9
		c-0.9,1.1-1.6,1.6-2.2,1.6c-0.8,0-1.5-0.6-2.1-1.9c-0.4-1-0.6-2-0.6-3c0-1.5,0.5-2.9,1.5-4.1c1.6-1.9,4-2.8,7.2-2.8
		c2,0,3.7,0.5,5.1,1.6C113.1,5.7,113.8,7.2,113.8,9.2z M104.8,4.3c-2.1,0.4-3.6,1.1-4.5,2.2c-0.9,1.1-1.4,2.2-1.4,3.2
		c0,0.6,0.1,1.2,0.4,2c0.3,0.9,0.7,1.3,1.2,1.3c0.4,0,0.9-0.3,1.4-1C103.1,10.4,104.1,7.8,104.8,4.3z"/>
	<path class="st0" d="M127.4,5.1h0.2c0.3-1.3,0.5-2.4,0.6-3.5c0-0.5,0.3-0.7,0.6-0.7c0.5,0,0.8,0.3,0.9,0.8c0,0.1-0.1,0.4-0.2,0.9
		c-0.2,0.9-0.4,1.8-0.6,2.5h5.9c0.1,0,0.4-0.1,0.9-0.2c0.6,0,0.9,0.3,0.9,0.9c-0.5,1.9-0.8,3.8-0.9,5.7c-0.2,2.6-0.8,4.3-1.8,5.2
		c-0.8,0.8-1.8,1.1-3,1.1c-0.4,0-0.7-0.2-1-0.5c-0.2-0.3-0.2-0.6-0.2-0.8c0-0.3,0.1-0.4,0.4-0.5c1.6-0.1,2.6-0.5,3.1-1
		c0.6-0.6,1-2.3,1.4-5.2c0.2-1.8,0.3-2.9,0.3-3.3c0-0.2-0.1-0.4-0.3-0.4h-6c-0.4,1.5-0.8,2.6-1.2,3.6c-0.6,1.5-1.5,3-2.6,4.3
		c-0.9,1.1-2.1,2.1-3.6,2.9c-0.6,0.3-1.1,0.5-1.5,0.5c-0.3,0-0.5-0.2-0.8-0.5c-0.3-0.4-0.4-0.7-0.5-1c0-0.2,0.1-0.3,0.3-0.4
		c1.5-0.3,2.7-0.8,3.5-1.4c1.1-0.8,2.2-1.9,3.2-3.5c0.8-1.3,1.4-2.8,1.9-4.5c-1.1,0-2.1,0.1-3.2,0.2c-0.8,0.1-1.3,0.2-1.5,0.2
		c-0.4,0-0.6-0.2-0.6-0.5c0-0.5,0.2-0.9,0.7-0.9C123.5,5.1,125,5.1,127.4,5.1z"/>
	<path class="st0" d="M158.2,13.9c0,0.6-0.2,1.1-0.5,1.5c-0.3,0.4-0.8,0.7-1.3,0.8c-0.9,0.2-2.6,0.3-5.2,0.3c-4.7,0-7-1-7-3.1
		c0-1,0.4-1.9,1.3-2.8c0.2-0.2,1-0.9,2.4-2.1c-0.2-1-0.2-1.8-0.2-2.6V3.6c0-1.5,0.3-2.3,0.8-2.3c0.6,0,0.9,0.3,0.9,0.9
		c0,0.1,0,0.3-0.1,0.5c-0.1,0.3-0.1,0.5-0.1,0.6c-0.1,0.7-0.1,1.6-0.1,2.7c0,0.5,0,1.1,0.1,1.5c2.3-1.7,3.7-2.6,4.2-2.6
		c0.3,0,0.5,0.1,0.6,0.3c0.1,0.2,0.2,0.3,0.4,0.5c0,0.4-0.3,0.7-0.8,1c-1,0.5-2.1,1.1-3.1,1.6c-1.5,0.8-2.7,1.6-3.5,2.3
		c-1.1,0.9-1.7,1.8-1.7,2.7c0,1.1,1,1.7,3.1,1.7c1.3,0,2.9-0.1,4.7-0.3c1.5-0.2,2.8-0.5,3.9-0.8c0.4-0.2,0.8-0.2,1-0.2
		C158.1,13.6,158.2,13.7,158.2,13.9z"/>
	<path class="st0" d="M174.7,7.5c0,0.9-0.4,2.2-1.1,3.7c-0.7,1.4-1.7,2.7-3.2,3.8c-1.5,1.2-2.6,1.8-3.4,1.8c-0.3,0-0.7-0.2-1.2-0.7
		c-0.5-0.4-0.8-0.8-0.8-1.1c0-0.1,0.3-0.2,0.8-0.3c0.8-0.1,1.7-0.5,2.8-1c1.2-0.6,2.3-1.4,3.1-2.5c1-1.2,1.5-2.4,1.6-3.7
		c0-0.8,0.2-1.2,0.6-1.2C174.5,6.5,174.7,6.8,174.7,7.5z M182,4c0,0.6-0.6,1.5-1.9,2.7c-1.3,1.3-2.3,2-2.9,2.2
		c-0.3,0-0.4-0.1-0.4-0.4l1.4-1.6c0.9-1.1,1.3-1.8,1.3-2.2c-0.3-0.1-1.4-0.2-3.3-0.2c-2.2,0-4.3,0.2-6.3,0.6
		c-1.4,0.2-2.1,0.4-2.1,0.4c-0.4,0-0.7-0.3-0.7-0.8c0-0.4,0.1-0.7,0.4-1c0.3-0.3,2-0.4,5.2-0.4h2.6c1.7,0,3.3,0.1,4.8,0.2
		c0.1-0.1,0.4-0.1,0.9-0.1c0.2,0,0.4,0.1,0.6,0.2C181.9,3.6,182,3.8,182,4z"/>
	<path class="st0" d="M202.5,2.5c0,0.5-0.7,1.4-2,2.6c-1.1,1-2,1.7-2.8,2.2c0,1.8,0,3.6,0,5.2c0,0.3,0,0.9,0.1,1.8
		c0.1,0.8,0.1,1.4,0.1,1.8c0,0.8-0.2,1.3-0.6,1.3c-0.7,0-1-0.4-1-1.3c0-3.7,0-6.4,0.1-8c-3,1.5-5.3,2.2-6.9,2.2
		c-0.4,0-0.9-0.2-1.3-0.6c-0.4-0.4-0.6-0.9-0.6-1.3c0-0.2,0.3-0.3,0.8-0.4c0.3,0,0.7,0,1.2,0c2.8-0.2,5.2-0.8,7.2-2
		c1.9-1.1,3.2-2.2,4-3.3c0.4-0.6,0.8-0.9,1.2-0.9C202.3,1.8,202.5,2,202.5,2.5z"/>
	<path class="st0" d="M226.4,7c0,0.4-0.3,0.9-0.7,1.4c-0.4,0.5-0.8,0.8-1.2,0.8c-0.1,0-0.4-0.2-1-0.5c-1.2-0.6-3-0.9-5.4-1
		c0,0.2,0,0.4,0,0.7c0,0.3,0,0.6,0,0.7c0,1.1-0.2,2.2-0.7,3.4c-0.4,1.2-1,2.1-1.8,2.8c-1,1.1-1.9,1.6-2.5,1.6
		c-0.3,0-0.6-0.1-1.1-0.4c-0.5-0.3-0.7-0.6-0.7-0.8c0-0.2,0.1-0.3,0.4-0.3c0.6-0.2,1.2-0.5,2-1c0.9-0.6,1.6-1.3,2.2-2.3
		c0.6-1,0.9-2,0.9-3c0-0.2,0-0.4-0.1-0.7c0-0.3,0-0.6,0-0.7c-2.8,0.1-5,0.4-6.4,0.9c-0.9,0.3-1.4,0.5-1.3,0.5
		c-0.4,0-0.6-0.2-0.6-0.7c0-0.4,0.1-0.8,0.4-1c0.7-0.5,3.6-0.8,8.8-0.8c0.8,0,2.1,0,3.8,0.1c1.7,0.1,3,0.1,3.8,0.1
		c0.4,0,0.7,0,0.9-0.1C226.2,6.8,226.3,6.9,226.4,7z M222.7,2.9c0,0.2-0.1,0.5-0.3,0.6c-0.2,0.2-0.5,0.3-0.7,0.3c-0.4,0-1,0-1.8-0.1
		c-0.8-0.1-1.4-0.1-1.8-0.1c-1.4,0-2.6,0-3.6,0.1c-1.8,0.1-2.6,0.2-2.4,0.2c-0.3,0-0.4-0.1-0.4-0.3c0-0.3,0.1-0.6,0.3-0.9
		c0.2-0.3,0.5-0.4,0.7-0.4c-0.1,0,0,0,0.4,0c0.1,0,0.2,0,0.4,0c0.8,0,2,0,3.5,0c1.6,0,2.8,0,3.6,0C222,2.4,222.7,2.6,222.7,2.9z
		 M226.2,2.8c0,0.2-0.2,0.4-0.5,0.6c-0.3,0.2-0.6,0.4-0.7,0.4c-0.3,0-0.6-0.4-1.1-1.2c-0.5-0.8-0.7-1.4-0.7-1.7c0-0.2,0-0.3,0.1-0.3
		c0.1,0,0.3,0.1,0.4,0.2c0.8,0.8,1.5,1.4,2,1.6C225.9,2.5,226.1,2.6,226.2,2.8z M229.2,1.7c0,0.1-0.2,0.3-0.5,0.6
		c-0.3,0.3-0.5,0.4-0.7,0.4c-0.4-0.1-0.8-0.5-1.3-1.1s-0.8-1.2-0.8-1.5c0-0.1,0-0.2,0.1-0.2c0,0,0.4,0.2,1.1,0.7
		c0.7,0.5,1.3,0.7,1.6,0.8C229,1.5,229.1,1.6,229.2,1.7z"/>
	<path class="st0" d="M240.7,7.5c0,0.9-0.4,2.2-1.1,3.7c-0.7,1.4-1.7,2.7-3.2,3.8c-1.5,1.2-2.6,1.8-3.4,1.8c-0.3,0-0.7-0.2-1.2-0.7
		c-0.5-0.4-0.8-0.8-0.8-1.1c0-0.1,0.3-0.2,0.8-0.3c0.8-0.1,1.7-0.5,2.8-1c1.2-0.6,2.3-1.4,3.1-2.5c1-1.2,1.5-2.4,1.6-3.7
		c0-0.8,0.2-1.2,0.6-1.2C240.5,6.5,240.7,6.8,240.7,7.5z M248.1,4c0,0.6-0.6,1.5-1.9,2.7c-1.3,1.3-2.3,2-2.9,2.2
		c-0.3,0-0.4-0.1-0.4-0.4l1.4-1.6c0.9-1.1,1.3-1.8,1.3-2.2c-0.3-0.1-1.4-0.2-3.3-0.2c-2.2,0-4.3,0.2-6.3,0.6
		c-1.4,0.2-2.1,0.4-2.1,0.4c-0.4,0-0.7-0.3-0.7-0.8c0-0.4,0.1-0.7,0.4-1c0.3-0.3,2-0.4,5.2-0.4h2.6c1.7,0,3.3,0.1,4.8,0.2
		c0.1-0.1,0.4-0.1,0.9-0.1c0.2,0,0.4,0.1,0.6,0.2C248,3.6,248.1,3.8,248.1,4z"/>
	<path class="st0" d="M270.5,6.8c0,0.3-0.3,0.6-0.9,1c-1.4,0.9-3.4,2-6,3.4c0,0.1,0,0.4,0,0.8c0,0.3,0,0.6,0,0.8
		c0,0.5-0.3,0.7-0.8,0.7c-0.3,0-0.5-0.2-0.6-0.6c0-0.1,0-0.4,0-1c-1,0.5-1.6,0.8-1.9,1.1c-0.8,0.6-1.2,1.1-1.2,1.7
		c0,0.4,0.4,0.6,1.2,0.8c0.6,0.1,1.2,0.2,1.8,0.2c1.7,0,3.3-0.3,4.7-0.8c1.1-0.4,1.6-0.6,1.7-0.6c0.1,0,0.2,0.1,0.2,0.4
		c0,0.5-0.2,1-0.5,1.5c-0.2,0.4-0.9,0.6-1.9,0.8c-0.8,0.1-1.7,0.1-2.7,0.1c-1.3,0-2.4-0.1-3.4-0.4c-1.5-0.4-2.2-1.1-2.2-2
		c0-0.8,0.6-1.6,1.7-2.4c0.2-0.2,1.1-0.7,2.6-1.7c0-0.9-0.1-1.4-0.1-1.6c-0.2-0.6-0.6-0.9-1.2-0.9c-0.9,0-1.6,0.2-2.2,0.5
		c-0.3,0.1-0.9,0.6-1.9,1.4c-0.1,0.1-0.3,0.2-0.5,0.3c-0.4,0-0.7-0.3-0.7-0.9c0-0.4,0.5-0.9,1.4-1.4c1.3-0.8,2.5-1.8,3.5-3.2
		c-0.5,0.1-1.3,0.2-2.3,0.3c0,0-0.3,0.1-0.9,0.2c-0.4,0.1-0.7,0.2-0.9,0.2c-0.4,0-0.6-0.2-0.6-0.7c0-0.6,0.5-0.9,1.4-1
		c0.9,0,2.2-0.1,3.9-0.1c0.2-0.3,0.5-0.9,0.9-1.9c0.2-0.5,0.5-0.7,0.9-0.7c0.5,0,0.8,0.2,0.8,0.7c0,0.2-0.3,0.8-1,1.9
		c0.5,0,1.2,0,2.3,0c1,0,1.8,0,2.3,0c0.1,0,0.3,0,0.6,0c0.2,0,0.4-0.1,0.6-0.1c0.1,0,0.2,0.1,0.3,0.2c0,0.3-0.2,0.6-0.5,1
		c-0.3,0.4-0.6,0.6-0.9,0.6c-0.3,0-0.6-0.1-0.9-0.2c-0.3-0.1-0.6-0.1-0.9-0.2c-0.7-0.2-1.8-0.3-3.3-0.3c-0.8,1-1.5,1.9-2.2,2.6
		c0.6-0.1,1.1-0.1,1.6-0.1c1.3,0,2.1,0.8,2.2,2.3c0,0.2,0,0.3,0.1,0.4c2.1-1.3,3.9-2.4,5.2-3.3c0.4-0.3,0.8-0.4,1.1-0.4
		C270.2,6.1,270.5,6.3,270.5,6.8z"/>
	<path class="st0" d="M284.7,16.8c0,0.3-0.3,0.6-0.9,1c-0.6,0.4-1,0.6-1.3,0.6c-0.3,0-0.6-0.3-1-0.8c-0.8-1.2-1.7-2.3-2.4-3.1
		c-0.7-0.8-1-1.3-1-1.5c0-0.3,0.2-0.4,0.5-0.4c0.2,0,1.5,0.9,3.8,2.8c0.5,0.4,1.2,0.8,2.1,1.2C284.5,16.5,284.6,16.6,284.7,16.8z"/>
	<path class="st0" d="M303.8,1c0.3,0,0.5,0.1,0.5,0.4c0.3,0,0.6,0.3,1.2,0.7c3.5,2.4,5.7,3.7,6.6,4c0.6,0.1,1.2,0.3,2,0.3
		c0.3,0,0.5,0.1,0.5,0.4c0,0.4-0.3,0.7-0.8,1.1c-0.5,0.4-1.1,0.6-1.7,0.6c-0.4,0-0.8-0.2-1.1-0.5c-1.4-1.4-3-2.7-4.8-4.1
		c-0.8-0.6-1.5-1-2.1-1.2c-0.1,0-0.2-0.1-0.2-0.1c-1.2,1.3-2.6,2.4-4,3.4c-1.2,0.8-2.6,1.5-4.2,2C295.2,8,295,8,294.8,8
		c-0.4,0-0.8-0.2-1.2-0.7c-0.4-0.3-0.6-0.6-0.6-0.9c0-0.2,0.3-0.3,0.7-0.4c1.1-0.1,2-0.2,2.5-0.4c1.3-0.3,2.6-0.8,3.9-1.6
		c1.2-0.8,2.3-1.7,3.1-2.8C303.4,1.1,303.6,1,303.8,1z M303.2,10.3c1.1,0,2.5,0.1,4.2,0.2c0.4-0.1,0.6-0.2,0.8-0.2
		c0.4,0,0.7,0.2,0.7,0.6c0,0.2-0.1,0.5-0.4,0.8c-0.4,0.4-0.9,1.1-1.4,2.2c-0.8,1.3-1.2,2.2-1.4,2.8c-0.2,0.7-0.6,1-1.2,1
		c-0.3,0-0.5-0.2-0.5-0.5c0.6-1.5,1.5-3.3,2.8-5.4c0-0.2-0.1-0.3-0.2-0.3c-0.3,0-1,0-1.9,0c-1.2,0-2.4,0-3.6,0.1
		c-0.8,0-1.6,0.2-2.4,0.3c-0.4,0-0.7-0.2-0.7-0.5c0-0.2,0.1-0.5,0.3-0.7c0.2-0.2,0.6-0.3,1-0.4C300.5,10.3,301.9,10.3,303.2,10.3z
		 M301.1,6.8h6.2c0.2,0,0.4,0.1,0.4,0.3c0,0.3-0.1,0.6-0.3,0.8c-0.2,0.2-0.5,0.3-0.8,0.3c-0.1,0-0.5-0.1-1-0.2
		c-0.6,0-1.2-0.1-1.8-0.1c-1.2,0-2,0.1-2.5,0.2c-0.3,0.1-0.5,0.2-0.6,0.2c-0.5,0-0.7-0.3-0.8-0.7c0-0.2,0.2-0.4,0.4-0.6
		C300.5,6.9,300.8,6.8,301.1,6.8z"/>
	<path class="st0" d="M333.5,13.7c-0.2,1.3-0.8,2.1-1.8,2.4c-0.4,0.1-1.4,0.2-3.2,0.2c-2,0-3.8-0.2-5.2-0.6
		c-2.3-0.6-3.4-1.7-3.4-3.2c0-0.5,0.1-0.9,0.4-1.4c0.3-0.6,0.6-0.9,1.1-0.9c0.1,0,0.2,0.1,0.2,0.3c0,0.1-0.2,0.4-0.4,0.9
		c-0.2,0.4-0.3,0.7-0.3,1c0,1.3,1.5,2,4.6,2c2.4,0,4.3-0.2,5.8-0.6c1.4-0.3,2-0.5,2-0.5C333.4,13.4,333.5,13.5,333.5,13.7z
		 M330.4,4.9c0,0.2-0.3,0.5-0.9,0.8c-2.5,1.2-3.9,1.8-4.1,1.8c-0.2,0-0.3-0.1-0.3-0.3c0-0.3,0.4-0.6,1.2-1.1
		c0.8-0.5,1.2-0.8,1.3-0.9c-0.1-0.1-0.4-0.1-0.8-0.1c-1.5,0-2.6,0.1-3.4,0.2c-1.1,0.1-1.6,0.2-1.6,0.2c-0.5,0-0.7-0.2-0.7-0.5
		c0-0.7,0.5-1.1,1.4-1.2c0.2,0,1-0.1,2.1-0.1h1.5C329,3.6,330.4,4.1,330.4,4.9z"/>
	<path class="st0" d="M356.8,8.2c0,0.4-0.2,0.6-0.7,0.6c-0.4,0-1.1,0-2-0.1c-0.9,0-1.5-0.1-2-0.1c-0.7,0-1.2,0-1.6,0.1
		c-0.8,0.2-1.6,0.7-2.4,1.4c-0.8,0.8-1.2,1.6-1.2,2.4c0,1,0.4,1.7,1.2,2.2c0.7,0.4,1.5,0.6,2.6,0.6c0.9,0,1.5-0.1,1.9-0.2
		c0.5-0.1,0.8-0.2,0.8-0.2c0.2,0,0.3,0.2,0.3,0.5c0,0.4-0.2,0.8-0.7,1.3c-0.5,0.5-1,0.8-1.8,0.8c-1,0-2-0.2-3.1-0.7
		c-1.7-0.7-2.6-2-2.6-3.9c0-0.8,0.3-1.6,1-2.4c0.6-0.8,1.2-1.3,2-1.6c-3.3,0.3-6.1,0.9-8.3,1.8c-0.5,0-0.8-0.2-0.8-0.6
		c0-0.3,0.1-0.6,0.3-0.8c0.2-0.2,0.6-0.4,1.1-0.5c1.9-0.5,3.6-1.2,5.1-2c1.4-0.8,2.8-2,4.2-3.5c-1.2,0.2-2.7,0.3-4.3,0.5
		c-1.3,0.1-2,0.2-2.3,0.2c-0.5,0-0.8-0.2-0.8-0.6c0-0.3,0.1-0.5,0.3-0.7c0.2-0.2,0.4-0.3,0.7-0.3c0.2,0,0.4,0,0.7,0
		c0.3,0,0.6,0.1,0.7,0.1c0.4,0,0.8,0,1.3-0.1c0.7-0.1,1.2-0.1,1.4-0.1l1.9-0.1c0.2,0,0.6-0.1,1.1-0.1c0.4-0.1,0.8-0.1,1.1-0.1
		c0.4,0,0.6,0.3,0.8,0.9c-0.1,0.4-1.3,1.4-3.6,2.9c-1.8,1.2-3.2,2.1-4.3,2.7c1.6-0.4,3.8-0.6,6.4-0.9c2.3-0.2,3.5-0.4,3.7-0.4
		c0.4,0,0.8,0.1,1.1,0.4C356.6,7.6,356.8,7.9,356.8,8.2z"/>
	<path class="st0" d="M368.3,2.4c0.4,0,0.6,0.2,0.6,0.5c0,0.2-0.1,0.4-0.2,0.6c-0.3,0.6-0.6,1.2-1,1.7h3.9l0-3
		c0-0.6,0.3-0.8,0.8-0.8c0.6,0,0.9,0.3,0.9,0.8l0,3h5.6c0.2,0,0.4,0.1,0.4,0.3c0,0.3-0.1,0.6-0.3,0.8c-0.2,0.2-0.5,0.3-0.8,0.3
		c-0.3,0-0.9-0.1-2-0.2c-0.9,0-1.8-0.1-2.8-0.1l0,3.5h4.8c0.2,0,0.4,0.1,0.4,0.3c0,0.3-0.1,0.6-0.3,0.8c-0.2,0.2-0.5,0.3-0.8,0.3
		c-0.3,0-0.9-0.1-1.8-0.2c-0.7,0-1.4-0.1-2.2-0.1l-0.1,3.8c1.3,0,2.8,0.2,4.3,0.4c1.5,0.2,2.9,0.3,4.2,0.3c0.4,0,0.8,0,1.1-0.1
		c0.1,0,0.1,0.1,0.1,0.3c0,0.4-0.1,0.9-0.3,1.3c-0.3,0.5-0.5,0.7-0.8,0.7c-0.4,0-0.8-0.1-1.2-0.3c-1.6-0.6-3.1-1-4.4-1.2
		c-1.1-0.1-2.3-0.2-3.9-0.2c-1.8,0-3.3,0.1-4.6,0.3c-1.4,0.3-2.8,0.7-4.1,1.2c-0.4,0.2-0.7,0.2-1,0.2c-0.5,0-0.7-0.3-0.7-0.8
		c0-0.3,0.1-0.5,0.4-0.7c0.2-0.2,0.5-0.3,0.8-0.4c4-0.6,6.9-1,8.7-1l-0.1-3.8c-1.6,0-2.8,0.1-3.6,0.3c-0.5,0.1-0.8,0.2-0.9,0.2
		c-0.5,0-0.8-0.3-0.8-0.8c0-0.2,0.2-0.4,0.4-0.6c0.2-0.1,0.5-0.2,0.9-0.2h4.1l0-3.5c-1.6,0-2.8,0.1-3.6,0.2c-0.5,0.1-0.9,0.2-1,0.2
		c-0.2,0-0.3,0-0.4-0.1c-0.3,0.4-0.6,0.7-0.8,1.1c-0.4,0.5-0.8,0.7-1.1,0.7c-0.3,0-0.7-0.1-1.1-0.4c-0.4-0.3-0.5-0.6-0.5-0.9
		c0-0.2,0.2-0.4,0.5-0.4c0.8-0.3,1.6-0.8,2.3-1.4c0.8-0.7,1.4-1.6,2.1-2.8C368.1,2.4,368.2,2.4,368.3,2.4z"/>
	<path class="st0" d="M387.8,2.6c0.6,0,0.9,0.2,0.9,0.7c0,0.6-0.1,1.2-0.2,2.1c0,0.2,0.1,0.3,0.4,0.3c0.6,0,1.4-0.1,2.2-0.1
		c0-1.1,0-2.4-0.1-3.7c0-0.6,0.2-0.9,0.7-0.9s0.7,0.3,0.7,0.9c0,1.4-0.1,2.6-0.1,3.8c0.5,0,1.1,0,1.9,0.1c0.2,0,0.3,0.1,0.3,0.4
		c0,0.3-0.1,0.5-0.3,0.6c-0.2,0.1-0.4,0.1-0.6,0.1c-0.5,0-0.9-0.1-1.2-0.1l0,3.3c0.7-0.2,1.3-0.3,1.8-0.4c0.3,0,0.4,0.1,0.4,0.4
		c0,0.4-0.2,0.6-0.5,0.6c-0.6,0.2-1.1,0.4-1.7,0.6l0,5.1c0,1-0.3,1.5-0.8,1.5c-0.4,0-0.6-0.5-0.6-1.5c0-1.7,0-3.2,0-4.6
		c-1.3,0.5-2.5,1.1-3.6,1.7c-0.5,0-0.7-0.2-0.7-0.6c0-0.4,0.1-0.6,0.2-0.8c0.1-0.2,0.3-0.4,0.6-0.5c1.4-0.4,2.6-0.8,3.6-1.1
		c0-1.4,0-2.6,0-3.7c-0.8,0-1.5,0.1-2.3,0.2c-0.5,0-0.9,0.1-1.2,0.3c-0.2,0.1-0.3,0.1-0.3,0.1c-0.4,0-0.6-0.2-0.6-0.5
		c0-0.1,0.1-0.4,0.4-0.7c0.1-0.4,0.2-0.8,0.2-1.2c0-0.2,0-0.5,0-0.9c-0.1-0.4-0.1-0.7-0.1-0.8C387.2,2.8,387.4,2.6,387.8,2.6z
		 M399.4,1.3c0.4,0,0.6,0.2,0.6,0.5c0,0.2-0.1,0.4-0.2,0.6c-0.3,0.6-0.6,1.2-0.9,1.8c0.6,0,1.4,0,2.5,0h4.6c0.1,0,0.4-0.1,0.8-0.2
		c0.6,0,0.8,0.3,0.8,0.8c-0.4,2.1-0.6,4.1-0.7,6.2c-0.2,2.8-0.6,4.7-1.4,5.6c-0.6,0.8-1.4,1.2-2.3,1.2c-0.4,0-0.8-0.2-1-0.5
		c-0.2-0.3-0.3-0.6-0.3-0.9c0-0.3,0.1-0.4,0.4-0.5c1.3-0.1,2.1-0.5,2.4-1.1c0.4-0.6,0.8-2.5,1.1-5.6C406,7.2,406,6,406,5.6
		c0-0.2-0.1-0.4-0.3-0.4h-1.6c0,0,0,0.1,0,0.1l0,0.2C404,6,403.8,6.8,403.5,8c-0.5,1.9-1.2,3.6-2.1,5.1c-0.5,1-1.1,1.8-1.8,2.5
		c-0.9,0.8-1.5,1.2-1.8,1.2c-0.3,0-0.6-0.2-1-0.6c-0.3-0.3-0.5-0.6-0.5-0.8c0-0.2,0.2-0.3,0.6-0.4c0.7-0.2,1.5-0.7,2.2-1.5
		c0.8-0.7,1.7-2,2.5-3.8c0.6-1.4,1-2.9,1.1-4.4c0,0,0-0.1,0-0.1h-0.5c-0.4,0-0.8,0-1.2,0l0,0.1c-0.1,0.4-0.3,0.9-0.5,1.7
		c-0.4,1.3-1,2.4-1.7,3.5c-0.4,0.7-0.9,1.2-1.5,1.7c-0.7,0.5-1.2,0.8-1.5,0.8c-0.3,0-0.6-0.2-0.9-0.5c-0.3-0.3-0.4-0.6-0.4-0.8
		c0-0.2,0.2-0.3,0.6-0.4c0.6-0.1,1.2-0.4,1.8-1c0.7-0.4,1.3-1.2,2-2.4c0.4-0.9,0.8-1.7,0.9-2.6c-0.2,0-0.4,0-0.6,0.1
		c-0.6,0.1-0.9,0.2-1.1,0.2c-0.1,0-0.2,0-0.2,0c-0.1,0.2-0.3,0.4-0.4,0.6c-0.3,0.4-0.6,0.7-0.8,0.7c-0.3,0-0.6-0.1-1-0.4
		s-0.5-0.5-0.5-0.8c0-0.2,0.2-0.2,0.5-0.3c0.7-0.3,1.3-0.7,1.8-1.3c0.6-0.6,1.1-1.4,1.7-2.5C399.2,1.3,399.3,1.3,399.4,1.3z"/>
	<path class="st0" d="M426.8,6.8c0.4,0,0.6,0.2,0.6,0.6c0,0.2-0.1,0.3-0.3,0.5c0,0-0.1,0.1-0.1,0.1c0.8,0.6,1.5,1.2,2.3,1.8
		c0.2,0,0.5,0.1,0.6,0.3c0.2,0.2,0.4,0.4,0.4,0.7c0,0.3-0.4,0.6-1.1,1c-3.7,2.4-7.2,4.2-10.5,5.3c-1.3,0.5-2.8,0.8-4.4,0.8
		c-0.4,0-0.7-0.1-1-0.4c-0.6-0.6-0.8-1.1-0.8-1.7c0-0.4,0.1-0.6,0.4-0.6c0.2,0,0.4,0.1,0.6,0.2c0.4,0.2,0.8,0.2,1.4,0.2
		c1.8,0,3.4-0.2,4.7-0.5c1-0.3,2-0.6,3.1-1.1c-0.6-0.6-1-1-1.3-1.1c-0.3-0.1-0.4-0.3-0.4-0.5c0-0.5,0.3-0.8,0.8-0.8
		c0,0,0.4,0.3,0.9,0.8c0.5,0.5,0.8,0.9,0.8,1.1c0.9-0.4,1.8-0.8,2.7-1.3c1.5-0.8,2.3-1.3,2.3-1.5c0-0.1-0.1-0.3-0.4-0.5
		c-0.7-0.4-1.3-0.8-1.9-1.2c-0.1-0.1-0.3-0.2-0.3-0.4c-2.2,1.3-4.1,2.3-5.9,3c-1.5,0.6-2.6,0.9-3.3,0.9c-0.4,0-0.7-0.1-1-0.4
		c-0.3-0.2-0.4-0.5-0.4-0.8c0-0.2,0.1-0.3,0.3-0.4c2.7-0.5,4.7-1,6.1-1.6c1.3-0.4,2.8-1.2,4.7-2.4C426.5,6.9,426.6,6.8,426.8,6.8z
		 M424.7,0.8c0.4,0,0.5,0.2,0.6,0.6c0,0.1,0,0.2-0.1,0.3c0.6,0.5,1.2,1,1.8,1.6c0.2,0,0.4,0.1,0.5,0.3c0.2,0.2,0.3,0.4,0.3,0.6
		c0,0.2-0.3,0.5-0.9,0.7c-2.8,1.8-5.4,3.1-7.9,3.9c-1,0.4-2.1,0.6-3.3,0.6c-0.2,0-0.5-0.1-0.7-0.4c-0.4-0.5-0.6-1-0.6-1.4
		c0-0.3,0.1-0.5,0.3-0.5c0.2,0,0.3,0.1,0.5,0.2c0.3,0.1,0.8,0.2,1.3,0.2c1.3,0,2.3-0.1,3.2-0.4c0.4-0.1,0.8-0.2,1.1-0.4
		c-0.5-0.5-0.9-0.8-1.2-1c-0.3-0.1-0.4-0.3-0.4-0.5c0-0.5,0.3-0.8,0.8-0.8c0.1,0,0.4,0.3,0.9,0.8c0.5,0.5,0.7,0.8,0.8,1.1
		c0.8-0.3,1.7-0.7,2.5-1.2c1-0.5,1.5-0.9,1.5-1.1c0-0.1-0.1-0.3-0.3-0.4c-0.4-0.4-0.9-0.8-1.3-1.1c-0.1-0.1-0.2-0.2-0.2-0.3
		c-1.8,0.9-3.4,1.5-4.9,2c-1.2,0.4-2.1,0.6-2.7,0.6c-0.4,0-0.7-0.1-0.9-0.4c-0.3-0.2-0.4-0.5-0.4-0.8c0-0.2,0.1-0.3,0.3-0.4
		c2.2-0.3,3.9-0.6,5-1c1-0.3,2.3-0.8,3.8-1.5C424.3,0.9,424.5,0.8,424.7,0.8z"/>
	<path class="st0" d="M437.7,4.4h2.8c0-0.8-0.1-1.7-0.1-2.5c0-0.6,0.2-0.9,0.7-0.9c0.5,0,0.8,0.3,0.8,0.9c0,0.9-0.1,1.7-0.1,2.5h2.6
		c0.2,0,0.3,0.1,0.3,0.3c0,0.3-0.1,0.5-0.3,0.7c-0.2,0.2-0.5,0.3-0.8,0.3c-0.2,0-0.5,0-1.1-0.1c-0.2,0-0.5,0-0.7,0c0,0.3,0,0.7,0,1
		l0,1.2c0,0,0.1,0,0.2,0c0,0,0.4,0.3,1,0.8c0.6,0.5,0.9,0.9,0.9,1.1c0,0.4-0.2,0.6-0.7,0.6c0,0-0.1,0-0.3-0.1
		c-0.5-0.4-0.9-0.8-1.2-0.9l0.1,7.5c0,1-0.3,1.5-0.9,1.5c-0.4,0-0.6-0.5-0.6-1.5c0-2.8,0-5.1,0-7.1c-0.4,0.5-0.7,1-1.1,1.4
		c-0.5,0.6-1,1-1.7,1.4c-0.1,0.1-0.2,0.1-0.3,0.1c-0.4,0-0.7-0.2-1.1-0.6c-0.3-0.3-0.5-0.6-0.5-0.9c0-0.2,0.2-0.3,0.6-0.3
		c0.4-0.1,0.8-0.1,1-0.2c0.5-0.2,1-0.5,1.5-0.9c0.5-0.5,0.9-1,1.2-1.6c0.1-0.1,0.2-0.2,0.3-0.2c0-0.4,0-0.7,0-1c0-0.3,0-0.7,0-1
		c-1.2,0-2.1,0.1-2.7,0.2c-0.3,0.1-0.5,0.2-0.6,0.2c-0.4,0-0.7-0.2-0.7-0.6c0-0.2,0.1-0.4,0.4-0.6C437,4.4,437.3,4.4,437.7,4.4z
		 M448.2,1c0.4,0.1,0.6,0.3,0.7,0.6c0.2,0.9,0.3,1.5,0.3,1.7c0,0,0,0.1,0,0.1h3.4c0-0.1,0.2-0.8,0.6-2c0.1-0.3,0.3-0.4,0.7-0.4
		c0.5,0,0.8,0.3,0.8,0.7c0,0.1-0.1,0.3-0.2,0.4c-0.4,0.5-0.7,0.9-1,1.2c0,0-0.1,0.1-0.1,0.1h2.6c0.2,0,0.3,0.1,0.4,0.3
		c0,0.3-0.1,0.6-0.3,0.8c-0.2,0.2-0.5,0.3-0.9,0.3c-0.2,0-0.8-0.1-1.6-0.2c-0.7,0-1.4-0.1-2.1-0.1c0,0.1,0,0.2,0,0.4
		c0,0.4,0,0.8,0,1.1h3.4c0.2,0,0.3,0.1,0.3,0.2c0,0.3-0.1,0.5-0.3,0.7c-0.2,0.2-0.5,0.3-0.8,0.3c-0.2,0-0.6,0-1.3-0.1
		c-0.4,0-0.9,0-1.4,0c0,0.5,0,1,0,1.5c0.9,0,2.1,0.1,3.6,0.1c0.3,0,0.6,0,0.9,0c0.2,0,0.5,0,1-0.1c0.4-0.1,0.6-0.2,0.7-0.2
		c0.2,0,0.3,0.1,0.3,0.2c0,0.4-0.2,0.8-0.6,1.3c-0.4,0.5-0.7,0.7-1.1,0.7c-0.2,0-0.6-0.1-1.2-0.3c-1-0.3-2.2-0.5-3.6-0.6l0.1,6.6
		c0,1-0.3,1.5-0.8,1.5c-0.4,0-0.6-0.5-0.6-1.5c0-2.7,0-4.9,0-6.6c-1.9,0-3.2,0.1-4,0.4c-0.4,0.1-0.7,0.2-1,0.2
		c-0.4,0-0.6-0.2-0.6-0.6c0-0.2,0.1-0.5,0.3-0.7c0.2-0.2,0.4-0.3,0.6-0.3c0.2,0,0.3,0,0.5,0.1c1.6-0.2,3-0.3,4.2-0.3
		c0-0.5,0-1,0-1.5c-1.1,0-1.9,0.1-2.4,0.1c-0.4,0.1-0.6,0.1-0.7,0.1c-0.4,0-0.6-0.2-0.7-0.6c0-0.2,0.1-0.4,0.4-0.6
		c0.2-0.1,0.4-0.2,0.8-0.2h2.6c0-0.4,0-0.7,0-1.1c0-0.1,0-0.3,0-0.4c-1.4,0-2.4,0.1-3,0.2c-0.4,0.1-0.7,0.2-0.9,0.2
		c-0.4,0-0.7-0.2-0.7-0.6c0-0.2,0.1-0.5,0.4-0.6c0.2-0.1,0.5-0.2,0.8-0.2h1.7c0,0-0.1-0.1-0.1-0.1c-0.2-0.4-0.4-0.7-0.6-1.1
		c-0.1-0.2-0.1-0.4-0.1-0.6C447.4,1.2,447.7,1,448.2,1z M448.4,14.5c0.3,0,0.4,0.1,0.4,0.4c0,0.2-0.1,0.4-0.2,0.6
		c-1.7,1.2-2.6,1.9-2.9,1.9c-0.6,0-0.9-0.2-0.9-0.6c0-0.5,0.1-0.8,0.4-0.9C445.1,15.7,446.2,15.3,448.4,14.5z M446.3,11.2
		c0.1,0,0.5,0.2,1.4,0.7c0.8,0.5,1.2,0.8,1.2,1.1c0,0.4-0.2,0.6-0.7,0.6c-0.1,0-0.2,0-0.4-0.1c-0.9-0.5-1.5-0.9-1.9-1
		c-0.4-0.1-0.6-0.3-0.6-0.4C445.3,11.5,445.6,11.2,446.3,11.2z M455.5,11.2c0.4,0,0.7,0.3,0.7,0.8c0,0.3-0.1,0.5-0.3,0.6
		c-1.6,0.7-2.5,1-2.5,1c-0.4,0-0.6-0.1-0.6-0.3c0-0.2,0.1-0.3,0.2-0.5l2.2-1.6C455.3,11.2,455.4,11.2,455.5,11.2z M453,14.5
		c0,0,0.1,0,0.1,0c0.8,0.5,1.5,0.9,2,1.1c0.3,0.1,0.8,0.2,1.3,0.2c0.2,0,0.3,0.1,0.3,0.3c0,0.3-0.2,0.5-0.5,0.7
		c-0.6,0.4-1.1,0.6-1.4,0.6c-0.2,0-0.3-0.1-0.4-0.2c-0.2-0.2-0.8-1-1.7-2.2c-0.1-0.1-0.1-0.2-0.1-0.3
		C452.8,14.6,452.9,14.5,453,14.5z"/>
	<path class="st0" d="M463.3,3.6c0.4,0,0.6,0.3,0.6,0.8c-0.1,0.7-0.1,1.3-0.1,1.8v3c0,0.9-0.2,1.4-0.7,1.4c-0.4,0-0.6-0.5-0.6-1.4
		c0.1-1.3,0.2-2.3,0.2-3c0-0.5,0-1.1-0.1-1.8C462.6,3.9,462.8,3.6,463.3,3.6z M466.1,0.8c0.5,0,0.7,0.3,0.7,0.9
		c-0.1,1.7-0.1,3.3-0.1,4.7l0.1,10c0,1-0.3,1.5-0.8,1.5c-0.4,0-0.6-0.5-0.6-1.5c0.1-4.3,0.1-7.6,0.1-10c0-1.4,0-2.9-0.1-4.7
		C465.4,1.1,465.6,0.8,466.1,0.8z M469.1,1.9c0.5,0,0.7,0.2,0.7,0.6l-1.4,3c-0.1,0.3-0.3,0.4-0.6,0.4c-0.2,0-0.4-0.2-0.4-0.5l0.9-3
		C468.6,2.1,468.8,1.9,469.1,1.9z M472.6,3c0.4,0,0.6,0.2,0.6,0.5c0,0.2-0.1,0.5-0.2,0.7c-0.2,0.5-0.4,1-0.7,1.5c0,0,0,0,0,0h3.1
		l0-3.6c0-0.6,0.2-0.8,0.7-0.8c0.6,0,0.9,0.3,0.9,0.8l0,3.6h4.5c0.2,0,0.4,0.1,0.4,0.3c0,0.3-0.1,0.6-0.3,0.8
		c-0.2,0.2-0.5,0.3-0.8,0.3c-0.2,0-0.8-0.1-1.6-0.2c-0.7,0-1.4-0.1-2.1-0.1l0,3.3h3.8c0.2,0,0.3,0.1,0.4,0.3c0,0.3-0.1,0.6-0.3,0.8
		c-0.2,0.2-0.5,0.3-0.9,0.3c-0.2,0-0.7-0.1-1.4-0.2c-0.5,0-1-0.1-1.6-0.1l0,3.6c0.8,0,1.6,0.1,2.5,0.2c1,0.1,1.9,0.1,2.8,0.1
		c0.4,0,0.8,0,1.1-0.1c0.1,0,0.1,0.1,0.1,0.3c0,0.4-0.1,0.9-0.4,1.3c-0.3,0.5-0.5,0.7-0.8,0.7s-0.5-0.1-0.8-0.3c-1.1-0.5-2-0.8-3-1
		c-0.7-0.1-1.6-0.2-2.6-0.2c-1.2,0-2.2,0.1-3.1,0.3c-0.9,0.2-1.8,0.6-2.7,1c-0.3,0.1-0.5,0.2-0.6,0.2c-0.4,0-0.6-0.3-0.6-0.7
		c0-0.3,0.1-0.5,0.3-0.7c0.2-0.2,0.5-0.3,0.8-0.4c2.5-0.4,4.4-0.7,5.6-0.7l-0.1-3.6c-1.3,0-2.2,0.1-2.8,0.2
		c-0.4,0.1-0.6,0.2-0.8,0.2c-0.4,0-0.7-0.2-0.7-0.6c0-0.2,0.1-0.4,0.4-0.6c0.2-0.1,0.5-0.2,0.8-0.2h3.1l0-3.3
		c-1.2,0-2.2,0.1-2.8,0.2c-0.4,0.1-0.7,0.2-0.8,0.2c-0.2,0-0.3,0-0.4-0.1c-0.2,0.3-0.4,0.6-0.6,0.8c-0.3,0.4-0.6,0.6-0.8,0.6
		c-0.3,0-0.7-0.1-1.1-0.4c-0.4-0.3-0.5-0.6-0.5-0.9c0-0.2,0.2-0.4,0.5-0.4c0.6-0.3,1.2-0.7,1.7-1.2c0.5-0.6,1-1.4,1.5-2.4
		C472.4,3,472.5,3,472.6,3z"/>
	<path class="st0" d="M493.5,12.2c-0.2,0.8-0.5,1.6-0.9,2.5c-0.6,1.3-1.1,1.9-1.5,1.9c-0.5,0-0.9-0.6-1.3-1.9
		c-0.3-1.1-0.5-2.7-0.5-4.8c0-0.8,0.1-2,0.4-3.6c0.3-1.7,0.6-2.8,0.9-3.4c0.2-0.4,0.5-0.6,0.9-0.6c0.5,0,0.8,0.2,0.8,0.7
		c0,0.1-0.1,0.5-0.4,1c-0.4,0.8-0.6,1.7-0.9,2.8c-0.3,1.1-0.4,2.1-0.4,2.8c0,3.1,0.2,4.7,0.7,4.7c0.2,0,0.7-0.8,1.5-2.3
		c0.1-0.2,0.2-0.3,0.3-0.3C493.4,11.9,493.5,12,493.5,12.2z M505.6,13c0,0.1-0.2,0.5-0.5,1.2c-0.3,0.6-0.6,0.9-1,1.1
		c-0.5,0.2-1.6,0.3-3.4,0.3c-1.4,0-2.6-0.2-3.6-0.6c-1.4-0.6-2.1-1.5-2.1-2.7c0-1.3,0.3-2,0.9-2c0.1,0,0.2,0.1,0.2,0.3
		c-0.2,0.6-0.2,1-0.2,1.2c0,1.4,1.1,2.1,3.3,2.1c0.9,0,2-0.1,3.2-0.3c0.7-0.1,1.3-0.3,1.9-0.5c0.5-0.2,0.8-0.3,1-0.3
		C505.4,12.6,505.5,12.8,505.6,13z M503.5,4.3c0,0.2-0.6,0.8-1.8,1.6c-1.2,0.8-1.9,1.2-2.1,1.2c-0.3,0-0.4-0.1-0.4-0.3
		c0-0.1,0.3-0.5,0.8-1c0.5-0.4,0.8-0.8,1.1-0.9c-0.1,0-0.2,0-0.3,0c-1,0-2.1,0.1-3.3,0.3c-1.3,0.2-1.9,0.4-1.8,0.4
		c-0.3,0-0.4-0.2-0.4-0.5c0-0.5,0.2-0.8,0.6-1c0.2,0,0.6-0.1,1.3-0.2c1.6-0.2,3.5-0.2,5.6-0.2C503.3,3.6,503.5,3.9,503.5,4.3z"/>
	<path class="st0" d="M517.9,15.4c0,0.8-0.3,1.5-0.8,2c-0.5,0.5-1.2,0.8-2,0.8c-0.8,0-1.5-0.3-2-0.8c-0.6-0.6-0.8-1.2-0.8-2
		s0.3-1.5,0.8-2c0.6-0.6,1.2-0.9,2-0.9c0.8,0,1.5,0.3,2,0.9C517.6,14,517.9,14.6,517.9,15.4z M517,15.4c0-0.5-0.2-1-0.6-1.4
		c-0.4-0.4-0.8-0.6-1.4-0.6c-0.5,0-1,0.2-1.4,0.6c-0.4,0.4-0.6,0.9-0.6,1.4s0.2,1,0.6,1.4c0.4,0.4,0.9,0.6,1.4,0.6
		c0.5,0,1-0.2,1.4-0.6C516.8,16.4,517,16,517,15.4z"/>
	<path class="st0" d="M119.4,37c0,0.3-0.2,0.7-0.7,1.2c-0.4,0.5-0.8,0.8-1.1,0.8c-0.2,0-0.9-0.2-1.9-0.6c-0.6-0.2-1.3-0.4-2.1-0.6
		c-0.2,0.8-0.3,1.6-0.5,2.5c-0.3,1.1-0.8,1.7-1.5,1.7c-0.4,0-1-0.2-1.7-0.7c-0.8-0.5-1.1-0.9-1.1-1.2c0-0.2,0.1-0.3,0.4-0.3
		c0.4,0.1,0.7,0.3,1.1,0.5c0.5,0.2,0.8,0.4,1,0.4c0.4,0,0.8-1,1-2.9c-0.1,0-0.2,0-0.3,0c-0.2,0-0.3,0-0.4,0c-1.7,0-3.4,0.1-5,0.2
		c0,0.9-0.1,1.7-0.1,2.4c0,1.8,0.1,2.9,0.4,3.4c0.4,0.8,1.4,1.2,3,1.2c1.6,0,3.6-0.3,5.8-1c0.2-0.1,0.4-0.1,0.6-0.1
		c0.1,0,0.2,0.1,0.2,0.4s-0.2,0.7-0.5,1.2c-0.3,0.5-0.9,0.9-1.8,1.1c-0.4,0.1-1.2,0.1-2.2,0.1c-1.6,0-3-0.2-4.1-0.6
		c-1.1-0.4-1.9-1.2-2.3-2.3c-0.3-0.8-0.4-1.9-0.4-3.4c0-0.3,0-0.7,0-1.2c0-0.5,0-0.9,0-1.2c-1.5,0.2-2.9,0.6-4.1,0.9l-0.9,0.3
		c-0.4,0-0.6-0.2-0.6-0.5c0-0.4,0.1-0.7,0.3-1c0.2-0.3,2-0.5,5.2-0.8v-3.5c0-0.7,0.3-1.1,1-1.1c0.4,0,0.6,0.3,0.6,0.8
		c0,0.4,0,1-0.1,1.8c-0.1,0.8-0.1,1.4-0.1,1.8c2.3-0.1,4.2-0.2,5.8-0.2c0-0.4,0-0.9,0-1.6c0-0.8,0-1.4,0-1.6c0-0.6,0-0.9,0-1
		c0.1-0.3,0.4-0.5,0.8-0.5c0.3,0,0.6,0.2,0.6,0.6c0,0.1,0,0.4,0,0.9c0,0.6-0.1,1.7-0.3,3.4c1.4,0.2,2.8,0.2,4.1,0.2
		c0.1,0,0.4,0,0.6-0.1c0.3-0.1,0.5-0.1,0.6-0.1C119.3,36.7,119.4,36.8,119.4,37z M119.2,34.1c0,0.1-0.2,0.4-0.5,0.7
		c-0.2,0.3-0.4,0.5-0.6,0.5c-0.3,0-0.8-0.3-1.4-1c-0.6-0.7-1-1.1-1-1.4c0-0.2,0.1-0.3,0.2-0.3c0.1,0,0.4,0.1,0.9,0.4
		c0.6,0.4,1.2,0.6,2,0.6C119,33.8,119.2,34,119.2,34.1z M121.5,32.4c0,0.2-0.2,0.4-0.5,0.8c-0.3,0.3-0.5,0.5-0.6,0.5
		c-0.3,0-0.8-0.3-1.4-1c-0.7-0.7-1-1.1-1-1.4c0-0.2,0.1-0.3,0.2-0.3c0,0,0.3,0.1,0.8,0.4c0.4,0.3,1.1,0.5,2,0.6
		C121.4,32.1,121.5,32.2,121.5,32.4z"/>
	<path class="st0" d="M143.9,39c0,0.3-0.2,0.7-0.7,1.2c-0.5,0.5-0.9,0.7-1.2,0.7s-0.8-0.4-1.5-1.3c-0.5-0.6-1.2-1.9-2-3.7
		c0-0.1-0.1-0.2-0.1-0.2c0,0.1,0,0.3,0,0.8c0,0.2,0,0.4,0,0.7c0,0.3,0,0.6,0,0.7c0,2.4-0.4,4.5-1.3,6.1c-1.1,2.1-2.8,3.1-5,3.1
		c-0.7,0-1.4-0.2-2.2-0.6c-1.5-0.8-2.3-2.2-2.3-4.3c0-2.5,1.3-5.2,3.8-8.2c-2.3,1-3.9,1.4-4.6,1.4c-0.4,0-0.6-0.2-0.6-0.5
		c0-0.3,0.1-0.6,0.2-0.7c0.2-0.2,0.5-0.3,0.8-0.4c0.9-0.1,1.9-0.3,3-0.6c0.2,0,0.8-0.2,1.9-0.6c1-0.4,1.6-0.5,1.7-0.5
		c0.4,0,0.6,0.2,0.6,0.5c0,0.3-0.4,0.7-1.1,1.3c-1.1,0.9-2.1,2.2-3,3.6c-1,1.6-1.4,3.1-1.4,4.4c0,1.1,0.2,2,0.7,2.6
		c0.5,0.8,1.3,1.2,2.3,1.2c1.9,0,3.3-1.1,4.4-3.3c0.8-1.7,1.2-3.6,1.2-5.8c0-1-0.1-1.8-0.2-2.4c0-0.3-0.1-0.5-0.1-0.7
		c0-0.4,0.2-0.7,0.6-0.7c0.2,0,0.4,0.1,0.6,0.4c0.5,1,0.9,1.7,1.2,2.1c0.5,0.8,1,1.4,1.5,2c0.6,0.7,1.4,1.1,2.4,1.4
		C143.7,38.8,143.9,38.9,143.9,39z"/>
	<path class="st0" d="M165.3,42.2c0,1.2-0.6,2.3-1.8,3.2c-1.1,0.8-2.3,1.2-3.6,1.2c-0.4,0-0.8-0.2-1.3-0.6c-0.5-0.4-0.7-0.8-0.7-1.2
		c0-0.2,0.1-0.3,0.3-0.3c0.1,0,0.3,0,0.5,0c0.2,0,0.4,0,0.5,0c1.8,0,3-0.3,3.7-1c0.6-0.5,0.9-1.1,0.9-1.8c0-0.6-0.3-1.2-1-1.6
		c-0.6-0.4-1.4-0.6-2.6-0.6c-1.5,0-3.1,0.3-4.8,0.9l-0.1,4.1c0,1.4-0.5,2-1.3,2c-0.8,0-1.7-0.3-2.7-0.8c-1.1-0.6-1.7-1.3-1.7-2
		c0-0.8,0.5-1.6,1.6-2.4c0.8-0.6,1.7-1.1,2.7-1.5c0-0.7,0-1.9,0-3.6c-0.6,0-1.6,0.1-2.9,0.2c-0.7,0.2-1,0.3-0.9,0.3
		c-0.4,0-0.6-0.2-0.6-0.6c0-0.3,0.1-0.5,0.3-0.7c0.1-0.2,0.8-0.3,1.9-0.4c0.7,0,1.4,0,2.2,0c0-0.3,0-0.7,0-1.3c0-0.6,0-1,0-1.3
		c0-0.5,0.2-0.8,0.7-0.8c0.5,0,0.8,0.3,0.8,0.9l0,2.4c0.5,0,1.2,0,2.1,0c0.9,0,1.6,0,2.1,0c0.4,0,0.6,0.1,0.6,0.3
		c0,0.3-0.1,0.5-0.3,0.8c-0.2,0.3-0.4,0.4-0.6,0.5c-0.7-0.2-1.6-0.3-2.7-0.3c-0.1,0-0.3,0-0.6,0c-0.3,0-0.4,0-0.6,0l-0.1,3.1
		c1.6-0.5,3.2-0.8,4.7-0.8c0.9,0,1.8,0.1,2.6,0.4c1,0.3,1.7,0.8,2.1,1.4C165.1,40.9,165.3,41.5,165.3,42.2z M154,41
		c-1.9,1-2.8,1.8-2.8,2.5c0,0.5,0.3,0.9,0.8,1.2c0.5,0.2,1,0.4,1.5,0.4c0.3,0,0.5-0.3,0.5-0.8C153.9,43.5,153.9,42.4,154,41z
		 M166.4,35.9c0,0.2-0.3,0.6-0.7,1c-0.4,0.4-0.7,0.7-1,0.7c-0.3,0-0.9-0.5-1.8-1.5c-0.8-1-1.2-1.7-1.2-2.1c0-0.2,0.1-0.3,0.2-0.3
		c0.1,0,0.6,0.3,1.5,0.8c0.9,0.6,1.7,0.9,2.3,1C166.2,35.6,166.4,35.7,166.4,35.9z"/>
	<path class="st0" d="M177.4,30.8c0.4,0,0.6,0.2,0.6,0.5c0,0.2-0.1,0.4-0.2,0.6c-0.1,0.1-0.1,0.2-0.2,0.3h11.1
		c0.2,0,0.4,0.1,0.4,0.3c0,0.3-0.1,0.6-0.3,0.8c-0.2,0.2-0.5,0.3-0.8,0.3c-0.3,0-1-0.1-2-0.2c-1.1,0-2.3-0.1-3.6-0.1
		c-2,0-3.5,0.1-4.4,0.2c-0.5,0.1-0.9,0.2-1,0.2c-0.2,0-0.3,0-0.4-0.1c-0.5,0.6-1.1,1.2-1.7,1.8c-0.4,0.4-0.8,0.6-1.1,0.6
		c-0.4,0-0.7-0.2-1.1-0.5c-0.4-0.3-0.6-0.6-0.6-0.9c0-0.2,0.2-0.3,0.5-0.4c0.9-0.2,1.6-0.6,2.4-1.1c0.8-0.5,1.5-1.2,2.1-2.2
		C177.2,30.9,177.3,30.8,177.4,30.8z M181.6,39.5c0.4,0,0.6,0.2,0.6,0.7c0,0-0.1,0.1-0.1,0.2c-0.4,0.9-1,1.8-1.8,2.9
		c1.3,0.8,2.5,1.6,3.6,2.5c0.2,0.2,0.3,0.4,0.3,0.6c0,0.3-0.2,0.4-0.5,0.5c-0.2,0-0.5-0.1-0.7-0.3c-1.4-0.9-2.6-1.7-3.5-2.3
		c-1.1,1.1-2.2,2-3.4,2.6c-0.8,0.5-1.6,0.7-2.1,0.7c-0.3,0-0.5-0.1-0.8-0.3c-0.4-0.3-0.5-0.6-0.5-1c0-0.2,0.2-0.4,0.7-0.5
		c1.6-0.2,3.1-0.8,4.5-1.8c0.1-0.1,0.3-0.3,0.4-0.4c-0.8-0.5-2-1-3.6-1.6c-0.3-0.2-0.5-0.4-0.5-0.6c0-0.5,0.3-0.8,0.8-0.9
		c0.2,0,0.4,0.1,0.6,0.2c0.6,0.4,1.8,1.1,3.4,2c0,0,0.1,0.1,0.1,0.1c0.7-0.8,1.3-1.8,1.8-3C181.2,39.6,181.3,39.5,181.6,39.5z
		 M180.4,37.2c2.2,0,4.3,0.1,6.2,0.3c0.2,0,0.4-0.1,0.6-0.1c0.6,0,0.8,0.3,0.8,0.8c0,0.1,0,0.2-0.1,0.3c-0.2,0.4-0.4,0.8-0.5,1.3
		c0,0.4-0.1,1-0.1,1.7c0,1,0.2,1.7,0.5,2.1c0.5,0.6,1.1,1.1,1.7,1.3c0.6,0.3,1.4,0.4,2.5,0.4c0.3,0,0.4,0.1,0.5,0.3
		c0,0.4-0.2,0.9-0.6,1.3c-0.4,0.5-0.9,0.7-1.4,0.7c-0.5,0-1.1-0.2-1.8-0.7c-0.9-0.5-1.5-1.1-1.9-1.9c-0.5-0.8-0.7-1.9-0.7-3.3
		c0-0.9,0.1-1.8,0.3-2.6c0-0.4-0.2-0.6-0.6-0.7c-1.2-0.1-2.6-0.2-4-0.2c-1.1,0-2.2,0-3.4,0.1c-1,0-1.9,0.1-2.8,0.3
		c-0.5,0-0.8-0.2-0.8-0.6c0-0.6,0.3-0.9,1-1C177.2,37.2,178.7,37.2,180.4,37.2z M178.8,34.7h7.6c0.2,0,0.3,0.1,0.3,0.2
		c0,0.3-0.1,0.5-0.3,0.7c-0.2,0.2-0.5,0.3-0.8,0.3c-0.2,0-0.6,0-1.3-0.1c-0.7,0-1.5,0-2.3,0c-1.4,0-2.4,0-3,0.1
		c-0.4,0.1-0.6,0.1-0.7,0.1c-0.4,0-0.6-0.3-0.6-0.7c0-0.2,0.1-0.4,0.3-0.6C178.2,34.8,178.4,34.7,178.8,34.7z"/>
	<path class="st0" d="M198.4,32.6h3c0-0.4,0-0.9,0-1.3c0-0.6,0.2-0.9,0.7-0.9c0.4,0,0.7,0.3,0.7,0.9c0,0.4,0,0.9,0,1.3h3.4
		c0.2,0,0.4,0.1,0.4,0.3c0,0.3-0.1,0.6-0.3,0.8c-0.2,0.2-0.5,0.3-0.8,0.3c-0.2,0-0.6-0.1-1.3-0.2c-0.4,0-0.9,0-1.4,0
		c0,0.6,0,1.1,0,1.7h0c0.5,0,1.2,0,1.9,0.1c0.2,0,0.5-0.1,0.8-0.2c0.4,0,0.6,0.2,0.6,0.7c0,0,0,0.1,0,0.2c-0.1,0.2-0.1,0.6-0.1,1.1
		c0,0.7-0.1,1.4-0.1,2.2c0,0.5,0,1.1,0.1,2c0,0.5-0.2,0.7-0.6,0.7c-0.9-0.1-1.7-0.2-2.5-0.2l0,1.6h3.4c0.2,0,0.4,0.1,0.4,0.3
		c0,0.3-0.1,0.6-0.3,0.8c-0.2,0.2-0.5,0.3-0.8,0.3c-0.2,0-0.7-0.1-1.4-0.2c-0.4,0-0.8-0.1-1.3-0.1l0,1.8c0,0.9-0.3,1.4-0.8,1.4
		c-0.4,0-0.6-0.5-0.6-1.4c0-0.6,0-1.2,0-1.8c-1.4,0-2.4,0.1-3,0.2c-0.4,0.1-0.6,0.2-0.7,0.2c-0.5,0-0.7-0.2-0.8-0.6
		c0-0.2,0.2-0.5,0.4-0.6c0.2-0.1,0.5-0.2,0.8-0.2h3.3c0-0.5,0-1.1,0-1.6c-0.9,0-1.5,0-1.8,0c-0.3,0-0.6,0.1-1,0.1
		c-0.4,0-0.7-0.2-0.7-0.7c0.1-1.1,0.2-2,0.2-2.8c0-0.8-0.1-1.7-0.2-2.8c0-0.4,0.2-0.6,0.7-0.6c0.2,0,0.4,0,0.7,0.1
		c0.2,0.1,0.6,0.1,1,0.1h1.1c0-0.5,0-1.1,0-1.7c-1.2,0-2.2,0.1-2.7,0.2c-0.4,0.1-0.6,0.2-0.7,0.2c-0.4,0-0.7-0.3-0.7-0.7
		c0-0.2,0.1-0.4,0.4-0.6C197.7,32.6,198,32.6,198.4,32.6z M201.4,40.8c0-0.6,0-1.2,0-1.7c-0.7,0-1.3,0.1-1.8,0.1c-0.1,0-0.1,0-0.2,0
		c0,0.5-0.1,0.9-0.1,1.3c0,0.3,0.2,0.4,0.6,0.4C200.3,40.9,200.8,40.8,201.4,40.8z M199.5,38.1c0.1,0,0.1,0,0.2,0h1.7
		c0-0.6,0-1.2,0-1.7c-0.4,0-0.9,0-1.4,0c-0.3,0-0.5,0.2-0.5,0.5C199.5,37.3,199.5,37.7,199.5,38.1z M202.6,36.4l0,1.7h1.8
		c0,0,0.1,0,0.1,0v-1.3c0-0.2-0.1-0.3-0.2-0.3C203.9,36.5,203.3,36.4,202.6,36.4z M202.6,39.1l0,1.8c0.5,0,1,0,1.5,0.1
		c0.3,0,0.4-0.1,0.4-0.3V39C203.9,39,203.2,39.1,202.6,39.1z M208.9,41.5h2.3l0-1.3c0-0.5,0.3-0.7,0.8-0.7c0.6,0,0.8,0.2,0.8,0.7
		l0,1.3h3.2c0.2,0,0.3,0.1,0.3,0.3c0,0.3-0.1,0.5-0.2,0.7c-0.2,0.2-0.5,0.3-0.8,0.3c-0.2,0-0.6,0-1.2-0.1c-0.4,0-0.9,0-1.3,0
		l-0.1,2.4c0.7,0,1.4,0.1,2.3,0.2c0.8,0.1,1.6,0.1,2.3,0.1c0.4,0,0.7,0,1-0.1c0.1,0,0.1,0.1,0.1,0.3c0,0.4-0.1,0.8-0.3,1.2
		c-0.2,0.4-0.5,0.7-0.7,0.7c-0.2,0-0.4-0.1-0.6-0.2c-0.9-0.5-1.7-0.8-2.4-0.9c-0.6-0.1-1.3-0.2-2.2-0.2c-1,0-1.9,0.1-2.6,0.2
		c-0.8,0.2-1.5,0.5-2.3,0.9c-0.2,0.1-0.4,0.2-0.6,0.2c-0.4,0-0.6-0.3-0.7-0.7c0-0.2,0.1-0.5,0.3-0.7c0.2-0.2,0.4-0.3,0.7-0.4
		c1.9-0.4,3.4-0.6,4.4-0.6l-0.1-2.4c-1,0-1.7,0.1-2.2,0.2c-0.3,0.1-0.6,0.2-0.6,0.2c-0.5,0-0.7-0.2-0.7-0.6c0-0.2,0.1-0.5,0.4-0.6
		C208.2,41.5,208.5,41.5,208.9,41.5z M209.6,31.9h4.9c0.1,0,0.2,0,0.4-0.1c0.2-0.1,0.3-0.1,0.3-0.1c0.4,0,0.6,0.3,0.6,0.7
		c0,0.2-0.1,0.3-0.3,0.6c-0.3,0.3-0.6,0.7-0.9,1.2c-0.5,0.9-1.1,1.7-1.6,2.3c1.5,0.8,2.5,1.3,3,1.4c0.5,0.1,1.1,0.2,1.8,0.3
		c0.3,0,0.5,0.1,0.5,0.4c0,0.3-0.2,0.6-0.7,0.9c-0.5,0.3-1,0.5-1.5,0.5c-0.4,0-0.7-0.1-1-0.4c-0.9-0.7-1.8-1.4-2.8-2.1
		c-0.1,0.1-0.2,0.2-0.2,0.2c-0.9,0.8-1.7,1.4-2.5,1.8c-0.8,0.4-1.5,0.6-1.8,0.6c-0.3,0-0.6-0.2-0.8-0.4c-0.3-0.2-0.4-0.4-0.4-0.6
		c0-0.2,0.1-0.4,0.4-0.4c1.9-0.6,3.3-1.2,4.1-1.9c0,0,0.1-0.1,0.1-0.1c-0.2-0.1-0.3-0.2-0.5-0.3c-0.7-0.4-1.3-0.8-1.9-1
		c-0.3-0.1-0.4-0.2-0.4-0.4c0-0.4,0.2-0.6,0.6-0.6c0.2,0,0.6,0.2,1.1,0.5c0.7,0.4,1.3,0.7,1.9,1c0.5-0.5,1-1.2,1.6-2.1
		c0.2-0.3,0.3-0.6,0.3-0.7c0-0.1-0.1-0.2-0.3-0.2c-1.1,0-2.2,0.1-3.3,0.2c-0.7,0.1-1.2,0.2-1.4,0.2c-0.3,0-0.5-0.2-0.5-0.6
		c0-0.2,0.1-0.4,0.4-0.6C209,32,209.3,31.9,209.6,31.9z"/>
	<path class="st0" d="M228.7,42.2c-0.2,0.8-0.5,1.6-0.9,2.5c-0.6,1.3-1.1,1.9-1.5,1.9c-0.5,0-0.9-0.6-1.3-1.9
		c-0.3-1.1-0.5-2.7-0.5-4.8c0-0.8,0.1-2,0.4-3.6c0.3-1.7,0.6-2.8,0.9-3.4c0.2-0.4,0.5-0.6,0.9-0.6c0.5,0,0.8,0.2,0.8,0.7
		c0,0.1-0.1,0.5-0.4,1c-0.4,0.8-0.6,1.7-0.9,2.8c-0.3,1.1-0.4,2.1-0.4,2.8c0,3.1,0.2,4.7,0.7,4.7c0.2,0,0.7-0.8,1.5-2.3
		c0.1-0.2,0.2-0.3,0.3-0.3C228.6,41.9,228.7,42,228.7,42.2z M240.8,43c0,0.1-0.2,0.5-0.5,1.2c-0.3,0.6-0.6,0.9-1,1.1
		c-0.5,0.2-1.6,0.3-3.4,0.3c-1.4,0-2.6-0.2-3.6-0.6c-1.4-0.6-2.1-1.5-2.1-2.7c0-1.3,0.3-2,0.9-2c0.1,0,0.2,0.1,0.2,0.3
		c-0.2,0.6-0.2,1-0.2,1.2c0,1.4,1.1,2.1,3.3,2.1c0.9,0,2-0.1,3.2-0.3c0.7-0.1,1.3-0.3,1.9-0.5c0.5-0.2,0.8-0.3,1-0.3
		C240.7,42.6,240.7,42.8,240.8,43z M238.7,34.3c0,0.2-0.6,0.8-1.8,1.6c-1.2,0.8-1.9,1.2-2.1,1.2c-0.3,0-0.4-0.1-0.4-0.3
		c0-0.1,0.3-0.5,0.8-1c0.5-0.4,0.8-0.8,1.1-0.9c-0.1,0-0.2,0-0.3,0c-1,0-2.1,0.1-3.3,0.3c-1.3,0.2-1.9,0.4-1.8,0.4
		c-0.3,0-0.4-0.2-0.4-0.5c0-0.5,0.2-0.8,0.6-1c0.2,0,0.6-0.1,1.3-0.2c1.6-0.2,3.5-0.2,5.6-0.2C238.5,33.6,238.7,33.9,238.7,34.3z"/>
	<path class="st0" d="M262,43.7c-0.2,1.3-0.8,2.1-1.8,2.4c-0.4,0.1-1.4,0.2-3.2,0.2c-2.1,0-3.8-0.2-5.2-0.6
		c-2.3-0.6-3.4-1.7-3.4-3.2c0-0.4,0.1-0.9,0.3-1.4c0.3-0.6,0.6-0.9,1.1-0.9c0.1,0,0.2,0.1,0.3,0.3c-0.1,0.1-0.2,0.4-0.5,0.9
		c-0.2,0.3-0.3,0.7-0.3,1c0,1.3,1.5,2,4.6,2c2.4,0,4.3-0.2,5.8-0.6c1.3-0.3,2-0.5,2-0.5C261.9,43.4,262,43.5,262,43.7z M258.9,34.9
		c0,0.3-0.3,0.5-0.9,0.8c-2.5,1.2-3.9,1.8-4.1,1.8s-0.3-0.1-0.3-0.3c0-0.3,0.4-0.6,1.2-1.1c0.8-0.5,1.2-0.8,1.3-0.9
		c-0.1,0-0.3-0.1-0.8-0.1c-1.5,0-2.7,0-3.4,0.1c-0.1,0-0.4,0.1-0.8,0.2c-0.3,0-0.6,0.1-0.8,0.1c-0.5,0-0.7-0.2-0.7-0.5
		c0-0.6,0.3-0.9,0.8-1.1c0.6-0.2,1.5-0.2,2.7-0.2h1.6C257.4,33.6,258.8,34.1,258.9,34.9z M263.4,33.7c0,0.1-0.1,0.4-0.4,0.7
		c-0.3,0.3-0.5,0.5-0.6,0.5c-0.3,0-0.8-0.3-1.4-1c-0.7-0.7-1-1.1-1-1.3c0-0.2,0.1-0.3,0.2-0.3c0.6,0.2,1.6,0.6,3,1.1
		C263.3,33.5,263.4,33.6,263.4,33.7z M266.9,32.4c0,0.1-0.1,0.4-0.4,0.7c-0.3,0.3-0.5,0.5-0.6,0.5c-0.3,0-0.8-0.3-1.5-1
		c-0.7-0.7-1-1.1-1-1.4c0-0.2,0.1-0.3,0.2-0.3c0.4,0.2,0.9,0.4,1.4,0.6c0.4,0.2,0.9,0.3,1.5,0.5C266.8,32.1,266.9,32.2,266.9,32.4z"
		/>
	<path class="st0" d="M271.9,34.4h3c0-0.8,0-1.7-0.1-2.6c0-0.6,0.2-0.9,0.7-0.9c0.5,0,0.8,0.3,0.8,0.9c0,0.9-0.1,1.8-0.1,2.6h3.1
		c0.2,0,0.3,0.1,0.4,0.3c0,0.3-0.1,0.6-0.3,0.8c-0.2,0.2-0.5,0.3-0.8,0.3c-0.2,0-0.6-0.1-1.2-0.2c-0.4,0-0.7-0.1-1.1-0.1
		c0,0.3,0,0.6,0,0.9l0,1.9c0.1,0,0.2,0,0.3,0c0.1,0,0.6,0.3,1.6,1c0.9,0.7,1.4,1.2,1.4,1.5c0,0.4-0.2,0.6-0.6,0.6
		c-0.1,0-0.2-0.1-0.4-0.2c-1-0.8-1.7-1.3-2.2-1.5l0.1,6.6c0,1-0.3,1.5-0.9,1.5c-0.4,0-0.6-0.5-0.6-1.5c0-2.4,0.1-4.6,0.1-6.4
		c-0.4,0.5-0.8,1-1.2,1.4c-0.6,0.6-1.2,1.1-2,1.5c-0.2,0.1-0.3,0.1-0.4,0.1c-0.4,0-0.8-0.2-1.2-0.7c-0.4-0.4-0.6-0.7-0.6-0.9
		c0-0.2,0.3-0.4,0.7-0.4c0.5-0.1,0.9-0.1,1.2-0.2c0.7-0.2,1.3-0.5,1.9-1c0.6-0.5,1.1-1.1,1.5-1.7c0,0,0.1-0.1,0.1-0.1
		c0-0.5,0-1,0-1.4c0-0.3,0-0.6,0-0.9c-1.3,0-2.2,0.1-2.8,0.3c-0.4,0.1-0.6,0.2-0.7,0.2c-0.5,0-0.8-0.3-0.8-0.7
		c0-0.2,0.2-0.4,0.4-0.6C271.2,34.4,271.5,34.4,271.9,34.4z M281.7,33.3c0.2,0,0.5,0,0.7,0.1c0.2,0.1,0.6,0.1,1,0.1h2.4
		c0.6,0,1.2,0,2,0.1c0.2,0,0.5-0.1,0.8-0.2c0.4,0,0.7,0.3,0.7,0.8c0,0,0,0.2,0,0.4c-0.1,0.4-0.1,1.1-0.2,2.2c0,1.4-0.1,2.9-0.1,4.4
		c0,1.2,0,2.8,0.1,4.8c0,0.6-0.2,0.8-0.6,0.8c-1.2-0.2-2.2-0.3-3.1-0.3c-1.3,0-2.2,0-2.5,0.1c-0.3,0-0.7,0.1-1.1,0.2
		c-0.4,0-0.6-0.2-0.6-0.6c0.1-2.2,0.2-4.1,0.2-5.7c0-1.8-0.1-3.9-0.2-6.5C281,33.6,281.2,33.3,281.7,33.3z M285.3,45.4
		c0.6,0,1.3,0,2.1,0.1c0.2,0,0.4-0.1,0.4-0.4v-2.7c0,0-0.1,0-0.1,0c-2.2,0-3.8,0.1-5.1,0.2c0,0-0.1,0-0.1,0c0,0.8-0.1,1.6-0.1,2.4
		c0,0.3,0.2,0.5,0.6,0.5C283.7,45.5,284.4,45.4,285.3,45.4z M282.5,41.4c0.1,0,0.2,0,0.3,0h4.9c0,0,0.1,0,0.1,0v-2.9
		c0,0-0.1,0-0.1,0c-2.2,0-3.8,0.1-5.1,0.2h0C282.6,39.6,282.6,40.5,282.5,41.4z M282.6,37.5c0.1,0,0.1,0,0.2,0h4.9c0,0,0.1,0,0.1,0
		V35c0-0.2-0.1-0.3-0.2-0.3c-1-0.1-2.5-0.1-4.5-0.1c-0.3,0-0.5,0.2-0.5,0.5C282.6,35.9,282.6,36.7,282.6,37.5z"/>
	<path class="st0" d="M296,34.2h6.8c0.2,0,0.3,0.1,0.3,0.3c0,0.3-0.1,0.5-0.3,0.7c-0.2,0.2-0.4,0.3-0.8,0.3c-0.2,0-0.5,0-1.2-0.1
		c-0.6,0-1.3,0-2,0c-1.3,0-2.2,0.1-2.7,0.2c-0.3,0.1-0.5,0.2-0.6,0.2c-0.5,0-0.7-0.2-0.8-0.6c0-0.2,0.2-0.4,0.4-0.6
		C295.4,34.2,295.7,34.2,296,34.2z M296.7,42.1c0.2,0,0.5,0,0.7,0.1c0.2,0.1,0.6,0.1,1,0.1h1.3c0.3,0,0.7,0,1.1,0.1
		c0.2,0,0.5-0.1,0.9-0.2c0.4,0,0.6,0.2,0.6,0.7c0,0,0,0.1,0,0.1c-0.1,0.1-0.1,0.4-0.2,0.7c0,0.4-0.1,0.9-0.1,1.5
		c0,0.3,0,0.7,0.1,1.2c0,0.5-0.2,0.7-0.6,0.7c-0.8-0.1-1.5-0.2-2.2-0.2c-1,0-1.6,0-1.8,0c-0.2,0-0.5,0.1-0.8,0.1
		c-0.4,0-0.6-0.2-0.6-0.7c0.1-0.7,0.2-1.4,0.2-1.9c0-0.5-0.1-1.1-0.2-1.8C296,42.4,296.3,42.1,296.7,42.1z M297.3,31.4h4.6
		c0.2,0,0.3,0.1,0.3,0.2c0,0.3-0.1,0.5-0.3,0.7c-0.2,0.2-0.4,0.3-0.8,0.3c-0.1,0-0.3,0-0.7-0.1c-0.4,0-0.8,0-1.2,0
		c-0.9,0-1.5,0.1-1.9,0.2c-0.2,0.1-0.4,0.1-0.4,0.1c-0.4,0-0.6-0.2-0.6-0.6c0-0.2,0.1-0.4,0.4-0.6C296.7,31.4,297,31.4,297.3,31.4z
		 M297.2,36.9h4.2c0.4,0,0.6,0.2,0.6,0.6c0,0.3-0.2,0.5-0.6,0.5c-1.9,0-3.4,0.1-4.4,0.2c-0.5,0-0.7-0.2-0.7-0.6
		C296.2,37.1,296.6,36.9,297.2,36.9z M297.2,39.3h4.2c0.4,0,0.6,0.2,0.6,0.6c0,0.3-0.2,0.5-0.6,0.5c-1.9,0-3.4,0.1-4.4,0.2
		c-0.5,0-0.7-0.2-0.7-0.6C296.2,39.6,296.6,39.3,297.2,39.3z M299.3,45.9c0.3,0,0.7,0,1.1,0.1c0.2,0,0.4-0.1,0.4-0.3v-2
		c0-0.2-0.1-0.3-0.2-0.3c-0.6-0.1-1.4-0.1-2.5-0.1c-0.3,0-0.5,0.2-0.5,0.5c0,0.6-0.1,1.2-0.2,1.8c0,0.3,0.2,0.4,0.6,0.4
		C298.4,45.9,298.8,45.9,299.3,45.9z M309.1,38.5c0.6,0,0.8,0.2,0.8,0.7c-0.1,0.6-0.2,1.2-0.2,1.9c0,0.4-0.1,0.9-0.1,1.3
		c0.2,0,0.4,0.2,0.8,0.5c2.3,1.7,3.7,2.6,4.3,2.8c0.4,0.1,0.8,0.2,1.3,0.2c0.3,0,0.5,0.1,0.5,0.4c0,0.3-0.2,0.6-0.7,0.9
		c-0.5,0.3-1,0.5-1.5,0.5c-0.4,0-0.7-0.1-1-0.4c-0.8-1-1.7-2-2.8-3.1c-0.4-0.4-0.8-0.7-1.1-0.9c-0.1,0.2-0.1,0.4-0.2,0.6
		c-0.5,1-1.1,1.7-1.8,2.3c-0.9,0.8-1.7,1.2-2.5,1.2c-0.3,0-0.5-0.1-0.7-0.4c-0.4-0.4-0.6-0.7-0.6-1.1c0-0.2,0.1-0.3,0.4-0.3
		c0.8-0.1,1.5-0.3,2-0.6c0.8-0.3,1.5-1,2.1-2.1c0.4-0.8,0.6-1.8,0.6-3v-1C308.5,38.7,308.7,38.5,309.1,38.5z M309,31.1
		c0.5,0,0.8,0.2,0.8,0.6c-0.1,0.5-0.2,1-0.2,1.6c0,0.4-0.1,0.8-0.2,1.2c0.2,0,0.4,0.1,0.7,0.3c2.2,1.2,3.5,1.8,4,2
		c0.4,0.1,0.8,0.1,1.2,0.2c0.3,0,0.4,0.1,0.4,0.4c0,0.3-0.2,0.6-0.7,0.9c-0.5,0.3-0.9,0.4-1.4,0.4c-0.3,0-0.6-0.1-0.9-0.4
		c-0.8-0.8-1.6-1.6-2.6-2.4c-0.3-0.3-0.6-0.5-0.9-0.6c0,0.1-0.1,0.2-0.1,0.3c-0.4,0.8-1,1.5-1.6,1.9c-0.8,0.7-1.6,1-2.3,1
		c-0.3,0-0.5-0.1-0.7-0.3c-0.4-0.3-0.5-0.7-0.5-1c0-0.1,0.1-0.2,0.4-0.2c0.8-0.1,1.4-0.2,1.9-0.5c0.8-0.2,1.4-0.8,1.9-1.7
		c0.4-0.7,0.5-1.5,0.5-2.4c-0.1-0.4-0.1-0.7-0.1-1C308.4,31.2,308.6,31.1,309,31.1z M304.1,40.7c0.4,0.1,0.7,0.1,0.8,0.1
		c0.5,0,1.1-0.2,1.8-0.5c0.1,0,0.2,0.1,0.2,0.3c0,0.2-0.2,0.6-0.7,1.1c-0.5,0.6-0.9,0.9-1.2,0.9c-0.3,0-0.5-0.1-0.7-0.4
		c-0.2-0.3-0.4-0.7-0.4-1.1C303.9,40.9,304,40.7,304.1,40.7z M304.3,32.6c0.4,0.1,0.6,0.1,0.8,0.1c0.4,0,1-0.1,1.6-0.4
		c0.1,0,0.2,0.1,0.2,0.3c0,0.2-0.2,0.5-0.6,1.1c-0.4,0.5-0.8,0.8-1.1,0.8c-0.3,0-0.5-0.1-0.7-0.4c-0.2-0.3-0.4-0.7-0.4-1.1
		C304.1,32.7,304.2,32.6,304.3,32.6z M311.5,32.3C311.5,32.3,311.6,32.3,311.5,32.3c0.7,0.3,1.2,0.4,1.5,0.5c0.3,0.1,0.6,0.1,1,0.1
		c0.1,0,0.2,0.1,0.2,0.3c0,0.2-0.1,0.5-0.4,0.7c-0.5,0.3-1,0.5-1.2,0.5c-0.1,0-0.2,0-0.2-0.1c-0.1-0.1-0.5-0.7-1-1.6
		c0-0.1,0-0.1,0-0.2C311.3,32.4,311.4,32.3,311.5,32.3z M311.8,40.4C311.8,40.4,311.8,40.4,311.8,40.4c0.7,0.3,1.2,0.5,1.6,0.6
		c0.2,0.1,0.6,0.1,1,0.1c0.1,0,0.2,0.1,0.2,0.3c0,0.2-0.2,0.5-0.5,0.7c-0.5,0.3-0.9,0.5-1.2,0.5c-0.1,0-0.2,0-0.2-0.1
		c-0.1-0.2-0.5-0.7-1-1.6c0-0.1,0-0.2,0-0.2C311.5,40.5,311.6,40.4,311.8,40.4z"/>
	<path class="st0" d="M333.6,45.5c0,0.3-0.4,0.7-1.1,1.2c-0.7,0.5-1.2,0.7-1.5,0.7c-0.2,0-0.5-0.3-1-1c-0.8-1.1-1.8-2.2-3-3.2
		c-1.2-1-2.6-2-4.2-3c-0.5-0.3-0.8-0.5-0.8-0.8c0-0.2,0.4-0.7,1.3-1.3c1-0.7,2-1.7,2.9-2.8c0.5-0.6,1.3-1.7,2.4-3.3
		c0.3-0.4,0.6-0.6,1-0.6c0.6,0,0.9,0.3,0.9,0.9c0,0.4-0.8,1.5-2.5,3.1c-1.3,1.3-2.4,2.2-3.3,2.9c-0.3,0.2-0.7,0.6-1.3,1
		c2.8,1.6,4.9,3,6.3,4.1c0.7,0.5,1.2,0.9,1.5,1.1c0.6,0.4,1.2,0.6,1.7,0.8C333.3,45.3,333.5,45.4,333.6,45.5z"/>
	<path class="st0" d="M353.4,34.6c0,0.2-0.1,0.4-0.3,0.7s-0.3,0.5-0.5,0.5c-1.1-0.2-2-0.3-2.8-0.3c-0.1,0-0.3,0-0.5,0
		c-0.2,0-0.4,0-0.5,0c-0.4,1.7-0.8,3.3-1.4,4.7c-1.6,4.1-2.9,6.1-3.8,6.1c-0.3,0-0.6-0.1-1-0.2c-0.5-0.2-0.7-0.4-0.7-0.6
		c0-0.1,0.3-0.5,1-1.2c1.1-1.1,2.1-2.5,3-4.1c0.9-1.6,1.5-3.2,1.8-4.6c-1.5,0.1-2.9,0.3-4.1,0.7c-0.4-0.1-0.6-0.2-0.6-0.6
		s0.1-0.5,0.2-0.7c0.1-0.2,0.9-0.3,2.2-0.5c0.8-0.1,1.6-0.2,2.4-0.2c0.1-0.6,0.2-1.4,0.2-2.1c0-0.6,0.3-0.9,0.7-0.9
		c0.4,0,0.7,0.2,0.7,0.6c0,0.2-0.1,1-0.4,2.3c2.1-0.1,3.4-0.2,3.7-0.2S353.4,34.3,353.4,34.6z M359.8,44.2c0,0.4-0.1,0.8-0.4,1.4
		c-0.3,0.5-0.8,0.9-1.5,1.1c-0.4,0.1-1,0.1-1.9,0.1c-4.1,0-6.1-1-6.1-3c0-0.3,0.1-0.6,0.2-0.9c0.1-0.4,0.3-0.6,0.6-0.6
		c0.3,0,0.4,0.1,0.4,0.4c0,0.1,0,0.3-0.1,0.5c0,0.2-0.1,0.4-0.1,0.5c0,0.9,0.8,1.4,2.3,1.4c2.4,0,4.4-0.4,5.8-1.1
		c0.4-0.2,0.6-0.3,0.6-0.3C359.7,43.8,359.8,43.9,359.8,44.2z M357.6,37.9c-0.1,0.2-0.6,0.7-1.5,1.4c-0.9,0.7-1.6,1.1-1.9,1.2
		c-0.1,0-0.2-0.1-0.2-0.3c0-0.2,0.2-0.5,0.6-0.9c0.3-0.2,0.6-0.5,0.8-0.8c-0.1,0-0.3,0-0.6,0c-1.1,0-2,0.1-2.7,0.2
		c-0.9,0.2-1.3,0.3-1.3,0.3c-0.3,0-0.5-0.1-0.5-0.4c0-0.3,0.1-0.5,0.3-0.7c0.4-0.4,1.9-0.6,4.6-0.6h0.9
		C357,37.3,357.5,37.5,357.6,37.9z M358.6,33.7c0,0.1-0.1,0.4-0.4,0.7c-0.3,0.3-0.5,0.5-0.6,0.5c-0.3,0-0.8-0.3-1.4-1
		c-0.7-0.7-1-1.1-1-1.3c0-0.2,0.1-0.3,0.2-0.3c0.6,0.2,1.6,0.6,3,1.1C358.5,33.5,358.6,33.6,358.6,33.7z M361.6,32.4
		c0,0.2-0.2,0.4-0.5,0.7s-0.5,0.5-0.6,0.5c-0.3,0-0.7-0.3-1.4-1c-0.6-0.7-0.9-1.1-0.9-1.4c0-0.2,0.1-0.3,0.2-0.3
		c0,0,0.5,0.2,1.3,0.6c0.4,0.2,0.8,0.3,1.5,0.5C361.4,32.1,361.5,32.2,361.6,32.4z"/>
	<path class="st0" d="M382.4,34.7c0,0.3-0.2,0.8-0.6,1.3c-0.4,0.6-0.8,0.9-1,0.9c-0.1,0-0.5-0.1-1.1-0.4c-0.8-0.3-2.4-0.6-4.6-0.7
		c0.7,1.9,1.6,3.5,2.8,4.7c0.2,0.2,0.4,0.4,0.6,0.7c-0.1,0.4-0.3,0.7-0.6,0.9c-0.1,0-0.6-0.2-1.2-0.5c-0.7-0.3-1.2-0.5-1.4-0.6
		c-0.7-0.2-1.4-0.3-2.3-0.3c-2.7,0-4,0.7-4,2.2c0,0.8,0.4,1.4,1.3,1.8c0.6,0.3,1.4,0.4,2.3,0.4c2,0,3.6-0.3,4.8-0.8
		c0.6-0.3,1-0.4,1.1-0.4c0.2,0,0.3,0.1,0.3,0.3c0,0.3-0.1,0.7-0.4,1.3c-0.4,0.9-1.8,1.3-4.1,1.3c-1.6,0-3-0.2-4.2-0.6
		c-1.6-0.6-2.4-1.6-2.4-3c0-1.3,0.6-2.2,1.9-2.8c1-0.5,2.2-0.7,3.6-0.7c1,0,2,0.2,3.1,0.5c-1-1.3-1.8-2.8-2.4-4.4
		c-2.3,0.1-4.3,0.4-6,0.9c-0.6,0.2-1,0.2-1.2,0.2c-0.4,0-0.6-0.3-0.6-0.9c0-0.6,0.5-0.9,1.5-1c1.3-0.1,3.2-0.2,5.8-0.5
		c-0.5-1.2-0.7-2-0.7-2.4c0-0.5,0.3-0.8,0.9-0.8c0.3,0,0.6,0.4,0.8,1.3c0.1,0.6,0.3,1.3,0.4,1.9c1.9,0,3.9,0,6,0c0.1,0,0.4,0,0.6,0
		c0.3,0,0.6,0,0.7,0C382.3,34.4,382.4,34.5,382.4,34.7z"/>
	<path class="st0" d="M397.5,41.7c0,0.5-0.5,1.4-1.6,2.7c-1.1,1.3-2,2-2.6,2c-0.6,0-1.2-0.4-1.9-1.1c-1.2-1.4-1.8-3.9-1.8-7.6
		c0-1.9,0.1-3,0.3-3.5c0.2-0.3,0.4-0.5,0.8-0.5c0.5,0,0.8,0.2,0.8,0.7c0,0-0.1,0.5-0.2,1.3c-0.2,1.4-0.3,2.7-0.3,3.9
		c0,1.5,0.3,2.7,0.8,3.6c0.5,0.8,1,1.2,1.5,1.2c0.5,0,1.2-0.5,2.3-1.5c1-1,1.6-1.5,1.7-1.5C397.4,41.3,397.5,41.4,397.5,41.7z
		 M406.6,41c0,0.3-0.3,0.7-0.8,1.2c-0.5,0.4-0.9,0.6-1.2,0.6c-0.5,0-1.3-0.8-2.3-2.4c-1-1.6-1.6-2.8-1.6-3.3c0-0.2,0.1-0.3,0.3-0.3
		c0.2,0,0.5,0.3,1,1c0.5,0.7,1.2,1.3,1.9,1.8c0.7,0.6,1.4,1,1.9,1.1c0.2,0,0.3,0.1,0.4,0.1C406.5,40.8,406.6,40.9,406.6,41z"/>
	<path class="st0" d="M418.4,45.4c0,0.8-0.3,1.5-0.8,2c-0.5,0.5-1.2,0.8-2,0.8c-0.8,0-1.5-0.3-2-0.8c-0.6-0.6-0.8-1.2-0.8-2
		s0.3-1.5,0.8-2c0.6-0.6,1.2-0.9,2-0.9c0.8,0,1.5,0.3,2,0.9C418.2,44,418.4,44.6,418.4,45.4z M417.6,45.4c0-0.5-0.2-1-0.6-1.4
		c-0.4-0.4-0.8-0.6-1.4-0.6c-0.5,0-1,0.2-1.4,0.6c-0.4,0.4-0.6,0.9-0.6,1.4s0.2,1,0.6,1.4c0.4,0.4,0.9,0.6,1.4,0.6
		c0.5,0,1-0.2,1.4-0.6C417.4,46.4,417.6,46,417.6,45.4z"/>
</g>
</svg>
