<?xml version="1.0" encoding="utf-8"?>
<!-- Generator: Adobe Illustrator 24.0.3, SVG Export Plug-In . SVG Version: 6.00 Build 0)  -->
<svg version="1.1" id="レイヤー_1" xmlns="http://www.w3.org/2000/svg" xmlns:xlink="http://www.w3.org/1999/xlink" x="0px"
	 y="0px" viewBox="0 0 595.6 84" style="enable-background:new 0 0 595.6 84;" xml:space="preserve">
<style type="text/css">
	.st0{fill:#513813;}
</style>
<g>
	<path class="st0" d="M124.4,5.3h6c0.2,0,0.3,0.1,0.3,0.3c0,0.2-0.1,0.5-0.2,0.6c-0.2,0.2-0.5,0.3-0.8,0.3l-1-0.1h-0.8l0,3.3h2.4
		c0.2,0,0.3,0.1,0.3,0.3c0,0.3-0.1,0.5-0.2,0.7c-0.2,0.2-0.5,0.3-0.8,0.3l-0.9,0l-0.7,0l0,3.5c1.1-0.2,1.9-0.4,2.5-0.5
		c0.2,0,0.4,0.1,0.4,0.4c0,0.4-0.2,0.6-0.5,0.6c-2.3,0.7-4.4,1.4-6.3,2.3c-0.5,0-0.7-0.2-0.7-0.6s0.1-0.6,0.2-0.8
		c0.1-0.2,0.3-0.3,0.6-0.4l2.5-0.6l0-3.8c-0.8,0-1.4,0.1-1.8,0.2c-0.3,0.1-0.4,0.2-0.5,0.2c-0.5,0-0.7-0.2-0.7-0.6
		c0-0.2,0.1-0.4,0.4-0.6c0.2-0.1,0.5-0.2,0.8-0.2h1.8l0-3.3c-0.8,0-1.5,0.1-1.9,0.2c-0.3,0.1-0.5,0.2-0.6,0.2
		c-0.5,0-0.7-0.2-0.7-0.6c0-0.2,0.1-0.4,0.4-0.6C123.8,5.3,124.1,5.3,124.4,5.3z M133.7,10.5l0.6,0c0.2,0,0.5,0,0.9,0h2.7
		c0.6,0,1.4,0,2.2,0.1c0.2,0,0.4,0,0.7-0.1c0.4,0,0.6,0.2,0.6,0.6l0,0.1c-0.1,0.1-0.1,0.3-0.1,0.6c0,0.4-0.1,0.7-0.1,1.1
		c0,0.2,0,0.4,0.1,0.7c0,0.4-0.2,0.7-0.6,0.7c-1.3-0.1-2.4-0.2-3.4-0.2c0,0.1,0,0.3,0,0.5c-0.1,0.6-0.1,1.2-0.1,1.7l0.1,2.8
		c0,0.9-0.2,1.3-0.7,1.3c-0.4,0-0.6-0.4-0.6-1.3c0-1.2,0.1-2.1,0.1-2.8c0-0.4,0-0.8,0-1.2c-1,1.2-2.2,2.2-3.6,3.1
		c-0.6,0.4-1.1,0.6-1.4,0.6c-0.3,0-0.7-0.1-1-0.4c-0.3-0.3-0.5-0.5-0.5-0.8c0-0.2,0.2-0.3,0.5-0.3c1.1-0.2,2.1-0.6,3-1.2
		c0.9-0.5,1.7-1.1,2.5-2c-0.4,0-0.7,0-0.9,0.1c-0.3,0-0.6,0.1-1.1,0.2c-0.4,0-0.6-0.2-0.6-0.7c0.1-0.6,0.2-1.1,0.2-1.5
		c0-0.3-0.1-0.7-0.2-1.2C133,10.7,133.3,10.5,133.7,10.5z M132.2,8.7h11c0.2,0,0.3,0.1,0.3,0.3c0,0.3-0.1,0.5-0.2,0.7
		c-0.2,0.2-0.5,0.3-0.8,0.3c-0.3,0-0.9,0-1.9-0.1c-1.1,0-2.2-0.1-3.5-0.1c-2,0-3.4,0.1-4.3,0.2c-0.5,0.1-0.8,0.2-1,0.2
		c-0.4,0-0.6-0.2-0.6-0.6c0-0.2,0.1-0.4,0.3-0.6C131.6,8.8,131.9,8.7,132.2,8.7z M132.4,3.8l0.6,0c0.2,0,0.5,0,0.9,0h4.2
		c0.9,0,2.1,0,3.4,0.1c0.2,0,0.5,0,0.8-0.1c0.4,0,0.6,0.2,0.6,0.7l0,0.1c-0.1,0.1-0.1,0.3-0.2,0.6c0,0.4-0.1,0.8-0.1,1.2
		c0,0.2,0,0.5,0.1,0.8c0,0.4-0.2,0.6-0.6,0.6c-1.9-0.1-3.6-0.2-5.1-0.2c-1.7,0-2.9,0-3.3,0.1c-0.4,0-0.9,0.1-1.4,0.2
		c-0.4,0-0.6-0.2-0.6-0.6c0.1-0.6,0.2-1.1,0.2-1.6c0-0.3-0.1-0.8-0.2-1.2C131.7,4.1,132,3.8,132.4,3.8z M135.3,6.8L135.2,5h-1.6
		c-0.2,0-0.4,0.1-0.4,0.4c0,0.4-0.1,0.7-0.2,1c0,0.3,0.2,0.5,0.5,0.5L135.3,6.8z M137.1,13.3l2.7,0.1c0.3,0,0.4-0.1,0.4-0.4v-1.1
		c0-0.1-0.1-0.2-0.2-0.2c-1.2-0.1-2.9-0.1-5.1-0.1c-0.3,0-0.4,0.1-0.4,0.4c0,0.3-0.1,0.6-0.2,0.9c0,0.3,0.2,0.5,0.5,0.5
		C135.5,13.4,136.2,13.3,137.1,13.3z M137.1,6.7l1.2,0L138.2,5h-1.9v1.8L137.1,6.7z M142.7,13.8c0.5,0,0.7,0.3,0.7,0.8
		c0,0.3-0.2,0.5-0.5,0.7c-0.6,0.4-1.5,0.8-2.7,1.2l-0.3,0.1h0c1.8,1.2,2.9,1.9,3.4,2.1c0.3,0.1,0.6,0.1,1,0.2c0.2,0,0.4,0.1,0.4,0.3
		c0,0.3-0.2,0.5-0.6,0.8c-0.4,0.3-0.9,0.4-1.3,0.4c-0.3,0-0.6-0.1-0.8-0.3c-0.6-0.8-1.3-1.5-2-2.3c-0.3-0.3-0.6-0.6-0.9-0.7l-0.1,0
		h-0.1c-0.4,0-0.6-0.2-0.6-0.5c0-0.2,0.1-0.4,0.3-0.5c1.6-0.8,2.8-1.4,3.7-2.1C142.5,13.8,142.6,13.8,142.7,13.8z M139.3,5v1.8
		l1.8,0c0.2,0,0.4-0.1,0.4-0.4V5.3c0-0.1-0.1-0.2-0.2-0.2L139.3,5z"/>
	<path class="st0" d="M148.2,8.2h1.9l0-3.6c0-0.6,0.2-0.8,0.7-0.8c0.6,0,0.9,0.3,0.9,0.8l-0.1,3.6h2.3c0.2,0,0.3,0.1,0.3,0.3
		c0,0.2-0.1,0.5-0.2,0.6c-0.2,0.2-0.5,0.3-0.8,0.3l-0.9-0.1h-0.6l-0.1,4.3c1.1-0.3,2-0.4,2.6-0.5c0.2,0,0.4,0.1,0.4,0.4
		c0,0.4-0.2,0.6-0.5,0.6c-2.2,0.6-4.2,1.3-6,2.1c-0.5,0-0.8-0.2-0.8-0.6c0-0.4,0.1-0.7,0.2-0.9c0.1-0.1,0.3-0.3,0.6-0.4l2.1-0.5
		l0-4.6c-0.8,0-1.5,0.1-1.9,0.2c-0.3,0.1-0.4,0.2-0.5,0.2c-0.5,0-0.7-0.3-0.7-0.7c0-0.2,0.1-0.4,0.4-0.6
		C147.6,8.2,147.9,8.2,148.2,8.2z M157.2,9.9l0.7,0c0.2,0,0.6,0,1,0h3c0.7,0,1.5,0,2.4,0.1c0.2,0,0.5,0,0.9-0.1
		c0.4,0,0.6,0.2,0.6,0.7l0,0.1c-0.1,0.2-0.1,0.5-0.2,0.9c0,0.6-0.1,1.2-0.1,1.8c0,0.4,0,1,0.1,1.7c0,0.4-0.2,0.6-0.6,0.6l-1.9-0.1
		l0,0.1c0,0.6,0,1.4-0.1,2.4c0,0.2,0.1,0.3,0.2,0.3c0.2,0,0.7,0.1,1.6,0.1c1.4,0,2.7-0.2,3.7-0.6c0.2,0,0.3,0.2,0.3,0.5
		c0,0.4-0.1,0.8-0.4,1.3c-0.3,0.5-0.6,0.8-0.9,0.8c-0.2,0-1.9-0.2-5.1-0.7c-0.5-0.1-0.7-0.4-0.7-0.8c0.1-0.9,0.1-1.5,0.1-2
		c0-0.4,0-0.9-0.1-1.4l-0.6,0l-0.9,0l0,0.2c0,0-0.1,0-0.1,0.1c-0.3,0.6-0.9,1.4-1.7,2.2c-0.8,0.8-1.7,1.3-2.6,1.7
		c-0.6,0.3-1.1,0.4-1.5,0.4c-0.3,0-0.5-0.1-0.8-0.3c-0.4-0.3-0.5-0.7-0.5-1c0-0.2,0.2-0.4,0.7-0.5c1.1-0.1,2.2-0.4,3.2-1
		c0.9-0.5,1.5-1.1,2-1.9l-0.6,0c-0.3,0-0.7,0.1-1.2,0.2c-0.4,0-0.7-0.2-0.7-0.6c0.1-0.9,0.2-1.7,0.2-2.4c0-0.7-0.1-1.4-0.2-2.4
		C156.5,10.2,156.7,9.9,157.2,9.9z M161,3.4c0.6,0,0.8,0.3,0.8,0.8c-0.1,0.3-0.2,0.6-0.2,0.9h4.6c0.2,0,0.3,0.1,0.3,0.3
		c0,0.2-0.1,0.5-0.2,0.6c-0.2,0.2-0.5,0.3-0.8,0.3c-0.2,0-0.7,0-1.5-0.1L163.5,8h3.8c0.2,0,0.4,0.1,0.4,0.2c0,0.3-0.1,0.6-0.3,0.9
		c-0.2,0.2-0.5,0.4-0.8,0.4c-0.3,0-1-0.1-2-0.2c-1.1-0.1-2.3-0.1-3.6-0.1c-2.1,0-3.6,0-4.5,0.1c-0.5,0.1-0.9,0.1-1,0.1
		c-0.4,0-0.6-0.2-0.6-0.6c0-0.2,0.1-0.4,0.4-0.6c0.2-0.1,0.4-0.2,0.8-0.2h2.9l-0.5-1.7c-0.4,0-0.8,0.1-1,0.1
		c-0.4,0.1-0.7,0.2-0.8,0.2c-0.4,0-0.6-0.3-0.6-0.7c0-0.2,0.1-0.4,0.4-0.6c0.2-0.1,0.4-0.2,0.8-0.2h3.4c0-0.3-0.1-0.6-0.2-0.8
		C160.2,3.7,160.4,3.4,161,3.4z M161,14.8l2.9,0.1c0.2,0,0.4-0.1,0.4-0.4v-1.1h-0.1c-2.6,0-4.6,0.1-6.1,0.2H158l-0.1,0.8
		c0,0.3,0.2,0.5,0.6,0.5C159.2,14.8,160,14.8,161,14.8z M158.1,12.5h0.1h5.9h0.2v-1.1c0-0.1-0.1-0.2-0.2-0.2
		c-1.3-0.1-3.1-0.1-5.5-0.1c-0.3,0-0.5,0.1-0.5,0.4C158.1,11.8,158.1,12.1,158.1,12.5z M159.8,8h2.7l0.2-1.8l-1.7,0l-1.4,0L159.8,8z
		"/>
	<path class="st0" d="M175.9,10.9c0.3,0,0.4,0.1,0.4,0.3c0,0.3-0.1,0.5-0.3,0.6l-4.3,1.6c-0.6,0-0.8-0.2-0.8-0.7c0-0.6,0.2-1,0.7-1
		L175.9,10.9z M173.4,3.8c0.1,0,0.3,0.1,0.6,0.2c0.8,0.6,1.7,1.3,2.7,2c0.1,0.1,0.2,0.2,0.2,0.3c0,0.2-0.2,0.4-0.5,0.4
		c-0.1,0-0.3,0-0.5-0.1l-2.8-1.1c-0.4-0.3-0.6-0.6-0.6-1C172.4,4.1,172.8,3.8,173.4,3.8z M176.4,16.4c0.2,0,0.4,0.1,0.4,0.4
		c0,0.2-0.1,0.4-0.2,0.6c-1.6,1.7-2.5,2.6-2.7,2.6c-0.7,0-1-0.2-1-0.6c0-0.5,0.1-0.9,0.4-1C173.2,18.3,174.3,17.6,176.4,16.4z
		 M188.6,4c0.3,0,0.5,0.1,0.5,0.4c0,0.3-0.1,0.5-0.4,0.6c-1.4,0.4-2.6,0.8-3.7,1.1l0,3.3c0.8,0,1.6,0.1,2.5,0.1c1,0,1.8,0.1,2.5,0.1
		c0.5,0,1-0.1,1.7-0.2c0.1,0,0.2,0.2,0.2,0.5c0,0.5-0.2,1-0.5,1.6c-0.3,0.4-0.5,0.6-0.7,0.6c-0.3,0-0.7-0.1-1.1-0.4
		c-0.7-0.4-1.5-0.7-2.4-0.8c-0.7-0.1-1.4-0.2-2.1-0.2l0,3.4h0.1c0.7,0,1.4,0,2.4,0.1c0.2,0,0.5-0.1,0.8-0.2c0.4,0,0.6,0.3,0.6,0.8
		l0,0.1c-0.1,0.2-0.1,0.5-0.1,0.9c0,0.6-0.1,1.2-0.1,1.8c0,0.4,0,0.9,0.1,1.6c0,0.5-0.2,0.7-0.6,0.7c-1.5-0.1-2.8-0.2-3.9-0.2
		c-1.4,0-2.2,0-2.6,0.1c-0.3,0-0.7,0.1-1.1,0.1c-0.4,0-0.7-0.2-0.7-0.6c0.1-0.9,0.2-1.7,0.2-2.4c0-0.7-0.1-1.4-0.2-2.4
		c0-0.4,0.2-0.7,0.7-0.7c0.2,0,0.4,0,0.7,0.1c0.2,0.1,0.6,0.1,1,0.1h1.6l0-3.5c-0.9,0-1.8,0.1-2.6,0.2c-0.6,0.1-1.5,0.4-2.7,1
		c-0.6,0-0.8-0.2-0.8-0.7c0-0.3,0.1-0.5,0.3-0.7c0.3-0.3,0.7-0.5,1.2-0.5c2-0.3,3.5-0.4,4.6-0.5l0-3l-1.2,0.2
		c-1.1,0.2-1.9,0.3-2.2,0.3c-0.4,0-0.8-0.1-1.1-0.4c-0.3-0.3-0.4-0.5-0.4-0.8c0-0.2,0.1-0.3,0.4-0.3c2.2,0,4.1-0.2,5.5-0.5
		c1.5-0.2,2.7-0.5,3.7-0.9C188.4,4,188.5,4,188.6,4z M184.1,18.7l2.9,0.1c0.3,0,0.4-0.1,0.4-0.3v-3c0-0.2-0.1-0.3-0.2-0.3
		c-1.2-0.1-3.1-0.1-5.4-0.1c-0.3,0-0.5,0.2-0.5,0.5c0,1-0.1,1.9-0.2,2.8c0,0.2,0.2,0.4,0.6,0.4C182.3,18.7,183.1,18.7,184.1,18.7z"
		/>
	<path class="st0" d="M204.4,3.7c0.3,0,0.5,0.2,0.5,0.5c0,0.3-0.1,0.5-0.4,0.6c-1.2,0.3-2.4,0.5-3.4,0.6l0,1.4h4.2
		c0.2,0,0.3,0.1,0.4,0.3c0,0.3-0.1,0.6-0.3,0.8c-0.2,0.2-0.5,0.3-0.9,0.3c-0.2,0-0.8-0.1-1.7-0.2l-1.8-0.1V9c0.7,0,1.5,0,2.4,0.1
		c0.2,0,0.5,0,0.9-0.1c0.4,0,0.6,0.2,0.6,0.7l0,0.1c-0.1,0.1-0.1,0.4-0.2,0.8c0,0.5-0.1,1.1-0.1,1.7c0,0.4,0,0.9,0.1,1.5
		c0,0.4-0.2,0.7-0.6,0.7c-1.1-0.1-2.1-0.2-3.1-0.2v1.1h3.3c0.2,0,0.3,0.1,0.3,0.3c0,0.3-0.1,0.5-0.2,0.7c-0.2,0.2-0.5,0.3-0.8,0.3
		c-0.2,0-0.6,0-1.3-0.1l-1.2,0v1.1c1.4-0.2,2.5-0.3,3.3-0.4c0.2,0,0.3,0.1,0.3,0.4c0,0.3-0.1,0.5-0.4,0.6c-3,0.5-5.8,1.1-8.4,1.8
		c-0.5,0-0.7-0.2-0.7-0.6c0-0.3,0.1-0.6,0.2-0.7c0.1-0.1,0.3-0.2,0.8-0.3l3.6-0.6v-1.3c-1.2,0-2.1,0.1-2.7,0.2
		c-0.4,0.1-0.6,0.2-0.7,0.2c-0.4,0-0.6-0.2-0.7-0.6c0-0.2,0.1-0.4,0.4-0.6c0.2-0.1,0.4-0.2,0.8-0.2h2.9v-1.1c-1.2,0-2,0-2.4,0.1
		c-0.3,0-0.7,0.1-1.2,0.2c-0.4,0-0.7-0.2-0.7-0.7c0.1-0.8,0.2-1.6,0.2-2.3c0-0.6-0.1-1.3-0.2-2.1c0-0.4,0.2-0.7,0.7-0.7l0.7,0
		c0.2,0,0.6,0,1,0h1.8V7.9c-1.7,0-2.9,0.1-3.6,0.2c-0.5,0.1-0.8,0.2-0.9,0.2c-0.5,0-0.7-0.2-0.7-0.6c0-0.2,0.1-0.5,0.4-0.6
		c0.2-0.1,0.5-0.2,0.8-0.2h4.1l0-1.2l-0.9,0.1c-1,0.1-1.7,0.2-2,0.2c-0.4,0-0.7-0.1-1.1-0.4c-0.2-0.2-0.3-0.5-0.3-0.7
		c0-0.2,0.1-0.2,0.4-0.3c2,0,3.7-0.1,5-0.3c1.3-0.1,2.4-0.3,3.3-0.5L204.4,3.7z M199.7,13.4l0-1.2c-1,0-1.8,0.1-2.5,0.1l-0.2,0
		l-0.1,0.7c0,0.3,0.2,0.5,0.6,0.5C198.1,13.4,198.8,13.4,199.7,13.4z M197.1,11.3h0.2h2.4V10h-2.1c-0.3,0-0.5,0.1-0.5,0.4
		L197.1,11.3z M201.1,12.2l0,1.2l2,0.1c0.2,0,0.4-0.1,0.4-0.4v-0.9L201.1,12.2z M201.1,10.1v1.2h2.3h0.1v-0.9c0-0.1-0.1-0.2-0.2-0.2
		L201.1,10.1z M209.4,8.5c0.2-1.5,0.4-2.9,0.4-4.1c0-0.4,0.3-0.7,0.6-0.7c0.5,0,0.7,0.3,0.8,0.8c0,0.1,0,0.4-0.1,0.9
		c-0.1,1.2-0.3,2.2-0.4,3.2h3c0.1,0,0.4-0.1,0.8-0.2c0.6,0,0.9,0.3,0.9,0.8c-0.4,1.8-0.6,3.6-0.7,5.4c-0.2,2.5-0.7,4.1-1.4,4.8
		c-0.6,0.7-1.4,1.1-2.4,1.1c-0.4,0-0.7-0.2-1-0.5c-0.2-0.3-0.3-0.6-0.3-0.9s0.1-0.4,0.4-0.5c1.3-0.1,2.1-0.4,2.5-0.9
		c0.5-0.5,0.8-2.1,1.1-4.7c0.1-1.6,0.2-2.6,0.2-3c0-0.2-0.1-0.4-0.3-0.4h-3c-0.2,1.2-0.4,2.2-0.6,3c-0.4,1.5-0.9,3-1.5,4.3
		c-0.5,1.1-1.2,2.1-2.1,2.9c-0.3,0.3-0.6,0.5-0.9,0.5c-0.2,0-0.5-0.1-0.7-0.4c-0.3-0.3-0.4-0.6-0.5-0.9c0-0.2,0.1-0.3,0.3-0.4
		c0.9-0.3,1.5-0.8,2-1.5c0.6-0.8,1.2-2,1.8-3.6c0.4-1.2,0.7-2.5,1-4c-0.6,0-1.1,0.1-1.7,0.2c-0.5,0.1-0.8,0.2-1,0.2
		c-0.4,0-0.6-0.2-0.6-0.5c0-0.5,0.2-0.9,0.7-0.9C207.2,8.6,208,8.5,209.4,8.5z"/>
	<path class="st0" d="M227,3.7c0.5,0,0.8,0.3,0.8,0.8c0,0.1-0.1,0.3-0.3,0.6c-0.3,0.4-0.5,0.8-0.7,1.2l4.6,0c0.3,0,0.6,0,0.9-0.1
		c0.2,0,0.3-0.1,0.4-0.1c0.1,0,0.2,0.1,0.2,0.2c0,0.3-0.1,0.6-0.4,1c-0.3,0.4-0.7,0.7-1,0.7c-0.2,0-0.8-0.1-1.8-0.4
		c-1.2-0.2-2.4-0.3-3.5-0.3c-0.4,0.5-0.7,1-1.1,1.4c-0.3,0.4-0.7,0.8-1.1,1.2c0.6-0.1,1.2-0.2,1.7-0.2c0.7,0,1.2,0.2,1.7,0.7
		c0.4,0.4,0.6,0.9,0.6,1.7l0,0.3c2.5-1.5,4.3-2.6,5.2-3.2c0.4-0.3,0.8-0.4,1-0.4c0.4,0,0.7,0.2,0.7,0.7c0,0.4-0.3,0.7-0.9,1
		c-1.3,0.8-3.3,1.9-5.9,3.3c0,0.6,0,1.2,0,1.8c0,0.4-0.3,0.6-0.8,0.6c-0.4,0-0.6-0.3-0.6-1v-0.7l-1,0.5c-1.6,0.8-2.3,1.6-2.3,2.3
		c0,0.3,0.2,0.6,0.7,0.8c0.7,0.2,1.5,0.3,2.3,0.3c1.8,0,3.3-0.3,4.7-0.8c1.1-0.5,1.6-0.7,1.7-0.7c0.1,0,0.2,0.1,0.2,0.4
		c0,0.6-0.1,1.1-0.4,1.6c-0.2,0.3-0.5,0.5-1,0.7c-1,0.1-2.2,0.2-3.7,0.2c-1.9,0-3.3-0.2-4.2-0.7c-0.9-0.4-1.4-1-1.4-1.8
		c0-1.1,1-2.2,3-3.3l1.4-0.8c0-1.1-0.1-1.7-0.3-2c-0.2-0.4-0.6-0.6-1.2-0.6c-1,0-2,0.3-2.8,0.9l-1.4,1.1c-0.2,0.2-0.4,0.3-0.5,0.3
		l-0.6-0.8c0-0.4,0.5-0.8,1.4-1.4c0.7-0.4,1.5-1,2.4-2c0.4-0.4,0.7-0.8,1.1-1.3c-0.7,0.1-1.4,0.2-2.3,0.3c-1.1,0.2-1.7,0.3-1.8,0.3
		c-0.4,0-0.6-0.2-0.6-0.6c0-0.6,0.5-0.9,1.4-0.9l3.9-0.1c0.3-0.6,0.6-1.2,0.9-1.9C226.4,4,226.7,3.7,227,3.7z"/>
	<path class="st0" d="M247.3,4c0.6,0,0.9,0.2,0.9,0.7c0,0.2-0.1,1.2-0.4,2.9l2,0c0.5,0,1.4,0,2.6,0.1l2,0c0.3,0,0.6,0,0.9-0.1
		c0.3-0.1,0.4-0.1,0.6-0.1c0.1,0,0.2,0.1,0.2,0.2c0,0.3-0.2,0.7-0.5,1.2c-0.3,0.5-0.7,0.7-1,0.7c-0.1,0-0.6-0.1-1.5-0.4
		c-1.4-0.4-2.7-0.5-3.9-0.5l-1.5,0c-0.1,1-0.2,2.1-0.2,3.1l4.4,0c0.7,0,1,0.1,1,0.3c0,0.3-0.1,0.6-0.3,0.9c-0.2,0.2-0.3,0.3-0.6,0.3
		c-0.2,0-0.6-0.1-1.2-0.2c-0.6-0.1-1.1-0.2-1.6-0.2c-0.5,0-1.1,0-1.9,0.1c0,2.2,0.2,3.7,0.6,4.5c0.4,0.8,1,1.2,1.8,1.2
		c0.6,0,1.3-0.2,2.3-0.5c1.1-0.5,2-1.1,2.6-1.8c0.3-0.4,0.5-0.6,0.6-0.6c0.2,0,0.3,0.3,0.3,0.9c0,0.8-0.1,1.3-0.3,1.8
		c-0.4,0.4-1,0.8-2,1c-1.1,0.3-2.1,0.4-3.1,0.4c-1,0-1.8-0.2-2.4-0.7c-0.6-0.4-1-1.1-1.3-2c-0.2-0.8-0.3-2.2-0.4-4.1
		c-1.5,0.1-2.8,0.3-3.9,0.5c-0.2,0.1-0.4,0.2-0.6,0.2c-0.3,0-0.4-0.2-0.4-0.6c0-0.5,0.4-0.8,1.1-0.9c0.8-0.1,2-0.2,3.7-0.3
		c0-0.8,0-1.7,0.1-2.7l0-0.4L245,9c-0.8,0.1-1.7,0.3-2.7,0.6c-0.5,0.2-0.9,0.3-1.1,0.3c-0.3,0-0.5-0.2-0.5-0.6
		c0-0.3,0.1-0.6,0.3-0.9c0.2-0.2,0.5-0.3,1.1-0.4l3.1-0.3l1.3-0.1c0.1-0.9,0.1-1.8,0.1-2.4C246.6,4.4,246.8,4,247.3,4z"/>
	<path class="st0" d="M270.2,9.7c1.1,0,2.1,0.1,2.9,0.4c0.8,0.3,1.5,0.7,1.9,1.3c0.4,0.5,0.6,1.1,0.6,1.8c0,1.1-0.4,2.1-1.2,3
		c-0.8,0.9-1.7,1.6-2.9,2.1c-1.3,0.5-2.2,0.8-2.9,0.8c-0.3,0-0.6-0.1-1-0.4c-0.4-0.4-0.6-0.6-0.6-0.9c0-0.1,0.2-0.2,0.6-0.3
		c1.6-0.1,2.8-0.4,3.7-0.8c1.1-0.5,1.9-1,2.4-1.6c0.5-0.6,0.8-1.3,0.8-2c0-0.8-0.3-1.5-0.9-1.9c-0.7-0.4-1.6-0.6-2.8-0.6
		c-0.8,0-1.8,0.1-3,0.3c-1.6,0.2-3.2,0.7-4.9,1.3c-0.4,0.1-0.7,0.2-0.8,0.2c-0.4,0-0.6-0.2-0.6-0.6c0-0.5,0.4-0.9,1.3-1.2
		c1.1-0.3,2.3-0.5,3.6-0.6C267.8,9.8,269.1,9.7,270.2,9.7z"/>
	<path class="st0" d="M286.7,4c0.5,0,0.7,0.3,0.7,0.9c0,0.1-0.1,0.4-0.2,1.1c-0.1,1-0.2,1.9-0.2,2.8c0,0.5,0,1,0.1,1.5
		c0.7-0.5,1.3-0.9,2-1.4c1.1-0.8,1.9-1.2,2.3-1.2c0.4,0,0.6,0.1,0.8,0.3c0.1,0.2,0.2,0.4,0.2,0.4c0,0.4-0.3,0.7-0.8,1
		c-2.1,1.1-3.2,1.7-3.2,1.7c-1.7,0.9-3,1.8-3.9,2.7c-0.8,0.8-1.2,1.6-1.2,2.2c0,0.6,0.2,1,0.7,1.2c0.5,0.3,1.4,0.5,2.6,0.5
		c1.7,0,3.3-0.1,4.8-0.3c1.5-0.2,2.8-0.5,3.9-0.9c0.4-0.2,0.7-0.3,1-0.3c0.1,0,0.2,0.1,0.2,0.3c0,0.5-0.1,1-0.4,1.5
		c-0.3,0.5-0.7,0.8-1.4,0.9c-0.8,0.2-2.5,0.3-5.2,0.3c-2.4,0-4.2-0.3-5.4-0.8c-1.2-0.5-1.8-1.4-1.8-2.5c0-0.7,0.2-1.3,0.6-2
		c0.4-0.7,1.2-1.4,2.2-2.2l0.9-0.7c-0.2-1-0.2-1.9-0.2-2.7V6.3C285.7,4.8,286,4,286.7,4z"/>
	<path class="st0" d="M304.4,9.7H319c0.2,0,0.4,0.1,0.4,0.3c0,0.3-0.1,0.6-0.3,0.8c-0.2,0.2-0.5,0.3-0.8,0.3c-0.4,0-1.2,0-2.6-0.1
		l-2.1,0c0,0.1,0,0.2,0,0.3c0,1.7,0,3.8-0.1,6.4c0,0.2,0.1,0.4,0.4,0.4c0.5,0,1.7,0.1,3.6,0.1c1.5,0,2.8-0.2,3.9-0.6
		c0.2,0,0.3,0.2,0.3,0.5c0,0.4-0.1,1-0.4,1.5c-0.3,0.6-0.5,0.9-0.8,0.9c-0.3,0-2.8-0.3-7.4-0.8c-0.7-0.1-1.1-0.4-1.1-0.9
		c0.1-1.8,0.1-3.2,0.1-4.2c0-1,0-2.2-0.1-3.4v-0.1h-1.2l-0.9,0v0.2c0,0-0.1,0.1-0.1,0.3c-0.4,1.3-1.1,2.8-2.1,4.5
		c-1.1,1.5-2.2,2.7-3.4,3.5c-0.8,0.6-1.4,0.9-1.9,0.9c-0.3,0-0.6-0.1-0.9-0.4c-0.4-0.4-0.6-0.8-0.6-1.2c0-0.3,0.3-0.5,0.8-0.6
		c1.5-0.2,2.9-1,4.1-2.3c1.2-1.3,2.1-3,2.8-5c-1.4,0-2.6,0.1-3.3,0.2c-0.7,0.1-1.1,0.2-1.3,0.2c-0.5,0-0.8-0.3-0.8-0.7
		c0-0.2,0.2-0.4,0.4-0.6C303.7,9.7,304,9.7,304.4,9.7z M307.4,5h8.7c0.2,0,0.4,0.1,0.4,0.3c0,0.3-0.1,0.6-0.3,0.8
		c-0.2,0.2-0.5,0.3-0.8,0.3c-0.2,0-0.7-0.1-1.5-0.2c-0.8-0.1-1.7-0.1-2.7-0.1c-1.6,0-2.8,0.1-3.5,0.3c-0.4,0.1-0.7,0.2-0.8,0.2
		c-0.5,0-0.8-0.3-0.8-0.8c0-0.2,0.2-0.4,0.4-0.6C306.7,5,307,5,307.4,5z"/>
	<path class="st0" d="M330.1,3.5c0.4,0,0.6,0.2,0.6,0.5c0,0.2-0.1,0.5-0.2,0.7l-0.2,0.3h11.1c0.2,0,0.4,0.1,0.4,0.3
		c0,0.3-0.1,0.6-0.3,0.8c-0.2,0.2-0.5,0.3-0.8,0.3c-0.3,0-0.9-0.1-2-0.2C337.5,6,336.3,6,335,6c-2,0-3.5,0.1-4.4,0.2
		c-0.5,0.1-0.8,0.2-1,0.2c-0.2,0-0.3-0.1-0.4-0.1c-0.5,0.6-1.1,1.2-1.7,1.8c-0.4,0.4-0.8,0.6-1.1,0.6c-0.3,0-0.7-0.2-1.1-0.5
		c-0.4-0.3-0.5-0.6-0.5-0.9c0-0.2,0.2-0.4,0.5-0.4c0.9-0.2,1.7-0.6,2.4-1.1c0.8-0.5,1.5-1.2,2.1-2.1C329.8,3.5,330,3.5,330.1,3.5z
		 M334.3,12.2c0.4,0,0.7,0.2,0.7,0.6c0,0-0.1,0.1-0.1,0.2c-0.4,0.9-1,1.8-1.7,3c1.3,0.8,2.5,1.6,3.6,2.5c0.2,0.2,0.3,0.4,0.3,0.6
		c0,0.3-0.2,0.4-0.5,0.5c-0.2,0-0.4-0.1-0.6-0.3c-1.4-0.9-2.6-1.7-3.5-2.3c-1.1,1.1-2.2,2-3.4,2.6c-0.8,0.5-1.5,0.7-2.1,0.7
		c-0.3,0-0.5-0.1-0.8-0.3c-0.4-0.3-0.6-0.7-0.6-1c0-0.2,0.2-0.4,0.7-0.5c1.6-0.2,3.1-0.8,4.5-1.9l0.4-0.4c-0.8-0.5-2-1-3.6-1.6
		c-0.3-0.2-0.4-0.4-0.5-0.7c0-0.5,0.3-0.8,0.8-0.8c0.2,0,0.4,0.1,0.6,0.2c0.6,0.4,1.8,1.1,3.4,2l0.1,0.1c0.7-0.8,1.3-1.8,1.8-3
		C333.8,12.3,334,12.2,334.3,12.2z M333.1,9.8c2.2,0,4.3,0.1,6.2,0.3c0.2-0.1,0.4-0.1,0.7-0.1c0.6,0,0.8,0.3,0.8,0.8
		c0,0.1,0,0.2-0.1,0.4c-0.2,0.4-0.4,0.8-0.4,1.3c-0.1,0.4-0.1,1-0.1,1.8c0,1,0.2,1.7,0.5,2.1c0.5,0.6,1.1,1,1.7,1.3
		c0.6,0.3,1.4,0.4,2.4,0.4c0.3,0,0.5,0.1,0.5,0.3c0,0.4-0.2,0.9-0.6,1.3c-0.4,0.5-0.9,0.7-1.4,0.7c-0.5,0-1.1-0.2-1.8-0.7
		c-0.9-0.5-1.5-1.2-1.9-1.9c-0.5-0.8-0.7-1.9-0.7-3.3c0-0.9,0.1-1.8,0.3-2.6c0-0.4-0.2-0.6-0.6-0.6c-1.2-0.1-2.5-0.2-4-0.2
		c-1.1,0-2.2,0-3.4,0.1c-1,0-1.9,0.1-2.8,0.3c-0.5,0-0.7-0.2-0.7-0.6c0-0.6,0.3-0.9,1-1C329.8,9.9,331.3,9.8,333.1,9.8z M331.4,7.4
		h7.6c0.2,0,0.3,0.1,0.3,0.2c0,0.3-0.1,0.5-0.2,0.7c-0.2,0.2-0.5,0.3-0.8,0.3L337,8.6l-2.3,0c-1.4,0-2.4,0-3,0.1
		c-0.4,0.1-0.6,0.1-0.7,0.1c-0.4,0-0.6-0.2-0.7-0.6c0-0.2,0.1-0.4,0.4-0.6C330.9,7.5,331.1,7.4,331.4,7.4z"/>
	<path class="st0" d="M351.7,5c0.5,0,0.8,0.3,0.8,0.8c0,0.2-0.1,0.5-0.4,1.1c-0.3,0.8-0.6,1.7-0.9,2.8c-0.3,1.2-0.4,2.1-0.4,2.8
		c0,2,0.1,3.3,0.3,4c0.1,0.5,0.3,0.8,0.4,0.8c0.1,0,0.3-0.2,0.5-0.5c0.4-0.5,0.7-1.1,1-1.8c0.1-0.2,0.2-0.3,0.3-0.3
		c0.2,0,0.3,0.1,0.3,0.4c0,0.2-0.1,0.7-0.4,1.3c-0.4,1-0.8,1.8-1.1,2.3c-0.4,0.5-0.7,0.8-1,0.8c-0.4,0-0.9-0.6-1.3-1.9
		c-0.3-1.3-0.5-3-0.5-4.9c0-0.9,0.2-2.2,0.5-3.8c0.4-1.5,0.7-2.6,0.9-3.1C351.1,5.2,351.4,5,351.7,5z M356.1,12.8
		c0.2,0,0.3,0.1,0.3,0.3c0,0.2-0.1,0.4-0.2,0.6c-0.1,0.4-0.1,0.6-0.1,0.7c0,0.6,0.3,1.1,0.8,1.5c0.5,0.4,1.4,0.6,2.7,0.6
		c1.2,0,2.2-0.1,3.1-0.2c0.8-0.1,1.5-0.3,2-0.6c0.6-0.2,0.9-0.4,0.9-0.4c0.1,0,0.2,0.1,0.2,0.4c0,0.2-0.1,0.6-0.4,1.1
		c-0.2,0.5-0.6,0.9-1.1,1.1c-0.6,0.1-1.8,0.2-3.5,0.2c-1.3,0-2.3-0.2-3.2-0.5c-0.8-0.3-1.4-0.6-1.8-1.2c-0.4-0.6-0.6-1.2-0.6-1.7
		c0-0.6,0.1-1,0.3-1.4C355.7,13,355.9,12.8,356.1,12.8z M363.1,6.4c0.4,0,0.6,0.2,0.6,0.6c0,0.3-0.6,0.8-1.8,1.6
		c-1.3,0.8-2,1.3-2.2,1.3c-0.2,0-0.3-0.1-0.3-0.3c0-0.2,0.2-0.4,0.5-0.7c0.9-0.8,1.4-1.2,1.4-1.3c0-0.1-0.1-0.1-0.4-0.1
		c-1.1,0-2.2,0.1-3.4,0.3c-1.2,0.2-1.8,0.3-1.9,0.3c-0.2,0-0.4-0.2-0.4-0.5c0-0.3,0.1-0.6,0.4-0.8c0.2-0.2,0.6-0.3,1.2-0.3
		C360.4,6.5,362.5,6.4,363.1,6.4z"/>
	<path class="st0" d="M373.1,14.4c0.2,0,0.5,0.1,0.8,0.4c1.1,0.9,2.2,1.7,3.1,2.5c0.8,0.7,1.5,1.1,2.1,1.2c0.2,0,0.3,0.1,0.3,0.3
		c0,0.2-0.3,0.5-0.9,0.9c-0.6,0.4-1,0.6-1.4,0.6c-0.3,0-0.7-0.3-1-0.8c-0.3-0.5-0.6-0.9-0.8-1.2c-0.5-0.7-1.1-1.4-1.6-2
		c-0.7-0.8-1.1-1.3-1.1-1.5C372.7,14.5,372.8,14.4,373.1,14.4z"/>
	<path class="st0" d="M389.9,10.9c0.3,0,0.4,0.1,0.4,0.3c0,0.3-0.1,0.5-0.3,0.6l-4.3,1.6c-0.6,0-0.8-0.2-0.8-0.7c0-0.6,0.2-1,0.7-1
		L389.9,10.9z M387.4,3.8c0.1,0,0.3,0.1,0.6,0.2c0.8,0.6,1.7,1.3,2.7,2c0.1,0.1,0.2,0.2,0.2,0.3c0,0.2-0.2,0.4-0.5,0.4
		c-0.1,0-0.3,0-0.5-0.1l-2.8-1.1c-0.4-0.3-0.6-0.6-0.6-1C386.4,4.1,386.8,3.8,387.4,3.8z M390.4,16.4c0.2,0,0.4,0.1,0.4,0.4
		c0,0.2-0.1,0.4-0.2,0.6c-1.6,1.7-2.5,2.6-2.7,2.6c-0.7,0-1-0.2-1-0.6c0-0.5,0.1-0.9,0.4-1C387.2,18.3,388.3,17.6,390.4,16.4z
		 M402.6,4c0.3,0,0.5,0.1,0.5,0.4c0,0.3-0.1,0.5-0.4,0.6c-1.4,0.4-2.6,0.8-3.7,1.1l0,3.3c0.8,0,1.6,0.1,2.5,0.1c1,0,1.8,0.1,2.5,0.1
		c0.5,0,1-0.1,1.7-0.2c0.1,0,0.2,0.2,0.2,0.5c0,0.5-0.2,1-0.5,1.6c-0.3,0.4-0.5,0.6-0.7,0.6c-0.3,0-0.7-0.1-1.1-0.4
		c-0.7-0.4-1.5-0.7-2.4-0.8c-0.7-0.1-1.4-0.2-2.1-0.2l0,3.4h0.1c0.7,0,1.4,0,2.4,0.1c0.2,0,0.5-0.1,0.8-0.2c0.4,0,0.6,0.3,0.6,0.8
		l0,0.1c-0.1,0.2-0.1,0.5-0.1,0.9c0,0.6-0.1,1.2-0.1,1.8c0,0.4,0,0.9,0.1,1.6c0,0.5-0.2,0.7-0.6,0.7c-1.5-0.1-2.8-0.2-3.9-0.2
		c-1.4,0-2.2,0-2.6,0.1c-0.3,0-0.7,0.1-1.1,0.1c-0.4,0-0.7-0.2-0.7-0.6c0.1-0.9,0.2-1.7,0.2-2.4c0-0.7-0.1-1.4-0.2-2.4
		c0-0.4,0.2-0.7,0.7-0.7c0.2,0,0.4,0,0.7,0.1c0.2,0.1,0.6,0.1,1,0.1h1.6l0-3.5c-0.9,0-1.8,0.1-2.6,0.2c-0.6,0.1-1.5,0.4-2.7,1
		c-0.6,0-0.8-0.2-0.8-0.7c0-0.3,0.1-0.5,0.3-0.7c0.3-0.3,0.7-0.5,1.2-0.5c2-0.3,3.5-0.4,4.6-0.5l0-3l-1.2,0.2
		c-1.1,0.2-1.9,0.3-2.2,0.3c-0.4,0-0.8-0.1-1.1-0.4c-0.3-0.3-0.4-0.5-0.4-0.8c0-0.2,0.1-0.3,0.4-0.3c2.2,0,4.1-0.2,5.5-0.5
		c1.5-0.2,2.7-0.5,3.7-0.9C402.4,4,402.5,4,402.6,4z M398.1,18.7l2.9,0.1c0.3,0,0.4-0.1,0.4-0.3v-3c0-0.2-0.1-0.3-0.2-0.3
		c-1.2-0.1-3.1-0.1-5.4-0.1c-0.3,0-0.5,0.2-0.5,0.5c0,1-0.1,1.9-0.2,2.8c0,0.2,0.2,0.4,0.6,0.4C396.3,18.7,397.1,18.7,398.1,18.7z"
		/>
	<path class="st0" d="M414.3,3.9c1,0,2,0.1,3,0.2c0.2,0,0.5,0,0.8-0.1c0.5,0,0.8,0.2,0.8,0.7c0,0.1-0.1,0.2-0.4,0.4l-1.4,1.5
		c-0.7,0.9-1.6,1.8-2.7,2.7c-1,0.8-2,1.5-3,2c-0.4,0.2-0.7,0.3-0.9,0.3c-0.4,0-0.7-0.2-1.2-0.6c-0.3-0.3-0.4-0.6-0.4-0.9
		c0-0.3,0.1-0.4,0.4-0.4c1.5-0.1,2.9-0.7,4.2-1.5l0.3-0.2l-0.1,0c-0.6-0.4-1.1-0.7-1.4-0.8c-0.3-0.1-0.4-0.2-0.4-0.4
		c0-0.5,0.3-0.7,0.8-0.7c0.1,0,0.4,0.2,1.1,0.6c0.5,0.3,0.8,0.5,0.9,0.7c0.7-0.6,1.3-1.2,1.9-1.9c0.2-0.2,0.4-0.3,0.4-0.4
		c0-0.1-0.1-0.2-0.3-0.2c-0.8,0-1.7,0.1-2.8,0.3c-0.4,0-0.6-0.2-0.6-0.6c0-0.2,0.1-0.4,0.3-0.6C413.6,4,413.9,3.9,414.3,3.9z
		 M415.8,9.4h8.6c0.2,0,0.4,0.1,0.4,0.3c0,0.3-0.1,0.6-0.3,0.8c-0.2,0.2-0.5,0.3-0.8,0.3c-0.2,0-0.7-0.1-1.5-0.2c0,0.1,0,0.2,0,0.3
		l0,2.8h4.3c0.2,0,0.4,0.1,0.4,0.3c0,0.3-0.1,0.6-0.3,0.8c-0.2,0.2-0.5,0.3-0.8,0.3s-1.1-0.1-2.4-0.2l-1.2,0l-0.1,3
		c0,0.2,0.1,0.3,0.2,0.3c0.3,0,0.9,0.1,1.9,0.1c1.6,0,2.9-0.2,4.1-0.5c0.2,0,0.3,0.2,0.3,0.5c0,0.4-0.1,0.9-0.4,1.4
		c-0.3,0.6-0.6,0.9-0.9,0.9c-0.2,0-2.2-0.2-5.7-0.7c-0.5-0.1-0.8-0.4-0.8-0.9c0-1.7,0.1-3,0.1-4l-1.7,0l-1.3,0
		c-0.1,0.5-0.3,1.1-0.5,1.5c-0.5,1.2-1.1,2.1-1.9,2.7c-1,0.9-1.9,1.4-2.7,1.4c-0.3,0-0.5-0.1-0.8-0.3c-0.4-0.4-0.6-0.7-0.6-1.1
		c0-0.2,0.2-0.3,0.5-0.3c0.9-0.1,1.6-0.4,2.2-0.7c0.9-0.4,1.6-1.2,2.2-2.6l0.2-0.6c-1.1,0-1.9,0.1-2.5,0.2c-0.6,0.1-1,0.2-1.2,0.2
		c-0.5,0-0.8-0.3-0.9-0.7c0-0.2,0.2-0.4,0.4-0.6c0.2-0.1,0.5-0.2,0.9-0.2h3.5c0.1-0.6,0.1-1.3,0.1-2v-1l0-0.1l-0.9,0.1
		c-0.4,0.1-0.7,0.2-0.8,0.2c-0.4,0-0.7-0.2-0.7-0.6c0-0.2,0.1-0.4,0.4-0.6C415.2,9.4,415.5,9.4,415.8,9.4z M420.9,13.7
		c0-0.9,0-1.9-0.1-3v-0.2h-1.2h-1.2c0,0.1,0,0.2,0,0.3c-0.1,0.7-0.2,1.4-0.3,2.3l0,0.6H420.9z M424.3,3.7c0.4,0,0.6,0.2,0.6,0.7
		c0,0.3-0.1,0.5-0.4,0.6l-1.5,1l1.4,1.1l0.1-0.1l1.7-1.4c0.2-0.1,0.4-0.2,0.5-0.2c0.4,0,0.6,0.2,0.6,0.7c0,0.3-0.1,0.5-0.4,0.6
		l-1.8,0.9c1.4,1.1,2.4,1.8,2.9,2c0.5,0.2,1.2,0.3,1.9,0.4c0.3,0,0.5,0.1,0.5,0.4c0,0.3-0.3,0.6-0.8,1s-1.1,0.5-1.6,0.5
		c-0.4,0-0.7-0.1-1-0.4c-1.3-1.6-2.8-3.1-4.5-4.7c-0.7-0.6-1.4-1.1-1.9-1.4C420.2,5.2,420,5,420,4.7c0-0.4,0.2-0.6,0.7-0.6
		c0.2,0,0.6,0.3,1.2,0.8l0.6,0.5l0.1-0.1l1.4-1.4C424.1,3.7,424.3,3.7,424.3,3.7z"/>
	<path class="st0" d="M436.9,5c0.5,0,0.8,0.3,0.8,0.8c0,0.2-0.1,0.5-0.4,1.1c-0.3,0.8-0.6,1.7-0.9,2.8c-0.3,1.2-0.4,2.1-0.4,2.8
		c0,2,0.1,3.3,0.3,4c0.1,0.5,0.3,0.8,0.4,0.8c0.1,0,0.3-0.2,0.5-0.5c0.4-0.5,0.7-1.1,1-1.8c0.1-0.2,0.2-0.3,0.3-0.3
		c0.2,0,0.3,0.1,0.3,0.4c0,0.2-0.1,0.7-0.4,1.3c-0.4,1-0.8,1.8-1.1,2.3c-0.4,0.5-0.7,0.8-1,0.8c-0.4,0-0.9-0.6-1.3-1.9
		c-0.3-1.3-0.5-3-0.5-4.9c0-0.9,0.2-2.2,0.5-3.8c0.4-1.5,0.7-2.6,0.9-3.1C436.3,5.2,436.6,5,436.9,5z M441.3,12.8
		c0.2,0,0.3,0.1,0.3,0.3c0,0.2-0.1,0.4-0.2,0.6c-0.1,0.4-0.1,0.6-0.1,0.7c0,0.6,0.3,1.1,0.8,1.5c0.5,0.4,1.4,0.6,2.7,0.6
		c1.2,0,2.2-0.1,3.1-0.2c0.8-0.1,1.5-0.3,2-0.6c0.6-0.2,0.9-0.4,0.9-0.4c0.1,0,0.2,0.1,0.2,0.4c0,0.2-0.1,0.6-0.4,1.1
		c-0.2,0.5-0.6,0.9-1.1,1.1c-0.6,0.1-1.8,0.2-3.5,0.2c-1.3,0-2.3-0.2-3.2-0.5c-0.8-0.3-1.4-0.6-1.8-1.2c-0.4-0.6-0.6-1.2-0.6-1.7
		c0-0.6,0.1-1,0.3-1.4C441,13,441.2,12.8,441.3,12.8z M448.4,6.4c0.4,0,0.6,0.2,0.6,0.6c0,0.3-0.6,0.8-1.8,1.6
		c-1.3,0.8-2,1.3-2.2,1.3c-0.2,0-0.3-0.1-0.3-0.3c0-0.2,0.2-0.4,0.5-0.7c0.9-0.8,1.4-1.2,1.4-1.3c0-0.1-0.1-0.1-0.4-0.1
		c-1.1,0-2.2,0.1-3.4,0.3c-1.2,0.2-1.8,0.3-1.9,0.3c-0.2,0-0.4-0.2-0.4-0.5c0-0.3,0.1-0.6,0.4-0.8c0.2-0.2,0.6-0.3,1.2-0.3
		C445.6,6.5,447.7,6.4,448.4,6.4z"/>
	<path class="st0" d="M460.7,17.2c0.5,0,0.9,0.1,1.2,0.4c0.3,0.3,0.4,0.6,0.4,0.9c0,0.5-0.2,0.8-0.6,1.2c-0.3,0.2-0.7,0.3-1.1,0.3
		c-0.5,0-0.9-0.2-1.1-0.5c-0.2-0.3-0.4-0.6-0.4-1c0-0.4,0.1-0.7,0.4-0.9C459.8,17.3,460.2,17.2,460.7,17.2z M460.8,4.5
		c0.7,0,1,0.3,1,1l-0.1,2.7l-0.1,2.3c0,0.8,0,1.6,0,2.5l0,1.6c0,0.6-0.3,0.9-0.9,0.9s-0.9-0.3-0.9-0.9l0-1.5l0.1-2.6l-0.1-2.3
		l-0.1-2.7C459.7,4.9,460.1,4.5,460.8,4.5z"/>
	<path class="st0" d="M115.6,39.3c1.3,0,2.8,0.1,4.5,0.2c1.3,0.1,2.5,0.2,3.4,0.2c0.5,0,1.1-0.1,1.8-0.3c0.1,0,0.2,0.2,0.2,0.5
		c0,0.5-0.2,1.1-0.6,1.7c-0.3,0.4-0.5,0.6-0.7,0.6c-0.4,0-0.9-0.1-1.5-0.4c-0.9-0.4-2-0.8-3.1-0.9c-1.2-0.2-2.6-0.3-4.1-0.3
		c-0.6,0-1.2,0-1.9,0c-0.4,0.6-0.8,1.3-1.3,2c-1.2,1.4-2.5,2.5-3.9,3.3c-0.9,0.5-1.7,0.8-2.3,0.8c-0.3,0-0.5-0.1-0.8-0.3
		c-0.4-0.3-0.6-0.7-0.6-1c0-0.2,0.3-0.4,0.8-0.5c1.8-0.2,3.4-0.9,4.9-2.2c0.7-0.6,1.3-1.3,1.8-2l-1.6,0.1c-0.9,0.1-2.3,0.5-4.2,1.2
		c-0.6,0-0.9-0.2-0.9-0.6c0-0.3,0.1-0.5,0.4-0.7c0.3-0.3,0.7-0.5,1.2-0.5c2.3-0.4,4.3-0.6,5.9-0.7c0.3-0.5,0.5-1.1,0.8-1.7
		c0.1-0.2,0.2-0.3,0.5-0.3c0.4,0,0.6,0.2,0.6,0.6c0,0-0.1,0.1-0.1,0.3c-0.1,0.3-0.3,0.6-0.5,1L115.6,39.3z M107,35.1h4.3l-0.1-0.7
		c0-0.4,0.2-0.6,0.7-0.6c0.5,0,0.8,0.2,0.8,0.7v0.6h5.2l0.1-0.6c0-0.6,0.3-0.8,0.8-0.8c0.5,0,0.7,0.2,0.7,0.7l-0.2,0.7h5.1
		c0.2,0,0.4,0.1,0.4,0.3c0,0.3-0.1,0.6-0.3,0.8c-0.2,0.2-0.5,0.3-0.8,0.3c-0.4,0-1.5-0.1-3.2-0.2l-1.5,0l-0.2,1
		c-0.1,0.3-0.3,0.4-0.6,0.4c-0.3,0-0.5-0.2-0.5-0.6l0.1-0.8l-3,0l-2.1,0V37c0,0.4-0.2,0.6-0.5,0.6c-0.3,0-0.5-0.2-0.6-0.7l-0.1-0.7
		c-1.4,0-2.6,0.1-3.4,0.2c-0.8,0.1-1.3,0.2-1.5,0.2c-0.5,0-0.8-0.3-0.9-0.8c0-0.2,0.2-0.4,0.4-0.6C106.3,35.1,106.6,35.1,107,35.1z
		 M112.5,43.7c0.2,0,0.4,0,0.7,0.1c0.2,0.1,0.6,0.1,1,0.1h3c0.7,0,1.5,0,2.4,0.1c0.2,0,0.5-0.1,0.8-0.2c0.4,0,0.6,0.3,0.6,0.8l0,0.1
		c-0.1,0.2-0.1,0.5-0.1,0.9c-0.1,0.6-0.1,1.2-0.1,1.8c0,0.4,0,0.9,0.1,1.6c0,0.5-0.2,0.7-0.6,0.7c-1.5-0.1-2.9-0.2-4.1-0.2
		c-1.3,0-2.1,0-2.5,0c-0.3,0-0.7,0.1-1.1,0.1c-0.4,0-0.7-0.2-0.7-0.6c0.1-0.9,0.2-1.7,0.2-2.4c0-0.6-0.1-1.4-0.2-2.4
		C111.8,43.9,112.1,43.7,112.5,43.7z M116.1,48.5l3.1,0.1c0.3,0,0.4-0.1,0.4-0.3v-3c0-0.2-0.1-0.3-0.2-0.3c-1.2-0.1-3.1-0.1-5.4-0.1
		c-0.3,0-0.5,0.2-0.5,0.5c0,1-0.1,1.9-0.2,2.8c0,0.3,0.2,0.4,0.6,0.4C114.5,48.5,115.2,48.5,116.1,48.5z"/>
	<path class="st0" d="M131.3,35.9c0.5,0,0.7,0.2,0.7,0.7c0,0.2-0.1,0.6-0.2,1.3c-0.2,1.1-0.3,2.3-0.3,3.7c0,1.7,0.3,3,0.8,4
		c0.5,0.8,1,1.1,1.5,1.1c0.6,0,1.6-0.7,2.9-2.2c0.6-0.7,1-1,1.2-1c0.2,0,0.3,0.1,0.3,0.3c0,0.5-0.5,1.4-1.5,2.7
		c-1.1,1.5-2,2.2-2.8,2.2c-0.5,0-1.2-0.4-1.9-1.1c-0.7-0.8-1.2-1.9-1.5-3.2c-0.3-1.2-0.4-2.8-0.4-4.6c0-1.8,0.1-2.9,0.3-3.4
		C130.7,36.1,130.9,35.9,131.3,35.9z M141.7,38.9c0.1,0,0.5,0.4,1,1.1c0.5,0.7,1.2,1.4,1.9,2c0.7,0.6,1.3,0.9,1.9,1.1
		c0.4,0.1,0.6,0.2,0.6,0.4s-0.2,0.5-0.7,1.1c-0.4,0.5-0.9,0.7-1.2,0.7c-0.5,0-1.2-0.8-2.3-2.4c-1.1-1.9-1.7-3-1.7-3.5
		C141.3,39,141.4,38.9,141.7,38.9z"/>
	<path class="st0" d="M158.1,37.8h0.2c0.3-1.2,0.5-2.4,0.6-3.5c0.1-0.5,0.3-0.7,0.7-0.7c0.5,0,0.8,0.3,0.8,0.8
		c0,0.1-0.1,0.4-0.2,0.9c-0.2,0.9-0.4,1.7-0.6,2.5h5.9c0.1,0,0.4-0.1,0.8-0.2c0.6,0,0.9,0.3,0.9,0.9c-0.4,1.9-0.8,3.8-0.9,5.7
		c-0.2,2.6-0.8,4.3-1.8,5.2c-0.8,0.8-1.8,1.1-2.9,1.1c-0.4,0-0.7-0.2-1-0.5c-0.2-0.3-0.3-0.6-0.3-0.8c0-0.3,0.1-0.4,0.4-0.5
		c1.6-0.1,2.6-0.4,3.1-1c0.6-0.6,1-2.3,1.4-5.2c0.2-1.8,0.3-2.9,0.3-3.3c0-0.3-0.1-0.4-0.3-0.4h-6c-0.4,1.5-0.8,2.6-1.2,3.6
		c-0.6,1.5-1.5,3-2.6,4.3c-0.9,1.1-2.1,2.1-3.6,2.9c-0.6,0.3-1.1,0.5-1.5,0.5c-0.2,0-0.5-0.2-0.8-0.5c-0.3-0.3-0.5-0.7-0.5-1
		c0-0.2,0.1-0.3,0.3-0.4c1.5-0.3,2.7-0.8,3.6-1.4c1.1-0.8,2.2-1.9,3.2-3.5c0.8-1.4,1.5-2.9,1.9-4.5c-1.1,0-2.2,0.1-3.2,0.2
		c-0.8,0.1-1.3,0.2-1.5,0.2c-0.4,0-0.6-0.2-0.6-0.5c0-0.5,0.2-0.8,0.7-0.9C154.2,37.8,155.8,37.8,158.1,37.8z"/>
	<path class="st0" d="M177.7,34c0.5,0,0.7,0.3,0.7,0.9c0,0.1-0.1,0.4-0.2,1.1c-0.1,1-0.2,1.9-0.2,2.8c0,0.5,0,1,0.1,1.5
		c0.7-0.5,1.3-0.9,2-1.4c1.1-0.8,1.9-1.2,2.3-1.2c0.4,0,0.6,0.1,0.8,0.3c0.1,0.2,0.2,0.4,0.2,0.4c0,0.4-0.3,0.7-0.8,1
		c-2.1,1.1-3.2,1.7-3.2,1.7c-1.7,0.9-3,1.8-3.9,2.7c-0.8,0.8-1.2,1.6-1.2,2.2c0,0.6,0.2,1,0.7,1.2c0.5,0.3,1.4,0.5,2.6,0.5
		c1.7,0,3.3-0.1,4.8-0.3c1.5-0.2,2.8-0.5,3.9-0.9c0.4-0.2,0.7-0.3,1-0.3c0.1,0,0.2,0.1,0.2,0.3c0,0.5-0.1,1-0.4,1.5
		c-0.3,0.5-0.7,0.8-1.4,0.9c-0.8,0.2-2.5,0.3-5.2,0.3c-2.4,0-4.2-0.3-5.4-0.8c-1.2-0.5-1.8-1.4-1.8-2.5c0-0.7,0.2-1.3,0.6-2
		c0.4-0.7,1.2-1.4,2.2-2.2l0.9-0.7c-0.2-1-0.2-1.9-0.2-2.7v-2.2C176.8,34.8,177.1,34,177.7,34z"/>
	<path class="st0" d="M201.7,39.2c0.4,0,0.6,0.3,0.6,0.8c0,1-0.4,2.3-1.2,3.9c-0.7,1.4-1.8,2.7-3.2,3.9c-1.5,1.2-2.6,1.8-3.4,1.8
		c-0.4,0-0.8-0.2-1.3-0.7c-0.4-0.4-0.7-0.8-0.7-1c0-0.1,0.3-0.2,0.8-0.3c0.7-0.1,1.6-0.4,2.8-1c1.2-0.6,2.3-1.4,3.2-2.6
		c1-1.4,1.6-2.7,1.6-3.8C201,39.5,201.3,39.2,201.7,39.2z M200.8,35.9c2.4,0,4.1,0,4.9,0c0.9,0,1.6,0,2.2,0c0.1,0,0.2,0,0.4,0
		c0.1,0,0.3,0,0.5,0c0.3,0,0.5,0.1,0.7,0.2c0.2,0.1,0.3,0.3,0.3,0.6c0,0.4-0.4,1-1.2,1.9c-1,1.1-1.9,1.9-2.7,2.4
		c-0.6,0.3-0.9,0.5-1.1,0.5c-0.3,0-0.4-0.1-0.4-0.3c0-0.1,0.1-0.2,0.4-0.5c0.3-0.3,0.8-0.9,1.6-1.8c0.6-0.8,0.9-1.4,0.9-1.7
		c0,0-0.2-0.1-0.6-0.1c-0.7,0-2.2,0-4.5,0c-1.7,0.1-3.2,0.3-4.8,0.6c-1.2,0.2-1.9,0.3-2.1,0.3c-0.4,0-0.6-0.3-0.6-0.8
		c0-0.4,0.1-0.7,0.4-0.9C195.5,36,197.3,35.9,200.8,35.9z"/>
	<path class="st0" d="M228,34.4c0.4,0,0.6,0.2,0.6,0.6c0,0.5-0.6,1.3-1.9,2.5c-1.1,1-2,1.8-3,2.4c0,2.4,0,4.1,0.1,5.2
		c0,1.4,0.1,2.6,0.1,3.6c0,0.8-0.2,1.2-0.6,1.2c-0.6,0-0.9-0.4-0.9-1.2v-8.2c-1.5,0.8-2.9,1.4-4.3,1.7c-1.2,0.4-2.1,0.6-2.7,0.6
		c-0.5,0-1-0.2-1.4-0.7c-0.4-0.5-0.6-0.8-0.6-1.1c0-0.2,0.3-0.3,0.8-0.3c1.6,0,3.1-0.2,4.6-0.5c1.4-0.3,2.7-0.8,3.9-1.5
		c2-1.2,3.3-2.3,4.1-3.4C227.2,34.7,227.6,34.4,228,34.4z"/>
	<path class="st0" d="M241.4,39.3c1.6,0,3.1,0.1,4.4,0.2c1.5,0.1,2.6,0.2,3.4,0.2c0.2,0,0.4,0,0.6,0l0.2,0c0.1,0,0.2,0,0.2,0.1
		c0,0.3-0.2,0.7-0.6,1.3c-0.4,0.6-0.8,0.9-1.2,0.9c-0.2,0-0.6-0.1-1.1-0.4c-0.8-0.4-1.7-0.7-2.7-0.9c-0.9-0.1-1.8-0.2-2.8-0.2
		c0,0.5,0,1.1,0,1.6c0,1.2-0.2,2.4-0.7,3.6c-0.5,1.1-1,2-1.7,2.6c-1,1-1.8,1.5-2.5,1.5c-0.3,0-0.7-0.2-1.1-0.5
		c-0.4-0.2-0.6-0.5-0.6-0.7c0-0.2,0.1-0.3,0.4-0.3c0.4-0.1,1-0.4,1.9-1c0.8-0.5,1.5-1.2,2.1-2.1c0.7-1,1-2,1-3.1c0-0.6,0-1.1,0-1.6
		c-1.5,0-2.7,0.1-3.7,0.3c-0.8,0.2-1.7,0.4-2.6,0.7c-0.7,0.3-1.2,0.5-1.4,0.5c-0.4,0-0.6-0.2-0.6-0.7c0-0.4,0.1-0.7,0.4-1
		c0.3-0.2,1.1-0.4,2.4-0.6C236.9,39.4,238.9,39.3,241.4,39.3z M236.6,35.1l0.3,0c0.1,0,0.2,0,0.3,0l2.7-0.1l3,0c0.9,0,1.8,0,2.6,0.1
		c0.6,0,0.9,0.2,0.9,0.5c0,0.2-0.1,0.4-0.3,0.6c-0.1,0.2-0.3,0.2-0.7,0.2c-0.4,0-0.9,0-1.5-0.1c-0.6,0-1.3-0.1-2.1-0.1
		c-1.2,0-2.4,0-3.6,0.1c-1.3,0.2-2.1,0.2-2.4,0.2c-0.2,0-0.4-0.1-0.4-0.4c0-0.2,0.1-0.5,0.3-0.7C236.1,35.2,236.3,35.1,236.6,35.1z
		 M247.9,33.3c0.2,0,0.3,0.1,0.4,0.2c0.2,0.3,0.6,0.7,1,1c0.5,0.3,0.8,0.5,1,0.6c0.3,0.1,0.4,0.2,0.4,0.3c0,0.1-0.1,0.3-0.4,0.5
		c-0.3,0.3-0.5,0.4-0.8,0.4c-0.3,0-0.5-0.3-0.8-0.8c-0.3-0.5-0.5-0.9-0.7-1.3c-0.2-0.4-0.2-0.6-0.2-0.8
		C247.8,33.4,247.8,33.3,247.9,33.3z M250.6,32.7c0.1,0,0.3,0.1,0.4,0.2c0.4,0.4,0.9,0.7,1.4,1c0.5,0.2,0.8,0.4,1.1,0.4
		c0.2,0,0.4,0.1,0.4,0.2s-0.2,0.3-0.5,0.6c-0.3,0.3-0.5,0.4-0.7,0.4c-0.2,0-0.3-0.1-0.6-0.2c-0.2-0.2-0.5-0.5-0.9-1
		c-0.5-0.7-0.7-1.2-0.7-1.4C250.5,32.8,250.5,32.7,250.6,32.7z"/>
	<path class="st0" d="M263.4,39.2c0.4,0,0.6,0.3,0.6,0.8c0,1-0.4,2.3-1.2,3.9c-0.7,1.4-1.8,2.7-3.2,3.9c-1.5,1.2-2.6,1.8-3.4,1.8
		c-0.4,0-0.8-0.2-1.3-0.7c-0.4-0.4-0.7-0.8-0.7-1c0-0.1,0.3-0.2,0.8-0.3c0.7-0.1,1.6-0.4,2.8-1c1.2-0.6,2.3-1.4,3.2-2.6
		c1-1.4,1.6-2.7,1.6-3.8C262.7,39.5,262.9,39.2,263.4,39.2z M262.4,35.9c2.4,0,4.1,0,4.9,0c0.9,0,1.6,0,2.2,0c0.1,0,0.2,0,0.4,0
		c0.1,0,0.3,0,0.5,0c0.3,0,0.5,0.1,0.7,0.2c0.2,0.1,0.3,0.3,0.3,0.6c0,0.4-0.4,1-1.2,1.9c-1,1.1-1.9,1.9-2.7,2.4
		c-0.6,0.3-0.9,0.5-1.1,0.5c-0.3,0-0.4-0.1-0.4-0.3c0-0.1,0.1-0.2,0.4-0.5c0.3-0.3,0.8-0.9,1.6-1.8c0.6-0.8,0.9-1.4,0.9-1.7
		c0,0-0.2-0.1-0.6-0.1c-0.7,0-2.2,0-4.5,0c-1.7,0.1-3.2,0.3-4.8,0.6c-1.2,0.2-1.9,0.3-2.1,0.3c-0.4,0-0.6-0.3-0.6-0.8
		c0-0.4,0.1-0.7,0.4-0.9C257.2,36,259,35.9,262.4,35.9z"/>
	<path class="st0" d="M284.4,33.7c0.5,0,0.8,0.3,0.8,0.8c0,0.1-0.1,0.3-0.3,0.6c-0.3,0.4-0.5,0.8-0.7,1.2l4.6,0c0.3,0,0.6,0,0.9-0.1
		c0.2,0,0.3-0.1,0.4-0.1c0.1,0,0.2,0.1,0.2,0.2c0,0.3-0.1,0.6-0.4,1c-0.3,0.4-0.7,0.7-1,0.7c-0.2,0-0.8-0.1-1.8-0.4
		c-1.2-0.2-2.4-0.3-3.5-0.3c-0.4,0.5-0.7,1-1.1,1.4c-0.3,0.4-0.7,0.8-1.1,1.2c0.6-0.1,1.2-0.2,1.7-0.2c0.7,0,1.2,0.2,1.7,0.7
		c0.4,0.4,0.6,0.9,0.6,1.7l0,0.3c2.5-1.5,4.3-2.6,5.2-3.2c0.4-0.3,0.8-0.4,1-0.4c0.4,0,0.7,0.2,0.7,0.7c0,0.4-0.3,0.7-0.9,1
		c-1.3,0.8-3.3,1.9-5.9,3.3c0,0.6,0,1.2,0,1.8c0,0.4-0.3,0.6-0.8,0.6c-0.4,0-0.6-0.3-0.6-1v-0.7l-1,0.5c-1.6,0.8-2.3,1.6-2.3,2.3
		c0,0.3,0.2,0.6,0.7,0.8c0.7,0.2,1.5,0.3,2.3,0.3c1.8,0,3.3-0.3,4.7-0.8c1.1-0.5,1.6-0.7,1.7-0.7c0.1,0,0.2,0.1,0.2,0.4
		c0,0.6-0.1,1.1-0.4,1.6c-0.2,0.3-0.5,0.5-1,0.7c-1,0.1-2.2,0.2-3.7,0.2c-1.9,0-3.3-0.2-4.2-0.7c-0.9-0.4-1.4-1-1.4-1.8
		c0-1.1,1-2.2,3-3.3l1.4-0.8c0-1.1-0.1-1.7-0.3-2c-0.2-0.4-0.6-0.6-1.2-0.6c-1,0-2,0.3-2.8,0.9l-1.4,1.1c-0.2,0.2-0.4,0.3-0.5,0.3
		l-0.6-0.8c0-0.4,0.5-0.8,1.4-1.4c0.7-0.4,1.5-1,2.4-2c0.4-0.4,0.7-0.8,1.1-1.3c-0.7,0.1-1.4,0.2-2.3,0.3c-1.1,0.2-1.7,0.3-1.8,0.3
		c-0.4,0-0.6-0.2-0.6-0.6c0-0.6,0.5-0.9,1.4-0.9l3.9-0.1c0.3-0.6,0.6-1.2,0.9-1.9C283.8,34,284.1,33.7,284.4,33.7z"/>
	<path class="st0" d="M304.7,34c0.6,0,0.9,0.2,0.9,0.7c0,0.2-0.1,1.2-0.4,2.9l2,0c0.5,0,1.4,0,2.6,0.1l2,0c0.3,0,0.6,0,0.9-0.1
		c0.3-0.1,0.4-0.1,0.6-0.1c0.1,0,0.2,0.1,0.2,0.2c0,0.3-0.2,0.7-0.5,1.2c-0.3,0.5-0.7,0.7-1,0.7c-0.1,0-0.6-0.1-1.5-0.4
		c-1.4-0.4-2.7-0.5-3.9-0.5l-1.5,0c-0.1,1-0.2,2.1-0.2,3.1l4.4,0c0.7,0,1,0.1,1,0.3c0,0.3-0.1,0.6-0.3,0.9c-0.2,0.2-0.3,0.3-0.6,0.3
		c-0.2,0-0.6-0.1-1.2-0.2c-0.6-0.1-1.1-0.2-1.6-0.2c-0.5,0-1.1,0-1.9,0.1c0,2.2,0.2,3.7,0.6,4.5c0.4,0.8,1,1.2,1.8,1.2
		c0.6,0,1.3-0.2,2.3-0.5c1.1-0.5,2-1.1,2.6-1.8c0.3-0.4,0.5-0.6,0.6-0.6c0.2,0,0.3,0.3,0.3,0.9c0,0.8-0.1,1.3-0.3,1.8
		c-0.4,0.4-1,0.8-2,1c-1.1,0.3-2.1,0.4-3.1,0.4c-1,0-1.8-0.2-2.4-0.7c-0.6-0.4-1-1.1-1.3-2c-0.2-0.8-0.3-2.2-0.4-4.1
		c-1.5,0.1-2.8,0.3-3.9,0.5c-0.2,0.1-0.4,0.2-0.6,0.2c-0.3,0-0.4-0.2-0.4-0.6c0-0.5,0.4-0.8,1.1-0.9c0.8-0.1,2-0.2,3.7-0.3
		c0-0.8,0-1.7,0.1-2.7l0-0.4l-1.4,0.1c-0.8,0.1-1.7,0.3-2.7,0.6c-0.5,0.2-0.9,0.3-1.1,0.3c-0.3,0-0.5-0.2-0.5-0.6
		c0-0.3,0.1-0.6,0.3-0.9c0.2-0.2,0.5-0.3,1.1-0.4l3.1-0.3l1.3-0.1c0.1-0.9,0.1-1.8,0.1-2.4C304,34.4,304.2,34,304.7,34z"/>
	<path class="st0" d="M327.6,39.7c1.1,0,2.1,0.1,2.9,0.4c0.8,0.3,1.5,0.7,1.9,1.3c0.4,0.5,0.6,1.1,0.6,1.8c0,1.1-0.4,2.1-1.2,3
		c-0.8,0.9-1.7,1.6-2.9,2.1c-1.3,0.5-2.2,0.8-2.9,0.8c-0.3,0-0.6-0.1-1-0.4c-0.4-0.4-0.6-0.6-0.6-0.9c0-0.1,0.2-0.2,0.6-0.3
		c1.6-0.1,2.8-0.4,3.7-0.8c1.1-0.5,1.9-1,2.4-1.6c0.5-0.6,0.8-1.3,0.8-2c0-0.8-0.3-1.5-0.9-1.9c-0.7-0.4-1.6-0.6-2.8-0.6
		c-0.8,0-1.8,0.1-3,0.3c-1.6,0.2-3.2,0.7-4.9,1.3c-0.4,0.1-0.7,0.2-0.8,0.2c-0.4,0-0.6-0.2-0.6-0.6c0-0.5,0.4-0.9,1.3-1.2
		c1.1-0.3,2.3-0.5,3.6-0.6C325.2,39.8,326.4,39.7,327.6,39.7z"/>
	<path class="st0" d="M345.8,38.2l-1.2,0c-0.4,1.7-0.8,3.2-1.4,4.7c-0.8,2-1.7,3.8-2.6,5.2c-0.4,0.7-0.9,1-1.3,1
		c-0.3,0-0.7-0.1-1.1-0.3c-0.4-0.2-0.6-0.4-0.6-0.6c0-0.2,0.3-0.6,1-1.2c1-1,1.9-2.1,2.6-3.5c0.8-1.4,1.5-3,2-4.6l0.2-0.7
		c-1,0.1-1.9,0.2-2.7,0.4c-0.8,0.2-1.2,0.4-1.4,0.4c-0.4,0-0.6-0.2-0.6-0.5c0-0.3,0.1-0.5,0.2-0.7c0.1-0.2,0.5-0.3,1.1-0.3
		c1.3-0.1,2.5-0.2,3.6-0.3c0.1-0.8,0.2-1.6,0.2-2.3c0-0.6,0.2-0.8,0.6-0.8c0.4,0,0.6,0.2,0.6,0.6c0,0.3-0.1,1.2-0.4,2.5
		c1.1-0.1,2.1-0.1,3-0.2h1c0.3,0,0.5,0.1,0.5,0.3c0,0.1-0.1,0.3-0.2,0.6c-0.2,0.4-0.3,0.5-0.5,0.5c-0.3,0-0.6,0-1.1-0.1
		C347,38.2,346.4,38.2,345.8,38.2z M346.5,44.9c0.3,0,0.4,0.1,0.4,0.4c0,0.2,0,0.4-0.1,0.7c0,0.2-0.1,0.4-0.1,0.5
		c0,0.4,0.2,0.7,0.5,1c0.4,0.2,1,0.3,1.8,0.3c1.1,0,2.2-0.1,3.3-0.2c1-0.2,1.8-0.5,2.5-0.8c0.4-0.2,0.5-0.3,0.6-0.3
		c0.1,0,0.2,0.1,0.2,0.4c0,0.4-0.1,0.9-0.4,1.4c-0.3,0.5-0.7,0.8-1.2,1c-0.5,0.1-1.3,0.2-2.4,0.2c-1.7,0-3-0.2-4-0.5
		c-0.6-0.2-1.1-0.5-1.4-0.9c-0.3-0.4-0.5-0.9-0.5-1.5c0-0.4,0.1-0.8,0.2-1.1C346.2,45.1,346.4,44.9,346.5,44.9z M351.1,40h0.8
		c1,0,1.5,0.2,1.5,0.5c0,0.2-0.2,0.5-0.6,0.8l-1.6,1.2c-0.5,0.4-0.9,0.6-1.1,0.6c-0.1,0-0.2-0.1-0.2-0.2c0-0.2,0.1-0.3,0.2-0.5
		c0.8-0.8,1.1-1.3,1.1-1.3h-0.6c-1.1,0-2,0.1-2.7,0.3c-0.8,0.2-1.2,0.3-1.4,0.3c-0.3,0-0.4-0.1-0.4-0.4c0-0.2,0.1-0.4,0.3-0.6
		c0.2-0.1,0.5-0.3,0.9-0.4C348.6,40.1,349.9,40,351.1,40z"/>
	<path class="st0" d="M366.4,40c3.3,0,5.6,0.1,6.7,0.2l0.7-0.1c0.4,0,0.7,0.2,0.7,0.6c0,0.2-0.2,0.3-0.5,0.5c-0.8,0.5-1.8,1.2-3,2.1
		l-0.3,0.2c0.1,0.2,0.2,0.3,0.3,0.5l0.2,0.5c1.2,0,2.6,0.1,4,0.3c1.4,0.1,2.8,0.2,4.1,0.2c0.4,0,0.7,0,1.1-0.1c0,0,0.1,0.1,0.1,0.3
		c0,0.4-0.1,0.9-0.3,1.3c-0.3,0.5-0.5,0.7-0.8,0.7c-0.4,0-0.8-0.1-1.2-0.3c-1.6-0.6-3-0.9-4.4-1.1c-0.7-0.1-1.5-0.2-2.4-0.2
		c0,0.3,0.1,0.7,0.1,1.1c0,1.1-0.2,1.8-0.5,2.4c-0.3,0.5-0.8,0.9-1.5,1.2c-0.6,0.2-1.1,0.3-1.7,0.3c-0.4,0-0.8-0.1-1-0.4
		c-0.3-0.3-0.4-0.6-0.4-1c0-0.2,0.2-0.4,0.5-0.4c1.1,0,1.8-0.1,2.2-0.3c0.4-0.2,0.6-0.4,0.7-0.6c0.1-0.3,0.2-0.7,0.2-1.1
		c0-0.4,0-0.8-0.1-1.1h0c-1.8,0-3.4,0.1-4.8,0.3c-1.4,0.3-2.9,0.7-4.2,1.2c-0.4,0.1-0.8,0.2-1,0.2c-0.4,0-0.6-0.2-0.6-0.6
		c0-0.3,0.1-0.5,0.3-0.7c0.2-0.2,0.5-0.3,0.8-0.4c4.3-0.7,7.4-1,9.3-1l-0.1-0.1c-0.2-0.5-0.6-0.9-1.2-1.3c-0.1-0.1-0.2-0.2-0.2-0.3
		c0-0.4,0.2-0.6,0.5-0.6c0.1,0,0.3,0.1,0.6,0.3c0.2,0.1,0.4,0.3,0.6,0.4l0,0l1.9-1.6c0-0.1-0.1-0.2-0.4-0.2c-2,0-3.9,0.1-5.6,0.3
		c-0.4,0-0.6-0.2-0.6-0.5c0-0.2,0.1-0.4,0.3-0.6C365.9,40.1,366.1,40,366.4,40z M375.1,33.8c0.6,0,0.9,0.3,0.9,0.8
		c0,0.2-0.1,0.5-0.3,0.7l-1.3,2.3l-0.1,0.3c1,0,2,0.1,2.9,0.2l0.9-0.2c0.4,0,0.6,0.2,0.6,0.5c0,0.1,0,0.3-0.1,0.5
		c-0.2,0.6-0.4,1.6-0.5,2.8c0,0.4-0.2,0.6-0.6,0.6c-0.4,0-0.6-0.2-0.6-0.6c0-0.8,0-1.5,0.1-2.2c0-0.1-0.1-0.1-0.4-0.2
		c-1.8-0.3-3.9-0.4-6.2-0.4c-2.3,0-4.4,0.1-6.3,0.3c-0.7,0-1,0.2-1,0.5c0,1.2-0.1,2-0.3,2.2c-0.1,0.3-0.3,0.4-0.6,0.4
		c-0.3,0-0.4-0.1-0.4-0.3c0-1.4-0.1-2.7-0.4-3.7c0-0.4,0.2-0.6,0.7-0.6c0.3,0,0.5,0,0.7,0.1c0.3,0.1,0.5,0.1,0.6,0.1
		c1.4-0.1,3.3-0.1,5.6-0.1c1.5,0,2.9,0,4.2,0.1c0.1-0.5,0.5-1.7,1.1-3.5C374.6,34,374.8,33.8,375.1,33.8z M365.5,33.9
		c0.4,0.1,0.6,0.3,0.6,0.7c0.2,1.1,0.3,1.7,0.3,2c0,0.2-0.2,0.4-0.5,0.4c-0.2,0-0.4-0.2-0.6-0.5l-0.6-1.2c-0.1-0.2-0.2-0.4-0.2-0.6
		C364.6,34.2,364.9,34,365.5,33.9z M369.4,33.7c0.4,0.1,0.6,0.3,0.6,0.7c0.1,1.1,0.1,1.8,0.1,2.1c0,0.2-0.2,0.4-0.5,0.4
		c-0.1,0-0.3-0.2-0.5-0.5l-0.5-1.3c-0.1-0.2-0.1-0.4-0.1-0.6C368.6,34,368.8,33.8,369.4,33.7z"/>
	<path class="st0" d="M389.2,35.1c0.4,0,0.6,0.2,0.6,0.5c0,0.2-0.1,0.4-0.2,0.6c-0.3,0.6-0.6,1.2-1,1.7h3.9l0-3
		c0-0.6,0.2-0.8,0.7-0.8c0.6,0,0.9,0.3,0.9,0.8l0,3h5.6c0.2,0,0.3,0.1,0.4,0.3c0,0.3-0.1,0.6-0.3,0.8c-0.2,0.2-0.5,0.3-0.9,0.3
		c-0.3,0-0.9-0.1-2-0.2c-0.9,0-1.8-0.1-2.8-0.1l0,3.5h4.8c0.2,0,0.4,0.1,0.4,0.3c0,0.3-0.1,0.6-0.3,0.8c-0.2,0.2-0.5,0.3-0.9,0.3
		c-0.2,0-0.8-0.1-1.8-0.2c-0.7,0-1.4-0.1-2.2-0.1l-0.1,3.8c1.3,0,2.8,0.2,4.4,0.4c1.5,0.2,2.8,0.2,4.2,0.2c0.4,0,0.7,0,1.1-0.1
		c0.1,0,0.1,0.1,0.1,0.3c0,0.4-0.1,0.9-0.4,1.3c-0.3,0.5-0.5,0.7-0.8,0.7c-0.4,0-0.8-0.1-1.2-0.3c-1.6-0.6-3-1-4.4-1.2
		c-1.1-0.1-2.4-0.2-3.9-0.2c-1.8,0-3.3,0.1-4.6,0.3c-1.4,0.3-2.7,0.7-4.1,1.2c-0.4,0.2-0.7,0.2-1,0.2c-0.5,0-0.7-0.3-0.7-0.8
		c0-0.3,0.1-0.5,0.4-0.7c0.2-0.2,0.5-0.3,0.8-0.4c4-0.6,6.9-1,8.7-1l0-3.7c-1.6,0-2.8,0.1-3.6,0.2c-0.5,0.1-0.8,0.2-0.9,0.2
		c-0.5,0-0.8-0.3-0.8-0.7c0-0.2,0.2-0.4,0.4-0.6c0.2-0.1,0.5-0.2,0.9-0.2h4l0-3.5c-1.6,0-2.8,0.1-3.6,0.3c-0.5,0.1-0.8,0.2-1,0.2
		c-0.2,0-0.3,0-0.4-0.1c-0.3,0.4-0.6,0.7-0.8,1c-0.4,0.5-0.8,0.7-1.1,0.7c-0.4,0-0.7-0.1-1.1-0.4c-0.4-0.3-0.5-0.6-0.5-0.9
		c0-0.2,0.2-0.3,0.5-0.4c0.8-0.3,1.6-0.8,2.3-1.5c0.7-0.7,1.4-1.6,2-2.8C388.9,35.1,389.1,35.1,389.2,35.1z"/>
	<path class="st0" d="M415.8,38.2l-1.2,0c-0.4,1.7-0.8,3.2-1.4,4.7c-0.8,2-1.7,3.8-2.6,5.2c-0.4,0.7-0.9,1-1.3,1
		c-0.3,0-0.7-0.1-1.1-0.3c-0.4-0.2-0.6-0.4-0.6-0.6c0-0.2,0.3-0.6,1-1.2c1-1,1.9-2.1,2.6-3.5c0.8-1.4,1.5-3,2-4.6l0.2-0.7
		c-1,0.1-1.9,0.2-2.7,0.4c-0.8,0.2-1.2,0.4-1.4,0.4c-0.4,0-0.6-0.2-0.6-0.5c0-0.3,0.1-0.5,0.2-0.7c0.1-0.2,0.5-0.3,1.1-0.3
		c1.3-0.1,2.5-0.2,3.6-0.3c0.1-0.8,0.2-1.6,0.2-2.3c0-0.6,0.2-0.8,0.6-0.8c0.4,0,0.6,0.2,0.6,0.6c0,0.3-0.1,1.2-0.4,2.5
		c1.1-0.1,2.1-0.1,3-0.2h1c0.3,0,0.5,0.1,0.5,0.3c0,0.1-0.1,0.3-0.2,0.6c-0.2,0.4-0.3,0.5-0.5,0.5c-0.3,0-0.6,0-1.1-0.1
		C417,38.2,416.5,38.2,415.8,38.2z M416.6,44.9c0.3,0,0.4,0.1,0.4,0.4c0,0.2,0,0.4-0.1,0.7c0,0.2-0.1,0.4-0.1,0.5
		c0,0.4,0.2,0.7,0.5,1c0.4,0.2,1,0.3,1.8,0.3c1.1,0,2.2-0.1,3.3-0.2c1-0.2,1.8-0.5,2.5-0.8c0.4-0.2,0.5-0.3,0.6-0.3
		c0.1,0,0.2,0.1,0.2,0.4c0,0.4-0.1,0.9-0.4,1.4c-0.3,0.5-0.7,0.8-1.2,1c-0.5,0.1-1.3,0.2-2.4,0.2c-1.7,0-3-0.2-4-0.5
		c-0.6-0.2-1.1-0.5-1.4-0.9c-0.3-0.4-0.5-0.9-0.5-1.5c0-0.4,0.1-0.8,0.2-1.1C416.3,45.1,416.4,44.9,416.6,44.9z M421.2,40h0.8
		c1,0,1.5,0.2,1.5,0.5c0,0.2-0.2,0.5-0.6,0.8l-1.6,1.2c-0.5,0.4-0.9,0.6-1.1,0.6c-0.1,0-0.2-0.1-0.2-0.2c0-0.2,0.1-0.3,0.2-0.5
		c0.8-0.8,1.1-1.3,1.1-1.3h-0.6c-1.1,0-2,0.1-2.7,0.3c-0.8,0.2-1.2,0.3-1.4,0.3c-0.3,0-0.4-0.1-0.4-0.4c0-0.2,0.1-0.4,0.3-0.6
		c0.2-0.1,0.5-0.3,0.9-0.4C418.7,40.1,419.9,40,421.2,40z"/>
	<path class="st0" d="M437.7,37.6c1.8,0,3.5,0,5.2,0.1l2.5,0.1l0.5,0c0.3,0,0.5-0.1,0.6-0.1c0.2,0,0.3,0.1,0.3,0.3
		c0,0.3-0.2,0.6-0.6,1.2c-0.3,0.5-0.6,0.7-1,0.7c-0.2,0-0.6-0.1-1.2-0.3c-1-0.3-2-0.5-3.1-0.6s-2.1-0.2-3.2-0.2l-0.6,0
		c-0.3,1.3-0.7,2.4-1,3.1c-0.2,0.4-0.5,0.8-0.7,1.3c0.5-0.2,1-0.4,1.5-0.6c1.2-0.4,2.4-0.6,3.5-0.6c1.4,0,2.5,0.3,3.3,0.8
		c1,0.6,1.4,1.3,1.4,2.3c0,0.9-0.3,1.8-1,2.5c-0.8,0.8-1.8,1.4-3.2,1.8c-1.1,0.3-2.6,0.5-4.3,0.5c-0.8,0-1.3-0.2-1.7-0.7
		c-0.3-0.4-0.5-0.8-0.5-1.2c0-0.2,0.1-0.3,0.3-0.3c0.1,0,0.5,0,1,0.1c0.8,0.1,1.5,0.1,2.1,0.1c1.1,0,2.2-0.1,3.1-0.3
		c1.1-0.2,1.9-0.6,2.4-1.2c0.4-0.4,0.5-0.9,0.5-1.5c0-0.6-0.3-1.1-0.9-1.4c-0.6-0.4-1.5-0.6-2.8-0.6c-0.8,0-1.7,0.2-2.7,0.5
		c-0.8,0.3-2,0.9-3.4,1.9c-0.2,0.1-0.4,0.2-0.5,0.2l-0.4-0.2l-0.2-0.4c0-0.2,0.1-0.3,0.3-0.5c1.1-1.3,1.8-2.7,2.3-4.2l0.3-1.1
		c-0.8,0.1-1.7,0.2-2.4,0.4c-1.1,0.3-1.8,0.5-2.3,0.6c-0.5,0.2-0.9,0.3-1,0.3c-0.4,0-0.6-0.2-0.6-0.5c0-0.4,0.1-0.6,0.3-0.9
		c0.2-0.3,0.5-0.5,0.9-0.6c2.4-0.3,4.2-0.5,5.4-0.6c0.2-0.8,0.2-1.7,0.2-2.5c0-0.6,0.2-0.8,0.6-0.8c0.6,0,0.8,0.3,0.8,0.8
		c0,0.5-0.1,1.3-0.3,2.4H437.7z"/>
	<path class="st0" d="M456.3,34c0.5,0,0.7,0.3,0.7,0.9c0,0.1-0.1,0.4-0.2,1.1c-0.1,1-0.2,1.9-0.2,2.8c0,0.5,0,1,0.1,1.5
		c0.7-0.5,1.3-0.9,2-1.4c1.1-0.8,1.9-1.2,2.3-1.2c0.4,0,0.6,0.1,0.8,0.3c0.1,0.2,0.2,0.4,0.2,0.4c0,0.4-0.3,0.7-0.8,1
		c-2.1,1.1-3.2,1.7-3.2,1.7c-1.7,0.9-3,1.8-3.9,2.7c-0.8,0.8-1.2,1.6-1.2,2.2c0,0.6,0.2,1,0.7,1.2c0.5,0.3,1.4,0.5,2.6,0.5
		c1.7,0,3.3-0.1,4.8-0.3c1.5-0.2,2.8-0.5,3.9-0.9c0.4-0.2,0.7-0.3,1-0.3c0.1,0,0.2,0.1,0.2,0.3c0,0.5-0.1,1-0.4,1.5
		c-0.3,0.5-0.7,0.8-1.4,0.9c-0.8,0.2-2.5,0.3-5.2,0.3c-2.4,0-4.2-0.3-5.4-0.8c-1.2-0.5-1.8-1.4-1.8-2.5c0-0.7,0.2-1.3,0.6-2
		c0.4-0.7,1.2-1.4,2.2-2.2l0.9-0.7c-0.2-1-0.2-1.9-0.2-2.7v-2.2C455.4,34.8,455.7,34,456.3,34z"/>
	<path class="st0" d="M474,47.6c-0.4,0-0.8-0.2-1.1-0.5c-0.5-0.5-0.9-1.1-1.2-2c-0.3-0.9-0.4-1.8-0.4-2.5c0-1.5,0.5-2.9,1.6-4.2
		c0.8-1,1.9-1.8,3.3-2.3c1.2-0.4,2.4-0.6,3.8-0.6c1.3,0,2.6,0.3,3.9,0.8c1.1,0.5,2,1.2,2.6,2.2c0.6,0.9,0.9,2,0.9,3.1
		c0,1.3-0.4,2.5-1.1,3.6c-0.9,1.2-2,2.1-3.5,2.8c-1.2,0.6-2.1,0.8-2.9,0.8c-0.4,0-0.9-0.2-1.3-0.5c-0.4-0.4-0.6-0.7-0.6-1
		c0-0.1,0.2-0.2,0.6-0.3c2-0.2,3.6-0.6,4.7-1.3c0.9-0.5,1.6-1.1,2.1-1.9c0.5-0.8,0.7-1.6,0.7-2.6c0-0.8-0.2-1.6-0.6-2.3
		c-0.4-0.8-1.1-1.3-2-1.8c-1-0.4-2-0.7-3.1-0.7l-0.6,0c-0.3,1.6-0.7,3.2-1.3,4.8c-0.7,1.8-1.4,3.2-2.3,4.4
		C475.3,47.1,474.6,47.6,474,47.6z M478.3,36.9c-0.5,0.1-1,0.2-1.4,0.3c-1.3,0.4-2.3,1.1-3.1,2c-0.9,1.2-1.4,2.3-1.4,3.3
		c0,0.8,0.2,1.5,0.6,2.3c0.4,0.6,0.7,0.9,1,0.9c0.4,0,0.9-0.3,1.4-1c0.6-0.8,1.1-1.8,1.7-3.1C477.5,40.4,478,38.8,478.3,36.9z"/>
	<path class="st0" d="M132.8,70.9c0.3,0,0.4,0.1,0.4,0.3c0,0.3-0.1,0.5-0.3,0.6l-4.3,1.6c-0.6,0-0.8-0.2-0.8-0.7c0-0.6,0.2-1,0.7-1
		L132.8,70.9z M130.3,63.8c0.1,0,0.3,0.1,0.6,0.2c0.8,0.6,1.7,1.3,2.7,2c0.1,0.1,0.2,0.2,0.2,0.3c0,0.2-0.2,0.4-0.5,0.4
		c-0.1,0-0.3,0-0.5-0.1l-2.8-1.1c-0.4-0.3-0.6-0.6-0.6-1C129.3,64.1,129.6,63.8,130.3,63.8z M133.3,76.4c0.2,0,0.4,0.1,0.4,0.4
		c0,0.2-0.1,0.4-0.2,0.6c-1.6,1.7-2.5,2.6-2.7,2.6c-0.7,0-1-0.2-1-0.6c0-0.5,0.1-0.9,0.4-1C130.1,78.3,131.1,77.6,133.3,76.4z
		 M145.5,64c0.3,0,0.5,0.1,0.5,0.4c0,0.3-0.1,0.5-0.4,0.6c-1.4,0.4-2.6,0.8-3.7,1.1l0,3.3c0.8,0,1.6,0.1,2.5,0.1
		c1,0,1.8,0.1,2.5,0.1c0.5,0,1-0.1,1.7-0.2c0.1,0,0.2,0.2,0.2,0.5c0,0.5-0.2,1-0.5,1.6c-0.3,0.4-0.5,0.6-0.7,0.6
		c-0.3,0-0.7-0.1-1.1-0.4c-0.7-0.4-1.5-0.7-2.4-0.8c-0.7-0.1-1.4-0.2-2.1-0.2l0,3.4h0.1c0.7,0,1.4,0,2.4,0.1c0.2,0,0.5-0.1,0.8-0.2
		c0.4,0,0.6,0.3,0.6,0.8l0,0.1c-0.1,0.2-0.1,0.5-0.1,0.9c0,0.6-0.1,1.2-0.1,1.8c0,0.4,0,0.9,0.1,1.6c0,0.5-0.2,0.7-0.6,0.7
		c-1.5-0.1-2.8-0.2-3.9-0.2c-1.4,0-2.2,0-2.6,0.1c-0.3,0-0.7,0.1-1.1,0.1c-0.4,0-0.7-0.2-0.7-0.6c0.1-0.9,0.2-1.7,0.2-2.4
		c0-0.7-0.1-1.4-0.2-2.4c0-0.4,0.2-0.7,0.7-0.7c0.2,0,0.4,0,0.7,0.1c0.2,0.1,0.6,0.1,1,0.1h1.6l0-3.5c-0.9,0-1.8,0.1-2.6,0.2
		c-0.6,0.1-1.5,0.4-2.7,1c-0.6,0-0.8-0.2-0.8-0.7c0-0.3,0.1-0.5,0.3-0.7c0.3-0.3,0.7-0.5,1.2-0.5c2-0.3,3.5-0.4,4.6-0.5l0-3
		l-1.2,0.2c-1.1,0.2-1.9,0.3-2.2,0.3c-0.4,0-0.8-0.1-1.1-0.4c-0.3-0.3-0.4-0.5-0.4-0.8c0-0.2,0.1-0.3,0.4-0.3c2.2,0,4.1-0.2,5.5-0.5
		c1.5-0.2,2.7-0.5,3.7-0.9C145.3,64,145.4,64,145.5,64z M141,78.7l2.9,0.1c0.3,0,0.4-0.1,0.4-0.3v-3c0-0.2-0.1-0.3-0.2-0.3
		c-1.2-0.1-3.1-0.1-5.4-0.1c-0.3,0-0.5,0.2-0.5,0.5c0,1-0.1,1.9-0.2,2.8c0,0.2,0.2,0.4,0.6,0.4C139.2,78.7,140,78.7,141,78.7z"/>
	<path class="st0" d="M161.3,63.7c0.3,0,0.5,0.2,0.5,0.5s-0.1,0.5-0.4,0.6c-1.2,0.3-2.4,0.5-3.4,0.6l0,1.4h4.2
		c0.2,0,0.3,0.1,0.4,0.3c0,0.3-0.1,0.6-0.3,0.8c-0.2,0.2-0.5,0.3-0.9,0.3c-0.2,0-0.8-0.1-1.7-0.2l-1.8-0.1V69c0.7,0,1.5,0,2.4,0.1
		c0.2,0,0.5,0,0.9-0.1c0.4,0,0.6,0.2,0.6,0.7l0,0.1c-0.1,0.1-0.1,0.4-0.2,0.8c0,0.5-0.1,1.1-0.1,1.7c0,0.4,0,0.9,0.1,1.5
		c0,0.4-0.2,0.7-0.6,0.7c-1.1-0.1-2.1-0.2-3.1-0.2v1.1h3.3c0.2,0,0.3,0.1,0.3,0.3c0,0.3-0.1,0.5-0.2,0.7c-0.2,0.2-0.5,0.3-0.8,0.3
		c-0.2,0-0.6,0-1.3-0.1l-1.2,0v1.1c1.4-0.2,2.5-0.3,3.3-0.4c0.2,0,0.3,0.1,0.3,0.4c0,0.3-0.1,0.5-0.4,0.6c-3,0.5-5.8,1.1-8.4,1.8
		c-0.5,0-0.7-0.2-0.7-0.6c0-0.3,0.1-0.6,0.2-0.7c0.1-0.1,0.3-0.2,0.8-0.3l3.6-0.6v-1.3c-1.2,0-2.1,0.1-2.7,0.2
		c-0.4,0.1-0.6,0.2-0.7,0.2c-0.4,0-0.6-0.2-0.7-0.6c0-0.2,0.1-0.4,0.4-0.6c0.2-0.1,0.4-0.2,0.8-0.2h2.9v-1.1c-1.2,0-2,0-2.4,0.1
		c-0.3,0-0.7,0.1-1.2,0.2c-0.4,0-0.7-0.2-0.7-0.7c0.1-0.8,0.2-1.6,0.2-2.3c0-0.6-0.1-1.3-0.2-2.1c0-0.4,0.2-0.7,0.7-0.7l0.7,0
		c0.2,0,0.6,0,1,0h1.8v-1.1c-1.7,0-2.9,0.1-3.6,0.2c-0.5,0.1-0.8,0.2-0.9,0.2c-0.5,0-0.7-0.2-0.7-0.6c0-0.2,0.1-0.5,0.4-0.6
		c0.2-0.1,0.5-0.2,0.8-0.2h4.1l0-1.2l-0.9,0.1c-1,0.1-1.7,0.2-2,0.2c-0.4,0-0.7-0.1-1.1-0.4c-0.2-0.2-0.3-0.5-0.3-0.7
		c0-0.2,0.1-0.2,0.4-0.3c2,0,3.7-0.1,5-0.3c1.3-0.1,2.4-0.3,3.3-0.5L161.3,63.7z M156.6,73.4l0-1.2c-1,0-1.8,0.1-2.5,0.1l-0.2,0
		l-0.1,0.7c0,0.3,0.2,0.5,0.6,0.5C155,73.4,155.7,73.4,156.6,73.4z M153.9,71.3h0.2h2.4V70h-2.1c-0.3,0-0.5,0.1-0.5,0.4L153.9,71.3z
		 M158,72.2l0,1.2l2,0.1c0.2,0,0.4-0.1,0.4-0.4v-0.9L158,72.2z M158,70.1v1.2h2.3h0.1v-0.9c0-0.1-0.1-0.2-0.2-0.2L158,70.1z
		 M166.3,68.5c0.2-1.5,0.4-2.9,0.4-4.1c0-0.4,0.3-0.7,0.6-0.7c0.5,0,0.7,0.3,0.8,0.8c0,0.1,0,0.4-0.1,0.9c-0.1,1.2-0.3,2.2-0.4,3.2
		h3c0.1,0,0.4-0.1,0.8-0.2c0.6,0,0.9,0.3,0.9,0.8c-0.4,1.8-0.6,3.6-0.7,5.4c-0.2,2.5-0.7,4.1-1.4,4.8c-0.6,0.7-1.4,1.1-2.4,1.1
		c-0.4,0-0.7-0.2-1-0.5c-0.2-0.3-0.3-0.6-0.3-0.9c0-0.3,0.1-0.4,0.4-0.5c1.3-0.1,2.1-0.4,2.5-0.9c0.5-0.5,0.8-2.1,1.1-4.7
		c0.1-1.6,0.2-2.6,0.2-3c0-0.2-0.1-0.4-0.3-0.4h-3c-0.2,1.2-0.4,2.2-0.6,3c-0.4,1.5-0.9,3-1.5,4.3c-0.5,1.1-1.2,2.1-2.1,2.9
		c-0.3,0.3-0.6,0.5-0.9,0.5c-0.2,0-0.5-0.1-0.7-0.4c-0.3-0.3-0.4-0.6-0.5-0.9c0-0.2,0.1-0.3,0.3-0.4c0.9-0.3,1.5-0.8,2-1.5
		c0.6-0.8,1.2-2,1.8-3.6c0.4-1.2,0.7-2.5,1-4c-0.6,0-1.1,0.1-1.7,0.2c-0.5,0.1-0.8,0.2-1,0.2c-0.4,0-0.6-0.2-0.6-0.5
		c0-0.5,0.2-0.9,0.7-0.9C164,68.6,164.9,68.5,166.3,68.5z"/>
	<path class="st0" d="M177,69.9c0.8,0,1.7,0.1,2.5,0.2c0.3-0.1,0.5-0.2,0.7-0.2c0.6,0,0.9,0.3,0.9,0.8c0,0.2-0.1,0.4-0.3,0.6
		c-0.5,0.8-0.9,1.6-1.2,2.4c-0.3,0.8-0.5,1.7-0.6,2.7c0.8,0.1,2.2,0.2,4.3,0.5c5.1,0.6,8.6,0.9,10.4,0.9c0.7,0,1.2,0,1.7-0.1
		c0.3-0.1,0.5-0.1,0.6-0.1s0.2,0.1,0.2,0.4c0,0.5-0.2,1-0.7,1.6c-0.4,0.6-0.8,0.9-1.2,0.9c-0.4,0-0.8-0.1-1.2-0.2
		c-5.3-1.2-8.9-1.9-10.9-2.3c-1.7-0.3-2.8-0.5-3.2-0.5c-0.6,0-1.3,0.5-2.1,1.5c-0.2,0.3-0.5,0.4-0.7,0.4c-0.4,0-0.7-0.2-0.7-0.6
		c0-0.2,0.5-0.8,1.6-1.8c0.2-0.2,0.4-0.4,0.6-0.5c0.4-2,0.8-3.7,1.4-5.2c0-0.1,0-0.2-0.1-0.2l-0.2,0c-0.7,0-1.3,0-1.9,0.1
		c-0.2,0-0.5,0.1-0.8,0.2c-0.4,0-0.6-0.2-0.6-0.6C175.6,70.2,176.1,69.9,177,69.9z M177.4,64.3l3.4,1.6c0.3,0.1,0.4,0.3,0.4,0.6
		c0,0.2-0.2,0.3-0.5,0.3l-3.4-0.7c-0.5-0.1-0.7-0.5-0.7-1.1C176.5,64.5,176.8,64.3,177.4,64.3z M183.7,65.1h4l0-0.8
		c0-0.6,0.2-0.8,0.6-0.8c0.4,0,0.7,0.3,0.7,0.8l0,0.8h5c0.2,0,0.3,0.1,0.3,0.2c0,0.3-0.1,0.5-0.2,0.7c-0.2,0.2-0.5,0.3-0.8,0.3
		l-1.8-0.1l-2.5,0v1.1h0.3c0.7,0,1.6,0,2.6,0.1c0.2,0,0.5-0.1,0.8-0.2c0.4,0,0.6,0.2,0.6,0.7l0,0.2c-0.1,0.2-0.1,0.5-0.1,0.9
		c0,0.6-0.1,1.2-0.1,1.8c0,0.4,0,0.9,0.1,1.6c0,0.5-0.2,0.7-0.7,0.7c-1.3-0.1-2.4-0.2-3.5-0.2v1.1h5.3c0.2,0,0.4,0.1,0.4,0.3
		c0,0.3-0.1,0.6-0.3,0.8c-0.2,0.2-0.5,0.3-0.9,0.3c-0.3,0-0.9-0.1-2-0.2c-0.8,0-1.6-0.1-2.5-0.1l0,0.6c0,0.9-0.3,1.3-0.8,1.3
		c-0.4,0-0.6-0.4-0.6-1.3l0-0.6c-1.9,0-3.2,0.1-4.1,0.2c-0.5,0.1-0.8,0.2-1,0.2c-0.4,0-0.7-0.3-0.7-0.7c0-0.2,0.1-0.4,0.4-0.6
		c0.2-0.1,0.5-0.2,0.8-0.2h4.6l0-1.1c-1.1,0-1.8,0-2.2,0.1c-0.4,0-0.8,0.1-1.3,0.1c-0.4,0-0.7-0.2-0.7-0.6c0.1-0.9,0.2-1.7,0.2-2.4
		c0-0.6-0.1-1.4-0.2-2.3c0-0.4,0.2-0.6,0.7-0.6c0.2,0,0.4,0,0.7,0.1c0.2,0.1,0.6,0.1,1,0.1h1.8l0-1.1c-1.6,0-2.8,0.1-3.5,0.1
		c-0.5,0.1-0.8,0.1-0.9,0.1c-0.4,0-0.6-0.3-0.6-0.7c0-0.2,0.1-0.4,0.4-0.6C183.1,65.1,183.3,65.1,183.7,65.1z M187.6,71.8l0-1.3
		c-1,0-1.9,0.1-2.6,0.1H185c0,0.3-0.1,0.6-0.1,0.8c0,0.2,0.2,0.4,0.6,0.4C186.1,71.9,186.8,71.8,187.6,71.8z M185,69.6L185,69.6h2.6
		v-1.2h-2.1c-0.3,0-0.5,0.2-0.5,0.5L185,69.6z M188.8,68.4v1.2h2.8h0.1v-0.8c0-0.2-0.1-0.3-0.2-0.3
		C190.8,68.4,189.9,68.4,188.8,68.4z M188.8,70.5l0,1.3l2.5,0.1c0.3,0,0.4-0.1,0.4-0.3v-1.1L188.8,70.5z"/>
	<path class="st0" d="M199.8,67.1h2.7l0-2.7c0-0.7,0.3-1,0.8-1c0.5,0,0.7,0.2,0.7,0.7c0,0.1,0,0.4-0.1,0.7c0,0.4-0.1,0.7-0.1,0.9
		l0,1.3h2.2c0.2,0,0.3,0.1,0.3,0.3c0,0.2-0.1,0.5-0.3,0.6c-0.2,0.2-0.5,0.3-0.8,0.3l-1-0.1h-0.5c0,1.2,0,2.4,0.1,3.4
		c0.8-0.2,1.4-0.4,1.9-0.5c0.3,0,0.4,0.1,0.4,0.4c0,0.4-0.2,0.6-0.5,0.6l-1.8,0.6c0,1.6,0,2.7,0,3.6c0,1.4-0.3,2.4-1,3.1
		c-0.5,0.5-1.2,0.8-1.9,0.8c-0.4,0-0.7-0.1-1-0.4c-0.2-0.2-0.3-0.5-0.3-0.7c0-0.3,0.2-0.4,0.5-0.5c1.1-0.3,1.8-0.6,2.1-1
		c0.2-0.4,0.3-0.9,0.3-1.6l0-2.7c-1.1,0.5-2.2,1-3.3,1.6c-0.5,0-0.7-0.2-0.7-0.6s0.1-0.6,0.2-0.8c0.1-0.2,0.3-0.4,0.6-0.6
		c1.2-0.4,2.3-0.8,3.2-1.1l-0.1-3.4v-0.5h-0.1c-1.2,0-2,0.1-2.5,0.2c-0.3,0.1-0.5,0.2-0.6,0.2c-0.5,0-0.7-0.3-0.7-0.7
		c0-0.2,0.1-0.4,0.4-0.6C199.1,67.2,199.4,67.1,199.8,67.1z M208.3,73.7h6.9c0.1,0,0.2,0,0.4-0.1c0.1-0.1,0.3-0.1,0.5-0.1
		c0.4,0,0.6,0.3,0.7,0.7c0,0.1-0.1,0.2-0.3,0.3c-0.4,0.3-0.9,0.7-1.6,1.4c0,0.1,0.1,0.2,0.2,0.2h2.5c0.1,0,0.3,0,0.4,0
		c0.2,0,0.3,0,0.4,0c0.4,0,0.6,0.2,0.6,0.7c0,0,0,0.1-0.1,0.1c-0.1,0.2-0.2,0.3-0.3,0.5c-0.6,1-1.1,1.7-1.5,2.2
		c-0.4,0.4-0.9,0.6-1.4,0.8c-0.4,0.1-0.7,0.2-0.9,0.2c-0.4,0-0.7-0.2-1-0.6c-0.3-0.2-0.4-0.5-0.5-0.7c0-0.2,0.1-0.3,0.3-0.4
		c0.6,0,1.1-0.1,1.5-0.2c0.4-0.1,0.8-0.2,1.1-0.4c0.3-0.1,0.7-0.5,1.2-1c0-0.1-0.1-0.2-0.3-0.2c-1.9,0-2.9,0-3.2,0.1
		c-0.2,0.1-0.3,0.1-0.4,0.1c-0.4,0-0.7-0.2-0.7-0.6c0-0.1,0.1-0.2,0.2-0.4l1.3-1.5c0,0-0.1-0.1-0.2-0.1l-2.6,0l0,0.1
		c0,0-0.1,0.1-0.1,0.2c-0.3,0.8-0.7,1.7-1.3,2.7c-0.7,0.9-1.4,1.6-2.1,2.1c-0.5,0.4-0.9,0.5-1.2,0.5c-0.3,0-0.5-0.1-0.8-0.3
		c-0.4-0.3-0.5-0.7-0.5-1c0-0.2,0.2-0.4,0.7-0.5c0.9-0.1,1.7-0.6,2.4-1.3c0.7-0.7,1.2-1.5,1.6-2.6l-1,0c-0.8,0.1-1.2,0.2-1.3,0.2
		c-0.4,0-0.6-0.2-0.6-0.6c0-0.2,0.1-0.3,0.3-0.5C207.9,73.8,208.1,73.7,208.3,73.7z M210.5,63.7c0.4,0,0.6,0.2,0.6,0.5
		c0,0.1-0.1,0.2-0.2,0.4l-0.7,1.1h8.7c0.2,0,0.3,0.1,0.3,0.2c0,0.3-0.1,0.5-0.2,0.7c-0.2,0.2-0.5,0.3-0.8,0.3c-0.2,0-0.7,0-1.5-0.1
		c-0.7,0-1.4-0.1-2.2-0.1l0,1h3.6c0.2,0,0.3,0.1,0.3,0.2c0,0.3-0.1,0.5-0.2,0.7c-0.2,0.2-0.4,0.3-0.7,0.3c-0.2,0-0.7,0-1.4-0.1
		l-1.6,0v1h3.6c0.2,0,0.3,0.1,0.3,0.2c0,0.3-0.1,0.5-0.2,0.7c-0.2,0.2-0.4,0.3-0.7,0.3c-0.2,0-0.6,0-1.4-0.1l-1.6,0l0,1
		c0.6,0,1.1,0,1.6,0.1l1.5,0.1c0.7,0,1.4-0.1,2-0.2c0.2-0.1,0.4-0.1,0.5-0.1c0.1,0,0.2,0.2,0.2,0.5c0,0.3-0.1,0.7-0.4,1.1
		c-0.3,0.3-0.5,0.5-0.7,0.5c-0.3,0-0.6-0.1-0.9-0.2c-0.6-0.2-1.2-0.4-1.9-0.5c-1.1-0.2-2.3-0.2-3.4-0.2c-1.1,0-2.2,0.1-3.2,0.3
		c-0.1,0.1-0.3,0.2-0.6,0.2c-0.4,0-0.6-0.2-0.6-0.7c0.1-0.8,0.1-1.6,0.1-2.4c0-0.6-0.1-1.3-0.2-2.2c-0.2,0.1-0.4,0.2-0.6,0.2
		c-0.2,0-0.5-0.1-0.9-0.3c-0.3-0.2-0.4-0.4-0.5-0.6c0-0.1,0.1-0.1,0.2-0.2c0.6-0.2,1.1-0.5,1.6-0.9c0.6-0.5,1.3-1.2,2-2
		C210.2,63.8,210.3,63.7,210.5,63.7z M213.1,67.7l0-0.9c-1.1,0-1.9,0.1-2.5,0.1c-0.4,0.1-0.7,0.1-0.8,0.1h0l0,0.7h0.2H213.1z
		 M213.1,69.7v-1c-1.3,0-2.2,0-2.8,0.1l-0.6,0.1v0.9l0.3,0H213.1z M213.2,71.5l0-0.9c-1.2,0-2.2,0-2.7,0.1l-0.6,0.1v0.7v0.1
		c1.1,0,2.1,0,3,0H213.2z M214.7,63.7c0.4,0,0.6,0.2,0.6,0.5c0,0.3,0,0.5-0.1,0.6c-0.9,0.6-1.4,1-1.5,1c-0.3,0-0.4-0.1-0.4-0.3
		c0,0,0.2-0.5,0.7-1.4C214.2,63.8,214.4,63.7,214.7,63.7z"/>
	<path class="st0" d="M226.8,65c0.5,0,0.8,0.3,0.8,0.8c0,0.2-0.1,0.5-0.4,1.1c-0.3,0.8-0.6,1.7-0.9,2.8c-0.3,1.2-0.4,2.1-0.4,2.8
		c0,2,0.1,3.3,0.3,4c0.1,0.5,0.3,0.8,0.4,0.8c0.1,0,0.3-0.2,0.5-0.5c0.4-0.5,0.7-1.1,1-1.8c0.1-0.2,0.2-0.3,0.3-0.3
		c0.2,0,0.3,0.1,0.3,0.4c0,0.2-0.1,0.7-0.4,1.3c-0.4,1-0.8,1.8-1.1,2.3c-0.4,0.5-0.7,0.8-1,0.8c-0.4,0-0.9-0.6-1.3-1.9
		c-0.3-1.3-0.5-3-0.5-4.9c0-0.9,0.2-2.2,0.5-3.8c0.4-1.5,0.7-2.6,0.9-3.1C226.2,65.2,226.4,65,226.8,65z M231.2,72.8
		c0.2,0,0.3,0.1,0.3,0.3s-0.1,0.4-0.2,0.6c-0.1,0.4-0.1,0.6-0.1,0.7c0,0.6,0.3,1.1,0.8,1.5c0.5,0.4,1.4,0.6,2.7,0.6
		c1.2,0,2.2-0.1,3.1-0.2c0.8-0.1,1.5-0.3,2-0.6s0.9-0.4,0.9-0.4c0.1,0,0.2,0.1,0.2,0.4c0,0.2-0.1,0.6-0.4,1.1
		c-0.2,0.5-0.6,0.9-1.1,1.1c-0.6,0.1-1.8,0.2-3.5,0.2c-1.3,0-2.3-0.2-3.2-0.5c-0.8-0.3-1.4-0.6-1.8-1.2c-0.4-0.6-0.6-1.2-0.6-1.7
		c0-0.6,0.1-1,0.3-1.4C230.8,73,231,72.8,231.2,72.8z M238.2,66.4c0.4,0,0.6,0.2,0.6,0.6c0,0.3-0.6,0.8-1.8,1.6
		c-1.3,0.8-2,1.3-2.2,1.3c-0.2,0-0.3-0.1-0.3-0.3c0-0.2,0.2-0.4,0.5-0.7c0.9-0.8,1.4-1.2,1.4-1.3c0-0.1-0.1-0.1-0.4-0.1
		c-1.1,0-2.2,0.1-3.4,0.3c-1.2,0.2-1.8,0.3-1.9,0.3c-0.2,0-0.4-0.2-0.4-0.5c0-0.3,0.1-0.6,0.4-0.8c0.2-0.2,0.6-0.3,1.2-0.3
		C235.5,66.5,237.5,66.4,238.2,66.4z"/>
	<path class="st0" d="M254.7,67.2c1.3,0,2.5,0.2,3.4,0.5c1,0.3,1.8,0.8,2.2,1.6c0.5,0.6,0.7,1.3,0.7,2.2c0,1.3-0.5,2.5-1.5,3.6
		c-0.9,1.1-2.1,1.9-3.5,2.5c-1.5,0.7-2.7,1-3.5,1c-0.4,0-0.7-0.2-1.2-0.6c-0.5-0.4-0.7-0.8-0.7-1.1c0-0.2,0.2-0.3,0.7-0.3
		c1.9-0.1,3.4-0.4,4.4-0.9c1.3-0.6,2.2-1.2,2.8-1.9c0.7-0.8,1-1.6,1-2.4c0-1.1-0.3-1.8-1-2.3c-0.8-0.5-1.9-0.8-3.3-0.8
		c-0.9,0-2.1,0.1-3.6,0.3c-1.9,0.3-3.8,0.8-5.9,1.5c-0.5,0.2-0.8,0.3-0.9,0.3c-0.4,0-0.7-0.2-0.7-0.7c0-0.6,0.5-1.1,1.6-1.4
		c1.3-0.3,2.8-0.6,4.3-0.8C251.8,67.3,253.3,67.2,254.7,67.2z"/>
	<path class="st0" d="M267.8,65.9c0.5,0,0.7,0.2,0.7,0.7c0,0.2-0.1,0.6-0.2,1.3c-0.2,1.1-0.3,2.3-0.3,3.7c0,1.7,0.3,3,0.8,4
		c0.5,0.8,1,1.1,1.5,1.1c0.6,0,1.6-0.7,2.9-2.2c0.6-0.7,1-1,1.2-1c0.2,0,0.3,0.1,0.3,0.3c0,0.5-0.5,1.4-1.5,2.7
		c-1.1,1.5-2,2.2-2.8,2.2c-0.5,0-1.2-0.4-1.9-1.1c-0.7-0.8-1.2-1.9-1.5-3.2c-0.3-1.2-0.4-2.8-0.4-4.6c0-1.8,0.1-2.9,0.3-3.4
		C267.2,66.1,267.5,65.9,267.8,65.9z M278.2,68.9c0.1,0,0.5,0.4,1,1.1c0.5,0.7,1.2,1.4,1.9,2c0.7,0.6,1.3,0.9,1.9,1.1
		c0.4,0.1,0.6,0.2,0.6,0.4s-0.2,0.5-0.7,1.1c-0.4,0.5-0.9,0.7-1.2,0.7c-0.5,0-1.2-0.8-2.3-2.4c-1.1-1.9-1.7-3-1.7-3.5
		C277.9,69,278,68.9,278.2,68.9z"/>
	<path class="st0" d="M301.9,65.8c0.3,0,0.5,0.1,0.7,0.3c0.2,0.2,0.3,0.4,0.3,0.8c0,0.4-0.2,0.6-0.5,0.6c-0.1,0-0.4,0-0.7-0.1
		c-0.3-0.1-0.7-0.1-1-0.1c-1.2,0-2.3,0.2-3.2,0.6c-1.1,0.5-2.1,1.2-2.9,2.1c-0.9,1-1.3,2.2-1.3,3.4c0,0.8,0.2,1.6,0.7,2.2
		c0.4,0.6,1.1,1,1.9,1.3c1,0.4,2.1,0.6,3.3,0.6h1.4l1.2-0.1c0.2,0,0.3,0.1,0.3,0.2c0,0.4-0.2,0.8-0.6,1.3c-0.4,0.4-1,0.7-1.6,0.7
		c-2.1,0-4-0.6-5.6-1.8c-1.3-1.1-1.9-2.5-1.9-4.2c0-1.4,0.5-2.7,1.5-3.9c0.7-0.9,1.9-1.7,3.5-2.6l-2.5,0.2c-2.2,0.3-4.3,0.7-6.5,1.3
		c-0.6,0.1-0.9,0.2-1,0.2c-0.4,0-0.6-0.2-0.6-0.6c0-0.4,0.1-0.7,0.3-0.9c0.2-0.2,0.7-0.3,1.4-0.4c3.3-0.4,6.2-0.7,8.5-0.8
		C299.8,65.9,301.5,65.8,301.9,65.8z"/>
	<path class="st0" d="M311,74.4c0.2,0,0.5,0.1,0.8,0.4c1.1,0.9,2.2,1.7,3.1,2.5c0.8,0.7,1.5,1.1,2.1,1.2c0.2,0,0.3,0.1,0.3,0.3
		c0,0.2-0.3,0.5-0.9,0.9c-0.6,0.4-1,0.6-1.4,0.6c-0.3,0-0.7-0.3-1-0.8c-0.3-0.5-0.6-0.9-0.8-1.2c-0.5-0.7-1.1-1.4-1.6-2
		c-0.7-0.8-1.1-1.3-1.1-1.5C310.6,74.5,310.7,74.4,311,74.4z"/>
	<path class="st0" d="M326.3,72.6c0.1,0,0.2,0.1,0.2,0.3c0,0.1-0.1,0.4-0.3,0.9c-0.2,0.5-0.3,0.9-0.3,1.2c0,0.6,0.4,1.1,1.1,1.5
		c0.7,0.3,1.9,0.5,3.6,0.5c2.3,0,4.2-0.2,5.8-0.6c1.2-0.4,1.9-0.6,2-0.6c0.1,0,0.2,0.1,0.2,0.3c0,0.3-0.1,0.7-0.4,1.3
		c-0.3,0.6-0.7,1-1.3,1.1c-0.7,0.1-2.1,0.2-4.3,0.2c-1.5,0-2.8-0.2-4.1-0.5c-1.2-0.3-2.1-0.8-2.6-1.3c-0.5-0.6-0.8-1.3-0.8-2
		c0-0.5,0.1-1,0.4-1.5C325.6,72.8,326,72.6,326.3,72.6z M331.7,67.3c-1.3,0-2.5,0.1-3.3,0.2c-0.9,0.1-1.4,0.2-1.6,0.2
		c-0.4,0-0.6-0.2-0.6-0.5c0-0.5,0.3-0.9,0.8-1c0.6-0.1,1.6-0.2,2.8-0.2h1.2c1.7,0,2.9,0.1,3.7,0.4c0.5,0.2,0.7,0.4,0.7,0.8
		c0,0.3-0.3,0.6-0.8,0.8l-2.3,1.1c-1.1,0.5-1.8,0.7-1.9,0.7c-0.2,0-0.3-0.1-0.3-0.3c0-0.1,0.2-0.3,0.5-0.5l2-1.4
		c0.1,0,0.1-0.1,0.1-0.2C332.6,67.4,332.3,67.3,331.7,67.3z M336.5,64.7c0.1,0,0.4,0.2,0.9,0.5c0.7,0.4,1.4,0.6,2.1,0.7
		c0.3,0,0.4,0.1,0.4,0.3c0,0.1-0.1,0.3-0.4,0.7c-0.3,0.4-0.5,0.6-0.7,0.6c-0.3,0-0.8-0.3-1.4-0.9c-0.8-0.8-1.2-1.3-1.2-1.5
		C336.3,64.8,336.4,64.7,336.5,64.7z M340,63.4c0.1,0,0.4,0.2,0.9,0.5c0.7,0.4,1.4,0.6,2.2,0.7c0.3,0,0.4,0.1,0.4,0.3
		c0,0.1-0.1,0.3-0.4,0.7c-0.3,0.4-0.5,0.6-0.6,0.6c-0.4,0-0.8-0.3-1.4-0.9c-0.8-0.8-1.2-1.3-1.2-1.5C339.8,63.4,339.8,63.4,340,63.4
		z"/>
	<path class="st0" d="M346.7,67.1h3l0-2.4c0-0.7,0.3-1,0.8-1c0.5,0,0.7,0.2,0.7,0.7c0,0.1,0,0.4-0.1,0.7c0,0.4-0.1,0.7-0.1,0.9v1.1
		h2.4c0.2,0,0.4,0.1,0.4,0.3c0,0.3-0.1,0.6-0.3,0.8c-0.2,0.2-0.5,0.3-0.9,0.3c-0.1,0-0.5-0.1-1.1-0.2l-0.5,0l0,3.4
		c0.7-0.2,1.3-0.3,1.8-0.4c0.2,0,0.3,0.1,0.3,0.4c0,0.3-0.1,0.5-0.4,0.6l-1.7,0.6v0c0,1.7,0.1,3,0.1,3.9c0,1.4-0.4,2.4-1.1,3.1
		c-0.6,0.5-1.3,0.8-2.2,0.8c-0.4,0-0.7-0.1-1-0.4c-0.2-0.2-0.3-0.5-0.3-0.7c0-0.3,0.2-0.4,0.5-0.5c1.3-0.3,2.1-0.6,2.4-1
		c0.2-0.4,0.3-0.9,0.3-1.6v-3.2c-1.3,0.5-2.5,1.1-3.6,1.6c-0.5,0-0.7-0.2-0.7-0.6c0-0.3,0.1-0.6,0.2-0.7c0.1-0.2,0.3-0.4,0.6-0.5
		c1.4-0.4,2.5-0.8,3.6-1.1l0-3l0-0.7h-0.2c-1.3,0-2.2,0.1-2.7,0.2c-0.3,0.1-0.5,0.2-0.6,0.2c-0.5,0-0.7-0.3-0.7-0.7
		c0-0.2,0.1-0.4,0.4-0.6C346.1,67.2,346.4,67.1,346.7,67.1z M355,71.4h11.1c0.2,0,0.4,0.1,0.4,0.3c0,0.3-0.1,0.5-0.3,0.8
		c-0.2,0.2-0.5,0.3-0.8,0.3c-0.3,0-0.9-0.1-2-0.2c-0.8,0-1.6-0.1-2.4-0.1l0,1.9c0.1,0,0.2,0,0.4,0h2.8c0.5,0,0.7,0.2,0.7,0.6
		c0,0.3-0.2,0.5-0.7,0.5c-1.3,0-2.3,0.1-3,0.3h-0.2l0,1.6c0.8,0.2,1.5,0.3,1.8,0.3c1,0.2,1.8,0.2,2.4,0.2c0.5,0,1,0,1.4,0l0.4,0
		c0.2,0,0.3,0.1,0.3,0.4c0,0.4-0.3,0.9-0.8,1.4c-0.6,0.6-1,0.8-1.4,0.8c-0.2,0-0.4-0.1-0.6-0.2c-1.2-0.6-3.4-1.4-6.8-2.5
		c-0.5-0.1-0.9-0.2-1.2-0.2c-0.1,0-0.3,0-0.3-0.1c-0.5,0.9-1,1.6-1.5,2.1c-0.4,0.4-0.7,0.5-0.9,0.5c-0.3,0-0.6-0.1-0.8-0.3
		c-0.4-0.3-0.6-0.7-0.6-1.1c0-0.2,0.3-0.4,0.8-0.5c0.6-0.1,1.2-0.6,1.7-1.3c0.5-0.7,0.9-1.7,1.1-2.9c0.1-0.2,0.3-0.3,0.6-0.3
		c0.4,0,0.6,0.2,0.6,0.7c0,0,0,0.1,0,0.2c-0.1,0.6-0.3,1.2-0.6,1.9l0.2,0l2.8,0.6l-0.1-4.6c-1.8,0-3.1,0.1-3.9,0.2
		c-0.5,0.1-0.8,0.2-1,0.2c-0.5,0-0.7-0.2-0.8-0.6c0-0.2,0.2-0.4,0.4-0.6C354.4,71.5,354.6,71.4,355,71.4z M356.4,63.9
		c0.2,0,0.4,0,0.7,0.1c0.2,0.1,0.6,0.1,1,0.1h2.7c0.6,0,1.3,0,2.1,0.1c0.2,0,0.5-0.1,0.9-0.2c0.4,0,0.6,0.2,0.6,0.7l0,0.2
		c-0.1,0.2-0.1,0.5-0.2,1c0,0.6-0.1,1.3-0.1,2c0,0.4,0,1,0.1,1.8c0,0.5-0.2,0.7-0.6,0.7c-1.5-0.1-2.9-0.2-4.1-0.2
		c-1.1,0-1.8,0-2.1,0.1c-0.3,0-0.6,0-0.9,0.1c-0.4,0-0.7-0.2-0.7-0.7c0.1-1,0.2-1.8,0.2-2.6c0-0.7-0.1-1.6-0.2-2.6
		C355.7,64.2,356,63.9,356.4,63.9z M359.4,69.1l3.1,0.1c0.2,0,0.4-0.1,0.4-0.3v-1.3c-2.3,0-4.1,0.1-5.4,0.2h-0.2c0,0.4,0,0.7-0.1,1
		c0,0.3,0.2,0.4,0.6,0.4C358.2,69.1,358.8,69.1,359.4,69.1z M357.3,66.7h0.2h5.2h0.1v-1.1c0-0.2-0.1-0.3-0.2-0.3
		c-1.1-0.1-2.8-0.1-4.9-0.1c-0.3,0-0.5,0.2-0.5,0.5L357.3,66.7z"/>
	<path class="st0" d="M379.6,74.4l0-0.6c0-0.6,0.2-0.8,0.7-0.8c0.4,0,0.6,0.3,0.6,0.8l0,0.6c1.2,0,2.7,0.1,4.4,0.3
		c1.5,0.1,2.7,0.2,3.7,0.2c0.5,0,1.1,0,1.6-0.1c0.1,0,0.2,0.1,0.2,0.2c0,0.5-0.1,1-0.4,1.5c-0.3,0.4-0.5,0.7-0.8,0.7
		c-0.3,0-0.5-0.1-0.9-0.2c-1.5-0.6-2.8-0.9-4.2-1.1c-1-0.2-2.3-0.3-3.7-0.3v0.1l0.1,3.3c0,0.9-0.2,1.4-0.7,1.4
		c-0.4,0-0.6-0.5-0.6-1.4c0.1-1.4,0.1-2.5,0.1-3.3v-0.1c-1.9,0-3.5,0.2-4.7,0.5c-1.3,0.2-2.5,0.6-3.5,1c-0.4,0.2-0.6,0.2-0.8,0.2
		c-0.5,0-0.8-0.3-0.8-0.7c0-0.3,0.1-0.5,0.4-0.7c0.2-0.2,0.5-0.3,0.7-0.3C374.9,74.9,377.8,74.5,379.6,74.4z M380.3,63.1
		c0.6,0,0.8,0.2,0.8,0.7c-0.1,0.4-0.2,0.9-0.2,1.2c2.7,0,5,0.1,7,0.3l0.9-0.2c0.4,0,0.7,0.2,0.7,0.5c0,0.1,0,0.3-0.1,0.4
		c-0.2,0.6-0.4,1.4-0.5,2.7c0,0.4-0.2,0.6-0.6,0.6s-0.6-0.2-0.6-0.6c0-0.7,0-1.4,0.1-2c0,0-0.1-0.1-0.4-0.2c-1.9-0.3-4-0.4-6.5-0.4
		c-2.4,0-4.7,0.1-6.8,0.3c-0.8,0-1.1,0.2-1.1,0.5c0,1.2-0.1,1.8-0.3,2.1c-0.1,0.3-0.3,0.4-0.6,0.4c-0.2,0-0.4-0.1-0.4-0.3
		c0-1.4-0.1-2.5-0.4-3.6c0-0.4,0.2-0.6,0.6-0.6c0.3,0,0.6,0,0.7,0.1c0.2,0.1,0.4,0.2,0.6,0.2c1.6-0.1,3.7-0.1,6.3-0.1h0.1
		c0-0.4-0.1-0.8-0.2-1.1C379.5,63.4,379.8,63.1,380.3,63.1z M373.9,77.7c0.4,0,0.7,0.1,0.9,0.1c0.6,0,1.3-0.2,2.1-0.6
		c0.2,0,0.3,0.1,0.3,0.3c0,0.2-0.3,0.7-0.9,1.3c-0.6,0.7-1.1,1-1.5,1c-0.3,0-0.6-0.1-0.7-0.4c-0.3-0.4-0.4-0.8-0.4-1.2
		C373.6,77.9,373.7,77.7,373.9,77.7z M375.3,68h3.2c0.3-0.3,0.6-0.7,0.8-1c0.2-0.3,0.4-0.5,0.6-0.5c0.1,0,0.2,0,0.4,0.1
		c0.3,0.2,0.4,0.4,0.4,0.7c0,0.1-0.1,0.2-0.2,0.4l-0.3,0.3h5.7c0.2,0,0.4,0.1,0.4,0.3c0,0.3-0.1,0.6-0.3,0.8
		c-0.2,0.2-0.5,0.3-0.9,0.3c-0.2,0-0.8-0.1-1.6-0.2c-0.4,0.6-1,1.3-1.9,2c1.1,0.4,2,0.8,2.7,1.1c0.6,0.3,1.1,0.4,1.5,0.5
		c0.2,0,0.2,0.1,0.2,0.2c0,0.2-0.1,0.4-0.3,0.5s-0.4,0.2-0.6,0.2c-0.2,0-0.5-0.1-1.1-0.4c-0.7-0.4-1.7-0.8-3.1-1.2l-0.4-0.1
		c-0.9,0.6-1.9,1.1-2.9,1.4c-0.8,0.3-1.5,0.4-2,0.4c-0.2,0-0.5-0.1-0.7-0.3c-0.3-0.3-0.5-0.6-0.5-0.8c0-0.2,0.2-0.3,0.6-0.4
		c1.4-0.1,2.7-0.4,3.9-0.9c-1.1-0.4-1.9-0.5-2.4-0.5c-0.4,0-0.6-0.1-0.6-0.4c0-0.1,0.1-0.2,0.2-0.4c0.4-0.3,0.9-0.7,1.3-1.1
		c-0.7,0-1.3,0.1-1.8,0.2c-0.5,0.1-0.8,0.2-1,0.2c-0.4,0-0.6-0.2-0.6-0.6c0-0.2,0.1-0.4,0.4-0.6C374.7,68,375,68,375.3,68z
		 M380.5,70.8c0.8-0.5,1.5-1,2-1.7c-0.8,0-1.6-0.1-2.5-0.1h-0.7l-0.8,0.8c-0.1,0.1-0.1,0.1-0.1,0.2c0,0.1,0.1,0.2,0.4,0.3
		L380.5,70.8z M383.6,77.3l0.1,0c0.7,0.4,1.3,0.6,1.8,0.7c0.3,0.1,0.7,0.2,1.2,0.2c0.2,0,0.3,0.1,0.3,0.3c0,0.3-0.2,0.5-0.5,0.8
		c-0.6,0.4-1.1,0.5-1.4,0.5c-0.1,0-0.2,0-0.3-0.1c-0.2-0.2-0.7-0.8-1.4-1.9c0-0.1-0.1-0.2-0.1-0.2C383.3,77.4,383.4,77.3,383.6,77.3
		z"/>
	<path class="st0" d="M397.5,64.5c0.2,0,0.4,0.1,0.6,0.2c0.2,0.2,0.3,0.4,0.3,0.8c0,0.3-0.1,1-0.2,2.1c-0.2,1.7-0.3,3.3-0.3,4.8
		c0,2.1,0.1,3.6,0.2,4.3c0.1,0.6,0.4,1,0.8,1.2c0.4,0.3,0.8,0.4,1.3,0.4c0.7,0,1.6-0.2,2.7-0.6c1.6-0.5,3.1-1.4,4.6-2.8
		c0.6-0.6,1-0.9,1-0.9c0.2,0,0.3,0.2,0.3,0.7c0,0.6-0.1,1.1-0.3,1.6c-0.2,0.5-0.6,1-1.3,1.4c-0.9,0.5-1.9,1-3,1.3
		c-1.3,0.4-2.6,0.6-3.9,0.6c-0.7,0-1.4-0.2-2.1-0.5c-0.6-0.4-1-0.9-1.2-1.5c-0.4-0.8-0.6-3.2-0.6-7c0-3.6,0.1-5.5,0.3-5.8
		C396.9,64.6,397.2,64.5,397.5,64.5z"/>
	<path class="st0" d="M422.9,67.8l0,3c1.1,0,2.1,0,3,0.1c1,0.1,1.6,0.1,1.8,0.1c0.3,0,0.4,0.1,0.4,0.2c0,0.3-0.1,0.6-0.2,0.8
		s-0.3,0.4-0.5,0.4c-0.2,0-0.7-0.1-1.5-0.2c-0.7-0.1-1.7-0.2-2.9-0.2v0.4v3.4c1.2,0.4,2.7,0.8,4.3,1.4c1,0.4,1.9,0.5,2.8,0.5
		c0.3,0,0.4,0.1,0.4,0.2c0,0.2-0.2,0.6-0.6,1.1c-0.4,0.6-0.8,0.9-1.2,0.9c-0.3,0-0.7-0.2-1.2-0.5l-2.5-1.5c-0.6-0.3-1.2-0.6-1.9-0.9
		c-0.1,1-0.3,1.7-0.8,2.2c-0.7,0.6-1.7,0.9-3.1,0.9c-1,0-1.8-0.2-2.5-0.6c-0.6-0.5-1-1.1-1-1.8c0-0.7,0.4-1.3,1.2-1.8
		c0.7-0.4,1.6-0.6,2.7-0.6c0.7,0,1.4,0.1,2.3,0.3c0-0.3,0-0.7,0-1.1v-2v-0.4c-0.6,0-1.3,0.1-2.1,0.1c-0.3,0-0.7,0.1-1,0.1l-0.9,0.1
		c-0.3,0.1-0.6,0.2-0.7,0.2c-0.4,0-0.6-0.2-0.6-0.7c0-0.4,0.4-0.7,1.3-0.8c1.5-0.1,2.8-0.1,4-0.1l-0.1-3c-0.9,0-1.8,0.1-2.9,0.1
		c-0.7,0-1.3,0.1-1.8,0.3c-0.4,0.1-0.8,0.2-1,0.2c-0.2,0-0.4-0.1-0.6-0.2c-0.1-0.1-0.2-0.3-0.2-0.6c0-0.2,0.1-0.4,0.2-0.5
		c0.2-0.1,0.5-0.2,1-0.2c2.3-0.1,3.8-0.1,4.7-0.1h0.6l-0.1-1.9c0-0.6,0.2-0.8,0.7-0.8c0.6,0,0.9,0.3,0.9,0.8c0,0.5,0,1.2-0.1,1.9
		l1.9,0.1c1.5,0.1,2.8,0.1,3.8,0.1c0.3,0,0.5,0.1,0.5,0.2c0,0.3-0.1,0.6-0.4,0.9c-0.2,0.4-0.5,0.6-0.7,0.6c-0.1,0-0.5-0.1-1.2-0.3
		c-0.7-0.2-1.5-0.3-2.5-0.5C423.9,67.8,423.4,67.8,422.9,67.8z M421.5,76.4c-1-0.3-1.8-0.4-2.5-0.4c-0.8,0-1.4,0.1-1.9,0.3
		c-0.5,0.3-0.7,0.7-0.7,1.2c0,0.4,0.2,0.7,0.6,0.9c0.4,0.3,1,0.4,1.7,0.4c1.1,0,1.8-0.2,2.3-0.7C421.3,77.7,421.4,77.1,421.5,76.4z"
		/>
	<path class="st0" d="M445.1,68.1l0,3.6l0,0.5l0.2,0.4c0.2,0.6,0.4,1.3,0.4,2c0,1.1-0.3,2-0.9,2.9c-0.5,0.7-1.3,1.4-2.3,1.9
		c-1,0.5-1.9,0.8-2.7,0.8c-0.4,0-0.8-0.2-1.3-0.7c-0.3-0.4-0.5-0.7-0.5-1.1c0-0.1,0.2-0.2,0.7-0.2c1.8-0.1,3-0.3,3.7-0.7
		c0.8-0.4,1.3-0.9,1.6-1.4c0.3-0.5,0.5-1,0.5-1.5v-0.4c-0.3,0.5-0.7,0.9-1.2,1.2c-0.6,0.3-1.2,0.4-1.9,0.4c-0.7,0-1.4-0.2-2-0.7
		c-0.7-0.5-1.1-1.2-1.1-2c0-0.4,0.1-0.8,0.4-1.2c0.3-0.4,0.7-0.8,1.2-1c0.6-0.2,1.3-0.3,1.9-0.3c0.7,0,1.4,0.2,2.1,0.5l0-2.9
		c-1.3,0-2.4,0.1-3.4,0.2c-1.1,0.2-2.2,0.4-3.2,0.8c-1,0.3-1.6,0.5-1.9,0.5c-0.5,0-0.7-0.3-0.7-0.8c0-0.6,0.8-1,2.3-1.1l2.1-0.3
		c1.7-0.2,3.3-0.3,4.9-0.3l0-2.4c0-0.6,0.2-0.9,0.7-0.9c0.5,0,0.8,0.3,0.8,0.9c0,0.4,0,1.1-0.1,2v0.5c0.7,0,1.6,0.1,2.6,0.2
		c2,0.1,3.5,0.2,4.5,0.2c0.3,0,0.5,0,0.5,0.1c0,0.2-0.2,0.6-0.6,1.1c-0.4,0.6-0.9,1-1.2,1c-0.1,0-0.6-0.2-1.3-0.5
		c-1-0.4-2.1-0.7-3.2-0.9C445.9,68.2,445.5,68.1,445.1,68.1z M443.8,72.3c-0.1-0.1-0.2-0.2-0.3-0.3c-0.4-0.5-1-0.7-1.8-0.7
		c-0.7,0-1.3,0.2-1.7,0.5c-0.4,0.4-0.6,0.8-0.6,1.2c0,0.6,0.2,1,0.6,1.3c0.3,0.2,0.7,0.3,1.2,0.3c0.8,0,1.4-0.2,1.8-0.6
		C443.5,73.7,443.7,73.2,443.8,72.3z"/>
	<path class="st0" d="M462,74.4c0.8,0,1.4,0.3,2,0.8c0.6,0.6,0.9,1.3,0.9,2.2c0,0.8-0.3,1.5-0.9,2.1c-0.6,0.6-1.3,0.9-2,0.9
		c-0.8,0-1.5-0.3-2.1-0.9c-0.6-0.6-0.8-1.3-0.8-2.1c0-0.8,0.2-1.5,0.7-2.1C460.4,74.7,461.1,74.4,462,74.4z M462,79.4
		c0.5,0,1-0.2,1.4-0.6c0.4-0.4,0.6-0.9,0.6-1.4c0-0.6-0.2-1.1-0.6-1.5c-0.4-0.4-0.8-0.5-1.3-0.5c-0.6,0-1.1,0.2-1.5,0.6
		c-0.3,0.4-0.5,0.8-0.5,1.4c0,0.5,0.2,1,0.6,1.4C461,79.2,461.5,79.4,462,79.4z"/>
</g>
</svg>
