<?xml version="1.0" encoding="utf-8"?>
<!-- Generator: Adobe Illustrator 24.0.3, SVG Export Plug-In . SVG Version: 6.00 Build 0)  -->
<svg version="1.1" id="レイヤー_1" xmlns="http://www.w3.org/2000/svg" xmlns:xlink="http://www.w3.org/1999/xlink" x="0px"
	 y="0px" viewBox="0 0 171 184" style="enable-background:new 0 0 171 184;" xml:space="preserve">
<style type="text/css">
	.st0{fill:#C4DAE7;}
	.st1{fill:none;stroke:#7AB2BF;stroke-width:6.7817;stroke-linecap:round;stroke-miterlimit:10;}
	.st2{fill:none;stroke:#78B436;stroke-width:6.7817;stroke-linecap:round;stroke-miterlimit:10;}
	.st3{fill:none;stroke:#498C43;stroke-width:6.7817;stroke-linecap:round;stroke-miterlimit:10;}
	.st4{fill:#503819;}
	.st5{fill:none;stroke:#503819;stroke-width:3.7329;stroke-miterlimit:10;}
	.st6{fill:#7AB2BF;}
	.st7{fill:#503819;stroke:#503819;stroke-width:3.7329;stroke-miterlimit:10;}
	.st8{fill:none;stroke:#503819;stroke-width:4.1659;stroke-linejoin:round;stroke-miterlimit:10;}
	.st9{fill:#F5FAFC;}
	.st10{fill:#F3BD49;}
	.st11{fill:none;stroke:#503819;stroke-width:3.2217;stroke-miterlimit:10;}
	.st12{fill:#7AB2BF;stroke:#503819;stroke-width:2.8995;stroke-miterlimit:10;}
</style>
<g>
	<g>
		<g>
			<path class="st0" d="M91.7,132.6c22.5,0,40.7-13.2,40.7-29.5c0-16.3-18.2-29.5-40.7-29.5S51,86.7,51,103
				c0,10.2,7.2,19.3,18.1,24.6c0.3,4.4-0.6,12.1-9,18.2c0,0,20.1-4,22.4-12.9L91.7,132.6z"/>
			<path class="st1" d="M10.7,113.1c-0.3-2.9-0.5-5.8-0.5-8.7c0-30.6,18.1-57.1,44.2-69.2"/>
			<path class="st2" d="M125.9,169.5c-11.5,7-25,11-39.5,11c-14.5,0-28-4-39.5-11"/>
			<path class="st3" d="M120.5,36.2c25,12.5,42.2,38.3,42.2,68.2"/>
			<g>
				<g>
					<g>
						<g>
							<path class="st4" d="M21.5,139.8c4.3,0.2,7.9-3.7,7.7-8.5c-0.2-4.1-3.2-7.4-6.9-7.6c-4.3-0.2-7.9,3.7-7.7,8.5
								C14.8,136.2,17.8,139.5,21.5,139.8z"/>
							<path class="st4" d="M35.3,164.3c1.6,0,2.8-1.8,2.5-3.7c-1.4-8.1-6.9-15.4-13.5-15.4c-6.6,0-12.2,7.3-13.5,15.4
								c-0.3,1.9,0.9,3.7,2.5,3.7H35.3z"/>
						</g>
					</g>
				</g>
				<g>
					<g>
						<path class="st5" d="M19.1,141.7c6.3,0.3,11.4-4.8,11.1-11.1c-0.3-5.4-4.6-9.7-10-10c-6.3-0.3-11.4,4.8-11.1,11.1
							C9.3,137,13.7,141.4,19.1,141.7z"/>
						<path class="st5" d="M35.1,164.4c2.2,0,3.8-2,3.4-4.2c-1.8-9.2-9.3-17.4-18.3-17.4c-9,0-16.4,8.2-18.3,17.4
							c-0.4,2.2,1.2,4.2,3.4,4.2H35.1z"/>
					</g>
				</g>
			</g>
			<g>
				<g>
					<g>
						<g>
							<path class="st6" d="M152.1,139.8c4.3,0.2,7.9-3.7,7.7-8.5c-0.2-4.1-3.2-7.4-6.9-7.6c-4.3-0.2-7.9,3.7-7.7,8.5
								C145.3,136.2,148.3,139.5,152.1,139.8z"/>
							<path class="st4" d="M165.9,164.3c1.6,0,2.8-1.8,2.5-3.7c-1.4-8.1-6.9-15.4-13.5-15.4c-6.6,0-12.2,7.3-13.5,15.4
								c-0.3,1.9,0.9,3.7,2.5,3.7H165.9z"/>
						</g>
					</g>
				</g>
				<g>
					<g>
						<path class="st7" d="M149.6,141.7c6.3,0.3,11.4-4.8,11.1-11.1c-0.3-5.4-4.6-9.7-10-10c-6.3-0.3-11.4,4.8-11.1,11.1
							C139.9,137,144.3,141.4,149.6,141.7z"/>
						<path class="st5" d="M165.6,164.4c2.2,0,3.8-2,3.4-4.2c-1.8-9.2-9.3-17.4-18.3-17.4c-9,0-16.4,8.2-18.3,17.4
							c-0.4,2.2,1.2,4.2,3.4,4.2H165.6z"/>
					</g>
				</g>
			</g>
			<g>
				<g>
					<g>
						<g>
							<path class="st6" d="M87.6,21.1c4.3,0.2,7.9-3.7,7.7-8.5c-0.2-4.1-3.2-7.4-6.9-7.6c-4.3-0.2-7.9,3.7-7.7,8.5
								C80.9,17.5,83.9,20.9,87.6,21.1z"/>
							<path class="st4" d="M101.4,45.7c1.6,0,2.8-1.8,2.5-3.7c-1.4-8.1-6.9-15.4-13.5-15.4c-6.6,0-12.2,7.3-13.5,15.4
								c-0.3,1.9,0.9,3.7,2.5,3.7H101.4z"/>
						</g>
					</g>
				</g>
				<g>
					<g>
						<path class="st7" d="M85.2,23c6.3,0.3,11.4-4.8,11.1-11.1c-0.3-5.4-4.6-9.7-10-10C80,1.6,74.9,6.7,75.2,13
							C75.5,18.4,79.8,22.7,85.2,23z"/>
						<path class="st5" d="M101.2,45.8c2.2,0,3.8-2,3.4-4.2c-1.8-9.2-9.3-17.4-18.3-17.4c-9,0-16.4,8.2-18.3,17.4
							c-0.4,2.2,1.2,4.2,3.4,4.2H101.2z"/>
					</g>
				</g>
			</g>
			<path class="st8" d="M87.5,129.1c23.5,0,42.6-14.4,42.6-32.1S111,64.9,87.5,64.9c-23.5,0-42.6,14.4-42.6,32.1
				c0,11.1,7.5,20.9,18.9,26.7c0.4,4.8-0.6,13.1-9.5,19.8c0,0,21.1-4.3,23.5-14.1L87.5,129.1z"/>
		</g>
		<g>
			<path class="st9" d="M106.5,88.8l-8.6,0l0-8.1c0,0,0-3.4,0-4.1c0-0.7-0.6-1.1-0.6-1.1s-4.1,0-4.9,0c-0.8,0-1,0.4-1,0.4
				S87,86.1,85,89.3c-2,3.3-5.9,3.1-5.9,3.1l0,17.5l5.8,0l3.8,3.2l15.9,0c1,0,1.9-0.3,2.7-1l1.9-1.6c0.9-0.8,1.5-2,1.5-3.2l0-14.4
				c0-1.5-0.8-2.8-2-3.6l0,0C108,89,107.2,88.8,106.5,88.8z"/>
			<path class="st10" d="M104.9,93.8l-8.1,0l0-6.4c0,0,0-2.7,0-3.2c0-0.5-0.6-0.8-0.6-0.8s-3.9,0-4.6,0c-0.8,0-0.9,0.3-0.9,0.3
				s-4.2,7.9-6,10.5c-1.8,2.6-5.6,2.5-5.6,2.5l0,13.7l5.4,0l3.5,2.5l15,0c0.9,0,1.8-0.3,2.5-0.8l1.8-1.2c0.9-0.6,1.4-1.5,1.4-2.5
				l0-11.3c0-1.1-0.7-2.2-1.9-2.8l0,0C106.3,94,105.6,93.8,104.9,93.8z"/>
			<path class="st11" d="M106.5,88.8l-8.6,0l0-8.1c0,0,0-3.4,0-4.1c0-0.7-0.6-1.1-0.6-1.1s-4.1,0-4.9,0c-0.8,0-1,0.4-1,0.4
				S87,86.1,85,89.3c-2,3.3-5.9,3.1-5.9,3.1l0,17.5l5.8,0l3.8,3.2l15.9,0c1,0,1.9-0.3,2.7-1l1.9-1.6c0.9-0.8,1.5-2,1.5-3.2l0-14.4
				c0-1.5-0.8-2.8-2-3.6l0,0C108,89,107.2,88.8,106.5,88.8z"/>
			
				<rect x="60.2" y="91.7" transform="matrix(1.129880e-03 -1 1 1.129880e-03 -29.6779 172.9054)" class="st12" width="23" height="19.2"/>
			
				<rect x="63.7" y="91.3" transform="matrix(1 1.131750e-03 -1.131750e-03 1 0.1059 -8.115008e-02)" class="st9" width="16.1" height="4.5"/>
		</g>
	</g>
</g>
</svg>
