<?xml version="1.0" encoding="utf-8"?>
<!-- Generator: Adobe Illustrator 24.0.3, SVG Export Plug-In . SVG Version: 6.00 Build 0)  -->
<svg version="1.1" id="レイヤー_1" xmlns="http://www.w3.org/2000/svg" xmlns:xlink="http://www.w3.org/1999/xlink" x="0px"
	 y="0px" viewBox="0 0 151.3 214" style="enable-background:new 0 0 151.3 214;" xml:space="preserve">
<style type="text/css">
	.st0{fill:#DE9C67;}
	.st1{fill:#FDDAA0;}
	.st2{fill:#FFB66C;}
	.st3{fill:#FF7D5D;}
	.st4{fill:#E96500;}
	.st5{fill:#FF962F;}
	.st6{fill:#CC814E;}
	.st7{fill:#86523D;}
</style>
<g>
	<g>
		<path class="st0" d="M52.6,143c-4.4-2.7-18.4-6.5-21.8,3.8c-3.4,10.2-9.5,28.8-10.1,31.5c-0.7,2.7-3.8,18.1-2,24.6
			c1.7,6.5,8.2,8,10,6.6c1.7-1.3,0.1-4.7-1.6-8.1c-1.7-3.4,1-19.1,1-19.1S63.6,149.8,52.6,143z"/>
	</g>
	<g>
		<path class="st0" d="M75.5,188.1c1.1-6.7,8.2-37.5,7.5-44c-0.7-6.5-10.1-5.5-11.2,2.4c0,0-3.6,27.3-4.6,32.3
			c-1.3,6.9,0.2,14.8,2.3,19.8c1.7,4.1,7.5,8.9,8.7,3.5C78.9,199,74.8,192.4,75.5,188.1z"/>
	</g>
	<g>
		<path class="st1" d="M100.8,70.3c0,0-7.3,20.3-9.9,24.7c-7,12.3-30.8,11.2-43.8,10.8c-13-0.3-18.8-3.4-27.3,2
			c-8.5,5.5-22.4,25.6-19.5,29c4.2,4.9,8.5-2.4,8.5-2.4s1,16.4,4.8,23.6c3.8,7.2-8.9,14.7-10.2,17.4c-1.4,2.7-4.5,23.8-2,29
			c3.6,7.8,9.2,11.6,10.6,8.4c1.1-2.7-2-8.8-2.4-9.8c-0.3-1-0.3-19.1,2.7-22.2c3.1-3.1,11.9-3.1,19.8-13.7
			c7.9-10.6,10.9-15.4,10.9-15.4s36.2-3.8,39.3-1.4c3.1,2.4-0.3,17.4-0.3,27.6c0,10.2-0.6,13.3,1,18.4c2.9,9.2,7,13.8,9.2,11.6
			c3.6-3.6-2-13.1-1.7-19.1c0.4-8.6,5.8-38.2,9.2-45.7c3.4-7.5,18.4-27.6,19.5-40.3C120.2,90.5,102.2,51.5,100.8,70.3z"/>
	</g>
	<g>
		<path class="st2" d="M114.1,118.1c2.7-5.4,4.7-10.7,5.1-15c1-12.6-17-51.6-18.4-32.8c0,0-2.2,6.1-4.6,12.4c-0.1,2,0.1,4.1,0.5,6.2
			C99.1,100.6,105.6,110.2,114.1,118.1z"/>
	</g>
	<g>
		<path class="st1" d="M134.6,72.7c-0.7-8.2-3.3-12.3-8.6-16.6c-6.6-5.5-19.3,1.6-21.8,5.2c-2.5,3.6-7.7,8.9,0,21.4
			c3.2,5.1,6.9,10.1,10.4,14.3c0-1.9,0.2-3.8,0.8-5.5c-1-0.2-1.9-0.7-2.5-1.5c-0.3-0.4,0.3-0.8,0.6-0.4c0.6,0.7,1.5,1.1,2.3,1.3
			c0,0,0,0,0.1,0c0.2,0,0.5,0.2,0.4,0.5c-0.9,1.6-1.1,4.2-0.9,6.5c4.9,5.5,9.4,9.3,11.8,9.2c3.5-0.1,5.3-1.7,6.8-4.3
			C136.5,98.6,135.3,80.9,134.6,72.7z"/>
	</g>
	<g>
		<path class="st2" d="M47.2,105.8c-3.6-0.1-6.6-0.4-9.3-0.7c0.1,18.7-10.9,35.5-26.4,46.4c0.6,2.5,1.4,4.7,2.3,6.5
			c3.8,7.2-8.9,14.7-10.2,17.4c-1.4,2.7-4.5,23.8-2,29c3.6,7.8,9.2,11.6,10.6,8.4c1.1-2.7-2-8.8-2.4-9.8c-0.3-1-0.3-19.1,2.7-22.2
			c3.1-3.1,11.9-3.1,19.8-13.7c5.8-7.8,9-12.4,10.2-14.3c4.5-11,5.3-23.6,5.3-35.4c10.7,2,24.1-0.2,28.9-2.3
			c-1.9,11.5-2.9,23-4.4,34.5c5.2-0.1,9.2,0,10.1,0.8c3.1,2.4-0.3,17.4-0.3,27.6c0,10.2-0.6,13.3,1,18.4c2.9,9.2,7,13.8,9.2,11.6
			c3.6-3.6-2-13.1-1.7-19.1c0.4-8.6,5.8-38.2,9.2-45.7c0.6-1.3,1.5-2.9,2.6-4.7c-8-13-11.8-27.7-12-42.7
			C82.7,107.2,59.8,106.1,47.2,105.8z"/>
	</g>
	<g>
		<path class="st2" d="M126,67.9c0.7-2,3.2-3.2,5-2c1.1,0.6,2.1,1.4,2.9,2.2c-1.2-5.3-3.7-8.5-7.9-12c-6.6-5.5-19.3,1.6-21.8,5.2
			c-2.3,3.3-6.8,7.9-1.8,18.1c-0.4-4.4,0.8-9.8,5.8-10.4c2-0.2,4.1,0.9,5,2.7c6.1,9.8,9,20.4,12.5,30.9c1.6-1.5,3.5-2.5,5.9-2
			c0.3,0,0.5,0.1,0.7,0.2C125.7,91.5,121.9,79.3,126,67.9z"/>
	</g>
	<g>
		<path class="st3" d="M148.9,48.7c-0.5-1.6-3.6,3-6.5,6.2c-3,3.2-12.4,7.5-11.2,10c0,0,3,4.1,12.7-3
			C150,57.5,149.4,50.3,148.9,48.7z"/>
	</g>
	<g>
		<path class="st2" d="M148.8,48.3c-3.4,0.6-9.7,10-17.4,12.3c-2.6,0.8-3.6,3.8-0.2,5.5c3.4,1.7,9.6-6.5,13.7-11.4
			C147.8,51,155.1,47.1,148.8,48.3z"/>
	</g>
	<g>
		<path class="st3" d="M82.8,54.7c-0.2-0.9-1.2,11.1,7.7,15.2c2.8,1.3,10.3-0.8,10.8-1c1.8-0.8,3.4-2.9,2.1-4
			c-1.6-1.4-6.3-1.1-7.7-2C93.2,61.3,83,55.6,82.8,54.7z"/>
	</g>
	<g>
		<path class="st2" d="M103.5,64.3c0,0-9.3-1.2-13.4-6.3c-4.1-5.1-5.8-8.9-7.9-6.8c-2,2,0.7,6.7,4.7,10.7c3.2,3.2,11.1,5.9,14.4,5.3
			C104.8,66.7,104.2,65.7,103.5,64.3z"/>
	</g>
	<g>
		<path class="st4" d="M149.5,20.4c0,0-4.1,5.9-4.6,5.3c-1.2-1.6-1.7-10.3-5.5-16.2c-3-4.8-5-7-11.8-9.4c0,0,13.1,27,7.4,41.3
			c-3.9,9.9-7.5,11.5-10.8,15.6c-2.3,2.9,0.3,5.2,3.9,3.2c4-2.2,18-14.4,20.6-20.5C152.7,30.7,149.5,20.4,149.5,20.4z"/>
	</g>
	<g>
		<path class="st4" d="M82.1,24.7c0,0,4.6,5.6,5,4.9c1.1-1.7,0.8-10.4,4.1-16.6c2.7-5,4.4-7.4,11-10.4c0,0-10.9,27.9-4,41.7
			c4.7,9.5,8.4,10.9,12,14.7c2.6,2.7,0.1,5.2-3.7,3.5c-4.2-1.9-19.1-12.9-22.2-18.8C79.8,35.3,82.1,24.7,82.1,24.7z"/>
	</g>
	<g>
		<path class="st5" d="M131.7,100.7c-2.5-0.5-4.6,0.7-6.1,2.3c-0.7,0.8-1.4,1.8-1.6,2.8c1.3,0.8,2.4,1.3,3.2,1.3
			c3.5-0.1,5.3-1.7,6.8-4.3c0.1-0.2,0.2-0.4,0.3-0.6C133.6,101.4,132.7,100.9,131.7,100.7z"/>
	</g>
	<g>
		<path class="st6" d="M116.4,91.3c0.1-0.3-0.1-0.5-0.4-0.5c0,0,0,0-0.1,0c-0.9-0.1-1.8-0.6-2.3-1.3c-0.3-0.4-0.9,0.1-0.6,0.4
			c0.6,0.8,1.5,1.3,2.5,1.5c-0.7,1.7-0.9,3.6-0.8,5.5c0.2,0.3,0.5,0.6,0.7,0.9C115.3,95.5,115.5,93,116.4,91.3z"/>
	</g>
	<g>
		<g>
			<path class="st7" d="M126.8,77c0-1,0-2.1,0.3-3.1c0.4-1.5,1.7-0.9,2.5-0.1c1,1,1.7,2.4,2.2,3.7c0.2,0.5,1,0.3,0.8-0.2
				c-0.7-1.8-1.7-3.8-3.4-4.8c-3-1.8-3.3,2.8-3.3,4.5C126,77.6,126.8,77.6,126.8,77L126.8,77z"/>
		</g>
	</g>
	<g>
		<g>
			<path class="st7" d="M116.7,81.5c-0.6-1.3-1.9-5.2-3.9-4.8c-1.9,0.4-2.6,3-2.7,4.7c0,0.5,0.8,0.5,0.9,0c0.1-1.3,0.6-2.8,1.6-3.6
				c1.4-1.1,3,3,3.4,3.9C116.1,82.2,116.9,82,116.7,81.5L116.7,81.5z"/>
		</g>
	</g>
</g>
</svg>
