<?xml version="1.0" encoding="utf-8"?>
<!-- Generator: Adobe Illustrator 24.0.3, SVG Export Plug-In . SVG Version: 6.00 Build 0)  -->
<svg version="1.1" id="レイヤー_1" xmlns="http://www.w3.org/2000/svg" xmlns:xlink="http://www.w3.org/1999/xlink" x="0px"
	 y="0px" viewBox="0 0 221.8 17.3" style="enable-background:new 0 0 221.8 17.3;" xml:space="preserve">
<style type="text/css">
	.st0{fill:#503819;}
</style>
<g>
	<g>
		<path class="st0" d="M332.1,5.3h1.7l0-3.9c0-0.6,0.2-0.8,0.6-0.8c0.5,0,0.8,0.3,0.8,0.8l-0.1,3.9h2.1c0.1,0,0.2,0.1,0.2,0.3
			c0,0.2-0.1,0.5-0.2,0.6c-0.2,0.2-0.4,0.3-0.7,0.3c-0.1,0-0.4,0-0.9-0.1c-0.2,0-0.4,0-0.6,0L335,11c0.9-0.2,1.7-0.4,2.2-0.5
			c0.2,0,0.3,0.1,0.3,0.4c0,0.4-0.1,0.6-0.4,0.7c-1.9,0.6-3.7,1.3-5.3,2.1c-0.4,0-0.6-0.2-0.6-0.6c0-0.4,0.1-0.6,0.2-0.8
			c0.1-0.2,0.2-0.3,0.5-0.4c0.8-0.2,1.4-0.4,2.1-0.6l0-4.9c-0.7,0-1.3,0.1-1.6,0.2c-0.3,0.1-0.4,0.2-0.5,0.2c-0.4,0-0.6-0.2-0.6-0.6
			c0-0.2,0.1-0.4,0.3-0.6C331.5,5.3,331.8,5.3,332.1,5.3z M347.4,4.8c0.4,0,0.6,0.3,0.6,0.8c0,0.1-0.1,0.3-0.2,0.5
			c-0.3,0.7-0.7,1.9-1.3,3.8c-0.1,0.4-0.3,0.6-0.6,0.6c-0.3,0-0.5-0.2-0.5-0.5c0.1-0.7,0.4-1.8,0.9-3.4c0-0.1-0.1-0.2-0.3-0.2
			c-0.2,0-0.5,0-0.9,0.1c-0.5,0.1-1,0.2-1.5,0.3l0,3.7c0,0.9-0.2,1.4-0.6,1.4c-0.4,0-0.6-0.5-0.6-1.4c0-1.3,0-2.4,0-3.4
			c-0.8,0.2-1.5,0.4-2.1,0.6c0,1.7-0.1,3.7-0.1,5.8c0,0.4,0.2,0.6,0.5,0.7c0.7,0.1,2.3,0.1,5,0.1c1.3,0,2.4-0.2,3.4-0.6
			c0.1,0,0.2,0.2,0.2,0.5c0,0.4-0.1,0.9-0.3,1.4c-0.2,0.6-0.5,0.9-0.7,0.9c-0.3,0-3.1-0.3-8.2-0.9c-0.8-0.1-1.2-0.5-1.2-1.1
			c0.1-2.6,0.1-4.6,0.1-6c0-0.1,0-0.3,0-0.4c-0.4,0.2-0.8,0.4-1.3,0.6c-0.5,0-0.7-0.2-0.7-0.6c0-0.3,0.1-0.5,0.2-0.8
			c0.1-0.2,0.3-0.3,0.6-0.3c0.4-0.1,0.9-0.2,1.3-0.4c0-1,0-2.1-0.1-3.2c0-0.4,0.2-0.6,0.6-0.6c0.5,0,0.7,0.3,0.7,0.8
			c0,0.8,0,1.7,0,2.7c0.7-0.2,1.4-0.4,2.1-0.5c0-0.6,0-1.1,0-1.6c0-0.9,0-2-0.1-3.1c0-0.6,0.2-0.8,0.6-0.8c0.4,0,0.6,0.3,0.6,0.8
			c-0.1,1.2-0.1,2.2-0.1,3.1l0,1.4c0.8-0.2,1.6-0.3,2.3-0.4c0.4-0.1,0.7-0.2,1-0.3C347.1,4.8,347.3,4.8,347.4,4.8z"/>
		<path class="st0" d="M352.9,5.4h1.7l-0.1-3.3c0-0.6,0.2-0.8,0.6-0.8c0.5,0,0.8,0.3,0.8,0.8l0,3.3h1.9c0.2,0,0.2,0.1,0.2,0.3
			c0,0.3-0.1,0.5-0.2,0.7c-0.2,0.2-0.4,0.3-0.7,0.3c-0.1,0-0.4,0-0.8-0.1c-0.1,0-0.3,0-0.4,0l-0.1,4.2c0.8-0.3,1.4-0.4,1.8-0.5
			c0.2,0,0.2,0.1,0.2,0.4c0,0.3-0.1,0.5-0.3,0.6c-1.7,0.7-3.4,1.6-4.9,2.5c-0.4,0-0.6-0.2-0.6-0.6c0-0.3,0.1-0.6,0.2-0.7
			c0.1-0.2,0.2-0.4,0.4-0.5c0.7-0.3,1.4-0.5,2-0.8l-0.1-4.6c-0.8,0-1.3,0.1-1.7,0.2c-0.2,0.1-0.4,0.2-0.5,0.2
			c-0.4,0-0.6-0.2-0.6-0.6c0-0.2,0.1-0.4,0.3-0.6C352.4,5.5,352.6,5.4,352.9,5.4z M363.5,11.7c0.1,0,0.2,0.1,0.2,0.4
			c0,0.3-0.1,0.5-0.3,0.6c-1.7,0.6-3.3,1.3-4.8,2.1c-0.4,0-0.6-0.2-0.6-0.6c0-0.3,0.1-0.6,0.2-0.7c0.1-0.2,0.2-0.3,0.4-0.4
			C360.9,12.3,362.5,11.9,363.5,11.7z M359.3,3.4h5.1c0-0.9,0-1.8,0-2.6c0-0.4,0.2-0.6,0.6-0.6c0.4,0,0.5,0.2,0.6,0.6
			c0,0.9-0.1,1.8-0.1,2.6h3.8c0.2,0,0.3,0.1,0.3,0.3c0,0.3-0.1,0.6-0.2,0.8c-0.2,0.2-0.4,0.3-0.7,0.3c-0.2,0-0.8-0.1-1.8-0.2
			c-0.4,0-0.9,0-1.4,0c0,1.1,0.1,2.3,0.3,3.4c0.2,1.2,0.4,2.2,0.7,3.1c0.5-1,0.9-2.1,1.2-3.5c0-0.2,0.2-0.3,0.4-0.3
			c0.4,0,0.6,0.2,0.6,0.6c0,0-0.1,0.1-0.1,0.3c-0.3,1.2-0.8,2.5-1.5,4.1c0,0,0,0,0,0c0.1,0.2,0.2,0.4,0.3,0.5
			c0.7,1.2,1.5,1.9,2.6,2.3c0.2,0.1,0.3,0.3,0.3,0.5c0,0.2-0.2,0.5-0.5,0.8c-0.3,0.3-0.6,0.4-0.9,0.4c-0.2,0-0.5-0.1-0.8-0.4
			c-0.7-0.6-1.3-1.5-1.8-2.8c-0.5,0.7-1,1.3-1.6,1.8c-0.6,0.5-1,0.8-1.4,0.8c-0.2,0-0.4-0.1-0.7-0.3c-0.3-0.3-0.5-0.7-0.5-1
			c0-0.2,0.2-0.4,0.7-0.5c1-0.2,2-0.9,2.9-2c-0.1-0.2-0.1-0.3-0.2-0.5c-0.6-1.9-0.9-4-1-6.2c0-0.4,0-0.8,0-1.2c-0.2,0-0.5,0-0.8,0
			c-1.8,0-3.1,0.1-3.9,0.2c-0.4,0.1-0.7,0.2-0.9,0.2c-0.4,0-0.6-0.2-0.6-0.6c0-0.2,0.1-0.4,0.3-0.6C358.8,3.4,359,3.4,359.3,3.4z
			 M359.3,6.5c0.2,0,0.4,0,0.5,0s0.4,0,0.8,0h0.9c0.2,0,0.4,0,0.7,0.1c0.2,0,0.4,0,0.6-0.1c0.4,0,0.6,0.2,0.6,0.6c0,0,0,0,0,0.1
			c-0.1,0.1-0.1,0.3-0.1,0.6c0,0.4-0.1,0.8-0.1,1.3c0,0.2,0,0.5,0.1,1c0,0.4-0.2,0.6-0.5,0.6c-0.6-0.1-1.2-0.2-1.7-0.2
			c-0.7,0-1.1,0-1.2,0.1c-0.1,0-0.3,0.1-0.5,0.2c-0.3,0-0.5-0.2-0.5-0.6c0.1-0.7,0.2-1.2,0.2-1.7c0-0.4-0.1-0.9-0.2-1.5
			C358.8,6.7,358.9,6.5,359.3,6.5z M361,9.8c0.3,0,0.6,0,0.9,0.1c0.2,0,0.3-0.1,0.3-0.4V7.9c0-0.1-0.1-0.2-0.2-0.2
			c-0.4-0.1-0.9-0.1-1.7-0.1c-0.2,0-0.3,0.1-0.3,0.4c0,0.5-0.1,1-0.2,1.4c0,0.3,0.1,0.5,0.4,0.5C360.5,9.8,360.7,9.8,361,9.8z
			 M368.2,0.5c0.4,0,0.6,0.2,0.6,0.6c0,0.3,0,0.5-0.1,0.6c-0.9,0.7-1.4,1.1-1.4,1.1c-0.2,0-0.3-0.1-0.3-0.3c0-0.1,0.2-0.6,0.7-1.6
			C367.8,0.6,368,0.5,368.2,0.5z"/>
		<path class="st0" d="M387,8.5c0,2.8-1.3,4.9-3.9,6.3c-1,0.6-1.9,0.9-2.4,0.9c-0.3,0-0.7-0.2-1-0.5c-0.4-0.3-0.6-0.7-0.6-1.1
			c0-0.1,0.2-0.3,0.5-0.3c0.2,0,0.6-0.1,1-0.2c1.2-0.2,2.2-0.6,2.9-1.1c0.7-0.5,1.3-1.1,1.7-1.8c0.5-0.8,0.7-1.7,0.7-2.6
			c0-0.7-0.2-1.5-0.6-2.2c-0.8-1.6-2.2-2.4-4.1-2.4c-0.1,0-0.2,0-0.3,0c-0.2,0-0.2,0-0.3,0c-0.8,4.1-1.8,7.2-3,9
			c-0.7,1.1-1.4,1.6-1.9,1.6c-0.7,0-1.3-0.6-1.8-1.9c-0.4-1-0.6-2-0.6-3c0-1.5,0.4-2.9,1.3-4.1c1.3-1.9,3.4-2.8,6.1-2.8
			c1.7,0,3.1,0.5,4.3,1.6C386.3,5,387,6.5,387,8.5z M379.3,3.6c-1.8,0.4-3,1.1-3.8,2.2C374.7,7,374.3,8,374.3,9c0,0.6,0.1,1.2,0.3,2
			c0.3,0.9,0.6,1.3,1,1.3c0.4,0,0.8-0.3,1.2-1C377.9,9.7,378.7,7.1,379.3,3.6z"/>
		<path class="st0" d="M395.8,1.7c0.3,0,0.5,0.2,0.5,0.5c0,0.2-0.1,0.4-0.2,0.6c-0.3,0.6-0.5,1.2-0.8,1.7h3.3l0-3
			c0-0.6,0.2-0.8,0.7-0.8c0.5,0,0.8,0.3,0.8,0.8l0,3h4.7c0.2,0,0.3,0.1,0.3,0.3c0,0.3-0.1,0.6-0.2,0.8c-0.2,0.2-0.4,0.3-0.7,0.3
			c-0.2,0-0.8-0.1-1.7-0.2c-0.7,0-1.6-0.1-2.4-0.1l0,3.5h4.1c0.2,0,0.3,0.1,0.3,0.3c0,0.3-0.1,0.6-0.2,0.8c-0.2,0.2-0.4,0.3-0.7,0.3
			c-0.2,0-0.7-0.1-1.6-0.2c-0.6,0-1.2-0.1-1.9-0.1l-0.1,3.8c1.1,0,2.4,0.2,3.7,0.4c1.3,0.2,2.4,0.3,3.5,0.3c0.3,0,0.6,0,1-0.1
			c0.1,0,0.1,0.1,0.1,0.3c0,0.4-0.1,0.9-0.3,1.3c-0.2,0.5-0.5,0.7-0.7,0.7c-0.3,0-0.7-0.1-1-0.3c-1.3-0.6-2.6-1-3.8-1.2
			c-0.9-0.1-2-0.2-3.3-0.2c-1.5,0-2.8,0.1-3.9,0.3c-1.2,0.3-2.3,0.7-3.5,1.2c-0.3,0.2-0.6,0.2-0.8,0.2c-0.4,0-0.6-0.3-0.6-0.8
			c0-0.3,0.1-0.5,0.3-0.7c0.2-0.2,0.4-0.3,0.7-0.4c3.4-0.6,5.8-1,7.4-1l-0.1-3.8c-1.4,0-2.4,0.1-3,0.3c-0.4,0.1-0.7,0.2-0.8,0.2
			c-0.4,0-0.7-0.3-0.7-0.8c0-0.2,0.1-0.4,0.3-0.6c0.2-0.1,0.4-0.2,0.8-0.2h3.4l0-3.5c-1.4,0-2.4,0.1-3,0.2c-0.4,0.1-0.7,0.2-0.9,0.2
			c-0.1,0-0.3,0-0.4-0.1c-0.2,0.4-0.5,0.7-0.7,1.1c-0.4,0.5-0.7,0.7-0.9,0.7c-0.3,0-0.6-0.1-0.9-0.4c-0.3-0.3-0.4-0.6-0.4-0.9
			c0-0.2,0.1-0.4,0.4-0.4c0.7-0.3,1.3-0.8,1.9-1.4c0.6-0.7,1.2-1.6,1.8-2.8C395.6,1.7,395.7,1.7,395.8,1.7z"/>
		<path class="st0" d="M411.4,13.2c0.4,0.1,0.6,0.1,0.8,0.1c0.6,0,1.3-0.4,2.2-1.1c0.1,0,0.2,0.1,0.2,0.3c0,0.3-0.3,0.8-0.9,1.6
			c-0.6,0.8-1.1,1.3-1.5,1.3c-0.3,0-0.5-0.2-0.7-0.5c-0.2-0.4-0.3-0.8-0.3-1.3C411.2,13.4,411.3,13.2,411.4,13.2z M414,4.3
			c0.2,0,0.3,0,0.4,0.1l3.2,0.1c0.1,0,0.4-0.1,0.8-0.2c0.4,0,0.6,0.2,0.6,0.6c-0.2,0.7-0.3,1.6-0.3,2.7c0,0.7,0.1,1.6,0.2,2.8
			c0,0.6-0.2,0.8-0.6,0.8c-0.2,0-0.3-0.1-0.4-0.3c-0.1-0.3-0.1-0.7-0.1-1.1c0-0.2,0-0.4,0-0.6c-1.4,0-2.6,0.1-3.4,0.2
			c0,0.2-0.1,0.3-0.1,0.5c-0.1,0.4-0.4,0.8-0.7,1.1c-0.3,0.3-0.6,0.4-0.8,0.4c-0.2,0-0.5-0.1-0.8-0.4c-0.3-0.3-0.5-0.5-0.5-0.7
			c0-0.2,0.1-0.3,0.3-0.4c0.5-0.1,0.9-0.4,1.2-0.8c0.3-0.4,0.4-1.2,0.4-2.4c0-0.6-0.1-1.3-0.2-2.1C413.5,4.5,413.7,4.3,414,4.3z
			 M415.2,0.1c0.4,0,0.6,0.2,0.6,0.7c0,0,0,0.1,0,0.1c-0.3,0.4-0.5,0.6-0.7,0.8c-0.1,0.2-0.3,0.4-0.5,0.6c0,0.1,0.1,0.2,0.3,0.2h3
			c0.2,0,0.3-0.1,0.3-0.3c0,0,0,0,0-0.1c-0.2-0.2-0.4-0.5-0.7-0.8c0,0-0.1-0.1-0.1-0.1c0-0.4,0.2-0.6,0.6-0.6c0.1,0,0.1,0,0.2,0.1
			c0.4,0.5,0.9,1.2,1.4,2c0.1,0.1,0.1,0.2,0.1,0.3c0,0.4-0.2,0.6-0.5,0.6h-4.4c-0.4,0-0.9,0-1.4,0.1c-0.5,0-0.7-0.2-0.7-0.6
			c0-0.2,0.1-0.3,0.2-0.6c0.1-0.1,0.3-0.2,0.4-0.4c0.2-0.2,0.4-0.4,0.6-0.6c0.2-0.3,0.4-0.6,0.7-1C414.7,0.3,414.9,0.1,415.2,0.1z
			 M414.7,6.5c0.1,0,0.1,0,0.2,0h3c0,0,0.1,0,0.1,0c0-0.4,0-0.7,0-0.9c0-0.1-0.1-0.2-0.4-0.2c-1.1,0-2.1,0-3,0.1V6.5z M414.7,8.4
			L414.7,8.4h3.3c0-0.4,0-0.8,0-1.1c0,0-0.1,0-0.1,0c-1.4,0-2.4,0.1-3.2,0.2h0V8.4C414.7,8.4,414.7,8.4,414.7,8.4z M417.3,11.4
			c0.4,0,0.7,0.2,0.7,0.6c0,0.2-0.2,0.7-0.6,1.5c-0.1,0.1-0.1,0.2-0.1,0.2c0,0.1,0.1,0.1,0.3,0.1c2,0,3.9,0.2,5.7,0.7
			c0.6,0.1,1.2,0.2,1.9,0.2c0.7,0,1.4-0.1,2.1-0.3c0.4-0.1,0.7-0.2,0.8-0.2c0.2,0,0.2,0.1,0.2,0.4c0,0.5-0.2,1-0.6,1.6
			c-0.4,0.7-0.8,1.1-1.2,1.1c-0.4,0-1.1-0.2-2.1-0.7c-2.3-1-4.5-1.5-6.6-1.5c-0.4,0-1,0.1-1.5,0.2c-0.4,0-0.6-0.2-0.6-0.6
			c0-0.1,0.1-0.4,0.3-0.7c0.4-0.6,0.7-1.3,0.8-2C416.9,11.6,417.1,11.4,417.3,11.4z M421.4,11.2c0.3,0,0.5,0.2,0.5,0.5
			c0,0.3,0,0.5-0.1,0.6c-0.8,0.8-1.2,1.2-1.3,1.2c-0.2,0-0.3-0.1-0.3-0.3c0-0.1,0.2-0.6,0.6-1.7C421,11.3,421.1,11.2,421.4,11.2z
			 M422.4,1.3h3.9c0.2,0,0.2,0.1,0.2,0.4c0,0.2-0.1,0.3-0.2,0.5c-0.2,0.2-0.3,0.3-0.5,0.3c-0.4-0.1-0.9-0.2-1.8-0.2
			c-0.4,0-1,0.1-1.8,0.3c0,0,0,0,0,0c0,0.3,0,0.6,0,0.9c0,0.2,0.1,0.3,0.3,0.3h3.3c0.6,0,0.9,0.1,0.9,0.4c0,0.4-0.2,0.6-0.6,0.6
			l-2.1-0.1c-0.9,0-1.6,0.1-2.2,0.3c-0.4,0-0.6-0.2-0.6-0.6c0.1-0.6,0.1-1.2,0.1-1.6c0-0.6,0-1.3-0.1-2.2c0-0.4,0.2-0.6,0.6-0.6
			c0.4,0,0.7,0.2,0.7,0.6c0,0.2,0,0.4,0,0.7C422.3,1.3,422.4,1.3,422.4,1.3z M422.5,6.7h3.6c0.2,0,0.2,0.1,0.2,0.4
			c0,0.2-0.1,0.3-0.2,0.5c-0.1,0.2-0.3,0.3-0.5,0.3c-0.3-0.1-0.8-0.2-1.4-0.2c-0.4,0-1,0.1-1.8,0.3c0,0,0,0-0.1,0
			c0,0.3,0,0.6-0.1,0.9c0,0.4,0.1,0.6,0.4,0.6l2.5,0.1c0.7,0,1.5-0.2,2.3-0.6c0.1,0,0.2,0.2,0.2,0.5c0,0.3-0.1,0.7-0.4,1
			c-0.2,0.4-0.5,0.6-0.8,0.6c-1.4-0.2-2.5-0.4-3.2-0.4c-0.5,0-0.8,0-1,0.1c-0.2,0.1-0.4,0.1-0.5,0.1c-0.4,0-0.6-0.2-0.6-0.7
			c0.2-0.6,0.2-1.2,0.2-1.8c0-0.6,0-1.3-0.1-2.1c0-0.3,0.2-0.5,0.5-0.5c0.1,0,0.3,0.1,0.5,0.2c0.1,0.1,0.2,0.3,0.2,0.5
			c0,0.1,0,0.1,0,0.2C422.4,6.7,422.4,6.7,422.5,6.7z M424.6,11.3c0.4,0,0.6,0.2,0.6,0.6c0,0.3,0,0.5-0.1,0.6c-1,1-1.6,1.5-1.7,1.5
			c-0.2,0-0.3-0.1-0.3-0.3c0-0.1,0.3-0.7,1-2C424.1,11.4,424.3,11.3,424.6,11.3z"/>
		<path class="st0" d="M439,1c1.2,0,2.7,0.1,4.4,0.3c1.3,0.1,2.4,0.2,3.3,0.2c0.4,0,0.9,0,1.4-0.1c0.1,0,0.2,0.2,0.2,0.5
			c0,0.5-0.2,1-0.5,1.5c-0.2,0.4-0.4,0.6-0.6,0.6c-0.4,0-0.9-0.2-1.4-0.5c-0.9-0.5-1.9-0.8-3-0.9c-1-0.2-2.1-0.3-3.3-0.3
			c0,0.1,0,0.1,0,0.2c0,0.3-0.1,0.6-0.4,0.9c-0.8,0.9-1.6,1.7-2.6,2.4c-0.2,0.1-0.3,0.2-0.3,0.4c0,0,0.1,0.2,0.4,0.3
			c0.2,0.1,0.5,0.4,0.9,0.7c0.1,0.1,0.1,0.1,0.1,0.2c0.9-0.8,1.8-1.6,2.6-2.3c0.1-0.1,0.3-0.1,0.5-0.1c0.1,0,0.3,0.1,0.4,0.2
			c0.1,0.1,0.1,0.3,0.1,0.5c0,0.2-0.1,0.3-0.2,0.4c-1.4,1.1-2.9,2.3-4.3,3.5c-0.1,0.1-0.1,0.2-0.1,0.3c0,0,0.1,0.1,0.2,0.1
			c0.3,0,1.2,0.1,2.5,0.1c1.2,0,2.3,0,3.1-0.1c0.2,0,0.3-0.1,0.3-0.3c-0.3-0.5-0.6-1-1-1.4c-0.1-0.1-0.1-0.2-0.1-0.3
			c0-0.1,0-0.3,0.1-0.4c0.1-0.1,0.3-0.2,0.5-0.2c0.1,0,0.3,0.1,0.4,0.4c0.4,0.5,0.7,1.1,1.1,1.9c0.2,0.4,0.3,0.6,0.3,0.9
			c0,0.6-0.2,0.8-0.7,0.8c-0.2-0.1-0.5-0.1-0.7-0.1c-0.9,0-1.8,0.1-2.7,0.1v0.8c0,0.7,0,1.3,0,1.8c0,0.6,0,1.2,0,1.8
			c0,0.4-0.1,0.8-0.2,1c-0.1,0.2-0.3,0.3-0.5,0.3c-0.2,0-0.3-0.1-0.4-0.4c-0.1-0.2-0.1-0.5-0.1-0.9c0-0.6,0-1.2,0-1.8
			c0-0.5,0-1.2,0-2.1c0-0.2,0-0.3,0-0.6c-0.8,0-1.6,0-2.4-0.1c-0.4,0-0.8,0-1.3,0.1c-0.5,0-0.8-0.2-0.8-0.6c0-0.2,0.1-0.5,0.3-0.7
			c0.8-0.6,1.5-1.3,2.3-1.9l0,0c-0.9-0.6-1.6-1-2-1.1c-0.2-0.1-0.4-0.2-0.4-0.5c0-0.2,0.1-0.4,0.4-0.6c0.4-0.2,0.8-0.5,1.2-1
			c0.8-0.7,1.6-1.6,2.3-2.7c-1.2,0-2.4,0.1-3.5,0.2c-0.8,0.1-2,0.5-3.7,1.2c-0.5,0-0.7-0.2-0.7-0.7c0-0.3,0.1-0.5,0.3-0.7
			c0.2-0.3,0.6-0.5,1-0.5C434.8,1.3,437.3,1,439,1z M433,13.7c0.4,0.1,0.6,0.1,0.8,0.1c0.6,0,1.3-0.3,2.2-1c0.2,0,0.2,0.1,0.2,0.3
			c0,0.3-0.3,0.8-0.9,1.5c-0.6,0.8-1.1,1.2-1.6,1.2c-0.3,0-0.5-0.2-0.7-0.5c-0.2-0.4-0.3-0.8-0.3-1.3
			C432.8,13.8,432.9,13.7,433,13.7z M442.3,12.8c0,0,0.1,0,0.1,0.1c0.7,0.5,1.3,0.8,1.7,0.9c0.3,0.1,0.7,0.2,1.2,0.2
			c0.2,0,0.2,0.1,0.2,0.3c0,0.3-0.2,0.6-0.4,0.9c-0.6,0.4-1,0.6-1.3,0.6c-0.1,0-0.2-0.1-0.3-0.2c-0.2-0.2-0.6-0.9-1.4-2.2
			c-0.1-0.1-0.1-0.2-0.1-0.3C442.1,13,442.2,12.8,442.3,12.8z"/>
		<path class="st0" d="M464.4,4.3c0,0.3-0.2,0.7-0.5,1.2c-0.3,0.5-0.6,0.7-0.8,0.7c0.1,0-0.3-0.1-1.3-0.4c-1.1-0.3-2.2-0.5-3.3-0.5
			c-0.1,0-0.3,0-0.6,0c-0.3,0-0.5,0-0.6,0c-0.1,1.1-0.2,2.1-0.2,3l3.5,0c0.6,0,1,0.1,1,0.3c0,0.2-0.1,0.5-0.2,0.7
			c-0.2,0.2-0.3,0.4-0.6,0.4c-1.1-0.2-1.9-0.3-2.4-0.3c-0.2,0-0.6,0-1.3,0c0,1.5,0.1,2.6,0.2,3.4c0.3,1.4,0.9,2.2,1.7,2.2
			c0.6,0,1.3-0.2,2.1-0.6c0.8-0.5,1.4-1,1.9-1.5c0.3-0.3,0.4-0.5,0.6-0.5c0.2,0,0.3,0.3,0.3,0.8c0,0.8-0.1,1.4-0.4,1.8
			c-0.2,0.5-0.9,0.8-1.9,1.1c-0.8,0.2-1.5,0.3-2.2,0.3c-1.5,0-2.5-0.8-3-2.3c-0.3-0.9-0.4-2.4-0.4-4.5c-0.9,0.1-1.5,0.1-1.7,0.1
			c-0.7,0.1-1.2,0.2-1.6,0.3c-0.4,0.1-0.5,0.2-0.4,0.2c-0.2,0-0.4-0.2-0.4-0.6c0-0.5,0.3-0.8,0.9-1c0.4-0.1,1.5-0.2,3.1-0.3
			c0-1.5,0-2.5,0.1-3l-1.3,0.1c-0.4,0.1-1,0.2-1.6,0.4c-0.9,0.3-1.4,0.5-1.5,0.6c-0.3,0-0.4-0.2-0.4-0.6c0-0.8,0.4-1.3,1.2-1.3
			c0.8-0.1,2.1-0.2,3.8-0.3c0.1-1,0.1-1.8,0.1-2.4c0-0.8,0.2-1.2,0.7-1.2c0.5,0,0.8,0.3,0.8,0.8c0,0-0.1,0.9-0.3,2.7
			c0.2,0,0.4,0,0.8,0c0.3,0,0.6,0,0.8,0c0.4,0,1,0,1.8,0c0.8,0,1.4,0,1.8,0c0.5,0,0.9,0,1.1-0.1c0.3,0,0.5-0.1,0.5-0.1
			C464.4,4.2,464.4,4.2,464.4,4.3z"/>
		<path class="st0" d="M473,9.4c0.2,0,0.3,0,0.5,0c0.2,0,0.4,0,0.8,0h3.1c0.7,0,1.5,0,2.5,0.1c0.2,0,0.4,0,0.6-0.1
			c0.4,0,0.6,0.2,0.6,0.6c0,0,0,0-0.1,0.1c-0.1,0.1-0.1,0.3-0.1,0.6c0,0.4-0.1,0.8-0.1,1.2c0,0.2,0,0.5,0.1,0.8
			c0,0.4-0.2,0.7-0.5,0.7c-0.4,0-0.7-0.1-1.1-0.1l-0.4,1.5c0.7,0,1.4,0.1,2.2,0.2c1.2,0.1,2.4,0.2,3.5,0.2c0.3,0,0.6,0,0.9-0.1
			c0.1,0,0.1,0.1,0.1,0.3c0,0.4-0.1,0.8-0.3,1.2c-0.2,0.4-0.4,0.6-0.6,0.6c-0.3,0-0.7-0.1-1-0.3c-1.3-0.5-2.5-0.9-3.7-1.1
			c-0.9-0.1-2-0.2-3.3-0.2c-1.6,0-2.9,0.1-4,0.3c-1.2,0.3-2.4,0.7-3.6,1.1c-0.4,0.2-0.6,0.2-0.9,0.2c-0.4,0-0.5-0.3-0.6-0.8
			c0-0.2,0.1-0.4,0.3-0.7c0.2-0.2,0.4-0.3,0.7-0.4c2.3-0.4,4.2-0.7,5.7-0.9l-0.3-1.6c0,0-0.1,0-0.1,0c-0.3,0-0.7,0.1-1.1,0.2
			c-0.3,0-0.5-0.2-0.5-0.7c0.1-0.6,0.1-1.1,0.1-1.6c0-0.4,0-0.8-0.1-1.3C472.4,9.6,472.6,9.4,473,9.4z M471.2,7.5h11.6
			c0.2,0,0.3,0.1,0.3,0.3c0,0.3-0.1,0.6-0.2,0.8c-0.2,0.2-0.4,0.3-0.7,0.3c-0.3,0-1-0.1-2.1-0.2c-1.1,0-2.4-0.1-3.8-0.1
			c-2.1,0-3.6,0.1-4.5,0.2c-0.5,0.1-0.9,0.2-1,0.2c-0.4,0-0.6-0.2-0.6-0.6c0-0.2,0.1-0.4,0.3-0.6C470.6,7.6,470.9,7.5,471.2,7.5z
			 M471.5,0.7c0.2,0,0.4,0,0.6,0.1c0.2,0.1,0.5,0.1,0.9,0.1h1.6V0.6c0-0.4,0.2-0.7,0.6-0.7c0.4,0,0.7,0.3,0.7,0.8l0,0.3h1.8
			c0.1,0,0.2,0,0.3,0l0-0.4c0-0.4,0.2-0.7,0.6-0.7c0.4,0,0.6,0.3,0.6,0.8l0,0.3c0.7,0,1.4,0,2.2,0.1c0.2,0,0.4-0.1,0.7-0.2
			c0.4,0,0.6,0.3,0.6,0.8l0,0.1c-0.1,0.2-0.1,0.5-0.1,0.9c0,0.6-0.1,1.2-0.1,1.8c0,0.4,0,0.9,0.1,1.5c0,0.5-0.2,0.7-0.6,0.7
			c-1.9-0.1-3.5-0.2-5-0.2c-1.9,0-3.2,0-3.7,0c-0.4,0-1,0.1-1.6,0.1c-0.4,0-0.6-0.2-0.6-0.6c0.1-0.9,0.2-1.7,0.2-2.4
			c0-0.6-0.1-1.4-0.2-2.3C470.9,1,471.1,0.7,471.5,0.7z M474.6,5.5l0-1.2c-0.8,0-1.4,0.1-2.1,0.1c-0.1,0-0.2,0-0.3,0
			c0,0.3,0,0.6-0.1,0.9c0,0.3,0.2,0.4,0.5,0.4C473.2,5.5,473.9,5.5,474.6,5.5z M472.3,3.2c0.1,0,0.2,0,0.3,0h2l0-1.2
			c-0.6,0-1.2,0-1.9,0c-0.3,0-0.4,0.2-0.4,0.5C472.3,2.7,472.3,3,472.3,3.2z M476.6,12.4c0.9,0,1.9,0,2.9,0.1c0.2,0,0.3-0.1,0.3-0.4
			v-1.3c0-0.1-0.1-0.2-0.2-0.2c-1.3-0.1-3.2-0.1-5.7-0.1c-0.2,0-0.3,0.1-0.3,0.4c0,0.4-0.1,0.8-0.2,1.1c0,0.3,0.1,0.5,0.4,0.5
			C474.7,12.4,475.6,12.4,476.6,12.4z M475.4,14.9c0.5,0,1-0.1,1.4-0.1c0.4,0,0.8,0,1.2,0l0.2-1.5c-0.5,0-1.1,0-1.6,0
			c-0.5,0-0.9,0-1.3,0L475.4,14.9z M476.7,5.4c0.4,0,0.7,0,1.1,0l0-1.3c-0.8,0-1.5,0-2.2,0l0,1.2C475.9,5.4,476.3,5.4,476.7,5.4z
			 M475.7,2l0,1.2h2.2l0-1.2C477.1,2,476.4,2,475.7,2z M478.9,4.2l0,1.3c0.7,0,1.3,0,2.1,0.1c0.2,0,0.3-0.1,0.3-0.3V4.1
			C480.4,4.1,479.6,4.1,478.9,4.2z M478.9,2l0,1.2h2.2c0,0,0.1,0,0.1,0V2.4c0-0.2,0-0.3-0.1-0.3C480.4,2,479.7,2,478.9,2z"/>
		<path class="st0" d="M499.3,7.7c0,1.6-0.2,3.2-0.7,4.8c-0.7,2-1.6,3-2.7,3c-0.3,0-0.5-0.2-0.9-0.7c-0.3-0.5-0.4-0.9-0.4-1.2
			c0-0.2,0.3-0.3,0.9-0.3c0.7-0.1,1.1-0.3,1.3-0.5c0.5-0.5,0.9-1.4,1.2-2.8c0.2-1.1,0.3-2.2,0.3-3.2c0-1-0.4-1.4-1.3-1.4
			c-0.3,0-0.9,0-1.7,0.1c-0.4,1.8-0.9,3.3-1.3,4.4c-0.5,1.3-1.3,2.6-2.2,3.9c-0.8,1.1-1.4,1.7-1.8,1.7c-0.2,0-0.6-0.2-0.9-0.6
			c-0.4-0.4-0.6-0.6-0.6-0.9c0-0.1,0.1-0.3,0.3-0.4c0.2-0.1,0.5-0.3,0.9-0.6c1-0.7,1.8-1.5,2.5-2.5c0.8-1.2,1.5-2.9,2.2-4.9
			c-0.7,0.1-1.8,0.3-3.1,0.6c-0.3,0-0.5-0.2-0.5-0.6c0-0.7,0.6-1,1.9-1.1c0.3,0,1-0.1,2.1-0.1c0.2-0.8,0.3-1.6,0.3-2.6
			c0-0.5,0.2-0.8,0.6-0.8c0.4,0,0.6,0.2,0.6,0.7c0,0.2-0.1,1.1-0.4,2.6c0.7,0,1.1,0,1.4,0c0.9,0,1.6,0.3,2,0.9
			C499.2,5.7,499.3,6.5,499.3,7.7z M505.7,7c0,0.2-0.2,0.6-0.6,1.2c-0.4,0.5-0.7,0.8-0.9,0.8c-0.4,0-1-0.6-1.9-1.7
			c-0.8-1.1-1.2-1.9-1.2-2.4c0-0.2,0.1-0.4,0.2-0.4c0.1,0,0.3,0.2,0.7,0.6c0.4,0.4,0.9,0.8,1.5,1.2c0.5,0.3,1,0.5,1.6,0.5
			C505.5,6.7,505.7,6.8,505.7,7z"/>
		<path class="st0" d="M513.3,11.5c-0.2,0.8-0.5,1.6-0.8,2.5c-0.5,1.3-0.9,1.9-1.3,1.9c-0.4,0-0.8-0.6-1.1-1.9
			c-0.3-1.1-0.4-2.7-0.4-4.8c0-0.8,0.1-2,0.4-3.6c0.3-1.7,0.5-2.8,0.8-3.4c0.2-0.4,0.4-0.6,0.8-0.6c0.4,0,0.7,0.2,0.7,0.7
			c0,0.1-0.1,0.5-0.3,1c-0.3,0.8-0.6,1.7-0.8,2.8c-0.2,1.1-0.4,2.1-0.4,2.8c0,3.1,0.2,4.7,0.6,4.7c0.2,0,0.6-0.8,1.3-2.3
			c0.1-0.2,0.2-0.3,0.3-0.3C513.2,11.2,513.3,11.3,513.3,11.5z M523.5,12.3c0,0.1-0.2,0.5-0.4,1.2c-0.2,0.6-0.5,0.9-0.9,1.1
			c-0.4,0.2-1.4,0.3-2.9,0.3c-1.2,0-2.2-0.2-3.1-0.6c-1.2-0.6-1.8-1.5-1.8-2.7c0-1.3,0.3-2,0.8-2c0.1,0,0.2,0.1,0.2,0.3
			c-0.1,0.6-0.2,1-0.2,1.2c0,1.4,0.9,2.1,2.8,2.1c0.8,0,1.7-0.1,2.7-0.3c0.6-0.1,1.1-0.3,1.6-0.5c0.4-0.2,0.7-0.3,0.9-0.3
			C523.4,12,523.5,12.1,523.5,12.3z M521.8,3.6c0,0.2-0.5,0.8-1.5,1.6c-1,0.8-1.6,1.2-1.8,1.2c-0.2,0-0.3-0.1-0.3-0.3
			c0-0.1,0.2-0.5,0.7-1c0.4-0.4,0.7-0.8,0.9-0.9c-0.1,0-0.2,0-0.3,0c-0.9,0-1.8,0.1-2.8,0.3c-1.1,0.2-1.6,0.4-1.6,0.4
			c-0.2,0-0.4-0.2-0.4-0.5c0-0.5,0.2-0.8,0.5-1c0.1,0,0.5-0.1,1.1-0.2c1.4-0.2,3-0.2,4.8-0.2C521.6,3,521.8,3.2,521.8,3.6z"/>
		<path class="st0" d="M533.4,15.8c0,0.4-0.1,0.8-0.4,1.1c-0.3,0.3-0.6,0.4-1,0.4c-0.4,0-0.7-0.1-0.9-0.4c-0.2-0.3-0.4-0.6-0.4-1.1
			c0-0.9,0.4-1.4,1.3-1.4c0.4,0,0.7,0.1,1,0.4C533.3,15,533.4,15.3,533.4,15.8z M533,2.8c-0.1,0.5-0.2,2.1-0.2,4.9
			c0,2.4,0,3.8,0.1,4c0,0.7-0.3,1-0.9,1c-0.6,0-0.9-0.3-0.9-1c0-0.5,0-1.1,0.1-2c0.1-0.9,0.1-1.6,0.1-2c0-0.5,0-1.3-0.1-2.4
			c-0.1-1.1-0.1-1.9-0.1-2.5c0-0.7,0.3-1.1,0.9-1.1C532.7,1.8,533,2.1,533,2.8z"/>
	</g>
</g>
<g>
	<g>
		<path class="st0" d="M-306,3.7h11c0.2,0,0.3,0.1,0.3,0.3c0,0.3-0.1,0.6-0.2,0.8c-0.2,0.2-0.4,0.3-0.7,0.3c-0.3,0-1,0-2-0.1
			c-0.8,0-1.6,0-2.5,0l-0.1,7c1,0,2.3,0.2,3.7,0.4c1.3,0.2,2.4,0.3,3.2,0.3c0.4,0,0.9,0,1.3-0.1c0.1,0,0.2,0.1,0.2,0.2
			c0,0.5-0.1,1-0.3,1.5c-0.2,0.4-0.5,0.6-0.7,0.6c-0.2,0-0.4,0-0.7-0.1c-1.2-0.5-2.4-0.9-3.6-1.1c-1-0.2-2.3-0.3-3.8-0.3
			c-1.8,0-3.4,0.2-4.5,0.5c-1.2,0.3-2.2,0.7-3,1.1c-0.3,0.2-0.5,0.3-0.7,0.3c-0.5,0-0.8-0.3-0.8-0.7c0-0.3,0.1-0.6,0.3-0.8
			c0.2-0.2,0.4-0.4,0.7-0.4c3.4-0.8,5.9-1.2,7.5-1.3l-0.1-7.1c-1.8,0-3.1,0.1-4,0.2c-0.5,0.1-0.8,0.2-1,0.2c-0.4,0-0.7-0.3-0.7-0.7
			c0-0.2,0.1-0.4,0.3-0.6C-306.6,3.7-306.4,3.7-306,3.7z"/>
		<path class="st0" d="M-282.3,0.1c0.4,0,0.7,0.2,0.7,0.7l-0.1,2.3c0.4,0,0.7,0,1,0c0.4,0,0.8,0,1.2,0l-0.1-2.4
			c0-0.4,0.2-0.6,0.6-0.6c0.4,0,0.6,0.2,0.6,0.7l-0.1,2.4c0.8,0.1,1.6,0.2,2.4,0.3c1.3,0.2,2.5,0.2,3.7,0.2c0.3,0,0.6,0,0.9-0.1
			c0.1,0,0.1,0.1,0.1,0.3c0,0.4-0.1,0.8-0.3,1.2c-0.2,0.4-0.4,0.6-0.6,0.6c-0.3,0-0.7-0.1-1-0.3c-1.4-0.6-2.7-0.9-3.9-1.1
			c-0.9-0.1-2.1-0.2-3.4-0.2c-1.6,0-2.9,0.1-4.1,0.3c-1.2,0.3-2.4,0.6-3.6,1.1c-0.4,0.1-0.6,0.2-0.9,0.2c-0.4,0-0.6-0.3-0.6-0.7
			c0-0.2,0.1-0.5,0.3-0.7c0.2-0.2,0.4-0.3,0.7-0.4c2.6-0.4,4.6-0.7,6.2-0.8l-0.1-2.4C-282.9,0.3-282.7,0.1-282.3,0.1z M-283.1,4.4
			c0.4,0,0.6,0.2,0.6,0.6l0.1,1.5h3.4c0,0,0-0.1,0-0.1l0.2-1.5c0.1-0.3,0.3-0.5,0.6-0.5c0.4,0,0.6,0.2,0.6,0.6l-0.6,1.3
			c0,0,0,0.1,0,0.1h2.8c0.1,0,0.2,0.1,0.2,0.3c0,0.3-0.1,0.5-0.2,0.7c-0.2,0.2-0.4,0.3-0.7,0.3c-0.2,0-0.8,0-1.8-0.1
			c-0.7,0-1.5,0-2.3,0c0,0.1,0,0.2,0,0.3c0,0.3,0,0.6,0,0.9h3.8c0.1,0,0.2,0.1,0.2,0.3c0,0.3-0.1,0.5-0.2,0.7
			c-0.2,0.2-0.4,0.3-0.7,0.3c-0.2,0-0.6,0-1.4-0.1c-0.6,0-1.2,0-1.8,0c0,0.3,0,0.5,0,0.8v0.3h5.8c0.2,0,0.3,0.1,0.3,0.3
			c0,0.3-0.1,0.6-0.2,0.8c-0.2,0.2-0.4,0.3-0.7,0.3c-0.3,0-1-0.1-2.1-0.2c-0.7,0-1.4-0.1-2.2-0.1c2.3,1.6,3.8,2.5,4.3,2.6
			c0.4,0.1,0.8,0.2,1.3,0.2c0.2,0,0.3,0.1,0.3,0.4c0,0.3-0.2,0.6-0.6,0.9c-0.4,0.3-0.8,0.5-1.2,0.5c-0.3,0-0.5-0.1-0.8-0.4
			c-0.9-1-1.9-1.9-3.1-2.9c-0.4-0.3-0.8-0.6-1.1-0.8l0,3.2c0,0.9-0.2,1.4-0.6,1.4c-0.4,0-0.6-0.5-0.6-1.4c0-1.2,0-2.3,0.1-3.3
			c-0.8,0.9-1.7,1.7-2.7,2.4c-0.8,0.6-1.7,1.1-2.8,1.5c-0.2,0.1-0.4,0.1-0.5,0.1c-0.3,0-0.6-0.2-0.9-0.6c-0.3-0.3-0.4-0.6-0.4-0.9
			c0-0.2,0.2-0.2,0.5-0.3c0.8-0.1,1.3-0.2,1.7-0.3c0.9-0.2,1.8-0.5,2.6-1.1c0.7-0.4,1.3-0.9,1.8-1.4c-1.5,0-2.6,0.1-3.4,0.2
			c-0.5,0.1-0.9,0.2-1.1,0.2c-0.4,0-0.6-0.2-0.6-0.6c0-0.2,0.1-0.5,0.3-0.6c0.2-0.1,0.4-0.2,0.7-0.2h4.9c0-0.1,0-0.2,0-0.3
			c0-0.3,0-0.5,0-0.8c-1.2,0-2.1,0.1-2.7,0.2c-0.4,0.1-0.6,0.2-0.7,0.2c-0.3,0-0.5-0.2-0.6-0.6c0-0.2,0.1-0.4,0.3-0.6
			c0.2-0.1,0.4-0.2,0.7-0.2h3c0-0.3,0-0.6,0-0.9c0-0.1,0-0.2,0-0.3c-1.6,0-2.8,0.1-3.5,0.2c-0.5,0.1-0.8,0.2-0.9,0.2
			c-0.3,0-0.5-0.2-0.6-0.6c0-0.2,0.1-0.4,0.3-0.6c0.2-0.1,0.4-0.2,0.7-0.2h2.3c0,0,0-0.1,0-0.1l-0.4-1.4
			C-283.5,4.6-283.4,4.4-283.1,4.4z M-286.3,1.1c0.3,0.1,0.5,0.1,0.6,0.1c0.3,0,0.7-0.1,1.2-0.3c0.1,0,0.2,0.1,0.2,0.3
			c0,0.2-0.2,0.5-0.5,1c-0.3,0.5-0.6,0.7-0.9,0.7c-0.2,0-0.4-0.1-0.5-0.4c-0.2-0.3-0.3-0.7-0.3-1.1C-286.5,1.2-286.4,1.1-286.3,1.1z
			 M-276.8,0.8L-276.8,0.8c0.5,0.2,0.8,0.3,1.1,0.4c0.2,0,0.4,0.1,0.7,0.1c0.1,0,0.2,0.1,0.2,0.3c0,0.2-0.1,0.5-0.4,0.7
			c-0.4,0.3-0.8,0.5-1.1,0.5c0,0-0.1,0-0.1-0.1c-0.1-0.1-0.3-0.6-0.6-1.4c0-0.1,0-0.1,0-0.2C-277.1,0.9-277,0.8-276.8,0.8z"/>
		<path class="st0" d="M-268.1,5.3h1.7l0-3.9c0-0.6,0.2-0.8,0.6-0.8c0.5,0,0.8,0.3,0.8,0.8l-0.1,3.9h2.1c0.1,0,0.2,0.1,0.2,0.3
			c0,0.2-0.1,0.5-0.2,0.6c-0.2,0.2-0.4,0.3-0.7,0.3c-0.1,0-0.4,0-0.9-0.1c-0.2,0-0.4,0-0.6,0l-0.1,4.6c0.9-0.2,1.7-0.4,2.2-0.5
			c0.2,0,0.3,0.1,0.3,0.4c0,0.4-0.1,0.6-0.4,0.7c-1.9,0.6-3.7,1.3-5.3,2.1c-0.4,0-0.6-0.2-0.6-0.6c0-0.4,0.1-0.6,0.2-0.8
			c0.1-0.2,0.2-0.3,0.5-0.4c0.8-0.2,1.4-0.4,2.1-0.6l0-4.9c-0.7,0-1.3,0.1-1.6,0.2c-0.3,0.1-0.4,0.2-0.5,0.2c-0.4,0-0.6-0.2-0.6-0.6
			c0-0.2,0.1-0.4,0.3-0.6C-268.7,5.3-268.4,5.3-268.1,5.3z M-252.7,4.8c0.4,0,0.6,0.3,0.6,0.8c0,0.1-0.1,0.3-0.2,0.5
			c-0.3,0.7-0.7,1.9-1.3,3.8c-0.1,0.4-0.3,0.6-0.6,0.6c-0.3,0-0.5-0.2-0.5-0.5c0.1-0.7,0.4-1.8,0.9-3.4c0-0.1-0.1-0.2-0.3-0.2
			c-0.2,0-0.5,0-0.9,0.1c-0.5,0.1-1,0.2-1.5,0.3l0,3.7c0,0.9-0.2,1.4-0.6,1.4c-0.4,0-0.6-0.5-0.6-1.4c0-1.3,0-2.4,0-3.4
			c-0.8,0.2-1.5,0.4-2.1,0.6c0,1.7-0.1,3.7-0.1,5.8c0,0.4,0.2,0.6,0.5,0.7c0.7,0.1,2.3,0.1,5,0.1c1.3,0,2.4-0.2,3.4-0.6
			c0.1,0,0.2,0.2,0.2,0.5c0,0.4-0.1,0.9-0.3,1.4c-0.2,0.6-0.5,0.9-0.7,0.9c-0.3,0-3.1-0.3-8.2-0.9c-0.8-0.1-1.2-0.5-1.2-1.1
			c0.1-2.6,0.1-4.6,0.1-6c0-0.1,0-0.3,0-0.4c-0.4,0.2-0.8,0.4-1.3,0.6c-0.5,0-0.7-0.2-0.7-0.6c0-0.3,0.1-0.5,0.2-0.8
			c0.1-0.2,0.3-0.3,0.6-0.3c0.4-0.1,0.9-0.2,1.3-0.4c0-1,0-2.1-0.1-3.2c0-0.4,0.2-0.6,0.6-0.6c0.5,0,0.7,0.3,0.7,0.8
			c0,0.8,0,1.7,0,2.7c0.7-0.2,1.4-0.4,2.1-0.5c0-0.6,0-1.1,0-1.6c0-0.9,0-2-0.1-3.1c0-0.6,0.2-0.8,0.6-0.8c0.4,0,0.6,0.3,0.6,0.8
			c-0.1,1.2-0.1,2.2-0.1,3.1l0,1.4c0.8-0.2,1.6-0.3,2.3-0.4c0.4-0.1,0.7-0.2,1-0.3C-253.1,4.8-252.9,4.8-252.7,4.8z"/>
		<path class="st0" d="M-248.6,2.1c0.1,0,0.3,0,0.4,0.1c1.3-0.1,2.5-0.1,3.6-0.2c0-0.3-0.1-0.7-0.1-1c0-0.4,0.2-0.6,0.6-0.6
			c0.4,0,0.7,0.2,0.7,0.6c0,0.2,0,0.5,0.1,0.9c0.9,0,1.7,0,2.4,0l0-1c0-0.5,0.2-0.7,0.7-0.7c0.5,0,0.7,0.2,0.7,0.7l0,1.1
			c0.7,0,1.5,0,2.5,0c0-0.1,0-0.2,0-0.3c0-0.8,0.2-1.2,0.6-1.2c0.4,0,0.6,0.3,0.6,0.8c0,0.3-0.1,0.5-0.1,0.7c0.6,0,1.2,0,1.8,0.1
			c0.5,0,0.9,0,1.2,0c0.2,0,0.5,0,0.8-0.1c0.3-0.1,0.5-0.2,0.6-0.2c0.2,0,0.2,0.1,0.2,0.2c0,0.4-0.1,0.8-0.4,1.3
			c-0.3,0.5-0.6,0.7-0.9,0.7c-0.3,0-0.9-0.1-1.7-0.3c-0.6-0.1-1.1-0.2-1.8-0.3c0,0.1,0,0.1,0,0.2c0.1,0.8,0.1,1.3,0.1,1.6
			c0,0.4-0.2,0.6-0.6,0.6c-0.8-0.1-2.1-0.1-3.7-0.1c-1.2,0-2.4,0.1-3.6,0.3c-0.4,0-0.6-0.2-0.6-0.6c0-0.5,0.1-1,0.1-1.5
			c0-0.2,0-0.4,0-0.7c-1.2,0-2.2,0.1-2.9,0.3c-0.6,0.1-1.1,0.2-1.5,0.2c-0.3,0-0.5-0.2-0.5-0.6c0-0.2,0.1-0.5,0.2-0.7
			C-248.9,2.2-248.7,2.1-248.6,2.1z M-247.3,6.6c0.3,0,0.4,0,0.6,0.1c0.2,0.1,0.4,0.1,0.5,0.1c1.3-0.1,3.1-0.1,5.3-0.1
			c2.7,0,5.1,0.1,7,0.3l0.8-0.2c0.4,0,0.6,0.2,0.6,0.5c0,0.1,0,0.3-0.1,0.5c-0.2,0.6-0.4,1.6-0.4,2.9c0,0.4-0.2,0.6-0.5,0.6
			c-0.3,0-0.5-0.2-0.5-0.6c0-0.8,0-1.5,0.1-2.2c0-0.1-0.1-0.1-0.3-0.2c-1.6-0.3-3.4-0.4-5.4-0.4c0,0.1,0.1,0.3,0.1,0.5
			c0,0.5-0.1,1-0.1,1.5l2.1,0c0.2,0,0.5-0.1,0.9-0.2c0.5,0,0.7,0.2,0.7,0.6c-0.2,0.7-0.3,1.5-0.3,2.5c0,0.6,0.1,1.4,0.2,2.4
			c0,0.6-0.2,0.9-0.6,0.9c-0.2,0-0.3-0.1-0.5-0.3c-0.1-0.3-0.1-0.7-0.1-1.2c0-1.5,0.1-2.6,0.2-3.5c0-0.1-0.2-0.2-0.5-0.2
			c-0.7,0-1.4,0-2,0l0.1,4.8c0,1-0.2,1.5-0.7,1.5c-0.4,0-0.6-0.5-0.6-1.5c0.1-2,0.1-3.6,0.1-4.8c-0.8,0-1.6,0-2.4,0.1v2.3
			c0,0.5,0,1-0.1,1.4c-0.1,0.4-0.3,0.7-0.5,1c-0.2,0.2-0.4,0.4-0.5,0.4c-0.2,0-0.5-0.1-0.9-0.4c-0.4-0.3-0.6-0.6-0.6-0.8
			c0-0.2,0.1-0.3,0.3-0.4c0.4-0.1,0.7-0.3,0.9-0.6c0.2-0.3,0.3-1,0.3-2c0-0.5-0.1-1.1-0.2-1.7c0-0.4,0.2-0.6,0.6-0.6
			c0.2,0,0.4,0.1,0.5,0.2l2.5,0c0-0.4,0-0.9-0.1-1.4c0-0.2,0-0.3,0.1-0.5c-1.7,0-3.2,0.1-4.7,0.3c-0.5,0-0.9,0.2-0.9,0.4l0,0.1
			c0,1.2-0.1,1.9-0.2,2.1c-0.1,0.3-0.2,0.4-0.5,0.4c-0.2,0-0.3-0.1-0.3-0.3c0-1.5-0.1-2.8-0.3-3.8C-247.9,6.8-247.7,6.6-247.3,6.6z
			 M-243.3,3.1c0,0.4,0,0.9,0,1.4c0,0.2,0.1,0.4,0.3,0.4c0.7-0.1,1.5-0.2,2.2-0.2l0-1.6C-241.7,3.1-242.6,3.1-243.3,3.1z
			 M-239.6,3.1l-0.1,1.6c0.7,0,1.5,0,2.4,0.1c0.2,0,0.3-0.1,0.3-0.4c0-0.3,0-0.7-0.1-1.2C-237.9,3.2-238.7,3.1-239.6,3.1z"/>
		<path class="st0" d="M-214.5,8.5c0,2.8-1.3,4.9-3.9,6.3c-1,0.6-1.9,0.9-2.4,0.9c-0.3,0-0.7-0.2-1-0.5c-0.4-0.3-0.6-0.7-0.6-1.1
			c0-0.1,0.2-0.3,0.5-0.3c0.2,0,0.6-0.1,1-0.2c1.2-0.2,2.2-0.6,2.9-1.1c0.7-0.5,1.3-1.1,1.7-1.8c0.5-0.8,0.7-1.7,0.7-2.6
			c0-0.7-0.2-1.5-0.6-2.2c-0.8-1.6-2.2-2.4-4.1-2.4c-0.1,0-0.2,0-0.3,0c-0.1,0-0.2,0-0.3,0c-0.8,4.1-1.8,7.2-3,9
			c-0.7,1.1-1.4,1.6-1.9,1.6c-0.7,0-1.3-0.6-1.8-1.9c-0.4-1-0.6-2-0.6-3c0-1.5,0.4-2.9,1.3-4.1c1.3-1.9,3.4-2.8,6.1-2.8
			c1.7,0,3.1,0.5,4.3,1.6C-215.1,5-214.5,6.5-214.5,8.5z M-222.2,3.6c-1.8,0.4-3,1.1-3.8,2.2c-0.8,1.1-1.2,2.2-1.2,3.2
			c0,0.6,0.1,1.2,0.3,2c0.3,0.9,0.6,1.3,1,1.3c0.4,0,0.8-0.3,1.2-1C-223.6,9.7-222.8,7.1-222.2,3.6z"/>
		<path class="st0" d="M-209.1,10h2.6c0-0.3,0-0.6,0-0.9c0-0.6,0.2-0.8,0.6-0.8c0.4,0,0.6,0.3,0.6,0.8c0,0.3,0,0.6,0,0.9h2.3
			c0.1,0,0.2,0.1,0.2,0.2c0,0.3-0.1,0.5-0.2,0.7c-0.2,0.2-0.4,0.3-0.7,0.3c-0.1,0-0.5,0-1-0.1c-0.2,0-0.4,0-0.7,0c0,0.1,0,0.2,0,0.3
			l0,0.4c0,0,0,0,0.1,0c0.1,0,0.4,0.2,1.1,0.7c0.7,0.5,1,0.8,1,1.1c0,0.4-0.2,0.6-0.6,0.6c-0.1,0-0.2,0-0.3-0.1
			c-0.5-0.4-1-0.8-1.3-0.9l0,2.7c0,0.9-0.2,1.4-0.6,1.4c-0.4,0-0.6-0.5-0.6-1.4c0-1.1,0-2.1,0.1-2.9c-0.4,0.6-0.9,1.1-1.4,1.6
			c-0.5,0.5-1.1,0.9-1.8,1.2c-0.2,0.1-0.3,0.1-0.3,0.1c-0.3,0-0.6-0.2-1-0.6c-0.3-0.3-0.4-0.6-0.4-0.9c0-0.2,0.2-0.3,0.5-0.3
			c0.5,0,0.9-0.1,1.1-0.2c0.6-0.1,1.1-0.4,1.7-0.8c0.5-0.4,1-0.8,1.4-1.3c0.1-0.2,0.2-0.3,0.3-0.3v0c0-0.1,0-0.2,0-0.3
			c0,0-0.1,0-0.1,0c-1.1,0-1.9,0-2.4,0.1c-0.3,0.1-0.5,0.1-0.6,0.1c-0.3,0-0.5-0.3-0.6-0.7c0-0.2,0.1-0.4,0.3-0.6
			C-209.6,10.1-209.4,10-209.1,10z M-206.6,2.1h3.8c0-0.3,0-0.7-0.1-1c0-0.6,0.2-0.8,0.7-0.8c0.4,0,0.6,0.3,0.6,0.8
			c0,0.4,0,0.7-0.1,1h4.7c0.2,0,0.3,0.1,0.3,0.3c0,0.3-0.1,0.6-0.2,0.8c-0.2,0.2-0.4,0.3-0.7,0.3c-0.2,0-0.8-0.1-1.7-0.2
			c-0.6,0-1.2-0.1-1.9-0.1c0.1,0.1,0.2,0.2,0.3,0.3c2.4,1.6,3.8,2.5,4.4,2.7c0.4,0.1,0.8,0.2,1.3,0.2c0.3,0,0.4,0.1,0.4,0.4
			c0,0.3-0.2,0.6-0.6,0.9c-0.4,0.3-0.8,0.5-1.3,0.5c-0.3,0-0.6-0.1-0.9-0.4c-0.9-1-1.9-1.9-3.1-2.9c-0.4-0.3-0.7-0.6-1-0.7l0.1,3.4
			c0,0.9-0.2,1.4-0.6,1.4c-0.4,0-0.6-0.5-0.6-1.4c0-1.4,0.1-2.6,0.1-3.5c-0.7,0.9-1.5,1.8-2.4,2.4c-0.7,0.6-1.6,1.2-2.6,1.6
			c-0.2,0.1-0.4,0.1-0.4,0.1c-0.3,0-0.7-0.2-1.1-0.7c-0.3-0.4-0.5-0.7-0.5-0.9c0-0.2,0.2-0.4,0.6-0.4c0.7-0.1,1.2-0.2,1.6-0.3
			c0.8-0.2,1.7-0.6,2.4-1.1c0.7-0.5,1.2-1,1.7-1.6c-1.2,0-2.1,0.1-2.8,0.3c-0.4,0.1-0.7,0.2-0.9,0.2c-0.4,0-0.7-0.3-0.7-0.8
			c0-0.2,0.1-0.4,0.3-0.6C-207.1,2.1-206.9,2.1-206.6,2.1z M-200.6,10h1.6c0-0.4,0-0.7,0-1.1c0-0.6,0.2-0.8,0.6-0.8
			c0.4,0,0.6,0.3,0.6,0.8c0,0.4-0.1,0.8-0.1,1.1h3.2c0.2,0,0.3,0.1,0.3,0.2c0,0.3-0.1,0.6-0.2,0.9c-0.2,0.2-0.4,0.4-0.7,0.4
			c-0.1,0-0.5-0.1-1-0.2c-0.5,0-1-0.1-1.6-0.1c0,0.1,0,0.2,0,0.2v0.4c0.1,0,0.3,0.2,0.4,0.3c1.7,1.1,2.7,1.8,3.1,1.9
			c0.3,0.1,0.6,0.1,1,0.2c0.2,0,0.3,0.1,0.3,0.4c0,0.3-0.2,0.6-0.6,0.9c-0.4,0.3-0.8,0.4-1.2,0.4c-0.3,0-0.5-0.1-0.8-0.4
			c-0.6-0.8-1.2-1.5-1.9-2.3c-0.1-0.1-0.2-0.2-0.3-0.3l0,3.1c0,0.9-0.2,1.4-0.7,1.4c-0.4,0-0.6-0.5-0.6-1.4c0.1-1.1,0.1-2.1,0.1-2.9
			c-0.3,0.5-0.6,0.9-1,1.3c-0.4,0.4-0.8,0.8-1.3,1.1c-0.1,0.1-0.2,0.1-0.2,0.1c-0.3,0-0.6-0.2-0.9-0.6c-0.3-0.3-0.4-0.5-0.4-0.7
			c0-0.2,0.2-0.3,0.4-0.3c0.4,0,0.7-0.1,0.8-0.2c0.4-0.1,0.9-0.4,1.3-0.8c0.4-0.4,0.8-0.8,1-1.3c0.1-0.1,0.1-0.2,0.2-0.3
			c0,0,0-0.1,0-0.2c0-0.1,0-0.1,0-0.2c-0.6,0-1.1,0.1-1.4,0.1c-0.3,0.1-0.4,0.1-0.5,0.1c-0.3,0-0.5-0.3-0.6-0.7
			c0-0.2,0.1-0.4,0.3-0.6C-201.1,10.1-200.9,10-200.6,10z"/>
		<path class="st0" d="M-177.1,6.1c0,0.3-0.3,0.6-0.8,1c-1.2,0.9-2.9,2-5.1,3.4c0,0.1,0,0.4,0,0.8c0,0.3,0,0.6,0,0.8
			c0,0.5-0.2,0.7-0.7,0.7c-0.3,0-0.4-0.2-0.5-0.6c0-0.1,0-0.4,0-1c-0.8,0.5-1.4,0.8-1.7,1.1c-0.7,0.6-1.1,1.1-1.1,1.7
			c0,0.4,0.3,0.6,1,0.8c0.5,0.1,1,0.2,1.5,0.2c1.5,0,2.8-0.3,4-0.8c0.9-0.4,1.4-0.6,1.4-0.6c0.1,0,0.2,0.1,0.2,0.4
			c0,0.5-0.1,1-0.4,1.5c-0.2,0.4-0.7,0.6-1.6,0.8c-0.7,0.1-1.4,0.1-2.3,0.1c-1.1,0-2.1-0.1-2.9-0.4c-1.3-0.4-1.9-1.1-1.9-2
			c0-0.8,0.5-1.6,1.4-2.4c0.1-0.2,0.9-0.7,2.2-1.7c0-0.9-0.1-1.4-0.1-1.6c-0.1-0.6-0.5-0.9-1.1-0.9c-0.7,0-1.4,0.2-1.9,0.5
			c-0.2,0.1-0.8,0.6-1.7,1.4c-0.1,0.1-0.2,0.2-0.4,0.3c-0.4,0-0.6-0.3-0.6-0.9c0-0.4,0.4-0.9,1.2-1.4c1.1-0.8,2.1-1.8,3-3.2
			c-0.4,0.1-1.1,0.2-2,0.3c0,0-0.3,0.1-0.8,0.2c-0.4,0.1-0.6,0.2-0.8,0.2c-0.3,0-0.5-0.2-0.5-0.7c0-0.6,0.4-0.9,1.2-1
			c0.7,0,1.9-0.1,3.3-0.1c0.1-0.3,0.4-0.9,0.8-1.9c0.2-0.5,0.4-0.7,0.8-0.7c0.5,0,0.7,0.2,0.7,0.7c0,0.2-0.3,0.8-0.9,1.9
			c0.4,0,1.1,0,1.9,0c0.9,0,1.5,0,1.9,0c0.1,0,0.3,0,0.5,0c0.2,0,0.4-0.1,0.5-0.1c0.1,0,0.2,0.1,0.2,0.2c0,0.3-0.2,0.6-0.4,1
			c-0.3,0.4-0.5,0.6-0.8,0.6c-0.2,0-0.5-0.1-0.8-0.2c-0.3-0.1-0.5-0.1-0.8-0.2c-0.6-0.2-1.6-0.3-2.8-0.3c-0.6,1-1.3,1.9-1.9,2.6
			c0.5-0.1,1-0.1,1.4-0.1c1.1,0,1.8,0.8,1.8,2.3c0,0.2,0,0.3,0.1,0.4c1.8-1.3,3.3-2.4,4.4-3.3c0.4-0.3,0.7-0.4,0.9-0.4
			C-177.3,5.4-177.1,5.6-177.1,6.1z"/>
		<path class="st0" d="M-169,9.4c0.2,0,0.3,0,0.5,0c0.2,0,0.4,0,0.8,0h3.1c0.7,0,1.5,0,2.5,0.1c0.2,0,0.4,0,0.6-0.1
			c0.4,0,0.6,0.2,0.6,0.6c0,0,0,0-0.1,0.1c-0.1,0.1-0.1,0.3-0.1,0.6c0,0.4-0.1,0.8-0.1,1.2c0,0.2,0,0.5,0.1,0.8
			c0,0.4-0.2,0.7-0.5,0.7c-0.4,0-0.7-0.1-1.1-0.1l-0.4,1.5c0.7,0,1.4,0.1,2.2,0.2c1.2,0.1,2.4,0.2,3.5,0.2c0.3,0,0.6,0,0.9-0.1
			c0.1,0,0.1,0.1,0.1,0.3c0,0.4-0.1,0.8-0.3,1.2c-0.2,0.4-0.4,0.6-0.6,0.6c-0.3,0-0.7-0.1-1-0.3c-1.3-0.5-2.5-0.9-3.7-1.1
			c-0.9-0.1-2-0.2-3.3-0.2c-1.6,0-2.9,0.1-4,0.3c-1.2,0.3-2.4,0.7-3.6,1.1c-0.4,0.2-0.6,0.2-0.9,0.2c-0.4,0-0.5-0.3-0.6-0.8
			c0-0.2,0.1-0.4,0.3-0.7c0.2-0.2,0.4-0.3,0.7-0.4c2.3-0.4,4.2-0.7,5.7-0.9l-0.3-1.6c0,0-0.1,0-0.1,0c-0.3,0-0.7,0.1-1.1,0.2
			c-0.3,0-0.5-0.2-0.5-0.7c0.1-0.6,0.1-1.1,0.1-1.6c0-0.4,0-0.8-0.1-1.3C-169.5,9.6-169.4,9.4-169,9.4z M-170.8,7.5h11.6
			c0.2,0,0.3,0.1,0.3,0.3c0,0.3-0.1,0.6-0.2,0.8c-0.2,0.2-0.4,0.3-0.7,0.3s-1-0.1-2.1-0.2c-1.1,0-2.4-0.1-3.8-0.1
			c-2.1,0-3.6,0.1-4.5,0.2c-0.5,0.1-0.9,0.2-1,0.2c-0.4,0-0.6-0.2-0.6-0.6c0-0.2,0.1-0.4,0.3-0.6C-171.4,7.6-171.1,7.5-170.8,7.5z
			 M-170.5,0.7c0.2,0,0.4,0,0.6,0.1c0.2,0.1,0.5,0.1,0.9,0.1h1.6V0.6c0-0.4,0.2-0.7,0.6-0.7c0.4,0,0.7,0.3,0.7,0.8l0,0.3h1.8
			c0.1,0,0.2,0,0.3,0l0-0.4c0-0.4,0.2-0.7,0.6-0.7c0.4,0,0.6,0.3,0.6,0.8l0,0.3c0.7,0,1.4,0,2.2,0.1c0.2,0,0.4-0.1,0.7-0.2
			c0.4,0,0.6,0.3,0.6,0.8l0,0.1c-0.1,0.2-0.1,0.5-0.1,0.9c0,0.6-0.1,1.2-0.1,1.8c0,0.4,0,0.9,0.1,1.5c0,0.5-0.2,0.7-0.6,0.7
			c-1.9-0.1-3.5-0.2-5-0.2c-1.9,0-3.2,0-3.7,0c-0.4,0-1,0.1-1.6,0.1c-0.4,0-0.6-0.2-0.6-0.6c0.1-0.9,0.2-1.7,0.2-2.4
			c0-0.6-0.1-1.4-0.2-2.3C-171.1,1-170.9,0.7-170.5,0.7z M-167.4,5.5l0-1.2c-0.8,0-1.4,0.1-2.1,0.1c-0.1,0-0.2,0-0.3,0
			c0,0.3,0,0.6-0.1,0.9c0,0.3,0.2,0.4,0.5,0.4C-168.8,5.5-168.1,5.5-167.4,5.5z M-169.7,3.2c0.1,0,0.2,0,0.3,0h2l0-1.2
			c-0.6,0-1.2,0-1.9,0c-0.3,0-0.4,0.2-0.4,0.5C-169.7,2.7-169.7,3-169.7,3.2z M-165.4,12.4c0.9,0,1.9,0,2.9,0.1
			c0.2,0,0.3-0.1,0.3-0.4v-1.3c0-0.1-0.1-0.2-0.2-0.2c-1.3-0.1-3.2-0.1-5.7-0.1c-0.2,0-0.3,0.1-0.3,0.4c0,0.4-0.1,0.8-0.2,1.1
			c0,0.3,0.1,0.5,0.4,0.5C-167.3,12.4-166.4,12.4-165.4,12.4z M-166.6,14.9c0.5,0,1-0.1,1.4-0.1c0.4,0,0.8,0,1.2,0l0.2-1.5
			c-0.5,0-1.1,0-1.6,0c-0.5,0-0.9,0-1.3,0L-166.6,14.9z M-165.2,5.4c0.4,0,0.7,0,1.1,0l0-1.3c-0.8,0-1.5,0-2.2,0l0,1.2
			C-166,5.4-165.6,5.4-165.2,5.4z M-166.3,2l0,1.2h2.2l0-1.2C-164.8,2-165.6,2-166.3,2z M-163.1,4.2l0,1.3c0.7,0,1.3,0,2.1,0.1
			c0.2,0,0.3-0.1,0.3-0.3V4.1C-161.6,4.1-162.4,4.1-163.1,4.2z M-163.1,2l0,1.2h2.2c0,0,0.1,0,0.1,0V2.4c0-0.2,0-0.3-0.1-0.3
			C-161.6,2-162.3,2-163.1,2z"/>
		<path class="st0" d="M-142.6,7.7c0,1.6-0.2,3.2-0.7,4.8c-0.7,2-1.6,3-2.7,3c-0.3,0-0.5-0.2-0.9-0.7c-0.3-0.5-0.4-0.9-0.4-1.2
			c0-0.2,0.3-0.3,0.9-0.3c0.7-0.1,1.1-0.3,1.3-0.5c0.5-0.5,0.9-1.4,1.2-2.8c0.2-1.1,0.3-2.2,0.3-3.2c0-1-0.4-1.4-1.3-1.4
			c-0.3,0-0.9,0-1.7,0.1c-0.4,1.8-0.9,3.3-1.3,4.4c-0.5,1.3-1.3,2.6-2.2,3.9c-0.8,1.1-1.4,1.7-1.8,1.7c-0.2,0-0.6-0.2-0.9-0.6
			c-0.4-0.4-0.6-0.6-0.6-0.9c0-0.1,0.1-0.3,0.3-0.4c0.2-0.1,0.5-0.3,0.9-0.6c1-0.7,1.8-1.5,2.5-2.5c0.8-1.2,1.5-2.9,2.2-4.9
			c-0.7,0.1-1.8,0.3-3.1,0.6c-0.3,0-0.5-0.2-0.5-0.6c0-0.7,0.6-1,1.9-1.1c0.3,0,1-0.1,2.1-0.1c0.2-0.8,0.3-1.6,0.3-2.6
			c0-0.5,0.2-0.8,0.6-0.8c0.4,0,0.6,0.2,0.6,0.7c0,0.2-0.1,1.1-0.4,2.6c0.7,0,1.1,0,1.4,0c0.9,0,1.6,0.3,2,0.9
			C-142.8,5.7-142.6,6.5-142.6,7.7z M-136.3,7c0,0.2-0.2,0.6-0.6,1.2c-0.4,0.5-0.7,0.8-0.9,0.8c-0.4,0-1-0.6-1.9-1.7
			s-1.2-1.9-1.2-2.4c0-0.2,0.1-0.4,0.2-0.4c0.1,0,0.3,0.2,0.7,0.6c0.4,0.4,0.9,0.8,1.5,1.2c0.5,0.3,1,0.5,1.6,0.5
			C-136.5,6.7-136.3,6.8-136.3,7z"/>
		<path class="st0" d="M-128.7,11.5c-0.2,0.8-0.5,1.6-0.8,2.5c-0.5,1.3-0.9,1.9-1.3,1.9c-0.4,0-0.8-0.6-1.1-1.9
			c-0.3-1.1-0.4-2.7-0.4-4.8c0-0.8,0.1-2,0.4-3.6c0.3-1.7,0.5-2.8,0.8-3.4c0.2-0.4,0.4-0.6,0.8-0.6c0.4,0,0.7,0.2,0.7,0.7
			c0,0.1-0.1,0.5-0.3,1c-0.3,0.8-0.6,1.7-0.8,2.8c-0.2,1.1-0.4,2.1-0.4,2.8c0,3.1,0.2,4.7,0.6,4.7c0.2,0,0.6-0.8,1.3-2.3
			c0.1-0.2,0.2-0.3,0.3-0.3C-128.8,11.2-128.7,11.3-128.7,11.5z M-118.4,12.3c0,0.1-0.2,0.5-0.4,1.2c-0.2,0.6-0.5,0.9-0.9,1.1
			c-0.4,0.2-1.4,0.3-2.9,0.3c-1.2,0-2.2-0.2-3.1-0.6c-1.2-0.6-1.8-1.5-1.8-2.7c0-1.3,0.3-2,0.8-2c0.1,0,0.2,0.1,0.2,0.3
			c-0.1,0.6-0.2,1-0.2,1.2c0,1.4,0.9,2.1,2.8,2.1c0.8,0,1.7-0.1,2.7-0.3c0.6-0.1,1.1-0.3,1.6-0.5c0.4-0.2,0.7-0.3,0.9-0.3
			C-118.6,12-118.5,12.1-118.4,12.3z M-120.2,3.6c0,0.2-0.5,0.8-1.5,1.6c-1,0.8-1.6,1.2-1.8,1.2c-0.2,0-0.3-0.1-0.3-0.3
			c0-0.1,0.2-0.5,0.7-1c0.4-0.4,0.7-0.8,0.9-0.9c-0.1,0-0.2,0-0.3,0c-0.9,0-1.8,0.1-2.8,0.3c-1.1,0.2-1.6,0.4-1.6,0.4
			c-0.2,0-0.4-0.2-0.4-0.5c0-0.5,0.2-0.8,0.5-1c0.1,0,0.5-0.1,1.1-0.2c1.4-0.2,3-0.2,4.8-0.2C-120.4,3-120.2,3.2-120.2,3.6z"/>
		<path class="st0" d="M-108.5,15.8c0,0.4-0.1,0.8-0.4,1.1c-0.3,0.3-0.6,0.4-1,0.4c-0.4,0-0.7-0.1-0.9-0.4c-0.2-0.3-0.4-0.6-0.4-1.1
			c0-0.9,0.4-1.4,1.3-1.4c0.4,0,0.7,0.1,1,0.4C-108.7,15-108.5,15.3-108.5,15.8z M-109,2.8c-0.1,0.5-0.2,2.1-0.2,4.9
			c0,2.4,0,3.8,0.1,4c0,0.7-0.3,1-0.9,1c-0.6,0-0.9-0.3-0.9-1c0-0.5,0-1.1,0.1-2c0.1-0.9,0.1-1.6,0.1-2c0-0.5,0-1.3-0.1-2.4
			c-0.1-1.1-0.1-1.9-0.1-2.5c0-0.7,0.3-1.1,0.9-1.1C-109.3,1.8-109,2.1-109,2.8z"/>
	</g>
</g>
<g>
	<g>
		<path class="st0" d="M9.2,5.9c1.1,0,2.4,0.1,3.9,0.2c1.1,0.1,2.1,0.1,2.9,0.1c0.4,0,0.9-0.1,1.5-0.3c0.1,0,0.1,0.2,0.1,0.5
			c0,0.5-0.2,1.1-0.5,1.6c-0.2,0.4-0.4,0.6-0.6,0.6c-0.4,0-0.8-0.1-1.3-0.4c-0.8-0.4-1.7-0.8-2.7-0.9c-1-0.2-2.2-0.3-3.5-0.3
			c-0.5,0-1.1,0-1.6,0c-0.3,0.6-0.7,1.3-1.1,2c-1.1,1.4-2.2,2.5-3.3,3.3c-0.8,0.5-1.4,0.8-1.9,0.8c-0.2,0-0.5-0.1-0.7-0.3
			c-0.3-0.3-0.4-0.7-0.4-1c0-0.2,0.2-0.4,0.6-0.5c1.5-0.2,2.9-1,4.2-2.2c0.6-0.6,1.1-1.3,1.6-2C5.9,7.3,5.5,7.3,5,7.4
			C4.2,7.5,3,7.9,1.4,8.6C1,8.6,0.7,8.4,0.7,8c0-0.3,0.1-0.5,0.3-0.7c0.2-0.3,0.6-0.5,1-0.5C3.9,6.4,5.6,6.2,7,6
			c0.3-0.5,0.5-1.1,0.7-1.7C7.7,4.1,7.8,4,8,4c0.4,0,0.6,0.2,0.6,0.7c0,0-0.1,0.1-0.1,0.3C8.4,5.3,8.2,5.6,8.1,6
			C8.5,5.9,8.8,5.9,9.2,5.9z M1.8,1.7h3.6L5.3,0.9c0-0.4,0.2-0.6,0.6-0.6c0.4,0,0.6,0.2,0.6,0.7v0.6H11L11.1,1
			c0-0.6,0.2-0.8,0.6-0.8c0.4,0,0.6,0.2,0.6,0.7l-0.2,0.7h4.3c0.2,0,0.3,0.1,0.3,0.3c0,0.3-0.1,0.6-0.2,0.8
			c-0.2,0.2-0.4,0.3-0.7,0.3c-0.4,0-1.3-0.1-2.7-0.2c-0.4,0-0.8,0-1.2,0l-0.2,1c-0.1,0.3-0.3,0.4-0.5,0.4c-0.3,0-0.4-0.2-0.4-0.6
			l0.1-0.8c-0.8,0-1.7,0-2.5,0c-0.6,0-1.2,0-1.8,0v0.8c0,0.4-0.1,0.6-0.4,0.6C5.9,4.2,5.8,4,5.7,3.6L5.6,2.9C4.4,2.9,3.4,3,2.7,3.1
			C2.1,3.2,1.6,3.3,1.4,3.3C1,3.3,0.8,3,0.7,2.5c0-0.2,0.1-0.5,0.3-0.6C1.3,1.8,1.5,1.7,1.8,1.7z M6.5,10.3c0.2,0,0.4,0,0.6,0.1
			c0.2,0.1,0.5,0.1,0.9,0.1h2.5c0.6,0,1.2,0,2,0.1c0.2,0,0.4-0.1,0.7-0.2c0.4,0,0.6,0.2,0.6,0.7c0,0,0,0.1,0,0.2
			c-0.1,0.2-0.1,0.5-0.1,0.9c0,0.6-0.1,1.2-0.1,1.8c0,0.4,0,0.9,0.1,1.6c0,0.5-0.2,0.7-0.6,0.7c-1.3-0.1-2.5-0.2-3.5-0.2
			c-1.1,0-1.8,0-2.1,0.1c-0.2,0-0.6,0.1-0.9,0.1c-0.4,0-0.6-0.2-0.6-0.6c0.1-0.9,0.2-1.7,0.2-2.4c0-0.6-0.1-1.4-0.2-2.4
			C6,10.5,6.2,10.3,6.5,10.3z M9.6,15.1c0.8,0,1.7,0,2.6,0.1c0.2,0,0.3-0.1,0.3-0.3v-3c0-0.2-0.1-0.3-0.2-0.3
			c-1-0.1-2.6-0.1-4.6-0.1c-0.3,0-0.4,0.2-0.4,0.5c0,1-0.1,1.9-0.2,2.8c0,0.3,0.2,0.4,0.5,0.4C8.2,15.1,8.8,15.1,9.6,15.1z"/>
		<path class="st0" d="M25.6,2.4h2.8l-0.1-1.5c0-0.5,0.2-0.7,0.7-0.7c0.5,0,0.7,0.2,0.7,0.7l-0.1,1.5H33c0.1,0,0.1,0,0.2,0.1
			c0.3-0.4,0.7-0.9,1-1.3C34.3,1.1,34.4,1,34.6,1c0.3,0,0.5,0.3,0.5,0.6c0,0.2,0,0.3-0.1,0.4c-1,1.3-2,2.4-2.8,3.3
			c0.4,0,0.7,0.1,1.1,0.1c1.2,0.1,2.3,0.2,3.1,0.2c0.4,0,1-0.1,1.6-0.3c0.1,0,0.2,0.2,0.2,0.5c0,0.5-0.2,1-0.5,1.6
			C37.3,7.8,37.1,8,36.9,8c-0.4,0-0.8-0.1-1.3-0.4c-0.9-0.4-1.8-0.7-2.8-0.9c-0.5-0.1-1.1-0.1-1.6-0.2c-0.8,0.8-1.6,1.5-2.2,1.9
			c-0.2,0.2-0.5,0.4-0.7,0.5c0.1,0,0.3,0,0.5,0h2.2c0.5,0,1.1,0,1.7,0.1c0.2,0,0.4-0.1,0.7-0.2c0.4,0,0.6,0.3,0.6,0.8
			c0,0,0,0.1,0,0.2c-0.1,0.2-0.1,0.6-0.1,1.2c0,0.8-0.1,1.6-0.1,2.5c0,0.6,0,1.3,0.1,2.3c0,0.6-0.2,0.8-0.6,0.8
			c-1.1-0.2-2-0.3-2.9-0.3c-1.1,0-1.8,0-2.1,0.1c-0.3,0-0.6,0.1-0.9,0.2c-0.4,0-0.6-0.2-0.6-0.7c0.1-1.2,0.2-2.3,0.2-3.2
			c0-0.8,0-1.8-0.1-2.9c-1.2,0.7-2.5,1.3-3.8,1.8c-0.6,0.3-1.1,0.4-1.5,0.4c-0.4,0-0.8-0.2-1-0.5c-0.3-0.3-0.4-0.6-0.4-0.9
			c0-0.2,0.1-0.4,0.3-0.4c2.4-0.4,4.3-0.9,5.7-1.6c1.1-0.5,2.3-1.3,3.4-2.2c-0.1,0-0.3,0-0.4,0c-1.4,0-2.7,0.1-4,0.2
			c-0.8,0.1-1.9,0.5-3.5,1.1c-0.4,0-0.6-0.2-0.6-0.6c0-0.3,0.1-0.5,0.3-0.7c0.2-0.3,0.5-0.5,0.9-0.5c2.7-0.4,4.8-0.6,6.3-0.6
			l-0.1-1.8c-1.2,0-2,0.1-2.6,0.2c-0.3,0.1-0.6,0.2-0.7,0.2c-0.4,0-0.6-0.2-0.6-0.6c0-0.2,0.1-0.4,0.3-0.6
			C25.1,2.4,25.3,2.4,25.6,2.4z M30.3,15.2c0.6,0,1.3,0,2,0.1c0.2,0,0.3-0.1,0.3-0.4V13c-1.9,0-3.5,0.1-4.5,0.2c0,0-0.1,0-0.1,0
			c0,0.5,0,1.1-0.1,1.6c0,0.3,0.2,0.5,0.5,0.5C28.9,15.2,29.6,15.2,30.3,15.2z M28,12c0.1,0,0.1,0,0.2,0h4.4v-1.6
			c0-0.2,0-0.3-0.1-0.3c-0.9-0.1-2.3-0.1-4-0.1c-0.3,0-0.4,0.2-0.4,0.5C28.1,11,28.1,11.5,28,12z M30.7,5.3c0.5-0.5,1.1-1.1,1.6-1.7
			c-0.2,0-0.6,0-1.2-0.1c-0.4,0-0.9,0-1.4,0l-0.1,1.8C29.9,5.3,30.3,5.3,30.7,5.3z"/>
		<path class="st0" d="M56.2,7.3c0,1.2-0.4,2.1-1.3,2.9c-0.8,0.7-1.7,1-2.8,1c-0.7,0-1.2-0.2-1.5-0.6c-0.3-0.5-0.5-0.9-0.5-1.3
			c0-0.2,0-0.3,0.1-0.3c0.2,0,0.5,0.1,1,0.2c0.5,0.1,0.8,0.2,1.1,0.2c0.6,0,1.2-0.2,1.8-0.6c0.7-0.4,1-1,1-1.6
			c0-0.6-0.2-1.1-0.6-1.5c-0.4-0.3-0.8-0.5-1.4-0.5c-1.4,0-3.3,0.5-5.8,1.4c0.4,2.4,0.9,4.4,1.6,6c0.5,1.2,1.1,2.1,1.7,2.7
			c0.1,0.1,0.3,0.3,0.5,0.6c0,0.2-0.3,0.4-0.7,0.7c-0.4,0.2-0.7,0.3-1,0.3c-0.6,0-1.3-1.5-2-4.4c-0.5-2.1-0.9-3.9-1.1-5.5
			c-0.7,0.3-1.8,0.8-3.2,1.4L41.9,9c-0.5,0-0.7-0.3-0.7-0.9c0-0.4,0.7-0.9,2.1-1.4c0.3-0.1,1.2-0.4,2.7-0.9
			c-0.2-1.8-0.2-3.2-0.2-4.2c0-0.5,0.2-0.7,0.7-0.7c0.3,0,0.4,0.2,0.5,0.7c0,0.3,0,0.7,0,1.3c0,1,0.1,1.9,0.1,2.7
			c2.6-0.8,4.4-1.2,5.6-1.2c0.9,0,1.7,0.2,2.3,0.7C55.8,5.6,56.2,6.4,56.2,7.3z M52.1,1c0,0.3-0.3,0.8-0.9,1.6
			c-0.6,0.8-1.1,1.1-1.3,1.1c-0.2,0-0.5-0.2-0.8-0.6c-0.3-0.4-0.5-0.7-0.5-0.9c0-0.1,0.3-0.2,0.9-0.3c0.4,0,0.9-0.3,1.5-0.6
			c0.6-0.4,0.9-0.6,0.9-0.6C52,0.7,52.1,0.8,52.1,1z"/>
		<path class="st0" d="M68.7,0.4c0.3,0,0.4,0.1,0.4,0.4c0.2,0.1,0.5,0.3,0.9,0.6c3.1,2.3,5.1,3.6,5.8,3.9c0.5,0.2,1.1,0.3,1.8,0.3
			c0.3,0,0.4,0.2,0.4,0.5c0,0.4-0.3,0.7-0.8,1.1c-0.5,0.4-1,0.5-1.5,0.5c-0.3,0-0.7-0.2-1-0.5c-1.3-1.4-2.7-2.7-4.2-4.1
			c-0.7-0.6-1.3-1-1.8-1.2c0,0-0.1,0-0.1,0c-1,1.3-2.1,2.4-3.3,3.4c-1,0.8-2.2,1.5-3.5,2.1c-0.3,0.1-0.5,0.2-0.6,0.2
			c-0.3,0-0.7-0.2-1.1-0.7c-0.3-0.3-0.5-0.6-0.5-0.9c0-0.2,0.2-0.3,0.6-0.4c1-0.1,1.7-0.2,2.1-0.4c1.1-0.3,2.2-0.9,3.3-1.7
			c1.1-0.8,2-1.8,2.7-2.8C68.4,0.5,68.5,0.4,68.7,0.4z M68.8,5.8c0.5,0,0.8,0.3,0.8,0.9l-0.1,2.6c0,0,0.1,0,0.1,0h2.9
			c0.4,0,0.6,0.2,0.6,0.6c0,0.3-0.2,0.5-0.6,0.5c-1.3,0-2.3,0.1-3.1,0.2l-0.1,3.8c1,0,2.2,0.1,3.8,0.2c0.3,0,0.6,0,0.9,0
			c0.2,0,0.5,0,0.8-0.1c0.3-0.1,0.5-0.2,0.6-0.2c0.2,0,0.2,0.1,0.2,0.2c0,0.4-0.2,0.8-0.5,1.2c-0.3,0.5-0.6,0.7-0.9,0.7
			c-0.2,0-0.7-0.1-1.2-0.3c-1.3-0.4-2.8-0.6-4.6-0.6c-2.5,0-4.2,0.1-5.2,0.4c-0.5,0.1-0.8,0.2-1.1,0.2c-0.3,0-0.5-0.2-0.5-0.6
			c0-0.2,0.1-0.5,0.2-0.7c0.1-0.2,0.3-0.3,0.5-0.3c0.1,0,0.3,0,0.4,0.1c0.6-0.1,1.3-0.1,1.9-0.1c0,0,0-0.1,0-0.1
			c0.1-0.7,0.1-1.5,0.1-2.2c0-0.8-0.1-1.8-0.2-3c0-0.4,0.2-0.6,0.6-0.6c0.4,0,0.6,0.2,0.6,0.6c0.1,0.6,0.1,2,0.1,4.4
			c0,0.4,0,0.7-0.1,0.9c0.8,0,1.6-0.1,2.4-0.1l-0.1-7.7C68.1,6.1,68.3,5.8,68.8,5.8z"/>
		<path class="st0" d="M88.1,0.1c0.4,0,0.7,0.2,0.7,0.7l-0.1,2.3c0.4,0,0.7,0,1,0c0.4,0,0.8,0,1.2,0l-0.1-2.4c0-0.4,0.2-0.6,0.6-0.6
			c0.4,0,0.6,0.2,0.6,0.7l-0.1,2.4c0.8,0.1,1.6,0.2,2.4,0.3c1.3,0.2,2.5,0.2,3.7,0.2c0.3,0,0.6,0,0.9-0.1c0.1,0,0.1,0.1,0.1,0.3
			c0,0.4-0.1,0.8-0.3,1.2c-0.2,0.4-0.4,0.6-0.6,0.6c-0.3,0-0.7-0.1-1-0.3C95.5,5,94.2,4.6,93,4.4c-0.9-0.1-2.1-0.2-3.4-0.2
			c-1.6,0-2.9,0.1-4.1,0.3c-1.2,0.3-2.4,0.6-3.6,1.1c-0.4,0.1-0.6,0.2-0.9,0.2c-0.4,0-0.6-0.3-0.6-0.7c0-0.2,0.1-0.5,0.3-0.7
			C81,4.2,81.3,4.1,81.5,4c2.6-0.4,4.6-0.7,6.2-0.8l-0.1-2.4C87.6,0.3,87.8,0.1,88.1,0.1z M87.4,4.4C87.8,4.4,88,4.6,88,5L88,6.5
			h3.4c0,0,0-0.1,0-0.1l0.2-1.5c0.1-0.3,0.3-0.5,0.6-0.5c0.4,0,0.6,0.2,0.6,0.6l-0.6,1.3c0,0,0,0.1,0,0.1h2.8c0.1,0,0.2,0.1,0.2,0.3
			c0,0.3-0.1,0.5-0.2,0.7c-0.2,0.2-0.4,0.3-0.7,0.3c-0.2,0-0.8,0-1.8-0.1c-0.7,0-1.5,0-2.3,0c0,0.1,0,0.2,0,0.3c0,0.3,0,0.6,0,0.9
			H94c0.1,0,0.2,0.1,0.2,0.3c0,0.3-0.1,0.5-0.2,0.7c-0.2,0.2-0.4,0.3-0.7,0.3c-0.2,0-0.6,0-1.4-0.1c-0.6,0-1.2,0-1.8,0
			c0,0.3,0,0.5,0,0.8v0.3h5.8c0.2,0,0.3,0.1,0.3,0.3c0,0.3-0.1,0.6-0.2,0.8c-0.2,0.2-0.4,0.3-0.7,0.3c-0.3,0-1-0.1-2.1-0.2
			c-0.7,0-1.4-0.1-2.2-0.1c2.3,1.6,3.8,2.5,4.3,2.6c0.4,0.1,0.8,0.2,1.3,0.2c0.2,0,0.3,0.1,0.3,0.4c0,0.3-0.2,0.6-0.6,0.9
			c-0.4,0.3-0.8,0.5-1.2,0.5c-0.3,0-0.5-0.1-0.8-0.4c-0.9-1-1.9-1.9-3.1-2.9c-0.4-0.3-0.8-0.6-1.1-0.8l0,3.2c0,0.9-0.2,1.4-0.6,1.4
			c-0.4,0-0.6-0.5-0.6-1.4c0-1.2,0-2.3,0.1-3.3c-0.8,0.9-1.7,1.7-2.7,2.4c-0.8,0.6-1.7,1.1-2.8,1.5c-0.2,0.1-0.4,0.1-0.5,0.1
			c-0.3,0-0.6-0.2-0.9-0.6c-0.3-0.3-0.4-0.6-0.4-0.9c0-0.2,0.2-0.2,0.5-0.3c0.8-0.1,1.3-0.2,1.7-0.3c0.9-0.2,1.8-0.5,2.6-1.1
			c0.7-0.4,1.3-0.9,1.8-1.4c-1.5,0-2.6,0.1-3.4,0.2c-0.5,0.1-0.9,0.2-1.1,0.2c-0.4,0-0.6-0.2-0.6-0.6c0-0.2,0.1-0.5,0.3-0.6
			c0.2-0.1,0.4-0.2,0.7-0.2h4.9c0-0.1,0-0.2,0-0.3c0-0.3,0-0.5,0-0.8c-1.2,0-2.1,0.1-2.7,0.2C86,10,85.8,10,85.7,10
			c-0.3,0-0.5-0.2-0.6-0.6c0-0.2,0.1-0.4,0.3-0.6c0.2-0.1,0.4-0.2,0.7-0.2h3c0-0.3,0-0.6,0-0.9c0-0.1,0-0.2,0-0.3
			c-1.6,0-2.8,0.1-3.5,0.2c-0.5,0.1-0.8,0.2-0.9,0.2c-0.3,0-0.5-0.2-0.6-0.6c0-0.2,0.1-0.4,0.3-0.6c0.2-0.1,0.4-0.2,0.7-0.2h2.3
			c0,0,0-0.1,0-0.1L86.9,5C86.9,4.6,87.1,4.4,87.4,4.4z M84.1,1.1c0.3,0.1,0.5,0.1,0.6,0.1c0.3,0,0.7-0.1,1.2-0.3
			c0.1,0,0.2,0.1,0.2,0.3c0,0.2-0.2,0.5-0.5,1c-0.3,0.5-0.6,0.7-0.9,0.7c-0.2,0-0.4-0.1-0.5-0.4C84.1,2.2,84,1.8,84,1.4
			C84,1.2,84,1.1,84.1,1.1z M93.6,0.8L93.6,0.8c0.5,0.2,0.8,0.3,1.1,0.4c0.2,0,0.4,0.1,0.7,0.1c0.1,0,0.2,0.1,0.2,0.3
			c0,0.2-0.1,0.5-0.4,0.7c-0.4,0.3-0.8,0.5-1.1,0.5c0,0-0.1,0-0.1-0.1c-0.1-0.1-0.3-0.6-0.6-1.4c0-0.1,0-0.1,0-0.2
			C93.4,0.9,93.5,0.8,93.6,0.8z"/>
		<path class="st0" d="M107.8,8.7c0,0.6-0.2,1.2-0.6,1.6c-0.4,0.4-0.9,0.6-1.4,0.6c-0.6,0-1-0.2-1.4-0.6c-0.4-0.4-0.6-0.9-0.6-1.6
			s0.2-1.2,0.6-1.6c0.4-0.4,0.8-0.6,1.4-0.6c0.5,0,1,0.2,1.4,0.5C107.6,7.5,107.8,8,107.8,8.7z"/>
		<path class="st0" d="M118.5,4.2c0.3,0,0.5,0.2,0.5,0.5c0,0.2-0.1,0.4-0.2,0.6c-0.5,0.7-1,1.4-1.6,2c0.1,0.2,0.2,0.4,0.2,0.7
			c-0.1,1-0.1,1.9-0.1,2.6l0.1,5c0,1-0.2,1.5-0.7,1.5c-0.4,0-0.6-0.5-0.6-1.5c0.1-2.1,0.1-3.8,0.1-5c0-0.7,0-1.4-0.1-2.2
			c-0.3,0.2-0.5,0.5-0.8,0.7c-0.5,0.4-1,0.6-1.3,0.6c-0.3,0-0.6-0.1-0.9-0.4c-0.3-0.3-0.5-0.6-0.5-0.9c0-0.2,0.1-0.4,0.4-0.4
			c1-0.3,1.9-0.7,2.7-1.3c0.9-0.6,1.7-1.4,2.4-2.4C118.4,4.3,118.5,4.2,118.5,4.2z M118.2,0.2c0.3,0,0.5,0.2,0.5,0.5
			c0,0.2,0,0.4-0.1,0.6c-0.8,1-1.8,2-2.9,2.8c-0.4,0.3-0.8,0.5-1.1,0.5c-0.3,0-0.6-0.1-0.8-0.4s-0.4-0.5-0.4-0.8
			c0-0.2,0.1-0.3,0.4-0.3c0.8-0.2,1.6-0.5,2.2-0.9c0.7-0.4,1.4-1,2-1.7C118.1,0.3,118.2,0.2,118.2,0.2z M124.4,6c0.8,0,1.8,0,3,0.1
			c0.9,0,1.6,0.1,2.2,0.1c0.4,0,0.9-0.1,1.5-0.2c0.1,0,0.2,0.2,0.2,0.5c0,0.5-0.2,1-0.5,1.6c-0.2,0.4-0.4,0.6-0.6,0.6
			c-0.3,0-0.6-0.1-1-0.4c-0.6-0.4-1.3-0.6-2.1-0.8c-0.3,0-0.5-0.1-0.8-0.1c0,0,0,0,0,0.1c0,0.1,0,0.3-0.1,0.5
			c-0.1,0.5-0.1,0.9-0.1,1.3c0.1,2.2,0.1,3.9,0.1,5c0,1.4-0.4,2.2-1.2,2.6c-0.5,0.2-1,0.3-1.4,0.3c-0.3,0-0.6-0.1-0.8-0.3
			c-0.3-0.3-0.4-0.6-0.4-1c0-0.2,0.1-0.3,0.3-0.4c0.9-0.1,1.5-0.2,1.8-0.4c0.3-0.2,0.5-0.4,0.6-0.7c0.1-0.3,0.1-0.9,0.1-1.8
			c0-1.1,0-2.1-0.1-3.2c0-1,0-1.6,0-1.8c0-0.1,0-0.3,0-0.4c-0.2,0-0.5,0-0.7,0c-0.9,0-1.7,0.1-2.5,0.2c-0.5,0.1-1.2,0.4-2.2,1
			c-0.5,0-0.7-0.2-0.7-0.6c0-0.3,0.1-0.5,0.3-0.7c0.2-0.3,0.6-0.5,1-0.5C122,6.2,123.4,6,124.4,6z M122.4,1.7h5.6
			c0.2,0,0.3,0.1,0.3,0.3c0,0.3-0.1,0.6-0.2,0.8c-0.2,0.2-0.4,0.3-0.7,0.3c-0.1,0-0.4-0.1-0.9-0.2c-0.5-0.1-1.1-0.1-1.7-0.1
			c-1,0-1.8,0.1-2.2,0.2c-0.3,0.1-0.4,0.2-0.5,0.2c-0.4,0-0.6-0.2-0.6-0.6c0-0.2,0.1-0.5,0.3-0.6C121.9,1.8,122.1,1.7,122.4,1.7z"/>
		<path class="st0" d="M135,2.1h6.6c0.2,0,0.3,0.1,0.3,0.3c0,0.3-0.1,0.6-0.2,0.8c-0.2,0.2-0.4,0.3-0.7,0.3c-0.2,0-0.5-0.1-1.1-0.2
			c-0.3,0-0.6,0-0.9,0l0,4c0.1,0,0.1,0,0.2,0h2.1c0.4,0,0.6,0.2,0.6,0.6c0,0.3-0.2,0.5-0.6,0.5c-1,0-1.7,0.1-2.2,0.2c0,0,0,0,0,0
			l0,4.4c1-0.1,1.8-0.2,2.5-0.3c0.5,0,0.7,0.2,0.7,0.6c0,0.4-0.1,0.6-0.4,0.7c-1.9,0.2-3.7,0.4-5.4,0.8c-0.8,0.2-1.5,0.4-2,0.6
			c-0.2,0.1-0.3,0.1-0.4,0.1c-0.5,0-0.7-0.2-0.7-0.6c0-0.5,0.3-0.9,0.8-1c0.3-0.1,0.5-0.1,0.7-0.1c0-0.1,0-0.2,0-0.2
			c0.1-0.8,0.1-1.6,0.1-2.4c0-0.8-0.1-1.9-0.2-3.2c0-0.4,0.2-0.7,0.7-0.7c0.4,0,0.6,0.2,0.6,0.7c0.1,0.6,0.1,2.2,0.1,4.8
			c0,0.3,0,0.6-0.1,0.9c0.7-0.1,1.3-0.2,1.9-0.3l-0.1-9.8c-1.1,0-1.9,0.1-2.4,0.3c-0.3,0.1-0.5,0.2-0.6,0.2c-0.4,0-0.7-0.3-0.7-0.8
			c0-0.2,0.1-0.4,0.3-0.6C134.4,2.1,134.7,2.1,135,2.1z M144.9,0.5c0.3,0,0.5,0.2,0.5,0.5c0,0.2-0.1,0.4-0.2,0.7
			c-0.2,0.8-0.5,1.5-0.8,2.1h5.9c0.2,0,0.3,0.1,0.3,0.3c0,0.3-0.1,0.6-0.2,0.8c-0.2,0.2-0.4,0.3-0.7,0.3c-0.2,0-0.5-0.1-1-0.2
			c-0.6-0.1-1.2-0.1-1.8-0.1c-1.1,0-1.9,0.1-2.4,0.2c-0.3,0.1-0.5,0.2-0.6,0.2c-0.1,0-0.1,0-0.1,0c-0.1,0.2-0.2,0.3-0.3,0.5
			c-0.3,0.5-0.5,0.7-0.7,0.7c-0.3,0-0.6-0.2-0.9-0.5c-0.3-0.3-0.5-0.6-0.5-0.9c0-0.2,0.1-0.4,0.4-0.4c0.5-0.3,1-0.7,1.4-1.4
			c0.5-0.6,0.9-1.5,1.3-2.7C144.7,0.5,144.8,0.5,144.9,0.5z M147.2,5.8c0.5,0,0.7,0.3,0.7,0.8c-0.1,0.7-0.2,1.5-0.2,2.4
			c-0.1,1.3-0.3,2.5-0.6,3.5c0,0,0,0,0,0c1.1,1,1.8,1.6,2.2,1.8c0.4,0.2,1,0.3,1.6,0.4c0.3,0,0.4,0.1,0.4,0.4c0,0.4-0.2,0.7-0.7,1.1
			c-0.5,0.4-0.9,0.6-1.4,0.6c-0.3,0-0.6-0.2-0.9-0.5c-0.6-0.8-1.2-1.6-1.8-2.4c-0.3,0.6-0.7,1-1,1.4c-0.9,1-1.7,1.4-2.4,1.4
			c-0.3,0-0.5-0.1-0.7-0.4c-0.3-0.4-0.5-0.8-0.5-1.2c0-0.2,0.1-0.3,0.4-0.4c0.8-0.2,1.5-0.4,2-0.7c0.5-0.3,1-0.7,1.4-1.3
			c-0.4-0.5-0.8-0.9-1.2-1.4c-0.6-0.7-1.1-1.1-1.6-1.5c-0.2-0.1-0.4-0.4-0.4-0.6c0-0.4,0.2-0.6,0.7-0.6c0.2,0,0.5,0.3,1,0.8
			c0.8,0.8,1.5,1.5,2.1,2.1c0-0.1,0-0.1,0.1-0.2c0.4-1.1,0.6-2.4,0.6-3.9c-0.1-0.4-0.1-0.8-0.1-1.1C146.6,6,146.8,5.8,147.2,5.8z"/>
		<path class="st0" d="M165,7.7c0,1.6-0.2,3.2-0.7,4.8c-0.7,2-1.6,3-2.7,3c-0.3,0-0.5-0.2-0.9-0.7c-0.3-0.5-0.4-0.9-0.4-1.2
			c0-0.2,0.3-0.3,0.9-0.3c0.7-0.1,1.1-0.3,1.3-0.5c0.5-0.5,0.9-1.4,1.2-2.8c0.2-1.1,0.3-2.2,0.3-3.2c0-1-0.4-1.4-1.3-1.4
			c-0.3,0-0.9,0-1.7,0.1c-0.4,1.8-0.9,3.3-1.3,4.4c-0.5,1.3-1.3,2.6-2.2,3.9c-0.8,1.1-1.4,1.7-1.8,1.7c-0.2,0-0.6-0.2-0.9-0.6
			c-0.4-0.4-0.6-0.6-0.6-0.9c0-0.1,0.1-0.3,0.3-0.4c0.2-0.1,0.5-0.3,0.9-0.6c1-0.7,1.8-1.5,2.5-2.5c0.8-1.2,1.5-2.9,2.2-4.9
			c-0.7,0.1-1.8,0.3-3.1,0.6c-0.3,0-0.5-0.2-0.5-0.6c0-0.7,0.6-1,1.9-1.1c0.3,0,1-0.1,2.1-0.1c0.2-0.8,0.3-1.6,0.3-2.6
			c0-0.5,0.2-0.8,0.6-0.8c0.4,0,0.6,0.2,0.6,0.7c0,0.2-0.1,1.1-0.4,2.6c0.7,0,1.1,0,1.4,0c0.9,0,1.6,0.3,2,0.9
			C164.9,5.7,165,6.5,165,7.7z M171.4,7c0,0.2-0.2,0.6-0.6,1.2c-0.4,0.5-0.7,0.8-0.9,0.8c-0.4,0-1-0.6-1.9-1.7
			c-0.8-1.1-1.2-1.9-1.2-2.4c0-0.2,0.1-0.4,0.2-0.4c0.1,0,0.3,0.2,0.7,0.6c0.4,0.4,0.9,0.8,1.5,1.2c0.5,0.3,1,0.5,1.6,0.5
			C171.2,6.7,171.4,6.8,171.4,7z M170.7,3.8c0,0.2-0.2,0.4-0.4,0.7c-0.2,0.3-0.4,0.5-0.5,0.5c-0.2,0-0.6-0.3-1.2-1s-0.8-1.1-0.8-1.3
			c0-0.2,0.1-0.3,0.2-0.3c0.1,0,0.3,0.1,0.7,0.4c0.5,0.4,1.1,0.6,1.7,0.6C170.5,3.5,170.6,3.6,170.7,3.8z M172.7,2.1
			c0,0.2-0.2,0.4-0.4,0.8c-0.2,0.3-0.4,0.5-0.5,0.5c-0.2,0-0.6-0.3-1.2-1c-0.6-0.6-0.8-1.1-0.8-1.4c0-0.2,0.1-0.3,0.2-0.3
			c0.1,0,0.3,0.1,0.7,0.4c0.5,0.4,1.1,0.6,1.7,0.6C172.5,1.8,172.6,1.9,172.7,2.1z"/>
		<path class="st0" d="M175.9,6.6c0.7,0,1.5,0.1,2.2,0.2c0.2-0.1,0.4-0.2,0.6-0.2c0.5,0,0.7,0.2,0.7,0.7c0,0.2-0.1,0.4-0.3,0.6
			c-0.4,0.8-0.8,1.6-1,2.4c-0.2,0.8-0.4,1.7-0.6,2.7c0.7,0.1,1.9,0.2,3.7,0.5c4.4,0.6,7.3,1,8.9,1c0.6,0,1-0.1,1.4-0.2
			c0.2-0.1,0.4-0.1,0.5-0.1c0.1,0,0.2,0.1,0.2,0.4c0,0.4-0.2,1-0.6,1.6c-0.4,0.6-0.7,0.9-1,0.9c-0.3,0-0.7-0.1-1-0.2
			c-4.5-1.2-7.6-1.9-9.3-2.3c-1.4-0.3-2.3-0.5-2.8-0.5c-0.5,0-1.1,0.5-1.8,1.5c-0.2,0.3-0.4,0.4-0.6,0.4c-0.4,0-0.6-0.2-0.6-0.6
			c0-0.2,0.5-0.8,1.4-1.9c0.1-0.2,0.3-0.4,0.5-0.5c0.3-2,0.7-3.7,1.2-5.2c0-0.1,0-0.2-0.1-0.2c-0.1,0-0.1,0-0.2,0
			c-0.6,0-1.1,0-1.6,0.1c-0.2,0-0.4,0.1-0.6,0.2c-0.3,0-0.5-0.2-0.5-0.6C174.7,6.9,175.1,6.6,175.9,6.6z M176.2,0.9l2.9,1.6
			c0.2,0.1,0.3,0.3,0.3,0.6c0,0.2-0.1,0.3-0.4,0.3l-2.9-0.7c-0.4-0.1-0.6-0.5-0.6-1.1C175.5,1.1,175.8,0.9,176.2,0.9z M181.6,1.7
			h3.4c0-0.3,0-0.6,0-0.8c0-0.6,0.2-0.8,0.6-0.8s0.6,0.3,0.6,0.8c0,0.3,0,0.6,0,0.8h4.2c0.1,0,0.2,0.1,0.2,0.2
			c0,0.3-0.1,0.5-0.2,0.7c-0.2,0.2-0.4,0.3-0.7,0.3c-0.2,0-0.7,0-1.5-0.1c-0.7,0-1.4,0-2.1,0c0,0.4,0,0.8,0,1.1h0.2
			c0.6,0,1.4,0,2.2,0.1c0.2,0,0.4-0.1,0.7-0.2c0.4,0,0.6,0.3,0.6,0.8l0,0.1c-0.1,0.2-0.1,0.5-0.1,0.9c-0.1,0.6-0.1,1.2-0.1,1.8
			c0,0.4,0,0.9,0.1,1.5c0,0.5-0.2,0.8-0.6,0.8c-1.1-0.1-2.1-0.2-3-0.2v1.1h4.5c0.2,0,0.3,0.1,0.3,0.3c0,0.3-0.1,0.6-0.2,0.8
			c-0.2,0.2-0.4,0.3-0.7,0.3c-0.2,0-0.8-0.1-1.7-0.2c-0.7,0-1.4-0.1-2.1-0.1v0.6c0,0.9-0.2,1.3-0.6,1.3c-0.3,0-0.5-0.4-0.5-1.3
			c0-0.2,0-0.4,0-0.7c-1.6,0-2.7,0.1-3.5,0.2c-0.4,0.1-0.7,0.2-0.8,0.2c-0.4,0-0.6-0.2-0.7-0.6c0-0.2,0.1-0.4,0.3-0.6
			c0.2-0.1,0.4-0.2,0.7-0.2h3.9c0-0.4,0-0.8,0-1.1c-0.9,0-1.5,0-1.8,0c-0.3,0-0.7,0.1-1.1,0.1c-0.4,0-0.6-0.2-0.6-0.7
			c0.1-0.9,0.2-1.7,0.2-2.4c0-0.6-0.1-1.4-0.2-2.3c0-0.4,0.2-0.7,0.6-0.7c0.2,0,0.4,0,0.6,0.1c0.2,0.1,0.5,0.1,0.8,0.1h1.6
			c0-0.4,0-0.7,0-1.1c-1.4,0-2.4,0.1-3,0.2c-0.4,0.1-0.7,0.1-0.8,0.1c-0.3,0-0.5-0.2-0.6-0.6c0-0.2,0.1-0.4,0.3-0.6
			C181.1,1.7,181.3,1.7,181.6,1.7z M185,8.4c0-0.4,0-0.9,0-1.3c-0.8,0-1.6,0.1-2.2,0.1c0,0,0,0-0.1,0c0,0.3-0.1,0.6-0.1,0.8
			c0,0.3,0.2,0.4,0.5,0.4C183.6,8.5,184.3,8.5,185,8.4z M182.8,6.2C182.8,6.2,182.8,6.2,182.8,6.2h2.2c0-0.4,0-0.8,0-1.2
			c-0.6,0-1.2,0-1.8,0c-0.3,0-0.4,0.2-0.4,0.5C182.8,5.7,182.8,6,182.8,6.2z M185.9,5l0,1.2h2.4c0,0,0.1,0,0.1,0V5.4
			c0-0.2-0.1-0.3-0.2-0.3C187.6,5,186.9,5,185.9,5z M186,7.2l0,1.3c0.7,0,1.4,0,2.1,0.1c0.2,0,0.3-0.1,0.3-0.3V7.1
			C187.5,7.1,186.7,7.1,186,7.2z"/>
		<path class="st0" d="M195.5,3.7h2.3c0-0.9,0-1.8,0-2.7c0-0.7,0.3-1,0.7-1c0.4,0,0.6,0.2,0.6,0.7c0,0.1,0,0.4-0.1,0.7
			c0,0.4-0.1,0.7-0.1,0.9c0,0.5,0,0.9,0,1.3h1.9c0.1,0,0.2,0.1,0.2,0.3c0,0.3-0.1,0.5-0.2,0.7c-0.2,0.2-0.4,0.3-0.7,0.3
			c-0.1,0-0.4,0-0.9-0.1c-0.1,0-0.3,0-0.4,0c0,1.2,0,2.4,0.1,3.4c0.7-0.2,1.2-0.4,1.6-0.5c0.2,0,0.3,0.1,0.3,0.4
			c0,0.4-0.1,0.6-0.4,0.6c-0.5,0.2-1,0.4-1.5,0.7c0,1.6,0.1,2.7,0.1,3.6c0,1.4-0.3,2.4-0.8,3.1c-0.5,0.5-1,0.8-1.7,0.8
			c-0.3,0-0.6-0.1-0.9-0.4c-0.2-0.2-0.2-0.5-0.2-0.7c0-0.2,0.1-0.4,0.4-0.5c1-0.3,1.5-0.6,1.7-1.1c0.2-0.4,0.2-0.9,0.2-1.6
			c0-0.9,0-1.8,0-2.7c-1,0.5-1.9,1-2.8,1.6c-0.4,0-0.6-0.2-0.6-0.6c0-0.4,0.1-0.6,0.2-0.8c0.1-0.2,0.2-0.4,0.5-0.5
			c1-0.4,1.9-0.8,2.7-1.1c0-1.1,0-2.3,0-3.4c0-0.1,0-0.3,0-0.5c0,0,0,0-0.1,0c-1,0-1.7,0.1-2.1,0.2c-0.3,0.1-0.4,0.2-0.5,0.2
			c-0.4,0-0.6-0.2-0.6-0.6c0-0.2,0.1-0.5,0.3-0.6C194.9,3.8,195.2,3.7,195.5,3.7z M202.7,10.3h5.9c0.1,0,0.2,0,0.3-0.1
			c0.1-0.1,0.3-0.1,0.4-0.1c0.4,0,0.5,0.3,0.6,0.7c0,0.1-0.1,0.2-0.2,0.3c-0.4,0.3-0.8,0.7-1.4,1.4c0,0.1,0.1,0.2,0.2,0.2h2.1
			c0.1,0,0.2,0,0.4,0c0.1,0,0.3,0,0.4,0c0.3,0,0.5,0.2,0.6,0.6c0,0,0,0.1-0.1,0.2c-0.1,0.1-0.2,0.3-0.3,0.4c-0.5,1-0.9,1.7-1.3,2.2
			c-0.3,0.4-0.7,0.7-1.2,0.9c-0.3,0.1-0.6,0.2-0.8,0.2c-0.3,0-0.6-0.2-0.9-0.5c-0.2-0.3-0.4-0.5-0.4-0.7c0-0.2,0.1-0.3,0.2-0.4
			c0.5,0,1-0.1,1.3-0.2c0.4-0.1,0.7-0.2,0.9-0.4c0.2-0.1,0.6-0.4,1-1c0-0.1-0.1-0.2-0.2-0.2c-1.6,0-2.5,0-2.7,0.1
			c-0.1,0.1-0.2,0.1-0.3,0.1c-0.4,0-0.5-0.2-0.6-0.6c0-0.1,0.1-0.2,0.2-0.4c0.4-0.5,0.7-1,1.1-1.5c0-0.1,0-0.1-0.1-0.1
			c-0.8,0-1.6,0-2.2,0c0,0,0,0.1,0,0.2c0,0,0,0.1-0.1,0.2c-0.2,0.8-0.6,1.7-1.1,2.7c-0.6,0.9-1.1,1.6-1.8,2.1
			c-0.4,0.3-0.7,0.5-1,0.5c-0.2,0-0.4-0.1-0.7-0.3c-0.3-0.3-0.5-0.6-0.5-1c0-0.3,0.2-0.4,0.6-0.5c0.7-0.1,1.4-0.5,2.1-1.2
			c0.6-0.7,1-1.6,1.4-2.6c-0.3,0-0.6,0-0.9,0c-0.6,0.1-1,0.2-1.1,0.2c-0.4,0-0.6-0.2-0.6-0.6c0-0.2,0.1-0.3,0.2-0.5
			C202.4,10.4,202.5,10.3,202.7,10.3z M204.5,0.4c0.3,0,0.5,0.2,0.5,0.5c0,0.1-0.1,0.2-0.2,0.5c-0.2,0.4-0.4,0.7-0.6,1.1
			c0,0,0.1,0,0.1,0h7.3c0.1,0,0.2,0.1,0.2,0.2c0,0.3-0.1,0.5-0.2,0.7c-0.2,0.2-0.4,0.3-0.7,0.3c-0.2,0-0.6,0-1.3-0.1
			c-0.6,0-1.2,0-1.9,0v0.9h3c0.1,0,0.2,0.1,0.2,0.2c0,0.2-0.1,0.5-0.2,0.6c-0.2,0.2-0.4,0.3-0.6,0.3c-0.2,0-0.6,0-1.2-0.1
			c-0.4,0-0.9,0-1.3,0l0,1h3.1c0.1,0,0.2,0.1,0.2,0.2c0,0.2-0.1,0.5-0.2,0.6c-0.2,0.2-0.4,0.3-0.6,0.3c-0.2,0-0.6,0-1.2-0.1
			c-0.4,0-0.9,0-1.4,0l0,1c0.5,0,0.9,0.1,1.3,0.1c0.7,0,1.1,0.1,1.3,0.1c0.6,0,1.2-0.1,1.7-0.2c0.2-0.1,0.3-0.1,0.4-0.1
			c0.1,0,0.2,0.2,0.2,0.5c0,0.3-0.1,0.7-0.4,1.1c-0.2,0.3-0.4,0.5-0.6,0.5c-0.2,0-0.5-0.1-0.8-0.2c-0.5-0.2-1-0.4-1.6-0.5
			c-1-0.2-1.9-0.2-2.9-0.2c-1,0-1.9,0.1-2.8,0.3c-0.1,0.1-0.3,0.2-0.5,0.2c-0.3,0-0.5-0.3-0.5-0.8c0.1-0.8,0.1-1.5,0.1-2.3
			c0-0.6,0-1.3-0.1-2.2c-0.2,0.1-0.3,0.2-0.5,0.2c-0.2,0-0.4-0.1-0.7-0.3c-0.2-0.2-0.3-0.4-0.4-0.6c0-0.1,0.1-0.1,0.2-0.2
			c0.5-0.2,1-0.5,1.3-0.9c0.5-0.5,1.1-1.1,1.7-2C204.4,0.4,204.4,0.4,204.5,0.4z M206.8,4.3l0-0.9c-1,0-1.7,0.1-2.1,0.1
			c-0.3,0.1-0.6,0.1-0.7,0.1c0,0,0,0-0.1,0c0,0.2,0,0.4,0,0.7c0.1,0,0.1,0,0.2,0H206.8z M206.8,6.3l0-1c-1.1,0-1.9,0-2.4,0.1
			c-0.2,0-0.4,0.1-0.5,0.1c0,0.3,0,0.6,0,0.9c0.1,0,0.1,0,0.2,0H206.8z M206.8,8.2V7.2c-1.1,0-1.8,0-2.3,0.1c-0.2,0-0.4,0.1-0.5,0.1
			c0,0.2,0,0.4,0,0.6c0,0.1,0,0.1,0,0.2c0.9,0,1.8-0.1,2.5-0.1C206.6,8.2,206.7,8.2,206.8,8.2z M208.1,0.4c0.3,0,0.5,0.2,0.5,0.5
			c0,0.3,0,0.5-0.1,0.6c-0.8,0.6-1.2,0.9-1.3,0.9c-0.2,0-0.3-0.1-0.3-0.3c0,0,0.2-0.5,0.6-1.4C207.7,0.5,207.9,0.4,208.1,0.4z"/>
		<path class="st0" d="M221.8,15.8c0,0.4-0.1,0.8-0.4,1.1c-0.3,0.3-0.6,0.4-1,0.4c-0.4,0-0.7-0.1-0.9-0.4c-0.2-0.3-0.4-0.6-0.4-1.1
			c0-0.9,0.4-1.4,1.3-1.4c0.4,0,0.7,0.1,1,0.4C221.7,15,221.8,15.3,221.8,15.8z M221.4,2.8c-0.1,0.5-0.2,2.1-0.2,4.9
			c0,2.4,0,3.8,0.1,4c0,0.7-0.3,1-0.9,1c-0.6,0-0.9-0.3-0.9-1c0-0.5,0-1.1,0.1-2c0.1-0.9,0.1-1.6,0.1-2c0-0.5,0-1.3-0.1-2.4
			c-0.1-1.1-0.1-1.9-0.1-2.5c0-0.7,0.3-1.1,0.9-1.1C221.1,1.8,221.4,2.1,221.4,2.8z"/>
	</g>
</g>
</svg>
