<?xml version="1.0" encoding="utf-8"?>
<!-- Generator: Adobe Illustrator 24.0.3, SVG Export Plug-In . SVG Version: 6.00 Build 0)  -->
<svg version="1.1" id="レイヤー_1" xmlns="http://www.w3.org/2000/svg" xmlns:xlink="http://www.w3.org/1999/xlink" x="0px"
	 y="0px" viewBox="0 0 237.4 17.3" style="enable-background:new 0 0 237.4 17.3;" xml:space="preserve">
<style type="text/css">
	.st0{fill:#503819;}
</style>
<g>
	<g>
		<path class="st0" d="M4.3,7.6c0.2,0,0.3,0.1,0.3,0.3c0,0.3-0.1,0.5-0.2,0.6L0.7,10C0.2,10,0,9.7,0,9.2c0-0.6,0.2-1,0.6-1L4.3,7.6z
			 M2.1,0.5c0.1,0,0.2,0.1,0.5,0.2C3.3,1.3,4,2,4.9,2.7C5,2.8,5.1,2.9,5.1,3c0,0.3-0.1,0.4-0.4,0.4c-0.1,0-0.2,0-0.4-0.1
			C3,2.7,2.2,2.4,1.9,2.2c-0.4-0.3-0.6-0.6-0.6-1C1.3,0.7,1.6,0.5,2.1,0.5z M4.7,13.1c0.2,0,0.3,0.1,0.3,0.4C5,13.6,5,13.8,4.9,14
			c-1.3,1.8-2.1,2.6-2.3,2.6c-0.6,0-0.9-0.2-0.9-0.6c0-0.5,0.1-0.9,0.3-1C2,14.9,2.9,14.3,4.7,13.1z M15.1,0.7
			c0.3,0,0.4,0.1,0.4,0.4c0,0.3-0.1,0.5-0.3,0.6C14,2.1,13,2.4,12,2.7l0,3.4c0.6,0,1.3,0,2.1,0.1c0.8,0,1.6,0.1,2.2,0.1
			c0.4,0,0.9-0.1,1.4-0.2c0.1,0,0.2,0.2,0.2,0.5c0,0.5-0.2,1-0.5,1.6c-0.2,0.4-0.4,0.6-0.6,0.6c-0.3,0-0.6-0.1-1-0.4
			c-0.6-0.4-1.3-0.6-2-0.8c-0.6-0.1-1.2-0.2-1.8-0.2l0,3.5h0c0.6,0,1.2,0,2,0.1c0.2,0,0.4-0.1,0.7-0.2c0.4,0,0.6,0.2,0.6,0.7
			c0,0,0,0.1,0,0.2c-0.1,0.2-0.1,0.5-0.1,0.9c0,0.6-0.1,1.2-0.1,1.8c0,0.4,0,0.9,0.1,1.6c0,0.5-0.2,0.8-0.6,0.8
			c-1.2-0.1-2.4-0.2-3.3-0.2c-1.2,0-1.9,0-2.2,0c-0.3,0-0.6,0.1-1,0.1c-0.4,0-0.6-0.2-0.6-0.7c0.1-0.9,0.2-1.7,0.2-2.4
			c0-0.6-0.1-1.4-0.2-2.4c0-0.4,0.2-0.6,0.6-0.6c0.2,0,0.4,0,0.6,0.1c0.2,0.1,0.5,0.1,0.9,0.1h1.3l0-3.5c-0.8,0-1.5,0.1-2.2,0.2
			c-0.5,0.1-1.3,0.4-2.3,1c-0.5,0-0.7-0.2-0.7-0.6c0-0.3,0.1-0.5,0.3-0.7c0.2-0.3,0.6-0.5,1-0.5c1.6-0.3,3-0.4,3.9-0.5l0-3
			c-0.3,0.1-0.7,0.2-1,0.2c-1,0.2-1.6,0.3-1.9,0.3c-0.4,0-0.7-0.2-1-0.5C6.7,2.9,6.6,2.7,6.6,2.4c0-0.2,0.1-0.3,0.3-0.3
			c1.9,0,3.4-0.2,4.7-0.5c1.2-0.2,2.3-0.5,3.1-0.8C14.9,0.7,15,0.7,15.1,0.7z M11.2,15.3c0.7,0,1.6,0,2.5,0.1c0.2,0,0.3-0.1,0.3-0.3
			v-3c0-0.2,0-0.3-0.1-0.3c-1.1,0-2.6-0.1-4.6-0.1c-0.3,0-0.4,0.2-0.4,0.5c0,1,0,1.9-0.1,2.8c0,0.3,0.2,0.4,0.5,0.4
			C9.8,15.4,10.5,15.3,11.2,15.3z"/>
		<path class="st0" d="M28.6,0.3c0.3,0,0.4,0.2,0.4,0.5c0,0.3-0.1,0.5-0.3,0.6c-1.1,0.3-2,0.5-2.9,0.6v1.4h3.6
			c0.2,0,0.3,0.1,0.3,0.3c0,0.3-0.1,0.6-0.2,0.8c-0.2,0.2-0.4,0.3-0.7,0.3c-0.2,0-0.7-0.1-1.5-0.2c-0.5,0-1-0.1-1.5-0.1v1.1
			c0.6,0,1.2,0,2,0.1c0.2,0,0.4,0,0.7-0.1c0.4,0,0.6,0.2,0.6,0.6c0,0,0,0.1-0.1,0.1C29,6.6,29,6.9,28.9,7.3c0,0.5-0.1,1.1-0.1,1.7
			c0,0.4,0,0.9,0.1,1.5c0,0.4-0.2,0.6-0.6,0.6c-0.9-0.1-1.8-0.2-2.6-0.2l0,1.1h2.8c0.1,0,0.2,0.1,0.2,0.3c0,0.3-0.1,0.5-0.2,0.6
			c-0.2,0.2-0.4,0.3-0.7,0.3c-0.1,0-0.5,0-1.1-0.1c-0.3,0-0.7,0-1.1,0v1.1c1.2-0.2,2.1-0.3,2.8-0.4c0.2,0,0.2,0.1,0.2,0.4
			c0,0.3-0.1,0.5-0.3,0.6c-2.5,0.5-4.9,1.1-7.1,1.8c-0.4,0-0.7-0.2-0.7-0.6c0-0.3,0.1-0.6,0.2-0.7c0.1-0.1,0.3-0.2,0.7-0.3
			c1.2-0.2,2.2-0.4,3.1-0.5v-1.3c-1,0-1.8,0.1-2.3,0.2c-0.3,0.1-0.5,0.2-0.6,0.2c-0.3,0-0.5-0.3-0.6-0.7c0-0.2,0.1-0.4,0.3-0.6
			c0.2-0.1,0.4-0.2,0.7-0.2h2.4V11c-1,0-1.7,0-2,0.1c-0.3,0-0.6,0.1-1,0.2c-0.4,0-0.6-0.2-0.6-0.6c0.1-0.9,0.2-1.6,0.2-2.3
			c0-0.6-0.1-1.3-0.2-2.2c0-0.4,0.2-0.6,0.6-0.6c0.2,0,0.4,0,0.6,0c0.2,0,0.5,0,0.9,0h1.5V4.6c-1.4,0-2.5,0.1-3.1,0.2
			c-0.4,0.1-0.6,0.2-0.8,0.2c-0.4,0-0.6-0.2-0.6-0.6c0-0.2,0.1-0.4,0.3-0.6c0.2-0.1,0.4-0.2,0.7-0.2h3.4l0-1.2
			c-0.3,0-0.5,0.1-0.8,0.1c-0.9,0.1-1.4,0.2-1.7,0.2c-0.3,0-0.6-0.1-0.9-0.4c-0.2-0.2-0.3-0.5-0.3-0.7c0-0.2,0.1-0.3,0.3-0.3
			c1.7,0,3.1-0.1,4.2-0.3c1.1-0.1,2.1-0.3,2.8-0.5C28.4,0.3,28.5,0.3,28.6,0.3z M24.6,10.1V8.9C23.8,9,23.1,9,22.5,9
			c-0.1,0-0.1,0-0.2,0c0,0.2,0,0.4-0.1,0.7c0,0.3,0.2,0.5,0.5,0.5C23.3,10.1,23.9,10.1,24.6,10.1z M22.4,7.9c0.1,0,0.1,0,0.2,0h2
			l0-1.2c-0.5,0-1.1,0-1.8,0c-0.3,0-0.4,0.1-0.4,0.4C22.4,7.4,22.4,7.7,22.4,7.9z M25.8,6.7l0,1.2h2c0,0,0.1,0,0.1,0V7
			c0-0.1-0.1-0.2-0.2-0.2C27.2,6.8,26.5,6.8,25.8,6.7z M25.8,8.9v1.2c0.5,0,1.1,0,1.7,0.1c0.2,0,0.3-0.1,0.3-0.4v-1
			C27.1,8.9,26.4,8.9,25.8,8.9z M32.9,5.2c0.2-1.5,0.3-2.9,0.4-4.1c0-0.4,0.2-0.6,0.6-0.6c0.4,0,0.6,0.2,0.6,0.7
			c0,0.1,0,0.4-0.1,0.9c-0.1,1.2-0.2,2.2-0.3,3.2h2.5c0.1,0,0.3-0.1,0.7-0.2c0.5,0,0.7,0.3,0.7,0.8c-0.3,1.8-0.5,3.6-0.6,5.4
			c-0.1,2.5-0.5,4.1-1.2,4.8c-0.5,0.7-1.2,1.1-2,1.1c-0.4,0-0.6-0.2-0.9-0.5C33.1,16.3,33,16,33,15.7c0-0.3,0.1-0.4,0.3-0.5
			c1.1-0.1,1.8-0.4,2.1-0.9c0.4-0.5,0.7-2.1,1-4.7c0.1-1.6,0.2-2.6,0.2-2.9c0-0.3-0.1-0.4-0.2-0.4h-2.5c-0.2,1.2-0.4,2.2-0.5,3
			c-0.3,1.5-0.7,3-1.3,4.3c-0.4,1.1-1,2.1-1.8,2.9C30,16.9,29.7,17,29.5,17c-0.2,0-0.4-0.1-0.7-0.4c-0.2-0.3-0.4-0.6-0.4-0.9
			c0-0.2,0.1-0.4,0.2-0.4c0.7-0.3,1.3-0.8,1.7-1.4c0.5-0.8,1-2,1.5-3.6c0.3-1.2,0.6-2.5,0.8-4c-0.5,0-1,0.1-1.4,0.2
			c-0.4,0.1-0.7,0.2-0.8,0.2c-0.3,0-0.5-0.2-0.5-0.5c0-0.5,0.2-0.8,0.6-0.9C31,5.2,31.7,5.2,32.9,5.2z"/>
		<path class="st0" d="M54.1,13.2c0,0.6-0.1,1.1-0.4,1.5c-0.3,0.4-0.7,0.7-1.1,0.8c-0.8,0.2-2.2,0.3-4.4,0.3c-4,0-6-1-6-3.1
			c0-1,0.4-1.9,1.1-2.8c0.1-0.2,0.8-0.9,2.1-2.1c-0.1-1-0.2-1.8-0.2-2.6V3c0-1.5,0.2-2.3,0.7-2.3c0.5,0,0.7,0.3,0.7,0.9
			c0,0.1,0,0.3-0.1,0.5c-0.1,0.3-0.1,0.5-0.1,0.6c-0.1,0.7-0.1,1.6-0.1,2.7c0,0.5,0,1.1,0.1,1.5c2-1.7,3.2-2.6,3.5-2.6
			c0.3,0,0.4,0.1,0.5,0.3c0.1,0.2,0.2,0.3,0.3,0.5c0,0.4-0.3,0.7-0.7,1c-0.9,0.5-1.8,1.1-2.7,1.6c-1.3,0.8-2.3,1.6-3,2.3
			c-0.9,0.9-1.4,1.8-1.4,2.7c0,1.1,0.9,1.7,2.6,1.7c1.1,0,2.5-0.1,4-0.3c1.3-0.2,2.4-0.5,3.3-0.8c0.4-0.2,0.7-0.2,0.9-0.2
			C54.1,12.9,54.1,13,54.1,13.2z"/>
		<path class="st0" d="M61.4,7.6c0.2,0,0.3,0.1,0.3,0.3c0,0.3-0.1,0.5-0.2,0.6L57.8,10c-0.5,0-0.7-0.2-0.7-0.7c0-0.6,0.2-1,0.6-1
			L61.4,7.6z M59.3,0.5c0.1,0,0.2,0.1,0.5,0.2c0.6,0.6,1.4,1.3,2.3,2c0.1,0.1,0.2,0.2,0.2,0.3c0,0.3-0.1,0.4-0.4,0.4
			c-0.1,0-0.2,0-0.4-0.1c-1.3-0.6-2.1-0.9-2.4-1.1c-0.4-0.3-0.6-0.6-0.6-1C58.5,0.7,58.7,0.5,59.3,0.5z M61.8,13.1
			c0.2,0,0.3,0.1,0.3,0.4c0,0.2-0.1,0.4-0.2,0.6c-1.3,1.8-2.1,2.6-2.3,2.6c-0.6,0-0.9-0.2-0.9-0.6c0-0.5,0.1-0.9,0.3-1
			C59.1,14.9,60,14.3,61.8,13.1z M72.3,0.7c0.3,0,0.4,0.1,0.4,0.4c0,0.3-0.1,0.5-0.3,0.6c-1.2,0.4-2.3,0.8-3.2,1.1l0,3.4
			c0.6,0,1.3,0,2.1,0.1c0.8,0,1.6,0.1,2.2,0.1c0.4,0,0.9-0.1,1.4-0.2C74.9,6,75,6.2,75,6.5c0,0.5-0.2,1-0.5,1.6
			c-0.2,0.4-0.4,0.6-0.6,0.6c-0.3,0-0.6-0.1-1-0.4c-0.6-0.4-1.3-0.6-2-0.8c-0.6-0.1-1.2-0.2-1.8-0.2l0,3.5h0c0.6,0,1.2,0,2,0.1
			c0.2,0,0.4-0.1,0.7-0.2c0.4,0,0.6,0.2,0.6,0.7c0,0,0,0.1,0,0.2c-0.1,0.2-0.1,0.5-0.1,0.9c0,0.6-0.1,1.2-0.1,1.8
			c0,0.4,0,0.9,0.1,1.6c0,0.5-0.2,0.8-0.6,0.8c-1.2-0.1-2.4-0.2-3.3-0.2c-1.2,0-1.9,0-2.2,0c-0.3,0-0.6,0.1-1,0.1
			c-0.4,0-0.6-0.2-0.6-0.7c0.1-0.9,0.2-1.7,0.2-2.4c0-0.6-0.1-1.4-0.2-2.4c0-0.4,0.2-0.6,0.6-0.6c0.2,0,0.4,0,0.6,0.1
			c0.2,0.1,0.5,0.1,0.9,0.1H68l0-3.5c-0.8,0-1.5,0.1-2.2,0.2c-0.5,0.1-1.3,0.4-2.3,1c-0.5,0-0.7-0.2-0.7-0.6c0-0.3,0.1-0.5,0.3-0.7
			c0.2-0.3,0.6-0.5,1-0.5c1.6-0.3,3-0.4,3.9-0.5l0-3c-0.3,0.1-0.7,0.2-1,0.2c-1,0.2-1.6,0.3-1.9,0.3c-0.4,0-0.7-0.2-1-0.5
			c-0.2-0.2-0.3-0.5-0.3-0.8c0-0.2,0.1-0.3,0.3-0.3c1.9,0,3.4-0.2,4.7-0.5C70,1.4,71,1.1,71.9,0.8C72,0.7,72.2,0.7,72.3,0.7z
			 M68.4,15.3c0.7,0,1.6,0,2.5,0.1c0.2,0,0.3-0.1,0.3-0.3v-3c0-0.2,0-0.3-0.1-0.3c-1.1,0-2.6-0.1-4.6-0.1c-0.3,0-0.4,0.2-0.4,0.5
			c0,1,0,1.9-0.1,2.8c0,0.3,0.2,0.4,0.5,0.4C66.9,15.4,67.6,15.3,68.4,15.3z"/>
		<path class="st0" d="M85.8,0.3c0.3,0,0.4,0.2,0.4,0.5c0,0.3-0.1,0.5-0.3,0.6c-1.1,0.3-2,0.5-2.9,0.6v1.4h3.6
			c0.2,0,0.3,0.1,0.3,0.3c0,0.3-0.1,0.6-0.2,0.8c-0.2,0.2-0.4,0.3-0.7,0.3c-0.2,0-0.7-0.1-1.5-0.2c-0.5,0-1-0.1-1.5-0.1v1.1
			c0.6,0,1.2,0,2,0.1c0.2,0,0.4,0,0.7-0.1c0.4,0,0.6,0.2,0.6,0.6c0,0,0,0.1-0.1,0.1c-0.1,0.2-0.1,0.4-0.1,0.8C86,7.9,86,8.4,86,9
			c0,0.4,0,0.9,0.1,1.5c0,0.4-0.2,0.6-0.6,0.6c-0.9-0.1-1.8-0.2-2.6-0.2l0,1.1h2.8c0.1,0,0.2,0.1,0.2,0.3c0,0.3-0.1,0.5-0.2,0.6
			c-0.2,0.2-0.4,0.3-0.7,0.3c-0.1,0-0.5,0-1.1-0.1c-0.3,0-0.7,0-1.1,0v1.1c1.2-0.2,2.1-0.3,2.8-0.4c0.2,0,0.2,0.1,0.2,0.4
			c0,0.3-0.1,0.5-0.3,0.6c-2.5,0.5-4.9,1.1-7.1,1.8c-0.4,0-0.7-0.2-0.7-0.6c0-0.3,0.1-0.6,0.2-0.7c0.1-0.1,0.3-0.2,0.7-0.3
			c1.2-0.2,2.2-0.4,3.1-0.5v-1.3c-1,0-1.8,0.1-2.3,0.2c-0.3,0.1-0.5,0.2-0.6,0.2c-0.3,0-0.5-0.3-0.6-0.7c0-0.2,0.1-0.4,0.3-0.6
			c0.2-0.1,0.4-0.2,0.7-0.2h2.4V11c-1,0-1.7,0-2,0.1c-0.3,0-0.6,0.1-1,0.2c-0.4,0-0.6-0.2-0.6-0.6c0.1-0.9,0.2-1.6,0.2-2.3
			c0-0.6-0.1-1.3-0.2-2.2c0-0.4,0.2-0.6,0.6-0.6c0.2,0,0.4,0,0.6,0c0.2,0,0.5,0,0.9,0h1.5V4.6c-1.4,0-2.5,0.1-3.1,0.2
			c-0.4,0.1-0.6,0.2-0.8,0.2c-0.4,0-0.6-0.2-0.6-0.6c0-0.2,0.1-0.4,0.3-0.6c0.2-0.1,0.4-0.2,0.7-0.2h3.4l0-1.2
			c-0.3,0-0.5,0.1-0.8,0.1c-0.9,0.1-1.4,0.2-1.7,0.2c-0.3,0-0.6-0.1-0.9-0.4C78.1,1.9,78,1.7,78,1.5c0-0.2,0.1-0.3,0.3-0.3
			c1.7,0,3.1-0.1,4.2-0.3c1.1-0.1,2.1-0.3,2.8-0.5C85.5,0.3,85.7,0.3,85.8,0.3z M81.7,10.1V8.9C80.9,9,80.2,9,79.6,9
			c-0.1,0-0.1,0-0.2,0c0,0.2,0,0.4-0.1,0.7c0,0.3,0.2,0.5,0.5,0.5C80.4,10.1,81,10.1,81.7,10.1z M79.5,7.9c0.1,0,0.1,0,0.2,0h2
			l0-1.2c-0.5,0-1.1,0-1.8,0c-0.3,0-0.4,0.1-0.4,0.4C79.5,7.4,79.5,7.7,79.5,7.9z M82.9,6.7l0,1.2h2c0,0,0.1,0,0.1,0V7
			c0-0.1-0.1-0.2-0.2-0.2C84.3,6.8,83.7,6.8,82.9,6.7z M82.9,8.9v1.2c0.5,0,1.1,0,1.7,0.1c0.2,0,0.3-0.1,0.3-0.4v-1
			C84.2,8.9,83.5,8.9,82.9,8.9z M90,5.2c0.2-1.5,0.3-2.9,0.4-4.1c0-0.4,0.2-0.6,0.6-0.6c0.4,0,0.6,0.2,0.6,0.7c0,0.1,0,0.4-0.1,0.9
			c-0.1,1.2-0.2,2.2-0.3,3.2h2.5c0.1,0,0.3-0.1,0.7-0.2c0.5,0,0.7,0.3,0.7,0.8c-0.3,1.8-0.5,3.6-0.6,5.4c-0.1,2.5-0.5,4.1-1.2,4.8
			c-0.5,0.7-1.2,1.1-2,1.1c-0.4,0-0.6-0.2-0.9-0.5c-0.2-0.3-0.2-0.6-0.2-0.9c0-0.3,0.1-0.4,0.3-0.5c1.1-0.1,1.8-0.4,2.1-0.9
			c0.4-0.5,0.7-2.1,1-4.7c0.1-1.6,0.2-2.6,0.2-2.9c0-0.3-0.1-0.4-0.2-0.4H91c-0.2,1.2-0.4,2.2-0.5,3c-0.3,1.5-0.7,3-1.3,4.3
			c-0.4,1.1-1,2.1-1.8,2.9c-0.3,0.3-0.5,0.5-0.8,0.5c-0.2,0-0.4-0.1-0.7-0.4c-0.2-0.3-0.4-0.6-0.4-0.9c0-0.2,0.1-0.4,0.2-0.4
			c0.7-0.3,1.3-0.8,1.7-1.4c0.5-0.8,1-2,1.5-3.6c0.3-1.2,0.6-2.5,0.8-4c-0.5,0-1,0.1-1.4,0.2c-0.4,0.1-0.7,0.2-0.8,0.2
			c-0.3,0-0.5-0.2-0.5-0.5c0-0.5,0.2-0.8,0.6-0.9C88.1,5.2,88.9,5.2,90,5.2z"/>
		<path class="st0" d="M111.8,6.1c0,0.3-0.3,0.6-0.8,1c-1.2,0.9-2.9,2-5.1,3.4c0,0.1,0,0.4,0,0.8c0,0.3,0,0.6,0,0.8
			c0,0.5-0.2,0.7-0.7,0.7c-0.3,0-0.4-0.2-0.5-0.6c0-0.1,0-0.4,0-1c-0.8,0.5-1.4,0.8-1.7,1.1c-0.7,0.6-1.1,1.1-1.1,1.7
			c0,0.4,0.3,0.6,1,0.8c0.5,0.1,1,0.2,1.5,0.2c1.5,0,2.8-0.3,4-0.8c0.9-0.4,1.4-0.6,1.4-0.6c0.1,0,0.2,0.1,0.2,0.4
			c0,0.5-0.1,1-0.4,1.5c-0.2,0.4-0.7,0.6-1.6,0.8c-0.7,0.1-1.4,0.1-2.3,0.1c-1.1,0-2.1-0.1-2.9-0.4c-1.3-0.4-1.9-1.1-1.9-2
			c0-0.8,0.5-1.6,1.4-2.4c0.1-0.2,0.9-0.7,2.2-1.7c0-0.9-0.1-1.4-0.1-1.6c-0.1-0.6-0.5-0.9-1.1-0.9c-0.7,0-1.4,0.2-1.9,0.5
			c-0.2,0.1-0.8,0.6-1.7,1.4c-0.1,0.1-0.2,0.2-0.4,0.3c-0.4,0-0.6-0.3-0.6-0.9c0-0.4,0.4-0.9,1.2-1.4c1.1-0.8,2.1-1.8,3-3.2
			c-0.4,0.1-1.1,0.2-2,0.3c0,0-0.3,0.1-0.8,0.2c-0.4,0.1-0.6,0.2-0.8,0.2c-0.3,0-0.5-0.2-0.5-0.7c0-0.6,0.4-0.9,1.2-1
			c0.7,0,1.9-0.1,3.3-0.1c0.1-0.3,0.4-0.9,0.8-1.9c0.2-0.5,0.4-0.7,0.8-0.7c0.5,0,0.7,0.2,0.7,0.7c0,0.2-0.3,0.8-0.9,1.9
			c0.4,0,1.1,0,1.9,0c0.9,0,1.5,0,1.9,0c0.1,0,0.3,0,0.5,0c0.2,0,0.4-0.1,0.5-0.1c0.1,0,0.2,0.1,0.2,0.2c0,0.3-0.2,0.6-0.4,1
			c-0.3,0.4-0.5,0.6-0.8,0.6c-0.2,0-0.5-0.1-0.8-0.2c-0.3-0.1-0.5-0.1-0.8-0.2c-0.6-0.2-1.6-0.3-2.8-0.3c-0.6,1-1.3,1.9-1.9,2.6
			c0.5-0.1,1-0.1,1.4-0.1c1.1,0,1.8,0.8,1.8,2.3c0,0.2,0,0.3,0.1,0.4c1.8-1.3,3.3-2.4,4.4-3.3c0.4-0.3,0.7-0.4,0.9-0.4
			C111.6,5.4,111.8,5.7,111.8,6.1z"/>
		<path class="st0" d="M124.5,6c1.1,0,2.4,0.1,3.9,0.2c1.1,0.1,2.1,0.1,2.9,0.1c0.4,0,0.9-0.1,1.5-0.3c0.1,0,0.1,0.2,0.1,0.5
			c0,0.5-0.2,1.1-0.5,1.6c-0.2,0.4-0.4,0.6-0.6,0.6c-0.4,0-0.8-0.1-1.3-0.4c-0.8-0.4-1.7-0.8-2.7-0.9c-1-0.2-2.2-0.3-3.5-0.3
			c-0.5,0-1.1,0-1.6,0c-0.3,0.6-0.7,1.3-1.1,2c-1.1,1.4-2.2,2.5-3.3,3.3c-0.8,0.5-1.4,0.8-1.9,0.8c-0.2,0-0.5-0.1-0.7-0.3
			c-0.3-0.3-0.4-0.7-0.4-1c0-0.2,0.2-0.4,0.6-0.5c1.5-0.2,2.9-1,4.2-2.2c0.6-0.6,1.1-1.3,1.6-2c-0.4,0-0.9,0.1-1.3,0.1
			c-0.8,0.1-2,0.5-3.6,1.3c-0.5,0-0.7-0.2-0.7-0.7c0-0.3,0.1-0.5,0.3-0.7c0.2-0.3,0.6-0.5,1-0.5c1.9-0.4,3.6-0.6,5-0.7
			c0.3-0.5,0.5-1.1,0.7-1.7c0-0.2,0.2-0.3,0.4-0.3c0.4,0,0.6,0.2,0.6,0.7c0,0-0.1,0.1-0.1,0.3c-0.1,0.3-0.2,0.6-0.4,1
			C123.8,6,124.1,6,124.5,6z M117.1,1.7h3.6L120.6,1c0-0.4,0.2-0.6,0.6-0.6c0.4,0,0.6,0.2,0.6,0.7v0.6h4.4l0.1-0.6
			c0-0.6,0.2-0.8,0.6-0.8c0.4,0,0.6,0.2,0.6,0.7l-0.2,0.7h4.3c0.2,0,0.3,0.1,0.3,0.3c0,0.3-0.1,0.6-0.2,0.8
			c-0.2,0.2-0.4,0.3-0.7,0.3c-0.4,0-1.3-0.1-2.7-0.2c-0.4,0-0.8,0-1.2,0l-0.2,1c-0.1,0.3-0.3,0.4-0.5,0.4c-0.3,0-0.4-0.2-0.4-0.6
			l0.1-0.8c-0.8,0-1.7,0-2.5,0c-0.6,0-1.2,0-1.8,0v0.8c0,0.4-0.1,0.6-0.4,0.6c-0.3,0-0.4-0.2-0.5-0.6l-0.1-0.7
			c-1.2,0-2.2,0.1-2.9,0.2c-0.7,0.1-1.1,0.2-1.3,0.2c-0.4,0-0.7-0.3-0.7-0.7c0-0.2,0.1-0.5,0.3-0.6C116.5,1.8,116.8,1.7,117.1,1.7z
			 M121.8,10.4c0.2,0,0.4,0,0.6,0.1c0.2,0.1,0.5,0.1,0.9,0.1h2.5c0.6,0,1.2,0,2,0.1c0.2,0,0.4-0.1,0.7-0.2c0.4,0,0.6,0.2,0.6,0.7
			c0,0,0,0.1,0,0.2c-0.1,0.2-0.1,0.5-0.1,0.9c0,0.6-0.1,1.2-0.1,1.8c0,0.4,0,0.9,0.1,1.6c0,0.5-0.2,0.7-0.6,0.7
			c-1.3-0.1-2.5-0.2-3.5-0.2c-1.1,0-1.8,0-2.1,0.1c-0.2,0-0.6,0.1-0.9,0.1c-0.4,0-0.6-0.2-0.6-0.6c0.1-0.9,0.2-1.7,0.2-2.4
			c0-0.6-0.1-1.4-0.2-2.4C121.3,10.6,121.5,10.4,121.8,10.4z M124.9,15.1c0.8,0,1.7,0,2.6,0.1c0.2,0,0.3-0.1,0.3-0.3v-3
			c0-0.2-0.1-0.3-0.2-0.3c-1-0.1-2.6-0.1-4.6-0.1c-0.3,0-0.4,0.2-0.4,0.5c0,1-0.1,1.9-0.2,2.8c0,0.3,0.2,0.4,0.5,0.4
			C123.5,15.2,124.1,15.1,124.9,15.1z"/>
		<path class="st0" d="M140.9,2.4h2.8l-0.1-1.5c0-0.5,0.2-0.7,0.7-0.7c0.5,0,0.7,0.2,0.7,0.7L145,2.4h3.3c0.1,0,0.1,0,0.2,0.1
			c0.3-0.4,0.7-0.9,1-1.3c0.1-0.1,0.2-0.1,0.4-0.1c0.3,0,0.5,0.3,0.5,0.6c0,0.2,0,0.3-0.1,0.4c-1,1.3-2,2.4-2.8,3.3
			c0.4,0,0.7,0.1,1.1,0.1c1.2,0.1,2.3,0.2,3.1,0.2c0.4,0,1-0.1,1.6-0.3c0.1,0,0.2,0.2,0.2,0.5c0,0.5-0.2,1-0.5,1.6
			c-0.2,0.4-0.5,0.6-0.7,0.6c-0.4,0-0.8-0.1-1.3-0.4C150,7.2,149,6.9,148,6.7c-0.5-0.1-1.1-0.1-1.6-0.2c-0.8,0.8-1.6,1.5-2.2,1.9
			c-0.2,0.2-0.5,0.4-0.7,0.5c0.1,0,0.3,0,0.5,0h2.2c0.5,0,1.1,0,1.7,0.1c0.2,0,0.4-0.1,0.7-0.2c0.4,0,0.6,0.3,0.6,0.8
			c0,0,0,0.1,0,0.2c-0.1,0.2-0.1,0.6-0.1,1.2c0,0.8-0.1,1.6-0.1,2.5c0,0.6,0,1.3,0.1,2.3c0,0.6-0.2,0.8-0.6,0.8
			c-1.1-0.2-2-0.3-2.9-0.3c-1.1,0-1.8,0-2.1,0.1c-0.3,0-0.6,0.1-0.9,0.2c-0.4,0-0.6-0.2-0.6-0.7c0.1-1.2,0.2-2.3,0.2-3.2
			c0-0.8,0-1.8-0.1-2.9c-1.2,0.7-2.5,1.3-3.8,1.8c-0.6,0.3-1.1,0.4-1.5,0.4c-0.4,0-0.8-0.2-1-0.5c-0.3-0.3-0.4-0.6-0.4-0.9
			c0-0.2,0.1-0.4,0.3-0.4c2.4-0.4,4.3-0.9,5.7-1.6c1.1-0.5,2.3-1.3,3.4-2.2c-0.1,0-0.3,0-0.4,0c-1.4,0-2.7,0.1-4,0.2
			c-0.8,0.1-1.9,0.5-3.5,1.1c-0.4,0-0.6-0.2-0.6-0.6c0-0.3,0.1-0.5,0.3-0.7c0.2-0.3,0.5-0.5,0.9-0.5c2.7-0.4,4.8-0.6,6.3-0.6
			l-0.1-1.8c-1.2,0-2,0.1-2.6,0.2c-0.3,0.1-0.6,0.2-0.7,0.2c-0.4,0-0.6-0.2-0.6-0.6c0-0.2,0.1-0.4,0.3-0.6
			C140.4,2.5,140.6,2.4,140.9,2.4z M145.6,15.2c0.6,0,1.3,0,2,0.1c0.2,0,0.3-0.1,0.3-0.4v-1.9c-1.9,0-3.5,0.1-4.5,0.2
			c0,0-0.1,0-0.1,0c0,0.5,0,1.1-0.1,1.6c0,0.3,0.2,0.5,0.5,0.5C144.2,15.3,144.9,15.2,145.6,15.2z M143.3,12.1c0.1,0,0.1,0,0.2,0
			h4.4v-1.6c0-0.2,0-0.3-0.1-0.3c-0.9-0.1-2.3-0.1-4-0.1c-0.3,0-0.4,0.2-0.4,0.5C143.4,11.1,143.4,11.6,143.3,12.1z M146,5.4
			c0.5-0.5,1.1-1.1,1.6-1.7c-0.2,0-0.6,0-1.2-0.1c-0.4,0-0.9,0-1.4,0l-0.1,1.8C145.2,5.3,145.6,5.3,146,5.4z"/>
		<path class="st0" d="M166.2,7.8c0,1.6-0.2,3.2-0.7,4.8c-0.7,2-1.6,3-2.7,3c-0.3,0-0.5-0.2-0.9-0.7c-0.3-0.5-0.4-0.9-0.4-1.2
			c0-0.2,0.3-0.3,0.9-0.3c0.7-0.1,1.1-0.3,1.3-0.5c0.5-0.5,0.9-1.4,1.2-2.8c0.2-1.1,0.3-2.2,0.3-3.2c0-1-0.4-1.4-1.3-1.4
			c-0.3,0-0.9,0-1.7,0.1c-0.4,1.8-0.9,3.3-1.3,4.4c-0.5,1.3-1.3,2.6-2.2,3.9c-0.8,1.1-1.4,1.7-1.8,1.7c-0.2,0-0.6-0.2-0.9-0.6
			c-0.4-0.4-0.6-0.6-0.6-0.9c0-0.1,0.1-0.3,0.3-0.4c0.2-0.1,0.5-0.3,0.9-0.6c1-0.7,1.8-1.5,2.5-2.5c0.8-1.2,1.5-2.9,2.2-4.9
			c-0.7,0.1-1.8,0.3-3.1,0.6c-0.3,0-0.5-0.2-0.5-0.6c0-0.7,0.6-1,1.9-1.1c0.3,0,1-0.1,2.1-0.1c0.2-0.8,0.3-1.6,0.3-2.6
			c0-0.5,0.2-0.8,0.6-0.8c0.4,0,0.6,0.2,0.6,0.7c0,0.2-0.1,1.1-0.4,2.6c0.7,0,1.1,0,1.4,0c0.9,0,1.6,0.3,2,0.9
			C166.1,5.7,166.2,6.6,166.2,7.8z M172.6,7c0,0.2-0.2,0.6-0.6,1.2c-0.4,0.5-0.7,0.8-0.9,0.8c-0.4,0-1-0.6-1.9-1.7S168,5.4,168,4.9
			c0-0.2,0.1-0.4,0.2-0.4c0.1,0,0.3,0.2,0.7,0.6c0.4,0.4,0.9,0.8,1.5,1.2c0.5,0.3,1,0.5,1.6,0.5C172.4,6.8,172.6,6.9,172.6,7z
			 M171.9,3.8c0,0.2-0.2,0.4-0.4,0.7c-0.2,0.3-0.4,0.5-0.5,0.5c-0.2,0-0.6-0.3-1.2-1c-0.6-0.7-0.8-1.1-0.8-1.3
			c0-0.2,0.1-0.3,0.2-0.3c0.1,0,0.3,0.1,0.7,0.4c0.5,0.4,1.1,0.6,1.7,0.6C171.7,3.5,171.8,3.6,171.9,3.8z M173.8,2.1
			c0,0.2-0.2,0.4-0.4,0.8c-0.2,0.3-0.4,0.5-0.5,0.5c-0.2,0-0.6-0.3-1.2-1c-0.6-0.6-0.8-1.1-0.8-1.4c0-0.2,0.1-0.3,0.2-0.3
			c0.1,0,0.3,0.1,0.7,0.4c0.5,0.4,1.1,0.6,1.7,0.6C173.7,1.9,173.8,2,173.8,2.1z"/>
		<path class="st0" d="M190.6,8.3c0,1.3-0.4,2.5-1.3,3.7c-0.8,1-1.7,1.8-2.8,2.4c-1.4,0.7-2.4,1-3,1c-0.3,0-0.6-0.2-1-0.6
			c-0.4-0.4-0.6-0.8-0.6-1.1c0-0.2,0.2-0.3,0.6-0.3c1.4-0.2,2.5-0.4,3.3-0.7c1.2-0.4,2.1-1.1,2.8-2c0.6-0.8,0.9-1.6,0.9-2.3
			c0-2-1.2-3-3.5-3c-2.3,0-5,0.6-8,1.8c-0.4,0.2-0.7,0.3-0.8,0.3c-0.4,0-0.6-0.3-0.6-0.8c0-0.7,0.5-1.1,1.4-1.4c2.4-0.7,4.9-1,7.5-1
			c2.3,0,3.9,0.7,4.7,2C190.4,6.7,190.6,7.5,190.6,8.3z"/>
		<path class="st0" d="M204.1,3.7c0,0.2-0.1,0.4-0.2,0.7c-0.1,0.3-0.3,0.4-0.4,0.5c-0.9-0.2-1.7-0.3-2.4-0.3c-0.1,0-0.3,0-0.4,0
			c-0.2,0-0.3,0-0.4,0c-0.3,1.7-0.7,3.2-1.2,4.7c-1.4,4.1-2.5,6.2-3.2,6.2c-0.2,0-0.5-0.1-0.9-0.3c-0.4-0.2-0.6-0.4-0.6-0.6
			c0-0.1,0.3-0.5,0.8-1.2c0.9-1.1,1.8-2.5,2.5-4.1c0.8-1.7,1.3-3.2,1.6-4.7c-0.5,0-1.3,0.2-2.3,0.4c-0.8,0.3-1.2,0.4-1.1,0.4
			c-0.3,0-0.5-0.2-0.5-0.5c0-0.3,0.1-0.6,0.2-0.7c0.1-0.2,0.8-0.3,1.9-0.5c0.7,0,1.4-0.1,2.1-0.2c0.1-0.6,0.2-1.4,0.2-2.1
			c0-0.6,0.2-0.9,0.6-0.9c0.4,0,0.6,0.2,0.6,0.6c0,0.2-0.1,0.9-0.4,2.3c1.5-0.1,2.6-0.1,3.2-0.1C203.9,3.4,204.1,3.5,204.1,3.7z
			 M209.3,14.2c-0.1,0.3-0.3,0.6-0.6,1.1c-0.3,0.5-0.6,0.7-0.8,0.7c-0.1,0-0.6-0.3-1.6-1c-1.1-0.8-1.7-1.2-1.8-1.3
			c-0.2,1.6-1.2,2.5-2.9,2.5c-0.7,0-1.3-0.2-1.9-0.6c-0.6-0.5-0.9-1.1-0.9-1.8c0-1.5,1-2.3,2.9-2.3c0.5,0,1.1,0.1,1.7,0.4v-1.2
			c0-0.5,0-1-0.1-1.4c0-0.1,0-0.4-0.1-0.7c0-0.3-0.1-0.5-0.1-0.7c0-0.5,0.2-0.8,0.6-0.8c0.3,0,0.5,0.3,0.5,1c0,1,0.1,2.4,0.2,4.3
			c0.7,0.3,1.4,0.6,2.1,0.8c0.8,0.3,1.5,0.5,2.1,0.6c0.1,0,0.3,0.1,0.3,0.1C209.2,14.1,209.2,14.1,209.3,14.2z M203.3,13.2
			c-1-0.4-1.8-0.6-2.3-0.6c-1,0-1.5,0.4-1.5,1.2c0,0.8,0.5,1.2,1.6,1.2C202.4,15.1,203.2,14.5,203.3,13.2z M209.3,6.1
			c0,0.3-0.1,0.7-0.3,1.1c-0.3,0.5-0.5,0.7-0.7,0.7c-0.5,0-1.2-0.4-2-1.2c-0.8-0.8-1.2-1.6-1.2-2.2c0-0.2,0.1-0.3,0.2-0.3
			c0.5,0.3,1,0.6,1.6,1c0.5,0.3,1,0.4,1.7,0.5C209.1,5.8,209.3,6,209.3,6.1z"/>
		<path class="st0" d="M223.9,14.9c0,0.3-0.3,0.7-0.9,1.2c-0.6,0.5-1,0.7-1.3,0.7c-0.1,0-0.4-0.3-0.8-1c-0.7-1.1-1.6-2.2-2.5-3.2
			c-1-1-2.2-2-3.6-3c-0.4-0.3-0.7-0.5-0.7-0.8c0-0.2,0.4-0.7,1.1-1.3c0.8-0.7,1.7-1.7,2.5-2.8c0.4-0.6,1.1-1.7,2-3.3
			c0.2-0.4,0.5-0.6,0.9-0.6c0.5,0,0.8,0.3,0.8,0.9c0,0.4-0.7,1.5-2.1,3.1c-1.1,1.3-2.1,2.2-2.8,2.9c-0.3,0.2-0.6,0.6-1.1,1
			c2.4,1.6,4.2,3,5.4,4.1c0.6,0.5,1,0.9,1.3,1.1c0.5,0.4,1,0.6,1.4,0.8C223.6,14.7,223.7,14.7,223.9,14.9z M226,3.1
			c0,0.2-0.2,0.4-0.4,0.7c-0.2,0.3-0.4,0.5-0.5,0.5c-0.2,0-0.6-0.3-1.2-1c-0.6-0.7-0.8-1.1-0.8-1.3c0-0.2,0.1-0.3,0.2-0.3
			c0.1,0,0.3,0.1,0.7,0.4c0.6,0.4,1.1,0.6,1.7,0.6C225.9,2.8,226,2.9,226,3.1z M228.3,1.4c0,0.2-0.2,0.4-0.4,0.8
			c-0.2,0.3-0.4,0.5-0.5,0.5c-0.2,0-0.6-0.3-1.2-1c-0.6-0.7-0.8-1.1-0.8-1.4c0-0.2,0.1-0.3,0.2-0.3c0.1,0,0.3,0.2,0.7,0.5
			c0.5,0.3,1.1,0.5,1.7,0.6C228.2,1.1,228.3,1.2,228.3,1.4z"/>
		<path class="st0" d="M237.4,15.8c0,0.4-0.1,0.8-0.4,1.1c-0.3,0.3-0.6,0.4-1,0.4c-0.4,0-0.7-0.1-0.9-0.4c-0.2-0.3-0.4-0.6-0.4-1.1
			c0-0.9,0.4-1.4,1.3-1.4c0.4,0,0.7,0.1,1,0.4C237.2,15,237.4,15.4,237.4,15.8z M237,2.9c-0.1,0.5-0.2,2.1-0.2,4.9
			c0,2.4,0,3.8,0.1,4c0,0.7-0.3,1-0.9,1c-0.6,0-0.9-0.3-0.9-1c0-0.5,0-1.1,0.1-2c0.1-0.9,0.1-1.6,0.1-2c0-0.5,0-1.3-0.1-2.4
			c-0.1-1.1-0.1-1.9-0.1-2.5c0-0.7,0.3-1.1,0.9-1.1C236.6,1.8,237,2.2,237,2.9z"/>
	</g>
</g>
<g>
	<g>
		<path class="st0" d="M605.4,3C605.7,3,606,3,606.1,3c0.8,0,1.8-0.4,3.1-1.1c0.2,0,0.2,0.1,0.2,0.3c0,0.3-0.4,0.8-1.2,1.6
			c-0.8,0.8-1.5,1.3-2.1,1.3c-0.3,0-0.5-0.2-0.7-0.5c-0.2-0.4-0.3-0.8-0.3-1.3C605.1,3.1,605.2,3,605.4,3z M613.2,0.7
			c0.5,0,0.8,0.3,0.8,0.8l-0.1,5.6l4,0.1c0.2,0,0.5,0,1-0.1c0.5,0,0.8,0.2,0.8,0.6c-0.2,2.3-0.3,4.7-0.3,7.2c0,0.6-0.3,0.8-0.7,0.8
			c-1.3-0.1-3-0.2-5.1-0.2c-2.2,0-4.1,0.1-5.7,0.3c-0.4,0-0.6-0.2-0.6-0.6c0-0.5,0.1-0.7,0.4-0.8c1.1-0.1,2.8-0.2,4.9-0.2
			c1.3,0,3,0,5.3,0.1c0.3,0,0.4-0.3,0.4-0.8c0-0.6,0-1.2,0-1.7c0,0,0,0,0,0c-4.4,0-7.8,0.1-10.3,0.2c-0.4,0-0.6-0.2-0.6-0.6
			c0-0.4,0.3-0.7,0.8-0.7h10.1c0,0,0,0,0,0c0-0.8,0-1.5,0-2.1c0-0.2-0.1-0.4-0.4-0.4c-0.8-0.1-2.3-0.1-4.5-0.1
			c-1.7,0-3.6,0.1-5.7,0.3c-0.3,0-0.5-0.2-0.5-0.6c0-0.5,0.2-0.8,0.6-0.8l4.9-0.1l-0.1-5.6C612.5,1,612.7,0.7,613.2,0.7z M617.1,1.8
			c0,0,0.1,0,0.1,0.1c0.9,0.6,1.7,1,2.2,1.2c0.4,0.2,0.9,0.3,1.5,0.3c0.2,0,0.2,0.1,0.2,0.3c0,0.3-0.1,0.6-0.4,0.9
			c-0.6,0.4-1,0.6-1.3,0.6c-0.2,0-0.3-0.1-0.5-0.2c-0.3-0.2-1-1-2-2.5c-0.1-0.1-0.1-0.2-0.1-0.3C616.9,2,617,1.8,617.1,1.8z"/>
		<path class="st0" d="M624.9,5.1h2.2c0-1.2,0-2.6-0.1-4c0-0.6,0.2-0.9,0.6-0.9s0.6,0.3,0.6,0.9c0,1.5-0.1,2.8-0.1,4h2.6
			c0.2,0,0.3,0.1,0.3,0.3c0,0.3-0.1,0.6-0.2,0.8c-0.2,0.2-0.4,0.3-0.7,0.3c-0.1,0-0.5-0.1-1-0.2c-0.3,0-0.6,0-0.9,0l0.1,9.6
			c0,1-0.2,1.5-0.7,1.5c-0.4,0-0.6-0.5-0.6-1.5c0-4,0.1-7.2,0.1-9.6c-0.9,0-1.6,0.1-2,0.2c-0.3,0.1-0.4,0.2-0.5,0.2
			c-0.4,0-0.6-0.3-0.7-0.7c0-0.2,0.1-0.4,0.3-0.6C624.4,5.2,624.6,5.1,624.9,5.1z M632,10.6c0.1-0.3,0.1-0.6,0.1-0.9
			c0-0.4,0.2-0.6,0.5-0.6c0.1,0,0.3,0.1,0.4,0.2c0.1,0.2,0.2,0.3,0.2,0.4l0,0.1c0,0.2-0.1,0.5-0.1,0.8h1.4c0.1,0,0.3-0.1,0.6-0.2
			c0.4,0,0.7,0.2,0.7,0.7c-0.2,0.9-0.4,1.9-0.4,2.8c-0.1,1.3-0.4,2.1-0.9,2.5c-0.4,0.4-0.9,0.6-1.4,0.6c-0.3,0-0.6-0.1-0.8-0.4
			c-0.1-0.3-0.2-0.5-0.2-0.7c0-0.3,0.1-0.4,0.3-0.5c0.7,0,1.1-0.2,1.3-0.4c0.3-0.2,0.5-0.9,0.6-1.9c0.1-0.7,0.1-1.1,0.1-1.2
			c0-0.2-0.1-0.4-0.2-0.4h-1.5c-0.2,1.1-0.6,2.2-1,3c-0.3,0.6-0.6,1.2-0.9,1.6c-0.4,0.5-0.7,0.7-0.9,0.7c-0.2,0-0.4-0.1-0.7-0.4
			c-0.2-0.3-0.3-0.5-0.3-0.7c0-0.2,0.1-0.3,0.4-0.4c0.4-0.1,0.7-0.4,1.1-0.9c0.4-0.4,0.8-1.2,1.2-2.3c0.1-0.2,0.1-0.4,0.2-0.6
			c-0.3,0-0.6,0.1-0.8,0.1c-0.3,0.1-0.5,0.2-0.6,0.2c-0.3,0-0.5-0.2-0.5-0.5c0-0.5,0.2-0.8,0.6-0.8C630.6,10.6,631.1,10.6,632,10.6z
			 M635.1,2.3c0.1-0.5,0.2-1,0.3-1.5c0-0.4,0.2-0.6,0.5-0.6c0.1,0,0.2,0.1,0.3,0.2c0.1,0.2,0.2,0.3,0.2,0.4l0,0.1
			c-0.1,0.3-0.2,0.8-0.3,1.4h2.8c0.1,0,0.3-0.1,0.6-0.2c0.4,0,0.7,0.2,0.7,0.7c-0.2,0.9-0.4,1.9-0.5,2.8c-0.1,1.3-0.4,2.1-0.9,2.5
			c-0.4,0.4-1,0.6-1.6,0.6c-0.3,0-0.6-0.1-0.8-0.4c-0.1-0.3-0.2-0.5-0.2-0.7c0-0.3,0.1-0.4,0.3-0.5c0.8,0,1.3-0.2,1.5-0.4
			c0.3-0.2,0.5-0.9,0.7-1.9c0.1-0.6,0.1-1,0.1-1.2c0-0.3-0.1-0.4-0.2-0.4h-2.8c0,0,0,0,0,0c-0.3,1-0.7,1.9-1.2,2.8
			c-0.4,0.6-0.7,1.2-1.2,1.7c-0.6,0.5-1,0.8-1.2,0.8c-0.2,0-0.5-0.2-0.7-0.5c-0.2-0.3-0.3-0.5-0.3-0.7c0-0.2,0.1-0.3,0.4-0.4
			c0.5-0.1,1-0.5,1.4-1c0.5-0.4,1.1-1.3,1.6-2.4c0-0.1,0.1-0.2,0.1-0.3c-0.4,0-0.8,0.1-1.3,0.1c-0.4,0.1-0.7,0.2-0.8,0.2
			c-0.3,0-0.5-0.2-0.5-0.5c0-0.5,0.2-0.8,0.6-0.8C633.1,2.3,633.9,2.3,635.1,2.3z M638.4,10.6c0.1-0.3,0.1-0.6,0.1-0.9
			c0-0.4,0.2-0.6,0.5-0.6c0.1,0,0.2,0.1,0.4,0.2c0.1,0.2,0.2,0.3,0.2,0.4l0,0.1c0,0.2-0.1,0.5-0.1,0.8h1.5c0.1,0,0.3-0.1,0.6-0.2
			c0.4,0,0.6,0.2,0.6,0.7c-0.2,0.9-0.3,1.9-0.4,2.8c-0.1,1.3-0.3,2.1-0.8,2.5c-0.3,0.4-0.8,0.6-1.2,0.6c-0.3,0-0.6-0.1-0.8-0.4
			c-0.1-0.3-0.2-0.5-0.2-0.7c0-0.3,0.1-0.4,0.3-0.5c0.6,0,1-0.2,1.1-0.4c0.2-0.2,0.4-0.9,0.5-1.9c0.1-0.7,0.1-1.1,0.1-1.2
			c0-0.2-0.1-0.4-0.2-0.4h-1.6c-0.2,1.1-0.5,2.2-0.9,3c-0.2,0.6-0.5,1.2-0.8,1.6c-0.4,0.5-0.7,0.7-0.8,0.7c-0.2,0-0.5-0.1-0.7-0.4
			c-0.2-0.3-0.3-0.5-0.3-0.7c0-0.2,0.1-0.3,0.4-0.4c0.3-0.1,0.7-0.4,1-0.9c0.4-0.4,0.7-1.2,1.1-2.3c0.1-0.2,0.1-0.4,0.2-0.6
			c-0.3,0-0.5,0.1-0.8,0.1c-0.3,0.1-0.5,0.2-0.6,0.2c-0.3,0-0.5-0.2-0.5-0.5c0-0.5,0.2-0.8,0.6-0.8C637,10.6,637.6,10.6,638.4,10.6z
			"/>
		<path class="st0" d="M653,0.3c0.3,0,0.4,0.2,0.4,0.5c0.2,0,0.6,0.2,1,0.6c3,2.2,4.8,3.5,5.6,3.8c0.5,0.1,1,0.3,1.7,0.3
			c0.3,0,0.4,0.1,0.4,0.4c0,0.4-0.2,0.7-0.7,1.1c-0.5,0.4-0.9,0.6-1.4,0.6c-0.3,0-0.6-0.2-0.9-0.5c-1.2-1.3-2.6-2.6-4.1-3.9
			c-0.7-0.5-1.2-0.9-1.8-1.2c-0.1,0-0.2-0.1-0.2-0.2c-1,1.3-2.2,2.4-3.4,3.3c-1,0.8-2.2,1.5-3.6,2c-0.3,0.1-0.5,0.1-0.6,0.1
			c-0.3,0-0.7-0.2-1-0.7c-0.3-0.3-0.5-0.6-0.5-0.9c0-0.2,0.2-0.4,0.6-0.4c1-0.1,1.7-0.2,2.2-0.4c1.2-0.3,2.3-0.8,3.3-1.6
			c1.1-0.8,2-1.7,2.7-2.7C652.7,0.4,652.8,0.3,653,0.3z M647.1,9.7c0.1,0,0.3,0,0.4,0.1c1.9-0.2,3.6-0.3,5.1-0.3
			c0.9,0,2.4,0,4.3,0.1c0.3,0,0.6,0,0.9,0c0.2,0,0.5,0,0.8-0.1c0.3-0.1,0.5-0.2,0.6-0.2c0.2,0,0.2,0.1,0.2,0.2
			c0,0.4-0.2,0.8-0.5,1.2c-0.3,0.5-0.6,0.7-0.9,0.7c-0.2,0-0.6-0.1-1.1-0.3c-1.2-0.4-2.6-0.6-4.3-0.6c-0.1,0-0.2,0-0.2,0
			c0,0.1,0.1,0.3,0.1,0.5c0,0.1,0,0.2-0.1,0.2c-0.5,0.8-0.8,1.5-1.1,2c-0.2,0.4-0.5,0.8-0.8,1.2c0,0.1,0.1,0.2,0.3,0.2h4.8
			c0.3,0,0.4-0.1,0.4-0.3c0,0,0-0.1,0-0.1c-0.2-0.4-0.5-1-0.9-1.5c0-0.1-0.1-0.1-0.1-0.1c0-0.4,0.2-0.7,0.6-0.7c0.1,0,0.2,0,0.2,0.1
			c0.5,0.7,1,1.6,1.6,2.7c0.1,0.1,0.1,0.3,0.1,0.4c0,0.4-0.2,0.6-0.6,0.6h-6.2c-0.4,0-0.9,0-1.5,0.1c-0.5,0-0.8-0.2-0.8-0.6
			c0-0.2,0.1-0.4,0.3-0.6c0.2-0.2,0.4-0.5,0.6-0.7c0.3-0.4,0.6-0.8,0.8-1.2c0.3-0.5,0.6-1.2,1-2.1c0,0,0,0,0-0.1
			c-1.5,0-2.6,0.2-3.3,0.4c-0.4,0.1-0.8,0.2-1,0.2c-0.3,0-0.5-0.2-0.5-0.6c0-0.2,0.1-0.5,0.2-0.7C646.8,9.8,647,9.7,647.1,9.7z
			 M650.5,6.2h5.7c0.1,0,0.2,0.1,0.2,0.3c0,0.2-0.1,0.5-0.2,0.6c-0.2,0.2-0.4,0.3-0.7,0.3c-0.1,0-0.5,0-1-0.1c-0.5,0-1.1,0-1.7,0
			c-1,0-1.8,0.1-2.3,0.2c-0.3,0.1-0.4,0.2-0.5,0.2c-0.4,0-0.6-0.3-0.6-0.7c0-0.2,0.1-0.4,0.3-0.6C650,6.3,650.2,6.2,650.5,6.2z"/>
		<path class="st0" d="M669.1,11.7c0,0.5-0.2,1.3-0.7,2.5c-0.5,1.3-0.9,1.9-1.2,1.9c-0.7,0-1.1-1-1.4-2.9c-0.1-1.1-0.2-2.4-0.2-3.8
			c0-1.2,0.1-2.7,0.4-4.5c0.3-2.3,0.8-3.5,1.3-3.5c0.5,0,0.7,0.3,0.8,0.9c-0.1,0.2-0.3,1.1-0.8,2.7c-0.4,1.7-0.6,3.2-0.6,4.7
			c0,1.5,0.1,2.7,0.3,3.6c0.1,0.5,0.2,0.7,0.3,0.7c0.1,0,0.4-0.5,0.8-1.4c0.4-0.9,0.7-1.4,0.8-1.4C669,11.3,669.1,11.5,669.1,11.7z
			 M680.8,13.6c-0.1,0.3-0.3,0.7-0.7,1.2c-0.4,0.5-0.7,0.7-0.9,0.7c-0.2,0-0.6-0.3-1.2-0.9c-0.7-0.7-1.4-1.2-2-1.6
			c-0.3,1.7-1.3,2.6-2.8,2.6c-0.7,0-1.3-0.2-1.8-0.5c-0.6-0.4-1-1-1-1.8c0-1.5,1.1-2.2,3.3-2.2c0.3,0,0.7,0.1,1.3,0.2
			c0-1.3,0-3.1-0.1-5.6c-1.2,0-2,0.1-2.6,0.2c-0.1,0-0.3,0.1-0.7,0.2c-0.3,0-0.5,0.1-0.7,0.1c-0.3,0-0.5-0.2-0.5-0.6
			c0-0.2,0.1-0.4,0.2-0.6c0.2-0.2,1.5-0.3,4.1-0.3c-0.1-1.3-0.1-2.1-0.1-2.4c0-0.5,0.2-0.8,0.6-0.8c0.5,0,0.7,0.3,0.7,1v2.2
			c2.3,0,2.9,0,1.7-0.1c1.1,0,1.6,0.2,1.7,0.4c-0.2,0.9-0.5,1.3-0.9,1.3c-0.2,0-0.6-0.1-1.2-0.2c-0.6-0.2-1.1-0.3-1.3-0.3v1.6
			c0,0.3,0,1,0,2.1c0,0.9,0,1.7,0,2.2c0.1,0,0.8,0.3,2.1,0.9c0.9,0.4,1.6,0.6,2.2,0.6C680.6,13.4,680.7,13.5,680.8,13.6z
			 M674.8,12.6c-0.7-0.3-1.4-0.4-1.9-0.4c-1.1,0-1.7,0.4-1.7,1.3c0,0.4,0.2,0.7,0.6,0.9c0.3,0.2,0.7,0.3,1,0.3
			C674,14.6,674.6,13.9,674.8,12.6z"/>
		<path class="st0" d="M684.6,3.7h2.4c0-0.8,0-1.7-0.1-2.6c0-0.6,0.2-0.9,0.6-0.9c0.4,0,0.7,0.3,0.7,0.9c0,0.9,0,1.8-0.1,2.6h2.1
			c0.1,0,0.2,0.1,0.2,0.3c0,0.3-0.1,0.5-0.2,0.7c-0.2,0.2-0.4,0.3-0.7,0.3c-0.1,0-0.5,0-1-0.1c-0.2,0-0.4,0-0.6,0c0,0.3,0,0.6,0,0.9
			l0,1.8c0,0,0,0,0.1,0c0.1,0,0.4,0.3,1.1,0.8c0.7,0.6,1,1,1,1.2c0,0.3-0.2,0.5-0.5,0.5c-0.1,0-0.2-0.1-0.3-0.2
			c-0.6-0.6-1.1-0.9-1.4-1.1l0.1,6.9c0,1-0.2,1.5-0.7,1.5c-0.4,0-0.6-0.5-0.6-1.5c0-2.5,0-4.6,0-6.5c-0.3,0.4-0.6,0.8-0.9,1.2
			c-0.5,0.6-1,1-1.6,1.4c-0.1,0.1-0.2,0.1-0.3,0.1c-0.3,0-0.6-0.2-0.9-0.6c-0.3-0.3-0.4-0.6-0.4-0.9c0-0.2,0.2-0.3,0.5-0.3
			c0.4-0.1,0.8-0.1,1-0.2c0.5-0.2,1-0.5,1.5-1c0.5-0.5,0.9-1,1.2-1.7c0-0.6,0-1.1,0-1.6c0-0.3,0-0.6,0-0.9c-1,0-1.8,0.1-2.3,0.2
			c-0.3,0.1-0.4,0.2-0.5,0.2c-0.4,0-0.6-0.2-0.6-0.6c0-0.2,0.1-0.4,0.3-0.6C684.1,3.8,684.3,3.7,684.6,3.7z M694.9,10.6
			c0-0.6,0-1.2-0.1-1.9c0-0.6,0.2-0.9,0.6-0.9c0.4,0,0.6,0.3,0.6,0.9c0,0.7,0,1.3-0.1,1.9c0.7,0,1.4,0.1,2.2,0.2
			c0.9,0.1,1.7,0.1,2.5,0.1c0.3,0,0.6,0,0.9-0.1c0.1,0,0.1,0.1,0.1,0.3c0,0.4-0.1,0.8-0.3,1.2c-0.2,0.4-0.4,0.6-0.6,0.6
			c-0.2,0-0.5-0.1-0.7-0.2c-0.9-0.5-1.8-0.8-2.6-0.9c-0.4-0.1-0.9-0.1-1.4-0.1l0.1,3.9c0,1-0.2,1.5-0.7,1.5c-0.4,0-0.6-0.5-0.6-1.5
			c0-1.6,0-2.9,0-3.9c-0.8,0-1.6,0.1-2.2,0.3c-0.7,0.2-1.4,0.6-2.1,0.9c-0.2,0.1-0.4,0.2-0.5,0.2c-0.4,0-0.5-0.3-0.6-0.7
			c0-0.2,0.1-0.5,0.3-0.7c0.2-0.2,0.4-0.3,0.7-0.4C692.4,10.8,693.9,10.6,694.9,10.6z M695.5,2.7c0.5,0,1.3,0,2.1,0.1
			c0.2,0,0.4-0.1,0.6-0.1c0.3,0,0.5,0.2,0.5,0.6c0,0,0,0.1-0.1,0.2c-0.1,0.3-0.2,0.6-0.3,0.9c-0.1,0.4-0.1,0.9-0.1,1.4
			c0,0.6,0.1,1,0.2,1.1c0.2,0.2,0.5,0.3,0.8,0.3c0.5,0,1.1-0.2,1.7-0.5c0.1,0,0.2-0.1,0.3-0.1c0.1,0,0.2,0.1,0.2,0.4
			c0,0.5-0.1,1-0.3,1.3c-0.2,0.4-0.4,0.6-0.7,0.6c-1.1,0-1.9-0.2-2.6-0.6c-0.4-0.3-0.7-0.8-0.7-1.6c0-0.7,0.1-1.6,0.2-2.5
			c0-0.2,0-0.3-0.1-0.4c-0.2,0-0.6-0.1-1.1-0.1c-0.4,0-0.8,0-1.2,0c-0.1,0.6-0.2,1.2-0.4,1.8c-0.3,1-0.8,1.7-1.2,2.3
			c-0.7,0.7-1.2,1.1-1.8,1.1c-0.2,0-0.4-0.1-0.6-0.3c-0.3-0.3-0.4-0.7-0.4-1c0-0.2,0.1-0.3,0.3-0.3c0.6-0.1,1.1-0.3,1.5-0.5
			c0.6-0.3,1.1-1,1.5-2.1c0.1-0.3,0.2-0.6,0.2-0.9c-0.5,0-1,0.2-1.4,0.3c-0.2,0.1-0.3,0.1-0.4,0.1c-0.4,0-0.5-0.2-0.6-0.5
			c0-0.6,0.3-1,0.8-1c0.5,0,1.1-0.1,1.7-0.1c0-0.3,0-0.6,0-1c-0.1-0.4-0.1-0.7-0.1-1c0-0.3,0.2-0.5,0.5-0.5c0.4,0,0.6,0.2,0.6,0.6
			c-0.1,0.5-0.1,1.1-0.2,1.8C695.2,2.7,695.4,2.7,695.5,2.7z"/>
		<path class="st0" d="M704.2,13c0.3,0.1,0.6,0.1,0.7,0.1c0.4,0,0.9-0.2,1.5-0.6c0.2,0,0.2,0.1,0.2,0.3c0,0.2-0.2,0.6-0.7,1.2
			c-0.4,0.7-0.8,1-1.1,1c-0.2,0-0.5-0.1-0.6-0.4c-0.2-0.4-0.3-0.8-0.3-1.2C704,13.1,704.1,13,704.2,13z M708.6,0.2
			c0.4,0,0.6,0.2,0.6,0.7c0,0.3-0.1,0.7-0.4,1c-0.7,1.1-1.5,2-2.3,2.7c-0.2,0.1-0.2,0.3-0.2,0.5c0,0,0.1,0.2,0.4,0.3
			c0.3,0.1,0.6,0.3,0.9,0.6c0,0,0,0.1,0.1,0.1c0.7-0.8,1.4-1.6,2.1-2.4c0.1-0.1,0.2-0.1,0.4-0.1c0.1,0,0.2,0.1,0.3,0.2
			c0.1,0.1,0.1,0.3,0.1,0.5c0,0.2-0.1,0.4-0.2,0.5c-1.1,1.3-2.2,2.7-3.3,4.1c-0.1,0.1-0.1,0.2-0.1,0.4c0,0,0,0.1,0.1,0.1
			c0.2,0,0.6,0.1,1.2,0.1c0.9,0,1.6,0,2.2-0.1c0.1,0,0.2-0.1,0.2-0.3c-0.2-0.5-0.5-1-0.8-1.4c-0.1-0.1-0.1-0.2-0.1-0.3
			c0-0.1,0-0.2,0.1-0.4c0.1-0.1,0.3-0.2,0.4-0.2c0.1,0,0.2,0.1,0.4,0.4c0.3,0.5,0.6,1.1,1,1.8c0.2,0.3,0.2,0.6,0.2,0.8
			c0,0.5-0.2,0.8-0.6,0.8c-0.2-0.1-0.5-0.1-0.7-0.1c-0.5,0-1,0.1-1.6,0.1c0,0.1,0,0.3,0,0.5c-0.1,0.7-0.1,1.2-0.1,1.8l0.1,2.9
			c0,1-0.2,1.5-0.7,1.5c-0.4,0-0.6-0.5-0.6-1.5c0.1-1.2,0.1-2.2,0.1-2.9c0-0.5,0-1.1-0.1-1.8c0-0.2,0-0.4,0.1-0.5
			c-0.4,0-0.8,0-1.2-0.1c-0.3,0-0.7,0-1.1,0.1c-0.5,0-0.8-0.2-0.8-0.6c0-0.2,0.1-0.5,0.3-0.7c0.7-0.8,1.3-1.5,2-2.3c0,0-0.1,0-0.1,0
			c-0.9-0.6-1.6-0.9-2.1-1.1c-0.2-0.1-0.4-0.2-0.4-0.5c0-0.2,0.1-0.4,0.3-0.6c0.4-0.2,0.7-0.6,1.1-1.1c0.8-0.8,1.6-1.9,2.3-3.2
			C708.2,0.4,708.4,0.2,708.6,0.2z M710,11.9c0.1,0,0.2,0,0.3,0.1c0.3,0.4,0.6,0.6,1,0.8c0.2,0.1,0.3,0.2,0.3,0.4
			c0,0.3-0.1,0.5-0.3,0.7c-0.2,0.2-0.4,0.2-0.7,0.2c-0.2,0-0.4-0.3-0.6-0.8c-0.2-0.5-0.3-0.8-0.3-1C709.8,12,709.8,11.9,710,11.9z
			 M714.1,1.3c0.2,0,0.3,0,0.4,0.1c0.1,0,0.2,0,0.2,0l4,0.1c0.4-0.1,0.7-0.1,0.8-0.1c0.5,0,0.8,0.2,0.8,0.7
			c-0.2,1.8-0.3,3.6-0.4,5.6c0,1.1,0,3.2,0,6.4c0,0.1,0,0.1,0,0.2c0.4,0,0.7,0,1,0c0.4,0,0.9-0.1,1.5-0.2c0.1,0,0.2,0.2,0.2,0.5
			c0,0.5-0.2,1-0.5,1.6c-0.2,0.4-0.4,0.6-0.6,0.6c-0.2,0-0.5-0.1-0.9-0.4c-0.5-0.4-1.1-0.6-1.8-0.8c-0.7-0.2-1.5-0.2-2.3-0.2
			c-1,0-1.9,0.1-2.8,0.2c-0.5,0.1-1.4,0.4-2.4,1c-0.5,0-0.7-0.2-0.7-0.7c0-0.3,0.1-0.5,0.3-0.7c0.2-0.3,0.6-0.5,1-0.5
			c0.7-0.1,1.3-0.2,1.8-0.3c0,0,0-0.1,0-0.2c0.1-1.9,0.1-3.7,0.1-5.7c0-1.7-0.1-3.9-0.2-6.6C713.4,1.5,713.6,1.3,714.1,1.3z
			 M714.8,5.6c0.1,0,0.1,0,0.2,0h3.8c0.1,0,0.1,0,0.1,0c0-1.1,0.1-2,0.1-2.8c0-0.2-0.1-0.3-0.2-0.3c-1.1,0-2.4,0-4,0.1
			C714.7,3.3,714.7,4.3,714.8,5.6z M714.7,14.2c0.7-0.1,1.3-0.1,1.7-0.1c0.7,0,1.4,0,2.3,0.1c0-0.2,0-0.3,0-0.6c0-1,0-2,0-2.9
			c-1.7,0-3,0.1-3.9,0.2c0,0-0.1,0-0.1,0c0,0.8,0,1.6,0,2.4C714.8,13.7,714.8,14,714.7,14.2z M714.8,9.7c0.1,0,0.2,0,0.2,0h3.8
			c0-1.1,0-2.2,0-3.1c0,0-0.1,0-0.1,0c-1.7,0-3,0.1-3.9,0.2C714.8,7.7,714.8,8.6,714.8,9.7z"/>
		<path class="st0" d="M741.1,12.3c-0.1,0.3-0.3,0.7-0.7,1.2s-0.7,0.7-0.9,0.7c0,0-0.8-0.6-2.6-1.7c-0.4,0.8-0.9,1.7-1.6,2.6
			c-0.8,1.1-1.5,1.7-2.1,1.7c-0.2,0-0.6-0.2-1.1-0.5c-0.5-0.3-0.7-0.6-0.7-0.9c0-0.1,0.4-0.3,1.2-0.5c1.4-0.5,2.5-1.5,3.3-3
			c-1.4-0.8-2.9-1.4-4.5-1.9c-1.9,2.8-3.4,4.3-4.5,4.3c-0.4,0-0.8-0.2-1.1-0.7c-0.2-0.4-0.4-0.8-0.4-1.4c0-1.2,0.6-2.2,1.7-2.8
			c0.9-0.5,1.9-0.7,3-0.7c0.1,0,0.4,0,0.8,0.1c0.4-0.7,1.4-2.5,2.8-5.3c-1,0-1.6,0-2,0.1c-0.7,0.1-1.4,0.2-1.9,0.4
			c-0.6,0.2-0.9,0.3-0.9,0.3c-0.4,0-0.6-0.2-0.6-0.5c0-0.7,0.3-1.1,0.9-1.2c0.9-0.2,1.9-0.4,3-0.4h2c0.8,0,1.1,0.2,1.1,0.7
			c0,0.3-0.5,1.3-1.4,2.9c-0.8,1.4-1.4,2.5-2,3.3c1.2,0.4,2.6,0.9,4.4,1.5c0.3-0.8,0.4-1.6,0.5-2.3c0-0.4,0.2-0.5,0.5-0.5
			S738,8,738,8.4c0,0.7-0.2,1.5-0.6,2.6c1.2,0.5,2.3,0.9,3.3,1C741,12,741.1,12.1,741.1,12.3z M730.3,9.8c-0.4,0-0.6,0-0.8,0
			c-0.8,0-1.4,0.2-2,0.6c-0.7,0.4-1.1,1.1-1.1,1.9c0,0.6,0.2,0.8,0.5,0.8C727.7,13.1,728.8,12,730.3,9.8z"/>
		<path class="st0" d="M758.2,13.2c0,0.6-0.1,1.1-0.4,1.5c-0.3,0.4-0.7,0.7-1.1,0.8c-0.8,0.2-2.2,0.3-4.4,0.3c-4,0-6-1-6-3.1
			c0-1,0.4-1.9,1.1-2.8c0.1-0.2,0.8-0.9,2.1-2.1c-0.1-1-0.2-1.8-0.2-2.6V3c0-1.5,0.2-2.3,0.7-2.3c0.5,0,0.7,0.3,0.7,0.9
			c0,0.1,0,0.3-0.1,0.5c-0.1,0.3-0.1,0.5-0.1,0.6c-0.1,0.7-0.1,1.6-0.1,2.7c0,0.5,0,1.1,0.1,1.5c2-1.7,3.2-2.6,3.5-2.6
			c0.3,0,0.4,0.1,0.5,0.3c0.1,0.2,0.2,0.3,0.3,0.5c0,0.4-0.3,0.7-0.7,1c-0.9,0.5-1.8,1.1-2.7,1.6c-1.3,0.8-2.3,1.6-3,2.3
			c-0.9,0.9-1.4,1.8-1.4,2.7c0,1.1,0.9,1.7,2.6,1.7c1.1,0,2.5-0.1,4-0.3c1.3-0.2,2.4-0.5,3.3-0.8c0.4-0.2,0.7-0.2,0.9-0.2
			C758.1,12.9,758.2,13,758.2,13.2z"/>
		<path class="st0" d="M762.3,13c0.3,0.1,0.6,0.1,0.7,0.1c0.4,0,0.9-0.2,1.5-0.6c0.2,0,0.2,0.1,0.2,0.3c0,0.2-0.2,0.6-0.7,1.2
			c-0.4,0.7-0.8,1-1.1,1c-0.2,0-0.5-0.1-0.6-0.4c-0.2-0.4-0.3-0.8-0.3-1.2C762.1,13.1,762.2,13,762.3,13z M766.6,0.2
			c0.4,0,0.6,0.2,0.6,0.7c0,0.3-0.1,0.7-0.4,1c-0.7,1.1-1.5,2-2.3,2.7c-0.2,0.1-0.2,0.3-0.2,0.5c0,0,0.1,0.2,0.4,0.3
			c0.3,0.1,0.6,0.3,0.9,0.6c0,0,0,0.1,0.1,0.1c0.7-0.8,1.4-1.6,2.1-2.4c0.1-0.1,0.2-0.1,0.4-0.1c0.1,0,0.2,0.1,0.3,0.2
			c0.1,0.1,0.1,0.3,0.1,0.5c0,0.2-0.1,0.4-0.2,0.5c-1.1,1.3-2.2,2.7-3.3,4.1c-0.1,0.1-0.1,0.2-0.1,0.4c0,0,0,0.1,0.1,0.1
			c0.2,0,0.6,0.1,1.2,0.1c0.9,0,1.6,0,2.2-0.1c0.1,0,0.2-0.1,0.2-0.3c-0.2-0.5-0.5-1-0.8-1.4c-0.1-0.1-0.1-0.2-0.1-0.3
			c0-0.1,0-0.2,0.1-0.4c0.1-0.1,0.3-0.2,0.4-0.2c0.1,0,0.2,0.1,0.4,0.4c0.3,0.5,0.6,1.1,1,1.8c0.2,0.3,0.2,0.6,0.2,0.8
			c0,0.5-0.2,0.8-0.6,0.8c-0.2-0.1-0.5-0.1-0.7-0.1c-0.5,0-1,0.1-1.6,0.1c0,0.1,0,0.3,0,0.5c-0.1,0.7-0.1,1.2-0.1,1.8l0.1,2.9
			c0,1-0.2,1.5-0.7,1.5c-0.4,0-0.6-0.5-0.6-1.5c0.1-1.2,0.1-2.2,0.1-2.9c0-0.5,0-1.1-0.1-1.8c0-0.2,0-0.4,0.1-0.5
			c-0.4,0-0.8,0-1.2-0.1c-0.3,0-0.7,0-1.1,0.1c-0.5,0-0.8-0.2-0.8-0.6c0-0.2,0.1-0.5,0.3-0.7c0.7-0.8,1.3-1.5,2-2.3c0,0-0.1,0-0.1,0
			c-0.9-0.6-1.6-0.9-2.1-1.1c-0.2-0.1-0.4-0.2-0.4-0.5c0-0.2,0.1-0.4,0.3-0.6c0.4-0.2,0.7-0.6,1.1-1.1c0.8-0.8,1.6-1.9,2.3-3.2
			C766.3,0.4,766.5,0.2,766.6,0.2z M768.1,11.9c0.1,0,0.2,0,0.3,0.1c0.3,0.4,0.6,0.6,1,0.8c0.2,0.1,0.3,0.2,0.3,0.4
			c0,0.3-0.1,0.5-0.3,0.7c-0.2,0.2-0.4,0.2-0.7,0.2c-0.2,0-0.4-0.3-0.6-0.8c-0.2-0.5-0.3-0.8-0.3-1C767.9,12,767.9,11.9,768.1,11.9z
			 M772.2,1.3c0.2,0,0.3,0,0.4,0.1c0.1,0,0.2,0,0.2,0l4,0.1c0.4-0.1,0.7-0.1,0.8-0.1c0.5,0,0.8,0.2,0.8,0.7
			c-0.2,1.8-0.3,3.6-0.4,5.6c0,1.1,0,3.2,0,6.4c0,0.1,0,0.1,0,0.2c0.4,0,0.7,0,1,0c0.4,0,0.9-0.1,1.5-0.2c0.1,0,0.2,0.2,0.2,0.5
			c0,0.5-0.2,1-0.5,1.6c-0.2,0.4-0.4,0.6-0.6,0.6c-0.2,0-0.5-0.1-0.9-0.4c-0.5-0.4-1.1-0.6-1.8-0.8c-0.7-0.2-1.5-0.2-2.3-0.2
			c-1,0-1.9,0.1-2.8,0.2c-0.5,0.1-1.4,0.4-2.4,1c-0.5,0-0.7-0.2-0.7-0.7c0-0.3,0.1-0.5,0.3-0.7c0.2-0.3,0.6-0.5,1-0.5
			c0.7-0.1,1.3-0.2,1.8-0.3c0,0,0-0.1,0-0.2c0.1-1.9,0.1-3.7,0.1-5.7c0-1.7-0.1-3.9-0.2-6.6C771.5,1.5,771.7,1.3,772.2,1.3z
			 M772.9,5.6c0.1,0,0.1,0,0.2,0h3.8c0.1,0,0.1,0,0.1,0c0-1.1,0.1-2,0.1-2.8c0-0.2-0.1-0.3-0.2-0.3c-1.1,0-2.4,0-4,0.1
			C772.8,3.3,772.8,4.3,772.9,5.6z M772.8,14.2c0.7-0.1,1.3-0.1,1.7-0.1c0.7,0,1.4,0,2.3,0.1c0-0.2,0-0.3,0-0.6c0-1,0-2,0-2.9
			c-1.7,0-3,0.1-3.9,0.2c0,0-0.1,0-0.1,0c0,0.8,0,1.6,0,2.4C772.9,13.7,772.9,14,772.8,14.2z M772.9,9.7c0.1,0,0.2,0,0.2,0h3.8
			c0-1.1,0-2.2,0-3.1c0,0-0.1,0-0.1,0c-1.7,0-3,0.1-3.9,0.2C772.9,7.7,772.9,8.6,772.9,9.7z"/>
		<path class="st0" d="M783.2,12.9c0.3,0.1,0.6,0.1,0.7,0.1c0.4,0,0.9-0.2,1.4-0.6c0.1,0,0.1,0.1,0.1,0.3c0,0.2-0.2,0.6-0.6,1.2
			c-0.4,0.6-0.7,1-1,1c-0.2,0-0.4-0.1-0.6-0.4c-0.2-0.3-0.3-0.7-0.3-1.1C783.1,13,783.1,12.9,783.2,12.9z M786.7,0.3
			c0.4,0,0.6,0.2,0.6,0.7c0,0.3-0.1,0.6-0.2,0.9c-0.5,0.9-1.1,1.8-1.7,2.4c-0.1,0.1-0.2,0.3-0.2,0.4c0,0,0.1,0.1,0.3,0.3
			c0.2,0.1,0.4,0.3,0.7,0.6l0,0c0.5-0.7,1-1.3,1.5-1.9c0.1-0.1,0.2-0.1,0.3-0.1c0.1,0,0.2,0.1,0.3,0.2c0.1,0.1,0.1,0.3,0.1,0.5
			c0,0.2-0.1,0.4-0.2,0.5c-1,1.3-1.9,2.6-2.9,4c-0.1,0.1-0.1,0.2-0.1,0.3c0,0,0,0.1,0,0.1c0.1,0,0.4,0.1,0.8,0.1
			c0.7,0,1.3,0,1.8-0.1c0.1,0,0.2-0.1,0.2-0.3c-0.2-0.4-0.3-0.8-0.6-1.2c-0.1-0.1-0.1-0.2-0.1-0.3c0-0.1,0-0.2,0.1-0.4
			c0.1-0.1,0.3-0.2,0.4-0.2c0.1,0,0.2,0.1,0.3,0.3c0.2,0.4,0.5,1,0.8,1.7c0.1,0.3,0.2,0.6,0.2,0.8c0,0.4-0.2,0.6-0.6,0.6
			c-0.2-0.1-0.4-0.1-0.7-0.1c-0.2,0-0.5,0.1-0.7,0.1c0,0.1,0.1,0.3,0.1,0.5c-0.1,0.7-0.1,1.3-0.1,1.9l0.1,3.2c0,1-0.2,1.5-0.7,1.5
			c-0.4,0-0.6-0.5-0.6-1.5c0-1.4,0.1-2.4,0.1-3.2c0-0.6,0-1.2-0.1-1.9c0-0.2,0-0.4,0-0.5h0c-0.3,0-0.6,0-1-0.1c-0.3,0-0.7,0-1,0.1
			c-0.5,0-0.7-0.2-0.7-0.6c0-0.2,0.1-0.5,0.2-0.7c0.7-0.8,1.3-1.7,2-2.5c0,0-0.1,0-0.1,0c-0.8-0.5-1.4-0.8-1.8-0.9
			c-0.2-0.1-0.3-0.2-0.3-0.4c0-0.2,0.1-0.4,0.3-0.6c0.3-0.2,0.6-0.6,0.9-1c0.7-0.8,1.3-1.7,1.8-2.9C786.4,0.4,786.5,0.3,786.7,0.3z
			 M788.1,12.1c0.1,0,0.2,0,0.3,0.1c0.2,0.4,0.5,0.6,0.8,0.7c0.2,0.1,0.3,0.2,0.3,0.4c0,0.3-0.1,0.5-0.3,0.7
			c-0.2,0.2-0.4,0.3-0.7,0.3c-0.1,0-0.3-0.3-0.5-0.8c-0.2-0.5-0.2-0.8-0.2-1C787.9,12.3,788,12.1,788.1,12.1z M791.1,4.3
			c0.4,0,0.6,0.2,0.6,0.6V6h1.8l0.1-1.3c0.1-0.3,0.3-0.5,0.6-0.5c0.4,0,0.6,0.2,0.6,0.6L794.2,6h2.1c-0.1-1.8-0.1-3.5-0.1-4.9
			c0-0.5,0.2-0.7,0.6-0.7c0.4,0,0.5,0.3,0.6,0.7c0,0.9-0.1,1.8-0.1,2.7c0,0.7,0,1.5,0.1,2.2h3c0.2,0,0.3,0.1,0.3,0.3
			c0,0.3-0.1,0.6-0.2,0.8c-0.2,0.2-0.4,0.3-0.7,0.3c-0.3,0-0.9-0.1-1.9-0.2c-0.1,0-0.3,0-0.4,0c0,0.4,0.1,0.7,0.1,1.1
			c0.2,1.5,0.5,2.8,0.8,3.9c0,0,0-0.1,0.1-0.1c0.4-1,0.7-2,0.8-3c0-0.4,0.2-0.6,0.5-0.6c0.1,0,0.2,0.1,0.3,0.2
			c0.1,0.1,0.2,0.3,0.2,0.4l0,0.1c-0.1,0.4-0.2,1-0.4,1.8c-0.2,0.9-0.5,1.7-0.9,2.5c0.6,1,1.2,1.7,2,2.1c0.2,0.1,0.3,0.2,0.3,0.5
			c0,0.2-0.2,0.5-0.5,0.8c-0.3,0.3-0.6,0.4-0.9,0.4c-0.2,0-0.5-0.1-0.7-0.4c-0.4-0.4-0.8-1-1.1-1.8c-0.3,0.5-0.6,0.9-1,1.3
			c-0.6,0.5-1.1,0.8-1.3,0.8c-0.2,0-0.4-0.1-0.7-0.4c-0.2-0.3-0.3-0.5-0.3-0.7c0-0.2,0.1-0.3,0.4-0.4c0.5-0.1,1-0.5,1.6-1
			c0.3-0.2,0.5-0.5,0.8-0.9c-0.2-0.4-0.3-0.9-0.4-1.4c-0.4-1.6-0.7-3.3-0.8-5.1c-0.6,0-1.1,0-1.8,0c-1.8,0-3.2,0.1-4,0.2
			c-0.5,0.1-0.8,0.2-0.9,0.2c-0.4,0-0.6-0.3-0.6-0.7c0-0.2,0.1-0.4,0.3-0.6c0.2-0.1,0.4-0.2,0.7-0.2h0.8c0,0,0-0.1,0-0.1l-0.3-1.1
			C790.6,4.5,790.7,4.3,791.1,4.3z M792.5,0.3c0.5,0,0.7,0.2,0.7,0.7c-0.1,0.5-0.1,0.9-0.2,1.3h2.3c0.1,0,0.2,0.1,0.2,0.3
			c0,0.2-0.1,0.5-0.2,0.6c-0.2,0.2-0.4,0.3-0.7,0.3c-0.1,0-0.4,0-0.8-0.1c-0.4,0-0.9,0-1.4,0c-0.9,0-1.6,0.1-2,0.2
			c-0.2,0.1-0.4,0.2-0.5,0.2c-0.4,0-0.6-0.2-0.6-0.6c0-0.2,0.1-0.4,0.3-0.6c0.2-0.1,0.4-0.2,0.7-0.2h1.6c0-0.4-0.1-0.8-0.2-1.2
			C791.9,0.6,792.1,0.3,792.5,0.3z M790.7,8.4c0.2,0,0.4,0,0.5,0.1c0.2,0.1,0.4,0.1,0.8,0.1h1.1c0.3,0,0.6,0,0.9,0.1
			c0.2,0,0.4-0.1,0.7-0.2c0.4,0,0.6,0.2,0.6,0.7c0,0,0,0.1,0,0.2c-0.1,0.2-0.1,0.5-0.1,1.1c0,0.7-0.1,1.4-0.1,2.1c0,0.5,0,1.1,0.1,2
			c0,0.5-0.2,0.7-0.5,0.7c-0.7-0.1-1.4-0.2-2-0.2c-0.7,0-1.2,0-1.4,0.1c-0.2,0-0.4,0.1-0.6,0.1c-0.3,0-0.5-0.2-0.5-0.6
			c0.1-1.1,0.2-2,0.2-2.8c0-0.8-0.1-1.7-0.2-2.8C790.2,8.6,790.4,8.4,790.7,8.4z M792.7,14c0.3,0,0.7,0,1.1,0.1
			c0.2,0,0.3-0.1,0.3-0.3v-1.6c-1.1,0-2,0.1-2.7,0.2c0,0.4,0,0.9-0.1,1.3c0,0.2,0.1,0.4,0.4,0.4C792,14,792.3,14,792.7,14z
			 M791.4,11.4L791.4,11.4h2.7V10c0-0.2,0-0.3-0.1-0.3c-0.5-0.1-1.2-0.1-2.2-0.1c-0.2,0-0.3,0.2-0.3,0.5
			C791.5,10.5,791.4,11,791.4,11.4z M800.1,1.9c0.4,0,0.6,0.2,0.6,0.6c0,0.3,0,0.5-0.1,0.6c-0.9,0.8-1.4,1.2-1.5,1.2
			c-0.3,0-0.4-0.1-0.4-0.4c0-0.1,0.3-0.6,0.8-1.7C799.7,2,799.9,1.9,800.1,1.9z"/>
		<path class="st0" d="M810.1,6.7c0.5,0,0.7,0.2,0.7,0.7l0.3,5.9c0,0,0,0,0,0c0.8-0.1,1.5-0.1,2-0.1c0.6,0,1.3,0,2,0.1l0.6-6
			c0.1-0.4,0.3-0.6,0.7-0.6c0.5,0,0.7,0.3,0.7,0.8l-1.1,5.9c0.5,0,1.1,0.1,1.7,0.2c1.3,0.2,2.5,0.2,3.6,0.2c0.3,0,0.6,0,1-0.1
			c0.1,0,0.1,0.1,0.1,0.3c0,0.4-0.1,0.9-0.3,1.3c-0.2,0.5-0.4,0.7-0.7,0.7c-0.3,0-0.7-0.1-1-0.3c-1.4-0.6-2.7-1-3.8-1.2
			c-0.9-0.1-2-0.2-3.3-0.2c-1.5,0-2.9,0.1-4,0.4c-1.2,0.3-2.4,0.7-3.5,1.3c-0.4,0.2-0.6,0.2-0.9,0.2c-0.4,0-0.6-0.3-0.6-0.8
			c0-0.3,0.1-0.5,0.3-0.7c0.2-0.2,0.4-0.3,0.7-0.4c2-0.4,3.8-0.7,5.2-0.9c0-0.1,0-0.2-0.1-0.3l-0.8-5.7C809.4,7,809.6,6.7,810.1,6.7
			z M813,0.6c0.5,0,0.8,0.3,0.8,0.9c-0.1,0.8-0.2,1.6-0.2,2.3h5.7c0.2,0,0.3,0.1,0.3,0.3c0,0.3-0.1,0.6-0.2,0.8
			c-0.2,0.2-0.4,0.3-0.7,0.3c-0.3,0-1-0.1-2.1-0.2c-1.1,0-2.4-0.1-3.8-0.1c-2.1,0-3.6,0.1-4.5,0.3c-0.5,0.1-0.9,0.2-1,0.2
			c-0.4,0-0.7-0.3-0.7-0.7c0-0.2,0.1-0.5,0.3-0.6c0.2-0.1,0.4-0.2,0.8-0.2h4.8c0-0.8-0.1-1.5-0.3-2.2C812.2,1,812.5,0.6,813,0.6z"/>
		<path class="st0" d="M833.5,0.6c0.5,0,0.8,0.3,0.8,0.8l-0.1,5.2c0.1,0,0.1,0,0.2,0h4.7c0.2,0,0.3,0.1,0.3,0.2
			c0,0.3-0.1,0.6-0.2,0.9c-0.2,0.2-0.4,0.4-0.7,0.4c-0.1,0-0.4-0.1-0.8-0.2c-0.4,0-0.9-0.1-1.4-0.1c-0.9,0-1.5,0-1.9,0.1
			c-0.1,0-0.2,0.1-0.3,0.1l-0.1,6c1,0,2.3,0.2,3.7,0.4c1.3,0.2,2.4,0.3,3.2,0.3c0.4,0,0.9,0,1.3-0.1c0.1,0,0.2,0.1,0.2,0.2
			c0,0.5-0.1,1-0.3,1.5c-0.2,0.4-0.5,0.6-0.7,0.6c-0.2,0-0.4-0.1-0.7-0.2c-1.3-0.6-2.4-0.9-3.6-1.1c-1-0.2-2.3-0.3-3.8-0.3
			c-1.8,0-3.2,0.2-4.3,0.5c-1.1,0.3-2.1,0.6-2.9,1c-0.3,0.2-0.5,0.2-0.7,0.2c-0.5,0-0.8-0.3-0.8-0.7c0-0.3,0.1-0.5,0.3-0.8
			c0.2-0.2,0.4-0.3,0.7-0.4c3.3-0.7,5.8-1.1,7.2-1.1l-0.1-12.6C832.9,0.9,833.1,0.6,833.5,0.6z"/>
		<path class="st0" d="M850.4,11.2c-0.1,0.6-0.4,1.5-0.9,2.7c-0.6,1.4-1.1,2-1.5,2c-0.5,0-0.9-0.6-1.3-1.9c-0.4-1.3-0.6-2.9-0.6-4.9
			c0-1.3,0.1-2.7,0.4-4.3c0.4-2.2,0.8-3.3,1.5-3.3c0.4,0,0.7,0.2,0.7,0.7c0,0.2-0.2,1.1-0.7,2.5c-0.5,1.3-0.7,2.8-0.7,4.4
			c0,0.8,0.1,1.7,0.2,2.6c0.2,1.3,0.4,1.9,0.7,1.9c0.3,0,0.7-0.4,1.2-1.3c0.5-0.9,0.7-1.4,0.9-1.4C850.3,11,850.3,11.1,850.4,11.2z
			 M859.9,5.5c0,0.2-0.1,0.5-0.3,0.8c-0.2,0.3-0.4,0.5-0.7,0.5c-0.1,0-0.4-0.1-0.9-0.2c-0.4-0.1-0.8-0.1-1.4-0.1
			c0,2.3-0.1,4-0.3,4.9c-0.3,1.8-0.9,3.2-1.9,4.3c-0.7,0.8-1.3,1.2-1.9,1.2c-0.2,0-0.5-0.1-0.9-0.4c-0.4-0.3-0.7-0.6-0.7-0.8
			c0-0.1,0.3-0.2,1-0.5c1.1-0.4,1.9-1.1,2.5-2.1c0.7-1.1,1-2.7,1-4.8c0-0.2,0-0.5,0-1c0-0.4,0-0.7,0-0.9c-1.3,0-2.3,0.2-3.1,0.3
			C851.8,7,851.5,7,851.5,7c-0.3,0-0.4-0.2-0.4-0.5c0-0.7,0.4-1.1,1.2-1.2c0.7,0,1.8-0.1,3.1-0.1c-0.1-2.2-0.2-3.3-0.2-3.4
			c0-0.6,0.2-0.8,0.6-0.8c0.4,0,0.6,0.3,0.7,0.8c0.1,0.6,0.1,1.7,0.2,3.5c0.2,0,0.6,0,1,0c0.4,0,0.8,0,1,0
			C859.4,5.2,859.9,5.3,859.9,5.5z M860.5,2c0,0.2-0.2,0.4-0.4,0.7c-0.2,0.3-0.4,0.5-0.5,0.5c-0.2,0-0.6-0.3-1.2-1
			c-0.6-0.7-0.8-1.1-0.8-1.4c0-0.2,0.1-0.3,0.2-0.3c0.1,0,0.3,0.1,0.7,0.4c0.4,0.3,1,0.5,1.7,0.6C860.4,1.7,860.5,1.8,860.5,2z
			 M863.2,0.6c0,0.2-0.2,0.4-0.4,0.7c-0.2,0.3-0.4,0.5-0.5,0.5c-0.2,0-0.6-0.3-1.2-1c-0.6-0.7-0.8-1.1-0.8-1.4
			c0-0.2,0.1-0.3,0.2-0.3c0.1,0,0.3,0.2,0.7,0.5c0.5,0.3,1.1,0.5,1.7,0.6C863,0.4,863.1,0.5,863.2,0.6z"/>
		<path class="st0" d="M878.5,6.1c0,0.3-0.3,0.6-0.8,1c-1.2,0.9-2.9,2-5.1,3.4c0,0.1,0,0.4,0,0.8c0,0.3,0,0.6,0,0.8
			c0,0.5-0.2,0.7-0.7,0.7c-0.3,0-0.4-0.2-0.5-0.6c0-0.1,0-0.4,0-1c-0.8,0.5-1.4,0.8-1.7,1.1c-0.7,0.6-1.1,1.1-1.1,1.7
			c0,0.4,0.3,0.6,1,0.8c0.5,0.1,1,0.2,1.5,0.2c1.5,0,2.8-0.3,4-0.8c0.9-0.4,1.4-0.6,1.4-0.6c0.1,0,0.2,0.1,0.2,0.4
			c0,0.5-0.1,1-0.4,1.5c-0.2,0.4-0.7,0.6-1.6,0.8c-0.7,0.1-1.4,0.1-2.3,0.1c-1.1,0-2.1-0.1-2.9-0.4c-1.3-0.4-1.9-1.1-1.9-2
			c0-0.8,0.5-1.6,1.4-2.4c0.1-0.2,0.9-0.7,2.2-1.7c0-0.9-0.1-1.4-0.1-1.6c-0.2-0.6-0.5-0.9-1.1-0.9c-0.7,0-1.4,0.2-1.9,0.5
			c-0.2,0.1-0.8,0.6-1.7,1.4c-0.1,0.1-0.2,0.2-0.4,0.3c-0.4,0-0.6-0.3-0.6-0.9c0-0.4,0.4-0.9,1.2-1.4c1.1-0.8,2.1-1.8,3-3.2
			c-0.4,0.1-1.1,0.2-2,0.3c0,0-0.3,0.1-0.8,0.2c-0.4,0.1-0.6,0.2-0.8,0.2c-0.3,0-0.5-0.2-0.5-0.7c0-0.6,0.4-0.9,1.2-1
			c0.7,0,1.9-0.1,3.3-0.1c0.1-0.3,0.4-0.9,0.8-1.9c0.2-0.5,0.4-0.7,0.8-0.7c0.5,0,0.7,0.2,0.7,0.7c0,0.2-0.3,0.8-0.9,1.9
			c0.4,0,1.1,0,1.9,0c0.9,0,1.5,0,1.9,0c0.1,0,0.3,0,0.5,0c0.2,0,0.4-0.1,0.5-0.1c0.1,0,0.2,0.1,0.2,0.2c0,0.3-0.2,0.6-0.4,1
			c-0.3,0.4-0.5,0.6-0.8,0.6c-0.2,0-0.5-0.1-0.8-0.2c-0.3-0.1-0.5-0.1-0.8-0.2c-0.6-0.2-1.6-0.3-2.8-0.3c-0.6,1-1.3,1.9-1.9,2.6
			c0.5-0.1,1-0.1,1.4-0.1c1.1,0,1.8,0.8,1.8,2.3c0,0.2,0,0.3,0.1,0.4c1.8-1.3,3.3-2.4,4.4-3.3c0.4-0.3,0.7-0.4,0.9-0.4
			C878.3,5.4,878.5,5.7,878.5,6.1z"/>
		<path class="st0" d="M883.4,3.7h2.4c0-0.8,0-1.6,0-2.4c0-0.7,0.2-1,0.7-1c0.4,0,0.6,0.2,0.6,0.7c0,0.1,0,0.4-0.1,0.7
			c0,0.4,0,0.7,0,0.9c0,0.4,0,0.7,0,1.1h2.1c0.1,0,0.2,0.1,0.2,0.3c0,0.3-0.1,0.5-0.2,0.7c-0.2,0.2-0.4,0.3-0.7,0.3H887
			c0,1.3,0,2.5,0.1,3.6c0.8-0.2,1.4-0.4,1.8-0.5c0.2,0,0.2,0.1,0.2,0.4c0,0.3-0.1,0.5-0.3,0.6c-0.6,0.2-1.2,0.4-1.7,0.6
			c0,1.6,0.1,2.9,0.1,3.7c0,1.4-0.3,2.4-0.8,3c-0.4,0.5-1,0.8-1.6,0.8c-0.3,0-0.6-0.1-0.9-0.4c-0.2-0.2-0.3-0.5-0.3-0.7
			c0-0.3,0.1-0.4,0.4-0.5c0.9-0.3,1.5-0.6,1.7-1.1c0.2-0.3,0.2-0.8,0.2-1.5c0-1,0-2,0-3c-1.1,0.5-2.1,1-3.1,1.5
			c-0.4,0-0.6-0.2-0.6-0.6c0-0.3,0.1-0.6,0.2-0.7c0.1-0.2,0.3-0.4,0.6-0.5c1.2-0.4,2.2-0.7,3-1c0-1.1,0-2.2-0.1-3.3
			c0-0.2,0-0.4,0-0.6h-0.1c-1,0-1.8,0.1-2.3,0.2c-0.3,0.1-0.4,0.1-0.5,0.1c-0.4,0-0.6-0.2-0.6-0.6c0-0.2,0.1-0.4,0.3-0.6
			C882.9,3.8,883.1,3.7,883.4,3.7z M894.1,13.3c0.8,0,1.8,0.1,2.9,0.2c0.8,0.1,1.6,0.1,2.2,0.1c0.4,0,0.9-0.1,1.4-0.2
			c0.1,0,0.2,0.2,0.2,0.5c0,0.5-0.2,1-0.5,1.6c-0.2,0.4-0.4,0.6-0.6,0.6c-0.3,0-0.6-0.1-1-0.4c-0.6-0.4-1.3-0.7-2-0.8
			c-0.8-0.2-1.7-0.3-2.7-0.3c-1,0-1.9,0.1-2.8,0.2c-0.5,0.1-1.4,0.4-2.5,1c-0.5,0-0.7-0.2-0.7-0.7c0-0.3,0.1-0.5,0.3-0.7
			c0.2-0.3,0.6-0.5,1-0.5C891.4,13.5,893,13.3,894.1,13.3z M891,2c0.2,0,0.4,0,0.6,0.1c0.2,0.1,0.5,0.1,0.9,0.1h2.5
			c0.6,0,1.2,0,2,0.1c0.2,0,0.4-0.1,0.7-0.2c0.4,0,0.6,0.2,0.6,0.7c0,0,0,0.1,0,0.2c-0.1,0.3-0.1,0.7-0.1,1.4c0,0.9-0.1,1.8-0.1,2.8
			c0,0.7,0,1.6,0.1,2.7c0,0.6-0.2,0.8-0.6,0.8c-1.4-0.2-2.6-0.3-3.7-0.3c-1,0-1.7,0-2,0.1c-0.2,0-0.5,0.1-0.9,0.2
			c-0.4,0-0.6-0.2-0.6-0.6c0.1-1.4,0.1-2.6,0.1-3.7c0-1.1,0-2.4-0.1-3.9C890.4,2.2,890.6,2,891,2z M893.9,9.5c0.8,0,1.8,0,2.8,0.1
			c0.2,0,0.3-0.1,0.3-0.4V6.8c0,0-0.1,0-0.1,0c-2.2,0-3.9,0.1-5.1,0.2c0,0,0,0-0.1,0c0,0.8,0,1.5-0.1,2.2c0,0.3,0.2,0.5,0.5,0.5
			C892.6,9.6,893.2,9.5,893.9,9.5z M891.8,5.8c0.1,0,0.1,0,0.2,0h4.9c0,0,0.1,0,0.1,0V3.7c0-0.2-0.1-0.3-0.2-0.3
			c-1.1-0.1-2.6-0.1-4.6-0.1c-0.3,0-0.4,0.2-0.4,0.5C891.8,4.5,891.8,5.1,891.8,5.8z"/>
		<path class="st0" d="M903,3c0.4,0.1,0.6,0.1,0.8,0.1c0.8,0,1.8-0.4,3.1-1.1c0.2,0,0.2,0.1,0.2,0.3c0,0.3-0.4,0.8-1.2,1.6
			c-0.8,0.8-1.5,1.3-2.1,1.3c-0.3,0-0.5-0.2-0.7-0.5c-0.2-0.4-0.3-0.8-0.3-1.3C902.7,3.1,902.8,3,903,3z M910.8,0.7
			c0.5,0,0.8,0.3,0.8,0.8l-0.1,5.6l4,0.1c0.2,0,0.5,0,1-0.1c0.5,0,0.8,0.2,0.8,0.6c-0.2,2.3-0.3,4.7-0.3,7.2c0,0.6-0.3,0.8-0.7,0.8
			c-1.3-0.1-3-0.2-5.1-0.2c-2.2,0-4.1,0.1-5.7,0.3c-0.4,0-0.6-0.2-0.6-0.6c0-0.5,0.1-0.7,0.4-0.8c1.1-0.1,2.8-0.2,4.9-0.2
			c1.3,0,3,0,5.3,0.1c0.3,0,0.4-0.3,0.4-0.8c0-0.6,0-1.2,0-1.7c0,0,0,0,0,0c-4.4,0-7.8,0.1-10.3,0.2c-0.4,0-0.6-0.2-0.6-0.6
			c0-0.4,0.3-0.7,0.8-0.7h10.1c0,0,0,0,0,0c0-0.8,0-1.5,0-2.1c0-0.2-0.1-0.4-0.4-0.4c-0.8-0.1-2.3-0.1-4.5-0.1
			c-1.7,0-3.6,0.1-5.7,0.3c-0.3,0-0.5-0.2-0.5-0.6c0-0.5,0.2-0.8,0.6-0.8l4.9-0.1l-0.1-5.6C910.1,1,910.3,0.7,910.8,0.7z M914.8,1.8
			c0,0,0.1,0,0.1,0.1c0.9,0.6,1.7,1,2.2,1.2c0.4,0.2,0.9,0.3,1.5,0.3c0.2,0,0.2,0.1,0.2,0.3c0,0.3-0.1,0.6-0.4,0.9
			c-0.6,0.4-1,0.6-1.3,0.6c-0.2,0-0.3-0.1-0.5-0.2c-0.3-0.2-1-1-2-2.5c-0.1-0.1-0.1-0.2-0.1-0.3C914.5,2,914.6,1.8,914.8,1.8z"/>
	</g>
</g>
<g>
	<g>
		<path class="st0" d="M314.4,0.3c0.3,0,0.5,0.2,0.5,0.5c0,0.2-0.1,0.5-0.2,0.7c-0.6,0.8-1.2,1.5-1.8,2.1C313,3.8,313,4,313,4.3
			c-0.1,1.4-0.1,2.6-0.1,3.7l0,7.7c0,1-0.2,1.5-0.7,1.5c-0.4,0-0.6-0.5-0.6-1.5c0.1-3.3,0.1-5.9,0.1-7.7c0-1,0-2.1-0.1-3.4
			c-0.3,0.2-0.5,0.5-0.8,0.7c-0.6,0.4-1,0.7-1.4,0.7c-0.3,0-0.6-0.1-0.9-0.4c-0.3-0.3-0.4-0.6-0.4-0.9c0-0.2,0.1-0.4,0.4-0.4
			c1.1-0.3,2-0.7,2.9-1.3c1-0.6,1.8-1.4,2.6-2.5C314.2,0.4,314.3,0.3,314.4,0.3z M319.5,9.1c0-0.3,0-0.6,0-1c0-0.6,0.2-0.9,0.6-0.9
			c0.4,0,0.6,0.3,0.6,0.9c0,0.3,0,0.7,0,1c0.8,0,1.6,0.1,2.5,0.2c0.9,0.1,1.8,0.1,2.6,0.1c0.3,0,0.6,0,1-0.1c0.1,0,0.1,0.1,0.1,0.3
			c0,0.4-0.1,0.9-0.3,1.3c-0.2,0.5-0.4,0.7-0.7,0.7c-0.2,0-0.5-0.1-0.8-0.3c-1-0.5-1.9-0.9-2.8-1.1c-0.5-0.1-1.1-0.2-1.7-0.2
			c0,0.2,0,0.4,0,0.6l0.1,5c0,1-0.2,1.5-0.7,1.5c-0.4,0-0.6-0.5-0.6-1.5c0-2.1,0.1-3.8,0.1-5c0-0.2,0-0.4,0-0.6
			c-0.8,0-1.6,0.1-2.2,0.3c-0.8,0.2-1.6,0.6-2.3,1c-0.2,0.1-0.4,0.2-0.6,0.2c-0.4,0-0.5-0.3-0.6-0.7c0-0.3,0.1-0.5,0.3-0.7
			c0.2-0.2,0.4-0.4,0.7-0.4C316.9,9.4,318.5,9.1,319.5,9.1z M314.8,13.5c0.4,0.1,0.6,0.1,0.8,0.1c0.5,0,1.1-0.2,1.8-0.7
			c0.2,0,0.2,0.1,0.2,0.3c0,0.2-0.3,0.7-0.8,1.4c-0.5,0.7-0.9,1.1-1.3,1.1c-0.3,0-0.5-0.2-0.7-0.5c-0.2-0.4-0.3-0.8-0.3-1.3
			C314.5,13.6,314.6,13.5,314.8,13.5z M316.9,1c0.2,0,0.4,0,0.6,0.1c0.2,0.1,0.5,0.1,0.9,0.1h2.4c0.5,0,1.2,0,2,0.1
			c0.2,0,0.4-0.1,0.7-0.2c0.4,0,0.6,0.2,0.6,0.7c0,0,0,0.1,0,0.2c-0.1,0.2-0.1,0.4-0.1,0.8c0,0.6-0.1,1.1-0.1,1.8
			c0,0.4,0,0.8,0.1,1.5c0,0.5-0.2,0.7-0.6,0.7c-1.2-0.1-2.2-0.2-3.2-0.2c-1.2,0-1.9,0-2.2,0c-0.3,0-0.6,0.1-1,0.1
			c-0.4,0-0.6-0.2-0.6-0.6c0.1-0.9,0.2-1.6,0.2-2.3c0-0.6-0.1-1.3-0.2-2.2C316.4,1.2,316.6,1,316.9,1z M320.1,5.5
			c0.7,0,1.5,0,2.3,0.1c0.2,0,0.3-0.1,0.3-0.3V2.6c0-0.2-0.1-0.3-0.2-0.3c-1-0.1-2.5-0.1-4.5-0.1c-0.3,0-0.4,0.2-0.4,0.5
			c0,0.9-0.1,1.7-0.2,2.5c0,0.3,0.2,0.4,0.5,0.4C318.6,5.5,319.3,5.5,320.1,5.5z M322.9,12.8c0,0,0,0,0.1,0c0.6,0.4,1.1,0.7,1.5,0.8
			c0.3,0.1,0.6,0.2,1.1,0.2c0.2,0,0.2,0.1,0.2,0.3c0,0.3-0.1,0.6-0.4,0.9c-0.6,0.4-1,0.6-1.3,0.6c-0.1,0-0.2-0.1-0.3-0.2
			c-0.1-0.2-0.5-0.8-1.1-2c0-0.1-0.1-0.2-0.1-0.2C322.7,12.9,322.8,12.8,322.9,12.8z"/>
		<path class="st0" d="M337.7,0.4c0.3,0,0.4,0.2,0.5,0.5c0.2,0.1,0.5,0.3,0.9,0.6c3,2.3,4.9,3.6,5.7,3.9c0.5,0.2,1.1,0.3,1.7,0.3
			c0.3,0,0.4,0.1,0.4,0.4c0,0.4-0.2,0.7-0.7,1.1c-0.5,0.4-0.9,0.5-1.4,0.5c-0.3,0-0.6-0.2-0.9-0.5c-1.2-1.3-2.6-2.7-4.2-4.1
			c-0.7-0.5-1.2-1-1.8-1.2c-0.1,0-0.1-0.1-0.2-0.1c-1,1.3-2.1,2.4-3.3,3.3c-1,0.8-2.2,1.5-3.5,2.1c-0.3,0.1-0.5,0.2-0.6,0.2
			c-0.3,0-0.7-0.2-1.1-0.7c-0.3-0.3-0.5-0.6-0.5-0.9c0-0.2,0.2-0.3,0.6-0.4c1-0.1,1.7-0.2,2.2-0.4c1.2-0.3,2.3-0.9,3.3-1.7
			c1.1-0.8,2-1.8,2.7-2.8C337.4,0.5,337.5,0.4,337.7,0.4z M334.2,6.5h7.7c0.2,0,0.3,0.1,0.3,0.3c0,0.3-0.1,0.6-0.2,0.8
			c-0.2,0.2-0.4,0.3-0.7,0.3c-0.2,0-0.6-0.1-1.3-0.2c-0.5,0-1.1-0.1-1.7-0.1l0,2.9h3.1c0.2,0,0.3,0.1,0.3,0.3c0,0.3-0.1,0.6-0.2,0.8
			c-0.2,0.2-0.4,0.3-0.7,0.3c-0.2,0-0.6-0.1-1.2-0.2c-0.4,0-0.8-0.1-1.3-0.1l0,3.1c0.7,0,1.5,0,2.3,0c0.9,0,1.7,0,2.4,0
			c0.3,0,0.6,0,0.9-0.1c0.1,0,0.1,0.1,0.1,0.3c0,0.4-0.1,0.8-0.3,1.2c-0.2,0.4-0.4,0.6-0.6,0.6c-0.2,0-0.5-0.1-0.7-0.2
			c-0.9-0.4-1.8-0.7-2.6-0.8c-0.6-0.1-1.4-0.1-2.3-0.1c-1,0-1.9,0.1-2.6,0.2c-0.8,0.2-1.5,0.4-2.3,0.6c-0.2,0.1-0.4,0.1-0.6,0.1
			c-0.4,0-0.5-0.3-0.6-0.7c0-0.2,0.1-0.5,0.3-0.7c0.2-0.2,0.4-0.3,0.6-0.4c2.1-0.2,3.7-0.2,4.7-0.3l0-3.1c-1.1,0-1.9,0.1-2.4,0.2
			c-0.3,0.1-0.5,0.2-0.6,0.2c-0.4,0-0.6-0.2-0.6-0.6c0-0.2,0.1-0.4,0.3-0.6c0.2-0.1,0.4-0.2,0.7-0.2h2.6l0-2.9c-1.1,0-2,0.1-2.5,0.2
			c-0.4,0.1-0.6,0.2-0.7,0.2c-0.4,0-0.7-0.3-0.7-0.7c0-0.2,0.1-0.4,0.3-0.6C333.7,6.6,333.9,6.5,334.2,6.5z"/>
		<path class="st0" d="M356.4,0.2c0.2,0,0.3,0.1,0.3,0.4c0,0.2-0.1,0.4-0.2,0.5c-0.8,0.3-1.5,0.5-2.1,0.7c0,0.1,0.1,0.3,0.1,0.5
			c0,1,0,1.9-0.1,2.8c0.9,0,1.5,0,2-0.1c0.2,0,0.2,0.2,0.2,0.5c0,0.2-0.1,0.3-0.2,0.5c-0.2,0.2-0.4,0.3-0.6,0.3
			c-0.4,0-0.9-0.1-1.4-0.1c0,0.1,0,0.2,0,0.3l0,1.7c0,0,0,0,0.1,0c0.1,0,0.4,0.3,1,0.8c0.6,0.5,0.9,0.9,0.9,1.1
			c0,0.4-0.2,0.6-0.6,0.6c-0.1,0-0.1-0.1-0.3-0.2c-0.5-0.4-0.9-0.8-1.1-0.9l0,6.1c0,1-0.2,1.5-0.7,1.5c-0.4,0-0.6-0.5-0.6-1.5
			c0-2.3,0-4.3,0.1-6c-0.3,0.5-0.6,0.9-1,1.3c-0.4,0.5-1,1-1.6,1.3c-0.1,0.1-0.2,0.1-0.3,0.1c-0.3,0-0.6-0.2-0.9-0.6
			c-0.3-0.3-0.4-0.6-0.4-0.9c0-0.2,0.2-0.2,0.5-0.3c0.4-0.1,0.7-0.1,0.9-0.2c0.5-0.2,1-0.5,1.4-0.9c0.4-0.4,0.8-1,1.1-1.5
			c0-0.1,0.1-0.1,0.2-0.2c0-0.4,0-0.8,0-1.2c0-0.1,0-0.2,0-0.4c-0.3,0-0.5,0-0.8,0c-0.5,0-1.2,0.1-2.2,0.3c-0.4,0-0.6-0.2-0.6-0.6
			c0-0.2,0.1-0.4,0.3-0.6c0.2-0.2,0.3-0.3,0.5-0.3l0.8,0.1c0.7,0,1.4,0,2,0c0-0.9,0-1.8-0.1-2.8c0,0,0-0.1,0-0.1
			c-0.3,0.1-0.6,0.1-0.8,0.2c-0.7,0.2-1.2,0.2-1.4,0.2c-0.3,0-0.6-0.1-0.9-0.4c-0.2-0.2-0.3-0.5-0.3-0.7c0-0.2,0.1-0.3,0.3-0.3
			c1.5,0,2.7-0.1,3.7-0.3c1-0.2,1.8-0.4,2.4-0.6C356.2,0.2,356.3,0.2,356.4,0.2z M359.8,4.4h5.3c0.1,0,0.2,0.1,0.2,0.2
			c0,0.3-0.1,0.5-0.2,0.7c-0.2,0.2-0.4,0.3-0.7,0.3c-0.1,0-0.4,0-0.9-0.1c-0.4,0-0.8,0-1.2,0c0,0.1-0.1,0.2-0.1,0.4
			c-0.3,0.4-0.7,0.8-1.1,1.1c0.4,0.6,0.8,1.2,1,1.8c0,0,0.1,0,0.1,0c1.2-0.6,2.1-1.1,2.8-1.7c0.1-0.1,0.2-0.1,0.2-0.1
			c0.4,0,0.6,0.3,0.6,0.8c0,0.2-0.1,0.4-0.3,0.5c-0.4,0.3-1,0.5-1.7,0.8c0.1,0.1,0.1,0.2,0.2,0.3c1.5,2.2,2.4,3.4,2.8,3.6
			c0.2,0.1,0.5,0.3,0.8,0.3c0.2,0,0.3,0.1,0.3,0.4c0,0.3-0.2,0.6-0.6,0.9c-0.4,0.3-0.8,0.4-1.2,0.4c-0.3,0-0.6-0.1-0.8-0.4
			c-0.5-1.2-1-2.5-1.6-3.8c-0.3-0.5-0.5-0.9-0.7-1.2c-0.1-0.1-0.1-0.2-0.1-0.3c-0.3,0.1-0.4,0.2-0.5,0.2c0,0,0,0.1,0,0.1
			c0.3,1.1,0.5,2.2,0.5,3.2c0,0.9-0.1,1.7-0.3,2.3c-0.3,0.6-0.6,1.2-1.1,1.6c-0.3,0.3-0.6,0.4-0.8,0.4c-0.4,0-0.7-0.1-1-0.3
			c-0.2-0.2-0.4-0.5-0.4-0.8c0-0.1,0.1-0.3,0.2-0.4c0.9-0.3,1.5-0.8,1.8-1.2c0.3-0.5,0.4-1,0.4-1.6c0-0.3,0-0.6,0-0.9
			c-0.8,0.9-1.4,1.4-1.8,1.8c-0.6,0.4-1.3,0.8-2.1,1.1c-0.2,0.1-0.4,0.1-0.5,0.1c-0.4,0-0.7-0.1-0.9-0.4c-0.2-0.2-0.3-0.4-0.3-0.7
			c0-0.2,0.1-0.3,0.2-0.3c0.9-0.1,1.6-0.3,2.1-0.5c0.5-0.2,0.9-0.4,1.3-0.7c0.5-0.3,1-0.8,1.7-1.5c0,0,0.1,0,0.1,0
			c-0.1-0.3-0.2-0.6-0.3-0.9c0-0.1-0.1-0.3-0.1-0.4c-0.6,0.7-1.1,1.2-1.5,1.4c-0.5,0.3-1,0.6-1.6,0.8c-0.1,0.1-0.3,0.1-0.4,0.1
			c-0.3,0-0.6-0.1-0.8-0.4c-0.2-0.2-0.3-0.4-0.3-0.7c0-0.2,0.1-0.3,0.2-0.3c0.7-0.1,1.2-0.2,1.7-0.3c0.4-0.1,0.7-0.3,1-0.5
			c0.4-0.2,0.8-0.5,1.3-1c0,0,0,0,0,0c-0.2-0.4-0.4-0.7-0.6-1c-0.3,0.3-0.7,0.5-1.1,0.8c-0.4,0.3-0.8,0.5-1.1,0.5
			c-0.2,0-0.4-0.1-0.7-0.4c-0.2-0.2-0.3-0.4-0.3-0.7c0-0.2,0.1-0.3,0.3-0.3c0.8-0.2,1.6-0.5,2.2-0.8c0.5-0.3,1.1-0.7,1.6-1.1
			c-0.6,0-1.1,0.1-1.4,0.1c-0.2,0.1-0.4,0.1-0.5,0.1c-0.4,0-0.5-0.2-0.6-0.6c0-0.2,0.1-0.4,0.3-0.6C359.3,4.4,359.5,4.4,359.8,4.4z
			 M362.2,0.1c0.5,0,0.7,0.3,0.7,0.8c-0.1,0.4-0.1,0.7-0.2,1.1c1.4,0,2.6,0.1,3.6,0.3l0.7-0.2c0.3,0,0.5,0.2,0.5,0.5
			c0,0.1,0,0.2-0.1,0.4c-0.2,0.5-0.3,1.3-0.4,2.3c0,0.4-0.2,0.6-0.5,0.6c-0.3,0-0.4-0.2-0.4-0.5c0-0.6,0-1.2,0.1-1.7
			c0-0.1-0.1-0.1-0.2-0.2c-1-0.3-2.3-0.4-3.6-0.4c-1.3,0-2.5,0.1-3.6,0.3c-0.3,0-0.5,0.2-0.6,0.4l0,0.1c0,1.1-0.1,1.7-0.2,1.9
			C358,5.9,357.8,6,357.6,6c-0.2,0-0.3-0.1-0.3-0.3c0-1.3-0.1-2.4-0.2-3.3c0-0.4,0.2-0.6,0.5-0.6c0.2,0,0.4,0,0.5,0.1
			c0.2,0.1,0.4,0.1,0.5,0.1c0.7-0.1,1.6-0.1,2.8-0.1c0.1,0,0.2,0,0.4,0c0-0.3-0.1-0.6-0.2-0.9C361.5,0.5,361.7,0.1,362.2,0.1z"/>
		<path class="st0" d="M375.1,0.2c0.3,0,0.5,0.2,0.5,0.5c0,0.2-0.1,0.4-0.2,0.6c-0.5,0.8-1,1.6-1.6,2.3c0.1,0.2,0.1,0.4,0.1,0.6
			c-0.1,1.4-0.1,2.6-0.1,3.7l0,7.7c0,1-0.2,1.5-0.7,1.5c-0.4,0-0.6-0.5-0.6-1.5c0.1-3.3,0.1-5.9,0.1-7.7c0-1,0-2-0.1-3.1
			c-0.1,0.1-0.2,0.2-0.2,0.2c-0.5,0.4-0.8,0.6-1.1,0.6c-0.3,0-0.6-0.1-0.9-0.4c-0.3-0.3-0.4-0.6-0.4-0.9c0-0.2,0.1-0.4,0.4-0.4
			c0.9-0.2,1.6-0.7,2.3-1.2c0.8-0.6,1.5-1.4,2.1-2.4C374.9,0.3,375,0.2,375.1,0.2z M381.3,1.1c0.3,0,0.4,0.1,0.4,0.4
			c0,0.3-0.1,0.5-0.3,0.6c-0.9,0.3-1.6,0.5-2.3,0.7l0,1.4h3c0.1,0,0.2,0.1,0.2,0.3c0,0.3-0.1,0.5-0.2,0.6c-0.2,0.2-0.4,0.3-0.7,0.3
			c-0.1,0-0.5,0-1.1-0.1c-0.4,0-0.8,0-1.3,0v1.1c0.5,0,1,0,1.6,0.1c0.2,0,0.4,0,0.6-0.1c0.4,0,0.6,0.2,0.6,0.6c0,0,0,0.1-0.1,0.1
			c-0.1,0.1-0.1,0.4-0.1,0.8c0,0.5-0.1,1-0.1,1.6c0,0.4,0,0.8,0.1,1.4c0,0.4-0.2,0.7-0.5,0.7c-0.8-0.1-1.5-0.2-2.2-0.2v1h2.2
			c0.2,0,0.2,0.1,0.2,0.4c0,0.2-0.1,0.3-0.2,0.4c-0.1,0.2-0.3,0.3-0.5,0.3c-0.4-0.1-1-0.1-1.8-0.2v1c0.9-0.1,1.6-0.2,2.1-0.3
			c0.2,0,0.2,0.1,0.2,0.4c0,0.3-0.1,0.5-0.3,0.6c-2,0.5-3.9,1-5.6,1.6c-0.4,0-0.6-0.2-0.6-0.6c0-0.3,0.1-0.6,0.2-0.7
			c0.1-0.1,0.2-0.2,0.5-0.3c0.9-0.2,1.8-0.4,2.5-0.5v-1.2c-0.1,0-0.2,0-0.3,0c-0.4,0-1,0.1-1.8,0.3c-0.4,0-0.6-0.2-0.6-0.5
			c0-0.2,0.1-0.3,0.2-0.5c0.1-0.2,0.3-0.2,0.5-0.2h2v-1c-0.8,0-1.4,0-1.6,0.1c-0.2,0-0.5,0.1-0.8,0.2c-0.3,0-0.5-0.2-0.5-0.7
			c0.1-0.8,0.1-1.5,0.1-2.1c0-0.6,0-1.2-0.1-2c0-0.4,0.2-0.6,0.6-0.6c0.2,0,0.3,0,0.5,0c0.2,0,0.4,0,0.8,0h1.1V5.1
			c-1,0-1.8,0.1-2.3,0.2c-0.3,0.1-0.5,0.2-0.6,0.2c-0.4,0-0.5-0.3-0.6-0.7c0-0.2,0.1-0.4,0.3-0.6c0.2-0.1,0.4-0.2,0.7-0.2h2.5l0-1.1
			c-0.1,0-0.3,0.1-0.4,0.1c-0.7,0.1-1.1,0.2-1.3,0.2c-0.3,0-0.6-0.1-0.8-0.4c-0.2-0.2-0.3-0.4-0.3-0.6c0-0.2,0.1-0.3,0.3-0.3
			c1.4,0,2.5-0.1,3.4-0.3c0.9-0.1,1.6-0.3,2.3-0.5C381.2,1.1,381.3,1.1,381.3,1.1z M378.1,10.4l0-1.1c-0.6,0-1.2,0.1-1.6,0.1
			c0,0-0.1,0-0.1,0c0,0.2-0.1,0.4-0.1,0.6c0,0.3,0.1,0.5,0.4,0.5C377.1,10.4,377.5,10.4,378.1,10.4z M376.4,8.3
			C376.4,8.3,376.5,8.3,376.4,8.3h1.6v-1c-0.4,0-0.8,0-1.3,0c-0.2,0-0.3,0.1-0.3,0.4C376.4,7.9,376.4,8.1,376.4,8.3z M379.1,9.3
			l0,1.1c0.4,0,0.9,0,1.3,0.1c0.2,0,0.3-0.1,0.3-0.4V9.2c0,0-0.1,0-0.1,0C380.1,9.2,379.5,9.2,379.1,9.3z M379.1,7.3l0,1h1.5
			c0.1,0,0.1,0,0.2,0V7.6c0-0.1-0.1-0.2-0.2-0.2C380.1,7.3,379.6,7.3,379.1,7.3z M384.7,5.5c0.2-1.5,0.3-2.9,0.3-4.1
			c0-0.4,0.2-0.6,0.5-0.6c0.4,0,0.6,0.2,0.7,0.7c0,0.1,0,0.4-0.1,0.9c-0.1,1.2-0.2,2.2-0.3,3.2h1.7c0.1,0,0.3-0.1,0.7-0.2
			c0.4,0,0.6,0.2,0.6,0.7c-0.2,1.8-0.4,3.6-0.5,5.3c-0.1,2.4-0.4,4-0.9,4.8c-0.4,0.7-1,1.1-1.6,1.1c-0.3,0-0.6-0.2-0.8-0.5
			c-0.1-0.3-0.2-0.6-0.2-0.8c0-0.3,0.1-0.4,0.3-0.5c0.8-0.1,1.4-0.4,1.6-0.9c0.3-0.5,0.5-2.1,0.7-4.7c0.1-1.6,0.1-2.6,0.1-2.9
			c0-0.2-0.1-0.4-0.2-0.4h-1.6h0c-0.1,1.2-0.3,2.1-0.4,2.9c-0.3,1.5-0.6,3-1.1,4.3c-0.4,1.1-0.9,2.1-1.6,2.9
			c-0.2,0.3-0.5,0.5-0.7,0.5c-0.2,0-0.4-0.1-0.6-0.4c-0.2-0.3-0.3-0.5-0.3-0.8c0-0.2,0.1-0.3,0.2-0.4c0.6-0.4,1.1-0.8,1.5-1.5
			c0.5-0.8,0.9-2,1.3-3.6c0.3-1.2,0.5-2.5,0.7-4c-0.3,0-0.6,0.1-0.9,0.1C383.3,6.9,383.1,7,383,7c-0.3,0-0.5-0.2-0.5-0.5
			c0-0.5,0.2-0.9,0.6-0.9C383.4,5.5,383.9,5.5,384.7,5.5z"/>
		<path class="st0" d="M404.7,13.2c0,0.6-0.1,1.1-0.4,1.5c-0.3,0.4-0.7,0.7-1.1,0.8c-0.8,0.2-2.2,0.3-4.4,0.3c-4,0-6-1-6-3.1
			c0-1,0.4-1.9,1.1-2.8c0.1-0.2,0.8-0.9,2.1-2.1c-0.1-1-0.2-1.8-0.2-2.6V3c0-1.5,0.2-2.3,0.7-2.3c0.5,0,0.7,0.3,0.7,0.9
			c0,0.1,0,0.3-0.1,0.5c-0.1,0.3-0.1,0.5-0.1,0.6c-0.1,0.7-0.1,1.6-0.1,2.7c0,0.5,0,1.1,0.1,1.5c2-1.7,3.2-2.6,3.5-2.6
			c0.3,0,0.4,0.1,0.5,0.3c0.1,0.2,0.2,0.3,0.3,0.5c0,0.4-0.3,0.7-0.7,1c-0.9,0.5-1.8,1.1-2.7,1.6c-1.3,0.8-2.3,1.6-3,2.3
			c-0.9,0.9-1.4,1.8-1.4,2.7c0,1.1,0.9,1.7,2.6,1.7c1.1,0,2.5-0.1,4-0.3c1.3-0.2,2.4-0.5,3.3-0.8c0.4-0.2,0.7-0.2,0.9-0.2
			C404.7,12.9,404.7,13,404.7,13.2z"/>
		<path class="st0" d="M408.6,3c0.4,0,0.6,0.3,0.6,0.8c-0.1,0.6-0.1,1.2-0.1,1.7v2.8c0,0.9-0.2,1.4-0.6,1.4c-0.4,0-0.6-0.5-0.6-1.4
			c0.1-1.2,0.1-2.1,0.1-2.8c0-0.5,0-1.1-0.1-1.7C408,3.3,408.2,3,408.6,3z M411,0.1c0.4,0,0.6,0.3,0.6,0.9c-0.1,1.7-0.1,3.3-0.1,4.7
			l0.1,10.1c0,1-0.2,1.5-0.7,1.5c-0.4,0-0.6-0.5-0.6-1.5c0.1-4.3,0.1-7.7,0.1-10.1c0-1.4,0-3-0.1-4.7C410.4,0.5,410.6,0.1,411,0.1z
			 M413.4,1.3c0.5,0,0.7,0.2,0.7,0.7L413,4.5c-0.1,0.2-0.2,0.4-0.5,0.4c-0.3,0-0.4-0.2-0.4-0.5l0.7-2.5
			C412.9,1.5,413.1,1.3,413.4,1.3z M419.4,0.1c0.5,0,0.7,0.2,0.7,0.7l0,0.7h3.7c0.1,0,0.2,0.1,0.2,0.3c0,0.3-0.1,0.5-0.2,0.7
			c-0.2,0.2-0.4,0.3-0.7,0.3c-0.2,0-0.7,0-1.4-0.1c-0.5,0-1.1,0-1.7,0l0,1.2h3.2c0.1,0,0.2,0.1,0.2,0.3c0,0.3-0.1,0.5-0.2,0.7
			c-0.2,0.2-0.4,0.3-0.7,0.3c-0.2,0-0.5,0-1.1-0.1c-0.5,0-0.9,0-1.4,0l0,1.1c0.7,0,1.4,0.1,2.2,0.2c0.9,0.1,1.7,0.1,2.3,0.1
			c0.4,0,0.8,0,1.3-0.1c0.1,0,0.2,0.2,0.2,0.5c0,0.4-0.1,0.9-0.4,1.4c-0.2,0.4-0.4,0.6-0.5,0.6c-0.3,0-0.6-0.1-1-0.4
			c-0.7-0.4-1.4-0.8-2.1-0.9c-0.8-0.2-1.8-0.3-2.8-0.3c-1,0-2,0.1-2.9,0.2c-0.6,0.1-1.4,0.5-2.6,1.3c-0.4,0-0.6-0.2-0.6-0.6
			c0-0.3,0.1-0.5,0.3-0.7c0.2-0.3,0.5-0.5,0.9-0.5c2-0.5,3.6-0.8,4.7-0.8l0-1.1c-1,0-1.7,0.1-2.1,0.2c-0.3,0.1-0.5,0.2-0.6,0.2
			c-0.3,0-0.5-0.2-0.6-0.6c0-0.2,0.1-0.4,0.3-0.6c0.2-0.1,0.4-0.2,0.7-0.2h2.3l0-1.2c-1.2,0-2.1,0.1-2.6,0.2
			c-0.4,0.1-0.6,0.2-0.7,0.2c-0.3,0-0.5-0.2-0.6-0.6c0-0.2,0.1-0.4,0.3-0.6c0.2-0.1,0.4-0.2,0.7-0.2h2.9l0-0.7
			C418.7,0.4,419,0.1,419.4,0.1z M416.5,8.2c0.2,0,0.3,0,0.4,0.1l4.3,0.1c0.2,0,0.5-0.1,0.9-0.2c0.5,0,0.7,0.2,0.7,0.6
			c-0.2,1-0.3,2.2-0.3,3.6c0,0.9,0.1,2.2,0.2,3.9c0,0.6-0.2,0.9-0.7,0.9c-0.2,0-0.3-0.1-0.4-0.3c-0.1-0.3-0.1-0.7-0.1-1.2
			c0-0.5,0-1,0-1.4c-1.8,0-3.3,0.1-4.3,0.2c-0.1,0-0.1,0-0.2,0c-0.1,0.6-0.3,1-0.5,1.3c-0.5,0.8-1,1.2-1.4,1.2c-0.3,0-0.7-0.2-1-0.6
			c-0.2-0.3-0.3-0.5-0.3-0.7c0-0.1,0.1-0.2,0.2-0.2c0.7-0.1,1.2-0.4,1.6-1.2c0.3-0.5,0.4-1.5,0.4-3c0-0.8-0.1-1.6-0.2-2.5
			C416,8.4,416.1,8.2,416.5,8.2z M417.1,13.5c0,0,0.1,0,0.1,0h4.2c0-0.6,0-1.2,0-1.7c-1.8,0-3.2,0.1-4.2,0.2c0,0-0.1,0-0.1,0
			C417.2,12.5,417.2,13,417.1,13.5z M417.2,10.8c0.1,0,0.1,0,0.2,0h4.1c0,0,0.1,0,0.1,0c0-0.5,0.1-0.9,0.1-1.3
			c0-0.2-0.2-0.3-0.5-0.3c-1.4,0-2.7,0-3.9,0.1C417.2,9.9,417.2,10.4,417.2,10.8z"/>
		<path class="st0" d="M431.5,6.6c0.4,0,0.7,0.2,0.7,0.6l-0.1,1.3c1,0,1.8,0,2.5,0l0.1-1.5c0.1-0.3,0.3-0.5,0.6-0.5
			c0.4,0,0.6,0.2,0.6,0.6l-0.5,1.3c1,0,1.8,0,2.4,0c0.2,0,0.2,0.2,0.2,0.5c0,0.2-0.1,0.4-0.2,0.5c-0.2,0.2-0.4,0.4-0.6,0.4
			c-0.8,0-1.8-0.1-3.1-0.1c0,0.1,0,0.2,0,0.3c0,0.7-0.1,1.3-0.1,1.8h2.9c0.2,0,0.3,0.1,0.3,0.3c0,0.3-0.1,0.6-0.2,0.8
			c-0.2,0.2-0.4,0.3-0.7,0.3c-0.1,0-0.5-0.1-1.1-0.2c-0.4,0-0.7-0.1-1.1-0.1l0.1,2.7c0,1-0.2,1.5-0.7,1.5c-0.4,0-0.6-0.5-0.6-1.5
			c0-1.1,0.1-2,0.1-2.7c-1,0-1.7,0.1-2.2,0.3c-0.3,0.1-0.5,0.2-0.6,0.2c-0.4,0-0.7-0.3-0.7-0.7c0-0.2,0.1-0.4,0.3-0.6
			c0.2-0.1,0.4-0.2,0.8-0.2h2.4c0-0.5,0-1.1-0.1-1.8c0-0.1,0-0.2,0-0.3c-0.5,0-1,0-1.6,0c-0.5,0-1.2,0.1-2.2,0.3
			c-0.4,0-0.6-0.2-0.6-0.6c0-0.2,0.1-0.4,0.3-0.6c0.2-0.2,0.3-0.3,0.5-0.3l0.8,0.1c0.5,0,1,0,1.4,0c0-0.1,0-0.1,0-0.2l-0.4-1.2
			C430.9,6.8,431.1,6.6,431.5,6.6z M430.4,1.7l0.8,0.1c0.6,0,1.1,0,1.6,0l0-0.8c0-0.5,0.2-0.7,0.6-0.7c0.5,0,0.7,0.2,0.7,0.7l0,0.8
			c1.1,0,2,0,2.5-0.1c0.2,0,0.2,0.2,0.2,0.5c0,0.2-0.1,0.3-0.2,0.5C436.4,2.8,436.2,3,436,3c-0.5,0-1.1-0.1-2-0.1L434,4.8h3.2
			c0.2,0,0.3,0.1,0.3,0.3c0,0.3-0.1,0.6-0.2,0.8c-0.2,0.2-0.4,0.3-0.7,0.3c-0.2,0-0.6-0.1-1.3-0.2C434.6,6,433.8,6,433,6
			c-1.3,0-2.3,0.1-2.9,0.2c-0.3,0.1-0.6,0.2-0.7,0.2c-0.4,0-0.6-0.2-0.7-0.6c0-0.2,0.1-0.5,0.3-0.6c0.2-0.1,0.4-0.2,0.7-0.2h3
			l-0.1-2c-0.1,0-0.3,0-0.5,0c-0.5,0-1.2,0.1-2.1,0.3c-0.4,0-0.6-0.2-0.6-0.6c0-0.2,0.1-0.4,0.2-0.7C430,1.7,430.2,1.7,430.4,1.7z
			 M439.1,0.8c0.2,0,0.4,0.1,0.5,0.2c0.1,0,0.1,0,0.2,0h1.5c0.7,0,1.5,0,2.2,0.1c0.3-0.2,0.6-0.3,0.7-0.3c0.4,0,0.6,0.3,0.6,0.8
			c0,0.1,0,0.2-0.1,0.4c-0.1,0.3-0.1,1.2-0.1,2.8c0,0.7-0.2,1.3-0.7,1.8c-0.6,0.5-1.1,0.7-1.5,0.7c-0.3,0-0.6-0.2-0.8-0.5
			c-0.2-0.3-0.3-0.5-0.3-0.8c0-0.1,0.1-0.2,0.3-0.3c0.9-0.2,1.4-0.4,1.6-0.6c0.2-0.2,0.3-0.5,0.3-1c0-0.6,0-1.2,0-1.8
			c0-0.2-0.1-0.3-0.4-0.3c-1.2,0-2.2,0.1-2.9,0.2c-0.2,0.1-0.3,0.1-0.4,0.1c0,1.4-0.1,2.6-0.1,3.7l0.1,9.4c0,1-0.2,1.5-0.7,1.5
			c-0.4,0-0.6-0.5-0.6-1.5c0.1-4,0.1-7.2,0.1-9.4c0-1.3,0-2.8-0.1-4.5C438.4,1.1,438.6,0.8,439.1,0.8z M441.1,8.3
			c1.1,0,2.2,0,3.2,0.1c0.1,0,0.1,0,0.2-0.1c0.1-0.1,0.2-0.1,0.2-0.1c0.3,0,0.4,0.2,0.4,0.6c0,0.2,0,0.3-0.1,0.5
			c-0.1,0.3-0.3,0.7-0.5,1.2c-0.4,1.1-0.7,2-1,2.8c0.7,0.6,1.3,1,1.8,1.2c0.5,0.3,1,0.4,1.3,0.4c0.1,0,0.2,0.1,0.2,0.2
			c0,0.4-0.2,0.9-0.6,1.4c-0.3,0.3-0.5,0.4-0.8,0.4c-0.1,0-0.3-0.1-0.4-0.2c-0.2-0.2-0.8-0.7-1.6-1.8c-0.1-0.2-0.3-0.3-0.4-0.5
			c-0.4,0.6-0.8,1.1-1.1,1.4c-0.4,0.4-0.8,0.6-1,0.6c-0.3,0-0.5-0.2-0.7-0.4c-0.2-0.2-0.3-0.4-0.3-0.6c0-0.2,0.1-0.4,0.3-0.4
			c0.9-0.5,1.6-1,2-1.6c-0.3-0.3-0.5-0.6-0.7-0.7c-0.3-0.3-0.6-0.4-0.9-0.6c-0.3-0.1-0.5-0.3-0.5-0.6c0-0.4,0.2-0.6,0.5-0.7
			c0.1,0,0.2,0.1,0.4,0.2c0.7,0.5,1.3,1,1.8,1.4c0.3-0.6,0.6-1.4,1-2.4c0.1-0.3,0.2-0.6,0.2-0.7c0-0.1-0.1-0.2-0.2-0.2
			c-0.7,0-1.5,0-2.2,0.1c-0.5,0.1-0.8,0.1-0.9,0.1c-0.3,0-0.4-0.2-0.4-0.5c0-0.2,0.1-0.4,0.3-0.6C440.6,8.4,440.8,8.3,441.1,8.3z"/>
		<path class="st0" d="M452.8,0.6c0.8,0,1.7,0.1,2.5,0.2c0.2,0,0.4,0,0.7-0.1c0.4,0,0.6,0.2,0.6,0.6c0,0.1-0.1,0.3-0.3,0.4
			c-0.4,0.5-0.8,1.1-1.2,1.5c-0.6,0.9-1.4,1.8-2.3,2.7c-0.9,0.8-1.7,1.5-2.6,2c-0.3,0.2-0.6,0.3-0.8,0.3c-0.3,0-0.7-0.2-1-0.6
			c-0.2-0.3-0.3-0.6-0.3-0.9c0-0.2,0.1-0.4,0.3-0.4c1.2-0.1,2.4-0.7,3.6-1.6c0.1-0.1,0.2-0.1,0.2-0.2c0,0,0,0-0.1,0
			c-0.5-0.4-1-0.7-1.2-0.8c-0.2-0.1-0.4-0.2-0.4-0.3c0-0.5,0.2-0.8,0.7-0.8c0.1,0,0.4,0.2,0.9,0.6c0.4,0.3,0.7,0.5,0.7,0.7
			c0.6-0.6,1.1-1.2,1.7-1.9c0.2-0.2,0.3-0.3,0.3-0.4c0-0.1-0.1-0.2-0.2-0.2c-0.7,0-1.5,0.1-2.4,0.3c-0.3,0-0.5-0.2-0.5-0.6
			c0-0.2,0.1-0.4,0.2-0.6C452.3,0.7,452.5,0.6,452.8,0.6z M454.1,6h7.3c0.2,0,0.3,0.1,0.3,0.3c0,0.3-0.1,0.6-0.2,0.8
			c-0.2,0.2-0.4,0.3-0.7,0.3c-0.2,0-0.6-0.1-1.2-0.2c0,0.1,0,0.2,0,0.3c0,0.8,0,1.8,0,2.8h3.7c0.2,0,0.3,0.1,0.3,0.3
			c0,0.3-0.1,0.6-0.2,0.8c-0.2,0.2-0.4,0.3-0.7,0.3c-0.3,0-0.9-0.1-2-0.2c-0.3,0-0.7,0-1,0c0,0.9,0,1.9,0,3c0,0.2,0.1,0.3,0.2,0.3
			c0.2,0,0.7,0,1.6,0c1.3,0,2.5-0.2,3.5-0.5c0.2,0,0.2,0.2,0.2,0.5c0,0.4-0.1,0.9-0.4,1.4c-0.3,0.6-0.5,0.9-0.8,0.9
			c-0.2,0-1.8-0.2-4.9-0.7c-0.5-0.1-0.7-0.4-0.7-0.9c0.1-1.7,0.1-3,0.1-4c-0.4,0-0.9,0-1.4,0c-0.4,0-0.7,0-1.1,0
			c-0.1,0.6-0.2,1.1-0.4,1.5c-0.4,1.2-1,2.1-1.6,2.7c-0.8,0.9-1.6,1.3-2.3,1.3c-0.2,0-0.4-0.1-0.6-0.3c-0.3-0.4-0.5-0.7-0.5-1.1
			c0-0.2,0.1-0.3,0.4-0.4c0.7-0.1,1.4-0.4,1.8-0.7c0.8-0.4,1.4-1.2,1.9-2.6c0.1-0.2,0.1-0.4,0.2-0.6c-0.9,0-1.6,0.1-2.2,0.2
			c-0.5,0.1-0.9,0.2-1,0.2c-0.4,0-0.7-0.3-0.7-0.7c0-0.2,0.1-0.4,0.3-0.6c0.2-0.1,0.4-0.2,0.8-0.2h3c0.1-0.6,0.1-1.3,0.1-2v-1
			c0,0,0-0.1,0-0.1c-0.3,0-0.6,0-0.8,0.1c-0.3,0.1-0.6,0.2-0.7,0.2c-0.4,0-0.6-0.3-0.7-0.7c0-0.2,0.1-0.4,0.3-0.6
			C453.6,6.1,453.8,6,454.1,6z M458.4,10.4c0-0.9,0-1.9-0.1-3c0-0.1,0-0.1,0-0.2c-0.4,0-0.7,0-1.1,0c-0.4,0-0.7,0-1,0
			c0,0.1,0,0.2,0,0.3c-0.1,0.7-0.2,1.4-0.2,2.3c0,0.2,0,0.4,0,0.6H458.4z M461.4,0.3c0.3,0,0.5,0.2,0.5,0.7c0,0.3-0.1,0.5-0.3,0.6
			l-1.2,1c0.4,0.4,0.8,0.8,1.2,1.1c0,0,0-0.1,0.1-0.1l1.4-1.4c0.2-0.1,0.3-0.2,0.4-0.2c0.3,0,0.5,0.2,0.5,0.7c0,0.3-0.1,0.5-0.3,0.6
			L462,4.2c1.2,1.1,2,1.8,2.5,2c0.4,0.2,1,0.3,1.6,0.4c0.3,0,0.4,0.1,0.4,0.4c0,0.3-0.2,0.7-0.7,1c-0.4,0.3-0.9,0.5-1.4,0.5
			c-0.3,0-0.6-0.1-0.9-0.4c-1.1-1.6-2.4-3.1-3.8-4.7c-0.6-0.6-1.1-1.1-1.6-1.4c-0.2-0.1-0.4-0.4-0.4-0.6c0-0.4,0.2-0.6,0.6-0.6
			c0.2,0,0.5,0.3,1,0.8c0.2,0.2,0.4,0.3,0.5,0.5c0,0,0-0.1,0-0.1l1.2-1.5C461.2,0.4,461.3,0.3,461.4,0.3z"/>
		<path class="st0" d="M474.1,0.1c0.3,0,0.5,0.2,0.5,0.5c0,0.2-0.1,0.4-0.2,0.6c-0.5,0.7-1,1.4-1.5,2.1c0.1,0.2,0.2,0.4,0.2,0.7
			c-0.1,1.4-0.1,2.7-0.1,3.8l-0.1,7.8c0,1-0.2,1.5-0.7,1.5c-0.4,0-0.6-0.5-0.6-1.5c0.1-3.4,0.2-6,0.2-7.8c0-1,0-2.1,0-3.4
			c-0.2,0.2-0.5,0.5-0.7,0.7c-0.5,0.4-0.9,0.7-1.2,0.7c-0.3,0-0.6-0.1-0.9-0.4c-0.3-0.3-0.5-0.6-0.5-0.9c0-0.2,0.1-0.4,0.4-0.4
			c0.9-0.3,1.8-0.7,2.5-1.3c0.8-0.6,1.6-1.4,2.3-2.5C473.9,0.2,474,0.1,474.1,0.1z M479.6,4c0.9,0,2,0.1,3.2,0.2
			c0.9,0.1,1.7,0.1,2.4,0.1c0.4,0,1,0,1.6-0.1c0.1,0,0.2,0.2,0.2,0.5c0,0.5-0.2,1-0.5,1.5c-0.3,0.4-0.5,0.6-0.7,0.6
			c-0.3,0-0.6-0.1-1.1-0.4c-0.7-0.4-1.4-0.8-2.2-0.9c-0.9-0.2-1.8-0.3-2.9-0.3c-0.9,0-1.8,0.1-2.6,0.2c-0.5,0.1-1.3,0.4-2.3,1
			c-0.5,0-0.7-0.2-0.7-0.6c0-0.3,0.1-0.5,0.3-0.7c0.2-0.3,0.6-0.5,1-0.5C477,4.1,478.5,4,479.6,4z M476.9,11.7c0.2,0,0.4,0,0.6,0.1
			c0.2,0,0.5,0.1,0.9,0.1h2.1c0.5,0,1,0,1.7,0.1c0.2,0,0.4-0.1,0.7-0.2c0.4,0,0.6,0.2,0.6,0.7c0,0,0,0.1,0,0.1
			c-0.1,0.1-0.1,0.4-0.1,0.8c0,0.5-0.1,1-0.1,1.6c0,0.3,0,0.7,0.1,1.2c0,0.5-0.2,0.7-0.6,0.7c-1-0.1-1.9-0.2-2.7-0.2
			c-1.1,0-1.9,0-2.2,0c-0.3,0-0.6,0.1-0.9,0.1c-0.4,0-0.6-0.2-0.6-0.6c0.1-0.8,0.2-1.5,0.2-2c0-0.5-0.1-1.2-0.2-1.9
			C476.3,11.9,476.5,11.7,476.9,11.7z M477.3,6.8h5.2c0.4,0,0.6,0.2,0.6,0.6c0,0.3-0.2,0.5-0.6,0.5c-2.3,0-4.1,0.1-5.3,0.2
			c-0.4,0-0.6-0.2-0.6-0.6C476.5,7,476.8,6.8,477.3,6.8z M477.3,9.1h5.2c0.4,0,0.6,0.2,0.6,0.6c0,0.3-0.2,0.5-0.6,0.5
			c-2.3,0-4.1,0.1-5.3,0.2c-0.4,0-0.6-0.2-0.6-0.6C476.5,9.4,476.8,9.1,477.3,9.1z M477.7,1.3h5.3c0.1,0,0.2,0.1,0.2,0.3
			c0,0.2-0.1,0.5-0.2,0.6c-0.2,0.2-0.4,0.3-0.7,0.3c-0.1,0-0.4,0-0.9-0.1c-0.5,0-1,0-1.6,0c-1,0-1.7,0.1-2.2,0.2
			c-0.3,0.1-0.4,0.2-0.5,0.2c-0.4,0-0.6-0.2-0.6-0.6c0-0.2,0.1-0.4,0.3-0.6C477.2,1.3,477.4,1.3,477.7,1.3z M480,15.6
			c0.5,0,1.2,0,1.8,0.1c0.2,0,0.3-0.1,0.3-0.3v-2.2c0-0.2,0-0.3-0.1-0.3c-0.9-0.1-2.2-0.1-3.9-0.1c-0.3,0-0.4,0.2-0.4,0.5
			c0,0.7-0.1,1.3-0.2,2c0,0.3,0.2,0.4,0.5,0.4C478.5,15.7,479.2,15.6,480,15.6z"/>
		<path class="st0" d="M503.6,6.1c0,0.3-0.3,0.6-0.8,1c-1.2,0.9-2.9,2-5.1,3.4c0,0.1,0,0.4,0,0.8c0,0.3,0,0.6,0,0.8
			c0,0.5-0.2,0.7-0.7,0.7c-0.3,0-0.4-0.2-0.5-0.6c0-0.1,0-0.4,0-1c-0.8,0.5-1.4,0.8-1.7,1.1c-0.7,0.6-1.1,1.1-1.1,1.7
			c0,0.4,0.3,0.6,1,0.8c0.5,0.1,1,0.2,1.5,0.2c1.5,0,2.8-0.3,4-0.8c0.9-0.4,1.4-0.6,1.4-0.6c0.1,0,0.2,0.1,0.2,0.4
			c0,0.5-0.1,1-0.4,1.5c-0.2,0.4-0.7,0.6-1.6,0.8c-0.7,0.1-1.4,0.1-2.3,0.1c-1.1,0-2.1-0.1-2.9-0.4c-1.3-0.4-1.9-1.1-1.9-2
			c0-0.8,0.5-1.6,1.4-2.4c0.1-0.2,0.9-0.7,2.2-1.7c0-0.9-0.1-1.4-0.1-1.6c-0.1-0.6-0.5-0.9-1.1-0.9c-0.7,0-1.4,0.2-1.9,0.5
			c-0.2,0.1-0.8,0.6-1.7,1.4c-0.1,0.1-0.2,0.2-0.4,0.3c-0.4,0-0.6-0.3-0.6-0.9c0-0.4,0.4-0.9,1.2-1.4c1.1-0.8,2.1-1.8,3-3.2
			c-0.4,0.1-1.1,0.2-2,0.3c0,0-0.3,0.1-0.8,0.2c-0.4,0.1-0.6,0.2-0.8,0.2c-0.3,0-0.5-0.2-0.5-0.7c0-0.6,0.4-0.9,1.2-1
			c0.7,0,1.9-0.1,3.3-0.1c0.1-0.3,0.4-0.9,0.8-1.9c0.2-0.5,0.4-0.7,0.8-0.7c0.5,0,0.7,0.2,0.7,0.7c0,0.2-0.3,0.8-0.9,1.9
			c0.4,0,1.1,0,1.9,0c0.9,0,1.5,0,1.9,0c0.1,0,0.3,0,0.5,0c0.2,0,0.4-0.1,0.5-0.1c0.1,0,0.2,0.1,0.2,0.2c0,0.3-0.2,0.6-0.4,1
			c-0.3,0.4-0.5,0.6-0.8,0.6s-0.5-0.1-0.8-0.2c-0.3-0.1-0.5-0.1-0.8-0.2c-0.6-0.2-1.6-0.3-2.8-0.3c-0.6,1-1.3,1.9-1.9,2.6
			c0.5-0.1,1-0.1,1.4-0.1c1.1,0,1.8,0.8,1.8,2.3c0,0.2,0,0.3,0.1,0.4c1.8-1.3,3.3-2.4,4.4-3.3c0.4-0.3,0.7-0.4,0.9-0.4
			C503.4,5.4,503.6,5.7,503.6,6.1z"/>
		<path class="st0" d="M515.9,1.3c1.3,0,2.8,0.1,4.4,0.4c1.3,0.2,2.5,0.2,3.6,0.2c0.3,0,0.6,0,1-0.1c0.1,0,0.1,0.1,0.1,0.3
			c0,0.4-0.1,0.9-0.3,1.3c-0.2,0.5-0.4,0.7-0.7,0.7c-0.3,0-0.7-0.1-1-0.3c-1.3-0.6-2.6-1-3.8-1.2c-0.8-0.1-1.7-0.2-2.7-0.2l0,3.7
			l4.3,0c0.2,0,0.5-0.1,1-0.2c0.5,0,0.8,0.2,0.8,0.6c-0.3,1.2-0.4,2.7-0.4,4.5c0,1.2,0.1,2.9,0.2,5c0,0.6-0.2,0.9-0.7,0.9
			c-0.2,0-0.3-0.1-0.4-0.4c-0.1-0.3-0.1-0.7-0.1-1.2c0-3.5,0.1-6.1,0.2-8.1c0-0.1-0.2-0.2-0.6-0.2c-1.5,0-2.9,0-4.3,0l0,5
			c0.5,0,1.1,0,1.7,0.1c0.2,0,0.3-0.1,0.3-0.4c-0.1-0.4-0.1-1.1-0.1-2c0-0.8,0.2-1.2,0.6-1.2c0.4,0,0.6,0.3,0.6,0.9
			c-0.1,0.7-0.1,1.3-0.1,1.9c0,0.6,0.1,1,0.1,1.2c0,0.5-0.2,0.7-0.6,0.7c-0.6-0.1-1.6-0.2-2.9-0.2c-1,0-2,0.1-2.9,0.4
			c-0.4,0-0.6-0.3-0.6-0.8c0.1-0.4,0.1-0.8,0.1-1.2c0-0.5-0.1-1.3-0.2-2.4c0-0.4,0.2-0.6,0.6-0.6c0.4,0,0.7,0.2,0.7,0.7
			c0.1,0.4,0.1,1.3,0.1,2.6c0,0.3,0.1,0.4,0.3,0.4c0.4-0.1,0.9-0.1,1.3-0.2l0-5.1c-1.6,0-3,0-4.4,0v4.5c0,0.9-0.1,1.8-0.2,2.4
			s-0.4,1.2-0.8,1.7c-0.3,0.4-0.6,0.6-0.9,0.6c-0.3,0-0.6-0.2-0.9-0.5c-0.4-0.4-0.6-0.6-0.6-0.8c0-0.2,0.1-0.3,0.3-0.4
			c0.6-0.2,1.1-0.7,1.4-1.3c0.3-0.6,0.5-1.9,0.5-3.9c0-1-0.1-2-0.2-3.1c0-0.4,0.2-0.6,0.6-0.6c0.3,0,0.5,0.1,0.6,0.2l4.6,0l0-3.7
			c-1.2,0-2.3,0.1-3.2,0.3c-1.2,0.3-2.3,0.7-3.4,1.2c-0.3,0.1-0.6,0.2-0.8,0.2c-0.4,0-0.6-0.3-0.6-0.8c0-0.3,0.1-0.5,0.3-0.7
			c0.2-0.2,0.4-0.3,0.7-0.4C511.8,1.6,514.3,1.3,515.9,1.3z"/>
		<path class="st0" d="M528.6,2.1h2.5c0-0.3,0-0.7,0-1c0-0.6,0.2-0.8,0.6-0.8c0.4,0,0.6,0.3,0.6,0.8c0,0.4,0,0.7,0,1h2.8
			c0.2,0,0.3,0.1,0.3,0.3c0,0.3-0.1,0.6-0.2,0.8c-0.2,0.2-0.4,0.3-0.7,0.3c-0.1,0-0.5-0.1-1.1-0.2c-0.3,0-0.7,0-1,0
			c0,0.5,0,1.1,0,1.6c0.4,0,0.9,0,1.5,0.1c0.2,0,0.4,0,0.6-0.1c0.4,0,0.6,0.2,0.6,0.7c0,0,0,0.1,0,0.2c-0.1,0.2-0.1,0.5-0.1,1
			c0,0.6-0.1,1.3-0.1,2c0,0.5,0,1.1,0.1,1.9c0,0.4-0.2,0.6-0.5,0.6c-0.7-0.1-1.4-0.2-2-0.2l0,1.7h2.7c0.2,0,0.3,0.1,0.3,0.3
			c0,0.3-0.1,0.6-0.2,0.8c-0.2,0.2-0.4,0.3-0.7,0.3c-0.2,0-0.5-0.1-1.1-0.2c-0.3,0-0.6-0.1-0.9-0.1l0,1.9c0,0.9-0.2,1.4-0.6,1.4
			c-0.4,0-0.6-0.5-0.6-1.4c0-0.7,0-1.3,0-1.9c-1.2,0-2.1,0.1-2.6,0.2c-0.3,0.1-0.5,0.2-0.6,0.2c-0.4,0-0.6-0.2-0.6-0.6
			c0-0.2,0.1-0.4,0.3-0.6c0.2-0.1,0.4-0.2,0.7-0.2h2.8c0-0.6,0-1.2,0-1.7c-0.8,0-1.3,0-1.5,0.1c-0.2,0-0.5,0.1-0.9,0.2
			c-0.3,0-0.5-0.2-0.5-0.6c0.1-1,0.2-1.9,0.2-2.7c0-0.7-0.1-1.6-0.2-2.7c0-0.4,0.2-0.6,0.6-0.6c0.2,0,0.3,0,0.5,0c0.2,0,0.4,0,0.8,0
			h1c0-0.5,0-1,0-1.6c-1.1,0-1.9,0.1-2.3,0.2c-0.3,0.1-0.5,0.2-0.6,0.2c-0.4,0-0.6-0.3-0.7-0.7c0-0.2,0.1-0.4,0.3-0.6
			C528.1,2.2,528.3,2.1,528.6,2.1z M531.2,10.2c0-0.6,0-1.2,0-1.7c-0.6,0-1.2,0.1-1.6,0.1c0,0.4-0.1,0.8-0.1,1.2
			c0,0.3,0.1,0.5,0.4,0.5C530.2,10.2,530.7,10.2,531.2,10.2z M529.6,7.6c0,0,0.1,0,0.1,0h1.5c0-0.6,0-1.2,0-1.7c-0.4,0-0.8,0-1.3,0
			c-0.2,0-0.3,0.1-0.3,0.4C529.6,6.7,529.6,7.1,529.6,7.6z M532.2,5.9v1.7h1.5V6.1c0-0.1-0.1-0.2-0.2-0.2
			C533.2,5.9,532.7,5.9,532.2,5.9z M532.2,8.4v1.8c0.4,0,0.8,0,1.2,0.1c0.2,0,0.3-0.1,0.3-0.4V8.4C533.2,8.4,532.7,8.4,532.2,8.4z
			 M536.7,8.3c0.1,0,0.3,0,0.3,0.1l6.3,0.1c0.2,0,0.5-0.1,0.9-0.2c0.5,0,0.7,0.2,0.7,0.6c-0.2,0.9-0.3,2-0.3,3.4
			c0,0.8,0.1,2,0.2,3.5c0,0.6-0.2,0.9-0.6,0.9c-0.2,0-0.3-0.1-0.4-0.3c-0.1-0.3-0.1-0.7-0.1-1.2c0-0.8,0-1.5,0-2.2h0
			c-0.6,0-1.1,0-1.6,0l0.1,2c0,0.8-0.2,1.2-0.6,1.2c-0.3,0-0.5-0.4-0.5-1.2c0-0.8,0-1.4,0-2c-0.5,0-0.9,0-1.3,0l0.1,2
			c0,0.8-0.2,1.2-0.6,1.2c-0.3,0-0.5-0.4-0.5-1.2c0-0.7,0-1.4,0.1-2c-0.6,0-1.1,0.1-1.5,0.1c-0.1,0-0.1,0-0.1,0
			c-0.1,1.2-0.2,2-0.5,2.5c-0.3,0.8-0.7,1.2-1,1.2s-0.6-0.2-0.9-0.6c-0.2-0.2-0.3-0.5-0.3-0.7c0-0.1,0.1-0.2,0.2-0.2
			c0.5-0.1,0.9-0.5,1.2-1.1c0.2-0.5,0.3-1.5,0.3-2.9c0-0.8-0.1-1.5-0.2-2.4C536.1,8.5,536.3,8.3,536.7,8.3z M540.3,0.4
			c0.3,0,0.4,0.2,0.5,0.5c0.1,0.1,0.3,0.2,0.5,0.4c1.9,1.7,3.1,2.6,3.6,2.8c0.3,0.1,0.7,0.2,1.1,0.3c0.2,0,0.3,0.1,0.3,0.4
			c0,0.3-0.2,0.6-0.6,0.9c-0.4,0.3-0.8,0.4-1.2,0.4c-0.3,0-0.6-0.1-0.8-0.4c-0.7-1-1.5-2-2.4-3c-0.3-0.4-0.6-0.6-0.9-0.8
			c-0.7,1.3-1.2,2.1-1.6,2.5c-0.5,0.6-1.2,1.2-1.9,1.5c-0.2,0.1-0.3,0.2-0.4,0.2c-0.4,0-0.7-0.1-0.9-0.4c-0.2-0.2-0.4-0.5-0.4-0.8
			c0-0.2,0.1-0.2,0.3-0.3c0.8-0.2,1.4-0.4,1.9-0.7c0.4-0.3,0.8-0.6,1.2-1.1c0.4-0.5,0.9-1.3,1.4-2.3C540,0.5,540.1,0.4,540.3,0.4z
			 M537.3,12.1c0.1,0,0.1,0,0.2,0h1.4c0-0.1,0-0.3,0-0.4c0-0.6,0-1.2-0.1-1.8c0-0.1,0-0.2,0-0.3c-0.5,0-1,0-1.5,0c0,1,0,1.7,0,2.2
			C537.3,11.9,537.3,12,537.3,12.1z M538.7,5.8h3.8c0.1,0,0.2,0.1,0.2,0.2c0,0.3-0.1,0.5-0.2,0.7c-0.2,0.2-0.4,0.3-0.7,0.3
			c-0.1,0-0.3,0-0.6-0.1c-0.3,0-0.7,0-1,0c-0.7,0-1.2,0.1-1.5,0.2c-0.2,0.1-0.3,0.1-0.3,0.1c-0.3,0-0.5-0.2-0.6-0.6
			c0-0.2,0.1-0.4,0.3-0.6C538.3,5.8,538.5,5.8,538.7,5.8z M539.8,9.6c0,0.1,0,0.2,0,0.3c-0.1,0.7-0.1,1.3-0.1,1.8l0,0.4h1.3
			c0-0.1,0-0.3,0-0.4c0-0.6,0-1.2-0.1-1.8c0-0.1,0-0.2,0-0.3C540.7,9.5,540.3,9.6,539.8,9.6z M542.1,9.5c0,0.1,0,0.2,0,0.3
			c-0.1,0.7-0.1,1.3-0.1,1.8V12h1.5c0,0,0.1,0,0.1,0c0-0.9,0.1-1.7,0.1-2.4c0-0.1-0.2-0.2-0.5-0.2C542.9,9.5,542.5,9.5,542.1,9.5z"
			/>
		<path class="st0" d="M563.5,3.6c0,0.4-0.2,0.6-0.5,0.6c-0.2,0-0.4,0-0.7-0.1C562,4,561.8,4,561.6,4c-1.5,0-3,0.5-4.2,1.6
			c-1.4,1.2-2.1,2.7-2.1,4.5c0,1.5,0.6,2.6,1.7,3.3c0.9,0.6,2,0.9,3.4,0.9c0.2,0,0.6,0,1,0c0.5-0.1,0.8-0.1,1-0.1
			c0.1,0,0.2,0.1,0.3,0.3c-0.1,0.5-0.3,1-0.7,1.4c-0.4,0.4-0.8,0.6-1.3,0.6c-1.7,0-3.2-0.5-4.4-1.5c-1.4-1.1-2.1-2.6-2.1-4.5
			c0-1.5,0.4-2.8,1.3-3.9c0.7-0.9,1.6-1.7,2.9-2.5c-2.7,0.3-5.2,0.8-7.5,1.5c-0.2,0.1-0.5,0.2-0.9,0.3c-0.4,0-0.5-0.2-0.5-0.6
			c0-0.4,0.1-0.8,0.2-1c0.2-0.2,0.6-0.4,1.2-0.5c1.8-0.3,4.2-0.6,7.2-0.8c2.5-0.2,4-0.3,4.4-0.3c0.2,0,0.4,0.1,0.6,0.3
			C563.4,3,563.5,3.3,563.5,3.6z M562.6,7.9c0,0.1-0.2,0.4-0.4,0.7c-0.2,0.3-0.4,0.5-0.5,0.5c-0.2,0-0.7-0.3-1.2-1
			c-0.6-0.7-0.8-1.1-0.8-1.4c0-0.2,0.1-0.3,0.2-0.3c0.1,0,0.3,0.2,0.7,0.5c0.4,0.3,0.9,0.5,1.7,0.6C562.4,7.7,562.6,7.8,562.6,7.9z
			 M565.5,7c0,0.1-0.2,0.4-0.4,0.7c-0.2,0.3-0.4,0.5-0.5,0.5c-0.2,0-0.6-0.3-1.2-1c-0.6-0.7-0.8-1.1-0.8-1.4c0-0.2,0.1-0.3,0.2-0.3
			c0,0,0.3,0.1,0.7,0.4c0.5,0.4,1.1,0.6,1.7,0.7C565.4,6.8,565.5,6.9,565.5,7z"/>
		<path class="st0" d="M574.7,15.8c0,0.4-0.1,0.8-0.4,1.1c-0.3,0.3-0.6,0.4-1,0.4c-0.4,0-0.7-0.1-0.9-0.4c-0.2-0.3-0.4-0.6-0.4-1.1
			c0-0.9,0.4-1.4,1.3-1.4c0.4,0,0.7,0.1,1,0.4C574.6,15,574.7,15.4,574.7,15.8z M574.3,2.9c-0.1,0.5-0.2,2.1-0.2,4.9
			c0,2.4,0,3.8,0.1,4c0,0.7-0.3,1-0.9,1c-0.6,0-0.9-0.3-0.9-1c0-0.5,0-1.1,0.1-2c0.1-0.9,0.1-1.6,0.1-2c0-0.5,0-1.3-0.1-2.4
			c-0.1-1.1-0.1-1.9-0.1-2.5c0-0.7,0.3-1.1,0.9-1.1C574,1.8,574.3,2.2,574.3,2.9z"/>
	</g>
</g>
</svg>
