<?xml version="1.0" encoding="utf-8"?>
<!-- Generator: Adobe Illustrator 24.0.3, SVG Export Plug-In . SVG Version: 6.00 Build 0)  -->
<svg version="1.1" id="レイヤー_1" xmlns="http://www.w3.org/2000/svg" xmlns:xlink="http://www.w3.org/1999/xlink" x="0px"
	 y="0px" viewBox="0 0 202.4 17.7" style="enable-background:new 0 0 202.4 17.7;" xml:space="preserve">
<style type="text/css">
	.st0{fill:#503819;}
</style>
<g>
	<g>
		<path class="st0" d="M1,5.4h1.7l0-3.9c0-0.6,0.2-0.8,0.6-0.8c0.5,0,0.8,0.3,0.8,0.8L4.1,5.4h2.1c0.1,0,0.2,0.1,0.2,0.3
			c0,0.2-0.1,0.5-0.2,0.6C6,6.5,5.8,6.6,5.5,6.6c-0.1,0-0.4,0-0.9-0.1c-0.2,0-0.4,0-0.6,0l-0.1,4.6c0.9-0.2,1.7-0.4,2.2-0.5
			c0.2,0,0.3,0.1,0.3,0.4c0,0.4-0.1,0.6-0.4,0.7c-1.9,0.6-3.7,1.3-5.3,2.1c-0.4,0-0.6-0.2-0.6-0.6c0-0.4,0.1-0.6,0.2-0.8
			c0.1-0.2,0.2-0.3,0.5-0.4c0.8-0.2,1.4-0.4,2.1-0.6l0-4.9C2,6.5,1.5,6.6,1.1,6.7C0.9,6.8,0.7,6.8,0.6,6.8C0.3,6.8,0,6.6,0,6.2
			C0,6,0.1,5.8,0.3,5.5C0.5,5.4,0.7,5.4,1,5.4z M16.4,4.9c0.4,0,0.6,0.3,0.6,0.8c0,0.1-0.1,0.3-0.2,0.5c-0.3,0.7-0.7,1.9-1.3,3.8
			c-0.1,0.4-0.3,0.6-0.6,0.6c-0.3,0-0.5-0.2-0.5-0.5c0.1-0.7,0.4-1.8,0.9-3.4c0-0.1-0.1-0.2-0.3-0.2c-0.2,0-0.5,0-0.9,0.1
			c-0.5,0.1-1,0.2-1.5,0.3l0,3.7c0,0.9-0.2,1.4-0.6,1.4c-0.4,0-0.6-0.5-0.6-1.4c0-1.3,0-2.4,0-3.4c-0.8,0.2-1.5,0.4-2.1,0.6
			c0,1.7-0.1,3.7-0.1,5.8c0,0.4,0.2,0.6,0.5,0.7c0.7,0.1,2.3,0.1,5,0.1c1.3,0,2.4-0.2,3.4-0.6c0.1,0,0.2,0.2,0.2,0.5
			c0,0.4-0.1,0.9-0.3,1.4c-0.2,0.6-0.5,0.9-0.7,0.9c-0.3,0-3.1-0.3-8.2-0.9c-0.8-0.1-1.2-0.5-1.2-1.1c0.1-2.6,0.1-4.6,0.1-6
			c0-0.1,0-0.3,0-0.4C8,8.4,7.5,8.6,7,8.9c-0.5,0-0.7-0.2-0.7-0.6c0-0.3,0.1-0.5,0.2-0.8c0.1-0.2,0.3-0.3,0.6-0.3
			C7.5,7,8,6.9,8.4,6.8c0-1,0-2.1-0.1-3.2C8.3,3.2,8.5,3,8.9,3c0.5,0,0.7,0.3,0.7,0.8c0,0.8,0,1.7,0,2.7C10.3,6.3,11,6.1,11.6,6
			c0-0.6,0-1.1,0-1.6c0-0.9,0-2-0.1-3.1c0-0.6,0.2-0.8,0.6-0.8c0.4,0,0.6,0.3,0.6,0.8c-0.1,1.2-0.1,2.2-0.1,3.1l0,1.4
			c0.8-0.2,1.6-0.3,2.3-0.4c0.4-0.1,0.7-0.2,1-0.3C16.1,4.9,16.2,4.9,16.4,4.9z"/>
		<path class="st0" d="M21.9,5.5h1.7l-0.1-3.3c0-0.6,0.2-0.8,0.6-0.8c0.5,0,0.8,0.3,0.8,0.8l0,3.3h1.9c0.2,0,0.2,0.1,0.2,0.3
			c0,0.3-0.1,0.5-0.2,0.7c-0.2,0.2-0.4,0.3-0.7,0.3c-0.1,0-0.4,0-0.8-0.1c-0.1,0-0.3,0-0.4,0l-0.1,4.2c0.8-0.3,1.4-0.4,1.8-0.5
			c0.2,0,0.2,0.1,0.2,0.4c0,0.3-0.1,0.5-0.3,0.6c-1.7,0.7-3.4,1.6-4.9,2.5c-0.4,0-0.6-0.2-0.6-0.6c0-0.3,0.1-0.6,0.2-0.7
			c0.1-0.2,0.2-0.4,0.4-0.5c0.7-0.3,1.4-0.5,2-0.8l-0.1-4.6c-0.8,0-1.3,0.1-1.7,0.2C21.7,7,21.6,7,21.5,7c-0.4,0-0.6-0.2-0.6-0.6
			c0-0.2,0.1-0.4,0.3-0.6C21.4,5.6,21.6,5.5,21.9,5.5z M32.5,11.8c0.1,0,0.2,0.1,0.2,0.4c0,0.3-0.1,0.5-0.3,0.6
			c-1.7,0.6-3.3,1.3-4.8,2.1c-0.4,0-0.6-0.2-0.6-0.6c0-0.3,0.1-0.6,0.2-0.7c0.1-0.2,0.2-0.3,0.4-0.4C29.9,12.4,31.5,12,32.5,11.8z
			 M28.3,3.5h5.1c0-0.9,0-1.8,0-2.6c0-0.4,0.2-0.6,0.6-0.6c0.4,0,0.5,0.2,0.6,0.6c0,0.9-0.1,1.8-0.1,2.6h3.8c0.2,0,0.3,0.1,0.3,0.3
			c0,0.3-0.1,0.6-0.2,0.8c-0.2,0.2-0.4,0.3-0.7,0.3c-0.2,0-0.8-0.1-1.8-0.2c-0.4,0-0.9,0-1.4,0c0,1.1,0.1,2.3,0.3,3.4
			c0.2,1.2,0.4,2.2,0.7,3.1c0.5-1,0.9-2.1,1.2-3.5c0-0.2,0.2-0.3,0.4-0.3c0.4,0,0.6,0.2,0.6,0.6c0,0-0.1,0.1-0.1,0.3
			c-0.3,1.2-0.8,2.5-1.5,4.1c0,0,0,0,0,0c0.1,0.2,0.2,0.4,0.3,0.5c0.7,1.2,1.5,1.9,2.6,2.3c0.2,0.1,0.3,0.3,0.3,0.5
			c0,0.2-0.2,0.5-0.5,0.8c-0.3,0.3-0.6,0.4-0.9,0.4c-0.2,0-0.5-0.1-0.8-0.4c-0.7-0.6-1.3-1.5-1.8-2.8c-0.5,0.7-1,1.3-1.6,1.8
			c-0.6,0.5-1,0.8-1.4,0.8c-0.2,0-0.4-0.1-0.7-0.3c-0.3-0.3-0.5-0.7-0.5-1c0-0.2,0.2-0.4,0.7-0.5c1-0.2,2-0.9,2.9-2
			c-0.1-0.2-0.1-0.3-0.2-0.5c-0.6-1.9-0.9-4-1-6.2c0-0.4,0-0.8,0-1.2c-0.2,0-0.5,0-0.8,0c-1.8,0-3.1,0.1-3.9,0.2
			C28.3,4.9,28,5,27.9,5c-0.4,0-0.6-0.2-0.6-0.6c0-0.2,0.1-0.4,0.3-0.6C27.8,3.5,28,3.5,28.3,3.5z M28.3,6.6c0.2,0,0.4,0,0.5,0
			s0.4,0,0.8,0h0.9c0.2,0,0.4,0,0.7,0.1c0.2,0,0.4,0,0.6-0.1c0.4,0,0.6,0.2,0.6,0.6c0,0,0,0,0,0.1c-0.1,0.1-0.1,0.3-0.1,0.6
			c0,0.4-0.1,0.8-0.1,1.3c0,0.2,0,0.5,0.1,1c0,0.4-0.2,0.6-0.5,0.6c-0.6-0.1-1.2-0.2-1.7-0.2c-0.7,0-1.1,0-1.2,0.1
			c-0.1,0-0.3,0.1-0.5,0.2c-0.3,0-0.5-0.2-0.5-0.6c0.1-0.7,0.2-1.2,0.2-1.7c0-0.4-0.1-0.9-0.2-1.5C27.7,6.8,27.9,6.6,28.3,6.6z
			 M30,9.9c0.3,0,0.6,0,0.9,0.1c0.2,0,0.3-0.1,0.3-0.4V8c0-0.1-0.1-0.2-0.2-0.2c-0.4-0.1-0.9-0.1-1.7-0.1c-0.2,0-0.3,0.1-0.3,0.4
			c0,0.5-0.1,1-0.2,1.4c0,0.3,0.1,0.5,0.4,0.5C29.5,9.9,29.7,9.9,30,9.9z M37.2,0.6c0.4,0,0.6,0.2,0.6,0.6c0,0.3,0,0.5-0.1,0.6
			c-0.9,0.7-1.4,1.1-1.4,1.1c-0.2,0-0.3-0.1-0.3-0.3c0-0.1,0.2-0.6,0.7-1.6C36.8,0.7,37,0.6,37.2,0.6z"/>
		<path class="st0" d="M56,8.6c0,2.8-1.3,4.9-3.9,6.3c-1,0.6-1.9,0.9-2.4,0.9c-0.3,0-0.7-0.2-1-0.5c-0.4-0.3-0.6-0.7-0.6-1.1
			c0-0.1,0.2-0.3,0.5-0.3c0.2,0,0.6-0.1,1-0.2c1.2-0.2,2.2-0.6,2.9-1.1c0.7-0.5,1.3-1.1,1.7-1.8c0.5-0.8,0.7-1.7,0.7-2.6
			c0-0.7-0.2-1.5-0.6-2.2c-0.8-1.6-2.2-2.4-4.1-2.4c-0.1,0-0.2,0-0.3,0c-0.2,0-0.2,0-0.3,0c-0.8,4.1-1.8,7.2-3,9
			c-0.7,1.1-1.4,1.6-1.9,1.6c-0.7,0-1.3-0.6-1.8-1.9c-0.4-1-0.6-2-0.6-3c0-1.5,0.4-2.9,1.3-4.1C45,3.3,47,2.4,49.7,2.4
			c1.7,0,3.1,0.5,4.3,1.6C55.3,5.1,56,6.6,56,8.6z M48.3,3.7c-1.8,0.4-3,1.1-3.8,2.2c-0.8,1.1-1.2,2.2-1.2,3.2c0,0.6,0.1,1.2,0.3,2
			c0.3,0.9,0.6,1.3,1,1.3c0.4,0,0.8-0.3,1.2-1C46.9,9.8,47.7,7.2,48.3,3.7z"/>
		<path class="st0" d="M64.8,1.8c0.3,0,0.5,0.2,0.5,0.5c0,0.2-0.1,0.4-0.2,0.6c-0.3,0.6-0.5,1.2-0.8,1.7h3.3l0-3
			c0-0.6,0.2-0.8,0.7-0.8C68.7,0.8,69,1,69,1.6l0,3h4.7c0.2,0,0.3,0.1,0.3,0.3c0,0.3-0.1,0.6-0.2,0.8C73.6,5.9,73.3,6,73,6
			c-0.2,0-0.8-0.1-1.7-0.2c-0.7,0-1.6-0.1-2.4-0.1l0,3.5H73c0.2,0,0.3,0.1,0.3,0.3c0,0.3-0.1,0.6-0.2,0.8c-0.2,0.2-0.4,0.3-0.7,0.3
			c-0.2,0-0.7-0.1-1.6-0.2c-0.6,0-1.2-0.1-1.9-0.1l-0.1,3.8c1.1,0,2.4,0.2,3.7,0.4c1.3,0.2,2.4,0.3,3.5,0.3c0.3,0,0.6,0,1-0.1
			c0.1,0,0.1,0.1,0.1,0.3c0,0.4-0.1,0.9-0.3,1.3c-0.2,0.5-0.5,0.7-0.7,0.7c-0.3,0-0.7-0.1-1-0.3c-1.3-0.6-2.6-1-3.8-1.2
			c-0.9-0.1-2-0.2-3.3-0.2c-1.5,0-2.8,0.1-3.9,0.3c-1.2,0.3-2.3,0.7-3.5,1.2c-0.3,0.2-0.6,0.2-0.8,0.2c-0.4,0-0.6-0.3-0.6-0.8
			c0-0.3,0.1-0.5,0.3-0.7c0.2-0.2,0.4-0.3,0.7-0.4c3.4-0.6,5.8-1,7.4-1l-0.1-3.8c-1.4,0-2.4,0.1-3,0.3c-0.4,0.1-0.7,0.2-0.8,0.2
			c-0.4,0-0.7-0.3-0.7-0.8c0-0.2,0.1-0.4,0.3-0.6c0.2-0.1,0.4-0.2,0.8-0.2h3.4l0-3.5c-1.4,0-2.4,0.1-3,0.2c-0.4,0.1-0.7,0.2-0.9,0.2
			c-0.1,0-0.3,0-0.4-0.1c-0.2,0.4-0.5,0.7-0.7,1.1c-0.4,0.5-0.7,0.7-0.9,0.7c-0.3,0-0.6-0.1-0.9-0.4c-0.3-0.3-0.4-0.6-0.4-0.9
			c0-0.2,0.1-0.4,0.4-0.4c0.7-0.3,1.3-0.8,1.9-1.4c0.6-0.7,1.2-1.6,1.8-2.8C64.6,1.8,64.7,1.8,64.8,1.8z"/>
		<path class="st0" d="M80.4,13.3c0.4,0.1,0.6,0.1,0.8,0.1c0.6,0,1.3-0.4,2.2-1.1c0.1,0,0.2,0.1,0.2,0.3c0,0.3-0.3,0.8-0.9,1.6
			c-0.6,0.8-1.1,1.3-1.5,1.3c-0.3,0-0.5-0.2-0.7-0.5c-0.2-0.4-0.3-0.8-0.3-1.3C80.2,13.4,80.2,13.3,80.4,13.3z M83,4.4
			c0.2,0,0.3,0,0.4,0.1l3.2,0.1c0.1,0,0.4-0.1,0.8-0.2c0.4,0,0.6,0.2,0.6,0.6c-0.2,0.7-0.3,1.6-0.3,2.7c0,0.7,0.1,1.6,0.2,2.8
			c0,0.6-0.2,0.8-0.6,0.8c-0.2,0-0.3-0.1-0.4-0.3c-0.1-0.3-0.1-0.7-0.1-1.1c0-0.2,0-0.4,0-0.6c-1.4,0-2.6,0.1-3.4,0.2
			c0,0.2-0.1,0.3-0.1,0.5c-0.1,0.4-0.4,0.8-0.7,1.1c-0.3,0.3-0.6,0.4-0.8,0.4c-0.2,0-0.5-0.1-0.8-0.4c-0.3-0.3-0.5-0.5-0.5-0.7
			c0-0.2,0.1-0.3,0.3-0.4c0.5-0.1,0.9-0.4,1.2-0.8C82.5,9,82.6,8.2,82.6,7c0-0.6-0.1-1.3-0.2-2.1C82.5,4.6,82.7,4.4,83,4.4z
			 M84.2,0.2c0.4,0,0.6,0.2,0.6,0.7c0,0,0,0.1,0,0.1c-0.3,0.4-0.5,0.6-0.7,0.8c-0.1,0.2-0.3,0.4-0.5,0.6c0,0.1,0.1,0.2,0.3,0.2h3
			c0.2,0,0.3-0.1,0.3-0.3c0,0,0,0,0-0.1c-0.2-0.2-0.4-0.5-0.7-0.8c0,0-0.1-0.1-0.1-0.1c0-0.4,0.2-0.6,0.6-0.6c0.1,0,0.1,0,0.2,0.1
			c0.4,0.5,0.9,1.2,1.4,2c0.1,0.1,0.1,0.2,0.1,0.3c0,0.4-0.2,0.6-0.5,0.6h-4.4c-0.4,0-0.9,0-1.4,0.1c-0.5,0-0.7-0.2-0.7-0.6
			c0-0.2,0.1-0.3,0.2-0.6c0.1-0.1,0.3-0.2,0.4-0.4c0.2-0.2,0.4-0.4,0.6-0.6c0.2-0.3,0.4-0.6,0.7-1C83.7,0.4,83.9,0.2,84.2,0.2z
			 M83.6,6.6c0.1,0,0.1,0,0.2,0h3c0,0,0.1,0,0.1,0c0-0.4,0-0.7,0-0.9c0-0.1-0.1-0.2-0.4-0.2c-1.1,0-2.1,0-3,0.1V6.6z M83.6,8.5
			L83.6,8.5h3.3c0-0.4,0-0.8,0-1.1c0,0-0.1,0-0.1,0c-1.4,0-2.4,0.1-3.2,0.2h0V8.5C83.6,8.5,83.6,8.5,83.6,8.5z M86.3,11.4
			c0.4,0,0.7,0.2,0.7,0.6c0,0.2-0.2,0.7-0.6,1.5c-0.1,0.1-0.1,0.2-0.1,0.2c0,0.1,0.1,0.1,0.3,0.1c2,0,3.9,0.2,5.7,0.7
			c0.6,0.1,1.2,0.2,1.9,0.2c0.7,0,1.4-0.1,2.1-0.3c0.4-0.1,0.7-0.2,0.8-0.2c0.2,0,0.2,0.1,0.2,0.4c0,0.5-0.2,1-0.6,1.6
			c-0.4,0.7-0.8,1.1-1.2,1.1c-0.4,0-1.1-0.2-2.1-0.7c-2.3-1-4.5-1.5-6.6-1.5c-0.4,0-1,0.1-1.5,0.2c-0.4,0-0.6-0.2-0.6-0.6
			c0-0.1,0.1-0.4,0.3-0.7c0.4-0.6,0.7-1.3,0.8-2C85.9,11.7,86.1,11.4,86.3,11.4z M90.4,11.3c0.3,0,0.5,0.2,0.5,0.5
			c0,0.3,0,0.5-0.1,0.6c-0.8,0.8-1.2,1.2-1.3,1.2c-0.2,0-0.3-0.1-0.3-0.3c0-0.1,0.2-0.6,0.6-1.7C89.9,11.4,90.1,11.3,90.4,11.3z
			 M91.4,1.4h3.9c0.2,0,0.2,0.1,0.2,0.4c0,0.2-0.1,0.3-0.2,0.5c-0.2,0.2-0.3,0.3-0.5,0.3c-0.4-0.1-0.9-0.2-1.8-0.2
			c-0.4,0-1,0.1-1.8,0.3c0,0,0,0,0,0c0,0.3,0,0.6,0,0.9c0,0.2,0.1,0.3,0.3,0.3h3.3c0.6,0,0.9,0.1,0.9,0.4c0,0.4-0.2,0.6-0.6,0.6
			l-2.1-0.1c-0.9,0-1.6,0.1-2.2,0.3c-0.4,0-0.6-0.2-0.6-0.6c0.1-0.6,0.1-1.2,0.1-1.6c0-0.6,0-1.3-0.1-2.2c0-0.4,0.2-0.6,0.6-0.6
			c0.4,0,0.7,0.2,0.7,0.6c0,0.2,0,0.4,0,0.7C91.3,1.4,91.3,1.4,91.4,1.4z M91.5,6.8h3.6c0.2,0,0.2,0.1,0.2,0.4
			c0,0.2-0.1,0.3-0.2,0.5c-0.1,0.2-0.3,0.3-0.5,0.3c-0.3-0.1-0.8-0.2-1.4-0.2c-0.4,0-1,0.1-1.8,0.3c0,0,0,0-0.1,0
			c0,0.3,0,0.6-0.1,0.9c0,0.4,0.1,0.6,0.4,0.6l2.5,0.1c0.7,0,1.5-0.2,2.3-0.6c0.1,0,0.2,0.2,0.2,0.5c0,0.3-0.1,0.7-0.4,1
			C96,10.8,95.7,11,95.4,11c-1.4-0.2-2.5-0.4-3.2-0.4c-0.5,0-0.8,0-1,0.1c-0.2,0.1-0.4,0.1-0.5,0.1c-0.4,0-0.6-0.2-0.6-0.7
			c0.2-0.6,0.2-1.2,0.2-1.8c0-0.6,0-1.3-0.1-2.1c0-0.3,0.2-0.5,0.5-0.5c0.1,0,0.3,0.1,0.5,0.2c0.1,0.1,0.2,0.3,0.2,0.5
			c0,0.1,0,0.1,0,0.2C91.4,6.8,91.4,6.8,91.5,6.8z M93.6,11.4c0.4,0,0.6,0.2,0.6,0.6c0,0.3,0,0.5-0.1,0.6c-1,1-1.6,1.5-1.7,1.5
			c-0.2,0-0.3-0.1-0.3-0.3c0-0.1,0.3-0.7,1-2C93.1,11.5,93.3,11.4,93.6,11.4z"/>
		<path class="st0" d="M108,1.1c1.2,0,2.7,0.1,4.4,0.3c1.3,0.1,2.4,0.2,3.3,0.2c0.4,0,0.9,0,1.4-0.1c0.1,0,0.2,0.2,0.2,0.5
			c0,0.5-0.2,1-0.5,1.5c-0.2,0.4-0.4,0.6-0.6,0.6c-0.4,0-0.9-0.2-1.4-0.5c-0.9-0.5-1.9-0.8-3-0.9c-1-0.2-2.1-0.3-3.3-0.3
			c0,0.1,0,0.1,0,0.2c0,0.3-0.1,0.6-0.4,0.9c-0.8,0.9-1.6,1.7-2.6,2.4c-0.2,0.1-0.3,0.2-0.3,0.4c0,0,0.1,0.2,0.4,0.3
			c0.2,0.1,0.5,0.4,0.9,0.7c0.1,0.1,0.1,0.1,0.1,0.2c0.9-0.8,1.8-1.6,2.6-2.3c0.1-0.1,0.3-0.1,0.5-0.1c0.1,0,0.3,0.1,0.4,0.2
			c0.1,0.1,0.1,0.3,0.1,0.5c0,0.2-0.1,0.3-0.2,0.4c-1.4,1.1-2.9,2.3-4.3,3.5c-0.1,0.1-0.1,0.2-0.1,0.3c0,0,0.1,0.1,0.2,0.1
			c0.3,0,1.2,0.1,2.5,0.1c1.2,0,2.3,0,3.1-0.1c0.2,0,0.3-0.1,0.3-0.3c-0.3-0.5-0.6-1-1-1.4c-0.1-0.1-0.1-0.2-0.1-0.3
			c0-0.1,0-0.3,0.1-0.4c0.1-0.1,0.3-0.2,0.5-0.2c0.1,0,0.3,0.1,0.4,0.4c0.4,0.5,0.7,1.1,1.1,1.9c0.2,0.4,0.3,0.6,0.3,0.9
			c0,0.6-0.2,0.8-0.7,0.8c-0.2-0.1-0.5-0.1-0.7-0.1c-0.9,0-1.8,0.1-2.7,0.1v0.8c0,0.7,0,1.3,0,1.8c0,0.6,0,1.2,0,1.8
			c0,0.4-0.1,0.8-0.2,1c-0.1,0.2-0.3,0.3-0.5,0.3c-0.2,0-0.3-0.1-0.4-0.4c-0.1-0.2-0.1-0.5-0.1-0.9c0-0.6,0-1.2,0-1.8
			c0-0.5,0-1.2,0-2.1c0-0.2,0-0.3,0-0.6c-0.8,0-1.6,0-2.4-0.1c-0.4,0-0.8,0-1.3,0.1c-0.5,0-0.8-0.2-0.8-0.6c0-0.2,0.1-0.5,0.3-0.7
			c0.8-0.6,1.5-1.3,2.3-1.9l0,0c-0.9-0.6-1.6-1-2-1.1c-0.2-0.1-0.4-0.2-0.4-0.5c0-0.2,0.1-0.4,0.4-0.6c0.4-0.2,0.8-0.5,1.2-1
			c0.8-0.7,1.6-1.6,2.3-2.7c-1.2,0-2.4,0.1-3.5,0.2c-0.8,0.1-2,0.5-3.7,1.2c-0.5,0-0.7-0.2-0.7-0.7c0-0.3,0.1-0.5,0.3-0.7
			c0.2-0.3,0.6-0.5,1-0.5C103.8,1.4,106.3,1.1,108,1.1z M102,13.8c0.4,0.1,0.6,0.1,0.8,0.1c0.6,0,1.3-0.3,2.2-1
			c0.2,0,0.2,0.1,0.2,0.3c0,0.3-0.3,0.8-0.9,1.5c-0.6,0.8-1.1,1.2-1.6,1.2c-0.3,0-0.5-0.2-0.7-0.5c-0.2-0.4-0.3-0.8-0.3-1.3
			C101.8,13.9,101.8,13.8,102,13.8z M111.3,12.9c0,0,0.1,0,0.1,0.1c0.7,0.5,1.3,0.8,1.7,0.9c0.3,0.1,0.7,0.2,1.2,0.2
			c0.2,0,0.2,0.1,0.2,0.3c0,0.3-0.2,0.6-0.4,0.9c-0.6,0.4-1,0.6-1.3,0.6c-0.1,0-0.2-0.1-0.3-0.2c-0.2-0.2-0.6-0.9-1.4-2.2
			c-0.1-0.1-0.1-0.2-0.1-0.3C111.1,13.1,111.2,12.9,111.3,12.9z"/>
		<path class="st0" d="M133.4,4.4c0,0.3-0.2,0.7-0.5,1.2c-0.3,0.5-0.6,0.7-0.8,0.7c0.1,0-0.3-0.1-1.3-0.4c-1.1-0.3-2.2-0.5-3.3-0.5
			c-0.1,0-0.3,0-0.6,0c-0.3,0-0.5,0-0.6,0c-0.1,1.1-0.2,2.1-0.2,3l3.5,0c0.6,0,1,0.1,1,0.3c0,0.2-0.1,0.5-0.2,0.7
			c-0.2,0.2-0.3,0.4-0.6,0.4c-1.1-0.2-1.9-0.3-2.4-0.3c-0.2,0-0.6,0-1.3,0c0,1.5,0.1,2.6,0.2,3.4c0.3,1.4,0.9,2.2,1.7,2.2
			c0.6,0,1.3-0.2,2.1-0.6c0.8-0.5,1.4-1,1.9-1.5c0.3-0.3,0.4-0.5,0.6-0.5c0.2,0,0.3,0.3,0.3,0.8c0,0.8-0.1,1.4-0.4,1.8
			c-0.2,0.5-0.9,0.8-1.9,1.1c-0.8,0.2-1.5,0.3-2.2,0.3c-1.5,0-2.5-0.8-3-2.3c-0.3-0.9-0.4-2.4-0.4-4.5c-0.9,0.1-1.5,0.1-1.7,0.1
			c-0.7,0.1-1.2,0.2-1.6,0.3c-0.4,0.1-0.5,0.2-0.4,0.2c-0.2,0-0.4-0.2-0.4-0.6c0-0.5,0.3-0.8,0.9-1c0.4-0.1,1.5-0.2,3.1-0.3
			c0-1.5,0-2.5,0.1-3l-1.3,0.1c-0.4,0.1-1,0.2-1.6,0.4c-0.9,0.3-1.4,0.5-1.5,0.6c-0.3,0-0.4-0.2-0.4-0.6c0-0.8,0.4-1.3,1.2-1.3
			c0.8-0.1,2.1-0.2,3.8-0.3c0.1-1,0.1-1.8,0.1-2.4c0-0.8,0.2-1.2,0.7-1.2c0.5,0,0.8,0.3,0.8,0.8c0,0-0.1,0.9-0.3,2.7
			c0.2,0,0.4,0,0.8,0c0.3,0,0.6,0,0.8,0c0.4,0,1,0,1.8,0c0.8,0,1.4,0,1.8,0c0.5,0,0.9,0,1.1-0.1c0.3,0,0.5-0.1,0.5-0.1
			C133.3,4.3,133.4,4.3,133.4,4.4z"/>
		<path class="st0" d="M142,9.5c0.2,0,0.3,0,0.5,0c0.2,0,0.4,0,0.8,0h3.1c0.7,0,1.5,0,2.5,0.1c0.2,0,0.4,0,0.6-0.1
			c0.4,0,0.6,0.2,0.6,0.6c0,0,0,0-0.1,0.1c-0.1,0.1-0.1,0.3-0.1,0.6c0,0.4-0.1,0.8-0.1,1.2c0,0.2,0,0.5,0.1,0.8
			c0,0.4-0.2,0.7-0.5,0.7c-0.4,0-0.7-0.1-1.1-0.1l-0.4,1.5c0.7,0,1.4,0.1,2.2,0.2c1.2,0.1,2.4,0.2,3.5,0.2c0.3,0,0.6,0,0.9-0.1
			c0.1,0,0.1,0.1,0.1,0.3c0,0.4-0.1,0.8-0.3,1.2c-0.2,0.4-0.4,0.6-0.6,0.6c-0.3,0-0.7-0.1-1-0.3c-1.3-0.5-2.5-0.9-3.7-1.1
			c-0.9-0.1-2-0.2-3.3-0.2c-1.6,0-2.9,0.1-4,0.3c-1.2,0.3-2.4,0.7-3.6,1.1c-0.4,0.2-0.6,0.2-0.9,0.2c-0.4,0-0.5-0.3-0.6-0.8
			c0-0.2,0.1-0.4,0.3-0.7c0.2-0.2,0.4-0.3,0.7-0.4c2.3-0.4,4.2-0.7,5.7-0.9l-0.3-1.6c0,0-0.1,0-0.1,0c-0.3,0-0.7,0.1-1.1,0.2
			c-0.3,0-0.5-0.2-0.5-0.7c0.1-0.6,0.1-1.1,0.1-1.6c0-0.4,0-0.8-0.1-1.3C141.4,9.7,141.6,9.5,142,9.5z M140.1,7.6h11.6
			c0.2,0,0.3,0.1,0.3,0.3c0,0.3-0.1,0.6-0.2,0.8c-0.2,0.2-0.4,0.3-0.7,0.3c-0.3,0-1-0.1-2.1-0.2c-1.1,0-2.4-0.1-3.8-0.1
			c-2.1,0-3.6,0.1-4.5,0.2c-0.5,0.1-0.9,0.2-1,0.2c-0.4,0-0.6-0.2-0.6-0.6c0-0.2,0.1-0.4,0.3-0.6C139.6,7.7,139.8,7.6,140.1,7.6z
			 M140.5,0.8c0.2,0,0.4,0,0.6,0.1c0.2,0.1,0.5,0.1,0.9,0.1h1.6V0.7c0-0.4,0.2-0.7,0.6-0.7c0.4,0,0.7,0.3,0.7,0.8l0,0.3h1.8
			c0.1,0,0.2,0,0.3,0l0-0.4c0-0.4,0.2-0.7,0.6-0.7c0.4,0,0.6,0.3,0.6,0.8l0,0.3c0.7,0,1.4,0,2.2,0.1c0.2,0,0.4-0.1,0.7-0.2
			c0.4,0,0.6,0.3,0.6,0.8l0,0.1c-0.1,0.2-0.1,0.5-0.1,0.9c0,0.6-0.1,1.2-0.1,1.8c0,0.4,0,0.9,0.1,1.5c0,0.5-0.2,0.7-0.6,0.7
			c-1.9-0.1-3.5-0.2-5-0.2c-1.9,0-3.2,0-3.7,0c-0.4,0-1,0.1-1.6,0.1c-0.4,0-0.6-0.2-0.6-0.6c0.1-0.9,0.2-1.7,0.2-2.4
			c0-0.6-0.1-1.4-0.2-2.3C139.9,1.1,140.1,0.8,140.5,0.8z M143.6,5.6l0-1.2c-0.8,0-1.4,0.1-2.1,0.1c-0.1,0-0.2,0-0.3,0
			c0,0.3,0,0.6-0.1,0.9c0,0.3,0.2,0.4,0.5,0.4C142.2,5.6,142.8,5.6,143.6,5.6z M141.2,3.3c0.1,0,0.2,0,0.3,0h2l0-1.2
			c-0.6,0-1.2,0-1.9,0c-0.3,0-0.4,0.2-0.4,0.5C141.3,2.8,141.3,3.1,141.2,3.3z M145.6,12.5c0.9,0,1.9,0,2.9,0.1
			c0.2,0,0.3-0.1,0.3-0.4v-1.3c0-0.1-0.1-0.2-0.2-0.2c-1.3-0.1-3.2-0.1-5.7-0.1c-0.2,0-0.3,0.1-0.3,0.4c0,0.4-0.1,0.8-0.2,1.1
			c0,0.3,0.1,0.5,0.4,0.5C143.7,12.5,144.6,12.5,145.6,12.5z M144.3,15c0.5,0,1-0.1,1.4-0.1c0.4,0,0.8,0,1.2,0l0.2-1.5
			c-0.5,0-1.1,0-1.6,0c-0.5,0-0.9,0-1.3,0L144.3,15z M145.7,5.5c0.4,0,0.7,0,1.1,0l0-1.3c-0.8,0-1.5,0-2.2,0l0,1.2
			C144.9,5.5,145.3,5.5,145.7,5.5z M144.6,2.1l0,1.2h2.2l0-1.2C146.1,2.1,145.4,2.1,144.6,2.1z M147.9,4.2l0,1.3
			c0.7,0,1.3,0,2.1,0.1c0.2,0,0.3-0.1,0.3-0.3V4.2C149.4,4.2,148.6,4.2,147.9,4.2z M147.9,2.1l0,1.2h2.2c0,0,0.1,0,0.1,0V2.4
			c0-0.2,0-0.3-0.1-0.3C149.4,2.1,148.7,2.1,147.9,2.1z"/>
		<path class="st0" d="M168.3,7.8c0,1.6-0.2,3.2-0.7,4.8c-0.7,2-1.6,3-2.7,3c-0.3,0-0.5-0.2-0.9-0.7c-0.3-0.5-0.4-0.9-0.4-1.2
			c0-0.2,0.3-0.3,0.9-0.3c0.7-0.1,1.1-0.3,1.3-0.5c0.5-0.5,0.9-1.4,1.2-2.8c0.2-1.1,0.3-2.2,0.3-3.2c0-1-0.4-1.4-1.3-1.4
			c-0.3,0-0.9,0-1.7,0.1c-0.4,1.8-0.9,3.3-1.3,4.4c-0.5,1.3-1.3,2.6-2.2,3.9c-0.8,1.1-1.4,1.7-1.8,1.7c-0.2,0-0.6-0.2-0.9-0.6
			c-0.4-0.4-0.6-0.6-0.6-0.9c0-0.1,0.1-0.3,0.3-0.4c0.2-0.1,0.5-0.3,0.9-0.6c1-0.7,1.8-1.5,2.5-2.5c0.8-1.2,1.5-2.9,2.2-4.9
			c-0.7,0.1-1.8,0.3-3.1,0.6c-0.3,0-0.5-0.2-0.5-0.6c0-0.7,0.6-1,1.9-1.1c0.3,0,1-0.1,2.1-0.1c0.2-0.8,0.3-1.6,0.3-2.6
			c0-0.5,0.2-0.8,0.6-0.8c0.4,0,0.6,0.2,0.6,0.7c0,0.2-0.1,1.1-0.4,2.6c0.7,0,1.1,0,1.4,0c0.9,0,1.6,0.3,2,0.9
			C168.2,5.8,168.3,6.6,168.3,7.8z M174.7,7.1c0,0.2-0.2,0.6-0.6,1.2c-0.4,0.5-0.7,0.8-0.9,0.8c-0.4,0-1-0.6-1.9-1.7
			c-0.8-1.1-1.2-1.9-1.2-2.4c0-0.2,0.1-0.4,0.2-0.4c0.1,0,0.3,0.2,0.7,0.6c0.4,0.4,0.9,0.8,1.5,1.2c0.5,0.3,1,0.5,1.6,0.5
			C174.5,6.8,174.7,6.9,174.7,7.1z"/>
		<path class="st0" d="M182.3,11.6c-0.2,0.8-0.5,1.6-0.8,2.5c-0.5,1.3-0.9,1.9-1.3,1.9c-0.4,0-0.8-0.6-1.1-1.9
			c-0.3-1.1-0.4-2.7-0.4-4.8c0-0.8,0.1-2,0.4-3.6c0.3-1.7,0.5-2.8,0.8-3.4c0.2-0.4,0.4-0.6,0.8-0.6c0.4,0,0.7,0.2,0.7,0.7
			c0,0.1-0.1,0.5-0.3,1c-0.3,0.8-0.6,1.7-0.8,2.8c-0.2,1.1-0.4,2.1-0.4,2.8c0,3.1,0.2,4.7,0.6,4.7c0.2,0,0.6-0.8,1.3-2.3
			c0.1-0.2,0.2-0.3,0.3-0.3C182.2,11.3,182.3,11.4,182.3,11.6z M192.5,12.4c0,0.1-0.2,0.5-0.4,1.2c-0.2,0.6-0.5,0.9-0.9,1.1
			c-0.4,0.2-1.4,0.3-2.9,0.3c-1.2,0-2.2-0.2-3.1-0.6c-1.2-0.6-1.8-1.5-1.8-2.7c0-1.3,0.3-2,0.8-2c0.1,0,0.2,0.1,0.2,0.3
			c-0.1,0.6-0.2,1-0.2,1.2c0,1.4,0.9,2.1,2.8,2.1c0.8,0,1.7-0.1,2.7-0.3c0.6-0.1,1.1-0.3,1.6-0.5c0.4-0.2,0.7-0.3,0.9-0.3
			C192.4,12,192.5,12.2,192.5,12.4z M190.8,3.7c0,0.2-0.5,0.8-1.5,1.6c-1,0.8-1.6,1.2-1.8,1.2c-0.2,0-0.3-0.1-0.3-0.3
			c0-0.1,0.2-0.5,0.7-1c0.4-0.4,0.7-0.8,0.9-0.9c-0.1,0-0.2,0-0.3,0c-0.9,0-1.8,0.1-2.8,0.3c-1.1,0.2-1.6,0.4-1.6,0.4
			c-0.2,0-0.4-0.2-0.4-0.5c0-0.5,0.2-0.8,0.5-1c0.1,0,0.5-0.1,1.1-0.2c1.4-0.2,3-0.2,4.8-0.2C190.5,3,190.8,3.3,190.8,3.7z"/>
		<path class="st0" d="M202.4,15.9c0,0.4-0.1,0.8-0.4,1.1c-0.3,0.3-0.6,0.4-1,0.4c-0.4,0-0.7-0.1-0.9-0.4c-0.2-0.3-0.4-0.6-0.4-1.1
			c0-0.9,0.4-1.4,1.3-1.4c0.4,0,0.7,0.1,1,0.4C202.3,15.1,202.4,15.4,202.4,15.9z M202,2.9c-0.1,0.5-0.2,2.1-0.2,4.9
			c0,2.4,0,3.8,0.1,4c0,0.7-0.3,1-0.9,1c-0.6,0-0.9-0.3-0.9-1c0-0.5,0-1.1,0.1-2c0.1-0.9,0.1-1.6,0.1-2c0-0.5,0-1.3-0.1-2.4
			c-0.1-1.1-0.1-1.9-0.1-2.5c0-0.7,0.3-1.1,0.9-1.1C201.7,1.8,202,2.2,202,2.9z"/>
	</g>
</g>
<g>
	<g>
		<path class="st0" d="M-637.1,3.8h11c0.2,0,0.3,0.1,0.3,0.3c0,0.3-0.1,0.6-0.2,0.8c-0.2,0.2-0.4,0.3-0.7,0.3c-0.3,0-1,0-2-0.1
			c-0.8,0-1.6,0-2.5,0l-0.1,7c1,0,2.3,0.2,3.7,0.4c1.3,0.2,2.4,0.3,3.2,0.3c0.4,0,0.9,0,1.3-0.1c0.1,0,0.2,0.1,0.2,0.2
			c0,0.5-0.1,1-0.3,1.5c-0.2,0.4-0.5,0.6-0.7,0.6c-0.2,0-0.4,0-0.7-0.1c-1.2-0.5-2.4-0.9-3.6-1.1c-1-0.2-2.3-0.3-3.8-0.3
			c-1.8,0-3.4,0.2-4.5,0.5c-1.2,0.3-2.2,0.7-3,1.1c-0.3,0.2-0.5,0.3-0.7,0.3c-0.5,0-0.8-0.3-0.8-0.7c0-0.3,0.1-0.6,0.3-0.8
			c0.2-0.2,0.4-0.4,0.7-0.4c3.4-0.8,5.9-1.2,7.5-1.3l-0.1-7.1c-1.8,0-3.1,0.1-4,0.2c-0.5,0.1-0.8,0.2-1,0.2c-0.4,0-0.7-0.3-0.7-0.7
			c0-0.2,0.1-0.4,0.3-0.6C-637.6,3.8-637.4,3.8-637.1,3.8z"/>
		<path class="st0" d="M-613.4,0.2c0.4,0,0.7,0.2,0.7,0.7l-0.1,2.3c0.4,0,0.7,0,1,0c0.4,0,0.8,0,1.2,0l-0.1-2.4
			c0-0.4,0.2-0.6,0.6-0.6c0.4,0,0.6,0.2,0.6,0.7l-0.1,2.4c0.8,0.1,1.6,0.2,2.4,0.3c1.3,0.2,2.5,0.2,3.7,0.2c0.3,0,0.6,0,0.9-0.1
			c0.1,0,0.1,0.1,0.1,0.3c0,0.4-0.1,0.8-0.3,1.2c-0.2,0.4-0.4,0.6-0.6,0.6c-0.3,0-0.7-0.1-1-0.3c-1.4-0.6-2.7-0.9-3.9-1.1
			c-0.9-0.1-2.1-0.2-3.4-0.2c-1.6,0-2.9,0.1-4.1,0.3c-1.2,0.3-2.4,0.6-3.6,1.1c-0.4,0.1-0.6,0.2-0.9,0.2c-0.4,0-0.6-0.3-0.6-0.7
			c0-0.2,0.1-0.5,0.3-0.7c0.2-0.2,0.4-0.3,0.7-0.4c2.6-0.4,4.6-0.7,6.2-0.8l-0.1-2.4C-613.9,0.4-613.7,0.2-613.4,0.2z M-614.1,4.5
			c0.4,0,0.6,0.2,0.6,0.6l0.1,1.5h3.4c0,0,0-0.1,0-0.1l0.2-1.5c0.1-0.3,0.3-0.5,0.6-0.5c0.4,0,0.6,0.2,0.6,0.6l-0.6,1.3
			c0,0,0,0.1,0,0.1h2.8c0.1,0,0.2,0.1,0.2,0.3c0,0.3-0.1,0.5-0.2,0.7c-0.2,0.2-0.4,0.3-0.7,0.3c-0.2,0-0.8,0-1.8-0.1
			c-0.7,0-1.5,0-2.3,0c0,0.1,0,0.2,0,0.3c0,0.3,0,0.6,0,0.9h3.8c0.1,0,0.2,0.1,0.2,0.3c0,0.3-0.1,0.5-0.2,0.7
			c-0.2,0.2-0.4,0.3-0.7,0.3c-0.2,0-0.6,0-1.4-0.1c-0.6,0-1.2,0-1.8,0c0,0.3,0,0.5,0,0.8v0.3h5.8c0.2,0,0.3,0.1,0.3,0.3
			c0,0.3-0.1,0.6-0.2,0.8c-0.2,0.2-0.4,0.3-0.7,0.3c-0.3,0-1-0.1-2.1-0.2c-0.7,0-1.4-0.1-2.2-0.1c2.3,1.6,3.8,2.5,4.3,2.6
			c0.4,0.1,0.8,0.2,1.3,0.2c0.2,0,0.3,0.1,0.3,0.4c0,0.3-0.2,0.6-0.6,0.9c-0.4,0.3-0.8,0.5-1.2,0.5c-0.3,0-0.5-0.1-0.8-0.4
			c-0.9-1-1.9-1.9-3.1-2.9c-0.4-0.3-0.8-0.6-1.1-0.8l0,3.2c0,0.9-0.2,1.4-0.6,1.4c-0.4,0-0.6-0.5-0.6-1.4c0-1.2,0-2.3,0.1-3.3
			c-0.8,0.9-1.7,1.7-2.7,2.4c-0.8,0.6-1.7,1.1-2.8,1.5c-0.2,0.1-0.4,0.1-0.5,0.1c-0.3,0-0.6-0.2-0.9-0.6c-0.3-0.3-0.4-0.6-0.4-0.9
			c0-0.2,0.2-0.2,0.5-0.3c0.8-0.1,1.3-0.2,1.7-0.3c0.9-0.2,1.8-0.5,2.6-1.1c0.7-0.4,1.3-0.9,1.8-1.4c-1.5,0-2.6,0.1-3.4,0.2
			c-0.5,0.1-0.9,0.2-1.1,0.2c-0.4,0-0.6-0.2-0.6-0.6c0-0.2,0.1-0.5,0.3-0.6c0.2-0.1,0.4-0.2,0.7-0.2h4.9c0-0.1,0-0.2,0-0.3
			c0-0.3,0-0.5,0-0.8c-1.2,0-2.1,0.1-2.7,0.2c-0.4,0.1-0.6,0.2-0.7,0.2c-0.3,0-0.5-0.2-0.6-0.6c0-0.2,0.1-0.4,0.3-0.6
			c0.2-0.1,0.4-0.2,0.7-0.2h3c0-0.3,0-0.6,0-0.9c0-0.1,0-0.2,0-0.3c-1.6,0-2.8,0.1-3.5,0.2c-0.5,0.1-0.8,0.2-0.9,0.2
			c-0.3,0-0.5-0.2-0.6-0.6c0-0.2,0.1-0.4,0.3-0.6c0.2-0.1,0.4-0.2,0.7-0.2h2.3c0,0,0-0.1,0-0.1l-0.4-1.4
			C-614.5,4.7-614.4,4.5-614.1,4.5z M-617.3,1.2c0.3,0.1,0.5,0.1,0.6,0.1c0.3,0,0.7-0.1,1.2-0.3c0.1,0,0.2,0.1,0.2,0.3
			c0,0.2-0.2,0.5-0.5,1c-0.3,0.5-0.6,0.7-0.9,0.7c-0.2,0-0.4-0.1-0.5-0.4c-0.2-0.3-0.3-0.7-0.3-1.1C-617.5,1.3-617.4,1.2-617.3,1.2z
			 M-607.8,0.9L-607.8,0.9c0.5,0.2,0.8,0.3,1.1,0.4c0.2,0,0.4,0.1,0.7,0.1c0.1,0,0.2,0.1,0.2,0.3c0,0.2-0.1,0.5-0.4,0.7
			c-0.4,0.3-0.8,0.5-1.1,0.5c0,0-0.1,0-0.1-0.1c-0.1-0.1-0.3-0.6-0.6-1.4c0-0.1,0-0.1,0-0.2C-608.1,1-608,0.9-607.8,0.9z"/>
		<path class="st0" d="M-599.1,5.4h1.7l0-3.9c0-0.6,0.2-0.8,0.6-0.8c0.5,0,0.8,0.3,0.8,0.8l-0.1,3.9h2.1c0.1,0,0.2,0.1,0.2,0.3
			c0,0.2-0.1,0.5-0.2,0.6c-0.2,0.2-0.4,0.3-0.7,0.3c-0.1,0-0.4,0-0.9-0.1c-0.2,0-0.4,0-0.6,0l-0.1,4.6c0.9-0.2,1.7-0.4,2.2-0.5
			c0.2,0,0.3,0.1,0.3,0.4c0,0.4-0.1,0.6-0.4,0.7c-1.9,0.6-3.7,1.3-5.3,2.1c-0.4,0-0.6-0.2-0.6-0.6c0-0.4,0.1-0.6,0.2-0.8
			c0.1-0.2,0.2-0.3,0.5-0.4c0.8-0.2,1.4-0.4,2.1-0.6l0-4.9c-0.7,0-1.3,0.1-1.6,0.2c-0.3,0.1-0.4,0.2-0.5,0.2c-0.4,0-0.6-0.2-0.6-0.6
			c0-0.2,0.1-0.4,0.3-0.6C-599.7,5.4-599.4,5.4-599.1,5.4z M-583.8,4.9c0.4,0,0.6,0.3,0.6,0.8c0,0.1-0.1,0.3-0.2,0.5
			c-0.3,0.7-0.7,1.9-1.3,3.8c-0.1,0.4-0.3,0.6-0.6,0.6c-0.3,0-0.5-0.2-0.5-0.5c0.1-0.7,0.4-1.8,0.9-3.4c0-0.1-0.1-0.2-0.3-0.2
			c-0.2,0-0.5,0-0.9,0.1c-0.5,0.1-1,0.2-1.5,0.3l0,3.7c0,0.9-0.2,1.4-0.6,1.4c-0.4,0-0.6-0.5-0.6-1.4c0-1.3,0-2.4,0-3.4
			c-0.8,0.2-1.5,0.4-2.1,0.6c0,1.7-0.1,3.7-0.1,5.8c0,0.4,0.2,0.6,0.5,0.7c0.7,0.1,2.3,0.1,5,0.1c1.3,0,2.4-0.2,3.4-0.6
			c0.1,0,0.2,0.2,0.2,0.5c0,0.4-0.1,0.9-0.3,1.4c-0.2,0.6-0.5,0.9-0.7,0.9c-0.3,0-3.1-0.3-8.2-0.9c-0.8-0.1-1.2-0.5-1.2-1.1
			c0.1-2.6,0.1-4.6,0.1-6c0-0.1,0-0.3,0-0.4c-0.4,0.2-0.8,0.4-1.3,0.6c-0.5,0-0.7-0.2-0.7-0.6c0-0.3,0.1-0.5,0.2-0.8
			c0.1-0.2,0.3-0.3,0.6-0.3c0.4-0.1,0.9-0.2,1.3-0.4c0-1,0-2.1-0.1-3.2c0-0.4,0.2-0.6,0.6-0.6c0.5,0,0.7,0.3,0.7,0.8
			c0,0.8,0,1.7,0,2.7c0.7-0.2,1.4-0.4,2.1-0.5c0-0.6,0-1.1,0-1.6c0-0.9,0-2-0.1-3.1c0-0.6,0.2-0.8,0.6-0.8c0.4,0,0.6,0.3,0.6,0.8
			c-0.1,1.2-0.1,2.2-0.1,3.1l0,1.4c0.8-0.2,1.6-0.3,2.3-0.4c0.4-0.1,0.7-0.2,1-0.3C-584.1,4.9-583.9,4.9-583.8,4.9z"/>
		<path class="st0" d="M-579.6,2.2c0.1,0,0.3,0,0.4,0.1c1.3-0.1,2.5-0.1,3.6-0.2c0-0.3-0.1-0.7-0.1-1c0-0.4,0.2-0.6,0.6-0.6
			c0.4,0,0.7,0.2,0.7,0.6c0,0.2,0,0.5,0.1,0.9c0.9,0,1.7,0,2.4,0l0-1c0-0.5,0.2-0.7,0.7-0.7c0.5,0,0.7,0.2,0.7,0.7l0,1.1
			c0.7,0,1.5,0,2.5,0c0-0.1,0-0.2,0-0.3c0-0.8,0.2-1.2,0.6-1.2c0.4,0,0.6,0.3,0.6,0.8c0,0.3-0.1,0.5-0.1,0.7c0.6,0,1.2,0,1.8,0.1
			c0.5,0,0.9,0,1.2,0c0.2,0,0.5,0,0.8-0.1c0.3-0.1,0.5-0.2,0.6-0.2c0.2,0,0.2,0.1,0.2,0.2c0,0.4-0.1,0.8-0.4,1.3
			c-0.3,0.5-0.6,0.7-0.9,0.7c-0.3,0-0.9-0.1-1.7-0.3c-0.6-0.1-1.1-0.2-1.8-0.3c0,0.1,0,0.1,0,0.2C-567,4.5-567,5-567,5.3
			c0,0.4-0.2,0.6-0.6,0.6c-0.8-0.1-2.1-0.1-3.7-0.1c-1.2,0-2.4,0.1-3.6,0.3c-0.4,0-0.6-0.2-0.6-0.6c0-0.5,0.1-1,0.1-1.5
			c0-0.2,0-0.4,0-0.7c-1.2,0-2.2,0.1-2.9,0.3c-0.6,0.1-1.1,0.2-1.5,0.2c-0.3,0-0.5-0.2-0.5-0.6c0-0.2,0.1-0.5,0.2-0.7
			C-579.9,2.3-579.7,2.2-579.6,2.2z M-578.3,6.7c0.3,0,0.4,0,0.6,0.1c0.2,0.1,0.4,0.1,0.5,0.1c1.3-0.1,3.1-0.1,5.3-0.1
			c2.7,0,5.1,0.1,7,0.3l0.8-0.2c0.4,0,0.6,0.2,0.6,0.5c0,0.1,0,0.3-0.1,0.5c-0.2,0.6-0.4,1.6-0.4,2.9c0,0.4-0.2,0.6-0.5,0.6
			c-0.3,0-0.5-0.2-0.5-0.6c0-0.8,0-1.5,0.1-2.2c0-0.1-0.1-0.1-0.3-0.2c-1.6-0.3-3.4-0.4-5.4-0.4c0,0.1,0.1,0.3,0.1,0.5
			c0,0.5-0.1,1-0.1,1.5l2.1,0c0.2,0,0.5-0.1,0.9-0.2c0.5,0,0.7,0.2,0.7,0.6c-0.2,0.7-0.3,1.5-0.3,2.5c0,0.6,0.1,1.4,0.2,2.4
			c0,0.6-0.2,0.9-0.6,0.9c-0.2,0-0.3-0.1-0.5-0.3c-0.1-0.3-0.1-0.7-0.1-1.2c0-1.5,0.1-2.6,0.2-3.5c0-0.1-0.2-0.2-0.5-0.2
			c-0.7,0-1.4,0-2,0l0.1,4.8c0,1-0.2,1.5-0.7,1.5c-0.4,0-0.6-0.5-0.6-1.5c0.1-2,0.1-3.6,0.1-4.8c-0.8,0-1.6,0-2.4,0.1v2.3
			c0,0.5,0,1-0.1,1.4c-0.1,0.4-0.3,0.7-0.5,1c-0.2,0.2-0.4,0.4-0.5,0.4c-0.2,0-0.5-0.1-0.9-0.4c-0.4-0.3-0.6-0.6-0.6-0.8
			c0-0.2,0.1-0.3,0.3-0.4c0.4-0.1,0.7-0.3,0.9-0.6c0.2-0.3,0.3-1,0.3-2c0-0.5-0.1-1.1-0.2-1.7c0-0.4,0.2-0.6,0.6-0.6
			c0.2,0,0.4,0.1,0.5,0.2l2.5,0c0-0.4,0-0.9-0.1-1.4c0-0.2,0-0.3,0.1-0.5c-1.7,0-3.2,0.1-4.7,0.3c-0.5,0-0.9,0.2-0.9,0.4l0,0.1
			c0,1.2-0.1,1.9-0.2,2.1c-0.1,0.3-0.2,0.4-0.5,0.4c-0.2,0-0.3-0.1-0.3-0.3c0-1.5-0.1-2.8-0.3-3.8C-578.9,6.9-578.7,6.7-578.3,6.7z
			 M-574.3,3.2c0,0.4,0,0.9,0,1.4c0,0.2,0.1,0.4,0.3,0.4c0.7-0.1,1.5-0.2,2.2-0.2l0-1.6C-572.7,3.2-573.6,3.2-574.3,3.2z
			 M-570.7,3.2l-0.1,1.6c0.7,0,1.5,0,2.4,0.1c0.2,0,0.3-0.1,0.3-0.4c0-0.3,0-0.7-0.1-1.2C-568.9,3.3-569.7,3.2-570.7,3.2z"/>
		<path class="st0" d="M-545.5,8.6c0,2.8-1.3,4.9-3.9,6.3c-1,0.6-1.9,0.9-2.4,0.9c-0.3,0-0.7-0.2-1-0.5c-0.4-0.3-0.6-0.7-0.6-1.1
			c0-0.1,0.2-0.3,0.5-0.3c0.2,0,0.6-0.1,1-0.2c1.2-0.2,2.2-0.6,2.9-1.1c0.7-0.5,1.3-1.1,1.7-1.8c0.5-0.8,0.7-1.7,0.7-2.6
			c0-0.7-0.2-1.5-0.6-2.2c-0.8-1.6-2.2-2.4-4.1-2.4c-0.1,0-0.2,0-0.3,0c-0.1,0-0.2,0-0.3,0c-0.8,4.1-1.8,7.2-3,9
			c-0.7,1.1-1.4,1.6-1.9,1.6c-0.7,0-1.3-0.6-1.8-1.9c-0.4-1-0.6-2-0.6-3c0-1.5,0.4-2.9,1.3-4.1c1.3-1.9,3.4-2.8,6.1-2.8
			c1.7,0,3.1,0.5,4.3,1.6C-546.2,5.1-545.5,6.6-545.5,8.6z M-553.2,3.7c-1.8,0.4-3,1.1-3.8,2.2c-0.8,1.1-1.2,2.2-1.2,3.2
			c0,0.6,0.1,1.2,0.3,2c0.3,0.9,0.6,1.3,1,1.3c0.4,0,0.8-0.3,1.2-1C-554.6,9.8-553.8,7.2-553.2,3.7z"/>
		<path class="st0" d="M-540.1,10.1h2.6c0-0.3,0-0.6,0-0.9c0-0.6,0.2-0.8,0.6-0.8c0.4,0,0.6,0.3,0.6,0.8c0,0.3,0,0.6,0,0.9h2.3
			c0.1,0,0.2,0.1,0.2,0.2c0,0.3-0.1,0.5-0.2,0.7c-0.2,0.2-0.4,0.3-0.7,0.3c-0.1,0-0.5,0-1-0.1c-0.2,0-0.4,0-0.7,0c0,0.1,0,0.2,0,0.3
			l0,0.4c0,0,0,0,0.1,0c0.1,0,0.4,0.2,1.1,0.7c0.7,0.5,1,0.8,1,1.1c0,0.4-0.2,0.6-0.6,0.6c-0.1,0-0.2,0-0.3-0.1
			c-0.5-0.4-1-0.8-1.3-0.9l0,2.7c0,0.9-0.2,1.4-0.6,1.4c-0.4,0-0.6-0.5-0.6-1.4c0-1.1,0-2.1,0.1-2.9c-0.4,0.6-0.9,1.1-1.4,1.6
			c-0.5,0.5-1.1,0.9-1.8,1.2c-0.2,0.1-0.3,0.1-0.3,0.1c-0.3,0-0.6-0.2-1-0.6c-0.3-0.3-0.4-0.6-0.4-0.9c0-0.2,0.2-0.3,0.5-0.3
			c0.5,0,0.9-0.1,1.1-0.2c0.6-0.1,1.1-0.4,1.7-0.8c0.5-0.4,1-0.8,1.4-1.3c0.1-0.2,0.2-0.3,0.3-0.3v0c0-0.1,0-0.2,0-0.3
			c0,0-0.1,0-0.1,0c-1.1,0-1.9,0-2.4,0.1c-0.3,0.1-0.5,0.1-0.6,0.1c-0.3,0-0.5-0.3-0.6-0.7c0-0.2,0.1-0.4,0.3-0.6
			C-540.6,10.2-540.4,10.1-540.1,10.1z M-537.6,2.2h3.8c0-0.3,0-0.7-0.1-1c0-0.6,0.2-0.8,0.7-0.8c0.4,0,0.6,0.3,0.6,0.8
			c0,0.4,0,0.7-0.1,1h4.7c0.2,0,0.3,0.1,0.3,0.3c0,0.3-0.1,0.6-0.2,0.8c-0.2,0.2-0.4,0.3-0.7,0.3c-0.2,0-0.8-0.1-1.7-0.2
			c-0.6,0-1.2-0.1-1.9-0.1c0.1,0.1,0.2,0.2,0.3,0.3c2.4,1.6,3.8,2.5,4.4,2.7c0.4,0.1,0.8,0.2,1.3,0.2c0.3,0,0.4,0.1,0.4,0.4
			c0,0.3-0.2,0.6-0.6,0.9c-0.4,0.3-0.8,0.5-1.3,0.5c-0.3,0-0.6-0.1-0.9-0.4c-0.9-1-1.9-1.9-3.1-2.9c-0.4-0.3-0.7-0.6-1-0.7l0.1,3.4
			c0,0.9-0.2,1.4-0.6,1.4c-0.4,0-0.6-0.5-0.6-1.4c0-1.4,0.1-2.6,0.1-3.5c-0.7,0.9-1.5,1.8-2.4,2.4c-0.7,0.6-1.6,1.2-2.6,1.6
			c-0.2,0.1-0.4,0.1-0.4,0.1c-0.3,0-0.7-0.2-1.1-0.7c-0.3-0.4-0.5-0.7-0.5-0.9c0-0.2,0.2-0.4,0.6-0.4c0.7-0.1,1.2-0.2,1.6-0.3
			c0.8-0.2,1.7-0.6,2.4-1.1c0.7-0.5,1.2-1,1.7-1.6c-1.2,0-2.1,0.1-2.8,0.3c-0.4,0.1-0.7,0.2-0.9,0.2c-0.4,0-0.7-0.3-0.7-0.8
			c0-0.2,0.1-0.4,0.3-0.6C-538.2,2.2-537.9,2.2-537.6,2.2z M-531.6,10.1h1.6c0-0.4,0-0.7,0-1.1c0-0.6,0.2-0.8,0.6-0.8
			c0.4,0,0.6,0.3,0.6,0.8c0,0.4-0.1,0.8-0.1,1.1h3.2c0.2,0,0.3,0.1,0.3,0.2c0,0.3-0.1,0.6-0.2,0.9c-0.2,0.2-0.4,0.4-0.7,0.4
			c-0.1,0-0.5-0.1-1-0.2c-0.5,0-1-0.1-1.6-0.1c0,0.1,0,0.2,0,0.2v0.4c0.1,0,0.3,0.2,0.4,0.3c1.7,1.1,2.7,1.8,3.1,1.9
			c0.3,0.1,0.6,0.1,1,0.2c0.2,0,0.3,0.1,0.3,0.4c0,0.3-0.2,0.6-0.6,0.9c-0.4,0.3-0.8,0.4-1.2,0.4c-0.3,0-0.5-0.1-0.8-0.4
			c-0.6-0.8-1.2-1.5-1.9-2.3c-0.1-0.1-0.2-0.2-0.3-0.3l0,3.1c0,0.9-0.2,1.4-0.7,1.4c-0.4,0-0.6-0.5-0.6-1.4c0.1-1.1,0.1-2.1,0.1-2.9
			c-0.3,0.5-0.6,0.9-1,1.3c-0.4,0.4-0.8,0.8-1.3,1.1c-0.1,0.1-0.2,0.1-0.2,0.1c-0.3,0-0.6-0.2-0.9-0.6c-0.3-0.3-0.4-0.5-0.4-0.7
			c0-0.2,0.2-0.3,0.4-0.3c0.4,0,0.7-0.1,0.8-0.2c0.4-0.1,0.9-0.4,1.3-0.8c0.4-0.4,0.8-0.8,1-1.3c0.1-0.1,0.1-0.2,0.2-0.3
			c0,0,0-0.1,0-0.2c0-0.1,0-0.1,0-0.2c-0.6,0-1.1,0.1-1.4,0.1c-0.3,0.1-0.4,0.1-0.5,0.1c-0.3,0-0.5-0.3-0.6-0.7
			c0-0.2,0.1-0.4,0.3-0.6C-532.1,10.2-531.9,10.1-531.6,10.1z"/>
		<path class="st0" d="M-508.1,6.2c0,0.3-0.3,0.6-0.8,1c-1.2,0.9-2.9,2-5.1,3.4c0,0.1,0,0.4,0,0.8c0,0.3,0,0.6,0,0.8
			c0,0.5-0.2,0.7-0.7,0.7c-0.3,0-0.4-0.2-0.5-0.6c0-0.1,0-0.4,0-1c-0.8,0.5-1.4,0.8-1.7,1.1c-0.7,0.6-1.1,1.1-1.1,1.7
			c0,0.4,0.3,0.6,1,0.8c0.5,0.1,1,0.2,1.5,0.2c1.5,0,2.8-0.3,4-0.8c0.9-0.4,1.4-0.6,1.4-0.6c0.1,0,0.2,0.1,0.2,0.4
			c0,0.5-0.1,1-0.4,1.5c-0.2,0.4-0.7,0.6-1.6,0.8c-0.7,0.1-1.4,0.1-2.3,0.1c-1.1,0-2.1-0.1-2.9-0.4c-1.3-0.4-1.9-1.1-1.9-2
			c0-0.8,0.5-1.6,1.4-2.4c0.1-0.2,0.9-0.7,2.2-1.7c0-0.9-0.1-1.4-0.1-1.6c-0.1-0.6-0.5-0.9-1.1-0.9c-0.7,0-1.4,0.2-1.9,0.5
			c-0.2,0.1-0.8,0.6-1.7,1.4c-0.1,0.1-0.2,0.2-0.4,0.3c-0.4,0-0.6-0.3-0.6-0.9c0-0.4,0.4-0.9,1.2-1.4c1.1-0.8,2.1-1.8,3-3.2
			c-0.4,0.1-1.1,0.2-2,0.3c0,0-0.3,0.1-0.8,0.2c-0.4,0.1-0.6,0.2-0.8,0.2c-0.3,0-0.5-0.2-0.5-0.7c0-0.6,0.4-0.9,1.2-1
			c0.7,0,1.9-0.1,3.3-0.1c0.1-0.3,0.4-0.9,0.8-1.9c0.2-0.5,0.4-0.7,0.8-0.7c0.5,0,0.7,0.2,0.7,0.7c0,0.2-0.3,0.8-0.9,1.9
			c0.4,0,1.1,0,1.9,0c0.9,0,1.5,0,1.9,0c0.1,0,0.3,0,0.5,0c0.2,0,0.4-0.1,0.5-0.1c0.1,0,0.2,0.1,0.2,0.2c0,0.3-0.2,0.6-0.4,1
			c-0.3,0.4-0.5,0.6-0.8,0.6c-0.2,0-0.5-0.1-0.8-0.2c-0.3-0.1-0.5-0.1-0.8-0.2c-0.6-0.2-1.6-0.3-2.8-0.3c-0.6,1-1.3,1.9-1.9,2.6
			c0.5-0.1,1-0.1,1.4-0.1c1.1,0,1.8,0.8,1.8,2.3c0,0.2,0,0.3,0.1,0.4c1.8-1.3,3.3-2.4,4.4-3.3c0.4-0.3,0.7-0.4,0.9-0.4
			C-508.3,5.5-508.1,5.7-508.1,6.2z"/>
		<path class="st0" d="M-500,9.5c0.2,0,0.3,0,0.5,0c0.2,0,0.4,0,0.8,0h3.1c0.7,0,1.5,0,2.5,0.1c0.2,0,0.4,0,0.6-0.1
			c0.4,0,0.6,0.2,0.6,0.6c0,0,0,0-0.1,0.1c-0.1,0.1-0.1,0.3-0.1,0.6c0,0.4-0.1,0.8-0.1,1.2c0,0.2,0,0.5,0.1,0.8
			c0,0.4-0.2,0.7-0.5,0.7c-0.4,0-0.7-0.1-1.1-0.1l-0.4,1.5c0.7,0,1.4,0.1,2.2,0.2c1.2,0.1,2.4,0.2,3.5,0.2c0.3,0,0.6,0,0.9-0.1
			c0.1,0,0.1,0.1,0.1,0.3c0,0.4-0.1,0.8-0.3,1.2c-0.2,0.4-0.4,0.6-0.6,0.6c-0.3,0-0.7-0.1-1-0.3c-1.3-0.5-2.5-0.9-3.7-1.1
			c-0.9-0.1-2-0.2-3.3-0.2c-1.6,0-2.9,0.1-4,0.3c-1.2,0.3-2.4,0.7-3.6,1.1c-0.4,0.2-0.6,0.2-0.9,0.2c-0.4,0-0.5-0.3-0.6-0.8
			c0-0.2,0.1-0.4,0.3-0.7c0.2-0.2,0.4-0.3,0.7-0.4c2.3-0.4,4.2-0.7,5.7-0.9l-0.3-1.6c0,0-0.1,0-0.1,0c-0.3,0-0.7,0.1-1.1,0.2
			c-0.3,0-0.5-0.2-0.5-0.7c0.1-0.6,0.1-1.1,0.1-1.6c0-0.4,0-0.8-0.1-1.3C-500.6,9.7-500.4,9.5-500,9.5z M-501.8,7.6h11.6
			c0.2,0,0.3,0.1,0.3,0.3c0,0.3-0.1,0.6-0.2,0.8c-0.2,0.2-0.4,0.3-0.7,0.3s-1-0.1-2.1-0.2c-1.1,0-2.4-0.1-3.8-0.1
			c-2.1,0-3.6,0.1-4.5,0.2c-0.5,0.1-0.9,0.2-1,0.2c-0.4,0-0.6-0.2-0.6-0.6c0-0.2,0.1-0.4,0.3-0.6C-502.4,7.7-502.1,7.6-501.8,7.6z
			 M-501.5,0.8c0.2,0,0.4,0,0.6,0.1c0.2,0.1,0.5,0.1,0.9,0.1h1.6V0.7c0-0.4,0.2-0.7,0.6-0.7c0.4,0,0.7,0.3,0.7,0.8l0,0.3h1.8
			c0.1,0,0.2,0,0.3,0l0-0.4c0-0.4,0.2-0.7,0.6-0.7c0.4,0,0.6,0.3,0.6,0.8l0,0.3c0.7,0,1.4,0,2.2,0.1c0.2,0,0.4-0.1,0.7-0.2
			c0.4,0,0.6,0.3,0.6,0.8l0,0.1c-0.1,0.2-0.1,0.5-0.1,0.9c0,0.6-0.1,1.2-0.1,1.8c0,0.4,0,0.9,0.1,1.5c0,0.5-0.2,0.7-0.6,0.7
			c-1.9-0.1-3.5-0.2-5-0.2c-1.9,0-3.2,0-3.7,0c-0.4,0-1,0.1-1.6,0.1c-0.4,0-0.6-0.2-0.6-0.6c0.1-0.9,0.2-1.7,0.2-2.4
			c0-0.6-0.1-1.4-0.2-2.3C-502.1,1.1-501.9,0.8-501.5,0.8z M-498.4,5.6l0-1.2c-0.8,0-1.4,0.1-2.1,0.1c-0.1,0-0.2,0-0.3,0
			c0,0.3,0,0.6-0.1,0.9c0,0.3,0.2,0.4,0.5,0.4C-499.8,5.6-499.1,5.6-498.4,5.6z M-500.7,3.3c0.1,0,0.2,0,0.3,0h2l0-1.2
			c-0.6,0-1.2,0-1.9,0c-0.3,0-0.4,0.2-0.4,0.5C-500.7,2.8-500.7,3.1-500.7,3.3z M-496.4,12.5c0.9,0,1.9,0,2.9,0.1
			c0.2,0,0.3-0.1,0.3-0.4v-1.3c0-0.1-0.1-0.2-0.2-0.2c-1.3-0.1-3.2-0.1-5.7-0.1c-0.2,0-0.3,0.1-0.3,0.4c0,0.4-0.1,0.8-0.2,1.1
			c0,0.3,0.1,0.5,0.4,0.5C-498.3,12.5-497.4,12.5-496.4,12.5z M-497.6,15c0.5,0,1-0.1,1.4-0.1c0.4,0,0.8,0,1.2,0l0.2-1.5
			c-0.5,0-1.1,0-1.6,0c-0.5,0-0.9,0-1.3,0L-497.6,15z M-496.3,5.5c0.4,0,0.7,0,1.1,0l0-1.3c-0.8,0-1.5,0-2.2,0l0,1.2
			C-497.1,5.5-496.7,5.5-496.3,5.5z M-497.3,2.1l0,1.2h2.2l0-1.2C-495.9,2.1-496.6,2.1-497.3,2.1z M-494.1,4.2l0,1.3
			c0.7,0,1.3,0,2.1,0.1c0.2,0,0.3-0.1,0.3-0.3V4.2C-492.6,4.2-493.4,4.2-494.1,4.2z M-494.1,2.1l0,1.2h2.2c0,0,0.1,0,0.1,0V2.4
			c0-0.2,0-0.3-0.1-0.3C-492.6,2.1-493.3,2.1-494.1,2.1z"/>
		<path class="st0" d="M-473.7,7.8c0,1.6-0.2,3.2-0.7,4.8c-0.7,2-1.6,3-2.7,3c-0.3,0-0.5-0.2-0.9-0.7c-0.3-0.5-0.4-0.9-0.4-1.2
			c0-0.2,0.3-0.3,0.9-0.3c0.7-0.1,1.1-0.3,1.3-0.5c0.5-0.5,0.9-1.4,1.2-2.8c0.2-1.1,0.3-2.2,0.3-3.2c0-1-0.4-1.4-1.3-1.4
			c-0.3,0-0.9,0-1.7,0.1c-0.4,1.8-0.9,3.3-1.3,4.4c-0.5,1.3-1.3,2.6-2.2,3.9c-0.8,1.1-1.4,1.7-1.8,1.7c-0.2,0-0.6-0.2-0.9-0.6
			c-0.4-0.4-0.6-0.6-0.6-0.9c0-0.1,0.1-0.3,0.3-0.4c0.2-0.1,0.5-0.3,0.9-0.6c1-0.7,1.8-1.5,2.5-2.5c0.8-1.2,1.5-2.9,2.2-4.9
			c-0.7,0.1-1.8,0.3-3.1,0.6c-0.3,0-0.5-0.2-0.5-0.6c0-0.7,0.6-1,1.9-1.1c0.3,0,1-0.1,2.1-0.1c0.2-0.8,0.3-1.6,0.3-2.6
			c0-0.5,0.2-0.8,0.6-0.8c0.4,0,0.6,0.2,0.6,0.7c0,0.2-0.1,1.1-0.4,2.6c0.7,0,1.1,0,1.4,0c0.9,0,1.6,0.3,2,0.9
			C-473.8,5.8-473.7,6.6-473.7,7.8z M-467.3,7.1c0,0.2-0.2,0.6-0.6,1.2c-0.4,0.5-0.7,0.8-0.9,0.8c-0.4,0-1-0.6-1.9-1.7
			s-1.2-1.9-1.2-2.4c0-0.2,0.1-0.4,0.2-0.4c0.1,0,0.3,0.2,0.7,0.6c0.4,0.4,0.9,0.8,1.5,1.2c0.5,0.3,1,0.5,1.6,0.5
			C-467.5,6.8-467.3,6.9-467.3,7.1z"/>
		<path class="st0" d="M-459.7,11.6c-0.2,0.8-0.5,1.6-0.8,2.5c-0.5,1.3-0.9,1.9-1.3,1.9c-0.4,0-0.8-0.6-1.1-1.9
			c-0.3-1.1-0.4-2.7-0.4-4.8c0-0.8,0.1-2,0.4-3.6c0.3-1.7,0.5-2.8,0.8-3.4c0.2-0.4,0.4-0.6,0.8-0.6c0.4,0,0.7,0.2,0.7,0.7
			c0,0.1-0.1,0.5-0.3,1c-0.3,0.8-0.6,1.7-0.8,2.8c-0.2,1.1-0.4,2.1-0.4,2.8c0,3.1,0.2,4.7,0.6,4.7c0.2,0,0.6-0.8,1.3-2.3
			c0.1-0.2,0.2-0.3,0.3-0.3C-459.8,11.3-459.7,11.4-459.7,11.6z M-449.5,12.4c0,0.1-0.2,0.5-0.4,1.2c-0.2,0.6-0.5,0.9-0.9,1.1
			c-0.4,0.2-1.4,0.3-2.9,0.3c-1.2,0-2.2-0.2-3.1-0.6c-1.2-0.6-1.8-1.5-1.8-2.7c0-1.3,0.3-2,0.8-2c0.1,0,0.2,0.1,0.2,0.3
			c-0.1,0.6-0.2,1-0.2,1.2c0,1.4,0.9,2.1,2.8,2.1c0.8,0,1.7-0.1,2.7-0.3c0.6-0.1,1.1-0.3,1.6-0.5c0.4-0.2,0.7-0.3,0.9-0.3
			C-449.6,12-449.5,12.2-449.5,12.4z M-451.2,3.7c0,0.2-0.5,0.8-1.5,1.6c-1,0.8-1.6,1.2-1.8,1.2c-0.2,0-0.3-0.1-0.3-0.3
			c0-0.1,0.2-0.5,0.7-1c0.4-0.4,0.7-0.8,0.9-0.9c-0.1,0-0.2,0-0.3,0c-0.9,0-1.8,0.1-2.8,0.3c-1.1,0.2-1.6,0.4-1.6,0.4
			c-0.2,0-0.4-0.2-0.4-0.5c0-0.5,0.2-0.8,0.5-1c0.1,0,0.5-0.1,1.1-0.2c1.4-0.2,3-0.2,4.8-0.2C-451.4,3-451.2,3.3-451.2,3.7z"/>
		<path class="st0" d="M-439.6,15.9c0,0.4-0.1,0.8-0.4,1.1c-0.3,0.3-0.6,0.4-1,0.4c-0.4,0-0.7-0.1-0.9-0.4c-0.2-0.3-0.4-0.6-0.4-1.1
			c0-0.9,0.4-1.4,1.3-1.4c0.4,0,0.7,0.1,1,0.4C-439.7,15.1-439.6,15.4-439.6,15.9z M-440,2.9c-0.1,0.5-0.2,2.1-0.2,4.9
			c0,2.4,0,3.8,0.1,4c0,0.7-0.3,1-0.9,1c-0.6,0-0.9-0.3-0.9-1c0-0.5,0-1.1,0.1-2c0.1-0.9,0.1-1.6,0.1-2c0-0.5,0-1.3-0.1-2.4
			c-0.1-1.1-0.1-1.9-0.1-2.5c0-0.7,0.3-1.1,0.9-1.1C-440.3,1.8-440,2.2-440,2.9z"/>
	</g>
</g>
<g>
	<g>
		<path class="st0" d="M-321.9,6c1.1,0,2.4,0.1,3.9,0.2c1.1,0.1,2.1,0.1,2.9,0.1c0.4,0,0.9-0.1,1.5-0.3c0.1,0,0.1,0.2,0.1,0.5
			c0,0.5-0.2,1.1-0.5,1.6c-0.2,0.4-0.4,0.6-0.6,0.6c-0.4,0-0.8-0.1-1.3-0.4c-0.8-0.4-1.7-0.8-2.7-0.9c-1-0.2-2.2-0.3-3.5-0.3
			c-0.5,0-1.1,0-1.6,0c-0.3,0.6-0.7,1.3-1.1,2c-1.1,1.4-2.2,2.5-3.3,3.3c-0.8,0.5-1.4,0.8-1.9,0.8c-0.2,0-0.5-0.1-0.7-0.3
			c-0.3-0.3-0.4-0.7-0.4-1c0-0.2,0.2-0.4,0.6-0.5c1.5-0.2,2.9-1,4.2-2.2c0.6-0.6,1.1-1.3,1.6-2c-0.4,0-0.9,0.1-1.3,0.1
			c-0.8,0.1-2,0.5-3.6,1.3c-0.5,0-0.7-0.2-0.7-0.7c0-0.3,0.1-0.5,0.3-0.7c0.2-0.3,0.6-0.5,1-0.5c1.9-0.4,3.6-0.6,5-0.7
			c0.3-0.5,0.5-1.1,0.7-1.7c0-0.2,0.2-0.3,0.4-0.3c0.4,0,0.6,0.2,0.6,0.7c0,0-0.1,0.1-0.1,0.3c-0.1,0.3-0.2,0.6-0.4,1
			C-322.5,6-322.2,6-321.9,6z M-329.2,1.8h3.6l-0.1-0.7c0-0.4,0.2-0.6,0.6-0.6c0.4,0,0.6,0.2,0.6,0.7v0.6h4.4l0.1-0.6
			c0-0.6,0.2-0.8,0.6-0.8c0.4,0,0.6,0.2,0.6,0.7l-0.2,0.7h4.3c0.2,0,0.3,0.1,0.3,0.3c0,0.3-0.1,0.6-0.2,0.8
			c-0.2,0.2-0.4,0.3-0.7,0.3c-0.4,0-1.3-0.1-2.7-0.2c-0.4,0-0.8,0-1.2,0l-0.2,1c-0.1,0.3-0.3,0.4-0.5,0.4c-0.3,0-0.4-0.2-0.4-0.6
			l0.1-0.8c-0.8,0-1.7,0-2.5,0c-0.6,0-1.2,0-1.8,0v0.8c0,0.4-0.1,0.6-0.4,0.6c-0.3,0-0.4-0.2-0.5-0.6l-0.1-0.7
			c-1.2,0-2.2,0.1-2.9,0.2c-0.7,0.1-1.1,0.2-1.3,0.2c-0.4,0-0.7-0.3-0.7-0.7c0-0.2,0.1-0.5,0.3-0.6C-329.8,1.8-329.5,1.8-329.2,1.8z
			 M-324.5,10.4c0.2,0,0.4,0,0.6,0.1c0.2,0.1,0.5,0.1,0.9,0.1h2.5c0.6,0,1.2,0,2,0.1c0.2,0,0.4-0.1,0.7-0.2c0.4,0,0.6,0.2,0.6,0.7
			c0,0,0,0.1,0,0.2c-0.1,0.2-0.1,0.5-0.1,0.9c0,0.6-0.1,1.2-0.1,1.8c0,0.4,0,0.9,0.1,1.6c0,0.5-0.2,0.7-0.6,0.7
			c-1.3-0.1-2.5-0.2-3.5-0.2c-1.1,0-1.8,0-2.1,0.1c-0.2,0-0.6,0.1-0.9,0.1c-0.4,0-0.6-0.2-0.6-0.6c0.1-0.9,0.2-1.7,0.2-2.4
			c0-0.6-0.1-1.4-0.2-2.4C-325,10.6-324.9,10.4-324.5,10.4z M-321.5,15.2c0.8,0,1.7,0,2.6,0.1c0.2,0,0.3-0.1,0.3-0.3v-3
			c0-0.2-0.1-0.3-0.2-0.3c-1-0.1-2.6-0.1-4.6-0.1c-0.3,0-0.4,0.2-0.4,0.5c0,1-0.1,1.9-0.2,2.8c0,0.3,0.2,0.4,0.5,0.4
			C-322.8,15.2-322.2,15.2-321.5,15.2z"/>
		<path class="st0" d="M-305.4,2.4h2.8l-0.1-1.5c0-0.5,0.2-0.7,0.7-0.7c0.5,0,0.7,0.2,0.7,0.7l-0.1,1.5h3.3c0.1,0,0.1,0,0.2,0.1
			c0.3-0.4,0.7-0.9,1-1.3c0.1-0.1,0.2-0.1,0.4-0.1c0.3,0,0.5,0.3,0.5,0.6c0,0.2,0,0.3-0.1,0.4c-1,1.3-2,2.4-2.8,3.3
			c0.4,0,0.7,0.1,1.1,0.1c1.2,0.1,2.3,0.2,3.1,0.2c0.4,0,1-0.1,1.6-0.3c0.1,0,0.2,0.2,0.2,0.5c0,0.5-0.2,1-0.5,1.6
			c-0.2,0.4-0.5,0.6-0.7,0.6c-0.4,0-0.8-0.1-1.3-0.4c-0.9-0.4-1.8-0.7-2.8-0.9c-0.5-0.1-1.1-0.1-1.6-0.2c-0.8,0.8-1.6,1.5-2.2,1.9
			c-0.2,0.2-0.5,0.4-0.7,0.5c0.1,0,0.3,0,0.5,0h2.2c0.5,0,1.1,0,1.7,0.1c0.2,0,0.4-0.1,0.7-0.2c0.4,0,0.6,0.3,0.6,0.8
			c0,0,0,0.1,0,0.2c-0.1,0.2-0.1,0.6-0.1,1.2c0,0.8-0.1,1.6-0.1,2.5c0,0.6,0,1.3,0.1,2.3c0,0.6-0.2,0.8-0.6,0.8
			c-1.1-0.2-2-0.3-2.9-0.3c-1.1,0-1.8,0-2.1,0.1c-0.3,0-0.6,0.1-0.9,0.2c-0.4,0-0.6-0.2-0.6-0.7c0.1-1.2,0.2-2.3,0.2-3.2
			c0-0.8,0-1.8-0.1-2.9c-1.2,0.7-2.5,1.3-3.8,1.8c-0.6,0.3-1.1,0.4-1.5,0.4c-0.4,0-0.8-0.2-1-0.5c-0.3-0.3-0.4-0.6-0.4-0.9
			c0-0.2,0.1-0.4,0.3-0.4c2.4-0.4,4.3-0.9,5.7-1.6c1.1-0.5,2.3-1.3,3.4-2.2c-0.1,0-0.3,0-0.4,0c-1.4,0-2.7,0.1-4,0.2
			c-0.8,0.1-1.9,0.5-3.5,1.1c-0.4,0-0.6-0.2-0.6-0.6c0-0.3,0.1-0.5,0.3-0.7c0.2-0.3,0.5-0.5,0.9-0.5c2.7-0.4,4.8-0.6,6.3-0.6
			l-0.1-1.8c-1.2,0-2,0.1-2.6,0.2c-0.3,0.1-0.6,0.2-0.7,0.2c-0.4,0-0.6-0.2-0.6-0.6c0-0.2,0.1-0.4,0.3-0.6
			C-306,2.5-305.7,2.4-305.4,2.4z M-300.7,15.3c0.6,0,1.3,0,2,0.1c0.2,0,0.3-0.1,0.3-0.4v-1.9c-1.9,0-3.5,0.1-4.5,0.2
			c0,0-0.1,0-0.1,0c0,0.5,0,1.1-0.1,1.6c0,0.3,0.2,0.5,0.5,0.5C-302.1,15.3-301.5,15.3-300.7,15.3z M-303,12.1c0.1,0,0.1,0,0.2,0
			h4.4v-1.6c0-0.2,0-0.3-0.1-0.3c-0.9-0.1-2.3-0.1-4-0.1c-0.3,0-0.4,0.2-0.4,0.5C-303,11.1-303,11.6-303,12.1z M-300.4,5.4
			c0.5-0.5,1.1-1.1,1.6-1.7c-0.2,0-0.6,0-1.2-0.1c-0.4,0-0.9,0-1.4,0l-0.1,1.8C-301.1,5.4-300.7,5.4-300.4,5.4z"/>
		<path class="st0" d="M-274.9,7.4c0,1.2-0.4,2.1-1.3,2.9c-0.8,0.7-1.7,1-2.8,1c-0.7,0-1.2-0.2-1.5-0.6c-0.3-0.5-0.5-0.9-0.5-1.3
			c0-0.2,0-0.3,0.1-0.3c0.2,0,0.5,0.1,1,0.2c0.5,0.1,0.8,0.2,1.1,0.2c0.6,0,1.2-0.2,1.8-0.6c0.7-0.4,1-1,1-1.6
			c0-0.6-0.2-1.1-0.6-1.5c-0.4-0.3-0.8-0.5-1.4-0.5c-1.4,0-3.3,0.5-5.8,1.4c0.4,2.4,0.9,4.4,1.6,6c0.5,1.2,1.1,2.1,1.7,2.7
			c0.1,0.1,0.3,0.3,0.5,0.6c0,0.2-0.3,0.4-0.7,0.7c-0.4,0.2-0.7,0.3-1,0.3c-0.6,0-1.3-1.5-2-4.4c-0.5-2.1-0.9-3.9-1.1-5.5
			c-0.7,0.3-1.8,0.8-3.2,1.4l-1.1,0.6c-0.5,0-0.7-0.3-0.7-0.9c0-0.4,0.7-0.9,2.1-1.4c0.3-0.1,1.2-0.4,2.7-0.9
			c-0.2-1.8-0.2-3.2-0.2-4.2c0-0.5,0.2-0.7,0.7-0.7c0.3,0,0.4,0.2,0.5,0.7c0,0.3,0,0.7,0,1.3c0,1,0.1,1.9,0.1,2.7
			c2.6-0.8,4.4-1.2,5.6-1.2c0.9,0,1.7,0.2,2.3,0.7C-275.2,5.7-274.9,6.4-274.9,7.4z M-278.9,1.1c0,0.3-0.3,0.8-0.9,1.6
			c-0.6,0.8-1.1,1.1-1.3,1.1c-0.2,0-0.5-0.2-0.8-0.6c-0.3-0.4-0.5-0.7-0.5-0.9c0-0.1,0.3-0.2,0.9-0.3c0.4,0,0.9-0.3,1.5-0.6
			c0.6-0.4,0.9-0.6,0.9-0.6C-279,0.8-278.9,0.9-278.9,1.1z"/>
		<path class="st0" d="M-262.3,0.5c0.3,0,0.4,0.1,0.4,0.4c0.2,0.1,0.5,0.3,0.9,0.6c3.1,2.3,5.1,3.6,5.8,3.9c0.5,0.2,1.1,0.3,1.8,0.3
			c0.3,0,0.4,0.2,0.4,0.5c0,0.4-0.3,0.7-0.8,1.1c-0.5,0.4-1,0.5-1.5,0.5c-0.3,0-0.7-0.2-1-0.5c-1.3-1.4-2.7-2.7-4.2-4.1
			c-0.7-0.6-1.3-1-1.8-1.2c0,0-0.1,0-0.1,0c-1,1.3-2.1,2.4-3.3,3.4c-1,0.8-2.2,1.5-3.5,2.1c-0.3,0.1-0.5,0.2-0.6,0.2
			c-0.3,0-0.7-0.2-1.1-0.7c-0.3-0.3-0.5-0.6-0.5-0.9c0-0.2,0.2-0.3,0.6-0.4c1-0.1,1.7-0.2,2.1-0.4c1.1-0.3,2.2-0.9,3.3-1.7
			c1.1-0.8,2-1.8,2.7-2.8C-262.6,0.6-262.5,0.5-262.3,0.5z M-262.3,5.9c0.5,0,0.8,0.3,0.8,0.9l-0.1,2.6c0,0,0.1,0,0.1,0h2.9
			c0.4,0,0.6,0.2,0.6,0.6c0,0.3-0.2,0.5-0.6,0.5c-1.3,0-2.3,0.1-3.1,0.2l-0.1,3.8c1,0,2.2,0.1,3.8,0.2c0.3,0,0.6,0,0.9,0
			c0.2,0,0.5,0,0.8-0.1c0.3-0.1,0.5-0.2,0.6-0.2c0.2,0,0.2,0.1,0.2,0.2c0,0.4-0.2,0.8-0.5,1.2c-0.3,0.5-0.6,0.7-0.9,0.7
			c-0.2,0-0.7-0.1-1.2-0.3c-1.3-0.4-2.8-0.6-4.6-0.6c-2.5,0-4.2,0.1-5.2,0.4c-0.5,0.1-0.8,0.2-1.1,0.2c-0.3,0-0.5-0.2-0.5-0.6
			c0-0.2,0.1-0.5,0.2-0.7c0.1-0.2,0.3-0.3,0.5-0.3c0.1,0,0.3,0,0.4,0.1c0.6-0.1,1.3-0.1,1.9-0.1c0,0,0-0.1,0-0.1
			c0.1-0.7,0.1-1.5,0.1-2.2c0-0.8-0.1-1.8-0.2-3c0-0.4,0.2-0.6,0.6-0.6c0.4,0,0.6,0.2,0.6,0.6c0.1,0.6,0.1,2,0.1,4.4
			c0,0.4,0,0.7-0.1,0.9c0.8,0,1.6-0.1,2.4-0.1l-0.1-7.7C-262.9,6.2-262.7,5.9-262.3,5.9z"/>
		<path class="st0" d="M-242.9,0.2c0.4,0,0.7,0.2,0.7,0.7l-0.1,2.3c0.4,0,0.7,0,1,0c0.4,0,0.8,0,1.2,0l-0.1-2.4
			c0-0.4,0.2-0.6,0.6-0.6c0.4,0,0.6,0.2,0.6,0.7l-0.1,2.4c0.8,0.1,1.6,0.2,2.4,0.3c1.3,0.2,2.5,0.2,3.7,0.2c0.3,0,0.6,0,0.9-0.1
			c0.1,0,0.1,0.1,0.1,0.3c0,0.4-0.1,0.8-0.3,1.2c-0.2,0.4-0.4,0.6-0.6,0.6c-0.3,0-0.7-0.1-1-0.3c-1.4-0.6-2.7-0.9-3.9-1.1
			c-0.9-0.1-2.1-0.2-3.4-0.2c-1.6,0-2.9,0.1-4.1,0.3c-1.2,0.3-2.4,0.6-3.6,1.1c-0.4,0.1-0.6,0.2-0.9,0.2c-0.4,0-0.6-0.3-0.6-0.7
			c0-0.2,0.1-0.5,0.3-0.7c0.2-0.2,0.4-0.3,0.7-0.4c2.6-0.4,4.6-0.7,6.2-0.8l-0.1-2.4C-243.4,0.4-243.3,0.2-242.9,0.2z M-243.6,4.5
			c0.4,0,0.6,0.2,0.6,0.6l0.1,1.5h3.4c0,0,0-0.1,0-0.1l0.2-1.5c0.1-0.3,0.3-0.5,0.6-0.5c0.4,0,0.6,0.2,0.6,0.6l-0.6,1.3
			c0,0,0,0.1,0,0.1h2.8c0.1,0,0.2,0.1,0.2,0.3c0,0.3-0.1,0.5-0.2,0.7c-0.2,0.2-0.4,0.3-0.7,0.3c-0.2,0-0.8,0-1.8-0.1
			c-0.7,0-1.5,0-2.3,0c0,0.1,0,0.2,0,0.3c0,0.3,0,0.6,0,0.9h3.8c0.1,0,0.2,0.1,0.2,0.3c0,0.3-0.1,0.5-0.2,0.7
			c-0.2,0.2-0.4,0.3-0.7,0.3c-0.2,0-0.6,0-1.4-0.1c-0.6,0-1.2,0-1.8,0c0,0.3,0,0.5,0,0.8v0.3h5.8c0.2,0,0.3,0.1,0.3,0.3
			c0,0.3-0.1,0.6-0.2,0.8c-0.2,0.2-0.4,0.3-0.7,0.3c-0.3,0-1-0.1-2.1-0.2c-0.7,0-1.4-0.1-2.2-0.1c2.3,1.6,3.8,2.5,4.3,2.6
			c0.4,0.1,0.8,0.2,1.3,0.2c0.2,0,0.3,0.1,0.3,0.4c0,0.3-0.2,0.6-0.6,0.9c-0.4,0.3-0.8,0.5-1.2,0.5c-0.3,0-0.5-0.1-0.8-0.4
			c-0.9-1-1.9-1.9-3.1-2.9c-0.4-0.3-0.8-0.6-1.1-0.8l0,3.2c0,0.9-0.2,1.4-0.6,1.4c-0.4,0-0.6-0.5-0.6-1.4c0-1.2,0-2.3,0.1-3.3
			c-0.8,0.9-1.7,1.7-2.7,2.4c-0.8,0.6-1.7,1.1-2.8,1.5c-0.2,0.1-0.4,0.1-0.5,0.1c-0.3,0-0.6-0.2-0.9-0.6c-0.3-0.3-0.4-0.6-0.4-0.9
			c0-0.2,0.2-0.2,0.5-0.3c0.8-0.1,1.3-0.2,1.7-0.3c0.9-0.2,1.8-0.5,2.6-1.1c0.7-0.4,1.3-0.9,1.8-1.4c-1.5,0-2.6,0.1-3.4,0.2
			c-0.5,0.1-0.9,0.2-1.1,0.2c-0.4,0-0.6-0.2-0.6-0.6c0-0.2,0.1-0.5,0.3-0.6c0.2-0.1,0.4-0.2,0.7-0.2h4.9c0-0.1,0-0.2,0-0.3
			c0-0.3,0-0.5,0-0.8c-1.2,0-2.1,0.1-2.7,0.2c-0.4,0.1-0.6,0.2-0.7,0.2c-0.3,0-0.5-0.2-0.6-0.6c0-0.2,0.1-0.4,0.3-0.6
			c0.2-0.1,0.4-0.2,0.7-0.2h3c0-0.3,0-0.6,0-0.9c0-0.1,0-0.2,0-0.3c-1.6,0-2.8,0.1-3.5,0.2c-0.5,0.1-0.8,0.2-0.9,0.2
			c-0.3,0-0.5-0.2-0.6-0.6c0-0.2,0.1-0.4,0.3-0.6c0.2-0.1,0.4-0.2,0.7-0.2h2.3c0,0,0-0.1,0-0.1l-0.4-1.4
			C-244.1,4.7-243.9,4.5-243.6,4.5z M-246.9,1.2c0.3,0.1,0.5,0.1,0.6,0.1c0.3,0,0.7-0.1,1.2-0.3c0.1,0,0.2,0.1,0.2,0.3
			c0,0.2-0.2,0.5-0.5,1c-0.3,0.5-0.6,0.7-0.9,0.7c-0.2,0-0.4-0.1-0.5-0.4c-0.2-0.3-0.3-0.7-0.3-1.1C-247,1.3-247,1.2-246.9,1.2z
			 M-237.4,0.9L-237.4,0.9c0.5,0.2,0.8,0.3,1.1,0.4c0.2,0,0.4,0.1,0.7,0.1c0.1,0,0.2,0.1,0.2,0.3c0,0.2-0.1,0.5-0.4,0.7
			c-0.4,0.3-0.8,0.5-1.1,0.5c0,0-0.1,0-0.1-0.1c-0.1-0.1-0.3-0.6-0.6-1.4c0-0.1,0-0.1,0-0.2C-237.6,1-237.5,0.9-237.4,0.9z"/>
		<path class="st0" d="M-223.2,8.8c0,0.6-0.2,1.2-0.6,1.6c-0.4,0.4-0.9,0.6-1.4,0.6c-0.6,0-1-0.2-1.4-0.6c-0.4-0.4-0.6-0.9-0.6-1.6
			s0.2-1.2,0.6-1.6c0.4-0.4,0.8-0.6,1.4-0.6c0.5,0,1,0.2,1.4,0.5C-223.4,7.6-223.2,8.1-223.2,8.8z"/>
		<path class="st0" d="M-212.5,4.3c0.3,0,0.5,0.2,0.5,0.5c0,0.2-0.1,0.4-0.2,0.6c-0.5,0.7-1,1.4-1.6,2c0.1,0.2,0.2,0.4,0.2,0.7
			c-0.1,1-0.1,1.9-0.1,2.6l0.1,5c0,1-0.2,1.5-0.7,1.5c-0.4,0-0.6-0.5-0.6-1.5c0.1-2.1,0.1-3.8,0.1-5c0-0.7,0-1.4-0.1-2.2
			c-0.3,0.2-0.5,0.5-0.8,0.7c-0.5,0.4-1,0.6-1.3,0.6c-0.3,0-0.6-0.1-0.9-0.4c-0.3-0.3-0.5-0.6-0.5-0.9c0-0.2,0.1-0.4,0.4-0.4
			c1-0.3,1.9-0.7,2.7-1.3c0.9-0.6,1.7-1.4,2.4-2.4C-212.7,4.4-212.6,4.3-212.5,4.3z M-212.8,0.3c0.3,0,0.5,0.2,0.5,0.5
			c0,0.2,0,0.4-0.1,0.6c-0.8,1-1.8,2-2.9,2.8c-0.4,0.3-0.8,0.5-1.1,0.5c-0.3,0-0.6-0.1-0.8-0.4s-0.4-0.5-0.4-0.8
			c0-0.2,0.1-0.3,0.4-0.3c0.8-0.2,1.6-0.5,2.2-0.9c0.7-0.4,1.4-1,2-1.7C-212.9,0.4-212.9,0.3-212.8,0.3z M-206.7,6.1
			c0.8,0,1.8,0,3,0.1c0.9,0,1.6,0.1,2.2,0.1c0.4,0,0.9-0.1,1.5-0.2c0.1,0,0.2,0.2,0.2,0.5c0,0.5-0.2,1-0.5,1.6
			c-0.2,0.4-0.4,0.6-0.6,0.6c-0.3,0-0.6-0.1-1-0.4c-0.6-0.4-1.3-0.6-2.1-0.8c-0.3,0-0.5-0.1-0.8-0.1c0,0,0,0,0,0.1
			c0,0.1,0,0.3-0.1,0.5c-0.1,0.5-0.1,0.9-0.1,1.3c0.1,2.2,0.1,3.9,0.1,5c0,1.4-0.4,2.2-1.2,2.6c-0.5,0.2-1,0.3-1.4,0.3
			c-0.3,0-0.6-0.1-0.8-0.3c-0.3-0.3-0.4-0.6-0.4-1c0-0.2,0.1-0.3,0.3-0.4c0.9-0.1,1.5-0.2,1.8-0.4c0.3-0.2,0.5-0.4,0.6-0.7
			c0.1-0.3,0.1-0.9,0.1-1.8c0-1.1,0-2.1-0.1-3.2c0-1,0-1.6,0-1.8c0-0.1,0-0.3,0-0.4c-0.2,0-0.5,0-0.7,0c-0.9,0-1.7,0.1-2.5,0.2
			c-0.5,0.1-1.2,0.4-2.2,1c-0.5,0-0.7-0.2-0.7-0.6c0-0.3,0.1-0.5,0.3-0.7c0.2-0.3,0.6-0.5,1-0.5C-209.1,6.3-207.6,6.1-206.7,6.1z
			 M-208.6,1.8h5.6c0.2,0,0.3,0.1,0.3,0.3c0,0.3-0.1,0.6-0.2,0.8c-0.2,0.2-0.4,0.3-0.7,0.3c-0.1,0-0.4-0.1-0.9-0.2
			c-0.5-0.1-1.1-0.1-1.7-0.1c-1,0-1.8,0.1-2.2,0.2c-0.3,0.1-0.4,0.2-0.5,0.2c-0.4,0-0.6-0.2-0.6-0.6c0-0.2,0.1-0.5,0.3-0.6
			C-209.1,1.8-208.9,1.8-208.6,1.8z"/>
		<path class="st0" d="M-196,2.2h6.6c0.2,0,0.3,0.1,0.3,0.3c0,0.3-0.1,0.6-0.2,0.8c-0.2,0.2-0.4,0.3-0.7,0.3c-0.2,0-0.5-0.1-1.1-0.2
			c-0.3,0-0.6,0-0.9,0l0,4c0.1,0,0.1,0,0.2,0h2.1c0.4,0,0.6,0.2,0.6,0.6c0,0.3-0.2,0.5-0.6,0.5c-1,0-1.7,0.1-2.2,0.2c0,0,0,0,0,0
			l0,4.4c1-0.1,1.8-0.2,2.5-0.3c0.5,0,0.7,0.2,0.7,0.6c0,0.4-0.1,0.6-0.4,0.7c-1.9,0.2-3.7,0.4-5.4,0.8c-0.8,0.2-1.5,0.4-2,0.6
			c-0.2,0.1-0.3,0.1-0.4,0.1c-0.5,0-0.7-0.2-0.7-0.6c0-0.5,0.3-0.9,0.8-1c0.3-0.1,0.5-0.1,0.7-0.1c0-0.1,0-0.2,0-0.2
			c0.1-0.8,0.1-1.6,0.1-2.4c0-0.8-0.1-1.9-0.2-3.2c0-0.4,0.2-0.7,0.7-0.7c0.4,0,0.6,0.2,0.6,0.7c0.1,0.6,0.1,2.2,0.1,4.8
			c0,0.3,0,0.6-0.1,0.9c0.7-0.1,1.3-0.2,1.9-0.3l-0.1-9.8c-1.1,0-1.9,0.1-2.4,0.3c-0.3,0.1-0.5,0.2-0.6,0.2c-0.4,0-0.7-0.3-0.7-0.8
			c0-0.2,0.1-0.4,0.3-0.6C-196.6,2.2-196.4,2.2-196,2.2z M-186.2,0.6c0.3,0,0.5,0.2,0.5,0.5c0,0.2-0.1,0.4-0.2,0.7
			c-0.2,0.8-0.5,1.5-0.8,2.1h5.9c0.2,0,0.3,0.1,0.3,0.3c0,0.3-0.1,0.6-0.2,0.8c-0.2,0.2-0.4,0.3-0.7,0.3c-0.2,0-0.5-0.1-1-0.2
			C-183,5-183.6,5-184.2,5c-1.1,0-1.9,0.1-2.4,0.2c-0.3,0.1-0.5,0.2-0.6,0.2c-0.1,0-0.1,0-0.1,0c-0.1,0.2-0.2,0.3-0.3,0.5
			c-0.3,0.5-0.5,0.7-0.7,0.7c-0.3,0-0.6-0.2-0.9-0.5c-0.3-0.3-0.5-0.6-0.5-0.9c0-0.2,0.1-0.4,0.4-0.4c0.5-0.3,1-0.7,1.4-1.4
			c0.5-0.6,0.9-1.5,1.3-2.7C-186.3,0.6-186.2,0.6-186.2,0.6z M-183.8,5.9c0.5,0,0.7,0.3,0.7,0.8c-0.1,0.7-0.2,1.5-0.2,2.4
			c-0.1,1.3-0.3,2.5-0.6,3.5c0,0,0,0,0,0c1.1,1,1.8,1.6,2.2,1.8c0.4,0.2,1,0.3,1.6,0.4c0.3,0,0.4,0.1,0.4,0.4c0,0.4-0.2,0.7-0.7,1.1
			c-0.5,0.4-0.9,0.6-1.4,0.6c-0.3,0-0.6-0.2-0.9-0.5c-0.6-0.8-1.2-1.6-1.8-2.4c-0.3,0.6-0.7,1-1,1.4c-0.9,1-1.7,1.4-2.4,1.4
			c-0.3,0-0.5-0.1-0.7-0.4c-0.3-0.4-0.5-0.8-0.5-1.2c0-0.2,0.1-0.3,0.4-0.4c0.8-0.2,1.5-0.4,2-0.7c0.5-0.3,1-0.7,1.4-1.3
			c-0.4-0.5-0.8-0.9-1.2-1.4c-0.6-0.7-1.1-1.1-1.6-1.5c-0.2-0.1-0.4-0.4-0.4-0.6c0-0.4,0.2-0.6,0.7-0.6c0.2,0,0.5,0.3,1,0.8
			c0.8,0.8,1.5,1.5,2.1,2.1c0-0.1,0-0.1,0.1-0.2c0.4-1.1,0.6-2.4,0.6-3.9c-0.1-0.4-0.1-0.8-0.1-1.1C-184.4,6.1-184.2,5.9-183.8,5.9z
			"/>
		<path class="st0" d="M-166,7.8c0,1.6-0.2,3.2-0.7,4.8c-0.7,2-1.6,3-2.7,3c-0.3,0-0.5-0.2-0.9-0.7c-0.3-0.5-0.4-0.9-0.4-1.2
			c0-0.2,0.3-0.3,0.9-0.3c0.7-0.1,1.1-0.3,1.3-0.5c0.5-0.5,0.9-1.4,1.2-2.8c0.2-1.1,0.3-2.2,0.3-3.2c0-1-0.4-1.4-1.3-1.4
			c-0.3,0-0.9,0-1.7,0.1c-0.4,1.8-0.9,3.3-1.3,4.4c-0.5,1.3-1.3,2.6-2.2,3.9c-0.8,1.1-1.4,1.7-1.8,1.7c-0.2,0-0.6-0.2-0.9-0.6
			c-0.4-0.4-0.6-0.6-0.6-0.9c0-0.1,0.1-0.3,0.3-0.4c0.2-0.1,0.5-0.3,0.9-0.6c1-0.7,1.8-1.5,2.5-2.5c0.8-1.2,1.5-2.9,2.2-4.9
			c-0.7,0.1-1.8,0.3-3.1,0.6c-0.3,0-0.5-0.2-0.5-0.6c0-0.7,0.6-1,1.9-1.1c0.3,0,1-0.1,2.1-0.1c0.2-0.8,0.3-1.6,0.3-2.6
			c0-0.5,0.2-0.8,0.6-0.8c0.4,0,0.6,0.2,0.6,0.7c0,0.2-0.1,1.1-0.4,2.6c0.7,0,1.1,0,1.4,0c0.9,0,1.6,0.3,2,0.9
			C-166.1,5.8-166,6.6-166,7.8z M-159.6,7.1c0,0.2-0.2,0.6-0.6,1.2c-0.4,0.5-0.7,0.8-0.9,0.8c-0.4,0-1-0.6-1.9-1.7
			c-0.8-1.1-1.2-1.9-1.2-2.4c0-0.2,0.1-0.4,0.2-0.4c0.1,0,0.3,0.2,0.7,0.6c0.4,0.4,0.9,0.8,1.5,1.2c0.5,0.3,1,0.5,1.6,0.5
			C-159.8,6.8-159.6,6.9-159.6,7.1z M-160.3,3.9c0,0.2-0.2,0.4-0.4,0.7c-0.2,0.3-0.4,0.5-0.5,0.5c-0.2,0-0.6-0.3-1.2-1
			s-0.8-1.1-0.8-1.3c0-0.2,0.1-0.3,0.2-0.3c0.1,0,0.3,0.1,0.7,0.4c0.5,0.4,1.1,0.6,1.7,0.6C-160.5,3.6-160.4,3.7-160.3,3.9z
			 M-158.4,2.2c0,0.2-0.2,0.4-0.4,0.8c-0.2,0.3-0.4,0.5-0.5,0.5c-0.2,0-0.6-0.3-1.2-1c-0.6-0.6-0.8-1.1-0.8-1.4
			c0-0.2,0.1-0.3,0.2-0.3c0.1,0,0.3,0.1,0.7,0.4c0.5,0.4,1.1,0.6,1.7,0.6C-158.5,1.9-158.4,2-158.4,2.2z"/>
		<path class="st0" d="M-155.1,6.7c0.7,0,1.5,0.1,2.2,0.2c0.2-0.1,0.4-0.2,0.6-0.2c0.5,0,0.7,0.2,0.7,0.7c0,0.2-0.1,0.4-0.3,0.6
			c-0.4,0.8-0.8,1.6-1,2.4c-0.2,0.8-0.4,1.7-0.6,2.7c0.7,0.1,1.9,0.2,3.7,0.5c4.4,0.6,7.3,1,8.9,1c0.6,0,1-0.1,1.4-0.2
			c0.2-0.1,0.4-0.1,0.5-0.1c0.1,0,0.2,0.1,0.2,0.4c0,0.4-0.2,1-0.6,1.6c-0.4,0.6-0.7,0.9-1,0.9c-0.3,0-0.7-0.1-1-0.2
			c-4.5-1.2-7.6-1.9-9.3-2.3c-1.4-0.3-2.3-0.5-2.8-0.5c-0.5,0-1.1,0.5-1.8,1.5c-0.2,0.3-0.4,0.4-0.6,0.4c-0.4,0-0.6-0.2-0.6-0.6
			c0-0.2,0.5-0.8,1.4-1.9c0.1-0.2,0.3-0.4,0.5-0.5c0.3-2,0.7-3.7,1.2-5.2c0-0.1,0-0.2-0.1-0.2c-0.1,0-0.1,0-0.2,0
			c-0.6,0-1.1,0-1.6,0.1c-0.2,0-0.4,0.1-0.6,0.2c-0.3,0-0.5-0.2-0.5-0.6C-156.3,7-155.9,6.7-155.1,6.7z M-154.8,1l2.9,1.6
			c0.2,0.1,0.3,0.3,0.3,0.6c0,0.2-0.1,0.3-0.4,0.3l-2.9-0.7c-0.4-0.1-0.6-0.5-0.6-1.1C-155.5,1.2-155.3,1-154.8,1z M-149.4,1.8h3.4
			c0-0.3,0-0.6,0-0.8c0-0.6,0.2-0.8,0.6-0.8s0.6,0.3,0.6,0.8c0,0.3,0,0.6,0,0.8h4.2c0.1,0,0.2,0.1,0.2,0.2c0,0.3-0.1,0.5-0.2,0.7
			c-0.2,0.2-0.4,0.3-0.7,0.3c-0.2,0-0.7,0-1.5-0.1c-0.7,0-1.4,0-2.1,0c0,0.4,0,0.8,0,1.1h0.2c0.6,0,1.4,0,2.2,0.1
			c0.2,0,0.4-0.1,0.7-0.2c0.4,0,0.6,0.3,0.6,0.8l0,0.1c-0.1,0.2-0.1,0.5-0.1,0.9c-0.1,0.6-0.1,1.2-0.1,1.8c0,0.4,0,0.9,0.1,1.5
			c0,0.5-0.2,0.8-0.6,0.8c-1.1-0.1-2.1-0.2-3-0.2v1.1h4.5c0.2,0,0.3,0.1,0.3,0.3c0,0.3-0.1,0.6-0.2,0.8c-0.2,0.2-0.4,0.3-0.7,0.3
			c-0.2,0-0.8-0.1-1.7-0.2c-0.7,0-1.4-0.1-2.1-0.1v0.6c0,0.9-0.2,1.3-0.6,1.3c-0.3,0-0.5-0.4-0.5-1.3c0-0.2,0-0.4,0-0.7
			c-1.6,0-2.7,0.1-3.5,0.2c-0.4,0.1-0.7,0.2-0.8,0.2c-0.4,0-0.6-0.2-0.7-0.6c0-0.2,0.1-0.4,0.3-0.6c0.2-0.1,0.4-0.2,0.7-0.2h3.9
			c0-0.4,0-0.8,0-1.1c-0.9,0-1.5,0-1.8,0c-0.3,0-0.7,0.1-1.1,0.1c-0.4,0-0.6-0.2-0.6-0.7c0.1-0.9,0.2-1.7,0.2-2.4
			c0-0.6-0.1-1.4-0.2-2.3c0-0.4,0.2-0.7,0.6-0.7c0.2,0,0.4,0,0.6,0.1C-148.3,4-148,4-147.6,4h1.6c0-0.4,0-0.7,0-1.1
			c-1.4,0-2.4,0.1-3,0.2c-0.4,0.1-0.7,0.1-0.8,0.1c-0.3,0-0.5-0.2-0.6-0.6c0-0.2,0.1-0.4,0.3-0.6C-150,1.8-149.7,1.8-149.4,1.8z
			 M-146.1,8.5c0-0.4,0-0.9,0-1.3c-0.8,0-1.6,0.1-2.2,0.1c0,0,0,0-0.1,0c0,0.3-0.1,0.6-0.1,0.8c0,0.3,0.2,0.4,0.5,0.4
			C-147.4,8.6-146.7,8.6-146.1,8.5z M-148.3,6.3C-148.2,6.3-148.2,6.3-148.3,6.3h2.2c0-0.4,0-0.8,0-1.2c-0.6,0-1.2,0-1.8,0
			c-0.3,0-0.4,0.2-0.4,0.5C-148.3,5.8-148.3,6-148.3,6.3z M-145.1,5.1l0,1.2h2.4c0,0,0.1,0,0.1,0V5.4c0-0.2-0.1-0.3-0.2-0.3
			C-143.4,5.1-144.2,5.1-145.1,5.1z M-145.1,7.2l0,1.3c0.7,0,1.4,0,2.1,0.1c0.2,0,0.3-0.1,0.3-0.3V7.2
			C-143.5,7.2-144.3,7.2-145.1,7.2z"/>
		<path class="st0" d="M-135.6,3.8h2.3c0-0.9,0-1.8,0-2.7c0-0.7,0.3-1,0.7-1c0.4,0,0.6,0.2,0.6,0.7c0,0.1,0,0.4-0.1,0.7
			c0,0.4-0.1,0.7-0.1,0.9c0,0.5,0,0.9,0,1.3h1.9c0.1,0,0.2,0.1,0.2,0.3c0,0.3-0.1,0.5-0.2,0.7c-0.2,0.2-0.4,0.3-0.7,0.3
			c-0.1,0-0.4,0-0.9-0.1c-0.1,0-0.3,0-0.4,0c0,1.2,0,2.4,0.1,3.4c0.7-0.2,1.2-0.4,1.6-0.5c0.2,0,0.3,0.1,0.3,0.4
			c0,0.4-0.1,0.6-0.4,0.6c-0.5,0.2-1,0.4-1.5,0.7c0,1.6,0.1,2.7,0.1,3.6c0,1.4-0.3,2.4-0.8,3.1c-0.5,0.5-1,0.8-1.7,0.8
			c-0.3,0-0.6-0.1-0.9-0.4c-0.2-0.2-0.2-0.5-0.2-0.7c0-0.2,0.1-0.4,0.4-0.5c1-0.3,1.5-0.6,1.7-1.1c0.2-0.4,0.2-0.9,0.2-1.6
			c0-0.9,0-1.8,0-2.7c-1,0.5-1.9,1-2.8,1.6c-0.4,0-0.6-0.2-0.6-0.6c0-0.4,0.1-0.6,0.2-0.8c0.1-0.2,0.2-0.4,0.5-0.5
			c1-0.4,1.9-0.8,2.7-1.1c0-1.1,0-2.3,0-3.4c0-0.1,0-0.3,0-0.5c0,0,0,0-0.1,0c-1,0-1.7,0.1-2.1,0.2c-0.3,0.1-0.4,0.2-0.5,0.2
			c-0.4,0-0.6-0.2-0.6-0.6c0-0.2,0.1-0.5,0.3-0.6C-136.1,3.9-135.9,3.8-135.6,3.8z M-128.3,10.4h5.9c0.1,0,0.2,0,0.3-0.1
			c0.1-0.1,0.3-0.1,0.4-0.1c0.4,0,0.5,0.3,0.6,0.7c0,0.1-0.1,0.2-0.2,0.3c-0.4,0.3-0.8,0.7-1.4,1.4c0,0.1,0.1,0.2,0.2,0.2h2.1
			c0.1,0,0.2,0,0.4,0c0.1,0,0.3,0,0.4,0c0.3,0,0.5,0.2,0.6,0.6c0,0,0,0.1-0.1,0.2c-0.1,0.1-0.2,0.3-0.3,0.4c-0.5,1-0.9,1.7-1.3,2.2
			c-0.3,0.4-0.7,0.7-1.2,0.9c-0.3,0.1-0.6,0.2-0.8,0.2c-0.3,0-0.6-0.2-0.9-0.5c-0.2-0.3-0.4-0.5-0.4-0.7c0-0.2,0.1-0.3,0.2-0.4
			c0.5,0,1-0.1,1.3-0.2c0.4-0.1,0.7-0.2,0.9-0.4c0.2-0.1,0.6-0.4,1-1c0-0.1-0.1-0.2-0.2-0.2c-1.6,0-2.5,0-2.7,0.1
			c-0.1,0.1-0.2,0.1-0.3,0.1c-0.4,0-0.5-0.2-0.6-0.6c0-0.1,0.1-0.2,0.2-0.4c0.4-0.5,0.7-1,1.1-1.5c0-0.1,0-0.1-0.1-0.1
			c-0.8,0-1.6,0-2.2,0c0,0,0,0.1,0,0.2c0,0,0,0.1-0.1,0.2c-0.2,0.8-0.6,1.7-1.1,2.7c-0.6,0.9-1.1,1.6-1.8,2.1
			c-0.4,0.3-0.7,0.5-1,0.5c-0.2,0-0.4-0.1-0.7-0.3c-0.3-0.3-0.5-0.6-0.5-1c0-0.3,0.2-0.4,0.6-0.5c0.7-0.1,1.4-0.5,2.1-1.2
			c0.6-0.7,1-1.6,1.4-2.6c-0.3,0-0.6,0-0.9,0c-0.6,0.1-1,0.2-1.1,0.2c-0.4,0-0.6-0.2-0.6-0.6c0-0.2,0.1-0.3,0.2-0.5
			C-128.7,10.5-128.5,10.4-128.3,10.4z M-126.5,0.5c0.3,0,0.5,0.2,0.5,0.5c0,0.1-0.1,0.2-0.2,0.5c-0.2,0.4-0.4,0.7-0.6,1.1
			c0,0,0.1,0,0.1,0h7.3c0.1,0,0.2,0.1,0.2,0.2c0,0.3-0.1,0.5-0.2,0.7c-0.2,0.2-0.4,0.3-0.7,0.3c-0.2,0-0.6,0-1.3-0.1
			c-0.6,0-1.2,0-1.9,0v0.9h3c0.1,0,0.2,0.1,0.2,0.2c0,0.2-0.1,0.5-0.2,0.6c-0.2,0.2-0.4,0.3-0.6,0.3c-0.2,0-0.6,0-1.2-0.1
			c-0.4,0-0.9,0-1.3,0l0,1h3.1c0.1,0,0.2,0.1,0.2,0.2c0,0.2-0.1,0.5-0.2,0.6c-0.2,0.2-0.4,0.3-0.6,0.3c-0.2,0-0.6,0-1.2-0.1
			c-0.4,0-0.9,0-1.4,0l0,1c0.5,0,0.9,0.1,1.3,0.1c0.7,0,1.1,0.1,1.3,0.1c0.6,0,1.2-0.1,1.7-0.2c0.2-0.1,0.3-0.1,0.4-0.1
			c0.1,0,0.2,0.2,0.2,0.5c0,0.3-0.1,0.7-0.4,1.1c-0.2,0.3-0.4,0.5-0.6,0.5c-0.2,0-0.5-0.1-0.8-0.2c-0.5-0.2-1-0.4-1.6-0.5
			c-1-0.2-1.9-0.2-2.9-0.2c-1,0-1.9,0.1-2.8,0.3c-0.1,0.1-0.3,0.2-0.5,0.2c-0.3,0-0.5-0.3-0.5-0.8c0.1-0.8,0.1-1.5,0.1-2.3
			c0-0.6,0-1.3-0.1-2.2c-0.2,0.1-0.3,0.2-0.5,0.2c-0.2,0-0.4-0.1-0.7-0.3c-0.2-0.2-0.3-0.4-0.4-0.6c0-0.1,0.1-0.1,0.2-0.2
			c0.5-0.2,1-0.5,1.3-0.9c0.5-0.5,1.1-1.1,1.7-2C-126.7,0.5-126.6,0.5-126.5,0.5z M-124.2,4.4l0-0.9c-1,0-1.7,0.1-2.1,0.1
			c-0.3,0.1-0.6,0.1-0.7,0.1c0,0,0,0-0.1,0c0,0.2,0,0.4,0,0.7c0.1,0,0.1,0,0.2,0H-124.2z M-124.2,6.4l0-1c-1.1,0-1.9,0-2.4,0.1
			c-0.2,0-0.4,0.1-0.5,0.1c0,0.3,0,0.6,0,0.9c0.1,0,0.1,0,0.2,0H-124.2z M-124.2,8.3V7.3c-1.1,0-1.8,0-2.3,0.1
			c-0.2,0-0.4,0.1-0.5,0.1c0,0.2,0,0.4,0,0.6c0,0.1,0,0.1,0,0.2c0.9,0,1.8-0.1,2.5-0.1C-124.4,8.3-124.3,8.3-124.2,8.3z M-122.9,0.5
			c0.3,0,0.5,0.2,0.5,0.5c0,0.3,0,0.5-0.1,0.6c-0.8,0.6-1.2,0.9-1.3,0.9c-0.2,0-0.3-0.1-0.3-0.3c0,0,0.2-0.5,0.6-1.4
			C-123.3,0.6-123.1,0.5-122.9,0.5z"/>
		<path class="st0" d="M-109.2,15.9c0,0.4-0.1,0.8-0.4,1.1c-0.3,0.3-0.6,0.4-1,0.4c-0.4,0-0.7-0.1-0.9-0.4c-0.2-0.3-0.4-0.6-0.4-1.1
			c0-0.9,0.4-1.4,1.3-1.4c0.4,0,0.7,0.1,1,0.4C-109.3,15.1-109.2,15.4-109.2,15.9z M-109.6,2.9c-0.1,0.5-0.2,2.1-0.2,4.9
			c0,2.4,0,3.8,0.1,4c0,0.7-0.3,1-0.9,1c-0.6,0-0.9-0.3-0.9-1c0-0.5,0-1.1,0.1-2c0.1-0.9,0.1-1.6,0.1-2c0-0.5,0-1.3-0.1-2.4
			c-0.1-1.1-0.1-1.9-0.1-2.5c0-0.7,0.3-1.1,0.9-1.1C-109.9,1.8-109.6,2.2-109.6,2.9z"/>
	</g>
</g>
</svg>
