<?xml version="1.0" encoding="utf-8"?>
<!-- Generator: Adobe Illustrator 24.0.3, SVG Export Plug-In . SVG Version: 6.00 Build 0)  -->
<svg version="1.1" id="レイヤー_1" xmlns="http://www.w3.org/2000/svg" xmlns:xlink="http://www.w3.org/1999/xlink" x="0px"
	 y="0px" viewBox="0 0 179.8 18.2" style="enable-background:new 0 0 179.8 18.2;" xml:space="preserve">
<style type="text/css">
	.st0{fill:#503819;}
</style>
<g>
	<g>
		<path class="st0" d="M5.9,7.6c2.8,0,4.8,0.1,5.8,0.2l0.6-0.1c0.4,0,0.6,0.2,0.6,0.7c0,0.1-0.1,0.3-0.4,0.5
			c-0.7,0.5-1.5,1.2-2.6,2.1c-0.1,0.1-0.2,0.1-0.2,0.2c0.1,0.2,0.2,0.3,0.3,0.5C9.9,11.8,10,12,10,12.1c1,0,2.2,0.1,3.4,0.3
			c1.2,0.1,2.4,0.2,3.5,0.2c0.3,0,0.6,0,1-0.1c0.1,0,0.1,0.1,0.1,0.3c0,0.4-0.1,0.9-0.3,1.3c-0.2,0.5-0.4,0.7-0.7,0.7
			c-0.3,0-0.7-0.1-1-0.3c-1.3-0.6-2.5-0.9-3.7-1.1c-0.6-0.1-1.3-0.2-2.1-0.2c0,0.4,0.1,0.7,0.1,1.1c0,1-0.1,1.8-0.4,2.3
			c-0.3,0.5-0.7,0.9-1.3,1.2c-0.5,0.2-1,0.3-1.4,0.3c-0.4,0-0.7-0.1-0.9-0.4c-0.2-0.3-0.3-0.6-0.3-1c0-0.2,0.1-0.3,0.4-0.4
			c0.9,0,1.5-0.1,1.9-0.3C8.7,16,8.9,15.8,9,15.5c0.1-0.3,0.2-0.7,0.2-1.1c0-0.4,0-0.8-0.1-1.1c-1.6,0-2.9,0.1-4.1,0.3
			c-1.2,0.3-2.4,0.7-3.6,1.2c-0.4,0.1-0.6,0.2-0.9,0.2c-0.4,0-0.5-0.2-0.6-0.6c0-0.3,0.1-0.5,0.3-0.7c0.2-0.2,0.4-0.3,0.7-0.4
			c3.6-0.7,6.3-1,7.9-1c0,0,0-0.1,0-0.1c-0.2-0.5-0.5-0.9-1.1-1.3c-0.1-0.1-0.2-0.2-0.2-0.3C7.6,10,7.7,9.8,8,9.8
			c0.1,0,0.3,0.1,0.5,0.3c0.2,0.1,0.4,0.3,0.5,0.4h0l1.7-1.6c0-0.1-0.1-0.2-0.3-0.2c-1.7,0-3.3,0.1-4.8,0.3C5.2,8.9,5,8.8,5,8.5
			C5,8.2,5.1,8,5.3,7.9C5.4,7.7,5.7,7.6,5.9,7.6z M13.3,1.4c0.5,0,0.8,0.3,0.8,0.7c0,0.2-0.1,0.5-0.2,0.8c-0.5,0.9-0.9,1.7-1.1,2.3
			c-0.1,0.1-0.1,0.2-0.1,0.3c0.9,0,1.7,0.1,2.5,0.2l0.8-0.2c0.4,0,0.6,0.2,0.6,0.5c0,0.1,0,0.3-0.1,0.5C16.1,7,16,7.9,15.9,9.2
			c0,0.4-0.2,0.6-0.5,0.6c-0.3,0-0.5-0.2-0.5-0.6c0-0.8,0-1.5,0.1-2.2c0,0-0.1-0.1-0.3-0.2c-1.6-0.3-3.3-0.4-5.3-0.4
			c-1.9,0-3.7,0.1-5.3,0.3C3.6,6.7,3.3,6.8,3.2,7l0,0.1c0,1.2-0.1,2-0.2,2.3C2.9,9.6,2.7,9.8,2.5,9.8c-0.2,0-0.3-0.1-0.3-0.3
			c0-1.5-0.1-2.7-0.3-3.8c0-0.4,0.2-0.6,0.6-0.6c0.3,0,0.5,0,0.6,0.1c0.2,0.1,0.4,0.2,0.5,0.2c1.2-0.1,2.8-0.1,4.8-0.1
			c1.3,0,2.5,0,3.5,0c0.1-0.5,0.4-1.7,0.9-3.5C12.8,1.6,13,1.4,13.3,1.4z M5.1,1.5c0.3,0.1,0.5,0.3,0.6,0.6c0.1,1.1,0.2,1.7,0.2,2
			c0,0.3-0.1,0.4-0.4,0.4C5.3,4.5,5.2,4.4,5,4.1C4.9,3.6,4.7,3.2,4.5,2.8C4.4,2.6,4.4,2.4,4.4,2.2C4.4,1.8,4.6,1.6,5.1,1.5z
			 M8.4,1.3C8.8,1.4,8.9,1.6,9,2c0.1,1.1,0.1,1.8,0.1,2.1c0,0.3-0.2,0.4-0.4,0.4c-0.1,0-0.3-0.2-0.4-0.5C8.1,3.5,8,3.1,7.8,2.6
			C7.8,2.4,7.7,2.2,7.7,2C7.7,1.6,8,1.4,8.4,1.3z"/>
		<path class="st0" d="M25.4,2.6c0.3,0,0.5,0.2,0.5,0.5c0,0.2-0.1,0.4-0.2,0.6c-0.3,0.6-0.5,1.2-0.8,1.7h3.3l0-3
			c0-0.6,0.2-0.8,0.7-0.8c0.5,0,0.8,0.3,0.8,0.8l0,3h4.7c0.2,0,0.3,0.1,0.3,0.3c0,0.3-0.1,0.6-0.2,0.8c-0.2,0.2-0.4,0.3-0.7,0.3
			c-0.2,0-0.8-0.1-1.7-0.2c-0.7,0-1.6-0.1-2.4-0.1l0,3.5h4.1c0.2,0,0.3,0.1,0.3,0.3c0,0.3-0.1,0.6-0.2,0.8c-0.2,0.2-0.4,0.3-0.7,0.3
			c-0.2,0-0.7-0.1-1.6-0.2c-0.6,0-1.2-0.1-1.9-0.1L29.5,15c1.1,0,2.4,0.2,3.7,0.4c1.3,0.2,2.4,0.3,3.5,0.3c0.3,0,0.6,0,1-0.1
			c0.1,0,0.1,0.1,0.1,0.3c0,0.4-0.1,0.9-0.3,1.3c-0.2,0.5-0.5,0.7-0.7,0.7c-0.3,0-0.7-0.1-1-0.3c-1.3-0.6-2.6-1-3.8-1.2
			c-0.9-0.1-2-0.2-3.3-0.2c-1.5,0-2.8,0.1-3.9,0.3c-1.2,0.3-2.3,0.7-3.5,1.2c-0.3,0.2-0.6,0.2-0.8,0.2c-0.4,0-0.6-0.3-0.6-0.8
			c0-0.3,0.1-0.5,0.3-0.7c0.2-0.2,0.4-0.3,0.7-0.4c3.4-0.6,5.8-1,7.4-1l-0.1-3.8c-1.4,0-2.4,0.1-3,0.3c-0.4,0.1-0.7,0.2-0.8,0.2
			c-0.4,0-0.7-0.3-0.7-0.8c0-0.2,0.1-0.4,0.3-0.6c0.2-0.1,0.4-0.2,0.8-0.2h3.4l0-3.5c-1.4,0-2.4,0.1-3,0.2c-0.4,0.1-0.7,0.2-0.9,0.2
			c-0.1,0-0.3,0-0.4-0.1c-0.2,0.4-0.5,0.7-0.7,1.1c-0.4,0.5-0.7,0.7-0.9,0.7c-0.3,0-0.6-0.1-0.9-0.4C21.2,8,21,7.7,21,7.4
			c0-0.2,0.1-0.4,0.4-0.4c0.7-0.3,1.3-0.8,1.9-1.4C24,4.9,24.5,4,25.1,2.8C25.2,2.7,25.3,2.6,25.4,2.6z"/>
		<path class="st0" d="M51.7,8.7c0,1.6-0.2,3.2-0.7,4.8c-0.7,2-1.6,3-2.7,3c-0.3,0-0.5-0.2-0.9-0.7c-0.3-0.5-0.4-0.9-0.4-1.2
			c0-0.2,0.3-0.3,0.9-0.3c0.7-0.1,1.1-0.3,1.3-0.5c0.5-0.5,0.9-1.4,1.2-2.8c0.2-1.1,0.3-2.2,0.3-3.2c0-1-0.4-1.4-1.3-1.4
			c-0.3,0-0.9,0-1.7,0.1c-0.4,1.8-0.9,3.3-1.3,4.4c-0.5,1.3-1.3,2.6-2.2,3.9c-0.8,1.1-1.4,1.7-1.8,1.7c-0.2,0-0.6-0.2-0.9-0.6
			c-0.4-0.4-0.6-0.6-0.6-0.9c0-0.1,0.1-0.3,0.3-0.4c0.2-0.1,0.5-0.3,0.9-0.6c1-0.7,1.8-1.5,2.5-2.5c0.8-1.2,1.5-2.9,2.2-4.9
			c-0.7,0.1-1.8,0.3-3.1,0.6c-0.3,0-0.5-0.2-0.5-0.6c0-0.7,0.6-1,1.9-1.1c0.3,0,1-0.1,2.1-0.1c0.2-0.8,0.3-1.6,0.3-2.6
			c0-0.5,0.2-0.8,0.6-0.8c0.4,0,0.6,0.2,0.6,0.7c0,0.2-0.1,1.1-0.4,2.6c0.7,0,1.1,0,1.4,0c0.9,0,1.6,0.3,2,0.9
			C51.6,6.7,51.7,7.5,51.7,8.7z M58.1,7.9c0,0.2-0.2,0.6-0.6,1.2c-0.4,0.5-0.7,0.8-0.9,0.8c-0.4,0-1-0.6-1.9-1.7s-1.2-1.9-1.2-2.4
			c0-0.2,0.1-0.4,0.2-0.4c0.1,0,0.3,0.2,0.7,0.6c0.4,0.4,0.9,0.8,1.5,1.2c0.5,0.3,1,0.5,1.6,0.5C57.9,7.7,58.1,7.8,58.1,7.9z
			 M57.4,4.7c0,0.2-0.2,0.4-0.4,0.7C56.8,5.8,56.6,6,56.5,6c-0.2,0-0.6-0.3-1.2-1c-0.6-0.7-0.8-1.1-0.8-1.3c0-0.2,0.1-0.3,0.2-0.3
			c0.1,0,0.3,0.1,0.7,0.4c0.5,0.4,1.1,0.6,1.7,0.6C57.2,4.4,57.3,4.6,57.4,4.7z M59.4,3c0,0.2-0.2,0.4-0.4,0.8
			c-0.2,0.3-0.4,0.5-0.5,0.5c-0.2,0-0.6-0.3-1.2-1c-0.6-0.6-0.8-1.1-0.8-1.4c0-0.2,0.1-0.3,0.2-0.3c0.1,0,0.3,0.1,0.7,0.4
			c0.5,0.4,1.1,0.6,1.7,0.6C59.2,2.8,59.3,2.9,59.4,3z"/>
		<path class="st0" d="M73.9,4.1c0,0.5-0.3,1.7-0.9,3.4c-1.3,3.6-3.4,6.5-6.2,8.4c-1.3,0.9-2.2,1.4-2.7,1.4c-0.3,0-0.6-0.2-1.1-0.6
			c-0.5-0.4-0.7-0.7-0.7-1c0-0.2,0.3-0.3,1-0.6c1-0.4,2-0.7,2.8-1.1c1.2-0.6,2.3-1.5,3.4-2.7c1.2-1.2,2-2.5,2.6-3.8
			c0.6-1.3,0.9-2.2,0.9-2.7c-0.1-0.1-0.7-0.1-1.9-0.1h-1.4c-1.3,0-2.5,0.1-3.6,0.3c-1.4,0.3-2.1,0.4-2.3,0.4c-0.3,0-0.5-0.3-0.5-0.8
			c0-0.3,0.1-0.6,0.2-0.7c0.3-0.3,1.6-0.5,4-0.5c0.6,0,1.4,0,2.5,0c1.1,0,2,0,2.5,0c0.1,0,0.3,0,0.6,0c0.2,0,0.4,0,0.6,0
			C73.7,3.5,73.9,3.7,73.9,4.1z M78.7,2.4c0,0.5-0.2,1-0.6,1.4s-0.8,0.7-1.3,0.7c-0.5,0-0.9-0.2-1.3-0.7s-0.6-1-0.6-1.6
			c0-0.7,0.2-1.2,0.5-1.6C75.7,0.2,76.2,0,76.8,0c0.5,0,0.9,0.2,1.3,0.7C78.5,1.2,78.7,1.8,78.7,2.4z M77.9,2.4c0-0.4-0.1-0.7-0.3-1
			c-0.2-0.3-0.5-0.5-0.8-0.5c-0.4,0-0.6,0.1-0.9,0.4c-0.2,0.3-0.3,0.6-0.3,1c0,0.4,0.1,0.7,0.3,1c0.2,0.3,0.5,0.4,0.8,0.4
			c0.2,0,0.5-0.1,0.8-0.4C77.8,2.9,77.9,2.6,77.9,2.4z"/>
		<path class="st0" d="M92.6,6.8c0,0.8-0.3,2-1,3.6c-0.5,1.3-1.3,2.4-2.3,3.5c-1,1.1-2.1,1.9-3.2,2.4c-1.1,0.5-1.8,0.8-2.2,0.8
			c-0.3,0-0.7-0.2-1.2-0.7c-0.5-0.5-0.7-0.9-0.7-1.2c0-0.1,0.6-0.3,1.8-0.5c1.4-0.2,2.7-0.7,3.8-1.4c1.2-0.8,2.2-1.8,2.9-3.1
			c0.7-1.2,1-2.1,1-2.7c-0.1-0.1-1-0.2-2.4-0.2c-1.8,0-3.2,0.1-4.2,0.3c-0.4,0.1-0.7,0.2-1.1,0.3c-0.5,0.1-0.8,0.2-1.1,0.2
			c-0.3,0-0.4-0.2-0.4-0.7c0-0.5,0.2-0.8,0.6-1c0.4-0.2,1.9-0.3,4.7-0.3c0.4,0,1.1,0,1.9,0c0.8,0,1.5,0,1.9,0c0.1,0,0.2,0,0.4-0.1
			c0.2-0.1,0.3-0.1,0.4-0.1C92.4,6.1,92.6,6.3,92.6,6.8z M91.6,2.6c0,0.7-0.2,1.1-0.6,1.1c-0.1,0-0.5-0.1-1.4-0.2
			c-0.3,0-1-0.1-2-0.1c-0.9,0-1.6,0-2.2,0.1c-0.7,0.1-1.1,0.1-1.1,0.1c-0.4,0-0.7-0.2-0.7-0.6c0-0.4,0.1-0.7,0.4-0.8
			C84.3,2.1,85.5,2,87.6,2c1.3,0,2.1,0,2.2,0C91,2.1,91.6,2.3,91.6,2.6z"/>
		<path class="st0" d="M102.8,7c0,0.3-0.1,0.4-0.3,0.4c-0.4,0-1.2-0.3-2.2-0.9c-1.1-0.6-1.7-1.1-1.7-1.6c0-0.3,0.1-0.5,0.3-0.7
			c0.2-0.2,0.4-0.3,0.6-0.3c0.3,0,0.9,0.4,1.8,1.3C102.3,6.2,102.8,6.7,102.8,7z M110.7,5.7c0,0.5-0.5,1.5-1.5,3
			c-2,3.2-4.6,5.6-7.8,7.1c-1,0.5-1.6,0.7-2,0.7c-0.6,0-0.9-0.3-0.9-1c0-0.6,0.4-1,1.1-1.2c0.8-0.2,1.9-0.7,3.2-1.3
			c1.6-0.8,3-2,4.3-3.4c1.3-1.4,2.1-2.7,2.6-3.8c0.1-0.4,0.3-0.5,0.5-0.5C110.6,5.2,110.7,5.4,110.7,5.7z"/>
		<path class="st0" d="M128.8,7.1c0,0.3-0.3,0.6-0.8,1c-1.2,0.9-2.9,2-5.1,3.4c0,0.1,0,0.4,0,0.8c0,0.3,0,0.6,0,0.8
			c0,0.5-0.2,0.7-0.7,0.7c-0.3,0-0.4-0.2-0.5-0.6c0-0.1,0-0.4,0-1c-0.8,0.5-1.4,0.8-1.7,1.1c-0.7,0.6-1.1,1.1-1.1,1.7
			c0,0.4,0.3,0.6,1,0.8c0.5,0.1,1,0.2,1.5,0.2c1.5,0,2.8-0.3,4-0.8c0.9-0.4,1.4-0.6,1.4-0.6c0.1,0,0.2,0.1,0.2,0.4
			c0,0.5-0.1,1-0.4,1.5c-0.2,0.4-0.7,0.6-1.6,0.8c-0.7,0.1-1.4,0.1-2.3,0.1c-1.1,0-2.1-0.1-2.9-0.4c-1.3-0.4-1.9-1.1-1.9-2
			c0-0.8,0.5-1.6,1.4-2.4c0.1-0.2,0.9-0.7,2.2-1.7c0-0.9-0.1-1.4-0.1-1.6c-0.1-0.6-0.5-0.9-1.1-0.9c-0.7,0-1.4,0.2-1.9,0.5
			c-0.2,0.1-0.8,0.6-1.7,1.4c-0.1,0.1-0.2,0.2-0.4,0.3c-0.4,0-0.6-0.3-0.6-0.9c0-0.4,0.4-0.9,1.2-1.4c1.1-0.8,2.1-1.8,3-3.2
			c-0.4,0.1-1.1,0.2-2,0.3c0,0-0.3,0.1-0.8,0.2c-0.4,0.1-0.6,0.2-0.8,0.2c-0.3,0-0.5-0.2-0.5-0.7c0-0.6,0.4-0.9,1.2-1
			c0.7,0,1.9-0.1,3.3-0.1c0.1-0.3,0.4-0.9,0.8-1.9c0.2-0.5,0.4-0.7,0.8-0.7c0.5,0,0.7,0.2,0.7,0.7c0,0.2-0.3,0.8-0.9,1.9
			c0.4,0,1.1,0,1.9,0c0.9,0,1.5,0,1.9,0c0.1,0,0.3,0,0.5,0c0.2,0,0.4-0.1,0.5-0.1c0.1,0,0.2,0.1,0.2,0.2c0,0.3-0.2,0.6-0.4,1
			c-0.3,0.4-0.5,0.6-0.8,0.6c-0.2,0-0.5-0.1-0.8-0.2c-0.3-0.1-0.5-0.1-0.8-0.2c-0.6-0.2-1.6-0.3-2.8-0.3c-0.6,1-1.3,1.9-1.9,2.6
			c0.5-0.1,1-0.1,1.4-0.1c1.1,0,1.8,0.8,1.8,2.3c0,0.2,0,0.3,0.1,0.4c1.8-1.3,3.3-2.4,4.4-3.3c0.4-0.3,0.7-0.4,0.9-0.4
			C128.6,6.4,128.8,6.6,128.8,7.1z"/>
		<path class="st0" d="M137.9,7.6c0.5,0,0.7,0.2,0.7,0.7l0.3,5.9c0,0,0,0,0,0c0.8-0.1,1.5-0.1,2-0.1c0.6,0,1.3,0,2,0.1l0.6-6
			c0.1-0.4,0.3-0.6,0.7-0.6c0.5,0,0.7,0.3,0.7,0.8l-1.1,5.9c0.5,0,1.1,0.1,1.7,0.2c1.3,0.2,2.5,0.2,3.6,0.2c0.3,0,0.6,0,1-0.1
			c0.1,0,0.1,0.1,0.1,0.3c0,0.4-0.1,0.9-0.3,1.3c-0.2,0.5-0.4,0.7-0.7,0.7c-0.3,0-0.7-0.1-1-0.3c-1.4-0.6-2.7-1-3.8-1.2
			c-0.9-0.1-2-0.2-3.3-0.2c-1.5,0-2.9,0.1-4,0.4c-1.2,0.3-2.4,0.7-3.5,1.3c-0.4,0.2-0.6,0.2-0.9,0.2c-0.4,0-0.6-0.3-0.6-0.8
			c0-0.3,0.1-0.5,0.3-0.7c0.2-0.2,0.4-0.3,0.7-0.4c2-0.4,3.8-0.7,5.2-0.9c0-0.1,0-0.2-0.1-0.3l-0.8-5.7
			C137.3,7.9,137.5,7.6,137.9,7.6z M140.9,1.5c0.5,0,0.8,0.3,0.8,0.9c-0.1,0.8-0.2,1.6-0.2,2.3h5.7c0.2,0,0.3,0.1,0.3,0.3
			c0,0.3-0.1,0.6-0.2,0.8c-0.2,0.2-0.4,0.3-0.7,0.3c-0.3,0-1-0.1-2.1-0.2c-1.1,0-2.4-0.1-3.8-0.1c-2.1,0-3.6,0.1-4.5,0.3
			c-0.5,0.1-0.9,0.2-1,0.2c-0.4,0-0.7-0.3-0.7-0.7c0-0.2,0.1-0.5,0.3-0.6c0.2-0.1,0.4-0.2,0.8-0.2h4.8c0-0.8-0.1-1.5-0.3-2.2
			C140.1,1.9,140.4,1.5,140.9,1.5z"/>
		<path class="st0" d="M161.1,12c0-0.2,0-0.4,0-0.6c0-0.6,0.2-0.8,0.7-0.8c0.4,0,0.6,0.3,0.6,0.8c0,0.2,0,0.4,0,0.6
			c1,0,2.3,0.1,3.7,0.3c1.3,0.1,2.3,0.2,3.2,0.2c0.4,0,0.9,0,1.3-0.1c0.1,0,0.2,0.1,0.2,0.2c0,0.5-0.1,1-0.3,1.5
			c-0.2,0.4-0.5,0.6-0.7,0.6c-0.2,0-0.4-0.1-0.7-0.2c-1.2-0.6-2.4-0.9-3.5-1.1c-0.9-0.2-1.9-0.3-3.1-0.3c0,0,0,0.1,0,0.1l0.1,3.3
			c0,0.9-0.2,1.4-0.6,1.4c-0.4,0-0.6-0.5-0.6-1.4c0.1-1.4,0.1-2.5,0.1-3.3c0,0,0-0.1,0-0.1c-1.6,0-3,0.2-4,0.5c-1.2,0.3-2.2,0.6-3,1
			c-0.3,0.2-0.5,0.2-0.7,0.2c-0.4,0-0.7-0.3-0.7-0.7c0-0.2,0.1-0.5,0.3-0.7c0.2-0.2,0.4-0.3,0.7-0.3C157.2,12.5,159.6,12.1,161.1,12
			z M161.7,0.7c0.5,0,0.7,0.3,0.7,0.8c-0.1,0.4-0.2,0.9-0.2,1.2c2.3,0,4.3,0.1,5.9,0.3l0.8-0.2c0.4,0,0.6,0.2,0.6,0.5
			c0,0.1,0,0.3-0.1,0.4c-0.2,0.6-0.4,1.4-0.4,2.7c0,0.4-0.2,0.6-0.5,0.6c-0.3,0-0.5-0.2-0.5-0.6c0-0.7,0-1.4,0.1-2
			c0-0.1-0.1-0.1-0.3-0.2c-1.6-0.3-3.5-0.4-5.5-0.4c-2.1,0-4,0.1-5.8,0.3c-0.6,0-0.9,0.2-0.9,0.4l0,0.1c0,1.2-0.1,1.8-0.2,2.1
			c-0.1,0.2-0.2,0.4-0.5,0.4c-0.2,0-0.3-0.1-0.3-0.3c0-1.4-0.1-2.6-0.3-3.6c0-0.4,0.2-0.6,0.6-0.6c0.3,0,0.4,0,0.6,0.1
			c0.2,0.1,0.4,0.1,0.5,0.1c1.4-0.1,3.2-0.1,5.3-0.1c0,0,0.1,0,0.1,0c0-0.4-0.1-0.8-0.2-1.1C161.1,1,161.3,0.7,161.7,0.7z
			 M156.3,15.3c0.3,0.1,0.6,0.1,0.7,0.1c0.5,0,1.1-0.2,1.8-0.6c0.2,0,0.2,0.1,0.2,0.3c0,0.2-0.3,0.7-0.8,1.3c-0.5,0.7-0.9,1-1.3,1
			c-0.2,0-0.5-0.1-0.6-0.4c-0.2-0.4-0.3-0.8-0.3-1.2C156.1,15.4,156.2,15.3,156.3,15.3z M157.5,5.6h2.7c0.2-0.3,0.5-0.7,0.7-1
			c0.1-0.3,0.3-0.5,0.5-0.5c0.1,0,0.2,0,0.3,0.1c0.2,0.2,0.3,0.4,0.3,0.7c0,0.1-0.1,0.2-0.2,0.4c-0.1,0.1-0.2,0.2-0.2,0.3h4.9
			c0.2,0,0.3,0.1,0.3,0.3c0,0.3-0.1,0.6-0.2,0.8c-0.2,0.2-0.4,0.3-0.7,0.3c-0.2,0-0.7-0.1-1.4-0.2c-0.3,0.6-0.9,1.3-1.6,2
			c1,0.4,1.7,0.7,2.3,1c0.5,0.3,0.9,0.4,1.2,0.5c0.1,0,0.2,0.1,0.2,0.2c0,0.2-0.1,0.3-0.3,0.5c-0.2,0.2-0.4,0.2-0.5,0.2
			s-0.5-0.1-0.9-0.4c-0.6-0.4-1.5-0.8-2.6-1.2c-0.1,0-0.2-0.1-0.3-0.1c-0.8,0.6-1.6,1.1-2.5,1.4c-0.7,0.3-1.3,0.5-1.8,0.5
			c-0.2,0-0.4-0.1-0.6-0.3c-0.3-0.3-0.4-0.6-0.4-0.9c0-0.2,0.2-0.3,0.6-0.4c1.2-0.1,2.3-0.4,3.3-0.9c-1-0.3-1.6-0.5-2.1-0.5
			c-0.4,0-0.5-0.1-0.5-0.4c0-0.1,0.1-0.2,0.2-0.4c0.4-0.3,0.7-0.6,1.1-1.1c-0.6,0-1.1,0.1-1.5,0.1c-0.4,0.1-0.7,0.2-0.8,0.2
			c-0.3,0-0.5-0.2-0.6-0.6c0-0.2,0.1-0.4,0.3-0.6C157,5.6,157.2,5.6,157.5,5.6z M161.9,8.4c0.7-0.5,1.3-1.1,1.7-1.7
			c-0.7,0-1.4,0-2.2,0c-0.2,0-0.4,0-0.6,0c-0.2,0.3-0.4,0.5-0.7,0.7c-0.1,0.1-0.1,0.1-0.1,0.2c0,0.1,0.1,0.2,0.3,0.3
			C160.9,8,161.4,8.2,161.9,8.4z M164.5,14.8c0,0,0,0,0.1,0c0.6,0.4,1.1,0.6,1.5,0.7c0.3,0.1,0.6,0.1,1,0.1c0.2,0,0.2,0.1,0.2,0.3
			c0,0.3-0.1,0.5-0.4,0.8c-0.5,0.4-0.9,0.6-1.2,0.6c-0.1,0-0.2-0.1-0.3-0.2c-0.1-0.2-0.5-0.8-1.2-1.8c0-0.1-0.1-0.2-0.1-0.2
			C164.3,14.9,164.4,14.8,164.5,14.8z"/>
		<path class="st0" d="M179.8,16.8c0,0.4-0.1,0.8-0.4,1.1c-0.3,0.3-0.6,0.4-1,0.4c-0.4,0-0.7-0.1-0.9-0.4c-0.2-0.3-0.4-0.6-0.4-1.1
			c0-0.9,0.4-1.4,1.3-1.4c0.4,0,0.7,0.1,1,0.4C179.7,16,179.8,16.3,179.8,16.8z M179.4,3.8c-0.1,0.5-0.2,2.1-0.2,4.9
			c0,2.4,0,3.8,0.1,4c0,0.7-0.3,1-0.9,1c-0.6,0-0.9-0.3-0.9-1c0-0.5,0-1.1,0.1-2c0.1-0.9,0.1-1.6,0.1-2c0-0.5,0-1.3-0.1-2.4
			c-0.1-1.1-0.1-1.9-0.1-2.5c0-0.7,0.3-1.1,0.9-1.1C179.1,2.7,179.4,3.1,179.4,3.8z"/>
	</g>
</g>
</svg>
