<?xml version="1.0" encoding="utf-8"?>
<!-- Generator: Adobe Illustrator 24.0.3, SVG Export Plug-In . SVG Version: 6.00 Build 0)  -->
<svg version="1.1" id="レイヤー_1" xmlns="http://www.w3.org/2000/svg" xmlns:xlink="http://www.w3.org/1999/xlink" x="0px"
	 y="0px" viewBox="0 0 234.6 17.3" style="enable-background:new 0 0 234.6 17.3;" xml:space="preserve">
<style type="text/css">
	.st0{fill:#503819;}
</style>
<g>
	<g>
		<path class="st0" d="M4.3,5.3h3c0-0.1,0-0.2,0-0.3c0-0.5,0.2-0.7,0.7-0.7c0.4,0,0.6,0.2,0.6,0.6c0,0.1,0,0.3-0.1,0.4h4
			c0.2,0,0.3,0.1,0.3,0.3c0,0.3-0.1,0.6-0.2,0.8c-0.2,0.2-0.4,0.3-0.7,0.3c-0.2,0-0.7-0.1-1.4-0.2c-0.6,0-1.3-0.1-2-0.1l0,1.4H12
			c0.1,0,0.2,0.1,0.2,0.3c0,0.3-0.1,0.5-0.2,0.7C11.8,8.9,11.6,9,11.3,9c-0.2,0-0.6,0-1.3-0.1c-0.5,0-1.1,0-1.7,0v0
			c0,0.4-0.1,0.9-0.1,1.4H14c0.2,0,0.3,0.1,0.3,0.3c0,0.3-0.1,0.6-0.2,0.8c-0.2,0.2-0.4,0.3-0.7,0.3c-0.3,0-0.9-0.1-2-0.2
			c-0.7,0-1.5-0.1-2.3-0.1l0,0c2.9,2,4.7,3.1,5.4,3.3c0.4,0.1,1,0.2,1.6,0.3c0.3,0,0.4,0.1,0.4,0.4c0,0.4-0.2,0.7-0.7,1.1
			c-0.5,0.4-0.9,0.5-1.4,0.5c-0.3,0-0.6-0.2-1-0.5c-1.1-1.2-2.4-2.3-3.9-3.5c-0.6-0.5-1.1-0.8-1.6-1c0,0.1-0.1,0.2-0.1,0.3
			c-0.6,1.5-1.5,2.6-2.7,3.3c-1.3,0.7-2.5,1-3.7,1c-0.4,0-0.7-0.2-1-0.5C0.1,16,0,15.7,0,15.3c0-0.3,0.1-0.5,0.3-0.5
			c0.4,0.1,0.7,0.1,1,0.1c1.5,0,2.6-0.3,3.5-0.8c0.9-0.6,1.6-1.4,2-2.5c0,0,0-0.1,0.1-0.1c-1.6,0-2.7,0.1-3.5,0.2
			c-0.5,0.1-0.9,0.2-1,0.2c-0.4,0-0.7-0.3-0.7-0.7c0-0.2,0.1-0.4,0.3-0.6c0.2-0.1,0.4-0.2,0.8-0.2h4.4c0.1-0.4,0.2-0.9,0.2-1.4
			C6.3,8.9,5.5,9,5,9.1C4.6,9.2,4.4,9.3,4.3,9.3c-0.4,0-0.6-0.2-0.6-0.6C3.7,8.4,3.8,8.2,4,8c0.2-0.1,0.4-0.2,0.7-0.2h2.7
			c0-0.1,0-0.3,0-0.4c0-0.3,0-0.7,0-1c-1.3,0-2.2,0.1-2.8,0.2C4.2,6.7,4,6.7,3.9,6.7c-0.4,0-0.6-0.2-0.6-0.6c0-0.2,0.1-0.4,0.3-0.6
			C3.8,5.3,4,5.3,4.3,5.3z M7.9,0.1c0.5,0,0.8,0.3,0.8,0.9C8.6,1.5,8.5,2,8.5,2.4c2.2,0,4.2,0.1,5.9,0.3l0.9-0.2
			c0.4,0,0.6,0.2,0.6,0.5c0,0.1,0,0.3-0.1,0.5c-0.2,0.6-0.4,1.6-0.5,2.8c0,0.4-0.2,0.6-0.6,0.6c-0.4,0-0.6-0.2-0.6-0.6
			c0-0.8,0.1-1.4,0.2-2.1c0,0-0.1-0.1-0.3-0.2c-1.6-0.3-3.5-0.4-5.5-0.4c-2,0-3.9,0.1-5.7,0.3c-0.5,0-0.8,0.2-0.9,0.4l0,0.1
			c0,1.2-0.1,1.9-0.3,2.2C1.4,6.7,1.2,6.8,1,6.8c-0.3,0-0.4-0.1-0.4-0.3c0-1.5-0.1-2.8-0.3-3.9c0-0.4,0.2-0.6,0.6-0.6
			c0.3,0,0.5,0,0.7,0.1C1.8,2.4,2,2.4,2.1,2.4c1.3-0.1,3-0.1,5.1-0.1c0,0,0.1,0,0.1,0C7.3,1.9,7.2,1.5,7.1,1.1
			C7.1,0.4,7.4,0.1,7.9,0.1z"/>
		<path class="st0" d="M20.4,0.7c1.1,0,2.2,0,3.2,0.1c0.1,0,0.3,0,0.6-0.1c0.4,0,0.6,0.2,0.6,0.6c0,0.2-0.2,0.5-0.5,0.9
			c-0.5,0.5-1,1.3-1.7,2.3c0,0,0,0.1,0.1,0.2c0.4,0.4,0.8,0.8,1,1.4C24,6.7,24.1,7.3,24.1,8c0,0.8-0.3,1.5-0.8,2
			c-0.5,0.5-1.1,0.7-1.8,0.7c-0.2,0-0.3,0-0.4,0l0,5c0,1-0.2,1.5-0.7,1.5c-0.4,0-0.6-0.5-0.6-1.5c0.1-3.9,0.1-6.9,0.1-9.1
			c0-1.3,0-2.7-0.1-4.3c0-0.1,0-0.2,0-0.3h0c-0.3,0-0.4-0.2-0.4-0.5s0.1-0.5,0.3-0.7C20,0.7,20.2,0.7,20.4,0.7z M21,1.8
			c0,0.1,0.1,0.3,0.1,0.5c0,1-0.1,2-0.1,2.8l2.1-3.2c0-0.1-0.1-0.2-0.2-0.2h-1.4C21.4,1.7,21.2,1.7,21,1.8z M21,6.6l0,2.9
			c0.7,0,1.3-0.2,1.6-0.5c0.3-0.3,0.4-0.6,0.4-1c0-0.6-0.1-1.1-0.4-1.6c-0.3-0.5-0.6-0.8-0.8-0.8c0,0-0.1,0-0.2,0.1l-0.5,0.7
			C21.1,6.5,21,6.5,21,6.6z M28.2,0.4c0.3,0,0.4,0.1,0.4,0.4c0,0.1,0,0.2,0,0.3c0.5,0,1.1,0,1.6,0.1c0.1,0,0.3,0,0.6-0.1
			c0.4,0,0.6,0.2,0.6,0.6c0,0.1-0.1,0.2-0.3,0.4c-0.3,0.5-0.7,1-1,1.4C29.6,4.3,29,5.1,28.2,6c-0.7,0.8-1.4,1.4-2.1,1.9
			c-0.2,0.2-0.5,0.3-0.6,0.3c-0.3,0-0.6-0.2-0.9-0.6c-0.2-0.3-0.3-0.5-0.3-0.8c0-0.1,0.1-0.2,0.2-0.2c0.7-0.1,1.4-0.4,2.1-0.8
			c-0.3-0.3-0.6-0.5-0.8-0.6S25.6,5,25.6,4.9c0-0.4,0.2-0.6,0.6-0.6c0,0,0.3,0.2,0.6,0.6c0.2,0.2,0.3,0.4,0.4,0.5
			c0.1-0.1,0.2-0.2,0.3-0.3c0.2-0.2,0.3-0.4,0.5-0.6C27.7,4.2,27.4,4,27.3,4C27.1,3.9,27,3.8,27,3.7c0-0.4,0.2-0.6,0.6-0.6
			c0,0,0.2,0.2,0.5,0.5c0.1,0.2,0.3,0.3,0.3,0.4c0.4-0.5,0.8-1,1.1-1.6c0.2-0.2,0.2-0.3,0.2-0.4c0-0.1-0.1-0.2-0.2-0.2
			c-0.5,0-1,0.1-1.7,0.3c-0.1,0-0.1,0-0.2,0c-0.5,0.6-1.1,1.1-1.7,1.6c-0.4,0.3-0.6,0.4-0.9,0.4c-0.2,0-0.4-0.1-0.7-0.4
			c-0.2-0.2-0.3-0.4-0.3-0.7c0-0.2,0.1-0.3,0.3-0.3c0.7-0.2,1.3-0.4,1.8-0.8C27,1.6,27.5,1.1,28,0.5C28.1,0.4,28.2,0.4,28.2,0.4z
			 M25.2,13.7c0.3,0.1,0.6,0.1,0.7,0.1c0.5,0,1.1-0.3,1.8-0.8c0.2,0,0.2,0.1,0.2,0.3c0,0.2-0.3,0.7-0.8,1.4
			c-0.5,0.7-0.9,1.1-1.3,1.1c-0.2,0-0.5-0.2-0.6-0.5C25.1,15,25,14.5,25,14.1C25,13.8,25,13.7,25.2,13.7z M26.7,10.1h8
			c0.2,0,0.3,0.1,0.3,0.3c0,0.3-0.1,0.6-0.2,0.8c-0.2,0.2-0.4,0.3-0.7,0.3c-0.2,0-0.7-0.1-1.4-0.2c-0.5,0-1.1-0.1-1.7-0.1
			c0,0.1,0,0.2,0,0.4c-0.1,0.6-0.1,1.1-0.1,1.5l0.1,2.3c0,1-0.2,1.5-0.7,1.5c-0.4,0-0.6-0.5-0.6-1.5c0.1-1,0.1-1.8,0.1-2.3
			c0-0.5,0-1-0.1-1.5c0-0.1,0-0.3,0-0.4c-1.3,0-2.2,0.1-2.8,0.2c-0.4,0.1-0.6,0.2-0.7,0.2c-0.4,0-0.6-0.3-0.6-0.7
			c0-0.2,0.1-0.4,0.3-0.6C26.2,10.2,26.4,10.1,26.7,10.1z M28.5,7.3h4.6c0.1,0,0.2,0.1,0.2,0.2c0,0.3-0.1,0.5-0.2,0.7
			c-0.2,0.2-0.4,0.3-0.7,0.3c-0.1,0-0.4,0-0.8-0.1c-0.4,0-0.9,0-1.3,0c-0.9,0-1.5,0-1.9,0.1c-0.2,0.1-0.4,0.1-0.4,0.1
			c-0.3,0-0.5-0.3-0.6-0.7c0-0.2,0.1-0.4,0.3-0.6C28.1,7.4,28.3,7.3,28.5,7.3z M32.7,1c1.2,0,2,0,2.4,0.1L35.6,1
			c0.3,0,0.5,0.2,0.5,0.6c0,0.1-0.1,0.3-0.3,0.5c-0.6,0.5-1.2,1.2-2.1,2.1c-0.1,0.1-0.1,0.1-0.2,0.1c1.3,1,2.1,1.6,2.5,1.7
			c0.3,0.1,0.7,0.2,1.1,0.2c0.2,0,0.3,0.1,0.3,0.4c0,0.3-0.2,0.6-0.6,0.9C36.4,7.8,36,8,35.6,8c-0.3,0-0.5-0.1-0.8-0.4
			c-0.7-1-1.5-2-2.5-3c-0.4-0.4-0.7-0.7-1-0.9C31.1,3.7,31,3.6,31,3.4c0-0.3,0.2-0.5,0.6-0.5c0.1,0,0.4,0.2,0.7,0.5
			c0.2,0.2,0.4,0.3,0.6,0.5c0,0,0.1-0.1,0.1-0.1l1.3-1.7c0-0.1-0.1-0.2-0.3-0.2c-0.6,0-1.1,0.1-1.6,0.2c-0.3,0-0.5-0.1-0.5-0.4
			c0-0.2,0.1-0.3,0.2-0.5C32.3,1.1,32.5,1,32.7,1z M33,13c0,0,0,0,0.1,0c0.6,0.4,1.1,0.7,1.5,0.8c0.3,0.1,0.6,0.2,1,0.2
			c0.2,0,0.2,0.1,0.2,0.3c0,0.3-0.1,0.5-0.4,0.7c-0.5,0.4-0.9,0.6-1.2,0.6c-0.1,0-0.2-0.1-0.3-0.2c-0.2-0.2-0.6-0.8-1.2-1.9
			c-0.1-0.1-0.1-0.2-0.1-0.2C32.8,13.1,32.9,13,33,13z"/>
		<path class="st0" d="M44.8,11.5c-0.2,0.8-0.5,1.6-0.8,2.5c-0.5,1.3-0.9,1.9-1.3,1.9c-0.4,0-0.8-0.6-1.1-1.9
			c-0.3-1.1-0.4-2.7-0.4-4.8c0-0.8,0.1-2,0.4-3.6c0.3-1.7,0.5-2.8,0.8-3.4c0.2-0.4,0.4-0.6,0.8-0.6c0.4,0,0.7,0.2,0.7,0.7
			c0,0.1-0.1,0.5-0.3,1c-0.3,0.8-0.6,1.7-0.8,2.8c-0.2,1.1-0.4,2.1-0.4,2.8c0,3.1,0.2,4.7,0.6,4.7c0.2,0,0.6-0.8,1.3-2.3
			c0.1-0.2,0.2-0.3,0.3-0.3C44.7,11.2,44.8,11.3,44.8,11.5z M55.1,12.3c0,0.1-0.2,0.5-0.4,1.2c-0.2,0.6-0.5,0.9-0.9,1.1
			c-0.4,0.2-1.4,0.3-2.9,0.3c-1.2,0-2.2-0.2-3.1-0.6c-1.2-0.6-1.8-1.5-1.8-2.7c0-1.3,0.3-2,0.8-2C47,9.5,47,9.6,47,9.8
			c-0.1,0.6-0.2,1-0.2,1.2c0,1.4,0.9,2.1,2.8,2.1c0.8,0,1.7-0.1,2.7-0.3c0.6-0.1,1.1-0.3,1.6-0.5c0.4-0.2,0.7-0.3,0.9-0.3
			C54.9,12,55,12.1,55.1,12.3z M53.3,3.6c0,0.2-0.5,0.8-1.5,1.6c-1,0.8-1.6,1.2-1.8,1.2c-0.2,0-0.3-0.1-0.3-0.3c0-0.1,0.2-0.5,0.7-1
			c0.4-0.4,0.7-0.8,0.9-0.9c-0.1,0-0.2,0-0.3,0c-0.9,0-1.8,0.1-2.8,0.3c-1.1,0.2-1.6,0.4-1.6,0.4c-0.2,0-0.4-0.2-0.4-0.5
			c0-0.5,0.2-0.8,0.5-1c0.1,0,0.5-0.1,1.1-0.2C49.2,3,50.8,3,52.6,3C53.1,3,53.3,3.2,53.3,3.6z"/>
		<path class="st0" d="M59.8,3.7h2.1c0-0.9,0-1.8,0-2.7c0-0.7,0.3-1,0.7-1c0.4,0,0.7,0.2,0.7,0.7c0,0.1,0,0.4-0.1,0.7
			c0,0.4-0.1,0.7-0.1,0.9c0,0.5,0,0.9,0,1.3h2.1c0.1,0,0.2,0.1,0.2,0.3c0,0.3-0.1,0.5-0.2,0.7C65.1,4.9,64.9,5,64.6,5
			c-0.1,0-0.4,0-0.9-0.1c-0.2,0-0.4,0-0.6,0c0,1.3,0,2.4,0.1,3.5C63.9,8.1,64.5,8,65,7.9c0.2,0,0.3,0.1,0.3,0.4
			c0,0.4-0.1,0.6-0.4,0.6c-0.6,0.2-1.2,0.5-1.7,0.7c0,1.5,0.1,2.7,0.1,3.5c0,1.4-0.3,2.4-0.8,3.1c-0.5,0.5-1,0.8-1.7,0.8
			c-0.3,0-0.6-0.1-0.9-0.4c-0.2-0.2-0.2-0.5-0.2-0.7c0-0.2,0.1-0.4,0.4-0.5c1-0.3,1.6-0.6,1.8-1.1c0.2-0.4,0.2-0.9,0.2-1.6
			c0-0.9,0-1.8,0-2.7c-1,0.5-2,1-2.9,1.6c-0.4,0-0.6-0.2-0.6-0.6c0-0.4,0.1-0.6,0.2-0.8c0.1-0.2,0.2-0.4,0.5-0.5
			c1.1-0.4,2-0.7,2.8-1c0-1.1,0-2.3-0.1-3.4c0-0.1,0-0.3,0-0.5c-0.9,0-1.6,0.1-2,0.2c-0.3,0.1-0.4,0.2-0.5,0.2
			c-0.4,0-0.6-0.2-0.6-0.6c0-0.2,0.1-0.5,0.3-0.6C59.3,3.8,59.5,3.7,59.8,3.7z M67.1,8.5h3c0-0.1,0-0.3,0-0.4c0-0.6,0.2-0.8,0.6-0.8
			c0.4,0,0.6,0.3,0.6,0.8c0,0.1,0,0.3,0,0.4h3.9c0.2,0,0.3,0.1,0.3,0.3c0,0.3-0.1,0.6-0.2,0.8c-0.2,0.2-0.4,0.3-0.7,0.3
			c-0.2,0-0.7-0.1-1.4-0.2c-0.6,0-1.2-0.1-1.8-0.1c0.1,0.1,0.3,0.2,0.4,0.4c2,1.8,3.2,2.8,3.7,3c0.3,0.1,0.7,0.2,1.1,0.3
			c0.2,0,0.3,0.1,0.3,0.4c0,0.3-0.2,0.6-0.6,0.9c-0.4,0.3-0.8,0.4-1.2,0.4c-0.3,0-0.6-0.1-0.8-0.4c-0.7-1.1-1.5-2.2-2.5-3.3
			c-0.2-0.3-0.4-0.5-0.6-0.7l0.1,5c0,0.9-0.2,1.4-0.6,1.4c-0.4,0-0.6-0.5-0.6-1.4c0-2.1,0-3.7,0-4.9c-0.6,0.9-1.2,1.7-1.8,2.4
			c-0.6,0.7-1.3,1.3-2.2,1.7c-0.2,0.1-0.3,0.1-0.4,0.1c-0.3,0-0.6-0.2-1-0.6c-0.3-0.3-0.4-0.6-0.4-0.8c0-0.2,0.2-0.3,0.5-0.3
			c0.6-0.1,1-0.2,1.3-0.3c0.7-0.2,1.4-0.7,2-1.3c0.6-0.6,1.1-1.3,1.6-2.1c-1,0-1.8,0.1-2.3,0.2C67,10,66.8,10,66.7,10
			c-0.4,0-0.6-0.2-0.7-0.6c0-0.2,0.1-0.4,0.3-0.6C66.5,8.6,66.8,8.5,67.1,8.5z M66.1,4.5c0.3,0.1,0.5,0.1,0.7,0.1
			c0.4,0,1-0.2,1.6-0.6c0.1,0,0.2,0.1,0.2,0.3s-0.2,0.6-0.7,1.1c-0.4,0.6-0.8,0.9-1.1,0.9c-0.2,0-0.4-0.1-0.5-0.4
			C66,5.6,66,5.2,66,4.8C66,4.6,66,4.5,66.1,4.5z M74.6,0.6c0.3,0,0.4,0.1,0.4,0.4c0,0.3-0.1,0.5-0.3,0.6c-2,0.6-3.7,1-5,1.2
			c-0.9,0.1-1.5,0.2-1.8,0.2c-0.3,0-0.6-0.1-0.9-0.4c-0.2-0.2-0.3-0.5-0.3-0.7c0-0.2,0.1-0.2,0.3-0.3c1.8,0,3.2-0.1,4.3-0.3
			c1.1-0.2,2.1-0.4,2.9-0.6C74.3,0.6,74.5,0.6,74.6,0.6z M70.7,3.7c0.4,0,0.6,0.2,0.6,0.6L71,5.8c-0.1,0.2-0.2,0.4-0.3,0.4
			c-0.3,0-0.4-0.1-0.4-0.4l-0.2-1.5C70.1,3.9,70.3,3.7,70.7,3.7z M73.3,3.1c0,0,0,0,0.1,0.1c0.6,0.5,1.1,0.9,1.4,1.1
			c0.3,0.1,0.6,0.2,1,0.3c0.1,0,0.2,0.1,0.2,0.3c0,0.3-0.1,0.5-0.4,0.7C75.2,5.8,74.8,6,74.6,6c-0.1,0-0.2-0.1-0.3-0.2
			c-0.2-0.2-0.6-0.9-1.2-2.2C73.1,3.6,73,3.5,73,3.4C73,3.2,73.1,3.1,73.3,3.1z"/>
		<path class="st0" d="M82.8,1c0.3,0,0.5,0.1,0.6,0.2l10,0.1c0.2,0,0.5-0.1,1-0.3c0.5,0,0.8,0.2,0.8,0.6c-0.3,1.8-0.4,4-0.4,6.6
			c0,1.8,0.1,4.4,0.2,7.8c0,0.6-0.2,0.9-0.7,0.9c-0.2,0-0.3-0.1-0.4-0.4c-0.1-0.3-0.1-0.7-0.1-1.2c0-1.4,0-2.6,0-3.8
			c-1.6,0-3.1,0-4.5,0l0,3.8c0,1-0.2,1.5-0.7,1.5c-0.4,0-0.6-0.5-0.6-1.5c0-1.4,0-2.7,0-3.8c-1.8,0-3.3,0.1-4.5,0.1c0,0-0.1,0-0.1,0
			c0,0.5-0.1,1-0.2,1.4c-0.2,1-0.6,1.9-1.1,2.6c-0.5,0.6-0.9,0.9-1.2,0.9c-0.3,0-0.6-0.2-0.9-0.5c-0.4-0.4-0.6-0.6-0.6-0.8
			c0-0.2,0.1-0.3,0.3-0.4c0.8-0.4,1.5-1.1,1.9-2.1c0.5-1,0.7-3.1,0.7-6.4c0-1.5-0.1-3.2-0.2-4.9C82.2,1.2,82.4,1,82.8,1z M83.5,10.6
			c0,0,0.1,0,0.1,0H88c0-1.4,0-2.5,0-3.5c-1.7,0-3.2,0.1-4.4,0.1c0,0,0,0,0,0v2.3C83.6,9.9,83.6,10.3,83.5,10.6z M83.6,6
			c0.1,0,0.1,0,0.2,0h4.3c0-1,0-2.1-0.1-3.3c0-0.1,0-0.2,0-0.3c-1.6,0-3,0-4.4,0V6z M89.2,2.4c0,0.1,0,0.2,0,0.4
			c0,1.2-0.1,2.3-0.1,3.3h4.5c0,0,0.1,0,0.1,0c0-1.2,0-2.4,0.1-3.4c0-0.2-0.2-0.3-0.6-0.3C91.9,2.4,90.5,2.4,89.2,2.4z M89.2,7.1
			l0,3.6h4.5c0-1.3,0-2.5,0-3.6c0,0,0,0-0.1,0C92.1,7,90.6,7,89.2,7.1z"/>
		<path class="st0" d="M113.7,4c0,0.3-0.2,0.8-0.5,1.3c-0.4,0.6-0.6,0.9-0.9,0.9c-0.1,0-0.4-0.1-0.9-0.4c-0.7-0.3-2-0.6-3.9-0.7
			c0.6,1.9,1.4,3.5,2.4,4.7c0.1,0.2,0.3,0.4,0.5,0.7c-0.1,0.4-0.3,0.7-0.5,0.9c-0.1,0-0.5-0.2-1-0.5c-0.6-0.3-1-0.5-1.2-0.6
			c-0.6-0.2-1.2-0.3-1.9-0.3c-2.3,0-3.4,0.7-3.4,2.2c0,0.8,0.4,1.4,1.1,1.8c0.5,0.3,1.2,0.4,2,0.4c1.7,0,3.1-0.3,4-0.8
			c0.5-0.3,0.8-0.4,0.9-0.4c0.2,0,0.3,0.1,0.3,0.3c0,0.3-0.1,0.7-0.3,1.3c-0.4,0.9-1.5,1.3-3.4,1.3c-1.4,0-2.6-0.2-3.5-0.6
			c-1.4-0.6-2.1-1.6-2.1-3c0-1.3,0.5-2.2,1.6-2.8c0.8-0.5,1.8-0.7,3-0.7c0.8,0,1.7,0.2,2.7,0.5c-0.8-1.3-1.5-2.8-2.1-4.4
			c-2,0.1-3.7,0.4-5.1,0.9c-0.5,0.2-0.8,0.2-1.1,0.2c-0.3,0-0.5-0.3-0.5-0.9c0-0.6,0.4-0.9,1.3-1c1.1-0.1,2.7-0.2,4.9-0.5
			c-0.4-1.2-0.6-2-0.6-2.4c0-0.5,0.3-0.8,0.8-0.8c0.3,0,0.5,0.4,0.7,1.3c0.1,0.6,0.2,1.3,0.3,1.9c1.6,0,3.4,0,5.1,0
			c0.1,0,0.3,0,0.6,0c0.3,0,0.5,0,0.6,0C113.6,3.7,113.7,3.8,113.7,4z"/>
		<path class="st0" d="M133.8,12.6c0,0.4-0.1,0.9-0.4,1.6c-0.4,0.9-1.4,1.3-3.2,1.3c-2.1,0-3.1-0.9-3.1-2.8c0-0.7,0.3-1.8,0.8-3.4
			c0.5-1.6,0.8-2.6,0.8-3.2c0-0.2-0.1-0.4-0.3-0.5c-0.2-0.1-0.3-0.2-0.5-0.2c-1.5,0-3.2,1.2-5.2,3.7v4.7c0,0.2,0,0.6,0,1
			c0,0.5,0,0.8,0,1c0,0.5-0.3,0.8-0.8,0.8c-0.2,0-0.4-0.2-0.5-0.6c-0.1-0.4-0.1-2.6,0-6.5c-1,1.4-1.8,2.7-2.4,3.6
			c-0.2,0.4-0.4,0.6-0.6,0.6c-0.4,0-0.7-0.3-0.7-0.9c0-0.4,0.5-1.4,1.6-2.8c0,0,0.7-0.9,2-2.6V7.2c0-0.1,0-0.7,0.1-1.9
			c-1.2,0.2-2.2,0.5-2.9,0.8c-0.3,0-0.4-0.2-0.4-0.5c0-0.6,0.3-1,1-1.1c0.4-0.1,1.1-0.2,2.3-0.4l0-2.3c0-0.9,0.2-1.3,0.7-1.3
			c0.4,0,0.6,0.2,0.6,0.7c-0.1,0.1-0.2,1.1-0.2,2.8c0,0,0.1,0,0.2,0c0.1,0,0.1,0,0.2,0c0.5,0,0.7,0.2,0.7,0.6c0,0.3-0.1,0.7-0.4,1.2
			c-0.2,0.4-0.4,0.7-0.7,1.1v0.9c0.7-0.9,1.6-1.6,2.5-2.2c1.1-0.8,2.1-1.2,2.9-1.2c0.4,0,0.8,0.2,1.1,0.5c0.4,0.3,0.6,0.7,0.6,1.2
			c0,0.5-0.3,1.6-0.8,3.3c-0.5,1.8-0.8,2.9-0.8,3.5c0,0.7,0.4,1,1.1,1c0.7,0,1.6-0.3,2.6-0.9c1-0.6,1.6-0.9,1.6-0.9
			C133.7,12,133.8,12.2,133.8,12.6z"/>
		<path class="st0" d="M147.2,3.9c0,0.2-0.1,0.4-0.2,0.7c-0.1,0.3-0.3,0.5-0.4,0.5c-0.9-0.2-1.7-0.3-2.4-0.3c-0.1,0-0.3,0-0.4,0
			c-0.2,0-0.3,0-0.4,0c-0.3,1.7-0.7,3.3-1.2,4.7c-1.4,4.1-2.5,6.1-3.2,6.1c-0.2,0-0.5-0.1-0.9-0.2c-0.4-0.2-0.6-0.4-0.6-0.6
			c0-0.1,0.3-0.5,0.8-1.2c0.9-1.1,1.8-2.5,2.5-4.1c0.8-1.6,1.3-3.2,1.5-4.6c-1.3,0.1-2.5,0.3-3.4,0.7c-0.3-0.1-0.5-0.2-0.5-0.6
			s0.1-0.5,0.2-0.7c0.1-0.2,0.8-0.3,1.9-0.5c0.7-0.1,1.4-0.2,2.1-0.2c0.1-0.6,0.2-1.4,0.2-2.1c0-0.6,0.2-0.9,0.6-0.9
			c0.4,0,0.6,0.2,0.6,0.6c0,0.2-0.1,1-0.4,2.3c1.8-0.1,2.9-0.2,3.2-0.2S147.2,3.6,147.2,3.9z M152.6,13.5c0,0.4-0.1,0.8-0.4,1.4
			c-0.3,0.5-0.7,0.9-1.3,1.1c-0.4,0.1-0.9,0.1-1.6,0.1c-3.5,0-5.2-1-5.2-3c0-0.3,0.1-0.6,0.2-0.9c0.1-0.4,0.3-0.6,0.5-0.6
			c0.2,0,0.3,0.1,0.3,0.4c0,0.1,0,0.3-0.1,0.5c0,0.2-0.1,0.4-0.1,0.5c0,0.9,0.7,1.4,2,1.4c2.1,0,3.7-0.4,4.9-1.1
			c0.3-0.2,0.5-0.3,0.5-0.3C152.6,13.1,152.6,13.2,152.6,13.5z M150.7,7.2c-0.1,0.2-0.5,0.7-1.3,1.4c-0.8,0.7-1.3,1.1-1.6,1.2
			c-0.1,0-0.2-0.1-0.2-0.3c0-0.2,0.2-0.5,0.5-0.9c0.2-0.2,0.5-0.5,0.7-0.8c-0.1,0-0.3,0-0.5,0c-0.9,0-1.7,0.1-2.3,0.2
			c-0.7,0.2-1.1,0.3-1.1,0.3c-0.3,0-0.4-0.1-0.4-0.4c0-0.3,0.1-0.5,0.2-0.7c0.3-0.4,1.6-0.6,3.9-0.6h0.8
			C150.2,6.6,150.7,6.8,150.7,7.2z"/>
		<path class="st0" d="M170.8,4.1c0,0.3-0.1,0.7-0.4,1.2c-0.3,0.5-0.5,0.7-0.8,0.7c-0.1,0-0.7-0.2-1.8-0.5c-0.7-0.2-1.4-0.4-2.3-0.4
			c0,0.2,0,0.4,0,0.8c0,0.3,0,0.6,0,0.7c0,3.7-1.2,6.6-3.7,8.7c-0.9,0.8-1.5,1.1-1.8,1.1c-0.2,0-0.6-0.2-1-0.6
			c-0.4-0.4-0.7-0.6-0.7-0.8c0-0.2,0.4-0.5,1.1-0.7c1-0.4,1.8-0.9,2.5-1.5c1-0.9,1.6-2,2-3.5c0.3-1,0.4-2.4,0.5-4.2
			c-1.9,0-3.5,0.4-4.9,1c-0.3,0.5-0.7,1.1-1.1,1.6c-0.6,0.8-1,1.2-1.3,1.2c-0.2,0-0.5-0.2-1-0.5c-0.4-0.3-0.6-0.6-0.6-0.8
			c0-0.2,0.3-0.4,0.9-0.8c0.8-0.5,1.5-1.1,2.2-2c0.8-1.1,1.3-2.1,1.5-2.9c0.1-0.6,0.4-0.9,0.8-0.9c0.2,0,0.4,0.2,0.4,0.5
			c0,0.4-0.3,1.4-0.9,2.9c1.8-0.4,3.5-0.5,5.1-0.5c0.5,0,1.2,0,2.1,0.1c0.9,0,1.6,0.1,2.1,0.1c0.1,0,0.3,0,0.5,0c0.2,0,0.4,0,0.5,0
			C170.7,3.9,170.8,4,170.8,4.1z"/>
		<path class="st0" d="M189.5,8.4c0,0.2-0.3,0.6-0.8,1.2c-0.5,0.5-0.9,0.8-1.2,0.8c-0.3,0-0.6-0.1-1.1-0.4c-1.3-0.8-3.2-1.2-5.6-1.2
			c-2,0-3.8,0.3-5.3,0.9c-0.6,0.2-0.9,0.3-1,0.3c-0.1,0-0.3-0.1-0.5-0.3c-0.1-0.2-0.2-0.4-0.2-0.5c0-0.4,0.1-0.7,0.4-0.9
			c0.3-0.3,1.4-0.5,3.2-0.7c1.3-0.1,2.5-0.2,3.5-0.2c1.4,0,3,0.2,4.8,0.5c1.2,0.2,2,0.3,2.6,0.3c0.1,0,0.3,0,0.5-0.1
			c0.2-0.1,0.4-0.1,0.5-0.1C189.5,8,189.5,8.2,189.5,8.4z"/>
		<path class="st0" d="M207.5,13.2c-0.1,0.3-0.4,0.7-0.9,1.2s-0.9,0.7-1.2,0.7c-0.2,0-0.8-0.6-1.6-1.8c-0.8-1.2-1.9-2.3-3.4-3.5
			c-1.6,1.9-3.1,3.3-4.4,4.1c-1.1,0.7-1.8,1-2.2,1c-0.3,0-0.6-0.2-1-0.6c-0.3-0.4-0.5-0.8-0.5-1.1c0-0.2,0.2-0.3,0.6-0.4
			c3.5-0.7,6.4-3,8.8-6.8c0.3-0.5,0.5-0.8,0.7-1.1c0.3-0.6,0.5-1,0.6-1.1c-0.1,0-0.6-0.1-1.6-0.1c-2,0-3.6,0.1-4.8,0.4
			c-0.6,0.2-1,0.2-1.3,0.2c-0.3,0-0.4-0.2-0.4-0.7c0-0.3,0.2-0.6,0.5-0.8c0.3-0.2,1.4-0.3,3.4-0.3h2.8c0.6,0,1,0,1.3,0.1
			c0.1-0.1,0.4-0.1,0.7-0.1c0.5,0,0.7,0.2,0.7,0.6c0,0.4-0.4,1.4-1.3,2.9c-0.7,1.2-1.3,2.2-1.9,2.9l3.4,2.5c0.9,0.7,1.5,1,2,1.2
			c0.2,0,0.4,0.1,0.6,0.1C207.4,12.9,207.5,13,207.5,13.2z"/>
		<path class="st0" d="M224,4.3c0,0.3-0.2,0.7-0.5,1.2c-0.3,0.5-0.6,0.7-0.8,0.7c0.1,0-0.3-0.1-1.3-0.4c-1.1-0.3-2.2-0.5-3.3-0.5
			c-0.1,0-0.3,0-0.6,0c-0.3,0-0.5,0-0.6,0c-0.1,1.1-0.2,2.1-0.2,3l3.5,0c0.6,0,1,0.1,1,0.3c0,0.2-0.1,0.5-0.2,0.7
			c-0.2,0.2-0.3,0.4-0.6,0.4c-1.1-0.2-1.9-0.3-2.4-0.3c-0.2,0-0.6,0-1.3,0c0,1.5,0.1,2.6,0.2,3.4c0.3,1.4,0.9,2.2,1.7,2.2
			c0.6,0,1.3-0.2,2.1-0.6c0.8-0.5,1.4-1,1.9-1.5c0.3-0.3,0.4-0.5,0.6-0.5c0.2,0,0.3,0.3,0.3,0.8c0,0.8-0.1,1.4-0.4,1.8
			c-0.2,0.5-0.9,0.8-1.9,1.1c-0.8,0.2-1.5,0.3-2.2,0.3c-1.5,0-2.5-0.8-3-2.3c-0.3-0.9-0.4-2.4-0.4-4.5c-0.9,0.1-1.5,0.1-1.7,0.1
			c-0.7,0.1-1.2,0.2-1.6,0.3c-0.4,0.1-0.5,0.2-0.4,0.2c-0.2,0-0.4-0.2-0.4-0.6c0-0.5,0.3-0.8,0.9-1c0.4-0.1,1.5-0.2,3.1-0.3
			c0-1.5,0-2.5,0.1-3l-1.3,0.1c-0.4,0.1-1,0.2-1.6,0.4c-0.9,0.3-1.4,0.5-1.5,0.6c-0.3,0-0.4-0.2-0.4-0.6c0-0.8,0.4-1.3,1.2-1.3
			c0.8-0.1,2.1-0.2,3.8-0.3c0.1-1,0.1-1.8,0.1-2.4c0-0.8,0.2-1.2,0.7-1.2c0.5,0,0.8,0.3,0.8,0.8c0,0-0.1,0.9-0.3,2.7
			c0.2,0,0.4,0,0.8,0c0.3,0,0.6,0,0.8,0c0.4,0,1,0,1.8,0c0.8,0,1.4,0,1.8,0c0.5,0,0.9,0,1.1-0.1c0.3,0,0.5-0.1,0.5-0.1
			C223.9,4.2,224,4.2,224,4.3z"/>
		<path class="st0" d="M234.6,15.8c0,0.4-0.1,0.8-0.4,1.1c-0.3,0.3-0.6,0.4-1,0.4c-0.4,0-0.7-0.1-0.9-0.4c-0.2-0.3-0.4-0.6-0.4-1.1
			c0-0.9,0.4-1.4,1.3-1.4c0.4,0,0.7,0.1,1,0.4C234.5,15,234.6,15.3,234.6,15.8z M234.2,2.8C234,3.3,234,4.9,234,7.8
			c0,2.4,0,3.8,0.1,4c0,0.7-0.3,1-0.9,1c-0.6,0-0.9-0.3-0.9-1c0-0.5,0-1.1,0.1-2c0.1-0.9,0.1-1.6,0.1-2c0-0.5,0-1.3-0.1-2.4
			c-0.1-1.1-0.1-1.9-0.1-2.5c0-0.7,0.3-1.1,0.9-1.1C233.9,1.8,234.2,2.1,234.2,2.8z"/>
	</g>
</g>
</svg>
