<?xml version="1.0" encoding="utf-8"?>
<!-- Generator: Adobe Illustrator 24.0.3, SVG Export Plug-In . SVG Version: 6.00 Build 0)  -->
<svg version="1.1" id="レイヤー_1" xmlns="http://www.w3.org/2000/svg" xmlns:xlink="http://www.w3.org/1999/xlink" x="0px"
	 y="0px" viewBox="0 0 183.8 17.3" style="enable-background:new 0 0 183.8 17.3;" xml:space="preserve">
<style type="text/css">
	.st0{fill:#503819;}
</style>
<g>
	<g>
		<path class="st0" d="M5,0c0.5,0,0.8,0.3,0.8,0.8c0,0.1,0,0.3-0.1,0.5C5.4,2.1,5.2,2.7,5,3h1c0.9,0,1.9,0,3.1,0.1
			C9.4,3.1,9.6,3,10,2.9c0.4,0,0.6,0.3,0.6,0.8c0,0,0,0.2-0.1,0.4c-0.1,0.4-0.1,1.1-0.2,2.2c-0.1,1.4-0.1,2.9-0.1,4.5
			c0,1.2,0,2.8,0.1,4.8c0,0.6-0.2,0.8-0.6,0.8c-1.8-0.1-3.4-0.2-4.9-0.2c-1.6,0-2.6,0-3.1,0.1c-0.4,0-0.8,0.1-1.3,0.2
			c-0.4,0-0.6-0.3-0.6-0.8c0.1-2.2,0.1-4.1,0.1-5.8c0-1.8,0-3.9-0.1-6.5c0-0.5,0.2-0.8,0.6-0.8c0.2,0,0.4,0,0.6,0.1
			C1.4,3,1.7,3,2.1,3h1.8c0.3-0.7,0.4-1.4,0.4-2.2C4.3,0.3,4.5,0,5,0z M4.9,15.1c1.2,0,2.5,0,3.9,0.1c0.2,0,0.3-0.1,0.3-0.4
			c0-1,0-1.9,0-2.8c-3.3,0-5.9,0.1-7.8,0.2c0,0.8-0.1,1.6-0.1,2.4c0,0.4,0.2,0.6,0.5,0.6C2.7,15.1,3.7,15.1,4.9,15.1z M1.4,11
			c0,0,0.1,0,0.1,0h7.7c0-1.1,0-2,0-2.9h0c-3.3,0-5.9,0.1-7.7,0.2h0C1.4,9.2,1.4,10.1,1.4,11z M1.4,7c0.1,0,0.1,0,0.2,0h7.6
			c0,0,0,0,0,0c0-1,0-1.8,0-2.4c0-0.2-0.1-0.3-0.3-0.3c-1.6-0.1-4-0.1-7.1-0.1c-0.3,0-0.4,0.2-0.4,0.5C1.4,5.5,1.4,6.3,1.4,7z"/>
		<path class="st0" d="M21.3,0.6c0.3,0,0.5,0.2,0.5,0.5c0,0.2-0.1,0.4-0.2,0.6c0,0,0,0,0,0c0.3,0,0.6,0,0.7,0l1.2,0.1
			c0.4-0.2,0.7-0.3,0.8-0.3c0.4,0,0.7,0.2,0.7,0.6c0,0.1-0.1,0.3-0.3,0.7c-1.2,2.5-2.1,4.3-2.8,5.5c-0.8,1.2-1.6,2.2-2.3,2.9
			c-0.6,0.6-1,1-1.4,1.2c-0.4,0.3-0.7,0.4-0.8,0.4c-0.3,0-0.7-0.1-1-0.4c-0.3-0.2-0.5-0.4-0.5-0.7c0-0.3,0.1-0.4,0.3-0.5
			c1-0.3,1.9-0.7,2.7-1.4c0.3-0.2,0.5-0.4,0.8-0.7c0,0,0,0,0,0c-0.6-0.5-1.1-0.9-1.4-1c-0.3-0.1-0.4-0.3-0.4-0.4
			c0-0.5,0.2-0.8,0.7-0.8c0.1,0,0.4,0.2,1,0.7c0.4,0.3,0.6,0.6,0.8,0.8C20.4,8,20.7,7.7,21,7.3c0.1-0.2,0.2-0.4,0.4-0.6
			c0,0-0.1-0.1-0.1-0.1c-0.5-0.5-0.9-0.8-1.1-0.9c-0.2-0.1-0.3-0.2-0.3-0.4c0-0.5,0.2-0.7,0.7-0.7c0,0,0.3,0.2,0.8,0.6
			c0.3,0.3,0.4,0.5,0.6,0.6c0.4-0.8,0.8-1.6,1.3-2.6c0.1-0.2,0.2-0.3,0.2-0.4c0-0.1-0.1-0.1-0.2-0.1c-0.3,0-0.7,0-1.1,0.1
			c-0.3,0-0.7,0.1-1,0.2c-0.1,0-0.2,0-0.2,0C20,4,19.3,4.9,18.5,5.7c-0.5,0.5-0.9,0.7-1.2,0.7c-0.3,0-0.6-0.2-0.9-0.5
			C16.1,5.6,16,5.4,16,5.1c0-0.2,0.1-0.3,0.4-0.4c0.9-0.3,1.7-0.7,2.4-1.4c0.8-0.6,1.5-1.5,2.2-2.6C21.1,0.6,21.2,0.6,21.3,0.6z
			 M16.2,14.6c0.4,0.1,0.6,0.1,0.8,0.1c0.5,0,1.1-0.3,1.9-0.9c0.1,0,0.2,0.1,0.2,0.3c0,0.3-0.3,0.8-0.8,1.5c-0.5,0.8-1,1.2-1.3,1.2
			c-0.3,0-0.5-0.2-0.7-0.5C16.1,16,16,15.5,16,15C16,14.8,16.1,14.6,16.2,14.6z M22.2,14c0.4,0,0.6,0.2,0.6,0.7l-0.3,1.9
			c-0.1,0.3-0.2,0.4-0.3,0.4c-0.3,0-0.4-0.2-0.4-0.5l-0.2-1.8C21.6,14.2,21.8,14,22.2,14z M25,5.1h2c0-0.3,0.1-0.7,0.1-1
			c0.1-0.8,0.1-1.6,0.1-2.4V0.9c0-0.4,0.2-0.5,0.5-0.6c0.4,0,0.5,0.2,0.6,0.6c0,0.6-0.1,1.5-0.2,2.6c0,0.5-0.1,1-0.1,1.5h3.2
			c0.2,0,0.3,0.1,0.3,0.3c0,0.3-0.1,0.6-0.2,0.8c-0.2,0.2-0.4,0.3-0.7,0.3c-0.1,0-0.5-0.1-1-0.2c-0.4,0-0.9-0.1-1.4-0.1
			c0.1,0.1,0.2,0.3,0.4,0.6c1.6,2.3,2.6,3.6,3,3.9c0.3,0.1,0.6,0.3,0.9,0.3c0.3,0,0.4,0.1,0.4,0.4c0,0.3-0.2,0.6-0.6,0.9
			c-0.4,0.3-0.8,0.5-1.3,0.5c-0.3,0-0.6-0.1-0.9-0.4c-0.5-1.3-1.1-2.7-1.8-4.1c-0.2-0.5-0.5-0.9-0.7-1.1c-0.1,0.6-0.3,1.1-0.4,1.6
			c-0.6,1.6-1.3,2.8-2,3.5c-0.4,0.4-0.7,0.6-1,0.6c-0.2,0-0.4-0.1-0.6-0.4c-0.1-0.2-0.2-0.4-0.2-0.6c0-0.1,0-0.2,0.1-0.3
			c1.2-0.9,2.1-2,2.7-3.4c0.3-0.7,0.5-1.4,0.7-2.2c-0.7,0-1.2,0.1-1.6,0.2c-0.3,0.1-0.5,0.2-0.6,0.2c-0.4,0-0.6-0.3-0.6-0.7
			c0-0.2,0.1-0.4,0.3-0.6C24.5,5.1,24.7,5.1,25,5.1z M25.9,14c0.4,0,0.7,0.2,0.7,0.7l-0.3,1.9c0,0.3-0.1,0.4-0.3,0.4
			c-0.3,0-0.4-0.2-0.4-0.5l-0.2-1.8C25.3,14.2,25.5,14,25.9,14z M29.4,14c0,0,0,0,0.1,0.1c0.6,0.4,1.1,0.7,1.5,0.9
			c0.2,0.1,0.6,0.2,1,0.2c0.2,0,0.2,0.1,0.2,0.3c0,0.3-0.1,0.6-0.4,0.9c-0.6,0.4-1,0.6-1.3,0.6c-0.1,0-0.2-0.1-0.2-0.2
			c-0.1-0.2-0.5-0.9-1-2.1c0-0.1-0.1-0.2-0.1-0.2C29.2,14.1,29.2,14,29.4,14z M31.3,1.5c0.4,0,0.6,0.2,0.6,0.6c0,0.3,0,0.5-0.1,0.6
			c-1.1,0.8-1.7,1.2-1.8,1.2c-0.3,0-0.4-0.1-0.4-0.4c0-0.1,0.3-0.6,1-1.7C30.8,1.6,31,1.5,31.3,1.5z"/>
		<path class="st0" d="M40.5,0.4c0.3,0,0.5,0.2,0.5,0.5c0,0.2,0,0.4-0.1,0.7c-0.5,0.8-1.1,1.6-1.8,2.4c0.1,0.1,0.2,0.4,0.2,0.8
			c-0.1,1.3-0.1,2.5-0.1,3.6l0.1,7.4c0,1-0.2,1.5-0.7,1.5c-0.4,0-0.6-0.5-0.6-1.5c0-3.2,0.1-5.6,0.1-7.4c0-1,0-2.1-0.1-3.3
			c-0.2,0.2-0.3,0.4-0.5,0.5C37,6,36.6,6.3,36.3,6.3c-0.3,0-0.6-0.2-0.9-0.5c-0.3-0.3-0.5-0.6-0.5-0.9c0-0.2,0.1-0.3,0.4-0.4
			c0.9-0.3,1.8-0.7,2.5-1.4c0.8-0.6,1.6-1.5,2.3-2.6C40.3,0.4,40.4,0.4,40.5,0.4z M42.3,4.3h3.4c0-0.9,0-1.9-0.1-3
			c0-0.6,0.2-0.9,0.6-0.9s0.6,0.3,0.6,0.9c0,1.1,0,2.1-0.1,3h4.3c0.2,0,0.3,0.1,0.3,0.3c0,0.3-0.1,0.6-0.2,0.8
			c-0.2,0.2-0.4,0.3-0.7,0.3c-0.2,0-0.7-0.1-1.6-0.2c-0.7,0-1.4,0-2.1,0c0.2,0.1,0.4,0.4,0.7,0.8c2.3,2.9,3.8,4.5,4.4,4.9
			c0.4,0.2,0.8,0.4,1.3,0.5c0.3,0,0.4,0.1,0.4,0.4c0,0.3-0.2,0.6-0.6,0.9c-0.4,0.3-0.8,0.5-1.3,0.5c-0.3,0-0.6-0.1-0.9-0.4
			C50,11.4,49,9.8,47.8,8.1c-0.3-0.5-0.7-0.8-0.9-1.1l0.1,5.7h2.6c0.1,0,0.2,0.1,0.2,0.2c0,0.3-0.1,0.5-0.2,0.7
			c-0.2,0.2-0.4,0.3-0.7,0.3c-0.1,0-0.5,0-1-0.1c-0.3,0-0.6,0-1,0l0,1.9c0,1-0.2,1.5-0.7,1.5c-0.4,0-0.6-0.5-0.6-1.5
			c0-0.7,0-1.3,0-1.9c-0.8,0-1.5,0-1.9,0.1c-0.3,0.1-0.5,0.1-0.5,0.1c-0.4,0-0.5-0.2-0.6-0.6c0-0.2,0.1-0.4,0.3-0.6
			c0.2-0.1,0.4-0.2,0.7-0.2h2c0-2.2,0-4.1,0-5.6c-0.8,1.8-1.5,3.1-2,3.7c-0.7,1-1.5,1.8-2.4,2.4c-0.2,0.2-0.4,0.3-0.6,0.3
			c-0.4,0-0.7-0.1-0.9-0.4c-0.2-0.2-0.3-0.5-0.3-0.8c0-0.2,0.1-0.3,0.3-0.3c1-0.3,1.7-0.7,2.3-1.2c0.5-0.4,1-1,1.5-1.8
			c0.5-0.8,1.1-1.9,1.8-3.5c-1.2,0-2.1,0.1-2.7,0.2c-0.4,0.1-0.7,0.2-0.8,0.2c-0.4,0-0.7-0.3-0.7-0.7c0-0.2,0.1-0.4,0.3-0.6
			C41.7,4.4,42,4.3,42.3,4.3z"/>
		<path class="st0" d="M56,12.8c0.3,0,0.5,0.1,0.7,0.1c0.3,0,0.7-0.2,1.2-0.5c0.1,0,0.2,0.1,0.2,0.3c0,0.2-0.2,0.5-0.5,1.1
			c-0.3,0.5-0.6,0.8-0.9,0.8c-0.2,0-0.4-0.1-0.5-0.4c-0.2-0.3-0.3-0.7-0.3-1.1C55.9,12.9,55.9,12.8,56,12.8z M58.4,0.7h6.4
			c0.2,0,0.3,0.1,0.3,0.2c0,0.3-0.1,0.6-0.2,0.9c-0.2,0.2-0.4,0.4-0.7,0.4c-0.1,0-0.5-0.1-1.1-0.2c-0.4,0-0.9,0-1.4,0l0,1.7h2.2
			c0.2,0,0.2,0.1,0.2,0.4c0,0.2-0.1,0.3-0.2,0.5c-0.1,0.2-0.3,0.3-0.5,0.3c-0.4-0.1-1-0.1-1.8-0.2l0,1.8h2.3c0.2,0,0.2,0.1,0.2,0.4
			c0,0.2-0.1,0.3-0.2,0.5c-0.1,0.2-0.3,0.3-0.5,0.3c-0.4-0.1-1.1-0.1-1.8-0.2l0,1.7c0.6,0,1.3,0.1,2.2,0.2c0.2,0,0.4,0,0.6-0.1
			c0.4,0,0.6,0.2,0.6,0.7c0,0.2,0,0.4-0.1,0.7c-0.1,0.6-0.2,1.7-0.3,3.4c-0.1,1.2-0.4,2.1-1,2.7c-0.4,0.4-0.8,0.6-1.2,0.6
			c-0.2,0-0.5-0.1-0.8-0.3c-0.2-0.2-0.3-0.5-0.4-0.7c0-0.2,0.1-0.4,0.2-0.5c0.9-0.3,1.5-1,1.8-2.1c0.2-0.9,0.4-2,0.4-3.1
			c0-0.2-0.1-0.3-0.4-0.3c-0.4-0.1-1.1-0.1-1.9-0.1c-0.7,0-1.4,0-2,0.1c-0.6,0.1-1.1,0.2-1.5,0.3c-0.2,0.1-0.4,0.2-0.6,0.2
			c-0.3,0-0.5-0.3-0.5-0.7c0-0.3,0-0.7,0.1-1.4c0.1-1.2,0.1-2.2,0.1-3s0-1.8-0.1-3c-0.1-0.7-0.1-1.1-0.1-1.3c0-0.4,0.2-0.6,0.6-0.6
			c0.2,0,0.4,0.1,0.5,0.2C58,0.8,58.2,0.7,58.4,0.7z M58,7.6c0,0.4,0,0.9,0,1.3c0,0.1,0.1,0.2,0.2,0.2C59,9,59.7,9,60.5,9l0-1.7
			c-0.1,0-0.3,0-0.4,0c-0.4,0-1.1,0.1-1.8,0.3C58.1,7.6,58.1,7.6,58,7.6z M58.1,4.8c0,0.5,0,1.1,0,1.7c0.1,0,0.2-0.1,0.3-0.1h2.1
			l0-1.9c-0.1,0-0.3,0-0.4,0c-0.4,0-1.1,0.1-1.8,0.3C58.2,4.8,58.1,4.8,58.1,4.8z M58.1,2.1c0,0.5,0,1,0,1.5c0.1,0,0.1,0,0.2,0h2.1
			V1.9C59.6,1.9,59,2,58.5,2C58.4,2.1,58.2,2.1,58.1,2.1z M59.2,12.1c0.3,0,0.5,0.2,0.5,0.6L59.4,14c0,0.2-0.1,0.3-0.2,0.3
			c-0.2,0-0.3-0.1-0.3-0.4l-0.2-1.4C58.7,12.3,58.8,12.1,59.2,12.1z M60.7,12.1c0.3,0,0.5,0.2,0.5,0.6L60.9,14
			c0,0.2-0.1,0.3-0.2,0.3c-0.2,0-0.3-0.1-0.3-0.3l-0.1-1.3C60.2,12.3,60.3,12.1,60.7,12.1z M61.9,11.8c0.1,0,0.1,0,0.2,0.1
			c0.2,0.3,0.4,0.5,0.7,0.7c0.2,0,0.3,0.1,0.3,0.3c0,0.2-0.1,0.4-0.2,0.6c-0.1,0.1-0.3,0.2-0.6,0.2c-0.1,0-0.2-0.2-0.4-0.7
			c-0.1-0.4-0.2-0.7-0.2-0.8C61.7,11.9,61.8,11.8,61.9,11.8z M69.4,0.4c0.3,0,0.5,0.2,0.5,0.6c0,0,0,0,0,0c0.1,0.1,0.3,0.2,0.5,0.4
			c1.8,1.5,2.9,2.4,3.4,2.6c0.3,0.1,0.6,0.2,1,0.2c0.2,0,0.3,0.1,0.3,0.4c0,0.3-0.2,0.6-0.6,0.9c-0.4,0.3-0.8,0.4-1.2,0.4
			c-0.3,0-0.6-0.1-0.8-0.4c-0.6-0.9-1.3-1.9-2.1-2.9c-0.3-0.4-0.6-0.6-0.8-0.8c-0.7,1.1-1.2,1.9-1.7,2.3c-0.6,0.6-1.2,1.1-1.9,1.4
			c-0.2,0.1-0.3,0.2-0.5,0.2c-0.4,0-0.7-0.1-0.9-0.4c-0.2-0.2-0.3-0.4-0.3-0.7c0-0.2,0.1-0.3,0.2-0.3c0.8-0.2,1.4-0.4,1.9-0.7
			c0.4-0.2,0.8-0.6,1.2-1C68,2.2,68.5,1.5,69,0.5C69.1,0.4,69.2,0.4,69.4,0.4z M67.4,5.3l0.7,0.1c1.9,0,3.1,0,3.8-0.1
			c0.2,0,0.2,0.1,0.2,0.4c0,0.2-0.1,0.3-0.2,0.5c-0.2,0.2-0.4,0.3-0.6,0.3c-0.3-0.1-0.8-0.2-1.4-0.2c0,0.1,0,0.2,0,0.4
			c0,0.7,0,1.3,0,1.8H70c0.6,0,1.3,0,2.1,0.1c0.2,0,0.4,0,0.6-0.1c0.4,0,0.6,0.2,0.6,0.6c0,0,0,0.1,0,0.1c-0.1,0.1-0.1,0.4-0.1,0.7
			c0,0.4-0.1,0.9-0.1,1.4c0,0.3,0,0.6,0.1,1.1c0,0.4-0.2,0.6-0.5,0.6c-1.1-0.1-2.1-0.2-3-0.2c-0.2,1.2-0.5,2.1-0.9,2.7
			c-0.7,1-1.4,1.5-2.1,1.5c-0.3,0-0.6-0.2-0.9-0.6c-0.2-0.3-0.3-0.5-0.3-0.7c0-0.2,0.1-0.3,0.4-0.3c1-0.1,1.8-0.6,2.4-1.6
			c0.1-0.2,0.3-0.6,0.4-1c-0.8,0-1.4,0-1.7,0.1c-0.3,0-0.6,0.1-1,0.2c-0.3,0-0.5-0.2-0.5-0.6c0.1-0.7,0.2-1.3,0.2-1.8
			c0-0.4-0.1-1-0.2-1.6c0-0.4,0.2-0.6,0.6-0.6c0.2,0,0.3,0,0.5,0s0.4,0,0.8,0h1.5c0-0.6-0.1-1.3-0.1-2c0-0.1,0-0.1,0-0.2
			c-0.4,0-0.9,0.1-1.5,0.3c-0.4,0-0.6-0.2-0.6-0.5c0-0.2,0.1-0.4,0.2-0.6C67,5.3,67.2,5.3,67.4,5.3z M68.8,11.9
			c0.1-0.6,0.1-1.3,0.1-2.2c0-0.1,0-0.2,0-0.3c-0.5,0-1.1,0-1.7,0c-0.2,0-0.3,0.1-0.3,0.4c0,0.6-0.1,1.2-0.2,1.7
			c0,0.3,0.1,0.5,0.4,0.5C67.5,12,68.1,11.9,68.8,11.9z M69.9,9.5c0,0.3,0,0.5,0,0.7c0,0.6,0,1.2-0.1,1.7c0.6,0,1.3,0,2,0.1
			c0.2,0,0.3-0.1,0.3-0.4V9.8c0-0.1-0.1-0.2-0.2-0.2C71.4,9.5,70.7,9.5,69.9,9.5z M71,14.2c0,0,0,0,0.1,0c0.6,0.5,1,0.8,1.4,1
			c0.2,0.1,0.6,0.2,1,0.2c0.2,0,0.2,0.1,0.2,0.3c0,0.3-0.1,0.5-0.4,0.7c-0.5,0.4-0.9,0.6-1.2,0.6c-0.1,0-0.2-0.1-0.2-0.2
			c-0.1-0.2-0.5-0.9-1.1-2.1c0-0.1-0.1-0.2-0.1-0.2C70.8,14.3,70.9,14.2,71,14.2z"/>
		<path class="st0" d="M91,13.6c-0.1,0.3-0.3,0.7-0.7,1.2c-0.4,0.6-0.7,0.8-1,0.8c-0.5,0-1.4-0.6-2.9-1.9c-1.3,1.3-2.7,1.9-4.1,1.9
			c-1.1,0-2.1-0.3-2.9-0.9c-1-0.7-1.5-1.6-1.5-2.8c0-0.9,0.4-1.8,1.3-2.6c0.5-0.4,1.2-1,2.3-1.6c-0.6-1.1-0.9-2.2-0.9-3.2
			c0-0.9,0.3-1.6,0.9-2.1c0.5-0.4,1.1-0.7,2-0.7c0.8,0,1.4,0.2,1.9,0.6c0.6,0.5,0.9,1.2,0.9,2c0,1.3-1,2.6-2.9,3.8
			c1,1.5,2.1,2.6,3,3.5c0.3-0.6,0.6-1.2,0.9-1.8c0.4-0.8,0.7-1.1,1-1.1c0.5,0,0.8,0.2,0.8,0.7c0,0.3-0.2,0.8-0.7,1.6
			c-0.4,0.6-0.7,1.1-1,1.4c0.7,0.6,1.7,1,3.1,1C90.9,13.3,90.9,13.4,91,13.6z M85.4,12.7c-1-1-2-2.2-3.1-3.9
			c-0.8,0.5-1.4,0.9-1.7,1.2c-0.7,0.6-1,1.2-1,1.9c0,0.7,0.3,1.2,0.9,1.6c0.5,0.4,1.1,0.5,1.7,0.5C83.3,14.1,84.4,13.6,85.4,12.7z
			 M85.3,4.3c0-0.5-0.2-0.9-0.6-1.2c-0.3-0.3-0.7-0.4-1.2-0.4c-0.4,0-0.8,0.2-1.2,0.5c-0.3,0.3-0.5,0.8-0.5,1.3
			c0,0.6,0.3,1.4,0.9,2.5C84.4,6.2,85.3,5.3,85.3,4.3z"/>
		<path class="st0" d="M96,5.3h1.7l0-3.9c0-0.6,0.2-0.8,0.6-0.8c0.5,0,0.8,0.3,0.8,0.8L99,5.3h2.1c0.1,0,0.2,0.1,0.2,0.3
			c0,0.2-0.1,0.5-0.2,0.6c-0.2,0.2-0.4,0.3-0.7,0.3c-0.1,0-0.4,0-0.9-0.1c-0.2,0-0.4,0-0.6,0L98.9,11c0.9-0.2,1.7-0.4,2.2-0.5
			c0.2,0,0.3,0.1,0.3,0.4c0,0.4-0.1,0.6-0.4,0.7c-1.9,0.6-3.7,1.3-5.3,2.1c-0.4,0-0.6-0.2-0.6-0.6c0-0.4,0.1-0.6,0.2-0.8
			c0.1-0.2,0.2-0.3,0.5-0.4c0.8-0.2,1.4-0.4,2.1-0.6l0-4.9c-0.7,0-1.3,0.1-1.6,0.2c-0.3,0.1-0.4,0.2-0.5,0.2c-0.4,0-0.6-0.2-0.6-0.6
			c0-0.2,0.1-0.4,0.3-0.6C95.4,5.3,95.7,5.3,96,5.3z M111.4,4.8c0.4,0,0.6,0.3,0.6,0.8c0,0.1-0.1,0.3-0.2,0.5
			c-0.3,0.7-0.7,1.9-1.3,3.8c-0.1,0.4-0.3,0.6-0.6,0.6c-0.3,0-0.5-0.2-0.5-0.5c0.1-0.7,0.4-1.8,0.9-3.4c0-0.1-0.1-0.2-0.3-0.2
			c-0.2,0-0.5,0-0.9,0.1c-0.5,0.1-1,0.2-1.5,0.3l0,3.7c0,0.9-0.2,1.4-0.6,1.4c-0.4,0-0.6-0.5-0.6-1.4c0-1.3,0-2.4,0-3.4
			c-0.8,0.2-1.5,0.4-2.1,0.6c0,1.7-0.1,3.7-0.1,5.8c0,0.4,0.2,0.6,0.5,0.7c0.7,0.1,2.3,0.1,5,0.1c1.3,0,2.4-0.2,3.4-0.6
			c0.1,0,0.2,0.2,0.2,0.5c0,0.4-0.1,0.9-0.3,1.4c-0.2,0.6-0.5,0.9-0.7,0.9c-0.3,0-3.1-0.3-8.2-0.9c-0.8-0.1-1.2-0.5-1.2-1.1
			c0.1-2.6,0.1-4.6,0.1-6c0-0.1,0-0.3,0-0.4c-0.4,0.2-0.8,0.4-1.3,0.6c-0.5,0-0.7-0.2-0.7-0.6c0-0.3,0.1-0.5,0.2-0.8
			c0.1-0.2,0.3-0.3,0.6-0.3c0.4-0.1,0.9-0.2,1.3-0.4c0-1,0-2.1-0.1-3.2c0-0.4,0.2-0.6,0.6-0.6c0.5,0,0.7,0.3,0.7,0.8
			c0,0.8,0,1.7,0,2.7c0.7-0.2,1.4-0.4,2.1-0.5c0-0.6,0-1.1,0-1.6c0-0.9,0-2-0.1-3.1c0-0.6,0.2-0.8,0.6-0.8c0.4,0,0.6,0.3,0.6,0.8
			c-0.1,1.2-0.1,2.2-0.1,3.1l0,1.4c0.8-0.2,1.6-0.3,2.3-0.4c0.4-0.1,0.7-0.2,1-0.3C111,4.8,111.2,4.8,111.4,4.8z"/>
		<path class="st0" d="M116.9,5.4h1.7l-0.1-3.3c0-0.6,0.2-0.8,0.6-0.8c0.5,0,0.8,0.3,0.8,0.8l0,3.3h1.9c0.1,0,0.2,0.1,0.2,0.3
			c0,0.3-0.1,0.5-0.2,0.7c-0.2,0.2-0.4,0.3-0.7,0.3c-0.1,0-0.4,0-0.8-0.1c-0.1,0-0.3,0-0.4,0l-0.1,4.2c0.8-0.3,1.4-0.4,1.8-0.5
			c0.2,0,0.2,0.1,0.2,0.4c0,0.3-0.1,0.5-0.3,0.6c-1.7,0.7-3.4,1.6-4.9,2.5c-0.4,0-0.6-0.2-0.6-0.6c0-0.3,0.1-0.6,0.2-0.7
			c0.1-0.2,0.2-0.4,0.4-0.5c0.7-0.3,1.4-0.5,2-0.8l-0.1-4.6c-0.8,0-1.3,0.1-1.7,0.2c-0.2,0.1-0.4,0.2-0.5,0.2
			c-0.4,0-0.6-0.2-0.6-0.6c0-0.2,0.1-0.4,0.3-0.6C116.3,5.5,116.6,5.4,116.9,5.4z M127.4,11.7c0.1,0,0.2,0.1,0.2,0.4
			c0,0.3-0.1,0.5-0.3,0.6c-1.7,0.6-3.3,1.3-4.8,2.1c-0.4,0-0.6-0.2-0.6-0.6c0-0.3,0.1-0.6,0.2-0.7c0.1-0.2,0.2-0.3,0.4-0.4
			C124.8,12.3,126.5,11.9,127.4,11.7z M123.2,3.4h5.1c0-0.9,0-1.8,0-2.6c0-0.4,0.2-0.6,0.6-0.6c0.4,0,0.5,0.2,0.6,0.6
			c0,0.9-0.1,1.8-0.1,2.6h3.8c0.2,0,0.3,0.1,0.3,0.3c0,0.3-0.1,0.6-0.2,0.8c-0.2,0.2-0.4,0.3-0.7,0.3c-0.2,0-0.8-0.1-1.8-0.2
			c-0.4,0-0.9,0-1.4,0c0,1.1,0.1,2.3,0.3,3.4c0.2,1.2,0.4,2.2,0.7,3.1c0.5-1,0.9-2.1,1.2-3.5c0-0.2,0.2-0.3,0.4-0.3
			c0.4,0,0.6,0.2,0.6,0.6c0,0-0.1,0.1-0.1,0.3c-0.3,1.2-0.8,2.5-1.5,4.1c0,0,0,0,0,0c0.1,0.2,0.2,0.4,0.3,0.5
			c0.7,1.2,1.6,1.9,2.6,2.3c0.2,0.1,0.3,0.3,0.3,0.5c0,0.2-0.2,0.5-0.5,0.8c-0.3,0.3-0.6,0.4-0.9,0.4c-0.2,0-0.5-0.1-0.8-0.4
			c-0.7-0.6-1.3-1.5-1.8-2.8c-0.5,0.7-1,1.3-1.6,1.8c-0.6,0.5-1,0.8-1.4,0.8c-0.2,0-0.4-0.1-0.7-0.3c-0.3-0.3-0.5-0.7-0.5-1
			c0-0.2,0.2-0.4,0.7-0.5c1-0.2,2-0.9,2.9-2c-0.1-0.2-0.1-0.3-0.2-0.5c-0.6-1.9-0.9-4-1-6.2c0-0.4,0-0.8,0-1.2c-0.2,0-0.5,0-0.8,0
			c-1.8,0-3.1,0.1-3.9,0.2c-0.4,0.1-0.7,0.2-0.9,0.2c-0.4,0-0.6-0.2-0.6-0.6c0-0.2,0.1-0.4,0.3-0.6C122.7,3.4,122.9,3.4,123.2,3.4z
			 M123.2,6.5c0.2,0,0.4,0,0.5,0s0.4,0,0.8,0h0.9c0.2,0,0.4,0,0.7,0.1c0.2,0,0.4,0,0.6-0.1c0.4,0,0.6,0.2,0.6,0.6c0,0,0,0,0,0.1
			c-0.1,0.1-0.1,0.3-0.1,0.6c0,0.4-0.1,0.8-0.1,1.3c0,0.2,0,0.5,0.1,1c0,0.4-0.2,0.6-0.5,0.6c-0.6-0.1-1.2-0.2-1.7-0.2
			c-0.7,0-1.1,0-1.2,0.1c-0.1,0-0.3,0.1-0.5,0.2c-0.3,0-0.5-0.2-0.5-0.6c0.1-0.7,0.2-1.2,0.2-1.7c0-0.4-0.1-0.9-0.2-1.5
			C122.7,6.7,122.9,6.5,123.2,6.5z M124.9,9.8c0.3,0,0.6,0,0.9,0.1c0.2,0,0.3-0.1,0.3-0.4V7.9c0-0.1-0.1-0.2-0.2-0.2
			c-0.4-0.1-0.9-0.1-1.7-0.1c-0.2,0-0.3,0.1-0.3,0.4c0,0.5-0.1,1-0.2,1.4c0,0.3,0.1,0.5,0.4,0.5C124.4,9.8,124.6,9.8,124.9,9.8z
			 M132.2,0.5c0.4,0,0.6,0.2,0.6,0.6c0,0.3,0,0.5-0.1,0.6c-0.9,0.7-1.4,1.1-1.4,1.1c-0.2,0-0.3-0.1-0.3-0.3c0-0.1,0.2-0.6,0.7-1.6
			C131.7,0.6,131.9,0.5,132.2,0.5z"/>
		<path class="st0" d="M147.9,7.3c0.4,0,0.6,0.2,0.6,0.6c-0.1,0-0.1,0.1-0.2,0.3c-0.4,0.8-0.9,1.6-1.5,2.5c0.1,0.1,0.2,0.2,0.3,0.3
			c1.9,1.5,3.4,2.5,4.6,3.1c1,0.5,1.8,0.7,2.4,0.7c0.1,0,0.2,0.1,0.2,0.2c0,0.5-0.2,1-0.7,1.6c-0.3,0.3-0.6,0.5-0.9,0.5
			c-0.3,0-0.6-0.1-0.9-0.3c-0.4-0.3-1.6-1.2-3.3-2.9c-1-0.9-1.8-1.7-2.5-2.3c-0.2,0.3-0.4,0.5-0.6,0.8c-1.4,1.5-3,2.6-4.5,3.3
			c-1.1,0.6-1.9,0.8-2.6,0.8c-0.2,0-0.5-0.1-0.7-0.3c-0.3-0.4-0.5-0.7-0.5-1.1c0-0.2,0.2-0.4,0.7-0.5c2.1-0.2,4-1,5.7-2.2
			c0.6-0.5,1.2-1,1.8-1.6c-0.3-0.3-0.6-0.5-0.8-0.6c-0.6-0.4-1.2-0.7-1.8-0.9c-0.4-0.1-0.6-0.3-0.6-0.7c0-0.5,0.2-0.7,0.6-0.8
			c0.2,0,0.4,0.1,0.7,0.4c1,0.6,1.8,1.2,2.6,1.8c0.6-0.8,1.1-1.6,1.4-2.5C147.4,7.4,147.6,7.3,147.9,7.3z M145.5,0.2
			c0.5,0,0.7,0.3,0.7,0.8c-0.1,0.7-0.2,1.2-0.2,1.8h6.5c0.2,0,0.3,0.1,0.3,0.3c0,0.3-0.1,0.6-0.2,0.8c-0.2,0.2-0.4,0.3-0.7,0.3
			c-0.3,0-1.1,0-2.4-0.1c-1.3,0-2.7,0-4.3,0c-2.3,0-4,0.1-5.1,0.2c-0.6,0.1-1,0.2-1.2,0.2c-0.4,0-0.7-0.3-0.7-0.7
			c0-0.2,0.1-0.5,0.3-0.6c0.2-0.1,0.4-0.2,0.8-0.2h5.6c0-0.6-0.1-1.2-0.2-1.7C144.7,0.5,145,0.2,145.5,0.2z M139.6,5.9
			c0.3,0.1,0.6,0.1,0.7,0.1c0.6,0,1.4-0.3,2.4-0.9c0.2,0,0.2,0.1,0.2,0.3c0,0.3-0.3,0.7-1,1.5c-0.6,0.8-1.2,1.2-1.7,1.2
			c-0.3,0-0.5-0.1-0.7-0.4c-0.2-0.4-0.3-0.8-0.3-1.2C139.3,6,139.4,5.9,139.6,5.9z M148.6,5c0,0,0.1,0,0.1,0.1
			c0.7,0.5,1.2,0.9,1.7,1.1c0.3,0.1,0.7,0.2,1.2,0.2c0.1,0,0.2,0.1,0.2,0.3c0,0.3-0.1,0.5-0.4,0.7c-0.5,0.4-0.9,0.6-1.2,0.6
			c-0.1,0-0.2-0.1-0.3-0.2c-0.2-0.2-0.7-1-1.4-2.3c-0.1-0.1-0.1-0.2-0.1-0.3C148.3,5.1,148.4,5,148.6,5z"/>
		<path class="st0" d="M160.7,7c0.2,0,0.3,0.1,0.3,0.3c0,0.3-0.1,0.5-0.2,0.6l-3.8,1.4c-0.5,0-0.7-0.2-0.7-0.7c0-0.6,0.2-1,0.6-1
			L160.7,7z M158.7,0.4c0.1,0,0.2,0.1,0.5,0.2c0.6,0.6,1.3,1.2,2.1,1.9c0.1,0.1,0.1,0.2,0.1,0.3c0,0.3-0.1,0.4-0.4,0.4
			c-0.1,0-0.2,0-0.4-0.1c-1.2-0.5-1.9-0.8-2.2-0.9c-0.4-0.3-0.6-0.6-0.6-1C157.9,0.6,158.1,0.4,158.7,0.4z M161.1,12.8
			c0.2,0,0.3,0.1,0.3,0.4c0,0.2-0.1,0.4-0.2,0.6c-1.4,1.8-2.3,2.7-2.5,2.7c-0.6,0-0.9-0.2-0.9-0.6c0-0.5,0.1-0.9,0.3-1
			C158.3,14.8,159.2,14.1,161.1,12.8z M164.7,9.8c0.5,0,0.7,0.2,0.7,0.7c-0.1,0.4-0.1,0.9-0.1,1.5c0,0.8-0.2,1.6-0.4,2.2
			c-0.3,0.8-0.6,1.4-1,1.8c-0.5,0.6-1,0.9-1.4,0.9c-0.2,0-0.4-0.1-0.6-0.3c-0.3-0.4-0.5-0.7-0.5-1.1c0-0.1,0.1-0.2,0.2-0.2
			c0.5-0.1,0.8-0.2,1.1-0.4c0.5-0.2,0.9-0.7,1.2-1.4c0.2-0.6,0.3-1.2,0.3-2v-1C164.2,10,164.4,9.8,164.7,9.8z M167.7,0.2
			c0.5,0,0.7,0.3,0.7,0.8c-0.1,0.5-0.2,1-0.2,1.5h5.1c0.2,0,0.3,0.1,0.3,0.3c0,0.3-0.1,0.6-0.2,0.8c-0.2,0.2-0.4,0.3-0.7,0.3
			c-0.2,0-0.8-0.1-1.8-0.2c-1,0-2.1-0.1-3.2-0.1c-0.4,0-0.7,0-1,0c0.4,0,0.5,0.3,0.5,0.7c0,0.1,0,0.1-0.1,0.2
			c-0.5,0.8-0.9,1.3-1.1,1.8c-0.2,0.3-0.5,0.7-0.9,1.1c0,0.1,0.1,0.2,0.3,0.2h4.9c0.2,0,0.3-0.1,0.3-0.3c0,0,0-0.1,0-0.1
			c-0.3-0.5-0.7-1.1-1.1-1.7c-0.1-0.1-0.1-0.1-0.1-0.2c0-0.4,0.2-0.7,0.6-0.7c0.1,0,0.2,0.1,0.3,0.2c0.5,0.8,1.2,1.8,1.9,3
			c0.1,0.1,0.1,0.3,0.1,0.4c0,0.4-0.2,0.6-0.5,0.6h-6.1c-0.4,0-0.9,0-1.5,0.1c-0.5,0-0.7-0.2-0.7-0.6c0-0.2,0.1-0.5,0.2-0.7
			c0.2-0.2,0.4-0.4,0.6-0.6c0.3-0.3,0.6-0.7,0.9-1.1c0.3-0.5,0.6-1.1,1-1.8c0.1-0.3,0.2-0.4,0.4-0.5c-1.2,0-2.1,0.1-2.7,0.2
			C163.2,4,162.9,4,162.8,4c-0.4,0-0.6-0.2-0.7-0.6c0-0.2,0.1-0.4,0.3-0.6c0.2-0.1,0.4-0.2,0.7-0.2h4c0-0.5-0.1-1-0.2-1.4
			C167,0.5,167.2,0.2,167.7,0.2z M167.6,9.8c0.4,0,0.6,0.3,0.6,0.9c-0.1,0.7-0.1,1.2-0.1,1.8l0.1,3c0,0.9-0.2,1.4-0.6,1.4
			c-0.4,0-0.6-0.5-0.6-1.4c0-1.3,0.1-2.3,0.1-3c0-0.5,0-1.1-0.1-1.8C167,10.1,167.2,9.8,167.6,9.8z M170.5,9.8
			c0.4,0,0.6,0.3,0.6,0.9c0,0.8,0,1.9-0.1,3.4c0,0.2,0.2,0.4,0.5,0.5c0.4,0.1,0.8,0.2,1.2,0.2c0.4,0,1-0.1,1.8-0.4
			c0.2,0,0.2,0.1,0.2,0.4c0,0.4-0.1,0.9-0.4,1.4c-0.3,0.6-0.6,0.9-0.8,0.9c-0.1,0-0.5-0.1-1-0.3c-0.6-0.2-1.2-0.5-1.9-0.9
			c-0.4-0.2-0.7-0.6-0.7-1.2c0.1-0.8,0.2-1.5,0.2-2.3c0-0.5-0.1-1.1-0.2-1.9C169.8,10.1,170,9.8,170.5,9.8z"/>
		<path class="st0" d="M183.8,15.8c0,0.4-0.1,0.8-0.4,1.1c-0.3,0.3-0.6,0.4-1,0.4c-0.4,0-0.7-0.1-0.9-0.4c-0.2-0.3-0.4-0.6-0.4-1.1
			c0-0.9,0.4-1.4,1.3-1.4c0.4,0,0.7,0.1,1,0.4C183.6,15,183.8,15.3,183.8,15.8z M183.3,2.8c-0.1,0.5-0.2,2.1-0.2,4.9
			c0,2.4,0,3.8,0.1,4c0,0.7-0.3,1-0.9,1c-0.6,0-0.9-0.3-0.9-1c0-0.5,0-1.1,0.1-2c0.1-0.9,0.1-1.6,0.1-2c0-0.5,0-1.3-0.1-2.4
			c-0.1-1.1-0.1-1.9-0.1-2.5c0-0.7,0.3-1.1,0.9-1.1C183,1.8,183.3,2.1,183.3,2.8z"/>
	</g>
</g>
</svg>
