<?xml version="1.0" encoding="utf-8"?>
<!-- Generator: Adobe Illustrator 24.0.3, SVG Export Plug-In . SVG Version: 6.00 Build 0)  -->
<svg version="1.1" id="レイヤー_1" xmlns="http://www.w3.org/2000/svg" xmlns:xlink="http://www.w3.org/1999/xlink" x="0px"
	 y="0px" viewBox="0 0 313.8 18" style="enable-background:new 0 0 313.8 18;" xml:space="preserve">
<style type="text/css">
	.st0{fill:#503819;}
</style>
<g>
	<g>
		<path class="st0" d="M-600.8,8.3c0.2,0,0.3,0.1,0.3,0.3c0,0.3-0.1,0.5-0.2,0.6l-3.7,1.6c-0.5,0-0.7-0.2-0.7-0.7c0-0.6,0.2-1,0.6-1
			L-600.8,8.3z M-603,1.3c0.1,0,0.2,0.1,0.5,0.2c0.6,0.6,1.4,1.3,2.3,2c0.1,0.1,0.2,0.2,0.2,0.3c0,0.3-0.1,0.4-0.4,0.4
			c-0.1,0-0.2,0-0.4-0.1c-1.3-0.6-2.1-0.9-2.4-1.1c-0.4-0.3-0.6-0.6-0.6-1C-603.8,1.5-603.5,1.3-603,1.3z M-600.4,13.8
			c0.2,0,0.3,0.1,0.3,0.4c0,0.2-0.1,0.4-0.2,0.6c-1.3,1.8-2.1,2.6-2.3,2.6c-0.6,0-0.9-0.2-0.9-0.6c0-0.5,0.1-0.9,0.3-1
			C-603.1,15.7-602.2,15-600.4,13.8z M-590,1.5c0.3,0,0.4,0.1,0.4,0.4c0,0.3-0.1,0.5-0.3,0.6c-1.2,0.4-2.3,0.8-3.2,1.1l0,3.4
			c0.6,0,1.3,0,2.1,0.1c0.8,0,1.6,0.1,2.2,0.1c0.4,0,0.9-0.1,1.4-0.2c0.1,0,0.2,0.2,0.2,0.5c0,0.5-0.2,1-0.5,1.6
			c-0.2,0.4-0.4,0.6-0.6,0.6c-0.3,0-0.6-0.1-1-0.4c-0.6-0.4-1.3-0.6-2-0.8c-0.6-0.1-1.2-0.2-1.8-0.2l0,3.5h0c0.6,0,1.2,0,2,0.1
			c0.2,0,0.4-0.1,0.7-0.2c0.4,0,0.6,0.2,0.6,0.7c0,0,0,0.1,0,0.2c-0.1,0.2-0.1,0.5-0.1,0.9c0,0.6-0.1,1.2-0.1,1.8
			c0,0.4,0,0.9,0.1,1.6c0,0.5-0.2,0.8-0.6,0.8c-1.2-0.1-2.4-0.2-3.3-0.2c-1.2,0-1.9,0-2.2,0c-0.3,0-0.6,0.1-1,0.1
			c-0.4,0-0.6-0.2-0.6-0.7c0.1-0.9,0.2-1.7,0.2-2.4c0-0.6-0.1-1.4-0.2-2.4c0-0.4,0.2-0.6,0.6-0.6c0.2,0,0.4,0,0.6,0.1
			c0.2,0.1,0.5,0.1,0.9,0.1h1.3l0-3.5c-0.8,0-1.5,0.1-2.2,0.2c-0.5,0.1-1.3,0.4-2.3,1c-0.5,0-0.7-0.2-0.7-0.6c0-0.3,0.1-0.5,0.3-0.7
			c0.2-0.3,0.6-0.5,1-0.5c1.6-0.3,3-0.4,3.9-0.5l0-3c-0.3,0.1-0.7,0.2-1,0.2c-1,0.2-1.6,0.3-1.9,0.3c-0.4,0-0.7-0.2-1-0.5
			c-0.2-0.2-0.3-0.5-0.3-0.8c0-0.2,0.1-0.3,0.3-0.3c1.9,0,3.4-0.2,4.7-0.5c1.2-0.2,2.3-0.5,3.1-0.8C-590.2,1.5-590.1,1.5-590,1.5z
			 M-593.9,16.1c0.7,0,1.6,0,2.5,0.1c0.2,0,0.3-0.1,0.3-0.3v-3c0-0.2,0-0.3-0.1-0.3c-1.1,0-2.6-0.1-4.6-0.1c-0.3,0-0.4,0.2-0.4,0.5
			c0,1,0,1.9-0.1,2.8c0,0.3,0.2,0.4,0.5,0.4C-595.3,16.1-594.7,16.1-593.9,16.1z"/>
		<path class="st0" d="M-576.5,1.1c0.3,0,0.4,0.2,0.4,0.5c0,0.3-0.1,0.5-0.3,0.6c-1.1,0.3-2,0.5-2.9,0.6v1.4h3.6
			c0.2,0,0.3,0.1,0.3,0.3c0,0.3-0.1,0.6-0.2,0.8c-0.2,0.2-0.4,0.3-0.7,0.3c-0.2,0-0.7-0.1-1.5-0.2c-0.5,0-1-0.1-1.5-0.1v1.1
			c0.6,0,1.2,0,2,0.1c0.2,0,0.4,0,0.7-0.1c0.4,0,0.6,0.2,0.6,0.6c0,0,0,0.1-0.1,0.1c-0.1,0.2-0.1,0.4-0.1,0.8c0,0.5-0.1,1.1-0.1,1.7
			c0,0.4,0,0.9,0.1,1.5c0,0.4-0.2,0.6-0.6,0.6c-0.9-0.1-1.8-0.2-2.6-0.2l0,1.1h2.8c0.1,0,0.2,0.1,0.2,0.3c0,0.3-0.1,0.5-0.2,0.6
			c-0.2,0.2-0.4,0.3-0.7,0.3c-0.1,0-0.5,0-1.1-0.1c-0.3,0-0.7,0-1.1,0V15c1.2-0.2,2.1-0.3,2.8-0.4c0.2,0,0.2,0.1,0.2,0.4
			c0,0.3-0.1,0.5-0.3,0.6c-2.5,0.5-4.9,1.1-7.1,1.8c-0.4,0-0.7-0.2-0.7-0.6c0-0.3,0.1-0.6,0.2-0.7c0.1-0.1,0.3-0.2,0.7-0.3
			c1.2-0.2,2.2-0.4,3.1-0.5v-1.3c-1,0-1.8,0.1-2.3,0.2c-0.3,0.1-0.5,0.2-0.6,0.2c-0.3,0-0.5-0.3-0.6-0.7c0-0.2,0.1-0.4,0.3-0.6
			c0.2-0.1,0.4-0.2,0.7-0.2h2.4v-1.1c-1,0-1.7,0-2,0.1c-0.3,0-0.6,0.1-1,0.2c-0.4,0-0.6-0.2-0.6-0.6c0.1-0.9,0.2-1.6,0.2-2.3
			c0-0.6-0.1-1.3-0.2-2.2c0-0.4,0.2-0.6,0.6-0.6c0.2,0,0.4,0,0.6,0c0.2,0,0.5,0,0.9,0h1.5V5.3c-1.4,0-2.5,0.1-3.1,0.2
			c-0.4,0.1-0.6,0.2-0.8,0.2c-0.4,0-0.6-0.2-0.6-0.6c0-0.2,0.1-0.4,0.3-0.6c0.2-0.1,0.4-0.2,0.7-0.2h3.4l0-1.2
			c-0.3,0-0.5,0.1-0.8,0.1c-0.9,0.1-1.4,0.2-1.7,0.2c-0.3,0-0.6-0.1-0.9-0.4c-0.2-0.2-0.3-0.5-0.3-0.7c0-0.2,0.1-0.3,0.3-0.3
			c1.7,0,3.1-0.1,4.2-0.3c1.1-0.1,2.1-0.3,2.8-0.5C-576.7,1.1-576.6,1.1-576.5,1.1z M-580.5,10.8V9.7c-0.8,0-1.5,0.1-2.1,0.1
			c-0.1,0-0.1,0-0.2,0c0,0.2,0,0.4-0.1,0.7c0,0.3,0.2,0.5,0.5,0.5C-581.8,10.9-581.2,10.8-580.5,10.8z M-582.7,8.7
			c0.1,0,0.1,0,0.2,0h2l0-1.2c-0.5,0-1.1,0-1.8,0c-0.3,0-0.4,0.1-0.4,0.4C-582.7,8.1-582.7,8.4-582.7,8.7z M-579.3,7.5l0,1.2h2
			c0,0,0.1,0,0.1,0v-1c0-0.1-0.1-0.2-0.2-0.2C-578,7.5-578.6,7.5-579.3,7.5z M-579.3,9.6v1.2c0.5,0,1.1,0,1.7,0.1
			c0.2,0,0.3-0.1,0.3-0.4v-1C-578,9.6-578.7,9.6-579.3,9.6z M-572.2,6c0.2-1.5,0.3-2.9,0.4-4.1c0-0.4,0.2-0.6,0.6-0.6
			c0.4,0,0.6,0.2,0.6,0.7c0,0.1,0,0.4-0.1,0.9C-570.9,4-571,5-571.1,6h2.5c0.1,0,0.3-0.1,0.7-0.2c0.5,0,0.7,0.3,0.7,0.8
			c-0.3,1.8-0.5,3.6-0.6,5.4c-0.1,2.5-0.5,4.1-1.2,4.8c-0.5,0.7-1.2,1.1-2,1.1c-0.4,0-0.6-0.2-0.9-0.5c-0.2-0.3-0.2-0.6-0.2-0.9
			c0-0.3,0.1-0.4,0.3-0.5c1.1-0.1,1.8-0.4,2.1-0.9c0.4-0.5,0.7-2.1,1-4.7c0.1-1.6,0.2-2.6,0.2-2.9c0-0.3-0.1-0.4-0.2-0.4h-2.5
			c-0.2,1.2-0.4,2.2-0.5,3c-0.3,1.5-0.7,3-1.3,4.3c-0.4,1.1-1,2.1-1.8,2.9c-0.3,0.3-0.5,0.5-0.8,0.5c-0.2,0-0.4-0.1-0.7-0.4
			c-0.2-0.3-0.4-0.6-0.4-0.9c0-0.2,0.1-0.4,0.2-0.4c0.7-0.3,1.3-0.8,1.7-1.4c0.5-0.8,1-2,1.5-3.6c0.3-1.2,0.6-2.5,0.8-4
			c-0.5,0-1,0.1-1.4,0.2c-0.4,0.1-0.7,0.2-0.8,0.2c-0.3,0-0.5-0.2-0.5-0.5c0-0.5,0.2-0.8,0.6-0.9C-574.1,6-573.4,6-572.2,6z"/>
		<path class="st0" d="M-551,14c0,0.6-0.1,1.1-0.4,1.5c-0.3,0.4-0.7,0.7-1.1,0.8c-0.8,0.2-2.2,0.3-4.4,0.3c-4,0-6-1-6-3.1
			c0-1,0.4-1.9,1.1-2.8c0.1-0.2,0.8-0.9,2.1-2.1c-0.1-1-0.2-1.8-0.2-2.6V3.7c0-1.5,0.2-2.3,0.7-2.3c0.5,0,0.7,0.3,0.7,0.9
			c0,0.1,0,0.3-0.1,0.5c-0.1,0.3-0.1,0.5-0.1,0.6c-0.1,0.7-0.1,1.6-0.1,2.7c0,0.5,0,1.1,0.1,1.5c2-1.7,3.2-2.6,3.5-2.6
			c0.3,0,0.4,0.1,0.5,0.3c0.1,0.2,0.2,0.3,0.3,0.5c0,0.4-0.3,0.7-0.7,1c-0.9,0.5-1.8,1.1-2.7,1.6c-1.3,0.8-2.3,1.6-3,2.3
			c-0.9,0.9-1.4,1.8-1.4,2.7c0,1.1,0.9,1.7,2.6,1.7c1.1,0,2.5-0.1,4-0.3c1.3-0.2,2.4-0.5,3.3-0.8c0.4-0.2,0.7-0.2,0.9-0.2
			C-551,13.7-551,13.8-551,14z"/>
		<path class="st0" d="M-543.7,8.3c0.2,0,0.3,0.1,0.3,0.3c0,0.3-0.1,0.5-0.2,0.6l-3.7,1.6c-0.5,0-0.7-0.2-0.7-0.7c0-0.6,0.2-1,0.6-1
			L-543.7,8.3z M-545.8,1.3c0.1,0,0.2,0.1,0.5,0.2c0.6,0.6,1.4,1.3,2.3,2c0.1,0.1,0.2,0.2,0.2,0.3c0,0.3-0.1,0.4-0.4,0.4
			c-0.1,0-0.2,0-0.4-0.1c-1.3-0.6-2.1-0.9-2.4-1.1c-0.4-0.3-0.6-0.6-0.6-1C-546.6,1.5-546.4,1.3-545.8,1.3z M-543.3,13.8
			c0.2,0,0.3,0.1,0.3,0.4c0,0.2-0.1,0.4-0.2,0.6c-1.3,1.8-2.1,2.6-2.3,2.6c-0.6,0-0.9-0.2-0.9-0.6c0-0.5,0.1-0.9,0.3-1
			C-546,15.7-545.1,15-543.3,13.8z M-532.8,1.5c0.3,0,0.4,0.1,0.4,0.4c0,0.3-0.1,0.5-0.3,0.6c-1.2,0.4-2.3,0.8-3.2,1.1l0,3.4
			c0.6,0,1.3,0,2.1,0.1c0.8,0,1.6,0.1,2.2,0.1c0.4,0,0.9-0.1,1.4-0.2c0.1,0,0.2,0.2,0.2,0.5c0,0.5-0.2,1-0.5,1.6
			c-0.2,0.4-0.4,0.6-0.6,0.6c-0.3,0-0.6-0.1-1-0.4c-0.6-0.4-1.3-0.6-2-0.8c-0.6-0.1-1.2-0.2-1.8-0.2l0,3.5h0c0.6,0,1.2,0,2,0.1
			c0.2,0,0.4-0.1,0.7-0.2c0.4,0,0.6,0.2,0.6,0.7c0,0,0,0.1,0,0.2c-0.1,0.2-0.1,0.5-0.1,0.9c0,0.6-0.1,1.2-0.1,1.8
			c0,0.4,0,0.9,0.1,1.6c0,0.5-0.2,0.8-0.6,0.8c-1.2-0.1-2.4-0.2-3.3-0.2c-1.2,0-1.9,0-2.2,0c-0.3,0-0.6,0.1-1,0.1
			c-0.4,0-0.6-0.2-0.6-0.7c0.1-0.9,0.2-1.7,0.2-2.4c0-0.6-0.1-1.4-0.2-2.4c0-0.4,0.2-0.6,0.6-0.6c0.2,0,0.4,0,0.6,0.1
			c0.2,0.1,0.5,0.1,0.9,0.1h1.3l0-3.5c-0.8,0-1.5,0.1-2.2,0.2c-0.5,0.1-1.3,0.4-2.3,1c-0.5,0-0.7-0.2-0.7-0.6c0-0.3,0.1-0.5,0.3-0.7
			c0.2-0.3,0.6-0.5,1-0.5c1.6-0.3,3-0.4,3.9-0.5l0-3c-0.3,0.1-0.7,0.2-1,0.2c-1,0.2-1.6,0.3-1.9,0.3c-0.4,0-0.7-0.2-1-0.5
			c-0.2-0.2-0.3-0.5-0.3-0.8c0-0.2,0.1-0.3,0.3-0.3c1.9,0,3.4-0.2,4.7-0.5c1.2-0.2,2.3-0.5,3.1-0.8C-533.1,1.5-533,1.5-532.8,1.5z
			 M-536.7,16.1c0.7,0,1.6,0,2.5,0.1c0.2,0,0.3-0.1,0.3-0.3v-3c0-0.2,0-0.3-0.1-0.3c-1.1,0-2.6-0.1-4.6-0.1c-0.3,0-0.4,0.2-0.4,0.5
			c0,1,0,1.9-0.1,2.8c0,0.3,0.2,0.4,0.5,0.4C-538.2,16.1-537.5,16.1-536.7,16.1z"/>
		<path class="st0" d="M-519.4,1.1c0.3,0,0.4,0.2,0.4,0.5c0,0.3-0.1,0.5-0.3,0.6c-1.1,0.3-2,0.5-2.9,0.6v1.4h3.6
			c0.2,0,0.3,0.1,0.3,0.3c0,0.3-0.1,0.6-0.2,0.8c-0.2,0.2-0.4,0.3-0.7,0.3c-0.2,0-0.7-0.1-1.5-0.2c-0.5,0-1-0.1-1.5-0.1v1.1
			c0.6,0,1.2,0,2,0.1c0.2,0,0.4,0,0.7-0.1c0.4,0,0.6,0.2,0.6,0.6c0,0,0,0.1-0.1,0.1c-0.1,0.2-0.1,0.4-0.1,0.8c0,0.5-0.1,1.1-0.1,1.7
			c0,0.4,0,0.9,0.1,1.5c0,0.4-0.2,0.6-0.6,0.6c-0.9-0.1-1.8-0.2-2.6-0.2l0,1.1h2.8c0.1,0,0.2,0.1,0.2,0.3c0,0.3-0.1,0.5-0.2,0.6
			c-0.2,0.2-0.4,0.3-0.7,0.3c-0.1,0-0.5,0-1.1-0.1c-0.3,0-0.7,0-1.1,0V15c1.2-0.2,2.1-0.3,2.8-0.4c0.2,0,0.2,0.1,0.2,0.4
			c0,0.3-0.1,0.5-0.3,0.6c-2.5,0.5-4.9,1.1-7.1,1.8c-0.4,0-0.7-0.2-0.7-0.6c0-0.3,0.1-0.6,0.2-0.7c0.1-0.1,0.3-0.2,0.7-0.3
			c1.2-0.2,2.2-0.4,3.1-0.5v-1.3c-1,0-1.8,0.1-2.3,0.2c-0.3,0.1-0.5,0.2-0.6,0.2c-0.3,0-0.5-0.3-0.6-0.7c0-0.2,0.1-0.4,0.3-0.6
			c0.2-0.1,0.4-0.2,0.7-0.2h2.4v-1.1c-1,0-1.7,0-2,0.1c-0.3,0-0.6,0.1-1,0.2c-0.4,0-0.6-0.2-0.6-0.6c0.1-0.9,0.2-1.6,0.2-2.3
			c0-0.6-0.1-1.3-0.2-2.2c0-0.4,0.2-0.6,0.6-0.6c0.2,0,0.4,0,0.6,0c0.2,0,0.5,0,0.9,0h1.5V5.3c-1.4,0-2.5,0.1-3.1,0.2
			c-0.4,0.1-0.6,0.2-0.8,0.2c-0.4,0-0.6-0.2-0.6-0.6c0-0.2,0.1-0.4,0.3-0.6c0.2-0.1,0.4-0.2,0.7-0.2h3.4l0-1.2
			c-0.3,0-0.5,0.1-0.8,0.1c-0.9,0.1-1.4,0.2-1.7,0.2c-0.3,0-0.6-0.1-0.9-0.4c-0.2-0.2-0.3-0.5-0.3-0.7c0-0.2,0.1-0.3,0.3-0.3
			c1.7,0,3.1-0.1,4.2-0.3c1.1-0.1,2.1-0.3,2.8-0.5C-519.6,1.1-519.5,1.1-519.4,1.1z M-523.4,10.8V9.7c-0.8,0-1.5,0.1-2.1,0.1
			c-0.1,0-0.1,0-0.2,0c0,0.2,0,0.4-0.1,0.7c0,0.3,0.2,0.5,0.5,0.5C-524.7,10.9-524.1,10.8-523.4,10.8z M-525.6,8.7
			c0.1,0,0.1,0,0.2,0h2l0-1.2c-0.5,0-1.1,0-1.8,0c-0.3,0-0.4,0.1-0.4,0.4C-525.6,8.1-525.6,8.4-525.6,8.7z M-522.2,7.5l0,1.2h2
			c0,0,0.1,0,0.1,0v-1c0-0.1-0.1-0.2-0.2-0.2C-520.8,7.5-521.5,7.5-522.2,7.5z M-522.2,9.6v1.2c0.5,0,1.1,0,1.7,0.1
			c0.2,0,0.3-0.1,0.3-0.4v-1C-520.9,9.6-521.6,9.6-522.2,9.6z M-515.1,6c0.2-1.5,0.3-2.9,0.4-4.1c0-0.4,0.2-0.6,0.6-0.6
			c0.4,0,0.6,0.2,0.6,0.7c0,0.1,0,0.4-0.1,0.9C-513.8,4-513.9,5-514,6h2.5c0.1,0,0.3-0.1,0.7-0.2c0.5,0,0.7,0.3,0.7,0.8
			c-0.3,1.8-0.5,3.6-0.6,5.4c-0.1,2.5-0.5,4.1-1.2,4.8c-0.5,0.7-1.2,1.1-2,1.1c-0.4,0-0.6-0.2-0.9-0.5c-0.2-0.3-0.2-0.6-0.2-0.9
			c0-0.3,0.1-0.4,0.3-0.5c1.1-0.1,1.8-0.4,2.1-0.9c0.4-0.5,0.7-2.1,1-4.7c0.1-1.6,0.2-2.6,0.2-2.9c0-0.3-0.1-0.4-0.2-0.4h-2.5
			c-0.2,1.2-0.4,2.2-0.5,3c-0.3,1.5-0.7,3-1.3,4.3c-0.4,1.1-1,2.1-1.8,2.9c-0.3,0.3-0.5,0.5-0.8,0.5c-0.2,0-0.4-0.1-0.7-0.4
			c-0.2-0.3-0.4-0.6-0.4-0.9c0-0.2,0.1-0.4,0.2-0.4c0.7-0.3,1.3-0.8,1.7-1.4c0.5-0.8,1-2,1.5-3.6c0.3-1.2,0.6-2.5,0.8-4
			c-0.5,0-1,0.1-1.4,0.2c-0.4,0.1-0.7,0.2-0.8,0.2c-0.3,0-0.5-0.2-0.5-0.5c0-0.5,0.2-0.8,0.6-0.9C-517,6-516.2,6-515.1,6z"/>
		<path class="st0" d="M-493.3,6.9c0,0.3-0.3,0.6-0.8,1c-1.2,0.9-2.9,2-5.1,3.4c0,0.1,0,0.4,0,0.8c0,0.3,0,0.6,0,0.8
			c0,0.5-0.2,0.7-0.7,0.7c-0.3,0-0.4-0.2-0.5-0.6c0-0.1,0-0.4,0-1c-0.8,0.5-1.4,0.8-1.7,1.1c-0.7,0.6-1.1,1.1-1.1,1.7
			c0,0.4,0.3,0.6,1,0.8c0.5,0.1,1,0.2,1.5,0.2c1.5,0,2.8-0.3,4-0.8c0.9-0.4,1.4-0.6,1.4-0.6c0.1,0,0.2,0.1,0.2,0.4
			c0,0.5-0.1,1-0.4,1.5c-0.2,0.4-0.7,0.6-1.6,0.8c-0.7,0.1-1.4,0.1-2.3,0.1c-1.1,0-2.1-0.1-2.9-0.4c-1.3-0.4-1.9-1.1-1.9-2
			c0-0.8,0.5-1.6,1.4-2.4c0.1-0.2,0.9-0.7,2.2-1.7c0-0.9-0.1-1.4-0.1-1.6c-0.1-0.6-0.5-0.9-1.1-0.9c-0.7,0-1.4,0.2-1.9,0.5
			c-0.2,0.1-0.8,0.6-1.7,1.4c-0.1,0.1-0.2,0.2-0.4,0.3c-0.4,0-0.6-0.3-0.6-0.9c0-0.4,0.4-0.9,1.2-1.4c1.1-0.8,2.1-1.8,3-3.2
			c-0.4,0.1-1.1,0.2-2,0.3c0,0-0.3,0.1-0.8,0.2c-0.4,0.1-0.6,0.2-0.8,0.2c-0.3,0-0.5-0.2-0.5-0.7c0-0.6,0.4-0.9,1.2-1
			c0.7,0,1.9-0.1,3.3-0.1c0.1-0.3,0.4-0.9,0.8-1.9c0.2-0.5,0.4-0.7,0.8-0.7c0.5,0,0.7,0.2,0.7,0.7c0,0.2-0.3,0.8-0.9,1.9
			c0.4,0,1.1,0,1.9,0c0.9,0,1.5,0,1.9,0c0.1,0,0.3,0,0.5,0c0.2,0,0.4-0.1,0.5-0.1c0.1,0,0.2,0.1,0.2,0.2c0,0.3-0.2,0.6-0.4,1
			c-0.3,0.4-0.5,0.6-0.8,0.6c-0.2,0-0.5-0.1-0.8-0.2c-0.3-0.1-0.5-0.1-0.8-0.2c-0.6-0.2-1.6-0.3-2.8-0.3c-0.6,1-1.3,1.9-1.9,2.6
			c0.5-0.1,1-0.1,1.4-0.1c1.1,0,1.8,0.8,1.8,2.3c0,0.2,0,0.3,0.1,0.4c1.8-1.3,3.3-2.4,4.4-3.3c0.4-0.3,0.7-0.4,0.9-0.4
			C-493.5,6.2-493.3,6.4-493.3,6.9z"/>
		<path class="st0" d="M-480.7,6.7c1.1,0,2.4,0.1,3.9,0.2c1.1,0.1,2.1,0.1,2.9,0.1c0.4,0,0.9-0.1,1.5-0.3c0.1,0,0.1,0.2,0.1,0.5
			c0,0.5-0.2,1.1-0.5,1.6c-0.2,0.4-0.4,0.6-0.6,0.6c-0.4,0-0.8-0.1-1.3-0.4c-0.8-0.4-1.7-0.8-2.7-0.9c-1-0.2-2.2-0.3-3.5-0.3
			c-0.5,0-1.1,0-1.6,0c-0.3,0.6-0.7,1.3-1.1,2c-1.1,1.4-2.2,2.5-3.3,3.3c-0.8,0.5-1.4,0.8-1.9,0.8c-0.2,0-0.5-0.1-0.7-0.3
			c-0.3-0.3-0.4-0.7-0.4-1c0-0.2,0.2-0.4,0.6-0.5c1.5-0.2,2.9-1,4.2-2.2c0.6-0.6,1.1-1.3,1.6-2c-0.4,0-0.9,0.1-1.3,0.1
			c-0.8,0.1-2,0.5-3.6,1.3c-0.5,0-0.7-0.2-0.7-0.7c0-0.3,0.1-0.5,0.3-0.7c0.2-0.3,0.6-0.5,1-0.5c1.9-0.4,3.6-0.6,5-0.7
			c0.3-0.5,0.5-1.1,0.7-1.7c0-0.2,0.2-0.3,0.4-0.3c0.4,0,0.6,0.2,0.6,0.7c0,0-0.1,0.1-0.1,0.3c-0.1,0.3-0.2,0.6-0.4,1
			C-481.3,6.7-481,6.7-480.7,6.7z M-488,2.5h3.6l-0.1-0.7c0-0.4,0.2-0.6,0.6-0.6c0.4,0,0.6,0.2,0.6,0.7v0.6h4.4l0.1-0.6
			c0-0.6,0.2-0.8,0.6-0.8c0.4,0,0.6,0.2,0.6,0.7l-0.2,0.7h4.3c0.2,0,0.3,0.1,0.3,0.3c0,0.3-0.1,0.6-0.2,0.8
			c-0.2,0.2-0.4,0.3-0.7,0.3c-0.4,0-1.3-0.1-2.7-0.2c-0.4,0-0.8,0-1.2,0l-0.2,1c-0.1,0.3-0.3,0.4-0.5,0.4c-0.3,0-0.4-0.2-0.4-0.6
			l0.1-0.8c-0.8,0-1.7,0-2.5,0c-0.6,0-1.2,0-1.8,0v0.8c0,0.4-0.1,0.6-0.4,0.6c-0.3,0-0.4-0.2-0.5-0.6l-0.1-0.7
			c-1.2,0-2.2,0.1-2.9,0.2c-0.7,0.1-1.1,0.2-1.3,0.2c-0.4,0-0.7-0.3-0.7-0.7c0-0.2,0.1-0.5,0.3-0.6C-488.6,2.5-488.3,2.5-488,2.5z
			 M-483.3,11.1c0.2,0,0.4,0,0.6,0.1c0.2,0.1,0.5,0.1,0.9,0.1h2.5c0.6,0,1.2,0,2,0.1c0.2,0,0.4-0.1,0.7-0.2c0.4,0,0.6,0.2,0.6,0.7
			c0,0,0,0.1,0,0.2c-0.1,0.2-0.1,0.5-0.1,0.9c0,0.6-0.1,1.2-0.1,1.8c0,0.4,0,0.9,0.1,1.6c0,0.5-0.2,0.7-0.6,0.7
			c-1.3-0.1-2.5-0.2-3.5-0.2c-1.1,0-1.8,0-2.1,0.1c-0.2,0-0.6,0.1-0.9,0.1c-0.4,0-0.6-0.2-0.6-0.6c0.1-0.9,0.2-1.7,0.2-2.4
			c0-0.6-0.1-1.4-0.2-2.4C-483.8,11.3-483.6,11.1-483.3,11.1z M-480.2,15.9c0.8,0,1.7,0,2.6,0.1c0.2,0,0.3-0.1,0.3-0.3v-3
			c0-0.2-0.1-0.3-0.2-0.3c-1-0.1-2.6-0.1-4.6-0.1c-0.3,0-0.4,0.2-0.4,0.5c0,1-0.1,1.9-0.2,2.8c0,0.3,0.2,0.4,0.5,0.4
			C-481.6,15.9-481,15.9-480.2,15.9z"/>
		<path class="st0" d="M-464.2,3.1h2.8l-0.1-1.5c0-0.5,0.2-0.7,0.7-0.7c0.5,0,0.7,0.2,0.7,0.7l-0.1,1.5h3.3c0.1,0,0.1,0,0.2,0.1
			c0.3-0.4,0.7-0.9,1-1.3c0.1-0.1,0.2-0.1,0.4-0.1c0.3,0,0.5,0.3,0.5,0.6c0,0.2,0,0.3-0.1,0.4c-1,1.3-2,2.4-2.8,3.3
			c0.4,0,0.7,0.1,1.1,0.1c1.2,0.1,2.3,0.2,3.1,0.2c0.4,0,1-0.1,1.6-0.3c0.1,0,0.2,0.2,0.2,0.5c0,0.5-0.2,1-0.5,1.6
			c-0.2,0.4-0.5,0.6-0.7,0.6c-0.4,0-0.8-0.1-1.3-0.4c-0.9-0.4-1.8-0.7-2.8-0.9c-0.5-0.1-1.1-0.1-1.6-0.2c-0.8,0.8-1.6,1.5-2.2,1.9
			c-0.2,0.2-0.5,0.4-0.7,0.5c0.1,0,0.3,0,0.5,0h2.2c0.5,0,1.1,0,1.7,0.1c0.2,0,0.4-0.1,0.7-0.2c0.4,0,0.6,0.3,0.6,0.8
			c0,0,0,0.1,0,0.2c-0.1,0.2-0.1,0.6-0.1,1.2c0,0.8-0.1,1.6-0.1,2.5c0,0.6,0,1.3,0.1,2.3c0,0.6-0.2,0.8-0.6,0.8
			c-1.1-0.2-2-0.3-2.9-0.3c-1.1,0-1.8,0-2.1,0.1c-0.3,0-0.6,0.1-0.9,0.2c-0.4,0-0.6-0.2-0.6-0.7c0.1-1.2,0.2-2.3,0.2-3.2
			c0-0.8,0-1.8-0.1-2.9c-1.2,0.7-2.5,1.3-3.8,1.8c-0.6,0.3-1.1,0.4-1.5,0.4c-0.4,0-0.8-0.2-1-0.5c-0.3-0.3-0.4-0.6-0.4-0.9
			c0-0.2,0.1-0.4,0.3-0.4c2.4-0.4,4.3-0.9,5.7-1.6c1.1-0.5,2.3-1.3,3.4-2.2c-0.1,0-0.3,0-0.4,0c-1.4,0-2.7,0.1-4,0.2
			c-0.8,0.1-1.9,0.5-3.5,1.1c-0.4,0-0.6-0.2-0.6-0.6c0-0.3,0.1-0.5,0.3-0.7c0.2-0.3,0.5-0.5,0.9-0.5c2.7-0.4,4.8-0.6,6.3-0.6
			l-0.1-1.8c-1.2,0-2,0.1-2.6,0.2c-0.3,0.1-0.6,0.2-0.7,0.2c-0.4,0-0.6-0.2-0.6-0.6c0-0.2,0.1-0.4,0.3-0.6
			C-464.8,3.2-464.5,3.1-464.2,3.1z M-459.5,16c0.6,0,1.3,0,2,0.1c0.2,0,0.3-0.1,0.3-0.4v-1.9c-1.9,0-3.5,0.1-4.5,0.2
			c0,0-0.1,0-0.1,0c0,0.5,0,1.1-0.1,1.6c0,0.3,0.2,0.5,0.5,0.5C-460.9,16-460.2,16-459.5,16z M-461.8,12.8c0.1,0,0.1,0,0.2,0h4.4
			v-1.6c0-0.2,0-0.3-0.1-0.3c-0.9-0.1-2.3-0.1-4-0.1c-0.3,0-0.4,0.2-0.4,0.5C-461.7,11.8-461.8,12.3-461.8,12.8z M-459.2,6.1
			c0.5-0.5,1.1-1.1,1.6-1.7c-0.2,0-0.6,0-1.2-0.1c-0.4,0-0.9,0-1.4,0l-0.1,1.8C-459.9,6-459.5,6.1-459.2,6.1z"/>
		<path class="st0" d="M-438.9,8.5c0,1.6-0.2,3.2-0.7,4.8c-0.7,2-1.6,3-2.7,3c-0.3,0-0.5-0.2-0.9-0.7c-0.3-0.5-0.4-0.9-0.4-1.2
			c0-0.2,0.3-0.3,0.9-0.3c0.7-0.1,1.1-0.3,1.3-0.5c0.5-0.5,0.9-1.4,1.2-2.8c0.2-1.1,0.3-2.2,0.3-3.2c0-1-0.4-1.4-1.3-1.4
			c-0.3,0-0.9,0-1.7,0.1c-0.4,1.8-0.9,3.3-1.3,4.4c-0.5,1.3-1.3,2.6-2.2,3.9c-0.8,1.1-1.4,1.7-1.8,1.7c-0.2,0-0.6-0.2-0.9-0.6
			c-0.4-0.4-0.6-0.6-0.6-0.9c0-0.1,0.1-0.3,0.3-0.4c0.2-0.1,0.5-0.3,0.9-0.6c1-0.7,1.8-1.5,2.5-2.5c0.8-1.2,1.5-2.9,2.2-4.9
			c-0.7,0.1-1.8,0.3-3.1,0.6c-0.3,0-0.5-0.2-0.5-0.6c0-0.7,0.6-1,1.9-1.1c0.3,0,1-0.1,2.1-0.1c0.2-0.8,0.3-1.6,0.3-2.6
			c0-0.5,0.2-0.8,0.6-0.8c0.4,0,0.6,0.2,0.6,0.7c0,0.2-0.1,1.1-0.4,2.6c0.7,0,1.1,0,1.4,0c0.9,0,1.6,0.3,2,0.9
			C-439,6.5-438.9,7.3-438.9,8.5z M-432.5,7.8c0,0.2-0.2,0.6-0.6,1.2c-0.4,0.5-0.7,0.8-0.9,0.8c-0.4,0-1-0.6-1.9-1.7
			s-1.2-1.9-1.2-2.4c0-0.2,0.1-0.4,0.2-0.4c0.1,0,0.3,0.2,0.7,0.6c0.4,0.4,0.9,0.8,1.5,1.2c0.5,0.3,1,0.5,1.6,0.5
			C-432.7,7.5-432.5,7.6-432.5,7.8z M-433.3,4.6c0,0.2-0.2,0.4-0.4,0.7c-0.2,0.3-0.4,0.5-0.5,0.5c-0.2,0-0.6-0.3-1.2-1
			c-0.6-0.7-0.8-1.1-0.8-1.3c0-0.2,0.1-0.3,0.2-0.3c0.1,0,0.3,0.1,0.7,0.4c0.5,0.4,1.1,0.6,1.7,0.6C-433.4,4.3-433.3,4.4-433.3,4.6z
			 M-431.3,2.9c0,0.2-0.2,0.4-0.4,0.8c-0.2,0.3-0.4,0.5-0.5,0.5c-0.2,0-0.6-0.3-1.2-1c-0.6-0.6-0.8-1.1-0.8-1.4
			c0-0.2,0.1-0.3,0.2-0.3c0.1,0,0.3,0.1,0.7,0.4c0.5,0.4,1.1,0.6,1.7,0.6C-431.4,2.6-431.3,2.7-431.3,2.9z"/>
		<path class="st0" d="M-414.5,9c0,1.3-0.4,2.5-1.3,3.7c-0.8,1-1.7,1.8-2.8,2.4c-1.4,0.7-2.4,1-3,1c-0.3,0-0.6-0.2-1-0.6
			c-0.4-0.4-0.6-0.8-0.6-1.1c0-0.2,0.2-0.3,0.6-0.3c1.4-0.2,2.5-0.4,3.3-0.7c1.2-0.4,2.1-1.1,2.8-2c0.6-0.8,0.9-1.6,0.9-2.3
			c0-2-1.2-3-3.5-3c-2.3,0-5,0.6-8,1.8C-427.8,8-428,8-428.1,8c-0.4,0-0.6-0.3-0.6-0.8c0-0.7,0.5-1.1,1.4-1.4c2.4-0.7,4.9-1,7.5-1
			c2.3,0,3.9,0.7,4.7,2C-414.8,7.5-414.5,8.2-414.5,9z"/>
		<path class="st0" d="M-401,4.5c0,0.2-0.1,0.4-0.2,0.7c-0.1,0.3-0.3,0.4-0.4,0.5c-0.9-0.2-1.7-0.3-2.4-0.3c-0.1,0-0.3,0-0.4,0
			c-0.2,0-0.3,0-0.4,0c-0.3,1.7-0.7,3.2-1.2,4.7c-1.4,4.1-2.5,6.2-3.2,6.2c-0.2,0-0.5-0.1-0.9-0.3c-0.4-0.2-0.6-0.4-0.6-0.6
			c0-0.1,0.3-0.5,0.8-1.2c0.9-1.1,1.8-2.5,2.5-4.1c0.8-1.7,1.3-3.2,1.6-4.7c-0.5,0-1.3,0.2-2.3,0.4c-0.8,0.3-1.2,0.4-1.1,0.4
			c-0.3,0-0.5-0.2-0.5-0.5c0-0.3,0.1-0.6,0.2-0.7c0.1-0.2,0.8-0.3,1.9-0.5c0.7,0,1.4-0.1,2.1-0.2c0.1-0.6,0.2-1.4,0.2-2.1
			c0-0.6,0.2-0.9,0.6-0.9c0.4,0,0.6,0.2,0.6,0.6c0,0.2-0.1,0.9-0.4,2.3c1.5-0.1,2.6-0.1,3.2-0.1C-401.2,4.1-401,4.2-401,4.5z
			 M-395.8,15c-0.1,0.3-0.3,0.6-0.6,1.1c-0.3,0.5-0.6,0.7-0.8,0.7c-0.1,0-0.6-0.3-1.6-1c-1.1-0.8-1.7-1.2-1.8-1.3
			c-0.2,1.6-1.2,2.5-2.9,2.5c-0.7,0-1.3-0.2-1.9-0.6c-0.6-0.5-0.9-1.1-0.9-1.8c0-1.5,1-2.3,2.9-2.3c0.5,0,1.1,0.1,1.7,0.4v-1.2
			c0-0.5,0-1-0.1-1.4c0-0.1,0-0.4-0.1-0.7c0-0.3-0.1-0.5-0.1-0.7c0-0.5,0.2-0.8,0.6-0.8c0.3,0,0.5,0.3,0.5,1c0,1,0.1,2.4,0.2,4.3
			c0.7,0.3,1.4,0.6,2.1,0.8c0.8,0.3,1.5,0.5,2.1,0.6c0.1,0,0.3,0.1,0.3,0.1C-396,14.8-395.9,14.9-395.8,15z M-401.8,14
			c-1-0.4-1.8-0.6-2.3-0.6c-1,0-1.5,0.4-1.5,1.2c0,0.8,0.5,1.2,1.6,1.2C-402.7,15.8-401.9,15.2-401.8,14z M-395.8,6.9
			c0,0.3-0.1,0.7-0.3,1.1c-0.3,0.5-0.5,0.7-0.7,0.7c-0.5,0-1.2-0.4-2-1.2c-0.8-0.8-1.2-1.6-1.2-2.2c0-0.2,0.1-0.3,0.2-0.3
			c0.5,0.3,1,0.6,1.6,1c0.5,0.3,1,0.4,1.7,0.5C-396,6.6-395.8,6.7-395.8,6.9z"/>
		<path class="st0" d="M-381.2,15.6c0,0.3-0.3,0.7-0.9,1.2c-0.6,0.5-1,0.7-1.3,0.7c-0.1,0-0.4-0.3-0.8-1c-0.7-1.1-1.6-2.2-2.5-3.2
			c-1-1-2.2-2-3.6-3c-0.4-0.3-0.7-0.5-0.7-0.8c0-0.2,0.4-0.7,1.1-1.3c0.8-0.7,1.7-1.7,2.5-2.8c0.4-0.6,1.1-1.7,2-3.3
			c0.2-0.4,0.5-0.6,0.9-0.6c0.5,0,0.8,0.3,0.8,0.9c0,0.4-0.7,1.5-2.1,3.1c-1.1,1.3-2.1,2.2-2.8,2.9c-0.3,0.2-0.6,0.6-1.1,1
			c2.4,1.6,4.2,3,5.4,4.1c0.6,0.5,1,0.9,1.3,1.1c0.5,0.4,1,0.6,1.4,0.8C-381.5,15.4-381.4,15.5-381.2,15.6z M-379.1,3.8
			c0,0.2-0.2,0.4-0.4,0.7c-0.2,0.3-0.4,0.5-0.5,0.5c-0.2,0-0.6-0.3-1.2-1c-0.6-0.7-0.8-1.1-0.8-1.3c0-0.2,0.1-0.3,0.2-0.3
			c0.1,0,0.3,0.1,0.7,0.4c0.6,0.4,1.1,0.6,1.7,0.6C-379.2,3.5-379.1,3.6-379.1,3.8z M-376.8,2.1c0,0.2-0.2,0.4-0.4,0.8
			c-0.2,0.3-0.4,0.5-0.5,0.5c-0.2,0-0.6-0.3-1.2-1c-0.6-0.7-0.8-1.1-0.8-1.4c0-0.2,0.1-0.3,0.2-0.3c0.1,0,0.3,0.2,0.7,0.5
			c0.5,0.3,1.1,0.5,1.7,0.6C-376.9,1.9-376.8,2-376.8,2.1z"/>
		<path class="st0" d="M-367.7,16.6c0,0.4-0.1,0.8-0.4,1.1c-0.3,0.3-0.6,0.4-1,0.4c-0.4,0-0.7-0.1-0.9-0.4c-0.2-0.3-0.4-0.6-0.4-1.1
			c0-0.9,0.4-1.4,1.3-1.4c0.4,0,0.7,0.1,1,0.4C-367.9,15.8-367.7,16.1-367.7,16.6z M-368.1,3.6c-0.1,0.5-0.2,2.1-0.2,4.9
			c0,2.4,0,3.8,0.1,4c0,0.7-0.3,1-0.9,1c-0.6,0-0.9-0.3-0.9-1c0-0.5,0-1.1,0.1-2c0.1-0.9,0.1-1.6,0.1-2c0-0.5,0-1.3-0.1-2.4
			C-370,5-370,4.2-370,3.6c0-0.7,0.3-1.1,0.9-1.1C-368.5,2.5-368.1,2.9-368.1,3.6z"/>
	</g>
</g>
<g>
	<g>
		<path class="st0" d="M0.2,3.7C0.6,3.8,0.9,3.8,1,3.8c0.8,0,1.8-0.4,3.1-1.1c0.2,0,0.2,0.1,0.2,0.3c0,0.3-0.4,0.8-1.2,1.6
			C2.3,5.4,1.6,5.9,1,5.9c-0.3,0-0.5-0.2-0.7-0.5C0.1,5,0,4.6,0,4.1C0,3.8,0.1,3.7,0.2,3.7z M8.1,1.5c0.5,0,0.8,0.3,0.8,0.8L8.7,7.9
			l4,0.1c0.2,0,0.5,0,1-0.1c0.5,0,0.8,0.2,0.8,0.6c-0.2,2.3-0.3,4.7-0.3,7.2c0,0.6-0.3,0.8-0.7,0.8c-1.3-0.1-3-0.2-5.1-0.2
			c-2.2,0-4.1,0.1-5.7,0.3c-0.4,0-0.6-0.2-0.6-0.6c0-0.5,0.1-0.7,0.4-0.8c1.1-0.1,2.8-0.2,4.9-0.2c1.3,0,3,0,5.3,0.1
			c0.3,0,0.4-0.3,0.4-0.8c0-0.6,0-1.2,0-1.7c0,0,0,0,0,0c-4.4,0-7.8,0.1-10.3,0.2c-0.4,0-0.6-0.2-0.6-0.6c0-0.4,0.3-0.7,0.8-0.7H13
			c0,0,0,0,0,0c0-0.8,0-1.5,0-2.1c0-0.2-0.1-0.4-0.4-0.4c-0.8-0.1-2.3-0.1-4.5-0.1c-1.7,0-3.6,0.1-5.7,0.3c-0.3,0-0.5-0.2-0.5-0.6
			c0-0.5,0.2-0.8,0.6-0.8l4.9-0.1L7.4,2.3C7.4,1.7,7.6,1.5,8.1,1.5z M12,2.6c0,0,0.1,0,0.1,0.1c0.9,0.6,1.7,1,2.2,1.2
			c0.4,0.2,0.9,0.3,1.5,0.3c0.2,0,0.2,0.1,0.2,0.3c0,0.3-0.1,0.6-0.4,0.9c-0.6,0.4-1,0.6-1.3,0.6c-0.2,0-0.3-0.1-0.5-0.2
			c-0.3-0.2-1-1-2-2.5C11.8,3.2,11.8,3,11.8,3C11.8,2.7,11.9,2.6,12,2.6z"/>
		<path class="st0" d="M19.8,5.9H22c0-1.2,0-2.6-0.1-4c0-0.6,0.2-0.9,0.6-0.9s0.6,0.3,0.6,0.9c0,1.5-0.1,2.8-0.1,4h2.6
			c0.2,0,0.3,0.1,0.3,0.3c0,0.3-0.1,0.6-0.2,0.8c-0.2,0.2-0.4,0.3-0.7,0.3c-0.1,0-0.5-0.1-1-0.2c-0.3,0-0.6,0-0.9,0l0.1,9.6
			c0,1-0.2,1.5-0.7,1.5c-0.4,0-0.6-0.5-0.6-1.5c0-4,0.1-7.2,0.1-9.6c-0.9,0-1.6,0.1-2,0.2c-0.3,0.1-0.4,0.2-0.5,0.2
			c-0.4,0-0.6-0.3-0.7-0.7c0-0.2,0.1-0.4,0.3-0.6C19.3,5.9,19.5,5.9,19.8,5.9z M26.9,11.3c0.1-0.3,0.1-0.6,0.1-0.9
			c0-0.4,0.2-0.6,0.5-0.6c0.1,0,0.3,0.1,0.4,0.2c0.1,0.2,0.2,0.3,0.2,0.4l0,0.1c0,0.2-0.1,0.5-0.1,0.8h1.4c0.1,0,0.3-0.1,0.6-0.2
			c0.4,0,0.7,0.2,0.7,0.7c-0.2,0.9-0.4,1.9-0.4,2.8c-0.1,1.3-0.4,2.1-0.9,2.5c-0.4,0.4-0.9,0.6-1.4,0.6c-0.3,0-0.6-0.1-0.8-0.4
			c-0.1-0.3-0.2-0.5-0.2-0.7c0-0.3,0.1-0.4,0.3-0.5c0.7,0,1.1-0.2,1.3-0.4c0.3-0.2,0.5-0.9,0.6-1.9c0.1-0.7,0.1-1.1,0.1-1.2
			c0-0.2-0.1-0.4-0.2-0.4h-1.5c-0.2,1.1-0.6,2.2-1,3c-0.3,0.6-0.6,1.2-0.9,1.6c-0.4,0.5-0.7,0.7-0.9,0.7c-0.2,0-0.4-0.1-0.7-0.4
			c-0.2-0.3-0.3-0.5-0.3-0.7c0-0.2,0.1-0.3,0.4-0.4c0.4-0.1,0.7-0.4,1.1-0.9c0.4-0.4,0.8-1.2,1.2-2.3c0.1-0.2,0.1-0.4,0.2-0.6
			c-0.3,0-0.6,0.1-0.8,0.1c-0.3,0.1-0.5,0.2-0.6,0.2c-0.3,0-0.5-0.2-0.5-0.5c0-0.5,0.2-0.8,0.6-0.8C25.5,11.3,26,11.3,26.9,11.3z
			 M30,3c0.1-0.5,0.2-1,0.3-1.5c0-0.4,0.2-0.6,0.5-0.6C30.9,1,31,1,31.1,1.2c0.1,0.2,0.2,0.3,0.2,0.4l0,0.1C31.2,2,31.1,2.4,30.9,3
			h2.8C33.8,3,34,3,34.3,2.9c0.4,0,0.7,0.2,0.7,0.7c-0.2,0.9-0.4,1.9-0.5,2.8C34.3,7.7,34,8.6,33.5,9c-0.4,0.4-1,0.6-1.6,0.6
			c-0.3,0-0.6-0.1-0.8-0.4C31,8.8,31,8.6,31,8.4c0-0.3,0.1-0.4,0.3-0.5c0.8,0,1.3-0.2,1.5-0.4c0.3-0.2,0.5-0.9,0.7-1.9
			c0.1-0.6,0.1-1,0.1-1.2c0-0.3-0.1-0.4-0.2-0.4h-2.8c0,0,0,0,0,0c-0.3,1-0.7,1.9-1.2,2.8c-0.4,0.6-0.7,1.2-1.2,1.7
			c-0.6,0.5-1,0.8-1.2,0.8c-0.2,0-0.5-0.2-0.7-0.5C26.1,8.6,26,8.4,26,8.2c0-0.2,0.1-0.3,0.4-0.4c0.5-0.1,1-0.5,1.4-1
			c0.5-0.4,1.1-1.3,1.6-2.4c0-0.1,0.1-0.2,0.1-0.3c-0.4,0-0.8,0.1-1.3,0.1c-0.4,0.1-0.7,0.2-0.8,0.2c-0.3,0-0.5-0.2-0.5-0.5
			c0-0.5,0.2-0.8,0.6-0.8C28,3.1,28.8,3,30,3z M33.2,11.3c0.1-0.3,0.1-0.6,0.1-0.9c0-0.4,0.2-0.6,0.5-0.6c0.1,0,0.2,0.1,0.4,0.2
			c0.1,0.2,0.2,0.3,0.2,0.4l0,0.1c0,0.2-0.1,0.5-0.1,0.8h1.5c0.1,0,0.3-0.1,0.6-0.2c0.4,0,0.6,0.2,0.6,0.7c-0.2,0.9-0.3,1.9-0.4,2.8
			c-0.1,1.3-0.3,2.1-0.8,2.5c-0.3,0.4-0.8,0.6-1.2,0.6c-0.3,0-0.6-0.1-0.8-0.4c-0.1-0.3-0.2-0.5-0.2-0.7c0-0.3,0.1-0.4,0.3-0.5
			c0.6,0,1-0.2,1.1-0.4c0.2-0.2,0.4-0.9,0.5-1.9c0.1-0.7,0.1-1.1,0.1-1.2c0-0.2-0.1-0.4-0.2-0.4H34c-0.2,1.1-0.5,2.2-0.9,3
			c-0.2,0.6-0.5,1.2-0.8,1.6c-0.4,0.5-0.7,0.7-0.8,0.7c-0.2,0-0.5-0.1-0.7-0.4c-0.2-0.3-0.3-0.5-0.3-0.7c0-0.2,0.1-0.3,0.4-0.4
			c0.3-0.1,0.7-0.4,1-0.9c0.4-0.4,0.7-1.2,1.1-2.3c0.1-0.2,0.1-0.4,0.2-0.6c-0.3,0-0.5,0.1-0.8,0.1c-0.3,0.1-0.5,0.2-0.6,0.2
			c-0.3,0-0.5-0.2-0.5-0.5c0-0.5,0.2-0.8,0.6-0.8C31.9,11.3,32.5,11.3,33.2,11.3z"/>
		<path class="st0" d="M47.9,1.1c0.3,0,0.4,0.2,0.4,0.5c0.2,0,0.6,0.2,1,0.6c3,2.2,4.8,3.5,5.6,3.8c0.5,0.1,1,0.3,1.7,0.3
			c0.3,0,0.4,0.1,0.4,0.4c0,0.4-0.2,0.7-0.7,1.1c-0.5,0.4-0.9,0.6-1.4,0.6c-0.3,0-0.6-0.2-0.9-0.5c-1.2-1.3-2.6-2.6-4.1-3.9
			C49.1,3.4,48.5,3,48,2.7c-0.1,0-0.2-0.1-0.2-0.2c-1,1.3-2.2,2.4-3.4,3.3c-1,0.8-2.2,1.5-3.6,2C40.6,8,40.3,8,40.2,8
			c-0.3,0-0.7-0.2-1-0.7c-0.3-0.3-0.5-0.6-0.5-0.9c0-0.2,0.2-0.4,0.6-0.4c1-0.1,1.7-0.2,2.2-0.4c1.2-0.3,2.3-0.8,3.3-1.6
			c1.1-0.8,2-1.7,2.7-2.7C47.6,1.2,47.7,1.1,47.9,1.1z M42,10.5c0.1,0,0.3,0,0.4,0.1c1.9-0.2,3.6-0.3,5.1-0.3c0.9,0,2.4,0,4.3,0.1
			c0.3,0,0.6,0,0.9,0c0.2,0,0.5,0,0.8-0.1c0.3-0.1,0.5-0.2,0.6-0.2c0.2,0,0.2,0.1,0.2,0.2c0,0.4-0.2,0.8-0.5,1.2
			c-0.3,0.5-0.6,0.7-0.9,0.7c-0.2,0-0.6-0.1-1.1-0.3c-1.2-0.4-2.6-0.6-4.3-0.6c-0.1,0-0.2,0-0.2,0c0,0.1,0.1,0.3,0.1,0.5
			c0,0.1,0,0.2-0.1,0.2c-0.5,0.8-0.8,1.5-1.1,2c-0.2,0.4-0.5,0.8-0.8,1.2c0,0.1,0.1,0.2,0.3,0.2h4.8c0.3,0,0.4-0.1,0.4-0.3
			c0,0,0-0.1,0-0.1c-0.2-0.4-0.5-1-0.9-1.5c0-0.1-0.1-0.1-0.1-0.1c0-0.4,0.2-0.7,0.6-0.7c0.1,0,0.2,0,0.2,0.1c0.5,0.7,1,1.6,1.6,2.7
			c0.1,0.1,0.1,0.3,0.1,0.4c0,0.4-0.2,0.6-0.6,0.6h-6.2c-0.4,0-0.9,0-1.5,0.1c-0.5,0-0.8-0.2-0.8-0.6c0-0.2,0.1-0.4,0.3-0.6
			c0.2-0.2,0.4-0.5,0.6-0.7c0.3-0.4,0.6-0.8,0.8-1.2c0.3-0.5,0.6-1.2,1-2.1c0,0,0,0,0-0.1c-1.5,0-2.6,0.2-3.3,0.4
			c-0.4,0.1-0.8,0.2-1,0.2c-0.3,0-0.5-0.2-0.5-0.6c0-0.2,0.1-0.5,0.2-0.7C41.7,10.6,41.9,10.5,42,10.5z M45.4,7h5.7
			c0.1,0,0.2,0.1,0.2,0.3c0,0.2-0.1,0.5-0.2,0.6c-0.2,0.2-0.4,0.3-0.7,0.3c-0.1,0-0.5,0-1-0.1c-0.5,0-1.1,0-1.7,0
			c-1,0-1.8,0.1-2.3,0.2c-0.3,0.1-0.4,0.2-0.5,0.2c-0.4,0-0.6-0.3-0.6-0.7c0-0.2,0.1-0.4,0.3-0.6C44.8,7,45.1,7,45.4,7z"/>
		<path class="st0" d="M64,12.5c0,0.5-0.2,1.3-0.7,2.5c-0.5,1.3-0.9,1.9-1.2,1.9c-0.7,0-1.1-1-1.4-2.9c-0.1-1.1-0.2-2.4-0.2-3.8
			c0-1.2,0.1-2.7,0.4-4.5c0.3-2.3,0.8-3.5,1.3-3.5c0.5,0,0.7,0.3,0.8,0.9c-0.1,0.2-0.3,1.1-0.8,2.7c-0.4,1.7-0.6,3.2-0.6,4.7
			c0,1.5,0.1,2.7,0.3,3.6c0.1,0.5,0.2,0.7,0.3,0.7c0.1,0,0.4-0.5,0.8-1.4c0.4-0.9,0.7-1.4,0.8-1.4C63.9,12.1,64,12.2,64,12.5z
			 M75.6,14.4c-0.1,0.3-0.3,0.7-0.7,1.2c-0.4,0.5-0.7,0.7-0.9,0.7c-0.2,0-0.6-0.3-1.2-0.9c-0.7-0.7-1.4-1.2-2-1.6
			c-0.3,1.7-1.3,2.6-2.8,2.6c-0.7,0-1.3-0.2-1.8-0.5c-0.6-0.4-1-1-1-1.8c0-1.5,1.1-2.2,3.3-2.2c0.3,0,0.7,0.1,1.3,0.2
			c0-1.3,0-3.1-0.1-5.6c-1.2,0-2,0.1-2.6,0.2c-0.1,0-0.3,0.1-0.7,0.2C66.1,7,65.9,7,65.7,7c-0.3,0-0.5-0.2-0.5-0.6
			c0-0.2,0.1-0.4,0.2-0.6c0.2-0.2,1.5-0.3,4.1-0.3c-0.1-1.3-0.1-2.1-0.1-2.4c0-0.5,0.2-0.8,0.6-0.8c0.5,0,0.7,0.3,0.7,1v2.2
			c2.3,0,2.9,0,1.7-0.1c1.1,0,1.6,0.2,1.7,0.4c-0.2,0.9-0.5,1.3-0.9,1.3c-0.2,0-0.6-0.1-1.2-0.2c-0.6-0.2-1.1-0.3-1.3-0.3v1.6
			c0,0.3,0,1,0,2.1c0,0.9,0,1.7,0,2.2c0.1,0,0.8,0.3,2.1,0.9c0.9,0.4,1.6,0.6,2.2,0.6C75.5,14.2,75.6,14.2,75.6,14.4z M69.7,13.3
			c-0.7-0.3-1.4-0.4-1.9-0.4c-1.1,0-1.7,0.4-1.7,1.3c0,0.4,0.2,0.7,0.6,0.9c0.3,0.2,0.7,0.3,1,0.3C68.9,15.4,69.5,14.7,69.7,13.3z"
			/>
		<path class="st0" d="M79.5,4.5h2.4c0-0.8,0-1.7-0.1-2.6c0-0.6,0.2-0.9,0.6-0.9c0.4,0,0.7,0.3,0.7,0.9c0,0.9,0,1.8-0.1,2.6h2.1
			c0.1,0,0.2,0.1,0.2,0.3c0,0.3-0.1,0.5-0.2,0.7c-0.2,0.2-0.4,0.3-0.7,0.3c-0.1,0-0.5,0-1-0.1c-0.2,0-0.4,0-0.6,0c0,0.3,0,0.6,0,0.9
			l0,1.8c0,0,0,0,0.1,0c0.1,0,0.4,0.3,1.1,0.8c0.7,0.6,1,1,1,1.2c0,0.3-0.2,0.5-0.5,0.5c-0.1,0-0.2-0.1-0.3-0.2
			c-0.6-0.6-1.1-0.9-1.4-1.1l0.1,6.9c0,1-0.2,1.5-0.7,1.5c-0.4,0-0.6-0.5-0.6-1.5c0-2.5,0-4.6,0-6.5c-0.3,0.4-0.6,0.8-0.9,1.2
			c-0.5,0.6-1,1-1.6,1.4c-0.1,0.1-0.2,0.1-0.3,0.1c-0.3,0-0.6-0.2-0.9-0.6c-0.3-0.3-0.4-0.6-0.4-0.9c0-0.2,0.2-0.3,0.5-0.3
			c0.4-0.1,0.8-0.1,1-0.2c0.5-0.2,1-0.5,1.5-1c0.5-0.5,0.9-1,1.2-1.7c0-0.6,0-1.1,0-1.6c0-0.3,0-0.6,0-0.9c-1,0-1.8,0.1-2.3,0.2
			C79.3,5.9,79.2,6,79.1,6c-0.4,0-0.6-0.2-0.6-0.6c0-0.2,0.1-0.4,0.3-0.6C78.9,4.5,79.2,4.5,79.5,4.5z M89.8,11.3
			c0-0.6,0-1.2-0.1-1.9c0-0.6,0.2-0.9,0.6-0.9c0.4,0,0.6,0.3,0.6,0.9c0,0.7,0,1.3-0.1,1.9c0.7,0,1.4,0.1,2.2,0.2
			c0.9,0.1,1.7,0.1,2.5,0.1c0.3,0,0.6,0,0.9-0.1c0.1,0,0.1,0.1,0.1,0.3c0,0.4-0.1,0.8-0.3,1.2c-0.2,0.4-0.4,0.6-0.6,0.6
			c-0.2,0-0.5-0.1-0.7-0.2c-0.9-0.5-1.8-0.8-2.6-0.9c-0.4-0.1-0.9-0.1-1.4-0.1l0.1,3.9c0,1-0.2,1.5-0.7,1.5c-0.4,0-0.6-0.5-0.6-1.5
			c0-1.6,0-2.9,0-3.9c-0.8,0-1.6,0.1-2.2,0.3c-0.7,0.2-1.4,0.6-2.1,0.9c-0.2,0.1-0.4,0.2-0.5,0.2c-0.4,0-0.5-0.3-0.6-0.7
			c0-0.2,0.1-0.5,0.3-0.7c0.2-0.2,0.4-0.3,0.7-0.4C87.3,11.6,88.8,11.3,89.8,11.3z M90.4,3.4c0.5,0,1.3,0,2.1,0.1
			c0.2,0,0.4-0.1,0.6-0.1c0.3,0,0.5,0.2,0.5,0.6c0,0,0,0.1-0.1,0.2c-0.1,0.3-0.2,0.6-0.3,0.9c-0.1,0.4-0.1,0.9-0.1,1.4
			c0,0.6,0.1,1,0.2,1.1c0.2,0.2,0.5,0.3,0.8,0.3c0.5,0,1.1-0.2,1.7-0.5c0.1,0,0.2-0.1,0.3-0.1c0.1,0,0.2,0.1,0.2,0.4
			c0,0.5-0.1,1-0.3,1.3c-0.2,0.4-0.4,0.6-0.7,0.6c-1.1,0-1.9-0.2-2.6-0.6c-0.4-0.3-0.7-0.8-0.7-1.6c0-0.7,0.1-1.6,0.2-2.5
			c0-0.2,0-0.3-0.1-0.4c-0.2,0-0.6-0.1-1.1-0.1c-0.4,0-0.8,0-1.2,0c-0.1,0.6-0.2,1.2-0.4,1.8c-0.3,1-0.8,1.7-1.2,2.3
			c-0.7,0.7-1.2,1.1-1.8,1.1c-0.2,0-0.4-0.1-0.6-0.3c-0.3-0.3-0.4-0.7-0.4-1c0-0.2,0.1-0.3,0.3-0.3c0.6-0.1,1.1-0.3,1.5-0.5
			c0.6-0.3,1.1-1,1.5-2.1c0.1-0.3,0.2-0.6,0.2-0.9c-0.5,0-1,0.2-1.4,0.3C87.3,5,87.1,5,87.1,5c-0.4,0-0.5-0.2-0.6-0.5
			c0-0.6,0.3-1,0.8-1c0.5,0,1.1-0.1,1.7-0.1c0-0.3,0-0.6,0-1C89,2.1,89,1.8,89,1.5C89,1.1,89.1,1,89.4,1c0.4,0,0.6,0.2,0.6,0.6
			C90,2.2,90,2.8,89.9,3.4C90.1,3.4,90.3,3.4,90.4,3.4z"/>
		<path class="st0" d="M99.1,13.7c0.3,0.1,0.6,0.1,0.7,0.1c0.4,0,0.9-0.2,1.5-0.6c0.2,0,0.2,0.1,0.2,0.3c0,0.2-0.2,0.6-0.7,1.2
			c-0.4,0.7-0.8,1-1.1,1c-0.2,0-0.5-0.1-0.6-0.4c-0.2-0.4-0.3-0.8-0.3-1.2C98.9,13.9,99,13.7,99.1,13.7z M103.4,1
			c0.4,0,0.6,0.2,0.6,0.7c0,0.3-0.1,0.7-0.4,1c-0.7,1.1-1.5,2-2.3,2.7c-0.2,0.1-0.2,0.3-0.2,0.5c0,0,0.1,0.2,0.4,0.3
			c0.3,0.1,0.6,0.3,0.9,0.6c0,0,0,0.1,0.1,0.1c0.7-0.8,1.4-1.6,2.1-2.4c0.1-0.1,0.2-0.1,0.4-0.1c0.1,0,0.2,0.1,0.3,0.2
			c0.1,0.1,0.1,0.3,0.1,0.5c0,0.2-0.1,0.4-0.2,0.5c-1.1,1.3-2.2,2.7-3.3,4.1c-0.1,0.1-0.1,0.2-0.1,0.4c0,0,0,0.1,0.1,0.1
			c0.2,0,0.6,0.1,1.2,0.1c0.9,0,1.6,0,2.2-0.1c0.1,0,0.2-0.1,0.2-0.3c-0.2-0.5-0.5-1-0.8-1.4c-0.1-0.1-0.1-0.2-0.1-0.3
			c0-0.1,0-0.2,0.1-0.4c0.1-0.1,0.3-0.2,0.4-0.2c0.1,0,0.2,0.1,0.4,0.4c0.3,0.5,0.6,1.1,1,1.8c0.2,0.3,0.2,0.6,0.2,0.8
			c0,0.5-0.2,0.8-0.6,0.8c-0.2-0.1-0.5-0.1-0.7-0.1c-0.5,0-1,0.1-1.6,0.1c0,0.1,0,0.3,0,0.5c-0.1,0.7-0.1,1.2-0.1,1.8l0.1,2.9
			c0,1-0.2,1.5-0.7,1.5c-0.4,0-0.6-0.5-0.6-1.5c0.1-1.2,0.1-2.2,0.1-2.9c0-0.5,0-1.1-0.1-1.8c0-0.2,0-0.4,0.1-0.5
			c-0.4,0-0.8,0-1.2-0.1c-0.3,0-0.7,0-1.1,0.1c-0.5,0-0.8-0.2-0.8-0.6c0-0.2,0.1-0.5,0.3-0.7c0.7-0.8,1.3-1.5,2-2.3c0,0-0.1,0-0.1,0
			c-0.9-0.6-1.6-0.9-2.1-1.1c-0.2-0.1-0.4-0.2-0.4-0.5c0-0.2,0.1-0.4,0.3-0.6c0.4-0.2,0.7-0.6,1.1-1.1c0.8-0.8,1.6-1.9,2.3-3.2
			C103.1,1.1,103.3,1,103.4,1z M104.9,12.6c0.1,0,0.2,0,0.3,0.1c0.3,0.4,0.6,0.6,1,0.8c0.2,0.1,0.3,0.2,0.3,0.4
			c0,0.3-0.1,0.5-0.3,0.7c-0.2,0.2-0.4,0.2-0.7,0.2c-0.2,0-0.4-0.3-0.6-0.8c-0.2-0.5-0.3-0.8-0.3-1
			C104.6,12.7,104.7,12.6,104.9,12.6z M109,2c0.2,0,0.3,0,0.4,0.1c0.1,0,0.2,0,0.2,0l4,0.1c0.4-0.1,0.7-0.1,0.8-0.1
			c0.5,0,0.8,0.2,0.8,0.7c-0.2,1.8-0.3,3.6-0.4,5.6c0,1.1,0,3.2,0,6.4c0,0.1,0,0.1,0,0.2c0.4,0,0.7,0,1,0c0.4,0,0.9-0.1,1.5-0.2
			c0.1,0,0.2,0.2,0.2,0.5c0,0.5-0.2,1-0.5,1.6c-0.2,0.4-0.4,0.6-0.6,0.6c-0.2,0-0.5-0.1-0.9-0.4c-0.5-0.4-1.1-0.6-1.8-0.8
			c-0.7-0.2-1.5-0.2-2.3-0.2c-1,0-1.9,0.1-2.8,0.2c-0.5,0.1-1.4,0.4-2.4,1c-0.5,0-0.7-0.2-0.7-0.7c0-0.3,0.1-0.5,0.3-0.7
			c0.2-0.3,0.6-0.5,1-0.5c0.7-0.1,1.3-0.2,1.8-0.3c0,0,0-0.1,0-0.2c0.1-1.9,0.1-3.7,0.1-5.7c0-1.7-0.1-3.9-0.2-6.6
			C108.3,2.2,108.5,2,109,2z M109.6,6.3c0.1,0,0.1,0,0.2,0h3.8c0.1,0,0.1,0,0.1,0c0-1.1,0.1-2,0.1-2.8c0-0.2-0.1-0.3-0.2-0.3
			c-1.1,0-2.4,0-4,0.1C109.6,4,109.6,5,109.6,6.3z M109.6,15c0.7-0.1,1.3-0.1,1.7-0.1c0.7,0,1.4,0,2.3,0.1c0-0.2,0-0.3,0-0.6
			c0-1,0-2,0-2.9c-1.7,0-3,0.1-3.9,0.2c0,0-0.1,0-0.1,0c0,0.8,0,1.6,0,2.4C109.7,14.4,109.6,14.7,109.6,15z M109.6,10.5
			c0.1,0,0.2,0,0.2,0h3.8c0-1.1,0-2.2,0-3.1c0,0-0.1,0-0.1,0c-1.7,0-3,0.1-3.9,0.2C109.6,8.4,109.6,9.4,109.6,10.5z"/>
		<path class="st0" d="M136,13.1c-0.1,0.3-0.3,0.7-0.7,1.2s-0.7,0.7-0.9,0.7c0,0-0.8-0.6-2.6-1.7c-0.4,0.8-0.9,1.7-1.6,2.6
			c-0.8,1.1-1.5,1.7-2.1,1.7c-0.2,0-0.6-0.2-1.1-0.5c-0.5-0.3-0.7-0.6-0.7-0.9c0-0.1,0.4-0.3,1.2-0.5c1.4-0.5,2.5-1.5,3.3-3
			c-1.4-0.8-2.9-1.4-4.5-1.9c-1.9,2.8-3.4,4.3-4.5,4.3c-0.4,0-0.8-0.2-1.1-0.7c-0.2-0.4-0.4-0.8-0.4-1.4c0-1.2,0.6-2.2,1.7-2.8
			c0.9-0.5,1.9-0.7,3-0.7c0.1,0,0.4,0,0.8,0.1c0.4-0.7,1.4-2.5,2.8-5.3c-1,0-1.6,0-2,0.1c-0.7,0.1-1.4,0.2-1.9,0.4
			c-0.6,0.2-0.9,0.3-0.9,0.3c-0.4,0-0.6-0.2-0.6-0.5c0-0.7,0.3-1.1,0.9-1.2c0.9-0.2,1.9-0.4,3-0.4h2c0.8,0,1.1,0.2,1.1,0.7
			c0,0.3-0.5,1.3-1.4,2.9c-0.8,1.4-1.4,2.5-2,3.3c1.2,0.4,2.6,0.9,4.4,1.5c0.3-0.8,0.4-1.6,0.5-2.3c0-0.4,0.2-0.5,0.5-0.5
			s0.5,0.2,0.5,0.6c0,0.7-0.2,1.5-0.6,2.6c1.2,0.5,2.3,0.9,3.3,1C135.8,12.8,136,12.9,136,13.1z M125.2,10.6c-0.4,0-0.6,0-0.8,0
			c-0.8,0-1.4,0.2-2,0.6c-0.7,0.4-1.1,1.1-1.1,1.9c0,0.6,0.2,0.8,0.5,0.8C122.6,13.8,123.7,12.8,125.2,10.6z"/>
		<path class="st0" d="M153,14c0,0.6-0.1,1.1-0.4,1.5c-0.3,0.4-0.7,0.7-1.1,0.8c-0.8,0.2-2.2,0.3-4.4,0.3c-4,0-6-1-6-3.1
			c0-1,0.4-1.9,1.1-2.8c0.1-0.2,0.8-0.9,2.1-2.1c-0.1-1-0.2-1.8-0.2-2.6V3.7c0-1.5,0.2-2.3,0.7-2.3c0.5,0,0.7,0.3,0.7,0.9
			c0,0.1,0,0.3-0.1,0.5c-0.1,0.3-0.1,0.5-0.1,0.6c-0.1,0.7-0.1,1.6-0.1,2.7c0,0.5,0,1.1,0.1,1.5c2-1.7,3.2-2.6,3.5-2.6
			c0.3,0,0.4,0.1,0.5,0.3c0.1,0.2,0.2,0.3,0.3,0.5c0,0.4-0.3,0.7-0.7,1c-0.9,0.5-1.8,1.1-2.7,1.6c-1.3,0.8-2.3,1.6-3,2.3
			c-0.9,0.9-1.4,1.8-1.4,2.7c0,1.1,0.9,1.7,2.6,1.7c1.1,0,2.5-0.1,4-0.3c1.3-0.2,2.4-0.5,3.3-0.8c0.4-0.2,0.7-0.2,0.9-0.2
			C153,13.7,153,13.8,153,14z"/>
		<path class="st0" d="M157.2,13.7c0.3,0.1,0.6,0.1,0.7,0.1c0.4,0,0.9-0.2,1.5-0.6c0.2,0,0.2,0.1,0.2,0.3c0,0.2-0.2,0.6-0.7,1.2
			c-0.4,0.7-0.8,1-1.1,1c-0.2,0-0.5-0.1-0.6-0.4c-0.2-0.4-0.3-0.8-0.3-1.2C157,13.9,157.1,13.7,157.2,13.7z M161.5,1
			c0.4,0,0.6,0.2,0.6,0.7c0,0.3-0.1,0.7-0.4,1c-0.7,1.1-1.5,2-2.3,2.7c-0.2,0.1-0.2,0.3-0.2,0.5c0,0,0.1,0.2,0.4,0.3
			c0.3,0.1,0.6,0.3,0.9,0.6c0,0,0,0.1,0.1,0.1c0.7-0.8,1.4-1.6,2.1-2.4c0.1-0.1,0.2-0.1,0.4-0.1c0.1,0,0.2,0.1,0.3,0.2
			c0.1,0.1,0.1,0.3,0.1,0.5c0,0.2-0.1,0.4-0.2,0.5c-1.1,1.3-2.2,2.7-3.3,4.1c-0.1,0.1-0.1,0.2-0.1,0.4c0,0,0,0.1,0.1,0.1
			c0.2,0,0.6,0.1,1.2,0.1c0.9,0,1.6,0,2.2-0.1c0.1,0,0.2-0.1,0.2-0.3c-0.2-0.5-0.5-1-0.8-1.4c-0.1-0.1-0.1-0.2-0.1-0.3
			c0-0.1,0-0.2,0.1-0.4c0.1-0.1,0.3-0.2,0.4-0.2c0.1,0,0.2,0.1,0.4,0.4c0.3,0.5,0.6,1.1,1,1.8c0.2,0.3,0.2,0.6,0.2,0.8
			c0,0.5-0.2,0.8-0.6,0.8c-0.2-0.1-0.5-0.1-0.7-0.1c-0.5,0-1,0.1-1.6,0.1c0,0.1,0,0.3,0,0.5c-0.1,0.7-0.1,1.2-0.1,1.8l0.1,2.9
			c0,1-0.2,1.5-0.7,1.5c-0.4,0-0.6-0.5-0.6-1.5c0.1-1.2,0.1-2.2,0.1-2.9c0-0.5,0-1.1-0.1-1.8c0-0.2,0-0.4,0.1-0.5
			c-0.4,0-0.8,0-1.2-0.1c-0.3,0-0.7,0-1.1,0.1c-0.5,0-0.8-0.2-0.8-0.6c0-0.2,0.1-0.5,0.3-0.7c0.7-0.8,1.3-1.5,2-2.3c0,0-0.1,0-0.1,0
			c-0.9-0.6-1.6-0.9-2.1-1.1c-0.2-0.1-0.4-0.2-0.4-0.5c0-0.2,0.1-0.4,0.3-0.6c0.4-0.2,0.7-0.6,1.1-1.1c0.8-0.8,1.6-1.9,2.3-3.2
			C161.2,1.1,161.4,1,161.5,1z M163,12.6c0.1,0,0.2,0,0.3,0.1c0.3,0.4,0.6,0.6,1,0.8c0.2,0.1,0.3,0.2,0.3,0.4c0,0.3-0.1,0.5-0.3,0.7
			c-0.2,0.2-0.4,0.2-0.7,0.2c-0.2,0-0.4-0.3-0.6-0.8c-0.2-0.5-0.3-0.8-0.3-1C162.7,12.7,162.8,12.6,163,12.6z M167.1,2
			c0.2,0,0.3,0,0.4,0.1c0.1,0,0.2,0,0.2,0l4,0.1c0.4-0.1,0.7-0.1,0.8-0.1c0.5,0,0.8,0.2,0.8,0.7c-0.2,1.8-0.3,3.6-0.4,5.6
			c0,1.1,0,3.2,0,6.4c0,0.1,0,0.1,0,0.2c0.4,0,0.7,0,1,0c0.4,0,0.9-0.1,1.5-0.2c0.1,0,0.2,0.2,0.2,0.5c0,0.5-0.2,1-0.5,1.6
			c-0.2,0.4-0.4,0.6-0.6,0.6c-0.2,0-0.5-0.1-0.9-0.4c-0.5-0.4-1.1-0.6-1.8-0.8c-0.7-0.2-1.5-0.2-2.3-0.2c-1,0-1.9,0.1-2.8,0.2
			c-0.5,0.1-1.4,0.4-2.4,1c-0.5,0-0.7-0.2-0.7-0.7c0-0.3,0.1-0.5,0.3-0.7c0.2-0.3,0.6-0.5,1-0.5c0.7-0.1,1.3-0.2,1.8-0.3
			c0,0,0-0.1,0-0.2c0.1-1.9,0.1-3.7,0.1-5.7c0-1.7-0.1-3.9-0.2-6.6C166.4,2.2,166.6,2,167.1,2z M167.7,6.3c0.1,0,0.1,0,0.2,0h3.8
			c0.1,0,0.1,0,0.1,0c0-1.1,0.1-2,0.1-2.8c0-0.2-0.1-0.3-0.2-0.3c-1.1,0-2.4,0-4,0.1C167.7,4,167.7,5,167.7,6.3z M167.7,15
			c0.7-0.1,1.3-0.1,1.7-0.1c0.7,0,1.4,0,2.3,0.1c0-0.2,0-0.3,0-0.6c0-1,0-2,0-2.9c-1.7,0-3,0.1-3.9,0.2c0,0-0.1,0-0.1,0
			c0,0.8,0,1.6,0,2.4C167.8,14.4,167.7,14.7,167.7,15z M167.7,10.5c0.1,0,0.2,0,0.2,0h3.8c0-1.1,0-2.2,0-3.1c0,0-0.1,0-0.1,0
			c-1.7,0-3,0.1-3.9,0.2C167.7,8.4,167.7,9.4,167.7,10.5z"/>
		<path class="st0" d="M178.1,13.6c0.3,0.1,0.6,0.1,0.7,0.1c0.4,0,0.9-0.2,1.4-0.6c0.1,0,0.1,0.1,0.1,0.3c0,0.2-0.2,0.6-0.6,1.2
			c-0.4,0.6-0.7,1-1,1c-0.2,0-0.4-0.1-0.6-0.4c-0.2-0.3-0.3-0.7-0.3-1.1C178,13.8,178,13.6,178.1,13.6z M181.6,1.1
			c0.4,0,0.6,0.2,0.6,0.7c0,0.3-0.1,0.6-0.2,0.9c-0.5,0.9-1.1,1.8-1.7,2.4c-0.1,0.1-0.2,0.3-0.2,0.4c0,0,0.1,0.1,0.3,0.3
			c0.2,0.1,0.4,0.3,0.7,0.6l0,0c0.5-0.7,1-1.3,1.5-1.9c0.1-0.1,0.2-0.1,0.3-0.1c0.1,0,0.2,0.1,0.3,0.2c0.1,0.1,0.1,0.3,0.1,0.5
			c0,0.2-0.1,0.4-0.2,0.5c-1,1.3-1.9,2.6-2.9,4c-0.1,0.1-0.1,0.2-0.1,0.3c0,0,0,0.1,0,0.1c0.1,0,0.4,0.1,0.8,0.1
			c0.7,0,1.3,0,1.8-0.1c0.1,0,0.2-0.1,0.2-0.3c-0.2-0.4-0.3-0.8-0.6-1.2c-0.1-0.1-0.1-0.2-0.1-0.3c0-0.1,0-0.2,0.1-0.4
			c0.1-0.1,0.3-0.2,0.4-0.2c0.1,0,0.2,0.1,0.3,0.3c0.2,0.4,0.5,1,0.8,1.7c0.1,0.3,0.2,0.6,0.2,0.8c0,0.4-0.2,0.6-0.6,0.6
			c-0.2-0.1-0.4-0.1-0.7-0.1c-0.2,0-0.5,0.1-0.7,0.1c0,0.1,0.1,0.3,0.1,0.5c-0.1,0.7-0.1,1.3-0.1,1.9l0.1,3.2c0,1-0.2,1.5-0.7,1.5
			c-0.4,0-0.6-0.5-0.6-1.5c0-1.4,0.1-2.4,0.1-3.2c0-0.6,0-1.2-0.1-1.9c0-0.2,0-0.4,0-0.5h0c-0.3,0-0.6,0-1-0.1c-0.3,0-0.7,0-1,0.1
			c-0.5,0-0.7-0.2-0.7-0.6c0-0.2,0.1-0.5,0.2-0.7c0.7-0.8,1.3-1.7,2-2.5c0,0-0.1,0-0.1,0c-0.8-0.5-1.4-0.8-1.8-0.9
			c-0.2-0.1-0.3-0.2-0.3-0.4c0-0.2,0.1-0.4,0.3-0.6c0.3-0.2,0.6-0.6,0.9-1c0.7-0.8,1.3-1.7,1.8-2.9C181.3,1.2,181.4,1.1,181.6,1.1z
			 M183,12.9c0.1,0,0.2,0,0.3,0.1c0.2,0.4,0.5,0.6,0.8,0.7c0.2,0.1,0.3,0.2,0.3,0.4c0,0.3-0.1,0.5-0.3,0.7c-0.2,0.2-0.4,0.3-0.7,0.3
			c-0.1,0-0.3-0.3-0.5-0.8c-0.2-0.5-0.2-0.8-0.2-1C182.8,13,182.8,12.9,183,12.9z M186,5c0.4,0,0.6,0.2,0.6,0.6v1.2h1.8l0.1-1.3
			c0.1-0.3,0.3-0.5,0.6-0.5c0.4,0,0.6,0.2,0.6,0.6l-0.4,1.1h2.1c-0.1-1.8-0.1-3.5-0.1-4.9c0-0.5,0.2-0.7,0.6-0.7
			c0.4,0,0.5,0.3,0.6,0.7c0,0.9-0.1,1.8-0.1,2.7c0,0.7,0,1.5,0.1,2.2h3c0.2,0,0.3,0.1,0.3,0.3c0,0.3-0.1,0.6-0.2,0.8
			c-0.2,0.2-0.4,0.3-0.7,0.3c-0.3,0-0.9-0.1-1.9-0.2c-0.1,0-0.3,0-0.4,0c0,0.4,0.1,0.7,0.1,1.1c0.2,1.5,0.5,2.8,0.8,3.9
			c0,0,0-0.1,0.1-0.1c0.4-1,0.7-2,0.8-3c0-0.4,0.2-0.6,0.5-0.6c0.1,0,0.2,0.1,0.3,0.2c0.1,0.1,0.2,0.3,0.2,0.4l0,0.1
			c-0.1,0.4-0.2,1-0.4,1.8c-0.2,0.9-0.5,1.7-0.9,2.5c0.6,1,1.2,1.7,2,2.1c0.2,0.1,0.3,0.2,0.3,0.5c0,0.2-0.2,0.5-0.5,0.8
			c-0.3,0.3-0.6,0.4-0.9,0.4c-0.2,0-0.5-0.1-0.7-0.4c-0.4-0.4-0.8-1-1.1-1.8c-0.3,0.5-0.6,0.9-1,1.3c-0.6,0.5-1.1,0.8-1.3,0.8
			c-0.2,0-0.4-0.1-0.7-0.4c-0.2-0.3-0.3-0.5-0.3-0.7c0-0.2,0.1-0.3,0.4-0.4c0.5-0.1,1-0.5,1.6-1c0.3-0.2,0.5-0.5,0.8-0.9
			c-0.2-0.4-0.3-0.9-0.4-1.4c-0.4-1.6-0.7-3.3-0.8-5.1c-0.6,0-1.1,0-1.8,0c-1.8,0-3.2,0.1-4,0.2c-0.5,0.1-0.8,0.2-0.9,0.2
			c-0.4,0-0.6-0.3-0.6-0.7c0-0.2,0.1-0.4,0.3-0.6c0.2-0.1,0.4-0.2,0.7-0.2h0.8c0,0,0-0.1,0-0.1l-0.3-1.1C185.5,5.2,185.6,5,186,5z
			 M187.4,1.1c0.5,0,0.7,0.2,0.7,0.7c-0.1,0.5-0.1,0.9-0.2,1.3h2.3c0.1,0,0.2,0.1,0.2,0.3c0,0.2-0.1,0.5-0.2,0.6
			c-0.2,0.2-0.4,0.3-0.7,0.3c-0.1,0-0.4,0-0.8-0.1c-0.4,0-0.9,0-1.4,0c-0.9,0-1.6,0.1-2,0.2c-0.2,0.1-0.4,0.2-0.5,0.2
			c-0.4,0-0.6-0.2-0.6-0.6c0-0.2,0.1-0.4,0.3-0.6c0.2-0.1,0.4-0.2,0.7-0.2h1.6c0-0.4-0.1-0.8-0.2-1.2C186.8,1.4,187,1.1,187.4,1.1z
			 M185.6,9.1c0.2,0,0.4,0,0.5,0.1c0.2,0.1,0.4,0.1,0.8,0.1h1.1c0.3,0,0.6,0,0.9,0.1c0.2,0,0.4-0.1,0.7-0.2c0.4,0,0.6,0.2,0.6,0.7
			c0,0,0,0.1,0,0.2c-0.1,0.2-0.1,0.5-0.1,1.1c0,0.7-0.1,1.4-0.1,2.1c0,0.5,0,1.1,0.1,2c0,0.5-0.2,0.7-0.5,0.7
			c-0.7-0.1-1.4-0.2-2-0.2c-0.7,0-1.2,0-1.4,0.1c-0.2,0-0.4,0.1-0.6,0.1c-0.3,0-0.5-0.2-0.5-0.6c0.1-1.1,0.2-2,0.2-2.8
			c0-0.8-0.1-1.7-0.2-2.8C185.1,9.4,185.3,9.1,185.6,9.1z M187.5,14.8c0.3,0,0.7,0,1.1,0.1c0.2,0,0.3-0.1,0.3-0.3V13
			c-1.1,0-2,0.1-2.7,0.2c0,0.4,0,0.9-0.1,1.3c0,0.2,0.1,0.4,0.4,0.4C186.9,14.8,187.2,14.8,187.5,14.8z M186.3,12.1L186.3,12.1h2.7
			v-1.4c0-0.2,0-0.3-0.1-0.3c-0.5-0.1-1.2-0.1-2.2-0.1c-0.2,0-0.3,0.2-0.3,0.5C186.3,11.3,186.3,11.7,186.3,12.1z M195,2.7
			c0.4,0,0.6,0.2,0.6,0.6c0,0.3,0,0.5-0.1,0.6c-0.9,0.8-1.4,1.2-1.5,1.2c-0.3,0-0.4-0.1-0.4-0.4c0-0.1,0.3-0.6,0.8-1.7
			C194.6,2.8,194.8,2.7,195,2.7z"/>
		<path class="st0" d="M205,7.5c0.5,0,0.7,0.2,0.7,0.7l0.3,5.9c0,0,0,0,0,0c0.8-0.1,1.5-0.1,2-0.1c0.6,0,1.3,0,2,0.1l0.6-6
			c0.1-0.4,0.3-0.6,0.7-0.6c0.5,0,0.7,0.3,0.7,0.8l-1.1,5.9c0.5,0,1.1,0.1,1.7,0.2c1.3,0.2,2.5,0.2,3.6,0.2c0.3,0,0.6,0,1-0.1
			c0.1,0,0.1,0.1,0.1,0.3c0,0.4-0.1,0.9-0.3,1.3c-0.2,0.5-0.4,0.7-0.7,0.7c-0.3,0-0.7-0.1-1-0.3c-1.4-0.6-2.7-1-3.8-1.2
			c-0.9-0.1-2-0.2-3.3-0.2c-1.5,0-2.9,0.1-4,0.4c-1.2,0.3-2.4,0.7-3.5,1.3c-0.4,0.2-0.6,0.2-0.9,0.2c-0.4,0-0.6-0.3-0.6-0.8
			c0-0.3,0.1-0.5,0.3-0.7c0.2-0.2,0.4-0.3,0.7-0.4c2-0.4,3.8-0.7,5.2-0.9c0-0.1,0-0.2-0.1-0.3l-0.8-5.7C204.3,7.7,204.5,7.5,205,7.5
			z M207.9,1.4c0.5,0,0.8,0.3,0.8,0.9c-0.1,0.8-0.2,1.6-0.2,2.3h5.7c0.2,0,0.3,0.1,0.3,0.3c0,0.3-0.1,0.6-0.2,0.8
			c-0.2,0.2-0.4,0.3-0.7,0.3c-0.3,0-1-0.1-2.1-0.2c-1.1,0-2.4-0.1-3.8-0.1c-2.1,0-3.6,0.1-4.5,0.3c-0.5,0.1-0.9,0.2-1,0.2
			c-0.4,0-0.7-0.3-0.7-0.7c0-0.2,0.1-0.5,0.3-0.6c0.2-0.1,0.4-0.2,0.8-0.2h4.8c0-0.8-0.1-1.5-0.3-2.2C207.1,1.7,207.4,1.4,207.9,1.4
			z"/>
		<path class="st0" d="M228.4,1.4c0.5,0,0.8,0.3,0.8,0.8l-0.1,5.2c0.1,0,0.1,0,0.2,0h4.7c0.2,0,0.3,0.1,0.3,0.2
			c0,0.3-0.1,0.6-0.2,0.9c-0.2,0.2-0.4,0.4-0.7,0.4c-0.1,0-0.4-0.1-0.8-0.2c-0.4,0-0.9-0.1-1.4-0.1c-0.9,0-1.5,0-1.9,0.1
			c-0.1,0-0.2,0.1-0.3,0.1l-0.1,6c1,0,2.3,0.2,3.7,0.4c1.3,0.2,2.4,0.3,3.2,0.3c0.4,0,0.9,0,1.3-0.1c0.1,0,0.2,0.1,0.2,0.2
			c0,0.5-0.1,1-0.3,1.5c-0.2,0.4-0.5,0.6-0.7,0.6c-0.2,0-0.4-0.1-0.7-0.2c-1.3-0.6-2.4-0.9-3.6-1.1c-1-0.2-2.3-0.3-3.8-0.3
			c-1.8,0-3.2,0.2-4.3,0.5c-1.1,0.3-2.1,0.6-2.9,1c-0.3,0.2-0.5,0.2-0.7,0.2c-0.5,0-0.8-0.3-0.8-0.7c0-0.3,0.1-0.5,0.3-0.8
			c0.2-0.2,0.4-0.3,0.7-0.4c3.3-0.7,5.8-1.1,7.2-1.1l-0.1-12.6C227.8,1.6,228,1.4,228.4,1.4z"/>
		<path class="st0" d="M245.3,12c-0.1,0.6-0.4,1.5-0.9,2.7c-0.6,1.4-1.1,2-1.5,2c-0.5,0-0.9-0.6-1.3-1.9c-0.4-1.3-0.6-2.9-0.6-4.9
			c0-1.3,0.1-2.7,0.4-4.3c0.4-2.2,0.8-3.3,1.5-3.3c0.4,0,0.7,0.2,0.7,0.7c0,0.2-0.2,1.1-0.7,2.5c-0.5,1.3-0.7,2.8-0.7,4.4
			c0,0.8,0.1,1.7,0.2,2.6c0.2,1.3,0.4,1.9,0.7,1.9c0.3,0,0.7-0.4,1.2-1.3c0.5-0.9,0.7-1.4,0.9-1.4C245.2,11.7,245.2,11.8,245.3,12z
			 M254.8,6.3c0,0.2-0.1,0.5-0.3,0.8c-0.2,0.3-0.4,0.5-0.7,0.5c-0.1,0-0.4-0.1-0.9-0.2c-0.4-0.1-0.8-0.1-1.4-0.1
			c0,2.3-0.1,4-0.3,4.9c-0.3,1.8-0.9,3.2-1.9,4.3c-0.7,0.8-1.3,1.2-1.9,1.2c-0.2,0-0.5-0.1-0.9-0.4c-0.4-0.3-0.7-0.6-0.7-0.8
			c0-0.1,0.3-0.2,1-0.5c1.1-0.4,1.9-1.1,2.5-2.1c0.7-1.1,1-2.7,1-4.8c0-0.2,0-0.5,0-1c0-0.4,0-0.7,0-0.9c-1.3,0-2.3,0.2-3.1,0.3
			c-0.6,0.2-0.8,0.2-0.8,0.2c-0.3,0-0.4-0.2-0.4-0.5c0-0.7,0.4-1.1,1.2-1.2c0.7,0,1.8-0.1,3.1-0.1c-0.1-2.2-0.2-3.3-0.2-3.4
			c0-0.6,0.2-0.8,0.6-0.8c0.4,0,0.6,0.3,0.7,0.8c0.1,0.6,0.1,1.7,0.2,3.5c0.2,0,0.6,0,1,0c0.4,0,0.8,0,1,0
			C254.3,5.9,254.8,6,254.8,6.3z M255.4,2.7c0,0.2-0.2,0.4-0.4,0.7c-0.2,0.3-0.4,0.5-0.5,0.5c-0.2,0-0.6-0.3-1.2-1
			c-0.6-0.7-0.8-1.1-0.8-1.4c0-0.2,0.1-0.3,0.2-0.3c0.1,0,0.3,0.1,0.7,0.4c0.4,0.3,1,0.5,1.7,0.6C255.3,2.4,255.4,2.6,255.4,2.7z
			 M258,1.4c0,0.2-0.2,0.4-0.4,0.7c-0.2,0.3-0.4,0.5-0.5,0.5c-0.2,0-0.6-0.3-1.2-1c-0.6-0.7-0.8-1.1-0.8-1.4c0-0.2,0.1-0.3,0.2-0.3
			c0.1,0,0.3,0.2,0.7,0.5c0.5,0.3,1.1,0.5,1.7,0.6C257.9,1.1,258,1.2,258,1.4z"/>
		<path class="st0" d="M273.4,6.9c0,0.3-0.3,0.6-0.8,1c-1.2,0.9-2.9,2-5.1,3.4c0,0.1,0,0.4,0,0.8c0,0.3,0,0.6,0,0.8
			c0,0.5-0.2,0.7-0.7,0.7c-0.3,0-0.4-0.2-0.5-0.6c0-0.1,0-0.4,0-1c-0.8,0.5-1.4,0.8-1.7,1.1c-0.7,0.6-1.1,1.1-1.1,1.7
			c0,0.4,0.3,0.6,1,0.8c0.5,0.1,1,0.2,1.5,0.2c1.5,0,2.8-0.3,4-0.8c0.9-0.4,1.4-0.6,1.4-0.6c0.1,0,0.2,0.1,0.2,0.4
			c0,0.5-0.1,1-0.4,1.5c-0.2,0.4-0.7,0.6-1.6,0.8c-0.7,0.1-1.4,0.1-2.3,0.1c-1.1,0-2.1-0.1-2.9-0.4c-1.3-0.4-1.9-1.1-1.9-2
			c0-0.8,0.5-1.6,1.4-2.4c0.1-0.2,0.9-0.7,2.2-1.7c0-0.9-0.1-1.4-0.1-1.6c-0.2-0.6-0.5-0.9-1.1-0.9c-0.7,0-1.4,0.2-1.9,0.5
			c-0.2,0.1-0.8,0.6-1.7,1.4c-0.1,0.1-0.2,0.2-0.4,0.3c-0.4,0-0.6-0.3-0.6-0.9c0-0.4,0.4-0.9,1.2-1.4c1.1-0.8,2.1-1.8,3-3.2
			c-0.4,0.1-1.1,0.2-2,0.3c0,0-0.3,0.1-0.8,0.2c-0.4,0.1-0.6,0.2-0.8,0.2c-0.3,0-0.5-0.2-0.5-0.7c0-0.6,0.4-0.9,1.2-1
			c0.7,0,1.9-0.1,3.3-0.1c0.1-0.3,0.4-0.9,0.8-1.9c0.2-0.5,0.4-0.7,0.8-0.7c0.5,0,0.7,0.2,0.7,0.7c0,0.2-0.3,0.8-0.9,1.9
			c0.4,0,1.1,0,1.9,0c0.9,0,1.5,0,1.9,0c0.1,0,0.3,0,0.5,0c0.2,0,0.4-0.1,0.5-0.1c0.1,0,0.2,0.1,0.2,0.2c0,0.3-0.2,0.6-0.4,1
			c-0.3,0.4-0.5,0.6-0.8,0.6c-0.2,0-0.5-0.1-0.8-0.2c-0.3-0.1-0.5-0.1-0.8-0.2c-0.6-0.2-1.6-0.3-2.8-0.3c-0.6,1-1.3,1.9-1.9,2.6
			c0.5-0.1,1-0.1,1.4-0.1c1.1,0,1.8,0.8,1.8,2.3c0,0.2,0,0.3,0.1,0.4c1.8-1.3,3.3-2.4,4.4-3.3c0.4-0.3,0.7-0.4,0.9-0.4
			C273.2,6.2,273.4,6.4,273.4,6.9z"/>
		<path class="st0" d="M278.3,4.5h2.4c0-0.8,0-1.6,0-2.4c0-0.7,0.2-1,0.7-1c0.4,0,0.6,0.2,0.6,0.7c0,0.1,0,0.4-0.1,0.7
			c0,0.4,0,0.7,0,0.9c0,0.4,0,0.7,0,1.1h2.1c0.1,0,0.2,0.1,0.2,0.3c0,0.3-0.1,0.5-0.2,0.7c-0.2,0.2-0.4,0.3-0.7,0.3h-1.4
			c0,1.3,0,2.5,0.1,3.6c0.8-0.2,1.4-0.4,1.8-0.5c0.2,0,0.2,0.1,0.2,0.4c0,0.3-0.1,0.5-0.3,0.6c-0.6,0.2-1.2,0.4-1.7,0.6
			c0,1.6,0.1,2.9,0.1,3.7c0,1.4-0.3,2.4-0.8,3c-0.4,0.5-1,0.8-1.6,0.8c-0.3,0-0.6-0.1-0.9-0.4c-0.2-0.2-0.3-0.5-0.3-0.7
			c0-0.3,0.1-0.4,0.4-0.5c0.9-0.3,1.5-0.6,1.7-1.1c0.2-0.3,0.2-0.8,0.2-1.5c0-1,0-2,0-3c-1.1,0.5-2.1,1-3.1,1.5
			c-0.4,0-0.6-0.2-0.6-0.6c0-0.3,0.1-0.6,0.2-0.7c0.1-0.2,0.3-0.4,0.6-0.5c1.2-0.4,2.2-0.7,3-1c0-1.1,0-2.2-0.1-3.3
			c0-0.2,0-0.4,0-0.6h-0.1c-1,0-1.8,0.1-2.3,0.2C278.2,5.9,278,6,277.9,6c-0.4,0-0.6-0.2-0.6-0.6c0-0.2,0.1-0.4,0.3-0.6
			C277.8,4.5,278,4.5,278.3,4.5z M289,14c0.8,0,1.8,0.1,2.9,0.2c0.8,0.1,1.6,0.1,2.2,0.1c0.4,0,0.9-0.1,1.4-0.2
			c0.1,0,0.2,0.2,0.2,0.5c0,0.5-0.2,1-0.5,1.6c-0.2,0.4-0.4,0.6-0.6,0.6c-0.3,0-0.6-0.1-1-0.4c-0.6-0.4-1.3-0.7-2-0.8
			c-0.8-0.2-1.7-0.3-2.7-0.3c-1,0-1.9,0.1-2.8,0.2c-0.5,0.1-1.4,0.4-2.5,1c-0.5,0-0.7-0.2-0.7-0.7c0-0.3,0.1-0.5,0.3-0.7
			c0.2-0.3,0.6-0.5,1-0.5C286.3,14.2,287.9,14,289,14z M285.9,2.8c0.2,0,0.4,0,0.6,0.1c0.2,0.1,0.5,0.1,0.9,0.1h2.5
			c0.6,0,1.2,0,2,0.1c0.2,0,0.4-0.1,0.7-0.2c0.4,0,0.6,0.2,0.6,0.7c0,0,0,0.1,0,0.2C293,4.1,293,4.6,293,5.3c0,0.9-0.1,1.8-0.1,2.8
			c0,0.7,0,1.6,0.1,2.7c0,0.6-0.2,0.8-0.6,0.8c-1.4-0.2-2.6-0.3-3.7-0.3c-1,0-1.7,0-2,0.1c-0.2,0-0.5,0.1-0.9,0.2
			c-0.4,0-0.6-0.2-0.6-0.6c0.1-1.4,0.1-2.6,0.1-3.7c0-1.1,0-2.4-0.1-3.9C285.3,3,285.5,2.8,285.9,2.8z M288.8,10.3
			c0.8,0,1.8,0,2.8,0.1c0.2,0,0.3-0.1,0.3-0.4V7.5c0,0-0.1,0-0.1,0c-2.2,0-3.9,0.1-5.1,0.2c0,0,0,0-0.1,0c0,0.8,0,1.5-0.1,2.2
			c0,0.3,0.2,0.5,0.5,0.5C287.5,10.3,288.1,10.3,288.8,10.3z M286.7,6.5c0.1,0,0.1,0,0.2,0h4.9c0,0,0.1,0,0.1,0V4.5
			c0-0.2-0.1-0.3-0.2-0.3c-1.1-0.1-2.6-0.1-4.6-0.1c-0.3,0-0.4,0.2-0.4,0.5C286.7,5.2,286.7,5.9,286.7,6.5z"/>
		<path class="st0" d="M297.9,3.7c0.4,0.1,0.6,0.1,0.8,0.1c0.8,0,1.8-0.4,3.1-1.1c0.2,0,0.2,0.1,0.2,0.3c0,0.3-0.4,0.8-1.2,1.6
			c-0.8,0.8-1.5,1.3-2.1,1.3c-0.3,0-0.5-0.2-0.7-0.5c-0.2-0.4-0.3-0.8-0.3-1.3C297.6,3.8,297.7,3.7,297.9,3.7z M305.7,1.5
			c0.5,0,0.8,0.3,0.8,0.8l-0.1,5.6l4,0.1c0.2,0,0.5,0,1-0.1c0.5,0,0.8,0.2,0.8,0.6c-0.2,2.3-0.3,4.7-0.3,7.2c0,0.6-0.3,0.8-0.7,0.8
			c-1.3-0.1-3-0.2-5.1-0.2c-2.2,0-4.1,0.1-5.7,0.3c-0.4,0-0.6-0.2-0.6-0.6c0-0.5,0.1-0.7,0.4-0.8c1.1-0.1,2.8-0.2,4.9-0.2
			c1.3,0,3,0,5.3,0.1c0.3,0,0.4-0.3,0.4-0.8c0-0.6,0-1.2,0-1.7c0,0,0,0,0,0c-4.4,0-7.8,0.1-10.3,0.2c-0.4,0-0.6-0.2-0.6-0.6
			c0-0.4,0.3-0.7,0.8-0.7h10.1c0,0,0,0,0,0c0-0.8,0-1.5,0-2.1c0-0.2-0.1-0.4-0.4-0.4c-0.8-0.1-2.3-0.1-4.5-0.1
			c-1.7,0-3.6,0.1-5.7,0.3c-0.3,0-0.5-0.2-0.5-0.6c0-0.5,0.2-0.8,0.6-0.8l4.9-0.1L305,2.3C305,1.7,305.2,1.5,305.7,1.5z M309.7,2.6
			c0,0,0.1,0,0.1,0.1c0.9,0.6,1.7,1,2.2,1.2c0.4,0.2,0.9,0.3,1.5,0.3c0.2,0,0.2,0.1,0.2,0.3c0,0.3-0.1,0.6-0.4,0.9
			c-0.6,0.4-1,0.6-1.3,0.6c-0.2,0-0.3-0.1-0.5-0.2c-0.3-0.2-1-1-2-2.5c-0.1-0.1-0.1-0.2-0.1-0.3C309.4,2.7,309.5,2.6,309.7,2.6z"/>
	</g>
</g>
<g>
	<g>
		<path class="st0" d="M-290.7,1.1c0.3,0,0.5,0.2,0.5,0.5c0,0.2-0.1,0.5-0.2,0.7c-0.6,0.8-1.2,1.5-1.8,2.1c0.1,0.2,0.1,0.4,0.1,0.7
			c-0.1,1.4-0.1,2.6-0.1,3.7l0,7.7c0,1-0.2,1.5-0.7,1.5c-0.4,0-0.6-0.5-0.6-1.5c0.1-3.3,0.1-5.9,0.1-7.7c0-1,0-2.1-0.1-3.4
			c-0.3,0.2-0.5,0.5-0.8,0.7c-0.6,0.4-1,0.7-1.4,0.7c-0.3,0-0.6-0.1-0.9-0.4c-0.3-0.3-0.4-0.6-0.4-0.9c0-0.2,0.1-0.4,0.4-0.4
			c1.1-0.3,2-0.7,2.9-1.3c1-0.6,1.8-1.4,2.6-2.5C-290.9,1.1-290.8,1.1-290.7,1.1z M-285.6,9.8c0-0.3,0-0.6,0-1
			c0-0.6,0.2-0.9,0.6-0.9c0.4,0,0.6,0.3,0.6,0.9c0,0.3,0,0.7,0,1c0.8,0,1.6,0.1,2.5,0.2c0.9,0.1,1.8,0.1,2.6,0.1c0.3,0,0.6,0,1-0.1
			c0.1,0,0.1,0.1,0.1,0.3c0,0.4-0.1,0.9-0.3,1.3c-0.2,0.5-0.4,0.7-0.7,0.7c-0.2,0-0.5-0.1-0.8-0.3c-1-0.5-1.9-0.9-2.8-1.1
			c-0.5-0.1-1.1-0.2-1.7-0.2c0,0.2,0,0.4,0,0.6l0.1,5c0,1-0.2,1.5-0.7,1.5c-0.4,0-0.6-0.5-0.6-1.5c0-2.1,0.1-3.8,0.1-5
			c0-0.2,0-0.4,0-0.6c-0.8,0-1.6,0.1-2.2,0.3c-0.8,0.2-1.6,0.6-2.3,1c-0.2,0.1-0.4,0.2-0.6,0.2c-0.4,0-0.5-0.3-0.6-0.7
			c0-0.3,0.1-0.5,0.3-0.7c0.2-0.2,0.4-0.4,0.7-0.4C-288.2,10.1-286.6,9.9-285.6,9.8z M-290.3,14.2c0.4,0.1,0.6,0.1,0.8,0.1
			c0.5,0,1.1-0.2,1.8-0.7c0.2,0,0.2,0.1,0.2,0.3c0,0.2-0.3,0.7-0.8,1.4c-0.5,0.7-0.9,1.1-1.3,1.1c-0.3,0-0.5-0.2-0.7-0.5
			c-0.2-0.4-0.3-0.8-0.3-1.3C-290.6,14.3-290.5,14.2-290.3,14.2z M-288.2,1.7c0.2,0,0.4,0,0.6,0.1c0.2,0.1,0.5,0.1,0.9,0.1h2.4
			c0.5,0,1.2,0,2,0.1c0.2,0,0.4-0.1,0.7-0.2c0.4,0,0.6,0.2,0.6,0.7c0,0,0,0.1,0,0.2c-0.1,0.2-0.1,0.4-0.1,0.8c0,0.6-0.1,1.1-0.1,1.8
			c0,0.4,0,0.8,0.1,1.5c0,0.5-0.2,0.7-0.6,0.7c-1.2-0.1-2.2-0.2-3.2-0.2c-1.2,0-1.9,0-2.2,0c-0.3,0-0.6,0.1-1,0.1
			c-0.4,0-0.6-0.2-0.6-0.6c0.1-0.9,0.2-1.6,0.2-2.3c0-0.6-0.1-1.3-0.2-2.2C-288.7,2-288.5,1.7-288.2,1.7z M-285,6.2
			c0.7,0,1.5,0,2.3,0.1c0.2,0,0.3-0.1,0.3-0.3V3.3c0-0.2-0.1-0.3-0.2-0.3C-283.5,3-285,3-287,3c-0.3,0-0.4,0.2-0.4,0.5
			c0,0.9-0.1,1.7-0.2,2.5c0,0.3,0.2,0.4,0.5,0.4C-286.5,6.3-285.8,6.2-285,6.2z M-282.2,13.6c0,0,0,0,0.1,0c0.6,0.4,1.1,0.7,1.5,0.8
			c0.3,0.1,0.6,0.2,1.1,0.2c0.2,0,0.2,0.1,0.2,0.3c0,0.3-0.1,0.6-0.4,0.9c-0.6,0.4-1,0.6-1.3,0.6c-0.1,0-0.2-0.1-0.3-0.2
			c-0.1-0.2-0.5-0.8-1.1-2c0-0.1-0.1-0.2-0.1-0.2C-282.4,13.7-282.3,13.6-282.2,13.6z"/>
		<path class="st0" d="M-267.4,1.2c0.3,0,0.4,0.2,0.5,0.5c0.2,0.1,0.5,0.3,0.9,0.6c3,2.3,4.9,3.6,5.7,3.9c0.5,0.2,1.1,0.3,1.7,0.3
			c0.3,0,0.4,0.1,0.4,0.4c0,0.4-0.2,0.7-0.7,1.1c-0.5,0.4-0.9,0.5-1.4,0.5c-0.3,0-0.6-0.2-0.9-0.5c-1.2-1.3-2.6-2.7-4.2-4.1
			c-0.7-0.5-1.2-1-1.8-1.2c-0.1,0-0.1-0.1-0.2-0.1c-1,1.3-2.1,2.4-3.3,3.3c-1,0.8-2.2,1.5-3.5,2.1c-0.3,0.1-0.5,0.2-0.6,0.2
			c-0.3,0-0.7-0.2-1.1-0.7c-0.3-0.3-0.5-0.6-0.5-0.9c0-0.2,0.2-0.3,0.6-0.4c1-0.1,1.7-0.2,2.2-0.4c1.2-0.3,2.3-0.9,3.3-1.7
			c1.1-0.8,2-1.8,2.7-2.8C-267.8,1.3-267.6,1.2-267.4,1.2z M-270.9,7.3h7.7c0.2,0,0.3,0.1,0.3,0.3c0,0.3-0.1,0.6-0.2,0.8
			c-0.2,0.2-0.4,0.3-0.7,0.3c-0.2,0-0.6-0.1-1.3-0.2c-0.5,0-1.1-0.1-1.7-0.1l0,2.9h3.1c0.2,0,0.3,0.1,0.3,0.3c0,0.3-0.1,0.6-0.2,0.8
			c-0.2,0.2-0.4,0.3-0.7,0.3c-0.2,0-0.6-0.1-1.2-0.2c-0.4,0-0.8-0.1-1.3-0.1l0,3.1c0.7,0,1.5,0,2.3,0c0.9,0,1.7,0,2.4,0
			c0.3,0,0.6,0,0.9-0.1c0.1,0,0.1,0.1,0.1,0.3c0,0.4-0.1,0.8-0.3,1.2c-0.2,0.4-0.4,0.6-0.6,0.6c-0.2,0-0.5-0.1-0.7-0.2
			c-0.9-0.4-1.8-0.7-2.6-0.8c-0.6-0.1-1.4-0.1-2.3-0.1c-1,0-1.9,0.1-2.6,0.2c-0.8,0.2-1.5,0.4-2.3,0.6c-0.2,0.1-0.4,0.1-0.6,0.1
			c-0.4,0-0.5-0.3-0.6-0.7c0-0.2,0.1-0.5,0.3-0.7c0.2-0.2,0.4-0.3,0.6-0.4c2.1-0.2,3.7-0.2,4.7-0.3l0-3.1c-1.1,0-1.9,0.1-2.4,0.2
			c-0.3,0.1-0.5,0.2-0.6,0.2c-0.4,0-0.6-0.2-0.6-0.6c0-0.2,0.1-0.4,0.3-0.6c0.2-0.1,0.4-0.2,0.7-0.2h2.6l0-2.9c-1.1,0-2,0.1-2.5,0.2
			c-0.4,0.1-0.6,0.2-0.7,0.2c-0.4,0-0.7-0.3-0.7-0.7c0-0.2,0.1-0.4,0.3-0.6C-271.5,7.3-271.2,7.3-270.9,7.3z"/>
		<path class="st0" d="M-248.7,1c0.2,0,0.3,0.1,0.3,0.4c0,0.2-0.1,0.4-0.2,0.5c-0.8,0.3-1.5,0.5-2.1,0.7c0,0.1,0.1,0.3,0.1,0.5
			c0,1,0,1.9-0.1,2.8c0.9,0,1.5,0,2-0.1c0.2,0,0.2,0.2,0.2,0.5c0,0.2-0.1,0.3-0.2,0.5c-0.2,0.2-0.4,0.3-0.6,0.3
			c-0.4,0-0.9-0.1-1.4-0.1c0,0.1,0,0.2,0,0.3l0,1.7c0,0,0,0,0.1,0c0.1,0,0.4,0.3,1,0.8c0.6,0.5,0.9,0.9,0.9,1.1
			c0,0.4-0.2,0.6-0.6,0.6c-0.1,0-0.1-0.1-0.3-0.2c-0.5-0.4-0.9-0.8-1.1-0.9l0,6.1c0,1-0.2,1.5-0.7,1.5c-0.4,0-0.6-0.5-0.6-1.5
			c0-2.3,0-4.3,0.1-6c-0.3,0.5-0.6,0.9-1,1.3c-0.4,0.5-1,1-1.6,1.3c-0.1,0.1-0.2,0.1-0.3,0.1c-0.3,0-0.6-0.2-0.9-0.6
			c-0.3-0.3-0.4-0.6-0.4-0.9c0-0.2,0.2-0.2,0.5-0.3c0.4-0.1,0.7-0.1,0.9-0.2c0.5-0.2,1-0.5,1.4-0.9c0.4-0.4,0.8-1,1.1-1.5
			c0-0.1,0.1-0.1,0.2-0.2c0-0.4,0-0.8,0-1.2c0-0.1,0-0.2,0-0.4c-0.3,0-0.5,0-0.8,0c-0.5,0-1.2,0.1-2.2,0.3c-0.4,0-0.6-0.2-0.6-0.6
			c0-0.2,0.1-0.4,0.3-0.6c0.2-0.2,0.3-0.3,0.5-0.3l0.8,0.1c0.7,0,1.4,0,2,0c0-0.9,0-1.8-0.1-2.8c0,0,0-0.1,0-0.1
			c-0.3,0.1-0.6,0.1-0.8,0.2c-0.7,0.2-1.2,0.2-1.4,0.2c-0.3,0-0.6-0.1-0.9-0.4c-0.2-0.2-0.3-0.5-0.3-0.7c0-0.2,0.1-0.3,0.3-0.3
			c1.5,0,2.7-0.1,3.7-0.3c1-0.2,1.8-0.4,2.4-0.6C-248.9,1-248.8,1-248.7,1z M-245.3,5.1h5.3c0.1,0,0.2,0.1,0.2,0.2
			c0,0.3-0.1,0.5-0.2,0.7c-0.2,0.2-0.4,0.3-0.7,0.3c-0.1,0-0.4,0-0.9-0.1c-0.4,0-0.8,0-1.2,0c0,0.1-0.1,0.2-0.1,0.4
			c-0.3,0.4-0.7,0.8-1.1,1.1c0.4,0.6,0.8,1.2,1,1.8c0,0,0.1,0,0.1,0c1.2-0.6,2.1-1.1,2.8-1.7c0.1-0.1,0.2-0.1,0.2-0.1
			c0.4,0,0.6,0.3,0.6,0.8c0,0.2-0.1,0.4-0.3,0.5c-0.4,0.3-1,0.5-1.7,0.8c0.1,0.1,0.1,0.2,0.2,0.3c1.5,2.2,2.4,3.4,2.8,3.6
			c0.2,0.1,0.5,0.3,0.8,0.3c0.2,0,0.3,0.1,0.3,0.4c0,0.3-0.2,0.6-0.6,0.9c-0.4,0.3-0.8,0.4-1.2,0.4c-0.3,0-0.6-0.1-0.8-0.4
			c-0.5-1.2-1-2.5-1.6-3.8c-0.3-0.5-0.5-0.9-0.7-1.2c-0.1-0.1-0.1-0.2-0.1-0.3c-0.3,0.1-0.4,0.2-0.5,0.2c0,0,0,0.1,0,0.1
			c0.3,1.1,0.5,2.2,0.5,3.2c0,0.9-0.1,1.7-0.3,2.3c-0.3,0.6-0.6,1.2-1.1,1.6c-0.3,0.3-0.6,0.4-0.8,0.4c-0.4,0-0.7-0.1-1-0.3
			c-0.2-0.2-0.4-0.5-0.4-0.8c0-0.1,0.1-0.3,0.2-0.4c0.9-0.3,1.5-0.8,1.8-1.2c0.3-0.5,0.4-1,0.4-1.6c0-0.3,0-0.6,0-0.9
			c-0.8,0.9-1.4,1.4-1.8,1.8c-0.6,0.4-1.3,0.8-2.1,1.1c-0.2,0.1-0.4,0.1-0.5,0.1c-0.4,0-0.7-0.1-0.9-0.4c-0.2-0.2-0.3-0.4-0.3-0.7
			c0-0.2,0.1-0.3,0.2-0.3c0.9-0.1,1.6-0.3,2.1-0.5c0.5-0.2,0.9-0.4,1.3-0.7c0.5-0.3,1-0.8,1.7-1.5c0,0,0.1,0,0.1,0
			c-0.1-0.3-0.2-0.6-0.3-0.9c0-0.1-0.1-0.3-0.1-0.4c-0.6,0.7-1.1,1.2-1.5,1.4c-0.5,0.3-1,0.6-1.6,0.8c-0.1,0.1-0.3,0.1-0.4,0.1
			c-0.3,0-0.6-0.1-0.8-0.4c-0.2-0.2-0.3-0.4-0.3-0.7c0-0.2,0.1-0.3,0.2-0.3c0.7-0.1,1.2-0.2,1.7-0.3c0.4-0.1,0.7-0.3,1-0.5
			c0.4-0.2,0.8-0.5,1.3-1c0,0,0,0,0,0c-0.2-0.4-0.4-0.7-0.6-1c-0.3,0.3-0.7,0.5-1.1,0.8c-0.4,0.3-0.8,0.5-1.1,0.5
			c-0.2,0-0.4-0.1-0.7-0.4c-0.2-0.2-0.3-0.4-0.3-0.7c0-0.2,0.1-0.3,0.3-0.3c0.8-0.2,1.6-0.5,2.2-0.8c0.5-0.3,1.1-0.7,1.6-1.1
			c-0.6,0-1.1,0.1-1.4,0.1c-0.2,0.1-0.4,0.1-0.5,0.1c-0.4,0-0.5-0.2-0.6-0.6c0-0.2,0.1-0.4,0.3-0.6C-245.8,5.2-245.6,5.1-245.3,5.1z
			 M-242.9,0.9c0.5,0,0.7,0.3,0.7,0.8c-0.1,0.4-0.1,0.7-0.2,1.1c1.4,0,2.6,0.1,3.6,0.3l0.7-0.2c0.3,0,0.5,0.2,0.5,0.5
			c0,0.1,0,0.2-0.1,0.4C-237.9,4.2-238,5-238,6c0,0.4-0.2,0.6-0.5,0.6c-0.3,0-0.4-0.2-0.4-0.5c0-0.6,0-1.2,0.1-1.7
			c0-0.1-0.1-0.1-0.2-0.2c-1-0.3-2.3-0.4-3.6-0.4c-1.3,0-2.5,0.1-3.6,0.3c-0.3,0-0.5,0.2-0.6,0.4l0,0.1c0,1.1-0.1,1.7-0.2,1.9
			c-0.1,0.2-0.2,0.3-0.5,0.3c-0.2,0-0.3-0.1-0.3-0.3c0-1.3-0.1-2.4-0.2-3.3c0-0.4,0.2-0.6,0.5-0.6c0.2,0,0.4,0,0.5,0.1
			c0.2,0.1,0.4,0.1,0.5,0.1c0.7-0.1,1.6-0.1,2.8-0.1c0.1,0,0.2,0,0.4,0c0-0.3-0.1-0.6-0.2-0.9C-243.6,1.2-243.4,0.9-242.9,0.9z"/>
		<path class="st0" d="M-230.1,1c0.3,0,0.5,0.2,0.5,0.5c0,0.2-0.1,0.4-0.2,0.6c-0.5,0.8-1,1.6-1.6,2.3c0.1,0.2,0.1,0.4,0.1,0.6
			c-0.1,1.4-0.1,2.6-0.1,3.7l0,7.7c0,1-0.2,1.5-0.7,1.5c-0.4,0-0.6-0.5-0.6-1.5c0.1-3.3,0.1-5.9,0.1-7.7c0-1,0-2-0.1-3.1
			c-0.1,0.1-0.2,0.2-0.2,0.2c-0.5,0.4-0.8,0.6-1.1,0.6c-0.3,0-0.6-0.1-0.9-0.4c-0.3-0.3-0.4-0.6-0.4-0.9c0-0.2,0.1-0.4,0.4-0.4
			c0.9-0.2,1.6-0.7,2.3-1.2c0.8-0.6,1.5-1.4,2.1-2.4C-230.2,1-230.1,1-230.1,1z M-223.8,1.8c0.3,0,0.4,0.1,0.4,0.4
			c0,0.3-0.1,0.5-0.3,0.6c-0.9,0.3-1.6,0.5-2.3,0.7l0,1.4h3c0.1,0,0.2,0.1,0.2,0.3c0,0.3-0.1,0.5-0.2,0.6c-0.2,0.2-0.4,0.3-0.7,0.3
			c-0.1,0-0.5,0-1.1-0.1c-0.4,0-0.8,0-1.3,0V7c0.5,0,1,0,1.6,0.1c0.2,0,0.4,0,0.6-0.1c0.4,0,0.6,0.2,0.6,0.6c0,0,0,0.1-0.1,0.1
			c-0.1,0.1-0.1,0.4-0.1,0.8c0,0.5-0.1,1-0.1,1.6c0,0.4,0,0.8,0.1,1.4c0,0.4-0.2,0.7-0.5,0.7c-0.8-0.1-1.5-0.2-2.2-0.2v1h2.2
			c0.2,0,0.2,0.1,0.2,0.4c0,0.2-0.1,0.3-0.2,0.4c-0.1,0.2-0.3,0.3-0.5,0.3c-0.4-0.1-1-0.1-1.8-0.2v1c0.9-0.1,1.6-0.2,2.1-0.3
			c0.2,0,0.2,0.1,0.2,0.4c0,0.3-0.1,0.5-0.3,0.6c-2,0.5-3.9,1-5.6,1.6c-0.4,0-0.6-0.2-0.6-0.6c0-0.3,0.1-0.6,0.2-0.7
			c0.1-0.1,0.2-0.2,0.5-0.3c0.9-0.2,1.8-0.4,2.5-0.5V14c-0.1,0-0.2,0-0.3,0c-0.4,0-1,0.1-1.8,0.3c-0.4,0-0.6-0.2-0.6-0.5
			c0-0.2,0.1-0.3,0.2-0.5c0.1-0.2,0.3-0.2,0.5-0.2h2v-1c-0.8,0-1.4,0-1.6,0.1c-0.2,0-0.5,0.1-0.8,0.2c-0.3,0-0.5-0.2-0.5-0.7
			c0.1-0.8,0.1-1.5,0.1-2.1c0-0.6,0-1.2-0.1-2c0-0.4,0.2-0.6,0.6-0.6c0.2,0,0.3,0,0.5,0c0.2,0,0.4,0,0.8,0h1.1V5.9
			c-1,0-1.8,0.1-2.3,0.2c-0.3,0.1-0.5,0.2-0.6,0.2c-0.4,0-0.5-0.3-0.6-0.7c0-0.2,0.1-0.4,0.3-0.6c0.2-0.1,0.4-0.2,0.7-0.2h2.5l0-1.1
			c-0.1,0-0.3,0.1-0.4,0.1c-0.7,0.1-1.1,0.2-1.3,0.2c-0.3,0-0.6-0.1-0.8-0.4c-0.2-0.2-0.3-0.4-0.3-0.6c0-0.2,0.1-0.3,0.3-0.3
			c1.4,0,2.5-0.1,3.4-0.3c0.9-0.1,1.6-0.3,2.3-0.5C-223.9,1.8-223.9,1.8-223.8,1.8z M-227.1,11.1l0-1.1c-0.6,0-1.2,0.1-1.6,0.1
			c0,0-0.1,0-0.1,0c0,0.2-0.1,0.4-0.1,0.6c0,0.3,0.1,0.5,0.4,0.5C-228.1,11.1-227.6,11.1-227.1,11.1z M-228.7,9
			C-228.7,9-228.7,9-228.7,9h1.6V8c-0.4,0-0.8,0-1.3,0c-0.2,0-0.3,0.1-0.3,0.4C-228.7,8.6-228.7,8.8-228.7,9z M-226,10l0,1.1
			c0.4,0,0.9,0,1.3,0.1c0.2,0,0.3-0.1,0.3-0.4V10c0,0-0.1,0-0.1,0C-225,10-225.6,10-226,10z M-226,8l0,1h1.5c0.1,0,0.1,0,0.2,0V8.3
			c0-0.1-0.1-0.2-0.2-0.2C-225,8.1-225.5,8.1-226,8z M-220.4,6.2c0.2-1.5,0.3-2.9,0.3-4.1c0-0.4,0.2-0.6,0.5-0.6
			c0.4,0,0.6,0.2,0.7,0.7c0,0.1,0,0.4-0.1,0.9c-0.1,1.2-0.2,2.2-0.3,3.2h1.7c0.1,0,0.3-0.1,0.7-0.2c0.4,0,0.6,0.2,0.6,0.7
			c-0.2,1.8-0.4,3.6-0.5,5.3c-0.1,2.4-0.4,4-0.9,4.8c-0.4,0.7-1,1.1-1.6,1.1c-0.3,0-0.6-0.2-0.8-0.5c-0.1-0.3-0.2-0.6-0.2-0.8
			c0-0.3,0.1-0.4,0.3-0.5c0.8-0.1,1.4-0.4,1.6-0.9c0.3-0.5,0.5-2.1,0.7-4.7c0.1-1.6,0.1-2.6,0.1-2.9c0-0.2-0.1-0.4-0.2-0.4h-1.6h0
			c-0.1,1.2-0.3,2.1-0.4,2.9c-0.3,1.5-0.6,3-1.1,4.3c-0.4,1.1-0.9,2.1-1.6,2.9c-0.2,0.3-0.5,0.5-0.7,0.5c-0.2,0-0.4-0.1-0.6-0.4
			c-0.2-0.3-0.3-0.5-0.3-0.8c0-0.2,0.1-0.3,0.2-0.4c0.6-0.4,1.1-0.8,1.5-1.5c0.5-0.8,0.9-2,1.3-3.6c0.3-1.2,0.5-2.5,0.7-4
			c-0.3,0-0.6,0.1-0.9,0.1c-0.3,0.1-0.6,0.2-0.7,0.2c-0.3,0-0.5-0.2-0.5-0.5c0-0.5,0.2-0.9,0.6-0.9C-221.7,6.3-221.2,6.2-220.4,6.2z
			"/>
		<path class="st0" d="M-200.4,14c0,0.6-0.1,1.1-0.4,1.5c-0.3,0.4-0.7,0.7-1.1,0.8c-0.8,0.2-2.2,0.3-4.4,0.3c-4,0-6-1-6-3.1
			c0-1,0.4-1.9,1.1-2.8c0.1-0.2,0.8-0.9,2.1-2.1c-0.1-1-0.2-1.8-0.2-2.6V3.7c0-1.5,0.2-2.3,0.7-2.3c0.5,0,0.7,0.3,0.7,0.9
			c0,0.1,0,0.3-0.1,0.5c-0.1,0.3-0.1,0.5-0.1,0.6c-0.1,0.7-0.1,1.6-0.1,2.7c0,0.5,0,1.1,0.1,1.5c2-1.7,3.2-2.6,3.5-2.6
			c0.3,0,0.4,0.1,0.5,0.3c0.1,0.2,0.2,0.3,0.3,0.5c0,0.4-0.3,0.7-0.7,1c-0.9,0.5-1.8,1.1-2.7,1.6c-1.3,0.8-2.3,1.6-3,2.3
			c-0.9,0.9-1.4,1.8-1.4,2.7c0,1.1,0.9,1.7,2.6,1.7c1.1,0,2.5-0.1,4-0.3c1.3-0.2,2.4-0.5,3.3-0.8c0.4-0.2,0.7-0.2,0.9-0.2
			C-200.4,13.7-200.4,13.8-200.4,14z"/>
		<path class="st0" d="M-196.5,3.8c0.4,0,0.6,0.3,0.6,0.8c-0.1,0.6-0.1,1.2-0.1,1.7v2.8c0,0.9-0.2,1.4-0.6,1.4
			c-0.4,0-0.6-0.5-0.6-1.4c0.1-1.2,0.1-2.1,0.1-2.8c0-0.5,0-1.1-0.1-1.7C-197.1,4.1-196.9,3.8-196.5,3.8z M-194.1,0.9
			c0.4,0,0.6,0.3,0.6,0.9c-0.1,1.7-0.1,3.3-0.1,4.7l0.1,10.1c0,1-0.2,1.5-0.7,1.5c-0.4,0-0.6-0.5-0.6-1.5c0.1-4.3,0.1-7.7,0.1-10.1
			c0-1.4,0-3-0.1-4.7C-194.7,1.2-194.5,0.9-194.1,0.9z M-191.7,2c0.5,0,0.7,0.2,0.7,0.7l-1.1,2.4c-0.1,0.2-0.2,0.4-0.5,0.4
			c-0.3,0-0.4-0.2-0.4-0.5l0.7-2.5C-192.2,2.2-192,2-191.7,2z M-185.7,0.9c0.5,0,0.7,0.2,0.7,0.7l0,0.7h3.7c0.1,0,0.2,0.1,0.2,0.3
			c0,0.3-0.1,0.5-0.2,0.7c-0.2,0.2-0.4,0.3-0.7,0.3c-0.2,0-0.7,0-1.4-0.1c-0.5,0-1.1,0-1.7,0l0,1.2h3.2c0.1,0,0.2,0.1,0.2,0.3
			c0,0.3-0.1,0.5-0.2,0.7c-0.2,0.2-0.4,0.3-0.7,0.3c-0.2,0-0.5,0-1.1-0.1c-0.5,0-0.9,0-1.4,0l0,1.1c0.7,0,1.4,0.1,2.2,0.2
			c0.9,0.1,1.7,0.1,2.3,0.1c0.4,0,0.8,0,1.3-0.1c0.1,0,0.2,0.2,0.2,0.5c0,0.4-0.1,0.9-0.4,1.4c-0.2,0.4-0.4,0.6-0.5,0.6
			c-0.3,0-0.6-0.1-1-0.4c-0.7-0.4-1.4-0.8-2.1-0.9c-0.8-0.2-1.8-0.3-2.8-0.3c-1,0-2,0.1-2.9,0.2c-0.6,0.1-1.4,0.5-2.6,1.3
			c-0.4,0-0.6-0.2-0.6-0.6c0-0.3,0.1-0.5,0.3-0.7c0.2-0.3,0.5-0.5,0.9-0.5c2-0.5,3.6-0.8,4.7-0.8l0-1.1c-1,0-1.7,0.1-2.1,0.2
			c-0.3,0.1-0.5,0.2-0.6,0.2c-0.3,0-0.5-0.2-0.6-0.6c0-0.2,0.1-0.4,0.3-0.6c0.2-0.1,0.4-0.2,0.7-0.2h2.3l0-1.2
			c-1.2,0-2.1,0.1-2.6,0.2c-0.4,0.1-0.6,0.2-0.7,0.2c-0.3,0-0.5-0.2-0.6-0.6c0-0.2,0.1-0.4,0.3-0.6c0.2-0.1,0.4-0.2,0.7-0.2h2.9
			l0-0.7C-186.4,1.1-186.1,0.9-185.7,0.9z M-188.6,9c0.2,0,0.3,0,0.4,0.1l4.3,0.1c0.2,0,0.5-0.1,0.9-0.2c0.5,0,0.7,0.2,0.7,0.6
			c-0.2,1-0.3,2.2-0.3,3.6c0,0.9,0.1,2.2,0.2,3.9c0,0.6-0.2,0.9-0.7,0.9c-0.2,0-0.3-0.1-0.4-0.3c-0.1-0.3-0.1-0.7-0.1-1.2
			c0-0.5,0-1,0-1.4c-1.8,0-3.3,0.1-4.3,0.2c-0.1,0-0.1,0-0.2,0c-0.1,0.6-0.3,1-0.5,1.3c-0.5,0.8-1,1.2-1.4,1.2c-0.3,0-0.7-0.2-1-0.6
			c-0.2-0.3-0.3-0.5-0.3-0.7c0-0.1,0.1-0.2,0.2-0.2c0.7-0.1,1.2-0.4,1.6-1.2c0.3-0.5,0.4-1.5,0.4-3c0-0.8-0.1-1.6-0.2-2.5
			C-189.2,9.2-189,9-188.6,9z M-188,14.2c0,0,0.1,0,0.1,0h4.2c0-0.6,0-1.2,0-1.7c-1.8,0-3.2,0.1-4.2,0.2c0,0-0.1,0-0.1,0
			C-187.9,13.3-187.9,13.8-188,14.2z M-187.9,11.6c0.1,0,0.1,0,0.2,0h4.1c0,0,0.1,0,0.1,0c0-0.5,0.1-0.9,0.1-1.3
			c0-0.2-0.2-0.3-0.5-0.3c-1.4,0-2.7,0-3.9,0.1C-187.9,10.6-187.9,11.2-187.9,11.6z"/>
		<path class="st0" d="M-173.6,7.4c0.4,0,0.7,0.2,0.7,0.6l-0.1,1.3c1,0,1.8,0,2.5,0l0.1-1.5c0.1-0.3,0.3-0.5,0.6-0.5
			c0.4,0,0.6,0.2,0.6,0.6l-0.5,1.3c1,0,1.8,0,2.4,0c0.2,0,0.2,0.2,0.2,0.5c0,0.2-0.1,0.4-0.2,0.5c-0.2,0.2-0.4,0.4-0.6,0.4
			c-0.8,0-1.8-0.1-3.1-0.1c0,0.1,0,0.2,0,0.3c0,0.7-0.1,1.3-0.1,1.8h2.9c0.2,0,0.3,0.1,0.3,0.3c0,0.3-0.1,0.6-0.2,0.8
			c-0.2,0.2-0.4,0.3-0.7,0.3c-0.1,0-0.5-0.1-1.1-0.2c-0.4,0-0.7-0.1-1.1-0.1l0.1,2.7c0,1-0.2,1.5-0.7,1.5c-0.4,0-0.6-0.5-0.6-1.5
			c0-1.1,0.1-2,0.1-2.7c-1,0-1.7,0.1-2.2,0.3c-0.3,0.1-0.5,0.2-0.6,0.2c-0.4,0-0.7-0.3-0.7-0.7c0-0.2,0.1-0.4,0.3-0.6
			c0.2-0.1,0.4-0.2,0.8-0.2h2.4c0-0.5,0-1.1-0.1-1.8c0-0.1,0-0.2,0-0.3c-0.5,0-1,0-1.6,0c-0.5,0-1.2,0.1-2.2,0.3
			c-0.4,0-0.6-0.2-0.6-0.6c0-0.2,0.1-0.4,0.3-0.6c0.2-0.2,0.3-0.3,0.5-0.3l0.8,0.1c0.5,0,1,0,1.4,0c0-0.1,0-0.1,0-0.2l-0.4-1.2
			C-174.2,7.6-174,7.4-173.6,7.4z M-174.7,2.4l0.8,0.1c0.6,0,1.1,0,1.6,0l0-0.8c0-0.5,0.2-0.7,0.6-0.7c0.5,0,0.7,0.2,0.7,0.7l0,0.8
			c1.1,0,2,0,2.5-0.1c0.2,0,0.2,0.2,0.2,0.5c0,0.2-0.1,0.3-0.2,0.5c-0.2,0.2-0.4,0.3-0.6,0.3c-0.5,0-1.1-0.1-2-0.1l-0.1,1.9h3.2
			c0.2,0,0.3,0.1,0.3,0.3c0,0.3-0.1,0.6-0.2,0.8c-0.2,0.2-0.4,0.3-0.7,0.3c-0.2,0-0.6-0.1-1.3-0.2c-0.7,0-1.4-0.1-2.2-0.1
			c-1.3,0-2.3,0.1-2.9,0.2c-0.3,0.1-0.6,0.2-0.7,0.2c-0.4,0-0.6-0.2-0.7-0.6c0-0.2,0.1-0.5,0.3-0.6c0.2-0.1,0.4-0.2,0.7-0.2h3
			l-0.1-2c-0.1,0-0.3,0-0.5,0c-0.5,0-1.2,0.1-2.1,0.3c-0.4,0-0.6-0.2-0.6-0.6c0-0.2,0.1-0.4,0.2-0.7C-175.1,2.5-174.9,2.4-174.7,2.4
			z M-166,1.5c0.2,0,0.4,0.1,0.5,0.2c0.1,0,0.1,0,0.2,0h1.5c0.7,0,1.5,0,2.2,0.1c0.3-0.2,0.6-0.3,0.7-0.3c0.4,0,0.6,0.3,0.6,0.8
			c0,0.1,0,0.2-0.1,0.4c-0.1,0.3-0.1,1.2-0.1,2.8c0,0.7-0.2,1.3-0.7,1.8c-0.6,0.5-1.1,0.7-1.5,0.7c-0.3,0-0.6-0.2-0.8-0.5
			c-0.2-0.3-0.3-0.5-0.3-0.8c0-0.1,0.1-0.2,0.3-0.3c0.9-0.2,1.4-0.4,1.6-0.6c0.2-0.2,0.3-0.5,0.3-1c0-0.6,0-1.2,0-1.8
			c0-0.2-0.1-0.3-0.4-0.3c-1.2,0-2.2,0.1-2.9,0.2c-0.2,0.1-0.3,0.1-0.4,0.1c0,1.4-0.1,2.6-0.1,3.7l0.1,9.4c0,1-0.2,1.5-0.7,1.5
			c-0.4,0-0.6-0.5-0.6-1.5c0.1-4,0.1-7.2,0.1-9.4c0-1.3,0-2.8-0.1-4.5C-166.7,1.8-166.5,1.5-166,1.5z M-164.1,9c1.1,0,2.2,0,3.2,0.1
			c0.1,0,0.1,0,0.2-0.1c0.1-0.1,0.2-0.1,0.2-0.1c0.3,0,0.4,0.2,0.4,0.6c0,0.2,0,0.3-0.1,0.5c-0.1,0.3-0.3,0.7-0.5,1.2
			c-0.4,1.1-0.7,2-1,2.8c0.7,0.6,1.3,1,1.8,1.2c0.5,0.3,1,0.4,1.3,0.4c0.1,0,0.2,0.1,0.2,0.2c0,0.4-0.2,0.9-0.6,1.4
			c-0.3,0.3-0.5,0.4-0.8,0.4c-0.1,0-0.3-0.1-0.4-0.2c-0.2-0.2-0.8-0.7-1.6-1.8c-0.1-0.2-0.3-0.3-0.4-0.5c-0.4,0.6-0.8,1.1-1.1,1.4
			c-0.4,0.4-0.8,0.6-1,0.6c-0.3,0-0.5-0.2-0.7-0.4c-0.2-0.2-0.3-0.4-0.3-0.6c0-0.2,0.1-0.4,0.3-0.4c0.9-0.5,1.6-1,2-1.6
			c-0.3-0.3-0.5-0.6-0.7-0.7c-0.3-0.3-0.6-0.4-0.9-0.6c-0.3-0.1-0.5-0.3-0.5-0.6c0-0.4,0.2-0.6,0.5-0.7c0.1,0,0.2,0.1,0.4,0.2
			c0.7,0.5,1.3,1,1.8,1.4c0.3-0.6,0.6-1.4,1-2.4c0.1-0.3,0.2-0.6,0.2-0.7c0-0.1-0.1-0.2-0.2-0.2c-0.7,0-1.5,0-2.2,0.1
			c-0.5,0.1-0.8,0.1-0.9,0.1c-0.3,0-0.4-0.2-0.4-0.5c0-0.2,0.1-0.4,0.3-0.6C-164.5,9.2-164.3,9.1-164.1,9z"/>
		<path class="st0" d="M-152.3,1.4c0.8,0,1.7,0.1,2.5,0.2c0.2,0,0.4,0,0.7-0.1c0.4,0,0.6,0.2,0.6,0.6c0,0.1-0.1,0.3-0.3,0.4
			c-0.4,0.5-0.8,1.1-1.2,1.5c-0.6,0.9-1.4,1.8-2.3,2.7c-0.9,0.8-1.7,1.5-2.6,2c-0.3,0.2-0.6,0.3-0.8,0.3c-0.3,0-0.7-0.2-1-0.6
			c-0.2-0.3-0.3-0.6-0.3-0.9c0-0.2,0.1-0.4,0.3-0.4c1.2-0.1,2.4-0.7,3.6-1.6c0.1-0.1,0.2-0.1,0.2-0.2c0,0,0,0-0.1,0
			c-0.5-0.4-1-0.7-1.2-0.8c-0.2-0.1-0.4-0.2-0.4-0.3c0-0.5,0.2-0.8,0.7-0.8c0.1,0,0.4,0.2,0.9,0.6c0.4,0.3,0.7,0.5,0.7,0.7
			c0.6-0.6,1.1-1.2,1.7-1.9c0.2-0.2,0.3-0.3,0.3-0.4c0-0.1-0.1-0.2-0.2-0.2c-0.7,0-1.5,0.1-2.4,0.3c-0.3,0-0.5-0.2-0.5-0.6
			c0-0.2,0.1-0.4,0.2-0.6C-152.8,1.4-152.6,1.4-152.3,1.4z M-151,6.8h7.3c0.2,0,0.3,0.1,0.3,0.3c0,0.3-0.1,0.6-0.2,0.8
			c-0.2,0.2-0.4,0.3-0.7,0.3c-0.2,0-0.6-0.1-1.2-0.2c0,0.1,0,0.2,0,0.3c0,0.8,0,1.8,0,2.8h3.7c0.2,0,0.3,0.1,0.3,0.3
			c0,0.3-0.1,0.6-0.2,0.8c-0.2,0.2-0.4,0.3-0.7,0.3c-0.3,0-0.9-0.1-2-0.2c-0.3,0-0.7,0-1,0c0,0.9,0,1.9,0,3c0,0.2,0.1,0.3,0.2,0.3
			c0.2,0,0.7,0,1.6,0c1.3,0,2.5-0.2,3.5-0.5c0.2,0,0.2,0.2,0.2,0.5c0,0.4-0.1,0.9-0.4,1.4c-0.3,0.6-0.5,0.9-0.8,0.9
			c-0.2,0-1.8-0.2-4.9-0.7c-0.5-0.1-0.7-0.4-0.7-0.9c0.1-1.7,0.1-3,0.1-4c-0.4,0-0.9,0-1.4,0c-0.4,0-0.7,0-1.1,0
			c-0.1,0.6-0.2,1.1-0.4,1.5c-0.4,1.2-1,2.1-1.6,2.7c-0.8,0.9-1.6,1.3-2.3,1.3c-0.2,0-0.4-0.1-0.6-0.3c-0.3-0.4-0.5-0.7-0.5-1.1
			c0-0.2,0.1-0.3,0.4-0.4c0.7-0.1,1.4-0.4,1.8-0.7c0.8-0.4,1.4-1.2,1.9-2.6c0.1-0.2,0.1-0.4,0.2-0.6c-0.9,0-1.6,0.1-2.2,0.2
			c-0.5,0.1-0.9,0.2-1,0.2c-0.4,0-0.7-0.3-0.7-0.7c0-0.2,0.1-0.4,0.3-0.6c0.2-0.1,0.4-0.2,0.8-0.2h3c0.1-0.6,0.1-1.3,0.1-2v-1
			c0,0,0-0.1,0-0.1c-0.3,0-0.6,0-0.8,0.1c-0.3,0.1-0.6,0.2-0.7,0.2c-0.4,0-0.6-0.3-0.7-0.7c0-0.2,0.1-0.4,0.3-0.6
			C-151.5,6.9-151.3,6.8-151,6.8z M-146.7,11.1c0-0.9,0-1.9-0.1-3c0-0.1,0-0.1,0-0.2c-0.4,0-0.7,0-1.1,0c-0.4,0-0.7,0-1,0
			c0,0.1,0,0.2,0,0.3c-0.1,0.7-0.2,1.4-0.2,2.3c0,0.2,0,0.4,0,0.6H-146.7z M-143.7,1.1c0.3,0,0.5,0.2,0.5,0.7c0,0.3-0.1,0.5-0.3,0.6
			l-1.2,1c0.4,0.4,0.8,0.8,1.2,1.1c0,0,0-0.1,0.1-0.1l1.4-1.4c0.2-0.1,0.3-0.2,0.4-0.2c0.3,0,0.5,0.2,0.5,0.7c0,0.3-0.1,0.5-0.3,0.6
			l-1.5,0.9c1.2,1.1,2,1.8,2.5,2c0.4,0.2,1,0.3,1.6,0.4c0.3,0,0.4,0.1,0.4,0.4c0,0.3-0.2,0.7-0.7,1c-0.4,0.3-0.9,0.5-1.4,0.5
			c-0.3,0-0.6-0.1-0.9-0.4c-1.1-1.6-2.4-3.1-3.8-4.7c-0.6-0.6-1.1-1.1-1.6-1.4c-0.2-0.1-0.4-0.4-0.4-0.6c0-0.4,0.2-0.6,0.6-0.6
			c0.2,0,0.5,0.3,1,0.8c0.2,0.2,0.4,0.3,0.5,0.5c0,0,0-0.1,0-0.1l1.2-1.5C-143.9,1.2-143.8,1.1-143.7,1.1z"/>
		<path class="st0" d="M-131,0.9c0.3,0,0.5,0.2,0.5,0.5c0,0.2-0.1,0.4-0.2,0.6c-0.5,0.7-1,1.4-1.5,2.1c0.1,0.2,0.2,0.4,0.2,0.7
			c-0.1,1.4-0.1,2.7-0.1,3.8l-0.1,7.8c0,1-0.2,1.5-0.7,1.5c-0.4,0-0.6-0.5-0.6-1.5c0.1-3.4,0.2-6,0.2-7.8c0-1,0-2.1,0-3.4
			c-0.2,0.2-0.5,0.5-0.7,0.7c-0.5,0.4-0.9,0.7-1.2,0.7c-0.3,0-0.6-0.1-0.9-0.4c-0.3-0.3-0.5-0.6-0.5-0.9c0-0.2,0.1-0.4,0.4-0.4
			c0.9-0.3,1.8-0.7,2.5-1.3c0.8-0.6,1.6-1.4,2.3-2.5C-131.2,1-131.1,0.9-131,0.9z M-125.6,4.7c0.9,0,2,0.1,3.2,0.2
			c0.9,0.1,1.7,0.1,2.4,0.1c0.4,0,1,0,1.6-0.1c0.1,0,0.2,0.2,0.2,0.5c0,0.5-0.2,1-0.5,1.5c-0.3,0.4-0.5,0.6-0.7,0.6
			c-0.3,0-0.6-0.1-1.1-0.4c-0.7-0.4-1.4-0.8-2.2-0.9c-0.9-0.2-1.8-0.3-2.9-0.3c-0.9,0-1.8,0.1-2.6,0.2c-0.5,0.1-1.3,0.4-2.3,1
			c-0.5,0-0.7-0.2-0.7-0.6c0-0.3,0.1-0.5,0.3-0.7c0.2-0.3,0.6-0.5,1-0.5C-128.1,4.9-126.6,4.7-125.6,4.7z M-128.2,12.4
			c0.2,0,0.4,0,0.6,0.1c0.2,0,0.5,0.1,0.9,0.1h2.1c0.5,0,1,0,1.7,0.1c0.2,0,0.4-0.1,0.7-0.2c0.4,0,0.6,0.2,0.6,0.7c0,0,0,0.1,0,0.1
			c-0.1,0.1-0.1,0.4-0.1,0.8c0,0.5-0.1,1-0.1,1.6c0,0.3,0,0.7,0.1,1.2c0,0.5-0.2,0.7-0.6,0.7c-1-0.1-1.9-0.2-2.7-0.2
			c-1.1,0-1.9,0-2.2,0c-0.3,0-0.6,0.1-0.9,0.1c-0.4,0-0.6-0.2-0.6-0.6c0.1-0.8,0.2-1.5,0.2-2c0-0.5-0.1-1.2-0.2-1.9
			C-128.8,12.6-128.6,12.4-128.2,12.4z M-127.8,7.5h5.2c0.4,0,0.6,0.2,0.6,0.6c0,0.3-0.2,0.5-0.6,0.5c-2.3,0-4.1,0.1-5.3,0.2
			c-0.4,0-0.6-0.2-0.6-0.6C-128.6,7.8-128.3,7.5-127.8,7.5z M-127.8,9.9h5.2c0.4,0,0.6,0.2,0.6,0.6c0,0.3-0.2,0.5-0.6,0.5
			c-2.3,0-4.1,0.1-5.3,0.2c-0.4,0-0.6-0.2-0.6-0.6C-128.6,10.1-128.3,9.9-127.8,9.9z M-127.4,2h5.3c0.1,0,0.2,0.1,0.2,0.3
			c0,0.2-0.1,0.5-0.2,0.6c-0.2,0.2-0.4,0.3-0.7,0.3c-0.1,0-0.4,0-0.9-0.1c-0.5,0-1,0-1.6,0c-1,0-1.7,0.1-2.2,0.2
			c-0.3,0.1-0.4,0.2-0.5,0.2c-0.4,0-0.6-0.2-0.6-0.6c0-0.2,0.1-0.4,0.3-0.6C-127.9,2.1-127.7,2-127.4,2z M-125.1,16.4
			c0.5,0,1.2,0,1.8,0.1c0.2,0,0.3-0.1,0.3-0.3V14c0-0.2,0-0.3-0.1-0.3c-0.9-0.1-2.2-0.1-3.9-0.1c-0.3,0-0.4,0.2-0.4,0.5
			c0,0.7-0.1,1.3-0.2,2c0,0.3,0.2,0.4,0.5,0.4C-126.6,16.4-125.9,16.4-125.1,16.4z"/>
		<path class="st0" d="M-101.5,6.9c0,0.3-0.3,0.6-0.8,1c-1.2,0.9-2.9,2-5.1,3.4c0,0.1,0,0.4,0,0.8c0,0.3,0,0.6,0,0.8
			c0,0.5-0.2,0.7-0.7,0.7c-0.3,0-0.4-0.2-0.5-0.6c0-0.1,0-0.4,0-1c-0.8,0.5-1.4,0.8-1.7,1.1c-0.7,0.6-1.1,1.1-1.1,1.7
			c0,0.4,0.3,0.6,1,0.8c0.5,0.1,1,0.2,1.5,0.2c1.5,0,2.8-0.3,4-0.8c0.9-0.4,1.4-0.6,1.4-0.6c0.1,0,0.2,0.1,0.2,0.4
			c0,0.5-0.1,1-0.4,1.5c-0.2,0.4-0.7,0.6-1.6,0.8c-0.7,0.1-1.4,0.1-2.3,0.1c-1.1,0-2.1-0.1-2.9-0.4c-1.3-0.4-1.9-1.1-1.9-2
			c0-0.8,0.5-1.6,1.4-2.4c0.1-0.2,0.9-0.7,2.2-1.7c0-0.9-0.1-1.4-0.1-1.6c-0.1-0.6-0.5-0.9-1.1-0.9c-0.7,0-1.4,0.2-1.9,0.5
			c-0.2,0.1-0.8,0.6-1.7,1.4c-0.1,0.1-0.2,0.2-0.4,0.3c-0.4,0-0.6-0.3-0.6-0.9c0-0.4,0.4-0.9,1.2-1.4c1.1-0.8,2.1-1.8,3-3.2
			c-0.4,0.1-1.1,0.2-2,0.3c0,0-0.3,0.1-0.8,0.2c-0.4,0.1-0.6,0.2-0.8,0.2c-0.3,0-0.5-0.2-0.5-0.7c0-0.6,0.4-0.9,1.2-1
			c0.7,0,1.9-0.1,3.3-0.1c0.1-0.3,0.4-0.9,0.8-1.9c0.2-0.5,0.4-0.7,0.8-0.7c0.5,0,0.7,0.2,0.7,0.7c0,0.2-0.3,0.8-0.9,1.9
			c0.4,0,1.1,0,1.9,0c0.9,0,1.5,0,1.9,0c0.1,0,0.3,0,0.5,0c0.2,0,0.4-0.1,0.5-0.1c0.1,0,0.2,0.1,0.2,0.2c0,0.3-0.2,0.6-0.4,1
			c-0.3,0.4-0.5,0.6-0.8,0.6s-0.5-0.1-0.8-0.2c-0.3-0.1-0.5-0.1-0.8-0.2c-0.6-0.2-1.6-0.3-2.8-0.3c-0.6,1-1.3,1.9-1.9,2.6
			c0.5-0.1,1-0.1,1.4-0.1c1.1,0,1.8,0.8,1.8,2.3c0,0.2,0,0.3,0.1,0.4c1.8-1.3,3.3-2.4,4.4-3.3c0.4-0.3,0.7-0.4,0.9-0.4
			C-101.8,6.2-101.5,6.4-101.5,6.9z"/>
		<path class="st0" d="M-89.2,2c1.3,0,2.8,0.1,4.4,0.4c1.3,0.2,2.5,0.2,3.6,0.2c0.3,0,0.6,0,1-0.1c0.1,0,0.1,0.1,0.1,0.3
			c0,0.4-0.1,0.9-0.3,1.3c-0.2,0.5-0.4,0.7-0.7,0.7c-0.3,0-0.7-0.1-1-0.3c-1.3-0.6-2.6-1-3.8-1.2c-0.8-0.1-1.7-0.2-2.7-0.2l0,3.7
			l4.3,0c0.2,0,0.5-0.1,1-0.2c0.5,0,0.8,0.2,0.8,0.6c-0.3,1.2-0.4,2.7-0.4,4.5c0,1.2,0.1,2.9,0.2,5c0,0.6-0.2,0.9-0.7,0.9
			c-0.2,0-0.3-0.1-0.4-0.4c-0.1-0.3-0.1-0.7-0.1-1.2c0-3.5,0.1-6.1,0.2-8.1c0-0.1-0.2-0.2-0.6-0.2c-1.5,0-2.9,0-4.3,0l0,5
			c0.5,0,1.1,0,1.7,0.1c0.2,0,0.3-0.1,0.3-0.4c-0.1-0.4-0.1-1.1-0.1-2c0-0.8,0.2-1.2,0.6-1.2c0.4,0,0.6,0.3,0.6,0.9
			c-0.1,0.7-0.1,1.3-0.1,1.9c0,0.6,0.1,1,0.1,1.2c0,0.5-0.2,0.7-0.6,0.7c-0.6-0.1-1.6-0.2-2.9-0.2c-1,0-2,0.1-2.9,0.4
			c-0.4,0-0.6-0.3-0.6-0.8c0.1-0.4,0.1-0.8,0.1-1.2c0-0.5-0.1-1.3-0.2-2.4c0-0.4,0.2-0.6,0.6-0.6c0.4,0,0.7,0.2,0.7,0.7
			c0.1,0.4,0.1,1.3,0.1,2.6c0,0.3,0.1,0.4,0.3,0.4c0.4-0.1,0.9-0.1,1.3-0.2l0-5.1c-1.6,0-3,0-4.4,0v4.5c0,0.9-0.1,1.8-0.2,2.4
			s-0.4,1.2-0.8,1.7c-0.3,0.4-0.6,0.6-0.9,0.6c-0.3,0-0.6-0.2-0.9-0.5c-0.4-0.4-0.6-0.6-0.6-0.8c0-0.2,0.1-0.3,0.3-0.4
			c0.6-0.2,1.1-0.7,1.4-1.3c0.3-0.6,0.5-1.9,0.5-3.9c0-1-0.1-2-0.2-3.1c0-0.4,0.2-0.6,0.6-0.6c0.3,0,0.5,0.1,0.6,0.2l4.6,0l0-3.7
			c-1.2,0-2.3,0.1-3.2,0.3c-1.2,0.3-2.3,0.7-3.4,1.2c-0.3,0.1-0.6,0.2-0.8,0.2c-0.4,0-0.6-0.3-0.6-0.8c0-0.3,0.1-0.5,0.3-0.7
			C-97.5,3.1-97.3,3-97,3C-93.4,2.3-90.8,2-89.2,2z"/>
		<path class="st0" d="M-76.5,2.9h2.5c0-0.3,0-0.7,0-1c0-0.6,0.2-0.8,0.6-0.8c0.4,0,0.6,0.3,0.6,0.8c0,0.4,0,0.7,0,1h2.8
			c0.2,0,0.3,0.1,0.3,0.3c0,0.3-0.1,0.6-0.2,0.8c-0.2,0.2-0.4,0.3-0.7,0.3c-0.1,0-0.5-0.1-1.1-0.2c-0.3,0-0.7,0-1,0
			c0,0.5,0,1.1,0,1.6c0.4,0,0.9,0,1.5,0.1c0.2,0,0.4,0,0.6-0.1c0.4,0,0.6,0.2,0.6,0.7c0,0,0,0.1,0,0.2c-0.1,0.2-0.1,0.5-0.1,1
			c0,0.6-0.1,1.3-0.1,2c0,0.5,0,1.1,0.1,1.9c0,0.4-0.2,0.6-0.5,0.6c-0.7-0.1-1.4-0.2-2-0.2l0,1.7h2.7c0.2,0,0.3,0.1,0.3,0.3
			c0,0.3-0.1,0.6-0.2,0.8c-0.2,0.2-0.4,0.3-0.7,0.3c-0.2,0-0.5-0.1-1.1-0.2c-0.3,0-0.6-0.1-0.9-0.1l0,1.9c0,0.9-0.2,1.4-0.6,1.4
			c-0.4,0-0.6-0.5-0.6-1.4c0-0.7,0-1.3,0-1.9c-1.2,0-2.1,0.1-2.6,0.2c-0.3,0.1-0.5,0.2-0.6,0.2c-0.4,0-0.6-0.2-0.6-0.6
			c0-0.2,0.1-0.4,0.3-0.6c0.2-0.1,0.4-0.2,0.7-0.2h2.8c0-0.6,0-1.2,0-1.7c-0.8,0-1.3,0-1.5,0.1c-0.2,0-0.5,0.1-0.9,0.2
			c-0.3,0-0.5-0.2-0.5-0.6c0.1-1,0.2-1.9,0.2-2.7c0-0.7-0.1-1.6-0.2-2.7c0-0.4,0.2-0.6,0.6-0.6c0.2,0,0.3,0,0.5,0c0.2,0,0.4,0,0.8,0
			h1c0-0.5,0-1,0-1.6C-75,4-75.8,4-76.3,4.2c-0.3,0.1-0.5,0.2-0.6,0.2c-0.4,0-0.6-0.3-0.7-0.7c0-0.2,0.1-0.4,0.3-0.6
			C-77,2.9-76.8,2.9-76.5,2.9z M-73.9,10.9c0-0.6,0-1.2,0-1.7c-0.6,0-1.2,0.1-1.6,0.1c0,0.4-0.1,0.8-0.1,1.2c0,0.3,0.1,0.5,0.4,0.5
			C-74.9,11-74.4,10.9-73.9,10.9z M-75.5,8.3c0,0,0.1,0,0.1,0h1.5c0-0.6,0-1.2,0-1.7c-0.4,0-0.8,0-1.3,0c-0.2,0-0.3,0.1-0.3,0.4
			C-75.5,7.4-75.5,7.9-75.5,8.3z M-72.9,6.6v1.7h1.5V6.9c0-0.1-0.1-0.2-0.2-0.2C-71.9,6.7-72.4,6.7-72.9,6.6z M-72.9,9.2v1.8
			c0.4,0,0.8,0,1.2,0.1c0.2,0,0.3-0.1,0.3-0.4V9.1C-71.9,9.1-72.4,9.2-72.9,9.2z M-68.4,9c0.1,0,0.3,0,0.3,0.1l6.3,0.1
			c0.2,0,0.5-0.1,0.9-0.2c0.5,0,0.7,0.2,0.7,0.6c-0.2,0.9-0.3,2-0.3,3.4c0,0.8,0.1,2,0.2,3.5c0,0.6-0.2,0.9-0.6,0.9
			c-0.2,0-0.3-0.1-0.4-0.3c-0.1-0.3-0.1-0.7-0.1-1.2c0-0.8,0-1.5,0-2.2h0c-0.6,0-1.1,0-1.6,0l0.1,2c0,0.8-0.2,1.2-0.6,1.2
			c-0.3,0-0.5-0.4-0.5-1.2c0-0.8,0-1.4,0-2c-0.5,0-0.9,0-1.3,0l0.1,2c0,0.8-0.2,1.2-0.6,1.2c-0.3,0-0.5-0.4-0.5-1.2
			c0-0.7,0-1.4,0.1-2c-0.6,0-1.1,0.1-1.5,0.1c-0.1,0-0.1,0-0.1,0c-0.1,1.2-0.2,2-0.5,2.5c-0.3,0.8-0.7,1.2-1,1.2s-0.6-0.2-0.9-0.6
			c-0.2-0.2-0.3-0.5-0.3-0.7c0-0.1,0.1-0.2,0.2-0.2c0.5-0.1,0.9-0.5,1.2-1.1c0.2-0.5,0.3-1.5,0.3-2.9c0-0.8-0.1-1.5-0.2-2.4
			C-69,9.3-68.8,9-68.4,9z M-64.8,1.2c0.3,0,0.4,0.2,0.5,0.5c0.1,0.1,0.3,0.2,0.5,0.4c1.9,1.7,3.1,2.6,3.6,2.8
			c0.3,0.1,0.7,0.2,1.1,0.3c0.2,0,0.3,0.1,0.3,0.4c0,0.3-0.2,0.6-0.6,0.9c-0.4,0.3-0.8,0.4-1.2,0.4c-0.3,0-0.6-0.1-0.8-0.4
			c-0.7-1-1.5-2-2.4-3c-0.3-0.4-0.6-0.6-0.9-0.8c-0.7,1.3-1.2,2.1-1.6,2.5c-0.5,0.6-1.2,1.2-1.9,1.5c-0.2,0.1-0.3,0.2-0.4,0.2
			c-0.4,0-0.7-0.1-0.9-0.4c-0.2-0.2-0.4-0.5-0.4-0.8c0-0.2,0.1-0.2,0.3-0.3c0.8-0.2,1.4-0.4,1.9-0.7c0.4-0.3,0.8-0.6,1.2-1.1
			c0.4-0.5,0.9-1.3,1.4-2.3C-65.1,1.2-65,1.2-64.8,1.2z M-67.8,12.8c0.1,0,0.1,0,0.2,0h1.4c0-0.1,0-0.3,0-0.4c0-0.6,0-1.2-0.1-1.8
			c0-0.1,0-0.2,0-0.3c-0.5,0-1,0-1.5,0c0,1,0,1.7,0,2.2C-67.8,12.6-67.8,12.7-67.8,12.8z M-66.4,6.5h3.8c0.1,0,0.2,0.1,0.2,0.2
			c0,0.3-0.1,0.5-0.2,0.7c-0.2,0.2-0.4,0.3-0.7,0.3c-0.1,0-0.3,0-0.6-0.1c-0.3,0-0.7,0-1,0c-0.7,0-1.2,0.1-1.5,0.2
			c-0.2,0.1-0.3,0.1-0.3,0.1c-0.3,0-0.5-0.2-0.6-0.6c0-0.2,0.1-0.4,0.3-0.6C-66.8,6.6-66.6,6.5-66.4,6.5z M-65.3,10.3
			c0,0.1,0,0.2,0,0.3c-0.1,0.7-0.1,1.3-0.1,1.8l0,0.4h1.3c0-0.1,0-0.3,0-0.4c0-0.6,0-1.2-0.1-1.8c0-0.1,0-0.2,0-0.3
			C-64.4,10.3-64.8,10.3-65.3,10.3z M-63,10.3c0,0.1,0,0.2,0,0.3c-0.1,0.7-0.1,1.3-0.1,1.8v0.4h1.5c0,0,0.1,0,0.1,0
			c0-0.9,0.1-1.7,0.1-2.4c0-0.1-0.2-0.2-0.5-0.2C-62.2,10.3-62.6,10.3-63,10.3z"/>
		<path class="st0" d="M-41.6,4.3c0,0.4-0.2,0.6-0.5,0.6c-0.2,0-0.4,0-0.7-0.1c-0.3,0-0.5-0.1-0.7-0.1c-1.5,0-3,0.5-4.2,1.6
			c-1.4,1.2-2.1,2.7-2.1,4.5c0,1.5,0.6,2.6,1.7,3.3c0.9,0.6,2,0.9,3.4,0.9c0.2,0,0.6,0,1,0c0.5-0.1,0.8-0.1,1-0.1
			c0.1,0,0.2,0.1,0.3,0.3c-0.1,0.5-0.3,1-0.7,1.4c-0.4,0.4-0.8,0.6-1.3,0.6c-1.7,0-3.2-0.5-4.4-1.5c-1.4-1.1-2.1-2.6-2.1-4.5
			c0-1.5,0.4-2.8,1.3-3.9c0.7-0.9,1.6-1.7,2.9-2.5c-2.7,0.3-5.2,0.8-7.5,1.5c-0.2,0.1-0.5,0.2-0.9,0.3c-0.4,0-0.5-0.2-0.5-0.6
			c0-0.4,0.1-0.8,0.2-1c0.2-0.2,0.6-0.4,1.2-0.5c1.8-0.3,4.2-0.6,7.2-0.8c2.5-0.2,4-0.3,4.4-0.3c0.2,0,0.4,0.1,0.6,0.3
			C-41.7,3.8-41.6,4-41.6,4.3z M-42.5,8.7c0,0.1-0.2,0.4-0.4,0.7c-0.2,0.3-0.4,0.5-0.5,0.5c-0.2,0-0.7-0.3-1.2-1
			c-0.6-0.7-0.8-1.1-0.8-1.4c0-0.2,0.1-0.3,0.2-0.3c0.1,0,0.3,0.2,0.7,0.5c0.4,0.3,0.9,0.5,1.7,0.6C-42.7,8.4-42.5,8.5-42.5,8.7z
			 M-39.6,7.8c0,0.1-0.2,0.4-0.4,0.7C-40.2,8.8-40.3,9-40.5,9c-0.2,0-0.6-0.3-1.2-1c-0.6-0.7-0.8-1.1-0.8-1.4c0-0.2,0.1-0.3,0.2-0.3
			c0,0,0.3,0.1,0.7,0.4c0.5,0.4,1.1,0.6,1.7,0.7C-39.7,7.5-39.6,7.6-39.6,7.8z"/>
		<path class="st0" d="M-30.4,16.6c0,0.4-0.1,0.8-0.4,1.1c-0.3,0.3-0.6,0.4-1,0.4c-0.4,0-0.7-0.1-0.9-0.4c-0.2-0.3-0.4-0.6-0.4-1.1
			c0-0.9,0.4-1.4,1.3-1.4c0.4,0,0.7,0.1,1,0.4C-30.5,15.8-30.4,16.1-30.4,16.6z M-30.8,3.6C-31,4.1-31,5.7-31,8.5c0,2.4,0,3.8,0.1,4
			c0,0.7-0.3,1-0.9,1c-0.6,0-0.9-0.3-0.9-1c0-0.5,0-1.1,0.1-2c0.1-0.9,0.1-1.6,0.1-2c0-0.5,0-1.3-0.1-2.4c-0.1-1.1-0.1-1.9-0.1-2.5
			c0-0.7,0.3-1.1,0.9-1.1C-31.1,2.5-30.8,2.9-30.8,3.6z"/>
	</g>
</g>
</svg>
