<?xml version="1.0" encoding="utf-8"?>
<!-- Generator: Adobe Illustrator 24.0.3, SVG Export Plug-In . SVG Version: 6.00 Build 0)  -->
<svg version="1.1" id="レイヤー_1" xmlns="http://www.w3.org/2000/svg" xmlns:xlink="http://www.w3.org/1999/xlink" x="0px"
	 y="0px" viewBox="0 0 201.4 17.7" style="enable-background:new 0 0 201.4 17.7;" xml:space="preserve">
<style type="text/css">
	.st0{fill:#503819;}
</style>
<g>
	<g>
		<path class="st0" d="M642,5.4h1.7l0-3.9c0-0.6,0.2-0.8,0.6-0.8c0.5,0,0.8,0.3,0.8,0.8L645,5.4h2.1c0.1,0,0.2,0.1,0.2,0.3
			c0,0.2-0.1,0.5-0.2,0.6c-0.2,0.2-0.4,0.3-0.7,0.3c-0.1,0-0.4,0-0.9-0.1c-0.2,0-0.4,0-0.6,0l-0.1,4.6c0.9-0.2,1.7-0.4,2.2-0.5
			c0.2,0,0.3,0.1,0.3,0.4c0,0.4-0.1,0.6-0.4,0.7c-1.9,0.6-3.7,1.3-5.3,2.1c-0.4,0-0.6-0.2-0.6-0.6c0-0.4,0.1-0.6,0.2-0.8
			c0.1-0.2,0.2-0.3,0.5-0.4c0.8-0.2,1.4-0.4,2.1-0.6l0-4.9c-0.7,0-1.3,0.1-1.6,0.2c-0.3,0.1-0.4,0.2-0.5,0.2c-0.4,0-0.6-0.2-0.6-0.6
			c0-0.2,0.1-0.4,0.3-0.6C641.5,5.4,641.7,5.4,642,5.4z M657.4,4.9c0.4,0,0.6,0.3,0.6,0.8c0,0.1-0.1,0.3-0.2,0.5
			c-0.3,0.7-0.7,1.9-1.3,3.8c-0.1,0.4-0.3,0.6-0.6,0.6c-0.3,0-0.5-0.2-0.5-0.5c0.1-0.7,0.4-1.8,0.9-3.4c0-0.1-0.1-0.2-0.3-0.2
			c-0.2,0-0.5,0-0.9,0.1c-0.5,0.1-1,0.2-1.5,0.3l0,3.7c0,0.9-0.2,1.4-0.6,1.4c-0.4,0-0.6-0.5-0.6-1.4c0-1.3,0-2.4,0-3.4
			c-0.8,0.2-1.5,0.4-2.1,0.6c0,1.7-0.1,3.7-0.1,5.8c0,0.4,0.2,0.6,0.5,0.7c0.7,0.1,2.3,0.1,5,0.1c1.3,0,2.4-0.2,3.4-0.6
			c0.1,0,0.2,0.2,0.2,0.5c0,0.4-0.1,0.9-0.3,1.4c-0.2,0.6-0.5,0.9-0.7,0.9c-0.3,0-3.1-0.3-8.2-0.9c-0.8-0.1-1.2-0.5-1.2-1.1
			c0.1-2.6,0.1-4.6,0.1-6c0-0.1,0-0.3,0-0.4c-0.4,0.2-0.8,0.4-1.3,0.6c-0.5,0-0.7-0.2-0.7-0.6c0-0.3,0.1-0.5,0.2-0.8
			c0.1-0.2,0.3-0.3,0.6-0.3c0.4-0.1,0.9-0.2,1.3-0.4c0-1,0-2.1-0.1-3.2c0-0.4,0.2-0.6,0.6-0.6c0.5,0,0.7,0.3,0.7,0.8
			c0,0.8,0,1.7,0,2.7c0.7-0.2,1.4-0.4,2.1-0.5c0-0.6,0-1.1,0-1.6c0-0.9,0-2-0.1-3.1c0-0.6,0.2-0.8,0.6-0.8c0.4,0,0.6,0.3,0.6,0.8
			c-0.1,1.2-0.1,2.2-0.1,3.1l0,1.4c0.8-0.2,1.6-0.3,2.3-0.4c0.4-0.1,0.7-0.2,1-0.3C657,4.9,657.2,4.9,657.4,4.9z"/>
		<path class="st0" d="M662.9,5.5h1.7l-0.1-3.3c0-0.6,0.2-0.8,0.6-0.8c0.5,0,0.8,0.3,0.8,0.8l0,3.3h1.9c0.2,0,0.2,0.1,0.2,0.3
			c0,0.3-0.1,0.5-0.2,0.7c-0.2,0.2-0.4,0.3-0.7,0.3c-0.1,0-0.4,0-0.8-0.1c-0.1,0-0.3,0-0.4,0l-0.1,4.2c0.8-0.3,1.4-0.4,1.8-0.5
			c0.2,0,0.2,0.1,0.2,0.4c0,0.3-0.1,0.5-0.3,0.6c-1.7,0.7-3.4,1.6-4.9,2.5c-0.4,0-0.6-0.2-0.6-0.6c0-0.3,0.1-0.6,0.2-0.7
			c0.1-0.2,0.2-0.4,0.4-0.5c0.7-0.3,1.4-0.5,2-0.8l-0.1-4.6c-0.8,0-1.3,0.1-1.7,0.2C662.7,7,662.6,7,662.5,7c-0.4,0-0.6-0.2-0.6-0.6
			c0-0.2,0.1-0.4,0.3-0.6C662.4,5.6,662.6,5.5,662.9,5.5z M673.4,11.8c0.1,0,0.2,0.1,0.2,0.4c0,0.3-0.1,0.5-0.3,0.6
			c-1.7,0.6-3.3,1.3-4.8,2.1c-0.4,0-0.6-0.2-0.6-0.6c0-0.3,0.1-0.6,0.2-0.7c0.1-0.2,0.2-0.3,0.4-0.4C670.9,12.4,672.5,12,673.4,11.8
			z M669.3,3.5h5.1c0-0.9,0-1.8,0-2.6c0-0.4,0.2-0.6,0.6-0.6c0.4,0,0.5,0.2,0.6,0.6c0,0.9-0.1,1.8-0.1,2.6h3.8
			c0.2,0,0.3,0.1,0.3,0.3c0,0.3-0.1,0.6-0.2,0.8c-0.2,0.2-0.4,0.3-0.7,0.3c-0.2,0-0.8-0.1-1.8-0.2c-0.4,0-0.9,0-1.4,0
			c0,1.1,0.1,2.3,0.3,3.4c0.2,1.2,0.4,2.2,0.7,3.1c0.5-1,0.9-2.1,1.2-3.5c0-0.2,0.2-0.3,0.4-0.3c0.4,0,0.6,0.2,0.6,0.6
			c0,0-0.1,0.1-0.1,0.3c-0.3,1.2-0.8,2.5-1.5,4.1c0,0,0,0,0,0c0.1,0.2,0.2,0.4,0.3,0.5c0.7,1.2,1.5,1.9,2.6,2.3
			c0.2,0.1,0.3,0.3,0.3,0.5c0,0.2-0.2,0.5-0.5,0.8c-0.3,0.3-0.6,0.4-0.9,0.4c-0.2,0-0.5-0.1-0.8-0.4c-0.7-0.6-1.3-1.5-1.8-2.8
			c-0.5,0.7-1,1.3-1.6,1.8c-0.6,0.5-1,0.8-1.4,0.8c-0.2,0-0.4-0.1-0.7-0.3c-0.3-0.3-0.5-0.7-0.5-1c0-0.2,0.2-0.4,0.7-0.5
			c1-0.2,2-0.9,2.9-2c-0.1-0.2-0.1-0.3-0.2-0.5c-0.6-1.9-0.9-4-1-6.2c0-0.4,0-0.8,0-1.2c-0.2,0-0.5,0-0.8,0c-1.8,0-3.1,0.1-3.9,0.2
			C669.3,4.9,669,5,668.9,5c-0.4,0-0.6-0.2-0.6-0.6c0-0.2,0.1-0.4,0.3-0.6C668.7,3.5,669,3.5,669.3,3.5z M669.3,6.6
			c0.2,0,0.4,0,0.5,0s0.4,0,0.8,0h0.9c0.2,0,0.4,0,0.7,0.1c0.2,0,0.4,0,0.6-0.1c0.4,0,0.6,0.2,0.6,0.6c0,0,0,0,0,0.1
			c-0.1,0.1-0.1,0.3-0.1,0.6c0,0.4-0.1,0.8-0.1,1.3c0,0.2,0,0.5,0.1,1c0,0.4-0.2,0.6-0.5,0.6c-0.6-0.1-1.2-0.2-1.7-0.2
			c-0.7,0-1.1,0-1.2,0.1c-0.1,0-0.3,0.1-0.5,0.2c-0.3,0-0.5-0.2-0.5-0.6c0.1-0.7,0.2-1.2,0.2-1.7c0-0.4-0.1-0.9-0.2-1.5
			C668.7,6.8,668.9,6.6,669.3,6.6z M671,9.9c0.3,0,0.6,0,0.9,0.1c0.2,0,0.3-0.1,0.3-0.4V8c0-0.1-0.1-0.2-0.2-0.2
			c-0.4-0.1-0.9-0.1-1.7-0.1c-0.2,0-0.3,0.1-0.3,0.4c0,0.5-0.1,1-0.2,1.4c0,0.3,0.1,0.5,0.4,0.5C670.4,9.9,670.7,9.9,671,9.9z
			 M678.2,0.6c0.4,0,0.6,0.2,0.6,0.6c0,0.3,0,0.5-0.1,0.6c-0.9,0.7-1.4,1.1-1.4,1.1c-0.2,0-0.3-0.1-0.3-0.3c0-0.1,0.2-0.6,0.7-1.6
			C677.8,0.7,678,0.6,678.2,0.6z"/>
		<path class="st0" d="M696.9,8.6c0,2.8-1.3,4.9-3.9,6.3c-1,0.6-1.9,0.9-2.4,0.9c-0.3,0-0.7-0.2-1-0.5c-0.4-0.3-0.6-0.7-0.6-1.1
			c0-0.1,0.2-0.3,0.5-0.3c0.2,0,0.6-0.1,1-0.2c1.2-0.2,2.2-0.6,2.9-1.1c0.7-0.5,1.3-1.1,1.7-1.8c0.5-0.8,0.7-1.7,0.7-2.6
			c0-0.7-0.2-1.5-0.6-2.2c-0.8-1.6-2.2-2.4-4.1-2.4c-0.1,0-0.2,0-0.3,0c-0.2,0-0.2,0-0.3,0c-0.8,4.1-1.8,7.2-3,9
			c-0.7,1.1-1.4,1.6-1.9,1.6c-0.7,0-1.3-0.6-1.8-1.9c-0.4-1-0.6-2-0.6-3c0-1.5,0.4-2.9,1.3-4.1c1.3-1.9,3.4-2.8,6.1-2.8
			c1.7,0,3.1,0.5,4.3,1.6C696.3,5.1,696.9,6.6,696.9,8.6z M689.3,3.7c-1.8,0.4-3,1.1-3.8,2.2c-0.8,1.1-1.2,2.2-1.2,3.2
			c0,0.6,0.1,1.2,0.3,2c0.3,0.9,0.6,1.3,1,1.3c0.4,0,0.8-0.3,1.2-1C687.8,9.8,688.7,7.2,689.3,3.7z"/>
		<path class="st0" d="M705.7,1.8c0.3,0,0.5,0.2,0.5,0.5c0,0.2-0.1,0.4-0.2,0.6c-0.3,0.6-0.5,1.2-0.8,1.7h3.3l0-3
			c0-0.6,0.2-0.8,0.7-0.8c0.5,0,0.8,0.3,0.8,0.8l0,3h4.7c0.2,0,0.3,0.1,0.3,0.3c0,0.3-0.1,0.6-0.2,0.8C714.5,5.9,714.3,6,714,6
			c-0.2,0-0.8-0.1-1.7-0.2c-0.7,0-1.6-0.1-2.4-0.1l0,3.5h4.1c0.2,0,0.3,0.1,0.3,0.3c0,0.3-0.1,0.6-0.2,0.8c-0.2,0.2-0.4,0.3-0.7,0.3
			c-0.2,0-0.7-0.1-1.6-0.2c-0.6,0-1.2-0.1-1.9-0.1l-0.1,3.8c1.1,0,2.4,0.2,3.7,0.4c1.3,0.2,2.4,0.3,3.5,0.3c0.3,0,0.6,0,1-0.1
			c0.1,0,0.1,0.1,0.1,0.3c0,0.4-0.1,0.9-0.3,1.3c-0.2,0.5-0.5,0.7-0.7,0.7c-0.3,0-0.7-0.1-1-0.3c-1.3-0.6-2.6-1-3.8-1.2
			c-0.9-0.1-2-0.2-3.3-0.2c-1.5,0-2.8,0.1-3.9,0.3c-1.2,0.3-2.3,0.7-3.5,1.2c-0.3,0.2-0.6,0.2-0.8,0.2c-0.4,0-0.6-0.3-0.6-0.8
			c0-0.3,0.1-0.5,0.3-0.7c0.2-0.2,0.4-0.3,0.7-0.4c3.4-0.6,5.8-1,7.4-1l-0.1-3.8c-1.4,0-2.4,0.1-3,0.3c-0.4,0.1-0.7,0.2-0.8,0.2
			c-0.4,0-0.7-0.3-0.7-0.8c0-0.2,0.1-0.4,0.3-0.6c0.2-0.1,0.4-0.2,0.8-0.2h3.4l0-3.5c-1.4,0-2.4,0.1-3,0.2c-0.4,0.1-0.7,0.2-0.9,0.2
			c-0.1,0-0.3,0-0.4-0.1c-0.2,0.4-0.5,0.7-0.7,1.1c-0.4,0.5-0.7,0.7-0.9,0.7c-0.3,0-0.6-0.1-0.9-0.4c-0.3-0.3-0.4-0.6-0.4-0.9
			c0-0.2,0.1-0.4,0.4-0.4c0.7-0.3,1.3-0.8,1.9-1.4c0.6-0.7,1.2-1.6,1.8-2.8C705.5,1.8,705.6,1.8,705.7,1.8z"/>
		<path class="st0" d="M721.4,13.3c0.4,0.1,0.6,0.1,0.8,0.1c0.6,0,1.3-0.4,2.2-1.1c0.1,0,0.2,0.1,0.2,0.3c0,0.3-0.3,0.8-0.9,1.6
			c-0.6,0.8-1.1,1.3-1.5,1.3c-0.3,0-0.5-0.2-0.7-0.5c-0.2-0.4-0.3-0.8-0.3-1.3C721.1,13.4,721.2,13.3,721.4,13.3z M724,4.4
			c0.2,0,0.3,0,0.4,0.1l3.2,0.1c0.1,0,0.4-0.1,0.8-0.2c0.4,0,0.6,0.2,0.6,0.6c-0.2,0.7-0.3,1.6-0.3,2.7c0,0.7,0.1,1.6,0.2,2.8
			c0,0.6-0.2,0.8-0.6,0.8c-0.2,0-0.3-0.1-0.4-0.3c-0.1-0.3-0.1-0.7-0.1-1.1c0-0.2,0-0.4,0-0.6c-1.4,0-2.6,0.1-3.4,0.2
			c0,0.2-0.1,0.3-0.1,0.5c-0.1,0.4-0.4,0.8-0.7,1.1c-0.3,0.3-0.6,0.4-0.8,0.4c-0.2,0-0.5-0.1-0.8-0.4c-0.3-0.3-0.5-0.5-0.5-0.7
			c0-0.2,0.1-0.3,0.3-0.4c0.5-0.1,0.9-0.4,1.2-0.8c0.3-0.4,0.4-1.2,0.4-2.4c0-0.6-0.1-1.3-0.2-2.1C723.5,4.6,723.6,4.4,724,4.4z
			 M725.1,0.2c0.4,0,0.6,0.2,0.6,0.7c0,0,0,0.1,0,0.1c-0.3,0.4-0.5,0.6-0.7,0.8c-0.1,0.2-0.3,0.4-0.5,0.6c0,0.1,0.1,0.2,0.3,0.2h3
			c0.2,0,0.3-0.1,0.3-0.3c0,0,0,0,0-0.1c-0.2-0.2-0.4-0.5-0.7-0.8c0,0-0.1-0.1-0.1-0.1c0-0.4,0.2-0.6,0.6-0.6c0.1,0,0.1,0,0.2,0.1
			c0.4,0.5,0.9,1.2,1.4,2c0.1,0.1,0.1,0.2,0.1,0.3c0,0.4-0.2,0.6-0.5,0.6h-4.4c-0.4,0-0.9,0-1.4,0.1c-0.5,0-0.7-0.2-0.7-0.6
			c0-0.2,0.1-0.3,0.2-0.6c0.1-0.1,0.3-0.2,0.4-0.4c0.2-0.2,0.4-0.4,0.6-0.6c0.2-0.3,0.4-0.6,0.7-1C724.7,0.4,724.9,0.2,725.1,0.2z
			 M724.6,6.6c0.1,0,0.1,0,0.2,0h3c0,0,0.1,0,0.1,0c0-0.4,0-0.7,0-0.9c0-0.1-0.1-0.2-0.4-0.2c-1.1,0-2.1,0-3,0.1V6.6z M724.6,8.5
			L724.6,8.5h3.3c0-0.4,0-0.8,0-1.1c0,0-0.1,0-0.1,0c-1.4,0-2.4,0.1-3.2,0.2h0V8.5C724.6,8.5,724.6,8.5,724.6,8.5z M727.3,11.4
			c0.4,0,0.7,0.2,0.7,0.6c0,0.2-0.2,0.7-0.6,1.5c-0.1,0.1-0.1,0.2-0.1,0.2c0,0.1,0.1,0.1,0.3,0.1c2,0,3.9,0.2,5.7,0.7
			c0.6,0.1,1.2,0.2,1.9,0.2c0.7,0,1.4-0.1,2.1-0.3c0.4-0.1,0.7-0.2,0.8-0.2c0.2,0,0.2,0.1,0.2,0.4c0,0.5-0.2,1-0.6,1.6
			c-0.4,0.7-0.8,1.1-1.2,1.1c-0.4,0-1.1-0.2-2.1-0.7c-2.3-1-4.5-1.5-6.6-1.5c-0.4,0-1,0.1-1.5,0.2c-0.4,0-0.6-0.2-0.6-0.6
			c0-0.1,0.1-0.4,0.3-0.7c0.4-0.6,0.7-1.3,0.8-2C726.9,11.7,727,11.4,727.3,11.4z M731.4,11.3c0.3,0,0.5,0.2,0.5,0.5
			c0,0.3,0,0.5-0.1,0.6c-0.8,0.8-1.2,1.2-1.3,1.2c-0.2,0-0.3-0.1-0.3-0.3c0-0.1,0.2-0.6,0.6-1.7C730.9,11.4,731.1,11.3,731.4,11.3z
			 M732.4,1.4h3.9c0.2,0,0.2,0.1,0.2,0.4c0,0.2-0.1,0.3-0.2,0.5c-0.2,0.2-0.3,0.3-0.5,0.3c-0.4-0.1-0.9-0.2-1.8-0.2
			c-0.4,0-1,0.1-1.8,0.3c0,0,0,0,0,0c0,0.3,0,0.6,0,0.9c0,0.2,0.1,0.3,0.3,0.3h3.3c0.6,0,0.9,0.1,0.9,0.4c0,0.4-0.2,0.6-0.6,0.6
			l-2.1-0.1c-0.9,0-1.6,0.1-2.2,0.3c-0.4,0-0.6-0.2-0.6-0.6c0.1-0.6,0.1-1.2,0.1-1.6c0-0.6,0-1.3-0.1-2.2c0-0.4,0.2-0.6,0.6-0.6
			c0.4,0,0.7,0.2,0.7,0.6c0,0.2,0,0.4,0,0.7C732.3,1.4,732.3,1.4,732.4,1.4z M732.5,6.8h3.6c0.2,0,0.2,0.1,0.2,0.4
			c0,0.2-0.1,0.3-0.2,0.5c-0.1,0.2-0.3,0.3-0.5,0.3c-0.3-0.1-0.8-0.2-1.4-0.2c-0.4,0-1,0.1-1.8,0.3c0,0,0,0-0.1,0
			c0,0.3,0,0.6-0.1,0.9c0,0.4,0.1,0.6,0.4,0.6l2.5,0.1c0.7,0,1.5-0.2,2.3-0.6c0.1,0,0.2,0.2,0.2,0.5c0,0.3-0.1,0.7-0.4,1
			c-0.2,0.4-0.5,0.6-0.8,0.6c-1.4-0.2-2.5-0.4-3.2-0.4c-0.5,0-0.8,0-1,0.1c-0.2,0.1-0.4,0.1-0.5,0.1c-0.4,0-0.6-0.2-0.6-0.7
			c0.2-0.6,0.2-1.2,0.2-1.8c0-0.6,0-1.3-0.1-2.1c0-0.3,0.2-0.5,0.5-0.5c0.1,0,0.3,0.1,0.5,0.2c0.1,0.1,0.2,0.3,0.2,0.5
			c0,0.1,0,0.1,0,0.2C732.3,6.8,732.4,6.8,732.5,6.8z M734.5,11.4c0.4,0,0.6,0.2,0.6,0.6c0,0.3,0,0.5-0.1,0.6c-1,1-1.6,1.5-1.7,1.5
			c-0.2,0-0.3-0.1-0.3-0.3c0-0.1,0.3-0.7,1-2C734.1,11.5,734.3,11.4,734.5,11.4z"/>
		<path class="st0" d="M749,1.1c1.2,0,2.7,0.1,4.4,0.3c1.3,0.1,2.4,0.2,3.3,0.2c0.4,0,0.9,0,1.4-0.1c0.1,0,0.2,0.2,0.2,0.5
			c0,0.5-0.2,1-0.5,1.5c-0.2,0.4-0.4,0.6-0.6,0.6c-0.4,0-0.9-0.2-1.4-0.5c-0.9-0.5-1.9-0.8-3-0.9c-1-0.2-2.1-0.3-3.3-0.3
			c0,0.1,0,0.1,0,0.2c0,0.3-0.1,0.6-0.4,0.9c-0.8,0.9-1.6,1.7-2.6,2.4c-0.2,0.1-0.3,0.2-0.3,0.4c0,0,0.1,0.2,0.4,0.3
			c0.2,0.1,0.5,0.4,0.9,0.7c0.1,0.1,0.1,0.1,0.1,0.2c0.9-0.8,1.8-1.6,2.6-2.3c0.1-0.1,0.3-0.1,0.5-0.1c0.1,0,0.3,0.1,0.4,0.2
			c0.1,0.1,0.1,0.3,0.1,0.5c0,0.2-0.1,0.3-0.2,0.4c-1.4,1.1-2.9,2.3-4.3,3.5c-0.1,0.1-0.1,0.2-0.1,0.3c0,0,0.1,0.1,0.2,0.1
			c0.3,0,1.2,0.1,2.5,0.1c1.2,0,2.3,0,3.1-0.1c0.2,0,0.3-0.1,0.3-0.3c-0.3-0.5-0.6-1-1-1.4c-0.1-0.1-0.1-0.2-0.1-0.3
			c0-0.1,0-0.3,0.1-0.4c0.1-0.1,0.3-0.2,0.5-0.2c0.1,0,0.3,0.1,0.4,0.4c0.4,0.5,0.7,1.1,1.1,1.9c0.2,0.4,0.3,0.6,0.3,0.9
			c0,0.6-0.2,0.8-0.7,0.8c-0.2-0.1-0.5-0.1-0.7-0.1c-0.9,0-1.8,0.1-2.7,0.1v0.8c0,0.7,0,1.3,0,1.8c0,0.6,0,1.2,0,1.8
			c0,0.4-0.1,0.8-0.2,1c-0.1,0.2-0.3,0.3-0.5,0.3c-0.2,0-0.3-0.1-0.4-0.4c-0.1-0.2-0.1-0.5-0.1-0.9c0-0.6,0-1.2,0-1.8
			c0-0.5,0-1.2,0-2.1c0-0.2,0-0.3,0-0.6c-0.8,0-1.6,0-2.4-0.1c-0.4,0-0.8,0-1.3,0.1c-0.5,0-0.8-0.2-0.8-0.6c0-0.2,0.1-0.5,0.3-0.7
			c0.8-0.6,1.5-1.3,2.3-1.9l0,0c-0.9-0.6-1.6-1-2-1.1c-0.2-0.1-0.4-0.2-0.4-0.5c0-0.2,0.1-0.4,0.4-0.6c0.4-0.2,0.8-0.5,1.2-1
			c0.8-0.7,1.6-1.6,2.3-2.7c-1.2,0-2.4,0.1-3.5,0.2c-0.8,0.1-2,0.5-3.7,1.2c-0.5,0-0.7-0.2-0.7-0.7c0-0.3,0.1-0.5,0.3-0.7
			c0.2-0.3,0.6-0.5,1-0.5C744.8,1.4,747.3,1.1,749,1.1z M743,13.8c0.4,0.1,0.6,0.1,0.8,0.1c0.6,0,1.3-0.3,2.2-1
			c0.2,0,0.2,0.1,0.2,0.3c0,0.3-0.3,0.8-0.9,1.5c-0.6,0.8-1.1,1.2-1.6,1.2c-0.3,0-0.5-0.2-0.7-0.5c-0.2-0.4-0.3-0.8-0.3-1.3
			C742.7,13.9,742.8,13.8,743,13.8z M752.3,12.9c0,0,0.1,0,0.1,0.1c0.7,0.5,1.3,0.8,1.7,0.9c0.3,0.1,0.7,0.2,1.2,0.2
			c0.2,0,0.2,0.1,0.2,0.3c0,0.3-0.2,0.6-0.4,0.9c-0.6,0.4-1,0.6-1.3,0.6c-0.1,0-0.2-0.1-0.3-0.2c-0.2-0.2-0.6-0.9-1.4-2.2
			c-0.1-0.1-0.1-0.2-0.1-0.3C752.1,13.1,752.1,12.9,752.3,12.9z"/>
		<path class="st0" d="M774.4,4.4c0,0.3-0.2,0.7-0.5,1.2c-0.3,0.5-0.6,0.7-0.8,0.7c0.1,0-0.3-0.1-1.3-0.4c-1.1-0.3-2.2-0.5-3.3-0.5
			c-0.1,0-0.3,0-0.6,0c-0.3,0-0.5,0-0.6,0c-0.1,1.1-0.2,2.1-0.2,3l3.5,0c0.6,0,1,0.1,1,0.3c0,0.2-0.1,0.5-0.2,0.7
			c-0.2,0.2-0.3,0.4-0.6,0.4c-1.1-0.2-1.9-0.3-2.4-0.3c-0.2,0-0.6,0-1.3,0c0,1.5,0.1,2.6,0.2,3.4c0.3,1.4,0.9,2.2,1.7,2.2
			c0.6,0,1.3-0.2,2.1-0.6c0.8-0.5,1.4-1,1.9-1.5c0.3-0.3,0.4-0.5,0.6-0.5c0.2,0,0.3,0.3,0.3,0.8c0,0.8-0.1,1.4-0.4,1.8
			c-0.2,0.5-0.9,0.8-1.9,1.1c-0.8,0.2-1.5,0.3-2.2,0.3c-1.5,0-2.5-0.8-3-2.3c-0.3-0.9-0.4-2.4-0.4-4.5c-0.9,0.1-1.5,0.1-1.7,0.1
			c-0.7,0.1-1.2,0.2-1.6,0.3c-0.4,0.1-0.5,0.2-0.4,0.2c-0.2,0-0.4-0.2-0.4-0.6c0-0.5,0.3-0.8,0.9-1c0.4-0.1,1.5-0.2,3.1-0.3
			c0-1.5,0-2.5,0.1-3l-1.3,0.1c-0.4,0.1-1,0.2-1.6,0.4c-0.9,0.3-1.4,0.5-1.5,0.6c-0.3,0-0.4-0.2-0.4-0.6c0-0.8,0.4-1.3,1.2-1.3
			c0.8-0.1,2.1-0.2,3.8-0.3c0.1-1,0.1-1.8,0.1-2.4c0-0.8,0.2-1.2,0.7-1.2c0.5,0,0.8,0.3,0.8,0.8c0,0-0.1,0.9-0.3,2.7
			c0.2,0,0.4,0,0.8,0c0.3,0,0.6,0,0.8,0c0.4,0,1,0,1.8,0c0.8,0,1.4,0,1.8,0c0.5,0,0.9,0,1.1-0.1c0.3,0,0.5-0.1,0.5-0.1
			C774.3,4.3,774.4,4.3,774.4,4.4z"/>
		<path class="st0" d="M783,9.5c0.2,0,0.3,0,0.5,0c0.2,0,0.4,0,0.8,0h3.1c0.7,0,1.5,0,2.5,0.1c0.2,0,0.4,0,0.6-0.1
			c0.4,0,0.6,0.2,0.6,0.6c0,0,0,0-0.1,0.1c-0.1,0.1-0.1,0.3-0.1,0.6c0,0.4-0.1,0.8-0.1,1.2c0,0.2,0,0.5,0.1,0.8
			c0,0.4-0.2,0.7-0.5,0.7c-0.4,0-0.7-0.1-1.1-0.1l-0.4,1.5c0.7,0,1.4,0.1,2.2,0.2c1.2,0.1,2.4,0.2,3.5,0.2c0.3,0,0.6,0,0.9-0.1
			c0.1,0,0.1,0.1,0.1,0.3c0,0.4-0.1,0.8-0.3,1.2c-0.2,0.4-0.4,0.6-0.6,0.6c-0.3,0-0.7-0.1-1-0.3c-1.3-0.5-2.5-0.9-3.7-1.1
			c-0.9-0.1-2-0.2-3.3-0.2c-1.6,0-2.9,0.1-4,0.3c-1.2,0.3-2.4,0.7-3.6,1.1c-0.4,0.2-0.6,0.2-0.9,0.2c-0.4,0-0.5-0.3-0.6-0.8
			c0-0.2,0.1-0.4,0.3-0.7c0.2-0.2,0.4-0.3,0.7-0.4c2.3-0.4,4.2-0.7,5.7-0.9l-0.3-1.6c0,0-0.1,0-0.1,0c-0.3,0-0.7,0.1-1.1,0.2
			c-0.3,0-0.5-0.2-0.5-0.7c0.1-0.6,0.1-1.1,0.1-1.6c0-0.4,0-0.8-0.1-1.3C782.4,9.7,782.6,9.5,783,9.5z M781.1,7.6h11.6
			c0.2,0,0.3,0.1,0.3,0.3c0,0.3-0.1,0.6-0.2,0.8c-0.2,0.2-0.4,0.3-0.7,0.3c-0.3,0-1-0.1-2.1-0.2c-1.1,0-2.4-0.1-3.8-0.1
			c-2.1,0-3.6,0.1-4.5,0.2c-0.5,0.1-0.9,0.2-1,0.2c-0.4,0-0.6-0.2-0.6-0.6c0-0.2,0.1-0.4,0.3-0.6C780.6,7.7,780.8,7.6,781.1,7.6z
			 M781.4,0.8c0.2,0,0.4,0,0.6,0.1c0.2,0.1,0.5,0.1,0.9,0.1h1.6V0.7c0-0.4,0.2-0.7,0.6-0.7c0.4,0,0.7,0.3,0.7,0.8l0,0.3h1.8
			c0.1,0,0.2,0,0.3,0l0-0.4c0-0.4,0.2-0.7,0.6-0.7c0.4,0,0.6,0.3,0.6,0.8l0,0.3c0.7,0,1.4,0,2.2,0.1c0.2,0,0.4-0.1,0.7-0.2
			c0.4,0,0.6,0.3,0.6,0.8l0,0.1c-0.1,0.2-0.1,0.5-0.1,0.9c0,0.6-0.1,1.2-0.1,1.8c0,0.4,0,0.9,0.1,1.5c0,0.5-0.2,0.7-0.6,0.7
			c-1.9-0.1-3.5-0.2-5-0.2c-1.9,0-3.2,0-3.7,0c-0.4,0-1,0.1-1.6,0.1c-0.4,0-0.6-0.2-0.6-0.6c0.1-0.9,0.2-1.7,0.2-2.4
			c0-0.6-0.1-1.4-0.2-2.3C780.9,1.1,781.1,0.8,781.4,0.8z M784.5,5.6l0-1.2c-0.8,0-1.4,0.1-2.1,0.1c-0.1,0-0.2,0-0.3,0
			c0,0.3,0,0.6-0.1,0.9c0,0.3,0.2,0.4,0.5,0.4C783.2,5.6,783.8,5.6,784.5,5.6z M782.2,3.3c0.1,0,0.2,0,0.3,0h2l0-1.2
			c-0.6,0-1.2,0-1.9,0c-0.3,0-0.4,0.2-0.4,0.5C782.2,2.8,782.2,3.1,782.2,3.3z M786.5,12.5c0.9,0,1.9,0,2.9,0.1
			c0.2,0,0.3-0.1,0.3-0.4v-1.3c0-0.1-0.1-0.2-0.2-0.2c-1.3-0.1-3.2-0.1-5.7-0.1c-0.2,0-0.3,0.1-0.3,0.4c0,0.4-0.1,0.8-0.2,1.1
			c0,0.3,0.1,0.5,0.4,0.5C784.7,12.5,785.5,12.5,786.5,12.5z M785.3,15c0.5,0,1-0.1,1.4-0.1c0.4,0,0.8,0,1.2,0l0.2-1.5
			c-0.5,0-1.1,0-1.6,0c-0.5,0-0.9,0-1.3,0L785.3,15z M786.7,5.5c0.4,0,0.7,0,1.1,0l0-1.3c-0.8,0-1.5,0-2.2,0l0,1.2
			C785.9,5.5,786.3,5.5,786.7,5.5z M785.6,2.1l0,1.2h2.2l0-1.2C787.1,2.1,786.4,2.1,785.6,2.1z M788.8,4.2l0,1.3
			c0.7,0,1.3,0,2.1,0.1c0.2,0,0.3-0.1,0.3-0.3V4.2C790.3,4.2,789.6,4.2,788.8,4.2z M788.9,2.1l0,1.2h2.2c0,0,0.1,0,0.1,0V2.4
			c0-0.2,0-0.3-0.1-0.3C790.4,2.1,789.7,2.1,788.9,2.1z"/>
		<path class="st0" d="M809.3,7.8c0,1.6-0.2,3.2-0.7,4.8c-0.7,2-1.6,3-2.7,3c-0.3,0-0.5-0.2-0.9-0.7c-0.3-0.5-0.4-0.9-0.4-1.2
			c0-0.2,0.3-0.3,0.9-0.3c0.7-0.1,1.1-0.3,1.3-0.5c0.5-0.5,0.9-1.4,1.2-2.8c0.2-1.1,0.3-2.2,0.3-3.2c0-1-0.4-1.4-1.3-1.4
			c-0.3,0-0.9,0-1.7,0.1c-0.4,1.8-0.9,3.3-1.3,4.4c-0.5,1.3-1.3,2.6-2.2,3.9c-0.8,1.1-1.4,1.7-1.8,1.7c-0.2,0-0.6-0.2-0.9-0.6
			c-0.4-0.4-0.6-0.6-0.6-0.9c0-0.1,0.1-0.3,0.3-0.4c0.2-0.1,0.5-0.3,0.9-0.6c1-0.7,1.8-1.5,2.5-2.5c0.8-1.2,1.5-2.9,2.2-4.9
			c-0.7,0.1-1.8,0.3-3.1,0.6c-0.3,0-0.5-0.2-0.5-0.6c0-0.7,0.6-1,1.9-1.1c0.3,0,1-0.1,2.1-0.1c0.2-0.8,0.3-1.6,0.3-2.6
			c0-0.5,0.2-0.8,0.6-0.8c0.4,0,0.6,0.2,0.6,0.7c0,0.2-0.1,1.1-0.4,2.6c0.7,0,1.1,0,1.4,0c0.9,0,1.6,0.3,2,0.9
			C809.1,5.8,809.3,6.6,809.3,7.8z M815.7,7.1c0,0.2-0.2,0.6-0.6,1.2c-0.4,0.5-0.7,0.8-0.9,0.8c-0.4,0-1-0.6-1.9-1.7
			c-0.8-1.1-1.2-1.9-1.2-2.4c0-0.2,0.1-0.4,0.2-0.4c0.1,0,0.3,0.2,0.7,0.6c0.4,0.4,0.9,0.8,1.5,1.2c0.5,0.3,1,0.5,1.6,0.5
			C815.5,6.8,815.7,6.9,815.7,7.1z"/>
		<path class="st0" d="M823.2,11.6c-0.2,0.8-0.5,1.6-0.8,2.5c-0.5,1.3-0.9,1.9-1.3,1.9c-0.4,0-0.8-0.6-1.1-1.9
			c-0.3-1.1-0.4-2.7-0.4-4.8c0-0.8,0.1-2,0.4-3.6c0.3-1.7,0.5-2.8,0.8-3.4c0.2-0.4,0.4-0.6,0.8-0.6c0.4,0,0.7,0.2,0.7,0.7
			c0,0.1-0.1,0.5-0.3,1c-0.3,0.8-0.6,1.7-0.8,2.8c-0.2,1.1-0.4,2.1-0.4,2.8c0,3.1,0.2,4.7,0.6,4.7c0.2,0,0.6-0.8,1.3-2.3
			c0.1-0.2,0.2-0.3,0.3-0.3C823.1,11.3,823.2,11.4,823.2,11.6z M833.5,12.4c0,0.1-0.2,0.5-0.4,1.2c-0.2,0.6-0.5,0.9-0.9,1.1
			c-0.4,0.2-1.4,0.3-2.9,0.3c-1.2,0-2.2-0.2-3.1-0.6c-1.2-0.6-1.8-1.5-1.8-2.7c0-1.3,0.3-2,0.8-2c0.1,0,0.2,0.1,0.2,0.3
			c-0.1,0.6-0.2,1-0.2,1.2c0,1.4,0.9,2.1,2.8,2.1c0.8,0,1.7-0.1,2.7-0.3c0.6-0.1,1.1-0.3,1.6-0.5c0.4-0.2,0.7-0.3,0.9-0.3
			C833.4,12,833.5,12.2,833.5,12.4z M831.7,3.7c0,0.2-0.5,0.8-1.5,1.6c-1,0.8-1.6,1.2-1.8,1.2c-0.2,0-0.3-0.1-0.3-0.3
			c0-0.1,0.2-0.5,0.7-1c0.4-0.4,0.7-0.8,0.9-0.9c-0.1,0-0.2,0-0.3,0c-0.9,0-1.8,0.1-2.8,0.3c-1.1,0.2-1.6,0.4-1.6,0.4
			c-0.2,0-0.4-0.2-0.4-0.5c0-0.5,0.2-0.8,0.5-1c0.1,0,0.5-0.1,1.1-0.2c1.4-0.2,3-0.2,4.8-0.2C831.5,3,831.7,3.3,831.7,3.7z"/>
		<path class="st0" d="M843.4,15.9c0,0.4-0.1,0.8-0.4,1.1c-0.3,0.3-0.6,0.4-1,0.4c-0.4,0-0.7-0.1-0.9-0.4c-0.2-0.3-0.4-0.6-0.4-1.1
			c0-0.9,0.4-1.4,1.3-1.4c0.4,0,0.7,0.1,1,0.4C843.3,15.1,843.4,15.4,843.4,15.9z M843,2.9c-0.1,0.5-0.2,2.1-0.2,4.9
			c0,2.4,0,3.8,0.1,4c0,0.7-0.3,1-0.9,1c-0.6,0-0.9-0.3-0.9-1c0-0.5,0-1.1,0.1-2c0.1-0.9,0.1-1.6,0.1-2c0-0.5,0-1.3-0.1-2.4
			c-0.1-1.1-0.1-1.9-0.1-2.5c0-0.7,0.3-1.1,0.9-1.1C842.7,1.8,843,2.2,843,2.9z"/>
	</g>
</g>
<g>
	<g>
		<path class="st0" d="M3.9,3.8h11c0.2,0,0.3,0.1,0.3,0.3c0,0.3-0.1,0.6-0.2,0.8c-0.2,0.2-0.4,0.3-0.7,0.3c-0.3,0-1,0-2-0.1
			c-0.8,0-1.6,0-2.5,0l-0.1,7c1,0,2.3,0.2,3.7,0.4c1.3,0.2,2.4,0.3,3.2,0.3c0.4,0,0.9,0,1.3-0.1c0.1,0,0.2,0.1,0.2,0.2
			c0,0.5-0.1,1-0.3,1.5c-0.2,0.4-0.5,0.6-0.7,0.6c-0.2,0-0.4,0-0.7-0.1c-1.2-0.5-2.4-0.9-3.6-1.1c-1-0.2-2.3-0.3-3.8-0.3
			c-1.8,0-3.4,0.2-4.5,0.5c-1.2,0.3-2.2,0.7-3,1.1c-0.3,0.2-0.5,0.3-0.7,0.3C0.3,15.3,0,15,0,14.5c0-0.3,0.1-0.6,0.3-0.8
			c0.2-0.2,0.4-0.4,0.7-0.4C4.5,12.5,7,12.1,8.5,12L8.5,5c-1.8,0-3.1,0.1-4,0.2C4,5.3,3.7,5.4,3.5,5.4c-0.4,0-0.7-0.3-0.7-0.7
			c0-0.2,0.1-0.4,0.3-0.6C3.3,3.8,3.6,3.8,3.9,3.8z"/>
		<path class="st0" d="M27.6,0.2c0.4,0,0.7,0.2,0.7,0.7l-0.1,2.3c0.4,0,0.7,0,1,0c0.4,0,0.8,0,1.2,0l-0.1-2.4c0-0.4,0.2-0.6,0.6-0.6
			c0.4,0,0.6,0.2,0.6,0.7l-0.1,2.4c0.8,0.1,1.6,0.2,2.4,0.3c1.3,0.2,2.5,0.2,3.7,0.2c0.3,0,0.6,0,0.9-0.1c0.1,0,0.1,0.1,0.1,0.3
			c0,0.4-0.1,0.8-0.3,1.2c-0.2,0.4-0.4,0.6-0.6,0.6c-0.3,0-0.7-0.1-1-0.3c-1.4-0.6-2.7-0.9-3.9-1.1c-0.9-0.1-2.1-0.2-3.4-0.2
			c-1.6,0-2.9,0.1-4.1,0.3c-1.2,0.3-2.4,0.6-3.6,1.1c-0.4,0.1-0.6,0.2-0.9,0.2c-0.4,0-0.6-0.3-0.6-0.7c0-0.2,0.1-0.5,0.3-0.7
			c0.2-0.2,0.4-0.3,0.7-0.4c2.6-0.4,4.6-0.7,6.2-0.8l-0.1-2.4C27.1,0.4,27.3,0.2,27.6,0.2z M26.9,4.5c0.4,0,0.6,0.2,0.6,0.6l0.1,1.5
			h3.4c0,0,0-0.1,0-0.1L31.1,5c0.1-0.3,0.3-0.5,0.6-0.5c0.4,0,0.6,0.2,0.6,0.6l-0.6,1.3c0,0,0,0.1,0,0.1h2.8c0.1,0,0.2,0.1,0.2,0.3
			c0,0.3-0.1,0.5-0.2,0.7c-0.2,0.2-0.4,0.3-0.7,0.3c-0.2,0-0.8,0-1.8-0.1c-0.7,0-1.5,0-2.3,0c0,0.1,0,0.2,0,0.3c0,0.3,0,0.6,0,0.9
			h3.8c0.1,0,0.2,0.1,0.2,0.3c0,0.3-0.1,0.5-0.2,0.7c-0.2,0.2-0.4,0.3-0.7,0.3c-0.2,0-0.6,0-1.4-0.1c-0.6,0-1.2,0-1.8,0
			c0,0.3,0,0.5,0,0.8v0.3h5.8c0.2,0,0.3,0.1,0.3,0.3c0,0.3-0.1,0.6-0.2,0.8c-0.2,0.2-0.4,0.3-0.7,0.3c-0.3,0-1-0.1-2.1-0.2
			c-0.7,0-1.4-0.1-2.2-0.1c2.3,1.6,3.8,2.5,4.3,2.6c0.4,0.1,0.8,0.2,1.3,0.2c0.2,0,0.3,0.1,0.3,0.4c0,0.3-0.2,0.6-0.6,0.9
			c-0.4,0.3-0.8,0.5-1.2,0.5c-0.3,0-0.5-0.1-0.8-0.4c-0.9-1-1.9-1.9-3.1-2.9c-0.4-0.3-0.8-0.6-1.1-0.8l0,3.2c0,0.9-0.2,1.4-0.6,1.4
			c-0.4,0-0.6-0.5-0.6-1.4c0-1.2,0-2.3,0.1-3.3c-0.8,0.9-1.7,1.7-2.7,2.4C25,15.5,24.1,16,23,16.4c-0.2,0.1-0.4,0.1-0.5,0.1
			c-0.3,0-0.6-0.2-0.9-0.6c-0.3-0.3-0.4-0.6-0.4-0.9c0-0.2,0.2-0.2,0.5-0.3c0.8-0.1,1.3-0.2,1.7-0.3c0.9-0.2,1.8-0.5,2.6-1.1
			c0.7-0.4,1.3-0.9,1.8-1.4c-1.5,0-2.6,0.1-3.4,0.2c-0.5,0.1-0.9,0.2-1.1,0.2c-0.4,0-0.6-0.2-0.6-0.6c0-0.2,0.1-0.5,0.3-0.6
			c0.2-0.1,0.4-0.2,0.7-0.2h4.9c0-0.1,0-0.2,0-0.3c0-0.3,0-0.5,0-0.8c-1.2,0-2.1,0.1-2.7,0.2c-0.4,0.1-0.6,0.2-0.7,0.2
			c-0.3,0-0.5-0.2-0.6-0.6c0-0.2,0.1-0.4,0.3-0.6c0.2-0.1,0.4-0.2,0.7-0.2h3c0-0.3,0-0.6,0-0.9c0-0.1,0-0.2,0-0.3
			c-1.6,0-2.8,0.1-3.5,0.2C24.5,7.9,24.3,8,24.1,8c-0.3,0-0.5-0.2-0.6-0.6c0-0.2,0.1-0.4,0.3-0.6c0.2-0.1,0.4-0.2,0.7-0.2h2.3
			c0,0,0-0.1,0-0.1l-0.4-1.4C26.4,4.7,26.6,4.5,26.9,4.5z M23.6,1.2c0.3,0.1,0.5,0.1,0.6,0.1c0.3,0,0.7-0.1,1.2-0.3
			c0.1,0,0.2,0.1,0.2,0.3c0,0.2-0.2,0.5-0.5,1C24.8,2.8,24.5,3,24.3,3c-0.2,0-0.4-0.1-0.5-0.4c-0.2-0.3-0.3-0.7-0.3-1.1
			C23.5,1.3,23.5,1.2,23.6,1.2z M33.1,0.9L33.1,0.9c0.5,0.2,0.8,0.3,1.1,0.4c0.2,0,0.4,0.1,0.7,0.1C35,1.4,35,1.5,35,1.7
			c0,0.2-0.1,0.5-0.4,0.7c-0.4,0.3-0.8,0.5-1.1,0.5c0,0-0.1,0-0.1-0.1c-0.1-0.1-0.3-0.6-0.6-1.4c0-0.1,0-0.1,0-0.2
			C32.9,1,33,0.9,33.1,0.9z"/>
		<path class="st0" d="M41.8,5.4h1.7l0-3.9c0-0.6,0.2-0.8,0.6-0.8c0.5,0,0.8,0.3,0.8,0.8l-0.1,3.9h2.1c0.1,0,0.2,0.1,0.2,0.3
			c0,0.2-0.1,0.5-0.2,0.6c-0.2,0.2-0.4,0.3-0.7,0.3c-0.1,0-0.4,0-0.9-0.1c-0.2,0-0.4,0-0.6,0l-0.1,4.6c0.9-0.2,1.7-0.4,2.2-0.5
			c0.2,0,0.3,0.1,0.3,0.4c0,0.4-0.1,0.6-0.4,0.7c-1.9,0.6-3.7,1.3-5.3,2.1c-0.4,0-0.6-0.2-0.6-0.6c0-0.4,0.1-0.6,0.2-0.8
			c0.1-0.2,0.2-0.3,0.5-0.4c0.8-0.2,1.4-0.4,2.1-0.6l0-4.9c-0.7,0-1.3,0.1-1.6,0.2c-0.3,0.1-0.4,0.2-0.5,0.2c-0.4,0-0.6-0.2-0.6-0.6
			c0-0.2,0.1-0.4,0.3-0.6C41.3,5.4,41.5,5.4,41.8,5.4z M57.2,4.9c0.4,0,0.6,0.3,0.6,0.8c0,0.1-0.1,0.3-0.2,0.5
			C57.4,6.8,57,8,56.4,9.9c-0.1,0.4-0.3,0.6-0.6,0.6c-0.3,0-0.5-0.2-0.5-0.5c0.1-0.7,0.4-1.8,0.9-3.4c0-0.1-0.1-0.2-0.3-0.2
			c-0.2,0-0.5,0-0.9,0.1c-0.5,0.1-1,0.2-1.5,0.3l0,3.7c0,0.9-0.2,1.4-0.6,1.4c-0.4,0-0.6-0.5-0.6-1.4c0-1.3,0-2.4,0-3.4
			c-0.8,0.2-1.5,0.4-2.1,0.6c0,1.7-0.1,3.7-0.1,5.8c0,0.4,0.2,0.6,0.5,0.7c0.7,0.1,2.3,0.1,5,0.1c1.3,0,2.4-0.2,3.4-0.6
			c0.1,0,0.2,0.2,0.2,0.5c0,0.4-0.1,0.9-0.3,1.4c-0.2,0.6-0.5,0.9-0.7,0.9c-0.3,0-3.1-0.3-8.2-0.9c-0.8-0.1-1.2-0.5-1.2-1.1
			c0.1-2.6,0.1-4.6,0.1-6c0-0.1,0-0.3,0-0.4c-0.4,0.2-0.8,0.4-1.3,0.6c-0.5,0-0.7-0.2-0.7-0.6c0-0.3,0.1-0.5,0.2-0.8
			c0.1-0.2,0.3-0.3,0.6-0.3c0.4-0.1,0.9-0.2,1.3-0.4c0-1,0-2.1-0.1-3.2c0-0.4,0.2-0.6,0.6-0.6c0.5,0,0.7,0.3,0.7,0.8
			c0,0.8,0,1.7,0,2.7c0.7-0.2,1.4-0.4,2.1-0.5c0-0.6,0-1.1,0-1.6c0-0.9,0-2-0.1-3.1c0-0.6,0.2-0.8,0.6-0.8c0.4,0,0.6,0.3,0.6,0.8
			c-0.1,1.2-0.1,2.2-0.1,3.1l0,1.4c0.8-0.2,1.6-0.3,2.3-0.4c0.4-0.1,0.7-0.2,1-0.3C56.9,4.9,57,4.9,57.2,4.9z"/>
		<path class="st0" d="M61.4,2.2c0.1,0,0.3,0,0.4,0.1c1.3-0.1,2.5-0.1,3.6-0.2c0-0.3-0.1-0.7-0.1-1c0-0.4,0.2-0.6,0.6-0.6
			c0.4,0,0.7,0.2,0.7,0.6c0,0.2,0,0.5,0.1,0.9c0.9,0,1.7,0,2.4,0l0-1c0-0.5,0.2-0.7,0.7-0.7c0.5,0,0.7,0.2,0.7,0.7l0,1.1
			c0.7,0,1.5,0,2.5,0c0-0.1,0-0.2,0-0.3c0-0.8,0.2-1.2,0.6-1.2c0.4,0,0.6,0.3,0.6,0.8C74,1.6,74,1.8,74,2.1c0.6,0,1.2,0,1.8,0.1
			c0.5,0,0.9,0,1.2,0c0.2,0,0.5,0,0.8-0.1c0.3-0.1,0.5-0.2,0.6-0.2c0.2,0,0.2,0.1,0.2,0.2c0,0.4-0.1,0.8-0.4,1.3
			C77.9,3.8,77.6,4,77.3,4c-0.3,0-0.9-0.1-1.7-0.3c-0.6-0.1-1.1-0.2-1.8-0.3c0,0.1,0,0.1,0,0.2C74,4.5,74,5,74,5.3
			c0,0.4-0.2,0.6-0.6,0.6c-0.8-0.1-2.1-0.1-3.7-0.1c-1.2,0-2.4,0.1-3.6,0.3c-0.4,0-0.6-0.2-0.6-0.6c0-0.5,0.1-1,0.1-1.5
			c0-0.2,0-0.4,0-0.7c-1.2,0-2.2,0.1-2.9,0.3c-0.6,0.1-1.1,0.2-1.5,0.2c-0.3,0-0.5-0.2-0.5-0.6c0-0.2,0.1-0.5,0.2-0.7
			C61.1,2.3,61.2,2.2,61.4,2.2z M62.7,6.7c0.3,0,0.4,0,0.6,0.1c0.2,0.1,0.4,0.1,0.5,0.1c1.3-0.1,3.1-0.1,5.3-0.1
			c2.7,0,5.1,0.1,7,0.3l0.8-0.2c0.4,0,0.6,0.2,0.6,0.5c0,0.1,0,0.3-0.1,0.5c-0.2,0.6-0.4,1.6-0.4,2.9c0,0.4-0.2,0.6-0.5,0.6
			c-0.3,0-0.5-0.2-0.5-0.6c0-0.8,0-1.5,0.1-2.2c0-0.1-0.1-0.1-0.3-0.2C74.1,8.1,72.3,8,70.3,8c0,0.1,0.1,0.3,0.1,0.5
			c0,0.5-0.1,1-0.1,1.5l2.1,0c0.2,0,0.5-0.1,0.9-0.2c0.5,0,0.7,0.2,0.7,0.6c-0.2,0.7-0.3,1.5-0.3,2.5c0,0.6,0.1,1.4,0.2,2.4
			c0,0.6-0.2,0.9-0.6,0.9c-0.2,0-0.3-0.1-0.5-0.3c-0.1-0.3-0.1-0.7-0.1-1.2c0-1.5,0.1-2.6,0.2-3.5c0-0.1-0.2-0.2-0.5-0.2
			c-0.7,0-1.4,0-2,0l0.1,4.8c0,1-0.2,1.5-0.7,1.5c-0.4,0-0.6-0.5-0.6-1.5c0.1-2,0.1-3.6,0.1-4.8c-0.8,0-1.6,0-2.4,0.1v2.3
			c0,0.5,0,1-0.1,1.4c-0.1,0.4-0.3,0.7-0.5,1c-0.2,0.2-0.4,0.4-0.5,0.4c-0.2,0-0.5-0.1-0.9-0.4c-0.4-0.3-0.6-0.6-0.6-0.8
			c0-0.2,0.1-0.3,0.3-0.4c0.4-0.1,0.7-0.3,0.9-0.6c0.2-0.3,0.3-1,0.3-2c0-0.5-0.1-1.1-0.2-1.7c0-0.4,0.2-0.6,0.6-0.6
			c0.2,0,0.4,0.1,0.5,0.2l2.5,0c0-0.4,0-0.9-0.1-1.4c0-0.2,0-0.3,0.1-0.5c-1.7,0-3.2,0.1-4.7,0.3c-0.5,0-0.9,0.2-0.9,0.4l0,0.1
			c0,1.2-0.1,1.9-0.2,2.1c-0.1,0.3-0.2,0.4-0.5,0.4c-0.2,0-0.3-0.1-0.3-0.3c0-1.5-0.1-2.8-0.3-3.8C62.1,6.9,62.3,6.7,62.7,6.7z
			 M66.7,3.2c0,0.4,0,0.9,0,1.4C66.7,4.8,66.8,5,67,5c0.7-0.1,1.5-0.2,2.2-0.2l0-1.6C68.2,3.2,67.4,3.2,66.7,3.2z M70.3,3.2
			l-0.1,1.6c0.7,0,1.5,0,2.4,0.1c0.2,0,0.3-0.1,0.3-0.4c0-0.3,0-0.7-0.1-1.2C72.1,3.3,71.2,3.2,70.3,3.2z"/>
		<path class="st0" d="M95.5,8.6c0,2.8-1.3,4.9-3.9,6.3c-1,0.6-1.9,0.9-2.4,0.9c-0.3,0-0.7-0.2-1-0.5c-0.4-0.3-0.6-0.7-0.6-1.1
			c0-0.1,0.2-0.3,0.5-0.3c0.2,0,0.6-0.1,1-0.2c1.2-0.2,2.2-0.6,2.9-1.1c0.7-0.5,1.3-1.1,1.7-1.8c0.5-0.8,0.7-1.7,0.7-2.6
			c0-0.7-0.2-1.5-0.6-2.2c-0.8-1.6-2.2-2.4-4.1-2.4c-0.1,0-0.2,0-0.3,0c-0.1,0-0.2,0-0.3,0c-0.8,4.1-1.8,7.2-3,9
			c-0.7,1.1-1.4,1.6-1.9,1.6c-0.7,0-1.3-0.6-1.8-1.9c-0.4-1-0.6-2-0.6-3c0-1.5,0.4-2.9,1.3-4.1c1.3-1.9,3.4-2.8,6.1-2.8
			c1.7,0,3.1,0.5,4.3,1.6C94.8,5.1,95.5,6.6,95.5,8.6z M87.8,3.7C86,4.1,84.8,4.8,84,6c-0.8,1.1-1.2,2.2-1.2,3.2
			c0,0.6,0.1,1.2,0.3,2c0.3,0.9,0.6,1.3,1,1.3c0.4,0,0.8-0.3,1.2-1C86.4,9.8,87.2,7.2,87.8,3.7z"/>
		<path class="st0" d="M100.9,10.1h2.6c0-0.3,0-0.6,0-0.9c0-0.6,0.2-0.8,0.6-0.8c0.4,0,0.6,0.3,0.6,0.8c0,0.3,0,0.6,0,0.9h2.3
			c0.1,0,0.2,0.1,0.2,0.2c0,0.3-0.1,0.5-0.2,0.7c-0.2,0.2-0.4,0.3-0.7,0.3c-0.1,0-0.5,0-1-0.1c-0.2,0-0.4,0-0.7,0c0,0.1,0,0.2,0,0.3
			l0,0.4c0,0,0,0,0.1,0c0.1,0,0.4,0.2,1.1,0.7c0.7,0.5,1,0.8,1,1.1c0,0.4-0.2,0.6-0.6,0.6c-0.1,0-0.2,0-0.3-0.1
			c-0.5-0.4-1-0.8-1.3-0.9l0,2.7c0,0.9-0.2,1.4-0.6,1.4c-0.4,0-0.6-0.5-0.6-1.4c0-1.1,0-2.1,0.1-2.9c-0.4,0.6-0.9,1.1-1.4,1.6
			c-0.5,0.5-1.1,0.9-1.8,1.2c-0.2,0.1-0.3,0.1-0.3,0.1c-0.3,0-0.6-0.2-1-0.6c-0.3-0.3-0.4-0.6-0.4-0.9c0-0.2,0.2-0.3,0.5-0.3
			c0.5,0,0.9-0.1,1.1-0.2c0.6-0.1,1.1-0.4,1.7-0.8c0.5-0.4,1-0.8,1.4-1.3c0.1-0.2,0.2-0.3,0.3-0.3v0c0-0.1,0-0.2,0-0.3
			c0,0-0.1,0-0.1,0c-1.1,0-1.9,0-2.4,0.1c-0.3,0.1-0.5,0.1-0.6,0.1c-0.3,0-0.5-0.3-0.6-0.7c0-0.2,0.1-0.4,0.3-0.6
			C100.3,10.2,100.6,10.1,100.9,10.1z M103.4,2.2h3.8c0-0.3,0-0.7-0.1-1c0-0.6,0.2-0.8,0.7-0.8c0.4,0,0.6,0.3,0.6,0.8
			c0,0.4,0,0.7-0.1,1h4.7c0.2,0,0.3,0.1,0.3,0.3c0,0.3-0.1,0.6-0.2,0.8c-0.2,0.2-0.4,0.3-0.7,0.3c-0.2,0-0.8-0.1-1.7-0.2
			c-0.6,0-1.2-0.1-1.9-0.1c0.1,0.1,0.2,0.2,0.3,0.3c2.4,1.6,3.8,2.5,4.4,2.7c0.4,0.1,0.8,0.2,1.3,0.2c0.3,0,0.4,0.1,0.4,0.4
			c0,0.3-0.2,0.6-0.6,0.9c-0.4,0.3-0.8,0.5-1.3,0.5c-0.3,0-0.6-0.1-0.9-0.4c-0.9-1-1.9-1.9-3.1-2.9c-0.4-0.3-0.7-0.6-1-0.7l0.1,3.4
			c0,0.9-0.2,1.4-0.6,1.4c-0.4,0-0.6-0.5-0.6-1.4c0-1.4,0.1-2.6,0.1-3.5c-0.7,0.9-1.5,1.8-2.4,2.4c-0.7,0.6-1.6,1.2-2.6,1.6
			c-0.2,0.1-0.4,0.1-0.4,0.1c-0.3,0-0.7-0.2-1.1-0.7c-0.3-0.4-0.5-0.7-0.5-0.9c0-0.2,0.2-0.4,0.6-0.4c0.7-0.1,1.2-0.2,1.6-0.3
			c0.8-0.2,1.7-0.6,2.4-1.1c0.7-0.5,1.2-1,1.7-1.6c-1.2,0-2.1,0.1-2.8,0.3c-0.4,0.1-0.7,0.2-0.9,0.2c-0.4,0-0.7-0.3-0.7-0.8
			c0-0.2,0.1-0.4,0.3-0.6C102.8,2.2,103.1,2.2,103.4,2.2z M109.4,10.1h1.6c0-0.4,0-0.7,0-1.1c0-0.6,0.2-0.8,0.6-0.8
			c0.4,0,0.6,0.3,0.6,0.8c0,0.4-0.1,0.8-0.1,1.1h3.2c0.2,0,0.3,0.1,0.3,0.2c0,0.3-0.1,0.6-0.2,0.9c-0.2,0.2-0.4,0.4-0.7,0.4
			c-0.1,0-0.5-0.1-1-0.2c-0.5,0-1-0.1-1.6-0.1c0,0.1,0,0.2,0,0.2v0.4c0.1,0,0.3,0.2,0.4,0.3c1.7,1.1,2.7,1.8,3.1,1.9
			c0.3,0.1,0.6,0.1,1,0.2c0.2,0,0.3,0.1,0.3,0.4c0,0.3-0.2,0.6-0.6,0.9c-0.4,0.3-0.8,0.4-1.2,0.4c-0.3,0-0.5-0.1-0.8-0.4
			c-0.6-0.8-1.2-1.5-1.9-2.3c-0.1-0.1-0.2-0.2-0.3-0.3l0,3.1c0,0.9-0.2,1.4-0.7,1.4c-0.4,0-0.6-0.5-0.6-1.4c0.1-1.1,0.1-2.1,0.1-2.9
			c-0.3,0.5-0.6,0.9-1,1.3c-0.4,0.4-0.8,0.8-1.3,1.1c-0.1,0.1-0.2,0.1-0.2,0.1c-0.3,0-0.6-0.2-0.9-0.6c-0.3-0.3-0.4-0.5-0.4-0.7
			c0-0.2,0.2-0.3,0.4-0.3c0.4,0,0.7-0.1,0.8-0.2c0.4-0.1,0.9-0.4,1.3-0.8c0.4-0.4,0.8-0.8,1-1.3c0.1-0.1,0.1-0.2,0.2-0.3
			c0,0,0-0.1,0-0.2c0-0.1,0-0.1,0-0.2c-0.6,0-1.1,0.1-1.4,0.1c-0.3,0.1-0.4,0.1-0.5,0.1c-0.3,0-0.5-0.3-0.6-0.7
			c0-0.2,0.1-0.4,0.3-0.6C108.9,10.2,109.1,10.1,109.4,10.1z"/>
		<path class="st0" d="M132.9,6.2c0,0.3-0.3,0.6-0.8,1c-1.2,0.9-2.9,2-5.1,3.4c0,0.1,0,0.4,0,0.8c0,0.3,0,0.6,0,0.8
			c0,0.5-0.2,0.7-0.7,0.7c-0.3,0-0.4-0.2-0.5-0.6c0-0.1,0-0.4,0-1c-0.8,0.5-1.4,0.8-1.7,1.1c-0.7,0.6-1.1,1.1-1.1,1.7
			c0,0.4,0.3,0.6,1,0.8c0.5,0.1,1,0.2,1.5,0.2c1.5,0,2.8-0.3,4-0.8c0.9-0.4,1.4-0.6,1.4-0.6c0.1,0,0.2,0.1,0.2,0.4
			c0,0.5-0.1,1-0.4,1.5c-0.2,0.4-0.7,0.6-1.6,0.8c-0.7,0.1-1.4,0.1-2.3,0.1c-1.1,0-2.1-0.1-2.9-0.4c-1.3-0.4-1.9-1.1-1.9-2
			c0-0.8,0.5-1.6,1.4-2.4c0.1-0.2,0.9-0.7,2.2-1.7c0-0.9-0.1-1.4-0.1-1.6c-0.1-0.6-0.5-0.9-1.1-0.9c-0.7,0-1.4,0.2-1.9,0.5
			c-0.2,0.1-0.8,0.6-1.7,1.4c-0.1,0.1-0.2,0.2-0.4,0.3c-0.4,0-0.6-0.3-0.6-0.9c0-0.4,0.4-0.9,1.2-1.4c1.1-0.8,2.1-1.8,3-3.2
			c-0.4,0.1-1.1,0.2-2,0.3c0,0-0.3,0.1-0.8,0.2c-0.4,0.1-0.6,0.2-0.8,0.2c-0.3,0-0.5-0.2-0.5-0.7c0-0.6,0.4-0.9,1.2-1
			c0.7,0,1.9-0.1,3.3-0.1c0.1-0.3,0.4-0.9,0.8-1.9c0.2-0.5,0.4-0.7,0.8-0.7c0.5,0,0.7,0.2,0.7,0.7c0,0.2-0.3,0.8-0.9,1.9
			c0.4,0,1.1,0,1.9,0c0.9,0,1.5,0,1.9,0c0.1,0,0.3,0,0.5,0c0.2,0,0.4-0.1,0.5-0.1c0.1,0,0.2,0.1,0.2,0.2c0,0.3-0.2,0.6-0.4,1
			c-0.3,0.4-0.5,0.6-0.8,0.6c-0.2,0-0.5-0.1-0.8-0.2c-0.3-0.1-0.5-0.1-0.8-0.2c-0.6-0.2-1.6-0.3-2.8-0.3c-0.6,1-1.3,1.9-1.9,2.6
			c0.5-0.1,1-0.1,1.4-0.1c1.1,0,1.8,0.8,1.8,2.3c0,0.2,0,0.3,0.1,0.4c1.8-1.3,3.3-2.4,4.4-3.3c0.4-0.3,0.7-0.4,0.9-0.4
			C132.7,5.5,132.9,5.7,132.9,6.2z"/>
		<path class="st0" d="M141,9.5c0.2,0,0.3,0,0.5,0c0.2,0,0.4,0,0.8,0h3.1c0.7,0,1.5,0,2.5,0.1c0.2,0,0.4,0,0.6-0.1
			c0.4,0,0.6,0.2,0.6,0.6c0,0,0,0-0.1,0.1c-0.1,0.1-0.1,0.3-0.1,0.6c0,0.4-0.1,0.8-0.1,1.2c0,0.2,0,0.5,0.1,0.8
			c0,0.4-0.2,0.7-0.5,0.7c-0.4,0-0.7-0.1-1.1-0.1l-0.4,1.5c0.7,0,1.4,0.1,2.2,0.2c1.2,0.1,2.4,0.2,3.5,0.2c0.3,0,0.6,0,0.9-0.1
			c0.1,0,0.1,0.1,0.1,0.3c0,0.4-0.1,0.8-0.3,1.2c-0.2,0.4-0.4,0.6-0.6,0.6c-0.3,0-0.7-0.1-1-0.3c-1.3-0.5-2.5-0.9-3.7-1.1
			c-0.9-0.1-2-0.2-3.3-0.2c-1.6,0-2.9,0.1-4,0.3c-1.2,0.3-2.4,0.7-3.6,1.1c-0.4,0.2-0.6,0.2-0.9,0.2c-0.4,0-0.5-0.3-0.6-0.8
			c0-0.2,0.1-0.4,0.3-0.7c0.2-0.2,0.4-0.3,0.7-0.4c2.3-0.4,4.2-0.7,5.7-0.9l-0.3-1.6c0,0-0.1,0-0.1,0c-0.3,0-0.7,0.1-1.1,0.2
			c-0.3,0-0.5-0.2-0.5-0.7c0.1-0.6,0.1-1.1,0.1-1.6c0-0.4,0-0.8-0.1-1.3C140.4,9.7,140.6,9.5,141,9.5z M139.1,7.6h11.6
			c0.2,0,0.3,0.1,0.3,0.3c0,0.3-0.1,0.6-0.2,0.8c-0.2,0.2-0.4,0.3-0.7,0.3s-1-0.1-2.1-0.2c-1.1,0-2.4-0.1-3.8-0.1
			c-2.1,0-3.6,0.1-4.5,0.2c-0.5,0.1-0.9,0.2-1,0.2c-0.4,0-0.6-0.2-0.6-0.6c0-0.2,0.1-0.4,0.3-0.6C138.6,7.7,138.8,7.6,139.1,7.6z
			 M139.5,0.8c0.2,0,0.4,0,0.6,0.1c0.2,0.1,0.5,0.1,0.9,0.1h1.6V0.7c0-0.4,0.2-0.7,0.6-0.7c0.4,0,0.7,0.3,0.7,0.8l0,0.3h1.8
			c0.1,0,0.2,0,0.3,0l0-0.4c0-0.4,0.2-0.7,0.6-0.7c0.4,0,0.6,0.3,0.6,0.8l0,0.3c0.7,0,1.4,0,2.2,0.1c0.2,0,0.4-0.1,0.7-0.2
			c0.4,0,0.6,0.3,0.6,0.8l0,0.1c-0.1,0.2-0.1,0.5-0.1,0.9c0,0.6-0.1,1.2-0.1,1.8c0,0.4,0,0.9,0.1,1.5c0,0.5-0.2,0.7-0.6,0.7
			c-1.9-0.1-3.5-0.2-5-0.2c-1.9,0-3.2,0-3.7,0c-0.4,0-1,0.1-1.6,0.1c-0.4,0-0.6-0.2-0.6-0.6c0.1-0.9,0.2-1.7,0.2-2.4
			c0-0.6-0.1-1.4-0.2-2.3C138.9,1.1,139.1,0.8,139.5,0.8z M142.6,5.6l0-1.2c-0.8,0-1.4,0.1-2.1,0.1c-0.1,0-0.2,0-0.3,0
			c0,0.3,0,0.6-0.1,0.9c0,0.3,0.2,0.4,0.5,0.4C141.2,5.6,141.8,5.6,142.6,5.6z M140.2,3.3c0.1,0,0.2,0,0.3,0h2l0-1.2
			c-0.6,0-1.2,0-1.9,0c-0.3,0-0.4,0.2-0.4,0.5C140.3,2.8,140.3,3.1,140.2,3.3z M144.6,12.5c0.9,0,1.9,0,2.9,0.1
			c0.2,0,0.3-0.1,0.3-0.4v-1.3c0-0.1-0.1-0.2-0.2-0.2c-1.3-0.1-3.2-0.1-5.7-0.1c-0.2,0-0.3,0.1-0.3,0.4c0,0.4-0.1,0.8-0.2,1.1
			c0,0.3,0.1,0.5,0.4,0.5C142.7,12.5,143.6,12.5,144.6,12.5z M143.3,15c0.5,0,1-0.1,1.4-0.1c0.4,0,0.8,0,1.2,0l0.2-1.5
			c-0.5,0-1.1,0-1.6,0c-0.5,0-0.9,0-1.3,0L143.3,15z M144.7,5.5c0.4,0,0.7,0,1.1,0l0-1.3c-0.8,0-1.5,0-2.2,0l0,1.2
			C143.9,5.5,144.3,5.5,144.7,5.5z M143.6,2.1l0,1.2h2.2l0-1.2C145.1,2.1,144.4,2.1,143.6,2.1z M146.8,4.2l0,1.3
			c0.7,0,1.3,0,2.1,0.1c0.2,0,0.3-0.1,0.3-0.3V4.2C148.4,4.2,147.6,4.2,146.8,4.2z M146.9,2.1l0,1.2h2.2c0,0,0.1,0,0.1,0V2.4
			c0-0.2,0-0.3-0.1-0.3C148.4,2.1,147.7,2.1,146.9,2.1z"/>
		<path class="st0" d="M167.3,7.8c0,1.6-0.2,3.2-0.7,4.8c-0.7,2-1.6,3-2.7,3c-0.3,0-0.5-0.2-0.9-0.7c-0.3-0.5-0.4-0.9-0.4-1.2
			c0-0.2,0.3-0.3,0.9-0.3c0.7-0.1,1.1-0.3,1.3-0.5c0.5-0.5,0.9-1.4,1.2-2.8c0.2-1.1,0.3-2.2,0.3-3.2c0-1-0.4-1.4-1.3-1.4
			c-0.3,0-0.9,0-1.7,0.1c-0.4,1.8-0.9,3.3-1.3,4.4c-0.5,1.3-1.3,2.6-2.2,3.9c-0.8,1.1-1.4,1.7-1.8,1.7c-0.2,0-0.6-0.2-0.9-0.6
			c-0.4-0.4-0.6-0.6-0.6-0.9c0-0.1,0.1-0.3,0.3-0.4c0.2-0.1,0.5-0.3,0.9-0.6c1-0.7,1.8-1.5,2.5-2.5c0.8-1.2,1.5-2.9,2.2-4.9
			c-0.7,0.1-1.8,0.3-3.1,0.6c-0.3,0-0.5-0.2-0.5-0.6c0-0.7,0.6-1,1.9-1.1c0.3,0,1-0.1,2.1-0.1c0.2-0.8,0.3-1.6,0.3-2.6
			c0-0.5,0.2-0.8,0.6-0.8c0.4,0,0.6,0.2,0.6,0.7c0,0.2-0.1,1.1-0.4,2.6c0.7,0,1.1,0,1.4,0c0.9,0,1.6,0.3,2,0.9
			C167.2,5.8,167.3,6.6,167.3,7.8z M173.7,7.1c0,0.2-0.2,0.6-0.6,1.2c-0.4,0.5-0.7,0.8-0.9,0.8c-0.4,0-1-0.6-1.9-1.7
			s-1.2-1.9-1.2-2.4c0-0.2,0.1-0.4,0.2-0.4c0.1,0,0.3,0.2,0.7,0.6c0.4,0.4,0.9,0.8,1.5,1.2c0.5,0.3,1,0.5,1.6,0.5
			C173.5,6.8,173.7,6.9,173.7,7.1z"/>
		<path class="st0" d="M181.3,11.6c-0.2,0.8-0.5,1.6-0.8,2.5c-0.5,1.3-0.9,1.9-1.3,1.9c-0.4,0-0.8-0.6-1.1-1.9
			c-0.3-1.1-0.4-2.7-0.4-4.8c0-0.8,0.1-2,0.4-3.6c0.3-1.7,0.5-2.8,0.8-3.4c0.2-0.4,0.4-0.6,0.8-0.6c0.4,0,0.7,0.2,0.7,0.7
			c0,0.1-0.1,0.5-0.3,1c-0.3,0.8-0.6,1.7-0.8,2.8c-0.2,1.1-0.4,2.1-0.4,2.8c0,3.1,0.2,4.7,0.6,4.7c0.2,0,0.6-0.8,1.3-2.3
			c0.1-0.2,0.2-0.3,0.3-0.3C181.2,11.3,181.2,11.4,181.3,11.6z M191.5,12.4c0,0.1-0.2,0.5-0.4,1.2c-0.2,0.6-0.5,0.9-0.9,1.1
			c-0.4,0.2-1.4,0.3-2.9,0.3c-1.2,0-2.2-0.2-3.1-0.6c-1.2-0.6-1.8-1.5-1.8-2.7c0-1.3,0.3-2,0.8-2c0.1,0,0.2,0.1,0.2,0.3
			c-0.1,0.6-0.2,1-0.2,1.2c0,1.4,0.9,2.1,2.8,2.1c0.8,0,1.7-0.1,2.7-0.3c0.6-0.1,1.1-0.3,1.6-0.5c0.4-0.2,0.7-0.3,0.9-0.3
			C191.4,12,191.5,12.2,191.5,12.4z M189.7,3.7c0,0.2-0.5,0.8-1.5,1.6c-1,0.8-1.6,1.2-1.8,1.2c-0.2,0-0.3-0.1-0.3-0.3
			c0-0.1,0.2-0.5,0.7-1c0.4-0.4,0.7-0.8,0.9-0.9c-0.1,0-0.2,0-0.3,0c-0.9,0-1.8,0.1-2.8,0.3c-1.1,0.2-1.6,0.4-1.6,0.4
			c-0.2,0-0.4-0.2-0.4-0.5c0-0.5,0.2-0.8,0.5-1c0.1,0,0.5-0.1,1.1-0.2c1.4-0.2,3-0.2,4.8-0.2C189.5,3,189.7,3.3,189.7,3.7z"/>
		<path class="st0" d="M201.4,15.9c0,0.4-0.1,0.8-0.4,1.1c-0.3,0.3-0.6,0.4-1,0.4c-0.4,0-0.7-0.1-0.9-0.4c-0.2-0.3-0.4-0.6-0.4-1.1
			c0-0.9,0.4-1.4,1.3-1.4c0.4,0,0.7,0.1,1,0.4C201.3,15.1,201.4,15.4,201.4,15.9z M201,2.9c-0.1,0.5-0.2,2.1-0.2,4.9
			c0,2.4,0,3.8,0.1,4c0,0.7-0.3,1-0.9,1c-0.6,0-0.9-0.3-0.9-1c0-0.5,0-1.1,0.1-2c0.1-0.9,0.1-1.6,0.1-2c0-0.5,0-1.3-0.1-2.4
			c-0.1-1.1-0.1-1.9-0.1-2.5c0-0.7,0.3-1.1,0.9-1.1C200.7,1.8,201,2.2,201,2.9z"/>
	</g>
</g>
<g>
	<g>
		<path class="st0" d="M319.1,6c1.1,0,2.4,0.1,3.9,0.2c1.1,0.1,2.1,0.1,2.9,0.1c0.4,0,0.9-0.1,1.5-0.3c0.1,0,0.1,0.2,0.1,0.5
			c0,0.5-0.2,1.1-0.5,1.6c-0.2,0.4-0.4,0.6-0.6,0.6c-0.4,0-0.8-0.1-1.3-0.4c-0.8-0.4-1.7-0.8-2.7-0.9c-1-0.2-2.2-0.3-3.5-0.3
			c-0.5,0-1.1,0-1.6,0c-0.3,0.6-0.7,1.3-1.1,2c-1.1,1.4-2.2,2.5-3.3,3.3c-0.8,0.5-1.4,0.8-1.9,0.8c-0.2,0-0.5-0.1-0.7-0.3
			c-0.3-0.3-0.4-0.7-0.4-1c0-0.2,0.2-0.4,0.6-0.5c1.5-0.2,2.9-1,4.2-2.2c0.6-0.6,1.1-1.3,1.6-2c-0.4,0-0.9,0.1-1.3,0.1
			c-0.8,0.1-2,0.5-3.6,1.3c-0.5,0-0.7-0.2-0.7-0.7c0-0.3,0.1-0.5,0.3-0.7c0.2-0.3,0.6-0.5,1-0.5c1.9-0.4,3.6-0.6,5-0.7
			c0.3-0.5,0.5-1.1,0.7-1.7c0-0.2,0.2-0.3,0.4-0.3c0.4,0,0.6,0.2,0.6,0.7c0,0-0.1,0.1-0.1,0.3c-0.1,0.3-0.2,0.6-0.4,1
			C318.4,6,318.8,6,319.1,6z M311.8,1.8h3.6L315.3,1c0-0.4,0.2-0.6,0.6-0.6c0.4,0,0.6,0.2,0.6,0.7v0.6h4.4l0.1-0.6
			c0-0.6,0.2-0.8,0.6-0.8c0.4,0,0.6,0.2,0.6,0.7l-0.2,0.7h4.3c0.2,0,0.3,0.1,0.3,0.3c0,0.3-0.1,0.6-0.2,0.8
			c-0.2,0.2-0.4,0.3-0.7,0.3c-0.4,0-1.3-0.1-2.7-0.2c-0.4,0-0.8,0-1.2,0l-0.2,1c-0.1,0.3-0.3,0.4-0.5,0.4c-0.3,0-0.4-0.2-0.4-0.6
			l0.1-0.8c-0.8,0-1.7,0-2.5,0c-0.6,0-1.2,0-1.8,0v0.8c0,0.4-0.1,0.6-0.4,0.6c-0.3,0-0.4-0.2-0.5-0.6L315.6,3
			c-1.2,0-2.2,0.1-2.9,0.2c-0.7,0.1-1.1,0.2-1.3,0.2c-0.4,0-0.7-0.3-0.7-0.7c0-0.2,0.1-0.5,0.3-0.6C311.2,1.8,311.5,1.8,311.8,1.8z
			 M316.5,10.4c0.2,0,0.4,0,0.6,0.1c0.2,0.1,0.5,0.1,0.9,0.1h2.5c0.6,0,1.2,0,2,0.1c0.2,0,0.4-0.1,0.7-0.2c0.4,0,0.6,0.2,0.6,0.7
			c0,0,0,0.1,0,0.2c-0.1,0.2-0.1,0.5-0.1,0.9c0,0.6-0.1,1.2-0.1,1.8c0,0.4,0,0.9,0.1,1.6c0,0.5-0.2,0.7-0.6,0.7
			c-1.3-0.1-2.5-0.2-3.5-0.2c-1.1,0-1.8,0-2.1,0.1c-0.2,0-0.6,0.1-0.9,0.1c-0.4,0-0.6-0.2-0.6-0.6c0.1-0.9,0.2-1.7,0.2-2.4
			c0-0.6-0.1-1.4-0.2-2.4C315.9,10.6,316.1,10.4,316.5,10.4z M319.5,15.2c0.8,0,1.7,0,2.6,0.1c0.2,0,0.3-0.1,0.3-0.3v-3
			c0-0.2-0.1-0.3-0.2-0.3c-1-0.1-2.6-0.1-4.6-0.1c-0.3,0-0.4,0.2-0.4,0.5c0,1-0.1,1.9-0.2,2.8c0,0.3,0.2,0.4,0.5,0.4
			C318.2,15.2,318.8,15.2,319.5,15.2z"/>
		<path class="st0" d="M335.6,2.4h2.8l-0.1-1.5c0-0.5,0.2-0.7,0.7-0.7c0.5,0,0.7,0.2,0.7,0.7l-0.1,1.5h3.3c0.1,0,0.1,0,0.2,0.1
			c0.3-0.4,0.7-0.9,1-1.3c0.1-0.1,0.2-0.1,0.4-0.1c0.3,0,0.5,0.3,0.5,0.6c0,0.2,0,0.3-0.1,0.4c-1,1.3-2,2.4-2.8,3.3
			c0.4,0,0.7,0.1,1.1,0.1c1.2,0.1,2.3,0.2,3.1,0.2c0.4,0,1-0.1,1.6-0.3c0.1,0,0.2,0.2,0.2,0.5c0,0.5-0.2,1-0.5,1.6
			c-0.2,0.4-0.5,0.6-0.7,0.6c-0.4,0-0.8-0.1-1.3-0.4c-0.9-0.4-1.8-0.7-2.8-0.9c-0.5-0.1-1.1-0.1-1.6-0.2c-0.8,0.8-1.6,1.5-2.2,1.9
			c-0.2,0.2-0.5,0.4-0.7,0.5c0.1,0,0.3,0,0.5,0h2.2c0.5,0,1.1,0,1.7,0.1c0.2,0,0.4-0.1,0.7-0.2c0.4,0,0.6,0.3,0.6,0.8
			c0,0,0,0.1,0,0.2c-0.1,0.2-0.1,0.6-0.1,1.2c0,0.8-0.1,1.6-0.1,2.5c0,0.6,0,1.3,0.1,2.3c0,0.6-0.2,0.8-0.6,0.8
			c-1.1-0.2-2-0.3-2.9-0.3c-1.1,0-1.8,0-2.1,0.1c-0.3,0-0.6,0.1-0.9,0.2c-0.4,0-0.6-0.2-0.6-0.7c0.1-1.2,0.2-2.3,0.2-3.2
			c0-0.8,0-1.8-0.1-2.9c-1.2,0.7-2.5,1.3-3.8,1.8c-0.6,0.3-1.1,0.4-1.5,0.4c-0.4,0-0.8-0.2-1-0.5c-0.3-0.3-0.4-0.6-0.4-0.9
			c0-0.2,0.1-0.4,0.3-0.4c2.4-0.4,4.3-0.9,5.7-1.6c1.1-0.5,2.3-1.3,3.4-2.2c-0.1,0-0.3,0-0.4,0c-1.4,0-2.7,0.1-4,0.2
			c-0.8,0.1-1.9,0.5-3.5,1.1c-0.4,0-0.6-0.2-0.6-0.6c0-0.3,0.1-0.5,0.3-0.7c0.2-0.3,0.5-0.5,0.9-0.5c2.7-0.4,4.8-0.6,6.3-0.6
			l-0.1-1.8c-1.2,0-2,0.1-2.6,0.2c-0.3,0.1-0.6,0.2-0.7,0.2c-0.4,0-0.6-0.2-0.6-0.6c0-0.2,0.1-0.4,0.3-0.6
			C335,2.5,335.3,2.4,335.6,2.4z M340.2,15.3c0.6,0,1.3,0,2,0.1c0.2,0,0.3-0.1,0.3-0.4v-1.9c-1.9,0-3.5,0.1-4.5,0.2c0,0-0.1,0-0.1,0
			c0,0.5,0,1.1-0.1,1.6c0,0.3,0.2,0.5,0.5,0.5C338.9,15.3,339.5,15.3,340.2,15.3z M338,12.1c0.1,0,0.1,0,0.2,0h4.4v-1.6
			c0-0.2,0-0.3-0.1-0.3c-0.9-0.1-2.3-0.1-4-0.1c-0.3,0-0.4,0.2-0.4,0.5C338,11.1,338,11.6,338,12.1z M340.6,5.4
			c0.5-0.5,1.1-1.1,1.6-1.7c-0.2,0-0.6,0-1.2-0.1c-0.4,0-0.9,0-1.4,0l-0.1,1.8C339.9,5.4,340.2,5.4,340.6,5.4z"/>
		<path class="st0" d="M366.1,7.4c0,1.2-0.4,2.1-1.3,2.9c-0.8,0.7-1.7,1-2.8,1c-0.7,0-1.2-0.2-1.5-0.6c-0.3-0.5-0.5-0.9-0.5-1.3
			c0-0.2,0-0.3,0.1-0.3c0.2,0,0.5,0.1,1,0.2c0.5,0.1,0.8,0.2,1.1,0.2c0.6,0,1.2-0.2,1.8-0.6c0.7-0.4,1-1,1-1.6
			c0-0.6-0.2-1.1-0.6-1.5c-0.4-0.3-0.8-0.5-1.4-0.5c-1.4,0-3.3,0.5-5.8,1.4c0.4,2.4,0.9,4.4,1.6,6c0.5,1.2,1.1,2.1,1.7,2.7
			c0.1,0.1,0.3,0.3,0.5,0.6c0,0.2-0.3,0.4-0.7,0.7c-0.4,0.2-0.7,0.3-1,0.3c-0.6,0-1.3-1.5-2-4.4c-0.5-2.1-0.9-3.9-1.1-5.5
			c-0.7,0.3-1.8,0.8-3.2,1.4l-1.1,0.6c-0.5,0-0.7-0.3-0.7-0.9c0-0.4,0.7-0.9,2.1-1.4c0.3-0.1,1.2-0.4,2.7-0.9
			c-0.2-1.8-0.2-3.2-0.2-4.2c0-0.5,0.2-0.7,0.7-0.7c0.3,0,0.4,0.2,0.5,0.7c0,0.3,0,0.7,0,1.3c0,1,0.1,1.9,0.1,2.7
			c2.6-0.8,4.4-1.2,5.6-1.2c0.9,0,1.7,0.2,2.3,0.7C365.7,5.7,366.1,6.4,366.1,7.4z M362.1,1.1c0,0.3-0.3,0.8-0.9,1.6
			c-0.6,0.8-1.1,1.1-1.3,1.1c-0.2,0-0.5-0.2-0.8-0.6c-0.3-0.4-0.5-0.7-0.5-0.9c0-0.1,0.3-0.2,0.9-0.3c0.4,0,0.9-0.3,1.5-0.6
			c0.6-0.4,0.9-0.6,0.9-0.6C362,0.8,362.1,0.9,362.1,1.1z"/>
		<path class="st0" d="M378.6,0.5c0.3,0,0.4,0.1,0.4,0.4c0.2,0.1,0.5,0.3,0.9,0.6c3.1,2.3,5.1,3.6,5.8,3.9c0.5,0.2,1.1,0.3,1.8,0.3
			c0.3,0,0.4,0.2,0.4,0.5c0,0.4-0.3,0.7-0.8,1.1c-0.5,0.4-1,0.5-1.5,0.5c-0.3,0-0.7-0.2-1-0.5c-1.3-1.4-2.7-2.7-4.2-4.1
			c-0.7-0.6-1.3-1-1.8-1.2c0,0-0.1,0-0.1,0c-1,1.3-2.1,2.4-3.3,3.4c-1,0.8-2.2,1.5-3.5,2.1c-0.3,0.1-0.5,0.2-0.6,0.2
			c-0.3,0-0.7-0.2-1.1-0.7c-0.3-0.3-0.5-0.6-0.5-0.9c0-0.2,0.2-0.3,0.6-0.4c1-0.1,1.7-0.2,2.1-0.4c1.1-0.3,2.2-0.9,3.3-1.7
			c1.1-0.8,2-1.8,2.7-2.8C378.3,0.6,378.5,0.5,378.6,0.5z M378.7,5.9c0.5,0,0.8,0.3,0.8,0.9l-0.1,2.6c0,0,0.1,0,0.1,0h2.9
			c0.4,0,0.6,0.2,0.6,0.6c0,0.3-0.2,0.5-0.6,0.5c-1.3,0-2.3,0.1-3.1,0.2l-0.1,3.8c1,0,2.2,0.1,3.8,0.2c0.3,0,0.6,0,0.9,0
			c0.2,0,0.5,0,0.8-0.1c0.3-0.1,0.5-0.2,0.6-0.2c0.2,0,0.2,0.1,0.2,0.2c0,0.4-0.2,0.8-0.5,1.2c-0.3,0.5-0.6,0.7-0.9,0.7
			c-0.2,0-0.7-0.1-1.2-0.3c-1.3-0.4-2.8-0.6-4.6-0.6c-2.5,0-4.2,0.1-5.2,0.4c-0.5,0.1-0.8,0.2-1.1,0.2c-0.3,0-0.5-0.2-0.5-0.6
			c0-0.2,0.1-0.5,0.2-0.7c0.1-0.2,0.3-0.3,0.5-0.3c0.1,0,0.3,0,0.4,0.1c0.6-0.1,1.3-0.1,1.9-0.1c0,0,0-0.1,0-0.1
			c0.1-0.7,0.1-1.5,0.1-2.2c0-0.8-0.1-1.8-0.2-3c0-0.4,0.2-0.6,0.6-0.6c0.4,0,0.6,0.2,0.6,0.6c0.1,0.6,0.1,2,0.1,4.4
			c0,0.4,0,0.7-0.1,0.9c0.8,0,1.6-0.1,2.4-0.1l-0.1-7.7C378.1,6.2,378.3,5.9,378.7,5.9z"/>
		<path class="st0" d="M398.1,0.2c0.4,0,0.7,0.2,0.7,0.7l-0.1,2.3c0.4,0,0.7,0,1,0c0.4,0,0.8,0,1.2,0l-0.1-2.4
			c0-0.4,0.2-0.6,0.6-0.6c0.4,0,0.6,0.2,0.6,0.7l-0.1,2.4c0.8,0.1,1.6,0.2,2.4,0.3c1.3,0.2,2.5,0.2,3.7,0.2c0.3,0,0.6,0,0.9-0.1
			c0.1,0,0.1,0.1,0.1,0.3c0,0.4-0.1,0.8-0.3,1.2c-0.2,0.4-0.4,0.6-0.6,0.6c-0.3,0-0.7-0.1-1-0.3c-1.4-0.6-2.7-0.9-3.9-1.1
			c-0.9-0.1-2.1-0.2-3.4-0.2c-1.6,0-2.9,0.1-4.1,0.3c-1.2,0.3-2.4,0.6-3.6,1.1c-0.4,0.1-0.6,0.2-0.9,0.2c-0.4,0-0.6-0.3-0.6-0.7
			c0-0.2,0.1-0.5,0.3-0.7c0.2-0.2,0.4-0.3,0.7-0.4c2.6-0.4,4.6-0.7,6.2-0.8l-0.1-2.4C397.5,0.4,397.7,0.2,398.1,0.2z M397.4,4.5
			c0.4,0,0.6,0.2,0.6,0.6l0.1,1.5h3.4c0,0,0-0.1,0-0.1l0.2-1.5c0.1-0.3,0.3-0.5,0.6-0.5c0.4,0,0.6,0.2,0.6,0.6l-0.6,1.3
			c0,0,0,0.1,0,0.1h2.8c0.1,0,0.2,0.1,0.2,0.3c0,0.3-0.1,0.5-0.2,0.7c-0.2,0.2-0.4,0.3-0.7,0.3c-0.2,0-0.8,0-1.8-0.1
			c-0.7,0-1.5,0-2.3,0c0,0.1,0,0.2,0,0.3c0,0.3,0,0.6,0,0.9h3.8c0.1,0,0.2,0.1,0.2,0.3c0,0.3-0.1,0.5-0.2,0.7
			c-0.2,0.2-0.4,0.3-0.7,0.3c-0.2,0-0.6,0-1.4-0.1c-0.6,0-1.2,0-1.8,0c0,0.3,0,0.5,0,0.8v0.3h5.8c0.2,0,0.3,0.1,0.3,0.3
			c0,0.3-0.1,0.6-0.2,0.8c-0.2,0.2-0.4,0.3-0.7,0.3c-0.3,0-1-0.1-2.1-0.2c-0.7,0-1.4-0.1-2.2-0.1c2.3,1.6,3.8,2.5,4.3,2.6
			c0.4,0.1,0.8,0.2,1.3,0.2c0.2,0,0.3,0.1,0.3,0.4c0,0.3-0.2,0.6-0.6,0.9c-0.4,0.3-0.8,0.5-1.2,0.5c-0.3,0-0.5-0.1-0.8-0.4
			c-0.9-1-1.9-1.9-3.1-2.9c-0.4-0.3-0.8-0.6-1.1-0.8l0,3.2c0,0.9-0.2,1.4-0.6,1.4c-0.4,0-0.6-0.5-0.6-1.4c0-1.2,0-2.3,0.1-3.3
			c-0.8,0.9-1.7,1.7-2.7,2.4c-0.8,0.6-1.7,1.1-2.8,1.5c-0.2,0.1-0.4,0.1-0.5,0.1c-0.3,0-0.6-0.2-0.9-0.6c-0.3-0.3-0.4-0.6-0.4-0.9
			c0-0.2,0.2-0.2,0.5-0.3c0.8-0.1,1.3-0.2,1.7-0.3c0.9-0.2,1.8-0.5,2.6-1.1c0.7-0.4,1.3-0.9,1.8-1.4c-1.5,0-2.6,0.1-3.4,0.2
			c-0.5,0.1-0.9,0.2-1.1,0.2c-0.4,0-0.6-0.2-0.6-0.6c0-0.2,0.1-0.5,0.3-0.6c0.2-0.1,0.4-0.2,0.7-0.2h4.9c0-0.1,0-0.2,0-0.3
			c0-0.3,0-0.5,0-0.8c-1.2,0-2.1,0.1-2.7,0.2c-0.4,0.1-0.6,0.2-0.7,0.2c-0.3,0-0.5-0.2-0.6-0.6c0-0.2,0.1-0.4,0.3-0.6
			c0.2-0.1,0.4-0.2,0.7-0.2h3c0-0.3,0-0.6,0-0.9c0-0.1,0-0.2,0-0.3c-1.6,0-2.8,0.1-3.5,0.2C395,7.9,394.7,8,394.6,8
			c-0.3,0-0.5-0.2-0.6-0.6c0-0.2,0.1-0.4,0.3-0.6c0.2-0.1,0.4-0.2,0.7-0.2h2.3c0,0,0-0.1,0-0.1l-0.4-1.4
			C396.9,4.7,397.1,4.5,397.4,4.5z M394.1,1.2c0.3,0.1,0.5,0.1,0.6,0.1c0.3,0,0.7-0.1,1.2-0.3c0.1,0,0.2,0.1,0.2,0.3
			c0,0.2-0.2,0.5-0.5,1C395.3,2.8,395,3,394.7,3c-0.2,0-0.4-0.1-0.5-0.4c-0.2-0.3-0.3-0.7-0.3-1.1C393.9,1.3,394,1.2,394.1,1.2z
			 M403.6,0.9L403.6,0.9c0.5,0.2,0.8,0.3,1.1,0.4c0.2,0,0.4,0.1,0.7,0.1c0.1,0,0.2,0.1,0.2,0.3c0,0.2-0.1,0.5-0.4,0.7
			c-0.4,0.3-0.8,0.5-1.1,0.5c0,0-0.1,0-0.1-0.1c-0.1-0.1-0.3-0.6-0.6-1.4c0-0.1,0-0.1,0-0.2C403.4,1,403.4,0.9,403.6,0.9z"/>
		<path class="st0" d="M417.8,8.8c0,0.6-0.2,1.2-0.6,1.6c-0.4,0.4-0.9,0.6-1.4,0.6c-0.6,0-1-0.2-1.4-0.6c-0.4-0.4-0.6-0.9-0.6-1.6
			s0.2-1.2,0.6-1.6c0.4-0.4,0.8-0.6,1.4-0.6c0.5,0,1,0.2,1.4,0.5C417.5,7.6,417.8,8.1,417.8,8.8z"/>
		<path class="st0" d="M428.5,4.3c0.3,0,0.5,0.2,0.5,0.5c0,0.2-0.1,0.4-0.2,0.6c-0.5,0.7-1,1.4-1.6,2c0.1,0.2,0.2,0.4,0.2,0.7
			c-0.1,1-0.1,1.9-0.1,2.6l0.1,5c0,1-0.2,1.5-0.7,1.5c-0.4,0-0.6-0.5-0.6-1.5c0.1-2.1,0.1-3.8,0.1-5c0-0.7,0-1.4-0.1-2.2
			c-0.3,0.2-0.5,0.5-0.8,0.7c-0.5,0.4-1,0.6-1.3,0.6c-0.3,0-0.6-0.1-0.9-0.4c-0.3-0.3-0.5-0.6-0.5-0.9c0-0.2,0.1-0.4,0.4-0.4
			c1-0.3,1.9-0.7,2.7-1.3c0.9-0.6,1.7-1.4,2.4-2.4C428.3,4.4,428.4,4.3,428.5,4.3z M428.2,0.3c0.3,0,0.5,0.2,0.5,0.5
			c0,0.2,0,0.4-0.1,0.6c-0.8,1-1.8,2-2.9,2.8c-0.4,0.3-0.8,0.5-1.1,0.5c-0.3,0-0.6-0.1-0.8-0.4s-0.4-0.5-0.4-0.8
			c0-0.2,0.1-0.3,0.4-0.3c0.8-0.2,1.6-0.5,2.2-0.9c0.7-0.4,1.4-1,2-1.7C428,0.4,428.1,0.3,428.2,0.3z M434.3,6.1c0.8,0,1.8,0,3,0.1
			c0.9,0,1.6,0.1,2.2,0.1c0.4,0,0.9-0.1,1.5-0.2c0.1,0,0.2,0.2,0.2,0.5c0,0.5-0.2,1-0.5,1.6c-0.2,0.4-0.4,0.6-0.6,0.6
			c-0.3,0-0.6-0.1-1-0.4c-0.6-0.4-1.3-0.6-2.1-0.8c-0.3,0-0.5-0.1-0.8-0.1c0,0,0,0,0,0.1c0,0.1,0,0.3-0.1,0.5
			C436,8.5,436,8.9,436,9.3c0.1,2.2,0.1,3.9,0.1,5c0,1.4-0.4,2.2-1.2,2.6c-0.5,0.2-1,0.3-1.4,0.3c-0.3,0-0.6-0.1-0.8-0.3
			c-0.3-0.3-0.4-0.6-0.4-1c0-0.2,0.1-0.3,0.3-0.4c0.9-0.1,1.5-0.2,1.8-0.4c0.3-0.2,0.5-0.4,0.6-0.7c0.1-0.3,0.1-0.9,0.1-1.8
			c0-1.1,0-2.1-0.1-3.2c0-1,0-1.6,0-1.8c0-0.1,0-0.3,0-0.4c-0.2,0-0.5,0-0.7,0c-0.9,0-1.7,0.1-2.5,0.2c-0.5,0.1-1.2,0.4-2.2,1
			c-0.5,0-0.7-0.2-0.7-0.6c0-0.3,0.1-0.5,0.3-0.7c0.2-0.3,0.6-0.5,1-0.5C431.9,6.3,433.3,6.1,434.3,6.1z M432.4,1.8h5.6
			c0.2,0,0.3,0.1,0.3,0.3c0,0.3-0.1,0.6-0.2,0.8c-0.2,0.2-0.4,0.3-0.7,0.3c-0.1,0-0.4-0.1-0.9-0.2c-0.5-0.1-1.1-0.1-1.7-0.1
			c-1,0-1.8,0.1-2.2,0.2c-0.3,0.1-0.4,0.2-0.5,0.2c-0.4,0-0.6-0.2-0.6-0.6c0-0.2,0.1-0.5,0.3-0.6C431.9,1.8,432.1,1.8,432.4,1.8z"/>
		<path class="st0" d="M444.9,2.2h6.6c0.2,0,0.3,0.1,0.3,0.3c0,0.3-0.1,0.6-0.2,0.8c-0.2,0.2-0.4,0.3-0.7,0.3
			c-0.2,0-0.5-0.1-1.1-0.2c-0.3,0-0.6,0-0.9,0l0,4c0.1,0,0.1,0,0.2,0h2.1c0.4,0,0.6,0.2,0.6,0.6c0,0.3-0.2,0.5-0.6,0.5
			c-1,0-1.7,0.1-2.2,0.2c0,0,0,0,0,0l0,4.4c1-0.1,1.8-0.2,2.5-0.3c0.5,0,0.7,0.2,0.7,0.6c0,0.4-0.1,0.6-0.4,0.7
			c-1.9,0.2-3.7,0.4-5.4,0.8c-0.8,0.2-1.5,0.4-2,0.6c-0.2,0.1-0.3,0.1-0.4,0.1c-0.5,0-0.7-0.2-0.7-0.6c0-0.5,0.3-0.9,0.8-1
			c0.3-0.1,0.5-0.1,0.7-0.1c0-0.1,0-0.2,0-0.2c0.1-0.8,0.1-1.6,0.1-2.4c0-0.8-0.1-1.9-0.2-3.2c0-0.4,0.2-0.7,0.7-0.7
			c0.4,0,0.6,0.2,0.6,0.7c0.1,0.6,0.1,2.2,0.1,4.8c0,0.3,0,0.6-0.1,0.9c0.7-0.1,1.3-0.2,1.9-0.3l-0.1-9.8c-1.1,0-1.9,0.1-2.4,0.3
			c-0.3,0.1-0.5,0.2-0.6,0.2c-0.4,0-0.7-0.3-0.7-0.8c0-0.2,0.1-0.4,0.3-0.6C444.4,2.2,444.6,2.2,444.9,2.2z M454.8,0.6
			c0.3,0,0.5,0.2,0.5,0.5c0,0.2-0.1,0.4-0.2,0.7c-0.2,0.8-0.5,1.5-0.8,2.1h5.9c0.2,0,0.3,0.1,0.3,0.3c0,0.3-0.1,0.6-0.2,0.8
			c-0.2,0.2-0.4,0.3-0.7,0.3c-0.2,0-0.5-0.1-1-0.2C458,5,457.4,5,456.7,5c-1.1,0-1.9,0.1-2.4,0.2c-0.3,0.1-0.5,0.2-0.6,0.2
			c-0.1,0-0.1,0-0.1,0c-0.1,0.2-0.2,0.3-0.3,0.5c-0.3,0.5-0.5,0.7-0.7,0.7c-0.3,0-0.6-0.2-0.9-0.5c-0.3-0.3-0.5-0.6-0.5-0.9
			c0-0.2,0.1-0.4,0.4-0.4c0.5-0.3,1-0.7,1.4-1.4c0.5-0.6,0.9-1.5,1.3-2.7C454.6,0.6,454.7,0.6,454.8,0.6z M457.1,5.9
			c0.5,0,0.7,0.3,0.7,0.8c-0.1,0.7-0.2,1.5-0.2,2.4c-0.1,1.3-0.3,2.5-0.6,3.5c0,0,0,0,0,0c1.1,1,1.8,1.6,2.2,1.8
			c0.4,0.2,1,0.3,1.6,0.4c0.3,0,0.4,0.1,0.4,0.4c0,0.4-0.2,0.7-0.7,1.1c-0.5,0.4-0.9,0.6-1.4,0.6c-0.3,0-0.6-0.2-0.9-0.5
			c-0.6-0.8-1.2-1.6-1.8-2.4c-0.3,0.6-0.7,1-1,1.4c-0.9,1-1.7,1.4-2.4,1.4c-0.3,0-0.5-0.1-0.7-0.4c-0.3-0.4-0.5-0.8-0.5-1.2
			c0-0.2,0.1-0.3,0.4-0.4c0.8-0.2,1.5-0.4,2-0.7c0.5-0.3,1-0.7,1.4-1.3c-0.4-0.5-0.8-0.9-1.2-1.4c-0.6-0.7-1.1-1.1-1.6-1.5
			c-0.2-0.1-0.4-0.4-0.4-0.6c0-0.4,0.2-0.6,0.7-0.6c0.2,0,0.5,0.3,1,0.8c0.8,0.8,1.5,1.5,2.1,2.1c0-0.1,0-0.1,0.1-0.2
			c0.4-1.1,0.6-2.4,0.6-3.9c-0.1-0.4-0.1-0.8-0.1-1.1C456.6,6.1,456.8,5.9,457.1,5.9z"/>
		<path class="st0" d="M475,7.8c0,1.6-0.2,3.2-0.7,4.8c-0.7,2-1.6,3-2.7,3c-0.3,0-0.5-0.2-0.9-0.7c-0.3-0.5-0.4-0.9-0.4-1.2
			c0-0.2,0.3-0.3,0.9-0.3c0.7-0.1,1.1-0.3,1.3-0.5c0.5-0.5,0.9-1.4,1.2-2.8c0.2-1.1,0.3-2.2,0.3-3.2c0-1-0.4-1.4-1.3-1.4
			c-0.3,0-0.9,0-1.7,0.1c-0.4,1.8-0.9,3.3-1.3,4.4c-0.5,1.3-1.3,2.6-2.2,3.9c-0.8,1.1-1.4,1.7-1.8,1.7c-0.2,0-0.6-0.2-0.9-0.6
			c-0.4-0.4-0.6-0.6-0.6-0.9c0-0.1,0.1-0.3,0.3-0.4c0.2-0.1,0.5-0.3,0.9-0.6c1-0.7,1.8-1.5,2.5-2.5c0.8-1.2,1.5-2.9,2.2-4.9
			c-0.7,0.1-1.8,0.3-3.1,0.6c-0.3,0-0.5-0.2-0.5-0.6c0-0.7,0.6-1,1.9-1.1c0.3,0,1-0.1,2.1-0.1c0.2-0.8,0.3-1.6,0.3-2.6
			c0-0.5,0.2-0.8,0.6-0.8c0.4,0,0.6,0.2,0.6,0.7c0,0.2-0.1,1.1-0.4,2.6c0.7,0,1.1,0,1.4,0c0.9,0,1.6,0.3,2,0.9
			C474.9,5.8,475,6.6,475,7.8z M481.4,7.1c0,0.2-0.2,0.6-0.6,1.2c-0.4,0.5-0.7,0.8-0.9,0.8c-0.4,0-1-0.6-1.9-1.7
			c-0.8-1.1-1.2-1.9-1.2-2.4c0-0.2,0.1-0.4,0.2-0.4c0.1,0,0.3,0.2,0.7,0.6c0.4,0.4,0.9,0.8,1.5,1.2c0.5,0.3,1,0.5,1.6,0.5
			C481.2,6.8,481.4,6.9,481.4,7.1z M480.6,3.9c0,0.2-0.2,0.4-0.4,0.7c-0.2,0.3-0.4,0.5-0.5,0.5c-0.2,0-0.6-0.3-1.2-1
			s-0.8-1.1-0.8-1.3c0-0.2,0.1-0.3,0.2-0.3c0.1,0,0.3,0.1,0.7,0.4c0.5,0.4,1.1,0.6,1.7,0.6C480.5,3.6,480.6,3.7,480.6,3.9z
			 M482.6,2.2c0,0.2-0.2,0.4-0.4,0.8c-0.2,0.3-0.4,0.5-0.5,0.5c-0.2,0-0.6-0.3-1.2-1c-0.6-0.6-0.8-1.1-0.8-1.4
			c0-0.2,0.1-0.3,0.2-0.3c0.1,0,0.3,0.1,0.7,0.4c0.5,0.4,1.1,0.6,1.7,0.6C482.5,1.9,482.6,2,482.6,2.2z"/>
		<path class="st0" d="M485.9,6.7c0.7,0,1.5,0.1,2.2,0.2c0.2-0.1,0.4-0.2,0.6-0.2c0.5,0,0.7,0.2,0.7,0.7c0,0.2-0.1,0.4-0.3,0.6
			c-0.4,0.8-0.8,1.6-1,2.4c-0.2,0.8-0.4,1.7-0.6,2.7c0.7,0.1,1.9,0.2,3.7,0.5c4.4,0.6,7.3,1,8.9,1c0.6,0,1-0.1,1.4-0.2
			c0.2-0.1,0.4-0.1,0.5-0.1c0.1,0,0.2,0.1,0.2,0.4c0,0.4-0.2,1-0.6,1.6c-0.4,0.6-0.7,0.9-1,0.9c-0.3,0-0.7-0.1-1-0.2
			c-4.5-1.2-7.6-1.9-9.3-2.3c-1.4-0.3-2.3-0.5-2.8-0.5c-0.5,0-1.1,0.5-1.8,1.5c-0.2,0.3-0.4,0.4-0.6,0.4c-0.4,0-0.6-0.2-0.6-0.6
			c0-0.2,0.5-0.8,1.4-1.9c0.1-0.2,0.3-0.4,0.5-0.5c0.3-2,0.7-3.7,1.2-5.2c0-0.1,0-0.2-0.1-0.2c-0.1,0-0.1,0-0.2,0
			c-0.6,0-1.1,0-1.6,0.1c-0.2,0-0.4,0.1-0.6,0.2c-0.3,0-0.5-0.2-0.5-0.6C484.7,7,485.1,6.7,485.9,6.7z M486.2,1l2.9,1.6
			c0.2,0.1,0.3,0.3,0.3,0.6c0,0.2-0.1,0.3-0.4,0.3l-2.9-0.7c-0.4-0.1-0.6-0.5-0.6-1.1C485.5,1.2,485.7,1,486.2,1z M491.5,1.8h3.4
			c0-0.3,0-0.6,0-0.8c0-0.6,0.2-0.8,0.6-0.8s0.6,0.3,0.6,0.8c0,0.3,0,0.6,0,0.8h4.2c0.1,0,0.2,0.1,0.2,0.2c0,0.3-0.1,0.5-0.2,0.7
			c-0.2,0.2-0.4,0.3-0.7,0.3c-0.2,0-0.7,0-1.5-0.1c-0.7,0-1.4,0-2.1,0c0,0.4,0,0.8,0,1.1h0.2c0.6,0,1.4,0,2.2,0.1
			c0.2,0,0.4-0.1,0.7-0.2c0.4,0,0.6,0.3,0.6,0.8l0,0.1c-0.1,0.2-0.1,0.5-0.1,0.9c-0.1,0.6-0.1,1.2-0.1,1.8c0,0.4,0,0.9,0.1,1.5
			c0,0.5-0.2,0.8-0.6,0.8c-1.1-0.1-2.1-0.2-3-0.2v1.1h4.5c0.2,0,0.3,0.1,0.3,0.3c0,0.3-0.1,0.6-0.2,0.8c-0.2,0.2-0.4,0.3-0.7,0.3
			c-0.2,0-0.8-0.1-1.7-0.2c-0.7,0-1.4-0.1-2.1-0.1v0.6c0,0.9-0.2,1.3-0.6,1.3c-0.3,0-0.5-0.4-0.5-1.3c0-0.2,0-0.4,0-0.7
			c-1.6,0-2.7,0.1-3.5,0.2c-0.4,0.1-0.7,0.2-0.8,0.2c-0.4,0-0.6-0.2-0.7-0.6c0-0.2,0.1-0.4,0.3-0.6c0.2-0.1,0.4-0.2,0.7-0.2h3.9
			c0-0.4,0-0.8,0-1.1c-0.9,0-1.5,0-1.8,0c-0.3,0-0.7,0.1-1.1,0.1c-0.4,0-0.6-0.2-0.6-0.7c0.1-0.9,0.2-1.7,0.2-2.4
			c0-0.6-0.1-1.4-0.2-2.3c0-0.4,0.2-0.7,0.6-0.7c0.2,0,0.4,0,0.6,0.1C492.7,4,493,4,493.4,4h1.6c0-0.4,0-0.7,0-1.1
			c-1.4,0-2.4,0.1-3,0.2c-0.4,0.1-0.7,0.1-0.8,0.1c-0.3,0-0.5-0.2-0.6-0.6c0-0.2,0.1-0.4,0.3-0.6C491,1.8,491.3,1.8,491.5,1.8z
			 M494.9,8.5c0-0.4,0-0.9,0-1.3c-0.8,0-1.6,0.1-2.2,0.1c0,0,0,0-0.1,0c0,0.3-0.1,0.6-0.1,0.8c0,0.3,0.2,0.4,0.5,0.4
			C493.6,8.6,494.2,8.6,494.9,8.5z M492.7,6.3C492.7,6.3,492.8,6.3,492.7,6.3h2.2c0-0.4,0-0.8,0-1.2c-0.6,0-1.2,0-1.8,0
			c-0.3,0-0.4,0.2-0.4,0.5C492.7,5.8,492.7,6,492.7,6.3z M495.9,5.1l0,1.2h2.4c0,0,0.1,0,0.1,0V5.4c0-0.2-0.1-0.3-0.2-0.3
			C497.6,5.1,496.8,5.1,495.9,5.1z M495.9,7.2l0,1.3c0.7,0,1.4,0,2.1,0.1c0.2,0,0.3-0.1,0.3-0.3V7.2C497.5,7.2,496.7,7.2,495.9,7.2z
			"/>
		<path class="st0" d="M505.4,3.8h2.3c0-0.9,0-1.8,0-2.7c0-0.7,0.3-1,0.7-1c0.4,0,0.6,0.2,0.6,0.7c0,0.1,0,0.4-0.1,0.7
			c0,0.4-0.1,0.7-0.1,0.9c0,0.5,0,0.9,0,1.3h1.9c0.1,0,0.2,0.1,0.2,0.3c0,0.3-0.1,0.5-0.2,0.7c-0.2,0.2-0.4,0.3-0.7,0.3
			c-0.1,0-0.4,0-0.9-0.1c-0.1,0-0.3,0-0.4,0c0,1.2,0,2.4,0.1,3.4c0.7-0.2,1.2-0.4,1.6-0.5c0.2,0,0.3,0.1,0.3,0.4
			c0,0.4-0.1,0.6-0.4,0.6c-0.5,0.2-1,0.4-1.5,0.7c0,1.6,0.1,2.7,0.1,3.6c0,1.4-0.3,2.4-0.8,3.1c-0.5,0.5-1,0.8-1.7,0.8
			c-0.3,0-0.6-0.1-0.9-0.4c-0.2-0.2-0.2-0.5-0.2-0.7c0-0.2,0.1-0.4,0.4-0.5c1-0.3,1.5-0.6,1.7-1.1c0.2-0.4,0.2-0.9,0.2-1.6
			c0-0.9,0-1.8,0-2.7c-1,0.5-1.9,1-2.8,1.6c-0.4,0-0.6-0.2-0.6-0.6c0-0.4,0.1-0.6,0.2-0.8c0.1-0.2,0.2-0.4,0.5-0.5
			c1-0.4,1.9-0.8,2.7-1.1c0-1.1,0-2.3,0-3.4c0-0.1,0-0.3,0-0.5c0,0,0,0-0.1,0c-1,0-1.7,0.1-2.1,0.2c-0.3,0.1-0.4,0.2-0.5,0.2
			c-0.4,0-0.6-0.2-0.6-0.6c0-0.2,0.1-0.5,0.3-0.6C504.9,3.9,505.1,3.8,505.4,3.8z M512.7,10.4h5.9c0.1,0,0.2,0,0.3-0.1
			c0.1-0.1,0.3-0.1,0.4-0.1c0.4,0,0.5,0.3,0.6,0.7c0,0.1-0.1,0.2-0.2,0.3c-0.4,0.3-0.8,0.7-1.4,1.4c0,0.1,0.1,0.2,0.2,0.2h2.1
			c0.1,0,0.2,0,0.4,0c0.1,0,0.3,0,0.4,0c0.3,0,0.5,0.2,0.6,0.6c0,0,0,0.1-0.1,0.2c-0.1,0.1-0.2,0.3-0.3,0.4c-0.5,1-0.9,1.7-1.3,2.2
			c-0.3,0.4-0.7,0.7-1.2,0.9c-0.3,0.1-0.6,0.2-0.8,0.2c-0.3,0-0.6-0.2-0.9-0.5c-0.2-0.3-0.4-0.5-0.4-0.7c0-0.2,0.1-0.3,0.2-0.4
			c0.5,0,1-0.1,1.3-0.2c0.4-0.1,0.7-0.2,0.9-0.4c0.2-0.1,0.6-0.4,1-1c0-0.1-0.1-0.2-0.2-0.2c-1.6,0-2.5,0-2.7,0.1
			c-0.1,0.1-0.2,0.1-0.3,0.1c-0.4,0-0.5-0.2-0.6-0.6c0-0.1,0.1-0.2,0.2-0.4c0.4-0.5,0.7-1,1.1-1.5c0-0.1,0-0.1-0.1-0.1
			c-0.8,0-1.6,0-2.2,0c0,0,0,0.1,0,0.2c0,0,0,0.1-0.1,0.2c-0.2,0.8-0.6,1.7-1.1,2.7c-0.6,0.9-1.1,1.6-1.8,2.1
			c-0.4,0.3-0.7,0.5-1,0.5c-0.2,0-0.4-0.1-0.7-0.3c-0.3-0.3-0.5-0.6-0.5-1c0-0.3,0.2-0.4,0.6-0.5c0.7-0.1,1.4-0.5,2.1-1.2
			c0.6-0.7,1-1.6,1.4-2.6c-0.3,0-0.6,0-0.9,0c-0.6,0.1-1,0.2-1.1,0.2c-0.4,0-0.6-0.2-0.6-0.6c0-0.2,0.1-0.3,0.2-0.5
			C512.3,10.5,512.5,10.4,512.7,10.4z M514.5,0.5c0.3,0,0.5,0.2,0.5,0.5c0,0.1-0.1,0.2-0.2,0.5c-0.2,0.4-0.4,0.7-0.6,1.1
			c0,0,0.1,0,0.1,0h7.3c0.1,0,0.2,0.1,0.2,0.2c0,0.3-0.1,0.5-0.2,0.7c-0.2,0.2-0.4,0.3-0.7,0.3c-0.2,0-0.6,0-1.3-0.1
			c-0.6,0-1.2,0-1.9,0v0.9h3c0.1,0,0.2,0.1,0.2,0.2c0,0.2-0.1,0.5-0.2,0.6c-0.2,0.2-0.4,0.3-0.6,0.3c-0.2,0-0.6,0-1.2-0.1
			c-0.4,0-0.9,0-1.3,0l0,1h3.1c0.1,0,0.2,0.1,0.2,0.2c0,0.2-0.1,0.5-0.2,0.6c-0.2,0.2-0.4,0.3-0.6,0.3c-0.2,0-0.6,0-1.2-0.1
			c-0.4,0-0.9,0-1.4,0l0,1c0.5,0,0.9,0.1,1.3,0.1c0.7,0,1.1,0.1,1.3,0.1c0.6,0,1.2-0.1,1.7-0.2c0.2-0.1,0.3-0.1,0.4-0.1
			c0.1,0,0.2,0.2,0.2,0.5c0,0.3-0.1,0.7-0.4,1.1c-0.2,0.3-0.4,0.5-0.6,0.5c-0.2,0-0.5-0.1-0.8-0.2c-0.5-0.2-1-0.4-1.6-0.5
			c-1-0.2-1.9-0.2-2.9-0.2c-1,0-1.9,0.1-2.8,0.3c-0.1,0.1-0.3,0.2-0.5,0.2c-0.3,0-0.5-0.3-0.5-0.8c0.1-0.8,0.1-1.5,0.1-2.3
			c0-0.6,0-1.3-0.1-2.2c-0.2,0.1-0.3,0.2-0.5,0.2c-0.2,0-0.4-0.1-0.7-0.3c-0.2-0.2-0.3-0.4-0.4-0.6c0-0.1,0.1-0.1,0.2-0.2
			c0.5-0.2,1-0.5,1.3-0.9c0.5-0.5,1.1-1.1,1.7-2C514.3,0.5,514.4,0.5,514.5,0.5z M516.8,4.4l0-0.9c-1,0-1.7,0.1-2.1,0.1
			c-0.3,0.1-0.6,0.1-0.7,0.1c0,0,0,0-0.1,0c0,0.2,0,0.4,0,0.7c0.1,0,0.1,0,0.2,0H516.8z M516.8,6.4l0-1c-1.1,0-1.9,0-2.4,0.1
			c-0.2,0-0.4,0.1-0.5,0.1c0,0.3,0,0.6,0,0.9c0.1,0,0.1,0,0.2,0H516.8z M516.8,8.3V7.3c-1.1,0-1.8,0-2.3,0.1c-0.2,0-0.4,0.1-0.5,0.1
			c0,0.2,0,0.4,0,0.6c0,0.1,0,0.1,0,0.2c0.9,0,1.8-0.1,2.5-0.1C516.6,8.3,516.7,8.3,516.8,8.3z M518.1,0.5c0.3,0,0.5,0.2,0.5,0.5
			c0,0.3,0,0.5-0.1,0.6c-0.8,0.6-1.2,0.9-1.3,0.9c-0.2,0-0.3-0.1-0.3-0.3c0,0,0.2-0.5,0.6-1.4C517.7,0.6,517.8,0.5,518.1,0.5z"/>
		<path class="st0" d="M531.8,15.9c0,0.4-0.1,0.8-0.4,1.1c-0.3,0.3-0.6,0.4-1,0.4c-0.4,0-0.7-0.1-0.9-0.4c-0.2-0.3-0.4-0.6-0.4-1.1
			c0-0.9,0.4-1.4,1.3-1.4c0.4,0,0.7,0.1,1,0.4C531.6,15.1,531.8,15.4,531.8,15.9z M531.4,2.9c-0.1,0.5-0.2,2.1-0.2,4.9
			c0,2.4,0,3.8,0.1,4c0,0.7-0.3,1-0.9,1c-0.6,0-0.9-0.3-0.9-1c0-0.5,0-1.1,0.1-2c0.1-0.9,0.1-1.6,0.1-2c0-0.5,0-1.3-0.1-2.4
			c-0.1-1.1-0.1-1.9-0.1-2.5c0-0.7,0.3-1.1,0.9-1.1C531,1.8,531.4,2.2,531.4,2.9z"/>
	</g>
</g>
</svg>
