<?xml version="1.0" encoding="utf-8"?>
<!-- Generator: Adobe Illustrator 24.0.3, SVG Export Plug-In . SVG Version: 6.00 Build 0)  -->
<svg version="1.1" id="レイヤー_1" xmlns="http://www.w3.org/2000/svg" xmlns:xlink="http://www.w3.org/1999/xlink" x="0px"
	 y="0px" viewBox="0 0 266.5 17.3" style="enable-background:new 0 0 266.5 17.3;" xml:space="preserve">
<style type="text/css">
	.st0{fill:#503819;}
</style>
<g>
	<g>
		<path class="st0" d="M-303.9,7.4c0.2,0,0.3,0.1,0.3,0.3c0,0.3-0.1,0.5-0.2,0.6l-3.7,1.6c-0.5,0-0.7-0.2-0.7-0.7c0-0.6,0.2-1,0.6-1
			L-303.9,7.4z M-306,0.4c0.1,0,0.2,0.1,0.5,0.2c0.6,0.6,1.4,1.3,2.3,2c0.1,0.1,0.2,0.2,0.2,0.3c0,0.3-0.1,0.4-0.4,0.4
			c-0.1,0-0.2,0-0.4-0.1c-1.3-0.6-2.1-0.9-2.4-1.1c-0.4-0.3-0.6-0.6-0.6-1C-306.8,0.6-306.6,0.4-306,0.4z M-303.5,12.9
			c0.2,0,0.3,0.1,0.3,0.4c0,0.2-0.1,0.4-0.2,0.6c-1.3,1.8-2.1,2.6-2.3,2.6c-0.6,0-0.9-0.2-0.9-0.6c0-0.5,0.1-0.9,0.3-1
			C-306.2,14.8-305.3,14.1-303.5,12.9z M-293,0.6c0.3,0,0.4,0.1,0.4,0.4c0,0.3-0.1,0.5-0.3,0.6c-1.2,0.4-2.3,0.8-3.2,1.1l0,3.4
			c0.6,0,1.3,0,2.1,0.1c0.8,0,1.6,0.1,2.2,0.1c0.4,0,0.9-0.1,1.4-0.2c0.1,0,0.2,0.2,0.2,0.5c0,0.5-0.2,1-0.5,1.6
			c-0.2,0.4-0.4,0.6-0.6,0.6c-0.3,0-0.6-0.1-1-0.4c-0.6-0.4-1.3-0.6-2-0.8c-0.6-0.1-1.2-0.2-1.8-0.2l0,3.5h0c0.6,0,1.2,0,2,0.1
			c0.2,0,0.4-0.1,0.7-0.2c0.4,0,0.6,0.2,0.6,0.7c0,0,0,0.1,0,0.2c-0.1,0.2-0.1,0.5-0.1,0.9c0,0.6-0.1,1.2-0.1,1.8
			c0,0.4,0,0.9,0.1,1.6c0,0.5-0.2,0.8-0.6,0.8c-1.2-0.1-2.4-0.2-3.3-0.2c-1.2,0-1.9,0-2.2,0c-0.3,0-0.6,0.1-1,0.1
			c-0.4,0-0.6-0.2-0.6-0.7c0.1-0.9,0.2-1.7,0.2-2.4c0-0.6-0.1-1.4-0.2-2.4c0-0.4,0.2-0.6,0.6-0.6c0.2,0,0.4,0,0.6,0.1
			c0.2,0.1,0.5,0.1,0.9,0.1h1.3l0-3.5c-0.8,0-1.5,0.1-2.2,0.2c-0.5,0.1-1.3,0.4-2.3,1c-0.5,0-0.7-0.2-0.7-0.6c0-0.3,0.1-0.5,0.3-0.7
			c0.2-0.3,0.6-0.5,1-0.5c1.6-0.3,3-0.4,3.9-0.5l0-3c-0.3,0.1-0.7,0.2-1,0.2c-1,0.2-1.6,0.3-1.9,0.3c-0.4,0-0.7-0.2-1-0.5
			c-0.2-0.2-0.3-0.5-0.3-0.8c0-0.2,0.1-0.3,0.3-0.3c1.9,0,3.4-0.2,4.7-0.5c1.2-0.2,2.3-0.5,3.1-0.8C-293.3,0.6-293.1,0.6-293,0.6z
			 M-296.9,15.2c0.7,0,1.6,0,2.5,0.1c0.2,0,0.3-0.1,0.3-0.3v-3c0-0.2,0-0.3-0.1-0.3c-1.1,0-2.6-0.1-4.6-0.1c-0.3,0-0.4,0.2-0.4,0.5
			c0,1,0,1.9-0.1,2.8c0,0.3,0.2,0.4,0.5,0.4C-298.4,15.2-297.7,15.2-296.9,15.2z"/>
		<path class="st0" d="M-279.5,0.2c0.3,0,0.4,0.2,0.4,0.5c0,0.3-0.1,0.5-0.3,0.6c-1.1,0.3-2,0.5-2.9,0.6v1.4h3.6
			c0.2,0,0.3,0.1,0.3,0.3c0,0.3-0.1,0.6-0.2,0.8c-0.2,0.2-0.4,0.3-0.7,0.3c-0.2,0-0.7-0.1-1.5-0.2c-0.5,0-1-0.1-1.5-0.1v1.1
			c0.6,0,1.2,0,2,0.1c0.2,0,0.4,0,0.7-0.1c0.4,0,0.6,0.2,0.6,0.6c0,0,0,0.1-0.1,0.1c-0.1,0.2-0.1,0.4-0.1,0.8c0,0.5-0.1,1.1-0.1,1.7
			c0,0.4,0,0.9,0.1,1.5c0,0.4-0.2,0.6-0.6,0.6c-0.9-0.1-1.8-0.2-2.6-0.2l0,1.1h2.8c0.1,0,0.2,0.1,0.2,0.3c0,0.3-0.1,0.5-0.2,0.6
			c-0.2,0.2-0.4,0.3-0.7,0.3c-0.1,0-0.5,0-1.1-0.1c-0.3,0-0.7,0-1.1,0v1.1c1.2-0.2,2.1-0.3,2.8-0.4c0.2,0,0.2,0.1,0.2,0.4
			c0,0.3-0.1,0.5-0.3,0.6c-2.5,0.5-4.9,1.1-7.1,1.8c-0.4,0-0.7-0.2-0.7-0.6c0-0.3,0.1-0.6,0.2-0.7c0.1-0.1,0.3-0.2,0.7-0.3
			c1.2-0.2,2.2-0.4,3.1-0.5V13c-1,0-1.8,0.1-2.3,0.2c-0.3,0.1-0.5,0.2-0.6,0.2c-0.3,0-0.5-0.3-0.6-0.7c0-0.2,0.1-0.4,0.3-0.6
			c0.2-0.1,0.4-0.2,0.7-0.2h2.4v-1.1c-1,0-1.7,0-2,0.1c-0.3,0-0.6,0.1-1,0.2c-0.4,0-0.6-0.2-0.6-0.6c0.1-0.9,0.2-1.6,0.2-2.3
			c0-0.6-0.1-1.3-0.2-2.2c0-0.4,0.2-0.6,0.6-0.6c0.2,0,0.4,0,0.6,0c0.2,0,0.5,0,0.9,0h1.5V4.4c-1.4,0-2.5,0.1-3.1,0.2
			c-0.4,0.1-0.6,0.2-0.8,0.2c-0.4,0-0.6-0.2-0.6-0.6c0-0.2,0.1-0.4,0.3-0.6c0.2-0.1,0.4-0.2,0.7-0.2h3.4l0-1.2
			c-0.3,0-0.5,0.1-0.8,0.1c-0.9,0.1-1.4,0.2-1.7,0.2c-0.3,0-0.6-0.1-0.9-0.4c-0.2-0.2-0.3-0.5-0.3-0.7c0-0.2,0.1-0.3,0.3-0.3
			c1.7,0,3.1-0.1,4.2-0.3c1.1-0.1,2.1-0.3,2.8-0.5C-279.8,0.2-279.6,0.2-279.5,0.2z M-283.6,9.9V8.8c-0.8,0-1.5,0.1-2.1,0.1
			c-0.1,0-0.1,0-0.2,0c0,0.2,0,0.4-0.1,0.7c0,0.3,0.2,0.5,0.5,0.5C-284.9,10-284.3,10-283.6,9.9z M-285.8,7.8c0.1,0,0.1,0,0.2,0h2
			l0-1.2c-0.5,0-1.1,0-1.8,0c-0.3,0-0.4,0.1-0.4,0.4C-285.8,7.2-285.8,7.5-285.8,7.8z M-282.4,6.6l0,1.2h2c0,0,0.1,0,0.1,0v-1
			c0-0.1-0.1-0.2-0.2-0.2C-281,6.6-281.6,6.6-282.4,6.6z M-282.4,8.7V10c0.5,0,1.1,0,1.7,0.1c0.2,0,0.3-0.1,0.3-0.4v-1
			C-281.1,8.7-281.8,8.7-282.4,8.7z M-275.3,5.1c0.2-1.5,0.3-2.9,0.4-4.1c0-0.4,0.2-0.6,0.6-0.6c0.4,0,0.6,0.2,0.6,0.7
			c0,0.1,0,0.4-0.1,0.9c-0.1,1.2-0.2,2.2-0.3,3.2h2.5c0.1,0,0.3-0.1,0.7-0.2c0.5,0,0.7,0.3,0.7,0.8c-0.3,1.8-0.5,3.6-0.6,5.4
			c-0.1,2.5-0.5,4.1-1.2,4.8c-0.5,0.7-1.2,1.1-2,1.1c-0.4,0-0.6-0.2-0.9-0.5c-0.2-0.3-0.2-0.6-0.2-0.9c0-0.3,0.1-0.4,0.3-0.5
			c1.1-0.1,1.8-0.4,2.1-0.9c0.4-0.5,0.7-2.1,1-4.7c0.1-1.6,0.2-2.6,0.2-2.9c0-0.3-0.1-0.4-0.2-0.4h-2.5c-0.2,1.2-0.4,2.2-0.5,3
			c-0.3,1.5-0.7,3-1.3,4.3c-0.4,1.1-1,2.1-1.8,2.9c-0.3,0.3-0.5,0.5-0.8,0.5c-0.2,0-0.4-0.1-0.7-0.4c-0.2-0.3-0.4-0.6-0.4-0.9
			c0-0.2,0.1-0.4,0.2-0.4c0.7-0.3,1.3-0.8,1.7-1.4c0.5-0.8,1-2,1.5-3.6c0.3-1.2,0.6-2.5,0.8-4c-0.5,0-1,0.1-1.4,0.2
			c-0.4,0.1-0.7,0.2-0.8,0.2c-0.3,0-0.5-0.2-0.5-0.5c0-0.5,0.2-0.8,0.6-0.9C-277.2,5.1-276.4,5.1-275.3,5.1z"/>
		<path class="st0" d="M-254,13.1c0,0.6-0.1,1.1-0.4,1.5c-0.3,0.4-0.7,0.7-1.1,0.8c-0.8,0.2-2.2,0.3-4.4,0.3c-4,0-6-1-6-3.1
			c0-1,0.4-1.9,1.1-2.8c0.1-0.2,0.8-0.9,2.1-2.1c-0.1-1-0.2-1.8-0.2-2.6V2.9c0-1.5,0.2-2.3,0.7-2.3c0.5,0,0.7,0.3,0.7,0.9
			c0,0.1,0,0.3-0.1,0.5c-0.1,0.3-0.1,0.5-0.1,0.6c-0.1,0.7-0.1,1.6-0.1,2.7c0,0.5,0,1.1,0.1,1.5c2-1.7,3.2-2.6,3.5-2.6
			c0.3,0,0.4,0.1,0.5,0.3c0.1,0.2,0.2,0.3,0.3,0.5c0,0.4-0.3,0.7-0.7,1c-0.9,0.5-1.8,1.1-2.7,1.6c-1.3,0.8-2.3,1.6-3,2.3
			c-0.9,0.9-1.4,1.8-1.4,2.7c0,1.1,0.9,1.7,2.6,1.7c1.1,0,2.5-0.1,4-0.3c1.3-0.2,2.4-0.5,3.3-0.8c0.4-0.2,0.7-0.2,0.9-0.2
			C-254.1,12.8-254,12.9-254,13.1z"/>
		<path class="st0" d="M-246.7,7.4c0.2,0,0.3,0.1,0.3,0.3c0,0.3-0.1,0.5-0.2,0.6l-3.7,1.6c-0.5,0-0.7-0.2-0.7-0.7c0-0.6,0.2-1,0.6-1
			L-246.7,7.4z M-248.9,0.4c0.1,0,0.2,0.1,0.5,0.2c0.6,0.6,1.4,1.3,2.3,2c0.1,0.1,0.2,0.2,0.2,0.3c0,0.3-0.1,0.4-0.4,0.4
			c-0.1,0-0.2,0-0.4-0.1c-1.3-0.6-2.1-0.9-2.4-1.1c-0.4-0.3-0.6-0.6-0.6-1C-249.7,0.6-249.4,0.4-248.9,0.4z M-246.4,12.9
			c0.2,0,0.3,0.1,0.3,0.4c0,0.2-0.1,0.4-0.2,0.6c-1.3,1.8-2.1,2.6-2.3,2.6c-0.6,0-0.9-0.2-0.9-0.6c0-0.5,0.1-0.9,0.3-1
			C-249.1,14.8-248.2,14.1-246.4,12.9z M-235.9,0.6c0.3,0,0.4,0.1,0.4,0.4c0,0.3-0.1,0.5-0.3,0.6c-1.2,0.4-2.3,0.8-3.2,1.1l0,3.4
			c0.6,0,1.3,0,2.1,0.1c0.8,0,1.6,0.1,2.2,0.1c0.4,0,0.9-0.1,1.4-0.2c0.1,0,0.2,0.2,0.2,0.5c0,0.5-0.2,1-0.5,1.6
			c-0.2,0.4-0.4,0.6-0.6,0.6c-0.3,0-0.6-0.1-1-0.4c-0.6-0.4-1.3-0.6-2-0.8c-0.6-0.1-1.2-0.2-1.8-0.2l0,3.5h0c0.6,0,1.2,0,2,0.1
			c0.2,0,0.4-0.1,0.7-0.2c0.4,0,0.6,0.2,0.6,0.7c0,0,0,0.1,0,0.2c-0.1,0.2-0.1,0.5-0.1,0.9c0,0.6-0.1,1.2-0.1,1.8
			c0,0.4,0,0.9,0.1,1.6c0,0.5-0.2,0.8-0.6,0.8c-1.2-0.1-2.4-0.2-3.3-0.2c-1.2,0-1.9,0-2.2,0c-0.3,0-0.6,0.1-1,0.1
			c-0.4,0-0.6-0.2-0.6-0.7c0.1-0.9,0.2-1.7,0.2-2.4c0-0.6-0.1-1.4-0.2-2.4c0-0.4,0.2-0.6,0.6-0.6c0.2,0,0.4,0,0.6,0.1
			c0.2,0.1,0.5,0.1,0.9,0.1h1.3l0-3.5c-0.8,0-1.5,0.1-2.2,0.2c-0.5,0.1-1.3,0.4-2.3,1c-0.5,0-0.7-0.2-0.7-0.6c0-0.3,0.1-0.5,0.3-0.7
			c0.2-0.3,0.6-0.5,1-0.5c1.6-0.3,3-0.4,3.9-0.5l0-3c-0.3,0.1-0.7,0.2-1,0.2c-1,0.2-1.6,0.3-1.9,0.3c-0.4,0-0.7-0.2-1-0.5
			c-0.2-0.2-0.3-0.5-0.3-0.8c0-0.2,0.1-0.3,0.3-0.3c1.9,0,3.4-0.2,4.7-0.5c1.2-0.2,2.3-0.5,3.1-0.8C-236.2,0.6-236,0.6-235.9,0.6z
			 M-239.8,15.2c0.7,0,1.6,0,2.5,0.1c0.2,0,0.3-0.1,0.3-0.3v-3c0-0.2,0-0.3-0.1-0.3c-1.1,0-2.6-0.1-4.6-0.1c-0.3,0-0.4,0.2-0.4,0.5
			c0,1,0,1.9-0.1,2.8c0,0.3,0.2,0.4,0.5,0.4C-241.3,15.2-240.6,15.2-239.8,15.2z"/>
		<path class="st0" d="M-222.4,0.2c0.3,0,0.4,0.2,0.4,0.5c0,0.3-0.1,0.5-0.3,0.6c-1.1,0.3-2,0.5-2.9,0.6v1.4h3.6
			c0.2,0,0.3,0.1,0.3,0.3c0,0.3-0.1,0.6-0.2,0.8c-0.2,0.2-0.4,0.3-0.7,0.3c-0.2,0-0.7-0.1-1.5-0.2c-0.5,0-1-0.1-1.5-0.1v1.1
			c0.6,0,1.2,0,2,0.1c0.2,0,0.4,0,0.7-0.1c0.4,0,0.6,0.2,0.6,0.6c0,0,0,0.1-0.1,0.1c-0.1,0.2-0.1,0.4-0.1,0.8c0,0.5-0.1,1.1-0.1,1.7
			c0,0.4,0,0.9,0.1,1.5c0,0.4-0.2,0.6-0.6,0.6c-0.9-0.1-1.8-0.2-2.6-0.2l0,1.1h2.8c0.1,0,0.2,0.1,0.2,0.3c0,0.3-0.1,0.5-0.2,0.6
			c-0.2,0.2-0.4,0.3-0.7,0.3c-0.1,0-0.5,0-1.1-0.1c-0.3,0-0.7,0-1.1,0v1.1c1.2-0.2,2.1-0.3,2.8-0.4c0.2,0,0.2,0.1,0.2,0.4
			c0,0.3-0.1,0.5-0.3,0.6c-2.5,0.5-4.9,1.1-7.1,1.8c-0.4,0-0.7-0.2-0.7-0.6c0-0.3,0.1-0.6,0.2-0.7c0.1-0.1,0.3-0.2,0.7-0.3
			c1.2-0.2,2.2-0.4,3.1-0.5V13c-1,0-1.8,0.1-2.3,0.2c-0.3,0.1-0.5,0.2-0.6,0.2c-0.3,0-0.5-0.3-0.6-0.7c0-0.2,0.1-0.4,0.3-0.6
			c0.2-0.1,0.4-0.2,0.7-0.2h2.4v-1.1c-1,0-1.7,0-2,0.1c-0.3,0-0.6,0.1-1,0.2c-0.4,0-0.6-0.2-0.6-0.6c0.1-0.9,0.2-1.6,0.2-2.3
			c0-0.6-0.1-1.3-0.2-2.2c0-0.4,0.2-0.6,0.6-0.6c0.2,0,0.4,0,0.6,0c0.2,0,0.5,0,0.9,0h1.5V4.4c-1.4,0-2.5,0.1-3.1,0.2
			c-0.4,0.1-0.6,0.2-0.8,0.2c-0.4,0-0.6-0.2-0.6-0.6c0-0.2,0.1-0.4,0.3-0.6c0.2-0.1,0.4-0.2,0.7-0.2h3.4l0-1.2
			c-0.3,0-0.5,0.1-0.8,0.1c-0.9,0.1-1.4,0.2-1.7,0.2c-0.3,0-0.6-0.1-0.9-0.4c-0.2-0.2-0.3-0.5-0.3-0.7c0-0.2,0.1-0.3,0.3-0.3
			c1.7,0,3.1-0.1,4.2-0.3c1.1-0.1,2.1-0.3,2.8-0.5C-222.6,0.2-222.5,0.2-222.4,0.2z M-226.4,9.9V8.8c-0.8,0-1.5,0.1-2.1,0.1
			c-0.1,0-0.1,0-0.2,0c0,0.2,0,0.4-0.1,0.7c0,0.3,0.2,0.5,0.5,0.5C-227.8,10-227.2,10-226.4,9.9z M-228.7,7.8c0.1,0,0.1,0,0.2,0h2
			l0-1.2c-0.5,0-1.1,0-1.8,0c-0.3,0-0.4,0.1-0.4,0.4C-228.6,7.2-228.7,7.5-228.7,7.8z M-225.2,6.6l0,1.2h2c0,0,0.1,0,0.1,0v-1
			c0-0.1-0.1-0.2-0.2-0.2C-223.9,6.6-224.5,6.6-225.2,6.6z M-225.3,8.7V10c0.5,0,1.1,0,1.7,0.1c0.2,0,0.3-0.1,0.3-0.4v-1
			C-224,8.7-224.6,8.7-225.3,8.7z M-218.2,5.1c0.2-1.5,0.3-2.9,0.4-4.1c0-0.4,0.2-0.6,0.6-0.6c0.4,0,0.6,0.2,0.6,0.7
			c0,0.1,0,0.4-0.1,0.9c-0.1,1.2-0.2,2.2-0.3,3.2h2.5c0.1,0,0.3-0.1,0.7-0.2c0.5,0,0.7,0.3,0.7,0.8c-0.3,1.8-0.5,3.6-0.6,5.4
			c-0.1,2.5-0.5,4.1-1.2,4.8c-0.5,0.7-1.2,1.1-2,1.1c-0.4,0-0.6-0.2-0.9-0.5c-0.2-0.3-0.2-0.6-0.2-0.9c0-0.3,0.1-0.4,0.3-0.5
			c1.1-0.1,1.8-0.4,2.1-0.9c0.4-0.5,0.7-2.1,1-4.7c0.1-1.6,0.2-2.6,0.2-2.9c0-0.3-0.1-0.4-0.2-0.4h-2.5c-0.2,1.2-0.4,2.2-0.5,3
			c-0.3,1.5-0.7,3-1.3,4.3c-0.4,1.1-1,2.1-1.8,2.9c-0.3,0.3-0.5,0.5-0.8,0.5c-0.2,0-0.4-0.1-0.7-0.4c-0.2-0.3-0.4-0.6-0.4-0.9
			c0-0.2,0.1-0.4,0.2-0.4c0.7-0.3,1.3-0.8,1.7-1.4c0.5-0.8,1-2,1.5-3.6c0.3-1.2,0.6-2.5,0.8-4c-0.5,0-1,0.1-1.4,0.2
			c-0.4,0.1-0.7,0.2-0.8,0.2c-0.3,0-0.5-0.2-0.5-0.5c0-0.5,0.2-0.8,0.6-0.9C-220.1,5.1-219.3,5.1-218.2,5.1z"/>
		<path class="st0" d="M-196.4,6c0,0.3-0.3,0.6-0.8,1c-1.2,0.9-2.9,2-5.1,3.4c0,0.1,0,0.4,0,0.8c0,0.3,0,0.6,0,0.8
			c0,0.5-0.2,0.7-0.7,0.7c-0.3,0-0.4-0.2-0.5-0.6c0-0.1,0-0.4,0-1c-0.8,0.5-1.4,0.8-1.7,1.1c-0.7,0.6-1.1,1.1-1.1,1.7
			c0,0.4,0.3,0.6,1,0.8c0.5,0.1,1,0.2,1.5,0.2c1.5,0,2.8-0.3,4-0.8c0.9-0.4,1.4-0.6,1.4-0.6c0.1,0,0.2,0.1,0.2,0.4
			c0,0.5-0.1,1-0.4,1.5c-0.2,0.4-0.7,0.6-1.6,0.8c-0.7,0.1-1.4,0.1-2.3,0.1c-1.1,0-2.1-0.1-2.9-0.4c-1.3-0.4-1.9-1.1-1.9-2
			c0-0.8,0.5-1.6,1.4-2.4c0.1-0.2,0.9-0.7,2.2-1.7c0-0.9-0.1-1.4-0.1-1.6c-0.1-0.6-0.5-0.9-1.1-0.9c-0.7,0-1.4,0.2-1.9,0.5
			c-0.2,0.1-0.8,0.6-1.7,1.4c-0.1,0.1-0.2,0.2-0.4,0.3c-0.4,0-0.6-0.3-0.6-0.9c0-0.4,0.4-0.9,1.2-1.4c1.1-0.8,2.1-1.8,3-3.2
			c-0.4,0.1-1.1,0.2-2,0.3c0,0-0.3,0.1-0.8,0.2c-0.4,0.1-0.6,0.2-0.8,0.2c-0.3,0-0.5-0.2-0.5-0.7c0-0.6,0.4-0.9,1.2-1
			c0.7,0,1.9-0.1,3.3-0.1c0.1-0.3,0.4-0.9,0.8-1.9c0.2-0.5,0.4-0.7,0.8-0.7c0.5,0,0.7,0.2,0.7,0.7c0,0.2-0.3,0.8-0.9,1.9
			c0.4,0,1.1,0,1.9,0c0.9,0,1.5,0,1.9,0c0.1,0,0.3,0,0.5,0c0.2,0,0.4-0.1,0.5-0.1c0.1,0,0.2,0.1,0.2,0.2c0,0.3-0.2,0.6-0.4,1
			c-0.3,0.4-0.5,0.6-0.8,0.6c-0.2,0-0.5-0.1-0.8-0.2c-0.3-0.1-0.5-0.1-0.8-0.2c-0.6-0.2-1.6-0.3-2.8-0.3c-0.6,1-1.3,1.9-1.9,2.6
			c0.5-0.1,1-0.1,1.4-0.1c1.1,0,1.8,0.8,1.8,2.3c0,0.2,0,0.3,0.1,0.4c1.8-1.3,3.3-2.4,4.4-3.3c0.4-0.3,0.7-0.4,0.9-0.4
			C-196.6,5.3-196.4,5.5-196.4,6z"/>
		<path class="st0" d="M-183.7,5.8c1.1,0,2.4,0.1,3.9,0.2c1.1,0.1,2.1,0.1,2.9,0.1c0.4,0,0.9-0.1,1.5-0.3c0.1,0,0.1,0.2,0.1,0.5
			c0,0.5-0.2,1.1-0.5,1.6c-0.2,0.4-0.4,0.6-0.6,0.6c-0.4,0-0.8-0.1-1.3-0.4c-0.8-0.4-1.7-0.8-2.7-0.9c-1-0.2-2.2-0.3-3.5-0.3
			c-0.5,0-1.1,0-1.6,0c-0.3,0.6-0.7,1.3-1.1,2c-1.1,1.4-2.2,2.5-3.3,3.3c-0.8,0.5-1.4,0.8-1.9,0.8c-0.2,0-0.5-0.1-0.7-0.3
			c-0.3-0.3-0.4-0.7-0.4-1c0-0.2,0.2-0.4,0.6-0.5c1.5-0.2,2.9-1,4.2-2.2c0.6-0.6,1.1-1.3,1.6-2c-0.4,0-0.9,0.1-1.3,0.1
			c-0.8,0.1-2,0.5-3.6,1.3c-0.5,0-0.7-0.2-0.7-0.7c0-0.3,0.1-0.5,0.3-0.7c0.2-0.3,0.6-0.5,1-0.5c1.9-0.4,3.6-0.6,5-0.7
			c0.3-0.5,0.5-1.1,0.7-1.7c0-0.2,0.2-0.3,0.4-0.3c0.4,0,0.6,0.2,0.6,0.7c0,0-0.1,0.1-0.1,0.3c-0.1,0.3-0.2,0.6-0.4,1
			C-184.4,5.8-184,5.8-183.7,5.8z M-191,1.6h3.6l-0.1-0.7c0-0.4,0.2-0.6,0.6-0.6c0.4,0,0.6,0.2,0.6,0.7v0.6h4.4l0.1-0.6
			c0-0.6,0.2-0.8,0.6-0.8c0.4,0,0.6,0.2,0.6,0.7l-0.2,0.7h4.3c0.2,0,0.3,0.1,0.3,0.3c0,0.3-0.1,0.6-0.2,0.8
			c-0.2,0.2-0.4,0.3-0.7,0.3c-0.4,0-1.3-0.1-2.7-0.2c-0.4,0-0.8,0-1.2,0l-0.2,1c-0.1,0.3-0.3,0.4-0.5,0.4c-0.3,0-0.4-0.2-0.4-0.6
			l0.1-0.8c-0.8,0-1.7,0-2.5,0c-0.6,0-1.2,0-1.8,0v0.8c0,0.4-0.1,0.6-0.4,0.6c-0.3,0-0.4-0.2-0.5-0.6l-0.1-0.7
			c-1.2,0-2.2,0.1-2.9,0.2c-0.7,0.1-1.1,0.2-1.3,0.2c-0.4,0-0.7-0.3-0.7-0.7c0-0.2,0.1-0.5,0.3-0.6C-191.6,1.7-191.4,1.6-191,1.6z
			 M-186.4,10.2c0.2,0,0.4,0,0.6,0.1c0.2,0.1,0.5,0.1,0.9,0.1h2.5c0.6,0,1.2,0,2,0.1c0.2,0,0.4-0.1,0.7-0.2c0.4,0,0.6,0.2,0.6,0.7
			c0,0,0,0.1,0,0.2c-0.1,0.2-0.1,0.5-0.1,0.9c0,0.6-0.1,1.2-0.1,1.8c0,0.4,0,0.9,0.1,1.6c0,0.5-0.2,0.7-0.6,0.7
			c-1.3-0.1-2.5-0.2-3.5-0.2c-1.1,0-1.8,0-2.1,0.1c-0.2,0-0.6,0.1-0.9,0.1c-0.4,0-0.6-0.2-0.6-0.6c0.1-0.9,0.2-1.7,0.2-2.4
			c0-0.6-0.1-1.4-0.2-2.4C-186.9,10.4-186.7,10.2-186.4,10.2z M-183.3,15c0.8,0,1.7,0,2.6,0.1c0.2,0,0.3-0.1,0.3-0.3v-3
			c0-0.2-0.1-0.3-0.2-0.3c-1-0.1-2.6-0.1-4.6-0.1c-0.3,0-0.4,0.2-0.4,0.5c0,1-0.1,1.9-0.2,2.8c0,0.3,0.2,0.4,0.5,0.4
			C-184.7,15-184,15-183.3,15z"/>
		<path class="st0" d="M-167.3,2.3h2.8l-0.1-1.5c0-0.5,0.2-0.7,0.7-0.7c0.5,0,0.7,0.2,0.7,0.7l-0.1,1.5h3.3c0.1,0,0.1,0,0.2,0.1
			c0.3-0.4,0.7-0.9,1-1.3c0.1-0.1,0.2-0.1,0.4-0.1c0.3,0,0.5,0.3,0.5,0.6c0,0.2,0,0.3-0.1,0.4c-1,1.3-2,2.4-2.8,3.3
			c0.4,0,0.7,0.1,1.1,0.1c1.2,0.1,2.3,0.2,3.1,0.2c0.4,0,1-0.1,1.6-0.3c0.1,0,0.2,0.2,0.2,0.5c0,0.5-0.2,1-0.5,1.6
			c-0.2,0.4-0.5,0.6-0.7,0.6c-0.4,0-0.8-0.1-1.3-0.4c-0.9-0.4-1.8-0.7-2.8-0.9c-0.5-0.1-1.1-0.1-1.6-0.2c-0.8,0.8-1.6,1.5-2.2,1.9
			c-0.2,0.2-0.5,0.4-0.7,0.5c0.1,0,0.3,0,0.5,0h2.2c0.5,0,1.1,0,1.7,0.1c0.2,0,0.4-0.1,0.7-0.2c0.4,0,0.6,0.3,0.6,0.8
			c0,0,0,0.1,0,0.2c-0.1,0.2-0.1,0.6-0.1,1.2c0,0.8-0.1,1.6-0.1,2.5c0,0.6,0,1.3,0.1,2.3c0,0.6-0.2,0.8-0.6,0.8
			c-1.1-0.2-2-0.3-2.9-0.3c-1.1,0-1.8,0-2.1,0.1c-0.3,0-0.6,0.1-0.9,0.2c-0.4,0-0.6-0.2-0.6-0.7c0.1-1.2,0.2-2.3,0.2-3.2
			c0-0.8,0-1.8-0.1-2.9c-1.2,0.7-2.5,1.3-3.8,1.8c-0.6,0.3-1.1,0.4-1.5,0.4c-0.4,0-0.8-0.2-1-0.5c-0.3-0.3-0.4-0.6-0.4-0.9
			c0-0.2,0.1-0.4,0.3-0.4c2.4-0.4,4.3-0.9,5.7-1.6c1.1-0.5,2.3-1.3,3.4-2.2c-0.1,0-0.3,0-0.4,0c-1.4,0-2.7,0.1-4,0.2
			c-0.8,0.1-1.9,0.5-3.5,1.1c-0.4,0-0.6-0.2-0.6-0.6c0-0.3,0.1-0.5,0.3-0.7c0.2-0.3,0.5-0.5,0.9-0.5c2.7-0.4,4.8-0.6,6.3-0.6
			l-0.1-1.8c-1.2,0-2,0.1-2.6,0.2c-0.3,0.1-0.6,0.2-0.7,0.2c-0.4,0-0.6-0.2-0.6-0.6c0-0.2,0.1-0.4,0.3-0.6
			C-167.8,2.3-167.6,2.3-167.3,2.3z M-162.6,15.1c0.6,0,1.3,0,2,0.1c0.2,0,0.3-0.1,0.3-0.4v-1.9c-1.9,0-3.5,0.1-4.5,0.2
			c0,0-0.1,0-0.1,0c0,0.5,0,1.1-0.1,1.6c0,0.3,0.2,0.5,0.5,0.5C-164,15.1-163.3,15.1-162.6,15.1z M-164.8,11.9c0.1,0,0.1,0,0.2,0
			h4.4v-1.6c0-0.2,0-0.3-0.1-0.3c-0.9-0.1-2.3-0.1-4-0.1c-0.3,0-0.4,0.2-0.4,0.5C-164.8,10.9-164.8,11.4-164.8,11.9z M-162.2,5.2
			c0.5-0.5,1.1-1.1,1.6-1.7c-0.2,0-0.6,0-1.2-0.1c-0.4,0-0.9,0-1.4,0l-0.1,1.8C-162.9,5.2-162.6,5.2-162.2,5.2z"/>
		<path class="st0" d="M-142,7.6c0,1.6-0.2,3.2-0.7,4.8c-0.7,2-1.6,3-2.7,3c-0.3,0-0.5-0.2-0.9-0.7c-0.3-0.5-0.4-0.9-0.4-1.2
			c0-0.2,0.3-0.3,0.9-0.3c0.7-0.1,1.1-0.3,1.3-0.5c0.5-0.5,0.9-1.4,1.2-2.8c0.2-1.1,0.3-2.2,0.3-3.2c0-1-0.4-1.4-1.3-1.4
			c-0.3,0-0.9,0-1.7,0.1c-0.4,1.8-0.9,3.3-1.3,4.4c-0.5,1.3-1.3,2.6-2.2,3.9c-0.8,1.1-1.4,1.7-1.8,1.7c-0.2,0-0.6-0.2-0.9-0.6
			c-0.4-0.4-0.6-0.6-0.6-0.9c0-0.1,0.1-0.3,0.3-0.4c0.2-0.1,0.5-0.3,0.9-0.6c1-0.7,1.8-1.5,2.5-2.5c0.8-1.2,1.5-2.9,2.2-4.9
			c-0.7,0.1-1.8,0.3-3.1,0.6c-0.3,0-0.5-0.2-0.5-0.6c0-0.7,0.6-1,1.9-1.1c0.3,0,1-0.1,2.1-0.1c0.2-0.8,0.3-1.6,0.3-2.6
			c0-0.5,0.2-0.8,0.6-0.8c0.4,0,0.6,0.2,0.6,0.7c0,0.2-0.1,1.1-0.4,2.6c0.7,0,1.1,0,1.4,0c0.9,0,1.6,0.3,2,0.9
			C-142.1,5.6-142,6.4-142,7.6z M-135.6,6.9c0,0.2-0.2,0.6-0.6,1.2c-0.4,0.5-0.7,0.8-0.9,0.8c-0.4,0-1-0.6-1.9-1.7s-1.2-1.9-1.2-2.4
			c0-0.2,0.1-0.4,0.2-0.4c0.1,0,0.3,0.2,0.7,0.6c0.4,0.4,0.9,0.8,1.5,1.2c0.5,0.3,1,0.5,1.6,0.5C-135.8,6.6-135.6,6.7-135.6,6.9z
			 M-136.3,3.7c0,0.2-0.2,0.4-0.4,0.7c-0.2,0.3-0.4,0.5-0.5,0.5c-0.2,0-0.6-0.3-1.2-1c-0.6-0.7-0.8-1.1-0.8-1.3
			c0-0.2,0.1-0.3,0.2-0.3c0.1,0,0.3,0.1,0.7,0.4c0.5,0.4,1.1,0.6,1.7,0.6C-136.5,3.4-136.4,3.5-136.3,3.7z M-134.3,2
			c0,0.2-0.2,0.4-0.4,0.8c-0.2,0.3-0.4,0.5-0.5,0.5c-0.2,0-0.6-0.3-1.2-1c-0.6-0.6-0.8-1.1-0.8-1.4c0-0.2,0.1-0.3,0.2-0.3
			c0.1,0,0.3,0.1,0.7,0.4c0.5,0.4,1.1,0.6,1.7,0.6C-134.5,1.7-134.4,1.8-134.3,2z"/>
		<path class="st0" d="M-117.6,8.1c0,1.3-0.4,2.5-1.3,3.7c-0.8,1-1.7,1.8-2.8,2.4c-1.4,0.7-2.4,1-3,1c-0.3,0-0.6-0.2-1-0.6
			c-0.4-0.4-0.6-0.8-0.6-1.1c0-0.2,0.2-0.3,0.6-0.3c1.4-0.2,2.5-0.4,3.3-0.7c1.2-0.4,2.1-1.1,2.8-2c0.6-0.8,0.9-1.6,0.9-2.3
			c0-2-1.2-3-3.5-3c-2.3,0-5,0.6-8,1.8c-0.4,0.2-0.7,0.3-0.8,0.3c-0.4,0-0.6-0.3-0.6-0.8c0-0.7,0.5-1.1,1.4-1.4c2.4-0.7,4.9-1,7.5-1
			c2.3,0,3.9,0.7,4.7,2C-117.8,6.6-117.6,7.3-117.6,8.1z"/>
		<path class="st0" d="M-104.1,3.6c0,0.2-0.1,0.4-0.2,0.7c-0.1,0.3-0.3,0.4-0.4,0.5c-0.9-0.2-1.7-0.3-2.4-0.3c-0.1,0-0.3,0-0.4,0
			c-0.2,0-0.3,0-0.4,0c-0.3,1.7-0.7,3.2-1.2,4.7c-1.4,4.1-2.5,6.2-3.2,6.2c-0.2,0-0.5-0.1-0.9-0.3c-0.4-0.2-0.6-0.4-0.6-0.6
			c0-0.1,0.3-0.5,0.8-1.2c0.9-1.1,1.8-2.5,2.5-4.1c0.8-1.7,1.3-3.2,1.6-4.7c-0.5,0-1.3,0.2-2.3,0.4c-0.8,0.3-1.2,0.4-1.1,0.4
			c-0.3,0-0.5-0.2-0.5-0.5c0-0.3,0.1-0.6,0.2-0.7c0.1-0.2,0.8-0.3,1.9-0.5c0.7,0,1.4-0.1,2.1-0.2c0.1-0.6,0.2-1.4,0.2-2.1
			c0-0.6,0.2-0.9,0.6-0.9c0.4,0,0.6,0.2,0.6,0.6c0,0.2-0.1,0.9-0.4,2.3c1.5-0.1,2.6-0.1,3.2-0.1C-104.2,3.2-104.1,3.4-104.1,3.6z
			 M-98.9,14.1c-0.1,0.3-0.3,0.6-0.6,1.1c-0.3,0.5-0.6,0.7-0.8,0.7c-0.1,0-0.6-0.3-1.6-1c-1.1-0.8-1.7-1.2-1.8-1.3
			c-0.2,1.6-1.2,2.5-2.9,2.5c-0.7,0-1.3-0.2-1.9-0.6c-0.6-0.5-0.9-1.1-0.9-1.8c0-1.5,1-2.3,2.9-2.3c0.5,0,1.1,0.1,1.7,0.4v-1.2
			c0-0.5,0-1-0.1-1.4c0-0.1,0-0.4-0.1-0.7c0-0.3-0.1-0.5-0.1-0.7c0-0.5,0.2-0.8,0.6-0.8c0.3,0,0.5,0.3,0.5,1c0,1,0.1,2.4,0.2,4.3
			c0.7,0.3,1.4,0.6,2.1,0.8c0.8,0.3,1.5,0.5,2.1,0.6c0.1,0,0.3,0.1,0.3,0.1C-99,13.9-98.9,14-98.9,14.1z M-104.9,13.1
			c-1-0.4-1.8-0.6-2.3-0.6c-1,0-1.5,0.4-1.5,1.2c0,0.8,0.5,1.2,1.6,1.2C-105.7,15-105,14.3-104.9,13.1z M-98.8,6
			c0,0.3-0.1,0.7-0.3,1.1c-0.3,0.5-0.5,0.7-0.7,0.7c-0.5,0-1.2-0.4-2-1.2c-0.8-0.8-1.2-1.6-1.2-2.2c0-0.2,0.1-0.3,0.2-0.3
			c0.5,0.3,1,0.6,1.6,1c0.5,0.3,1,0.4,1.7,0.5C-99.1,5.7-98.8,5.8-98.8,6z"/>
		<path class="st0" d="M-84.3,14.7c0,0.3-0.3,0.7-0.9,1.2c-0.6,0.5-1,0.7-1.3,0.7c-0.1,0-0.4-0.3-0.8-1c-0.7-1.1-1.6-2.2-2.5-3.2
			c-1-1-2.2-2-3.6-3c-0.4-0.3-0.7-0.5-0.7-0.8c0-0.2,0.4-0.7,1.1-1.3c0.8-0.7,1.7-1.7,2.5-2.8c0.4-0.6,1.1-1.7,2-3.3
			c0.2-0.4,0.5-0.6,0.9-0.6c0.5,0,0.8,0.3,0.8,0.9c0,0.4-0.7,1.5-2.1,3.1c-1.1,1.3-2.1,2.2-2.8,2.9c-0.3,0.2-0.6,0.6-1.1,1
			c2.4,1.6,4.2,3,5.4,4.1c0.6,0.5,1,0.9,1.3,1.1c0.5,0.4,1,0.6,1.4,0.8C-84.6,14.5-84.4,14.6-84.3,14.7z M-82.1,2.9
			c0,0.2-0.2,0.4-0.4,0.7C-82.8,4-82.9,4.2-83,4.2c-0.2,0-0.6-0.3-1.2-1c-0.6-0.7-0.8-1.1-0.8-1.3c0-0.2,0.1-0.3,0.2-0.3
			c0.1,0,0.3,0.1,0.7,0.4c0.6,0.4,1.1,0.6,1.7,0.6C-82.3,2.6-82.2,2.8-82.1,2.9z M-79.8,1.2c0,0.2-0.2,0.4-0.4,0.8
			c-0.2,0.3-0.4,0.5-0.5,0.5c-0.2,0-0.6-0.3-1.2-1c-0.6-0.7-0.8-1.1-0.8-1.4c0-0.2,0.1-0.3,0.2-0.3c0.1,0,0.3,0.2,0.7,0.5
			c0.5,0.3,1.1,0.5,1.7,0.6C-80,1-79.9,1.1-79.8,1.2z"/>
		<path class="st0" d="M-70.8,15.7c0,0.4-0.1,0.8-0.4,1.1c-0.3,0.3-0.6,0.4-1,0.4c-0.4,0-0.7-0.1-0.9-0.4c-0.2-0.3-0.4-0.6-0.4-1.1
			c0-0.9,0.4-1.4,1.3-1.4c0.4,0,0.7,0.1,1,0.4C-70.9,14.9-70.8,15.2-70.8,15.7z M-71.2,2.7c-0.1,0.5-0.2,2.1-0.2,4.9
			c0,2.4,0,3.8,0.1,4c0,0.7-0.3,1-0.9,1c-0.6,0-0.9-0.3-0.9-1c0-0.5,0-1.1,0.1-2c0.1-0.9,0.1-1.6,0.1-2c0-0.5,0-1.3-0.1-2.4
			c-0.1-1.1-0.1-1.9-0.1-2.5c0-0.7,0.3-1.1,0.9-1.1C-71.5,1.7-71.2,2-71.2,2.7z"/>
	</g>
</g>
<g>
	<g>
		<path class="st0" d="M297.2,2.8c0.4,0.1,0.6,0.1,0.8,0.1c0.8,0,1.8-0.4,3.1-1.1c0.2,0,0.2,0.1,0.2,0.3c0,0.3-0.4,0.8-1.2,1.6
			C299.3,4.5,298.6,5,298,5c-0.3,0-0.5-0.2-0.7-0.5c-0.2-0.4-0.3-0.8-0.3-1.3C296.9,2.9,297,2.8,297.2,2.8z M305,0.6
			c0.5,0,0.8,0.3,0.8,0.8l-0.1,5.6l4,0.1c0.2,0,0.5,0,1-0.1c0.5,0,0.8,0.2,0.8,0.6c-0.2,2.3-0.3,4.7-0.3,7.2c0,0.6-0.3,0.8-0.7,0.8
			c-1.3-0.1-3-0.2-5.1-0.2c-2.2,0-4.1,0.1-5.7,0.3c-0.4,0-0.6-0.2-0.6-0.6c0-0.5,0.1-0.7,0.4-0.8c1.1-0.1,2.8-0.2,4.9-0.2
			c1.3,0,3,0,5.3,0.1c0.3,0,0.4-0.3,0.4-0.8c0-0.6,0-1.2,0-1.7c0,0,0,0,0,0c-4.4,0-7.8,0.1-10.3,0.2c-0.4,0-0.6-0.2-0.6-0.6
			c0-0.4,0.3-0.7,0.8-0.7h10.1c0,0,0,0,0,0c0-0.8,0-1.5,0-2.1c0-0.2-0.1-0.4-0.4-0.4c-0.8-0.1-2.3-0.1-4.5-0.1
			c-1.7,0-3.6,0.1-5.7,0.3c-0.3,0-0.5-0.2-0.5-0.6c0-0.5,0.2-0.8,0.6-0.8l4.9-0.1l-0.1-5.6C304.3,0.9,304.6,0.6,305,0.6z M309,1.7
			c0,0,0.1,0,0.1,0.1c0.9,0.6,1.7,1,2.2,1.2c0.4,0.2,0.9,0.3,1.5,0.3c0.2,0,0.2,0.1,0.2,0.3c0,0.3-0.1,0.6-0.4,0.9
			c-0.6,0.4-1,0.6-1.3,0.6c-0.2,0-0.3-0.1-0.5-0.2c-0.3-0.2-1-1-2-2.5c-0.1-0.1-0.1-0.2-0.1-0.3C308.7,1.8,308.8,1.7,309,1.7z"/>
		<path class="st0" d="M316.7,5h2.2c0-1.2,0-2.6-0.1-4c0-0.6,0.2-0.9,0.6-0.9s0.6,0.3,0.6,0.9c0,1.5-0.1,2.8-0.1,4h2.6
			c0.2,0,0.3,0.1,0.3,0.3c0,0.3-0.1,0.6-0.2,0.8c-0.2,0.2-0.4,0.3-0.7,0.3c-0.1,0-0.5-0.1-1-0.2c-0.3,0-0.6,0-0.9,0l0.1,9.6
			c0,1-0.2,1.5-0.7,1.5c-0.4,0-0.6-0.5-0.6-1.5c0-4,0.1-7.2,0.1-9.6c-0.9,0-1.6,0.1-2,0.2c-0.3,0.1-0.4,0.2-0.5,0.2
			c-0.4,0-0.6-0.3-0.7-0.7c0-0.2,0.1-0.4,0.3-0.6C316.2,5,316.4,5,316.7,5z M323.8,10.4c0.1-0.3,0.1-0.6,0.1-0.9
			c0-0.4,0.2-0.6,0.5-0.6c0.1,0,0.3,0.1,0.4,0.2c0.1,0.2,0.2,0.3,0.2,0.4l0,0.1c0,0.2-0.1,0.5-0.1,0.8h1.4c0.1,0,0.3-0.1,0.6-0.2
			c0.4,0,0.7,0.2,0.7,0.7c-0.2,0.9-0.4,1.9-0.4,2.8c-0.1,1.3-0.4,2.1-0.9,2.5c-0.4,0.4-0.9,0.6-1.4,0.6c-0.3,0-0.6-0.1-0.8-0.4
			c-0.1-0.3-0.2-0.5-0.2-0.7c0-0.3,0.1-0.4,0.3-0.5c0.7,0,1.1-0.2,1.3-0.4c0.3-0.2,0.5-0.9,0.6-1.9c0.1-0.7,0.1-1.1,0.1-1.2
			c0-0.2-0.1-0.4-0.2-0.4h-1.5c-0.2,1.1-0.6,2.2-1,3c-0.3,0.6-0.6,1.2-0.9,1.6c-0.4,0.5-0.7,0.7-0.9,0.7c-0.2,0-0.4-0.1-0.7-0.4
			c-0.2-0.3-0.3-0.5-0.3-0.7c0-0.2,0.1-0.3,0.4-0.4c0.4-0.1,0.7-0.4,1.1-0.9c0.4-0.4,0.8-1.2,1.2-2.3c0.1-0.2,0.1-0.4,0.2-0.6
			c-0.3,0-0.6,0.1-0.8,0.1c-0.3,0.1-0.5,0.2-0.6,0.2c-0.3,0-0.5-0.2-0.5-0.5c0-0.5,0.2-0.8,0.6-0.8C322.4,10.4,323,10.4,323.8,10.4z
			 M326.9,2.2c0.1-0.5,0.2-1,0.3-1.5c0-0.4,0.2-0.6,0.5-0.6c0.1,0,0.2,0.1,0.3,0.2c0.1,0.2,0.2,0.3,0.2,0.4l0,0.1
			c-0.1,0.3-0.2,0.8-0.3,1.4h2.8c0.1,0,0.3-0.1,0.6-0.2c0.4,0,0.7,0.2,0.7,0.7c-0.2,0.9-0.4,1.9-0.5,2.8c-0.1,1.3-0.4,2.1-0.9,2.5
			c-0.4,0.4-1,0.6-1.6,0.6c-0.3,0-0.6-0.1-0.8-0.4c-0.1-0.3-0.2-0.5-0.2-0.7c0-0.3,0.1-0.4,0.3-0.5c0.8,0,1.3-0.2,1.5-0.4
			c0.3-0.2,0.5-0.9,0.7-1.9c0.1-0.6,0.1-1,0.1-1.2c0-0.3-0.1-0.4-0.2-0.4h-2.8c0,0,0,0,0,0c-0.3,1-0.7,1.9-1.2,2.8
			c-0.4,0.6-0.7,1.2-1.2,1.7c-0.6,0.5-1,0.8-1.2,0.8c-0.2,0-0.5-0.2-0.7-0.5c-0.2-0.3-0.3-0.5-0.3-0.7c0-0.2,0.1-0.3,0.4-0.4
			c0.5-0.1,1-0.5,1.4-1c0.5-0.4,1.1-1.3,1.6-2.4c0-0.1,0.1-0.2,0.1-0.3c-0.4,0-0.8,0.1-1.3,0.1c-0.4,0.1-0.7,0.2-0.8,0.2
			c-0.3,0-0.5-0.2-0.5-0.5c0-0.5,0.2-0.8,0.6-0.8C324.9,2.2,325.7,2.2,326.9,2.2z M330.2,10.4c0.1-0.3,0.1-0.6,0.1-0.9
			c0-0.4,0.2-0.6,0.5-0.6c0.1,0,0.2,0.1,0.4,0.2c0.1,0.2,0.2,0.3,0.2,0.4l0,0.1c0,0.2-0.1,0.5-0.1,0.8h1.5c0.1,0,0.3-0.1,0.6-0.2
			c0.4,0,0.6,0.2,0.6,0.7c-0.2,0.9-0.3,1.9-0.4,2.8c-0.1,1.3-0.3,2.1-0.8,2.5c-0.3,0.4-0.8,0.6-1.2,0.6c-0.3,0-0.6-0.1-0.8-0.4
			c-0.1-0.3-0.2-0.5-0.2-0.7c0-0.3,0.1-0.4,0.3-0.5c0.6,0,1-0.2,1.1-0.4c0.2-0.2,0.4-0.9,0.5-1.9c0.1-0.7,0.1-1.1,0.1-1.2
			c0-0.2-0.1-0.4-0.2-0.4H331c-0.2,1.1-0.5,2.2-0.9,3c-0.2,0.6-0.5,1.2-0.8,1.6c-0.4,0.5-0.7,0.7-0.8,0.7c-0.2,0-0.5-0.1-0.7-0.4
			c-0.2-0.3-0.3-0.5-0.3-0.7c0-0.2,0.1-0.3,0.4-0.4c0.3-0.1,0.7-0.4,1-0.9c0.4-0.4,0.7-1.2,1.1-2.3c0.1-0.2,0.1-0.4,0.2-0.6
			c-0.3,0-0.5,0.1-0.8,0.1c-0.3,0.1-0.5,0.2-0.6,0.2c-0.3,0-0.5-0.2-0.5-0.5c0-0.5,0.2-0.8,0.6-0.8
			C328.9,10.4,329.4,10.4,330.2,10.4z"/>
		<path class="st0" d="M344.8,0.2c0.3,0,0.4,0.2,0.4,0.5c0.2,0,0.6,0.2,1,0.6c3,2.2,4.8,3.5,5.6,3.8c0.5,0.1,1,0.3,1.7,0.3
			c0.3,0,0.4,0.1,0.4,0.4c0,0.4-0.2,0.7-0.7,1.1c-0.5,0.4-0.9,0.6-1.4,0.6c-0.3,0-0.6-0.2-0.9-0.5c-1.2-1.3-2.6-2.6-4.1-3.9
			c-0.7-0.5-1.2-0.9-1.8-1.2c-0.1,0-0.2-0.1-0.2-0.2c-1,1.3-2.2,2.4-3.4,3.3c-1,0.8-2.2,1.5-3.6,2c-0.3,0.1-0.5,0.1-0.6,0.1
			c-0.3,0-0.7-0.2-1-0.7c-0.3-0.3-0.5-0.6-0.5-0.9c0-0.2,0.2-0.4,0.6-0.4c1-0.1,1.7-0.2,2.2-0.4c1.2-0.3,2.3-0.8,3.3-1.6
			c1.1-0.8,2-1.7,2.7-2.7C344.5,0.3,344.6,0.2,344.8,0.2z M339,9.6c0.1,0,0.3,0,0.4,0.1c1.9-0.2,3.6-0.3,5.1-0.3
			c0.9,0,2.4,0,4.3,0.1c0.3,0,0.6,0,0.9,0c0.2,0,0.5,0,0.8-0.1c0.3-0.1,0.5-0.2,0.6-0.2c0.2,0,0.2,0.1,0.2,0.2
			c0,0.4-0.2,0.8-0.5,1.2c-0.3,0.5-0.6,0.7-0.9,0.7c-0.2,0-0.6-0.1-1.1-0.3c-1.2-0.4-2.6-0.6-4.3-0.6c-0.1,0-0.2,0-0.2,0
			c0,0.1,0.1,0.3,0.1,0.5c0,0.1,0,0.2-0.1,0.2c-0.5,0.8-0.8,1.5-1.1,2c-0.2,0.4-0.5,0.8-0.8,1.2c0,0.1,0.1,0.2,0.3,0.2h4.8
			c0.3,0,0.4-0.1,0.4-0.3c0,0,0-0.1,0-0.1c-0.2-0.4-0.5-1-0.9-1.5c0-0.1-0.1-0.1-0.1-0.1c0-0.4,0.2-0.7,0.6-0.7c0.1,0,0.2,0,0.2,0.1
			c0.5,0.7,1,1.6,1.6,2.7c0.1,0.1,0.1,0.3,0.1,0.4c0,0.4-0.2,0.6-0.6,0.6h-6.2c-0.4,0-0.9,0-1.5,0.1c-0.5,0-0.8-0.2-0.8-0.6
			c0-0.2,0.1-0.4,0.3-0.6c0.2-0.2,0.4-0.5,0.6-0.7c0.3-0.4,0.6-0.8,0.8-1.2c0.3-0.5,0.6-1.2,1-2.1c0,0,0,0,0-0.1
			c-1.5,0-2.6,0.2-3.3,0.4c-0.4,0.1-0.8,0.2-1,0.2c-0.3,0-0.5-0.2-0.5-0.6c0-0.2,0.1-0.5,0.2-0.7C338.6,9.7,338.8,9.6,339,9.6z
			 M342.3,6.1h5.7c0.1,0,0.2,0.1,0.2,0.3c0,0.2-0.1,0.5-0.2,0.6c-0.2,0.2-0.4,0.3-0.7,0.3c-0.1,0-0.5,0-1-0.1c-0.5,0-1.1,0-1.7,0
			c-1,0-1.8,0.1-2.3,0.2c-0.3,0.1-0.4,0.2-0.5,0.2c-0.4,0-0.6-0.3-0.6-0.7c0-0.2,0.1-0.4,0.3-0.6C341.8,6.2,342,6.1,342.3,6.1z"/>
		<path class="st0" d="M360.9,11.6c0,0.5-0.2,1.3-0.7,2.5c-0.5,1.3-0.9,1.9-1.2,1.9c-0.7,0-1.1-1-1.4-2.9c-0.1-1.1-0.2-2.4-0.2-3.8
			c0-1.2,0.1-2.7,0.4-4.5c0.3-2.3,0.8-3.5,1.3-3.5c0.5,0,0.7,0.3,0.8,0.9c-0.1,0.2-0.3,1.1-0.8,2.7c-0.4,1.7-0.6,3.2-0.6,4.7
			c0,1.5,0.1,2.7,0.3,3.6c0.1,0.5,0.2,0.7,0.3,0.7c0.1,0,0.4-0.5,0.8-1.4c0.4-0.9,0.7-1.4,0.8-1.4C360.8,11.2,360.9,11.3,360.9,11.6
			z M372.6,13.5c-0.1,0.3-0.3,0.7-0.7,1.2c-0.4,0.5-0.7,0.7-0.9,0.7c-0.2,0-0.6-0.3-1.2-0.9c-0.7-0.7-1.4-1.2-2-1.6
			c-0.3,1.7-1.3,2.6-2.8,2.6c-0.7,0-1.3-0.2-1.8-0.5c-0.6-0.4-1-1-1-1.8c0-1.5,1.1-2.2,3.3-2.2c0.3,0,0.7,0.1,1.3,0.2
			c0-1.3,0-3.1-0.1-5.6c-1.2,0-2,0.1-2.6,0.2c-0.1,0-0.3,0.1-0.7,0.2c-0.3,0-0.5,0.1-0.7,0.1c-0.3,0-0.5-0.2-0.5-0.6
			c0-0.2,0.1-0.4,0.2-0.6c0.2-0.2,1.5-0.3,4.1-0.3c-0.1-1.3-0.1-2.1-0.1-2.4c0-0.5,0.2-0.8,0.6-0.8c0.5,0,0.7,0.3,0.7,1v2.2
			c2.3,0,2.9,0,1.7-0.1c1.1,0,1.6,0.2,1.7,0.4c-0.2,0.9-0.5,1.3-0.9,1.3c-0.2,0-0.6-0.1-1.2-0.2c-0.6-0.2-1.1-0.3-1.3-0.3v1.6
			c0,0.3,0,1,0,2.1c0,0.9,0,1.7,0,2.2c0.1,0,0.8,0.3,2.1,0.9c0.9,0.4,1.6,0.6,2.2,0.6C372.4,13.3,372.5,13.4,372.6,13.5z
			 M366.6,12.5c-0.7-0.3-1.4-0.4-1.9-0.4c-1.1,0-1.7,0.4-1.7,1.3c0,0.4,0.2,0.7,0.6,0.9c0.3,0.2,0.7,0.3,1,0.3
			C365.8,14.5,366.5,13.8,366.6,12.5z"/>
		<path class="st0" d="M376.4,3.6h2.4c0-0.8,0-1.7-0.1-2.6c0-0.6,0.2-0.9,0.6-0.9c0.4,0,0.7,0.3,0.7,0.9c0,0.9,0,1.8-0.1,2.6h2.1
			c0.1,0,0.2,0.1,0.2,0.3c0,0.3-0.1,0.5-0.2,0.7c-0.2,0.2-0.4,0.3-0.7,0.3c-0.1,0-0.5,0-1-0.1c-0.2,0-0.4,0-0.6,0c0,0.3,0,0.6,0,0.9
			l0,1.8c0,0,0,0,0.1,0c0.1,0,0.4,0.3,1.1,0.8c0.7,0.6,1,1,1,1.2c0,0.3-0.2,0.5-0.5,0.5c-0.1,0-0.2-0.1-0.3-0.2
			c-0.6-0.6-1.1-0.9-1.4-1.1l0.1,6.9c0,1-0.2,1.5-0.7,1.5c-0.4,0-0.6-0.5-0.6-1.5c0-2.5,0-4.6,0-6.5c-0.3,0.4-0.6,0.8-0.9,1.2
			c-0.5,0.6-1,1-1.6,1.4c-0.1,0.1-0.2,0.1-0.3,0.1c-0.3,0-0.6-0.2-0.9-0.6c-0.3-0.3-0.4-0.6-0.4-0.9c0-0.2,0.2-0.3,0.5-0.3
			c0.4-0.1,0.8-0.1,1-0.2c0.5-0.2,1-0.5,1.5-1c0.5-0.5,0.9-1,1.2-1.7c0-0.6,0-1.1,0-1.6c0-0.3,0-0.6,0-0.9c-1,0-1.8,0.1-2.3,0.2
			c-0.3,0.1-0.4,0.2-0.5,0.2c-0.4,0-0.6-0.2-0.6-0.6c0-0.2,0.1-0.4,0.3-0.6C375.9,3.6,376.1,3.6,376.4,3.6z M386.7,10.4
			c0-0.6,0-1.2-0.1-1.9c0-0.6,0.2-0.9,0.6-0.9c0.4,0,0.6,0.3,0.6,0.9c0,0.7,0,1.3-0.1,1.9c0.7,0,1.4,0.1,2.2,0.2
			c0.9,0.1,1.7,0.1,2.5,0.1c0.3,0,0.6,0,0.9-0.1c0.1,0,0.1,0.1,0.1,0.3c0,0.4-0.1,0.8-0.3,1.2c-0.2,0.4-0.4,0.6-0.6,0.6
			c-0.2,0-0.5-0.1-0.7-0.2c-0.9-0.5-1.8-0.8-2.6-0.9c-0.4-0.1-0.9-0.1-1.4-0.1l0.1,3.9c0,1-0.2,1.5-0.7,1.5c-0.4,0-0.6-0.5-0.6-1.5
			c0-1.6,0-2.9,0-3.9c-0.8,0-1.6,0.1-2.2,0.3c-0.7,0.2-1.4,0.6-2.1,0.9c-0.2,0.1-0.4,0.2-0.5,0.2c-0.4,0-0.5-0.3-0.6-0.7
			c0-0.2,0.1-0.5,0.3-0.7c0.2-0.2,0.4-0.3,0.7-0.4C384.3,10.7,385.7,10.4,386.7,10.4z M387.3,2.5c0.5,0,1.3,0,2.1,0.1
			c0.2,0,0.4-0.1,0.6-0.1c0.3,0,0.5,0.2,0.5,0.6c0,0,0,0.1-0.1,0.2c-0.1,0.3-0.2,0.6-0.3,0.9c-0.1,0.4-0.1,0.9-0.1,1.4
			c0,0.6,0.1,1,0.2,1.1c0.2,0.2,0.5,0.3,0.8,0.3c0.5,0,1.1-0.2,1.7-0.5c0.1,0,0.2-0.1,0.3-0.1c0.1,0,0.2,0.1,0.2,0.4
			c0,0.5-0.1,1-0.3,1.3c-0.2,0.4-0.4,0.6-0.7,0.6c-1.1,0-1.9-0.2-2.6-0.6c-0.4-0.3-0.7-0.8-0.7-1.6c0-0.7,0.1-1.6,0.2-2.5
			c0-0.2,0-0.3-0.1-0.4c-0.2,0-0.6-0.1-1.1-0.1c-0.4,0-0.8,0-1.2,0c-0.1,0.6-0.2,1.2-0.4,1.8c-0.3,1-0.8,1.7-1.2,2.3
			c-0.7,0.7-1.2,1.1-1.8,1.1c-0.2,0-0.4-0.1-0.6-0.3c-0.3-0.3-0.4-0.7-0.4-1c0-0.2,0.1-0.3,0.3-0.3c0.6-0.1,1.1-0.3,1.5-0.5
			c0.6-0.3,1.1-1,1.5-2.1c0.1-0.3,0.2-0.6,0.2-0.9c-0.5,0-1,0.2-1.4,0.3c-0.2,0.1-0.3,0.1-0.4,0.1c-0.4,0-0.5-0.2-0.6-0.5
			c0-0.6,0.3-1,0.8-1c0.5,0,1.1-0.1,1.7-0.1c0-0.3,0-0.6,0-1c-0.1-0.4-0.1-0.7-0.1-1c0-0.3,0.2-0.5,0.5-0.5c0.4,0,0.6,0.2,0.6,0.6
			c-0.1,0.5-0.1,1.1-0.2,1.8C387,2.5,387.2,2.5,387.3,2.5z"/>
		<path class="st0" d="M396.1,12.8c0.3,0.1,0.6,0.1,0.7,0.1c0.4,0,0.9-0.2,1.5-0.6c0.2,0,0.2,0.1,0.2,0.3c0,0.2-0.2,0.6-0.7,1.2
			c-0.4,0.7-0.8,1-1.1,1c-0.2,0-0.5-0.1-0.6-0.4c-0.2-0.4-0.3-0.8-0.3-1.2C395.8,13,395.9,12.8,396.1,12.8z M400.4,0.1
			c0.4,0,0.6,0.2,0.6,0.7c0,0.3-0.1,0.7-0.4,1c-0.7,1.1-1.5,2-2.3,2.7c-0.2,0.1-0.2,0.3-0.2,0.5c0,0,0.1,0.2,0.4,0.3
			c0.3,0.1,0.6,0.3,0.9,0.6c0,0,0,0.1,0.1,0.1c0.7-0.8,1.4-1.6,2.1-2.4c0.1-0.1,0.2-0.1,0.4-0.1c0.1,0,0.2,0.1,0.3,0.2
			c0.1,0.1,0.1,0.3,0.1,0.5c0,0.2-0.1,0.4-0.2,0.5c-1.1,1.3-2.2,2.7-3.3,4.1c-0.1,0.1-0.1,0.2-0.1,0.4c0,0,0,0.1,0.1,0.1
			c0.2,0,0.6,0.1,1.2,0.1c0.9,0,1.6,0,2.2-0.1c0.1,0,0.2-0.1,0.2-0.3c-0.2-0.5-0.5-1-0.8-1.4c-0.1-0.1-0.1-0.2-0.1-0.3
			c0-0.1,0-0.2,0.1-0.4c0.1-0.1,0.3-0.2,0.4-0.2c0.1,0,0.2,0.1,0.4,0.4c0.3,0.5,0.6,1.1,1,1.8c0.2,0.3,0.2,0.6,0.2,0.8
			c0,0.5-0.2,0.8-0.6,0.8c-0.2-0.1-0.5-0.1-0.7-0.1c-0.5,0-1,0.1-1.6,0.1c0,0.1,0,0.3,0,0.5c-0.1,0.7-0.1,1.2-0.1,1.8l0.1,2.9
			c0,1-0.2,1.5-0.7,1.5c-0.4,0-0.6-0.5-0.6-1.5c0.1-1.2,0.1-2.2,0.1-2.9c0-0.5,0-1.1-0.1-1.8c0-0.2,0-0.4,0.1-0.5
			c-0.4,0-0.8,0-1.2-0.1c-0.3,0-0.7,0-1.1,0.1c-0.5,0-0.8-0.2-0.8-0.6c0-0.2,0.1-0.5,0.3-0.7c0.7-0.8,1.3-1.5,2-2.3c0,0-0.1,0-0.1,0
			c-0.9-0.6-1.6-0.9-2.1-1.1c-0.2-0.1-0.4-0.2-0.4-0.5c0-0.2,0.1-0.4,0.3-0.6c0.4-0.2,0.7-0.6,1.1-1.1c0.8-0.8,1.6-1.9,2.3-3.2
			C400,0.2,400.2,0.1,400.4,0.1z M401.8,11.7c0.1,0,0.2,0,0.3,0.1c0.3,0.4,0.6,0.6,1,0.8c0.2,0.1,0.3,0.2,0.3,0.4
			c0,0.3-0.1,0.5-0.3,0.7c-0.2,0.2-0.4,0.2-0.7,0.2c-0.2,0-0.4-0.3-0.6-0.8c-0.2-0.5-0.3-0.8-0.3-1
			C401.6,11.8,401.7,11.7,401.8,11.7z M405.9,1.1c0.2,0,0.3,0,0.4,0.1c0.1,0,0.2,0,0.2,0l4,0.1c0.4-0.1,0.7-0.1,0.8-0.1
			c0.5,0,0.8,0.2,0.8,0.7c-0.2,1.8-0.3,3.6-0.4,5.6c0,1.1,0,3.2,0,6.4c0,0.1,0,0.1,0,0.2c0.4,0,0.7,0,1,0c0.4,0,0.9-0.1,1.5-0.2
			c0.1,0,0.2,0.2,0.2,0.5c0,0.5-0.2,1-0.5,1.6c-0.2,0.4-0.4,0.6-0.6,0.6c-0.2,0-0.5-0.1-0.9-0.4c-0.5-0.4-1.1-0.6-1.8-0.8
			c-0.7-0.2-1.5-0.2-2.3-0.2c-1,0-1.9,0.1-2.8,0.2c-0.5,0.1-1.4,0.4-2.4,1c-0.5,0-0.7-0.2-0.7-0.7c0-0.3,0.1-0.5,0.3-0.7
			c0.2-0.3,0.6-0.5,1-0.5c0.7-0.1,1.3-0.2,1.8-0.3c0,0,0-0.1,0-0.2c0.1-1.9,0.1-3.7,0.1-5.7c0-1.7-0.1-3.9-0.2-6.6
			C405.2,1.3,405.4,1.1,405.9,1.1z M406.6,5.4c0.1,0,0.1,0,0.2,0h3.8c0.1,0,0.1,0,0.1,0c0-1.1,0.1-2,0.1-2.8c0-0.2-0.1-0.3-0.2-0.3
			c-1.1,0-2.4,0-4,0.1C406.5,3.1,406.6,4.2,406.6,5.4z M406.5,14.1c0.7-0.1,1.3-0.1,1.7-0.1c0.7,0,1.4,0,2.3,0.1c0-0.2,0-0.3,0-0.6
			c0-1,0-2,0-2.9c-1.7,0-3,0.1-3.9,0.2c0,0-0.1,0-0.1,0c0,0.8,0,1.6,0,2.4C406.6,13.6,406.6,13.8,406.5,14.1z M406.6,9.6
			c0.1,0,0.2,0,0.2,0h3.8c0-1.1,0-2.2,0-3.1c0,0-0.1,0-0.1,0c-1.7,0-3,0.1-3.9,0.2C406.6,7.5,406.6,8.5,406.6,9.6z"/>
		<path class="st0" d="M432.9,12.2c-0.1,0.3-0.3,0.7-0.7,1.2s-0.7,0.7-0.9,0.7c0,0-0.8-0.6-2.6-1.7c-0.4,0.8-0.9,1.7-1.6,2.6
			c-0.8,1.1-1.5,1.7-2.1,1.7c-0.2,0-0.6-0.2-1.1-0.5c-0.5-0.3-0.7-0.6-0.7-0.9c0-0.1,0.4-0.3,1.2-0.5c1.4-0.5,2.5-1.5,3.3-3
			c-1.4-0.8-2.9-1.4-4.5-1.9c-1.9,2.8-3.4,4.3-4.5,4.3c-0.4,0-0.8-0.2-1.1-0.7c-0.2-0.4-0.4-0.8-0.4-1.4c0-1.2,0.6-2.2,1.7-2.8
			c0.9-0.5,1.9-0.7,3-0.7c0.1,0,0.4,0,0.8,0.1c0.4-0.7,1.4-2.5,2.8-5.3c-1,0-1.6,0-2,0.1c-0.7,0.1-1.4,0.2-1.9,0.4
			c-0.6,0.2-0.9,0.3-0.9,0.3c-0.4,0-0.6-0.2-0.6-0.5c0-0.7,0.3-1.1,0.9-1.2c0.9-0.2,1.9-0.4,3-0.4h2c0.8,0,1.1,0.2,1.1,0.7
			c0,0.3-0.5,1.3-1.4,2.9c-0.8,1.4-1.4,2.5-2,3.3c1.2,0.4,2.6,0.9,4.4,1.5c0.3-0.8,0.4-1.6,0.5-2.3c0-0.4,0.2-0.5,0.5-0.5
			s0.5,0.2,0.5,0.6c0,0.7-0.2,1.5-0.6,2.6c1.2,0.5,2.3,0.9,3.3,1C432.8,11.9,432.9,12,432.9,12.2z M422.1,9.7c-0.4,0-0.6,0-0.8,0
			c-0.8,0-1.4,0.2-2,0.6c-0.7,0.4-1.1,1.1-1.1,1.9c0,0.6,0.2,0.8,0.5,0.8C419.5,13,420.7,11.9,422.1,9.7z"/>
		<path class="st0" d="M450,13.1c0,0.6-0.1,1.1-0.4,1.5c-0.3,0.4-0.7,0.7-1.1,0.8c-0.8,0.2-2.2,0.3-4.4,0.3c-4,0-6-1-6-3.1
			c0-1,0.4-1.9,1.1-2.8c0.1-0.2,0.8-0.9,2.1-2.1c-0.1-1-0.2-1.8-0.2-2.6V2.9c0-1.5,0.2-2.3,0.7-2.3c0.5,0,0.7,0.3,0.7,0.9
			c0,0.1,0,0.3-0.1,0.5c-0.1,0.3-0.1,0.5-0.1,0.6c-0.1,0.7-0.1,1.6-0.1,2.7c0,0.5,0,1.1,0.1,1.5c2-1.7,3.2-2.6,3.5-2.6
			c0.3,0,0.4,0.1,0.5,0.3c0.1,0.2,0.2,0.3,0.3,0.5c0,0.4-0.3,0.7-0.7,1c-0.9,0.5-1.8,1.1-2.7,1.6c-1.3,0.8-2.3,1.6-3,2.3
			c-0.9,0.9-1.4,1.8-1.4,2.7c0,1.1,0.9,1.7,2.6,1.7c1.1,0,2.5-0.1,4-0.3c1.3-0.2,2.4-0.5,3.3-0.8c0.4-0.2,0.7-0.2,0.9-0.2
			C449.9,12.8,450,12.9,450,13.1z"/>
		<path class="st0" d="M454.2,12.8c0.3,0.1,0.6,0.1,0.7,0.1c0.4,0,0.9-0.2,1.5-0.6c0.2,0,0.2,0.1,0.2,0.3c0,0.2-0.2,0.6-0.7,1.2
			c-0.4,0.7-0.8,1-1.1,1c-0.2,0-0.5-0.1-0.6-0.4c-0.2-0.4-0.3-0.8-0.3-1.2C453.9,13,454,12.8,454.2,12.8z M458.5,0.1
			c0.4,0,0.6,0.2,0.6,0.7c0,0.3-0.1,0.7-0.4,1c-0.7,1.1-1.5,2-2.3,2.7c-0.2,0.1-0.2,0.3-0.2,0.5c0,0,0.1,0.2,0.4,0.3
			c0.3,0.1,0.6,0.3,0.9,0.6c0,0,0,0.1,0.1,0.1c0.7-0.8,1.4-1.6,2.1-2.4c0.1-0.1,0.2-0.1,0.4-0.1c0.1,0,0.2,0.1,0.3,0.2
			c0.1,0.1,0.1,0.3,0.1,0.5c0,0.2-0.1,0.4-0.2,0.5c-1.1,1.3-2.2,2.7-3.3,4.1c-0.1,0.1-0.1,0.2-0.1,0.4c0,0,0,0.1,0.1,0.1
			c0.2,0,0.6,0.1,1.2,0.1c0.9,0,1.6,0,2.2-0.1c0.1,0,0.2-0.1,0.2-0.3c-0.2-0.5-0.5-1-0.8-1.4c-0.1-0.1-0.1-0.2-0.1-0.3
			c0-0.1,0-0.2,0.1-0.4c0.1-0.1,0.3-0.2,0.4-0.2c0.1,0,0.2,0.1,0.4,0.4c0.3,0.5,0.6,1.1,1,1.8c0.2,0.3,0.2,0.6,0.2,0.8
			c0,0.5-0.2,0.8-0.6,0.8c-0.2-0.1-0.5-0.1-0.7-0.1c-0.5,0-1,0.1-1.6,0.1c0,0.1,0,0.3,0,0.5c-0.1,0.7-0.1,1.2-0.1,1.8l0.1,2.9
			c0,1-0.2,1.5-0.7,1.5c-0.4,0-0.6-0.5-0.6-1.5c0.1-1.2,0.1-2.2,0.1-2.9c0-0.5,0-1.1-0.1-1.8c0-0.2,0-0.4,0.1-0.5
			c-0.4,0-0.8,0-1.2-0.1c-0.3,0-0.7,0-1.1,0.1c-0.5,0-0.8-0.2-0.8-0.6c0-0.2,0.1-0.5,0.3-0.7c0.7-0.8,1.3-1.5,2-2.3c0,0-0.1,0-0.1,0
			c-0.9-0.6-1.6-0.9-2.1-1.1c-0.2-0.1-0.4-0.2-0.4-0.5c0-0.2,0.1-0.4,0.3-0.6c0.4-0.2,0.7-0.6,1.1-1.1c0.8-0.8,1.6-1.9,2.3-3.2
			C458.1,0.2,458.3,0.1,458.5,0.1z M459.9,11.7c0.1,0,0.2,0,0.3,0.1c0.3,0.4,0.6,0.6,1,0.8c0.2,0.1,0.3,0.2,0.3,0.4
			c0,0.3-0.1,0.5-0.3,0.7c-0.2,0.2-0.4,0.2-0.7,0.2c-0.2,0-0.4-0.3-0.6-0.8c-0.2-0.5-0.3-0.8-0.3-1
			C459.7,11.8,459.8,11.7,459.9,11.7z M464,1.1c0.2,0,0.3,0,0.4,0.1c0.1,0,0.2,0,0.2,0l4,0.1c0.4-0.1,0.7-0.1,0.8-0.1
			c0.5,0,0.8,0.2,0.8,0.7c-0.2,1.8-0.3,3.6-0.4,5.6c0,1.1,0,3.2,0,6.4c0,0.1,0,0.1,0,0.2c0.4,0,0.7,0,1,0c0.4,0,0.9-0.1,1.5-0.2
			c0.1,0,0.2,0.2,0.2,0.5c0,0.5-0.2,1-0.5,1.6c-0.2,0.4-0.4,0.6-0.6,0.6c-0.2,0-0.5-0.1-0.9-0.4c-0.5-0.4-1.1-0.6-1.8-0.8
			c-0.7-0.2-1.5-0.2-2.3-0.2c-1,0-1.9,0.1-2.8,0.2c-0.5,0.1-1.4,0.4-2.4,1c-0.5,0-0.7-0.2-0.7-0.7c0-0.3,0.1-0.5,0.3-0.7
			c0.2-0.3,0.6-0.5,1-0.5c0.7-0.1,1.3-0.2,1.8-0.3c0,0,0-0.1,0-0.2c0.1-1.9,0.1-3.7,0.1-5.7c0-1.7-0.1-3.9-0.2-6.6
			C463.3,1.3,463.5,1.1,464,1.1z M464.7,5.4c0.1,0,0.1,0,0.2,0h3.8c0.1,0,0.1,0,0.1,0c0-1.1,0.1-2,0.1-2.8c0-0.2-0.1-0.3-0.2-0.3
			c-1.1,0-2.4,0-4,0.1C464.6,3.1,464.7,4.2,464.7,5.4z M464.6,14.1c0.7-0.1,1.3-0.1,1.7-0.1c0.7,0,1.4,0,2.3,0.1c0-0.2,0-0.3,0-0.6
			c0-1,0-2,0-2.9c-1.7,0-3,0.1-3.9,0.2c0,0-0.1,0-0.1,0c0,0.8,0,1.6,0,2.4C464.7,13.6,464.7,13.8,464.6,14.1z M464.7,9.6
			c0.1,0,0.2,0,0.2,0h3.8c0-1.1,0-2.2,0-3.1c0,0-0.1,0-0.1,0c-1.7,0-3,0.1-3.9,0.2C464.7,7.5,464.7,8.5,464.7,9.6z"/>
		<path class="st0" d="M475.1,12.7c0.3,0.1,0.6,0.1,0.7,0.1c0.4,0,0.9-0.2,1.4-0.6c0.1,0,0.1,0.1,0.1,0.3c0,0.2-0.2,0.6-0.6,1.2
			c-0.4,0.6-0.7,1-1,1c-0.2,0-0.4-0.1-0.6-0.4c-0.2-0.3-0.3-0.7-0.3-1.1C474.9,12.9,475,12.7,475.1,12.7z M478.5,0.2
			c0.4,0,0.6,0.2,0.6,0.7c0,0.3-0.1,0.6-0.2,0.9c-0.5,0.9-1.1,1.8-1.7,2.4C477,4.4,477,4.5,477,4.7c0,0,0.1,0.1,0.3,0.3
			c0.2,0.1,0.4,0.3,0.7,0.6l0,0c0.5-0.7,1-1.3,1.5-1.9c0.1-0.1,0.2-0.1,0.3-0.1c0.1,0,0.2,0.1,0.3,0.2c0.1,0.1,0.1,0.3,0.1,0.5
			c0,0.2-0.1,0.4-0.2,0.5c-1,1.3-1.9,2.6-2.9,4c-0.1,0.1-0.1,0.2-0.1,0.3c0,0,0,0.1,0,0.1c0.1,0,0.4,0.1,0.8,0.1
			c0.7,0,1.3,0,1.8-0.1c0.1,0,0.2-0.1,0.2-0.3c-0.2-0.4-0.3-0.8-0.6-1.2c-0.1-0.1-0.1-0.2-0.1-0.3c0-0.1,0-0.2,0.1-0.4
			c0.1-0.1,0.3-0.2,0.4-0.2c0.1,0,0.2,0.1,0.3,0.3c0.2,0.4,0.5,1,0.8,1.7c0.1,0.3,0.2,0.6,0.2,0.8c0,0.4-0.2,0.6-0.6,0.6
			c-0.2-0.1-0.4-0.1-0.7-0.1c-0.2,0-0.5,0.1-0.7,0.1c0,0.1,0.1,0.3,0.1,0.5c-0.1,0.7-0.1,1.3-0.1,1.9l0.1,3.2c0,1-0.2,1.5-0.7,1.5
			c-0.4,0-0.6-0.5-0.6-1.5c0-1.4,0.1-2.4,0.1-3.2c0-0.6,0-1.2-0.1-1.9c0-0.2,0-0.4,0-0.5h0c-0.3,0-0.6,0-1-0.1c-0.3,0-0.7,0-1,0.1
			c-0.5,0-0.7-0.2-0.7-0.6c0-0.2,0.1-0.5,0.2-0.7c0.7-0.8,1.3-1.7,2-2.5c0,0-0.1,0-0.1,0c-0.8-0.5-1.4-0.8-1.8-0.9
			c-0.2-0.1-0.3-0.2-0.3-0.4c0-0.2,0.1-0.4,0.3-0.6c0.3-0.2,0.6-0.6,0.9-1c0.7-0.8,1.3-1.7,1.8-2.9C478.2,0.3,478.4,0.2,478.5,0.2z
			 M479.9,12c0.1,0,0.2,0,0.3,0.1c0.2,0.4,0.5,0.6,0.8,0.7c0.2,0.1,0.3,0.2,0.3,0.4c0,0.3-0.1,0.5-0.3,0.7c-0.2,0.2-0.4,0.3-0.7,0.3
			c-0.1,0-0.3-0.3-0.5-0.8c-0.2-0.5-0.2-0.8-0.2-1C479.7,12.1,479.8,12,479.9,12z M482.9,4.1c0.4,0,0.6,0.2,0.6,0.6v1.2h1.8l0.1-1.3
			c0.1-0.3,0.3-0.5,0.6-0.5c0.4,0,0.6,0.2,0.6,0.6L486,5.9h2.1c-0.1-1.8-0.1-3.5-0.1-4.9c0-0.5,0.2-0.7,0.6-0.7
			c0.4,0,0.5,0.3,0.6,0.7c0,0.9-0.1,1.8-0.1,2.7c0,0.7,0,1.5,0.1,2.2h3c0.2,0,0.3,0.1,0.3,0.3c0,0.3-0.1,0.6-0.2,0.8
			c-0.2,0.2-0.4,0.3-0.7,0.3c-0.3,0-0.9-0.1-1.9-0.2c-0.1,0-0.3,0-0.4,0c0,0.4,0.1,0.7,0.1,1.1c0.2,1.5,0.5,2.8,0.8,3.9
			c0,0,0-0.1,0.1-0.1c0.4-1,0.7-2,0.8-3c0-0.4,0.2-0.6,0.5-0.6c0.1,0,0.2,0.1,0.3,0.2c0.1,0.1,0.2,0.3,0.2,0.4l0,0.1
			c-0.1,0.4-0.2,1-0.4,1.8c-0.2,0.9-0.5,1.7-0.9,2.5c0.6,1,1.2,1.7,2,2.1c0.2,0.1,0.3,0.2,0.3,0.5c0,0.2-0.2,0.5-0.5,0.8
			c-0.3,0.3-0.6,0.4-0.9,0.4c-0.2,0-0.5-0.1-0.7-0.4c-0.4-0.4-0.8-1-1.1-1.8c-0.3,0.5-0.6,0.9-1,1.3c-0.6,0.5-1.1,0.8-1.3,0.8
			c-0.2,0-0.4-0.1-0.7-0.4c-0.2-0.3-0.3-0.5-0.3-0.7c0-0.2,0.1-0.3,0.4-0.4c0.5-0.1,1-0.5,1.6-1c0.3-0.2,0.5-0.5,0.8-0.9
			c-0.2-0.4-0.3-0.9-0.4-1.4c-0.4-1.6-0.7-3.3-0.8-5.1c-0.6,0-1.1,0-1.8,0c-1.8,0-3.2,0.1-4,0.2c-0.5,0.1-0.8,0.2-0.9,0.2
			c-0.4,0-0.6-0.3-0.6-0.7c0-0.2,0.1-0.4,0.3-0.6c0.2-0.1,0.4-0.2,0.7-0.2h0.8c0,0,0-0.1,0-0.1l-0.3-1.1
			C482.4,4.3,482.6,4.1,482.9,4.1z M484.3,0.2c0.5,0,0.7,0.2,0.7,0.7c-0.1,0.5-0.1,0.9-0.2,1.3h2.3c0.1,0,0.2,0.1,0.2,0.3
			c0,0.2-0.1,0.5-0.2,0.6c-0.2,0.2-0.4,0.3-0.7,0.3c-0.1,0-0.4,0-0.8-0.1c-0.4,0-0.9,0-1.4,0c-0.9,0-1.6,0.1-2,0.2
			c-0.2,0.1-0.4,0.2-0.5,0.2c-0.4,0-0.6-0.2-0.6-0.6c0-0.2,0.1-0.4,0.3-0.6c0.2-0.1,0.4-0.2,0.7-0.2h1.6c0-0.4-0.1-0.8-0.2-1.2
			C483.7,0.5,483.9,0.2,484.3,0.2z M482.6,8.3c0.2,0,0.4,0,0.5,0.1c0.2,0.1,0.4,0.1,0.8,0.1h1.1c0.3,0,0.6,0,0.9,0.1
			c0.2,0,0.4-0.1,0.7-0.2c0.4,0,0.6,0.2,0.6,0.7c0,0,0,0.1,0,0.2c-0.1,0.2-0.1,0.5-0.1,1.1c0,0.7-0.1,1.4-0.1,2.1c0,0.5,0,1.1,0.1,2
			c0,0.5-0.2,0.7-0.5,0.7c-0.7-0.1-1.4-0.2-2-0.2c-0.7,0-1.2,0-1.4,0.1c-0.2,0-0.4,0.1-0.6,0.1c-0.3,0-0.5-0.2-0.5-0.6
			c0.1-1.1,0.2-2,0.2-2.8c0-0.8-0.1-1.7-0.2-2.8C482,8.5,482.2,8.3,482.6,8.3z M484.5,13.9c0.3,0,0.7,0,1.1,0.1
			c0.2,0,0.3-0.1,0.3-0.3v-1.6c-1.1,0-2,0.1-2.7,0.2c0,0.4,0,0.9-0.1,1.3c0,0.2,0.1,0.4,0.4,0.4C483.8,13.9,484.1,13.9,484.5,13.9z
			 M483.3,11.3L483.3,11.3h2.7V9.8c0-0.2,0-0.3-0.1-0.3c-0.5-0.1-1.2-0.1-2.2-0.1c-0.2,0-0.3,0.2-0.3,0.5
			C483.3,10.4,483.3,10.8,483.3,11.3z M492,1.8c0.4,0,0.6,0.2,0.6,0.6c0,0.3,0,0.5-0.1,0.6c-0.9,0.8-1.4,1.2-1.5,1.2
			c-0.3,0-0.4-0.1-0.4-0.4c0-0.1,0.3-0.6,0.8-1.7C491.5,1.9,491.7,1.8,492,1.8z"/>
		<path class="st0" d="M501.9,6.6c0.5,0,0.7,0.2,0.7,0.7l0.3,5.9c0,0,0,0,0,0c0.8-0.1,1.5-0.1,2-0.1c0.6,0,1.3,0,2,0.1l0.6-6
			c0.1-0.4,0.3-0.6,0.7-0.6c0.5,0,0.7,0.3,0.7,0.8l-1.1,5.9c0.5,0,1.1,0.1,1.7,0.2c1.3,0.2,2.5,0.2,3.6,0.2c0.3,0,0.6,0,1-0.1
			c0.1,0,0.1,0.1,0.1,0.3c0,0.4-0.1,0.9-0.3,1.3c-0.2,0.5-0.4,0.7-0.7,0.7c-0.3,0-0.7-0.1-1-0.3c-1.4-0.6-2.7-1-3.8-1.2
			c-0.9-0.1-2-0.2-3.3-0.2c-1.5,0-2.9,0.1-4,0.4c-1.2,0.3-2.4,0.7-3.5,1.3c-0.4,0.2-0.6,0.2-0.9,0.2c-0.4,0-0.6-0.3-0.6-0.8
			c0-0.3,0.1-0.5,0.3-0.7c0.2-0.2,0.4-0.3,0.7-0.4c2-0.4,3.8-0.7,5.2-0.9c0-0.1,0-0.2-0.1-0.3l-0.8-5.7
			C501.2,6.8,501.5,6.6,501.9,6.6z M504.8,0.5c0.5,0,0.8,0.3,0.8,0.9c-0.1,0.8-0.2,1.6-0.2,2.3h5.7c0.2,0,0.3,0.1,0.3,0.3
			c0,0.3-0.1,0.6-0.2,0.8c-0.2,0.2-0.4,0.3-0.7,0.3c-0.3,0-1-0.1-2.1-0.2c-1.1,0-2.4-0.1-3.8-0.1c-2.1,0-3.6,0.1-4.5,0.3
			c-0.5,0.1-0.9,0.2-1,0.2c-0.4,0-0.7-0.3-0.7-0.7c0-0.2,0.1-0.5,0.3-0.6c0.2-0.1,0.4-0.2,0.8-0.2h4.8c0-0.8-0.1-1.5-0.3-2.2
			C504,0.8,504.3,0.5,504.8,0.5z"/>
		<path class="st0" d="M525.4,0.5c0.5,0,0.8,0.3,0.8,0.8l-0.1,5.2c0.1,0,0.1,0,0.2,0h4.7c0.2,0,0.3,0.1,0.3,0.2
			c0,0.3-0.1,0.6-0.2,0.9c-0.2,0.2-0.4,0.4-0.7,0.4c-0.1,0-0.4-0.1-0.8-0.2c-0.4,0-0.9-0.1-1.4-0.1c-0.9,0-1.5,0-1.9,0.1
			c-0.1,0-0.2,0.1-0.3,0.1l-0.1,6c1,0,2.3,0.2,3.7,0.4c1.3,0.2,2.4,0.3,3.2,0.3c0.4,0,0.9,0,1.3-0.1c0.1,0,0.2,0.1,0.2,0.2
			c0,0.5-0.1,1-0.3,1.5c-0.2,0.4-0.5,0.6-0.7,0.6c-0.2,0-0.4-0.1-0.7-0.2c-1.3-0.6-2.4-0.9-3.6-1.1c-1-0.2-2.3-0.3-3.8-0.3
			c-1.8,0-3.2,0.2-4.3,0.5c-1.1,0.3-2.1,0.6-2.9,1c-0.3,0.2-0.5,0.2-0.7,0.2c-0.5,0-0.8-0.3-0.8-0.7c0-0.3,0.1-0.5,0.3-0.8
			c0.2-0.2,0.4-0.3,0.7-0.4c3.3-0.7,5.8-1.1,7.2-1.1l-0.1-12.6C524.7,0.8,524.9,0.5,525.4,0.5z"/>
		<path class="st0" d="M542.2,11.1c-0.1,0.6-0.4,1.5-0.9,2.7c-0.6,1.4-1.1,2-1.5,2c-0.5,0-0.9-0.6-1.3-1.9C538.2,12.6,538,11,538,9
			c0-1.3,0.1-2.7,0.4-4.3c0.4-2.2,0.8-3.3,1.5-3.3c0.4,0,0.7,0.2,0.7,0.7c0,0.2-0.2,1.1-0.7,2.5c-0.5,1.3-0.7,2.8-0.7,4.4
			c0,0.8,0.1,1.7,0.2,2.6c0.2,1.3,0.4,1.9,0.7,1.9c0.3,0,0.7-0.4,1.2-1.3c0.5-0.9,0.7-1.4,0.9-1.4C542.1,10.8,542.2,10.9,542.2,11.1
			z M551.7,5.4c0,0.2-0.1,0.5-0.3,0.8c-0.2,0.3-0.4,0.5-0.7,0.5c-0.1,0-0.4-0.1-0.9-0.2c-0.4-0.1-0.8-0.1-1.4-0.1
			c0,2.3-0.1,4-0.3,4.9c-0.3,1.8-0.9,3.2-1.9,4.3c-0.7,0.8-1.3,1.2-1.9,1.2c-0.2,0-0.5-0.1-0.9-0.4c-0.4-0.3-0.7-0.6-0.7-0.8
			c0-0.1,0.3-0.2,1-0.5c1.1-0.4,1.9-1.1,2.5-2.1c0.7-1.1,1-2.7,1-4.8c0-0.2,0-0.5,0-1c0-0.4,0-0.7,0-0.9c-1.3,0-2.3,0.2-3.1,0.3
			c-0.6,0.2-0.8,0.2-0.8,0.2c-0.3,0-0.4-0.2-0.4-0.5c0-0.7,0.4-1.1,1.2-1.2c0.7,0,1.8-0.1,3.1-0.1c-0.1-2.2-0.2-3.3-0.2-3.4
			c0-0.6,0.2-0.8,0.6-0.8c0.4,0,0.6,0.3,0.7,0.8c0.1,0.6,0.1,1.7,0.2,3.5c0.2,0,0.6,0,1,0c0.4,0,0.8,0,1,0
			C551.3,5,551.7,5.1,551.7,5.4z M552.4,1.8c0,0.2-0.2,0.4-0.4,0.7c-0.2,0.3-0.4,0.5-0.5,0.5c-0.2,0-0.6-0.3-1.2-1
			c-0.6-0.7-0.8-1.1-0.8-1.4c0-0.2,0.1-0.3,0.2-0.3c0.1,0,0.3,0.1,0.7,0.4c0.4,0.3,1,0.5,1.7,0.6C552.2,1.6,552.3,1.7,552.4,1.8z
			 M555,0.5c0,0.2-0.2,0.4-0.4,0.7c-0.2,0.3-0.4,0.5-0.5,0.5c-0.2,0-0.6-0.3-1.2-1c-0.6-0.7-0.8-1.1-0.8-1.4c0-0.2,0.1-0.3,0.2-0.3
			c0.1,0,0.3,0.2,0.7,0.5c0.5,0.3,1.1,0.5,1.7,0.6C554.8,0.2,555,0.3,555,0.5z"/>
		<path class="st0" d="M570.3,6c0,0.3-0.3,0.6-0.8,1c-1.2,0.9-2.9,2-5.1,3.4c0,0.1,0,0.4,0,0.8c0,0.3,0,0.6,0,0.8
			c0,0.5-0.2,0.7-0.7,0.7c-0.3,0-0.4-0.2-0.5-0.6c0-0.1,0-0.4,0-1c-0.8,0.5-1.4,0.8-1.7,1.1c-0.7,0.6-1.1,1.1-1.1,1.7
			c0,0.4,0.3,0.6,1,0.8c0.5,0.1,1,0.2,1.5,0.2c1.5,0,2.8-0.3,4-0.8c0.9-0.4,1.4-0.6,1.4-0.6c0.1,0,0.2,0.1,0.2,0.4
			c0,0.5-0.1,1-0.4,1.5c-0.2,0.4-0.7,0.6-1.6,0.8c-0.7,0.1-1.4,0.1-2.3,0.1c-1.1,0-2.1-0.1-2.9-0.4c-1.3-0.4-1.9-1.1-1.9-2
			c0-0.8,0.5-1.6,1.4-2.4c0.1-0.2,0.9-0.7,2.2-1.7c0-0.9-0.1-1.4-0.1-1.6c-0.2-0.6-0.5-0.9-1.1-0.9c-0.7,0-1.4,0.2-1.9,0.5
			c-0.2,0.1-0.8,0.6-1.7,1.4c-0.1,0.1-0.2,0.2-0.4,0.3c-0.4,0-0.6-0.3-0.6-0.9c0-0.4,0.4-0.9,1.2-1.4c1.1-0.8,2.1-1.8,3-3.2
			c-0.4,0.1-1.1,0.2-2,0.3c0,0-0.3,0.1-0.8,0.2c-0.4,0.1-0.6,0.2-0.8,0.2c-0.3,0-0.5-0.2-0.5-0.7c0-0.6,0.4-0.9,1.2-1
			c0.7,0,1.9-0.1,3.3-0.1c0.1-0.3,0.4-0.9,0.8-1.9c0.2-0.5,0.4-0.7,0.8-0.7c0.5,0,0.7,0.2,0.7,0.7c0,0.2-0.3,0.8-0.9,1.9
			c0.4,0,1.1,0,1.9,0c0.9,0,1.5,0,1.9,0c0.1,0,0.3,0,0.5,0c0.2,0,0.4-0.1,0.5-0.1c0.1,0,0.2,0.1,0.2,0.2c0,0.3-0.2,0.6-0.4,1
			c-0.3,0.4-0.5,0.6-0.8,0.6c-0.2,0-0.5-0.1-0.8-0.2c-0.3-0.1-0.5-0.1-0.8-0.2c-0.6-0.2-1.6-0.3-2.8-0.3c-0.6,1-1.3,1.9-1.9,2.6
			c0.5-0.1,1-0.1,1.4-0.1c1.1,0,1.8,0.8,1.8,2.3c0,0.2,0,0.3,0.1,0.4c1.8-1.3,3.3-2.4,4.4-3.3c0.4-0.3,0.7-0.4,0.9-0.4
			C570.1,5.3,570.3,5.5,570.3,6z"/>
		<path class="st0" d="M575.3,3.6h2.4c0-0.8,0-1.6,0-2.4c0-0.7,0.2-1,0.7-1c0.4,0,0.6,0.2,0.6,0.7c0,0.1,0,0.4-0.1,0.7
			c0,0.4,0,0.7,0,0.9c0,0.4,0,0.7,0,1.1h2.1c0.1,0,0.2,0.1,0.2,0.3c0,0.3-0.1,0.5-0.2,0.7c-0.2,0.2-0.4,0.3-0.7,0.3h-1.4
			c0,1.3,0,2.5,0.1,3.6c0.8-0.2,1.4-0.4,1.8-0.5c0.2,0,0.2,0.1,0.2,0.4c0,0.3-0.1,0.5-0.3,0.6c-0.6,0.2-1.2,0.4-1.7,0.6
			c0,1.6,0.1,2.9,0.1,3.7c0,1.4-0.3,2.4-0.8,3c-0.4,0.5-1,0.8-1.6,0.8c-0.3,0-0.6-0.1-0.9-0.4c-0.2-0.2-0.3-0.5-0.3-0.7
			c0-0.3,0.1-0.4,0.4-0.5c0.9-0.3,1.5-0.6,1.7-1.1c0.2-0.3,0.2-0.8,0.2-1.5c0-1,0-2,0-3c-1.1,0.5-2.1,1-3.1,1.5
			c-0.4,0-0.6-0.2-0.6-0.6c0-0.3,0.1-0.6,0.2-0.7c0.1-0.2,0.3-0.4,0.6-0.5c1.2-0.4,2.2-0.7,3-1c0-1.1,0-2.2-0.1-3.3
			c0-0.2,0-0.4,0-0.6h-0.1c-1,0-1.8,0.1-2.3,0.2c-0.3,0.1-0.4,0.1-0.5,0.1c-0.4,0-0.6-0.2-0.6-0.6c0-0.2,0.1-0.4,0.3-0.6
			C574.7,3.6,575,3.6,575.3,3.6z M585.9,13.1c0.8,0,1.8,0.1,2.9,0.2c0.8,0.1,1.6,0.1,2.2,0.1c0.4,0,0.9-0.1,1.4-0.2
			c0.1,0,0.2,0.2,0.2,0.5c0,0.5-0.2,1-0.5,1.6c-0.2,0.4-0.4,0.6-0.6,0.6c-0.3,0-0.6-0.1-1-0.4c-0.6-0.4-1.3-0.7-2-0.8
			c-0.8-0.2-1.7-0.3-2.7-0.3c-1,0-1.9,0.1-2.8,0.2c-0.5,0.1-1.4,0.4-2.5,1c-0.5,0-0.7-0.2-0.7-0.7c0-0.3,0.1-0.5,0.3-0.7
			c0.2-0.3,0.6-0.5,1-0.5C583.2,13.3,584.8,13.1,585.9,13.1z M582.8,1.9c0.2,0,0.4,0,0.6,0.1c0.2,0.1,0.5,0.1,0.9,0.1h2.5
			c0.6,0,1.2,0,2,0.1c0.2,0,0.4-0.1,0.7-0.2c0.4,0,0.6,0.2,0.6,0.7c0,0,0,0.1,0,0.2c-0.1,0.3-0.1,0.7-0.1,1.4c0,0.9-0.1,1.8-0.1,2.8
			c0,0.7,0,1.6,0.1,2.7c0,0.6-0.2,0.8-0.6,0.8c-1.4-0.2-2.6-0.3-3.7-0.3c-1,0-1.7,0-2,0.1c-0.2,0-0.5,0.1-0.9,0.2
			c-0.4,0-0.6-0.2-0.6-0.6c0.1-1.4,0.1-2.6,0.1-3.7c0-1.1,0-2.4-0.1-3.9C582.3,2.1,582.5,1.9,582.8,1.9z M585.7,9.4
			c0.8,0,1.8,0,2.8,0.1c0.2,0,0.3-0.1,0.3-0.4V6.6c0,0-0.1,0-0.1,0c-2.2,0-3.9,0.1-5.1,0.2c0,0,0,0-0.1,0c0,0.8,0,1.5-0.1,2.2
			c0,0.3,0.2,0.5,0.5,0.5C584.4,9.4,585,9.4,585.7,9.4z M583.6,5.6c0.1,0,0.1,0,0.2,0h4.9c0,0,0.1,0,0.1,0V3.6
			c0-0.2-0.1-0.3-0.2-0.3c-1.1-0.1-2.6-0.1-4.6-0.1c-0.3,0-0.4,0.2-0.4,0.5C583.6,4.3,583.6,5,583.6,5.6z"/>
		<path class="st0" d="M594.8,2.8c0.4,0.1,0.6,0.1,0.8,0.1c0.8,0,1.8-0.4,3.1-1.1c0.2,0,0.2,0.1,0.2,0.3c0,0.3-0.4,0.8-1.2,1.6
			c-0.8,0.8-1.5,1.3-2.1,1.3c-0.3,0-0.5-0.2-0.7-0.5c-0.2-0.4-0.3-0.8-0.3-1.3C594.5,2.9,594.6,2.8,594.8,2.8z M602.6,0.6
			c0.5,0,0.8,0.3,0.8,0.8l-0.1,5.6l4,0.1c0.2,0,0.5,0,1-0.1c0.5,0,0.8,0.2,0.8,0.6c-0.2,2.3-0.3,4.7-0.3,7.2c0,0.6-0.3,0.8-0.7,0.8
			c-1.3-0.1-3-0.2-5.1-0.2c-2.2,0-4.1,0.1-5.7,0.3c-0.4,0-0.6-0.2-0.6-0.6c0-0.5,0.1-0.7,0.4-0.8c1.1-0.1,2.8-0.2,4.9-0.2
			c1.3,0,3,0,5.3,0.1c0.3,0,0.4-0.3,0.4-0.8c0-0.6,0-1.2,0-1.7c0,0,0,0,0,0c-4.4,0-7.8,0.1-10.3,0.2c-0.4,0-0.6-0.2-0.6-0.6
			c0-0.4,0.3-0.7,0.8-0.7h10.1c0,0,0,0,0,0c0-0.8,0-1.5,0-2.1c0-0.2-0.1-0.4-0.4-0.4c-0.8-0.1-2.3-0.1-4.5-0.1
			c-1.7,0-3.6,0.1-5.7,0.3c-0.3,0-0.5-0.2-0.5-0.6c0-0.5,0.2-0.8,0.6-0.8l4.9-0.1l-0.1-5.6C601.9,0.9,602.2,0.6,602.6,0.6z
			 M606.6,1.7c0,0,0.1,0,0.1,0.1c0.9,0.6,1.7,1,2.2,1.2c0.4,0.2,0.9,0.3,1.5,0.3c0.2,0,0.2,0.1,0.2,0.3c0,0.3-0.1,0.6-0.4,0.9
			c-0.6,0.4-1,0.6-1.3,0.6c-0.2,0-0.3-0.1-0.5-0.2c-0.3-0.2-1-1-2-2.5c-0.1-0.1-0.1-0.2-0.1-0.3C606.3,1.8,606.4,1.7,606.6,1.7z"/>
	</g>
</g>
<g>
	<g>
		<path class="st0" d="M6.2,0.2c0.3,0,0.5,0.2,0.5,0.5c0,0.2-0.1,0.5-0.2,0.7C6,2.1,5.4,2.8,4.7,3.5c0.1,0.2,0.1,0.4,0.1,0.7
			C4.8,5.5,4.8,6.8,4.8,7.9l0,7.7c0,1-0.2,1.5-0.7,1.5c-0.4,0-0.6-0.5-0.6-1.5c0.1-3.3,0.1-5.9,0.1-7.7c0-1,0-2.1-0.1-3.4
			C3.3,4.8,3,5,2.8,5.2c-0.6,0.4-1,0.7-1.4,0.7c-0.3,0-0.6-0.1-0.9-0.4C0.1,5.2,0,4.9,0,4.6c0-0.2,0.1-0.4,0.4-0.4
			c1.1-0.3,2-0.7,2.9-1.3c1-0.6,1.8-1.4,2.6-2.5C6,0.3,6.1,0.2,6.2,0.2z M11.4,8.9c0-0.3,0-0.6,0-1C11.3,7.3,11.5,7,12,7
			c0.4,0,0.6,0.3,0.6,0.9c0,0.3,0,0.7,0,1c0.8,0,1.6,0.1,2.5,0.2c0.9,0.1,1.8,0.1,2.6,0.1c0.3,0,0.6,0,1-0.1c0.1,0,0.1,0.1,0.1,0.3
			c0,0.4-0.1,0.9-0.3,1.3c-0.2,0.5-0.4,0.7-0.7,0.7c-0.2,0-0.5-0.1-0.8-0.3c-1-0.5-1.9-0.9-2.8-1.1c-0.5-0.1-1.1-0.2-1.7-0.2
			c0,0.2,0,0.4,0,0.6l0.1,5c0,1-0.2,1.5-0.7,1.5c-0.4,0-0.6-0.5-0.6-1.5c0-2.1,0.1-3.8,0.1-5c0-0.2,0-0.4,0-0.6
			c-0.8,0-1.6,0.1-2.2,0.3c-0.8,0.2-1.6,0.6-2.3,1c-0.2,0.1-0.4,0.2-0.6,0.2c-0.4,0-0.5-0.3-0.6-0.7c0-0.3,0.1-0.5,0.3-0.7
			c0.2-0.2,0.4-0.4,0.7-0.4C8.8,9.2,10.3,9,11.4,8.9z M6.6,13.3c0.4,0.1,0.6,0.1,0.8,0.1c0.5,0,1.1-0.2,1.8-0.7
			c0.2,0,0.2,0.1,0.2,0.3c0,0.2-0.3,0.7-0.8,1.4c-0.5,0.7-0.9,1.1-1.3,1.1c-0.3,0-0.5-0.2-0.7-0.5c-0.2-0.4-0.3-0.8-0.3-1.3
			C6.4,13.4,6.4,13.3,6.6,13.3z M8.8,0.8c0.2,0,0.4,0,0.6,0.1C9.5,1,9.8,1,10.2,1h2.4c0.5,0,1.2,0,2,0.1c0.2,0,0.4-0.1,0.7-0.2
			c0.4,0,0.6,0.2,0.6,0.7c0,0,0,0.1,0,0.2c-0.1,0.2-0.1,0.4-0.1,0.8c0,0.6-0.1,1.1-0.1,1.8c0,0.4,0,0.8,0.1,1.5
			c0,0.5-0.2,0.7-0.6,0.7C14,6.5,12.9,6.5,12,6.5c-1.2,0-1.9,0-2.2,0c-0.3,0-0.6,0.1-1,0.1C8.4,6.6,8.2,6.4,8.2,6
			c0.1-0.9,0.2-1.6,0.2-2.3c0-0.6-0.1-1.3-0.2-2.2C8.2,1.1,8.4,0.8,8.8,0.8z M12,5.4c0.7,0,1.5,0,2.3,0.1c0.2,0,0.3-0.1,0.3-0.3V2.4
			c0-0.2-0.1-0.3-0.2-0.3c-1-0.1-2.5-0.1-4.5-0.1c-0.3,0-0.4,0.2-0.4,0.5c0,0.9-0.1,1.7-0.2,2.5c0,0.3,0.2,0.4,0.5,0.4
			C10.5,5.4,11.2,5.4,12,5.4z M14.7,12.7c0,0,0,0,0.1,0c0.6,0.4,1.1,0.7,1.5,0.8c0.3,0.1,0.6,0.2,1.1,0.2c0.2,0,0.2,0.1,0.2,0.3
			c0,0.3-0.1,0.6-0.4,0.9c-0.6,0.4-1,0.6-1.3,0.6c-0.1,0-0.2-0.1-0.3-0.2c-0.1-0.2-0.5-0.8-1.1-2c0-0.1-0.1-0.2-0.1-0.2
			C14.5,12.8,14.6,12.7,14.7,12.7z"/>
		<path class="st0" d="M29.5,0.3c0.3,0,0.4,0.2,0.5,0.5c0.2,0.1,0.5,0.3,0.9,0.6c3,2.3,4.9,3.6,5.7,3.9c0.5,0.2,1.1,0.3,1.7,0.3
			c0.3,0,0.4,0.1,0.4,0.4c0,0.4-0.2,0.7-0.7,1.1c-0.5,0.4-0.9,0.5-1.4,0.5c-0.3,0-0.6-0.2-0.9-0.5c-1.2-1.3-2.6-2.7-4.2-4.1
			c-0.7-0.5-1.2-1-1.8-1.2c-0.1,0-0.1-0.1-0.2-0.1c-1,1.3-2.1,2.4-3.3,3.3c-1,0.8-2.2,1.5-3.5,2.1c-0.3,0.1-0.5,0.2-0.6,0.2
			c-0.3,0-0.7-0.2-1.1-0.7c-0.3-0.3-0.5-0.6-0.5-0.9c0-0.2,0.2-0.3,0.6-0.4c1-0.1,1.7-0.2,2.2-0.4c1.2-0.3,2.3-0.9,3.3-1.7
			c1.1-0.8,2-1.8,2.7-2.8C29.2,0.4,29.3,0.3,29.5,0.3z M26.1,6.4h7.7c0.2,0,0.3,0.1,0.3,0.3c0,0.3-0.1,0.6-0.2,0.8
			c-0.2,0.2-0.4,0.3-0.7,0.3c-0.2,0-0.6-0.1-1.3-0.2c-0.5,0-1.1-0.1-1.7-0.1l0,2.9h3.1c0.2,0,0.3,0.1,0.3,0.3c0,0.3-0.1,0.6-0.2,0.8
			c-0.2,0.2-0.4,0.3-0.7,0.3c-0.2,0-0.6-0.1-1.2-0.2c-0.4,0-0.8-0.1-1.3-0.1l0,3.1c0.7,0,1.5,0,2.3,0c0.9,0,1.7,0,2.4,0
			c0.3,0,0.6,0,0.9-0.1c0.1,0,0.1,0.1,0.1,0.3c0,0.4-0.1,0.8-0.3,1.2c-0.2,0.4-0.4,0.6-0.6,0.6c-0.2,0-0.5-0.1-0.7-0.2
			c-0.9-0.4-1.8-0.7-2.6-0.8c-0.6-0.1-1.4-0.1-2.3-0.1c-1,0-1.9,0.1-2.6,0.2c-0.8,0.2-1.5,0.4-2.3,0.6c-0.2,0.1-0.4,0.1-0.6,0.1
			c-0.4,0-0.5-0.3-0.6-0.7c0-0.2,0.1-0.5,0.3-0.7c0.2-0.2,0.4-0.3,0.6-0.4c2.1-0.2,3.7-0.2,4.7-0.3l0-3.1c-1.1,0-1.9,0.1-2.4,0.2
			c-0.3,0.1-0.5,0.2-0.6,0.2c-0.4,0-0.6-0.2-0.6-0.6c0-0.2,0.1-0.4,0.3-0.6c0.2-0.1,0.4-0.2,0.7-0.2h2.6l0-2.9c-1.1,0-2,0.1-2.5,0.2
			C26,7.9,25.8,8,25.7,8c-0.4,0-0.7-0.3-0.7-0.7c0-0.2,0.1-0.4,0.3-0.6C25.5,6.4,25.7,6.4,26.1,6.4z"/>
		<path class="st0" d="M48.2,0.1c0.2,0,0.3,0.1,0.3,0.4c0,0.2-0.1,0.4-0.2,0.5c-0.8,0.3-1.5,0.5-2.1,0.7c0,0.1,0.1,0.3,0.1,0.5
			c0,1,0,1.9-0.1,2.8c0.9,0,1.5,0,2-0.1c0.2,0,0.2,0.2,0.2,0.5c0,0.2-0.1,0.3-0.2,0.5c-0.2,0.2-0.4,0.3-0.6,0.3
			c-0.4,0-0.9-0.1-1.4-0.1c0,0.1,0,0.2,0,0.3l0,1.7c0,0,0,0,0.1,0c0.1,0,0.4,0.3,1,0.8c0.6,0.5,0.9,0.9,0.9,1.1
			c0,0.4-0.2,0.6-0.6,0.6c-0.1,0-0.1-0.1-0.3-0.2c-0.5-0.4-0.9-0.8-1.1-0.9l0,6.1c0,1-0.2,1.5-0.7,1.5c-0.4,0-0.6-0.5-0.6-1.5
			c0-2.3,0-4.3,0.1-6c-0.3,0.5-0.6,0.9-1,1.3c-0.4,0.5-1,1-1.6,1.3c-0.1,0.1-0.2,0.1-0.3,0.1c-0.3,0-0.6-0.2-0.9-0.6
			c-0.3-0.3-0.4-0.6-0.4-0.9c0-0.2,0.2-0.2,0.5-0.3c0.4-0.1,0.7-0.1,0.9-0.2c0.5-0.2,1-0.5,1.4-0.9c0.4-0.4,0.8-1,1.1-1.5
			c0-0.1,0.1-0.1,0.2-0.2c0-0.4,0-0.8,0-1.2c0-0.1,0-0.2,0-0.4c-0.3,0-0.5,0-0.8,0c-0.5,0-1.2,0.1-2.2,0.3c-0.4,0-0.6-0.2-0.6-0.6
			c0-0.2,0.1-0.4,0.3-0.6C41.9,5,42,4.9,42.2,4.9L43,5c0.7,0,1.4,0,2,0c0-0.9,0-1.8-0.1-2.8c0,0,0-0.1,0-0.1
			c-0.3,0.1-0.6,0.1-0.8,0.2c-0.7,0.2-1.2,0.2-1.4,0.2c-0.3,0-0.6-0.1-0.9-0.4c-0.2-0.2-0.3-0.5-0.3-0.7c0-0.2,0.1-0.3,0.3-0.3
			c1.5,0,2.7-0.1,3.7-0.3c1-0.2,1.8-0.4,2.4-0.6C48,0.1,48.1,0.1,48.2,0.1z M51.6,4.2h5.3c0.1,0,0.2,0.1,0.2,0.2
			c0,0.3-0.1,0.5-0.2,0.7c-0.2,0.2-0.4,0.3-0.7,0.3c-0.1,0-0.4,0-0.9-0.1c-0.4,0-0.8,0-1.2,0c0,0.1-0.1,0.2-0.1,0.4
			c-0.3,0.4-0.7,0.8-1.1,1.1c0.4,0.6,0.8,1.2,1,1.8c0,0,0.1,0,0.1,0c1.2-0.6,2.1-1.1,2.8-1.7c0.1-0.1,0.2-0.1,0.2-0.1
			c0.4,0,0.6,0.3,0.6,0.8c0,0.2-0.1,0.4-0.3,0.5c-0.4,0.3-1,0.5-1.7,0.8c0.1,0.1,0.1,0.2,0.2,0.3c1.5,2.2,2.4,3.4,2.8,3.6
			c0.2,0.1,0.5,0.3,0.8,0.3c0.2,0,0.3,0.1,0.3,0.4c0,0.3-0.2,0.6-0.6,0.9c-0.4,0.3-0.8,0.4-1.2,0.4c-0.3,0-0.6-0.1-0.8-0.4
			c-0.5-1.2-1-2.5-1.6-3.8c-0.3-0.5-0.5-0.9-0.7-1.2c-0.1-0.1-0.1-0.2-0.1-0.3c-0.3,0.1-0.4,0.2-0.5,0.2c0,0,0,0.1,0,0.1
			c0.3,1.1,0.5,2.2,0.5,3.2c0,0.9-0.1,1.7-0.3,2.3c-0.3,0.6-0.6,1.2-1.1,1.6c-0.3,0.3-0.6,0.4-0.8,0.4c-0.4,0-0.7-0.1-1-0.3
			c-0.2-0.2-0.4-0.5-0.4-0.8c0-0.1,0.1-0.3,0.2-0.4c0.9-0.3,1.5-0.8,1.8-1.2c0.3-0.5,0.4-1,0.4-1.6c0-0.3,0-0.6,0-0.9
			c-0.8,0.9-1.4,1.4-1.8,1.8c-0.6,0.4-1.3,0.8-2.1,1.1c-0.2,0.1-0.4,0.1-0.5,0.1c-0.4,0-0.7-0.1-0.9-0.4c-0.2-0.2-0.3-0.4-0.3-0.7
			c0-0.2,0.1-0.3,0.2-0.3c0.9-0.1,1.6-0.3,2.1-0.5c0.5-0.2,0.9-0.4,1.3-0.7c0.5-0.3,1-0.8,1.7-1.5c0,0,0.1,0,0.1,0
			c-0.1-0.3-0.2-0.6-0.3-0.9c0-0.1-0.1-0.3-0.1-0.4c-0.6,0.7-1.1,1.2-1.5,1.4c-0.5,0.3-1,0.6-1.6,0.8c-0.1,0.1-0.3,0.1-0.4,0.1
			c-0.3,0-0.6-0.1-0.8-0.4c-0.2-0.2-0.3-0.4-0.3-0.7c0-0.2,0.1-0.3,0.2-0.3c0.7-0.1,1.2-0.2,1.7-0.3c0.4-0.1,0.7-0.3,1-0.5
			c0.4-0.2,0.8-0.5,1.3-1c0,0,0,0,0,0c-0.2-0.4-0.4-0.7-0.6-1c-0.3,0.3-0.7,0.5-1.1,0.8c-0.4,0.3-0.8,0.5-1.1,0.5
			c-0.2,0-0.4-0.1-0.7-0.4C49.1,8.1,49,7.8,49,7.6c0-0.2,0.1-0.3,0.3-0.3c0.8-0.2,1.6-0.5,2.2-0.8c0.5-0.3,1.1-0.7,1.6-1.1
			c-0.6,0-1.1,0.1-1.4,0.1c-0.2,0.1-0.4,0.1-0.5,0.1c-0.4,0-0.5-0.2-0.6-0.6c0-0.2,0.1-0.4,0.3-0.6C51.1,4.3,51.4,4.2,51.6,4.2z
			 M54,0c0.5,0,0.7,0.3,0.7,0.8c-0.1,0.4-0.1,0.7-0.2,1.1c1.4,0,2.6,0.1,3.6,0.3L58.9,2c0.3,0,0.5,0.2,0.5,0.5c0,0.1,0,0.2-0.1,0.4
			c-0.2,0.5-0.3,1.3-0.4,2.3c0,0.4-0.2,0.6-0.5,0.6c-0.3,0-0.4-0.2-0.4-0.5c0-0.6,0-1.2,0.1-1.7c0-0.1-0.1-0.1-0.2-0.2
			c-1-0.3-2.3-0.4-3.6-0.4c-1.3,0-2.5,0.1-3.6,0.3c-0.3,0-0.5,0.2-0.6,0.4l0,0.1c0,1.1-0.1,1.7-0.2,1.9c-0.1,0.2-0.2,0.3-0.5,0.3
			c-0.2,0-0.3-0.1-0.3-0.3c0-1.3-0.1-2.4-0.2-3.3c0-0.4,0.2-0.6,0.5-0.6c0.2,0,0.4,0,0.5,0.1C50.1,1.9,50.2,2,50.4,2
			c0.7-0.1,1.6-0.1,2.8-0.1c0.1,0,0.2,0,0.4,0c0-0.3-0.1-0.6-0.2-0.9C53.3,0.3,53.5,0,54,0z"/>
		<path class="st0" d="M66.9,0.1c0.3,0,0.5,0.2,0.5,0.5c0,0.2-0.1,0.4-0.2,0.6c-0.5,0.8-1,1.6-1.6,2.3c0.1,0.2,0.1,0.4,0.1,0.6
			c-0.1,1.4-0.1,2.6-0.1,3.7l0,7.7c0,1-0.2,1.5-0.7,1.5c-0.4,0-0.6-0.5-0.6-1.5c0.1-3.3,0.1-5.9,0.1-7.7c0-1,0-2-0.1-3.1
			c-0.1,0.1-0.2,0.2-0.2,0.2c-0.5,0.4-0.8,0.6-1.1,0.6c-0.3,0-0.6-0.1-0.9-0.4c-0.3-0.3-0.4-0.6-0.4-0.9c0-0.2,0.1-0.4,0.4-0.4
			c0.9-0.2,1.6-0.7,2.3-1.2c0.8-0.6,1.5-1.4,2.1-2.4C66.7,0.2,66.8,0.1,66.9,0.1z M73.2,0.9c0.3,0,0.4,0.1,0.4,0.4
			c0,0.3-0.1,0.5-0.3,0.6c-0.9,0.3-1.6,0.5-2.3,0.7l0,1.4h3c0.1,0,0.2,0.1,0.2,0.3c0,0.3-0.1,0.5-0.2,0.6c-0.2,0.2-0.4,0.3-0.7,0.3
			c-0.1,0-0.5,0-1.1-0.1c-0.4,0-0.8,0-1.3,0v1.1c0.5,0,1,0,1.6,0.1c0.2,0,0.4,0,0.6-0.1c0.4,0,0.6,0.2,0.6,0.6c0,0,0,0.1-0.1,0.1
			c-0.1,0.1-0.1,0.4-0.1,0.8c0,0.5-0.1,1-0.1,1.6c0,0.4,0,0.8,0.1,1.4c0,0.4-0.2,0.7-0.5,0.7c-0.8-0.1-1.5-0.2-2.2-0.2v1h2.2
			c0.2,0,0.2,0.1,0.2,0.4c0,0.2-0.1,0.3-0.2,0.4c-0.1,0.2-0.3,0.3-0.5,0.3c-0.4-0.1-1-0.1-1.8-0.2v1c0.9-0.1,1.6-0.2,2.1-0.3
			c0.2,0,0.2,0.1,0.2,0.4c0,0.3-0.1,0.5-0.3,0.6c-2,0.5-3.9,1-5.6,1.6c-0.4,0-0.6-0.2-0.6-0.6c0-0.3,0.1-0.6,0.2-0.7
			c0.1-0.1,0.2-0.2,0.5-0.3c0.9-0.2,1.8-0.4,2.5-0.5v-1.2c-0.1,0-0.2,0-0.3,0c-0.4,0-1,0.1-1.8,0.3c-0.4,0-0.6-0.2-0.6-0.5
			c0-0.2,0.1-0.3,0.2-0.5c0.1-0.2,0.3-0.2,0.5-0.2h2v-1c-0.8,0-1.4,0-1.6,0.1c-0.2,0-0.5,0.1-0.8,0.2c-0.3,0-0.5-0.2-0.5-0.7
			c0.1-0.8,0.1-1.5,0.1-2.1c0-0.6,0-1.2-0.1-2C67,6.2,67.1,6,67.5,6c0.2,0,0.3,0,0.5,0c0.2,0,0.4,0,0.8,0h1.1V5
			c-1,0-1.8,0.1-2.3,0.2C67.2,5.3,67,5.4,67,5.4c-0.4,0-0.5-0.3-0.6-0.7c0-0.2,0.1-0.4,0.3-0.6c0.2-0.1,0.4-0.2,0.7-0.2h2.5l0-1.1
			c-0.1,0-0.3,0.1-0.4,0.1c-0.7,0.1-1.1,0.2-1.3,0.2c-0.3,0-0.6-0.1-0.8-0.4C67,2.5,67,2.3,67,2.1c0-0.2,0.1-0.3,0.3-0.3
			c1.4,0,2.5-0.1,3.4-0.3c0.9-0.1,1.6-0.3,2.3-0.5C73,0.9,73.1,0.9,73.2,0.9z M69.9,10.2l0-1.1c-0.6,0-1.2,0.1-1.6,0.1
			c0,0-0.1,0-0.1,0c0,0.2-0.1,0.4-0.1,0.6c0,0.3,0.1,0.5,0.4,0.5C68.9,10.3,69.3,10.2,69.9,10.2z M68.2,8.2
			C68.2,8.2,68.3,8.2,68.2,8.2h1.6v-1c-0.4,0-0.8,0-1.3,0c-0.2,0-0.3,0.1-0.3,0.4C68.2,7.7,68.2,8,68.2,8.2z M70.9,9.1l0,1.1
			c0.4,0,0.9,0,1.3,0.1c0.2,0,0.3-0.1,0.3-0.4V9.1c0,0-0.1,0-0.1,0C71.9,9.1,71.4,9.1,70.9,9.1z M70.9,7.2l0,1h1.5
			c0.1,0,0.1,0,0.2,0V7.4c0-0.1-0.1-0.2-0.2-0.2C72,7.2,71.5,7.2,70.9,7.2z M76.5,5.4c0.2-1.5,0.3-2.9,0.3-4.1
			c0-0.4,0.2-0.6,0.5-0.6c0.4,0,0.6,0.2,0.7,0.7c0,0.1,0,0.4-0.1,0.9c-0.1,1.2-0.2,2.2-0.3,3.2h1.7c0.1,0,0.3-0.1,0.7-0.2
			c0.4,0,0.6,0.2,0.6,0.7c-0.2,1.8-0.4,3.6-0.5,5.3c-0.1,2.4-0.4,4-0.9,4.8c-0.4,0.7-1,1.1-1.6,1.1c-0.3,0-0.6-0.2-0.8-0.5
			c-0.1-0.3-0.2-0.6-0.2-0.8c0-0.3,0.1-0.4,0.3-0.5c0.8-0.1,1.4-0.4,1.6-0.9c0.3-0.5,0.5-2.1,0.7-4.7c0.1-1.6,0.1-2.6,0.1-2.9
			c0-0.2-0.1-0.4-0.2-0.4h-1.6h0c-0.1,1.2-0.3,2.1-0.4,2.9c-0.3,1.5-0.6,3-1.1,4.3c-0.4,1.1-0.9,2.1-1.6,2.9
			c-0.2,0.3-0.5,0.5-0.7,0.5c-0.2,0-0.4-0.1-0.6-0.4c-0.2-0.3-0.3-0.5-0.3-0.8c0-0.2,0.1-0.3,0.2-0.4c0.6-0.4,1.1-0.8,1.5-1.5
			c0.5-0.8,0.9-2,1.3-3.6c0.3-1.2,0.5-2.5,0.7-4c-0.3,0-0.6,0.1-0.9,0.1c-0.3,0.1-0.6,0.2-0.7,0.2c-0.3,0-0.5-0.2-0.5-0.5
			c0-0.5,0.2-0.9,0.6-0.9C75.2,5.4,75.7,5.4,76.5,5.4z"/>
		<path class="st0" d="M96.6,13.1c0,0.6-0.1,1.1-0.4,1.5c-0.3,0.4-0.7,0.7-1.1,0.8c-0.8,0.2-2.2,0.3-4.4,0.3c-4,0-6-1-6-3.1
			c0-1,0.4-1.9,1.1-2.8c0.1-0.2,0.8-0.9,2.1-2.1c-0.1-1-0.2-1.8-0.2-2.6V2.9c0-1.5,0.2-2.3,0.7-2.3c0.5,0,0.7,0.3,0.7,0.9
			C89,1.6,89,1.8,89,2c-0.1,0.3-0.1,0.5-0.1,0.6c-0.1,0.7-0.1,1.6-0.1,2.7c0,0.5,0,1.1,0.1,1.5c2-1.7,3.2-2.6,3.5-2.6
			c0.3,0,0.4,0.1,0.5,0.3C93,4.7,93.1,4.8,93.2,5c0,0.4-0.3,0.7-0.7,1c-0.9,0.5-1.8,1.1-2.7,1.6c-1.3,0.8-2.3,1.6-3,2.3
			c-0.9,0.9-1.4,1.8-1.4,2.7c0,1.1,0.9,1.7,2.6,1.7c1.1,0,2.5-0.1,4-0.3c1.3-0.2,2.4-0.5,3.3-0.8c0.4-0.2,0.7-0.2,0.9-0.2
			C96.5,12.8,96.6,12.9,96.6,13.1z"/>
		<path class="st0" d="M100.5,2.9c0.4,0,0.6,0.3,0.6,0.8c-0.1,0.6-0.1,1.2-0.1,1.7v2.8c0,0.9-0.2,1.4-0.6,1.4
			c-0.4,0-0.6-0.5-0.6-1.4c0.1-1.2,0.1-2.1,0.1-2.8c0-0.5,0-1.1-0.1-1.7C99.8,3.2,100,2.9,100.5,2.9z M102.8,0
			c0.4,0,0.6,0.3,0.6,0.9c-0.1,1.7-0.1,3.3-0.1,4.7l0.1,10.1c0,1-0.2,1.5-0.7,1.5c-0.4,0-0.6-0.5-0.6-1.5c0.1-4.3,0.1-7.7,0.1-10.1
			c0-1.4,0-3-0.1-4.7C102.2,0.3,102.4,0,102.8,0z M105.2,1.1c0.5,0,0.7,0.2,0.7,0.7l-1.1,2.4c-0.1,0.2-0.2,0.4-0.5,0.4
			c-0.3,0-0.4-0.2-0.4-0.5l0.7-2.5C104.7,1.3,104.9,1.1,105.2,1.1z M111.2,0c0.5,0,0.7,0.2,0.7,0.7l0,0.7h3.7c0.1,0,0.2,0.1,0.2,0.3
			c0,0.3-0.1,0.5-0.2,0.7c-0.2,0.2-0.4,0.3-0.7,0.3c-0.2,0-0.7,0-1.4-0.1c-0.5,0-1.1,0-1.7,0l0,1.2h3.2c0.1,0,0.2,0.1,0.2,0.3
			c0,0.3-0.1,0.5-0.2,0.7c-0.2,0.2-0.4,0.3-0.7,0.3c-0.2,0-0.5,0-1.1-0.1c-0.5,0-0.9,0-1.4,0l0,1.1c0.7,0,1.4,0.1,2.2,0.2
			c0.9,0.1,1.7,0.1,2.3,0.1c0.4,0,0.8,0,1.3-0.1c0.1,0,0.2,0.2,0.2,0.5c0,0.4-0.1,0.9-0.4,1.4c-0.2,0.4-0.4,0.6-0.5,0.6
			c-0.3,0-0.6-0.1-1-0.4c-0.7-0.4-1.4-0.8-2.1-0.9c-0.8-0.2-1.8-0.3-2.8-0.3c-1,0-2,0.1-2.9,0.2c-0.6,0.1-1.4,0.5-2.6,1.3
			c-0.4,0-0.6-0.2-0.6-0.6c0-0.3,0.1-0.5,0.3-0.7c0.2-0.3,0.5-0.5,0.9-0.5c2-0.5,3.6-0.8,4.7-0.8l0-1.1c-1,0-1.7,0.1-2.1,0.2
			c-0.3,0.1-0.5,0.2-0.6,0.2c-0.3,0-0.5-0.2-0.6-0.6c0-0.2,0.1-0.4,0.3-0.6c0.2-0.1,0.4-0.2,0.7-0.2h2.3l0-1.2
			c-1.2,0-2.1,0.1-2.6,0.2c-0.4,0.1-0.6,0.2-0.7,0.2c-0.3,0-0.5-0.2-0.6-0.6c0-0.2,0.1-0.4,0.3-0.6c0.2-0.1,0.4-0.2,0.7-0.2h2.9
			l0-0.7C110.6,0.2,110.8,0,111.2,0z M108.3,8.1c0.2,0,0.3,0,0.4,0.1l4.3,0.1c0.2,0,0.5-0.1,0.9-0.2c0.5,0,0.7,0.2,0.7,0.6
			c-0.2,1-0.3,2.2-0.3,3.6c0,0.9,0.1,2.2,0.2,3.9c0,0.6-0.2,0.9-0.7,0.9c-0.2,0-0.3-0.1-0.4-0.3c-0.1-0.3-0.1-0.7-0.1-1.2
			c0-0.5,0-1,0-1.4c-1.8,0-3.3,0.1-4.3,0.2c-0.1,0-0.1,0-0.2,0c-0.1,0.6-0.3,1-0.5,1.3c-0.5,0.8-1,1.2-1.4,1.2c-0.3,0-0.7-0.2-1-0.6
			c-0.2-0.3-0.3-0.5-0.3-0.7c0-0.1,0.1-0.2,0.2-0.2c0.7-0.1,1.2-0.4,1.6-1.2c0.3-0.5,0.4-1.5,0.4-3c0-0.8-0.1-1.6-0.2-2.5
			C107.8,8.3,108,8.1,108.3,8.1z M109,13.3c0,0,0.1,0,0.1,0h4.2c0-0.6,0-1.2,0-1.7c-1.8,0-3.2,0.1-4.2,0.2c0,0-0.1,0-0.1,0
			C109,12.4,109,12.9,109,13.3z M109,10.7c0.1,0,0.1,0,0.2,0h4.1c0,0,0.1,0,0.1,0c0-0.5,0.1-0.9,0.1-1.3c0-0.2-0.2-0.3-0.5-0.3
			c-1.4,0-2.7,0-3.9,0.1C109,9.8,109,10.3,109,10.7z"/>
		<path class="st0" d="M123.3,6.5c0.4,0,0.7,0.2,0.7,0.6l-0.1,1.3c1,0,1.8,0,2.5,0l0.1-1.5c0.1-0.3,0.3-0.5,0.6-0.5
			c0.4,0,0.6,0.2,0.6,0.6l-0.5,1.3c1,0,1.8,0,2.4,0c0.2,0,0.2,0.2,0.2,0.5c0,0.2-0.1,0.4-0.2,0.5c-0.2,0.2-0.4,0.4-0.6,0.4
			c-0.8,0-1.8-0.1-3.1-0.1c0,0.1,0,0.2,0,0.3c0,0.7-0.1,1.3-0.1,1.8h2.9c0.2,0,0.3,0.1,0.3,0.3c0,0.3-0.1,0.6-0.2,0.8
			c-0.2,0.2-0.4,0.3-0.7,0.3c-0.1,0-0.5-0.1-1.1-0.2c-0.4,0-0.7-0.1-1.1-0.1l0.1,2.7c0,1-0.2,1.5-0.7,1.5c-0.4,0-0.6-0.5-0.6-1.5
			c0-1.1,0.1-2,0.1-2.7c-1,0-1.7,0.1-2.2,0.3c-0.3,0.1-0.5,0.2-0.6,0.2c-0.4,0-0.7-0.3-0.7-0.7c0-0.2,0.1-0.4,0.3-0.6
			c0.2-0.1,0.4-0.2,0.8-0.2h2.4c0-0.5,0-1.1-0.1-1.8c0-0.1,0-0.2,0-0.3c-0.5,0-1,0-1.6,0c-0.5,0-1.2,0.1-2.2,0.3
			c-0.4,0-0.6-0.2-0.6-0.6c0-0.2,0.1-0.4,0.3-0.6c0.2-0.2,0.3-0.3,0.5-0.3l0.8,0.1c0.5,0,1,0,1.4,0c0-0.1,0-0.1,0-0.2L122.8,7
			C122.8,6.7,122.9,6.5,123.3,6.5z M122.2,1.5l0.8,0.1c0.6,0,1.1,0,1.6,0l0-0.8c0-0.5,0.2-0.7,0.6-0.7c0.5,0,0.7,0.2,0.7,0.7l0,0.8
			c1.1,0,2,0,2.5-0.1c0.2,0,0.2,0.2,0.2,0.5c0,0.2-0.1,0.3-0.2,0.5c-0.2,0.2-0.4,0.3-0.6,0.3c-0.5,0-1.1-0.1-2-0.1l-0.1,1.9h3.2
			c0.2,0,0.3,0.1,0.3,0.3c0,0.3-0.1,0.6-0.2,0.8c-0.2,0.2-0.4,0.3-0.7,0.3c-0.2,0-0.6-0.1-1.3-0.2c-0.7,0-1.4-0.1-2.2-0.1
			c-1.3,0-2.3,0.1-2.9,0.2c-0.3,0.1-0.6,0.2-0.7,0.2c-0.4,0-0.6-0.2-0.7-0.6c0-0.2,0.1-0.5,0.3-0.6c0.2-0.1,0.4-0.2,0.7-0.2h3
			l-0.1-2c-0.1,0-0.3,0-0.5,0c-0.5,0-1.2,0.1-2.1,0.3c-0.4,0-0.6-0.2-0.6-0.6c0-0.2,0.1-0.4,0.2-0.7C121.8,1.6,122,1.5,122.2,1.5z
			 M130.9,0.6c0.2,0,0.4,0.1,0.5,0.2c0.1,0,0.1,0,0.2,0h1.5c0.7,0,1.5,0,2.2,0.1c0.3-0.2,0.6-0.3,0.7-0.3c0.4,0,0.6,0.3,0.6,0.8
			c0,0.1,0,0.2-0.1,0.4c-0.1,0.3-0.1,1.2-0.1,2.8c0,0.7-0.2,1.3-0.7,1.8c-0.6,0.5-1.1,0.7-1.5,0.7c-0.3,0-0.6-0.2-0.8-0.5
			c-0.2-0.3-0.3-0.5-0.3-0.8c0-0.1,0.1-0.2,0.3-0.3c0.9-0.2,1.4-0.4,1.6-0.6c0.2-0.2,0.3-0.5,0.3-1c0-0.6,0-1.2,0-1.8
			c0-0.2-0.1-0.3-0.4-0.3c-1.2,0-2.2,0.1-2.9,0.2c-0.2,0.1-0.3,0.1-0.4,0.1c0,1.4-0.1,2.6-0.1,3.7l0.1,9.4c0,1-0.2,1.5-0.7,1.5
			c-0.4,0-0.6-0.5-0.6-1.5c0.1-4,0.1-7.2,0.1-9.4c0-1.3,0-2.8-0.1-4.5C130.2,1,130.5,0.6,130.9,0.6z M132.9,8.2c1.1,0,2.2,0,3.2,0.1
			c0.1,0,0.1,0,0.2-0.1c0.1-0.1,0.2-0.1,0.2-0.1c0.3,0,0.4,0.2,0.4,0.6c0,0.2,0,0.3-0.1,0.5c-0.1,0.3-0.3,0.7-0.5,1.2
			c-0.4,1.1-0.7,2-1,2.8c0.7,0.6,1.3,1,1.8,1.2c0.5,0.3,1,0.4,1.3,0.4c0.1,0,0.2,0.1,0.2,0.2c0,0.4-0.2,0.9-0.6,1.4
			c-0.3,0.3-0.5,0.4-0.8,0.4c-0.1,0-0.3-0.1-0.4-0.2c-0.2-0.2-0.8-0.7-1.6-1.8c-0.1-0.2-0.3-0.3-0.4-0.5c-0.4,0.6-0.8,1.1-1.1,1.4
			c-0.4,0.4-0.8,0.6-1,0.6c-0.3,0-0.5-0.2-0.7-0.4c-0.2-0.2-0.3-0.4-0.3-0.6c0-0.2,0.1-0.4,0.3-0.4c0.9-0.5,1.6-1,2-1.6
			c-0.3-0.3-0.5-0.6-0.7-0.7c-0.3-0.3-0.6-0.4-0.9-0.6c-0.3-0.1-0.5-0.3-0.5-0.6c0-0.4,0.2-0.6,0.5-0.7c0.1,0,0.2,0.1,0.4,0.2
			c0.7,0.5,1.3,1,1.8,1.4c0.3-0.6,0.6-1.4,1-2.4c0.1-0.3,0.2-0.6,0.2-0.7c0-0.1-0.1-0.2-0.2-0.2c-0.7,0-1.5,0-2.2,0.1
			c-0.5,0.1-0.8,0.1-0.9,0.1c-0.3,0-0.4-0.2-0.4-0.5c0-0.2,0.1-0.4,0.3-0.6C132.4,8.3,132.6,8.2,132.9,8.2z"/>
		<path class="st0" d="M144.7,0.5c0.8,0,1.7,0.1,2.5,0.2c0.2,0,0.4,0,0.7-0.1c0.4,0,0.6,0.2,0.6,0.6c0,0.1-0.1,0.3-0.3,0.4
			c-0.4,0.5-0.8,1.1-1.2,1.5c-0.6,0.9-1.4,1.8-2.3,2.7c-0.9,0.8-1.7,1.5-2.6,2c-0.3,0.2-0.6,0.3-0.8,0.3c-0.3,0-0.7-0.2-1-0.6
			C140.2,7.3,140,7,140,6.7c0-0.2,0.1-0.4,0.3-0.4c1.2-0.1,2.4-0.7,3.6-1.6c0.1-0.1,0.2-0.1,0.2-0.2c0,0,0,0-0.1,0
			c-0.5-0.4-1-0.7-1.2-0.8c-0.2-0.1-0.4-0.2-0.4-0.3c0-0.5,0.2-0.8,0.7-0.8c0.1,0,0.4,0.2,0.9,0.6c0.4,0.3,0.7,0.5,0.7,0.7
			c0.6-0.6,1.1-1.2,1.7-1.9c0.2-0.2,0.3-0.3,0.3-0.4c0-0.1-0.1-0.2-0.2-0.2c-0.7,0-1.5,0.1-2.4,0.3c-0.3,0-0.5-0.2-0.5-0.6
			c0-0.2,0.1-0.4,0.2-0.6C144.1,0.6,144.3,0.5,144.7,0.5z M145.9,5.9h7.3c0.2,0,0.3,0.1,0.3,0.3c0,0.3-0.1,0.6-0.2,0.8
			c-0.2,0.2-0.4,0.3-0.7,0.3c-0.2,0-0.6-0.1-1.2-0.2c0,0.1,0,0.2,0,0.3c0,0.8,0,1.8,0,2.8h3.7c0.2,0,0.3,0.1,0.3,0.3
			c0,0.3-0.1,0.6-0.2,0.8c-0.2,0.2-0.4,0.3-0.7,0.3c-0.3,0-0.9-0.1-2-0.2c-0.3,0-0.7,0-1,0c0,0.9,0,1.9,0,3c0,0.2,0.1,0.3,0.2,0.3
			c0.2,0,0.7,0,1.6,0c1.3,0,2.5-0.2,3.5-0.5c0.2,0,0.2,0.2,0.2,0.5c0,0.4-0.1,0.9-0.4,1.4c-0.3,0.6-0.5,0.9-0.8,0.9
			c-0.2,0-1.8-0.2-4.9-0.7c-0.5-0.1-0.7-0.4-0.7-0.9c0.1-1.7,0.1-3,0.1-4c-0.4,0-0.9,0-1.4,0c-0.4,0-0.7,0-1.1,0
			c-0.1,0.6-0.2,1.1-0.4,1.5c-0.4,1.2-1,2.1-1.6,2.7c-0.8,0.9-1.6,1.3-2.3,1.3c-0.2,0-0.4-0.1-0.6-0.3c-0.3-0.4-0.5-0.7-0.5-1.1
			c0-0.2,0.1-0.3,0.4-0.4c0.7-0.1,1.4-0.4,1.8-0.7c0.8-0.4,1.4-1.2,1.9-2.6c0.1-0.2,0.1-0.4,0.2-0.6c-0.9,0-1.6,0.1-2.2,0.2
			c-0.5,0.1-0.9,0.2-1,0.2c-0.4,0-0.7-0.3-0.7-0.7c0-0.2,0.1-0.4,0.3-0.6c0.2-0.1,0.4-0.2,0.8-0.2h3c0.1-0.6,0.1-1.3,0.1-2v-1
			c0,0,0-0.1,0-0.1c-0.3,0-0.6,0-0.8,0.1c-0.3,0.1-0.6,0.2-0.7,0.2c-0.4,0-0.6-0.3-0.7-0.7c0-0.2,0.1-0.4,0.3-0.6
			C145.4,6,145.6,5.9,145.9,5.9z M150.2,10.2c0-0.9,0-1.9-0.1-3c0-0.1,0-0.1,0-0.2c-0.4,0-0.7,0-1.1,0c-0.4,0-0.7,0-1,0
			c0,0.1,0,0.2,0,0.3C148.1,8,148,8.7,148,9.6c0,0.2,0,0.4,0,0.6H150.2z M153.2,0.2c0.3,0,0.5,0.2,0.5,0.7c0,0.3-0.1,0.5-0.3,0.6
			l-1.2,1c0.4,0.4,0.8,0.8,1.2,1.1c0,0,0-0.1,0.1-0.1l1.4-1.4c0.2-0.1,0.3-0.2,0.4-0.2c0.3,0,0.5,0.2,0.5,0.7c0,0.3-0.1,0.5-0.3,0.6
			l-1.5,0.9c1.2,1.1,2,1.8,2.5,2c0.4,0.2,1,0.3,1.6,0.4c0.3,0,0.4,0.1,0.4,0.4c0,0.3-0.2,0.7-0.7,1c-0.4,0.3-0.9,0.5-1.4,0.5
			c-0.3,0-0.6-0.1-0.9-0.4c-1.1-1.6-2.4-3.1-3.8-4.7c-0.6-0.6-1.1-1.1-1.6-1.4c-0.2-0.1-0.4-0.4-0.4-0.6c0-0.4,0.2-0.6,0.6-0.6
			c0.2,0,0.5,0.3,1,0.8c0.2,0.2,0.4,0.3,0.5,0.5c0,0,0-0.1,0-0.1l1.2-1.5C153,0.3,153.1,0.2,153.2,0.2z"/>
		<path class="st0" d="M165.9,0c0.3,0,0.5,0.2,0.5,0.5c0,0.2-0.1,0.4-0.2,0.6c-0.5,0.7-1,1.4-1.5,2.1c0.1,0.2,0.2,0.4,0.2,0.7
			c-0.1,1.4-0.1,2.7-0.1,3.8l-0.1,7.8c0,1-0.2,1.5-0.7,1.5c-0.4,0-0.6-0.5-0.6-1.5c0.1-3.4,0.2-6,0.2-7.8c0-1,0-2.1,0-3.4
			c-0.2,0.2-0.5,0.5-0.7,0.7c-0.5,0.4-0.9,0.7-1.2,0.7c-0.3,0-0.6-0.1-0.9-0.4c-0.3-0.3-0.5-0.6-0.5-0.9c0-0.2,0.1-0.4,0.4-0.4
			c0.9-0.3,1.8-0.7,2.5-1.3c0.8-0.6,1.6-1.4,2.3-2.5C165.7,0.1,165.8,0,165.9,0z M171.4,3.8c0.9,0,2,0.1,3.2,0.2
			c0.9,0.1,1.7,0.1,2.4,0.1c0.4,0,1,0,1.6-0.1c0.1,0,0.2,0.2,0.2,0.5c0,0.5-0.2,1-0.5,1.5c-0.3,0.4-0.5,0.6-0.7,0.6
			c-0.3,0-0.6-0.1-1.1-0.4c-0.7-0.4-1.4-0.8-2.2-0.9c-0.9-0.2-1.8-0.3-2.9-0.3c-0.9,0-1.8,0.1-2.6,0.2c-0.5,0.1-1.3,0.4-2.3,1
			c-0.5,0-0.7-0.2-0.7-0.6c0-0.3,0.1-0.5,0.3-0.7c0.2-0.3,0.6-0.5,1-0.5C168.9,4,170.4,3.8,171.4,3.8z M168.7,11.5
			c0.2,0,0.4,0,0.6,0.1c0.2,0,0.5,0.1,0.9,0.1h2.1c0.5,0,1,0,1.7,0.1c0.2,0,0.4-0.1,0.7-0.2c0.4,0,0.6,0.2,0.6,0.7c0,0,0,0.1,0,0.1
			c-0.1,0.1-0.1,0.4-0.1,0.8c0,0.5-0.1,1-0.1,1.6c0,0.3,0,0.7,0.1,1.2c0,0.5-0.2,0.7-0.6,0.7c-1-0.1-1.9-0.2-2.7-0.2
			c-1.1,0-1.9,0-2.2,0c-0.3,0-0.6,0.1-0.9,0.1c-0.4,0-0.6-0.2-0.6-0.6c0.1-0.8,0.2-1.5,0.2-2c0-0.5-0.1-1.2-0.2-1.9
			C168.1,11.8,168.3,11.5,168.7,11.5z M169.2,6.6h5.2c0.4,0,0.6,0.2,0.6,0.6c0,0.3-0.2,0.5-0.6,0.5c-2.3,0-4.1,0.1-5.3,0.2
			c-0.4,0-0.6-0.2-0.6-0.6C168.4,6.9,168.6,6.6,169.2,6.6z M169.2,9h5.2c0.4,0,0.6,0.2,0.6,0.6c0,0.3-0.2,0.5-0.6,0.5
			c-2.3,0-4.1,0.1-5.3,0.2c-0.4,0-0.6-0.2-0.6-0.6C168.4,9.2,168.6,9,169.2,9z M169.6,1.1h5.3c0.1,0,0.2,0.1,0.2,0.3
			c0,0.2-0.1,0.5-0.2,0.6c-0.2,0.2-0.4,0.3-0.7,0.3c-0.1,0-0.4,0-0.9-0.1c-0.5,0-1,0-1.6,0c-1,0-1.7,0.1-2.2,0.2
			c-0.3,0.1-0.4,0.2-0.5,0.2c-0.4,0-0.6-0.2-0.6-0.6c0-0.2,0.1-0.4,0.3-0.6C169,1.2,169.3,1.1,169.6,1.1z M171.8,15.5
			c0.5,0,1.2,0,1.8,0.1c0.2,0,0.3-0.1,0.3-0.3v-2.2c0-0.2,0-0.3-0.1-0.3c-0.9-0.1-2.2-0.1-3.9-0.1c-0.3,0-0.4,0.2-0.4,0.5
			c0,0.7-0.1,1.3-0.2,2c0,0.3,0.2,0.4,0.5,0.4C170.4,15.5,171,15.5,171.8,15.5z"/>
		<path class="st0" d="M195.4,6c0,0.3-0.3,0.6-0.8,1c-1.2,0.9-2.9,2-5.1,3.4c0,0.1,0,0.4,0,0.8c0,0.3,0,0.6,0,0.8
			c0,0.5-0.2,0.7-0.7,0.7c-0.3,0-0.4-0.2-0.5-0.6c0-0.1,0-0.4,0-1c-0.8,0.5-1.4,0.8-1.7,1.1c-0.7,0.6-1.1,1.1-1.1,1.7
			c0,0.4,0.3,0.6,1,0.8c0.5,0.1,1,0.2,1.5,0.2c1.5,0,2.8-0.3,4-0.8c0.9-0.4,1.4-0.6,1.4-0.6c0.1,0,0.2,0.1,0.2,0.4
			c0,0.5-0.1,1-0.4,1.5c-0.2,0.4-0.7,0.6-1.6,0.8c-0.7,0.1-1.4,0.1-2.3,0.1c-1.1,0-2.1-0.1-2.9-0.4c-1.3-0.4-1.9-1.1-1.9-2
			c0-0.8,0.5-1.6,1.4-2.4c0.1-0.2,0.9-0.7,2.2-1.7c0-0.9-0.1-1.4-0.1-1.6c-0.1-0.6-0.5-0.9-1.1-0.9c-0.7,0-1.4,0.2-1.9,0.5
			c-0.2,0.1-0.8,0.6-1.7,1.4c-0.1,0.1-0.2,0.2-0.4,0.3c-0.4,0-0.6-0.3-0.6-0.9c0-0.4,0.4-0.9,1.2-1.4c1.1-0.8,2.1-1.8,3-3.2
			c-0.4,0.1-1.1,0.2-2,0.3c0,0-0.3,0.1-0.8,0.2c-0.4,0.1-0.6,0.2-0.8,0.2c-0.3,0-0.5-0.2-0.5-0.7c0-0.6,0.4-0.9,1.2-1
			c0.7,0,1.9-0.1,3.3-0.1c0.1-0.3,0.4-0.9,0.8-1.9c0.2-0.5,0.4-0.7,0.8-0.7c0.5,0,0.7,0.2,0.7,0.7c0,0.2-0.3,0.8-0.9,1.9
			c0.4,0,1.1,0,1.9,0c0.9,0,1.5,0,1.9,0c0.1,0,0.3,0,0.5,0c0.2,0,0.4-0.1,0.5-0.1c0.1,0,0.2,0.1,0.2,0.2c0,0.3-0.2,0.6-0.4,1
			c-0.3,0.4-0.5,0.6-0.8,0.6s-0.5-0.1-0.8-0.2c-0.3-0.1-0.5-0.1-0.8-0.2c-0.6-0.2-1.6-0.3-2.8-0.3c-0.6,1-1.3,1.9-1.9,2.6
			c0.5-0.1,1-0.1,1.4-0.1c1.1,0,1.8,0.8,1.8,2.3c0,0.2,0,0.3,0.1,0.4c1.8-1.3,3.3-2.4,4.4-3.3c0.4-0.3,0.7-0.4,0.9-0.4
			C195.2,5.3,195.4,5.5,195.4,6z"/>
		<path class="st0" d="M207.7,1.1c1.3,0,2.8,0.1,4.4,0.4c1.3,0.2,2.5,0.2,3.6,0.2c0.3,0,0.6,0,1-0.1c0.1,0,0.1,0.1,0.1,0.3
			c0,0.4-0.1,0.9-0.3,1.3C216.2,3.8,216,4,215.8,4c-0.3,0-0.7-0.1-1-0.3c-1.3-0.6-2.6-1-3.8-1.2c-0.8-0.1-1.7-0.2-2.7-0.2l0,3.7
			l4.3,0c0.2,0,0.5-0.1,1-0.2c0.5,0,0.8,0.2,0.8,0.6c-0.3,1.2-0.4,2.7-0.4,4.5c0,1.2,0.1,2.9,0.2,5c0,0.6-0.2,0.9-0.7,0.9
			c-0.2,0-0.3-0.1-0.4-0.4c-0.1-0.3-0.1-0.7-0.1-1.2c0-3.5,0.1-6.1,0.2-8.1c0-0.1-0.2-0.2-0.6-0.2c-1.5,0-2.9,0-4.3,0l0,5
			c0.5,0,1.1,0,1.7,0.1c0.2,0,0.3-0.1,0.3-0.4c-0.1-0.4-0.1-1.1-0.1-2c0-0.8,0.2-1.2,0.6-1.2c0.4,0,0.6,0.3,0.6,0.9
			c-0.1,0.7-0.1,1.3-0.1,1.9c0,0.6,0.1,1,0.1,1.2c0,0.5-0.2,0.7-0.6,0.7c-0.6-0.1-1.6-0.2-2.9-0.2c-1,0-2,0.1-2.9,0.4
			c-0.4,0-0.6-0.3-0.6-0.8c0.1-0.4,0.1-0.8,0.1-1.2c0-0.5-0.1-1.3-0.2-2.4c0-0.4,0.2-0.6,0.6-0.6c0.4,0,0.7,0.2,0.7,0.7
			c0.1,0.4,0.1,1.3,0.1,2.6c0,0.3,0.1,0.4,0.3,0.4c0.4-0.1,0.9-0.1,1.3-0.2l0-5.1c-1.6,0-3,0-4.4,0v4.5c0,0.9-0.1,1.8-0.2,2.4
			s-0.4,1.2-0.8,1.7c-0.3,0.4-0.6,0.6-0.9,0.6c-0.3,0-0.6-0.2-0.9-0.5c-0.4-0.4-0.6-0.6-0.6-0.8c0-0.2,0.1-0.3,0.3-0.4
			c0.6-0.2,1.1-0.7,1.4-1.3c0.3-0.6,0.5-1.9,0.5-3.9c0-1-0.1-2-0.2-3.1c0-0.4,0.2-0.6,0.6-0.6c0.3,0,0.5,0.1,0.6,0.2l4.6,0l0-3.7
			c-1.2,0-2.3,0.1-3.2,0.3c-1.2,0.3-2.3,0.7-3.4,1.2C200,4,199.8,4,199.5,4c-0.4,0-0.6-0.3-0.6-0.8c0-0.3,0.1-0.5,0.3-0.7
			c0.2-0.2,0.4-0.3,0.7-0.4C203.6,1.4,206.2,1.1,207.7,1.1z"/>
		<path class="st0" d="M220.5,2h2.5c0-0.3,0-0.7,0-1c0-0.6,0.2-0.8,0.6-0.8c0.4,0,0.6,0.3,0.6,0.8c0,0.4,0,0.7,0,1h2.8
			c0.2,0,0.3,0.1,0.3,0.3c0,0.3-0.1,0.6-0.2,0.8c-0.2,0.2-0.4,0.3-0.7,0.3c-0.1,0-0.5-0.1-1.1-0.2c-0.3,0-0.7,0-1,0
			c0,0.5,0,1.1,0,1.6c0.4,0,0.9,0,1.5,0.1c0.2,0,0.4,0,0.6-0.1c0.4,0,0.6,0.2,0.6,0.7c0,0,0,0.1,0,0.2c-0.1,0.2-0.1,0.5-0.1,1
			c0,0.6-0.1,1.3-0.1,2c0,0.5,0,1.1,0.1,1.9c0,0.4-0.2,0.6-0.5,0.6c-0.7-0.1-1.4-0.2-2-0.2l0,1.7h2.7c0.2,0,0.3,0.1,0.3,0.3
			c0,0.3-0.1,0.6-0.2,0.8c-0.2,0.2-0.4,0.3-0.7,0.3c-0.2,0-0.5-0.1-1.1-0.2c-0.3,0-0.6-0.1-0.9-0.1l0,1.9c0,0.9-0.2,1.4-0.6,1.4
			c-0.4,0-0.6-0.5-0.6-1.4c0-0.7,0-1.3,0-1.9c-1.2,0-2.1,0.1-2.6,0.2c-0.3,0.1-0.5,0.2-0.6,0.2c-0.4,0-0.6-0.2-0.6-0.6
			c0-0.2,0.1-0.4,0.3-0.6c0.2-0.1,0.4-0.2,0.7-0.2h2.8c0-0.6,0-1.2,0-1.7c-0.8,0-1.3,0-1.5,0.1c-0.2,0-0.5,0.1-0.9,0.2
			c-0.3,0-0.5-0.2-0.5-0.6c0.1-1,0.2-1.9,0.2-2.7c0-0.7-0.1-1.6-0.2-2.7c0-0.4,0.2-0.6,0.6-0.6c0.2,0,0.3,0,0.5,0c0.2,0,0.4,0,0.8,0
			h1c0-0.5,0-1,0-1.6c-1.1,0-1.9,0.1-2.3,0.2c-0.3,0.1-0.5,0.2-0.6,0.2c-0.4,0-0.6-0.3-0.7-0.7c0-0.2,0.1-0.4,0.3-0.6
			C219.9,2,220.2,2,220.5,2z M223,10c0-0.6,0-1.2,0-1.7c-0.6,0-1.2,0.1-1.6,0.1c0,0.4-0.1,0.8-0.1,1.2c0,0.3,0.1,0.5,0.4,0.5
			C222.1,10.1,222.5,10,223,10z M221.4,7.4c0,0,0.1,0,0.1,0h1.5c0-0.6,0-1.2,0-1.7c-0.4,0-0.8,0-1.3,0c-0.2,0-0.3,0.1-0.3,0.4
			C221.4,6.5,221.4,7,221.4,7.4z M224,5.8v1.7h1.5V6c0-0.1-0.1-0.2-0.2-0.2C225,5.8,224.6,5.8,224,5.8z M224.1,8.3v1.8
			c0.4,0,0.8,0,1.2,0.1c0.2,0,0.3-0.1,0.3-0.4V8.3C225,8.3,224.5,8.3,224.1,8.3z M228.5,8.2c0.1,0,0.3,0,0.3,0.1l6.3,0.1
			c0.2,0,0.5-0.1,0.9-0.2c0.5,0,0.7,0.2,0.7,0.6c-0.2,0.9-0.3,2-0.3,3.4c0,0.8,0.1,2,0.2,3.5c0,0.6-0.2,0.9-0.6,0.9
			c-0.2,0-0.3-0.1-0.4-0.3c-0.1-0.3-0.1-0.7-0.1-1.2c0-0.8,0-1.5,0-2.2h0c-0.6,0-1.1,0-1.6,0l0.1,2c0,0.8-0.2,1.2-0.6,1.2
			c-0.3,0-0.5-0.4-0.5-1.2c0-0.8,0-1.4,0-2c-0.5,0-0.9,0-1.3,0l0.1,2c0,0.8-0.2,1.2-0.6,1.2c-0.3,0-0.5-0.4-0.5-1.2
			c0-0.7,0-1.4,0.1-2c-0.6,0-1.1,0.1-1.5,0.1c-0.1,0-0.1,0-0.1,0c-0.1,1.2-0.2,2-0.5,2.5c-0.3,0.8-0.7,1.2-1,1.2s-0.6-0.2-0.9-0.6
			c-0.2-0.2-0.3-0.5-0.3-0.7c0-0.1,0.1-0.2,0.2-0.2c0.5-0.1,0.9-0.5,1.2-1.1c0.2-0.5,0.3-1.5,0.3-2.9c0-0.8-0.1-1.5-0.2-2.4
			C227.9,8.4,228.1,8.2,228.5,8.2z M232.1,0.3c0.3,0,0.4,0.2,0.5,0.5c0.1,0.1,0.3,0.2,0.5,0.4c1.9,1.7,3.1,2.6,3.6,2.8
			c0.3,0.1,0.7,0.2,1.1,0.3c0.2,0,0.3,0.1,0.3,0.4c0,0.3-0.2,0.6-0.6,0.9c-0.4,0.3-0.8,0.4-1.2,0.4c-0.3,0-0.6-0.1-0.8-0.4
			c-0.7-1-1.5-2-2.4-3c-0.3-0.4-0.6-0.6-0.9-0.8c-0.7,1.3-1.2,2.1-1.6,2.5c-0.5,0.6-1.2,1.2-1.9,1.5c-0.2,0.1-0.3,0.2-0.4,0.2
			c-0.4,0-0.7-0.1-0.9-0.4c-0.2-0.2-0.4-0.5-0.4-0.8c0-0.2,0.1-0.2,0.3-0.3c0.8-0.2,1.4-0.4,1.9-0.7c0.4-0.3,0.8-0.6,1.2-1.1
			c0.4-0.5,0.9-1.3,1.4-2.3C231.9,0.3,232,0.3,232.1,0.3z M229.1,11.9c0.1,0,0.1,0,0.2,0h1.4c0-0.1,0-0.3,0-0.4c0-0.6,0-1.2-0.1-1.8
			c0-0.1,0-0.2,0-0.3c-0.5,0-1,0-1.5,0c0,1,0,1.7,0,2.2C229.1,11.7,229.1,11.8,229.1,11.9z M230.6,5.6h3.8c0.1,0,0.2,0.1,0.2,0.2
			c0,0.3-0.1,0.5-0.2,0.7c-0.2,0.2-0.4,0.3-0.7,0.3c-0.1,0-0.3,0-0.6-0.1c-0.3,0-0.7,0-1,0c-0.7,0-1.2,0.1-1.5,0.2
			C230.4,7,230.2,7,230.2,7c-0.3,0-0.5-0.2-0.6-0.6c0-0.2,0.1-0.4,0.3-0.6C230.1,5.7,230.3,5.6,230.6,5.6z M231.7,9.4
			c0,0.1,0,0.2,0,0.3c-0.1,0.7-0.1,1.3-0.1,1.8l0,0.4h1.3c0-0.1,0-0.3,0-0.4c0-0.6,0-1.2-0.1-1.8c0-0.1,0-0.2,0-0.3
			C232.5,9.4,232.1,9.4,231.7,9.4z M233.9,9.4c0,0.1,0,0.2,0,0.3c-0.1,0.7-0.1,1.3-0.1,1.8v0.4h1.5c0,0,0.1,0,0.1,0
			c0-0.9,0.1-1.7,0.1-2.4c0-0.1-0.2-0.2-0.5-0.2C234.7,9.4,234.3,9.4,233.9,9.4z"/>
		<path class="st0" d="M255.3,3.4c0,0.4-0.2,0.6-0.5,0.6c-0.2,0-0.4,0-0.7-0.1c-0.3,0-0.5-0.1-0.7-0.1c-1.5,0-3,0.5-4.2,1.6
			c-1.4,1.2-2.1,2.7-2.1,4.5c0,1.5,0.6,2.6,1.7,3.3c0.9,0.6,2,0.9,3.4,0.9c0.2,0,0.6,0,1,0c0.5-0.1,0.8-0.1,1-0.1
			c0.1,0,0.2,0.1,0.3,0.3c-0.1,0.5-0.3,1-0.7,1.4c-0.4,0.4-0.8,0.6-1.3,0.6c-1.7,0-3.2-0.5-4.4-1.5c-1.4-1.1-2.1-2.6-2.1-4.5
			c0-1.5,0.4-2.8,1.3-3.9c0.7-0.9,1.6-1.7,2.9-2.5c-2.7,0.3-5.2,0.8-7.5,1.5c-0.2,0.1-0.5,0.2-0.9,0.3c-0.4,0-0.5-0.2-0.5-0.6
			c0-0.4,0.1-0.8,0.2-1c0.2-0.2,0.6-0.4,1.2-0.5c1.8-0.3,4.2-0.6,7.2-0.8c2.5-0.2,4-0.3,4.4-0.3c0.2,0,0.4,0.1,0.6,0.3
			C255.2,2.9,255.3,3.1,255.3,3.4z M254.4,7.8c0,0.1-0.2,0.4-0.4,0.7c-0.2,0.3-0.4,0.5-0.5,0.5c-0.2,0-0.7-0.3-1.2-1
			c-0.6-0.7-0.8-1.1-0.8-1.4c0-0.2,0.1-0.3,0.2-0.3c0.1,0,0.3,0.2,0.7,0.5c0.4,0.3,0.9,0.5,1.7,0.6C254.3,7.5,254.4,7.6,254.4,7.8z
			 M257.4,6.9c0,0.1-0.2,0.4-0.4,0.7c-0.2,0.3-0.4,0.5-0.5,0.5c-0.2,0-0.6-0.3-1.2-1c-0.6-0.7-0.8-1.1-0.8-1.4
			c0-0.2,0.1-0.3,0.2-0.3c0,0,0.3,0.1,0.7,0.4c0.5,0.4,1.1,0.6,1.7,0.7C257.2,6.6,257.3,6.7,257.4,6.9z"/>
		<path class="st0" d="M266.5,15.7c0,0.4-0.1,0.8-0.4,1.1c-0.3,0.3-0.6,0.4-1,0.4c-0.4,0-0.7-0.1-0.9-0.4c-0.2-0.3-0.4-0.6-0.4-1.1
			c0-0.9,0.4-1.4,1.3-1.4c0.4,0,0.7,0.1,1,0.4C266.4,14.9,266.5,15.2,266.5,15.7z M266.1,2.7c-0.1,0.5-0.2,2.1-0.2,4.9
			c0,2.4,0,3.8,0.1,4c0,0.7-0.3,1-0.9,1c-0.6,0-0.9-0.3-0.9-1c0-0.5,0-1.1,0.1-2c0.1-0.9,0.1-1.6,0.1-2c0-0.5,0-1.3-0.1-2.4
			c-0.1-1.1-0.1-1.9-0.1-2.5c0-0.7,0.3-1.1,0.9-1.1C265.8,1.7,266.1,2,266.1,2.7z"/>
	</g>
</g>
</svg>
