<?xml version="1.0" encoding="utf-8"?>
<!-- Generator: Adobe Illustrator 24.0.3, SVG Export Plug-In . SVG Version: 6.00 Build 0)  -->
<svg version="1.1" id="レイヤー_1" xmlns="http://www.w3.org/2000/svg" xmlns:xlink="http://www.w3.org/1999/xlink" x="0px"
	 y="0px" viewBox="0 0 169.3 174.1" style="enable-background:new 0 0 169.3 174.1;" xml:space="preserve">
<style type="text/css">
	.st0{fill:#C4DAE7;}
	.st1{fill:#699288;}
	.st2{fill:none;stroke:#3C4350;stroke-width:4.5203;stroke-miterlimit:10;}
	.st3{fill:#3C4350;}
	.st4{fill:none;stroke:#3C4350;stroke-width:4.9911;stroke-miterlimit:10;}
	.st5{fill:none;stroke:#3C4350;stroke-width:5.407;stroke-miterlimit:10;}
	.st6{fill:none;stroke:#3C4350;stroke-width:3.3274;stroke-miterlimit:10;}
	.st7{fill:none;stroke:#3C4350;stroke-width:4.0367;stroke-linecap:round;stroke-miterlimit:10;}
	.st8{fill:none;stroke:#3C4350;stroke-width:3.6185;stroke-miterlimit:10;}
	.st9{fill:#E24F4A;stroke:#3C4350;stroke-width:3.6274;stroke-miterlimit:10;}
	.st10{fill:#F3BD49;stroke:#3C4350;stroke-width:2.9465;stroke-miterlimit:10;}
</style>
<text transform="matrix(0.85 0 0 1 151.2278 -303.7298)"><tspan x="0" y="0" style="fill:#503819; font-family:'DFLeiSho-SB-MP-RKSJ-H'; font-size:24px;">NPO法人 日本エコロジスト支援協会の</tspan><tspan x="73.7" y="30" style="fill:#503819; font-family:'DFLeiSho-SB-MP-RKSJ-H'; font-size:24px;">活動実績をご紹介します</tspan><tspan x="348.3" y="30" style="fill:#503819; font-family:'DFLeiSho-SB-MP-RKSJ-H'; font-size:24px; letter-spacing:-10.6;">。</tspan></text>
<g>
	<path class="st0" d="M8.7,65.1v48.8h67V65.1H8.7z"/>
	<polygon class="st1" points="73.1,106.8 73.1,91.1 54.5,75.3 46.1,84.2 	"/>
	<polyline class="st1" points="72.7,108.3 35.8,75.3 11.2,96.5 11.2,108.4 	"/>
	<path class="st0" d="M104.1,15.8v56.3h53V15.8H104.1z"/>
	<path class="st0" d="M113.1,3.9v56.3h53V3.9H113.1z"/>
	<path class="st0" d="M82.9,117.3v53.3h66.9v-53.3H82.9z"/>
	<g>
		<g>
			<polyline class="st2" points="109.1,19.4 96.9,19.4 96.9,78.1 150.9,78.1 150.9,68.7 			"/>
			<path class="st2" d="M112.3,2.3V65H167V2.3H112.3z"/>
		</g>
		<rect x="121" y="23.1" class="st3" width="37.4" height="3.5"/>
		<rect x="121" y="30.6" class="st3" width="37.4" height="3.5"/>
		<rect x="121" y="38.9" class="st3" width="37.4" height="3.5"/>
	</g>
	<rect x="2.5" y="50.6" class="st4" width="79.9" height="79.4"/>
	<polyline class="st5" points="83.2,94 149.5,94 149.5,171.4 63.8,171.4 63.8,130.9 	"/>
	<rect x="11.6" y="58.9" class="st6" width="61.6" height="50.3"/>
	<polyline class="st7" points="11.6,96.5 36.2,75.3 73.1,108.3 	"/>
	<polyline class="st8" points="46.1,84.2 54.5,75.3 73.1,91.1 	"/>
	<polygon class="st9" points="96.9,133 96.9,117.3 110.4,125.1 124,133 110.4,140.8 96.9,148.6 	"/>
	<rect x="89.4" y="100.5" class="st3" width="7.5" height="6.2"/>
	<rect x="104" y="100.5" class="st3" width="7.1" height="6.2"/>
	<rect x="131.4" y="100.5" class="st3" width="7.5" height="6.2"/>
	<rect x="75.3" y="159.6" class="st3" width="7.5" height="6.2"/>
	<rect x="89.4" y="159.6" class="st3" width="7.5" height="6.2"/>
	<rect x="104" y="159.6" class="st3" width="7.1" height="6.2"/>
	<rect x="117.7" y="159.6" class="st3" width="7.1" height="6.2"/>
	<rect x="131.4" y="159.6" class="st3" width="7.5" height="6.2"/>
	<rect x="154.1" y="3.4" class="st10" width="12.8" height="14.3"/>
</g>
</svg>
