<?xml version="1.0" encoding="utf-8"?>
<!-- Generator: Adobe Illustrator 24.0.3, SVG Export Plug-In . SVG Version: 6.00 Build 0)  -->
<svg version="1.1" id="レイヤー_1" xmlns="http://www.w3.org/2000/svg" xmlns:xlink="http://www.w3.org/1999/xlink" x="0px"
	 y="0px" viewBox="0 0 200 170.8" style="enable-background:new 0 0 200 170.8;" xml:space="preserve">
<style type="text/css">
	.st0{fill:#C4DAE7;}
	.st1{fill:#699288;}
	.st2{fill:none;stroke:#3C4350;stroke-width:4.5203;stroke-miterlimit:10;}
	.st3{fill:#3C4350;}
	.st4{fill:none;stroke:#3C4350;stroke-width:4.9911;stroke-miterlimit:10;}
	.st5{fill:none;stroke:#3C4350;stroke-width:5.407;stroke-miterlimit:10;}
	.st6{fill:none;stroke:#3C4350;stroke-width:3.3274;stroke-miterlimit:10;}
	.st7{fill:none;stroke:#3C4350;stroke-width:4.0367;stroke-linecap:round;stroke-miterlimit:10;}
	.st8{fill:none;stroke:#3C4350;stroke-width:3.6185;stroke-miterlimit:10;}
	.st9{fill:#E24F4A;stroke:#3C4350;stroke-width:3.6274;stroke-miterlimit:10;}
	.st10{fill:#F3BD49;stroke:#3C4350;stroke-width:2.9465;stroke-miterlimit:10;}
	.st11{fill:#B47B4C;}
	.st12{fill:#F5CC39;}
	.st13{fill:#5E6076;}
	.st14{fill:#993E7A;}
	.st15{fill:#F4A161;}
	.st16{fill:#3482C5;}
	.st17{fill:#459DD8;}
	.st18{fill:#C18456;}
	.st19{fill:#F8C687;}
	.st20{fill:#463C38;}
</style>
<text transform="matrix(0.85 0 0 1 166.4619 -305.1423)"><tspan x="0" y="0" style="fill:#503819; font-family:'DFLeiSho-SB-MP-RKSJ-H'; font-size:24px;">NPO法人 日本エコロジスト支援協会の</tspan><tspan x="73.7" y="30" style="fill:#503819; font-family:'DFLeiSho-SB-MP-RKSJ-H'; font-size:24px;">活動実績をご紹介します</tspan><tspan x="348.3" y="30" style="fill:#503819; font-family:'DFLeiSho-SB-MP-RKSJ-H'; font-size:24px; letter-spacing:-10.6;">。</tspan></text>
<g>
	<path class="st0" d="M-210.5-529.8v48.8h67v-48.8H-210.5z"/>
	<polygon class="st1" points="-146.1,-488.2 -146.1,-503.8 -164.8,-519.6 -173.1,-510.7 	"/>
	<polyline class="st1" points="-146.6,-486.7 -183.5,-519.6 -208.1,-498.4 -208.1,-486.5 	"/>
	<path class="st0" d="M-115.2-579.1v56.3h53v-56.3H-115.2z"/>
	<path class="st0" d="M-106.2-591.1v56.3h53v-56.3H-106.2z"/>
	<path class="st0" d="M-136.3-477.6v53.3h66.9v-53.3H-136.3z"/>
	<g>
		<g>
			<polyline class="st2" points="-110.2,-575.6 -122.3,-575.6 -122.3,-516.8 -68.4,-516.8 -68.4,-526.2 			"/>
			<path class="st2" d="M-106.9-592.7v62.7h54.7v-62.7H-106.9z"/>
		</g>
		<rect x="-98.2" y="-571.8" class="st3" width="37.4" height="3.5"/>
		<rect x="-98.2" y="-564.3" class="st3" width="37.4" height="3.5"/>
		<rect x="-98.2" y="-556" class="st3" width="37.4" height="3.5"/>
	</g>
	<rect x="-216.7" y="-544.3" class="st4" width="79.9" height="79.4"/>
	<polyline class="st5" points="-136.1,-500.9 -69.7,-500.9 -69.7,-423.5 -155.4,-423.5 -155.4,-464.1 	"/>
	<rect x="-207.6" y="-536" class="st6" width="61.6" height="50.3"/>
	<polyline class="st7" points="-207.7,-498.4 -183.1,-519.6 -146.1,-486.7 	"/>
	<polyline class="st8" points="-173.1,-510.7 -164.8,-519.6 -146.1,-503.8 	"/>
	<polygon class="st9" points="-122.3,-461.9 -122.3,-477.6 -108.8,-469.8 -95.3,-461.9 -108.8,-454.1 -122.3,-446.3 	"/>
	<rect x="-129.8" y="-494.4" class="st3" width="7.5" height="6.2"/>
	<rect x="-115.3" y="-494.4" class="st3" width="7.1" height="6.2"/>
	<rect x="-87.8" y="-494.4" class="st3" width="7.5" height="6.2"/>
	<rect x="-144" y="-435.4" class="st3" width="7.5" height="6.2"/>
	<rect x="-129.8" y="-435.4" class="st3" width="7.5" height="6.2"/>
	<rect x="-115.3" y="-435.4" class="st3" width="7.1" height="6.2"/>
	<rect x="-101.5" y="-435.4" class="st3" width="7.1" height="6.2"/>
	<rect x="-87.8" y="-435.4" class="st3" width="7.5" height="6.2"/>
	<rect x="-65.2" y="-591.5" class="st10" width="12.8" height="14.3"/>
</g>
<g>
	<path class="st11" d="M118.1,40.2C100.6,56.2,80,81.3,80,81.3s18.4-7.7,32.3-13.4c5.6-9.8,9.2-20.6,10.3-32
		C121.1,37.4,119.6,38.9,118.1,40.2z"/>
	<path class="st12" d="M164.8,15.2C164.2,5.6,132,42,132,42s24.9-30.3,22.5-41.1c-1.4-6-16,18.5-31.9,35c-1,11.3-4.7,22.1-10.3,32
		c3.7-1.5,7.1-2.9,9.7-3.9C134.6,59,165.3,23.9,164.8,15.2z"/>
	<g>
		<path class="st13" d="M111.9,125.3c-0.8,11-2.5,39.2,4.1,40.3c7.3,1.3,2.2-34.1,1.2-40.7C115.5,125.3,113.7,125.5,111.9,125.3z"/>
	</g>
	<g>
		<path class="st13" d="M153.1,140.8c2.4-5.8-13.3-20.5-23.4-29.1c-1.7,6.2-6.5,11.5-12.5,13.2c1.2,7.3,8.7,49.9,14.2,45.7
			c5.9-4.6-10.9-45.7-9.9-44.6c1,1.1,19.7,50.6,23.9,43.2c3.5-6.1-13.3-36-19.4-46.6c6.1,10.5,24.5,37.6,26.7,32.9
			c2.6-5.6-15.4-24.7-24.1-36.7C136.2,128,151.2,145.4,153.1,140.8z"/>
	</g>
	<path class="st14" d="M129.7,111.7c-4.6-4-8.1-6.7-8.1-6.7s-9.4,7.8-9.4,15.9c0,0.3-0.1,1.9-0.3,4.3c1.9,0.2,3.7,0.1,5.4-0.4
		c-0.1-0.7-0.2-1.1-0.2-1.1s0.1,0.4,0.2,1.1C123.2,123.2,128,117.9,129.7,111.7z"/>
	<path class="st12" d="M92.4,62.7c2.3-0.4,4.4-1,6.5-1.7c-2.2-6.3,0.8-16.4-12.3-24.6c-7.4-4.7-10.5-3.6-18.2-3.3
		c-3.8,0.2-6,0.1-8.7-0.7c0.3,0.5,0.5,1.1,0.6,1.5C67.8,47.3,73.5,65.9,92.4,62.7z"/>
	<path class="st15" d="M60.4,34c-0.2-0.5-0.4-1-0.6-1.5c-2.8-0.8-5.9-2.5-11.6-5.7C36,19.9,19.3,15,10.9,15.7
		c-8.4,0.7-13,6.8-9.9,7.2c3.2,0.3,7.5-3.2,24.6,3.7C34,30,50.4,38.6,60,50.9c3.7,1.7,7.7,2.8,11.6,3C67.2,48.1,64,40.5,60.4,34z"/>
	<path class="st14" d="M107.1,123c13.3,3,18.8-6.5,18.1-20.4c-0.2-3.7-1.3-7.4-3-11.1c-15,3.8-29.2,9.8-39.7,20.3
		C88.7,116.6,96.8,120.7,107.1,123z"/>
	<path class="st16" d="M98.9,61c-1.6,0.6-3.3,1.1-5.1,1.4C83.4,69.8,74,79.1,67.1,89.8c0.1,0.5,0.3,1.1,0.4,1.6
		c1.9,6.4,6.8,14.1,15,20.4c10.5-10.6,24.8-16.5,39.7-20.3c-4.8-10.2-14.3-19.9-21.6-27.7C99.8,63,99.3,62.1,98.9,61z"/>
	<path class="st17" d="M93.8,62.4c-0.5,0.1-0.9,0.2-1.4,0.3c-9.7,1.6-16-2.5-20.8-8.8c-4-0.2-7.9-1.3-11.6-3
		c4.6,5.9,7.7,12.6,7.5,20c-0.1,3.2-2.6,10-0.4,18.9C74,79.1,83.4,69.8,93.8,62.4z"/>
	<path class="st18" d="M142.4,37.7c-6.2,3.8-13.2,8.6-21.8,15.3C94.8,73.1,87.2,85.8,87.2,85.8s2.8,2.6,7,5.4
		C112.7,75.5,130.8,59,142.4,37.7z"/>
	<path class="st19" d="M174.4,21.8c-11.3,5.2-20.2,8.6-32,15.9C130.8,59,112.7,75.5,94.1,91.3c3.1,2.1,7,4.2,11.1,5.4
		c9.8,2.9,18,4.4,19.4,2.7c2.5-2.9-18.1-11.7-18.1-11.7s22,3.9,28.7,0c6.6-3.9-19.2-8.5-19.2-8.5s24.1,2.8,32.9-3.9
		c8.7-6.7-25.3-4.9-25.3-4.9s30.2-2.9,35.8-9.3c5.6-6.4-28.2,0.5-28.2,0.5s36.2-8.3,44.9-18.2c8.7-9.9-36.5,6.3-36.5,6.3
		s50-22.9,58.2-32.5C205.7,8,190.6,14.3,174.4,21.8z"/>
	<path class="st18" d="M86.9,50.3c0,0-1.3,6.1-10.7,0.3c-6.1-3.8-8.1-9-2.3-9.4C79.7,40.8,85.7,44.2,86.9,50.3z"/>
	<g>
		<path class="st20" d="M75.7,47.6c0.7-1.1,1.8-2.2,3.1-2.6c1.2-0.4,2.5,0.4,2.3,1.8c-0.1,0.7-0.4,1.4-0.8,2
			c-0.4,0.7,0.7,1.4,1.1,0.7c1.3-2.2,1.6-5.1-1.4-5.8c-2.2-0.5-4.4,1.5-5.5,3.3C74.1,47.7,75.2,48.3,75.7,47.6L75.7,47.6z"/>
	</g>
</g>
</svg>
