<?xml version="1.0" encoding="utf-8"?>
<!-- Generator: Adobe Illustrator 24.0.3, SVG Export Plug-In . SVG Version: 6.00 Build 0)  -->
<svg version="1.1" id="レイヤー_1" xmlns="http://www.w3.org/2000/svg" xmlns:xlink="http://www.w3.org/1999/xlink" x="0px"
	 y="0px" viewBox="0 0 332.4 47.6" style="enable-background:new 0 0 332.4 47.6;" xml:space="preserve">
<style type="text/css">
	.st0{fill:#503819;}
</style>
<g>
	<path class="st0" d="M12.5,2.8c0,0.1,0,0.7-0.1,1.8c-0.1,2.8-0.2,5.7-0.2,8.6c0,0.2,0,0.4,0.1,0.8c0.1,0.4,0.1,0.6,0.1,0.8
		c0,0.2-0.1,0.4-0.2,0.7c-0.1,0.2-0.3,0.3-0.4,0.3c-0.4,0-1-0.7-1.9-2.1l-6-9.2c-0.1,3-0.1,4.8-0.2,5.5C3.5,12.3,3,14,2.3,15
		c-0.4,0.5-0.7,0.8-0.9,0.8c-0.2,0-0.5-0.2-0.9-0.7C0.2,14.6,0,14.2,0,14c0-0.1,0.1-0.2,0.2-0.3c0.8-0.6,1.3-1.2,1.6-1.9
		c0.6-1.4,0.9-3.9,0.9-7.6c0-0.4-0.1-0.7-0.2-1.2C2.4,2.5,2.3,2.3,2.3,2.3c0-0.5,0.3-0.7,0.9-0.7c0.3,0,0.9,0.6,1.6,1.7l4.4,7
		c0.4,0.7,1.1,1.6,1.9,2.8V9.4c0-2.2,0-4,0-5.4c0-0.1,0-0.4,0-0.7c0-0.3,0-0.5,0-0.7c0-0.6,0.3-0.9,0.8-0.9
		C12.2,1.5,12.5,1.9,12.5,2.8z"/>
	<path class="st0" d="M26.6,6.2c0,1.4-0.5,2.6-1.6,3.4c-0.9,0.8-2,1.2-3.3,1.2c-0.5,0-1,0-1.5-0.1c-0.7-0.2-1.1-0.4-1.1-0.7
		c0-0.2,0.1-0.4,0.4-0.4c0.1,0,0.3,0,0.6,0s0.4,0,0.6,0c1,0,2-0.3,2.9-0.8c1.1-0.7,1.6-1.6,1.6-2.7c0-2.1-1.3-3.2-3.9-3.2
		c-1,0-2,0.1-3,0.2l0,7.4c0,0.4,0,1,0,1.9c0,0.8,0,1.4,0,1.8c0,0.9-0.2,1.4-0.7,1.4c-0.5,0-0.8-0.3-0.8-0.9c0-0.3,0-0.7,0.1-1.2
		c0.1-0.6,0.1-1,0.1-1.3V3.5c-0.8,0.2-1.2,0.3-1.1,0.3c-0.4,0-0.6-0.2-0.6-0.7c0-0.6,0.3-1,0.9-1.1s2.1-0.2,4.6-0.2
		c1.6,0,2.8,0.3,3.8,0.9C26,3.4,26.6,4.6,26.6,6.2z"/>
	<path class="st0" d="M41.3,9.1c0,1.9-0.7,3.4-2,4.8c-1.3,1.2-2.7,1.9-4.3,1.9c-1.7,0-3.1-0.7-4.3-2.1c-1.2-1.4-1.8-3.1-1.8-5.1
		c0-2.3,0.7-4.1,2.1-5.4c1.3-1.1,2.9-1.7,4.9-1.7c1.5,0,2.2,0.4,2.3,1.3l0,0.3c0.9,0.5,1.6,1.3,2.2,2.5C41,6.7,41.3,7.9,41.3,9.1z
		 M39.8,8.6c0-2-0.7-3.6-2-4.9c-0.1,0-0.2,0.1-0.3,0.1c0,0-0.2-0.1-0.6-0.2c-0.5-0.1-1-0.2-1.5-0.2c-1.5,0-2.6,0.5-3.6,1.5
		c-1,1-1.4,2.4-1.4,4.1c0,1.5,0.4,2.8,1.3,3.9c0.9,1,1.9,1.6,3.2,1.6c1.4,0,2.6-0.6,3.6-1.7C39.4,11.6,39.8,10.2,39.8,8.6z"/>
	<path class="st0" d="M48.2,7.2c0.2,0,0.3,0.1,0.3,0.3c0,0.3-0.1,0.5-0.2,0.6l-3.7,1.4c-0.5,0-0.7-0.2-0.7-0.7c0-0.6,0.2-1,0.6-1
		L48.2,7.2z M46,0.5c0.1,0,0.2,0.1,0.5,0.2c0.6,0.5,1.4,1.1,2.3,1.7c0.1,0.1,0.1,0.2,0.1,0.3c0,0.2-0.1,0.4-0.4,0.4
		c-0.1,0-0.2,0-0.4-0.1c-1.3-0.4-2.1-0.6-2.4-0.7c-0.4-0.3-0.6-0.6-0.6-1C45.2,0.7,45.5,0.5,46,0.5z M48.4,13c0.2,0,0.3,0.1,0.3,0.4
		c0,0.2,0,0.4-0.1,0.6c-1.3,1.8-2.1,2.7-2.3,2.7c-0.6,0-0.9-0.2-0.9-0.6c0-0.5,0.1-0.9,0.3-1C45.7,15,46.6,14.3,48.4,13z M51.6,3.4
		h3l0-2.3c0-0.6,0.2-0.8,0.6-0.8c0.5,0,0.8,0.3,0.8,0.8l-0.1,2.3h3.8c0.2,0,0.3,0.1,0.3,0.3C60,4,60,4.2,59.8,4.5
		c-0.2,0.2-0.4,0.3-0.7,0.3c-0.2,0-0.7-0.1-1.4-0.2c-0.6,0-1.1-0.1-1.8-0.1l-0.1,2.9c0.8,0,1.7,0.1,2.7,0.3c0.9,0.1,1.8,0.2,2.6,0.2
		c0.3,0,0.6,0,0.9-0.1c0.1,0,0.1,0.1,0.1,0.3c0,0.4-0.1,0.8-0.3,1.2c-0.2,0.4-0.4,0.6-0.6,0.6c-0.2,0-0.5-0.1-0.8-0.2
		c-1-0.5-1.9-0.8-2.8-1c-0.7-0.1-1.5-0.2-2.4-0.2c-1.1,0-2.1,0.1-3,0.3c-0.9,0.3-1.8,0.6-2.6,1C49.4,10,49.2,10,49,10
		c-0.4,0-0.5-0.3-0.6-0.7c0-0.2,0.1-0.5,0.3-0.7c0.2-0.2,0.4-0.3,0.7-0.4c2.3-0.5,4.1-0.8,5.2-0.8l-0.1-2.9c-1.2,0-2.1,0.1-2.7,0.2
		c-0.4,0.1-0.6,0.2-0.7,0.2c-0.4,0-0.6-0.2-0.7-0.6c0-0.2,0.1-0.4,0.3-0.6C51,3.4,51.3,3.4,51.6,3.4z M54.5,8.8c0.5,0,0.7,0.3,0.7,1
		c0,0.1,0,0.2-0.1,0.3c-0.5,1.1-1,2-1.3,2.6c-0.3,0.5-0.6,1-0.9,1.7c0,0.1,0.1,0.2,0.3,0.2H58c0.3,0,0.4-0.1,0.4-0.3
		c0,0,0-0.1,0-0.1c-0.3-0.6-0.7-1.3-1.1-2c-0.1-0.1-0.1-0.2-0.1-0.2c0-0.4,0.2-0.6,0.6-0.6c0.1,0,0.2,0.1,0.3,0.2
		c0.5,0.9,1.2,2,1.8,3.3C60,14.9,60,15,60,15.2c0,0.4-0.2,0.6-0.6,0.6h-6.1c-0.4,0-1,0-1.6,0.1c-0.5,0-0.8-0.2-0.8-0.6
		c0-0.2,0.1-0.5,0.3-0.7c0.2-0.3,0.5-0.6,0.7-0.9c0.3-0.4,0.6-1,1-1.6c0.4-0.7,0.7-1.5,1.1-2.6C54.1,9,54.3,8.8,54.5,8.8z"/>
	<path class="st0" d="M72.4,1.1c0.5,0,0.8,0.2,0.8,0.7c-0.2,0.9-0.3,2-0.4,3.2c0,0.8-0.1,1.6-0.3,2.4c0.2,0.1,0.6,0.4,1,0.9
		c3.2,3.2,5.2,5,5.9,5.4c0.5,0.2,1.1,0.4,1.8,0.5c0.3,0,0.4,0.2,0.4,0.5c0,0.3-0.3,0.7-0.8,1.1c-0.5,0.4-1,0.5-1.5,0.5
		c-0.3,0-0.7-0.2-1-0.5c-1.3-1.8-2.7-3.6-4.3-5.4c-0.7-0.7-1.3-1.3-1.9-1.6c-0.1,0.3-0.2,0.7-0.3,1c-0.7,1.6-1.7,2.9-2.8,3.8
		c-1.4,1.3-2.7,1.9-3.9,1.9c-0.3,0-0.5-0.1-0.7-0.4c-0.4-0.4-0.6-0.8-0.6-1.2c0-0.3,0.2-0.5,0.7-0.5c1.3-0.2,2.3-0.6,3.1-1.1
		c1.3-0.6,2.4-1.9,3.2-3.9c0.6-1.6,0.9-3.4,0.9-5.6V1.8C71.8,1.3,72,1.1,72.4,1.1z"/>
	<path class="st0" d="M96.7,2.3c0.2,0,0.4,0,0.6,0.1c0.2,0.1,0.5,0.1,0.9,0.1h3.8c0.9,0,1.9,0,3.1,0.1c0.2,0,0.5-0.1,0.8-0.2
		c0.4,0,0.6,0.3,0.6,0.8c0,0,0,0.2-0.1,0.4c-0.1,0.4-0.1,1.1-0.2,2.1c-0.1,1.3-0.1,2.7-0.1,4.2c0,1.1,0,2.6,0.1,4.6
		c0,0.6-0.2,0.8-0.6,0.8c-1.7-0.1-3.2-0.2-4.5-0.2c-1.7,0-2.7,0-3.2,0.1c-0.4,0-0.8,0.1-1.4,0.2c-0.4,0-0.6-0.2-0.6-0.7
		c0.1-2.1,0.1-3.9,0.1-5.5c0-1.7,0-3.7-0.1-6.1C96.1,2.5,96.3,2.3,96.7,2.3z M101.2,13.9c1.1,0,2.3,0,3.6,0.1c0.2,0,0.3-0.1,0.3-0.4
		c0-1.7,0-3.3,0-4.6c-3.2,0-5.7,0.1-7.5,0.2c0,0-0.1,0-0.1,0c0,1.4-0.1,2.8-0.1,4.2c0,0.4,0.2,0.6,0.5,0.6
		C98.8,13.9,99.9,13.9,101.2,13.9z M97.5,7.9c0.1,0,0.2,0,0.3,0L105,8c0,0,0.1,0,0.1,0c0-1.6,0-3,0.1-4c0-0.2-0.1-0.3-0.3-0.3
		c-1.6,0-3.9-0.1-6.9-0.1c-0.3,0-0.4,0.2-0.4,0.5C97.5,5.4,97.5,6.7,97.5,7.9z"/>
	<path class="st0" d="M114.7,3.3h4.8c0-0.7,0-1.5-0.1-2.3c0-0.6,0.2-0.9,0.7-0.9c0.4,0,0.6,0.3,0.6,0.9c0,0.8,0,1.5-0.1,2.3h5.5
		c0.2,0,0.3,0.1,0.3,0.3c0,0.3-0.1,0.6-0.2,0.8c-0.2,0.2-0.4,0.3-0.7,0.3s-1-0.1-2.1-0.2c-0.7,0-1.6-0.1-2.4-0.1
		c0.2,0.2,0.4,0.4,0.6,0.7c2.9,3,4.7,4.7,5.4,5c0.5,0.2,1,0.3,1.7,0.5c0.3,0,0.4,0.1,0.4,0.4c0,0.4-0.2,0.7-0.7,1.1
		c-0.5,0.4-0.9,0.6-1.4,0.6c-0.3,0-0.7-0.2-1-0.5c-1.2-1.6-2.5-3.3-3.9-5c-0.5-0.6-1-1.1-1.5-1.4v0l0,6.7h3.7c0.2,0,0.3,0.1,0.3,0.3
		c0,0.3-0.1,0.6-0.2,0.8c-0.2,0.2-0.4,0.3-0.7,0.3c-0.2,0-0.7-0.1-1.4-0.2c-0.5,0-1.1-0.1-1.6-0.1l0,2.3c0,1-0.2,1.5-0.7,1.5
		c-0.4,0-0.6-0.5-0.6-1.5c0-0.8,0-1.5,0-2.3c-1.4,0-2.3,0.1-3,0.2c-0.4,0.1-0.6,0.2-0.7,0.2c-0.4,0-0.6-0.2-0.7-0.6
		c0-0.2,0.1-0.4,0.3-0.6c0.2-0.1,0.4-0.2,0.7-0.2h3.3c0-2.7,0-4.9,0-6.7v0c-1.2,2-2.2,3.4-2.9,4.1c-1,1-2.1,1.9-3.4,2.5
		c-0.3,0.2-0.6,0.3-0.8,0.3c-0.4,0-0.8-0.2-1.1-0.5c-0.3-0.3-0.4-0.6-0.4-0.9c0-0.2,0.1-0.4,0.3-0.4c1.4-0.3,2.5-0.7,3.3-1.2
		c0.7-0.4,1.4-1,2.1-1.8c0.7-0.7,1.5-1.8,2.3-3.3c-1.6,0-2.9,0.1-3.7,0.2c-0.5,0.1-0.9,0.2-1,0.2c-0.4,0-0.7-0.3-0.7-0.7
		c0-0.2,0.1-0.4,0.3-0.6C114.1,3.4,114.4,3.3,114.7,3.3z"/>
	<path class="st0" d="M147.5,12c-0.1,0.5-0.3,1.1-0.6,1.7c-0.4,0.6-0.8,0.9-1.2,0.9c-0.2,0-0.6-0.2-1.4-0.6
		c-1.4-0.7-3.4-1.1-6.1-1.1c-1.3,0-2.6,0.3-3.8,0.8c-1.3,0.6-2,0.8-1.9,0.8c-0.4,0-0.7-0.3-0.7-0.9c0-0.5,0.2-0.8,0.5-1
		c0.5-0.3,1.5-0.6,3.2-0.8c1.4-0.2,2.5-0.3,3.4-0.3c0-3.1-0.1-5.4-0.1-7h-0.7c-0.9,0-1.6,0-2,0.1c-0.9,0.2-1.4,0.3-1.4,0.3
		c-0.4,0-0.6-0.2-0.6-0.7c0-0.6,0.3-0.9,1-0.9c0.8,0,2,0,3.7-0.1c1.6-0.1,2.8-0.1,3.7-0.1c1.3,0,2,0.1,2.1,0.2c0,0.4-0.1,0.7-0.3,1
		c-0.2,0.3-0.5,0.5-0.8,0.5c-0.2,0-0.5,0-0.8-0.1c-0.4-0.1-0.7-0.1-0.8-0.1c-0.3,0-0.9,0-1.6,0l0,7c0.5,0,1.5,0.1,3,0.1
		c1.2,0.1,2.2,0.1,3,0.1c0.1,0,0.3,0,0.5,0c0.2-0.1,0.4-0.1,0.5-0.1C147.3,11.9,147.5,11.9,147.5,12z"/>
	<path class="st0" d="M163.2,4.2c0,0.4-0.1,1.3-0.2,3l-0.4,5.1c0.3,0.3,0.4,0.6,0.4,0.8c0,0.4-0.3,0.7-1,0.7c-0.2,0-0.8-0.1-1.8-0.2
		c-1-0.1-2.1-0.1-3.1-0.1c-1,0-1.9,0.1-2.7,0.3c-0.7,0.2-1.2,0.3-1.6,0.3c-0.4,0-0.5-0.3-0.5-0.8c0-0.4,0.2-0.7,0.7-0.8
		c0.5-0.2,1.8-0.3,3.7-0.3h3.1c0.5,0,1,0,1.6,0.1l0.1-7C161.2,5,160,4.9,158,4.9c-1.1,0-2,0-2.9,0.1c-1.2,0.2-1.8,0.2-1.8,0.2
		c-0.3,0-0.5-0.2-0.5-0.7c0-0.6,0.5-0.9,1.6-0.9c0.8,0,2,0,3.6,0.1c1.6,0,2.8,0,3.6,0c0.2,0,0.3-0.1,0.4-0.2c0.1,0,0.2,0,0.3,0
		C162.9,3.5,163.2,3.7,163.2,4.2z"/>
	<path class="st0" d="M181.1,4.7c0,1.2-0.1,3.2-0.3,6.2c0,0.7-0.1,1.7-0.3,3.1c-0.1,0.4-0.3,0.7-0.4,0.7c-0.3,0-0.6-0.2-0.7-0.5
		c-0.3-0.2-1.5-0.3-3.7-0.3c-2,0-3.1,0.1-3.5,0.2c-0.2,0.1-0.4,0.2-0.6,0.4c-0.2,0.1-0.3,0.2-0.4,0.2c-0.4,0-0.6-0.6-0.6-1.7
		c-0.2-3.8-0.3-6.7-0.3-8.5c0-0.5,0.3-0.8,0.9-0.8c0.1,0,0.2,0,0.4,0.1c0.1,0.1,0.2,0.1,0.4,0.1c0.5,0,1.3,0,2.3,0
		c1,0,1.8-0.1,2.3-0.1c0.3,0,0.8,0,1.5,0.1c0.7,0,1.2,0,1.5,0c0.1,0,0.3,0,0.4-0.1c0.2,0,0.3,0,0.5,0C180.9,3.5,181.1,3.9,181.1,4.7
		z M179.7,5.4c-0.1-0.2-1.1-0.3-3.1-0.3h-2.4c-0.8,0-1.3,0-1.4,0c-0.7,0.1-1.1,0.4-1,0.7l0.1,6.6c0.4-0.1,0.8-0.1,1.2-0.1
		c3.7,0,5.9,0,6.6,0.1C179.7,8.4,179.7,6,179.7,5.4z"/>
	<path class="st0" d="M190.8,8.8c0,0.2-0.1,0.3-0.4,0.3c-0.6,0-1.4-0.1-2.4-0.4c-0.6-0.1-0.9-0.4-0.9-0.8c0-0.6,0.3-0.9,0.8-0.9
		c0.3,0,0.8,0.3,1.6,0.8C190.4,8.2,190.8,8.6,190.8,8.8z M200.7,6c0,0.4-0.4,1.2-1.3,2.4c-1.8,2.5-4.5,4.6-7.9,6.2
		c-1.5,0.7-2.4,1.1-2.7,1.1c-0.3,0-0.5-0.1-0.7-0.3c-0.2-0.3-0.3-0.6-0.3-0.9c0-0.5,0.3-0.8,0.9-0.9c2.7-0.5,5.2-1.7,7.4-3.5
		c1.5-1.3,2.8-2.5,3.6-3.6c0.4-0.5,0.6-0.7,0.7-0.7C200.6,5.6,200.7,5.7,200.7,6z M191.9,5.2c0,0.2-0.1,0.3-0.3,0.3
		c-0.4,0-1-0.2-1.9-0.6c-0.9-0.5-1.4-0.9-1.4-1.2c0-0.6,0.3-0.9,0.8-0.9c0.3,0,0.6,0.2,0.9,0.5C191.3,4.4,191.9,5,191.9,5.2z
		 M199.7,3.3c0,0.2-0.1,0.4-0.4,0.6c-0.2,0.2-0.5,0.3-0.6,0.3c-0.2,0-0.5-0.4-0.9-1.2c-0.4-0.8-0.6-1.3-0.6-1.6c0-0.2,0-0.3,0.1-0.3
		c0.1,0,0.2,0.1,0.3,0.3c0.6,0.8,1.1,1.4,1.7,1.6C199.5,3,199.6,3.2,199.7,3.3z M202.2,2.2c0,0.1-0.2,0.4-0.4,0.6
		c-0.2,0.3-0.4,0.4-0.6,0.5c-0.3-0.1-0.7-0.5-1.1-1.1c-0.5-0.7-0.7-1.2-0.7-1.5c0-0.1,0-0.2,0.1-0.2c0,0,0.3,0.2,0.7,0.5
		c0.4,0.4,0.7,0.6,0.8,0.6C201.4,1.8,201.8,2,202.2,2.2z"/>
	<path class="st0" d="M219.7,13.2c-0.1,0.3-0.4,0.7-0.9,1.2s-0.9,0.7-1.2,0.7c-0.2,0-0.8-0.6-1.6-1.8c-0.8-1.2-1.9-2.3-3.4-3.5
		c-1.6,1.9-3.1,3.3-4.4,4.1c-1.1,0.7-1.8,1-2.2,1c-0.3,0-0.6-0.2-1-0.6c-0.3-0.4-0.5-0.8-0.5-1.1c0-0.2,0.2-0.3,0.6-0.4
		c3.5-0.7,6.4-3,8.8-6.8c0.3-0.5,0.5-0.8,0.7-1.1c0.3-0.6,0.5-1,0.6-1.1c-0.1,0-0.6-0.1-1.6-0.1c-2,0-3.6,0.1-4.8,0.4
		c-0.6,0.2-1,0.2-1.3,0.2c-0.3,0-0.4-0.2-0.4-0.7c0-0.3,0.2-0.6,0.5-0.8c0.3-0.2,1.4-0.3,3.4-0.3h2.8c0.6,0,1,0,1.3,0.1
		c0.1-0.1,0.4-0.1,0.7-0.1c0.5,0,0.7,0.2,0.7,0.6c0,0.4-0.4,1.4-1.3,2.9c-0.7,1.2-1.3,2.2-1.9,2.9l3.4,2.5c0.9,0.7,1.5,1,2,1.2
		c0.2,0,0.4,0.1,0.6,0.1C219.5,12.9,219.6,13,219.7,13.2z"/>
	<path class="st0" d="M234.8,10c0,0.3-0.3,0.7-1,1.2c-0.7,0.5-1.1,0.8-1.4,0.8c-0.2,0-0.6-0.3-1-1c-1.2-1.7-2.6-3-4.3-3.9
		c0,0.9,0,2.3,0,4.2c0,1.8,0.1,3.2,0.1,4.2c0,0.7-0.3,1-0.8,1c-0.4,0-0.6-0.4-0.6-1.2c0-0.7,0-1.8,0-3.2c0-1.4,0.1-2.5,0.1-3.2V4.6
		c0-0.3,0-0.8-0.1-1.4c0-0.7,0-1.1,0-1.5c0-0.6,0.2-0.9,0.7-0.9c0.5,0,0.7,0.3,0.7,0.9c0,0.5,0,1.2-0.1,2.1c0,0.9-0.1,1.7-0.1,2.1
		c1.3,0.7,2.7,1.5,4.2,2.5c1.2,0.8,2.2,1.2,3,1.3C234.6,9.8,234.8,9.9,234.8,10z"/>
	<path class="st0" d="M240.7,3.2h4.8L245.5,1c0-0.6,0.2-0.8,0.7-0.8c0.5,0,0.8,0.3,0.8,0.8l-0.1,2.2h5.5c0.2,0,0.3,0.1,0.3,0.3
		c0,0.3-0.1,0.6-0.2,0.8c-0.2,0.2-0.4,0.3-0.7,0.3c-0.3,0-1-0.1-2.1-0.2c-0.9,0-1.8-0.1-2.8-0.1l-0.1,2.6c1,0,1.9,0.1,2.7,0.1
		c0.2-0.1,0.5-0.1,0.6-0.1c0.4,0,0.6,0.3,0.6,0.8c0,0.1-0.1,0.2-0.3,0.4c-0.2,0.2-0.6,0.9-1.4,1.9c-0.6,0.7-1.2,1.4-1.9,2.1
		c2,1.2,3.7,2,5,2.4c1.1,0.4,2,0.6,2.7,0.6c0.1,0,0.2,0.1,0.2,0.3c0,0.5-0.2,0.9-0.7,1.4c-0.3,0.3-0.6,0.4-0.9,0.4
		c-0.3,0-0.6-0.1-1-0.2c-0.5-0.2-1.8-1-3.8-2.4c-1-0.7-1.8-1.2-2.5-1.7c-0.5,0.5-1.1,0.9-1.7,1.4c-1.2,1-2.3,1.7-3.3,2.1
		c-0.8,0.4-1.4,0.6-1.9,0.6c-0.3,0-0.6-0.2-0.9-0.5c-0.4-0.3-0.6-0.7-0.6-1.1c0-0.3,0.1-0.4,0.4-0.5c0.6,0,1.4-0.2,2.5-0.5
		c1.6-0.5,3-1.2,4-1.9c0.1-0.1,0.2-0.2,0.3-0.3c-0.4-0.2-0.7-0.4-1-0.6c-0.7-0.3-1.3-0.6-2-0.7c-0.3-0.1-0.5-0.3-0.5-0.6
		c0-0.4,0.2-0.6,0.5-0.6c0.2,0,0.5,0.1,0.8,0.3c1.2,0.6,2.2,1.1,3.2,1.6c0.9-0.8,1.7-1.7,2.6-2.7c0.2-0.2,0.3-0.3,0.3-0.4
		c0-0.2-0.1-0.3-0.2-0.3C248.5,8,248.2,8,248,8c-2.4,0-3.9,0.1-4.7,0.2c-0.5,0.1-0.8,0.1-1,0.1c-0.3,0-0.5-0.2-0.5-0.6
		c0-0.3,0.1-0.6,0.4-0.7c0.3-0.1,0.9-0.2,1.9-0.2c0.5,0,1,0,1.4,0l-0.1-2.5c-1.9,0-3.3,0.1-4.2,0.2c-0.5,0.1-0.9,0.2-1,0.2
		c-0.4,0-0.6-0.3-0.6-0.7c0-0.2,0.1-0.4,0.3-0.6C240.2,3.3,240.4,3.2,240.7,3.2z"/>
	<path class="st0" d="M258.6,3.7h2c0-0.9,0-1.8,0-2.7c0-0.7,0.3-1,0.7-1c0.4,0,0.6,0.2,0.6,0.7c0,0.1,0,0.4-0.1,0.7
		c0,0.4-0.1,0.7-0.1,0.9c0,0.5,0,0.9,0,1.3h2.1c0.1,0,0.2,0.1,0.2,0.3c0,0.3-0.1,0.5-0.2,0.7c-0.2,0.2-0.4,0.3-0.7,0.3
		c-0.1,0-0.4,0-0.9-0.1c-0.2,0-0.4,0-0.6,0c0,1.3,0,2.6,0.1,3.7c0.7-0.2,1.2-0.3,1.6-0.4c0.2,0,0.3,0.1,0.3,0.4
		c0,0.4-0.1,0.6-0.4,0.6c-0.5,0.2-1,0.4-1.5,0.6c0,1.5,0.1,2.6,0.1,3.4c0,1.4-0.3,2.4-0.8,3.1c-0.5,0.5-1,0.8-1.7,0.8
		c-0.3,0-0.6-0.1-0.9-0.4c-0.2-0.2-0.2-0.5-0.2-0.7c0-0.2,0.1-0.4,0.4-0.5c1-0.3,1.5-0.6,1.7-1.1c0.2-0.4,0.2-0.9,0.2-1.6
		c0-0.9,0-1.7,0-2.6c-1,0.4-1.9,0.9-2.8,1.4c-0.4,0-0.6-0.2-0.6-0.6c0-0.4,0.1-0.6,0.2-0.8c0.1-0.2,0.2-0.4,0.5-0.5
		c1-0.4,1.9-0.7,2.7-0.9c0-1.2,0-2.4,0-3.6c0-0.1,0-0.3,0-0.5c-0.9,0-1.6,0.1-2,0.2c-0.2,0.1-0.4,0.2-0.5,0.2
		c-0.4,0-0.6-0.2-0.6-0.6c0-0.2,0.1-0.5,0.3-0.6C258,3.8,258.3,3.7,258.6,3.7z M266.6,5.8h6.4c0.1,0,0.2,0.1,0.2,0.2
		c0,0.3-0.1,0.5-0.2,0.7c-0.2,0.2-0.4,0.3-0.7,0.3c-0.1,0-0.5,0-1.1-0.1c-0.6,0-1.2,0-1.9,0c-0.1,0-0.2,0-0.2,0c0,0,0,0.1,0,0.1
		c-0.1,0.4-0.3,0.8-0.5,1.3h5.6c0.2,0,0.3,0.1,0.3,0.2c0,0.3-0.1,0.6-0.2,0.8c-0.2,0.3-0.4,0.4-0.7,0.4c-0.2,0-0.7-0.1-1.5-0.2
		c-0.8,0-1.7-0.1-2.7-0.1c-0.4,0-0.9,0-1.2,0c-0.1,0.3-0.3,0.6-0.4,0.9c-0.7,1.1-1.5,2-2.3,2.6c-0.5,0.4-1,0.6-1.3,0.6
		c-0.2,0-0.4-0.1-0.6-0.3c-0.3-0.3-0.4-0.6-0.4-0.9c0-0.2,0.2-0.4,0.6-0.5c1-0.2,2-0.7,2.8-1.6c0.2-0.2,0.4-0.5,0.6-0.7
		c-0.4,0-0.7,0.1-1,0.1c-0.4,0.1-0.7,0.1-0.8,0.1c-0.3,0-0.5-0.3-0.6-0.7c0-0.2,0.1-0.4,0.3-0.6c0.2-0.1,0.4-0.2,0.7-0.2h2
		c0.2-0.4,0.4-0.9,0.6-1.4c-0.6,0-1,0.1-1.4,0.1c-0.3,0.1-0.5,0.1-0.6,0.1c-0.3,0-0.5-0.2-0.6-0.6c0-0.2,0.1-0.4,0.3-0.6
		C266.1,5.9,266.4,5.8,266.6,5.8z M265,3.6c0.3,0.1,0.4,0.1,0.6,0.1c0.4,0,0.8-0.2,1.3-0.6c0.1,0,0.2,0.1,0.2,0.2
		c0,0.2-0.2,0.5-0.6,1.1c-0.4,0.5-0.7,0.8-1,0.8c-0.2,0-0.4-0.1-0.5-0.3c-0.2-0.3-0.2-0.6-0.2-1C264.8,3.7,264.8,3.6,265,3.6z
		 M273.1,0.5c0.2,0,0.3,0.1,0.3,0.4c0,0.3-0.1,0.4-0.2,0.5c-2,0.6-3.6,1-4.9,1.2c-0.9,0.1-1.4,0.2-1.7,0.2c-0.3,0-0.6-0.1-0.9-0.4
		c-0.2-0.2-0.3-0.5-0.3-0.7c0-0.2,0.1-0.3,0.3-0.3c1.7,0,3.1-0.1,4.2-0.3c1.1-0.1,2.1-0.3,2.8-0.5C272.9,0.5,273,0.5,273.1,0.5z
		 M268.4,10.5c0.9,0,2,0,3.2,0.1l0.4-0.1c0.4,0,0.6,0.2,0.6,0.5c0,0.2-0.1,0.5-0.3,0.8c-0.5,0.8-0.9,1.5-1.3,2.1
		c1,0.5,1.9,0.8,2.6,1.1c0.7,0.2,1.2,0.3,1.7,0.3c0.1,0,0.2,0.1,0.2,0.2c0,0.4-0.2,0.9-0.6,1.4c-0.2,0.3-0.5,0.4-0.8,0.4
		c-0.2,0-0.4,0-0.6-0.1c-0.3-0.1-1-0.6-2.2-1.4c-0.4-0.3-0.8-0.6-1.2-0.8c-0.7,0.7-1.4,1.2-2.2,1.6c-0.5,0.2-0.9,0.4-1.2,0.4
		c-0.3,0-0.6-0.1-0.9-0.4c-0.3-0.3-0.4-0.6-0.4-0.9c0-0.3,0.1-0.4,0.3-0.4c0.9,0,1.6-0.1,2-0.2c0.4-0.1,0.9-0.3,1.3-0.6
		c-0.2-0.1-0.4-0.3-0.6-0.4c-0.4-0.2-0.8-0.4-1.2-0.4c-0.3-0.1-0.5-0.3-0.5-0.6c0-0.4,0.2-0.6,0.5-0.6c0.1,0,0.3,0,0.5,0.1
		c0.9,0.4,1.6,0.7,2.3,1c0.4-0.5,0.8-1.1,1.1-1.7c0-0.2-0.1-0.3-0.3-0.3c-0.8,0-1.7,0.1-2.8,0.2c-0.3,0-0.4-0.1-0.4-0.4
		c0-0.2,0.1-0.4,0.2-0.5C268,10.6,268.2,10.5,268.4,10.5z M269.6,3c0.4,0,0.6,0.2,0.6,0.7l-0.3,1.1c0,0.2-0.1,0.3-0.3,0.3
		c-0.2,0-0.4-0.1-0.4-0.3L269,3.6C269,3.2,269.2,3,269.6,3z M272.2,2.4C272.2,2.4,272.3,2.5,272.2,2.4c0.6,0.4,1,0.6,1.3,0.8
		c0.2,0.1,0.5,0.2,0.8,0.2c0.1,0,0.2,0.1,0.2,0.3s-0.1,0.4-0.3,0.6c-0.4,0.3-0.7,0.5-0.9,0.5c-0.1,0-0.2-0.1-0.2-0.2
		c-0.1-0.2-0.4-0.7-0.9-1.7c0-0.1-0.1-0.1-0.1-0.2C272.1,2.5,272.1,2.4,272.2,2.4z"/>
	<path class="st0" d="M278.1,5.1h2.2c0-1.2,0-2.6-0.1-4c0-0.6,0.2-0.9,0.6-0.9s0.6,0.3,0.6,0.9c0,1.5-0.1,2.8-0.1,4h2.5
		c0.2,0,0.3,0.1,0.3,0.3c0,0.3-0.1,0.6-0.2,0.8c-0.2,0.2-0.4,0.3-0.7,0.3c-0.1,0-0.5-0.1-1-0.2c-0.3,0-0.6,0-0.9,0l0.1,9.6
		c0,1-0.2,1.5-0.7,1.5c-0.4,0-0.6-0.5-0.6-1.5c0-4,0.1-7.2,0.1-9.6c-0.9,0-1.6,0.1-2,0.2c-0.3,0.1-0.4,0.2-0.5,0.2
		c-0.4,0-0.6-0.3-0.7-0.7c0-0.2,0.1-0.4,0.3-0.6C277.6,5.1,277.8,5.1,278.1,5.1z M285.2,10.5c0.1-0.3,0.1-0.6,0.1-0.9
		c0-0.4,0.2-0.6,0.5-0.6c0.1,0,0.3,0.1,0.4,0.2c0.1,0.2,0.2,0.3,0.2,0.4l0,0.1c0,0.2-0.1,0.5-0.1,0.8h1.4c0.1,0,0.3-0.1,0.6-0.2
		c0.4,0,0.7,0.2,0.7,0.7c-0.2,0.9-0.4,1.9-0.4,2.8c-0.1,1.3-0.4,2.1-0.9,2.5c-0.4,0.4-0.9,0.6-1.4,0.6c-0.3,0-0.6-0.1-0.8-0.4
		c-0.1-0.3-0.2-0.5-0.2-0.7c0-0.3,0.1-0.4,0.3-0.5c0.7,0,1.1-0.2,1.3-0.4c0.3-0.2,0.5-0.9,0.6-1.9c0.1-0.7,0.1-1.1,0.1-1.2
		c0-0.2-0.1-0.4-0.2-0.4h-1.5c-0.2,1.1-0.6,2.2-1,3c-0.3,0.6-0.6,1.2-0.9,1.6c-0.4,0.5-0.7,0.7-0.9,0.7c-0.2,0-0.4-0.1-0.7-0.4
		c-0.2-0.3-0.3-0.5-0.3-0.7c0-0.2,0.1-0.3,0.4-0.4c0.4-0.1,0.7-0.4,1.1-0.9c0.4-0.4,0.8-1.2,1.2-2.3c0.1-0.2,0.1-0.4,0.2-0.6
		c-0.3,0-0.6,0.1-0.8,0.1c-0.3,0.1-0.5,0.2-0.6,0.2c-0.3,0-0.5-0.2-0.5-0.5c0-0.5,0.2-0.8,0.6-0.8C283.8,10.5,284.3,10.5,285.2,10.5
		z M288.3,2.3c0.1-0.5,0.2-1,0.3-1.5c0-0.4,0.2-0.6,0.5-0.6c0.1,0,0.2,0.1,0.3,0.2c0.1,0.2,0.2,0.3,0.2,0.4l0,0.1
		c-0.1,0.3-0.2,0.8-0.3,1.4h2.8c0.1,0,0.3-0.1,0.6-0.2c0.4,0,0.7,0.2,0.7,0.7c-0.2,0.9-0.4,1.9-0.5,2.8c-0.1,1.3-0.4,2.1-0.9,2.5
		c-0.4,0.4-1,0.6-1.6,0.6c-0.3,0-0.6-0.1-0.8-0.4c-0.1-0.3-0.2-0.5-0.2-0.7c0-0.3,0.1-0.4,0.3-0.5c0.8,0,1.3-0.2,1.5-0.4
		c0.3-0.2,0.5-0.9,0.7-1.9c0.1-0.6,0.1-1,0.1-1.2c0-0.3-0.1-0.4-0.2-0.4H289c0,0,0,0,0,0c-0.3,1-0.7,1.9-1.2,2.8
		c-0.4,0.6-0.7,1.2-1.2,1.7c-0.6,0.5-1,0.8-1.2,0.8s-0.5-0.2-0.7-0.5c-0.2-0.3-0.3-0.5-0.3-0.7c0-0.2,0.1-0.3,0.4-0.4
		c0.5-0.1,1-0.5,1.4-1c0.5-0.4,1.1-1.3,1.6-2.4c0-0.1,0.1-0.2,0.1-0.3c-0.4,0-0.8,0.1-1.3,0.1c-0.4,0.1-0.7,0.2-0.8,0.2
		c-0.3,0-0.5-0.2-0.5-0.5c0-0.5,0.2-0.8,0.6-0.8C286.3,2.3,287.1,2.3,288.3,2.3z M291.5,10.5c0.1-0.3,0.1-0.6,0.1-0.9
		c0-0.4,0.2-0.6,0.5-0.6c0.1,0,0.2,0.1,0.4,0.2c0.1,0.2,0.2,0.3,0.2,0.4l0,0.1c0,0.2-0.1,0.5-0.1,0.8h1.5c0.1,0,0.3-0.1,0.6-0.2
		c0.4,0,0.6,0.2,0.6,0.7c-0.2,0.9-0.3,1.9-0.4,2.8c-0.1,1.3-0.3,2.1-0.8,2.5c-0.3,0.4-0.8,0.6-1.2,0.6c-0.3,0-0.6-0.1-0.8-0.4
		c-0.1-0.3-0.2-0.5-0.2-0.7c0-0.3,0.1-0.4,0.3-0.5c0.6,0,1-0.2,1.1-0.4c0.2-0.2,0.4-0.9,0.5-1.9c0.1-0.7,0.1-1.1,0.1-1.2
		c0-0.2-0.1-0.4-0.2-0.4h-1.5c-0.2,1.1-0.5,2.2-0.9,3c-0.2,0.6-0.5,1.2-0.8,1.6c-0.4,0.5-0.7,0.7-0.8,0.7c-0.2,0-0.5-0.1-0.7-0.4
		c-0.2-0.3-0.3-0.5-0.3-0.7c0-0.2,0.1-0.3,0.4-0.4c0.3-0.1,0.7-0.4,1-0.9c0.4-0.4,0.7-1.2,1.1-2.3c0.1-0.2,0.1-0.4,0.2-0.6
		c-0.3,0-0.5,0.1-0.8,0.1c-0.3,0.1-0.5,0.2-0.6,0.2c-0.3,0-0.5-0.2-0.5-0.5c0-0.5,0.2-0.8,0.6-0.8C290.2,10.5,290.7,10.5,291.5,10.5
		z"/>
	<path class="st0" d="M306.2,0.3c0.3,0,0.4,0.2,0.4,0.5c0.2,0,0.6,0.2,1,0.6c3,2.2,4.8,3.5,5.6,3.8c0.5,0.1,1,0.3,1.7,0.3
		c0.3,0,0.4,0.1,0.4,0.4c0,0.4-0.2,0.7-0.7,1.1c-0.5,0.4-0.9,0.6-1.4,0.6c-0.3,0-0.6-0.2-0.9-0.5c-1.2-1.3-2.6-2.6-4.1-3.9
		c-0.7-0.5-1.2-0.9-1.8-1.2c-0.1,0-0.2-0.1-0.2-0.2c-1,1.3-2.2,2.4-3.4,3.3c-1,0.8-2.2,1.5-3.6,2c-0.3,0.1-0.5,0.1-0.6,0.1
		c-0.3,0-0.7-0.2-1-0.7c-0.3-0.3-0.5-0.6-0.5-0.9c0-0.2,0.2-0.4,0.6-0.4c1-0.1,1.7-0.2,2.2-0.4c1.2-0.3,2.3-0.8,3.3-1.6
		c1.1-0.8,2-1.7,2.7-2.7C305.9,0.4,306,0.3,306.2,0.3z M300.3,9.7c0.1,0,0.3,0,0.4,0.1c1.9-0.2,3.6-0.3,5.1-0.3c0.9,0,2.4,0,4.3,0.1
		c0.3,0,0.6,0,0.9,0c0.2,0,0.5,0,0.8-0.1c0.3-0.1,0.5-0.2,0.6-0.2c0.2,0,0.2,0.1,0.2,0.2c0,0.4-0.2,0.8-0.5,1.2
		c-0.3,0.5-0.6,0.7-0.9,0.7c-0.2,0-0.6-0.1-1.1-0.3c-1.2-0.4-2.6-0.6-4.3-0.6c-0.1,0-0.2,0-0.2,0c0,0.1,0.1,0.3,0.1,0.5
		c0,0.1,0,0.2-0.1,0.2c-0.5,0.8-0.8,1.5-1.1,2c-0.2,0.4-0.5,0.8-0.8,1.2c0,0.1,0.1,0.2,0.3,0.2h4.8c0.3,0,0.4-0.1,0.4-0.3
		c0,0,0-0.1,0-0.1c-0.2-0.4-0.5-1-0.9-1.5c0-0.1-0.1-0.1-0.1-0.1c0-0.4,0.2-0.7,0.6-0.7c0.1,0,0.2,0,0.2,0.1c0.5,0.7,1,1.6,1.6,2.7
		c0.1,0.1,0.1,0.3,0.1,0.4c0,0.4-0.2,0.6-0.6,0.6H304c-0.4,0-0.9,0-1.5,0.1c-0.5,0-0.8-0.2-0.8-0.6c0-0.2,0.1-0.4,0.3-0.6
		c0.2-0.2,0.4-0.5,0.6-0.7c0.3-0.4,0.6-0.8,0.8-1.2c0.3-0.5,0.6-1.2,1-2.1c0,0,0,0,0-0.1c-1.5,0-2.6,0.2-3.3,0.4
		c-0.4,0.1-0.8,0.2-1,0.2c-0.3,0-0.5-0.2-0.5-0.6c0-0.2,0.1-0.5,0.2-0.7C300,9.8,300.2,9.7,300.3,9.7z M303.7,6.2h5.7
		c0.1,0,0.2,0.1,0.2,0.3c0,0.2-0.1,0.5-0.2,0.6c-0.2,0.2-0.4,0.3-0.7,0.3c-0.1,0-0.5,0-1-0.1c-0.5,0-1.1,0-1.7,0
		c-1,0-1.8,0.1-2.3,0.2c-0.3,0.1-0.4,0.2-0.5,0.2c-0.4,0-0.6-0.3-0.6-0.7c0-0.2,0.1-0.4,0.3-0.6C303.1,6.3,303.4,6.2,303.7,6.2z"/>
	<path class="st0" d="M332.4,8.5c0,2.8-1.3,4.9-3.9,6.3c-1,0.6-1.9,0.9-2.4,0.9c-0.3,0-0.7-0.2-1-0.5c-0.4-0.3-0.6-0.7-0.6-1.1
		c0-0.1,0.2-0.3,0.5-0.3c0.2,0,0.6-0.1,1-0.2c1.2-0.2,2.2-0.6,2.9-1.1c0.7-0.5,1.3-1.1,1.7-1.8c0.5-0.8,0.7-1.7,0.7-2.6
		c0-0.7-0.2-1.5-0.6-2.2c-0.8-1.6-2.2-2.4-4.1-2.4c-0.1,0-0.2,0-0.3,0c-0.2,0-0.2,0-0.3,0c-0.8,4.1-1.8,7.2-3,9
		c-0.7,1.1-1.4,1.6-1.9,1.6c-0.7,0-1.3-0.6-1.8-1.9c-0.4-1-0.6-2-0.6-3c0-1.5,0.4-2.9,1.3-4.1c1.3-1.9,3.4-2.8,6.1-2.8
		c1.7,0,3.1,0.5,4.3,1.6C331.7,5,332.4,6.5,332.4,8.5z M324.7,3.6c-1.8,0.4-3,1.1-3.8,2.2C320.1,7,319.7,8,319.7,9
		c0,0.6,0.1,1.2,0.3,2c0.3,0.9,0.6,1.3,1,1.3c0.4,0,0.8-0.3,1.2-1C323.3,9.7,324.1,7.1,324.7,3.6z"/>
	<path class="st0" d="M61.7,37.5c0.2,0,0.3,0.1,0.3,0.3c0,0.3-0.1,0.5-0.2,0.6l-3.7,1.6c-0.5,0-0.7-0.2-0.7-0.7c0-0.6,0.2-1,0.6-1
		L61.7,37.5z M59.5,30.5c0.1,0,0.2,0.1,0.5,0.2c0.6,0.6,1.4,1.3,2.3,2c0.1,0.1,0.2,0.2,0.2,0.3c0,0.3-0.1,0.4-0.4,0.4
		c-0.1,0-0.2,0-0.4-0.1c-1.3-0.6-2.1-0.9-2.4-1.1c-0.4-0.3-0.6-0.6-0.6-1C58.8,30.7,59,30.5,59.5,30.5z M62.1,43
		c0.2,0,0.3,0.1,0.3,0.4c0,0.2-0.1,0.4-0.2,0.6c-1.3,1.8-2.1,2.6-2.3,2.6c-0.6,0-0.9-0.2-0.9-0.6c0-0.5,0.1-0.9,0.3-1
		C59.4,44.9,60.3,44.2,62.1,43z M72.5,30.7c0.3,0,0.4,0.1,0.4,0.4c0,0.3-0.1,0.5-0.3,0.6c-1.2,0.4-2.3,0.8-3.2,1.1l0,3.4
		c0.6,0,1.3,0,2.1,0.1c0.8,0,1.6,0.1,2.2,0.1c0.4,0,0.9-0.1,1.4-0.2c0.1,0,0.2,0.2,0.2,0.5c0,0.5-0.2,1-0.5,1.6
		c-0.2,0.4-0.4,0.6-0.6,0.6c-0.3,0-0.6-0.1-1-0.4c-0.6-0.4-1.3-0.6-2-0.8c-0.6-0.1-1.2-0.2-1.8-0.2l0,3.5h0c0.6,0,1.2,0,2,0.1
		c0.2,0,0.4-0.1,0.7-0.2c0.4,0,0.6,0.2,0.6,0.7c0,0,0,0.1,0,0.2c-0.1,0.2-0.1,0.5-0.1,0.9c0,0.6-0.1,1.2-0.1,1.8
		c0,0.4,0,0.9,0.1,1.6c0,0.5-0.2,0.8-0.6,0.8c-1.2-0.1-2.4-0.2-3.3-0.2c-1.2,0-1.9,0-2.2,0c-0.3,0-0.6,0.1-1,0.1
		c-0.4,0-0.6-0.2-0.6-0.7c0.1-0.9,0.2-1.7,0.2-2.4c0-0.6-0.1-1.4-0.2-2.4c0-0.4,0.2-0.6,0.6-0.6c0.2,0,0.4,0,0.6,0.1
		c0.2,0.1,0.5,0.1,0.9,0.1h1.3l0-3.5c-0.8,0-1.5,0.1-2.2,0.2c-0.5,0.1-1.3,0.4-2.3,1c-0.5,0-0.7-0.2-0.7-0.6c0-0.3,0.1-0.5,0.3-0.7
		c0.2-0.3,0.6-0.5,1-0.5c1.6-0.3,3-0.4,3.9-0.5l0-3c-0.3,0.1-0.7,0.2-1,0.2c-1,0.2-1.6,0.3-1.9,0.3c-0.4,0-0.7-0.2-1-0.5
		c-0.2-0.2-0.3-0.5-0.3-0.8c0-0.2,0.1-0.3,0.3-0.3c1.9,0,3.4-0.2,4.7-0.5c1.2-0.2,2.3-0.5,3.1-0.8C72.3,30.7,72.4,30.7,72.5,30.7z
		 M68.6,45.3c0.7,0,1.6,0,2.5,0.1c0.2,0,0.3-0.1,0.3-0.3v-3c0-0.2,0-0.3-0.1-0.3c-1.1,0-2.6-0.1-4.6-0.1c-0.3,0-0.4,0.2-0.4,0.5
		c0,1,0,1.9-0.1,2.8c0,0.3,0.2,0.4,0.5,0.4C67.2,45.3,67.9,45.3,68.6,45.3z"/>
	<path class="st0" d="M86,30.3c0.3,0,0.4,0.2,0.4,0.5c0,0.3-0.1,0.5-0.3,0.6c-1.1,0.3-2,0.5-2.9,0.6v1.4h3.6c0.2,0,0.3,0.1,0.3,0.3
		c0,0.3-0.1,0.6-0.2,0.8c-0.2,0.2-0.4,0.3-0.7,0.3c-0.2,0-0.7-0.1-1.5-0.2c-0.5,0-1-0.1-1.5-0.1v1.1c0.6,0,1.2,0,2,0.1
		c0.2,0,0.4,0,0.7-0.1c0.4,0,0.6,0.2,0.6,0.6c0,0,0,0.1-0.1,0.1c-0.1,0.2-0.1,0.4-0.1,0.8c0,0.5-0.1,1.1-0.1,1.7
		c0,0.4,0,0.9,0.1,1.5c0,0.4-0.2,0.6-0.6,0.6C84.9,41.1,84,41,83.2,41l0,1.1H86c0.1,0,0.2,0.1,0.2,0.3c0,0.3-0.1,0.5-0.2,0.6
		c-0.2,0.2-0.4,0.3-0.7,0.3c-0.1,0-0.5,0-1.1-0.1c-0.3,0-0.7,0-1.1,0v1.1c1.2-0.2,2.1-0.3,2.8-0.4c0.2,0,0.2,0.1,0.2,0.4
		c0,0.3-0.1,0.5-0.3,0.6c-2.5,0.5-4.9,1.1-7.1,1.8c-0.4,0-0.7-0.2-0.7-0.6c0-0.3,0.1-0.6,0.2-0.7c0.1-0.1,0.3-0.2,0.7-0.3
		c1.2-0.2,2.2-0.4,3.1-0.5v-1.3c-1,0-1.8,0.1-2.3,0.2c-0.3,0.1-0.5,0.2-0.6,0.2c-0.3,0-0.5-0.3-0.6-0.7c0-0.2,0.1-0.4,0.3-0.6
		c0.2-0.1,0.4-0.2,0.7-0.2H82V41c-1,0-1.7,0-2,0.1c-0.3,0-0.6,0.1-1,0.2c-0.4,0-0.6-0.2-0.6-0.6c0.1-0.9,0.2-1.6,0.2-2.3
		c0-0.6-0.1-1.3-0.2-2.2c0-0.4,0.2-0.6,0.6-0.6c0.2,0,0.4,0,0.6,0c0.2,0,0.5,0,0.9,0H82v-1.1c-1.4,0-2.5,0.1-3.1,0.2
		c-0.4,0.1-0.6,0.2-0.8,0.2c-0.4,0-0.6-0.2-0.6-0.6c0-0.2,0.1-0.4,0.3-0.6c0.2-0.1,0.4-0.2,0.7-0.2H82l0-1.2c-0.3,0-0.5,0.1-0.8,0.1
		c-0.9,0.1-1.4,0.2-1.7,0.2c-0.3,0-0.6-0.1-0.9-0.4c-0.2-0.2-0.3-0.5-0.3-0.7c0-0.2,0.1-0.3,0.3-0.3c1.7,0,3.1-0.1,4.2-0.3
		c1.1-0.1,2.1-0.3,2.8-0.5C85.8,30.3,85.9,30.3,86,30.3z M82,40v-1.2c-0.8,0-1.5,0.1-2.1,0.1c-0.1,0-0.1,0-0.2,0
		c0,0.2,0,0.4-0.1,0.7c0,0.3,0.2,0.5,0.5,0.5C80.7,40.1,81.3,40,82,40z M79.8,37.9c0.1,0,0.1,0,0.2,0h2l0-1.2c-0.5,0-1.1,0-1.8,0
		c-0.3,0-0.4,0.1-0.4,0.4C79.8,37.3,79.8,37.6,79.8,37.9z M83.2,36.7l0,1.2h2c0,0,0.1,0,0.1,0v-1c0-0.1-0.1-0.2-0.2-0.2
		C84.6,36.7,83.9,36.7,83.2,36.7z M83.2,38.8v1.2c0.5,0,1.1,0,1.7,0.1c0.2,0,0.3-0.1,0.3-0.4v-1C84.5,38.8,83.8,38.8,83.2,38.8z
		 M90.3,35.2c0.2-1.5,0.3-2.9,0.4-4.1c0-0.4,0.2-0.6,0.6-0.6c0.4,0,0.6,0.2,0.6,0.7c0,0.1,0,0.4-0.1,0.9c-0.1,1.2-0.2,2.2-0.3,3.2
		h2.5c0.1,0,0.3-0.1,0.7-0.2c0.5,0,0.7,0.3,0.7,0.8c-0.3,1.8-0.5,3.6-0.6,5.4c-0.1,2.5-0.5,4.1-1.2,4.8c-0.5,0.7-1.2,1.1-2,1.1
		c-0.4,0-0.6-0.2-0.9-0.5c-0.2-0.3-0.2-0.6-0.2-0.9c0-0.3,0.1-0.4,0.3-0.5c1.1-0.1,1.8-0.4,2.1-0.9c0.4-0.5,0.7-2.1,1-4.7
		C93.9,38,94,37,94,36.7c0-0.3-0.1-0.4-0.2-0.4h-2.5c-0.2,1.2-0.4,2.2-0.5,3c-0.3,1.5-0.7,3-1.3,4.3c-0.4,1.1-1,2.1-1.8,2.9
		c-0.3,0.3-0.5,0.5-0.8,0.5c-0.2,0-0.4-0.1-0.7-0.4c-0.2-0.3-0.4-0.6-0.4-0.9c0-0.2,0.1-0.4,0.2-0.4c0.7-0.3,1.3-0.8,1.7-1.4
		c0.5-0.8,1-2,1.5-3.6c0.3-1.2,0.6-2.5,0.8-4c-0.5,0-1,0.1-1.4,0.2c-0.4,0.1-0.7,0.2-0.8,0.2c-0.3,0-0.5-0.2-0.5-0.5
		c0-0.5,0.2-0.8,0.6-0.9C88.4,35.2,89.1,35.2,90.3,35.2z"/>
	<path class="st0" d="M102.9,35.3h3c0-0.1,0-0.2,0-0.3c0-0.5,0.2-0.7,0.7-0.7c0.4,0,0.6,0.2,0.6,0.6c0,0.1,0,0.3-0.1,0.4h4
		c0.2,0,0.3,0.1,0.3,0.3c0,0.3-0.1,0.6-0.2,0.8c-0.2,0.2-0.4,0.3-0.7,0.3c-0.2,0-0.7-0.1-1.4-0.2c-0.6,0-1.3-0.1-2-0.1l0,1.4h3.6
		c0.1,0,0.2,0.1,0.2,0.3c0,0.3-0.1,0.5-0.2,0.7c-0.2,0.2-0.4,0.3-0.7,0.3c-0.2,0-0.6,0-1.3-0.1c-0.5,0-1.1,0-1.7,0v0
		c0,0.4-0.1,0.9-0.1,1.4h5.7c0.2,0,0.3,0.1,0.3,0.3c0,0.3-0.1,0.6-0.2,0.8c-0.2,0.2-0.4,0.3-0.7,0.3c-0.3,0-0.9-0.1-2-0.2
		c-0.7,0-1.5-0.1-2.3-0.1l0,0c2.9,2,4.7,3.1,5.4,3.3c0.4,0.1,1,0.2,1.6,0.3c0.3,0,0.4,0.1,0.4,0.4c0,0.4-0.2,0.7-0.7,1.1
		c-0.5,0.4-0.9,0.5-1.4,0.5c-0.3,0-0.6-0.2-1-0.5c-1.1-1.2-2.4-2.3-3.9-3.5c-0.6-0.5-1.1-0.8-1.6-1c0,0.1-0.1,0.2-0.1,0.3
		c-0.6,1.5-1.5,2.6-2.7,3.3c-1.3,0.7-2.5,1-3.7,1c-0.4,0-0.7-0.2-1-0.5c-0.3-0.3-0.4-0.6-0.4-1c0-0.3,0.1-0.5,0.3-0.5
		c0.4,0.1,0.7,0.1,1,0.1c1.5,0,2.6-0.3,3.5-0.8c0.9-0.6,1.6-1.4,2-2.5c0,0,0-0.1,0.1-0.1c-1.6,0-2.7,0.1-3.5,0.2
		c-0.5,0.1-0.9,0.2-1,0.2c-0.4,0-0.7-0.3-0.7-0.7c0-0.2,0.1-0.4,0.3-0.6c0.2-0.1,0.4-0.2,0.8-0.2h4.4c0.1-0.4,0.2-0.9,0.2-1.4
		c-1.1,0-1.9,0.1-2.4,0.2c-0.3,0.1-0.6,0.2-0.7,0.2c-0.4,0-0.6-0.2-0.6-0.6c0-0.2,0.1-0.5,0.3-0.6c0.2-0.1,0.4-0.2,0.7-0.2h2.7
		c0-0.1,0-0.3,0-0.4c0-0.3,0-0.7,0-1c-1.3,0-2.2,0.1-2.8,0.2c-0.4,0.1-0.6,0.2-0.7,0.2c-0.4,0-0.6-0.2-0.6-0.6
		c0-0.2,0.1-0.4,0.3-0.6C102.4,35.3,102.6,35.3,102.9,35.3z M106.5,30.1c0.5,0,0.8,0.3,0.8,0.9c-0.1,0.5-0.2,0.9-0.2,1.3
		c2.2,0,4.2,0.1,5.9,0.3l0.9-0.2c0.4,0,0.6,0.2,0.6,0.5c0,0.1,0,0.3-0.1,0.5c-0.2,0.6-0.4,1.6-0.5,2.8c0,0.4-0.2,0.6-0.6,0.6
		c-0.4,0-0.6-0.2-0.6-0.6c0-0.8,0.1-1.4,0.2-2.1c0,0-0.1-0.1-0.3-0.2c-1.6-0.3-3.5-0.4-5.5-0.4c-2,0-3.9,0.1-5.7,0.3
		c-0.5,0-0.8,0.2-0.9,0.4l0,0.1c0,1.2-0.1,1.9-0.3,2.2c-0.1,0.2-0.3,0.4-0.6,0.4c-0.3,0-0.4-0.1-0.4-0.3c0-1.5-0.1-2.8-0.3-3.9
		c0-0.4,0.2-0.6,0.6-0.6c0.3,0,0.5,0,0.7,0.1c0.2,0.1,0.4,0.2,0.6,0.2c1.3-0.1,3-0.1,5.1-0.1c0,0,0.1,0,0.1,0
		c-0.1-0.4-0.1-0.8-0.3-1.2C105.7,30.4,106,30.1,106.5,30.1z"/>
	<path class="st0" d="M117.9,42.9c0.3,0.1,0.6,0.1,0.7,0.1c0.4,0,0.9-0.2,1.5-0.6c0.1,0,0.2,0.1,0.2,0.3c0,0.2-0.2,0.6-0.7,1.2
		c-0.4,0.7-0.8,1-1.1,1c-0.2,0-0.5-0.1-0.6-0.4c-0.2-0.4-0.3-0.8-0.3-1.2C117.6,43.1,117.7,42.9,117.9,42.9z M122,30.3
		c0.4,0,0.6,0.2,0.6,0.7c0,0.3-0.1,0.7-0.3,1c-0.7,1.1-1.4,2-2.1,2.7c-0.1,0.1-0.2,0.3-0.2,0.5c0,0,0.1,0.1,0.4,0.3
		c0.2,0.1,0.5,0.3,0.8,0.6c0,0,0.1,0,0.1,0.1c0.6-0.8,1.2-1.5,1.8-2.3c0.1-0.1,0.2-0.2,0.4-0.2c0.1,0,0.2,0.1,0.3,0.2
		c0.1,0.1,0.1,0.3,0.1,0.5c0,0.2-0.1,0.4-0.2,0.5c-1.1,1.3-2.2,2.7-3.3,4.1c-0.1,0.1-0.1,0.2-0.1,0.4c0,0,0,0.1,0.1,0.1
		c0.1,0,0.5,0.1,1,0.1c0.7,0,1.4,0,1.9-0.1c0.1,0,0.2-0.1,0.2-0.3c-0.2-0.5-0.4-0.9-0.6-1.3c-0.1-0.1-0.1-0.2-0.1-0.3
		c0-0.1,0-0.2,0.1-0.4c0.1-0.1,0.2-0.2,0.4-0.2c0.1,0,0.2,0.1,0.3,0.3c0.2,0.5,0.5,1.1,0.8,1.8c0.1,0.3,0.2,0.6,0.2,0.8
		c0,0.4-0.2,0.7-0.6,0.7c-0.2-0.1-0.4-0.1-0.6-0.1c-0.3,0-0.6,0-0.8,0c0,0.1,0,0.3,0,0.4c-0.1,0.7-0.1,1.3-0.1,1.8l0.1,2.9
		c0,1-0.2,1.5-0.7,1.5c-0.4,0-0.6-0.5-0.6-1.5c0.1-1.2,0.1-2.2,0.1-2.9c0-0.5,0-1.1-0.1-1.8c0-0.1,0-0.2,0-0.4c-0.4,0-0.8,0-1.2-0.1
		c-0.3,0-0.7,0-1,0.1c-0.5,0-0.7-0.2-0.7-0.6c0-0.2,0.1-0.5,0.2-0.7c0.7-0.8,1.3-1.6,2-2.3c-0.1,0-0.1,0-0.1-0.1
		c-0.9-0.5-1.6-0.8-2-0.9c-0.2,0-0.4-0.2-0.4-0.4c0-0.2,0.1-0.4,0.3-0.6c0.4-0.2,0.7-0.6,1.1-1.1c0.8-0.8,1.5-1.9,2.1-3.2
		C121.7,30.4,121.9,30.3,122,30.3z M123.5,42.4c0.1,0,0.2,0,0.3,0.1c0.3,0.4,0.6,0.7,1,0.8c0.2,0.1,0.3,0.2,0.3,0.4
		c0,0.3-0.1,0.5-0.3,0.7c-0.2,0.2-0.4,0.3-0.7,0.3c-0.2,0-0.4-0.3-0.6-0.8c-0.2-0.5-0.3-0.8-0.3-1C123.3,42.5,123.4,42.4,123.5,42.4
		z M130.1,30.2c0.4,0,0.6,0.2,0.6,0.7v0.7h4.1c0.1,0,0.2,0.1,0.2,0.3c0,0.3-0.1,0.5-0.2,0.7c-0.2,0.2-0.4,0.3-0.7,0.3
		c-0.2,0-0.7,0-1.6-0.1c-0.6,0-1.3,0-2,0l0,1h3.2c0.1,0,0.2,0.1,0.2,0.3c0,0.3-0.1,0.5-0.2,0.7c-0.2,0.2-0.4,0.3-0.7,0.3
		c-0.2,0-0.6-0.1-1.2-0.2c-0.4,0-0.9-0.1-1.4-0.1v1c0.7,0,1.4,0.1,2.2,0.3c0.9,0.1,1.7,0.2,2.5,0.2c0.3,0,0.5,0,0.8-0.1
		c0.1,0,0.1,0.1,0.1,0.3c0,0.4-0.1,0.8-0.2,1.2c-0.2,0.4-0.4,0.6-0.6,0.6c-0.2,0-0.5-0.1-0.7-0.2c-1-0.5-1.9-0.8-2.7-1
		c-0.6-0.1-1.4-0.2-2.4-0.2c-0.9,0-1.7,0.1-2.3,0.3c-0.7,0.2-1.4,0.6-2.1,0.9c-0.2,0.1-0.4,0.2-0.5,0.2c-0.4,0-0.5-0.3-0.6-0.7
		c0-0.2,0.1-0.4,0.3-0.6c0.2-0.2,0.4-0.3,0.6-0.3c2.1-0.5,3.6-0.7,4.5-0.7l0-0.9c-1.1,0-1.9,0.1-2.4,0.2c-0.3,0.1-0.5,0.2-0.6,0.2
		c-0.3,0-0.5-0.2-0.6-0.6c0-0.2,0.1-0.4,0.3-0.6c0.2-0.1,0.4-0.2,0.7-0.2h2.6l0-1c-1.4,0-2.4,0.1-3.1,0.2c-0.4,0.1-0.7,0.2-0.8,0.2
		c-0.3,0-0.5-0.2-0.6-0.6c0-0.2,0.1-0.4,0.3-0.6c0.2-0.1,0.4-0.2,0.7-0.2h3.4l0-0.8C129.5,30.4,129.7,30.2,130.1,30.2z M125.7,45.3
		c0.3,0.1,0.6,0.1,0.7,0.1c0.5,0,1.1-0.2,1.8-0.6c0.1,0,0.2,0.1,0.2,0.3c0,0.2-0.2,0.6-0.7,1.2c-0.5,0.6-0.9,0.9-1.3,0.9
		c-0.2,0-0.4-0.1-0.6-0.4c-0.2-0.3-0.3-0.7-0.3-1.1C125.5,45.4,125.6,45.3,125.7,45.3z M127.1,37.5c0.2,0,0.4,0,0.5,0
		c0.2,0,0.4,0,0.8,0h2.3c0.5,0,1.1,0,1.9,0.1c0.2,0,0.4,0,0.6-0.1c0.4,0,0.6,0.2,0.6,0.6c0,0,0,0.1-0.1,0.2
		c-0.1,0.2-0.1,0.6-0.1,1.1c0,0.7-0.1,1.4-0.1,2.2c0,0.5,0,1.3,0.1,2.2c0,0.4-0.2,0.7-0.5,0.7c-1.2-0.1-2.4-0.2-3.3-0.2
		c-1,0-1.7,0-1.9,0.1c-0.2,0-0.5,0.1-0.9,0.2c-0.3,0-0.5-0.2-0.5-0.7c0.1-1.1,0.2-2.1,0.2-2.9c0-0.8-0.1-1.8-0.2-3
		C126.6,37.7,126.7,37.5,127.1,37.5z M129.8,43.5c0.7,0,1.6,0,2.5,0.1c0.2,0,0.3-0.1,0.3-0.4v-0.7c0,0-0.1,0-0.1,0
		c-2,0-3.5,0.1-4.6,0.2c-0.1,0-0.1,0-0.2,0c0,0.2,0,0.3,0,0.5c0,0.3,0.1,0.5,0.4,0.5C128.6,43.5,129.2,43.5,129.8,43.5z M127.8,41.7
		c0.1,0,0.2,0,0.3,0h4.5c0,0,0.1,0,0.1,0v-1c-2,0-3.6,0.1-4.7,0.2c0,0-0.1,0-0.1,0C127.8,41.1,127.8,41.4,127.8,41.7z M127.8,39.8
		c0.1,0,0.2,0,0.2,0h4.5v-0.9c0-0.1-0.1-0.2-0.2-0.2c-1-0.1-2.4-0.1-4.3-0.1c-0.2,0-0.3,0.1-0.3,0.4
		C127.8,39.3,127.8,39.5,127.8,39.8z M132,44.7c0,0,0,0,0.1,0c0.6,0.3,1.1,0.5,1.4,0.6c0.2,0.1,0.6,0.1,1,0.1c0.1,0,0.2,0.1,0.2,0.3
		c0,0.3-0.1,0.5-0.4,0.7c-0.5,0.4-0.9,0.6-1.2,0.6c-0.1,0-0.2,0-0.2-0.1c-0.1-0.2-0.5-0.7-1.1-1.7c0-0.1-0.1-0.2-0.1-0.2
		C131.8,44.8,131.8,44.7,132,44.7z"/>
	<path class="st0" d="M152.6,36.1c0,0.3-0.3,0.6-0.8,1c-1.2,0.9-2.9,2-5.1,3.4c0,0.1,0,0.4,0,0.8c0,0.3,0,0.6,0,0.8
		c0,0.5-0.2,0.7-0.7,0.7c-0.3,0-0.4-0.2-0.5-0.6c0-0.1,0-0.4,0-1c-0.8,0.5-1.4,0.8-1.7,1.1c-0.7,0.6-1.1,1.1-1.1,1.7
		c0,0.4,0.3,0.6,1,0.8c0.5,0.1,1,0.2,1.5,0.2c1.5,0,2.8-0.3,4-0.8c0.9-0.4,1.4-0.6,1.4-0.6c0.1,0,0.2,0.1,0.2,0.4
		c0,0.5-0.1,1-0.4,1.5c-0.2,0.4-0.7,0.6-1.6,0.8c-0.7,0.1-1.4,0.1-2.3,0.1c-1.1,0-2.1-0.1-2.9-0.4c-1.3-0.4-1.9-1.1-1.9-2
		c0-0.8,0.5-1.6,1.4-2.4c0.1-0.2,0.9-0.7,2.2-1.7c0-0.9-0.1-1.4-0.1-1.6c-0.1-0.6-0.5-0.9-1.1-0.9c-0.7,0-1.4,0.2-1.9,0.5
		c-0.2,0.1-0.8,0.6-1.7,1.4c-0.1,0.1-0.2,0.2-0.4,0.3c-0.4,0-0.6-0.3-0.6-0.9c0-0.4,0.4-0.9,1.2-1.4c1.1-0.8,2.1-1.8,3-3.2
		c-0.4,0.1-1.1,0.2-2,0.3c0,0-0.3,0.1-0.8,0.2c-0.4,0.1-0.6,0.2-0.8,0.2c-0.3,0-0.5-0.2-0.5-0.7c0-0.6,0.4-0.9,1.2-1
		c0.7,0,1.9-0.1,3.3-0.1c0.1-0.3,0.4-0.9,0.8-1.9c0.2-0.5,0.4-0.7,0.8-0.7c0.5,0,0.7,0.2,0.7,0.7c0,0.2-0.3,0.8-0.9,1.9
		c0.4,0,1.1,0,1.9,0c0.9,0,1.5,0,1.9,0c0.1,0,0.3,0,0.5,0c0.2,0,0.4-0.1,0.5-0.1c0.1,0,0.2,0.1,0.2,0.2c0,0.3-0.2,0.6-0.4,1
		c-0.3,0.4-0.5,0.6-0.8,0.6c-0.2,0-0.5-0.1-0.8-0.2c-0.3-0.1-0.5-0.1-0.8-0.2c-0.6-0.2-1.6-0.3-2.8-0.3c-0.6,1-1.3,1.9-1.9,2.6
		c0.5-0.1,1-0.1,1.4-0.1c1.1,0,1.8,0.8,1.8,2.3c0,0.2,0,0.3,0.1,0.4c1.8-1.3,3.3-2.4,4.4-3.3c0.4-0.3,0.7-0.4,0.9-0.4
		C152.4,35.4,152.6,35.6,152.6,36.1z"/>
	<path class="st0" d="M169.2,43c-0.2,1.3-0.7,2.1-1.6,2.4c-0.3,0.1-1.2,0.2-2.7,0.2c-1.8,0-3.2-0.2-4.4-0.6
		c-1.9-0.6-2.9-1.7-2.9-3.2c0-0.4,0.1-0.9,0.3-1.4c0.2-0.6,0.6-0.9,0.9-0.9c0.1,0,0.2,0.1,0.2,0.3c-0.1,0.1-0.2,0.4-0.4,0.9
		c-0.1,0.3-0.2,0.7-0.2,1c0,1.3,1.3,2,3.9,2c2,0,3.7-0.2,4.9-0.6c1.1-0.3,1.7-0.5,1.7-0.5C169.1,42.7,169.1,42.8,169.2,43z
		 M166.6,34.2c0,0.3-0.3,0.5-0.7,0.8c-2.2,1.2-3.3,1.8-3.5,1.8s-0.2-0.1-0.2-0.3c0-0.3,0.3-0.6,1-1.1c0.7-0.5,1.1-0.8,1.1-0.9
		c-0.1,0-0.3-0.1-0.7-0.1c-1.3,0-2.3,0-2.9,0.1c-0.1,0-0.3,0.1-0.7,0.2c-0.3,0-0.5,0.1-0.7,0.1c-0.4,0-0.6-0.2-0.6-0.5
		c0-0.6,0.2-0.9,0.7-1.1c0.5-0.2,1.3-0.2,2.3-0.2h1.3C165.3,33,166.4,33.4,166.6,34.2z M170.4,33c0,0.1-0.1,0.4-0.4,0.7
		c-0.2,0.3-0.4,0.5-0.5,0.5c-0.2,0-0.6-0.3-1.2-1c-0.6-0.7-0.8-1.1-0.8-1.3c0-0.2,0.1-0.3,0.2-0.3c0.5,0.2,1.3,0.6,2.5,1.1
		C170.3,32.8,170.4,32.9,170.4,33z M173.4,31.7c0,0.1-0.1,0.4-0.4,0.7c-0.2,0.3-0.4,0.5-0.5,0.5c-0.3,0-0.7-0.3-1.3-1
		c-0.6-0.7-0.9-1.1-0.9-1.4c0-0.2,0.1-0.3,0.2-0.3c0.4,0.2,0.8,0.4,1.2,0.6c0.3,0.2,0.8,0.3,1.3,0.5
		C173.3,31.4,173.4,31.5,173.4,31.7z"/>
	<path class="st0" d="M174.6,42.9c0.3,0.1,0.6,0.1,0.7,0.1c0.4,0,1-0.2,1.6-0.6c0.2,0,0.2,0.1,0.2,0.3c0,0.2-0.2,0.6-0.7,1.2
		c-0.4,0.7-0.8,1-1.2,1c-0.2,0-0.5-0.1-0.6-0.4c-0.2-0.4-0.3-0.8-0.3-1.2C174.3,43.1,174.4,42.9,174.6,42.9z M178.9,29.9
		c0.4,0,0.6,0.3,0.6,0.8c0,0.3-0.1,0.7-0.4,1.1c-0.7,1.1-1.4,2.1-2.3,2.9c-0.2,0.1-0.2,0.3-0.2,0.5c0,0,0.1,0.2,0.4,0.3
		c0.2,0.1,0.5,0.4,0.9,0.7c0,0,0,0.1,0.1,0.1c0.7-0.9,1.5-1.8,2.2-2.6c0.1-0.1,0.2-0.1,0.4-0.1c0.1,0,0.2,0.1,0.3,0.2
		c0.1,0.1,0.1,0.3,0.1,0.5c0,0.2-0.1,0.4-0.2,0.5c-1.2,1.4-2.3,2.8-3.5,4.3c-0.1,0.1-0.1,0.2-0.1,0.4c0,0,0,0.1,0.1,0.1
		c0.1,0,0.5,0.1,1.1,0.1c0.8,0,1.5,0,2-0.1c0.1,0,0.2-0.1,0.2-0.3c-0.2-0.5-0.4-1-0.6-1.4c-0.1-0.1-0.1-0.2-0.1-0.3
		c0-0.1,0-0.2,0.1-0.4c0.1-0.1,0.3-0.2,0.4-0.2c0.1,0,0.2,0.1,0.3,0.4c0.3,0.5,0.6,1.1,0.9,1.8c0.1,0.3,0.2,0.6,0.2,0.8
		c0,0.5-0.2,0.8-0.6,0.8c-0.2-0.1-0.5-0.1-0.7-0.1c-0.4,0-0.8,0.1-1.1,0.1c0,0.1,0,0.2,0,0.4c-0.1,0.7-0.1,1.2-0.1,1.8l0.1,2.9
		c0,1-0.2,1.5-0.7,1.5c-0.4,0-0.6-0.5-0.6-1.5c0-1.2,0.1-2.2,0.1-2.9c0-0.5,0-1.1-0.1-1.8c0-0.1,0-0.3,0-0.4c-0.4,0-0.7,0-1.1-0.1
		c-0.3,0-0.7,0-1.1,0.1c-0.5,0-0.8-0.2-0.8-0.6c0-0.2,0.1-0.5,0.3-0.8c0.7-0.8,1.3-1.5,1.9-2.2c0,0,0,0-0.1,0c-0.9-0.6-1.6-1-2-1.1
		c-0.2-0.1-0.4-0.2-0.4-0.5c0-0.2,0.1-0.5,0.3-0.6c0.4-0.3,0.7-0.6,1.1-1.1c0.8-0.9,1.6-2,2.2-3.4C178.6,30,178.8,29.9,178.9,29.9z
		 M180.4,42.3c0.1,0,0.2,0,0.3,0.1c0.3,0.5,0.7,0.9,1.2,1.1c0.2,0.1,0.3,0.2,0.3,0.4c0,0.3-0.1,0.5-0.3,0.7
		c-0.2,0.2-0.4,0.2-0.7,0.2c-0.2,0-0.4-0.3-0.7-0.9c-0.3-0.6-0.4-1-0.4-1.2C180.2,42.4,180.3,42.3,180.4,42.3z M186.2,31.2h4.1
		c0.1,0,0.3-0.1,0.7-0.2c0.5,0,0.7,0.3,0.7,0.8c-0.3,1.1-0.4,2.2-0.5,3.3c-0.1,1.5-0.5,2.5-1,3c-0.4,0.4-1,0.6-1.7,0.6
		c-0.3,0-0.6-0.2-0.8-0.5c-0.1-0.3-0.2-0.6-0.2-0.8c0-0.3,0.1-0.4,0.3-0.5c0.9,0,1.4-0.2,1.7-0.5c0.3-0.3,0.6-1.1,0.8-2.4
		c0.1-0.8,0.1-1.3,0.1-1.5c0-0.2-0.1-0.4-0.2-0.4h-3c0,0,0,0.1,0,0.1c0,0,0,0.1-0.1,0.2c-0.2,0.9-0.6,1.9-1.1,3
		c-0.6,1-1.1,1.8-1.8,2.4c-0.4,0.4-0.7,0.6-1,0.6c-0.2,0-0.4-0.1-0.7-0.3c-0.3-0.3-0.5-0.7-0.5-1c0-0.2,0.2-0.4,0.6-0.5
		c0.7-0.1,1.4-0.6,2.1-1.4c0.6-0.8,1-1.8,1.3-3c-0.6,0-1.1,0.1-1.7,0.2c-0.5,0.1-0.8,0.2-0.9,0.2c-0.3,0-0.5-0.2-0.5-0.5
		c0-0.5,0.2-0.9,0.6-0.9C184,31.3,184.8,31.2,186.2,31.2z M183.9,39.8c0.2,0,0.4,0,0.6,0.1c0.2,0.1,0.5,0.1,0.8,0.1h2.5
		c0.6,0,1.2,0,2,0.1c0.2,0,0.4-0.1,0.7-0.2c0.4,0,0.6,0.3,0.6,0.8c0,0,0,0.1-0.1,0.2c-0.1,0.2-0.1,0.5-0.1,1c0,0.6-0.1,1.3-0.1,2.1
		c0,0.4,0,1,0.1,1.8c0,0.6-0.2,0.8-0.6,0.8c-1.3-0.2-2.4-0.3-3.4-0.3c-1.1,0-1.8,0-2.2,0.1c-0.3,0-0.6,0.1-0.9,0.2
		c-0.4,0-0.6-0.2-0.6-0.7c0.1-1,0.1-1.9,0.1-2.7c0-0.8,0-1.7-0.1-2.7C183.3,40.1,183.5,39.8,183.9,39.8z M187,45.2
		c0.8,0,1.6,0,2.5,0.1c0.2,0,0.3-0.1,0.3-0.4v-3.4c0-0.2-0.1-0.3-0.2-0.3c-1.1-0.1-2.6-0.1-4.6-0.1c-0.3,0-0.4,0.2-0.4,0.5
		c0,1.1-0.1,2.2-0.2,3.2c0,0.3,0.2,0.5,0.5,0.5C185.6,45.2,186.2,45.2,187,45.2z"/>
	<path class="st0" d="M203.6,30.3c0.3,0,0.4,0.2,0.4,0.5c0.2,0,0.6,0.2,1,0.6c2.9,2.1,4.7,3.3,5.4,3.6c0.5,0.1,1,0.2,1.7,0.3
		c0.3,0,0.4,0.1,0.4,0.4c0,0.3-0.2,0.7-0.7,1.1c-0.5,0.4-0.9,0.5-1.4,0.5c-0.3,0-0.7-0.2-1-0.5c-1.2-1.2-2.5-2.5-4-3.7
		c-0.6-0.5-1.2-0.9-1.7-1.1c-0.1-0.1-0.2-0.1-0.3-0.2c-1,1.2-2.2,2.3-3.4,3.2c-1,0.8-2.2,1.4-3.5,1.9c-0.3,0.1-0.5,0.1-0.6,0.1
		c-0.3,0-0.7-0.2-1-0.7c-0.3-0.4-0.5-0.7-0.5-0.9c0-0.2,0.2-0.4,0.6-0.4c1-0.1,1.7-0.2,2.2-0.4c1.1-0.3,2.2-0.8,3.3-1.5
		c1.1-0.8,2-1.6,2.7-2.6C203.3,30.4,203.4,30.3,203.6,30.3z M200.9,36c0.5,0,0.7,0.3,0.7,0.8c0,1.6,0,2.7-0.1,3.5
		c0,2.5-0.3,4.3-1,5.2c-0.7,1-1.4,1.5-2.1,1.5c-0.3,0-0.7-0.2-1-0.6c-0.2-0.3-0.3-0.5-0.3-0.7c0-0.2,0.1-0.2,0.4-0.3
		c1-0.1,1.8-0.6,2.3-1.5c0.4-0.7,0.6-2,0.6-3.9c0-1-0.1-2.1-0.2-3.2C200.3,36.2,200.5,36,200.9,36z M206,36c0.4,0,0.6,0.3,0.6,0.9
		c0,1.1-0.1,2.1-0.1,2.9l0.2,5.7c0,1-0.2,1.5-0.7,1.5c-0.4,0-0.6-0.5-0.6-1.5c0-2.4-0.1-4.4-0.1-5.7c0-0.9,0-1.8-0.1-2.9
		C205.3,36.3,205.6,36,206,36z"/>
	<path class="st0" d="M228,41.3c0,0.5-0.1,1-0.3,1.6c-0.4,1-1.4,1.9-3,2.5c-1.3,0.5-2.6,0.8-3.8,0.8c-1.4,0-2.4-0.7-2.9-2.1
		c-0.3-0.9-0.4-3.2-0.4-6.8c0-3.6,0.1-5.6,0.2-5.8s0.4-0.4,0.7-0.4c0.5,0,0.7,0.4,0.7,1.1c0,0.2,0,0.9-0.1,2.1
		c-0.2,1.9-0.3,3.7-0.3,5.3c0,1.4,0,2.3,0.1,2.6c0.1,1.2,0.3,2,0.8,2.3c0.3,0.2,0.7,0.3,1.2,0.3c1,0,2.1-0.3,3.3-1
		c1.1-0.6,2.1-1.4,2.9-2.3c0.5-0.6,0.8-0.9,0.9-0.9C227.9,40.6,228,40.8,228,41.3z"/>
	<path class="st0" d="M246.4,44.1c-0.1,0.3-0.3,0.7-0.7,1.2c-0.4,0.5-0.7,0.8-0.9,0.8c-0.3,0-0.9-0.3-1.7-0.9
		c-0.5-0.4-1-0.8-1.5-1.2c-0.4-0.3-1-0.6-1.7-0.9c-0.1,2-1.2,3-3.2,3c-0.7,0-1.4-0.2-1.9-0.6c-0.7-0.4-1-1.1-1-1.9
		c0-0.9,0.4-1.5,1.1-1.9c0.6-0.3,1.2-0.5,2.1-0.5c0.5,0,1.2,0.1,1.9,0.3c0-0.4,0-0.9,0-1.5c0-0.8,0-1.3,0-1.5c0,0,0,0,0-0.1
		c0-0.1,0-0.1,0-0.1c-1.3,0.1-2.4,0.2-3.3,0.4c-0.1,0-0.2,0-0.3,0.1c-0.1,0.1-0.2,0.1-0.3,0.1c-0.3,0-0.5-0.2-0.5-0.7
		c0-0.5,0.4-0.9,1.1-0.9c0.6-0.1,1.7-0.2,3.3-0.2c0-0.8,0-1.8,0-3c-1.1,0-1.8,0.1-1.9,0.1c-0.7,0.1-1.4,0.2-1.9,0.3
		c-0.5,0.2-0.8,0.2-0.8,0.2c-0.5,0-0.7-0.3-0.7-0.9c0-0.2,0.1-0.4,0.2-0.5c0.2-0.2,1.9-0.3,5.2-0.3c0-1.1-0.1-1.8-0.1-1.9
		c0-0.6,0.2-0.9,0.7-0.9c0.5,0,0.8,0.3,0.8,0.9c0,0.5,0,1.2-0.1,1.9c2.5,0.1,4.1,0.2,4.9,0.2c0.3,0,0.4,0.1,0.4,0.2
		c0,0.3-0.1,0.6-0.3,1c-0.2,0.4-0.4,0.6-0.6,0.6c0.1,0-0.3-0.1-1-0.4c-0.7-0.2-1.9-0.4-3.5-0.5c0,1,0,2,0,2.9c1.6,0,2.9,0.1,4.1,0.3
		c0.1,0,0.2,0,0.2,0.1c0,0,0.1,0.1,0.1,0.2c0,0.3-0.1,0.5-0.2,0.8c-0.2,0.3-0.3,0.5-0.5,0.5c0,0-0.5-0.1-1.3-0.3
		c-0.7-0.2-1.5-0.2-2.4-0.3c0,0.2,0,1.3-0.1,3.6c1.3,0.4,2.4,0.9,3.6,1.4c0.8,0.3,1.6,0.5,2.4,0.6C246.2,43.8,246.3,43.9,246.4,44.1
		z M238.9,42.6c-0.8-0.3-1.5-0.4-2.1-0.4c-1.4,0-2.1,0.5-2.1,1.4c0,0.4,0.3,0.8,0.8,1c0.4,0.2,0.8,0.3,1.2,0.3
		c0.7,0,1.2-0.2,1.6-0.6C238.5,44,238.8,43.4,238.9,42.6z"/>
	<path class="st0" d="M265.6,34.2c-0.1,0.3-0.3,0.8-0.6,1.2c-0.4,0.5-0.7,0.8-1,0.8c-0.3-0.1-0.7-0.3-1.2-0.6
		c-1.1-0.5-2.4-0.8-3.7-0.9c0,0.9,0,2.2-0.1,4c0.4,1.1,0.6,1.9,0.6,2.4c0,1-0.3,1.9-0.8,2.8c-0.5,0.8-1.1,1.5-1.9,1.9
		c-1,0.6-1.7,0.8-2.3,0.8c-0.3,0-0.7-0.2-1-0.6c-0.3-0.4-0.5-0.8-0.5-1.2c0-0.1,0.2-0.2,0.6-0.3c1.2-0.1,2-0.2,2.5-0.4
		c0.9-0.3,1.6-0.9,2-1.8c0.3-0.6,0.4-1.1,0.4-1.5c0,0,0-0.1,0-0.1c0-0.1,0-0.2,0-0.2c-0.3,0.5-0.6,0.9-1.1,1.2
		c-0.5,0.3-1,0.5-1.5,0.5c-0.7,0-1.3-0.3-1.8-0.8c-0.5-0.5-0.8-1.2-0.8-1.9c0-0.9,0.3-1.5,0.9-2c0.5-0.4,1.1-0.6,1.9-0.6
		c0.6,0,1.1,0.2,1.8,0.6c0-0.4,0-1.3,0-2.8c-2,0-3.9,0.3-5.5,0.9c-0.9,0.4-1.5,0.6-1.6,0.6c-0.4,0-0.7-0.3-0.7-0.9
		c0-0.5,0.5-0.9,1.6-1.2c0.7-0.1,1.3-0.2,2-0.3c1.2-0.2,2.5-0.3,4.1-0.3c-0.1-1.5-0.1-2.3-0.1-2.4c0-0.7,0.2-1,0.6-1
		c0.5,0,0.7,0.4,0.7,1.3c0,0.2,0,0.6,0,1.1c0,0.4,0,0.8,0,1c2.3,0.2,4.3,0.3,6,0.3C265.4,34,265.5,34.1,265.6,34.2z M258,39
		c-0.4-0.7-1-1-1.7-1c-0.5,0-0.9,0.1-1.2,0.4c-0.4,0.3-0.6,0.7-0.6,1.2c0,0.5,0.1,0.9,0.4,1.2c0.3,0.3,0.7,0.4,1.1,0.4
		C257.2,41.1,257.8,40.4,258,39z"/>
	<path class="st0" d="M274.2,44.7c0,0.8-0.2,1.5-0.7,2c-0.5,0.5-1,0.8-1.7,0.8c-0.7,0-1.3-0.3-1.7-0.8c-0.5-0.6-0.7-1.2-0.7-2
		c0-0.8,0.2-1.5,0.7-2c0.5-0.6,1.1-0.9,1.7-0.9c0.7,0,1.3,0.3,1.7,0.9C273.9,43.3,274.2,43.9,274.2,44.7z M273.4,44.7
		c0-0.5-0.2-1-0.5-1.4c-0.3-0.4-0.7-0.6-1.2-0.6c-0.4,0-0.8,0.2-1.2,0.6c-0.3,0.4-0.5,0.9-0.5,1.4s0.2,1,0.5,1.4
		c0.3,0.4,0.7,0.6,1.2,0.6c0.5,0,0.9-0.2,1.2-0.6C273.2,45.7,273.4,45.3,273.4,44.7z"/>
</g>
</svg>
