<?xml version="1.0" encoding="utf-8"?>
<!-- Generator: Adobe Illustrator 22.1.0, SVG Export Plug-In . SVG Version: 6.00 Build 0)  -->
<svg version="1.1" id="レイヤー_1" xmlns="http://www.w3.org/2000/svg" xmlns:xlink="http://www.w3.org/1999/xlink" x="0px"
	 y="0px" viewBox="0 0 481.6 162.2" style="enable-background:new 0 0 481.6 162.2;" xml:space="preserve">
<style type="text/css">
	.st0{fill:#515C63;}
	.st1{fill:#E55B39;}
	.st2{fill:#349E00;}
	.st3{fill:#F78C00;}
	.st4{fill:#00A2E9;}
</style>
<g>
	<g>
		<path class="st0" d="M10.2,139v-2.7c0-1,0-2.1,1.5-2.1c1.6,0,1.6,1,1.6,2.1v2.7h7c0.9,0,2.1,0,2.1,1.5c0,1.4-1.1,1.4-2.1,1.4h-7
			v4.4h6c0.8,0,1.2,0,1.6,0.5c0.3,0.3,0.4,0.7,0.4,1c0,0.4-0.3,0.9-0.6,1.1c-0.4,0.3-0.7,0.3-1.4,0.3h-6v4.9h8.3
			c0.9,0,1.4,0,1.7,0.5c0.2,0.3,0.4,0.8,0.4,1.1c0,0.3-0.2,1-0.5,1.2c-0.3,0.3-0.8,0.3-1.5,0.3H2.1c-0.9,0-1.4,0-1.7-0.5
			c-0.2-0.3-0.4-0.8-0.4-1.1c0-0.3,0.2-1,0.6-1.3c0.3-0.2,0.8-0.2,1.5-0.2h8.1v-4.9H4.6c-0.8,0-1.3,0-1.7-0.4
			c-0.3-0.3-0.4-0.7-0.4-1c0-0.4,0.2-0.9,0.6-1.2c0.4-0.3,0.8-0.3,1.5-0.3h5.7v-4.4H5.1c-1.2,2-2.2,2.9-2.5,3.1
			c-0.4,0.3-1,0.4-1.1,0.4c-0.6,0-1.5-0.5-1.5-1.5c0-0.6,0.1-0.8,1.2-2.3c0.8-0.9,2-3.3,2.3-4.2c0.6-1.8,0.7-2,1-2.3
			c0.2-0.2,0.4-0.2,0.7-0.2c0.7,0,1.8,0.4,1.8,1.4c0,0.6-0.4,1.7-0.8,2.7H10.2z"/>
		<path class="st0" d="M34.4,135.9c0-1.1,0.9-1.5,1.6-1.5c0.4,0,1,0.2,1.4,0.7c0.2,0.4,0.9,2.1,1.1,2.5c1.6-0.2,2.4-0.3,3.9-0.6
			c1.4-0.2,1.7-0.3,1.9-0.3c0.8,0,1.4,0.7,1.4,1.6c0,0.4-0.1,1.3-1.3,1.6c-1,0.3-3.6,0.6-4.3,0.6c0.2,0.4,0.6,1.1,0.9,1.6
			c1-0.1,1.9-0.3,4.5-0.9c0.1,0,0.4-0.1,0.7-0.1c0.7,0,1.4,0.7,1.4,1.6c0,1.5-0.8,1.8-4.8,2.3c0.5,0.8,1.1,1.7,1.6,2.2
			c0.8,0.8,1.3,1.3,1.3,2.3c0,1.6-1.7,1.9-2.1,1.9c-0.5,0-1.5-0.3-1.8-0.4c-2-0.7-4.2-1.1-6.4-1.1c-2,0-2.6,0.3-3.1,0.8
			c-0.3,0.2-0.4,0.6-0.4,1c0,2.1,5.2,2.1,6.7,2.1c0.7,0,1.9,0,3.2-0.1c0.2,0,0.5,0,0.8,0c1,0,1.5,0.8,1.5,1.6c0,0.2,0,1.2-1,1.5
			c-0.5,0.2-2.4,0.5-4.5,0.5c-3.8,0-6.3-0.6-7.6-1.3c-2.6-1.3-2.8-3.5-2.8-4.2c0-2.4,2.3-3.9,3.8-4.3c1.4-0.4,2.9-0.4,4.3-0.4
			c2.7,0,3.8,0.3,4.6,0.6c-0.5-0.4-0.9-0.8-1.7-2.2c-2.8,0.3-5.7,0.5-8.5,0.5c-2.1,0-2.6-0.1-3.1-0.4c-0.6-0.5-0.7-1.1-0.7-1.4
			c0-1.1,0.8-1.6,1.7-1.6c0.5,0,1.9,0.1,2.5,0.1c0.5,0,1.1,0.1,2.3,0.1c1.3,0,2.7-0.1,4.1-0.1c-0.4-0.7-0.6-1.1-0.9-1.7
			c-1.7,0-3.9,0.1-5.1,0.1c-0.9,0-2.3,0-2.7-0.1c-0.7-0.2-1.2-0.8-1.2-1.5c0-0.5,0.2-0.9,0.5-1.2c0.3-0.3,0.7-0.4,1.3-0.4
			c1,0,2.6,0,3.6,0c1,0,1.6,0,2.1,0C34.5,136.6,34.4,136.2,34.4,135.9z"/>
		<path class="st0" d="M56.7,137.7c0.1-1.4,0.1-1.8,0.6-2.3c0.4-0.4,0.9-0.4,1.1-0.4c1,0,1.4,0.6,1.5,0.8c0.2,0.4,0.2,0.9,0.2,2
			l0,1.2l2.4,0c1.1,0,1.6-0.1,2,0.2c0.6,0.4,0.8,0.9,0.8,1.4c0,0.7-0.4,1.1-0.7,1.3c-0.4,0.3-0.8,0.3-2,0.3l-2.7,0.1l-0.1,2.5
			l3.1-0.1c1.4,0,1.7-0.1,2,0.2c0.7,0.4,0.8,0.9,0.8,1.4c0,0.4-0.1,0.8-0.4,1.2c-0.5,0.5-0.9,0.5-2.3,0.6l-3.3,0.1l-0.1,1.7
			c0,0.7,0,1.9,0.5,2.7c0.9,1.2,2.5,1.4,3.4,1.4c2.1,0,4.7-1.1,4.7-4.2c0-0.5-0.1-1.3-0.2-1.9c0-0.1-0.1-0.4-0.1-0.5
			c0-1.5,1.3-1.8,1.8-1.8c0.5,0,1,0.2,1.4,0.6c0.5,0.8,0.7,2.1,0.7,3c0,3.9-2.4,8-8.5,8c-3.3,0-5.9-1.4-6.7-3.3
			c-0.4-1.1-0.6-2.4-0.5-3.9l0-1.7l-2.7,0.1c-1.4,0-1.8,0-2.3-0.4c-0.3-0.3-0.5-0.7-0.5-1.3c0-0.7,0.3-1.1,0.7-1.4
			c0.4-0.3,0.8-0.3,2-0.3l2.9-0.1l0.1-2.5l-2.5,0.1c-1.1,0-1.6,0-1.9-0.2c-0.6-0.4-0.8-0.9-0.8-1.4c0-0.6,0.3-1.1,0.7-1.4
			c0.4-0.3,0.9-0.3,2-0.3l2.6,0L56.7,137.7z"/>
		<path class="st0" d="M84.3,139.5c0,1.2,0,3.6-1,7.2c-0.4,1.6-1.3,4.3-2.6,4.3c-1.1,0-2.4-1.5-2.4-4
			C78.2,144.5,79.6,140.4,84.3,139.5z M87.6,139.1c0.7,0.1,2.2,0.4,4,1.6c1.9,1.3,2.5,3.8,2.5,5.4c0,3-2,6.1-5.4,6.6
			c-0.2,0-1.4,0.1-1.6,0.2c-1.4,0.2-1.4,1.6-1.4,1.7c0,0.5,0.2,1,0.5,1.3c0.5,0.5,1.1,0.5,1.4,0.5c3.6,0,10-2.6,10-10.2
			c0-3.2-1.1-5.9-3.8-8c-2.6-2-5.3-2.1-6.7-2.1c-6.8,0-12.1,4.7-12.1,11.2c0,3.8,2.2,7.5,5.7,7.5c2.5,0,4.1-2,5.1-4.2
			C87.8,145.8,87.6,141.2,87.6,139.1z"/>
		<path class="st0" d="M104,139.1c-1-2.3-1-2.3-1-2.8c0-0.9,0.8-1.6,1.9-1.6s1.4,0.5,2,1.9c0.9,2,1.7,3.9,2.4,6c0.7-0.3,4.9-2,6.9-2
			c1.2,0,1.7,1,1.7,1.7c0,1.5-1.2,1.7-1.8,1.9c-2.3,0.5-3.7,0.9-5.7,1.6c-2.7,1-6.5,2.6-6.5,5.3c0,2.7,4.9,2.7,6.2,2.7
			c0.7,0,3.6,0,5.4-0.3c1-0.2,1.6-0.3,1.8-0.3c0.9,0,1.6,0.8,1.6,1.9c0,0.6-0.2,1.3-1,1.6c-0.6,0.3-3.3,0.6-6.7,0.6
			c-2.3,0-5.2-0.1-7-0.9c-0.8-0.3-4.1-1.6-4.1-5.3c0-3.9,3.8-5.9,5.8-7C105.4,142.3,104.7,140.6,104,139.1z"/>
		<path class="st0" d="M130,141.8h6.1v5.1H130V141.8z M127,146.9h-3.4c-1.3,0-2.1,0-2.1,1.5c0,1.4,1,1.4,2.1,1.4h19
			c1.2,0,2.1,0,2.1-1.6c0-1.4-1-1.4-2.1-1.4h-3.4v-5.1h2.8c1.3,0,2.1,0,2.1-1.6c0-1.4-1-1.4-2.1-1.4h-2.8v-2.4c0-1.3,0-2-1.6-2
			c-1.4,0-1.4,0.9-1.4,2v2.4H130v-2.4c0-0.9,0-2-1.5-2c-1.5,0-1.5,1.1-1.5,2v2.4h-2.9c-0.8,0-1.1,0-1.4,0.2
			c-0.4,0.3-0.6,0.8-0.6,1.3c0,0.4,0.1,0.8,0.4,1.1c0.4,0.4,0.6,0.4,1.7,0.4h2.9V146.9z M122.4,156.4c0.2,1.1,1,1.5,1.5,1.5
			c0.1,0,0.4,0,0.7-0.1c1.5-0.7,2.8-1.9,3.2-2.3c0.9-0.8,2.5-2.5,2.5-3.3c0-0.6-0.7-1.6-1.8-1.6c-0.5,0-0.7,0.2-1.2,0.7
			c-1.1,1.2-2.6,2.7-3.6,3.3C123,155,122.3,155.4,122.4,156.4z M136.2,151.7c-0.1,0.6-0.2,1,2.7,3.8c0.8,0.8,2.6,2.2,3.6,2.2
			c0.9,0,1.6-0.9,1.6-1.8c0-0.8-0.5-1.2-1-1.5c-2-1.2-3.2-2.6-3.7-3c-0.7-0.8-1-1-1.5-1C137.8,150.4,136.4,150.4,136.2,151.7z"/>
		<path class="st0" d="M156.6,139v-2.7c0-1,0-2.1,1.6-2.1s1.6,1,1.6,2.1v2.7h7c0.9,0,2.1,0,2.1,1.5c0,1.4-1.1,1.4-2.1,1.4h-7v4.4h6
			c0.8,0,1.3,0,1.6,0.5c0.3,0.3,0.4,0.7,0.4,1c0,0.4-0.3,0.9-0.6,1.1c-0.4,0.3-0.7,0.3-1.5,0.3h-6v4.9h8.3c0.9,0,1.4,0,1.7,0.5
			c0.2,0.3,0.4,0.8,0.4,1.1c0,0.3-0.3,1-0.6,1.2c-0.3,0.3-0.8,0.3-1.5,0.3h-19.5c-0.9,0-1.4,0-1.7-0.5c-0.2-0.3-0.4-0.8-0.4-1.1
			c0-0.3,0.2-1,0.6-1.3c0.3-0.2,0.7-0.2,1.5-0.2h8v-4.9H151c-0.8,0-1.3,0-1.7-0.4c-0.2-0.3-0.4-0.7-0.4-1c0-0.4,0.2-0.9,0.6-1.2
			c0.3-0.3,0.7-0.3,1.5-0.3h5.6v-4.4h-5.1c-1.1,2-2.2,2.9-2.4,3.1c-0.4,0.3-1,0.4-1.2,0.4c-0.6,0-1.5-0.5-1.5-1.5
			c0-0.6,0.1-0.8,1.3-2.3c0.8-0.9,2-3.3,2.3-4.2c0.6-1.8,0.7-2,1.1-2.3c0.2-0.2,0.4-0.2,0.7-0.2c0.7,0,1.8,0.4,1.8,1.4
			c0,0.6-0.4,1.7-0.8,2.7H156.6z"/>
		<path class="st0" d="M181.9,144.8c1,0,2.1,0.6,2.1,1.9c0,1.4-1.2,1.8-2,1.8c-1,0-2-0.6-2-1.8C179.9,145.3,181,144.8,181.9,144.8z
			 M184.2,137.4l-10.2,0.1c-1.2,0-1.8,0-2.3,0.5c-0.3,0.3-0.4,0.7-0.4,1.2c0,1.6,1.5,1.6,2,1.6l10.9-0.1v1.6
			c-0.4-0.2-1.4-0.6-2.7-0.6c-3,0-5.1,2.3-5.1,4.9c0,3.1,2.4,4.9,4.9,4.9c1,0,2.5-0.4,3.2-1.6c0,0.4-0.1,1-1.1,2
			c-1.1,1.1-2.2,1.4-4,2c-0.6,0.2-1.6,0.5-1.6,1.8c0,1.2,0.9,1.8,1.8,1.8c1.1,0,8.6-1.8,8.6-8.8c0-1.3-0.3-2.3-0.7-3.5v-4.5l3.6,0
			c1.3,0,1.8,0,2.3-0.5c0.3-0.3,0.4-0.7,0.4-1.2c0-1.5-1.2-1.6-2-1.6l-4.3,0V137c0-1.1,0-1.6-0.3-2c-0.3-0.4-0.7-0.8-1.5-0.8
			c-0.4,0-0.9,0.1-1.2,0.5c-0.5,0.5-0.5,0.8-0.5,2.2V137.4z"/>
		<path class="st0" d="M205.5,154.1c-0.3,0-0.4,0-0.7,0c-1.4,0-2.6-0.7-2.6-1.4c0-0.5,0.5-0.9,1.3-0.9
			C205.4,151.9,205.5,153.6,205.5,154.1z M205.1,144.1c2.5-1.4,5.2-3.1,6.1-3.8c0.8-0.6,1.6-1.2,1.6-2.5c0-2-2-2-2.4-2
			c-0.1,0-1.8,0.1-2.2,0.1c-2,0.1-4.1,0.2-6.2,0.2c-0.4,0-2.1,0-2.5,0c-0.6,0-1.1,0-1.5,0.2c-0.4,0.2-0.8,0.7-0.8,1.5
			c0,1,0.7,1.7,1.7,1.7c0.2,0,5.7-0.2,8.9-0.6c-1.2,0.8-2.4,1.6-3.4,2.1c-3.4,2.2-3.9,2.5-8.7,5.9c-0.6,0.4-1.3,1-1.3,1.9
			c0,1.1,0.8,1.8,1.7,1.8c0.7,0,1.2-0.4,1.6-0.6c0.4-0.2,2.2-1.5,2.6-1.8c0.3-0.2,2.6-1.7,6.6-1.7c1,0,2.1,0,3,0.5
			c1.9,0.9,2.1,2.6,2.1,3.1c0,1.3-0.8,2.6-3.1,3.5c-0.1-0.7-0.3-1.7-1-2.8c-1.1-1.5-3.1-1.8-4.3-1.8c-3.1,0-4.8,1.7-4.8,3.8
			c0,4.3,5.8,4.3,6.7,4.3c4.9,0,9.8-2.3,9.8-7.2c0-2.3-1.6-6.4-7.6-6.4C206.5,143.6,205.8,143.9,205.1,144.1z"/>
	</g>
	<g>
		<path class="st0" d="M236.8,146.6c0,0.3,0,0.3-0.1,0.3s-0.7-0.2-0.9-0.2c-0.9,0-1.2,0.8-1.3,1.1V143l1.9-0.4c0.1,0,0.2,0,0.2,0
			c0.3,0,0.3,0.2,0.3,0.4V146.6z M231.5,140.5l-2.3,0.5v-2.9c0-0.9,0-2.1-1.5-2.1c-1.6,0-1.6,1.1-1.6,2.1v3.5l-1.2,0.3
			c-0.2-1.2-1.2-1.2-2-1.2h-0.4v-3.4c0-1.2,0-2.1-1.5-2.1c-1.5,0-1.5,1-1.5,2.1v3.4H219c-0.6,0-2,0-2,1.5c0,1.6,1.3,1.6,2,1.6h0.6
			v8.8c-0.2,0.1-2.1,0.5-2.2,0.6c-0.2,0.1-0.7,0.3-0.7,1.3c0,0.5,0.2,1.7,1.5,1.7c0.7,0,2.2-0.4,5.5-1.4c0.9-0.2,1.6-0.5,1.6-1.7
			c0-0.6-0.4-1.5-1.5-1.5c-0.2,0-0.3,0-1.2,0.2v-8h0.4h0.5c0.1,1.1,0.7,1.4,1.2,1.4c0.2,0,0.4,0,1.4-0.2v9.8c0,3,2.7,3,4.1,3h5.7
			c0.9,0,2.3-0.1,3.1-0.9c1-1.1,1.3-3,1.3-3.6c0-0.7-0.4-1.6-1.6-1.6c-1.2,0-1.4,0.8-1.5,1.5c-0.2,1.4-0.4,1.7-2.2,1.7h-4.3
			c-1.6,0-1.6-0.6-1.6-1.9v-8.5l2.3-0.5v6.5c0,1.2,0,2,1.5,2c1.4,0,1.4-1,1.4-2v-0.7c0.4,0.5,2.2,1,3,1c2.4,0,2.4-2,2.4-3.9v-4
			c0-0.8,0-1.5-0.4-2.1c-0.4-0.6-1.2-1.1-2.1-1.1c-0.3,0-0.6,0.1-0.7,0.1l-2.2,0.4v-3.2c0-1.2,0-2-1.5-2c-1.4,0-1.4,1-1.4,2V140.5z"
			/>
		<path class="st0" d="M255.9,145c0.4,0,0.4,0.1,0.4,0.4v1.1c0,0.2,0,0.6-0.4,0.6h-1.6c-0.4,0-0.4-0.2-0.4-0.4v-1.2
			c0-0.2,0.1-0.4,0.3-0.4H255.9z M252.5,151.3c-0.8,0-1,0.1-1.4,0.2c-0.1-0.3-0.4-0.8-1.1-0.8c-0.4,0-0.5,0.1-1.1,0.4v-7.9
			c1.1,0,1.9,0,1.9-1.5c0-1.3-1-1.3-1.9-1.3v-3c0-1.3,0-2-1.6-2c-1.4,0-1.4,0.9-1.4,2v3c-1.4,0-2.2,0-2.2,1.5c0,0.5,0.2,0.9,0.6,1.1
			c0.3,0.2,0.4,0.2,1.6,0.2v9.2c-0.5,0.2-1.4,0.5-1.7,0.6c-0.8,0.3-0.9,1.1-0.9,1.3c0,0.5,0.4,1.5,1.5,1.5c0.8,0,4.6-1.4,5.9-2.3
			c0.2,0.5,0.6,0.8,1.2,0.8c0.2,0,0.3,0,0.9-0.1l5.4-0.5c0.4-0.1,0.4-0.1,0.6-0.1c-1,0.9-1.4,1.1-2.6,1.8c-0.3,0.2-0.8,0.5-0.8,1.2
			c0,0.5,0.3,1.4,1.4,1.4c0.3,0,0.8-0.1,1-0.3c1.8-0.9,3.5-2.5,4.3-3.4c0.6,1.6,1.9,3.6,3,3.6c1.8,0,2.4-3.4,2.4-4.8
			c0-1.6-0.3-2.1-1.2-2.1c-0.5,0-1,0.4-1.1,1.1c0,0.4-0.1,1-0.2,1.1c-0.2-0.3-0.5-1.4-0.7-1.8c0.7-1.1,2.9-4.6,2.9-6.6
			c0-1.8-1.4-1.9-1.6-1.9c-0.3,0-0.8,0.1-1.1,0.6c-0.2,0.3-1,2.9-1.2,3.4c-0.3-1.8-0.4-2.9-0.4-6.1h2.3c1.1,0,2.1,0,2.1-1.4
			c0-0.7-0.4-1-0.6-1.2c0.6-0.3,0.6-1,0.6-1.1c0-0.6-0.8-1.6-1.2-2.1c-0.4-0.5-0.7-0.7-1.1-0.7c-1.2,0-1.3,0.8-1.3,1.1
			c0,0.3,0.1,0.5,1.5,2.7h-2.2c0-0.3,0-1.8,0-2.1c0-1.3-0.9-1.4-1.6-1.4c-0.5,0-0.9,0.1-1.3,0.6c-0.3,0.4-0.3,2.4-0.3,3h-7.3
			c-1.1,0-2,0-2,1.4c0,1.3,1,1.3,2,1.3h7.4c0.1,2.8,0.3,4.8,0.6,7c0.2,1.2,0.4,2.5,0.6,3.2c-0.2,0.2-0.4,0.5-1,1.2
			c-0.1-0.9-0.4-1.4-1.3-1.4c-0.2,0-0.2,0-0.9,0L252.5,151.3z M251.2,147.5c0,1.2,0.7,2.1,2,2.1h4.2c0.4,0,1-0.3,1.2-0.5
			c0.4-0.4,0.5-1.1,0.5-1.7V144c0-0.4-0.5-1.6-2.2-1.6h-3.7c-0.6,0-1.1,0.1-1.4,0.5c-0.4,0.5-0.6,1.1-0.6,1.4V147.5z"/>
		<path class="st0" d="M289.9,141.1c2.2,1.9,2.5,4.5,2.5,5.8c0,4.7-3.9,9.9-12.2,9.9c-3.3,0-4.4-0.3-4.4-1.9c0-1,0.7-1.8,1.7-1.8
			c0.2,0,1.1,0.1,1.3,0.2c0.7,0.1,1.2,0.1,1.7,0.1c2.2,0,4.5-0.5,6.4-2.2c1.2-1.1,2-2.5,2-4.1c0-3.4-3.5-5.1-6.7-5.1
			c-3.4,0-7.6,2.1-8.9,2.7c-0.5,0.3-0.9,0.4-1.5,0.4c-1,0-1.7-0.9-1.7-2c0-0.7,0.3-1.3,1-1.6c0.3-0.2,6.4-3,10.4-3
			C284.3,138.5,287.2,138.8,289.9,141.1z M293,137.1c0,0.7-0.4,1.2-1.1,1.2c-0.8,0-1-0.4-1.5-1.6c-0.6-1.2-0.6-1.3-0.6-1.6
			c0-0.4,0.4-0.9,1-0.9C292.1,134.2,293,136.6,293,137.1z M289.4,136.7c0.5,0.7,0.7,1.3,0.7,1.7c0,0.9-0.7,1.2-1.1,1.2
			c-0.5,0-0.7-0.2-1.6-1.7c-0.7-1.1-0.7-1.2-0.7-1.5c0-0.9,1-1,1-1C288.2,135.4,288.5,135.5,289.4,136.7z"/>
		<path class="st0" d="M301.5,146.3c1.6,0.7,3.8,1.8,9.1,5.7c2.8,2,3.4,2.8,3.4,3.8c0,1.1-1,1.9-1.8,1.9c-0.7,0-1-0.3-1.8-1.2
			c-1-1.1-2-2.1-7.9-5.9c-0.8-0.5-4.3-2.5-4.9-3c-0.4-0.4-0.7-1-0.7-1.6c0-1.4,0.8-1.9,4.4-4c3.6-2,4-2.4,7.6-5.7
			c0.8-0.8,1.3-1.2,2-1.2c0.9,0,1.9,0.8,1.9,1.9c0,0.6,0,0.9-2.5,3.1c-1.5,1.2-4.7,3.6-7.5,5.1c-0.1,0.1-1.3,0.7-1.3,0.7
			c-0.1,0-0.2,0.1-0.2,0.2C301.2,146.1,301.3,146.2,301.5,146.3z"/>
		<path class="st0" d="M326.2,146.6c0,1.2-2.2,3.8-4.4,3.8c-3.2,0-3.4-4.6-3.4-7.3c0-0.7,0.3-5.3,0.5-5.9c0.2-0.5,0.7-1,1.5-1
			c1.4,0,2.1,0.8,2.1,1.7c0,0.4-0.4,2-0.4,2.3c-0.1,1.2-0.2,2.6-0.2,3.3c0,0.7,0.1,3,0.7,3c0.3,0,0.7-0.5,0.8-0.7
			c0.3-0.4,0.6-0.9,1.1-0.9c0.1,0,0.3,0,0.5,0.1C325.9,145.4,326.2,146,326.2,146.6z M333.8,152.8c-1.4,2.1-3.4,3.5-7,4.5
			c-0.6,0.1-1.2,0.3-1.6,0.3c-1.4,0-1.7-1.2-1.7-1.9c0-1,0.5-1.5,1.4-1.7c2.3-0.5,3.8-0.8,5.4-2.4c1.9-1.8,2.1-4.1,2.1-7.6
			c0-0.6,0-3.3-0.2-4.5c0-0.3-0.2-1.5-0.2-1.8c0-1,0.8-1.7,1.9-1.7c0.5,0,1.3,0.3,1.5,1.1c0.3,1,0.4,5.5,0.4,5.5
			C335.8,148.6,335.4,150.5,333.8,152.8z"/>
	</g>
	<g>
		<path class="st1" d="M349.2,131c0,0.7,0,1.2,0,1.8s0,1.1,0,1.8c-1.3,0-7.5,0-7.5,0v5.3c0,0,5.8,0,7.2,0c-0.5,4.8-1.3,7.6-2.3,10.4
			l-0.3,0.9l5.7,1.2c0,0,0.3-1.5,0.4-1.8c2.6-2.2,5.3-3.3,8.6-3.3c3.4,0,5.3,1.5,5.3,4.1c0,4.9-5.8,5.3-14,5.3c-1.9,0-2.7,0-3.7-0.1
			l-1-0.1l0.7,5.4l0.7,0c0.9,0.1,1.8,0.1,3.6,0.1c6.8,0,19.5,0,19.5-10.3c0-5.8-4.5-9.8-10.8-9.8c-1.9,0-4.5,0.3-7.3,1.6
			c0.2-1,0.4-2.1,0.6-3.6c1.4,0,18,0,18,0v-5.3c0,0-16,0-17.5,0c0-0.9,0.1-2.2,0.1-2.2l0.1-2.1l-0.9,0l-5,0L349.2,131z"/>
		<path class="st2" d="M377.3,133.1c-0.1,1.6-0.4,6.1-0.4,10c0,5.3,0.7,12.5,3.9,16.5c0.8,1,2.3,2.2,4.9,2.2c4.1,0,7.3-3.4,9.8-10.2
			l0.2-0.7l-4.9-2.6l-0.3,1c-1.1,3.4-3.1,6.8-4.6,6.8c-0.6,0-1.1-0.4-1.3-0.5c-1.8-2.5-2.3-9.7-2.3-13.2c0-3.5,0.4-6.7,0.7-8.4
			L377.3,133.1z M408.5,156.1c0-14.4-2.6-18.4-6.9-23.1l-0.5-0.5l-0.6,0.5l-3.9,2.9l0.7,0.7c5.7,5.7,5,12.2,5.1,19.9L408.5,156.1z"
			/>
		<path class="st3" d="M420.1,130.7c-0.1,1.9-0.3,3.4-0.5,5.7c-1.1,0-5.4,0-5.4,0v5.5c0,0,3.2,0,4.5-0.1c-0.9,4.3-2.7,11.5-6,16.9
			l-0.5,0.8l5.5,2.2l0.3-0.7c3.5-6.4,5.1-13.3,6.2-19.3c1,0,3.7,0,3.7,0c1.1,0,1.9,0.2,2.3,0.7c0.7,0.6,1,1.8,1,3.6
			c0,1.5-0.3,7.2-1.4,9.3c-0.5,1.1-1.7,1.1-2.8,1.1c-2,0-3.8-0.4-4.6-0.5l-1.1-0.2l0.3,5.5l0.7,0.1c1.1,0.1,3.4,0.4,5.4,0.4
			c1,0,4,0,6.1-2.5c2.1-2.5,2.8-8.7,2.8-12.1c0-2.7,0-10.8-8.3-10.8c0,0-2.1,0-3.3,0c0.2-1.5,0.4-2.8,0.6-5.3l0.1-0.8l-5.8-0.4
			L420.1,130.7z M446.2,148.8c-1.2-9.9-4.8-13.6-6.5-15.4l-0.5-0.5l-0.6,0.4l-3.8,2.4l0.6,0.7c1.2,1.4,4.1,4.7,5,13.1L446.2,148.8z"
			/>
		<path class="st4" d="M456.3,130.8c-2.6,6.9-8.6,22.4-11.1,28.5l-0.3,0.8l5.5,2l0.3-0.8c0.3-0.7,1-3,1.6-4.9c0,0,1.3-3.3,1.3-3.4
			c1.8-3.9,4.4-5,5.9-4.6c1.1,0.3,1.7,2,1.6,3.8l-0.1,0.7c-0.4,6.4,3.5,8.7,6.9,8.9c7.6,0.5,9.8-5.6,11.1-12.6l0.1-0.7l-5.2-1.9
			l-0.2,1c-1.1,6.6-2.7,8.3-4.7,8.2c-1.1-0.1-2.5-0.5-2.3-2.9l0.1-0.8c0.1-2.2,0.6-8.8-6-9.2c-1.3-0.1-2.3,0.1-3.1,0.4
			c0.7-1.8,1.8-4.2,2.7-6.4l2.3-5.4l-0.9-0.2l-5.1-1.3L456.3,130.8z"/>
	</g>
	<path class="st0" d="M358.8,59.9c0.2,0,0.4,0.2,0.4,0.4v6.4c0,0.2-0.2,0.4-0.4,0.4h-31c-0.2,0-0.4-0.2-0.4-0.4v-6.4
		c0-0.2,0.2-0.4,0.4-0.4H358.8z M355.7,94.5c2,0,3.6,1.6,3.6,3.6v18.6c0,2-1.6,3.6-3.6,3.6h-24.8c-2,0-3.6-1.6-3.6-3.6V98.1
		c0-2,1.6-3.6,3.6-3.6H355.7z M334.5,101.7c0,3.6,0,7.9,0,11.4c4.3,0,13.2,0,17.6,0c0-3.5,0-7.9,0-11.4
		C347.7,101.7,338.8,101.7,334.5,101.7z M331.1,71.4c-0.2,0-0.4,0.2-0.4,0.4v6.4c0,0.2,0.1,0.4,0.4,0.4h24.6c0.2,0,0.4-0.2,0.4-0.4
		v-6.4c0-0.2-0.2-0.4-0.4-0.4H331.1z M331.1,82.9c-0.2,0-0.4,0.2-0.4,0.4v6.4c0,0.2,0.1,0.4,0.4,0.4h24.6c0.2,0,0.4-0.1,0.4-0.4
		v-6.4c0-0.2-0.2-0.4-0.4-0.4H331.1z M331.1,48.1c-0.2,0-0.4,0.2-0.4,0.4v6.4c0,0.2,0.1,0.4,0.4,0.4h24.6c0.2,0,0.4-0.2,0.4-0.4
		v-6.4c0-0.2-0.2-0.4-0.4-0.4H331.1z M399.3,70.9h-14V48.6c0-0.2-0.2-0.4-0.4-0.4h-7.7c-0.2,0-0.3,0.2-0.3,0.4v22.3h-17.1
		c-0.2,0-0.4,0.2-0.4,0.4v7.1c0,0.2,0.2,0.4,0.4,0.4h17.1v41.3c0,0.2,0.1,0.4,0.3,0.4h7.7c0.2,0,0.4-0.2,0.4-0.4V78.7h14
		c0.2,0,0.4-0.2,0.4-0.4v-7.1C399.7,71.1,399.5,70.9,399.3,70.9z"/>
	<g>
		<path class="st0" d="M477.3,48.1h-63.5c-0.2,0-0.4,0.2-0.4,0.4v7.1c0,0.2,0.2,0.4,0.4,0.4h27.5v9h-13c-2.2,0-3.9,1.7-3.9,3.9v32.5
			c0,2.2,1.7,3.9,3.9,3.9h34.6c2.1,0,3.9-1.8,3.9-3.9V68.9c0-2.2-1.8-3.9-3.9-3.9h-13.1v-9h27.5c0.2,0,0.4-0.1,0.4-0.4v-7.1
			C477.6,48.3,477.5,48.1,477.3,48.1z M441.3,72.8v8.4h-9.1c0-3.4,0-6.5,0-8.4C434.1,72.8,437.5,72.8,441.3,72.8z M432.2,88.9h9.1
			v8.6c-3.8,0-7.2,0-9.1,0C432.2,95.5,432.2,92.1,432.2,88.9z M458.8,72.8v8.4h-9.1c0-3.4,0-6.5,0-8.4
			C451.7,72.8,455.1,72.8,458.8,72.8z M449.7,88.9h9.1v8.6c-3.8,0-7.2,0-9.1,0C449.7,95.5,449.7,92.1,449.7,88.9z"/>
		<path class="st0" d="M417.9,65.9v41.2c0,2.8,2.3,5,5,5h44.9c2.8,0,5-2.3,5-5V65.4v-0.1c0-0.2,0.2-0.4,0.4-0.4h8
			c0.2,0,0.3,0.1,0.3,0.4v0.1v41.6c0,7.4-6,13.3-13.3,13.3H423c-7.4,0-13.6-6-13.6-13.3V65.9v-0.5c0-0.2,0.1-0.4,0.4-0.4h7.9
			c0.2,0,0.4,0.1,0.4,0.4V65.9z"/>
	</g>
	<path class="st0" d="M26.2,0.1c-0.5,0-0.9,0.4-0.9,0.9c0,0,0,5.1,0,5.9c-0.6,0-2.9,0-3.8,0c0.4-1,2-5.1,2-5.1l0.1-0.3
		c0-0.4-0.2-0.7-0.6-0.9l-1.1-0.4c-0.5-0.2-1,0-1.2,0.5c0,0-2.2,5.7-3.7,9.3c0-0.3,0-1,0-1c0-0.5-0.4-0.9-1-0.9c0,0-4.2,0-4.9,0
		c0-0.8,0-7.1,0-7.1c0-0.5-0.4-0.9-0.9-0.9H9C8.5,0.1,8,0.5,8,1c0,0,0,6.2,0,7.1c-0.8,0-4.7,0-4.7,0C2.8,8.1,2.4,8.5,2.4,9v1.2
		c0,0.5,0.4,1,0.9,1c0,0,2.7,0,3.8,0c-0.6,1.2-6.3,13.2-6.3,13.2s-0.4,0.8,0.4,1.2C2,26,1.7,25.8,2.3,26.1c0.5,0.2,1,0,1.2-0.4
		c0,0,2.9-6.2,4.5-9.4c0,3.4,0,19,0,19c0,0.5,0.4,1,1,1h1.2c0.5,0,0.9-0.4,0.9-1c0,0,0-16.8,0-19.7c1,1.7,2.8,4.6,2.8,4.6
		c0.3,0.4,0.9,0.6,1.3,0.3l1-0.6c0.9-0.5,0.3-1.3,0.3-1.3s-0.1,0-0.1-0.1c0.1,0,0.3,0,0.4,0c0.1,0,6.1,0,7.5,0
		c-0.8,1.3-9.6,15-9.6,15l0,0c0,0-0.6,0.7,0.3,1.3c0,0,0.4,0.4,1,0.7c0.6,0.4,1.2-0.2,1.2-0.2c0.2-0.3,0.1-0.2,4.7-7.3
		c0,0,2.3-3.6,3.4-5.4c0,2.5,0,12.6,0,12.6c0,0.5,0.4,1,0.9,1h1.2c0.5,0,1-0.4,1-1c0,0,0-10,0-12.6c1.4,2.3,7.8,12.7,7.8,12.7
		s0.2,0.3,0.5,0.3c0.3,0.1,0.6-0.1,0.6-0.1s0.1,0,1.1-0.8c0.2-0.2,0.4-0.5,0.4-0.8c0-0.3-0.1-0.5-0.1-0.5s-7.3-11.9-9.2-15
		c1.4,0,8.2,0,8.2,0c0.5,0,0.9-0.4,0.9-0.9v-1.2c0-0.5-0.4-0.9-0.9-0.9c0,0-8.5,0-9.3,0c0-0.7,0-4.9,0-5.6c0.8,0,7.1,0,7.1,0
		c0.5,0,1-0.4,1-0.9V7.9c0-0.5-0.4-1-1-1c0,0-6.2,0-7.1,0c0-0.8,0-5.9,0-5.9c0-0.5-0.4-0.9-1-0.9H26.2z M25.3,9.9c0,0.8,0,4.9,0,5.6
		c-0.8,0-8.7,0-8.7,0c-0.5,0-0.9,0.4-0.9,0.9c0,0,0,0.4,0,0.8c-1.1-1.8-2.9-4.8-3.7-6.2c1.1,0,4.1,0,4.1,0c0.2,0,0.4-0.1,0.6-0.2
		c-0.5,1.2-0.8,2-0.8,2s-0.4,0.9,0.5,1.2c0.9,0.4,0.4,0.2,1.2,0.5c0.7,0.3,1.1-0.5,1.1-0.5s1.5-3.8,1.6-4.2
		C20.8,9.9,24.6,9.9,25.3,9.9z"/>
	<path class="st0" d="M61.2,0.7c0,0.7,0,3,0.2,6.2c-0.9,0-18.7,0-18.7,0c-0.5,0-0.9,0.4-0.9,1V9c0,0.5,0.4,0.9,0.9,0.9
		c0,0,18,0,18.9,0c0.4,5.3,1,9.9,1.9,13.8c1.9,8.4,4.7,12.3,8.7,12.3c5.1,0,5.2-8.3,5.2-9.2c0,0,0.1-0.6-0.5-0.6c-0.7,0-1.2,0-1.9,0
		c-0.8,0-0.6,0.6-0.6,0.6c0,2.1-0.7,5.9-2.2,5.9c-2.4,0-4.3-3.1-5.8-9.7C65.6,19.4,65,15,64.6,9.9c0.9,0,11.7,0,11.7,0
		c0.5,0,0.9-0.4,0.9-0.9V7.9c0-0.5-0.4-1-0.9-1c0,0-1.9,0-2.8,0c0.2-0.2,0.4-0.4,0.4-0.4c0.2-0.2,0.3-0.4,0.3-0.6
		c0-0.2-0.1-0.5-0.3-0.7c0,0,0,0-4.7-4.7c-0.4-0.4-1-0.4-1.3,0l0,0c0,0-0.3,0.3-0.9,0.9c-0.6,0.7,0,1.2,0,1.2s3.5,3.5,4.3,4.3
		c-3.3,0-6.3,0-6.8,0c-0.3-3.1-0.2-6.3-0.2-6.3S64.3,0,63.7,0c-0.6,0-1.2,0-1.9,0C61.1,0,61.2,0.7,61.2,0.7z M42.8,15.6
		c-0.5,0-0.9,0.4-0.9,0.9v1.2c0,0.5,0.4,0.9,0.9,0.9c0,0,6.3,0,7.1,0c0,0.9,0,10.8,0,11.5c-0.7,0.1-7.3,1.4-7.3,1.4
		s-0.3,0.1-0.5,0.3c-0.2,0.3-0.2,0.7-0.2,0.7h0l0.2,1.3c0,0,0.1,0.3,0.3,0.5c0.2,0.2,0.7,0.1,0.7,0.1c0.1,0,0.1,0,17.8-3.3
		c0.5-0.1,0.9-0.6,0.8-1.1L61.4,29c-0.1-0.5-0.6-0.9-1.1-0.7c0,0-5.6,1-7.4,1.4c0-1,0-10.1,0-10.9c0.8,0,7,0,7,0
		c0.5,0,0.9-0.4,0.9-0.9v-1.2c0-0.5-0.4-0.9-0.9-0.9H42.8z"/>
	<path class="st0" d="M143,0.1c-0.5,0-0.9,0.4-0.9,0.9c0,0,0,9.9,0,10.8c-0.8,0-6.6,0-6.6,0c-0.5,0-0.9,0.4-0.9,0.9v1.2
		c0,0.5,0.4,0.9,0.9,0.9c0,0,5.8,0,6.6,0c0,0.9,0,17.5,0,18.4c-0.8,0-9,0-9,0c-0.5,0-0.9,0.4-0.9,1v1.2c0,0.5,0.4,0.9,0.9,0.9h20.7
		c0.5,0,0.9-0.4,0.9-0.9v-1.2c0-0.5-0.4-1-0.9-1c0,0-7.8,0-8.7,0c0-0.9,0-17.5,0-18.4c0.8,0,7.5,0,7.5,0c0.5,0,0.9-0.4,0.9-0.9v-1.2
		c0-0.5-0.4-0.9-0.9-0.9c0,0-6.7,0-7.5,0c0-0.9,0-10.8,0-10.8c0-0.5-0.4-0.9-0.9-0.9H143z M126.5,0.2c-0.5,0-0.9,0.4-0.9,0.9
		c0,0,0,5,0,5.8c-0.8,0-5.4,0-5.4,0l0,0c0,0-1-0.1-1,0.9c0,1,0,1.2,0,1.2c0,0.5,0.4,0.9,0.9,0.9c0,0,9.6,0,11,0
		c-2.7,5-7,8.9-12.2,10.9c0,0-1,0.3-0.6,1.1c0.3,0.8,0.4,1.2,0.4,1.2c0.2,0.5,0.7,0.7,1.2,0.6l0.2-0.1c2-0.8,3.8-1.8,5.5-3
		c0,1.5,0,14.6,0,14.6c0,0.5,0.4,1,0.9,1h1.2c0.5,0,1-0.4,1-1c0,0,0-14.1,0-16c1,1,3.1,2.9,3.5,3.3c0.4,0.5,1,0.1,1.2,0
		c0.2-0.1,0.5-0.5,1-0.9c0.7-0.7,0-1.2,0-1.2s-3.6-3.4-4.1-3.9c1.8-2,3.4-4.4,4.6-7c0,0,0.5-1.1,0.1-1.8c-0.4-0.6-0.9-0.9-1.6-0.9
		c0,0-3.8,0-4.5,0c0-0.8,0-5.8,0-5.8c0-0.5-0.4-0.9-1-0.9H126.5z"/>
	<path class="st0" d="M96.4,0.8L96.4,0.8C92.9,6.9,87,11.2,80.1,12.5c0,0-1,0.1-0.9,1c0.1,0.9,0,0.1,0,0.1l0.2,1.2
		c0.1,0.6,0.5,0.9,1.1,0.8l0,0c0,0,0.1,0,0.1,0c2.8-0.5,5.4-1.5,7.8-2.8v0.1v1.2c0,0.5,0.4,0.9,0.9,0.9h17.1c0.5,0,0.9-0.4,0.9-0.9
		c0,0,0-0.7,0-1c2.3,1.1,4.6,2,7.2,2.5c0,0,1.2,0.4,1.3-0.6c0.1-0.8,0.1-0.4,0.2-1.3c0.1-1-0.9-1-1.1-1c-6.8-1.4-12.6-5.6-16.1-11.6
		C98.8,0.4,98.2,0,97.7,0C97.1,0,96.7,0.4,96.4,0.8z M97.7,4.3c2.1,3,4.7,5.6,7.8,7.5c-1.7,0-14.6,0-15.6,0
		C92.9,9.9,95.6,7.4,97.7,4.3z M82,19.2c-0.5,0-0.9,0.4-0.9,0.9v1.2c0,0.5,0.4,1,0.9,1c0,0,7.3,0,8.6,0c-0.6,1.2-5.5,11.5-5.5,11.5
		c0,0-0.2,0.6-0.2,0.6c0,0.4,0.1,0.7,0.3,1c0.4,0.4,0.9,0.6,1.5,0.6c-0.1,0-0.1,0,9.1-1.9c0,0,11.5-2.3,12.1-2.4
		c0.3,0.4,2.4,3.4,2.7,4c0.6,0.9,1.5,0.4,1.5,0.4l1-0.7c0,0,0.6-0.5,0.1-1.2c-0.5-0.7-7.6-11-7.6-11c-0.4-0.4-0.8-0.6-1.4-0.3
		c0,0-0.9,0.7-0.9,0.7c-0.8,0.8-0.1,1.3-0.1,1.3c0,0,2,2.9,2.8,4.1c-1.2,0.2-15.5,3.1-17,3.4c0.6-1.4,4.6-9.6,4.8-10.1
		c0.5,0,20,0,20,0c0.5,0,0.9-0.4,0.9-1v-1.2c0-0.5-0.4-0.9-0.9-0.9H82z"/>
	<path class="st0" d="M192.2,102.4l-26.3,5.5c-0.5,0.1-1-0.2-1.1-0.7l-1.2-5.8c-0.1-0.5,0.2-1,0.7-1.1l8.8-1.8v-17h-7.8
		c-0.5,0-0.9-0.4-0.9-0.9v-6c0-0.5,0.4-0.9,0.9-0.9h7.8V60.4h-7.8c-0.5,0-0.9-0.4-0.9-0.9v-6c0-0.5,0.4-0.9,0.9-0.9h25
		c0.5,0,0.9,0.4,0.9,0.9v6c0,0.5-0.4,0.9-0.9,0.9h-8.7v13.2h8.7c0.5,0,0.9,0.4,0.9,0.9v6c0,0.5-0.4,0.9-0.9,0.9h-8.7v15.2l9-1.9
		c0.5-0.1,1,0.2,1.1,0.7l1.2,5.8C193.1,101.8,192.8,102.3,192.2,102.4z M194.7,71c-0.5,0-0.9,0.4-0.9,0.9v5.3c0,0.5,0.4,0.9,0.9,0.9
		h41.1c0.5,0,0.9-0.4,0.9-0.9v-5.3c0-0.5-0.4-0.9-0.9-0.9H194.7z M236.3,51.5v12.4c0,1.8-1.5,3.3-3.2,3.3h-34.7
		c-1.8,0-3.3-1.5-3.3-3.3V51.5c0-1.8,1.5-3.3,3.3-3.3h34.7C234.8,48.2,236.3,49.7,236.3,51.5z M213.2,54.8v5.9c1.8,0,3.6,0,5.4,0
		v-5.9C216.8,54.8,214.9,54.8,213.2,54.8z M202,60.6c1.1,0,3,0,5.3,0v-5.9c-2.3,0-4.2,0-5.3,0C202,57,202,58.4,202,60.6z
		 M229.5,54.8c-1.1,0-2.9,0-5.1,0v5.9c2.2,0,4,0,5.1,0C229.5,58.4,229.5,57,229.5,54.8z M239.1,113.1c0.5,0.1,0.8,0.6,0.7,1.1
		l-1.5,5.8c-0.1,0.5-0.6,0.8-1.1,0.7l-0.2-0.1l-11.7-3c-1-0.3-1.8-0.8-2.3-1.6l-5.5-8.4v12.1c0,0.5-0.4,0.9-0.9,0.9h-7.3
		c-0.5,0-0.9-0.4-0.9-0.9v-15c-5.1,3.7-16.3,11.5-26,15.8l-0.3,0.1c-0.4,0.2-1,0-1.2-0.5l-2.6-6.1c-0.2-0.5,0-1,0.5-1.2l0.4-0.2
		c6.9-3.1,14.7-8.2,20.2-11.9h-0.5c-2,0-3.6-1.6-3.6-3.6V84.7c0-2,1.6-3.6,3.6-3.6h34c2,0,3.6,1.6,3.6,3.6v12.4
		c0,1.9-1.5,3.4-3.3,3.6l4.2,4.2c0.4,0.4,0.4,1,0,1.3l-5.1,5.1c3.4,0.9,6.8,1.8,6.8,1.8L239.1,113.1z M202.3,93.5
		c5.1,0,21.8,0,26.8,0c0-2.2,0-3.1,0-5.2c-5.1,0-21.8,0-26.8,0C202.3,90.4,202.3,91.3,202.3,93.5z M226,106.3l5.7-5.7h-9.5
		C223.4,102.5,224.8,104.6,226,106.3z"/>
	<path class="st0" d="M26.4,103l-23.7,4.9c-0.5,0.1-1-0.2-1.1-0.7l-1.2-5.9c-0.1-0.5,0.2-1,0.7-1.1l8.8-1.9V75.1H1.5
		c-0.5,0-0.9-0.4-0.9-0.9v-6c0-0.5,0.4-0.9,0.9-0.9h8.5V49.2c0-0.5,0.4-0.9,0.9-0.9h6.6c0.5,0,0.9,0.4,0.9,0.9v18.1h6.1
		c0.5,0,0.9,0.4,0.9,0.9v6c0,0.5-0.4,0.9-0.9,0.9h-6.1v21.6l6.4-1.4c0.5-0.1,1,0.2,1.1,0.7l1.2,5.9C27.2,102.4,26.9,102.9,26.4,103z
		 M76.1,108.7l-5.1-4.2c-0.4-0.3-1-0.3-1.3,0.1l-0.2,0.2c0,0-4.2,5.2-6,7.4c-3.3,0-19.1,0-19.1,0c-2.8,0-5.1-2.3-5.1-5.1v-32
		c2.2,0,4.7,0,7.2,0v22.5c0,0.5,0.4,0.9,0.9,0.9h6c0.5,0,0.9-0.4,0.9-0.9V75.1c5,0,8.8,0,10.8,0c0,4.4,0,11.3,0,15.7
		c-3.3,0-5.3,0-5.3,0l-0.4,0c-0.5,0-0.9,0.4-0.9,0.9v6c0,0.5,0.4,0.9,0.9,0.9l0.4,0h9.2c2.2,0,3.9-1.8,3.9-3.9V71.1
		c0-2.1-1.7-3.9-3.9-3.9H54.2V49.2c0-0.5-0.4-0.9-0.9-0.9h-6c-0.5,0-0.9,0.4-0.9,0.9v18.1h-7.2v-9.5v-0.7c0-0.5-0.4-0.9-0.9-0.9
		h-6.6c-0.5,0-0.9,0.4-0.9,0.9l0,0.7v9.5h-1.6H29c-0.5,0-0.9,0.4-0.9,0.9v6c0,0.5,0.4,0.9,0.9,0.9h0.1c0,0,0.6,0,1.6,0v32
		c0,7.5,6.1,13.6,13.6,13.6h21.1c1.3,0,2.5-0.6,3.3-1.5l7.3-8.9l0.2-0.2C76.6,109.5,76.5,109,76.1,108.7z"/>
	<path class="st0" d="M128.6,98c0.5-0.1,1,0.1,1.2,0.6l1.8,5.7c0.2,0.5-0.1,1-0.6,1.2l-23.7,7.5c-0.5,0.2-1-0.1-1.2-0.6l-1.8-5.7
		c-0.1-0.5,0.1-1,0.6-1.2L128.6,98z M109,101.9l-1.2-5.9c-0.1-0.5-0.6-0.8-1.1-0.7l-6.4,1.4V75.1h6.1c0.5,0,0.9-0.4,0.9-0.9v-6
		c0-0.5-0.4-0.9-0.9-0.9h-6.1V49.2c0-0.5-0.4-0.9-0.9-0.9h-6.6c-0.5,0-0.9,0.4-0.9,0.9v18.1H83c-0.5,0-0.9,0.4-0.9,0.9v6
		c0,0.5,0.4,0.9,0.9,0.9h8.9v23.4l-8.8,1.9c-0.5,0.1-0.8,0.6-0.7,1.1l1.2,5.9c0.1,0.5,0.6,0.8,1.1,0.7l23.7-4.9
		C108.8,102.9,109.1,102.4,109,101.9z M126.7,71.8c1.8,0,3.3,1.5,3.3,3.2v16.8c0,1.8-1.4,3.3-3.3,3.3h-16.1c-1.8,0-3.3-1.5-3.3-3.3
		V75.1c0-1.8,1.4-3.2,3.3-3.2H126.7z M113.8,78.3c0,3.2,0,7.1,0,10.3c3.1,0,6.5,0,9.6,0c0-3.2,0-7,0-10.3
		C120.3,78.3,116.9,78.3,113.8,78.3z M153.2,49.2c0-0.5-0.4-0.9-0.9-0.9h-6.6c-0.5,0-1,0.4-1,0.9v6.4c0,0.5,0.4,0.9,1,0.9h6.6
		c0.5,0,0.9-0.4,0.9-0.9V49.2z M156.4,108.7l-5.1-4.3c-0.4-0.3-1-0.3-1.3,0.1l-0.4,0.4c-1,1.2-2.7,3.2-4.3,5.1
		c-0.8-1.1-1.6-2.3-2.2-3.4l4-3.4l3.2-2.7c3-2.5,4.7-6.2,4.7-10.1c0,0,0-8.1,0-8.1v-8.7v-0.9c0-0.5-0.4-0.9-0.9-0.9h-6
		c-0.5,0-0.9,0.4-0.9,0.9v0.9v8.7l0,8.1c0,1.6-0.7,3.1-1.9,4.2c0,0-3.2,2.7-3.2,2.7s-0.6,0.5-1.6,1.4c0-0.2,0-0.3,0-0.5V67.4h13.6
		c0.5,0,0.9-0.4,0.9-0.9v-6c0-0.5-0.4-0.9-0.9-0.9h-13.6v-9.9l0-0.5c0-0.5-0.4-0.9-0.9-0.9h-6.6c-0.5,0-0.9,0.4-0.9,0.9v0.5v9.9
		h-23.7c-0.5,0-0.9,0.4-0.9,0.9v6c0,0.5,0.4,0.9,0.9,0.9h23.7v30.7c0,1.9,0.3,4.2,1.1,6.7c-4.9,4.2-10,8.6-10,8.6l-0.1,0.1
		c-0.4,0.3-0.4,0.9-0.1,1.3l3.9,4.5c0.3,0.4,0.9,0.4,1.3,0.1l0.2-0.2l8.3-7.1c1.5,2.4,3.4,4.9,5.7,7.2c0.9,0.8,2,1.3,3.2,1.2
		c1.2,0,2.3-0.6,3-1.5l7.6-8.9l0.3-0.3C156.9,109.6,156.8,109,156.4,108.7z"/>
	<path class="st0" d="M270.6,102.7l-23.2,4.9c-0.5,0.1-1-0.2-1.1-0.7l-1.2-5.8c-0.1-0.5,0.2-1,0.7-1.1l8.4-1.9V74.8h-6.9
		c-0.5,0-0.9-0.4-0.9-0.9v-5.9c0-0.5,0.4-0.9,0.9-0.9h6.9V49.4c0-0.5,0.4-0.9,0.9-0.9h6.6c0.5,0,0.9,0.4,0.9,0.9V67h6.1
		c0.5,0,0.9,0.4,0.9,0.9v5.9c0,0.5-0.4,0.9-0.9,0.9h-6.1v21.6l6.4-1.3c0.5-0.1,1,0.2,1.1,0.7l1.2,5.8
		C271.4,102.1,271.1,102.6,270.6,102.7z M318.8,67.9v5.9c0,0.5-0.4,0.9-0.9,0.9h-45.5c-0.5,0-0.9-0.4-0.9-0.9v-5.9
		c0-0.5,0.4-0.9,0.9-0.9h9.8v-6.7h-8.3c-0.5,0-1-0.4-1-0.9v-5.3c0-0.5,0.4-0.9,1-0.9H290v-3.9c0-0.5,0.5-0.9,0.9-0.9h7.3
		c0.5,0,0.9,0.4,0.9,0.9v3.9h16.3c0.5,0,0.9,0.4,0.9,0.9v5.3c0,0.5-0.4,0.9-0.9,0.9h-8.1V67h10.5C318.3,67,318.8,67.4,318.8,67.9z
		 M289.4,67h10.8v-6.7h-10.8V67z M318.9,108.1l-0.1,0.4l-2.3,8.9c-0.5,1.9-2.2,3.2-4.1,3.2h-14.8c-2.3,0-4.2-1.9-4.2-4.2V105
		c-5.4,3.9-15.9,11.1-25.2,15.2l-0.3,0.1c-0.5,0.2-1,0-1.2-0.5l-2.6-6.1c-0.2-0.5,0-1,0.5-1.2l0.4-0.2c5.4-2.5,11.5-6.2,16.5-9.5h-5
		c-2,0-3.6-1.6-3.6-3.6V80.5c0-2,1.6-3.6,3.6-3.6h36.3c2,0,3.6,1.6,3.6,3.6v18.8c0,2-1.6,3.6-3.6,3.6h-11c0,2.9,0,6.9,0,9.7
		c2.9,0,4.7,0,7.2,0c0.5-2,1.1-4.5,1.4-6l0.1-0.5c0.1-0.5,0.6-0.8,1.1-0.7l6.5,1.6C318.7,107.1,319,107.6,318.9,108.1z M280.2,87
		h29.1c0-1,0-1.9,0-2.8c-5.2,0-23.9,0-29.1,0C280.2,85.1,280.2,86,280.2,87z M280.2,95.8c5.2,0,23.9,0,29.1,0c0-0.9,0-1.9,0-2.9
		h-29.1C280.2,93.9,280.2,94.8,280.2,95.8z"/>
</g>
</svg>
