<?xml version="1.0" encoding="utf-8"?>
<!-- Generator: Adobe Illustrator 22.1.0, SVG Export Plug-In . SVG Version: 6.00 Build 0)  -->
<svg version="1.1" id="レイヤー_1" xmlns="http://www.w3.org/2000/svg" xmlns:xlink="http://www.w3.org/1999/xlink" x="0px"
	 y="0px" viewBox="0 0 189 38.4" style="enable-background:new 0 0 189 38.4;" xml:space="preserve">
<style type="text/css">
	.st0{fill:url(#SVGID_1_);}
	.st1{fill:url(#SVGID_2_);}
	.st2{fill:url(#SVGID_3_);}
	.st3{fill:url(#SVGID_4_);}
	.st4{fill:url(#SVGID_5_);}
	.st5{fill:#3B3938;}
</style>
<g>
	<g>
		<g>
			<g>
				<g>
					<radialGradient id="SVGID_1_" cx="15.5766" cy="17.0887" r="40.3797" gradientUnits="userSpaceOnUse">
						<stop  offset="0" style="stop-color:#E07B00"/>
						<stop  offset="1.360262e-02" style="stop-color:#DF7700"/>
						<stop  offset="0.2301" style="stop-color:#D23707"/>
						<stop  offset="0.3881" style="stop-color:#CA0F0B"/>
						<stop  offset="0.47" style="stop-color:#C7000D"/>
						<stop  offset="0.6158" style="stop-color:#C3000C"/>
						<stop  offset="0.7723" style="stop-color:#B6000B"/>
						<stop  offset="0.9101" style="stop-color:#A40008"/>
					</radialGradient>
					<path class="st0" d="M18.8,36.9c-2.9,1.9-12.1,3.4-17.1-4.2c-2.8-4.2-2-10.5,1.2-12.6C3.4,30.5,11.1,36,18.8,36.9
						C18.8,36.8,18.8,36.9,18.8,36.9z"/>
				</g>
				<g>
					<radialGradient id="SVGID_2_" cx="15.5734" cy="17.098" r="40.3511" gradientUnits="userSpaceOnUse">
						<stop  offset="0" style="stop-color:#E07B00"/>
						<stop  offset="1.360262e-02" style="stop-color:#DF7700"/>
						<stop  offset="0.2301" style="stop-color:#D23707"/>
						<stop  offset="0.3881" style="stop-color:#CA0F0B"/>
						<stop  offset="0.47" style="stop-color:#C7000D"/>
						<stop  offset="0.6158" style="stop-color:#C3000C"/>
						<stop  offset="0.7723" style="stop-color:#B6000B"/>
						<stop  offset="0.9101" style="stop-color:#A40008"/>
					</radialGradient>
					<path class="st1" d="M20.3,35.9c-6.4-0.2-14.6-5.8-14.8-15.9C5.4,7.8,14.3,3.1,19,4c-2.7,2.7-5.6,9.7-5,17.2
						C14.5,27,16.8,32.2,20.3,35.9C20.3,35.8,20.3,35.9,20.3,35.9z"/>
				</g>
				<g>
					<radialGradient id="SVGID_3_" cx="15.5703" cy="17.0926" r="40.3587" gradientUnits="userSpaceOnUse">
						<stop  offset="0" style="stop-color:#E07B00"/>
						<stop  offset="1.360262e-02" style="stop-color:#DF7700"/>
						<stop  offset="0.2301" style="stop-color:#D23707"/>
						<stop  offset="0.3881" style="stop-color:#CA0F0B"/>
						<stop  offset="0.47" style="stop-color:#C7000D"/>
						<stop  offset="0.6158" style="stop-color:#C3000C"/>
						<stop  offset="0.7723" style="stop-color:#B6000B"/>
						<stop  offset="0.9101" style="stop-color:#A40008"/>
					</radialGradient>
					<path class="st2" d="M21.2,35L21.2,35c0-4,1.1-8.1,2.4-11.9C27,13.6,34,7.2,42.3,6.3C41.9,3.5,38.4,0.4,34,0
						c-7.1-0.5-14.9,4.9-17,15.8C15.6,22.8,17.6,30.9,21.2,35C21.2,35.1,21.2,35.1,21.2,35z"/>
				</g>
				<g>
					<radialGradient id="SVGID_4_" cx="15.5662" cy="17.1" r="40.3681" gradientUnits="userSpaceOnUse">
						<stop  offset="0" style="stop-color:#E07B00"/>
						<stop  offset="1.360262e-02" style="stop-color:#DF7700"/>
						<stop  offset="0.2301" style="stop-color:#D23707"/>
						<stop  offset="0.3881" style="stop-color:#CA0F0B"/>
						<stop  offset="0.47" style="stop-color:#C7000D"/>
						<stop  offset="0.6158" style="stop-color:#C3000C"/>
						<stop  offset="0.7723" style="stop-color:#B6000B"/>
						<stop  offset="0.9101" style="stop-color:#A40008"/>
					</radialGradient>
					<path class="st3" d="M22.5,34.5c6.6-9.6,18.5-18.3,28.4-15.9c0.8-3.4-2.5-11.3-12.1-7.9C34.3,12.2,24.9,18.2,22.5,34.5
						C22.4,34.5,22.4,34.5,22.5,34.5z"/>
				</g>
				<g>
					<radialGradient id="SVGID_5_" cx="15.5744" cy="17.0969" r="40.3647" gradientUnits="userSpaceOnUse">
						<stop  offset="0" style="stop-color:#E07B00"/>
						<stop  offset="1.360262e-02" style="stop-color:#DF7700"/>
						<stop  offset="0.2301" style="stop-color:#D23707"/>
						<stop  offset="0.3881" style="stop-color:#CA0F0B"/>
						<stop  offset="0.47" style="stop-color:#C7000D"/>
						<stop  offset="0.6158" style="stop-color:#C3000C"/>
						<stop  offset="0.7723" style="stop-color:#B6000B"/>
						<stop  offset="0.9101" style="stop-color:#A40008"/>
					</radialGradient>
					<path class="st4" d="M23.8,34.5c9.6-4.3,21.7-4.7,27.3-0.4c3.7-1.7,5.1-10.2-1.8-12.3C42.6,19.7,32,25,23.8,34.5
						C23.8,34.5,23.8,34.6,23.8,34.5z"/>
				</g>
			</g>
			<g>
				<path class="st5" d="M162.3,34.6c5.4-1.6,9.4-5.9,11.4-10.1c2-4.2,2.3-9.2,2.4-11.5h7.5c0.4,0,0.5,0.2,0.5,0.6
					c0,2,0,8.8-0.3,13.9c-0.1,3.1-0.8,3.7-3.5,3.7h-2.7v3.2h4.3c5.2,0,6.6-2.1,6.8-7c0.3-4.9,0.3-12.8,0.3-14.8c0-2-1.2-2.6-2.6-2.6
					h-10.3V5.4h-5v4.5h-8.8V13h8.8c-0.2,6.2-1.4,13.6-8.8,18.8V34.6z"/>
				<path class="st5" d="M88.4,24.2c0,0.1-0.1,0.2-0.2,0.2h-6.9V13h6.9c0.1,0,0.2,0.1,0.2,0.2V24.2z M69.7,24.4
					c-0.1,0-0.2-0.1-0.2-0.2v-11c0-0.1,0.1-0.2,0.2-0.2h6.9v11.4H69.7z M81.2,34.5v-7h10.2c0.8,0,1.5-0.7,1.5-1.5V11.4
					c0-0.8-0.7-1.5-1.5-1.5H81.2V5.1h-4.6v4.8H66.4c-0.8,0-1.5,0.7-1.5,1.5V26c0,0.8,0.6,1.5,1.5,1.5h10.2v7H81.2z"/>
				<g>
					<path class="st5" d="M113.4,16.8h-2.7l0.9-6.1h1.6V7.9h-5.5V5.4h-4.2v2.5H98v2.8h1.6l0.9,6.1h-2.7v2.8h15.6V16.8z M103.4,10.6
						h4.2l-0.8,6.1h-2.6L103.4,10.6z"/>
					<path class="st5" d="M111,21.4h-10.8c-0.8,0-1.5,0.7-1.5,1.5v9.2c0,0.8,0.7,1.5,1.5,1.5H111c0.8,0,1.5-0.7,1.5-1.5v-9.2
						C112.4,22.1,111.8,21.4,111,21.4z M108.5,30.8c0,0.1-0.1,0.2-0.2,0.2h-5.5c-0.1,0-0.2-0.1-0.2-0.2v-6.4c0-0.1,0.1-0.2,0.2-0.2
						h5.5c0.1,0,0.2,0.1,0.2,0.2V30.8z"/>
					<path class="st5" d="M119.6,31.5h2.3c2.8,0,4.7-1.7,4.5-5.4c-0.1-3.6-1.7-6.5-3.2-8.5c1-1.7,2.6-6.3,3-9.1
						c0.1-1.2-0.1-2.2-2-2.2h-8.1c-0.8,0-1.5,0.7-1.5,1.5v26.6h4V9.3c0-0.1,0.1-0.2,0.2-0.2h2.9c0.2,0,0.3,0.2,0.2,0.4
						c-0.3,2.2-0.8,4.5-2,7.3c-0.1,0.4-0.4,1-0.4,1.1c0,0.1,0.1,0.3,0.4,0.7c1.3,2,2.4,4.3,2.6,6.8c0.2,1.7,0.1,3.2-1.9,3.2h-1V31.5
						z"/>
				</g>
				<g>
					<path class="st5" d="M134.2,12.8c0-0.2,0.1-0.3,0.4-0.3h7.8v6.2h4v-6.2h7.8c0.2,0,0.4,0.1,0.4,0.3v4.7h4v-5.7
						c0-0.8-0.7-1.5-1.5-1.5h-10.7V8.9h10.9V6.3h-25.7v2.6h10.8v1.4h-10.7c-0.8,0-1.5,0.7-1.5,1.5v5.7h4V12.8z"/>
					<path class="st5" d="M147.8,31.7c-0.9,0-1.5-0.2-1.5-1v-0.9h9.2c0.8,0,1.5-0.7,1.5-1.5v-7.2c0-0.8-0.6-1.5-1.5-1.5h-22.4
						c-0.8,0-1.5,0.7-1.5,1.5v7.2c0,0.8,0.7,1.5,1.5,1.5h9.2v0.6c0,1.9,0,4,3.8,4l12.6,0v-2.7H147.8z M146.3,21.7h6.5
						c0.1,0,0.2,0.1,0.2,0.2v1.6h-6.7V21.7z M146.3,25.8h6.7v1.6c0,0.1-0.1,0.2-0.2,0.2h-6.5V25.8z M142.3,27.6h-6.5
						c-0.1,0-0.2-0.1-0.2-0.2v-1.6h6.7V27.6z M142.3,23.6h-6.7V22c0-0.1,0.1-0.2,0.2-0.2h6.5V23.6z"/>
					<rect x="135.5" y="13.7" class="st5" width="5.6" height="1.8"/>
					<rect x="135.5" y="16.5" class="st5" width="5.6" height="1.8"/>
					<rect x="147.5" y="13.7" class="st5" width="5.7" height="1.8"/>
					<rect x="147.5" y="16.5" class="st5" width="5.7" height="1.8"/>
				</g>
			</g>
		</g>
	</g>
</g>
</svg>
