<?xml version="1.0" encoding="utf-8"?>
<!-- Generator: Adobe Illustrator 22.1.0, SVG Export Plug-In . SVG Version: 6.00 Build 0)  -->
<svg version="1.1" id="レイヤー_1" xmlns="http://www.w3.org/2000/svg" xmlns:xlink="http://www.w3.org/1999/xlink" x="0px"
	 y="0px" viewBox="0 0 114.8 30.4" style="enable-background:new 0 0 114.8 30.4;" xml:space="preserve">
<style type="text/css">
	.st0{fill:#D1000E;}
	.st1{fill:#FFFFFF;}
	.st2{fill:#1A1311;}
</style>
<g>
	<g>
		<polygon class="st0" points="16.3,0 26.2,30.4 16.3,23.2 6.5,30.4 		"/>
		<polyline class="st0" points="22.4,19.1 32.7,11.4 0,11.4 10.3,19.1 		"/>
		<path class="st1" d="M19.7,12.7c0.8,0,1.1,0.7,1.1,1.2v7.4c0,0.3-0.2,0.6-0.6,0.6h-0.1c-0.3,0-0.6-0.3-0.6-0.6v-6.8
			c0-0.2-0.1-0.5-0.5-0.5h-5.6c-0.3,0-0.5,0.3-0.5,0.5v6.8c0,0.3-0.2,0.6-0.6,0.6h-0.1c-0.3,0-0.6-0.3-0.6-0.6v-7.4
			c0-0.5,0.3-1.2,1.1-1.2H19.7z"/>
		<path class="st1" d="M15.5,18.3c-0.1,0-0.2,0.1-0.2,0.2v1.3c0,0.1,0.1,0.2,0.2,0.2h1.7c0.1,0,0.2-0.1,0.2-0.2v-1.3
			c0-0.1-0.1-0.2-0.2-0.2H15.5z M14.7,21c-0.3,0-0.5-0.2-0.5-0.5v-2.7c0-0.3,0.2-0.4,0.5-0.4H18c0.3,0,0.5,0.2,0.5,0.4v2.7
			c0,0.3-0.2,0.5-0.5,0.5H14.7z"/>
		<path class="st1" d="M18.3,16.2c0.3,0,0.5-0.2,0.5-0.5c0-0.3-0.2-0.5-0.5-0.5h-3.8c-0.3,0-0.5,0.2-0.5,0.5c0,0.3,0.3,0.5,0.5,0.5
			H18.3z"/>
		<path class="st2" d="M44.5,13.6h5.3c0.5,0,0.9-0.4,0.9-0.9v-0.1c0-0.5-0.4-0.9-0.9-0.9H44V9c0-0.5-0.4-0.9-0.9-0.9H43
			c-0.5,0-0.9,0.4-0.9,0.9v2.6h-5.8c-0.5,0-0.9,0.4-0.9,0.9v0.1c0,0.5,0.4,0.9,0.9,0.9h5.5c0,1.4-2.5,6-5.8,8.5
			c-0.4,0.3-0.5,0.8-0.2,1.3l0.1,0.1c0.3,0.4,0.8,0.5,1.3,0.3c0.7-0.4,4.6-4.2,6.1-7.9c1.5,3.7,5.4,7.5,6.1,7.9
			c0.4,0.3,1,0.2,1.3-0.3l0.1-0.1c0.3-0.4,0.2-1-0.2-1.3C47,19.6,44.5,15,44.5,13.6"/>
		<path class="st2" d="M64,9H53.4c-1.3,0-1.8,1.2-1.8,1.9v11.9c0,0.5,0.4,0.9,0.9,0.9h0.1c0.5,0,0.9-0.4,0.9-0.9V11.3
			c0-0.3,0.2-0.8,0.7-0.8h8.8c0.5,0,0.8,0.5,0.8,0.8v11.5c0,0.5,0.4,0.9,0.9,0.9h0.1c0.5,0,0.9-0.4,0.9-0.9V10.9
			C65.7,10.1,65.3,9,64,9"/>
		<path class="st2" d="M61.9,14.7h-6.5c-0.5,0-0.9,0.4-0.9,0.9V21c0,0.5,0.4,0.9,0.9,0.9h6.5c0.5,0,0.9-0.4,0.9-0.9v-5.4
			C62.8,15.1,62.4,14.7,61.9,14.7 M61.2,19.9c0,0.3-0.2,0.5-0.5,0.5h-4.1c-0.3,0-0.5-0.2-0.5-0.5v-3.2c0-0.3,0.2-0.5,0.5-0.5h4.1
			c0.3,0,0.5,0.2,0.5,0.5V19.9z"/>
		<path class="st2" d="M62.3,11.7h-7.4c-0.5,0-0.8,0.4-0.8,0.9c0,0.5,0.4,0.9,0.8,0.9h7.4c0.5,0,0.9-0.4,0.9-0.9
			C63.2,12.1,62.8,11.7,62.3,11.7"/>
		<path class="st2" d="M81.7,14.7c0.5,0,0.9-0.4,0.9-0.9c0-0.5-0.4-0.9-0.9-0.9h-3.5v-1.2H81c0.5,0,0.8-0.4,0.8-0.9
			c0-0.5-0.4-0.9-0.8-0.9h-2.8V9.4c0-0.5-0.4-0.9-0.9-0.9h-0.1c-0.5,0-0.9,0.4-0.9,0.9v0.7h-2.6c-0.5,0-0.8,0.4-0.8,0.9
			c0,0.5,0.4,0.9,0.8,0.9h2.6V13h-3.1c-0.1,0-0.2,0-0.2,0c0,0,0-0.1,0-0.1c0-0.5-0.4-0.9-0.9-0.9h-0.5V9.5c0-0.5-0.4-0.9-0.9-0.9
			h-0.1c-0.5,0-0.9,0.4-0.9,0.9v2.6h-0.4c0.1-0.7,0.1-1.2,0.1-1.5c0.1-0.5-0.3-0.9-0.7-1c-0.5-0.1-0.9,0.3-1,0.7
			c-0.1,1.5-0.2,3-0.9,4.8c-0.1,0.5,0.3,0.9,0.7,1c0.5,0.1,0.8-0.2,1-0.7c0.2-0.5,0.3-1,0.5-1.6h0.7v3.5c-0.7,0.3-1.4,0.6-2.2,0.9
			C67,18.4,67,19,67.2,19.4c0.2,0.4,0.6,0.5,1.2,0.3c0.5-0.1,0.9-0.3,1.4-0.5V23c0,0.5,0.4,0.9,0.9,0.9h0.1c0.5,0,0.9-0.4,0.9-0.9
			v-4.9c0.4-0.2,0.7-0.4,0.9-0.6c0.2,0.1,0.4,0.2,0.6,0.2h5.6V21c0,0.7-0.1,1-0.5,1l-0.7,0c-0.7,0-0.6-0.2-1.2-0.2
			c-0.2,0-0.7,0.1-0.7,0.7c-0.1,0.9,0.9,1.1,2.3,1.2c1,0.1,2.6,0,2.6-2.1l0-3.8h1.1c0.5,0,0.9-0.4,0.9-0.9c0-0.5-0.4-0.8-0.9-0.8
			h-1.1l0-1.3H81.7z M78.7,16.1h-5.6c-0.1,0-0.2,0-0.2,0c-0.3-0.3-0.7-0.4-1-0.2c-0.1,0.1-0.2,0.1-0.2,0.2v-2.3h0.5
			c0.1,0,0.2,0,0.2-0.1c0,0.1,0,0.1,0,0.2c0,0.5,0.4,0.9,0.9,0.9h5.6V16.1z"/>
		<path class="st2" d="M76.5,21c0.4-0.3,0.4-0.6,0.2-1.2c-0.5-1-0.8-1.2-1.2-1.7c-0.3-0.4-0.8-0.5-1.2-0.2c-0.4,0.3-0.5,0.8-0.2,1.2
			c0.9,1.1,0.8,0.9,1.2,1.7C75.6,21.3,76.1,21.3,76.5,21"/>
		<path class="st2" d="M97.7,16.4c0.5,0,0.9-0.4,0.9-0.8c0-0.5-0.4-0.9-0.9-0.9H95v-2h2.3c0.5,0,0.9-0.4,0.9-0.8
			c0-0.5-0.4-0.9-0.9-0.9H95V9.5C95,9,94.5,8.6,94,8.6h-0.1C93.4,8.6,93,9,93,9.5V11h-0.9c0.1-0.3,0.1-0.5,0.2-0.8
			c0.1-0.5-0.1-0.9-0.6-1.1c-0.5-0.1-0.9,0.1-1.1,0.6c-0.2,1.4-0.3,1.5-1.1,3.1c-0.2-0.3-0.5-0.5-1-0.5h-1.6c0-0.4,0-0.8,0-1.2h2.5
			c0.5,0,0.9-0.4,0.9-0.9c0-0.5-0.4-0.9-0.9-0.9h-4.9c-0.5,0-0.9,0.4-0.9,0.9c0,0.5,0.4,0.9,0.9,0.9H85c0,1.9-0.4,4.2-1.7,5.6
			c-0.2,0.4,0,1,0.4,1.2l0.1,0.1c0.4,0.2,1,0,1.2-0.4c0.1-0.1,0.2-0.2,0.3-0.4c-0.1,0.1-0.1,0.2-0.1,0.2l1.4,1.5
			C86,20.2,85.1,21.3,84,22c-0.4,0.3-0.4,0.9,0,1.3l0.1,0.1c0.4,0.4,0.9,0.4,1.3,0c1.6-1.1,3.5-3.2,4.2-7.4c0.1,0.2,0.4,0.4,0.7,0.4
			H93v0l-0.4,0c-1,1.8-2.1,3.5-4,5.1c-0.4,0.3-0.5,0.8-0.3,1.3l0.1,0.1c0.3,0.4,0.8,0.5,1.3,0.2c0.8-0.5,2.1-1.9,3.3-3.9v3.8
			c0,0.5,0.4,0.9,0.9,0.9H94c0.5,0,0.9-0.4,0.9-0.9v-3.2c0.9,1.4,1.7,2.5,2,2.7c0.4,0.3,0.9,0.3,1.3,0l0.1-0.1
			c0.3-0.4,0.3-0.9,0-1.3c-1.3-1.4-2.4-3.1-3.1-4.8H95v0H97.7z M87.4,17.1l-1.3-1.3c0,0.1-0.3,0.6-0.5,1c0.4-0.7,0.8-1.6,1-2.6h1.2
			C87.9,14.8,87.8,15.9,87.4,17.1 M93,14.7h-2.8c-0.2,0-0.4,0.1-0.6,0.2c0-0.2,0.1-0.5,0.1-0.7c0-0.1,0-0.2,0-0.3
			c0.1,0.1,0.2,0.1,0.3,0.2c0.5,0.1,0.8,0,1.1-0.6c0.1-0.3,0.3-0.5,0.4-0.7H93V14.7z"/>
		<path class="st2" d="M113.8,8.8h-7.4c-0.4,0-0.8,0.4-0.8,0.9v1.1c-0.3-0.3-1.4-1.6-1.8-2c-0.6-0.6-1.3-0.5-1.6,0
			c-1,1.4-1.6,2-2.3,2.6c-0.4,0.3-0.4,0.9,0,1.3l0.1,0.1c0.2,0.2,0.4,0.3,0.6,0.3c-0.1,0.1-0.2,0.3-0.2,0.4c0,0.4,0.3,0.8,0.7,0.8
			h0.9v1h-1.4c-0.4,0-0.8,0.3-0.8,0.8c0,0.4,0.3,0.8,0.8,0.8h1.4v4.8c-0.5,0.1-1,0.2-1.5,0.2c-0.5,0.1-0.9,0.6-0.8,1.1l0,0.1
			c0.1,0.5,0.5,0.7,1,0.6c0.5-0.1,3.6-0.8,4.2-1.1c0.5-0.3,0.7-0.7,0.4-1.3c-0.2-0.3-0.6-0.5-1-0.2c-0.2,0.1-0.4,0.2-0.7,0.3v-4.4
			h0.9c0.4,0,0.8-0.3,0.8-0.8c0-0.4-0.3-0.8-0.8-0.8h-0.9v-1h0.9c0.4,0,0.7-0.3,0.7-0.8c0-0.4-0.3-0.8-0.7-0.8h-3.3
			c0.4-0.5,1.5-2,1.7-2.2c0.1-0.2,0.2-0.2,0.4,0c0.2,0.2,0.9,1,1.2,1.5c0.3,0.3,0.7,0.2,1-0.1c0,0,0,0,0.1-0.1v10.7
			c0,0.5,0.3,0.9,0.8,0.9h0.1c0.4,0,0.8-0.4,0.8-0.9v-7.8h2.1v5.8h-0.6v-4.4c0-0.3-0.2-0.5-0.4-0.5c-0.2,0-0.4,0.2-0.4,0.5v5.1
			c0,0.4,0.3,0.8,0.8,0.8h2.9c0.4,0,0.8-0.5,0.8-0.8v-5.1c0-0.3-0.2-0.5-0.4-0.5c-0.3,0-0.5,0.2-0.5,0.5v4.4h-0.6v-5.8h2.1v7.8
			c0,0.5,0.4,0.9,0.9,0.9h0.1c0.5,0,0.9-0.4,0.9-0.9V9.7C114.8,9.2,114.4,8.8,113.8,8.8 M112.8,11.5v1.6h-5.5v-1.6
			c0-1-0.2-0.9,0.7-0.9h3.9C112.9,10.6,112.8,10.5,112.8,11.5"/>
		<path class="st2" d="M108.5,11.1l-0.2,0.1c-0.4,0.1-0.5,0.7-0.3,1l0.4,0.9l1.6,0l-0.6-1.5C109.2,11.2,108.9,11,108.5,11.1"/>
		<path class="st2" d="M111.9,11.2l-0.3-0.1c-0.4-0.1-0.8,0.2-0.9,0.6l-0.5,1.4l1.6,0l0.4-1C112.4,11.8,112.2,11.3,111.9,11.2"/>
		<path class="st2" d="M101.2,21c0.4,0,0.6-0.3,0.6-0.7c0-0.5-0.1-1.6-0.3-2.1c-0.2-0.5-0.4-0.6-0.8-0.5c-0.4,0-0.7,0.4-0.6,0.8
			c0.1,0.4,0.3,1.4,0.3,1.8C100.5,20.7,100.8,21,101.2,21"/>
		<path class="st2" d="M104.5,18c0,0.2-0.3,1.1-0.4,1.5c-0.1,0.3,0,0.5,0.2,0.6c0.3,0.1,0.5,0.2,0.7-0.3c0.1-0.3,0.4-1.3,0.4-1.6
			c0.1-0.4,0-0.5-0.3-0.6C104.7,17.5,104.6,17.6,104.5,18"/>
	</g>
</g>
</svg>
