<?xml version="1.0" encoding="utf-8"?>
<!-- Generator: Adobe Illustrator 22.1.0, SVG Export Plug-In . SVG Version: 6.00 Build 0)  -->
<svg version="1.1" id="レイヤー_1" xmlns="http://www.w3.org/2000/svg" xmlns:xlink="http://www.w3.org/1999/xlink" x="0px"
	 y="0px" viewBox="0 0 171.8 17.9" style="enable-background:new 0 0 171.8 17.9;" xml:space="preserve">
<style type="text/css">
	.st0{fill:#7CB200;}
	.st1{fill:#FFFFFF;}
</style>
<g>
	<g>
		<g>
			<path class="st0" d="M32.8,2.9V15h-1.2v-0.7h-7.7V15h-1.2V2.9H32.8z M23.9,4v4h7.7V4H23.9z M23.9,9.1v4.1h7.7V9.1H23.9z"/>
			<path class="st0" d="M39.6,4.7V2.2h1.1v2.5h5.9v1.1h-5.3c1.3,2.7,3.3,4.6,5.4,5.9l-0.7,1.1c-2.9-2.2-4.2-3.9-5.4-6.3v5h2.9v1.1
				h-2.9v2.5h-1.1v-2.5h-2.9v-1.1h2.9V6.7c-1,2-2.3,4.1-5.3,6.2l-0.7-1.1c2.7-1.7,4.3-3.7,5.4-6h-5.2V4.7H39.6z"/>
			<path class="st0" d="M59,3.9v1.2h-4.5v7.3h5.2v1.2H48v-1.2h5.2l0-7.3h-4.4V3.9H59z"/>
			<path class="st0" d="M70.9,4.1v9.6H60.7v-1.2h8.9V5.3h-8.8V4.1H70.9z"/>
			<path class="st0" d="M82.7,3.8v10H72.2v-10H82.7z M81.3,5.1h-7.8v7.5h7.8V5.1z"/>
			<path class="st0" d="M87.7,9.1c-1.3-0.7-2.6-1.2-3.9-1.6l0.5-1.1c1.2,0.3,2.9,0.9,4,1.5L87.7,9.1z M84.3,13
				c5.7-0.5,8-2.3,9.9-7.8l1.2,0.5c-1.8,5.1-4.1,7.8-10.5,8.5L84.3,13z M88.8,5.8c-1.2-0.6-2.5-1.2-4-1.6l0.5-1.1
				c1.6,0.4,2.8,1,4,1.5L88.8,5.8z M93.2,4.8c-0.1-0.2-0.2-0.7-0.4-1.1c-0.4-0.7-0.4-0.8-0.5-1l0.9-0.3c0.5,0.8,0.7,1.2,0.9,2.1
				L93.2,4.8z M95,4.4c-0.6-1.4-0.6-1.5-0.9-2L95,2.1c0.3,0.4,0.5,0.9,1,2L95,4.4z"/>
			<path class="st0" d="M95.8,13.5c0.7-0.3,2.1-0.8,4-2.6c2.7-2.5,3.7-4.8,4.3-6.3h-7.6V3.4h9.3c-0.2,0.9-0.8,3.1-2.7,5.8
				c1.7,1.3,3.3,2.8,4.8,4.3l-1,1c-1.5-1.7-3.6-3.6-4.5-4.4c-1.6,1.9-3.5,3.4-5.7,4.4L95.8,13.5z"/>
			<path class="st0" d="M109.9,2.6v3.7c2.4,0.7,4.4,1.6,7.1,3.1l-0.7,1.2c-2.3-1.4-3.8-2.1-6.4-3v7.3h-1.3V2.6H109.9z"/>
			<path class="st0" d="M129.9,15c-3-0.5-5-1.4-6-2.1c-1.8,1.1-3.9,1.7-5.9,2.1l-0.5-1.2c2.6-0.3,4.2-1,5.4-1.6
				c-1.6-1.3-2.3-2.6-2.7-3.2l1-0.6c0.4,0.6,1.2,1.9,2.8,3.1c1.9-1.3,2.7-2.9,3-3.5h-8.5V7h4.8V5h-5.9V3.9h5.9V2.3h1.2v1.6h5.9V5
				h-5.9v2h3.9V8c-0.5,1-1.4,2.7-3.4,4.2c1.7,0.9,3.5,1.4,5.4,1.6L129.9,15z"/>
			<path class="st0" d="M135.3,9.4c-0.3,0.2-0.5,0.3-1.2,0.6v4.2c0,0.4-0.1,1.1-1.1,1.1h-1.5l-0.1-1.1h1.2c0.2,0,0.4,0,0.4-0.4v-3.3
				c-0.9,0.3-1.3,0.4-1.7,0.5l-0.1-1.2c0.5-0.1,1-0.2,1.8-0.5V5.9h-1.7v-1h1.7V2.3h1.1v2.5h1.3v1h-1.3v2.9c0.6-0.2,0.9-0.3,1.2-0.5
				L135.3,9.4z M134.5,14.5c0.5-0.4,1.7-1.5,2.5-3.3c0.4-0.9,0.6-1.6,0.6-1.8h-2.1V8.4h2.2c0-0.4,0.1-0.7,0.1-1.1h-2.1V6.4h5.7
				c0.6-1,1.1-2,1.3-2.6l1,0.4c-0.2,0.6-0.5,1.2-1.2,2.2h1.1v0.9h-4.9c0,0.3,0,0.6-0.1,1.1h5.2v0.9h-5.4c0,0.2-0.1,0.4-0.3,1.1h4.9
				v0.9c-0.2,0.4-0.7,1.2-1.8,2.1c1.1,0.5,2.1,0.6,2.8,0.7l-0.6,1.1c-0.4-0.1-1.8-0.4-3.2-1.2c-1.3,0.7-2.5,1-3.2,1.2l-0.5-1.1
				c0.8-0.1,1.7-0.3,2.7-0.8c-0.8-0.7-1.1-1.1-1.3-1.4l0.9-0.5c0.2,0.2,0.5,0.7,1.4,1.4c0.9-0.6,1.3-1.2,1.6-1.6h-4
				c-0.9,2.2-2.3,3.5-2.8,4L134.5,14.5z M135.3,3.1c0.7,0,2.3,0,4.4-0.2c1-0.1,2.4-0.3,3.6-0.6l0.5,1c-2.2,0.6-6,0.9-8.1,0.9
				L135.3,3.1z M136.7,6.3c-0.1-0.4-0.3-1-0.7-1.7l1.1-0.3c0.3,0.6,0.5,1.2,0.6,1.7L136.7,6.3z M139.4,6.1c-0.1-0.5-0.4-1.2-0.6-1.8
				l1.1-0.3c0.3,0.7,0.5,1.4,0.6,1.8L139.4,6.1z"/>
			<path class="st0" d="M147.5,2.3v3.3h1.3v1.1h-1.3v8.6h-1.1V6.6h-1.2V5.6h1.2V2.3H147.5z M152.6,9.2c0,1.3-0.1,4.6-0.5,5.4
				c-0.3,0.6-0.7,0.7-1.1,0.7h-1l-0.2-1.1l0.7,0c0.3,0,0.5,0,0.7-0.4c0.3-0.6,0.4-3.1,0.4-3.6h-1.1c-0.2,1.9-0.6,3.6-1.9,5l-0.8-0.7
				c1.2-1.6,1.5-2.9,1.6-4.3h-1.2v-1h1.2c0-0.5,0-0.7,0.1-1.1h1.1c0,0.4,0,0.6,0,1.1H152.6z M157.1,3.5c-0.1,1.8-0.1,2.6-0.4,3.3
				c-0.3,0.7-0.9,0.8-1.5,0.8h-1.5l-0.2-1.1l1.6,0c0.3,0,0.6,0,0.7-0.4c0.1-0.3,0.2-1.2,0.2-1.6h-2.7c-0.2,0.6-0.5,1-0.7,1.3
				c-1.1,1.4-2.5,2-3,2.1l-0.7-1c1.3-0.5,2.6-1.2,3.2-2.5H149v-1h3.4c0.1-0.5,0.1-0.9,0.2-1.2h1.2c-0.1,0.5-0.1,0.8-0.2,1.2H157.1z
				 M157.7,9.2c-0.1,3.3-0.1,4.8-0.5,5.5c-0.1,0.3-0.4,0.6-1.1,0.6H155l-0.2-1.1l0.8,0c0.5,0,0.6-0.2,0.7-0.5
				c0.1-0.2,0.2-1.4,0.2-3.5h-1.1c-0.2,1.9-0.4,3.5-2.1,5l-0.9-0.7c1.2-1.1,1.8-2.4,1.9-4.3h-1.1v-1h1.2c0-0.4,0-0.6,0-1.1h1.1
				c0,0.3,0,0.5,0,1.1H157.7z"/>
			<path class="st0" d="M168.8,7.2h-7.3V6.4c-1.1,0.7-2,1.1-2.5,1.3l-0.6-1.1c0.8-0.3,2-0.8,3.5-1.9c0.9-0.7,1.9-1.5,2.6-2.6h1.2
				c1.5,2,3.6,3.6,6.1,4.4l-0.6,1.1c-0.5-0.2-1.2-0.5-2.4-1.3V7.2z M167.6,10.5c1.4,1.4,2.3,2.4,3.4,4.1l-1,0.7
				c-0.2-0.4-0.4-0.6-0.7-1.1c-5.6,0.4-6.2,0.5-10.1,0.6l-0.1-1.1c0.3,0,1.5,0,1.9,0c0.9-1.5,1.4-2.8,1.7-3.6h-3.8V9h12.4V10h-7.2
				c-0.7,1.6-1.3,2.8-1.8,3.5c0.9,0,2.2-0.1,2.4-0.1c0.6,0,3.3-0.2,3.9-0.3c-0.7-0.8-1-1.2-1.9-2.1L167.6,10.5z M168.4,6.1
				c-1.9-1.3-2.7-2.3-3.2-3c-0.7,0.9-1.6,1.9-3.2,3H168.4z"/>
		</g>
		<rect x="0" class="st0" width="17.9" height="17.9"/>
		<g>
			<path class="st1" d="M4.1,4.2l2.2,3.9V4.2h0.5v4.5H6L3.9,4.8v3.9H3.3V4.2H4.1z"/>
			<path class="st1" d="M9.5,4.2c0.8,0,1.3,0.4,1.3,1.4c0,1.1-0.5,1.4-1.3,1.4H7.8v1.7H7.3V4.2H9.5z M7.8,4.7v1.7h1.6
				c0.5,0,0.8-0.1,0.8-0.9c0-0.8-0.3-0.9-0.8-0.9H7.8z"/>
			<path class="st1" d="M14.7,6.5c0,1.4-0.2,2.3-1.7,2.3c-1.4,0-1.9-0.5-1.9-2.3c0-0.9,0.1-1.4,0.3-1.7c0.3-0.5,0.8-0.6,1.5-0.6
				C14.3,4.2,14.7,4.8,14.7,6.5z M12.8,4.7c-1.2,0-1.2,0.7-1.2,1.8c0,1.3,0.1,1.8,1.4,1.8c1.2,0,1.2-0.7,1.2-1.8
				C14.2,5.1,14,4.7,12.8,4.7z"/>
			<path class="st1" d="M3.9,14.4c0.4-0.6,0.7-1.2,1-1.9l0.4,0.3c-0.2,0.5-0.7,1.5-1.1,2L3.9,14.4z M4.8,12.1
				c-0.3-0.3-0.5-0.4-0.9-0.6l0.2-0.4c0.3,0.1,0.7,0.4,0.9,0.6L4.8,12.1z M5.1,10.6c-0.3-0.3-0.7-0.5-0.9-0.6l0.2-0.4
				C4.7,9.7,5,9.9,5.3,10.2L5.1,10.6z M7.8,12.9c0.5,0.6,0.7,1,1.1,1.8l-0.4,0.2c0-0.1-0.1-0.2-0.2-0.5c-0.6,0.1-2.2,0.3-2.9,0.3
				l-0.1-0.4c0.1,0,0.3,0,0.4,0c0.2-0.3,0.6-1.3,0.8-1.8H5.3v-0.4h1.5v-1.1H5.6v-0.4h1.3V9.6h0.4v0.9h1.4v0.4H7.3v1.1h1.6v0.4h-2
				c-0.2,0.6-0.6,1.5-0.8,1.8c0.8,0,1.2,0,1.9-0.1c0,0-0.3-0.6-0.6-0.9L7.8,12.9z"/>
			<path class="st1" d="M11.8,9.6v0.7c0,0.2,0,0.7,0.2,1.4c0.3,1.4,1.2,2.2,2.1,2.7l-0.3,0.4c-0.2-0.1-0.9-0.5-1.4-1.3
				c-0.6-0.8-0.7-1.6-0.8-1.9c-0.1,0.7-0.4,1.3-0.7,1.8c-0.4,0.6-0.9,1-1.5,1.3L9,14.4c0.9-0.5,1.6-1.1,1.9-1.9
				c0.4-0.9,0.4-1.9,0.4-2.1V9.6H11.8z"/>
		</g>
	</g>
</g>
</svg>
