<?xml version="1.0" encoding="utf-8"?>
<!-- Generator: Adobe Illustrator 22.1.0, SVG Export Plug-In . SVG Version: 6.00 Build 0)  -->
<svg version="1.1" id="レイヤー_1" xmlns="http://www.w3.org/2000/svg" xmlns:xlink="http://www.w3.org/1999/xlink" x="0px"
	 y="0px" viewBox="0 0 540 130.9" style="enable-background:new 0 0 540 130.9;" xml:space="preserve">
<style type="text/css">
	.st0{fill:#DF0000;}
	.st1{fill:#F3F3F3;}
	.st2{fill:#FFFFFF;}
</style>
<g>
	<polyline points="383.8,47.3 401,47.3 401,100.9 413.9,100.9 413.9,47.3 431.2,47.3 431.2,38.7 383.8,38.7 383.8,47.3 	"/>
	<path class="st0" d="M539.3,123.5c0.2,0,0.3-0.1,0.5-0.2c0.1-0.1,0.2-0.3,0.2-0.5c0-0.2,0-0.4-0.1-0.5c-0.1-0.1-0.3-0.2-0.4-0.3
		c-127.1-16.9-256-16.9-383.1,0c-0.2,0-0.3,0.1-0.4,0.3c-0.1,0.1-0.2,0.3-0.1,0.5c0,0.2,0.1,0.3,0.2,0.5c0.1,0.1,0.3,0.2,0.5,0.2
		C284,116.2,411.8,116.2,539.3,123.5"/>
	<polyline points="172.5,38.7 159.4,38.7 159.4,100.9 172.5,100.9 172.5,38.7 	"/>
	<path d="M201.7,100.9c6,0,11.9-1.4,17.3-4.1c4-2.3,7.4-5.5,10-9.4c4.6-7.3,6.3-16.1,5-24.6c-0.8-7.7-4.9-14.6-11.2-19
		c-4.8-3.1-10.4-4.9-16.2-5l-24.9,0v62.2L201.7,100.9"/>
	<path class="st1" d="M201,92c3.6,0,7.2-0.8,10.4-2.5c3.3-1.9,5.8-4.8,7.3-8.3c1.3-2.8,2.1-5.8,2.4-8.9c0.9-7.3-1.6-14.6-6.7-19.8
		c-1.8-1.7-3.9-2.9-6.2-3.8c-2.6-1-5.3-1.5-8.1-1.4h-5.1v44.7L201,92"/>
	<polyline points="279.5,38.7 240.9,38.7 240.9,100.9 281.8,100.9 281.8,91.9 254,91.9 254,72.7 278.8,72.7 278.8,64.2 254,64.2 
		254,47.3 279.5,47.3 279.5,38.7 	"/>
	<polyline points="321.9,81.4 306.7,38.7 291.7,38.7 288.6,100.9 298.1,100.9 300.1,56.2 316.3,100.9 324.1,100.9 339.2,56.3 
		342.2,100.9 355.4,100.9 351.3,38.7 336.1,38.7 321.9,81.4 	"/>
	<path d="M477.6,39.9c-5.1-2.1-10.6-3.2-16.1-3.3c-5.4-0.2-10.8,0.7-15.7,2.8c-5.1,2.3-8.8,6.8-10.3,12.1c-0.6,2.5-0.7,5.1-0.3,7.6
		c0.4,4.1,2.5,7.9,5.8,10.5c1.3,1.1,2.8,2,4.3,2.7l4.4,1.9l11.8,4c2.2,0.7,4.1,2.1,5.4,4c1.4,2.3,1.3,5.2-0.1,7.5
		c-1.2,1.9-3,3.3-5.1,4c-4.6,1.5-9.6,1.3-14.2-0.4c-2.9-1.1-5.7-2.5-8.3-4.1c-1-0.7-2-1.3-3-2.1v12.3c3.7,1.3,7.5,2.2,11.3,2.9
		c5.9,1,11.9,0.8,17.7-0.6c5.1-1.1,9.6-3.9,12.8-8c3.3-4.6,4.4-10.4,3-15.9c-0.8-3.8-3.1-7.2-6.4-9.4c-2.5-1.7-5.2-3-8-3.9
		l-13.1-4.3c-2.2-0.6-4.1-2.2-5-4.3c-1.1-2.8-0.4-5.9,1.7-7.9c2-1.6,4.3-2.7,6.9-3c4.6-0.4,9.2,0.4,13.4,2.2
		c2.5,1.1,4.8,2.5,6.9,4.3c0.1-0.1,0.2-0.2,0.2-0.3V39.9"/>
	<path d="M536.3,38.7h-13.1l0,43.8c0.1,1.5-0.1,3-0.5,4.4c-0.4,1.5-1,2.9-1.9,4.1c-0.4,0.5-0.9,1-1.5,1.3c-0.7,0.4-1.4,0.7-2.1,1
		c-3.6,1.1-7.6,1-11.1-0.3c-0.6-0.4-1.2-0.8-1.7-1.2c-0.8-0.7-1.4-1.6-1.9-2.5c-0.9-2.1-1.3-4.4-1.2-6.6l-0.1-43.9l-13.3,0v42.6
		c-0.1,2.6,0.3,5.2,1,7.8c0.9,3.8,3.1,7.1,6.2,9.5c2.5,1.6,5.2,2.7,8,3.4c7.2,1.6,14.6,1.2,21.5-1.1c3.9-1.4,7.2-4.3,9.1-8
		c1.3-2.4,2.1-5.1,2.3-7.9c0.2-1.6,0.3-3.3,0.2-4.9V38.7"/>
	<polyline points="376.7,38.7 363.6,38.7 363.6,100.9 376.7,100.9 376.7,38.7 	"/>
	<path class="st0" d="M73.9,127.6c12.5-4.3,23.8-11.4,33-20.9c4.2-4.3,8-9,11.1-14.2c0.7-1,1.4-2.1,2.1-3.2
		c-4.2,0.4-8.4,0.6-12.6,0.6c-3.7,0-7.5,0.4-11.1,1.2c-0.3,0.1-0.5,0-0.8-0.1c-0.2-0.1-0.4-0.4-0.5-0.6c-0.1-0.3,0-0.5,0.1-0.8
		c0.1-0.2,0.4-0.4,0.6-0.5c3.8-0.9,7.7-1.3,11.6-1.3c4.7,0,9.3-0.3,14-0.7c1.2-2.1,2.4-4.2,3.5-6.3c-5.1,0.9-10.3,1.4-15.5,1.5
		l-5.7,0c-5.3-0.1-10.7,0.6-15.8,2c-0.3,0.1-0.5,0-0.8-0.1c-0.2-0.1-0.4-0.4-0.5-0.6c-0.1-0.3,0-0.5,0.1-0.8
		c0.1-0.2,0.4-0.4,0.6-0.5c5.3-1.5,10.9-2.2,16.4-2.1l5.6,0c5.6-0.2,11.1-0.8,16.6-1.8c0.9-1.9,1.7-3.7,2.5-5.6l-3.1,0.9
		c-6.6,1.6-13.5,2.3-20.3,1.8L94.8,75c-5-0.2-9.9,0.6-14.6,2.4c-0.1,0.1-0.3,0.1-0.5,0.1c-1.1,1.6-2.5,3-4.1,4.1
		c-2.4,1.5-5.2,2.3-8,2.3c-2-0.1-3.8-1.1-4.9-2.7c-0.1-0.2-0.1-0.3-0.1-0.5c0-0.2,0.1-0.3,0.3-0.4c0.2-0.1,0.3-0.1,0.5-0.1
		c0.2,0,0.3,0.1,0.4,0.3c0.9,1.3,2.2,2,3.8,2.1c2.6,0,5.1-0.7,7.2-2c3.7-2.5,5.9-6.7,6.1-11.2c0.2-2.3-0.8-4.6-2.6-6.1
		c-2.1-1.6-5-1.8-7.4-0.4c-0.2,0.1-0.4,0.1-0.5,0.1c-0.2,0-0.3-0.2-0.4-0.3C70,62.4,69.9,62.2,70,62c0-0.2,0.2-0.3,0.3-0.4
		c2.8-1.7,6.4-1.5,9,0.6c0.5,0.4,1,0.9,1.4,1.5c6-0.8,12.2-0.5,18.1,1c5.1,1.3,10.3,1.7,15.5,1.1c6.3-0.8,12.4-2.1,18.4-4
		c0.6-2,1.2-4.1,1.6-6.1l-3.6,0.9c-2.6,0.6-5.2,0.9-7.9,1c-0.1,0.2-0.4,0.4-0.6,0.4c-7.2,1.6-14.7,1.8-22,0.3l-11-2.2
		c-6.9-1.5-14-1.3-20.7,0.5c-0.3,0.1-0.5,0-0.8-0.1c-0.2-0.1-0.4-0.4-0.5-0.6c-0.1-0.3,0-0.5,0.1-0.8c0.1-0.2,0.4-0.4,0.6-0.5
		c7.1-1.9,14.5-2.1,21.7-0.5l11,2.2c4.9,1,9.9,1.2,14.9,0.7c-2.2-0.4-4.4-1-6.5-1.7l-4.6-1.7L92,48.9c-8.9-2.9-18.4-3.1-27.4-0.6
		c-0.3,0.1-0.5,0-0.8-0.1c-0.2-0.1-0.4-0.4-0.5-0.6c-0.1-0.3,0-0.5,0.1-0.8c0.1-0.2,0.4-0.4,0.6-0.5c9.4-2.7,19.3-2.4,28.6,0.6
		l12.4,4.5l4.6,1.7c6.6,2.4,13.7,2.8,20.6,1.2l4.6-1.1c0.5-2.3,0.9-4.6,1.3-6.9c-11.2,2.7-23,2.5-34.1-0.6l-16.1-4.9
		c-8.4-2.9-17.6-3-26.1-0.3c-0.3,0.1-0.5,0.1-0.8-0.1c-0.2-0.1-0.4-0.3-0.5-0.6c-0.1-0.3-0.1-0.5,0.1-0.8c0.1-0.2,0.3-0.4,0.6-0.5
		c8.9-2.8,18.5-2.7,27.3,0.3l16,4.9c11,3.1,22.7,3.2,33.8,0.4c0.3-2.3,0.5-4.6,0.7-7c-12.7,2.4-25.8,1.8-38.2-1.9l-16-4.9
		c-9.5-3-19.8-2.2-28.6,2.3c-0.2,0.1-0.5,0.1-0.8,0.1c-0.3-0.1-0.5-0.3-0.6-0.5c-0.1-0.2-0.1-0.5-0.1-0.8c0.1-0.3,0.3-0.5,0.5-0.6
		c9.4-4.7,20.2-5.6,30.2-2.4l16,4.9c12.3,3.6,25.2,4.2,37.7,1.8c0.1-2.8,0.2-5.7,0.1-8.5c-1.8,0.7-3.7,1.2-5.6,1.5
		c-2.2,0.2-4.3,0.3-6.5,0.4C120.3,18.2,112,9.9,101.7,5C91.5,0.5,80.3-1,69.3,0.6c-15.9,3.2-30.8,10.5-43,21.2
		c-13.1,12-22,28-25.3,45.5c-2.5,13.5-0.1,27.5,6.7,39.4c6.5,10.9,17.1,18.9,29.4,22.1C49.2,131.9,62,131.5,73.9,127.6 M116.1,28.3
		c-8.5-0.5-17-2.1-25.1-4.8c-9.2-2.4-18.7-3.3-28.1-2.8c-6.7,0.2-13.2,2.7-18.3,7.1c-3.8,3.5-6.6,7.9-8.2,12.8
		c-0.9,4.9-2.4,9.7-4.3,14.2c-3.1,5-7.2,9.2-12.2,12.3c-0.5,0.3-0.9,0.8-1,1.4c-0.1,0.6,0.1,1.2,0.5,1.6l5.6,4.4
		c0.6,0.5,0.9,1.2,0.8,2v2.9c-0.4,1.5-0.1,3,0.9,4.2c-0.7,0.8-1.1,1.8-1.1,2.8c0,1,0.4,2,1,2.8l2,1.9c1.6,1.2,2.5,3,2.4,5L31,99.7
		c0.3,2.4,1.6,4.6,3.6,5.9c3,1.1,6.3,1.2,9.4,0.3c8.8-3.7,18.7-3.8,27.6-0.3c5.8,2.3,11.1,5.6,15.7,9.8c-6.6,4.1-14,6.7-21.7,7.8
		c-8.7,1.7-17.7,1.1-26.1-1.5c-8.5-2.5-16-7.6-21.5-14.6c-4.2-4.9-7.3-10.6-9.2-16.8C6,79.2,6.4,67.5,9.8,56.5
		c4.5-13.7,12.9-25.8,24.3-34.7C43.9,14.1,55.5,9,67.8,7.1C79.6,5.5,91.7,8,102,14C107.9,17.4,112.8,22.4,116.1,28.3 M70.3,66.2
		c0.5-0.6,1.3-0.9,2.1-1.1c1-0.2,2,0.1,2.8,0.6c1.4,1.1,2.1,2.8,1.8,4.6c-0.3,2.4-1.4,4.6-3.2,6.2c-2.1,1.7-4.9,2-7.3,0.9
		c-0.2-0.1-0.3-0.2-0.4-0.4s-0.1-0.4,0-0.5c0.1-0.2,0.2-0.3,0.4-0.4c0.2-0.1,0.4-0.1,0.5,0c1.9,0.9,4.2,0.6,5.9-0.7
		c1.5-1.3,2.4-3.1,2.7-5.1c0.2-1.3-0.2-2.6-1.2-3.5c-0.5-0.4-1.1-0.6-1.8-0.5c-0.5,0.1-1,0.3-1.3,0.7c-0.1,0.1-0.3,0.2-0.5,0.2
		c-0.2,0-0.4-0.1-0.5-0.2c-0.1-0.1-0.2-0.3-0.2-0.5C70.1,66.5,70.2,66.3,70.3,66.2"/>
	<path class="st0" d="M81.1,74.9c4.4-1.5,9.1-2.1,13.8-2l10.5,0.6c6.6,0.4,13.2-0.2,19.6-1.8l4.6-1.3c0.8-2.1,1.6-4.3,2.3-6.5
		c-5.7,1.7-11.5,3-17.5,3.7c-5.5,0.6-11,0.2-16.3-1.2c-5.4-1.4-11-1.7-16.5-1c0.5,1.2,0.7,2.5,0.6,3.8
		C82.3,71.2,81.9,73.2,81.1,74.9"/>
	<path class="st2" d="M39.3,59.3l-1.1,0.5c-0.2,0.1-0.3,0.2-0.3,0.4c-0.1,0.2,0,0.4,0,0.5c0.1,0.2,0.2,0.3,0.4,0.3
		c0.2,0.1,0.4,0,0.5,0c3.6-1.8,7.3-3.5,11.1-5.1c0.4-0.1,0.6-0.5,0.6-0.9c0-0.4-0.3-0.7-0.7-0.7c-4.4-0.3-8.7-0.7-13.1-1.2
		c-0.2,0-0.4,0-0.5,0.2c-0.1,0.1-0.2,0.3-0.3,0.5c0,0.2,0,0.4,0.2,0.5c0.1,0.1,0.3,0.2,0.5,0.3l1.9,0.2
		C38.4,56.3,38.7,57.9,39.3,59.3 M40.6,58.7c-0.5-1.2-0.8-2.4-0.8-3.7l7.4,0.7C45,56.6,42.8,57.6,40.6,58.7"/>
</g>
</svg>
