<?xml version="1.0" encoding="utf-8"?>
<!-- Generator: Adobe Illustrator 22.1.0, SVG Export Plug-In . SVG Version: 6.00 Build 0)  -->
<svg version="1.1" id="レイヤー_1" xmlns="http://www.w3.org/2000/svg" xmlns:xlink="http://www.w3.org/1999/xlink" x="0px"
	 y="0px" viewBox="0 0 112.9 42.5" style="enable-background:new 0 0 112.9 42.5;" xml:space="preserve">
<style type="text/css">
	.st0{fill:#003696;}
</style>
<g>
	<path class="st0" d="M23.5,42c0,0.1,0,0.2,0,0.2c0,0.2-0.2,0.3-0.4,0.3c0,0-0.1,0-0.2,0H0.5c-0.1,0-0.2,0-0.2,0
		c-0.2,0-0.3-0.2-0.4-0.3c0,0,0-0.1,0-0.2v-1.9c0-0.6,0.4-1,1.1-1.1c0.5-0.1,1.3-0.2,1.8-0.2c1.7-0.3,2.7-0.9,2.9-2.9
		c0-0.3,0.1-1.2,0.1-1.2l0-1.6V9.6l0-1.6c0,0,0-0.9-0.1-1.2C5.6,4.8,4.6,4.1,2.9,3.8C2.4,3.7,1.5,3.6,1.1,3.6C0.4,3.5,0,3.1,0,2.5
		V0.5c0-0.1,0-0.2,0-0.2C0,0.2,0.2,0,0.4,0c0,0,0.1,0,0.2,0H23c0.1,0,0.2,0,0.2,0c0.2,0,0.3,0.2,0.4,0.4c0,0,0,0.1,0,0.2v1.9
		c0,0.6-0.4,1-1.1,1.1c-0.5,0.1-1.3,0.2-1.8,0.2c-1.7,0.3-2.7,0.9-2.9,2.9c0,0.3-0.1,1.2-0.1,1.2l0,1.6V33l0,1.6c0,0,0,0.9,0.1,1.2
		c0.2,1.9,1.2,2.6,2.9,2.9c0.5,0.1,1.3,0.2,1.8,0.2c0.6,0.1,1.1,0.5,1.1,1.1V42z"/>
	<path class="st0" d="M59.4,42c0,0.1,0,0.2,0,0.2c0,0.2,0.2,0.3,0.3,0.3c0,0,0.1,0,0.2,0h22.5c0,0,0.2,0,0.2,0
		c0.2,0,0.3-0.2,0.4-0.3c0,0,0-0.1,0-0.2v-1.9c0-0.6-0.4-1-1.1-1.1c-0.5-0.1-1.3-0.2-1.8-0.2c-1.7-0.3-2.7-0.9-2.9-2.9
		c0-0.3-0.1-1.2-0.1-1.2l0-1.6V9.6l0-1.6c0,0,0-0.9,0.1-1.2c0.2-1.9,1.2-2.6,2.9-2.9c0.5-0.1,1.3-0.2,1.8-0.2
		c0.6-0.1,1.1-0.5,1.1-1.1V0.5c0-0.1,0-0.2,0-0.2c0-0.2-0.2-0.3-0.4-0.4c0,0-0.1,0-0.2,0H59.9c-0.1,0-0.2,0-0.2,0
		c-0.2,0-0.3,0.2-0.3,0.4c0,0,0,0.1,0,0.2v1.9c0,0.6,0.4,1,1.1,1.1c0.5,0.1,1.3,0.2,1.8,0.2c1.7,0.3,2.7,0.9,2.9,2.9
		c0,0.3,0.1,1.2,0.1,1.2l0,1.6v8.1H47.7V9.6l0-1.6c0,0,0-0.9,0.1-1.2c0.2-1.9,1.2-2.6,2.9-2.9c0.5-0.1,1.3-0.2,1.8-0.2
		c0.6-0.1,1.1-0.5,1.1-1.1V0.5c0-0.1,0-0.2,0-0.2c0-0.2-0.2-0.3-0.3-0.4c0,0-0.1,0-0.2,0H30.5c-0.1,0-0.2,0-0.2,0
		C30.1,0,30,0.2,30,0.4c0,0,0,0.1,0,0.2v1.9c0,0.6,0.4,1,1.1,1.1c0.5,0.1,1.3,0.2,1.8,0.2c1.7,0.3,2.7,0.9,2.9,2.9
		c0,0.3,0.1,1.2,0.1,1.2l0,1.6V33l0,1.6c0,0,0,0.9-0.1,1.2c-0.2,1.9-1.2,2.6-2.9,2.9c-0.5,0.1-1.3,0.2-1.8,0.2
		C30.4,39,30,39.5,30,40.1V42c0,0.1,0,0.2,0,0.2c0,0.2,0.2,0.3,0.4,0.3c0,0,0.1,0,0.2,0H53c0.1,0,0.2,0,0.2,0c0.2,0,0.3-0.2,0.3-0.3
		c0,0,0-0.1,0-0.2v-1.9c0-0.6-0.4-1-1.1-1.1c-0.5-0.1-1.3-0.2-1.8-0.2c-1.7-0.3-2.7-0.9-2.9-2.9c0-0.3-0.1-1.2-0.1-1.2l0-1.6v-9
		h17.5v9l0,1.6c0,0,0,0.9-0.1,1.2c-0.2,1.9-1.2,2.6-2.9,2.9c-0.5,0.1-1.3,0.2-1.8,0.2c-0.6,0.1-1.1,0.5-1.1,1.1V42z"/>
	<path class="st0" d="M89.3,42c0,0.1,0,0.2,0,0.2c0,0.2,0.2,0.3,0.4,0.3c0,0,0.1,0,0.2,0h22.5c0.1,0,0.2,0,0.2,0
		c0.2,0,0.3-0.2,0.4-0.3c0,0,0-0.1,0-0.2v-1.9c0-0.6-0.4-1-1.1-1.1c-0.5-0.1-1.3-0.2-1.8-0.2c-1.7-0.3-2.7-0.9-2.9-2.9
		c0-0.3-0.1-1.2-0.1-1.2l0-1.6V9.6l0-1.6c0,0,0-0.9,0.1-1.2c0.2-1.9,1.2-2.6,2.9-2.9c0.5-0.1,1.3-0.2,1.8-0.2
		c0.6-0.1,1.1-0.5,1.1-1.1V0.5c0-0.1,0-0.2,0-0.2c0-0.2-0.2-0.3-0.4-0.4c0,0-0.1,0-0.2,0H89.9c-0.1,0-0.2,0-0.2,0
		c-0.2,0-0.3,0.2-0.4,0.4c0,0,0,0.1,0,0.2v1.9c0,0.6,0.4,1,1.1,1.1c0.5,0.1,1.3,0.2,1.8,0.2c1.7,0.3,2.7,0.9,2.9,2.9
		c0,0.3,0.1,1.2,0.1,1.2l0,1.6V33l0,1.6c0,0,0,0.9-0.1,1.2c-0.2,1.9-1.2,2.6-2.9,2.9c-0.5,0.1-1.3,0.2-1.8,0.2
		c-0.6,0.1-1.1,0.5-1.1,1.1V42z"/>
</g>
</svg>
