<?xml version="1.0" encoding="utf-8"?>
<!-- Generator: Adobe Illustrator 22.1.0, SVG Export Plug-In . SVG Version: 6.00 Build 0)  -->
<svg version="1.1" id="レイヤー_1" xmlns="http://www.w3.org/2000/svg" xmlns:xlink="http://www.w3.org/1999/xlink" x="0px"
	 y="0px" viewBox="0 0 118.1 42.5" style="enable-background:new 0 0 118.1 42.5;" xml:space="preserve">
<style type="text/css">
	.st0{fill:#E16800;}
</style>
<g>
	<rect x="26.5" y="5.9" class="st0" width="7.9" height="30.7"/>
	<path class="st0" d="M9.3,29.4c-0.8,0-1.5-0.7-1.5-1.5v-22H0v23.2c0,4.1,3.4,7.5,7.5,7.5h9.9v-7.2C17.4,29.4,9.3,29.4,9.3,29.4z"/>
	<rect x="82.7" y="5.9" class="st0" width="7.9" height="30.7"/>
	<path class="st0" d="M110.1,29.4c-0.8,0-1.5-0.7-1.5-1.5v-22h-7.8v23.2c0,4.1,3.4,7.5,7.5,7.5h9.9v-7.2
		C118.2,29.4,110.1,29.4,110.1,29.4z"/>
	<path class="st0" d="M56,21.3c0,1.6,0.2,3.6,2.2,6.3l10.5,14.9l6.4-4.5L64.5,23c-0.4-0.6-0.6-1.1-0.6-1.8c0-0.7,0.2-1.2,0.6-1.8
		l10.6-15L68.7,0L58.2,14.9C56.3,17.7,56,19.7,56,21.3"/>
	<path class="st0" d="M61,21.3c0,1.6-0.2,3.6-2.2,6.3L48.3,42.5L41.9,38l10.6-15c0.4-0.6,0.6-1.1,0.6-1.8c0-0.7-0.2-1.2-0.6-1.8
		l-10.6-15L48.3,0l10.5,14.9C60.8,17.7,61,19.7,61,21.3"/>
</g>
</svg>
