<?xml version="1.0" encoding="utf-8"?>
<!-- Generator: Adobe Illustrator 22.1.0, SVG Export Plug-In . SVG Version: 6.00 Build 0)  -->
<svg version="1.1" id="レイヤー_1" xmlns="http://www.w3.org/2000/svg" xmlns:xlink="http://www.w3.org/1999/xlink" x="0px"
	 y="0px" viewBox="0 0 798.1 149.6" style="enable-background:new 0 0 798.1 149.6;" xml:space="preserve">
<style type="text/css">
	.st0{fill:#005252;}
	.st1{fill:#FFFFFF;}
</style>
<g>
	<g>
		<path d="M34,17c-1.7,4.4-3.1,6.3-4.3,8.2l-6.5-3.8c0.5-0.7,1.2-1.6,1.8-2.5h-8v5.4c2.2,4,6,8,9,11.1l-4.1,5.9
			c-2-2.3-3.2-4.2-4.9-7.3v28.1h-6.2V31.7C9,37.5,6.4,43.2,3,48.3L0,40c5.2-7,8.2-15,9.8-21H1.3v-6.5h9.4V0.6H17v11.9h8v6.4
			c1.8-2.9,3.7-6.4,6.1-16.1l6.8,1c-0.4,1.8-0.9,4-1.8,6.7h5V0.6h6.5v9.9h13.8V17H47.6v9.2h15.1v6.6h-13c4.6,8.4,8.1,12.3,14.1,17.2
			l-3.4,7.2c-2.4-2.2-8.6-7.8-12.8-16.9v21.9h-6.5V40.4c-4,6.5-8.3,11.3-14.8,16.3l-4.3-6c5.8-3.9,12.2-9.2,17.2-18H24.9v-6.6h16.2
			V17H34z"/>
		<path d="M119.5,11h7.1v6.5h-19.6c0.3,5,1.1,18.4,5,28.2c0.3,0.7,3.3,8,6,8c2.2,0,3.3-6.8,3.7-9.8l6,3.4
			c-0.9,5.1-2.7,14.6-8.6,14.6c-4,0-17.4-4.5-19-44.4H65.6V11h34.4c0-1.5-0.2-8.7-0.3-10.4h6.9c0,4.1-0.1,7.8,0.1,10.4h11.9
			c-3.1-2.3-5.8-3.9-9.7-5.9l3.9-5.1c3.3,1.6,7.4,3.9,10.6,6.2L119.5,11z M65.6,53c3.5-0.5,12.4-1.6,13.9-1.8v-19H66.7v-6.5h31.6
			v6.5H86.2v18.1c7.5-1.1,11.5-1.9,14.1-2.4v6.2c-10.7,2.3-25.9,4.6-33.6,5.6L65.6,53z"/>
		<path d="M143.1,21c-5,3.1-8,4.5-10.8,5.6l-3.9-6.3c10.6-3.7,22.8-11.7,28.4-20.2h7.5c4.8,7.4,15.3,14.8,28.3,19.9l-4.2,6.6
			c-2.8-1.4-6.5-3.3-10.5-5.8v3.7h-34.8V21z M182.2,62.5c-0.8-1.4-1.2-2.2-2.7-4.4c-9,0.9-23.6,2-46.5,2.4l-1-6.8
			c1.4,0,7.3,0,9.3-0.1c1.7-3.2,5-10.4,6.4-15.3h-16.8v-6.4h59v6.4h-34.1c-2.2,5.3-4.8,10.9-7,15.1c12.2-0.3,13.6-0.3,26.7-1
			c-3.2-4.3-4.8-6.5-7.7-9.4l5.6-3.4c2,2,9.5,9.4,15.2,18.9L182.2,62.5z M174.3,18.3c-7.1-5-12.1-10.7-13.6-12.4
			C158,9,154.5,13,147.1,18.3H174.3z"/>
		<path d="M210.6,62.1h-6.7V36.8c-3.9,3.7-5.9,4.8-7.9,6.1l-2.9-6.7c8.4-4.9,14.8-12,17.8-19.1H194v-6.4h9.9V0.4h6.7v10.2h7.6v6.4
			c-1.1,2.5-2.6,5.8-6.6,11.1c3.3,3.8,4.9,4.9,9.2,8l-3.1,6.2c-3.1-2.5-4.8-4.2-7.1-6.9V62.1z M232.9,0.4h6.9V19h14v7h-14v26.9h15.5
			v7h-38.9v-7h16.5V26h-13.7v-7h13.7V0.4z"/>
		<path d="M308.7,59.9h-7.8V30.3c-7.4,5-15.7,8.7-24.2,11.4l-3.7-6.3c8.8-2.9,28.3-9.3,47.2-32.3l7.1,4.3c-2.6,2.6-9.5,10-18.6,17.2
			V59.9z"/>
		<path d="M357.5,22.9c-4.9-3.6-13-7.6-19.8-9.6l3.5-6.4c5.7,1.6,11.5,3.5,20.3,9L357.5,22.9z M338.4,49.9
			c24.5-1.8,38.7-11.2,47.8-39l7.4,3.4c-9.6,27.9-23.8,40.3-52.8,43.9L338.4,49.9z"/>
		<path d="M420.4,25.9c2.6,1.1,8.3,3.5,15.2,9.3c5.7-7.3,7.1-14,7.8-17.1h-22.9c-7,9.8-14,14-17.2,15.9l-4.9-5.5
			c11.4-6,17.4-13.9,22-25.6l7.9,1.5c-0.9,1.9-1.5,3.4-3.5,6.9h27.9c-1.7,10.2-7.3,40.4-46,49.3l-4.3-6.5
			c4.9-0.8,15.5-2.6,27.9-13.4c-6.7-5.7-12.1-8.4-15.1-9.8L420.4,25.9z"/>
		<path d="M483.6,26.9v7.9h-26.2v-7.9H483.6z"/>
		<path d="M503.8,41.1h-7.6V5.6h7.6V41.1z M536.9,29.2c0,26.2-15.6,29.2-34.8,31.3l-2.4-7.2c9.5-0.6,15.8-1.7,21.5-4.6
			c7.6-3.9,8-13.5,8-16V4.4h7.7V29.2z"/>
		<path d="M550.1,52.8c14-5.1,30.5-19.4,37.8-39.3h-34V6.3h44c-0.9,3.9-3.2,14.3-12.6,27.2c7.7,6.2,15.1,12.6,22.1,19.5l-6.2,6.2
			c-7.4-8.7-17.4-17.5-20.4-20c-7.6,8.8-15.8,15.6-26.2,19.8L550.1,52.8z"/>
		<path d="M667,11.7c-1.9,11-7.3,43-46.8,48.1l-3-6.7c21.3-3.2,33.9-11.3,40.1-34.4h-23.4c-5.9,7.5-10.9,12.2-15.8,15.1l-4.8-5.6
			c3.9-2.3,15.2-9,21.3-25.7l8.1,1.6c-0.8,2.1-1.4,3.9-3.7,7.7H667z"/>
		<path d="M680,23.3c-4.1-4.4-7.1-6.9-8.5-8l3.2-5.4c0.9,0.6,1.1,0.8,1.9,1.6c2.5-3.9,3.8-6.8,5.3-10.6l6.1,1.8
			c-2.3,5.2-6.1,11.2-7.2,12.9c1.6,1.8,2.2,2.3,2.6,2.8c3.8-5.6,5.4-8.6,6.6-10.9l5.7,2.6c-3.8,6.7-11.1,16.8-12.6,18.6
			c2.2-0.1,3.3-0.1,6.9-0.3c-0.6-1.6-0.9-2.5-1.6-3.9l4.9-1.8c1.8,3.4,3.7,8.5,4.4,11.3l-5.2,2c-0.3-1.3-0.5-1.6-0.6-2.2
			c-1.2,0.1-3.5,0.3-4.3,0.3v28.2h-6.2V34.4c-6.1,0.4-6.8,0.4-8.8,0.5l-0.3-6c1.9,0,2.2,0,4-0.1C677.1,27.5,678.9,24.9,680,23.3z
			 M679.2,39.2c0,2.1-0.3,12-2.2,18.3l-5.5-1.5c1.6-5.9,2.1-11.6,2.2-17.7L679.2,39.2z M694.5,38.6c0.8,3.8,1.1,7.5,1.1,11.5
			l-5.4,0.9c0.1-4-0.5-9.4-0.8-11.7L694.5,38.6z M703.4,42.7c-0.2,2.5-0.6,10.4-4.2,16.9l-6-3.1c1.3-2,3.6-5.5,5-15.1L703.4,42.7z
			 M712.1,3.1c-3,5.9-8.4,11.9-13.4,16.2l-4.2-4.9c2.1-1.6,7.4-5.7,11.6-13.4L712.1,3.1z M706.8,32.3c-1.5,0.1-5.7,0.3-7.1,0.3v-5.8
			c0.7,0,1.3,0,3-0.1c2.9-5.7,5-11.9,6.3-15.5l6.7,1.5c-2.3,6.1-3.2,8-6.4,13.7c2.6-0.1,9.8-0.4,12.8-0.6c-2.9-4.5-3.5-5.2-5-7
			l5.4-3.2c4.9,5.1,8.5,11.3,10.6,15.7l-5.9,3.5c-0.7-1.6-1.1-2.3-1.8-3.5c-7.1,0.6-8,0.7-16.4,1c5.5,2.2,8.1,3.9,10.7,5.7l-3.3,5.2
			c-3-2.3-7.9-4.9-12.3-6.3L706.8,32.3z M711.6,43.4v10.7c0,1.3,0.3,1.5,1.4,1.5h3.3c1.3,0,1.9,0,2.3-6.9l6.5,1.3
			c-1.3,9.2-1.7,11.6-5.4,11.6h-9.3c-2,0-4.9-0.5-4.9-3.3V43.4H711.6z M731.3,18.7c-5.6-4.1-9.9-9.5-13.1-15.6l5.8-2.6
			c4.3,7.9,8.6,11.1,10.9,12.8L731.3,18.7z M728.7,39.3c2.3,4.2,4.8,11.8,5.8,16.8l-6.2,2.2c-1.7-7.8-3.2-12.1-5.3-16.9L728.7,39.3z
			"/>
		<path d="M740.8,36.1c-1,1.4-1.4,1.9-2.6,3.1l-2.8-7.7c5.2-6.7,7.2-12.2,7.8-21.7h-6.8V3.5h23.7v6.4h-10.6c-0.2,3-0.4,6.6-2.1,12.1
			h11.4v33.8h-12v4.8h-6V36.1z M746.8,28v21.7h6.2V28H746.8z M797.1,3.5v6.4h-6.3v15.4h7.3v6.4h-7.3V62h-6.7V31.6h-9.6v5.7
			c0,1.3,0,7.1-1.8,13.8c-1.2,4.5-2.8,7.5-6.6,10.9l-6-4.8c6.6-6.4,7.7-12.5,7.7-20.4v-5.2h-6.3v-6.4h6.3V9.8h-5.1V3.5H797.1z
			 M774.5,9.8v15.4h9.6V9.8H774.5z"/>
	</g>
	<g>
		<path class="st0" d="M390.1,106.1v11.3h9.2v2.1h-9.2v11.3h12.2v2.2h-14.8v-29.1h14.8v2.2H390.1z M205.1,103.9h-2.6V133h2.6V103.9z
			 M215.8,133v-25.8l0.1-0.1l12,25.8h4v-29.1h-2.6v25.5l-0.1,0.1l-12-25.5h-4V133H215.8z M338.7,133v-25.8l0.1-0.1l12,25.8h4v-29.1
			h-2.6v25.5l-0.1,0.1l-12-25.5h-4V133H338.7z M255.2,111.2c0-4.2-1.3-7.9-7.4-7.9c-4.8,0-8,2.1-8,7.1c0.1,2.9,0.3,4.6,6,8.1
			c4.2,2.6,6.9,3.7,6.9,7.7c0,3.3-1.7,5.1-5.1,5.1c-5.3,0-5.5-3.3-5.5-6.6h-2.7c-0.3,5.7,2.3,8.8,8.1,8.8c5.2,0,7.8-2.5,7.8-7.8
			c0-5.6-3.7-6.4-7.3-9c-3.4-2.4-5.6-2.5-5.6-6.8c0-3.4,2-4.5,5.2-4.5c4,0,4.9,2.2,5,5.8H255.2z M475.2,103.3
			c8.8,0,8.9,7.3,8.9,15.1c0,7.8-0.1,15.1-8.9,15.1c-8.8,0-8.9-7.3-8.9-15.1C466.2,110.6,466.4,103.3,475.2,103.3 M475.2,131.4
			c6.2,0,6.3-5.2,6.3-13c0-7.8-0.1-13-6.3-13c-6.2,0-6.3,5.2-6.3,13C468.9,126.2,469,131.4,475.2,131.4 M431.3,130.5
			c-1.4,0.5-3.3,0.9-5.6,0.9c-6.4,0-6.3-5.6-6.3-13c0-7.3-0.1-13,6.3-13c4.1,0,5.8,2,5.8,5.8h2.6c0.1-5.6-2.8-8-8.4-8
			c-9.6,0-8.9,9.5-8.9,15.1c0,5.6-0.7,15.1,8.9,15.1c2.8,0,5.6-0.4,8.1-1.2v-14.5h-8.6v2.2h6V130.5z M278,103.9v14.6l0,0
			c0,7.7-0.1,13-6.3,13c-6.2,0-6.3-5.2-6.3-13v-14.6h-2.7v14.6l0,0c0,7.8,0.1,15.1,8.9,15.1c8.8,0,8.9-7.3,8.9-15.1v-14.6H278z
			 M507,103.9v14.6l0,0c0,7.7-0.1,13-6.3,13c-6.2,0-6.3-5.2-6.3-13v-14.6h-2.6v14.6l0,0c0,7.8,0.1,15.1,8.9,15.1
			c8.8,0,8.9-7.3,8.9-15.1v-14.6H507z M534.5,113c0,1.6-0.4,4-2.6,6.4c-2.1,2.4-4.7,2.6-7.4,2.6h-4.6V133h-2.6v-29.1h7.2
			c2.7,0,5.3,0.3,7.4,2.6C534.1,108.9,534.5,111.4,534.5,113z M531.9,113c0-1.5-0.4-3.3-1.8-5c-1.2-1.4-2.6-2-5.6-2h-4.6v13.9h4.6
			c3,0,4.3-0.6,5.6-2C531.4,116.3,531.9,114.5,531.9,113z M306.2,133h-2.8l-4-11.1c-0.4-1.1-1.1-1.8-3-1.9c-0.5,0-5.4,0-5.4,0v13
			h-2.6v-29.1h7.7c5.8,0,9.4,3.1,9.4,8.1c0,3.4-1.7,5.9-4.6,7.2c0.5,0.5,0.8,1.1,1.1,1.9L306.2,133z M296.1,117.8
			c2.5,0,6.8-1,6.8-5.9c0-4.9-4.3-5.9-6.8-5.9h-5v11.8H296.1z M459.8,133h-2.8l-4-11.1c-0.4-1.1-1-1.8-3-1.9c-0.5,0-5.4,0-5.4,0v13
			H442v-29.1h7.7c5.8,0,9.3,3.1,9.3,8.1c0,3.4-1.7,5.9-4.6,7.2c0.4,0.5,0.8,1.1,1.1,1.9L459.8,133z M449.7,117.8
			c2.5,0,6.7-1,6.7-5.9c0-4.9-4.2-5.9-6.7-5.9h-5.1v11.8H449.7z M377,125.5c-0.5,3.7-2,5.9-6,5.9c-6.2,0-6.3-5.2-6.3-13
			c0-7.8,0.1-13,6.3-13c4,0,5.5,2.2,6,5.8h2.6c-0.6-4.6-2.6-8-8.6-8c-8.8,0-8.9,7.3-8.9,15.1c0,7.8,0.1,15.1,8.9,15.1
			c6,0,8-3.4,8.6-8H377z M322.3,103.9l7.9,29.1h-2.7l-2.1-7.8h-9.9l-2.1,7.8h-2.7l7.9-29.1H322.3z M324.8,122.9l-4.3-15.9l-4.3,15.9
			H324.8z"/>
		<g>
			<rect y="87.2" class="st0" width="186.4" height="62.3"/>
			<path class="st1" d="M33.9,127.2h-0.1l-8.5-23.3H15v0.1c2.5,1,4,3,4,6.3v22.7h3v-25.5h0.1l9.2,25.5h3.4l9.2-25.7H44v25.7h5.6
				v-29.1h-7.4L33.9,127.2z M62.2,109.5c0-2.9,2.6-4,4.9-4.1c3.4-0.1,6.8,1.3,9,2.5v-3.5c-1-0.2-4.7-1.1-8.4-1.1
				c-6.6,0-10.7,2.7-10.8,7.5c-0.3,9.8,15.6,9.1,15.6,15.6c0,3.2-2.3,4.9-6,4.9c-3.3,0-6.8-1.5-9.2-3.2v4c1,0.5,4.7,1.5,8.4,1.5
				c6.6,0,12.2-2.1,12.1-8.6C77.6,115.5,62.2,116.2,62.2,109.5 M105.4,126.3c0.6-1.3,1.8-3.8,3.2-7.2h-3c0,0-1.1,2.7-2.1,5.1
				c-2.7-2.8-5.3-5.4-7.1-7.3c2.9-1.7,7.2-3.6,7.2-7.9c0-2.7-2.3-5.8-7.6-5.6c-3.9,0.1-6.7,2.8-6.9,6.1c-0.2,2.5,1.1,4.2,2.5,5.8
				c0.3,0.3,0.8,0.8,1.4,1.4c-4.4,2.5-6.9,5.4-7.1,9.1c-0.1,4.3,3.3,7.8,9.3,7.8c4.1,0,7.1-1.8,9.2-5.1c2.4,2.5,4.2,4.4,4.2,4.4h3.7
				C110.3,131.2,107.9,128.8,105.4,126.3 M91.5,109.3c0.1-2.3,1.8-4.2,4.5-4.2c2.7,0,4.7,1.7,4.7,4.2c0,3-2.1,4.4-5.7,6.3
				c-0.2-0.2-0.4-0.4-0.5-0.6C92.5,112.9,91.4,111.5,91.5,109.3 M102.1,127c-1.6,3-3.1,4.9-6.8,4.9c-4.2,0-6.8-2.7-6.7-6.5
				c0.1-3.5,2.9-5.6,5.6-7.2c2.2,2.4,5.3,5.6,8.1,8.4C102.2,126.7,102.1,126.9,102.1,127 M156.5,103.9L156.5,103.9H144v0.1
				c2.5,1,4,3,4,6.3v22.7h8.5c9.1,0,15.8-2.3,15.8-14.5C172.3,106.2,165.6,103.9,156.5,103.9 M157,130.7h-3.9v-24.6h3.9
				c7.6,0,9.8,4.6,9.8,12.3S164.6,130.7,157,130.7 M121.5,103.9L121.5,103.9c2.1,0.9,4,2.9,3.3,4.8c-0.7,1.8-9.9,24.2-9.9,24.2h3.1
				l3.5-8.8H134l3.7,8.8h5.5l-12.6-29.1H121.5z M122.4,121.8l5.1-12.9l5.5,12.9H122.4z"/>
		</g>
	</g>
</g>
</svg>
