<?xml version="1.0" encoding="utf-8"?>
<!-- Generator: Adobe Illustrator 22.1.0, SVG Export Plug-In . SVG Version: 6.00 Build 0)  -->
<svg version="1.1" id="レイヤー_1" xmlns="http://www.w3.org/2000/svg" xmlns:xlink="http://www.w3.org/1999/xlink" x="0px"
	 y="0px" viewBox="0 0 434 77.7" style="enable-background:new 0 0 434 77.7;" xml:space="preserve">
<style type="text/css">
	.st0{fill:#DE0000;}
	.st1{fill:#656565;}
	.st2{fill:#E2000B;}
	.st3{fill:#E1000B;}
	.st4{fill:#E0000A;}
	.st5{fill:#DF000A;}
	.st6{fill:#DE000A;}
	.st7{fill:#DD0009;}
	.st8{fill:#DC0009;}
	.st9{fill:#DB0009;}
	.st10{fill:#DA0008;}
	.st11{fill:#D90008;}
	.st12{fill:#D80007;}
	.st13{fill:#D70007;}
	.st14{fill:#D60007;}
	.st15{fill:#D50006;}
	.st16{fill:#D40006;}
	.st17{fill:#D30006;}
	.st18{fill:#D30005;}
	.st19{fill:#D20005;}
	.st20{fill:#D10005;}
	.st21{fill:#D00004;}
	.st22{fill:#CF0004;}
	.st23{fill:#CE0004;}
	.st24{fill:#CD0003;}
	.st25{fill:#CC0003;}
	.st26{fill:#CB0002;}
	.st27{fill:#CA0002;}
	.st28{fill:#C90002;}
	.st29{fill:#C80001;}
	.st30{fill:#C70001;}
	.st31{fill:#C60001;}
	.st32{fill:#C50000;}
	.st33{fill:#C40000;}
	.st34{fill:#E0000B;}
	.st35{fill:#DD000A;}
	.st36{fill:#DC000A;}
	.st37{fill:#DB000A;}
	.st38{fill:#DA0009;}
	.st39{fill:#D90009;}
	.st40{fill:#D80009;}
	.st41{fill:#D70009;}
	.st42{fill:#D60009;}
	.st43{fill:#D50008;}
	.st44{fill:#D40008;}
	.st45{fill:#D30008;}
	.st46{fill:#D20008;}
	.st47{fill:#D10008;}
	.st48{fill:#D00008;}
	.st49{fill:#CF0007;}
	.st50{fill:#CE0007;}
	.st51{fill:#CD0007;}
	.st52{fill:#CC0007;}
	.st53{fill:#CB0007;}
	.st54{fill:#CA0006;}
	.st55{fill:#C90006;}
	.st56{fill:#C80006;}
	.st57{fill:#C70006;}
	.st58{fill:#C60006;}
	.st59{fill:#C60005;}
	.st60{fill:#C50005;}
	.st61{fill:#C40005;}
	.st62{fill:#C30005;}
	.st63{fill:#C20005;}
	.st64{fill:#C10004;}
	.st65{fill:#C00004;}
	.st66{fill:#BF0004;}
	.st67{fill:#BE0004;}
	.st68{fill:#BD0004;}
	.st69{fill:#BC0003;}
	.st70{fill:#BB0003;}
	.st71{fill:#BA0003;}
	.st72{fill:#B90003;}
	.st73{fill:#B80003;}
	.st74{fill:#B70003;}
	.st75{fill:#B60002;}
	.st76{fill:#B50002;}
	.st77{fill:#B40002;}
	.st78{fill:#B30002;}
	.st79{fill:#B20002;}
	.st80{fill:#B10001;}
	.st81{fill:#B00001;}
	.st82{fill:#AF0001;}
	.st83{fill:#AE0001;}
	.st84{fill:#AD0001;}
	.st85{fill:#AC0000;}
	.st86{fill:#AB0000;}
	.st87{fill:#AA0000;}
	.st88{fill:#E1000A;}
	.st89{fill:#E00009;}
	.st90{fill:#DF0008;}
	.st91{fill:#DE0008;}
	.st92{fill:#DD0007;}
	.st93{fill:#DC0006;}
	.st94{fill:#DC0005;}
	.st95{fill:#DB0004;}
	.st96{fill:#DA0003;}
	.st97{fill:#D90003;}
	.st98{fill:#D80002;}
	.st99{fill:#D70001;}
	.st100{fill:#D60000;}
	.st101{fill:#FFFFFF;}
</style>
<g>
	<g>
		<path class="st0" d="M93.8,61.5V16.2h29c3.9,0,7.3,1,10.2,3c2.8,2,4.3,4.4,4.3,7.1V29c0,2.3-1.1,4.4-3.3,6.5
			c-2.2,2.1-5.9,3.1-11.1,3.1h7.2c2,0,3.7,0.5,5.1,1.5c1.4,1,2.1,2.2,2.1,3.6v17.8h-14.4V46.4c0-1.4-0.7-2.5-2.1-3.5
			c-1.4-1-3.1-1.5-5.2-1.5h-7.2v20.1H93.8z M108.3,36.3h7.2c2,0,3.8-0.5,5.2-1.5c1.4-1,2.1-2.2,2.1-3.5v-5c0-1.4-0.7-2.6-2.1-3.6
			c-1.4-1-3.1-1.5-5.2-1.5h-7.2V36.3z"/>
		<path class="st0" d="M145.7,61.5V16.2h36.2v5h-21.7v15.1h21.7v5.1h-21.7v15.1h21.7v5H145.7z"/>
		<path class="st0" d="M190.3,61.5V16.2h29c3.9,0,7.3,1,10.2,3c2.8,2,4.3,4.4,4.3,7.1v25.2c0,2.7-1.4,5.1-4.3,7.1
			c-2.8,2-6.2,3-10.2,3H190.3z M204.8,56.5h7.2c2,0,3.8-0.5,5.2-1.5c1.4-1,2.1-2.2,2.1-3.6V26.3c0-1.4-0.7-2.6-2.1-3.6
			c-1.4-1-3.1-1.5-5.2-1.5h-7.2V56.5z"/>
		<path class="st1" d="M285.6,51.4c-0.6,6.7-5.4,10.1-14.4,10.1h-14.5c-3.9,0-7.3-1-10.2-3c-2.9-2-4.3-4.4-4.3-7.1V26.3
			c0-2.7,1.4-5.1,4.2-7.1c2.8-2,6.2-3,10.3-3h14.5c9.1,0,13.9,3.4,14.4,10.1h-7.2c-0.6-3.4-3-5.1-7.2-5.1h-7.3c-2,0-3.7,0.5-5.1,1.5
			c-1.4,1-2.1,2.2-2.1,3.6v25.2c0,1.4,0.7,2.6,2.1,3.6c1.4,1,3.1,1.5,5.1,1.5h7.3c4.3,0,6.7-1.7,7.2-5.1H285.6z"/>
		<path class="st1" d="M323.1,16.2h14.4v35.3c0,2.7-1.4,5.1-4.3,7.1c-2.8,2-6.2,3-10.2,3h-14.5c-3.9,0-7.3-1-10.2-3
			c-2.9-2-4.3-4.4-4.3-7.1V16.2h14.5v35.3c0,1.4,0.7,2.6,2.1,3.6c1.4,1,3.1,1.5,5.1,1.5c2,0,3.8-0.5,5.2-1.5c1.4-1,2.1-2.2,2.1-3.6
			V16.2z"/>
		<path class="st1" d="M345.9,61.5V16.2h29c3.9,0,7.3,1,10.2,3c2.8,2,4.3,4.4,4.3,7.1v2.5c0,3-1.2,5.3-3.6,7
			c-2.4,1.7-6,2.7-10.8,3.1c4.8,0,8.4,1,10.8,3.1c2.4,2,3.6,4.4,3.6,7v2.5c0,2.7-1.4,5.1-4.3,7.1c-2.8,2-6.2,3-10.2,3H345.9z
			 M360.4,36.3h7.2c2,0,3.8-0.5,5.2-1.5c1.4-1,2.1-2.2,2.1-3.5v-5c0-1.4-0.7-2.6-2.1-3.6c-1.4-1-3.1-1.5-5.2-1.5h-7.2V36.3z
			 M360.4,56.5h7.2c2,0,3.8-0.5,5.2-1.5c1.4-1,2.1-2.2,2.1-3.6v-5c0-3.3-2.4-5-7.3-5h-7.2V56.5z"/>
		<path class="st1" d="M397.7,61.5V16.2H434v5h-21.7v15.1H434v5.1h-21.7v15.1H434v5H397.7z"/>
	</g>
	<g>
		<path class="st2" d="M70,53.7c0,3-2.1,6.6-4.7,8.1L39.7,76.6c-2.6,1.5-6.8,1.5-9.3,0L4.7,61.7C2.1,60.3,0,56.6,0,53.7V24
			c0-3,2.1-6.6,4.7-8.1L30.3,1.1c2.6-1.5,6.8-1.5,9.3,0l25.7,14.8C67.9,17.4,70,21,70,24V53.7z"/>
		<g>
			<g>
				<path class="st2" d="M4.7,21.3C2.1,19.8,0,21,0,24v29.6c0,3,2.1,6.6,4.7,8.1l25.7,14.8c2.6,1.5,4.7,0.3,4.7-2.7V44.2
					c0-3-2.1-6.6-4.7-8.1L4.7,21.3z"/>
				<path class="st3" d="M0.1,24c0,0,0,0.6,0,0.6c0,0,0,29.1,0,29.1c0,2.9,2.1,6.5,4.6,8l25.5,14.7c2.3,1.3,4.3,0.5,4.6-1.8
					c0-0.2,0.1-0.5,0.1-0.7c0,0,0-0.6,0-0.6V44.2c0-2.9-2.1-6.5-4.6-8L4.8,21.5c-2.3-1.3-4.3-0.5-4.6,1.8C0.1,23.5,0.1,23.7,0.1,24z
					"/>
				<path class="st4" d="M0.2,24c0,0,0,0.5,0,0.6c0,0,0,29.1,0,29.1c0,2.9,2.1,6.5,4.6,7.9l25.4,14.7c2.2,1.3,4.3,0.6,4.6-1.7
					c0-0.2,0.1-0.4,0.1-0.7c0,0,0-0.5,0-0.6V44.2c0-2.9-2.1-6.5-4.6-7.9L4.9,21.6c-2.2-1.3-4.3-0.6-4.6,1.7
					C0.2,23.5,0.2,23.7,0.2,24z"/>
				<path class="st5" d="M0.3,24c0,0,0,0.5,0,0.6c0,0,0,29.1,0,29.1c0,2.9,2,6.4,4.5,7.9L30,76.1c2.1,1.2,4.3,0.7,4.6-1.5
					c0.1-0.2,0.1-0.4,0.1-0.6c0,0,0-0.5,0-0.6V44.2c0-2.9-2-6.4-4.5-7.9L5,21.8c-2.1-1.2-4.3-0.7-4.6,1.5C0.3,23.5,0.3,23.7,0.3,24z
					"/>
				<path class="st6" d="M0.4,23.9c0,0,0,0.5,0,0.6c0,0,0,29.2,0,29.2c0,2.8,2,6.4,4.5,7.8l25.1,14.5c2,1.2,4.3,0.7,4.6-1.4
					c0.1-0.2,0.1-0.4,0.1-0.6c0,0,0-0.5,0-0.6V44.2c0-2.8-2-6.4-4.5-7.8L5.1,22c-2-1.2-4.3-0.7-4.6,1.4C0.4,23.5,0.4,23.7,0.4,23.9z
					"/>
				<path class="st7" d="M0.4,23.9c0,0,0,0.5,0,0.6c0,0,0,29.2,0,29.2c0,2.8,2,6.3,4.4,7.7l24.9,14.4c2,1.1,4.3,0.8,4.6-1.2
					c0.1-0.2,0.1-0.4,0.1-0.6c0,0,0-0.5,0-0.6V44.2c0-2.8-2-6.3-4.4-7.7L5.2,22.1c-2-1.1-4.3-0.8-4.6,1.2
					C0.5,23.5,0.5,23.7,0.4,23.9z"/>
				<path class="st8" d="M0.5,23.9c0,0,0,0.5,0,0.6c0,0,0,29.2,0,29.2c0,2.8,2,6.2,4.4,7.6l24.8,14.3c1.9,1.1,4.3,0.9,4.6-1.1
					c0.1-0.2,0.1-0.3,0.1-0.5c0,0,0-0.5,0-0.6V44.2c0-2.8-2-6.2-4.4-7.6L5.3,22.3c-1.9-1.1-4.3-0.9-4.6,1.1
					C0.6,23.5,0.6,23.7,0.5,23.9z"/>
				<path class="st9" d="M0.6,23.9c0,0,0,0.5,0,0.6c0,0,0,29.2,0,29.2c0,2.7,2,6.2,4.4,7.6l24.7,14.2c1.8,1,4.3,0.9,4.6-0.9
					c0.1-0.1,0.1-0.3,0.2-0.5c0,0,0-0.5,0-0.6V44.2c0-2.7-2-6.2-4.4-7.6L5.4,22.4c-1.8-1-4.3-0.9-4.6,0.9
					C0.7,23.5,0.7,23.7,0.6,23.9z"/>
				<path class="st10" d="M0.7,23.9c0,0,0,0.5,0,0.6c0,0,0,29.2,0,29.2c0,2.7,2,6.1,4.3,7.5l24.5,14.2c1.7,1,4.3,1,4.6-0.8
					c0.1-0.1,0.1-0.3,0.2-0.5c0,0,0-0.5,0-0.6V44.2c0-2.7-2-6.1-4.3-7.5L5.5,22.6c-1.7-1-4.3-1-4.6,0.8C0.8,23.5,0.7,23.7,0.7,23.9z
					"/>
				<path class="st11" d="M0.8,23.8c0,0,0,0.5,0,0.6c0,0,0,29.2,0,29.2c0,2.7,1.9,6.1,4.3,7.4l24.4,14.1c1.7,1,4.3,1.1,4.6-0.6
					c0.1-0.1,0.2-0.3,0.2-0.5c0,0,0-0.5,0-0.6V44.2c0-2.7-1.9-6.1-4.3-7.4L5.6,22.7c-1.7-1-4.3-1.1-4.6,0.6
					C0.9,23.5,0.8,23.7,0.8,23.8z"/>
				<path class="st12" d="M0.9,23.8c0,0,0,0.5,0,0.6c0,0,0,29.3,0,29.3c0,2.7,1.9,6,4.2,7.3l24.2,14c1.6,0.9,4.3,1.1,4.6-0.5
					c0.1-0.1,0.2-0.3,0.2-0.4c0,0,0-0.5,0-0.6V44.2c0-2.7-1.9-6-4.2-7.3l-24.2-14c-1.6-0.9-4.3-1.1-4.6,0.5
					C1,23.5,0.9,23.7,0.9,23.8z"/>
				<path class="st13" d="M1,23.8c0,0,0,0.5,0,0.6c0,0,0,29.3,0,29.3c0,2.6,1.9,5.9,4.2,7.3l24.1,13.9c1.5,0.9,4.4,1.2,4.6-0.4
					c0.1-0.1,0.2-0.2,0.2-0.4c0,0,0-0.5,0-0.6V44.2c0-2.6-1.9-5.9-4.2-7.3L5.8,23.1c-1.5-0.9-4.4-1.2-4.6,0.4
					C1.1,23.5,1,23.6,1,23.8z"/>
				<path class="st14" d="M1.1,23.8c0,0,0,0.5,0,0.6c0,0,0,29.3,0,29.3c0,2.6,1.9,5.9,4.1,7.2l23.9,13.8c1.4,0.8,4.4,1.3,4.6-0.2
					c0.1-0.1,0.2-0.2,0.2-0.4c0,0,0-0.5,0-0.6V44.2c0-2.6-1.9-5.9-4.1-7.2L5.9,23.2c-1.4-0.8-4.4-1.3-4.6,0.2
					C1.2,23.5,1.1,23.6,1.1,23.8z"/>
				<path class="st15" d="M1.2,23.8c0,0.1,0,0.5,0,0.6c0,0,0,29.3,0,29.3c0,2.6,1.9,5.8,4.1,7.1L29,74.5c1.4,0.8,4.4,1.3,4.5-0.1
					c0.1-0.1,0.2-0.2,0.3-0.3c0-0.1,0-0.5,0-0.6V44.2c0-2.6-1.9-5.8-4.1-7.1L6,23.4c-1.4-0.8-4.4-1.3-4.5,0.1
					C1.3,23.5,1.2,23.6,1.2,23.8z"/>
				<path class="st16" d="M1.2,23.7c0,0.1,0,0.4,0,0.6c0,0,0,29.3,0,29.3c0,2.5,1.9,5.8,4.1,7l23.7,13.7c1.3,0.7,4.4,1.4,4.5,0.1
					c0.1-0.1,0.2-0.2,0.3-0.3c0-0.1,0-0.4,0-0.6V44.2c0-2.5-1.9-5.8-4.1-7L6.1,23.5c-1.3-0.7-4.4-1.4-4.5-0.1
					C1.4,23.5,1.3,23.6,1.2,23.7z"/>
				<path class="st17" d="M1.3,23.7c0,0.1,0,0.4,0,0.6c0,0,0,29.3,0,29.3c0,2.5,1.8,5.7,4,7l23.5,13.6c1.2,0.7,4.4,1.5,4.5,0.2
					c0.1,0,0.2-0.1,0.3-0.3c0-0.1,0-0.4,0-0.6V44.2c0-2.5-1.8-5.7-4-7L6.2,23.7C5,23,1.8,22.2,1.6,23.5C1.5,23.5,1.4,23.6,1.3,23.7z
					"/>
				<path class="st18" d="M1.4,23.7c0,0.1,0,0.4,0,0.6c0,0,0,29.4,0,29.4c0,2.5,1.8,5.6,4,6.9L28.7,74c1.1,0.7,4.4,1.5,4.5,0.4
					c0.1,0,0.2-0.1,0.3-0.2c0-0.1,0-0.4,0-0.6V44.2c0-2.5-1.8-5.6-4-6.9L6.3,23.8c-1.1-0.7-4.4-1.5-4.5-0.4
					C1.6,23.5,1.5,23.6,1.4,23.7z"/>
				<path class="st19" d="M1.5,23.7c0,0.1,0,0.4,0,0.6c0,0,0,29.4,0,29.4c0,2.4,1.8,5.6,3.9,6.8l23.2,13.4c1.1,0.6,4.4,1.6,4.5,0.5
					c0.2,0,0.3-0.1,0.3-0.2c0-0.1,0-0.4,0-0.6V44.2c0-2.4-1.8-5.6-3.9-6.8L6.4,24c-1.1-0.6-4.4-1.6-4.5-0.5
					C1.7,23.5,1.6,23.6,1.5,23.7z"/>
				<path class="st20" d="M1.6,23.7c0,0.1,0,0.4,0,0.6c0,0,0,29.4,0,29.4c0,2.4,1.8,5.5,3.9,6.7l23.1,13.3c1,0.6,4.4,1.7,4.5,0.7
					c0.2,0,0.3-0.1,0.3-0.2c0-0.1,0-0.4,0-0.6V44.2c0-2.4-1.8-5.5-3.9-6.7L6.5,24.2c-1-0.6-4.4-1.7-4.5-0.7
					C1.8,23.5,1.7,23.6,1.6,23.7z"/>
				<path class="st21" d="M1.7,23.6c0,0.1,0,0.4,0,0.6c0,0,0,29.4,0,29.4c0,2.4,1.8,5.5,3.8,6.7l22.9,13.2c0.9,0.5,4.4,1.8,4.5,0.8
					c0.2,0,0.3-0.1,0.4-0.1c0-0.1,0-0.4,0-0.6V44.2c0-2.4-1.8-5.5-3.8-6.7L6.6,24.3c-0.9-0.5-4.4-1.8-4.5-0.8
					C1.9,23.5,1.8,23.6,1.7,23.6z"/>
				<path class="st22" d="M1.8,23.6c0,0.1,0,0.4,0,0.6c0,0,0,29.4,0,29.4c0,2.3,1.8,5.4,3.8,6.6l22.8,13.2c0.8,0.5,4.4,1.8,4.5,1
					c0.2,0,0.3,0,0.4-0.1c0-0.1,0-0.4,0-0.6V44.2c0-2.3-1.8-5.4-3.8-6.6L6.7,24.5c-0.8-0.5-4.4-1.8-4.5-1C2,23.5,1.9,23.6,1.8,23.6z
					"/>
				<path class="st23" d="M1.9,23.6c0,0.1,0,0.4,0,0.6c0,0,0,29.5,0,29.5c0,2.3,1.7,5.3,3.8,6.5l22.7,13.1c0.8,0.4,4.4,1.9,4.5,1.1
					c0.2,0,0.3,0,0.4-0.1c0-0.1,0-0.4,0-0.6V44.2c0-2.3-1.7-5.3-3.8-6.5L6.8,24.6c-0.8-0.4-4.4-1.9-4.5-1.1
					C2.1,23.5,2,23.5,1.9,23.6z"/>
				<path class="st24" d="M2,23.6c0,0.1,0,0.4,0,0.6c0,0,0,29.5,0,29.5c0,2.3,1.7,5.3,3.7,6.4l22.5,13c0.7,0.4,4.4,2,4.5,1.3
					c0.2,0,0.3,0,0.4,0c0-0.1,0.1-0.4,0.1-0.6V44.2c0-2.3-1.7-5.3-3.7-6.4l-22.5-13c-0.7-0.4-4.4-2-4.5-1.3
					C2.2,23.5,2.1,23.5,2,23.6z"/>
				<path class="st25" d="M2.1,23.6C2,23.7,2,23.9,2,24.2c0,0,0,29.5,0,29.5c0,2.3,1.7,5.2,3.7,6.4L28,72.9c0.6,0.3,4.4,2,4.5,1.4
					c0.2,0.1,0.3,0,0.4,0c0-0.1,0.1-0.4,0.1-0.6V44.2c0-2.3-1.7-5.2-3.7-6.4L7,25c-0.6-0.3-4.4-2-4.5-1.4
					C2.3,23.5,2.1,23.5,2.1,23.6z"/>
				<path class="st26" d="M2.1,23.6c0,0.1-0.1,0.4-0.1,0.6c0,0,0,29.5,0,29.5c0,2.2,1.7,5.2,3.6,6.3l22.2,12.8
					c0.5,0.3,4.4,2.1,4.5,1.5c0.2,0.1,0.3,0.1,0.4,0c0-0.1,0.1-0.4,0.1-0.6V44.2c0-2.2-1.7-5.2-3.6-6.3L7.1,25.1
					c-0.5-0.3-4.4-2.1-4.5-1.5C2.4,23.5,2.2,23.5,2.1,23.6z"/>
				<path class="st27" d="M2.2,23.5c0,0.1-0.1,0.4-0.1,0.6c0,0,0,29.5,0,29.5c0,2.2,1.7,5.1,3.6,6.2l22.1,12.7
					c0.5,0.3,4.4,2.2,4.5,1.7c0.2,0.1,0.4,0.1,0.5,0c0-0.1,0.1-0.4,0.1-0.6V44.2c0-2.2-1.7-5.1-3.6-6.2L7.2,25.3
					c-0.5-0.3-4.4-2.2-4.5-1.7C2.5,23.5,2.3,23.5,2.2,23.5z"/>
				<path class="st28" d="M2.3,23.5c0,0.1-0.1,0.3-0.1,0.6c0,0,0,29.5,0,29.5c0,2.2,1.7,5,3.5,6.1l21.9,12.7
					c0.4,0.2,4.4,2.2,4.5,1.8c0.2,0.1,0.4,0.1,0.5,0.1c0-0.1,0.1-0.3,0.1-0.6V44.2c0-2.2-1.7-5-3.5-6.1L7.3,25.4
					c-0.4-0.2-4.4-2.2-4.5-1.8C2.6,23.5,2.4,23.5,2.3,23.5z"/>
				<path class="st29" d="M2.4,23.5c0,0.1-0.1,0.3-0.1,0.6c0,0,0,29.6,0,29.6c0,2.1,1.6,5,3.5,6.1l21.8,12.6c0.3,0.2,4.4,2.3,4.5,2
					c0.2,0.1,0.4,0.1,0.5,0.1c0-0.1,0.1-0.3,0.1-0.6V44.2c0-2.1-1.6-5-3.5-6.1L7.4,25.6c-0.3-0.2-4.4-2.3-4.5-2
					C2.7,23.5,2.5,23.5,2.4,23.5z"/>
				<path class="st30" d="M2.5,23.5c0,0.1-0.1,0.3-0.1,0.6c0,0,0,29.6,0,29.6c0,2.1,1.6,4.9,3.4,6l21.6,12.5
					c0.2,0.1,4.4,2.4,4.5,2.1c0.2,0.1,0.4,0.1,0.5,0.1c0-0.1,0.1-0.3,0.1-0.6V44.2c0-2.1-1.6-4.9-3.5-6L7.5,25.7
					C7.2,25.6,3,23.4,3,23.6C2.8,23.5,2.6,23.5,2.5,23.5z"/>
				<path class="st31" d="M2.6,23.5c0,0.1-0.1,0.3-0.1,0.6c0,0,0,29.6,0,29.6c0,2.1,1.6,4.9,3.4,5.9L27.4,72
					c0.2,0.1,4.4,2.4,4.5,2.3c0.2,0.1,0.4,0.2,0.5,0.2c0-0.1,0.1-0.3,0.1-0.6V44.2c0-2.1-1.6-4.9-3.4-5.9L7.6,25.9
					c-0.2-0.1-4.4-2.4-4.5-2.3C2.9,23.5,2.7,23.5,2.6,23.5z"/>
				<path class="st32" d="M2.7,23.4c0,0.1-0.1,0.3-0.1,0.6c0,0,0,29.6,0,29.6c0,2,1.6,4.8,3.4,5.8l21.4,12.3c0.1,0,4.4,2.5,4.5,2.4
					c0.2,0.1,0.4,0.2,0.5,0.2c0-0.1,0.1-0.3,0.1-0.6V44.2c0-2-1.6-4.8-3.4-5.8L7.7,26.1c-0.1,0-4.4-2.5-4.5-2.4
					C3,23.5,2.8,23.5,2.7,23.4z"/>
				<path class="st33" d="M2.7,24c0,0,0,29.6,0,29.6c0,2,1.6,4.7,3.3,5.7l25.7,14.8c0.3,0.1,0.4,0.2,0.6,0.2c0-0.1,0.1-0.3,0.1-0.6
					V44.2c0-2-1.6-4.7-3.3-5.7L3.3,23.7c-0.3-0.1-0.4-0.2-0.6-0.2C2.7,23.5,2.7,23.7,2.7,24z"/>
			</g>
		</g>
		<g>
			<g>
				<path class="st2" d="M35,73.9c0,3,2.1,4.2,4.7,2.7l25.7-14.8c2.6-1.5,4.7-5.1,4.7-8.1L70,24c0-3-2.1-4.2-4.7-2.7L39.7,36.1
					c-2.6,1.5-4.7,5.1-4.7,8.1V73.9z"/>
				<path class="st3" d="M39.7,36.2c-2.6,1.5-4.6,5.1-4.6,8v29.1c0,0,0,0.6,0,0.6c0,0.3,0,0.5,0.1,0.7c0.3,2.4,2.3,3.2,4.6,1.9
					l25.6-14.8c2.6-1.5,4.6-5.1,4.6-8c0,0,0-29.1,0-29.1c0,0,0-0.6,0-0.6c0-0.3,0-0.5-0.1-0.7c-0.3-2.4-2.3-3.2-4.6-1.9L39.7,36.2z"
					/>
				<path class="st34" d="M39.7,36.2c-2.5,1.5-4.6,5.1-4.6,8v29.1c0,0,0,0.6,0,0.6c0,0.2,0,0.5,0.1,0.7c0.4,2.3,2.4,3.1,4.6,1.8
					l25.5-14.7c2.5-1.5,4.6-5.1,4.6-8c0,0,0-29.1,0-29.1c0,0,0-0.6,0-0.6c0-0.2,0-0.5-0.1-0.7c-0.3-2.3-2.4-3.1-4.6-1.8L39.7,36.2z"
					/>
				<path class="st5" d="M39.7,36.3c-2.5,1.5-4.6,5-4.6,8v29.1c0,0,0,0.6,0,0.6c0,0.2,0,0.5,0.1,0.7c0.4,2.3,2.4,3,4.6,1.7
					l25.4-14.7c2.5-1.5,4.6-5,4.6-8c0,0,0-29.1,0-29.1c0,0,0-0.6,0-0.6c0-0.2,0-0.5-0.1-0.7c-0.3-2.3-2.4-3-4.6-1.7L39.7,36.3z"/>
				<path class="st6" d="M39.8,36.3c-2.5,1.4-4.6,5-4.6,7.9v29.1c0,0,0,0.6,0,0.6c0,0.2,0,0.5,0.1,0.7c0.4,2.2,2.4,2.9,4.6,1.6
					l25.4-14.6c2.5-1.4,4.6-5,4.6-7.9c0,0,0-29.1,0-29.1c0,0,0-0.6,0-0.6c0-0.2,0-0.5-0.1-0.7c-0.3-2.2-2.4-2.9-4.6-1.6L39.8,36.3z"
					/>
				<path class="st35" d="M39.8,36.3c-2.5,1.4-4.5,5-4.5,7.9v29.1c0,0,0,0.6,0,0.6c0,0.2,0.1,0.5,0.1,0.7c0.4,2.2,2.5,2.8,4.6,1.6
					l25.3-14.6c2.5-1.4,4.5-5,4.5-7.9c0,0,0-29.1,0-29.1c0,0,0-0.6,0-0.6c0-0.2,0-0.5-0.1-0.7c-0.3-2.2-2.5-2.8-4.6-1.6L39.8,36.3z"
					/>
				<path class="st36" d="M39.8,36.4c-2.5,1.4-4.5,5-4.5,7.8v29.1c0,0,0,0.6,0,0.6c0,0.2,0.1,0.4,0.1,0.6c0.4,2.1,2.5,2.7,4.6,1.5
					l25.2-14.5c2.5-1.4,4.5-5,4.5-7.8c0,0,0-29.1,0-29.1c0,0,0-0.5,0-0.6c0-0.2,0-0.4-0.1-0.6c-0.3-2.2-2.5-2.7-4.6-1.5L39.8,36.4z"
					/>
				<path class="st37" d="M39.8,36.4c-2.5,1.4-4.5,5-4.5,7.8v29.1c0,0,0,0.5,0,0.6c0,0.2,0.1,0.4,0.1,0.6c0.5,2.1,2.5,2.6,4.6,1.4
					l25.1-14.5c2.5-1.4,4.5-5,4.5-7.8c0,0,0-29.1,0-29.1c0,0,0-0.5,0-0.6c0-0.2-0.1-0.4-0.1-0.6c-0.3-2.1-2.5-2.6-4.6-1.4L39.8,36.4
					z"/>
				<path class="st38" d="M39.9,36.5c-2.4,1.4-4.5,4.9-4.5,7.8v29.2c0,0,0,0.5,0,0.6c0,0.2,0.1,0.4,0.1,0.6c0.5,2,2.6,2.5,4.6,1.3
					l25-14.5c2.5-1.4,4.5-4.9,4.5-7.8c0,0,0-29.2,0-29.2c0,0,0-0.5,0-0.6c0-0.2-0.1-0.4-0.1-0.6c-0.3-2.1-2.6-2.5-4.6-1.3L39.9,36.5
					z"/>
				<path class="st39" d="M39.9,36.5c-2.4,1.4-4.5,4.9-4.5,7.7v29.2c0,0,0,0.5,0,0.6c0,0.2,0.1,0.4,0.1,0.6c0.5,2,2.6,2.4,4.6,1.2
					l25-14.4c2.4-1.4,4.5-4.9,4.5-7.7c0,0,0-29.2,0-29.2c0,0,0-0.5,0-0.6c0-0.2-0.1-0.4-0.1-0.6c-0.3-2-2.6-2.4-4.6-1.2L39.9,36.5z"
					/>
				<path class="st40" d="M39.9,36.5c-2.4,1.4-4.4,4.9-4.4,7.7v29.2c0,0.1,0,0.5,0,0.6c0,0.2,0.1,0.4,0.1,0.6
					c0.5,1.9,2.7,2.3,4.6,1.2l24.9-14.4c2.4-1.4,4.4-4.9,4.4-7.7c0,0,0-29.2,0-29.2c0-0.1,0-0.5,0-0.6c0-0.2-0.1-0.4-0.1-0.6
					c-0.3-2-2.7-2.3-4.6-1.2L39.9,36.5z"/>
				<path class="st41" d="M39.9,36.6c-2.4,1.4-4.4,4.9-4.4,7.6v29.2c0,0.1,0,0.5,0,0.6c0,0.2,0.1,0.4,0.1,0.5
					c0.6,1.9,2.7,2.2,4.6,1.1l24.8-14.3c2.4-1.4,4.4-4.9,4.4-7.6c0,0,0-29.2,0-29.2c0-0.1,0-0.5,0-0.6c0-0.2-0.1-0.4-0.1-0.5
					c-0.3-2-2.7-2.2-4.6-1.1L39.9,36.6z"/>
				<path class="st42" d="M40,36.6c-2.4,1.4-4.4,4.8-4.4,7.6v29.2c0,0.1,0,0.5,0,0.6c0,0.2,0.1,0.4,0.2,0.5c0.6,1.8,2.7,2.1,4.6,1
					L65,61.2c2.4-1.4,4.4-4.8,4.4-7.6c0,0,0-29.2,0-29.2c0-0.1,0-0.5,0-0.6c0-0.2-0.1-0.4-0.2-0.5c-0.3-1.9-2.7-2.1-4.6-1L40,36.6z"
					/>
				<path class="st43" d="M40,36.7c-2.4,1.4-4.4,4.8-4.4,7.6v29.2c0,0.1,0,0.5,0,0.6c0,0.2,0.1,0.4,0.2,0.5c0.2,1.9,2.8,2,4.6,0.9
					L65,61.2c2.4-1.4,4.4-4.8,4.4-7.6c0,0,0-29.2,0-29.2c0-0.1,0-0.5,0-0.6c0-0.2-0.1-0.4-0.2-0.5c-0.2-1.9-2.8-2-4.6-0.9L40,36.7z"
					/>
				<path class="st44" d="M40,36.7c-2.4,1.4-4.3,4.8-4.3,7.5v29.2c0,0.1,0,0.5,0,0.6c0,0.2,0.1,0.4,0.2,0.5c0.2,1.8,2.8,1.9,4.6,0.8
					L65,61.2c2.4-1.4,4.3-4.8,4.3-7.5c0,0,0-29.2,0-29.2c0-0.1,0-0.5,0-0.6c0-0.2-0.1-0.4-0.2-0.5c-0.2-1.8-2.8-1.9-4.6-0.8L40,36.7
					z"/>
				<path class="st45" d="M40,36.8c-2.3,1.4-4.3,4.8-4.3,7.5v29.2c0,0.1,0,0.5,0,0.6c0,0.2,0.1,0.3,0.2,0.5c0.2,1.8,2.8,1.8,4.6,0.8
					L65,61.1c2.3-1.4,4.3-4.8,4.3-7.5c0,0,0-29.2,0-29.2c0-0.1,0-0.5,0-0.6c0-0.2-0.1-0.3-0.2-0.5c-0.2-1.8-2.8-1.8-4.6-0.8L40,36.8
					z"/>
				<path class="st46" d="M40,36.8c-2.3,1.3-4.3,4.7-4.3,7.4v29.2c0,0.1,0,0.5,0,0.6c0,0.2,0.1,0.3,0.2,0.5c0.2,1.7,2.9,1.7,4.6,0.7
					L65,61.1c2.3-1.3,4.3-4.7,4.3-7.4c0,0,0-29.2,0-29.2c0-0.1,0-0.5,0-0.6c0-0.2-0.1-0.3-0.2-0.5c-0.2-1.7-2.9-1.7-4.6-0.7L40,36.8
					z"/>
				<path class="st47" d="M40.1,36.8c-2.3,1.3-4.3,4.7-4.3,7.4v29.2c0,0.1,0,0.5,0,0.6c0,0.2,0.1,0.3,0.2,0.4
					c0.2,1.7,2.9,1.6,4.6,0.6L64.9,61c2.3-1.3,4.3-4.7,4.3-7.4c0,0,0-29.2,0-29.2c0-0.1,0-0.5,0-0.6c0-0.2-0.1-0.3-0.2-0.4
					c-0.2-1.7-2.9-1.6-4.6-0.6L40.1,36.8z"/>
				<path class="st48" d="M40.1,36.9c-2.3,1.3-4.2,4.7-4.2,7.3v29.3c0,0.1,0,0.5,0,0.6c0,0.2,0.1,0.3,0.2,0.4c0.2,1.7,3,1.5,4.6,0.5
					l24.3-14c2.3-1.3,4.2-4.7,4.2-7.3c0,0,0-29.3,0-29.3c0-0.1,0-0.5,0-0.6c0-0.2-0.1-0.3-0.2-0.4c-0.2-1.7-3-1.5-4.6-0.5L40.1,36.9
					z"/>
				<path class="st49" d="M40.1,36.9c-2.3,1.3-4.2,4.7-4.2,7.3v29.3c0,0.1,0,0.5,0,0.6c0,0.2,0.1,0.3,0.2,0.4c0.2,1.6,3,1.4,4.6,0.4
					l24.2-14c2.3-1.3,4.2-4.7,4.2-7.3c0,0,0-29.3,0-29.3c0-0.1,0-0.5,0-0.6c0-0.2-0.1-0.3-0.2-0.4c-0.2-1.6-3-1.4-4.6-0.4L40.1,36.9
					z"/>
				<path class="st50" d="M40.1,37c-2.3,1.3-4.2,4.6-4.2,7.3v29.3c0,0.1,0,0.5,0,0.6c0,0.2,0.1,0.3,0.2,0.4c0.2,1.6,3,1.2,4.6,0.4
					l24.1-13.9c2.3-1.3,4.2-4.6,4.2-7.3c0,0,0-29.3,0-29.3c0-0.1,0-0.5,0-0.6c0-0.2-0.1-0.3-0.2-0.4c-0.2-1.6-3-1.2-4.6-0.4L40.1,37
					z"/>
				<path class="st51" d="M40.2,37c-2.3,1.3-4.2,4.6-4.2,7.2v29.3c0,0.1,0,0.5,0,0.6c0,0.2,0.1,0.3,0.2,0.4c0.2,1.5,3.1,1.1,4.6,0.3
					l24-13.9c2.3-1.3,4.2-4.6,4.2-7.2c0,0,0-29.3,0-29.3c0-0.1,0-0.5,0-0.6c0-0.2-0.1-0.3-0.2-0.4c-0.2-1.5-3.1-1.1-4.6-0.3L40.2,37
					z"/>
				<path class="st52" d="M40.2,37c-2.2,1.3-4.1,4.6-4.1,7.2v29.3c0,0.1,0,0.5,0,0.6c0,0.1,0.1,0.3,0.2,0.4c0.2,1.5,3.1,1,4.6,0.2
					l24-13.8c2.2-1.3,4.1-4.6,4.1-7.2c0,0,0-29.3,0-29.3c0-0.1,0-0.5,0-0.6c0-0.1-0.1-0.3-0.2-0.4c-0.2-1.5-3.1-1-4.6-0.2L40.2,37z"
					/>
				<path class="st53" d="M40.2,37.1c-2.2,1.3-4.1,4.6-4.1,7.1v29.3c0,0.1,0,0.5,0,0.6c0.1,0.1,0.1,0.3,0.3,0.3
					c0.2,1.4,3.2,0.9,4.5,0.1l23.9-13.8c2.2-1.3,4.1-4.6,4.1-7.1c0,0,0-29.3,0-29.3c0-0.1,0-0.5,0-0.6c-0.1-0.1-0.1-0.3-0.3-0.3
					c-0.2-1.4-3.2-0.9-4.5-0.1L40.2,37.1z"/>
				<path class="st54" d="M40.2,37.1c-2.2,1.3-4.1,4.5-4.1,7.1v29.3c0,0.1,0,0.5,0,0.6c0.1,0.1,0.1,0.3,0.3,0.3
					c0.2,1.4,3.2,0.8,4.5,0.1l23.8-13.7c2.2-1.3,4.1-4.5,4.1-7.1c0,0,0-29.3,0-29.3c0-0.1,0-0.5,0-0.6c-0.1-0.1-0.1-0.3-0.3-0.3
					c-0.2-1.4-3.2-0.8-4.5-0.1L40.2,37.1z"/>
				<path class="st55" d="M40.3,37.2c-2.2,1.3-4.1,4.5-4.1,7.1v29.3c0,0.1,0,0.5,0,0.6c0.1,0.1,0.1,0.2,0.3,0.3
					c0.2,1.4,3.2,0.7,4.5,0l23.7-13.7c2.2-1.3,4.1-4.5,4.1-7.1c0,0,0-29.3,0-29.3c0-0.1,0-0.5,0-0.6c-0.1-0.1-0.1-0.2-0.3-0.3
					c-0.2-1.4-3.2-0.7-4.5,0L40.3,37.2z"/>
				<path class="st56" d="M40.3,37.2c-2.2,1.3-4.1,4.5-4.1,7v29.3c0,0.1,0,0.5,0,0.6c0.1,0.1,0.1,0.2,0.3,0.3
					c0.2,1.3,3.3,0.6,4.5-0.1l23.6-13.6c2.2-1.3,4.1-4.5,4.1-7c0,0,0-29.3,0-29.3c0-0.1,0-0.5,0-0.6c-0.1-0.1-0.1-0.2-0.3-0.3
					c-0.2-1.3-3.3-0.6-4.5,0.1L40.3,37.2z"/>
				<path class="st57" d="M40.3,37.2c-2.2,1.3-4,4.5-4,7v29.3c0,0.1,0,0.5,0,0.6c0.1,0.1,0.1,0.2,0.3,0.3c0.2,1.3,3.3,0.5,4.5-0.2
					l23.6-13.6c2.2-1.3,4-4.5,4-7c0,0,0-29.3,0-29.3c0-0.1,0-0.5,0-0.6c-0.1-0.1-0.1-0.2-0.3-0.3c-0.2-1.3-3.3-0.5-4.5,0.2
					L40.3,37.2z"/>
				<path class="st58" d="M40.3,37.3c-2.2,1.2-4,4.4-4,6.9v29.4c0,0.1,0,0.5,0,0.6c0.1,0.1,0.2,0.2,0.3,0.3c0.2,1.2,3.3,0.4,4.5-0.3
					l23.5-13.6c2.2-1.2,4-4.4,4-6.9c0,0,0-29.4,0-29.4c0-0.1,0-0.5,0-0.6c-0.1-0.1-0.2-0.2-0.3-0.3c-0.2-1.2-3.3-0.4-4.5,0.3
					L40.3,37.3z"/>
				<path class="st59" d="M40.4,37.3c-2.1,1.2-4,4.4-4,6.9v29.4c0,0.1,0,0.5,0,0.6c0.1,0.1,0.2,0.2,0.3,0.2c0.2,1.2,3.4,0.3,4.5-0.3
					l23.4-13.5c2.1-1.2,4-4.4,4-6.9c0,0,0-29.4,0-29.4c0-0.1,0-0.5,0-0.6c-0.1-0.1-0.2-0.2-0.3-0.2c-0.2-1.2-3.4-0.3-4.5,0.3
					L40.4,37.3z"/>
				<path class="st60" d="M40.4,37.4c-2.1,1.2-4,4.4-4,6.9v29.4c0,0.2,0,0.5,0,0.6c0.1,0.1,0.2,0.2,0.3,0.2c0.2,1.1,3.4,0.2,4.5-0.4
					l23.3-13.5c2.1-1.2,4-4.4,4-6.9c0,0,0-29.4,0-29.4c0-0.2,0-0.5,0-0.6c-0.1-0.1-0.2-0.2-0.3-0.2c-0.2-1.1-3.4-0.2-4.5,0.4
					L40.4,37.4z"/>
				<path class="st61" d="M40.4,37.4c-2.1,1.2-3.9,4.4-3.9,6.8v29.4c0,0.2,0,0.5,0,0.6c0.1,0.1,0.2,0.2,0.3,0.2
					c0.1,1.1,3.5,0.1,4.5-0.5l23.2-13.4c2.1-1.2,3.9-4.4,3.9-6.8c0,0,0-29.4,0-29.4c0-0.2,0-0.5,0-0.6c-0.1-0.1-0.2-0.2-0.3-0.2
					c-0.1-1.1-3.5-0.1-4.5,0.5L40.4,37.4z"/>
				<path class="st62" d="M40.4,37.4c-2.1,1.2-3.9,4.3-3.9,6.8v29.4c0,0.2,0,0.5,0,0.6c0.1,0.1,0.2,0.2,0.3,0.2
					c0.1,1.1,3.5,0,4.5-0.6l23.2-13.4c2.1-1.2,3.9-4.3,3.9-6.8c0,0,0-29.4,0-29.4c0-0.2,0-0.5,0-0.6c-0.1-0.1-0.2-0.2-0.3-0.2
					c-0.1-1.1-3.5,0-4.5,0.6L40.4,37.4z"/>
				<path class="st63" d="M40.4,37.5c-2.1,1.2-3.9,4.3-3.9,6.7v29.4c0,0.2,0,0.5,0,0.6c0.1,0.1,0.2,0.2,0.3,0.2
					c0.1,1,3.5-0.1,4.5-0.7l23.1-13.3c2.1-1.2,3.9-4.3,3.9-6.7c0,0,0-29.4,0-29.4c0-0.2,0-0.5,0-0.6c-0.1-0.1-0.2-0.2-0.3-0.2
					c-0.1-1-3.5,0.1-4.5,0.7L40.4,37.5z"/>
				<path class="st64" d="M40.5,37.5c-2.1,1.2-3.9,4.3-3.9,6.7v29.4c0,0.2,0,0.5,0,0.6c0.1,0.1,0.2,0.2,0.3,0.2
					c0.1,1,3.6-0.2,4.5-0.7l23-13.3c2.1-1.2,3.9-4.3,3.9-6.7c0,0,0-29.4,0-29.4c0-0.2,0-0.5,0-0.6c-0.1-0.1-0.2-0.2-0.3-0.2
					c-0.1-1-3.6,0.2-4.5,0.7L40.5,37.5z"/>
				<path class="st65" d="M40.5,37.6c-2.1,1.2-3.8,4.3-3.8,6.7v29.4c0,0.2,0,0.5,0,0.6c0.1,0.1,0.2,0.1,0.4,0.1
					c0.1,0.9,3.6-0.3,4.5-0.8l22.9-13.2c2.1-1.2,3.8-4.3,3.8-6.6c0,0,0-29.4,0-29.4c0-0.2,0-0.5,0-0.6c-0.1-0.1-0.2-0.1-0.4-0.1
					c-0.1-0.9-3.6,0.3-4.5,0.8L40.5,37.6z"/>
				<path class="st66" d="M40.5,37.6c-2,1.2-3.8,4.3-3.8,6.6v29.4c0,0.2,0,0.5,0,0.6c0.1,0.1,0.2,0.1,0.4,0.1
					c0.1,0.9,3.6-0.4,4.5-0.9l22.9-13.2c2-1.2,3.8-4.3,3.8-6.6c0,0,0-29.4,0-29.4c0-0.2,0-0.5,0-0.6c-0.1-0.1-0.2-0.1-0.4-0.1
					c-0.1-0.9-3.6,0.4-4.5,0.9L40.5,37.6z"/>
				<path class="st67" d="M40.5,37.7c-2,1.2-3.8,4.2-3.8,6.6v29.4c0,0.2,0,0.5,0,0.6c0.1,0.1,0.2,0.1,0.4,0.1c0.1,0.8,3.7-0.5,4.5-1
					l22.8-13.2c2-1.2,3.8-4.2,3.8-6.6c0,0,0-29.4,0-29.4c0-0.2,0-0.5,0-0.6c-0.1-0.1-0.2-0.1-0.4-0.1c-0.1-0.8-3.7,0.5-4.5,1
					L40.5,37.7z"/>
				<path class="st68" d="M40.6,37.7c-2,1.2-3.8,4.2-3.8,6.5v29.5c0,0.2,0,0.5,0,0.6c0.1,0.1,0.2,0.1,0.4,0.1
					c0.1,0.8,3.7-0.6,4.5-1.1l22.7-13.1c2-1.2,3.8-4.2,3.8-6.5c0,0,0-29.5,0-29.5c0-0.2,0-0.5,0-0.6c-0.1-0.1-0.2-0.1-0.4-0.1
					c-0.1-0.8-3.7,0.6-4.5,1.1L40.6,37.7z"/>
				<path class="st69" d="M40.6,37.7c-2,1.2-3.7,4.2-3.7,6.5v29.5c0,0.2,0,0.5,0,0.6c0.1,0.1,0.2,0.1,0.4,0.1
					c0.1,0.8,3.8-0.7,4.5-1.1l22.6-13.1c2-1.2,3.7-4.2,3.7-6.5c0,0,0-29.5,0-29.5c0-0.2,0-0.5,0-0.6c-0.1-0.1-0.2-0.1-0.4-0.1
					c-0.1-0.8-3.8,0.7-4.5,1.1L40.6,37.7z"/>
				<path class="st70" d="M40.6,37.8c-2,1.1-3.7,4.2-3.7,6.4v29.5c0,0.2,0,0.5,0,0.6c0.1,0.1,0.2,0.1,0.4,0.1
					c0.1,0.7,3.8-0.8,4.5-1.2l22.5-13c2-1.1,3.7-4.2,3.7-6.4c0,0,0-29.5,0-29.5c0-0.2,0-0.5,0-0.6c-0.1-0.1-0.2-0.1-0.4-0.1
					c-0.1-0.7-3.8,0.8-4.5,1.2L40.6,37.8z"/>
				<path class="st71" d="M40.6,37.8c-2,1.1-3.7,4.1-3.7,6.4v29.5c0,0.2,0,0.5,0.1,0.6c0.1,0.1,0.2,0.1,0.4,0
					c0.1,0.7,3.8-0.9,4.5-1.3l22.5-13c2-1.1,3.7-4.1,3.7-6.4c0,0,0-29.5,0-29.5c0-0.2,0-0.5-0.1-0.6c-0.1-0.1-0.2-0.1-0.4,0
					c-0.1-0.7-3.8,0.9-4.5,1.3L40.6,37.8z"/>
				<path class="st72" d="M40.7,37.9C38.7,39,37,42,37,44.2v29.5c0,0.2,0,0.5,0.1,0.6c0.1,0,0.2,0.1,0.4,0c0.1,0.6,3.9-1,4.5-1.4
					L64.3,60c2-1.1,3.7-4.1,3.7-6.4c0,0,0-29.5,0-29.5c0-0.2,0-0.5-0.1-0.6c-0.1,0-0.2-0.1-0.4,0c-0.1-0.6-3.9,1-4.5,1.4L40.7,37.9z
					"/>
				<path class="st73" d="M40.7,37.9C38.7,39,37,42,37,44.2v29.5c0,0.2,0,0.5,0.1,0.6c0.1,0,0.2,0.1,0.4,0c0.1,0.6,3.9-1.1,4.5-1.5
					L64.3,60c1.9-1.1,3.7-4.1,3.7-6.3c0,0,0-29.5,0-29.5c0-0.2,0-0.5-0.1-0.6c-0.1,0-0.2-0.1-0.4,0C67.4,23,63.6,24.7,63,25
					L40.7,37.9z"/>
				<path class="st74" d="M40.7,37.9c-1.9,1.1-3.6,4.1-3.6,6.3v29.5c0,0.2,0,0.5,0.1,0.6c0.1,0,0.2,0,0.4,0c0.1,0.6,4-1.2,4.5-1.5
					l22.2-12.8c1.9-1.1,3.6-4.1,3.6-6.3c0,0,0-29.5,0-29.5c0-0.2,0-0.5-0.1-0.6c-0.1,0-0.2,0-0.4,0c-0.1-0.6-4,1.2-4.5,1.5
					L40.7,37.9z"/>
				<path class="st75" d="M40.7,38c-1.9,1.1-3.6,4-3.6,6.2v29.5c0,0.2,0,0.5,0.1,0.6c0.1,0,0.2,0,0.4,0c0.1,0.5,4-1.3,4.5-1.6
					l22.2-12.8c1.9-1.1,3.6-4,3.6-6.2c0,0,0-29.5,0-29.5c0-0.2,0-0.5-0.1-0.6c-0.1,0-0.2,0-0.4,0c-0.1-0.5-4,1.3-4.5,1.6L40.7,38z"
					/>
				<path class="st76" d="M40.8,38c-1.9,1.1-3.6,4-3.6,6.2v29.5c0,0.2,0,0.5,0.1,0.6c0.1,0,0.2,0,0.5,0c0.1,0.5,4-1.4,4.5-1.7
					l22.1-12.7c1.9-1.1,3.6-4,3.6-6.2c0,0,0-29.5,0-29.5c0-0.2,0-0.5-0.1-0.6c-0.1,0-0.2,0-0.5,0c-0.1-0.5-4,1.4-4.5,1.7L40.8,38z"
					/>
				<path class="st77" d="M40.8,38.1c-1.9,1.1-3.6,4-3.6,6.2v29.5c0,0.2,0,0.5,0.1,0.6c0.1,0,0.2,0,0.5-0.1c0.1,0.4,4.1-1.5,4.5-1.8
					l22-12.7c1.9-1.1,3.6-4,3.6-6.2c0,0,0-29.5,0-29.5c0-0.2,0-0.5-0.1-0.6c-0.1,0-0.2,0-0.5,0.1c-0.1-0.4-4.1,1.5-4.5,1.8
					L40.8,38.1z"/>
				<path class="st78" d="M40.8,38.1c-1.9,1.1-3.5,4-3.5,6.1v29.5c0,0.2,0,0.5,0.1,0.6c0.1,0,0.3,0,0.5-0.1c0.1,0.4,4.1-1.6,4.5-1.9
					l21.9-12.7c1.9-1.1,3.5-4,3.5-6.1c0,0,0-29.5,0-29.5c0-0.2,0-0.5-0.1-0.6c-0.1,0-0.3,0-0.5,0.1c-0.1-0.4-4.1,1.6-4.5,1.9
					L40.8,38.1z"/>
				<path class="st79" d="M40.8,38.1c-1.9,1.1-3.5,3.9-3.5,6.1v29.6c0,0.3,0,0.5,0.1,0.6c0.1,0,0.3,0,0.5-0.1c0,0.3,4.1-1.7,4.5-1.9
					l21.8-12.6c1.9-1.1,3.5-3.9,3.5-6.1c0,0,0-29.6,0-29.6c0-0.3,0-0.5-0.1-0.6c-0.1,0-0.3,0-0.5,0.1c0-0.3-4.1,1.7-4.5,1.9
					L40.8,38.1z"/>
				<path class="st80" d="M40.8,38.2c-1.8,1.1-3.5,3.9-3.5,6v29.6c0,0.3,0,0.5,0.1,0.6c0.1,0,0.3,0,0.5-0.1c0,0.3,4.2-1.8,4.5-2
					l21.8-12.6c1.8-1.1,3.5-3.9,3.5-6c0,0,0-29.6,0-29.6c0-0.3,0-0.5-0.1-0.6c-0.1,0-0.3,0-0.5,0.1c0-0.3-4.2,1.8-4.5,2L40.8,38.2z"
					/>
				<path class="st81" d="M40.9,38.2c-1.8,1.1-3.5,3.9-3.5,6v29.6c0,0.3,0,0.5,0.1,0.6c0.1,0,0.3,0,0.5-0.1c0,0.3,4.2-1.9,4.5-2.1
					l21.7-12.5c1.8-1.1,3.5-3.9,3.5-6c0,0,0-29.6,0-29.6c0-0.3,0-0.5-0.1-0.6c-0.1,0-0.3,0-0.5,0.1c0-0.3-4.2,1.9-4.5,2.1L40.9,38.2
					z"/>
				<path class="st82" d="M40.9,38.3c-1.8,1-3.4,3.9-3.4,6v29.6c0,0.3,0,0.5,0.1,0.6c0.1,0,0.3,0,0.5-0.2c0,0.2,4.3-2.1,4.5-2.2
					l21.6-12.5c1.8-1,3.4-3.9,3.4-6c0,0,0-29.6,0-29.6c0-0.3,0-0.5-0.1-0.6c-0.1,0-0.3,0-0.5,0.2c0-0.2-4.3,2.1-4.5,2.2L40.9,38.3z"
					/>
				<path class="st83" d="M40.9,38.3c-1.8,1-3.4,3.8-3.4,5.9v29.6c0,0.3,0,0.5,0.1,0.6c0.1,0,0.3,0,0.5-0.2c0,0.2,4.3-2.2,4.5-2.2
					l21.5-12.4c1.8-1,3.4-3.8,3.4-5.9c0,0,0-29.6,0-29.6c0-0.3,0-0.5-0.1-0.6c-0.1,0-0.3,0-0.5,0.2c0-0.2-4.3,2.2-4.5,2.2L40.9,38.3
					z"/>
				<path class="st84" d="M40.9,38.3c-1.8,1-3.4,3.8-3.4,5.9v29.6c0,0.3,0,0.5,0.1,0.6c0.1,0,0.3-0.1,0.5-0.2c0,0.1,4.3-2.3,4.5-2.3
					l21.5-12.4c1.8-1,3.4-3.8,3.4-5.9c0,0,0-29.6,0-29.6c0-0.3,0-0.5-0.1-0.6c-0.1,0-0.3,0.1-0.5,0.2c0-0.1-4.3,2.3-4.5,2.3
					L40.9,38.3z"/>
				<path class="st85" d="M41,38.4c-1.8,1-3.4,3.8-3.4,5.8v29.6c0,0.3,0,0.5,0.1,0.6c0.1,0,0.3-0.1,0.5-0.2c0,0.1,4.4-2.4,4.5-2.4
					L64,59.5c1.8-1,3.4-3.8,3.4-5.8c0,0,0-29.6,0-29.6c0-0.3,0-0.5-0.1-0.6c-0.1,0-0.3,0.1-0.5,0.2c0-0.1-4.4,2.4-4.5,2.4L41,38.4z"
					/>
				<path class="st86" d="M41,38.4c-1.8,1-3.3,3.8-3.3,5.8v29.6c0,0.3,0,0.5,0.1,0.6c0.1,0,0.3-0.1,0.5-0.2c0,0,4.4-2.5,4.4-2.5
					L64,59.4c1.8-1,3.3-3.8,3.3-5.8c0,0,0-29.6,0-29.6c0-0.3,0-0.5-0.1-0.6c-0.1,0-0.3,0.1-0.5,0.2c0,0-4.4,2.5-4.4,2.5L41,38.4z"/>
				<path class="st87" d="M66.7,23.7L41,38.5c-1.7,1-3.3,3.7-3.3,5.7v29.6c0,0.3,0,0.5,0.1,0.6c0.1,0,0.3-0.1,0.6-0.2L64,59.4
					c1.7-1,3.3-3.7,3.3-5.7c0,0,0-29.6,0-29.6c0-0.3,0-0.5-0.1-0.6C67.1,23.4,66.9,23.5,66.7,23.7z"/>
			</g>
		</g>
		<g>
			<g>
				<path class="st2" d="M4.7,15.9c-2.6,1.5-2.6,3.9,0,5.4l25.7,14.8c2.6,1.5,6.8,1.5,9.3,0l25.7-14.8c2.6-1.5,2.6-3.9,0-5.4
					L39.7,1.1c-2.6-1.5-6.8-1.5-9.3,0L4.7,15.9z"/>
				<path class="st88" d="M30.4,1.3L5.2,15.9c0,0-0.5,0.3-0.5,0.3c-0.2,0.1-0.4,0.3-0.5,0.4c-1.8,1.4-1.3,3.5,0.9,4.8L30.4,36
					c1.9,1.1,4.7,1.3,7.1,0.8c0.8-0.2,1.5-0.5,2.2-0.9c0.5-0.3,25-14.5,25-14.5c0,0,0.5-0.3,0.5-0.3c0.2-0.1,0.4-0.3,0.5-0.4
					c1.8-1.4,1.2-3.5-0.9-4.8L39.6,1.3c-0.3-0.2-0.6-0.3-1-0.5C36.2-0.1,32.7,0,30.4,1.3z"/>
				<path class="st89" d="M30.5,1.5L5.3,16.1c0,0-0.5,0.3-0.5,0.3c-0.2,0.1-0.3,0.3-0.4,0.4c-1.6,1.3-0.8,3.5,1.2,4.6l25,14.4
					c1.9,1.1,4.7,1.3,7,0.7c0.7-0.2,1.5-0.5,2.2-0.9c0.9-0.5,24.9-14.4,24.9-14.4c0,0,0.5-0.3,0.5-0.3c0.2-0.1,0.3-0.3,0.5-0.4
					c1.6-1.3,0.8-3.4-1.2-4.6L39.6,1.5c-0.3-0.1-0.6-0.3-0.9-0.5C36.2,0.1,32.7,0.2,30.5,1.5z"/>
				<path class="st90" d="M30.6,1.6L5.4,16.3c-0.1,0-0.5,0.3-0.5,0.3c-0.2,0.1-0.3,0.3-0.4,0.4C3,18.1,4.2,20.3,6,21.4l24.6,14.2
					c1.9,1.1,4.7,1.2,7,0.7c0.6-0.2,1.4-0.5,2.2-0.9C41.2,34.5,64.6,21,64.6,21c0.1,0,0.5-0.3,0.5-0.3c0.2-0.1,0.3-0.3,0.4-0.4
					c1.5-1.1,0.3-3.4-1.5-4.4L39.5,1.7c-0.2-0.1-0.7-0.4-0.9-0.5C36.2,0.3,32.8,0.4,30.6,1.6z"/>
				<path class="st91" d="M30.7,1.8L5.4,16.5c-0.1,0-0.5,0.3-0.5,0.3c-0.1,0.1-0.2,0.3-0.3,0.4c-1.3,1,0.2,3.3,1.8,4.2l24.3,14
					c1.9,1.1,4.7,1.2,6.9,0.6c0.6-0.2,1.3-0.5,2.2-0.9c1.8-1.1,24.7-14.3,24.7-14.3c0.1,0,0.5-0.3,0.5-0.3c0.1-0.1,0.2-0.3,0.3-0.4
					c1.3-1-0.1-3.3-1.8-4.2L39.5,2c-0.2-0.1-0.7-0.4-0.9-0.5C36.3,0.5,32.8,0.6,30.7,1.8z"/>
				<path class="st92" d="M30.9,2L5.5,16.7C5.4,16.7,5,16.9,5,17c-0.1,0.1-0.2,0.2-0.2,0.4c-1.2,0.9,0.6,3.2,2.1,4.1l24,13.8
					c1.8,1.1,4.8,1.1,6.9,0.5c0.5-0.1,1.3-0.5,2.1-1c2.3-1.3,24.6-14.2,24.6-14.2c0.1-0.1,0.5-0.3,0.5-0.3c0.1-0.1,0.2-0.3,0.2-0.4
					c1.2-0.9-0.6-3.2-2-4L39.4,2.2c-0.2-0.1-0.7-0.4-0.9-0.5C36.3,0.7,32.9,0.8,30.9,2z"/>
				<path class="st93" d="M31,2.2L5.5,16.9c-0.1,0.1-0.4,0.3-0.5,0.3C5,17.3,4.9,17.4,5,17.6c-1,0.8,1.1,3.1,2.4,3.9L31,35.1
					c1.8,1.1,4.8,1.1,6.9,0.5c0.4-0.1,1.2-0.4,2.1-1c2.8-1.6,24.5-14.1,24.5-14.1c0.1-0.1,0.5-0.3,0.5-0.3c0.1-0.1,0.1-0.2,0.1-0.4
					c1-0.8-1.1-3.1-2.3-3.8L39.4,2.4c-0.2-0.1-0.7-0.4-0.9-0.4C36.3,0.9,33,1,31,2.2z"/>
				<path class="st94" d="M31.1,2.4L5.6,17.1c-0.1,0.1-0.4,0.3-0.5,0.3c-0.1,0.1-0.1,0.2,0,0.4c-0.9,0.7,1.6,3.1,2.7,3.7l23.3,13.4
					c1.8,1,4.8,1,6.8,0.4c0.4-0.1,1.1-0.4,2.1-1c3.2-1.9,24.4-14.1,24.4-14.1c0.1-0.1,0.4-0.3,0.5-0.3c0.1-0.1,0.1-0.2,0-0.4
					c0.9-0.7-1.5-3-2.6-3.6l-23-13.3c-0.1-0.1-0.7-0.4-0.9-0.4C36.4,1.2,33,1.2,31.1,2.4z"/>
				<path class="st95" d="M31.2,2.5L5.7,17.3c-0.2,0.1-0.4,0.3-0.5,0.3c0,0.1,0,0.2,0.1,0.4c-0.7,0.6,2.1,3,3,3.5l22.9,13.2
					c1.8,1,4.8,1,6.8,0.3c0.3-0.1,1.1-0.4,2.1-1c3.7-2.1,24.3-14,24.3-14c0.2-0.1,0.4-0.3,0.5-0.3c0-0.1,0-0.2-0.1-0.4
					c0.7-0.6-2-2.9-2.9-3.4l-22.6-13c-0.1-0.1-0.7-0.4-0.8-0.4C36.4,1.4,33.1,1.4,31.2,2.5z"/>
				<path class="st96" d="M31.3,2.7L5.7,17.5c-0.2,0.1-0.4,0.3-0.5,0.3c0,0.1,0,0.2,0.1,0.4c-0.6,0.5,2.5,2.9,3.3,3.3l22.6,13
					c1.8,1,4.8,0.9,6.8,0.3c0.2-0.1,1-0.4,2-1c4.1-2.4,24.2-13.9,24.2-13.9c0.2-0.1,0.4-0.3,0.5-0.3c0-0.1,0-0.2-0.1-0.4
					c0.6-0.5-2.4-2.8-3.2-3.2L39.3,3c-0.1-0.1-0.7-0.4-0.8-0.4C36.4,1.6,33.2,1.6,31.3,2.7z"/>
				<path class="st97" d="M31.4,2.9L5.8,17.7c-0.2,0.1-0.4,0.3-0.5,0.3c0,0.1,0.1,0.2,0.2,0.4c-0.4,0.3,3,2.8,3.6,3.1l22.2,12.8
					c1.8,1,4.8,0.9,6.7,0.2c0.2-0.1,0.9-0.4,2-1.1c4.6-2.7,24-13.9,24-13.9c0.2-0.1,0.4-0.3,0.5-0.3c0-0.1-0.1-0.2-0.2-0.4
					c0.4-0.3-2.9-2.7-3.4-3.1L39.2,3.2c-0.1,0-0.7-0.4-0.8-0.4C36.5,1.8,33.2,1.8,31.4,2.9z"/>
				<path class="st98" d="M31.5,3.1L5.9,17.9c-0.2,0.1-0.4,0.3-0.5,0.3c0,0.1,0.1,0.2,0.3,0.4c-0.3,0.2,3.5,2.7,3.9,2.9l21.9,12.6
					c1.8,1,4.8,0.8,6.7,0.1c0.1,0,0.9-0.4,2-1.1c5.1-2.9,23.9-13.8,23.9-13.8c0.2-0.1,0.4-0.3,0.5-0.4c0-0.1-0.1-0.2-0.3-0.4
					c0.3-0.2-3.4-2.7-3.7-2.9L39.2,3.5c0,0-0.7-0.4-0.8-0.4C36.5,2,33.3,2,31.5,3.1z"/>
				<path class="st99" d="M31.6,3.3L5.9,18.1c-0.2,0.1-0.4,0.3-0.5,0.4c0.1,0.1,0.2,0.2,0.4,0.4c-0.1,0.1,4,2.6,4.2,2.8L31.6,34
					c1.8,1,4.8,0.8,6.7,0.1c0.1,0,0.8-0.4,2-1.1c5.5-3.2,23.8-13.8,23.8-13.8c0.2-0.1,0.4-0.3,0.5-0.4c-0.1-0.1-0.2-0.2-0.4-0.4
					c0.1-0.1-3.8-2.6-4-2.7l-21-12.1c0,0-0.7-0.4-0.8-0.4C36.5,2.2,33.4,2.2,31.6,3.3z"/>
				<path class="st100" d="M31.7,3.4L6,18.3c-0.3,0.1-0.4,0.3-0.5,0.4C5.6,18.7,5.8,18.8,6,19l25.7,14.8c1.7,1,4.9,1,6.6,0
					C38.3,33.8,64,19,64,19c0.3-0.1,0.4-0.3,0.5-0.4c-0.1-0.1-0.2-0.2-0.5-0.4L38.3,3.4C36.6,2.4,33.4,2.4,31.7,3.4z"/>
			</g>
		</g>
		<path class="st101" d="M12.1,51.5V40.2l7.2,4.2c1,0.6,1.8,1.3,2.5,2.2c0.7,0.9,1.1,1.7,1.1,2.4v0.7c0,0.6-0.3,0.9-0.8,1.2
			c-0.5,0.2-1.5-0.1-2.8-0.8l1.8,1c0.5,0.3,0.9,0.6,1.3,1.1c0.4,0.4,0.5,0.9,0.5,1.2v4.4l-3.6-2.1v-3.8c0-0.3-0.2-0.7-0.5-1.2
			c-0.4-0.4-0.8-0.8-1.3-1.1l-1.8-1v5L12.1,51.5z M15.7,47.3l1.8,1c0.5,0.3,0.9,0.4,1.3,0.4c0.4,0,0.5-0.2,0.5-0.6v-1.3
			c0-0.4-0.2-0.8-0.5-1.2c-0.4-0.4-0.8-0.8-1.3-1.1l-1.8-1V47.3z"/>
	</g>
</g>
</svg>
