<?xml version="1.0" encoding="utf-8"?>
<!-- Generator: Adobe Illustrator 22.1.0, SVG Export Plug-In . SVG Version: 6.00 Build 0)  -->
<svg version="1.1" id="レイヤー_1" xmlns="http://www.w3.org/2000/svg" xmlns:xlink="http://www.w3.org/1999/xlink" x="0px"
	 y="0px" viewBox="0 0 171.6 32.7" style="enable-background:new 0 0 171.6 32.7;" xml:space="preserve">
<style type="text/css">
	.st0{fill:#319BE0;}
	.st1{fill:#72B5E8;}
	.st2{fill:#A7D1F2;}
	.st3{fill:#0756A0;}
	.st4{fill:#CEE8FA;}
</style>
<g>
	<polygon class="st0" points="16.3,9.8 32.7,32.7 32.7,19.6 	"/>
	<polygon class="st1" points="32.7,19.6 32.7,0 16.3,9.8 	"/>
	<polygon class="st2" points="32.7,0 23.4,0 16.3,9.8 	"/>
	<polygon class="st0" points="0,19.6 0,32.7 16.3,9.8 	"/>
	<polygon class="st3" points="16.3,9.8 0,32.7 32.7,32.7 	"/>
	<polygon class="st2" points="9.3,0 0,0 16.3,9.8 	"/>
	<polygon class="st4" points="23.4,0 9.3,0 16.3,9.8 	"/>
	<polygon class="st1" points="16.3,9.8 0,0 0,19.6 	"/>
</g>
<path d="M68.2,5.1v22.8h21.9V5.1H68.2z M86.2,24.6h-14v-6.5h14V24.6z M86.2,14.7h-14V8.5h14V14.7z"/>
<g>
	<path d="M65.5,12.3h-7.6V9c2.5-0.2,4.8-0.5,6.8-1V4.7C61.9,5.3,58,5.9,54.5,6.2v10.2c0,5.4-0.5,7.2-2,8.7v3.3
		c3.8-1.2,5.4-4.7,5.4-10.8v-2.2h1.9v13.1h3.4V15.3h2.3V12.3z"/>
	<path d="M49.2,19.4L49.2,19.4l4.4-0.1v-2.8h-4.4v-1.7h4.4V12h-2.1c0.2-0.9,0.3-1.9,0.5-2.9h1.4V6.3h-4.1v-2H46v2h-4.6v2.8h1.7
		c0.1,0.9,0.3,2,0.4,2.9h-2.5v2.8h5.1v1.7h-5.1v2.8h4.2c-1.1,1.8-2.5,3.3-4.2,4.4v3.1c1.9-0.9,3.5-2,4.8-3.6
		c0.2-0.2,0.3-0.3,0.4-0.5l0,0c0,0.2,0,0.4,0,0.6v5h3.2v-4.9c0-0.2,0-0.3,0-0.5l0,0c0.1,0.1,0.2,0.3,0.3,0.4
		c0.9,0.8,1.8,1.2,2.8,1.6v-3C51.3,21.4,50.1,20.5,49.2,19.4z M45.8,9.1h3.4c-0.1,0.9-0.2,2-0.4,2.9h-2.6C46.1,11,45.9,10,45.8,9.1z
		"/>
</g>
<g>
	<rect x="114.1" y="5.8" width="2.8" height="2.3"/>
	<path d="M115.1,22.3c1-2.1,1.7-4.8,2.1-8.2h-2.5c-0.2,1.6-0.4,3-0.7,4.2c0,0.1,0,0.2-0.1,0.4c0,0,0,0,0,0c0-0.1,0-0.2,0-0.4
		c-0.3-1.6-0.4-3.7-0.5-6.3h3.9V9.4h-4V4.6h-2.8v4.8h-2.5V8.4h1.8V6h-1.8V4.6h-2.7V6h-2.1v2.4h2.1v1.1h-2.6V8.6
		c-1-0.9-1.9-2.1-2.5-3.8H97c-0.9,2.3-2.3,4.4-3.6,5.6v2.7c0.6-0.3,1.2-0.7,1.8-1.1v1.1H97v1.7h-3.2v2.7H97v7.2
		c-1.2,0.2-2.4,0.3-3.6,0.4v2.8c3.3-0.3,6.6-0.9,9.1-1.6V27c2.5-0.1,4.8-0.4,6.9-0.8v1.7c1.5-0.8,2.8-1.7,3.9-3
		c1,1.5,2.4,2.5,4.2,3.2v-3.1C116.5,24.3,115.7,23.4,115.1,22.3z M98.7,7.5c0.6,1.3,1.5,2.4,2.5,3.1h-4.5
		C97.5,9.7,98.2,8.6,98.7,7.5z M110.5,24.3v-0.4c-0.8,0.2-1.6,0.3-2.5,0.4v-1h2v-2h-2v-1.1h2.3v-2.1H103v2.1h2.2v1.1h-2v2h2v1.3
		c-0.9,0.1-1.7,0.1-2.6,0.2v-1.3c-0.9,0.3-2,0.5-3.1,0.7v-6.8h2.9v-2.7h-2.9v-1.7h2.4v-2c0.2,0.1,0.4,0.2,0.7,0.3V12h7.9
		c0.1,4.6,0.6,8,1.5,10.5C111.6,23.1,111.1,23.7,110.5,24.3z"/>
	<path d="M96,19h-2.4c0.1,1.3,0.3,3.2,0.4,4.5h2.5C96.4,22.3,96.2,20.5,96,19z"/>
	<path d="M100.1,22.8h2.1c0.2-1.1,0.4-2.7,0.5-4h-2.2C100.3,20,100.2,21.6,100.1,22.8z"/>
	<path d="M103.2,12.7v4.8h6.7v-4.8H103.2z M107.5,15.6h-2v-1h2V15.6z"/>
</g>
<path d="M167.3,13.4v-1.5c1.4,0.5,2.9,1,4.2,1.3v-2.8c-3.5-1.2-7-3.2-9.8-6.2h-4.2c-2.8,3-6.3,5-9.8,6.2v2.8
	c1.4-0.4,2.8-0.8,4.2-1.3v1.5h5.9v2.4h-9.5v3h9.5v5.9h-2.3c-0.5-1.4-1.1-3.3-1.6-4.7h-3.2c0.4,1.4,0.9,3.2,1.3,4.7h-4.4v3.1h23.8
	v-3.1h-4.5c0.5-1.4,1.1-3.2,1.6-4.7h-3.5c-0.4,1.4-0.9,3.2-1.3,4.7h-2.3v-5.9h9.5v-3h-9.5v-2.4H167.3z M159.7,7.1
	c1.2,1.4,2.7,2.5,4.5,3.4h-9.1C156.9,9.6,158.5,8.5,159.7,7.1z"/>
<g>
	<path d="M138.2,24.8V19h5.8v-3.1h-5.8v-4.7h6.7V8.1h-6.1c-0.9-1.3-2-2.8-2.9-3.8h-4c0.8,1.2,1.7,2.6,2.4,3.8h-6.6v3.1h6.6v4.7h-6
		V19h6v5.8h-7.2v3.1h18.1v-3.1H138.2z"/>
	<path d="M128.2,4.2h-3.7c-0.7,4.5-2.5,8-4.6,9.8v3.7c1.1-0.6,2-1.3,2.9-2.1v12.8h3.3V11.3C127.1,9.3,127.8,7,128.2,4.2z"/>
</g>
</svg>
