<?xml version="1.0" encoding="utf-8"?>
<!-- Generator: Adobe Illustrator 22.1.0, SVG Export Plug-In . SVG Version: 6.00 Build 0)  -->
<svg version="1.1" id="レイヤー_1" xmlns="http://www.w3.org/2000/svg" xmlns:xlink="http://www.w3.org/1999/xlink" x="0px"
	 y="0px" viewBox="0 0 779.8 114.4" style="enable-background:new 0 0 779.8 114.4;" xml:space="preserve">
<style type="text/css">
	.st0{fill:#008D54;}
</style>
<g>
	<path class="st0" d="M75.4,67.6L61.7,57.2l13.7-10.4l13.7,10.4L75.4,67.6z M150.7,52l-27.4-20.8l-6.8,5.2L102.8,26l6.8-5.2
		L82.2,0.1l-6.8,5.2L68.5,0L41.1,20.8L48,26L34.3,36.4l-6.9-5.2L0,52l6.9,5.2L0,62.4l27.4,20.8l6.9-5.2L48,88.4l-6.9,5.2l27.4,20.8
		l6.9-5.2l6.8,5.2l27.4-20.8l-6.8-5.2L116.5,78l6.8,5.2l27.4-20.8l-6.8-5.2L150.7,52z"/>
	<g>
		<path d="M647,76.8c-6.1,4.6-14,9.6-21.1,13v9c8.3-4.1,16-9.9,21.1-14.1V76.8z"/>
		<path d="M669.5,77c4-5.3,8.6-13.4,10.4-18.4h-8.6c-1.4,4.2-3,8.7-5.5,12.8c-2.5-4.1-4.6-8.5-6.3-13.1v-4.1h22.8v-7.9h-7.9V15.4
			H633v7.7h32.3v7.4h-31.5V38h31.5v8.2h-34.5v7.9h19.7v34.1c0,3.1-0.5,4.6-3.4,4.6h-5.8v8.4h11.4c3.9,0,6.8-2.5,6.8-8.7V70
			c0.9,4.5,2.9,9.3,5,12.2c3.4,4.9,10.2,13,18.7,19V91C678.3,87.3,673.6,82.5,669.5,77z"/>
		<path d="M622.6,61.6c0.4,1.3,0.7,2.4,1,3.5h8c-1.8-5.7-4.8-14-6.7-18.9h-7.2c0.6,1.7,1.6,4.6,2.6,7.8h-11.7
			c6.5-7.9,13.7-19.2,18.6-29.6h-9.4c-2,4.5-4.9,9.8-8,14.8c-1.3-1.5-2.7-3-4-4.3c3.4-5.4,8-12.9,10.7-21.8h-8.6
			c-1.8,5.6-4.8,12.1-7.7,16.8c-0.8-0.6-1.5-1.2-2.4-1.8l-3.9,7.4c4.4,3.3,8,6.1,12,9.9c-2.2,3.2-4.4,6.2-6.3,8.6h-4.8v7.5H608v39.6
			h8.8V61.6H622.6z"/>
		<path d="M593.8,95.8h6.9c1.8-4.7,4-15.7,4-27H597C597,79.3,595.8,87.6,593.8,95.8z"/>
		<path d="M640.9,58.6h-7.1c1.6,3.9,4,10.3,5.7,15.2h8C645.7,69.2,642.8,62.8,640.9,58.6z"/>
		<path d="M626.1,68.8h-7.2c1,3.1,2.8,10,4.3,15.6h8C629.5,79.1,627.5,72.8,626.1,68.8z"/>
		<path d="M314.5,13.2h-10.3v12.6h-20.1v8.1h20c-1,25.9-6.9,42.6-20,56.4v10.5c17.1-13.7,25-29.4,28.3-47.5
			c2.7,12.8,8.6,23.1,16.8,30.7c-7.8,4.6-17.4,8-28.8,9.5v7.5c12.8-0.8,25.6-4.5,36.5-11c9.6,6.1,21.3,9.3,34.2,9.6v-8.5
			c-10.9-0.5-19.5-3.1-26.2-6.7c11.5-9.3,19.6-22.3,21.1-38.7h-52.7c0.4-3.8,0.7-7.8,0.9-11.8h56.9v-8.1h-56.7V13.2z M336.8,78.7
			c-8.7-7.7-12.7-17.5-14.6-25.3h31.5C351.2,62.6,345.6,71.5,336.8,78.7z"/>
		<path d="M456.4,13.2h-9.8v13h-16.4v7.7h15.5c-3.6,16.7-9.6,29.3-20.3,43.9v12.4c8-9.3,15.8-19.2,19.4-28.6c0.9-2.5,1.5-6,1.7-8.3
			v47.9h9.8V53.3c0.4,3.8,1.4,8.8,2.8,12.2c2.7,6.6,7.2,13.8,15.3,24.2V76.4c-7.8-12.4-13.6-26.5-17.2-42.5h17.2v-7.7h-18V13.2z"/>
		<path d="M425.5,61c-6.1-8.4-10.6-16.2-13.8-27.1h13.8v-7.7h-14.2v-13h-9.7v13h-17.8v7.7H401c-3.7,17.2-9.3,31.4-17.2,43.9v12.4
			c6.5-8.2,12.6-17,15.7-25.3c0.9-2.6,1.6-5.8,2.1-8.7v45.1h9.7V52c0.5,1.6,1.3,3.5,2.6,5.5c2.7,4.1,6.7,8.9,10.5,13.5l1,1V61z"/>
		<path d="M246.1,65.7h22.6V58h-22.6V33.9h24.4V26h-24.8c-2.4-4.6-5.6-10.2-7.2-12.8h-9.8c1.8,2.9,4.9,8.5,7.1,12.8h-23.9v7.9h23.9
			V58h-22.1v7.7h22.1v25.9h-25.7v8.1h62.2v-8.1h-26.2V65.7z"/>
		<path d="M210.1,13.2h-10c-1.5,14.9-7.9,29.3-19.3,43.2v10c5.8-4.7,10.4-9.8,14.1-15v49.8h9.8V33.7C208.4,24.7,209.7,17,210.1,13.2
			z"/>
		<path d="M571.9,13.2h-9.8c-1.3,2.9-4.8,9.6-6.7,13h-6.7v-13h-9v13h-11.2v-13h-9v13h-6.2c-2-3.7-6-10.4-7.5-13H496
			c1.9,3.2,5.6,9.5,7.4,13h-12.5v7.7h19.9c0.8,2.2,2.1,5.9,2.8,8.1h-21.5v7.6h36.9v6.1h-35.7v7.5h35.7v6.7h-38.2v7.9h25.7
			c-5.7,7.5-16.3,11.9-25.7,14.9v7c13.9-3,31.5-11.2,38.2-21.9v23.5h9.7V77.7c6.9,10.8,24.4,18.9,38.2,21.9v-7.4
			c-9.6-2.9-20.8-7.3-26.3-14.5h26.3v-7.9h-38.2v-6.7h35.7v-7.5h-35.7v-6.1h37V42h-21.5c0.8-2.2,2.3-6,3-8.1h19.8v-7.7h-12.7
			C566.4,23,570.1,16.6,571.9,13.2z M545.8,42h-23.1c-0.8-2.3-2.2-6-3-8.1h28.6C547.7,36,546.5,39.8,545.8,42z"/>
		<path d="M770.4,83.4c0,6.9-2.8,7.7-6.3,7.7h-15.6c-3.3,0-4.8-1.1-4.8-6.7V56.2c11.9-4.8,20.8-9.3,31.7-15.8V29
			c-11.9,8.2-23.1,13.9-31.7,17.7V13.2h-10.2v73.7c0,10.7,5.6,12.7,12.4,12.7h18.6c8.8,0,15.2-2.9,15.2-14.5v-11h-9.4V83.4z"/>
		<path d="M711.9,13.2c-2.1,16.5-7.9,30.9-20.1,43.2v10c5.5-4.1,10.1-8.5,13.8-13.1v47.9h9.8V36.9c3.3-7.7,5.2-15.7,6.3-23.7H711.9z
			"/>
	</g>
</g>
</svg>
