<?xml version="1.0" encoding="utf-8"?>
<!-- Generator: Adobe Illustrator 22.1.0, SVG Export Plug-In . SVG Version: 6.00 Build 0)  -->
<svg version="1.1" id="レイヤー_1" xmlns="http://www.w3.org/2000/svg" xmlns:xlink="http://www.w3.org/1999/xlink" x="0px"
	 y="0px" viewBox="0 0 790.5 138.8" style="enable-background:new 0 0 790.5 138.8;" xml:space="preserve">
<style type="text/css">
	.st0{fill:#008D54;}
	.st1{fill:#1A1718;}
</style>
<path class="st0" d="M91.6,82L75,69.4l16.6-12.6l16.6,12.6L91.6,82 M183.2,63.1l-33.3-25.2l-8.3,6.3l-16.6-12.6l8.3-6.3L99.9,0
	l-8.3,6.3L83.3,0L50,25.2l8.4,6.3L41.7,44.2l-8.4-6.3L0,63.1l8.4,6.3L0,75.7L33.3,101l8.4-6.3l16.6,12.6l-8.3,6.3l33.3,25.2l8.3-6.3
	l8.3,6.3l33.3-25.2l-8.3-6.3l16.6-12.6l8.3,6.3l33.3-25.2l-8.3-6.3L183.2,63.1z"/>
<path class="st1" d="M406.2,9.1h-16.1v17.1h-27.9v11.6h27.6c-1.5,38.5-10.9,60-27.6,77v15.1c25.2-19.3,36.3-41.1,40.9-65.2
	c3.5,15,10.9,30.2,23.9,41.9c-10.8,6.1-24.4,10.7-41.4,12.7v10.6c21.4-1.5,38.9-7,52.7-14.9c12.5,7.6,28.7,12.5,49.3,13.1v-12.5
	c-15.2-0.6-27.3-3.9-37.1-8.8c19-15.2,28.4-35.3,29.6-53.1h-75.5c0.6-5.1,0.9-10.4,1.1-15.7h81.8V26.1h-81.6V9.1 M438.7,98.5
	c-11.1-9.5-17.4-21.8-20.5-34.1h43C457.9,76.3,450.8,88.5,438.7,98.5z"/>
<path class="st1" d="M614.4,9.1h-14.9v17.5h-23.5v11.1h22c-5.5,23.4-14.1,40.7-28.8,59.9v17.8c11.1-12.6,23-26.4,28.4-39.8
	c0.9-2.3,1.6-4.9,2-7.2v61.5h14.9V68.2c0.8,4.3,1.9,9.1,3.4,12.6c4.4,10.3,12.2,21.2,22.4,33.8V95.7c-12.1-18.3-19.6-38.2-24.4-58
	h24.4V26.6h-25.9V9.1"/>
<path class="st1" d="M569.1,90.4V74.6C560,62.5,554,51.7,549.5,37.7h19.6V26.6h-20.3V9.1h-14.8v17.5h-25.5v11.1H533
	c-4.7,19.9-11.8,40.6-24.5,59.9v17.8c10.8-13.4,18.8-24.6,23.1-35.4c1-2.6,1.8-5.6,2.4-8.4v58.2h14.8V64c0.8,1.9,1.9,3.9,3.3,5.9
	C556.4,76.2,563.1,83.7,569.1,90.4"/>
<path class="st1" d="M790.5,37.7V26.6h-17.3c3.2-5.2,7.7-13.1,10.2-17.5h-15.1c-1.8,3.8-6,12.1-9.1,17.5h-9.9V9.1h-13.9v17.5H720
	V9.1h-13.8v17.5h-8.9c-3.3-5.7-8.2-14.1-10.3-17.5h-14.9c2.6,4.2,7.2,12.1,10.2,17.5H665v11.1h28.6c1.1,3.1,2.7,7.5,3.8,10.6h-30.4
	v11h53.2v7.8h-51.3v10.8h51.3v8.6H665v11.3h36.5c-9.1,10.9-24.2,16.2-36.5,20v10.1c18.1-3.6,44-13.9,55.1-29v30.9h15.3V98.9
	c11.2,15.3,36.7,25.3,55.1,29v-10.6c-12.4-3.8-29-9.5-37.3-19.5h37.3V86.5h-55.1v-8.6h51.3V67.1h-51.3v-7.8h53.2v-11h-30.7
	c1.2-3.1,2.9-7.5,4-10.6H790.5 M744.7,48.3h-33.5c-1.1-3.1-2.7-7.5-3.9-10.6H748C747.1,40.8,745.7,45.2,744.7,48.3z"/>
<path class="st1" d="M306.7,78h32.5V66.7h-32.5V37.8h35V26.4h-36c-3.3-5.9-7.8-13.8-10.4-17.4h-15.7c2.7,4.1,7,11.5,10.2,17.4h-33.5
	v11.4h34.5v28.9h-32V78h32v38.4H255v11.6h87.9v-11.6h-36.2V78"/>
<path class="st1" d="M238,9.1c-2.5,23.7-13.8,45.1-27.3,59.1v14.3c7.9-5.2,14.5-11.5,20-18.4v65.7H246V37.4
	c4.2-10.3,6.5-20.3,7.5-28.3H238"/>
</svg>
