<?xml version="1.0" encoding="utf-8"?>
<!-- Generator: Adobe Illustrator 22.1.0, SVG Export Plug-In . SVG Version: 6.00 Build 0)  -->
<svg version="1.1" id="レイヤー_1" xmlns="http://www.w3.org/2000/svg" xmlns:xlink="http://www.w3.org/1999/xlink" x="0px"
	 y="0px" viewBox="0 0 172.9 42.5" style="enable-background:new 0 0 172.9 42.5;" xml:space="preserve">
<style type="text/css">
	.st0{fill:#21191B;}
	.st1{fill:#3B8CB1;}
</style>
<g>
	<path class="st0" d="M172.9,30.6l-9.3-8c1.7-2.1,4.9-8.4,5.4-12.8H149v3.6h15c-3,8.6-8.7,13.8-17.1,18.2c0,1,0,2.7,0,4
		c3.2-1.1,9.6-4.5,14.4-9.9l11.6,10V30.6"/>
	<path class="st0" d="M115.9,27.4c-0.1-4.6-1.4-6.2-2.6-7.9c2.5-5.1,2.2-10.5,2.2-10.5h-11.7v27.2h3.4V11.9h4.7
		c-0.2,2.8-0.9,5.4-2.3,7.8c1.3,1.7,2.4,3.6,2.6,5.4c0.6,4.6-0.4,4.8-1.5,4.9H108v3.2h2.8C111.9,33.2,116,33.6,115.9,27.4"/>
	<path class="st0" d="M102.7,14.3v-3h-4.8c0-2.5,0-3.3,0-3.3h-3.4c0,0,0,1.2,0,3.3h-5.2v3h5.2c0,1.3,0,2.4,0,3.4h-4.8v3.1h4.8
		c0,0,0,2.2-0.1,3.5h-5.9v3h5.4c-1,3.9-3.8,5.1-3.8,5.1v3.8c0.1,0,5.9-1.8,7.4-8.9h5.2v-3h-4.8v-3.5h4.2v-3.1h-4.2
		c0-1.1,0-2.1,0-3.4H102.7"/>
	<path class="st0" d="M130.8,14.2c0,0,0.1-3.7,0.1-6c-0.2,0-3.9,0-3.9,0l0,6h-8.7v3.7h8.3c-0.9,8.9-6,11.9-8.3,13.3v4.4
		c1.5-0.7,6.8-3.5,9.6-8.5c1.3-2.4,2.3-5.5,2.7-9.2h8.9V27c0,3.6-0.8,4.6-3.4,4.5h-2.8v3.8l3.9,0c2.7,0,6.4-1.1,6.2-8V14.2H130.8"/>
	<polyline class="st0" points="142.4,13.2 140.9,8.2 138.5,8.2 140,13.2 142.4,13.2 	"/>
	<polyline class="st0" points="146.5,13.2 145,8.2 142.7,8.2 144.2,13.2 146.5,13.2 	"/>
	<path class="st0" d="M77.3,26.9h7.2V15.2h-9.6v-1.8h11.5v-3H74.8V7.9h-3.4v2.5H60v3h11.5v1.8h-9.7v11.8h7.2c-0.8,1.5-8,5.4-8.9,5.7
		v3.5c0.7,0,8.4-3.6,11.5-6.9v6.9h3.4v-6.9c2.6,2.6,9.3,6.6,11.5,6.9v-3.5C84.6,32,78.7,28.6,77.3,26.9 M71.5,24h-6.4v-1.6h6.4V24z
		 M71.5,19.8h-6.4v-1.7h6.4V19.8z M74.8,18.1h6.3v1.7h-6.3V18.1z M81.1,24h-6.3v-1.6h6.3V24z"/>
	<path class="st1" d="M27.2,0C27.2,0,27.2,0,27.2,0L27.2,0l-23,0C1.5,0,0,1.7,0,4.4v10c0,1.6,1.2,3.8,4.3,3.8c0,0,12.9,0,12.9,0
		c0,0,0.1,0,0.1,0c0,0,0,0-0.1-0.1c-1.1-0.2-2.1-0.8-2.8-1.6c-2.3-2.8-0.3-8.4,4.7-12.6C21.7,1.8,24.7,0.4,27.2,0"/>
	<path class="st1" d="M22.5,17.4c-0.8,0.3-3.5,1.5-4.1,1.7c-3,1.3-5.3,4.5-5.3,9v10.4c0,2.4,1.7,4,4.2,4H27c3.3,0,4.4-2.2,4.4-4.1
		V22.5c0-2.8,1.6-4.3,4.3-4.3h7c1.6,0,4.3-0.6,4.3-4.5V3.7C46.9,2,45.5,0,43.1,0L29.6,0c0,0,0,0,0,0c0,0,0,0,0,0
		c1.2,0.2,2.2,0.7,2.9,1.5c2.3,2.8,0.1,8.5-4.9,12.7C25.9,15.6,24.3,16.5,22.5,17.4"/>
</g>
</svg>
