<?xml version="1.0" encoding="utf-8"?>
<!-- Generator: Adobe Illustrator 22.1.0, SVG Export Plug-In . SVG Version: 6.00 Build 0)  -->
<svg version="1.1" id="レイヤー_1" xmlns="http://www.w3.org/2000/svg" xmlns:xlink="http://www.w3.org/1999/xlink" x="0px"
	 y="0px" viewBox="0 0 127.6 18.2" style="enable-background:new 0 0 127.6 18.2;" xml:space="preserve">
<style type="text/css">
	.st0{fill:#0049AD;}
</style>
<g>
	<g>
		<g>
			<path d="M39.1,4.5h-2.7V3.4h2.7V4.5 M31.1,2.4v5.2h13.2V2.4h-4.1V1.4h-1.2v0.9h-2.7V1.4h-1.2v0.9H31.1 M39.1,6.6h-2.7V5.4h2.7
				V6.6 M35.1,4.5h-2.8V3.4h2.8V4.5 M35.1,6.6h-2.8V5.4h2.8V6.6 M43.1,4.5h-2.8V3.4h2.8V4.5 M43.1,6.6h-2.8V5.4h2.8V6.6 M43.9,10.5
				H31.6v3.3h2.1c0.2,0.6,0.3,0.9,0.4,1.5H30v1.2h15.4v-1.2h-4.1c0.1-0.2,0.4-1.2,0.5-1.5h2V10.5 M42.5,12.8H33v-1.3h9.6V12.8
				 M35.5,15.2c-0.1-0.2-0.4-1.2-0.4-1.5h5.3c-0.1,0.4-0.3,1.1-0.4,1.5H35.5 M45.5,8.5H30v1.1h15.5V8.5z"/>
			<path d="M53.7,8.2h-4.9V3.5h4.9V8.2 M47.4,2.2v14.4h1.4v-0.8h11.2v0.8h1.4V2.2H47.4 M53.7,14.5h-4.9V9.5h4.9V14.5 M59.9,8.2H55
				V3.5h4.9V8.2 M59.9,14.5H55V9.5h4.9V14.5z"/>
			<path d="M74.5,10.7H65V8.1h9.5V10.7 M63.6,3.2v13.6H65v-1h9.5v1h1.4V3.2h-6.2c0.2-0.4,0.4-1,0.6-1.5L69,1.4
				c-0.1,0.3-0.3,1.2-0.6,1.8H63.6 M74.5,6.9H65V4.5h9.5V6.9 M74.5,14.6H65v-2.7h9.5V14.6z"/>
			<path d="M82,8.3h-2.1V7H82V8.3 M88.8,6.1c0,1.5-0.2,2.8-0.3,3.8c-0.3,2.3-0.7,3.5-1.7,5.1v-0.6c-0.8,0.1-1.7,0.3-3.6,0.4v-1.2
				h3.6v-1.1h-3.6v-1h3.3V6h-3.3V5.1H87V4h-3.8V3c1.7-0.2,2.6-0.4,3.2-0.5l-0.5-1c-2.5,0.6-4.7,0.7-7.5,0.7l0.2,1.1
				c0.9,0,2.1-0.1,3.4-0.2v1h-3.8v1.1H82V6h-3.3v5.5H82v1h-3.4v1.1H82V15c-2.1,0.2-3.1,0.2-3.9,0.2l0.2,1.3c2.6-0.1,6.2-0.5,8-0.9
				c-0.1,0.1-0.1,0.2-0.3,0.5l1.2,0.8c0.5-0.6,1.6-2,2.2-4.6c0.6-2.4,0.7-4.8,0.7-6.1h1.7c0,2.8-0.1,5.7-0.4,8.5
				c-0.1,0.7-0.3,1-0.9,0.9l-1.6,0l0.3,1.3h1.7c1.5,0,1.9-0.5,2.1-3.4c0.2-2.3,0.2-8.5,0.2-8.7h-3V1.4h-1.3v3.4h-1.5v1.3H88.8
				 M82,10.5h-2.1V9.2H82V10.5 M85.4,8.3h-2.1V7h2.1V8.3 M85.4,10.5h-2.1V9.2h2.1V10.5z"/>
			<path d="M104.4,11.8h-2.3v-1.7h2.3V11.8 M109.1,8.9c-0.1,0.6-0.4,1.7-1.1,3c-0.2-1.1-0.4-2.2-0.4-3.9h2.8V6.8h-2.8
				c0-0.6-0.1-3.7-0.1-4.4V1.4h-1.3c0,1.1,0,2.8,0.1,5.4h-1.4c0.2-1.1,0.4-2.1,0.5-2.8h0.4V2.9h-2V1.4h-1.2v1.5h-2V4h0.6
				c0.2,0.7,0.4,1.7,0.4,2.8h-1.3V8h6c0.1,1.9,0.2,3.3,0.7,5.3c-0.8,1-1.3,1.4-1.6,1.7V9.1h-4.6v6.6h3.7c-0.1,0.1-0.2,0.1-0.4,0.3
				l0.9,0.9c0.5-0.3,1.3-0.9,2.5-2.2c0.2,0.5,0.4,1.1,0.7,1.5c0.4,0.6,0.7,0.7,1,0.7c0.5,0,0.8-0.3,1-0.7c0-0.1,0.4-0.8,0.6-2.4
				l-1-0.5c0,0.3-0.1,0.7-0.2,1.2c-0.2,0.7-0.2,0.9-0.4,0.9c-0.1,0-0.2-0.1-0.3-0.3c-0.3-0.6-0.5-1.2-0.6-1.5
				c1.3-1.9,1.6-3.4,1.8-4.2L109.1,8.9 M99.2,2.9c-0.4,0.9-0.8,1.8-1.5,3c-0.1-0.2-0.3-0.4-0.8-0.8c0.3-0.6,1.1-1.8,1.6-3.3
				l-1.2-0.4c-0.3,1-0.6,1.9-1.2,3c-0.1-0.1-0.2-0.2-0.5-0.3l-0.6,1c0.8,0.5,1.4,1.2,2.1,2c-0.5,0.9-0.8,1.3-1,1.5c-0.1,0-1,0-1.1,0
				l0.1,1.2c0.4,0,0.6,0,2.2-0.2v7.1h1.2V9.6c0.5-0.1,0.7-0.1,0.9-0.1c0.1,0.4,0.1,0.5,0.1,0.9l1-0.3c-0.1-0.6-0.3-1.7-0.7-2.9
				l-1,0.3C99,7.8,99,8,99.2,8.4c-0.3,0.1-0.8,0.1-1.8,0.1c1.7-2.4,2.6-4.4,3-5.2L99.2,2.9 M104.4,14.6h-2.3v-1.9h2.3V14.6
				 M102.7,6.8c-0.1-1.1-0.3-2.1-0.4-2.8h1.9c-0.1,1.1-0.2,1.8-0.4,2.8H102.7 M100.5,14.5c0-1-0.2-2.5-0.4-3.6L99.1,11
				c0.2,1.1,0.3,2.6,0.3,3.7L100.5,14.5 M96.1,15.7c0.5-1.5,0.6-3.1,0.6-4.7l-1.1-0.1c-0.1,2.4-0.4,3.5-0.6,4.3L96.1,15.7
				 M110.3,5.2c-0.6-1.8-1-2.4-1.3-2.8l-1,0.4c0.7,1.1,1,2.3,1.2,2.8L110.3,5.2z"/>
			<path d="M123.6,8.5c0.6,0.3,1.3,0.8,1.4,0.9h-2.4c0-0.3-0.1-0.7-0.2-1.5c0.6,0,1.2-0.1,1.7-0.1L123.6,8.5 M122.3,3.6
				c0.8,0.7,1.5,1.5,1.7,1.7c-0.7,0.9-0.9,1.2-1.2,1.5c-0.1,0-0.3,0-0.4,0c-0.3-2.7-0.3-4.5-0.3-5.4h-1.3c0,2.7,0.2,5.3,0.6,8h-4.8
				c-0.4-0.6-1-1.4-1.5-2.7V5.9h1.3V4.6h-1.3V1.4h-1.3v3.2h-1.8v1.3h1.7c-0.1,1-0.6,3.5-1.9,5.5l0.7,1.6c0.3-0.6,0.9-1.6,1.3-3.5
				v7.3h1.3V8.8c0.3,0.8,0.6,1.3,0.8,1.7l0.6-0.9v1h0.7c0,2.8-0.3,4-1.3,5.3l1,1c1.2-1.5,1.3-2.6,1.5-4.1c0.8,0.4,1.5,0.9,2.1,1.6
				l0.7-1.1c-0.5-0.4-1.4-1.1-2.8-1.7c0-0.3,0-0.5,0-1.1h3.2c0.3,1.3,0.6,2.4,1,3.4c-1.6,1.2-2.8,1.5-3.5,1.6l0.6,1.2
				c0.7-0.2,2-0.6,3.5-1.7c0.4,0.6,1.3,1.8,2.4,1.8c1.1,0,1.5-0.9,2-2.5l-1.1-0.8c-0.1,0.6-0.3,1.1-0.4,1.5
				c-0.1,0.3-0.3,0.6-0.5,0.6c-0.4,0-1-0.8-1.3-1.3c1.2-1.1,1.8-2.1,2.1-2.6l-1.2-0.5c-0.3,0.4-0.7,1.1-1.6,2
				c-0.4-0.8-0.6-1.6-0.8-2.5h4.5V9.4h-2.1l0.6-0.7c-0.5-0.3-1.3-0.8-1.5-0.9c0,0,0.1,0,0.1,0c0.4,0,0.8-0.1,1.7-0.2
				c0.1,0.4,0.2,0.6,0.2,0.8l1-0.4c-0.2-0.8-0.5-1.6-0.9-2.5l-0.9,0.4c0.1,0.2,0.2,0.3,0.4,0.8c-0.6,0.1-1.3,0.1-1.9,0.1
				c0.5-0.5,1.5-1.7,2.8-3.5l-0.9-0.5c-0.3,0.4-0.3,0.5-1.2,1.7c-0.2-0.2-0.4-0.5-0.7-0.7c0.3-0.3,0.9-1.2,1.4-2l-1-0.4
				c-0.3,0.6-0.7,1.2-1.1,1.7C123.2,3,123.2,3,123,2.8L122.3,3.6 M119,6.1c0.1,0.3,0.2,0.4,0.4,0.9c-0.6,0.1-1.1,0.1-1.7,0.1
				c0.7-0.7,2.1-2.5,2.9-3.7l-0.9-0.5c-0.2,0.4-0.4,0.7-1.3,1.7c-0.1-0.1-0.3-0.3-0.7-0.8c0.6-0.6,1.1-1.3,1.6-2.1l-1-0.4
				c-0.4,0.8-1.1,1.6-1.3,1.8c-0.2-0.1-0.2-0.1-0.4-0.3l-0.7,0.8c0.8,0.7,1.5,1.4,1.9,1.8c-0.5,0.6-0.9,1.1-1.4,1.7
				c-0.1,0-0.2,0-0.4,0l0.1,1.1c1.7-0.1,2.9-0.2,3.5-0.3c0.1,0.2,0.1,0.4,0.2,0.7l1-0.4c-0.2-0.9-0.5-1.7-0.9-2.5L119,6.1z"/>
		</g>
		<g>
			<polygon class="st0" points="15.7,6.7 9.2,6.7 7.2,13 13.7,13 			"/>
			<polygon class="st0" points="11.3,0.4 4.7,0.4 2.7,6.7 9.2,6.7 			"/>
			<path class="st0" d="M14.9,3.7c0-2,1.6-3.7,3.7-3.7c2,0,3.7,1.6,3.7,3.7c0,2-1.6,3.7-3.7,3.7C16.5,7.3,14.9,5.7,14.9,3.7z"/>
			<polygon class="st0" points="1.3,14.7 0,14.7 0.2,14.3 3.2,14.3 3.1,14.7 1.8,14.7 0.6,18.2 0.1,18.2 			"/>
			<polygon class="st0" points="13.2,14.7 11.9,14.7 12,14.3 15.1,14.3 15,14.7 13.7,14.7 12.5,18.2 12,18.2 			"/>
			<path class="st0" d="M4.6,14.2c-1.4,0-2,1.3-2.2,2c-0.3,1-0.1,2,1.1,2c1.1,0,1.8-0.7,2.2-2C6.1,15.2,5.8,14.2,4.6,14.2 M4.6,14.6
				c0.9,0,1,0.8,0.7,1.6c-0.2,0.7-0.7,1.6-1.7,1.6c-1,0-0.9-1-0.7-1.6C3.1,15.6,3.6,14.6,4.6,14.6z"/>
			<path class="st0" d="M10.5,14.2c-1.4,0-2,1.3-2.2,2c-0.2,1,0,2,1.2,2c1.1,0,1.8-0.7,2.2-2C12,15.2,11.7,14.2,10.5,14.2
				 M10.4,14.6c0.9,0,1,0.8,0.8,1.6c-0.2,0.7-0.7,1.6-1.6,1.6c-1,0-0.9-1-0.7-1.6C9,15.6,9.5,14.6,10.4,14.6z"/>
			<polygon class="st0" points="6.5,14.3 6.9,16.1 8.5,14.3 9.2,14.3 7,16.7 6.6,18.2 6.1,18.2 6.6,16.7 6,14.3 			"/>
			<g>
				<polygon class="st0" points="16,15 16.2,18.2 16.7,18.2 16.4,14.3 16,14.3 13.1,18.2 13.7,18.2 				"/>
				<polygon class="st0" points="16.4,16.8 14.3,16.8 14.2,17.2 16.3,17.2 				"/>
			</g>
		</g>
	</g>
</g>
</svg>
