<?xml version="1.0" encoding="utf-8"?>
<!-- Generator: Adobe Illustrator 24.0.3, SVG Export Plug-In . SVG Version: 6.00 Build 0)  -->
<svg version="1.1" id="レイヤー_1" xmlns="http://www.w3.org/2000/svg" xmlns:xlink="http://www.w3.org/1999/xlink" x="0px"
	 y="0px" viewBox="0 0 43.8 45.2" style="enable-background:new 0 0 43.8 45.2;" xml:space="preserve">
<style type="text/css">
	.st0{display:none;}
	.st1{display:inline;}
	.st2{fill:#503819;}
</style>
<g class="st0">
	<g class="st1">
		<path class="st2" d="M11.4-0.1c0.2,0,0.5,0,0.7,0.1c0.3,0.1,0.6,0.1,1.1,0.1H17c0.8,0,1.8,0,3,0.1c0.2,0,0.5-0.1,0.9-0.2
			c0.5,0,0.7,0.3,0.7,0.8c0,0,0,0.1-0.1,0.3c-0.1,0.3-0.1,0.9-0.2,1.7c-0.1,1.1-0.1,2.3-0.1,3.5c0,0.9,0,2.1,0.1,3.6
			c0,0.6-0.2,0.8-0.7,0.8c-0.8-0.1-1.6-0.1-2.3-0.2c0,0,0,0,0,0.1c0,1-0.1,2.3-0.2,3.8c0,0.3,0.1,0.5,0.4,0.6c0.6,0.1,2,0.1,4.2,0.1
			c1.6,0,3-0.2,4.3-0.7c0.2,0,0.3,0.2,0.3,0.5c0,0.5-0.1,1-0.4,1.6c-0.3,0.6-0.7,1-1,1c-0.3,0-3-0.3-8.1-0.9
			c-0.8-0.1-1.2-0.5-1.2-1.1c0.1-1.3,0.2-2.3,0.2-2.9c0-0.7,0-1.4-0.1-2.1c-0.3,0-0.6,0-0.9,0c-0.3,0-0.5,0-0.7,0c0,0,0,0.1,0,0.1
			c0,0-0.1,0.1-0.1,0.2c-0.5,1-1.3,2.1-2.4,3.4c-1.2,1.1-2.4,2-3.7,2.6c-0.9,0.4-1.6,0.6-2.2,0.6c-0.3,0-0.6-0.1-0.9-0.4
			c-0.4-0.4-0.6-0.7-0.6-1.1c0-0.3,0.3-0.4,0.9-0.5c1.6-0.2,3.2-0.7,4.6-1.6c1.3-0.9,2.3-2,3-3.4c-0.4,0-0.7,0-0.9,0.1
			c-0.4,0-0.8,0.1-1.4,0.2c-0.5,0-0.7-0.2-0.7-0.7c0.1-1.7,0.2-3.2,0.2-4.5c0-1.4-0.1-3-0.2-4.9C10.7,0.2,11-0.1,11.4-0.1z
			 M15.9,9.4c1.1,0,2.3,0,3.6,0.1c0.3,0,0.4-0.1,0.4-0.3V7.2c-3.2,0-5.7,0.1-7.5,0.2c0,0-0.1,0-0.1,0c0,0.6,0,1.1-0.1,1.6
			c0,0.3,0.2,0.4,0.6,0.4C13.7,9.4,14.7,9.4,15.9,9.4z M12.4,6.2c0.1,0,0.1,0,0.2,0h7.3c0,0,0.1,0,0.1,0V4.3c-3.2,0-5.7,0.1-7.5,0.2
			h0C12.4,5.1,12.4,5.7,12.4,6.2z M12.4,3.3c0,0,0.1,0,0.1,0H20V1.7c0-0.2-0.1-0.3-0.2-0.3c-1.6-0.1-3.8-0.1-6.8-0.1
			c-0.3,0-0.5,0.2-0.5,0.5C12.4,2.3,12.4,2.8,12.4,3.3z"/>
		<path class="st2" d="M45.6,3c0,0.4-0.2,0.6-0.6,0.6c-0.2,0-0.5,0-0.9-0.1c-0.4-0.1-0.7-0.1-0.9-0.1c-2,0-3.8,0.6-5.4,1.8
			c-1.8,1.3-2.7,2.9-2.7,4.8c0,1.6,0.7,2.8,2.2,3.6c1.1,0.7,2.6,1,4.4,1c0.3,0,0.7,0,1.3-0.1c0.6-0.1,1-0.1,1.3-0.1
			c0.2,0,0.3,0.1,0.4,0.3c-0.1,0.5-0.4,1-0.9,1.5c-0.5,0.4-1.1,0.6-1.6,0.6c-2.2,0-4-0.6-5.6-1.7C34.8,14,34,12.4,34,10.3
			c0-1.6,0.5-3,1.6-4.2c0.8-0.9,2.1-1.8,3.7-2.7c-3.4,0.3-6.6,0.8-9.6,1.6c-0.3,0.1-0.6,0.2-1.1,0.3c-0.5,0-0.7-0.3-0.7-0.7
			c0-0.5,0.1-0.8,0.3-1c0.2-0.2,0.7-0.4,1.5-0.5c2.3-0.3,5.4-0.6,9.2-0.9c3.2-0.2,5-0.4,5.6-0.4c0.3,0,0.6,0.1,0.8,0.4
			C45.5,2.5,45.6,2.7,45.6,3z"/>
		<path class="st2" d="M14.9,40.4c-0.1,0.3-0.4,0.7-0.9,1.2c-0.5,0.5-0.9,0.8-1.2,0.8c0.1,0-1.1-0.6-3.3-1.8c-0.5,0.9-1.2,1.9-2,2.8
			c-1.1,1.2-2,1.8-2.6,1.8c-0.3,0-0.8-0.2-1.4-0.5c-0.6-0.4-0.9-0.7-0.9-1c0-0.1,0.5-0.3,1.5-0.5c1.7-0.5,3.2-1.6,4.2-3.3
			c-1.8-0.8-3.7-1.5-5.7-2.1c-2.5,3.1-4.4,4.6-5.7,4.6c-0.6,0-1-0.3-1.4-0.8C-4.9,41.3-5,40.8-5,40.3c0-1.4,0.7-2.4,2.1-3
			c1.1-0.5,2.4-0.8,3.9-0.8c0.1,0,0.5,0,1,0.1c0.6-0.8,1.8-2.7,3.6-5.7c-1.2,0-2.1,0.1-2.5,0.1c-0.9,0.1-1.7,0.2-2.5,0.4
			c-0.7,0.2-1.1,0.3-1.2,0.3c-0.5,0-0.8-0.2-0.8-0.5c0-0.7,0.4-1.2,1.2-1.4c1.2-0.3,2.5-0.4,3.8-0.4h2.6c1,0,1.5,0.3,1.5,0.8
			c0,0.3-0.6,1.4-1.8,3.1c-1,1.5-1.8,2.7-2.5,3.6c1.5,0.4,3.4,0.9,5.7,1.7c0.3-0.9,0.6-1.7,0.6-2.4c0-0.4,0.2-0.6,0.7-0.6
			c0.4,0,0.6,0.2,0.6,0.6c0,0.7-0.3,1.7-0.8,2.9c1.5,0.6,2.9,0.9,4.2,1.1C14.7,40,14.9,40.1,14.9,40.4z M1.1,37.6
			c-0.5,0-0.8-0.1-1-0.1c-1,0-1.8,0.2-2.6,0.6c-0.9,0.5-1.4,1.2-1.4,2.1c0,0.6,0.2,0.9,0.6,0.9C-2.2,41.2-0.7,40,1.1,37.6z"/>
		<path class="st2" d="M36.4,42.6c-0.1,0.3-0.4,0.7-1.1,1.3c-0.6,0.5-1,0.8-1.4,0.9l-3.5-2.2c-0.8-0.5-1.7-1-2.6-1.4
			c-0.3,2.2-1.7,3.2-4.1,3.2c-1,0-1.9-0.2-2.7-0.7c-1-0.6-1.4-1.3-1.4-2.1c0-1,0.5-1.7,1.4-2.2c0.7-0.4,1.6-0.5,2.7-0.5
			c0.7,0,1.6,0.1,2.5,0.3c-0.1-3-0.2-5.6-0.2-7.8v-1.9c0-1,0.3-1.5,1-1.5c0.4,0,0.6,0.6,0.8,1.9c0,0.8,0,1.6,0,2.4l2.3,0
			c1.4,0,2.6,0,3.5,0.1c0.5,0,0.7,0.2,0.7,0.5c0,0.2-0.1,0.5-0.4,0.9c-0.3,0.3-0.5,0.5-0.8,0.5c-0.6-0.1-1.2-0.3-1.9-0.4
			c-0.7-0.1-1.3-0.2-1.9-0.2c-0.4,0-0.9,0-1.5,0.1v0.5c0,0.6,0,1.5,0.1,2.7c0,1.2,0,2.1,0,2.7l4.7,1.7c1,0.4,2,0.6,3,0.7
			c0.2,0,0.4,0,0.5,0.1C36.3,42.4,36.4,42.5,36.4,42.6z M26.4,40.6C25,40.2,24,40,23.3,40c-0.6,0-1.2,0.1-1.6,0.3
			c-0.6,0.3-0.8,0.7-0.8,1.3c0,0.5,0.4,0.9,1.1,1.2c0.5,0.2,1.2,0.3,1.8,0.3C25.3,43.1,26.2,42.3,26.4,40.6z"/>
		<path class="st2" d="M54.4,36.6c0,1.6-0.6,3.1-1.7,4.5c-1,1.2-2.3,2.2-3.9,2.9c-1.7,0.8-3,1.2-3.8,1.2c-0.4,0-0.9-0.2-1.3-0.6
			c-0.5-0.4-0.7-0.8-0.7-1.3c0-0.2,0.7-0.4,2.1-0.5c1.8-0.2,3.5-0.8,5.1-1.9c1.9-1.3,2.8-2.7,2.8-4.4c0-2-1-3-3.1-3
			c-1.6,0-3.4,0.5-5.4,1.6c-0.3,0.2-0.8,0.4-1.5,0.8c-0.2,0-0.4-0.1-0.6-0.4c-0.1-0.2-0.2-0.5-0.2-0.7c0-0.7,1.1-1.3,3.2-1.8
			c1.7-0.4,3.1-0.6,4.1-0.6c2,0,3.4,0.7,4.2,2C54.2,35.1,54.4,35.9,54.4,36.6z M52.8,28.9c0,0.3-0.1,0.5-0.4,0.7
			c-0.2,0.2-0.5,0.3-0.8,0.3c-0.2,0-0.5-0.1-0.9-0.2c-0.3-0.1-0.9-0.1-1.9-0.1c-1.4,0-2.5,0.1-3.3,0.2c-0.1,0-0.3,0.1-0.7,0.1
			c-0.3,0.1-0.5,0.1-0.7,0.1c-0.3,0-0.4-0.2-0.4-0.6c0-0.8,0.4-1.2,1.1-1.2c0.9-0.1,2-0.1,3.4-0.1h2.1C52,28.2,52.8,28.4,52.8,28.9z
			"/>
	</g>
</g>
<g>
	<g>
		<path class="st2" d="M1.5,0.3c0.7,0,1.1,0.3,1.1,0.9c0,1.7,0,3.3-0.1,4.8c0.1,0,0.2,0,0.3,0H8c0.2,0,0.3,0.1,0.3,0.2
			C8.3,6.5,8.2,6.8,8,7C7.8,7.2,7.5,7.4,7.2,7.4c-0.1,0-0.4,0-0.8-0.1c-0.5,0-0.9,0-1.5,0c-1,0-1.7,0.1-2.1,0.2
			C2.7,7.5,2.6,7.5,2.5,7.5c-0.1,2-0.2,3.9-0.3,5.7c0,0.2,0.1,0.3,0.2,0.3c3.1-0.6,4.9-0.9,5.4-0.9c0.4,0,0.6,0.2,0.6,0.5
			c0,0.6-0.3,0.9-0.8,0.9c-1.7,0.2-3.2,0.4-4.2,0.8c-0.8,0.2-1.4,0.5-1.8,0.8c-0.3,0.2-0.6,0.3-0.8,0.3c-0.5,0-0.8-0.3-0.8-1
			c0-0.2,0.1-0.5,0.3-1c0.2-0.4,0.3-1.1,0.4-1.9C0.9,10.2,1,8.6,1,7.1c0-2-0.1-4-0.3-6C0.7,0.6,1,0.3,1.5,0.3z M10.8,0.1
			c0.6,0,0.9,0.3,0.9,0.8c0,1.6,0,3.3-0.1,5.3c2.2-0.8,3.9-1.6,5.1-2.3c0.2-0.1,0.3-0.2,0.4-0.2c0.6,0,0.9,0.3,0.9,0.9
			c0,0.3-0.2,0.6-0.6,0.8c-0.9,0.4-2.1,0.8-3.7,1.3c-1.1,0.4-1.8,0.6-2,0.6c0,0,0,0-0.1,0c0,2-0.1,4.2-0.1,6.6
			c0,0.1,0.2,0.2,0.5,0.2c0.6,0,2,0.1,4.4,0.1c1.7,0,3.3-0.3,4.7-1c0.2,0,0.3,0.2,0.3,0.5c0,0.5-0.2,1.1-0.5,1.8
			c-0.4,0.7-0.8,1.1-1.1,1.1c-0.4,0-3.2-0.2-8.5-0.7c-0.8-0.1-1.2-0.4-1.2-0.9c0.1-3.4,0.2-5.9,0.2-7.7c0-2,0-4.2-0.1-6.6
			C10,0.3,10.3,0.1,10.8,0.1z"/>
		<path class="st2" d="M43.8,12.2c-0.1,0.3-0.5,0.8-1.1,1.3c-0.6,0.6-1.1,0.9-1.4,0.9c-0.3,0-0.7-0.3-1.2-0.8
			c-1.3-1.3-2.8-2.7-4.6-4.3c-2.5-2.3-4-3.5-4.4-3.5c-0.3,0-1.4,0.9-3.2,2.7c-1.8,1.8-2.9,2.7-3.3,2.7c-0.3,0-0.5-0.1-0.7-0.3
			c-0.2-0.2-0.3-0.5-0.3-0.8c0-0.3,0.2-0.7,0.6-1c2-1.5,3.8-2.9,5.3-4.2c0.5-0.4,1-0.6,1.5-0.6c0.6,0,1.4,0.5,2.6,1.4L39,9.8
			c1.4,1.1,2.8,1.8,4.1,2.1C43.3,11.9,43.5,12,43.8,12.2z M38.3,3c0,0.2-0.2,0.4-0.5,0.7s-0.6,0.4-0.8,0.4c-0.3,0-0.7-0.4-1.3-1.3
			c-0.5-0.9-0.8-1.5-0.8-1.8c0-0.2,0.1-0.3,0.2-0.3c0.2,0,0.3,0.1,0.4,0.3c0.8,0.9,1.5,1.5,2.3,1.7C38,2.7,38.2,2.8,38.3,3z
			 M41.5,1.9C41.5,2,41.3,2.2,41,2.5C40.7,2.8,40.4,3,40.3,3c-0.4-0.1-0.9-0.5-1.6-1.2c-0.6-0.7-0.9-1.2-0.9-1.6
			C37.8,0.1,37.9,0,38,0l1.2,0.8c0.8,0.5,1.5,0.8,1.8,0.9C41.3,1.7,41.5,1.8,41.5,1.9z"/>
		<path class="st2" d="M19.8,42.6c-0.1,0.3-0.4,0.7-1.1,1.3c-0.6,0.5-1,0.8-1.4,0.9l-3.5-2.2c-0.8-0.5-1.7-1-2.6-1.4
			c-0.3,2.2-1.7,3.2-4.1,3.2c-1,0-1.9-0.2-2.7-0.7c-1-0.6-1.4-1.3-1.4-2.1c0-1,0.5-1.7,1.4-2.2c0.7-0.4,1.6-0.5,2.7-0.5
			c0.7,0,1.6,0.1,2.5,0.3c-0.1-3-0.2-5.6-0.2-7.8v-1.9c0-1,0.3-1.5,1-1.5c0.4,0,0.6,0.6,0.8,1.9c0,0.8,0,1.6,0,2.4l2.3,0
			c1.4,0,2.6,0,3.5,0.1c0.5,0,0.7,0.2,0.7,0.5c0,0.2-0.1,0.5-0.4,0.9c-0.3,0.3-0.5,0.5-0.8,0.5c-0.6-0.1-1.2-0.3-1.9-0.4
			c-0.7-0.1-1.3-0.2-1.9-0.2c-0.4,0-0.9,0-1.5,0.1v0.5c0,0.6,0,1.5,0.1,2.7c0,1.2,0,2.1,0,2.7l4.7,1.7c1,0.4,2,0.6,3,0.7
			c0.2,0,0.4,0,0.5,0.1C19.6,42.4,19.8,42.5,19.8,42.6z M9.7,40.6c-1.4-0.4-2.4-0.6-3-0.6c-0.6,0-1.2,0.1-1.6,0.3
			c-0.6,0.3-0.8,0.7-0.8,1.3c0,0.5,0.4,0.9,1.1,1.2c0.5,0.2,1.2,0.3,1.8,0.3C8.7,43.1,9.5,42.3,9.7,40.6z"/>
		<path class="st2" d="M37.8,36.6c0,1.6-0.6,3.1-1.7,4.5c-1,1.2-2.3,2.2-3.9,2.9c-1.7,0.8-3,1.2-3.8,1.2c-0.4,0-0.9-0.2-1.3-0.6
			c-0.5-0.4-0.7-0.8-0.7-1.3c0-0.2,0.7-0.4,2.1-0.5c1.8-0.2,3.5-0.8,5.1-1.9c1.9-1.3,2.8-2.7,2.8-4.4c0-2-1-3-3.1-3
			c-1.6,0-3.4,0.5-5.4,1.6c-0.3,0.2-0.8,0.4-1.5,0.8c-0.2,0-0.4-0.1-0.6-0.4c-0.1-0.2-0.2-0.5-0.2-0.7c0-0.7,1.1-1.3,3.2-1.8
			c1.7-0.4,3.1-0.6,4.1-0.6c2,0,3.4,0.7,4.2,2C37.6,35.1,37.8,35.9,37.8,36.6z M36.1,28.9c0,0.3-0.1,0.5-0.4,0.7
			c-0.2,0.2-0.5,0.3-0.8,0.3c-0.2,0-0.5-0.1-0.9-0.2c-0.3-0.1-0.9-0.1-1.9-0.1c-1.4,0-2.5,0.1-3.3,0.2c-0.1,0-0.3,0.1-0.7,0.1
			c-0.3,0.1-0.5,0.1-0.7,0.1c-0.3,0-0.4-0.2-0.4-0.6c0-0.8,0.4-1.2,1.1-1.2c0.9-0.1,2-0.1,3.4-0.1h2.1
			C35.3,28.2,36.1,28.4,36.1,28.9z"/>
	</g>
</g>
</svg>
