<?xml version="1.0" encoding="utf-8"?>
<!-- Generator: Adobe Illustrator 24.0.3, SVG Export Plug-In . SVG Version: 6.00 Build 0)  -->
<svg version="1.1" id="レイヤー_1" xmlns="http://www.w3.org/2000/svg" xmlns:xlink="http://www.w3.org/1999/xlink" x="0px"
	 y="0px" viewBox="0 0 47.5 18.2" style="enable-background:new 0 0 47.5 18.2;" xml:space="preserve">
<style type="text/css">
	.st0{display:none;}
	.st1{display:inline;}
	.st2{fill:#503819;}
</style>
<g class="st0">
	<g class="st1">
		<path class="st2" d="M14.6-13.5c0.2,0,0.5,0,0.7,0.1c0.3,0.1,0.6,0.1,1.1,0.1h3.7c0.8,0,1.8,0,3,0.1c0.2,0,0.5-0.1,0.9-0.2
			c0.5,0,0.7,0.3,0.7,0.8c0,0,0,0.1-0.1,0.3c-0.1,0.3-0.1,0.9-0.2,1.7c-0.1,1.1-0.1,2.3-0.1,3.5c0,0.9,0,2.1,0.1,3.6
			c0,0.6-0.2,0.8-0.7,0.8c-0.8-0.1-1.6-0.1-2.3-0.2c0,0,0,0,0,0.1c0,1-0.1,2.3-0.2,3.8c0,0.3,0.1,0.5,0.4,0.6c0.6,0.1,2,0.1,4.2,0.1
			c1.6,0,3-0.2,4.3-0.7c0.2,0,0.3,0.2,0.3,0.5c0,0.5-0.1,1-0.4,1.6c-0.3,0.6-0.7,1-1,1c-0.3,0-3-0.3-8.1-0.9
			c-0.8-0.1-1.2-0.5-1.2-1.1C20,0.9,20.1,0,20.1-0.7c0-0.7,0-1.4-0.1-2.1c-0.3,0-0.6,0-0.9,0c-0.3,0-0.5,0-0.7,0c0,0,0,0.1,0,0.1
			c0,0-0.1,0.1-0.1,0.2c-0.5,1-1.3,2.1-2.4,3.4c-1.2,1.1-2.4,2-3.7,2.6c-0.9,0.4-1.6,0.6-2.2,0.6C9.6,4.1,9.3,4,9,3.8
			C8.6,3.4,8.4,3,8.4,2.6c0-0.3,0.3-0.4,0.9-0.5C11,2,12.5,1.4,13.9,0.5c1.3-0.9,2.3-2,3-3.4c-0.4,0-0.7,0-0.9,0.1
			c-0.4,0-0.8,0.1-1.4,0.2c-0.5,0-0.7-0.2-0.7-0.7c0.1-1.7,0.2-3.2,0.2-4.5c0-1.4-0.1-3-0.2-4.9C13.9-13.3,14.1-13.5,14.6-13.5z
			 M19.1-4.1c1.1,0,2.3,0,3.6,0.1c0.3,0,0.4-0.1,0.4-0.3v-1.9c-3.2,0-5.7,0.1-7.5,0.2c0,0-0.1,0-0.1,0c0,0.6,0,1.1-0.1,1.6
			C15.4-4.1,15.6-4,16-4C16.9-4,17.9-4.1,19.1-4.1z M15.5-7.2c0.1,0,0.1,0,0.2,0H23c0,0,0.1,0,0.1,0v-1.9c-3.2,0-5.7,0.1-7.5,0.2h0
			C15.6-8.4,15.6-7.8,15.5-7.2z M15.6-10.2c0,0,0.1,0,0.1,0h7.4v-1.6c0-0.2-0.1-0.3-0.2-0.3c-1.6-0.1-3.8-0.1-6.8-0.1
			c-0.3,0-0.5,0.2-0.5,0.5C15.6-11.2,15.6-10.7,15.6-10.2z"/>
		<path class="st2" d="M48.8-10.4c0,0.4-0.2,0.6-0.6,0.6c-0.2,0-0.5,0-0.9-0.1C46.9-10,46.6-10,46.4-10c-2,0-3.8,0.6-5.4,1.8
			c-1.8,1.3-2.7,2.9-2.7,4.8c0,1.6,0.7,2.8,2.2,3.6c1.1,0.7,2.6,1,4.4,1c0.3,0,0.7,0,1.3-0.1c0.6-0.1,1-0.1,1.3-0.1
			c0.2,0,0.3,0.1,0.4,0.3c-0.1,0.5-0.4,1-0.9,1.5c-0.5,0.4-1.1,0.6-1.6,0.6c-2.2,0-4-0.6-5.6-1.7c-1.8-1.2-2.6-2.9-2.6-4.9
			c0-1.6,0.5-3,1.6-4.2c0.8-0.9,2.1-1.8,3.7-2.7c-3.4,0.3-6.6,0.8-9.6,1.6c-0.3,0.1-0.6,0.2-1.1,0.3c-0.5,0-0.7-0.3-0.7-0.7
			c0-0.5,0.1-0.8,0.3-1c0.2-0.2,0.7-0.4,1.5-0.5c2.3-0.3,5.4-0.6,9.2-0.9c3.2-0.2,5-0.4,5.6-0.4c0.3,0,0.6,0.1,0.8,0.4
			C48.7-11,48.8-10.7,48.8-10.4z"/>
		<path class="st2" d="M18.1,26.9c-0.1,0.3-0.4,0.7-0.9,1.2C16.6,28.7,16.2,29,16,29c0.1,0-1.1-0.6-3.3-1.8c-0.5,0.9-1.2,1.9-2,2.8
			c-1.1,1.2-2,1.8-2.6,1.8c-0.3,0-0.8-0.2-1.4-0.5c-0.6-0.4-0.9-0.7-0.9-1c0-0.1,0.5-0.3,1.5-0.5c1.7-0.5,3.2-1.6,4.2-3.3
			c-1.8-0.8-3.7-1.5-5.7-2.1c-2.5,3.1-4.4,4.6-5.7,4.6c-0.6,0-1-0.3-1.4-0.8c-0.3-0.4-0.5-0.9-0.5-1.5c0-1.4,0.7-2.4,2.1-3
			C1.3,23.3,2.6,23,4.1,23c0.1,0,0.5,0,1,0.1c0.6-0.8,1.8-2.7,3.6-5.7c-1.2,0-2.1,0.1-2.5,0.1c-0.9,0.1-1.7,0.2-2.5,0.4
			c-0.7,0.2-1.1,0.3-1.2,0.3c-0.5,0-0.8-0.2-0.8-0.5c0-0.7,0.4-1.2,1.2-1.4c1.2-0.3,2.5-0.4,3.8-0.4h2.6c1,0,1.5,0.3,1.5,0.8
			c0,0.3-0.6,1.4-1.8,3.1c-1,1.5-1.8,2.7-2.5,3.6c1.5,0.4,3.4,0.9,5.7,1.7c0.3-0.9,0.6-1.7,0.6-2.4c0-0.4,0.2-0.6,0.7-0.6
			c0.4,0,0.6,0.2,0.6,0.6c0,0.7-0.3,1.7-0.8,2.9c1.5,0.6,2.9,0.9,4.2,1.1C17.9,26.6,18,26.7,18.1,26.9z M4.3,24.2
			c-0.5,0-0.8-0.1-1-0.1c-1,0-1.8,0.2-2.6,0.6c-0.9,0.5-1.4,1.2-1.4,2.1c0,0.6,0.2,0.9,0.6,0.9C1,27.7,2.4,26.6,4.3,24.2z"/>
		<path class="st2" d="M39.6,29.1c-0.1,0.3-0.4,0.7-1.1,1.3c-0.6,0.5-1,0.8-1.4,0.9l-3.5-2.2c-0.8-0.5-1.7-1-2.6-1.4
			c-0.3,2.2-1.7,3.2-4.1,3.2c-1,0-1.9-0.2-2.7-0.7c-1-0.6-1.4-1.3-1.4-2.1c0-1,0.5-1.7,1.4-2.2c0.7-0.4,1.6-0.5,2.7-0.5
			c0.7,0,1.6,0.1,2.5,0.3c-0.1-3-0.2-5.6-0.2-7.8v-1.9c0-1,0.3-1.5,1-1.5c0.4,0,0.6,0.6,0.8,1.9c0,0.8,0,1.6,0,2.4l2.3,0
			c1.4,0,2.6,0,3.5,0.1c0.5,0,0.7,0.2,0.7,0.5c0,0.2-0.1,0.5-0.4,0.9c-0.3,0.3-0.5,0.5-0.8,0.5c-0.6-0.1-1.2-0.3-1.9-0.4
			c-0.7-0.1-1.3-0.2-1.9-0.2c-0.4,0-0.9,0-1.5,0.1v0.5c0,0.6,0,1.5,0.1,2.7c0,1.2,0,2.1,0,2.7l4.7,1.7c1,0.4,2,0.6,3,0.7
			c0.2,0,0.4,0,0.5,0.1C39.5,28.9,39.6,29,39.6,29.1z M29.5,27.2c-1.4-0.4-2.4-0.6-3-0.6c-0.6,0-1.2,0.1-1.6,0.3
			c-0.6,0.3-0.8,0.7-0.8,1.3c0,0.5,0.4,0.9,1.1,1.2c0.5,0.2,1.2,0.3,1.8,0.3C28.5,29.6,29.3,28.8,29.5,27.2z"/>
		<path class="st2" d="M57.6,23.2c0,1.6-0.6,3.1-1.7,4.5c-1,1.2-2.3,2.2-3.9,2.9c-1.7,0.8-3,1.2-3.8,1.2c-0.4,0-0.9-0.2-1.3-0.6
			c-0.5-0.4-0.7-0.8-0.7-1.3c0-0.2,0.7-0.4,2.1-0.5c1.8-0.2,3.5-0.8,5.1-1.9c1.9-1.3,2.8-2.7,2.8-4.4c0-2-1-3-3.1-3
			c-1.6,0-3.4,0.5-5.4,1.6c-0.3,0.2-0.8,0.4-1.5,0.8c-0.2,0-0.4-0.1-0.6-0.4c-0.1-0.2-0.2-0.5-0.2-0.7c0-0.7,1.1-1.3,3.2-1.8
			c1.7-0.4,3.1-0.6,4.1-0.6c2,0,3.4,0.7,4.2,2C57.4,21.7,57.6,22.4,57.6,23.2z M56,15.4c0,0.3-0.1,0.5-0.4,0.7
			c-0.2,0.2-0.5,0.3-0.8,0.3c-0.2,0-0.5-0.1-0.9-0.2c-0.3-0.1-0.9-0.1-1.9-0.1c-1.4,0-2.5,0.1-3.3,0.2c-0.1,0-0.3,0.1-0.7,0.1
			c-0.3,0.1-0.5,0.1-0.7,0.1c-0.3,0-0.4-0.2-0.4-0.6c0-0.8,0.4-1.2,1.1-1.2c0.9-0.1,2-0.1,3.4-0.1h2.1C55.1,14.8,56,15,56,15.4z"/>
	</g>
</g>
<g>
	<g>
		<path class="st2" d="M5.9,0.3c1,0,2.1,0.1,3.2,0.2c0.2,0,0.5,0,0.9-0.1c0.5,0,0.8,0.2,0.8,0.7c0,0.1-0.1,0.3-0.4,0.5
			c-0.5,0.6-1,1.1-1.5,1.7C8.1,4.2,7.1,5.2,6,6.2C4.9,7.1,3.8,7.8,2.7,8.4C2.3,8.6,2,8.7,1.7,8.7c-0.4,0-0.8-0.2-1.3-0.7
			C0.1,7.7,0,7.4,0,7.1c0-0.3,0.2-0.4,0.4-0.4C2,6.5,3.5,6,5,5c0.1-0.1,0.2-0.1,0.3-0.2c0,0-0.1,0-0.1-0.1C4.5,4.3,4,4,3.6,3.9
			C3.3,3.8,3.1,3.7,3.1,3.6c0-0.6,0.3-0.8,0.9-0.8c0.1,0,0.5,0.2,1.1,0.6C5.7,3.7,6,3.9,6.1,4.1c0.7-0.6,1.4-1.3,2.1-2
			c0.3-0.2,0.4-0.3,0.4-0.4c0-0.1-0.1-0.2-0.3-0.2c-0.8,0-1.9,0.1-3,0.3c-0.4,0-0.6-0.2-0.6-0.6C4.7,1,4.8,0.7,5,0.5
			C5.2,0.4,5.5,0.3,5.9,0.3z M7.5,6.2h9.4c0.2,0,0.4,0.1,0.4,0.3c0,0.3-0.1,0.6-0.3,0.9c-0.2,0.2-0.6,0.4-0.9,0.4
			c-0.2,0-0.7-0.1-1.6-0.2c0,0.1,0.1,0.2,0.1,0.3c0,0.9,0,1.9,0,3h4.7c0.2,0,0.4,0.1,0.4,0.3c0,0.3-0.1,0.6-0.3,0.9
			c-0.2,0.2-0.5,0.4-0.9,0.4c-0.3,0-1.2-0.1-2.6-0.2c-0.4,0-0.9,0-1.3-0.1c0,1,0,2.1-0.1,3.2c0,0.2,0.1,0.3,0.2,0.3
			c0.3,0,0.9,0.1,2,0.1c1.7,0,3.2-0.2,4.5-0.5c0.2,0,0.3,0.2,0.3,0.5c0,0.5-0.2,1-0.5,1.5c-0.3,0.6-0.7,0.9-1,0.9
			c-0.3,0-2.3-0.3-6.2-0.8c-0.6-0.1-0.9-0.4-0.9-0.9c0.1-1.8,0.1-3.3,0.1-4.4c-0.6,0-1.2,0-1.8,0c-0.5,0-0.9,0-1.4,0
			c-0.1,0.6-0.3,1.2-0.5,1.7c-0.6,1.3-1.2,2.3-2.1,3c-1.1,1-2,1.5-2.9,1.5c-0.3,0-0.6-0.1-0.8-0.4c-0.4-0.4-0.6-0.8-0.6-1.1
			c0-0.2,0.2-0.3,0.5-0.4c1-0.2,1.7-0.4,2.3-0.7c1-0.4,1.8-1.4,2.4-2.8c0.1-0.2,0.2-0.4,0.2-0.6c-1.2,0-2.1,0.1-2.8,0.2
			c-0.7,0.2-1.1,0.2-1.3,0.2c-0.6,0-0.9-0.3-0.9-0.8c0-0.2,0.2-0.5,0.4-0.7c0.2-0.1,0.6-0.2,1-0.2h3.8c0.1-0.7,0.2-1.4,0.2-2.1V7.6
			c0-0.1,0-0.1,0-0.1c-0.4,0-0.7,0.1-1,0.1C7.4,7.8,7.1,7.8,7,7.8c-0.5,0-0.8-0.3-0.8-0.7c0-0.2,0.2-0.5,0.4-0.7
			C6.8,6.3,7.1,6.2,7.5,6.2z M13,10.9c0-1-0.1-2.1-0.1-3.2c0-0.1,0-0.1,0-0.2c-0.5,0-0.9,0-1.4,0c-0.5,0-0.9,0-1.2,0
			c0,0.1,0.1,0.2,0.1,0.3c-0.1,0.7-0.2,1.5-0.3,2.4c0,0.2,0,0.5-0.1,0.7H13z M16.8,0c0.4,0,0.6,0.3,0.6,0.8c0,0.3-0.1,0.5-0.4,0.6
			l-1.6,1c0.5,0.5,1,0.8,1.5,1.2c0,0,0-0.1,0.1-0.1l1.8-1.5c0.2-0.2,0.4-0.2,0.5-0.2c0.4,0,0.6,0.3,0.6,0.8c0,0.3-0.1,0.5-0.4,0.6
			l-1.9,1c1.6,1.2,2.6,1.9,3.1,2.2c0.6,0.2,1.2,0.3,2,0.4c0.3,0,0.5,0.1,0.5,0.4c0,0.4-0.3,0.7-0.9,1.1c-0.6,0.4-1.1,0.5-1.8,0.5
			c-0.4,0-0.8-0.1-1.1-0.4c-1.4-1.7-3-3.4-4.9-5.1c-0.8-0.7-1.5-1.2-2.1-1.6c-0.3-0.2-0.5-0.4-0.5-0.7c0-0.4,0.2-0.6,0.7-0.6
			c0.3,0,0.7,0.3,1.2,0.9c0.2,0.2,0.5,0.4,0.7,0.5c0,0,0-0.1,0.1-0.1l1.6-1.6C16.5,0.1,16.7,0,16.8,0z"/>
		<path class="st2" d="M31.6,0.4c0.2,0,0.5,0,0.7,0.1c0.3,0.1,0.6,0.1,1.1,0.1h3.7c0.8,0,1.8,0,3,0.1c0.2,0,0.5-0.1,0.9-0.2
			c0.5,0,0.7,0.3,0.7,0.8c0,0,0,0.1-0.1,0.3c-0.1,0.3-0.1,0.9-0.2,1.7c-0.1,1.1-0.1,2.3-0.1,3.5c0,0.9,0,2.1,0.1,3.6
			c0,0.6-0.2,0.8-0.7,0.8c-0.8-0.1-1.6-0.1-2.3-0.2c0,0,0,0,0,0.1c0,1-0.1,2.3-0.2,3.8c0,0.3,0.1,0.5,0.4,0.6c0.6,0.1,2,0.1,4.2,0.1
			c1.6,0,3-0.2,4.3-0.7c0.2,0,0.3,0.2,0.3,0.5c0,0.5-0.1,1-0.4,1.6c-0.3,0.6-0.7,1-1,1c-0.3,0-3-0.3-8.1-0.9
			c-0.8-0.1-1.2-0.5-1.2-1.1c0.1-1.3,0.2-2.3,0.2-2.9c0-0.7,0-1.4-0.1-2.1c-0.3,0-0.6,0-0.9,0c-0.3,0-0.5,0-0.7,0c0,0,0,0.1,0,0.1
			c0,0-0.1,0.1-0.1,0.2c-0.5,1-1.3,2.1-2.4,3.4c-1.2,1.1-2.4,2-3.7,2.6c-0.9,0.4-1.6,0.6-2.2,0.6c-0.3,0-0.6-0.1-0.9-0.4
			c-0.4-0.4-0.6-0.7-0.6-1.1c0-0.3,0.3-0.4,0.9-0.5c1.6-0.2,3.2-0.7,4.6-1.6c1.3-0.9,2.3-2,3-3.4c-0.4,0-0.7,0-0.9,0.1
			c-0.4,0-0.8,0.1-1.4,0.2c-0.5,0-0.7-0.2-0.7-0.7C31,8.8,31.1,7.3,31.1,6c0-1.4-0.1-3-0.2-4.9C30.9,0.6,31.1,0.4,31.6,0.4z
			 M36.1,9.8c1.1,0,2.3,0,3.6,0.1c0.3,0,0.4-0.1,0.4-0.3V7.7c-3.2,0-5.7,0.1-7.5,0.2c0,0-0.1,0-0.1,0c0,0.6,0,1.1-0.1,1.6
			c0,0.3,0.2,0.4,0.6,0.4C33.9,9.9,34.9,9.8,36.1,9.8z M32.5,6.7c0.1,0,0.1,0,0.2,0H40c0,0,0.1,0,0.1,0V4.8c-3.2,0-5.7,0.1-7.5,0.2
			h0C32.6,5.6,32.5,6.1,32.5,6.7z M32.6,3.7c0,0,0.1,0,0.1,0h7.4V2.1c0-0.2-0.1-0.3-0.2-0.3c-1.6-0.1-3.8-0.1-6.8-0.1
			c-0.3,0-0.5,0.2-0.5,0.5C32.6,2.8,32.6,3.3,32.6,3.7z"/>
	</g>
</g>
</svg>
