<?xml version="1.0" encoding="utf-8"?>
<!-- Generator: Adobe Illustrator 24.0.3, SVG Export Plug-In . SVG Version: 6.00 Build 0)  -->
<svg version="1.1" id="レイヤー_1" xmlns="http://www.w3.org/2000/svg" xmlns:xlink="http://www.w3.org/1999/xlink" x="0px"
	 y="0px" viewBox="0 0 113 28.6" style="enable-background:new 0 0 113 28.6;" xml:space="preserve">
<style type="text/css">
	.st0{display:none;}
	.st1{display:inline;}
	.st2{fill:#503819;}
</style>
<g class="st0">
	<g class="st1">
		<path class="st2" d="M50.9-8.3c0.2,0,0.5,0,0.7,0.1c0.3,0.1,0.6,0.1,1.1,0.1h3.7c0.8,0,1.8,0,3,0.1c0.2,0,0.5-0.1,0.9-0.2
			c0.5,0,0.7,0.3,0.7,0.8c0,0,0,0.1-0.1,0.3c-0.1,0.3-0.1,0.9-0.2,1.7c-0.1,1.1-0.1,2.3-0.1,3.5c0,0.9,0,2.1,0.1,3.6
			c0,0.6-0.2,0.8-0.7,0.8c-0.8-0.1-1.6-0.1-2.3-0.2c0,0,0,0,0,0.1c0,1-0.1,2.3-0.2,3.8c0,0.3,0.1,0.5,0.4,0.6C58.6,7,60,7,62.3,7
			c1.6,0,3-0.2,4.3-0.7c0.2,0,0.3,0.2,0.3,0.5c0,0.5-0.1,1-0.4,1.6c-0.3,0.6-0.7,1-1,1c-0.3,0-3-0.3-8.1-0.9
			c-0.8-0.1-1.2-0.5-1.2-1.1c0.1-1.3,0.2-2.3,0.2-2.9c0-0.7,0-1.4-0.1-2.1c-0.3,0-0.6,0-0.9,0c-0.3,0-0.5,0-0.7,0c0,0,0,0.1,0,0.1
			c0,0-0.1,0.1-0.1,0.2c-0.5,1-1.3,2.1-2.4,3.4c-1.2,1.1-2.4,2-3.7,2.6c-0.9,0.4-1.6,0.6-2.2,0.6c-0.3,0-0.6-0.1-0.9-0.4
			c-0.4-0.4-0.6-0.7-0.6-1.1c0-0.3,0.3-0.4,0.9-0.5c1.6-0.2,3.2-0.7,4.6-1.6c1.3-0.9,2.3-2,3-3.4c-0.4,0-0.7,0-0.9,0.1
			c-0.4,0-0.8,0.1-1.4,0.2c-0.5,0-0.7-0.2-0.7-0.7c0.1-1.7,0.2-3.2,0.2-4.5c0-1.4-0.1-3-0.2-4.9C50.2-8.1,50.5-8.3,50.9-8.3z
			 M55.4,1.1c1.1,0,2.3,0,3.6,0.1c0.3,0,0.4-0.1,0.4-0.3V-1c-3.2,0-5.7,0.1-7.5,0.2c0,0-0.1,0-0.1,0c0,0.6,0,1.1-0.1,1.6
			c0,0.3,0.2,0.4,0.6,0.4C53.2,1.2,54.2,1.1,55.4,1.1z M51.9-2c0.1,0,0.1,0,0.2,0h7.3c0,0,0.1,0,0.1,0v-1.9c-3.2,0-5.7,0.1-7.5,0.2
			h0C51.9-3.2,51.9-2.6,51.9-2z M52-5c0,0,0.1,0,0.1,0h7.4v-1.6c0-0.2-0.1-0.3-0.2-0.3C57.7-7,55.4-7,52.4-7C52.1-7,52-6.8,52-6.5
			C52-6,52-5.5,52-5z"/>
		<path class="st2" d="M85.1-5.2c0,0.4-0.2,0.6-0.6,0.6c-0.2,0-0.5,0-0.9-0.1c-0.4-0.1-0.7-0.1-0.9-0.1c-2,0-3.8,0.6-5.4,1.8
			c-1.8,1.3-2.7,2.9-2.7,4.8c0,1.6,0.7,2.8,2.2,3.6c1.1,0.7,2.6,1,4.4,1c0.3,0,0.7,0,1.3-0.1c0.6-0.1,1-0.1,1.3-0.1
			c0.2,0,0.3,0.1,0.4,0.3c-0.1,0.5-0.4,1-0.9,1.5c-0.5,0.4-1.1,0.6-1.6,0.6c-2.2,0-4-0.6-5.6-1.7c-1.8-1.2-2.6-2.9-2.6-4.9
			c0-1.6,0.5-3,1.6-4.2c0.8-0.9,2.1-1.8,3.7-2.7c-3.4,0.3-6.6,0.8-9.6,1.6c-0.3,0.1-0.6,0.2-1.1,0.3c-0.5,0-0.7-0.3-0.7-0.7
			c0-0.5,0.1-0.8,0.3-1C68-4.9,68.5-5,69.3-5.1c2.3-0.3,5.4-0.6,9.2-0.9c3.2-0.2,5-0.4,5.6-0.4c0.3,0,0.6,0.1,0.8,0.4
			C85-5.8,85.1-5.5,85.1-5.2z"/>
		<path class="st2" d="M54.4,32.1c-0.1,0.3-0.4,0.7-0.9,1.2c-0.5,0.5-0.9,0.8-1.2,0.8c0.1,0-1.1-0.6-3.3-1.8c-0.5,0.9-1.2,1.9-2,2.8
			c-1.1,1.2-2,1.8-2.6,1.8c-0.3,0-0.8-0.2-1.4-0.5c-0.6-0.4-0.9-0.7-0.9-1c0-0.1,0.5-0.3,1.5-0.5c1.7-0.5,3.2-1.6,4.2-3.3
			c-1.8-0.8-3.7-1.5-5.7-2.1c-2.5,3.1-4.4,4.6-5.7,4.6c-0.6,0-1-0.3-1.4-0.8c-0.3-0.4-0.5-0.9-0.5-1.5c0-1.4,0.7-2.4,2.1-3
			c1.1-0.5,2.4-0.8,3.9-0.8c0.1,0,0.5,0,1,0.1c0.6-0.8,1.8-2.7,3.6-5.7c-1.2,0-2.1,0.1-2.5,0.1c-0.9,0.1-1.7,0.2-2.5,0.4
			c-0.7,0.2-1.1,0.3-1.2,0.3c-0.5,0-0.8-0.2-0.8-0.5c0-0.7,0.4-1.2,1.2-1.4c1.2-0.3,2.5-0.4,3.8-0.4h2.6c1,0,1.5,0.3,1.5,0.8
			c0,0.3-0.6,1.4-1.8,3.1c-1,1.5-1.8,2.7-2.5,3.6c1.5,0.4,3.4,0.9,5.7,1.7c0.3-0.9,0.6-1.7,0.6-2.4c0-0.4,0.2-0.6,0.7-0.6
			c0.4,0,0.6,0.2,0.6,0.6c0,0.7-0.3,1.7-0.8,2.9c1.5,0.6,2.9,0.9,4.2,1.1C54.2,31.8,54.4,31.9,54.4,32.1z M40.6,29.4
			c-0.5,0-0.8-0.1-1-0.1c-1,0-1.8,0.2-2.6,0.6c-0.9,0.5-1.4,1.2-1.4,2.1c0,0.6,0.2,0.9,0.6,0.9C37.3,32.9,38.8,31.8,40.6,29.4z"/>
		<path class="st2" d="M75.9,34.3c-0.1,0.3-0.4,0.7-1.1,1.3c-0.6,0.5-1,0.8-1.4,0.9L70,34.3c-0.8-0.5-1.7-1-2.6-1.4
			c-0.3,2.2-1.7,3.2-4.1,3.2c-1,0-1.9-0.2-2.7-0.7c-1-0.6-1.4-1.3-1.4-2.1c0-1,0.5-1.7,1.4-2.2c0.7-0.4,1.6-0.5,2.7-0.5
			c0.7,0,1.6,0.1,2.5,0.3c-0.1-3-0.2-5.6-0.2-7.8v-1.9c0-1,0.3-1.5,1-1.5c0.4,0,0.6,0.6,0.8,1.9c0,0.8,0,1.6,0,2.4l2.3,0
			c1.4,0,2.6,0,3.5,0.1c0.5,0,0.7,0.2,0.7,0.5c0,0.2-0.1,0.5-0.4,0.9c-0.3,0.3-0.5,0.5-0.8,0.5c-0.6-0.1-1.2-0.3-1.9-0.4
			c-0.7-0.1-1.3-0.2-1.9-0.2c-0.4,0-0.9,0-1.5,0.1v0.5c0,0.6,0,1.5,0.1,2.7c0,1.2,0,2.1,0,2.7l4.7,1.7c1,0.4,2,0.6,3,0.7
			c0.2,0,0.4,0,0.5,0.1C75.8,34.1,75.9,34.2,75.9,34.3z M65.9,32.4c-1.4-0.4-2.4-0.6-3-0.6c-0.6,0-1.2,0.1-1.6,0.3
			c-0.6,0.3-0.8,0.7-0.8,1.3c0,0.5,0.4,0.9,1.1,1.2c0.5,0.2,1.2,0.3,1.8,0.3C64.8,34.8,65.7,34,65.9,32.4z"/>
		<path class="st2" d="M93.9,28.4c0,1.6-0.6,3.1-1.7,4.5c-1,1.2-2.3,2.2-3.9,2.9c-1.7,0.8-3,1.2-3.8,1.2c-0.4,0-0.9-0.2-1.3-0.6
			c-0.5-0.4-0.7-0.8-0.7-1.3c0-0.2,0.7-0.4,2.1-0.5c1.8-0.2,3.5-0.8,5.1-1.9c1.9-1.3,2.8-2.7,2.8-4.4c0-2-1-3-3.1-3
			c-1.6,0-3.4,0.5-5.4,1.6c-0.3,0.2-0.8,0.4-1.5,0.8c-0.2,0-0.4-0.1-0.6-0.4c-0.1-0.2-0.2-0.5-0.2-0.7c0-0.7,1.1-1.3,3.2-1.8
			c1.7-0.4,3.1-0.6,4.1-0.6c2,0,3.4,0.7,4.2,2C93.7,26.9,93.9,27.6,93.9,28.4z M92.3,20.6c0,0.3-0.1,0.5-0.4,0.7
			c-0.2,0.2-0.5,0.3-0.8,0.3c-0.2,0-0.5-0.1-0.9-0.2c-0.3-0.1-0.9-0.1-1.9-0.1c-1.4,0-2.5,0.1-3.3,0.2c-0.1,0-0.3,0.1-0.7,0.1
			c-0.3,0.1-0.5,0.1-0.7,0.1c-0.3,0-0.4-0.2-0.4-0.6c0-0.8,0.4-1.2,1.1-1.2c0.9-0.1,2-0.1,3.4-0.1h2.1C91.5,20,92.3,20.2,92.3,20.6z
			"/>
	</g>
</g>
<g>
	<g>
		<path class="st2" d="M11,0.5c0.6,0,0.9,0.3,0.9,0.8c0,0.4-0.1,0.7-0.3,1.1c-1.1,1.4-2.2,2.7-3.4,4C8.5,6.6,8.6,7,8.6,7.7
			c-0.1,2.2-0.2,4.2-0.2,6L8.6,26c0,1.7-0.5,2.5-1.4,2.5c-0.7,0-1.1-0.8-1.1-2.5c0.1-5.3,0.1-9.3,0.1-12.3c0-1.6,0-3.4-0.1-5.4
			c-0.3,0.3-0.7,0.6-1,0.9c-1,0.8-1.8,1.2-2.4,1.2c-0.6,0-1.2-0.3-1.8-0.8C0.3,9.1,0,8.6,0,8.1c0-0.4,0.3-0.6,0.8-0.6
			c1.8-0.5,3.5-1.2,5-2.3c1.7-1.1,3.2-2.5,4.6-4.4C10.6,0.6,10.8,0.5,11,0.5z M14.6,7h6.7c0-1.5-0.1-3.2-0.2-5c0-1,0.4-1.6,1.2-1.6
			c0.8,0,1.2,0.5,1.2,1.6c-0.1,1.8-0.1,3.5-0.1,5h8.4c0.4,0,0.6,0.2,0.6,0.5c0,0.5-0.2,0.9-0.5,1.3c-0.4,0.3-0.8,0.5-1.4,0.5
			c-0.4,0-1.4-0.1-3-0.3C26.3,9,24.9,9,23.5,9c0.3,0.1,0.8,0.6,1.4,1.4c4.6,4.8,7.5,7.5,8.6,8.1c0.7,0.3,1.6,0.6,2.6,0.8
			c0.5,0,0.8,0.2,0.8,0.6c0,0.5-0.4,1-1.2,1.6c-0.8,0.5-1.6,0.8-2.5,0.8c-0.6,0-1.2-0.2-1.7-0.6c-1.8-2.7-3.8-5.4-6.1-8.2
			c-0.7-0.8-1.3-1.4-1.8-1.9l0.2,9.4h5.1c0.3,0,0.5,0.1,0.5,0.3c0,0.5-0.1,0.9-0.4,1.2c-0.3,0.3-0.7,0.5-1.3,0.5
			c-0.3,0-0.9,0-1.9-0.1c-0.6,0-1.2,0-1.9,0l0,3.1c0,1.7-0.5,2.5-1.4,2.5c-0.7,0-1.1-0.8-1.1-2.5c0-1.1,0-2.1,0-3.1
			c-1.7,0-2.9,0.1-3.6,0.2c-0.6,0.1-0.9,0.2-1,0.2c-0.7,0-1.1-0.4-1.1-1.1c0-0.3,0.2-0.7,0.6-1c0.3-0.2,0.7-0.3,1.3-0.3h3.9
			c0-3.7,0-6.8,0-9.4c-1.6,3-2.9,5.1-3.9,6.2c-1.4,1.6-2.9,2.9-4.7,4c-0.5,0.3-0.8,0.5-1.1,0.5c-0.8,0-1.4-0.2-1.8-0.7
			c-0.5-0.4-0.7-0.8-0.7-1.3c0-0.3,0.2-0.5,0.6-0.5c1.9-0.4,3.4-1.1,4.6-2c1-0.7,2-1.7,2.9-2.9c1-1.3,2.2-3.2,3.4-5.8
			c-2.4,0-4.1,0.2-5.3,0.4c-0.8,0.2-1.3,0.4-1.6,0.4c-0.9,0-1.3-0.4-1.4-1.2c0.1-0.4,0.3-0.7,0.7-1.1C13.4,7.1,13.9,7,14.6,7z"/>
		<path class="st2" d="M41.1,22.8c0.7,0.1,1.2,0.1,1.6,0.1c1.1,0,2.6-0.7,4.4-2c0.3,0,0.5,0.1,0.5,0.4c0,0.5-0.6,1.5-1.8,2.8
			c-1.1,1.4-2.2,2.2-3,2.2c-0.5,0-1-0.3-1.4-0.8c-0.5-0.6-0.7-1.3-0.7-2.2C40.6,23,40.8,22.8,41.1,22.8z M48.1,3.4H61
			c-0.1-1.1-0.1-1.9-0.1-2.4C60.9,0.4,61.3,0,62,0c0.7,0,1.1,0.4,1.1,1.1C63,1.6,63,2,63,2.4c0,0.4,0,0.7,0,1.1h2.4
			c-0.1-0.1-0.1-0.2-0.1-0.3c0-0.1,0.4-0.9,1.3-2.5c0.2-0.3,0.6-0.5,1.1-0.5c0.6,0,0.9,0.3,0.9,0.8c0,0.5,0,0.8-0.1,0.9
			c-1.1,0.8-1.8,1.3-2.2,1.6h4.7c0.4,0,0.6,0.1,0.6,0.2c0,0.6-0.2,1.1-0.5,1.5c-0.4,0.5-0.8,0.7-1.4,0.7c-0.6,0-1.9-0.1-4.1-0.4
			c-0.8,0-1.6-0.1-2.5-0.1c0.1,0.7,0.1,1.3,0.2,1.9c0.3,1.5,0.9,2.7,1.6,3.8c0.2,0.2,0.3,0.4,0.5,0.6c1-1.1,1.8-2.5,2.4-4.2
			C67.9,7.2,68.1,7,68.6,7c0.6,0,1,0.3,1,0.9c-0.1,0-0.1,0.1-0.1,0.3c-0.5,1.3-1.2,2.8-2.2,4.5c-0.1,0.2-0.3,0.4-0.4,0.5
			c0.5,0.5,1.1,0.9,1.7,1.2c1,0.6,2.4,1.1,4.1,1.4c0.4,0.1,0.6,0.3,0.6,0.6c0,0.5-0.3,1-0.8,1.6c-0.6,0.6-1.2,0.9-1.7,0.9
			c-0.3,0-0.9-0.2-1.6-0.6c-1.5-0.8-2.8-1.9-4-3.2c-0.5,0.4-0.9,0.8-1.3,1.1c-0.8,0.6-1.5,0.8-2,0.8c-0.4,0-0.8-0.2-1.2-0.5
			c-0.6-0.5-0.8-1-0.8-1.6c0-0.4,0.4-0.7,1.1-0.8c1-0.2,1.9-0.5,2.7-1c-0.6-0.9-1.1-1.9-1.4-2.9c-0.5-1.2-0.8-2.8-1-5
			c-1,0-1.9,0-2.9,0c-4.1,0-7,0.1-8.8,0.2c-0.9,0.1-1.5,0.1-1.8,0.1c0,0.1,0,0.1,0,0.2l0,3.4c0,1.9-0.2,3.4-0.6,4.6
			c-0.5,1.3-1.2,2.4-2.1,3.4c-0.6,0.6-1,0.8-1.4,0.8c-0.6,0-1.3-0.3-2.1-1c-0.6-0.5-0.8-0.9-0.8-1.3c0-0.5,0.3-0.7,0.8-0.8
			c0.6-0.1,1.1-0.3,1.6-0.5c0.8-0.4,1.5-1.2,1.9-2.4c0.4-1,0.6-2.3,0.6-3.8c0-0.9-0.1-2.2-0.3-3.9c0-0.8,0.4-1.2,1.1-1.2
			c0.5,0,0.9,0.1,1.1,0.4C47.7,3.5,47.9,3.4,48.1,3.4z M50.4,7h8.3c0.3,0,0.5,0.2,0.5,0.6c0,0.3-0.1,0.5-0.4,0.7
			c-0.3,0.3-0.6,0.5-1,0.5c-0.9-0.2-2.2-0.3-4.1-0.3c-0.9,0-2.1,0.2-3.6,0.5c-0.7,0-1.1-0.3-1.1-0.8c0-0.3,0.2-0.6,0.5-0.9
			C49.8,7.2,50.1,7,50.4,7z M50.6,10.5c0.3,0,0.7,0,1,0.1c0.3,0.1,0.8,0.1,1.5,0.1H55c0.4,0,0.9,0.1,1.6,0.2c0.3,0,0.7-0.1,1.2-0.2
			c0.7,0,1.1,0.4,1.1,1.1c0,0,0,0.1-0.1,0.2c-0.1,0.2-0.2,0.5-0.2,1c-0.1,0.6-0.1,1.3-0.1,2c0,0.3,0,0.8,0.1,1.4
			c0,0.7-0.3,1.1-0.9,1.1c-1.4-0.2-2.7-0.3-3.9-0.3c-1.2,0-2,0.1-2.3,0.2c-0.3,0-0.6,0.1-1,0.3c-0.6,0-0.9-0.4-0.9-1.1
			c0.2-1,0.3-1.9,0.3-2.6c0-0.6-0.1-1.3-0.3-2.2C49.5,10.8,49.9,10.5,50.6,10.5z M52.8,18.9c0.9,0,1.4,0.4,1.4,1.1
			c0,0.4-0.5,1.3-1.4,2.8c-0.2,0.2-0.3,0.3-0.3,0.4c0,0.2,0.2,0.3,0.6,0.3c3.8,0,7.5,0.3,11.1,1c1.2,0.2,2.4,0.3,3.7,0.3
			c1.1,0,2.4-0.2,3.7-0.6c0.7-0.3,1.2-0.4,1.3-0.4c0.4,0,0.6,0.2,0.6,0.6c0,0.7-0.3,1.6-1,2.5c-0.7,1.1-1.4,1.7-2.2,1.7
			c-0.7,0-2.1-0.3-4.1-1c-4.4-1.4-8.7-2.2-12.9-2.2c-0.8,0-1.7,0.1-2.6,0.3c-0.8,0-1.2-0.3-1.2-1c0-0.2,0.2-0.6,0.7-1.2
			c0.9-1.1,1.4-2.3,1.6-3.6C52,19.3,52.3,18.9,52.8,18.9z M53.7,15.5c0.7,0,1.4,0.1,2.2,0.2c0.4,0,0.6-0.2,0.6-0.6v-2.2
			c0-0.2-0.1-0.3-0.3-0.3c-0.8-0.1-2-0.2-3.6-0.2c-0.4,0-0.6,0.2-0.6,0.6c0,0.7-0.1,1.3-0.3,1.9c0,0.5,0.3,0.8,0.8,0.8
			C52.8,15.5,53.2,15.5,53.7,15.5z M60.8,18.3c0.7,0,1.1,0.3,1.1,1c0,0.5,0,0.8-0.1,0.9c-1.5,1.3-2.4,1.9-2.5,1.9
			c-0.4,0-0.6-0.2-0.6-0.5c0-0.1,0.4-1,1.1-2.6C59.9,18.5,60.3,18.3,60.8,18.3z M66.4,19.2c0.7,0,1.1,0.3,1.1,0.9
			c0,0.5-0.1,0.8-0.2,1c-1.8,1.3-2.8,2-3,2c-0.4,0-0.6-0.1-0.6-0.4c0-0.1,0.5-1.1,1.6-2.8C65.5,19.4,65.9,19.2,66.4,19.2z"/>
		<path class="st2" d="M87.7,18.3h6.6l-0.1-1.9c0-0.9,0.4-1.4,1.3-1.4c1,0,1.6,0.5,1.6,1.4L97,18.3h7.6c0.4,0,0.6,0.2,0.6,0.5
			c0,0.5-0.2,0.9-0.5,1.3c-0.4,0.4-0.8,0.6-1.4,0.6c-0.4,0-1.4-0.1-3-0.4c-1.1-0.1-2.2-0.1-3.4-0.1l-0.1,3.6
			c2.2,0.1,4.6,0.2,7.2,0.5c2.5,0.2,4.8,0.3,7.1,0.3c0.6,0,1.2,0,1.7-0.1c0.1,0,0.2,0.1,0.2,0.4c0,0.7-0.2,1.3-0.5,2
			c-0.4,0.7-0.8,1.1-1.2,1.1c-0.7,0-1.3-0.1-2-0.4c-2.7-0.8-5.2-1.4-7.5-1.6c-1.8-0.2-4-0.3-6.6-0.3c-2.9,0-5.4,0.2-7.6,0.5
			c-2.3,0.5-4.5,1.1-6.7,1.9c-0.7,0.2-1.2,0.4-1.6,0.4c-0.7-0.1-1.1-0.5-1.1-1.2c0-0.4,0.2-0.8,0.6-1.1c0.3-0.3,0.8-0.5,1.3-0.6
			c6.6-1.1,11.4-1.6,14.5-1.7l-0.1-3.6c-2.7,0-4.7,0.1-6,0.3c-0.8,0.2-1.3,0.3-1.5,0.3c-0.8-0.1-1.2-0.4-1.3-1.1
			c0.1-0.4,0.3-0.7,0.6-1C86.6,18.4,87.1,18.3,87.7,18.3z M84.2,1.1h12.7c0.4,0,0.6,0.2,0.6,0.5c0,0.5-0.1,0.9-0.4,1.3
			c-0.4,0.4-0.8,0.6-1.4,0.6c-0.2,0-0.7-0.1-1.4-0.2c0,0.1,0,0.1,0,0.2c-0.1,1.3-0.2,2.4-0.2,3.4V7h3.4c0.4,0,0.6,0.2,0.6,0.5
			c0,0.5-0.2,0.9-0.5,1.3c-0.4,0.3-0.8,0.5-1.4,0.5c-0.3,0-1-0.1-2.1-0.2l0.1,3.7c0,1.6-0.4,2.4-1.2,2.4c-0.7,0-1.1-0.8-1.1-2.4
			C92,11.3,92,10.1,92,9c-0.9,0-1.9,0-2.9,0c-0.3,0-0.6,0-0.9,0c-0.1,2.7-0.7,4.6-1.9,5.7c-1.3,1.3-2.6,2-3.8,2
			c-0.6,0-1.2-0.3-1.8-1c-0.3-0.4-0.5-0.8-0.5-1.2c0-0.2,0.2-0.3,0.6-0.4c1.8-0.1,3.2-0.7,4.3-1.9c0.6-0.6,0.9-1.7,1-3.2
			c-1.3,0.1-2.2,0.1-3,0.3c-0.7,0.2-1.1,0.3-1.3,0.3c-0.8,0-1.2-0.4-1.3-1.1c0.1-0.4,0.3-0.7,0.6-1.1C81.6,7.1,82.1,7,82.7,7h3.6
			c0-1.3-0.1-2.6-0.3-3.9c-0.5,0.1-0.9,0.1-1.3,0.2c-0.6,0.2-1,0.3-1.2,0.3c-0.8-0.1-1.2-0.4-1.2-1.1c0-0.4,0.2-0.8,0.6-1.1
			C83.2,1.2,83.7,1.1,84.2,1.1z M92,7c0-0.1,0-0.1,0-0.2c0-1,0-2.1-0.1-3.4c0-0.2,0-0.3,0-0.4c-0.7,0-1.5,0-2.3,0c-0.5,0-1,0-1.4,0
			c0,0.1,0,0.3,0,0.4c0,1.5-0.1,2.7-0.1,3.6H92z M101.8,2.5c0.7,0,1.1,0.5,1.1,1.4c-0.1,0.7-0.2,1.4-0.2,2l0.2,2.8
			c0,1.5-0.4,2.2-1.2,2.2c-0.6,0-0.9-0.7-0.9-2.2c0.1-1.2,0.1-2.1,0.1-2.8c0-0.6,0-1.3-0.1-2C100.7,3,101,2.5,101.8,2.5z M108.6,0.3
			c0.8,0,1.2,0.4,1.2,1.2c0,0.2-0.1,0.5-0.2,0.8c-0.1,0.8-0.2,1.5-0.2,2.1c0.1,3,0.2,5.3,0.2,6.9c0,1.9-0.6,3.2-1.7,3.7
			c-0.7,0.3-1.4,0.5-2,0.5c-0.6,0-1-0.2-1.4-0.5c-0.5-0.4-0.7-0.9-0.7-1.5c0-0.3,0.2-0.5,0.6-0.6c1.2-0.1,2-0.3,2.3-0.5
			c0.4-0.2,0.7-0.6,0.8-1c0.1-0.4,0.2-1.2,0.2-2.4c0-1.5-0.1-3.1-0.2-4.6c-0.1-1.4-0.1-2.2-0.1-2.6C107.4,0.8,107.8,0.3,108.6,0.3z"
			/>
	</g>
</g>
</svg>
