<?xml version="1.0" encoding="utf-8"?>
<!-- Generator: Adobe Illustrator 24.0.3, SVG Export Plug-In . SVG Version: 6.00 Build 0)  -->
<svg version="1.1" id="レイヤー_1" xmlns="http://www.w3.org/2000/svg" xmlns:xlink="http://www.w3.org/1999/xlink" x="0px"
	 y="0px" viewBox="0 0 113.1 28.6" style="enable-background:new 0 0 113.1 28.6;" xml:space="preserve">
<style type="text/css">
	.st0{display:none;}
	.st1{display:inline;}
	.st2{fill:#503819;}
</style>
<g class="st0">
	<g class="st1">
		<path class="st2" d="M50.8-8.3c0.2,0,0.5,0,0.7,0.1c0.3,0.1,0.6,0.1,1.1,0.1h3.7c0.8,0,1.8,0,3,0.1c0.2,0,0.5-0.1,0.9-0.2
			c0.5,0,0.7,0.3,0.7,0.8c0,0,0,0.1-0.1,0.3c-0.1,0.3-0.1,0.9-0.2,1.7c-0.1,1.1-0.1,2.3-0.1,3.5c0,0.9,0,2.1,0.1,3.6
			c0,0.6-0.2,0.8-0.7,0.8c-0.8-0.1-1.6-0.1-2.3-0.2c0,0,0,0,0,0.1c0,1-0.1,2.3-0.2,3.8c0,0.3,0.1,0.5,0.4,0.6C58.5,7,59.9,7,62.2,7
			c1.6,0,3-0.2,4.3-0.7c0.2,0,0.3,0.2,0.3,0.5c0,0.5-0.1,1-0.4,1.6c-0.3,0.6-0.7,1-1,1c-0.3,0-3-0.3-8.1-0.9
			c-0.8-0.1-1.2-0.5-1.2-1.1c0.1-1.3,0.2-2.3,0.2-2.9c0-0.7,0-1.4-0.1-2.1c-0.3,0-0.6,0-0.9,0c-0.3,0-0.5,0-0.7,0c0,0,0,0.1,0,0.1
			c0,0-0.1,0.1-0.1,0.2c-0.5,1-1.3,2.1-2.4,3.4c-1.2,1.1-2.4,2-3.7,2.6c-0.9,0.4-1.6,0.6-2.2,0.6c-0.3,0-0.6-0.1-0.9-0.4
			c-0.4-0.4-0.6-0.7-0.6-1.1c0-0.3,0.3-0.4,0.9-0.5c1.6-0.2,3.2-0.7,4.6-1.6c1.3-0.9,2.3-2,3-3.4c-0.4,0-0.7,0-0.9,0.1
			c-0.4,0-0.8,0.1-1.4,0.2c-0.5,0-0.7-0.2-0.7-0.7c0.1-1.7,0.2-3.2,0.2-4.5c0-1.4-0.1-3-0.2-4.9C50.1-8.1,50.3-8.3,50.8-8.3z
			 M55.3,1.1c1.1,0,2.3,0,3.6,0.1c0.3,0,0.4-0.1,0.4-0.3V-1c-3.2,0-5.7,0.1-7.5,0.2c0,0-0.1,0-0.1,0c0,0.6,0,1.1-0.1,1.6
			c0,0.3,0.2,0.4,0.6,0.4C53.1,1.2,54.1,1.1,55.3,1.1z M51.7-2c0.1,0,0.1,0,0.2,0h7.3c0,0,0.1,0,0.1,0v-1.9c-3.2,0-5.7,0.1-7.5,0.2
			h0C51.8-3.2,51.8-2.6,51.7-2z M51.8-5c0,0,0.1,0,0.1,0h7.4v-1.6c0-0.2-0.1-0.3-0.2-0.3C57.6-7,55.3-7,52.3-7
			c-0.3,0-0.5,0.2-0.5,0.5C51.8-6,51.8-5.5,51.8-5z"/>
		<path class="st2" d="M85-5.2c0,0.4-0.2,0.6-0.6,0.6c-0.2,0-0.5,0-0.9-0.1c-0.4-0.1-0.7-0.1-0.9-0.1c-2,0-3.8,0.6-5.4,1.8
			c-1.8,1.3-2.7,2.9-2.7,4.8c0,1.6,0.7,2.8,2.2,3.6c1.1,0.7,2.6,1,4.4,1c0.3,0,0.7,0,1.3-0.1c0.6-0.1,1-0.1,1.3-0.1
			c0.2,0,0.3,0.1,0.4,0.3C84,7,83.6,7.5,83.1,8c-0.5,0.4-1.1,0.6-1.6,0.6c-2.2,0-4-0.6-5.6-1.7c-1.8-1.2-2.6-2.9-2.6-4.9
			c0-1.6,0.5-3,1.6-4.2C75.8-3.1,77-4,78.7-4.8c-3.4,0.3-6.6,0.8-9.6,1.6c-0.3,0.1-0.6,0.2-1.1,0.3c-0.5,0-0.7-0.3-0.7-0.7
			c0-0.5,0.1-0.8,0.3-1c0.2-0.2,0.7-0.4,1.5-0.5c2.3-0.3,5.4-0.6,9.2-0.9c3.2-0.2,5-0.4,5.6-0.4c0.3,0,0.6,0.1,0.8,0.4
			C84.9-5.8,85-5.5,85-5.2z"/>
		<path class="st2" d="M54.3,32.1c-0.1,0.3-0.4,0.7-0.9,1.2c-0.5,0.5-0.9,0.8-1.2,0.8c0.1,0-1.1-0.6-3.3-1.8c-0.5,0.9-1.2,1.9-2,2.8
			c-1.1,1.2-2,1.8-2.6,1.8c-0.3,0-0.8-0.2-1.4-0.5c-0.6-0.4-0.9-0.7-0.9-1c0-0.1,0.5-0.3,1.5-0.5c1.7-0.5,3.2-1.6,4.2-3.3
			c-1.8-0.8-3.7-1.5-5.7-2.1c-2.5,3.1-4.4,4.6-5.7,4.6c-0.6,0-1-0.3-1.4-0.8c-0.3-0.4-0.5-0.9-0.5-1.5c0-1.4,0.7-2.4,2.1-3
			c1.1-0.5,2.4-0.8,3.9-0.8c0.1,0,0.5,0,1,0.1c0.6-0.8,1.8-2.7,3.6-5.7c-1.2,0-2.1,0.1-2.5,0.1c-0.9,0.1-1.7,0.2-2.5,0.4
			c-0.7,0.2-1.1,0.3-1.2,0.3c-0.5,0-0.8-0.2-0.8-0.5c0-0.7,0.4-1.2,1.2-1.4c1.2-0.3,2.5-0.4,3.8-0.4h2.6c1,0,1.5,0.3,1.5,0.8
			c0,0.3-0.6,1.4-1.8,3.1c-1,1.5-1.8,2.7-2.5,3.6c1.5,0.4,3.4,0.9,5.7,1.7c0.3-0.9,0.6-1.7,0.6-2.4c0-0.4,0.2-0.6,0.7-0.6
			c0.4,0,0.6,0.2,0.6,0.6c0,0.7-0.3,1.7-0.8,2.9c1.5,0.6,2.9,0.9,4.2,1.1C54.1,31.8,54.2,31.9,54.3,32.1z M40.5,29.4
			c-0.5,0-0.8-0.1-1-0.1c-1,0-1.8,0.2-2.6,0.6c-0.9,0.5-1.4,1.2-1.4,2.1c0,0.6,0.2,0.9,0.6,0.9C37.2,32.9,38.6,31.8,40.5,29.4z"/>
		<path class="st2" d="M75.8,34.3c-0.1,0.3-0.4,0.7-1.1,1.3c-0.6,0.5-1,0.8-1.4,0.9l-3.5-2.2c-0.8-0.5-1.7-1-2.6-1.4
			c-0.3,2.2-1.7,3.2-4.1,3.2c-1,0-1.9-0.2-2.7-0.7c-1-0.6-1.4-1.3-1.4-2.1c0-1,0.5-1.7,1.4-2.2c0.7-0.4,1.6-0.5,2.7-0.5
			c0.7,0,1.6,0.1,2.5,0.3c-0.1-3-0.2-5.6-0.2-7.8v-1.9c0-1,0.3-1.5,1-1.5c0.4,0,0.6,0.6,0.8,1.9c0,0.8,0,1.6,0,2.4l2.3,0
			c1.4,0,2.6,0,3.5,0.1c0.5,0,0.7,0.2,0.7,0.5c0,0.2-0.1,0.5-0.4,0.9c-0.3,0.3-0.5,0.5-0.8,0.5c-0.6-0.1-1.2-0.3-1.9-0.4
			c-0.7-0.1-1.3-0.2-1.9-0.2c-0.4,0-0.9,0-1.5,0.1v0.5c0,0.6,0,1.5,0.1,2.7c0,1.2,0,2.1,0,2.7l4.7,1.7c1,0.4,2,0.6,3,0.7
			c0.2,0,0.4,0,0.5,0.1C75.7,34.1,75.8,34.2,75.8,34.3z M65.7,32.4c-1.4-0.4-2.4-0.6-3-0.6c-0.6,0-1.2,0.1-1.6,0.3
			c-0.6,0.3-0.8,0.7-0.8,1.3c0,0.5,0.4,0.9,1.1,1.2c0.5,0.2,1.2,0.3,1.8,0.3C64.7,34.8,65.5,34,65.7,32.4z"/>
		<path class="st2" d="M93.8,28.4c0,1.6-0.6,3.1-1.7,4.5c-1,1.2-2.3,2.2-3.9,2.9c-1.7,0.8-3,1.2-3.8,1.2c-0.4,0-0.9-0.2-1.3-0.6
			c-0.5-0.4-0.7-0.8-0.7-1.3c0-0.2,0.7-0.4,2.1-0.5c1.8-0.2,3.5-0.8,5.1-1.9c1.9-1.3,2.8-2.7,2.8-4.4c0-2-1-3-3.1-3
			c-1.6,0-3.4,0.5-5.4,1.6c-0.3,0.2-0.8,0.4-1.5,0.8c-0.2,0-0.4-0.1-0.6-0.4c-0.1-0.2-0.2-0.5-0.2-0.7c0-0.7,1.1-1.3,3.2-1.8
			c1.7-0.4,3.1-0.6,4.1-0.6c2,0,3.4,0.7,4.2,2C93.6,26.9,93.8,27.6,93.8,28.4z M92.2,20.6c0,0.3-0.1,0.5-0.4,0.7
			c-0.2,0.2-0.5,0.3-0.8,0.3c-0.2,0-0.5-0.1-0.9-0.2c-0.3-0.1-0.9-0.1-1.9-0.1c-1.4,0-2.5,0.1-3.3,0.2c-0.1,0-0.3,0.1-0.7,0.1
			c-0.3,0.1-0.5,0.1-0.7,0.1c-0.3,0-0.4-0.2-0.4-0.6c0-0.8,0.4-1.2,1.1-1.2c0.9-0.1,2-0.1,3.4-0.1h2.1C91.3,20,92.2,20.2,92.2,20.6z
			"/>
	</g>
</g>
<g>
	<g>
		<path class="st2" d="M8,6.7h3.9l-0.2-4.4c0-0.9,0.4-1.3,1.2-1.3c1,0,1.4,0.4,1.4,1.3l-0.1,4.4H22l-0.1-4.4c0-0.9,0.4-1.3,1.2-1.3
			c1,0,1.4,0.4,1.4,1.3l-0.1,4.4h4.8c0.4,0,0.6,0.2,0.6,0.5c0,0.5-0.1,0.9-0.4,1.3C29,8.9,28.6,9.1,28,9.1c-0.5,0-1.7-0.1-3.6-0.3
			l-0.2,7.2c0.8,0.1,1.5,0.2,2.3,0.3c2.5,0.3,4.8,0.5,7,0.5c0.6,0,1.3-0.1,1.9-0.2c0.1,0,0.2,0.2,0.2,0.5c0,0.7-0.2,1.5-0.6,2.2
			c-0.4,0.8-0.9,1.2-1.3,1.2c-0.7,0-1.3-0.2-2-0.5c-2.6-1.1-5.1-1.8-7.4-2.1c-1.8-0.2-4-0.4-6.5-0.4c-3,0-5.7,0.2-7.9,0.6
			c-2.4,0.5-4.7,1.2-7,2.1c-0.7,0.3-1.2,0.4-1.7,0.4c-0.8-0.1-1.2-0.5-1.2-1.4c0-0.4,0.2-0.8,0.6-1.2C1,17.7,1.5,17.4,2,17.4
			c4-0.7,7.4-1.2,10.1-1.5l-0.2-7.2C10.8,8.8,9.8,8.9,9.1,9c-1,0.2-1.6,0.4-1.9,0.4c-0.9,0-1.3-0.4-1.4-1.2c0-0.4,0.3-0.7,0.7-1.1
			C6.9,6.8,7.3,6.7,8,6.7z M7.2,23.4c0.7,0.1,1.2,0.2,1.6,0.2c1.3,0,2.8-0.6,4.7-1.7c0.3,0,0.5,0.2,0.5,0.5c0,0.5-0.6,1.3-1.9,2.6
			c-1.3,1.4-2.3,2-3.3,2c-0.5,0-1-0.3-1.4-0.8c-0.5-0.6-0.7-1.3-0.7-2.2C6.7,23.7,6.9,23.4,7.2,23.4z M14.2,15.7
			c1.4-0.1,2.6-0.2,3.6-0.2c1.4,0,2.8,0.1,4.4,0.2l-0.2-7c-1.5,0-3.1,0-4.7,0c-1.1,0-2.1,0-3,0L14.2,15.7z M22.8,21.9
			c0,0,0.1,0,0.2,0.1c1.4,1,2.5,1.6,3.3,2c0.6,0.2,1.3,0.4,2.2,0.4c0.3,0,0.5,0.1,0.5,0.4c0,0.5-0.3,1-0.9,1.4
			c-1.1,0.7-1.9,1.1-2.6,1.1c-0.2,0-0.4-0.1-0.6-0.4c-0.3-0.4-1.2-1.7-2.5-4c-0.1-0.2-0.2-0.3-0.2-0.5
			C22.4,22.1,22.5,21.9,22.8,21.9z"/>
		<path class="st2" d="M41.1,22.8c0.7,0.1,1.2,0.1,1.6,0.1c1.1,0,2.6-0.7,4.4-2c0.3,0,0.5,0.1,0.5,0.4c0,0.5-0.6,1.5-1.8,2.8
			c-1.1,1.4-2.2,2.2-3,2.2c-0.5,0-1-0.3-1.4-0.8c-0.5-0.6-0.7-1.3-0.7-2.2C40.6,23,40.8,22.8,41.1,22.8z M48.2,3.4h12.9
			C61,2.3,61,1.5,61,1.1C61,0.4,61.4,0,62,0c0.7,0,1.1,0.4,1.1,1.1C63.1,1.6,63,2,63,2.4c0,0.4,0,0.7,0,1.1h2.4
			c-0.1-0.1-0.1-0.2-0.1-0.3c0-0.1,0.4-0.9,1.3-2.5c0.2-0.3,0.6-0.5,1.1-0.5c0.6,0,0.9,0.3,0.9,0.8c0,0.5,0,0.8-0.1,0.9
			c-1.1,0.8-1.8,1.3-2.2,1.6H71c0.4,0,0.6,0.1,0.6,0.2c0,0.6-0.2,1.1-0.5,1.5c-0.4,0.5-0.8,0.7-1.4,0.7c-0.6,0-1.9-0.1-4.1-0.4
			c-0.8,0-1.6-0.1-2.5-0.1c0.1,0.7,0.1,1.3,0.2,1.9c0.3,1.5,0.9,2.7,1.6,3.8c0.2,0.2,0.3,0.4,0.5,0.6c1-1.1,1.8-2.5,2.4-4.2
			C67.9,7.2,68.2,7,68.6,7c0.6,0,1,0.3,1,0.9c-0.1,0-0.1,0.1-0.1,0.3c-0.5,1.3-1.2,2.8-2.2,4.5c-0.1,0.2-0.3,0.4-0.4,0.5
			c0.5,0.5,1.1,0.9,1.7,1.2c1,0.6,2.4,1.1,4.1,1.4c0.4,0.1,0.6,0.3,0.6,0.6c0,0.5-0.3,1-0.8,1.6c-0.6,0.6-1.2,0.9-1.7,0.9
			c-0.3,0-0.9-0.2-1.6-0.6c-1.5-0.8-2.8-1.9-4-3.2c-0.5,0.4-0.9,0.8-1.3,1.1c-0.8,0.6-1.5,0.8-2,0.8c-0.4,0-0.8-0.2-1.2-0.5
			c-0.6-0.5-0.8-1-0.8-1.6c0-0.4,0.4-0.7,1.1-0.8c1-0.2,1.9-0.5,2.7-1c-0.6-0.9-1.1-1.9-1.4-2.9c-0.5-1.2-0.8-2.8-1-5
			c-1,0-1.9,0-2.9,0c-4.1,0-7,0.1-8.8,0.2c-0.9,0.1-1.5,0.1-1.8,0.1c0,0.1,0,0.1,0,0.2l0,3.4c0,1.9-0.2,3.4-0.6,4.6
			c-0.5,1.3-1.2,2.4-2.1,3.4c-0.6,0.6-1,0.8-1.4,0.8c-0.6,0-1.3-0.3-2.1-1c-0.6-0.5-0.8-0.9-0.8-1.3c0-0.5,0.3-0.7,0.8-0.8
			c0.6-0.1,1.1-0.3,1.6-0.5c0.8-0.4,1.5-1.2,1.9-2.4c0.4-1,0.6-2.3,0.6-3.8c0-0.9-0.1-2.2-0.3-3.9c0-0.8,0.4-1.2,1.1-1.2
			c0.5,0,0.9,0.1,1.1,0.4C47.7,3.5,47.9,3.4,48.2,3.4z M50.5,7h8.3c0.3,0,0.5,0.2,0.5,0.6c0,0.3-0.1,0.5-0.4,0.7
			c-0.3,0.3-0.6,0.5-1,0.5c-0.9-0.2-2.2-0.3-4.1-0.3c-0.9,0-2.1,0.2-3.6,0.5c-0.7,0-1.1-0.3-1.1-0.8c0-0.3,0.2-0.6,0.5-0.9
			C49.8,7.2,50.1,7,50.5,7z M50.6,10.5c0.3,0,0.7,0,1,0.1c0.3,0.1,0.8,0.1,1.5,0.1H55c0.4,0,0.9,0.1,1.6,0.2c0.3,0,0.7-0.1,1.2-0.2
			c0.7,0,1.1,0.4,1.1,1.1c0,0,0,0.1-0.1,0.2c-0.1,0.2-0.2,0.5-0.2,1c-0.1,0.6-0.1,1.3-0.1,2c0,0.3,0,0.8,0.1,1.4
			c0,0.7-0.3,1.1-0.9,1.1c-1.4-0.2-2.7-0.3-3.9-0.3c-1.2,0-2,0.1-2.3,0.2c-0.3,0-0.6,0.1-1,0.3c-0.6,0-0.9-0.4-0.9-1.1
			c0.2-1,0.3-1.9,0.3-2.6c0-0.6-0.1-1.3-0.3-2.2C49.6,10.8,49.9,10.5,50.6,10.5z M52.8,18.9c0.9,0,1.4,0.4,1.4,1.1
			c0,0.4-0.5,1.3-1.4,2.8c-0.2,0.2-0.3,0.3-0.3,0.4c0,0.2,0.2,0.3,0.6,0.3c3.8,0,7.5,0.3,11.1,1c1.2,0.2,2.4,0.3,3.7,0.3
			c1.1,0,2.4-0.2,3.7-0.6c0.7-0.3,1.2-0.4,1.3-0.4c0.4,0,0.6,0.2,0.6,0.6c0,0.7-0.3,1.6-1,2.5c-0.7,1.1-1.4,1.7-2.2,1.7
			c-0.7,0-2.1-0.3-4.1-1c-4.4-1.4-8.7-2.2-12.9-2.2c-0.8,0-1.7,0.1-2.6,0.3c-0.8,0-1.2-0.3-1.2-1c0-0.2,0.2-0.6,0.7-1.2
			c0.9-1.1,1.4-2.3,1.6-3.6C52,19.3,52.4,18.9,52.8,18.9z M53.8,15.5c0.7,0,1.4,0.1,2.2,0.2c0.4,0,0.6-0.2,0.6-0.6v-2.2
			c0-0.2-0.1-0.3-0.3-0.3c-0.8-0.1-2-0.2-3.6-0.2c-0.4,0-0.6,0.2-0.6,0.6c0,0.7-0.1,1.3-0.3,1.9c0,0.5,0.3,0.8,0.8,0.8
			C52.9,15.5,53.3,15.5,53.8,15.5z M60.8,18.3c0.7,0,1.1,0.3,1.1,1c0,0.5,0,0.8-0.1,0.9c-1.5,1.3-2.4,1.9-2.5,1.9
			c-0.4,0-0.6-0.2-0.6-0.5c0-0.1,0.4-1,1.1-2.6C60,18.5,60.3,18.3,60.8,18.3z M66.4,19.2c0.7,0,1.1,0.3,1.1,0.9c0,0.5-0.1,0.8-0.2,1
			c-1.8,1.3-2.8,2-3,2c-0.4,0-0.6-0.1-0.6-0.4c0-0.1,0.5-1.1,1.6-2.8C65.6,19.4,66,19.2,66.4,19.2z"/>
		<path class="st2" d="M87.7,18.3h6.6l-0.1-1.9c0-0.9,0.4-1.4,1.3-1.4c1,0,1.6,0.5,1.6,1.4l-0.1,1.9h7.6c0.4,0,0.6,0.2,0.6,0.5
			c0,0.5-0.2,0.9-0.5,1.3c-0.4,0.4-0.8,0.6-1.4,0.6c-0.4,0-1.4-0.1-3-0.4c-1.1-0.1-2.2-0.1-3.4-0.1l-0.1,3.6
			c2.2,0.1,4.6,0.2,7.2,0.5c2.5,0.2,4.8,0.3,7.1,0.3c0.6,0,1.2,0,1.7-0.1c0.1,0,0.2,0.1,0.2,0.4c0,0.7-0.2,1.3-0.5,2
			c-0.4,0.7-0.8,1.1-1.2,1.1c-0.7,0-1.3-0.1-2-0.4c-2.7-0.8-5.2-1.4-7.5-1.6c-1.8-0.2-4-0.3-6.6-0.3c-2.9,0-5.4,0.2-7.6,0.5
			c-2.3,0.5-4.5,1.1-6.7,1.9c-0.7,0.2-1.2,0.4-1.6,0.4c-0.7-0.1-1.1-0.5-1.1-1.2c0-0.4,0.2-0.8,0.6-1.1c0.3-0.3,0.8-0.5,1.3-0.6
			c6.6-1.1,11.4-1.6,14.5-1.7l-0.1-3.6c-2.7,0-4.7,0.1-6,0.3c-0.8,0.2-1.3,0.3-1.5,0.3c-0.8-0.1-1.2-0.4-1.3-1.1
			c0.1-0.4,0.3-0.7,0.6-1C86.7,18.4,87.1,18.3,87.7,18.3z M84.3,1.1H97c0.4,0,0.6,0.2,0.6,0.5c0,0.5-0.1,0.9-0.4,1.3
			c-0.4,0.4-0.8,0.6-1.4,0.6c-0.2,0-0.7-0.1-1.4-0.2c0,0.1,0,0.1,0,0.2c-0.1,1.3-0.2,2.4-0.2,3.4V7h3.4c0.4,0,0.6,0.2,0.6,0.5
			c0,0.5-0.2,0.9-0.5,1.3c-0.4,0.3-0.8,0.5-1.4,0.5c-0.3,0-1-0.1-2.1-0.2l0.1,3.7c0,1.6-0.4,2.4-1.2,2.4c-0.7,0-1.1-0.8-1.1-2.4
			c0.1-1.5,0.1-2.7,0.1-3.8c-0.9,0-1.9,0-2.9,0c-0.3,0-0.6,0-0.9,0c-0.1,2.7-0.7,4.6-1.9,5.7c-1.3,1.3-2.6,2-3.8,2
			c-0.6,0-1.2-0.3-1.8-1c-0.3-0.4-0.5-0.8-0.5-1.2c0-0.2,0.2-0.3,0.6-0.4c1.8-0.1,3.2-0.7,4.3-1.9c0.6-0.6,0.9-1.7,1-3.2
			C85,9,84,9.1,83.3,9.2c-0.7,0.2-1.1,0.3-1.3,0.3c-0.8,0-1.2-0.4-1.3-1.1c0.1-0.4,0.3-0.7,0.6-1.1C81.7,7.1,82.1,7,82.7,7h3.6
			c0-1.3-0.1-2.6-0.3-3.9c-0.5,0.1-0.9,0.1-1.3,0.2c-0.6,0.2-1,0.3-1.2,0.3c-0.8-0.1-1.2-0.4-1.2-1.1c0-0.4,0.2-0.8,0.6-1.1
			C83.2,1.2,83.7,1.1,84.3,1.1z M92.1,7c0-0.1,0-0.1,0-0.2c0-1,0-2.1-0.1-3.4c0-0.2,0-0.3,0-0.4c-0.7,0-1.5,0-2.3,0
			c-0.5,0-1,0-1.4,0c0,0.1,0,0.3,0,0.4c0,1.5-0.1,2.7-0.1,3.6H92.1z M101.8,2.5c0.7,0,1.1,0.5,1.1,1.4c-0.1,0.7-0.2,1.4-0.2,2
			l0.2,2.8c0,1.5-0.4,2.2-1.2,2.2c-0.6,0-0.9-0.7-0.9-2.2c0.1-1.2,0.1-2.1,0.1-2.8c0-0.6,0-1.3-0.1-2C100.7,3,101.1,2.5,101.8,2.5z
			 M108.7,0.3c0.8,0,1.2,0.4,1.2,1.2c0,0.2-0.1,0.5-0.2,0.8c-0.1,0.8-0.2,1.5-0.2,2.1c0.1,3,0.2,5.3,0.2,6.9c0,1.9-0.6,3.2-1.7,3.7
			c-0.7,0.3-1.4,0.5-2,0.5c-0.6,0-1-0.2-1.4-0.5c-0.5-0.4-0.7-0.9-0.7-1.5c0-0.3,0.2-0.5,0.6-0.6c1.2-0.1,2-0.3,2.3-0.5
			c0.4-0.2,0.7-0.6,0.8-1c0.1-0.4,0.2-1.2,0.2-2.4c0-1.5-0.1-3.1-0.2-4.6c-0.1-1.4-0.1-2.2-0.1-2.6C107.5,0.8,107.9,0.3,108.7,0.3z"
			/>
	</g>
</g>
</svg>
