<?xml version="1.0" encoding="utf-8"?>
<!-- Generator: Adobe Illustrator 24.0.3, SVG Export Plug-In . SVG Version: 6.00 Build 0)  -->
<svg version="1.1" id="レイヤー_1" xmlns="http://www.w3.org/2000/svg" xmlns:xlink="http://www.w3.org/1999/xlink" x="0px"
	 y="0px" viewBox="0 0 63.6 45.9" style="enable-background:new 0 0 63.6 45.9;" xml:space="preserve">
<style type="text/css">
	.st0{display:none;}
	.st1{display:inline;}
	.st2{fill:#503819;}
</style>
<g class="st0">
	<g class="st1">
		<path class="st2" d="M24.1,0.6c0.2,0,0.5,0,0.7,0.1c0.3,0.1,0.6,0.1,1.1,0.1h3.7c0.8,0,1.8,0,3,0.1c0.2,0,0.5-0.1,0.9-0.2
			c0.5,0,0.7,0.3,0.7,0.8c0,0,0,0.1-0.1,0.3C34.1,2.1,34,2.7,34,3.6c-0.1,1.1-0.1,2.3-0.1,3.5c0,0.9,0,2.1,0.1,3.6
			c0,0.6-0.2,0.8-0.7,0.8c-0.8-0.1-1.6-0.1-2.3-0.2c0,0,0,0,0,0.1c0,1-0.1,2.3-0.2,3.8c0,0.3,0.1,0.5,0.4,0.6c0.6,0.1,2,0.1,4.2,0.1
			c1.6,0,3-0.2,4.3-0.7c0.2,0,0.3,0.2,0.3,0.5c0,0.5-0.1,1-0.4,1.6c-0.3,0.6-0.7,1-1,1c-0.3,0-3-0.3-8.1-0.9
			c-0.8-0.1-1.2-0.5-1.2-1.1c0.1-1.3,0.2-2.3,0.2-2.9c0-0.7,0-1.4-0.1-2.1c-0.3,0-0.6,0-0.9,0c-0.3,0-0.5,0-0.7,0c0,0,0,0.1,0,0.1
			c0,0-0.1,0.1-0.1,0.2c-0.5,1-1.3,2.1-2.4,3.4c-1.2,1.1-2.4,2-3.7,2.6c-0.9,0.4-1.6,0.6-2.2,0.6c-0.3,0-0.6-0.1-0.9-0.4
			c-0.4-0.4-0.6-0.7-0.6-1.1c0-0.3,0.3-0.4,0.9-0.5c1.6-0.2,3.2-0.7,4.6-1.6c1.3-0.9,2.3-2,3-3.4c-0.4,0-0.7,0-0.9,0.1
			c-0.4,0-0.8,0.1-1.4,0.2c-0.5,0-0.7-0.2-0.7-0.7c0.1-1.7,0.2-3.2,0.2-4.5c0-1.4-0.1-3-0.2-4.9C23.4,0.9,23.6,0.6,24.1,0.6z
			 M28.5,10.1c1.1,0,2.3,0,3.6,0.1c0.3,0,0.4-0.1,0.4-0.3V7.9c-3.2,0-5.7,0.1-7.5,0.2c0,0-0.1,0-0.1,0c0,0.6,0,1.1-0.1,1.6
			c0,0.3,0.2,0.4,0.6,0.4C26.4,10.1,27.4,10.1,28.5,10.1z M25,6.9c0.1,0,0.1,0,0.2,0h7.3c0,0,0.1,0,0.1,0V5c-3.2,0-5.7,0.1-7.5,0.2
			h0C25,5.8,25,6.4,25,6.9z M25.1,3.9c0,0,0.1,0,0.1,0h7.4V2.3c0-0.2-0.1-0.3-0.2-0.3c-1.6-0.1-3.8-0.1-6.8-0.1
			c-0.3,0-0.5,0.2-0.5,0.5C25.1,3,25.1,3.5,25.1,3.9z"/>
		<path class="st2" d="M58.3,3.7c0,0.4-0.2,0.6-0.6,0.6c-0.2,0-0.5,0-0.9-0.1c-0.4-0.1-0.7-0.1-0.9-0.1c-2,0-3.8,0.6-5.4,1.8
			c-1.8,1.3-2.7,2.9-2.7,4.8c0,1.6,0.7,2.8,2.2,3.6c1.1,0.7,2.6,1,4.4,1c0.3,0,0.7,0,1.3-0.1c0.6-0.1,1-0.1,1.3-0.1
			c0.2,0,0.3,0.1,0.4,0.3c-0.1,0.5-0.4,1-0.9,1.5c-0.5,0.4-1.1,0.6-1.6,0.6c-2.2,0-4-0.6-5.6-1.7c-1.8-1.2-2.6-2.9-2.6-4.9
			c0-1.6,0.5-3,1.6-4.2c0.8-0.9,2.1-1.8,3.7-2.7c-3.4,0.3-6.6,0.8-9.6,1.6c-0.3,0.1-0.6,0.2-1.1,0.3c-0.5,0-0.7-0.3-0.7-0.7
			c0-0.5,0.1-0.8,0.3-1c0.2-0.2,0.7-0.4,1.5-0.5c2.3-0.3,5.4-0.6,9.2-0.9c3.2-0.2,5-0.4,5.6-0.4c0.3,0,0.6,0.1,0.8,0.4
			C58.1,3.1,58.3,3.4,58.3,3.7z"/>
		<path class="st2" d="M27.5,41c-0.1,0.3-0.4,0.7-0.9,1.2c-0.5,0.5-0.9,0.8-1.2,0.8c0.1,0-1.1-0.6-3.3-1.8c-0.5,0.9-1.2,1.9-2,2.8
			c-1.1,1.2-2,1.8-2.6,1.8c-0.3,0-0.8-0.2-1.4-0.5c-0.6-0.4-0.9-0.7-0.9-1c0-0.1,0.5-0.3,1.5-0.5c1.7-0.5,3.2-1.6,4.2-3.3
			c-1.8-0.8-3.7-1.5-5.7-2.1c-2.5,3.1-4.4,4.6-5.7,4.6c-0.6,0-1-0.3-1.4-0.8C7.7,42,7.6,41.5,7.6,41c0-1.4,0.7-2.4,2.1-3
			c1.1-0.5,2.4-0.8,3.9-0.8c0.1,0,0.5,0,1,0.1c0.6-0.8,1.8-2.7,3.6-5.7c-1.2,0-2.1,0.1-2.5,0.1c-0.9,0.1-1.7,0.2-2.5,0.4
			c-0.7,0.2-1.1,0.3-1.2,0.3c-0.5,0-0.8-0.2-0.8-0.5c0-0.7,0.4-1.2,1.2-1.4c1.2-0.3,2.5-0.4,3.8-0.4h2.6c1,0,1.5,0.3,1.5,0.8
			c0,0.3-0.6,1.4-1.8,3.1c-1,1.5-1.8,2.7-2.5,3.6c1.5,0.4,3.4,0.9,5.7,1.7c0.3-0.9,0.6-1.7,0.6-2.4c0-0.4,0.2-0.6,0.7-0.6
			c0.4,0,0.6,0.2,0.6,0.6c0,0.7-0.3,1.7-0.8,2.9c1.5,0.6,2.9,0.9,4.2,1.1C27.3,40.7,27.5,40.8,27.5,41z M13.8,38.3
			c-0.5,0-0.8-0.1-1-0.1c-1,0-1.8,0.2-2.6,0.6C9.3,39.3,8.8,40,8.8,41c0,0.6,0.2,0.9,0.6,0.9C10.5,41.9,11.9,40.7,13.8,38.3z"/>
		<path class="st2" d="M49.1,43.3C49,43.6,48.6,44,48,44.5c-0.6,0.5-1,0.8-1.4,0.9l-3.5-2.2c-0.8-0.5-1.7-1-2.6-1.4
			c-0.3,2.2-1.7,3.2-4.1,3.2c-1,0-1.9-0.2-2.7-0.7c-1-0.6-1.4-1.3-1.4-2.1c0-1,0.5-1.7,1.4-2.2c0.7-0.4,1.6-0.5,2.7-0.5
			c0.7,0,1.6,0.1,2.5,0.3c-0.1-3-0.2-5.6-0.2-7.8v-1.9c0-1,0.3-1.5,1-1.5c0.4,0,0.6,0.6,0.8,1.9c0,0.8,0,1.6,0,2.4l2.3,0
			c1.4,0,2.6,0,3.5,0.1c0.5,0,0.7,0.2,0.7,0.5c0,0.2-0.1,0.5-0.4,0.9c-0.3,0.3-0.5,0.5-0.8,0.5c-0.6-0.1-1.2-0.3-1.9-0.4
			c-0.7-0.1-1.3-0.2-1.9-0.2c-0.4,0-0.9,0-1.5,0.1V35c0,0.6,0,1.5,0.1,2.7c0,1.2,0,2.1,0,2.7l4.7,1.7c1,0.4,2,0.6,3,0.7
			c0.2,0,0.4,0,0.5,0.1C48.9,43,49,43.1,49.1,43.3z M39,41.3c-1.4-0.4-2.4-0.6-3-0.6c-0.6,0-1.2,0.1-1.6,0.3
			c-0.6,0.3-0.8,0.7-0.8,1.3c0,0.5,0.4,0.9,1.1,1.2c0.5,0.2,1.2,0.3,1.8,0.3C38,43.8,38.8,42.9,39,41.3z"/>
		<path class="st2" d="M67,37.3c0,1.6-0.6,3.1-1.7,4.5c-1,1.2-2.3,2.2-3.9,2.9c-1.7,0.8-3,1.2-3.8,1.2c-0.4,0-0.9-0.2-1.3-0.6
			c-0.5-0.4-0.7-0.8-0.7-1.3c0-0.2,0.7-0.4,2.1-0.5c1.8-0.2,3.5-0.8,5.1-1.9c1.9-1.3,2.8-2.7,2.8-4.4c0-2-1-3-3.1-3
			c-1.6,0-3.4,0.5-5.4,1.6c-0.3,0.2-0.8,0.4-1.5,0.8c-0.2,0-0.4-0.1-0.6-0.4c-0.1-0.2-0.2-0.5-0.2-0.7c0-0.7,1.1-1.3,3.2-1.8
			c1.7-0.4,3.1-0.6,4.1-0.6c2,0,3.4,0.7,4.2,2C66.8,35.8,67,36.5,67,37.3z M65.4,29.5c0,0.3-0.1,0.5-0.4,0.7
			c-0.2,0.2-0.5,0.3-0.8,0.3c-0.2,0-0.5-0.1-0.9-0.2c-0.3-0.1-0.9-0.1-1.9-0.1c-1.4,0-2.5,0.1-3.3,0.2c-0.1,0-0.3,0.1-0.7,0.1
			c-0.3,0.1-0.5,0.1-0.7,0.1c-0.3,0-0.4-0.2-0.4-0.6c0-0.8,0.4-1.2,1.1-1.2c0.9-0.1,2-0.1,3.4-0.1h2.1
			C64.6,28.9,65.4,29.1,65.4,29.5z"/>
	</g>
</g>
<g>
	<g>
		<path class="st2" d="M6.4,0C6.8,0,7,0.2,7,0.5C7,0.6,7,0.7,7,0.8c1,0,1.8,0,2.6,0.1c0.3-0.1,0.6-0.2,0.8-0.2
			c0.6,0,0.9,0.2,0.9,0.7c0,0.2-0.2,0.4-0.6,0.8C10,2.8,9.3,3.7,8.3,5l2,0c0.2,0,0.6-0.1,1.1-0.2c0.6,0,0.9,0.2,0.9,0.6
			C12.1,7,12,8.8,12,10.9c0,1.4,0.1,3.5,0.2,6.2c0,0.7-0.3,1-0.8,1c-0.2,0-0.4-0.1-0.6-0.4c-0.1-0.3-0.1-0.7-0.1-1.2
			c0-1.1,0-2.2,0-3.1c0,0-0.1,0-0.1,0c-2.6,0-4.6,0.1-6.1,0.2c-0.1,0-0.2,0-0.2,0c-0.1,1.1-0.4,1.9-0.7,2.5
			c-0.6,1.2-1.2,1.8-1.8,1.8c-0.5,0-0.9-0.3-1.4-0.8C0.1,16.7,0,16.4,0,16.1c0-0.2,0.1-0.3,0.3-0.3c0.8-0.1,1.5-0.7,2.1-1.8
			C2.8,13.3,3,11.7,3,9.4C3,8.2,2.9,7,2.6,5.7c0-0.5,0.3-0.8,0.8-0.8c0.2,0,0.4,0,0.6,0.1l2.9,0c0.6-1,1.2-1.9,1.9-2.8
			c0-0.2-0.2-0.3-0.5-0.3C7.6,1.9,6.7,2,5.9,2.1C5.1,2.9,4.2,3.6,3.2,4.3c-0.5,0.4-1,0.6-1.4,0.6c-0.3,0-0.7-0.1-1.1-0.4
			C0.4,4.1,0.2,3.9,0.2,3.6c0-0.2,0.2-0.3,0.5-0.3c1-0.2,2-0.6,2.8-1c0.9-0.5,1.8-1.2,2.6-2C6.2,0.1,6.3,0,6.4,0z M4.4,12.2
			c0.1,0,0.2,0,0.3,0H7L7,9.7C6,9.7,5.2,9.8,4.6,9.8c-0.1,0-0.1,0-0.1,0c0,0.1,0,0.1,0,0.1C4.4,10.8,4.4,11.5,4.4,12.2z M4.4,8.7
			c0.1,0,0.2,0,0.2,0H7L6.9,6.2c-0.8,0-1.7,0-2.4,0.1C4.5,7.2,4.5,8,4.4,8.7z M8.3,12.2h2.2c0.1,0,0.1,0,0.1,0c0-0.9,0-1.8,0.1-2.5
			c0,0-0.1,0-0.1,0c-0.8,0-1.6,0-2.3,0L8.3,12.2z M8.4,6.2L8.4,8.6h2.2c0.1,0,0.1,0,0.2,0c0-0.8,0.1-1.6,0.1-2.3
			c0-0.1-0.2-0.2-0.6-0.2C9.6,6.2,9,6.2,8.4,6.2z M13.8,5.4c0.2,0,0.5,0,0.7,0.1c0.3,0.1,0.6,0.1,1.1,0.1h1.7c0-0.2,0-0.5,0-0.8
			c0-0.6-0.1-1.7-0.2-3.3c0-0.5,0.2-0.7,0.7-0.7c0.6,0,0.9,0.3,0.9,0.8c0,1.5-0.1,2.9-0.2,3.9c0.6,0,1.4,0,2.2,0.1
			c0.2,0,0.6-0.1,0.9-0.2c0.5,0,0.7,0.3,0.7,0.8c0,0,0,0.1-0.1,0.2c-0.1,0.2-0.1,0.5-0.2,0.9c-0.1,0.6-0.1,1.2-0.1,1.8
			c0,0.4,0,0.9,0.1,1.5c0,0.6-0.2,0.8-0.7,0.8c-1.3-0.1-2.5-0.2-3.6-0.2c-0.2,0-0.3,0-0.5,0c-0.4,1.1-0.9,2.2-1.6,3.6
			c0,0.2,0.2,0.3,0.5,0.3h3.8c0.2,0,0.3-0.1,0.3-0.4c0-0.1,0-0.1-0.1-0.3c-0.2-0.3-0.5-0.7-0.9-1.1c-0.1-0.2-0.2-0.4-0.2-0.6
			c0-0.4,0.2-0.6,0.7-0.6c0.3,0,0.5,0.1,0.7,0.4c0.4,0.5,0.7,1.1,1,1.7c0.3,0.6,0.4,1,0.4,1.1c0,0.7-0.4,1.1-1.3,1.1
			c-0.3-0.1-0.7-0.1-1.1-0.1h-3.3c-0.6,0-1.3,0-2.2,0.1c-0.6,0-0.9-0.2-0.9-0.7c0-0.2,0.1-0.5,0.4-0.9c0.8-1,1.5-1.9,1.9-2.8
			c0.1-0.3,0.3-0.5,0.4-0.8c-0.5,0-0.8,0-1,0.1c-0.3,0-0.8,0.1-1.2,0.2c-0.5,0-0.7-0.2-0.7-0.7c0.1-0.9,0.2-1.7,0.2-2.4
			c0-0.6-0.1-1.4-0.2-2.3C13.1,5.6,13.4,5.4,13.8,5.4z M16.5,10.1c0.2-0.5,0.3-1,0.4-1.5c0.1-0.6,0.2-1.2,0.3-1.9
			c-0.6,0-1.2,0-1.9,0c-0.3,0-0.5,0.2-0.5,0.5c0,0.9-0.1,1.8-0.2,2.5c0,0.3,0.2,0.4,0.6,0.4C15.6,10.1,16.1,10.1,16.5,10.1z
			 M18,10.1c0.7,0,1.6,0,2.4,0.1c0.3,0,0.4-0.1,0.4-0.3V7.1c0-0.2-0.1-0.3-0.2-0.3c-0.6,0-1.3-0.1-2.1-0.1c-0.1,0.9-0.2,1.6-0.3,2.1
			C18.2,9.2,18.1,9.6,18,10.1C17.9,10.1,18,10.1,18,10.1z"/>
		<path class="st2" d="M42.2,10.9c0,1.1-0.5,2.2-1.5,3.3c-0.8,1-1.8,1.7-3,2.2c-1.5,0.6-2.5,0.9-3.1,0.9c-0.3,0-0.6-0.2-1.1-0.5
			c-0.5-0.4-0.7-0.7-0.7-1c0-0.2,0.2-0.3,0.7-0.4c1.5-0.2,2.7-0.4,3.5-0.6c1.3-0.4,2.2-1,2.9-1.8c0.6-0.8,1-1.4,1-2
			c0-1.8-1.3-2.7-3.8-2.7c-1.3,0-2.9,0.2-4.8,0.5C30.5,9.1,29,9.5,27.8,10c-0.4,0-0.6-0.2-0.6-0.7c0-0.6,0.5-1,1.5-1.2
			c2.4-0.6,5.1-0.9,7.9-0.9c2.4,0,4.1,0.6,5,1.7C42,9.6,42.2,10.2,42.2,10.9z"/>
		<path class="st2" d="M63.6,3.7c0,0.4-0.2,0.6-0.6,0.6c-0.2,0-0.5,0-0.9-0.1c-0.4-0.1-0.7-0.1-0.9-0.1c-2,0-3.8,0.6-5.4,1.8
			c-1.8,1.3-2.6,2.9-2.6,4.8c0,1.6,0.7,2.8,2.2,3.6c1.1,0.7,2.6,1,4.4,1c0.3,0,0.7,0,1.3-0.1c0.6-0.1,1-0.1,1.3-0.1
			c0.2,0,0.3,0.1,0.4,0.3c-0.1,0.5-0.4,1-0.9,1.5c-0.5,0.4-1.1,0.6-1.6,0.6c-2.2,0-4-0.6-5.6-1.7C52.9,14.7,52,13.1,52,11
			c0-1.6,0.5-3,1.6-4.2c0.8-0.9,2.1-1.8,3.7-2.7c-3.4,0.3-6.6,0.8-9.6,1.6c-0.3,0.1-0.6,0.2-1.1,0.3C46.2,6,46,5.7,46,5.3
			c0-0.5,0.1-0.8,0.3-1c0.2-0.2,0.7-0.4,1.5-0.5c2.3-0.3,5.4-0.6,9.2-0.9c3.2-0.2,5-0.4,5.6-0.4c0.3,0,0.6,0.1,0.8,0.4
			C63.5,3.1,63.6,3.4,63.6,3.7z"/>
		<path class="st2" d="M21.8,41c-0.1,0.3-0.4,0.7-0.9,1.2c-0.5,0.5-0.9,0.8-1.2,0.8c0.1,0-1.1-0.6-3.3-1.8c-0.5,0.9-1.2,1.9-2,2.8
			c-1.1,1.2-2,1.8-2.6,1.8c-0.3,0-0.8-0.2-1.4-0.5c-0.6-0.4-0.9-0.7-0.9-1c0-0.1,0.5-0.3,1.5-0.5c1.7-0.5,3.2-1.6,4.2-3.3
			c-1.8-0.8-3.7-1.5-5.7-2.1C7,41.6,5,43.2,3.7,43.2c-0.6,0-1-0.3-1.4-0.8C2,42,1.9,41.5,1.9,41c0-1.4,0.7-2.4,2.1-3
			c1.1-0.5,2.4-0.8,3.9-0.8c0.1,0,0.5,0,1,0.1c0.6-0.8,1.8-2.7,3.6-5.7c-1.2,0-2.1,0.1-2.5,0.1C9,31.7,8.2,31.8,7.5,32
			c-0.7,0.2-1.1,0.3-1.2,0.3c-0.5,0-0.8-0.2-0.8-0.5c0-0.7,0.4-1.2,1.2-1.4c1.2-0.3,2.5-0.4,3.8-0.4h2.6c1,0,1.5,0.3,1.5,0.8
			c0,0.3-0.6,1.4-1.8,3.1c-1,1.5-1.8,2.7-2.5,3.6c1.5,0.4,3.4,0.9,5.7,1.7c0.3-0.9,0.6-1.7,0.6-2.4c0-0.4,0.2-0.6,0.7-0.6
			c0.4,0,0.6,0.2,0.6,0.6c0,0.7-0.3,1.7-0.8,2.9c1.5,0.6,2.9,0.9,4.2,1.1C21.6,40.7,21.8,40.8,21.8,41z M8,38.3
			c-0.5,0-0.8-0.1-1-0.1c-1,0-1.8,0.2-2.6,0.6C3.6,39.3,3.1,40,3.1,41c0,0.6,0.2,0.9,0.6,0.9C4.7,41.9,6.2,40.7,8,38.3z"/>
		<path class="st2" d="M43.3,43.3c-0.1,0.3-0.4,0.7-1.1,1.3c-0.6,0.5-1,0.8-1.4,0.9l-3.5-2.2c-0.8-0.5-1.7-1-2.6-1.4
			c-0.3,2.2-1.7,3.2-4.1,3.2c-1,0-1.9-0.2-2.7-0.7c-1-0.6-1.4-1.3-1.4-2.1c0-1,0.5-1.7,1.4-2.2c0.7-0.4,1.6-0.5,2.7-0.5
			c0.7,0,1.6,0.1,2.5,0.3c-0.1-3-0.2-5.6-0.2-7.8v-1.9c0-1,0.3-1.5,1-1.5c0.4,0,0.6,0.6,0.8,1.9c0,0.8,0,1.6,0,2.4l2.3,0
			c1.4,0,2.6,0,3.5,0.1c0.5,0,0.7,0.2,0.7,0.5c0,0.2-0.1,0.5-0.4,0.9c-0.3,0.3-0.5,0.5-0.8,0.5c-0.6-0.1-1.2-0.3-1.9-0.4
			c-0.7-0.1-1.3-0.2-1.9-0.2c-0.4,0-0.9,0-1.5,0.1V35c0,0.6,0,1.5,0.1,2.7c0,1.2,0,2.1,0,2.7l4.7,1.7c1,0.4,2,0.6,3,0.7
			c0.2,0,0.4,0,0.5,0.1C43.2,43,43.3,43.1,43.3,43.3z M33.3,41.3c-1.4-0.4-2.4-0.6-3-0.6c-0.6,0-1.2,0.1-1.6,0.3
			c-0.6,0.3-0.8,0.7-0.8,1.3c0,0.5,0.4,0.9,1.1,1.2c0.5,0.2,1.2,0.3,1.8,0.3C32.2,43.8,33.1,42.9,33.3,41.3z"/>
		<path class="st2" d="M61.3,37.3c0,1.6-0.6,3.1-1.7,4.5c-1,1.2-2.3,2.2-3.9,2.9c-1.7,0.8-3,1.2-3.8,1.2c-0.4,0-0.9-0.2-1.3-0.6
			c-0.5-0.4-0.7-0.8-0.7-1.3c0-0.2,0.7-0.4,2.1-0.5c1.8-0.2,3.5-0.8,5.1-1.9c1.9-1.3,2.8-2.7,2.8-4.4c0-2-1-3-3.1-3
			c-1.6,0-3.4,0.5-5.4,1.6c-0.3,0.2-0.8,0.4-1.5,0.8c-0.2,0-0.4-0.1-0.6-0.4c-0.1-0.2-0.2-0.5-0.2-0.7c0-0.7,1.1-1.3,3.2-1.8
			c1.7-0.4,3.1-0.6,4.1-0.6c2,0,3.4,0.7,4.2,2C61.1,35.8,61.3,36.5,61.3,37.3z M59.7,29.5c0,0.3-0.1,0.5-0.4,0.7
			c-0.2,0.2-0.5,0.3-0.8,0.3c-0.2,0-0.5-0.1-0.9-0.2c-0.3-0.1-0.9-0.1-1.9-0.1c-1.4,0-2.5,0.1-3.3,0.2c-0.1,0-0.3,0.1-0.7,0.1
			c-0.3,0.1-0.5,0.1-0.7,0.1c-0.3,0-0.4-0.2-0.4-0.6c0-0.8,0.4-1.2,1.1-1.2c0.9-0.1,2-0.1,3.4-0.1h2.1
			C58.9,28.9,59.7,29.1,59.7,29.5z"/>
	</g>
</g>
</svg>
