<?xml version="1.0" encoding="utf-8"?>
<!-- Generator: Adobe Illustrator 24.0.3, SVG Export Plug-In . SVG Version: 6.00 Build 0)  -->
<svg version="1.1" id="レイヤー_1" xmlns="http://www.w3.org/2000/svg" xmlns:xlink="http://www.w3.org/1999/xlink" x="0px"
	 y="0px" viewBox="0 0 47.3 18.5" style="enable-background:new 0 0 47.3 18.5;" xml:space="preserve">
<style type="text/css">
	.st0{display:none;}
	.st1{display:inline;}
	.st2{fill:#503819;}
</style>
<g class="st0">
	<g class="st1">
		<path class="st2" d="M13.5-13.3c0.2,0,0.5,0,0.7,0.1c0.3,0.1,0.6,0.1,1.1,0.1H19c0.8,0,1.8,0,3,0.1c0.2,0,0.5-0.1,0.9-0.2
			c0.5,0,0.7,0.3,0.7,0.8c0,0,0,0.1-0.1,0.3c-0.1,0.3-0.1,0.9-0.2,1.7c-0.1,1.1-0.1,2.3-0.1,3.5c0,0.9,0,2.1,0.1,3.6
			c0,0.6-0.2,0.8-0.7,0.8c-0.8-0.1-1.6-0.1-2.3-0.2c0,0,0,0,0,0.1c0,1-0.1,2.3-0.2,3.8c0,0.3,0.1,0.5,0.4,0.6C21.2,2,22.6,2,24.8,2
			c1.6,0,3-0.2,4.3-0.7c0.2,0,0.3,0.2,0.3,0.5c0,0.5-0.1,1-0.4,1.6c-0.3,0.6-0.7,1-1,1c-0.3,0-3-0.3-8.1-0.9
			c-0.8-0.1-1.2-0.5-1.2-1.1C18.9,1.1,19,0.2,19-0.5c0-0.7,0-1.4-0.1-2.1c-0.3,0-0.6,0-0.9,0c-0.3,0-0.5,0-0.7,0c0,0,0,0.1,0,0.1
			c0,0-0.1,0.1-0.1,0.2c-0.5,1-1.3,2.1-2.4,3.4c-1.2,1.1-2.4,2-3.7,2.6c-0.9,0.4-1.6,0.6-2.2,0.6C8.5,4.3,8.2,4.2,7.9,4
			C7.5,3.6,7.3,3.2,7.3,2.8c0-0.3,0.3-0.4,0.9-0.5c1.6-0.2,3.2-0.7,4.6-1.6c1.3-0.9,2.3-2,3-3.4c-0.4,0-0.7,0-0.9,0.1
			c-0.4,0-0.8,0.1-1.4,0.2c-0.5,0-0.7-0.2-0.7-0.7C12.9-4.9,13-6.4,13-7.7c0-1.4-0.1-3-0.2-4.9C12.8-13.1,13-13.3,13.5-13.3z
			 M17.9-3.9c1.1,0,2.3,0,3.6,0.1c0.3,0,0.4-0.1,0.4-0.3V-6c-3.2,0-5.7,0.1-7.5,0.2c0,0-0.1,0-0.1,0c0,0.6,0,1.1-0.1,1.6
			c0,0.3,0.2,0.4,0.6,0.4C15.8-3.8,16.8-3.9,17.9-3.9z M14.4-7c0.1,0,0.1,0,0.2,0h7.3c0,0,0.1,0,0.1,0v-1.9c-3.2,0-5.7,0.1-7.5,0.2
			h0C14.4-8.1,14.4-7.6,14.4-7z M14.5-10c0,0,0.1,0,0.1,0H22v-1.6c0-0.2-0.1-0.3-0.2-0.3C20.2-12,18-12,15-12
			c-0.3,0-0.5,0.2-0.5,0.5C14.5-11,14.5-10.5,14.5-10z"/>
		<path class="st2" d="M47.7-10.2c0,0.4-0.2,0.6-0.6,0.6c-0.2,0-0.5,0-0.9-0.1c-0.4-0.1-0.7-0.1-0.9-0.1c-2,0-3.8,0.6-5.4,1.8
			c-1.8,1.3-2.7,2.9-2.7,4.8c0,1.6,0.7,2.8,2.2,3.6c1.1,0.7,2.6,1,4.4,1c0.3,0,0.7,0,1.3-0.1c0.6-0.1,1-0.1,1.3-0.1
			c0.2,0,0.3,0.1,0.4,0.3c-0.1,0.5-0.4,1-0.9,1.5c-0.5,0.4-1.1,0.6-1.6,0.6c-2.2,0-4-0.6-5.6-1.7C36.9,0.8,36-0.9,36-2.9
			c0-1.6,0.5-3,1.6-4.2c0.8-0.9,2.1-1.8,3.7-2.7c-3.4,0.3-6.6,0.8-9.6,1.6c-0.3,0.1-0.6,0.2-1.1,0.3C30.2-8,30-8.2,30-8.6
			c0-0.5,0.1-0.8,0.3-1c0.2-0.2,0.7-0.4,1.5-0.5c2.3-0.3,5.4-0.6,9.2-0.9c3.2-0.2,5-0.4,5.6-0.4c0.3,0,0.6,0.1,0.8,0.4
			C47.5-10.8,47.7-10.5,47.7-10.2z"/>
		<path class="st2" d="M16.9,27.1c-0.1,0.3-0.4,0.7-0.9,1.2c-0.5,0.5-0.9,0.8-1.2,0.8c0.1,0-1.1-0.6-3.3-1.8c-0.5,0.9-1.2,1.9-2,2.8
			c-1.1,1.2-2,1.8-2.6,1.8c-0.3,0-0.8-0.2-1.4-0.5c-0.6-0.4-0.9-0.7-0.9-1c0-0.1,0.5-0.3,1.5-0.5c1.7-0.5,3.2-1.6,4.2-3.3
			c-1.8-0.8-3.7-1.5-5.7-2.1c-2.5,3.1-4.4,4.6-5.7,4.6c-0.6,0-1-0.3-1.4-0.8C-2.9,28.1-3,27.6-3,27c0-1.4,0.7-2.4,2.1-3
			c1.1-0.5,2.4-0.8,3.9-0.8c0.1,0,0.5,0,1,0.1c0.6-0.8,1.8-2.7,3.6-5.7c-1.2,0-2.1,0.1-2.5,0.1c-0.9,0.1-1.7,0.2-2.5,0.4
			c-0.7,0.2-1.1,0.3-1.2,0.3c-0.5,0-0.8-0.2-0.8-0.5c0-0.7,0.4-1.2,1.2-1.4c1.2-0.3,2.5-0.4,3.8-0.4h2.6c1,0,1.5,0.3,1.5,0.8
			c0,0.3-0.6,1.4-1.8,3.1c-1,1.5-1.8,2.7-2.5,3.6c1.5,0.4,3.4,0.9,5.7,1.7c0.3-0.9,0.6-1.7,0.6-2.4c0-0.4,0.2-0.6,0.7-0.6
			c0.4,0,0.6,0.2,0.6,0.6c0,0.7-0.3,1.7-0.8,2.9c1.5,0.6,2.9,0.9,4.2,1.1C16.7,26.8,16.9,26.9,16.9,27.1z M3.2,24.4
			c-0.5,0-0.8-0.1-1-0.1c-1,0-1.8,0.2-2.6,0.6c-0.9,0.5-1.4,1.2-1.4,2.1c0,0.6,0.2,0.9,0.6,0.9C-0.1,27.9,1.3,26.8,3.2,24.4z"/>
		<path class="st2" d="M38.5,29.3c-0.1,0.3-0.4,0.7-1.1,1.3c-0.6,0.5-1,0.8-1.4,0.9l-3.5-2.2c-0.8-0.5-1.7-1-2.6-1.4
			c-0.3,2.2-1.7,3.2-4.1,3.2c-1,0-1.9-0.2-2.7-0.7c-1-0.6-1.4-1.3-1.4-2.1c0-1,0.5-1.7,1.4-2.2c0.7-0.4,1.6-0.5,2.7-0.5
			c0.7,0,1.6,0.1,2.5,0.3c-0.1-3-0.2-5.6-0.2-7.8v-1.9c0-1,0.3-1.5,1-1.5c0.4,0,0.6,0.6,0.8,1.9c0,0.8,0,1.6,0,2.4l2.3,0
			c1.4,0,2.6,0,3.5,0.1c0.5,0,0.7,0.2,0.7,0.5c0,0.2-0.1,0.5-0.4,0.9c-0.3,0.3-0.5,0.5-0.8,0.5c-0.6-0.1-1.2-0.3-1.9-0.4
			c-0.7-0.1-1.3-0.2-1.9-0.2c-0.4,0-0.9,0-1.5,0.1v0.5c0,0.6,0,1.5,0.1,2.7c0,1.2,0,2.1,0,2.7l4.7,1.7c1,0.4,2,0.6,3,0.7
			c0.2,0,0.4,0,0.5,0.1C38.3,29.1,38.4,29.2,38.5,29.3z M28.4,27.4c-1.4-0.4-2.4-0.6-3-0.6c-0.6,0-1.2,0.1-1.6,0.3
			c-0.6,0.3-0.8,0.7-0.8,1.3c0,0.5,0.4,0.9,1.1,1.2c0.5,0.2,1.2,0.3,1.8,0.3C27.4,29.8,28.2,29,28.4,27.4z"/>
		<path class="st2" d="M56.5,23.4c0,1.6-0.6,3.1-1.7,4.5c-1,1.2-2.3,2.2-3.9,2.9c-1.7,0.8-3,1.2-3.8,1.2c-0.4,0-0.9-0.2-1.3-0.6
			C45.3,31,45,30.6,45,30.2c0-0.2,0.7-0.4,2.1-0.5c1.8-0.2,3.5-0.8,5.1-1.9c1.9-1.3,2.8-2.7,2.8-4.4c0-2-1-3-3.1-3
			c-1.6,0-3.4,0.5-5.4,1.6c-0.3,0.2-0.8,0.4-1.5,0.8c-0.2,0-0.4-0.1-0.6-0.4c-0.1-0.2-0.2-0.5-0.2-0.7c0-0.7,1.1-1.3,3.2-1.8
			c1.7-0.4,3.1-0.6,4.1-0.6c2,0,3.4,0.7,4.2,2C56.2,21.9,56.5,22.6,56.5,23.4z M54.8,15.6c0,0.3-0.1,0.5-0.4,0.7
			c-0.2,0.2-0.5,0.3-0.8,0.3c-0.2,0-0.5-0.1-0.9-0.2c-0.3-0.1-0.9-0.1-1.9-0.1c-1.4,0-2.5,0.1-3.3,0.2c-0.1,0-0.3,0.1-0.7,0.1
			c-0.3,0.1-0.5,0.1-0.7,0.1c-0.3,0-0.4-0.2-0.4-0.6c0-0.8,0.4-1.2,1.1-1.2c0.9-0.1,2-0.1,3.4-0.1h2.1C54,15,54.8,15.2,54.8,15.6z"
			/>
	</g>
</g>
<g>
	<g>
		<path class="st2" d="M5.5,5.6h3.8c0-0.1,0-0.2-0.1-0.3c0-0.5,0.3-0.8,0.8-0.8c0.5,0,0.8,0.2,0.8,0.7c0,0.1,0,0.3-0.1,0.4h5
			c0.3,0,0.4,0.1,0.4,0.3c0,0.3-0.1,0.6-0.3,0.9C15.7,7,15.4,7.1,15,7.1c-0.3,0-0.9-0.1-1.8-0.2c-0.8,0-1.6-0.1-2.5-0.1l0,1.5h4.5
			c0.2,0,0.3,0.1,0.3,0.3c0,0.3-0.1,0.5-0.3,0.7c-0.2,0.2-0.5,0.3-0.8,0.3c-0.2,0-0.8,0-1.6-0.1c-0.7,0-1.4,0-2.2,0v0.1
			c0,0.5-0.1,1-0.2,1.5h7.3c0.2,0,0.4,0.1,0.4,0.3c0,0.3-0.1,0.6-0.3,0.9c-0.2,0.2-0.5,0.4-0.9,0.4c-0.3,0-1.2-0.1-2.6-0.2
			c-0.9,0-1.9-0.1-2.9-0.1l0,0c3.7,2.1,5.9,3.4,6.8,3.6c0.6,0.1,1.3,0.2,2.1,0.3c0.3,0,0.5,0.1,0.5,0.4c0,0.4-0.3,0.8-0.9,1.1
			c-0.6,0.4-1.2,0.6-1.8,0.6c-0.4,0-0.8-0.2-1.2-0.5c-1.4-1.3-3.1-2.5-4.9-3.8c-0.8-0.5-1.4-0.9-2.1-1.1c0,0.1-0.1,0.2-0.1,0.3
			c-0.8,1.6-1.9,2.8-3.4,3.6C4.9,17.6,3.3,18,1.8,18c-0.5,0-0.9-0.2-1.3-0.5c-0.4-0.3-0.5-0.6-0.5-1c0-0.3,0.1-0.5,0.4-0.5
			C0.9,16,1.3,16,1.6,16c1.9,0,3.4-0.3,4.5-0.9c1.1-0.6,2-1.5,2.5-2.7c0-0.1,0.1-0.1,0.1-0.2c-2,0-3.5,0.1-4.4,0.3
			c-0.7,0.2-1.1,0.2-1.3,0.2c-0.6,0-0.9-0.3-0.9-0.8c0-0.2,0.2-0.5,0.4-0.7c0.2-0.1,0.6-0.2,1-0.2h5.6c0.1-0.5,0.2-1,0.3-1.5
			C8,9.6,7,9.6,6.3,9.8C5.9,9.9,5.6,10,5.5,10C5,9.9,4.7,9.7,4.7,9.2c0-0.3,0.1-0.5,0.4-0.7C5.3,8.4,5.6,8.3,6,8.3h3.5
			c0-0.2,0-0.3,0-0.5c0-0.4,0-0.7,0-1C7.8,6.8,6.6,6.9,5.9,7C5.4,7.1,5.1,7.2,5,7.2c-0.5,0-0.8-0.3-0.8-0.7c0-0.2,0.2-0.5,0.4-0.7
			C4.8,5.7,5.1,5.6,5.5,5.6z M10.1,0c0.7,0,1,0.3,1,1c-0.1,0.5-0.2,1-0.3,1.4c2.9,0,5.3,0.1,7.5,0.3l1.1-0.2c0.5,0,0.8,0.2,0.8,0.5
			c0,0.2-0.1,0.3-0.2,0.5c-0.3,0.7-0.5,1.7-0.6,3.1c0,0.5-0.2,0.7-0.7,0.7c-0.5,0-0.7-0.2-0.7-0.7C18,5.8,18,5,18.2,4.4
			c0-0.1-0.1-0.1-0.4-0.3c-2.1-0.3-4.4-0.4-7-0.4c-2.6,0-5,0.1-7.2,0.3c-0.7,0-1,0.2-1.1,0.4l0,0.2c0,1.3-0.1,2.1-0.4,2.3
			C1.8,7.2,1.6,7.3,1.2,7.3C0.9,7.3,0.7,7.2,0.7,7c0-1.6-0.1-3-0.4-4.2c0-0.4,0.3-0.6,0.8-0.6c0.4,0,0.7,0,0.9,0.1
			c0.3,0.1,0.5,0.2,0.8,0.2c1.7-0.1,3.8-0.1,6.5-0.1c0.1,0,0.1,0,0.2,0C9.3,2,9.2,1.5,9,1.1C9,0.4,9.4,0,10.1,0z"/>
		<path class="st2" d="M24,13.9c0.4,0.1,0.7,0.1,0.9,0.1c0.5,0,1.2-0.2,1.9-0.6c0.2,0,0.3,0.1,0.3,0.3c0,0.2-0.3,0.7-0.8,1.4
			c-0.5,0.7-1,1.1-1.4,1.1c-0.3,0-0.6-0.2-0.8-0.5c-0.3-0.4-0.4-0.8-0.4-1.4C23.6,14,23.8,13.9,24,13.9z M29.2,0.2
			C29.7,0.2,30,0.5,30,1c0,0.4-0.1,0.7-0.4,1.1c-0.8,1.1-1.7,2.1-2.7,3c-0.2,0.1-0.3,0.3-0.3,0.5c0,0,0.2,0.1,0.5,0.3
			c0.3,0.1,0.6,0.3,1.1,0.6c0,0,0.1,0,0.1,0.1c0.8-0.8,1.6-1.6,2.3-2.4C30.6,4,30.8,3.9,31,3.9c0.1,0,0.3,0.1,0.4,0.2
			c0.1,0.1,0.2,0.3,0.2,0.5c0,0.2-0.1,0.4-0.3,0.5c-1.4,1.4-2.8,2.9-4.2,4.4C27,9.8,27,9.9,27,10.1c0,0,0,0.1,0.1,0.1
			c0.2,0.1,0.6,0.1,1.3,0.1c1,0,1.8,0,2.4-0.1c0.2,0,0.2-0.1,0.3-0.3c-0.2-0.5-0.5-1-0.7-1.4c-0.1-0.1-0.1-0.2-0.1-0.3
			c0-0.1,0.1-0.3,0.2-0.4c0.1-0.1,0.3-0.2,0.5-0.2c0.1,0,0.2,0.1,0.4,0.4c0.3,0.5,0.6,1.2,1,1.9c0.2,0.3,0.3,0.6,0.3,0.9
			c0,0.5-0.3,0.7-0.8,0.7c-0.3-0.1-0.5-0.1-0.8-0.1c-0.4,0-0.7,0-1.1,0.1c0,0.1,0.1,0.3,0.1,0.4c-0.1,0.7-0.1,1.4-0.1,1.9l0.1,3.1
			c0,1.1-0.3,1.6-0.9,1.6c-0.5,0-0.7-0.5-0.7-1.6c0.1-1.4,0.1-2.4,0.1-3.1c0-0.6,0-1.2-0.1-1.9c0-0.1,0-0.3,0.1-0.4
			c-0.5,0-1,0-1.6-0.1c-0.4,0-0.9,0-1.3,0.1c-0.6,0-0.9-0.2-0.9-0.6c0-0.2,0.1-0.5,0.3-0.8c0.8-0.8,1.7-1.7,2.5-2.5
			c-0.1,0-0.1,0-0.2-0.1c-1.1-0.5-2-0.9-2.5-1c-0.3-0.1-0.5-0.2-0.5-0.4c0-0.2,0.1-0.5,0.4-0.7C25,5,25.5,4.6,25.9,4.1
			c1-0.9,1.9-2.1,2.7-3.5C28.8,0.3,29,0.2,29.2,0.2z M31.2,13.3c0.1,0,0.2,0,0.4,0.1c0.3,0.4,0.8,0.7,1.3,0.9
			c0.3,0.1,0.4,0.2,0.4,0.4c0,0.3-0.1,0.5-0.4,0.7c-0.2,0.2-0.5,0.3-0.9,0.3c-0.2,0-0.5-0.3-0.8-0.9c-0.3-0.5-0.4-0.9-0.4-1.1
			C30.9,13.4,31,13.3,31.2,13.3z M39.5,0.1c0.5,0,0.8,0.3,0.8,0.8v0.7h5.3c0.2,0,0.3,0.1,0.3,0.3c0,0.3-0.1,0.5-0.3,0.7
			c-0.2,0.2-0.5,0.3-0.8,0.3c-0.3,0-0.9,0-2-0.1c-0.8,0-1.6-0.1-2.5-0.1l0,1.1h4.1c0.2,0,0.3,0.1,0.3,0.3c0,0.3-0.1,0.5-0.3,0.7
			c-0.2,0.2-0.5,0.3-0.8,0.3c-0.2,0-0.7-0.1-1.5-0.2c-0.6,0-1.2-0.1-1.8-0.1v1C41.1,6,42,6.1,43,6.2c1.1,0.1,2.2,0.2,3.2,0.2
			c0.3,0,0.7,0,1-0.1c0.1,0,0.1,0.1,0.1,0.3c0,0.4-0.1,0.8-0.3,1.2c-0.2,0.5-0.5,0.7-0.7,0.7c-0.3,0-0.6-0.1-0.9-0.3
			C44.2,7.7,43,7.4,42,7.2C41.2,7.1,40.2,7,39,7c-1.1,0-2.1,0.1-2.9,0.3c-0.9,0.3-1.8,0.6-2.6,1c-0.3,0.1-0.5,0.2-0.6,0.2
			c-0.5,0-0.7-0.3-0.7-0.8c0-0.2,0.1-0.5,0.3-0.7c0.2-0.2,0.5-0.3,0.8-0.3c2.7-0.5,4.6-0.8,5.8-0.8l-0.1-1c-1.4,0-2.4,0.1-3.1,0.3
			c-0.4,0.2-0.7,0.2-0.8,0.2c-0.4,0-0.7-0.3-0.7-0.7c0-0.2,0.1-0.4,0.4-0.6c0.2-0.1,0.5-0.2,0.9-0.2h3.4l-0.1-1.1
			c-1.8,0-3.1,0.1-3.9,0.2c-0.5,0.1-0.9,0.2-1,0.2c-0.4,0-0.7-0.3-0.7-0.7c0-0.2,0.1-0.4,0.4-0.6c0.2-0.1,0.5-0.2,0.9-0.2h4.4l0-0.8
			C38.8,0.3,39,0.1,39.5,0.1z M33.9,16.4c0.4,0.1,0.7,0.1,0.9,0.1c0.6,0,1.4-0.2,2.3-0.7c0.1,0,0.2,0.1,0.2,0.3
			c0,0.2-0.3,0.7-0.9,1.3c-0.6,0.7-1.1,1-1.6,1c-0.3,0-0.5-0.1-0.7-0.4c-0.3-0.3-0.4-0.7-0.4-1.2C33.7,16.6,33.8,16.4,33.9,16.4z
			 M35.7,8c0.2,0,0.5,0,0.7,0.1c0.2,0,0.5,0.1,1,0.1h3c0.7,0,1.5,0,2.4,0.1c0.2,0,0.5,0,0.8-0.1c0.5,0,0.7,0.2,0.7,0.7
			c0,0,0,0.1-0.1,0.2c-0.1,0.2-0.1,0.6-0.2,1.2C44,11,44,11.8,44,12.7c0,0.6,0,1.4,0.1,2.4c0,0.5-0.2,0.7-0.6,0.7
			c-1.6-0.1-3-0.2-4.3-0.2c-1.3,0-2.1,0-2.5,0.1c-0.3,0-0.7,0.1-1.1,0.2c-0.4,0-0.6-0.2-0.6-0.7c0.1-1.2,0.2-2.3,0.2-3.2
			c0-0.9-0.1-2-0.2-3.2C35,8.3,35.3,8,35.7,8z M39.2,14.5c1,0,2,0,3.1,0.1c0.3,0,0.4-0.1,0.4-0.4v-0.8c0,0-0.1,0-0.1,0
			c-2.5,0-4.5,0.1-5.9,0.2c-0.1,0-0.2,0-0.3,0c0,0.2,0,0.3,0,0.5c0,0.3,0.2,0.5,0.5,0.5C37.6,14.6,38.3,14.5,39.2,14.5z M36.6,12.5
			c0.1,0,0.2,0,0.4,0h5.7c0,0,0.1,0,0.1,0v-1.1c-2.6,0-4.6,0.1-6,0.2c-0.1,0-0.1,0-0.1,0C36.6,11.9,36.6,12.2,36.6,12.5z M36.6,10.5
			c0.1,0,0.2,0,0.3,0h5.8V9.5c0-0.1-0.1-0.2-0.2-0.2c-1.2-0.1-3.1-0.1-5.5-0.1c-0.3,0-0.4,0.1-0.4,0.4C36.7,9.9,36.7,10.2,36.6,10.5
			z M41.9,15.8c0,0,0.1,0,0.1,0c0.8,0.3,1.4,0.5,1.8,0.6c0.3,0.1,0.7,0.1,1.3,0.2c0.2,0,0.3,0.1,0.3,0.3c0,0.3-0.2,0.5-0.5,0.8
			c-0.6,0.4-1.1,0.6-1.5,0.6c-0.1,0-0.2-0.1-0.3-0.2c-0.2-0.2-0.7-0.8-1.4-1.8c-0.1-0.1-0.1-0.2-0.1-0.2
			C41.6,15.9,41.7,15.8,41.9,15.8z"/>
	</g>
</g>
</svg>
