<?xml version="1.0" encoding="utf-8"?>
<!-- Generator: Adobe Illustrator 24.0.3, SVG Export Plug-In . SVG Version: 6.00 Build 0)  -->
<svg version="1.1" id="レイヤー_1" xmlns="http://www.w3.org/2000/svg" xmlns:xlink="http://www.w3.org/1999/xlink" x="0px"
	 y="0px" viewBox="0 0 47.1 18.6" style="enable-background:new 0 0 47.1 18.6;" xml:space="preserve">
<style type="text/css">
	.st0{display:none;}
	.st1{display:inline;}
	.st2{fill:#503819;}
</style>
<g class="st0">
	<g class="st1">
		<path class="st2" d="M13.8-13.3c0.2,0,0.5,0,0.7,0.1c0.3,0.1,0.6,0.1,1.1,0.1h3.7c0.8,0,1.8,0,3,0.1c0.2,0,0.5-0.1,0.9-0.2
			c0.5,0,0.7,0.3,0.7,0.8c0,0,0,0.1-0.1,0.3c-0.1,0.3-0.1,0.9-0.2,1.7c-0.1,1.1-0.1,2.3-0.1,3.5c0,0.9,0,2.1,0.1,3.6
			c0,0.6-0.2,0.8-0.7,0.8c-0.8-0.1-1.6-0.1-2.3-0.2c0,0,0,0,0,0.1c0,1-0.1,2.3-0.2,3.8c0,0.3,0.1,0.5,0.4,0.6C21.5,2,22.9,2,25.2,2
			c1.6,0,3-0.2,4.3-0.7c0.2,0,0.3,0.2,0.3,0.5c0,0.5-0.1,1-0.4,1.6c-0.3,0.6-0.7,1-1,1c-0.3,0-3-0.3-8.1-0.9
			c-0.8-0.1-1.2-0.5-1.2-1.1c0.1-1.3,0.2-2.3,0.2-2.9c0-0.7,0-1.4-0.1-2.1c-0.3,0-0.6,0-0.9,0c-0.3,0-0.5,0-0.7,0c0,0,0,0.1,0,0.1
			c0,0-0.1,0.1-0.1,0.2c-0.5,1-1.3,2.1-2.4,3.4c-1.2,1.1-2.4,2-3.7,2.6c-0.9,0.4-1.6,0.6-2.2,0.6C8.8,4.3,8.5,4.2,8.2,4
			C7.8,3.6,7.6,3.2,7.6,2.8c0-0.3,0.3-0.4,0.9-0.5c1.6-0.2,3.2-0.7,4.6-1.6c1.3-0.9,2.3-2,3-3.4c-0.4,0-0.7,0-0.9,0.1
			c-0.4,0-0.8,0.1-1.4,0.2c-0.5,0-0.7-0.2-0.7-0.7c0.1-1.7,0.2-3.2,0.2-4.5c0-1.4-0.1-3-0.2-4.9C13.1-13.1,13.3-13.3,13.8-13.3z
			 M18.3-3.9c1.1,0,2.3,0,3.6,0.1c0.3,0,0.4-0.1,0.4-0.3V-6c-3.2,0-5.7,0.1-7.5,0.2c0,0-0.1,0-0.1,0c0,0.6,0,1.1-0.1,1.6
			c0,0.3,0.2,0.4,0.6,0.4C16.1-3.8,17.1-3.9,18.3-3.9z M14.7-7c0.1,0,0.1,0,0.2,0h7.3c0,0,0.1,0,0.1,0v-1.9c-3.2,0-5.7,0.1-7.5,0.2
			h0C14.8-8.1,14.8-7.6,14.7-7z M14.8-10c0,0,0.1,0,0.1,0h7.4v-1.6c0-0.2-0.1-0.3-0.2-0.3C20.6-12,18.3-12,15.3-12
			c-0.3,0-0.5,0.2-0.5,0.5C14.8-11,14.8-10.5,14.8-10z"/>
		<path class="st2" d="M48-10.2c0,0.4-0.2,0.6-0.6,0.6c-0.2,0-0.5,0-0.9-0.1c-0.4-0.1-0.7-0.1-0.9-0.1c-2,0-3.8,0.6-5.4,1.8
			c-1.8,1.3-2.7,2.9-2.7,4.8c0,1.6,0.7,2.8,2.2,3.6c1.1,0.7,2.6,1,4.4,1c0.3,0,0.7,0,1.3-0.1c0.6-0.1,1-0.1,1.3-0.1
			c0.2,0,0.3,0.1,0.4,0.3c-0.1,0.5-0.4,1-0.9,1.5c-0.5,0.4-1.1,0.6-1.6,0.6c-2.2,0-4-0.6-5.6-1.7c-1.8-1.2-2.6-2.9-2.6-4.9
			c0-1.6,0.5-3,1.6-4.2C38.8-8.1,40-9,41.7-9.8c-3.4,0.3-6.6,0.8-9.6,1.6c-0.3,0.1-0.6,0.2-1.1,0.3c-0.5,0-0.7-0.3-0.7-0.7
			c0-0.5,0.1-0.8,0.3-1c0.2-0.2,0.7-0.4,1.5-0.5c2.3-0.3,5.4-0.6,9.2-0.9c3.2-0.2,5-0.4,5.6-0.4c0.3,0,0.6,0.1,0.8,0.4
			C47.9-10.8,48-10.5,48-10.2z"/>
		<path class="st2" d="M17.3,27.1c-0.1,0.3-0.4,0.7-0.9,1.2c-0.5,0.5-0.9,0.8-1.2,0.8c0.1,0-1.1-0.6-3.3-1.8c-0.5,0.9-1.2,1.9-2,2.8
			c-1.1,1.2-2,1.8-2.6,1.8c-0.3,0-0.8-0.2-1.4-0.5c-0.6-0.4-0.9-0.7-0.9-1c0-0.1,0.5-0.3,1.5-0.5c1.7-0.5,3.2-1.6,4.2-3.3
			c-1.8-0.8-3.7-1.5-5.7-2.1c-2.5,3.1-4.4,4.6-5.7,4.6c-0.6,0-1-0.3-1.4-0.8c-0.3-0.4-0.5-0.9-0.5-1.5c0-1.4,0.7-2.4,2.1-3
			c1.1-0.5,2.4-0.8,3.9-0.8c0.1,0,0.5,0,1,0.1c0.6-0.8,1.8-2.7,3.6-5.7c-1.2,0-2.1,0.1-2.5,0.1c-0.9,0.1-1.7,0.2-2.5,0.4
			c-0.7,0.2-1.1,0.3-1.2,0.3c-0.5,0-0.8-0.2-0.8-0.5c0-0.7,0.4-1.2,1.2-1.4c1.2-0.3,2.5-0.4,3.8-0.4h2.6c1,0,1.5,0.3,1.5,0.8
			c0,0.3-0.6,1.4-1.8,3.1c-1,1.5-1.8,2.7-2.5,3.6c1.5,0.4,3.4,0.9,5.7,1.7c0.3-0.9,0.6-1.7,0.6-2.4c0-0.4,0.2-0.6,0.7-0.6
			c0.4,0,0.6,0.2,0.6,0.6c0,0.7-0.3,1.7-0.8,2.9c1.5,0.6,2.9,0.9,4.2,1.1C17.1,26.8,17.2,26.9,17.3,27.1z M3.5,24.4
			c-0.5,0-0.8-0.1-1-0.1c-1,0-1.8,0.2-2.6,0.6C-1,25.4-1.4,26.1-1.4,27c0,0.6,0.2,0.9,0.6,0.9C0.2,27.9,1.6,26.8,3.5,24.4z"/>
		<path class="st2" d="M38.8,29.3c-0.1,0.3-0.4,0.7-1.1,1.3c-0.6,0.5-1,0.8-1.4,0.9l-3.5-2.2c-0.8-0.5-1.7-1-2.6-1.4
			c-0.3,2.2-1.7,3.2-4.1,3.2c-1,0-1.9-0.2-2.7-0.7c-1-0.6-1.4-1.3-1.4-2.1c0-1,0.5-1.7,1.4-2.2c0.7-0.4,1.6-0.5,2.7-0.5
			c0.7,0,1.6,0.1,2.5,0.3c-0.1-3-0.2-5.6-0.2-7.8v-1.9c0-1,0.3-1.5,1-1.5c0.4,0,0.6,0.6,0.8,1.9c0,0.8,0,1.6,0,2.4l2.3,0
			c1.4,0,2.6,0,3.5,0.1c0.5,0,0.7,0.2,0.7,0.5c0,0.2-0.1,0.5-0.4,0.9c-0.3,0.3-0.5,0.5-0.8,0.5c-0.6-0.1-1.2-0.3-1.9-0.4
			c-0.7-0.1-1.3-0.2-1.9-0.2c-0.4,0-0.9,0-1.5,0.1v0.5c0,0.6,0,1.5,0.1,2.7c0,1.2,0,2.1,0,2.7l4.7,1.7c1,0.4,2,0.6,3,0.7
			c0.2,0,0.4,0,0.5,0.1C38.7,29.1,38.8,29.2,38.8,29.3z M28.7,27.4c-1.4-0.4-2.4-0.6-3-0.6c-0.6,0-1.2,0.1-1.6,0.3
			c-0.6,0.3-0.8,0.7-0.8,1.3c0,0.5,0.4,0.9,1.1,1.2c0.5,0.2,1.2,0.3,1.8,0.3C27.7,29.8,28.5,29,28.7,27.4z"/>
		<path class="st2" d="M56.8,23.4c0,1.6-0.6,3.1-1.7,4.5c-1,1.2-2.3,2.2-3.9,2.9c-1.7,0.8-3,1.2-3.8,1.2c-0.4,0-0.9-0.2-1.3-0.6
			c-0.5-0.4-0.7-0.8-0.7-1.3c0-0.2,0.7-0.4,2.1-0.5c1.8-0.2,3.5-0.8,5.1-1.9c1.9-1.3,2.8-2.7,2.8-4.4c0-2-1-3-3.1-3
			c-1.6,0-3.4,0.5-5.4,1.6c-0.3,0.2-0.8,0.4-1.5,0.8c-0.2,0-0.4-0.1-0.6-0.4c-0.1-0.2-0.2-0.5-0.2-0.7c0-0.7,1.1-1.3,3.2-1.8
			c1.7-0.4,3.1-0.6,4.1-0.6c2,0,3.4,0.7,4.2,2C56.6,21.9,56.8,22.6,56.8,23.4z M55.2,15.6c0,0.3-0.1,0.5-0.4,0.7
			c-0.2,0.2-0.5,0.3-0.8,0.3c-0.2,0-0.5-0.1-0.9-0.2c-0.3-0.1-0.9-0.1-1.9-0.1c-1.4,0-2.5,0.1-3.3,0.2c-0.1,0-0.3,0.1-0.7,0.1
			c-0.3,0.1-0.5,0.1-0.7,0.1c-0.3,0-0.4-0.2-0.4-0.6c0-0.8,0.4-1.2,1.1-1.2c0.9-0.1,2-0.1,3.4-0.1h2.1C54.3,15,55.2,15.2,55.2,15.6z
			"/>
	</g>
</g>
<g>
	<g>
		<path class="st2" d="M0.3,14.8c0.5,0.1,0.8,0.1,1,0.1c0.7,0,1.7-0.4,2.8-1.3c0.2,0,0.3,0.1,0.3,0.3c0,0.3-0.4,0.9-1.2,1.8
			c-0.7,0.9-1.4,1.4-2,1.4c-0.3,0-0.6-0.2-0.9-0.5C0.1,16.3,0,15.8,0,15.2C0,15,0.1,14.8,0.3,14.8z M4.9,2.2h8.4
			c-0.1-0.7-0.1-1.3-0.1-1.5c0-0.5,0.3-0.7,0.7-0.7c0.5,0,0.7,0.3,0.7,0.7c-0.1,0.3-0.1,0.6-0.1,0.8c0,0.2,0,0.5,0,0.7h1.6
			C16.1,2.2,16,2.1,16,2c0-0.1,0.3-0.6,0.8-1.6c0.2-0.2,0.4-0.3,0.7-0.3c0.4,0,0.6,0.2,0.6,0.5c0,0.3,0,0.5-0.1,0.6
			c-0.7,0.5-1.2,0.9-1.4,1h3c0.3,0,0.4,0,0.4,0.1c0,0.4-0.1,0.7-0.3,1c-0.2,0.3-0.5,0.4-0.9,0.4s-1.3-0.1-2.7-0.2
			c-0.5,0-1.1,0-1.6-0.1c0,0.5,0.1,0.9,0.2,1.2c0.2,1,0.6,1.8,1.1,2.5c0.1,0.1,0.2,0.3,0.3,0.4c0.7-0.7,1.2-1.6,1.5-2.7
			c0.1-0.2,0.2-0.3,0.5-0.3c0.4,0,0.6,0.2,0.6,0.6c0,0-0.1,0.1-0.1,0.2c-0.3,0.8-0.8,1.8-1.4,2.9c-0.1,0.1-0.2,0.2-0.3,0.3
			c0.3,0.3,0.7,0.6,1.1,0.8c0.7,0.4,1.5,0.7,2.6,0.9c0.3,0,0.4,0.2,0.4,0.4c0,0.3-0.2,0.7-0.5,1c-0.4,0.4-0.8,0.6-1.1,0.6
			c-0.2,0-0.6-0.1-1-0.4c-1-0.5-1.8-1.2-2.6-2.1c-0.3,0.3-0.6,0.5-0.9,0.7c-0.5,0.4-1,0.5-1.3,0.5c-0.3,0-0.5-0.1-0.8-0.3
			c-0.4-0.3-0.5-0.7-0.5-1c0-0.3,0.2-0.4,0.7-0.5c0.6-0.1,1.2-0.3,1.8-0.7C14.6,8,14.3,7.4,14,6.7c-0.3-0.8-0.5-1.8-0.6-3.2
			c-0.6,0-1.3,0-1.9,0c-2.6,0-4.5,0-5.7,0.1c-0.6,0.1-1,0.1-1.2,0.1c0,0.1,0,0.1,0,0.1l0,2.2c0,1.2-0.1,2.2-0.4,3
			c-0.3,0.8-0.8,1.6-1.4,2.2c-0.4,0.4-0.7,0.5-0.9,0.5c-0.4,0-0.9-0.2-1.4-0.6c-0.4-0.3-0.5-0.6-0.5-0.9c0-0.3,0.2-0.5,0.5-0.5
			c0.4-0.1,0.7-0.2,1-0.3c0.5-0.3,1-0.8,1.2-1.5c0.2-0.7,0.4-1.5,0.4-2.5c0-0.6-0.1-1.5-0.2-2.5C3,2.3,3.3,2,3.8,2
			c0.3,0,0.6,0.1,0.7,0.2C4.6,2.2,4.7,2.2,4.9,2.2z M6.4,4.6h5.4c0.2,0,0.3,0.1,0.3,0.4c0,0.2-0.1,0.3-0.3,0.5
			c-0.2,0.2-0.4,0.3-0.6,0.3c-0.6-0.1-1.4-0.2-2.6-0.2C8,5.6,7.2,5.7,6.2,5.9c-0.5,0-0.7-0.2-0.7-0.5c0-0.2,0.1-0.4,0.3-0.6
			C6,4.7,6.2,4.6,6.4,4.6z M6.5,6.8c0.2,0,0.5,0,0.7,0.1c0.2,0,0.5,0.1,1,0.1h1.2c0.3,0,0.6,0,1,0.1c0.2,0,0.5,0,0.8-0.1
			c0.5,0,0.7,0.2,0.7,0.7c0,0,0,0.1-0.1,0.1c-0.1,0.1-0.1,0.3-0.2,0.6c-0.1,0.4-0.1,0.8-0.1,1.3c0,0.2,0,0.5,0.1,0.9
			c0,0.5-0.2,0.7-0.6,0.7c-0.9-0.1-1.8-0.2-2.5-0.2c-0.8,0-1.3,0-1.5,0.1c-0.2,0-0.4,0.1-0.6,0.2c-0.4,0-0.6-0.2-0.6-0.7
			C5.9,10,6,9.4,6,8.9c0-0.4-0.1-0.9-0.2-1.4C5.8,7,6,6.8,6.5,6.8z M7.9,12.3c0.6,0,0.9,0.2,0.9,0.7c0,0.2-0.3,0.9-0.9,1.8
			c-0.1,0.1-0.2,0.2-0.2,0.3c0,0.1,0.1,0.2,0.4,0.2c2.5,0,4.9,0.2,7.2,0.6c0.8,0.1,1.6,0.2,2.4,0.2c0.7,0,1.5-0.1,2.4-0.4
			c0.5-0.2,0.8-0.3,0.9-0.3c0.3,0,0.4,0.1,0.4,0.4c0,0.5-0.2,1-0.6,1.6c-0.5,0.7-0.9,1.1-1.4,1.1c-0.5,0-1.3-0.2-2.7-0.6
			c-2.9-0.9-5.7-1.4-8.4-1.4c-0.5,0-1.1,0.1-1.7,0.2c-0.5,0-0.8-0.2-0.8-0.6c0-0.1,0.2-0.4,0.5-0.8c0.6-0.7,0.9-1.5,1-2.4
			C7.4,12.5,7.6,12.3,7.9,12.3z M8.5,10.1c0.4,0,0.9,0,1.4,0.1c0.3,0,0.4-0.1,0.4-0.4V8.3c0-0.1-0.1-0.2-0.2-0.2
			C9.6,8.1,8.8,8,7.8,8C7.5,8,7.4,8.2,7.4,8.4c0,0.4-0.1,0.8-0.2,1.2c0,0.3,0.2,0.5,0.5,0.5C7.9,10.1,8.2,10.1,8.5,10.1z M13.1,11.9
			c0.5,0,0.7,0.2,0.7,0.6c0,0.3,0,0.5-0.1,0.6c-1,0.8-1.5,1.2-1.6,1.2c-0.3,0-0.4-0.1-0.4-0.3c0-0.1,0.2-0.6,0.7-1.7
			C12.5,12,12.8,11.9,13.1,11.9z M16.8,12.5c0.5,0,0.7,0.2,0.7,0.6c0,0.3,0,0.5-0.1,0.6c-1.2,0.9-1.8,1.3-1.9,1.3
			c-0.3,0-0.4-0.1-0.4-0.3c0-0.1,0.3-0.7,1-1.8C16.2,12.6,16.4,12.5,16.8,12.5z"/>
		<path class="st2" d="M35.3,0.2c0.3,0,0.5,0.2,0.5,0.5s-0.1,0.5-0.4,0.6C34,1.6,32.8,1.8,31.7,2v1.5h4.6c0.3,0,0.4,0.1,0.4,0.3
			c0,0.3-0.1,0.6-0.3,0.9c-0.2,0.2-0.5,0.3-0.9,0.3c-0.3,0-0.9-0.1-1.9-0.2c-0.6,0-1.2-0.1-1.9-0.1V6c0.7,0,1.6,0,2.6,0.1
			c0.2,0,0.5,0,0.9-0.1c0.5,0,0.7,0.2,0.7,0.7c0,0,0,0.1-0.1,0.2c-0.1,0.2-0.1,0.5-0.2,0.9c-0.1,0.6-0.1,1.2-0.1,1.9
			c0,0.4,0,0.9,0.1,1.6c0,0.5-0.2,0.7-0.7,0.7c-1.2-0.1-2.3-0.2-3.3-0.2l0,1.2h3.5c0.2,0,0.3,0.1,0.3,0.3c0,0.3-0.1,0.5-0.3,0.7
			c-0.2,0.2-0.5,0.3-0.8,0.3c-0.2,0-0.7-0.1-1.4-0.2c-0.4,0-0.9,0-1.4,0v1.2c1.5-0.2,2.7-0.3,3.5-0.4c0.2,0,0.3,0.1,0.3,0.4
			c0,0.3-0.1,0.5-0.4,0.6c-3.2,0.6-6.2,1.2-9,1.9c-0.6,0-0.8-0.2-0.8-0.6c0-0.3,0.1-0.6,0.2-0.8c0.1-0.1,0.4-0.3,0.8-0.3
			c1.5-0.2,2.8-0.4,3.9-0.6v-1.4c-1.3,0-2.3,0.1-2.9,0.2c-0.4,0.1-0.6,0.2-0.8,0.2c-0.4,0-0.7-0.3-0.7-0.7c0-0.2,0.1-0.4,0.4-0.6
			c0.2-0.1,0.5-0.2,0.9-0.2h3.1v-1.2c-1.3,0-2.2,0.1-2.6,0.1c-0.3,0-0.8,0.1-1.3,0.2c-0.5,0-0.7-0.2-0.7-0.7
			c0.1-0.9,0.2-1.7,0.2-2.4c0-0.6-0.1-1.4-0.2-2.3c0-0.5,0.2-0.7,0.7-0.7c0.2,0,0.5,0,0.8,0.1C27.3,6,27.7,6,28.2,6h1.9V4.8
			c-1.8,0-3.1,0.1-3.9,0.2c-0.5,0.1-0.8,0.2-1,0.2c-0.5,0-0.8-0.3-0.8-0.7c0-0.2,0.2-0.5,0.4-0.7c0.2-0.1,0.5-0.2,0.9-0.2h4.4l0-1.2
			c-0.3,0.1-0.7,0.1-1,0.1c-1.1,0.1-1.8,0.2-2.2,0.2c-0.4,0-0.8-0.2-1.2-0.5c-0.2-0.2-0.4-0.5-0.4-0.8c0-0.2,0.1-0.3,0.4-0.3
			c2.2,0,4-0.1,5.4-0.3c1.4-0.1,2.6-0.3,3.6-0.5C35,0.2,35.1,0.2,35.3,0.2z M30.1,10.8V9.5c-1,0-1.9,0.1-2.7,0.1c-0.1,0-0.1,0-0.2,0
			c0,0.2-0.1,0.5-0.1,0.7c0,0.3,0.2,0.5,0.6,0.5C28.4,10.8,29.2,10.8,30.1,10.8z M27.3,8.4c0.1,0,0.2,0,0.2,0h2.6l0-1.3
			c-0.7,0-1.4,0-2.3,0c-0.3,0-0.5,0.1-0.5,0.4C27.3,7.8,27.3,8.1,27.3,8.4z M31.7,7.1l0,1.3h2.5c0,0,0.1,0,0.1,0v-1
			c0-0.1-0.1-0.2-0.2-0.2C33.4,7.2,32.6,7.2,31.7,7.1z M31.7,9.5v1.3c0.7,0,1.4,0,2.2,0.1c0.3,0,0.4-0.1,0.4-0.4v-1
			C33.3,9.4,32.4,9.4,31.7,9.5z M40.7,5.5C41,3.8,41.1,2.3,41.2,1c0.1-0.5,0.3-0.7,0.7-0.7c0.5,0,0.8,0.3,0.8,0.8
			c0,0.1,0,0.5-0.1,0.9c-0.1,1.3-0.3,2.4-0.4,3.4h3.2c0.1,0,0.4-0.1,0.9-0.2c0.6,0,0.9,0.3,0.9,0.9c-0.4,1.9-0.6,3.9-0.8,5.8
			c-0.2,2.7-0.7,4.4-1.5,5.2c-0.7,0.8-1.5,1.1-2.5,1.1c-0.5,0-0.8-0.2-1.1-0.6c-0.2-0.3-0.3-0.6-0.3-0.9c0-0.3,0.1-0.5,0.4-0.5
			c1.4-0.1,2.3-0.4,2.7-1c0.5-0.6,0.9-2.3,1.2-5.1c0.2-1.7,0.3-2.8,0.3-3.2c0-0.3-0.1-0.4-0.3-0.4h-3.2C41.7,8,41.5,9,41.2,9.9
			c-0.4,1.6-0.9,3.2-1.6,4.7c-0.5,1.2-1.3,2.3-2.3,3.2c-0.4,0.3-0.7,0.5-1,0.5c-0.2,0-0.5-0.1-0.8-0.4c-0.3-0.3-0.5-0.7-0.5-1
			c0-0.2,0.1-0.4,0.3-0.4c0.9-0.4,1.7-0.9,2.2-1.6c0.7-0.8,1.3-2.1,1.9-3.9c0.4-1.3,0.8-2.7,1-4.3c-0.6,0-1.2,0.1-1.8,0.2
			c-0.6,0.1-0.9,0.2-1.1,0.2c-0.4,0-0.6-0.2-0.6-0.5c0-0.6,0.3-0.9,0.8-1C38.3,5.5,39.2,5.5,40.7,5.5z"/>
	</g>
</g>
</svg>
