<?xml version="1.0" encoding="utf-8"?>
<!-- Generator: Adobe Illustrator 24.0.3, SVG Export Plug-In . SVG Version: 6.00 Build 0)  -->
<svg version="1.1" id="レイヤー_1" xmlns="http://www.w3.org/2000/svg" xmlns:xlink="http://www.w3.org/1999/xlink" x="0px"
	 y="0px" viewBox="0 0 65.1 18.1" style="enable-background:new 0 0 65.1 18.1;" xml:space="preserve">
<style type="text/css">
	.st0{display:none;}
	.st1{display:inline;}
	.st2{fill:#503819;}
</style>
<g class="st0">
	<g class="st1">
		<path class="st2" d="M25.9-13.5c0.2,0,0.5,0,0.7,0.1c0.3,0.1,0.6,0.1,1.1,0.1h3.7c0.8,0,1.8,0,3,0.1c0.2,0,0.5-0.1,0.9-0.2
			c0.5,0,0.7,0.3,0.7,0.8c0,0,0,0.1-0.1,0.3c-0.1,0.3-0.1,0.9-0.2,1.7c-0.1,1.1-0.1,2.3-0.1,3.5c0,0.9,0,2.1,0.1,3.6
			c0,0.6-0.2,0.8-0.7,0.8c-0.8-0.1-1.6-0.1-2.3-0.2c0,0,0,0,0,0.1c0,1-0.1,2.3-0.2,3.8c0,0.3,0.1,0.5,0.4,0.6c0.6,0.1,2,0.1,4.2,0.1
			c1.6,0,3-0.2,4.3-0.7c0.2,0,0.3,0.2,0.3,0.5c0,0.5-0.1,1-0.4,1.6c-0.3,0.6-0.7,1-1,1c-0.3,0-3-0.3-8.1-0.9
			c-0.8-0.1-1.2-0.5-1.2-1.1c0.1-1.3,0.2-2.3,0.2-2.9c0-0.7,0-1.4-0.1-2.1c-0.3,0-0.6,0-0.9,0c-0.3,0-0.5,0-0.7,0c0,0,0,0.1,0,0.1
			c0,0-0.1,0.1-0.1,0.2c-0.5,1-1.3,2.1-2.4,3.4c-1.2,1.1-2.4,2-3.7,2.6c-0.9,0.4-1.6,0.6-2.2,0.6c-0.3,0-0.6-0.1-0.9-0.4
			c-0.4-0.4-0.6-0.7-0.6-1.1c0-0.3,0.3-0.4,0.9-0.5c1.6-0.2,3.2-0.7,4.6-1.6c1.3-0.9,2.3-2,3-3.4c-0.4,0-0.7,0-0.9,0.1
			c-0.4,0-0.8,0.1-1.4,0.2c-0.5,0-0.7-0.2-0.7-0.7c0.1-1.7,0.2-3.2,0.2-4.5c0-1.4-0.1-3-0.2-4.9C25.1-13.3,25.4-13.5,25.9-13.5z
			 M30.3-4.1c1.1,0,2.3,0,3.6,0.1c0.3,0,0.4-0.1,0.4-0.3v-1.9c-3.2,0-5.7,0.1-7.5,0.2c0,0-0.1,0-0.1,0c0,0.6,0,1.1-0.1,1.6
			c0,0.3,0.2,0.4,0.6,0.4C28.1-4,29.2-4.1,30.3-4.1z M26.8-7.2c0.1,0,0.1,0,0.2,0h7.3c0,0,0.1,0,0.1,0v-1.9c-3.2,0-5.7,0.1-7.5,0.2
			h0C26.8-8.3,26.8-7.8,26.8-7.2z M26.9-10.2c0,0,0.1,0,0.1,0h7.4v-1.6c0-0.2-0.1-0.3-0.2-0.3c-1.6-0.1-3.8-0.1-6.8-0.1
			c-0.3,0-0.5,0.2-0.5,0.5C26.9-11.2,26.9-10.7,26.9-10.2z"/>
		<path class="st2" d="M60-10.4c0,0.4-0.2,0.6-0.6,0.6c-0.2,0-0.5,0-0.9-0.1C58.1-10,57.9-10,57.7-10c-2,0-3.8,0.6-5.4,1.8
			c-1.8,1.3-2.7,2.9-2.7,4.8c0,1.6,0.7,2.8,2.2,3.6c1.1,0.7,2.6,1,4.4,1c0.3,0,0.7,0,1.3-0.1c0.6-0.1,1-0.1,1.3-0.1
			c0.2,0,0.3,0.1,0.4,0.3c-0.1,0.5-0.4,1-0.9,1.5c-0.5,0.4-1.1,0.6-1.6,0.6c-2.2,0-4-0.6-5.6-1.7c-1.8-1.2-2.6-2.9-2.6-4.9
			c0-1.6,0.5-3,1.6-4.2c0.8-0.9,2.1-1.8,3.7-2.7c-3.4,0.3-6.6,0.8-9.6,1.6c-0.3,0.1-0.6,0.2-1.1,0.3c-0.5,0-0.7-0.3-0.7-0.7
			c0-0.5,0.1-0.8,0.3-1c0.2-0.2,0.7-0.4,1.5-0.5c2.3-0.3,5.4-0.6,9.2-0.9c3.2-0.2,5-0.4,5.6-0.4c0.3,0,0.6,0.1,0.8,0.4
			C59.9-11,60-10.7,60-10.4z"/>
		<path class="st2" d="M29.3,26.9c-0.1,0.3-0.4,0.7-0.9,1.2c-0.5,0.5-0.9,0.8-1.2,0.8c0.1,0-1.1-0.6-3.3-1.8c-0.5,0.9-1.2,1.9-2,2.8
			c-1.1,1.2-2,1.8-2.6,1.8c-0.3,0-0.8-0.2-1.4-0.5c-0.6-0.4-0.9-0.7-0.9-1c0-0.1,0.5-0.3,1.5-0.5c1.7-0.5,3.2-1.6,4.2-3.3
			c-1.8-0.8-3.7-1.5-5.7-2.1c-2.5,3.1-4.4,4.6-5.7,4.6c-0.6,0-1-0.3-1.4-0.8c-0.3-0.4-0.5-0.9-0.5-1.5c0-1.4,0.7-2.4,2.1-3
			c1.1-0.5,2.4-0.8,3.9-0.8c0.1,0,0.5,0,1,0.1c0.6-0.8,1.8-2.7,3.6-5.7c-1.2,0-2.1,0.1-2.5,0.1c-0.9,0.1-1.7,0.2-2.5,0.4
			c-0.7,0.2-1.1,0.3-1.2,0.3c-0.5,0-0.8-0.2-0.8-0.5c0-0.7,0.4-1.2,1.2-1.4c1.2-0.3,2.5-0.4,3.8-0.4h2.6c1,0,1.5,0.3,1.5,0.8
			c0,0.3-0.6,1.4-1.8,3.1c-1,1.5-1.8,2.7-2.5,3.6c1.5,0.4,3.4,0.9,5.7,1.7c0.3-0.9,0.6-1.7,0.6-2.4c0-0.4,0.2-0.6,0.7-0.6
			c0.4,0,0.6,0.2,0.6,0.6c0,0.7-0.3,1.7-0.8,2.9c1.5,0.6,2.9,0.9,4.2,1.1C29.1,26.6,29.3,26.7,29.3,26.9z M15.6,24.2
			c-0.5,0-0.8-0.1-1-0.1c-1,0-1.8,0.2-2.6,0.6c-0.9,0.5-1.4,1.2-1.4,2.1c0,0.6,0.2,0.9,0.6,0.9C12.2,27.7,13.7,26.6,15.6,24.2z"/>
		<path class="st2" d="M50.9,29.1c-0.1,0.3-0.4,0.7-1.1,1.3c-0.6,0.5-1,0.8-1.4,0.9L45,29.1c-0.8-0.5-1.7-1-2.6-1.4
			C42,29.9,40.7,31,38.3,31c-1,0-1.9-0.2-2.7-0.7c-1-0.6-1.4-1.3-1.4-2.1c0-1,0.5-1.7,1.4-2.2c0.7-0.4,1.6-0.5,2.7-0.5
			c0.7,0,1.6,0.1,2.5,0.3c-0.1-3-0.2-5.6-0.2-7.8v-1.9c0-1,0.3-1.5,1-1.5c0.4,0,0.6,0.6,0.8,1.9c0,0.8,0,1.6,0,2.4l2.3,0
			c1.4,0,2.6,0,3.5,0.1c0.5,0,0.7,0.2,0.7,0.5c0,0.2-0.1,0.5-0.4,0.9c-0.3,0.3-0.5,0.5-0.8,0.5c-0.6-0.1-1.2-0.3-1.9-0.4
			c-0.7-0.1-1.3-0.2-1.9-0.2c-0.4,0-0.9,0-1.5,0.1v0.5c0,0.6,0,1.5,0.1,2.7c0,1.2,0,2.1,0,2.7l4.7,1.7c1,0.4,2,0.6,3,0.7
			c0.2,0,0.4,0,0.5,0.1C50.7,28.9,50.8,29,50.9,29.1z M40.8,27.2c-1.4-0.4-2.4-0.6-3-0.6c-0.6,0-1.2,0.1-1.6,0.3
			c-0.6,0.3-0.8,0.7-0.8,1.3c0,0.5,0.4,0.9,1.1,1.2c0.5,0.2,1.2,0.3,1.8,0.3C39.7,29.6,40.6,28.8,40.8,27.2z"/>
		<path class="st2" d="M68.8,23.2c0,1.6-0.6,3.1-1.7,4.5c-1,1.2-2.3,2.2-3.9,2.9c-1.7,0.8-3,1.2-3.8,1.2c-0.4,0-0.9-0.2-1.3-0.6
			c-0.5-0.4-0.7-0.8-0.7-1.3c0-0.2,0.7-0.4,2.1-0.5c1.8-0.2,3.5-0.8,5.1-1.9c1.9-1.3,2.8-2.7,2.8-4.4c0-2-1-3-3.1-3
			c-1.6,0-3.4,0.5-5.4,1.6c-0.3,0.2-0.8,0.4-1.5,0.8c-0.2,0-0.4-0.1-0.6-0.4c-0.1-0.2-0.2-0.5-0.2-0.7c0-0.7,1.1-1.3,3.2-1.8
			C61.6,19.2,63,19,64,19c2,0,3.4,0.7,4.2,2C68.6,21.7,68.8,22.4,68.8,23.2z M67.2,15.4c0,0.3-0.1,0.5-0.4,0.7
			c-0.2,0.2-0.5,0.3-0.8,0.3c-0.2,0-0.5-0.1-0.9-0.2c-0.3-0.1-0.9-0.1-1.9-0.1c-1.4,0-2.5,0.1-3.3,0.2c-0.1,0-0.3,0.1-0.7,0.1
			c-0.3,0.1-0.5,0.1-0.7,0.1c-0.3,0-0.4-0.2-0.4-0.6c0-0.8,0.4-1.2,1.1-1.2c0.9-0.1,2-0.1,3.4-0.1h2.1C66.4,14.8,67.2,15,67.2,15.4z
			"/>
	</g>
</g>
<g>
	<g>
		<path class="st2" d="M1.8,7c1,0,2,0.1,2.9,0.2C5.1,7.1,5.3,7,5.6,7c0.6,0,0.9,0.3,0.9,0.8c0,0.2-0.1,0.4-0.4,0.6
			C5.5,9.2,5,10,4.6,10.9c-0.3,0.8-0.6,1.7-0.8,2.7c0.9,0.1,2.5,0.3,4.9,0.6c5.8,0.7,9.8,1.1,11.9,1.1c0.7,0,1.2,0,1.6-0.1
			c0.3-0.1,0.5-0.1,0.6-0.1c0.1,0,0.2,0.1,0.2,0.4c0,0.5-0.2,1-0.7,1.6c-0.4,0.6-0.8,0.9-1.1,0.9c-0.5,0-0.9-0.1-1.4-0.2
			c-6-1.4-10.1-2.2-12.4-2.6c-1.9-0.3-3.1-0.5-3.7-0.5c-0.7,0-1.4,0.6-2.2,1.7c-0.2,0.3-0.5,0.4-0.8,0.4c-0.5,0-0.7-0.2-0.7-0.6
			c0-0.2,0.6-0.9,1.7-2.1c0.2-0.2,0.3-0.3,0.5-0.4c0.5-2,1.1-3.8,1.9-5.3c0-0.2,0-0.2-0.1-0.3C4.1,8.2,4,8.2,4,8.2
			c-0.8,0-1.5,0-2.2,0.1C1.5,8.4,1.2,8.4,0.9,8.5c-0.4,0-0.6-0.2-0.6-0.6C0.3,7.3,0.8,7,1.8,7z M2,0.4l3.2,1.7
			c0.3,0.1,0.5,0.3,0.5,0.6C5.8,2.9,5.6,3,5.3,3L1.8,2.3C1.3,2.2,1,1.8,1,1.1C1,0.6,1.4,0.4,2,0.4z M10.8,0c0.6,0,0.9,0.3,0.9,0.9
			c-0.1,0.7-0.2,1.3-0.3,1.8h2.5c0.2,0,0.3,0.1,0.3,0.2c0,0.3-0.1,0.6-0.3,0.8c-0.2,0.2-0.5,0.3-0.8,0.3c-0.1,0-0.5,0-1-0.1
			c-0.5-0.1-1.1-0.1-1.7-0.1c0,0.6-0.1,1.2-0.1,1.7h2.1c0.1,0,0.4-0.1,0.8-0.2c0.5,0,0.8,0.3,0.8,0.8c-0.3,1.2-0.4,2.4-0.5,3.6
			c-0.1,1.6-0.5,2.7-1,3.2c-0.5,0.5-1.1,0.7-1.8,0.7c-0.4,0-0.7-0.1-0.9-0.4c-0.2-0.3-0.3-0.5-0.3-0.8c0-0.3,0.1-0.4,0.4-0.5
			c0.9-0.1,1.4-0.2,1.6-0.5c0.3-0.3,0.6-1.2,0.8-2.8c0.1-0.9,0.2-1.5,0.2-1.7c0-0.3-0.1-0.4-0.2-0.4H12c-0.5,0-1,0.1-1.5,0.2
			c-0.2,0.1-0.4,0.1-0.5,0.2c0,0.1,0,0.1,0,0.2c-0.3,1.4-0.7,2.6-1.1,3.5c-0.5,0.9-0.9,1.6-1.4,2c-0.3,0.3-0.6,0.5-0.9,0.5
			c-0.3,0-0.5-0.1-0.7-0.4c-0.1-0.2-0.2-0.3-0.2-0.5c0-0.2,0-0.3,0.1-0.4c0.6-0.4,1.2-1,1.7-1.9C8.1,9.2,8.5,8.3,8.8,7
			C9,6.2,9.2,5.1,9.3,3.9C8.7,3.9,8.3,4,8,4C7.7,4.1,7.5,4.2,7.4,4.2C7,4.1,6.7,3.9,6.7,3.5c0-0.2,0.1-0.4,0.4-0.5
			c0.2-0.1,0.4-0.2,0.8-0.2h2.3C10.1,2.1,10,1.6,9.8,1C9.8,0.3,10.1,0,10.8,0z M16.1,4.7c2.3,0,3.8,0,4.5,0.1h0.7
			c0.4,0,0.6,0.2,0.6,0.6c0,0.1-0.1,0.3-0.4,0.4c-0.7,0.4-1.5,1-2.5,1.7c-0.1,0-0.1,0.1-0.2,0.1c0.2,0.2,0.4,0.5,0.6,0.8
			c0.1,0.2,0.2,0.4,0.2,0.5h3C22.9,8.9,23,9,23,9.2c0,0.3-0.1,0.5-0.3,0.7c-0.2,0.2-0.5,0.3-0.8,0.3c-0.2,0-0.6-0.1-1.2-0.2
			c-0.3,0-0.5,0-0.8,0c0,0.2,0.1,0.5,0.1,0.8c0,0.9-0.1,1.6-0.4,2c-0.3,0.5-0.7,0.8-1.3,1.1c-0.5,0.2-1,0.3-1.4,0.3
			c-0.5,0-0.8-0.1-1.1-0.4c-0.2-0.3-0.4-0.6-0.4-1c0-0.2,0.2-0.3,0.5-0.3c0.9,0,1.5-0.1,1.8-0.2c0.3-0.1,0.5-0.3,0.6-0.5
			c0.1-0.2,0.2-0.5,0.2-0.9c0-0.3,0-0.6,0-0.8c-1.3,0-2.3,0.1-2.9,0.2c-0.3,0.1-0.6,0.2-0.7,0.2c-0.4,0-0.7-0.3-0.7-0.7
			c0-0.2,0.1-0.4,0.4-0.6c0.2-0.1,0.5-0.2,0.8-0.2h2.8c0-0.1,0-0.2-0.1-0.2c-0.2-0.4-0.5-0.8-1.1-1.2C17,7.5,17,7.4,17,7.3
			c0-0.4,0.2-0.6,0.5-0.6c0.1,0,0.3,0.1,0.6,0.3c0.1,0,0.1,0,0.1,0.1c0,0,0,0,0.1,0l1.4-1.1c0-0.1-0.2-0.2-0.5-0.2
			c-1.2,0-2.3,0.1-3.4,0.2c-0.5,0-0.7-0.1-0.7-0.4c0-0.2,0.1-0.4,0.3-0.6C15.5,4.8,15.8,4.7,16.1,4.7z M16.1,0C16.7,0,17,0.3,17,0.9
			c0,0.3-0.1,0.8-0.4,1.3h6.1c0.2,0,0.3,0.1,0.3,0.2c0,0.3-0.1,0.6-0.3,0.8c-0.2,0.2-0.5,0.3-0.8,0.3c-0.1,0-0.5-0.1-1-0.2
			c-0.5,0-1.1-0.1-1.7-0.1c-1.1,0-1.9,0.1-2.4,0.2c-0.3,0.1-0.5,0.2-0.6,0.2c-0.1,0-0.2,0-0.3-0.1c-0.1,0.1-0.2,0.3-0.3,0.4
			c-0.2,0.2-0.5,0.3-0.7,0.3c-0.3,0-0.4-0.1-0.4-0.4c0-0.1,0-0.1,0.1-0.2c0.6-1,0.9-2,0.9-3C15.5,0.2,15.7,0,16.1,0z"/>
		<path class="st2" d="M30.9,11.6c0,0.5-0.3,1.4-0.9,2.8c-0.6,1.4-1.1,2.1-1.5,2.1c-0.7,0-1.3-1-1.7-2.9c-0.3-1.3-0.4-2.6-0.4-3.8
			c0-1.4,0.2-3,0.5-5c0.5-2.6,1.1-3.9,1.9-3.9c0.2,0,0.4,0.1,0.6,0.2c0.1,0.2,0.2,0.4,0.3,0.7c-0.2,0.5-0.5,1.1-0.8,2.1
			c-0.7,2-1.1,3.9-1.1,5.9c0,2.8,0.3,4.2,0.8,4.2c0.2,0,0.5-0.5,1-1.4c0.5-0.9,0.9-1.4,1.1-1.4C30.9,11.1,30.9,11.2,30.9,11.6z
			 M45.2,14.6c-0.1,0.3-0.3,0.8-0.8,1.3c-0.5,0.6-0.8,0.9-1.1,0.9c-0.1,0-0.8-0.4-2-1.2c-1.4-0.9-2.2-1.4-2.4-1.5
			c-0.4,1.7-1.6,2.5-3.5,2.5c-0.8,0-1.5-0.2-2.1-0.6c-0.8-0.4-1.2-1-1.2-1.7c0-1.6,1.2-2.4,3.5-2.4c0.5,0,1.2,0.1,2,0.3
			c0-0.5,0-1.2,0-2.3c0-1,0-1.8,0-2.2c-2.2,0-3.8,0.2-4.8,0.5c-0.4-0.1-0.6-0.2-0.6-0.5c0-0.3,0.1-0.6,0.3-0.8
			c0.3-0.2,1.1-0.4,2.4-0.4c-0.9,0,0,0,2.7,0V3c-0.7,0-1.7,0.1-3,0.2c-1.1,0.1-1.6,0.2-1.5,0.2c-0.4,0-0.5-0.2-0.5-0.5
			c0-0.4,0.1-0.6,0.4-0.8c0.3-0.2,1.2-0.3,2.8-0.3h3.3c2.8,0,4.3,0,4.6,0.1c0.5,0.1,0.7,0.2,0.7,0.4c0,0.8-0.4,1.2-1.1,1.2
			c-0.2,0-0.7-0.1-1.7-0.3C41.1,3.1,40.3,3,39.2,3v3.4c0.7,0.1,2.2,0.1,4.5,0.1c0.5,0,0.8,0.1,0.9,0.2c0,0.2-0.2,0.5-0.5,0.9
			c-0.3,0.4-0.5,0.6-0.6,0.6l-2.4-0.5c-0.3,0-0.9-0.1-1.9-0.2c0,0.6,0,1.4,0,2.4c0,1.2,0,2,0,2.4c0.9,0.4,1.8,0.7,2.7,1.1
			c1.3,0.5,2.1,0.8,2.6,0.8C44.9,14.4,45.2,14.5,45.2,14.6z M37.5,13.4c-0.9-0.3-1.6-0.4-2.2-0.4c-1.4,0-2.1,0.4-2.1,1.2
			c0,0.3,0.2,0.6,0.7,0.8c0.4,0.2,0.8,0.3,1.1,0.3C36.4,15.2,37.3,14.6,37.5,13.4z M47.7,6.5c0,0.2-0.2,0.4-0.5,0.7
			c-0.3,0.2-0.6,0.4-0.8,0.4c-0.3,0-0.7-0.4-1.2-1.3c-0.5-0.9-0.8-1.5-0.8-1.8c0-0.2,0.1-0.3,0.2-0.3c0.2,0,0.3,0.1,0.5,0.3
			c0.7,0.9,1.4,1.5,2.2,1.7C47.5,6.2,47.6,6.3,47.7,6.5z M49.7,4.1c-0.1,0.2-0.2,0.4-0.5,0.7c-0.3,0.3-0.5,0.5-0.7,0.5
			c-0.4-0.1-0.9-0.5-1.5-1.2c-0.6-0.7-0.9-1.3-0.9-1.6c0-0.1,0.1-0.2,0.2-0.2c0.1,0,0.4,0.2,0.9,0.6c0.6,0.4,0.9,0.6,1,0.6
			C48.7,3.7,49.2,3.9,49.7,4.1z"/>
		<path class="st2" d="M65.1,9.2c0,1.6-0.6,3.1-1.7,4.5c-1,1.2-2.3,2.2-3.9,2.9c-1.7,0.8-3,1.2-3.8,1.2c-0.4,0-0.9-0.2-1.3-0.6
			c-0.5-0.4-0.7-0.8-0.7-1.3c0-0.2,0.7-0.4,2.1-0.5c1.8-0.2,3.5-0.8,5.1-1.9c1.9-1.3,2.8-2.7,2.8-4.4c0-2-1-3-3.1-3
			c-1.6,0-3.4,0.5-5.4,1.6c-0.3,0.2-0.8,0.4-1.5,0.8c-0.2,0-0.4-0.1-0.6-0.4c-0.1-0.2-0.2-0.5-0.2-0.7c0-0.7,1.1-1.3,3.2-1.8
			C57.9,5.2,59.2,5,60.2,5c2,0,3.4,0.7,4.2,2C64.8,7.8,65.1,8.5,65.1,9.2z M63.4,1.5c0,0.3-0.1,0.5-0.4,0.7
			c-0.2,0.2-0.5,0.3-0.8,0.3c-0.2,0-0.5-0.1-0.9-0.2c-0.3-0.1-0.9-0.1-1.9-0.1c-1.4,0-2.5,0.1-3.3,0.2c-0.1,0-0.3,0.1-0.7,0.1
			c-0.3,0.1-0.5,0.1-0.7,0.1c-0.3,0-0.4-0.2-0.4-0.6c0-0.8,0.4-1.2,1.1-1.2c0.9-0.1,2-0.1,3.4-0.1h2.1C62.6,0.9,63.4,1.1,63.4,1.5z"
			/>
	</g>
</g>
</svg>
