<?xml version="1.0" encoding="utf-8"?>
<!-- Generator: Adobe Illustrator 24.0.3, SVG Export Plug-In . SVG Version: 6.00 Build 0)  -->
<svg version="1.1" id="レイヤー_1" xmlns="http://www.w3.org/2000/svg" xmlns:xlink="http://www.w3.org/1999/xlink" x="0px"
	 y="0px" viewBox="0 0 49.3 18.3" style="enable-background:new 0 0 49.3 18.3;" xml:space="preserve">
<style type="text/css">
	.st0{display:none;}
	.st1{display:inline;}
	.st2{fill:#503819;}
</style>
<g class="st0">
	<g class="st1">
		<path class="st2" d="M15.3-13.5c0.2,0,0.5,0,0.7,0.1c0.3,0.1,0.6,0.1,1.1,0.1h3.7c0.8,0,1.8,0,3,0.1c0.2,0,0.5-0.1,0.9-0.2
			c0.5,0,0.7,0.3,0.7,0.8c0,0,0,0.1-0.1,0.3c-0.1,0.3-0.1,0.9-0.2,1.7c-0.1,1.1-0.1,2.3-0.1,3.5c0,0.9,0,2.1,0.1,3.6
			c0,0.6-0.2,0.8-0.7,0.8c-0.8-0.1-1.6-0.1-2.3-0.2c0,0,0,0,0,0.1c0,1-0.1,2.3-0.2,3.8c0,0.3,0.1,0.5,0.4,0.6c0.6,0.1,2,0.1,4.2,0.1
			c1.6,0,3-0.2,4.3-0.7c0.2,0,0.3,0.2,0.3,0.5c0,0.5-0.1,1-0.4,1.6c-0.3,0.6-0.7,1-1,1c-0.3,0-3-0.3-8.1-0.9
			c-0.8-0.1-1.2-0.5-1.2-1.1c0.1-1.3,0.2-2.3,0.2-2.9c0-0.7,0-1.4-0.1-2.1c-0.3,0-0.6,0-0.9,0c-0.3,0-0.5,0-0.7,0c0,0,0,0.1,0,0.1
			c0,0-0.1,0.1-0.1,0.2c-0.5,1-1.3,2.1-2.4,3.4c-1.2,1.1-2.4,2-3.7,2.6c-0.9,0.4-1.6,0.6-2.2,0.6C10.3,4.1,10,4,9.7,3.8
			C9.3,3.4,9.1,3,9.1,2.6c0-0.3,0.3-0.4,0.9-0.5c1.6-0.2,3.2-0.7,4.6-1.6c1.3-0.9,2.3-2,3-3.4c-0.4,0-0.7,0-0.9,0.1
			c-0.4,0-0.8,0.1-1.4,0.2c-0.5,0-0.7-0.2-0.7-0.7c0.1-1.7,0.2-3.2,0.2-4.5c0-1.4-0.1-3-0.2-4.9C14.6-13.3,14.8-13.5,15.3-13.5z
			 M19.8-4.1c1.1,0,2.3,0,3.6,0.1c0.3,0,0.4-0.1,0.4-0.3v-1.9c-3.2,0-5.7,0.1-7.5,0.2c0,0-0.1,0-0.1,0c0,0.6,0,1.1-0.1,1.6
			c0,0.3,0.2,0.4,0.6,0.4C17.6-4,18.6-4.1,19.8-4.1z M16.2-7.2c0.1,0,0.1,0,0.2,0h7.3c0,0,0.1,0,0.1,0v-1.9c-3.2,0-5.7,0.1-7.5,0.2
			h0C16.3-8.3,16.3-7.8,16.2-7.2z M16.3-10.2c0,0,0.1,0,0.1,0h7.4v-1.6c0-0.2-0.1-0.3-0.2-0.3c-1.6-0.1-3.8-0.1-6.8-0.1
			c-0.3,0-0.5,0.2-0.5,0.5C16.3-11.2,16.3-10.7,16.3-10.2z"/>
		<path class="st2" d="M49.5-10.4c0,0.4-0.2,0.6-0.6,0.6c-0.2,0-0.5,0-0.9-0.1C47.6-10,47.3-10,47.1-10c-2,0-3.8,0.6-5.4,1.8
			c-1.8,1.3-2.7,2.9-2.7,4.8c0,1.6,0.7,2.8,2.2,3.6c1.1,0.7,2.6,1,4.4,1c0.3,0,0.7,0,1.3-0.1c0.6-0.1,1-0.1,1.3-0.1
			c0.2,0,0.3,0.1,0.4,0.3c-0.1,0.5-0.4,1-0.9,1.5c-0.5,0.4-1.1,0.6-1.6,0.6c-2.2,0-4-0.6-5.6-1.7c-1.8-1.2-2.6-2.9-2.6-4.9
			c0-1.6,0.5-3,1.6-4.2c0.8-0.9,2.1-1.8,3.7-2.7c-3.4,0.3-6.6,0.8-9.6,1.6c-0.3,0.1-0.6,0.2-1.1,0.3c-0.5,0-0.7-0.3-0.7-0.7
			c0-0.5,0.1-0.8,0.3-1c0.2-0.2,0.7-0.4,1.5-0.5c2.3-0.3,5.4-0.6,9.2-0.9c3.2-0.2,5-0.4,5.6-0.4c0.3,0,0.6,0.1,0.8,0.4
			C49.4-11,49.5-10.7,49.5-10.4z"/>
		<path class="st2" d="M18.8,26.9c-0.1,0.3-0.4,0.7-0.9,1.2c-0.5,0.5-0.9,0.8-1.2,0.8c0.1,0-1.1-0.6-3.3-1.8c-0.5,0.9-1.2,1.9-2,2.8
			c-1.1,1.2-2,1.8-2.6,1.8c-0.3,0-0.8-0.2-1.4-0.5c-0.6-0.4-0.9-0.7-0.9-1c0-0.1,0.5-0.3,1.5-0.5c1.7-0.5,3.2-1.6,4.2-3.3
			c-1.8-0.8-3.7-1.5-5.7-2.1c-2.5,3.1-4.4,4.6-5.7,4.6c-0.6,0-1-0.3-1.4-0.8c-0.3-0.4-0.5-0.9-0.5-1.5c0-1.4,0.7-2.4,2.1-3
			C2,23.3,3.3,23,4.8,23c0.1,0,0.5,0,1,0.1c0.6-0.8,1.8-2.7,3.6-5.7c-1.2,0-2.1,0.1-2.5,0.1c-0.9,0.1-1.7,0.2-2.5,0.4
			c-0.7,0.2-1.1,0.3-1.2,0.3c-0.5,0-0.8-0.2-0.8-0.5c0-0.7,0.4-1.2,1.2-1.4c1.2-0.3,2.5-0.4,3.8-0.4H10c1,0,1.5,0.3,1.5,0.8
			c0,0.3-0.6,1.4-1.8,3.1c-1,1.5-1.8,2.7-2.5,3.6c1.5,0.4,3.4,0.9,5.7,1.7c0.3-0.9,0.6-1.7,0.6-2.4c0-0.4,0.2-0.6,0.7-0.6
			c0.4,0,0.6,0.2,0.6,0.6c0,0.7-0.3,1.7-0.8,2.9c1.5,0.6,2.9,0.9,4.2,1.1C18.6,26.6,18.7,26.7,18.8,26.9z M5,24.2
			c-0.5,0-0.8-0.1-1-0.1c-1,0-1.8,0.2-2.6,0.6c-0.9,0.5-1.4,1.2-1.4,2.1c0,0.6,0.2,0.9,0.6,0.9C1.7,27.7,3.1,26.6,5,24.2z"/>
		<path class="st2" d="M40.3,29.1c-0.1,0.3-0.4,0.7-1.1,1.3c-0.6,0.5-1,0.8-1.4,0.9l-3.5-2.2c-0.8-0.5-1.7-1-2.6-1.4
			c-0.3,2.2-1.7,3.2-4.1,3.2c-1,0-1.9-0.2-2.7-0.7c-1-0.6-1.4-1.3-1.4-2.1c0-1,0.5-1.7,1.4-2.2c0.7-0.4,1.6-0.5,2.7-0.5
			c0.7,0,1.6,0.1,2.5,0.3c-0.1-3-0.2-5.6-0.2-7.8v-1.9c0-1,0.3-1.5,1-1.5c0.4,0,0.6,0.6,0.8,1.9c0,0.8,0,1.6,0,2.4l2.3,0
			c1.4,0,2.6,0,3.5,0.1c0.5,0,0.7,0.2,0.7,0.5c0,0.2-0.1,0.5-0.4,0.9c-0.3,0.3-0.5,0.5-0.8,0.5c-0.6-0.1-1.2-0.3-1.9-0.4
			c-0.7-0.1-1.3-0.2-1.9-0.2c-0.4,0-0.9,0-1.5,0.1v0.5c0,0.6,0,1.5,0.1,2.7c0,1.2,0,2.1,0,2.7l4.7,1.7c1,0.4,2,0.6,3,0.7
			c0.2,0,0.4,0,0.5,0.1C40.2,28.9,40.3,29,40.3,29.1z M30.2,27.2c-1.4-0.4-2.4-0.6-3-0.6c-0.6,0-1.2,0.1-1.6,0.3
			c-0.6,0.3-0.8,0.7-0.8,1.3c0,0.5,0.4,0.9,1.1,1.2c0.5,0.2,1.2,0.3,1.8,0.3C29.2,29.6,30,28.8,30.2,27.2z"/>
		<path class="st2" d="M58.3,23.2c0,1.6-0.6,3.1-1.7,4.5c-1,1.2-2.3,2.2-3.9,2.9c-1.7,0.8-3,1.2-3.8,1.2c-0.4,0-0.9-0.2-1.3-0.6
			c-0.5-0.4-0.7-0.8-0.7-1.3c0-0.2,0.7-0.4,2.1-0.5c1.8-0.2,3.5-0.8,5.1-1.9c1.9-1.3,2.8-2.7,2.8-4.4c0-2-1-3-3.1-3
			c-1.6,0-3.4,0.5-5.4,1.6c-0.3,0.2-0.8,0.4-1.5,0.8c-0.2,0-0.4-0.1-0.6-0.4c-0.1-0.2-0.2-0.5-0.2-0.7c0-0.7,1.1-1.3,3.2-1.8
			c1.7-0.4,3.1-0.6,4.1-0.6c2,0,3.4,0.7,4.2,2C58.1,21.7,58.3,22.4,58.3,23.2z M56.7,15.4c0,0.3-0.1,0.5-0.4,0.7
			c-0.2,0.2-0.5,0.3-0.8,0.3c-0.2,0-0.5-0.1-0.9-0.2c-0.3-0.1-0.9-0.1-1.9-0.1c-1.4,0-2.5,0.1-3.3,0.2c-0.1,0-0.3,0.1-0.7,0.1
			c-0.3,0.1-0.5,0.1-0.7,0.1c-0.3,0-0.4-0.2-0.4-0.6c0-0.8,0.4-1.2,1.1-1.2c0.9-0.1,2-0.1,3.4-0.1h2.1C55.8,14.8,56.7,15,56.7,15.4z
			"/>
	</g>
</g>
<g>
	<g>
		<path class="st2" d="M0.3,13.7c0.4,0.1,0.7,0.1,0.9,0.1c0.5,0,1.2-0.2,1.9-0.6c0.2,0,0.3,0.1,0.3,0.3c0,0.2-0.3,0.7-0.8,1.4
			c-0.5,0.7-1,1.1-1.4,1.1c-0.3,0-0.6-0.2-0.8-0.5C0.1,15.1,0,14.6,0,14.1C0,13.8,0.1,13.7,0.3,13.7z M5.6,0c0.5,0,0.7,0.3,0.7,0.8
			c0,0.4-0.1,0.7-0.4,1.1C5,3.1,4.1,4.1,3.1,4.9C3,5,2.9,5.2,2.9,5.4c0,0,0.2,0.1,0.5,0.3C3.7,5.8,4,6,4.4,6.3c0,0,0.1,0,0.1,0.1
			c0.8-0.8,1.6-1.6,2.3-2.4C7,3.8,7.2,3.7,7.3,3.7c0.1,0,0.3,0.1,0.4,0.2c0.1,0.1,0.2,0.3,0.2,0.5c0,0.2-0.1,0.4-0.2,0.5
			C6.4,6.4,5,7.9,3.7,9.5C3.6,9.6,3.6,9.7,3.6,9.8c0,0,0,0.1,0.1,0.1c0.2,0.1,0.5,0.1,1.2,0.1c0.9,0,1.7,0,2.3-0.1
			c0.2,0,0.2-0.1,0.3-0.3C7.1,9.2,6.9,8.8,6.7,8.4C6.6,8.3,6.6,8.2,6.6,8.1c0-0.1,0.1-0.3,0.2-0.4s0.3-0.2,0.5-0.2
			c0.1,0,0.2,0.1,0.4,0.3c0.3,0.5,0.6,1.1,1,1.8c0.2,0.3,0.3,0.6,0.3,0.8c0,0.6-0.3,0.8-0.8,0.8c-0.3-0.1-0.6-0.1-0.9-0.1
			c-0.3,0-0.7,0-1,0.1c0.1,0.2,0.1,0.3,0.1,0.5c-0.1,0.7-0.1,1.3-0.1,1.9l0.1,3c0,1.1-0.3,1.6-0.9,1.6c-0.5,0-0.7-0.5-0.7-1.6
			c0.1-1.3,0.1-2.3,0.1-3c0-0.6,0-1.2-0.1-1.9c0-0.2,0-0.4,0.1-0.5c0,0,0,0-0.1,0c-0.5,0-1,0-1.5-0.1c-0.4,0-0.9,0-1.4,0.1
			c-0.7,0-1-0.2-1-0.6c0-0.3,0.1-0.5,0.3-0.8C2,9,2.9,8.1,3.7,7.2c-0.1,0-0.1,0-0.2-0.1c-1.1-0.5-2-0.9-2.5-1
			C0.7,6.1,0.5,5.9,0.5,5.7c0-0.2,0.1-0.5,0.4-0.7c0.5-0.3,0.9-0.6,1.4-1.1C3.2,3,4.1,1.8,5,0.4C5.2,0.1,5.4,0,5.6,0z M7.3,12.8
			c0.1,0,0.2,0,0.4,0.1c0.3,0.4,0.7,0.6,1.1,0.8c0.3,0.1,0.4,0.2,0.4,0.4c0,0.3-0.1,0.5-0.3,0.7C8.7,15,8.4,15.1,8,15.1
			c-0.2,0-0.4-0.3-0.6-0.8C7.1,13.8,7,13.4,7,13.2C7,12.9,7.1,12.8,7.3,12.8z M11.1,4.1c0.3,0,0.5,0.1,0.6,0.2L16,4.3
			c0-0.9-0.1-2-0.2-3.3c0-0.5,0.2-0.7,0.6-0.7c0.6,0,0.9,0.2,0.9,0.7c-0.1,0.3-0.1,0.8-0.1,1.3v2l3.4,0.1c0.2,0,0.6-0.1,1.2-0.2
			c0.7,0,1,0.2,1,0.6c-0.3,1.5-0.5,3.4-0.5,5.7c0,1.5,0.1,3.7,0.3,6.6c0,0.7-0.3,1-0.9,1c-0.2,0-0.4-0.1-0.6-0.4
			c-0.1-0.3-0.1-0.8-0.1-1.3c0-4.6,0.1-8.1,0.2-10.7c0-0.1-0.2-0.2-0.7-0.2c-1.1,0-2.2,0-3.3,0c0,1.4-0.1,2.6-0.3,3.6
			c0.2,0.1,0.7,0.6,1.7,1.4c1,1,1.5,1.6,1.5,2c0,0.4-0.2,0.6-0.7,0.6c-0.1,0-0.3-0.1-0.4-0.3c-1-1.1-1.8-1.8-2.3-2.1
			c-0.1-0.1-0.2-0.1-0.3-0.2c-0.3,0.8-0.7,1.5-1.2,2.1c-0.4,0.5-0.8,0.8-1.1,0.8c-0.4,0-0.8-0.2-1.3-0.6c-0.3-0.3-0.5-0.5-0.5-0.8
			c0-0.2,0.2-0.4,0.5-0.4c0.5-0.1,0.9-0.3,1.2-0.5c0.6-0.4,1.1-1.2,1.5-2.4c0.2-0.9,0.4-2,0.4-3.2c-1.5,0-2.8,0-4.2,0.1
			c0,1.8,0,3.1,0,3.9c0,3.3-0.2,5.5-0.7,6.7c-0.5,1.3-0.9,1.9-1.4,1.9c-0.4,0-0.8-0.2-1.2-0.6c-0.2-0.3-0.3-0.5-0.3-0.8
			c0-0.2,0.1-0.3,0.3-0.4c0.7-0.1,1.2-0.8,1.6-2c0.3-0.9,0.4-2.7,0.4-5.3c0-1.4-0.1-2.8-0.2-4.2C10.4,4.3,10.6,4.1,11.1,4.1z"/>
		<path class="st2" d="M33.2,4.6c0.4,0,0.6,0.2,0.6,0.5c0,0.2-0.1,0.5-0.2,0.7c-0.6,0.8-1.3,1.5-2,2.2c0.1,0.2,0.1,0.3,0.1,0.6
			c-0.1,1-0.1,1.9-0.1,2.8l0.1,5.2c0,1.1-0.3,1.6-0.9,1.6c-0.5,0-0.7-0.5-0.7-1.6c0.1-2.2,0.1-4,0.1-5.2c0-0.6,0-1.3-0.1-2.1
			c-0.3,0.2-0.6,0.5-0.9,0.7c-0.7,0.5-1.2,0.7-1.7,0.7c-0.4,0-0.8-0.2-1.2-0.5c-0.4-0.3-0.6-0.6-0.6-1c0-0.2,0.2-0.4,0.5-0.4
			c1.2-0.3,2.4-0.7,3.4-1.4c1.1-0.6,2.1-1.5,3.1-2.7C33,4.6,33.1,4.6,33.2,4.6z M32.9,0c0.4,0,0.6,0.2,0.6,0.5
			c0,0.2-0.1,0.4-0.2,0.6c-1.1,1.2-2.4,2.4-3.9,3.4c-0.6,0.4-1.1,0.6-1.5,0.6c-0.3,0-0.7-0.1-1.1-0.4c-0.4-0.3-0.5-0.6-0.5-0.9
			c0-0.2,0.2-0.3,0.5-0.3c1.1-0.2,2.1-0.6,3-1.1c1-0.5,1.9-1.2,2.8-2.1C32.7,0.1,32.8,0,32.9,0z M35.9,7.7h10.8
			C46.9,7.7,47,7.8,47,8c0,0.3-0.1,0.5-0.3,0.7C46.5,8.9,46.2,9,45.9,9c-0.2,0-0.6,0-1.1-0.1c0,0.1,0,0.1,0,0.2c0,0.1,0,0.3-0.1,0.5
			c-0.1,0.5-0.1,0.9-0.1,1.3c0.1,0,0.1,0,0.2,0c1.2,0.1,2.3,0.1,3.4,0.1c0.4,0,0.7,0,1.1-0.1c0.1,0,0.1,0.1,0.1,0.3
			c0,0.4-0.1,0.9-0.4,1.3c-0.3,0.5-0.5,0.7-0.8,0.7c-0.3,0-0.6-0.1-1-0.2c-0.9-0.3-1.8-0.6-2.7-0.8c0.1,1.3,0.1,2.4,0.1,3.2
			c0,1.2-0.5,2-1.4,2.4c-0.6,0.2-1.2,0.3-1.7,0.3c-0.4,0-0.7-0.1-1-0.3c-0.3-0.3-0.5-0.6-0.5-1c0-0.2,0.2-0.3,0.4-0.4
			c1-0.1,1.7-0.2,2-0.3c0.4-0.1,0.6-0.3,0.7-0.6c0.1-0.3,0.1-0.8,0.1-1.5c0-0.6,0-1.3-0.1-1.9C42.5,12,41.6,12,40.6,12
			c-1.3,0-2.4,0.1-3.4,0.3c-1,0.3-2,0.6-3,1.1c-0.3,0.1-0.5,0.2-0.7,0.2c-0.5,0-0.7-0.3-0.7-0.8c0-0.3,0.1-0.5,0.4-0.7
			c0.2-0.2,0.5-0.3,0.9-0.4c3.1-0.6,5.3-0.9,6.6-0.9c0.8,0,1.7,0,2.6,0.1c0-0.8-0.1-1.3-0.1-1.5c0-0.1,0-0.3,0.1-0.4
			c-0.8,0-1.7,0-2.6,0c-1.9,0-3.3,0.1-4.2,0.2c-0.5,0.1-0.8,0.2-1,0.2c-0.5,0-0.8-0.3-0.8-0.7c0-0.2,0.2-0.5,0.4-0.7
			C35.2,7.8,35.5,7.7,35.9,7.7z M39,13.8c0.2,0,0.3,0.1,0.3,0.3c0,0.2-0.1,0.3-0.2,0.5c-1.7,1.7-2.7,2.5-2.9,2.5
			c-0.6,0-0.9-0.2-0.9-0.5c0-0.5,0.1-0.8,0.3-0.9C35.5,15.6,36.7,15,39,13.8z M36.7,0.2c0.2,0,0.5,0,0.8,0.1
			c0.2,0.1,0.6,0.1,1.1,0.1h3.1c0.7,0,1.5,0,2.5,0.1c0.2,0,0.5-0.1,0.9-0.2c0.5,0,0.7,0.3,0.7,0.8c0,0,0,0.1-0.1,0.2
			c-0.1,0.2-0.1,0.5-0.2,1c-0.1,0.6-0.1,1.3-0.1,2c0,0.4,0,1,0.1,1.7c0,0.6-0.2,0.8-0.7,0.8c-1.4-0.1-2.7-0.2-3.9-0.2
			c-1.6,0-2.6,0-3,0.1c-0.4,0-0.8,0.1-1.3,0.2c-0.5,0-0.7-0.2-0.7-0.7c0.1-1,0.2-1.9,0.2-2.6c0-0.7-0.1-1.6-0.2-2.5
			C36,0.4,36.3,0.2,36.7,0.2z M41.1,5.4c0.8,0,1.7,0,2.8,0.1c0.3,0,0.4-0.1,0.4-0.3V3.9c-2.8,0-4.9,0.1-6.5,0.2c0,0-0.1,0-0.1,0
			c0,0.3-0.1,0.6-0.1,0.9c0,0.3,0.2,0.4,0.6,0.4C39,5.4,40,5.4,41.1,5.4z M37.7,2.9c0,0,0.1,0,0.1,0h6.3c0.1,0,0.1,0,0.1,0v-1
			c0-0.2-0.1-0.3-0.2-0.3c-1.3-0.1-3.2-0.1-5.8-0.1c-0.3,0-0.5,0.2-0.5,0.5C37.7,2.3,37.7,2.6,37.7,2.9z"/>
	</g>
</g>
</svg>
