<?xml version="1.0" encoding="utf-8"?>
<!-- Generator: Adobe Illustrator 24.0.3, SVG Export Plug-In . SVG Version: 6.00 Build 0)  -->
<svg version="1.1" id="レイヤー_1" xmlns="http://www.w3.org/2000/svg" xmlns:xlink="http://www.w3.org/1999/xlink" x="0px"
	 y="0px" viewBox="0 0 102.1 102.1" style="enable-background:new 0 0 102.1 102.1;" xml:space="preserve">
<style type="text/css">
	.st0{fill:#498C43;}
	.st1{fill:#F4EEE9;}
	.st2{fill:#503819;}
</style>
<g>
	<circle class="st0" cx="51" cy="51" r="51"/>
	<circle class="st1" cx="51" cy="51" r="44.7"/>
	<g>
		<g>
			<path class="st2" d="M26.5,55.7c0.4,0.1,0.7,0.1,0.9,0.1c0.5,0,1.2-0.2,1.9-0.6c0.2,0,0.3,0.1,0.3,0.3c0,0.2-0.3,0.7-0.8,1.4
				c-0.5,0.7-1,1.1-1.4,1.1c-0.3,0-0.6-0.2-0.8-0.5c-0.3-0.4-0.4-0.8-0.4-1.4C26.2,55.8,26.3,55.7,26.5,55.7z M31.8,42
				c0.5,0,0.7,0.3,0.7,0.8c0,0.4-0.1,0.7-0.4,1.1c-0.8,1.1-1.7,2.1-2.7,3c-0.2,0.1-0.3,0.3-0.3,0.5c0,0,0.2,0.1,0.5,0.3
				c0.3,0.1,0.6,0.3,1.1,0.6c0,0,0.1,0,0.1,0.1c0.8-0.8,1.5-1.6,2.3-2.4c0.1-0.1,0.3-0.2,0.5-0.2c0.1,0,0.3,0.1,0.4,0.2
				c0.1,0.1,0.2,0.3,0.2,0.5c0,0.2-0.1,0.4-0.2,0.5c-1.3,1.4-2.7,2.9-4,4.4c-0.1,0.1-0.1,0.3-0.1,0.4c0,0,0,0.1,0.1,0.1
				C30,52,30.4,52,31,52c0.9,0,1.7,0,2.3-0.1c0.2,0,0.2-0.1,0.3-0.3c-0.2-0.4-0.4-0.9-0.6-1.3c-0.1-0.1-0.1-0.2-0.1-0.3
				c0-0.1,0.1-0.2,0.2-0.4s0.3-0.2,0.5-0.2c0.1,0,0.2,0.1,0.4,0.3c0.3,0.5,0.6,1.1,1,1.8c0.2,0.3,0.3,0.6,0.3,0.8
				c0,0.6-0.3,0.8-0.8,0.8c-0.3-0.1-0.6-0.1-0.9-0.1c-0.3,0-0.7,0-1,0.1c0.1,0.2,0.1,0.3,0.1,0.5c-0.1,0.7-0.1,1.3-0.1,1.9l0.1,3
				c0,1.1-0.3,1.6-0.9,1.6c-0.5,0-0.7-0.5-0.7-1.6c0.1-1.3,0.1-2.3,0.1-3c0-0.6,0-1.2-0.1-1.9c0-0.2,0-0.4,0.1-0.5c0,0,0,0-0.1,0
				c-0.5,0-1,0-1.5-0.1c-0.4,0-0.9,0-1.4,0.1c-0.7,0-1-0.2-1-0.6c0-0.3,0.1-0.5,0.3-0.8c0.9-0.9,1.7-1.8,2.6-2.6
				c-0.1,0-0.1,0-0.2-0.1c-1.1-0.5-2-0.9-2.5-1c-0.3-0.1-0.5-0.2-0.5-0.4c0-0.2,0.1-0.5,0.4-0.7c0.5-0.3,0.9-0.6,1.4-1.1
				c1-0.9,1.9-2.1,2.7-3.5C31.4,42.1,31.6,42,31.8,42z M33.5,54.8c0.1,0,0.2,0,0.4,0.1c0.3,0.4,0.7,0.6,1.1,0.8
				c0.3,0.1,0.4,0.2,0.4,0.4c0,0.3-0.1,0.5-0.3,0.7c-0.2,0.2-0.5,0.3-0.9,0.3c-0.2,0-0.4-0.3-0.6-0.8c-0.2-0.5-0.4-0.9-0.4-1.1
				C33.2,54.9,33.3,54.8,33.5,54.8z M37.3,46c0.3,0,0.5,0.1,0.6,0.2l4.4,0.1c0-0.9-0.1-2-0.2-3.3c0-0.5,0.2-0.7,0.6-0.7
				c0.6,0,0.9,0.2,0.9,0.7c-0.1,0.3-0.1,0.8-0.1,1.3v2l3.4,0.1c0.2,0,0.6-0.1,1.2-0.2c0.7,0,1,0.2,1,0.6c-0.3,1.5-0.5,3.4-0.5,5.7
				c0,1.5,0.1,3.7,0.3,6.6c0,0.7-0.3,1-0.9,1c-0.2,0-0.4-0.1-0.6-0.4c-0.1-0.3-0.1-0.8-0.1-1.3c0-4.6,0.1-8.1,0.2-10.7
				c0-0.1-0.2-0.2-0.7-0.2c-1.1,0-2.2,0-3.3,0c0,1.4-0.1,2.6-0.3,3.6c0.2,0.1,0.7,0.6,1.7,1.4c1,1,1.5,1.6,1.5,2
				c0,0.4-0.2,0.6-0.7,0.6c-0.1,0-0.3-0.1-0.4-0.3c-1-1.1-1.8-1.8-2.3-2.1c-0.1-0.1-0.2-0.1-0.3-0.2c-0.3,0.8-0.7,1.5-1.2,2.1
				c-0.4,0.5-0.8,0.8-1.1,0.8c-0.4,0-0.8-0.2-1.3-0.6c-0.3-0.3-0.5-0.5-0.5-0.8c0-0.2,0.2-0.4,0.5-0.4c0.5-0.1,0.9-0.3,1.2-0.5
				c0.6-0.4,1.1-1.2,1.5-2.4c0.2-0.9,0.4-2,0.4-3.2c-1.5,0-2.8,0-4.2,0.1c0,1.8,0,3.1,0,3.9c0,3.3-0.2,5.5-0.7,6.7
				c-0.5,1.3-0.9,1.9-1.4,1.9c-0.4,0-0.8-0.2-1.2-0.6c-0.2-0.3-0.3-0.5-0.3-0.8c0-0.2,0.1-0.3,0.3-0.4c0.7-0.1,1.2-0.8,1.6-2
				c0.3-0.9,0.4-2.7,0.4-5.3c0-1.4-0.1-2.8-0.2-4.2C36.6,46.3,36.8,46,37.3,46z"/>
			<path class="st2" d="M59.4,46.6c0.4,0,0.6,0.2,0.6,0.5c0,0.2-0.1,0.5-0.2,0.7c-0.6,0.8-1.3,1.5-2,2.2c0.1,0.2,0.1,0.3,0.1,0.6
				c-0.1,1-0.1,1.9-0.1,2.8l0.1,5.2c0,1.1-0.3,1.6-0.9,1.6c-0.5,0-0.7-0.5-0.7-1.6c0.1-2.2,0.1-4,0.1-5.2c0-0.6,0-1.3-0.1-2.1
				c-0.3,0.2-0.6,0.5-0.9,0.7c-0.7,0.5-1.2,0.7-1.7,0.7c-0.4,0-0.8-0.2-1.2-0.5c-0.4-0.3-0.6-0.6-0.6-1c0-0.2,0.2-0.4,0.5-0.4
				c1.2-0.3,2.4-0.7,3.4-1.4c1.1-0.6,2.1-1.5,3.1-2.7C59.2,46.6,59.3,46.6,59.4,46.6z M59.1,42c0.4,0,0.6,0.2,0.6,0.5
				c0,0.2-0.1,0.4-0.2,0.6c-1.1,1.2-2.4,2.4-3.9,3.4c-0.6,0.4-1.1,0.6-1.5,0.6c-0.3,0-0.7-0.1-1.1-0.4c-0.4-0.3-0.5-0.6-0.5-0.9
				c0-0.2,0.2-0.3,0.5-0.3c1.1-0.2,2.1-0.6,3-1.1c1-0.5,1.9-1.2,2.8-2.1C58.9,42.1,59,42,59.1,42z M62.1,49.7h10.8
				c0.2,0,0.3,0.1,0.3,0.3c0,0.3-0.1,0.5-0.3,0.7c-0.2,0.2-0.5,0.3-0.8,0.3c-0.2,0-0.6,0-1.1-0.1c0,0.1,0,0.1,0,0.2
				c0,0.1,0,0.3-0.1,0.5c-0.1,0.5-0.1,0.9-0.1,1.3c0.1,0,0.1,0,0.2,0c1.2,0.1,2.3,0.1,3.4,0.1c0.4,0,0.7,0,1.1-0.1
				c0.1,0,0.1,0.1,0.1,0.3c0,0.4-0.1,0.9-0.4,1.3c-0.3,0.5-0.5,0.7-0.8,0.7c-0.3,0-0.6-0.1-1-0.2c-0.9-0.3-1.8-0.6-2.7-0.8
				c0.1,1.3,0.1,2.4,0.1,3.2c0,1.2-0.5,2-1.4,2.4c-0.6,0.2-1.2,0.3-1.7,0.3c-0.4,0-0.7-0.1-1-0.3c-0.3-0.3-0.5-0.6-0.5-1
				c0-0.2,0.2-0.3,0.4-0.4c1-0.1,1.7-0.2,2-0.3c0.4-0.1,0.6-0.3,0.7-0.6c0.1-0.3,0.1-0.8,0.1-1.5c0-0.6,0-1.3-0.1-1.9
				C68.7,54,67.8,54,66.8,54c-1.3,0-2.4,0.1-3.4,0.3c-1,0.3-2,0.6-3,1.1c-0.3,0.1-0.5,0.2-0.7,0.2c-0.5,0-0.7-0.3-0.7-0.8
				c0-0.3,0.1-0.5,0.4-0.7c0.2-0.2,0.5-0.3,0.9-0.4c3.1-0.6,5.3-0.9,6.6-0.9c0.8,0,1.7,0,2.6,0.1c0-0.8-0.1-1.3-0.1-1.5
				c0-0.1,0-0.3,0.1-0.4c-0.8,0-1.7,0-2.6,0c-1.9,0-3.3,0.1-4.2,0.2c-0.5,0.1-0.8,0.2-1,0.2c-0.5,0-0.8-0.3-0.8-0.7
				c0-0.2,0.2-0.5,0.4-0.7C61.4,49.8,61.7,49.7,62.1,49.7z M65.2,55.8c0.2,0,0.3,0.1,0.3,0.3c0,0.2-0.1,0.3-0.2,0.5
				c-1.7,1.7-2.7,2.5-2.9,2.5c-0.6,0-0.9-0.2-0.9-0.5c0-0.5,0.1-0.8,0.3-0.9C61.7,57.6,62.9,56.9,65.2,55.8z M62.9,42.2
				c0.2,0,0.5,0,0.8,0.1c0.2,0.1,0.6,0.1,1.1,0.1h3.1c0.7,0,1.5,0,2.5,0.1c0.2,0,0.5-0.1,0.9-0.2c0.5,0,0.7,0.3,0.7,0.8
				c0,0,0,0.1-0.1,0.2c-0.1,0.2-0.1,0.5-0.2,1c-0.1,0.6-0.1,1.3-0.1,2c0,0.4,0,1,0.1,1.7c0,0.6-0.2,0.8-0.7,0.8
				c-1.4-0.1-2.7-0.2-3.9-0.2c-1.6,0-2.6,0-3,0.1c-0.4,0-0.8,0.1-1.3,0.2c-0.5,0-0.7-0.2-0.7-0.7c0.1-1,0.2-1.9,0.2-2.6
				c0-0.7-0.1-1.6-0.2-2.5C62.2,42.4,62.5,42.2,62.9,42.2z M67.3,47.4c0.8,0,1.7,0,2.8,0.1c0.3,0,0.4-0.1,0.4-0.3v-1.2
				c-2.8,0-4.9,0.1-6.5,0.2c0,0-0.1,0-0.1,0c0,0.3-0.1,0.6-0.1,0.9c0,0.3,0.2,0.4,0.6,0.4C65.2,47.4,66.2,47.4,67.3,47.4z
				 M63.9,44.9c0,0,0.1,0,0.1,0h6.3c0.1,0,0.1,0,0.1,0v-1c0-0.2-0.1-0.3-0.2-0.3c-1.3-0.1-3.2-0.1-5.8-0.1c-0.3,0-0.5,0.2-0.5,0.5
				C63.9,44.3,63.9,44.6,63.9,44.9z"/>
		</g>
	</g>
</g>
<circle class="st0" cx="412.8" cy="187.6" r="51"/>
<circle class="st1" cx="412.8" cy="187.6" r="44.7"/>
<g>
	<g>
		<path class="st2" d="M394.6,178.8c1,0,2.1,0.1,3.2,0.2c0.2,0,0.5,0,0.9-0.1c0.5,0,0.8,0.2,0.8,0.7c0,0.1-0.1,0.3-0.4,0.5
			c-0.5,0.6-1,1.1-1.5,1.7c-0.8,1-1.8,1.9-2.9,2.9c-1.1,0.9-2.2,1.7-3.3,2.2c-0.4,0.2-0.7,0.4-1,0.4c-0.4,0-0.8-0.2-1.3-0.7
			c-0.3-0.3-0.4-0.6-0.4-1c0-0.3,0.2-0.4,0.4-0.4c1.6-0.2,3.1-0.7,4.5-1.7c0.1-0.1,0.2-0.1,0.3-0.2c0,0-0.1,0-0.1-0.1
			c-0.7-0.4-1.2-0.7-1.6-0.8c-0.3-0.1-0.5-0.2-0.5-0.4c0-0.6,0.3-0.8,0.9-0.8c0.1,0,0.5,0.2,1.1,0.6c0.5,0.3,0.8,0.6,0.9,0.8
			c0.7-0.6,1.4-1.3,2.1-2c0.3-0.2,0.4-0.3,0.4-0.4c0-0.1-0.1-0.2-0.3-0.2c-0.8,0-1.9,0.1-3,0.3c-0.4,0-0.6-0.2-0.6-0.6
			c0-0.3,0.1-0.5,0.3-0.7C393.9,178.9,394.2,178.8,394.6,178.8z M396.2,184.7h9.4c0.2,0,0.4,0.1,0.4,0.3c0,0.3-0.1,0.6-0.3,0.9
			c-0.2,0.2-0.6,0.4-0.9,0.4c-0.2,0-0.7-0.1-1.6-0.2c0,0.1,0.1,0.2,0.1,0.3c0,0.9,0,1.9,0,3h4.7c0.2,0,0.4,0.1,0.4,0.3
			c0,0.3-0.1,0.6-0.3,0.9c-0.2,0.2-0.5,0.4-0.9,0.4c-0.3,0-1.2-0.1-2.6-0.2c-0.4,0-0.9,0-1.3-0.1c0,1,0,2.1-0.1,3.2
			c0,0.2,0.1,0.3,0.2,0.3c0.3,0,0.9,0.1,2,0.1c1.7,0,3.2-0.2,4.5-0.5c0.2,0,0.3,0.2,0.3,0.5c0,0.5-0.2,1-0.5,1.5
			c-0.3,0.6-0.7,0.9-1,0.9c-0.3,0-2.3-0.3-6.2-0.8c-0.6-0.1-0.9-0.4-0.9-0.9c0.1-1.8,0.1-3.3,0.1-4.4c-0.6,0-1.2,0-1.8,0
			c-0.5,0-0.9,0-1.4,0c-0.1,0.6-0.3,1.2-0.5,1.7c-0.6,1.3-1.2,2.3-2.1,3c-1.1,1-2,1.5-2.9,1.5c-0.3,0-0.6-0.1-0.8-0.4
			c-0.4-0.4-0.6-0.8-0.6-1.1c0-0.2,0.2-0.3,0.5-0.4c1-0.2,1.7-0.4,2.3-0.7c1-0.4,1.8-1.4,2.4-2.8c0.1-0.2,0.2-0.4,0.2-0.6
			c-1.2,0-2.1,0.1-2.8,0.2c-0.7,0.2-1.1,0.2-1.3,0.2c-0.6,0-0.9-0.3-0.9-0.8c0-0.2,0.2-0.5,0.4-0.7c0.2-0.1,0.6-0.2,1-0.2h3.8
			c0.1-0.7,0.2-1.4,0.2-2.1v-1.1c0-0.1,0-0.1,0-0.1c-0.4,0-0.7,0.1-1,0.1c-0.4,0.1-0.7,0.2-0.8,0.2c-0.5,0-0.8-0.3-0.8-0.7
			c0-0.2,0.2-0.5,0.4-0.7C395.5,184.8,395.8,184.7,396.2,184.7z M401.7,189.4c0-1-0.1-2.1-0.1-3.2c0-0.1,0-0.1,0-0.2
			c-0.5,0-0.9,0-1.4,0c-0.5,0-0.9,0-1.2,0c0,0.1,0.1,0.2,0.1,0.3c-0.1,0.7-0.2,1.5-0.3,2.4c0,0.2,0,0.5-0.1,0.7H401.7z M405.5,178.5
			c0.4,0,0.6,0.3,0.6,0.8c0,0.3-0.1,0.5-0.4,0.6l-1.6,1c0.5,0.5,1,0.8,1.5,1.2c0,0,0-0.1,0.1-0.1l1.8-1.5c0.2-0.2,0.4-0.2,0.5-0.2
			c0.4,0,0.6,0.3,0.6,0.8c0,0.3-0.1,0.5-0.4,0.6l-1.9,1c1.6,1.2,2.6,1.9,3.1,2.2c0.6,0.2,1.2,0.3,2,0.4c0.3,0,0.5,0.1,0.5,0.4
			c0,0.4-0.3,0.7-0.9,1.1c-0.6,0.4-1.1,0.5-1.8,0.5c-0.4,0-0.8-0.1-1.1-0.4c-1.4-1.7-3-3.4-4.9-5.1c-0.8-0.7-1.5-1.2-2.1-1.6
			c-0.3-0.2-0.5-0.4-0.5-0.7c0-0.4,0.2-0.6,0.7-0.6c0.3,0,0.7,0.3,1.2,0.9c0.2,0.2,0.5,0.4,0.7,0.5c0,0,0-0.1,0.1-0.1l1.6-1.6
			C405.2,178.6,405.4,178.5,405.5,178.5z"/>
		<path class="st2" d="M420.3,178.9c0.2,0,0.5,0,0.7,0.1c0.3,0.1,0.6,0.1,1.1,0.1h3.7c0.8,0,1.8,0,3,0.1c0.2,0,0.5-0.1,0.9-0.2
			c0.5,0,0.7,0.3,0.7,0.8c0,0,0,0.1-0.1,0.3c-0.1,0.3-0.1,0.9-0.2,1.7c-0.1,1.1-0.1,2.3-0.1,3.5c0,0.9,0,2.1,0.1,3.6
			c0,0.6-0.2,0.8-0.7,0.8c-0.8-0.1-1.6-0.1-2.3-0.2c0,0,0,0,0,0.1c0,1-0.1,2.3-0.2,3.8c0,0.3,0.1,0.5,0.4,0.6c0.6,0.1,2,0.1,4.2,0.1
			c1.6,0,3-0.2,4.3-0.7c0.2,0,0.3,0.2,0.3,0.5c0,0.5-0.1,1-0.4,1.6c-0.3,0.6-0.7,1-1,1c-0.3,0-3-0.3-8.1-0.9
			c-0.8-0.1-1.2-0.5-1.2-1.1c0.1-1.3,0.2-2.3,0.2-2.9c0-0.7,0-1.4-0.1-2.1c-0.3,0-0.6,0-0.9,0c-0.3,0-0.5,0-0.7,0c0,0,0,0.1,0,0.1
			c0,0-0.1,0.1-0.1,0.2c-0.5,1-1.3,2.1-2.4,3.4c-1.2,1.1-2.4,2-3.7,2.6c-0.9,0.4-1.6,0.6-2.2,0.6c-0.3,0-0.6-0.1-0.9-0.4
			c-0.4-0.4-0.6-0.7-0.6-1.1c0-0.3,0.3-0.4,0.9-0.5c1.6-0.2,3.2-0.7,4.6-1.6c1.3-0.9,2.3-2,3-3.4c-0.4,0-0.7,0-0.9,0.1
			c-0.4,0-0.8,0.1-1.4,0.2c-0.5,0-0.7-0.2-0.7-0.7c0.1-1.7,0.2-3.2,0.2-4.5c0-1.4-0.1-3-0.2-4.9
			C419.6,179.2,419.8,178.9,420.3,178.9z M424.8,188.4c1.1,0,2.3,0,3.6,0.1c0.3,0,0.4-0.1,0.4-0.3v-1.9c-3.2,0-5.7,0.1-7.5,0.2
			c0,0-0.1,0-0.1,0c0,0.6,0,1.1-0.1,1.6c0,0.3,0.2,0.4,0.6,0.4C422.6,188.4,423.6,188.4,424.8,188.4z M421.2,185.2
			c0.1,0,0.1,0,0.2,0h7.3c0,0,0.1,0,0.1,0v-1.9c-3.2,0-5.7,0.1-7.5,0.2h0C421.3,184.1,421.3,184.7,421.2,185.2z M421.3,182.3
			c0,0,0.1,0,0.1,0h7.4v-1.6c0-0.2-0.1-0.3-0.2-0.3c-1.6-0.1-3.8-0.1-6.8-0.1c-0.3,0-0.5,0.2-0.5,0.5
			C421.3,181.3,421.3,181.8,421.3,182.3z"/>
	</g>
</g>
</svg>
