<?xml version="1.0" encoding="utf-8"?>
<!-- Generator: Adobe Illustrator 24.0.3, SVG Export Plug-In . SVG Version: 6.00 Build 0)  -->
<svg version="1.1" id="レイヤー_1" xmlns="http://www.w3.org/2000/svg" xmlns:xlink="http://www.w3.org/1999/xlink" x="0px"
	 y="0px" viewBox="0 0 102.1 102.1" style="enable-background:new 0 0 102.1 102.1;" xml:space="preserve">
<style type="text/css">
	.st0{fill:#498C43;}
	.st1{fill:#F4EEE9;}
	.st2{fill:#503819;}
</style>
<g>
	<circle class="st0" cx="51" cy="51" r="51"/>
	<circle class="st1" cx="51" cy="51" r="44.7"/>
	<g>
		<g>
			<path class="st2" d="M30.9,28.9c0.7,0,1.1,0.3,1.1,0.9c0,1.7,0,3.3-0.1,4.8c0.1,0,0.2,0,0.3,0h5.2c0.2,0,0.3,0.1,0.3,0.2
				c0,0.3-0.1,0.6-0.3,0.8c-0.2,0.2-0.5,0.3-0.8,0.3c-0.1,0-0.4,0-0.8-0.1c-0.5,0-0.9,0-1.5,0c-1,0-1.7,0.1-2.1,0.2
				C32,36,31.9,36,31.9,36c-0.1,2-0.2,3.9-0.3,5.7c0,0.2,0.1,0.3,0.2,0.3c3.1-0.6,4.9-0.9,5.4-0.9c0.4,0,0.6,0.2,0.6,0.5
				c0,0.6-0.3,0.9-0.8,0.9c-1.7,0.2-3.2,0.4-4.2,0.8c-0.8,0.2-1.4,0.5-1.8,0.8c-0.3,0.2-0.6,0.3-0.8,0.3c-0.5,0-0.8-0.3-0.8-1
				c0-0.2,0.1-0.5,0.3-1c0.2-0.4,0.3-1.1,0.4-1.9c0.2-1.7,0.3-3.3,0.3-4.8c0-2-0.1-4-0.3-6C30,29.1,30.3,28.9,30.9,28.9z M40.1,28.7
				c0.6,0,0.9,0.3,0.9,0.8c0,1.6,0,3.3-0.1,5.3c2.2-0.8,3.9-1.6,5.1-2.3c0.2-0.1,0.3-0.2,0.4-0.2c0.6,0,0.9,0.3,0.9,0.9
				c0,0.3-0.2,0.6-0.6,0.8c-0.9,0.4-2.1,0.8-3.7,1.3c-1.1,0.4-1.8,0.6-2,0.6c0,0,0,0-0.1,0c0,2-0.1,4.2-0.1,6.6
				c0,0.1,0.2,0.2,0.5,0.2c0.6,0,2,0.1,4.4,0.1c1.7,0,3.3-0.3,4.7-1c0.2,0,0.3,0.2,0.3,0.5c0,0.5-0.2,1.1-0.5,1.8
				c-0.4,0.7-0.8,1.1-1.1,1.1c-0.4,0-3.2-0.2-8.5-0.7c-0.8-0.1-1.2-0.4-1.2-0.9c0.1-3.4,0.2-5.9,0.2-7.7c0-2,0-4.2-0.1-6.6
				C39.4,28.9,39.6,28.7,40.1,28.7z"/>
			<path class="st2" d="M73.1,40.7C73,41,72.7,41.5,72,42c-0.6,0.6-1.1,0.9-1.4,0.9c-0.3,0-0.7-0.3-1.2-0.8
				c-1.3-1.3-2.8-2.7-4.6-4.3c-2.5-2.3-4-3.5-4.4-3.5c-0.3,0-1.4,0.9-3.2,2.7c-1.8,1.8-2.9,2.7-3.3,2.7c-0.3,0-0.5-0.1-0.7-0.3
				c-0.2-0.2-0.3-0.5-0.3-0.8c0-0.3,0.2-0.7,0.6-1c2-1.5,3.8-2.9,5.3-4.2c0.5-0.4,1-0.6,1.5-0.6c0.6,0,1.4,0.5,2.6,1.4l5.5,4.1
				c1.4,1.1,2.8,1.8,4.1,2.1C72.6,40.5,72.9,40.6,73.1,40.7z M67.6,31.5c0,0.2-0.2,0.4-0.5,0.7c-0.3,0.3-0.6,0.4-0.8,0.4
				c-0.3,0-0.7-0.4-1.3-1.3c-0.5-0.9-0.8-1.5-0.8-1.8c0-0.2,0.1-0.3,0.2-0.3c0.2,0,0.3,0.1,0.4,0.3c0.8,0.9,1.5,1.5,2.3,1.7
				C67.4,31.2,67.5,31.4,67.6,31.5z M70.9,30.4c-0.1,0.2-0.2,0.4-0.5,0.6c-0.3,0.3-0.5,0.5-0.7,0.5c-0.4-0.1-0.9-0.5-1.6-1.2
				c-0.6-0.7-0.9-1.2-0.9-1.6c0-0.1,0.1-0.2,0.2-0.2l1.2,0.8c0.8,0.5,1.5,0.8,1.8,0.9C70.7,30.2,70.8,30.3,70.9,30.4z"/>
			<path class="st2" d="M49.1,71.1c-0.1,0.3-0.4,0.7-1.1,1.3c-0.6,0.5-1,0.8-1.4,0.9l-3.5-2.2c-0.8-0.5-1.7-1-2.6-1.4
				C40.3,71.9,39,73,36.6,73c-1,0-1.9-0.2-2.7-0.7c-1-0.6-1.4-1.3-1.4-2.1c0-1,0.5-1.7,1.4-2.2c0.7-0.4,1.6-0.5,2.7-0.5
				c0.7,0,1.6,0.1,2.5,0.3c-0.1-3-0.2-5.6-0.2-7.8v-1.9c0-1,0.3-1.5,1-1.5c0.4,0,0.6,0.6,0.8,1.9c0,0.8,0,1.6,0,2.4l2.3,0
				c1.4,0,2.6,0,3.5,0.1c0.5,0,0.7,0.2,0.7,0.5c0,0.2-0.1,0.5-0.4,0.9c-0.3,0.3-0.5,0.5-0.8,0.5c-0.6-0.1-1.2-0.3-1.9-0.4
				c-0.7-0.1-1.3-0.2-1.9-0.2c-0.4,0-0.9,0-1.5,0.1v0.5c0,0.6,0,1.5,0.1,2.7c0,1.2,0,2.1,0,2.7l4.7,1.7c1,0.4,2,0.6,3,0.7
				c0.2,0,0.4,0,0.5,0.1C49,70.9,49.1,71,49.1,71.1z M39.1,69.2c-1.4-0.4-2.4-0.6-3-0.6c-0.6,0-1.2,0.1-1.6,0.3
				c-0.6,0.3-0.8,0.7-0.8,1.3c0,0.5,0.4,0.9,1.1,1.2c0.5,0.2,1.2,0.3,1.8,0.3C38,71.6,38.9,70.8,39.1,69.2z"/>
			<path class="st2" d="M67.1,65.2c0,1.6-0.6,3.1-1.7,4.5c-1,1.2-2.3,2.2-3.9,2.9c-1.7,0.8-3,1.2-3.8,1.2c-0.4,0-0.9-0.2-1.3-0.6
				c-0.5-0.4-0.7-0.8-0.7-1.3c0-0.2,0.7-0.4,2.1-0.5c1.8-0.2,3.5-0.8,5.1-1.9c1.9-1.3,2.8-2.7,2.8-4.4c0-2-1-3-3.1-3
				c-1.6,0-3.4,0.5-5.4,1.6c-0.3,0.2-0.8,0.4-1.5,0.8c-0.2,0-0.4-0.1-0.6-0.4C55,63.8,55,63.6,55,63.4c0-0.7,1.1-1.3,3.2-1.8
				c1.7-0.4,3.1-0.6,4.1-0.6c2,0,3.4,0.7,4.2,2C66.9,63.7,67.1,64.4,67.1,65.2z M65.5,57.4c0,0.3-0.1,0.5-0.4,0.7
				c-0.2,0.2-0.5,0.3-0.8,0.3c-0.2,0-0.5-0.1-0.9-0.2c-0.3-0.1-0.9-0.1-1.9-0.1c-1.4,0-2.5,0.1-3.3,0.2c-0.1,0-0.3,0.1-0.7,0.1
				c-0.3,0.1-0.5,0.1-0.7,0.1c-0.3,0-0.4-0.2-0.4-0.6c0-0.8,0.4-1.2,1.1-1.2c0.9-0.1,2-0.1,3.4-0.1H63C64.7,56.8,65.5,57,65.5,57.4z
				"/>
		</g>
	</g>
</g>
<circle class="st0" cx="91.7" cy="187.6" r="51"/>
<circle class="st1" cx="91.7" cy="187.6" r="44.7"/>
<g>
	<g>
		<path class="st2" d="M74.1,183.9h3.8c0-0.1,0-0.2-0.1-0.3c0-0.5,0.3-0.8,0.8-0.8c0.5,0,0.8,0.2,0.8,0.7c0,0.1,0,0.3-0.1,0.4h5
			c0.3,0,0.4,0.1,0.4,0.3c0,0.3-0.1,0.6-0.3,0.9c-0.2,0.2-0.5,0.4-0.9,0.4c-0.3,0-0.9-0.1-1.8-0.2c-0.8,0-1.6-0.1-2.5-0.1l0,1.5h4.5
			c0.2,0,0.3,0.1,0.3,0.3c0,0.3-0.1,0.5-0.3,0.7c-0.2,0.2-0.5,0.3-0.8,0.3c-0.2,0-0.8,0-1.6-0.1c-0.7,0-1.4,0-2.2,0v0.1
			c0,0.5-0.1,1-0.2,1.5h7.3c0.2,0,0.4,0.1,0.4,0.3c0,0.3-0.1,0.6-0.3,0.9c-0.2,0.2-0.5,0.4-0.9,0.4c-0.3,0-1.2-0.1-2.6-0.2
			c-0.9,0-1.9-0.1-2.9-0.1l0,0c3.7,2.1,5.9,3.4,6.8,3.6c0.6,0.1,1.3,0.2,2.1,0.3c0.3,0,0.5,0.1,0.5,0.4c0,0.4-0.3,0.8-0.9,1.1
			c-0.6,0.4-1.2,0.6-1.8,0.6c-0.4,0-0.8-0.2-1.2-0.5c-1.4-1.3-3.1-2.5-4.9-3.8c-0.8-0.5-1.4-0.9-2.1-1.1c0,0.1-0.1,0.2-0.1,0.3
			c-0.8,1.6-1.9,2.8-3.4,3.6c-1.6,0.7-3.1,1.1-4.6,1.1c-0.5,0-0.9-0.2-1.3-0.5c-0.4-0.3-0.5-0.6-0.5-1c0-0.3,0.1-0.5,0.4-0.5
			c0.5,0.1,0.9,0.1,1.2,0.1c1.9,0,3.4-0.3,4.5-0.9c1.1-0.6,2-1.5,2.5-2.7c0-0.1,0.1-0.1,0.1-0.2c-2,0-3.5,0.1-4.4,0.3
			c-0.7,0.2-1.1,0.2-1.3,0.2c-0.6,0-0.9-0.3-0.9-0.8c0-0.2,0.2-0.5,0.4-0.7c0.2-0.1,0.6-0.2,1-0.2h5.6c0.1-0.5,0.2-1,0.3-1.5
			c-1.4,0-2.4,0.1-3,0.2c-0.4,0.1-0.7,0.2-0.8,0.2c-0.5,0-0.8-0.2-0.8-0.7c0-0.3,0.1-0.5,0.4-0.7c0.2-0.2,0.5-0.2,0.9-0.2h3.5
			c0-0.2,0-0.3,0-0.5c0-0.4,0-0.7,0-1c-1.6,0-2.8,0.1-3.5,0.2c-0.5,0.1-0.8,0.2-0.9,0.2c-0.5,0-0.8-0.2-0.8-0.7
			c0-0.2,0.2-0.5,0.4-0.7C73.5,184,73.8,183.9,74.1,183.9z M78.7,178.3c0.7,0,1,0.3,1,1c-0.1,0.5-0.2,1-0.3,1.4
			c2.9,0,5.3,0.1,7.5,0.3l1.1-0.2c0.5,0,0.8,0.2,0.8,0.5c0,0.2-0.1,0.3-0.2,0.5c-0.3,0.7-0.5,1.7-0.7,3.1c0,0.5-0.2,0.7-0.7,0.7
			c-0.5,0-0.7-0.2-0.7-0.7c0-0.8,0.1-1.6,0.2-2.2c0-0.1-0.1-0.1-0.4-0.3c-2.1-0.3-4.4-0.4-7-0.4c-2.6,0-5,0.1-7.2,0.3
			c-0.7,0-1,0.2-1.1,0.4l0,0.2c0,1.3-0.1,2.1-0.4,2.3c-0.1,0.3-0.3,0.4-0.7,0.4c-0.3,0-0.5-0.1-0.5-0.3c0-1.6-0.1-3-0.4-4.2
			c0-0.4,0.3-0.6,0.8-0.6c0.4,0,0.7,0,0.9,0.1c0.3,0.1,0.5,0.2,0.8,0.2c1.7-0.1,3.8-0.1,6.5-0.1c0.1,0,0.1,0,0.2,0
			c-0.1-0.5-0.2-0.9-0.3-1.3C77.7,178.7,78,178.3,78.7,178.3z"/>
		<path class="st2" d="M92.6,192.2c0.4,0.1,0.7,0.1,0.9,0.1c0.5,0,1.2-0.2,1.9-0.6c0.2,0,0.3,0.1,0.3,0.3c0,0.2-0.3,0.7-0.8,1.4
			c-0.5,0.7-1,1.1-1.4,1.1c-0.3,0-0.6-0.2-0.8-0.5c-0.3-0.4-0.4-0.8-0.4-1.4C92.3,192.3,92.4,192.2,92.6,192.2z M97.9,178.5
			c0.5,0,0.7,0.3,0.7,0.8c0,0.4-0.1,0.7-0.4,1.1c-0.8,1.1-1.7,2.1-2.7,3c-0.2,0.1-0.3,0.3-0.3,0.5c0,0,0.2,0.1,0.5,0.3
			c0.3,0.1,0.6,0.3,1.1,0.6c0,0,0.1,0,0.1,0.1c0.8-0.8,1.6-1.6,2.3-2.4c0.1-0.1,0.3-0.2,0.5-0.2c0.1,0,0.3,0.1,0.4,0.2
			c0.1,0.1,0.2,0.3,0.2,0.5c0,0.2-0.1,0.4-0.3,0.5c-1.4,1.4-2.8,2.9-4.2,4.4c-0.1,0.1-0.2,0.3-0.2,0.4c0,0,0,0.1,0.1,0.1
			c0.2,0.1,0.6,0.1,1.3,0.1c1,0,1.8,0,2.4-0.1c0.2,0,0.2-0.1,0.3-0.3c-0.2-0.5-0.5-1-0.7-1.4c-0.1-0.1-0.1-0.2-0.1-0.3
			c0-0.1,0.1-0.3,0.2-0.4c0.1-0.1,0.3-0.2,0.5-0.2c0.1,0,0.2,0.1,0.4,0.4c0.3,0.5,0.6,1.2,1,1.9c0.2,0.3,0.3,0.6,0.3,0.9
			c0,0.5-0.3,0.7-0.8,0.7c-0.3-0.1-0.5-0.1-0.8-0.1c-0.4,0-0.7,0-1.1,0.1c0,0.1,0.1,0.3,0.1,0.4c-0.1,0.7-0.1,1.4-0.1,1.9l0.1,3.1
			c0,1.1-0.3,1.6-0.9,1.6c-0.5,0-0.7-0.5-0.7-1.6c0.1-1.4,0.1-2.4,0.1-3.1c0-0.6,0-1.2-0.1-1.9c0-0.1,0-0.3,0.1-0.4
			c-0.5,0-1,0-1.6-0.1c-0.4,0-0.9,0-1.3,0.1c-0.6,0-0.9-0.2-0.9-0.6c0-0.2,0.1-0.5,0.3-0.8c0.8-0.8,1.7-1.7,2.5-2.5
			c-0.1,0-0.1,0-0.2-0.1c-1.1-0.5-2-0.9-2.5-1c-0.3-0.1-0.5-0.2-0.5-0.4c0-0.2,0.1-0.5,0.4-0.7c0.5-0.3,0.9-0.6,1.4-1.1
			c1-0.9,1.9-2.1,2.7-3.5C97.5,178.6,97.7,178.5,97.9,178.5z M99.8,191.6c0.1,0,0.2,0,0.4,0.1c0.3,0.4,0.8,0.7,1.3,0.9
			c0.3,0.1,0.4,0.2,0.4,0.4c0,0.3-0.1,0.5-0.4,0.7c-0.2,0.2-0.5,0.3-0.9,0.3c-0.2,0-0.5-0.3-0.8-0.9c-0.3-0.5-0.4-0.9-0.4-1.1
			C99.5,191.7,99.6,191.6,99.8,191.6z M108.1,178.4c0.5,0,0.8,0.3,0.8,0.8v0.7h5.3c0.2,0,0.3,0.1,0.3,0.3c0,0.3-0.1,0.5-0.3,0.7
			c-0.2,0.2-0.5,0.3-0.8,0.3c-0.3,0-0.9,0-2-0.1c-0.8,0-1.6-0.1-2.5-0.1l0,1.1h4.1c0.2,0,0.3,0.1,0.3,0.3c0,0.3-0.1,0.5-0.3,0.7
			c-0.2,0.2-0.5,0.3-0.8,0.3c-0.2,0-0.7-0.1-1.5-0.2c-0.6,0-1.2-0.1-1.8-0.1v1c0.8,0.1,1.8,0.1,2.8,0.3c1.1,0.1,2.2,0.2,3.2,0.2
			c0.3,0,0.7,0,1-0.1c0.1,0,0.1,0.1,0.1,0.3c0,0.4-0.1,0.8-0.3,1.2c-0.2,0.5-0.5,0.7-0.7,0.7c-0.3,0-0.6-0.1-0.9-0.3
			c-1.2-0.5-2.4-0.9-3.4-1.1c-0.8-0.1-1.8-0.2-3-0.2c-1.1,0-2.1,0.1-2.9,0.3c-0.9,0.3-1.8,0.6-2.6,1c-0.3,0.1-0.5,0.2-0.6,0.2
			c-0.5,0-0.7-0.3-0.7-0.8c0-0.2,0.1-0.4,0.3-0.7c0.2-0.2,0.5-0.3,0.8-0.3c2.7-0.5,4.6-0.8,5.8-0.8l-0.1-1c-1.4,0-2.4,0.1-3.1,0.3
			c-0.4,0.2-0.7,0.2-0.8,0.2c-0.4,0-0.7-0.2-0.7-0.7c0-0.2,0.1-0.4,0.4-0.6c0.2-0.1,0.5-0.2,0.9-0.2h3.4l-0.1-1.1
			c-1.8,0-3.1,0.1-3.9,0.2c-0.5,0.1-0.9,0.2-1,0.2c-0.4,0-0.7-0.2-0.7-0.7c0-0.2,0.1-0.4,0.4-0.6c0.2-0.1,0.5-0.2,0.9-0.2h4.4l0-0.8
			C107.4,178.6,107.7,178.4,108.1,178.4z M102.6,194.7c0.4,0.1,0.7,0.1,0.9,0.1c0.6,0,1.4-0.2,2.3-0.7c0.1,0,0.2,0.1,0.2,0.3
			c0,0.2-0.3,0.7-0.9,1.3c-0.6,0.7-1.1,1-1.6,1c-0.3,0-0.5-0.1-0.7-0.4c-0.3-0.3-0.4-0.7-0.4-1.2
			C102.4,194.9,102.4,194.7,102.6,194.7z M104.4,186.3c0.2,0,0.5,0,0.7,0.1c0.2,0,0.5,0.1,1,0.1h3c0.7,0,1.5,0,2.4,0.1
			c0.2,0,0.5,0,0.8-0.1c0.5,0,0.7,0.2,0.7,0.7c0,0,0,0.1-0.1,0.2c-0.1,0.2-0.1,0.6-0.2,1.2c-0.1,0.8-0.1,1.6-0.1,2.4
			c0,0.6,0,1.4,0.1,2.4c0,0.5-0.2,0.7-0.6,0.7c-1.6-0.1-3-0.2-4.3-0.2c-1.3,0-2.1,0-2.5,0.1c-0.3,0-0.7,0.1-1.1,0.2
			c-0.4,0-0.6-0.2-0.6-0.7c0.1-1.2,0.2-2.2,0.2-3.2c0-0.9-0.1-2-0.2-3.2C103.7,186.6,103.9,186.3,104.4,186.3z M107.8,192.8
			c1,0,2,0,3.1,0.1c0.3,0,0.4-0.1,0.4-0.4v-0.8c0,0-0.1,0-0.1,0c-2.5,0-4.5,0.1-5.9,0.2c-0.1,0-0.2,0-0.3,0c0,0.2,0,0.3,0,0.5
			c0,0.3,0.2,0.5,0.5,0.5C106.2,192.9,107,192.8,107.8,192.8z M105.2,190.8c0.1,0,0.3,0,0.4,0h5.7c0,0,0.1,0,0.1,0v-1.1
			c-2.6,0-4.6,0.1-6,0.2c-0.1,0-0.1,0-0.1,0C105.2,190.2,105.2,190.5,105.2,190.8z M105.3,188.8c0.1,0,0.2,0,0.3,0h5.8v-0.9
			c0-0.1-0.1-0.2-0.2-0.2c-1.2-0.1-3.1-0.1-5.5-0.1c-0.3,0-0.4,0.1-0.4,0.4C105.3,188.2,105.3,188.5,105.3,188.8z M110.6,194.2
			c0,0,0.1,0,0.1,0c0.8,0.3,1.4,0.5,1.8,0.6c0.3,0.1,0.7,0.1,1.3,0.2c0.2,0,0.3,0.1,0.3,0.3c0,0.3-0.2,0.5-0.5,0.8
			c-0.6,0.4-1.1,0.6-1.5,0.6c-0.1,0-0.2-0.1-0.3-0.2c-0.2-0.2-0.7-0.8-1.4-1.8c-0.1-0.1-0.1-0.2-0.1-0.2
			C110.3,194.2,110.4,194.2,110.6,194.2z"/>
	</g>
</g>
<circle class="st0" cx="198.7" cy="187.6" r="51"/>
<circle class="st1" cx="198.7" cy="187.6" r="44.7"/>
<g>
	<g>
		<path class="st2" d="M175.7,193.1c0.4,0.1,0.8,0.1,1,0.1c0.7,0,1.7-0.4,2.8-1.3c0.2,0,0.3,0.1,0.3,0.3c0,0.3-0.4,0.9-1.2,1.8
			c-0.7,0.9-1.4,1.4-2,1.4c-0.3,0-0.6-0.2-0.9-0.5c-0.3-0.4-0.4-0.9-0.4-1.4C175.4,193.3,175.5,193.1,175.7,193.1z M180.3,180.5h8.4
			c-0.1-0.7-0.1-1.3-0.1-1.5c0-0.5,0.3-0.7,0.7-0.7c0.5,0,0.7,0.3,0.7,0.7c-0.1,0.3-0.1,0.6-0.1,0.8c0,0.2,0,0.5,0,0.7h1.6
			c-0.1-0.1-0.1-0.1-0.1-0.2c0-0.1,0.3-0.6,0.8-1.6c0.2-0.2,0.4-0.3,0.7-0.3c0.4,0,0.6,0.2,0.6,0.5c0,0.3,0,0.5-0.1,0.6
			c-0.7,0.5-1.2,0.9-1.4,1h3c0.3,0,0.4,0,0.4,0.1c0,0.4-0.1,0.7-0.3,1c-0.2,0.3-0.5,0.4-0.9,0.4c-0.4,0-1.3-0.1-2.7-0.2
			c-0.5,0-1.1,0-1.6-0.1c0,0.5,0.1,0.9,0.2,1.2c0.2,1,0.6,1.8,1.1,2.5c0.1,0.1,0.2,0.3,0.3,0.4c0.7-0.7,1.2-1.6,1.5-2.7
			c0.1-0.2,0.2-0.3,0.5-0.3c0.4,0,0.6,0.2,0.6,0.6c0,0-0.1,0.1-0.1,0.2c-0.3,0.8-0.8,1.8-1.4,2.9c-0.1,0.1-0.2,0.2-0.3,0.3
			c0.3,0.3,0.7,0.6,1.1,0.8c0.7,0.4,1.5,0.7,2.7,0.9c0.3,0,0.4,0.2,0.4,0.4c0,0.3-0.2,0.7-0.5,1c-0.4,0.4-0.8,0.6-1.1,0.6
			c-0.2,0-0.6-0.1-1-0.4c-1-0.5-1.8-1.2-2.6-2.1c-0.3,0.3-0.6,0.5-0.9,0.7c-0.5,0.4-1,0.5-1.3,0.5c-0.3,0-0.5-0.1-0.8-0.3
			c-0.4-0.3-0.5-0.7-0.5-1c0-0.3,0.2-0.4,0.7-0.5c0.6-0.1,1.2-0.3,1.8-0.7c-0.4-0.6-0.7-1.2-0.9-1.9c-0.3-0.8-0.5-1.8-0.6-3.2
			c-0.6,0-1.3,0-1.9,0c-2.6,0-4.5,0-5.7,0.1c-0.6,0.1-1,0.1-1.2,0.1c0,0.1,0,0.1,0,0.1l0,2.2c0,1.2-0.1,2.2-0.4,3
			c-0.3,0.8-0.8,1.6-1.4,2.2c-0.4,0.4-0.7,0.5-0.9,0.5c-0.4,0-0.9-0.2-1.4-0.6c-0.4-0.3-0.5-0.6-0.5-0.9c0-0.3,0.2-0.5,0.5-0.5
			c0.4-0.1,0.7-0.2,1-0.3c0.5-0.3,1-0.8,1.2-1.5c0.2-0.7,0.4-1.5,0.4-2.5c0-0.6-0.1-1.5-0.2-2.5c0-0.5,0.2-0.8,0.7-0.8
			c0.3,0,0.6,0.1,0.7,0.2C180,180.5,180.1,180.5,180.3,180.5z M181.8,182.9h5.4c0.2,0,0.3,0.1,0.3,0.4c0,0.2-0.1,0.3-0.3,0.5
			c-0.2,0.2-0.4,0.3-0.6,0.3c-0.6-0.1-1.4-0.2-2.7-0.2c-0.6,0-1.3,0.1-2.3,0.3c-0.5,0-0.7-0.2-0.7-0.5c0-0.2,0.1-0.4,0.3-0.6
			C181.4,183,181.6,182.9,181.8,182.9z M181.9,185.1c0.2,0,0.5,0,0.7,0.1c0.2,0,0.5,0.1,1,0.1h1.2c0.3,0,0.6,0,1,0.1
			c0.2,0,0.5,0,0.8-0.1c0.5,0,0.7,0.2,0.7,0.7c0,0,0,0.1-0.1,0.1c-0.1,0.1-0.1,0.3-0.2,0.6c-0.1,0.4-0.1,0.8-0.1,1.3
			c0,0.2,0,0.5,0.1,0.9c0,0.5-0.2,0.7-0.6,0.7c-0.9-0.1-1.8-0.2-2.5-0.2c-0.8,0-1.3,0-1.5,0.1c-0.2,0-0.4,0.1-0.7,0.2
			c-0.4,0-0.6-0.2-0.6-0.7c0.1-0.7,0.2-1.2,0.2-1.7c0-0.4-0.1-0.9-0.2-1.4C181.2,185.3,181.4,185.1,181.9,185.1z M183.3,190.6
			c0.6,0,0.9,0.2,0.9,0.7c0,0.2-0.3,0.9-0.9,1.8c-0.1,0.1-0.2,0.2-0.2,0.3c0,0.1,0.1,0.2,0.4,0.2c2.5,0,4.9,0.2,7.2,0.6
			c0.8,0.1,1.6,0.2,2.4,0.2c0.7,0,1.5-0.1,2.4-0.4c0.5-0.2,0.8-0.3,0.9-0.3c0.3,0,0.4,0.1,0.4,0.4c0,0.5-0.2,1-0.6,1.6
			c-0.5,0.7-0.9,1.1-1.4,1.1c-0.5,0-1.3-0.2-2.7-0.6c-2.9-0.9-5.7-1.4-8.4-1.4c-0.5,0-1.1,0.1-1.7,0.2c-0.5,0-0.8-0.2-0.8-0.6
			c0-0.1,0.2-0.4,0.5-0.8c0.6-0.7,0.9-1.5,1-2.4C182.8,190.8,183,190.6,183.3,190.6z M183.9,188.4c0.4,0,0.9,0,1.4,0.1
			c0.3,0,0.4-0.1,0.4-0.4v-1.4c0-0.1-0.1-0.2-0.2-0.2c-0.5-0.1-1.3-0.1-2.3-0.1c-0.3,0-0.4,0.1-0.4,0.4c0,0.4-0.1,0.8-0.2,1.2
			c0,0.3,0.2,0.5,0.5,0.5C183.3,188.4,183.6,188.4,183.9,188.4z M188.5,190.2c0.5,0,0.7,0.2,0.7,0.6c0,0.3,0,0.5-0.1,0.6
			c-1,0.8-1.5,1.2-1.6,1.2c-0.3,0-0.4-0.1-0.4-0.3c0-0.1,0.2-0.6,0.7-1.7C187.9,190.3,188.2,190.2,188.5,190.2z M192.1,190.8
			c0.5,0,0.7,0.2,0.7,0.6c0,0.3,0,0.5-0.1,0.6c-1.2,0.9-1.8,1.3-1.9,1.3c-0.3,0-0.4-0.1-0.4-0.3c0-0.1,0.3-0.7,1-1.8
			C191.6,190.9,191.8,190.8,192.1,190.8z"/>
		<path class="st2" d="M210.7,178.5c0.3,0,0.5,0.2,0.5,0.5s-0.1,0.5-0.4,0.6c-1.4,0.3-2.6,0.5-3.7,0.7v1.5h4.6
			c0.3,0,0.4,0.1,0.4,0.3c0,0.3-0.1,0.6-0.3,0.9c-0.2,0.2-0.5,0.3-0.9,0.3c-0.3,0-0.9-0.1-1.9-0.2c-0.6,0-1.2-0.1-1.9-0.1v1.2
			c0.7,0,1.6,0,2.6,0.1c0.2,0,0.5,0,0.9-0.1c0.5,0,0.7,0.2,0.7,0.7c0,0,0,0.1-0.1,0.2c-0.1,0.2-0.1,0.5-0.2,0.9
			c-0.1,0.6-0.1,1.2-0.1,1.9c0,0.4,0,0.9,0.1,1.6c0,0.5-0.2,0.7-0.7,0.7c-1.2-0.1-2.3-0.2-3.3-0.2l0,1.2h3.5c0.2,0,0.3,0.1,0.3,0.3
			c0,0.3-0.1,0.5-0.3,0.7c-0.2,0.2-0.5,0.3-0.8,0.3c-0.2,0-0.7-0.1-1.4-0.2c-0.4,0-0.9,0-1.4,0v1.2c1.5-0.2,2.7-0.3,3.5-0.4
			c0.2,0,0.3,0.1,0.3,0.4c0,0.3-0.1,0.5-0.4,0.6c-3.2,0.6-6.2,1.2-9,1.9c-0.6,0-0.8-0.2-0.8-0.6c0-0.3,0.1-0.6,0.2-0.8
			c0.1-0.1,0.4-0.3,0.8-0.3c1.5-0.2,2.8-0.4,3.9-0.6v-1.4c-1.3,0-2.3,0.1-2.9,0.2c-0.4,0.1-0.7,0.2-0.8,0.2c-0.4,0-0.7-0.3-0.7-0.7
			c0-0.2,0.1-0.4,0.4-0.6c0.2-0.1,0.5-0.2,0.9-0.2h3.1v-1.2c-1.3,0-2.2,0.1-2.6,0.1c-0.3,0-0.8,0.1-1.3,0.2c-0.5,0-0.7-0.2-0.7-0.7
			c0.1-0.9,0.2-1.7,0.2-2.4c0-0.6-0.1-1.4-0.2-2.3c0-0.5,0.2-0.7,0.7-0.7c0.2,0,0.5,0,0.8,0.1c0.2,0,0.6,0.1,1.1,0.1h1.9v-1.2
			c-1.8,0-3.1,0.1-3.9,0.2c-0.5,0.1-0.8,0.2-1,0.2c-0.5,0-0.8-0.3-0.8-0.7c0-0.2,0.2-0.5,0.4-0.7c0.2-0.1,0.5-0.2,0.9-0.2h4.4l0-1.2
			c-0.3,0.1-0.7,0.1-1,0.1c-1.1,0.1-1.8,0.2-2.2,0.2c-0.4,0-0.8-0.2-1.2-0.5c-0.2-0.2-0.4-0.5-0.4-0.8c0-0.2,0.1-0.3,0.4-0.3
			c2.2,0,4-0.1,5.4-0.3c1.4-0.1,2.6-0.3,3.6-0.5C210.4,178.5,210.5,178.5,210.7,178.5z M205.5,189.1v-1.2c-1,0-1.9,0.1-2.7,0.1
			c-0.1,0-0.1,0-0.2,0c0,0.2-0.1,0.5-0.1,0.7c0,0.3,0.2,0.5,0.6,0.5C203.8,189.1,204.6,189.1,205.5,189.1z M202.7,186.7
			c0.1,0,0.2,0,0.2,0h2.6l0-1.3c-0.7,0-1.4,0-2.3,0c-0.3,0-0.5,0.1-0.5,0.4C202.7,186.1,202.7,186.4,202.7,186.7z M207.1,185.4
			l0,1.3h2.5c0,0,0.1,0,0.1,0v-1c0-0.1-0.1-0.2-0.2-0.2C208.8,185.5,208,185.5,207.1,185.4z M207,187.8v1.3c0.7,0,1.4,0,2.2,0.1
			c0.3,0,0.4-0.1,0.4-0.4v-1C208.7,187.7,207.8,187.7,207,187.8z M216.1,183.8c0.3-1.6,0.4-3.1,0.5-4.5c0.1-0.5,0.3-0.7,0.7-0.7
			c0.5,0,0.8,0.3,0.8,0.8c0,0.1,0,0.5-0.1,0.9c-0.1,1.3-0.3,2.4-0.4,3.4h3.2c0.1,0,0.4-0.1,0.9-0.2c0.6,0,0.9,0.3,0.9,0.9
			c-0.4,1.9-0.6,3.9-0.8,5.8c-0.2,2.7-0.7,4.4-1.5,5.2c-0.7,0.8-1.5,1.1-2.5,1.1c-0.5,0-0.8-0.2-1.1-0.6c-0.2-0.3-0.3-0.6-0.3-0.9
			c0-0.3,0.1-0.5,0.4-0.5c1.4-0.1,2.3-0.4,2.7-1c0.5-0.6,0.9-2.3,1.2-5.1c0.2-1.7,0.3-2.8,0.3-3.2c0-0.3-0.1-0.4-0.3-0.4h-3.2
			c-0.2,1.3-0.4,2.3-0.7,3.2c-0.4,1.6-0.9,3.2-1.6,4.7c-0.5,1.2-1.3,2.3-2.3,3.2c-0.4,0.3-0.7,0.5-1,0.5c-0.2,0-0.5-0.1-0.8-0.4
			c-0.3-0.3-0.5-0.7-0.5-1c0-0.2,0.1-0.4,0.3-0.4c0.9-0.4,1.7-0.9,2.2-1.6c0.7-0.8,1.3-2.1,1.9-3.9c0.4-1.3,0.8-2.7,1-4.3
			c-0.6,0-1.2,0.1-1.8,0.2c-0.6,0.1-0.9,0.2-1.1,0.2c-0.4,0-0.6-0.2-0.6-0.5c0-0.6,0.3-0.9,0.8-1
			C213.6,183.8,214.6,183.8,216.1,183.8z"/>
	</g>
</g>
<circle class="st0" cx="305.8" cy="187.6" r="51"/>
<circle class="st1" cx="305.8" cy="187.6" r="44.7"/>
<g>
	<g>
		<path class="st2" d="M281.3,192.2c0.4,0.1,0.7,0.1,0.9,0.1c0.5,0,1.2-0.2,1.9-0.6c0.2,0,0.3,0.1,0.3,0.3c0,0.2-0.3,0.7-0.8,1.4
			c-0.5,0.7-1,1.1-1.4,1.1c-0.3,0-0.6-0.2-0.8-0.5c-0.3-0.4-0.4-0.8-0.4-1.4C281,192.3,281.1,192.2,281.3,192.2z M286.5,178.5
			c0.5,0,0.7,0.3,0.7,0.8c0,0.4-0.1,0.7-0.4,1.1c-0.8,1.1-1.7,2.1-2.7,3c-0.2,0.1-0.3,0.3-0.3,0.5c0,0,0.2,0.1,0.5,0.3
			c0.3,0.1,0.6,0.3,1.1,0.6c0,0,0.1,0,0.1,0.1c0.8-0.8,1.5-1.6,2.3-2.4c0.1-0.1,0.3-0.2,0.5-0.2c0.1,0,0.3,0.1,0.4,0.2
			c0.1,0.1,0.2,0.3,0.2,0.5c0,0.2-0.1,0.4-0.2,0.5c-1.3,1.4-2.7,2.9-4,4.4c-0.1,0.1-0.1,0.3-0.1,0.4c0,0,0,0.1,0.1,0.1
			c0.2,0.1,0.5,0.1,1.2,0.1c0.9,0,1.7,0,2.3-0.1c0.2,0,0.2-0.1,0.3-0.3c-0.2-0.4-0.4-0.9-0.6-1.3c-0.1-0.1-0.1-0.2-0.1-0.3
			c0-0.1,0.1-0.2,0.2-0.4s0.3-0.2,0.5-0.2c0.1,0,0.2,0.1,0.4,0.3c0.3,0.5,0.6,1.1,1,1.8c0.2,0.3,0.3,0.6,0.3,0.8
			c0,0.6-0.3,0.8-0.8,0.8c-0.3-0.1-0.6-0.1-0.9-0.1c-0.3,0-0.7,0-1,0.1c0.1,0.2,0.1,0.3,0.1,0.5c-0.1,0.7-0.1,1.3-0.1,1.9l0.1,3
			c0,1.1-0.3,1.6-0.9,1.6c-0.5,0-0.7-0.5-0.7-1.6c0.1-1.3,0.1-2.3,0.1-3c0-0.6,0-1.2-0.1-1.9c0-0.2,0-0.4,0.1-0.5c0,0,0,0-0.1,0
			c-0.5,0-1,0-1.5-0.1c-0.4,0-0.9,0-1.4,0.1c-0.7,0-1-0.2-1-0.6c0-0.3,0.1-0.5,0.3-0.8c0.9-0.9,1.7-1.8,2.6-2.6
			c-0.1,0-0.1,0-0.2-0.1c-1.1-0.5-2-0.9-2.5-1c-0.3-0.1-0.5-0.2-0.5-0.4c0-0.2,0.1-0.5,0.4-0.7c0.5-0.3,0.9-0.6,1.4-1.1
			c1-0.9,1.9-2.1,2.7-3.5C286.1,178.6,286.3,178.5,286.5,178.5z M288.3,191.3c0.1,0,0.2,0,0.4,0.1c0.3,0.4,0.7,0.6,1.1,0.8
			c0.3,0.1,0.4,0.2,0.4,0.4c0,0.3-0.1,0.5-0.3,0.7c-0.2,0.2-0.5,0.3-0.9,0.3c-0.2,0-0.4-0.3-0.6-0.8c-0.2-0.5-0.4-0.9-0.4-1.1
			C288,191.4,288.1,191.3,288.3,191.3z M292,182.6c0.3,0,0.5,0.1,0.6,0.2l4.4,0.1c0-0.9-0.1-2-0.2-3.3c0-0.5,0.2-0.7,0.6-0.7
			c0.6,0,0.9,0.2,0.9,0.7c-0.1,0.3-0.1,0.8-0.1,1.3v2l3.4,0.1c0.2,0,0.6-0.1,1.2-0.2c0.7,0,1,0.2,1,0.6c-0.3,1.5-0.5,3.4-0.5,5.7
			c0,1.5,0.1,3.7,0.3,6.6c0,0.7-0.3,1-0.9,1c-0.2,0-0.4-0.1-0.6-0.4c-0.1-0.3-0.1-0.8-0.1-1.3c0-4.6,0.1-8.1,0.2-10.7
			c0-0.1-0.2-0.2-0.7-0.2c-1.1,0-2.2,0-3.3,0c0,1.4-0.1,2.6-0.3,3.6c0.2,0.1,0.7,0.6,1.7,1.4c1,1,1.5,1.6,1.5,2
			c0,0.4-0.2,0.6-0.7,0.6c-0.1,0-0.3-0.1-0.4-0.3c-1-1.1-1.8-1.8-2.3-2.1c-0.1-0.1-0.2-0.1-0.3-0.2c-0.3,0.8-0.7,1.5-1.2,2.1
			c-0.4,0.5-0.8,0.8-1.1,0.8c-0.4,0-0.8-0.2-1.3-0.6c-0.3-0.3-0.5-0.5-0.5-0.8c0-0.2,0.2-0.4,0.5-0.4c0.5-0.1,0.9-0.3,1.2-0.5
			c0.6-0.4,1.1-1.2,1.5-2.4c0.2-0.9,0.4-2,0.4-3.2c-1.5,0-2.8,0-4.2,0.1c0,1.8,0,3.1,0,3.9c0,3.3-0.2,5.5-0.7,6.7
			c-0.5,1.3-0.9,1.9-1.4,1.9c-0.4,0-0.8-0.2-1.2-0.6c-0.2-0.3-0.3-0.5-0.3-0.8c0-0.2,0.1-0.3,0.3-0.4c0.7-0.1,1.2-0.8,1.6-2
			c0.3-0.9,0.4-2.7,0.4-5.3c0-1.4-0.1-2.8-0.2-4.2C291.3,182.8,291.6,182.6,292,182.6z"/>
		<path class="st2" d="M314.1,183.1c0.4,0,0.6,0.2,0.6,0.5c0,0.2-0.1,0.5-0.2,0.7c-0.6,0.8-1.3,1.5-2,2.2c0.1,0.2,0.1,0.3,0.1,0.6
			c-0.1,1-0.1,1.9-0.1,2.8l0.1,5.2c0,1.1-0.3,1.6-0.9,1.6c-0.5,0-0.7-0.5-0.7-1.6c0.1-2.2,0.1-4,0.1-5.2c0-0.6,0-1.3-0.1-2.1
			c-0.3,0.2-0.6,0.5-0.9,0.7c-0.7,0.5-1.2,0.7-1.7,0.7c-0.4,0-0.8-0.2-1.2-0.5c-0.4-0.3-0.6-0.6-0.6-1c0-0.2,0.2-0.4,0.5-0.4
			c1.2-0.3,2.4-0.7,3.4-1.4c1.1-0.6,2.1-1.5,3.1-2.7C313.9,183.2,314,183.1,314.1,183.1z M313.8,178.5c0.4,0,0.6,0.2,0.6,0.5
			c0,0.2-0.1,0.4-0.2,0.6c-1.1,1.2-2.4,2.4-3.9,3.4c-0.6,0.4-1.1,0.6-1.5,0.6c-0.3,0-0.7-0.1-1.1-0.4c-0.4-0.3-0.5-0.6-0.5-0.9
			c0-0.2,0.2-0.3,0.5-0.3c1.1-0.2,2.1-0.6,3-1.1c1-0.5,1.9-1.2,2.8-2.1C313.7,178.6,313.8,178.5,313.8,178.5z M316.9,186.2h10.8
			c0.2,0,0.3,0.1,0.3,0.3c0,0.3-0.1,0.5-0.3,0.7c-0.2,0.2-0.5,0.3-0.8,0.3c-0.2,0-0.6,0-1.1-0.1c0,0.1,0,0.1,0,0.2
			c0,0.1,0,0.3-0.1,0.5c-0.1,0.5-0.1,0.9-0.1,1.3c0.1,0,0.1,0,0.2,0c1.2,0.1,2.3,0.1,3.4,0.1c0.4,0,0.7,0,1.1-0.1
			c0.1,0,0.1,0.1,0.1,0.3c0,0.4-0.1,0.9-0.4,1.3c-0.3,0.5-0.5,0.7-0.8,0.7c-0.3,0-0.6-0.1-1-0.2c-0.9-0.3-1.8-0.6-2.7-0.8
			c0.1,1.3,0.1,2.4,0.1,3.2c0,1.2-0.5,2-1.4,2.4c-0.6,0.2-1.2,0.3-1.7,0.3c-0.4,0-0.7-0.1-1-0.3c-0.3-0.3-0.5-0.6-0.5-1
			c0-0.2,0.2-0.3,0.4-0.4c1-0.1,1.7-0.2,2-0.3c0.4-0.1,0.6-0.3,0.7-0.6c0.1-0.3,0.1-0.8,0.1-1.5c0-0.6,0-1.3-0.1-1.9
			c-0.8-0.1-1.7-0.1-2.7-0.1c-1.3,0-2.4,0.1-3.4,0.3c-1,0.3-2,0.6-3,1.1c-0.3,0.1-0.5,0.2-0.7,0.2c-0.5,0-0.7-0.3-0.7-0.8
			c0-0.3,0.1-0.5,0.4-0.7c0.2-0.2,0.5-0.3,0.9-0.4c3.1-0.6,5.3-0.9,6.6-0.9c0.8,0,1.7,0,2.6,0.1c0-0.8-0.1-1.3-0.1-1.5
			c0-0.1,0-0.3,0.1-0.4c-0.8,0-1.7,0-2.6,0c-1.9,0-3.3,0.1-4.2,0.2c-0.5,0.1-0.8,0.2-1,0.2c-0.5,0-0.8-0.3-0.8-0.7
			c0-0.2,0.2-0.5,0.4-0.7C316.2,186.3,316.5,186.2,316.9,186.2z M319.9,192.3c0.2,0,0.3,0.1,0.3,0.3c0,0.2-0.1,0.3-0.2,0.5
			c-1.7,1.7-2.7,2.5-2.9,2.5c-0.6,0-0.9-0.2-0.9-0.5c0-0.5,0.1-0.8,0.3-0.9C316.5,194.1,317.6,193.5,319.9,192.3z M317.7,178.7
			c0.2,0,0.5,0,0.8,0.1c0.2,0.1,0.6,0.1,1.1,0.1h3.1c0.7,0,1.5,0,2.5,0.1c0.2,0,0.5-0.1,0.9-0.2c0.5,0,0.7,0.3,0.7,0.8
			c0,0,0,0.1-0.1,0.2c-0.1,0.2-0.1,0.5-0.2,1c-0.1,0.6-0.1,1.3-0.1,2c0,0.4,0,1,0.1,1.7c0,0.6-0.2,0.8-0.7,0.8
			c-1.4-0.1-2.7-0.2-3.9-0.2c-1.6,0-2.6,0-3,0.1c-0.4,0-0.8,0.1-1.3,0.2c-0.5,0-0.7-0.2-0.7-0.7c0.1-1,0.2-1.9,0.2-2.6
			c0-0.7-0.1-1.6-0.2-2.5C317,179,317.2,178.7,317.7,178.7z M322,183.9c0.8,0,1.7,0,2.8,0.1c0.3,0,0.4-0.1,0.4-0.3v-1.2
			c-2.8,0-4.9,0.1-6.5,0.2c0,0-0.1,0-0.1,0c0,0.3-0.1,0.6-0.1,0.9c0,0.3,0.2,0.4,0.6,0.4C319.9,183.9,320.9,183.9,322,183.9z
			 M318.7,181.4c0,0,0.1,0,0.1,0h6.3c0.1,0,0.1,0,0.1,0v-1c0-0.2-0.1-0.3-0.2-0.3c-1.3-0.1-3.2-0.1-5.8-0.1c-0.3,0-0.5,0.2-0.5,0.5
			C318.7,180.8,318.7,181.2,318.7,181.4z"/>
	</g>
</g>
<circle class="st0" cx="412.8" cy="187.6" r="51"/>
<circle class="st1" cx="412.8" cy="187.6" r="44.7"/>
<g>
	<g>
		<path class="st2" d="M394.6,178.8c1,0,2.1,0.1,3.2,0.2c0.2,0,0.5,0,0.9-0.1c0.5,0,0.8,0.2,0.8,0.7c0,0.1-0.1,0.3-0.4,0.5
			c-0.5,0.6-1,1.1-1.5,1.7c-0.8,1-1.8,1.9-2.9,2.9c-1.1,0.9-2.2,1.7-3.3,2.2c-0.4,0.2-0.7,0.4-1,0.4c-0.4,0-0.8-0.2-1.3-0.7
			c-0.3-0.3-0.4-0.6-0.4-1c0-0.3,0.2-0.4,0.4-0.4c1.6-0.2,3.1-0.7,4.5-1.7c0.1-0.1,0.2-0.1,0.3-0.2c0,0-0.1,0-0.1-0.1
			c-0.7-0.4-1.2-0.7-1.6-0.8c-0.3-0.1-0.5-0.2-0.5-0.4c0-0.6,0.3-0.8,0.9-0.8c0.1,0,0.5,0.2,1.1,0.6c0.5,0.3,0.8,0.6,0.9,0.8
			c0.7-0.6,1.4-1.3,2.1-2c0.3-0.2,0.4-0.3,0.4-0.4c0-0.1-0.1-0.2-0.3-0.2c-0.8,0-1.9,0.1-3,0.3c-0.4,0-0.6-0.2-0.6-0.6
			c0-0.3,0.1-0.5,0.3-0.7C393.9,178.9,394.2,178.8,394.6,178.8z M396.2,184.7h9.4c0.2,0,0.4,0.1,0.4,0.3c0,0.3-0.1,0.6-0.3,0.9
			c-0.2,0.2-0.6,0.4-0.9,0.4c-0.2,0-0.7-0.1-1.6-0.2c0,0.1,0.1,0.2,0.1,0.3c0,0.9,0,1.9,0,3h4.7c0.2,0,0.4,0.1,0.4,0.3
			c0,0.3-0.1,0.6-0.3,0.9c-0.2,0.2-0.5,0.4-0.9,0.4c-0.3,0-1.2-0.1-2.6-0.2c-0.4,0-0.9,0-1.3-0.1c0,1,0,2.1-0.1,3.2
			c0,0.2,0.1,0.3,0.2,0.3c0.3,0,0.9,0.1,2,0.1c1.7,0,3.2-0.2,4.5-0.5c0.2,0,0.3,0.2,0.3,0.5c0,0.5-0.2,1-0.5,1.5
			c-0.3,0.6-0.7,0.9-1,0.9c-0.3,0-2.3-0.3-6.2-0.8c-0.6-0.1-0.9-0.4-0.9-0.9c0.1-1.8,0.1-3.3,0.1-4.4c-0.6,0-1.2,0-1.8,0
			c-0.5,0-0.9,0-1.4,0c-0.1,0.6-0.3,1.2-0.5,1.7c-0.6,1.3-1.2,2.3-2.1,3c-1.1,1-2,1.5-2.9,1.5c-0.3,0-0.6-0.1-0.8-0.4
			c-0.4-0.4-0.6-0.8-0.6-1.1c0-0.2,0.2-0.3,0.5-0.4c1-0.2,1.7-0.4,2.3-0.7c1-0.4,1.8-1.4,2.4-2.8c0.1-0.2,0.2-0.4,0.2-0.6
			c-1.2,0-2.1,0.1-2.8,0.2c-0.7,0.2-1.1,0.2-1.3,0.2c-0.6,0-0.9-0.3-0.9-0.8c0-0.2,0.2-0.5,0.4-0.7c0.2-0.1,0.6-0.2,1-0.2h3.8
			c0.1-0.7,0.2-1.4,0.2-2.1v-1.1c0-0.1,0-0.1,0-0.1c-0.4,0-0.7,0.1-1,0.1c-0.4,0.1-0.7,0.2-0.8,0.2c-0.5,0-0.8-0.3-0.8-0.7
			c0-0.2,0.2-0.5,0.4-0.7C395.5,184.8,395.8,184.7,396.2,184.7z M401.7,189.4c0-1-0.1-2.1-0.1-3.2c0-0.1,0-0.1,0-0.2
			c-0.5,0-0.9,0-1.4,0c-0.5,0-0.9,0-1.2,0c0,0.1,0.1,0.2,0.1,0.3c-0.1,0.7-0.2,1.5-0.3,2.4c0,0.2,0,0.5-0.1,0.7H401.7z M405.5,178.5
			c0.4,0,0.6,0.3,0.6,0.8c0,0.3-0.1,0.5-0.4,0.6l-1.6,1c0.5,0.5,1,0.8,1.5,1.2c0,0,0-0.1,0.1-0.1l1.8-1.5c0.2-0.2,0.4-0.2,0.5-0.2
			c0.4,0,0.6,0.3,0.6,0.8c0,0.3-0.1,0.5-0.4,0.6l-1.9,1c1.6,1.2,2.6,1.9,3.1,2.2c0.6,0.2,1.2,0.3,2,0.4c0.3,0,0.5,0.1,0.5,0.4
			c0,0.4-0.3,0.7-0.9,1.1c-0.6,0.4-1.1,0.5-1.8,0.5c-0.4,0-0.8-0.1-1.1-0.4c-1.4-1.7-3-3.4-4.9-5.1c-0.8-0.7-1.5-1.2-2.1-1.6
			c-0.3-0.2-0.5-0.4-0.5-0.7c0-0.4,0.2-0.6,0.7-0.6c0.3,0,0.7,0.3,1.2,0.9c0.2,0.2,0.5,0.4,0.7,0.5c0,0,0-0.1,0.1-0.1l1.6-1.6
			C405.2,178.6,405.4,178.5,405.5,178.5z"/>
		<path class="st2" d="M420.3,178.9c0.2,0,0.5,0,0.7,0.1c0.3,0.1,0.6,0.1,1.1,0.1h3.7c0.8,0,1.8,0,3,0.1c0.2,0,0.5-0.1,0.9-0.2
			c0.5,0,0.7,0.3,0.7,0.8c0,0,0,0.1-0.1,0.3c-0.1,0.3-0.1,0.9-0.2,1.7c-0.1,1.1-0.1,2.3-0.1,3.5c0,0.9,0,2.1,0.1,3.6
			c0,0.6-0.2,0.8-0.7,0.8c-0.8-0.1-1.6-0.1-2.3-0.2c0,0,0,0,0,0.1c0,1-0.1,2.3-0.2,3.8c0,0.3,0.1,0.5,0.4,0.6c0.6,0.1,2,0.1,4.2,0.1
			c1.6,0,3-0.2,4.3-0.7c0.2,0,0.3,0.2,0.3,0.5c0,0.5-0.1,1-0.4,1.6c-0.3,0.6-0.7,1-1,1c-0.3,0-3-0.3-8.1-0.9
			c-0.8-0.1-1.2-0.5-1.2-1.1c0.1-1.3,0.2-2.3,0.2-2.9c0-0.7,0-1.4-0.1-2.1c-0.3,0-0.6,0-0.9,0c-0.3,0-0.5,0-0.7,0c0,0,0,0.1,0,0.1
			c0,0-0.1,0.1-0.1,0.2c-0.5,1-1.3,2.1-2.4,3.4c-1.2,1.1-2.4,2-3.7,2.6c-0.9,0.4-1.6,0.6-2.2,0.6c-0.3,0-0.6-0.1-0.9-0.4
			c-0.4-0.4-0.6-0.7-0.6-1.1c0-0.3,0.3-0.4,0.9-0.5c1.6-0.2,3.2-0.7,4.6-1.6c1.3-0.9,2.3-2,3-3.4c-0.4,0-0.7,0-0.9,0.1
			c-0.4,0-0.8,0.1-1.4,0.2c-0.5,0-0.7-0.2-0.7-0.7c0.1-1.7,0.2-3.2,0.2-4.5c0-1.4-0.1-3-0.2-4.9
			C419.6,179.2,419.8,178.9,420.3,178.9z M424.8,188.4c1.1,0,2.3,0,3.6,0.1c0.3,0,0.4-0.1,0.4-0.3v-1.9c-3.2,0-5.7,0.1-7.5,0.2
			c0,0-0.1,0-0.1,0c0,0.6,0,1.1-0.1,1.6c0,0.3,0.2,0.4,0.6,0.4C422.6,188.4,423.6,188.4,424.8,188.4z M421.2,185.2
			c0.1,0,0.1,0,0.2,0h7.3c0,0,0.1,0,0.1,0v-1.9c-3.2,0-5.7,0.1-7.5,0.2h0C421.3,184.1,421.3,184.7,421.2,185.2z M421.3,182.3
			c0,0,0.1,0,0.1,0h7.4v-1.6c0-0.2-0.1-0.3-0.2-0.3c-1.6-0.1-3.8-0.1-6.8-0.1c-0.3,0-0.5,0.2-0.5,0.5
			C421.3,181.3,421.3,181.8,421.3,182.3z"/>
	</g>
</g>
</svg>
