<?xml version="1.0" encoding="utf-8"?>
<!-- Generator: Adobe Illustrator 24.0.3, SVG Export Plug-In . SVG Version: 6.00 Build 0)  -->
<svg version="1.1" id="レイヤー_1" xmlns="http://www.w3.org/2000/svg" xmlns:xlink="http://www.w3.org/1999/xlink" x="0px"
	 y="0px" viewBox="0 0 368.9 47.3" style="enable-background:new 0 0 368.9 47.3;" xml:space="preserve">
<style type="text/css">
	.st0{display:none;}
	.st1{display:inline;}
	.st2{fill:#503819;}
</style>
<g class="st0">
	<g class="st1">
		<path class="st2" d="M155-71.9c0.2,0,0.5,0,0.7,0.1c0.3,0.1,0.6,0.1,1.1,0.1h3.7c0.8,0,1.8,0,3,0.1c0.2,0,0.5-0.1,0.9-0.2
			c0.5,0,0.7,0.3,0.7,0.8c0,0,0,0.1-0.1,0.3c-0.1,0.3-0.1,0.9-0.2,1.7c-0.1,1.1-0.1,2.3-0.1,3.5c0,0.9,0,2.1,0.1,3.6
			c0,0.6-0.2,0.8-0.7,0.8c-0.8-0.1-1.6-0.1-2.3-0.2c0,0,0,0,0,0.1c0,1-0.1,2.3-0.2,3.8c0,0.3,0.1,0.5,0.4,0.6c0.6,0.1,2,0.1,4.2,0.1
			c1.6,0,3-0.2,4.3-0.7c0.2,0,0.3,0.2,0.3,0.5c0,0.5-0.1,1-0.4,1.6c-0.3,0.6-0.7,1-1,1c-0.3,0-3-0.3-8.1-0.9
			c-0.8-0.1-1.2-0.5-1.2-1.1c0.1-1.3,0.2-2.3,0.2-2.9c0-0.7,0-1.4-0.1-2.1c-0.3,0-0.6,0-0.9,0c-0.3,0-0.5,0-0.7,0c0,0,0,0.1,0,0.1
			c0,0-0.1,0.1-0.1,0.2c-0.5,1-1.3,2.1-2.4,3.4c-1.2,1.1-2.4,2-3.7,2.6c-0.9,0.4-1.6,0.6-2.2,0.6c-0.3,0-0.6-0.1-0.9-0.4
			c-0.4-0.4-0.6-0.7-0.6-1.1c0-0.3,0.3-0.4,0.9-0.5c1.6-0.2,3.2-0.7,4.6-1.6c1.3-0.9,2.3-2,3-3.4c-0.4,0-0.7,0-0.9,0.1
			c-0.4,0-0.8,0.1-1.4,0.2c-0.5,0-0.7-0.2-0.7-0.7c0.1-1.7,0.2-3.2,0.2-4.5c0-1.4-0.1-3-0.2-4.9C154.3-71.7,154.6-71.9,155-71.9z
			 M159.5-62.5c1.1,0,2.3,0,3.6,0.1c0.3,0,0.4-0.1,0.4-0.3v-1.9c-3.2,0-5.7,0.1-7.5,0.2c0,0-0.1,0-0.1,0c0,0.6,0,1.1-0.1,1.6
			c0,0.3,0.2,0.4,0.6,0.4C157.3-62.5,158.3-62.5,159.5-62.5z M156-65.7c0.1,0,0.1,0,0.2,0h7.3c0,0,0.1,0,0.1,0v-1.9
			c-3.2,0-5.7,0.1-7.5,0.2h0C156-66.8,156-66.2,156-65.7z M156-68.6c0,0,0.1,0,0.1,0h7.4v-1.6c0-0.2-0.1-0.3-0.2-0.3
			c-1.6-0.1-3.8-0.1-6.8-0.1c-0.3,0-0.5,0.2-0.5,0.5C156-69.6,156-69.1,156-68.6z"/>
		<path class="st2" d="M189.2-68.9c0,0.4-0.2,0.6-0.6,0.6c-0.2,0-0.5,0-0.9-0.1c-0.4-0.1-0.7-0.1-0.9-0.1c-2,0-3.8,0.6-5.4,1.8
			c-1.8,1.3-2.7,2.9-2.7,4.8c0,1.6,0.7,2.8,2.2,3.6c1.1,0.7,2.6,1,4.4,1c0.3,0,0.7,0,1.3-0.1c0.6-0.1,1-0.1,1.3-0.1
			c0.2,0,0.3,0.1,0.4,0.3c-0.1,0.5-0.4,1-0.9,1.5c-0.5,0.4-1.1,0.6-1.6,0.6c-2.2,0-4-0.6-5.6-1.7c-1.8-1.2-2.6-2.9-2.6-4.9
			c0-1.6,0.5-3,1.6-4.2c0.8-0.9,2.1-1.8,3.7-2.7c-3.4,0.3-6.6,0.8-9.6,1.6c-0.3,0.1-0.6,0.2-1.1,0.3c-0.5,0-0.7-0.3-0.7-0.7
			c0-0.5,0.1-0.8,0.3-1c0.2-0.2,0.7-0.4,1.5-0.5c2.3-0.3,5.4-0.6,9.2-0.9c3.2-0.2,5-0.4,5.6-0.4c0.3,0,0.6,0.1,0.8,0.4
			C189.1-69.4,189.2-69.2,189.2-68.9z"/>
		<path class="st2" d="M158.5-31.5c-0.1,0.3-0.4,0.7-0.9,1.2c-0.5,0.5-0.9,0.8-1.2,0.8c0.1,0-1.1-0.6-3.3-1.8
			c-0.5,0.9-1.2,1.9-2,2.8c-1.1,1.2-2,1.8-2.6,1.8c-0.3,0-0.8-0.2-1.4-0.5c-0.6-0.4-0.9-0.7-0.9-1c0-0.1,0.5-0.3,1.5-0.5
			c1.7-0.5,3.2-1.6,4.2-3.3c-1.8-0.8-3.7-1.5-5.7-2.1c-2.5,3.1-4.4,4.6-5.7,4.6c-0.6,0-1-0.3-1.4-0.8c-0.3-0.4-0.5-0.9-0.5-1.5
			c0-1.4,0.7-2.4,2.1-3c1.1-0.5,2.4-0.8,3.9-0.8c0.1,0,0.5,0,1,0.1c0.6-0.8,1.8-2.7,3.6-5.7c-1.2,0-2.1,0.1-2.5,0.1
			c-0.9,0.1-1.7,0.2-2.5,0.4c-0.7,0.2-1.1,0.3-1.2,0.3c-0.5,0-0.8-0.2-0.8-0.5c0-0.7,0.4-1.2,1.2-1.4c1.2-0.3,2.5-0.4,3.8-0.4h2.6
			c1,0,1.5,0.3,1.5,0.8c0,0.3-0.6,1.4-1.8,3.1c-1,1.5-1.8,2.7-2.5,3.6c1.5,0.4,3.4,0.9,5.7,1.7c0.3-0.9,0.6-1.7,0.6-2.4
			c0-0.4,0.2-0.6,0.7-0.6c0.4,0,0.6,0.2,0.6,0.6c0,0.7-0.3,1.7-0.8,2.9c1.5,0.6,2.9,0.9,4.2,1.1C158.3-31.9,158.4-31.7,158.5-31.5z
			 M144.7-34.3c-0.5,0-0.8-0.1-1-0.1c-1,0-1.8,0.2-2.6,0.6c-0.9,0.5-1.4,1.2-1.4,2.1c0,0.6,0.2,0.9,0.6,0.9
			C141.4-30.7,142.8-31.9,144.7-34.3z"/>
		<path class="st2" d="M180-29.3c-0.1,0.3-0.4,0.7-1.1,1.3c-0.6,0.5-1,0.8-1.4,0.9l-3.5-2.2c-0.8-0.5-1.7-1-2.6-1.4
			c-0.3,2.2-1.7,3.2-4.1,3.2c-1,0-1.9-0.2-2.7-0.7c-1-0.6-1.4-1.3-1.4-2.1c0-1,0.5-1.7,1.4-2.2c0.7-0.4,1.6-0.5,2.7-0.5
			c0.7,0,1.6,0.1,2.5,0.3c-0.1-3-0.2-5.6-0.2-7.8v-1.9c0-1,0.3-1.5,1-1.5c0.4,0,0.6,0.6,0.8,1.9c0,0.8,0,1.6,0,2.4l2.3,0
			c1.4,0,2.6,0,3.5,0.1c0.5,0,0.7,0.2,0.7,0.5c0,0.2-0.1,0.5-0.4,0.9c-0.3,0.3-0.5,0.5-0.8,0.5c-0.6-0.1-1.2-0.3-1.9-0.4
			c-0.7-0.1-1.3-0.2-1.9-0.2c-0.4,0-0.9,0-1.5,0.1v0.5c0,0.6,0,1.5,0.1,2.7c0,1.2,0,2.1,0,2.7l4.7,1.7c1,0.4,2,0.6,3,0.7
			c0.2,0,0.4,0,0.5,0.1C179.9-29.5,180-29.4,180-29.3z M170-31.3c-1.4-0.4-2.4-0.6-3-0.6c-0.6,0-1.2,0.1-1.6,0.3
			c-0.6,0.3-0.8,0.7-0.8,1.3c0,0.5,0.4,0.9,1.1,1.2c0.5,0.2,1.2,0.3,1.8,0.3C168.9-28.8,169.8-29.6,170-31.3z"/>
		<path class="st2" d="M198-35.3c0,1.6-0.6,3.1-1.7,4.5c-1,1.2-2.3,2.2-3.9,2.9c-1.7,0.8-3,1.2-3.8,1.2c-0.4,0-0.9-0.2-1.3-0.6
			c-0.5-0.4-0.7-0.8-0.7-1.3c0-0.2,0.7-0.4,2.1-0.5c1.8-0.2,3.5-0.8,5.1-1.9c1.9-1.3,2.8-2.7,2.8-4.4c0-2-1-3-3.1-3
			c-1.6,0-3.4,0.5-5.4,1.6c-0.3,0.2-0.8,0.4-1.5,0.8c-0.2,0-0.4-0.1-0.6-0.4c-0.1-0.2-0.2-0.5-0.2-0.7c0-0.7,1.1-1.3,3.2-1.8
			c1.7-0.4,3.1-0.6,4.1-0.6c2,0,3.4,0.7,4.2,2C197.8-36.8,198-36,198-35.3z M196.4-43c0,0.3-0.1,0.5-0.4,0.7
			c-0.2,0.2-0.5,0.3-0.8,0.3c-0.2,0-0.5-0.1-0.9-0.2c-0.3-0.1-0.9-0.1-1.9-0.1c-1.4,0-2.5,0.1-3.3,0.2c-0.1,0-0.3,0.1-0.7,0.1
			c-0.3,0.1-0.5,0.1-0.7,0.1c-0.3,0-0.4-0.2-0.4-0.6c0-0.8,0.4-1.2,1.1-1.2c0.9-0.1,2-0.1,3.4-0.1h2.1
			C195.6-43.7,196.4-43.5,196.4-43z"/>
	</g>
</g>
<g>
	<g>
		<path class="st2" d="M1.2,1.9h6c0.2,0,0.3,0.1,0.3,0.3c0,0.3-0.1,0.5-0.3,0.6C7,3,6.8,3.1,6.5,3.1c-0.1,0-0.5,0-1-0.1
			C5.2,3,5,3,4.7,3l0,3.3H7c0.2,0,0.3,0.1,0.3,0.3c0,0.2-0.1,0.5-0.3,0.6C6.9,7.4,6.6,7.5,6.3,7.5c-0.1,0-0.4,0-0.9-0.1
			c-0.2,0-0.5,0-0.7,0l0,3.5c1.1-0.3,1.9-0.4,2.5-0.5c0.3,0,0.4,0.1,0.4,0.4c0,0.4-0.2,0.6-0.5,0.7c-2.3,0.6-4.4,1.4-6.3,2.3
			c-0.5,0-0.7-0.2-0.7-0.6c0-0.4,0.1-0.6,0.2-0.8c0.1-0.2,0.3-0.3,0.6-0.4c0.9-0.2,1.7-0.5,2.5-0.6l0-3.8c-0.8,0-1.4,0.1-1.8,0.2
			C1.2,7.7,1,7.8,0.9,7.8c-0.4,0-0.7-0.2-0.7-0.6c0-0.2,0.1-0.4,0.4-0.6c0.2-0.1,0.5-0.2,0.8-0.2h1.8l0-3.3C2.4,3,1.7,3.1,1.3,3.2
			C1,3.3,0.8,3.4,0.7,3.4C0.3,3.4,0,3.1,0,2.7c0-0.2,0.1-0.4,0.4-0.6C0.6,1.9,0.9,1.9,1.2,1.9z M10.5,7.1c0.2,0,0.4,0,0.6,0
			c0.2,0,0.5,0,0.9,0h2.8c0.6,0,1.4,0,2.2,0.1c0.2,0,0.5,0,0.8-0.1c0.4,0,0.6,0.2,0.6,0.6c0,0,0,0,0,0.1c-0.1,0.1-0.1,0.3-0.2,0.6
			c0,0.4-0.1,0.7-0.1,1.1c0,0.2,0,0.4,0.1,0.8c0,0.4-0.2,0.6-0.6,0.6c-1.3-0.1-2.4-0.2-3.5-0.2c0,0.1,0.1,0.3,0.1,0.5
			c-0.1,0.6-0.1,1.2-0.1,1.7l0.1,2.8c0,0.9-0.2,1.3-0.7,1.3c-0.4,0-0.6-0.4-0.6-1.3C13,14.6,13,13.7,13,13c0-0.4,0-0.8,0-1.2
			c-1,1.2-2.2,2.2-3.6,3.2c-0.6,0.4-1.1,0.6-1.4,0.6c-0.3,0-0.6-0.1-1-0.4c-0.3-0.3-0.5-0.5-0.5-0.8c0-0.2,0.2-0.3,0.5-0.3
			c1.1-0.2,2.1-0.6,3-1.2c0.9-0.5,1.7-1.2,2.5-2c-0.4,0-0.7,0-0.9,0.1c-0.3,0-0.6,0.1-1.1,0.2c-0.4,0-0.6-0.2-0.6-0.6
			C10,9.9,10,9.4,10,9c0-0.3-0.1-0.7-0.2-1.2C9.8,7.3,10.1,7.1,10.5,7.1z M9,5.4h11c0.2,0,0.3,0.1,0.3,0.3c0,0.2-0.1,0.5-0.3,0.6
			c-0.2,0.2-0.4,0.3-0.8,0.3c-0.3,0-0.9,0-1.9-0.1c-1.1,0-2.2,0-3.5,0c-2,0-3.4,0.1-4.3,0.2C9,6.7,8.7,6.7,8.5,6.7
			c-0.4,0-0.6-0.2-0.7-0.6c0-0.2,0.2-0.4,0.4-0.6C8.4,5.4,8.7,5.4,9,5.4z M9.2,0.5c0.2,0,0.4,0,0.6,0c0.2,0,0.5,0,0.9,0h4.2
			c0.9,0,2.1,0,3.4,0.1c0.2,0,0.5,0,0.7-0.1c0.4,0,0.7,0.2,0.7,0.6l0,0.1c-0.1,0.1-0.1,0.3-0.2,0.6c0,0.4-0.1,0.7-0.1,1.2
			c0,0.2,0,0.5,0.1,0.8c0,0.4-0.2,0.7-0.6,0.7c-1.9-0.1-3.6-0.2-5.1-0.2c-1.7,0-2.8,0-3.3,0.1c-0.4,0-0.9,0.1-1.5,0.2
			c-0.4,0-0.6-0.2-0.6-0.7c0.1-0.6,0.2-1.1,0.2-1.5c0-0.4-0.1-0.8-0.2-1.3C8.5,0.7,8.8,0.5,9.2,0.5z M12.1,3.4l0-1.8
			c-0.5,0-1,0-1.6,0C10.2,1.6,10,1.7,10,2c0,0.4-0.1,0.7-0.2,1c0,0.3,0.2,0.5,0.5,0.5C10.9,3.4,11.4,3.4,12.1,3.4z M13.9,9.9
			c0.8,0,1.7,0,2.7,0.1c0.2,0,0.4-0.1,0.4-0.4V8.5c0-0.1-0.1-0.2-0.2-0.2c-1.2-0.1-2.9-0.1-5.1-0.1c-0.3,0-0.4,0.1-0.4,0.4
			c0,0.3-0.1,0.6-0.2,0.9c0,0.3,0.2,0.5,0.5,0.5C12.3,10,13,9.9,13.9,9.9z M13.9,3.4c0.4,0,0.8,0,1.2,0L15,1.6c-0.6,0-1.2,0-1.9,0
			v1.8C13.4,3.4,13.6,3.4,13.9,3.4z M19.5,10.4c0.5,0,0.7,0.2,0.7,0.7c0,0.3-0.2,0.5-0.5,0.7c-0.7,0.4-1.6,0.8-2.7,1.2
			c-0.1,0-0.2,0.1-0.3,0.1l0,0c1.8,1.2,2.9,1.9,3.3,2.1c0.3,0.1,0.6,0.1,1,0.2c0.3,0,0.4,0.1,0.4,0.3c0,0.3-0.2,0.5-0.6,0.8
			c-0.4,0.3-0.9,0.4-1.3,0.4c-0.3,0-0.6-0.1-0.8-0.3c-0.6-0.8-1.3-1.6-2-2.4c-0.3-0.3-0.6-0.6-0.9-0.7c0,0-0.1,0-0.1,0
			c-0.1,0-0.1,0-0.1,0c-0.4,0-0.6-0.2-0.6-0.5c0-0.2,0.1-0.4,0.3-0.5c1.6-0.8,2.9-1.4,3.8-2.1C19.3,10.5,19.4,10.4,19.5,10.4z
			 M16.1,1.6v1.8c0.6,0,1.2,0,1.8,0.1c0.3,0,0.4-0.1,0.4-0.4V1.9c0-0.1-0.1-0.2-0.2-0.2C17.5,1.7,16.9,1.6,16.1,1.6z"/>
		<path class="st2" d="M24.2,4.8h1.9l0-3.6c0-0.6,0.2-0.8,0.7-0.8c0.6,0,0.9,0.3,0.9,0.8l-0.1,3.6h2.3c0.2,0,0.3,0.1,0.3,0.3
			c0,0.3-0.1,0.5-0.3,0.6C29.8,5.9,29.5,6,29.2,6c-0.1,0-0.4,0-0.9-0.1c-0.2,0-0.4,0-0.6,0l-0.1,4.3c1.1-0.3,2-0.4,2.6-0.5
			c0.3,0,0.4,0.1,0.4,0.4c0,0.4-0.2,0.6-0.5,0.6c-2.2,0.6-4.2,1.3-6,2.1c-0.5,0-0.7-0.2-0.7-0.6s0.1-0.6,0.2-0.8
			c0.1-0.2,0.2-0.3,0.6-0.4c0.8-0.2,1.5-0.4,2.2-0.5l0-4.6c-0.8,0-1.4,0.1-1.8,0.2c-0.3,0.1-0.5,0.2-0.6,0.2C23.3,6.3,23,6,23,5.6
			c0-0.2,0.1-0.5,0.4-0.6C23.6,4.8,23.9,4.8,24.2,4.8z M33.1,6.6c0.2,0,0.5,0,0.7,0c0.2,0,0.6,0,1,0h3c0.7,0,1.5,0,2.4,0.1
			c0.2,0,0.5,0,0.8-0.1c0.4,0,0.7,0.2,0.7,0.6c0,0,0,0.1-0.1,0.2c-0.1,0.2-0.1,0.5-0.1,0.9c0,0.6-0.1,1.2-0.1,1.8c0,0.4,0,1,0.1,1.7
			c0,0.4-0.2,0.7-0.7,0.7c-0.7-0.1-1.3-0.1-1.9-0.1c0,0,0,0.1,0,0.1c0,0.6,0,1.4-0.1,2.3c0,0.2,0.1,0.3,0.2,0.3
			c0.2,0,0.8,0.1,1.6,0.1c1.4,0,2.7-0.2,3.7-0.6c0.2,0,0.3,0.2,0.3,0.5c0,0.4-0.1,0.8-0.4,1.3c-0.3,0.5-0.6,0.8-0.9,0.8
			c-0.2,0-1.9-0.2-5.1-0.7c-0.5-0.1-0.7-0.4-0.7-0.8c0.1-0.9,0.1-1.5,0.1-2c0-0.4,0-0.9-0.1-1.4c-0.2,0-0.4,0-0.7,0
			c-0.3,0-0.6,0-0.9,0c0,0.1,0,0.1,0,0.2c0,0-0.1,0-0.1,0.1c-0.3,0.6-0.9,1.4-1.7,2.2c-0.8,0.8-1.7,1.3-2.6,1.7
			c-0.6,0.3-1.1,0.4-1.5,0.4c-0.3,0-0.5-0.1-0.8-0.3c-0.4-0.3-0.6-0.6-0.6-1c0-0.3,0.3-0.4,0.8-0.5c1.1-0.1,2.2-0.4,3.2-0.9
			c0.9-0.5,1.5-1.2,2-1.9c-0.2,0-0.4,0-0.6,0c-0.3,0-0.7,0.1-1.2,0.2c-0.4,0-0.6-0.2-0.6-0.7c0.1-0.9,0.2-1.7,0.2-2.4
			c0-0.7-0.1-1.4-0.2-2.4C32.5,6.8,32.7,6.6,33.1,6.6z M37,0c0.6,0,0.9,0.3,0.9,0.8c-0.1,0.3-0.2,0.6-0.2,0.9h4.6
			c0.2,0,0.3,0.1,0.3,0.3c0,0.3-0.1,0.5-0.3,0.6C42,2.9,41.8,3,41.5,3c-0.2,0-0.7,0-1.6-0.1l-0.4,1.7h3.8c0.2,0,0.4,0.1,0.4,0.2
			c0,0.3-0.1,0.6-0.3,0.9C43.2,5.9,42.9,6,42.6,6c-0.3,0-1-0.1-2-0.2c-1.1-0.1-2.3-0.1-3.6-0.1c-2,0-3.5,0.1-4.4,0.2
			C31.9,6,31.6,6,31.4,6c-0.4,0-0.6-0.2-0.7-0.6c0-0.2,0.2-0.4,0.4-0.6c0.2-0.1,0.4-0.2,0.8-0.2h2.9l-0.5-1.7c-0.4,0-0.7,0.1-1,0.1
			c-0.4,0.1-0.7,0.2-0.8,0.2c-0.4,0-0.6-0.2-0.7-0.6c0-0.2,0.2-0.4,0.4-0.6c0.2-0.1,0.4-0.2,0.8-0.2h3.4c0-0.3-0.1-0.6-0.2-0.8
			C36.1,0.3,36.4,0,37,0z M37,11.4c0.9,0,1.8,0,2.9,0.1c0.3,0,0.4-0.1,0.4-0.4V10c0,0-0.1,0-0.1,0c-2.6,0-4.6,0.1-6.1,0.2
			c0,0-0.1,0-0.1,0c0,0.3,0,0.6-0.1,0.8c0,0.3,0.2,0.5,0.6,0.5C35.2,11.5,36,11.4,37,11.4z M34,9.1c0,0,0.1,0,0.1,0h5.9
			c0.1,0,0.1,0,0.2,0V8c0-0.1-0.1-0.2-0.2-0.2c-1.3,0-3.1-0.1-5.5-0.1c-0.3,0-0.5,0.1-0.5,0.4C34.1,8.4,34.1,8.8,34,9.1z M35.8,4.6
			h2.7l0.2-1.8c-0.5,0-1.1,0-1.7,0c-0.5,0-1,0-1.4,0L35.8,4.6z"/>
		<path class="st2" d="M54.1,8.7c0,0.6-0.2,1.2-0.7,1.6c-0.5,0.4-1.1,0.6-1.7,0.6c-0.7,0-1.2-0.2-1.6-0.6c-0.4-0.4-0.7-0.9-0.7-1.6
			s0.2-1.2,0.6-1.6c0.4-0.4,1-0.6,1.7-0.6c0.6,0,1.2,0.2,1.7,0.5C53.8,7.5,54.1,8,54.1,8.7z"/>
		<path class="st2" d="M65.7,1.7c0.4,0,0.6,0.2,0.6,0.5c0,0.2-0.1,0.4-0.2,0.6c-0.3,0.6-0.6,1.2-1,1.7H69l0-3c0-0.6,0.3-0.8,0.8-0.8
			c0.6,0,0.9,0.3,0.9,0.8l0,3h5.6c0.2,0,0.4,0.1,0.4,0.3c0,0.3-0.1,0.6-0.3,0.8c-0.2,0.2-0.5,0.3-0.8,0.3c-0.3,0-0.9-0.1-2-0.2
			c-0.9,0-1.8-0.1-2.8-0.1l0,3.5h4.8c0.2,0,0.4,0.1,0.4,0.3c0,0.3-0.1,0.6-0.3,0.8c-0.2,0.2-0.5,0.3-0.8,0.3c-0.3,0-0.9-0.1-1.8-0.2
			c-0.7,0-1.4-0.1-2.2-0.1L70.4,14c1.3,0,2.8,0.2,4.3,0.4c1.5,0.2,2.9,0.3,4.2,0.3c0.4,0,0.8,0,1.1-0.1c0.1,0,0.1,0.1,0.1,0.3
			c0,0.4-0.1,0.9-0.3,1.3c-0.3,0.5-0.5,0.7-0.8,0.7c-0.4,0-0.8-0.1-1.2-0.3c-1.6-0.6-3.1-1-4.4-1.2c-1.1-0.1-2.3-0.2-3.9-0.2
			c-1.8,0-3.3,0.1-4.6,0.3c-1.4,0.3-2.8,0.7-4.1,1.2c-0.4,0.2-0.7,0.2-1,0.2c-0.5,0-0.7-0.3-0.7-0.8c0-0.3,0.1-0.5,0.4-0.7
			c0.2-0.2,0.5-0.3,0.8-0.4c4-0.6,6.9-1,8.7-1l-0.1-3.8c-1.6,0-2.8,0.1-3.6,0.3c-0.5,0.1-0.8,0.2-0.9,0.2c-0.5,0-0.8-0.3-0.8-0.8
			c0-0.2,0.2-0.4,0.4-0.6c0.2-0.1,0.5-0.2,0.9-0.2h4.1l0-3.5c-1.6,0-2.8,0.1-3.6,0.2c-0.5,0.1-0.9,0.2-1,0.2c-0.2,0-0.3,0-0.4-0.1
			c-0.3,0.4-0.6,0.7-0.8,1.1c-0.4,0.5-0.8,0.7-1.1,0.7c-0.3,0-0.7-0.1-1.1-0.4c-0.4-0.3-0.5-0.6-0.5-0.9c0-0.2,0.2-0.4,0.5-0.4
			c0.8-0.3,1.6-0.8,2.3-1.4C64,4,64.7,3.1,65.3,1.9C65.4,1.7,65.6,1.7,65.7,1.7z"/>
		<path class="st2" d="M82.8,1.9c0.6,0,0.9,0.2,0.9,0.7c0,0.6-0.1,1.2-0.2,2.1c0,0.2,0.1,0.3,0.4,0.3c0.6,0,1.4-0.1,2.2-0.1
			c0-1.1,0-2.4-0.1-3.7c0-0.6,0.2-0.9,0.7-0.9c0.5,0,0.7,0.3,0.7,0.9c0,1.4-0.1,2.6-0.1,3.8c0.5,0,1.1,0,1.9,0.1
			c0.2,0,0.3,0.1,0.3,0.4c0,0.3-0.1,0.5-0.3,0.6C89.2,6,89,6,88.7,6c-0.5,0-0.9-0.1-1.2-0.1l0,3.3c0.7-0.2,1.3-0.3,1.8-0.4
			c0.3,0,0.4,0.1,0.4,0.4c0,0.4-0.2,0.6-0.5,0.6c-0.6,0.2-1.1,0.4-1.7,0.6l0,5.1c0,1-0.3,1.5-0.8,1.5c-0.4,0-0.6-0.5-0.6-1.5
			c0-1.7,0-3.2,0-4.6c-1.3,0.5-2.5,1.1-3.6,1.7c-0.5,0-0.7-0.2-0.7-0.6c0-0.4,0.1-0.6,0.2-0.8c0.1-0.2,0.3-0.4,0.6-0.5
			c1.4-0.4,2.6-0.8,3.6-1.1c0-1.4,0-2.6,0-3.7c-0.8,0-1.5,0.1-2.3,0.2c-0.5,0-0.9,0.1-1.2,0.3c-0.2,0.1-0.3,0.1-0.3,0.1
			c-0.4,0-0.6-0.2-0.6-0.5c0-0.1,0.1-0.4,0.4-0.7c0.1-0.4,0.2-0.8,0.2-1.2c0-0.2,0-0.5,0-0.9c-0.1-0.4-0.1-0.7-0.1-0.8
			C82.2,2.1,82.4,1.9,82.8,1.9z M94.3,0.6c0.4,0,0.6,0.2,0.6,0.5c0,0.2-0.1,0.4-0.2,0.6c-0.3,0.6-0.6,1.2-0.9,1.8c0.6,0,1.4,0,2.5,0
			h4.6c0.1,0,0.4-0.1,0.8-0.2c0.6,0,0.8,0.3,0.8,0.8c-0.4,2.1-0.6,4.1-0.7,6.2c-0.2,2.8-0.6,4.7-1.4,5.6c-0.6,0.8-1.4,1.2-2.3,1.2
			c-0.4,0-0.8-0.2-1-0.5c-0.2-0.3-0.3-0.6-0.3-0.9c0-0.3,0.1-0.4,0.4-0.5c1.3-0.1,2.1-0.5,2.4-1.1c0.4-0.6,0.8-2.5,1.1-5.6
			c0.1-1.9,0.2-3.1,0.2-3.5c0-0.2-0.1-0.4-0.3-0.4h-1.6c0,0,0,0.1,0,0.1l0,0.2c-0.1,0.5-0.3,1.4-0.6,2.5c-0.5,1.9-1.2,3.6-2.1,5.1
			c-0.5,1-1.1,1.8-1.8,2.5c-0.9,0.8-1.5,1.2-1.8,1.2c-0.3,0-0.6-0.2-1-0.6c-0.3-0.3-0.5-0.6-0.5-0.8c0-0.2,0.2-0.3,0.6-0.4
			c0.7-0.2,1.5-0.7,2.2-1.5c0.8-0.7,1.7-2,2.5-3.8c0.6-1.4,1-2.9,1.1-4.4c0,0,0-0.1,0-0.1h-0.5c-0.4,0-0.8,0-1.2,0l0,0.1
			c-0.1,0.4-0.3,0.9-0.5,1.7c-0.4,1.3-1,2.4-1.7,3.5c-0.4,0.7-0.9,1.2-1.5,1.7c-0.7,0.5-1.2,0.8-1.5,0.8c-0.3,0-0.6-0.2-0.9-0.5
			c-0.3-0.3-0.4-0.6-0.4-0.8c0-0.2,0.2-0.3,0.6-0.4c0.6-0.1,1.2-0.4,1.8-1c0.7-0.4,1.3-1.2,2-2.4c0.4-0.9,0.8-1.7,0.9-2.6
			c-0.2,0-0.4,0-0.6,0.1c-0.6,0.1-0.9,0.2-1.1,0.2c-0.1,0-0.2,0-0.2,0c-0.1,0.2-0.3,0.4-0.4,0.6c-0.3,0.4-0.6,0.7-0.8,0.7
			c-0.3,0-0.6-0.1-1-0.4s-0.5-0.5-0.5-0.8c0-0.2,0.2-0.2,0.5-0.3c0.7-0.3,1.3-0.7,1.8-1.3c0.6-0.6,1.1-1.4,1.7-2.5
			C94.2,0.6,94.3,0.6,94.3,0.6z"/>
		<path class="st2" d="M119.4,6.1c0.4,0,0.6,0.2,0.6,0.6c0,0.2-0.1,0.3-0.3,0.5c0,0-0.1,0.1-0.1,0.1c0.8,0.6,1.5,1.2,2.3,1.8
			c0.2,0,0.5,0.1,0.6,0.3c0.2,0.2,0.4,0.4,0.4,0.7c0,0.3-0.4,0.6-1.1,1c-3.7,2.4-7.2,4.2-10.5,5.3c-1.3,0.5-2.8,0.8-4.4,0.8
			c-0.4,0-0.7-0.1-1-0.4c-0.6-0.6-0.8-1.1-0.8-1.7c0-0.4,0.1-0.6,0.4-0.6c0.2,0,0.4,0.1,0.6,0.2c0.4,0.2,0.8,0.2,1.4,0.2
			c1.8,0,3.4-0.2,4.7-0.5c1-0.3,2-0.6,3.1-1.1c-0.6-0.6-1-1-1.3-1.1c-0.3-0.1-0.4-0.3-0.4-0.5c0-0.5,0.3-0.8,0.8-0.8
			c0,0,0.4,0.3,0.9,0.8c0.5,0.5,0.8,0.9,0.8,1.1c0.9-0.4,1.8-0.8,2.7-1.3c1.5-0.8,2.3-1.3,2.3-1.5c0-0.1-0.1-0.3-0.4-0.5
			c-0.7-0.4-1.3-0.8-1.9-1.2c-0.1-0.1-0.3-0.2-0.3-0.4c-2.2,1.3-4.1,2.3-5.9,3c-1.5,0.6-2.6,0.9-3.3,0.9c-0.4,0-0.7-0.1-1-0.4
			c-0.3-0.2-0.4-0.5-0.4-0.8c0-0.2,0.1-0.3,0.3-0.4c2.7-0.5,4.7-1,6.1-1.6c1.3-0.4,2.8-1.2,4.7-2.4C119.1,6.2,119.2,6.1,119.4,6.1z
			 M117.2,0.1c0.4,0,0.5,0.2,0.6,0.6c0,0.1,0,0.2-0.1,0.3c0.6,0.5,1.2,1,1.8,1.6c0.2,0,0.4,0.1,0.5,0.3c0.2,0.2,0.3,0.4,0.3,0.6
			c0,0.2-0.3,0.5-0.9,0.7c-2.8,1.8-5.4,3.1-7.9,3.9c-1,0.4-2.1,0.6-3.3,0.6c-0.2,0-0.5-0.1-0.7-0.4c-0.4-0.5-0.6-1-0.6-1.4
			c0-0.3,0.1-0.5,0.3-0.5c0.2,0,0.3,0.1,0.5,0.2c0.3,0.1,0.8,0.2,1.3,0.2c1.3,0,2.3-0.1,3.2-0.4c0.4-0.1,0.8-0.2,1.1-0.4
			c-0.5-0.5-0.9-0.8-1.2-1c-0.3-0.1-0.4-0.3-0.4-0.5c0-0.5,0.3-0.8,0.8-0.8c0.1,0,0.4,0.3,0.9,0.8c0.5,0.5,0.7,0.8,0.8,1.1
			c0.8-0.3,1.7-0.7,2.5-1.2c1-0.5,1.5-0.9,1.5-1.1c0-0.1-0.1-0.3-0.3-0.4c-0.4-0.4-0.9-0.8-1.3-1.1c-0.1-0.1-0.2-0.2-0.2-0.3
			c-1.8,0.9-3.4,1.5-4.9,2c-1.2,0.4-2.1,0.6-2.7,0.6c-0.4,0-0.7-0.1-0.9-0.4c-0.3-0.2-0.4-0.5-0.4-0.8c0-0.2,0.1-0.3,0.3-0.4
			c2.2-0.3,3.9-0.6,5-1c1-0.3,2.3-0.8,3.8-1.5C116.9,0.2,117.1,0.1,117.2,0.1z"/>
		<path class="st2" d="M127.8,3.7h2.8c0-0.8-0.1-1.7-0.1-2.5c0-0.6,0.2-0.9,0.7-0.9c0.5,0,0.8,0.3,0.8,0.9c0,0.9-0.1,1.7-0.1,2.5
			h2.6c0.2,0,0.3,0.1,0.3,0.3c0,0.3-0.1,0.5-0.3,0.7c-0.2,0.2-0.5,0.3-0.8,0.3c-0.2,0-0.5,0-1.1-0.1c-0.2,0-0.5,0-0.7,0
			c0,0.3,0,0.7,0,1l0,1.2c0,0,0.1,0,0.2,0c0,0,0.4,0.3,1,0.8c0.6,0.5,0.9,0.9,0.9,1.1c0,0.4-0.2,0.6-0.7,0.6c0,0-0.1,0-0.3-0.1
			c-0.5-0.4-0.9-0.8-1.2-0.9l0.1,7.5c0,1-0.3,1.5-0.9,1.5c-0.4,0-0.6-0.5-0.6-1.5c0-2.8,0-5.1,0-7.1c-0.4,0.5-0.7,1-1.1,1.4
			c-0.5,0.6-1,1-1.7,1.4c-0.1,0.1-0.2,0.1-0.3,0.1c-0.4,0-0.7-0.2-1.1-0.6c-0.3-0.3-0.5-0.6-0.5-0.9c0-0.2,0.2-0.3,0.6-0.3
			c0.4-0.1,0.8-0.1,1-0.2c0.5-0.2,1-0.5,1.5-0.9c0.5-0.5,0.9-1,1.2-1.6c0.1-0.1,0.2-0.2,0.3-0.2c0-0.4,0-0.7,0-1c0-0.3,0-0.7,0-1
			c-1.2,0-2.1,0.1-2.7,0.2c-0.3,0.1-0.5,0.2-0.6,0.2c-0.4,0-0.7-0.2-0.7-0.6c0-0.2,0.1-0.4,0.4-0.6C127.2,3.7,127.5,3.7,127.8,3.7z
			 M138.4,0.3c0.4,0.1,0.6,0.3,0.7,0.6c0.2,0.9,0.3,1.5,0.3,1.7c0,0,0,0.1,0,0.1h3.4c0-0.1,0.2-0.8,0.6-2c0.1-0.3,0.3-0.4,0.7-0.4
			c0.5,0,0.8,0.3,0.8,0.7c0,0.1-0.1,0.3-0.2,0.4c-0.4,0.5-0.7,0.9-1,1.2c0,0-0.1,0.1-0.1,0.1h2.6c0.2,0,0.3,0.1,0.4,0.3
			c0,0.3-0.1,0.6-0.3,0.8c-0.2,0.2-0.5,0.3-0.9,0.3c-0.2,0-0.8-0.1-1.6-0.2c-0.7,0-1.4-0.1-2.1-0.1c0,0.1,0,0.2,0,0.4
			c0,0.4,0,0.8,0,1.1h3.4c0.2,0,0.3,0.1,0.3,0.2c0,0.3-0.1,0.5-0.3,0.7c-0.2,0.2-0.5,0.3-0.8,0.3c-0.2,0-0.6,0-1.3-0.1
			c-0.4,0-0.9,0-1.4,0c0,0.5,0,1,0,1.5c0.9,0,2.1,0.1,3.6,0.1c0.3,0,0.6,0,0.9,0c0.2,0,0.5,0,1-0.1c0.4-0.1,0.6-0.2,0.7-0.2
			c0.2,0,0.3,0.1,0.3,0.2c0,0.4-0.2,0.8-0.6,1.3c-0.4,0.5-0.7,0.7-1.1,0.7c-0.2,0-0.6-0.1-1.2-0.3c-1-0.3-2.2-0.5-3.6-0.6l0.1,6.6
			c0,1-0.3,1.5-0.8,1.5c-0.4,0-0.6-0.5-0.6-1.5c0-2.7,0-4.9,0-6.6c-1.9,0-3.2,0.1-4,0.4c-0.4,0.1-0.7,0.2-1,0.2
			c-0.4,0-0.6-0.2-0.6-0.6c0-0.2,0.1-0.5,0.3-0.7c0.2-0.2,0.4-0.3,0.6-0.3c0.2,0,0.3,0,0.5,0.1c1.6-0.2,3-0.3,4.2-0.3
			c0-0.5,0-1,0-1.5c-1.1,0-1.9,0.1-2.4,0.1c-0.4,0.1-0.6,0.1-0.7,0.1c-0.4,0-0.6-0.2-0.7-0.6c0-0.2,0.1-0.4,0.4-0.6
			c0.2-0.1,0.4-0.2,0.8-0.2h2.6c0-0.4,0-0.7,0-1.1c0-0.1,0-0.3,0-0.4c-1.4,0-2.4,0.1-3,0.2c-0.4,0.1-0.7,0.2-0.9,0.2
			c-0.4,0-0.7-0.2-0.7-0.6c0-0.2,0.1-0.5,0.4-0.6c0.2-0.1,0.5-0.2,0.8-0.2h1.7c0,0-0.1-0.1-0.1-0.1c-0.2-0.4-0.4-0.7-0.6-1.1
			c-0.1-0.2-0.1-0.4-0.1-0.6C137.6,0.5,137.8,0.3,138.4,0.3z M138.6,13.8c0.3,0,0.4,0.1,0.4,0.4c0,0.2-0.1,0.4-0.2,0.6
			c-1.7,1.2-2.6,1.9-2.9,1.9c-0.6,0-0.9-0.2-0.9-0.6c0-0.5,0.1-0.8,0.4-0.9C135.3,15,136.4,14.6,138.6,13.8z M136.4,10.5
			c0.1,0,0.5,0.2,1.4,0.7c0.8,0.5,1.2,0.8,1.2,1.1c0,0.4-0.2,0.6-0.7,0.6c-0.1,0-0.2,0-0.4-0.1c-0.9-0.5-1.5-0.9-1.9-1
			c-0.4-0.1-0.6-0.3-0.6-0.4C135.5,10.8,135.8,10.5,136.4,10.5z M145.6,10.5c0.4,0,0.7,0.3,0.7,0.8c0,0.3-0.1,0.5-0.3,0.6
			c-1.6,0.7-2.5,1-2.5,1c-0.4,0-0.6-0.1-0.6-0.3c0-0.2,0.1-0.3,0.2-0.5l2.2-1.6C145.5,10.5,145.6,10.5,145.6,10.5z M143.2,13.8
			c0,0,0.1,0,0.1,0c0.8,0.5,1.5,0.9,2,1.1c0.3,0.1,0.8,0.2,1.3,0.2c0.2,0,0.3,0.1,0.3,0.3c0,0.3-0.2,0.5-0.5,0.7
			c-0.6,0.4-1.1,0.6-1.4,0.6c-0.2,0-0.3-0.1-0.4-0.2c-0.2-0.2-0.8-1-1.7-2.2c-0.1-0.1-0.1-0.2-0.1-0.3
			C142.9,13.9,143,13.8,143.2,13.8z"/>
		<path class="st2" d="M151.1,2.9c0.4,0,0.6,0.3,0.6,0.8c-0.1,0.7-0.1,1.3-0.1,1.8v3c0,0.9-0.2,1.4-0.7,1.4c-0.4,0-0.6-0.5-0.6-1.4
			c0.1-1.3,0.2-2.3,0.2-3c0-0.5,0-1.1-0.1-1.8C150.4,3.2,150.6,2.9,151.1,2.9z M153.9,0.1c0.5,0,0.7,0.3,0.7,0.9
			c-0.1,1.7-0.1,3.3-0.1,4.7l0.1,10c0,1-0.3,1.5-0.8,1.5c-0.4,0-0.6-0.5-0.6-1.5c0.1-4.3,0.1-7.6,0.1-10c0-1.4,0-2.9-0.1-4.7
			C153.2,0.4,153.4,0.1,153.9,0.1z M156.9,1.2c0.5,0,0.7,0.2,0.7,0.6l-1.4,3c-0.1,0.3-0.3,0.4-0.6,0.4c-0.2,0-0.4-0.2-0.4-0.5l0.9-3
			C156.3,1.4,156.6,1.2,156.9,1.2z M160.4,2.3c0.4,0,0.6,0.2,0.6,0.5c0,0.2-0.1,0.5-0.2,0.7c-0.2,0.5-0.4,1-0.7,1.5c0,0,0,0,0,0h3.1
			l0-3.6c0-0.6,0.2-0.8,0.7-0.8c0.6,0,0.9,0.3,0.9,0.8l0,3.6h4.5c0.2,0,0.4,0.1,0.4,0.3c0,0.3-0.1,0.6-0.3,0.8
			c-0.2,0.2-0.5,0.3-0.8,0.3c-0.2,0-0.8-0.1-1.6-0.2c-0.7,0-1.4-0.1-2.1-0.1l0,3.3h3.8c0.2,0,0.3,0.1,0.4,0.3c0,0.3-0.1,0.6-0.3,0.8
			c-0.2,0.2-0.5,0.3-0.9,0.3c-0.2,0-0.7-0.1-1.4-0.2c-0.5,0-1-0.1-1.6-0.1l0,3.6c0.8,0,1.6,0.1,2.5,0.2c1,0.1,1.9,0.1,2.8,0.1
			c0.4,0,0.8,0,1.1-0.1c0.1,0,0.1,0.1,0.1,0.3c0,0.4-0.1,0.9-0.4,1.3c-0.3,0.5-0.5,0.7-0.8,0.7s-0.5-0.1-0.8-0.3c-1.1-0.5-2-0.8-3-1
			c-0.7-0.1-1.6-0.2-2.6-0.2c-1.2,0-2.2,0.1-3.1,0.3c-0.9,0.2-1.8,0.6-2.7,1c-0.3,0.1-0.5,0.2-0.6,0.2c-0.4,0-0.6-0.3-0.6-0.7
			c0-0.3,0.1-0.5,0.3-0.7c0.2-0.2,0.5-0.3,0.8-0.4c2.5-0.4,4.4-0.7,5.6-0.7l-0.1-3.6c-1.3,0-2.2,0.1-2.8,0.2
			c-0.4,0.1-0.6,0.2-0.8,0.2c-0.4,0-0.7-0.2-0.7-0.6c0-0.2,0.1-0.4,0.4-0.6c0.2-0.1,0.5-0.2,0.8-0.2h3.1l0-3.3
			c-1.2,0-2.2,0.1-2.8,0.2c-0.4,0.1-0.7,0.2-0.8,0.2c-0.2,0-0.3,0-0.4-0.1c-0.2,0.3-0.4,0.6-0.6,0.8c-0.3,0.4-0.6,0.6-0.8,0.6
			c-0.3,0-0.7-0.1-1.1-0.4c-0.4-0.3-0.5-0.6-0.5-0.9c0-0.2,0.2-0.4,0.5-0.4c0.6-0.3,1.2-0.7,1.7-1.2c0.5-0.6,1-1.4,1.5-2.4
			C160.2,2.3,160.3,2.3,160.4,2.3z"/>
		<path class="st2" d="M178.9,11.5c-0.2,0.8-0.5,1.6-0.9,2.5c-0.6,1.3-1.1,1.9-1.5,1.9c-0.5,0-0.9-0.6-1.3-1.9
			c-0.3-1.1-0.5-2.7-0.5-4.8c0-0.8,0.1-2,0.4-3.6c0.3-1.7,0.6-2.8,0.9-3.4c0.2-0.4,0.5-0.6,0.9-0.6c0.5,0,0.8,0.2,0.8,0.7
			c0,0.1-0.1,0.5-0.4,1c-0.4,0.8-0.6,1.7-0.9,2.8C176.2,7.4,176,8.3,176,9c0,3.1,0.2,4.7,0.7,4.7c0.2,0,0.7-0.8,1.5-2.3
			c0.1-0.2,0.2-0.3,0.3-0.3C178.8,11.2,178.9,11.3,178.9,11.5z M191,12.3c0,0.1-0.2,0.5-0.5,1.2c-0.3,0.6-0.6,0.9-1,1.1
			c-0.5,0.2-1.6,0.3-3.4,0.3c-1.4,0-2.6-0.2-3.6-0.6c-1.4-0.6-2.1-1.5-2.1-2.7c0-1.3,0.3-2,0.9-2c0.1,0,0.2,0.1,0.2,0.3
			c-0.2,0.6-0.2,1-0.2,1.2c0,1.4,1.1,2.1,3.3,2.1c0.9,0,2-0.1,3.2-0.3c0.7-0.1,1.3-0.3,1.9-0.5c0.5-0.2,0.8-0.3,1-0.3
			C190.8,12,190.9,12.1,191,12.3z M188.9,3.6c0,0.2-0.6,0.8-1.8,1.6c-1.2,0.8-1.9,1.2-2.1,1.2c-0.3,0-0.4-0.1-0.4-0.3
			c0-0.1,0.3-0.5,0.8-1c0.5-0.4,0.8-0.8,1.1-0.9c-0.1,0-0.2,0-0.3,0c-1,0-2.1,0.1-3.3,0.3c-1.3,0.2-1.9,0.4-1.8,0.4
			c-0.3,0-0.4-0.2-0.4-0.5c0-0.5,0.2-0.8,0.6-1c0.2,0,0.6-0.1,1.3-0.2C184.1,3,186,3,188.1,3C188.6,3,188.9,3.2,188.9,3.6z"/>
		<path class="st2" d="M196.8,0.6l4.7,0.1c0.5-0.1,0.8-0.1,0.9-0.1c0.6,0,0.9,0.2,0.9,0.6c-0.2,0.7-0.3,1.4-0.4,2.2
			c0,0.4,0,1.3,0,2.5c0,0.4-0.2,0.7-0.6,0.7c-0.1,0-0.3,0-0.4-0.1c0,0-0.1,0-0.1,0c-2.1,0-3.7,0.1-4.9,0.2c0,0,0,0,0,0v2.5
			c0,1.5-0.1,2.7-0.2,3.8c-0.2,1-0.4,1.9-0.8,2.7c-0.4,0.7-0.6,1-0.9,1c-0.3,0-0.7-0.2-1.1-0.5c-0.4-0.4-0.7-0.6-0.7-0.8
			c0-0.2,0.1-0.3,0.4-0.4c0.6-0.4,1.1-1.2,1.4-2.2c0.4-1.1,0.5-3.3,0.5-6.6c0-1.6-0.1-3.3-0.3-5.1c0-0.4,0.2-0.6,0.7-0.6
			c0.3,0,0.5,0,0.6,0.1C196.7,0.6,196.8,0.6,196.8,0.6z M196.9,1.6c0,0.1,0,0.2,0,0.3v1.2c0,0,0.1,0,0.1,0h4.7h0c0-0.5,0-1,0.1-1.3
			c0-0.2-0.1-0.3-0.3-0.3C200.2,1.5,198.7,1.5,196.9,1.6z M196.9,5.6c0,0,0.1,0,0.1,0h4.7c0,0,0-0.1,0-0.1c0-0.5,0-1,0-1.5
			c-2,0-3.6,0.1-4.8,0.2c0,0,0,0,0,0V5.6z M202.7,7.6c0.3,0,0.5,0.2,0.6,0.5c0.1,0.6,0.1,0.9,0.1,1c0,0,0,0.1,0,0.1
			c0.9,0,1.7,0,2.4,0c0-0.2,0.1-0.6,0.2-1.2c0.1-0.2,0.3-0.4,0.6-0.4c0.4,0,0.7,0.2,0.7,0.6c0,0.1,0,0.2-0.1,0.3
			c-0.2,0.3-0.4,0.5-0.5,0.7c0.8,0,1.4,0,1.8-0.1c0.2,0,0.3,0.1,0.3,0.4c0,0.2-0.1,0.3-0.2,0.5c-0.2,0.2-0.4,0.3-0.7,0.3
			c-0.7-0.1-1.6-0.1-2.9-0.2c0,0.1,0,0.2,0,0.3c-0.1,0.4-0.1,0.8-0.2,1.3c0.8,0,1.8,0.1,3.1,0.1c0.3,0,0.5,0,0.7,0
			c0.2,0,0.5,0,0.9-0.1c0.4-0.1,0.6-0.1,0.7-0.1c0.1,0,0.2,0.1,0.2,0.2c0,0.4-0.2,0.7-0.5,1.2c-0.3,0.4-0.6,0.6-0.9,0.6
			c-0.2,0-0.5-0.1-1-0.3c-0.9-0.3-2-0.5-3.4-0.5c-0.1,0.5-0.2,0.9-0.4,1.3c-0.4,0.8-0.9,1.4-1.5,1.8c-0.8,0.6-1.4,0.9-2.1,0.9
			c-0.3,0-0.5-0.1-0.7-0.3c-0.3-0.3-0.5-0.7-0.5-1c0-0.1,0.1-0.2,0.4-0.2c0.7-0.1,1.3-0.2,1.7-0.4c0.7-0.2,1.3-0.8,1.8-1.6
			c0.1-0.2,0.2-0.4,0.3-0.6c-1.6,0-2.8,0.1-3.5,0.4c-0.4,0.1-0.7,0.2-0.9,0.2c-0.3,0-0.5-0.2-0.5-0.6c0-0.2,0.1-0.4,0.3-0.6
			c0.2-0.2,0.3-0.3,0.5-0.3c0.2,0,0.3,0,0.5,0.1c1.4-0.2,2.7-0.2,3.8-0.3c0-0.2,0-0.3,0-0.5c-0.1-0.4-0.1-0.7-0.1-1c0,0,0-0.1,0-0.1
			c-0.2,0-0.4,0-0.6,0c-0.6,0-1.3,0.1-2.4,0.3c-0.4,0-0.6-0.2-0.6-0.5c0-0.2,0.1-0.4,0.3-0.6c0.2-0.2,0.4-0.3,0.6-0.3l0.8,0.1
			c0.3,0,0.6,0,0.9,0c-0.2-0.3-0.3-0.5-0.5-0.7c-0.1-0.1-0.1-0.3-0.1-0.4C202.1,7.8,202.3,7.6,202.7,7.6z M206,14.3c0,0,0.1,0,0.1,0
			c0.7,0.4,1.2,0.7,1.7,0.8c0.3,0.1,0.7,0.2,1.1,0.2c0.1,0,0.2,0.1,0.2,0.3c0,0.2-0.1,0.5-0.4,0.7c-0.5,0.4-1,0.5-1.2,0.5
			c-0.1,0-0.2-0.1-0.3-0.2c-0.2-0.2-0.6-0.8-1.3-1.9c0-0.1-0.1-0.2-0.1-0.2C205.7,14.4,205.8,14.3,206,14.3z M206.4,0.5
			c0.2,0,0.4,0,0.6,0.1l4.8,0.1c0.2,0,0.6-0.1,1.1-0.2c0.6,0,0.9,0.2,0.9,0.6c-0.3,1.9-0.5,4.2-0.5,6.9c0,1.9,0.1,4.7,0.3,8.2
			c0,0.6-0.3,0.9-0.8,0.9c-0.2,0-0.4-0.1-0.5-0.4c-0.1-0.3-0.1-0.7-0.1-1.2c0-3.5,0-6.5,0.1-9.1c-0.1,0-0.1,0-0.2,0
			c-0.9-0.1-1.6-0.1-2.2-0.1c-0.7,0-1.4,0-2.2,0.1c-0.4,0-0.7,0.1-1,0.2c-0.1,0-0.2,0.1-0.3,0.1c-0.4,0-0.6-0.1-0.6-0.4
			c0-0.2,0-0.6,0.1-1c0-0.6,0.1-1.1,0.1-1.7c0-0.3,0-0.8-0.1-1.4c-0.1-0.6-0.1-1-0.1-1.2C205.8,0.6,206,0.5,206.4,0.5z M212.2,5.4
			c0-0.5,0-1,0-1.4c-2,0-3.6,0.1-4.8,0.2c-0.1,0-0.2,0-0.2,0c0,0.3,0,0.7-0.1,1c0,0.2,0.1,0.3,0.3,0.3c0.6-0.1,1.4-0.1,2.3-0.1
			H212.2z M207.3,3c0.1,0,0.2,0,0.2,0h4.7c0,0,0,0,0,0c0-0.4,0-0.8,0-1.2c0-0.2-0.2-0.3-0.7-0.3c-1.6,0-3,0-4.3,0
			C207.3,2,207.3,2.5,207.3,3z"/>
		<path class="st2" d="M235.4,4.2c-0.1,0.3-0.3,0.8-0.7,1.2c-0.4,0.5-0.8,0.8-1.1,0.8c-0.3-0.1-0.8-0.3-1.4-0.6
			c-1.3-0.5-2.8-0.8-4.4-0.9c0,0.9,0,2.2-0.1,4c0.4,1.1,0.6,1.9,0.6,2.4c0,1-0.3,1.9-1,2.8c-0.6,0.8-1.4,1.5-2.3,1.9
			c-1.1,0.6-2,0.8-2.7,0.8c-0.4,0-0.8-0.2-1.2-0.6c-0.4-0.4-0.6-0.8-0.6-1.2c0-0.1,0.2-0.2,0.7-0.3c1.4-0.1,2.4-0.2,3-0.4
			c1.1-0.3,1.9-0.9,2.4-1.8c0.3-0.6,0.5-1.1,0.5-1.5c0,0,0-0.1,0-0.1c0-0.1,0-0.2,0-0.2c-0.3,0.5-0.7,0.9-1.3,1.2
			c-0.6,0.3-1.2,0.5-1.7,0.5c-0.8,0-1.5-0.3-2.2-0.8c-0.6-0.5-1-1.2-1-1.9c0-0.9,0.4-1.5,1.1-2c0.6-0.4,1.4-0.6,2.3-0.6
			c0.7,0,1.3,0.2,2.1,0.6c0-0.4,0-1.3,0-2.8c-2.4,0-4.5,0.3-6.5,0.9c-1.1,0.4-1.7,0.6-1.8,0.6c-0.5,0-0.8-0.3-0.8-0.9
			c0-0.5,0.6-0.9,1.9-1.2c0.8-0.1,1.6-0.2,2.4-0.3c1.4-0.2,3-0.3,4.8-0.3c-0.1-1.5-0.1-2.3-0.1-2.4c0-0.7,0.2-1,0.7-1
			c0.6,0,0.8,0.4,0.8,1.3c0,0.2,0,0.6,0,1.1c0,0.4,0,0.8,0,1c2.7,0.2,5.1,0.3,7.1,0.3C235.1,4,235.3,4.1,235.4,4.2z M226.4,9
			c-0.5-0.7-1.2-1-2-1c-0.5,0-1,0.1-1.5,0.4c-0.5,0.3-0.7,0.7-0.7,1.2c0,0.5,0.2,0.9,0.5,1.2c0.4,0.3,0.8,0.4,1.3,0.4
			C225.5,11.1,226.3,10.4,226.4,9z"/>
		<path class="st2" d="M252.6,11.4c0,1.7-0.8,3-2.4,3.9c-1.3,0.7-2.8,1.1-4.7,1.1c-0.9,0-1.7-0.2-2.5-0.6c-0.9-0.5-1.4-1.1-1.4-1.9
			c0-1.2,0.7-1.8,2.2-1.8c1.8,0,3.2,0.9,4.3,2.6c0.8-0.3,1.4-0.6,1.9-1.2c0.5-0.6,0.8-1.3,0.8-2.1c0-0.9-0.4-1.6-1.1-2.1
			c-0.6-0.4-1.4-0.6-2.4-0.6c-1.2,0-2.5,0.2-3.8,0.6c-1.4,0.5-2.5,1.1-3.4,1.9c-0.4,0.4-0.7,0.6-0.9,0.6c-0.5,0-0.8-0.3-0.8-0.8
			c0-0.3,0.3-0.7,0.8-1.2l7.8-6.7c0.1-0.1,0.2-0.2,0.3-0.3c-0.1-0.1-0.3-0.1-0.5-0.1c-0.7,0-1.7,0-2.8,0.1c-1.5,0.1-2.3,0.2-2.6,0.3
			c-0.5,0-0.7-0.2-0.7-0.7c0-0.5,0.5-0.7,1.4-0.7c1.7,0,4.1-0.1,7-0.1c0.7,0,1,0.2,1,0.5c0,0.2-0.2,0.5-0.7,0.8
			c-2.6,2-4.9,3.9-6.9,5.6c1.6-0.7,3.3-1,5-1c1.2,0,2.3,0.3,3.2,0.9C252,9.2,252.6,10.2,252.6,11.4z M246.7,15
			c-0.9-1.4-1.9-2.1-2.9-2.1c-0.8,0-1.2,0.3-1.2,0.9c0,0.8,1,1.3,2.9,1.3C245.7,15.1,246.1,15,246.7,15z"/>
		<path class="st2" d="M271.8,1.8c0,0.5-0.7,1.4-2,2.6c-1.1,1-2,1.7-2.8,2.2c0,1.8,0,3.6,0,5.2c0,0.3,0,0.9,0.1,1.8
			c0.1,0.8,0.1,1.4,0.1,1.8c0,0.8-0.2,1.3-0.6,1.3c-0.7,0-1-0.4-1-1.3c0-3.7,0-6.4,0.1-8c-3,1.5-5.3,2.2-6.9,2.2
			c-0.4,0-0.9-0.2-1.3-0.6c-0.4-0.4-0.6-0.9-0.6-1.3c0-0.2,0.3-0.3,0.8-0.4c0.3,0,0.7,0,1.2,0c2.8-0.2,5.2-0.8,7.2-2
			c1.9-1.1,3.2-2.2,4-3.3c0.4-0.6,0.8-0.9,1.2-0.9C271.6,1.1,271.8,1.3,271.8,1.8z"/>
		<path class="st2" d="M293.3,12.9c-0.2,0.6-0.6,0.9-1,0.9c-0.3,0-0.7-0.2-1.2-0.6l-2.7-2.3c-1.6-1.3-2.8-2.4-3.6-3.1
			c-0.3-0.3-0.9-0.8-1.6-1.4c-0.8-0.6-1.2-0.9-1.4-0.9c-0.2,0-1.1,0.9-2.7,2.6c-1.6,1.7-2.7,2.5-3.2,2.5c-0.3,0-0.6-0.1-0.8-0.3
			c-0.2-0.2-0.3-0.4-0.3-0.7c0-0.2,0.2-0.5,0.7-0.8c1.2-0.8,2.7-2,4.5-3.6c0.9-0.8,1.5-1.2,1.9-1.2c0.4,0,0.9,0.3,1.5,0.8
			c1,0.9,2.6,2.2,4.8,3.9l4.1,2.8C292.9,12,293.2,12.4,293.3,12.9z M289.4,4c0,0.2-0.2,0.4-0.5,0.6c-0.3,0.2-0.5,0.3-0.7,0.3
			c-0.3,0-0.6-0.4-1.1-1.2c-0.5-0.8-0.7-1.3-0.7-1.7c0-0.2,0.1-0.3,0.2-0.3c0.1,0,0.3,0.1,0.4,0.3c0.7,0.8,1.3,1.4,2,1.6
			C289.2,3.8,289.4,3.9,289.4,4z M292.5,3c-0.1,0.2-0.2,0.4-0.5,0.7c-0.3,0.2-0.5,0.4-0.6,0.4C291,4,290.5,3.6,289.9,3
			c-0.5-0.7-0.8-1.2-0.8-1.5c0-0.1,0-0.2,0.1-0.2c0,0,0.3,0.2,0.8,0.5c0.5,0.4,0.8,0.6,0.9,0.6C291.5,2.6,291.9,2.8,292.5,3z"/>
		<path class="st2" d="M302.8,6c0,0.3-0.1,0.4-0.4,0.4c-0.5,0-1.4-0.3-2.5-0.9c-1.3-0.6-1.9-1.1-1.9-1.6c0-0.3,0.1-0.5,0.3-0.7
			c0.2-0.2,0.5-0.3,0.7-0.3c0.3,0,1.1,0.4,2.2,1.3C302.2,5.2,302.8,5.8,302.8,6z M312.1,4.8c0,0.5-0.6,1.5-1.8,3
			c-2.4,3.2-5.4,5.6-9.2,7.1c-1.1,0.5-1.9,0.7-2.3,0.7c-0.7,0-1-0.3-1-1c0-0.6,0.4-1,1.3-1.2c1-0.2,2.3-0.7,3.8-1.3
			c1.9-0.8,3.6-2,5-3.4c1.5-1.4,2.5-2.7,3-3.8c0.2-0.4,0.4-0.5,0.6-0.5C312,4.2,312.1,4.4,312.1,4.8z"/>
		<path class="st2" d="M329.6,10c0,0.3-0.4,0.7-1.1,1.2c-0.8,0.5-1.3,0.8-1.6,0.8c-0.3,0-0.7-0.3-1.2-1c-1.4-1.7-3.1-3-5.1-3.9
			c0,0.9,0,2.3,0,4.2c0,1.8,0.1,3.2,0.1,4.2c0,0.7-0.3,1-0.9,1c-0.5,0-0.7-0.4-0.7-1.2c0-0.7,0-1.8,0-3.2c0-1.4,0.1-2.5,0.1-3.2V4.6
			c0-0.3,0-0.8-0.1-1.4c0-0.7,0-1.1,0-1.5c0-0.6,0.3-0.9,0.9-0.9c0.5,0,0.8,0.3,0.8,0.9c0,0.5,0,1.2-0.1,2.1s-0.1,1.7-0.1,2.1
			c1.6,0.7,3.2,1.5,5,2.5c1.5,0.8,2.6,1.2,3.5,1.3C329.4,9.8,329.6,9.9,329.6,10z"/>
		<path class="st2" d="M344.6,3.7c0,0.2-0.1,0.4-0.3,0.7c-0.2,0.3-0.3,0.4-0.5,0.5c-1.1-0.2-2-0.3-2.8-0.3c-0.1,0-0.3,0-0.5,0
			c-0.2,0-0.4,0-0.5,0c-0.4,1.7-0.8,3.2-1.4,4.7c-1.6,4.1-2.9,6.2-3.8,6.2c-0.3,0-0.6-0.1-1-0.3c-0.5-0.2-0.7-0.4-0.7-0.6
			c0-0.1,0.3-0.5,1-1.2c1.1-1.1,2.1-2.5,2.9-4.1c0.9-1.7,1.5-3.2,1.8-4.7c-0.6,0-1.5,0.2-2.7,0.4c-0.9,0.3-1.4,0.4-1.3,0.4
			c-0.4,0-0.6-0.2-0.6-0.5c0-0.3,0.1-0.6,0.2-0.7c0.2-0.2,0.9-0.3,2.2-0.5c0.8,0,1.7-0.1,2.5-0.2c0.1-0.6,0.2-1.4,0.2-2.1
			c0-0.6,0.3-0.9,0.7-0.9c0.4,0,0.7,0.2,0.7,0.6c0,0.2-0.1,0.9-0.4,2.3c1.8-0.1,3-0.1,3.7-0.1C344.4,3.3,344.6,3.5,344.6,3.7z
			 M350.7,14.2c-0.1,0.3-0.3,0.6-0.7,1.1c-0.4,0.5-0.7,0.7-1,0.7c-0.1,0-0.7-0.3-1.9-1c-1.3-0.8-2-1.2-2.1-1.3
			c-0.3,1.6-1.4,2.5-3.5,2.5c-0.8,0-1.6-0.2-2.2-0.6c-0.7-0.5-1.1-1.1-1.1-1.8c0-1.5,1.2-2.3,3.5-2.3c0.6,0,1.2,0.1,2,0.4v-1.2
			c0-0.5,0-1-0.1-1.4c0-0.1,0-0.4-0.1-0.7c0-0.3-0.1-0.5-0.1-0.7c0-0.5,0.2-0.8,0.7-0.8c0.4,0,0.6,0.3,0.6,1c0,1,0.1,2.4,0.2,4.3
			c0.8,0.3,1.6,0.6,2.4,0.8c0.9,0.3,1.8,0.5,2.5,0.6c0.2,0,0.3,0.1,0.4,0.1C350.6,14,350.6,14.1,350.7,14.2z M343.7,13.2
			c-1.2-0.4-2.1-0.6-2.7-0.6c-1.2,0-1.7,0.4-1.7,1.2c0,0.8,0.6,1.2,1.8,1.2C342.6,15,343.5,14.4,343.7,13.2z M350.8,6.1
			c0,0.3-0.1,0.7-0.4,1.1c-0.3,0.5-0.6,0.7-0.8,0.7c-0.6,0-1.4-0.4-2.3-1.2c-0.9-0.8-1.4-1.6-1.4-2.2c0-0.2,0.1-0.3,0.2-0.3
			c0.6,0.3,1.2,0.6,1.8,1c0.5,0.3,1.2,0.4,2,0.5C350.5,5.8,350.8,5.9,350.8,6.1z"/>
		<path class="st2" d="M368.9,11.2c0,1.6-0.9,3-2.7,3.9c-1.5,0.8-3.2,1.2-5,1.2c-0.9,0-1.6-0.2-2-0.7c-0.5-0.5-0.7-0.9-0.7-1.2
			c0-0.2,0.1-0.3,0.4-0.3c0.3,0,0.7,0,1.2,0.1c0.6,0,1,0,1.3,0c1.5,0,2.8-0.2,3.8-0.6c1.5-0.6,2.2-1.6,2.2-2.9c0-0.5-0.3-1-0.8-1.5
			c-0.5-0.4-1.3-0.7-2.2-0.7c-1.2,0-2.4,0.2-3.7,0.7c-1.3,0.5-2.3,1.2-3,2.1c-0.4,0.5-0.7,0.7-0.9,0.7c-0.4,0-0.6-0.2-0.7-0.6
			c0-0.1,0-0.4,0-1c0-2,0.2-3.8,0.6-5.6c0.2-0.8,0.5-1.2,1-1.2c0.5,0,0.7,0.2,0.7,0.6c0,0-0.2,0.6-0.5,1.8c-0.3,1.1-0.5,2.2-0.5,3.4
			c2.1-1.3,4.4-2,6.8-2c1.2,0,2.2,0.3,3,0.8C368.4,9.2,368.9,10.1,368.9,11.2z M365.8,2.2c-0.1,0.3-0.3,0.7-0.7,1.2
			c-0.4,0.5-0.7,0.7-0.9,0.7c-0.3,0-1-0.5-2.2-1.4c-1.2-0.9-1.8-1.5-1.8-1.8c0-0.3,0.1-0.4,0.3-0.4c0.1,0,0.3,0.1,0.7,0.3
			c0.4,0.3,1,0.5,1.8,0.7c0.3,0.1,1,0.2,2.2,0.3C365.6,1.9,365.7,2,365.8,2.2z"/>
		<path class="st2" d="M60.2,32.9C60.6,33,61,33,61.2,33c1,0,2.2-0.4,3.6-1.1c0.2,0,0.3,0.1,0.3,0.3c0,0.3-0.5,0.8-1.4,1.6
			c-1,0.8-1.8,1.3-2.5,1.3c-0.3,0-0.6-0.2-0.8-0.5c-0.3-0.4-0.4-0.8-0.4-1.3C59.9,33,60,32.9,60.2,32.9z M69.4,30.7
			c0.6,0,0.9,0.3,0.9,0.8l-0.2,5.6l4.7,0.1c0.3,0,0.6,0,1.1-0.1c0.6,0,0.9,0.2,0.9,0.6c-0.2,2.3-0.3,4.7-0.4,7.2
			c0,0.6-0.3,0.8-0.9,0.8c-1.5-0.1-3.5-0.2-6-0.2c-2.6,0-4.8,0.1-6.7,0.3c-0.4,0-0.6-0.2-0.6-0.6c0-0.5,0.2-0.7,0.5-0.8
			c1.3-0.1,3.3-0.2,5.8-0.2c1.5,0,3.6,0,6.2,0.1c0.4,0,0.5-0.3,0.5-0.8c0-0.6,0-1.2,0-1.7c0,0,0,0,0,0c-5.2,0-9.2,0.1-12.1,0.2
			c-0.5,0-0.7-0.2-0.7-0.6c0-0.4,0.3-0.7,0.9-0.7h11.9c0,0,0,0,0,0c0-0.8,0-1.5,0-2.1c0-0.2-0.2-0.4-0.5-0.4c-1-0.1-2.7-0.1-5.3-0.1
			c-2,0-4.2,0.1-6.6,0.3c-0.4,0-0.6-0.2-0.6-0.6c0-0.5,0.2-0.8,0.6-0.8l5.8-0.1l-0.2-5.6C68.7,31,68.9,30.7,69.4,30.7z M74.1,31.8
			c0,0,0.1,0,0.2,0.1c1.1,0.6,2,1,2.6,1.2c0.5,0.2,1.1,0.3,1.8,0.3c0.2,0,0.3,0.1,0.3,0.3c0,0.3-0.2,0.6-0.5,0.9
			c-0.7,0.4-1.2,0.6-1.5,0.6c-0.2,0-0.4-0.1-0.6-0.2c-0.3-0.2-1.1-1-2.4-2.5c-0.1-0.1-0.1-0.2-0.1-0.3
			C73.8,31.9,73.9,31.8,74.1,31.8z"/>
		<path class="st2" d="M82.2,35.1h2.5c0-1.2,0-2.6-0.1-4c0-0.6,0.2-0.9,0.7-0.9s0.7,0.3,0.7,0.9c0,1.5-0.1,2.8-0.1,4h3
			c0.2,0,0.4,0.1,0.4,0.3c0,0.3-0.1,0.6-0.3,0.8c-0.2,0.2-0.5,0.3-0.8,0.3c-0.2,0-0.5-0.1-1.2-0.2c-0.4,0-0.7,0-1.1,0l0.1,9.6
			c0,1-0.3,1.5-0.8,1.5c-0.4,0-0.6-0.5-0.6-1.5c0-4,0.1-7.2,0.1-9.6c-1.1,0-1.9,0.1-2.4,0.2c-0.3,0.1-0.5,0.2-0.6,0.2
			c-0.5,0-0.7-0.3-0.8-0.7c0-0.2,0.2-0.4,0.4-0.6C81.6,35.1,81.9,35.1,82.2,35.1z M90.6,40.5c0.1-0.3,0.1-0.6,0.1-0.9
			c0-0.4,0.2-0.6,0.6-0.6c0.2,0,0.3,0.1,0.4,0.2c0.2,0.2,0.2,0.3,0.2,0.4l0,0.1c0,0.2-0.1,0.5-0.2,0.8h1.7c0.1,0,0.4-0.1,0.7-0.2
			c0.5,0,0.8,0.2,0.8,0.7c-0.3,0.9-0.4,1.9-0.5,2.8c-0.1,1.3-0.5,2.1-1,2.5c-0.4,0.4-1,0.6-1.7,0.6c-0.4,0-0.6-0.1-0.9-0.4
			c-0.2-0.3-0.2-0.5-0.2-0.7c0-0.3,0.1-0.4,0.4-0.5c0.8,0,1.3-0.2,1.6-0.4c0.3-0.2,0.5-0.9,0.7-1.9c0.1-0.7,0.1-1.1,0.1-1.2
			c0-0.2-0.1-0.4-0.2-0.4h-1.8c-0.3,1.1-0.7,2.2-1.2,3c-0.3,0.6-0.7,1.2-1.1,1.6c-0.5,0.5-0.9,0.7-1.1,0.7c-0.3,0-0.5-0.1-0.8-0.4
			C87.1,46.3,87,46,87,45.8c0-0.2,0.2-0.3,0.5-0.4c0.4-0.1,0.8-0.4,1.2-0.9c0.5-0.4,0.9-1.2,1.4-2.3c0.1-0.2,0.2-0.4,0.2-0.6
			c-0.3,0-0.7,0.1-1,0.1c-0.4,0.1-0.6,0.2-0.7,0.2c-0.4,0-0.6-0.2-0.6-0.5c0-0.5,0.2-0.8,0.6-0.8C88.9,40.5,89.6,40.5,90.6,40.5z
			 M94.2,32.3c0.1-0.5,0.3-1,0.3-1.5c0-0.4,0.2-0.6,0.6-0.6c0.1,0,0.3,0.1,0.4,0.2c0.2,0.2,0.2,0.3,0.2,0.4l0,0.1
			c-0.1,0.3-0.2,0.8-0.4,1.4h3.2c0.1,0,0.4-0.1,0.7-0.2c0.5,0,0.8,0.2,0.8,0.7c-0.3,0.9-0.5,1.9-0.6,2.8c-0.1,1.3-0.5,2.1-1.1,2.5
			c-0.5,0.4-1.1,0.6-1.9,0.6c-0.4,0-0.6-0.1-0.9-0.4c-0.2-0.3-0.2-0.5-0.2-0.7c0-0.3,0.1-0.4,0.4-0.5c0.9,0,1.6-0.2,1.8-0.4
			c0.3-0.2,0.6-0.9,0.8-1.9c0.1-0.6,0.2-1,0.2-1.2c0-0.3-0.1-0.4-0.2-0.4h-3.3c0,0,0,0,0,0c-0.4,1-0.8,1.9-1.4,2.8
			c-0.4,0.6-0.9,1.2-1.4,1.7c-0.7,0.5-1.2,0.8-1.4,0.8s-0.6-0.2-0.8-0.5c-0.3-0.3-0.4-0.5-0.4-0.7c0-0.2,0.2-0.3,0.5-0.4
			c0.6-0.1,1.1-0.5,1.7-1c0.6-0.4,1.3-1.3,1.9-2.4c0-0.1,0.1-0.2,0.1-0.3c-0.5,0-1,0.1-1.5,0.1c-0.5,0.1-0.8,0.2-1,0.2
			c-0.4,0-0.6-0.2-0.6-0.5c0-0.5,0.2-0.8,0.6-0.8C91.9,32.3,92.8,32.3,94.2,32.3z M98.1,40.5c0.1-0.3,0.1-0.6,0.1-0.9
			c0-0.4,0.2-0.6,0.6-0.6c0.1,0,0.3,0.1,0.4,0.2c0.1,0.2,0.2,0.3,0.2,0.4l0,0.1c0,0.2-0.1,0.5-0.2,0.8h1.8c0.1,0,0.4-0.1,0.7-0.2
			c0.5,0,0.7,0.2,0.7,0.7c-0.2,0.9-0.4,1.9-0.5,2.8c-0.1,1.3-0.4,2.1-0.9,2.5c-0.4,0.4-0.9,0.6-1.5,0.6c-0.4,0-0.6-0.1-0.9-0.4
			c-0.2-0.3-0.2-0.5-0.2-0.7c0-0.3,0.1-0.4,0.4-0.5c0.7,0,1.1-0.2,1.3-0.4c0.3-0.2,0.5-0.9,0.6-1.9c0.1-0.7,0.1-1.1,0.1-1.2
			c0-0.2-0.1-0.4-0.2-0.4H99c-0.3,1.1-0.6,2.2-1.1,3c-0.3,0.6-0.6,1.2-1,1.6c-0.5,0.5-0.8,0.7-1,0.7c-0.3,0-0.6-0.1-0.8-0.4
			c-0.3-0.3-0.4-0.5-0.4-0.7c0-0.2,0.2-0.3,0.5-0.4c0.4-0.1,0.8-0.4,1.2-0.9c0.4-0.4,0.9-1.2,1.3-2.3c0.1-0.2,0.1-0.4,0.2-0.6
			c-0.3,0-0.6,0.1-0.9,0.1c-0.4,0.1-0.6,0.2-0.7,0.2c-0.4,0-0.6-0.2-0.6-0.5c0-0.5,0.2-0.8,0.6-0.8C96.5,40.5,97.1,40.5,98.1,40.5z"
			/>
		<path class="st2" d="M114.3,30.3c0.3,0,0.5,0.2,0.5,0.5c0.3,0,0.7,0.2,1.2,0.6c3.5,2.2,5.7,3.5,6.6,3.8c0.6,0.1,1.2,0.3,2,0.3
			c0.3,0,0.5,0.1,0.5,0.4c0,0.4-0.3,0.7-0.8,1.1c-0.5,0.4-1.1,0.6-1.7,0.6c-0.4,0-0.8-0.2-1.1-0.5c-1.4-1.3-3-2.6-4.8-3.9
			c-0.8-0.5-1.5-0.9-2.1-1.2c-0.1,0-0.2-0.1-0.3-0.2c-1.2,1.3-2.6,2.4-4,3.3c-1.2,0.8-2.6,1.5-4.2,2c-0.3,0.1-0.6,0.1-0.7,0.1
			c-0.4,0-0.8-0.2-1.2-0.7c-0.4-0.3-0.6-0.6-0.6-0.9c0-0.2,0.3-0.4,0.7-0.4c1.2-0.1,2-0.2,2.5-0.4c1.4-0.3,2.7-0.8,3.9-1.6
			c1.3-0.8,2.3-1.7,3.2-2.7C113.9,30.4,114.1,30.3,114.3,30.3z M107.4,39.7c0.2,0,0.3,0,0.5,0.1c2.2-0.2,4.2-0.3,6-0.3
			c1.1,0,2.8,0,5.1,0.1c0.4,0,0.7,0,1,0c0.2,0,0.5,0,1-0.1c0.4-0.1,0.6-0.2,0.7-0.2c0.2,0,0.3,0.1,0.3,0.2c0,0.4-0.2,0.8-0.6,1.2
			c-0.4,0.5-0.7,0.7-1.1,0.7c-0.3,0-0.7-0.1-1.3-0.3c-1.4-0.4-3.1-0.6-5.1-0.6c-0.1,0-0.2,0-0.3,0c0,0.1,0.1,0.3,0.1,0.5
			c0,0.1,0,0.2-0.1,0.2c-0.5,0.8-1,1.5-1.3,2c-0.3,0.4-0.6,0.8-1,1.2c0,0.1,0.1,0.2,0.4,0.2h5.6c0.3,0,0.5-0.1,0.5-0.3
			c0,0,0-0.1,0-0.1c-0.3-0.4-0.6-1-1-1.5c0-0.1-0.1-0.1-0.1-0.1c0-0.4,0.2-0.7,0.7-0.7c0.1,0,0.2,0,0.3,0.1c0.6,0.7,1.2,1.6,1.9,2.7
			c0.1,0.1,0.1,0.3,0.1,0.4c0,0.4-0.2,0.6-0.6,0.6h-7.3c-0.5,0-1.1,0-1.8,0.1c-0.6,0-0.9-0.2-0.9-0.6c0-0.2,0.1-0.4,0.4-0.6
			c0.3-0.2,0.5-0.5,0.7-0.7c0.3-0.4,0.6-0.8,1-1.2c0.4-0.5,0.8-1.2,1.2-2.1c0,0,0,0,0-0.1c-1.8,0-3.1,0.2-3.9,0.4
			c-0.5,0.1-0.9,0.2-1.2,0.2c-0.4,0-0.6-0.2-0.6-0.6c0-0.2,0.1-0.5,0.3-0.7C107,39.8,107.2,39.7,107.4,39.7z M111.3,36.2h6.7
			c0.2,0,0.3,0.1,0.3,0.3c0,0.2-0.1,0.5-0.3,0.6c-0.2,0.2-0.5,0.3-0.8,0.3c-0.2,0-0.5,0-1.1-0.1c-0.6,0-1.3,0-2,0
			c-1.2,0-2.1,0.1-2.7,0.2c-0.3,0.1-0.5,0.2-0.6,0.2c-0.5,0-0.7-0.3-0.7-0.7c0-0.2,0.1-0.4,0.4-0.6C110.7,36.3,111,36.2,111.3,36.2z
			"/>
		<path class="st2" d="M132.6,41.5c-0.2,0.8-0.5,1.6-0.9,2.5c-0.6,1.3-1.1,1.9-1.5,1.9c-0.5,0-0.9-0.6-1.3-1.9
			c-0.3-1.1-0.5-2.7-0.5-4.8c0-0.8,0.1-2,0.4-3.6c0.3-1.7,0.6-2.8,0.9-3.4c0.2-0.4,0.5-0.6,0.9-0.6c0.5,0,0.8,0.2,0.8,0.7
			c0,0.1-0.1,0.5-0.4,1c-0.4,0.8-0.6,1.7-0.9,2.8c-0.3,1.1-0.4,2.1-0.4,2.8c0,3.1,0.2,4.7,0.7,4.7c0.2,0,0.7-0.8,1.5-2.3
			c0.1-0.2,0.2-0.3,0.3-0.3C132.5,41.2,132.6,41.3,132.6,41.5z M144.7,42.3c0,0.1-0.2,0.5-0.5,1.2c-0.3,0.6-0.6,0.9-1,1.1
			c-0.5,0.2-1.6,0.3-3.4,0.3c-1.4,0-2.6-0.2-3.6-0.6c-1.4-0.6-2.1-1.5-2.1-2.7c0-1.3,0.3-2,0.9-2c0.1,0,0.2,0.1,0.2,0.3
			c-0.2,0.6-0.2,1-0.2,1.2c0,1.4,1.1,2.1,3.3,2.1c0.9,0,2-0.1,3.2-0.3c0.7-0.1,1.3-0.3,1.9-0.5c0.5-0.2,0.8-0.3,1-0.3
			C144.5,42,144.6,42.1,144.7,42.3z M142.6,33.6c0,0.2-0.6,0.8-1.8,1.6c-1.2,0.8-1.9,1.2-2.1,1.2c-0.3,0-0.4-0.1-0.4-0.3
			c0-0.1,0.3-0.5,0.8-1c0.5-0.4,0.8-0.8,1.1-0.9c-0.1,0-0.2,0-0.3,0c-1,0-2.1,0.1-3.3,0.3c-1.3,0.2-1.9,0.4-1.8,0.4
			c-0.3,0-0.4-0.2-0.4-0.5c0-0.5,0.2-0.8,0.6-1c0.2,0,0.6-0.1,1.3-0.2c1.6-0.2,3.5-0.2,5.6-0.2C142.3,33,142.6,33.2,142.6,33.6z"/>
		<path class="st2" d="M165,41.5c0,1.2-0.6,2.3-1.8,3.2c-1.1,0.8-2.3,1.2-3.6,1.2c-0.4,0-0.8-0.2-1.3-0.6c-0.5-0.4-0.7-0.8-0.7-1.2
			c0-0.2,0.1-0.3,0.3-0.3c0.1,0,0.3,0,0.5,0c0.2,0,0.4,0,0.5,0c1.8,0,3-0.3,3.7-1c0.6-0.5,0.9-1.1,0.9-1.8c0-0.6-0.3-1.2-1-1.6
			c-0.6-0.4-1.4-0.6-2.6-0.6c-1.5,0-3.1,0.3-4.8,0.9l-0.1,4.1c0,1.4-0.5,2-1.3,2c-0.8,0-1.7-0.3-2.7-0.8c-1.1-0.6-1.7-1.3-1.7-2
			c0-0.8,0.5-1.6,1.6-2.4c0.8-0.6,1.7-1.1,2.7-1.5c0-0.7,0-1.9,0-3.6c-0.6,0-1.6,0.1-2.9,0.2c-0.7,0.2-1,0.3-0.9,0.3
			c-0.4,0-0.6-0.2-0.6-0.6c0-0.3,0.1-0.5,0.3-0.7c0.1-0.2,0.8-0.3,1.9-0.4c0.7,0,1.4,0,2.2,0c0-0.3,0-0.7,0-1.3c0-0.6,0-1,0-1.3
			c0-0.5,0.2-0.8,0.7-0.8c0.5,0,0.8,0.3,0.8,0.9l0,2.4c0.5,0,1.2,0,2.1,0c0.9,0,1.6,0,2.1,0c0.4,0,0.6,0.1,0.6,0.3
			c0,0.3-0.1,0.5-0.3,0.8c-0.2,0.3-0.4,0.4-0.6,0.5c-0.7-0.2-1.6-0.3-2.7-0.3c-0.1,0-0.3,0-0.6,0c-0.3,0-0.4,0-0.6,0l-0.1,3.1
			c1.6-0.5,3.2-0.8,4.7-0.8c0.9,0,1.8,0.1,2.6,0.4c1,0.3,1.7,0.8,2.1,1.4C164.8,40.2,165,40.8,165,41.5z M153.7,40.3
			c-1.9,1-2.8,1.8-2.8,2.5c0,0.5,0.3,0.9,0.8,1.2c0.5,0.2,1,0.4,1.5,0.4c0.3,0,0.5-0.3,0.5-0.8C153.7,42.8,153.7,41.7,153.7,40.3z
			 M166.2,35.2c0,0.2-0.3,0.6-0.7,1c-0.4,0.4-0.7,0.7-1,0.7c-0.3,0-0.9-0.5-1.8-1.5c-0.8-1-1.2-1.7-1.2-2.1c0-0.2,0.1-0.3,0.2-0.3
			c0.1,0,0.6,0.3,1.5,0.8c0.9,0.6,1.7,0.9,2.3,1C165.9,34.9,166.1,35,166.2,35.2z"/>
		<path class="st2" d="M175.9,30.2c0.4,0,0.6,0.2,0.6,0.5c0,0.2-0.1,0.4-0.2,0.6c-0.7,0.8-1.4,1.5-2.1,2.2c0.1,0.2,0.1,0.4,0.1,0.7
			c-0.1,1.4-0.1,2.6-0.1,3.7l0.1,7.5c0,1.1-0.3,1.7-0.9,1.7c-0.5,0-0.7-0.6-0.7-1.7c0.1-3.2,0.2-5.7,0.2-7.5c0-1,0-2.1-0.1-3.3
			c-0.2,0.1-0.4,0.3-0.6,0.5c-0.6,0.4-1.1,0.6-1.6,0.6c-0.4,0-0.7-0.1-1.1-0.4c-0.4-0.3-0.6-0.6-0.6-0.9c0-0.2,0.2-0.4,0.5-0.4
			c1.2-0.3,2.2-0.7,3.2-1.3c1-0.6,2-1.4,2.9-2.4C175.7,30.3,175.8,30.2,175.9,30.2z M187.7,31.4c0.3,0,0.5,0.2,0.5,0.5
			c0,0.3-0.1,0.5-0.4,0.6c-1.7,0.4-3.2,0.7-4.5,1l0,4.5c0.8,0,1.8,0.1,2.8,0.2c1.1,0.1,2,0.1,2.8,0.1c0.5,0,1.1-0.1,1.8-0.2
			c0.1,0,0.2,0.2,0.2,0.5c0,0.5-0.2,1-0.6,1.6c-0.3,0.4-0.5,0.6-0.7,0.6c-0.3,0-0.8-0.1-1.2-0.4c-0.8-0.4-1.7-0.8-2.6-0.9
			c-0.8-0.1-1.6-0.2-2.4-0.2l0,5.1h4.9c0.2,0,0.3,0.1,0.4,0.3c0,0.3-0.1,0.6-0.3,0.8c-0.2,0.2-0.5,0.3-0.8,0.3c-0.2,0-0.8,0-1.8-0.1
			c-1,0-2,0-3.2,0c-1.8,0-3.2,0.1-4,0.2c-0.5,0.1-0.8,0.2-0.9,0.2c-0.5,0-0.8-0.3-0.8-0.7c0-0.2,0.2-0.4,0.4-0.6
			c0.2-0.1,0.5-0.2,0.9-0.2h4l0-5.2c-1,0-2,0.1-3,0.2c-0.7,0.1-1.7,0.4-3,1c-0.6,0-0.8-0.2-0.8-0.6c0-0.3,0.1-0.5,0.3-0.7
			c0.3-0.3,0.7-0.5,1.2-0.5c2.3-0.3,4.1-0.4,5.4-0.5l0-4.2c-0.4,0.1-0.8,0.1-1.2,0.2c-1.2,0.2-2.1,0.2-2.5,0.2
			c-0.4,0-0.8-0.2-1.2-0.5c-0.3-0.2-0.4-0.5-0.4-0.8c0-0.2,0.2-0.3,0.5-0.4c2.5,0,4.5-0.2,6.1-0.4c1.6-0.2,3-0.4,4.1-0.7
			C187.4,31.4,187.6,31.4,187.7,31.4z"/>
		<path class="st2" d="M213,36.3c0,0.3-0.2,0.7-0.7,1.2c-0.4,0.5-0.8,0.8-1.1,0.8c-0.2,0-0.9-0.2-1.9-0.6c-0.6-0.2-1.3-0.4-2.1-0.6
			c-0.2,0.8-0.3,1.6-0.5,2.5c-0.3,1.1-0.8,1.7-1.5,1.7c-0.4,0-1-0.2-1.7-0.7c-0.8-0.5-1.1-0.9-1.1-1.2c0-0.2,0.1-0.3,0.4-0.3
			c0.4,0.1,0.7,0.3,1.1,0.5c0.5,0.2,0.8,0.4,1,0.4c0.4,0,0.8-1,1-2.9c-0.1,0-0.2,0-0.3,0c-0.2,0-0.3,0-0.4,0c-1.7,0-3.4,0.1-5,0.2
			c0,0.9-0.1,1.7-0.1,2.4c0,1.8,0.1,2.9,0.4,3.4c0.4,0.8,1.4,1.2,3,1.2c1.6,0,3.6-0.3,5.8-1c0.2-0.1,0.4-0.1,0.6-0.1
			c0.1,0,0.2,0.1,0.2,0.4s-0.2,0.7-0.5,1.2c-0.3,0.5-0.9,0.9-1.8,1.1c-0.4,0.1-1.2,0.1-2.2,0.1c-1.6,0-3-0.2-4.1-0.6
			c-1.1-0.4-1.9-1.2-2.3-2.3c-0.3-0.8-0.4-1.9-0.4-3.4c0-0.3,0-0.7,0-1.2c0-0.5,0-0.9,0-1.2c-1.5,0.2-2.9,0.6-4.1,0.9l-0.9,0.3
			c-0.4,0-0.6-0.2-0.6-0.5c0-0.4,0.1-0.7,0.3-1c0.2-0.3,2-0.5,5.2-0.8v-3.5c0-0.7,0.3-1.1,1-1.1c0.4,0,0.6,0.3,0.6,0.8
			c0,0.4,0,1-0.1,1.8c-0.1,0.8-0.1,1.4-0.1,1.8c2.3-0.1,4.2-0.2,5.8-0.2c0-0.4,0-0.9,0-1.6c0-0.8,0-1.4,0-1.6c0-0.6,0-0.9,0-1
			c0.1-0.3,0.4-0.5,0.8-0.5c0.3,0,0.6,0.2,0.6,0.6c0,0.1,0,0.4,0,0.9c0,0.6-0.1,1.7-0.3,3.4c1.4,0.2,2.8,0.2,4.1,0.2
			c0.1,0,0.4,0,0.6-0.1c0.3-0.1,0.5-0.1,0.6-0.1C212.9,36,213,36.1,213,36.3z"/>
		<path class="st2" d="M228.6,44.8c0,0.3-0.4,0.7-1.1,1.2c-0.7,0.5-1.2,0.7-1.5,0.7c-0.2,0-0.5-0.3-1-1c-0.8-1.1-1.8-2.2-3-3.2
			c-1.2-1-2.6-2-4.2-3c-0.5-0.3-0.8-0.5-0.8-0.8c0-0.2,0.4-0.7,1.3-1.3c1-0.7,2-1.7,2.9-2.8c0.5-0.6,1.3-1.7,2.4-3.3
			c0.3-0.4,0.6-0.6,1-0.6c0.6,0,0.9,0.3,0.9,0.9c0,0.4-0.8,1.5-2.5,3.1c-1.3,1.3-2.4,2.2-3.3,2.9c-0.3,0.2-0.7,0.6-1.3,1
			c2.8,1.6,4.9,3,6.3,4.1c0.7,0.5,1.2,0.9,1.5,1.1c0.6,0.4,1.2,0.6,1.7,0.8C228.3,44.6,228.5,44.7,228.6,44.8z"/>
		<path class="st2" d="M246,33.9c0,0.2-0.1,0.4-0.3,0.7s-0.3,0.5-0.5,0.5c-1.1-0.2-2-0.3-2.8-0.3c-0.1,0-0.3,0-0.5,0
			c-0.2,0-0.4,0-0.5,0c-0.4,1.7-0.8,3.3-1.4,4.7c-1.6,4.1-2.9,6.1-3.8,6.1c-0.3,0-0.6-0.1-1-0.2c-0.5-0.2-0.7-0.4-0.7-0.6
			c0-0.1,0.3-0.5,1-1.2c1.1-1.1,2.1-2.5,3-4.1c0.9-1.6,1.5-3.2,1.8-4.6c-1.5,0.1-2.9,0.3-4.1,0.7c-0.4-0.1-0.6-0.2-0.6-0.6
			s0.1-0.5,0.2-0.7c0.1-0.2,0.9-0.3,2.2-0.5c0.8-0.1,1.6-0.2,2.4-0.2c0.1-0.6,0.2-1.4,0.2-2.1c0-0.6,0.3-0.9,0.7-0.9
			c0.4,0,0.7,0.2,0.7,0.6c0,0.2-0.1,1-0.4,2.3c2.1-0.1,3.4-0.2,3.7-0.2S246,33.6,246,33.9z M252.4,43.5c0,0.4-0.1,0.8-0.4,1.4
			c-0.3,0.5-0.8,0.9-1.5,1.1c-0.4,0.1-1,0.1-1.9,0.1c-4.1,0-6.1-1-6.1-3c0-0.3,0.1-0.6,0.2-0.9c0.1-0.4,0.3-0.6,0.6-0.6
			c0.3,0,0.4,0.1,0.4,0.4c0,0.1,0,0.3-0.1,0.5c0,0.2-0.1,0.4-0.1,0.5c0,0.9,0.8,1.4,2.3,1.4c2.4,0,4.4-0.4,5.8-1.1
			c0.4-0.2,0.6-0.3,0.6-0.3C252.3,43.1,252.4,43.2,252.4,43.5z M250.2,37.2c-0.1,0.2-0.6,0.7-1.5,1.4c-0.9,0.7-1.6,1.1-1.9,1.2
			c-0.1,0-0.2-0.1-0.2-0.3c0-0.2,0.2-0.5,0.6-0.9c0.3-0.2,0.6-0.5,0.8-0.8c-0.1,0-0.3,0-0.6,0c-1.1,0-2,0.1-2.7,0.2
			c-0.9,0.2-1.3,0.3-1.3,0.3c-0.3,0-0.5-0.1-0.5-0.4c0-0.3,0.1-0.5,0.3-0.7c0.4-0.4,1.9-0.6,4.6-0.6h0.9
			C249.6,36.6,250.1,36.8,250.2,37.2z M251.2,33c0,0.1-0.1,0.4-0.4,0.7c-0.3,0.3-0.5,0.5-0.6,0.5c-0.3,0-0.8-0.3-1.4-1
			c-0.7-0.7-1-1.1-1-1.3c0-0.2,0.1-0.3,0.2-0.3c0.6,0.2,1.6,0.6,3,1.1C251.1,32.8,251.2,32.9,251.2,33z M254.2,31.7
			c0,0.2-0.2,0.4-0.5,0.7c-0.3,0.3-0.5,0.5-0.6,0.5c-0.3,0-0.7-0.3-1.4-1c-0.6-0.7-0.9-1.1-0.9-1.4c0-0.2,0.1-0.3,0.2-0.3
			c0,0,0.5,0.2,1.3,0.6c0.4,0.2,0.8,0.3,1.5,0.5C254,31.4,254.1,31.5,254.2,31.7z"/>
		<path class="st2" d="M272.6,34c0,0.3-0.2,0.8-0.6,1.3c-0.4,0.6-0.8,0.9-1,0.9c-0.1,0-0.5-0.1-1.1-0.4c-0.8-0.3-2.4-0.6-4.6-0.7
			c0.7,1.9,1.6,3.5,2.8,4.7c0.2,0.2,0.4,0.4,0.6,0.7c-0.1,0.4-0.3,0.7-0.6,0.9c-0.1,0-0.6-0.2-1.2-0.5c-0.7-0.3-1.2-0.5-1.4-0.6
			c-0.7-0.2-1.4-0.3-2.3-0.3c-2.7,0-4,0.7-4,2.2c0,0.8,0.4,1.4,1.3,1.8c0.6,0.3,1.4,0.4,2.3,0.4c2,0,3.6-0.3,4.8-0.8
			c0.6-0.3,1-0.4,1.1-0.4c0.2,0,0.3,0.1,0.3,0.3c0,0.3-0.1,0.7-0.4,1.3c-0.4,0.9-1.8,1.3-4.1,1.3c-1.6,0-3-0.2-4.2-0.6
			c-1.6-0.6-2.4-1.6-2.4-3c0-1.3,0.6-2.2,1.9-2.8c1-0.5,2.2-0.7,3.6-0.7c1,0,2,0.2,3.1,0.5c-1-1.3-1.8-2.8-2.4-4.4
			c-2.3,0.1-4.3,0.4-6,0.9c-0.6,0.2-1,0.2-1.2,0.2c-0.4,0-0.6-0.3-0.6-0.9c0-0.6,0.5-0.9,1.5-1c1.3-0.1,3.2-0.2,5.8-0.5
			c-0.5-1.2-0.7-2-0.7-2.4c0-0.5,0.3-0.8,0.9-0.8c0.3,0,0.6,0.4,0.8,1.3c0.1,0.6,0.3,1.3,0.4,1.9c1.9,0,3.9,0,6,0c0.1,0,0.4,0,0.6,0
			c0.3,0,0.6,0,0.7,0C272.5,33.7,272.6,33.8,272.6,34z"/>
		<path class="st2" d="M285.3,41c0,0.5-0.5,1.4-1.6,2.7c-1.1,1.3-2,2-2.6,2c-0.6,0-1.2-0.4-1.9-1.1c-1.2-1.4-1.8-3.9-1.8-7.6
			c0-1.9,0.1-3,0.3-3.5c0.2-0.3,0.4-0.5,0.8-0.5c0.5,0,0.8,0.2,0.8,0.7c0,0-0.1,0.5-0.2,1.3c-0.2,1.4-0.3,2.7-0.3,3.9
			c0,1.5,0.3,2.7,0.8,3.6c0.5,0.8,1,1.2,1.5,1.2c0.5,0,1.2-0.5,2.3-1.5c1-1,1.6-1.5,1.7-1.5C285.2,40.6,285.3,40.7,285.3,41z
			 M294.4,40.3c0,0.3-0.3,0.7-0.8,1.2c-0.5,0.4-0.9,0.6-1.2,0.6c-0.5,0-1.3-0.8-2.3-2.4c-1-1.6-1.6-2.8-1.6-3.3
			c0-0.2,0.1-0.3,0.3-0.3c0.2,0,0.5,0.3,1,1c0.5,0.7,1.2,1.3,1.9,1.8c0.7,0.6,1.4,1,1.9,1.1c0.2,0,0.3,0.1,0.4,0.1
			C294.3,40.1,294.4,40.2,294.4,40.3z"/>
		<path class="st2" d="M304.8,45.8c0,0.4-0.2,0.8-0.5,1.1c-0.3,0.3-0.7,0.4-1.2,0.4c-0.4,0-0.8-0.1-1.1-0.4
			c-0.3-0.3-0.4-0.6-0.4-1.1c0-0.9,0.5-1.4,1.5-1.4c0.4,0,0.8,0.1,1.2,0.4C304.6,45,304.8,45.3,304.8,45.8z M304.3,32.8
			c-0.2,0.5-0.3,2.1-0.3,4.9c0,2.4,0,3.8,0.1,4c0,0.7-0.4,1-1,1c-0.7,0-1-0.3-1-1c0-0.5,0-1.1,0.1-2c0.1-0.9,0.1-1.6,0.1-2
			c0-0.5-0.1-1.3-0.2-2.4c-0.1-1.1-0.1-1.9-0.1-2.5c0-0.7,0.4-1.1,1.1-1.1C303.9,31.8,304.3,32.1,304.3,32.8z"/>
	</g>
</g>
</svg>
