<?xml version="1.0" encoding="utf-8"?>
<!-- Generator: Adobe Illustrator 24.0.3, SVG Export Plug-In . SVG Version: 6.00 Build 0)  -->
<svg version="1.1" id="レイヤー_1" xmlns="http://www.w3.org/2000/svg" xmlns:xlink="http://www.w3.org/1999/xlink" x="0px"
	 y="0px" viewBox="0 0 102.1 102.1" style="enable-background:new 0 0 102.1 102.1;" xml:space="preserve">
<style type="text/css">
	.st0{fill:#4A9143;}
	.st1{fill:#F5EFEA;}
	.st2{fill:#513813;}
</style>
<circle class="st0" cx="51" cy="51" r="51"/>
<circle class="st1" cx="51" cy="51" r="44.7"/>
<g>
	<g>
		<path class="st2" d="M17.2,49c1,0,2,0.1,2.9,0.2C20.5,49,20.7,49,21,49c0.6,0,0.9,0.3,0.9,0.8c0,0.2-0.1,0.4-0.4,0.6
			c-0.6,0.8-1.1,1.6-1.5,2.4c-0.3,0.8-0.6,1.7-0.8,2.7c0.9,0.1,2.5,0.3,4.9,0.6c5.8,0.7,9.8,1.1,11.9,1.1c0.7,0,1.2,0,1.6-0.1
			c0.3-0.1,0.5-0.1,0.6-0.1c0.1,0,0.2,0.1,0.2,0.4c0,0.5-0.2,1-0.7,1.6C37.3,59.8,37,60,36.6,60c-0.5,0-0.9-0.1-1.4-0.2
			c-6-1.4-10.1-2.2-12.4-2.6c-1.9-0.3-3.1-0.5-3.7-0.5c-0.7,0-1.4,0.6-2.2,1.7c-0.2,0.3-0.5,0.4-0.8,0.4c-0.5,0-0.7-0.2-0.7-0.6
			c0-0.2,0.6-0.9,1.7-2.1c0.2-0.2,0.3-0.3,0.5-0.4c0.5-2,1.1-3.8,1.9-5.3c0-0.2,0-0.2-0.1-0.3c-0.1,0-0.1-0.1-0.1-0.1
			c-0.8,0-1.5,0-2.2,0.1c-0.3,0.1-0.6,0.1-0.9,0.2c-0.4,0-0.6-0.2-0.6-0.6C15.7,49.3,16.2,49,17.2,49z M17.4,42.4l3.2,1.7
			c0.3,0.1,0.5,0.3,0.5,0.6c0,0.2-0.2,0.3-0.5,0.3l-3.4-0.7c-0.6-0.1-0.8-0.5-0.8-1.2C16.4,42.6,16.7,42.4,17.4,42.4z M26.1,42
			c0.6,0,0.9,0.3,0.9,0.9c-0.1,0.7-0.2,1.3-0.3,1.8h2.5c0.2,0,0.3,0.1,0.3,0.2c0,0.3-0.1,0.6-0.3,0.8c-0.2,0.2-0.5,0.3-0.8,0.3
			c-0.1,0-0.5,0-1-0.1c-0.5-0.1-1.1-0.1-1.7-0.1c0,0.6-0.1,1.2-0.1,1.7h2.1c0.1,0,0.4-0.1,0.8-0.2c0.5,0,0.8,0.3,0.8,0.8
			c-0.3,1.2-0.4,2.4-0.5,3.6c-0.1,1.6-0.5,2.7-1,3.2c-0.5,0.5-1.1,0.7-1.8,0.7c-0.4,0-0.7-0.1-0.9-0.4c-0.2-0.3-0.3-0.5-0.3-0.8
			c0-0.3,0.1-0.4,0.4-0.5c0.9-0.1,1.4-0.2,1.6-0.5c0.3-0.3,0.6-1.2,0.8-2.8c0.1-0.9,0.2-1.5,0.2-1.7c0-0.3-0.1-0.4-0.2-0.4h-0.2
			c-0.5,0-1,0.1-1.5,0.2c-0.2,0.1-0.4,0.1-0.5,0.2c0,0.1,0,0.1,0,0.2c-0.3,1.4-0.7,2.6-1.1,3.5c-0.5,0.9-0.9,1.6-1.4,2
			c-0.3,0.3-0.6,0.5-0.9,0.5c-0.3,0-0.5-0.1-0.7-0.4c-0.1-0.2-0.2-0.3-0.2-0.5c0-0.2,0-0.3,0.1-0.4c0.6-0.4,1.2-1,1.7-1.9
			c0.4-0.7,0.8-1.6,1.1-2.9c0.3-0.8,0.4-1.9,0.5-3.1c-0.6,0-1,0.1-1.3,0.2c-0.3,0.1-0.5,0.1-0.6,0.1c-0.4,0-0.7-0.3-0.7-0.7
			c0-0.2,0.1-0.4,0.4-0.5c0.2-0.1,0.4-0.2,0.8-0.2h2.3c-0.1-0.6-0.1-1.2-0.3-1.7C25.2,42.3,25.5,42,26.1,42z M31.4,46.7
			c2.3,0,3.8,0,4.5,0.1h0.7c0.4,0,0.6,0.2,0.6,0.6c0,0.1-0.1,0.3-0.4,0.4c-0.7,0.4-1.5,1-2.5,1.7c-0.1,0-0.1,0.1-0.2,0.1
			c0.2,0.2,0.4,0.5,0.6,0.8c0.1,0.2,0.2,0.4,0.2,0.5h3c0.2,0,0.3,0.1,0.3,0.3c0,0.3-0.1,0.5-0.3,0.7c-0.2,0.2-0.5,0.3-0.8,0.3
			c-0.2,0-0.6-0.1-1.2-0.2c-0.3,0-0.5,0-0.8,0c0,0.2,0.1,0.5,0.1,0.8c0,0.9-0.1,1.6-0.4,2c-0.3,0.5-0.7,0.8-1.3,1.1
			c-0.5,0.2-1,0.3-1.4,0.3c-0.5,0-0.8-0.1-1.1-0.4c-0.2-0.3-0.4-0.6-0.4-1c0-0.2,0.2-0.3,0.5-0.3c0.9,0,1.5-0.1,1.8-0.2
			c0.3-0.1,0.5-0.3,0.6-0.5c0.1-0.2,0.2-0.5,0.2-0.9c0-0.3,0-0.6,0-0.8c-1.3,0-2.3,0.1-2.9,0.2c-0.3,0.1-0.6,0.2-0.7,0.2
			c-0.4,0-0.7-0.3-0.7-0.7c0-0.2,0.1-0.4,0.4-0.6c0.2-0.1,0.5-0.2,0.8-0.2h2.8c0-0.1,0-0.2-0.1-0.2c-0.2-0.4-0.5-0.8-1.1-1.2
			c-0.1-0.1-0.2-0.1-0.2-0.2c0-0.4,0.2-0.6,0.5-0.6c0.1,0,0.3,0.1,0.6,0.3c0.1,0,0.1,0,0.1,0.1c0,0,0,0,0.1,0l1.4-1.1
			c0-0.1-0.2-0.2-0.5-0.2c-1.2,0-2.3,0.1-3.4,0.2c-0.5,0-0.7-0.1-0.7-0.4c0-0.2,0.1-0.4,0.3-0.6C30.9,46.7,31.1,46.7,31.4,46.7z
			 M31.5,42c0.6,0,0.8,0.3,0.8,0.9c0,0.3-0.1,0.8-0.4,1.3H38c0.2,0,0.3,0.1,0.3,0.2c0,0.3-0.1,0.6-0.3,0.8c-0.2,0.2-0.5,0.3-0.8,0.3
			c-0.1,0-0.5-0.1-1-0.2c-0.5,0-1.1-0.1-1.7-0.1c-1.1,0-1.9,0.1-2.4,0.2c-0.3,0.1-0.5,0.2-0.6,0.2c-0.1,0-0.2,0-0.3-0.1
			c-0.1,0.1-0.2,0.3-0.3,0.4c-0.2,0.2-0.5,0.3-0.7,0.3c-0.3,0-0.4-0.1-0.4-0.4c0-0.1,0-0.1,0.1-0.2c0.6-1,0.9-2,0.9-3
			C30.9,42.2,31.1,42,31.5,42z"/>
		<path class="st2" d="M46.3,53.6c0,0.5-0.3,1.4-0.9,2.8c-0.6,1.4-1.1,2.1-1.5,2.1c-0.7,0-1.3-1-1.7-2.9c-0.3-1.3-0.4-2.6-0.4-3.8
			c0-1.4,0.2-3,0.5-5c0.5-2.6,1.1-3.9,1.9-3.9c0.2,0,0.4,0.1,0.6,0.2c0.1,0.2,0.2,0.4,0.3,0.7c-0.2,0.5-0.5,1.1-0.8,2.1
			c-0.7,2-1.1,3.9-1.1,5.9c0,2.8,0.3,4.2,0.8,4.2c0.2,0,0.5-0.5,1-1.4c0.5-0.9,0.9-1.4,1.1-1.4C46.2,53.1,46.3,53.2,46.3,53.6z
			 M60.6,56.6c-0.1,0.3-0.3,0.8-0.8,1.3c-0.5,0.6-0.8,0.9-1.1,0.9c-0.1,0-0.8-0.4-2-1.2c-1.4-0.9-2.2-1.4-2.4-1.5
			c-0.4,1.7-1.6,2.5-3.5,2.5c-0.8,0-1.5-0.2-2.1-0.6c-0.8-0.4-1.2-1-1.2-1.7c0-1.6,1.2-2.4,3.5-2.4c0.5,0,1.2,0.1,2,0.3
			c0-0.5,0-1.2,0-2.3c0-1,0-1.8,0-2.2c-2.2,0-3.8,0.2-4.8,0.5c-0.4-0.1-0.6-0.2-0.6-0.5c0-0.3,0.1-0.6,0.3-0.8
			c0.3-0.2,1.1-0.4,2.4-0.4c-0.9,0,0,0,2.7,0V45c-0.7,0-1.7,0.1-3,0.2c-1.1,0.1-1.6,0.2-1.5,0.2c-0.4,0-0.5-0.2-0.5-0.5
			c0-0.4,0.1-0.6,0.4-0.8c0.3-0.2,1.2-0.3,2.8-0.3h3.3c2.8,0,4.3,0,4.6,0.1c0.5,0.1,0.7,0.2,0.7,0.4c0,0.8-0.4,1.2-1.1,1.2
			c-0.2,0-0.7-0.1-1.7-0.3c-0.6-0.1-1.4-0.1-2.4-0.2v3.4c0.7,0.1,2.2,0.1,4.5,0.1c0.5,0,0.8,0.1,0.9,0.2c0,0.2-0.2,0.5-0.5,0.9
			c-0.3,0.4-0.5,0.6-0.6,0.6l-2.4-0.5c-0.3,0-0.9-0.1-1.9-0.2c0,0.6,0,1.4,0,2.4c0,1.2,0,2,0,2.4c0.9,0.4,1.8,0.7,2.7,1.1
			c1.3,0.5,2.1,0.8,2.6,0.8C60.3,56.4,60.6,56.4,60.6,56.6z M52.9,55.4c-0.9-0.3-1.6-0.4-2.2-0.4c-1.4,0-2.1,0.4-2.1,1.2
			c0,0.3,0.2,0.6,0.7,0.8c0.4,0.2,0.8,0.3,1.1,0.3C51.8,57.2,52.7,56.6,52.9,55.4z M63.1,48.5c0,0.2-0.2,0.4-0.5,0.7
			c-0.3,0.2-0.6,0.4-0.8,0.4c-0.3,0-0.7-0.4-1.2-1.3c-0.5-0.9-0.8-1.5-0.8-1.8c0-0.2,0.1-0.3,0.2-0.3c0.2,0,0.3,0.1,0.5,0.3
			c0.7,0.9,1.4,1.5,2.2,1.7C62.9,48.2,63,48.3,63.1,48.5z M65.1,46.1c-0.1,0.2-0.2,0.4-0.5,0.7c-0.3,0.3-0.5,0.5-0.7,0.5
			c-0.4-0.1-0.9-0.5-1.5-1.2c-0.6-0.7-0.9-1.3-0.9-1.6c0-0.1,0.1-0.2,0.2-0.2c0.1,0,0.4,0.2,0.9,0.6c0.6,0.4,0.9,0.6,1,0.6
			C64.1,45.7,64.6,45.9,65.1,46.1z"/>
		<path class="st2" d="M80.4,51.2c0,1.6-0.6,3.1-1.7,4.5c-1,1.2-2.3,2.2-3.9,2.9c-1.7,0.8-3,1.2-3.8,1.2c-0.4,0-0.9-0.2-1.3-0.6
			C69.2,58.9,69,58.5,69,58c0-0.2,0.7-0.4,2.1-0.5c1.8-0.2,3.5-0.8,5.1-1.9c1.9-1.3,2.8-2.7,2.8-4.4c0-2-1-3-3.1-3
			c-1.6,0-3.4,0.5-5.4,1.6c-0.3,0.2-0.8,0.4-1.5,0.8c-0.2,0-0.4-0.1-0.6-0.4c-0.1-0.2-0.2-0.5-0.2-0.7c0-0.7,1.1-1.3,3.2-1.8
			c1.7-0.4,3.1-0.6,4.1-0.6c2,0,3.4,0.7,4.2,2C80.2,49.7,80.4,50.5,80.4,51.2z M78.8,43.5c0,0.3-0.1,0.5-0.4,0.7
			c-0.2,0.2-0.5,0.3-0.8,0.3c-0.2,0-0.5-0.1-0.9-0.2c-0.3-0.1-0.9-0.1-1.9-0.1c-1.4,0-2.5,0.1-3.3,0.2c-0.1,0-0.3,0.1-0.7,0.1
			c-0.3,0.1-0.5,0.1-0.7,0.1c-0.3,0-0.4-0.2-0.4-0.6c0-0.8,0.4-1.2,1.1-1.2c0.9-0.1,2-0.1,3.4-0.1h2.1C78,42.8,78.8,43.1,78.8,43.5z
			"/>
	</g>
</g>
</svg>
