<?xml version="1.0" encoding="utf-8"?>
<!-- Generator: Adobe Illustrator 24.0.3, SVG Export Plug-In . SVG Version: 6.00 Build 0)  -->
<svg version="1.1" id="レイヤー_1" xmlns="http://www.w3.org/2000/svg" xmlns:xlink="http://www.w3.org/1999/xlink" x="0px"
	 y="0px" viewBox="0 0 821.1 21.7" style="enable-background:new 0 0 821.1 21.7;" xml:space="preserve">
<style type="text/css">
	.st0{fill:#503819;}
</style>
<g>
	<g>
		<path class="st0" d="M0.9,2.7c0.3,0,0.5,0,0.8,0.1C2,2.8,2.4,2.9,3,2.9h4.8c1.1,0,2.4,0,3.9,0.1c0.3,0,0.7-0.1,1.1-0.2
			c0.6,0,0.9,0.3,0.9,0.9c0,0.1,0,0.2-0.1,0.5c-0.1,0.5-0.2,1.5-0.3,2.9c-0.1,1.8-0.1,3.8-0.1,5.9c0,1.6,0,3.7,0.1,6.5
			c0,0.7-0.3,1-0.8,1C10.3,20.2,8.2,20,6.4,20c-2,0-3.3,0-3.9,0.1c-0.5,0-1,0.1-1.7,0.2c-0.5,0-0.8-0.3-0.8-0.8
			c0.1-2.9,0.2-5.4,0.2-7.6c0-2.4-0.1-5.2-0.2-8.5C0,2.9,0.3,2.7,0.9,2.7z M6.4,18.8c1.5,0,3.1,0,4.9,0.1c0.3,0,0.4-0.1,0.4-0.4
			c0-1.4,0-2.7,0-3.9c-4.6,0-7.8,0.1-9.9,0.3c0,1.2,0,2.4-0.1,3.5c0,0.4,0.2,0.5,0.6,0.5C3.5,18.8,4.9,18.8,6.4,18.8z M1.9,13.3
			c0.1,0,0.1,0,0.2,0h9.1c0.2,0,0.4,0,0.6,0.1c0-1.5,0-2.8,0-4C7.2,9.4,4,9.5,2,9.7C1.9,10.9,1.9,12.1,1.9,13.3z M2,8.1
			c0.1,0,0.1,0,0.2,0h9.1c0.2,0,0.3,0,0.5,0c0-1.4,0-2.6,0.1-3.5c0-0.2-0.1-0.3-0.4-0.3c-2-0.1-5-0.1-8.9-0.1C2.2,4.2,2,4.4,2,4.7
			C2,5.9,2,7,2,8.1z"/>
		<path class="st0" d="M25.6,2.2c0.7,0,1.1,0.3,1.1,1c0,0.2-0.1,0.4-0.2,0.7c-0.4,1.1-0.7,1.8-1,2.2h0.6c0.5,0,1.1,0,1.8,0.1
			c0.3,0,0.6-0.1,1-0.2c0.5,0,0.8,0.3,0.8,0.9c0,0,0,0.1-0.1,0.4c-0.1,0.4-0.1,1.1-0.2,2.1c-0.1,1.3-0.1,2.7-0.1,4.3
			c0,1.1,0,2.6,0.1,4.4c0,0.7-0.3,1-0.8,1c-1.2-0.2-2.2-0.3-3.2-0.3c-1.4,0-2.2,0-2.6,0.1c-0.3,0-0.7,0.1-1.1,0.2
			c-0.5,0-0.8-0.3-0.8-0.8c0.1-2.1,0.2-3.9,0.2-5.5c0-1.7-0.1-3.7-0.2-6.1c0-0.5,0.3-0.8,0.8-0.8c0.3,0,0.5,0,0.8,0.1
			c0.3,0.1,0.6,0.1,1.1,0.1h0.3c0.3-1,0.4-2,0.4-2.9C24.6,2.6,25,2.2,25.6,2.2z M25.6,17.4c0.6,0,1.2,0,2,0.1c0.3,0,0.4-0.1,0.4-0.4
			v-4.2c0,0-0.1,0-0.1,0c-2.1,0-3.8,0.1-4.9,0.2c0,0,0,0-0.1,0c0,1.3-0.1,2.6-0.2,3.8c0,0.4,0.2,0.6,0.7,0.6
			C24,17.5,24.8,17.4,25.6,17.4z M23,11.8c0.1,0,0.2,0,0.3,0h4.7c0,0,0.1,0,0.1,0V7.9c0-0.2-0.1-0.3-0.2-0.3c-1-0.1-2.4-0.1-4.3-0.1
			C23.2,7.5,23,7.7,23,8C23,9.3,23,10.5,23,11.8z M34.2,2.2c0.7,0,1.1,0.4,1.1,1.1c0,0.7-0.3,1.7-0.9,3c0.5,0,1.4-0.1,2.5-0.1h4.4
			c0.2,0,0.5-0.1,1-0.2c0.7,0,1.1,0.4,1.1,1.1c-0.5,2.3-0.8,4.6-1,6.8c-0.2,3.1-0.8,5.2-1.8,6.2c-0.8,0.9-1.8,1.3-3,1.3
			c-0.5,0-0.9-0.2-1.2-0.6c-0.2-0.4-0.3-0.7-0.3-1s0.1-0.5,0.4-0.6c1.6-0.1,2.7-0.5,3.1-1.2c0.6-0.7,1-2.8,1.4-6.2
			c0.2-2.1,0.3-3.4,0.3-3.9c0-0.3-0.1-0.4-0.3-0.4h-3.1c-1.1,0-2.1,0.1-3.2,0.2C34.4,8,34,8,33.8,8c-0.1,0-0.1,0-0.1,0
			c-0.3,0.6-0.6,1-0.8,1.4C32.4,9.8,32,10,31.5,10C31.2,10,31,9.8,31,9.4c0-0.1,0.1-0.2,0.3-0.4c1.4-2,2.2-4,2.2-6
			C33.5,2.5,33.7,2.2,34.2,2.2z M36.6,12c0.3,0,0.4,0.2,0.4,0.4c0,0.2-0.1,0.4-0.2,0.6c-2,1.9-3.1,2.9-3.4,2.9
			c-0.7,0-1.1-0.2-1.1-0.6c0-0.6,0.1-0.9,0.4-1.1C32.7,14,34,13.3,36.6,12z"/>
		<path class="st0" d="M66.1,17.4c-0.1,0.4-0.4,0.9-0.9,1.5c-0.6,0.7-1,1-1.3,1c-0.7,0-2-0.8-4-2.3c-1.8,1.5-3.7,2.3-5.7,2.3
			c-1.5,0-2.8-0.4-4-1.1c-1.4-0.8-2-1.9-2-3.3c0-1.1,0.6-2.1,1.8-3.1c0.6-0.5,1.7-1.1,3.2-1.9c-0.8-1.3-1.3-2.5-1.3-3.8
			c0-1.1,0.4-1.9,1.2-2.5c0.7-0.5,1.6-0.8,2.7-0.8c1.1,0,2,0.2,2.7,0.7c0.9,0.6,1.3,1.4,1.3,2.4c0,1.5-1.3,3-3.9,4.5
			c1.4,1.7,2.8,3,4.1,4c0.4-0.7,0.8-1.4,1.3-2c0.5-0.9,1-1.3,1.4-1.3c0.7,0,1.1,0.3,1.1,0.8c0,0.3-0.3,1-0.9,1.8
			c-0.5,0.7-0.9,1.2-1.3,1.7c0.9,0.7,2.3,1.1,4.3,1.1C65.9,17.1,66,17.2,66.1,17.4z M58.4,16.4c-1.4-1.1-2.8-2.6-4.2-4.5
			c-1.1,0.6-1.9,1.1-2.3,1.4c-0.9,0.7-1.3,1.4-1.3,2.2c0,0.8,0.4,1.4,1.2,1.9c0.7,0.4,1.4,0.6,2.3,0.6C55.6,18,57,17.4,58.4,16.4z
			 M58.2,6.6c0-0.6-0.3-1-0.8-1.3c-0.5-0.3-1-0.4-1.7-0.4c-0.6,0-1.1,0.2-1.6,0.6c-0.5,0.4-0.7,0.9-0.7,1.5c0,0.7,0.4,1.7,1.3,2.9
			C57.1,8.9,58.2,7.8,58.2,6.6z"/>
		<path class="st0" d="M89.3,5.3c0,0.6-0.6,1.9-1.9,3.9c-1.1,1.8-2,3.1-2.7,3.9c1.1,0.8,2,1.3,2.9,1.6c0.2,0.1,0.4,0.2,0.7,0.4
			c0,0.3-0.4,0.7-1,1.2c-0.6,0.5-1.1,0.7-1.3,0.7c-0.3,0-0.7-0.4-1.3-1.1c-0.4-0.5-0.8-1-1.2-1.6c-1.3,1.2-2.7,2.4-4.4,3.6
			c-2.3,1.6-3.9,2.4-4.8,2.4c-0.4,0-0.9-0.2-1.5-0.6c-0.6-0.4-0.9-0.8-0.9-1.1c0-0.2,0.4-0.4,1.1-0.6c3.2-0.8,6.3-2.4,9.2-5
			c-0.6-0.5-1.2-1-1.8-1.4c-0.9-0.8-1.4-1.3-1.4-1.4c0-0.2,0.2-0.3,0.5-0.3c0.3,0,0.9,0.3,1.8,0.9c0.6,0.4,1.3,0.8,1.9,1.2
			c0.6-0.7,1.4-1.6,2.2-2.9c1-1.4,1.6-2.4,1.8-3C87.1,6.1,86,6,84.1,6c-1,0-2.1,0.1-3.4,0.2c-0.7,0.9-1.5,1.8-2.5,2.7
			c-1.2,1.2-2.2,1.8-2.8,1.8c-0.3,0-0.8-0.2-1.3-0.5c-0.5-0.3-0.7-0.7-0.7-1c0-0.1,0.4-0.3,1.2-0.6C76,8,77.2,7.3,78.3,6.4
			c0.9-0.7,1.8-1.9,2.9-3.6c0.3-0.4,0.6-0.7,0.8-0.7c0.4,0,0.6,0.2,0.6,0.6c0,0.2-0.3,0.9-1,2c5-0.1,7.3-0.2,7-0.2
			C89.1,4.6,89.3,4.8,89.3,5.3z"/>
		<path class="st0" d="M116.3,11.4c0,0.3-0.4,0.7-1.1,1.3c-0.7,0.6-1.3,0.9-1.6,0.9c-0.4,0-0.9-0.1-1.5-0.4c-1.8-1-4.4-1.4-7.7-1.4
			c-2.8,0-5.2,0.4-7.3,1.1c-0.8,0.3-1.2,0.4-1.4,0.4c-0.2,0-0.4-0.1-0.6-0.3c-0.2-0.2-0.3-0.4-0.3-0.6c0-0.4,0.2-0.8,0.5-1.1
			c0.4-0.4,1.9-0.6,4.4-0.8c1.8-0.1,3.4-0.2,4.8-0.2c2,0,4.2,0.2,6.6,0.6c1.6,0.3,2.8,0.4,3.6,0.4c0.1,0,0.4,0,0.7-0.1
			c0.3-0.1,0.5-0.1,0.7-0.1C116.1,10.9,116.3,11.1,116.3,11.4z"/>
		<path class="st0" d="M141.7,6.3c0,0.4-0.2,0.9-0.6,1.4c-0.4,0.5-0.7,0.8-1.1,0.8c-0.1,0-1-0.2-2.5-0.6c-0.9-0.2-1.9-0.4-3.1-0.5
			c0,0.2,0,0.5,0,0.9c0,0.4,0,0.7,0,0.9c0,4.3-1.7,7.7-5.1,10.2c-1.2,0.9-2,1.3-2.5,1.3c-0.3,0-0.8-0.2-1.4-0.6
			c-0.6-0.4-0.9-0.7-0.9-1c0-0.2,0.5-0.5,1.5-0.9c1.4-0.5,2.5-1.1,3.4-1.8c1.3-1,2.2-2.4,2.7-4.1c0.4-1.2,0.6-2.8,0.7-5
			c-2.7,0-4.9,0.4-6.7,1.1c-0.4,0.6-0.9,1.3-1.5,1.9c-0.8,0.9-1.4,1.4-1.8,1.4c-0.3,0-0.7-0.2-1.3-0.6c-0.6-0.4-0.9-0.7-0.9-0.9
			c0-0.2,0.4-0.5,1.3-0.9c1.1-0.5,2.1-1.3,3-2.4c1.1-1.3,1.7-2.4,2-3.4c0.2-0.7,0.5-1,1-1c0.3,0,0.5,0.2,0.5,0.6
			c0,0.5-0.4,1.6-1.3,3.4c2.5-0.4,4.9-0.6,7-0.6c0.6,0,1.6,0,2.9,0.1c1.3,0.1,2.2,0.1,2.9,0.1c0.2,0,0.4,0,0.7,0
			c0.3,0,0.5-0.1,0.7-0.1C141.6,6.1,141.7,6.2,141.7,6.3z M141.4,3.2c0,0.2-0.2,0.4-0.6,0.7c-0.3,0.3-0.6,0.4-0.8,0.4
			c-0.3,0-0.8-0.5-1.3-1.5c-0.5-0.9-0.8-1.6-0.8-2c0-0.2,0.1-0.3,0.2-0.3c0.2,0,0.3,0.1,0.5,0.3c0.8,1,1.5,1.6,2.3,1.9
			C141.2,2.9,141.4,3.1,141.4,3.2z M144.9,2c-0.1,0.2-0.3,0.4-0.6,0.7c-0.3,0.3-0.6,0.5-0.8,0.5c-0.4-0.1-0.9-0.6-1.5-1.3
			c-0.7-0.8-1-1.4-1-1.7c0-0.1,0.1-0.2,0.2-0.2c0.1,0,0.4,0.2,1,0.6c0.6,0.4,1,0.6,1.1,0.7C143.8,1.5,144.3,1.7,144.9,2z"/>
		<path class="st0" d="M151,12.3c0,0.3-0.1,0.4-0.3,0.4c-0.3,0-0.8-0.5-1.5-1.5c-0.7-1-1.1-1.6-1.1-2c0-0.5,0.3-0.7,1-0.7
			c0.3,0,0.8,0.5,1.3,1.5C150.8,11.2,151,11.9,151,12.3z M161.6,9c0,0.4-0.2,1.2-0.7,2.5c-1.2,3-3.4,5.6-6.7,7.9
			c-1.6,1.1-2.7,1.6-3.5,1.6c-0.3,0-0.7-0.1-1.2-0.4c-0.5-0.3-0.7-0.6-0.7-0.9c0-0.2,0.5-0.4,1.6-0.7c1.5-0.4,3-1.1,4.4-1.9
			c1.6-1,2.9-2.2,3.7-3.5c0.4-0.6,0.7-1.4,1.1-2.3c0.2-0.8,0.5-1.6,0.8-2.4c0.1-0.3,0.3-0.5,0.7-0.5C161.4,8.4,161.6,8.6,161.6,9z
			 M155.4,11.9c0,0.3-0.1,0.5-0.3,0.5c-0.2,0-0.6-0.5-1-1.5c-0.5-1-0.8-1.7-0.8-2c0-0.5,0.3-0.8,1-0.8C155,8.1,155.4,9.3,155.4,11.9
			z"/>
		<path class="st0" d="M183.5,13.3c0,0.3-0.4,0.8-1.3,1.4c-0.9,0.6-1.5,1-1.9,1c-0.3,0-0.8-0.4-1.4-1.2c-1.6-1.9-3.6-3.4-6-4.5
			c0,1.1,0,2.7,0.1,4.8c0.1,2.1,0.1,3.8,0.1,4.9c0,0.8-0.3,1.2-1,1.2c-0.6,0-0.9-0.5-0.9-1.4c0-0.8,0-2.1,0.1-3.7
			c0.1-1.7,0.1-2.9,0.1-3.7V6.9c0-0.4,0-0.9-0.1-1.7c0-0.8-0.1-1.3-0.1-1.7c0-0.7,0.3-1,1-1c0.6,0,1,0.3,1,1c0,0.6,0,1.4-0.1,2.5
			C173,7.1,173,8,173,8.5c1.8,0.8,3.8,1.8,5.8,2.9c1.7,0.9,3.1,1.4,4.1,1.6C183.3,13,183.5,13.1,183.5,13.3z"/>
		<path class="st0" d="M195.6,15c-0.3,1-0.6,1.9-1.1,2.9c-0.7,1.5-1.3,2.2-1.8,2.2c-0.6,0-1.1-0.8-1.5-2.3c-0.4-1.3-0.6-3.2-0.6-5.6
			c0-1,0.2-2.3,0.5-4.1c0.4-2,0.7-3.3,1.1-4c0.2-0.5,0.6-0.7,1.1-0.7c0.6,0,0.9,0.3,0.9,0.9c0,0.1-0.2,0.5-0.4,1.2
			c-0.4,0.9-0.8,2-1,3.2c-0.3,1.3-0.5,2.4-0.5,3.3c0,3.7,0.3,5.5,0.8,5.5c0.2,0,0.8-0.9,1.7-2.6c0.1-0.2,0.2-0.3,0.4-0.3
			C195.4,14.6,195.5,14.8,195.6,15z M209.6,15.9c-0.1,0.1-0.3,0.6-0.6,1.3c-0.3,0.7-0.7,1.1-1.2,1.3c-0.6,0.2-1.9,0.3-3.9,0.3
			c-1.6,0-3-0.3-4.2-0.8c-1.6-0.7-2.5-1.8-2.5-3.1c0-1.5,0.4-2.3,1.1-2.3c0.1,0,0.2,0.1,0.3,0.3c-0.2,0.7-0.3,1.2-0.3,1.4
			c0,1.6,1.3,2.4,3.8,2.4c1.1,0,2.3-0.1,3.7-0.3c0.8-0.1,1.5-0.3,2.2-0.6c0.6-0.3,1-0.4,1.2-0.4C209.5,15.5,209.6,15.6,209.6,15.9z
			 M207.2,5.8c0,0.3-0.7,0.9-2,1.9c-1.4,1-2.2,1.4-2.5,1.4c-0.3,0-0.5-0.1-0.5-0.3c0-0.2,0.3-0.5,0.9-1.1c0.5-0.5,1-0.9,1.3-1.1
			c-0.1,0-0.2-0.1-0.4-0.1c-1.2,0-2.5,0.1-3.9,0.4c-1.5,0.3-2.2,0.4-2.1,0.4c-0.3,0-0.5-0.2-0.5-0.6c0-0.6,0.2-1,0.7-1.1
			c0.2-0.1,0.7-0.1,1.5-0.2c1.9-0.2,4.1-0.3,6.6-0.3C206.9,5,207.2,5.3,207.2,5.8z"/>
		<path class="st0" d="M224.4,2.1c0.4,0,0.6,0.2,0.6,0.5c0.3,0.1,0.7,0.3,1.3,0.8c4.2,2.7,6.8,4.2,7.9,4.5c0.7,0.2,1.5,0.3,2.4,0.4
			c0.4,0,0.6,0.1,0.6,0.4c0,0.4-0.3,0.8-1,1.2c-0.6,0.4-1.3,0.6-2,0.6c-0.4,0-0.9-0.2-1.3-0.5c-1.7-1.5-3.6-3.1-5.8-4.6
			c-0.9-0.6-1.8-1.1-2.5-1.4c-0.1-0.1-0.2-0.1-0.3-0.2c-1.4,1.5-2.9,2.8-4.5,3.9c-1.4,1-3,1.8-4.8,2.4c-0.4,0.1-0.7,0.2-0.8,0.2
			c-0.4,0-0.9-0.3-1.5-0.8c-0.4-0.4-0.6-0.7-0.6-1.1c0.1-0.3,0.3-0.4,0.8-0.4c1.3-0.1,2.3-0.3,2.9-0.4c1.5-0.4,3-1,4.5-1.9
			c1.4-0.9,2.6-2,3.6-3.2C223.9,2.2,224.1,2.1,224.4,2.1z M219.2,13.3c0.3,0,0.5,0,0.8,0.1c0.3,0.1,0.6,0.1,1.1,0.1h4.1
			c0.9,0,2,0,3.3,0.1c0.3,0,0.6-0.1,1-0.2c0.5,0,0.8,0.3,0.8,0.9c0,0,0,0.1-0.1,0.2c-0.1,0.2-0.1,0.5-0.2,1.1
			c-0.1,0.7-0.1,1.4-0.1,2.2c0,0.4,0,1.1,0.1,1.8c0,0.6-0.3,0.9-0.8,0.9c-1.8-0.1-3.4-0.2-4.9-0.2c-1.9,0-3.1,0-3.6,0.1
			c-0.4,0-1,0.1-1.6,0.1c-0.5,0-0.8-0.3-0.8-0.8c0.1-1.1,0.2-2,0.2-2.8c0-0.8-0.1-1.7-0.2-2.7C218.5,13.5,218.7,13.3,219.2,13.3z
			 M220.8,9h8.5c0.3,0,0.4,0.1,0.4,0.3c0,0.3-0.1,0.6-0.3,0.9c-0.3,0.2-0.6,0.4-1,0.4c-0.2,0-0.7-0.1-1.5-0.2
			c-0.8-0.1-1.6-0.1-2.5-0.1c-1.6,0-2.7,0.1-3.4,0.3c-0.4,0.2-0.7,0.3-0.8,0.3c-0.6,0-0.9-0.3-1-0.9c0-0.3,0.2-0.5,0.5-0.8
			C220,9.1,220.3,9,220.8,9z M224.4,18.8c1.1,0,2.4,0,3.7,0.1c0.3,0,0.4-0.1,0.4-0.3v-3.5c0-0.2-0.1-0.3-0.2-0.3
			c-1.7-0.1-4.2-0.1-7.4-0.1c-0.4,0-0.6,0.2-0.6,0.6c0,1.2-0.1,2.2-0.2,3.3c0,0.3,0.2,0.4,0.7,0.4C221.8,18.9,223,18.8,224.4,18.8z"
			/>
		<path class="st0" d="M261,13.2c0,1.4-0.5,2.6-1.5,3.7c-0.8,1-2,1.7-3.3,2.2c-1.3,0.4-2.4,0.6-3.2,0.6c-0.4,0-0.9-0.2-1.4-0.7
			c-0.5-0.5-0.8-1-0.8-1.3c0-0.2,0.5-0.3,1.5-0.3c4.7-0.1,7.1-1.7,7.1-4.8c0-1.1-0.4-2-1.3-2.7c-0.7-0.6-1.7-0.9-2.8-0.9
			c-2.5,0-5.1,1.1-7.7,3.3c0,0.8,0,2.1,0.1,3.9c0,1.7,0,3,0,3.9c0,0.6-0.4,0.9-1.1,0.9c-0.4,0-0.7-0.5-0.7-1.4
			c0-0.1-0.1-0.7-0.1-1.8c0-1.2,0-2.9,0.1-5c-1.3,1.4-2.3,2.8-3.3,4.3c-0.4,0.5-0.6,0.8-0.8,0.8c-0.6,0-0.9-0.3-0.9-1
			c0-0.5,0.7-1.6,2.2-3.3c1-1,1.9-2.1,2.9-3.1c0-0.6,0-1.4,0.1-2.6c-1.6,0.2-2.9,0.5-3.9,0.9c-0.4,0-0.6-0.3-0.6-0.9
			c0-0.6,0.5-1,1.4-1.1c0.2,0,1.3-0.1,3.1-0.3l0.1-2.6c0-1,0.3-1.6,0.9-1.6c0.6,0,0.9,0.3,0.9,0.9c0,0.3,0,0.9-0.1,1.6
			c-0.1,0.7-0.1,1.3-0.1,1.6c0,0,0.1,0,0.3,0c0.1,0,0.1,0,0.2,0c0.7,0,1,0.3,1,0.8c0,0.3-0.2,0.7-0.6,1.3c-0.3,0.4-0.6,0.8-0.9,1.2
			c0,0.1,0,0.3-0.1,0.6c0,0.2,0,0.4,0,0.6c2.8-1.8,5.3-2.7,7.5-2.7c1.6,0,3,0.5,4.1,1.5C260.5,10.4,261,11.7,261,13.2z"/>
		<path class="st0" d="M288.4,8.9c0,0.4-0.3,0.8-0.8,1.5c-0.5,0.6-0.9,0.9-1.3,0.9c-0.3,0-1-0.2-2.2-0.7c-0.7-0.2-1.5-0.4-2.4-0.6
			c-0.2,1-0.4,1.9-0.6,2.9c-0.4,1.3-0.9,1.9-1.7,1.9c-0.5,0-1.1-0.3-2-0.8c-0.9-0.6-1.3-1-1.3-1.4c0-0.2,0.1-0.3,0.4-0.3
			c0.4,0.2,0.8,0.3,1.2,0.5c0.6,0.3,1,0.4,1.2,0.4c0.5,0,0.9-1.1,1.2-3.4c-0.1,0-0.2,0-0.4,0c-0.2,0-0.3,0-0.4,0
			c-2,0-3.9,0.1-5.9,0.2c-0.1,1-0.1,2-0.1,2.8c0,2.1,0.2,3.4,0.5,4c0.5,0.9,1.7,1.4,3.5,1.4c1.9,0,4.2-0.4,6.8-1.1
			c0.3-0.1,0.5-0.1,0.7-0.1c0.1,0,0.2,0.2,0.2,0.4c0,0.3-0.2,0.8-0.5,1.4c-0.4,0.6-1.1,1-2.1,1.2c-0.5,0.1-1.4,0.2-2.6,0.2
			c-1.9,0-3.5-0.3-4.8-0.8c-1.3-0.5-2.2-1.4-2.7-2.7c-0.3-1-0.5-2.3-0.5-3.9c0-0.3,0-0.8,0-1.4c0-0.6,0-1,0-1.3
			c-1.8,0.3-3.4,0.6-4.8,1.1l-1,0.3c-0.4,0-0.6-0.2-0.6-0.6c0-0.4,0.1-0.8,0.4-1.1c0.3-0.3,2.3-0.6,6.1-0.9v-4
			c0-0.8,0.4-1.3,1.2-1.3c0.5,0,0.8,0.3,0.8,0.9c0,0.4-0.1,1.1-0.2,2.1c-0.1,1-0.1,1.7-0.1,2.1c2.6-0.1,4.9-0.2,6.8-0.2
			c0-0.4,0-1.1,0-1.9c0-1,0.1-1.6,0.1-1.9c0-0.7,0-1.1,0.1-1.2c0.1-0.4,0.4-0.6,0.9-0.6c0.4,0,0.6,0.2,0.8,0.7
			c0,0.1,0.1,0.5,0.1,1.1c0,0.7-0.1,2-0.3,3.9c1.6,0.2,3.2,0.3,4.8,0.3c0.2,0,0.4,0,0.8-0.1c0.3-0.1,0.6-0.1,0.8-0.1
			C288.3,8.6,288.4,8.7,288.4,8.9z"/>
		<path class="st0" d="M312,5.7c0,0.4-0.2,0.7-0.7,0.7c-0.2,0-0.5,0-1-0.1c-0.4-0.1-0.7-0.1-0.9-0.1c-2.1,0-4.1,0.6-5.8,1.9
			c-1.9,1.4-2.9,3.1-2.9,5.2c0,1.8,0.8,3,2.3,3.9c1.2,0.7,2.8,1.1,4.7,1.1c0.3,0,0.8,0,1.4-0.1c0.6-0.1,1.1-0.1,1.4-0.1
			c0.2,0,0.3,0.1,0.4,0.3c-0.1,0.6-0.5,1.1-1,1.6c-0.6,0.5-1.1,0.7-1.7,0.7c-2.3,0-4.3-0.6-6-1.8c-1.9-1.3-2.8-3.1-2.8-5.3
			c0-1.7,0.6-3.3,1.7-4.6c0.9-1,2.3-2,4-2.9c-3.7,0.3-7.1,0.9-10.3,1.7c-0.3,0.1-0.7,0.2-1.2,0.3c-0.5,0-0.7-0.3-0.7-0.7
			c0-0.5,0.1-0.9,0.3-1.1c0.3-0.2,0.8-0.4,1.6-0.5c2.5-0.3,5.8-0.6,9.9-1c3.4-0.3,5.4-0.4,6-0.4c0.3,0,0.6,0.1,0.8,0.4
			C311.9,5,312,5.3,312,5.7z"/>
		<path class="st0" d="M318.2,9.7c0.9,0,1.8,0.1,2.7,0.2c0.3-0.1,0.6-0.2,0.9-0.2c0.7,0,1,0.3,1,0.9c0,0.2-0.1,0.4-0.4,0.7
			c-0.6,0.8-1.1,1.7-1.4,2.7c-0.3,0.9-0.6,1.8-0.8,2.9c1,0.1,2.7,0.3,5.2,0.6c6.2,0.8,10.3,1.2,12.5,1.2c0.7,0,1.4-0.1,1.8-0.2
			c0.3-0.1,0.5-0.1,0.7-0.1c0.1,0,0.2,0.1,0.2,0.4c0,0.5-0.3,1.1-0.8,1.8c-0.5,0.7-0.9,1-1.3,1c-0.5,0-1-0.1-1.5-0.2
			c-6.3-1.4-10.7-2.4-13.1-2.7c-2-0.4-3.3-0.6-3.9-0.6c-0.7,0-1.5,0.6-2.4,1.8c-0.2,0.3-0.5,0.5-0.8,0.5c-0.5,0-0.8-0.2-0.8-0.6
			c0-0.2,0.6-1,1.8-2.3c0.1-0.2,0.3-0.3,0.4-0.4c0.5-2.2,1.1-4.1,1.8-5.7c0-0.2,0-0.3,0-0.3c-0.1,0-0.1-0.1-0.2-0.1
			c-0.7,0-1.4,0-2,0.1c-0.2,0.1-0.5,0.1-0.8,0.2c-0.4,0-0.6-0.2-0.6-0.7C316.6,10,317.1,9.7,318.2,9.7z M318.5,2.5l3.6,2
			c0.4,0.1,0.6,0.3,0.6,0.6c0,0.2-0.2,0.3-0.6,0.3l-3.8-0.9c-0.6-0.1-0.9-0.6-0.9-1.3C317.4,2.8,317.7,2.5,318.5,2.5z M326.5,9.8
			h1.7V9.5c0-0.5,0.3-0.8,0.8-0.8c0.6,0,0.9,0.3,0.9,0.9v0.1h3.8l0-0.2c0-0.5,0.3-0.8,0.8-0.8c0.6,0,0.9,0.3,0.9,0.9v0.1h2.7
			c0.2,0,0.3,0.1,0.3,0.3c0,0.3-0.1,0.6-0.3,0.8c-0.2,0.2-0.6,0.3-0.9,0.3c-0.3,0-0.9,0-1.9-0.1l-0.1,1.4c0.7,0,1.5,0.1,2.4,0.1
			c0.4,0,0.8,0,1.1,0c0.2,0,0.6,0,1.1-0.1c0.4-0.1,0.7-0.2,0.8-0.2c0.1,0,0.2,0.1,0.2,0.2c0,0.4-0.2,0.8-0.6,1.3
			c-0.4,0.5-0.7,0.8-1.1,0.8c-0.3,0-0.8-0.1-1.6-0.3c-1.6-0.4-3.5-0.6-5.8-0.6c-3.1,0-5.2,0.1-6.4,0.4c-0.6,0.1-1,0.2-1.4,0.2
			c-0.4,0-0.5-0.2-0.5-0.6c0-0.3,0.1-0.5,0.3-0.8c0.2-0.2,0.4-0.3,0.6-0.3c0.2,0,0.4,0,0.6,0.1c1.2-0.1,2.4-0.2,3.6-0.3l-0.1-1.4
			c-0.5,0-0.9,0.1-1.3,0.1c-0.5,0.2-0.9,0.2-1,0.2c-0.5,0-0.7-0.3-0.8-0.8c0-0.2,0.2-0.4,0.4-0.6C325.9,9.8,326.2,9.8,326.5,9.8z
			 M326.2,2.1l3.1,0.1c0.5-0.1,0.8-0.2,1-0.2c0.6,0,0.9,0.3,0.9,0.9c-0.2,0.3-0.3,0.7-0.4,1c0,0.2,0,0.6,0,1.1
			c0,0.5-0.2,0.8-0.7,0.8c-0.2,0-0.3,0-0.4-0.1h0c-1.2,0-2.2,0.1-2.9,0.2h0c0,0.3,0,0.7-0.1,1c0,0.1,0.1,0.2,0.3,0.2h2.9
			c0.7,0,1.1,0.1,1.1,0.4c0,0.5-0.3,0.8-0.8,0.8l-2-0.1c-0.9,0-1.6,0.1-2.2,0.2c-0.5,0-0.8-0.2-0.8-0.5c0.1-0.5,0.1-0.9,0.1-1.2
			c0-0.4,0-0.9-0.1-1.5c0-0.4,0.3-0.5,0.8-0.5c0.2,0,0.4,0,0.6,0.1c0.1,0,0.2,0,0.3,0h2.5c0,0,0-0.1,0-0.1c0-0.5,0.1-0.9,0.2-1.1
			c0-0.2-0.1-0.3-0.3-0.3c-0.9,0-2,0-3.4,0.1c-0.4,0-0.7-0.1-0.7-0.4c0-0.3,0.1-0.5,0.4-0.6C325.9,2.2,326.1,2.1,326.2,2.1z
			 M325.6,15.3c0.4,0.1,0.8,0.1,1,0.1c0.7,0,1.5-0.3,2.5-0.8c0.1,0,0.2,0.1,0.2,0.3c0,0.2-0.3,0.7-1,1.4c-0.7,0.7-1.2,1.1-1.7,1.1
			c-0.3,0-0.6-0.2-0.8-0.5c-0.3-0.4-0.4-0.8-0.4-1.3C325.3,15.5,325.4,15.3,325.6,15.3z M333.6,12.4l0-1.4c-0.7,0-1.4,0-2.1,0
			c-0.6,0-1.2,0-1.7,0l-0.1,1.4c0.7,0,1.3,0,2,0C332.2,12.4,332.9,12.4,333.6,12.4z M333.5,2.1l3.7,0.1c0.5-0.1,0.8-0.2,1-0.2
			c0.6,0,0.9,0.3,0.9,0.9c-0.2,0.3-0.3,0.7-0.4,1c0,0.2,0,0.6,0,1.1c0,0.5-0.2,0.8-0.7,0.8c-0.2,0-0.3,0-0.4-0.1h0
			c-1.3,0-2.3,0.1-3.1,0.2h0c0,0.3,0,0.7-0.1,1c0,0.1,0.1,0.2,0.3,0.2h3.2c0.7,0,1.1,0.1,1.1,0.4c0,0.5-0.3,0.8-0.8,0.8l-2.1-0.1
			c-0.9,0-1.7,0.1-2.4,0.2c-0.5,0-0.8-0.2-0.8-0.5c0.1-0.5,0.1-0.9,0.1-1.2c0-0.4,0-0.9-0.1-1.5c0-0.4,0.3-0.5,0.8-0.5
			c0.3,0,0.5,0,0.6,0.1c0.1,0,0.2,0,0.3,0h2.7c0,0,0-0.1,0-0.1c0-0.5,0.1-0.9,0.2-1.1c0-0.2-0.1-0.3-0.3-0.3c-1.1,0-2.4,0-4,0.1
			c-0.4,0-0.7-0.1-0.7-0.4c0-0.3,0.1-0.5,0.4-0.6C333.2,2.2,333.4,2.1,333.5,2.1z M334.3,14.7l0.1,0.1c0.8,0.5,1.4,0.8,1.9,0.9
			c0.3,0.1,0.7,0.2,1.3,0.2c0.2,0,0.3,0.1,0.3,0.3c0,0.3-0.2,0.6-0.6,0.9c-0.7,0.4-1.2,0.6-1.6,0.6c-0.1,0-0.2-0.1-0.3-0.2
			c-0.2-0.2-0.6-1-1.3-2.2c-0.1-0.1-0.1-0.2-0.1-0.3C334,14.8,334.1,14.7,334.3,14.7z"/>
		<path class="st0" d="M366.7,15.5c-0.1,0.3-0.5,0.8-1.2,1.4s-1.2,0.9-1.5,0.9c-0.3,0-0.7-0.3-1.3-0.9c-1.4-1.4-3-2.9-5-4.7
			c-2.7-2.5-4.3-3.8-4.7-3.8c-0.4,0-1.5,1-3.4,2.9c-1.9,2-3.1,2.9-3.6,2.9c-0.3,0-0.6-0.1-0.8-0.3c-0.2-0.2-0.3-0.5-0.3-0.8
			c0-0.4,0.2-0.7,0.7-1c2.2-1.6,4.1-3.1,5.7-4.5c0.6-0.5,1.1-0.7,1.6-0.7c0.6,0,1.5,0.5,2.8,1.5l5.9,4.4c1.5,1.1,3,1.9,4.4,2.3
			C366.2,15.3,366.4,15.4,366.7,15.5z M360.8,5.6c0,0.2-0.2,0.4-0.6,0.7s-0.6,0.4-0.9,0.4c-0.3,0-0.8-0.5-1.4-1.4
			c-0.6-0.9-0.9-1.6-0.9-2c0-0.2,0.1-0.3,0.2-0.3c0.2,0,0.3,0.1,0.5,0.3c0.8,1,1.6,1.6,2.4,1.9C360.5,5.3,360.7,5.4,360.8,5.6z
			 M364.3,4.4c-0.1,0.2-0.3,0.4-0.6,0.7c-0.3,0.3-0.6,0.5-0.8,0.5c-0.4-0.1-1-0.5-1.7-1.3c-0.6-0.8-1-1.3-1-1.7
			c0-0.1,0.1-0.2,0.2-0.2l1.3,0.8c0.9,0.5,1.6,0.8,2,0.9C364.1,4.2,364.2,4.3,364.3,4.4z"/>
		<path class="st0" d="M388.7,14.8c0,2-0.9,3.5-2.7,4.5c-1.5,0.9-3.3,1.3-5.4,1.3c-1,0-2-0.2-2.9-0.7c-1.1-0.6-1.7-1.3-1.7-2.2
			c0-1.4,0.9-2.2,2.6-2.2c2.1,0,3.8,1,5,3.1c0.9-0.3,1.7-0.8,2.2-1.4c0.6-0.7,1-1.5,1-2.4c0-1-0.4-1.9-1.3-2.4
			c-0.7-0.5-1.7-0.7-2.8-0.7c-1.5,0-2.9,0.3-4.5,0.8c-1.6,0.6-2.9,1.3-3.9,2.3c-0.5,0.4-0.9,0.7-1,0.7c-0.6,0-0.9-0.3-0.9-1
			c0-0.4,0.3-0.8,0.9-1.3l9.1-7.8c0.1-0.1,0.2-0.2,0.4-0.3c-0.1-0.1-0.3-0.1-0.6-0.1c-0.8,0-1.9,0.1-3.3,0.2c-1.7,0.1-2.7,0.2-3,0.3
			c-0.5,0-0.8-0.3-0.8-0.9c0-0.5,0.6-0.8,1.7-0.9c2-0.1,4.8-0.1,8.2-0.1c0.8,0,1.1,0.2,1.1,0.6c0,0.2-0.3,0.6-0.8,1
			c-3,2.3-5.7,4.5-8,6.6c1.8-0.8,3.8-1.1,5.9-1.1c1.4,0,2.7,0.3,3.8,1C388.1,12.3,388.7,13.4,388.7,14.8z M381.9,19.1
			c-1.1-1.7-2.2-2.5-3.3-2.5c-0.9,0-1.3,0.4-1.3,1.1c0,1,1.1,1.5,3.3,1.5C380.7,19.2,381.2,19.1,381.9,19.1z"/>
		<path class="st0" d="M402.5,20c0,0.5-0.2,0.9-0.6,1.2c-0.4,0.3-0.8,0.5-1.3,0.5c-0.5,0-0.9-0.2-1.3-0.5c-0.3-0.3-0.5-0.7-0.5-1.2
			c0-1.1,0.6-1.6,1.8-1.6c0.5,0,1,0.1,1.3,0.4C402.3,19.1,402.5,19.5,402.5,20z M402,4.8c-0.2,0.6-0.3,2.5-0.3,5.8
			c0,2.8,0,4.4,0.1,4.7c-0.1,0.8-0.4,1.2-1.2,1.2c-0.8,0-1.2-0.4-1.2-1.2c0-0.5,0-1.3,0.1-2.4c0.1-1,0.1-1.8,0.1-2.4
			c0-0.6-0.1-1.5-0.2-2.9c-0.1-1.3-0.1-2.3-0.1-2.9c0-0.8,0.4-1.2,1.3-1.2C401.5,3.6,402,4,402,4.8z"/>
		<path class="st0" d="M413.1,1.9c0.8,0,1.2,0.3,1.2,0.9c0,0.6,0,1.1,0,1.7c0,0,0.1,0,0.1,0h4.9c0.5,0,0.8,0.2,0.8,0.6
			c0,0.4-0.3,0.6-0.8,0.6c-2.2,0-3.9,0.1-5.2,0.2c-0.1,1-0.2,1.9-0.3,2.7c0,0.2,0.1,0.3,0.3,0.3c3.2-0.6,5-0.9,5.6-0.9
			c0.4,0,0.6,0.2,0.6,0.5c0,0.5-0.3,0.7-0.8,0.8c-1.8,0.2-3.3,0.4-4.4,0.7c-0.9,0.2-1.5,0.5-1.9,0.7c-0.3,0.2-0.6,0.3-0.8,0.3
			c-0.5,0-0.8-0.3-0.8-1c0-0.1,0.1-0.3,0.3-0.5c0.2-0.2,0.3-0.6,0.3-1c0.1-1,0.2-1.8,0.2-2.6c0-1.1-0.1-2.1-0.2-3.2
			C412.3,2.2,412.6,1.9,413.1,1.9z M421.7,9.4c0.6,0,0.9,0.3,0.9,0.9c0,0.1,0,0.2-0.1,0.4c-0.3,0.6-0.5,1-0.7,1.3h0.9
			c1,0,2.1,0,3.5,0.1c0.3,0,0.6-0.1,1-0.2c0.5,0,0.8,0.3,0.8,0.9c0,0,0,0.1-0.1,0.2c-0.1,0.3-0.1,0.8-0.2,1.5
			c-0.1,0.9-0.1,1.9-0.1,2.9c0,0.7,0,1.6,0.1,2.8c0,0.6-0.3,0.9-0.8,0.9c-1.9-0.1-3.5-0.2-5-0.2c-2,0-3.3,0-3.8,0.1
			c-0.5,0-1,0.1-1.7,0.2c-0.5,0-0.8-0.3-0.8-0.8c0.1-1.4,0.2-2.7,0.2-3.8c0-1.1-0.1-2.4-0.2-3.9c0-0.5,0.3-0.8,0.8-0.8
			c0.3,0,0.5,0,0.8,0.1c0.3,0.1,0.6,0.1,1.1,0.1h2.2c0.2-0.6,0.3-1.2,0.3-1.7C420.9,9.7,421.1,9.4,421.7,9.4z M421.9,19.6
			c1.1,0,2.4,0,3.8,0.1c0.3,0,0.4-0.1,0.4-0.3V17c0,0-0.1,0-0.1,0c-3.7,0-6.6,0.1-8.6,0.2c0,0.7-0.1,1.4-0.1,2.1
			c0,0.3,0.2,0.4,0.7,0.4C419,19.7,420.3,19.6,421.9,19.6z M417.4,15.8c0.1,0,0.1,0,0.1,0h8.4c0,0,0.1,0,0.1,0v-2.1
			c0-0.2-0.1-0.3-0.2-0.3c-1.8-0.1-4.4-0.1-7.9-0.1c-0.4,0-0.6,0.2-0.6,0.6C417.5,14.5,417.5,15.2,417.4,15.8z M424.2,1.8
			c0.6,0,0.9,0.3,0.9,0.8c0,0.7,0,1.5-0.1,2.5c1.8-0.6,3.3-1.1,4.5-1.6c0.4-0.1,0.7-0.2,0.9-0.2c0.5,0,0.8,0.3,0.8,1
			c0,0.2-0.2,0.4-0.7,0.5c-3.1,0.8-4.9,1.3-5.5,1.4c0,0.5-0.1,1-0.1,1.6c0,0.3,0.1,0.5,0.4,0.5c0.5,0.1,1.8,0.1,3.9,0.1
			c1.8,0,3.4-0.2,4.8-0.5c0.2,0,0.3,0.2,0.3,0.5c0,0.5-0.2,1-0.6,1.6c-0.4,0.6-0.8,1-1.2,1s-3-0.3-8.1-0.9c-0.8-0.1-1.1-0.5-1.1-1.1
			c0.1-1.6,0.2-2.8,0.2-3.7c0-0.9,0-1.8-0.1-2.9C423.4,2,423.6,1.8,424.2,1.8z"/>
		<path class="st0" d="M457.7,6.2c-0.1,0.4-0.3,0.9-0.7,1.5c-0.5,0.7-0.9,1-1.2,1c-0.1,0-0.6-0.1-1.3-0.4c-1-0.4-2.8-0.7-5.4-0.8
			c0.8,2.3,1.9,4.1,3.3,5.5c0.2,0.2,0.4,0.5,0.7,0.8c-0.1,0.5-0.4,0.9-0.7,1c-0.2,0-0.6-0.2-1.4-0.6c-0.8-0.4-1.4-0.6-1.7-0.7
			c-0.8-0.2-1.7-0.3-2.7-0.3c-3.1,0-4.7,0.9-4.7,2.6c0,1,0.5,1.7,1.5,2.1c0.7,0.3,1.6,0.5,2.7,0.5c2.4,0,4.2-0.3,5.5-0.9
			c0.7-0.3,1.1-0.5,1.2-0.5c0.2,0,0.4,0.1,0.4,0.4c0,0.4-0.2,0.9-0.4,1.5c-0.5,1-2.1,1.5-4.7,1.5c-1.9,0-3.5-0.3-4.9-0.8
			c-1.9-0.7-2.8-1.9-2.8-3.5c0-1.5,0.7-2.6,2.2-3.3c1.1-0.6,2.5-0.8,4.1-0.8c1.1,0,2.3,0.2,3.7,0.6c-1.2-1.5-2.1-3.2-2.8-5.1
			c-2.7,0.1-5,0.5-7,1c-0.7,0.2-1.1,0.3-1.5,0.3c-0.4,0-0.7-0.3-0.7-1c0-0.7,0.6-1,1.8-1.1c1.5-0.1,3.8-0.3,6.8-0.5
			c-0.6-1.4-0.8-2.4-0.8-2.9c0-0.6,0.3-0.9,1-0.9c0.4,0,0.7,0.5,1,1.5c0.2,0.7,0.3,1.5,0.5,2.2c2.3,0,4.6-0.1,7-0.1
			c0.2,0,0.4,0,0.8-0.1c0.4,0,0.6-0.1,0.8-0.1C457.6,5.9,457.7,6,457.7,6.2z"/>
		<path class="st0" d="M481.9,15.3c0,2-1.1,3.3-3.2,4c-1.3,0.4-2.5,0.6-3.7,0.6c-1.7,0-2.8-0.7-3.3-2.1c-0.2-0.3-0.3-1.6-0.6-3.9
			c-0.1-1.4-0.6-2.1-1.4-2.1c-1.6,0-2.9,0.7-3.9,2c-0.4,0.6-1.1,1.9-1.9,3.8c-0.6,1.4-1.1,2.1-1.6,2.1c-0.7,0-1-0.3-1-1
			c0-0.3,0.1-0.7,0.4-1.1c1.2-2.2,3.7-7,7.4-14.6c0.2-0.5,0.6-0.7,1.1-0.7c0.6,0,1,0.3,1,0.9c0,0.3-0.7,1.7-2.1,4.2
			c-0.8,1.5-1.6,3-2.5,4.4c1.1-0.7,2.2-1,3.2-1c0.7,0,1.4,0.3,2,0.8c0.4,0.5,0.7,1.3,1,2.5c0.3,1.7,0.5,2.7,0.5,2.7
			c0.3,0.9,0.8,1.3,1.5,1.3c0.8,0,1.7-0.3,2.9-0.9c1.1-0.5,1.9-1.1,2.6-1.7c0.8-0.8,1.2-1.1,1.3-1.1
			C481.7,14.4,481.9,14.7,481.9,15.3z"/>
		<path class="st0" d="M492.5,15c-0.3,1-0.6,1.9-1.1,2.9c-0.7,1.5-1.3,2.2-1.8,2.2c-0.6,0-1.1-0.8-1.5-2.3c-0.4-1.3-0.6-3.2-0.6-5.6
			c0-1,0.2-2.3,0.5-4.1c0.4-2,0.7-3.3,1.1-4c0.2-0.5,0.6-0.7,1.1-0.7c0.6,0,0.9,0.3,0.9,0.9c0,0.1-0.1,0.5-0.4,1.2
			c-0.4,0.9-0.8,2-1,3.2c-0.3,1.3-0.5,2.4-0.5,3.3c0,3.7,0.3,5.5,0.8,5.5c0.2,0,0.8-0.9,1.7-2.6c0.1-0.2,0.2-0.3,0.4-0.3
			C492.4,14.6,492.5,14.8,492.5,15z M506.6,15.9c-0.1,0.1-0.3,0.6-0.6,1.3c-0.3,0.7-0.7,1.1-1.2,1.3c-0.6,0.2-1.9,0.3-3.9,0.3
			c-1.6,0-3-0.3-4.2-0.8c-1.6-0.7-2.5-1.8-2.5-3.1c0-1.5,0.4-2.3,1.1-2.3c0.1,0,0.2,0.1,0.3,0.3c-0.2,0.7-0.3,1.2-0.3,1.4
			c0,1.6,1.3,2.4,3.8,2.4c1.1,0,2.3-0.1,3.7-0.3c0.8-0.1,1.5-0.3,2.2-0.6c0.6-0.3,1-0.4,1.2-0.4C506.4,15.5,506.5,15.6,506.6,15.9z
			 M504.2,5.8c0,0.3-0.7,0.9-2,1.9c-1.4,1-2.2,1.4-2.5,1.4c-0.3,0-0.5-0.1-0.5-0.3c0-0.2,0.3-0.5,0.9-1.1c0.5-0.5,1-0.9,1.3-1.1
			c-0.1,0-0.2-0.1-0.4-0.1c-1.2,0-2.5,0.1-3.9,0.4c-1.5,0.3-2.2,0.4-2.1,0.4c-0.3,0-0.5-0.2-0.5-0.6c0-0.6,0.2-1,0.7-1.1
			c0.2-0.1,0.7-0.1,1.5-0.2c1.9-0.2,4.1-0.3,6.6-0.3C503.9,5,504.2,5.3,504.2,5.8z"/>
		<path class="st0" d="M532.1,11.3c0,0.4-0.3,0.8-0.8,1.4c-0.6,0.6-1,0.8-1.4,0.8c-0.4,0-1-0.5-1.8-1.5c-0.6-0.7-1.4-2.2-2.3-4.4
			c0-0.1-0.1-0.2-0.2-0.2c0,0.1-0.1,0.4-0.1,0.9c0,0.2,0,0.5,0.1,0.9c0,0.4,0.1,0.7,0.1,0.8c0,2.8-0.5,5.2-1.6,7.1
			c-1.3,2.4-3.3,3.6-5.9,3.6c-0.8,0-1.6-0.2-2.5-0.7c-1.8-0.9-2.7-2.6-2.7-5.1c0-2.9,1.5-6.1,4.4-9.5c-2.7,1.1-4.5,1.7-5.4,1.7
			c-0.5,0-0.8-0.2-0.8-0.6c0-0.4,0.1-0.6,0.3-0.9c0.2-0.2,0.5-0.4,1-0.4c1.1-0.1,2.2-0.4,3.4-0.7c0.2,0,0.9-0.3,2.3-0.8
			c1.2-0.4,1.9-0.6,1.9-0.6c0.5,0,0.7,0.2,0.7,0.6c0,0.3-0.4,0.8-1.2,1.5c-1.3,1.1-2.4,2.5-3.4,4.3c-1.1,1.9-1.7,3.6-1.7,5.1
			c0,1.3,0.3,2.3,0.8,3.1c0.6,0.9,1.5,1.3,2.7,1.3c2.2,0,3.9-1.3,5.2-3.8c0.9-2,1.4-4.2,1.4-6.7c0-1.1-0.1-2.1-0.3-2.8
			c-0.1-0.3-0.1-0.6-0.1-0.8c0-0.5,0.2-0.8,0.6-0.8c0.3,0,0.5,0.2,0.7,0.5c0.6,1.2,1.1,2,1.3,2.5c0.5,0.9,1.1,1.7,1.7,2.3
			c0.7,0.8,1.7,1.3,2.8,1.7C531.8,11,532.1,11.1,532.1,11.3z M532.1,3.6c0,0.6-0.3,1.2-0.9,1.8c-0.6,0.6-1.2,0.8-1.8,0.8
			c-0.7,0-1.3-0.3-1.8-0.8c-0.5-0.5-0.8-1.2-0.8-1.8c0-0.8,0.3-1.4,0.8-1.9c0.5-0.5,1.1-0.8,1.9-0.8c0.7,0,1.3,0.3,1.8,0.8
			C531.9,2.2,532.1,2.9,532.1,3.6z M531.1,3.6c0-0.4-0.2-0.8-0.5-1.2c-0.3-0.4-0.7-0.5-1.1-0.5c-0.5,0-0.9,0.2-1.2,0.5
			c-0.3,0.3-0.4,0.7-0.4,1.2c0,0.4,0.1,0.8,0.4,1.1c0.3,0.3,0.7,0.5,1.1,0.5c0.4,0,0.7-0.2,1.1-0.5C530.9,4.3,531.1,3.9,531.1,3.6z"
			/>
		<path class="st0" d="M554.3,13.4c0,1.2-0.5,2.4-1.6,3.5c-0.9,1-2,1.8-3.2,2.3c-1.6,0.7-2.7,1-3.4,1c-0.3,0-0.7-0.2-1.1-0.6
			c-0.5-0.4-0.8-0.8-0.8-1c0-0.2,0.3-0.3,0.8-0.4c1.6-0.2,2.9-0.4,3.7-0.6c1.4-0.4,2.4-1.1,3.1-2c0.7-0.8,1-1.5,1-2.2
			c0-1.9-1.4-2.9-4.1-2.9c-1.4,0-3.2,0.2-5.2,0.6c-2,0.4-3.6,0.8-5,1.3c-0.4,0-0.7-0.3-0.7-0.8c0-0.6,0.5-1.1,1.6-1.3
			c2.6-0.6,5.5-0.9,8.6-0.9c2.6,0,4.4,0.6,5.3,1.9C554.1,12,554.3,12.7,554.3,13.4z"/>
		<path class="st0" d="M573.1,6.1c0,0.2-0.1,0.4-0.3,0.8c-0.2,0.3-0.4,0.5-0.6,0.6c-1.2-0.2-2.3-0.3-3.2-0.3c-0.2,0-0.3,0-0.6,0
			c-0.3,0-0.5,0-0.6,0c-0.4,2-1,3.8-1.6,5.5c-1.9,4.8-3.4,7.2-4.5,7.2c-0.3,0-0.7-0.1-1.2-0.3c-0.6-0.2-0.8-0.4-0.8-0.7
			c0-0.1,0.4-0.6,1.1-1.4c1.3-1.3,2.4-2.9,3.4-4.7c1-1.9,1.7-3.7,2.1-5.4c-1.8,0.1-3.4,0.4-4.7,0.9c-0.4-0.1-0.6-0.3-0.6-0.6
			c0-0.4,0.1-0.6,0.2-0.8c0.2-0.2,1-0.4,2.6-0.5c1-0.1,1.9-0.2,2.9-0.3c0.1-0.7,0.2-1.6,0.3-2.5c0-0.7,0.3-1,0.8-1s0.8,0.2,0.8,0.7
			c0,0.2-0.2,1.1-0.5,2.7c2.5-0.1,3.9-0.2,4.4-0.2C572.8,5.7,573.1,5.8,573.1,6.1z M580.6,17.3c0,0.4-0.2,1-0.5,1.6
			c-0.4,0.6-0.9,1-1.7,1.2c-0.5,0.1-1.2,0.2-2.2,0.2c-4.8,0-7.2-1.2-7.2-3.5c0-0.4,0.1-0.7,0.2-1.1c0.2-0.5,0.4-0.7,0.7-0.7
			c0.3,0,0.4,0.2,0.4,0.5c0,0.1,0,0.3-0.1,0.6c-0.1,0.2-0.1,0.4-0.1,0.6c0,1.1,0.9,1.7,2.7,1.7c2.8,0,5.1-0.4,6.7-1.3
			c0.4-0.2,0.7-0.3,0.7-0.3C580.5,16.8,580.6,17,580.6,17.3z M578,9.9c-0.1,0.2-0.7,0.8-1.8,1.6c-1.1,0.9-1.8,1.3-2.2,1.4
			c-0.1,0-0.2-0.1-0.2-0.3c0-0.3,0.2-0.6,0.6-1.1c0.3-0.3,0.6-0.6,1-0.9c-0.2,0-0.4-0.1-0.7-0.1c-1.3,0-2.3,0.1-3.2,0.3
			c-1,0.2-1.5,0.4-1.6,0.4c-0.4,0-0.5-0.1-0.5-0.4c0-0.3,0.1-0.6,0.3-0.8c0.4-0.5,2.2-0.7,5.3-0.7h1C577.3,9.3,577.9,9.5,578,9.9z"
			/>
		<path class="st0" d="M598.9,10.5c0,1.7-0.5,3.4-1.5,5.1c-0.9,1.7-2.1,3-3.6,3.9c-1.4,0.9-2.6,1.3-3.6,1.3c-0.4,0-0.9-0.2-1.5-0.7
			c-0.6-0.5-0.8-0.9-0.8-1.3c0-0.2,0.4-0.3,1.2-0.4c2.2-0.2,4-1,5.6-2.4c1.7-1.6,2.6-3.7,2.6-6.2c0-3.5-0.9-5.3-2.6-5.3
			c-0.8,0-1.6,0.4-2.4,1.3c-0.6,0.7-1.1,1.4-1.5,2.4c-0.6,1.3-1,2.9-1.1,4.7c-0.1,0.8-0.3,1.2-0.8,1.2c-1,0-1.6-1.8-1.6-5.5
			c0-1.3,0.1-2.6,0.3-3.8c0.3-1.9,0.8-2.8,1.5-2.8c0.4,0,0.7,0.3,0.7,1c0,0-0.1,0.6-0.4,1.7c-0.3,1.3-0.5,3.1-0.6,5.3
			c0.7-1.9,1.4-3.3,2.2-4.3c1.1-1.5,2.5-2.2,4-2.2c1.4,0,2.5,0.8,3.2,2.5C598.7,7.3,598.9,8.8,598.9,10.5z"/>
		<path class="st0" d="M625.5,11.5c0,3.2-1.8,5.7-5.3,7.4c-1.4,0.7-2.5,1-3.3,1c-0.5,0-0.9-0.2-1.4-0.6c-0.5-0.4-0.8-0.8-0.8-1.2
			c0-0.2,0.2-0.3,0.6-0.4c0.3,0,0.8-0.1,1.3-0.2c1.6-0.2,3-0.7,4-1.3c1-0.6,1.7-1.3,2.3-2.2c0.7-1,1-2,1-3.1c0-0.8-0.3-1.7-0.8-2.6
			c-1.1-1.8-3-2.7-5.7-2.7c-0.1,0-0.3,0-0.4,0c-0.2,0-0.3,0-0.4,0c-1,4.8-2.4,8.3-4.2,10.5c-1,1.3-1.9,1.9-2.5,1.9
			c-1,0-1.8-0.7-2.4-2.2c-0.5-1.2-0.8-2.4-0.8-3.5c0-1.8,0.6-3.4,1.8-4.8c1.8-2.2,4.6-3.3,8.4-3.3c2.3,0,4.3,0.6,5.9,1.8
			C624.6,7.4,625.5,9.2,625.5,11.5z M615,5.8c-2.4,0.4-4.2,1.3-5.3,2.6c-1.1,1.3-1.6,2.5-1.6,3.7c0,0.7,0.1,1.4,0.4,2.3
			c0.4,1,0.8,1.5,1.4,1.5c0.5,0,1-0.4,1.7-1.2C613,12.9,614.2,9.9,615,5.8z"/>
		<path class="st0" d="M631,5.6h7.8c0.2,0,0.3,0.1,0.3,0.3c0,0.3-0.1,0.6-0.3,0.8c-0.2,0.2-0.6,0.3-0.9,0.3c-0.2,0-0.6,0-1.3-0.1
			c-0.7,0-1.5,0-2.3,0c-1.4,0-2.5,0.1-3.1,0.2c-0.4,0.1-0.6,0.2-0.7,0.2c-0.5,0-0.8-0.3-0.9-0.8c0-0.3,0.2-0.5,0.4-0.8
			C630.2,5.7,630.5,5.6,631,5.6z M631.9,14.9c0.3,0,0.5,0,0.8,0.1c0.3,0.1,0.7,0.1,1.2,0.1h1.5c0.3,0,0.7,0,1.2,0.1
			c0.3,0,0.6-0.1,1-0.2c0.5,0,0.8,0.3,0.8,0.9c0,0,0,0.1-0.1,0.1c-0.1,0.1-0.1,0.4-0.2,0.8c-0.1,0.5-0.1,1.1-0.1,1.7
			c0,0.3,0,0.7,0.1,1.3c0,0.6-0.3,0.9-0.8,0.9c-0.8-0.1-1.5-0.2-2.2-0.2c-1.2,0-1.9,0-2.2,0.1c-0.3,0-0.6,0.1-1,0.1
			c-0.5,0-0.8-0.3-0.8-0.8c0.1-0.9,0.2-1.6,0.2-2.3c0-0.6-0.1-1.2-0.2-2C631.1,15.2,631.3,14.9,631.9,14.9z M632.6,11.8h4.5
			c0.5,0,0.8,0.2,0.8,0.6c0,0.4-0.3,0.6-0.8,0.6c-2,0-3.6,0.1-4.7,0.2c-0.6,0-0.9-0.2-0.9-0.6C631.5,12,631.9,11.8,632.6,11.8z
			 M632.7,2.7h4.4c0.5,0,0.8,0.2,0.8,0.7c0,0.4-0.3,0.5-0.8,0.5c-2,0-3.5,0.1-4.6,0.2c-0.6,0-0.9-0.2-0.9-0.6
			C631.6,2.9,632,2.7,632.7,2.7z M632.7,8.9h4.4c0.5,0,0.8,0.2,0.8,0.6c0,0.4-0.3,0.6-0.8,0.6c-2,0-3.5,0.1-4.6,0.2
			c-0.6,0-0.9-0.2-0.9-0.7C631.6,9.2,632,8.9,632.7,8.9z M635,19.2c0.3,0,0.6,0,1,0.1c0.3,0,0.4-0.1,0.4-0.3v-2.2
			c0-0.2-0.1-0.3-0.2-0.3c-0.6-0.1-1.5-0.1-2.7-0.1c-0.4,0-0.5,0.2-0.5,0.5c0,0.7-0.1,1.4-0.2,2c0,0.3,0.2,0.4,0.6,0.4
			C633.8,19.2,634.4,19.2,635,19.2z M641.5,3.6h1.9l0-1c0-0.5,0.3-0.8,0.8-0.8c0.6,0,0.9,0.3,0.9,0.9v0.9h3.4v-1
			c0-0.5,0.3-0.8,0.8-0.8c0.6,0,0.9,0.3,0.9,0.9l0,0.9h2.9c0.2,0,0.3,0.1,0.3,0.3c0,0.3-0.1,0.6-0.3,0.8c-0.2,0.2-0.6,0.3-0.9,0.3
			c-0.3,0-0.9,0-2-0.1c0,0,0,0-0.1,0l0,1.1h2.5c0.2,0,0.3,0.1,0.3,0.4c0,0.2-0.1,0.4-0.3,0.5c-0.2,0.2-0.4,0.3-0.7,0.3
			c-0.5,0-1.2-0.1-1.9-0.1l-0.1,1.3h4c0.3,0,0.4,0.1,0.4,0.3c0,0.4-0.1,0.7-0.3,0.9c-0.3,0.3-0.6,0.4-1,0.4c-0.3,0-1.1-0.1-2.4-0.3
			c-1,0-2.1-0.1-3.2-0.1v1.2l2.7,0c0.2,0,0.6-0.1,1.2-0.2c0.7,0,1,0.2,1,0.7c-0.3,1.2-0.4,2.6-0.4,4.4c0,0.2,0,0.4,0,0.6
			c0.4,0,0.8,0,1.1,0c0.2,0,0.6,0,1.1-0.1c0.4-0.1,0.7-0.2,0.8-0.2c0.1,0,0.2,0.1,0.2,0.2c0,0.4-0.2,0.8-0.6,1.3
			c-0.4,0.5-0.7,0.8-1.1,0.8c-0.3,0-0.8-0.1-1.5-0.3c0,0.7,0.1,1.5,0.1,2.3c0,0.7-0.3,1.1-0.9,1.1c-0.3,0-0.5-0.1-0.6-0.4
			c-0.1-0.4-0.1-0.8-0.1-1.3c0-0.7,0-1.4,0-2c-1.3-0.2-2.9-0.3-4.6-0.3c-1.3,0-2.3,0-3.2,0.1c-0.1,1-0.3,1.8-0.6,2.3
			c-0.5,1-0.9,1.4-1.4,1.4c-0.4,0-0.9-0.2-1.3-0.7c-0.2-0.3-0.4-0.6-0.4-0.8c0-0.1,0.1-0.2,0.3-0.3c0.7-0.1,1.2-0.6,1.6-1.4
			c0.1-0.1,0.1-0.2,0.1-0.4c-0.3,0.1-0.5,0.1-0.7,0.2c-0.5,0.1-0.9,0.2-1.2,0.2c-0.4,0-0.5-0.2-0.5-0.6c0-0.3,0.1-0.5,0.3-0.8
			c0.2-0.2,0.4-0.4,0.6-0.4c0.2,0,0.4,0,0.6,0.1c0.4,0,0.8-0.1,1.2-0.1c0-0.5,0.1-1.2,0.1-2c0-0.9-0.1-1.9-0.2-2.9
			c0-0.5,0.3-0.8,0.8-0.8c0.2,0,0.4,0,0.5,0.1l3.4,0.1V9.9c-2.1,0-3.6,0.1-4.6,0.2c-0.6,0.1-1,0.2-1.2,0.2c-0.5,0-0.8-0.3-0.9-0.8
			c0-0.3,0.2-0.5,0.4-0.7c0.2-0.2,0.6-0.3,1-0.3h3.1l-0.1-1.4c-0.6,0-1.3,0.1-2.1,0.3c-0.5,0-0.8-0.2-0.8-0.5c0-0.2,0.1-0.4,0.3-0.6
			c0.2-0.2,0.4-0.3,0.7-0.3h1.8l-0.1-1.1c-0.6,0-1.1,0.1-1.5,0.2c-0.5,0.1-0.9,0.2-1,0.2c-0.5,0-0.7-0.3-0.8-0.8
			c0-0.2,0.2-0.5,0.4-0.7C640.8,3.7,641.1,3.6,641.5,3.6z M642.7,16.5c1.1-0.1,2.2-0.1,3.1-0.1c0,0,0,0,0.1,0l0-1.5
			c-1.2,0-2.3,0.1-3.1,0.2h0c0,0,0,0.1,0,0.1C642.7,15.6,642.7,16.1,642.7,16.5z M642.8,13.8c0.1,0,0.1,0,0.2,0h2.9l0-1.5
			c-1.1,0-2.1,0-3.1,0.1C642.8,12.9,642.8,13.4,642.8,13.8z M645,6h3.4V4.9c-0.6,0-1.3,0-2,0c-0.5,0-1,0-1.5,0V6z M645,8.6h3.5
			l0-1.4c-1,0-2.2,0-3.5-0.1V8.6z M647.3,14.8l0,1.5c0.9,0,2,0.1,3.2,0.1c0-0.6,0-1.1,0.1-1.7C649.4,14.8,648.3,14.8,647.3,14.8z
			 M647.3,12.3l0,1.5h3.2c0-0.5,0.1-0.9,0.1-1.3c0-0.1-0.2-0.2-0.7-0.2C649.1,12.3,648.2,12.3,647.3,12.3z"/>
		<path class="st0" d="M662.9,10c0.3,0,0.4,0.1,0.4,0.3c0,0.4-0.1,0.6-0.3,0.6l-4.7,1.5c-0.7,0-1-0.3-1-0.9c0-0.7,0.3-1.1,0.8-1.2
			L662.9,10z M659.9,2.1c0.1,0,0.3,0.1,0.6,0.2c0.8,0.6,1.7,1.2,2.8,2c0.1,0.1,0.2,0.2,0.2,0.3c0,0.3-0.2,0.4-0.6,0.4
			c-0.1,0-0.3,0-0.5-0.1c-1.5-0.5-2.5-0.8-2.9-0.9c-0.5-0.3-0.8-0.7-0.8-1.2C658.8,2.4,659.2,2.1,659.9,2.1z M663.7,16.5
			c0.3,0,0.4,0.1,0.4,0.4c0,0.2-0.1,0.4-0.2,0.7c-1.7,2.2-2.7,3.3-2.9,3.3c-0.8,0-1.2-0.2-1.2-0.7c0-0.6,0.1-1,0.4-1.2
			C660.2,18.8,661.3,18,663.7,16.5z M672.8,1.7c0.7,0,1,0.3,1,1c-0.1,0.5-0.2,1-0.3,1.5c2.4,0,4.6,0.1,6.4,0.3l1.1-0.2
			c0.5,0,0.8,0.2,0.8,0.5c0,0.1-0.1,0.3-0.2,0.5c-0.3,0.6-0.5,1.6-0.6,3c0,0.4-0.2,0.7-0.7,0.7c-0.4,0-0.6-0.2-0.6-0.7
			c0-0.8,0-1.5,0.1-2.2c0-0.1-0.1-0.1-0.4-0.3c-1.7-0.3-3.7-0.5-6-0.5c-2.2,0-4.3,0.1-6.2,0.3c-0.5,0-0.9,0.2-1,0.4l-0.1,0.2
			c0,1.3-0.1,2.1-0.3,2.3c-0.1,0.3-0.3,0.4-0.7,0.4c-0.3,0-0.4-0.1-0.4-0.3c0-1.6-0.1-2.9-0.4-4c0-0.4,0.3-0.7,0.8-0.7
			c0.4,0,0.6,0,0.8,0.1c0.3,0.1,0.5,0.2,0.7,0.2c1.3-0.1,3.1-0.1,5.2-0.1c0.1,0,0.1,0,0.2,0c-0.1-0.5-0.1-0.9-0.3-1.3
			C671.9,2,672.2,1.7,672.8,1.7z M666.4,19.2c0.4,0.1,0.8,0.1,1,0.1c0.7,0,1.6-0.3,2.7-0.9c0.2,0,0.3,0.1,0.3,0.3
			c0,0.3-0.4,0.8-1.1,1.6c-0.7,0.8-1.4,1.2-1.9,1.2c-0.3,0-0.6-0.2-0.9-0.5c-0.3-0.4-0.4-0.9-0.4-1.5
			C666,19.3,666.2,19.2,666.4,19.2z M668.7,7.1h9.5c0.3,0,0.4,0.1,0.4,0.3c0,0.4-0.1,0.7-0.3,0.9c-0.3,0.3-0.6,0.4-1,0.4
			c-0.2,0-0.8-0.1-1.7-0.2c-0.6-0.1-1.2-0.1-1.8-0.1l0,1.6h0c0.9,0,2,0,3.3,0.1c0.3,0,0.6-0.1,1-0.2c0.5,0,0.8,0.3,0.8,0.9
			c0,0,0,0.1-0.1,0.2c-0.1,0.2-0.1,0.6-0.2,1.2c-0.1,0.8-0.1,1.6-0.1,2.5c0,0.5,0,1.3,0.1,2.2c0,0.6-0.3,0.9-0.8,0.9
			c-1.9-0.1-3.6-0.2-5.1-0.2c-1.8,0-2.9,0-3.4,0.1c-0.4,0-0.9,0.1-1.5,0.1c-0.5,0-0.8-0.3-0.8-0.8c0.1-1.2,0.2-2.3,0.2-3.2
			c0-0.9-0.1-2-0.2-3.2c0-0.5,0.3-0.8,0.8-0.8c0.3,0,0.5,0,0.8,0.1c0.3,0.1,0.6,0.1,1.1,0.1h2.4V8.3c-1.5,0-2.5,0.1-3.2,0.3
			c-0.4,0.1-0.7,0.2-0.9,0.2c-0.5,0-0.8-0.3-0.9-0.8c0-0.3,0.2-0.5,0.4-0.8C667.9,7.1,668.3,7.1,668.7,7.1z M672.3,16.2l0-2
			c-1.2,0-2.3,0.1-3.2,0.1c-0.1,0-0.1,0-0.2,0c0,0.5-0.1,1-0.1,1.5c0,0.3,0.2,0.4,0.7,0.4C670.2,16.3,671.2,16.2,672.3,16.2z
			 M668.9,13.1c0.1,0,0.2,0,0.3,0h3.1v-1.8c-0.9,0-1.8,0-2.8,0c-0.4,0-0.6,0.2-0.6,0.6C668.9,12.2,668.9,12.6,668.9,13.1z
			 M673.7,14.2l0,2.1c0.9,0,1.9,0.1,2.9,0.1c0.3,0,0.4-0.1,0.4-0.3v-1.9c0,0-0.1,0-0.1,0C675.8,14.1,674.7,14.1,673.7,14.2z
			 M673.8,11.2V13h3.1c0.1,0,0.2,0,0.2,0v-1.4c0-0.2-0.1-0.3-0.2-0.3C676,11.3,675,11.2,673.8,11.2z M675.8,18.4c0,0,0.1,0,0.2,0.1
			c1,0.5,1.7,0.8,2.3,1c0.4,0.1,0.9,0.2,1.6,0.2c0.2,0,0.3,0.1,0.3,0.3c0,0.3-0.2,0.6-0.6,0.9c-0.7,0.4-1.2,0.6-1.6,0.6
			c-0.2,0-0.3-0.1-0.4-0.2c-0.3-0.2-0.9-1-1.9-2.4c-0.1-0.1-0.1-0.2-0.1-0.3C675.5,18.5,675.6,18.4,675.8,18.4z"/>
		<path class="st0" d="M705.3,16.9c-0.1,0.3-0.5,0.8-1.2,1.4c-0.7,0.6-1.2,0.9-1.6,0.9c-0.3,0-1-0.7-2.2-2c-1.1-1.4-2.7-2.7-4.7-4.1
			c-2.2,2.2-4.2,3.8-6.1,4.8c-1.5,0.8-2.5,1.2-3,1.2c-0.4,0-0.8-0.2-1.3-0.7c-0.5-0.5-0.7-0.9-0.7-1.2c0-0.2,0.3-0.3,0.8-0.4
			c4.7-0.8,8.8-3.5,12.1-7.9c0.4-0.6,0.7-1,1-1.3c0.4-0.7,0.7-1.1,0.8-1.3C699,6,698.3,6,697,6c-2.8,0-4.9,0.2-6.6,0.5
			c-0.8,0.2-1.4,0.3-1.7,0.3c-0.4,0-0.6-0.3-0.6-0.9c0-0.4,0.2-0.7,0.6-0.9c0.4-0.2,2-0.4,4.6-0.4h3.8c0.8,0,1.4,0,1.8,0.1
			c0.2-0.1,0.5-0.1,1-0.1c0.7,0,1,0.2,1,0.7c0,0.5-0.6,1.6-1.8,3.4c-1,1.4-1.8,2.5-2.5,3.4l4.6,2.9c1.2,0.8,2.1,1.2,2.8,1.4
			c0.2,0.1,0.5,0.1,0.8,0.1C705.1,16.7,705.3,16.8,705.3,16.9z"/>
		<path class="st0" d="M727.5,5.3c0,0.6-0.6,1.9-1.9,3.9c-1.1,1.8-2,3.1-2.7,3.9c1.1,0.8,2,1.3,2.9,1.6c0.2,0.1,0.4,0.2,0.7,0.4
			c0,0.3-0.4,0.7-1,1.2c-0.6,0.5-1.1,0.7-1.3,0.7c-0.3,0-0.7-0.4-1.3-1.1c-0.4-0.5-0.8-1-1.2-1.6c-1.3,1.2-2.7,2.4-4.4,3.6
			c-2.3,1.6-3.9,2.4-4.8,2.4c-0.4,0-0.9-0.2-1.5-0.6c-0.6-0.4-0.9-0.8-0.9-1.1c0-0.2,0.4-0.4,1.1-0.6c3.2-0.8,6.3-2.4,9.2-5
			c-0.6-0.5-1.2-1-1.8-1.4c-0.9-0.8-1.4-1.3-1.4-1.4c0-0.2,0.2-0.3,0.5-0.3c0.3,0,0.9,0.3,1.8,0.9c0.6,0.4,1.3,0.8,1.9,1.2
			c0.6-0.7,1.4-1.6,2.2-2.9c1-1.4,1.6-2.4,1.8-3c-0.2-0.2-1.3-0.3-3.2-0.3c-1,0-2.1,0.1-3.4,0.2c-0.7,0.9-1.5,1.8-2.5,2.7
			c-1.2,1.2-2.2,1.8-2.8,1.8c-0.3,0-0.8-0.2-1.3-0.5c-0.5-0.3-0.7-0.7-0.7-1c0-0.1,0.4-0.3,1.2-0.6c1.4-0.6,2.6-1.3,3.7-2.1
			c0.9-0.7,1.8-1.9,2.9-3.6c0.3-0.4,0.6-0.7,0.8-0.7c0.4,0,0.6,0.2,0.6,0.6c0,0.2-0.3,0.9-1,2c5-0.1,7.3-0.2,7-0.2
			C727.2,4.6,727.5,4.8,727.5,5.3z"/>
		<path class="st0" d="M750.4,3.6c0,0.6-0.8,1.6-2.4,3c-1.3,1.2-2.4,2-3.2,2.6c0,2.1,0,4.2,0,6c0,0.4,0,1.1,0.1,2.1
			c0.1,0.9,0.1,1.6,0.1,2.1c0,1-0.2,1.5-0.7,1.5c-0.8,0-1.1-0.5-1.1-1.5c0-4.4,0-7.5,0.1-9.4c-3.5,1.7-6.2,2.6-8.1,2.6
			c-0.5,0-1-0.2-1.5-0.7c-0.5-0.5-0.8-1-0.8-1.5c0-0.2,0.3-0.4,0.9-0.4c0.3,0,0.8,0,1.5,0c3.2-0.2,6-1,8.4-2.3
			c2.2-1.2,3.8-2.5,4.7-3.8c0.5-0.7,0.9-1.1,1.3-1.1C750.1,2.8,750.4,3.1,750.4,3.6z"/>
		<path class="st0" d="M762.1,6.2c0,1.6-0.2,3.3-0.6,5c-0.5,1.9-1.1,3.4-2,4.6c-0.8,1.1-1.4,1.8-1.9,2.2c-0.7,0.5-1.1,0.8-1.3,0.8
			c-0.3,0-0.7-0.2-1.4-0.7c-0.7-0.4-1-0.8-1-1c0-0.2,0.4-0.5,1.2-0.8c2.3-0.9,3.9-2.7,4.9-5.2c0.4-1.2,0.7-2.9,0.8-5.1
			c0.1-0.7,0.2-1,0.6-1C761.9,4.9,762.1,5.3,762.1,6.2z M775.7,10.9c0,0.2-0.7,1.1-2,2.6c-1,1.1-2.2,2.2-3.6,3.4
			c-1.8,1.5-3.2,2.2-4.1,2.2c-0.7,0-1.1-0.5-1.1-1.4c0-0.7,0-1.7,0.1-3.1c0.1-1.4,0.1-2.4,0.1-3c0-0.8,0-1.9-0.1-3.3
			c-0.1-1.5-0.1-2.6-0.1-3.3c0-0.8,0.4-1.2,1.2-1.2c0.3,0,0.5,0.1,0.6,0.4c0.1,0.2,0.2,0.5,0.2,0.8l-0.1,11.6c0.4,0,1.4-0.5,2.9-1.5
			c1.3-0.9,2.7-2,4.1-3.4c0.9-0.9,1.4-1.3,1.5-1.3C775.5,10.1,775.7,10.4,775.7,10.9z"/>
		<path class="st0" d="M785.7,15.2c0,0.5-0.3,1.5-1,3c-0.7,1.5-1.2,2.3-1.7,2.3c-0.9,0-1.5-1.1-1.9-3.4c-0.2-1.3-0.3-2.8-0.3-4.5
			c0-1.4,0.2-3.1,0.6-5.2c0.5-2.7,1-4.1,1.7-4.1c0.7,0,1,0.3,1.1,1c-0.1,0.2-0.5,1.3-1.1,3.2c-0.6,1.9-0.9,3.8-0.9,5.5
			c0,1.8,0.1,3.2,0.4,4.1c0.1,0.6,0.3,0.8,0.4,0.8c0.2,0,0.6-0.5,1.1-1.6c0.6-1.1,1-1.6,1.1-1.6C785.5,14.7,785.7,14.9,785.7,15.2z
			 M801.7,17.4c-0.1,0.4-0.4,0.8-0.9,1.4c-0.5,0.6-0.9,0.8-1.3,0.8c-0.2,0-0.8-0.3-1.7-1c-1-0.8-1.9-1.4-2.8-1.8c-0.5,2-1.7,3-3.8,3
			c-1,0-1.8-0.2-2.5-0.6c-0.9-0.5-1.3-1.1-1.3-2c0-1.7,1.5-2.6,4.5-2.6c0.4,0,1,0.1,1.7,0.2c0-1.5-0.1-3.7-0.1-6.6
			c-1.6,0-2.8,0.1-3.6,0.3c-0.1,0-0.4,0.1-0.9,0.2c-0.4,0.1-0.7,0.1-0.9,0.1c-0.4,0-0.6-0.3-0.6-0.8c0-0.2,0.1-0.5,0.3-0.7
			c0.2-0.2,2.1-0.4,5.7-0.4c-0.1-1.5-0.1-2.4-0.1-2.8c0-0.6,0.3-0.9,0.9-0.9c0.7,0,1,0.4,1,1.2V7c3.2,0,3.9,0,2.3-0.1
			c1.5,0.1,2.2,0.2,2.4,0.5c-0.3,1-0.7,1.5-1.2,1.5c-0.2,0-0.8-0.1-1.7-0.3c-0.9-0.2-1.5-0.3-1.8-0.4v1.9c0,0.4,0,1.2,0.1,2.5
			c0,1.1,0,1.9,0,2.6c0.2,0,1.2,0.4,2.9,1.1c1.2,0.4,2.2,0.7,3,0.8C801.5,17.2,801.6,17.3,801.7,17.4z M793.5,16.2
			c-1-0.3-1.9-0.4-2.7-0.4c-1.5,0-2.3,0.5-2.3,1.5c0,0.4,0.3,0.8,0.8,1c0.5,0.2,0.9,0.3,1.4,0.3C792.4,18.6,793.3,17.8,793.5,16.2z"
			/>
		<path class="st0" d="M821.1,7.9c0,1.2-0.4,2.1-1.2,2.9c-0.5,0.4-1.3,1-2.5,1.5c-1,0.5-1.7,0.9-1.9,1.3c-0.2,0.2-0.3,0.8-0.4,1.8
			c-0.1,0.7-0.4,1.1-0.8,1.1c-0.7,0-1-0.3-1-1c0-1,0.1-1.8,0.4-2.3c0.3-0.5,0.9-1,1.7-1.5c2.3-1.3,3.4-2.6,3.4-3.9
			c0-0.9-0.4-1.6-1.2-2.2C816.9,5.2,816,5,815.1,5c-1.4,0-2.7,0.4-3.7,1.1c-0.6,0.4-1.2,1.1-1.8,2c-0.5,0.7-0.8,1.1-1,1.1
			c-0.4,0-0.7-0.1-0.9-0.4c-0.2-0.3-0.3-0.7-0.3-1c0-0.4,0.3-0.9,0.8-1.5c1.7-1.8,4-2.7,7-2.7c1.5,0,2.9,0.3,4,1
			C820.4,5.4,821.1,6.5,821.1,7.9z M815.9,20c0,0.5-0.2,0.9-0.6,1.2c-0.4,0.3-0.8,0.5-1.3,0.5c-0.5,0-1-0.2-1.3-0.5
			c-0.3-0.3-0.4-0.7-0.4-1.2c0-1.1,0.6-1.6,1.8-1.6c0.5,0,0.9,0.1,1.3,0.4C815.7,19.1,815.9,19.5,815.9,20z"/>
	</g>
</g>
</svg>
