<?xml version="1.0" encoding="utf-8"?>
<!-- Generator: Adobe Illustrator 24.0.3, SVG Export Plug-In . SVG Version: 6.00 Build 0)  -->
<svg version="1.1" id="レイヤー_1" xmlns="http://www.w3.org/2000/svg" xmlns:xlink="http://www.w3.org/1999/xlink" x="0px"
	 y="0px" viewBox="0 0 102.1 102.1" style="enable-background:new 0 0 102.1 102.1;" xml:space="preserve">
<style type="text/css">
	.st0{fill:#498C43;}
	.st1{fill:#F4EEE9;}
	.st2{fill:#503819;}
</style>
<g>
	<circle class="st0" cx="51" cy="51" r="51"/>
	<circle class="st1" cx="51" cy="51" r="44.7"/>
	<g>
		<g>
			<path class="st2" d="M32.8,42.3c1,0,2.1,0.1,3.2,0.2c0.2,0,0.5,0,0.9-0.1c0.5,0,0.8,0.2,0.8,0.7c0,0.1-0.1,0.3-0.4,0.5
				c-0.5,0.6-1,1.1-1.5,1.7c-0.8,1-1.8,1.9-2.9,2.9c-1.1,0.9-2.2,1.7-3.3,2.2c-0.4,0.2-0.7,0.4-1,0.4c-0.4,0-0.8-0.2-1.3-0.7
				c-0.3-0.3-0.4-0.6-0.4-1c0-0.3,0.2-0.4,0.4-0.4c1.6-0.2,3.1-0.7,4.5-1.7c0.1-0.1,0.2-0.1,0.3-0.2c0,0-0.1,0-0.1-0.1
				c-0.7-0.4-1.2-0.7-1.6-0.8c-0.3-0.1-0.5-0.2-0.5-0.4c0-0.6,0.3-0.8,0.9-0.8c0.1,0,0.5,0.2,1.1,0.6c0.5,0.3,0.8,0.6,0.9,0.8
				c0.7-0.6,1.4-1.3,2.1-2c0.3-0.2,0.4-0.3,0.4-0.4c0-0.1-0.1-0.2-0.3-0.2c-0.8,0-1.9,0.1-3,0.3c-0.4,0-0.6-0.2-0.6-0.6
				c0-0.3,0.1-0.5,0.3-0.7C32.1,42.4,32.4,42.3,32.8,42.3z M34.4,48.2h9.4c0.2,0,0.4,0.1,0.4,0.3c0,0.3-0.1,0.6-0.3,0.9
				c-0.2,0.2-0.6,0.4-0.9,0.4c-0.2,0-0.7-0.1-1.6-0.2c0,0.1,0.1,0.2,0.1,0.3c0,0.9,0,1.9,0,3h4.7c0.2,0,0.4,0.1,0.4,0.3
				c0,0.3-0.1,0.6-0.3,0.9c-0.2,0.2-0.5,0.4-0.9,0.4c-0.3,0-1.2-0.1-2.6-0.2c-0.4,0-0.9,0-1.3-0.1c0,1,0,2.1-0.1,3.2
				c0,0.2,0.1,0.3,0.2,0.3c0.3,0,0.9,0.1,2,0.1c1.7,0,3.2-0.2,4.5-0.5c0.2,0,0.3,0.2,0.3,0.5c0,0.5-0.2,1-0.5,1.5
				c-0.3,0.6-0.7,0.9-1,0.9c-0.3,0-2.3-0.3-6.2-0.8c-0.6-0.1-0.9-0.4-0.9-0.9c0.1-1.8,0.1-3.3,0.1-4.4c-0.6,0-1.2,0-1.8,0
				c-0.5,0-0.9,0-1.4,0c-0.1,0.6-0.3,1.2-0.5,1.7c-0.6,1.3-1.2,2.3-2.1,3c-1.1,1-2,1.5-2.9,1.5c-0.3,0-0.6-0.1-0.8-0.4
				c-0.4-0.4-0.6-0.8-0.6-1.1c0-0.2,0.2-0.3,0.5-0.4c1-0.2,1.7-0.4,2.3-0.7c1-0.4,1.8-1.4,2.4-2.8c0.1-0.2,0.2-0.4,0.2-0.6
				c-1.2,0-2.1,0.1-2.8,0.2c-0.7,0.2-1.1,0.2-1.3,0.2c-0.6,0-0.9-0.3-0.9-0.8c0-0.2,0.2-0.5,0.4-0.7c0.2-0.1,0.6-0.2,1-0.2h3.8
				c0.1-0.7,0.2-1.4,0.2-2.1v-1.1c0-0.1,0-0.1,0-0.1c-0.4,0-0.7,0.1-1,0.1c-0.4,0.1-0.7,0.2-0.8,0.2c-0.5,0-0.8-0.3-0.8-0.7
				c0-0.2,0.2-0.5,0.4-0.7C33.7,48.3,34,48.2,34.4,48.2z M39.9,52.8c0-1-0.1-2.1-0.1-3.2c0-0.1,0-0.1,0-0.2c-0.5,0-0.9,0-1.4,0
				c-0.5,0-0.9,0-1.2,0c0,0.1,0.1,0.2,0.1,0.3c-0.1,0.7-0.2,1.5-0.3,2.4c0,0.2,0,0.5-0.1,0.7H39.9z M43.7,42c0.4,0,0.6,0.3,0.6,0.8
				c0,0.3-0.1,0.5-0.4,0.6l-1.6,1c0.5,0.5,1,0.8,1.5,1.2c0,0,0-0.1,0.1-0.1l1.8-1.5c0.2-0.2,0.4-0.2,0.5-0.2c0.4,0,0.6,0.3,0.6,0.8
				c0,0.3-0.1,0.5-0.4,0.6l-1.9,1c1.6,1.2,2.6,1.9,3.1,2.2c0.6,0.2,1.2,0.3,2,0.4c0.3,0,0.5,0.1,0.5,0.4c0,0.4-0.3,0.7-0.9,1.1
				c-0.6,0.4-1.1,0.5-1.8,0.5c-0.4,0-0.8-0.1-1.1-0.4c-1.4-1.7-3-3.4-4.9-5.1c-0.8-0.7-1.5-1.2-2.1-1.6c-0.3-0.2-0.5-0.4-0.5-0.7
				c0-0.4,0.2-0.6,0.7-0.6c0.3,0,0.7,0.3,1.2,0.9c0.2,0.2,0.5,0.4,0.7,0.5c0,0,0-0.1,0.1-0.1l1.6-1.6C43.4,42.1,43.6,42,43.7,42z"/>
			<path class="st2" d="M58.5,42.4c0.2,0,0.5,0,0.7,0.1c0.3,0.1,0.6,0.1,1.1,0.1H64c0.8,0,1.8,0,3,0.1c0.2,0,0.5-0.1,0.9-0.2
				c0.5,0,0.7,0.3,0.7,0.8c0,0,0,0.1-0.1,0.3c-0.1,0.3-0.1,0.9-0.2,1.7c-0.1,1.1-0.1,2.3-0.1,3.5c0,0.9,0,2.1,0.1,3.6
				c0,0.6-0.2,0.8-0.7,0.8c-0.8-0.1-1.6-0.1-2.3-0.2c0,0,0,0,0,0.1c0,1-0.1,2.3-0.2,3.8c0,0.3,0.1,0.5,0.4,0.6
				c0.6,0.1,2,0.1,4.2,0.1c1.6,0,3-0.2,4.3-0.7c0.2,0,0.3,0.2,0.3,0.5c0,0.5-0.1,1-0.4,1.6c-0.3,0.6-0.7,1-1,1c-0.3,0-3-0.3-8.1-0.9
				c-0.8-0.1-1.2-0.5-1.2-1.1c0.1-1.3,0.2-2.3,0.2-2.9c0-0.7,0-1.4-0.1-2.1c-0.3,0-0.6,0-0.9,0c-0.3,0-0.5,0-0.7,0c0,0,0,0.1,0,0.1
				c0,0-0.1,0.1-0.1,0.2c-0.5,1-1.3,2.1-2.4,3.4c-1.2,1.1-2.4,2-3.7,2.6c-0.9,0.4-1.6,0.6-2.2,0.6c-0.3,0-0.6-0.1-0.9-0.4
				c-0.4-0.4-0.6-0.7-0.6-1.1c0-0.3,0.3-0.4,0.9-0.5c1.6-0.2,3.2-0.7,4.6-1.6c1.3-0.9,2.3-2,3-3.4c-0.4,0-0.7,0-0.9,0.1
				c-0.4,0-0.8,0.1-1.4,0.2c-0.5,0-0.7-0.2-0.7-0.7c0.1-1.7,0.2-3.2,0.2-4.5c0-1.4-0.1-3-0.2-4.9C57.8,42.6,58,42.4,58.5,42.4z
				 M63,51.8c1.1,0,2.3,0,3.6,0.1c0.3,0,0.4-0.1,0.4-0.3v-1.9c-3.2,0-5.7,0.1-7.5,0.2c0,0-0.1,0-0.1,0c0,0.6,0,1.1-0.1,1.6
				c0,0.3,0.2,0.4,0.6,0.4C60.8,51.9,61.8,51.8,63,51.8z M59.4,48.7c0.1,0,0.1,0,0.2,0h7.3c0,0,0.1,0,0.1,0v-1.9
				c-3.2,0-5.7,0.1-7.5,0.2h0C59.5,47.6,59.4,48.1,59.4,48.7z M59.5,45.7c0,0,0.1,0,0.1,0H67v-1.6c0-0.2-0.1-0.3-0.2-0.3
				c-1.6-0.1-3.8-0.1-6.8-0.1c-0.3,0-0.5,0.2-0.5,0.5C59.5,44.7,59.5,45.2,59.5,45.7z"/>
		</g>
	</g>
</g>
</svg>
