<?xml version="1.0" encoding="utf-8"?>
<!-- Generator: Adobe Illustrator 24.0.3, SVG Export Plug-In . SVG Version: 6.00 Build 0)  -->
<svg version="1.1" id="レイヤー_1" xmlns="http://www.w3.org/2000/svg" xmlns:xlink="http://www.w3.org/1999/xlink" x="0px"
	 y="0px" viewBox="0 0 194.1 181.7" style="enable-background:new 0 0 194.1 181.7;" xml:space="preserve">
<style type="text/css">
	.st0{fill:#7AB2BF;stroke:#3C4451;stroke-width:3;stroke-linejoin:round;stroke-miterlimit:10;}
	.st1{fill:#78B436;stroke:#503819;stroke-width:3;stroke-linejoin:round;stroke-miterlimit:10;}
	.st2{fill:#498C43;stroke:#503819;stroke-width:3;stroke-linecap:round;stroke-linejoin:round;stroke-miterlimit:10;}
	.st3{fill:#503819;}
	.st4{fill:none;stroke:#503819;stroke-width:10;stroke-linecap:round;stroke-miterlimit:10;}
	.st5{fill:none;stroke:#503819;stroke-width:9;stroke-linecap:round;stroke-miterlimit:10;}
</style>
<g>
	<g>
		<g>
			<g>
				<path class="st0" d="M95.2,50.5c1.6-1.5,3-3.2,4.1-5.1l7.6,1l2.7-9.8l-6.8-3.1c0.1-2.3-0.2-4.6-0.7-6.8l5.8-4.5l-5-8.9l-6.8,2.6
					c-1.6-1.7-3.5-3.2-5.5-4.4l0.9-7.1l-9.8-2.8L78.8,8c-2.4-0.1-4.8,0.2-7.1,0.8l-4.4-5.6l-8.9,5l2.6,6.7c-1.7,1.6-3.1,3.5-4.3,5.6
					l-7.2-0.9l-2.7,9.8l6.8,3c0,2.3,0.3,4.6,0.9,6.8l-5.9,4.6l5,8.9l7.1-2.7c1.5,1.6,3.3,2.9,5.2,4l-1,7.6l9.8,2.8l3.2-7.1
					c2.2,0,4.4-0.2,6.5-0.8l4.7,6.2l8.9-5L95.2,50.5z M70,41.9c-5.2-4.6-5.6-12.5-1-17.7c4.6-5.2,12.5-5.6,17.7-1
					c5.2,4.6,5.6,12.5,1,17.7C83.1,46.1,75.2,46.5,70,41.9z"/>
				<path class="st1" d="M141.4,36.5c-1.6-0.5-3.3-0.9-5-1l-2-5.5l-7.8,1.6l0.3,5.8c-1.6,0.8-3.1,1.8-4.4,2.9l-5.2-2.4l-4.3,6.6
					l4.2,3.7c-0.6,1.7-1,3.5-1.1,5.4l-5.2,1.9l1.6,7.7L118,63c0.8,1.7,1.9,3.2,3.1,4.6l-2.3,5l6.6,4.3l3.7-4.2
					c1.7,0.6,3.5,0.9,5.4,1l1.9,5.3l7.8-1.6l-0.3-5.7c1.6-0.8,3.1-1.8,4.3-3l5.3,2.4l4.3-6.6l-4.4-3.9c0.5-1.6,0.8-3.3,0.9-5
					l5.6-2.1l-1.6-7.7l-6,0.4c-0.8-1.5-1.7-2.9-2.8-4.2l2.5-5.5l-6.6-4.3L141.4,36.5z M144.6,56.9c-1.3,5.2-6.6,8.4-11.8,7.1
					c-5.2-1.3-8.4-6.6-7-11.8c1.3-5.2,6.6-8.4,11.8-7.1C142.8,46.4,145.9,51.7,144.6,56.9z"/>
				<path class="st2" d="M128.3,108.2c0.2-3,0.1-6-0.5-9l8.6-5.9l-6.2-12.5l-9.8,3.2c-2.1-2.4-4.4-4.5-7-6.2l1.8-9.9L102,63.3
					l-4.5,8.8c-3.2-0.3-6.5-0.1-9.7,0.6l-5.6-8.1l-12.6,6.2l3,9.2c-2.5,2.2-4.7,4.6-6.5,7.4l-9.6-1.7l-4.5,13.2l8.8,4.5
					c-0.2,3.2,0,6.4,0.7,9.6l-8.2,5.6l6.2,12.5l9.6-3.1c2.1,2.4,4.5,4.4,7.1,6.1L74.5,144l13.3,4.5l4.8-9.3c3,0.2,6,0,9-0.7l6,8.6
					l12.6-6.2l-3.3-10.1c2.3-2,4.2-4.2,5.9-6.7l10.5,1.9l4.5-13.2L128.3,108.2z M94.8,122.6c-9.5,0-17.2-7.6-17.3-17
					c-0.1-9.5,7.6-17.2,17.1-17.2c9.5,0,17.2,7.6,17.3,17C112,114.8,104.3,122.5,94.8,122.6z"/>
			</g>
		</g>
		<g>
			<g>
				<g>
					<path class="st3" d="M40.6,84.6C50.7,85,59,77,58.4,67.3C58,58.9,51,52.1,42.3,51.7C32.2,51.2,24,59.2,24.5,69
						C24.9,77.4,31.9,84.1,40.6,84.6z"/>
				</g>
			</g>
			<path class="st3" d="M37.6,134.4l-12.9-1.5c-4.3-0.5-7.3-4.3-6.7-8.5l4.7-32.8c0.6-4.2,4.6-7.2,8.9-6.7h0
				C43,86.2,51,96.3,49.4,107.4l-2.9,20.3C45.9,131.9,41.9,134.9,37.6,134.4z"/>
			<polyline class="st4" points="37.2,129 54.4,143.2 57.6,172.4 			"/>
			<polyline class="st4" points="24.7,126.6 19.5,145.1 5,174.1 			"/>
			<polyline class="st4" points="37.3,98.2 57,111.5 72.8,109.8 			"/>
		</g>
		<g>
			<g>
				<g>
					<path class="st3" d="M176.2,95.2c10.1,0.5,18.4-7.5,17.9-17.3c-0.4-8.4-7.5-15.1-16.1-15.6c-10.1-0.5-18.4,7.5-17.9,17.3
						C160.5,88,167.5,94.8,176.2,95.2z"/>
				</g>
			</g>
			<path class="st3" d="M148,137.7l-12-4.9c-4-1.7-5.9-6.1-4.2-10l13.4-30.4c1.7-3.9,6.4-5.7,10.4-4l0,0
				c10.6,4.4,15.6,16.3,11.1,26.6l-8.3,18.8C156.7,137.6,152,139.4,148,137.7z"/>
			<polyline class="st5" points="149.2,130.8 166.7,146.8 162.8,176.7 			"/>
			<polyline class="st4" points="136.3,128.3 135.5,148.5 123.5,176.7 			"/>
			<polyline class="st4" points="151.9,95.2 137.8,97.8 115.6,111.5 			"/>
		</g>
	</g>
</g>
</svg>
