<?xml version="1.0" encoding="utf-8"?>
<!-- Generator: Adobe Illustrator 24.0.3, SVG Export Plug-In . SVG Version: 6.00 Build 0)  -->
<svg version="1.1" id="レイヤー_1" xmlns="http://www.w3.org/2000/svg" xmlns:xlink="http://www.w3.org/1999/xlink" x="0px"
	 y="0px" viewBox="0 0 391.3 77.2" style="enable-background:new 0 0 391.3 77.2;" xml:space="preserve">
<style type="text/css">
	.st0{fill:#503819;}
</style>
<g>
	<path class="st0" d="M16,0.6c4.3,0,7.2,0.1,8.6,0.2l0.7-0.1c0.4,0,0.6,0.2,0.6,0.6c0,0.2-0.2,0.5-0.6,0.7c-1.1,0.8-2.4,1.8-4,3.2
		c-0.2,0.2-0.3,0.3-0.5,0.4c0.2,0.4,0.4,0.7,0.5,1.2c0.1,0.2,0.2,0.4,0.2,0.6c1.1,0,2.4,0.1,3.8,0.1c1.5,0.1,2.7,0.1,3.7,0.1
		c0.5,0,1.1-0.1,1.8-0.2c0.1,0,0.2,0.2,0.2,0.5c0,0.5-0.2,1-0.6,1.6c-0.3,0.4-0.5,0.6-0.7,0.6c-0.4,0-1-0.1-1.6-0.4
		c-1-0.4-2.2-0.7-3.4-0.8c-0.9-0.1-1.9-0.2-2.9-0.2C22,9.4,22,10.1,22,11c0,1.6-0.2,2.7-0.5,3.5c-0.4,0.8-0.9,1.4-1.6,1.8
		c-0.6,0.3-1.2,0.5-1.8,0.5c-0.4,0-0.8-0.1-1-0.4c-0.3-0.3-0.4-0.6-0.4-1c0-0.2,0.2-0.4,0.5-0.4c1.2,0,2-0.2,2.4-0.6
		c0.4-0.3,0.7-0.8,0.8-1.3c0.2-0.6,0.3-1.3,0.3-2.2c0-0.9,0-1.7-0.1-2.4c0,0-0.1,0-0.1,0c-1.7,0-3.4,0.1-5,0.3
		c-1,0.1-2.5,0.5-4.4,1.3c-0.6,0-0.8-0.2-0.8-0.7c0-0.3,0.1-0.5,0.4-0.7c0.3-0.3,0.7-0.5,1.2-0.5c3.8-0.6,6.7-0.9,8.8-1
		c0-0.1-0.1-0.2-0.1-0.3C20,6.3,19.6,5.6,19,4.9c-0.1-0.1-0.2-0.3-0.2-0.4c0-0.4,0.2-0.6,0.5-0.6c0.1,0,0.3,0.2,0.6,0.5
		c0.2,0.1,0.3,0.3,0.5,0.4c0,0,0.1-0.1,0.2-0.1L23.5,2c0-0.2-0.1-0.3-0.4-0.3c-2.7,0-5.2,0.1-7.6,0.3c-0.5,0-0.8-0.2-0.8-0.5
		c0-0.2,0.1-0.5,0.4-0.6C15.4,0.6,15.7,0.6,16,0.6z"/>
	<path class="st0" d="M39.9,0c0.4,0,0.6,0.2,0.6,0.5c0,0.2-0.1,0.4-0.2,0.7C39.6,2,38.8,2.7,38,3.5c0.1,0.2,0.1,0.4,0.1,0.6
		C38.1,5.5,38,6.7,38,7.8l0.1,7.5c0,1-0.3,1.5-0.8,1.5c-0.4,0-0.6-0.5-0.6-1.5c0.1-3.2,0.1-5.7,0.1-7.5c0-1,0-2-0.1-3.2
		c-0.2,0.1-0.4,0.2-0.5,0.4c-0.6,0.4-1.1,0.7-1.6,0.7c-0.3,0-0.7-0.1-1.1-0.4C33.2,4.9,33,4.6,33,4.3c0-0.2,0.2-0.4,0.5-0.4
		c1.2-0.3,2.2-0.7,3.2-1.3c1-0.6,2-1.4,2.9-2.4C39.7,0.1,39.8,0,39.9,0z M41.8,4.7h2l-0.1-3.2c0-0.5,0.2-0.7,0.7-0.7
		c0.6,0,0.8,0.2,0.8,0.7l0,3.2h3.4l-0.1-3.2c0-0.5,0.2-0.7,0.7-0.7c0.6,0,0.9,0.2,0.9,0.7l-0.1,3.2h2.6c0.2,0,0.4,0.1,0.4,0.3
		c0,0.3-0.1,0.6-0.3,0.8c-0.2,0.2-0.5,0.3-0.8,0.3c-0.3,0-0.9-0.1-1.9-0.2L50,9.7c0.3,0,0.5,0,0.7,0.1c1.1,0.1,2.1,0.2,3,0.2
		c0.4,0,0.8,0,1.1-0.1c0.1,0,0.1,0.1,0.1,0.3c0,0.4-0.1,0.9-0.4,1.3c-0.3,0.5-0.5,0.7-0.8,0.7c-0.3,0-0.6-0.1-0.9-0.3
		c-1.1-0.5-2.2-0.9-3.2-1.1c-0.8-0.1-1.7-0.2-2.8-0.2c-1.3,0-2.5,0.1-3.5,0.3c-1,0.2-2,0.6-3,1c-0.3,0.1-0.5,0.2-0.7,0.2
		c-0.5,0-0.7-0.3-0.7-0.8c0-0.3,0.1-0.5,0.4-0.7c0.2-0.2,0.5-0.3,0.8-0.4c1.4-0.2,2.7-0.4,3.7-0.5l-0.1-3.8c-0.6,0-1.1,0.1-1.5,0.1
		c-0.5,0.1-0.8,0.2-1,0.2c-0.4,0-0.7-0.3-0.7-0.7c0-0.2,0.1-0.4,0.4-0.6C41.2,4.7,41.5,4.7,41.8,4.7z M41.3,14.2
		c0.4,0.1,0.7,0.1,0.8,0.1c0.7,0,1.6-0.4,2.6-1.1c0.2,0,0.3,0.1,0.3,0.3c0,0.3-0.4,0.8-1.1,1.6c-0.7,0.8-1.3,1.2-1.8,1.2
		c-0.3,0-0.5-0.2-0.7-0.5c-0.2-0.4-0.4-0.8-0.4-1.2C41.1,14.3,41.2,14.2,41.3,14.2z M45.2,9.6c0.7-0.1,1.3-0.1,1.8-0.1
		c0.6,0,1.1,0,1.8,0.1l-0.1-3.7c-0.7,0-1.4,0-2.1,0c-0.5,0-0.9,0-1.3,0L45.2,9.6z M49,13.1c0,0,0.1,0,0.1,0c0.8,0.5,1.5,0.9,2,1
		c0.3,0.1,0.8,0.2,1.3,0.2c0.2,0,0.3,0.1,0.3,0.3c0,0.3-0.2,0.6-0.5,0.9c-0.7,0.4-1.2,0.6-1.5,0.6c-0.1,0-0.3-0.1-0.4-0.2
		c-0.2-0.2-0.7-1-1.5-2.3c-0.1-0.1-0.1-0.2-0.1-0.3C48.8,13.2,48.9,13.1,49,13.1z"/>
	<path class="st0" d="M69.4,3.5c0,0.2-0.1,0.4-0.3,0.7c-0.2,0.3-0.3,0.5-0.5,0.5c-1.1-0.2-2-0.3-2.8-0.3c-0.1,0-0.3,0-0.5,0
		c-0.2,0-0.4,0-0.5,0c-0.4,1.7-0.8,3.3-1.4,4.7c-1.6,4.1-2.9,6.1-3.8,6.1c-0.3,0-0.6-0.1-1-0.2c-0.5-0.2-0.7-0.4-0.7-0.6
		c0-0.1,0.3-0.5,1-1.2c1.1-1.1,2.1-2.5,3-4.1c0.9-1.6,1.5-3.2,1.8-4.6c-1.5,0.1-2.9,0.3-4.1,0.7C59.2,5.2,59,5,59,4.7
		c0-0.3,0.1-0.5,0.2-0.7c0.1-0.2,0.9-0.3,2.2-0.5c0.8-0.1,1.6-0.2,2.4-0.2C64,2.7,64.1,2,64.1,1.2c0-0.6,0.3-0.9,0.7-0.9
		c0.4,0,0.7,0.2,0.7,0.6c0,0.2-0.1,1-0.4,2.3c2.1-0.1,3.4-0.2,3.7-0.2S69.4,3.3,69.4,3.5z M75.8,13.1c0,0.4-0.1,0.8-0.4,1.4
		c-0.3,0.5-0.8,0.9-1.5,1.1c-0.4,0.1-1,0.1-1.9,0.1c-4.1,0-6.1-1-6.1-3c0-0.3,0.1-0.6,0.2-0.9c0.1-0.4,0.3-0.6,0.6-0.6
		c0.3,0,0.4,0.1,0.4,0.4c0,0.1,0,0.3-0.1,0.5c0,0.2-0.1,0.4-0.1,0.5c0,0.9,0.8,1.4,2.3,1.4c2.4,0,4.4-0.4,5.8-1.1
		c0.4-0.2,0.6-0.3,0.6-0.3C75.8,12.7,75.8,12.8,75.8,13.1z M73.6,6.8C73.5,7,73,7.5,72.1,8.2c-0.9,0.7-1.6,1.1-1.9,1.2
		c-0.1,0-0.2-0.1-0.2-0.3c0-0.2,0.2-0.5,0.6-0.9c0.3-0.2,0.6-0.5,0.8-0.8c-0.1,0-0.3,0-0.6,0c-1.1,0-2,0.1-2.7,0.2
		c-0.9,0.2-1.3,0.3-1.3,0.3c-0.3,0-0.5-0.1-0.5-0.4c0-0.3,0.1-0.5,0.3-0.7c0.4-0.4,1.9-0.6,4.6-0.6H72C73,6.2,73.5,6.4,73.6,6.8z"/>
	<path class="st0" d="M96.9,4.3c0,0.2-0.2,0.6-0.6,1.1c-0.4,0.5-0.7,0.7-1,0.7l-1.2-0.4c-1.8-0.6-3.8-0.8-6-0.8c-0.1,0-0.2,0-0.3,0
		c-0.2,0-0.3,0-0.4,0c-0.4,1.7-0.9,3.2-1.6,4.3c1.4-0.7,2.9-1,4.7-1c1.2,0,2.2,0.2,3.1,0.7c1.1,0.5,1.7,1.3,1.7,2.4
		c0,1.7-1,3-3.1,3.8c-1.5,0.6-3.2,0.9-5.2,0.9c-0.6,0-1.1-0.2-1.5-0.5c-0.5-0.4-0.8-0.8-0.8-1.3c0-0.2,0.1-0.3,0.3-0.3
		c0.4,0,0.9,0.1,1.6,0.2c0.7,0.1,1.2,0.1,1.6,0.1c1.4,0,2.6-0.2,3.6-0.6c1.4-0.6,2.2-1.4,2.2-2.5c0-0.7-0.5-1.3-1.4-1.6
		c-0.7-0.2-1.4-0.3-2.3-0.3c-1,0-2,0.2-3,0.7c-0.6,0.3-1.4,0.7-2.2,1.2c-0.7,0.5-1.1,0.7-1.2,0.7c-0.2,0-0.3-0.1-0.5-0.3
		c-0.1-0.2-0.2-0.3-0.2-0.5c0-0.2,0.1-0.3,0.3-0.6c1.3-1.6,2.2-3.4,2.7-5.2c-1.8,0.2-3.4,0.5-4.7,1c-0.6,0.2-0.9,0.3-1,0.3
		c-0.4,0-0.6-0.2-0.6-0.5c0-0.4,0.1-0.7,0.3-0.9c0.2-0.3,0.5-0.4,0.9-0.5c0.8-0.1,2.6-0.4,5.4-0.6c0.1-0.9,0.2-1.7,0.2-2.4
		c0-0.6,0.2-0.9,0.6-0.9c0.5,0,0.8,0.4,0.8,1.1c0,0.5-0.1,1.2-0.3,2.2c2.1,0,3.9,0,5.5,0.1c1.9,0.1,2.7,0.2,2.5,0.2
		c1.3,0,1.6,0,0.8,0C96.7,4.1,96.9,4.1,96.9,4.3z"/>
	<path class="st0" d="M118.4,7c0,1.2-0.5,2.1-1.6,2.9c-0.9,0.7-2,1-3.2,1c-0.8,0-1.4-0.2-1.8-0.6c-0.4-0.5-0.6-0.9-0.6-1.3
		c0-0.2,0-0.3,0.1-0.3c0.2,0,0.6,0.1,1.2,0.2c0.5,0.1,1,0.2,1.3,0.2c0.7,0,1.4-0.2,2.1-0.6c0.8-0.4,1.2-1,1.2-1.6
		c0-0.6-0.2-1.1-0.7-1.5c-0.4-0.3-1-0.5-1.6-0.5c-1.6,0-3.9,0.5-6.8,1.4c0.4,2.4,1,4.4,1.9,6c0.6,1.2,1.3,2.1,2,2.7
		c0.2,0.1,0.4,0.3,0.6,0.6c0,0.2-0.3,0.4-0.8,0.7c-0.5,0.2-0.9,0.3-1.2,0.3c-0.7,0-1.5-1.5-2.4-4.4c-0.6-2.1-1.1-3.9-1.3-5.5
		c-0.8,0.3-2.1,0.8-3.7,1.4l-1.3,0.6c-0.5,0-0.8-0.3-0.8-0.9c0-0.4,0.8-0.9,2.5-1.4c0.3-0.1,1.4-0.4,3.2-0.9
		c-0.2-1.8-0.3-3.2-0.3-4.2c0-0.5,0.3-0.7,0.8-0.7c0.3,0,0.5,0.2,0.6,0.7c0,0.3,0,0.7,0,1.3c0,1,0.1,1.9,0.2,2.7
		c3-0.8,5.2-1.2,6.6-1.2c1.1,0,2,0.2,2.7,0.7C117.9,5.2,118.4,6,118.4,7z M113.6,0.6c0,0.3-0.4,0.8-1.1,1.6
		c-0.8,0.8-1.3,1.1-1.5,1.1c-0.3,0-0.6-0.2-1-0.6c-0.4-0.4-0.6-0.7-0.6-0.9c0-0.1,0.4-0.2,1.1-0.3c0.5,0,1.1-0.3,1.8-0.6
		c0.7-0.4,1-0.6,1-0.6C113.5,0.3,113.6,0.4,113.6,0.6z"/>
	<path class="st0" d="M136.6,2.8c0,0.5-0.4,1.7-1.1,3.4c-1.5,3.6-4,6.5-7.3,8.4c-1.6,0.9-2.6,1.4-3.2,1.4c-0.3,0-0.7-0.2-1.3-0.6
		c-0.6-0.4-0.9-0.7-0.9-1c0-0.2,0.4-0.3,1.2-0.6c1.2-0.4,2.3-0.7,3.2-1.1c1.4-0.6,2.7-1.5,4.1-2.7c1.3-1.2,2.3-2.5,3-3.8
		c0.7-1.3,1-2.2,1.1-2.7c-0.1-0.1-0.9-0.1-2.2-0.1h-1.6c-1.5,0-2.9,0.1-4.2,0.3c-1.6,0.3-2.5,0.4-2.7,0.4c-0.4,0-0.6-0.3-0.6-0.8
		c0-0.3,0.1-0.6,0.3-0.7c0.3-0.3,1.9-0.5,4.7-0.5c0.7,0,1.6,0,2.9,0c1.3,0,2.3,0,3,0c0.1,0,0.4,0,0.6,0s0.5,0,0.7,0
		C136.4,2.1,136.6,2.3,136.6,2.8z"/>
	<path class="st0" d="M150,8.6c0,0.7-0.3,1.7-1,3c-0.5,1.1-1.4,2.1-2.5,3c-1.2,0.9-2.1,1.4-2.7,1.4c-0.3,0-0.6-0.2-1-0.5
		c-0.4-0.3-0.6-0.6-0.6-0.9c0-0.1,0.2-0.2,0.6-0.3c2-0.3,3.6-1.2,4.8-2.7c0.8-1,1.2-2,1.2-3c0-0.5,0.2-0.8,0.6-0.8
		C149.8,7.8,150,8.1,150,8.6z M155.8,5.8c-0.1,0.5-0.6,1.2-1.6,2.2c-1,0.9-1.7,1.4-2.3,1.6c-0.2,0-0.3-0.1-0.3-0.3
		c0,0,0.3-0.5,1-1.3c0.7-0.8,1.1-1.4,1.2-1.8c-0.3-0.1-1.2-0.2-2.7-0.2c-1.7,0-3.3,0.2-5,0.5c0,0-0.3,0.1-0.8,0.2
		C144.9,7,144.6,7,144.5,7c-0.4,0-0.6-0.2-0.6-0.7c0-0.3,0.1-0.6,0.4-0.7c0.2-0.2,1.7-0.3,4.4-0.3h5.7c0-0.1,0.3-0.1,0.6-0.1
		C155.4,5.2,155.7,5.4,155.8,5.8z"/>
	<path class="st0" d="M175.5,13.9c0,0.2-0.3,0.7-1,1.2c-0.7,0.6-1.1,0.9-1.4,0.9c-0.3,0-0.9-0.3-1.8-0.9c-0.8-0.5-1.9-1-3.1-1.4
		c-1.2-0.4-2.4-0.6-3.4-0.6c-0.3,0-0.8,0-1.5,0.1c-0.6,0.1-1.1,0.1-1.4,0.1c-0.4,0-0.6-0.3-0.6-0.8c0-0.3,0.2-0.6,0.5-0.7
		c0.3-0.1,0.6-0.2,0.9-0.2c2.6,0,5.5,0.5,8.8,1.4c1.4,0.4,2.4,0.6,3,0.6C175.1,13.7,175.5,13.8,175.5,13.9z M173.4,3.4
		c0,0.2-0.1,0.4-0.2,0.6c-0.2,0.2-0.3,0.3-0.5,0.3c-0.1,0-0.7-0.2-1.8-0.5c-1.2-0.4-1.9-0.6-2.2-0.7c-1.4-0.3-2.9-0.6-4.4-0.8
		c-0.5-0.1-0.8-0.3-0.8-0.7c0-0.2,0.1-0.4,0.4-0.6c0.2-0.1,0.5-0.2,0.7-0.2c0.8,0,2.4,0.3,4.8,0.8C172.1,2.4,173.4,2.9,173.4,3.4z
		 M172,8.4c0,0.5-0.3,0.8-0.8,0.8c-0.2,0-0.7-0.2-1.6-0.5c-0.9-0.3-2.1-0.6-3.7-0.8c-1.3-0.2-1.9-0.4-1.9-0.8c0-0.5,0.3-0.8,0.9-0.8
		c1,0,2.3,0.2,4,0.5C170.9,7.3,172,7.8,172,8.4z"/>
	<path class="st0" d="M193.4,2.4c0,1-0.1,2.8-0.3,5.1c-0.3,3.1-1.6,5.4-4,7.1c-1.6,1.1-2.9,1.6-3.9,1.6c-0.3,0-0.7-0.2-1.4-0.6
		c-0.6-0.4-0.9-0.8-0.9-1c0-0.2,0.6-0.3,1.8-0.5c2-0.3,3.7-1.1,5-2.4c1.3-1.2,2-3.4,2-6.5c0-0.4,0-0.9-0.1-1.7c0-0.8,0-1.3,0-1.7
		c0-0.5,0.3-0.7,0.8-0.7C193,1.1,193.4,1.5,193.4,2.4z M184.9,8.4c0,0.5-0.2,0.8-0.7,0.8c-0.6,0-0.9-0.4-0.9-1.2V2.3
		c0-0.7,0.3-1,0.8-1c0.5,0,0.7,0.6,0.7,1.7c0,0.2,0,0.5,0,0.8c0,0.3,0,0.5,0,0.6c0,0.5,0,1.1,0.1,2C184.9,7.3,184.9,7.9,184.9,8.4z"
		/>
	<path class="st0" d="M218.7,8c0,0.2-0.3,0.6-1,1.2s-1.1,0.8-1.4,0.8c-0.3,0-0.7-0.1-1.2-0.4c-1.6-0.8-3.8-1.2-6.6-1.2
		c-2.4,0-4.5,0.3-6.3,0.9c-0.7,0.2-1.1,0.3-1.2,0.3c-0.2,0-0.4-0.1-0.6-0.3c-0.2-0.2-0.3-0.4-0.3-0.5c0-0.4,0.1-0.7,0.4-0.9
		c0.4-0.3,1.6-0.5,3.8-0.7c1.6-0.1,2.9-0.2,4.1-0.2c1.7,0,3.6,0.2,5.6,0.5c1.4,0.2,2.4,0.3,3,0.3c0.1,0,0.3,0,0.6-0.1
		c0.3-0.1,0.5-0.1,0.6-0.1C218.6,7.7,218.7,7.8,218.7,8z"/>
	<path class="st0" d="M232.2,0.3c0.6,0,0.8,0.3,0.8,0.8c0,0.1,0,0.3-0.1,0.5c-0.3,0.8-0.5,1.3-0.7,1.6l6.4,0c0.2,0,0.6-0.1,1.2-0.2
		c0.6,0,0.9,0.2,0.9,0.6c-0.3,1.5-0.4,3.3-0.4,5.5c0,1.5,0.1,3.6,0.3,6.3c0,0.7-0.3,1-0.9,1c-0.3,0-0.5-0.1-0.6-0.4
		c-0.1-0.3-0.1-0.8-0.1-1.3c0-4.3,0.1-7.7,0.2-10.1c0-0.2-0.2-0.3-0.7-0.3c-4.7,0-9,0-12.9,0.1v5.8c0,1.2-0.1,2.2-0.3,3.1
		c-0.2,0.9-0.5,1.6-1,2.2c-0.4,0.5-0.8,0.8-1.1,0.8c-0.3,0-0.7-0.2-1.1-0.5c-0.5-0.4-0.7-0.6-0.7-0.8c0-0.2,0.1-0.3,0.4-0.4
		c0.7-0.3,1.3-0.9,1.7-1.8c0.4-0.8,0.6-2.6,0.6-5.3c0-1.3-0.1-2.7-0.3-4.2c0-0.4,0.2-0.6,0.7-0.6c0.2,0,0.4,0,0.6,0.1l5.8,0
		c0.2-0.7,0.3-1.4,0.3-2.1C231.5,0.6,231.7,0.3,232.2,0.3z M229.3,7.3c0.2,0,0.4,0,0.6,0.1c0.2,0.1,0.5,0.1,0.9,0.1h2
		c0.4,0,1,0,1.6,0.1c0.2,0,0.5-0.1,0.8-0.2c0.4,0,0.6,0.3,0.6,0.8l0,0.1c-0.1,0.2-0.1,0.4-0.2,0.9c0,0.5-0.1,1.1-0.1,1.7
		c0,0.4,0,0.9,0.1,1.5c0,0.5-0.2,0.7-0.6,0.7c-1-0.1-2-0.2-2.8-0.2c-1.1,0-1.9,0-2.2,0c-0.3,0-0.6,0.1-0.9,0.1
		c-0.4,0-0.6-0.2-0.6-0.7c0.1-0.9,0.2-1.6,0.2-2.3c0-0.6-0.1-1.3-0.2-2.2C228.7,7.5,228.9,7.3,229.3,7.3z M232.3,11.8
		c0.5,0,1.1,0,1.8,0.1c0.2,0,0.4-0.1,0.4-0.3V8.9c0-0.2-0.1-0.3-0.2-0.3c-0.9-0.1-2.1-0.1-3.8-0.1c-0.2,0-0.4,0.2-0.4,0.5
		c0,0.9-0.1,1.7-0.2,2.5c0,0.3,0.2,0.4,0.5,0.4C231,11.8,231.6,11.8,232.3,11.8z"/>
	<path class="st0" d="M252,10.8c-0.1,0.6-0.5,1.5-1.1,2.7c-0.7,1.4-1.3,2-1.7,2c-0.5,0-1-0.6-1.4-1.9c-0.4-1.3-0.6-2.9-0.6-4.9
		c0-1.3,0.1-2.8,0.4-4.3c0.4-2.2,1-3.3,1.7-3.3c0.5,0,0.8,0.2,0.8,0.7c0,0.2-0.3,1-0.8,2.5c-0.5,1.3-0.8,2.8-0.8,4.4
		c0,0.7,0.1,1.6,0.2,2.5c0.2,1.4,0.4,2,0.8,2s0.8-0.4,1.3-1.3c0.5-0.9,0.9-1.4,1-1.4C251.9,10.5,252,10.6,252,10.8z M263.2,5.1
		c-0.1,0.3-0.2,0.6-0.4,0.8c-0.2,0.3-0.5,0.4-0.7,0.4c-0.1,0-0.5-0.1-1-0.2c-0.4-0.1-1-0.1-1.7-0.1c0,2.3-0.2,4-0.3,4.9
		c-0.4,1.8-1.1,3.2-2.2,4.3c-0.8,0.8-1.6,1.2-2.2,1.2c-0.2,0-0.6-0.2-1.1-0.5c-0.5-0.3-0.7-0.6-0.7-0.8c0-0.1,0.4-0.2,1.1-0.5
		c1.2-0.4,2.1-1.1,2.9-2.1c0.8-1.2,1.3-2.9,1.3-5.1c0-0.2,0-0.4,0-0.8c0-0.4,0-0.6,0-0.8c-1.6,0-2.9,0.2-3.7,0.3
		c-0.6,0.2-1,0.2-1,0.2c-0.3,0-0.5-0.2-0.5-0.5c0-0.7,0.5-1.1,1.4-1.2c0.8,0,2.1-0.1,3.7-0.1c-0.1-2.2-0.2-3.3-0.2-3.4
		c0-0.6,0.2-0.8,0.6-0.8c0.4,0,0.7,0.3,0.8,0.8c0.1,0.6,0.2,1.8,0.2,3.5c0.3,0,0.7,0,1.2,0c0.5,0,0.9,0,1.1,0c0.7,0,1,0,0.9,0
		C262.9,4.8,263.1,4.9,263.2,5.1z"/>
	<path class="st0" d="M272.5,11.3c0,0.5-0.3,1.3-0.8,2.5c-0.6,1.3-1,1.9-1.4,1.9c-0.8,0-1.3-1-1.6-2.9c-0.2-1.1-0.3-2.4-0.3-3.8
		c0-1.2,0.2-2.7,0.5-4.5c0.4-2.3,0.9-3.5,1.5-3.5c0.6,0,0.9,0.3,0.9,0.9c-0.1,0.2-0.4,1.1-0.9,2.7c-0.5,1.7-0.7,3.2-0.7,4.7
		c0,1.5,0.1,2.7,0.3,3.6c0.1,0.5,0.2,0.7,0.3,0.7c0.2,0,0.5-0.5,1-1.4c0.5-0.9,0.8-1.4,1-1.4C272.4,10.9,272.5,11,272.5,11.3z
		 M286.2,13.2c-0.1,0.3-0.3,0.7-0.8,1.2c-0.4,0.5-0.8,0.7-1.1,0.7c-0.2,0-0.7-0.3-1.4-0.9c-0.8-0.7-1.6-1.2-2.4-1.6
		c-0.4,1.7-1.5,2.6-3.3,2.6c-0.9,0-1.6-0.2-2.2-0.5c-0.8-0.4-1.1-1-1.1-1.8c0-1.5,1.3-2.2,3.8-2.2c0.3,0,0.8,0.1,1.5,0.2
		c0-1.3-0.1-3.1-0.1-5.6c-1.4,0-2.4,0.1-3.1,0.2c-0.1,0-0.4,0.1-0.8,0.2c-0.3,0-0.6,0.1-0.8,0.1c-0.4,0-0.6-0.2-0.6-0.6
		c0-0.2,0.1-0.4,0.3-0.6c0.2-0.2,1.8-0.3,4.9-0.3C279.1,3,279,2.2,279,1.8c0-0.5,0.2-0.8,0.7-0.8c0.6,0,0.9,0.3,0.9,1v2.2
		c2.7,0,3.4,0,2-0.1c1.2,0,1.9,0.2,2,0.4c-0.3,0.9-0.6,1.3-1,1.3c-0.2,0-0.7-0.1-1.4-0.2c-0.8-0.2-1.3-0.3-1.6-0.3V7
		c0,0.3,0,1,0,2.1c0,0.9,0,1.7,0,2.2c0.2,0,1,0.3,2.5,0.9c1,0.4,1.9,0.6,2.6,0.6C286,13,286.2,13.1,286.2,13.2z M279.2,12.2
		c-0.9-0.3-1.6-0.4-2.3-0.4c-1.3,0-1.9,0.4-1.9,1.3c0,0.4,0.2,0.7,0.7,0.9c0.4,0.2,0.8,0.3,1.2,0.3C278.3,14.2,279,13.5,279.2,12.2z
		"/>
	<path class="st0" d="M305.9,4c0,0.3-0.2,0.7-0.6,1.2c-0.4,0.5-0.7,0.7-1,0.7c0.1,0-0.4-0.1-1.5-0.4c-1.3-0.3-2.6-0.5-3.9-0.5
		c-0.2,0-0.4,0-0.6,0c-0.3,0-0.6,0-0.7,0c-0.1,1.1-0.2,2.1-0.2,3l4.2,0c0.8,0,1.1,0.1,1.1,0.3c0,0.2-0.1,0.5-0.3,0.7
		c-0.2,0.2-0.4,0.4-0.6,0.4c-1.3-0.2-2.2-0.3-2.8-0.3c-0.2,0-0.7,0-1.6,0c0,1.5,0.1,2.6,0.3,3.4c0.3,1.4,1,2.2,2,2.2
		c0.7,0,1.5-0.2,2.5-0.6c1-0.5,1.7-1,2.2-1.5c0.3-0.3,0.5-0.5,0.6-0.5c0.3,0,0.4,0.3,0.4,0.8c0,0.8-0.1,1.4-0.4,1.8
		c-0.3,0.5-1,0.8-2.3,1.1c-0.9,0.2-1.8,0.3-2.6,0.3c-1.8,0-3-0.8-3.5-2.3c-0.4-0.9-0.5-2.4-0.5-4.5c-1.1,0.1-1.8,0.1-1.9,0.1
		c-0.8,0.1-1.5,0.2-1.8,0.3c-0.4,0.1-0.6,0.2-0.5,0.2c-0.3,0-0.4-0.2-0.4-0.6c0-0.5,0.4-0.8,1.1-1c0.5-0.1,1.8-0.2,3.7-0.3
		c0-1.5,0-2.5,0.1-3l-1.6,0.1c-0.5,0.1-1.1,0.2-1.9,0.4c-1.1,0.3-1.7,0.5-1.8,0.6c-0.3,0-0.5-0.2-0.5-0.6c0-0.8,0.5-1.3,1.4-1.3
		c1-0.1,2.5-0.2,4.5-0.3c0.1-1,0.1-1.8,0.1-2.4c0-0.8,0.3-1.2,0.8-1.2c0.6,0,0.9,0.3,0.9,0.8c0,0-0.1,0.9-0.4,2.7c0.2,0,0.5,0,1,0
		c0.4,0,0.7,0,0.9,0c0.5,0,1.2,0,2.1,0s1.6,0,2.1,0c0.6,0,1.1,0,1.3-0.1c0.4,0,0.5-0.1,0.6-0.1C305.8,3.8,305.9,3.9,305.9,4z"/>
	<path class="st0" d="M328.8,4.3c0,0.2-0.2,0.6-0.6,1.1c-0.4,0.5-0.7,0.7-1,0.7L326,5.8c-1.8-0.6-3.8-0.8-6-0.8c-0.1,0-0.2,0-0.3,0
		c-0.2,0-0.3,0-0.4,0c-0.4,1.7-0.9,3.2-1.6,4.3c1.4-0.7,2.9-1,4.7-1c1.2,0,2.2,0.2,3.1,0.7c1.1,0.5,1.7,1.3,1.7,2.4
		c0,1.7-1,3-3.1,3.8c-1.5,0.6-3.2,0.9-5.2,0.9c-0.6,0-1.1-0.2-1.5-0.5c-0.5-0.4-0.8-0.8-0.8-1.3c0-0.2,0.1-0.3,0.3-0.3
		c0.4,0,0.9,0.1,1.6,0.2c0.7,0.1,1.2,0.1,1.6,0.1c1.4,0,2.6-0.2,3.6-0.6c1.4-0.6,2.2-1.4,2.2-2.5c0-0.7-0.5-1.3-1.4-1.6
		c-0.7-0.2-1.4-0.3-2.3-0.3c-1,0-2,0.2-3,0.7c-0.6,0.3-1.4,0.7-2.2,1.2c-0.7,0.5-1.1,0.7-1.2,0.7c-0.2,0-0.3-0.1-0.5-0.3
		c-0.1-0.2-0.2-0.3-0.2-0.5c0-0.2,0.1-0.3,0.3-0.6c1.3-1.6,2.2-3.4,2.7-5.2c-1.8,0.2-3.4,0.5-4.7,1c-0.6,0.2-0.9,0.3-1,0.3
		c-0.4,0-0.6-0.2-0.6-0.5c0-0.4,0.1-0.7,0.3-0.9c0.2-0.3,0.5-0.4,0.9-0.5c0.8-0.1,2.6-0.4,5.4-0.6c0.1-0.9,0.2-1.7,0.2-2.4
		c0-0.6,0.2-0.9,0.6-0.9c0.5,0,0.8,0.4,0.8,1.1c0,0.5-0.1,1.2-0.3,2.2c2.1,0,3.9,0,5.5,0.1c1.9,0.1,2.7,0.2,2.5,0.2
		c1.3,0,1.6,0,0.8,0C328.6,4.1,328.8,4.1,328.8,4.3z"/>
	<path class="st0" d="M347.6,11c0,1.8-1,3.1-2.9,4c-1.4,0.7-3.2,1-5.3,1c-0.8,0-1.5-0.1-1.9-0.2c-0.6-0.2-1.1-0.5-1.5-1.1
		c-0.4-0.4-0.5-0.8-0.5-1c0-0.3,0.1-0.4,0.4-0.4c0.1,0,0.6,0.1,1.3,0.4c0.9,0.3,2,0.5,3.3,0.5c1.4,0,2.6-0.2,3.6-0.6
		c1.4-0.6,2.1-1.5,2.1-2.7c0-1-0.4-1.7-1.2-2.3c-0.7-0.5-1.5-0.7-2.5-0.7c-1.2,0-2.5,0.2-3.8,0.7c-1.3,0.5-2.4,1.1-3.3,1.8
		c-0.6,0.5-0.9,0.7-1,0.7c-0.6,0-0.9-0.3-0.9-0.8c0-0.2,0.6-0.8,1.7-1.8c0.6-0.5,1.2-1,1.8-1.4c3.2-2.6,5.1-4.3,5.5-5
		c-0.1-0.1-0.3-0.1-0.5-0.1c-1.3,0-2.5,0.1-3.6,0.3c-1.1,0.2-1.8,0.4-1.9,0.4c-0.5,0-0.7-0.2-0.7-0.7c0-0.5,0.4-0.8,1.3-0.8
		c1.2-0.1,3.5-0.2,6.7-0.2c0.9,0,1.3,0.2,1.4,0.6c0,0.2-0.2,0.4-0.5,0.6c-1.5,1.2-3.7,3.1-6.6,5.5c1.6-0.6,3.1-0.8,4.5-0.8
		c1.3,0,2.5,0.3,3.4,1C347.1,8.7,347.6,9.7,347.6,11z"/>
	<path class="st0" d="M371,11.4c0,1.7-0.9,2.8-2.8,3.4c-1.1,0.3-2.2,0.5-3.2,0.5c-1.5,0-2.4-0.6-2.8-1.8c-0.1-0.3-0.3-1.4-0.5-3.3
		c-0.1-1.2-0.5-1.8-1.2-1.8c-1.3,0-2.5,0.6-3.3,1.8c-0.4,0.5-0.9,1.6-1.7,3.2c-0.5,1.2-1,1.8-1.4,1.8c-0.6,0-0.9-0.3-0.9-0.8
		c0-0.3,0.1-0.6,0.3-1c1.1-1.9,3.2-6,6.4-12.5c0.2-0.4,0.5-0.6,1-0.6c0.5,0,0.8,0.2,0.8,0.7c0,0.2-0.6,1.4-1.8,3.6
		c-0.7,1.3-1.4,2.5-2.1,3.8c0.9-0.6,1.8-0.9,2.7-0.9c0.6,0,1.2,0.2,1.7,0.7c0.4,0.4,0.6,1.1,0.8,2.1c0.3,1.5,0.4,2.3,0.4,2.4
		c0.2,0.8,0.6,1.1,1.3,1.1c0.7,0,1.5-0.2,2.5-0.7c0.9-0.4,1.7-0.9,2.2-1.4c0.7-0.7,1.1-1,1.1-1C370.9,10.6,371,10.9,371,11.4z"/>
	<path class="st0" d="M382.4,15.7c0,0.3-0.3,0.6-0.9,1c-0.6,0.4-1,0.6-1.3,0.6c-0.3,0-0.6-0.3-1-0.8c-0.8-1.2-1.7-2.3-2.4-3.1
		c-0.7-0.8-1-1.3-1-1.5c0-0.3,0.2-0.4,0.5-0.4c0.2,0,1.5,0.9,3.8,2.8c0.5,0.4,1.2,0.8,2.1,1.2C382.2,15.4,382.3,15.5,382.4,15.7z"/>
	<path class="st0" d="M90.6,33.2c0.2,0,0.5,0,0.7,0.1c0.2,0,0.6,0.1,1.1,0.1h5.2c0-0.8,0-1.7-0.1-2.6c0-0.7,0.3-1,0.9-1
		c0.5,0,0.7,0.3,0.7,1c0,0.9-0.1,1.8-0.1,2.6h0.5c1.6,0,3.5,0,5.7,0.1c0.2,0,0.6-0.1,0.9-0.2c0.5,0,0.7,0.3,0.7,0.8
		c0,0,0,0.1-0.1,0.2c-0.1,0.2-0.1,0.6-0.2,1.1c-0.1,0.7-0.1,1.4-0.1,2.2c0,0.5,0,1.1,0.1,1.9c0,0.6-0.2,0.8-0.6,0.8
		c-2.5-0.1-4.8-0.2-6.8-0.2l0.1,4.9c0,1.1-0.3,1.7-0.9,1.7c-0.5,0-0.8-0.6-0.8-1.7c0-1.8,0.1-3.4,0.1-4.9c-2.4,0-3.9,0-4.6,0.1
		c-0.7,0-1.4,0.1-2.4,0.2c-0.4,0-0.6-0.2-0.6-0.7c0.1-1.1,0.2-2.1,0.2-2.9c0-0.8-0.1-1.8-0.2-2.9C89.8,33.4,90.1,33.2,90.6,33.2z
		 M97.5,39c0-1.4,0-2.6,0-3.6c0-0.3,0-0.5,0-0.8c-1.7,0-3.5,0-5.5,0c-0.3,0-0.5,0.2-0.5,0.5c0,1.2-0.1,2.4-0.2,3.5
		c0,0.4,0.2,0.6,0.6,0.6C93.5,39,95.4,39,97.5,39z M99,34.6c0,0.3,0,0.5,0,0.8L99,39c1.8,0,3.7,0,5.7,0.1c0.3,0,0.4-0.1,0.4-0.4
		c0-1.7,0-3,0.1-3.7c0-0.2-0.1-0.3-0.4-0.3C103.3,34.6,101.3,34.6,99,34.6z"/>
	<path class="st0" d="M121.7,29.5c0.6,0,0.8,0.3,0.8,0.8c-0.1,0.4-0.2,0.9-0.2,1.2c1.2,0,2.7,0.1,4.2,0.3c1.5,0.1,2.8,0.2,3.9,0.2
		c0.5,0,1.1-0.1,1.8-0.2c0.1,0,0.2,0.2,0.2,0.5c0,0.5-0.2,1-0.6,1.6c-0.3,0.4-0.5,0.6-0.7,0.6c-0.4,0-1-0.1-1.7-0.4
		c-1.1-0.5-2.2-0.8-3.5-1c-1.4-0.2-2.9-0.3-4.6-0.3c-1.7,0-3.4,0.1-5,0.2c-1,0.1-2.5,0.4-4.4,1.1c-0.6,0-0.8-0.2-0.8-0.7
		c0-0.3,0.1-0.5,0.4-0.7c0.3-0.3,0.7-0.5,1.2-0.5c3.7-0.4,6.5-0.6,8.6-0.7c0-0.4-0.1-0.8-0.2-1.1C120.8,29.8,121.1,29.5,121.7,29.5z
		 M115.2,38.6c0.3,0,0.5,0.1,0.6,0.2l11.4,0.1c0.2,0,0.6-0.1,1-0.2c0.6,0,0.8,0.2,0.8,0.6c-0.2,0.9-0.4,2-0.4,3.2
		c0,0.8,0.1,1.9,0.2,3.4c0,0.6-0.2,0.9-0.7,0.9c-0.2,0-0.4-0.1-0.5-0.3c-0.1-0.3-0.1-0.7-0.1-1.2c0-2.3,0.1-4,0.2-5.3
		c0-0.1-0.2-0.2-0.6-0.2c-4.1,0-7.8,0-11.1,0.1c0,0.8,0,1.5,0,1.9c0,1.8-0.2,3-0.7,3.7c-0.5,0.7-1,1.1-1.5,1.1
		c-0.4,0-0.8-0.2-1.2-0.6c-0.2-0.3-0.3-0.5-0.3-0.7c0-0.1,0.1-0.2,0.3-0.2c0.7-0.1,1.3-0.4,1.7-1c0.3-0.4,0.5-1.3,0.5-2.6
		c0-0.7-0.1-1.4-0.2-2.2C114.6,38.8,114.8,38.6,115.2,38.6z M118.7,33.7c0.2,0,0.4,0,0.6,0c0.2,0,0.5,0,0.9,0h2.2
		c0.5,0,1.1,0,1.8,0.1c0.2,0,0.5,0,0.7-0.1c0.4,0,0.7,0.2,0.7,0.6c0,0,0,0,0,0.1c-0.1,0.1-0.1,0.3-0.2,0.6c0,0.4-0.1,0.8-0.1,1.2
		c0,0.2,0,0.5,0.1,0.9c0,0.4-0.2,0.6-0.6,0.6c-1.1-0.1-2.1-0.2-3-0.2c-1.2,0-1.9,0-2.2,0.1c-0.3,0-0.6,0.1-1,0.2
		c-0.4,0-0.6-0.2-0.6-0.7c0.1-0.6,0.2-1.1,0.2-1.6c0-0.4-0.1-0.8-0.2-1.4C118,34,118.3,33.7,118.7,33.7z M119.3,41.1
		c0.2,0,0.4,0,0.6,0c0.2,0,0.5,0,0.9,0h1.5c0.3,0,0.7,0,1.2,0.1c0.2,0,0.4,0,0.7-0.1c0.4,0,0.6,0.2,0.6,0.6c0,0,0,0.1,0,0.1
		c-0.1,0.1-0.1,0.3-0.1,0.6c0,0.4-0.1,0.8-0.1,1.3c0,0.2,0,0.6,0.1,1c0,0.4-0.2,0.6-0.6,0.6c-0.9-0.1-1.8-0.2-2.5-0.2
		c-0.9,0-1.4,0-1.6,0.1c-0.2,0-0.4,0.1-0.7,0.2c-0.4,0-0.6-0.2-0.6-0.6c0.1-0.7,0.2-1.3,0.2-1.8c0-0.4-0.1-0.9-0.2-1.5
		C118.7,41.3,118.9,41.1,119.3,41.1z M121.8,36.8c0.6,0,1.2,0,2,0.1c0.2,0,0.4-0.1,0.4-0.4v-1.4c0-0.1-0.1-0.2-0.2-0.2
		c-0.9-0.1-2.3-0.1-4-0.1c-0.2,0-0.4,0.1-0.4,0.4c0,0.4-0.1,0.8-0.2,1.2c0,0.3,0.2,0.5,0.5,0.5C120.4,36.9,121,36.8,121.8,36.8z
		 M121.6,44.4c0.4,0,0.9,0,1.5,0.1c0.3,0,0.4-0.1,0.4-0.4v-1.7c0-0.1-0.1-0.2-0.2-0.2c-0.6-0.1-1.5-0.1-2.7-0.1
		c-0.3,0-0.4,0.1-0.4,0.4c0,0.5-0.1,1-0.2,1.5c0,0.3,0.2,0.5,0.5,0.5C120.8,44.5,121.2,44.4,121.6,44.4z"/>
	<path class="st0" d="M140.4,31.3c0.4,0,0.6,0.2,0.6,0.5c0,0.2-0.1,0.4-0.2,0.6c-0.3,0.6-0.6,1.2-1,1.7h3.9l0-3
		c0-0.6,0.3-0.8,0.8-0.8c0.6,0,0.9,0.3,0.9,0.8l0,3h5.6c0.2,0,0.4,0.1,0.4,0.3c0,0.3-0.1,0.6-0.3,0.8c-0.2,0.2-0.5,0.3-0.8,0.3
		c-0.3,0-0.9-0.1-2-0.2c-0.9,0-1.8-0.1-2.8-0.1l0,3.5h4.8c0.2,0,0.4,0.1,0.4,0.3c0,0.3-0.1,0.6-0.3,0.8c-0.2,0.2-0.5,0.3-0.8,0.3
		c-0.3,0-0.9-0.1-1.8-0.2c-0.7,0-1.4-0.1-2.2-0.1l-0.1,3.8c1.3,0,2.8,0.2,4.3,0.4c1.5,0.2,2.9,0.3,4.2,0.3c0.4,0,0.8,0,1.1-0.1
		c0.1,0,0.1,0.1,0.1,0.3c0,0.4-0.1,0.9-0.3,1.3c-0.3,0.5-0.5,0.7-0.8,0.7c-0.4,0-0.8-0.1-1.2-0.3c-1.6-0.6-3.1-1-4.4-1.2
		c-1.1-0.1-2.3-0.2-3.9-0.2c-1.8,0-3.3,0.1-4.6,0.3c-1.4,0.3-2.8,0.7-4.1,1.2c-0.4,0.2-0.7,0.2-1,0.2c-0.5,0-0.7-0.3-0.7-0.8
		c0-0.3,0.1-0.5,0.4-0.7c0.2-0.2,0.5-0.3,0.8-0.4c4-0.6,6.9-1,8.7-1l-0.1-3.8c-1.6,0-2.8,0.1-3.6,0.3c-0.5,0.1-0.8,0.2-0.9,0.2
		c-0.5,0-0.8-0.3-0.8-0.8c0-0.2,0.2-0.4,0.4-0.6c0.2-0.1,0.5-0.2,0.9-0.2h4.1l0-3.5c-1.6,0-2.8,0.1-3.6,0.2c-0.5,0.1-0.9,0.2-1,0.2
		c-0.2,0-0.3,0-0.4-0.1c-0.3,0.4-0.6,0.7-0.8,1.1c-0.4,0.5-0.8,0.7-1.1,0.7c-0.3,0-0.7-0.1-1.1-0.4c-0.4-0.3-0.5-0.6-0.5-0.9
		c0-0.2,0.2-0.4,0.5-0.4c0.8-0.3,1.6-0.8,2.3-1.4c0.8-0.7,1.4-1.6,2.1-2.8C140.2,31.4,140.3,31.3,140.4,31.3z"/>
	<path class="st0" d="M176.2,41.6c-0.1,0.3-0.4,0.7-1,1.2c-0.6,0.5-1,0.8-1.3,0.8c-0.2,0-0.6-0.2-1.1-0.7c-1.2-1.2-2.6-2.5-4.2-4
		c-2.3-2.2-3.7-3.2-4.1-3.2c-0.3,0-1.3,0.8-3,2.5c-1.6,1.7-2.7,2.5-3.1,2.5c-0.3,0-0.5-0.1-0.7-0.3c-0.2-0.2-0.3-0.4-0.3-0.7
		c0-0.3,0.2-0.6,0.6-0.9c1.9-1.4,3.5-2.7,4.9-3.8c0.5-0.4,0.9-0.6,1.4-0.6c0.5,0,1.3,0.4,2.4,1.2l5.1,3.8c1.3,1,2.6,1.6,3.8,1.9
		C175.7,41.4,175.9,41.4,176.2,41.6z"/>
	<path class="st0" d="M196.9,38.1c0,2.8-1.5,4.9-4.6,6.3c-1.2,0.6-2.2,0.9-2.9,0.9c-0.4,0-0.8-0.2-1.2-0.5c-0.4-0.3-0.7-0.7-0.7-1.1
		c0-0.1,0.2-0.3,0.6-0.3c0.3,0,0.7-0.1,1.2-0.2c1.4-0.2,2.6-0.6,3.5-1.1c0.8-0.5,1.5-1.1,2-1.8c0.6-0.8,0.8-1.7,0.8-2.6
		c0-0.7-0.2-1.5-0.7-2.2c-0.9-1.6-2.5-2.4-4.8-2.4c-0.1,0-0.2,0-0.4,0c-0.2,0-0.3,0-0.3,0c-0.9,4.1-2.1,7.2-3.6,9
		c-0.9,1.1-1.6,1.6-2.2,1.6c-0.8,0-1.5-0.6-2.1-1.9c-0.4-1-0.6-2-0.6-3c0-1.5,0.5-2.9,1.5-4.1c1.6-1.9,4-2.8,7.2-2.8
		c2,0,3.7,0.5,5.1,1.6C196.1,34.6,196.9,36.2,196.9,38.1z M187.8,33.3c-2.1,0.4-3.6,1.1-4.5,2.2c-0.9,1.1-1.4,2.2-1.4,3.2
		c0,0.6,0.1,1.2,0.4,2c0.3,0.9,0.7,1.3,1.2,1.3c0.4,0,0.9-0.3,1.4-1C186.1,39.3,187.1,36.7,187.8,33.3z"/>
	<path class="st0" d="M202.5,31.5h6c0.2,0,0.3,0.1,0.3,0.3c0,0.3-0.1,0.5-0.3,0.6c-0.2,0.2-0.5,0.3-0.8,0.3c-0.1,0-0.5,0-1-0.1
		c-0.3,0-0.5,0-0.8,0l0,3.3h2.4c0.2,0,0.3,0.1,0.3,0.3c0,0.2-0.1,0.5-0.3,0.6c-0.2,0.2-0.4,0.3-0.8,0.3c-0.1,0-0.4,0-0.9-0.1
		c-0.2,0-0.5,0-0.7,0l0,3.5c1.1-0.3,1.9-0.4,2.5-0.5c0.3,0,0.4,0.1,0.4,0.4c0,0.4-0.2,0.6-0.5,0.7c-2.3,0.6-4.4,1.4-6.3,2.3
		c-0.5,0-0.7-0.2-0.7-0.6c0-0.4,0.1-0.6,0.2-0.8c0.1-0.2,0.3-0.3,0.6-0.4c0.9-0.2,1.7-0.5,2.5-0.6l0-3.8c-0.8,0-1.4,0.1-1.8,0.2
		c-0.3,0.1-0.4,0.2-0.5,0.2c-0.4,0-0.7-0.2-0.7-0.6c0-0.2,0.1-0.4,0.4-0.6c0.2-0.1,0.5-0.2,0.8-0.2h1.8l0-3.3
		c-0.8,0-1.5,0.1-1.9,0.2c-0.3,0.1-0.5,0.2-0.6,0.2c-0.4,0-0.7-0.3-0.7-0.7c0-0.2,0.1-0.4,0.4-0.6C201.9,31.6,202.1,31.5,202.5,31.5
		z M211.8,36.7c0.2,0,0.4,0,0.6,0c0.2,0,0.5,0,0.9,0h2.8c0.6,0,1.4,0,2.2,0.1c0.2,0,0.5,0,0.8-0.1c0.4,0,0.6,0.2,0.6,0.6
		c0,0,0,0,0,0.1c-0.1,0.1-0.1,0.3-0.2,0.6c0,0.4-0.1,0.7-0.1,1.1c0,0.2,0,0.4,0.1,0.8c0,0.4-0.2,0.6-0.6,0.6
		c-1.3-0.1-2.4-0.2-3.5-0.2c0,0.1,0.1,0.3,0.1,0.5c-0.1,0.6-0.1,1.2-0.1,1.7l0.1,2.8c0,0.9-0.2,1.3-0.7,1.3c-0.4,0-0.6-0.4-0.6-1.3
		c0.1-1.2,0.1-2.1,0.1-2.8c0-0.4,0-0.8,0-1.2c-1,1.2-2.2,2.2-3.6,3.2c-0.6,0.4-1.1,0.6-1.4,0.6c-0.3,0-0.6-0.1-1-0.4
		s-0.5-0.5-0.5-0.8c0-0.2,0.2-0.3,0.5-0.3c1.1-0.2,2.1-0.6,3-1.2c0.9-0.5,1.7-1.2,2.5-2c-0.4,0-0.7,0-0.9,0.1
		c-0.3,0-0.6,0.1-1.1,0.2c-0.4,0-0.6-0.2-0.6-0.6c0.1-0.6,0.2-1.1,0.2-1.5c0-0.3-0.1-0.7-0.2-1.2C211.1,37,211.3,36.7,211.8,36.7z
		 M210.3,35h11c0.2,0,0.3,0.1,0.3,0.3c0,0.2-0.1,0.5-0.3,0.6c-0.2,0.2-0.4,0.3-0.8,0.3c-0.3,0-0.9,0-1.9-0.1c-1.1,0-2.2,0-3.5,0
		c-2,0-3.4,0.1-4.3,0.2c-0.5,0.1-0.8,0.2-1,0.2c-0.4,0-0.6-0.2-0.7-0.6c0-0.2,0.2-0.4,0.4-0.6C209.7,35,209.9,35,210.3,35z
		 M210.5,30.1c0.2,0,0.4,0,0.6,0c0.2,0,0.5,0,0.9,0h4.2c0.9,0,2.1,0,3.4,0.1c0.2,0,0.5,0,0.7-0.1c0.4,0,0.7,0.2,0.7,0.6l0,0.1
		c-0.1,0.1-0.1,0.3-0.2,0.6c0,0.4-0.1,0.7-0.1,1.2c0,0.2,0,0.5,0.1,0.8c0,0.4-0.2,0.7-0.6,0.7c-1.9-0.1-3.6-0.2-5.1-0.2
		c-1.7,0-2.8,0-3.3,0.1c-0.4,0-0.9,0.1-1.5,0.2c-0.4,0-0.6-0.2-0.6-0.7c0.1-0.6,0.2-1.1,0.2-1.5c0-0.4-0.1-0.8-0.2-1.3
		C209.8,30.3,210,30.1,210.5,30.1z M213.3,33l0-1.8c-0.5,0-1,0-1.6,0c-0.3,0-0.4,0.1-0.4,0.4c0,0.4-0.1,0.7-0.2,1
		c0,0.3,0.2,0.5,0.5,0.5C212.1,33.1,212.7,33,213.3,33z M215.1,39.6c0.8,0,1.7,0,2.7,0.1c0.2,0,0.4-0.1,0.4-0.4v-1.1
		c0-0.1-0.1-0.2-0.2-0.2c-1.2-0.1-2.9-0.1-5.1-0.1c-0.3,0-0.4,0.1-0.4,0.4c0,0.3-0.1,0.6-0.2,0.9c0,0.3,0.2,0.5,0.5,0.5
		C213.5,39.6,214.3,39.6,215.1,39.6z M215.1,33c0.4,0,0.8,0,1.2,0l-0.1-1.8c-0.6,0-1.2,0-1.9,0V33C214.6,33,214.9,33,215.1,33z
		 M220.8,40c0.5,0,0.7,0.2,0.7,0.7c0,0.3-0.2,0.5-0.5,0.7c-0.7,0.4-1.6,0.8-2.7,1.2c-0.1,0-0.2,0.1-0.3,0.1l0,0
		c1.8,1.2,2.9,1.9,3.3,2.1c0.3,0.1,0.6,0.1,1,0.2c0.3,0,0.4,0.1,0.4,0.3c0,0.3-0.2,0.5-0.6,0.8c-0.4,0.3-0.9,0.4-1.3,0.4
		c-0.3,0-0.6-0.1-0.8-0.3c-0.6-0.8-1.3-1.6-2-2.4c-0.3-0.3-0.6-0.6-0.9-0.7c0,0-0.1,0-0.1,0c-0.1,0-0.1,0-0.1,0
		c-0.4,0-0.6-0.2-0.6-0.5c0-0.2,0.1-0.4,0.3-0.5c1.6-0.8,2.9-1.4,3.8-2.1C220.6,40.1,220.7,40,220.8,40z M217.4,31.2V33
		c0.6,0,1.2,0,1.8,0.1c0.3,0,0.4-0.1,0.4-0.4v-1.2c0-0.1-0.1-0.2-0.2-0.2C218.8,31.3,218.1,31.3,217.4,31.2z"/>
	<path class="st0" d="M226.4,34.4h1.9l0-3.6c0-0.6,0.2-0.8,0.7-0.8c0.6,0,0.9,0.3,0.9,0.8l-0.1,3.6h2.3c0.2,0,0.3,0.1,0.3,0.3
		c0,0.3-0.1,0.5-0.3,0.6c-0.2,0.2-0.4,0.3-0.8,0.3c-0.1,0-0.4,0-0.9-0.1c-0.2,0-0.4,0-0.6,0l-0.1,4.3c1.1-0.3,2-0.4,2.6-0.5
		c0.3,0,0.4,0.1,0.4,0.4c0,0.4-0.2,0.6-0.5,0.6c-2.2,0.6-4.2,1.3-6,2.1c-0.5,0-0.7-0.2-0.7-0.6c0-0.4,0.1-0.6,0.2-0.8
		c0.1-0.2,0.2-0.3,0.6-0.4c0.8-0.2,1.5-0.4,2.2-0.5l0-4.6c-0.8,0-1.4,0.1-1.8,0.2c-0.3,0.1-0.5,0.2-0.6,0.2c-0.4,0-0.7-0.2-0.7-0.6
		c0-0.2,0.1-0.5,0.4-0.6C225.8,34.5,226.1,34.4,226.4,34.4z M235.3,36.2c0.2,0,0.5,0,0.7,0c0.2,0,0.6,0,1,0h3c0.7,0,1.5,0,2.4,0.1
		c0.2,0,0.5,0,0.8-0.1c0.4,0,0.7,0.2,0.7,0.6c0,0,0,0.1-0.1,0.2c-0.1,0.2-0.1,0.5-0.1,0.9c0,0.6-0.1,1.2-0.1,1.8c0,0.4,0,1,0.1,1.7
		c0,0.4-0.2,0.7-0.7,0.7c-0.7-0.1-1.3-0.1-1.9-0.1c0,0,0,0.1,0,0.1c0,0.6,0,1.4-0.1,2.3c0,0.2,0.1,0.3,0.2,0.3
		c0.2,0,0.8,0.1,1.6,0.1c1.4,0,2.7-0.2,3.7-0.6c0.2,0,0.3,0.2,0.3,0.5c0,0.4-0.1,0.8-0.4,1.3c-0.3,0.5-0.6,0.8-0.9,0.8
		c-0.2,0-1.9-0.2-5.1-0.7c-0.5-0.1-0.7-0.4-0.7-0.8c0.1-0.9,0.1-1.5,0.1-2c0-0.4,0-0.9-0.1-1.4c-0.2,0-0.4,0-0.7,0
		c-0.3,0-0.6,0-0.9,0c0,0.1,0,0.1,0,0.2c0,0-0.1,0-0.1,0.1c-0.3,0.6-0.9,1.4-1.7,2.2c-0.8,0.8-1.7,1.3-2.6,1.7
		c-0.6,0.3-1.1,0.4-1.5,0.4c-0.3,0-0.5-0.1-0.8-0.3c-0.4-0.3-0.6-0.6-0.6-1c0-0.3,0.3-0.4,0.8-0.5c1.1-0.1,2.2-0.4,3.2-0.9
		c0.9-0.5,1.5-1.2,2-1.9c-0.2,0-0.4,0-0.6,0c-0.3,0-0.7,0.1-1.2,0.2c-0.4,0-0.6-0.2-0.6-0.7c0.1-0.9,0.2-1.7,0.2-2.4
		c0-0.7-0.1-1.4-0.2-2.4C234.7,36.4,234.9,36.2,235.3,36.2z M239.2,29.6c0.6,0,0.9,0.3,0.9,0.8c-0.1,0.3-0.2,0.6-0.2,0.9h4.6
		c0.2,0,0.3,0.1,0.3,0.3c0,0.3-0.1,0.5-0.3,0.6c-0.2,0.2-0.5,0.3-0.8,0.3c-0.2,0-0.7,0-1.6-0.1l-0.4,1.7h3.8c0.2,0,0.4,0.1,0.4,0.2
		c0,0.3-0.1,0.6-0.3,0.9c-0.2,0.2-0.5,0.4-0.8,0.4c-0.3,0-1-0.1-2-0.2c-1.1-0.1-2.3-0.1-3.6-0.1c-2,0-3.5,0.1-4.4,0.2
		c-0.5,0.1-0.9,0.1-1,0.1c-0.4,0-0.6-0.2-0.7-0.6c0-0.2,0.2-0.4,0.4-0.6c0.2-0.1,0.4-0.2,0.8-0.2h2.9l-0.5-1.7c-0.4,0-0.7,0.1-1,0.1
		c-0.4,0.1-0.7,0.2-0.8,0.2c-0.4,0-0.6-0.2-0.7-0.6c0-0.2,0.2-0.4,0.4-0.6c0.2-0.1,0.4-0.2,0.8-0.2h3.4c0-0.3-0.1-0.6-0.2-0.8
		C238.3,29.9,238.6,29.6,239.2,29.6z M239.2,41.1c0.9,0,1.8,0,2.9,0.1c0.3,0,0.4-0.1,0.4-0.4v-1.1c0,0-0.1,0-0.1,0
		c-2.6,0-4.6,0.1-6.1,0.2c0,0-0.1,0-0.1,0c0,0.3,0,0.6-0.1,0.8c0,0.3,0.2,0.5,0.6,0.5C237.4,41.1,238.2,41.1,239.2,41.1z
		 M236.3,38.7c0,0,0.1,0,0.1,0h5.9c0.1,0,0.1,0,0.2,0v-1.2c0-0.1-0.1-0.2-0.2-0.2c-1.3,0-3.1-0.1-5.5-0.1c-0.3,0-0.5,0.1-0.5,0.4
		C236.3,38,236.3,38.4,236.3,38.7z M238,34.2h2.7l0.2-1.8c-0.5,0-1.1,0-1.7,0c-0.5,0-1,0-1.4,0L238,34.2z"/>
	<path class="st0" d="M250.9,33.5h2.7c0-0.9,0-1.8,0-2.7c0-0.7,0.3-1,0.8-1c0.5,0,0.7,0.2,0.7,0.7c0,0.1,0,0.4-0.1,0.7
		c0,0.4,0,0.7,0,0.9c0,0.5,0,0.9,0,1.3h2.3c0.2,0,0.3,0.1,0.3,0.3c0,0.3-0.1,0.5-0.3,0.6c-0.2,0.2-0.5,0.3-0.8,0.3
		c-0.1,0-0.5,0-1.1-0.1c-0.2,0-0.3,0-0.5,0c0,1.3,0,2.4,0.1,3.5c0.7-0.2,1.2-0.3,1.6-0.4c0.2,0,0.3,0.1,0.3,0.4
		c0,0.3-0.1,0.5-0.4,0.6c-0.5,0.2-1,0.4-1.5,0.6c0,1.6,0.1,2.8,0.1,3.6c0,1.4-0.4,2.4-1.1,3.1c-0.7,0.5-1.4,0.8-2.3,0.8
		c-0.4,0-0.7-0.1-1-0.4c-0.2-0.2-0.3-0.5-0.3-0.7c0-0.3,0.2-0.4,0.5-0.5c1.4-0.3,2.2-0.6,2.5-1.1c0.2-0.4,0.4-0.9,0.4-1.6
		c0-0.9,0-1.8,0-2.8c-1.2,0.6-2.4,1.2-3.5,1.8c-0.5,0-0.7-0.2-0.7-0.6c0-0.3,0.1-0.6,0.2-0.7c0.1-0.3,0.3-0.4,0.6-0.6
		c1.3-0.5,2.5-0.9,3.4-1.2c0-1.2,0-2.3-0.1-3.5c0-0.1,0-0.3,0-0.5c0,0,0,0-0.1,0c-1.2,0-2.1,0.1-2.6,0.2c-0.3,0.1-0.5,0.2-0.6,0.2
		c-0.4,0-0.7-0.2-0.7-0.6c0-0.2,0.1-0.5,0.4-0.6C250.3,33.5,250.6,33.5,250.9,33.5z M263.3,38.1c1,0,1.9,0.1,2.7,0.2
		c0.2-0.1,0.5-0.1,0.6-0.1c0.4,0,0.6,0.2,0.6,0.7c0,0.1-0.1,0.2-0.2,0.3c-0.1,0.2-0.5,0.7-1,1.5c-0.4,0.7-0.9,1.3-1.5,1.8
		c2,1.1,3.3,1.7,3.9,1.8c0.6,0.1,1.2,0.2,2,0.3c0.3,0,0.5,0.1,0.5,0.4c0,0.4-0.3,0.7-0.8,1.1c-0.5,0.4-1.1,0.5-1.7,0.5
		c-0.4,0-0.8-0.2-1.1-0.5c-1.1-0.9-2.3-1.8-3.6-2.7c-0.3,0.3-0.6,0.5-0.9,0.8c-0.9,0.8-1.7,1.4-2.4,1.7c-0.6,0.3-1,0.5-1.3,0.5
		c-0.3,0-0.6-0.1-1-0.4c-0.4-0.3-0.6-0.6-0.6-1c0-0.2,0.2-0.3,0.5-0.4c0.4,0,1-0.2,1.8-0.4c1.1-0.4,2.1-0.9,2.8-1.6c0,0-0.1,0-0.1,0
		c-0.8-0.5-1.4-0.8-2-1.1c-0.3-0.1-0.5-0.3-0.5-0.5c0-0.4,0.2-0.7,0.7-0.7c0.3,0,0.7,0.2,1.2,0.6c0.5,0.3,1,0.6,1.5,0.8
		c0.6-0.6,1.2-1.4,1.8-2.2c0.2-0.2,0.2-0.3,0.2-0.3c0-0.1-0.1-0.2-0.2-0.2c-0.3,0-0.6-0.1-0.9-0.1c-1.3,0-2.2,0.1-2.6,0.2
		c-0.3,0.1-0.4,0.1-0.6,0.1c-0.4,0-0.6-0.2-0.6-0.5c0-0.3,0.2-0.5,0.5-0.7C261.5,38.1,262.2,38.1,263.3,38.1z M260.7,33.2
		c0.4,0,0.6,0.2,0.6,0.6c0.1,0.9,0.2,1.4,0.2,1.7c0.5,0,1.1,0,1.7,0c0.2,0,0.4,0,0.5,0c0-0.1,0-0.2,0-0.3l-0.4-1.6
		c0-0.4,0.2-0.6,0.7-0.6c0.5,0,0.7,0.2,0.7,0.6l-0.2,1.7c0,0,0,0.1,0,0.1c0.8,0,1.5,0,2.2,0.1c0-0.3,0.3-1.1,0.6-2.3
		c0.1-0.3,0.3-0.4,0.7-0.4c0.5,0,0.8,0.3,0.8,0.7c0,0.2-0.1,0.3-0.2,0.5c-0.4,0.6-0.7,1.1-1,1.5c0,0,0,0.1,0,0.1
		c0.5,0,1,0.1,1.4,0.1l0.9-0.2c0.4,0,0.6,0.2,0.6,0.5c0,0.1,0,0.2-0.1,0.4c-0.2,0.5-0.4,1.3-0.5,2.4c0,0.4-0.2,0.6-0.6,0.6
		c-0.4,0-0.6-0.2-0.6-0.6c0-0.6,0-1.2,0.1-1.7c0-0.1-0.1-0.1-0.2-0.2c-1.2-0.3-2.6-0.4-4.2-0.4c-1.6,0-3.1,0.1-4.5,0.3
		c-0.4,0-0.6,0.1-0.7,0.3l0,0.2c0,1-0.1,1.7-0.3,1.9c-0.1,0.2-0.3,0.4-0.6,0.4c-0.2,0-0.4-0.1-0.4-0.3c0-1.3-0.1-2.4-0.4-3.4
		c0-0.4,0.2-0.6,0.6-0.6c0.3,0,0.5,0,0.7,0.1c0.2,0.1,0.4,0.1,0.6,0.1c0.3,0,0.7,0,1,0c-0.2-0.4-0.4-0.8-0.5-1.2
		c-0.1-0.2-0.1-0.4-0.1-0.6C260,33.4,260.3,33.2,260.7,33.2z M269.3,30.3c0.3,0,0.5,0.1,0.5,0.4c0,0.3-0.1,0.5-0.4,0.6
		c-2.9,0.6-5.3,1-7.2,1.2c-1.2,0.1-2.1,0.2-2.5,0.2c-0.4,0-0.8-0.2-1.1-0.5c-0.3-0.2-0.4-0.5-0.4-0.8c0-0.2,0.1-0.2,0.4-0.3
		c2.5,0,4.5-0.1,6.1-0.3c1.6-0.1,3-0.3,4.1-0.5C269,30.3,269.2,30.3,269.3,30.3z"/>
	<path class="st0" d="M282.6,29.7c0.5,0,0.8,0.2,0.8,0.7l-0.1,2.3c0.4,0,0.8,0,1.1,0c0.4,0,0.9,0,1.4,0l-0.1-2.4
		c0-0.4,0.2-0.6,0.7-0.6c0.5,0,0.7,0.2,0.7,0.7l-0.2,2.4c0.9,0.1,1.8,0.2,2.8,0.3c1.5,0.2,2.9,0.2,4.3,0.2c0.4,0,0.7,0,1-0.1
		c0.1,0,0.1,0.1,0.1,0.3c0,0.4-0.1,0.8-0.3,1.2c-0.2,0.4-0.5,0.6-0.7,0.6c-0.4,0-0.8-0.1-1.2-0.3c-1.6-0.6-3.1-0.9-4.5-1.1
		c-1.1-0.1-2.4-0.2-4-0.2c-1.8,0-3.4,0.1-4.8,0.3c-1.4,0.3-2.8,0.6-4.2,1.1c-0.4,0.1-0.8,0.2-1,0.2c-0.4,0-0.7-0.3-0.7-0.7
		c0-0.2,0.1-0.5,0.4-0.7c0.2-0.2,0.5-0.3,0.8-0.4c3-0.4,5.5-0.7,7.3-0.8l-0.2-2.4C281.9,29.9,282.1,29.7,282.6,29.7z M281.7,34
		c0.4,0,0.7,0.2,0.7,0.6l0.1,1.5h4c0,0,0-0.1,0-0.1l0.3-1.5c0.1-0.3,0.3-0.5,0.7-0.5c0.4,0,0.6,0.2,0.6,0.6l-0.7,1.3
		c0,0,0,0.1,0,0.1h3.3c0.2,0,0.3,0.1,0.3,0.3c0,0.3-0.1,0.5-0.3,0.7c-0.2,0.2-0.4,0.3-0.8,0.3c-0.3,0-1,0-2.1-0.1
		c-0.8,0-1.8,0-2.7,0c0,0.1,0,0.2,0,0.3c0,0.3,0,0.6,0,0.9h4.5c0.2,0,0.3,0.1,0.3,0.3c0,0.3-0.1,0.5-0.2,0.7
		c-0.2,0.2-0.5,0.3-0.8,0.3c-0.2,0-0.8,0-1.6-0.1c-0.7,0-1.4,0-2.1,0c0,0.3,0,0.5,0,0.8v0.3h6.8c0.2,0,0.4,0.1,0.4,0.3
		c0,0.3-0.1,0.6-0.3,0.8c-0.2,0.2-0.5,0.3-0.8,0.3c-0.3,0-1.2-0.1-2.5-0.2c-0.8,0-1.6-0.1-2.5-0.1c2.7,1.6,4.4,2.5,5.1,2.6
		c0.4,0.1,0.9,0.2,1.5,0.2c0.3,0,0.4,0.1,0.4,0.4c0,0.3-0.2,0.6-0.7,0.9c-0.5,0.3-1,0.5-1.5,0.5c-0.3,0-0.6-0.1-0.9-0.4
		c-1.1-1-2.3-1.9-3.6-2.9c-0.5-0.3-0.9-0.6-1.3-0.8l0,3.2c0,0.9-0.2,1.4-0.7,1.4c-0.4,0-0.7-0.5-0.7-1.4c0-1.2,0.1-2.3,0.1-3.3
		c-1,0.9-2,1.7-3.2,2.4c-0.9,0.6-2,1.1-3.3,1.5c-0.3,0.1-0.5,0.1-0.6,0.1c-0.4,0-0.7-0.2-1.1-0.6c-0.3-0.3-0.5-0.6-0.5-0.9
		c0-0.2,0.2-0.2,0.6-0.3c0.9-0.1,1.6-0.2,2-0.3c1.1-0.2,2.1-0.5,3.1-1.1c0.8-0.4,1.5-0.9,2.1-1.4c-1.8,0-3.1,0.1-4,0.2
		c-0.6,0.1-1.1,0.2-1.2,0.2c-0.4,0-0.7-0.2-0.7-0.6c0-0.2,0.1-0.5,0.4-0.6c0.2-0.1,0.5-0.2,0.8-0.2h5.7c0-0.1,0-0.2,0-0.3
		c0-0.3,0-0.5,0-0.8c-1.5,0-2.5,0.1-3.2,0.2c-0.4,0.1-0.7,0.2-0.8,0.2c-0.4,0-0.6-0.2-0.6-0.6c0-0.2,0.1-0.4,0.4-0.6
		c0.2-0.1,0.4-0.2,0.8-0.2h3.5c0-0.3,0-0.6,0-0.9c0-0.1,0-0.2,0-0.3c-1.9,0-3.3,0.1-4.1,0.2c-0.5,0.1-0.9,0.2-1.1,0.2
		c-0.4,0-0.6-0.2-0.6-0.6c0-0.2,0.1-0.4,0.4-0.6c0.2-0.1,0.4-0.2,0.8-0.2h2.7c0,0,0-0.1,0-0.1l-0.5-1.4
		C281.2,34.2,281.4,34,281.7,34z M277.9,30.7c0.3,0.1,0.6,0.1,0.7,0.1c0.4,0,0.8-0.1,1.4-0.3c0.1,0,0.2,0.1,0.2,0.3
		c0,0.2-0.2,0.5-0.6,1c-0.4,0.5-0.7,0.7-1,0.7c-0.2,0-0.4-0.1-0.6-0.4c-0.2-0.3-0.3-0.7-0.3-1.1C277.7,30.8,277.8,30.7,277.9,30.7z
		 M289,30.5L289,30.5c0.6,0.2,0.9,0.3,1.2,0.4c0.2,0,0.5,0.1,0.8,0.1c0.1,0,0.2,0.1,0.2,0.3c0,0.2-0.2,0.5-0.5,0.7
		c-0.5,0.3-0.9,0.5-1.2,0.5c0,0-0.1,0-0.1-0.1c-0.1-0.1-0.3-0.6-0.6-1.4c0-0.1,0-0.1,0-0.2C288.8,30.6,288.9,30.5,289,30.5z"/>
	<path class="st0" d="M304.6,45.7c0,0.3-0.3,0.6-0.9,1c-0.6,0.4-1,0.6-1.3,0.6c-0.3,0-0.6-0.3-1-0.8c-0.8-1.2-1.7-2.3-2.4-3.1
		c-0.7-0.8-1-1.3-1-1.5c0-0.3,0.2-0.4,0.5-0.4c0.2,0,1.5,0.9,3.8,2.8c0.5,0.4,1.2,0.8,2.1,1.2C304.5,45.4,304.6,45.5,304.6,45.7z"/>
	<path class="st0" d="M6.5,63.8C6.8,63.8,7,64,7,64.3C7,64.5,7,64.8,6.8,65c-0.6,0.8-1.3,1.6-2,2.3C4.9,67.4,5,67.6,5,67.9
		c-0.1,0.9-0.1,1.8-0.1,2.5L5,75.2c0,1-0.3,1.5-0.8,1.5c-0.4,0-0.6-0.5-0.6-1.5c0-2,0.1-3.6,0.1-4.8c0-0.6,0-1.2,0-1.9
		c-0.2,0.1-0.3,0.3-0.5,0.4c-0.6,0.4-1,0.7-1.4,0.7c-0.4,0-0.7-0.1-1.1-0.4C0.2,68.8,0,68.5,0,68.3c0-0.2,0.2-0.4,0.5-0.4
		c1.1-0.3,2-0.7,2.9-1.3c1-0.6,1.9-1.4,2.7-2.5C6.3,63.9,6.4,63.8,6.5,63.8z M6.1,59.9c0.4,0,0.6,0.2,0.6,0.5c0,0.2-0.1,0.4-0.2,0.6
		c-1,1.1-2.2,2-3.5,2.9c-0.5,0.3-1,0.5-1.3,0.5c-0.3,0-0.7-0.1-1-0.4c-0.3-0.3-0.5-0.5-0.5-0.8c0-0.2,0.2-0.3,0.5-0.3
		c1-0.2,1.9-0.5,2.7-0.9c0.9-0.4,1.7-1,2.4-1.8C5.9,60,6,59.9,6.1,59.9z M14,66.4c0.6,0,0.9,0.3,0.9,0.8l-0.1,2.2c0,0,0,0,0.1,0h3.3
		c0.4,0,0.7,0.2,0.7,0.6c0,0.3-0.2,0.5-0.7,0.5c-1.4,0-2.6,0.1-3.4,0.2l-0.1,2.8c1,0.3,1.8,0.5,2.2,0.6c1.1,0.2,2,0.3,2.6,0.3
		c0.5,0,0.9,0,1.4-0.1c0.2,0,0.3,0,0.4,0c0.2,0,0.3,0.1,0.3,0.4c0,0.4-0.3,0.9-0.8,1.4c-0.6,0.6-1,0.8-1.4,0.8
		c-0.2,0-0.4-0.1-0.7-0.2c-1.3-0.7-3.8-1.7-7.6-3.1c-0.5-0.2-1-0.3-1.3-0.3c-0.1,0-0.1,0-0.2,0c-0.5,0.9-1,1.7-1.6,2.2
		c-0.4,0.4-0.8,0.6-1,0.6c-0.3,0-0.5-0.1-0.8-0.3c-0.4-0.3-0.5-0.7-0.5-1c0-0.2,0.2-0.4,0.7-0.5c0.7-0.2,1.4-0.7,2.1-1.7
		c0.6-1,1.1-2.2,1.4-3.8c0.1-0.2,0.2-0.3,0.5-0.3c0.4,0,0.6,0.2,0.6,0.7c0,0,0,0.1,0,0.2c-0.2,0.8-0.5,1.7-0.9,2.7c0,0,0.1,0,0.1,0
		c1.2,0.3,2.3,0.6,3.2,0.9l-0.2-5.8C13.2,66.6,13.5,66.4,14,66.4z M9.3,64.6h10.6c0.2,0,0.3,0.1,0.4,0.3c0,0.3-0.1,0.6-0.3,0.8
		c-0.2,0.2-0.5,0.3-0.8,0.3c-0.3,0-0.9-0.1-1.9-0.2c-1,0-2.1-0.1-3.3-0.1c-1.9,0-3.3,0.1-4.2,0.3c-0.5,0.1-0.8,0.2-1,0.2
		c-0.5,0-0.8-0.3-0.8-0.8c0-0.2,0.2-0.4,0.4-0.6C8.6,64.7,8.9,64.6,9.3,64.6z M11,60.1c0.4,0.1,0.6,0.3,0.7,0.6
		c0.2,1.5,0.4,2.4,0.4,2.8c0,0.3-0.2,0.4-0.5,0.4c-0.2,0-0.4-0.2-0.6-0.6c-0.2-0.6-0.4-1.1-0.6-1.7c-0.1-0.3-0.2-0.6-0.2-0.8
		C10.1,60.3,10.4,60.1,11,60.1z M17.2,60.1c0.6,0,0.9,0.3,0.9,0.7c0,0.2-0.1,0.4-0.2,0.6c-0.4,0.8-0.8,1.4-1.1,1.9
		c-0.2,0.4-0.4,0.6-0.6,0.6c-0.2,0-0.3-0.1-0.4-0.3c0-0.2,0.2-1.2,0.6-3.1C16.6,60.2,16.8,60.1,17.2,60.1z"/>
	<path class="st0" d="M32.9,59.7c0.5,0,0.8,0.2,0.8,0.7l-0.1,2.3c0.4,0,0.8,0,1.1,0c0.4,0,0.9,0,1.4,0L36,60.4
		c0-0.4,0.2-0.6,0.7-0.6c0.5,0,0.7,0.2,0.7,0.7l-0.2,2.4c0.9,0.1,1.8,0.2,2.8,0.3c1.5,0.2,2.9,0.2,4.3,0.2c0.4,0,0.7,0,1-0.1
		c0.1,0,0.1,0.1,0.1,0.3c0,0.4-0.1,0.8-0.3,1.2c-0.2,0.4-0.5,0.6-0.7,0.6c-0.4,0-0.8-0.1-1.2-0.3c-1.6-0.6-3.1-0.9-4.5-1.1
		c-1.1-0.1-2.4-0.2-4-0.2c-1.8,0-3.4,0.1-4.8,0.3c-1.4,0.3-2.8,0.6-4.2,1.1c-0.4,0.1-0.8,0.2-1,0.2c-0.4,0-0.7-0.3-0.7-0.7
		c0-0.2,0.1-0.5,0.4-0.7c0.2-0.2,0.5-0.3,0.8-0.4c3-0.4,5.5-0.7,7.3-0.8l-0.2-2.4C32.2,59.9,32.4,59.7,32.9,59.7z M32,64
		c0.4,0,0.7,0.2,0.7,0.6l0.1,1.5h4c0,0,0-0.1,0-0.1l0.3-1.5c0.1-0.3,0.3-0.5,0.7-0.5c0.4,0,0.6,0.2,0.6,0.6L37.6,66c0,0,0,0.1,0,0.1
		h3.3c0.2,0,0.3,0.1,0.3,0.3c0,0.3-0.1,0.5-0.3,0.7c-0.2,0.2-0.4,0.3-0.8,0.3c-0.3,0-1,0-2.1-0.1c-0.8,0-1.8,0-2.7,0
		c0,0.1,0,0.2,0,0.3c0,0.3,0,0.6,0,0.9h4.5c0.2,0,0.3,0.1,0.3,0.3c0,0.3-0.1,0.5-0.2,0.7c-0.2,0.2-0.5,0.3-0.8,0.3
		c-0.2,0-0.8,0-1.6-0.1c-0.7,0-1.4,0-2.1,0c0,0.3,0,0.5,0,0.8v0.3h6.8c0.2,0,0.4,0.1,0.4,0.3c0,0.3-0.1,0.6-0.3,0.8
		c-0.2,0.2-0.5,0.3-0.8,0.3s-1.2-0.1-2.5-0.2c-0.8,0-1.6-0.1-2.5-0.1c2.7,1.6,4.4,2.5,5.1,2.6c0.4,0.1,0.9,0.2,1.5,0.2
		c0.3,0,0.4,0.1,0.4,0.4c0,0.3-0.2,0.6-0.7,0.9c-0.5,0.3-1,0.5-1.5,0.5c-0.3,0-0.6-0.1-0.9-0.4c-1.1-1-2.3-1.9-3.6-2.9
		c-0.5-0.3-0.9-0.6-1.3-0.8l0,3.2c0,0.9-0.2,1.4-0.7,1.4c-0.4,0-0.7-0.5-0.7-1.4c0-1.2,0.1-2.3,0.1-3.3c-1,0.9-2,1.7-3.2,2.4
		c-0.9,0.6-2,1.1-3.3,1.5C27.2,76,27,76,26.9,76c-0.4,0-0.7-0.2-1.1-0.6c-0.3-0.3-0.5-0.6-0.5-0.9c0-0.2,0.2-0.2,0.6-0.3
		c0.9-0.1,1.6-0.2,2-0.3c1.1-0.2,2.1-0.5,3.1-1.1c0.8-0.4,1.5-0.9,2.1-1.4c-1.8,0-3.1,0.1-4,0.2c-0.6,0.1-1.1,0.2-1.2,0.2
		c-0.4,0-0.7-0.2-0.7-0.6c0-0.2,0.1-0.5,0.4-0.6c0.2-0.1,0.5-0.2,0.8-0.2H34c0-0.1,0-0.2,0-0.3c0-0.3,0-0.5,0-0.8
		c-1.5,0-2.5,0.1-3.2,0.2c-0.4,0.1-0.7,0.2-0.8,0.2c-0.4,0-0.6-0.2-0.6-0.6c0-0.2,0.1-0.4,0.4-0.6c0.2-0.1,0.4-0.2,0.8-0.2h3.5
		c0-0.3,0-0.6,0-0.9c0-0.1,0-0.2,0-0.3c-1.9,0-3.3,0.1-4.1,0.2c-0.5,0.1-0.9,0.2-1.1,0.2c-0.4,0-0.6-0.2-0.6-0.6
		c0-0.2,0.1-0.4,0.4-0.6c0.2-0.1,0.4-0.2,0.8-0.2h2.7c0,0,0-0.1,0-0.1l-0.5-1.4C31.5,64.2,31.7,64,32,64z M28.2,60.7
		c0.3,0.1,0.6,0.1,0.7,0.1c0.4,0,0.8-0.1,1.4-0.3c0.1,0,0.2,0.1,0.2,0.3c0,0.2-0.2,0.5-0.6,1c-0.4,0.5-0.7,0.7-1,0.7
		c-0.2,0-0.4-0.1-0.6-0.4C28.1,61.8,28,61.5,28,61C28,60.8,28.1,60.7,28.2,60.7z M39.3,60.5L39.3,60.5c0.6,0.2,0.9,0.3,1.2,0.4
		c0.2,0,0.5,0.1,0.8,0.1c0.1,0,0.2,0.1,0.2,0.3c0,0.2-0.2,0.5-0.5,0.7c-0.5,0.3-0.9,0.5-1.2,0.5c0,0-0.1,0-0.1-0.1
		c-0.1-0.1-0.3-0.6-0.6-1.4c0-0.1,0-0.1,0-0.2C39.1,60.6,39.2,60.5,39.3,60.5z"/>
	<path class="st0" d="M49.3,74.7c0.4,0.1,0.7,0.1,0.9,0.1c0.8,0,1.9-0.2,3.2-0.6c0.2,0,0.3,0.1,0.3,0.3c0,0.2-0.4,0.7-1.3,1.4
		c-0.8,0.7-1.6,1.1-2.2,1.1c-0.3,0-0.6-0.2-0.8-0.5C49.2,76,49,75.6,49,75.1C49,74.8,49.1,74.7,49.3,74.7z M51.2,65.3
		c0.2,0,0.5,0,0.7,0.1c0.2,0.1,0.6,0.1,1.1,0.1h4.6c1,0,2.3,0,3.7,0.1c0.2,0,0.6-0.1,0.9-0.2c0.5,0,0.7,0.3,0.7,0.8
		c0,0,0,0.1-0.1,0.2c-0.1,0.3-0.1,0.7-0.2,1.4c-0.1,0.8-0.1,1.8-0.1,2.7c0,0.7,0,1.6,0.1,2.7c0,0.5-0.2,0.7-0.7,0.7
		c-2-0.1-3.9-0.2-5.5-0.2c-2,0-3.2,0-3.8,0.1c-0.4,0-1,0.1-1.7,0.1c-0.4,0-0.6-0.2-0.6-0.6c0.1-1.4,0.2-2.5,0.2-3.6
		c0-1-0.1-2.2-0.2-3.7C50.5,65.6,50.7,65.3,51.2,65.3z M56.6,72.6c1.3,0,2.8,0,4.4,0.1c0.3,0,0.4-0.1,0.4-0.3c0-0.4,0-0.8,0-1.2
		c-3.9,0-7,0.1-9.2,0.2c0,0-0.1,0-0.1,0c0,0.3,0,0.6-0.1,1c0,0.2,0.2,0.4,0.6,0.4C53.7,72.7,55,72.6,56.6,72.6z M52.1,70.3
		c0.1,0,0.1,0,0.2,0h9.1c0-0.5,0-1,0-1.4c-3.9,0-7,0.1-9.2,0.2h0C52.1,69.5,52.1,69.9,52.1,70.3z M52.8,60.1c0.2,0,0.5,0,0.7,0.1
		c0.2,0.1,0.6,0.1,1,0.1h3c0.7,0,1.5,0,2.4,0.1c0.2,0,0.5-0.1,0.9-0.2c0.4,0,0.6,0.2,0.6,0.7l0,0.1c-0.1,0.1-0.1,0.4-0.2,0.7
		c0,0.4-0.1,0.8-0.1,1.3c0,0.2,0,0.5,0.1,0.9c0,0.5-0.2,0.7-0.6,0.7c-1.4-0.1-2.7-0.2-3.8-0.2c-1.4,0-2.4,0-2.8,0.1
		c-0.3,0-0.7,0.1-1.2,0.1c-0.4,0-0.6-0.2-0.6-0.6c0.1-0.7,0.2-1.3,0.2-1.8c0-0.4-0.1-0.9-0.2-1.5C52.1,60.3,52.4,60.1,52.8,60.1z
		 M52.1,68C52.2,68,52.2,68,52.1,68h9.2c0,0,0,0,0,0c0-0.4,0-0.7,0-1c0-0.2-0.1-0.3-0.4-0.3c-1.9-0.1-4.7-0.1-8.4-0.1
		c-0.3,0-0.5,0.2-0.5,0.5C52.1,67.4,52.1,67.7,52.1,68z M56.8,63.4c0.8,0,1.8,0,2.8,0.1c0.2,0,0.4-0.1,0.4-0.3v-1.5
		c0-0.2-0.1-0.3-0.2-0.3c-1.3-0.1-3.1-0.1-5.5-0.1c-0.3,0-0.5,0.2-0.5,0.5c0,0.5-0.1,0.9-0.2,1.3c0,0.2,0.2,0.4,0.6,0.4
		C54.9,63.4,55.7,63.4,56.8,63.4z M59.8,74.3c0,0,0.1,0,0.2,0c0.9,0.4,1.6,0.7,2.2,0.8c0.4,0.1,0.9,0.2,1.5,0.2
		c0.2,0,0.3,0.1,0.3,0.3c0,0.3-0.2,0.5-0.5,0.8c-0.6,0.4-1.1,0.6-1.4,0.6c-0.2,0-0.3-0.1-0.5-0.2c-0.3-0.2-0.9-0.8-1.9-1.9
		c-0.1-0.1-0.1-0.2-0.1-0.2C59.6,74.3,59.6,74.3,59.8,74.3z"/>
	<path class="st0" d="M85.8,68.1c0,2.8-1.5,4.9-4.6,6.3C80,75,79,75.3,78.3,75.3c-0.4,0-0.8-0.2-1.2-0.5c-0.4-0.3-0.7-0.7-0.7-1.1
		c0-0.1,0.2-0.3,0.6-0.3c0.3,0,0.7-0.1,1.2-0.2c1.4-0.2,2.6-0.6,3.5-1.1c0.8-0.5,1.5-1.1,2-1.8c0.6-0.8,0.8-1.7,0.8-2.6
		c0-0.7-0.2-1.5-0.7-2.2c-0.9-1.6-2.5-2.4-4.8-2.4c-0.1,0-0.2,0-0.4,0c-0.2,0-0.3,0-0.3,0c-0.9,4.1-2.1,7.2-3.6,9
		c-0.9,1.1-1.6,1.6-2.2,1.6c-0.8,0-1.5-0.6-2.1-1.9c-0.4-1-0.6-2-0.6-3c0-1.5,0.5-2.9,1.5-4.1c1.6-1.9,4-2.8,7.2-2.8
		c2,0,3.7,0.5,5.1,1.6C85,64.6,85.8,66.2,85.8,68.1z M76.7,63.3c-2.1,0.4-3.6,1.1-4.5,2.2c-0.9,1.1-1.4,2.2-1.4,3.2
		c0,0.6,0.1,1.2,0.4,2c0.3,0.9,0.7,1.3,1.2,1.3c0.4,0,0.9-0.3,1.4-1C75.1,69.3,76,66.7,76.7,63.3z"/>
	<path class="st0" d="M91.4,61.5h6c0.2,0,0.3,0.1,0.3,0.3c0,0.3-0.1,0.5-0.3,0.6c-0.2,0.2-0.5,0.3-0.8,0.3c-0.1,0-0.5,0-1-0.1
		c-0.3,0-0.5,0-0.8,0l0,3.3h2.4c0.2,0,0.3,0.1,0.3,0.3c0,0.2-0.1,0.5-0.3,0.6c-0.2,0.2-0.4,0.3-0.8,0.3c-0.1,0-0.4,0-0.9-0.1
		c-0.2,0-0.5,0-0.7,0l0,3.5c1.1-0.3,1.9-0.4,2.5-0.5c0.3,0,0.4,0.1,0.4,0.4c0,0.4-0.2,0.6-0.5,0.7c-2.3,0.6-4.4,1.4-6.3,2.3
		c-0.5,0-0.7-0.2-0.7-0.6c0-0.4,0.1-0.6,0.2-0.8c0.1-0.2,0.3-0.3,0.6-0.4c0.9-0.2,1.7-0.5,2.5-0.6l0-3.8c-0.8,0-1.4,0.1-1.8,0.2
		c-0.3,0.1-0.4,0.2-0.5,0.2c-0.4,0-0.7-0.2-0.7-0.6c0-0.2,0.1-0.4,0.4-0.6c0.2-0.1,0.5-0.2,0.8-0.2h1.8l0-3.3
		c-0.8,0-1.5,0.1-1.9,0.2C91.2,62.9,91,63,90.9,63c-0.4,0-0.7-0.3-0.7-0.7c0-0.2,0.1-0.4,0.4-0.6C90.8,61.6,91,61.5,91.4,61.5z
		 M100.7,66.7c0.2,0,0.4,0,0.6,0c0.2,0,0.5,0,0.9,0h2.8c0.6,0,1.4,0,2.2,0.1c0.2,0,0.5,0,0.8-0.1c0.4,0,0.6,0.2,0.6,0.6
		c0,0,0,0,0,0.1c-0.1,0.1-0.1,0.3-0.2,0.6c0,0.4-0.1,0.7-0.1,1.1c0,0.2,0,0.4,0.1,0.8c0,0.4-0.2,0.6-0.6,0.6
		c-1.3-0.1-2.4-0.2-3.5-0.2c0,0.1,0.1,0.3,0.1,0.5c-0.1,0.6-0.1,1.2-0.1,1.7l0.1,2.8c0,0.9-0.2,1.3-0.7,1.3c-0.4,0-0.6-0.4-0.6-1.3
		c0.1-1.2,0.1-2.1,0.1-2.8c0-0.4,0-0.8,0-1.2c-1,1.2-2.2,2.2-3.6,3.2c-0.6,0.4-1.1,0.6-1.4,0.6c-0.3,0-0.6-0.1-1-0.4
		c-0.3-0.3-0.5-0.5-0.5-0.8c0-0.2,0.2-0.3,0.5-0.3c1.1-0.2,2.1-0.6,3-1.2c0.9-0.5,1.7-1.2,2.5-2c-0.4,0-0.7,0-0.9,0.1
		c-0.3,0-0.6,0.1-1.1,0.2c-0.4,0-0.6-0.2-0.6-0.6c0.1-0.6,0.2-1.1,0.2-1.5c0-0.3-0.1-0.7-0.2-1.2C100,67,100.2,66.7,100.7,66.7z
		 M99.2,65h11c0.2,0,0.3,0.1,0.3,0.3c0,0.2-0.1,0.5-0.3,0.6c-0.2,0.2-0.4,0.3-0.8,0.3c-0.3,0-0.9,0-1.9-0.1c-1.1,0-2.2,0-3.5,0
		c-2,0-3.4,0.1-4.3,0.2c-0.5,0.1-0.8,0.2-1,0.2c-0.4,0-0.6-0.2-0.7-0.6c0-0.2,0.2-0.4,0.4-0.6C98.6,65,98.9,65,99.2,65z M99.4,60.1
		c0.2,0,0.4,0,0.6,0c0.2,0,0.5,0,0.9,0h4.2c0.9,0,2.1,0,3.4,0.1c0.2,0,0.5,0,0.7-0.1c0.4,0,0.7,0.2,0.7,0.6l0,0.1
		c-0.1,0.1-0.1,0.3-0.2,0.6c0,0.4-0.1,0.7-0.1,1.2c0,0.2,0,0.5,0.1,0.8c0,0.4-0.2,0.7-0.6,0.7c-1.9-0.1-3.6-0.2-5.1-0.2
		c-1.7,0-2.8,0-3.3,0.1c-0.4,0-0.9,0.1-1.5,0.2c-0.4,0-0.6-0.2-0.6-0.7c0.1-0.6,0.2-1.1,0.2-1.5c0-0.4-0.1-0.8-0.2-1.3
		C98.7,60.3,98.9,60.1,99.4,60.1z M102.2,63l0-1.8c-0.5,0-1,0-1.6,0c-0.3,0-0.4,0.1-0.4,0.4c0,0.4-0.1,0.7-0.2,1
		c0,0.3,0.2,0.5,0.5,0.5C101,63.1,101.6,63,102.2,63z M104,69.6c0.8,0,1.7,0,2.7,0.1c0.2,0,0.4-0.1,0.4-0.4v-1.1
		c0-0.1-0.1-0.2-0.2-0.2c-1.2-0.1-2.9-0.1-5.1-0.1c-0.3,0-0.4,0.1-0.4,0.4c0,0.3-0.1,0.6-0.2,0.9c0,0.3,0.2,0.5,0.5,0.5
		C102.5,69.6,103.2,69.6,104,69.6z M104,63c0.4,0,0.8,0,1.2,0l-0.1-1.8c-0.6,0-1.2,0-1.9,0V63C103.6,63,103.8,63,104,63z M109.7,70
		c0.5,0,0.7,0.2,0.7,0.7c0,0.3-0.2,0.5-0.5,0.7c-0.7,0.4-1.6,0.8-2.7,1.2c-0.1,0-0.2,0.1-0.3,0.1l0,0c1.8,1.2,2.9,1.9,3.3,2.1
		c0.3,0.1,0.6,0.1,1,0.2c0.3,0,0.4,0.1,0.4,0.3c0,0.3-0.2,0.5-0.6,0.8c-0.4,0.3-0.9,0.4-1.3,0.4c-0.3,0-0.6-0.1-0.8-0.3
		c-0.6-0.8-1.3-1.6-2-2.4c-0.3-0.3-0.6-0.6-0.9-0.7c0,0-0.1,0-0.1,0c-0.1,0-0.1,0-0.1,0c-0.4,0-0.6-0.2-0.6-0.5
		c0-0.2,0.1-0.4,0.3-0.5c1.6-0.8,2.9-1.4,3.8-2.1C109.5,70.1,109.6,70,109.7,70z M106.3,61.2V63c0.6,0,1.2,0,1.8,0.1
		c0.3,0,0.4-0.1,0.4-0.4v-1.2c0-0.1-0.1-0.2-0.2-0.2C107.7,61.3,107,61.3,106.3,61.2z"/>
	<path class="st0" d="M115.4,64.4h1.9l0-3.6c0-0.6,0.2-0.8,0.7-0.8c0.6,0,0.9,0.3,0.9,0.8l-0.1,3.6h2.3c0.2,0,0.3,0.1,0.3,0.3
		c0,0.3-0.1,0.5-0.3,0.6c-0.2,0.2-0.4,0.3-0.8,0.3c-0.1,0-0.4,0-0.9-0.1c-0.2,0-0.4,0-0.6,0l-0.1,4.3c1.1-0.3,2-0.4,2.6-0.5
		c0.3,0,0.4,0.1,0.4,0.4c0,0.4-0.2,0.6-0.5,0.6c-2.2,0.6-4.2,1.3-6,2.1c-0.5,0-0.7-0.2-0.7-0.6c0-0.4,0.1-0.6,0.2-0.8
		c0.1-0.2,0.2-0.3,0.6-0.4c0.8-0.2,1.5-0.4,2.2-0.5l0-4.6c-0.8,0-1.4,0.1-1.8,0.2c-0.3,0.1-0.5,0.2-0.6,0.2c-0.4,0-0.7-0.2-0.7-0.6
		c0-0.2,0.1-0.5,0.4-0.6C114.7,64.5,115,64.4,115.4,64.4z M124.3,66.2c0.2,0,0.5,0,0.7,0c0.2,0,0.6,0,1,0h3c0.7,0,1.5,0,2.4,0.1
		c0.2,0,0.5,0,0.8-0.1c0.4,0,0.7,0.2,0.7,0.6c0,0,0,0.1-0.1,0.2c-0.1,0.2-0.1,0.5-0.1,0.9c0,0.6-0.1,1.2-0.1,1.8c0,0.4,0,1,0.1,1.7
		c0,0.4-0.2,0.7-0.7,0.7c-0.7-0.1-1.3-0.1-1.9-0.1c0,0,0,0.1,0,0.1c0,0.6,0,1.4-0.1,2.3c0,0.2,0.1,0.3,0.2,0.3
		c0.2,0,0.8,0.1,1.6,0.1c1.4,0,2.7-0.2,3.7-0.6c0.2,0,0.3,0.2,0.3,0.5c0,0.4-0.1,0.8-0.4,1.3c-0.3,0.5-0.6,0.8-0.9,0.8
		c-0.2,0-1.9-0.2-5.1-0.7c-0.5-0.1-0.7-0.4-0.7-0.8c0.1-0.9,0.1-1.5,0.1-2c0-0.4,0-0.9-0.1-1.4c-0.2,0-0.4,0-0.7,0
		c-0.3,0-0.6,0-0.9,0c0,0.1,0,0.1,0,0.2c0,0-0.1,0-0.1,0.1c-0.3,0.6-0.9,1.4-1.7,2.2c-0.8,0.8-1.7,1.3-2.6,1.7
		c-0.6,0.3-1.1,0.4-1.5,0.4c-0.3,0-0.5-0.1-0.8-0.3c-0.4-0.3-0.6-0.6-0.6-1c0-0.3,0.3-0.4,0.8-0.5c1.1-0.1,2.2-0.4,3.2-0.9
		c0.9-0.5,1.5-1.2,2-1.9c-0.2,0-0.4,0-0.6,0c-0.3,0-0.7,0.1-1.2,0.2c-0.4,0-0.6-0.2-0.6-0.7c0.1-0.9,0.2-1.7,0.2-2.4
		c0-0.7-0.1-1.4-0.2-2.4C123.6,66.4,123.8,66.2,124.3,66.2z M128.1,59.6c0.6,0,0.9,0.3,0.9,0.8c-0.1,0.3-0.2,0.6-0.2,0.9h4.6
		c0.2,0,0.3,0.1,0.3,0.3c0,0.3-0.1,0.5-0.3,0.6c-0.2,0.2-0.5,0.3-0.8,0.3c-0.2,0-0.7,0-1.6-0.1l-0.4,1.7h3.8c0.2,0,0.4,0.1,0.4,0.2
		c0,0.3-0.1,0.6-0.3,0.9c-0.2,0.2-0.5,0.4-0.8,0.4c-0.3,0-1-0.1-2-0.2c-1.1-0.1-2.3-0.1-3.6-0.1c-2,0-3.5,0.1-4.4,0.2
		c-0.5,0.1-0.9,0.1-1,0.1c-0.4,0-0.6-0.2-0.7-0.6c0-0.2,0.2-0.4,0.4-0.6c0.2-0.1,0.4-0.2,0.8-0.2h2.9l-0.5-1.7c-0.4,0-0.7,0.1-1,0.1
		c-0.4,0.1-0.7,0.2-0.8,0.2c-0.4,0-0.6-0.2-0.7-0.6c0-0.2,0.2-0.4,0.4-0.6c0.2-0.1,0.4-0.2,0.8-0.2h3.4c0-0.3-0.1-0.6-0.2-0.8
		C127.3,59.9,127.5,59.6,128.1,59.6z M128.1,71.1c0.9,0,1.8,0,2.9,0.1c0.3,0,0.4-0.1,0.4-0.4v-1.1c0,0-0.1,0-0.1,0
		c-2.6,0-4.6,0.1-6.1,0.2c0,0-0.1,0-0.1,0c0,0.3,0,0.6-0.1,0.8c0,0.3,0.2,0.5,0.6,0.5C126.3,71.1,127.1,71.1,128.1,71.1z
		 M125.2,68.7c0,0,0.1,0,0.1,0h5.9c0.1,0,0.1,0,0.2,0v-1.2c0-0.1-0.1-0.2-0.2-0.2c-1.3,0-3.1-0.1-5.5-0.1c-0.3,0-0.5,0.1-0.5,0.4
		C125.2,68,125.2,68.4,125.2,68.7z M126.9,64.2h2.7l0.2-1.8c-0.5,0-1.1,0-1.7,0c-0.5,0-1,0-1.4,0L126.9,64.2z"/>
	<path class="st0" d="M139.8,61.9h6.9c0.2,0,0.4,0.1,0.4,0.3c0,0.3-0.1,0.6-0.3,0.8c-0.2,0.2-0.5,0.3-0.8,0.3
		c-0.2,0-0.6-0.1-1.2-0.2c-0.6,0-1.3-0.1-2.1-0.1c-0.1,0-0.2,0-0.3,0c0,1-0.2,2-0.4,2.9c-0.2,0.7-0.3,1.2-0.6,1.8c0,0,0.1,0,0.1,0
		c0.2,0,0.4,0,0.6,0.1c0.2,0.1,0.5,0.1,0.9,0.1h1.2c0.3,0,0.6,0,1,0.1c0.2,0,0.4-0.1,0.7-0.2c0.4,0,0.7,0.2,0.7,0.7
		c0,0,0,0.1-0.1,0.1c-0.1,0.1-0.1,0.4-0.1,0.8c0,0.5-0.1,1-0.1,1.5c0,0.3,0,0.7,0.1,1.2c0,0.5-0.2,0.7-0.6,0.7
		c-0.8-0.1-1.5-0.2-2.2-0.2c-0.8,0-1.3,0-1.6,0.1c-0.2,0-0.4,0.1-0.7,0.1c-0.4,0-0.6-0.2-0.6-0.6c0.1-0.8,0.2-1.5,0.2-2.1
		c0-0.4,0-0.9-0.1-1.4c0,0.1-0.1,0.2-0.2,0.3c-0.5,0.8-1,1.4-1.4,1.8c-0.3,0.3-0.6,0.4-0.9,0.4c-0.3,0-0.5-0.1-0.7-0.4
		c-0.1-0.1-0.2-0.3-0.2-0.6c0-0.2,0.1-0.4,0.2-0.6c0.6-0.4,1.2-0.9,1.8-1.7c0.4-0.6,0.8-1.4,1.2-2.5c0.2-0.7,0.4-1.6,0.5-2.6
		c-0.5,0-0.9,0.1-1.2,0.1c-0.3,0.1-0.5,0.2-0.6,0.2c-0.5,0-0.7-0.2-0.7-0.6c0-0.2,0.1-0.4,0.4-0.6C139.2,61.9,139.4,61.9,139.8,61.9
		z M143.7,71.6c0.4,0,0.7,0,1.1,0.1c0.3,0,0.4-0.1,0.4-0.3v-2.1c0-0.2-0.1-0.3-0.2-0.3c-0.5-0.1-1.3-0.1-2.3-0.1
		c-0.2,0-0.4,0.2-0.4,0.5c0,0.7-0.1,1.3-0.2,2c0,0.2,0.2,0.4,0.5,0.4C143,71.6,143.4,71.6,143.7,71.6z M149,61h9.4
		c0.2,0,0.4,0.1,0.4,0.3c0,0.3-0.1,0.6-0.3,0.8c-0.2,0.2-0.5,0.3-0.8,0.3c-0.2,0-0.7-0.1-1.6-0.2c0,0.1,0,0.2,0,0.4
		c0,1.3-0.1,2.5-0.1,3.5c0.7,0,1.3,0,1.9,0c0.5,0,1.1-0.1,1.8-0.2c0.1,0,0.2,0.2,0.2,0.5c0,0.5-0.2,1-0.6,1.5
		c-0.3,0.4-0.5,0.6-0.7,0.6c-0.3,0-0.6-0.1-0.9-0.3c-0.5-0.3-1-0.5-1.6-0.7l0.1,7.7c0,1-0.3,1.5-0.8,1.5c-0.4,0-0.6-0.5-0.6-1.5
		c0-3.3,0.1-5.9,0.1-7.9c-0.5,0-1-0.1-1.6-0.1c-0.5,0-0.9,0-1.4,0c0,3.3-0.4,5.5-1.1,6.7c-0.7,1.3-1.4,2-2.1,2
		c-0.4,0-0.8-0.2-1.2-0.6c-0.2-0.3-0.3-0.5-0.3-0.8c0-0.2,0.1-0.3,0.4-0.4c1-0.1,1.8-0.8,2.4-2.1c0.4-0.8,0.6-2.4,0.6-4.7
		c-0.1,0-0.2,0-0.3,0c-0.6,0.1-1.4,0.4-2.6,1c-0.5,0-0.8-0.2-0.8-0.6c0-0.3,0.1-0.5,0.3-0.7c0.3-0.3,0.6-0.5,1.1-0.5
		c0.8-0.1,1.6-0.2,2.3-0.3c0-1.2-0.1-2.6-0.2-3.9c0,0,0-0.1,0-0.1c-0.4,0-0.7,0.1-0.9,0.1c-0.4,0.1-0.7,0.2-0.8,0.2
		c-0.5,0-0.7-0.2-0.8-0.6c0-0.2,0.2-0.4,0.4-0.6C148.4,61.1,148.6,61,149,61z M154.7,66.1c0-1.1,0-2.2-0.1-3.5c0-0.2,0-0.3,0-0.4
		c-0.5,0-1,0-1.6,0c-0.5,0-0.9,0-1.3,0c0,0.1,0,0.2,0,0.4c0,1.5,0,2.7,0,3.6c0.5,0,1,0,1.4,0C153.7,66.1,154.2,66.1,154.7,66.1z"/>
	<path class="st0" d="M169,59.9c0.4,0,0.6,0.2,0.6,0.5c0,0.2-0.1,0.5-0.2,0.7c-0.7,0.9-1.6,1.8-2.5,2.6c0.1,0.2,0.1,0.4,0.1,0.6
		c-0.1,1.3-0.1,2.5-0.1,3.6l0.1,7.4c0,1-0.3,1.5-0.8,1.5c-0.4,0-0.7-0.5-0.7-1.5c0.1-3.2,0.1-5.6,0.1-7.4c0-0.9,0-2-0.1-3.1
		c-0.1,0.1-0.2,0.1-0.3,0.2c-0.6,0.5-1.1,0.7-1.5,0.7c-0.3,0-0.7-0.1-1.1-0.4c-0.4-0.3-0.5-0.6-0.5-0.9c0-0.2,0.2-0.3,0.5-0.4
		c1.2-0.3,2.2-0.7,3.1-1.4c1-0.6,2-1.5,2.9-2.6C168.7,60,168.9,59.9,169,59.9z M169.1,65.2c0.4,0,0.6,0.3,0.6,0.8
		c-0.1,0.7-0.1,1.3-0.1,1.8l0.1,3.1c0,0.9-0.2,1.4-0.7,1.4c-0.4,0-0.7-0.5-0.7-1.4c0.1-1.3,0.1-2.4,0.1-3.1c0-0.6,0-1.2-0.1-1.8
		C168.3,65.4,168.5,65.2,169.1,65.2z M174.4,60.1c0.4,0,0.6,0.2,0.6,0.5c0,0.2-0.1,0.4-0.2,0.6c-0.1,0.2-0.3,0.4-0.5,0.6h7.1
		c0.2,0,0.4,0.1,0.4,0.2c0,0.3-0.1,0.6-0.3,0.8c-0.2,0.3-0.5,0.4-0.8,0.4c-0.2,0-0.6-0.1-1.3-0.2c-0.2,0-0.5,0-0.7,0
		c0,0,0,0.1,0,0.1c-0.4,0.7-1,1.5-1.8,2.4c2.4,1.1,4,1.7,4.7,1.8c0.6,0.1,1.3,0.2,2,0.2c0.3,0,0.5,0.1,0.5,0.4c0,0.3-0.3,0.6-0.8,1
		c-0.5,0.3-1.1,0.5-1.6,0.5c-0.4,0-0.7-0.1-1-0.4c-1.4-0.9-2.9-1.9-4.6-2.8c-0.8,0.6-1.6,1.1-2.4,1.5c-0.7,0.3-1.3,0.5-1.8,0.5
		c-0.2,0-0.4-0.1-0.7-0.3c-0.3-0.3-0.5-0.6-0.5-0.9c0-0.2,0.2-0.3,0.6-0.4c1.2-0.1,2.4-0.5,3.5-1.1c-0.5-0.3-1-0.5-1.5-0.6
		c-0.3-0.1-0.5-0.2-0.5-0.4c0-0.4,0.2-0.6,0.6-0.6c0.3,0,0.7,0.2,1.3,0.5c0.4,0.2,0.7,0.3,1,0.5c0.8-0.6,1.4-1.3,1.8-2.2
		c-0.2,0-0.3,0-0.5,0c-1.4,0-2.4,0-3,0.1c-0.4,0.1-0.6,0.1-0.7,0.1c-0.1,0-0.2,0-0.2,0c-0.2,0.2-0.5,0.5-0.7,0.7
		c-0.3,0.3-0.6,0.5-0.8,0.5c-0.3,0-0.6-0.1-1-0.4c-0.3-0.3-0.5-0.5-0.5-0.8c0-0.2,0.2-0.3,0.5-0.3c0.7-0.2,1.3-0.5,1.8-0.9
		c0.6-0.4,1.1-1,1.7-1.7C174.2,60.2,174.3,60.1,174.4,60.1z M180.4,71.4c0.4,0,0.6,0.2,0.6,0.6c0,0.2-0.1,0.4-0.2,0.5
		c-1.7,1.3-3,2.2-4,2.6c-1.2,0.6-2.5,1-4,1.4c-0.4,0.1-0.7,0.1-1,0.1c-0.4,0-0.8-0.1-1.1-0.4c-0.3-0.2-0.4-0.5-0.4-0.8
		c0-0.2,0.1-0.3,0.4-0.3c1.6-0.1,2.9-0.4,3.8-0.6c0.8-0.2,1.6-0.5,2.4-0.9c0.9-0.4,1.9-1.1,3-2C180.1,71.5,180.2,71.4,180.4,71.4z
		 M178.9,69.5c0.3,0,0.5,0.2,0.5,0.5c0,0.2-0.1,0.3-0.2,0.5c-1.4,1-3.1,1.9-5,2.7c-0.8,0.3-1.4,0.5-1.9,0.5c-0.3,0-0.6-0.1-0.9-0.4
		c-0.3-0.2-0.5-0.5-0.5-0.7c0-0.2,0.1-0.2,0.4-0.3c1.4-0.2,2.7-0.5,3.8-0.9c1.3-0.4,2.4-0.9,3.5-1.7
		C178.7,69.5,178.8,69.5,178.9,69.5z M177.5,67.9c0.3,0,0.5,0.1,0.5,0.4c0,0.2-0.1,0.4-0.2,0.6c-1.1,0.6-2.4,1.1-3.8,1.5
		c-0.6,0.2-1.1,0.3-1.4,0.3c-0.3,0-0.5-0.1-0.8-0.3c-0.3-0.2-0.4-0.5-0.4-0.7c0-0.2,0.1-0.2,0.4-0.3c1.1-0.1,2-0.2,2.9-0.5
		c0.9-0.2,1.8-0.5,2.6-0.9C177.3,67.9,177.4,67.9,177.5,67.9z"/>
	<path class="st0" d="M198.1,63.3c0,0.2-0.1,0.4-0.3,0.7c-0.2,0.3-0.3,0.4-0.5,0.5c-1.1-0.2-2-0.3-2.8-0.3c-0.1,0-0.3,0-0.5,0
		c-0.2,0-0.4,0-0.5,0c-0.4,1.7-0.8,3.2-1.4,4.7c-1.6,4.1-2.9,6.2-3.8,6.2c-0.3,0-0.6-0.1-1-0.3c-0.5-0.2-0.7-0.4-0.7-0.6
		c0-0.1,0.3-0.5,1-1.2c1.1-1.1,2.1-2.5,2.9-4.1c0.9-1.7,1.5-3.2,1.8-4.7c-0.6,0-1.5,0.2-2.7,0.4c-0.9,0.3-1.4,0.4-1.3,0.4
		c-0.4,0-0.6-0.2-0.6-0.5c0-0.3,0.1-0.6,0.2-0.7c0.2-0.2,0.9-0.3,2.2-0.5c0.8,0,1.7-0.1,2.5-0.2c0.1-0.6,0.2-1.4,0.2-2.1
		c0-0.6,0.3-0.9,0.7-0.9c0.4,0,0.7,0.2,0.7,0.6c0,0.2-0.1,0.9-0.4,2.3c1.8-0.1,3-0.1,3.7-0.1C197.9,63,198.1,63.1,198.1,63.3z
		 M204.2,73.8c-0.1,0.3-0.3,0.6-0.7,1.1c-0.4,0.5-0.7,0.7-1,0.7c-0.1,0-0.7-0.3-1.9-1c-1.3-0.8-2-1.2-2.1-1.3
		c-0.3,1.6-1.4,2.5-3.5,2.5c-0.8,0-1.6-0.2-2.2-0.6c-0.7-0.5-1.1-1.1-1.1-1.8c0-1.5,1.2-2.3,3.5-2.3c0.6,0,1.2,0.1,2,0.4v-1.2
		c0-0.5,0-1-0.1-1.4c0-0.1,0-0.4-0.1-0.7c0-0.3-0.1-0.5-0.1-0.7c0-0.5,0.2-0.8,0.7-0.8c0.4,0,0.6,0.3,0.6,1c0,1,0.1,2.4,0.2,4.3
		c0.8,0.3,1.6,0.6,2.4,0.8c0.9,0.3,1.8,0.5,2.5,0.6c0.2,0,0.3,0.1,0.4,0.1C204,73.6,204.1,73.7,204.2,73.8z M197.2,72.8
		c-1.2-0.4-2.1-0.6-2.7-0.6c-1.2,0-1.7,0.4-1.7,1.2c0,0.8,0.6,1.2,1.8,1.2C196.1,74.7,197,74,197.2,72.8z M204.3,65.7
		c0,0.3-0.1,0.7-0.4,1.1c-0.3,0.5-0.6,0.7-0.8,0.7c-0.6,0-1.4-0.4-2.3-1.2c-0.9-0.8-1.4-1.6-1.4-2.2c0-0.2,0.1-0.3,0.2-0.3
		c0.6,0.3,1.2,0.6,1.8,1c0.5,0.3,1.2,0.4,2,0.5C204,65.4,204.3,65.5,204.3,65.7z"/>
	<path class="st0" d="M224.3,72.8c0,0.6-0.2,1.1-0.5,1.5c-0.3,0.4-0.8,0.7-1.3,0.8c-0.9,0.2-2.6,0.3-5.2,0.3c-4.7,0-7-1-7-3.1
		c0-1,0.4-1.9,1.3-2.8c0.2-0.2,1-0.9,2.4-2.1c-0.2-1-0.2-1.8-0.2-2.6v-2.2c0-1.5,0.3-2.3,0.8-2.3c0.6,0,0.9,0.3,0.9,0.9
		c0,0.1,0,0.3-0.1,0.5c-0.1,0.3-0.1,0.5-0.1,0.6c-0.1,0.7-0.1,1.6-0.1,2.7c0,0.5,0,1.1,0.1,1.5c2.3-1.7,3.7-2.6,4.2-2.6
		c0.3,0,0.5,0.1,0.6,0.3c0.1,0.2,0.2,0.3,0.4,0.5c0,0.4-0.3,0.7-0.8,1c-1,0.5-2.1,1.1-3.1,1.6c-1.5,0.8-2.7,1.6-3.5,2.3
		c-1.1,0.9-1.7,1.8-1.7,2.7c0,1.1,1,1.7,3.1,1.7c1.3,0,2.9-0.1,4.7-0.3c1.5-0.2,2.8-0.5,3.9-0.8c0.4-0.2,0.8-0.2,1-0.2
		C224.3,72.5,224.3,72.6,224.3,72.8z M224.5,63.4c0,0.1-0.1,0.4-0.4,0.7c-0.3,0.4-0.5,0.5-0.6,0.5c-0.3,0-0.8-0.3-1.4-1
		c-0.6-0.7-0.9-1.1-0.9-1.3c0-0.2,0.1-0.3,0.2-0.3c0,0,0.3,0.2,1.1,0.5c0.7,0.3,1.3,0.5,1.7,0.5C224.4,63.1,224.5,63.2,224.5,63.4z
		 M227.3,61.7c0,0.2-0.2,0.4-0.5,0.8c-0.3,0.3-0.5,0.5-0.6,0.5c-0.3,0-0.7-0.3-1.4-1c-0.7-0.6-1-1.1-1-1.4c0-0.2,0.1-0.3,0.2-0.3
		c0.1,0,0.4,0.1,0.9,0.4c0.6,0.4,1.3,0.6,2,0.6C227.1,61.4,227.3,61.5,227.3,61.7z"/>
	<path class="st0" d="M245,72.6c-0.2,1.3-0.8,2.1-1.8,2.4c-0.4,0.1-1.4,0.2-3.2,0.2c-2.1,0-3.8-0.2-5.2-0.6
		c-2.3-0.6-3.4-1.7-3.4-3.2c0-0.4,0.1-0.9,0.3-1.4c0.3-0.6,0.6-0.9,1.1-0.9c0.1,0,0.2,0.1,0.3,0.3c-0.1,0.1-0.2,0.4-0.5,0.9
		c-0.2,0.3-0.3,0.7-0.3,1c0,1.3,1.5,2,4.6,2c2.4,0,4.3-0.2,5.8-0.6c1.3-0.3,2-0.5,2-0.5C244.8,72.3,244.9,72.4,245,72.6z
		 M241.9,63.8c0,0.3-0.3,0.5-0.9,0.8c-2.5,1.2-3.9,1.8-4.1,1.8c-0.2,0-0.3-0.1-0.3-0.3c0-0.3,0.4-0.6,1.2-1.1
		c0.8-0.5,1.2-0.8,1.3-0.9c-0.1,0-0.3-0.1-0.8-0.1c-1.5,0-2.7,0-3.4,0.1c-0.1,0-0.4,0.1-0.8,0.2c-0.3,0-0.6,0.1-0.8,0.1
		c-0.5,0-0.7-0.2-0.7-0.5c0-0.6,0.3-0.9,0.8-1.1c0.6-0.2,1.5-0.2,2.7-0.2h1.6C240.4,62.6,241.8,63,241.9,63.8z M246.4,62.6
		c0,0.1-0.1,0.4-0.4,0.7c-0.3,0.3-0.5,0.5-0.6,0.5c-0.3,0-0.8-0.3-1.4-1c-0.7-0.7-1-1.1-1-1.3c0-0.2,0.1-0.3,0.2-0.3
		c0.6,0.2,1.6,0.6,3,1.1C246.3,62.4,246.4,62.5,246.4,62.6z M249.9,61.3c0,0.1-0.1,0.4-0.4,0.7c-0.3,0.3-0.5,0.5-0.6,0.5
		c-0.3,0-0.8-0.3-1.5-1c-0.7-0.7-1-1.1-1-1.4c0-0.2,0.1-0.3,0.2-0.3c0.4,0.2,0.9,0.4,1.4,0.6c0.4,0.2,0.9,0.3,1.5,0.5
		C249.8,61.1,249.9,61.2,249.9,61.3z"/>
	<path class="st0" d="M253.5,63.3h3c0-0.8,0-1.7-0.1-2.6c0-0.6,0.2-0.9,0.7-0.9c0.5,0,0.8,0.3,0.8,0.9c0,0.9-0.1,1.8-0.1,2.6h3.1
		c0.2,0,0.3,0.1,0.4,0.3c0,0.3-0.1,0.6-0.3,0.8c-0.2,0.2-0.5,0.3-0.8,0.3c-0.2,0-0.6-0.1-1.2-0.2c-0.4,0-0.7-0.1-1.1-0.1
		c0,0.3,0,0.6,0,0.9l0,1.9c0.1,0,0.2,0,0.3,0s0.6,0.3,1.6,1c0.9,0.7,1.4,1.2,1.4,1.5c0,0.4-0.2,0.6-0.6,0.6c-0.1,0-0.2-0.1-0.4-0.2
		c-1-0.8-1.7-1.3-2.2-1.5l0.1,6.6c0,1-0.3,1.5-0.9,1.5c-0.4,0-0.6-0.5-0.6-1.5c0-2.4,0.1-4.6,0.1-6.4c-0.4,0.5-0.8,1-1.2,1.4
		c-0.6,0.6-1.2,1.1-2,1.5c-0.2,0.1-0.3,0.1-0.4,0.1c-0.4,0-0.8-0.2-1.2-0.7c-0.4-0.4-0.6-0.7-0.6-0.9c0-0.2,0.3-0.4,0.7-0.4
		c0.5-0.1,0.9-0.1,1.2-0.2c0.7-0.2,1.3-0.5,1.9-1c0.6-0.5,1.1-1.1,1.5-1.7c0,0,0.1-0.1,0.1-0.1c0-0.5,0-1,0-1.4c0-0.3,0-0.6,0-0.9
		c-1.3,0-2.2,0.1-2.8,0.3c-0.4,0.1-0.6,0.2-0.7,0.2c-0.5,0-0.8-0.3-0.8-0.7c0-0.2,0.2-0.4,0.4-0.6C252.8,63.4,253.1,63.3,253.5,63.3
		z M263.2,62.3c0.2,0,0.5,0,0.7,0.1c0.2,0.1,0.6,0.1,1,0.1h2.4c0.6,0,1.2,0,2,0.1c0.2,0,0.5-0.1,0.8-0.2c0.4,0,0.7,0.3,0.7,0.8
		c0,0,0,0.2,0,0.4c-0.1,0.4-0.1,1.1-0.2,2.2c0,1.4-0.1,2.9-0.1,4.4c0,1.2,0,2.8,0.1,4.8c0,0.6-0.2,0.8-0.6,0.8
		c-1.2-0.2-2.2-0.3-3.1-0.3c-1.3,0-2.2,0-2.5,0.1c-0.3,0-0.7,0.1-1.1,0.2c-0.4,0-0.6-0.2-0.6-0.6c0.1-2.2,0.2-4.1,0.2-5.7
		c0-1.8-0.1-3.9-0.2-6.5C262.5,62.5,262.8,62.3,263.2,62.3z M266.9,74.4c0.6,0,1.3,0,2.1,0.1c0.2,0,0.4-0.1,0.4-0.4v-2.7
		c0,0-0.1,0-0.1,0c-2.2,0-3.8,0.1-5.1,0.2c0,0-0.1,0-0.1,0c0,0.8-0.1,1.6-0.1,2.4c0,0.3,0.2,0.5,0.6,0.5
		C265.2,74.4,266,74.4,266.9,74.4z M264.1,70.3c0.1,0,0.2,0,0.3,0h4.9c0,0,0.1,0,0.1,0v-2.9c0,0-0.1,0-0.1,0c-2.2,0-3.8,0.1-5.1,0.2
		h0C264.1,68.5,264.1,69.4,264.1,70.3z M264.1,66.4c0.1,0,0.1,0,0.2,0h4.9c0,0,0.1,0,0.1,0v-2.4c0-0.2-0.1-0.3-0.2-0.3
		c-1-0.1-2.5-0.1-4.5-0.1c-0.3,0-0.5,0.2-0.5,0.5C264.1,64.8,264.1,65.6,264.1,66.4z"/>
	<path class="st0" d="M276.1,63.1h6.8c0.2,0,0.3,0.1,0.3,0.3c0,0.3-0.1,0.5-0.3,0.7c-0.2,0.2-0.4,0.3-0.8,0.3c-0.2,0-0.5,0-1.2-0.1
		c-0.6,0-1.3,0-2,0c-1.3,0-2.2,0.1-2.7,0.2c-0.3,0.1-0.5,0.2-0.6,0.2c-0.5,0-0.7-0.2-0.8-0.6c0-0.2,0.2-0.4,0.4-0.6
		C275.5,63.2,275.8,63.1,276.1,63.1z M276.8,71.1c0.2,0,0.5,0,0.7,0.1c0.2,0.1,0.6,0.1,1,0.1h1.3c0.3,0,0.7,0,1.1,0.1
		c0.2,0,0.5-0.1,0.9-0.2c0.4,0,0.6,0.2,0.6,0.7c0,0,0,0.1,0,0.1c-0.1,0.1-0.1,0.4-0.2,0.7c0,0.4-0.1,0.9-0.1,1.5
		c0,0.3,0,0.7,0.1,1.2c0,0.5-0.2,0.7-0.6,0.7c-0.8-0.1-1.5-0.2-2.2-0.2c-1,0-1.6,0-1.8,0c-0.2,0-0.5,0.1-0.8,0.1
		c-0.4,0-0.6-0.2-0.6-0.7c0.1-0.7,0.2-1.4,0.2-1.9c0-0.5-0.1-1.1-0.2-1.8C276.1,71.3,276.4,71.1,276.8,71.1z M277.4,60.3h4.6
		c0.2,0,0.3,0.1,0.3,0.2c0,0.3-0.1,0.5-0.3,0.7c-0.2,0.2-0.4,0.3-0.8,0.3c-0.1,0-0.3,0-0.7-0.1c-0.4,0-0.8,0-1.2,0
		c-0.9,0-1.5,0.1-1.9,0.2c-0.2,0.1-0.4,0.1-0.4,0.1c-0.4,0-0.6-0.2-0.6-0.6c0-0.2,0.1-0.4,0.4-0.6C276.8,60.3,277,60.3,277.4,60.3z
		 M277.3,65.8h4.2c0.4,0,0.6,0.2,0.6,0.6c0,0.3-0.2,0.5-0.6,0.5c-1.9,0-3.4,0.1-4.4,0.2c-0.5,0-0.7-0.2-0.7-0.6
		C276.3,66,276.6,65.8,277.3,65.8z M277.3,68.3h4.2c0.4,0,0.6,0.2,0.6,0.6c0,0.3-0.2,0.5-0.6,0.5c-1.9,0-3.4,0.1-4.4,0.2
		c-0.5,0-0.7-0.2-0.7-0.6C276.3,68.5,276.6,68.3,277.3,68.3z M279.4,74.8c0.3,0,0.7,0,1.1,0.1c0.2,0,0.4-0.1,0.4-0.3v-2
		c0-0.2-0.1-0.3-0.2-0.3c-0.6-0.1-1.4-0.1-2.5-0.1c-0.3,0-0.5,0.2-0.5,0.5c0,0.6-0.1,1.2-0.2,1.8c0,0.3,0.2,0.4,0.6,0.4
		C278.5,74.8,278.9,74.8,279.4,74.8z M289.2,67.4c0.6,0,0.8,0.2,0.8,0.7c-0.1,0.6-0.2,1.2-0.2,1.9c0,0.4-0.1,0.9-0.1,1.3
		c0.2,0,0.4,0.2,0.8,0.5c2.3,1.7,3.7,2.6,4.3,2.8c0.4,0.1,0.8,0.2,1.3,0.2c0.3,0,0.5,0.1,0.5,0.4c0,0.3-0.2,0.6-0.7,0.9
		c-0.5,0.3-1,0.5-1.5,0.5c-0.4,0-0.7-0.1-1-0.4c-0.8-1-1.7-2-2.8-3.1c-0.4-0.4-0.8-0.7-1.1-0.9c-0.1,0.2-0.1,0.4-0.2,0.6
		c-0.5,1-1.1,1.7-1.8,2.3c-0.9,0.8-1.7,1.2-2.5,1.2c-0.3,0-0.5-0.1-0.7-0.4c-0.4-0.4-0.6-0.7-0.6-1.1c0-0.2,0.1-0.3,0.4-0.3
		c0.8-0.1,1.5-0.3,2-0.6c0.8-0.3,1.5-1,2.1-2.1c0.4-0.8,0.6-1.8,0.6-3v-1C288.6,67.6,288.8,67.4,289.2,67.4z M289.1,60
		c0.5,0,0.8,0.2,0.8,0.6c-0.1,0.5-0.2,1-0.2,1.6c0,0.4-0.1,0.8-0.2,1.2c0.2,0,0.4,0.1,0.7,0.3c2.2,1.2,3.5,1.8,4,2
		c0.4,0.1,0.8,0.1,1.2,0.2c0.3,0,0.4,0.1,0.4,0.4c0,0.3-0.2,0.6-0.7,0.9c-0.5,0.3-0.9,0.4-1.4,0.4c-0.3,0-0.6-0.1-0.9-0.4
		c-0.8-0.8-1.6-1.6-2.6-2.4c-0.3-0.3-0.6-0.5-0.9-0.6c0,0.1-0.1,0.2-0.1,0.3c-0.4,0.8-1,1.5-1.6,1.9c-0.8,0.7-1.6,1-2.3,1
		c-0.3,0-0.5-0.1-0.7-0.3c-0.4-0.3-0.5-0.7-0.5-1c0-0.1,0.1-0.2,0.4-0.2c0.8-0.1,1.4-0.2,1.9-0.5c0.8-0.2,1.4-0.8,1.9-1.7
		c0.4-0.7,0.5-1.5,0.5-2.4c-0.1-0.4-0.1-0.7-0.1-1C288.5,60.2,288.7,60,289.1,60z M284.2,69.6c0.4,0.1,0.7,0.1,0.8,0.1
		c0.5,0,1.1-0.2,1.8-0.5c0.1,0,0.2,0.1,0.2,0.3c0,0.2-0.2,0.6-0.7,1.1c-0.5,0.6-0.9,0.9-1.2,0.9c-0.3,0-0.5-0.1-0.7-0.4
		c-0.2-0.3-0.4-0.7-0.4-1.1C284,69.8,284.1,69.6,284.2,69.6z M284.4,61.5c0.4,0.1,0.6,0.1,0.8,0.1c0.4,0,1-0.1,1.6-0.4
		c0.1,0,0.2,0.1,0.2,0.3c0,0.2-0.2,0.5-0.6,1.1c-0.4,0.5-0.8,0.8-1.1,0.8c-0.3,0-0.5-0.1-0.7-0.4c-0.2-0.3-0.4-0.7-0.4-1.1
		C284.2,61.6,284.3,61.5,284.4,61.5z M291.6,61.2C291.6,61.2,291.7,61.2,291.6,61.2c0.7,0.3,1.2,0.4,1.5,0.5c0.3,0.1,0.6,0.1,1,0.1
		c0.1,0,0.2,0.1,0.2,0.3c0,0.2-0.1,0.5-0.4,0.7c-0.5,0.3-1,0.5-1.2,0.5c-0.1,0-0.2,0-0.2-0.1c-0.1-0.1-0.5-0.7-1-1.6
		c0-0.1,0-0.1,0-0.2C291.4,61.3,291.4,61.2,291.6,61.2z M291.9,69.3C291.9,69.3,291.9,69.3,291.9,69.3c0.7,0.3,1.2,0.5,1.6,0.6
		c0.2,0.1,0.6,0.1,1,0.1c0.1,0,0.2,0.1,0.2,0.3c0,0.2-0.2,0.5-0.5,0.7c-0.5,0.3-0.9,0.5-1.2,0.5c-0.1,0-0.2,0-0.2-0.1
		c-0.1-0.2-0.5-0.7-1-1.6c0-0.1,0-0.2,0-0.2C291.6,69.4,291.7,69.3,291.9,69.3z"/>
	<path class="st0" d="M312.3,74.4c0,0.3-0.4,0.7-1.1,1.2c-0.7,0.5-1.2,0.7-1.5,0.7c-0.2,0-0.5-0.3-1-1c-0.8-1.1-1.8-2.2-3-3.2
		c-1.2-1-2.6-2-4.2-3c-0.5-0.3-0.8-0.5-0.8-0.8c0-0.2,0.4-0.7,1.3-1.3c1-0.7,2-1.7,2.9-2.8c0.5-0.6,1.3-1.7,2.4-3.3
		c0.3-0.4,0.6-0.6,1-0.6c0.6,0,0.9,0.3,0.9,0.9c0,0.4-0.8,1.5-2.5,3.1c-1.3,1.3-2.4,2.2-3.3,2.9c-0.3,0.2-0.7,0.6-1.3,1
		c2.8,1.6,4.9,3,6.3,4.1c0.7,0.5,1.2,0.9,1.5,1.1c0.6,0.4,1.2,0.6,1.7,0.8C312,74.2,312.1,74.3,312.3,74.4z"/>
	<path class="st0" d="M330.6,63.5c0,0.2-0.1,0.4-0.3,0.7c-0.2,0.3-0.3,0.5-0.5,0.5c-1.1-0.2-2-0.3-2.8-0.3c-0.1,0-0.3,0-0.5,0
		c-0.2,0-0.4,0-0.5,0c-0.4,1.7-0.8,3.3-1.4,4.7c-1.6,4.1-2.9,6.1-3.8,6.1c-0.3,0-0.6-0.1-1-0.2c-0.5-0.2-0.7-0.4-0.7-0.6
		c0-0.1,0.3-0.5,1-1.2c1.1-1.1,2.1-2.5,3-4.1c0.9-1.6,1.5-3.2,1.8-4.6c-1.5,0.1-2.9,0.3-4.1,0.7c-0.4-0.1-0.6-0.2-0.6-0.6
		c0-0.3,0.1-0.5,0.2-0.7c0.1-0.2,0.9-0.3,2.2-0.5c0.8-0.1,1.6-0.2,2.4-0.2c0.1-0.6,0.2-1.4,0.2-2.1c0-0.6,0.3-0.9,0.7-0.9
		c0.4,0,0.7,0.2,0.7,0.6c0,0.2-0.1,1-0.4,2.3c2.1-0.1,3.4-0.2,3.7-0.2S330.6,63.3,330.6,63.5z M337,73.1c0,0.4-0.1,0.8-0.4,1.4
		c-0.3,0.5-0.8,0.9-1.5,1.1c-0.4,0.1-1,0.1-1.9,0.1c-4.1,0-6.1-1-6.1-3c0-0.3,0.1-0.6,0.2-0.9c0.1-0.4,0.3-0.6,0.6-0.6
		c0.3,0,0.4,0.1,0.4,0.4c0,0.1,0,0.3-0.1,0.5c0,0.2-0.1,0.4-0.1,0.5c0,0.9,0.8,1.4,2.3,1.4c2.4,0,4.4-0.4,5.8-1.1
		c0.4-0.2,0.6-0.3,0.6-0.3C336.9,72.7,337,72.8,337,73.1z M334.8,66.8c-0.1,0.2-0.6,0.7-1.5,1.4c-0.9,0.7-1.6,1.1-1.9,1.2
		c-0.1,0-0.2-0.1-0.2-0.3c0-0.2,0.2-0.5,0.6-0.9c0.3-0.2,0.6-0.5,0.8-0.8c-0.1,0-0.3,0-0.6,0c-1.1,0-2,0.1-2.7,0.2
		c-0.9,0.2-1.3,0.3-1.3,0.3c-0.3,0-0.5-0.1-0.5-0.4c0-0.3,0.1-0.5,0.3-0.7c0.4-0.4,1.9-0.6,4.6-0.6h0.9
		C334.2,66.2,334.7,66.4,334.8,66.8z M335.8,62.6c0,0.1-0.1,0.4-0.4,0.7c-0.3,0.3-0.5,0.5-0.6,0.5c-0.3,0-0.8-0.3-1.4-1
		c-0.7-0.7-1-1.1-1-1.3c0-0.2,0.1-0.3,0.2-0.3c0.6,0.2,1.6,0.6,3,1.1C335.7,62.4,335.8,62.5,335.8,62.6z M338.8,61.3
		c0,0.2-0.2,0.4-0.5,0.7c-0.3,0.3-0.5,0.5-0.6,0.5c-0.3,0-0.7-0.3-1.4-1c-0.6-0.7-0.9-1.1-0.9-1.4c0-0.2,0.1-0.3,0.2-0.3
		c0,0,0.5,0.2,1.3,0.6c0.4,0.2,0.8,0.3,1.5,0.5C338.6,61.1,338.8,61.2,338.8,61.3z"/>
	<path class="st0" d="M358.2,63.6c0,0.3-0.2,0.8-0.6,1.3c-0.4,0.6-0.8,0.9-1,0.9c-0.1,0-0.5-0.1-1.1-0.4c-0.8-0.3-2.4-0.6-4.6-0.7
		c0.7,1.9,1.6,3.5,2.8,4.7c0.2,0.2,0.4,0.4,0.6,0.7c-0.1,0.4-0.3,0.7-0.6,0.9c-0.1,0-0.6-0.2-1.2-0.5c-0.7-0.3-1.2-0.5-1.4-0.6
		c-0.7-0.2-1.4-0.3-2.3-0.3c-2.7,0-4,0.7-4,2.2c0,0.8,0.4,1.4,1.3,1.8c0.6,0.3,1.4,0.4,2.3,0.4c2,0,3.6-0.3,4.8-0.8
		c0.6-0.3,1-0.4,1.1-0.4c0.2,0,0.3,0.1,0.3,0.3c0,0.3-0.1,0.7-0.4,1.3c-0.4,0.9-1.8,1.3-4.1,1.3c-1.6,0-3-0.2-4.2-0.6
		c-1.6-0.6-2.4-1.6-2.4-3c0-1.3,0.6-2.2,1.9-2.8c1-0.5,2.2-0.7,3.6-0.7c1,0,2,0.2,3.1,0.5c-1-1.3-1.8-2.8-2.4-4.4
		c-2.3,0.1-4.3,0.4-6,0.9c-0.6,0.2-1,0.2-1.2,0.2c-0.4,0-0.6-0.3-0.6-0.9c0-0.6,0.5-0.9,1.5-1c1.3-0.1,3.2-0.2,5.8-0.5
		c-0.5-1.2-0.7-2-0.7-2.4c0-0.5,0.3-0.8,0.9-0.8c0.3,0,0.6,0.4,0.8,1.3c0.1,0.6,0.3,1.3,0.4,1.9c1.9,0,3.9,0,6,0c0.1,0,0.4,0,0.6,0
		c0.3,0,0.6,0,0.7,0C358.1,63.3,358.2,63.4,358.2,63.6z"/>
	<path class="st0" d="M371.9,70.6c0,0.5-0.5,1.4-1.6,2.7c-1.1,1.3-2,2-2.6,2c-0.6,0-1.2-0.4-1.9-1.1c-1.2-1.4-1.8-3.9-1.8-7.6
		c0-1.9,0.1-3,0.3-3.5c0.2-0.3,0.4-0.5,0.8-0.5c0.5,0,0.8,0.2,0.8,0.7c0,0-0.1,0.5-0.2,1.3c-0.2,1.4-0.3,2.7-0.3,3.9
		c0,1.5,0.3,2.7,0.8,3.6c0.5,0.8,1,1.2,1.5,1.2c0.5,0,1.2-0.5,2.3-1.5c1-1,1.6-1.5,1.7-1.5C371.8,70.2,371.9,70.3,371.9,70.6z
		 M380.9,69.9c0,0.3-0.3,0.7-0.8,1.2c-0.5,0.4-0.9,0.6-1.2,0.6c-0.5,0-1.3-0.8-2.3-2.4c-1-1.6-1.6-2.8-1.6-3.3
		c0-0.2,0.1-0.3,0.3-0.3c0.2,0,0.5,0.3,1,1c0.5,0.7,1.2,1.3,1.9,1.8c0.7,0.6,1.4,1,1.9,1.1c0.2,0,0.3,0.1,0.4,0.1
		C380.8,69.7,380.9,69.8,380.9,69.9z"/>
	<path class="st0" d="M391.3,74.4c0,0.8-0.3,1.5-0.8,2c-0.5,0.5-1.2,0.8-2,0.8c-0.8,0-1.5-0.3-2-0.8c-0.6-0.6-0.8-1.2-0.8-2
		c0-0.8,0.3-1.5,0.8-2c0.6-0.6,1.2-0.9,2-0.9c0.8,0,1.5,0.3,2,0.9C391.1,72.9,391.3,73.6,391.3,74.4z M390.5,74.4
		c0-0.5-0.2-1-0.6-1.4c-0.4-0.4-0.8-0.6-1.4-0.6c-0.5,0-1,0.2-1.4,0.6c-0.4,0.4-0.6,0.9-0.6,1.4s0.2,1,0.6,1.4
		c0.4,0.4,0.9,0.6,1.4,0.6c0.5,0,1-0.2,1.4-0.6C390.2,75.4,390.5,74.9,390.5,74.4z"/>
</g>
</svg>
