<?xml version="1.0" encoding="utf-8"?>
<!-- Generator: Adobe Illustrator 24.0.3, SVG Export Plug-In . SVG Version: 6.00 Build 0)  -->
<svg version="1.1" id="レイヤー_1" xmlns="http://www.w3.org/2000/svg" xmlns:xlink="http://www.w3.org/1999/xlink" x="0px"
	 y="0px" viewBox="0 0 111.3 133.1" style="enable-background:new 0 0 111.3 133.1;" xml:space="preserve">
<style type="text/css">
	.st0{fill:#EE761C;}
	.st1{fill:#F8D69F;}
	.st2{fill:#F3961A;}
	.st3{fill:#AF3A23;}
	.st4{fill:#EF7B1D;}
	.st5{fill:#DD640F;}
	.st6{fill:#5E4940;}
</style>
<g>
	<g>
		<path class="st0" d="M93.7,113.8c0,0,11.2-5.4,10.9-20.5c-0.6-29.7-25.3-42.9-18-56.1c6-11.1,22.6-4.5,24.5,4.7
			c0,0,1.7-19.4-5.8-26.6C93,3.5,84.2,8.1,84.5,7.8c3.3-3.2,9.7-3.9,9.7-3.9s-13-7.4-31.2-1.7C44.2,8,31.5,22.6,27,42.6
			c-4.5,20,10.2,79.6,23.6,83.8c15.5,4.9,27.8,1,37.5-4.2c9.7-5.2,12.3-10.1,12.3-10.1S97.9,113.4,93.7,113.8z"/>
	</g>
	<g>
		<path class="st1" d="M41,56.9c0,0,9.8,15.9,9.2,25c-0.6,9.1,4.2,12.8,2.2,27.1c-2,14.3-24.9,20.5-24.9,20.5s-8.3-18.8-7.7-24.6
			c0.5-5.9,14.2-35.4,16-37c1.8-1.6-4.6-2.1-4.8-5.8c-0.2-3.6,4.7-9.2,9.2-5.5L41,56.9z"/>
	</g>
	<g>
		<path class="st1" d="M22.8,56.7c0,0-11.2,15.1-7.5,28.1c2.2,7.5,0.4,9-1.4,11.7c-1.8,2.7-4.1,10.9,0.4,19.5
			c4.5,8.6,12,14.5,17,12.4c5-2.1,7.1-44.6,7.1-44.6s1.5-16.5-1.1-24.4C34.7,51.3,22.8,56.7,22.8,56.7z"/>
	</g>
	<g>
		<path class="st2" d="M40.1,31c0,0,6.6,3.6,8.5,6c0.7,0.9,11-7.4,11.7-5.5c0.8,1.9-10.1,12.4-10.4,15c-0.3,2.7-1.8,12.2,0.4,16.4
			c3.8,7.2,8.9,12,12.7,20.2c7.2,15.4,0.6,43.7-6.6,47.5c-7.2,3.8-37.6,3.3-35.9-0.4c1.7-3.7,16-6.2,18.3-5.1
			c2.3,1.1-6.7-25.9,1.2-28.3c7.9-2.4,9.1-2.3,9.1-2.3s-2.6-5.1-2.5-6.2c0.1-1.2-15.6-8.7-12-11.6c3.6-2.9,12.6,3.2,12.6,3.2
			s-6.3-17-6-19.4c0-0.3-4,3-8.9,2.2c-4.9-0.9-6.2-3.5-6.2-3.5S23.5,59.2,21,58c-2-1-2.3-4.3-2.3-4.3s-7.7-3.9-5.8-11.5
			c2-7.6,10.2-5.6,10.2-5.6l10.7-8.8c0,0,10.9-8.6,12.8-6.7C48,22.4,41.5,27.5,40.1,31z"/>
	</g>
	<g>
		<path class="st2" d="M16.7,99.3c0.5-2.3,0.4-7.3,0-11.5c-0.2-1.8,0.5-7.1,0.5-7.1s18.6-7.1,14.9-10.9c-3.7-3.8-14.9,5.6-14.9,4.2
			c0.2-10.1,6.3-16.5,6.3-16.5l-0.7-2.2L22,55c0,0-8.7,9.9-10,19.1c-1.3,9.1-0.2,18.5-0.2,18.5s-4.7,1.8-5.7,7.6
			c-1.8,10.1,5.3,22,7.3,23c2,1-13.5-0.8-13.3,3.4c0.2,4.2,8.7,3.8,17.2,2.9c8.4-0.9,10.5-1.6,10.5-1.6S12.4,117.3,16.7,99.3z"/>
	</g>
	<g>
		<path class="st3" d="M45.9,67.6c-1.1-3.2-6.6-5.4-14.5-2.5c-7.9,2.9-15.1,9.3-13.9,21.6c1.2,12.2,12.3,14.7,16.1,7
			c3.8-7.7,5.5-11,9.2-15.4C44.9,75.7,46.7,70,45.9,67.6z"/>
	</g>
	<g>
		<g>
			<path class="st4" d="M28.3,90.8c1.1-2.4,2.6-4.6,4-6.8c3.5-5.3,8-9.9,11.2-15.4c0.2-0.4,0.9-0.1,0.7,0.4
				c-2.8,5.2-6.7,9.7-10,14.6c-1.4,2.1-2.7,4.3-3.9,6.6c-1.2,2.3-1.8,4.4-2.1,7c-0.1,0.7-1,0.5-1.2,0C26.3,95.1,27.4,92.6,28.3,90.8
				z"/>
		</g>
		<g>
			<path class="st4" d="M26,81c2.6-4.9,6.9-9,11-12.6c0.3-0.3,0.8,0.2,0.5,0.5c-1.9,1.8-3.7,3.7-5.4,5.7c-1.9,2.2-3.4,4.6-5.1,7
				C26.5,82.1,25.6,81.7,26,81z"/>
		</g>
		<g>
			<path class="st4" d="M23.8,88.3c0.1-0.6,1-0.4,1,0.2c-0.3,2.4-0.3,4.7,0.7,6.9c0.3,0.7-0.6,1.3-1.1,0.6
				C22.7,93.9,23.3,90.8,23.8,88.3z"/>
		</g>
		<g>
			<path class="st4" d="M21.5,79.3c0.9-4,3.4-8.1,6.7-10.6c4-3,9.7-4,14.6-3.9c0.4,0,0.4,0.6,0,0.6c-4.7,0.2-9.8,1.3-13.7,4
				c-1.7,1.1-2.9,2.8-3.8,4.6c-1,1.8-1.6,3.9-2.6,5.7C22.3,80.3,21.3,79.9,21.5,79.3z"/>
		</g>
		<g>
			<path class="st4" d="M19.5,84.9c0.4,1.9,0.7,3.8,1.3,5.6c0.2,0.7-0.9,1-1.1,0.3c-0.6-1.8-0.8-3.8-1.2-5.7
				C18.5,84.6,19.4,84.3,19.5,84.9z"/>
		</g>
		<g>
			<path class="st4" d="M28.8,82.9c0.7-1.1,1.4-2.3,2.1-3.5c0.3-0.5,1.1-0.1,0.8,0.5c-0.6,1.2-1.2,2.4-1.9,3.5
				C29.4,84,28.5,83.5,28.8,82.9z"/>
		</g>
		<g>
			<path class="st4" d="M40.1,67.1c0.8-0.2,1.8-0.6,2.6-0.4c0.4,0.1,0.5,0.6,0.1,0.8C42.1,68,41,67.9,40.2,68
				C39.7,68,39.6,67.3,40.1,67.1z"/>
		</g>
		<g>
			<g>
				<path class="st4" d="M44.6,67.1C44.6,67.1,44.6,67.1,44.6,67.1L44.6,67.1z"/>
			</g>
			<g>
				<path class="st4" d="M44,67.1c0.2,0.2,0.4,0.2,0.6,0c0,0,0,0,0,0c0,0,0,0,0,0c0,0,0,0,0,0c0,0,0,0,0,0c0,0,0.1,0,0.1,0
					c0.2,0,0.4-0.1,0.4-0.4c0-0.1,0-0.2,0-0.2c0-0.2-0.3-0.3-0.5-0.3c-0.3,0-0.5,0.1-0.7,0.3C43.8,66.6,43.8,66.9,44,67.1z"/>
			</g>
		</g>
		<g>
			<path class="st4" d="M39.2,79.7c0.8-2.1,2-3.9,3-5.9c0.3-0.6,1.1-0.1,0.9,0.5c-1,2-2,3.9-3,5.9C39.7,80.7,39,80.2,39.2,79.7z"/>
		</g>
		<g>
			<path class="st4" d="M34.9,77.4c0.8-1.3,1.6-2.6,2.5-3.9c0.4-0.5,1.2-0.1,0.9,0.5c-0.9,1.3-1.7,2.5-2.5,3.9
				C35.5,78.5,34.5,78,34.9,77.4z"/>
		</g>
		<g>
			<path class="st4" d="M29.2,95.8c0.4-1.4,1.4-2.4,2.3-3.4c0.4-0.4,1,0.2,0.6,0.6c-0.8,1-1.3,2.1-2,3.2
				C29.9,96.7,29,96.4,29.2,95.8z"/>
		</g>
		<g>
			<path class="st4" d="M23.3,81.3c0.2-0.5,0.9-0.3,0.8,0.2c-0.8,2.5-1.5,4.9-2.1,7.4c-0.1,0.4-0.8,0.4-0.8-0.1
				C21.3,86.2,22.5,83.8,23.3,81.3z"/>
		</g>
	</g>
	<g>
		<path class="st2" d="M45.3,78.4c-2.9-1.6-8-3.9-10.5-1.9c-2.6,2.1,4.7,6.5,9,9.3C44.6,83.5,44.7,80.7,45.3,78.4z"/>
	</g>
	<g>
		<path class="st4" d="M29.5,51.2c-0.9,0.5-1.8,0.3-2.3-0.6c-0.4-0.5,0-1.3,0.2-1.8c0.3-0.7,0.8-1.3,1.3-1.9
			c0.2-0.2-0.1-0.6-0.4-0.3c-0.4,0.4-0.7,0.9-1.1,1.3c0,0,0,0-0.1,0.1c-0.3,0.5-0.8,1-1.3,1.3c-0.6,0.2-1.1-0.2-1.5-0.6
			c-0.4-0.5-0.2-1.2,0-1.7c0.1-0.3-0.4-0.4-0.5-0.1c-0.4,1.3,0,2.9,1.6,3c0.4,0,0.8-0.1,1.1-0.4c0,0.1-0.1,0.3-0.1,0.4
			c0,0.7,0.3,1.2,0.9,1.6c0.9,0.6,1.5,0.6,2.4,0.1C30,51.5,29.7,51,29.5,51.2z"/>
	</g>
	<g>
		<path class="st2" d="M32.1,69.9c-1.8-1.3-10.9,1.9-15.7,2.5c-0.4,2.3,0.5,6.1,1,8.3C19.8,79.7,36,72.8,32.1,69.9z"/>
	</g>
	<g>
		<path class="st5" d="M29.2,47.5c1.1,0.4,3.8,0.4,2.4-1.6c-1.3-2-3.1-3.1-3.9-2.2C27,44.6,27.6,46.9,29.2,47.5z"/>
	</g>
	<g>
		<g>
			<path class="st2" d="M53,18c-1.3,0.5-2.7,0.9-4.1,1.5c1.2-0.9,2.5-1.7,3.2-3.1c0.2-0.4-0.3-0.9-0.7-0.5c-0.9,1.1-2.1,1.9-3.3,2.6
				c0.5-0.8,0.9-1.8,0.8-2.7c0-0.5-0.8-0.5-0.8,0c0,1.3-0.7,2.5-1.5,3.6c-1.2,0.7-2.6,1.5-3.1,2.7c-0.2,0.5,0.1,1,0.5,1.1
				c0.2,0.3,0.6,0.4,0.9,0.1c0.1-0.1,0.2-0.3,0.3-0.4c0.2,0,0.3,0,0.5-0.1c2.4-1.6,5.3-2.2,7.5-4C53.7,18.6,53.5,17.9,53,18z"/>
		</g>
		<g>
			<path class="st2" d="M65.4,28.8c-0.8,0.4-1.7,0.8-2.6,1.2c1.1-1.1,2.2-2.2,2.9-3.7c0.3-0.6-0.6-1.1-0.9-0.5
				c-0.7,1.5-2,2.6-3.3,3.6c0.8-1.3,1.3-2.8,1.5-4.4c0.1-0.6-0.9-0.9-1-0.2c-0.4,2.8-2.8,5.2-4.9,6.9c-0.4,0.4-0.4,0.8-0.1,1.2
				c-0.7,0.6-1.4,1.3-1.9,2.1c-0.5,0.9,0.7,1.6,1.4,1c1.4-1.2,2.7-2.5,4.3-3.4c1.6-1,3.4-1.8,5-2.8C66.5,29.4,66,28.5,65.4,28.8z"/>
		</g>
	</g>
	<g>
		<g>
			<path class="st6" d="M40.5,48c0.4-1.2,1.8-5.4-0.8-5.2c-1.8,0.1-3.4,2.1-4.5,3.5c-0.4,0.5,0.4,1,0.8,0.6c0.8-1,1.8-2.1,2.9-2.8
				c0.3-0.2,0.7-0.4,1.1-0.3c0.4,0.1,0.3,0.9,0.3,1.2c-0.1,0.9-0.4,1.8-0.7,2.7C39.4,48.2,40.3,48.6,40.5,48L40.5,48z"/>
		</g>
	</g>
	<g>
		<g>
			<path class="st6" d="M24.9,37.8c0.7-0.6,1.5-1.2,2.4-1.4c1-0.3,0.8,1.1,0.7,1.6c-0.2,1-0.6,2-1,3c-0.3,0.6,0.6,0.9,0.9,0.4
				c0.6-1.4,1.3-3.1,1.1-4.6c-0.3-2.6-3.6-0.3-4.6,0.4C23.8,37.4,24.4,38.1,24.9,37.8L24.9,37.8z"/>
		</g>
	</g>
</g>
</svg>
