<?xml version="1.0" encoding="utf-8"?>
<!-- Generator: Adobe Illustrator 24.0.3, SVG Export Plug-In . SVG Version: 6.00 Build 0)  -->
<svg version="1.1" id="レイヤー_1" xmlns="http://www.w3.org/2000/svg" xmlns:xlink="http://www.w3.org/1999/xlink" x="0px"
	 y="0px" viewBox="0 0 153.7 153.4" style="enable-background:new 0 0 153.7 153.4;" xml:space="preserve">
<style type="text/css">
	.st0{fill:#318229;}
	.st1{fill:#318229;stroke:#318229;stroke-width:0.25;stroke-linecap:round;stroke-linejoin:round;stroke-miterlimit:10;}
	.st2{fill:#559D83;}
	.st3{fill:#D3EA71;}
	.st4{fill:#4A8226;}
	.st5{fill:#A2C911;}
	.st6{fill:#30A05D;}
	.st7{fill:#437508;}
	.st8{fill:#238753;}
	.st9{fill:#4A9143;}
	.st10{fill:#B4D15A;}
	.st11{fill:#63AF43;}
	.st12{fill:#4E820E;}
	.st13{fill:#6BA510;}
	.st14{fill:#A0C15F;}
	.st15{fill:#239351;}
	.st16{fill:#26722D;}
	.st17{fill:#6FAA7A;}
	.st18{fill:#58A526;}
	.st19{fill:#A7DD85;}
	.st20{fill:#B4DD45;}
	.st21{fill:#519B2A;}
	.st22{fill:#FFBF41;}
	.st23{fill:#657D00;}
	.st24{fill:#456300;}
	.st25{fill:#818900;}
	.st26{fill:#FDDAA0;}
	.st27{fill:#1F191A;}
	.st28{fill:#FFBE00;}
	.st29{fill:#FF7438;}
	.st30{fill:#FF9B00;}
	.st31{fill:#9A6548;}
	.st32{fill:#D36C2D;}
	.st33{fill:#F4F0D8;}
	.st34{fill:#894C3F;}
	.st35{fill:#9F9175;}
	.st36{fill:#C9B896;}
	.st37{fill:#715C52;}
	.st38{fill:#5E4940;}
	.st39{fill:#E4DCB9;}
	.st40{fill:#FF6868;}
	.st41{fill:#FF7E65;}
	.st42{fill:#B87D4C;}
</style>
<g>
	<path class="st0" d="M56,33.2l3.8,7.3v-7.3h1.2v8.7h-1.8l-3.7-7.3v7.3h-1.2v-8.7H56z"/>
	<path class="st0" d="M66.8,33.2c1.8,0,2.4,1,2.4,2.7c0,2-0.7,2.7-2.5,2.7h-2.9v3.2h-1.2v-8.7H66.8z M63.8,34.4v3.1h2.8
		c0.8,0,1.4-0.1,1.4-1.5c0-1.4-0.5-1.6-1.4-1.6H63.8z"/>
	<path class="st0" d="M77.4,37.6c0,3-0.5,4.4-3.4,4.4c-2.7,0-3.6-0.7-3.6-4.4c0-3.4,0.7-4.4,3.5-4.4C76.6,33.1,77.4,34.1,77.4,37.6z
		 M71.6,37.6c0,2.7,0.2,3.2,2.4,3.2c2.1,0,2.2-1,2.2-3.2c0-2.5-0.2-3.2-2.3-3.2C71.8,34.3,71.6,35.1,71.6,37.6z"/>
	<path class="st0" d="M81.2,39.1c-0.4,1.1-1.3,2.8-2,3.8l-0.7-1.1c0.4-0.6,0.9-1.2,1.8-3.4L81.2,39.1z M79.1,35.6
		c0.8,0.4,1.2,0.7,1.7,1l-0.6,1c-0.5-0.4-1-0.8-1.6-1.1L79.1,35.6z M79.5,32.6c0.4,0.2,1.3,0.8,1.7,1.1l-0.7,1
		c-0.5-0.4-0.6-0.5-1.6-1.2L79.5,32.6z M84.3,38.1c-0.4,1.3-0.8,2.2-1.4,3.3c1.1,0,1.6-0.1,3.2-0.2c-0.4-0.8-0.8-1.4-1-1.7l0.9-0.6
		c0.9,1.2,1.6,2.6,1.9,3.5l-1,0.5c-0.1-0.3-0.2-0.6-0.3-0.9c-1.4,0.3-4.3,0.4-5.4,0.5l-0.1-1.1c0.1,0,0.7,0,0.8,0
		c0.7-1.3,1-2.2,1.3-3.4h-1.9V37h2.9v-1.8h-2.5v-1.1h2.5v-1.6h1v1.6h2.5v1.1h-2.5V37H88v1.1H84.3z"/>
	<path class="st0" d="M93.1,32.6h1.2v1.4c0,2.1,0.6,5.7,4.2,7.8l-0.7,1.1c-1.8-1-3.4-3.1-4.1-5.9c-0.6,2.6-2.1,4.7-4.1,5.9l-0.7-1.1
		c1.4-0.8,2.7-2,3.4-3.7c0.5-1.2,0.9-2.8,0.9-4.1V32.6z"/>
	<path class="st1" d="M63.7,49.9c0.2,0,0.4,0,0.5,0.1c0.2,0.1,0.4,0.1,0.8,0.1h3.3c0.8,0,1.7,0,2.7,0.1c0.2,0,0.4-0.1,0.7-0.2
		c0.4,0,0.6,0.2,0.6,0.7c0,0,0,0.1-0.1,0.3c-0.1,0.3-0.1,0.9-0.1,1.8c0,1.1-0.1,2.3-0.1,3.5c0,0.9,0,2.2,0.1,3.8
		c0,0.5-0.2,0.7-0.5,0.7c-1.5-0.1-2.8-0.2-4-0.2c-1.5,0-2.4,0-2.8,0.1c-0.3,0-0.7,0.1-1.2,0.2c-0.3,0-0.5-0.2-0.5-0.6
		c0.1-1.7,0.1-3.3,0.1-4.6c0-1.4,0-3.1-0.1-5.1C63.1,50.1,63.3,49.9,63.7,49.9z M67.6,59.6c0.9,0,2,0,3.1,0.1c0.2,0,0.3-0.1,0.3-0.3
		c0-1.4,0-2.7,0-3.8c-2.8,0-5,0.1-6.6,0.2c0,0-0.1,0-0.1,0c0,1.2-0.1,2.4-0.1,3.5c0,0.3,0.1,0.5,0.4,0.5
		C65.5,59.6,66.5,59.6,67.6,59.6z M64.3,54.6c0.1,0,0.1,0,0.2,0l6.4,0.1c0,0,0.1,0,0.1,0c0-1.4,0-2.5,0.1-3.3c0-0.2-0.1-0.2-0.3-0.2
		c-1.4,0-3.4-0.1-6.1-0.1c-0.2,0-0.3,0.1-0.3,0.4C64.4,52.5,64.4,53.6,64.3,54.6z"/>
	<path class="st1" d="M79.9,50.8h4.2c0-0.6,0-1.2-0.1-1.9c0-0.5,0.2-0.8,0.6-0.8c0.4,0,0.6,0.3,0.6,0.8c0,0.7,0,1.3-0.1,1.9H90
		c0.2,0,0.3,0.1,0.3,0.2c0,0.2-0.1,0.5-0.2,0.7c-0.2,0.2-0.4,0.3-0.6,0.3c-0.3,0-0.9-0.1-1.8-0.2c-0.7,0-1.4,0-2.1-0.1
		c0.2,0.1,0.3,0.3,0.6,0.6c2.6,2.5,4.1,3.9,4.8,4.2c0.4,0.2,0.9,0.3,1.5,0.4c0.2,0,0.3,0.1,0.3,0.3c0,0.3-0.2,0.6-0.6,0.9
		c-0.4,0.3-0.8,0.5-1.3,0.5c-0.3,0-0.6-0.1-0.8-0.4c-1-1.4-2.2-2.8-3.5-4.2c-0.5-0.5-0.9-0.9-1.3-1.2v0l0,5.6h3.3
		c0.2,0,0.3,0.1,0.3,0.2c0,0.2-0.1,0.5-0.2,0.7c-0.2,0.2-0.4,0.3-0.6,0.3c-0.2,0-0.6-0.1-1.3-0.2c-0.5,0-0.9,0-1.4-0.1l0,1.9
		c0,0.8-0.2,1.2-0.6,1.2c-0.3,0-0.5-0.4-0.5-1.2c0-0.7,0-1.3,0-1.9c-1.2,0-2.1,0.1-2.6,0.2c-0.3,0.1-0.6,0.1-0.6,0.1
		c-0.3,0-0.5-0.2-0.6-0.5c0-0.2,0.1-0.4,0.3-0.5c0.2-0.1,0.4-0.2,0.6-0.2h2.9c0-2.3,0-4.1,0-5.6v0c-1.1,1.7-1.9,2.8-2.6,3.4
		c-0.9,0.9-1.9,1.6-3,2.1c-0.3,0.2-0.5,0.3-0.7,0.3c-0.4,0-0.7-0.1-0.9-0.4c-0.2-0.2-0.3-0.5-0.3-0.8c0-0.2,0.1-0.3,0.3-0.3
		c1.2-0.2,2.2-0.6,2.9-1c0.6-0.4,1.3-0.9,1.9-1.5c0.6-0.6,1.3-1.5,2.1-2.8c-1.5,0-2.5,0.1-3.2,0.2c-0.5,0.1-0.8,0.2-0.9,0.2
		c-0.4,0-0.6-0.2-0.6-0.6c0-0.2,0.1-0.4,0.3-0.5C79.4,50.8,79.6,50.8,79.9,50.8z"/>
	<path class="st1" d="M44.2,75.3c-0.1,0.5-0.3,1-0.6,1.5c-0.4,0.6-0.8,0.9-1.1,0.9c-0.2,0-0.6-0.2-1.3-0.5c-1.3-0.7-3.3-1-5.9-1
		c-1.3,0-2.5,0.2-3.7,0.7c-1.3,0.5-1.9,0.8-1.8,0.8c-0.4,0-0.6-0.3-0.6-0.8c0-0.4,0.2-0.7,0.5-0.9c0.5-0.3,1.5-0.5,3.1-0.7
		c1.3-0.2,2.4-0.3,3.3-0.3c0-2.9-0.1-5-0.1-6.4H35c-0.9,0-1.5,0-1.9,0.1c-0.9,0.2-1.4,0.3-1.4,0.3c-0.4,0-0.6-0.2-0.6-0.7
		c0-0.5,0.3-0.8,0.9-0.8c0.8,0,2,0,3.5-0.1c1.6-0.1,2.8-0.1,3.5-0.1c1.2,0,1.9,0.1,2,0.2c0,0.4-0.1,0.7-0.3,0.9
		c-0.2,0.3-0.5,0.4-0.8,0.4c-0.2,0-0.5,0-0.8-0.1c-0.4-0.1-0.7-0.1-0.8-0.1c-0.3,0-0.8,0-1.5,0l0,6.4c0.5,0,1.5,0.1,2.9,0.1
		c1.2,0.1,2.1,0.1,2.9,0.1c0.1,0,0.2,0,0.5,0c0.2-0.1,0.4-0.1,0.5-0.1C44,75.2,44.1,75.2,44.2,75.3z"/>
	<path class="st1" d="M57.8,68.2c0,0.3-0.1,1.2-0.2,2.7l-0.4,4.7c0.3,0.3,0.4,0.5,0.4,0.7c0,0.4-0.3,0.6-1,0.6
		c-0.2,0-0.8-0.1-1.8-0.2c-1-0.1-2-0.1-3-0.1c-1,0-1.9,0.1-2.6,0.3c-0.7,0.2-1.2,0.2-1.5,0.2c-0.3,0-0.5-0.2-0.5-0.7
		c0-0.4,0.2-0.6,0.7-0.8c0.5-0.2,1.7-0.2,3.6-0.2h3c0.5,0,1,0,1.5,0.1l0.1-6.4c-0.4-0.1-1.6-0.2-3.5-0.2c-1,0-2,0-2.8,0.1
		c-1.2,0.1-1.8,0.2-1.8,0.2c-0.3,0-0.5-0.2-0.5-0.7c0-0.6,0.5-0.9,1.5-0.9c0.8,0,1.9,0,3.5,0.1c1.6,0,2.7,0,3.5,0
		c0.2,0,0.3-0.1,0.4-0.2c0.1,0,0.2,0,0.3,0C57.6,67.5,57.8,67.7,57.8,68.2z"/>
	<path class="st1" d="M73.6,68.6c0,1.1-0.1,3-0.3,5.7c0,0.7-0.1,1.6-0.3,2.8c-0.1,0.4-0.2,0.6-0.4,0.6c-0.3,0-0.5-0.2-0.7-0.5
		c-0.3-0.2-1.5-0.3-3.6-0.3c-1.9,0-3,0.1-3.4,0.2c-0.2,0.1-0.3,0.2-0.6,0.3c-0.2,0.1-0.3,0.2-0.4,0.2c-0.4,0-0.6-0.5-0.6-1.5
		c-0.2-3.5-0.3-6.1-0.3-7.8c0-0.5,0.3-0.7,0.9-0.7c0.1,0,0.2,0,0.4,0.1c0.1,0.1,0.2,0.1,0.4,0.1c0.5,0,1.2,0,2.2,0
		c1,0,1.7-0.1,2.3-0.1c0.3,0,0.8,0,1.4,0.1c0.6,0,1.1,0,1.4,0c0.1,0,0.3,0,0.4-0.1c0.2,0,0.3,0,0.5,0C73.4,67.5,73.6,67.9,73.6,68.6
		z M72.3,69.2c-0.1-0.2-1.1-0.3-3-0.3h-2.4c-0.8,0-1.2,0-1.4,0c-0.7,0.1-1,0.3-1,0.7l0.1,6.1c0.4-0.1,0.7-0.1,1.1-0.1
		c3.6,0,5.7,0,6.4,0.1C72.2,72,72.3,69.8,72.3,69.2z"/>
	<path class="st1" d="M81.5,72.3c0,0.2-0.1,0.2-0.4,0.2c-0.6,0-1.3-0.1-2.3-0.3c-0.6-0.1-0.8-0.4-0.8-0.8c0-0.6,0.2-0.8,0.7-0.8
		c0.3,0,0.8,0.2,1.6,0.7C81.1,71.8,81.5,72.1,81.5,72.3z M91,69.8c0,0.4-0.4,1.1-1.2,2.2c-1.8,2.3-4.3,4.2-7.7,5.7
		c-1.5,0.6-2.4,1-2.6,1c-0.3,0-0.5-0.1-0.7-0.3c-0.2-0.2-0.3-0.5-0.3-0.8c0-0.5,0.3-0.7,0.9-0.8c2.6-0.5,5-1.5,7.1-3.2
		c1.5-1.2,2.7-2.3,3.5-3.3c0.4-0.5,0.6-0.7,0.7-0.7C90.9,69.4,91,69.5,91,69.8z M82.6,69.1c0,0.2-0.1,0.2-0.3,0.2
		c-0.4,0-1-0.2-1.8-0.6c-0.9-0.4-1.4-0.8-1.4-1.1c0-0.5,0.3-0.8,0.8-0.8c0.3,0,0.6,0.2,0.9,0.5C81.9,68.3,82.6,68.9,82.6,69.1z
		 M90,67.3c0,0.1-0.1,0.3-0.4,0.6c-0.2,0.2-0.4,0.3-0.6,0.3c-0.2,0-0.5-0.4-0.9-1.1c-0.4-0.7-0.6-1.2-0.6-1.5c0-0.2,0-0.3,0.1-0.3
		c0.1,0,0.2,0.1,0.3,0.2c0.5,0.7,1.1,1.2,1.6,1.5C89.9,67.1,90,67.2,90,67.3z M92.5,66.3c0,0.1-0.2,0.3-0.4,0.6
		c-0.2,0.2-0.4,0.4-0.6,0.4c-0.3-0.1-0.6-0.4-1.1-1c-0.4-0.6-0.7-1.1-0.7-1.4c0-0.1,0-0.2,0.1-0.2c0,0,0.3,0.2,0.7,0.5
		c0.4,0.3,0.7,0.5,0.8,0.6C91.7,66,92.1,66.2,92.5,66.3z"/>
	<path class="st1" d="M107.9,76.4c-0.1,0.3-0.4,0.6-0.9,1.1c-0.5,0.5-0.9,0.7-1.1,0.7c-0.2,0-0.7-0.5-1.5-1.6
		c-0.8-1.1-1.9-2.1-3.3-3.2c-1.6,1.7-3,3-4.3,3.7c-1.1,0.6-1.8,0.9-2.1,0.9c-0.3,0-0.6-0.2-1-0.6c-0.3-0.4-0.5-0.7-0.5-1
		c0-0.1,0.2-0.3,0.5-0.4c3.4-0.7,6.2-2.7,8.6-6.2c0.3-0.4,0.5-0.8,0.7-1c0.3-0.5,0.5-0.9,0.5-1c-0.1,0-0.6-0.1-1.5-0.1
		c-2,0-3.5,0.1-4.6,0.4c-0.6,0.1-1,0.2-1.2,0.2c-0.3,0-0.4-0.2-0.4-0.7c0-0.3,0.2-0.5,0.5-0.7c0.3-0.2,1.4-0.3,3.3-0.3h2.7
		c0.5,0,1,0,1.3,0.1c0.1-0.1,0.4-0.1,0.7-0.1c0.5,0,0.7,0.2,0.7,0.5c0,0.4-0.4,1.3-1.3,2.7c-0.7,1.1-1.3,2-1.8,2.7l3.3,2.3
		c0.8,0.6,1.5,1,2,1.1c0.2,0,0.3,0.1,0.5,0.1C107.7,76.2,107.8,76.3,107.9,76.4z"/>
	<path class="st1" d="M121,73.5c0,0.2-0.3,0.6-0.9,1.1c-0.6,0.5-1.1,0.7-1.3,0.7c-0.2,0-0.5-0.3-1-0.9c-1.1-1.5-2.5-2.7-4.2-3.5
		c0,0.8,0,2.1,0,3.8c0,1.7,0.1,3,0.1,3.8c0,0.6-0.2,0.9-0.7,0.9c-0.4,0-0.6-0.4-0.6-1.1c0-0.6,0-1.6,0-2.9c0-1.3,0.1-2.3,0.1-2.9v-4
		c0-0.3,0-0.7-0.1-1.3c0-0.6,0-1,0-1.3c0-0.5,0.2-0.8,0.7-0.8c0.4,0,0.7,0.3,0.7,0.8c0,0.4,0,1.1-0.1,2s-0.1,1.5-0.1,2
		c1.3,0.6,2.7,1.4,4.1,2.3c1.2,0.7,2.2,1.1,2.9,1.2C120.8,73.3,121,73.4,121,73.5z"/>
	<path class="st1" d="M31.7,84.9h6l-0.1-2.5c0-0.7,0.3-1,0.8-1c0.7,0,1,0.3,1,1l-0.1,2.5h6.8c0.3,0,0.4,0.1,0.4,0.3
		c0,0.4-0.1,0.7-0.3,0.9c-0.2,0.3-0.5,0.4-0.9,0.4c-0.4,0-1.2-0.1-2.6-0.3c-1.1,0-2.2-0.1-3.4-0.1l-0.1,3c1.2,0,2.3,0.1,3.3,0.2
		c0.3-0.1,0.6-0.1,0.8-0.1c0.5,0,0.8,0.3,0.8,1c0,0.1-0.1,0.3-0.3,0.4c-0.2,0.3-0.8,1-1.7,2.2c-0.7,0.9-1.5,1.7-2.3,2.4
		c2.5,1.3,4.5,2.3,6.1,2.8c1.3,0.4,2.4,0.7,3.3,0.7c0.2,0,0.3,0.1,0.3,0.3c0,0.5-0.3,1.1-0.8,1.7c-0.4,0.3-0.7,0.5-1.1,0.5
		c-0.4,0-0.8-0.1-1.2-0.3c-0.6-0.3-2.2-1.2-4.6-2.8c-1.2-0.8-2.2-1.4-3.1-2c-0.7,0.6-1.4,1.1-2.1,1.6c-1.5,1.1-2.9,1.9-4.1,2.4
		c-1,0.4-1.8,0.7-2.3,0.7c-0.3,0-0.7-0.2-1.2-0.6c-0.5-0.4-0.7-0.8-0.7-1.3c0-0.3,0.2-0.5,0.5-0.6c0.8,0,1.8-0.2,3.1-0.5
		c2-0.6,3.7-1.4,5-2.3c0.1-0.1,0.3-0.2,0.4-0.3c-0.5-0.3-0.9-0.5-1.3-0.7c-0.8-0.4-1.6-0.7-2.5-0.9c-0.4-0.1-0.6-0.3-0.6-0.8
		c0-0.5,0.2-0.7,0.6-0.8c0.3,0,0.6,0.1,1,0.3c1.5,0.7,2.8,1.3,3.9,1.9c1.1-0.9,2.1-2,3.2-3.2c0.3-0.2,0.4-0.4,0.4-0.5
		c0-0.2-0.1-0.3-0.3-0.3c-0.3-0.1-0.7-0.1-1-0.1c-2.9,0-4.9,0.1-5.8,0.3c-0.6,0.1-1,0.2-1.2,0.2c-0.4,0-0.6-0.2-0.6-0.7
		c0-0.4,0.2-0.7,0.6-0.9c0.3-0.1,1.1-0.2,2.4-0.2c0.6,0,1.2,0,1.7,0l-0.1-3c-2.4,0-4.1,0.1-5.2,0.2c-0.7,0.1-1.1,0.2-1.3,0.2
		c-0.5,0-0.7-0.3-0.8-0.8c0-0.3,0.2-0.5,0.4-0.8C31,84.9,31.3,84.9,31.7,84.9z"/>
	<path class="st1" d="M54.2,85.5h2.5c0-1,0-2.1,0-3.2c0-0.8,0.3-1.2,0.9-1.2c0.5,0,0.8,0.3,0.8,0.9c0,0.1,0,0.4-0.1,0.9
		c-0.1,0.4-0.1,0.8-0.1,1.1c0,0.5,0,1.1,0,1.6h2.6c0.2,0,0.3,0.1,0.3,0.3c0,0.3-0.1,0.6-0.3,0.8c-0.2,0.2-0.5,0.3-0.8,0.3
		c-0.1,0-0.5,0-1.1-0.1c-0.2,0-0.5,0-0.7,0c0,1.6,0.1,3,0.1,4.3c0.8-0.2,1.5-0.4,2-0.5c0.3,0,0.4,0.1,0.4,0.4c0,0.4-0.2,0.7-0.5,0.8
		c-0.6,0.2-1.2,0.4-1.8,0.7c0.1,1.7,0.1,3,0.1,3.9c0,1.6-0.3,2.8-1,3.6c-0.6,0.6-1.3,0.9-2,1c-0.4,0-0.8-0.1-1.1-0.4
		c-0.2-0.3-0.3-0.5-0.3-0.9c0-0.3,0.2-0.5,0.5-0.5c1.2-0.3,1.9-0.7,2.1-1.2c0.2-0.4,0.3-1,0.3-1.8c0-1,0-2,0-3
		c-1.2,0.5-2.4,1.1-3.5,1.7c-0.5,0-0.8-0.2-0.8-0.7c0-0.4,0.1-0.8,0.2-1c0.1-0.2,0.3-0.4,0.6-0.6c1.3-0.4,2.4-0.8,3.4-1.1
		c0-1.4,0-2.8-0.1-4.2c0-0.2,0-0.3,0-0.5c-1.1,0-1.9,0.1-2.4,0.3c-0.3,0.1-0.5,0.2-0.6,0.2c-0.5,0-0.7-0.3-0.8-0.8
		c0-0.3,0.2-0.5,0.4-0.8C53.6,85.6,53.9,85.5,54.2,85.5z M64.2,87.9h7.9c0.2,0,0.3,0.1,0.3,0.2c0,0.3-0.1,0.6-0.3,0.8
		c-0.2,0.2-0.5,0.4-0.8,0.4c-0.2,0-0.6,0-1.4-0.1c-0.7,0-1.5,0-2.4,0c-0.1,0-0.2,0-0.3,0c0,0,0,0.1,0,0.1c-0.2,0.5-0.3,1-0.6,1.5
		h6.9c0.2,0,0.4,0.1,0.4,0.2c0,0.4-0.1,0.7-0.3,1c-0.2,0.3-0.5,0.4-0.9,0.4c-0.3,0-0.9-0.1-1.9-0.3c-1-0.1-2.1-0.1-3.4-0.1
		c-0.6,0-1.1,0-1.5,0c-0.2,0.4-0.4,0.7-0.6,1.1c-0.9,1.3-1.9,2.3-2.8,3c-0.7,0.5-1.2,0.8-1.7,0.8c-0.3,0-0.5-0.1-0.7-0.3
		c-0.4-0.4-0.5-0.7-0.5-1.1c0-0.3,0.2-0.5,0.7-0.6c1.3-0.2,2.4-0.8,3.5-1.9c0.3-0.3,0.5-0.6,0.7-0.9c-0.5,0-0.9,0.1-1.2,0.1
		c-0.5,0.1-0.8,0.2-1,0.2c-0.4,0-0.6-0.3-0.7-0.8c0-0.2,0.1-0.5,0.4-0.7c0.2-0.1,0.5-0.2,0.8-0.2h2.5c0.3-0.5,0.5-1,0.7-1.6
		c-0.7,0-1.3,0.1-1.7,0.2c-0.4,0.1-0.6,0.1-0.7,0.1c-0.4,0-0.7-0.3-0.7-0.8c0-0.2,0.2-0.5,0.4-0.7C63.6,88,63.8,87.9,64.2,87.9z
		 M62.1,85.3c0.3,0.1,0.6,0.1,0.7,0.1c0.4,0,1-0.2,1.7-0.7c0.1,0,0.2,0.1,0.2,0.2c0,0.2-0.2,0.6-0.7,1.2c-0.5,0.6-0.8,1-1.2,1
		c-0.2,0-0.4-0.1-0.6-0.4c-0.2-0.3-0.3-0.7-0.3-1.1C61.9,85.4,62,85.3,62.1,85.3z M72.2,81.7c0.3,0,0.4,0.1,0.4,0.4
		c0,0.3-0.1,0.5-0.3,0.6c-2.5,0.7-4.5,1.1-6,1.4c-1.1,0.1-1.8,0.2-2.1,0.2c-0.4,0-0.8-0.2-1.1-0.5c-0.2-0.3-0.4-0.5-0.4-0.8
		c0-0.2,0.1-0.3,0.4-0.3c2.1,0,3.8-0.2,5.2-0.4c1.4-0.1,2.5-0.3,3.5-0.6C71.9,81.7,72,81.7,72.2,81.7z M66.3,93.4c1.1,0,2.4,0,4,0.1
		l0.5-0.1c0.5,0,0.7,0.2,0.7,0.5c0,0.3-0.1,0.6-0.3,1c-0.6,1-1.1,1.8-1.6,2.4c1.3,0.6,2.4,1,3.3,1.2c0.8,0.2,1.5,0.4,2.1,0.4
		c0.1,0,0.2,0.1,0.2,0.2c0,0.5-0.2,1-0.7,1.6c-0.3,0.3-0.6,0.5-0.9,0.5c-0.2,0-0.5-0.1-0.7-0.2c-0.4-0.1-1.3-0.7-2.7-1.6
		c-0.5-0.4-1-0.7-1.5-0.9c-0.8,0.8-1.7,1.4-2.7,1.8c-0.6,0.3-1.1,0.4-1.5,0.4c-0.4,0-0.7-0.2-1.1-0.5c-0.3-0.4-0.5-0.7-0.5-1
		c0-0.3,0.1-0.4,0.4-0.4c1.2,0,2-0.1,2.5-0.3c0.5-0.1,1.1-0.4,1.6-0.8c-0.3-0.2-0.5-0.3-0.8-0.4c-0.5-0.2-1-0.4-1.5-0.5
		c-0.4-0.1-0.6-0.3-0.6-0.7c0-0.5,0.2-0.7,0.6-0.8c0.2,0,0.4,0.1,0.6,0.2c1.1,0.4,2,0.8,2.8,1.2c0.5-0.6,1-1.2,1.4-2
		c0-0.2-0.1-0.3-0.4-0.3c-0.9,0-2.1,0.1-3.4,0.2c-0.3,0-0.5-0.1-0.5-0.4c0-0.2,0.1-0.4,0.2-0.6C65.9,93.5,66.1,93.4,66.3,93.4z
		 M67.8,84.6c0.5,0,0.7,0.3,0.7,0.8l-0.4,1.3C68.1,86.9,68,87,67.8,87c-0.3,0-0.5-0.1-0.5-0.4l-0.2-1.4
		C67.1,84.9,67.4,84.6,67.8,84.6z M71.1,84c0,0,0.1,0,0.1,0c0.6,0.4,1.1,0.7,1.5,0.9c0.3,0.1,0.6,0.2,1,0.2c0.1,0,0.2,0.1,0.2,0.3
		c0,0.2-0.1,0.4-0.4,0.7c-0.5,0.4-0.9,0.5-1.2,0.5c-0.1,0-0.2-0.1-0.3-0.2c-0.2-0.2-0.5-0.8-1.1-2c-0.1-0.1-0.1-0.2-0.1-0.2
		C70.9,84.1,71,84,71.1,84z"/>
	<path class="st1" d="M78.8,87h2.7c0-1.4-0.1-3-0.1-4.7c0-0.7,0.3-1.1,0.8-1.1c0.5,0,0.8,0.4,0.8,1.1c-0.1,1.7-0.1,3.3-0.1,4.7H86
		c0.3,0,0.4,0.1,0.4,0.3c0,0.4-0.1,0.7-0.3,0.9c-0.2,0.3-0.5,0.4-0.9,0.4c-0.2,0-0.6-0.1-1.2-0.3c-0.4,0-0.8-0.1-1.2-0.1l0.1,11.1
		c0,1.2-0.3,1.7-0.9,1.7c-0.5,0-0.7-0.6-0.7-1.7c0-4.7,0.1-8.4,0.1-11.2c-1.1,0-2,0.1-2.5,0.2c-0.3,0.1-0.6,0.2-0.7,0.2
		c-0.5,0-0.8-0.3-0.8-0.8c0-0.3,0.2-0.5,0.4-0.8C78.1,87.1,78.4,87,78.8,87z M87.5,93.4c0.1-0.4,0.1-0.7,0.2-1.1
		c0-0.4,0.2-0.7,0.6-0.7c0.2,0,0.3,0.1,0.5,0.2c0.2,0.2,0.3,0.3,0.3,0.4l-0.1,0.1c0,0.3-0.1,0.6-0.2,1h1.8c0.1,0,0.4-0.1,0.8-0.2
		c0.5,0,0.8,0.3,0.8,0.9c-0.3,1.1-0.5,2.2-0.6,3.3c-0.2,1.5-0.5,2.5-1.1,3c-0.5,0.4-1,0.6-1.7,0.6c-0.4,0-0.7-0.2-0.9-0.5
		c-0.2-0.3-0.3-0.6-0.3-0.8c0-0.3,0.1-0.5,0.4-0.5c0.9-0.1,1.4-0.2,1.6-0.4c0.3-0.3,0.6-1,0.8-2.2c0.1-0.8,0.2-1.2,0.2-1.4
		c0-0.3-0.1-0.4-0.2-0.4h-1.8c-0.3,1.3-0.7,2.5-1.2,3.6c-0.3,0.7-0.7,1.4-1.1,1.9c-0.5,0.6-0.9,0.9-1.2,0.9c-0.3,0-0.6-0.2-0.9-0.5
		c-0.3-0.3-0.4-0.6-0.4-0.8c0-0.2,0.2-0.3,0.5-0.4c0.4-0.1,0.9-0.5,1.3-1.1c0.5-0.5,1-1.4,1.5-2.7c0.1-0.3,0.2-0.5,0.2-0.8
		c-0.4,0-0.7,0.1-1,0.2C85.8,95,85.5,95,85.4,95c-0.4,0-0.6-0.2-0.6-0.5c0-0.6,0.2-0.9,0.7-1C85.8,93.4,86.5,93.4,87.5,93.4z
		 M91.3,83.8c0.2-0.6,0.3-1.2,0.4-1.8c0-0.4,0.2-0.6,0.6-0.6c0.2,0,0.3,0.1,0.4,0.2c0.2,0.2,0.3,0.3,0.3,0.4l-0.1,0.1
		c-0.1,0.4-0.2,0.9-0.4,1.6h3.4c0.1,0,0.4-0.1,0.8-0.2c0.5,0,0.8,0.3,0.8,0.9c-0.3,1.1-0.5,2.2-0.6,3.3c-0.2,1.5-0.5,2.5-1.2,2.9
		c-0.5,0.4-1.2,0.7-2,0.7c-0.4,0-0.7-0.2-0.9-0.5c-0.2-0.3-0.3-0.6-0.3-0.8c0-0.3,0.1-0.5,0.4-0.6c1-0.1,1.6-0.2,1.9-0.4
		c0.4-0.3,0.6-1,0.9-2.2c0.1-0.7,0.2-1.2,0.2-1.4c0-0.3-0.1-0.4-0.2-0.4h-3.5c0,0,0,0,0,0c-0.4,1.2-0.9,2.2-1.5,3.2
		c-0.4,0.7-0.9,1.4-1.5,2c-0.7,0.6-1.2,0.9-1.5,0.9c-0.3,0-0.6-0.2-0.9-0.5c-0.3-0.3-0.4-0.6-0.4-0.8c0-0.2,0.2-0.4,0.5-0.4
		c0.6-0.1,1.2-0.5,1.8-1.1c0.7-0.5,1.3-1.5,2-2.9c0-0.1,0.1-0.2,0.2-0.3c-0.5,0-1,0.1-1.6,0.2c-0.5,0.1-0.9,0.2-1,0.2
		c-0.4,0-0.6-0.2-0.6-0.6c0-0.6,0.2-0.9,0.7-1C88.9,83.8,89.9,83.8,91.3,83.8z M95.4,93.4c0.1-0.4,0.1-0.7,0.1-1.1
		c0-0.4,0.2-0.7,0.6-0.7c0.2,0,0.3,0.1,0.5,0.2c0.2,0.2,0.2,0.3,0.2,0.4l0,0.1c0,0.3-0.1,0.6-0.2,1h1.9c0.1,0,0.4-0.1,0.8-0.2
		c0.5,0,0.8,0.3,0.8,0.9c-0.2,1.1-0.4,2.2-0.5,3.3c-0.1,1.5-0.4,2.5-0.9,3c-0.4,0.4-0.9,0.6-1.5,0.6c-0.4,0-0.7-0.2-0.9-0.5
		c-0.2-0.3-0.3-0.6-0.3-0.8c0-0.3,0.1-0.5,0.4-0.5c0.7-0.1,1.2-0.2,1.4-0.4c0.3-0.3,0.5-1,0.7-2.2c0.1-0.8,0.1-1.2,0.1-1.4
		c0-0.3-0.1-0.4-0.2-0.4h-1.9c-0.3,1.3-0.6,2.5-1.1,3.6c-0.3,0.7-0.6,1.4-1,1.9c-0.5,0.6-0.8,0.9-1,0.9c-0.3,0-0.6-0.2-0.9-0.5
		c-0.3-0.3-0.4-0.6-0.4-0.8c0-0.2,0.2-0.3,0.5-0.4c0.4-0.1,0.8-0.5,1.2-1.1c0.5-0.5,0.9-1.4,1.3-2.7c0.1-0.2,0.2-0.5,0.2-0.8
		c-0.3,0-0.7,0.1-1,0.2C93.7,95,93.5,95,93.4,95c-0.4,0-0.6-0.2-0.6-0.5c0-0.6,0.2-0.9,0.7-1C93.8,93.4,94.4,93.4,95.4,93.4z"/>
	<path class="st1" d="M113.9,81.5c0.3,0,0.5,0.2,0.6,0.6c0.3,0,0.7,0.3,1.2,0.8c3.7,2.6,6,4.1,6.9,4.4c0.6,0.2,1.3,0.3,2.1,0.4
		c0.3,0,0.5,0.1,0.5,0.4c0,0.4-0.3,0.8-0.9,1.2c-0.6,0.4-1.2,0.6-1.8,0.6c-0.4,0-0.8-0.2-1.2-0.6c-1.5-1.5-3.2-3-5-4.6
		c-0.8-0.6-1.5-1.1-2.2-1.4c-0.1-0.1-0.2-0.1-0.3-0.2c-1.3,1.5-2.7,2.8-4.2,3.8c-1.3,1-2.7,1.7-4.4,2.4c-0.4,0.1-0.6,0.2-0.8,0.2
		c-0.4,0-0.8-0.3-1.3-0.8c-0.4-0.4-0.6-0.7-0.6-1c0.1-0.3,0.3-0.4,0.7-0.4c1.2-0.1,2.1-0.3,2.7-0.4c1.4-0.4,2.8-1,4.1-1.9
		c1.3-0.9,2.4-1.9,3.3-3.1C113.5,81.6,113.7,81.5,113.9,81.5z M106.7,92.4c0.2,0,0.4,0,0.5,0.1c2.4-0.2,4.5-0.3,6.3-0.3
		c1.2,0,2.9,0.1,5.3,0.2c0.4,0,0.8,0.1,1.1,0.1c0.2,0,0.6,0,1-0.1c0.4-0.1,0.7-0.2,0.8-0.2c0.2,0,0.3,0.1,0.3,0.2
		c0,0.4-0.2,0.9-0.6,1.5c-0.4,0.6-0.7,0.8-1.1,0.8c-0.3,0-0.7-0.1-1.4-0.3c-1.5-0.4-3.3-0.6-5.4-0.6c-0.1,0-0.2,0-0.3,0
		c0,0.1,0.1,0.3,0.1,0.5c0,0.1,0,0.2-0.1,0.3c-0.6,1-1,1.8-1.4,2.3c-0.3,0.4-0.6,0.9-1,1.5c0,0.1,0.1,0.2,0.4,0.2h5.9
		c0.3,0,0.5-0.1,0.5-0.3c0,0,0-0.1-0.1-0.1c-0.3-0.5-0.6-1.1-1.1-1.8c0-0.1-0.1-0.1-0.1-0.2c0-0.5,0.3-0.8,0.8-0.8
		c0.1,0,0.2,0.1,0.3,0.2c0.6,0.8,1.2,1.9,2,3.1c0.1,0.1,0.1,0.3,0.1,0.4c0,0.5-0.2,0.8-0.7,0.8h-7.7c-0.5,0-1.1,0-1.9,0.1
		c-0.7,0-1-0.3-1-0.8c0-0.2,0.1-0.4,0.4-0.7c0.3-0.3,0.5-0.6,0.7-0.8c0.3-0.4,0.7-0.9,1-1.5c0.4-0.6,0.8-1.4,1.2-2.4c0,0,0,0,0-0.1
		c-1.9,0.1-3.2,0.2-4.1,0.4c-0.5,0.1-0.9,0.2-1.3,0.2c-0.4,0-0.6-0.2-0.6-0.6c0-0.3,0.1-0.6,0.3-0.8
		C106.3,92.5,106.5,92.4,106.7,92.4z M110.8,88.4h7c0.2,0,0.3,0.1,0.3,0.3c0,0.3-0.1,0.5-0.3,0.8c-0.2,0.2-0.5,0.3-0.8,0.3
		c-0.2,0-0.6,0-1.2-0.1c-0.6,0-1.3,0-2.1,0c-1.3,0-2.2,0.1-2.8,0.2c-0.3,0.1-0.6,0.2-0.7,0.2c-0.5,0-0.7-0.3-0.8-0.8
		c0-0.3,0.1-0.5,0.4-0.8C110.2,88.4,110.5,88.4,110.8,88.4z"/>
</g>
<g>
	<g>
		<path class="st2" d="M27.3,121.5c-2-1.9-4.7-2.2-5.1-1.8c-0.4,0.4,0.3,3,2.3,4.9c2,1.9,4.8,2.2,5.1,1.8
			C29.9,126.1,29.3,123.4,27.3,121.5z"/>
		<path class="st2" d="M20.7,121c-0.2-2.4-1.8-4.2-2.3-4.2c-0.5,0-1.8,2.1-1.6,4.5c0.2,2.4,1.8,4.2,2.3,4.2
			C19.6,125.4,20.9,123.4,20.7,121z"/>
		<path class="st3" d="M23.5,117.8c-2.4,0-4.3-1.5-4.3-2c0-0.5,2-1.9,4.4-1.9c2.4,0,4.3,1.6,4.3,2C27.9,116.4,25.9,117.9,23.5,117.8
			z"/>
		<path class="st2" d="M19.8,113c-2.5,0-4.4-1.5-4.4-2.1c0-0.5,2-2,4.5-1.9c2.5,0,4.4,1.6,4.4,2.1C24.3,111.6,22.3,113,19.8,113z"/>
		<path class="st3" d="M16.3,107.3c-2.6-0.1-4.7-1.7-4.8-2.3c0-0.5,2.1-2,4.7-1.9c2.6,0.1,4.7,1.8,4.8,2.3
			C21,105.8,18.9,107.3,16.3,107.3z"/>
		<path class="st2" d="M13.8,101.5c-2.9,0-5.2-1.8-5.2-2.4c0-0.6,2.2-2.2,5.1-2.2c2.9,0,5.2,1.8,5.2,2.4
			C18.9,99.8,16.7,101.5,13.8,101.5z"/>
		<path class="st3" d="M7.3,105.3c1.3-2.6,0.8-5.4,0.3-5.7c-0.5-0.3-3,1-4.3,3.5c-1.3,2.6-0.8,5.5-0.3,5.7
			C3.4,109,6,107.8,7.3,105.3z"/>
		<path class="st3" d="M15.4,117.1c0.7-2.5,0-5-0.5-5.1c-0.5-0.1-2.5,1.5-3.2,4c-0.7,2.5,0.1,5,0.5,5.1
			C12.7,121.2,14.7,119.6,15.4,117.1z"/>
		<path class="st2" d="M11,111.1c0.8-2.5,0-5-0.4-5.1c-0.5-0.2-2.5,1.4-3.3,3.9c-0.8,2.5,0,5,0.4,5.1C8.1,115.1,10.2,113.6,11,111.1
			z"/>
		<path d="M7,95.8c0-0.1-0.1-0.1-0.2-0.1c-0.1,0-0.2,0-0.2,0.1c0,0,0,0.1,0,0.1c0.3,1,0.7,2.1,1.2,3.2c-1.4,1.4-2.5,3-3.3,4.8
			c-0.4,1-0.7,2-0.9,3c0,0.1,0,0.2,0.1,0.2c0.1,0,0.2,0,0.2-0.1c0,0,0,0,0-0.1c0.2-1,0.4-1.9,0.8-2.9c0.7-1.7,1.8-3.2,3.1-4.5
			c0.8,1.9,1.8,3.8,2.8,5.7c-0.5,0.8-1,1.7-1.3,2.5c-0.7,1.7-1.1,3.4-1.2,5c0,0.1,0.1,0.2,0.1,0.2c0.1,0,0.2,0,0.2-0.1
			c0,0,0,0,0-0.1c0.1-1.6,0.5-3.2,1.2-4.8c0.3-0.8,0.7-1.6,1.2-2.3c1.1,1.9,2.4,3.9,3.9,5.9c-0.2,0.4-0.4,0.8-0.6,1.2
			c-0.9,2-1.3,4.1-1.3,6c0,0.1,0.1,0.2,0.2,0.2c0.1,0,0.2,0,0.2-0.1c0,0,0-0.1,0-0.1c0-1.8,0.4-3.9,1.3-5.8c0.1-0.3,0.3-0.7,0.5-1
			c1,1.4,2.1,2.7,3.3,4.1c-0.4,2.8-0.2,5.5,0.6,7.8c0,0.1,0.1,0.1,0.2,0.1c0.1,0,0.2,0,0.2-0.1c0,0,0-0.1,0-0.1
			c-0.9-2.7-0.9-5.4-0.6-7.3c0,0,3.6,3.9,5.2,5.3c0.4,0.4,3.2,2.7,4.1,3.5c0,0,0.2,0.1,0.3,0c0.1-0.1,0-0.2,0-0.3
			c-0.8-0.7-1.6-1.4-2.4-2c-2.4-2-7-6.7-7-6.7c2.3-0.5,4.4-0.6,6.4-0.4c0.1,0,0.2,0,0.2-0.1c0-0.1,0-0.1,0-0.2
			c0-0.1-0.1-0.1-0.1-0.1c-2.1-0.3-4.4-0.1-6.8,0.4c-1.3-1.5-2.5-3-3.6-4.5c2.5-0.5,5-0.5,7.2,0.1c0.1,0,0.2,0,0.2-0.1
			c0-0.1,0-0.1,0-0.2c0-0.1-0.1-0.1-0.1-0.1c-2.3-0.6-5-0.6-7.6-0.1c-1.4-1.9-2.6-3.8-3.7-5.6c2.7-0.5,5.4-0.5,7.8,0.1
			c0.1,0,0.2,0,0.2-0.1c0-0.1,0-0.1,0-0.2c0-0.1-0.1-0.1-0.1-0.1c-2.4-0.6-5.2-0.7-8.1-0.1c-1-1.8-1.9-3.7-2.7-5.5
			c3-0.9,6.3-0.8,9,0.1c0.1,0,0.2,0,0.2-0.1c0-0.1,0-0.1,0-0.2c0-0.1-0.1-0.1-0.1-0.1c-2.8-1-6.2-1-9.3-0.1
			C7.7,97.9,7.3,96.9,7,95.8z"/>
	</g>
	<g>
		<path class="st4" d="M107.7,13.4c2.2,1.7,5,1.8,5.3,1.3c0.3-0.4-0.6-3-2.8-4.7c-2.2-1.7-5-1.7-5.3-1.3
			C104.6,9.1,105.5,11.7,107.7,13.4z"/>
		<path class="st4" d="M114.3,13.3c0.4,2.4,2.2,4.1,2.7,4c0.5-0.1,1.6-2.3,1.2-4.7c-0.4-2.4-2.3-4.1-2.7-4
			C115,8.7,113.9,10.9,114.3,13.3z"/>
		<path class="st5" d="M111.8,16.8c2.4-0.2,4.5,1.1,4.6,1.6c0,0.5-1.8,2.1-4.2,2.3c-2.4,0.2-4.5-1.1-4.6-1.6
			C107.6,18.6,109.4,17,111.8,16.8z"/>
		<path class="st4" d="M116,21.2c2.5-0.2,4.6,1.1,4.6,1.6c0,0.5-1.8,2.2-4.3,2.4c-2.5,0.2-4.6-1.2-4.6-1.6
			C111.7,23.1,113.5,21.4,116,21.2z"/>
		<path class="st5" d="M120.2,26.7c2.6-0.2,4.9,1.3,5,1.8c0.1,0.5-1.9,2.2-4.6,2.4c-2.6,0.2-5-1.3-5-1.8
			C115.6,28.6,117.6,26.8,120.2,26.7z"/>
		<path class="st4" d="M123.2,32.2c2.9-0.2,5.4,1.3,5.5,1.8c0.1,0.6-2,2.5-4.9,2.7c-2.9,0.2-5.4-1.3-5.5-1.8
			C118.3,34.4,120.4,32.5,123.2,32.2z"/>
		<path class="st5" d="M129.4,27.8c-1,2.7-0.3,5.6,0.2,5.8c0.5,0.2,3-1.3,4-4c1-2.7,0.3-5.6-0.2-5.8
			C132.9,23.6,130.5,25.1,129.4,27.8z"/>
		<path class="st5" d="M120.1,16.7c-0.5,2.6,0.5,5,1,5.1c0.5,0.1,2.3-1.7,2.8-4.3c0.5-2.6-0.6-5-1-5.1
			C122.4,12.3,120.5,14.1,120.1,16.7z"/>
		<path class="st4" d="M125.1,22.3c-0.5,2.6,0.5,5,1,5.1c0.5,0.1,2.4-1.7,2.9-4.3c0.5-2.6-0.5-5-1-5.1
			C127.6,17.9,125.7,19.7,125.1,22.3z"/>
		<path d="M130.7,37.2c0,0.1,0.1,0.1,0.2,0.1c0.1,0,0.2-0.1,0.2-0.1c0,0,0-0.1,0-0.1c-0.4-1-0.9-2-1.5-3.1c1.3-1.5,2.2-3.3,2.8-5.1
			c0.3-1,0.5-2.1,0.6-3.1c0-0.1-0.1-0.2-0.2-0.2c-0.1,0-0.2,0-0.2,0.1c0,0,0,0,0,0.1c-0.1,1-0.2,2-0.6,3c-0.5,1.7-1.5,3.4-2.6,4.9
			c-1-1.8-2.1-3.7-3.4-5.5c0.4-0.9,0.8-1.8,1.1-2.7c0.6-1.8,0.8-3.5,0.7-5.2c0-0.1-0.1-0.2-0.2-0.2c-0.1,0-0.2,0.1-0.2,0.1
			c0,0,0,0.1,0,0.1c0.1,1.6-0.1,3.3-0.7,5c-0.3,0.8-0.6,1.6-1,2.4c-1.3-1.8-2.8-3.7-4.5-5.5c0.2-0.4,0.3-0.9,0.5-1.3
			c0.7-2.1,0.9-4.2,0.7-6.2c0-0.1-0.1-0.2-0.2-0.2c-0.1,0-0.2,0.1-0.2,0.1c0,0,0,0.1,0,0.1c0.2,1.9-0.1,3.9-0.7,6
			c-0.1,0.4-0.2,0.7-0.4,1.1c-1.2-1.3-2.4-2.6-3.7-3.8c0.1-2.9-0.4-5.6-1.4-7.8c0-0.1-0.1-0.1-0.2-0.1c-0.1,0-0.2,0.1-0.2,0.1
			c0,0,0,0.1,0,0.1c1.2,2.6,1.4,5.3,1.4,7.2c0,0-4-3.6-5.8-4.8c-0.5-0.3-3.5-2.4-4.5-3.1c-0.1,0-0.2-0.1-0.3,0
			c-0.1,0.1,0,0.2,0.1,0.3c0.9,0.6,1.7,1.2,2.6,1.8c2.6,1.8,7.7,6,7.7,6.1c-2.3,0.7-4.4,1.1-6.4,1c-0.1,0-0.2,0.1-0.2,0.2
			c0,0.1,0,0.1,0,0.2c0,0,0.1,0.1,0.2,0.1c2.1,0.1,4.4-0.3,6.8-1.1c1.4,1.4,2.8,2.8,4,4.2c-2.5,0.8-5,1-7.3,0.6
			c-0.1,0-0.2,0-0.2,0.1c0,0.1,0,0.1,0,0.2c0,0.1,0.1,0.1,0.1,0.1c2.4,0.4,5,0.1,7.6-0.7c1.6,1.8,3,3.5,4.2,5.3
			c-2.7,0.8-5.4,1-7.8,0.6c-0.1,0-0.2,0-0.2,0.1c0,0.1,0,0.1,0,0.2c0,0.1,0.1,0.1,0.1,0.1c2.5,0.4,5.3,0.2,8.1-0.7
			c1.2,1.7,2.3,3.5,3.3,5.3c-3,1.2-6.3,1.4-9.1,0.8c-0.1,0-0.2,0-0.2,0.1c0,0.1,0,0.1,0,0.2c0,0.1,0.1,0.1,0.1,0.1
			c2.9,0.7,6.3,0.4,9.4-0.8C129.7,35.2,130.2,36.2,130.7,37.2z"/>
	</g>
	<g>
		<path d="M125.8,127.9c1.8,0.3,2.9-0.5,3-0.5c0.1-0.1,0.1-0.2,0-0.3c-0.1-0.1-0.2-0.1-0.3,0c0,0-1,0.8-2.6,0.5
			c1-3.7,1.2-6.6,1.2-6.7c0-0.1-0.1-0.2-0.2-0.2c-0.1,0-0.2,0.1-0.2,0.2c0,0.1-0.2,3.7-1.6,8.1c-1.4-0.7-1.8-1.7-1.8-1.7
			c0-0.1-0.2-0.1-0.3-0.1c-0.1,0-0.1,0.2-0.1,0.3c0,0,0.2,0.4,0.6,0.9c0.3,0.3,0.8,0.7,1.4,1c-0.8,2.5-2,5.1-3.7,7.6
			c-0.1,0.1,0,0.2,0,0.3c0.1,0.1,0.2,0,0.3,0C123.6,134.2,124.9,130.8,125.8,127.9z"/>
		<g>
			<path class="st6" d="M135.1,129.5c-2.3,1.1-4.9,0.5-6.5-1.8c-1.6-2.4-1-5.1,0.8-6.7c2.4-2.2,9.8-0.8,10-0.5
				C139.7,120.7,138,128,135.1,129.5z"/>
			<path d="M136.6,127.1c0.1,0,0.1-0.1,0.1-0.2c0-0.1-0.1-0.1-0.2-0.1c-3.7,1.7-5.8,0.6-6.5,0.2c0.8-0.3,2.1-0.9,3.8-2.1
				c3.2-2.2,4.3-3.5,4.4-3.6c0-0.1,0-0.2,0-0.2c-0.1-0.1-0.2,0-0.2,0c0,0-1.2,1.4-4.3,3.5c-1.8,1.3-3.2,1.8-3.9,2.1
				c0.1-0.8,1-4.3,3.7-6.1c0.1,0,0.1-0.1,0-0.2c0-0.1-0.1-0.1-0.2,0c-3.1,2.1-3.8,6.4-3.8,6.4c0,0-0.4,0.1-0.4,0.1
				c-0.1,0-0.1,0.1-0.1,0.2c0,0.1,0.1,0.1,0.2,0.1c0,0,0.2,0,0.6-0.2C130.1,127.4,132.3,129,136.6,127.1z"/>
		</g>
		<g>
			<path class="st7" d="M132,116.4c-0.2,2.5-2,4.5-4.8,4.7c-2.8,0.1-4.8-1.8-5.3-4.3c-0.6-3.2,4.2-8.9,4.6-8.9
				C126.9,107.8,132.3,113.1,132,116.4z"/>
			<path d="M130.7,113.8c0-0.1,0-0.2-0.1-0.2c-0.1,0-0.1,0-0.2,0.1c-0.4,4.1-2.5,5.4-3.1,5.7c0.2-0.8,0.3-2.3,0.2-4.4
				c-0.2-3.9-0.8-5.6-0.8-5.7c0-0.1-0.1-0.1-0.2-0.1c-0.1,0-0.1,0.1-0.1,0.2c0,0,0.6,1.7,0.8,5.6c0.1,2.3-0.1,3.7-0.2,4.5
				c-0.6-0.5-3.2-3.1-3.3-6.4c0-0.1-0.1-0.1-0.1-0.1c-0.1,0-0.1,0.1-0.1,0.2c0.2,3.8,3.5,6.7,3.5,6.7c0,0-0.1,0.4-0.1,0.4
				c0,0.1,0,0.2,0.1,0.2c0.1,0,0.1,0,0.2-0.1c0,0,0.1-0.2,0.2-0.6C127.7,119.7,130.2,118.6,130.7,113.8z"/>
		</g>
		<g>
			<path class="st2" d="M116.3,127.2c1.7,1.9,4.4,2.3,6.7,0.7c2.3-1.6,2.6-4.4,1.5-6.6c-1.5-2.9-8.9-4.4-9.2-4.2
				C114.9,117.3,114.1,124.8,116.3,127.2z"/>
			<path d="M115.7,124.4c-0.1-0.1-0.1-0.1,0-0.2c0.1-0.1,0.1-0.1,0.2,0c2.9,3,5.3,2.7,6,2.5c-0.6-0.6-1.6-1.6-2.9-3.3
				c-2.3-3.2-2.9-4.9-2.9-5c0-0.1,0-0.2,0.1-0.2c0.1,0,0.2,0,0.2,0.1c0,0,0.6,1.7,2.9,4.9c1.3,1.9,2.4,2.9,3,3.4
				c0.1-0.8,0.5-4.4-1.4-7c0-0.1,0-0.2,0-0.2c0.1,0,0.2,0,0.2,0c2.3,3.1,1.5,7.4,1.4,7.4c0,0,0.3,0.2,0.3,0.2c0.1,0,0.1,0.1,0.1,0.2
				c-0.1,0.1-0.1,0.1-0.2,0.1c0,0-0.2-0.1-0.5-0.4C121.7,127.1,119.1,127.8,115.7,124.4z"/>
		</g>
	</g>
	<g>
		<path d="M16,66c-1.3,1.2-2.7,1-2.7,1c-0.1,0-0.2-0.1-0.2-0.2c0-0.1,0.1-0.2,0.2-0.2c0,0,1.2,0.1,2.4-0.9c-2.7-2.6-4.3-4.9-4.3-4.9
			c-0.1-0.1,0-0.2,0-0.3c0.1-0.1,0.2,0,0.3,0c0,0,2,2.9,5.4,5.9c0.8-1.2,0.7-2.3,0.7-2.3c0-0.1,0.1-0.2,0.2-0.2
			c0.1,0,0.2,0.1,0.2,0.2c0,0,0.1,0.4-0.1,1c-0.1,0.4-0.3,1-0.7,1.6c1.9,1.6,4.2,3.3,6.8,4.4c0.1,0,0.1,0.1,0.1,0.2
			c0,0.1-0.1,0.1-0.2,0.1C20.8,70.1,18.1,68,16,66z"/>
		<g>
			<path class="st8" d="M9,71.9c2.4-0.2,4.3-2,4.4-4.7c0.1-2.7-1.7-4.7-4-5.2c-3-0.6-8.5,4.2-8.5,4.6C0.9,67,5.9,72.2,9,71.9z"/>
			<path d="M6.6,70.7c-0.1,0-0.1,0-0.2-0.1c0-0.1,0-0.1,0.1-0.2c3.9-0.5,5.1-2.4,5.4-3.1c-0.8,0.2-2.2,0.3-4.2,0.2
				c-3.7-0.2-5.3-0.7-5.4-0.8c-0.1,0-0.1-0.1-0.1-0.2c0-0.1,0.1-0.1,0.2-0.1c0,0,1.6,0.5,5.3,0.7c2.1,0.1,3.5-0.1,4.3-0.2
				c-0.5-0.5-2.9-3.1-6.1-3.2c-0.1,0-0.1-0.1-0.1-0.1c0-0.1,0.1-0.1,0.1-0.1c3.6,0.1,6.3,3.4,6.4,3.4c0,0,0.4-0.1,0.4-0.1
				c0.1,0,0.2,0,0.2,0.1c0,0.1,0,0.2-0.1,0.2c0,0-0.2,0.1-0.6,0.2C12.1,67.7,11.1,70.2,6.6,70.7z"/>
		</g>
		<g>
			<path class="st2" d="M5,59.6c1.4,2,3.9,2.7,6.3,1.4c2.4-1.3,3.1-3.9,2.2-6.2c-1.1-2.9-7.9-5.3-8.3-5.1C5,49.9,3.2,57,5,59.6z"/>
			<path d="M4.8,56.8c0-0.1,0-0.1,0-0.2c0.1,0,0.1,0,0.2,0c2.4,3.2,4.7,3.2,5.4,3.1c-0.5-0.6-1.4-1.7-2.3-3.5
				c-1.8-3.4-2.2-5-2.2-5.1C5.9,51.1,6,51,6,51c0.1,0,0.1,0,0.2,0.1c0,0,0.4,1.7,2.2,5c1,1.9,1.9,3,2.4,3.6c0.2-0.7,1.1-4.1-0.5-6.9
				c0-0.1,0-0.2,0.1-0.2c0.1,0,0.1,0,0.2,0.1c1.8,3.2,0.5,7.2,0.5,7.3c0,0,0.3,0.3,0.3,0.3c0.1,0,0.1,0.2,0,0.2c0,0.1-0.1,0-0.2,0
				c0,0-0.2-0.1-0.4-0.4C10.2,60.2,7.6,60.5,4.8,56.8z"/>
		</g>
		<g>
			<path class="st5" d="M23.4,60.6c-0.5,2.4-2.5,4.1-5.2,3.9c-2.7-0.2-4.4-2.3-4.5-4.7c-0.2-3.1,5.1-8,5.5-8
				C19.6,51.8,24.1,57.6,23.4,60.6z"/>
			<path d="M22.5,58.1c0-0.1,0-0.2-0.1-0.2c-0.1,0-0.1,0-0.2,0.1c-0.9,3.9-3,4.9-3.7,5.1c0.3-0.8,0.6-2.1,0.7-4.2
				c0.3-3.8-0.1-5.5-0.1-5.6c0-0.1-0.1-0.1-0.2-0.1c-0.1,0-0.1,0.1-0.1,0.2c0,0,0.3,1.7,0.1,5.5c-0.2,2.2-0.5,3.6-0.8,4.3
				c-0.5-0.6-2.6-3.3-2.4-6.5c0-0.1,0-0.1-0.1-0.2c-0.1,0-0.1,0-0.1,0.1c-0.3,3.7,2.5,6.8,2.5,6.8c0,0-0.2,0.4-0.2,0.4
				c0,0.1,0,0.2,0.1,0.2c0.1,0.1,0.2,0,0.2-0.1c0,0,0.1-0.2,0.2-0.6C18.9,63.3,21.4,62.6,22.5,58.1z"/>
		</g>
	</g>
	<g>
		<g>
			<path class="st9" d="M59,22.8c0.1,0.7,1,0.1,1.5-0.1c3.2-1.4,6.4-2.1,9.7-3.1c3.1-1,6.6-2.4,8.4-5.3c1.6-2.5,1.6-5.9-0.5-8.2
				C77,5,75.4,4.4,74.1,4.8c0-2.1-1.7-4-3.9-4.6c-2.8-0.8-5.6,0.4-7.4,2.6c-2.1,2.5-3.5,5.4-4.1,8.7C58.1,15,58.6,19.4,59,22.8z"/>
		</g>
		<path d="M73.4,6.1c0.1,0.2,0,0.4-0.1,0.5c0,0-0.4,0.3-1,0.7c2.5,3.9,1.2,8.9,1.2,9.1c-0.1,0.2-0.2,0.3-0.4,0.2
			c-0.2,0-0.3-0.2-0.2-0.4c0-0.1,1.2-4.8-1-8.5c-1,0.7-2.3,1.7-3.6,3c1.8,5.1-0.2,8-0.3,8.2c-0.1,0.2-0.3,0.2-0.5,0.1
			c-0.2-0.1-0.2-0.3-0.1-0.5c0,0,1.8-2.7,0.3-7.2c-2.4,2.3-4.8,5.4-5.8,8.9c-0.1,0.2-0.2,0.3-0.4,0.2c-0.2-0.1-0.3-0.2-0.2-0.4
			c0.1-0.4,0.2-0.7,0.3-1c0.9-2.5,2.4-4.7,4.1-6.6c-0.9-0.1-2.9,0-4.9,1.1c-0.2,0.1-0.4,0-0.5-0.1C60,13.2,60,13.1,60,13
			c0-0.1,0.1-0.1,0.2-0.2c2.7-1.5,5.2-1.2,5.8-1.1c1.4-1.5,2.9-2.8,4.1-3.7c-1.4-0.3-5-1-8,0c-0.2,0.1-0.4,0-0.4-0.2
			c0-0.1,0-0.2,0-0.2c0-0.1,0.1-0.2,0.2-0.2C65.5,6,70,7.2,70.8,7.4c1.2-0.9,2-1.4,2.1-1.5C73,5.8,73.2,5.9,73.4,6.1z"/>
	</g>
	<g>
		<g>
			<path class="st10" d="M113.5,131.4c0-0.5-0.8-0.2-1.2-0.1c-2.7,0.9-5.4,1.1-8.2,1.7c-2.6,0.5-5.5,1.4-7.3,3.6
				c-1.5,1.9-1.8,4.6-0.3,6.7c0.8,1.1,2,1.7,3.2,1.5c-0.2,1.7,1.1,3.4,2.8,4c2.2,0.9,4.6,0.1,6.2-1.5c2-1.9,3.3-4.1,4-6.7
				C113.5,137.9,113.5,134.2,113.5,131.4z"/>
		</g>
		<path d="M100.4,143.8c-0.1-0.1,0-0.3,0.1-0.4c0,0,0.4-0.2,0.9-0.5c-1.7-3.4-0.2-7.3-0.2-7.5c0.1-0.1,0.2-0.2,0.4-0.2
			c0.1,0.1,0.2,0.2,0.2,0.4c0,0-1.4,3.8,0.1,7c0.8-0.5,2-1.2,3.2-2.1c-1.1-4.3,0.8-6.5,0.9-6.6c0.1-0.1,0.3-0.1,0.4,0
			c0.1,0.1,0.1,0.3,0,0.4c0,0-1.7,2-0.8,5.8c2.1-1.7,4.4-4,5.5-6.7c0.1-0.1,0.2-0.2,0.4-0.2c0.1,0.1,0.2,0.2,0.2,0.4
			c-0.1,0.3-0.2,0.5-0.4,0.8c-1,1.9-2.4,3.6-3.9,5c0.7,0.1,2.3,0.3,4.1-0.5c0.1-0.1,0.3,0,0.4,0.2c0,0.1,0,0.2,0,0.2
			c0,0.1-0.1,0.1-0.1,0.1c-2.3,1-4.3,0.5-4.8,0.4c-1.3,1.1-2.6,2-3.6,2.7c1.1,0.4,4,1.3,6.5,0.7c0.2,0,0.3,0.1,0.3,0.2
			c0,0.1,0,0.1,0,0.2c0,0.1-0.1,0.1-0.2,0.1c-3.1,0.7-6.6-0.6-7.2-0.9c-1,0.6-1.7,1-1.8,1C100.7,144,100.5,143.9,100.4,143.8z"/>
	</g>
	<g>
		<g>
			<path class="st11" d="M99,11.7c-0.2-2.7-1-5.2-2.5-7.4c-1.3-1.9-3.4-3.2-5.8-2.8c-1.8,0.3-3.4,1.7-3.6,3.4
				c-1.1-0.5-2.4-0.1-3.5,0.8c-1.9,1.6-2.2,4.4-1.1,6.6c1.2,2.5,3.9,4,6.3,5c2.6,1.1,5.1,1.9,7.6,3.4c0.4,0.2,1.1,0.7,1.2,0.2
				C98.4,18.1,99.2,14.6,99,11.7z"/>
		</g>
		<path d="M87.6,6c-0.1,0.1-0.1,0.3,0.1,0.4c0,0,0.3,0.2,0.8,0.7c-2.3,3-1.8,7.1-1.7,7.3c0,0.2,0.2,0.3,0.3,0.2
			c0.2,0,0.3-0.2,0.2-0.3c0,0-0.6-4,1.6-6.8c0.7,0.7,1.7,1.6,2.7,2.8c-1.9,4-0.6,6.5-0.5,6.6c0.1,0.1,0.2,0.2,0.4,0.1
			c0.1-0.1,0.2-0.2,0.1-0.4c0,0-1.2-2.3,0.4-5.9c1.7,2.1,3.4,4.8,3.9,7.7c0,0.2,0.2,0.3,0.3,0.2c0.2,0,0.3-0.2,0.2-0.3
			c-0.1-0.3-0.1-0.6-0.2-0.9c-0.5-2.1-1.6-4-2.7-5.7c0.8,0,2.3,0.2,3.9,1.3c0.1,0.1,0.3,0.1,0.4-0.1c0.1-0.1,0.1-0.2,0-0.2
			c0-0.1-0.1-0.1-0.1-0.2c-2.1-1.4-4.1-1.4-4.6-1.4c-1-1.3-2.1-2.5-3-3.4c1.2-0.2,4.2-0.4,6.5,0.7c0.1,0.1,0.3,0,0.4-0.1
			c0-0.1,0-0.1,0-0.2C97,8.1,96.9,8,96.9,8c-2.9-1.3-6.6-0.8-7.3-0.7C88.7,6.5,88.1,6,88,6C87.9,5.9,87.7,5.9,87.6,6z"/>
	</g>
	<g>
		<path class="st12" d="M127.7,52.1c-0.3,0.5-2.4,1.2-4.8,1.3c0.4,3.9,0.1,7.6-0.6,7.9c-0.7,0.3-3.5-2-5.8-5.3
			c-1.8,1.5-3.8,2.3-4.4,2.2c-0.9-0.2-0.1-3.3,0.5-7.4c-1.3-1.2-2.6-1.4-2.5-1.9c0.2-0.6,4.3-3.4,6.9-1.2c0.1-3,5.3-4.2,5.8-3.8
			c0.4,0.3-0.3,1.2-0.5,2.9C125.5,49.5,128.2,51.4,127.7,52.1z"/>
		<path d="M125.9,51.2c0.1,0.1,0.1,0.2,0.1,0.3c-0.1,0.1-0.2,0.1-0.3,0.1c-3.8-2.5-6.2-1.9-7-1.6c0.3,0.4,0.9,1.3,1.4,2.4
			c1.6,4,1.8,7.3,1.8,7.3c0,0.1-0.1,0.2-0.2,0.2c-0.1,0-0.2-0.1-0.2-0.2c0,0-0.2-3.2-1.7-7.1c-0.5-1.2-1.2-2.1-1.4-2.4
			c-0.6,0.2-3.1,1.1-4.7,6c0,0.1-0.2,0.2-0.3,0.1c-0.1,0-0.2-0.2-0.1-0.3c1.4-4.3,3.6-5.7,4.6-6.1c-1-0.4-3.2-1.1-5.4-0.5
			c-0.1,0-0.2,0-0.3-0.2c0-0.1,0-0.2,0.1-0.3c0,0,0,0,0,0c2.6-0.7,5.1,0.3,5.9,0.7c0.2-0.8,1-3.2,3.5-4.9c0,0,0,0,0,0
			c0.1,0,0.2,0,0.3,0.1c0.1,0.1,0,0.2-0.1,0.3c-2.2,1.5-3,3.6-3.2,4.5C119.6,49.1,122.1,48.6,125.9,51.2z"/>
	</g>
	<g>
		<path class="st13" d="M0,82c0.1,0.6,1.9,2.1,4.2,3c-1.9,3.6-3,7.3-2.4,7.9c0.6,0.5,4.1-0.6,7.6-2.9c1.1,2.2,2.8,3.7,3.4,3.8
			c0.9,0.1,1.3-3.1,2.3-7.3c1.7-0.7,3.1-0.3,3.1-0.9c0.1-0.7-2.9-4.9-6.2-3.7c1.1-2.9-3.5-6-4.2-5.9c-0.5,0.1-0.2,1.3-0.6,3
			C3.1,80.4-0.2,81.1,0,82z"/>
		<path d="M2.1,81.8c-0.1,0-0.2,0.2-0.2,0.3c0,0.1,0.2,0.2,0.3,0.2c4.6-1,6.7,0.5,7.3,1.1c-0.4,0.3-1.4,0.9-2.2,1.8
			c-3,3.3-4.4,6.3-4.4,6.4c-0.1,0.1,0,0.3,0.1,0.3c0.1,0.1,0.3,0,0.3-0.1c0,0,1.4-3,4.4-6.2c0.9-1,1.9-1.6,2.2-1.8
			c0.5,0.4,2.6,2.3,2.3,7.5c0,0.1,0.1,0.2,0.2,0.2c0.1,0,0.2-0.1,0.2-0.2c0.3-4.7-1.3-6.8-2.1-7.6c1.1,0,3.5,0.1,5.4,1.5
			c0.1,0.1,0.3,0.1,0.3,0c0.1-0.1,0.1-0.2,0-0.3c0,0,0,0,0,0c-2.2-1.7-5-1.7-6-1.6c0.1-0.9,0.3-3.5-1.5-6c0,0,0,0,0,0
			c-0.1-0.1-0.2-0.1-0.3,0c-0.1,0.1-0.1,0.2-0.1,0.3c1.6,2.2,1.5,4.6,1.4,5.5C9,82.2,6.7,80.8,2.1,81.8z"/>
	</g>
	<g>
		<path class="st14" d="M128.9,44c0.3,0.5,2.4,1.3,4.8,1.4c-0.5,3.9-0.3,7.6,0.3,7.9c0.7,0.3,3.5-1.9,5.9-5.1
			c1.7,1.6,3.7,2.4,4.3,2.3c0.9-0.2,0.2-3.3-0.3-7.3c1.4-1.2,2.7-1.3,2.5-1.8c-0.2-0.6-4.2-3.5-6.8-1.4c0-3-5.1-4.3-5.7-4
			c-0.5,0.2,0.3,1.3,0.4,2.9C131.1,41.6,128.4,43.3,128.9,44z"/>
		<path d="M130.7,43.2c-0.1,0.1-0.1,0.2-0.1,0.3c0.1,0.1,0.2,0.1,0.3,0.1c3.8-2.4,6.3-1.7,7-1.4c-0.3,0.4-1,1.2-1.4,2.3
			c-1.7,3.9-2,7.1-2,7.2c0,0.1,0.1,0.2,0.2,0.2c0.1,0,0.2-0.1,0.2-0.2c0,0,0.3-3.2,1.9-7c0.5-1.2,1.2-2,1.5-2.3
			c0.6,0.2,3,1.2,4.4,6.1c0,0.1,0.2,0.2,0.3,0.2c0.1,0,0.2-0.2,0.2-0.3c-1.3-4.3-3.3-5.8-4.3-6.2c1-0.4,3.2-1,5.4-0.3
			c0.1,0,0.2,0,0.3-0.1c0-0.1,0-0.2-0.1-0.3c0,0,0,0,0,0c-2.6-0.8-5.1,0.1-5.9,0.5c-0.2-0.8-0.9-3.2-3.3-5c0,0,0,0,0,0
			c-0.1,0-0.2,0-0.3,0.1c-0.1,0.1,0,0.2,0.1,0.3c2.1,1.5,2.9,3.6,3.1,4.5C137,41.3,134.5,40.8,130.7,43.2z"/>
	</g>
	<g>
		<path class="st15" d="M134.7,58.3c1,0.1,1.7,0.4,2.2,0.8c-2.4,2.7-5,7.2-2.6,5.6c1.5-1,2.7-1,3.8-1.1c-0.1,3.7,1.6,9,2.3,9.2
			c0.8,0.2,4.9-3.5,6.7-6.7c0.9,0.6,1.9,1.3,2.7,2.9c1.3,2.6,1.4-2.6,0.7-6.2c0.7,0,1.5,0,2.4,0.5c2.7,1.3-1.5-4.8-3.7-6
			c-1.5-0.8-3.1-1-4.2-0.5c-0.7-1-2.2-1.7-3.9-1.7C138.4,54.9,131.8,58.1,134.7,58.3z"/>
		<path d="M136.8,57.5c0,0.1,0.1,0.1,0.2,0.1c3.3-1.9,5.6,0.2,6.4,1.1c-1.2-0.3-4.5-0.4-8.2,4.6c-0.1,0.1,0,0.2,0,0.2
			c0.1,0.1,0.2,0,0.2,0c3.5-4.8,6.7-4.7,7.9-4.5c-0.4,0.1-0.9,0.4-1.4,0.8c-1,0.7-2.2,2.1-2.8,4.6c0,0.1,0,0.2,0.1,0.2
			c0.1,0,0.2,0,0.2-0.1c0.8-3.7,3.2-4.9,4.1-5.3c-0.2,0.5-0.6,1.7-1.4,4.6c-1.4,5.3-1.4,7.2-1.4,7.2c0,0.1,0.1,0.2,0.2,0.2
			c0.1,0,0.2-0.1,0.2-0.2c0,0,0-1.9,1.4-7.1c0.9-3.3,1.3-4.4,1.5-4.7c0.5,0.7,2,3.6,0.8,8.1c0,0.1,0,0.2,0.1,0.2
			c0.1,0,0.2,0,0.2-0.1c0.8-2.8,0.5-5,0.1-6.3c-0.3-0.9-0.6-1.5-0.8-1.9c0.4,0.2,1.1,0.5,1.8,1.2c1.1,1,2.7,3,3.7,6.6
			c0,0.1,0.1,0.1,0.2,0.1c0.1,0,0.1-0.1,0.1-0.2c-1.6-5.8-4.6-7.6-5.8-8c0.4-0.1,1.1-0.3,1.9-0.3c1.7,0,3.1,0.9,4.1,2.6
			c0,0.1,0.1,0.1,0.2,0.1c0.1,0,0.1-0.1,0.1-0.2c-0.9-1.5-2-2.3-3.1-2.6c-1.7-0.5-3.2,0.1-3.6,0.3c-0.3-0.4-1.4-1.6-3.1-2.1
			c-1.1-0.3-2.5-0.3-4,0.6C136.7,57.3,136.7,57.4,136.8,57.5z"/>
	</g>
	<g>
		<path class="st15" d="M71.3,136.9c1.1,0.1,1.9,0.4,2.6,0.9c-2.7,3.2-5.5,8.4-2.8,6.6c1.7-1.2,3-1.3,4.3-1.4c0,4.2,2.2,10.2,3,10.4
			c0.9,0.2,5.5-4.2,7.4-7.9c1.1,0.7,2.2,1.4,3.2,3.2c1.6,2.9,1.5-3.1,0.5-7.1c0.8-0.1,1.7,0,2.7,0.4c3.1,1.4-1.9-5.5-4.5-6.8
			c-1.8-0.9-3.6-1-4.9-0.4c-0.9-1.1-2.6-1.8-4.5-1.9C75.5,132.9,68,136.7,71.3,136.9z"/>
		<path d="M73.6,135.9c0.1,0.1,0.2,0.1,0.3,0.1c3.7-2.3,6.4,0,7.4,1c-1.4-0.3-5.2-0.3-9.3,5.6c-0.1,0.1,0,0.2,0,0.3
			c0.1,0.1,0.2,0,0.3,0c3.8-5.6,7.5-5.7,8.8-5.5c-0.4,0.2-1,0.5-1.6,1c-1.1,0.9-2.4,2.5-3,5.4c0,0.1,0.1,0.2,0.1,0.2
			c0.1,0,0.2,0,0.2-0.1c0.8-4.3,3.5-5.8,4.5-6.2c-0.2,0.6-0.7,2-1.5,5.4c-1.4,6.2-1.4,8.3-1.3,8.3c0,0.1,0.1,0.2,0.2,0.2
			c0.1,0,0.2-0.1,0.2-0.2c0,0-0.1-2.1,1.3-8.2c0.9-3.8,1.3-5,1.5-5.4c0.6,0.8,2.4,4.1,1.2,9.3c0,0.1,0,0.2,0.1,0.2
			c0.1,0,0.2,0,0.2-0.1c0.8-3.2,0.4-5.7-0.1-7.2c-0.3-1-0.7-1.7-1-2.1c0.5,0.2,1.3,0.6,2.2,1.3c1.4,1.1,3.2,3.3,4.5,7.4
			c0,0.1,0.1,0.2,0.2,0.1c0.1,0,0.2-0.1,0.1-0.2c-2.1-6.6-5.6-8.5-6.9-9c0.5-0.2,1.3-0.4,2.2-0.4c2,0,3.6,0.9,4.8,2.8
			c0.1,0.1,0.2,0.1,0.3,0.1c0.1-0.1,0.1-0.2,0.1-0.3c-1.1-1.7-2.4-2.5-3.6-2.8c-1.9-0.5-3.7,0.2-4.2,0.4c-0.3-0.4-1.6-1.8-3.6-2.3
			c-1.3-0.3-2.8-0.2-4.6,0.9C73.6,135.7,73.6,135.8,73.6,135.9z"/>
	</g>
	<g>
		<path d="M137.9,116c-0.1,0-0.2,0-0.2-0.1c0-0.1-1.7-6.4,3.5-14.6c6.3-10,5.8-18.5,5.8-18.6c0-0.1,0.1-0.2,0.2-0.2
			c0.1,0,0.2,0.1,0.2,0.2c0,0.1,0.5,8.7-5.9,18.8c-5.2,8.1-3.5,14.2-3.5,14.3C138.1,115.8,138.1,115.9,137.9,116z"/>
		<path class="st16" d="M147.1,75.5c1.3,0,2.3,1.4,2.3,3.1c0,1.7-1.1,3.1-2.3,3c-1.3,0-2.3-1.4-2.3-3.1
			C144.8,76.9,145.8,75.5,147.1,75.5z"/>
		<path class="st17" d="M153,84.4c0.7,1.1,0.1,2.7-1.3,3.6c-1.4,0.9-3.1,0.8-3.8-0.2c-0.7-1.1-0.1-2.7,1.3-3.6
			C150.6,83.2,152.3,83.3,153,84.4z"/>
		<path class="st16" d="M150.8,92.8c0.7,1.1,0.1,2.7-1.3,3.6c-1.4,0.9-3.1,0.8-3.8-0.2c-0.7-1.1-0.1-2.7,1.3-3.6
			C148.4,91.7,150.1,91.8,150.8,92.8z"/>
		<path class="st17" d="M147.3,101.8c0.4,1.2-0.6,2.6-2.2,3.1c-1.6,0.5-3.2,0-3.6-1.2c-0.4-1.2,0.6-2.6,2.2-3.1
			C145.2,100,146.8,100.5,147.3,101.8z"/>
		<path class="st16" d="M145.1,89.5c-1,0.7-2.7,0.2-3.6-1.2c-1-1.4-0.9-3.1,0.1-3.8c1-0.7,2.7-0.2,3.6,1.2
			C146.2,87,146.2,88.7,145.1,89.5z"/>
		<path class="st17" d="M142.4,97.8c-1,0.7-2.7,0.2-3.6-1.2c-1-1.4-0.9-3.1,0.1-3.8c1-0.7,2.7-0.2,3.6,1.2
			C143.5,95.4,143.4,97.1,142.4,97.8z"/>
		<path class="st16" d="M137.8,105.8c-1.2,0.4-2.6-0.5-3.2-2.1c-0.6-1.6-0.1-3.2,1.1-3.7c1.2-0.4,2.6,0.5,3.2,2.1
			C139.5,103.7,139,105.3,137.8,105.8z"/>
		<g>
			<path d="M147.1,81.5c0,0,0.1,0,0.1-0.1c0,0,0.2-0.8,0.2-1.9c0.1-1.8-0.1-3-0.3-3.6c0-0.1-0.1-0.1-0.2-0.1c-0.1,0-0.1,0.1-0.1,0.2
				c0.7,2.2,0.1,5.3,0.1,5.4C147,81.4,147.1,81.4,147.1,81.5z"/>
			<path d="M152.7,84.5c-0.1,0-0.1,0-0.2,0c-1.1,1.4-3.1,2.5-3.9,2.9c-0.2,0.1-0.5,0.2-0.5,0.2c-0.1,0-0.1,0.1-0.1,0.2
				c0,0.1,0.1,0.1,0.2,0.1c0,0,0.2-0.1,0.5-0.2c0.8-0.4,2.9-1.5,4-3C152.8,84.6,152.8,84.5,152.7,84.5z"/>
			<path d="M150.4,93c-1.1,1.4-3.1,2.5-3.9,2.9c-0.2,0.1-0.5,0.2-0.5,0.2c-0.1,0-0.1,0.1-0.1,0.2c0,0.1,0.1,0.1,0.2,0.1
				c0,0,0.2-0.1,0.5-0.3c0.8-0.4,2.8-1.5,4-2.9c0-0.1,0-0.1,0-0.2C150.5,92.9,150.5,92.9,150.4,93z"/>
			<path d="M146.8,101.7c0,0-0.7,0.4-1.1,0.6c-1.7,0.9-4,1.2-4,1.2c0,0-0.1,0-0.1,0.1c0,0.1,0.1,0.1,0.1,0.1c0,0,2.3-0.3,4.1-1.3
				c0.4-0.2,0.8-0.4,1.1-0.7c0,0,0.1-0.1,0-0.2C147,101.7,146.9,101.7,146.8,101.7z"/>
			<path d="M145,89.2c0-0.1,0-0.1,0-0.2c-0.7-0.6-1.5-1.5-2.3-2.6c-0.6-0.9-0.9-1.6-1-1.7c0,0-0.1-0.1-0.2-0.1
				c-0.1,0-0.1,0.1-0.1,0.2c0,0,1.5,3.1,3.3,4.4C144.9,89.3,145,89.3,145,89.2z"/>
			<path d="M142.3,97.6c0.1-0.1,0-0.2,0-0.2c-1-0.7-1.8-1.8-2.3-2.6c-0.6-0.9-0.9-1.6-0.9-1.6c0,0-0.1-0.1-0.2-0.1
				c-0.1,0.1-0.1,0.1-0.1,0.2c0,0,1.5,3.1,3.3,4.4C142.2,97.7,142.3,97.6,142.3,97.6z"/>
			<path d="M135.6,100.3c-0.1,0-0.1,0.1-0.1,0.2c0,0,0.7,3.4,2.1,5.1c0,0,0.1,0.1,0.2,0c0.1,0,0.1-0.1,0-0.2
				c-0.6-0.7-1.1-1.8-1.5-3.1c-0.3-1-0.5-1.7-0.5-1.9l0,0C135.8,100.3,135.7,100.2,135.6,100.3z"/>
		</g>
	</g>
	<g>
		<path d="M56.7,2.6c0.1,0.1,0.1,0.2,0.1,0.3c0,0.1-3.3,5.5-12.5,7.4c-11.2,2.3-16.8,8.4-16.8,8.5c-0.1,0.1-0.2,0.1-0.3,0
			c-0.1-0.1-0.1-0.2,0-0.3c0.1-0.1,5.7-6.3,17-8.6C53.3,8,56.4,2.7,56.4,2.7C56.5,2.6,56.6,2.5,56.7,2.6z"/>
		<path class="st18" d="M22.4,23.5c-0.8-0.9-0.6-2.5,0.6-3.7c1.2-1.1,2.8-1.3,3.7-0.4c0.8,0.9,0.6,2.5-0.6,3.7
			C24.9,24.2,23.3,24.4,22.4,23.5z"/>
		<path class="st19" d="M24.6,13.4c0.3-1.2,1.8-1.9,3.4-1.5c1.6,0.3,2.7,1.6,2.4,2.8c-0.3,1.2-1.8,1.9-3.4,1.5
			C25.4,15.9,24.4,14.6,24.6,13.4z"/>
		<path class="st18" d="M31.9,9.2c0.3-1.2,1.8-1.9,3.4-1.5c1.6,0.3,2.7,1.6,2.4,2.8c-0.3,1.2-1.8,1.9-3.4,1.5
			C32.8,11.7,31.7,10.4,31.9,9.2z"/>
		<path class="st19" d="M40.5,5.7c0.6-1.1,2.2-1.4,3.7-0.6c1.5,0.8,2.2,2.2,1.6,3.3c-0.6,1.1-2.2,1.4-3.7,0.6
			C40.7,8.3,40,6.8,40.5,5.7z"/>
		<path class="st18" d="M33.4,15.5c1.2,0.2,1.9,1.7,1.6,3.3c-0.3,1.6-1.5,2.7-2.7,2.5c-1.2-0.2-1.9-1.7-1.6-3.3
			C31,16.4,32.2,15.2,33.4,15.5z"/>
		<path class="st19" d="M41.1,11.7c1.2,0.2,1.9,1.7,1.6,3.3c-0.3,1.6-1.5,2.7-2.7,2.5c-1.2-0.2-1.9-1.7-1.6-3.3
			C38.7,12.6,39.9,11.5,41.1,11.7z"/>
		<path class="st18" d="M49.7,9.5c1.1,0.5,1.4,2.1,0.7,3.6c-0.7,1.5-2.2,2.3-3.3,1.7c-1.1-0.5-1.4-2.1-0.7-3.6
			C47.1,9.8,48.6,9,49.7,9.5z"/>
		<g>
			<path d="M26.5,19.5c0,0-0.1-0.1-0.1-0.1c0,0-0.7,0.5-1.5,1.2c-1.3,1.2-2,2.1-2.3,2.7c0,0.1,0,0.1,0.1,0.2c0.1,0,0.1,0,0.2-0.1
				c1-1.9,3.6-3.6,3.7-3.7C26.5,19.6,26.6,19.5,26.5,19.5z"/>
			<path d="M24.8,13.5c0,0.1,0.1,0.1,0.1,0.1c1.7-0.2,3.8,0.5,4.7,0.8c0.2,0.1,0.5,0.2,0.5,0.2c0.1,0,0.1,0,0.2-0.1
				c0-0.1,0-0.1-0.1-0.2c0,0-0.2-0.1-0.5-0.2c-0.8-0.3-3-1-4.7-0.8C24.9,13.4,24.8,13.4,24.8,13.5z"/>
			<path d="M32.3,9.4c1.7-0.2,3.8,0.5,4.7,0.8c0.2,0.1,0.5,0.2,0.5,0.2c0.1,0,0.1,0,0.2-0.1c0-0.1,0-0.1-0.1-0.2
				c0,0-0.2-0.1-0.5-0.2c-0.8-0.3-3-1-4.7-0.8c-0.1,0-0.1,0.1-0.1,0.1C32.2,9.4,32.2,9.4,32.3,9.4z"/>
			<path d="M40.8,6c0,0,0.8,0.2,1.2,0.3c1.7,0.6,3.6,2,3.6,2c0,0,0.1,0.1,0.2,0c0,0,0-0.1,0-0.2c0,0-1.8-1.3-3.6-2
				c-0.4-0.1-0.8-0.3-1.2-0.3c0,0-0.1,0-0.1,0.1C40.7,5.9,40.7,6,40.8,6z"/>
			<path d="M33.3,15.7c-0.1,0-0.1,0.1-0.1,0.1c0.1,0.9,0,2.1-0.3,3.4c-0.2,1-0.5,1.7-0.5,1.8c0,0,0,0.1,0.1,0.2c0.1,0,0.1,0,0.2-0.1
				c0,0,1.1-3.1,0.8-5.3C33.5,15.7,33.4,15.7,33.3,15.7z"/>
			<path d="M41,11.9c-0.1,0-0.1,0.1-0.1,0.1c0.2,1.1-0.1,2.5-0.3,3.4c-0.2,1-0.5,1.8-0.5,1.8c0,0,0,0.1,0.1,0.2c0.1,0,0.1,0,0.2-0.1
				c0,0,1.1-3.1,0.8-5.3C41.1,12,41,11.9,41,11.9z"/>
			<path d="M47.3,14.8c0.1,0,0.1,0,0.2,0c0,0,1.9-2.8,2.1-4.9c0-0.1,0-0.1-0.1-0.1c-0.1,0-0.1,0-0.1,0.1c-0.1,0.9-0.5,2-1.1,3.2
				c-0.5,0.9-0.9,1.5-1,1.6l0,0C47.3,14.7,47.3,14.8,47.3,14.8z"/>
		</g>
	</g>
	<g>
		<path d="M51.5,127c0,0.1,0,0.2,0.1,0.3c0.1,0,5.3,3,14,0.3c10.5-3.4,18-0.9,18.1-0.9c0.1,0,0.2,0,0.2-0.1c0-0.1,0-0.2-0.1-0.2
			c-0.1,0-7.7-2.5-18.3,0.9c-8.5,2.7-13.7-0.2-13.7-0.2C51.7,126.9,51.5,126.8,51.5,127z"/>
		<path class="st18" d="M90,128.2c0.3-1.1-0.7-2.4-2.3-2.8c-1.5-0.4-3,0.2-3.3,1.4c-0.3,1.1,0.7,2.4,2.3,2.8
			C88.3,130,89.8,129.3,90,128.2z"/>
		<path class="st19" d="M83.4,120.8c-0.8-0.9-2.4-0.7-3.6,0.3c-1.2,1.1-1.5,2.6-0.7,3.5c0.8,0.9,2.4,0.7,3.6-0.3
			C83.9,123.2,84.2,121.7,83.4,120.8z"/>
		<path class="st18" d="M75.3,120.7c-0.8-0.9-2.4-0.7-3.6,0.3c-1.2,1.1-1.5,2.6-0.7,3.5c0.8,0.9,2.4,0.7,3.6-0.3
			C75.8,123.2,76.1,121.6,75.3,120.7z"/>
		<path class="st19" d="M66.4,121.9c-1-0.6-2.5-0.1-3.3,1.2c-0.9,1.3-0.8,2.9,0.2,3.6c1,0.6,2.5,0.1,3.3-1.2
			C67.5,124.1,67.4,122.5,66.4,121.9z"/>
		<path class="st18" d="M77,126.7c-0.9,0.8-0.8,2.4,0.2,3.6c1,1.2,2.6,1.6,3.5,0.8c0.9-0.8,0.8-2.4-0.2-3.6
			C79.5,126.3,77.9,125.9,77,126.7z"/>
		<path class="st19" d="M68.8,127.2c-0.9,0.8-0.8,2.4,0.2,3.6c1,1.2,2.6,1.6,3.5,0.8c0.9-0.8,0.8-2.4-0.2-3.6
			C71.3,126.8,69.7,126.4,68.8,127.2z"/>
		<path class="st18" d="M60.6,129.4c-0.7,1-0.2,2.5,1.1,3.4c1.3,0.9,2.9,0.9,3.6-0.1c0.7-1,0.2-2.5-1.1-3.4
			C62.9,128.4,61.3,128.5,60.6,129.4z"/>
		<g>
			<path d="M84.7,126.8c0,0,0-0.1,0.1-0.1c0,0,0.8,0.1,1.8,0.3c1.7,0.3,2.6,0.8,3.2,1.1c0.1,0,0.1,0.1,0,0.2c0,0.1-0.1,0.1-0.2,0
				c-1.8-1.1-4.7-1.3-4.8-1.4C84.7,126.9,84.7,126.8,84.7,126.8z"/>
			<path d="M83.3,121c0,0.1,0,0.1-0.1,0.2c-1.5,0.7-3,2.2-3.5,2.9c-0.2,0.2-0.3,0.4-0.3,0.4c0,0-0.1,0.1-0.2,0c-0.1-0.1,0-0.1,0-0.2
				c0,0,0.1-0.2,0.3-0.4c0.6-0.6,2-2.2,3.6-2.9C83.2,120.9,83.3,120.9,83.3,121z"/>
			<path d="M75.1,121.1c-1.5,0.7-3,2.2-3.5,2.9c-0.2,0.2-0.3,0.4-0.3,0.4c0,0.1-0.1,0.1-0.2,0c-0.1-0.1,0-0.1,0-0.2
				c0,0,0.1-0.2,0.4-0.4c0.6-0.6,2-2.2,3.6-2.9c0.1,0,0.1,0,0.2,0.1C75.2,121,75.2,121.1,75.1,121.1z"/>
			<path d="M66.4,122.3c0,0-0.6,0.5-0.8,0.8c-1.2,1.3-2,3.3-2,3.3c0,0-0.1,0.1-0.2,0.1c0,0-0.1-0.1-0.1-0.2c0,0,0.8-2,2.1-3.4
				c0.3-0.3,0.6-0.6,0.8-0.8c0,0,0.1-0.1,0.2,0C66.4,122.1,66.4,122.2,66.4,122.3z"/>
			<path d="M77.2,126.8c0.1,0,0.1,0,0.2,0.1c0.3,0.8,1,1.7,1.8,2.7c0.6,0.7,1.2,1.2,1.3,1.3c0,0,0.1,0.1,0,0.2c-0.1,0.1-0.1,0-0.2,0
				c0,0-2.4-2.1-3.2-4C77.1,126.9,77.1,126.8,77.2,126.8z"/>
			<path d="M69,127.3c0.1,0,0.1,0,0.2,0.1c0.4,1,1.2,2,1.8,2.7c0.7,0.7,1.3,1.2,1.3,1.2c0,0,0.1,0.1,0,0.2c-0.1,0.1-0.1,0-0.2,0
				c0,0-2.4-2.1-3.2-4C68.9,127.4,69,127.3,69,127.3z"/>
			<path d="M65.1,132.7c0,0.1-0.1,0.1-0.2,0.1c0,0-2.9-1.5-4.1-3.1c0,0,0-0.1,0-0.2c0.1,0,0.1,0,0.2,0c0.5,0.7,1.4,1.4,2.4,2.1
				c0.8,0.5,1.5,0.8,1.6,0.9l0,0C65.1,132.6,65.1,132.6,65.1,132.7z"/>
		</g>
	</g>
	<g>
		<g>
			<path class="st20" d="M66.4,144.4c-0.1-0.8-0.1-2.4-2.5-4.6c-3.8-3.4-11-3.2-11.3-3c-0.6,0.4-1.7,7.1-0.2,10.7
				c2.1,5.5,10.1,5.9,10.5,1.2C65.1,148.3,66.7,146.8,66.4,144.4z"/>
		</g>
		<path d="M63.1,140.3c-0.1,0-0.2,0.2-0.2,0.3c0,0.1,1,3.3-1.8,6.1c-0.5-0.5-1-1.1-1.5-1.7c1.3-2.6,0.9-5.7,0.9-5.8
			c0-0.1-0.2-0.3-0.3-0.2c-0.1,0-0.3,0.2-0.2,0.3c0,0,0.4,2.9-0.8,5.3c-0.7-0.8-1.4-1.6-2.1-2.3c0.6-1.6,0.1-3.9,0-4
			c0-0.1-0.2-0.2-0.3-0.2c-0.1,0-0.2,0.2-0.2,0.3c0,0,0.5,1.9,0.1,3.4c-1.7-2-2.9-3.4-2.9-3.5c-0.1-0.1-0.3-0.1-0.4,0
			c-0.1,0.1-0.1,0.3,0,0.4c0.1,0.2,1.6,2,3.7,4.4c-1.4,0.5-3.6-0.2-3.6-0.2c-0.1,0-0.3,0-0.3,0.2c0,0.1,0,0.3,0.2,0.3
			c1.6,0.5,3.6,0.5,4.2,0.1c0.7,0.7,1.3,1.5,2,2.3c-2.5,1-5.4,0.5-5.4,0.5c-0.1,0-0.3,0.1-0.3,0.2c0,0.1,0.1,0.3,0.2,0.3
			c0.1,0,3.2,0.6,5.9-0.6c0.5,0.6,1,1.1,1.6,1.6c-2.9,2.7-6.1,1.5-6.2,1.4c-0.1-0.1-0.3,0-0.4,0.2c-0.1,0.1,0,0.3,0.2,0.4
			c0,0,3.6,1.3,6.8-1.6c1.3,1.3,2.5,2.4,3.6,3.1c0.1,0.1,0.3,0.1,0.4,0c0.1-0.2,0.1-0.3-0.1-0.4c-1.2-0.8-2.7-2.2-4.2-3.8
			c3-3,1.9-6.7,1.9-6.7C63.4,140.3,63.3,140.2,63.1,140.3z"/>
	</g>
	<g>
		<g>
			<path class="st21" d="M44.7,138.2c5.2-2.3,2.7-9.7-3.6-10.8c-4.1-0.7-10.9,1.9-11.2,2.6c-0.2,0.3,1.2,7.9,5.6,11.2
				c2.8,2.1,4.5,1.7,5.4,1.7C43.5,142.6,44.7,140.7,44.7,138.2z"/>
		</g>
		<path d="M35.9,140.4c0-0.2,0.2-0.3,0.3-0.3c0.2,0,3.7,0.3,6.1-3.2c-0.7-0.4-1.4-0.9-2.1-1.3c-2.5,2-5.8,2.2-5.9,2.2
			c-0.2,0-0.3-0.1-0.3-0.3c0-0.2,0.1-0.3,0.3-0.3c0,0,3.1-0.3,5.4-2c-1-0.6-2-1.2-2.9-1.7c-1.5,1-4,0.9-4.2,0.9
			c-0.2,0-0.3-0.1-0.3-0.3c0-0.2,0.1-0.3,0.3-0.3c0,0,2.2,0.1,3.5-0.6c-2.4-1.3-4.2-2.3-4.3-2.3c-0.1-0.1-0.2-0.3-0.1-0.4
			c0.1-0.1,0.3-0.2,0.4-0.1c0.2,0.1,2.5,1.3,5.4,2.9c0.2-1.6-1-3.7-1-3.7c-0.1-0.1,0-0.3,0.1-0.4c0.1-0.1,0.3,0,0.4,0.1
			c0.9,1.6,1.3,3.7,1,4.3c0.9,0.5,1.9,1.1,2.8,1.7c0.5-2.8-0.6-5.7-0.7-5.8c-0.1-0.1,0-0.3,0.2-0.4c0.1-0.1,0.3,0,0.4,0.2
			c0.1,0.1,1.3,3.2,0.7,6.3c0.7,0.4,1.4,0.9,2.1,1.3c2.1-3.7,0.2-6.7,0.2-6.9c-0.1-0.1,0-0.3,0.1-0.4c0.1-0.1,0.3,0,0.4,0.1
			c0,0,2.2,3.5-0.2,7.5c1.6,1.1,3,2.1,4,3.1c0.1,0.1,0.2,0.3,0,0.4c-0.1,0.2-0.3,0.1-0.4,0c-1.1-1.1-2.9-2.3-4.9-3.6
			c-2.5,3.9-6.6,3.5-6.6,3.5C36,140.7,35.9,140.5,35.9,140.4z"/>
	</g>
	<g>
		<g>
			<path class="st21" d="M131.1,87c0.6,0.1,1.8,0.4,4-1.1c3.3-2.3,4.4-7.8,4.3-8c-0.2-0.5-5.1-2.5-8.1-2.1c-4.6,0.7-6.5,6-2.8,7.8
				C128.4,85.3,129.2,86.8,131.1,87z"/>
		</g>
		<path d="M134.8,85.3c0-0.1-0.1-0.2-0.2-0.2c-0.1,0-2.7,0.2-4.4-2.4c0.5-0.3,1-0.6,1.5-0.9c1.8,1.5,4.2,1.7,4.3,1.7
			c0.1,0,0.2-0.1,0.2-0.2c0-0.1-0.1-0.2-0.2-0.2c0,0-2.3-0.2-3.9-1.5c0.7-0.4,1.5-0.8,2.1-1.2c1.1,0.8,2.9,0.7,3,0.7
			c0.1,0,0.2-0.1,0.2-0.2c0-0.1-0.1-0.2-0.2-0.2c0,0-1.6,0-2.6-0.5c1.8-0.9,3.1-1.6,3.1-1.6c0.1-0.1,0.1-0.2,0.1-0.3
			c-0.1-0.1-0.2-0.2-0.3-0.1c-0.2,0.1-1.8,0.9-4,2c-0.1-1.2,0.8-2.7,0.8-2.7c0.1-0.1,0-0.2-0.1-0.3c-0.1-0.1-0.2,0-0.3,0.1
			c-0.7,1.1-1,2.7-0.8,3.1c-0.7,0.4-1.4,0.7-2.1,1.2c-0.3-2.1,0.6-4.2,0.6-4.2c0-0.1,0-0.2-0.1-0.3c-0.1,0-0.2,0-0.3,0.1
			c0,0.1-1,2.3-0.6,4.6c-0.5,0.3-1,0.6-1.5,0.9c-1.5-2.7-0.1-4.9,0-5c0.1-0.1,0-0.2-0.1-0.3c-0.1-0.1-0.2,0-0.3,0.1
			c0,0-1.7,2.5,0,5.5c-1.2,0.7-2.3,1.5-3,2.2c-0.1,0.1-0.1,0.2,0,0.3c0.1,0.1,0.2,0.1,0.3,0c0.9-0.8,2.2-1.6,3.6-2.5
			c1.8,2.9,4.7,2.6,4.8,2.6C134.7,85.5,134.8,85.4,134.8,85.3z"/>
	</g>
	<g>
		<g>
			<path class="st21" d="M15.2,44.5c1.4,0.1,5.2-1.8,7-5c2.2-3.9,1.8-13,1-13.1C22.5,26.4,12,29,10.6,36.1c-0.6,2.9,0.4,6,1.4,7.1
				c0.4,0.4,0.9,0.7,1.3,0.9C13.9,44.3,14.8,44.4,15.2,44.5z"/>
		</g>
		<path d="M22.5,27.3c-1.7,1.8-3,3.8-4.2,5.8c-0.3-1.1-0.7-2.2-1.2-3.2c-0.1-0.3-0.6-0.1-0.4,0.2c0.5,1.1,1.3,3.6,1.3,3.6
			c-0.9,1.6-1.7,3.2-2.5,4.8c-0.5-1.5-1.2-3-1.8-4.5c-0.1-0.3-0.6-0.1-0.4,0.2c0.7,1.6,1.4,3.2,1.9,4.9c-0.1,0.1-2.7,6.2-3.6,10.3
			c-0.1,0.3,0.4,0.5,0.5,0.1c0.8-3.2,1.6-6.1,3-9.1c0,0,4.7-1.6,6.7-2.8c0.3-0.2,0-0.6-0.2-0.4c-1.9,1.1-4.1,2-6.2,2.7
			c0.1-0.2,1.4-2.9,2-4.1c0,0,3.4-1.8,4.8-3c0.3-0.2-0.1-0.6-0.3-0.4c-1.2,1-2.6,1.8-4,2.5c1.4-2.6,3-5.1,5.1-7.3
			C23.1,27.4,22.8,27,22.5,27.3z"/>
	</g>
</g>
<g>
	<g>
		<path class="st22" d="M104.5,32.2c0,0,1.2,1.1,2.4,1.5c1.1,0.4,4.9,1.3,6.4-0.6S104.7,28.8,104.5,32.2z"/>
	</g>
	<g>
		<path class="st23" d="M115.1,31.9c-0.1-0.3-1.5-3.2-4.8-3.7c-3.1-0.5-4.8,0.5-4.8,0.5c-0.6,0.5-2.7,1.1-2,2.5
			c0.1,0.2,0.4,0.5,0.4,0.5c0.3,0.4,0.2,0.8,0.2,1.1c-0.2,0.8-1.5,2-1.9,1.9c-0.4-0.1-1.6-0.9-1.8-1c0.2-0.3-0.3-0.5-0.6-0.3
			c-0.5,0.2,0,0.8,0.4,0.5c0.1,0.1,0.3,0.2,0.6,0.4c0.6,0.4,1.2,0.6,1.2,0.6s-0.3,0.1-1.2,0.1c-1,0-1.3-0.1-1.5-0.3
			c-0.1-0.1-0.4-0.3-0.7-0.3c-0.4,0-0.5,0.4-0.4,0.6c0.3,0.6,1,0,1,0s0.5,0.4,1.2,0.4c0.7-0.1,1.3-0.1,1.3-0.1s-0.9,0.5-1.7,0.5
			c-0.4,0-0.8-0.1-1.1-0.1c-0.4,0-0.5,0.4-0.4,0.6c0.3,0.8,1.2-0.1,1.2-0.1s0.2,0,1-0.1c0.6-0.2,1.1-0.4,1.1-0.4s-0.2,0.5-0.4,0.7
			c-0.2,0.2-0.5,0.5-0.5,0.5s-0.5,0-0.7,0.4c-0.2,0.4,0.3,0.9,0.7,0.6c0.4-0.3,0.3-0.6,0.3-0.6s0.5-0.5,0.9-1.1
			c0.3-0.5,0.4-0.8,0.4-0.8s2.3-1.5,2.7-2.6c0.1-0.4,0.5-0.8,0.7-0.9c0.7-0.5,2.2-0.9,2.6-0.7c0.3,0.1,0.1,1-0.4,2.3
			c-0.4,1.1-1.2,2-1.5,2.1c-0.5,0.1-0.8,0.1-1.4,0.1c-0.5-0.1-0.7-0.3-0.7-0.3s-0.3-0.3-0.5,0c-0.1,0.2,0.1,0.4,0.2,0.4
			c0.1,0,0.3-0.1,0.3-0.1s0.1,0.1,0.6,0.2c0.5,0.1,0.9,0.1,0.9,0.1s-0.6,0.3-1.4,0.4c-0.9,0.1-1.1,0-1.1,0s-0.7,0-0.6,0.5
			c0.1,0.5,0.6,0.4,0.7,0.3c0.2-0.1,0.2-0.4,0.2-0.4s0.5,0.2,1.3-0.1c0.8-0.2,1.2-0.4,1.2-0.4s-0.3,0.4-0.9,0.9
			c-0.3,0.2-0.6,0.5-0.7,0.5c-0.1,0-0.4,0-0.7,0.1c-0.3,0.3-0.3,0.8,0.2,0.8c0.4-0.1,0.5-0.5,0.5-0.5s0.5-0.1,1.1-0.7
			c0.7-0.6,1-1,1-1s0.1,0.3-0.3,1.1c-0.2,0.5-0.6,1-0.8,1c-0.3,0-0.6,0.4-0.4,0.7c0.2,0.3,0.7,0.1,0.8-0.1c0.1-0.2,0.1-0.5,0.1-0.5
			c0,0.1,0.4,0,0.8-1.2c0.3-1.1,0.2-1.5,0.2-1.5s0.7-0.8,1.4-2.2c0.7-1.4,0.6-1.7,0.8-2.1c0.1-0.2,0.4-0.3,0.6-0.4
			c0.7,0,1.2,0.3,1.2,0.3s-0.7,0.2-1.1,0.7c-0.7,0.9-0.2,1.4,0.5,1.8c0.7,0.3,1.6,0.3,1.6,0.3c-0.2,0.1-0.6,0.2-1,0.4
			c-0.8,0.2-1.5,0.1-1.5,0.1s-0.5-0.3-0.7,0.1c-0.2,0.4,0,0.8,0.3,0.6c0.3-0.1,0.4-0.4,0.4-0.4s0.1,0,0.9,0c0.8-0.1,1.1-0.2,1.1-0.2
			s-0.4,0.4-1.1,0.8c-0.7,0.4-1,0.5-1,0.5s-0.6,0-0.7,0.5c-0.1,0.3,0.5,0.5,0.8,0.3c0.3-0.3,0.2-0.5,0.2-0.5s0.4,0,1.2-0.6
			c0.8-0.6,1.1-0.9,1.1-0.9s-0.5,0.8-0.9,1.2c-0.4,0.4-0.7,0.7-0.8,0.7c-0.1,0-0.8,0-0.6,0.6c0.2,0.4,0.5,0.4,0.7,0.2
			c0.2-0.2,0.2-0.5,0.2-0.5s0.5-0.4,1-1c0.5-0.5,0.8-1,0.8-1s-0.2,0.5-0.4,1.2c-0.2,0.7-0.2,1.2-0.2,1.2s-0.6,0.1-0.4,0.5
			c0.3,0.6,0.9,0.1,0.9-0.2c0-0.1,0-0.3,0-0.3s0.2-1.4,0.7-2c0.4-0.6,0.8-0.7,0.7-1.1c0,0-0.1-0.2,0.1-0.6
			C113.9,33.4,115.2,32.2,115.1,31.9z"/>
	</g>
	<g>
		<path class="st24" d="M99.8,30.8c0,0.2,0.1,0.6,1,0.8c0.9,0.2,1.7,0.1,1.9,0.1c0.5,0,0.8,0.1,1.5,0c0.8-0.2,0.9-0.4,1.2-0.6
			c0.8-0.4,2.8-2.5,2.2-2.6C106.7,28.4,99.9,30.6,99.8,30.8z"/>
	</g>
	<g>
		<path class="st25" d="M100.3,29.3c0.2,0.4,0.3,0.9,0.1,1c-0.2,0.2-0.5,0.2-0.6,0.3c-0.2,0.2-0.1,0.2,0,0.3
			c0.5,0.4,2.1,0.3,2.5,0.2c0.4-0.1,1-0.4,1.4-0.4c0.4,0,0.7,0,1.2-0.2c0.9-0.4,1.1-0.6,1.7-1c0.7-0.5,1.1-0.9,0.9-1.1
			c-0.2-0.2-0.6,0-0.7-0.4c-0.1-0.6-0.4-2.2-0.9-2.3c-0.8-0.2-1.4,0.7-1.4,0.7s-0.6,0-1.2,0.1c-0.7,0.1-1.2,0.5-1.2,0.5
			s-0.9-0.5-1.6-0.1S100,28.8,100.3,29.3z"/>
	</g>
	<g>
		<path class="st26" d="M99.9,27.4c-0.5,0.6,0,2.7,1.1,2.3c1.3-0.5,0.8-2.3,0.3-2.6C100.7,26.7,100.1,27.1,99.9,27.4z"/>
	</g>
	<g>
		<path class="st27" d="M99.7,28.3c0,0,0.3,0.5,0.9,0.4c0.6-0.1,1.2-0.5,1.2-0.5s-0.5,0-1,0.1C100.3,28.4,99.7,28.3,99.7,28.3z"/>
	</g>
	<g>
		<path class="st26" d="M106.3,25.9c0.6,0.4,1,2.3-0.1,2.5c-1.2,0.2-1.4-1.6-1.1-2.1C105.4,25.8,106,25.7,106.3,25.9z"/>
	</g>
	<g>
		<path class="st27" d="M106.8,26.6c0,0-0.1,0.6-0.6,0.7c-0.6,0.2-1.2-0.1-1.2-0.1s0.4-0.1,1-0.3C106.4,26.9,106.8,26.6,106.8,26.6z
			"/>
	</g>
	<g>
		<g>
			<path class="st24" d="M108.4,28.3c-0.2,0.5,0.7,0.6,0.7,0.2C109.1,28.1,108.6,28,108.4,28.3z"/>
		</g>
		<g>
			<path class="st24" d="M109.8,28.7c-0.2,0.3,0.8,0.6,0.8,0.2C110.5,28.6,110,28.4,109.8,28.7z"/>
		</g>
		<g>
			<path class="st24" d="M110.6,29.5c-0.1,0.3,0.4,0.4,0.4,0.2C111,29.3,110.7,29.3,110.6,29.5z"/>
		</g>
		<g>
			<path class="st24" d="M111.3,29c-0.2,0.4,0.6,0.7,0.7,0.3C112.1,28.9,111.4,28.8,111.3,29z"/>
		</g>
		<g>
			<path class="st24" d="M110.8,28.4c-0.1,0.3,0.4,0.6,0.5,0.3C111.4,28.5,110.9,28.2,110.8,28.4z"/>
		</g>
		<g>
			<path class="st24" d="M112.6,29.4c-0.2,0.3,0.4,0.8,0.6,0.5C113.3,29.6,112.9,29.1,112.6,29.4z"/>
		</g>
		<g>
			<path class="st24" d="M111.9,29.8c-0.2,0.3,0.5,0.6,0.6,0.2C112.5,29.7,112.1,29.5,111.9,29.8z"/>
		</g>
	</g>
</g>
<g>
	<g>
		<path class="st28" d="M43.4,27.2c0,0-2.3-4.4-3.6-3.6c-1.3,0.8,0.7,4.3,0.9,4.3C40.8,28,43.4,27.2,43.4,27.2z"/>
	</g>
	<g>
		<path class="st29" d="M41.1,23.9c1.1,1,2.3,3.2,2.3,3.2s-0.7,0.2-1.4,0.4c-0.7-0.7-1.3-1.5-1.6-2.4C40.2,24.6,40.3,23.7,41.1,23.9
			z"/>
	</g>
	<g>
		<path class="st28" d="M34,28.1c0.5-1,3.9,0.8,4.6,1.2c0.1,0,0.1,0.1,0.1,0.1l-0.7,3.2c-0.5,0.3-0.9,0.5-2.6-0.7
			C33.6,30.7,33.5,29.2,34,28.1z"/>
	</g>
	<g>
		<path class="st28" d="M45.5,43.8c0,0-1.8,11.3-3.1,11.9c-1.3,0.6-4.7-0.7-5-4.3C37.1,47.8,44.6,36,45.5,43.8z"/>
	</g>
	<g>
		<path class="st30" d="M50.3,29.8c0.5,0.1,0.8,0.2,1,0.3c0.2,0.1,0.1,0.8-0.1,1.2c-0.1,0.1-0.1,0.2-0.2,0.3
			C50.5,31.1,50.2,30.5,50.3,29.8z"/>
	</g>
	<g>
		<path class="st31" d="M46.1,50.4c-0.3,1.2-0.6,2.1-0.7,2.6c-0.2,1.2-0.2,1.7,0.2,2.1c0.3,0.3,1,1.4,0.2,1.8
			c-0.8,0.3-2.4-0.7-2.7-2.2c-0.1-0.6,0-2.3,0.2-4C44.3,50.9,45.2,50.6,46.1,50.4z"/>
	</g>
	<g>
		<g>
			<path class="st28" d="M35.4,39.8c0.1-1.8,1.1-4,1.6-5.9c0.7-2.8,1.5-5.4,2.3-6.1c1.2-1.2,3.6-0.8,4.3-0.6c0.7,0.2,2.6,1.3,4,1.9
				c0.9,0.4,2,0.6,2.8,0.7c-0.2,0.7,0.2,1.3,0.7,1.8c-0.7,1.1-1.9,2.2-3.8,3.3c0,0-0.1,0-0.1,0c-1,0-1.9-0.5-2.5-1.4
				c0,0-0.1-0.1-0.1,0c0,0,0,0-0.1,0c-0.2,0.1-0.5,0.2-0.8,0.1c-0.1,0-0.2,0.2-0.1,0.2c0.3,0.1,0.6,0,0.9-0.1
				c0.6,0.8,1.4,1.3,2.4,1.4c-0.2,0.1-0.4,0.2-0.6,0.3c-4.1,2.2-4.4-0.9-6.6,1.2c-2.2,2.2,2.4,18.1,1.9,19.1c-0.5,1.1-6,2.3-6.3,0.7
				C34.5,53.4,35,44.5,35.4,39.8z"/>
		</g>
		<g>
			<path class="st32" d="M44.5,33.6c-0.3,0.2-0.6,0.2-0.9,0.1c-0.1,0-0.1-0.2,0.1-0.2c0.3,0.1,0.5,0,0.8-0.1c0,0,0,0,0.1,0
				c0,0,0.1,0,0.1,0c0.5,0.9,1.4,1.4,2.5,1.4c0,0,0.1,0,0.1,0c-0.1,0.1-0.2,0.1-0.3,0.2C45.9,35,45,34.5,44.5,33.6z"/>
		</g>
	</g>
	<g>
		<path class="st31" d="M42,50.6c0.1,1.8,0.2,3.9,0.3,4.2c0.2,0.4,1.6,1.3,0.8,1.9c-0.8,0.6-2.2,0.1-2.9-1.4c-0.4-1-0.8-2.9-1.2-5.1
			C40,50.6,41,50.9,42,50.6z"/>
	</g>
	<g>
		<path class="st30" d="M39.1,50.2c-0.7-4.6-1-10.5,0-12.4c0.7-1.4,6.9-2.1,7.4-0.3c0.1,0.2,1.5,1.2,1,6.2c-0.3,2.9-0.9,5.2-1.4,6.8
			c-0.9,0.2-1.8,0.5-2.8,0.3c0.2-2.1,0.5-4.3,0.5-5.1c-0.1-1.6-0.8-2.1-1.3-1.9c-0.5,0.2-0.5,4-0.5,5.8c0,0.3,0,0.7,0,1
			C41,50.9,40,50.6,39.1,50.2z"/>
	</g>
	<g>
		<path class="st33" d="M38.6,40.4c0,0,0.2-0.6,0.6-1.3c0.1,0.9,0.3,2.4,0.6,2.7c0,0,0.1-0.3,0.3-0.7c0.3,0.8,1.1,1.9,1.1,1.8
			c0-0.6,0.1-1,0.1-1c0.5-0.3,1.3,1.9,1.4,1.8c0.5-0.7,0.9-1.7,0.9-1.7c0.4,0,0.7,1.5,0.7,1.5c0.6-1.1,0.7-2.2,0.7-2.2
			s0.3,0,0.6,0.8c0,0,0.6-1,0.2-2.5c1.1,1,1.2,1.7,1.3,1.6c1.2-4.3-1.1-5.6-1.1-5.6c-2.5,0.9-3.7-0.1-5.4,0.2
			C38.7,36.1,38.3,38.7,38.6,40.4z"/>
	</g>
	<g>
		<path class="st33" d="M34.9,56.5c0.7-0.5,1.5-0.2,2.2-0.1c0,0,0,0,0,0c0,0,0,0,0,0c0.1,0,0.2,0,0.3,0c-0.1,0-0.2,0-0.3,0
			c-0.4-0.4-0.6-1-1-1.4c0.7-0.2,1.5-0.1,2.2,0.1c0,0.1,0,0.2,0.1,0.3c0-0.1,0-0.2-0.1-0.3c0.1,0,0.2,0.1,0.3,0.1
			c-0.1-0.1-0.2-0.1-0.3-0.1c-0.2-0.8-0.7-1.5-1.1-2.2c0.3,0.1,0.7,0.3,1.1,0.5c2.1,1.1,4.7,3.1,5.4,6.7c0,0-0.6-0.5-1.4-0.5
			c-0.2,0,0.4,0.2,0.5,0.9c0,0.1-3.2-1.4-5.2-1.3c-0.3,0-0.7,0-1.1-0.1C36.3,58,35.9,57,34.9,56.5z"/>
	</g>
	<g>
		<path class="st30" d="M28.5,49c3.2-1.7,6.4-0.9,6.4-0.9l0,2c0,0-2.5,1.1-1.1,1.6c1.6,0.5,2.1,0.7,3.3,1.2c0.5,0.7,0.9,1.4,1.1,2.2
			c-0.7-0.3-1.5-0.3-2.2-0.1c-0.1-0.1-0.2-0.2-0.3-0.2h0.1h-0.1c0.1,0.1,0.2,0.2,0.3,0.2c-0.2,0.1-0.5,0.1-0.7,0.3
			c0.2-0.1,0.4-0.2,0.7-0.3c0.4,0.4,0.6,1,1,1.4c-0.8-0.1-1.6-0.4-2.2,0.1c-0.1,0-0.2-0.1-0.3-0.1c0.1,0,0.2,0.1,0.3,0.1
			c0,0-0.1,0.1-0.1,0.1c0,0,0.1-0.1,0.1-0.1c1,0.6,1.4,1.6,1.6,2.6c-2.4-0.4-6.5-2-8.4-3.9C26.3,53.5,25.3,50.7,28.5,49z"/>
	</g>
	<g>
		<path class="st29" d="M34,28.2c0.7,1.5,3.3,0.9,3.7,2.3c0.4,1-0.7,1.5-1.8,1.7c-0.2-0.1-0.4-0.2-0.6-0.4
			C33.6,30.7,33.5,29.3,34,28.2z"/>
	</g>
	<g>
		<g>
			<path class="st34" d="M45.8,28.8c0.3,0.4,0.6,1.2-0.1,1.4c-0.5,0.2-1.2-0.4-1.5-0.8c-0.1-0.1,0.1-0.2,0.1-0.1
				c0.3,0.3,0.6,0.6,1.1,0.7c0.4,0.1,0.6-0.2,0.5-0.6c0-0.2-0.2-0.4-0.3-0.5C45.6,28.8,45.8,28.7,45.8,28.8L45.8,28.8z"/>
		</g>
	</g>
	<g>
		<g>
			<path class="st34" d="M42.1,31.4c0.1,0.1,0.3,0.2,0.5,0.3c0.4,0.1,0.7-0.2,0.6-0.5c0-0.4-0.4-0.8-0.7-1.1c-0.1-0.1,0-0.2,0.1-0.1
				c0.4,0.4,0.8,1,0.7,1.5c-0.2,0.7-1,0.5-1.5,0.1C41.9,31.5,42,31.3,42.1,31.4L42.1,31.4z"/>
		</g>
	</g>
</g>
<g>
	<g>
		<path class="st35" d="M36.2,115c-0.6,4.2,0,4.6-0.3,6.4c0,0,2.6-1,3.4-4c1.2-4.9,1-6,1-6S36.5,112.7,36.2,115z"/>
	</g>
	<g>
		<path class="st36" d="M54.8,110.9c0,0-2.3-3.9-8.7-2.8c-4.6,0.8-6.6,3.3-6.9,5.3c-0.4,3.1,0.4,5.1,1,6c0.6,0.9,1.3,4.4,2.3,4.5
			c1.2,0,0-2.7,0.6-3.5c0.4-0.6,0.8-0.4,1,0c0.2,0.6,0,3.2,1.4,3.2c0.8,0-0.1-3.2,0.5-3.2c1.8,0.1,3.7-0.7,3.8-0.4
			c0.3,0.4,1.1,3.4,2.1,3.1c0.7-0.2-0.1-2.3,0.2-3.3c0.1-0.3,2.2-0.7,2.3-0.6c0.3,0.9-0.6,3.4,0.3,3.4c0.9,0.1,2.2-3.1,2.2-5.8
			C57,114,55.7,112.9,54.8,110.9z"/>
	</g>
	<g>
		<path class="st37" d="M59.6,115.7c-0.5,0.2-0.8,0.6-1,1.1c0.2,0,0.4,0,0.5,0c0.7-0.1,0.8-0.4,1.1-0.8
			C60.1,115.8,59.7,115.7,59.6,115.7z"/>
	</g>
	<g>
		<path class="st35" d="M54.5,109.1c0,0-1.8-1.5-2.5-1.1c-0.3,0.2,1.2,2.6,1.2,2.6L54.5,109.1z"/>
	</g>
	<g>
		<path class="st35" d="M58.7,108.8c0.1-0.1,2.2-1.7,2.4-1.6c0.7,0.4-0.5,3-0.5,3l-2-1.2C58.6,109,58.6,108.9,58.7,108.8z"/>
	</g>
	<g>
		<path class="st35" d="M54,113.3c0.4-0.7,0.2-1.6,1.2-2.7c1.1-1,2.5,0.2,2.5,0.2s0.8-1.3,2.1-0.8c1.3,0.6,2.6,2.6,2.9,3.2
			c0,0,0.1,0,0.1,0c0,0-0.3-0.9-1.5-2.8c-1.2-1.9-2.2-2.4-4.6-2.3c-2.3,0-2.8,0.5-3.7,1.5c-1.4,1.7-0.9,3.8-2.1,4.2
			c0,0,0.4,0.5,1.2,0.8c0.1,0,0.2,0.1,0.3,0.1C53.1,114.4,53.6,114,54,113.3z"/>
	</g>
	<g>
		<path class="st35" d="M60,112.7c-1.9,0-2.1-0.5-2.1-0.5c-0.2,0.7-3.1,2.1-4.7,2.8c1.1,0.4,2.4,1,3.6,1.3c-0.4-0.4-0.7-0.9-0.9-1.4
			c-0.1,0.1-0.3,0.1-0.5,0.1c-0.1,0-0.1-0.2,0-0.1c0.3,0.1,0.6-0.1,0.7-0.3c0.1-0.1,0.2,0,0.1,0.1c-0.1,0.1-0.2,0.1-0.2,0.2
			c0.3,0.6,0.6,1.2,1.2,1.6c0.5,0.2,1,0.3,1.4,0.3c0.1-0.5,0.5-0.9,1-1.1c0.2,0,0.5,0.1,0.6,0.3c0.1-0.1,0.1-0.2,0.2-0.2
			c0.3-0.3,0.8-1.4,1.7-2C61.9,113.1,61,112.7,60,112.7z"/>
	</g>
	<g>
		<path class="st38" d="M59.8,110.1c-1.3-0.5-2.1,0.8-2.1,0.8s-1.5-1.2-2.5-0.2c-1.1,1-0.8,2-1.2,2.7c-0.4,0.6-0.9,1.1-1.3,1.5
			c0.2,0.1,0.4,0.1,0.6,0.2c1.6-0.7,4.5-2.1,4.7-2.8c0,0,0.2,0.5,2.1,0.5c1,0,1.9,0.4,2.1,1.1c0.2-0.1,0.4-0.3,0.7-0.4
			C62.4,112.7,61.2,110.7,59.8,110.1z"/>
	</g>
	<g>
		<g>
			<path class="st35" d="M45.4,111.1c-0.3,0.3-0.7,0.6-1.1,0.8c-0.4,0.2-0.8,0.5-1.1,0.8c-0.1,0.1,0.1,0.3,0.2,0.2
				c0.4-0.3,0.7-0.6,1.1-0.9c0.4-0.3,0.7-0.5,1-0.9C45.6,111.1,45.5,111,45.4,111.1z"/>
		</g>
		<g>
			<path class="st35" d="M42.9,110.5c-0.3,0.3-0.7,0.7-1,1.1c-0.3,0.4-0.7,0.8-0.8,1.2c-0.1,0.2,0.1,0.3,0.2,0.1
				c0.3-0.4,0.5-0.8,0.8-1.2c0.3-0.4,0.6-0.8,1-1.1C43.1,110.6,43,110.5,42.9,110.5z"/>
		</g>
		<g>
			<path class="st35" d="M40.7,115.2c-0.1,0.4-0.2,0.9-0.3,1.3c-0.1,0.4-0.2,0.8-0.1,1.2c0,0.1,0.2,0.1,0.2,0
				c0.1-0.4,0.1-0.8,0.2-1.3c0.1-0.4,0.2-0.8,0.3-1.2C40.9,115.2,40.7,115.1,40.7,115.2z"/>
		</g>
		<g>
			<path class="st35" d="M42.5,116.1c-0.1,0.5-0.3,1.1-0.3,1.6c0,0.1,0.2,0.2,0.2,0c0.1-0.5,0.1-1.1,0.3-1.6
				C42.7,116,42.5,115.9,42.5,116.1z"/>
		</g>
		<g>
			<path class="st35" d="M42.4,114c-0.2,0.6-0.5,1.2-0.6,1.8c0,0.2,0.2,0.2,0.2,0.1c0.2-0.6,0.3-1.2,0.6-1.8
				C42.7,113.9,42.5,113.9,42.4,114z"/>
		</g>
		<g>
			<path class="st35" d="M46.3,112.6c-0.3,0.3-0.7,0.7-1,1c-0.2,0.3-0.6,0.7-0.5,1.1c0,0.1,0.2,0.1,0.2,0c0.1-0.2,0.1-0.4,0.2-0.5
				c0.1-0.2,0.2-0.4,0.3-0.5c0.3-0.4,0.6-0.7,0.9-1C46.5,112.7,46.3,112.5,46.3,112.6z"/>
		</g>
		<g>
			<path class="st35" d="M46.3,116c-0.2,0.4-0.4,0.8-0.6,1.2c-0.1,0.2-0.1,0.4-0.1,0.6c0,0.2-0.1,0.5,0,0.6c0.1,0.1,0.2,0.1,0.2,0
				c0-0.2,0-0.4,0-0.5c0-0.2,0-0.4,0.1-0.6c0.1-0.4,0.2-0.8,0.5-1.2C46.5,116,46.3,115.9,46.3,116z"/>
		</g>
		<g>
			<path class="st35" d="M47.8,117.2c-0.1,0.3-0.2,0.6-0.2,0.9c0,0.1,0.1,0.1,0.2,0c0.1-0.1,0.1-0.2,0.1-0.4c0-0.2,0.1-0.3,0.1-0.5
				C48,117.2,47.9,117.1,47.8,117.2z"/>
		</g>
		<g>
			<path class="st35" d="M43.5,118.4c0,0.1-0.1,0.3-0.1,0.4c0,0.1,0.2,0.1,0.2,0c0-0.1,0-0.2,0.1-0.4
				C43.8,118.4,43.6,118.3,43.5,118.4z"/>
		</g>
		<g>
			<path class="st35" d="M47.6,110.1c-0.3,0.2-0.6,0.3-0.9,0.5c-0.3,0.2-0.6,0.4-0.9,0.6c-0.1,0.1,0,0.3,0.1,0.2
				c0.3-0.2,0.6-0.4,0.8-0.6c0.3-0.2,0.6-0.4,0.8-0.5C47.9,110.2,47.8,110,47.6,110.1z"/>
		</g>
		<g>
			<path class="st35" d="M46.1,108.7c-0.7,0.2-1.3,0.4-2,0.7c-0.1,0.1,0,0.3,0.1,0.2c0.7-0.2,1.2-0.6,1.9-0.8
				C46.3,108.9,46.2,108.7,46.1,108.7z"/>
		</g>
		<g>
			<path class="st35" d="M40.6,111.9c-0.3,0.6-0.5,1.1-0.8,1.7c0,0.1,0.1,0.2,0.2,0.1c0.2-0.6,0.5-1.2,0.8-1.7
				C40.8,111.9,40.6,111.8,40.6,111.9z"/>
		</g>
		<g>
			<path class="st35" d="M48.1,112.5c-0.4,0.3-0.8,0.6-1.1,1.1c-0.1,0.1,0.1,0.2,0.2,0.1c0.3-0.4,0.7-0.7,1.1-1
				C48.4,112.6,48.2,112.4,48.1,112.5z"/>
		</g>
		<g>
			<path class="st35" d="M48.6,114.6c-0.2,0.1-0.3,0.3-0.5,0.4c-0.2,0.1-0.4,0.3-0.4,0.5c-0.1,0.1,0.1,0.2,0.2,0.1
				c0.2-0.1,0.3-0.3,0.4-0.5c0.1-0.2,0.3-0.3,0.5-0.5C48.8,114.6,48.7,114.5,48.6,114.6z"/>
		</g>
		<g>
			<path class="st35" d="M49.3,117.7c-0.1,0.2-0.1,0.4-0.2,0.5c-0.1,0.2-0.2,0.4-0.2,0.6c0,0.1,0.1,0.1,0.2,0.1
				c0.1-0.1,0.2-0.3,0.2-0.5c0.1-0.2,0.1-0.4,0.2-0.6C49.4,117.6,49.3,117.6,49.3,117.7z"/>
		</g>
		<g>
			<path class="st35" d="M50.3,111.8c-0.3,0.1-0.5,0.2-0.8,0.3c-0.1,0.1-0.1,0.3,0.1,0.2c0.3-0.1,0.6-0.2,0.8-0.3
				C50.5,111.9,50.4,111.7,50.3,111.8z"/>
		</g>
		<g>
			<path class="st35" d="M50.2,109.2c-0.5,0.2-1,0.2-1.4,0.5c-0.2,0.1,0,0.3,0.1,0.2c0.5-0.2,0.9-0.4,1.4-0.6
				C50.4,109.4,50.3,109.2,50.2,109.2z"/>
		</g>
		<g>
			<path class="st35" d="M49.8,115.5c-0.3,0.3-0.6,0.7-0.6,1.1c0,0.1,0.2,0.2,0.2,0c0.1-0.4,0.2-0.7,0.5-1
				C50,115.6,49.9,115.4,49.8,115.5z"/>
		</g>
	</g>
	<g>
		<g>
			<path class="st39" d="M56.2,111.8c0,0.2-0.1,0.5-0.2,0.7c-0.1,0.2-0.3,0.4-0.6,0.2c-0.1-0.1-0.2-0.2-0.3-0.3
				c-0.1-0.1-0.3,0-0.2,0.1c0.2,0.3,0.7,0.6,1,0.3c0.3-0.3,0.4-0.7,0.4-1.1C56.4,111.6,56.2,111.6,56.2,111.8L56.2,111.8z"/>
		</g>
	</g>
	<g>
		<g>
			<path class="st39" d="M58.8,111.4c0.1,0.3,0.3,0.6,0.7,0.8c0.5,0.2,0.7-0.2,0.7-0.6c0-0.1-0.2-0.1-0.2,0c0,0.1,0,0.2,0,0.3
				c-0.1,0.3-0.3,0.2-0.5,0.1c-0.2-0.1-0.4-0.4-0.4-0.6C59,111.2,58.8,111.2,58.8,111.4L58.8,111.4z"/>
		</g>
	</g>
	<g>
		<path class="st37" d="M56,114.9c0.1-0.1,0.2-0.1,0.2-0.2c0.1-0.1,0-0.2-0.1-0.1c-0.2,0.2-0.5,0.4-0.7,0.3c-0.1,0-0.1,0.1,0,0.1
			c0.2,0,0.3,0,0.5-0.1c0.2,0.5,0.5,1,0.9,1.4c0.1,0,0.3,0.1,0.4,0.1C56.7,116.1,56.3,115.5,56,114.9z"/>
	</g>
</g>
<g>
	<g>
		<path class="st40" d="M103.8,108.8c-0.6,1-0.8,2.4-0.3,2.9c0,0,0.5-0.6,0.6-0.8c1.5-1.3,3-3,3.3-4.9
			C107.7,103.9,104.3,107.8,103.8,108.8z"/>
	</g>
	<g>
		<path class="st39" d="M100.6,106c-0.5-0.7-1.6-1.2-1.8-0.9c-0.7,0.6-2.7,3.5-2.3,4.1c0.1,0.2,2.3-1.2,2.7-1.9
			c0-0.1,0.5,0.4,0.9,1.1c0.3,0.6,0.7,2.1,1.2,2.3c0.5,0.2,0.9-1.1,0.9-1.1S102,107.8,100.6,106z"/>
	</g>
	<g>
		<path class="st39" d="M106,125.3c0.6,0.5,3.2,0.2,2.5-1.6c-0.5-1.3-2.3,0-2.3,0S105.7,125,106,125.3z"/>
	</g>
	<g>
		<path class="st39" d="M108.3,104.1c0-0.9-0.8,0.1-2.7,1.5c-1.9,1.4-3,4.7-3,4.7l0,0.3c0,0.3,0,0.1,0.3-0.2c0.3-0.3,1-1.9,3.2-3
			C107.4,106.8,108.3,105,108.3,104.1z"/>
	</g>
	<g>
		<path class="st39" d="M99.7,116.1c0,0-0.5,0.5-1.4,1.2c-0.9,0.8-1,1.2-1,1.9c0,0.6,0.9,0.8,0.8-0.1c0-0.6,0.6-0.8,1.2-0.9
			C100.3,118.1,99.7,116.1,99.7,116.1z"/>
	</g>
	<g>
		<path class="st41" d="M97.7,112.9c0-0.1-0.2-0.2-0.2-0.2c-0.1,0.3-0.2,0.5-0.2,0.7c0,0.1,0.1,0.2,0.2,0.4
			C97.8,113.5,98,113.2,97.7,112.9z"/>
	</g>
	<g>
		<path class="st33" d="M101,126.7c1.5,0,2.8-0.5,3-3c0.3-3.2-2.3-6.8-3.4-6.8c-0.7,0-1.2,0.5-1.6,1.3c-0.2,1-0.4,2.1-0.6,3.2
			c-0.3,2.2,0,3.4,0.4,4.2C99.4,126.2,100.2,126.7,101,126.7z"/>
	</g>
	<g>
		<path class="st39" d="M102.3,117.1l-0.2-0.2c-0.1,0.1-2.2,1.3-2.1,2.3c0,1,0.3,1,0.5,0.8c0.3-0.4,0-0.9,0.7-1.1
			C102.4,118.6,102.9,117.7,102.3,117.1z"/>
	</g>
	<g>
		<path class="st39" d="M105.4,112c-0.5-1.4-2-2.9-3.8-2.9c-1.1,0-3.3,2.2-4,3.6c0.1,0,0.2,0.1,0.2,0.2c0.3,0.3,0.1,0.7-0.3,0.9
			c0.4,0.5,1.3,1,2.1,1.1c0.4-0.2,0.7-0.5,0.9-0.9c0,0-0.1-0.1-0.1-0.1c-0.1-0.1,0.1-0.2,0.1-0.1c0,0.1,0.1,0.1,0.1,0.1c0,0,0,0,0,0
			c0,0,0.1,0,0.1,0c0,0,0.1,0,0.1,0c0,0,0,0,0,0c0.1,0,0.2,0.1,0,0.2c-0.1,0-0.2,0-0.3,0c-0.2,0.3-0.4,0.6-0.7,0.8c0,0,0,0,0,0
			c0,0-0.4,1.4-0.9,3.4c0.4-0.8,0.9-1.4,1.6-1.3c1.1,0,3.7,3.6,3.4,6.8c-0.2,2.5-1.5,3-3,3c-0.7,0-1.5-0.5-2.1-1.1
			c0.3,0.6,0.5,0.8,0.5,0.8s-2.4,1.1-1.9,2.3c0.3,0.7,2.9-1.7,3.3-1.7c0.4,0,2.1,0.1,2.1,0.1s-2.5,1.6-1.9,2.9
			c0.3,0.8,2.6-1.9,3.5-2.3c0.7-0.4,1.9-0.5,2.6-3.3C107.7,121.5,106.3,114.6,105.4,112z"/>
	</g>
	<g>
		<path class="st42" d="M100.6,114c0.1,0,0.2,0.1,0.3,0c0.1,0,0.1-0.2,0-0.2c0,0,0,0,0,0c0,0-0.1,0-0.1,0c0,0-0.1,0-0.1,0
			c0,0,0,0,0,0c0,0-0.1-0.1-0.1-0.1c-0.1-0.1-0.2,0-0.1,0.1c0,0.1,0.1,0.1,0.1,0.1c-0.2,0.4-0.5,0.7-0.9,0.9c0.1,0,0.3,0,0.4,0
			C100.2,114.6,100.4,114.3,100.6,114z"/>
	</g>
	<g>
		<path class="st40" d="M96.6,109.1c0.5-0.1,2.3-1.3,2.5-1.9c0-0.1,0.5,0.4,0.9,1.1c0,0.1,0.1,0.2,0.1,0.2c-0.2-0.7-0.5-1.4-1-2
			C98.2,107.3,97.6,108.4,96.6,109.1z"/>
	</g>
	<g>
		<g>
			<path class="st37" d="M102.2,111.6c-0.1,0.2-0.3,0.4-0.5,0.4c-0.3,0-0.3-0.3-0.3-0.5c0-0.1-0.2-0.1-0.2,0c0,0.3,0.1,0.6,0.4,0.6
				c0.3,0,0.6-0.2,0.7-0.5C102.4,111.6,102.3,111.5,102.2,111.6L102.2,111.6z"/>
		</g>
	</g>
	<g>
		<g>
			<path class="st37" d="M100.5,110.7c-0.1,0.2-0.3,0.3-0.4,0.3c-0.2,0-0.3-0.2-0.3-0.4c0-0.1-0.2-0.1-0.2,0c0,0.3,0.1,0.6,0.4,0.6
				c0.3,0,0.5-0.2,0.7-0.4C100.7,110.7,100.6,110.6,100.5,110.7L100.5,110.7z"/>
		</g>
	</g>
</g>
</svg>
