<?xml version="1.0" encoding="utf-8"?>
<!-- Generator: Adobe Illustrator 24.0.3, SVG Export Plug-In . SVG Version: 6.00 Build 0)  -->
<svg version="1.1" id="レイヤー_1" xmlns="http://www.w3.org/2000/svg" xmlns:xlink="http://www.w3.org/1999/xlink" x="0px"
	 y="0px" viewBox="0 0 64.3 94" style="enable-background:new 0 0 64.3 94;" xml:space="preserve">
<style type="text/css">
	.st0{fill:#513813;}
	.st1{fill:#4A9143;}
	.st2{fill:none;stroke:#513813;stroke-width:1.5021;stroke-miterlimit:10;}
	.st3{fill:#FFFFFF;stroke:#513813;stroke-width:1.7849;stroke-miterlimit:10;}
	.st4{fill:#FFFFFF;stroke:#513813;stroke-width:1.6933;stroke-miterlimit:10;}
	.st5{fill:#F5FAFC;}
	.st6{fill:none;stroke:#513813;stroke-width:1.9562;stroke-miterlimit:10;}
	.st7{fill:#F04F4C;stroke:#513813;stroke-width:1.2262;stroke-miterlimit:10;}
	.st8{fill:#C7DDEB;}
	.st9{fill:#513813;stroke:#513813;stroke-width:1.1603;stroke-miterlimit:10;}
	.st10{fill:#7EB9C7;stroke:#513813;stroke-width:1.2262;stroke-miterlimit:10;}
	.st11{fill:#FFFFFF;stroke:#513813;stroke-width:0.761;stroke-miterlimit:10;}
	.st12{fill:#FFFFFF;}
	.st13{fill:#FDC345;}
	.st14{fill:none;stroke:#513813;stroke-width:0.9269;stroke-miterlimit:10;}
	.st15{fill:#7EB9C7;stroke:#513813;stroke-width:0.783;stroke-miterlimit:10;}
	.st16{fill:url(#SVGID_1_);}
	.st17{fill:url(#SVGID_2_);}
	.st18{fill:url(#SVGID_3_);}
	.st19{fill:url(#SVGID_4_);}
	.st20{fill:url(#SVGID_5_);}
	.st21{fill:#F5FAFC;stroke:#513813;stroke-width:0.9784;stroke-miterlimit:10;}
	.st22{fill:#F5FAFC;stroke:#513813;stroke-width:0.9643;stroke-miterlimit:10;}
	.st23{fill:none;stroke:#513813;stroke-width:1.2964;stroke-miterlimit:10;}
	.st24{fill:none;stroke:#513813;stroke-width:1.2038;stroke-miterlimit:10;}
	.st25{fill:none;stroke:#513813;stroke-width:0.989;stroke-miterlimit:10;}
	.st26{fill:none;stroke:#513813;stroke-width:1.2768;stroke-miterlimit:10;}
	.st27{fill:none;stroke:#513813;stroke-width:0.7978;stroke-miterlimit:10;}
	.st28{fill:none;stroke:#513813;stroke-width:1.212;stroke-miterlimit:10;}
	.st29{fill:none;stroke:#513813;stroke-width:1.1638;stroke-miterlimit:10;}
	.st30{fill:none;stroke:#513813;stroke-width:0.555;stroke-linecap:round;stroke-miterlimit:10;}
	.st31{fill:#7CBC31;stroke:#513813;stroke-width:0.948;stroke-miterlimit:10;}
</style>
<g>
	<g>
		<g>
			<g>
				<g>
					<g>
						<path class="st0" d="M3.3,71.5h1.2V71h9.4v1.1H4.6v0.7H3.3v3.3c0.5-0.2,1.2-0.4,1.8-0.7C5,75.9,4.9,76.5,5,76.8
							c-0.8,0.4-3.3,1.3-4.1,1.5c0,0.2-0.1,0.4-0.3,0.4c-0.1,0-0.2-0.2-0.2-0.2L0,77.1c0.5-0.1,1-0.2,1.9-0.5v-3.7H0.4v-1.3h1.5
							v-3.2H0.2V67h4.5v1.3H3.3V71.5z M13.3,76.7c0.1,0.1,0.2,0.1,0.2,0.2c0,0.1-0.2,0.2-0.5,0.1c-0.3,0.4-0.8,0.8-0.9,0.8
							c0.4,0.3,1.1,0.8,2.1,1.3c-0.2,0.1-0.7,0.5-1.1,1.1c-0.6-0.3-2.6-1.6-4.1-3.8c-0.1,0.1-0.2,0.2-0.3,0.3v3.6H7.2v-2.3
							c-0.6,0.4-2,1.3-3.2,1.7c-0.2-0.5-0.5-0.9-0.9-1.3c1.5-0.4,3.4-1.3,4.7-2.5H5.6v-3.2h7v3.2h-0.5L13.3,76.7z M13.1,67v3.4H5.3
							V67H13.1z M7.6,68h-1v1.3h1V68z M7.1,73.8v1h4.1v-1H7.1z M8.6,69.3h1.1V68H8.6V69.3z M10.1,75.9c0.3,0.5,0.7,0.9,0.9,1.1
							c0.5-0.5,0.6-0.6,1-1.1H10.1z M10.6,69.3h1.1V68h-1.1V69.3z"/>
						<path class="st0" d="M16.8,76.9c0.6-0.1,1-0.2,1.8-0.5v-5.2H17v-1.3h1.6v-3l1.6,0.1c0.1,0,0.3,0,0.3,0.2
							c0,0.1-0.1,0.2-0.3,0.3v2.4h1.5v1.3h-1.5v4.7c0.8-0.3,1.2-0.5,1.8-0.8c0,0.3-0.1,0.6-0.1,1c0,0.2,0,0.3,0,0.5
							c-0.7,0.3-1.9,0.9-4.3,1.6c0,0.3-0.1,0.4-0.2,0.4c-0.1,0-0.2-0.1-0.2-0.2L16.8,76.9z M24.7,76.6l0.6,0.2
							c0.2,0.1,0.3,0.1,0.3,0.2c0,0.1-0.2,0.2-0.4,0.2c-0.4,1.2-1.3,2.5-3.9,3.1c-0.3-0.6-0.5-0.9-1-1.3c2.9-0.5,3.4-1.7,3.5-2.4
							h-1.3v-4.4h7.1v4.4h-1.8v1.5c0,0.5,0.1,0.6,0.5,0.6h0.5c0.7,0,0.7-0.4,0.8-1.6c0.6,0.5,1.2,0.7,1.4,0.7
							c-0.2,1.8-0.9,2.1-1.7,2.1h-1.5c-0.6,0-1.4-0.1-1.4-1.4v-2.1H24.7z M30.3,67.9v1.2h-1.4c0.1,0,0.1,0.1,0.1,0.2
							c0,0.1-0.2,0.2-0.4,0.2c-0.2,0.5-0.2,0.6-0.4,0.9h2.6v1.2h-8.9v-1.2h2.1c-0.2-0.4-0.2-0.6-0.5-1l0.9-0.2H22v-1.2h3.1v-1.3
							l1.7,0.1c0.1,0,0.3,0,0.3,0.2c0,0.1-0.2,0.2-0.3,0.3v0.7H30.3z M24,74h4.1v-0.7H24V74z M28.1,74.8H24v0.8h4.1V74.8z
							 M24.8,69.1c0.2,0.4,0.2,0.4,0.5,1l-0.9,0.3h2.2c0.2-0.3,0.4-0.9,0.6-1.3H24.8z"/>
						<path class="st0" d="M38.3,75.8c0.4,0,2.2-0.2,2.7-0.2c-0.1,0.4-0.2,0.7-0.2,1.2c-0.6,0.1-0.8,0.1-2.5,0.3v1.6
							c0,1.4-0.6,1.7-2.4,1.7c0-0.4-0.2-0.9-0.4-1.5c0.3,0.1,0.7,0.1,0.9,0.1c0.4,0,0.5,0,0.5-0.6v-1.3c-1.2,0.1-1.5,0.1-2.3,0.1
							c0,0.1-0.1,0.3-0.3,0.3c-0.2,0-0.2-0.2-0.2-0.4L33.9,76c0.6,0,1.8,0,2.9-0.1v-1.2l0.6,0.1c0.3-0.2,0.5-0.5,0.8-0.7h-1.6
							c-0.5,0.4-1.2,1-2.1,1.4c-0.2-0.3-0.6-0.8-0.9-1.1c0.4-0.2,0.6-0.3,1-0.5v-1H36c0.4-0.4,0.7-0.6,1.3-1.2h-3.4v-1.2h2.5v-1.2
							h-2v-1.2h2v-1.5l1.6,0.1c0.1,0,0.3,0,0.3,0.2s-0.2,0.2-0.4,0.3v1h1.4v1c0.3-0.5,0.6-1,1-1.9l1.3,0.6c0,0,0.2,0.1,0.2,0.2
							c0,0.2-0.2,0.2-0.5,0.3c-0.6,1.1-1.1,1.9-1.4,2.3h1v1.2h-1.9c-0.4,0.5-0.9,0.9-1.1,1.2h1.8l0.5,0.7c-0.8,1-1.8,1.8-2,2V75.8z
							 M38.4,70.5c0.2-0.3,0.4-0.6,0.8-1.2h-1.3v1.2H38.4z M44.4,66.9c0.1,0,0.2,0.1,0.2,0.2c0,0.2-0.2,0.2-0.4,0.3
							c-0.3,1.2-0.4,1.5-0.6,2h4v1.4h-0.8c-0.1,1-0.3,3.8-1.9,6c1,1.3,1.9,2,2.7,2.5c-0.2,0.2-0.4,0.4-1,1.2c-1.3-1-2-1.6-2.7-2.5
							c-1.5,1.6-3,2.2-3.6,2.5c-0.2-0.4-0.7-1-1-1.3c0.6-0.2,2.2-0.8,3.7-2.4c-0.6-1.2-1-2.1-1.3-3.5c-0.1,0.2-0.3,0.4-0.6,0.8
							c-0.4-0.3-0.7-0.6-1.3-0.9c1.5-1.9,2.5-4.6,2.7-6.6L44.4,66.9z M43.1,70.8C43,70.9,43,71,42.9,71.2c0.2,1.9,0.5,3,1.2,4.3
							c0.8-1.4,1.1-2.6,1.2-4.7H43.1z"/>
						<path class="st0" d="M64.3,67.7V69h-3.7c0.7,0.5,1.9,1.3,3.4,2.6c-0.3,0.3-0.8,0.9-1,1.2c-0.2-0.2-0.5-0.6-1.2-1.2
							c-1.6,0.1-8.8,0.4-10.3,0.5c0,0.1-0.1,0.3-0.3,0.3c-0.2,0-0.2-0.2-0.2-0.3l-0.2-1.4c0.5,0,2.9,0,3.4,0c0.4-0.5,0.7-1,1-1.7
							h-4.6v-1.3h6v-1.2l1.6,0.1c0.1,0,0.3,0,0.3,0.2S58.4,67,58.2,67v0.7H64.3z M60.5,77.9h-6.1v2.5h-1.6v-7.8H62v6.1
							c0,1,0,1.8-2.9,1.8c0-0.7-0.2-0.9-0.5-1.5c0.6,0.1,1.1,0.1,1.1,0.1c0.7,0,0.7-0.2,0.7-0.8V77.9z M54.4,74.7h6.1v-0.9h-6.1
							V74.7z M60.5,75.8h-6.1v0.9h6.1V75.8z M57.2,69c0,0,0.1,0.1,0.1,0.2c0,0.2-0.2,0.2-0.5,0.2c-0.3,0.6-0.4,0.6-0.8,1.2
							c1.2,0,3.1-0.1,4.3-0.2c-0.7-0.5-1-0.7-1.3-0.8l0.8-0.6H57.2z"/>
					</g>
				</g>
				<g>
					<path class="st0" d="M12.4,87v1.2H9.5v1.5h2.6v1.2H9.5v1.8h2.9v1.2H8.1V87H12.4z"/>
					<path class="st0" d="M13.6,93.9V87H16c1.6,0,2.6,0.8,2.6,3v0.9c0,2.2-1.1,3-2.6,3H13.6z M17.3,90.9V90c0-1.2-0.3-1.8-1.2-1.8
						h-1v4.5h1C16.9,92.7,17.3,92.1,17.3,90.9z"/>
					<path class="st0" d="M25.1,87v4.1c0,2-1.1,2.9-2.6,2.9s-2.6-0.8-2.6-2.9V87h1.4v4.1c0,1.2,0.4,1.7,1.2,1.7s1.2-0.5,1.2-1.7V87
						H25.1z"/>
					<path class="st0" d="M30.2,89.1c-0.1-0.7-0.5-1-1.2-1c-0.8,0-1.2,0.5-1.2,1.9v1c0,1.3,0.4,1.9,1.2,1.9c0.7,0,1-0.4,1.2-1h1.3
						C31.2,93.3,30.4,94,29,94c-1.5,0-2.6-0.9-2.6-3v-1c0-2.1,1.1-3,2.6-3c1.4,0,2.3,0.7,2.5,2.2H30.2z"/>
					<path class="st0" d="M31.9,93.9l2.4-6.9h1.3l2.4,6.9h-1.5l-0.4-1.3h-2.3l-0.4,1.3H31.9z M34.2,91.4h1.6L34.9,89L34.2,91.4z"/>
					<path class="st0" d="M42.8,87v1.2H41v5.7h-1.4v-5.7h-1.9V87H42.8z"/>
					<path class="st0" d="M45.2,93.9h-1.4V87h1.4V93.9z"/>
					<path class="st0" d="M49.1,94c-1.5,0-2.6-0.9-2.6-3v-1c0-2.1,1.1-3,2.6-3c1.6,0,2.6,0.9,2.6,3v1C51.8,93.1,50.7,94,49.1,94z
						 M47.9,90.9c0,1.3,0.4,1.9,1.2,1.9s1.2-0.5,1.2-1.9v-1c0-1.3-0.4-1.9-1.2-1.9s-1.2,0.5-1.2,1.9V90.9z"/>
					<path class="st0" d="M58.2,87v6.9H57l-2.7-4.3v4.3H53V87h1.2l2.7,4.3V87H58.2z"/>
				</g>
			</g>
		</g>
		<g>
			<path class="st1" d="M51.8,45.9v-17c0-1.5-1.4-2.8-3.1-2.8H38.3c-1.7,0-3.1,1.2-3.1,2.8v17"/>
			<path class="st2" d="M54.1,46.4V25.9c0-1.9-1.6-3.4-3.5-3.4H39c-1.9,0-3.5,1.5-3.5,3.4v20.6"/>
			<g>
				<g>
					<g>
						<g>
							<path class="st3" d="M38,31.8c-4.4,0.2-8-3.4-7.8-7.7c0.2-3.8,3.2-6.8,7-7c4.4-0.2,8,3.4,7.8,7.8
								C44.8,28.6,41.7,31.6,38,31.8z"/>
						</g>
					</g>
				</g>
				<g>
					<g>
						<g>
							<path class="st0" d="M37.4,30.7c-3,0.2-5.4-2.4-5.3-5.5c0.1-2.6,2.2-4.8,4.7-4.9c3-0.2,5.4,2.4,5.3,5.5
								C42,28.4,40,30.6,37.4,30.7z"/>
						</g>
					</g>
				</g>
			</g>
			<polyline class="st4" points="58.5,58 58.5,46.6 5.4,46.6 5.4,57.5 			"/>
			<path class="st5" d="M25.3,45.4c0-7,5.7-12.7,12.7-12.7s12.7,5.7,12.7,12.7"/>
			<path class="st0" d="M26.7,45.2c0-5.9,4.7-10.7,10.6-10.7s10.6,4.8,10.6,10.7"/>
			<path class="st6" d="M24.5,45.4C24.5,38,30.4,32,37.6,32s13.1,6,13.1,13.4"/>
			
				<rect x="24.2" y="43.6" transform="matrix(-1 -1.224647e-16 1.224647e-16 -1 68.7702 90.1705)" class="st7" width="20.3" height="2.9"/>
			
				<rect x="9.3" y="50.1" transform="matrix(-1 -1.224647e-16 1.224647e-16 -1 65.1008 107.6264)" class="st8" width="46.5" height="7.4"/>
			<path class="st9" d="M43.5,46.4c0-2.4,1.9-4.3,4.3-4.3c2.4,0,4.3,1.9,4.3,4.3H43.5z"/>
			
				<rect x="24.2" y="43.6" transform="matrix(-1 -1.224647e-16 1.224647e-16 -1 68.7702 90.1705)" class="st10" width="20.3" height="2.9"/>
			
				<rect x="24.2" y="42" transform="matrix(-1 -1.224647e-16 1.224647e-16 -1 68.5417 86.4924)" class="st11" width="20.1" height="2.5"/>
			<g>
				<g>
					<g>
						<g>
							<g>
								<path class="st12" d="M18.4,6.3c-5.6,0-8.5,6.4-5.2,9.9c2.2,2.4,1.5,4.5,1.5,4.5h6.7c-0.8-2.5,0.5-3.2,0.9-3.9
									C26.5,12.2,23.6,6.4,18.4,6.3z"/>
							</g>
							<g>
								<path class="st13" d="M20.7,16.9C20.4,17.3,19,18,19.6,20H16c0,0,0.3-1.7-1.1-3.6c-1.4-1.9-1.3-4.9,0.4-6.6
									c0.8-0.8,1.9-1.3,3-1.3c0.7,0,1.4,0.2,2,0.6c1,0.6,1.7,1.6,1.9,2.8c0.2,1.3,0,2.6-0.5,3.7C21.5,16,21,16.5,20.7,16.9"/>
							</g>
							<g>
								<path class="st14" d="M18.4,6.3c-6.2,0-8.5,6.4-5.2,9.9c2.2,2.4,1.5,4.5,1.5,4.5h6.7c-0.8-2.5,0.5-3.2,0.9-3.9
									C26.5,12.2,22.7,6.3,18.4,6.3z"/>
							</g>
						</g>
					</g>
					<g>
						<g>
							<path class="st0" d="M16.7,20.6c0-1.5,0-3.1,0-4.6c0-0.6,0.1-1.8-0.4-2.3c-0.8-0.7-1.6,0.2-1.2,1.1c0.6,1.2,2.4,1.1,3.2,0.3
								c0.5-0.6,1-2.4-0.4-2c-1.3,0.3-0.9,1.9-0.1,2.4c0.9,0.5,3,0.5,3.4-0.7c0.3-1.1-1.1-1.4-1.8-0.9c-0.7,0.5-0.6,1.5-0.6,2.2
								c0,1.6,0.1,3.1,0.2,4.7c0,0.3,0.5,0.3,0.5,0c-0.1-1.3-0.1-2.5-0.2-3.8c0-0.1-0.1-2.1,0.4-1.8c-0.2,0-0.4,0.1-0.7,0.1
								c-0.9,0.1-1.2-0.2-1-0.8c-0.7,0.9-1.4,1-2,0.3c-0.8-0.5-0.8-0.5,0.1,0c0.2,0.3,0,1.3,0.1,1.7c0,1.3,0,2.7,0,4
								C16.2,20.9,16.7,20.9,16.7,20.6L16.7,20.6z"/>
						</g>
					</g>
				</g>
				<path class="st15" d="M21.8,22.4h-7.3c-0.4,0-0.8-0.4-0.8-0.8v0c0-0.4,0.4-0.8,0.8-0.8h7.3c0.4,0,0.8,0.4,0.8,0.8v0
					C22.6,22,22.2,22.4,21.8,22.4z"/>
				<path class="st15" d="M21.8,24h-7.3c-0.4,0-0.8-0.4-0.8-0.8l0,0c0-0.4,0.4-0.8,0.8-0.8h7.3c0.4,0,0.8,0.4,0.8,0.8v0
					C22.6,23.6,22.2,24,21.8,24z"/>
			</g>
			<g>
				<linearGradient id="SVGID_1_" gradientUnits="userSpaceOnUse" x1="18.7289" y1="2.3778" x2="19.0168" y2="2.3778">
					<stop  offset="0" style="stop-color:#3D4451"/>
					<stop  offset="1" style="stop-color:#3D4451"/>
				</linearGradient>
				<path class="st16" d="M19.2,4.4c0.1-1.3,0.1-2.7,0.2-4c0-0.5-0.8-0.5-0.8,0c-0.1,1.3-0.1,2.7-0.2,4C18.4,4.9,19.1,4.9,19.2,4.4
					L19.2,4.4z"/>
			</g>
			<g>
				<linearGradient id="SVGID_2_" gradientUnits="userSpaceOnUse" x1="24.1827" y1="5.6206" x2="27.6711" y2="5.6206">
					<stop  offset="0" style="stop-color:#3D4451"/>
					<stop  offset="1" style="stop-color:#3D4451"/>
				</linearGradient>
				<path class="st17" d="M24.4,7.1c1.1-0.8,2.3-1.5,3.4-2.3c0.5-0.3,0-1-0.4-0.7c-1.1,0.8-2.3,1.5-3.4,2.3
					C23.5,6.7,24,7.4,24.4,7.1L24.4,7.1z"/>
			</g>
			<g>
				<linearGradient id="SVGID_3_" gradientUnits="userSpaceOnUse" x1="26.2604" y1="11.6187" x2="31.6666" y2="11.6187">
					<stop  offset="0" style="stop-color:#3D4451"/>
					<stop  offset="1" style="stop-color:#3D4451"/>
				</linearGradient>
				<path class="st18" d="M26.4,12.7c1.8-0.4,3.6-0.8,5.4-1.2c0.6-0.1,0.4-1.1-0.3-1c-1.8,0.4-3.6,0.8-5.4,1.2
					C25.5,11.9,25.8,12.8,26.4,12.7L26.4,12.7z"/>
			</g>
			<g>
				<linearGradient id="SVGID_4_" gradientUnits="userSpaceOnUse" x1="5.9387" y1="10.2481" x2="10.0587" y2="10.2481">
					<stop  offset="0" style="stop-color:#3D4451"/>
					<stop  offset="1" style="stop-color:#3D4451"/>
				</linearGradient>
				<path class="st19" d="M10.2,10.4C8.8,10,7.4,9.6,6.1,9.3c-0.5-0.2-0.8,0.7-0.2,0.8c1.4,0.4,2.7,0.8,4.1,1.2
					C10.5,11.4,10.7,10.6,10.2,10.4L10.2,10.4z"/>
			</g>
			<g>
				<linearGradient id="SVGID_5_" gradientUnits="userSpaceOnUse" x1="10.2042" y1="4.4291" x2="12.708" y2="4.4291">
					<stop  offset="0" style="stop-color:#3D4451"/>
					<stop  offset="1" style="stop-color:#3D4451"/>
				</linearGradient>
				<path class="st20" d="M13,5.4c-0.8-0.9-1.6-1.7-2.4-2.6c-0.4-0.4-1,0.2-0.6,0.6c0.8,0.9,1.6,1.7,2.4,2.6
					C12.7,6.4,13.4,5.8,13,5.4L13,5.4z"/>
			</g>
		</g>
	</g>
	<g>
		<path class="st12" d="M28,45.8H7c-1.4,0-2.6-1.2-2.6-2.6v0c0-1.4,1.2-2.6,2.6-2.6h21V45.8z"/>
		<path class="st21" d="M25.7,35.1h-16c-1.2,0-2.2-1-2.2-2.2v0c0-1.2,1-2.2,2.2-2.2h16V35.1z"/>
		<path class="st22" d="M24.4,30.4H11.4c-1,0-1.7-0.8-1.7-1.7v0c0-1,0.8-1.7,1.7-1.7h13.1V30.4z"/>
		<path class="st8" d="M25,34.7H10.4c-0.6,0-1.1-0.5-1.1-1.1v-0.4c0-0.6,0.5-1.1,1.1-1.1H25"/>
		<path class="st8" d="M23.7,29.9H11.8c-0.5,0-0.9-0.3-0.9-0.7V29c0-0.4,0.4-0.7,0.9-0.7h11.9"/>
		<path class="st8" d="M27.7,43.3v0.3c0,0.7-0.6,1.3-1.3,1.3h-19c-0.7,0-1.3-0.6-1.3-1.3v-0.3c0-0.7,0.6-1.3,1.3-1.3h19
			C27.1,42,27.7,42.6,27.7,43.3z"/>
		<path class="st23" d="M27.4,45.8H7.6c-1.4,0-2.6-1.2-2.6-2.6v0c0-1.4,1.2-2.6,2.6-2.6h19.8V45.8z"/>
		<line class="st24" x1="10.6" y1="30.9" x2="10.6" y2="35.1"/>
		<line class="st25" x1="12.3" y1="27.3" x2="12.3" y2="30.6"/>
		<line class="st26" x1="8.4" y1="40.7" x2="8.4" y2="45.5"/>
		<line class="st27" x1="11.7" y1="43.4" x2="25" y2="43.4"/>
		<path class="st12" d="M26.7,40.6H8.9c-1.4,0-2.5-1.1-2.5-2.5v0c0-1.4,1.1-2.5,2.5-2.5h17.9V40.6z"/>
		<path class="st8" d="M25.4,39.6H9.3c-0.7,0-1.2-0.5-1.2-1.2v0c0-0.7,0.5-1.2,1.2-1.2h16.1c0.7,0,1.2,0.5,1.2,1.2v0
			C26.6,39.1,26.1,39.6,25.4,39.6z"/>
		<path class="st28" d="M26.7,40.6H8.9c-1.4,0-2.5-1.1-2.5-2.5v0c0-1.4,1.1-2.5,2.5-2.5h17.9V40.6z"/>
		<line class="st29" x1="9.8" y1="35.7" x2="9.8" y2="40.3"/>
		<line class="st30" x1="14.1" y1="33" x2="21.9" y2="33"/>
		<polygon class="st31" points="15.5,33.1 15.5,41.2 17.2,39.2 19.1,41.3 19.1,33.1 		"/>
	</g>
</g>
</svg>
