<?xml version="1.0" encoding="utf-8"?>
<!-- Generator: Adobe Illustrator 24.0.3, SVG Export Plug-In . SVG Version: 6.00 Build 0)  -->
<svg version="1.1" id="レイヤー_1" xmlns="http://www.w3.org/2000/svg" xmlns:xlink="http://www.w3.org/1999/xlink" x="0px"
	 y="0px" viewBox="0 0 65.9 91.2" style="enable-background:new 0 0 65.9 91.2;" xml:space="preserve">
<style type="text/css">
	.st0{fill:#513813;}
	.st1{fill:#F5FAFC;}
	.st2{fill:#C7DDEB;}
	.st3{fill:#7EC13E;}
	.st4{fill:none;stroke:#513813;stroke-width:1.7616;stroke-miterlimit:10;}
	.st5{fill:none;stroke:#7EB9C7;stroke-width:1.5099;stroke-linecap:round;stroke-miterlimit:10;}
	.st6{fill:none;stroke:#513813;stroke-width:1.1324;stroke-miterlimit:10;}
	.st7{fill:none;stroke:#513813;stroke-width:1.0136;stroke-linecap:round;stroke-miterlimit:10;}
	.st8{fill:none;stroke:#513813;stroke-width:1.0813;stroke-linecap:round;stroke-miterlimit:10;}
	.st9{fill:#3D4451;}
	.st10{fill:none;stroke:#513813;stroke-width:1.4755;stroke-linecap:round;stroke-miterlimit:10;}
</style>
<g>
	<g>
		<g>
			<path class="st0" d="M8.2,68.2c-0.3-0.5-0.6-1-1.3-1.6c-0.5-0.4-1.3-0.9-2.2-0.9C4,65.7,3.1,66,2.5,67c-0.5,0.8-0.8,2.2-0.8,3.3
				c0,2.5,1.1,5.2,3.8,5.2c2,0,2.8-1.7,3.1-2.4L9,73.4c-0.5,1-1.6,3.3-4.3,3.3c-2.4,0-4.7-1.8-4.7-5.4c0-3.2,2-6.1,4.6-6.1
				c0.4,0,0.9,0.1,1.3,0.2c0.4,0.1,0.6,0.2,0.8,0.2c0.1,0,0.3-0.1,0.5-0.1c0.3-0.1,0.4-0.2,0.5-0.3L8.8,68L8.2,68.2z"/>
			<path class="st0" d="M12.1,73.8l0.6-0.3c0.4,0.7,1.7,2.6,3.8,2.6c1.4,0,2.3-1.1,2.3-2.1c0-1.2-1.2-1.7-3-2.3
				c-1.1-0.3-3.3-1.1-3.3-3.4c0-1.9,1.5-3,3-3c0.4,0,0.8,0.1,1.1,0.2c0.4,0.1,0.6,0.2,0.8,0.2c0.1,0,0.5,0,1-0.3l1.1,2.6l-0.5,0.3
				c-0.5-0.9-1.3-2.4-3.2-2.4c-1.3,0-2.1,0.7-2.1,1.9c0,1.3,0.9,1.8,2.8,2.4c2.2,0.7,3.7,1.4,3.7,3.4c0,2.1-1.8,3.4-3.3,3.4
				c-0.4,0-0.8-0.1-1.4-0.3c-0.4-0.1-0.6-0.2-0.7-0.2c-0.5,0-0.9,0.2-1.4,0.4L12.1,73.8z"/>
			<path class="st0" d="M27.1,71.1h-1.3v3.8c0,0.7,0.3,1,1.1,1h0.4v0.5h-4.8V76H23c0.7,0,1.1-0.3,1.1-1V67c0-0.7-0.3-1-1.1-1h-0.5
				v-0.5h5.9c2.3,0,3.7,1,3.7,2.6c0,0.9-0.5,1.6-1,2c-0.7,0.6-1.4,0.7-2,0.9l1.8,3.5c0.6,1.2,1.1,1.4,1.7,1.4h0.2v0.5h-3L27.1,71.1z
				 M25.8,70.6h2.1c1.6,0,2.2-1.1,2.2-2.5c0-1.4-0.8-2.1-2.2-2.1h-1c-0.8,0-1.1,0.3-1.1,1V70.6z"/>
			<path class="st0" d="M49,64.3v3.5H38.7v2.5c0,2.4-0.4,5.2-1.6,7.2c-0.1-0.1-0.7-0.5-1.4-0.7c1.3-2.1,1.5-4,1.5-6.9v-5.6H49z
				 M48.9,73.3c0.1,0.1,0.1,0.1,0.1,0.2c0,0.1-0.1,0.2-0.2,0.2c0,0-0.2,0-0.2,0c-0.3,0.3-0.8,0.8-1.5,1.3c0.9,0.7,1.7,1.1,2.8,1.4
				c-0.5,0.4-0.7,0.7-0.9,1.3c-2.5-1-4.3-2.7-5.2-4.8H42v2.6c1.3-0.2,2.1-0.4,2.7-0.6c-0.2,0.6-0.2,1-0.2,1.4
				c-0.5,0.1-3.2,0.7-5.1,1c-0.1,0.2-0.1,0.3-0.3,0.3c-0.2,0-0.2-0.1-0.2-0.2L38.5,76c0.3,0,0.8-0.1,2-0.3v-2.9h-1.7v-1.3h2.2v-1.3
				h-1.7V69h1.7v-1l1.4,0.1c0.3,0,0.5,0,0.5,0.2c0,0.1-0.1,0.2-0.4,0.2V69h2.5v-1l1.5,0.1c0.2,0,0.4,0,0.4,0.2
				c0,0.2-0.2,0.2-0.5,0.3V69H49v1.2h-2.5v1.3h3.1v1.3h-1.3L48.9,73.3z M38.7,65.4v1.1h8.7v-1.1H38.7z M45.1,70.2h-2.5v1.3h2.5V70.2
				z M45.2,72.8c0.3,0.6,0.7,1,0.9,1.2c0.5-0.4,0.8-0.7,1.3-1.2H45.2z"/>
			<path class="st0" d="M58.9,64.2V69h-4.2v8.5h-1.5V64.2H58.9z M57.4,66.2v-0.8h-2.7v0.8H57.4z M54.7,67.1v0.8h2.7v-0.8H54.7z
				 M61.8,72.5h1.9v1.3h-1.9v3.4h-1.4v-3.4h-1.6c-0.3,1.6-1,2.8-2.4,3.7c-0.4-0.5-0.6-0.6-1.2-0.9c1.1-0.7,1.8-1.6,2.1-2.8h-1.8
				v-1.3h2c0-0.2,0-0.3,0-1.3H56V70h7.2v1.2h-1.4V72.5z M60.4,71.2h-1.4v1.3h1.4V71.2z M65.9,64.2v11.4c0,1.8-0.9,2-2.6,2
				c-0.1-0.4-0.2-0.8-0.6-1.6c0.2,0,0.6,0.1,1,0.1c0.4,0,0.8-0.1,0.8-0.7v-6.4h-4.2v-4.8H65.9z M64.4,66.2v-0.8h-2.8v0.8H64.4z
				 M61.6,67.1v0.8h2.8v-0.8H61.6z"/>
		</g>
		<g>
			<path class="st0" d="M26.8,86.4c-0.1-0.6-0.5-1-1.2-1c-0.8,0-1.2,0.5-1.2,1.9v1c0,1.3,0.4,1.9,1.2,1.9c0.7,0,1-0.3,1.2-1h1.3
				c-0.2,1.5-1.1,2.2-2.5,2.2c-1.5,0-2.6-0.9-2.6-3v-1c0-2.1,1.1-3,2.6-3c1.4,0,2.3,0.7,2.5,2.2H26.8z"/>
			<path class="st0" d="M34,86c-0.3-0.5-0.7-0.7-1.4-0.7c-0.6,0-1,0.3-1,0.8c0,0.5,0.4,0.8,1.4,1c1.4,0.4,2.1,0.9,2.1,2.1
				c0,1.1-0.8,2-2.4,2c-1.2,0-2-0.3-2.7-1.1l1.1-0.7c0.4,0.5,0.8,0.7,1.5,0.7c0.8,0,1.1-0.3,1.1-0.8c0-0.5-0.3-0.7-1.4-1
				c-1.4-0.4-2-1-2-2.1c0-1.1,0.7-1.9,2.4-1.9c1.1,0,1.9,0.4,2.4,1.1L34,86z"/>
			<path class="st0" d="M41.2,91.1l-1.2-2.7h-1.1v2.7h-1.4v-6.9h2.5c1.6,0,2.6,0.7,2.6,2.1c0,0.9-0.4,1.5-1.2,1.8l1.4,2.9H41.2z
				 M39.7,87.2c0.8,0,1.3-0.2,1.3-0.9c0-0.7-0.5-0.9-1.3-0.9h-0.9v1.8H39.7z"/>
		</g>
	</g>
	<g>
		<ellipse transform="matrix(0.9762 -0.2166 0.2166 0.9762 -6.4451 7.9371)" class="st1" cx="33" cy="33.4" rx="22.1" ry="20.8"/>
		<ellipse transform="matrix(0.977 -0.2132 0.2132 0.977 -6.4036 7.6588)" class="st2" cx="32.3" cy="33.5" rx="17.1" ry="17.1"/>
		<path class="st3" d="M30.5,44L30,41.7l-6.9,1.5l0.1-3.4l-5.3-3.9l1.2-4.6l-3.7-0.7c-0.4,2.1-0.3,4.4,0.2,6.6
			c1.6,7.1,7.3,12.2,14.1,13.2l0.9-1.5l-3.2-3.3L30.5,44z"/>
		<ellipse transform="matrix(0.974 -0.2265 0.2265 0.974 -6.5959 8.1814)" class="st4" cx="32.3" cy="32.8" rx="21.4" ry="21.4"/>
		<path class="st5" d="M8.4,43C7.8,41.5,7.3,40,7,38.5c-3.1-14,5.7-27.9,19.7-31c2.6-0.6,5.2-0.7,7.8-0.5"/>
		<path class="st5" d="M54.4,19.1c1.5,2.4,2.6,5.1,3.3,8.1c2.8,12.7-4.1,25.2-15.8,29.8"/>
		<path class="st3" d="M49,29.8c-1.8-8-8.8-13.4-16.6-13.4l-1.6,2l3.1,0.4l-0.5,4.8l-6.8,3.8c-0.6,0.3-0.6,1.2-0.1,1.6l3.3,3.5
			l3.5-1.5l5,2.1l-0.6,5.9l3.7,2.7l3.4-5.3l2.4,1.3l2.2-4.5C49.4,32.1,49.3,30.9,49,29.8z"/>
		<path class="st6" d="M25.9,52.5L25.9,52.5c0.1-0.3,0.4-0.5,0.7-0.5l1.7,0c0.2,0,0.5-0.1,0.6-0.3l1.4-2.3c0.2-0.3,0.1-0.6-0.1-0.9
			l-2.2-2.2c-0.3-0.3-0.2-0.9,0.2-1.1l1.8-1c0.3-0.2,0.4-0.5,0.3-0.8l-0.2-1.1c-0.1-0.4-0.5-0.6-0.8-0.5L24,43
			c-0.5,0.1-0.9-0.3-0.9-0.7l0.1-2.1c0-0.2-0.1-0.4-0.3-0.6l-4.6-3.7c-0.2-0.2-0.3-0.5-0.2-0.7l0.8-3.2c0.1-0.4-0.2-0.8-0.6-0.9
			l-3.6-0.7c-0.1,0-0.1,0-0.2-0.1l-2.3-1.1c-0.5-0.2-1,0.1-1,0.6C11.1,33.9,11.5,48,25,53C25.4,53.1,25.8,52.9,25.9,52.5z"/>
		<g>
			<path class="st3" d="M49.6,14.2c0,0-8.8,2.2-11.7-11.6C37.9,2.6,51.2,5.3,49.6,14.2z"/>
			<path class="st3" d="M50.6,14.9c0,0-1.3-11.5,14.6-9.9C65.2,5.1,59.9,20.2,50.6,14.9z"/>
			<path class="st7" d="M50.9,13.8c0,0-2-11.5,14.1-11.5C65,2.3,60.7,18,50.9,13.8z"/>
			<path class="st8" d="M50.2,13.5c0,0-9.9,1.7-10.5-12.7C39.7,0.7,53.5,4.5,50.2,13.5z"/>
			<path class="st9" d="M49.3,21.6"/>
			<g>
				<g>
					<path class="st9" d="M51.1,12.2c0-0.1,0.1-0.2,0.1-0.2c0-0.1,0.1-0.1,0.1-0.2c0.1-0.1,0.2-0.3,0.3-0.4c0.1-0.1,0.2-0.3,0.3-0.4
						c0.1-0.1,0.2-0.3,0.3-0.4c0.2-0.2,0.4-0.5,0.6-0.7l0.3-0.3c0.1-0.1,0.2-0.2,0.3-0.3c0.9-0.9,1.9-1.6,2.9-2.3
						c0.3-0.2,0.5-0.3,0.8-0.5c0.1-0.1,0.3-0.2,0.4-0.2L58,6.1c0.3-0.1,0.5-0.3,0.8-0.4l0.8-0.3l0.4-0.2L60.6,5l0.9-0.3
						c0.1-0.1,0.3-0.1,0.4-0.1l0.4-0.1l0.9-0.2l-0.8,0.3l-0.4,0.1c-0.1,0-0.3,0.1-0.4,0.2l-0.8,0.4l-0.4,0.2l-0.4,0.2l-0.8,0.4
						c-0.3,0.1-0.5,0.3-0.8,0.5l-0.4,0.2c-0.1,0.1-0.2,0.2-0.4,0.3c-0.2,0.2-0.5,0.3-0.7,0.5c-0.9,0.7-1.8,1.5-2.5,2.4
						c-0.1,0.1-0.2,0.2-0.3,0.3l-0.3,0.3c-0.2,0.2-0.3,0.5-0.5,0.7c-0.1,0.1-0.2,0.2-0.2,0.4c-0.1,0.1-0.1,0.2-0.2,0.4
						c-0.1,0.1-0.1,0.2-0.2,0.4c0,0.1-0.1,0.1-0.1,0.2c0,0.1-0.1,0.1-0.1,0.2c-0.1,0.4-0.6,0.6-0.9,0.4c-0.4-0.1-0.6-0.6-0.4-0.9
						C51.1,12.3,51.1,12.2,51.1,12.2L51.1,12.2z"/>
				</g>
			</g>
			<g>
				<g>
					<path class="st9" d="M49.3,12.6c0,0,0-0.1,0-0.2c0-0.1,0-0.1-0.1-0.2c0-0.1-0.1-0.2-0.1-0.4c0-0.1-0.1-0.2-0.1-0.4
						c0-0.1-0.1-0.2-0.1-0.4c-0.1-0.2-0.2-0.5-0.3-0.7l-0.2-0.4c-0.1-0.1-0.1-0.2-0.2-0.3c-0.5-0.9-1.1-1.8-1.8-2.6
						C46.2,7,46.1,6.9,46,6.8l-0.3-0.3l-0.3-0.3c-0.1-0.1-0.2-0.2-0.3-0.3l-0.6-0.6L44,4.9l-0.3-0.3c-0.1-0.1-0.2-0.2-0.3-0.2
						l-0.7-0.5c-0.1,0-0.1-0.1-0.2-0.1l-0.2-0.1L42,3.5l-0.7-0.4L42,3.4l0.4,0.2l0.2,0.1c0.1,0,0.1,0.1,0.2,0.1l0.7,0.4
						c0.1,0.1,0.2,0.1,0.4,0.2l0.3,0.2l0.7,0.5l0.7,0.5c0.1,0.1,0.2,0.2,0.3,0.3l0.3,0.3l0.3,0.3c0.1,0.1,0.2,0.2,0.3,0.3
						c0.8,0.8,1.5,1.6,2.2,2.6c0.1,0.1,0.2,0.2,0.2,0.4l0.2,0.4c0.2,0.2,0.3,0.5,0.4,0.7c0.1,0.1,0.1,0.3,0.2,0.4
						c0.1,0.1,0.1,0.3,0.2,0.4c0.1,0.1,0.1,0.3,0.2,0.4c0,0.1,0.1,0.1,0.1,0.2c0,0.1,0.1,0.1,0.1,0.2l0,0c0.1,0.3-0.1,0.7-0.4,0.8
						C49.8,13.2,49.4,13,49.3,12.6C49.3,12.7,49.3,12.6,49.3,12.6z"/>
				</g>
			</g>
		</g>
		<path class="st10" d="M40.9,23c0,0,8.6-0.3,9.4-11"/>
		<path class="st6" d="M52.5,25.5L49.3,25l-0.4,2.6l1.8,3l-3.4,7.1l-2.4-1.3l-3.4,5.3l-3.7-2.7l0.6-5.9l-5-2.1l-3.5,1.5l-3.3-3.5
			c-0.6-0.4-0.5-1.2,0.1-1.6l6.8-3.8l0.5-4.8l-3.1-0.4l2.9-3.6l6.8-1.4"/>
	</g>
</g>
</svg>
