<?xml version="1.0" encoding="utf-8"?>
<!-- Generator: Adobe Illustrator 24.0.3, SVG Export Plug-In . SVG Version: 6.00 Build 0)  -->
<svg version="1.1" id="レイヤー_1" xmlns="http://www.w3.org/2000/svg" xmlns:xlink="http://www.w3.org/1999/xlink" x="0px"
	 y="0px" viewBox="0 0 66.9 88.3" style="enable-background:new 0 0 66.9 88.3;" xml:space="preserve">
<style type="text/css">
	.st0{fill:#513813;}
	.st1{fill:#C7DDEB;}
	.st2{fill:#4A9143;}
	.st3{fill:none;stroke:#513813;stroke-width:1.3771;stroke-miterlimit:10;}
	.st4{fill:#3D4451;}
	.st5{fill:none;stroke:#513813;stroke-width:1.5205;stroke-miterlimit:10;}
	.st6{fill:none;stroke:#513813;stroke-width:1.6472;stroke-miterlimit:10;}
	.st7{fill:none;stroke:#513813;stroke-width:1.0137;stroke-miterlimit:10;}
	.st8{fill:none;stroke:#513813;stroke-width:1.2298;stroke-linecap:round;stroke-miterlimit:10;}
	.st9{fill:none;stroke:#513813;stroke-width:1.1024;stroke-miterlimit:10;}
	.st10{fill:#F04F4C;stroke:#513813;stroke-width:1.1051;stroke-miterlimit:10;}
	.st11{fill:#FDC345;stroke:#513813;stroke-width:0.8976;stroke-miterlimit:10;}
</style>
<g>
	<g>
		<g>
			<g>
				<path class="st0" d="M0.9,64.9c0.9,0.4,2.5,1.7,2.6,1.7c-0.4,0.6-0.5,0.7-0.9,1.2c-0.7-0.6-2-1.5-2.5-1.8L0.9,64.9z M0.5,73.8
					c1.1-1.5,2.2-4.1,2.5-4.8c0.4,0.4,0.7,0.6,1.2,0.9c-0.3,0.8-0.6,1.5-1,2.2c-0.2,0.3-0.9,1.7-1,2c0,0.1,0.1,0.3,0.1,0.4
					c0,0.1-0.1,0.2-0.2,0.2c-0.1,0-0.2,0-0.3-0.1L0.5,73.8z M1.7,60.9c0.7,0.3,2.1,1.2,2.6,1.6C4,62.8,3.9,63,3.5,63.7
					c-0.6-0.5-1.6-1.1-2.5-1.7L1.7,60.9z M10,64.9h4.2v1.4H10v2.1h3.2v6.2h-1.5v-0.8H6.7v0.9H5.2v-6.2h3.3v-2.1H4.3v-1.4h4.2v-1.8
					c-1.3,0.1-1.9,0.2-3.2,0.2c-0.2-0.7-0.4-1.2-0.6-1.4c4.1,0,6.4-0.8,7.5-1.1l1,1c0.1,0.1,0.1,0.2,0.1,0.2c0,0.1-0.1,0.2-0.2,0.2
					c-0.1,0-0.3-0.1-0.4-0.1c-0.3,0.1-1.1,0.4-2.7,0.7V64.9z M11.6,72.4v-2.7H6.7v2.7H11.6z"/>
				<path class="st0" d="M26.3,64.2v-3.3l1.5,0.1c0.3,0,0.4,0.1,0.4,0.2c0,0.2-0.1,0.2-0.4,0.3v2.7h2.7c0,2.3,0,7.4-0.9,9.3
					c-0.5,1.1-1.5,1.1-2.6,1.1c-0.1-0.8-0.4-1.2-0.7-1.6c0.7,0.2,1,0.2,1.2,0.2c0.4,0,0.8,0,1-1.6c0.5-2.9,0.4-4.7,0.4-5.8h-1.3
					c-0.1,1.7-0.4,5.5-3.1,9c-0.5-0.3-1.3-0.8-1.3-0.8c0.2-0.3,0.4-0.5,0.6-0.9c-1.3,0.2-4.6,0.7-5.9,0.8c-0.1,0.2-0.1,0.3-0.3,0.3
					c-0.1,0-0.2-0.2-0.3-0.3l-0.2-1.3c0.5,0,2.4-0.2,3-0.3v-1.1h-2.6v-1h2.6v-0.7h-2.6v-4.4h2.6v-0.6h-3.1v-1.1h3.1v-0.7
					c-0.7,0.1-1.5,0.1-2.3,0.2c0-0.2-0.1-0.4-0.5-1.2c3.3,0.1,5.3-0.6,5.9-0.8l0.7,0.9c0.1,0.1,0.1,0.2,0.1,0.3c0,0,0,0.2-0.2,0.2
					c-0.1,0-0.2-0.1-0.3-0.2c-0.8,0.2-1.8,0.4-2,0.4v0.9H25v0.8H26.3z M20.3,66.9v-0.8h-1.3v0.8H20.3z M19.1,67.8v0.8h1.3v-0.8H19.1
					z M24.8,64.6h-3.1v0.6h2.7v4.4h-2.7v0.7h2.6v1h-2.6v0.9c0.4,0,1.8-0.2,2.6-0.4c-0.1,0.3-0.1,0.5-0.1,0.8c1.7-2.6,2-5.6,2.1-7
					h-1.5V64.6z M23.1,66.9v-0.8h-1.4v0.8H23.1z M21.7,67.8v0.8h1.4v-0.8H21.7z"/>
				<path class="st0" d="M41.4,64.9h3.8v1.2h-3.8c0,0.5,0,0.7,0,0.9h4.3v1.2h-4.4c0,0.4-0.1,0.6-0.1,1h6.2v1.2H42
					c1.3,1.5,3.4,2.4,5.4,2.7c-0.4,0.5-0.6,0.8-0.9,1.4c-2.8-0.6-5-2.3-6-3.7c-1.2,2.1-3.6,3.2-5.7,3.7c-0.2-0.4-0.6-1-0.9-1.4
					c2.3-0.4,4.2-1.2,5.2-2.8h-5.3v-1.2h5.8c0-0.2,0.1-0.5,0.1-1h-4.2V67h4.3c0-0.3,0-0.5,0-0.9H36v-1.2h3.7v-1.3h-4.3v2.1H34v-3.3
					h5.7v-1.4l1.7,0.1c0.1,0,0.3,0,0.3,0.2s-0.2,0.2-0.4,0.3v0.9h5.8v3.3h-1.5v-2h-4c0,0,0.1,0.1,0.1,0.1c0,0.2-0.2,0.2-0.4,0.3
					V64.9z"/>
				<path class="st0" d="M55.5,63.2c0.2,0.1,0.3,0.1,0.3,0.3c0,0.1-0.1,0.2-0.3,0.2c-0.1,0-0.1,0-0.2,0c-0.9,1.4-1.8,2.7-2.5,3.5
					c0.4,0,1.4-0.1,1.9-0.1c-0.2-0.6-0.3-0.7-0.4-1.1l1-0.5c0.4,0.7,0.8,2,1,2.8c-0.7,0.2-0.7,0.3-1.2,0.5C55,68.4,55,68.2,55,68
					c-0.3,0.1-0.8,0.1-1,0.1v6.4h-1.4v-6.3c-0.5,0-1.2,0.1-1.6,0.1c0,0.2-0.1,0.4-0.3,0.4c-0.1,0-0.2-0.2-0.2-0.3l-0.1-1.3
					c0.3,0,0.4,0,0.9,0c0.4-0.4,0.4-0.6,1.2-1.6c-0.2-0.2-0.9-1-2.2-1.8l0.7-1c0.2,0.1,0.2,0.2,0.5,0.4c0.6-0.9,0.9-1.5,1.2-2.4
					l1.2,0.6c0.1,0.1,0.2,0.1,0.2,0.2c0,0.2-0.4,0.2-0.5,0.2c-0.4,0.9-0.8,1.4-1.2,2.1c0.4,0.3,0.6,0.5,0.7,0.6c0.1-0.2,0.7-1,1.1-2
					L55.5,63.2z M52.2,69.3c0.1,0,0.3,0,0.3,0.2c0,0.2-0.3,0.2-0.3,0.2c-0.1,1.1-0.3,2.6-0.5,3.4c-0.4-0.2-0.7-0.3-1.2-0.4
					c0.4-1.4,0.6-2.3,0.6-3.6L52.2,69.3z M55.6,69.1c0,1,0.2,1.8,0.4,2.8c-0.5,0.1-0.7,0.2-1.3,0.3c-0.2-0.9-0.3-2.1-0.3-3
					L55.6,69.1z M61.3,72.2h-2.4l0.9,0.8c0.1,0.1,0.1,0.2,0.1,0.2c0,0.1-0.1,0.1-0.2,0.1c-0.1,0-0.2,0-0.3-0.1
					c-0.8,0.7-2.5,1.3-3.1,1.5c-0.2-0.4-0.5-0.8-0.8-1.1c0.6-0.2,2-0.6,3.1-1.4h-1.9v-5.6h6.8v5.6h-2c1.1,0.8,2,1.1,3,1.5
					c-0.3,0.4-0.5,0.6-0.7,1.2c-1.2-0.3-2.6-1.1-3.3-1.7L61.3,72.2z M64.3,65v1h-8.4v-1h3.3v-0.7h-2.6v-0.9h2.6v-0.7h-3.1v-1h3.1
					v-0.9l1.6,0c0.1,0,0.3,0,0.3,0.2c0,0.2-0.2,0.3-0.4,0.3v0.4h3.4v1h-3.4v0.7h2.8v0.9h-2.8V65H64.3z M62.1,68.2v-0.7H58v0.7H62.1z
					 M58,69v0.7h4.1V69H58z M58,70.6v0.8h4.1v-0.8H58z"/>
			</g>
		</g>
		<g>
			<path class="st0" d="M1.4,85.8v2.4H0v-6.9h2.5C4.1,81.3,5,82,5,83.5c0,1.5-1,2.3-2.6,2.3H1.4z M2.3,84.6c1,0,1.4-0.3,1.4-1.1
				c0-0.7-0.4-1-1.4-1H1.4v2.1H2.3z"/>
			<path class="st0" d="M10.3,81.3v1.2H7.4V84H10v1.2H7.4V87h2.9v1.2H6v-6.9H10.3z"/>
			<path class="st0" d="M15.2,88.2L14,85.5h-1.1v2.7h-1.4v-6.9h2.5c1.6,0,2.6,0.7,2.6,2.1c0,0.9-0.4,1.5-1.2,1.8l1.4,2.9H15.2z
				 M13.8,84.3c0.8,0,1.3-0.2,1.3-0.9c0-0.7-0.5-0.9-1.3-0.9h-0.9v1.8H13.8z"/>
			<path class="st0" d="M22,81.3v1.2h-2.9v1.7h2.6v1.2h-2.6v2.8h-1.4v-6.9H22z"/>
			<path class="st0" d="M25.4,88.3c-1.5,0-2.6-0.9-2.6-3v-1c0-2.1,1.1-3,2.6-3c1.6,0,2.6,0.9,2.6,3v1C28.1,87.3,27,88.3,25.4,88.3z
				 M24.2,85.2c0,1.3,0.4,1.9,1.2,1.9s1.2-0.5,1.2-1.9v-1c0-1.3-0.4-1.9-1.2-1.9s-1.2,0.5-1.2,1.9V85.2z"/>
			<path class="st0" d="M33.1,88.2l-1.2-2.7h-1.1v2.7h-1.4v-6.9h2.5c1.6,0,2.6,0.7,2.6,2.1c0,0.9-0.4,1.5-1.2,1.8l1.4,2.9H33.1z
				 M31.6,84.3c0.8,0,1.3-0.2,1.3-0.9c0-0.7-0.5-0.9-1.3-0.9h-0.9v1.8H31.6z"/>
			<path class="st0" d="M38.8,85l1.9-3.8h1.3v6.9h-1.3v-4.3l-1.5,3h-0.8l-1.5-3v4.2h-1.3v-6.9h1.3L38.8,85z"/>
			<path class="st0" d="M43,88.2l2.4-6.9h1.3l2.4,6.9h-1.5l-0.4-1.3h-2.3l-0.4,1.3H43z M45.3,85.7h1.6L46,83.3L45.3,85.7z"/>
			<path class="st0" d="M55.2,81.3v6.9H54l-2.7-4.3v4.3H50v-6.9h1.2l2.7,4.3v-4.3H55.2z"/>
			<path class="st0" d="M60.2,83.4c-0.1-0.6-0.5-1-1.2-1c-0.8,0-1.2,0.5-1.2,1.9v1c0,1.3,0.4,1.9,1.2,1.9c0.7,0,1-0.3,1.2-1h1.3
				c-0.2,1.5-1.1,2.2-2.5,2.2c-1.5,0-2.6-0.9-2.6-3v-1c0-2.1,1.1-3,2.6-3c1.4,0,2.3,0.7,2.5,2.2H60.2z"/>
			<path class="st0" d="M66.9,81.3v1.2H64V84h2.6v1.2H64V87h2.9v1.2h-4.3v-6.9H66.9z"/>
		</g>
	</g>
	<g>
		<path class="st1" d="M7.3,19.8v14.9h20.4V19.8H7.3z"/>
		<polygon class="st2" points="27,32.5 27,27.7 21.3,22.9 18.7,25.6 		"/>
		<polyline class="st2" points="26.8,33 15.6,22.9 8.1,29.4 8.1,33 		"/>
		<path class="st1" d="M36.4,4.8V22h16.1V4.8H36.4z"/>
		<path class="st1" d="M29.9,35.7V52h20.4V35.7H29.9z"/>
		<g>
			<g>
				<g>
					<polyline class="st3" points="37.9,5.9 34.2,5.9 34.2,23.8 50.6,23.8 50.6,20.9 					"/>
					<path class="st3" d="M38.9,0.7v19.1h16.7V0.7H38.9z"/>
				</g>
				<rect x="41.6" y="7" class="st4" width="11.4" height="1.1"/>
				<rect x="41.6" y="9.3" class="st4" width="11.4" height="1.1"/>
				<rect x="41.6" y="11.9" class="st4" width="11.4" height="1.1"/>
			</g>
			<rect x="5.4" y="15.4" class="st5" width="24.3" height="24.2"/>
			<polyline class="st6" points="30,28.7 50.2,28.7 50.2,52.2 24.1,52.2 24.1,39.9 			"/>
			<rect x="8.2" y="17.9" class="st7" width="18.8" height="15.3"/>
			<polyline class="st8" points="8.2,29.4 15.7,22.9 27,33 			"/>
			<polyline class="st9" points="18.7,25.6 21.3,22.9 27,27.7 			"/>
			<polygon class="st10" points="34.2,40.5 34.2,35.7 38.3,38.1 42.5,40.5 38.3,42.9 34.2,45.3 			"/>
			<rect x="31.9" y="30.6" class="st4" width="2.3" height="1.9"/>
			<rect x="36.4" y="30.6" class="st4" width="2.2" height="1.9"/>
			<rect x="40.5" y="30.6" class="st4" width="2.2" height="1.9"/>
			<rect x="44.7" y="30.6" class="st4" width="2.3" height="1.9"/>
			<rect x="27.6" y="48.6" class="st4" width="2.3" height="1.9"/>
			<rect x="31.9" y="48.6" class="st4" width="2.3" height="1.9"/>
			<rect x="36.4" y="48.6" class="st4" width="2.2" height="1.9"/>
			<rect x="40.5" y="48.6" class="st4" width="2.2" height="1.9"/>
			<rect x="44.7" y="48.6" class="st4" width="2.3" height="1.9"/>
		</g>
		<rect x="51.6" y="1" class="st11" width="3.9" height="4.4"/>
	</g>
</g>
</svg>
