<?xml version="1.0" encoding="utf-8"?>
<!-- Generator: Adobe Illustrator 24.0.3, SVG Export Plug-In . SVG Version: 6.00 Build 0)  -->
<svg version="1.1" id="レイヤー_1" xmlns="http://www.w3.org/2000/svg" xmlns:xlink="http://www.w3.org/1999/xlink" x="0px"
	 y="0px" viewBox="0 0 69.9 88.9" style="enable-background:new 0 0 69.9 88.9;" xml:space="preserve">
<style type="text/css">
	.st0{fill:#C7DDEB;}
	.st1{fill:none;stroke:#513813;stroke-width:0.8876;stroke-miterlimit:10;}
	.st2{fill:none;stroke:#513813;stroke-width:1.5216;stroke-miterlimit:10;}
	.st3{fill:#7EC13E;}
	.st4{fill:#6B968B;}
	.st5{fill:none;stroke:#513813;stroke-width:1.49;stroke-miterlimit:10;}
	.st6{fill:#7EB9C7;stroke:#513813;stroke-width:1.1899;stroke-miterlimit:10;}
	.st7{fill:#513813;}
	.st8{fill:#FDC345;stroke:#513813;stroke-width:1.4845;stroke-miterlimit:10;}
</style>
<g>
	<g>
		<g>
			<path class="st0" d="M59.6,38.8c0,1.4-1.2,2.5-2.7,2.5H14.4c-1.5,0-2.7-1.1-2.7-2.5V14.7c0-1.4,1.2-2.5,2.7-2.5h42.5
				c1.5,0,2.7,1.1,2.7,2.5V38.8z"/>
			<g>
				<g>
					<path class="st1" d="M51.2,34.9c0,0.3-0.2,0.5-0.5,0.5H9.4c-0.3,0-0.5-0.2-0.5-0.5V8.8c0-0.3,0.2-0.5,0.5-0.5h41.2
						c0.3,0,0.5,0.2,0.5,0.5V34.9z"/>
				</g>
			</g>
			<rect x="5.9" y="5.1" class="st2" width="48.7" height="32.8"/>
		</g>
		<g>
			<g>
				<ellipse class="st3" cx="50.1" cy="17.8" rx="16.3" ry="16.6"/>
				<path class="st4" d="M50,0.5l-0.2,18.4l17.3-2C67.1,16.9,64.3,3.6,50,0.5z"/>
				<circle class="st5" cx="49.8" cy="17.6" r="16.8"/>
				<path class="st6" d="M49.5,0.7v18.4l16.6-1.6c0,0,0.4,7.2-3.2,9.9l-13.4-8.2"/>
			</g>
		</g>
		<g>
			<g>
				<g>
					<path class="st7" d="M20.9,24.8c3.3,0.2,6.1-2.6,5.9-5.9c-0.1-2.9-2.5-5.2-5.3-5.3c-3.3-0.2-6.1,2.6-5.9,5.9
						C15.8,22.4,18.1,24.7,20.9,24.8z"/>
				</g>
			</g>
			<path class="st7" d="M16.3,37.3l-2.4,5.9c-0.4,1.2-1.8,1.7-2.9,1.3c-0.6-0.2-1.1-0.7-1.4-1.4c-0.3-0.7,0-1.5,0.2-2.1
				c0.8-2.4,1.5-4.9,2.3-7.3c0.6-2.1,1.3-4.4,2.9-6c1.5-1.5,3.4-2.5,5.5-2.5c0.9,0,4.5,0,6.5,0.1c0,0,10.6-2.7,11.3-2.8
				c0.6-0.1,1.3,0,1.8,0.3c0.4,0.3,0.7,0.6,0.8,1c0.2,0.7-0.1,1.4-0.5,2c-0.9,1-2.5,1.4-3.8,1.9c-1.5,0.6-3,1.1-4.5,1.7
				c-0.9,0.3-1.8,0.5-2.5,1.3c-0.5,0.6-0.9,1.4-1.1,2.2c-0.3,1-0.3,2.1-0.4,3.1c-0.2,3.3-0.4,6.5-0.4,9.8c0,1.6,0,3.1,0,4.7
				c0,1.2-0.8,2.2-2,2.4c-1.4,0.2-2.7-0.9-2.7-2.3v-8.1h-2.2V50c0,1.2-0.8,2.2-2,2.4c-1.4,0.2-2.7-0.9-2.7-2.3L16.3,37.3"/>
		</g>
		<polyline class="st7" points="39.7,25.6 54.5,15.3 53.7,14.2 38.2,23.2 		"/>
		<path class="st8" d="M56.7,15.8c-0.4,0-0.8-0.3-1-0.6l-4.8-5.8c-0.5-0.6-0.3-1.4,0.3-1.8c0.6-0.4,1.6-0.3,2,0.3l3.7,4.5l9.6-8.8
			c0.5-0.5,1.5-0.5,2.1,0c0.6,0.5,0.6,1.3,0.1,1.8l-10.8,10C57.6,15.7,57.2,15.9,56.7,15.8C56.8,15.8,56.8,15.8,56.7,15.8z"/>
		<polygon class="st3" points="19.9,26.3 22.9,26.3 21.8,28.1 22.7,33.2 21.4,35.2 19.9,33.2 20.9,28.1 		"/>
	</g>
	<g>
		<g>
			<path class="st7" d="M5,64v1.2H0V64H5z M1.9,74.4v0.9H0.5V70h4.4v5H3.5v-0.7H1.9z M4.5,62v1.2H0.8V62H4.5z M4.5,66.1v1.1H0.8
				v-1.1H4.5z M4.5,68.1v1.2H0.8v-1.2H4.5z M3.5,73.2v-1.9H1.9v1.9H3.5z M13.7,71.5v1.1h-0.8v1c0,1.5-0.9,1.6-2.4,1.6
				c-0.1-0.7-0.5-1.3-0.6-1.5c0.4,0.1,0.8,0.1,1.1,0.1c0.4,0,0.6,0,0.6-0.5v-0.7H7.3v2.6H6v-2.6H5.1v-1.1H6V68h2.8v-0.8H5v-1.1h2.3
				v-0.9H5.8v-0.9h1.5v-0.8h-2v-1h2v-1l1.4,0.1c0.1,0,0.3,0,0.3,0.2c0,0.1-0.1,0.2-0.3,0.2v0.6h1.6v-1.1l1.5,0.1
				c0.2,0,0.3,0,0.3,0.1c0,0.2-0.2,0.2-0.4,0.3v0.6h1.7v1h-1.7v0.8H13v0.9h-1.3v0.9h2.1v1.1h-3.7V68h2.8v3.5H13.7z M8.7,69.7V69H7.3
				v0.8H8.7z M8.7,71.5v-0.8H7.3v0.8H8.7z M8.7,63.6v0.8h1.6v-0.8H8.7z M8.7,65.3v0.9h1.6v-0.9H8.7z M11.5,69.7V69h-1.5v0.8H11.5z
				 M11.5,71.5v-0.8h-1.5v0.8H11.5z"/>
			<path class="st7" d="M17.5,65.3c0.8,0.4,2,1.3,2.4,1.6c-0.4,0.6-0.5,0.7-0.8,1.3c-1-0.8-1.3-1-2.4-1.6L17.5,65.3z M16.6,74.2
				c1-1.2,2.4-3.9,2.7-4.8c0.2,0.2,0.3,0.5,1.1,1c-0.7,1.7-1.4,2.9-2.2,4.3c0,0.1,0.1,0.2,0.1,0.3s0,0.2-0.2,0.2
				c-0.1,0-0.1,0-0.2-0.1L16.6,74.2z M18.2,61.5c0.6,0.3,1.7,1.1,2.2,1.6c-0.1,0.2-0.6,0.9-0.8,1.3c-0.8-0.8-1.3-1.2-2.2-1.7
				L18.2,61.5z M25,65.9h-2.3v-1.1h6v1.1h-2.3v0.9h3.5v5.4h-2.7c0.8,0.6,2,1.4,3.8,1.8c-0.5,0.4-0.8,1-0.9,1.2
				c-1.8-0.5-3.3-1.7-3.8-2.1l0.9-1h-2.9l1.1,1c0.1,0.1,0.1,0.2,0.1,0.2s0,0.1-0.2,0.1c-0.1,0-0.2,0-0.3-0.1
				c-1.6,1.2-2.9,1.6-3.6,1.9c-0.2-0.5-0.7-1-1-1.3c1.4-0.3,2.6-0.9,3.8-1.8h-2.6v-5.4H25V65.9z M30.6,62.7v2.9h-1.4v-1.7h-7v1.7
				h-1.4v-2.9h4.1v-1.2l1.8,0.1c0.1,0,0.3,0,0.3,0.1c0,0.1-0.1,0.1-0.4,0.3v0.7H30.6z M25,67.9h-2V69h2V67.9z M25,70h-2v1.1h2V70z
				 M26.4,69h2.1v-1.1h-2.1V69z M26.4,71.1h2.1V70h-2.1V71.1z"/>
			<path class="st7" d="M47.4,67.2c0.1,0,0.1,0.1,0.1,0.2c0,0.1-0.1,0.2-0.5,0.2c-0.8,1-2,2.2-2.5,2.5c0.3,0.5,1.2,2.3,3.3,3.9
				c-0.5,0.5-0.7,0.7-1.1,1.2c-1.6-1.1-2.7-2.9-3.1-3.6c-0.9-1.7-1.3-3.4-1.5-4.8c-0.4,0.9-0.8,1.4-1.1,1.9V73
				c0.4-0.1,1.8-0.5,2.4-0.7c-0.1,0.2-0.2,1-0.2,1.5c-1.1,0.4-4.2,1.1-5,1.3c0,0.2-0.1,0.4-0.3,0.4c-0.2,0-0.2-0.2-0.3-0.3l-0.4-1.3
				c0.9-0.2,1.7-0.4,2-0.4v-2.9c-0.9,0.8-1.3,1.2-1.6,1.4c-0.5-0.6-0.7-0.9-1.1-1.1v4.5h-1.5v-7.7c-0.5,0.8-0.7,1.1-0.9,1.3
				c-0.5-0.7-0.8-0.9-1.2-1c0.8-1,2.3-2.9,3.2-6.4l1.5,0.5c0.1,0,0.3,0.1,0.3,0.2c0,0.2-0.2,0.2-0.5,0.2c-0.5,1.3-0.7,1.9-1.1,2.7
				l0.3,0c0.1,0,0.3,0,0.3,0.2c0,0.2-0.2,0.3-0.4,0.3v5.1c0.8-0.5,3.2-2.1,4.3-5h-3.5v-1.5h4v-2.7l1.8,0.1c0.1,0,0.3,0,0.3,0.2
				c0,0.1-0.2,0.2-0.4,0.3v2.1h4.2v1.5h-3.9c0.1,1.2,0.3,2.2,0.6,2.9c0.1-0.1,1.2-1,2-2.3L47.4,67.2z"/>
			<path class="st7" d="M54.7,75.3h-1.3v-3.9c-0.5,0.8-1.1,1.8-2.1,2.6c-0.3-0.4-0.6-0.6-1.1-1c1.2-0.9,2.3-2,3-3.4h-2.2v-4.5h2.3
				V64h-2.7v-1.2h2.7v-1.3l1.3,0.1c0.2,0,0.4,0,0.4,0.2s-0.2,0.2-0.4,0.3v0.7h2.5V62h7.3v1.2h-2.9c-0.2,0.5-0.4,0.8-0.6,1.2h3v7.6
				h-6.4v-7.6h1.9c0.1-0.2,0.4-0.8,0.6-1.2h-2.8V64h-2.6v1.3h2.4v4.5h-2.2c0.3,0.4,1,1.4,2.2,2.3c-0.3,0.3-0.6,0.8-0.8,1
				c-0.2-0.2-0.8-0.8-1.5-1.8V75.3z M53.4,68.5v-2.1h-1.1v2.1H53.4z M54.7,66.4v2.1h1.1v-2.1H54.7z M60.3,73c0.1,0,0.1,0.1,0.1,0.2
				c0,0.1-0.1,0.1-0.2,0.1c-0.1,0-0.1,0-0.3-0.1c-0.7,0.7-2,1.6-3,2c-0.3-0.4-0.6-0.6-1.2-1c0.9-0.4,2.2-1,3.4-2.2L60.3,73z
				 M62.7,66.6v-1h-3.6v1H62.7z M59.1,67.7v1h3.6v-1H59.1z M59.1,69.8v1.1h3.6v-1.1H59.1z M62.1,72.1c0.8,1,1.6,1.7,2.8,2.2
				c-0.3,0.2-0.5,0.4-1,1.1c-1.2-0.8-1.9-1.4-2.8-2.5L62.1,72.1z"/>
		</g>
		<g>
			<path class="st7" d="M10.7,87.6h2.9v1.2H9.3v-6.9h1.4V87.6z"/>
			<path class="st7" d="M20,81.9v1.2h-2.9v1.5h2.6v1.2h-2.6v1.8H20v1.2h-4.3v-6.9H20z"/>
			<path class="st7" d="M25.8,84c-0.1-0.6-0.5-1-1.2-1c-0.8,0-1.2,0.5-1.2,1.9v1c0,1.3,0.4,1.9,1.2,1.9c0.7,0,1-0.4,1.2-1h1.3
				c-0.2,1.5-1.1,2.2-2.5,2.2c-1.5,0-2.6-0.9-2.6-3v-1c0-2.1,1.1-3,2.6-3c1.4,0,2.3,0.7,2.5,2.2H25.8z"/>
			<path class="st7" d="M34.2,81.9v1.2h-1.9v5.7h-1.4v-5.7H29v-1.2H34.2z"/>
			<path class="st7" d="M41.6,81.9V86c0,2-1.1,2.9-2.6,2.9S36.3,88,36.3,86v-4.1h1.4V86c0,1.2,0.4,1.7,1.2,1.7s1.2-0.5,1.2-1.7v-4.1
				H41.6z"/>
			<path class="st7" d="M48,88.8l-1.2-2.7h-1.1v2.7h-1.4v-6.9h2.5c1.6,0,2.6,0.7,2.6,2.1c0,0.9-0.4,1.5-1.2,1.8l1.4,2.9H48z
				 M46.6,84.9c0.8,0,1.3-0.2,1.3-0.9c0-0.7-0.5-0.9-1.3-0.9h-0.9v1.8H46.6z"/>
			<path class="st7" d="M56,81.9v1.2h-2.9v1.5h2.6v1.2h-2.6v1.8H56v1.2h-4.3v-6.9H56z"/>
		</g>
	</g>
</g>
</svg>
