<?xml version="1.0" encoding="utf-8"?>
<!-- Generator: Adobe Illustrator 24.0.3, SVG Export Plug-In . SVG Version: 6.00 Build 0)  -->
<svg version="1.1" id="レイヤー_1" xmlns="http://www.w3.org/2000/svg" xmlns:xlink="http://www.w3.org/1999/xlink" x="0px"
	 y="0px" viewBox="0 0 75.6 94.3" style="enable-background:new 0 0 75.6 94.3;" xml:space="preserve">
<style type="text/css">
	.st0{fill:#513813;}
	.st1{fill:#C7DDEB;}
	.st2{fill:none;stroke:#7EB9C7;stroke-width:2.1212;stroke-linecap:round;stroke-miterlimit:10;}
	.st3{fill:none;stroke:#7CBC31;stroke-width:2.1212;stroke-linecap:round;stroke-miterlimit:10;}
	.st4{fill:none;stroke:#4A9143;stroke-width:2.1212;stroke-linecap:round;stroke-miterlimit:10;}
	.st5{fill:none;stroke:#513813;stroke-width:1.1676;stroke-miterlimit:10;}
	.st6{fill:#7EB9C7;}
	.st7{fill:#513813;stroke:#513813;stroke-width:1.1676;stroke-miterlimit:10;}
	.st8{fill:none;stroke:#513813;stroke-width:1.303;stroke-linejoin:round;stroke-miterlimit:10;}
	.st9{fill:#F5FAFC;}
	.st10{fill:#FDC345;}
	.st11{fill:none;stroke:#513813;stroke-width:1.0077;stroke-miterlimit:10;}
	.st12{fill:#7EB9C7;stroke:#513813;stroke-width:0.9069;stroke-miterlimit:10;}
</style>
<g>
	<g>
		<g>
			<path class="st0" d="M18.3,72.8v1.3h-5.9v2.1c0,1.6-1,1.7-3.3,1.7c-0.1-0.3-0.2-1-0.5-1.6c0.2,0,1,0.1,1.2,0.1c0.7,0,0.8,0,1-0.1
				c0.2-0.1,0.2-0.2,0.2-0.8v-1.4h-6v-1.3h6v-1.2l0.8,0.1c0.9-0.6,1.1-0.9,1.4-1.2H7.5v-1.3h7.5l0.6,0.9c-0.6,0.6-1.8,1.7-3.1,2.5
				v0.2H18.3z M13.4,66.8c0.3-0.3,1.1-1.3,1.9-2.7l1.5,0.5c0.1,0,0.2,0.1,0.2,0.2c0,0.2-0.3,0.2-0.5,0.2c-0.6,0.9-0.8,1.1-1.3,1.7
				h2.8v3.7h-1.5v-2.4h-10v2.4H5.1v-3.7h2.4c-0.2-0.4-0.9-1.4-1.3-1.9l1.3-0.7c0.5,0.5,1.2,1.5,1.5,2.1c-0.5,0.3-0.7,0.3-1,0.5H13.4
				z M11,63.9c0.5,0.5,1.2,1.6,1.5,2.2c-0.9,0.4-1,0.5-1.3,0.7c-0.4-0.8-1-1.8-1.5-2.3L11,63.9z"/>
			<path class="st0" d="M27.7,67v-3l1.6,0.1c0.1,0,0.4,0,0.4,0.2c0,0.2-0.2,0.2-0.3,0.3V67h5.3v1.4h-5.3v3h4v1.4h-4V76h5.9v1.4H21.6
				V76h6.2v-3.2h-3.9v-1.4h3.9v-3h-3.5c-0.8,1.4-1.5,2.2-1.7,2.5c-0.2-0.2-0.6-0.5-1.4-0.8c2.6-3.1,3.1-5.6,3.1-5.9l1.5,0.4
				c0.1,0,0.3,0.1,0.3,0.3c0,0.2-0.2,0.2-0.4,0.2c-0.3,0.8-0.4,1-0.7,1.8H27.7z"/>
			<path class="st0" d="M41.9,69.9v4.4c0.1,0.8,0.6,1.3,0.9,1.5c0.7,0.4,1.4,0.4,4,0.4c1.9,0,3.5,0,5.7-0.3c-0.3,0.5-0.5,1-0.5,1.6
				h-6.6c-2.8,0-3.3-0.5-4.1-1.4c-0.6,0.5-0.8,0.7-1.7,1.3c0,0.2,0,0.5-0.2,0.5c-0.1,0-0.2-0.2-0.2-0.2l-0.8-1.4
				c0.2-0.1,0.7-0.3,1-0.6c0.9-0.6,1-0.6,1.1-0.7v-3.7h-1.9v-1.4H41.9z M39.7,64.3c0.5,0.4,1.8,1.5,2.4,2.3
				c-0.4,0.3-0.7,0.6-1.2,1.1c-0.6-0.7-1.6-1.7-2.4-2.4L39.7,64.3z M46.4,64l1.5,0.1c0.2,0,0.3,0.1,0.3,0.2c0,0.1,0,0.1-0.1,0.2
				c-0.1,0-0.2,0.1-0.2,0.1v0.6H52v1.1h-4.1v0.8h3.2v5.1h-3.2v0.9h4.2v1.2h-4.2v1.3h-1.5v-1.3h-3.8v-1.2h3.8v-0.9h-3.1v-5.1h3.1
				v-0.8h-3.9v-1.1h3.9V64z M46.4,68.2h-1.7v1h1.7V68.2z M46.4,70.2h-1.7v1h1.7V70.2z M47.9,69.2h1.7v-1h-1.7V69.2z M47.9,71.2h1.7
				v-1h-1.7V71.2z"/>
			<path class="st0" d="M68,67.5v0.8h-2.4v0.8H68v0.8h-2.4v0.8h3.2v1.1h-7.8v-3.3c-0.4,0.5-0.5,0.6-0.8,1c-0.4-0.4-0.7-0.6-1.2-0.7
				c0.3-0.3,0.5-0.5,0.7-0.7h-1.2v2.5c0.5-0.2,0.7-0.3,1.6-0.7c0,0.2-0.1,0.4-0.1,0.7c0,0.3,0,0.5,0,0.6c-0.8,0.4-1.2,0.6-1.6,0.8
				v4.3c0,1.2-0.4,1.6-2.4,1.6c0-0.6-0.2-1.1-0.5-1.6c0.2,0,0.6,0.1,0.9,0.1c0.6,0,0.6-0.2,0.6-0.5v-3.2c-0.5,0.2-0.7,0.3-1.1,0.4
				c-0.1,0.3-0.1,0.4-0.3,0.4c-0.2,0-0.2-0.2-0.2-0.4l-0.3-1.4c1.1-0.3,1.4-0.4,1.9-0.5v-3h-1.7v-1.4H57v-2.6l1.5,0
				c0.3,0,0.4,0,0.4,0.2s-0.1,0.2-0.4,0.4v2h1.6v0.9c1.1-1.5,1.6-3,1.8-3.5l1.3,0.4c0.2,0,0.3,0.1,0.3,0.2c0,0.2-0.1,0.2-0.4,0.2
				c-0.2,0.3-0.2,0.5-0.4,0.8h1.5c0.3-0.5,0.6-1,0.9-1.7l1.5,0.4c0.2,0.1,0.3,0.1,0.3,0.2c0,0.2-0.1,0.2-0.5,0.2
				c-0.2,0.4-0.3,0.5-0.5,0.9h2.8v1.1h-2.9v0.8H68z M60,73.5v-1.2h7.3c-0.2,0.8-0.3,1.1-0.5,1.5h2.2c-0.1,1.2-0.4,3-1.2,3.5
				c-0.3,0.2-1.1,0.5-2.7,0.4c-0.1-0.9-0.4-1.3-0.5-1.5c0.3,0,0.8,0.1,1.3,0.1c0.9,0,1.1-0.2,1.4-1.5h-1c-0.1,0.2-0.2,0.3-0.3,0.5
				c-0.6-0.2-1.1-0.2-1.5-0.2c0.4-0.7,0.6-1.2,0.8-1.8h-1.5c-0.3,1.5-1,3.2-3.3,4.4c-0.3-0.4-0.6-0.6-1.2-1c2.2-1,2.7-2.4,2.9-3.4
				H60z M64.2,67.5v-0.8h-1.9v0.8H64.2z M64.2,69.1v-0.8h-1.9v0.8H64.2z M62.3,69.9v0.8h1.9v-0.8H62.3z"/>
		</g>
		<g>
			<path class="st0" d="M4.3,86.6c-0.1-0.6-0.5-1-1.2-1c-0.8,0-1.2,0.5-1.2,1.9v1c0,1.3,0.4,1.9,1.2,1.9c0.7,0,1-0.3,1.2-1h1.3
				c-0.2,1.5-1.1,2.2-2.5,2.2c-1.5,0-2.6-0.9-2.6-3v-1c0-2.1,1.1-3,2.6-3c1.4,0,2.3,0.7,2.5,2.2H4.3z"/>
			<path class="st0" d="M9.2,91.5c-1.5,0-2.6-0.9-2.6-3v-1c0-2.1,1.1-3,2.6-3c1.6,0,2.6,0.9,2.6,3v1C11.8,90.5,10.8,91.5,9.2,91.5z
				 M8,88.4c0,1.3,0.4,1.9,1.2,1.9s1.2-0.5,1.2-1.9v-1c0-1.3-0.4-1.9-1.2-1.9S8,86.1,8,87.4V88.4z"/>
			<path class="st0" d="M14.5,90.2h2.9v1.2h-4.3v-6.9h1.4V90.2z"/>
			<path class="st0" d="M19.7,90.2h2.9v1.2h-4.3v-6.9h1.4V90.2z"/>
			<path class="st0" d="M23.1,91.4l2.4-6.9h1.3l2.4,6.9h-1.5l-0.4-1.3H25l-0.4,1.3H23.1z M25.4,88.9H27l-0.8-2.4L25.4,88.9z"/>
			<path class="st0" d="M32.5,84.5c1.6,0,2.5,0.6,2.5,1.8c0,0.7-0.4,1.2-0.9,1.5c0.7,0.3,1.1,0.8,1.1,1.6c0,1.1-0.7,2-2.5,2h-2.5
				v-6.9H32.5z M31.5,87.2h0.9c0.8,0,1.1-0.3,1.1-0.8c0-0.5-0.2-0.8-1.2-0.8h-0.8V87.2z M31.5,90.2h1c0.8,0,1.2-0.3,1.2-0.9
				c0-0.6-0.4-0.9-1.4-0.9h-0.9V90.2z"/>
			<path class="st0" d="M38.8,91.5c-1.5,0-2.6-0.9-2.6-3v-1c0-2.1,1.1-3,2.6-3c1.6,0,2.6,0.9,2.6,3v1C41.4,90.5,40.3,91.5,38.8,91.5
				z M37.5,88.4c0,1.3,0.4,1.9,1.2,1.9s1.2-0.5,1.2-1.9v-1c0-1.3-0.4-1.9-1.2-1.9s-1.2,0.5-1.2,1.9V88.4z"/>
			<path class="st0" d="M46.4,91.4l-1.2-2.7H44v2.7h-1.4v-6.9h2.5c1.6,0,2.6,0.7,2.6,2.1c0,0.9-0.4,1.5-1.2,1.8l1.4,2.9H46.4z
				 M45,87.5c0.8,0,1.3-0.2,1.3-0.9c0-0.7-0.5-0.9-1.3-0.9H44v1.8H45z"/>
			<path class="st0" d="M48.6,91.4l2.4-6.9h1.3l2.4,6.9h-1.5l-0.4-1.3h-2.3l-0.4,1.3H48.6z M50.8,88.9h1.6l-0.8-2.4L50.8,88.9z"/>
			<path class="st0" d="M59.5,84.5v1.2h-1.9v5.7h-1.4v-5.7h-1.9v-1.2H59.5z"/>
			<path class="st0" d="M61.9,91.4h-1.4v-6.9h1.4V91.4z"/>
			<path class="st0" d="M65.8,91.5c-1.5,0-2.6-0.9-2.6-3v-1c0-2.1,1.1-3,2.6-3c1.6,0,2.6,0.9,2.6,3v1C68.5,90.5,67.4,91.5,65.8,91.5
				z M64.6,88.4c0,1.3,0.4,1.9,1.2,1.9s1.2-0.5,1.2-1.9v-1c0-1.3-0.4-1.9-1.2-1.9s-1.2,0.5-1.2,1.9V88.4z"/>
			<path class="st0" d="M74.9,84.5v6.9h-1.2L71,87.1v4.3h-1.3v-6.9h1.2l2.7,4.3v-4.3H74.9z"/>
		</g>
	</g>
	<g>
		<g>
			<path class="st1" d="M36.6,41.5c7,0,12.7-4.1,12.7-9.2c0-5.1-5.7-9.2-12.7-9.2s-12.7,4.1-12.7,9.2c0,3.2,2.2,6,5.7,7.7
				c0.1,1.4-0.2,3.8-2.8,5.7c0,0,6.3-1.3,7-4L36.6,41.5z"/>
			<path class="st2" d="M11.3,35.4c-0.1-0.9-0.2-1.8-0.2-2.7c0-9.6,5.7-17.8,13.8-21.6"/>
			<path class="st3" d="M47.3,53c-3.6,2.2-7.8,3.4-12.4,3.4c-4.5,0-8.8-1.3-12.4-3.5"/>
			<path class="st4" d="M45.6,11.3c7.8,3.9,13.2,12,13.2,21.3"/>
			<g>
				<g>
					<g>
						<g>
							<path class="st0" d="M14.7,43.7c1.4,0.1,2.5-1.2,2.4-2.6c-0.1-1.3-1-2.3-2.2-2.4c-1.4-0.1-2.5,1.2-2.4,2.6
								C12.5,42.6,13.5,43.6,14.7,43.7z"/>
							<path class="st0" d="M19,51.4c0.5,0,0.9-0.6,0.8-1.2c-0.4-2.5-2.2-4.8-4.2-4.8c-2.1,0-3.8,2.3-4.2,4.8
								c-0.1,0.6,0.3,1.2,0.8,1.2H19z"/>
						</g>
					</g>
				</g>
				<g>
					<g>
						<path class="st5" d="M13.9,44.3c2,0.1,3.6-1.5,3.5-3.5c-0.1-1.7-1.4-3-3.1-3.1c-2-0.1-3.6,1.5-3.5,3.5
							C10.8,42.9,12.2,44.2,13.9,44.3z"/>
						<path class="st5" d="M18.9,51.4c0.7,0,1.2-0.6,1.1-1.3c-0.6-2.9-2.9-5.4-5.7-5.4c-2.8,0-5.1,2.6-5.7,5.4
							c-0.1,0.7,0.4,1.3,1.1,1.3H18.9z"/>
					</g>
				</g>
			</g>
			<g>
				<g>
					<g>
						<g>
							<path class="st6" d="M55.5,43.7c1.4,0.1,2.5-1.2,2.4-2.6c-0.1-1.3-1-2.3-2.2-2.4c-1.4-0.1-2.5,1.2-2.4,2.6
								C53.4,42.6,54.3,43.6,55.5,43.7z"/>
							<path class="st0" d="M59.8,51.4c0.5,0,0.9-0.6,0.8-1.2c-0.4-2.5-2.2-4.8-4.2-4.8c-2.1,0-3.8,2.3-4.2,4.8
								c-0.1,0.6,0.3,1.2,0.8,1.2H59.8z"/>
						</g>
					</g>
				</g>
				<g>
					<g>
						<path class="st7" d="M54.7,44.3c2,0.1,3.6-1.5,3.5-3.5c-0.1-1.7-1.4-3-3.1-3.1c-2-0.1-3.6,1.5-3.5,3.5
							C51.7,42.9,53,44.2,54.7,44.3z"/>
						<path class="st5" d="M59.7,51.4c0.7,0,1.2-0.6,1.1-1.3c-0.6-2.9-2.9-5.4-5.7-5.4c-2.8,0-5.1,2.6-5.7,5.4
							c-0.1,0.7,0.4,1.3,1.1,1.3H59.7z"/>
					</g>
				</g>
			</g>
			<g>
				<g>
					<g>
						<g>
							<path class="st6" d="M35.3,6.6c1.4,0.1,2.5-1.2,2.4-2.6c-0.1-1.3-1-2.3-2.2-2.4c-1.4-0.1-2.5,1.2-2.4,2.6
								C33.2,5.5,34.2,6.5,35.3,6.6z"/>
							<path class="st0" d="M39.7,14.3c0.5,0,0.9-0.6,0.8-1.2c-0.4-2.5-2.2-4.8-4.2-4.8c-2.1,0-3.8,2.3-4.2,4.8
								c-0.1,0.6,0.3,1.2,0.8,1.2H39.7z"/>
						</g>
					</g>
				</g>
				<g>
					<g>
						<path class="st7" d="M34.6,7.2c2,0.1,3.6-1.5,3.5-3.5c-0.1-1.7-1.4-3-3.1-3.1c-2-0.1-3.6,1.5-3.5,3.5
							C31.5,5.7,32.9,7.1,34.6,7.2z"/>
						<path class="st5" d="M39.6,14.3c0.7,0,1.2-0.6,1.1-1.3c-0.6-2.9-2.9-5.4-5.7-5.4c-2.8,0-5.1,2.6-5.7,5.4
							c-0.1,0.7,0.4,1.3,1.1,1.3H39.6z"/>
					</g>
				</g>
			</g>
			<path class="st8" d="M35.3,40.4c7.4,0,13.3-4.5,13.3-10s-6-10-13.3-10c-7.4,0-13.3,4.5-13.3,10c0,3.5,2.4,6.5,5.9,8.4
				c0.1,1.5-0.2,4.1-3,6.2c0,0,6.6-1.4,7.4-4.4L35.3,40.4z"/>
		</g>
		<g>
			<path class="st9" d="M41.2,27.8l-2.7,0l0-2.5c0,0,0-1.1,0-1.3c0-0.2-0.2-0.3-0.2-0.3s-1.3,0-1.5,0c-0.3,0-0.3,0.1-0.3,0.1
				s-1.4,3.2-2,4.2c-0.6,1-1.8,1-1.8,1l0,5.5l1.8,0l1.2,1l5,0c0.3,0,0.6-0.1,0.8-0.3l0.6-0.5c0.3-0.2,0.5-0.6,0.5-1l0-4.5
				c0-0.5-0.2-0.9-0.6-1.1l0,0C41.7,27.8,41.5,27.8,41.2,27.8z"/>
			<path class="st10" d="M40.7,29.3l-2.5,0l0-2c0,0,0-0.8,0-1c0-0.2-0.2-0.3-0.2-0.3s-1.2,0-1.4,0c-0.2,0-0.3,0.1-0.3,0.1
				s-1.3,2.5-1.9,3.3c-0.6,0.8-1.7,0.8-1.7,0.8l0,4.3l1.7,0l1.1,0.8l4.7,0c0.3,0,0.6-0.1,0.8-0.2l0.6-0.4c0.3-0.2,0.4-0.5,0.4-0.8
				l0-3.5c0-0.4-0.2-0.7-0.6-0.9l0,0C41.2,29.4,41,29.3,40.7,29.3z"/>
			<path class="st11" d="M41.2,27.8l-2.7,0l0-2.5c0,0,0-1.1,0-1.3c0-0.2-0.2-0.3-0.2-0.3s-1.3,0-1.5,0c-0.3,0-0.3,0.1-0.3,0.1
				s-1.4,3.2-2,4.2c-0.6,1-1.8,1-1.8,1l0,5.5l1.8,0l1.2,1l5,0c0.3,0,0.6-0.1,0.8-0.3l0.6-0.5c0.3-0.2,0.5-0.6,0.5-1l0-4.5
				c0-0.5-0.2-0.9-0.6-1.1l0,0C41.7,27.8,41.5,27.8,41.2,27.8z"/>
			
				<rect x="26.8" y="28.7" transform="matrix(1.129880e-03 -1 1 1.129880e-03 -1.3665 62.0062)" class="st12" width="7.2" height="6"/>
			
				<rect x="27.8" y="28.5" transform="matrix(1 1.131750e-03 -1.131750e-03 1 3.312668e-02 -3.435118e-02)" class="st9" width="5" height="1.4"/>
		</g>
	</g>
</g>
</svg>
