<?xml version="1.0" encoding="utf-8"?>
<!-- Generator: Adobe Illustrator 24.0.3, SVG Export Plug-In . SVG Version: 6.00 Build 0)  -->
<svg version="1.1" id="レイヤー_1" xmlns="http://www.w3.org/2000/svg" xmlns:xlink="http://www.w3.org/1999/xlink" x="0px"
	 y="0px" viewBox="0 0 79.8 88.8" style="enable-background:new 0 0 79.8 88.8;" xml:space="preserve">
<style type="text/css">
	.st0{fill:#513813;}
	.st1{fill:#7EB9C7;stroke:#3D4451;stroke-width:1.0365;stroke-linejoin:round;stroke-miterlimit:10;}
	.st2{fill:#7CBC31;stroke:#513813;stroke-width:0.8682;stroke-linejoin:round;stroke-miterlimit:10;}
	.st3{fill:#4A9143;stroke:#513813;stroke-width:1.3127;stroke-linecap:round;stroke-linejoin:round;stroke-miterlimit:10;}
	.st4{fill:none;stroke:#513813;stroke-width:3.9991;stroke-linecap:round;stroke-miterlimit:10;}
	.st5{fill:none;stroke:#513813;stroke-width:3.2981;stroke-linecap:round;stroke-miterlimit:10;}
</style>
<g>
	<g>
		<g>
			<path class="st0" d="M0,70.6c1.6-1,4.7-3.8,6.9-6.9c0.2-0.3,0.3-0.4,0.3-0.6c0-0.5-0.4-0.8-0.8-1c0.2,0,0.3-0.1,0.5-0.1
				c0.7,0,1.4,0.4,2,1c0.3,0.3,0.4,0.5,0.4,0.7c0,0.3-0.2,0.4-0.5,0.5c-0.2,0.1-0.5,0.4-0.6,0.5l-1.6,1.7c-0.2,0.2-0.3,0.3-0.4,0.4
				c0.2,0.1,0.4,0.3,0.6,0.4C6.9,67.3,7,67.3,7,67.5c0,0.1,0,0.1-0.1,0.5c-0.1,0.3-0.1,0.9-0.1,1c0,1.2,0,2.4,0.1,3.6
				c0,0.2,0,0.7,0,0.9c0,0.6-0.2,1.1-0.7,1.1c-0.6,0-1-1-1-1.3c0-0.1,0.1-0.8,0.1-0.9c0-0.3,0.1-1.5,0.1-2.9c0-0.1,0-1.3-0.1-1.6
				c0-0.2-0.1-0.2-0.1-0.3C3.7,68.9,2,70,0,70.6L0,70.6z"/>
			<path class="st0" d="M12.6,68.4c0.2,0,0.2,0,1.9-1.8c1.7-1.9,1.9-2,2.4-2c0.7,0,1.1,0.4,2.3,1.7c2,2.2,3.1,2.8,4.3,3.4
				c0.5,0.3,1.2,1.1,1.2,1.8c0,0.3-0.2,0.7-0.6,0.7c-0.7,0-1.9-1-4.5-3.9c-0.3-0.4-1.7-2-2.1-2.3c-0.3-0.2-0.4-0.3-0.5-0.3
				c-0.3,0-0.6,0.2-1.4,1.5c-0.3,0.5-1.3,1.9-1.4,2.2c-0.1,0.2-0.3,0.7-0.3,0.8c-0.1,0.1-0.2,0.1-0.3,0.1c-0.6,0-1.9-1.2-1.9-2.2
				c0-0.3,0.1-0.4,0.1-0.6C12.2,68.3,12.4,68.4,12.6,68.4z M22.9,65.5c0,0.3-0.2,0.6-0.5,0.6s-0.4-0.2-0.8-0.6
				c-0.6-0.8-1.4-1.2-1.7-1.4C22,64.1,22.9,64.9,22.9,65.5z M24.4,64.4c0,0.3-0.2,0.5-0.4,0.5c-0.2,0-0.5-0.1-0.8-0.6
				c-0.6-0.8-1.2-1.2-1.7-1.4C23.2,62.9,24.4,63.5,24.4,64.4z"/>
			<path class="st0" d="M28.5,63.2c0.8,0,3.2,0.3,3.2,1.9c0,0.6-0.5,0.9-0.8,0.9c-0.3,0-0.5-0.2-1.1-0.9c-0.7-0.8-1.5-1.4-2.4-1.8
				C27.7,63.3,28.1,63.2,28.5,63.2z M37.8,64.5c-0.4,1.4-1.9,3.9-4.6,6.2c-0.4,0.3-2.7,2.2-2.8,2.2c-0.4,0.4-0.5,0.5-0.7,0.5
				c-0.6,0-1.9-1.4-1.9-2.4c0-0.3,0.1-0.5,0.1-0.7c0.6,1,1.2,1,1.2,1c0.4,0,2.5-1.4,3.8-2.3C34.8,67.6,36.5,66,37.8,64.5L37.8,64.5z
				"/>
			<path class="st0" d="M48.5,69.3c0,0.4-0.2,0.9-0.8,0.9c-0.2,0-0.3-0.1-0.6-0.4c-1.5-1.7-1.7-1.9-2.1-2.2
				c-0.4-0.3-0.7-0.4-0.9-0.5c0,1.4,0,3.4,0.1,4.8c0,0.2,0.1,1,0.1,1.6c0,0.3-0.1,1.1-0.8,1.1s-1-1.1-1-1.5c0-0.2,0-0.3,0.1-1
				c0.2-1.1,0.2-3.5,0.2-4.7c0-0.6,0-3.6-0.1-4.1c-0.1-0.4-0.5-0.5-1.3-0.7c0.3-0.2,0.6-0.5,1.2-0.5c0.8,0,1.6,0.4,1.8,0.6
				c0.1,0.1,0.2,0.2,0.2,0.3s-0.3,0.7-0.3,0.8c-0.1,0.6-0.2,2.3-0.2,3C46,67,48.5,67.7,48.5,69.3z"/>
			<path class="st0" d="M54.8,67.3v3.9c0,0.6,0.1,1,0.5,1.4c0.6,0.7,1.3,0.9,3.7,0.9c3.8,0,5.7-0.2,6.5-0.3
				c-0.3,0.5-0.4,1.1-0.5,1.6h-6.4c-3.2,0-3.9-0.7-4.5-1.5c-0.2,0.1-1.2,1-1.6,1.3c0,0.2,0,0.5-0.2,0.5c-0.1,0-0.2-0.1-0.3-0.3
				l-0.7-1.4c0.7-0.3,1.6-0.9,2.1-1.3v-3.5h-1.8v-1.4H54.8z M52.4,61.8c1,0.9,1.6,1.5,2.3,2.3c-0.4,0.3-1,0.9-1.1,1.1
				c-0.5-0.7-1.4-1.7-2.2-2.4L52.4,61.8z M60.8,63.8H63v1.1h-2.2v0.7h3.3V70h-3.3v0.7h4.2v1.1h-4.2v1.3h-1.4v-1.3h-3.9v-1.1h3.9V70
				h-3.3v-4.5h3.3v-0.7H57v-1.1h2.4v-0.8h-2.8v1.6h-1.3v-2.7h9.6v2.7h-1.3v-1.6h-2.3c0,0.2-0.2,0.2-0.4,0.3V63.8z M59.4,66.5h-1.9
				v0.8h1.9V66.5z M59.4,68.2h-1.9v0.8h1.9V68.2z M60.8,67.3h1.9v-0.8h-1.9V67.3z M60.8,69.1h1.9v-0.8h-1.9V69.1z"/>
			<path class="st0" d="M72.6,63.9c-0.2-0.5-0.8-1.3-1.3-1.9l1.3-0.7c0.4,0.5,1.1,1.3,1.4,2c-0.8,0.4-0.9,0.5-1.1,0.6h1.9
				c1-1.1,1.5-1.9,1.7-2.4l1.3,0.7c0,0,0.2,0.1,0.2,0.2c0,0.2-0.1,0.2-0.5,0.2c-0.4,0.6-0.6,0.8-1,1.2h3.3v3.4h-1.6v-2.1h-9.9v2.1
				h-1.6v-3.4h2.5c-0.2-0.4-0.8-1.2-1.2-1.6l1.3-0.7c0.3,0.4,1,1.3,1.4,1.8c-0.4,0.2-0.4,0.3-0.8,0.5H72.6z M78.5,70.7v4.5h-1.5
				v-0.5h-7.2v0.5h-1.6v-4.5h3.8c0-0.1,0.5-0.9,0.5-1h-3v-3.7h7.6v3.7h-3c-0.2,0.5-0.4,0.7-0.5,1H78.5z M76.9,73.4v-1.5h-7.2v1.5
				H76.9z M71,67.1v1.4h4.5v-1.4H71z"/>
		</g>
		<g>
			<path class="st0" d="M11.4,85.6l1.9-3.8h1.3v6.9h-1.3v-4.3l-1.5,3H11l-1.5-3v4.2H8.2v-6.9h1.3L11.4,85.6z"/>
			<path class="st0" d="M15.6,88.7l2.4-6.9h1.3l2.4,6.9h-1.5l-0.4-1.3h-2.3l-0.4,1.3H15.6z M17.9,86.2h1.6l-0.8-2.4L17.9,86.2z"/>
			<path class="st0" d="M27.8,81.8v6.9h-1.2l-2.7-4.3v4.3h-1.3v-6.9h1.2l2.7,4.3v-4.3H27.8z"/>
			<path class="st0" d="M28.7,88.7l2.4-6.9h1.3l2.4,6.9h-1.5l-0.4-1.3h-2.3l-0.4,1.3H28.7z M31,86.2h1.6l-0.8-2.4L31,86.2z"/>
			<path class="st0" d="M40.4,85.1v0.6c0,2.1-1,3-2.5,3c-1.5,0-2.6-0.9-2.6-3v-0.9c0-2.2,1.1-3.1,2.6-3.1c1.4,0,2.3,0.8,2.5,2.2
				h-1.3c-0.1-0.6-0.5-1-1.2-1c-0.8,0-1.2,0.5-1.2,1.9v1c0,1.3,0.4,1.9,1.2,1.9c0.8,0,1.1-0.5,1.2-1.3h-1.2v-1.2H40.4z"/>
			<path class="st0" d="M45.9,81.8V83H43v1.5h2.6v1.2H43v1.8h2.9v1.2h-4.3v-6.9H45.9z"/>
			<path class="st0" d="M50.3,85.6l1.9-3.8h1.3v6.9h-1.3v-4.3l-1.5,3h-0.8l-1.5-3v4.2h-1.3v-6.9h1.3L50.3,85.6z"/>
			<path class="st0" d="M59.3,81.8V83h-2.9v1.5H59v1.2h-2.6v1.8h2.9v1.2H55v-6.9H59.3z"/>
			<path class="st0" d="M65.6,81.8v6.9h-1.2l-2.7-4.3v4.3h-1.3v-6.9h1.2l2.7,4.3v-4.3H65.6z"/>
			<path class="st0" d="M71.7,81.8V83h-1.9v5.7h-1.4V83h-1.9v-1.2H71.7z"/>
		</g>
	</g>
	<g>
		<g>
			<g>
				<path class="st1" d="M42,15.8c0.5-0.5,0.9-1,1.3-1.6l2.4,0.3l0.9-3.1l-2.1-1c0-0.7-0.1-1.4-0.2-2.1L46,7l-1.6-2.8L42.3,5
					c-0.5-0.5-1.1-1-1.7-1.4l0.3-2.2l-3.1-0.9l-0.9,2c-0.8,0-1.5,0.1-2.2,0.3L33.3,1l-2.8,1.6l0.8,2.1c-0.5,0.5-1,1.1-1.3,1.7
					l-2.2-0.3l-0.9,3.1l2.1,0.9c0,0.7,0.1,1.4,0.3,2.1l-1.8,1.4l1.6,2.8l2.2-0.8c0.5,0.5,1,0.9,1.6,1.3l-0.3,2.4l3.1,0.9l1-2.2
					c0.7,0,1.4-0.1,2-0.2l1.5,1.9l2.8-1.6L42,15.8z M34.1,13.1c-1.6-1.4-1.8-3.9-0.3-5.5c1.4-1.6,3.9-1.7,5.5-0.3s1.8,3.9,0.3,5.5
					C38.2,14.4,35.8,14.6,34.1,13.1z"/>
				<path class="st2" d="M56.4,11.4c-0.5-0.2-1-0.3-1.6-0.3l-0.6-1.7l-2.4,0.5l0.1,1.8c-0.5,0.2-1,0.6-1.4,0.9l-1.6-0.7l-1.4,2.1
					l1.3,1.2c-0.2,0.5-0.3,1.1-0.3,1.7l-1.6,0.6l0.5,2.4l1.7-0.1c0.3,0.5,0.6,1,1,1.4l-0.7,1.6l2.1,1.3l1.2-1.3
					c0.5,0.2,1.1,0.3,1.7,0.3l0.6,1.6l2.4-0.5l-0.1-1.8c0.5-0.3,1-0.6,1.4-0.9l1.6,0.8l1.4-2.1l-1.4-1.2c0.2-0.5,0.3-1,0.3-1.6
					l1.7-0.6l-0.5-2.4l-1.9,0.1c-0.2-0.5-0.5-0.9-0.9-1.3l0.8-1.7L57.6,10L56.4,11.4z M57.4,17.8c-0.4,1.6-2.1,2.6-3.7,2.2
					c-1.6-0.4-2.6-2.1-2.2-3.7s2.1-2.6,3.7-2.2C56.8,14.5,57.8,16.2,57.4,17.8z"/>
				<path class="st3" d="M52.3,33.8c0.1-0.9,0-1.9-0.2-2.8l2.7-1.8l-1.9-3.9l-3,1c-0.6-0.8-1.4-1.4-2.2-1.9l0.6-3.1l-4.1-1.4
					l-1.4,2.7c-1-0.1-2,0-3,0.2l-1.7-2.5L34,22.1L35,25c-0.8,0.7-1.5,1.4-2,2.3l-3-0.5l-1.4,4.1l2.7,1.4c-0.1,1,0,2,0.2,3L29,37
					l1.9,3.9l3-1c0.7,0.7,1.4,1.4,2.2,1.9l-0.6,3.1l4.1,1.4l1.5-2.9c0.9,0.1,1.9,0,2.8-0.2l1.9,2.7l3.9-1.9l-1-3.1
					c0.7-0.6,1.3-1.3,1.8-2.1l3.3,0.6l1.4-4.1L52.3,33.8z M41.9,38.3c-3,0-5.4-2.4-5.4-5.3c0-2.9,2.4-5.4,5.3-5.4
					c3,0,5.4,2.4,5.4,5.3C47.2,35.8,44.8,38.2,41.9,38.3z"/>
			</g>
		</g>
		<g>
			<g>
				<g>
					<path class="st0" d="M25,26.4c3.1,0.2,5.7-2.3,5.6-5.4c-0.1-2.6-2.3-4.7-5-4.9c-3.1-0.2-5.7,2.3-5.6,5.4
						C20.1,24.2,22.3,26.3,25,26.4z"/>
				</g>
			</g>
			<path class="st0" d="M24,41.9l-4-0.5c-1.3-0.2-2.3-1.3-2.1-2.7l1.5-10.2c0.2-1.3,1.4-2.2,2.8-2.1h0c3.6,0.4,6,3.6,5.6,7l-0.9,6.3
				C26.6,41.2,25.4,42.1,24,41.9z"/>
			<polyline class="st4" points="23.9,40.3 29.3,44.7 30.3,53.8 			"/>
			<polyline class="st4" points="20,39.5 18.4,45.3 13.9,54.3 			"/>
			<polyline class="st5" points="23.9,30.7 30.1,34.8 35,34.3 			"/>
		</g>
		<g>
			<g>
				<g>
					<path class="st0" d="M67.2,29.7c3.1,0.2,5.7-2.3,5.6-5.4c-0.1-2.6-2.3-4.7-5-4.9c-3.1-0.2-5.7,2.3-5.6,5.4
						C62.4,27.5,64.5,29.6,67.2,29.7z"/>
				</g>
			</g>
			<path class="st0" d="M58.5,43l-3.7-1.5c-1.3-0.5-1.8-1.9-1.3-3.1l4.2-9.5c0.5-1.2,2-1.8,3.2-1.3l0,0c3.3,1.4,4.9,5.1,3.4,8.3
				l-2.6,5.8C61.2,42.9,59.7,43.5,58.5,43z"/>
			<polyline class="st4" points="58.8,40.8 64.3,45.8 63.1,55.1 			"/>
			<polyline class="st4" points="54.8,40 54.5,46.3 50.8,55.1 			"/>
			<polyline class="st5" points="59.7,29.7 55.3,30.5 48.3,34.8 			"/>
		</g>
	</g>
</g>
</svg>
