<?xml version="1.0" encoding="utf-8"?>
<!-- Generator: Adobe Illustrator 24.0.3, SVG Export Plug-In . SVG Version: 6.00 Build 0)  -->
<svg version="1.1" id="レイヤー_1" xmlns="http://www.w3.org/2000/svg" xmlns:xlink="http://www.w3.org/1999/xlink" x="0px"
	 y="0px" viewBox="0 0 91.7 89.9" style="enable-background:new 0 0 91.7 89.9;" xml:space="preserve">
<style type="text/css">
	.st0{fill:#513813;}
	.st1{fill:#7EB9C7;}
	.st2{fill:none;stroke:#513813;stroke-width:1.5628;stroke-linejoin:round;stroke-miterlimit:10;}
	.st3{fill:#7CBC31;}
	.st4{fill:none;stroke:#513813;stroke-width:1.8754;stroke-miterlimit:10;}
	.st5{fill:#C7DDEB;stroke:#513813;stroke-width:1.0387;stroke-linecap:round;stroke-linejoin:round;stroke-miterlimit:10;}
	.st6{fill:#F5FAFC;}
	.st7{fill:#6B968B;}
	.st8{fill:none;stroke:#513813;stroke-width:1.7401;stroke-miterlimit:10;}
	.st9{fill:none;stroke:#513813;stroke-width:1.7093;stroke-linecap:round;stroke-miterlimit:10;}
	.st10{fill:none;stroke:#513813;stroke-width:1.2159;stroke-miterlimit:10;}
	.st11{fill:none;stroke:#513813;stroke-width:1.0796;stroke-linecap:round;stroke-miterlimit:10;}
	.st12{fill:none;stroke:#513813;stroke-width:1.3364;stroke-miterlimit:10;}
	.st13{fill:none;stroke:#513813;stroke-width:1.3364;stroke-linecap:round;stroke-miterlimit:10;}
	.st14{fill:none;stroke:#513813;stroke-width:1.0877;stroke-miterlimit:10;}
	.st15{fill:none;stroke:#513813;stroke-width:1.0877;stroke-linecap:round;stroke-miterlimit:10;}
	.st16{fill:none;stroke:#513813;stroke-width:1.8754;stroke-linecap:round;stroke-miterlimit:10;}
</style>
<g>
	<g>
		<g>
			<path class="st0" d="M2.6,67.4h0.9v-0.5h7.5V68H3.7v0.7H2.6V72C3,71.8,3.6,71.6,4,71.3c-0.1,0.4-0.1,1-0.1,1.4
				c-0.6,0.4-2.6,1.3-3.3,1.5c0,0.2,0,0.4-0.2,0.4c-0.1,0-0.2-0.2-0.2-0.2L0,72.9c0.4-0.1,0.8-0.2,1.5-0.5v-3.7H0.3v-1.3h1.2v-3.2
				H0.2v-1.3h3.6v1.3H2.6V67.4z M10.6,72.6c0.1,0.1,0.1,0.1,0.1,0.2c0,0.2-0.2,0.2-0.4,0.2c-0.3,0.4-0.6,0.8-0.7,0.8
				c0.3,0.3,0.9,0.8,1.7,1.3c-0.1,0.1-0.6,0.5-0.9,1.1c-0.5-0.3-2.1-1.6-3.3-3.8C7.1,72.5,7,72.6,7,72.7v3.6H5.8v-2.3
				c-0.5,0.4-1.6,1.3-2.6,1.7c-0.2-0.5-0.4-0.9-0.7-1.3c1.2-0.4,2.7-1.3,3.8-2.5H4.5v-3.2h5.6v3.2H9.7L10.6,72.6z M10.5,62.8v3.4
				H4.2v-3.4H10.5z M6.1,63.9H5.2v1.3h0.8V63.9z M5.6,69.7v1H9v-1H5.6z M6.9,65.2h0.8v-1.3H6.9V65.2z M8.1,71.8
				c0.3,0.5,0.6,0.9,0.7,1.1c0.4-0.5,0.4-0.6,0.8-1.1H8.1z M8.5,65.2h0.9v-1.3H8.5V65.2z"/>
			<path class="st0" d="M12.2,72.7c0.5-0.1,0.8-0.2,1.5-0.5v-5.2h-1.3v-1.3h1.3v-3l1.2,0.1c0.1,0,0.2,0,0.2,0.2
				c0,0.1-0.1,0.2-0.3,0.3v2.4h1.2v1.3h-1.2v4.7c0.7-0.3,1-0.5,1.4-0.8c0,0.3-0.1,0.6-0.1,1c0,0.2,0,0.3,0,0.4
				c-0.6,0.3-1.5,0.9-3.4,1.7c0,0.3-0.1,0.4-0.2,0.4c-0.1,0-0.1-0.1-0.2-0.2L12.2,72.7z M18.6,72.5l0.5,0.2c0.2,0.1,0.3,0.1,0.3,0.2
				c0,0.2-0.2,0.2-0.3,0.2c-0.4,1.2-1,2.5-3.1,3.1c-0.2-0.6-0.4-0.9-0.8-1.3c2.4-0.5,2.7-1.7,2.8-2.4h-1.1v-4.4h5.7v4.4h-1.4V74
				c0,0.5,0.1,0.6,0.4,0.6h0.4c0.5,0,0.6-0.4,0.7-1.6c0.4,0.5,0.9,0.7,1.1,0.7c-0.2,1.8-0.8,2.1-1.4,2.1h-1.2
				c-0.5,0-1.2-0.1-1.2-1.4v-2.1H18.6z M23,63.8V65h-1.2c0.1,0,0.1,0.1,0.1,0.1c0,0.1-0.2,0.2-0.3,0.2c-0.2,0.5-0.2,0.6-0.3,0.9h2.1
				v1.2h-7.1v-1.2h1.6c-0.1-0.4-0.2-0.6-0.4-1l0.7-0.2h-1.8v-1.2h2.5v-1.3l1.3,0.1c0.1,0,0.2,0,0.2,0.2c0,0.1-0.2,0.2-0.3,0.3v0.7
				H23z M18,69.8h3.3v-0.7H18V69.8z M21.3,70.7H18v0.8h3.3V70.7z M18.7,65c0.1,0.4,0.2,0.4,0.4,1l-0.7,0.3h1.8
				c0.2-0.3,0.3-0.9,0.5-1.3H18.7z"/>
			<path class="st0" d="M26.4,75.3c1.5-0.9,2.8-2.8,3.5-3.9c0.6-1.1,1.5-3.1,1.7-5c-0.9,0.1-3.8,0.6-4.5,0.9c-0.1,0-0.5,0.3-0.6,0.3
				c-0.1,0-0.2-0.1-0.4-0.3c-0.2-0.3-0.8-0.9-0.8-1.7c0-0.4,0.1-0.7,0.2-0.8c0.6,1.1,1.2,1.1,1.5,1.1c0.3,0,4.2-0.3,4.7-0.6
				c0.1,0,0.3-0.2,0.4-0.3c0.1-0.1,0.2-0.1,0.2-0.1c0.1,0,0.3,0.3,0.4,0.4c0.1,0.1,0.3,0.4,0.4,0.6c0.3,0.3,0.3,0.5,0.3,0.6
				c0,0.3-0.1,0.3-0.4,0.6c-0.2,0.2-0.2,0.2-0.3,0.6c-0.9,3.2-1.9,4.6-2.6,5.3c-1,1.1-2.5,2.2-3.7,2.4L26.4,75.3z M34.1,65.8
				c-0.6,0-1.2-0.6-1.2-1.4c0-0.8,0.5-1.4,1.2-1.4c0.6,0,1.2,0.6,1.2,1.4C35.3,65.2,34.7,65.8,34.1,65.8z M34.1,63.6
				c-0.3,0-0.6,0.4-0.6,0.8s0.3,0.8,0.6,0.8c0.3,0,0.6-0.4,0.6-0.8S34.4,63.6,34.1,63.6z"/>
			<path class="st0" d="M36.7,65.3c0.4,0,0.6,0.1,1.2,0.5c0.2,0.1,0.3,0.1,0.4,0.1s0.7-0.1,0.8-0.1c0.5,0,2.6-0.2,3-0.3
				c0.6-0.1,0.7-0.2,1-0.5c0.1-0.1,0.2-0.2,0.3-0.2c0.2,0,0.6,0.5,0.8,0.7c0.4,0.5,0.5,0.6,0.5,0.8c0,0.1,0,0.2-0.3,0.4
				c-0.3,0.3-0.3,0.3-0.4,0.8c-0.2,0.8-0.2,1.1-0.4,2.1c-0.1,0.6-0.2,1.2-0.3,1.8c0,0,0,0.1,0,0.2c0,0.1,0,0.1,0.2,0.3
				c0.3,0.3,0.5,0.4,0.5,0.7c0,0.2-0.1,0.5-0.4,0.5c0,0-0.3,0-0.4,0c-0.5,0-1.1-0.1-2-0.1c-1.4,0-2.1,0.1-2.7,0.1
				c-0.1,0.8-0.2,0.9-0.4,0.9c-0.4,0-0.9-1-0.9-1.7c0-0.1,0-0.5,0-0.6c0-1.2-0.1-3.8-0.3-5c-0.1-0.8-0.3-1-0.8-1.3
				C36.2,65.4,36.4,65.3,36.7,65.3z M42.4,70.6c0.2-2,0.3-3.7,0.3-3.8c0-0.3-0.1-0.3-0.3-0.3c-1,0-2.1,0.2-3.2,0.3
				c-0.1,0-0.5,0.1-0.6,0.1c-0.1,0-0.3-0.1-0.4-0.2c0,0-0.1-0.1-0.2-0.1c0,0,0,0,0,0.1c0,0.4,0.2,5.1,0.3,5.5c0.2,0,0.3,0,0.6,0
				c1.2-0.1,2.2-0.2,3.4-0.3C42.3,71.7,42.4,71.2,42.4,70.6z"/>
			<path class="st0" d="M51.2,66.5c0,0.1-0.1,0.3-0.2,0.6c0,0-0.1,0.5-0.2,1.4c0.5-0.1,2.5-0.4,2.9-0.5c0.1,0,0.4-0.1,0.5-0.2
				c0,0,0.1,0,0.1,0c0.1,0,1.3,0.3,1.3,1.1c0,0.1,0,0.5-0.5,0.5c0,0-0.7-0.1-0.7-0.1c-0.6-0.1-1.1-0.1-1.6-0.1c-1,0-1.6,0.1-2.1,0.1
				c-0.1,0.9-0.1,1.4-0.1,2.2c0,1,0.1,1.3,1,1.3c0.8,0,1.1-0.1,1.3-0.2c0.3-0.1,0.4-0.1,0.6-0.1c0.3,0,1.2,0.4,1.2,1
				c0,0.5-0.4,0.6-0.6,0.6c-0.4,0.1-1.3,0.1-1.7,0.1c-1.6,0-2.8-0.1-2.8-2.3c0-0.5,0-2,0-2.4c-0.8,0.2-1.6,0.4-2.3,0.9
				c-0.2,0.1-0.3,0.2-0.4,0.2c-0.4,0-1.2-0.8-1.2-1.9c0-0.1,0-0.3,0.1-0.5c0.3,0.5,0.6,0.8,1.2,0.8c0.3,0,0.7-0.1,0.8-0.1
				c0.3,0,1.6-0.3,1.9-0.3c0-0.8,0-1.3,0-1.9c0-0.5-0.1-0.6-0.2-0.7c-0.2,0.1-0.6,0.2-0.8,0.3c-0.2,0.1-0.3,0.1-0.3,0.1
				c-0.4,0-1-0.9-1-1.6c0-0.1,0-0.2,0-0.3c0.6,0.6,0.8,0.6,1.2,0.6c0.4,0,3.3-0.4,3.8-0.7c0.4-0.2,0.5-0.3,0.6-0.3
				c0.3,0,1.2,0.3,1.2,0.9c0,0.5-0.3,0.5-0.5,0.5c-0.2,0-0.9,0-1,0c-1.2,0-1.8,0.1-2.1,0.2C50.8,65.9,51.2,66.1,51.2,66.5z"/>
			<path class="st0" d="M58.8,68.7c0.8,0,4.7,0,5.1-0.1l0.3-0.1c0.1,0,0.2,0,0.2,0c0.5,0,1.5,0.3,1.5,1.1c0,0.4-0.3,0.6-0.8,0.6
				c-0.2,0-0.5,0-0.6,0c-0.7,0-2.5,0-3.2,0c-0.8,0-2.6,0.1-3.3,0.4c-0.3,0.1-0.3,0.1-0.4,0.1c-0.4,0-1.1-1.2-1.1-1.9
				c0-0.3,0.2-0.8,0.3-1C57.3,68.7,57.5,68.7,58.8,68.7z"/>
			<path class="st0" d="M66.8,67.4c0.4-0.1,0.9-0.2,1.5-0.2c1.5,0,2,0.9,2,1.5c0,0.4-0.2,0.8-0.6,0.8c-0.2,0-0.3-0.1-0.7-0.5
				C68,68,67.5,67.7,66.8,67.4L66.8,67.4z M67.9,63.7c0.3,0,0.6-0.1,1-0.1c1.3,0,2.3,0.7,2.3,1.5c0,0.3-0.1,0.8-0.6,0.8
				c-0.2,0-0.4-0.2-0.5-0.3C69,64.5,68.4,64,67.9,63.7L67.9,63.7z M75.7,66.3c-0.6,2.4-2.6,5.4-5.1,7.6c-0.6,0.5-0.6,0.6-0.9,1
				c0,0-0.1,0.2-0.3,0.2c-0.2,0-0.7-0.5-1-1c-0.2-0.3-0.4-0.7-0.4-1.4c0-0.2,0-0.3,0.1-0.5c0.3,0.5,0.7,0.9,0.9,0.9
				C69.8,73.1,73.9,69,75.7,66.3L75.7,66.3z"/>
			<path class="st0" d="M78.1,71.4c-0.1,0-0.4,0.2-0.5,0.2c-0.1,0-0.2-0.1-0.5-0.5c-0.2-0.3-0.3-0.6-0.3-1c0-0.3,0-0.4,0.1-0.5
				c0.2,0.5,0.5,0.8,0.9,0.8c0.3,0,1.9-0.2,2.2-0.2c0.4,0,0.6,0,1.1-0.1c0-0.9,0-1,0-2c-0.5,0.1-2.9,0.3-3.1,0.5
				c-0.3,0.1-0.4,0.2-0.5,0.2c-0.3,0-0.7-0.8-0.7-1.3c0-0.3,0.1-0.5,0.1-0.7c0.3,0.8,0.7,0.8,1,0.8c0.4,0,2.8-0.1,3.1-0.3
				c0.1,0,0.2-0.1,0.4-0.3c0.1-0.1,0.2-0.2,0.2-0.2c0.1,0,0.1,0,0.4,0.3c0.1,0.1,0.5,0.6,0.6,0.6c0,0,0.1,0.1,0.1,0.2
				c0,0.1,0,0.1-0.3,0.4c-0.1,0.1-0.1,0.1-0.1,0.3c-0.1,1.4-0.1,1.6-0.1,3.5c-0.1,1.8-0.2,2.6-0.6,2.6c-0.4,0-0.5-0.5-0.6-0.8
				c-0.8,0-2.3,0.3-2.6,0.4c-0.1,0-0.5,0.3-0.6,0.3c-0.3,0-0.8-1-0.8-1.6c0-0.3,0-0.4,0.1-0.5c0.1,0.2,0.3,0.8,0.9,0.8
				c0.2,0,0.9-0.1,1.2-0.1c0.5-0.1,1.4-0.1,1.9-0.2C81,72.1,81,72,81,71.1C80.1,71.1,78.5,71.3,78.1,71.4z"/>
			<path class="st0" d="M84.3,64.3c0.7,0,2.5,0.3,2.5,1.9c0,0.6-0.4,0.9-0.6,0.9c-0.2,0-0.4-0.2-0.9-0.9c-0.6-0.8-1.2-1.4-1.9-1.8
				C83.7,64.3,83.9,64.3,84.3,64.3z M91.7,65.5c-0.3,1.4-1.5,3.9-3.7,6.2c-0.3,0.3-2.2,2.2-2.2,2.2c-0.3,0.4-0.4,0.5-0.5,0.5
				c-0.5,0-1.5-1.4-1.5-2.4c0-0.3,0.1-0.5,0.1-0.7c0.5,1.1,0.9,1.1,1,1.1c0.3,0,2-1.4,3-2.3C89.3,68.7,90.7,67,91.7,65.5L91.7,65.5z
				"/>
		</g>
		<g>
			<path class="st0" d="M14.1,87.3v2.4h-1.4v-6.9h2.5c1.6,0,2.6,0.7,2.6,2.2c0,1.5-1,2.3-2.6,2.3H14.1z M14.9,86.2
				c1,0,1.4-0.3,1.4-1.1c0-0.7-0.4-1-1.4-1h-0.9v2.1H14.9z"/>
			<path class="st0" d="M23.7,89.8l-1.2-2.7h-1.1v2.7h-1.4v-6.9h2.5c1.6,0,2.6,0.7,2.6,2.1c0,0.9-0.4,1.5-1.2,1.8l1.4,2.9H23.7z
				 M22.2,85.9c0.8,0,1.3-0.2,1.3-0.9c0-0.7-0.5-0.9-1.3-0.9h-0.9v1.8H22.2z"/>
			<path class="st0" d="M29.8,89.9c-1.5,0-2.6-0.9-2.6-3v-1c0-2.1,1.1-3,2.6-3c1.6,0,2.6,0.9,2.6,3v1C32.4,88.9,31.3,89.9,29.8,89.9
				z M28.5,86.8c0,1.3,0.4,1.9,1.2,1.9s1.2-0.5,1.2-1.9v-1c0-1.3-0.4-1.9-1.2-1.9s-1.2,0.5-1.2,1.9V86.8z"/>
			<path class="st0" d="M38.1,86.6l1.9-3.8h1.3v6.9H40v-4.3l-1.5,3h-0.8l-1.5-3v4.2h-1.3v-6.9h1.3L38.1,86.6z"/>
			<path class="st0" d="M46.4,89.9c-1.5,0-2.6-0.9-2.6-3v-1c0-2.1,1.1-3,2.6-3c1.6,0,2.6,0.9,2.6,3v1C49.1,88.9,48,89.9,46.4,89.9z
				 M45.2,86.8c0,1.3,0.4,1.9,1.2,1.9s1.2-0.5,1.2-1.9v-1c0-1.3-0.4-1.9-1.2-1.9s-1.2,0.5-1.2,1.9V86.8z"/>
			<path class="st0" d="M56.1,82.9v1.2h-1.9v5.7h-1.4v-5.7H51v-1.2H56.1z"/>
			<path class="st0" d="M59.7,89.8h-1.4v-6.9h1.4V89.8z"/>
			<path class="st0" d="M64.8,89.9c-1.5,0-2.6-0.9-2.6-3v-1c0-2.1,1.1-3,2.6-3c1.6,0,2.6,0.9,2.6,3v1C67.5,88.9,66.4,89.9,64.8,89.9
				z M63.6,86.8c0,1.3,0.4,1.9,1.2,1.9s1.2-0.5,1.2-1.9v-1c0-1.3-0.4-1.9-1.2-1.9s-1.2,0.5-1.2,1.9V86.8z"/>
			<path class="st0" d="M75.1,82.9v6.9h-1.2l-2.7-4.3v4.3h-1.3v-6.9h1.2l2.7,4.3v-4.3H75.1z"/>
		</g>
	</g>
	<g>
		<path class="st1" d="M43.9,54.5L20.5,41.1c-2.4-1.4-2.2-5,0.3-6.2l24.2-12c1-0.5,2.1-0.5,3.1-0.1l24,11.1c2.6,1.2,2.6,4.8,0.1,6.3
			L47.4,54.5C46.3,55.1,45,55.1,43.9,54.5z"/>
		<path class="st2" d="M73.7,41.3l-26.3,16c-1.2,0.7-2.6,0.7-3.8,0L17.2,41.2c-1.1-0.7-1.8-2.8-1.8-4.1l0-0.4c0-3.3,1.3-5.7,4.3-7.1
			l26.1-12.7l28.2,13.7c1.6,0.8,2.6,2.4,2.5,4.1l0,1.9C76.4,38.5,75.4,40.3,73.7,41.3z"/>
		<path class="st3" d="M44.3,50.7L22.6,38.1c-2.2-1.3-2.1-4.6,0.3-5.8l22.3-10.9c0.9-0.4,1.9-0.4,2.8,0l22.2,10.5
			c2.4,1.1,2.5,4.5,0.1,5.8l-22.8,13C46.5,51.3,45.3,51.3,44.3,50.7z"/>
		<path class="st4" d="M44.1,49L17.5,33.5c-1.3-0.8-1.2-2.7,0.1-3.3l27.1-13c0.5-0.2,1.1-0.2,1.6,0l27.2,13c1.4,0.7,1.4,2.6,0.1,3.3
			L46,49C45.4,49.3,44.7,49.3,44.1,49z"/>
		<path class="st5" d="M69.5,35c-6.9-1-6.1-5.4-22-3.3s-5.5-9.3-13.3-10.2L31.9,23c6.2,0.9-7.4,15.4,8.5,13.3s14.4,2.2,21.3,3.3"/>
		<g>
			<path class="st6" d="M50.6,12.1c0,3.7-2.4,6.6-4.7,6.6s-5.2-3-5.2-6.8s2.9-11.1,5.2-11.1S50.6,8.4,50.6,12.1z"/>
			<path class="st7" d="M49.7,13.1c0,2.8-1.6,5-3.2,5s-3.6-2.3-3.6-5.1s2-8.4,3.6-8.4S49.7,10.3,49.7,13.1z"/>
			<path class="st8" d="M50.6,12.1c0,3.7-2.4,6.6-4.7,6.6s-5.2-3-5.2-6.8s2.9-11.1,5.2-11.1S50.6,8.4,50.6,12.1z"/>
			<line class="st9" x1="45.9" y1="25.1" x2="45.9" y2="15.2"/>
		</g>
		<g>
			<path class="st6" d="M27.1,24.4c0,2.6-1.7,4.6-3.3,4.6s-3.6-2.1-3.6-4.7s2-7.7,3.6-7.7S27.1,21.8,27.1,24.4z"/>
			<path class="st7" d="M27.1,25c0,2.3-1.3,4-2.5,4c-1.2,0-2.8-1.8-2.8-4.1s1.6-6.7,2.8-6.7C25.8,18.2,27.1,22.8,27.1,25z"/>
			<path class="st10" d="M27.1,24.4c0,2.6-1.7,4.6-3.3,4.6s-3.6-2.1-3.6-4.7s2-7.7,3.6-7.7S27.1,21.8,27.1,24.4z"/>
			<line class="st11" x1="23.7" y1="33.7" x2="23.7" y2="27.4"/>
		</g>
		<g>
			<path class="st6" d="M59.3,18.1c0,2.9-1.8,5.1-3.5,5.1c-1.7,0-3.9-2.4-3.9-5.3s2.2-8.7,3.9-8.7C57.5,9.3,59.3,15.2,59.3,18.1z"/>
			<path class="st3" d="M59.3,18.8c0,2.5-1.4,4.4-2.8,4.4c-1.3,0-3.1-2-3.1-4.6s1.7-7.5,3.1-7.5C57.8,11.2,59.3,16.2,59.3,18.8z"/>
			<path class="st12" d="M59.3,18.1c0,2.9-1.8,5.1-3.5,5.1c-1.7,0-3.9-2.4-3.9-5.3s2.2-8.7,3.9-8.7C57.5,9.3,59.3,15.2,59.3,18.1z"
				/>
			<line class="st13" x1="55.9" y1="28.2" x2="55.9" y2="20.5"/>
		</g>
		<g>
			<path class="st6" d="M47.8,37.3c0,2.4-1.5,4.2-2.9,4.2c-1.4,0-3.2-1.9-3.2-4.3c0-2.4,1.8-7.1,3.2-7.1
				C46.3,30.1,47.8,34.9,47.8,37.3z"/>
			<path class="st3" d="M47,37.8c0,1.7-1,3-1.9,3c-0.9,0-2.1-1.4-2.1-3.1s1.2-5.1,2.1-5.1C46.1,32.6,47,36.1,47,37.8z"/>
			<path class="st14" d="M47.8,37.3c0,2.4-1.5,4.2-2.9,4.2c-1.4,0-3.2-1.9-3.2-4.3c0-2.4,1.8-7.1,3.2-7.1
				C46.3,30.1,47.8,34.9,47.8,37.3z"/>
			<line class="st15" x1="45.1" y1="45.5" x2="45.1" y2="40"/>
		</g>
		<line class="st16" x1="45.2" y1="49.2" x2="45.2" y2="57.7"/>
	</g>
</g>
</svg>
