<?xml version="1.0" encoding="utf-8"?>
<!-- Generator: Adobe Illustrator 24.0.3, SVG Export Plug-In . SVG Version: 6.00 Build 0)  -->
<svg version="1.1" id="レイヤー_1" xmlns="http://www.w3.org/2000/svg" xmlns:xlink="http://www.w3.org/1999/xlink" x="0px"
	 y="0px" viewBox="0 0 86.8 96.5" style="enable-background:new 0 0 86.8 96.5;" xml:space="preserve">
<style type="text/css">
	.st0{fill:#513813;}
	.st1{fill:#6B968B;}
	.st2{fill:#7EC13E;}
	.st3{fill:#4A9143;}
	.st4{fill:none;stroke:#513813;stroke-width:1.6275;stroke-miterlimit:10;}
	.st5{fill:none;stroke:#513813;stroke-width:1.7589;stroke-miterlimit:10;}
	.st6{fill:#C7DDEB;}
	.st7{fill:none;stroke:#513813;stroke-width:1.5745;stroke-miterlimit:10;}
	.st8{fill:none;stroke:#513813;stroke-width:1.7016;stroke-miterlimit:10;}
	.st9{fill:#FDC345;stroke:#513813;stroke-width:0.8847;stroke-linecap:round;stroke-linejoin:round;stroke-miterlimit:10;}
	.st10{fill:none;stroke:#513813;stroke-width:1.1777;stroke-miterlimit:10;}
	.st11{fill:none;stroke:#513813;stroke-width:1.4289;stroke-miterlimit:10;}
</style>
<g>
	<g>
		<g>
			<path class="st0" d="M11.8,76.4c0,0.4-0.3,0.5-0.5,0.5c-0.4,0-2.2-0.1-2.5-0.1c-1.5,0-2.7,0.2-3.8,0.5c-0.5,0.1-0.8,0.2-0.9,0.2
				c-0.6,0-1.5-1.2-1.5-1.9c0-0.3,0.1-0.6,0.1-0.7c0.4,0.5,1,1.1,1.9,1.1c0.7,0,4.1-0.2,5.1-0.4c0.5-3,0.6-4,0.6-4.8
				c0-0.2-0.1-0.3-0.3-0.3c-1.5,0-2.2,0.1-4.7,0.6c-0.4,0.1-0.4,0.1-0.8,0.2c0,0-0.1,0-0.3,0c-0.4,0-0.7-0.3-1-0.6
				c-0.5-0.7-0.6-1.1-0.6-1.3s0-0.4,0.1-0.6c0.6,0.8,1.3,1,2,1c1.6,0,5.3-0.3,5.6-0.5c0.1-0.1,0.2-0.1,0.6-0.4c0,0,0.1-0.1,0.2-0.1
				c0.2,0,0.7,0.4,0.8,0.6c0.4,0.3,0.6,0.6,0.6,0.8c0,0.2-0.1,0.3-0.3,0.5c-0.3,0.2-0.4,0.3-0.6,1.4c-0.1,0.5-0.5,2.8-0.6,3.3
				C11.5,75.7,11.8,76.1,11.8,76.4z"/>
			<path class="st0" d="M16.8,68.1c0.8,0,3.2,0.3,3.2,1.9c0,0.6-0.5,0.9-0.8,0.9c-0.3,0-0.5-0.2-1.1-0.9c-0.7-0.8-1.5-1.4-2.4-1.8
				C16,68.1,16.3,68.1,16.8,68.1z M26,69.3c-0.4,1.4-1.9,3.9-4.6,6.2c-0.4,0.3-2.7,2.2-2.8,2.2c-0.4,0.4-0.5,0.5-0.7,0.5
				c-0.6,0-1.9-1.4-1.9-2.4c0-0.3,0.1-0.5,0.1-0.7c0.6,1,1.2,1,1.2,1c0.4,0,2.5-1.4,3.8-2.3C23.1,72.5,24.8,70.8,26,69.3L26,69.3z"
				/>
			<path class="st0" d="M33.4,79.6c1.5-1.5,2.3-3.7,2.4-5.3c0-0.4,0.1-2.3,0.1-2.6c-1.1,0-2,0.2-2.8,0.3c0,0.4,0,2.4,0,2.9
				c0,0.7,0,1.1-0.5,1.1c-0.7,0-0.9-0.9-0.9-1.2c0-0.2,0.1-1,0.1-1.1c0-0.6,0-0.9,0-1.3c-0.3,0.1-1.4,0.3-1.8,0.5
				c-0.3,0.2-0.4,0.2-0.5,0.2c-0.5,0-1.2-0.9-1.2-1.7c0-0.1,0-0.6,0.2-0.9c0.4,0.6,0.6,1,1.4,1c0.3,0,1.7-0.2,2-0.2
				c0-2.6-0.1-2.6-1.4-2.9c0.2-0.2,0.6-0.5,1.1-0.5c0.4,0,1.1,0.2,1.6,0.6c0.1,0.1,0.2,0.2,0.2,0.4c0,0.1-0.2,0.7-0.2,0.8
				c0,0.3-0.1,0.9-0.1,1.5c1.4-0.2,1.7-0.2,2.8-0.3c0-1,0-1.5,0-1.6c0-1.1-0.1-1.5-1.4-1.7c0.4-0.3,0.7-0.5,1.2-0.5
				c0.3,0,1.9,0.2,1.9,0.9c0,0.1-0.2,0.7-0.2,0.8c0,0.1-0.1,0.7-0.2,1.9c0.4,0,1.1,0,1.5-0.1c0.1,0,0.6-0.2,0.7-0.2
				c0.3,0,1,0.3,1.5,0.6c0.2,0.1,0.2,0.3,0.2,0.5c0,0.6-0.3,0.6-0.6,0.6c-0.2,0-2-0.3-2.4-0.4c-0.4,0-0.7-0.1-0.9-0.1
				c-0.1,3-0.1,4.1-1.3,5.8C35.3,78.4,34.6,79,33.4,79.6L33.4,79.6z"/>
			<path class="st0" d="M42,78.6c1-1,1.8-2.2,2.2-3.5c0.6-1.7,0.7-3.5,0.7-4.1c0-0.9-0.3-1-1.2-1.3c0.6-0.3,0.9-0.4,1.2-0.4
				c0.6,0,1.4,0.5,1.6,0.7c0.1,0.1,0.1,0.2,0.1,0.3c0,0.1-0.2,0.6-0.2,0.7c-0.1,0.2-0.2,1.3-0.2,1.6c-0.3,1.9-0.7,3.3-2.1,4.7
				C43.1,78.2,42.4,78.6,42,78.6L42,78.6z M54.6,71.4c-0.6,1.6-1.8,3.3-3.1,4.5c-0.5,0.4-0.6,0.5-2.1,1.7c-0.1,0.1-0.6,0.5-0.8,0.6
				c0,0-0.1,0.1-0.2,0.1c-0.4,0-1.1-1.3-1.1-1.7c0-0.1,0.2-0.6,0.2-0.7c0.2-0.6,0.2-3.3,0.2-3.7c0-0.4,0-2.5-0.1-3
				c-0.1-0.5-0.8-0.6-1.2-0.7c0.2-0.1,0.6-0.4,1-0.4c0.5,0,2,0.5,2,1.1c0,0.2-0.2,0.8-0.3,0.9c-0.2,0.6-0.3,4.7-0.3,5.6
				c0,0.1,0,0.2,0.1,0.2c0.6,0,3.6-2.1,5.5-4.5L54.6,71.4z"/>
			<path class="st0" d="M70.3,72c0.1,0,0.2,0.1,0.2,0.2c0,0.1-0.1,0.2-0.5,0.2c-0.8,1-2,2.2-2.5,2.5c0.3,0.5,1.2,2.3,3.3,3.9
				c-0.5,0.5-0.7,0.7-1.1,1.2c-1.6-1.1-2.7-2.9-3.1-3.6c-0.9-1.7-1.3-3.4-1.5-4.8c-0.4,0.9-0.8,1.4-1.1,1.9v4.4
				c0.4-0.1,1.8-0.5,2.4-0.7c-0.1,0.2-0.2,1-0.2,1.5c-1.1,0.4-4.2,1.1-5,1.3c0,0.2-0.1,0.4-0.3,0.4c-0.2,0-0.2-0.2-0.3-0.3l-0.4-1.3
				c0.9-0.2,1.7-0.4,2-0.4v-2.9c-0.9,0.8-1.3,1.2-1.6,1.4c-0.5-0.6-0.7-0.9-1.1-1.1v4.5h-1.5v-7.7c-0.5,0.8-0.7,1.1-0.9,1.3
				c-0.5-0.7-0.8-0.9-1.2-1c0.8-1,2.3-2.9,3.2-6.4l1.5,0.5c0.1,0,0.3,0.1,0.3,0.2c0,0.2-0.2,0.2-0.5,0.2c-0.5,1.3-0.7,1.9-1.1,2.7
				l0.3,0c0.1,0,0.3,0,0.3,0.2c0,0.2-0.2,0.3-0.4,0.3v5.1c0.8-0.5,3.2-2.1,4.3-5h-3.5v-1.5h4v-2.7l1.8,0.1c0.1,0,0.3,0,0.3,0.2
				c0,0.1-0.2,0.2-0.4,0.3v2.1h4.2v1.5h-3.9c0.1,1.2,0.3,2.2,0.6,2.9c0.1-0.1,1.2-1,2-2.3L70.3,72z"/>
			<path class="st0" d="M76.1,80.1h-1.3v-3.9c-0.5,0.8-1.1,1.8-2.1,2.6c-0.3-0.4-0.6-0.6-1.1-1c1.2-0.9,2.3-2,3-3.4h-2.2V70h2.3
				v-1.3h-2.7v-1.2h2.7v-1.3l1.3,0.1c0.2,0,0.4,0,0.4,0.2s-0.2,0.2-0.4,0.3v0.7h2.5v-0.7h7.3V68H83c-0.2,0.5-0.4,0.8-0.6,1.2h3v7.6
				H79v-7.6h1.9c0.1-0.2,0.4-0.8,0.6-1.2h-2.8v0.7h-2.6V70h2.4v4.5h-2.2c0.3,0.4,1,1.4,2.2,2.3c-0.3,0.3-0.6,0.8-0.8,1
				c-0.2-0.2-0.8-0.8-1.5-1.8V80.1z M74.8,73.3v-2.1h-1.1v2.1H74.8z M76.1,71.2v2.1h1.1v-2.1H76.1z M81.7,77.8
				c0.1,0,0.2,0.2,0.2,0.2c0,0.1-0.1,0.1-0.2,0.1c-0.1,0-0.1,0-0.3-0.1c-0.7,0.7-2,1.6-3,2c-0.3-0.4-0.6-0.6-1.2-1
				c0.9-0.4,2.2-1,3.4-2.2L81.7,77.8z M84.1,71.4v-1h-3.6v1H84.1z M80.5,72.5v1h3.6v-1H80.5z M80.5,74.6v1.1h3.6v-1.1H80.5z
				 M83.5,76.9c0.8,1,1.7,1.7,2.8,2.2c-0.3,0.2-0.5,0.4-1,1.1c-1.2-0.8-1.9-1.4-2.8-2.5L83.5,76.9z"/>
		</g>
		<g>
			<path class="st0" d="M13,88.8c-0.1-0.7-0.5-1-1.2-1c-0.8,0-1.2,0.5-1.2,1.9v1c0,1.3,0.4,1.9,1.2,1.9c0.7,0,1-0.4,1.2-1h1.3
				c-0.2,1.5-1.1,2.2-2.5,2.2c-1.5,0-2.6-0.9-2.6-3v-1c0-2.1,1.1-3,2.6-3c1.4,0,2.3,0.7,2.5,2.2H13z"/>
			<path class="st0" d="M19.1,93.7c-1.5,0-2.6-0.9-2.6-3v-1c0-2.1,1.1-3,2.6-3c1.6,0,2.6,0.9,2.6,3v1C21.8,92.7,20.7,93.7,19.1,93.7
				z M17.9,90.6c0,1.3,0.4,1.9,1.2,1.9s1.2-0.5,1.2-1.9v-1c0-1.3-0.4-1.9-1.2-1.9s-1.2,0.5-1.2,1.9V90.6z"/>
			<path class="st0" d="M29.4,86.7v6.9h-1.2l-2.7-4.3v4.3h-1.3v-6.9h1.2L28,91v-4.3H29.4z"/>
			<path class="st0" d="M35.6,88.5c-0.3-0.5-0.7-0.7-1.4-0.7c-0.6,0-1,0.3-1,0.8c0,0.5,0.4,0.8,1.4,1c1.4,0.4,2.1,0.9,2.1,2.1
				c0,1.1-0.8,2-2.4,2c-1.2,0-2-0.3-2.7-1.1l1.1-0.7c0.4,0.5,0.8,0.7,1.5,0.7c0.8,0,1.1-0.4,1.1-0.8c0-0.5-0.3-0.8-1.4-1
				c-1.4-0.4-2-1-2-2.1c0-1.1,0.7-1.9,2.4-1.9c1.1,0,1.9,0.4,2.4,1.1L35.6,88.5z"/>
			<path class="st0" d="M44.2,86.7v4.1c0,2-1.1,2.9-2.6,2.9S39,92.8,39,90.8v-4.1h1.4v4.1c0,1.2,0.4,1.7,1.2,1.7s1.2-0.5,1.2-1.7
				v-4.1H44.2z"/>
			<path class="st0" d="M48.2,92.4h2.9v1.2h-4.3v-6.9h1.4V92.4z"/>
			<path class="st0" d="M57.2,86.7v1.2h-1.9v5.7h-1.4v-5.7H52v-1.2H57.2z"/>
			<path class="st0" d="M60.8,93.6h-1.4v-6.9h1.4V93.6z"/>
			<path class="st0" d="M68.7,86.7v6.9h-1.2l-2.7-4.3v4.3h-1.3v-6.9h1.2l2.7,4.3v-4.3H68.7z"/>
			<path class="st0" d="M76.3,90v0.6c0,2.1-1,3-2.5,3c-1.5,0-2.6-0.9-2.6-3v-0.9c0-2.2,1.1-3.1,2.6-3.1c1.4,0,2.3,0.8,2.5,2.2h-1.3
				c-0.1-0.6-0.5-1-1.2-1c-0.8,0-1.2,0.5-1.2,1.9v1c0,1.3,0.4,1.9,1.2,1.9c0.8,0,1.1-0.5,1.2-1.3h-1.2V90H76.3z"/>
		</g>
	</g>
	<g>
		<g>
			<path class="st1" d="M39.1,3.2h18.6c1.5,0,2.8,1.7,2.8,3.7v9.6c0,2.1-1.3,3.7-2.8,3.7h-1.6h-0.6l0.1,5.7l-4.2-5.7H39.1
				c-1.5,0-2.8-1.7-2.8-3.7V7C36.3,4.9,37.6,3.2,39.1,3.2z"/>
			<path class="st2" d="M48.2,6.5H28.1c-1.7,0-3,1.3-3,2.9v7.4c0,1.6,1.4,2.9,3,2.9h1.8h0.6l-0.5,5.6l4.9-5.6h13.3
				c1.7,0,3-1.3,3-2.9V9.4C51.2,7.8,49.9,6.5,48.2,6.5z"/>
			<path class="st3" d="M47.8,5h-13V14c0,2.7,1.5,4.9,3.3,4.9h11.1c1.1-0.5,1.8-1.6,1.8-2.8v-8C51,6.4,49.6,5,47.8,5z"/>
			<g>
				<g>
					<g>
						<path class="st0" d="M30.5,42.7c3.4,0.2,6.2-2.7,6-6.3c-0.1-3-2.5-5.5-5.4-5.7c-3.4-0.2-6.2,2.7-6,6.3
							C25.3,40.1,27.6,42.6,30.5,42.7z"/>
						<path class="st0" d="M39.3,57c1.2,0,2.1-1.2,1.8-2.5c-1-5.5-5-10.4-9.9-10.4c-4.8,0-8.9,4.9-9.9,10.4
							c-0.2,1.3,0.7,2.5,1.8,2.5L39.3,57z"/>
					</g>
				</g>
			</g>
			<g>
				<g>
					<path class="st4" d="M29.2,42.7c3.7,0.2,6.8-2.9,6.6-6.6c-0.2-3.2-2.8-5.8-6-6c-3.7-0.2-6.8,2.9-6.6,6.6
						C23.4,39.9,26,42.5,29.2,42.7z"/>
					<path class="st4" d="M38.8,56.3c1.3,0,2.3-1.2,2-2.5c-1.1-5.5-5.5-10.4-10.9-10.4c-5.3,0-9.8,4.9-10.9,10.4
						c-0.3,1.3,0.7,2.5,2,2.5L38.8,56.3z"/>
				</g>
			</g>
			<g>
				<g>
					<g>
						<path class="st5" d="M29.2,42.7c3.7,0.2,6.8-2.9,6.6-6.6c-0.2-3.2-2.8-5.8-6-6c-3.7-0.2-6.8,2.9-6.6,6.6
							C23.4,39.9,26,42.5,29.2,42.7z"/>
						<path class="st5" d="M38.8,56.3c1.3,0,2.3-1.2,2-2.5c-1.1-5.5-5.5-10.4-10.9-10.4c-5.3,0-9.8,4.9-10.9,10.4
							c-0.3,1.3,0.7,2.5,2,2.5L38.8,56.3z"/>
					</g>
				</g>
			</g>
			<g>
				<g>
					<g>
						<path class="st6" d="M60.4,44.5c3.6,0.2,6.6-2.8,6.4-6.4c-0.2-3.1-2.7-5.6-5.8-5.8c-3.6-0.2-6.6,2.8-6.4,6.4
							C54.7,41.9,57.3,44.4,60.4,44.5z"/>
						<path class="st6" d="M69.6,57.7c1.3,0,2.2-1.2,2-2.4c-1.1-5.3-5.4-10-10.5-10c-5.2,0-9.5,4.7-10.6,10c-0.2,1.2,0.7,2.4,2,2.4
							L69.6,57.7z"/>
					</g>
				</g>
			</g>
			<g>
				<g>
					<path class="st7" d="M57.7,43c3.6,0.2,6.6-2.8,6.4-6.4c-0.2-3.1-2.7-5.6-5.8-5.8c-3.6-0.2-6.6,2.8-6.4,6.4
						C52,40.3,54.6,42.8,57.7,43z"/>
					<path class="st7" d="M66.9,56.2c1.3,0,2.2-1.2,2-2.4c-1.1-5.3-5.4-10-10.5-10c-5.2,0-9.5,4.7-10.6,10c-0.3,1.2,0.7,2.4,2,2.4
						L66.9,56.2z"/>
				</g>
			</g>
			<g>
				<g>
					<g>
						<path class="st8" d="M57.7,43c3.6,0.2,6.6-2.8,6.4-6.4c-0.2-3.1-2.7-5.6-5.8-5.8c-3.6-0.2-6.6,2.8-6.4,6.4
							C52,40.3,54.6,42.8,57.7,43z"/>
						<path class="st8" d="M66.9,56.2c1.3,0,2.2-1.2,2-2.4c-1.1-5.3-5.4-10-10.5-10c-5.2,0-9.5,4.7-10.6,10c-0.3,1.2,0.7,2.4,2,2.4
							L66.9,56.2z"/>
					</g>
				</g>
			</g>
			<path class="st9" d="M47.2,12.9c0.1-0.4,0.1-0.7,0.1-1.1l1.2-0.5L48,9.6l-1.2,0.2c-0.2-0.3-0.4-0.6-0.7-0.9l0.4-1.2l-1.5-0.8
				l-0.7,1c-0.4-0.1-0.8-0.2-1.2-0.1l-0.5-1.1L41,7l0.2,1.2c-0.4,0.2-0.7,0.5-0.9,0.7l-1.1-0.4L38.3,10l0.9,0.7
				c-0.1,0.4-0.1,0.8-0.1,1.2L38,12.4l0.5,1.6l1.2-0.2c0.2,0.3,0.4,0.6,0.7,0.9L40,16l1.5,0.8l0.8-1c0.4,0.1,0.7,0.1,1.1,0.1
				l0.5,1.2l1.6-0.5l-0.2-1.3c0.3-0.2,0.6-0.4,0.9-0.7l1.2,0.5l0.8-1.5L47.2,12.9z M42.9,13.8c-1.1-0.2-1.9-1.3-1.7-2.4
				c0.2-1.1,1.3-1.9,2.4-1.7c1.1,0.2,1.9,1.3,1.7,2.4C45.1,13.3,44,14,42.9,13.8z"/>
			<path class="st10" d="M47.9,4.4H26.1c-1.8,0-3.3,1.5-3.3,3.3v8.4c0,1.8,1.5,3.3,3.3,3.3H28h0.7L28.2,26l5.2-6.6h14.5
				c1.8,0,3.3-1.5,3.3-3.3V7.7C51.2,5.9,49.7,4.4,47.9,4.4z"/>
			<path class="st11" d="M38,0.7H60c1.8,0,3.3,1.8,3.3,4.1v10.5c0,2.2-1.5,4.1-3.3,4.1h-1.9h-0.7l0.6,6.6l-5.5-6.6H38
				c-1.8,0-3.3-1.8-3.3-4.1V4.8C34.6,2.5,36.1,0.7,38,0.7z"/>
		</g>
		<polygon class="st2" points="29,55.6 30.6,48.5 29.1,45.4 33.4,45.4 31.9,48.5 33.7,55.6 		"/>
	</g>
</g>
</svg>
