<?xml version="1.0" encoding="utf-8"?>
<!-- Generator: Adobe Illustrator 24.0.3, SVG Export Plug-In . SVG Version: 6.00 Build 0)  -->
<svg version="1.1" id="レイヤー_1" xmlns="http://www.w3.org/2000/svg" xmlns:xlink="http://www.w3.org/1999/xlink" x="0px"
	 y="0px" viewBox="0 0 85.4 107.1" style="enable-background:new 0 0 85.4 107.1;" xml:space="preserve">
<style type="text/css">
	.st0{fill:#513813;}
	.st1{fill:#6B968B;}
	.st2{fill:#C7DDEB;}
	.st3{fill:none;stroke:#3D4451;stroke-width:1.6891;stroke-miterlimit:10;}
	.st4{fill:none;stroke:#3D4451;stroke-width:1.6891;stroke-linejoin:round;stroke-miterlimit:10;}
	.st5{fill:none;stroke:#3D4451;stroke-width:1.4747;stroke-miterlimit:10;}
	.st6{fill:none;stroke:#3D4451;stroke-width:0.8848;stroke-linejoin:round;stroke-miterlimit:10;}
	.st7{fill:#6B968B;stroke:#3D4451;stroke-width:0.8848;stroke-miterlimit:10;}
	.st8{fill:#7EB9C7;stroke:#3D4451;stroke-width:0.8848;stroke-miterlimit:10;}
	.st9{fill:#7EB9C7;stroke:#3D4451;stroke-width:1.2167;stroke-miterlimit:10;}
	.st10{fill:#7EB9C7;stroke:#3D4451;stroke-width:1.0323;stroke-miterlimit:10;}
	.st11{fill:#6B968B;stroke:#3D4451;stroke-width:0.7605;stroke-miterlimit:10;}
	.st12{fill:#7EB9C7;stroke:#3D4451;stroke-width:0.7734;stroke-miterlimit:10;}
	.st13{fill:#6B968B;stroke:#3D4451;stroke-width:0.8683;stroke-miterlimit:10;}
	.st14{fill:none;stroke:#3D4451;stroke-width:1.3898;stroke-miterlimit:10;}
	.st15{fill:#7CBC31;}
	.st16{fill:none;stroke:#3D4451;stroke-width:1.0866;stroke-miterlimit:10;}
	.st17{fill:none;stroke:#3D4451;stroke-width:1.0613;stroke-miterlimit:10;}
</style>
<g>
	<g>
		<g>
			<g>
				<path class="st0" d="M13.4,89.8v0.8h-1.5V77.4h12.6v13.1h-1.5v-0.8H13.4z M22.9,88.4v-9.6h-9.5v9.6H22.9z M19.2,79.3l1.5,0.1
					c0.1,0,0.3,0,0.3,0.2c0,0.2-0.2,0.2-0.3,0.2V81h1.7v1.3h-1.7V86c0,1.6-0.4,1.9-2.5,2c0-0.5-0.2-1-0.5-1.5c0.2,0,0.3,0,0.6,0
					c0.9,0,0.9-0.1,0.9-1v-3.1H14V81h5.2V79.3z M15.9,83c0.8,0.7,1.8,2,2,2.3c-0.4,0.3-1,0.8-1.2,0.9c-0.4-0.8-1.4-2-1.9-2.4
					L15.9,83z"/>
				<path class="st0" d="M30.7,81.3v-1.4h4v-3.1l1.4,0.1c0.1,0,0.3,0.1,0.3,0.2c0,0.1-0.2,0.2-0.3,0.3v2.5h4.1v1.4h-3.7
					c0.6,1.2,1.8,3.4,4.4,5.6c-0.3,0.2-0.8,0.7-1.1,1.1c-1.3-1.1-2.8-3-3.7-5v3.6h1.9v1.5h-1.9v2.5h-1.4v-2.5h-1.9v-1.5h1.9v-3.7
					c-1.3,2.7-3,4.4-3.7,5.1c-0.5-0.5-0.8-0.8-1.2-0.9v3.5h-1.5V83c-0.6,0.8-0.9,1.1-1.1,1.4c-0.2-0.4-0.7-0.9-1.1-1.1
					c1.5-1.6,2.8-3.6,3.7-6.5l1.5,0.5c0.1,0,0.3,0.2,0.3,0.3c0,0.1-0.2,0.2-0.4,0.2C31,77.9,31,78,30.4,79.4
					c-0.1,0.3-0.3,0.7-0.6,1.3c0.3,0.1,0.5,0.1,0.5,0.3c0,0.2-0.2,0.2-0.4,0.3V87c2.8-2.5,4.1-5.1,4.4-5.7H30.7z"/>
				<path class="st0" d="M51.5,83.9v-1.3H52v-4h-0.6v-1.3h4.6v1.3h-0.8c0,1.5-0.1,3.1-0.3,4h1.1v1.3h-1.4c-0.1,0.3-0.1,0.5-0.2,0.8
					c0.3,0,0.5,0.1,0.5,0.2s-0.2,0.2-0.4,0.3v3.4c0,0.2,0,0.3,0.3,0.3c0.2,0,0.3,0,0.4-0.5c0.1-0.3,0.1-0.8,0.2-1.2
					c0.3,0.3,0.8,0.6,1.1,0.7c-0.3,1.4-0.4,2.3-1.5,2.3h-0.5c-1,0-1-0.5-1-1.2v-2c-1.4,2.3-2.5,3.2-3,3.7c-0.4-0.4-0.7-0.6-1.2-1
					c0.4-0.3,1.3-0.9,2.4-2.3c-0.7,0.4-0.9,0.6-1,0.7c-0.2-0.5-0.2-0.7-0.3-0.9c-0.4,0.3-1.7,1.3-2.8,2c-0.1,0.3-0.1,0.4-0.2,0.4
					c-0.1,0-0.2,0-0.2-0.3L46.5,88c0.2-0.1,0.5-0.2,0.9-0.4v-2.7c-0.4,0.4-0.4,0.4-0.9,1c-0.5-1-0.6-1.5-0.9-2.1v6.9h-1.3v-5.8
					c-0.2,0.9-0.5,1.8-1.2,3.3c-0.6-0.6-1-0.8-1.2-0.9c0.8-1.3,1.8-3.1,2.4-5.9h-1.6v-1.3h1.6v-3.1l1.3,0.1c0.1,0,0.3,0,0.3,0.2
					c0,0.1-0.1,0.2-0.3,0.3v2.5h1.3v1.3h-1.3v0.2c0.2,0.4,0.7,1.8,1.8,3.3v-7.3H51v6.3h-2.4v3.4c0.2-0.1,0.5-0.3,1.3-0.8
					c-0.3-0.7-0.4-0.8-0.5-1.1l1.1-0.6c0.3,0.6,1,2.2,1.3,2.9c0.4-0.6,1.2-1.7,1.7-3.3H51.5z M49.9,79.8v-1.3h-1.2v1.3H49.9z
					 M48.7,81v1.4h1.2V81H48.7z M53.2,78.6v4h0.6c0.1-0.8,0.3-2.5,0.3-4H53.2z"/>
				<path class="st0" d="M61.1,88.1c-0.9-0.5-1.2-0.6-1.5-0.6c0.6-0.4,1.2-1,1.8-1.6h-3.7v-1.3h4.8c0.3-0.3,0.4-0.6,0.8-1.1h-4.2
					v-3.9h3.2v-0.9h-4.5v-1.2h13.7v1.2H67v0.9h3.2v3.9h-4.7c0.1,0.2-0.4,0.3-0.5,0.3c-0.2,0.3-0.3,0.4-0.6,0.8h7v1.3h-3
					c-0.5,0.8-0.9,1.2-1.7,1.9c1.4,0.5,2.5,0.9,4.1,1.7c-0.1,0.1-0.7,0.7-1,1.3c-1.9-1.2-3.5-1.7-4.4-2c-0.9,0.5-2.6,1.5-6.6,1.9
					c-0.1-0.4-0.3-1-0.8-1.4c3.4,0,5-0.7,5.7-1c-1.2-0.3-1.4-0.3-2.1-0.5L61.1,88.1z M62.3,80.7h-1.7v1.6h1.7V80.7z M63.3,85.8
					c-0.4,0.5-0.5,0.6-0.9,0.9c1.3,0.2,1.5,0.3,2.7,0.6c0.4-0.3,1-0.8,1.5-1.5H63.3z M65.5,78.6h-1.7v0.9h1.7V78.6z M63.7,82.3h1.7
					v-1.6h-1.7V82.3z M67,82.3h1.7v-1.6H67V82.3z"/>
			</g>
			<g>
				<path class="st0" d="M20.7,104.2c-1.5,0-2.6-0.9-2.6-3v-1c0-2.1,1.1-3,2.6-3c1.6,0,2.6,0.9,2.6,3v1
					C23.3,103.3,22.2,104.2,20.7,104.2z M19.4,101.2c0,1.3,0.4,1.9,1.2,1.9s1.2-0.5,1.2-1.9v-1c0-1.3-0.4-1.9-1.2-1.9
					s-1.2,0.5-1.2,1.9V101.2z"/>
				<path class="st0" d="M25.3,97.3l1.5,4.6l1.5-4.6h1.5l-2.4,6.9h-1.3l-2.4-6.9H25.3z"/>
				<path class="st0" d="M35.1,97.3v1.2h-2.9v1.5h2.6v1.2h-2.6v1.8h2.9v1.2h-4.3v-6.9H35.1z"/>
				<path class="st0" d="M40,104.2l-1.2-2.7h-1.1v2.7h-1.4v-6.9h2.5c1.6,0,2.6,0.7,2.6,2.1c0,0.9-0.4,1.5-1.2,1.8l1.4,2.9H40z
					 M38.6,100.3c0.8,0,1.3-0.2,1.3-0.9c0-0.7-0.5-0.9-1.3-0.9h-0.9v1.8H38.6z"/>
				<path class="st0" d="M43.3,97.3l1.5,4.6l1.5-4.6h1.5l-2.4,6.9h-1.3l-2.4-6.9H43.3z"/>
				<path class="st0" d="M50.2,104.2h-1.4v-6.9h1.4V104.2z"/>
				<path class="st0" d="M56,97.3v1.2h-2.9v1.5h2.6v1.2h-2.6v1.8H56v1.2h-4.3v-6.9H56z"/>
				<path class="st0" d="M59.6,104.2h-1.3l-1.6-6.9h1.5l0.9,4.5l1.3-4.5h1.3l1.3,4.6l0.9-4.6h1.5l-1.6,6.9h-1.3l-1.5-4.7L59.6,104.2
					z"/>
			</g>
		</g>
	</g>
	<g>
		<path class="st1" d="M17.1,60.2c0,2.5-1.5,4.5-2.9,4.5s-3.3-2.1-3.3-4.6s1.8-7.6,3.3-7.6S17.1,57.7,17.1,60.2z"/>
		<polyline class="st2" points="50,0.8 58.8,6.9 58.8,34.3 64.3,39.5 64.3,69.7 		"/>
		<polyline class="st2" points="46.4,7.6 38.4,15.1 38.4,25.1 38.4,69.1 46.7,69.1 		"/>
		<polyline class="st2" points="27,69.1 27,33 36.3,25.6 36.3,69.2 		"/>
		<polyline class="st3" points="39.2,69.3 39.2,24 31.3,29.6 31,29.8 21.5,36.5 21.5,69.7 		"/>
		<polyline class="st4" points="30.4,30 30.4,15.2 50,0.8 50,49.2 56,54.8 56,69.1 		"/>
		<polyline class="st5" points="50,0.8 58.8,6.9 58.8,34.3 64.3,39.5 64.3,69.7 		"/>
		<line class="st6" x1="46" y1="3.8" x2="46" y2="69.4"/>
		<polygon class="st7" points="46,11.9 30.8,22.2 30.8,19.3 46,9 		"/>
		<rect x="40.9" y="41.1" class="st8" width="3.6" height="3.4"/>
		<rect x="50.1" y="14.7" class="st9" width="5" height="4.7"/>
		<rect x="27.8" y="51.6" class="st10" width="5.3" height="5"/>
		<polygon class="st11" points="50.3,30.9 64.4,42.3 64.4,39.6 50.3,28.2 		"/>
		<polyline class="st2" points="48.9,52 53.9,56.8 53.9,69.1 48.9,69.1 		"/>
		<rect x="48.9" y="61.3" class="st8" width="3.6" height="3.4"/>
		<rect x="57.7" y="47.9" class="st8" width="3.6" height="3.4"/>
		<rect x="53.3" y="42" class="st12" width="3.2" height="3"/>
		<polygon class="st13" points="38.8,33.8 21.8,45.1 21.8,42.1 38.8,30.8 		"/>
		<path class="st14" d="M17.1,59.5c0,2.9-1.9,5.2-3.8,5.2s-4.2-2.4-4.2-5.3c0-2.9,2.4-8.8,4.2-8.8S17.1,56.6,17.1,59.5z"/>
		<line class="st14" x1="13.1" y1="69.8" x2="13.1" y2="62"/>
		<path class="st15" d="M6.8,62.3c0,2-1.2,3.5-2.3,3.5s-2.6-1.6-2.6-3.6s1.4-5.9,2.6-5.9S6.8,60.3,6.8,62.3z"/>
		<path class="st16" d="M6.8,61.8c0,2.3-1.5,4.1-2.9,4.1S0.5,64,0.5,61.7c0-2.3,1.8-6.8,3.3-6.8S6.8,59.5,6.8,61.8z"/>
		<line class="st16" x1="4" y1="69.8" x2="4" y2="63.7"/>
		<path class="st1" d="M76.1,60.5c0,2.5-1.5,4.5-2.9,4.5s-3.3-2.1-3.3-4.6c0-2.5,1.8-7.6,3.3-7.6S76.1,58,76.1,60.5z"/>
		<path class="st14" d="M76.1,59.8c0,2.9-1.9,5.2-3.8,5.2s-4.2-2.4-4.2-5.3c0-2.9,2.4-8.8,4.2-8.8S76.1,56.9,76.1,59.8z"/>
		<line class="st14" x1="72.2" y1="70.1" x2="72.2" y2="62.3"/>
		<path class="st15" d="M84.8,62.8c0,1.9-1.1,3.4-2.2,3.4c-1.1,0-2.5-1.6-2.5-3.5c0-1.9,1.4-5.8,2.5-5.8
			C83.7,56.9,84.8,60.8,84.8,62.8z"/>
		<path class="st17" d="M84.8,62.2c0,2.3-1.5,4-2.9,4s-3.2-1.8-3.2-4.1s1.8-6.7,3.2-6.7S84.8,60,84.8,62.2z"/>
		<line class="st17" x1="81.8" y1="70.1" x2="81.8" y2="64.1"/>
	</g>
</g>
</svg>
