<?xml version="1.0" encoding="utf-8"?>
<!-- Generator: Adobe Illustrator 24.0.3, SVG Export Plug-In . SVG Version: 6.00 Build 0)  -->
<svg version="1.1" id="レイヤー_1" xmlns="http://www.w3.org/2000/svg" xmlns:xlink="http://www.w3.org/1999/xlink" x="0px"
	 y="0px" viewBox="0 0 920 49.2" style="enable-background:new 0 0 920 49.2;" xml:space="preserve">
<style type="text/css">
	.st0{fill:#513813;}
	.st1{fill:#4A9143;}
</style>
<rect y="22.4" class="st0" width="920" height="3.7"/>
<rect y="28.5" class="st0" width="920" height="1.8"/>
<g>
	<g>
		<g>
			<g>
				<g>
					<path class="st0" d="M414.4,27.6c0.1,3.2-2,4.4-2,4.5l0,0c-1.8,1.1-4.5-0.1-5.3-1.1c-0.9-1.3-0.9-2.9,0.4-4.1
						c0.5-0.5,1.3-0.7,2.1-0.6c1,0.1,1.9,0.9,2,2l0,0.5c0,0.2-0.1,0.5-0.1,0.7l0,0l0,0c-0.1,0.2-0.4,0.7-0.8,0.9
						c-0.1,0.1-0.3,0.2-0.4,0.2c0,0-0.7,0.2-1.2-0.4c-0.6-0.7,0.1-1.6,0.1-1.6s0.8-0.7,1.6-0.3c0.1-0.9-0.8-1.7-1.5-1.8
						c-0.5-0.1-1.2,0.2-1.4,0.3c-1.2,0.8-1.3,2.6-0.5,3.7c0.6,0.8,2.9,1.7,4.4,0.7v0c0.1,0,1.9-1,1.8-3.8c0-2.7-3.7-6-4.2-6.4l0,0
						c0,0-4.5-3.2-7.4-2.6c-2.9,0.6-3.4,2.5-3.4,2.6l0,0c-0.6,1.6,0.8,3.6,1.7,4c0.6,0.2,1.3,0.3,1.9,0.1c-1.5,0-3.7-1.9-2-3.9
						c0.1-0.1,0.2-0.2,0.3-0.3c0,0,0.1-0.1,0.1-0.1c0,0,0.5-0.4,1.2-0.4l0.1,0c1.1-0.1,2.2,0.6,2.5,1.5c0.3,0.7,0.1,1.5-0.2,2.1
						c-0.8,1.6-3.2,2.7-5.7,1.3c-1.1-0.6-1.9-2.8-1.2-4.7h0c0-0.1,1.4-2.3,4.6-2.9c3.1-0.6,7.6,2.6,7.9,2.8l0,0
						C409.9,20.9,414.3,24.4,414.4,27.6z"/>
					<path class="st0" d="M378,28.7c-0.1-0.1-2.9-2.9-0.4-7c2.5-4.1,12.1-5.8,12.4-5.8v0c1.1-0.2,5-0.9,10.6,0
						c7.1,1,11.7,5.5,12.6,6.4h0c0,0,0,0,0,0c0.1,0.1,0.1,0.1,0.1,0.1l0,0c0.8,0.9,4.7,5,8.1,5.1c3.7,0.1,5-2.1,5-2.2h0
						c1.2-1.8,0.2-4.6-0.9-5.4c-1.5-1-3.8-0.9-4.9,0.5c-0.2,0.3-0.5,1.2-0.5,1.7c0.1,0.8,1.2,2,2.3,1.9c-0.6-1,0.4-2,0.4-2
						s1.1-0.9,2.1-0.1c0.7,0.5,0.5,1.4,0.5,1.4c-0.1,0.2-0.2,0.4-0.3,0.5c-0.4,0.6-1,0.9-1.3,1l0,0l0,0c-0.3,0.1-0.7,0.2-0.9,0.2
						l-0.6,0c-1.4-0.2-2.5-1.4-2.6-2.5c-0.1-1,0.2-1.9,0.9-2.6c1.6-1.6,3.7-1.6,5.4-0.4c1.2,0.9,2.7,4.2,1.3,6.4l0,0
						c-0.1,0.1-1.6,2.5-5.8,2.4c-3.8-0.1-7.8-4.7-8.7-5.6l0,0c0-0.1-4.8-5.3-12.3-6.4c-6.3-1-10.3,0.1-10.3,0.2l0,0
						c-0.6,0.1-8.2,1.7-10.4,5.3c-2.2,3.7-0.6,6.2-0.5,6.3h0c1.3,2.3,4.9,2.8,6.3,2.2c2-0.9,3.1-3.3,2.2-5.2c-0.2-0.4-1-1.2-1.6-1.5
						c-1-0.4-2.8,0.1-3.4,1.2c1.4,0,1.9,1.5,1.9,1.5s0.3,1.6-1,2.2c-1,0.4-1.8-0.4-1.8-0.4c-0.2-0.2-0.3-0.4-0.4-0.6
						c-0.4-0.7-0.4-1.5-0.4-1.8l0,0l0,0c0.1-0.3,0.2-0.8,0.4-1l0.4-0.6c1.1-1.3,2.9-1.7,4.2-1.2c1.1,0.4,1.9,1.3,2.3,2.3
						c0.8,2.5-0.4,4.7-2.6,5.7C384,31.8,379.6,31.4,378,28.7L378,28.7z"/>
					<path class="st0" d="M411.6,14.4c2.4-0.9,2.9,1.3,2.9,1.3c-1.2-1-1.9,0.1-1.9,0.1c-1.1,2.5,1.3,2.8,3.3,3
						c2.1,0.2,2.4,2.6,1.3,3.5c-1,0.8-2.4,0.4-2.4,0.4c3.5-2.1,0.8-3-2.3-3.1C409.6,19.5,409.2,15.3,411.6,14.4z"/>
				</g>
				<path class="st0" d="M453.1,19.2c-3.7,1.6-6.3-2.2-9.5-2c-3.2,0.3-5.2,4.9-5.2,4.9s1.7-4.7,5.3-5.9c3.6-1.2,6.8,2.7,9.5,2.1
					c2.7-0.6,3.9-3.3,3.9-3.3S456.8,17.6,453.1,19.2z"/>
				<path class="st0" d="M453.2,22c3-1.8,2.8-1.6,2.8-1.6s-6.3,6.3-9.2,7.7c-3,1.3-4.5-3.4-1.3-4.1C448.7,23.2,450.3,23.8,453.2,22z
					"/>
				<path class="st0" d="M455.6,24.4c1.4-3.2,1.4-2.9,1.4-2.9s-1.6,8.8-3.3,11.6c-1.7,2.8-5.6-0.2-3.4-2.7
					C452.5,27.9,454.2,27.5,455.6,24.4z"/>
				<path class="st0" d="M394.8,23.2c-1.4,2,0.1,3.4,0.1,3.4s-1,0.1-1.7-0.9c-0.1-0.1-0.1-0.2-0.2-0.2l-0.3,0.9
					c-0.3-0.5-0.4-1-0.4-1.3c-0.1,0.1-0.2,0.2-0.4,0.3c-0.9,0.7-0.6-1.1-0.6-1.1c2.2-6.5,8.3-4.1,8.3-4.1
					C397.8,19.7,396.2,21.1,394.8,23.2z"/>
				<g>
					<path class="st0" d="M442.3,30.9l-0.7-1.1c0,0-0.8-1-0.5-2.8c0-0.1,0-0.3,0-0.4l-2-3.4c-0.1,0.1-1.2,1.4,0.3,5.7
						c0,0-2-1.8-1.5-5.6c0,0-2,1.5-0.6,4.9C438.9,31.4,442.3,30.9,442.3,30.9z M439.2,23.1l2,3.5C441.2,25.1,440.7,23.4,439.2,23.1
						C439.2,23.1,439.2,23.1,439.2,23.1z"/>
					<path class="st0" d="M433.9,34.9l0.1-1.4c0,0-0.1-1.3,1.2-2.6c0.1-0.1,0.2-0.2,0.3-0.3l0.4-4.1c-0.2,0-1.7,0.3-2.9,4.6
						c0,0-0.5-2.8,2-5.5c0,0-2.4-0.3-3.2,3.4C431,32.9,433.9,34.9,433.9,34.9z M435.8,26.6l-0.4,4.1
						C436.3,29.6,436.8,27.8,435.8,26.6C435.9,26.6,435.9,26.6,435.8,26.6z"/>
					<g>
						<path class="st0" d="M436.5,20.6C436.5,20.6,436.5,20.7,436.5,20.6l-3.6-0.2C434,19.6,435.6,19.3,436.5,20.6z"/>
						<path class="st0" d="M429,21.4l1.2,0.2c0,0,1.1,0.3,2.4-0.9c0.1-0.1,0.2-0.2,0.3-0.3l3.6,0.2c0,0.2-0.5,1.8-4.5,2.4
							c0,0,2.3,1.1,5.1-1.3c0,0-0.2,2.8-3.5,2.9C430.2,25,429,21.4,429,21.4z"/>
					</g>
				</g>
			</g>
			<g>
				<g>
					<path class="st0" d="M505.1,27.6c-0.1,3.2,2,4.4,2,4.5l0,0c1.8,1.1,4.5-0.1,5.3-1.1c0.9-1.3,0.9-2.9-0.4-4.1
						c-0.5-0.5-1.3-0.7-2.1-0.6c-1,0.1-1.9,0.9-2,2l0,0.5c0,0.2,0.1,0.5,0.1,0.7l0,0l0,0c0.1,0.2,0.4,0.7,0.8,0.9
						c0.1,0.1,0.3,0.2,0.4,0.2c0,0,0.7,0.2,1.2-0.4c0.6-0.7-0.1-1.6-0.1-1.6s-0.8-0.7-1.6-0.3c-0.1-0.9,0.8-1.7,1.5-1.8
						c0.5-0.1,1.2,0.2,1.4,0.3c1.2,0.8,1.3,2.6,0.5,3.7c-0.6,0.8-2.9,1.7-4.4,0.7v0c-0.1,0-1.9-1-1.8-3.8c0.1-2.7,3.7-6,4.2-6.4l0,0
						c0,0,4.5-3.2,7.4-2.6c2.9,0.6,3.4,2.5,3.4,2.6l0,0c0.6,1.6-0.8,3.6-1.7,4c-0.6,0.2-1.3,0.3-1.9,0.1c1.5,0,3.7-1.9,2-3.9
						c-0.1-0.1-0.2-0.2-0.2-0.3c0,0-0.1-0.1-0.1-0.1c0,0-0.5-0.4-1.2-0.4l-0.1,0c-1.1-0.1-2.2,0.6-2.5,1.5c-0.3,0.7-0.1,1.5,0.2,2.1
						c0.8,1.6,3.2,2.7,5.7,1.3c1.1-0.6,1.9-2.8,1.2-4.7h0c0-0.1-1.4-2.3-4.6-2.9c-3.1-0.6-7.5,2.6-7.9,2.8l0,0
						C509.6,20.9,505.1,24.4,505.1,27.6z"/>
					<path class="st0" d="M541.5,28.7c0.1-0.1,2.9-2.9,0.4-7c-2.5-4.1-12.1-5.8-12.4-5.8v0c-1.1-0.2-5-0.9-10.6,0
						c-7.1,1-11.7,5.5-12.6,6.4h0c0,0,0,0,0,0c-0.1,0.1-0.1,0.1-0.1,0.1l0,0c-0.8,0.9-4.7,5-8.1,5.1c-3.7,0.1-5-2.1-5-2.2h0
						c-1.2-1.8-0.2-4.6,0.9-5.4c1.5-1,3.8-0.9,4.9,0.5c0.2,0.3,0.5,1.2,0.5,1.7c-0.1,0.8-1.2,2-2.3,1.9c0.6-1-0.4-2-0.4-2
						s-1.1-0.9-2.1-0.1c-0.7,0.5-0.4,1.4-0.4,1.4c0.1,0.2,0.2,0.4,0.3,0.5c0.4,0.6,1,0.9,1.3,1l0,0l0,0c0.3,0.1,0.7,0.2,0.9,0.2
						l0.6,0c1.4-0.2,2.5-1.4,2.6-2.5c0.1-1-0.2-1.9-0.9-2.6c-1.6-1.6-3.7-1.6-5.4-0.4c-1.2,0.9-2.7,4.2-1.3,6.4l0,0
						c0.1,0.1,1.6,2.5,5.8,2.4c3.8-0.1,7.8-4.7,8.7-5.6l0,0c0-0.1,4.8-5.3,12.3-6.4c6.3-1,10.3,0.1,10.3,0.2l0,0
						c0.6,0.1,8.2,1.7,10.4,5.3c2.2,3.7,0.6,6.2,0.5,6.3h0c-1.3,2.3-4.9,2.8-6.3,2.2c-2-0.9-3.1-3.3-2.2-5.2c0.2-0.4,1-1.2,1.6-1.5
						c1-0.4,2.8,0.1,3.4,1.2c-1.4,0-1.9,1.5-1.9,1.5s-0.3,1.6,1,2.2c1,0.4,1.8-0.4,1.8-0.4c0.2-0.2,0.3-0.4,0.4-0.6
						c0.4-0.7,0.4-1.5,0.4-1.8l0,0l0,0c-0.1-0.3-0.2-0.8-0.4-1l-0.4-0.6c-1.1-1.3-2.9-1.7-4.2-1.2c-1.1,0.4-1.9,1.3-2.3,2.3
						c-0.8,2.5,0.4,4.7,2.6,5.7C535.5,31.8,539.9,31.4,541.5,28.7L541.5,28.7z"/>
					<path class="st0" d="M507.9,14.4c-2.4-0.9-2.9,1.3-2.9,1.3c1.2-1,1.9,0.1,1.9,0.1c1.1,2.5-1.3,2.8-3.3,3
						c-2.1,0.2-2.4,2.6-1.3,3.5c1,0.8,2.3,0.4,2.3,0.4c-3.5-2.1-0.8-3,2.3-3.1C509.9,19.5,510.3,15.3,507.9,14.4z"/>
				</g>
				<path class="st0" d="M466.4,19.2c3.7,1.6,6.3-2.2,9.5-2c3.2,0.3,5.2,4.9,5.2,4.9s-1.7-4.7-5.3-5.9c-3.6-1.2-6.8,2.7-9.5,2.1
					c-2.7-0.6-3.9-3.3-3.9-3.3S462.7,17.6,466.4,19.2z"/>
				<path class="st0" d="M466.3,22c-3-1.8-2.8-1.6-2.8-1.6s6.3,6.3,9.2,7.7c3,1.3,4.5-3.4,1.3-4.1C470.8,23.2,469.2,23.8,466.3,22z"
					/>
				<path class="st0" d="M463.9,24.4c-1.4-3.2-1.4-2.9-1.4-2.9s1.6,8.8,3.3,11.6c1.7,2.8,5.6-0.2,3.4-2.7
					C467,27.9,465.3,27.5,463.9,24.4z"/>
				<path class="st0" d="M524.7,23.2c1.4,2-0.1,3.4-0.1,3.4s1,0.1,1.7-0.9c0.1-0.1,0.1-0.2,0.1-0.2l0.3,0.9c0.3-0.5,0.4-1,0.4-1.3
					c0.1,0.1,0.2,0.2,0.4,0.3c0.9,0.7,0.6-1.1,0.6-1.1c-2.2-6.5-8.3-4.1-8.3-4.1C521.7,19.7,523.3,21.1,524.7,23.2z"/>
				<g>
					<path class="st0" d="M482,28c1.5-3.4-0.6-4.9-0.6-4.9c0.5,3.9-1.5,5.6-1.5,5.6c1.5-4.2,0.5-5.5,0.3-5.7l-2,3.4
						c0,0.2,0,0.3,0,0.4c0.3,1.8-0.5,2.8-0.5,2.8l-0.7,1.1C477.2,30.9,480.5,31.4,482,28z M480.3,23.1c-1.5,0.3-2,2-1.9,3.5
						L480.3,23.1C480.3,23.1,480.3,23.1,480.3,23.1z"/>
					<path class="st0" d="M487.7,29.1c-0.8-3.7-3.2-3.4-3.2-3.4c2.5,2.7,2,5.5,2,5.5c-1.2-4.4-2.7-4.6-2.9-4.6l0.4,4.1
						c0.1,0.1,0.2,0.2,0.3,0.3c1.2,1.2,1.2,2.6,1.2,2.6l0.1,1.4C485.6,34.9,488.5,32.9,487.7,29.1z M483.6,26.6
						c-1,1.3-0.5,3,0.4,4.1L483.6,26.6C483.6,26.6,483.6,26.6,483.6,26.6z"/>
					<g>
						<path class="st0" d="M483,20.6C483,20.6,483,20.7,483,20.6l3.6-0.2C485.5,19.6,483.9,19.3,483,20.6z"/>
						<path class="st0" d="M490.5,21.4l-1.2,0.2c0,0-1.1,0.3-2.4-0.9c-0.1-0.1-0.2-0.2-0.3-0.3l-3.6,0.2c0,0.2,0.5,1.8,4.5,2.4
							c0,0-2.3,1.1-5.1-1.3c0,0,0.2,2.8,3.5,2.9C489.2,25,490.5,21.4,490.5,21.4z"/>
					</g>
				</g>
			</g>
		</g>
		<g>
			<g>
				<g>
					<path class="st0" d="M244.4,24.2c3.3,0.6,9.3-2.9,4.8-6.2c-5.5-4-14-0.6-19.5,1.3c-5.9,2.1-11.9,3.8-17.9,5.4
						c-12.7,3.4-26.5,7.2-39.8,6.3c-11.4-0.8-23.1-5.5-33.2-10.6c-0.2-0.1-1.3,1.6-1.5,1.5c7.3,3.6,15,6.4,22.8,8.6
						c10.9,3,21.1,2,32-0.1c10.9-2.1,21.6-5,32.2-8.3c4.7-1.5,9.2-3.6,14.1-4.2c3.2-0.4,12.6,0.1,10.6,5.3c0.5-0.5,1-1,1.5-1.5
						c-1.4,1.1-2.8,1.3-4.6,0.9C245.4,22.7,244.7,24.3,244.4,24.2L244.4,24.2z"/>
				</g>
				<g>
					<path class="st0" d="M212.3,25.3c-5.2,2.9-10.7,5.1-16.4,6.8c-9.9,2.9-17.6-0.9-26.6-4.6c-3.7-1.5-13.1-4.3-16.6-0.9
						c-0.4,0.4-1.7,1.3-1.2,2c0-0.1,1.5-1.4,1.5-1.5c-0.2-0.2-0.2-0.4,0-0.7c-0.5,0.5-1,1-1.5,1.5c2.7-2.3,9.2-0.8,12.3-0.2
						c6.3,1.3,11.8,5.1,18,6.7c9.6,2.4,20.9-3,29.1-7.6C211.4,26.4,211.7,25.6,212.3,25.3L212.3,25.3z"/>
				</g>
				<g>
					<path class="st0" d="M130.6,24.4l0.8-0.7c0,0,0.7-0.7,2.2-0.7c0.1,0,0.2,0,0.4,0l2.5-1.9c-0.1-0.1-1.2-0.8-4.4,0.8
						c0,0,1.2-1.8,4.2-1.8c0,0-1.4-1.5-3.9,0.1C129.9,21.8,130.6,24.4,130.6,24.4z M136.4,21.1l-2.5,1.9
						C135.1,23,136.4,22.4,136.4,21.1C136.4,21.2,136.4,21.1,136.4,21.1z"/>
					<path class="st0" d="M126.7,18.1l1.1-0.1c0,0,1-0.2,2.1,0.7c0.1,0.1,0.2,0.1,0.3,0.2l3.2-0.1c0-0.1-0.4-1.3-3.9-1.8
						c0,0,2.1-0.7,4.5,1c0,0,0-1.9-3-2.2C128,15.7,126.7,18.1,126.7,18.1z M133.4,18.8l-3.2,0.1C131.1,19.5,132.5,19.8,133.4,18.8
						C133.4,18.9,133.4,18.9,133.4,18.8z"/>
					<path class="st0" d="M134.5,16.9c0.5,2.6,2.7,2.5,2.7,2.5c-2.1-1.9-1.5-3.9-1.5-3.9c0.9,3.1,2.2,3.3,2.4,3.3l-0.2-2.9
						c-0.1-0.1-0.2-0.2-0.2-0.2c-1.1-0.9-0.9-1.8-0.9-1.8l0-1C136.7,12.9,134.1,14.2,134.5,16.9z M138.1,18.8
						c0.9-0.9,0.6-2.1-0.2-2.9L138.1,18.8C138.1,18.8,138.1,18.8,138.1,18.8z"/>
				</g>
				<g>
					<path class="st0" d="M152.8,33.7l-0.3-0.7c0,0-0.4-0.6,0-1.6c0-0.1,0.1-0.2,0.1-0.2l-0.9-2.2c-0.1,0.1-1,0.6-0.5,3.2
						c0,0-1.2-1.3-0.3-3.4c0,0-1.7,0.6-1.1,2.7C150.4,33.6,152.8,33.7,152.8,33.7z M151.7,29l0.9,2.2
						C152.9,30.3,152.8,29.3,151.7,29C151.7,29,151.7,29,151.7,29z"/>
					<path class="st0" d="M146.4,34.8l0.2-0.7c0,0,0.1-0.8,1.2-1.3c0.1,0,0.2-0.1,0.2-0.1l0.9-2.2c-0.1,0-1.2-0.1-2.7,2.2
						c0,0,0-1.6,2.2-2.8c0,0-1.7-0.5-2.7,1.5C144.6,33.3,146.4,34.8,146.4,34.8z M148.9,30.5l-0.9,2.2
						C148.8,32.2,149.4,31.3,148.9,30.5C148.9,30.4,148.9,30.5,148.9,30.5z"/>
					<path class="st0" d="M147.5,29.2c2.4,0.3,2.9-1.2,2.9-1.2c-2.3,1-3.8,0-3.8,0c2.9,0.2,3.5-0.7,3.5-0.8l-2.5-0.6
						c-0.1,0-0.2,0.1-0.3,0.1c-1.1,0.5-1.8,0.2-1.8,0.2l-0.8-0.2C144.8,26.7,145.2,28.8,147.5,29.2z M150.2,27.2
						c-0.5-0.9-1.6-0.9-2.5-0.6L150.2,27.2C150.2,27.2,150.2,27.2,150.2,27.2z"/>
				</g>
				<g>
					<path class="st0" d="M210.8,25.6l0.3-0.7c0,0,0.2-0.7,1.3-1.2c0.1,0,0.2-0.1,0.3-0.1l1-2.2c-0.1,0-1.2-0.1-2.9,2
						c0,0,0.1-1.6,2.4-2.6c0,0-1.6-0.6-2.8,1.3C209.2,23.9,210.8,25.6,210.8,25.6z M213.7,21.4l-1,2.2
						C213.5,23.1,214.1,22.2,213.7,21.4C213.7,21.4,213.7,21.4,213.7,21.4z"/>
					<path class="st0" d="M205.3,22.4l0.7-0.4c0,0,0.7-0.5,1.8-0.2c0.1,0,0.2,0,0.3,0l2.3-1.1c-0.1-0.1-0.8-0.8-3.6,0
						c0,0,1.3-1.2,3.7-0.7c0,0-0.8-1.4-3.1-0.6C205.3,20.2,205.3,22.4,205.3,22.4z M210.5,20.7l-2.3,1.1
						C209.1,21.9,210.2,21.7,210.5,20.7C210.5,20.7,210.5,20.7,210.5,20.7z"/>
					<path class="st0" d="M210.5,18.9c1.4,1.7,2.9,0.9,2.9,0.9c-2.4-0.7-2.7-2.3-2.7-2.3c1.9,1.9,3,1.7,3.1,1.6l-1.3-2
						c-0.1,0-0.2-0.1-0.3-0.1c-1.1-0.3-1.4-1-1.4-1l-0.4-0.7C210.5,15.3,209.1,17.2,210.5,18.9z M213.9,19.1c0.3-0.9-0.4-1.7-1.3-2
						L213.9,19.1C213.9,19.1,213.9,19.1,213.9,19.1z"/>
				</g>
				<path class="st0" d="M220.7,22.1c-1.4,0-2.9-0.1-4.6-0.3c-0.3,0-0.5-0.3-0.5-0.6c0-0.3,0.3-0.5,0.6-0.5
					c10.4,1.2,15.4-2.2,15.4-2.2c0.2-0.2,0.6-0.1,0.7,0.1c0.2,0.2,0.1,0.6-0.1,0.7C232,19.5,228.4,22.1,220.7,22.1z"/>
			</g>
			<g>
				<g>
					<path class="st0" d="M6.1,22.7c-2.6,0.5-6.7-0.8-4.4-4c-0.5,0.5-1,1-1.5,1.5c7.8-5.7,18-0.1,26,2.4c10.7,3.4,21.7,6.1,32.7,8.2
						c18.8,3.6,35.8-0.5,52.8-8.9c0.6-0.3,0.9-1.2,1.5-1.5c-9.8,4.9-20.4,8.6-31.2,10.3c-13.6,2.1-28.8-2.6-41.9-6.1
						c-11-2.9-24.8-10.7-36.1-7.4c-4.7,1.4-6.3,8.1,0.5,6.9C5.2,24.1,5.5,22.8,6.1,22.7L6.1,22.7z"/>
				</g>
				<g>
					<path class="st0" d="M38.1,26.8c9.4,5.2,20.4,9.7,31.2,7c7-1.8,12.8-6,20.2-6.8c0.2,0,9.3-0.3,7.9,1.5c0.4-0.5,1.1-0.9,1.5-1.5
						c1.3-1.6-5.1-1.6-5.3-1.6c-7.6-0.2-13.9,3.5-20.8,6.2c-11.1,4.3-23.5-0.9-33.3-6.4C39.4,25.2,38.3,26.9,38.1,26.8L38.1,26.8z"
						/>
				</g>
				<g>
					<path class="st0" d="M118,20.3c-2.5-1.5-3.9-0.1-3.9-0.1c3.1,0,4.3,1.8,4.3,1.8c-3.1-1.6-4.3-0.9-4.4-0.8l2.5,1.9
						c0.1,0,0.2,0,0.4,0c1.5,0,2.1,0.7,2.1,0.7l0.8,0.7C119.8,24.4,120.5,21.8,118,20.3z M114,21.2c0.1,1.2,1.3,1.8,2.5,1.9
						L114,21.2C114,21.1,114,21.2,114,21.2z"/>
					<path class="st0" d="M119.5,15.9c-3,0.2-3,2.2-3,2.2c2.3-1.7,4.5-1,4.5-1c-3.5,0.5-3.9,1.7-3.9,1.8l3.2,0.1
						c0.1-0.1,0.2-0.1,0.3-0.2c1.1-0.9,2.1-0.7,2.1-0.7l1.1,0.1C123.7,18.1,122.4,15.7,119.5,15.9z M117,18.9
						c0.9,0.9,2.3,0.7,3.3,0.1L117,18.9C117,18.9,117,18.9,117,18.9z"/>
					<path class="st0" d="M113.7,12.9l0,1c0,0,0.1,0.9-0.9,1.8c-0.1,0.1-0.2,0.2-0.2,0.2l-0.2,2.9c0.2,0,1.5-0.2,2.4-3.3
						c0,0,0.6,2-1.5,3.9c0,0,2.2,0.1,2.7-2.5C116.4,14.2,113.7,12.9,113.7,12.9z M112.4,18.8l0.2-2.9
						C111.8,16.7,111.4,17.9,112.4,18.8C112.3,18.8,112.4,18.8,112.4,18.8z"/>
				</g>
				<g>
					<path class="st0" d="M100.6,31.5c0.6-2.1-1.1-2.7-1.1-2.7c0.9,2.1-0.3,3.4-0.3,3.4c0.5-2.6-0.4-3.1-0.5-3.2l-0.9,2.2
						c0,0.1,0.1,0.2,0.1,0.2c0.5,1,0,1.6,0,1.6l-0.3,0.7C97.6,33.7,100,33.6,100.6,31.5z M98.7,29c-1,0.3-1.2,1.4-0.9,2.2L98.7,29
						C98.7,29,98.7,29,98.7,29z"/>
					<path class="st0" d="M104.7,31.3c-1-2-2.7-1.5-2.7-1.5c2.2,1.1,2.2,2.8,2.2,2.8c-1.5-2.3-2.6-2.2-2.7-2.2l0.9,2.2
						c0.1,0.1,0.2,0.1,0.2,0.1c1,0.5,1.2,1.3,1.2,1.3l0.2,0.7C104.1,34.8,105.8,33.3,104.7,31.3z M101.5,30.4
						c-0.5,0.8,0.1,1.7,0.9,2.2L101.5,30.4C101.5,30.5,101.5,30.4,101.5,30.4z"/>
					<path class="st0" d="M105.7,26.7l-0.8,0.2c0,0-0.8,0.3-1.8-0.2c-0.1,0-0.2-0.1-0.3-0.1l-2.5,0.6c0.1,0.1,0.6,1,3.5,0.8
						c0,0-1.5,0.9-3.8,0c0,0,0.5,1.5,2.9,1.2C105.3,28.8,105.7,26.7,105.7,26.7z M100.2,27.2l2.5-0.6
						C101.9,26.3,100.7,26.4,100.2,27.2C100.2,27.2,100.2,27.2,100.2,27.2z"/>
				</g>
				<g>
					<path class="st0" d="M40,22c-1.2-1.9-2.8-1.3-2.8-1.3c2.2,1,2.4,2.6,2.4,2.6c-1.6-2.2-2.7-2.1-2.9-2l1,2.2
						c0.1,0,0.2,0.1,0.3,0.1c1.1,0.4,1.3,1.2,1.3,1.2l0.3,0.7C39.7,25.6,41.2,23.9,40,22z M36.7,21.4c-0.4,0.9,0.2,1.7,1.1,2.2
						L36.7,21.4C36.8,21.4,36.7,21.4,36.7,21.4z"/>
					<path class="st0" d="M42.9,19.4c-2.3-0.8-3.1,0.6-3.1,0.6c2.4-0.5,3.7,0.7,3.7,0.7c-2.8-0.8-3.5-0.1-3.6,0l2.3,1.1
						c0.1,0,0.2,0,0.3,0c1.1-0.3,1.8,0.2,1.8,0.2l0.7,0.4C45.1,22.4,45.1,20.2,42.9,19.4z M39.9,20.7c0.3,0.9,1.4,1.2,2.3,1.1
						L39.9,20.7C39.9,20.7,39.9,20.7,39.9,20.7z"/>
					<path class="st0" d="M39.9,15.3L39.5,16c0,0-0.3,0.7-1.4,1c-0.1,0-0.2,0.1-0.3,0.1l-1.3,2c0.1,0,1.2,0.3,3.1-1.6
						c0,0-0.3,1.6-2.7,2.3c0,0,1.5,0.8,3-0.9C41.3,17.2,39.9,15.3,39.9,15.3z M36.5,19.1l1.3-2C37,17.4,36.2,18.2,36.5,19.1
						C36.5,19.1,36.5,19.1,36.5,19.1z"/>
				</g>
				<path class="st0" d="M29.8,22.1c-7.7,0-11.4-2.5-11.5-2.7c-0.2-0.2-0.3-0.5-0.1-0.7c0.2-0.2,0.5-0.3,0.7-0.1c0,0,5,3.4,15.4,2.2
					c0.3,0,0.5,0.2,0.6,0.5c0,0.3-0.2,0.6-0.5,0.6C32.7,22,31.2,22.1,29.8,22.1z"/>
			</g>
			<g>
				<g>
					<path class="st0" d="M259.1,22.7c-2.6,0.5-6.7-0.8-4.4-4c-0.5,0.5-1,1-1.5,1.5c7.8-5.7,18-0.1,26,2.4
						c10.7,3.4,21.7,6.1,32.7,8.2c18.8,3.6,35.8-0.5,52.8-8.9c0.6-0.3,0.9-1.2,1.5-1.5c-9.8,4.9-20.4,8.6-31.2,10.3
						c-13.6,2.1-28.8-2.6-41.9-6.1c-11-2.9-24.8-10.7-36.1-7.4c-4.7,1.4-6.3,8.1,0.5,6.9C258.2,24.1,258.6,22.8,259.1,22.7
						L259.1,22.7z"/>
				</g>
				<g>
					<path class="st0" d="M291.2,26.8c9.4,5.2,20.4,9.7,31.2,7c7-1.8,12.8-6,20.2-6.8c0.2,0,9.3-0.3,7.9,1.5
						c0.4-0.5,1.1-0.9,1.5-1.5c1.3-1.6-5.1-1.6-5.3-1.6c-7.6-0.2-13.9,3.5-20.8,6.2c-11.1,4.3-23.5-0.9-33.3-6.4
						C292.5,25.2,291.3,26.9,291.2,26.8L291.2,26.8z"/>
				</g>
				<g>
					<path class="st0" d="M371.1,20.3c-2.5-1.5-3.9-0.1-3.9-0.1c3.1,0,4.3,1.8,4.3,1.8c-3.1-1.6-4.3-0.9-4.4-0.8l2.5,1.9
						c0.1,0,0.2,0,0.4,0c1.5,0,2.1,0.7,2.1,0.7l0.8,0.7C372.8,24.4,373.6,21.8,371.1,20.3z M367,21.2c0.1,1.2,1.3,1.8,2.5,1.9
						L367,21.2C367,21.1,367,21.2,367,21.2z"/>
					<path class="st0" d="M372.5,15.9c-3,0.2-3,2.2-3,2.2c2.3-1.7,4.5-1,4.5-1c-3.5,0.5-3.9,1.7-3.9,1.8l3.2,0.1
						c0.1-0.1,0.2-0.1,0.3-0.2c1.1-0.9,2.1-0.7,2.1-0.7l1.1,0.1C376.8,18.1,375.5,15.7,372.5,15.9z M370.1,18.9
						c0.9,0.9,2.3,0.7,3.3,0.1L370.1,18.9C370.1,18.9,370.1,18.9,370.1,18.9z"/>
					<path class="st0" d="M366.8,12.9l0,1c0,0,0.1,0.9-0.9,1.8c-0.1,0.1-0.2,0.2-0.2,0.2l-0.2,2.9c0.2,0,1.5-0.2,2.4-3.3
						c0,0,0.6,2-1.5,3.9c0,0,2.2,0.1,2.7-2.5C369.4,14.2,366.8,12.9,366.8,12.9z M365.4,18.8l0.2-2.9
						C364.8,16.7,364.5,17.9,365.4,18.8C365.4,18.8,365.4,18.8,365.4,18.8z"/>
				</g>
				<g>
					<path class="st0" d="M353.7,31.5c0.6-2.1-1.1-2.7-1.1-2.7c0.9,2.1-0.3,3.4-0.3,3.4c0.5-2.6-0.4-3.1-0.5-3.2l-0.9,2.2
						c0,0.1,0.1,0.2,0.1,0.2c0.5,1,0,1.6,0,1.6l-0.3,0.7C350.6,33.7,353.1,33.6,353.7,31.5z M351.7,29c-1,0.3-1.2,1.4-0.9,2.2
						L351.7,29C351.7,29,351.7,29,351.7,29z"/>
					<path class="st0" d="M357.8,31.3c-1-2-2.7-1.5-2.7-1.5c2.2,1.1,2.2,2.8,2.2,2.8c-1.5-2.3-2.6-2.2-2.7-2.2l0.9,2.2
						c0.1,0.1,0.2,0.1,0.2,0.1c1,0.5,1.2,1.3,1.2,1.3l0.2,0.7C357.1,34.8,358.8,33.3,357.8,31.3z M354.6,30.4
						c-0.5,0.8,0.1,1.7,0.9,2.2L354.6,30.4C354.6,30.5,354.6,30.4,354.6,30.4z"/>
					<path class="st0" d="M358.7,26.7l-0.8,0.2c0,0-0.8,0.3-1.8-0.2c-0.1,0-0.2-0.1-0.3-0.1l-2.5,0.6c0.1,0.1,0.6,1,3.5,0.8
						c0,0-1.5,0.9-3.8,0c0,0,0.5,1.5,2.9,1.2C358.3,28.8,358.7,26.7,358.7,26.7z M353.3,27.2l2.5-0.6
						C354.9,26.3,353.8,26.4,353.3,27.2C353.3,27.2,353.3,27.2,353.3,27.2z"/>
				</g>
				<g>
					<path class="st0" d="M293.1,22c-1.2-1.9-2.8-1.3-2.8-1.3c2.2,1,2.4,2.6,2.4,2.6c-1.6-2.2-2.7-2.1-2.9-2l1,2.2
						c0.1,0,0.2,0.1,0.3,0.1c1.1,0.4,1.3,1.2,1.3,1.2l0.3,0.7C292.7,25.6,294.3,23.9,293.1,22z M289.8,21.4
						c-0.4,0.9,0.2,1.7,1.1,2.2L289.8,21.4C289.8,21.4,289.8,21.4,289.8,21.4z"/>
					<path class="st0" d="M296,19.4c-2.3-0.8-3.1,0.6-3.1,0.6c2.4-0.5,3.7,0.7,3.7,0.7c-2.8-0.8-3.5-0.1-3.6,0l2.3,1.1
						c0.1,0,0.2,0,0.3,0c1.1-0.3,1.8,0.2,1.8,0.2l0.7,0.4C298.2,22.4,298.2,20.2,296,19.4z M293,20.7c0.3,0.9,1.4,1.2,2.3,1.1
						L293,20.7C293,20.7,293,20.7,293,20.7z"/>
					<path class="st0" d="M293,15.3l-0.4,0.7c0,0-0.3,0.7-1.4,1c-0.1,0-0.2,0.1-0.3,0.1l-1.3,2c0.1,0,1.2,0.3,3.1-1.6
						c0,0-0.3,1.6-2.7,2.3c0,0,1.5,0.8,3-0.9C294.4,17.2,293,15.3,293,15.3z M289.6,19.1l1.3-2C290,17.4,289.3,18.2,289.6,19.1
						C289.6,19.1,289.6,19.1,289.6,19.1z"/>
				</g>
				<path class="st0" d="M282.8,22.1c-7.7,0-11.4-2.5-11.5-2.7c-0.2-0.2-0.3-0.5-0.1-0.7c0.2-0.2,0.5-0.3,0.7-0.1
					c0,0,5,3.4,15.4,2.2c0.3,0,0.5,0.2,0.6,0.5c0,0.3-0.2,0.6-0.5,0.6C285.8,22,284.2,22.1,282.8,22.1z"/>
			</g>
		</g>
		<g>
			<g>
				<g>
					<path class="st0" d="M675.6,24.2c-3.3,0.6-9.3-2.9-4.8-6.2c5.5-4,14-0.6,19.5,1.3c5.9,2.1,11.9,3.8,17.9,5.4
						c12.7,3.4,26.5,7.2,39.8,6.3c11.4-0.8,23.1-5.5,33.2-10.6c0.2-0.1,1.3,1.6,1.5,1.5c-7.3,3.6-15,6.4-22.8,8.6
						c-10.9,3-21.1,2-32-0.1c-10.9-2.1-21.6-5-32.2-8.3c-4.7-1.5-9.2-3.6-14.1-4.2c-3.2-0.4-12.6,0.1-10.6,5.3c-0.5-0.5-1-1-1.5-1.5
						c1.4,1.1,2.8,1.3,4.6,0.9C674.6,22.7,675.3,24.3,675.6,24.2L675.6,24.2z"/>
				</g>
				<g>
					<path class="st0" d="M707.7,25.3c5.2,2.9,10.7,5.1,16.4,6.8c9.9,2.9,17.6-0.9,26.6-4.6c3.7-1.5,13.1-4.3,16.6-0.9
						c0.4,0.4,1.7,1.3,1.2,2c0-0.1-1.5-1.4-1.5-1.5c0.2-0.2,0.2-0.4,0-0.7c0.5,0.5,1,1,1.5,1.5c-2.7-2.3-9.2-0.8-12.3-0.2
						c-6.3,1.3-11.8,5.1-18,6.7c-9.6,2.4-20.9-3-29.1-7.6C708.6,26.4,708.3,25.6,707.7,25.3L707.7,25.3z"/>
				</g>
				<g>
					<path class="st0" d="M787.6,20.3c-2.5-1.5-3.9-0.1-3.9-0.1c3.1,0,4.2,1.8,4.2,1.8c-3.1-1.6-4.3-0.9-4.4-0.8l2.5,1.9
						c0.1,0,0.2,0,0.4,0c1.5,0,2.2,0.7,2.2,0.7l0.8,0.7C789.4,24.4,790.1,21.8,787.6,20.3z M783.6,21.2c0.1,1.2,1.3,1.8,2.5,1.9
						L783.6,21.2C783.6,21.1,783.6,21.2,783.6,21.2z"/>
					<path class="st0" d="M789,15.9c-3,0.2-3,2.2-3,2.2c2.3-1.7,4.5-1,4.5-1c-3.5,0.5-3.9,1.7-3.9,1.8l3.2,0.1
						c0.1-0.1,0.2-0.1,0.3-0.2c1.1-0.9,2.1-0.7,2.1-0.7l1.1,0.1C793.3,18.1,792,15.7,789,15.9z M786.6,18.9c0.9,0.9,2.3,0.7,3.3,0.1
						L786.6,18.9C786.6,18.9,786.6,18.9,786.6,18.9z"/>
					<path class="st0" d="M783.3,12.9l0,1c0,0,0.1,0.9-0.9,1.8c-0.1,0.1-0.2,0.2-0.2,0.2l-0.2,2.9c0.2,0,1.5-0.2,2.4-3.3
						c0,0,0.6,2-1.5,3.9c0,0,2.2,0.1,2.7-2.5C785.9,14.2,783.3,12.9,783.3,12.9z M781.9,18.8l0.2-2.9
						C781.4,16.7,781,17.9,781.9,18.8C781.9,18.8,781.9,18.8,781.9,18.8z"/>
				</g>
				<g>
					<path class="st0" d="M770.2,31.5c0.6-2.1-1.1-2.7-1.1-2.7c0.9,2.1-0.3,3.4-0.3,3.4c0.5-2.6-0.4-3.1-0.5-3.2l-0.9,2.2
						c0,0.1,0.1,0.2,0.1,0.2c0.5,1,0,1.6,0,1.6l-0.3,0.7C767.2,33.7,769.6,33.6,770.2,31.5z M768.3,29c-1,0.3-1.2,1.4-0.9,2.2
						L768.3,29C768.3,29,768.3,29,768.3,29z"/>
					<path class="st0" d="M774.3,31.3c-1-2-2.7-1.5-2.7-1.5c2.2,1.1,2.2,2.8,2.2,2.8c-1.5-2.3-2.6-2.2-2.7-2.2l0.9,2.2
						c0.1,0.1,0.2,0.1,0.2,0.1c1,0.5,1.2,1.3,1.2,1.3l0.2,0.7C773.6,34.8,775.4,33.3,774.3,31.3z M771.1,30.4
						c-0.5,0.8,0.1,1.7,0.9,2.2L771.1,30.4C771.1,30.5,771.1,30.4,771.1,30.4z"/>
					<path class="st0" d="M775.2,26.7l-0.8,0.2c0,0-0.8,0.3-1.8-0.2c-0.1,0-0.2-0.1-0.3-0.1l-2.5,0.6c0.1,0.1,0.6,1,3.5,0.8
						c0,0-1.5,0.9-3.8,0c0,0,0.5,1.5,2.9,1.2C774.8,28.8,775.2,26.7,775.2,26.7z M769.8,27.2l2.5-0.6
						C771.4,26.3,770.3,26.4,769.8,27.2C769.8,27.2,769.8,27.2,769.8,27.2z"/>
				</g>
				<g>
					<path class="st0" d="M709.6,22c-1.2-1.9-2.8-1.3-2.8-1.3c2.2,1,2.4,2.6,2.4,2.6c-1.6-2.2-2.7-2.1-2.9-2l1,2.2
						c0.1,0,0.2,0.1,0.3,0.1c1.1,0.4,1.3,1.2,1.3,1.2l0.3,0.7C709.2,25.6,710.8,23.9,709.6,22z M706.3,21.4
						c-0.4,0.9,0.2,1.7,1.1,2.2L706.3,21.4C706.3,21.4,706.3,21.4,706.3,21.4z"/>
					<path class="st0" d="M712.5,19.4c-2.3-0.8-3.1,0.6-3.1,0.6c2.4-0.5,3.7,0.7,3.7,0.7c-2.8-0.8-3.5-0.1-3.6,0l2.3,1.1
						c0.1,0,0.2,0,0.3,0c1.1-0.3,1.8,0.2,1.8,0.2l0.7,0.4C714.7,22.4,714.7,20.2,712.5,19.4z M709.5,20.7c0.3,0.9,1.4,1.2,2.3,1.1
						L709.5,20.7C709.5,20.7,709.5,20.7,709.5,20.7z"/>
					<path class="st0" d="M709.5,15.3l-0.4,0.7c0,0-0.3,0.7-1.4,1c-0.1,0-0.2,0.1-0.3,0.1l-1.3,2c0.1,0,1.2,0.3,3.1-1.6
						c0,0-0.3,1.6-2.7,2.3c0,0,1.5,0.8,2.9-0.9C710.9,17.2,709.5,15.3,709.5,15.3z M706.1,19.1l1.3-2
						C706.5,17.4,705.8,18.2,706.1,19.1C706.1,19.1,706.1,19.1,706.1,19.1z"/>
				</g>
				<path class="st0" d="M699.3,22.1c1.4,0,2.9-0.1,4.6-0.3c0.3,0,0.5-0.3,0.5-0.6c0-0.3-0.3-0.5-0.6-0.5
					c-10.4,1.2-15.4-2.2-15.4-2.2c-0.2-0.2-0.6-0.1-0.7,0.1c-0.2,0.2-0.1,0.6,0.1,0.7C688,19.5,691.6,22.1,699.3,22.1z"/>
			</g>
			<g>
				<g>
					<path class="st0" d="M913.9,22.7c2.6,0.5,6.7-0.8,4.4-4c0.5,0.5,1,1,1.5,1.5c-7.8-5.7-18-0.1-26,2.4
						c-10.7,3.4-21.7,6.1-32.7,8.2c-18.8,3.6-35.8-0.5-52.8-8.9c-0.6-0.3-0.9-1.2-1.5-1.5c9.8,4.9,20.4,8.6,31.2,10.3
						c13.6,2.1,28.8-2.6,41.9-6.1c11-2.9,24.8-10.7,36.1-7.4c4.7,1.4,6.3,8.1-0.5,6.9C914.8,24.1,914.5,22.8,913.9,22.7L913.9,22.7z
						"/>
				</g>
				<g>
					<path class="st0" d="M881.9,26.8c-9.4,5.2-20.4,9.7-31.2,7c-7-1.8-12.8-6-20.2-6.8c-0.2,0-9.3-0.3-7.9,1.5
						c-0.4-0.5-1.1-0.9-1.5-1.5c-1.3-1.6,5.1-1.6,5.3-1.6c7.6-0.2,13.9,3.5,20.8,6.2c11.1,4.3,23.5-0.9,33.3-6.4
						C880.6,25.2,881.7,26.9,881.9,26.8L881.9,26.8z"/>
				</g>
				<g>
					<path class="st0" d="M800.2,24.4l0.8-0.7c0,0,0.7-0.7,2.1-0.7c0.1,0,0.2,0,0.4,0l2.5-1.9c-0.1-0.1-1.2-0.8-4.4,0.8
						c0,0,1.2-1.8,4.3-1.8c0,0-1.4-1.5-3.9,0.1C799.5,21.8,800.2,24.4,800.2,24.4z M806,21.1l-2.5,1.9C804.7,23,806,22.4,806,21.1
						C806,21.2,806,21.1,806,21.1z"/>
					<path class="st0" d="M796.3,18.1l1.1-0.1c0,0,1-0.2,2.1,0.7c0.1,0.1,0.2,0.1,0.3,0.2l3.2-0.1c0-0.1-0.4-1.3-3.9-1.8
						c0,0,2.1-0.7,4.5,1c0,0,0-1.9-3-2.2C797.6,15.7,796.3,18.1,796.3,18.1z M803,18.8l-3.3,0.1C800.7,19.5,802.1,19.8,803,18.8
						C803,18.9,803,18.9,803,18.8z"/>
					<path class="st0" d="M804.1,16.9c0.5,2.6,2.7,2.5,2.7,2.5c-2.1-1.9-1.5-3.9-1.5-3.9c0.9,3.1,2.2,3.3,2.4,3.3l-0.2-2.9
						c-0.1-0.1-0.2-0.2-0.2-0.2c-1.1-0.9-0.9-1.8-0.9-1.8l0-1C806.3,12.9,803.6,14.2,804.1,16.9z M807.7,18.8
						c0.9-0.9,0.6-2.1-0.2-2.9L807.7,18.8C807.6,18.8,807.7,18.8,807.7,18.8z"/>
				</g>
				<g>
					<path class="st0" d="M822.4,33.7l-0.3-0.7c0,0-0.4-0.6,0-1.6c0-0.1,0.1-0.2,0.1-0.2l-0.9-2.2c-0.1,0.1-1,0.6-0.5,3.2
						c0,0-1.2-1.3-0.3-3.4c0,0-1.7,0.6-1.1,2.7C820,33.6,822.4,33.7,822.4,33.7z M821.3,29l0.9,2.2C822.5,30.3,822.3,29.3,821.3,29
						C821.3,29,821.3,29,821.3,29z"/>
					<path class="st0" d="M815.9,34.8l0.2-0.7c0,0,0.1-0.8,1.2-1.3c0.1,0,0.2-0.1,0.2-0.1l0.9-2.2c-0.1,0-1.2-0.1-2.7,2.2
						c0,0,0-1.6,2.2-2.8c0,0-1.7-0.5-2.7,1.5C814.2,33.3,815.9,34.8,815.9,34.8z M818.5,30.5l-0.9,2.2
						C818.4,32.2,819,31.3,818.5,30.5C818.5,30.4,818.5,30.5,818.5,30.5z"/>
					<path class="st0" d="M817.1,29.2c2.4,0.3,2.9-1.2,2.9-1.2c-2.3,1-3.8,0-3.8,0c2.9,0.2,3.5-0.7,3.5-0.8l-2.5-0.6
						c-0.1,0-0.2,0.1-0.3,0.1c-1.1,0.5-1.8,0.2-1.8,0.2l-0.8-0.2C814.3,26.7,814.7,28.8,817.1,29.2z M819.8,27.2
						c-0.5-0.9-1.6-0.9-2.5-0.6L819.8,27.2C819.8,27.2,819.8,27.2,819.8,27.2z"/>
				</g>
				<g>
					<path class="st0" d="M880.3,25.6l0.3-0.7c0,0,0.2-0.7,1.3-1.2c0.1,0,0.2-0.1,0.3-0.1l1-2.2c-0.1,0-1.2-0.1-2.9,2
						c0,0,0.1-1.6,2.4-2.6c0,0-1.6-0.6-2.8,1.3C878.8,23.9,880.3,25.6,880.3,25.6z M883.2,21.4l-1,2.2
						C883,23.1,883.7,22.2,883.2,21.4C883.3,21.4,883.2,21.4,883.2,21.4z"/>
					<path class="st0" d="M874.9,22.4l0.7-0.4c0,0,0.7-0.5,1.8-0.2c0.1,0,0.2,0,0.3,0l2.3-1.1c-0.1-0.1-0.8-0.8-3.6,0
						c0,0,1.3-1.2,3.7-0.7c0,0-0.8-1.4-3.1-0.6C874.9,20.2,874.9,22.4,874.9,22.4z M880.1,20.7l-2.3,1.1
						C878.7,21.9,879.8,21.7,880.1,20.7C880.1,20.7,880.1,20.7,880.1,20.7z"/>
					<path class="st0" d="M880.1,18.9c1.4,1.7,3,0.9,3,0.9c-2.4-0.7-2.7-2.3-2.7-2.3c1.9,1.9,3,1.7,3.1,1.6l-1.3-2
						c-0.1,0-0.2-0.1-0.3-0.1c-1.1-0.3-1.4-1-1.4-1l-0.4-0.7C880.1,15.3,878.7,17.2,880.1,18.9z M883.5,19.1c0.3-0.9-0.4-1.7-1.3-2
						L883.5,19.1C883.5,19.1,883.5,19.1,883.5,19.1z"/>
				</g>
				<path class="st0" d="M890.2,22.1c7.7,0,11.4-2.5,11.5-2.7c0.2-0.2,0.3-0.5,0.1-0.7c-0.2-0.2-0.5-0.3-0.7-0.1c0,0-5,3.4-15.4,2.2
					c-0.3,0-0.5,0.2-0.6,0.5c0,0.3,0.2,0.6,0.5,0.6C887.3,22,888.8,22.1,890.2,22.1z"/>
			</g>
			<g>
				<g>
					<path class="st0" d="M660.9,22.7c2.6,0.5,6.7-0.8,4.4-4c0.5,0.5,1,1,1.5,1.5c-7.8-5.7-18-0.1-26,2.4
						c-10.7,3.4-21.7,6.1-32.7,8.2c-18.8,3.6-35.8-0.5-52.8-8.9c-0.6-0.3-0.9-1.2-1.5-1.5c9.8,4.9,20.4,8.6,31.2,10.3
						c13.6,2.1,28.8-2.6,41.9-6.1c11-2.9,24.8-10.7,36.1-7.4c4.7,1.4,6.3,8.1-0.5,6.9C661.8,24.1,661.4,22.8,660.9,22.7L660.9,22.7z
						"/>
				</g>
				<g>
					<path class="st0" d="M628.8,26.8c-9.4,5.2-20.4,9.7-31.2,7c-7-1.8-12.8-6-20.2-6.8c-0.2,0-9.3-0.3-7.9,1.5
						c-0.4-0.5-1.1-0.9-1.5-1.5c-1.3-1.6,5.1-1.6,5.3-1.6c7.6-0.2,13.9,3.5,20.8,6.2c11.1,4.3,23.5-0.9,33.3-6.4
						C627.5,25.2,628.7,26.9,628.8,26.8L628.8,26.8z"/>
				</g>
				<g>
					<path class="st0" d="M547.2,24.4l0.8-0.7c0,0,0.7-0.7,2.1-0.7c0.1,0,0.2,0,0.4,0l2.5-1.9c-0.1-0.1-1.2-0.8-4.4,0.8
						c0,0,1.2-1.8,4.3-1.8c0,0-1.4-1.5-3.9,0.1C546.4,21.8,547.2,24.4,547.2,24.4z M552.9,21.1l-2.5,1.9
						C551.6,23,552.9,22.4,552.9,21.1C553,21.2,553,21.1,552.9,21.1z"/>
					<path class="st0" d="M543.2,18.1l1.1-0.1c0,0,1-0.2,2.1,0.7c0.1,0.1,0.2,0.1,0.3,0.2l3.2-0.1c0-0.1-0.4-1.3-3.9-1.8
						c0,0,2.1-0.7,4.5,1c0,0,0-1.9-3-2.2C544.5,15.7,543.2,18.1,543.2,18.1z M549.9,18.8l-3.3,0.1C547.6,19.5,549,19.8,549.9,18.8
						C549.9,18.9,549.9,18.9,549.9,18.8z"/>
					<path class="st0" d="M551.1,16.9c0.5,2.6,2.7,2.5,2.7,2.5c-2.1-1.9-1.5-3.9-1.5-3.9c0.9,3.1,2.2,3.3,2.4,3.3l-0.2-2.9
						c-0.1-0.1-0.2-0.2-0.2-0.2c-1.1-0.9-0.9-1.8-0.9-1.8l0-1C553.2,12.9,550.6,14.2,551.1,16.9z M554.6,18.8
						c0.9-0.9,0.6-2.1-0.2-2.9L554.6,18.8C554.6,18.8,554.6,18.8,554.6,18.8z"/>
				</g>
				<g>
					<path class="st0" d="M569.4,33.7L569,33c0,0-0.4-0.6,0-1.6c0-0.1,0.1-0.2,0.1-0.2l-0.9-2.2c-0.1,0.1-1,0.6-0.5,3.2
						c0,0-1.2-1.3-0.3-3.4c0,0-1.7,0.6-1.1,2.7C566.9,33.6,569.4,33.7,569.4,33.7z M568.2,29l0.9,2.2
						C569.4,30.3,569.3,29.3,568.2,29C568.3,29,568.3,29,568.2,29z"/>
					<path class="st0" d="M562.9,34.8l0.2-0.7c0,0,0.1-0.8,1.2-1.3c0.1,0,0.2-0.1,0.2-0.1l0.9-2.2c-0.1,0-1.2-0.1-2.7,2.2
						c0,0,0-1.6,2.2-2.8c0,0-1.7-0.5-2.7,1.5C561.2,33.3,562.9,34.8,562.9,34.8z M565.4,30.5l-0.9,2.2
						C565.4,32.2,565.9,31.3,565.4,30.5C565.4,30.4,565.4,30.5,565.4,30.5z"/>
					<path class="st0" d="M564.1,29.2c2.4,0.3,2.9-1.2,2.9-1.2c-2.3,1-3.8,0-3.8,0c2.9,0.2,3.5-0.7,3.5-0.8l-2.5-0.6
						c-0.1,0-0.2,0.1-0.3,0.1c-1.1,0.5-1.8,0.2-1.8,0.2l-0.8-0.2C561.3,26.7,561.7,28.8,564.1,29.2z M566.7,27.2
						c-0.5-0.9-1.6-0.9-2.5-0.6L566.7,27.2C566.7,27.2,566.7,27.2,566.7,27.2z"/>
				</g>
				<g>
					<path class="st0" d="M627.3,25.6l0.3-0.7c0,0,0.2-0.7,1.3-1.2c0.1,0,0.2-0.1,0.3-0.1l1-2.2c-0.1,0-1.2-0.1-2.9,2
						c0,0,0.1-1.6,2.4-2.6c0,0-1.6-0.6-2.8,1.3C625.7,23.9,627.3,25.6,627.3,25.6z M630.2,21.4l-1,2.2
						C630,23.1,630.6,22.2,630.2,21.4C630.2,21.4,630.2,21.4,630.2,21.4z"/>
					<path class="st0" d="M621.8,22.4l0.7-0.4c0,0,0.7-0.5,1.8-0.2c0.1,0,0.2,0,0.3,0l2.3-1.1c-0.1-0.1-0.8-0.8-3.6,0
						c0,0,1.3-1.2,3.7-0.7c0,0-0.8-1.4-3.1-0.6C621.8,20.2,621.8,22.4,621.8,22.4z M627,20.7l-2.3,1.1
						C625.6,21.9,626.8,21.7,627,20.7C627,20.7,627,20.7,627,20.7z"/>
					<path class="st0" d="M627.1,18.9c1.4,1.7,3,0.9,3,0.9c-2.4-0.7-2.7-2.3-2.7-2.3c1.9,1.9,3,1.7,3.1,1.6l-1.3-2
						c-0.1,0-0.2-0.1-0.3-0.1c-1.1-0.3-1.4-1-1.4-1l-0.4-0.7C627,15.3,625.6,17.2,627.1,18.9z M630.4,19.1c0.3-0.9-0.4-1.7-1.3-2
						L630.4,19.1C630.4,19.1,630.4,19.1,630.4,19.1z"/>
				</g>
				<path class="st0" d="M637.2,22.1c7.7,0,11.4-2.5,11.5-2.7c0.2-0.2,0.3-0.5,0.1-0.7c-0.2-0.2-0.5-0.3-0.7-0.1c0,0-5,3.4-15.4,2.2
					c-0.3,0-0.5,0.2-0.6,0.5c0,0.3,0.2,0.6,0.5,0.6C634.2,22,635.8,22.1,637.2,22.1z"/>
			</g>
		</g>
	</g>
</g>
<g>
	<path class="st1" d="M155.7,38.3c-1.9,0.7-2.9,2.6-2.3,4.3c0.6,1.6,2.2,2.3,3.7,1.5c1.6-0.8,2.8-2.6,2.7-4.1c0,0,0-0.1,0-0.1
		l-2.6-15.5c0.9,0.3,3.2,1,6.6,2.5c4,1.8,4.5,4.8,2.3,7.1c-1,1.2-1.9,2-1.9,2l0.6-0.3L166,35c4.1-3.1,3.8-4.2,2.7-6.7
		c-1.2-2.2-6.5-5.6-12.5-8.1c-0.1,0-0.1-0.1-0.2-0.1c0,0-0.1,0-0.1,0c0,0,0,0,0,0l0,0c-0.1,0-0.1,0-0.2,0c-0.3,0-0.6,0.1-0.5,0.3
		l3.8,18.1C158.2,38,157,37.9,155.7,38.3z"/>
	<path class="st1" d="M219.9,30.8c2.4,0.2,4.8-1.1,5.4-2.9c0.5-1.8-1.1-3.3-3.5-3.5c-2.4-0.2-4.7,1-5.3,2.7c0,0-0.1,0.1-0.1,0.1
		l-6.5,21.4c-0.1,0.2,0.1,0.4,0.3,0.5c0,0,0.1,0,0.1,0l0,0c0,0,0,0,0,0c0,0,0.1,0,0.1,0c0,0,0,0,0.1,0c4.4-1.5,9.2-4.4,11.1-6.7
		c2.1-2.7,3-3.9,0.7-8.3l-0.9-1.1l-0.5-0.4c0,0,0.6,1.1,1.1,2.6c1,3.1-0.8,6.5-4.6,7.9c-2.9,1-4.7,1.4-5.3,1.5l4.7-15.4
		C217.1,30.1,218.3,30.7,219.9,30.8z"/>
	<path class="st1" d="M139.1,31.4c-0.9,0.5-1.6,0.7-1.6,0.7l0.4,0l0.9-0.2c3.1-0.9,3.2-1.7,3.3-3.6c0-1.7-1.8-5-4.2-7.6
		c0,0-0.1-0.1-0.1-0.1c0,0,0,0,0,0c0,0,0,0,0,0l0,0c0,0-0.1,0-0.1-0.1c-0.2-0.1-0.3,0-0.4,0.1l-3.4,11.4c-0.3-0.5-1-1-1.9-1.1
		c-1.3-0.2-2.5,0.6-2.6,1.7c-0.1,1.1,0.7,2,1.9,2.1c1.1,0.1,2.3-0.6,2.7-1.5c0,0,0-0.1,0-0.1l3.1-9.8c0.4,0.3,1.4,1.3,2.8,3
		C141.5,28.4,140.9,30.5,139.1,31.4z"/>
	<path class="st1" d="M325.1,15.1c-1.4,0.4-2.6,1.5-2.6,2.4c-0.1,0.9,1,1.1,2.5,0.6c1.4-0.5,2.5-1.5,2.6-2.2c0,0,0,0,0-0.1V9.2V8
		V5.9c0-0.1-0.1-0.2-0.2-0.2l-6.8,1.4c-0.1,0-0.2,0.1-0.2,0.2l-0.5,2.5l-0.2,1.3l-1.2,6.5c-0.4-0.3-1.1-0.3-2,0
		c-1.5,0.5-2.9,1.7-3.1,2.7c-0.2,1,0.8,1.3,2.4,0.7c1.5-0.5,2.8-1.6,3-2.5c0,0,0-0.1,0-0.1l1.3-7.4l7.1-1.8l-0.1,5.8
		C326.7,14.8,326,14.8,325.1,15.1z M320.3,9.8l0.3-1.4l6.7-1.5l0,1.2L320.3,9.8z"/>
	<path class="st1" d="M120.7,36.3c1.2,0.1,2.5-0.6,2.7-1.5c0.3-0.9-0.5-1.7-1.8-1.8c-1.2-0.1-2.4,0.5-2.7,1.4c0,0,0,0,0,0.1
		l-3.3,10.9c0,0.1,0,0.2,0.1,0.2c0,0,0,0,0,0l0,0c0,0,0,0,0,0c0,0,0,0,0.1,0c0,0,0,0,0,0c2.2-0.8,4.7-2.2,5.6-3.4
		c1.1-1.4,1.5-2,0.3-4.2l-0.4-0.6l-0.3-0.2c0,0,0.3,0.6,0.6,1.3c0.5,1.6-0.4,3.3-2.3,4c-1.5,0.5-2.4,0.7-2.7,0.8l2.4-7.8
		C119.3,35.9,119.9,36.3,120.7,36.3z"/>
	<path class="st1" d="M355.6,14.6c-1.3,0.6-2.5,1.8-2.8,2.7c-0.2,0.9,0.5,1.1,1.7,0.4c1.2-0.6,2.4-1.8,2.8-2.6c0,0,0-0.1,0-0.1
		l2.7-6.9l0.5-1.2l0.9-2.2c0-0.1,0-0.2-0.2-0.2l-9.2,2.5c-0.1,0-0.2,0.1-0.3,0.2l-0.5,2.6l-0.3,1.3l-1.4,6.7
		c-0.3-0.2-0.9-0.2-1.7,0.2c-1.2,0.7-2.3,2-2.4,3c-0.1,1,0.7,1.2,1.8,0.5c1.1-0.7,2.2-1.9,2.4-2.8c0,0,0-0.1,0-0.1l1.6-7.6l8.2-2.8
		l-2.3,6.1C357.1,14.2,356.4,14.3,355.6,14.6z M351.7,9.8l0.3-1.4l8.5-2.5l-0.5,1.3L351.7,9.8z"/>
	<path class="st1" d="M264.1,31.7c1.1-0.3,2-1.1,2.1-1.8c0.1-0.7-0.6-1.1-1.7-0.8c-1,0.3-1.9,1.1-2.1,1.8c0,0,0,0,0,0.1l-1.7,8.9
		c0,0.1,0,0.1,0.1,0.1c0,0,0,0,0,0v0c0,0,0,0,0,0c0,0,0,0,0.1,0c0,0,0,0,0,0c1.8-1.2,3.7-3.1,4.4-4.2c0.8-1.3,1.1-1.8-0.2-3.1
		l-0.4-0.3l-0.2-0.1c0,0,0.3,0.3,0.6,0.8c0.6,1,0,2.5-1.6,3.5c-1.2,0.8-1.9,1.2-2.2,1.4l1.2-6.4C262.9,31.8,263.4,31.9,264.1,31.7z"
		/>
	<path class="st1" d="M233.5,34.7c-1,0.5-1.8,0.8-1.8,0.8l0.4,0l1-0.3c3.6-1.2,3.9-1.8,4.3-3.3c0.3-1.3-1.6-3.6-4.5-5.2
		c0,0-0.1,0-0.1-0.1c0,0,0,0-0.1,0c0,0,0,0,0,0l0,0c0,0-0.1,0-0.1,0c-0.2,0-0.5,0-0.5,0.1l-4.2,9.2c-0.4-0.4-1.2-0.6-2.1-0.6
		c-1.5,0-2.6,0.8-2.4,1.7c0.2,0.9,1.2,1.5,2.3,1.5c1.1-0.1,2.1-0.8,2.4-1.6c0,0,0,0,0-0.1l3.5-8c0.5,0.2,1.7,0.8,3.3,1.9
		C236.7,32,235.7,33.7,233.5,34.7z"/>
	<path class="st1" d="M178.5,37.5c0.8-0.2,1.5-0.9,1.5-1.5c0-0.7-0.7-1-1.6-0.8c-0.8,0.2-1.5,0.8-1.5,1.5c0,0,0,0,0,0.1v8
		c0,0.1,0.1,0.1,0.1,0.1c0,0,0,0,0,0v0c0,0,0,0,0,0c0,0,0,0,0,0c0,0,0,0,0,0c1.3-1,2.7-2.5,3.1-3.4c0.5-1.1,0.6-1.6-0.6-2.9
		l-0.4-0.3l-0.2-0.1c0,0,0.3,0.3,0.6,0.8c0.6,0.9,0.4,2.3-0.8,3.2c-0.9,0.7-1.4,1-1.7,1.1v-5.7C177.5,37.6,177.9,37.6,178.5,37.5z"
		/>
	<path class="st1" d="M336.3,20.2c1.2-0.3,2.1-1.2,2.1-2.1c0-0.9-1-1.4-2.1-1.1c-1.1,0.3-2,1.2-2.1,2c0,0,0,0.1,0,0.1v11
		c0,0.1,0.1,0.2,0.2,0.2c0,0,0,0,0,0v0c0,0,0,0,0,0c0,0,0,0,0.1,0c0,0,0,0,0,0c1.8-1.3,3.7-3.4,4.3-4.7c0.6-1.6,0.9-2.3-0.9-4
		l-0.6-0.4L337,21c0,0,0.4,0.4,0.9,1.1c0.9,1.3,0.5,3.2-1.1,4.4c-1.2,0.9-2,1.3-2.3,1.5v-7.9C334.9,20.3,335.6,20.4,336.3,20.2z"/>
	<path class="st1" d="M775.9,21.2c0.8-0.2,1.4-0.8,1.4-1.4c0-0.6-0.7-1-1.5-0.8c-0.8,0.2-1.4,0.8-1.4,1.4c0,0,0,0,0,0.1V28
		c0,0.1,0.1,0.1,0.1,0.1c0,0,0,0,0,0v0c0,0,0,0,0,0c0,0,0,0,0,0c0,0,0,0,0,0c1.3-0.9,2.5-2.3,2.9-3.2c0.4-1.1,0.6-1.5-0.6-2.7
		l-0.4-0.3l-0.2-0.1c0,0,0.3,0.3,0.6,0.7c0.6,0.9,0.4,2.2-0.7,3c-0.8,0.6-1.4,0.9-1.6,1V21C775,21.3,775.4,21.4,775.9,21.2z"/>
	<path class="st1" d="M756.5,25.5c-1.9,0.6-3.6,2.1-3.8,3.4c-0.1,1.2,1.5,1.6,3.6,0.9c2-0.7,3.6-2.1,3.7-3.2c0,0,0-0.1,0-0.1v-9.3
		v-1.6v-3c0-0.1-0.1-0.2-0.2-0.2l-9.6,2c-0.1,0-0.3,0.1-0.3,0.3l-0.7,3.6l-0.3,1.8l-1.7,9.2c-0.6-0.4-1.6-0.4-2.9,0
		c-2.1,0.7-4.1,2.4-4.4,3.8c-0.4,1.4,1.2,1.8,3.4,1c2.1-0.7,4-2.3,4.3-3.6c0,0,0-0.1,0.1-0.1l1.9-10.5l10.1-2.6l-0.1,8.2
		C758.7,25.1,757.7,25.1,756.5,25.5z M749.7,18l0.4-2l9.4-2.2l0,1.8L749.7,18z"/>
	<path class="st1" d="M249.5,42.8c-1.1,0.4-2.1,1.2-2.1,1.9c-0.1,0.7,0.8,0.9,2,0.5c1.1-0.4,2-1.2,2.1-1.8c0,0,0,0,0-0.1V38v-0.9
		v-1.7c0-0.1-0.1-0.1-0.1-0.1l-5.5,1.1c-0.1,0-0.2,0.1-0.2,0.2l-0.4,2.1l-0.2,1l-1,5.2c-0.3-0.2-0.9-0.2-1.6,0
		c-1.2,0.4-2.3,1.4-2.5,2.1c-0.2,0.8,0.7,1,1.9,0.6c1.2-0.4,2.3-1.3,2.4-2c0,0,0,0,0-0.1l1.1-6l5.7-1.5l-0.1,4.7
		C250.8,42.6,250.2,42.6,249.5,42.8z M245.7,38.5l0.2-1.1l5.4-1.2l0,1L245.7,38.5z"/>
	<path class="st1" d="M276.3,39.1c-0.6,0.3-1.2,0.5-1.2,0.5l0.3,0l0.6-0.2c2.3-0.8,2.5-1.2,2.8-2.1c0.2-0.8-1-2.3-2.9-3.4
		c0,0,0,0-0.1,0c0,0,0,0,0,0c0,0,0,0,0,0l0,0c0,0-0.1,0-0.1,0c-0.2,0-0.3,0-0.3,0.1l-2.7,6c-0.2-0.3-0.8-0.4-1.4-0.4
		c-1,0-1.7,0.5-1.6,1.1c0.1,0.6,0.8,1,1.5,0.9c0.7,0,1.4-0.5,1.6-1c0,0,0,0,0,0l2.3-5.2c0.3,0.1,1.1,0.5,2.2,1.2
		C278.4,37.4,277.7,38.5,276.3,39.1z"/>
	<path class="st1" d="M727.7,11.3c1.1,0.5,2.4,0.3,2.9-0.4c0.5-0.7,0.1-1.7-1-2.1c-1-0.5-2.3-0.3-2.8,0.4c0,0,0,0-0.1,0.1l-6.4,8.6
		c-0.1,0.1,0,0.2,0,0.3c0,0,0,0,0,0l0,0c0,0,0,0,0,0c0,0,0,0,0.1,0c0,0,0,0,0,0c2.2,0,4.9-0.5,6.1-1.2c1.4-0.9,2-1.3,1.7-3.6
		l-0.2-0.7l-0.2-0.3c0,0,0.1,0.6,0.1,1.4c-0.1,1.5-1.4,2.8-3.4,2.8c-1.5,0-2.3-0.1-2.7-0.2l4.6-6.2C726.5,10.5,727,11,727.7,11.3z"
		/>
	<path class="st1" d="M743.8,3.3l-0.5,9.1c-0.3-0.3-0.9-0.5-1.5-0.5c-1,0.1-1.7,0.9-1.6,1.7c0.1,0.8,0.8,1.4,1.6,1.2
		c0.8-0.2,1.6-0.9,1.8-1.6c0,0,0,0,0-0.1l0.7-7.7c0.4,0.2,1.4,0.9,2.8,2c1.7,1.4,1.5,2.8,0.2,3.7c-0.6,0.4-1.1,0.7-1.1,0.7l0.3-0.1
		l0.7-0.2c2.4-1,2.4-1.5,2.1-2.8c-0.3-1.2-2.4-3.5-4.9-5.4c0,0-0.1,0-0.1-0.1c0,0,0,0,0,0c0,0,0,0,0,0l0,0c0,0-0.1,0-0.1,0
		C744,3.2,743.8,3.2,743.8,3.3z"/>
	<path class="st1" d="M748.2,35.4l-0.5,9.1c-0.3-0.3-0.9-0.5-1.5-0.5c-1,0.1-1.7,0.9-1.6,1.7c0.1,0.8,0.8,1.4,1.6,1.2
		c0.8-0.2,1.6-0.9,1.8-1.6c0,0,0,0,0-0.1l0.7-7.7c0.4,0.2,1.4,0.9,2.8,2c1.7,1.4,1.5,2.8,0.2,3.7c-0.6,0.4-1.1,0.7-1.1,0.7l0.3-0.1
		l0.7-0.2c2.4-1,2.4-1.5,2.1-2.8c-0.3-1.2-2.4-3.5-4.9-5.4c0,0-0.1,0-0.1-0.1c0,0,0,0,0,0c0,0,0,0,0,0l0,0c0,0-0.1,0-0.1,0
		C748.4,35.3,748.2,35.3,748.2,35.4z"/>
	<path class="st1" d="M835.3,27.9c-0.6,0.3-1.2,0.5-1.2,0.5l0.3,0l0.7-0.1c2.3-0.7,2.4-1.3,2.5-2.7c0-1.2-1.3-3.6-3.1-5.6
		c0,0,0,0-0.1-0.1c0,0,0,0,0,0c0,0,0,0,0,0l0,0c0,0,0,0-0.1,0c-0.1-0.1-0.3,0-0.3,0.1l-2.5,8.4c-0.2-0.4-0.7-0.7-1.4-0.8
		c-1-0.1-1.8,0.4-1.9,1.2c-0.1,0.8,0.5,1.5,1.4,1.6c0.8,0.1,1.7-0.4,2-1.1c0,0,0,0,0-0.1l2.3-7.2c0.3,0.2,1,0.9,2.1,2.2
		C837.1,25.7,836.6,27.2,835.3,27.9z"/>
	<path class="st1" d="M896.4,12.3c-0.5,0.3-1,0.5-1,0.5l0.2,0l0.6-0.1c2-0.6,2.1-1.1,2.1-2.3c0-1.1-1.1-3.1-2.7-4.8c0,0,0,0-0.1-0.1
		c0,0,0,0,0,0c0,0,0,0,0,0l0,0c0,0,0,0-0.1,0c-0.1,0-0.2,0-0.2,0.1l-2.2,7.2c-0.2-0.3-0.6-0.6-1.2-0.7c-0.9-0.1-1.6,0.4-1.7,1.1
		c-0.1,0.7,0.4,1.3,1.2,1.4c0.7,0.1,1.5-0.4,1.7-1c0,0,0,0,0-0.1l2-6.2c0.2,0.2,0.9,0.8,1.8,1.9C898,10.4,897.6,11.7,896.4,12.3z"/>
	<path class="st1" d="M801.9,16.1c1.4,0.6,3.2,0.4,3.8-0.6c0.7-0.9,0.1-2.2-1.4-2.8c-1.4-0.6-3-0.4-3.8,0.5c0,0-0.1,0-0.1,0.1
		L792,24.7c-0.1,0.1-0.1,0.3,0.1,0.4c0,0,0,0,0.1,0l0,0c0,0,0,0,0,0c0,0,0,0,0.1,0c0,0,0,0,0.1,0c2.9,0.1,6.5-0.6,8.1-1.6
		c1.9-1.1,2.7-1.7,2.2-4.8l-0.3-0.9l-0.2-0.3c0,0,0.1,0.8,0.1,1.8c-0.1,2.1-1.9,3.7-4.5,3.7c-2,0-3.1-0.2-3.5-0.3l6.2-8.3
		C800.4,15.1,801,15.8,801.9,16.1z"/>
	<path class="st1" d="M823.4,5.6l-0.6,12.1c-0.4-0.5-1.2-0.7-2-0.7c-1.3,0.1-2.3,1.2-2.2,2.3c0.1,1.1,1,1.8,2.1,1.6
		c1.1-0.2,2.2-1.1,2.4-2.1c0,0,0-0.1,0-0.1l1-10.2c0.5,0.3,1.8,1.2,3.7,2.7c2.2,1.8,2,3.8,0.2,4.9c-0.8,0.6-1.5,0.9-1.5,0.9l0.4-0.1
		l0.9-0.3c3.1-1.3,3.1-2,2.8-3.7c-0.4-1.6-3.1-4.6-6.5-7.2c0,0-0.1-0.1-0.1-0.1c0,0,0,0-0.1,0c0,0,0,0,0,0l0,0c0,0-0.1,0-0.1-0.1
		C823.6,5.4,823.4,5.5,823.4,5.6z"/>
	<path class="st1" d="M882.4,37.9C882.4,37.9,882.4,37.9,882.4,37.9l3.4-8c0-0.1,0-0.1-0.1-0.1c-0.1,0-0.2,0.1-0.3,0.2l-3,7.2
		c-0.2-0.3-0.6-0.4-1.2-0.4c-0.9,0.1-1.7,0.6-1.9,1.1c-0.1,0.6,0.4,1,1.1,1.1C881.2,39.1,882.1,38.6,882.4,37.9z"/>
	<path class="st1" d="M638.7,6.8l2.7,4.1c-0.3,0-0.6,0.1-0.8,0.3c-0.4,0.4-0.5,0.9-0.2,1.3c0.3,0.3,0.8,0.3,1.2,0
		c0.3-0.3,0.4-0.9,0.2-1.3c0,0,0,0,0,0l-2.2-3.6c0.2,0,0.8-0.1,1.7-0.1c1.1,0.1,1.6,0.8,1.4,1.6c-0.1,0.4-0.2,0.7-0.2,0.7l0.1-0.1
		l0.2-0.3c0.5-1.2,0.3-1.5-0.3-2c-0.5-0.5-2-0.8-3.5-0.7c0,0,0,0,0,0c0,0,0,0,0,0c0,0,0,0,0,0l0,0c0,0,0,0,0,0
		C638.7,6.7,638.7,6.8,638.7,6.8z"/>
	<path class="st1" d="M871.5,36.7l-0.2-0.1c0,0,0.4,0.3,0.7,0.9c0.7,1,0.4,2.5-0.8,3.5c-1,0.7-1.6,1-1.8,1.2v-6.3
		c0.3,0.3,0.8,0.4,1.4,0.2c0.9-0.2,1.7-1,1.7-1.7c0-0.7-0.8-1.1-1.7-0.9c-0.9,0.2-1.6,0.9-1.7,1.6c0,0,0,0,0,0.1v8.7
		c0,0.1,0.1,0.2,0.2,0.2c0,0,0,0,0,0v0c0,0,0,0,0,0c0,0,0,0,0,0c0,0,0,0,0,0c1.5-1,3-2.7,3.4-3.8c0.5-1.2,0.7-1.8-0.7-3.2
		L871.5,36.7z"/>
	<path class="st1" d="M509.4,33.2c1.8,0.1,3.5-0.8,3.9-2.1c0.4-1.3-0.8-2.4-2.5-2.5c-1.7-0.1-3.4,0.7-3.8,1.9c0,0,0,0.1-0.1,0.1
		l-4.7,15.5c0,0.2,0,0.3,0.2,0.4c0,0,0,0,0.1,0l0,0c0,0,0,0,0,0c0,0,0.1,0,0.1,0c0,0,0,0,0.1,0c3.2-1.1,6.7-3.2,8-4.8
		c1.6-1.9,2.2-2.8,0.5-6l-0.6-0.8l-0.4-0.3c0,0,0.4,0.8,0.8,1.9c0.7,2.2-0.6,4.7-3.4,5.7c-2.1,0.7-3.4,1-3.9,1.1l3.4-11.2
		C507.5,32.7,508.3,33.1,509.4,33.2z"/>
	<path class="st1" d="M628.3,37.9c-0.7,0.3-1.3,0.9-1.4,1.4c-0.1,0.5,0.3,0.6,0.9,0.2c0.6-0.3,1.2-0.9,1.4-1.3c0,0,0,0,0,0l1.4-3.5
		l0.2-0.6l0.4-1.1c0-0.1,0-0.1-0.1-0.1l-4.7,1.3c-0.1,0-0.1,0.1-0.1,0.1l-0.3,1.3l-0.1,0.7l-0.7,3.4c-0.2-0.1-0.5-0.1-0.9,0.1
		c-0.6,0.3-1.2,1-1.2,1.5c-0.1,0.5,0.4,0.6,0.9,0.3c0.6-0.3,1.1-1,1.2-1.5c0,0,0,0,0,0l0.8-3.9l4.2-1.4l-1.2,3.1
		C629,37.7,628.7,37.7,628.3,37.9z M626.3,35.4l0.2-0.7l4.4-1.3l-0.3,0.7L626.3,35.4z"/>
	<path class="st1" d="M688.4,28.4c-1.5,0.8-2.7,1.2-2.7,1.2l0.7,0l1.5-0.3c5.3-1.6,5.5-3,5.7-6.2c0-2.9-3-8.4-7.2-12.9
		c0-0.1-0.1-0.1-0.1-0.1c0,0,0-0.1-0.1-0.1c0,0,0,0,0,0l0,0c0,0-0.1-0.1-0.2-0.1c-0.3-0.1-0.6-0.1-0.7,0.1l-5.8,19.3
		c-0.5-0.9-1.7-1.7-3.1-1.9c-2.3-0.3-4.2,1-4.4,2.8c-0.2,1.9,1.2,3.5,3.1,3.6c1.9,0.2,3.9-1,4.5-2.5c0,0,0.1-0.1,0.1-0.1l5.3-16.6
		c0.7,0.6,2.4,2.1,4.8,5C692.5,23.3,691.5,26.9,688.4,28.4z"/>
	<path class="st1" d="M864.3,16.3c-0.9,0.2-1.8,1-1.9,1.6c0,0,0,0,0,0.1l-1.5,8.1c0,0.1,0,0.1,0.1,0.1c0,0,0,0,0,0v0c0,0,0,0,0,0
		c0,0,0,0,0,0c0,0,0,0,0,0c1.6-1.1,3.4-2.8,4-3.8c0.7-1.2,1-1.7-0.1-2.8l-0.4-0.3l-0.2-0.1c0,0,0.3,0.3,0.6,0.7
		c0.5,0.9,0,2.2-1.4,3.2c-1.1,0.8-1.8,1.1-2,1.3l1.1-5.8c0.3,0.2,0.8,0.3,1.4,0.1c1-0.3,1.8-1,2-1.6C866,16.4,865.3,16,864.3,16.3z"
		/>
	<path class="st1" d="M615.4,15.5c-1.1,0.4-2.1,1.3-2.2,2c-0.1,0.7,0.9,1,2.1,0.5c1.2-0.4,2.1-1.2,2.1-1.9c0,0,0,0,0-0.1v-5.5V9.7
		V7.9c0-0.1-0.1-0.1-0.1-0.1L611.7,9c-0.1,0-0.2,0.1-0.2,0.2l-0.4,2.1l-0.2,1.1l-1,5.4c-0.3-0.2-0.9-0.3-1.7,0
		c-1.2,0.4-2.4,1.4-2.6,2.2c-0.2,0.8,0.7,1.1,2,0.6c1.2-0.4,2.3-1.4,2.5-2.1c0,0,0,0,0-0.1l1.1-6.1l5.9-1.5l-0.1,4.8
		C616.7,15.3,616.1,15.3,615.4,15.5z M611.4,11.2l0.2-1.1l5.5-1.3l0,1L611.4,11.2z"/>
	<path class="st1" d="M668.8,10.7c-0.6-0.5-2.4-0.1-4.1,1.1c0,0,0,0-0.1,0c0,0,0,0,0,0c0,0,0,0,0,0l0,0c0,0,0,0,0,0.1
		c-0.1,0.1-0.1,0.3-0.1,0.3l4,4.8c-0.3,0.1-0.7,0.5-0.9,1c-0.4,0.8-0.3,1.6,0.3,1.8c0.5,0.1,1.2-0.3,1.4-0.9
		c0.2-0.6,0.1-1.4-0.2-1.8c0,0,0,0,0,0l-3.5-4.1c0.2-0.2,0.9-0.8,1.9-1.3c1.2-0.6,1.9,0.4,1.9,1.9c0,0.7,0,1.2,0,1.2l0.1-0.2
		l0.1-0.6C669.7,11.7,669.5,11.3,668.8,10.7z"/>
	<path class="st1" d="M885,24.5c-0.8,0.4-1.6,1.2-1.8,1.8c-0.2,0.6,0.3,0.7,1.1,0.3c0.8-0.4,1.5-1.1,1.8-1.7c0,0,0,0,0-0.1l1.7-4.5
		l0.3-0.8l0.6-1.4c0-0.1,0-0.1-0.1-0.1l-5.9,1.6c-0.1,0-0.2,0.1-0.2,0.2l-0.4,1.7l-0.2,0.9l-0.9,4.3c-0.2-0.2-0.6-0.1-1.1,0.1
		c-0.8,0.4-1.5,1.3-1.6,1.9c-0.1,0.6,0.5,0.8,1.2,0.3c0.7-0.4,1.4-1.2,1.6-1.8c0,0,0,0,0-0.1l1.1-4.9l5.3-1.8l-1.5,3.9
		C885.9,24.2,885.5,24.2,885,24.5z M882.5,21.3l0.2-0.9l5.5-1.6l-0.3,0.8L882.5,21.3z"/>
	<path class="st1" d="M883.3,17.7c-0.8,0.4-1.4,0.6-1.4,0.6l0.3,0l0.8-0.1c2.7-0.8,2.8-1.5,2.9-3.2c0-1.5-1.6-4.3-3.7-6.6
		c0,0,0,0-0.1-0.1c0,0,0,0,0,0c0,0,0,0,0,0l0,0c0,0-0.1,0-0.1,0c-0.2-0.1-0.3,0-0.3,0.1l-3,9.9c-0.3-0.5-0.9-0.9-1.6-1
		c-1.2-0.2-2.2,0.5-2.3,1.5c-0.1,1,0.6,1.8,1.6,1.9c1,0.1,2-0.5,2.3-1.3c0,0,0,0,0-0.1l2.7-8.5c0.3,0.3,1.2,1.1,2.4,2.6
		C885.4,15.1,884.9,16.9,883.3,17.7z"/>
	<path class="st1" d="M590.4,4.3c0.9-0.2,1.7-0.9,1.8-1.5c0.1-0.6-0.5-0.9-1.4-0.7C590,2.4,589.2,3,589,3.6c0,0,0,0,0,0.1l-1.4,7.4
		c0,0.1,0,0.1,0.1,0.1c0,0,0,0,0,0v0c0,0,0,0,0,0c0,0,0,0,0,0c0,0,0,0,0,0c1.5-1,3.1-2.5,3.6-3.5c0.6-1.1,0.9-1.5-0.1-2.5L591,4.9
		l-0.2-0.1c0,0,0.3,0.3,0.5,0.7c0.5,0.8,0,2-1.3,2.9c-1,0.7-1.6,1-1.8,1.1l1-5.3C589.4,4.4,589.9,4.5,590.4,4.3z"/>
	<path class="st1" d="M565,6.8c-0.8,0.4-1.5,0.6-1.5,0.6l0.3,0l0.8-0.2c2.9-1,3.2-1.5,3.6-2.7c0.2-1.1-1.3-2.9-3.7-4.4
		c0,0-0.1,0-0.1,0c0,0,0,0,0,0c0,0,0,0,0,0l0,0c0,0-0.1,0-0.1,0c-0.2,0-0.4,0-0.4,0.1l-3.4,7.7c-0.3-0.3-1-0.5-1.7-0.5
		c-1.2,0-2.1,0.6-2,1.4c0.1,0.7,1,1.3,1.9,1.2c0.9-0.1,1.8-0.6,2-1.3c0,0,0,0,0-0.1l2.9-6.6c0.4,0.2,1.4,0.7,2.8,1.6
		C567.6,4.6,566.8,6,565,6.8z"/>
	<path class="st1" d="M678.6,8.2c1.1-0.3,2-1.2,2-2c0-0.8-0.9-1.3-2-1.1c-1.1,0.2-1.9,1.1-2,1.9c0,0,0,0,0,0.1v10.4
		c0,0.1,0.1,0.2,0.2,0.2c0,0,0,0,0,0v0c0,0,0,0,0,0c0,0,0,0,0.1,0c0,0,0,0,0,0c1.7-1.2,3.5-3.2,4-4.5c0.6-1.5,0.8-2.1-0.8-3.8
		L679.6,9l-0.3-0.1c0,0,0.4,0.4,0.8,1c0.8,1.2,0.5,3-1,4.1c-1.1,0.8-1.9,1.2-2.2,1.4V7.9C677.3,8.2,677.9,8.3,678.6,8.2z"/>
	<path class="st1" d="M624.7,19.8c1-0.2,1.8-1,1.7-1.8c0-0.7-0.8-1.2-1.8-0.9c-0.9,0.2-1.7,1-1.7,1.7c0,0,0,0,0,0.1V28
		c0,0.1,0.1,0.2,0.2,0.2c0,0,0,0,0,0v0c0,0,0,0,0,0c0,0,0,0,0,0c0,0,0,0,0,0c1.5-1.1,3.1-2.8,3.5-3.9c0.5-1.3,0.7-1.9-0.7-3.3
		l-0.5-0.3l-0.2-0.1c0,0,0.4,0.4,0.7,0.9c0.7,1.1,0.4,2.6-0.9,3.6c-1,0.7-1.7,1.1-1.9,1.2v-6.6C623.6,19.9,624.1,20,624.7,19.8z"/>
	<path class="st1" d="M779.9,11c0.9-0.7,1.3-2,1-2.8c-0.4-0.8-1.5-0.8-2.4-0.1c-0.9,0.7-1.3,1.9-1,2.7c0,0,0,0.1,0,0.1l4.7,9.7
		c0,0.1,0.2,0.1,0.3,0.1c0,0,0,0,0,0l0,0c0,0,0,0,0,0c0,0,0,0,0,0c0,0,0,0,0,0c1.1-1.9,1.8-4.6,1.7-6c-0.1-1.6-0.2-2.4-2.5-3.2
		l-0.7-0.1l-0.3,0c0,0,0.6,0.2,1.2,0.6c1.3,0.8,1.8,2.6,0.9,4.3c-0.7,1.3-1.2,2-1.4,2.3l-3.4-7C778.7,11.6,779.4,11.4,779.9,11z"/>
	<path class="st1" d="M852.5,27.1c0.9,0.1,1.9-0.4,2.1-1.1c0.2-0.7-0.4-1.3-1.4-1.3c-0.9-0.1-1.8,0.4-2,1c0,0,0,0,0,0.1l-2.5,8.3
		c0,0.1,0,0.2,0.1,0.2c0,0,0,0,0,0l0,0c0,0,0,0,0,0c0,0,0,0,0,0c0,0,0,0,0,0c1.7-0.6,3.6-1.7,4.3-2.6c0.8-1,1.2-1.5,0.3-3.2
		l-0.3-0.4l-0.2-0.2c0,0,0.2,0.4,0.4,1c0.4,1.2-0.3,2.5-1.8,3c-1.1,0.4-1.8,0.5-2.1,0.6l1.8-6C851.5,26.8,851.9,27.1,852.5,27.1z"/>
	<path class="st1" d="M578.3,13.5c-0.9,0.3-1.7,1-1.8,1.6c-0.1,0.6,0.7,0.8,1.7,0.4c0.9-0.3,1.7-1,1.7-1.5c0,0,0,0,0-0.1V9.6V8.8
		V7.4c0-0.1-0.1-0.1-0.1-0.1l-4.5,0.9c-0.1,0-0.1,0.1-0.1,0.1l-0.3,1.7l-0.2,0.9l-0.8,4.3c-0.3-0.2-0.8-0.2-1.4,0
		c-1,0.3-1.9,1.1-2.1,1.8c-0.2,0.6,0.6,0.9,1.6,0.5c1-0.4,1.9-1.1,2-1.7c0,0,0,0,0-0.1l0.9-4.9l4.8-1.2l0,3.9
		C579.4,13.4,578.9,13.4,578.3,13.5z M575.1,10l0.2-0.9l4.5-1l0,0.8L575.1,10z"/>
	<path class="st1" d="M600.5,10.5c-0.5,0.3-1,0.4-1,0.4l0.2,0l0.5-0.1c1.9-0.6,2.1-1,2.3-1.8c0.1-0.7-0.8-1.9-2.4-2.8c0,0,0,0-0.1,0
		c0,0,0,0,0,0c0,0,0,0,0,0l0,0c0,0,0,0-0.1,0c-0.1,0-0.3,0-0.3,0.1l-2.2,5c-0.2-0.2-0.6-0.3-1.1-0.3c-0.8,0-1.4,0.4-1.3,0.9
		c0.1,0.5,0.6,0.8,1.2,0.8c0.6,0,1.2-0.4,1.3-0.8c0,0,0,0,0,0l1.9-4.3c0.3,0.1,0.9,0.4,1.8,1C602.2,9.1,601.7,10,600.5,10.5z"/>
	<path class="st1" d="M439.3,10.6c-0.7,0.3-1.3,0.9-1.4,1.4c-0.1,0.5,0.3,0.6,0.9,0.2c0.6-0.3,1.2-0.9,1.4-1.3c0,0,0,0,0,0l1.4-3.5
		l0.2-0.6l0.4-1.1c0-0.1,0-0.1-0.1-0.1l-4.7,1.3c-0.1,0-0.1,0.1-0.1,0.1l-0.3,1.3l-0.1,0.7l-0.7,3.4c-0.2-0.1-0.5-0.1-0.9,0.1
		c-0.6,0.3-1.2,1-1.2,1.5c-0.1,0.5,0.4,0.6,0.9,0.3c0.6-0.3,1.1-1,1.2-1.5c0,0,0,0,0,0l0.8-3.9l4.2-1.4l-1.2,3.1
		C440,10.4,439.7,10.4,439.3,10.6z M437.3,8.2l0.2-0.7l4.4-1.3l-0.3,0.7L437.3,8.2z"/>
	<path class="st1" d="M421.1,14c0.9-0.7,1.3-2,1-2.8c-0.4-0.8-1.5-0.8-2.4-0.1c-0.9,0.7-1.3,1.9-1,2.7c0,0,0,0.1,0,0.1l4.7,9.7
		c0,0.1,0.2,0.1,0.3,0.1c0,0,0,0,0,0l0,0c0,0,0,0,0,0c0,0,0,0,0,0c0,0,0,0,0,0c1.1-1.9,1.8-4.6,1.7-6c-0.1-1.6-0.2-2.4-2.5-3.2
		l-0.7-0.1l-0.3,0c0,0,0.6,0.2,1.2,0.6c1.3,0.8,1.8,2.6,0.9,4.3c-0.7,1.3-1.2,2-1.4,2.3l-3.4-7C419.9,14.6,420.5,14.5,421.1,14z"/>
	<path class="st1" d="M454.3,10.4c1.8-0.5,3.5-1.9,3.7-3.1c0.2-1.2-1.1-1.9-2.9-1.4c-1.8,0.5-3.4,1.8-3.7,3.1c0,0,0,0.1,0,0.1
		l-2.9,15.5c0,0.1,0.1,0.3,0.2,0.2c0,0,0,0,0.1,0l0,0c0,0,0,0,0,0c0,0,0.1,0,0.1,0c0,0,0,0,0.1,0c3.1-2.1,6.5-5.3,7.7-7.3
		c1.4-2.2,1.9-3.2-0.3-5.4l-0.8-0.5l-0.4-0.1c0,0,0.6,0.5,1.1,1.4c1,1.7,0,4.3-2.7,6.2c-2.1,1.4-3.4,2.1-3.9,2.4l2.1-11.2
		C452.2,10.6,453.2,10.7,454.3,10.4z"/>
	<path class="st1" d="M67.2,9.5c-0.7,0.3-1.3,0.9-1.4,1.4c-0.1,0.5,0.3,0.6,0.9,0.2c0.6-0.3,1.2-0.9,1.4-1.3c0,0,0,0,0,0l1.4-3.5
		l0.2-0.6l0.4-1.1c0-0.1,0-0.1-0.1-0.1l-4.7,1.3c-0.1,0-0.1,0.1-0.1,0.1L65,7.1l-0.1,0.7l-0.7,3.4c-0.2-0.1-0.5-0.1-0.9,0.1
		c-0.6,0.3-1.2,1-1.2,1.5c-0.1,0.5,0.4,0.6,0.9,0.3c0.6-0.3,1.1-1,1.2-1.5c0,0,0,0,0,0l0.8-3.9l4.2-1.4l-1.2,3.1
		C68,9.3,67.6,9.3,67.2,9.5z M65.2,7.1l0.2-0.7L69.8,5l-0.3,0.7L65.2,7.1z"/>
	<path class="st1" d="M49,12.9c0.9-0.7,1.3-2,1-2.8c-0.4-0.8-1.5-0.8-2.4-0.1c-0.9,0.7-1.3,1.9-1,2.7c0,0,0,0.1,0,0.1l4.7,9.7
		c0,0.1,0.2,0.1,0.3,0.1c0,0,0,0,0,0l0,0c0,0,0,0,0,0c0,0,0,0,0,0c0,0,0,0,0,0c1.1-1.9,1.8-4.6,1.7-6c-0.1-1.6-0.2-2.4-2.5-3.2
		l-0.7-0.1l-0.3,0c0,0,0.6,0.2,1.2,0.6c1.3,0.8,1.8,2.6,0.9,4.3c-0.7,1.3-1.2,2-1.4,2.3l-3.4-7C47.8,13.5,48.5,13.4,49,12.9z"/>
	<path class="st1" d="M82.2,9.3c1.8-0.5,3.5-1.9,3.7-3.1c0.2-1.2-1.1-1.9-2.9-1.4c-1.8,0.5-3.4,1.8-3.7,3.1c0,0,0,0.1,0,0.1
		l-2.9,15.5c0,0.1,0.1,0.3,0.2,0.2c0,0,0,0,0.1,0l0,0c0,0,0,0,0,0c0,0,0.1,0,0.1,0c0,0,0,0,0.1,0c3.1-2.1,6.5-5.3,7.7-7.3
		c1.4-2.2,1.9-3.2-0.3-5.4l-0.8-0.5l-0.4-0.1c0,0,0.6,0.5,1.1,1.4c1,1.7,0,4.3-2.7,6.2c-2.1,1.4-3.4,2.1-3.9,2.4l2.1-11.2
		C80.1,9.5,81.1,9.6,82.2,9.3z"/>
	<path class="st1" d="M650.9,22c-0.6,0.3-1.1,0.5-1.1,0.5l0.3,0l0.6-0.2c2.2-0.7,2.4-1.1,2.6-2c0.2-0.8-1-2.2-2.8-3.2c0,0,0,0-0.1,0
		c0,0,0,0,0,0c0,0,0,0,0,0l0,0c0,0,0,0-0.1,0c-0.1,0-0.3,0-0.3,0.1l-2.6,5.7c-0.2-0.2-0.7-0.4-1.3-0.4c-0.9,0-1.6,0.5-1.5,1
		c0.1,0.5,0.7,0.9,1.4,0.9c0.7,0,1.3-0.5,1.5-1c0,0,0,0,0,0l2.2-4.9c0.3,0.1,1.1,0.5,2.1,1.2C652.8,20.4,652.2,21.4,650.9,22z"/>
	<path class="st1" d="M653.6,25.8l-0.4,6.8c-0.2-0.3-0.7-0.4-1.1-0.4c-0.7,0.1-1.3,0.7-1.2,1.3c0,0.6,0.6,1,1.2,0.9
		c0.6-0.1,1.2-0.6,1.3-1.2c0,0,0,0,0-0.1l0.5-5.7c0.3,0.2,1,0.7,2.1,1.5c1.3,1,1.1,2.1,0.1,2.7c-0.5,0.3-0.9,0.5-0.9,0.5l0.2,0
		L656,32c1.8-0.7,1.8-1.1,1.6-2.1c-0.2-0.9-1.8-2.6-3.7-4.1c0,0,0,0-0.1,0c0,0,0,0,0,0c0,0,0,0,0,0l0,0c0,0,0,0-0.1,0
		C653.7,25.7,653.6,25.7,653.6,25.8z"/>
</g>
</svg>
