<?xml version="1.0" encoding="utf-8"?>
<!-- Generator: Adobe Illustrator 24.0.3, SVG Export Plug-In . SVG Version: 6.00 Build 0)  -->
<svg version="1.1" id="レイヤー_1" xmlns="http://www.w3.org/2000/svg" xmlns:xlink="http://www.w3.org/1999/xlink" x="0px"
	 y="0px" viewBox="0 0 920 49.2" style="enable-background:new 0 0 920 49.2;" xml:space="preserve">
<style type="text/css">
	.st0{fill:#513813;}
	.st1{fill:#4A9143;}
</style>
<rect x="0" y="22.7" class="st0" width="920" height="3.7"/>
<rect x="0" y="18.4" class="st0" width="920" height="1.8"/>
<g>
	<g>
		<g>
			<g>
				<g>
					<path class="st0" d="M505.6,21.1c-0.1-3.2,2-4.4,2-4.5l0,0c1.8-1.1,4.5,0.1,5.3,1.1c0.9,1.3,0.9,2.9-0.4,4.1
						c-0.5,0.5-1.3,0.7-2.1,0.6c-1-0.1-1.9-0.9-2-2l0-0.5c0-0.2,0.1-0.5,0.1-0.7l0,0l0,0c0.1-0.2,0.4-0.7,0.8-0.9
						c0.1-0.1,0.3-0.2,0.4-0.2c0,0,0.7-0.2,1.2,0.4c0.6,0.7-0.1,1.6-0.1,1.6s-0.8,0.7-1.6,0.3c-0.1,0.9,0.8,1.7,1.5,1.8
						c0.5,0.1,1.2-0.2,1.4-0.3c1.2-0.8,1.3-2.6,0.5-3.7c-0.6-0.8-2.9-1.7-4.4-0.7v0c-0.1,0-1.9,1-1.8,3.8c0,2.7,3.7,6,4.2,6.4l0,0
						c0,0,4.5,3.2,7.4,2.6c2.9-0.6,3.4-2.5,3.4-2.6l0,0c0.6-1.6-0.8-3.6-1.7-4c-0.6-0.2-1.3-0.3-1.9-0.1c1.5,0,3.7,1.9,2,3.9
						c-0.1,0.1-0.2,0.2-0.3,0.3c0,0-0.1,0.1-0.1,0.1c0,0-0.5,0.4-1.2,0.4l-0.1,0c-1.1,0.1-2.2-0.6-2.5-1.5c-0.3-0.7-0.1-1.5,0.2-2.1
						c0.8-1.6,3.2-2.7,5.7-1.3c1.1,0.6,1.9,2.8,1.2,4.7h0c0,0.1-1.4,2.3-4.6,2.9c-3.1,0.6-7.6-2.6-7.9-2.8l0,0
						C510.1,27.8,505.7,24.3,505.6,21.1z"/>
					<path class="st0" d="M542,20c0.1,0.1,2.9,2.9,0.4,7c-2.5,4.1-12.1,5.8-12.4,5.8v0c-1.1,0.2-5,0.9-10.6,0
						c-7.1-1-11.7-5.5-12.6-6.4h0c0,0,0,0,0,0c-0.1-0.1-0.1-0.1-0.1-0.1l0,0c-0.8-0.9-4.7-5-8.1-5.1c-3.7-0.1-5,2.1-5,2.2h0
						c-1.2,1.8-0.2,4.6,0.9,5.4c1.5,1,3.8,0.9,4.9-0.5c0.2-0.3,0.5-1.2,0.5-1.7c-0.1-0.8-1.2-2-2.3-1.9c0.6,1-0.4,2-0.4,2
						s-1.1,0.9-2.1,0.1c-0.7-0.5-0.5-1.4-0.5-1.4c0.1-0.2,0.2-0.4,0.3-0.5c0.4-0.6,1-0.9,1.3-1l0,0l0,0c0.3-0.1,0.7-0.2,0.9-0.2
						l0.6,0c1.4,0.2,2.5,1.4,2.6,2.5c0.1,1-0.2,1.9-0.9,2.6c-1.6,1.6-3.7,1.6-5.4,0.4c-1.2-0.9-2.7-4.2-1.3-6.4l0,0
						c0.1-0.1,1.6-2.5,5.8-2.4c3.8,0.1,7.8,4.7,8.7,5.6l0,0c0,0.1,4.8,5.3,12.3,6.4c6.3,1,10.3-0.1,10.3-0.2l0,0
						c0.6-0.1,8.2-1.7,10.4-5.3c2.2-3.7,0.6-6.2,0.5-6.3h0c-1.3-2.3-4.9-2.8-6.3-2.2c-2,0.9-3.1,3.3-2.2,5.2c0.2,0.4,1,1.2,1.6,1.5
						c1,0.4,2.8-0.1,3.4-1.2c-1.4,0-1.9-1.5-1.9-1.5s-0.3-1.6,1-2.2c1-0.4,1.8,0.4,1.8,0.4c0.2,0.2,0.3,0.4,0.4,0.6
						c0.4,0.7,0.4,1.5,0.4,1.8l0,0l0,0c-0.1,0.3-0.2,0.8-0.4,1l-0.4,0.6c-1.1,1.3-2.9,1.7-4.2,1.2c-1.1-0.4-1.9-1.3-2.3-2.3
						c-0.8-2.5,0.4-4.7,2.6-5.7C536,16.9,540.4,17.3,542,20L542,20z"/>
					<path class="st0" d="M508.4,34.3c-2.4,0.9-2.9-1.3-2.9-1.3c1.2,1,1.9-0.1,1.9-0.1c1.1-2.5-1.3-2.8-3.3-3
						c-2.1-0.2-2.4-2.6-1.3-3.5c1-0.8,2.4-0.4,2.4-0.4c-3.5,2.1-0.8,3,2.3,3.1C510.4,29.2,510.8,33.4,508.4,34.3z"/>
				</g>
				<path class="st0" d="M466.9,29.5c3.7-1.6,6.3,2.2,9.5,2c3.2-0.3,5.2-4.9,5.2-4.9s-1.7,4.7-5.3,5.9c-3.6,1.2-6.8-2.7-9.5-2.1
					c-2.7,0.6-3.9,3.3-3.9,3.3S463.2,31.1,466.9,29.5z"/>
				<path class="st0" d="M466.8,26.7c-3,1.8-2.8,1.6-2.8,1.6s6.3-6.3,9.2-7.7c3-1.3,4.5,3.4,1.3,4.1
					C471.3,25.5,469.7,24.9,466.8,26.7z"/>
				<path class="st0" d="M464.4,24.4c-1.4,3.2-1.4,2.9-1.4,2.9s1.6-8.8,3.3-11.6c1.7-2.8,5.6,0.2,3.4,2.7
					C467.5,20.8,465.8,21.2,464.4,24.4z"/>
				<path class="st0" d="M525.2,25.5c1.4-2-0.1-3.4-0.1-3.4s1-0.1,1.7,0.9c0.1,0.1,0.1,0.2,0.2,0.2l0.3-0.9c0.3,0.5,0.4,1,0.4,1.3
					c0.1-0.1,0.2-0.2,0.4-0.3c0.9-0.7,0.6,1.1,0.6,1.1c-2.2,6.5-8.3,4.1-8.3,4.1C522.2,29.1,523.8,27.6,525.2,25.5z"/>
				<g>
					<path class="st0" d="M477.7,17.8l0.7,1.1c0,0,0.8,1,0.5,2.8c0,0.1,0,0.3,0,0.4l2,3.4c0.1-0.1,1.2-1.4-0.3-5.7
						c0,0,2,1.8,1.5,5.6c0,0,2-1.5,0.6-4.9C481.1,17.3,477.7,17.8,477.7,17.8z M480.8,25.6l-2-3.5C478.8,23.7,479.3,25.4,480.8,25.6
						C480.8,25.6,480.8,25.6,480.8,25.6z"/>
					<path class="st0" d="M486.1,13.8l-0.1,1.4c0,0,0.1,1.3-1.2,2.6c-0.1,0.1-0.2,0.2-0.3,0.3l-0.4,4.1c0.2,0,1.7-0.3,2.9-4.6
						c0,0,0.5,2.8-2,5.5c0,0,2.4,0.3,3.2-3.4C489,15.9,486.1,13.8,486.1,13.8z M484.2,22.2l0.4-4.1
						C483.7,19.2,483.2,20.9,484.2,22.2C484.1,22.2,484.1,22.2,484.2,22.2z"/>
					<g>
						<path class="st0" d="M483.5,28.1C483.5,28.1,483.5,28.1,483.5,28.1l3.6,0.2C486,29.1,484.4,29.4,483.5,28.1z"/>
						<path class="st0" d="M491,27.3l-1.2-0.2c0,0-1.1-0.3-2.4,0.9c-0.1,0.1-0.2,0.2-0.3,0.3l-3.6-0.2c0-0.2,0.5-1.8,4.5-2.4
							c0,0-2.3-1.1-5.1,1.3c0,0,0.2-2.8,3.5-2.9C489.8,23.7,491,27.3,491,27.3z"/>
					</g>
				</g>
			</g>
			<g>
				<g>
					<path class="st0" d="M414.9,21.1c0.1-3.2-2-4.4-2-4.5l0,0c-1.8-1.1-4.5,0.1-5.3,1.1c-0.9,1.3-0.9,2.9,0.4,4.1
						c0.5,0.5,1.3,0.7,2.1,0.6c1-0.1,1.9-0.9,2-2l0-0.5c0-0.2-0.1-0.5-0.1-0.7l0,0l0,0c-0.1-0.2-0.4-0.7-0.8-0.9
						c-0.1-0.1-0.3-0.2-0.4-0.2c0,0-0.7-0.2-1.2,0.4c-0.6,0.7,0.1,1.6,0.1,1.6s0.8,0.7,1.6,0.3c0.1,0.9-0.8,1.7-1.5,1.8
						c-0.5,0.1-1.2-0.2-1.4-0.3c-1.2-0.8-1.3-2.6-0.5-3.7c0.6-0.8,2.9-1.7,4.4-0.7v0c0.1,0,1.9,1,1.8,3.8c-0.1,2.7-3.7,6-4.2,6.4
						l0,0c0,0-4.5,3.2-7.4,2.6c-2.9-0.6-3.4-2.5-3.4-2.6l0,0c-0.6-1.6,0.8-3.6,1.7-4c0.6-0.2,1.3-0.3,1.9-0.1c-1.5,0-3.7,1.9-2,3.9
						c0.1,0.1,0.2,0.2,0.3,0.3c0,0,0.1,0.1,0.1,0.1c0,0,0.5,0.4,1.2,0.4l0.1,0c1.1,0.1,2.2-0.6,2.5-1.5c0.3-0.7,0.1-1.5-0.2-2.1
						c-0.8-1.6-3.2-2.7-5.7-1.3c-1.1,0.6-1.9,2.8-1.2,4.7h0c0,0.1,1.4,2.3,4.6,2.9c3.1,0.6,7.5-2.6,7.9-2.8l0,0
						C410.4,27.8,414.9,24.3,414.9,21.1z"/>
					<path class="st0" d="M378.5,20c-0.1,0.1-2.9,2.9-0.4,7c2.5,4.1,12.1,5.8,12.4,5.8v0c1.1,0.2,5,0.9,10.6,0
						c7.1-1,11.7-5.5,12.6-6.4h0c0,0,0,0,0,0c0.1-0.1,0.1-0.1,0.1-0.1l0,0c0.8-0.9,4.7-5,8.1-5.1c3.7-0.1,5,2.1,5,2.2h0
						c1.2,1.8,0.2,4.6-0.9,5.4c-1.5,1-3.8,0.9-4.9-0.5c-0.2-0.3-0.5-1.2-0.5-1.7c0.1-0.8,1.2-2,2.3-1.9c-0.6,1,0.4,2,0.4,2
						s1.1,0.9,2.1,0.1c0.7-0.5,0.4-1.4,0.4-1.4c-0.1-0.2-0.2-0.4-0.3-0.5c-0.4-0.6-1-0.9-1.3-1l0,0l0,0c-0.3-0.1-0.7-0.2-0.9-0.2
						l-0.6,0c-1.4,0.2-2.5,1.4-2.6,2.5c-0.1,1,0.2,1.9,0.9,2.6c1.6,1.6,3.7,1.6,5.4,0.4c1.2-0.9,2.7-4.2,1.3-6.4l0,0
						c-0.1-0.1-1.6-2.5-5.8-2.4c-3.8,0.1-7.8,4.7-8.7,5.6l0,0c0,0.1-4.8,5.3-12.3,6.4c-6.3,1-10.3-0.1-10.3-0.2l0,0
						c-0.6-0.1-8.2-1.7-10.4-5.3c-2.2-3.7-0.6-6.2-0.5-6.3h0c1.3-2.3,4.9-2.8,6.3-2.2c2,0.9,3.1,3.3,2.2,5.2c-0.2,0.4-1,1.2-1.6,1.5
						c-1,0.4-2.8-0.1-3.4-1.2c1.4,0,1.9-1.5,1.9-1.5s0.3-1.6-1-2.2c-1-0.4-1.8,0.4-1.8,0.4c-0.2,0.2-0.3,0.4-0.4,0.6
						c-0.4,0.7-0.4,1.5-0.4,1.8l0,0l0,0c0.1,0.3,0.2,0.8,0.4,1l0.4,0.6c1.1,1.3,2.9,1.7,4.2,1.2c1.1-0.4,1.9-1.3,2.3-2.3
						c0.8-2.5-0.4-4.7-2.6-5.7C384.5,16.9,380.1,17.3,378.5,20L378.5,20z"/>
					<path class="st0" d="M412.1,34.3c2.4,0.9,2.9-1.3,2.9-1.3c-1.2,1-1.9-0.1-1.9-0.1c-1.1-2.5,1.3-2.8,3.3-3
						c2.1-0.2,2.4-2.6,1.3-3.5c-1-0.8-2.3-0.4-2.3-0.4c3.5,2.1,0.8,3-2.3,3.1C410.1,29.2,409.7,33.4,412.1,34.3z"/>
				</g>
				<path class="st0" d="M453.6,29.5c-3.7-1.6-6.3,2.2-9.5,2c-3.2-0.3-5.2-4.9-5.2-4.9s1.7,4.7,5.3,5.9c3.6,1.2,6.8-2.7,9.5-2.1
					c2.7,0.6,3.9,3.3,3.9,3.3S457.3,31.1,453.6,29.5z"/>
				<path class="st0" d="M453.7,26.7c3,1.8,2.8,1.6,2.8,1.6s-6.3-6.3-9.2-7.7c-3-1.3-4.5,3.4-1.3,4.1
					C449.2,25.5,450.8,24.9,453.7,26.7z"/>
				<path class="st0" d="M456.1,24.4c1.4,3.2,1.4,2.9,1.4,2.9s-1.6-8.8-3.3-11.6c-1.7-2.8-5.6,0.2-3.4,2.7
					C453,20.8,454.7,21.2,456.1,24.4z"/>
				<path class="st0" d="M395.3,25.5c-1.4-2,0.1-3.4,0.1-3.4s-1-0.1-1.7,0.9c-0.1,0.1-0.1,0.2-0.1,0.2l-0.3-0.9
					c-0.3,0.5-0.4,1-0.4,1.3c-0.1-0.1-0.2-0.2-0.4-0.3c-0.9-0.7-0.6,1.1-0.6,1.1c2.2,6.5,8.3,4.1,8.3,4.1
					C398.3,29.1,396.7,27.6,395.3,25.5z"/>
				<g>
					<path class="st0" d="M438,20.7c-1.5,3.4,0.6,4.9,0.6,4.9C438,21.7,440,20,440,20c-1.5,4.2-0.5,5.5-0.3,5.7l2-3.4
						c0-0.2,0-0.3,0-0.4c-0.3-1.8,0.5-2.8,0.5-2.8l0.7-1.1C442.8,17.8,439.5,17.3,438,20.7z M439.7,25.6c1.5-0.3,2-2,1.9-3.5
						L439.7,25.6C439.7,25.6,439.7,25.6,439.7,25.6z"/>
					<path class="st0" d="M432.3,19.6c0.8,3.7,3.2,3.4,3.2,3.4c-2.5-2.7-2-5.5-2-5.5c1.2,4.4,2.7,4.6,2.9,4.6l-0.4-4.1
						c-0.1-0.1-0.2-0.2-0.3-0.3c-1.2-1.2-1.2-2.6-1.2-2.6l-0.1-1.4C434.4,13.8,431.5,15.9,432.3,19.6z M436.4,22.2
						c1-1.3,0.5-3-0.4-4.1L436.4,22.2C436.4,22.2,436.4,22.2,436.4,22.2z"/>
					<g>
						<path class="st0" d="M437,28.1C437,28.1,437,28.1,437,28.1l-3.6,0.2C434.5,29.1,436.1,29.4,437,28.1z"/>
						<path class="st0" d="M429.5,27.3l1.2-0.2c0,0,1.1-0.3,2.4,0.9c0.1,0.1,0.2,0.2,0.3,0.3L437,28c0-0.2-0.5-1.8-4.5-2.4
							c0,0,2.3-1.1,5.1,1.3c0,0-0.2-2.8-3.5-2.9C430.8,23.7,429.5,27.3,429.5,27.3z"/>
					</g>
				</g>
			</g>
		</g>
		<g>
			<g>
				<g>
					<path class="st0" d="M675.6,24.5c-3.3-0.6-9.3,2.9-4.8,6.2c5.5,4,14,0.6,19.5-1.3c5.9-2.1,11.9-3.8,17.9-5.4
						c12.7-3.4,26.5-7.2,39.8-6.3c11.4,0.8,23.1,5.5,33.2,10.6c0.2,0.1,1.3-1.6,1.5-1.5c-7.3-3.6-15-6.4-22.8-8.6
						c-10.9-3-21.1-2-32,0.1c-10.9,2.1-21.6,5-32.2,8.3c-4.7,1.5-9.2,3.6-14.1,4.2c-3.2,0.4-12.6-0.1-10.6-5.3c-0.5,0.5-1,1-1.5,1.5
						c1.4-1.1,2.8-1.3,4.6-0.9C674.6,26.1,675.3,24.4,675.6,24.5L675.6,24.5z"/>
				</g>
				<g>
					<path class="st0" d="M707.7,23.4c5.2-2.9,10.7-5.1,16.4-6.8c9.9-2.9,17.6,0.9,26.6,4.6c3.7,1.5,13.1,4.3,16.6,0.9
						c0.4-0.4,1.7-1.3,1.2-2c0,0.1-1.5,1.4-1.5,1.5c0.2,0.2,0.2,0.4,0,0.7c0.5-0.5,1-1,1.5-1.5c-2.7,2.3-9.2,0.8-12.3,0.2
						c-6.3-1.3-11.8-5.1-18-6.7c-9.6-2.4-20.9,3-29.1,7.6C708.6,22.3,708.3,23.1,707.7,23.4L707.7,23.4z"/>
				</g>
				<g>
					<path class="st0" d="M789.4,24.3l-0.8,0.7c0,0-0.7,0.7-2.2,0.7c-0.1,0-0.2,0-0.4,0l-2.5,1.9c0.1,0.1,1.2,0.8,4.4-0.8
						c0,0-1.2,1.8-4.2,1.8c0,0,1.4,1.5,3.9-0.1C790.1,26.9,789.4,24.3,789.4,24.3z M783.6,27.6l2.5-1.9
						C784.9,25.7,783.6,26.4,783.6,27.6C783.6,27.6,783.6,27.6,783.6,27.6z"/>
					<path class="st0" d="M793.3,30.6l-1.1,0.1c0,0-1,0.2-2.1-0.7c-0.1-0.1-0.2-0.1-0.3-0.2l-3.2,0.1c0,0.1,0.4,1.3,3.9,1.8
						c0,0-2.1,0.7-4.5-1c0,0,0,1.9,3,2.2C792,33.1,793.3,30.6,793.3,30.6z M786.6,29.9l3.2-0.1C788.9,29.2,787.5,29,786.6,29.9
						C786.6,29.9,786.6,29.9,786.6,29.9z"/>
					<path class="st0" d="M785.5,31.9c-0.5-2.6-2.7-2.5-2.7-2.5c2.1,1.9,1.5,3.9,1.5,3.9c-0.9-3.1-2.2-3.3-2.4-3.3l0.2,2.9
						c0.1,0.1,0.2,0.2,0.2,0.2c1.1,0.9,0.9,1.8,0.9,1.8l0,1C783.3,35.9,785.9,34.5,785.5,31.9z M781.9,29.9
						c-0.9,0.9-0.6,2.1,0.2,2.9L781.9,29.9C781.9,30,781.9,29.9,781.9,29.9z"/>
				</g>
				<g>
					<path class="st0" d="M767.2,15l0.3,0.7c0,0,0.4,0.6,0,1.6c0,0.1-0.1,0.2-0.1,0.2l0.9,2.2c0.1-0.1,1-0.6,0.5-3.2
						c0,0,1.2,1.3,0.3,3.4c0,0,1.7-0.6,1.1-2.7C769.6,15.2,767.2,15,767.2,15z M768.3,19.8l-0.9-2.2
						C767.1,18.4,767.2,19.4,768.3,19.8C768.3,19.8,768.3,19.8,768.3,19.8z"/>
					<path class="st0" d="M773.6,13.9l-0.2,0.7c0,0-0.1,0.8-1.2,1.3c-0.1,0-0.2,0.1-0.2,0.1l-0.9,2.2c0.1,0,1.2,0.1,2.7-2.2
						c0,0,0,1.6-2.2,2.8c0,0,1.7,0.5,2.7-1.5C775.4,15.4,773.6,13.9,773.6,13.9z M771.1,18.3L772,16
						C771.2,16.5,770.6,17.4,771.1,18.3C771.1,18.3,771.1,18.3,771.1,18.3z"/>
					<path class="st0" d="M772.5,19.6c-2.4-0.3-2.9,1.2-2.9,1.2c2.3-1,3.8,0,3.8,0c-2.9-0.2-3.5,0.7-3.5,0.8l2.5,0.6
						c0.1,0,0.2-0.1,0.3-0.1c1.1-0.5,1.8-0.2,1.8-0.2l0.8,0.2C775.2,22.1,774.8,19.9,772.5,19.6z M769.8,21.5
						c0.5,0.9,1.6,0.9,2.5,0.6L769.8,21.5C769.8,21.5,769.8,21.5,769.8,21.5z"/>
				</g>
				<g>
					<path class="st0" d="M709.2,23.2l-0.3,0.7c0,0-0.2,0.7-1.3,1.2c-0.1,0-0.2,0.1-0.3,0.1l-1,2.2c0.1,0,1.2,0.1,2.9-2
						c0,0-0.1,1.6-2.4,2.6c0,0,1.6,0.6,2.8-1.3C710.8,24.8,709.2,23.2,709.2,23.2z M706.3,27.4l1-2.2
						C706.5,25.6,705.9,26.5,706.3,27.4C706.3,27.4,706.3,27.4,706.3,27.4z"/>
					<path class="st0" d="M714.7,26.4l-0.7,0.4c0,0-0.7,0.5-1.8,0.2c-0.1,0-0.2,0-0.3,0l-2.3,1.1c0.1,0.1,0.8,0.8,3.6,0
						c0,0-1.3,1.2-3.7,0.7c0,0,0.8,1.4,3.1,0.6C714.7,28.5,714.7,26.4,714.7,26.4z M709.5,28l2.3-1.1
						C710.9,26.8,709.8,27.1,709.5,28C709.5,28,709.5,28,709.5,28z"/>
					<path class="st0" d="M709.5,29.8c-1.4-1.7-2.9-0.9-2.9-0.9c2.3,0.7,2.7,2.3,2.7,2.3c-1.9-1.9-3-1.7-3.1-1.6l1.3,2
						c0.1,0,0.2,0.1,0.3,0.1c1.1,0.3,1.4,1,1.4,1l0.4,0.7C709.5,33.4,710.9,31.5,709.5,29.8z M706.1,29.6c-0.3,0.9,0.4,1.7,1.3,2
						L706.1,29.6C706.1,29.6,706.1,29.6,706.1,29.6z"/>
				</g>
				<path class="st0" d="M699.3,26.7c1.4,0,2.9,0.1,4.6,0.3c0.3,0,0.5,0.3,0.5,0.6c0,0.3-0.3,0.5-0.6,0.5
					c-10.4-1.2-15.4,2.2-15.4,2.2c-0.2,0.2-0.6,0.1-0.7-0.1c-0.2-0.2-0.1-0.6,0.1-0.7C688,29.2,691.6,26.7,699.3,26.7z"/>
			</g>
			<g>
				<g>
					<path class="st0" d="M913.9,26c2.6-0.5,6.7,0.8,4.4,4c0.5-0.5,1-1,1.5-1.5c-7.8,5.7-18,0.1-26-2.4c-10.7-3.4-21.7-6.1-32.7-8.2
						c-18.8-3.6-35.8,0.5-52.8,8.9c-0.6,0.3-0.9,1.2-1.5,1.5c9.8-4.9,20.4-8.6,31.2-10.3c13.6-2.1,28.8,2.6,41.9,6.1
						c11,2.9,24.8,10.7,36.1,7.4c4.7-1.4,6.3-8.1-0.5-6.9C914.8,24.6,914.5,25.9,913.9,26L913.9,26z"/>
				</g>
				<g>
					<path class="st0" d="M881.9,22c-9.4-5.2-20.4-9.7-31.2-7c-7,1.8-12.8,6-20.2,6.8c-0.2,0-9.3,0.3-7.9-1.5
						c-0.4,0.5-1.1,0.9-1.5,1.5c-1.3,1.6,5.1,1.6,5.3,1.6c7.6,0.2,13.9-3.5,20.8-6.2c11.1-4.3,23.5,0.9,33.3,6.4
						C880.6,23.6,881.7,21.9,881.9,22L881.9,22z"/>
				</g>
				<g>
					<path class="st0" d="M802,28.5c2.5,1.5,3.9,0.1,3.9,0.1c-3.1,0-4.3-1.8-4.3-1.8c3.1,1.6,4.3,0.9,4.4,0.8l-2.5-1.9
						c-0.1,0-0.2,0-0.4,0c-1.5,0-2.1-0.7-2.1-0.7l-0.8-0.7C800.2,24.3,799.5,26.9,802,28.5z M806,27.6c-0.1-1.2-1.3-1.8-2.5-1.9
						L806,27.6C806,27.6,806,27.6,806,27.6z"/>
					<path class="st0" d="M800.5,32.8c3-0.2,3-2.2,3-2.2c-2.3,1.7-4.5,1-4.5,1c3.5-0.5,3.9-1.7,3.9-1.8l-3.2-0.1
						c-0.1,0.1-0.2,0.1-0.3,0.2c-1.1,0.9-2.1,0.7-2.1,0.7l-1.1-0.1C796.3,30.6,797.6,33.1,800.5,32.8z M803,29.9
						c-0.9-0.9-2.3-0.7-3.3-0.1L803,29.9C803,29.9,803,29.9,803,29.9z"/>
					<path class="st0" d="M806.3,35.9l0-1c0,0-0.1-0.9,0.9-1.8c0.1-0.1,0.2-0.2,0.2-0.2l0.2-2.9c-0.2,0-1.5,0.2-2.4,3.3
						c0,0-0.6-2,1.5-3.9c0,0-2.2-0.1-2.7,2.5C803.6,34.5,806.3,35.9,806.3,35.9z M807.6,30l-0.2,2.9C808.2,32.1,808.6,30.8,807.6,30
						C807.7,29.9,807.6,30,807.6,30z"/>
				</g>
				<g>
					<path class="st0" d="M819.4,17.2c-0.6,2.1,1.1,2.7,1.1,2.7c-0.9-2.1,0.3-3.4,0.3-3.4c-0.5,2.6,0.4,3.1,0.5,3.2l0.9-2.2
						c0-0.1-0.1-0.2-0.1-0.2c-0.5-1,0-1.6,0-1.6l0.3-0.7C822.4,15,820,15.2,819.4,17.2z M821.3,19.8c1-0.3,1.2-1.4,0.9-2.2
						L821.3,19.8C821.3,19.8,821.3,19.8,821.3,19.8z"/>
					<path class="st0" d="M815.3,17.4c1,2,2.7,1.5,2.7,1.5c-2.2-1.1-2.2-2.8-2.2-2.8c1.5,2.3,2.6,2.2,2.7,2.2l-0.9-2.2
						c-0.1-0.1-0.2-0.1-0.2-0.1c-1-0.5-1.2-1.3-1.2-1.3l-0.2-0.7C815.9,13.9,814.2,15.4,815.3,17.4z M818.5,18.3
						c0.5-0.8-0.1-1.7-0.9-2.2L818.5,18.3C818.5,18.3,818.5,18.3,818.5,18.3z"/>
					<path class="st0" d="M814.3,22.1l0.8-0.2c0,0,0.8-0.3,1.8,0.2c0.1,0,0.2,0.1,0.3,0.1l2.5-0.6c-0.1-0.1-0.6-1-3.5-0.8
						c0,0,1.5-0.9,3.8,0c0,0-0.5-1.5-2.9-1.2C814.7,19.9,814.3,22.1,814.3,22.1z M819.8,21.5l-2.5,0.6
						C818.1,22.4,819.3,22.4,819.8,21.5C819.8,21.5,819.8,21.5,819.8,21.5z"/>
				</g>
				<g>
					<path class="st0" d="M880,26.7c1.2,1.9,2.8,1.3,2.8,1.3c-2.2-1-2.4-2.6-2.4-2.6c1.6,2.2,2.7,2.1,2.9,2l-1-2.2
						c-0.1,0-0.2-0.1-0.3-0.1c-1.1-0.4-1.3-1.2-1.3-1.2l-0.3-0.7C880.3,23.2,878.8,24.8,880,26.7z M883.3,27.4
						c0.4-0.9-0.2-1.7-1.1-2.2L883.3,27.4C883.2,27.4,883.3,27.4,883.3,27.4z"/>
					<path class="st0" d="M877.1,29.3c2.3,0.8,3.1-0.6,3.1-0.6c-2.4,0.5-3.7-0.7-3.7-0.7c2.8,0.8,3.5,0.1,3.6,0l-2.3-1.1
						c-0.1,0-0.2,0-0.3,0c-1.1,0.3-1.8-0.2-1.8-0.2l-0.7-0.4C874.9,26.4,874.9,28.5,877.1,29.3z M880.1,28c-0.3-0.9-1.4-1.2-2.3-1.1
						L880.1,28C880.1,28,880.1,28,880.1,28z"/>
					<path class="st0" d="M880.1,33.4l0.4-0.7c0,0,0.3-0.7,1.4-1c0.1,0,0.2-0.1,0.3-0.1l1.3-2c-0.1,0-1.2-0.3-3.1,1.6
						c0,0,0.3-1.6,2.7-2.3c0,0-1.5-0.8-3,0.9C878.7,31.5,880.1,33.4,880.1,33.4z M883.5,29.6l-1.3,2C883,31.3,883.8,30.5,883.5,29.6
						C883.5,29.6,883.5,29.6,883.5,29.6z"/>
				</g>
				<path class="st0" d="M890.2,26.7c7.7,0,11.4,2.5,11.5,2.7c0.2,0.2,0.3,0.5,0.1,0.7c-0.2,0.2-0.5,0.3-0.7,0.1c0,0-5-3.4-15.4-2.2
					c-0.3,0-0.5-0.2-0.6-0.5c0-0.3,0.2-0.6,0.5-0.6C887.3,26.8,888.8,26.7,890.2,26.7z"/>
			</g>
			<g>
				<g>
					<path class="st0" d="M660.9,26c2.6-0.5,6.7,0.8,4.4,4c0.5-0.5,1-1,1.5-1.5c-7.8,5.7-18,0.1-26-2.4c-10.7-3.4-21.7-6.1-32.7-8.2
						c-18.8-3.6-35.8,0.5-52.8,8.9c-0.6,0.3-0.9,1.2-1.5,1.5c9.8-4.9,20.4-8.6,31.2-10.3c13.6-2.1,28.8,2.6,41.9,6.1
						c11,2.9,24.8,10.7,36.1,7.4c4.7-1.4,6.3-8.1-0.5-6.9C661.8,24.6,661.4,25.9,660.9,26L660.9,26z"/>
				</g>
				<g>
					<path class="st0" d="M628.8,22c-9.4-5.2-20.4-9.7-31.2-7c-7,1.8-12.8,6-20.2,6.8c-0.2,0-9.3,0.3-7.9-1.5
						c-0.4,0.5-1.1,0.9-1.5,1.5c-1.3,1.6,5.1,1.6,5.3,1.6c7.6,0.2,13.9-3.5,20.8-6.2c11.1-4.3,23.5,0.9,33.3,6.4
						C627.5,23.6,628.7,21.9,628.8,22L628.8,22z"/>
				</g>
				<g>
					<path class="st0" d="M548.9,28.5c2.5,1.5,3.9,0.1,3.9,0.1c-3.1,0-4.3-1.8-4.3-1.8c3.1,1.6,4.3,0.9,4.4,0.8l-2.5-1.9
						c-0.1,0-0.2,0-0.4,0c-1.5,0-2.1-0.7-2.1-0.7l-0.8-0.7C547.2,24.3,546.4,26.9,548.9,28.5z M553,27.6c-0.1-1.2-1.3-1.8-2.5-1.9
						L553,27.6C553,27.6,553,27.6,553,27.6z"/>
					<path class="st0" d="M547.5,32.8c3-0.2,3-2.2,3-2.2c-2.3,1.7-4.5,1-4.5,1c3.5-0.5,3.9-1.7,3.9-1.8l-3.2-0.1
						c-0.1,0.1-0.2,0.1-0.3,0.2c-1.1,0.9-2.1,0.7-2.1,0.7l-1.1-0.1C543.2,30.6,544.5,33.1,547.5,32.8z M549.9,29.9
						c-0.9-0.9-2.3-0.7-3.3-0.1L549.9,29.9C549.9,29.9,549.9,29.9,549.9,29.9z"/>
					<path class="st0" d="M553.2,35.9l0-1c0,0-0.1-0.9,0.9-1.8c0.1-0.1,0.2-0.2,0.2-0.2l0.2-2.9c-0.2,0-1.5,0.2-2.4,3.3
						c0,0-0.6-2,1.5-3.9c0,0-2.2-0.1-2.7,2.5C550.6,34.5,553.2,35.9,553.2,35.9z M554.6,30l-0.2,2.9C555.2,32.1,555.5,30.8,554.6,30
						C554.6,29.9,554.6,30,554.6,30z"/>
				</g>
				<g>
					<path class="st0" d="M566.3,17.2c-0.6,2.1,1.1,2.7,1.1,2.7c-0.9-2.1,0.3-3.4,0.3-3.4c-0.5,2.6,0.4,3.1,0.5,3.2l0.9-2.2
						c0-0.1-0.1-0.2-0.1-0.2c-0.5-1,0-1.6,0-1.6l0.3-0.7C569.4,15,566.9,15.2,566.3,17.2z M568.3,19.8c1-0.3,1.2-1.4,0.9-2.2
						L568.3,19.8C568.3,19.8,568.3,19.8,568.3,19.8z"/>
					<path class="st0" d="M562.2,17.4c1,2,2.7,1.5,2.7,1.5c-2.2-1.1-2.2-2.8-2.2-2.8c1.5,2.3,2.6,2.2,2.7,2.2l-0.9-2.2
						c-0.1-0.1-0.2-0.1-0.2-0.1c-1-0.5-1.2-1.3-1.2-1.3l-0.2-0.7C562.9,13.9,561.2,15.4,562.2,17.4z M565.4,18.3
						c0.5-0.8-0.1-1.7-0.9-2.2L565.4,18.3C565.4,18.3,565.4,18.3,565.4,18.3z"/>
					<path class="st0" d="M561.3,22.1l0.8-0.2c0,0,0.8-0.3,1.8,0.2c0.1,0,0.2,0.1,0.3,0.1l2.5-0.6c-0.1-0.1-0.6-1-3.5-0.8
						c0,0,1.5-0.9,3.8,0c0,0-0.5-1.5-2.9-1.2C561.7,19.9,561.3,22.1,561.3,22.1z M566.7,21.5l-2.5,0.6
						C565.1,22.4,566.2,22.4,566.7,21.5C566.7,21.5,566.7,21.5,566.7,21.5z"/>
				</g>
				<g>
					<path class="st0" d="M626.9,26.7c1.2,1.9,2.8,1.3,2.8,1.3c-2.2-1-2.4-2.6-2.4-2.6c1.6,2.2,2.7,2.1,2.9,2l-1-2.2
						c-0.1,0-0.2-0.1-0.3-0.1c-1.1-0.4-1.3-1.2-1.3-1.2l-0.3-0.7C627.3,23.2,625.7,24.8,626.9,26.7z M630.2,27.4
						c0.4-0.9-0.2-1.7-1.1-2.2L630.2,27.4C630.2,27.4,630.2,27.4,630.2,27.4z"/>
					<path class="st0" d="M624,29.3c2.3,0.8,3.1-0.6,3.1-0.6c-2.4,0.5-3.7-0.7-3.7-0.7c2.8,0.8,3.5,0.1,3.6,0l-2.3-1.1
						c-0.1,0-0.2,0-0.3,0c-1.1,0.3-1.8-0.2-1.8-0.2l-0.7-0.4C621.8,26.4,621.8,28.5,624,29.3z M627,28c-0.3-0.9-1.4-1.2-2.3-1.1
						L627,28C627,28,627,28,627,28z"/>
					<path class="st0" d="M627,33.4l0.4-0.7c0,0,0.3-0.7,1.4-1c0.1,0,0.2-0.1,0.3-0.1l1.3-2c-0.1,0-1.2-0.3-3.1,1.6
						c0,0,0.3-1.6,2.7-2.3c0,0-1.5-0.8-3,0.9C625.6,31.5,627,33.4,627,33.4z M630.4,29.6l-1.3,2C630,31.3,630.7,30.5,630.4,29.6
						C630.4,29.6,630.4,29.6,630.4,29.6z"/>
				</g>
				<path class="st0" d="M637.2,26.7c7.7,0,11.4,2.5,11.5,2.7c0.2,0.2,0.3,0.5,0.1,0.7c-0.2,0.2-0.5,0.3-0.7,0.1c0,0-5-3.4-15.4-2.2
					c-0.3,0-0.5-0.2-0.6-0.5c0-0.3,0.2-0.6,0.5-0.6C634.2,26.8,635.8,26.7,637.2,26.7z"/>
			</g>
		</g>
		<g>
			<g>
				<g>
					<path class="st0" d="M244.4,24.5c3.3-0.6,9.3,2.9,4.8,6.2c-5.5,4-14,0.6-19.5-1.3c-5.9-2.1-11.9-3.8-17.9-5.4
						c-12.7-3.4-26.5-7.2-39.8-6.3c-11.4,0.8-23.1,5.5-33.2,10.6c-0.2,0.1-1.3-1.6-1.5-1.5c7.3-3.6,15-6.4,22.8-8.6
						c10.9-3,21.1-2,32,0.1c10.9,2.1,21.6,5,32.2,8.3c4.7,1.5,9.2,3.6,14.1,4.2c3.2,0.4,12.6-0.1,10.6-5.3c0.5,0.5,1,1,1.5,1.5
						c-1.4-1.1-2.8-1.3-4.6-0.9C245.4,26.1,244.7,24.4,244.4,24.5L244.4,24.5z"/>
				</g>
				<g>
					<path class="st0" d="M212.3,23.4c-5.2-2.9-10.7-5.1-16.4-6.8c-9.9-2.9-17.6,0.9-26.6,4.6c-3.7,1.5-13.1,4.3-16.6,0.9
						c-0.4-0.4-1.7-1.3-1.2-2c0,0.1,1.5,1.4,1.5,1.5c-0.2,0.2-0.2,0.4,0,0.7c-0.5-0.5-1-1-1.5-1.5c2.7,2.3,9.2,0.8,12.3,0.2
						c6.3-1.3,11.8-5.1,18-6.7c9.6-2.4,20.9,3,29.1,7.6C211.4,22.3,211.7,23.1,212.3,23.4L212.3,23.4z"/>
				</g>
				<g>
					<path class="st0" d="M132.4,28.5c2.5,1.5,3.9,0.1,3.9,0.1c-3.1,0-4.2-1.8-4.2-1.8c3.1,1.6,4.3,0.9,4.4,0.8l-2.5-1.9
						c-0.1,0-0.2,0-0.4,0c-1.5,0-2.2-0.7-2.2-0.7l-0.8-0.7C130.6,24.3,129.9,26.9,132.4,28.5z M136.4,27.6c-0.1-1.2-1.3-1.8-2.5-1.9
						L136.4,27.6C136.4,27.6,136.4,27.6,136.4,27.6z"/>
					<path class="st0" d="M131,32.8c3-0.2,3-2.2,3-2.2c-2.3,1.7-4.5,1-4.5,1c3.5-0.5,3.9-1.7,3.9-1.8l-3.2-0.1
						c-0.1,0.1-0.2,0.1-0.3,0.2c-1.1,0.9-2.1,0.7-2.1,0.7l-1.1-0.1C126.7,30.6,128,33.1,131,32.8z M133.4,29.9
						c-0.9-0.9-2.3-0.7-3.3-0.1L133.4,29.9C133.4,29.9,133.4,29.9,133.4,29.9z"/>
					<path class="st0" d="M136.7,35.9l0-1c0,0-0.1-0.9,0.9-1.8c0.1-0.1,0.2-0.2,0.2-0.2l0.2-2.9c-0.2,0-1.5,0.2-2.4,3.3
						c0,0-0.6-2,1.5-3.9c0,0-2.2-0.1-2.7,2.5C134.1,34.5,136.7,35.9,136.7,35.9z M138.1,30l-0.2,2.9C138.6,32.1,139,30.8,138.1,30
						C138.1,29.9,138.1,30,138.1,30z"/>
				</g>
				<g>
					<path class="st0" d="M149.8,17.2c-0.6,2.1,1.1,2.7,1.1,2.7c-0.9-2.1,0.3-3.4,0.3-3.4c-0.5,2.6,0.4,3.1,0.5,3.2l0.9-2.2
						c0-0.1-0.1-0.2-0.1-0.2c-0.5-1,0-1.6,0-1.6l0.3-0.7C152.8,15,150.4,15.2,149.8,17.2z M151.7,19.8c1-0.3,1.2-1.4,0.9-2.2
						L151.7,19.8C151.7,19.8,151.7,19.8,151.7,19.8z"/>
					<path class="st0" d="M145.7,17.4c1,2,2.7,1.5,2.7,1.5c-2.2-1.1-2.2-2.8-2.2-2.8c1.5,2.3,2.6,2.2,2.7,2.2L148,16
						c-0.1-0.1-0.2-0.1-0.2-0.1c-1-0.5-1.2-1.3-1.2-1.3l-0.2-0.7C146.4,13.9,144.6,15.4,145.7,17.4z M148.9,18.3
						c0.5-0.8-0.1-1.7-0.9-2.2L148.9,18.3C148.9,18.3,148.9,18.3,148.9,18.3z"/>
					<path class="st0" d="M144.8,22.1l0.8-0.2c0,0,0.8-0.3,1.8,0.2c0.1,0,0.2,0.1,0.3,0.1l2.5-0.6c-0.1-0.1-0.6-1-3.5-0.8
						c0,0,1.5-0.9,3.8,0c0,0-0.5-1.5-2.9-1.2C145.2,19.9,144.8,22.1,144.8,22.1z M150.2,21.5l-2.5,0.6
						C148.6,22.4,149.7,22.4,150.2,21.5C150.2,21.5,150.2,21.5,150.2,21.5z"/>
				</g>
				<g>
					<path class="st0" d="M210.4,26.7c1.2,1.9,2.8,1.3,2.8,1.3c-2.2-1-2.4-2.6-2.4-2.6c1.6,2.2,2.7,2.1,2.9,2l-1-2.2
						c-0.1,0-0.2-0.1-0.3-0.1c-1.1-0.4-1.3-1.2-1.3-1.2l-0.3-0.7C210.8,23.1,209.2,24.8,210.4,26.7z M213.7,27.4
						c0.4-0.9-0.2-1.7-1.1-2.2L213.7,27.4C213.7,27.4,213.7,27.4,213.7,27.4z"/>
					<path class="st0" d="M207.5,29.3c2.3,0.8,3.1-0.6,3.1-0.6c-2.4,0.5-3.7-0.7-3.7-0.7c2.8,0.8,3.5,0.1,3.6,0l-2.3-1.1
						c-0.1,0-0.2,0-0.3,0c-1.1,0.3-1.8-0.2-1.8-0.2l-0.7-0.4C205.3,26.4,205.3,28.5,207.5,29.3z M210.5,28c-0.3-0.9-1.4-1.2-2.3-1.1
						L210.5,28C210.5,28,210.5,28,210.5,28z"/>
					<path class="st0" d="M210.5,33.4l0.4-0.7c0,0,0.3-0.7,1.4-1c0.1,0,0.2-0.1,0.3-0.1l1.3-2c-0.1,0-1.2-0.3-3.1,1.6
						c0,0,0.3-1.6,2.7-2.3c0,0-1.5-0.8-2.9,0.9C209.1,31.5,210.5,33.4,210.5,33.4z M213.9,29.6l-1.3,2
						C213.5,31.3,214.2,30.5,213.9,29.6C213.9,29.6,213.9,29.6,213.9,29.6z"/>
				</g>
				<path class="st0" d="M220.7,26.7c-1.4,0-2.9,0.1-4.6,0.3c-0.3,0-0.5,0.3-0.5,0.6c0,0.3,0.3,0.5,0.6,0.5
					c10.4-1.2,15.4,2.2,15.4,2.2c0.2,0.2,0.6,0.1,0.7-0.1c0.2-0.2,0.1-0.6-0.1-0.7C232,29.2,228.4,26.7,220.7,26.7z"/>
			</g>
			<g>
				<g>
					<path class="st0" d="M6.1,26c-2.6-0.5-6.7,0.8-4.4,4c-0.5-0.5-1-1-1.5-1.5c7.8,5.7,18,0.1,26-2.4c10.7-3.4,21.7-6.1,32.7-8.2
						c18.8-3.6,35.8,0.5,52.8,8.9c0.6,0.3,0.9,1.2,1.5,1.5c-9.8-4.9-20.4-8.6-31.2-10.3c-13.6-2.1-28.8,2.6-41.9,6.1
						c-11,2.9-24.8,10.7-36.1,7.4c-4.7-1.4-6.3-8.1,0.5-6.9C5.2,24.6,5.5,25.9,6.1,26L6.1,26z"/>
				</g>
				<g>
					<path class="st0" d="M38.1,22c9.4-5.2,20.4-9.7,31.2-7c7,1.8,12.8,6,20.2,6.8c0.2,0,9.3,0.3,7.9-1.5c0.4,0.5,1.1,0.9,1.5,1.5
						c1.3,1.6-5.1,1.6-5.3,1.6c-7.6,0.2-13.9-3.5-20.8-6.2c-11.1-4.3-23.5,0.9-33.3,6.4C39.4,23.6,38.3,21.9,38.1,22L38.1,22z"/>
				</g>
				<g>
					<path class="st0" d="M119.8,24.3L119,25c0,0-0.7,0.7-2.1,0.7c-0.1,0-0.2,0-0.4,0l-2.5,1.9c0.1,0.1,1.2,0.8,4.4-0.8
						c0,0-1.2,1.8-4.3,1.8c0,0,1.4,1.5,3.9-0.1C120.5,26.9,119.8,24.3,119.8,24.3z M114,27.6l2.5-1.9C115.3,25.7,114,26.4,114,27.6
						C114,27.6,114,27.6,114,27.6z"/>
					<path class="st0" d="M123.7,30.6l-1.1,0.1c0,0-1,0.2-2.1-0.7c-0.1-0.1-0.2-0.1-0.3-0.2l-3.2,0.1c0,0.1,0.4,1.3,3.9,1.8
						c0,0-2.1,0.7-4.5-1c0,0,0,1.9,3,2.2C122.4,33.1,123.7,30.6,123.7,30.6z M117,29.9l3.3-0.1C119.3,29.2,117.9,29,117,29.9
						C117,29.9,117,29.9,117,29.9z"/>
					<path class="st0" d="M115.9,31.9c-0.5-2.6-2.7-2.5-2.7-2.5c2.1,1.9,1.5,3.9,1.5,3.9c-0.9-3.1-2.2-3.3-2.4-3.3l0.2,2.9
						c0.1,0.1,0.2,0.2,0.2,0.2c1.1,0.9,0.9,1.8,0.9,1.8l0,1C113.7,35.9,116.4,34.5,115.9,31.9z M112.3,29.9
						c-0.9,0.9-0.6,2.1,0.2,2.9L112.3,29.9C112.4,30,112.3,29.9,112.3,29.9z"/>
				</g>
				<g>
					<path class="st0" d="M97.6,15l0.3,0.7c0,0,0.4,0.6,0,1.6c0,0.1-0.1,0.2-0.1,0.2l0.9,2.2c0.1-0.1,1-0.6,0.5-3.2
						c0,0,1.2,1.3,0.3,3.4c0,0,1.7-0.6,1.1-2.7C100,15.2,97.6,15,97.6,15z M98.7,19.8l-0.9-2.2C97.5,18.4,97.7,19.4,98.7,19.8
						C98.7,19.8,98.7,19.8,98.7,19.8z"/>
					<path class="st0" d="M104.1,13.9l-0.2,0.7c0,0-0.1,0.8-1.2,1.3c-0.1,0-0.2,0.1-0.2,0.1l-0.9,2.2c0.1,0,1.2,0.1,2.7-2.2
						c0,0,0,1.6-2.2,2.8c0,0,1.7,0.5,2.7-1.5C105.8,15.4,104.1,13.9,104.1,13.9z M101.5,18.3l0.9-2.2
						C101.6,16.5,101,17.4,101.5,18.3C101.5,18.3,101.5,18.3,101.5,18.3z"/>
					<path class="st0" d="M102.9,19.6c-2.4-0.3-2.9,1.2-2.9,1.2c2.3-1,3.8,0,3.8,0c-2.9-0.2-3.5,0.7-3.5,0.8l2.5,0.6
						c0.1,0,0.2-0.1,0.3-0.1c1.1-0.5,1.8-0.2,1.8-0.2l0.8,0.2C105.7,22.1,105.3,19.9,102.9,19.6z M100.2,21.5
						c0.5,0.9,1.6,0.9,2.5,0.6L100.2,21.5C100.2,21.5,100.2,21.5,100.2,21.5z"/>
				</g>
				<g>
					<path class="st0" d="M39.7,23.1l-0.3,0.7c0,0-0.2,0.7-1.3,1.2c-0.1,0-0.2,0.1-0.3,0.1l-1,2.2c0.1,0,1.2,0.1,2.9-2
						c0,0-0.1,1.6-2.4,2.6c0,0,1.6,0.6,2.8-1.3C41.2,24.8,39.7,23.1,39.7,23.1z M36.8,27.4l1-2.2C37,25.6,36.3,26.5,36.8,27.4
						C36.7,27.4,36.8,27.4,36.8,27.4z"/>
					<path class="st0" d="M45.1,26.4l-0.7,0.4c0,0-0.7,0.5-1.8,0.2c-0.1,0-0.2,0-0.3,0L39.9,28c0.1,0.1,0.8,0.8,3.6,0
						c0,0-1.3,1.2-3.7,0.7c0,0,0.8,1.4,3.1,0.6C45.1,28.5,45.1,26.4,45.1,26.4z M39.9,28l2.3-1.1C41.3,26.8,40.2,27.1,39.9,28
						C39.9,28,39.9,28,39.9,28z"/>
					<path class="st0" d="M39.9,29.8c-1.4-1.7-3-0.9-3-0.9c2.4,0.7,2.7,2.3,2.7,2.3c-1.9-1.9-3-1.7-3.1-1.6l1.3,2
						c0.1,0,0.2,0.1,0.3,0.1c1.1,0.3,1.4,1,1.4,1l0.4,0.7C39.9,33.4,41.3,31.5,39.9,29.8z M36.5,29.6c-0.3,0.9,0.4,1.7,1.3,2
						L36.5,29.6C36.5,29.6,36.5,29.6,36.5,29.6z"/>
				</g>
				<path class="st0" d="M29.8,26.7c-7.7,0-11.4,2.5-11.5,2.7c-0.2,0.2-0.3,0.5-0.1,0.7c0.2,0.2,0.5,0.3,0.7,0.1c0,0,5-3.4,15.4-2.2
					c0.3,0,0.5-0.2,0.6-0.5c0-0.3-0.2-0.6-0.5-0.6C32.7,26.8,31.2,26.7,29.8,26.7z"/>
			</g>
			<g>
				<g>
					<path class="st0" d="M259.1,26c-2.6-0.5-6.7,0.8-4.4,4c-0.5-0.5-1-1-1.5-1.5c7.8,5.7,18,0.1,26-2.4c10.7-3.4,21.7-6.1,32.7-8.2
						c18.8-3.6,35.8,0.5,52.8,8.9c0.6,0.3,0.9,1.2,1.5,1.5c-9.8-4.9-20.4-8.6-31.2-10.3c-13.6-2.1-28.8,2.6-41.9,6.1
						c-11,2.9-24.8,10.7-36.1,7.4c-4.7-1.4-6.3-8.1,0.5-6.9C258.2,24.6,258.6,25.9,259.1,26L259.1,26z"/>
				</g>
				<g>
					<path class="st0" d="M291.2,22c9.4-5.2,20.4-9.7,31.2-7c7,1.8,12.8,6,20.2,6.8c0.2,0,9.3,0.3,7.9-1.5c0.4,0.5,1.1,0.9,1.5,1.5
						c1.3,1.6-5.1,1.6-5.3,1.6c-7.6,0.2-13.9-3.5-20.8-6.2c-11.1-4.3-23.5,0.9-33.3,6.4C292.5,23.6,291.3,21.9,291.2,22L291.2,22z"
						/>
				</g>
				<g>
					<path class="st0" d="M372.8,24.3l-0.8,0.7c0,0-0.7,0.7-2.1,0.7c-0.1,0-0.2,0-0.4,0l-2.5,1.9c0.1,0.1,1.2,0.8,4.4-0.8
						c0,0-1.2,1.8-4.3,1.8c0,0,1.4,1.5,3.9-0.1C373.6,26.9,372.8,24.3,372.8,24.3z M367.1,27.6l2.5-1.9
						C368.4,25.7,367.1,26.4,367.1,27.6C367,27.6,367,27.6,367.1,27.6z"/>
					<path class="st0" d="M376.8,30.6l-1.1,0.1c0,0-1,0.2-2.1-0.7c-0.1-0.1-0.2-0.1-0.3-0.2l-3.2,0.1c0,0.1,0.4,1.3,3.9,1.8
						c0,0-2.1,0.7-4.5-1c0,0,0,1.9,3,2.2C375.5,33.1,376.8,30.6,376.8,30.6z M370.1,29.9l3.3-0.1C372.4,29.2,371,29,370.1,29.9
						C370.1,29.9,370.1,29.9,370.1,29.9z"/>
					<path class="st0" d="M368.9,31.9c-0.5-2.6-2.7-2.5-2.7-2.5c2.1,1.9,1.5,3.9,1.5,3.9c-0.9-3.1-2.2-3.3-2.4-3.3l0.2,2.9
						c0.1,0.1,0.2,0.2,0.2,0.2c1.1,0.9,0.9,1.8,0.9,1.8l0,1C366.8,35.9,369.4,34.5,368.9,31.9z M365.4,29.9
						c-0.9,0.9-0.6,2.1,0.2,2.9L365.4,29.9C365.4,30,365.4,29.9,365.4,29.9z"/>
				</g>
				<g>
					<path class="st0" d="M350.6,15l0.3,0.7c0,0,0.4,0.6,0,1.6c0,0.1-0.1,0.2-0.1,0.2l0.9,2.2c0.1-0.1,1-0.6,0.5-3.2
						c0,0,1.2,1.3,0.3,3.4c0,0,1.7-0.6,1.1-2.7C353.1,15.2,350.6,15,350.6,15z M351.8,19.8l-0.9-2.2
						C350.6,18.4,350.7,19.4,351.8,19.8C351.7,19.8,351.7,19.8,351.8,19.8z"/>
					<path class="st0" d="M357.1,13.9l-0.2,0.7c0,0-0.1,0.8-1.2,1.3c-0.1,0-0.2,0.1-0.2,0.1l-0.9,2.2c0.1,0,1.2,0.1,2.7-2.2
						c0,0,0,1.6-2.2,2.8c0,0,1.7,0.5,2.7-1.5C358.8,15.4,357.1,13.9,357.1,13.9z M354.6,18.3l0.9-2.2
						C354.6,16.5,354.1,17.4,354.6,18.3C354.6,18.3,354.6,18.3,354.6,18.3z"/>
					<path class="st0" d="M355.9,19.6c-2.4-0.3-2.9,1.2-2.9,1.2c2.3-1,3.8,0,3.8,0c-2.9-0.2-3.5,0.7-3.5,0.8l2.5,0.6
						c0.1,0,0.2-0.1,0.3-0.1c1.1-0.5,1.8-0.2,1.8-0.2l0.8,0.2C358.7,22.1,358.3,19.9,355.9,19.6z M353.3,21.5
						c0.5,0.9,1.6,0.9,2.5,0.6L353.3,21.5C353.3,21.5,353.3,21.5,353.3,21.5z"/>
				</g>
				<g>
					<path class="st0" d="M292.7,23.1l-0.3,0.7c0,0-0.2,0.7-1.3,1.2c-0.1,0-0.2,0.1-0.3,0.1l-1,2.2c0.1,0,1.2,0.1,2.9-2
						c0,0-0.1,1.6-2.4,2.6c0,0,1.6,0.6,2.8-1.3C294.3,24.8,292.7,23.1,292.7,23.1z M289.8,27.4l1-2.2
						C290,25.6,289.4,26.5,289.8,27.4C289.8,27.4,289.8,27.4,289.8,27.4z"/>
					<path class="st0" d="M298.2,26.4l-0.7,0.4c0,0-0.7,0.5-1.8,0.2c-0.1,0-0.2,0-0.3,0L293,28c0.1,0.1,0.8,0.8,3.6,0
						c0,0-1.3,1.2-3.7,0.7c0,0,0.8,1.4,3.1,0.6C298.2,28.5,298.2,26.4,298.2,26.4z M293,28l2.3-1.1C294.4,26.8,293.2,27.1,293,28
						C293,28,293,28,293,28z"/>
					<path class="st0" d="M292.9,29.8c-1.4-1.7-3-0.9-3-0.9c2.4,0.7,2.7,2.3,2.7,2.3c-1.9-1.9-3-1.7-3.1-1.6l1.3,2
						c0.1,0,0.2,0.1,0.3,0.1c1.1,0.3,1.4,1,1.4,1l0.4,0.7C293,33.4,294.4,31.5,292.9,29.8z M289.6,29.6c-0.3,0.9,0.4,1.7,1.3,2
						L289.6,29.6C289.6,29.6,289.6,29.6,289.6,29.6z"/>
				</g>
				<path class="st0" d="M282.8,26.7c-7.7,0-11.4,2.5-11.5,2.7c-0.2,0.2-0.3,0.5-0.1,0.7c0.2,0.2,0.5,0.3,0.7,0.1
					c0,0,5-3.4,15.4-2.2c0.3,0,0.5-0.2,0.6-0.5c0-0.3-0.2-0.6-0.5-0.6C285.8,26.8,284.2,26.7,282.8,26.7z"/>
			</g>
		</g>
	</g>
</g>
<g>
	<path class="st1" d="M155.7,38.3c-1.9,0.7-2.9,2.6-2.3,4.3c0.6,1.6,2.2,2.3,3.7,1.5c1.6-0.8,2.8-2.6,2.7-4.1c0,0,0-0.1,0-0.1
		l-2.6-15.5c0.9,0.3,3.2,1,6.6,2.5c4,1.8,4.5,4.8,2.3,7.1c-1,1.2-1.9,2-1.9,2l0.6-0.3L166,35c4.1-3.1,3.8-4.2,2.7-6.7
		c-1.2-2.2-6.5-5.6-12.5-8.1c-0.1,0-0.1-0.1-0.2-0.1c0,0-0.1,0-0.1,0c0,0,0,0,0,0l0,0c-0.1,0-0.1,0-0.2,0c-0.3,0-0.6,0.1-0.5,0.3
		l3.8,18.1C158.2,38,157,37.9,155.7,38.3z"/>
	<path class="st1" d="M219.9,30.8c2.4,0.2,4.8-1.1,5.4-2.9c0.5-1.8-1.1-3.3-3.5-3.5c-2.4-0.2-4.7,1-5.3,2.7c0,0-0.1,0.1-0.1,0.1
		l-6.5,21.4c-0.1,0.2,0.1,0.4,0.3,0.5c0,0,0.1,0,0.1,0l0,0c0,0,0,0,0,0c0,0,0.1,0,0.1,0c0,0,0,0,0.1,0c4.4-1.5,9.2-4.4,11.1-6.7
		c2.1-2.7,3-3.9,0.7-8.3l-0.9-1.1l-0.5-0.4c0,0,0.6,1.1,1.1,2.6c1,3.1-0.8,6.5-4.6,7.9c-2.9,1-4.7,1.4-5.3,1.5l4.7-15.4
		C217.1,30.1,218.3,30.7,219.9,30.8z"/>
	<path class="st1" d="M139.1,31.4c-0.9,0.5-1.6,0.7-1.6,0.7l0.4,0l0.9-0.2c3.1-0.9,3.2-1.7,3.3-3.6c0-1.7-1.8-5-4.2-7.6
		c0,0-0.1-0.1-0.1-0.1c0,0,0,0,0,0c0,0,0,0,0,0l0,0c0,0-0.1,0-0.1-0.1c-0.2-0.1-0.3,0-0.4,0.1l-3.4,11.4c-0.3-0.5-1-1-1.9-1.1
		c-1.3-0.2-2.5,0.6-2.6,1.7c-0.1,1.1,0.7,2,1.9,2.1c1.1,0.1,2.3-0.6,2.7-1.5c0,0,0-0.1,0-0.1l3.1-9.8c0.4,0.3,1.4,1.3,2.8,3
		C141.5,28.4,140.9,30.5,139.1,31.4z"/>
	<path class="st1" d="M325.1,15.1c-1.4,0.4-2.6,1.5-2.6,2.4c-0.1,0.9,1,1.1,2.5,0.6c1.4-0.5,2.5-1.5,2.6-2.2c0,0,0,0,0-0.1V9.2V8
		V5.9c0-0.1-0.1-0.2-0.2-0.2l-6.8,1.4c-0.1,0-0.2,0.1-0.2,0.2l-0.5,2.5l-0.2,1.3l-1.2,6.5c-0.4-0.3-1.1-0.3-2,0
		c-1.5,0.5-2.9,1.7-3.1,2.7c-0.2,1,0.8,1.3,2.4,0.7c1.5-0.5,2.8-1.6,3-2.5c0,0,0-0.1,0-0.1l1.3-7.4l7.1-1.8l-0.1,5.8
		C326.7,14.8,326,14.8,325.1,15.1z M320.3,9.8l0.3-1.4l6.7-1.5l0,1.2L320.3,9.8z"/>
	<path class="st1" d="M120.7,36.3c1.2,0.1,2.5-0.6,2.7-1.5c0.3-0.9-0.5-1.7-1.8-1.8c-1.2-0.1-2.4,0.5-2.7,1.4c0,0,0,0,0,0.1
		l-3.3,10.9c0,0.1,0,0.2,0.1,0.2c0,0,0,0,0,0l0,0c0,0,0,0,0,0c0,0,0,0,0.1,0c0,0,0,0,0,0c2.2-0.8,4.7-2.2,5.6-3.4
		c1.1-1.4,1.5-2,0.3-4.2l-0.4-0.6l-0.3-0.2c0,0,0.3,0.6,0.6,1.3c0.5,1.6-0.4,3.3-2.3,4c-1.5,0.5-2.4,0.7-2.7,0.8l2.4-7.8
		C119.3,35.9,119.9,36.3,120.7,36.3z"/>
	<path class="st1" d="M355.6,14.6c-1.3,0.6-2.5,1.8-2.8,2.7c-0.2,0.9,0.5,1.1,1.7,0.4c1.2-0.6,2.4-1.8,2.8-2.6c0,0,0-0.1,0-0.1
		l2.7-6.9l0.5-1.2l0.9-2.2c0-0.1,0-0.2-0.2-0.2l-9.2,2.5c-0.1,0-0.2,0.1-0.3,0.2l-0.5,2.6l-0.3,1.3l-1.4,6.7
		c-0.3-0.2-0.9-0.2-1.7,0.2c-1.2,0.7-2.3,2-2.4,3c-0.1,1,0.7,1.2,1.8,0.5c1.1-0.7,2.2-1.9,2.4-2.8c0,0,0-0.1,0-0.1l1.6-7.6l8.2-2.8
		l-2.3,6.1C357.1,14.2,356.4,14.3,355.6,14.6z M351.7,9.8l0.3-1.4l8.5-2.5l-0.5,1.3L351.7,9.8z"/>
	<path class="st1" d="M264.1,31.7c1.1-0.3,2-1.1,2.1-1.8c0.1-0.7-0.6-1.1-1.7-0.8c-1,0.3-1.9,1.1-2.1,1.8c0,0,0,0,0,0.1l-1.7,8.9
		c0,0.1,0,0.1,0.1,0.1c0,0,0,0,0,0v0c0,0,0,0,0,0c0,0,0,0,0.1,0c0,0,0,0,0,0c1.8-1.2,3.7-3.1,4.4-4.2c0.8-1.3,1.1-1.8-0.2-3.1
		l-0.4-0.3l-0.2-0.1c0,0,0.3,0.3,0.6,0.8c0.6,1,0,2.5-1.6,3.5c-1.2,0.8-1.9,1.2-2.2,1.4l1.2-6.4C262.9,31.8,263.4,31.9,264.1,31.7z"
		/>
	<path class="st1" d="M233.5,34.7c-1,0.5-1.8,0.8-1.8,0.8l0.4,0l1-0.3c3.6-1.2,3.9-1.8,4.3-3.3c0.3-1.3-1.6-3.6-4.5-5.2
		c0,0-0.1,0-0.1-0.1c0,0,0,0-0.1,0c0,0,0,0,0,0l0,0c0,0-0.1,0-0.1,0c-0.2,0-0.5,0-0.5,0.1l-4.2,9.2c-0.4-0.4-1.2-0.6-2.1-0.6
		c-1.5,0-2.6,0.8-2.4,1.7c0.2,0.9,1.2,1.5,2.3,1.5c1.1-0.1,2.1-0.8,2.4-1.6c0,0,0,0,0-0.1l3.5-8c0.5,0.2,1.7,0.8,3.3,1.9
		C236.7,32,235.7,33.7,233.5,34.7z"/>
	<path class="st1" d="M178.5,37.5c0.8-0.2,1.5-0.9,1.5-1.5c0-0.7-0.7-1-1.6-0.8c-0.8,0.2-1.5,0.8-1.5,1.5c0,0,0,0,0,0.1v8
		c0,0.1,0.1,0.1,0.1,0.1c0,0,0,0,0,0v0c0,0,0,0,0,0c0,0,0,0,0,0c0,0,0,0,0,0c1.3-1,2.7-2.5,3.1-3.4c0.5-1.1,0.6-1.6-0.6-2.9
		l-0.4-0.3l-0.2-0.1c0,0,0.3,0.3,0.6,0.8c0.6,0.9,0.4,2.3-0.8,3.2c-0.9,0.7-1.4,1-1.7,1.1v-5.7C177.5,37.6,177.9,37.6,178.5,37.5z"
		/>
	<path class="st1" d="M336.3,20.2c1.2-0.3,2.1-1.2,2.1-2.1c0-0.9-1-1.4-2.1-1.1c-1.1,0.3-2,1.2-2.1,2c0,0,0,0.1,0,0.1v11
		c0,0.1,0.1,0.2,0.2,0.2c0,0,0,0,0,0v0c0,0,0,0,0,0c0,0,0,0,0.1,0c0,0,0,0,0,0c1.8-1.3,3.7-3.4,4.3-4.7c0.6-1.6,0.9-2.3-0.9-4
		l-0.6-0.4L337,21c0,0,0.4,0.4,0.9,1.1c0.9,1.3,0.5,3.2-1.1,4.4c-1.2,0.9-2,1.3-2.3,1.5v-7.9C334.9,20.3,335.6,20.4,336.3,20.2z"/>
	<path class="st1" d="M775.9,21.2c0.8-0.2,1.4-0.8,1.4-1.4c0-0.6-0.7-1-1.5-0.8c-0.8,0.2-1.4,0.8-1.4,1.4c0,0,0,0,0,0.1V28
		c0,0.1,0.1,0.1,0.1,0.1c0,0,0,0,0,0v0c0,0,0,0,0,0c0,0,0,0,0,0c0,0,0,0,0,0c1.3-0.9,2.5-2.3,2.9-3.2c0.4-1.1,0.6-1.5-0.6-2.7
		l-0.4-0.3l-0.2-0.1c0,0,0.3,0.3,0.6,0.7c0.6,0.9,0.4,2.2-0.7,3c-0.8,0.6-1.4,0.9-1.6,1V21C775,21.3,775.4,21.4,775.9,21.2z"/>
	<path class="st1" d="M756.5,25.5c-1.9,0.6-3.6,2.1-3.8,3.4c-0.1,1.2,1.5,1.6,3.6,0.9c2-0.7,3.6-2.1,3.7-3.2c0,0,0-0.1,0-0.1v-9.3
		v-1.6v-3c0-0.1-0.1-0.2-0.2-0.2l-9.6,2c-0.1,0-0.3,0.1-0.3,0.3l-0.7,3.6l-0.3,1.8l-1.7,9.2c-0.6-0.4-1.6-0.4-2.9,0
		c-2.1,0.7-4.1,2.4-4.4,3.8c-0.4,1.4,1.2,1.8,3.4,1c2.1-0.7,4-2.3,4.3-3.6c0,0,0-0.1,0.1-0.1l1.9-10.5l10.1-2.6l-0.1,8.2
		C758.7,25.1,757.7,25.1,756.5,25.5z M749.7,18l0.4-2l9.4-2.2l0,1.8L749.7,18z"/>
	<path class="st1" d="M249.5,42.8c-1.1,0.4-2.1,1.2-2.1,1.9c-0.1,0.7,0.8,0.9,2,0.5c1.1-0.4,2-1.2,2.1-1.8c0,0,0,0,0-0.1V38v-0.9
		v-1.7c0-0.1-0.1-0.1-0.1-0.1l-5.5,1.1c-0.1,0-0.2,0.1-0.2,0.2l-0.4,2.1l-0.2,1l-1,5.2c-0.3-0.2-0.9-0.2-1.6,0
		c-1.2,0.4-2.3,1.4-2.5,2.1c-0.2,0.8,0.7,1,1.9,0.6c1.2-0.4,2.3-1.3,2.4-2c0,0,0,0,0-0.1l1.1-6l5.7-1.5l-0.1,4.7
		C250.8,42.6,250.2,42.6,249.5,42.8z M245.7,38.5l0.2-1.1l5.4-1.2l0,1L245.7,38.5z"/>
	<path class="st1" d="M276.3,39.1c-0.6,0.3-1.2,0.5-1.2,0.5l0.3,0l0.6-0.2c2.3-0.8,2.5-1.2,2.8-2.1c0.2-0.8-1-2.3-2.9-3.4
		c0,0,0,0-0.1,0c0,0,0,0,0,0c0,0,0,0,0,0l0,0c0,0-0.1,0-0.1,0c-0.2,0-0.3,0-0.3,0.1l-2.7,6c-0.2-0.3-0.8-0.4-1.4-0.4
		c-1,0-1.7,0.5-1.6,1.1c0.1,0.6,0.8,1,1.5,0.9c0.7,0,1.4-0.5,1.6-1c0,0,0,0,0,0l2.3-5.2c0.3,0.1,1.1,0.5,2.2,1.2
		C278.4,37.4,277.7,38.5,276.3,39.1z"/>
	<path class="st1" d="M727.7,11.3c1.1,0.5,2.4,0.3,2.9-0.4c0.5-0.7,0.1-1.7-1-2.1c-1-0.5-2.3-0.3-2.8,0.4c0,0,0,0-0.1,0.1l-6.4,8.6
		c-0.1,0.1,0,0.2,0,0.3c0,0,0,0,0,0l0,0c0,0,0,0,0,0c0,0,0,0,0.1,0c0,0,0,0,0,0c2.2,0,4.9-0.5,6.1-1.2c1.4-0.9,2-1.3,1.7-3.6
		l-0.2-0.7l-0.2-0.3c0,0,0.1,0.6,0.1,1.4c-0.1,1.5-1.4,2.8-3.4,2.8c-1.5,0-2.3-0.1-2.7-0.2l4.6-6.2C726.5,10.5,727,11,727.7,11.3z"
		/>
	<path class="st1" d="M743.8,3.3l-0.5,9.1c-0.3-0.3-0.9-0.5-1.5-0.5c-1,0.1-1.7,0.9-1.6,1.7c0.1,0.8,0.8,1.4,1.6,1.2
		c0.8-0.2,1.6-0.9,1.8-1.6c0,0,0,0,0-0.1l0.7-7.7c0.4,0.2,1.4,0.9,2.8,2c1.7,1.4,1.5,2.8,0.2,3.7c-0.6,0.4-1.1,0.7-1.1,0.7l0.3-0.1
		l0.7-0.2c2.4-1,2.4-1.5,2.1-2.8c-0.3-1.2-2.4-3.5-4.9-5.4c0,0-0.1,0-0.1-0.1c0,0,0,0,0,0c0,0,0,0,0,0l0,0c0,0-0.1,0-0.1,0
		C744,3.2,743.8,3.2,743.8,3.3z"/>
	<path class="st1" d="M748.2,35.4l-0.5,9.1c-0.3-0.3-0.9-0.5-1.5-0.5c-1,0.1-1.7,0.9-1.6,1.7c0.1,0.8,0.8,1.4,1.6,1.2
		c0.8-0.2,1.6-0.9,1.8-1.6c0,0,0,0,0-0.1l0.7-7.7c0.4,0.2,1.4,0.9,2.8,2c1.7,1.4,1.5,2.8,0.2,3.7c-0.6,0.4-1.1,0.7-1.1,0.7l0.3-0.1
		l0.7-0.2c2.4-1,2.4-1.5,2.1-2.8c-0.3-1.2-2.4-3.5-4.9-5.4c0,0-0.1,0-0.1-0.1c0,0,0,0,0,0c0,0,0,0,0,0l0,0c0,0-0.1,0-0.1,0
		C748.4,35.3,748.2,35.3,748.2,35.4z"/>
	<path class="st1" d="M835.3,27.9c-0.6,0.3-1.2,0.5-1.2,0.5l0.3,0l0.7-0.1c2.3-0.7,2.4-1.3,2.5-2.7c0-1.2-1.3-3.6-3.1-5.6
		c0,0,0,0-0.1-0.1c0,0,0,0,0,0c0,0,0,0,0,0l0,0c0,0,0,0-0.1,0c-0.1-0.1-0.3,0-0.3,0.1l-2.5,8.4c-0.2-0.4-0.7-0.7-1.4-0.8
		c-1-0.1-1.8,0.4-1.9,1.2c-0.1,0.8,0.5,1.5,1.4,1.6c0.8,0.1,1.7-0.4,2-1.1c0,0,0,0,0-0.1l2.3-7.2c0.3,0.2,1,0.9,2.1,2.2
		C837.1,25.7,836.6,27.2,835.3,27.9z"/>
	<path class="st1" d="M896.4,12.3c-0.5,0.3-1,0.5-1,0.5l0.2,0l0.6-0.1c2-0.6,2.1-1.1,2.1-2.3c0-1.1-1.1-3.1-2.7-4.8c0,0,0,0-0.1-0.1
		c0,0,0,0,0,0c0,0,0,0,0,0l0,0c0,0,0,0-0.1,0c-0.1,0-0.2,0-0.2,0.1l-2.2,7.2c-0.2-0.3-0.6-0.6-1.2-0.7c-0.9-0.1-1.6,0.4-1.7,1.1
		c-0.1,0.7,0.4,1.3,1.2,1.4c0.7,0.1,1.5-0.4,1.7-1c0,0,0,0,0-0.1l2-6.2c0.2,0.2,0.9,0.8,1.8,1.9C898,10.4,897.6,11.7,896.4,12.3z"/>
	<path class="st1" d="M801.9,16.1c1.4,0.6,3.2,0.4,3.8-0.6c0.7-0.9,0.1-2.2-1.4-2.8c-1.4-0.6-3-0.4-3.8,0.5c0,0-0.1,0-0.1,0.1
		L792,24.7c-0.1,0.1-0.1,0.3,0.1,0.4c0,0,0,0,0.1,0l0,0c0,0,0,0,0,0c0,0,0,0,0.1,0c0,0,0,0,0.1,0c2.9,0.1,6.5-0.6,8.1-1.6
		c1.9-1.1,2.7-1.7,2.2-4.8l-0.3-0.9l-0.2-0.3c0,0,0.1,0.8,0.1,1.8c-0.1,2.1-1.9,3.7-4.5,3.7c-2,0-3.1-0.2-3.5-0.3l6.2-8.3
		C800.4,15.1,801,15.8,801.9,16.1z"/>
	<path class="st1" d="M823.4,5.6l-0.6,12.1c-0.4-0.5-1.2-0.7-2-0.7c-1.3,0.1-2.3,1.2-2.2,2.3c0.1,1.1,1,1.8,2.1,1.6
		c1.1-0.2,2.2-1.1,2.4-2.1c0,0,0-0.1,0-0.1l1-10.2c0.5,0.3,1.8,1.2,3.7,2.7c2.2,1.8,2,3.8,0.2,4.9c-0.8,0.6-1.5,0.9-1.5,0.9l0.4-0.1
		l0.9-0.3c3.1-1.3,3.1-2,2.8-3.7c-0.4-1.6-3.1-4.6-6.5-7.2c0,0-0.1-0.1-0.1-0.1c0,0,0,0-0.1,0c0,0,0,0,0,0l0,0c0,0-0.1,0-0.1-0.1
		C823.6,5.4,823.4,5.5,823.4,5.6z"/>
	<path class="st1" d="M882.4,37.9C882.4,37.9,882.4,37.9,882.4,37.9l3.4-8c0-0.1,0-0.1-0.1-0.1c-0.1,0-0.2,0.1-0.3,0.2l-3,7.2
		c-0.2-0.3-0.6-0.4-1.2-0.4c-0.9,0.1-1.7,0.6-1.9,1.1c-0.1,0.6,0.4,1,1.1,1.1C881.2,39.1,882.1,38.6,882.4,37.9z"/>
	<path class="st1" d="M638.7,6.8l2.7,4.1c-0.3,0-0.6,0.1-0.8,0.3c-0.4,0.4-0.5,0.9-0.2,1.3c0.3,0.3,0.8,0.3,1.2,0
		c0.3-0.3,0.4-0.9,0.2-1.3c0,0,0,0,0,0l-2.2-3.6c0.2,0,0.8-0.1,1.7-0.1c1.1,0.1,1.6,0.8,1.4,1.6c-0.1,0.4-0.2,0.7-0.2,0.7l0.1-0.1
		l0.2-0.3c0.5-1.2,0.3-1.5-0.3-2c-0.5-0.5-2-0.8-3.5-0.7c0,0,0,0,0,0c0,0,0,0,0,0c0,0,0,0,0,0l0,0c0,0,0,0,0,0
		C638.7,6.7,638.7,6.8,638.7,6.8z"/>
	<path class="st1" d="M871.5,36.7l-0.2-0.1c0,0,0.4,0.3,0.7,0.9c0.7,1,0.4,2.5-0.8,3.5c-1,0.7-1.6,1-1.8,1.2v-6.3
		c0.3,0.3,0.8,0.4,1.4,0.2c0.9-0.2,1.7-1,1.7-1.7c0-0.7-0.8-1.1-1.7-0.9c-0.9,0.2-1.6,0.9-1.7,1.6c0,0,0,0,0,0.1v8.7
		c0,0.1,0.1,0.2,0.2,0.2c0,0,0,0,0,0v0c0,0,0,0,0,0c0,0,0,0,0,0c0,0,0,0,0,0c1.5-1,3-2.7,3.4-3.8c0.5-1.2,0.7-1.8-0.7-3.2
		L871.5,36.7z"/>
	<path class="st1" d="M509.4,33.2c1.8,0.1,3.5-0.8,3.9-2.1c0.4-1.3-0.8-2.4-2.5-2.5c-1.7-0.1-3.4,0.7-3.8,1.9c0,0,0,0.1-0.1,0.1
		l-4.7,15.5c0,0.2,0,0.3,0.2,0.4c0,0,0,0,0.1,0l0,0c0,0,0,0,0,0c0,0,0.1,0,0.1,0c0,0,0,0,0.1,0c3.2-1.1,6.7-3.2,8-4.8
		c1.6-1.9,2.2-2.8,0.5-6l-0.6-0.8l-0.4-0.3c0,0,0.4,0.8,0.8,1.9c0.7,2.2-0.6,4.7-3.4,5.7c-2.1,0.7-3.4,1-3.9,1.1l3.4-11.2
		C507.5,32.7,508.3,33.1,509.4,33.2z"/>
	<path class="st1" d="M628.3,37.9c-0.7,0.3-1.3,0.9-1.4,1.4c-0.1,0.5,0.3,0.6,0.9,0.2c0.6-0.3,1.2-0.9,1.4-1.3c0,0,0,0,0,0l1.4-3.5
		l0.2-0.6l0.4-1.1c0-0.1,0-0.1-0.1-0.1l-4.7,1.3c-0.1,0-0.1,0.1-0.1,0.1l-0.3,1.3l-0.1,0.7l-0.7,3.4c-0.2-0.1-0.5-0.1-0.9,0.1
		c-0.6,0.3-1.2,1-1.2,1.5c-0.1,0.5,0.4,0.6,0.9,0.3c0.6-0.3,1.1-1,1.2-1.5c0,0,0,0,0,0l0.8-3.9l4.2-1.4l-1.2,3.1
		C629,37.7,628.7,37.7,628.3,37.9z M626.3,35.4l0.2-0.7l4.4-1.3l-0.3,0.7L626.3,35.4z"/>
	<path class="st1" d="M688.4,28.4c-1.5,0.8-2.7,1.2-2.7,1.2l0.7,0l1.5-0.3c5.3-1.6,5.5-3,5.7-6.2c0-2.9-3-8.4-7.2-12.9
		c0-0.1-0.1-0.1-0.1-0.1c0,0,0-0.1-0.1-0.1c0,0,0,0,0,0l0,0c0,0-0.1-0.1-0.2-0.1c-0.3-0.1-0.6-0.1-0.7,0.1l-5.8,19.3
		c-0.5-0.9-1.7-1.7-3.1-1.9c-2.3-0.3-4.2,1-4.4,2.8c-0.2,1.9,1.2,3.5,3.1,3.6c1.9,0.2,3.9-1,4.5-2.5c0,0,0.1-0.1,0.1-0.1l5.3-16.6
		c0.7,0.6,2.4,2.1,4.8,5C692.5,23.3,691.5,26.9,688.4,28.4z"/>
	<path class="st1" d="M864.3,16.3c-0.9,0.2-1.8,1-1.9,1.6c0,0,0,0,0,0.1l-1.5,8.1c0,0.1,0,0.1,0.1,0.1c0,0,0,0,0,0v0c0,0,0,0,0,0
		c0,0,0,0,0,0c0,0,0,0,0,0c1.6-1.1,3.4-2.8,4-3.8c0.7-1.2,1-1.7-0.1-2.8l-0.4-0.3l-0.2-0.1c0,0,0.3,0.3,0.6,0.7
		c0.5,0.9,0,2.2-1.4,3.2c-1.1,0.8-1.8,1.1-2,1.3l1.1-5.8c0.3,0.2,0.8,0.3,1.4,0.1c1-0.3,1.8-1,2-1.6C866,16.4,865.3,16,864.3,16.3z"
		/>
	<path class="st1" d="M615.4,15.5c-1.1,0.4-2.1,1.3-2.2,2c-0.1,0.7,0.9,1,2.1,0.5c1.2-0.4,2.1-1.2,2.1-1.9c0,0,0,0,0-0.1v-5.5V9.7
		V7.9c0-0.1-0.1-0.1-0.1-0.1L611.7,9c-0.1,0-0.2,0.1-0.2,0.2l-0.4,2.1l-0.2,1.1l-1,5.4c-0.3-0.2-0.9-0.3-1.7,0
		c-1.2,0.4-2.4,1.4-2.6,2.2c-0.2,0.8,0.7,1.1,2,0.6c1.2-0.4,2.3-1.4,2.5-2.1c0,0,0,0,0-0.1l1.1-6.1l5.9-1.5l-0.1,4.8
		C616.7,15.3,616.1,15.3,615.4,15.5z M611.4,11.2l0.2-1.1l5.5-1.3l0,1L611.4,11.2z"/>
	<path class="st1" d="M668.8,10.7c-0.6-0.5-2.4-0.1-4.1,1.1c0,0,0,0-0.1,0c0,0,0,0,0,0c0,0,0,0,0,0l0,0c0,0,0,0,0,0.1
		c-0.1,0.1-0.1,0.3-0.1,0.3l4,4.8c-0.3,0.1-0.7,0.5-0.9,1c-0.4,0.8-0.3,1.6,0.3,1.8c0.5,0.1,1.2-0.3,1.4-0.9
		c0.2-0.6,0.1-1.4-0.2-1.8c0,0,0,0,0,0l-3.5-4.1c0.2-0.2,0.9-0.8,1.9-1.3c1.2-0.6,1.9,0.4,1.9,1.9c0,0.7,0,1.2,0,1.2l0.1-0.2
		l0.1-0.6C669.7,11.7,669.5,11.3,668.8,10.7z"/>
	<path class="st1" d="M885,24.5c-0.8,0.4-1.6,1.2-1.8,1.8c-0.2,0.6,0.3,0.7,1.1,0.3c0.8-0.4,1.5-1.1,1.8-1.7c0,0,0,0,0-0.1l1.7-4.5
		l0.3-0.8l0.6-1.4c0-0.1,0-0.1-0.1-0.1l-5.9,1.6c-0.1,0-0.2,0.1-0.2,0.2l-0.4,1.7l-0.2,0.9l-0.9,4.3c-0.2-0.2-0.6-0.1-1.1,0.1
		c-0.8,0.4-1.5,1.3-1.6,1.9c-0.1,0.6,0.5,0.8,1.2,0.3c0.7-0.4,1.4-1.2,1.6-1.8c0,0,0,0,0-0.1l1.1-4.9l5.3-1.8l-1.5,3.9
		C885.9,24.2,885.5,24.2,885,24.5z M882.5,21.3l0.2-0.9l5.5-1.6l-0.3,0.8L882.5,21.3z"/>
	<path class="st1" d="M883.3,17.7c-0.8,0.4-1.4,0.6-1.4,0.6l0.3,0l0.8-0.1c2.7-0.8,2.8-1.5,2.9-3.2c0-1.5-1.6-4.3-3.7-6.6
		c0,0,0,0-0.1-0.1c0,0,0,0,0,0c0,0,0,0,0,0l0,0c0,0-0.1,0-0.1,0c-0.2-0.1-0.3,0-0.3,0.1l-3,9.9c-0.3-0.5-0.9-0.9-1.6-1
		c-1.2-0.2-2.2,0.5-2.3,1.5c-0.1,1,0.6,1.8,1.6,1.9c1,0.1,2-0.5,2.3-1.3c0,0,0,0,0-0.1l2.7-8.5c0.3,0.3,1.2,1.1,2.4,2.6
		C885.4,15.1,884.9,16.9,883.3,17.7z"/>
	<path class="st1" d="M590.4,4.3c0.9-0.2,1.7-0.9,1.8-1.5c0.1-0.6-0.5-0.9-1.4-0.7C590,2.4,589.2,3,589,3.6c0,0,0,0,0,0.1l-1.4,7.4
		c0,0.1,0,0.1,0.1,0.1c0,0,0,0,0,0v0c0,0,0,0,0,0c0,0,0,0,0,0c0,0,0,0,0,0c1.5-1,3.1-2.5,3.6-3.5c0.6-1.1,0.9-1.5-0.1-2.5L591,4.9
		l-0.2-0.1c0,0,0.3,0.3,0.5,0.7c0.5,0.8,0,2-1.3,2.9c-1,0.7-1.6,1-1.8,1.1l1-5.3C589.4,4.4,589.9,4.5,590.4,4.3z"/>
	<path class="st1" d="M565,6.8c-0.8,0.4-1.5,0.6-1.5,0.6l0.3,0l0.8-0.2c2.9-1,3.2-1.5,3.6-2.7c0.2-1.1-1.3-2.9-3.7-4.4
		c0,0-0.1,0-0.1,0c0,0,0,0,0,0c0,0,0,0,0,0l0,0c0,0-0.1,0-0.1,0c-0.2,0-0.4,0-0.4,0.1l-3.4,7.7c-0.3-0.3-1-0.5-1.7-0.5
		c-1.2,0-2.1,0.6-2,1.4c0.1,0.7,1,1.3,1.9,1.2c0.9-0.1,1.8-0.6,2-1.3c0,0,0,0,0-0.1l2.9-6.6c0.4,0.2,1.4,0.7,2.8,1.6
		C567.6,4.6,566.8,6,565,6.8z"/>
	<path class="st1" d="M678.6,8.2c1.1-0.3,2-1.2,2-2c0-0.8-0.9-1.3-2-1.1c-1.1,0.2-1.9,1.1-2,1.9c0,0,0,0,0,0.1v10.4
		c0,0.1,0.1,0.2,0.2,0.2c0,0,0,0,0,0v0c0,0,0,0,0,0c0,0,0,0,0.1,0c0,0,0,0,0,0c1.7-1.2,3.5-3.2,4-4.5c0.6-1.5,0.8-2.1-0.8-3.8
		L679.6,9l-0.3-0.1c0,0,0.4,0.4,0.8,1c0.8,1.2,0.5,3-1,4.1c-1.1,0.8-1.9,1.2-2.2,1.4V7.9C677.3,8.2,677.9,8.3,678.6,8.2z"/>
	<path class="st1" d="M624.7,19.8c1-0.2,1.8-1,1.7-1.8c0-0.7-0.8-1.2-1.8-0.9c-0.9,0.2-1.7,1-1.7,1.7c0,0,0,0,0,0.1V28
		c0,0.1,0.1,0.2,0.2,0.2c0,0,0,0,0,0v0c0,0,0,0,0,0c0,0,0,0,0,0c0,0,0,0,0,0c1.5-1.1,3.1-2.8,3.5-3.9c0.5-1.3,0.7-1.9-0.7-3.3
		l-0.5-0.3l-0.2-0.1c0,0,0.4,0.4,0.7,0.9c0.7,1.1,0.4,2.6-0.9,3.6c-1,0.7-1.7,1.1-1.9,1.2v-6.6C623.6,19.9,624.1,20,624.7,19.8z"/>
	<path class="st1" d="M779.9,11c0.9-0.7,1.3-2,1-2.8c-0.4-0.8-1.5-0.8-2.4-0.1c-0.9,0.7-1.3,1.9-1,2.7c0,0,0,0.1,0,0.1l4.7,9.7
		c0,0.1,0.2,0.1,0.3,0.1c0,0,0,0,0,0l0,0c0,0,0,0,0,0c0,0,0,0,0,0c0,0,0,0,0,0c1.1-1.9,1.8-4.6,1.7-6c-0.1-1.6-0.2-2.4-2.5-3.2
		l-0.7-0.1l-0.3,0c0,0,0.6,0.2,1.2,0.6c1.3,0.8,1.8,2.6,0.9,4.3c-0.7,1.3-1.2,2-1.4,2.3l-3.4-7C778.7,11.6,779.4,11.4,779.9,11z"/>
	<path class="st1" d="M852.5,27.1c0.9,0.1,1.9-0.4,2.1-1.1c0.2-0.7-0.4-1.3-1.4-1.3c-0.9-0.1-1.8,0.4-2,1c0,0,0,0,0,0.1l-2.5,8.3
		c0,0.1,0,0.2,0.1,0.2c0,0,0,0,0,0l0,0c0,0,0,0,0,0c0,0,0,0,0,0c0,0,0,0,0,0c1.7-0.6,3.6-1.7,4.3-2.6c0.8-1,1.2-1.5,0.3-3.2
		l-0.3-0.4l-0.2-0.2c0,0,0.2,0.4,0.4,1c0.4,1.2-0.3,2.5-1.8,3c-1.1,0.4-1.8,0.5-2.1,0.6l1.8-6C851.5,26.8,851.9,27.1,852.5,27.1z"/>
	<path class="st1" d="M578.3,13.5c-0.9,0.3-1.7,1-1.8,1.6c-0.1,0.6,0.7,0.8,1.7,0.4c0.9-0.3,1.7-1,1.7-1.5c0,0,0,0,0-0.1V9.6V8.8
		V7.4c0-0.1-0.1-0.1-0.1-0.1l-4.5,0.9c-0.1,0-0.1,0.1-0.1,0.1l-0.3,1.7l-0.2,0.9l-0.8,4.3c-0.3-0.2-0.8-0.2-1.4,0
		c-1,0.3-1.9,1.1-2.1,1.8c-0.2,0.6,0.6,0.9,1.6,0.5c1-0.4,1.9-1.1,2-1.7c0,0,0,0,0-0.1l0.9-4.9l4.8-1.2l0,3.9
		C579.4,13.4,578.9,13.4,578.3,13.5z M575.1,10l0.2-0.9l4.5-1l0,0.8L575.1,10z"/>
	<path class="st1" d="M600.5,10.5c-0.5,0.3-1,0.4-1,0.4l0.2,0l0.5-0.1c1.9-0.6,2.1-1,2.3-1.8c0.1-0.7-0.8-1.9-2.4-2.8c0,0,0,0-0.1,0
		c0,0,0,0,0,0c0,0,0,0,0,0l0,0c0,0,0,0-0.1,0c-0.1,0-0.3,0-0.3,0.1l-2.2,5c-0.2-0.2-0.6-0.3-1.1-0.3c-0.8,0-1.4,0.4-1.3,0.9
		c0.1,0.5,0.6,0.8,1.2,0.8c0.6,0,1.2-0.4,1.3-0.8c0,0,0,0,0,0l1.9-4.3c0.3,0.1,0.9,0.4,1.8,1C602.2,9.1,601.7,10,600.5,10.5z"/>
	<path class="st1" d="M439.3,10.6c-0.7,0.3-1.3,0.9-1.4,1.4c-0.1,0.5,0.3,0.6,0.9,0.2c0.6-0.3,1.2-0.9,1.4-1.3c0,0,0,0,0,0l1.4-3.5
		l0.2-0.6l0.4-1.1c0-0.1,0-0.1-0.1-0.1l-4.7,1.3c-0.1,0-0.1,0.1-0.1,0.1l-0.3,1.3l-0.1,0.7l-0.7,3.4c-0.2-0.1-0.5-0.1-0.9,0.1
		c-0.6,0.3-1.2,1-1.2,1.5c-0.1,0.5,0.4,0.6,0.9,0.3c0.6-0.3,1.1-1,1.2-1.5c0,0,0,0,0,0l0.8-3.9l4.2-1.4l-1.2,3.1
		C440,10.4,439.7,10.4,439.3,10.6z M437.3,8.2l0.2-0.7l4.4-1.3l-0.3,0.7L437.3,8.2z"/>
	<path class="st1" d="M421.1,14c0.9-0.7,1.3-2,1-2.8c-0.4-0.8-1.5-0.8-2.4-0.1c-0.9,0.7-1.3,1.9-1,2.7c0,0,0,0.1,0,0.1l4.7,9.7
		c0,0.1,0.2,0.1,0.3,0.1c0,0,0,0,0,0l0,0c0,0,0,0,0,0c0,0,0,0,0,0c0,0,0,0,0,0c1.1-1.9,1.8-4.6,1.7-6c-0.1-1.6-0.2-2.4-2.5-3.2
		l-0.7-0.1l-0.3,0c0,0,0.6,0.2,1.2,0.6c1.3,0.8,1.8,2.6,0.9,4.3c-0.7,1.3-1.2,2-1.4,2.3l-3.4-7C419.9,14.6,420.5,14.5,421.1,14z"/>
	<path class="st1" d="M454.3,10.4c1.8-0.5,3.5-1.9,3.7-3.1c0.2-1.2-1.1-1.9-2.9-1.4c-1.8,0.5-3.4,1.8-3.7,3.1c0,0,0,0.1,0,0.1
		l-2.9,15.5c0,0.1,0.1,0.3,0.2,0.2c0,0,0,0,0.1,0l0,0c0,0,0,0,0,0c0,0,0.1,0,0.1,0c0,0,0,0,0.1,0c3.1-2.1,6.5-5.3,7.7-7.3
		c1.4-2.2,1.9-3.2-0.3-5.4l-0.8-0.5l-0.4-0.1c0,0,0.6,0.5,1.1,1.4c1,1.7,0,4.3-2.7,6.2c-2.1,1.4-3.4,2.1-3.9,2.4l2.1-11.2
		C452.2,10.6,453.2,10.7,454.3,10.4z"/>
	<path class="st1" d="M67.2,9.5c-0.7,0.3-1.3,0.9-1.4,1.4c-0.1,0.5,0.3,0.6,0.9,0.2c0.6-0.3,1.2-0.9,1.4-1.3c0,0,0,0,0,0l1.4-3.5
		l0.2-0.6l0.4-1.1c0-0.1,0-0.1-0.1-0.1l-4.7,1.3c-0.1,0-0.1,0.1-0.1,0.1L65,7.1l-0.1,0.7l-0.7,3.4c-0.2-0.1-0.5-0.1-0.9,0.1
		c-0.6,0.3-1.2,1-1.2,1.5c-0.1,0.5,0.4,0.6,0.9,0.3c0.6-0.3,1.1-1,1.2-1.5c0,0,0,0,0,0l0.8-3.9l4.2-1.4l-1.2,3.1
		C68,9.3,67.6,9.3,67.2,9.5z M65.2,7.1l0.2-0.7L69.8,5l-0.3,0.7L65.2,7.1z"/>
	<path class="st1" d="M49,12.9c0.9-0.7,1.3-2,1-2.8c-0.4-0.8-1.5-0.8-2.4-0.1c-0.9,0.7-1.3,1.9-1,2.7c0,0,0,0.1,0,0.1l4.7,9.7
		c0,0.1,0.2,0.1,0.3,0.1c0,0,0,0,0,0l0,0c0,0,0,0,0,0c0,0,0,0,0,0c0,0,0,0,0,0c1.1-1.9,1.8-4.6,1.7-6c-0.1-1.6-0.2-2.4-2.5-3.2
		l-0.7-0.1l-0.3,0c0,0,0.6,0.2,1.2,0.6c1.3,0.8,1.8,2.6,0.9,4.3c-0.7,1.3-1.2,2-1.4,2.3l-3.4-7C47.8,13.5,48.5,13.4,49,12.9z"/>
	<path class="st1" d="M82.2,9.3c1.8-0.5,3.5-1.9,3.7-3.1c0.2-1.2-1.1-1.9-2.9-1.4c-1.8,0.5-3.4,1.8-3.7,3.1c0,0,0,0.1,0,0.1
		l-2.9,15.5c0,0.1,0.1,0.3,0.2,0.2c0,0,0,0,0.1,0l0,0c0,0,0,0,0,0c0,0,0.1,0,0.1,0c0,0,0,0,0.1,0c3.1-2.1,6.5-5.3,7.7-7.3
		c1.4-2.2,1.9-3.2-0.3-5.4l-0.8-0.5l-0.4-0.1c0,0,0.6,0.5,1.1,1.4c1,1.7,0,4.3-2.7,6.2c-2.1,1.4-3.4,2.1-3.9,2.4l2.1-11.2
		C80.1,9.5,81.1,9.6,82.2,9.3z"/>
	<path class="st1" d="M650.9,22c-0.6,0.3-1.1,0.5-1.1,0.5l0.3,0l0.6-0.2c2.2-0.7,2.4-1.1,2.6-2c0.2-0.8-1-2.2-2.8-3.2c0,0,0,0-0.1,0
		c0,0,0,0,0,0c0,0,0,0,0,0l0,0c0,0,0,0-0.1,0c-0.1,0-0.3,0-0.3,0.1l-2.6,5.7c-0.2-0.2-0.7-0.4-1.3-0.4c-0.9,0-1.6,0.5-1.5,1
		c0.1,0.5,0.7,0.9,1.4,0.9c0.7,0,1.3-0.5,1.5-1c0,0,0,0,0,0l2.2-4.9c0.3,0.1,1.1,0.5,2.1,1.2C652.8,20.4,652.2,21.4,650.9,22z"/>
	<path class="st1" d="M653.6,25.8l-0.4,6.8c-0.2-0.3-0.7-0.4-1.1-0.4c-0.7,0.1-1.3,0.7-1.2,1.3c0,0.6,0.6,1,1.2,0.9
		c0.6-0.1,1.2-0.6,1.3-1.2c0,0,0,0,0-0.1l0.5-5.7c0.3,0.2,1,0.7,2.1,1.5c1.3,1,1.1,2.1,0.1,2.7c-0.5,0.3-0.9,0.5-0.9,0.5l0.2,0
		L656,32c1.8-0.7,1.8-1.1,1.6-2.1c-0.2-0.9-1.8-2.6-3.7-4.1c0,0,0,0-0.1,0c0,0,0,0,0,0c0,0,0,0,0,0l0,0c0,0,0,0-0.1,0
		C653.7,25.7,653.6,25.7,653.6,25.8z"/>
</g>
</svg>
