<?xml version="1.0" encoding="utf-8"?>
<!-- Generator: Adobe Illustrator 24.0.3, SVG Export Plug-In . SVG Version: 6.00 Build 0)  -->
<svg version="1.1" id="レイヤー_1" xmlns="http://www.w3.org/2000/svg" xmlns:xlink="http://www.w3.org/1999/xlink" x="0px"
	 y="0px" viewBox="0 0 348.5 47.2" style="enable-background:new 0 0 348.5 47.2;" xml:space="preserve">
<style type="text/css">
	.st0{fill:#503819;}
</style>
<g>
	<g>
		<path class="st0" d="M14.4,6C14.8,6,15,6.2,15,6.6c0,0.2-0.1,0.3-0.3,0.5c0,0-0.1,0.1-0.1,0.1c0.8,0.6,1.5,1.2,2.3,1.8
			c0.2,0,0.5,0.1,0.6,0.3c0.2,0.2,0.4,0.4,0.4,0.7c0,0.3-0.4,0.6-1.1,1c-3.7,2.4-7.2,4.2-10.5,5.3c-1.3,0.5-2.8,0.8-4.4,0.8
			c-0.4,0-0.7-0.1-1-0.4C0.3,15.9,0,15.4,0,14.8c0-0.4,0.1-0.6,0.4-0.6c0.2,0,0.4,0.1,0.6,0.2c0.4,0.2,0.8,0.2,1.4,0.2
			c1.8,0,3.4-0.2,4.7-0.5c1-0.3,2-0.6,3.1-1.1c-0.6-0.6-1-1-1.3-1.1c-0.3-0.1-0.4-0.3-0.4-0.5c0-0.5,0.3-0.8,0.8-0.8
			c0,0,0.4,0.3,0.9,0.8c0.5,0.5,0.8,0.9,0.8,1.1c0.9-0.4,1.8-0.8,2.7-1.3c1.5-0.8,2.3-1.3,2.3-1.5c0-0.1-0.1-0.3-0.4-0.5
			c-0.7-0.4-1.3-0.8-1.9-1.2c-0.1-0.1-0.3-0.2-0.3-0.4c-2.2,1.3-4.1,2.3-5.9,3c-1.5,0.6-2.6,0.9-3.3,0.9c-0.4,0-0.7-0.1-1-0.4
			c-0.3-0.2-0.4-0.5-0.4-0.8c0-0.2,0.1-0.3,0.3-0.4c2.7-0.5,4.7-1,6.1-1.6c1.3-0.4,2.8-1.2,4.7-2.4C14,6.1,14.2,6,14.4,6z M12.2,0
			c0.4,0,0.5,0.2,0.6,0.6c0,0.1,0,0.2-0.1,0.3c0.6,0.5,1.2,1,1.8,1.6c0.2,0,0.4,0.1,0.5,0.3c0.2,0.2,0.3,0.4,0.3,0.6
			c0,0.2-0.3,0.5-0.9,0.7C11.6,5.8,8.9,7.1,6.4,8c-1,0.4-2.1,0.6-3.3,0.6c-0.2,0-0.5-0.1-0.7-0.4c-0.4-0.5-0.6-1-0.6-1.4
			c0-0.3,0.1-0.5,0.3-0.5c0.2,0,0.3,0.1,0.5,0.2C3,6.6,3.4,6.6,3.9,6.6c1.3,0,2.3-0.1,3.2-0.4c0.4-0.1,0.8-0.2,1.1-0.4
			C7.8,5.4,7.4,5.1,7.1,5C6.9,4.9,6.7,4.7,6.7,4.5C6.7,4,7,3.7,7.6,3.7C7.6,3.7,8,4,8.5,4.5C9,5,9.2,5.3,9.3,5.6
			c0.8-0.3,1.7-0.7,2.5-1.2c1-0.5,1.5-0.9,1.5-1.1c0-0.1-0.1-0.3-0.3-0.4c-0.4-0.4-0.9-0.8-1.3-1.1c-0.1-0.1-0.2-0.2-0.2-0.3
			C9.7,2.4,8.1,3,6.6,3.5C5.4,3.9,4.5,4.1,3.9,4.1C3.6,4.1,3.3,4,3,3.8C2.7,3.5,2.6,3.3,2.6,3c0-0.2,0.1-0.3,0.3-0.4
			c2.2-0.3,3.9-0.6,5-1c1-0.3,2.3-0.8,3.8-1.5C11.9,0.1,12,0,12.2,0z"/>
		<path class="st0" d="M24.2,5c0.5,0,0.8,0.2,0.9,0.6c0,0.9,0.1,2.8,0.1,5.6c0,0.3,0.1,0.4,0.4,0.4c0.5-0.1,1.1-0.2,1.6-0.2L26.9,1
			c0-0.6,0.2-0.8,0.7-0.8c0.6,0,0.9,0.3,0.9,0.8l-0.2,10.4c0.5,0,1,0,1.5,0.1c0.3,0,0.5-0.1,0.5-0.4c-0.1-1.2-0.1-2.9-0.1-5.1
			c0-0.8,0.3-1.2,0.8-1.2c0.4,0,0.6,0.3,0.6,0.8c-0.1,1.3-0.2,2.6-0.2,3.7c0.1,1.3,0.1,2.2,0.1,2.6c0,0.5-0.2,0.7-0.6,0.7
			c-0.7,0-1.8-0.1-3.2-0.1c-1.1,0-2.2,0.1-3.3,0.4c-0.5,0-0.7-0.3-0.7-0.8c0.1-0.8,0.1-1.5,0.1-2.2c0-1-0.1-2.5-0.3-4.4
			C23.5,5.2,23.8,5,24.2,5z M33.7,3.2h3.4l0-2.1c0-0.6,0.2-0.8,0.7-0.8c0.6,0,0.9,0.3,0.9,0.8l0,2.1h4.6c0.2,0,0.3,0.1,0.4,0.3
			c0,0.3-0.1,0.6-0.3,0.8c-0.2,0.2-0.5,0.3-0.8,0.3c-0.2,0-0.8-0.1-1.7-0.2c-0.7,0-1.4-0.1-2.2-0.1l-0.1,2.8h2.1
			c0.1,0,0.3,0,0.5-0.1c0.2-0.1,0.3-0.1,0.4-0.1c0.4,0,0.6,0.3,0.6,0.7c0,0.2-0.1,0.4-0.3,0.6c-0.3,0.3-0.6,0.8-1,1.4
			c-0.6,1.1-1.3,2-1.9,2.8c1.4,0.8,2.6,1.4,3.5,1.8c0.9,0.3,1.6,0.5,2.2,0.5c0.2,0,0.3,0.1,0.3,0.3c0,0.5-0.3,0.9-0.8,1.4
			c-0.3,0.3-0.6,0.4-1,0.4c-0.2,0-0.5-0.1-0.8-0.2c-0.4-0.2-1.3-0.9-2.9-2.1c-0.5-0.4-1-0.8-1.4-1.1c-0.1,0.1-0.2,0.2-0.3,0.3
			c-1,0.9-2,1.6-2.9,2c-1,0.5-1.7,0.7-2.1,0.7c-0.3,0-0.6-0.2-0.8-0.4c-0.3-0.2-0.4-0.4-0.4-0.6c0-0.2,0.1-0.4,0.4-0.4
			c2.2-0.7,3.8-1.5,4.8-2.4c0,0,0.1-0.1,0.1-0.1c-0.4-0.3-0.7-0.5-1-0.6c-0.5-0.3-1-0.5-1.5-0.6c-0.4-0.1-0.6-0.3-0.6-0.7
			c0-0.4,0.2-0.7,0.6-0.7c0.2,0,0.4,0.1,0.6,0.2c1.1,0.5,2,1.1,2.8,1.6c0.6-0.7,1.2-1.5,1.8-2.6c0.2-0.4,0.4-0.7,0.4-0.8
			c0-0.1-0.1-0.2-0.3-0.2c-1.4,0-2.7,0.1-4,0.2c-0.9,0.1-1.5,0.2-1.7,0.2c-0.3,0-0.5-0.2-0.5-0.6c0-0.2,0.1-0.4,0.4-0.6
			s0.5-0.2,0.9-0.3h2.4l-0.1-2.8c-1.4,0-2.4,0.1-3.1,0.2c-0.4,0.1-0.7,0.2-0.9,0.2c-0.4,0-0.7-0.2-0.7-0.6c0-0.2,0.1-0.4,0.4-0.6
			C33,3.3,33.3,3.2,33.7,3.2z"/>
		<path class="st0" d="M54.8,11.4c-0.2,0.8-0.5,1.6-0.9,2.5c-0.6,1.3-1.1,1.9-1.5,1.9c-0.5,0-0.9-0.6-1.3-1.9
			c-0.3-1.1-0.5-2.7-0.5-4.8c0-0.8,0.1-2,0.4-3.6c0.3-1.7,0.6-2.8,0.9-3.4c0.2-0.4,0.5-0.6,0.9-0.6c0.5,0,0.8,0.2,0.8,0.7
			c0,0.1-0.1,0.5-0.4,1c-0.4,0.8-0.6,1.7-0.9,2.8c-0.3,1.1-0.4,2.1-0.4,2.8c0,3.1,0.2,4.7,0.7,4.7c0.2,0,0.7-0.8,1.5-2.3
			c0.1-0.2,0.2-0.3,0.3-0.3C54.7,11.1,54.8,11.2,54.8,11.4z M66.9,12.2c0,0.1-0.2,0.5-0.5,1.2c-0.3,0.6-0.6,0.9-1,1.1
			c-0.5,0.2-1.6,0.3-3.4,0.3c-1.4,0-2.6-0.2-3.6-0.6c-1.4-0.6-2.1-1.5-2.1-2.7c0-1.3,0.3-2,0.9-2c0.1,0,0.2,0.1,0.2,0.3
			c-0.2,0.6-0.2,1-0.2,1.2c0,1.4,1.1,2.1,3.3,2.1c0.9,0,2-0.1,3.2-0.3c0.7-0.1,1.3-0.3,1.9-0.5c0.5-0.2,0.8-0.3,1-0.3
			C66.7,11.9,66.8,12,66.9,12.2z M64.8,3.5c0,0.2-0.6,0.8-1.8,1.6c-1.2,0.8-1.9,1.2-2.1,1.2c-0.3,0-0.4-0.1-0.4-0.3
			c0-0.1,0.3-0.5,0.8-1c0.5-0.4,0.8-0.8,1.1-0.9c-0.1,0-0.2,0-0.3,0c-1,0-2.1,0.1-3.3,0.3c-1.3,0.2-1.9,0.4-1.8,0.4
			c-0.3,0-0.4-0.2-0.4-0.5c0-0.5,0.2-0.8,0.6-1c0.2,0,0.6-0.1,1.3-0.2C60,2.9,61.9,2.9,64,2.9C64.5,2.9,64.8,3.1,64.8,3.5z"/>
		<path class="st0" d="M90.7,9.9c0,1.2-0.4,2.2-1.2,3.2c-0.7,0.8-1.7,1.4-2.9,1.8c-1.1,0.4-2,0.6-2.8,0.6c-0.3,0-0.7-0.2-1.2-0.6
			C82.2,14.4,82,14,82,13.7c0-0.2,0.4-0.2,1.3-0.2c4-0.1,6.1-1.5,6.1-4.2c0-1-0.4-1.7-1.1-2.3c-0.6-0.5-1.4-0.7-2.4-0.7
			c-2.2,0-4.4,0.9-6.6,2.8c0,0.7,0,1.8,0,3.3c0,1.5,0,2.6,0,3.3c0,0.5-0.3,0.8-0.9,0.8c-0.4,0-0.6-0.4-0.6-1.2c0-0.1,0-0.6,0-1.6
			c0-1,0-2.4,0.1-4.3c-1.1,1.2-2,2.4-2.8,3.7c-0.3,0.4-0.5,0.6-0.7,0.6c-0.5,0-0.8-0.3-0.8-0.9c0-0.4,0.6-1.4,1.9-2.8
			c0.8-0.9,1.6-1.8,2.4-2.6c0-0.5,0-1.2,0.1-2.2c-1.4,0.2-2.5,0.4-3.4,0.8c-0.3,0-0.5-0.2-0.5-0.7c0-0.5,0.4-0.9,1.2-1
			c0.2,0,1.1-0.1,2.7-0.3l0.1-2.2c0-0.9,0.3-1.3,0.7-1.3c0.5,0,0.8,0.2,0.8,0.7c0,0.3,0,0.7-0.1,1.4c0,0.6-0.1,1.1-0.1,1.4
			c0,0,0.1,0,0.2,0c0,0,0.1,0,0.1,0c0.6,0,0.8,0.2,0.8,0.6c0,0.3-0.2,0.6-0.5,1.2c-0.3,0.4-0.5,0.7-0.7,1.1c0,0.1,0,0.3,0,0.5
			c0,0.2,0,0.4,0,0.5c2.4-1.6,4.5-2.3,6.4-2.3c1.4,0,2.6,0.4,3.6,1.3C90.2,7.5,90.7,8.6,90.7,9.9z"/>
		<path class="st0" d="M107.7,3.8c0,0.2-0.1,0.4-0.3,0.7c-0.2,0.3-0.3,0.5-0.5,0.5c-1.1-0.2-2-0.3-2.8-0.3c-0.1,0-0.3,0-0.5,0
			c-0.2,0-0.4,0-0.5,0c-0.4,1.7-0.8,3.3-1.4,4.7c-1.6,4.1-2.9,6.1-3.8,6.1c-0.3,0-0.6-0.1-1-0.2c-0.5-0.2-0.7-0.4-0.7-0.6
			c0-0.1,0.3-0.5,1-1.2c1.1-1.1,2.1-2.5,3-4.1c0.9-1.6,1.5-3.2,1.8-4.6c-1.5,0.1-2.9,0.3-4.1,0.7c-0.4-0.1-0.6-0.2-0.6-0.6
			s0.1-0.5,0.2-0.7c0.1-0.2,0.9-0.3,2.2-0.5c0.8-0.1,1.6-0.2,2.4-0.2c0.1-0.6,0.2-1.4,0.2-2.1c0-0.6,0.3-0.9,0.7-0.9
			c0.4,0,0.7,0.2,0.7,0.6c0,0.2-0.1,1-0.4,2.3c2.1-0.1,3.4-0.2,3.7-0.2S107.7,3.5,107.7,3.8z M114.2,13.4c0,0.4-0.1,0.8-0.4,1.4
			c-0.3,0.5-0.8,0.9-1.5,1.1c-0.4,0.1-1,0.1-1.9,0.1c-4.1,0-6.1-1-6.1-3c0-0.3,0.1-0.6,0.2-0.9c0.1-0.4,0.3-0.6,0.6-0.6
			c0.3,0,0.4,0.1,0.4,0.4c0,0.1,0,0.3-0.1,0.5c0,0.2-0.1,0.4-0.1,0.5c0,0.9,0.8,1.4,2.3,1.4c2.4,0,4.4-0.4,5.8-1.1
			c0.4-0.2,0.6-0.3,0.6-0.3C114.1,13,114.2,13.1,114.2,13.4z M111.9,7.1c-0.1,0.2-0.6,0.7-1.5,1.4c-0.9,0.7-1.6,1.1-1.9,1.2
			c-0.1,0-0.2-0.1-0.2-0.3c0-0.2,0.2-0.5,0.6-0.9c0.3-0.2,0.6-0.5,0.8-0.8c-0.1,0-0.3,0-0.6,0c-1.1,0-2,0.1-2.7,0.2
			c-0.9,0.2-1.3,0.3-1.3,0.3c-0.3,0-0.5-0.1-0.5-0.4c0-0.3,0.1-0.5,0.3-0.7c0.4-0.4,1.9-0.6,4.6-0.6h0.9
			C111.3,6.5,111.8,6.7,111.9,7.1z"/>
		<path class="st0" d="M134.8,11.3c0,1.7-0.8,3-2.4,3.9c-1.3,0.7-2.8,1.1-4.7,1.1c-0.9,0-1.7-0.2-2.5-0.6c-0.9-0.5-1.4-1.1-1.4-1.9
			c0-1.2,0.7-1.8,2.2-1.8c1.8,0,3.2,0.9,4.3,2.6c0.8-0.3,1.4-0.6,1.9-1.2c0.5-0.6,0.8-1.3,0.8-2.1c0-0.9-0.4-1.6-1.1-2.1
			c-0.6-0.4-1.4-0.6-2.4-0.6c-1.2,0-2.5,0.2-3.8,0.6c-1.4,0.5-2.5,1.1-3.4,1.9c-0.4,0.4-0.7,0.6-0.9,0.6c-0.5,0-0.8-0.3-0.8-0.8
			c0-0.3,0.3-0.7,0.8-1.2l7.8-6.7c0.1-0.1,0.2-0.2,0.3-0.3c-0.1-0.1-0.3-0.1-0.5-0.1c-0.7,0-1.7,0-2.8,0.1c-1.5,0.1-2.3,0.2-2.6,0.3
			c-0.5,0-0.7-0.2-0.7-0.7c0-0.5,0.5-0.7,1.4-0.7c1.7,0,4.1-0.1,7-0.1c0.7,0,1,0.2,1,0.5c0,0.2-0.2,0.5-0.7,0.8
			c-2.6,2-4.9,3.9-6.9,5.6c1.6-0.7,3.3-1,5-1c1.2,0,2.3,0.3,3.2,0.9C134.3,9.1,134.8,10.1,134.8,11.3z M129,14.9
			c-0.9-1.4-1.9-2.1-2.9-2.1c-0.8,0-1.2,0.3-1.2,0.9c0,0.8,1,1.3,2.9,1.3C128,15,128.4,15,129,14.9z"/>
		<path class="st0" d="M154.2,11.8c0,0.3-0.1,0.7-0.4,1.3c-0.3,0.8-0.9,1.4-1.6,1.7c-1.3,0.5-2.6,0.8-4.1,0.8c-2,0-3.8-0.7-5.2-2
			c-1.4-1.3-2.1-3-2.1-5.1c0-2.2,0.7-3.9,2.1-5.2c1.4-1.3,3.1-1.9,5.4-1.9c1.1,0,2,0.2,3,0.5c1.3,0.4,1.9,1.1,1.9,1.9
			c0,0.7-0.2,1.1-0.7,1.1c-0.2,0-0.5-0.2-0.9-0.5c-0.6-0.4-1.1-0.7-1.5-0.9c-0.7-0.3-1.5-0.5-2.3-0.5c-1.6,0-2.9,0.5-4,1.5
			c-1.1,1-1.6,2.3-1.6,3.9c0,1.6,0.5,2.8,1.5,3.8c1,1,2.2,1.5,3.8,1.5c1.1,0,2.1-0.2,3-0.6c1.1-0.4,2.1-1,3-1.7
			c0.2-0.2,0.4-0.2,0.5-0.2C154.1,11.4,154.2,11.6,154.2,11.8z"/>
		<path class="st0" d="M170.8,11.5c0,1-0.5,2-1.5,2.8c-1.1,0.9-2.7,1.3-4.8,1.3c-2.2,0-3.9-0.3-5.1-1c-0.4-0.2-0.7-0.6-0.9-1.2
			c-0.2-0.5-0.3-1-0.3-1.6c0-0.4,0.1-0.5,0.4-0.5c0.1,0,0.2,0.1,0.3,0.2c2.1,1.8,4.3,2.7,6.8,2.7c0.9,0,1.7-0.2,2.4-0.6
			c0.8-0.5,1.2-1.1,1.2-2c0-1.1-0.9-2-2.6-2.4c-1.6-0.4-3.2-0.8-4.8-1.2c-1.7-0.6-2.6-1.6-2.6-2.9s0.5-2.3,1.6-3
			c0.8-0.5,2-0.8,3.4-0.8c1.2,0,2.4,0.2,3.5,0.6c0.4,0.1,0.9,0.4,1.4,0.7c0.3,0.4,0.5,0.8,0.5,1.2c0,0.6-0.3,0.9-0.8,0.9
			c-0.1,0-0.4-0.2-0.9-0.6c-1.3-1.1-2.8-1.6-4.5-1.6c-1.9,0-2.8,0.8-2.8,2.3c0,0.9,0.9,1.6,2.6,2c1.6,0.4,3.2,0.8,4.9,1.2
			C169.9,8.9,170.8,10,170.8,11.5z"/>
		<path class="st0" d="M189.7,13.8c-0.1,0.3-0.4,0.6-1.1,1.1c-0.6,0.5-1.1,0.7-1.4,0.7c-0.4,0-0.9-0.4-1.4-1.3
			c-1.1-1.7-2.2-3-3.3-3.8c-0.6-0.4-1.4-0.8-2.5-1.1C179.4,9.2,179,9,179,8.7c0-0.3,0.2-0.5,0.7-0.5c0.2,0,0.5,0,0.8,0.1
			c0.4,0,0.6,0.1,0.8,0.1c3.4,0,5-0.9,5-2.8c0-1.8-1.4-2.7-4.2-2.7c-1.2,0-2.5,0.1-4.1,0.3v5.2c0,0.7,0,1.7,0.1,3.1
			c0,1.4,0,2.4,0,3.1c0,0.6-0.3,0.9-0.8,1.1c-0.6-0.1-0.9-0.5-0.9-1.3c0-0.3,0-0.6,0-1.2c0-0.5,0-0.9,0-1.1V3.4
			c-0.3,0-0.6,0.1-1.1,0.2c-0.5,0-0.7-0.3-0.7-0.7c0-0.6,0.4-1,1.1-1.1c1.2-0.2,3.1-0.2,5.8-0.2c1.7,0,3,0.3,4.1,0.8
			c1.5,0.7,2.2,1.8,2.2,3.2c0,1.1-0.5,2-1.4,2.7c-0.9,0.7-1.9,1.1-3,1.1c-0.2,0-0.5,0-0.6-0.1c0.6,0.4,1.5,0.9,2.6,1.8
			c0.6,0.5,1.1,1,1.7,1.5c0.8,0.6,1.4,0.9,2,1c0.2,0,0.2,0,0.3,0C189.7,13.7,189.7,13.7,189.7,13.8z"/>
		<path class="st0" d="M198.4,7.4c0.2,0,0.4,0.1,0.4,0.3c0,0.3-0.1,0.5-0.3,0.6l-4.3,1.6c-0.6,0-0.8-0.2-0.8-0.7c0-0.6,0.2-1,0.6-1
			L198.4,7.4z M195.9,0.4c0.1,0,0.3,0.1,0.6,0.2c0.8,0.6,1.7,1.3,2.7,2c0.1,0.1,0.2,0.2,0.2,0.3c0,0.3-0.2,0.4-0.5,0.4
			c-0.1,0-0.2,0-0.5-0.1c-1.5-0.6-2.4-0.9-2.8-1.1c-0.4-0.3-0.7-0.6-0.7-1C195,0.6,195.3,0.4,195.9,0.4z M198.9,12.9
			c0.3,0,0.4,0.1,0.4,0.4c0,0.2-0.1,0.4-0.2,0.6c-1.6,1.8-2.5,2.6-2.7,2.6c-0.7,0-1-0.2-1-0.6c0-0.5,0.1-0.9,0.4-1
			C195.7,14.8,196.8,14.1,198.9,12.9z M211.2,0.6c0.3,0,0.5,0.1,0.5,0.4c0,0.3-0.1,0.5-0.4,0.6c-1.4,0.4-2.6,0.8-3.8,1.1l0,3.4
			c0.7,0,1.6,0,2.5,0.1c1,0,1.8,0.1,2.5,0.1c0.5,0,1-0.1,1.7-0.2c0.1,0,0.2,0.2,0.2,0.5c0,0.5-0.2,1-0.6,1.6
			c-0.3,0.4-0.5,0.6-0.7,0.6c-0.3,0-0.7-0.1-1.2-0.4c-0.7-0.4-1.5-0.6-2.4-0.8c-0.7-0.1-1.4-0.2-2.1-0.2l0,3.5h0
			c0.7,0,1.5,0,2.4,0.1c0.2,0,0.5-0.1,0.9-0.2c0.4,0,0.6,0.2,0.6,0.7c0,0,0,0.1,0,0.2c-0.1,0.2-0.1,0.5-0.2,0.9
			c0,0.6-0.1,1.2-0.1,1.8c0,0.4,0,0.9,0.1,1.6c0,0.5-0.2,0.8-0.6,0.8c-1.5-0.1-2.8-0.2-3.9-0.2c-1.4,0-2.2,0-2.6,0
			c-0.3,0-0.7,0.1-1.2,0.1c-0.4,0-0.6-0.2-0.6-0.7c0.1-0.9,0.2-1.7,0.2-2.4c0-0.6-0.1-1.4-0.2-2.4c0-0.4,0.2-0.6,0.6-0.6
			c0.2,0,0.5,0,0.7,0.1c0.2,0.1,0.6,0.1,1,0.1h1.6l0-3.5c-0.9,0-1.8,0.1-2.6,0.2c-0.6,0.1-1.5,0.4-2.7,1c-0.6,0-0.8-0.2-0.8-0.6
			c0-0.3,0.1-0.5,0.4-0.7c0.3-0.3,0.7-0.5,1.2-0.5c1.9-0.3,3.5-0.4,4.6-0.5l0-3c-0.4,0.1-0.8,0.2-1.2,0.2c-1.1,0.2-1.9,0.3-2.2,0.3
			c-0.4,0-0.8-0.2-1.2-0.5c-0.2-0.2-0.4-0.5-0.4-0.8c0-0.2,0.1-0.3,0.4-0.3c2.2,0,4.1-0.2,5.5-0.5c1.5-0.2,2.7-0.5,3.7-0.8
			C210.9,0.6,211.1,0.6,211.2,0.6z M206.6,15.2c0.9,0,1.8,0,2.9,0.1c0.2,0,0.4-0.1,0.4-0.3v-3c0-0.2-0.1-0.3-0.2-0.3
			c-1.2,0-3.1-0.1-5.4-0.1c-0.3,0-0.5,0.2-0.5,0.5c0,1-0.1,1.9-0.2,2.8c0,0.3,0.2,0.4,0.6,0.4C204.9,15.2,205.7,15.2,206.6,15.2z"/>
		<path class="st0" d="M228.5,0.2c0.3,0,0.5,0.2,0.5,0.5c0,0.3-0.1,0.5-0.4,0.6c-1.2,0.3-2.4,0.5-3.4,0.6v1.4h4.2
			c0.2,0,0.4,0.1,0.4,0.3c0,0.3-0.1,0.6-0.3,0.8c-0.2,0.2-0.5,0.3-0.8,0.3c-0.2,0-0.8-0.1-1.7-0.2c-0.6,0-1.2-0.1-1.8-0.1v1.1
			c0.7,0,1.5,0,2.4,0.1c0.2,0,0.5,0,0.8-0.1c0.4,0,0.7,0.2,0.7,0.6c0,0,0,0.1-0.1,0.1c-0.1,0.2-0.1,0.4-0.1,0.8
			c0,0.5-0.1,1.1-0.1,1.7c0,0.4,0,0.9,0.1,1.5c0,0.4-0.2,0.6-0.7,0.6c-1.1-0.1-2.1-0.2-3-0.2l0,1.1h3.3c0.2,0,0.3,0.1,0.3,0.3
			c0,0.3-0.1,0.5-0.3,0.6c-0.2,0.2-0.5,0.3-0.8,0.3c-0.2,0-0.6,0-1.3-0.1c-0.4,0-0.8,0-1.2,0v1.1c1.4-0.2,2.5-0.3,3.3-0.4
			c0.2,0,0.3,0.1,0.3,0.4c0,0.3-0.1,0.5-0.4,0.6c-3,0.5-5.8,1.1-8.3,1.8c-0.5,0-0.8-0.2-0.8-0.6c0-0.3,0.1-0.6,0.2-0.7
			c0.1-0.1,0.4-0.2,0.8-0.3c1.4-0.2,2.6-0.4,3.6-0.5V13c-1.2,0-2.1,0.1-2.7,0.2c-0.4,0.1-0.6,0.2-0.7,0.2c-0.4,0-0.6-0.3-0.6-0.7
			c0-0.2,0.1-0.4,0.3-0.6c0.2-0.1,0.5-0.2,0.8-0.2h2.9v-1.1c-1.2,0-2,0-2.4,0.1c-0.3,0-0.7,0.1-1.2,0.2c-0.4,0-0.6-0.2-0.6-0.6
			c0.1-0.9,0.2-1.6,0.2-2.3c0-0.6-0.1-1.3-0.2-2.2c0-0.4,0.2-0.6,0.6-0.6c0.2,0,0.5,0,0.7,0c0.2,0,0.6,0,1,0h1.8V4.4
			c-1.7,0-2.9,0.1-3.6,0.2c-0.4,0.1-0.7,0.2-0.9,0.2c-0.4,0-0.7-0.2-0.7-0.6c0-0.2,0.1-0.4,0.4-0.6c0.2-0.1,0.5-0.2,0.8-0.2h4.1
			l0-1.2c-0.3,0-0.6,0.1-0.9,0.1c-1,0.1-1.7,0.2-2,0.2c-0.4,0-0.8-0.1-1.1-0.4c-0.2-0.2-0.3-0.5-0.3-0.7c0-0.2,0.1-0.3,0.4-0.3
			c2,0,3.7-0.1,5-0.3c1.3-0.1,2.4-0.3,3.3-0.5C228.2,0.2,228.4,0.2,228.5,0.2z M223.7,9.9V8.8c-1,0-1.8,0.1-2.5,0.1
			c-0.1,0-0.1,0-0.2,0c0,0.2-0.1,0.4-0.1,0.7c0,0.3,0.2,0.5,0.6,0.5C222.2,10,222.9,10,223.7,9.9z M221.1,7.8c0.1,0,0.2,0,0.2,0h2.4
			l0-1.2c-0.6,0-1.3,0-2.1,0c-0.3,0-0.5,0.1-0.5,0.4C221.1,7.2,221.1,7.5,221.1,7.8z M225.1,6.6l0,1.2h2.3c0,0,0.1,0,0.1,0v-1
			c0-0.1-0.1-0.2-0.2-0.2C226.7,6.6,226,6.6,225.1,6.6z M225.1,8.7V10c0.6,0,1.3,0,2,0.1c0.3,0,0.4-0.1,0.4-0.4v-1
			C226.7,8.7,225.9,8.7,225.1,8.7z M233.5,5.1c0.2-1.5,0.4-2.9,0.4-4.1c0-0.4,0.3-0.6,0.6-0.6c0.5,0,0.7,0.2,0.7,0.7
			c0,0.1,0,0.4-0.1,0.9c-0.1,1.2-0.3,2.2-0.4,3.2h3c0.1,0,0.4-0.1,0.8-0.2c0.6,0,0.8,0.3,0.8,0.8c-0.4,1.8-0.6,3.6-0.7,5.4
			c-0.2,2.5-0.6,4.1-1.4,4.8c-0.6,0.7-1.4,1.1-2.4,1.1c-0.4,0-0.8-0.2-1-0.5c-0.2-0.3-0.3-0.6-0.3-0.9c0-0.3,0.1-0.4,0.4-0.5
			c1.3-0.1,2.1-0.4,2.5-0.9c0.5-0.5,0.8-2.1,1.1-4.7c0.2-1.6,0.2-2.6,0.2-2.9c0-0.3-0.1-0.4-0.3-0.4h-3c-0.2,1.2-0.4,2.2-0.6,3
			c-0.4,1.5-0.9,3-1.5,4.3c-0.5,1.1-1.2,2.1-2.1,2.9c-0.3,0.3-0.6,0.5-0.9,0.5c-0.2,0-0.5-0.1-0.8-0.4c-0.3-0.3-0.4-0.6-0.5-0.9
			c0-0.2,0.1-0.4,0.3-0.4c0.9-0.3,1.5-0.8,2-1.4c0.6-0.8,1.2-2,1.8-3.6c0.4-1.2,0.7-2.5,1-4c-0.6,0-1.1,0.1-1.7,0.2
			c-0.5,0.1-0.8,0.2-1,0.2c-0.4,0-0.6-0.2-0.6-0.5c0-0.5,0.2-0.8,0.7-0.9C231.2,5.1,232.1,5.1,233.5,5.1z"/>
		<path class="st0" d="M261.5,8.4c0,2.8-1.5,4.9-4.6,6.3c-1.2,0.6-2.2,0.9-2.9,0.9c-0.4,0-0.8-0.2-1.2-0.5c-0.4-0.3-0.7-0.7-0.7-1.1
			c0-0.1,0.2-0.3,0.6-0.3c0.3,0,0.7-0.1,1.2-0.2c1.4-0.2,2.6-0.6,3.5-1.1c0.8-0.5,1.5-1.1,2-1.8c0.6-0.8,0.8-1.7,0.8-2.6
			c0-0.7-0.2-1.5-0.7-2.2c-0.9-1.6-2.5-2.4-4.8-2.4c-0.1,0-0.2,0-0.4,0c-0.2,0-0.3,0-0.3,0c-0.9,4.1-2.1,7.2-3.6,9
			c-0.9,1.1-1.6,1.6-2.2,1.6c-0.8,0-1.5-0.6-2.1-1.9c-0.4-1-0.6-2-0.6-3c0-1.5,0.5-2.9,1.5-4.1c1.6-1.9,4-2.8,7.2-2.8
			c2,0,3.7,0.5,5.1,1.6C260.7,4.9,261.5,6.4,261.5,8.4z M252.5,3.6c-2.1,0.4-3.6,1.1-4.5,2.2c-0.9,1.1-1.4,2.2-1.4,3.2
			c0,0.6,0.1,1.2,0.4,2c0.3,0.9,0.7,1.3,1.2,1.3c0.4,0,0.9-0.3,1.4-1C250.8,9.6,251.8,7,252.5,3.6z"/>
		<path class="st0" d="M276.5,1c1.5,0,3.2,0.1,5.2,0.2c1.5,0.1,2.9,0.2,4,0.2c0.5,0,1.1-0.1,1.8-0.2c0.2,0,0.3,0.2,0.3,0.6
			c0,0.5-0.2,1.1-0.6,1.6c-0.3,0.4-0.5,0.6-0.7,0.6c-0.5,0-1-0.2-1.7-0.5c-0.8-0.3-1.6-0.6-2.4-0.7c0,0.1,0,0.3-0.1,0.5
			c-0.1,0.5-0.1,1-0.1,1.4c0.1,3.5,0.1,6.1,0.1,7.9c0,2-0.5,3.2-1.6,3.7c-0.7,0.3-1.3,0.5-1.9,0.5c-0.4,0-0.7-0.1-0.9-0.3
			c-0.3-0.3-0.5-0.6-0.5-1c0-0.2,0.1-0.3,0.4-0.4c1.2-0.1,1.9-0.3,2.3-0.6c0.4-0.3,0.7-0.7,0.8-1.2s0.2-1.5,0.2-3
			c0-1.6,0-3.2-0.1-4.7c0-1.4,0-2.3,0-2.7c0-0.2,0-0.3,0-0.4c-1.3-0.2-2.8-0.2-4.4-0.2c-1.6,0-3.2,0.1-4.8,0.2
			c-0.9,0.1-2.4,0.6-4.2,1.3c-0.6,0-0.8-0.2-0.8-0.6c0-0.3,0.1-0.6,0.4-0.8c0.3-0.4,0.7-0.5,1.2-0.5C271.8,1.3,274.6,1,276.5,1z
			 M271.5,5.3c0.2,0,0.5,0,0.7,0.1c0.2,0.1,0.6,0.1,1,0.1h1.6c0.4,0,0.8,0,1.3,0.1c0.2,0,0.5-0.1,0.8-0.2c0.4,0,0.6,0.2,0.6,0.7
			c0,0,0,0.1,0,0.1c-0.1,0.2-0.1,0.5-0.1,0.9c-0.1,0.6-0.1,1.2-0.1,1.8c0,0.4,0,0.9,0.1,1.5c0,0.5-0.2,0.7-0.6,0.7
			c-1-0.1-1.8-0.2-2.6-0.2c-0.9,0-1.5,0-1.8,0.1c-0.2,0-0.5,0.1-0.8,0.1c-0.4,0-0.6-0.2-0.6-0.6c0.1-0.9,0.2-1.7,0.2-2.4
			c0-0.6-0.1-1.4-0.2-2.3C270.9,5.5,271.1,5.3,271.5,5.3z M274.1,9.8c0.5,0,1,0,1.6,0.1c0.3,0,0.4-0.1,0.4-0.3V6.8
			c0-0.2-0.1-0.3-0.2-0.3c-0.7-0.1-1.6-0.1-2.9-0.1c-0.3,0-0.5,0.2-0.5,0.5c0,0.9-0.1,1.8-0.2,2.6c0,0.2,0.2,0.4,0.6,0.4
			C273.2,9.9,273.6,9.8,274.1,9.8z"/>
		<path class="st0" d="M294.1,6.8c0.2,0,0.4,0,0.5,0.1l4,0.1c0.2,0,0.6-0.1,1.1-0.3c0.6,0,1,0.2,1,0.7c-0.3,1.1-0.5,2.5-0.5,4.1
			c0,1.1,0.1,2.6,0.3,4.5c0,0.6-0.3,0.9-0.8,0.9c-0.2,0-0.4-0.1-0.6-0.4c-0.1-0.3-0.1-0.7-0.1-1.2c0-0.7,0-1.3,0-1.9
			c-1.7,0-3.1,0.1-4.1,0.2c-0.1,0-0.1,0-0.2,0c0,0.2-0.1,0.4-0.1,0.6c-0.3,0.8-0.6,1.4-0.9,1.8c-0.4,0.4-0.7,0.6-1,0.6
			c-0.4,0-0.7-0.1-1.1-0.3c-0.3-0.2-0.4-0.5-0.4-0.8c0-0.2,0.2-0.4,0.5-0.5c0.5-0.3,0.9-0.6,1.2-1.1c0.3-0.4,0.5-0.9,0.6-1.6
			c0.1-0.7,0.2-1.5,0.2-2.5c0-0.6-0.1-1.4-0.2-2.3C293.5,7.1,293.7,6.8,294.1,6.8z M296.4,0c0.6,0,0.8,0.3,0.8,0.9
			c0,0.1,0,0.2-0.1,0.2c-0.6,0.8-1.1,1.5-1.5,1.9c-0.3,0.4-0.7,0.8-1.1,1.2c0,0.1,0.1,0.2,0.4,0.2h4.3c0.3,0,0.5-0.1,0.5-0.3
			c0,0,0-0.1,0-0.1c-0.3-0.4-0.6-0.8-1-1.3c0-0.1-0.1-0.1-0.1-0.2c0-0.4,0.2-0.6,0.7-0.6c0.1,0,0.2,0,0.3,0.1
			c0.5,0.7,1.2,1.5,1.8,2.6c0.1,0.1,0.1,0.2,0.1,0.4c0,0.4-0.2,0.6-0.7,0.6H295c-0.5,0-1.1,0-1.9,0.1c-0.6,0-0.9-0.2-0.9-0.6
			c0-0.2,0.1-0.4,0.4-0.6c0.3-0.3,0.5-0.5,0.7-0.7c0.4-0.4,0.7-0.8,1.1-1.2c0.4-0.5,0.8-1.2,1.2-2C295.8,0.2,296.1,0,296.4,0z
			 M294.9,12.6c0,0,0.1,0,0.1,0h3.8c0,0,0.1,0,0.1,0c0-0.6,0-1.2,0-1.8c0,0-0.1,0-0.1,0c-1.7,0-3,0.1-3.9,0.2c0,0-0.1,0-0.1,0v0.4
			C294.9,11.8,294.9,12.2,294.9,12.6z M294.9,9.9c0.1,0,0.1,0,0.2,0h3.7c0.1,0,0.1,0,0.2,0c0-0.6,0.1-1.1,0.1-1.5
			c0-0.2-0.2-0.3-0.6-0.3c-1.3,0-2.5,0-3.6,0.1V9.9z M305.1,2.7h4.9c0.2,0,0.3,0.1,0.3,0.3c0,0.3-0.1,0.5-0.3,0.6
			c-0.2,0.2-0.4,0.3-0.8,0.3c-0.1,0-0.4,0-0.8-0.1c-0.4,0-0.9-0.1-1.4-0.1c-0.9,0-1.6,0.1-2,0.2c-0.1,0.1-0.2,0.1-0.3,0.1
			c0,0.6,0,1.3,0,2c0,0.1,0.1,0.2,0.4,0.2h4.6c0.7,0,1,0.2,1,0.5c0,0.5-0.3,0.8-0.9,0.8L307,7.4c-1.1,0-2.1,0.1-3,0.3
			c-0.5,0-0.7-0.2-0.7-0.6c0.1-1,0.1-1.8,0.1-2.4c0-1,0-2.2-0.1-3.6c0-0.4,0.2-0.6,0.7-0.6s0.7,0.2,0.7,0.6c0,0.5,0,1.1,0,1.7
			C304.9,2.7,305,2.7,305.1,2.7z M305.2,11.1h4.8c0.2,0,0.3,0.1,0.3,0.3c0,0.2-0.1,0.5-0.3,0.6c-0.2,0.2-0.4,0.3-0.8,0.3
			c-0.1,0-0.3,0-0.7-0.1c-0.4,0-0.9,0-1.3,0c-0.9,0-1.6,0.1-2,0.2c-0.1,0.1-0.3,0.1-0.3,0.2c0,0.6-0.1,1.2-0.1,1.8
			c0,0.2,0.1,0.4,0.3,0.4c0.4,0,1.3,0.1,2.9,0.1c1.5,0,2.8-0.2,4-0.6c0.2,0,0.3,0.2,0.3,0.5c0,0.4-0.1,0.9-0.4,1.4
			c-0.3,0.6-0.6,0.9-0.9,0.9c-0.3,0-2.5-0.2-6.5-0.7c-0.6-0.1-0.9-0.4-0.9-0.9c0.1-1.4,0.2-2.5,0.2-3.3c0-0.8,0-1.7-0.1-2.6
			c0-0.3,0.2-0.5,0.6-0.5c0.5,0,0.7,0.2,0.7,0.7c0,0.5,0,1,0,1.5C305,11.1,305.1,11.1,305.2,11.1z"/>
		<path class="st0" d="M317.3,2.8c0.4,0,0.6,0.3,0.6,0.8c-0.1,0.7-0.1,1.3-0.1,1.8v3c0,0.9-0.2,1.4-0.7,1.4c-0.4,0-0.6-0.5-0.6-1.4
			c0.1-1.3,0.2-2.3,0.2-3c0-0.5,0-1.1-0.1-1.8C316.5,3.1,316.8,2.8,317.3,2.8z M320.1,0c0.5,0,0.7,0.3,0.7,0.9
			c-0.1,1.7-0.1,3.3-0.1,4.7l0.1,10c0,1-0.3,1.5-0.8,1.5c-0.4,0-0.6-0.5-0.6-1.5c0.1-4.3,0.1-7.6,0.1-10c0-1.4,0-2.9-0.1-4.7
			C319.3,0.3,319.6,0,320.1,0z M323.1,1.1c0.5,0,0.7,0.2,0.7,0.6l-1.4,3c-0.1,0.3-0.3,0.4-0.6,0.4c-0.2,0-0.4-0.2-0.4-0.5l0.9-3
			C322.5,1.3,322.7,1.1,323.1,1.1z M326.6,2.2c0.4,0,0.6,0.2,0.6,0.5c0,0.2-0.1,0.5-0.2,0.7c-0.2,0.5-0.4,1-0.7,1.5c0,0,0,0,0,0h3.1
			l0-3.6c0-0.6,0.2-0.8,0.7-0.8c0.6,0,0.9,0.3,0.9,0.8l0,3.6h4.5c0.2,0,0.4,0.1,0.4,0.3c0,0.3-0.1,0.6-0.3,0.8
			c-0.2,0.2-0.5,0.3-0.8,0.3c-0.2,0-0.8-0.1-1.6-0.2c-0.7,0-1.4-0.1-2.1-0.1l0,3.3h3.8c0.2,0,0.3,0.1,0.4,0.3c0,0.3-0.1,0.6-0.3,0.8
			c-0.2,0.2-0.5,0.3-0.9,0.3c-0.2,0-0.7-0.1-1.4-0.2c-0.5,0-1-0.1-1.6-0.1l0,3.6c0.8,0,1.6,0.1,2.5,0.2c1,0.1,1.9,0.1,2.8,0.1
			c0.4,0,0.8,0,1.1-0.1c0.1,0,0.1,0.1,0.1,0.3c0,0.4-0.1,0.9-0.4,1.3c-0.3,0.5-0.5,0.7-0.8,0.7s-0.5-0.1-0.8-0.3c-1.1-0.5-2-0.8-3-1
			c-0.7-0.1-1.6-0.2-2.6-0.2c-1.2,0-2.2,0.1-3.1,0.3c-0.9,0.2-1.8,0.6-2.7,1c-0.3,0.1-0.5,0.2-0.6,0.2c-0.4,0-0.6-0.3-0.6-0.7
			c0-0.3,0.1-0.5,0.3-0.7c0.2-0.2,0.5-0.3,0.8-0.4c2.5-0.4,4.4-0.7,5.6-0.7l-0.1-3.6c-1.3,0-2.2,0.1-2.8,0.2
			c-0.4,0.1-0.6,0.2-0.8,0.2c-0.4,0-0.7-0.2-0.7-0.6c0-0.2,0.1-0.4,0.4-0.6c0.2-0.1,0.5-0.2,0.8-0.2h3.1l0-3.3
			c-1.2,0-2.2,0.1-2.8,0.2c-0.4,0.1-0.7,0.2-0.8,0.2c-0.2,0-0.3,0-0.4-0.1c-0.2,0.3-0.4,0.6-0.6,0.8c-0.3,0.4-0.6,0.6-0.8,0.6
			c-0.3,0-0.7-0.1-1.1-0.4c-0.4-0.3-0.5-0.6-0.5-0.9c0-0.2,0.2-0.4,0.5-0.4c0.6-0.3,1.2-0.7,1.7-1.2c0.5-0.6,1-1.4,1.5-2.4
			C326.3,2.2,326.5,2.2,326.6,2.2z"/>
		<path class="st0" d="M348.5,16c0,0.3-0.3,0.6-0.9,1c-0.6,0.4-1,0.6-1.3,0.6c-0.3,0-0.6-0.3-1-0.8c-0.8-1.2-1.7-2.3-2.4-3.1
			c-0.7-0.8-1-1.3-1-1.5c0-0.3,0.2-0.4,0.5-0.4c0.2,0,1.5,0.9,3.8,2.8c0.5,0.4,1.2,0.8,2.1,1.2C348.3,15.7,348.4,15.8,348.5,16z"/>
		<path class="st0" d="M45.3,37c1.3,0,3,0.1,5.2,0.4c1.5,0.1,2.8,0.2,3.7,0.2c0.5,0,1.1,0,1.6-0.1c0.1,0,0.2,0.1,0.2,0.2
			c0,0.5-0.1,1-0.4,1.5c-0.3,0.4-0.6,0.7-0.8,0.7c-0.2,0-0.5-0.1-0.8-0.2c-1.5-0.5-2.9-0.9-4.2-1c-1.2-0.2-2.7-0.3-4.4-0.3
			c-2.1,0-3.9,0.2-5.2,0.4c-1.4,0.2-2.6,0.6-3.6,0.9c-0.4,0.1-0.6,0.2-0.8,0.2c-0.6,0-0.9-0.3-0.9-0.7c0-0.3,0.2-0.5,0.4-0.8
			c0.2-0.2,0.5-0.3,0.8-0.4C40.4,37.4,43.5,37,45.3,37z"/>
		<path class="st0" d="M60.6,42.8c0.4,0.1,0.7,0.1,0.8,0.1c0.5,0,1.1-0.2,1.8-0.6c0.2,0,0.3,0.1,0.3,0.3c0,0.2-0.3,0.6-0.8,1.2
			c-0.5,0.7-0.9,1-1.3,1c-0.3,0-0.5-0.1-0.7-0.4c-0.3-0.4-0.4-0.8-0.4-1.2C60.3,43,60.4,42.8,60.6,42.8z M65.5,30.2
			c0.4,0,0.7,0.2,0.7,0.7c0,0.3-0.1,0.7-0.4,1c-0.8,1.1-1.6,2-2.5,2.7C63,34.8,63,35,63,35.2c0,0,0.1,0.1,0.4,0.3
			c0.3,0.1,0.6,0.3,1,0.6c0,0,0.1,0.1,0.1,0.1c0.7-0.7,1.3-1.4,1.9-2.1c0.1-0.1,0.3-0.1,0.4-0.1s0.3,0.1,0.4,0.2
			c0.1,0.1,0.1,0.3,0.1,0.5c0,0.2-0.1,0.4-0.2,0.5c-1.2,1.3-2.4,2.6-3.6,4c-0.1,0.1-0.1,0.2-0.1,0.3c0,0,0,0.1,0.1,0.1
			c0.2,0,0.6,0.1,1.2,0.1c0.8,0,1.5,0,2.1-0.1c0.1,0,0.2-0.1,0.2-0.3c-0.2-0.5-0.3-0.9-0.5-1.3c0-0.1-0.1-0.2-0.1-0.3
			c0-0.1,0.1-0.2,0.2-0.4c0.1-0.1,0.3-0.2,0.5-0.2c0.1,0,0.2,0.1,0.3,0.3c0.2,0.5,0.5,1.1,0.8,1.8c0.1,0.3,0.2,0.6,0.2,0.8
			c0,0.4-0.2,0.7-0.7,0.7c-0.2-0.1-0.5-0.1-0.7-0.1c-0.3,0-0.5,0-0.8,0c0,0.1,0,0.3,0,0.4c-0.1,0.7-0.1,1.2-0.1,1.8l0.1,2.8
			c0,1-0.3,1.5-0.9,1.5c-0.4,0-0.6-0.5-0.6-1.5c0.1-1.2,0.1-2.2,0.1-2.8c0-0.5,0-1.1-0.1-1.8c0-0.1,0-0.2,0-0.4
			c-0.5,0-0.9,0-1.4-0.1c-0.4,0-0.8,0-1.2,0.1c-0.6,0-0.8-0.2-0.8-0.6c0-0.2,0.1-0.5,0.3-0.7c0.8-0.8,1.5-1.6,2.3-2.3
			c-0.1,0-0.1-0.1-0.2-0.1c-1-0.5-1.8-0.8-2.3-0.9c-0.3,0-0.4-0.2-0.4-0.4c0-0.2,0.1-0.4,0.4-0.6c0.4-0.2,0.8-0.6,1.2-1.1
			c0.9-0.8,1.7-1.9,2.5-3.2C65.1,30.3,65.3,30.2,65.5,30.2z M67.3,42.3c0.1,0,0.2,0,0.4,0.1c0.3,0.4,0.7,0.7,1.2,0.8
			c0.3,0.1,0.4,0.2,0.4,0.4c0,0.3-0.1,0.5-0.3,0.7c-0.2,0.2-0.5,0.3-0.8,0.3c-0.2,0-0.4-0.3-0.7-0.8c-0.3-0.5-0.4-0.8-0.4-1
			C67,42.4,67.1,42.3,67.3,42.3z M71.2,32.7h2.6l-0.1-1.8c0-0.5,0.2-0.7,0.7-0.7c0.6,0,0.9,0.2,0.9,0.7l-0.1,1.8H78
			c0.2-0.4,0.5-0.8,0.7-1.3c0.1-0.1,0.2-0.1,0.4-0.1c0.4,0,0.5,0.2,0.6,0.6c0,0.2-0.1,0.4-0.2,0.5c-0.9,1.5-1.6,2.7-2.3,3.7
			c0.2,0,0.4,0,0.6,0c0.9,0.1,1.7,0.2,2.4,0.2c0.5,0,1.2-0.1,1.9-0.2c0.1,0,0.2,0.2,0.2,0.5c0,0.5-0.2,1-0.6,1.5
			c-0.3,0.4-0.6,0.6-0.8,0.6c-0.3,0-0.6-0.1-1.1-0.4c-0.7-0.4-1.4-0.8-2.2-0.9c-0.3-0.1-0.7-0.1-1-0.1c-0.4,0.6-0.8,1-1.2,1.4
			c-0.4,0.4-0.8,0.8-1.2,1.1c0.1,0,0.2,0,0.3,0h2.1c0.5,0,1.1,0,1.7,0.1c0.2,0,0.5-0.1,0.8-0.2c0.4,0,0.6,0.2,0.6,0.7
			c0,0,0,0.1,0,0.2c-0.1,0.2-0.1,0.6-0.1,1.1c-0.1,0.7-0.1,1.4-0.1,2.2c0,0.5,0,1.2,0.1,2.1c0,0.5-0.2,0.8-0.6,0.8
			c-1.2-0.1-2.2-0.2-3.1-0.2c-1.1,0-1.8,0-2.2,0c-0.3,0-0.6,0.1-0.9,0.1c-0.4,0-0.6-0.2-0.6-0.7c0.1-1.1,0.2-2.1,0.2-2.9
			c0-0.6,0-1.3-0.1-2.1c-0.4,0.3-0.8,0.5-1.2,0.7c-0.4,0.3-0.8,0.4-1.1,0.4c-0.5,0-0.9-0.2-1.2-0.5c-0.3-0.3-0.5-0.5-0.5-0.9
			c0-0.2,0.1-0.2,0.4-0.3c1.7-0.4,3.1-0.9,4.2-1.6c0.7-0.5,1.4-1.1,2.1-1.8c-0.1,0-0.3,0-0.4,0c-1,0-2,0.1-2.9,0.2
			c-0.6,0.1-1.4,0.4-2.5,1.1c-0.5,0-0.8-0.2-0.8-0.6c0-0.3,0.1-0.5,0.3-0.7c0.3-0.3,0.6-0.5,1.1-0.5c1.7-0.4,3.1-0.6,4.1-0.6
			l-0.1-2.1c-1.1,0-1.9,0.1-2.5,0.2c-0.3,0.1-0.5,0.2-0.6,0.2c-0.4,0-0.7-0.2-0.7-0.6c0-0.2,0.1-0.5,0.4-0.6
			C70.6,32.8,70.9,32.7,71.2,32.7z M75.8,45.4c0.6,0,1.3,0,2.1,0.1c0.3,0,0.4-0.1,0.4-0.3v-1.7c-2,0-3.5,0.1-4.6,0.2
			c0,0-0.1,0-0.1,0c0,0.5-0.1,1-0.1,1.4c0,0.3,0.2,0.4,0.6,0.4C74.5,45.4,75.1,45.4,75.8,45.4z M73.6,42.6c0,0,0.1,0,0.1,0h4.5v-1.5
			c0-0.2-0.1-0.3-0.2-0.3c-0.9-0.1-2.2-0.1-3.9-0.1c-0.3,0-0.5,0.2-0.5,0.5C73.6,41.6,73.6,42.1,73.6,42.6z M75.9,36
			c0.4-0.6,0.9-1.2,1.4-2h0c-0.2,0-0.5,0-1.2-0.1c-0.3,0-0.6,0-0.9,0l-0.1,2C75.4,35.9,75.7,35.9,75.9,36z"/>
		<path class="st0" d="M92.2,41.4c-0.2,0.8-0.5,1.6-0.9,2.5c-0.6,1.3-1.1,1.9-1.5,1.9c-0.5,0-0.9-0.6-1.3-1.9
			c-0.3-1.1-0.5-2.7-0.5-4.8c0-0.8,0.1-2,0.4-3.6c0.3-1.7,0.6-2.8,0.9-3.4c0.2-0.4,0.5-0.6,0.9-0.6c0.5,0,0.8,0.2,0.8,0.7
			c0,0.1-0.1,0.5-0.4,1c-0.4,0.8-0.6,1.7-0.9,2.8c-0.3,1.1-0.4,2.1-0.4,2.8c0,3.1,0.2,4.7,0.7,4.7c0.2,0,0.7-0.8,1.5-2.3
			c0.1-0.2,0.2-0.3,0.3-0.3C92.1,41.1,92.2,41.2,92.2,41.4z M104.3,42.2c0,0.1-0.2,0.5-0.5,1.2c-0.3,0.6-0.6,0.9-1,1.1
			c-0.5,0.2-1.6,0.3-3.4,0.3c-1.4,0-2.6-0.2-3.6-0.6c-1.4-0.6-2.1-1.5-2.1-2.7c0-1.3,0.3-2,0.9-2c0.1,0,0.2,0.1,0.2,0.3
			c-0.2,0.6-0.2,1-0.2,1.2c0,1.4,1.1,2.1,3.3,2.1c0.9,0,2-0.1,3.2-0.3c0.7-0.1,1.3-0.3,1.9-0.5c0.5-0.2,0.8-0.3,1-0.3
			C104.1,41.9,104.2,42,104.3,42.2z M102.2,33.5c0,0.2-0.6,0.8-1.8,1.6c-1.2,0.8-1.9,1.2-2.1,1.2c-0.3,0-0.4-0.1-0.4-0.3
			c0-0.1,0.3-0.5,0.8-1c0.5-0.4,0.8-0.8,1.1-0.9c-0.1,0-0.2,0-0.3,0c-1,0-2.1,0.1-3.3,0.3c-1.3,0.2-1.9,0.4-1.8,0.4
			c-0.3,0-0.4-0.2-0.4-0.5c0-0.5,0.2-0.8,0.6-1c0.2,0,0.6-0.1,1.3-0.2c1.6-0.2,3.5-0.2,5.6-0.2C101.9,32.9,102.2,33.1,102.2,33.5z"
			/>
		<path class="st0" d="M116.3,32.1h3.2l-0.1-1.4c0-0.5,0.3-0.7,0.8-0.7c0.6,0,0.8,0.2,0.8,0.7l0,1.4h3.4c0.4-0.5,0.8-1,1.2-1.6
			c0.1-0.1,0.2-0.1,0.4-0.1c0.4,0,0.5,0.2,0.6,0.6c0,0.2-0.1,0.4-0.2,0.5c-1.1,1.4-2.2,2.6-3.1,3.6c0.6,0,1.3,0.1,2,0.2
			c1.5,0.1,2.8,0.2,3.8,0.2c0.4,0,1,0,1.6-0.1c0.1,0,0.2,0.2,0.2,0.5c0,0.5-0.2,1-0.5,1.5c-0.2,0.4-0.4,0.6-0.6,0.6
			c-0.4,0-1-0.1-1.7-0.4c-1.1-0.5-2.2-0.8-3.5-1c-0.8-0.1-1.6-0.2-2.5-0.2c-0.9,0.9-1.7,1.6-2.4,2.1c-0.1,0.1-0.2,0.2-0.3,0.2h6.6
			c0.2,0,0.3,0.1,0.3,0.3c0,0.3-0.1,0.5-0.2,0.7c-0.2,0.2-0.5,0.3-0.8,0.3c-0.2,0-0.5,0-1.1-0.1c-0.6,0-1.3,0-2,0
			c-1.2,0-2.1,0.1-2.7,0.2c-0.2,0.1-0.4,0.2-0.5,0.2c0,0.4,0,0.8-0.1,1.2c0,0.1,0.1,0.2,0.3,0.2c0.9-0.1,1.8-0.1,2.8-0.1
			c0.6,0,1.4,0.1,2.6,0.2c0.2,0,0.4,0,0.7-0.1c0.5,0,0.7,0.2,0.7,0.6c0,0.1,0,0.3-0.1,0.5c-0.1,0.4-0.3,1.2-0.6,2.4
			c-0.2,0.8-0.8,1.5-1.7,1.9c-0.7,0.3-1.4,0.4-2,0.4c-0.3,0-0.6-0.1-0.9-0.3c-0.2-0.2-0.4-0.5-0.4-0.7c0-0.2,0.1-0.4,0.3-0.5
			c1.6-0.2,2.7-0.6,3.4-1.2c0.4-0.5,0.6-1.1,0.6-1.8c0-0.2-0.2-0.3-0.5-0.3c-0.4-0.1-1-0.1-1.8-0.1c-0.7,0-1.4,0-2.1,0.1
			c-0.7,0.1-1.2,0.2-1.6,0.3c-0.2,0.1-0.4,0.1-0.6,0.1c-0.4,0-0.6-0.2-0.6-0.6c0-0.1,0-0.3,0.1-0.6c0.1-0.5,0.2-0.9,0.2-1.2
			c0-0.2,0-0.5-0.1-0.8c-1.4,0.9-3,1.6-4.6,2.2c-0.7,0.3-1.2,0.4-1.6,0.4c-0.5,0-0.9-0.2-1.2-0.5c-0.3-0.3-0.5-0.6-0.5-0.9
			c0-0.2,0.1-0.3,0.4-0.4c2.7-0.4,4.8-1,6.4-1.8c1.3-0.6,2.6-1.4,3.9-2.5c-0.1,0-0.2,0-0.4,0c-1.6,0-3.2,0.1-4.7,0.2
			c-0.9,0.1-2.3,0.6-4.2,1.3c-0.6,0-0.8-0.2-0.8-0.6c0-0.3,0.1-0.5,0.4-0.7c0.3-0.3,0.7-0.5,1.2-0.5c3.2-0.6,5.8-0.9,7.7-0.9l0-1.7
			c-1.4,0-2.4,0.1-3,0.2c-0.4,0.1-0.6,0.2-0.7,0.2c-0.5,0-0.7-0.3-0.7-0.7c0-0.2,0.1-0.4,0.4-0.6C115.7,32.1,116,32.1,116.3,32.1z
			 M121.9,34.9c0.5-0.5,1-1,1.5-1.7c-0.2,0-0.6,0-1,0c-0.4,0-0.9,0-1.4,0l-0.1,1.7C121.2,34.9,121.6,34.9,121.9,34.9z"/>
		<path class="st0" d="M152.8,43c-0.3,1.4-0.7,2.3-1.1,2.6c-0.4,0.3-1.3,0.4-2.7,0.4c-1.9,0-3.1-0.2-3.8-0.7c-0.5-0.4-0.8-1-1-1.8
			c-0.1-0.7-0.2-1.3-0.2-1.9c-0.1-0.6-0.5-0.9-1-0.9c-0.8,0-1.7,0.4-2.7,1.3c-0.5,0.5-1.3,1.3-2.4,2.4c-0.8,0.8-1.3,1.3-1.4,1.3
			c-0.5,0-0.8-0.4-0.8-1.2c0-0.4,0.2-0.8,0.6-1.1c2.2-1.8,3.8-3.1,4.8-3.9c1.8-1.4,3.4-2.6,4.9-3.7c-2.8,0-5.5,0.5-8,1.5
			c-0.3,0-0.5-0.2-0.5-0.7c0-0.8,0.5-1.3,1.5-1.4l5.1-0.5c1.4-0.1,2.4-0.2,3.3-0.2c0.5,0,0.7,0.2,0.7,0.6c0,0.2-0.2,0.5-0.7,0.8
			c-1.2,0.9-2.9,2.2-5.2,4c0.5-0.1,0.8-0.2,1.2-0.2c0.8,0,1.4,0.4,1.8,1.2c0.2,0.4,0.3,1.2,0.4,2.2c0.1,0.7,0.5,1.1,1.2,1.1
			c1.4,0,2.9-0.4,4.4-1.1c0.6-0.3,0.9-0.4,1.1-0.4C152.6,42.7,152.7,42.8,152.8,43z M147.8,31.6c0,0.3-0.1,0.5-0.3,0.7
			c-0.2,0.2-0.5,0.3-0.8,0.3c-0.2,0-0.5,0-0.9-0.1c-0.3,0-1-0.1-2.1-0.1c-1.2,0-2.2,0.1-3,0.2c-0.1,0-0.3,0.1-0.7,0.1
			c-0.3,0.1-0.5,0.1-0.6,0.1c-0.3,0-0.4-0.2-0.4-0.6c0-0.8,0.3-1.1,1-1.2c0.8,0,1.8-0.1,3.1-0.1h1.9C146.9,31,147.8,31.2,147.8,31.6
			z"/>
		<path class="st0" d="M173.4,33.4c0,0.4-0.2,0.6-0.6,0.6c-0.2,0-0.4,0-0.8-0.1c-0.4,0-0.6-0.1-0.8-0.1c-1.8,0-3.5,0.5-4.9,1.6
			c-1.6,1.2-2.4,2.7-2.4,4.5c0,1.5,0.7,2.6,2,3.3c1.1,0.6,2.4,0.9,4,0.9c0.3,0,0.6,0,1.2,0c0.5-0.1,0.9-0.1,1.2-0.1
			c0.2,0,0.3,0.1,0.3,0.3c-0.1,0.5-0.4,1-0.9,1.4c-0.5,0.4-1,0.6-1.5,0.6c-2,0-3.7-0.5-5.2-1.5c-1.6-1.1-2.4-2.6-2.4-4.5
			c0-1.5,0.5-2.8,1.5-3.9c0.8-0.9,1.9-1.7,3.5-2.5c-3.2,0.3-6.1,0.8-8.8,1.5c-0.3,0.1-0.6,0.2-1,0.3c-0.4,0-0.6-0.2-0.6-0.6
			c0-0.4,0.1-0.8,0.3-1c0.2-0.2,0.7-0.4,1.4-0.5c2.2-0.3,5-0.6,8.5-0.8c2.9-0.2,4.7-0.3,5.1-0.3c0.3,0,0.5,0.1,0.7,0.3
			C173.3,32.9,173.4,33.1,173.4,33.4z"/>
		<path class="st0" d="M197.9,42.2c-0.1,0.3-0.3,0.7-0.8,1.2c-0.5,0.5-0.9,0.7-1.1,0.7c0,0-1-0.6-3.1-1.7c-0.4,0.8-1.1,1.7-1.9,2.6
			c-1,1.1-1.8,1.7-2.4,1.7c-0.3,0-0.7-0.2-1.3-0.5c-0.5-0.3-0.8-0.6-0.8-0.9c0-0.1,0.5-0.3,1.4-0.5c1.6-0.5,2.9-1.5,3.9-3
			c-1.7-0.8-3.4-1.4-5.3-1.9c-2.3,2.8-4,4.3-5.3,4.3c-0.5,0-0.9-0.2-1.2-0.7c-0.3-0.4-0.4-0.8-0.4-1.4c0-1.2,0.6-2.2,1.9-2.8
			c1-0.5,2.2-0.7,3.6-0.7c0.1,0,0.4,0,1,0.1c0.5-0.7,1.6-2.5,3.3-5.3c-1.1,0-1.9,0-2.3,0.1c-0.8,0.1-1.6,0.2-2.3,0.4
			c-0.7,0.2-1,0.3-1.1,0.3c-0.5,0-0.7-0.2-0.7-0.5c0-0.7,0.4-1.1,1.1-1.2c1.1-0.2,2.3-0.4,3.5-0.4h2.4c0.9,0,1.3,0.2,1.3,0.7
			c0,0.3-0.6,1.3-1.7,2.9c-0.9,1.4-1.7,2.5-2.3,3.3c1.4,0.4,3.1,0.9,5.2,1.5c0.3-0.8,0.5-1.6,0.6-2.3c0-0.4,0.2-0.5,0.6-0.5
			c0.4,0,0.6,0.2,0.6,0.6c0,0.7-0.2,1.5-0.7,2.6c1.4,0.5,2.7,0.9,3.9,1C197.7,41.9,197.8,42,197.9,42.2z M185.1,39.7
			c-0.4,0-0.8,0-0.9,0c-0.9,0-1.7,0.2-2.4,0.6c-0.8,0.4-1.3,1.1-1.3,1.9c0,0.6,0.2,0.8,0.6,0.8C182.1,43,183.4,41.9,185.1,39.7z"/>
		<path class="st0" d="M219.8,44c-0.1,0.3-0.3,0.7-0.8,1.2c-0.4,0.5-0.8,0.8-1.1,0.8c-0.4,0-1-0.3-2-0.9c-0.6-0.4-1.2-0.8-1.7-1.2
			c-0.5-0.3-1.1-0.6-2-0.9c-0.2,2-1.4,3-3.7,3c-0.9,0-1.6-0.2-2.3-0.6c-0.8-0.4-1.2-1.1-1.2-1.9c0-0.9,0.4-1.5,1.3-1.9
			c0.7-0.3,1.5-0.5,2.4-0.5c0.6,0,1.4,0.1,2.2,0.3c0-0.4,0-0.9,0-1.5c0-0.8,0-1.3,0-1.5c0,0,0,0,0-0.1c0-0.1,0-0.1,0-0.1
			c-1.6,0.1-2.9,0.2-3.9,0.4c-0.1,0-0.2,0-0.4,0.1c-0.2,0.1-0.3,0.1-0.4,0.1c-0.4,0-0.6-0.2-0.6-0.7c0-0.5,0.4-0.9,1.3-0.9
			c0.7-0.1,2-0.2,3.8-0.2c0-0.8,0-1.8,0-3c-1.3,0-2.1,0.1-2.3,0.1c-0.9,0.1-1.6,0.2-2.3,0.3c-0.6,0.2-0.9,0.2-1,0.2
			c-0.5,0-0.8-0.3-0.8-0.9c0-0.2,0.1-0.4,0.2-0.5c0.2-0.2,2.2-0.3,6.1-0.3c0-1.1-0.1-1.8-0.1-1.9c0-0.6,0.3-0.9,0.8-0.9
			c0.6,0,0.9,0.3,0.9,0.9c0,0.5,0,1.2-0.1,1.9c2.9,0.1,4.9,0.2,5.8,0.2c0.4,0,0.5,0.1,0.5,0.2c0,0.3-0.1,0.6-0.4,1
			c-0.3,0.4-0.5,0.6-0.7,0.6c0.1,0-0.3-0.1-1.2-0.4c-0.9-0.2-2.2-0.4-4.1-0.5c0,1,0,2,0,2.9c1.8,0,3.4,0.1,4.8,0.3
			c0.1,0,0.2,0,0.3,0.1c0,0,0.1,0.1,0.1,0.2c0,0.3-0.1,0.5-0.3,0.8c-0.2,0.3-0.4,0.5-0.6,0.5c0,0-0.6-0.1-1.5-0.3
			c-0.8-0.2-1.8-0.2-2.9-0.3c0,0.2,0,1.3-0.1,3.6c1.5,0.4,2.9,0.9,4.2,1.4c0.9,0.3,1.8,0.5,2.8,0.6C219.6,43.7,219.7,43.8,219.8,44z
			 M211,42.5c-1-0.3-1.8-0.4-2.4-0.4c-1.6,0-2.5,0.5-2.5,1.4c0,0.4,0.3,0.8,0.9,1c0.4,0.2,0.9,0.3,1.4,0.3c0.8,0,1.4-0.2,1.8-0.6
			C210.6,43.9,210.8,43.3,211,42.5z"/>
		<path class="st0" d="M244.5,36.2c0,0.3-0.2,0.7-0.7,1.2c-0.4,0.5-0.8,0.8-1.1,0.8c-0.2,0-0.9-0.2-1.9-0.6
			c-0.6-0.2-1.3-0.4-2.1-0.6c-0.2,0.8-0.3,1.6-0.5,2.5c-0.3,1.1-0.8,1.7-1.5,1.7c-0.4,0-1-0.2-1.7-0.7c-0.8-0.5-1.1-0.9-1.1-1.2
			c0-0.2,0.1-0.3,0.4-0.3c0.4,0.1,0.7,0.3,1.1,0.5c0.5,0.2,0.8,0.4,1,0.4c0.4,0,0.8-1,1-2.9c-0.1,0-0.2,0-0.3,0c-0.2,0-0.3,0-0.4,0
			c-1.7,0-3.4,0.1-5,0.2c0,0.9-0.1,1.7-0.1,2.4c0,1.8,0.1,2.9,0.4,3.4c0.4,0.8,1.4,1.2,3,1.2c1.6,0,3.6-0.3,5.8-1
			c0.2-0.1,0.4-0.1,0.6-0.1c0.1,0,0.2,0.1,0.2,0.4s-0.2,0.7-0.5,1.2c-0.3,0.5-0.9,0.9-1.8,1.1c-0.4,0.1-1.2,0.1-2.2,0.1
			c-1.6,0-3-0.2-4.1-0.6c-1.1-0.4-1.9-1.2-2.3-2.3c-0.3-0.8-0.4-1.9-0.4-3.4c0-0.3,0-0.7,0-1.2c0-0.5,0-0.9,0-1.2
			c-1.5,0.2-2.9,0.6-4.1,0.9l-0.9,0.3c-0.4,0-0.6-0.2-0.6-0.5c0-0.4,0.1-0.7,0.3-1c0.2-0.3,2-0.5,5.2-0.8v-3.5c0-0.7,0.3-1.1,1-1.1
			c0.4,0,0.6,0.3,0.6,0.8c0,0.4,0,1-0.1,1.8c-0.1,0.8-0.1,1.4-0.1,1.8c2.3-0.1,4.2-0.2,5.8-0.2c0-0.4,0-0.9,0-1.6c0-0.8,0-1.4,0-1.6
			c0-0.6,0-0.9,0-1c0.1-0.3,0.4-0.5,0.8-0.5c0.3,0,0.6,0.2,0.6,0.6c0,0.1,0,0.4,0,0.9c0,0.6-0.1,1.7-0.3,3.4
			c1.4,0.2,2.8,0.2,4.1,0.2c0.1,0,0.4,0,0.6-0.1c0.3-0.1,0.5-0.1,0.6-0.1C244.4,35.9,244.5,36,244.5,36.2z"/>
		<path class="st0" d="M266.8,41.7c0,1.7-0.9,2.8-2.8,3.4c-1.1,0.3-2.2,0.5-3.2,0.5c-1.5,0-2.4-0.6-2.8-1.8
			c-0.1-0.3-0.3-1.4-0.5-3.3c-0.1-1.2-0.5-1.8-1.2-1.8c-1.3,0-2.5,0.6-3.3,1.8c-0.4,0.5-0.9,1.6-1.7,3.2c-0.5,1.2-1,1.8-1.4,1.8
			c-0.6,0-0.9-0.3-0.9-0.8c0-0.3,0.1-0.6,0.3-1c1.1-1.9,3.2-6,6.4-12.5c0.2-0.4,0.5-0.6,1-0.6c0.5,0,0.8,0.2,0.8,0.7
			c0,0.2-0.6,1.4-1.8,3.6c-0.7,1.3-1.4,2.5-2.1,3.8c0.9-0.6,1.8-0.9,2.7-0.9c0.6,0,1.2,0.2,1.7,0.7c0.4,0.4,0.6,1.1,0.8,2.1
			c0.3,1.5,0.4,2.3,0.4,2.4c0.2,0.8,0.6,1.1,1.3,1.1c0.7,0,1.5-0.2,2.5-0.7c0.9-0.4,1.7-0.9,2.2-1.4c0.7-0.7,1.1-1,1.1-1
			C266.6,40.9,266.8,41.2,266.8,41.7z"/>
		<path class="st0" d="M285.2,37.6c0,1.6-0.3,3.2-0.8,4.8c-0.8,2-1.8,3-3.2,3c-0.3,0-0.6-0.2-1-0.7c-0.4-0.5-0.5-0.9-0.5-1.2
			c0-0.2,0.3-0.3,1-0.3c0.8-0.1,1.3-0.3,1.5-0.5c0.6-0.5,1-1.4,1.4-2.8c0.3-1.1,0.4-2.2,0.4-3.2c0-1-0.5-1.4-1.6-1.4
			c-0.4,0-1.1,0-2,0.1c-0.5,1.8-1,3.3-1.6,4.4c-0.6,1.3-1.5,2.6-2.6,3.9c-1,1.1-1.7,1.7-2.1,1.7c-0.3,0-0.7-0.2-1.1-0.6
			c-0.4-0.4-0.6-0.6-0.6-0.9c0-0.1,0.1-0.3,0.3-0.4c0.2-0.1,0.6-0.3,1-0.6c1.1-0.7,2.1-1.5,2.9-2.5c1-1.2,1.8-2.9,2.6-4.9
			c-0.8,0.1-2.1,0.3-3.7,0.6c-0.4,0-0.6-0.2-0.6-0.6c0-0.7,0.7-1,2.2-1.1c0.4,0,1.2-0.1,2.4-0.1c0.2-0.8,0.4-1.6,0.4-2.6
			c0-0.5,0.2-0.8,0.6-0.8c0.5,0,0.7,0.2,0.7,0.7c0,0.2-0.2,1.1-0.5,2.6c0.8,0,1.3,0,1.6,0c1.1,0,1.9,0.3,2.4,0.9
			C285.1,35.6,285.2,36.4,285.2,37.6z M292.8,36.9c0,0.2-0.2,0.6-0.7,1.2c-0.5,0.5-0.8,0.8-1.1,0.8c-0.5,0-1.2-0.6-2.2-1.7
			c-1-1.1-1.5-1.9-1.5-2.4c0-0.2,0.1-0.4,0.3-0.4c0.1,0,0.4,0.2,0.9,0.6c0.5,0.4,1,0.8,1.8,1.2c0.6,0.3,1.2,0.5,1.8,0.5
			C292.5,36.6,292.8,36.7,292.8,36.9z"/>
		<path class="st0" d="M311.4,35.3c0,1-0.3,1.8-1,2.5c-0.4,0.4-1.1,0.8-2.1,1.3c-0.9,0.4-1.4,0.8-1.7,1.1c-0.1,0.2-0.3,0.7-0.4,1.5
			c-0.1,0.6-0.3,0.9-0.7,0.9c-0.6,0-0.8-0.3-0.8-0.8c0-0.9,0.1-1.5,0.4-1.9c0.3-0.4,0.8-0.8,1.5-1.2c2-1.1,3-2.2,3-3.3
			c0-0.8-0.4-1.4-1.1-1.9c-0.6-0.4-1.4-0.6-2.2-0.6c-1.2,0-2.3,0.3-3.1,1c-0.5,0.4-1.1,0.9-1.6,1.7c-0.4,0.6-0.7,0.9-0.9,0.9
			c-0.3,0-0.6-0.1-0.8-0.3c-0.2-0.3-0.3-0.6-0.3-0.9c0-0.4,0.2-0.8,0.6-1.3c1.5-1.5,3.5-2.3,6-2.3c1.3,0,2.4,0.3,3.4,0.8
			C310.9,33.2,311.4,34.1,311.4,35.3z M307,45.7c0,0.4-0.2,0.8-0.5,1.1c-0.3,0.3-0.7,0.4-1.1,0.4c-0.4,0-0.8-0.1-1.1-0.4
			c-0.3-0.3-0.4-0.6-0.4-1.1c0-0.9,0.5-1.4,1.5-1.4c0.4,0,0.8,0.1,1.1,0.4C306.8,44.9,307,45.2,307,45.7z"/>
	</g>
</g>
</svg>
