<?xml version="1.0" encoding="utf-8"?>
<!-- Generator: Adobe Illustrator 24.0.3, SVG Export Plug-In . SVG Version: 6.00 Build 0)  -->
<svg version="1.1" id="レイヤー_1" xmlns="http://www.w3.org/2000/svg" xmlns:xlink="http://www.w3.org/1999/xlink" x="0px"
	 y="0px" viewBox="0 0 502.8 77.6" style="enable-background:new 0 0 502.8 77.6;" xml:space="preserve">
<style type="text/css">
	.st0{fill:#503819;}
</style>
<g>
	<path class="st0" d="M1,1.9h5.1c0.1,0,0.2,0.1,0.2,0.3c0,0.3-0.1,0.5-0.2,0.6C6,3,5.8,3.1,5.5,3.1c-0.1,0-0.4,0-0.8-0.1
		C4.5,3,4.2,3,4,3l0,3.3h2c0.1,0,0.2,0.1,0.2,0.3C6.2,6.8,6.1,7,6,7.2C5.8,7.4,5.6,7.5,5.3,7.5c-0.1,0-0.4,0-0.8-0.1
		c-0.2,0-0.4,0-0.6,0l0,3.5c0.9-0.3,1.6-0.4,2.1-0.5c0.2,0,0.3,0.1,0.3,0.4c0,0.4-0.1,0.6-0.4,0.7c-1.9,0.6-3.7,1.4-5.3,2.3
		c-0.4,0-0.6-0.2-0.6-0.6c0-0.4,0.1-0.6,0.2-0.8c0.1-0.2,0.2-0.3,0.5-0.4c0.8-0.2,1.5-0.5,2.1-0.6l0-3.8c-0.7,0-1.2,0.1-1.5,0.2
		C1,7.7,0.9,7.8,0.8,7.8c-0.4,0-0.6-0.2-0.6-0.6c0-0.2,0.1-0.4,0.3-0.6c0.2-0.1,0.4-0.2,0.7-0.2h1.6l0-3.3C2,3,1.5,3.1,1.1,3.2
		C0.9,3.3,0.7,3.4,0.6,3.4C0.3,3.4,0,3.1,0,2.7c0-0.2,0.1-0.4,0.3-0.6C0.5,1.9,0.7,1.9,1,1.9z M8.9,7.1c0.2,0,0.3,0,0.5,0
		c0.2,0,0.4,0,0.8,0h2.3c0.5,0,1.2,0,1.9,0.1c0.2,0,0.4,0,0.7-0.1c0.4,0,0.6,0.2,0.6,0.6c0,0,0,0,0,0.1c-0.1,0.1-0.1,0.3-0.1,0.6
		c0,0.4-0.1,0.7-0.1,1.1c0,0.2,0,0.4,0.1,0.8c0,0.4-0.2,0.6-0.5,0.6c-1.1-0.1-2.1-0.2-2.9-0.2c0,0.1,0.1,0.3,0.1,0.5
		C12,12,12,12.5,12,13l0.1,2.8c0,0.9-0.2,1.3-0.6,1.3c-0.3,0-0.5-0.4-0.5-1.3c0.1-1.2,0.1-2.1,0.1-2.8c0-0.4,0-0.8,0-1.2
		C10.2,13,9.1,14,8,15c-0.5,0.4-0.9,0.6-1.2,0.6c-0.3,0-0.6-0.1-0.8-0.4s-0.4-0.5-0.4-0.8c0-0.2,0.1-0.3,0.4-0.3
		c0.9-0.2,1.8-0.6,2.5-1.2c0.8-0.5,1.5-1.2,2.1-2c-0.4,0-0.6,0-0.8,0.1c-0.2,0-0.5,0.1-0.9,0.2c-0.3,0-0.5-0.2-0.5-0.6
		C8.5,9.9,8.5,9.4,8.5,9c0-0.3-0.1-0.7-0.2-1.2C8.4,7.3,8.6,7.1,8.9,7.1z M7.6,5.4H17c0.1,0,0.2,0.1,0.2,0.3c0,0.2-0.1,0.5-0.2,0.6
		c-0.2,0.2-0.4,0.3-0.7,0.3c-0.2,0-0.8,0-1.7-0.1c-0.9,0-1.9,0-3,0c-1.7,0-2.9,0.1-3.6,0.2C7.7,6.7,7.4,6.7,7.3,6.7
		c-0.3,0-0.5-0.2-0.6-0.6c0-0.2,0.1-0.4,0.3-0.6C7.2,5.4,7.4,5.4,7.6,5.4z M7.8,0.5c0.2,0,0.4,0,0.5,0c0.2,0,0.4,0,0.8,0h3.6
		c0.8,0,1.8,0,2.9,0.1c0.2,0,0.4,0,0.6-0.1c0.4,0,0.6,0.2,0.6,0.6l0,0.1c-0.1,0.1-0.1,0.3-0.1,0.6c0,0.4-0.1,0.7-0.1,1.2
		c0,0.2,0,0.5,0.1,0.8c0,0.4-0.2,0.7-0.5,0.7c-1.6-0.1-3-0.2-4.3-0.2c-1.5,0-2.4,0-2.8,0.1c-0.3,0-0.8,0.1-1.2,0.2
		c-0.3,0-0.5-0.2-0.5-0.7c0.1-0.6,0.2-1.1,0.2-1.5c0-0.4-0.1-0.8-0.2-1.3C7.3,0.7,7.4,0.5,7.8,0.5z M10.3,3.4l0-1.8
		c-0.4,0-0.9,0-1.4,0C8.6,1.6,8.5,1.7,8.5,2c0,0.4-0.1,0.7-0.2,1c0,0.3,0.1,0.5,0.4,0.5C9.2,3.4,9.7,3.4,10.3,3.4z M11.8,9.9
		c0.7,0,1.5,0,2.3,0.1c0.2,0,0.3-0.1,0.3-0.4V8.5c0-0.1,0-0.2-0.1-0.2c-1-0.1-2.4-0.1-4.3-0.1c-0.2,0-0.3,0.1-0.3,0.4
		c0,0.3-0.1,0.6-0.2,0.9c0,0.3,0.1,0.5,0.4,0.5C10.4,10,11.1,9.9,11.8,9.9z M11.8,3.4c0.3,0,0.7,0,1,0l-0.1-1.8c-0.5,0-1,0-1.6,0
		v1.8C11.4,3.4,11.6,3.4,11.8,3.4z M16.6,10.4c0.4,0,0.6,0.2,0.6,0.7c0,0.3-0.1,0.5-0.4,0.7c-0.6,0.4-1.3,0.8-2.3,1.2
		c-0.1,0-0.2,0.1-0.2,0.1l0,0c1.5,1.2,2.5,1.9,2.8,2.1c0.2,0.1,0.5,0.1,0.9,0.2c0.2,0,0.3,0.1,0.3,0.3c0,0.3-0.2,0.5-0.6,0.8
		c-0.4,0.3-0.7,0.4-1.1,0.4c-0.3,0-0.5-0.1-0.7-0.3c-0.5-0.8-1.1-1.6-1.7-2.4c-0.3-0.3-0.5-0.6-0.7-0.7c0,0,0,0-0.1,0
		c-0.1,0-0.1,0-0.1,0c-0.3,0-0.5-0.2-0.5-0.5c0-0.2,0.1-0.4,0.3-0.5c1.4-0.8,2.4-1.4,3.2-2.1C16.4,10.5,16.5,10.4,16.6,10.4z
		 M13.7,1.6v1.8c0.5,0,1,0,1.5,0.1c0.2,0,0.3-0.1,0.3-0.4V1.9c0-0.1-0.1-0.2-0.2-0.2C14.9,1.7,14.3,1.6,13.7,1.6z"/>
	<path class="st0" d="M21.4,4.8h1.6l0-3.6c0-0.6,0.2-0.8,0.6-0.8c0.5,0,0.8,0.3,0.8,0.8l-0.1,3.6h1.9c0.1,0,0.2,0.1,0.2,0.3
		c0,0.3-0.1,0.5-0.2,0.6C26.1,5.9,25.9,6,25.6,6c-0.1,0-0.4,0-0.8-0.1c-0.2,0-0.3,0-0.5,0l-0.1,4.3c1-0.3,1.7-0.4,2.2-0.5
		c0.2,0,0.3,0.1,0.3,0.4c0,0.4-0.1,0.6-0.4,0.6c-1.8,0.6-3.5,1.3-5.1,2.1c-0.4,0-0.6-0.2-0.6-0.6c0-0.4,0.1-0.6,0.2-0.8
		c0.1-0.2,0.2-0.3,0.5-0.4c0.7-0.2,1.3-0.4,1.8-0.5l0-4.6c-0.7,0-1.2,0.1-1.6,0.2c-0.2,0.1-0.4,0.2-0.5,0.2c-0.4,0-0.6-0.2-0.6-0.6
		c0-0.2,0.1-0.5,0.3-0.6C20.9,4.8,21.1,4.8,21.4,4.8z M29,6.6c0.2,0,0.4,0,0.6,0c0.2,0,0.5,0,0.9,0H33c0.6,0,1.3,0,2.1,0.1
		c0.2,0,0.4,0,0.7-0.1c0.4,0,0.6,0.2,0.6,0.6c0,0,0,0.1-0.1,0.2c-0.1,0.2-0.1,0.5-0.1,0.9c0,0.6-0.1,1.2-0.1,1.8c0,0.4,0,1,0.1,1.7
		c0,0.4-0.2,0.7-0.6,0.7c-0.6-0.1-1.1-0.1-1.6-0.1c0,0,0,0.1,0,0.1c0,0.6,0,1.4-0.1,2.3c0,0.2,0,0.3,0.1,0.3c0.2,0,0.7,0.1,1.4,0.1
		c1.2,0,2.3-0.2,3.2-0.6c0.2,0,0.2,0.2,0.2,0.5c0,0.4-0.1,0.8-0.4,1.3c-0.3,0.5-0.5,0.8-0.8,0.8c-0.2,0-1.6-0.2-4.3-0.7
		c-0.4-0.1-0.6-0.4-0.6-0.8c0.1-0.9,0.1-1.5,0.1-2c0-0.4,0-0.9-0.1-1.4c-0.2,0-0.4,0-0.6,0c-0.3,0-0.5,0-0.7,0c0,0.1,0,0.1,0,0.2
		c0,0-0.1,0-0.1,0.1c-0.3,0.6-0.8,1.4-1.4,2.2c-0.7,0.8-1.5,1.3-2.2,1.7c-0.5,0.3-0.9,0.4-1.3,0.4c-0.2,0-0.4-0.1-0.7-0.3
		c-0.3-0.3-0.5-0.6-0.5-1c0-0.3,0.2-0.4,0.7-0.5c1-0.1,1.9-0.4,2.7-0.9c0.7-0.5,1.3-1.2,1.7-1.9c-0.2,0-0.4,0-0.5,0
		c-0.3,0-0.6,0.1-1,0.2c-0.4,0-0.6-0.2-0.6-0.7c0.1-0.9,0.2-1.7,0.2-2.4c0-0.7-0.1-1.4-0.2-2.4C28.4,6.8,28.6,6.6,29,6.6z M32.3,0
		C32.7,0,33,0.3,33,0.8c-0.1,0.3-0.2,0.6-0.2,0.9h3.9c0.1,0,0.2,0.1,0.2,0.3c0,0.3-0.1,0.5-0.2,0.6C36.6,2.9,36.4,3,36.1,3
		c-0.2,0-0.6,0-1.3-0.1l-0.3,1.7h3.2c0.2,0,0.3,0.1,0.3,0.2c0,0.3-0.1,0.6-0.2,0.9C37.6,5.9,37.3,6,37.1,6c-0.2,0-0.8-0.1-1.7-0.2
		c-1-0.1-2-0.1-3.1-0.1c-1.7,0-3,0.1-3.8,0.2C28,6,27.7,6,27.6,6C27.2,6,27,5.8,27,5.4c0-0.2,0.1-0.4,0.3-0.6
		c0.2-0.1,0.4-0.2,0.7-0.2h2.4L30,2.9c-0.3,0-0.6,0.1-0.9,0.1c-0.4,0.1-0.6,0.2-0.7,0.2c-0.3,0-0.5-0.2-0.6-0.6
		c0-0.2,0.1-0.4,0.3-0.6c0.2-0.1,0.4-0.2,0.7-0.2h2.9c0-0.3-0.1-0.6-0.2-0.8C31.5,0.3,31.8,0,32.3,0z M32.3,11.4
		c0.7,0,1.6,0,2.5,0.1c0.2,0,0.3-0.1,0.3-0.4V10c0,0-0.1,0-0.1,0c-2.2,0-3.9,0.1-5.2,0.2c0,0-0.1,0-0.1,0c0,0.3,0,0.6-0.1,0.8
		c0,0.3,0.2,0.5,0.5,0.5C30.7,11.5,31.4,11.4,32.3,11.4z M29.8,9.1c0,0,0.1,0,0.1,0h5c0.1,0,0.1,0,0.2,0V8c0-0.1-0.1-0.2-0.2-0.2
		c-1.1,0-2.6-0.1-4.7-0.1c-0.3,0-0.4,0.1-0.4,0.4C29.8,8.4,29.8,8.8,29.8,9.1z M31.3,4.6h2.3l0.1-1.8c-0.5,0-1,0-1.5,0
		c-0.4,0-0.8,0-1.2,0L31.3,4.6z"/>
	<path class="st0" d="M45.1,7.5c0.2,0,0.3,0.1,0.3,0.3c0,0.3-0.1,0.5-0.2,0.6l-3.7,1.6c-0.5,0-0.7-0.2-0.7-0.7c0-0.6,0.2-1,0.6-1
		L45.1,7.5z M42.9,0.5c0.1,0,0.2,0.1,0.5,0.2c0.6,0.6,1.4,1.3,2.3,2c0.1,0.1,0.2,0.2,0.2,0.3c0,0.3-0.1,0.4-0.4,0.4
		c-0.1,0-0.2,0-0.4-0.1c-1.3-0.6-2.1-0.9-2.4-1.1c-0.4-0.3-0.6-0.6-0.6-1C42.1,0.7,42.4,0.5,42.9,0.5z M45.5,13
		c0.2,0,0.3,0.1,0.3,0.4c0,0.2-0.1,0.4-0.2,0.6c-1.3,1.8-2.1,2.6-2.3,2.6c-0.6,0-0.9-0.2-0.9-0.6c0-0.5,0.1-0.9,0.3-1
		C42.7,14.9,43.7,14.2,45.5,13z M55.9,0.7c0.3,0,0.4,0.1,0.4,0.4c0,0.3-0.1,0.5-0.3,0.6c-1.2,0.4-2.3,0.8-3.2,1.1l0,3.4
		c0.6,0,1.3,0,2.1,0.1c0.8,0,1.6,0.1,2.2,0.1c0.4,0,0.9-0.1,1.4-0.2c0.1,0,0.2,0.2,0.2,0.5c0,0.5-0.2,1-0.5,1.6
		c-0.2,0.4-0.4,0.6-0.6,0.6c-0.3,0-0.6-0.1-1-0.4c-0.6-0.4-1.3-0.6-2-0.8c-0.6-0.1-1.2-0.2-1.8-0.2l0,3.5h0c0.6,0,1.2,0,2,0.1
		c0.2,0,0.4-0.1,0.7-0.2c0.4,0,0.6,0.2,0.6,0.7c0,0,0,0.1,0,0.2c-0.1,0.2-0.1,0.5-0.1,0.9c0,0.6-0.1,1.2-0.1,1.8
		c0,0.4,0,0.9,0.1,1.6c0,0.5-0.2,0.8-0.6,0.8c-1.2-0.1-2.4-0.2-3.3-0.2c-1.2,0-1.9,0-2.2,0c-0.3,0-0.6,0.1-1,0.1
		c-0.4,0-0.6-0.2-0.6-0.7c0.1-0.9,0.2-1.7,0.2-2.4c0-0.6-0.1-1.4-0.2-2.4c0-0.4,0.2-0.6,0.6-0.6c0.2,0,0.4,0,0.6,0.1
		s0.5,0.1,0.9,0.1h1.3l0-3.5c-0.8,0-1.5,0.1-2.2,0.2c-0.5,0.1-1.3,0.4-2.3,1c-0.5,0-0.7-0.2-0.7-0.6c0-0.3,0.1-0.5,0.3-0.7
		c0.2-0.3,0.6-0.5,1-0.5c1.6-0.3,3-0.4,3.9-0.5l0-3c-0.3,0.1-0.7,0.2-1,0.2c-1,0.2-1.6,0.3-1.9,0.3c-0.4,0-0.7-0.2-1-0.5
		c-0.2-0.2-0.3-0.5-0.3-0.8c0-0.2,0.1-0.3,0.3-0.3c1.9,0,3.4-0.2,4.7-0.5c1.2-0.2,2.3-0.5,3.1-0.8C55.7,0.7,55.8,0.7,55.9,0.7z
		 M52,15.3c0.7,0,1.6,0,2.5,0.1c0.2,0,0.3-0.1,0.3-0.3v-3c0-0.2,0-0.3-0.1-0.3c-1.1,0-2.6-0.1-4.6-0.1c-0.3,0-0.4,0.2-0.4,0.5
		c0,1,0,1.9-0.1,2.8c0,0.3,0.2,0.4,0.5,0.4C50.5,15.3,51.2,15.3,52,15.3z"/>
	<path class="st0" d="M69.4,0.3c0.3,0,0.4,0.2,0.4,0.5c0,0.3-0.1,0.5-0.3,0.6c-1.1,0.3-2,0.5-2.9,0.6v1.4h3.6c0.2,0,0.3,0.1,0.3,0.3
		c0,0.3-0.1,0.6-0.2,0.8c-0.2,0.2-0.4,0.3-0.7,0.3c-0.2,0-0.7-0.1-1.5-0.2c-0.5,0-1-0.1-1.5-0.1v1.1c0.6,0,1.2,0,2,0.1
		c0.2,0,0.4,0,0.7-0.1c0.4,0,0.6,0.2,0.6,0.6c0,0,0,0.1-0.1,0.1c-0.1,0.2-0.1,0.4-0.1,0.8c0,0.5-0.1,1.1-0.1,1.7
		c0,0.4,0,0.9,0.1,1.5c0,0.4-0.2,0.6-0.6,0.6c-0.9-0.1-1.8-0.2-2.6-0.2l0,1.1h2.8c0.1,0,0.2,0.1,0.2,0.3c0,0.3-0.1,0.5-0.2,0.6
		c-0.2,0.2-0.4,0.3-0.7,0.3c-0.1,0-0.5,0-1.1-0.1c-0.3,0-0.7,0-1.1,0v1.1c1.2-0.2,2.1-0.3,2.8-0.4c0.2,0,0.2,0.1,0.2,0.4
		c0,0.3-0.1,0.5-0.3,0.6c-2.5,0.5-4.9,1.1-7.1,1.8c-0.4,0-0.7-0.2-0.7-0.6c0-0.3,0.1-0.6,0.2-0.7c0.1-0.1,0.3-0.2,0.7-0.3
		c1.2-0.2,2.2-0.4,3.1-0.5v-1.3c-1,0-1.8,0.1-2.3,0.2c-0.3,0.1-0.5,0.2-0.6,0.2c-0.3,0-0.5-0.3-0.6-0.7c0-0.2,0.1-0.4,0.3-0.6
		c0.2-0.1,0.4-0.2,0.7-0.2h2.4V11c-1,0-1.7,0-2,0.1c-0.3,0-0.6,0.1-1,0.2c-0.4,0-0.6-0.2-0.6-0.6C61.9,9.7,62,9,62,8.4
		c0-0.6-0.1-1.3-0.2-2.2c0-0.4,0.2-0.6,0.6-0.6c0.2,0,0.4,0,0.6,0c0.2,0,0.5,0,0.9,0h1.5V4.5c-1.4,0-2.5,0.1-3.1,0.2
		c-0.4,0.1-0.6,0.2-0.8,0.2c-0.4,0-0.6-0.2-0.6-0.6c0-0.2,0.1-0.4,0.3-0.6c0.2-0.1,0.4-0.2,0.7-0.2h3.4l0-1.2
		c-0.3,0-0.5,0.1-0.8,0.1c-0.9,0.1-1.4,0.2-1.7,0.2c-0.3,0-0.6-0.1-0.9-0.4c-0.2-0.2-0.3-0.5-0.3-0.7c0-0.2,0.1-0.3,0.3-0.3
		c1.7,0,3.1-0.1,4.2-0.3c1.1-0.1,2.1-0.3,2.8-0.5C69.2,0.3,69.3,0.3,69.4,0.3z M65.4,10V8.9c-0.8,0-1.5,0.1-2.1,0.1
		c-0.1,0-0.1,0-0.2,0c0,0.2,0,0.4-0.1,0.7c0,0.3,0.2,0.5,0.5,0.5C64,10.1,64.7,10,65.4,10z M63.2,7.9c0.1,0,0.1,0,0.2,0h2l0-1.2
		c-0.5,0-1.1,0-1.8,0c-0.3,0-0.4,0.1-0.4,0.4C63.2,7.3,63.2,7.6,63.2,7.9z M66.6,6.7l0,1.2h2c0,0,0.1,0,0.1,0v-1
		c0-0.1-0.1-0.2-0.2-0.2C67.9,6.7,67.3,6.7,66.6,6.7z M66.6,8.8v1.2c0.5,0,1.1,0,1.7,0.1c0.2,0,0.3-0.1,0.3-0.4v-1
		C67.9,8.8,67.2,8.8,66.6,8.8z M73.7,5.2C73.9,3.6,74,2.3,74,1c0-0.4,0.2-0.6,0.6-0.6c0.4,0,0.6,0.2,0.6,0.7c0,0.1,0,0.4-0.1,0.9
		c-0.1,1.2-0.2,2.2-0.3,3.2h2.5c0.1,0,0.3-0.1,0.7-0.2c0.5,0,0.7,0.3,0.7,0.8c-0.3,1.8-0.5,3.6-0.6,5.4c-0.1,2.5-0.5,4.1-1.2,4.8
		c-0.5,0.7-1.2,1.1-2,1.1c-0.4,0-0.6-0.2-0.9-0.5c-0.2-0.3-0.2-0.6-0.2-0.9s0.1-0.4,0.3-0.5c1.1-0.1,1.8-0.4,2.1-0.9
		c0.4-0.5,0.7-2.1,1-4.7C77.3,8,77.4,7,77.4,6.7c0-0.3-0.1-0.4-0.2-0.4h-2.5c-0.2,1.2-0.4,2.2-0.5,3c-0.3,1.5-0.7,3-1.3,4.3
		c-0.4,1.1-1,2.1-1.8,2.9c-0.3,0.3-0.5,0.5-0.8,0.5c-0.2,0-0.4-0.1-0.7-0.4c-0.2-0.3-0.4-0.6-0.4-0.9c0-0.2,0.1-0.4,0.2-0.4
		c0.7-0.3,1.3-0.8,1.7-1.4c0.5-0.8,1-2,1.5-3.6c0.3-1.2,0.6-2.5,0.8-4c-0.5,0-1,0.1-1.4,0.2c-0.4,0.1-0.7,0.2-0.8,0.2
		c-0.3,0-0.5-0.2-0.5-0.5c0-0.5,0.2-0.8,0.6-0.9C71.7,5.2,72.5,5.2,73.7,5.2z"/>
	<path class="st0" d="M83.2,0.7c0.2,0,0.4,0,0.6,0.1c0.2,0.1,0.5,0.1,0.9,0.1h6.4c1.4,0,3.2,0,5.1,0.1c0.2,0,0.5-0.1,0.8-0.2
		c0.4,0,0.6,0.3,0.6,0.9c0,0,0,0.2-0.1,0.5c-0.1,0.5-0.1,1.3-0.2,2.6c-0.1,1.6-0.1,3.4-0.1,5.3c0,1.4,0,3.4,0.1,5.9
		c0,0.6-0.2,0.9-0.6,0.9c-2.5-0.1-4.8-0.2-6.9-0.2c-2.5,0-4.1,0-4.8,0.1c-0.6,0-1.3,0.1-2.1,0.2c-0.4,0-0.6-0.3-0.6-0.8
		c0.1-2.6,0.2-4.9,0.2-6.8c0-2.1-0.1-4.7-0.2-7.8C82.6,0.9,82.8,0.7,83.2,0.7z M90.1,15.3c1.8,0,3.7,0,5.9,0.1
		c0.2,0,0.3-0.1,0.3-0.4c0-5.8,0-10,0.1-12.6c0-0.2-0.1-0.3-0.3-0.3c-2.7-0.1-6.5-0.1-11.6-0.1c-0.3,0-0.4,0.2-0.4,0.5
		c0,4.3-0.1,8.4-0.2,12.3c0,0.4,0.2,0.6,0.5,0.6C86,15.3,87.9,15.3,90.1,15.3z M85.8,5.3c0.1,0,0.3,0,0.4,0.1
		c1.4-0.2,2.7-0.3,3.8-0.3c0.4,0,1,0,1.7,0.1c0-0.6,0-1.1,0-1.3c0-0.6,0.2-0.9,0.6-0.9s0.6,0.3,0.6,0.8c0,0.1,0,0.3-0.1,0.5
		c-0.1,0.4-0.1,0.7-0.1,1.1c0.1,0,0.2,0,0.3,0c0.2,0,0.5,0,0.6,0c0.2,0,0.4,0,0.8-0.1C94.8,5,95,5,95.1,5c0.2,0,0.2,0.1,0.2,0.2
		c0,0.4-0.2,0.8-0.5,1.3c-0.3,0.5-0.6,0.7-0.9,0.7c-0.2,0-0.4-0.1-0.9-0.3c-0.1,0-0.3-0.1-0.4-0.1c0,1.8,0.1,3.3,0.1,4.3
		c0,1.5-0.4,2.4-1.1,2.8c-0.5,0.2-0.9,0.4-1.3,0.4c-0.3,0-0.5-0.1-0.7-0.3c-0.2-0.3-0.4-0.6-0.4-0.9c0-0.2,0.1-0.3,0.3-0.4
		c0.8-0.1,1.3-0.2,1.6-0.4c0.3-0.2,0.5-0.5,0.5-0.8c0.1-0.4,0.1-1,0.1-2c0-1,0-1.9-0.1-2.9c-0.5-0.1-1.1-0.1-1.8-0.1
		c-1.7,0-2.9,0.1-3.6,0.4c-0.3,0.1-0.6,0.2-0.8,0.2c-0.3,0-0.5-0.2-0.5-0.6c0-0.2,0.1-0.5,0.2-0.7C85.5,5.4,85.6,5.3,85.8,5.3z
		 M88.9,8.5c0.2,0,0.2,0.1,0.2,0.3c0,0.1-0.1,0.3-0.2,0.5c-1.4,1.6-2.2,2.4-2.4,2.4c-0.5,0-0.7-0.2-0.7-0.5c0-0.4,0.1-0.7,0.2-0.8
		C86.1,10.2,87,9.6,88.9,8.5z"/>
	<path class="st0" d="M106.6,0.4c0.3,0,0.5,0.2,0.5,0.5c0,0.2,0,0.4-0.1,0.7c-0.5,0.8-1.1,1.6-1.8,2.4c0.1,0.1,0.2,0.4,0.2,0.8
		c-0.1,1.3-0.1,2.5-0.1,3.6l0.1,7.4c0,1-0.2,1.5-0.7,1.5c-0.4,0-0.6-0.5-0.6-1.5c0-3.2,0.1-5.6,0.1-7.4c0-1,0-2.1-0.1-3.3
		c-0.2,0.2-0.3,0.4-0.5,0.5c-0.5,0.5-0.9,0.7-1.2,0.7c-0.3,0-0.6-0.2-0.9-0.5C101.1,5.6,101,5.3,101,5c0-0.2,0.1-0.3,0.4-0.4
		c0.9-0.3,1.8-0.7,2.5-1.4c0.8-0.6,1.6-1.5,2.3-2.6C106.4,0.4,106.5,0.4,106.6,0.4z M108.4,4.3h3.4c0-0.9,0-1.9-0.1-3
		c0-0.6,0.2-0.9,0.6-0.9s0.6,0.3,0.6,0.9c0,1.1,0,2.1-0.1,3h4.3c0.2,0,0.3,0.1,0.3,0.3c0,0.3-0.1,0.6-0.2,0.8
		c-0.2,0.2-0.4,0.3-0.7,0.3c-0.2,0-0.7-0.1-1.6-0.2c-0.7,0-1.4,0-2.1,0c0.2,0.1,0.4,0.4,0.7,0.8c2.3,2.9,3.8,4.5,4.4,4.9
		c0.4,0.2,0.8,0.4,1.3,0.5c0.3,0,0.4,0.1,0.4,0.4c0,0.3-0.2,0.6-0.6,0.9c-0.4,0.3-0.8,0.5-1.3,0.5c-0.3,0-0.6-0.1-0.9-0.4
		c-0.9-1.6-1.9-3.2-3.1-4.9c-0.3-0.5-0.7-0.8-0.9-1.1l0.1,5.7h2.6c0.1,0,0.2,0.1,0.2,0.2c0,0.3-0.1,0.5-0.2,0.7
		c-0.2,0.2-0.4,0.3-0.7,0.3c-0.1,0-0.5,0-1-0.1c-0.3,0-0.6,0-1,0l0,1.9c0,1-0.2,1.5-0.7,1.5c-0.4,0-0.6-0.5-0.6-1.5
		c0-0.7,0-1.3,0-1.9c-0.8,0-1.5,0-1.9,0.1c-0.3,0.1-0.5,0.1-0.5,0.1c-0.4,0-0.5-0.2-0.6-0.6c0-0.2,0.1-0.4,0.3-0.6
		c0.2-0.1,0.4-0.2,0.7-0.2h2c0-2.2,0-4.1,0-5.6c-0.8,1.8-1.5,3.1-2,3.7c-0.7,1-1.5,1.8-2.4,2.4c-0.2,0.2-0.4,0.3-0.6,0.3
		c-0.4,0-0.7-0.1-0.9-0.4c-0.2-0.2-0.3-0.5-0.3-0.8c0-0.2,0.1-0.3,0.3-0.3c1-0.3,1.7-0.7,2.3-1.2c0.5-0.4,1-1,1.5-1.8
		c0.5-0.8,1.1-1.9,1.8-3.5c-1.2,0-2.1,0.1-2.7,0.2c-0.4,0.1-0.7,0.2-0.8,0.2c-0.4,0-0.7-0.3-0.7-0.7c0-0.2,0.1-0.4,0.3-0.6
		C107.8,4.4,108.1,4.3,108.4,4.3z"/>
	<path class="st0" d="M136.8,8.5c0,2.8-1.3,4.9-3.9,6.3c-1,0.6-1.9,0.9-2.4,0.9c-0.3,0-0.7-0.2-1-0.5c-0.4-0.3-0.6-0.7-0.6-1.1
		c0-0.1,0.2-0.3,0.5-0.3c0.2,0,0.6-0.1,1-0.2c1.2-0.2,2.2-0.6,2.9-1.1c0.7-0.5,1.3-1.1,1.7-1.8c0.5-0.8,0.7-1.7,0.7-2.6
		c0-0.7-0.2-1.5-0.6-2.2c-0.8-1.6-2.2-2.4-4.1-2.4c-0.1,0-0.2,0-0.3,0c-0.1,0-0.2,0-0.3,0c-0.8,4.1-1.8,7.2-3,9
		c-0.7,1.1-1.4,1.6-1.9,1.6c-0.7,0-1.3-0.6-1.8-1.9c-0.4-1-0.6-2-0.6-3c0-1.5,0.4-2.9,1.3-4.1c1.3-1.9,3.4-2.8,6.1-2.8
		c1.7,0,3.1,0.5,4.3,1.6C136.2,5,136.8,6.5,136.8,8.5z M129.2,3.6c-1.8,0.4-3,1.1-3.8,2.2C124.5,7,124.2,8,124.2,9
		c0,0.6,0.1,1.2,0.3,2c0.3,0.9,0.6,1.3,1,1.3c0.4,0,0.8-0.3,1.2-1C127.7,9.7,128.5,7.1,129.2,3.6z"/>
	<path class="st0" d="M142.9,3.2h4.8L147.6,1c0-0.6,0.2-0.8,0.7-0.8c0.5,0,0.8,0.3,0.8,0.8L149,3.2h5.5c0.2,0,0.3,0.1,0.3,0.3
		c0,0.3-0.1,0.6-0.2,0.8c-0.2,0.2-0.4,0.3-0.7,0.3s-1-0.1-2.1-0.2c-0.9,0-1.8-0.1-2.8-0.1L149,6.9c1,0,1.9,0.1,2.7,0.1
		c0.2-0.1,0.5-0.1,0.6-0.1c0.4,0,0.6,0.3,0.6,0.8c0,0.1-0.1,0.2-0.3,0.4c-0.2,0.2-0.6,0.9-1.4,1.9c-0.6,0.7-1.2,1.4-1.9,2.1
		c2,1.2,3.7,2,5,2.4c1.1,0.4,2,0.6,2.7,0.6c0.1,0,0.2,0.1,0.2,0.3c0,0.5-0.2,0.9-0.7,1.4c-0.3,0.3-0.6,0.4-0.9,0.4
		c-0.3,0-0.6-0.1-1-0.2c-0.5-0.2-1.8-1-3.8-2.4c-1-0.7-1.8-1.2-2.5-1.7c-0.5,0.5-1.1,0.9-1.7,1.4c-1.2,1-2.3,1.7-3.3,2.1
		c-0.8,0.4-1.4,0.6-1.9,0.6c-0.3,0-0.6-0.2-0.9-0.5c-0.4-0.3-0.6-0.7-0.6-1.1c0-0.3,0.1-0.4,0.4-0.5c0.6,0,1.4-0.2,2.5-0.5
		c1.6-0.5,3-1.2,4-1.9c0.1-0.1,0.2-0.2,0.3-0.3c-0.4-0.2-0.7-0.4-1-0.6c-0.7-0.3-1.3-0.6-2-0.7c-0.3-0.1-0.5-0.3-0.5-0.6
		c0-0.4,0.2-0.6,0.5-0.6c0.2,0,0.5,0.1,0.8,0.3c1.2,0.6,2.2,1.1,3.2,1.6c0.9-0.8,1.7-1.7,2.6-2.7c0.2-0.2,0.3-0.3,0.3-0.4
		c0-0.2-0.1-0.3-0.2-0.3C150.7,8,150.4,8,150.1,8c-2.4,0-3.9,0.1-4.7,0.2c-0.5,0.1-0.8,0.1-1,0.1c-0.3,0-0.5-0.2-0.5-0.6
		c0-0.3,0.1-0.6,0.4-0.7c0.3-0.1,0.9-0.2,1.9-0.2c0.5,0,1,0,1.4,0l-0.1-2.5c-1.9,0-3.3,0.1-4.2,0.2c-0.5,0.1-0.9,0.2-1,0.2
		c-0.4,0-0.6-0.3-0.6-0.7c0-0.2,0.1-0.4,0.3-0.6C142.3,3.3,142.6,3.2,142.9,3.2z"/>
	<path class="st0" d="M160.7,3.7h2c0-0.9,0-1.8,0-2.7c0-0.7,0.3-1,0.7-1c0.4,0,0.6,0.2,0.6,0.7c0,0.1,0,0.4-0.1,0.7
		c0,0.4-0.1,0.7-0.1,0.9c0,0.5,0,0.9,0,1.3h2.1c0.1,0,0.2,0.1,0.2,0.3c0,0.3-0.1,0.5-0.2,0.7c-0.2,0.2-0.4,0.3-0.7,0.3
		c-0.1,0-0.4,0-0.9-0.1c-0.2,0-0.4,0-0.6,0c0,1.3,0,2.6,0.1,3.7c0.7-0.2,1.2-0.3,1.6-0.4c0.2,0,0.3,0.1,0.3,0.4
		c0,0.4-0.1,0.6-0.4,0.6c-0.5,0.2-1,0.4-1.5,0.6c0,1.5,0.1,2.6,0.1,3.4c0,1.4-0.3,2.4-0.8,3.1c-0.5,0.5-1,0.8-1.7,0.8
		c-0.3,0-0.6-0.1-0.9-0.4c-0.2-0.2-0.2-0.5-0.2-0.7c0-0.2,0.1-0.4,0.4-0.5c1-0.3,1.5-0.6,1.7-1.1c0.2-0.4,0.2-0.9,0.2-1.6
		c0-0.9,0-1.7,0-2.6c-1,0.4-1.9,0.9-2.8,1.4c-0.4,0-0.6-0.2-0.6-0.6c0-0.4,0.1-0.6,0.2-0.8c0.1-0.2,0.2-0.4,0.5-0.5
		c1-0.4,1.9-0.7,2.7-0.9c0-1.2,0-2.4,0-3.6c0-0.1,0-0.3,0-0.5c-0.9,0-1.6,0.1-2,0.2c-0.2,0.1-0.4,0.2-0.5,0.2
		c-0.4,0-0.6-0.2-0.6-0.6c0-0.2,0.1-0.5,0.3-0.6C160.2,3.8,160.4,3.7,160.7,3.7z M168.8,5.8h6.4c0.1,0,0.2,0.1,0.2,0.2
		c0,0.3-0.1,0.5-0.2,0.7C175,6.9,174.8,7,174.5,7c-0.1,0-0.5,0-1.1-0.1c-0.6,0-1.2,0-1.9,0c-0.1,0-0.2,0-0.2,0c0,0,0,0.1,0,0.1
		c-0.1,0.4-0.3,0.8-0.5,1.3h5.6c0.2,0,0.3,0.1,0.3,0.2c0,0.3-0.1,0.6-0.2,0.8c-0.2,0.3-0.4,0.4-0.7,0.4c-0.2,0-0.7-0.1-1.5-0.2
		c-0.8,0-1.7-0.1-2.7-0.1c-0.4,0-0.9,0-1.2,0c-0.1,0.3-0.3,0.6-0.4,0.9c-0.7,1.1-1.5,2-2.3,2.6c-0.5,0.4-1,0.6-1.3,0.6
		c-0.2,0-0.4-0.1-0.6-0.3c-0.3-0.3-0.4-0.6-0.4-0.9c0-0.2,0.2-0.4,0.6-0.5c1-0.2,2-0.7,2.8-1.6c0.2-0.2,0.4-0.5,0.6-0.7
		c-0.4,0-0.7,0.1-1,0.1c-0.4,0.1-0.7,0.1-0.8,0.1c-0.3,0-0.5-0.3-0.6-0.7c0-0.2,0.1-0.4,0.3-0.6c0.2-0.1,0.4-0.2,0.7-0.2h2
		c0.2-0.4,0.4-0.9,0.6-1.4c-0.6,0-1,0.1-1.4,0.1c-0.3,0.1-0.5,0.1-0.6,0.1c-0.3,0-0.5-0.2-0.6-0.6c0-0.2,0.1-0.4,0.3-0.6
		C168.3,5.9,168.5,5.8,168.8,5.8z M167.1,3.6c0.3,0.1,0.4,0.1,0.6,0.1c0.4,0,0.8-0.2,1.3-0.6c0.1,0,0.2,0.1,0.2,0.2
		c0,0.2-0.2,0.5-0.6,1.1c-0.4,0.5-0.7,0.8-1,0.8c-0.2,0-0.4-0.1-0.5-0.3c-0.2-0.3-0.2-0.6-0.2-1C167,3.7,167,3.6,167.1,3.6z
		 M175.3,0.5c0.2,0,0.3,0.1,0.3,0.4c0,0.3-0.1,0.4-0.2,0.5c-2,0.6-3.6,1-4.9,1.2c-0.9,0.1-1.4,0.2-1.7,0.2c-0.3,0-0.6-0.1-0.9-0.4
		c-0.2-0.2-0.3-0.5-0.3-0.7c0-0.2,0.1-0.3,0.3-0.3c1.7,0,3.1-0.1,4.2-0.3c1.1-0.1,2.1-0.3,2.8-0.5C175,0.5,175.2,0.5,175.3,0.5z
		 M170.5,10.5c0.9,0,2,0,3.2,0.1l0.4-0.1c0.4,0,0.6,0.2,0.6,0.5c0,0.2-0.1,0.5-0.3,0.8c-0.5,0.8-0.9,1.5-1.3,2.1
		c1,0.5,1.9,0.8,2.6,1.1c0.7,0.2,1.2,0.3,1.7,0.3c0.1,0,0.2,0.1,0.2,0.2c0,0.4-0.2,0.9-0.6,1.4c-0.2,0.3-0.5,0.4-0.8,0.4
		c-0.2,0-0.4,0-0.6-0.1c-0.3-0.1-1-0.6-2.2-1.4c-0.4-0.3-0.8-0.6-1.2-0.8c-0.7,0.7-1.4,1.2-2.2,1.6c-0.5,0.2-0.9,0.4-1.2,0.4
		c-0.3,0-0.6-0.1-0.9-0.4c-0.3-0.3-0.4-0.6-0.4-0.9c0-0.3,0.1-0.4,0.3-0.4c0.9,0,1.6-0.1,2-0.2c0.4-0.1,0.9-0.3,1.3-0.6
		c-0.2-0.1-0.4-0.3-0.6-0.4c-0.4-0.2-0.8-0.4-1.2-0.4c-0.3-0.1-0.5-0.3-0.5-0.6c0-0.4,0.2-0.6,0.5-0.6c0.1,0,0.3,0,0.5,0.1
		c0.9,0.4,1.6,0.7,2.3,1c0.4-0.5,0.8-1.1,1.1-1.7c0-0.2-0.1-0.3-0.3-0.3c-0.8,0-1.7,0.1-2.8,0.2c-0.3,0-0.4-0.1-0.4-0.4
		c0-0.2,0.1-0.4,0.2-0.5C170.2,10.6,170.4,10.5,170.5,10.5z M171.7,3c0.4,0,0.6,0.2,0.6,0.7L172,4.8c0,0.2-0.1,0.3-0.3,0.3
		c-0.2,0-0.4-0.1-0.4-0.3l-0.2-1.2C171.2,3.2,171.4,3,171.7,3z M174.4,2.4C174.4,2.4,174.4,2.5,174.4,2.4c0.6,0.4,1,0.6,1.3,0.8
		c0.2,0.1,0.5,0.2,0.8,0.2c0.1,0,0.2,0.1,0.2,0.3s-0.1,0.4-0.3,0.6c-0.4,0.3-0.7,0.5-0.9,0.5c-0.1,0-0.2-0.1-0.2-0.2
		c-0.1-0.2-0.4-0.7-0.9-1.7c0-0.1-0.1-0.1-0.1-0.2C174.2,2.5,174.3,2.4,174.4,2.4z"/>
	<path class="st0" d="M195.6,7.3c0,1.2-0.4,2.1-1.3,2.9c-0.8,0.7-1.7,1-2.8,1c-0.7,0-1.2-0.2-1.5-0.6c-0.3-0.5-0.5-0.9-0.5-1.3
		c0-0.2,0-0.3,0.1-0.3c0.2,0,0.5,0.1,1,0.2c0.5,0.1,0.8,0.2,1.1,0.2c0.6,0,1.2-0.2,1.8-0.6c0.7-0.4,1-1,1-1.6c0-0.6-0.2-1.1-0.6-1.5
		c-0.4-0.3-0.8-0.5-1.4-0.5c-1.4,0-3.3,0.5-5.8,1.4c0.4,2.4,0.9,4.4,1.6,6c0.5,1.2,1.1,2.1,1.7,2.7c0.1,0.1,0.3,0.3,0.5,0.6
		c0,0.2-0.3,0.4-0.7,0.7c-0.4,0.2-0.7,0.3-1,0.3c-0.6,0-1.3-1.5-2-4.4c-0.5-2.1-0.9-3.9-1.1-5.5c-0.7,0.3-1.8,0.8-3.2,1.4L181.3,9
		c-0.5,0-0.7-0.3-0.7-0.9c0-0.4,0.7-0.9,2.1-1.4c0.3-0.1,1.2-0.4,2.7-0.9c-0.2-1.8-0.2-3.2-0.2-4.2c0-0.5,0.2-0.7,0.7-0.7
		c0.3,0,0.4,0.2,0.5,0.7c0,0.3,0,0.7,0,1.3c0,1,0.1,1.9,0.1,2.7c2.6-0.8,4.4-1.2,5.6-1.2c0.9,0,1.7,0.2,2.3,0.7
		C195.2,5.6,195.6,6.4,195.6,7.3z M191.5,1c0,0.3-0.3,0.8-0.9,1.6c-0.6,0.8-1.1,1.1-1.3,1.1c-0.2,0-0.5-0.2-0.8-0.6
		c-0.3-0.4-0.5-0.7-0.5-0.9c0-0.1,0.3-0.2,0.9-0.3c0.4,0,0.9-0.3,1.5-0.6c0.6-0.4,0.9-0.6,0.9-0.6C191.4,0.7,191.5,0.8,191.5,1z"/>
	<path class="st0" d="M205.4,16.1c0,0.3-0.3,0.6-0.8,1c-0.5,0.4-0.9,0.6-1.1,0.6s-0.5-0.3-0.9-0.8c-0.7-1.2-1.4-2.3-2.1-3.1
		c-0.6-0.8-0.9-1.3-0.9-1.5c0-0.3,0.1-0.4,0.4-0.4c0.2,0,1.3,0.9,3.3,2.8c0.4,0.4,1,0.8,1.8,1.2C205.2,15.8,205.3,15.9,205.4,16.1z"
		/>
	<path class="st0" d="M220.2,0c0.5,0,0.8,0.3,0.8,0.8c0,0.1,0,0.3-0.1,0.5c-0.3,0.8-0.5,1.3-0.7,1.6h1c0.9,0,1.9,0,3.1,0.1
		c0.2,0,0.5-0.1,0.8-0.2c0.4,0,0.6,0.3,0.6,0.8c0,0,0,0.2-0.1,0.4c-0.1,0.4-0.1,1.1-0.2,2.2c-0.1,1.4-0.1,2.9-0.1,4.5
		c0,1.2,0,2.8,0.1,4.8c0,0.6-0.2,0.8-0.6,0.8c-1.8-0.1-3.4-0.2-4.9-0.2c-1.6,0-2.6,0-3.1,0.1c-0.4,0-0.8,0.1-1.3,0.2
		c-0.4,0-0.6-0.3-0.6-0.8c0.1-2.2,0.1-4.1,0.1-5.8c0-1.8,0-3.9-0.1-6.5c0-0.5,0.2-0.8,0.6-0.8c0.2,0,0.4,0,0.6,0.1s0.5,0.1,0.9,0.1
		h1.8c0.3-0.7,0.4-1.4,0.4-2.2C219.5,0.3,219.7,0,220.2,0z M220.1,15.1c1.2,0,2.5,0,3.9,0.1c0.2,0,0.3-0.1,0.3-0.4c0-1,0-1.9,0-2.8
		c-3.3,0-5.9,0.1-7.8,0.2c0,0.8-0.1,1.6-0.1,2.4c0,0.4,0.2,0.6,0.5,0.6C217.9,15.1,218.9,15.1,220.1,15.1z M216.6,11
		c0,0,0.1,0,0.1,0h7.7c0-1.1,0-2,0-2.9h0c-3.3,0-5.9,0.1-7.7,0.2h0C216.6,9.2,216.6,10.1,216.6,11z M216.6,7c0.1,0,0.1,0,0.2,0h7.6
		c0,0,0,0,0,0c0-1,0-1.8,0-2.4c0-0.2-0.1-0.3-0.3-0.3c-1.6-0.1-4-0.1-7.1-0.1c-0.3,0-0.4,0.2-0.4,0.5C216.6,5.5,216.6,6.3,216.6,7z"
		/>
	<path class="st0" d="M234.4,0.1c0.5,0,0.7,0.3,0.7,0.8c-0.1,0.8-0.2,1.4-0.2,2c0.6,0,1.1,0.1,1.7,0.1c0.2-0.1,0.3-0.1,0.5-0.1
		c0.4,0,0.6,0.3,0.6,0.8c0,0.1-0.1,0.2-0.2,0.3c-0.1,0.2-0.4,0.7-0.8,1.4c-0.4,0.8-0.9,1.4-1.4,2.1c0.2,0.1,0.5,0.4,1.1,0.9
		c0.7,0.6,1.1,1.1,1.1,1.3c0,0.4-0.2,0.6-0.6,0.6c-0.1,0-0.2-0.1-0.3-0.2c-0.7-0.6-1.2-1-1.5-1.2c-0.1,0.8-0.1,1.5-0.1,2.2l0.1,4.5
		c0,1-0.2,1.5-0.7,1.5c-0.4,0-0.6-0.5-0.6-1.5c0.1-1.9,0.1-3.4,0.1-4.5c0-0.6,0-1.2-0.1-1.9c-0.5,0.6-1,1-1.5,1.3
		c-0.5,0.3-0.8,0.4-1,0.4c-0.2,0-0.5-0.1-0.8-0.4c-0.3-0.3-0.5-0.6-0.5-0.9c0-0.2,0.1-0.3,0.4-0.4c0.3,0,0.8-0.1,1.3-0.3
		c0.9-0.4,1.6-0.9,2.1-1.5c0.7-0.7,1.4-1.6,2-2.8c0.1-0.1,0.2-0.2,0.2-0.3c0-0.2-0.1-0.3-0.2-0.3c-0.2-0.1-0.4-0.1-0.7-0.1
		c-1.7,0-2.8,0.1-3.3,0.2c-0.3,0.1-0.6,0.1-0.7,0.1c-0.3,0-0.5-0.2-0.5-0.6c0-0.3,0.2-0.6,0.5-0.7c0.2-0.1,0.9-0.2,1.9-0.2
		c0.2,0,0.5,0,0.7,0c0-0.7-0.1-1.3-0.2-1.9C233.7,0.4,234,0.1,234.4,0.1z M239.2,6.9h2.6l-0.1-4.7c0-0.5,0.2-0.7,0.6-0.7
		c0.5,0,0.7,0.2,0.7,0.7l-0.1,4.7h3.2c0.2,0,0.3,0.1,0.3,0.3c0,0.3-0.1,0.6-0.2,0.8c-0.2,0.2-0.4,0.3-0.7,0.3
		c-0.2,0-0.6-0.1-1.2-0.2c-0.4,0-0.9,0-1.4,0L243,13c0.7,0,1.5,0.1,2.3,0.2c0.8,0.1,1.6,0.1,2.3,0.1c0.3,0,0.6,0,1-0.1
		c0.1,0,0.1,0.1,0.1,0.3c0,0.4-0.1,0.9-0.3,1.3c-0.2,0.5-0.4,0.7-0.7,0.7c-0.2,0-0.4-0.1-0.7-0.3c-0.9-0.5-1.7-0.9-2.4-1.1
		c-0.6-0.1-1.3-0.2-2.2-0.2c-1,0-1.9,0.1-2.6,0.3c-0.8,0.2-1.5,0.6-2.3,1c-0.2,0.1-0.4,0.2-0.6,0.2c-0.4,0-0.5-0.3-0.6-0.7
		c0-0.3,0.1-0.5,0.3-0.7c0.2-0.2,0.4-0.3,0.7-0.4c2-0.4,3.5-0.7,4.5-0.7l-0.1-4.9c-1.1,0-1.9,0.1-2.4,0.2c-0.3,0.1-0.6,0.2-0.7,0.2
		c-0.4,0-0.6-0.3-0.6-0.7c0-0.2,0.1-0.4,0.3-0.6C238.7,7,238.9,6.9,239.2,6.9z"/>
	<path class="st0" d="M251.4,13.3c0.3,0.1,0.6,0.1,0.7,0.1c0.4,0,0.9-0.2,1.5-0.6c0.1,0,0.2,0.1,0.2,0.3c0,0.2-0.2,0.6-0.6,1.2
		c-0.4,0.6-0.8,0.9-1.1,0.9c-0.2,0-0.4-0.1-0.6-0.4c-0.2-0.3-0.3-0.7-0.3-1.1C251.2,13.4,251.3,13.3,251.4,13.3z M255.6,0.5
		c0.4,0,0.6,0.2,0.6,0.7c0,0.3-0.1,0.7-0.3,1c-0.7,1.1-1.4,2-2.2,2.7c-0.1,0.1-0.2,0.3-0.2,0.5c0,0,0.1,0.1,0.3,0.3
		c0.2,0.1,0.5,0.4,0.8,0.7c0,0,0,0.1,0.1,0.1c0.6-0.7,1.3-1.5,1.9-2.2c0.1-0.1,0.2-0.1,0.4-0.1c0.1,0,0.2,0.1,0.3,0.2
		c0.1,0.1,0.1,0.3,0.1,0.5c0,0.2-0.1,0.4-0.2,0.5c-1.1,1.3-2.2,2.7-3.3,4.1c-0.1,0.1-0.1,0.2-0.1,0.4c0,0,0,0.1,0.1,0.1
		c0.1,0,0.5,0,1.1,0c0.8,0,1.4,0,1.9-0.1c0.1,0,0.2-0.1,0.2-0.3c-0.2-0.5-0.3-0.9-0.6-1.3c-0.1-0.1-0.1-0.2-0.1-0.3
		c0-0.1,0-0.2,0.1-0.4s0.2-0.2,0.4-0.2c0.1,0,0.2,0.1,0.3,0.3c0.3,0.5,0.5,1.1,0.8,1.8c0.1,0.3,0.2,0.6,0.2,0.8
		c0,0.5-0.2,0.7-0.6,0.7c-0.2-0.1-0.5-0.1-0.7-0.1c-0.4,0-0.7,0.1-1.1,0.1c0,0.1,0,0.3,0,0.4c-0.1,0.6-0.1,1.1-0.1,1.6l0.1,2.4
		c0,1-0.2,1.5-0.7,1.5c-0.4,0-0.6-0.5-0.6-1.5c0.1-1,0.1-1.9,0.1-2.4c0-0.5,0-1-0.1-1.6c0-0.1,0-0.3,0-0.4c-0.4,0-0.8,0-1.2-0.1
		c-0.4,0-0.7,0-1.1,0.1c-0.5,0-0.8-0.2-0.8-0.6c0-0.2,0.1-0.5,0.2-0.7c0.7-0.8,1.4-1.7,2.1-2.5c0,0-0.1,0-0.1,0
		c-0.8-0.6-1.5-0.9-1.9-1.1c-0.2-0.1-0.3-0.2-0.3-0.5c0-0.2,0.1-0.4,0.3-0.6c0.4-0.3,0.7-0.6,1.1-1.1c0.8-0.8,1.5-1.9,2.2-3.2
		C255.3,0.6,255.5,0.5,255.6,0.5z M256.8,12.5c0.1,0,0.1,0,0.2,0.1c0.3,0.4,0.6,0.7,1,0.8c0.2,0,0.3,0.1,0.3,0.3
		c0,0.2-0.1,0.4-0.2,0.6c-0.2,0.2-0.4,0.2-0.6,0.2c-0.2,0-0.4-0.3-0.6-0.8c-0.2-0.5-0.3-0.8-0.3-1C256.6,12.6,256.7,12.5,256.8,12.5
		z M261.5,3.4l3.9,0.1c0,0,0,0,0,0c0-0.6,0.1-1,0.1-1.4c0-0.2-0.1-0.3-0.2-0.3c-1.2,0-2.8,0-4.5,0.1c-0.4,0-0.6-0.2-0.6-0.5
		c0-0.3,0.1-0.5,0.3-0.7c0.2-0.1,0.4-0.1,0.5-0.1l4.2,0.1c0.4-0.1,0.7-0.1,0.8-0.1c0.5,0,0.8,0.3,0.8,0.8c-0.2,0.7-0.3,1.4-0.4,2.2
		c0,0.4,0,1.3,0,2.5c0,0.1,0,0.2,0,0.3c0.3,0,0.5,0,0.8,0c0.3,0,0.5,0,0.7,0c0.2,0,0.4,0,0.8-0.1c0.3-0.1,0.5-0.2,0.6-0.2
		c0.2,0,0.2,0.1,0.2,0.2c0,0.4-0.2,0.8-0.5,1.2c-0.3,0.5-0.6,0.7-0.9,0.7c-0.2,0-0.5-0.1-1-0.3c-0.8-0.3-1.8-0.5-3-0.6
		c0,0.1,0,0.2,0,0.3c-0.1,1-0.1,1.9-0.1,2.7l0.1,5.1c0,1-0.2,1.5-0.7,1.5c-0.4,0-0.6-0.5-0.6-1.5c0.1-2.2,0.1-3.9,0.1-5.1
		c0-0.8,0-1.7-0.1-2.7c0-0.1,0-0.2,0-0.3c-1.6,0-2.8,0.1-3.4,0.4c-0.3,0.1-0.6,0.2-0.8,0.2c-0.3,0-0.5-0.2-0.5-0.6
		c0-0.2,0.1-0.5,0.2-0.7c0.1-0.2,0.3-0.3,0.5-0.3c0.1,0,0.3,0,0.4,0.1c1.5-0.2,2.9-0.3,4.1-0.3c0.5,0,1.1,0,1.9,0c0-0.2,0-0.4,0-0.7
		c0-0.4,0-0.8,0-1.2c-1.7,0-3.1,0.1-4.1,0.2c-0.5,0-0.7-0.2-0.7-0.6C260.6,3.6,260.9,3.4,261.5,3.4z M261.7,13.5
		c0.2,0,0.3,0.1,0.3,0.4c0,0.2-0.1,0.4-0.2,0.6c-1.2,1.2-1.9,1.9-2.1,1.9c-0.5,0-0.8-0.2-0.8-0.6c0-0.5,0.1-0.8,0.3-1
		C259.3,14.7,260.1,14.3,261.7,13.5z M260.1,9.3c0.1,0,0.4,0.3,1.1,0.8c0.6,0.6,0.9,1,0.9,1.2c0,0.4-0.2,0.6-0.6,0.6
		c-0.1,0-0.2,0-0.3-0.1c-0.7-0.6-1.1-1-1.5-1.1c-0.3-0.1-0.4-0.3-0.4-0.5C259.3,9.6,259.6,9.3,260.1,9.3z M267.7,9.4
		c0.4,0,0.6,0.3,0.6,0.8c0,0.3-0.1,0.5-0.2,0.6c-1.3,0.7-2,1-2,1c-0.3,0-0.5-0.1-0.5-0.3c0-0.2,0.1-0.3,0.2-0.5l1.7-1.6
		C267.5,9.4,267.7,9.4,267.7,9.4z M265.8,13.4c0,0,0,0,0.1,0c0.6,0.4,1.1,0.7,1.5,0.9c0.3,0.1,0.6,0.2,1,0.2c0.2,0,0.2,0.1,0.2,0.3
		c0,0.3-0.1,0.5-0.4,0.8c-0.5,0.4-0.9,0.6-1.2,0.6c-0.1,0-0.2-0.1-0.3-0.2c-0.2-0.2-0.6-0.9-1.2-2c-0.1-0.1-0.1-0.2-0.1-0.2
		C265.6,13.5,265.7,13.4,265.8,13.4z"/>
	<path class="st0" d="M273.3,5.3h1.7l0-3.9c0-0.6,0.2-0.8,0.6-0.8c0.5,0,0.8,0.3,0.8,0.8l-0.1,3.9h2.1c0.1,0,0.2,0.1,0.2,0.3
		c0,0.2-0.1,0.5-0.2,0.6c-0.2,0.2-0.4,0.3-0.7,0.3c-0.1,0-0.4,0-0.9-0.1c-0.2,0-0.4,0-0.6,0l-0.1,4.6c0.9-0.2,1.7-0.4,2.2-0.5
		c0.2,0,0.3,0.1,0.3,0.4c0,0.4-0.1,0.6-0.4,0.7c-1.9,0.6-3.7,1.3-5.3,2.1c-0.4,0-0.6-0.2-0.6-0.6c0-0.4,0.1-0.6,0.2-0.8
		c0.1-0.2,0.2-0.3,0.5-0.4c0.8-0.2,1.4-0.4,2.1-0.6l0-4.9c-0.7,0-1.3,0.1-1.6,0.2c-0.3,0.1-0.4,0.2-0.5,0.2c-0.4,0-0.6-0.2-0.6-0.6
		c0-0.2,0.1-0.4,0.3-0.6C272.8,5.3,273,5.3,273.3,5.3z M288.7,4.8c0.4,0,0.6,0.3,0.6,0.8c0,0.1-0.1,0.3-0.2,0.5
		c-0.3,0.7-0.7,1.9-1.3,3.8c-0.1,0.4-0.3,0.6-0.6,0.6c-0.3,0-0.5-0.2-0.5-0.5c0.1-0.7,0.4-1.8,0.9-3.4c0-0.1-0.1-0.2-0.3-0.2
		c-0.2,0-0.5,0-0.9,0.1c-0.5,0.1-1,0.2-1.5,0.3l0,3.7c0,0.9-0.2,1.4-0.6,1.4c-0.4,0-0.6-0.5-0.6-1.4c0-1.3,0-2.4,0-3.4
		c-0.8,0.2-1.5,0.4-2.1,0.6c0,1.7-0.1,3.7-0.1,5.8c0,0.4,0.2,0.6,0.5,0.7c0.7,0.1,2.3,0.1,5,0.1c1.3,0,2.4-0.2,3.4-0.6
		c0.1,0,0.2,0.2,0.2,0.5c0,0.4-0.1,0.9-0.3,1.4c-0.2,0.6-0.5,0.9-0.7,0.9c-0.3,0-3.1-0.3-8.2-0.9c-0.8-0.1-1.2-0.5-1.2-1.1
		c0.1-2.6,0.1-4.6,0.1-6c0-0.1,0-0.3,0-0.4c-0.4,0.2-0.8,0.4-1.3,0.6c-0.5,0-0.7-0.2-0.7-0.6c0-0.3,0.1-0.5,0.2-0.8
		c0.1-0.2,0.3-0.3,0.6-0.3c0.4-0.1,0.9-0.2,1.3-0.4c0-1,0-2.1-0.1-3.2c0-0.4,0.2-0.6,0.6-0.6c0.5,0,0.7,0.3,0.7,0.8
		c0,0.8,0,1.7,0,2.7c0.7-0.2,1.4-0.4,2.1-0.5c0-0.6,0-1.1,0-1.6c0-0.9,0-2-0.1-3.1c0-0.6,0.2-0.8,0.6-0.8c0.4,0,0.6,0.3,0.6,0.8
		c-0.1,1.2-0.1,2.2-0.1,3.1l0,1.4c0.8-0.2,1.6-0.3,2.3-0.4c0.4-0.1,0.7-0.2,1-0.3C288.3,4.8,288.5,4.8,288.7,4.8z"/>
	<path class="st0" d="M306.7,6.1c0,0.3-0.3,0.6-0.8,1c-1.2,0.9-2.9,2-5.1,3.4c0,0.1,0,0.4,0,0.8c0,0.3,0,0.6,0,0.8
		c0,0.5-0.2,0.7-0.7,0.7c-0.3,0-0.4-0.2-0.5-0.6c0-0.1,0-0.4,0-1c-0.8,0.5-1.4,0.8-1.7,1.1c-0.7,0.6-1.1,1.1-1.1,1.7
		c0,0.4,0.3,0.6,1,0.8c0.5,0.1,1,0.2,1.5,0.2c1.5,0,2.8-0.3,4-0.8c0.9-0.4,1.4-0.6,1.4-0.6c0.1,0,0.2,0.1,0.2,0.4
		c0,0.5-0.1,1-0.4,1.5c-0.2,0.4-0.7,0.6-1.6,0.8c-0.7,0.1-1.4,0.1-2.3,0.1c-1.1,0-2.1-0.1-2.9-0.4c-1.3-0.4-1.9-1.1-1.9-2
		c0-0.8,0.5-1.6,1.4-2.4c0.1-0.2,0.9-0.7,2.2-1.7c0-0.9-0.1-1.4-0.1-1.6c-0.2-0.6-0.5-0.9-1.1-0.9c-0.7,0-1.4,0.2-1.9,0.5
		c-0.2,0.1-0.8,0.6-1.7,1.4c-0.1,0.1-0.2,0.2-0.4,0.3c-0.4,0-0.6-0.3-0.6-0.9c0-0.4,0.4-0.9,1.2-1.4c1.1-0.8,2.1-1.8,3-3.2
		c-0.4,0.1-1.1,0.2-2,0.3c0,0-0.3,0.1-0.8,0.2c-0.4,0.1-0.6,0.2-0.8,0.2c-0.3,0-0.5-0.2-0.5-0.7c0-0.6,0.4-0.9,1.2-1
		c0.7,0,1.9-0.1,3.3-0.1c0.1-0.3,0.4-0.9,0.8-1.9c0.2-0.5,0.4-0.7,0.8-0.7c0.5,0,0.7,0.2,0.7,0.7c0,0.2-0.3,0.8-0.9,1.9
		c0.4,0,1.1,0,1.9,0c0.9,0,1.5,0,1.9,0c0.1,0,0.3,0,0.5,0c0.2,0,0.4-0.1,0.5-0.1c0.1,0,0.2,0.1,0.2,0.2c0,0.3-0.2,0.6-0.4,1
		c-0.3,0.4-0.5,0.6-0.8,0.6c-0.2,0-0.5-0.1-0.8-0.2c-0.3-0.1-0.5-0.1-0.8-0.2c-0.6-0.2-1.6-0.3-2.8-0.3c-0.6,1-1.3,1.9-1.9,2.6
		c0.5-0.1,1-0.1,1.4-0.1c1.1,0,1.8,0.8,1.8,2.3c0,0.2,0,0.3,0.1,0.4c1.8-1.3,3.3-2.4,4.4-3.3c0.4-0.3,0.7-0.4,0.9-0.4
		C306.5,5.4,306.7,5.6,306.7,6.1z"/>
	<path class="st0" d="M314.6,7.5c0.2,0,0.3,0.1,0.3,0.3c0,0.3-0.1,0.5-0.2,0.6L311,9.9c-0.5,0-0.7-0.2-0.7-0.7c0-0.6,0.2-1,0.6-1
		L314.6,7.5z M312.4,0.5c0.1,0,0.2,0.1,0.5,0.2c0.6,0.6,1.4,1.3,2.3,2c0.1,0.1,0.2,0.2,0.2,0.3c0,0.3-0.1,0.4-0.4,0.4
		c-0.1,0-0.2,0-0.4-0.1c-1.3-0.6-2.1-0.9-2.4-1.1c-0.4-0.3-0.6-0.6-0.6-1C311.6,0.7,311.9,0.5,312.4,0.5z M314.9,13
		c0.2,0,0.3,0.1,0.3,0.4c0,0.2-0.1,0.4-0.2,0.6c-1.3,1.8-2.1,2.6-2.3,2.6c-0.6,0-0.9-0.2-0.9-0.6c0-0.5,0.1-0.9,0.3-1
		C312.2,14.9,313.1,14.2,314.9,13z M325.4,0.7c0.3,0,0.4,0.1,0.4,0.4c0,0.3-0.1,0.5-0.3,0.6c-1.2,0.4-2.3,0.8-3.2,1.1l0,3.4
		c0.6,0,1.3,0,2.1,0.1c0.8,0,1.5,0.1,2.2,0.1c0.4,0,0.9-0.1,1.4-0.2c0.1,0,0.2,0.2,0.2,0.5c0,0.5-0.2,1-0.5,1.6
		c-0.2,0.4-0.4,0.6-0.6,0.6c-0.3,0-0.6-0.1-1-0.4c-0.6-0.4-1.3-0.6-2-0.8c-0.6-0.1-1.2-0.2-1.8-0.2l0,3.5h0c0.6,0,1.2,0,2,0.1
		c0.2,0,0.4-0.1,0.7-0.2c0.4,0,0.6,0.2,0.6,0.7c0,0,0,0.1,0,0.2c-0.1,0.2-0.1,0.5-0.1,0.9c0,0.6-0.1,1.2-0.1,1.8
		c0,0.4,0,0.9,0.1,1.6c0,0.5-0.2,0.8-0.6,0.8c-1.2-0.1-2.4-0.2-3.3-0.2c-1.2,0-1.9,0-2.2,0c-0.3,0-0.6,0.1-1,0.1
		c-0.4,0-0.6-0.2-0.6-0.7c0.1-0.9,0.2-1.7,0.2-2.4c0-0.6-0.1-1.4-0.2-2.4c0-0.4,0.2-0.6,0.6-0.6c0.2,0,0.4,0,0.6,0.1
		s0.5,0.1,0.9,0.1h1.3l0-3.5c-0.8,0-1.5,0.1-2.2,0.2c-0.5,0.1-1.3,0.4-2.3,1c-0.5,0-0.7-0.2-0.7-0.6c0-0.3,0.1-0.5,0.3-0.7
		c0.2-0.3,0.6-0.5,1-0.5c1.6-0.3,3-0.4,3.9-0.5l0-3c-0.3,0.1-0.7,0.2-1,0.2c-1,0.2-1.6,0.3-1.9,0.3c-0.4,0-0.7-0.2-1-0.5
		c-0.2-0.2-0.3-0.5-0.3-0.8c0-0.2,0.1-0.3,0.3-0.3c1.9,0,3.4-0.2,4.7-0.5c1.2-0.2,2.3-0.5,3.1-0.8C325.2,0.7,325.3,0.7,325.4,0.7z
		 M321.5,15.3c0.7,0,1.6,0,2.5,0.1c0.2,0,0.3-0.1,0.3-0.3v-3c0-0.2,0-0.3-0.1-0.3c-1.1,0-2.6-0.1-4.6-0.1c-0.3,0-0.4,0.2-0.4,0.5
		c0,1,0,1.9-0.1,2.8c0,0.3,0.2,0.4,0.5,0.4C320,15.3,320.7,15.3,321.5,15.3z"/>
	<path class="st0" d="M333.2,1c0.3,0,0.5,0.1,0.6,0.2l10,0.1c0.2,0,0.5-0.1,1-0.3c0.5,0,0.8,0.2,0.8,0.6c-0.3,1.8-0.4,4-0.4,6.6
		c0,1.8,0.1,4.4,0.2,7.8c0,0.6-0.2,0.9-0.7,0.9c-0.2,0-0.3-0.1-0.4-0.4c-0.1-0.3-0.1-0.7-0.1-1.2c0-1.4,0-2.6,0-3.8
		c-1.6,0-3.1,0-4.5,0l0,3.8c0,1-0.2,1.5-0.7,1.5c-0.4,0-0.6-0.5-0.6-1.5c0-1.4,0-2.7,0-3.8c-1.8,0-3.3,0.1-4.5,0.1c0,0-0.1,0-0.1,0
		c0,0.5-0.1,1-0.2,1.4c-0.2,1-0.6,1.9-1.1,2.6c-0.5,0.6-0.9,0.9-1.2,0.9c-0.3,0-0.6-0.2-0.9-0.5c-0.4-0.4-0.6-0.6-0.6-0.8
		c0-0.2,0.1-0.3,0.3-0.4c0.8-0.4,1.5-1.1,1.9-2.1c0.5-1,0.7-3.1,0.7-6.4c0-1.5-0.1-3.2-0.2-4.9C332.5,1.2,332.8,1,333.2,1z
		 M333.9,10.6c0,0,0.1,0,0.1,0h4.3c0-1.4,0-2.5,0-3.5c-1.7,0-3.2,0.1-4.4,0.1c0,0,0,0,0,0v2.3C333.9,9.9,333.9,10.3,333.9,10.6z
		 M333.9,6c0.1,0,0.1,0,0.2,0h4.3c0-1,0-2.1-0.1-3.3c0-0.1,0-0.2,0-0.3c-1.6,0-3,0-4.4,0V6z M339.6,2.4c0,0.1,0,0.2,0,0.4
		c0,1.2-0.1,2.3-0.1,3.3h4.5c0,0,0.1,0,0.1,0c0-1.2,0-2.4,0.1-3.4c0-0.2-0.2-0.3-0.6-0.3C342.3,2.4,340.9,2.4,339.6,2.4z M339.6,7.1
		l0,3.6h4.5c0-1.3,0-2.5,0-3.6c0,0,0,0-0.1,0C342.4,7,340.9,7,339.6,7.1z"/>
	<path class="st0" d="M362.5,11.3c0,0.5-0.1,1-0.3,1.6c-0.4,1-1.4,1.9-3,2.5c-1.3,0.5-2.6,0.8-3.8,0.8c-1.4,0-2.4-0.7-2.9-2.1
		c-0.3-0.9-0.4-3.2-0.4-6.8c0-3.6,0.1-5.6,0.2-5.8c0.2-0.2,0.4-0.4,0.7-0.4c0.5,0,0.7,0.4,0.7,1.1c0,0.2,0,0.9-0.1,2.1
		c-0.2,1.9-0.3,3.7-0.3,5.3c0,1.4,0,2.3,0.1,2.6c0.1,1.2,0.3,2,0.8,2.3c0.3,0.2,0.7,0.3,1.2,0.3c1,0,2.1-0.3,3.3-1
		c1.1-0.6,2.1-1.4,2.9-2.3c0.5-0.6,0.8-0.9,0.9-0.9C362.4,10.6,362.5,10.8,362.5,11.3z"/>
	<path class="st0" d="M376.7,3.9c0,0.2-0.1,0.4-0.2,0.7c-0.2,0.3-0.3,0.5-0.4,0.5c-0.9-0.2-1.7-0.3-2.4-0.3c-0.1,0-0.3,0-0.4,0
		c-0.2,0-0.3,0-0.4,0c-0.3,1.7-0.7,3.3-1.2,4.7c-1.4,4.1-2.5,6.1-3.2,6.1c-0.2,0-0.5-0.1-0.9-0.2c-0.4-0.2-0.6-0.4-0.6-0.6
		c0-0.1,0.3-0.5,0.8-1.2c0.9-1.1,1.8-2.5,2.5-4.1c0.8-1.6,1.3-3.2,1.5-4.6c-1.3,0.1-2.5,0.3-3.4,0.7c-0.3-0.1-0.5-0.2-0.5-0.6
		c0-0.3,0.1-0.5,0.2-0.7c0.1-0.2,0.8-0.3,1.9-0.5c0.7-0.1,1.4-0.2,2.1-0.2c0.1-0.6,0.2-1.4,0.2-2.1c0-0.6,0.2-0.9,0.6-0.9
		c0.4,0,0.6,0.2,0.6,0.6c0,0.2-0.1,1-0.4,2.3c1.8-0.1,2.9-0.2,3.2-0.2S376.7,3.6,376.7,3.9z M382.2,13.5c0,0.4-0.1,0.8-0.4,1.4
		c-0.3,0.5-0.7,0.9-1.3,1.1c-0.4,0.1-0.9,0.1-1.6,0.1c-3.5,0-5.2-1-5.2-3c0-0.3,0.1-0.6,0.2-0.9c0.1-0.4,0.3-0.6,0.5-0.6
		c0.2,0,0.3,0.1,0.3,0.4c0,0.1,0,0.3-0.1,0.5c0,0.2-0.1,0.4-0.1,0.5c0,0.9,0.7,1.4,2,1.4c2.1,0,3.7-0.4,4.9-1.1
		c0.3-0.2,0.5-0.3,0.5-0.3C382.1,13.1,382.2,13.2,382.2,13.5z M380.3,7.2c-0.1,0.2-0.5,0.7-1.3,1.4c-0.8,0.7-1.3,1.1-1.6,1.2
		c-0.1,0-0.2-0.1-0.2-0.3c0-0.2,0.2-0.5,0.5-0.9c0.2-0.2,0.5-0.5,0.7-0.8c-0.1,0-0.3,0-0.5,0c-0.9,0-1.7,0.1-2.3,0.2
		c-0.7,0.2-1.1,0.3-1.1,0.3c-0.3,0-0.4-0.1-0.4-0.4c0-0.3,0.1-0.5,0.2-0.7c0.3-0.4,1.6-0.6,3.9-0.6h0.8
		C379.7,6.6,380.2,6.8,380.3,7.2z"/>
	<path class="st0" d="M386.6,1.9h5.1c0.1,0,0.2,0.1,0.2,0.3c0,0.3-0.1,0.5-0.2,0.6c-0.2,0.2-0.4,0.3-0.7,0.3c-0.1,0-0.4,0-0.8-0.1
		c-0.2,0-0.4,0-0.7,0l0,3.3h2c0.1,0,0.2,0.1,0.2,0.3c0,0.2-0.1,0.5-0.2,0.6c-0.2,0.2-0.4,0.3-0.7,0.3c-0.1,0-0.4,0-0.8-0.1
		c-0.2,0-0.4,0-0.6,0l0,3.5c0.9-0.3,1.6-0.4,2.1-0.5c0.2,0,0.3,0.1,0.3,0.4c0,0.4-0.1,0.6-0.4,0.7c-1.9,0.6-3.7,1.4-5.3,2.3
		c-0.4,0-0.6-0.2-0.6-0.6c0-0.4,0.1-0.6,0.2-0.8c0.1-0.2,0.2-0.3,0.5-0.4c0.8-0.2,1.5-0.5,2.1-0.6l0-3.8c-0.7,0-1.2,0.1-1.5,0.2
		c-0.2,0.1-0.4,0.2-0.4,0.2c-0.4,0-0.6-0.2-0.6-0.6c0-0.2,0.1-0.4,0.3-0.6c0.2-0.1,0.4-0.2,0.7-0.2h1.5l0-3.3
		c-0.7,0-1.2,0.1-1.6,0.2c-0.2,0.1-0.4,0.2-0.5,0.2c-0.4,0-0.6-0.3-0.6-0.7c0-0.2,0.1-0.4,0.3-0.6C386,1.9,386.3,1.9,386.6,1.9z
		 M394.5,7.1c0.2,0,0.3,0,0.5,0c0.2,0,0.4,0,0.8,0h2.3c0.5,0,1.2,0,1.9,0.1c0.2,0,0.4,0,0.7-0.1c0.4,0,0.6,0.2,0.6,0.6
		c0,0,0,0,0,0.1c-0.1,0.1-0.1,0.3-0.1,0.6c0,0.4-0.1,0.7-0.1,1.1c0,0.2,0,0.4,0.1,0.8c0,0.4-0.2,0.6-0.5,0.6
		c-1.1-0.1-2.1-0.2-2.9-0.2c0,0.1,0.1,0.3,0.1,0.5c-0.1,0.6-0.1,1.2-0.1,1.7l0.1,2.8c0,0.9-0.2,1.3-0.6,1.3c-0.3,0-0.5-0.4-0.5-1.3
		c0.1-1.2,0.1-2.1,0.1-2.8c0-0.4,0-0.8,0-1.2c-0.9,1.2-1.9,2.2-3,3.2c-0.5,0.4-0.9,0.6-1.2,0.6c-0.3,0-0.6-0.1-0.8-0.4
		c-0.3-0.3-0.4-0.5-0.4-0.8c0-0.2,0.1-0.3,0.4-0.3c0.9-0.2,1.8-0.6,2.5-1.2c0.8-0.5,1.5-1.2,2.1-2c-0.4,0-0.6,0-0.8,0.1
		c-0.2,0-0.5,0.1-0.9,0.2c-0.3,0-0.5-0.2-0.5-0.6c0.1-0.6,0.2-1.1,0.2-1.5c0-0.3-0.1-0.7-0.2-1.2C393.9,7.3,394.1,7.1,394.5,7.1z
		 M393.2,5.4h9.3c0.1,0,0.2,0.1,0.2,0.3c0,0.2-0.1,0.5-0.2,0.6c-0.2,0.2-0.4,0.3-0.7,0.3c-0.2,0-0.8,0-1.7-0.1c-0.9,0-1.9,0-3,0
		c-1.7,0-2.9,0.1-3.6,0.2c-0.4,0.1-0.7,0.2-0.8,0.2c-0.3,0-0.5-0.2-0.6-0.6c0-0.2,0.1-0.4,0.3-0.6C392.7,5.4,392.9,5.4,393.2,5.4z
		 M393.3,0.5c0.2,0,0.4,0,0.5,0c0.2,0,0.4,0,0.8,0h3.6c0.8,0,1.8,0,2.9,0.1c0.2,0,0.4,0,0.6-0.1c0.4,0,0.6,0.2,0.6,0.6l0,0.1
		c-0.1,0.1-0.1,0.3-0.1,0.6c0,0.4-0.1,0.7-0.1,1.2c0,0.2,0,0.5,0.1,0.8c0,0.4-0.2,0.7-0.5,0.7c-1.6-0.1-3-0.2-4.3-0.2
		c-1.5,0-2.4,0-2.8,0.1c-0.3,0-0.8,0.1-1.2,0.2c-0.3,0-0.5-0.2-0.5-0.7c0.1-0.6,0.2-1.1,0.2-1.5c0-0.4-0.1-0.8-0.2-1.3
		C392.8,0.7,393,0.5,393.3,0.5z M395.8,3.4l0-1.8c-0.4,0-0.9,0-1.4,0c-0.2,0-0.3,0.1-0.3,0.4c0,0.4-0.1,0.7-0.2,1
		c0,0.3,0.1,0.5,0.4,0.5C394.8,3.4,395.3,3.4,395.8,3.4z M397.3,9.9c0.7,0,1.5,0,2.3,0.1c0.2,0,0.3-0.1,0.3-0.4V8.5
		c0-0.1,0-0.2-0.1-0.2c-1-0.1-2.4-0.1-4.3-0.1c-0.2,0-0.3,0.1-0.3,0.4c0,0.3-0.1,0.6-0.2,0.9c0,0.3,0.1,0.5,0.4,0.5
		C396,10,396.6,9.9,397.3,9.9z M397.3,3.4c0.3,0,0.7,0,1,0l-0.1-1.8c-0.5,0-1,0-1.6,0v1.8C396.9,3.4,397.1,3.4,397.3,3.4z
		 M402.1,10.4c0.4,0,0.6,0.2,0.6,0.7c0,0.3-0.1,0.5-0.4,0.7c-0.6,0.4-1.3,0.8-2.3,1.2c-0.1,0-0.2,0.1-0.2,0.1l0,0
		c1.5,1.2,2.5,1.9,2.8,2.1c0.2,0.1,0.5,0.1,0.9,0.2c0.2,0,0.3,0.1,0.3,0.3c0,0.3-0.2,0.5-0.6,0.8c-0.4,0.3-0.7,0.4-1.1,0.4
		c-0.3,0-0.5-0.1-0.7-0.3c-0.5-0.8-1.1-1.6-1.7-2.4c-0.3-0.3-0.5-0.6-0.7-0.7c0,0,0,0-0.1,0c-0.1,0-0.1,0-0.1,0
		c-0.3,0-0.5-0.2-0.5-0.5c0-0.2,0.1-0.4,0.3-0.5c1.4-0.8,2.4-1.4,3.2-2.1C402,10.5,402.1,10.4,402.1,10.4z M399.2,1.6v1.8
		c0.5,0,1,0,1.5,0.1c0.2,0,0.3-0.1,0.3-0.4V1.9c0-0.1-0.1-0.2-0.2-0.2C400.4,1.7,399.9,1.6,399.2,1.6z"/>
	<path class="st0" d="M407,4.8h1.6l0-3.6c0-0.6,0.2-0.8,0.6-0.8c0.5,0,0.8,0.3,0.8,0.8l-0.1,3.6h1.9c0.1,0,0.2,0.1,0.2,0.3
		c0,0.3-0.1,0.5-0.2,0.6c-0.2,0.2-0.4,0.3-0.7,0.3c-0.1,0-0.4,0-0.8-0.1c-0.2,0-0.3,0-0.5,0l-0.1,4.3c1-0.3,1.7-0.4,2.2-0.5
		c0.2,0,0.3,0.1,0.3,0.4c0,0.4-0.1,0.6-0.4,0.6c-1.8,0.6-3.5,1.3-5.1,2.1c-0.4,0-0.6-0.2-0.6-0.6c0-0.4,0.1-0.6,0.2-0.8
		c0.1-0.2,0.2-0.3,0.5-0.4c0.7-0.2,1.3-0.4,1.8-0.5l0-4.6c-0.7,0-1.2,0.1-1.6,0.2c-0.2,0.1-0.4,0.2-0.5,0.2c-0.4,0-0.6-0.2-0.6-0.6
		c0-0.2,0.1-0.5,0.3-0.6C406.4,4.8,406.7,4.8,407,4.8z M414.5,6.6c0.2,0,0.4,0,0.6,0c0.2,0,0.5,0,0.9,0h2.5c0.6,0,1.3,0,2.1,0.1
		c0.2,0,0.4,0,0.7-0.1c0.4,0,0.6,0.2,0.6,0.6c0,0,0,0.1-0.1,0.2c-0.1,0.2-0.1,0.5-0.1,0.9c0,0.6-0.1,1.2-0.1,1.8c0,0.4,0,1,0.1,1.7
		c0,0.4-0.2,0.7-0.6,0.7c-0.6-0.1-1.1-0.1-1.6-0.1c0,0,0,0.1,0,0.1c0,0.6,0,1.4-0.1,2.3c0,0.2,0,0.3,0.1,0.3c0.2,0,0.7,0.1,1.4,0.1
		c1.2,0,2.3-0.2,3.2-0.6c0.2,0,0.2,0.2,0.2,0.5c0,0.4-0.1,0.8-0.4,1.3c-0.3,0.5-0.5,0.8-0.8,0.8c-0.2,0-1.6-0.2-4.3-0.7
		c-0.4-0.1-0.6-0.4-0.6-0.8c0.1-0.9,0.1-1.5,0.1-2c0-0.4,0-0.9-0.1-1.4c-0.2,0-0.4,0-0.6,0c-0.3,0-0.5,0-0.7,0c0,0.1,0,0.1,0,0.2
		c0,0-0.1,0-0.1,0.1c-0.3,0.6-0.8,1.4-1.4,2.2c-0.7,0.8-1.5,1.3-2.2,1.7c-0.5,0.3-0.9,0.4-1.3,0.4c-0.2,0-0.4-0.1-0.7-0.3
		c-0.3-0.3-0.5-0.6-0.5-1c0-0.3,0.2-0.4,0.7-0.5c1-0.1,1.9-0.4,2.7-0.9c0.7-0.5,1.3-1.2,1.7-1.9c-0.2,0-0.4,0-0.5,0
		c-0.3,0-0.6,0.1-1,0.2c-0.4,0-0.6-0.2-0.6-0.7c0.1-0.9,0.2-1.7,0.2-2.4c0-0.7-0.1-1.4-0.2-2.4C414,6.8,414.2,6.6,414.5,6.6z
		 M417.8,0c0.5,0,0.7,0.3,0.7,0.8c-0.1,0.3-0.2,0.6-0.2,0.9h3.9c0.1,0,0.2,0.1,0.2,0.3c0,0.3-0.1,0.5-0.2,0.6
		c-0.2,0.2-0.4,0.3-0.7,0.3c-0.2,0-0.6,0-1.3-0.1L420,4.6h3.2c0.2,0,0.3,0.1,0.3,0.2c0,0.3-0.1,0.6-0.2,0.9
		c-0.2,0.2-0.4,0.4-0.7,0.4c-0.2,0-0.8-0.1-1.7-0.2c-1-0.1-2-0.1-3.1-0.1c-1.7,0-3,0.1-3.8,0.2C413.5,6,413.2,6,413.1,6
		c-0.3,0-0.5-0.2-0.6-0.6c0-0.2,0.1-0.4,0.3-0.6c0.2-0.1,0.4-0.2,0.7-0.2h2.4l-0.4-1.7c-0.3,0-0.6,0.1-0.9,0.1
		c-0.4,0.1-0.6,0.2-0.7,0.2c-0.3,0-0.5-0.2-0.6-0.6c0-0.2,0.1-0.4,0.3-0.6c0.2-0.1,0.4-0.2,0.7-0.2h2.9c0-0.3-0.1-0.6-0.2-0.8
		C417.1,0.3,417.3,0,417.8,0z M417.8,11.4c0.7,0,1.6,0,2.5,0.1c0.2,0,0.3-0.1,0.3-0.4V10c0,0-0.1,0-0.1,0c-2.2,0-3.9,0.1-5.2,0.2
		c0,0-0.1,0-0.1,0c0,0.3,0,0.6-0.1,0.8c0,0.3,0.2,0.5,0.5,0.5C416.3,11.5,417,11.4,417.8,11.4z M415.3,9.1c0,0,0.1,0,0.1,0h5
		c0.1,0,0.1,0,0.2,0V8c0-0.1-0.1-0.2-0.2-0.2c-1.1,0-2.6-0.1-4.7-0.1c-0.3,0-0.4,0.1-0.4,0.4C415.3,8.4,415.3,8.8,415.3,9.1z
		 M416.8,4.6h2.3l0.1-1.8c-0.5,0-1,0-1.5,0c-0.4,0-0.8,0-1.2,0L416.8,4.6z"/>
	<path class="st0" d="M439.4,1.8c0,0.5-0.6,1.4-1.7,2.6c-0.9,1-1.7,1.7-2.4,2.2c0,1.8,0,3.6,0,5.2c0,0.3,0,0.9,0.1,1.8
		c0.1,0.8,0.1,1.4,0.1,1.8c0,0.8-0.2,1.3-0.5,1.3c-0.6,0-0.8-0.4-0.8-1.3c0-3.7,0-6.4,0.1-8c-2.5,1.5-4.5,2.2-5.9,2.2
		c-0.4,0-0.7-0.2-1.1-0.6c-0.4-0.4-0.6-0.9-0.6-1.3c0-0.2,0.2-0.3,0.7-0.4c0.2,0,0.6,0,1.1,0c2.4-0.2,4.4-0.8,6.1-2
		c1.6-1.1,2.8-2.2,3.4-3.3c0.4-0.6,0.7-0.9,1-0.9C439.2,1.1,439.4,1.3,439.4,1.8z"/>
	<path class="st0" d="M458.5,12.9c-0.2,0.6-0.5,0.9-0.8,0.9c-0.3,0-0.6-0.2-1-0.6l-2.3-2.3c-1.3-1.3-2.3-2.4-3-3.1
		c-0.3-0.3-0.7-0.8-1.3-1.4c-0.6-0.6-1-0.9-1.2-0.9c-0.2,0-0.9,0.9-2.3,2.6c-1.4,1.7-2.3,2.5-2.7,2.5c-0.2,0-0.5-0.1-0.7-0.3
		c-0.2-0.2-0.3-0.4-0.3-0.7c0-0.2,0.2-0.5,0.6-0.8c1-0.8,2.3-2,3.8-3.6c0.7-0.8,1.3-1.2,1.7-1.2c0.3,0,0.8,0.3,1.3,0.8
		c0.9,0.9,2.2,2.2,4,3.9l3.5,2.8C458.2,12,458.5,12.4,458.5,12.9z M455.3,4c0,0.2-0.2,0.4-0.4,0.6c-0.3,0.2-0.5,0.3-0.6,0.3
		c-0.2,0-0.5-0.4-0.9-1.2c-0.4-0.8-0.6-1.3-0.6-1.7c0-0.2,0.1-0.3,0.2-0.3c0.1,0,0.2,0.1,0.3,0.3c0.6,0.8,1.1,1.4,1.7,1.6
		C455.1,3.8,455.2,3.9,455.3,4z M457.8,3c-0.1,0.2-0.2,0.4-0.4,0.7c-0.2,0.2-0.4,0.4-0.6,0.4c-0.3-0.1-0.7-0.5-1.1-1.1
		c-0.5-0.7-0.7-1.2-0.7-1.5c0-0.1,0-0.2,0.1-0.2c0,0,0.3,0.2,0.7,0.5c0.4,0.4,0.7,0.6,0.8,0.6C457,2.6,457.4,2.8,457.8,3z"/>
	<path class="st0" d="M467.5,6c0,0.3-0.1,0.4-0.3,0.4c-0.4,0-1.2-0.3-2.2-0.9c-1.1-0.6-1.7-1.1-1.7-1.6c0-0.3,0.1-0.5,0.3-0.7
		c0.2-0.2,0.4-0.3,0.6-0.3c0.3,0,0.9,0.4,1.8,1.3C467,5.2,467.5,5.8,467.5,6z M475.4,4.8c0,0.5-0.5,1.5-1.5,3
		c-2,3.2-4.6,5.6-7.8,7.1c-1,0.5-1.6,0.7-2,0.7c-0.6,0-0.9-0.3-0.9-1c0-0.6,0.4-1,1.1-1.2c0.8-0.2,1.9-0.7,3.2-1.3
		c1.6-0.8,3-2,4.3-3.4c1.3-1.4,2.1-2.7,2.6-3.8c0.2-0.4,0.3-0.5,0.5-0.5C475.3,4.2,475.4,4.4,475.4,4.8z"/>
	<path class="st0" d="M491.1,10c0,0.3-0.3,0.7-1,1.2c-0.7,0.5-1.1,0.8-1.4,0.8c-0.2,0-0.6-0.3-1-1c-1.2-1.7-2.6-3-4.3-3.9
		c0,0.9,0,2.3,0,4.2c0,1.8,0.1,3.2,0.1,4.2c0,0.7-0.3,1-0.8,1c-0.4,0-0.6-0.4-0.6-1.2c0-0.7,0-1.8,0-3.2c0-1.4,0.1-2.5,0.1-3.2V4.6
		c0-0.3,0-0.8-0.1-1.4c0-0.7,0-1.1,0-1.5c0-0.6,0.2-0.9,0.7-0.9c0.5,0,0.7,0.3,0.7,0.9c0,0.5,0,1.2-0.1,2.1c0,0.9-0.1,1.7-0.1,2.1
		c1.3,0.7,2.7,1.5,4.2,2.5c1.3,0.8,2.2,1.2,3,1.3C490.9,9.8,491.1,9.9,491.1,10z"/>
	<path class="st0" d="M502.8,16.1c0,0.3-0.3,0.6-0.8,1c-0.5,0.4-0.9,0.6-1.1,0.6c-0.2,0-0.5-0.3-0.9-0.8c-0.7-1.2-1.4-2.3-2.1-3.1
		c-0.6-0.8-0.9-1.3-0.9-1.5c0-0.3,0.1-0.4,0.4-0.4c0.2,0,1.3,0.9,3.3,2.8c0.4,0.4,1,0.8,1.8,1.2C502.7,15.8,502.8,15.9,502.8,16.1z"
		/>
	<path class="st0" d="M22.6,30c0.6,0,0.9,0.3,0.9,0.8c0,0.1,0,0.3-0.1,0.5c-0.4,0.8-0.6,1.3-0.8,1.6h1.2c1,0,2.2,0,3.7,0.1
		c0.2,0,0.6-0.1,0.9-0.2c0.5,0,0.7,0.3,0.7,0.8c0,0,0,0.2-0.1,0.4c-0.1,0.4-0.1,1.1-0.2,2.2c-0.1,1.4-0.1,2.9-0.1,4.5
		c0,1.2,0,2.8,0.1,4.8c0,0.6-0.2,0.8-0.7,0.8c-2.1-0.1-4-0.2-5.7-0.2c-1.9,0-3.1,0-3.6,0.1c-0.4,0-0.9,0.1-1.6,0.2
		c-0.4,0-0.6-0.3-0.6-0.8c0.1-2.2,0.2-4.1,0.2-5.8c0-1.8-0.1-3.9-0.2-6.5c0-0.5,0.2-0.8,0.7-0.8c0.2,0,0.5,0,0.7,0.1
		c0.2,0.1,0.6,0.1,1.1,0.1h2.1c0.3-0.7,0.5-1.4,0.5-2.2C21.8,30.3,22,30,22.6,30z M22.5,45.1c1.4,0,2.9,0,4.6,0.1
		c0.3,0,0.4-0.1,0.4-0.4c0-1,0-1.9,0-2.8c-3.9,0-7,0.1-9.2,0.2c0,0.8-0.1,1.6-0.1,2.4c0,0.4,0.2,0.6,0.6,0.6
		C19.8,45.1,21.1,45.1,22.5,45.1z M18.3,41c0,0,0.1,0,0.2,0h9c0-1.1,0-2,0-2.9h0c-3.9,0-6.9,0.1-9.1,0.2h0
		C18.3,39.2,18.3,40.1,18.3,41z M18.4,37c0.1,0,0.2,0,0.2,0h8.9c0,0,0,0,0,0c0-1,0-1.8,0-2.4c0-0.2-0.1-0.3-0.4-0.3
		c-1.9-0.1-4.7-0.1-8.3-0.1c-0.3,0-0.5,0.2-0.5,0.5C18.4,35.5,18.4,36.3,18.4,37z"/>
	<path class="st0" d="M39.3,30.1c0.6,0,0.8,0.3,0.8,0.8c-0.1,0.8-0.2,1.4-0.2,2c0.7,0,1.3,0.1,1.9,0.1C42,33,42.2,33,42.4,33
		c0.4,0,0.7,0.3,0.7,0.8c0,0.1-0.1,0.2-0.2,0.3c-0.1,0.2-0.4,0.7-0.9,1.4c-0.5,0.8-1,1.4-1.6,2.1c0.2,0.1,0.6,0.4,1.3,0.9
		c0.9,0.6,1.3,1.1,1.3,1.3c0,0.4-0.2,0.6-0.7,0.6c-0.1,0-0.2-0.1-0.4-0.2c-0.8-0.6-1.4-1-1.8-1.2c-0.1,0.8-0.1,1.5-0.1,2.2l0.1,4.5
		c0,1-0.3,1.5-0.8,1.5c-0.4,0-0.6-0.5-0.6-1.5c0.1-1.9,0.1-3.4,0.1-4.5c0-0.6,0-1.2-0.1-1.9c-0.6,0.6-1.2,1-1.7,1.3
		C36.4,40.8,36,41,35.7,41c-0.3,0-0.6-0.1-0.9-0.4c-0.4-0.3-0.6-0.6-0.6-0.9c0-0.2,0.2-0.3,0.5-0.4c0.4,0,0.9-0.1,1.6-0.3
		c1-0.4,1.8-0.9,2.5-1.5c0.8-0.7,1.6-1.6,2.4-2.8c0.1-0.1,0.2-0.2,0.2-0.3c0-0.2-0.1-0.3-0.2-0.3c-0.3-0.1-0.5-0.1-0.8-0.1
		c-2,0-3.3,0.1-3.9,0.2c-0.4,0.1-0.6,0.1-0.8,0.1c-0.4,0-0.6-0.2-0.6-0.6c0-0.3,0.2-0.6,0.6-0.7c0.3-0.1,1-0.2,2.3-0.2
		c0.3,0,0.5,0,0.8,0c0-0.7-0.1-1.3-0.3-1.9C38.5,30.4,38.7,30.1,39.3,30.1z M44.9,36.9H48l-0.1-4.7c0-0.5,0.2-0.7,0.7-0.7
		c0.6,0,0.8,0.2,0.8,0.7l-0.1,4.7h3.8c0.2,0,0.4,0.1,0.4,0.3c0,0.3-0.1,0.6-0.3,0.8c-0.2,0.2-0.5,0.3-0.8,0.3
		c-0.2,0-0.7-0.1-1.4-0.2c-0.5,0-1.1,0-1.7,0L49.4,43c0.8,0,1.7,0.1,2.7,0.2c0.9,0.1,1.8,0.1,2.7,0.1c0.4,0,0.7,0,1.1-0.1
		c0.1,0,0.1,0.1,0.1,0.3c0,0.4-0.1,0.9-0.4,1.3c-0.3,0.5-0.5,0.7-0.8,0.7s-0.5-0.1-0.8-0.3c-1-0.5-2-0.9-2.9-1.1
		c-0.7-0.1-1.6-0.2-2.5-0.2c-1.2,0-2.2,0.1-3,0.3c-0.9,0.2-1.8,0.6-2.7,1c-0.3,0.1-0.5,0.2-0.6,0.2c-0.4,0-0.6-0.3-0.6-0.7
		c0-0.3,0.1-0.5,0.4-0.7c0.2-0.2,0.5-0.3,0.8-0.4c2.4-0.4,4.1-0.7,5.3-0.7L48,38.1c-1.3,0-2.2,0.1-2.8,0.2c-0.4,0.1-0.7,0.2-0.8,0.2
		c-0.4,0-0.7-0.3-0.7-0.7c0-0.2,0.1-0.4,0.4-0.6C44.3,37,44.6,36.9,44.9,36.9z"/>
	<path class="st0" d="M59.2,43.3c0.4,0.1,0.6,0.1,0.8,0.1c0.5,0,1.1-0.2,1.8-0.6c0.1,0,0.2,0.1,0.2,0.3c0,0.2-0.2,0.6-0.7,1.2
		c-0.5,0.6-0.9,0.9-1.2,0.9c-0.3,0-0.5-0.1-0.7-0.4c-0.2-0.3-0.4-0.7-0.4-1.1C59,43.4,59.1,43.3,59.2,43.3z M64.2,30.5
		c0.4,0,0.6,0.2,0.6,0.7c0,0.3-0.1,0.7-0.4,1c-0.8,1.1-1.6,2-2.6,2.7c-0.2,0.1-0.3,0.3-0.3,0.5c0,0,0.1,0.1,0.4,0.3
		c0.3,0.1,0.6,0.4,0.9,0.7c0,0,0.1,0.1,0.1,0.1c0.8-0.7,1.5-1.5,2.2-2.2c0.1-0.1,0.3-0.1,0.5-0.1c0.1,0,0.3,0.1,0.4,0.2
		c0.1,0.1,0.2,0.3,0.2,0.5c0,0.2-0.1,0.4-0.2,0.5c-1.3,1.3-2.6,2.7-3.9,4.1c-0.1,0.1-0.1,0.2-0.1,0.4c0,0,0,0.1,0.1,0.1
		c0.2,0,0.6,0,1.3,0c0.9,0,1.7,0,2.3-0.1c0.1,0,0.2-0.1,0.2-0.3c-0.2-0.5-0.4-0.9-0.6-1.3C65.1,38.1,65,38,65,38
		c0-0.1,0.1-0.2,0.2-0.4c0.1-0.1,0.3-0.2,0.5-0.2c0.1,0,0.2,0.1,0.3,0.3c0.3,0.5,0.6,1.1,1,1.8c0.2,0.3,0.3,0.6,0.3,0.8
		c0,0.5-0.2,0.7-0.7,0.7C66.3,41,66,41,65.7,41c-0.4,0-0.9,0.1-1.3,0.1c0,0.1,0,0.3,0,0.4c-0.1,0.6-0.1,1.1-0.1,1.6l0.1,2.4
		c0,1-0.3,1.5-0.8,1.5c-0.4,0-0.7-0.5-0.7-1.5c0.1-1,0.1-1.9,0.1-2.4c0-0.5,0-1-0.1-1.6c0-0.1,0-0.3,0-0.4c-0.5,0-0.9,0-1.4-0.1
		c-0.4,0-0.9,0-1.3,0.1c-0.6,0-0.9-0.2-0.9-0.6c0-0.2,0.1-0.5,0.3-0.7c0.9-0.8,1.7-1.7,2.5-2.5c0,0-0.1,0-0.1,0
		c-1-0.6-1.7-0.9-2.2-1.1c-0.3-0.1-0.4-0.2-0.4-0.5c0-0.2,0.1-0.4,0.4-0.6c0.4-0.3,0.9-0.6,1.3-1.1c0.9-0.8,1.8-1.9,2.6-3.2
		C63.8,30.6,64,30.5,64.2,30.5z M65.6,42.5c0.1,0,0.2,0,0.3,0.1c0.3,0.4,0.7,0.7,1.1,0.8c0.3,0,0.4,0.1,0.4,0.3
		c0,0.2-0.1,0.4-0.3,0.6c-0.2,0.2-0.4,0.2-0.7,0.2c-0.2,0-0.4-0.3-0.7-0.8c-0.2-0.5-0.4-0.8-0.4-1C65.3,42.6,65.4,42.5,65.6,42.5z
		 M71.1,33.4l4.6,0.1c0,0,0,0,0,0c0-0.6,0.1-1,0.1-1.4c0-0.2-0.1-0.3-0.3-0.3c-1.5,0-3.2,0-5.4,0.1c-0.4,0-0.6-0.2-0.6-0.5
		c0-0.3,0.1-0.5,0.4-0.7c0.2-0.1,0.4-0.1,0.6-0.1l5,0.1c0.5-0.1,0.8-0.1,0.9-0.1c0.6,0,0.9,0.3,0.9,0.8c-0.2,0.7-0.3,1.4-0.4,2.2
		c0,0.4,0,1.3,0,2.5c0,0.1,0,0.2,0,0.3c0.3,0,0.6,0,1,0c0.3,0,0.6,0,0.9,0c0.2,0,0.5,0,1-0.1c0.4-0.1,0.6-0.2,0.7-0.2
		c0.2,0,0.3,0.1,0.3,0.2c0,0.4-0.2,0.8-0.6,1.2c-0.4,0.5-0.7,0.7-1.1,0.7c-0.2,0-0.6-0.1-1.2-0.3c-1-0.3-2.2-0.5-3.5-0.6
		c0,0.1,0,0.2,0,0.3c-0.1,1-0.1,1.9-0.1,2.7l0.1,5.1c0,1-0.3,1.5-0.8,1.5c-0.4,0-0.7-0.5-0.7-1.5c0.1-2.2,0.1-3.9,0.1-5.1
		c0-0.8,0-1.7-0.1-2.7c0-0.1,0-0.2,0-0.3c-1.9,0-3.2,0.1-4,0.4c-0.4,0.1-0.7,0.2-1,0.2c-0.4,0-0.6-0.2-0.6-0.6
		c0-0.2,0.1-0.5,0.3-0.7c0.2-0.2,0.3-0.3,0.6-0.3c0.2,0,0.3,0,0.5,0.1c1.8-0.2,3.4-0.3,4.8-0.3c0.6,0,1.3,0,2.2,0c0-0.2,0-0.4,0-0.7
		c0-0.4,0-0.8,0-1.2c-2,0-3.6,0.1-4.8,0.2c-0.6,0-0.8-0.2-0.8-0.6C70.1,33.6,70.4,33.4,71.1,33.4z M71.3,43.5c0.3,0,0.4,0.1,0.4,0.4
		c0,0.2-0.1,0.4-0.2,0.6c-1.4,1.2-2.2,1.9-2.4,1.9c-0.6,0-0.9-0.2-0.9-0.6c0-0.5,0.1-0.8,0.4-1C68.5,44.7,69.5,44.3,71.3,43.5z
		 M69.5,39.3c0.1,0,0.5,0.3,1.2,0.8c0.7,0.6,1.1,1,1.1,1.2c0,0.4-0.2,0.6-0.6,0.6c-0.1,0-0.2,0-0.3-0.1c-0.8-0.6-1.4-1-1.8-1.1
		c-0.4-0.1-0.5-0.3-0.5-0.5C68.5,39.6,68.8,39.3,69.5,39.3z M78.4,39.4c0.4,0,0.6,0.3,0.6,0.8c0,0.3-0.1,0.5-0.3,0.6
		c-1.5,0.7-2.3,1-2.4,1c-0.4,0-0.6-0.1-0.6-0.3c0-0.2,0.1-0.3,0.2-0.5l2-1.6C78.2,39.4,78.3,39.4,78.4,39.4z M76.2,43.4
		c0,0,0.1,0,0.1,0c0.7,0.4,1.3,0.7,1.8,0.9c0.3,0.1,0.7,0.2,1.2,0.2c0.2,0,0.3,0.1,0.3,0.3c0,0.3-0.2,0.5-0.5,0.8
		c-0.6,0.4-1.1,0.6-1.4,0.6c-0.1,0-0.2-0.1-0.3-0.2c-0.2-0.2-0.6-0.9-1.4-2c-0.1-0.1-0.1-0.2-0.1-0.2C75.9,43.5,76,43.4,76.2,43.4z"
		/>
	<path class="st0" d="M85,35.3h2l0-3.9c0-0.6,0.2-0.8,0.7-0.8c0.6,0,0.9,0.3,0.9,0.8l-0.1,3.9H91c0.2,0,0.3,0.1,0.3,0.3
		c0,0.2-0.1,0.5-0.3,0.6c-0.2,0.2-0.5,0.3-0.8,0.3c-0.1,0-0.5,0-1-0.1c-0.2,0-0.5,0-0.7,0L88.4,41c1.1-0.2,2-0.4,2.6-0.5
		c0.3,0,0.4,0.1,0.4,0.4c0,0.4-0.2,0.6-0.5,0.7c-2.3,0.6-4.4,1.3-6.3,2.1c-0.5,0-0.7-0.2-0.7-0.6c0-0.4,0.1-0.6,0.2-0.8
		c0.1-0.2,0.3-0.3,0.6-0.4c0.9-0.2,1.7-0.4,2.4-0.6l0-4.9c-0.9,0-1.5,0.1-1.9,0.2c-0.3,0.1-0.5,0.2-0.6,0.2c-0.4,0-0.7-0.2-0.7-0.6
		c0-0.2,0.1-0.4,0.4-0.6C84.3,35.3,84.6,35.3,85,35.3z M103.1,34.8c0.5,0,0.7,0.3,0.7,0.8c0,0.1-0.1,0.3-0.2,0.5
		c-0.3,0.7-0.8,1.9-1.5,3.8c-0.1,0.4-0.3,0.6-0.7,0.6c-0.4,0-0.6-0.2-0.6-0.5c0.1-0.7,0.5-1.8,1-3.4c0-0.1-0.1-0.2-0.4-0.2
		c-0.2,0-0.6,0-1.1,0.1c-0.6,0.1-1.2,0.2-1.7,0.3l0,3.7c0,0.9-0.2,1.4-0.7,1.4c-0.4,0-0.6-0.5-0.6-1.4c0-1.3,0-2.4,0-3.4
		c-0.9,0.2-1.7,0.4-2.4,0.6c0,1.7-0.1,3.7-0.1,5.8c0,0.4,0.2,0.6,0.6,0.7c0.8,0.1,2.7,0.1,5.9,0.1c1.5,0,2.8-0.2,4-0.6
		c0.2,0,0.3,0.2,0.3,0.5c0,0.4-0.1,0.9-0.4,1.4c-0.3,0.6-0.6,0.9-0.8,0.9c-0.4,0-3.6-0.3-9.6-0.9c-0.9-0.1-1.4-0.5-1.4-1.1
		c0.1-2.6,0.2-4.6,0.2-6c0-0.1,0-0.3,0-0.4c-0.5,0.2-1,0.4-1.6,0.6c-0.6,0-0.8-0.2-0.8-0.6c0-0.3,0.1-0.5,0.3-0.8
		c0.1-0.2,0.4-0.3,0.7-0.3c0.5-0.1,1-0.2,1.5-0.4c0-1,0-2.1-0.1-3.2c0-0.4,0.2-0.6,0.7-0.6c0.6,0,0.8,0.3,0.8,0.8c0,0.8,0,1.7,0,2.7
		c0.9-0.2,1.7-0.4,2.4-0.5c0-0.6,0-1.1,0-1.6c0-0.9,0-2-0.1-3.1c0-0.6,0.2-0.8,0.7-0.8c0.4,0,0.6,0.3,0.6,0.8
		c-0.1,1.2-0.1,2.2-0.1,3.1l0,1.4c1-0.2,1.9-0.3,2.7-0.4c0.5-0.1,0.8-0.2,1.1-0.3C102.6,34.8,102.8,34.8,103.1,34.8z"/>
	<path class="st0" d="M125.2,38.5c0,2.8-1.5,4.9-4.6,6.3c-1.2,0.6-2.2,0.9-2.9,0.9c-0.4,0-0.8-0.2-1.2-0.5c-0.4-0.3-0.7-0.7-0.7-1.1
		c0-0.1,0.2-0.3,0.6-0.3c0.3,0,0.7-0.1,1.2-0.2c1.4-0.2,2.6-0.6,3.5-1.1c0.8-0.5,1.5-1.1,2-1.8c0.6-0.8,0.8-1.7,0.8-2.6
		c0-0.7-0.2-1.5-0.7-2.2c-0.9-1.6-2.5-2.4-4.8-2.4c-0.1,0-0.2,0-0.4,0c-0.2,0-0.3,0-0.3,0c-0.9,4.1-2.1,7.2-3.6,9
		c-0.9,1.1-1.6,1.6-2.2,1.6c-0.8,0-1.5-0.6-2.1-1.9c-0.4-1-0.6-2-0.6-3c0-1.5,0.5-2.9,1.5-4.1c1.6-1.9,4-2.8,7.2-2.8
		c2,0,3.7,0.5,5.1,1.6C124.4,35,125.2,36.5,125.2,38.5z M116.1,33.6c-2.1,0.4-3.6,1.1-4.5,2.2c-0.9,1.1-1.4,2.2-1.4,3.2
		c0,0.6,0.1,1.2,0.4,2c0.3,0.9,0.7,1.3,1.2,1.3c0.4,0,0.9-0.3,1.4-1C114.5,39.7,115.4,37.1,116.1,33.6z"/>
	<path class="st0" d="M135.5,31.7c0.4,0,0.6,0.2,0.6,0.5c0,0.2-0.1,0.4-0.2,0.6c-0.3,0.6-0.6,1.2-1,1.7h3.9l0-3
		c0-0.6,0.3-0.8,0.8-0.8c0.6,0,0.9,0.3,0.9,0.8l0,3h5.6c0.2,0,0.4,0.1,0.4,0.3c0,0.3-0.1,0.6-0.3,0.8c-0.2,0.2-0.5,0.3-0.8,0.3
		c-0.3,0-0.9-0.1-2-0.2c-0.9,0-1.8-0.1-2.8-0.1l0,3.5h4.8c0.2,0,0.4,0.1,0.4,0.3c0,0.3-0.1,0.6-0.3,0.8c-0.2,0.2-0.5,0.3-0.8,0.3
		c-0.3,0-0.9-0.1-1.8-0.2c-0.7,0-1.4-0.1-2.2-0.1l-0.1,3.8c1.3,0,2.8,0.2,4.3,0.4c1.5,0.2,2.9,0.3,4.2,0.3c0.4,0,0.8,0,1.1-0.1
		c0.1,0,0.1,0.1,0.1,0.3c0,0.4-0.1,0.9-0.3,1.3c-0.3,0.5-0.5,0.7-0.8,0.7c-0.4,0-0.8-0.1-1.2-0.3c-1.6-0.6-3.1-1-4.4-1.2
		c-1.1-0.1-2.3-0.2-3.9-0.2c-1.8,0-3.3,0.1-4.6,0.3c-1.4,0.3-2.8,0.7-4.1,1.2c-0.4,0.2-0.7,0.2-1,0.2c-0.5,0-0.7-0.3-0.7-0.8
		c0-0.3,0.1-0.5,0.4-0.7c0.2-0.2,0.5-0.3,0.8-0.4c4-0.6,6.9-1,8.7-1l-0.1-3.8c-1.6,0-2.8,0.1-3.6,0.3c-0.5,0.1-0.8,0.2-0.9,0.2
		c-0.5,0-0.8-0.3-0.8-0.8c0-0.2,0.2-0.4,0.4-0.6c0.2-0.1,0.5-0.2,0.9-0.2h4.1l0-3.5c-1.6,0-2.8,0.1-3.6,0.2c-0.5,0.1-0.9,0.2-1,0.2
		c-0.2,0-0.3,0-0.4-0.1c-0.3,0.4-0.6,0.7-0.8,1.1c-0.4,0.5-0.8,0.7-1.1,0.7c-0.3,0-0.7-0.1-1.1-0.4c-0.4-0.3-0.5-0.6-0.5-0.9
		c0-0.2,0.2-0.4,0.5-0.4c0.8-0.3,1.6-0.8,2.3-1.4c0.8-0.7,1.4-1.6,2.1-2.8C135.2,31.7,135.4,31.7,135.5,31.7z"/>
	<path class="st0" d="M153.6,31.9c0.6,0,0.9,0.2,0.9,0.7c0,0.6-0.1,1.2-0.2,2.1c0,0.2,0.1,0.3,0.4,0.3c0.6,0,1.4-0.1,2.2-0.1
		c0-1.1,0-2.4-0.1-3.7c0-0.6,0.2-0.9,0.7-0.9c0.5,0,0.7,0.3,0.7,0.9c0,1.4-0.1,2.6-0.1,3.8c0.5,0,1.1,0,1.9,0.1
		c0.2,0,0.3,0.1,0.3,0.4c0,0.3-0.1,0.5-0.3,0.6c-0.2,0.1-0.4,0.1-0.6,0.1c-0.5,0-0.9-0.1-1.2-0.1l0,3.3c0.7-0.2,1.3-0.3,1.8-0.4
		c0.3,0,0.4,0.1,0.4,0.4c0,0.4-0.2,0.6-0.5,0.6c-0.6,0.2-1.1,0.4-1.7,0.6l0,5.1c0,1-0.3,1.5-0.8,1.5c-0.4,0-0.6-0.5-0.6-1.5
		c0-1.7,0-3.2,0-4.6c-1.3,0.5-2.5,1.1-3.6,1.7c-0.5,0-0.7-0.2-0.7-0.6c0-0.4,0.1-0.6,0.2-0.8c0.1-0.2,0.3-0.4,0.6-0.5
		c1.4-0.4,2.6-0.8,3.6-1.1c0-1.4,0-2.6,0-3.7c-0.8,0-1.5,0.1-2.3,0.2c-0.5,0-0.9,0.1-1.2,0.3c-0.2,0.1-0.3,0.1-0.3,0.1
		c-0.4,0-0.6-0.2-0.6-0.5c0-0.1,0.1-0.4,0.4-0.7c0.1-0.4,0.2-0.8,0.2-1.2c0-0.2,0-0.5,0-0.9c-0.1-0.4-0.1-0.7-0.1-0.8
		C152.9,32.1,153.1,31.9,153.6,31.9z M165.1,30.6c0.4,0,0.6,0.2,0.6,0.5c0,0.2-0.1,0.4-0.2,0.6c-0.3,0.6-0.6,1.2-0.9,1.8
		c0.6,0,1.4,0,2.5,0h4.6c0.1,0,0.4-0.1,0.8-0.2c0.6,0,0.8,0.3,0.8,0.8c-0.4,2.1-0.6,4.1-0.7,6.2c-0.2,2.8-0.6,4.7-1.4,5.6
		c-0.6,0.8-1.4,1.2-2.3,1.2c-0.4,0-0.8-0.2-1-0.5c-0.2-0.3-0.3-0.6-0.3-0.9s0.1-0.4,0.4-0.5c1.3-0.1,2.1-0.5,2.4-1.1
		c0.4-0.6,0.8-2.5,1.1-5.6c0.1-1.9,0.2-3.1,0.2-3.5c0-0.2-0.1-0.4-0.3-0.4h-1.6c0,0,0,0.1,0,0.1l0,0.2c-0.1,0.5-0.3,1.4-0.6,2.5
		c-0.5,1.9-1.2,3.6-2.1,5.1c-0.5,1-1.1,1.8-1.8,2.5c-0.9,0.8-1.5,1.2-1.8,1.2c-0.3,0-0.6-0.2-1-0.6c-0.3-0.3-0.5-0.6-0.5-0.8
		c0-0.2,0.2-0.3,0.6-0.4c0.7-0.2,1.5-0.7,2.2-1.5c0.8-0.7,1.7-2,2.5-3.8c0.6-1.4,1-2.9,1.1-4.4c0,0,0-0.1,0-0.1H168
		c-0.4,0-0.8,0-1.2,0l0,0.1c-0.1,0.4-0.3,0.9-0.5,1.7c-0.4,1.3-1,2.4-1.7,3.5c-0.4,0.7-0.9,1.2-1.5,1.7c-0.7,0.5-1.2,0.8-1.5,0.8
		c-0.3,0-0.6-0.2-0.9-0.5c-0.3-0.3-0.4-0.6-0.4-0.8c0-0.2,0.2-0.3,0.6-0.4c0.6-0.1,1.2-0.4,1.8-1c0.7-0.4,1.3-1.2,2-2.4
		c0.4-0.9,0.8-1.7,0.9-2.6c-0.2,0-0.4,0-0.6,0.1c-0.6,0.1-0.9,0.2-1.1,0.2c-0.1,0-0.2,0-0.2,0c-0.1,0.2-0.3,0.4-0.4,0.6
		c-0.3,0.4-0.6,0.7-0.8,0.7c-0.3,0-0.6-0.1-1-0.4s-0.5-0.5-0.5-0.8c0-0.2,0.2-0.2,0.5-0.3c0.7-0.3,1.3-0.7,1.8-1.3
		c0.6-0.6,1.1-1.4,1.7-2.5C164.9,30.6,165,30.6,165.1,30.6z"/>
	<path class="st0" d="M191.1,36.1c0.4,0,0.6,0.2,0.6,0.6c0,0.2-0.1,0.3-0.3,0.5c0,0-0.1,0.1-0.1,0.1c0.8,0.6,1.5,1.2,2.3,1.8
		c0.2,0,0.5,0.1,0.6,0.3c0.2,0.2,0.4,0.4,0.4,0.7c0,0.3-0.4,0.6-1.1,1c-3.7,2.4-7.2,4.2-10.5,5.3c-1.3,0.5-2.8,0.8-4.4,0.8
		c-0.4,0-0.7-0.1-1-0.4c-0.6-0.6-0.8-1.1-0.8-1.7c0-0.4,0.1-0.6,0.4-0.6c0.2,0,0.4,0.1,0.6,0.2c0.4,0.2,0.8,0.2,1.4,0.2
		c1.8,0,3.4-0.2,4.7-0.5c1-0.3,2-0.6,3.1-1.1c-0.6-0.6-1-1-1.3-1.1c-0.3-0.1-0.4-0.3-0.4-0.5c0-0.5,0.3-0.8,0.8-0.8
		c0,0,0.4,0.3,0.9,0.8c0.5,0.5,0.8,0.9,0.8,1.1c0.9-0.4,1.8-0.8,2.7-1.3c1.5-0.8,2.3-1.3,2.3-1.5c0-0.1-0.1-0.3-0.4-0.5
		c-0.7-0.4-1.3-0.8-1.9-1.2c-0.1-0.1-0.3-0.2-0.3-0.4c-2.2,1.3-4.1,2.3-5.9,3c-1.5,0.6-2.6,0.9-3.3,0.9c-0.4,0-0.7-0.1-1-0.4
		c-0.3-0.2-0.4-0.5-0.4-0.8c0-0.2,0.1-0.3,0.3-0.4c2.7-0.5,4.7-1,6.1-1.6c1.3-0.4,2.8-1.2,4.7-2.4C190.8,36.2,190.9,36.1,191.1,36.1
		z M188.9,30.1c0.4,0,0.5,0.2,0.6,0.6c0,0.1,0,0.2-0.1,0.3c0.6,0.5,1.2,1,1.8,1.6c0.2,0,0.4,0.1,0.5,0.3c0.2,0.2,0.3,0.4,0.3,0.6
		c0,0.2-0.3,0.5-0.9,0.7c-2.8,1.8-5.4,3.1-7.9,3.9c-1,0.4-2.1,0.6-3.3,0.6c-0.2,0-0.5-0.1-0.7-0.4c-0.4-0.5-0.6-1-0.6-1.4
		c0-0.3,0.1-0.5,0.3-0.5c0.2,0,0.3,0.1,0.5,0.2c0.3,0.1,0.8,0.2,1.3,0.2c1.3,0,2.3-0.1,3.2-0.4c0.4-0.1,0.8-0.2,1.1-0.4
		c-0.5-0.5-0.9-0.8-1.2-1c-0.3-0.1-0.4-0.3-0.4-0.5c0-0.5,0.3-0.8,0.8-0.8c0.1,0,0.4,0.3,0.9,0.8c0.5,0.5,0.7,0.8,0.8,1.1
		c0.8-0.3,1.7-0.7,2.5-1.2c1-0.5,1.5-0.9,1.5-1.1c0-0.1-0.1-0.3-0.3-0.4c-0.4-0.4-0.9-0.8-1.3-1.1c-0.1-0.1-0.2-0.2-0.2-0.3
		c-1.8,0.9-3.4,1.5-4.9,2c-1.2,0.4-2.1,0.6-2.7,0.6c-0.4,0-0.7-0.1-0.9-0.4c-0.3-0.2-0.4-0.5-0.4-0.8c0-0.2,0.1-0.3,0.3-0.4
		c2.2-0.3,3.9-0.6,5-1c1-0.3,2.3-0.8,3.8-1.5C188.6,30.2,188.8,30.1,188.9,30.1z"/>
	<path class="st0" d="M200.5,33.7h2.8c0-0.8-0.1-1.7-0.1-2.5c0-0.6,0.2-0.9,0.7-0.9c0.5,0,0.8,0.3,0.8,0.9c0,0.9-0.1,1.7-0.1,2.5
		h2.6c0.2,0,0.3,0.1,0.3,0.3c0,0.3-0.1,0.5-0.3,0.7c-0.2,0.2-0.5,0.3-0.8,0.3c-0.2,0-0.5,0-1.1-0.1c-0.2,0-0.5,0-0.7,0
		c0,0.3,0,0.7,0,1l0,1.2c0,0,0.1,0,0.2,0c0,0,0.4,0.3,1,0.8c0.6,0.5,0.9,0.9,0.9,1.1c0,0.4-0.2,0.6-0.7,0.6c0,0-0.1,0-0.3-0.1
		c-0.5-0.4-0.9-0.8-1.2-0.9l0.1,7.5c0,1-0.3,1.5-0.9,1.5c-0.4,0-0.6-0.5-0.6-1.5c0-2.8,0-5.1,0-7.1c-0.4,0.5-0.7,1-1.1,1.4
		c-0.5,0.6-1,1-1.7,1.4c-0.1,0.1-0.2,0.1-0.3,0.1c-0.4,0-0.7-0.2-1.1-0.6c-0.3-0.3-0.5-0.6-0.5-0.9c0-0.2,0.2-0.3,0.6-0.3
		c0.4-0.1,0.8-0.1,1-0.2c0.5-0.2,1-0.5,1.5-0.9c0.5-0.5,0.9-1,1.2-1.6c0.1-0.1,0.2-0.2,0.3-0.2c0-0.4,0-0.7,0-1c0-0.3,0-0.7,0-1
		c-1.2,0-2.1,0.1-2.7,0.2c-0.3,0.1-0.5,0.2-0.6,0.2c-0.4,0-0.7-0.2-0.7-0.6c0-0.2,0.1-0.4,0.4-0.6C199.9,33.7,200.1,33.7,200.5,33.7
		z M211.1,30.3c0.4,0.1,0.6,0.3,0.7,0.6c0.2,0.9,0.3,1.5,0.3,1.7c0,0,0,0.1,0,0.1h3.4c0-0.1,0.2-0.8,0.6-2c0.1-0.3,0.3-0.4,0.7-0.4
		c0.5,0,0.8,0.3,0.8,0.7c0,0.1-0.1,0.3-0.2,0.4c-0.4,0.5-0.7,0.9-1,1.2c0,0-0.1,0.1-0.1,0.1h2.6c0.2,0,0.3,0.1,0.4,0.3
		c0,0.3-0.1,0.6-0.3,0.8c-0.2,0.2-0.5,0.3-0.9,0.3c-0.2,0-0.8-0.1-1.6-0.2c-0.7,0-1.4-0.1-2.1-0.1c0,0.1,0,0.2,0,0.4
		c0,0.4,0,0.8,0,1.1h3.4c0.2,0,0.3,0.1,0.3,0.2c0,0.3-0.1,0.5-0.3,0.7c-0.2,0.2-0.5,0.3-0.8,0.3c-0.2,0-0.6,0-1.3-0.1
		c-0.4,0-0.9,0-1.4,0c0,0.5,0,1,0,1.5c0.9,0,2.1,0.1,3.6,0.1c0.3,0,0.6,0,0.9,0c0.2,0,0.5,0,1-0.1c0.4-0.1,0.6-0.2,0.7-0.2
		c0.2,0,0.3,0.1,0.3,0.2c0,0.4-0.2,0.8-0.6,1.3c-0.4,0.5-0.7,0.7-1.1,0.7c-0.2,0-0.6-0.1-1.2-0.3c-1-0.3-2.2-0.5-3.6-0.6l0.1,6.6
		c0,1-0.3,1.5-0.8,1.5c-0.4,0-0.6-0.5-0.6-1.5c0-2.7,0-4.9,0-6.6c-1.9,0-3.2,0.1-4,0.4c-0.4,0.1-0.7,0.2-1,0.2
		c-0.4,0-0.6-0.2-0.6-0.6c0-0.2,0.1-0.5,0.3-0.7c0.2-0.2,0.4-0.3,0.6-0.3c0.2,0,0.3,0,0.5,0.1c1.6-0.2,3-0.3,4.2-0.3
		c0-0.5,0-1,0-1.5c-1.1,0-1.9,0.1-2.4,0.1c-0.4,0.1-0.6,0.1-0.7,0.1c-0.4,0-0.6-0.2-0.7-0.6c0-0.2,0.1-0.4,0.4-0.6
		c0.2-0.1,0.4-0.2,0.8-0.2h2.6c0-0.4,0-0.7,0-1.1c0-0.1,0-0.3,0-0.4c-1.4,0-2.4,0.1-3,0.2c-0.4,0.1-0.7,0.2-0.9,0.2
		c-0.4,0-0.7-0.2-0.7-0.6c0-0.2,0.1-0.5,0.4-0.6c0.2-0.1,0.5-0.2,0.8-0.2h1.7c0,0-0.1-0.1-0.1-0.1c-0.2-0.4-0.4-0.7-0.6-1.1
		c-0.1-0.2-0.1-0.4-0.1-0.6C210.2,30.5,210.5,30.3,211.1,30.3z M211.3,43.8c0.3,0,0.4,0.1,0.4,0.4c0,0.2-0.1,0.4-0.2,0.6
		c-1.7,1.2-2.6,1.9-2.9,1.9c-0.6,0-0.9-0.2-0.9-0.6c0-0.5,0.1-0.8,0.4-0.9C208,45,209.1,44.6,211.3,43.8z M209.1,40.5
		c0.1,0,0.5,0.2,1.4,0.7c0.8,0.5,1.2,0.8,1.2,1.1c0,0.4-0.2,0.6-0.7,0.6c-0.1,0-0.2,0-0.4-0.1c-0.9-0.5-1.5-0.9-1.9-1
		c-0.4-0.1-0.6-0.3-0.6-0.4C208.2,40.8,208.5,40.5,209.1,40.5z M218.3,40.5c0.4,0,0.7,0.3,0.7,0.8c0,0.3-0.1,0.5-0.3,0.6
		c-1.6,0.7-2.5,1-2.5,1c-0.4,0-0.6-0.1-0.6-0.3c0-0.2,0.1-0.3,0.2-0.5l2.2-1.6C218.2,40.5,218.3,40.5,218.3,40.5z M215.9,43.8
		c0,0,0.1,0,0.1,0c0.8,0.5,1.5,0.9,2,1.1c0.3,0.1,0.8,0.2,1.3,0.2c0.2,0,0.3,0.1,0.3,0.3c0,0.3-0.2,0.5-0.5,0.7
		c-0.6,0.4-1.1,0.6-1.4,0.6c-0.2,0-0.3-0.1-0.4-0.2c-0.2-0.2-0.8-1-1.7-2.2c-0.1-0.1-0.1-0.2-0.1-0.3
		C215.6,43.9,215.7,43.8,215.9,43.8z"/>
	<path class="st0" d="M224.7,32.9c0.4,0,0.6,0.3,0.6,0.8c-0.1,0.7-0.1,1.3-0.1,1.8v3c0,0.9-0.2,1.4-0.7,1.4c-0.4,0-0.6-0.5-0.6-1.4
		c0.1-1.3,0.2-2.3,0.2-3c0-0.5,0-1.1-0.1-1.8C224,33.2,224.2,32.9,224.7,32.9z M227.5,30.1c0.5,0,0.7,0.3,0.7,0.9
		c-0.1,1.7-0.1,3.3-0.1,4.7l0.1,10c0,1-0.3,1.5-0.8,1.5c-0.4,0-0.6-0.5-0.6-1.5c0.1-4.3,0.1-7.6,0.1-10c0-1.4,0-2.9-0.1-4.7
		C226.8,30.4,227,30.1,227.5,30.1z M230.5,31.2c0.5,0,0.7,0.2,0.7,0.6l-1.4,3c-0.1,0.3-0.3,0.4-0.6,0.4c-0.2,0-0.4-0.2-0.4-0.5
		l0.9-3C230,31.4,230.2,31.2,230.5,31.2z M234,32.3c0.4,0,0.6,0.2,0.6,0.5c0,0.2-0.1,0.5-0.2,0.7c-0.2,0.5-0.4,1-0.7,1.5
		c0,0,0,0,0,0h3.1l0-3.6c0-0.6,0.2-0.8,0.7-0.8c0.6,0,0.9,0.3,0.9,0.8l0,3.6h4.5c0.2,0,0.4,0.1,0.4,0.3c0,0.3-0.1,0.6-0.3,0.8
		c-0.2,0.2-0.5,0.3-0.8,0.3c-0.2,0-0.8-0.1-1.6-0.2c-0.7,0-1.4-0.1-2.1-0.1l0,3.3h3.8c0.2,0,0.3,0.1,0.4,0.3c0,0.3-0.1,0.6-0.3,0.8
		c-0.2,0.2-0.5,0.3-0.9,0.3c-0.2,0-0.7-0.1-1.4-0.2c-0.5,0-1-0.1-1.6-0.1l0,3.6c0.8,0,1.6,0.1,2.5,0.2c1,0.1,1.9,0.1,2.8,0.1
		c0.4,0,0.8,0,1.1-0.1c0.1,0,0.1,0.1,0.1,0.3c0,0.4-0.1,0.9-0.4,1.3c-0.3,0.5-0.5,0.7-0.8,0.7s-0.5-0.1-0.8-0.3c-1.1-0.5-2-0.8-3-1
		c-0.7-0.1-1.6-0.2-2.6-0.2c-1.2,0-2.2,0.1-3.1,0.3c-0.9,0.2-1.8,0.6-2.7,1c-0.3,0.1-0.5,0.2-0.6,0.2c-0.4,0-0.6-0.3-0.6-0.7
		c0-0.3,0.1-0.5,0.3-0.7c0.2-0.2,0.5-0.3,0.8-0.4c2.5-0.4,4.4-0.7,5.6-0.7l-0.1-3.6c-1.3,0-2.2,0.1-2.8,0.2
		c-0.4,0.1-0.6,0.2-0.8,0.2c-0.4,0-0.7-0.2-0.7-0.6c0-0.2,0.1-0.4,0.4-0.6c0.2-0.1,0.5-0.2,0.8-0.2h3.1l0-3.3
		c-1.2,0-2.2,0.1-2.8,0.2c-0.4,0.1-0.7,0.2-0.8,0.2c-0.2,0-0.3,0-0.4-0.1c-0.2,0.3-0.4,0.6-0.6,0.8c-0.3,0.4-0.6,0.6-0.8,0.6
		c-0.3,0-0.7-0.1-1.1-0.4c-0.4-0.3-0.5-0.6-0.5-0.9c0-0.2,0.2-0.4,0.5-0.4c0.6-0.3,1.2-0.7,1.7-1.2c0.5-0.6,1-1.4,1.5-2.4
		C233.8,32.3,233.9,32.3,234,32.3z"/>
	<path class="st0" d="M258.6,30.7c0.6,0,0.8,0.3,0.8,0.8c0,0.1,0,0.3-0.1,0.5c-0.3,0.8-0.5,1.3-0.7,1.6l6.4,0c0.2,0,0.6-0.1,1.2-0.2
		c0.6,0,0.9,0.2,0.9,0.6c-0.3,1.5-0.4,3.3-0.4,5.5c0,1.5,0.1,3.6,0.3,6.3c0,0.7-0.3,1-0.9,1c-0.3,0-0.5-0.1-0.6-0.4
		c-0.1-0.3-0.1-0.8-0.1-1.3c0-4.3,0.1-7.7,0.2-10.1c0-0.2-0.2-0.3-0.7-0.3c-4.7,0-9,0-12.9,0.1v5.8c0,1.2-0.1,2.2-0.3,3.1
		c-0.2,0.9-0.5,1.6-1,2.2c-0.4,0.5-0.8,0.8-1.1,0.8c-0.3,0-0.7-0.2-1.1-0.5c-0.5-0.4-0.7-0.6-0.7-0.8c0-0.2,0.1-0.3,0.4-0.4
		c0.7-0.3,1.3-0.9,1.7-1.8c0.4-0.8,0.6-2.6,0.6-5.3c0-1.3-0.1-2.7-0.3-4.2c0-0.4,0.2-0.6,0.7-0.6c0.2,0,0.4,0,0.6,0.1l5.8,0
		c0.2-0.7,0.3-1.4,0.3-2.1C257.9,31,258.1,30.7,258.6,30.7z M255.7,37.7c0.2,0,0.4,0,0.6,0.1c0.2,0.1,0.5,0.1,0.9,0.1h2
		c0.4,0,1,0,1.6,0.1c0.2,0,0.5-0.1,0.8-0.2c0.4,0,0.6,0.3,0.6,0.8l0,0.1c-0.1,0.2-0.1,0.4-0.2,0.9c0,0.5-0.1,1.1-0.1,1.7
		c0,0.4,0,0.9,0.1,1.5c0,0.5-0.2,0.7-0.6,0.7c-1-0.1-2-0.2-2.8-0.2c-1.1,0-1.9,0-2.2,0c-0.3,0-0.6,0.1-0.9,0.1
		c-0.4,0-0.6-0.2-0.6-0.7c0.1-0.9,0.2-1.6,0.2-2.3c0-0.6-0.1-1.3-0.2-2.2C255.1,37.9,255.3,37.7,255.7,37.7z M258.7,42.2
		c0.5,0,1.1,0,1.8,0.1c0.2,0,0.4-0.1,0.4-0.3v-2.7c0-0.2-0.1-0.3-0.2-0.3c-0.9-0.1-2.1-0.1-3.8-0.1c-0.2,0-0.4,0.2-0.4,0.5
		c0,0.9-0.1,1.7-0.2,2.5c0,0.3,0.2,0.4,0.5,0.4C257.4,42.2,258,42.2,258.7,42.2z"/>
	<path class="st0" d="M281.8,30.6c0.6,0,0.9,0.3,0.9,0.8l-0.1,5.2c0.1,0,0.2,0,0.3,0h5.5c0.2,0,0.4,0.1,0.4,0.2
		c0,0.3-0.1,0.6-0.3,0.9c-0.2,0.2-0.5,0.4-0.8,0.4c-0.1,0-0.4-0.1-0.9-0.2c-0.5,0-1-0.1-1.6-0.1c-1,0-1.8,0-2.2,0.1
		c-0.1,0-0.3,0.1-0.3,0.1l-0.1,6c1.2,0,2.7,0.2,4.4,0.4c1.5,0.2,2.8,0.3,3.8,0.3c0.5,0,1.1,0,1.6-0.1c0.1,0,0.2,0.1,0.2,0.2
		c0,0.5-0.1,1-0.4,1.5c-0.3,0.4-0.6,0.6-0.8,0.6c-0.2,0-0.5-0.1-0.8-0.2c-1.5-0.6-2.9-0.9-4.2-1.1c-1.2-0.2-2.7-0.3-4.5-0.3
		c-2.1,0-3.8,0.2-5.1,0.5c-1.3,0.3-2.5,0.6-3.4,1c-0.4,0.2-0.6,0.2-0.8,0.2c-0.6,0-0.9-0.3-0.9-0.7c0-0.3,0.2-0.5,0.4-0.8
		c0.2-0.2,0.5-0.3,0.8-0.4c3.9-0.7,6.8-1.1,8.5-1.1L281,31.4C281,30.9,281.3,30.6,281.8,30.6z"/>
	<path class="st0" d="M302.2,46.1c0,0.3-0.3,0.6-0.9,1c-0.6,0.4-1,0.6-1.3,0.6c-0.3,0-0.6-0.3-1-0.8c-0.8-1.2-1.7-2.3-2.4-3.1
		c-0.7-0.8-1-1.3-1-1.5c0-0.3,0.2-0.4,0.5-0.4c0.2,0,1.5,0.9,3.8,2.8c0.5,0.4,1.2,0.8,2.1,1.2C302.1,45.8,302.2,45.9,302.2,46.1z"/>
	<path class="st0" d="M326.1,31.8c0,0.5-0.7,1.4-2,2.6c-1.1,1-2,1.7-2.8,2.2c0,1.8,0,3.6,0,5.2c0,0.3,0,0.9,0.1,1.8
		c0.1,0.8,0.1,1.4,0.1,1.8c0,0.8-0.2,1.3-0.6,1.3c-0.7,0-1-0.4-1-1.3c0-3.7,0-6.4,0.1-8c-3,1.5-5.3,2.2-6.9,2.2
		c-0.4,0-0.9-0.2-1.3-0.6c-0.4-0.4-0.6-0.9-0.6-1.3c0-0.2,0.3-0.3,0.8-0.4c0.3,0,0.7,0,1.2,0c2.8-0.2,5.2-0.8,7.2-2
		c1.9-1.1,3.2-2.2,4-3.3c0.4-0.6,0.8-0.9,1.2-0.9C325.8,31.1,326.1,31.3,326.1,31.8z"/>
	<path class="st0" d="M348.5,42.9c-0.2,0.6-0.6,0.9-1,0.9c-0.3,0-0.7-0.2-1.2-0.6l-2.7-2.3c-1.6-1.3-2.8-2.4-3.6-3.1
		c-0.3-0.3-0.9-0.8-1.6-1.4c-0.8-0.6-1.2-0.9-1.4-0.9c-0.2,0-1.1,0.9-2.7,2.6c-1.6,1.7-2.7,2.5-3.2,2.5c-0.3,0-0.6-0.1-0.8-0.3
		c-0.2-0.2-0.3-0.4-0.3-0.7c0-0.2,0.2-0.5,0.7-0.8c1.2-0.8,2.7-2,4.5-3.6c0.9-0.8,1.5-1.2,1.9-1.2c0.4,0,0.9,0.3,1.5,0.8
		c1,0.9,2.6,2.2,4.8,3.9l4.1,2.8C348.1,42,348.5,42.4,348.5,42.9z M344.7,34c0,0.2-0.2,0.4-0.5,0.6c-0.3,0.2-0.5,0.3-0.7,0.3
		c-0.3,0-0.6-0.4-1.1-1.2c-0.5-0.8-0.7-1.3-0.7-1.7c0-0.2,0.1-0.3,0.2-0.3c0.1,0,0.3,0.1,0.4,0.3c0.7,0.8,1.3,1.4,2,1.6
		C344.5,33.8,344.6,33.9,344.7,34z M347.7,33c-0.1,0.2-0.2,0.4-0.5,0.7c-0.3,0.2-0.5,0.4-0.6,0.4c-0.3-0.1-0.8-0.5-1.3-1.1
		c-0.5-0.7-0.8-1.2-0.8-1.5c0-0.1,0-0.2,0.1-0.2c0,0,0.3,0.2,0.8,0.5c0.5,0.4,0.8,0.6,0.9,0.6C346.7,32.6,347.2,32.8,347.7,33z"/>
	<path class="st0" d="M359,36c0,0.3-0.1,0.4-0.4,0.4c-0.5,0-1.4-0.3-2.5-0.9c-1.3-0.6-1.9-1.1-1.9-1.6c0-0.3,0.1-0.5,0.3-0.7
		c0.2-0.2,0.5-0.3,0.7-0.3c0.3,0,1.1,0.4,2.2,1.3C358.4,35.2,359,35.8,359,36z M368.3,34.8c0,0.5-0.6,1.5-1.8,3
		c-2.4,3.2-5.4,5.6-9.2,7.1c-1.1,0.5-1.9,0.7-2.3,0.7c-0.7,0-1-0.3-1-1c0-0.6,0.4-1,1.3-1.2c1-0.2,2.3-0.7,3.8-1.3
		c1.9-0.8,3.6-2,5-3.4c1.5-1.4,2.5-2.7,3-3.8c0.2-0.4,0.4-0.5,0.6-0.5C368.2,34.2,368.3,34.4,368.3,34.8z"/>
	<path class="st0" d="M386.7,40c0,0.3-0.4,0.7-1.1,1.2c-0.8,0.5-1.3,0.8-1.6,0.8c-0.3,0-0.7-0.3-1.2-1c-1.4-1.7-3.1-3-5.1-3.9
		c0,0.9,0,2.3,0,4.2c0,1.8,0.1,3.2,0.1,4.2c0,0.7-0.3,1-0.9,1c-0.5,0-0.7-0.4-0.7-1.2c0-0.7,0-1.8,0-3.2c0-1.4,0.1-2.5,0.1-3.2v-4.4
		c0-0.3,0-0.8-0.1-1.4c0-0.7,0-1.1,0-1.5c0-0.6,0.3-0.9,0.9-0.9c0.5,0,0.8,0.3,0.8,0.9c0,0.5,0,1.2-0.1,2.1c0,0.9-0.1,1.7-0.1,2.1
		c1.6,0.7,3.2,1.5,5,2.5c1.5,0.8,2.6,1.2,3.5,1.3C386.6,39.8,386.7,39.9,386.7,40z"/>
	<path class="st0" d="M391.5,35.1h2.5c0-1.2,0-2.6-0.1-4c0-0.6,0.2-0.9,0.7-0.9s0.7,0.3,0.7,0.9c0,1.5-0.1,2.8-0.1,4h3
		c0.2,0,0.4,0.1,0.4,0.3c0,0.3-0.1,0.6-0.3,0.8c-0.2,0.2-0.5,0.3-0.8,0.3c-0.2,0-0.5-0.1-1.2-0.2c-0.4,0-0.7,0-1.1,0l0.1,9.6
		c0,1-0.3,1.5-0.8,1.5c-0.4,0-0.6-0.5-0.6-1.5c0-4,0.1-7.2,0.1-9.6c-1.1,0-1.9,0.1-2.4,0.2c-0.3,0.1-0.5,0.2-0.6,0.2
		c-0.5,0-0.7-0.3-0.8-0.7c0-0.2,0.2-0.4,0.4-0.6C390.8,35.1,391.1,35.1,391.5,35.1z M399.8,40.5c0.1-0.3,0.1-0.6,0.1-0.9
		c0-0.4,0.2-0.6,0.6-0.6c0.2,0,0.3,0.1,0.4,0.2c0.2,0.2,0.2,0.3,0.2,0.4l0,0.1c0,0.2-0.1,0.5-0.2,0.8h1.7c0.1,0,0.4-0.1,0.7-0.2
		c0.5,0,0.8,0.2,0.8,0.7c-0.3,0.9-0.4,1.9-0.5,2.8c-0.1,1.3-0.5,2.1-1,2.5c-0.4,0.4-1,0.6-1.7,0.6c-0.4,0-0.6-0.1-0.9-0.4
		c-0.2-0.3-0.2-0.5-0.2-0.7c0-0.3,0.1-0.4,0.4-0.5c0.8,0,1.3-0.2,1.6-0.4c0.3-0.2,0.5-0.9,0.7-1.9c0.1-0.7,0.1-1.1,0.1-1.2
		c0-0.2-0.1-0.4-0.2-0.4h-1.8c-0.3,1.1-0.7,2.2-1.2,3c-0.3,0.6-0.7,1.2-1.1,1.6c-0.5,0.5-0.9,0.7-1.1,0.7c-0.3,0-0.5-0.1-0.8-0.4
		c-0.3-0.3-0.4-0.5-0.4-0.7c0-0.2,0.2-0.3,0.5-0.4c0.4-0.1,0.8-0.4,1.2-0.9c0.5-0.4,0.9-1.2,1.4-2.3c0.1-0.2,0.2-0.4,0.2-0.6
		c-0.3,0-0.7,0.1-1,0.1c-0.4,0.1-0.6,0.2-0.7,0.2c-0.4,0-0.6-0.2-0.6-0.5c0-0.5,0.2-0.8,0.6-0.8C398.2,40.5,398.8,40.5,399.8,40.5z
		 M403.4,32.3c0.1-0.5,0.3-1,0.3-1.5c0-0.4,0.2-0.6,0.6-0.6c0.1,0,0.3,0.1,0.4,0.2c0.2,0.2,0.2,0.3,0.2,0.4l0,0.1
		c-0.1,0.3-0.2,0.8-0.4,1.4h3.2c0.1,0,0.4-0.1,0.7-0.2c0.5,0,0.8,0.2,0.8,0.7c-0.3,0.9-0.5,1.9-0.6,2.8c-0.1,1.3-0.5,2.1-1.1,2.5
		c-0.5,0.4-1.1,0.6-1.9,0.6c-0.4,0-0.6-0.1-0.9-0.4c-0.2-0.3-0.2-0.5-0.2-0.7c0-0.3,0.1-0.4,0.4-0.5c0.9,0,1.6-0.2,1.8-0.4
		c0.3-0.2,0.6-0.9,0.8-1.9c0.1-0.6,0.2-1,0.2-1.2c0-0.3-0.1-0.4-0.2-0.4h-3.3c0,0,0,0,0,0c-0.4,1-0.8,1.9-1.4,2.8
		c-0.4,0.6-0.9,1.2-1.4,1.7c-0.7,0.5-1.2,0.8-1.4,0.8c-0.3,0-0.6-0.2-0.8-0.5c-0.3-0.3-0.4-0.5-0.4-0.7c0-0.2,0.2-0.3,0.5-0.4
		c0.6-0.1,1.1-0.5,1.7-1c0.6-0.4,1.3-1.3,1.9-2.4c0-0.1,0.1-0.2,0.1-0.3c-0.5,0-1,0.1-1.5,0.1c-0.5,0.1-0.8,0.2-1,0.2
		c-0.4,0-0.6-0.2-0.6-0.5c0-0.5,0.2-0.8,0.6-0.8C401.1,32.3,402,32.3,403.4,32.3z M407.3,40.5c0.1-0.3,0.1-0.6,0.1-0.9
		c0-0.4,0.2-0.6,0.6-0.6c0.1,0,0.3,0.1,0.4,0.2c0.1,0.2,0.2,0.3,0.2,0.4l0,0.1c0,0.2-0.1,0.5-0.2,0.8h1.8c0.1,0,0.4-0.1,0.7-0.2
		c0.5,0,0.7,0.2,0.7,0.7c-0.2,0.9-0.4,1.9-0.5,2.8c-0.1,1.3-0.4,2.1-0.9,2.5c-0.4,0.4-0.9,0.6-1.5,0.6c-0.4,0-0.6-0.1-0.9-0.4
		c-0.2-0.3-0.2-0.5-0.2-0.7c0-0.3,0.1-0.4,0.4-0.5c0.7,0,1.1-0.2,1.3-0.4c0.3-0.2,0.5-0.9,0.6-1.9c0.1-0.7,0.1-1.1,0.1-1.2
		c0-0.2-0.1-0.4-0.2-0.4h-1.8c-0.3,1.1-0.6,2.2-1.1,3c-0.3,0.6-0.6,1.2-1,1.6c-0.5,0.5-0.8,0.7-1,0.7c-0.3,0-0.6-0.1-0.8-0.4
		c-0.3-0.3-0.4-0.5-0.4-0.7c0-0.2,0.2-0.3,0.5-0.4c0.4-0.1,0.8-0.4,1.2-0.9c0.4-0.4,0.9-1.2,1.3-2.3c0.1-0.2,0.1-0.4,0.2-0.6
		c-0.3,0-0.6,0.1-0.9,0.1c-0.4,0.1-0.6,0.2-0.7,0.2c-0.4,0-0.6-0.2-0.6-0.5c0-0.5,0.2-0.8,0.6-0.8C405.7,40.5,406.4,40.5,407.3,40.5
		z"/>
	<path class="st0" d="M418,30.7h1.7c0-0.1,0-0.2,0-0.3c0-0.4,0.3-0.6,0.7-0.6c0.4,0,0.6,0.3,0.6,0.7c0,0,0,0.1,0,0.2h1.7
		c0.4,0,0.7,0.2,0.7,0.6c0,0.2-0.2,0.4-0.6,0.4c-0.7,0-1.3,0-1.9,0c0,0.2-0.1,0.3-0.1,0.5c0,0.2-0.1,0.4-0.1,0.6h3.1
		c0.2,0,0.3,0.1,0.3,0.3c0,0.3-0.1,0.5-0.3,0.6c-0.2,0.2-0.5,0.3-0.8,0.3c-0.2,0-0.5,0-1.1-0.1c-0.5,0-1-0.1-1.6-0.1
		c-0.2,0.6-0.6,1.1-0.9,1.6c-0.8,1-1.8,1.7-2.9,2.1c-0.6,0.3-1,0.4-1.4,0.4c-0.3,0-0.5-0.1-0.8-0.4c-0.2-0.2-0.3-0.5-0.3-0.6
		c0-0.1,0.1-0.2,0.2-0.3c1.8-0.5,3.1-1.1,3.9-1.8c0.4-0.3,0.7-0.7,0.9-1c-0.8,0-1.3,0.1-1.7,0.2c-0.3,0.1-0.5,0.2-0.6,0.2
		c-0.4,0-0.6-0.2-0.6-0.6c0-0.2,0.1-0.4,0.3-0.6c0.2-0.1,0.5-0.2,0.8-0.2h2.4c0-0.1,0-0.2,0.1-0.2c0.1-0.3,0.1-0.5,0.2-0.8
		c-0.7,0-1.3,0.1-1.8,0.1c-0.5,0-0.7-0.2-0.7-0.5C417.1,31,417.4,30.7,418,30.7z M417.7,45.1c0.4,0.1,0.7,0.1,0.8,0.1
		c0.8,0,1.7-0.2,2.8-0.6c0.2,0,0.3,0.1,0.3,0.3c0,0.2-0.4,0.7-1.1,1.3c-0.8,0.7-1.4,1-2,1c-0.3,0-0.5-0.1-0.7-0.4
		c-0.3-0.4-0.4-0.8-0.4-1.2C417.4,45.2,417.5,45.1,417.7,45.1z M419.9,36.7c0.2,0,0.5,0,0.7,0.1c0.2,0.1,0.6,0.1,1,0.1h3.6
		c0.8,0,1.7,0,2.8,0.1c0.2,0,0.5-0.1,0.8-0.2c0.4,0,0.7,0.3,0.7,0.8c0,0,0,0.1-0.1,0.2c-0.1,0.2-0.1,0.6-0.1,1.2
		c0,0.7-0.1,1.5-0.1,2.4c0,0.6,0,1.3,0.1,2.3c0,0.5-0.2,0.7-0.7,0.7c-1.6-0.1-3-0.2-4.2-0.2c-1.6,0-2.7,0-3.1,0
		c-0.4,0-0.8,0.1-1.4,0.1c-0.4,0-0.6-0.2-0.6-0.6c0.1-1.2,0.2-2.2,0.2-3.1s-0.1-2-0.2-3.2C419.2,37,419.4,36.7,419.9,36.7z
		 M421.3,34.4c0.1,0,0.4,0.2,1.1,0.6c0.6,0.4,1,0.8,1,0.9c0,0.3-0.2,0.5-0.6,0.5c-0.1,0-0.2,0-0.3-0.1c-0.7-0.5-1.2-0.8-1.5-0.9
		c-0.3-0.1-0.5-0.2-0.5-0.4C420.6,34.6,420.8,34.4,421.3,34.4z M424.4,43.1c1,0,2,0,3.2,0.1c0.3,0,0.4-0.1,0.4-0.3v-1
		c-3,0-5.4,0.1-7.1,0.2c0,0-0.1,0-0.1,0c0,0.3,0,0.5-0.1,0.7c0,0.3,0.2,0.4,0.6,0.4C422.1,43.2,423.2,43.1,424.4,43.1z M420.7,41.1
		c0.1,0,0.2,0,0.3,0h6.9v-1.1c-3,0-5.4,0.1-7.1,0.2h0C420.8,40.4,420.7,40.8,420.7,41.1z M420.8,39.1c0.1,0,0.1,0,0.2,0h6.9v-0.7
		c0-0.2-0.1-0.3-0.2-0.3c-1.5-0.1-3.6-0.1-6.5-0.1c-0.3,0-0.5,0.2-0.5,0.5C420.8,38.7,420.8,38.9,420.8,39.1z M426.1,30.7h1.9v-0.3
		c0-0.4,0.2-0.6,0.6-0.6c0.4,0,0.6,0.2,0.7,0.6c0,0.1,0,0.2,0,0.3h2.2c0.4,0,0.6,0.2,0.6,0.6c0,0.2-0.2,0.4-0.6,0.4
		c-0.9,0-1.7,0-2.4,0c0,0,0,0.1,0,0.1c0,0.3-0.1,0.6-0.2,0.9h3.9c0.2,0,0.3,0.1,0.3,0.3c0,0.3-0.1,0.5-0.3,0.7
		c-0.2,0.2-0.5,0.3-0.8,0.3c-0.2,0-0.6,0-1.2-0.1c-0.4,0-0.9,0-1.4,0l0,0c2,1.4,3.3,2.1,3.8,2.3c0.3,0.1,0.7,0.2,1.2,0.2
		c0.2,0,0.4,0.1,0.4,0.3c0,0.3-0.2,0.5-0.6,0.8c-0.4,0.3-0.9,0.4-1.3,0.4c-0.3,0-0.6-0.1-0.8-0.3c-0.7-0.8-1.6-1.7-2.5-2.5
		c-0.4-0.3-0.8-0.6-1.1-0.8c-0.1,0.1-0.1,0.2-0.2,0.4c-0.5,0.8-1,1.4-1.6,1.8c-0.3,0.2-0.6,0.4-0.8,0.4c-0.2,0-0.5-0.1-0.7-0.3
		c-0.2-0.2-0.3-0.4-0.3-0.5c0-0.1,0-0.2,0.1-0.3c1-0.4,1.7-0.9,2.2-1.4c0.1-0.1,0.2-0.2,0.2-0.3c-0.5,0-1,0.1-1.3,0.2
		c-0.3,0.1-0.5,0.2-0.6,0.2c-0.4,0-0.6-0.2-0.7-0.6c0-0.2,0.1-0.4,0.4-0.6c0.2-0.1,0.4-0.2,0.8-0.2h1.9c0-0.2,0.1-0.3,0.1-0.5
		c0-0.2,0.1-0.3,0.1-0.5c-0.7,0-1.4,0.1-1.9,0.1c-0.5,0-0.7-0.2-0.7-0.5C425.3,31,425.6,30.7,426.1,30.7z M427.4,44.5
		c0,0,0.1,0,0.1,0c0.8,0.3,1.5,0.5,2,0.6c0.4,0.1,0.8,0.1,1.4,0.1c0.2,0,0.3,0.1,0.3,0.3c0,0.3-0.2,0.6-0.5,0.9
		c-0.7,0.4-1.2,0.6-1.5,0.6c-0.1,0-0.3,0-0.4-0.1c-0.2-0.2-0.7-0.8-1.5-1.8c0-0.1-0.1-0.1-0.1-0.2C427.2,44.7,427.3,44.5,427.4,44.5
		z"/>
	<path class="st0" d="M441.9,30c0.4,0,0.6,0.2,0.6,0.5c0,0.2-0.1,0.4-0.2,0.6c-0.1,0.2-0.2,0.3-0.3,0.5h4.9c0.2,0,0.3,0.1,0.3,0.2
		c0,0.3-0.1,0.5-0.3,0.7c-0.2,0.2-0.4,0.3-0.8,0.3c-0.1,0-0.4,0-0.8-0.1c-0.3,0-0.7,0-1,0c0,0.2,0.1,0.5,0.1,1
		c0,0.4-0.1,0.6-0.4,0.6c-0.3,0-0.4-0.1-0.5-0.3c-0.3-0.7-0.5-1-0.5-1.2c0,0,0,0,0-0.1c-0.5,0-0.9,0.1-1.2,0.1
		c-0.3,0.1-0.4,0.1-0.5,0.1c-0.1,0-0.2,0-0.2,0c-0.4,0.6-0.8,1.1-1.3,1.6c-0.4,0.4-0.7,0.6-0.9,0.6c-0.3,0-0.7-0.2-1.1-0.5
		c-0.4-0.3-0.5-0.6-0.5-0.9c0-0.2,0.2-0.3,0.5-0.4c0.7-0.2,1.4-0.6,2-1.1c0.7-0.5,1.3-1.2,1.8-2.2C441.7,30.1,441.9,30,441.9,30z
		 M443.2,35.4h3.9l0-0.3c0-0.5,0.3-0.7,0.8-0.7c0.6,0,0.8,0.2,0.8,0.7l0,0.3h4.6c0.2,0,0.4,0.1,0.4,0.3c0,0.3-0.1,0.6-0.3,0.8
		c-0.2,0.2-0.5,0.3-0.8,0.3c-0.2,0-0.8-0.1-1.8-0.2c-0.7,0-1.4-0.1-2.1-0.1l-0.1,1.5c1.3,0,2.6,0.1,4.1,0.3c1.4,0.1,2.7,0.2,4,0.2
		c0.4,0,0.7,0,1.1-0.1c0.1,0,0.1,0.1,0.1,0.3c0,0.4-0.1,0.9-0.4,1.3c-0.3,0.5-0.5,0.7-0.8,0.7c-0.4,0-0.8-0.1-1.2-0.3
		c-1.5-0.6-2.9-0.9-4.2-1.1c-1-0.1-2.3-0.2-3.7-0.2c-1.7,0-3.1,0.1-4.3,0.3c-1.3,0.3-2.6,0.6-3.8,1c-0.4,0.1-0.7,0.2-0.9,0.2
		c-0.4,0-0.6-0.3-0.7-0.7c0-0.3,0.1-0.5,0.4-0.7c0.2-0.2,0.5-0.4,0.8-0.4c3.7-0.5,6.5-0.8,8.2-0.8l-0.1-1.5c-1.6,0-2.8,0.1-3.5,0.2
		c-0.5,0.1-0.8,0.2-0.9,0.2c-0.5,0-0.7-0.2-0.8-0.6c0-0.2,0.2-0.4,0.4-0.6C442.5,35.4,442.8,35.4,443.2,35.4z M442.3,41.2h7.7
		c0-0.2,0-0.3,0-0.4c0-0.7,0.3-1,0.8-1c0.6,0,0.8,0.3,0.8,0.8c0,0.1,0,0.3-0.1,0.6h2.7c0.2,0,0.4,0.1,0.4,0.3c0,0.3-0.1,0.6-0.3,0.8
		c-0.2,0.2-0.5,0.3-0.8,0.3c-0.3,0-1-0.1-2.1-0.2c0,0.1,0,0.1,0,0.2c0.1,1.1,0.1,2,0.1,2.5c0,0.9-0.4,1.5-1.2,1.7
		c-0.5,0.1-1,0.2-1.5,0.2c-0.4,0-0.6-0.1-0.9-0.3c-0.3-0.3-0.4-0.6-0.4-0.9c0-0.2,0.1-0.3,0.4-0.4c0.8,0,1.4-0.1,1.7-0.2
		c0.3-0.1,0.5-0.2,0.6-0.3c0.1-0.2,0.1-0.5,0.1-0.9c0-0.6,0-1.2-0.1-1.8c-0.8,0-1.6,0-2.5,0c-2.1,0-3.7,0.1-4.6,0.2
		c-0.6,0.1-0.9,0.2-1.1,0.2c-0.4,0-0.7-0.3-0.7-0.7c0-0.2,0.1-0.4,0.4-0.6C441.7,41.2,442,41.2,442.3,41.2z M446.3,43.5
		c0.2,0,0.3,0.1,0.3,0.4c0,0.1-0.1,0.3-0.2,0.5c-1.6,1.4-2.5,2.2-2.7,2.2c-0.6,0-0.8-0.2-0.8-0.5c0-0.5,0.1-0.8,0.4-0.9
		C443.2,45,444.2,44.5,446.3,43.5z M450.6,30.1c0.4,0,0.6,0.2,0.6,0.5c0,0.2-0.1,0.4-0.2,0.6c-0.1,0.2-0.1,0.3-0.2,0.5h4.4
		c0.8,0,1.6-0.2,2.6-0.5c0.2,0,0.3,0.1,0.3,0.4c0,0.4-0.1,0.7-0.3,1.1c-0.2,0.4-0.6,0.5-1,0.5c-1.5-0.2-2.7-0.4-3.5-0.4
		c0,0.3,0.1,0.6,0.1,1c0,0.4-0.1,0.6-0.4,0.6c-0.3,0-0.4-0.1-0.5-0.3c-0.3-0.7-0.5-1.1-0.5-1.2c-0.5,0-1,0.1-1.6,0.2
		c-0.1,0-0.2,0-0.3,0c-0.2,0.3-0.4,0.6-0.6,0.8c-0.2,0.3-0.4,0.4-0.6,0.4c-0.3,0-0.6-0.1-1-0.4c-0.3-0.3-0.5-0.5-0.5-0.8
		c0-0.2,0.2-0.2,0.5-0.3c0.5-0.2,0.9-0.4,1.2-0.8c0.4-0.4,0.8-0.9,1.1-1.5C450.4,30.2,450.5,30.1,450.6,30.1z"/>
	<path class="st0" d="M476.7,34.7c0,0.3-0.4,1.1-1.1,2.5c-1.1,2.1-2.3,3.8-3.5,5.1c0.4,0.3,0.8,0.5,1.1,0.7c0.4,0.3,0.8,0.4,1.2,0.6
		c0.2,0.1,0.4,0.2,0.6,0.4c0,0.2-0.3,0.5-0.8,1c-0.5,0.4-0.9,0.6-1.2,0.6c-0.3,0-0.8-0.5-1.5-1.6c-0.6-0.8-1.9-2-4-3.6
		c-0.4-0.3-0.5-0.5-0.5-0.6c0-0.2,0.2-0.3,0.5-0.3c0.2,0,0.8,0.3,1.8,0.9c0.6,0.4,1.2,0.8,1.8,1.2c2-2.7,3.2-4.7,3.7-6
		c-0.6-0.1-1.1-0.1-1.6-0.1c-1.1,0-2.4,0.1-4,0.2c-0.6,0.7-1.2,1.5-2,2.2c-1.1,1-1.9,1.5-2.4,1.5c-0.2,0-0.6-0.2-1-0.5
		c-0.4-0.3-0.6-0.6-0.6-0.8c0-0.1,0.3-0.3,1-0.5c1.1-0.4,2.2-1,3.1-1.8c0.7-0.6,1.6-1.6,2.5-3c0.2-0.4,0.5-0.6,0.7-0.6
		c0.4,0,0.5,0.2,0.5,0.5c0,0.2-0.3,0.8-1,1.9c0.9-0.1,1.9-0.2,3-0.2c0.2,0,0.5,0,1,0s0.8,0,1,0c0.1,0,0.3,0,0.5-0.1
		c0.2-0.1,0.4-0.1,0.6-0.1C476.5,34.1,476.7,34.3,476.7,34.7z"/>
	<path class="st0" d="M490.2,46.1c0,0.3-0.3,0.6-0.9,1c-0.6,0.4-1,0.6-1.3,0.6c-0.3,0-0.6-0.3-1-0.8c-0.8-1.2-1.7-2.3-2.4-3.1
		c-0.7-0.8-1-1.3-1-1.5c0-0.3,0.2-0.4,0.5-0.4c0.2,0,1.5,0.9,3.8,2.8c0.5,0.4,1.2,0.8,2.1,1.2C490.1,45.8,490.2,45.9,490.2,46.1z"/>
	<path class="st0" d="M33.8,60.4c0.3,0,0.5,0.1,0.5,0.4c0.3,0.1,0.6,0.3,1,0.6c3.7,2.3,6,3.6,6.9,3.9c0.6,0.2,1.3,0.3,2.1,0.3
		c0.3,0,0.5,0.2,0.5,0.5c0,0.4-0.3,0.7-0.9,1.1c-0.6,0.4-1.2,0.5-1.8,0.5c-0.4,0-0.8-0.2-1.1-0.5c-1.5-1.4-3.1-2.7-5-4.1
		c-0.8-0.6-1.5-1-2.1-1.2c0,0-0.1,0-0.1,0c-1.2,1.3-2.5,2.4-3.9,3.4c-1.2,0.8-2.6,1.5-4.2,2.1c-0.3,0.1-0.6,0.2-0.7,0.2
		c-0.4,0-0.8-0.2-1.2-0.7c-0.4-0.3-0.6-0.6-0.6-0.9c0-0.2,0.3-0.3,0.7-0.4c1.1-0.1,2-0.2,2.5-0.4c1.3-0.3,2.6-0.9,3.9-1.7
		c1.2-0.8,2.3-1.8,3.1-2.8C33.4,60.5,33.6,60.4,33.8,60.4z M33.9,65.8c0.6,0,0.9,0.3,0.9,0.9l-0.1,2.6c0,0,0.1,0,0.1,0h3.5
		c0.4,0,0.7,0.2,0.7,0.6c0,0.3-0.2,0.5-0.7,0.5c-1.5,0-2.7,0.1-3.6,0.2l-0.1,3.8c1.1,0,2.6,0.1,4.4,0.2c0.4,0,0.8,0,1.1,0
		c0.2,0,0.6,0,1-0.1c0.4-0.1,0.6-0.2,0.7-0.2c0.2,0,0.3,0.1,0.3,0.2c0,0.4-0.2,0.8-0.6,1.2c-0.4,0.5-0.7,0.7-1.1,0.7
		c-0.3,0-0.8-0.1-1.4-0.3c-1.5-0.4-3.3-0.6-5.4-0.6c-2.9,0-5,0.1-6.1,0.4c-0.5,0.1-1,0.2-1.3,0.2c-0.4,0-0.6-0.2-0.6-0.6
		c0-0.2,0.1-0.5,0.3-0.7c0.2-0.2,0.3-0.3,0.6-0.3c0.2,0,0.3,0,0.5,0.1c0.8-0.1,1.5-0.1,2.2-0.1c0,0,0-0.1,0-0.1
		c0.1-0.7,0.1-1.5,0.1-2.2c0-0.8-0.1-1.8-0.3-3c0-0.4,0.2-0.6,0.7-0.6c0.5,0,0.7,0.2,0.7,0.6c0.1,0.6,0.1,2,0.1,4.4
		c0,0.4,0,0.7-0.1,0.9c1,0,1.9-0.1,2.8-0.1l-0.1-7.7C33.1,66.1,33.4,65.8,33.9,65.8z"/>
	<path class="st0" d="M56.6,60.1c0.5,0,0.8,0.2,0.8,0.7l-0.1,2.3c0.4,0,0.8,0,1.1,0c0.4,0,0.9,0,1.4,0l-0.1-2.4
		c0-0.4,0.2-0.6,0.7-0.6c0.5,0,0.7,0.2,0.7,0.7L61,63.2c0.9,0.1,1.8,0.2,2.8,0.3c1.5,0.2,2.9,0.2,4.3,0.2c0.4,0,0.7,0,1-0.1
		c0.1,0,0.1,0.1,0.1,0.3c0,0.4-0.1,0.8-0.3,1.2c-0.2,0.4-0.5,0.6-0.7,0.6c-0.4,0-0.8-0.1-1.2-0.3c-1.6-0.6-3.1-0.9-4.5-1.1
		c-1.1-0.1-2.4-0.2-4-0.2c-1.8,0-3.4,0.1-4.8,0.3c-1.4,0.3-2.8,0.6-4.2,1.1c-0.4,0.1-0.8,0.2-1,0.2c-0.4,0-0.7-0.3-0.7-0.7
		c0-0.2,0.1-0.5,0.4-0.7c0.2-0.2,0.5-0.3,0.8-0.4c3-0.4,5.5-0.7,7.3-0.8L56,60.7C56,60.3,56.2,60.1,56.6,60.1z M55.8,64.4
		c0.4,0,0.7,0.2,0.7,0.6l0.1,1.5h4c0,0,0-0.1,0-0.1l0.3-1.5c0.1-0.3,0.3-0.5,0.7-0.5c0.4,0,0.6,0.2,0.6,0.6l-0.7,1.3
		c0,0,0,0.1,0,0.1h3.3c0.2,0,0.3,0.1,0.3,0.3c0,0.3-0.1,0.5-0.3,0.7c-0.2,0.2-0.4,0.3-0.8,0.3c-0.3,0-1,0-2.1-0.1
		c-0.8,0-1.8,0-2.7,0c0,0.1,0,0.2,0,0.3c0,0.3,0,0.6,0,0.9h4.5c0.2,0,0.3,0.1,0.3,0.3c0,0.3-0.1,0.5-0.2,0.7
		c-0.2,0.2-0.5,0.3-0.8,0.3c-0.2,0-0.8,0-1.6-0.1c-0.7,0-1.4,0-2.1,0c0,0.3,0,0.5,0,0.8v0.3h6.8c0.2,0,0.4,0.1,0.4,0.3
		c0,0.3-0.1,0.6-0.3,0.8c-0.2,0.2-0.5,0.3-0.8,0.3s-1.2-0.1-2.5-0.2c-0.8,0-1.6-0.1-2.5-0.1c2.7,1.6,4.4,2.5,5.1,2.6
		c0.4,0.1,0.9,0.2,1.5,0.2c0.3,0,0.4,0.1,0.4,0.4c0,0.3-0.2,0.6-0.7,0.9c-0.5,0.3-1,0.5-1.5,0.5c-0.3,0-0.6-0.1-0.9-0.4
		c-1.1-1-2.3-1.9-3.6-2.9c-0.5-0.3-0.9-0.6-1.3-0.8l0,3.2c0,0.9-0.2,1.4-0.7,1.4c-0.4,0-0.7-0.5-0.7-1.4c0-1.2,0.1-2.3,0.1-3.3
		c-1,0.9-2,1.7-3.2,2.4c-0.9,0.6-2,1.1-3.3,1.5c-0.3,0.1-0.5,0.1-0.6,0.1c-0.4,0-0.7-0.2-1.1-0.6c-0.3-0.3-0.5-0.6-0.5-0.9
		c0-0.2,0.2-0.2,0.6-0.3c0.9-0.1,1.6-0.2,2-0.3c1.1-0.2,2.1-0.5,3.1-1.1c0.8-0.4,1.5-0.9,2.1-1.4c-1.8,0-3.1,0.1-4,0.2
		c-0.6,0.1-1.1,0.2-1.2,0.2c-0.4,0-0.7-0.2-0.7-0.6c0-0.2,0.1-0.5,0.4-0.6c0.2-0.1,0.5-0.2,0.8-0.2h5.7c0-0.1,0-0.2,0-0.3
		c0-0.3,0-0.5,0-0.8c-1.5,0-2.5,0.1-3.2,0.2C54.2,70,53.9,70,53.7,70c-0.4,0-0.6-0.2-0.6-0.6c0-0.2,0.1-0.4,0.4-0.6
		c0.2-0.1,0.4-0.2,0.8-0.2h3.5c0-0.3,0-0.6,0-0.9c0-0.1,0-0.2,0-0.3c-1.9,0-3.3,0.1-4.1,0.2c-0.5,0.1-0.9,0.2-1.1,0.2
		c-0.4,0-0.6-0.2-0.6-0.6c0-0.2,0.1-0.4,0.4-0.6c0.2-0.1,0.4-0.2,0.8-0.2h2.7c0,0,0-0.1,0-0.1L55.3,65
		C55.3,64.6,55.4,64.4,55.8,64.4z M52,61.1c0.3,0.1,0.6,0.1,0.7,0.1c0.4,0,0.8-0.1,1.4-0.3c0.1,0,0.2,0.1,0.2,0.3
		c0,0.2-0.2,0.5-0.6,1c-0.4,0.5-0.7,0.7-1,0.7c-0.2,0-0.4-0.1-0.6-0.4c-0.2-0.3-0.3-0.7-0.3-1.1C51.8,61.2,51.8,61.1,52,61.1z
		 M63.1,60.8L63.1,60.8c0.6,0.2,0.9,0.3,1.2,0.4c0.2,0,0.5,0.1,0.8,0.1c0.1,0,0.2,0.1,0.2,0.3c0,0.2-0.2,0.5-0.5,0.7
		c-0.5,0.3-0.9,0.5-1.2,0.5c0,0-0.1,0-0.1-0.1c-0.1-0.1-0.3-0.6-0.6-1.4c0-0.1,0-0.1,0-0.2C62.9,60.9,63,60.8,63.1,60.8z"/>
	<path class="st0" d="M77.7,71.5c-0.2,0.8-0.5,1.6-0.9,2.5c-0.6,1.3-1.1,1.9-1.5,1.9c-0.5,0-0.9-0.6-1.3-1.9
		c-0.3-1.1-0.5-2.7-0.5-4.8c0-0.8,0.1-2,0.4-3.6c0.3-1.7,0.6-2.8,0.9-3.4c0.2-0.4,0.5-0.6,0.9-0.6c0.5,0,0.8,0.2,0.8,0.7
		c0,0.1-0.1,0.5-0.4,1c-0.4,0.8-0.6,1.7-0.9,2.8c-0.3,1.1-0.4,2.1-0.4,2.8c0,3.1,0.2,4.7,0.7,4.7c0.2,0,0.7-0.8,1.5-2.3
		c0.1-0.2,0.2-0.3,0.3-0.3C77.6,71.2,77.7,71.3,77.7,71.5z M89.8,72.3c0,0.1-0.2,0.5-0.5,1.2c-0.3,0.6-0.6,0.9-1,1.1
		c-0.5,0.2-1.6,0.3-3.4,0.3c-1.4,0-2.6-0.2-3.6-0.6c-1.4-0.6-2.1-1.5-2.1-2.7c0-1.3,0.3-2,0.9-2c0.1,0,0.2,0.1,0.2,0.3
		c-0.2,0.6-0.2,1-0.2,1.2c0,1.4,1.1,2.1,3.3,2.1c0.9,0,2-0.1,3.2-0.3c0.7-0.1,1.3-0.3,1.9-0.5c0.5-0.2,0.8-0.3,1-0.3
		C89.6,72,89.7,72.1,89.8,72.3z M87.7,63.6c0,0.2-0.6,0.8-1.8,1.6c-1.2,0.8-1.9,1.2-2.1,1.2c-0.3,0-0.4-0.1-0.4-0.3
		c0-0.1,0.3-0.5,0.8-1c0.5-0.4,0.8-0.8,1.1-0.9c-0.1,0-0.2,0-0.3,0c-1,0-2.1,0.1-3.3,0.3c-1.3,0.2-1.9,0.4-1.8,0.4
		c-0.3,0-0.4-0.2-0.4-0.5c0-0.5,0.2-0.8,0.6-1c0.2,0,0.6-0.1,1.3-0.2c1.6-0.2,3.5-0.2,5.6-0.2C87.4,63,87.7,63.2,87.7,63.6z"/>
	<path class="st0" d="M111,74.4c-0.1,0.3-0.4,0.7-1,1.2c-0.5,0.5-1,0.8-1.2,0.8l-3.2-2c-0.8-0.5-1.6-0.9-2.4-1.2c-0.3,2-1.6,3-3.8,3
		c-0.9,0-1.7-0.2-2.5-0.6c-0.9-0.5-1.3-1.2-1.3-2c0-0.9,0.4-1.6,1.3-2c0.7-0.3,1.5-0.5,2.5-0.5c0.7,0,1.4,0.1,2.3,0.3
		c-0.1-2.8-0.2-5.2-0.2-7.2v-1.8c0-0.9,0.3-1.4,0.9-1.4c0.4,0,0.6,0.6,0.7,1.8c0,0.7,0,1.4,0,2.2l2.1,0c1.3,0,2.4,0,3.2,0.1
		c0.4,0,0.6,0.2,0.6,0.5c0,0.2-0.1,0.5-0.4,0.8c-0.3,0.3-0.5,0.4-0.7,0.5c-0.6-0.1-1.1-0.2-1.7-0.4c-0.7-0.1-1.2-0.2-1.7-0.2
		c-0.4,0-0.9,0-1.4,0.1v0.5c0,0.5,0,1.4,0,2.5c0,1.1,0,1.9,0,2.5l4.3,1.6c0.9,0.4,1.8,0.6,2.7,0.7c0.2,0,0.3,0,0.5,0
		C110.9,74.1,111,74.2,111,74.4z M101.7,72.5c-1.3-0.4-2.2-0.6-2.8-0.6c-0.6,0-1.1,0.1-1.5,0.3c-0.5,0.3-0.8,0.7-0.8,1.2
		c0,0.5,0.3,0.9,1,1.1c0.5,0.2,1.1,0.3,1.7,0.3C100.7,74.8,101.5,74,101.7,72.5z"/>
	<path class="st0" d="M130.2,71.4c0,1.7-0.8,3-2.4,3.9c-1.3,0.7-2.8,1.1-4.7,1.1c-0.9,0-1.7-0.2-2.5-0.6c-0.9-0.5-1.4-1.1-1.4-1.9
		c0-1.2,0.7-1.8,2.2-1.8c1.8,0,3.2,0.9,4.3,2.6c0.8-0.3,1.4-0.6,1.9-1.2c0.5-0.6,0.8-1.3,0.8-2.1c0-0.9-0.4-1.6-1.1-2.1
		c-0.6-0.4-1.4-0.6-2.4-0.6c-1.2,0-2.5,0.2-3.8,0.6c-1.4,0.5-2.5,1.1-3.4,1.9c-0.4,0.4-0.7,0.6-0.9,0.6c-0.5,0-0.8-0.3-0.8-0.8
		c0-0.3,0.3-0.7,0.8-1.2l7.8-6.7c0.1-0.1,0.2-0.2,0.3-0.3c-0.1-0.1-0.3-0.1-0.5-0.1c-0.7,0-1.7,0-2.8,0.1c-1.5,0.1-2.3,0.2-2.6,0.3
		c-0.5,0-0.7-0.2-0.7-0.7c0-0.5,0.5-0.7,1.4-0.7c1.7,0,4.1-0.1,7-0.1c0.7,0,1,0.2,1,0.5c0,0.2-0.2,0.5-0.7,0.8
		c-2.6,2-4.9,3.9-6.9,5.6c1.6-0.7,3.3-1,5-1c1.2,0,2.3,0.3,3.2,0.9C129.7,69.2,130.2,70.2,130.2,71.4z M124.3,75
		c-0.9-1.4-1.9-2.1-2.9-2.1c-0.8,0-1.2,0.3-1.2,0.9c0,0.8,1,1.3,2.9,1.3C123.3,75.1,123.7,75,124.3,75z"/>
	<path class="st0" d="M136.2,61.9h6c0.2,0,0.3,0.1,0.3,0.3c0,0.3-0.1,0.5-0.3,0.6c-0.2,0.2-0.5,0.3-0.8,0.3c-0.1,0-0.5,0-1-0.1
		c-0.3,0-0.5,0-0.8,0l0,3.3h2.4c0.2,0,0.3,0.1,0.3,0.3c0,0.2-0.1,0.5-0.3,0.6c-0.2,0.2-0.4,0.3-0.8,0.3c-0.1,0-0.4,0-0.9-0.1
		c-0.2,0-0.5,0-0.7,0l0,3.5c1.1-0.3,1.9-0.4,2.5-0.5c0.3,0,0.4,0.1,0.4,0.4c0,0.4-0.2,0.6-0.5,0.7c-2.3,0.6-4.4,1.4-6.3,2.3
		c-0.5,0-0.7-0.2-0.7-0.6c0-0.4,0.1-0.6,0.2-0.8c0.1-0.2,0.3-0.3,0.6-0.4c0.9-0.2,1.7-0.5,2.5-0.6l0-3.8c-0.8,0-1.4,0.1-1.8,0.2
		c-0.3,0.1-0.4,0.2-0.5,0.2c-0.4,0-0.7-0.2-0.7-0.6c0-0.2,0.1-0.4,0.4-0.6c0.2-0.1,0.5-0.2,0.8-0.2h1.8l0-3.3
		c-0.8,0-1.5,0.1-1.9,0.2c-0.3,0.1-0.5,0.2-0.6,0.2c-0.4,0-0.7-0.3-0.7-0.7c0-0.2,0.1-0.4,0.4-0.6C135.6,61.9,135.9,61.9,136.2,61.9
		z M145.5,67.1c0.2,0,0.4,0,0.6,0c0.2,0,0.5,0,0.9,0h2.8c0.6,0,1.4,0,2.2,0.1c0.2,0,0.5,0,0.8-0.1c0.4,0,0.6,0.2,0.6,0.6
		c0,0,0,0,0,0.1c-0.1,0.1-0.1,0.3-0.2,0.6c0,0.4-0.1,0.7-0.1,1.1c0,0.2,0,0.4,0.1,0.8c0,0.4-0.2,0.6-0.6,0.6
		c-1.3-0.1-2.4-0.2-3.5-0.2c0,0.1,0.1,0.3,0.1,0.5c-0.1,0.6-0.1,1.2-0.1,1.7l0.1,2.8c0,0.9-0.2,1.3-0.7,1.3c-0.4,0-0.6-0.4-0.6-1.3
		c0.1-1.2,0.1-2.1,0.1-2.8c0-0.4,0-0.8,0-1.2c-1,1.2-2.2,2.2-3.6,3.2c-0.6,0.4-1.1,0.6-1.4,0.6c-0.3,0-0.6-0.1-1-0.4
		c-0.3-0.3-0.5-0.5-0.5-0.8c0-0.2,0.2-0.3,0.5-0.3c1.1-0.2,2.1-0.6,3-1.2c0.9-0.5,1.7-1.2,2.5-2c-0.4,0-0.7,0-0.9,0.1
		c-0.3,0-0.6,0.1-1.1,0.2c-0.4,0-0.6-0.2-0.6-0.6c0.1-0.6,0.2-1.1,0.2-1.5c0-0.3-0.1-0.7-0.2-1.2C144.9,67.3,145.1,67.1,145.5,67.1z
		 M144,65.4h11c0.2,0,0.3,0.1,0.3,0.3c0,0.2-0.1,0.5-0.3,0.6c-0.2,0.2-0.4,0.3-0.8,0.3c-0.3,0-0.9,0-1.9-0.1c-1.1,0-2.2,0-3.5,0
		c-2,0-3.4,0.1-4.3,0.2c-0.5,0.1-0.8,0.2-1,0.2c-0.4,0-0.6-0.2-0.7-0.6c0-0.2,0.2-0.4,0.4-0.6C143.4,65.4,143.7,65.4,144,65.4z
		 M144.2,60.5c0.2,0,0.4,0,0.6,0c0.2,0,0.5,0,0.9,0h4.2c0.9,0,2.1,0,3.4,0.1c0.2,0,0.5,0,0.7-0.1c0.4,0,0.7,0.2,0.7,0.6l0,0.1
		c-0.1,0.1-0.1,0.3-0.2,0.6c0,0.4-0.1,0.7-0.1,1.2c0,0.2,0,0.5,0.1,0.8c0,0.4-0.2,0.7-0.6,0.7c-1.9-0.1-3.6-0.2-5.1-0.2
		c-1.7,0-2.8,0-3.3,0.1c-0.4,0-0.9,0.1-1.5,0.2c-0.4,0-0.6-0.2-0.6-0.7c0.1-0.6,0.2-1.1,0.2-1.5c0-0.4-0.1-0.8-0.2-1.3
		C143.6,60.7,143.8,60.5,144.2,60.5z M147.1,63.4l0-1.8c-0.5,0-1,0-1.6,0c-0.3,0-0.4,0.1-0.4,0.4c0,0.4-0.1,0.7-0.2,1
		c0,0.3,0.2,0.5,0.5,0.5C145.9,63.4,146.5,63.4,147.1,63.4z M148.9,69.9c0.8,0,1.7,0,2.7,0.1c0.2,0,0.4-0.1,0.4-0.4v-1.1
		c0-0.1-0.1-0.2-0.2-0.2c-1.2-0.1-2.9-0.1-5.1-0.1c-0.3,0-0.4,0.1-0.4,0.4c0,0.3-0.1,0.6-0.2,0.9c0,0.3,0.2,0.5,0.5,0.5
		C147.3,70,148,69.9,148.9,69.9z M148.9,63.4c0.4,0,0.8,0,1.2,0l-0.1-1.8c-0.6,0-1.2,0-1.9,0v1.8C148.4,63.4,148.6,63.4,148.9,63.4z
		 M154.5,70.4c0.5,0,0.7,0.2,0.7,0.7c0,0.3-0.2,0.5-0.5,0.7c-0.7,0.4-1.6,0.8-2.7,1.2c-0.1,0-0.2,0.1-0.3,0.1l0,0
		c1.8,1.2,2.9,1.9,3.3,2.1c0.3,0.1,0.6,0.1,1,0.2c0.3,0,0.4,0.1,0.4,0.3c0,0.3-0.2,0.5-0.6,0.8c-0.4,0.3-0.9,0.4-1.3,0.4
		c-0.3,0-0.6-0.1-0.8-0.3c-0.6-0.8-1.3-1.6-2-2.4c-0.3-0.3-0.6-0.6-0.9-0.7c0,0-0.1,0-0.1,0c-0.1,0-0.1,0-0.1,0
		c-0.4,0-0.6-0.2-0.6-0.5c0-0.2,0.1-0.4,0.3-0.5c1.6-0.8,2.9-1.4,3.8-2.1C154.4,70.5,154.5,70.4,154.5,70.4z M151.1,61.6v1.8
		c0.6,0,1.2,0,1.8,0.1c0.3,0,0.4-0.1,0.4-0.4v-1.2c0-0.1-0.1-0.2-0.2-0.2C152.5,61.7,151.9,61.6,151.1,61.6z"/>
	<path class="st0" d="M160.2,64.8h1.9l0-3.6c0-0.6,0.2-0.8,0.7-0.8c0.6,0,0.9,0.3,0.9,0.8l-0.1,3.6h2.3c0.2,0,0.3,0.1,0.3,0.3
		c0,0.3-0.1,0.5-0.3,0.6c-0.2,0.2-0.4,0.3-0.8,0.3c-0.1,0-0.4,0-0.9-0.1c-0.2,0-0.4,0-0.6,0l-0.1,4.3c1.1-0.3,2-0.4,2.6-0.5
		c0.3,0,0.4,0.1,0.4,0.4c0,0.4-0.2,0.6-0.5,0.6c-2.2,0.6-4.2,1.3-6,2.1c-0.5,0-0.7-0.2-0.7-0.6s0.1-0.6,0.2-0.8
		c0.1-0.2,0.2-0.3,0.6-0.4c0.8-0.2,1.5-0.4,2.2-0.5l0-4.6c-0.8,0-1.4,0.1-1.8,0.2c-0.3,0.1-0.5,0.2-0.6,0.2c-0.4,0-0.7-0.2-0.7-0.6
		c0-0.2,0.1-0.5,0.4-0.6C159.6,64.8,159.8,64.8,160.2,64.8z M169.1,66.6c0.2,0,0.5,0,0.7,0c0.2,0,0.6,0,1,0h3c0.7,0,1.5,0,2.4,0.1
		c0.2,0,0.5,0,0.8-0.1c0.4,0,0.7,0.2,0.7,0.6c0,0,0,0.1-0.1,0.2c-0.1,0.2-0.1,0.5-0.1,0.9c0,0.6-0.1,1.2-0.1,1.8c0,0.4,0,1,0.1,1.7
		c0,0.4-0.2,0.7-0.7,0.7c-0.7-0.1-1.3-0.1-1.9-0.1c0,0,0,0.1,0,0.1c0,0.6,0,1.4-0.1,2.3c0,0.2,0.1,0.3,0.2,0.3
		c0.2,0,0.8,0.1,1.6,0.1c1.4,0,2.7-0.2,3.7-0.6c0.2,0,0.3,0.2,0.3,0.5c0,0.4-0.1,0.8-0.4,1.3c-0.3,0.5-0.6,0.8-0.9,0.8
		c-0.2,0-1.9-0.2-5.1-0.7c-0.5-0.1-0.7-0.4-0.7-0.8c0.1-0.9,0.1-1.5,0.1-2c0-0.4,0-0.9-0.1-1.4c-0.2,0-0.4,0-0.7,0
		c-0.3,0-0.6,0-0.9,0c0,0.1,0,0.1,0,0.2c0,0-0.1,0-0.1,0.1c-0.3,0.6-0.9,1.4-1.7,2.2c-0.8,0.8-1.7,1.3-2.6,1.7
		c-0.6,0.3-1.1,0.4-1.5,0.4c-0.3,0-0.5-0.1-0.8-0.3c-0.4-0.3-0.6-0.6-0.6-1c0-0.3,0.3-0.4,0.8-0.5c1.1-0.1,2.2-0.4,3.2-0.9
		c0.9-0.5,1.5-1.2,2-1.9c-0.2,0-0.4,0-0.6,0c-0.3,0-0.7,0.1-1.2,0.2c-0.4,0-0.6-0.2-0.6-0.7c0.1-0.9,0.2-1.7,0.2-2.4
		c0-0.7-0.1-1.4-0.2-2.4C168.4,66.8,168.7,66.6,169.1,66.6z M172.9,60c0.6,0,0.9,0.3,0.9,0.8c-0.1,0.3-0.2,0.6-0.2,0.9h4.6
		c0.2,0,0.3,0.1,0.3,0.3c0,0.3-0.1,0.5-0.3,0.6c-0.2,0.2-0.5,0.3-0.8,0.3c-0.2,0-0.7,0-1.6-0.1l-0.4,1.7h3.8c0.2,0,0.4,0.1,0.4,0.2
		c0,0.3-0.1,0.6-0.3,0.9c-0.2,0.2-0.5,0.4-0.8,0.4c-0.3,0-1-0.1-2-0.2c-1.1-0.1-2.3-0.1-3.6-0.1c-2,0-3.5,0.1-4.4,0.2
		c-0.5,0.1-0.9,0.1-1,0.1c-0.4,0-0.6-0.2-0.7-0.6c0-0.2,0.2-0.4,0.4-0.6c0.2-0.1,0.4-0.2,0.8-0.2h2.9l-0.5-1.7c-0.4,0-0.7,0.1-1,0.1
		c-0.4,0.1-0.7,0.2-0.8,0.2c-0.4,0-0.6-0.2-0.7-0.6c0-0.2,0.2-0.4,0.4-0.6c0.2-0.1,0.4-0.2,0.8-0.2h3.4c0-0.3-0.1-0.6-0.2-0.8
		C172.1,60.3,172.4,60,172.9,60z M172.9,71.4c0.9,0,1.8,0,2.9,0.1c0.3,0,0.4-0.1,0.4-0.4V70c0,0-0.1,0-0.1,0c-2.6,0-4.6,0.1-6.1,0.2
		c0,0-0.1,0-0.1,0c0,0.3,0,0.6-0.1,0.8c0,0.3,0.2,0.5,0.6,0.5C171.1,71.5,172,71.4,172.9,71.4z M170,69.1c0,0,0.1,0,0.1,0h5.9
		c0.1,0,0.1,0,0.2,0V68c0-0.1-0.1-0.2-0.2-0.2c-1.3,0-3.1-0.1-5.5-0.1c-0.3,0-0.5,0.1-0.5,0.4C170,68.4,170,68.8,170,69.1z
		 M171.8,64.6h2.7l0.2-1.8c-0.5,0-1.1,0-1.7,0c-0.5,0-1,0-1.4,0L171.8,64.6z"/>
	<path class="st0" d="M196.4,71.9c0,0.3-0.1,0.7-0.4,1.3c-0.3,0.8-0.9,1.4-1.6,1.7c-1.3,0.5-2.6,0.8-4.1,0.8c-2,0-3.8-0.7-5.2-2
		c-1.4-1.3-2.1-3-2.1-5.1c0-2.2,0.7-3.9,2.1-5.2c1.4-1.3,3.1-1.9,5.4-1.9c1.1,0,2,0.2,3,0.5c1.3,0.4,1.9,1.1,1.9,1.9
		c0,0.7-0.2,1.1-0.7,1.1c-0.2,0-0.5-0.2-0.9-0.5c-0.6-0.4-1.1-0.7-1.5-0.9c-0.7-0.3-1.5-0.5-2.3-0.5c-1.6,0-2.9,0.5-4,1.5
		c-1.1,1-1.6,2.3-1.6,3.9c0,1.6,0.5,2.8,1.5,3.8c1,1,2.2,1.5,3.8,1.5c1.1,0,2.1-0.2,3-0.6c1.1-0.4,2.1-1,3-1.7
		c0.2-0.2,0.4-0.2,0.5-0.2C196.4,71.5,196.4,71.6,196.4,71.9z"/>
	<path class="st0" d="M211.6,71.6c0,1-0.5,2-1.5,2.8c-1.1,0.9-2.7,1.3-4.8,1.3c-2.2,0-3.9-0.3-5.1-1c-0.4-0.2-0.7-0.6-0.9-1.2
		c-0.2-0.5-0.3-1-0.3-1.6c0-0.4,0.1-0.5,0.4-0.5c0.1,0,0.2,0.1,0.3,0.2c2.1,1.8,4.3,2.7,6.8,2.7c0.9,0,1.7-0.2,2.4-0.6
		c0.8-0.5,1.2-1.1,1.2-2c0-1.1-0.9-2-2.6-2.4c-1.6-0.4-3.2-0.8-4.8-1.2c-1.7-0.6-2.6-1.6-2.6-2.9c0-1.3,0.5-2.3,1.6-3
		c0.8-0.5,2-0.8,3.4-0.8c1.2,0,2.4,0.2,3.5,0.6c0.4,0.1,0.9,0.4,1.4,0.7c0.3,0.4,0.5,0.8,0.5,1.2c0,0.6-0.3,0.9-0.8,0.9
		c-0.1,0-0.4-0.2-0.9-0.6c-1.3-1.1-2.8-1.6-4.5-1.6c-1.9,0-2.8,0.8-2.8,2.3c0,0.9,0.9,1.6,2.6,2c1.6,0.4,3.2,0.8,4.9,1.2
		C210.7,69,211.6,70.1,211.6,71.6z"/>
	<path class="st0" d="M229.1,73.9c-0.1,0.3-0.4,0.6-1.1,1.1c-0.6,0.5-1.1,0.7-1.4,0.7c-0.4,0-0.9-0.4-1.4-1.3
		c-1.1-1.7-2.2-3-3.3-3.8c-0.6-0.4-1.4-0.8-2.5-1.1c-0.7-0.2-1.1-0.4-1.1-0.7c0-0.3,0.2-0.5,0.7-0.5c0.2,0,0.5,0,0.8,0.1
		c0.4,0,0.6,0.1,0.8,0.1c3.4,0,5-0.9,5-2.8c0-1.8-1.4-2.7-4.2-2.7c-1.2,0-2.5,0.1-4.1,0.3v5.2c0,0.7,0,1.7,0.1,3.1
		c0,1.4,0,2.4,0,3.1c0,0.6-0.3,0.9-0.8,1.1c-0.6-0.1-0.9-0.5-0.9-1.3c0-0.3,0-0.6,0-1.2c0-0.5,0-0.9,0-1.1v-8.7
		c-0.3,0-0.6,0.1-1.1,0.2c-0.5,0-0.7-0.3-0.7-0.7c0-0.6,0.4-1,1.1-1.1c1.2-0.2,3.1-0.2,5.8-0.2c1.7,0,3,0.3,4.1,0.8
		c1.5,0.7,2.2,1.8,2.2,3.2c0,1.1-0.5,2-1.4,2.7c-0.9,0.7-1.9,1.1-3,1.1c-0.2,0-0.5,0-0.6-0.1c0.6,0.4,1.5,0.9,2.6,1.8
		c0.6,0.5,1.1,1,1.7,1.5c0.8,0.6,1.4,0.9,2,1c0.2,0,0.2,0,0.3,0C229,73.8,229.1,73.8,229.1,73.9z"/>
	<path class="st0" d="M248.9,68.5c0,2.8-1.5,4.9-4.6,6.3c-1.2,0.6-2.2,0.9-2.9,0.9c-0.4,0-0.8-0.2-1.2-0.5c-0.4-0.3-0.7-0.7-0.7-1.1
		c0-0.1,0.2-0.3,0.6-0.3c0.3,0,0.7-0.1,1.2-0.2c1.4-0.2,2.6-0.6,3.5-1.1c0.8-0.5,1.5-1.1,2-1.8c0.6-0.8,0.8-1.7,0.8-2.6
		c0-0.7-0.2-1.5-0.7-2.2c-0.9-1.6-2.5-2.4-4.8-2.4c-0.1,0-0.2,0-0.4,0c-0.2,0-0.3,0-0.3,0c-0.9,4.1-2.1,7.2-3.6,9
		c-0.9,1.1-1.6,1.6-2.2,1.6c-0.8,0-1.5-0.6-2.1-1.9c-0.4-1-0.6-2-0.6-3c0-1.5,0.5-2.9,1.5-4.1c1.6-1.9,4-2.8,7.2-2.8
		c2,0,3.7,0.5,5.1,1.6C248.1,65,248.9,66.5,248.9,68.5z M239.8,63.6c-2.1,0.4-3.6,1.1-4.5,2.2C234.4,67,234,68,234,69
		c0,0.6,0.1,1.2,0.4,2c0.3,0.9,0.7,1.3,1.2,1.3c0.4,0,0.9-0.3,1.4-1C238.1,69.7,239.1,67.1,239.8,63.6z"/>
	<path class="st0" d="M270.3,71.5c0,1.2-0.6,2.3-1.8,3.2c-1.1,0.8-2.3,1.2-3.6,1.2c-0.4,0-0.8-0.2-1.3-0.6c-0.5-0.4-0.7-0.8-0.7-1.2
		c0-0.2,0.1-0.3,0.3-0.3c0.1,0,0.3,0,0.5,0c0.2,0,0.4,0,0.5,0c1.8,0,3-0.3,3.7-1c0.6-0.5,0.9-1.1,0.9-1.8c0-0.6-0.3-1.2-1-1.6
		c-0.6-0.4-1.4-0.6-2.6-0.6c-1.5,0-3.1,0.3-4.8,0.9l-0.1,4.1c0,1.4-0.5,2-1.3,2c-0.8,0-1.7-0.3-2.7-0.8c-1.1-0.6-1.7-1.3-1.7-2
		c0-0.8,0.5-1.6,1.6-2.4c0.8-0.6,1.7-1.1,2.7-1.5c0-0.7,0-1.9,0-3.6c-0.6,0-1.6,0.1-2.9,0.2c-0.7,0.2-1,0.3-0.9,0.3
		c-0.4,0-0.6-0.2-0.6-0.6c0-0.3,0.1-0.5,0.3-0.7c0.1-0.2,0.8-0.3,1.9-0.4c0.7,0,1.4,0,2.2,0c0-0.3,0-0.7,0-1.3c0-0.6,0-1,0-1.3
		c0-0.5,0.2-0.8,0.7-0.8c0.5,0,0.8,0.3,0.8,0.9l0,2.4c0.5,0,1.2,0,2.1,0c0.9,0,1.6,0,2.1,0c0.4,0,0.6,0.1,0.6,0.3
		c0,0.3-0.1,0.5-0.3,0.8c-0.2,0.3-0.4,0.4-0.6,0.5c-0.7-0.2-1.6-0.3-2.7-0.3c-0.1,0-0.3,0-0.6,0c-0.3,0-0.4,0-0.6,0l-0.1,3.1
		c1.6-0.5,3.2-0.8,4.7-0.8c0.9,0,1.8,0.1,2.6,0.4c1,0.3,1.7,0.8,2.1,1.4C270.1,70.2,270.3,70.8,270.3,71.5z M259,70.3
		c-1.9,1-2.8,1.8-2.8,2.5c0,0.5,0.3,0.9,0.8,1.2c0.5,0.2,1,0.4,1.5,0.4c0.3,0,0.5-0.3,0.5-0.8C259,72.8,259,71.7,259,70.3z
		 M271.5,65.2c0,0.2-0.3,0.6-0.7,1c-0.4,0.4-0.7,0.7-1,0.7c-0.3,0-0.9-0.5-1.8-1.5c-0.8-1-1.2-1.7-1.2-2.1c0-0.2,0.1-0.3,0.2-0.3
		c0.1,0,0.6,0.3,1.5,0.8c0.9,0.6,1.7,0.9,2.3,1C271.2,64.9,271.4,65,271.5,65.2z"/>
	<path class="st0" d="M291,60.3c0.3,0,0.5,0.2,0.5,0.5s-0.1,0.5-0.4,0.6c-1.8,0.4-3.5,0.6-4.9,0.9c0,0.1,0.1,0.3,0.1,0.4
		c0,0.1,0,0.3-0.1,0.6c-0.1,0.5-0.1,1-0.1,1.4c0,0.2,0,0.4,0,0.6h5.7c0.2,0,0.4,0.1,0.4,0.2c0,0.3-0.1,0.6-0.3,0.9
		c-0.2,0.2-0.5,0.4-0.8,0.4c-0.3,0-1-0.1-2.2-0.2c-0.8,0-1.8-0.1-2.7-0.1c0,0.8,0,1.6,0,2.4c1.4,0,2.9,0.1,4.5,0.3
		c1.5,0.1,2.9,0.2,4.2,0.2c0.4,0,0.7,0,1-0.1c0.1,0,0.1,0.1,0.1,0.3c0,0.4-0.1,0.8-0.3,1.2c-0.2,0.4-0.5,0.6-0.7,0.6
		c-0.4,0-0.8-0.1-1.2-0.3c-1.6-0.5-3.1-0.9-4.4-1c-0.9-0.1-2-0.2-3.2-0.2c0,1.1,0,2.1,0,2.9c0,2-0.5,3.3-1.6,3.8
		c-0.6,0.3-1.2,0.5-1.8,0.5c-0.3,0-0.6-0.1-0.9-0.3c-0.3-0.3-0.4-0.6-0.4-0.9c0-0.2,0.1-0.3,0.4-0.4c1.1-0.1,1.8-0.3,2.1-0.6
		c0.4-0.3,0.6-0.7,0.7-1.2c0.1-0.6,0.1-1.6,0.1-3.2c0-0.2,0-0.4,0-0.5c-1.6,0-2.9,0.1-4.1,0.3c-1.4,0.3-2.8,0.6-4.2,1.1
		c-0.4,0.1-0.8,0.2-1,0.2c-0.4,0-0.6-0.3-0.6-0.7c0-0.2,0.1-0.5,0.4-0.7c0.2-0.2,0.5-0.3,0.8-0.3c4-0.6,6.9-0.9,8.8-0.9
		c0-0.8,0-1.6-0.1-2.4c-2.1,0-3.7,0-4.6,0.1c-0.6,0.1-0.9,0.1-1.1,0.1c-0.4,0-0.6-0.3-0.6-0.7c0-0.2,0.1-0.4,0.3-0.6
		c0.2-0.1,0.4-0.2,0.8-0.2h5.2c0-1.2,0-2,0-2.4c0-0.1,0-0.2,0-0.4c-0.6,0.1-1.1,0.2-1.7,0.2c-1.4,0.2-2.3,0.2-2.8,0.2
		c-0.4,0-0.8-0.1-1.1-0.4c-0.2-0.2-0.3-0.5-0.3-0.7c0-0.2,0.1-0.2,0.4-0.3c2.7,0,5-0.2,6.7-0.5c1.8-0.2,3.3-0.4,4.5-0.7
		C290.7,60.3,290.9,60.3,291,60.3z"/>
	<path class="st0" d="M304.4,60.1c0.4,0,0.6,0.2,0.6,0.5c0,0.2-0.1,0.4-0.2,0.6c-0.7,0.8-1.4,1.6-2.2,2.4c0.1,0.1,0.1,0.3,0.1,0.6
		c-0.1,1.4-0.1,2.6-0.1,3.7l0.1,7.7c0,1-0.3,1.5-0.8,1.5c-0.4,0-0.6-0.5-0.6-1.5c0-3.3,0.1-5.9,0.1-7.7c0-1,0-2,0-3.2
		c-0.2,0.2-0.4,0.3-0.6,0.5c-0.6,0.5-1.1,0.7-1.6,0.7c-0.4,0-0.7-0.1-1.1-0.4c-0.4-0.3-0.6-0.6-0.6-0.9c0-0.2,0.2-0.4,0.5-0.4
		c1.2-0.3,2.2-0.7,3.2-1.4c1-0.6,2-1.5,2.9-2.6C304.1,60.2,304.3,60.1,304.4,60.1z M311.3,67.3c1,0,2.1,0,3.4,0.1
		c1,0,1.9,0.1,2.6,0.1c0.5,0,1.2-0.1,1.9-0.3c0.1,0,0.2,0.2,0.2,0.5c0,0.5-0.2,1.1-0.6,1.6c-0.3,0.4-0.6,0.6-0.8,0.6
		c-0.3,0-0.7-0.1-1.2-0.4c-0.7-0.4-1.5-0.7-2.4-0.8c-1-0.2-2-0.2-3.2-0.2c0,0-0.1,0-0.1,0c0.3,0.1,0.4,0.4,0.4,0.8
		c0,0.1,0,0.2-0.1,0.3c-0.7,1.2-1.2,2.1-1.6,2.8c-0.3,0.5-0.7,1.1-1.2,1.8c0,0.1,0.1,0.2,0.4,0.2h5.4c0.3,0,0.5-0.1,0.5-0.3
		c0,0,0-0.1,0-0.1c-0.3-0.5-0.7-1-1.3-1.7c0-0.1-0.1-0.1-0.1-0.2c0-0.4,0.2-0.6,0.7-0.6c0.1,0,0.2,0.1,0.3,0.2
		c0.6,0.8,1.3,1.8,2.1,3c0.1,0.1,0.1,0.3,0.1,0.4c0,0.4-0.2,0.7-0.6,0.7H309c-0.5,0-1.1,0-1.9,0.1c-0.6,0-0.9-0.2-0.9-0.6
		c0-0.2,0.1-0.5,0.4-0.7c0.3-0.3,0.6-0.7,0.8-1c0.4-0.5,0.8-1,1.2-1.7c0.4-0.7,0.9-1.6,1.4-2.8c0.1-0.2,0.2-0.4,0.3-0.5
		c-0.9,0-1.7,0.1-2.5,0.2c-0.7,0.1-1.7,0.4-3,1c-0.6,0-0.8-0.2-0.8-0.7c0-0.3,0.1-0.5,0.4-0.7c0.3-0.3,0.7-0.5,1.1-0.5
		C308,67.5,309.9,67.3,311.3,67.3z M308.2,63.1h7.7c0.2,0,0.4,0.1,0.4,0.3c0,0.3-0.1,0.6-0.3,0.8c-0.2,0.2-0.5,0.3-0.8,0.3
		c-0.2,0-0.6-0.1-1.3-0.2c-0.7,0-1.5-0.1-2.3-0.1c-1.4,0-2.4,0.1-3.1,0.2c-0.4,0.2-0.6,0.2-0.7,0.2c-0.5,0-0.8-0.3-0.8-0.8
		c0-0.2,0.2-0.4,0.4-0.6C307.5,63.2,307.8,63.1,308.2,63.1z"/>
	<path class="st0" d="M331.5,71c0,0.5-0.5,1.4-1.6,2.7c-1.1,1.3-2,2-2.6,2c-0.6,0-1.2-0.4-1.9-1.1c-1.2-1.4-1.8-3.9-1.8-7.6
		c0-1.9,0.1-3,0.3-3.5c0.2-0.3,0.4-0.5,0.8-0.5c0.5,0,0.8,0.2,0.8,0.7c0,0-0.1,0.5-0.2,1.3c-0.2,1.4-0.3,2.7-0.3,3.9
		c0,1.5,0.3,2.7,0.8,3.6c0.5,0.8,1,1.2,1.5,1.2c0.5,0,1.2-0.5,2.3-1.5c1-1,1.6-1.5,1.7-1.5C331.4,70.6,331.5,70.7,331.5,71z
		 M340.6,70.3c0,0.3-0.3,0.7-0.8,1.2c-0.5,0.4-0.9,0.6-1.2,0.6c-0.5,0-1.3-0.8-2.3-2.4c-1-1.6-1.6-2.8-1.6-3.3
		c0-0.2,0.1-0.3,0.3-0.3c0.2,0,0.5,0.3,1,1c0.5,0.7,1.2,1.3,1.9,1.8c0.7,0.6,1.4,1,1.9,1.1c0.2,0,0.3,0.1,0.4,0.1
		C340.5,70.1,340.6,70.2,340.6,70.3z"/>
	<path class="st0" d="M360.9,66.1c0,0.3-0.3,0.6-0.9,1c-1.4,0.9-3.4,2-6,3.4c0,0.1,0,0.4,0,0.8c0,0.3,0,0.6,0,0.8
		c0,0.5-0.3,0.7-0.8,0.7c-0.3,0-0.5-0.2-0.6-0.6c0-0.1,0-0.4,0-1c-1,0.5-1.6,0.8-1.9,1.1c-0.8,0.6-1.2,1.1-1.2,1.7
		c0,0.4,0.4,0.6,1.2,0.8c0.6,0.1,1.2,0.2,1.8,0.2c1.7,0,3.3-0.3,4.7-0.8c1.1-0.4,1.6-0.6,1.7-0.6c0.1,0,0.2,0.1,0.2,0.4
		c0,0.5-0.2,1-0.5,1.5c-0.2,0.4-0.9,0.6-1.9,0.8c-0.8,0.1-1.7,0.1-2.7,0.1c-1.3,0-2.4-0.1-3.4-0.4c-1.5-0.4-2.2-1.1-2.2-2
		c0-0.8,0.6-1.6,1.7-2.4c0.2-0.2,1.1-0.7,2.6-1.7c0-0.9-0.1-1.4-0.1-1.6c-0.2-0.6-0.6-0.9-1.2-0.9c-0.9,0-1.6,0.2-2.2,0.5
		c-0.3,0.1-0.9,0.6-1.9,1.4c-0.1,0.1-0.3,0.2-0.5,0.3c-0.4,0-0.7-0.3-0.7-0.9c0-0.4,0.5-0.9,1.4-1.4c1.3-0.8,2.5-1.8,3.5-3.2
		c-0.5,0.1-1.3,0.2-2.3,0.3c0,0-0.3,0.1-0.9,0.2c-0.4,0.1-0.7,0.2-0.9,0.2c-0.4,0-0.6-0.2-0.6-0.7c0-0.6,0.5-0.9,1.4-1
		c0.9,0,2.2-0.1,3.9-0.1c0.2-0.3,0.5-0.9,0.9-1.9c0.2-0.5,0.5-0.7,0.9-0.7c0.5,0,0.8,0.2,0.8,0.7c0,0.2-0.3,0.8-1,1.9
		c0.5,0,1.2,0,2.3,0c1,0,1.8,0,2.3,0c0.1,0,0.3,0,0.6,0c0.2,0,0.4-0.1,0.6-0.1c0.1,0,0.2,0.1,0.3,0.2c0,0.3-0.2,0.6-0.5,1
		c-0.3,0.4-0.6,0.6-0.9,0.6c-0.3,0-0.6-0.1-0.9-0.2c-0.3-0.1-0.6-0.1-0.9-0.2c-0.7-0.2-1.8-0.3-3.3-0.3c-0.8,1-1.5,1.9-2.2,2.6
		c0.6-0.1,1.1-0.1,1.6-0.1c1.3,0,2.1,0.8,2.2,2.3c0,0.2,0,0.3,0.1,0.4c2.1-1.3,3.9-2.4,5.2-3.3c0.4-0.3,0.8-0.4,1.1-0.4
		C360.7,65.4,360.9,65.6,360.9,66.1z"/>
	<path class="st0" d="M374.8,71c0,0.5-0.5,1.4-1.6,2.7c-1.1,1.3-2,2-2.6,2c-0.6,0-1.2-0.4-1.9-1.1c-1.2-1.4-1.8-3.9-1.8-7.6
		c0-1.9,0.1-3,0.3-3.5c0.2-0.3,0.4-0.5,0.8-0.5c0.5,0,0.8,0.2,0.8,0.7c0,0-0.1,0.5-0.2,1.3c-0.2,1.4-0.3,2.7-0.3,3.9
		c0,1.5,0.3,2.7,0.8,3.6c0.5,0.8,1,1.2,1.5,1.2c0.5,0,1.2-0.5,2.3-1.5c1-1,1.6-1.5,1.7-1.5C374.7,70.6,374.8,70.7,374.8,71z
		 M383.9,70.3c0,0.3-0.3,0.7-0.8,1.2c-0.5,0.4-0.9,0.6-1.2,0.6c-0.5,0-1.3-0.8-2.3-2.4c-1-1.6-1.6-2.8-1.6-3.3
		c0-0.2,0.1-0.3,0.3-0.3c0.2,0,0.5,0.3,1,1c0.5,0.7,1.2,1.3,1.9,1.8c0.7,0.6,1.4,1,1.9,1.1c0.2,0,0.3,0.1,0.4,0.1
		C383.8,70.1,383.9,70.2,383.9,70.3z"/>
	<path class="st0" d="M398.9,63.9c0,0.2-0.1,0.4-0.3,0.7s-0.3,0.5-0.5,0.5c-1.1-0.2-2-0.3-2.8-0.3c-0.1,0-0.3,0-0.5,0
		c-0.2,0-0.4,0-0.5,0c-0.4,1.7-0.8,3.3-1.4,4.7c-1.6,4.1-2.9,6.1-3.8,6.1c-0.3,0-0.6-0.1-1-0.2c-0.5-0.2-0.7-0.4-0.7-0.6
		c0-0.1,0.3-0.5,1-1.2c1.1-1.1,2.1-2.5,3-4.1c0.9-1.6,1.5-3.2,1.8-4.6c-1.5,0.1-2.9,0.3-4.1,0.7c-0.4-0.1-0.6-0.2-0.6-0.6
		s0.1-0.5,0.2-0.7c0.1-0.2,0.9-0.3,2.2-0.5c0.8-0.1,1.6-0.2,2.4-0.2c0.1-0.6,0.2-1.4,0.2-2.1c0-0.6,0.3-0.9,0.7-0.9
		c0.4,0,0.7,0.2,0.7,0.6c0,0.2-0.1,1-0.4,2.3c2.1-0.1,3.4-0.2,3.7-0.2S398.9,63.6,398.9,63.9z M405.3,73.5c0,0.4-0.1,0.8-0.4,1.4
		c-0.3,0.5-0.8,0.9-1.5,1.1c-0.4,0.1-1,0.1-1.9,0.1c-4.1,0-6.1-1-6.1-3c0-0.3,0.1-0.6,0.2-0.9c0.1-0.4,0.3-0.6,0.6-0.6
		c0.3,0,0.4,0.1,0.4,0.4c0,0.1,0,0.3-0.1,0.5c0,0.2-0.1,0.4-0.1,0.5c0,0.9,0.8,1.4,2.3,1.4c2.4,0,4.4-0.4,5.8-1.1
		c0.4-0.2,0.6-0.3,0.6-0.3C405.2,73.1,405.3,73.2,405.3,73.5z M403.1,67.2c-0.1,0.2-0.6,0.7-1.5,1.4c-0.9,0.7-1.6,1.1-1.9,1.2
		c-0.1,0-0.2-0.1-0.2-0.3c0-0.2,0.2-0.5,0.6-0.9c0.3-0.2,0.6-0.5,0.8-0.8c-0.1,0-0.3,0-0.6,0c-1.1,0-2,0.1-2.7,0.2
		c-0.9,0.2-1.3,0.3-1.3,0.3c-0.3,0-0.5-0.1-0.5-0.4c0-0.3,0.1-0.5,0.3-0.7c0.4-0.4,1.9-0.6,4.6-0.6h0.9
		C402.5,66.6,403,66.8,403.1,67.2z"/>
	<path class="st0" d="M424,71.3c0,0.5-0.1,1-0.4,1.6c-0.4,1-1.6,1.9-3.6,2.5c-1.6,0.5-3.1,0.8-4.5,0.8c-1.7,0-2.8-0.7-3.4-2.1
		c-0.4-0.9-0.5-3.2-0.5-6.8c0-3.6,0.1-5.6,0.3-5.8c0.2-0.2,0.5-0.4,0.8-0.4c0.6,0,0.9,0.4,0.9,1.1c0,0.2-0.1,0.9-0.2,2.1
		c-0.2,1.9-0.3,3.7-0.3,5.3c0,1.4,0,2.3,0.1,2.6c0.1,1.2,0.4,2,0.9,2.3c0.4,0.2,0.8,0.3,1.4,0.3c1.2,0,2.5-0.3,3.9-1
		c1.3-0.6,2.4-1.4,3.4-2.3c0.6-0.6,1-0.9,1-0.9C423.9,70.6,424,70.8,424,71.3z"/>
	<path class="st0" d="M445.6,74.1c-0.1,0.3-0.3,0.7-0.8,1.2c-0.4,0.5-0.8,0.8-1.1,0.8c-0.4,0-1-0.3-2-0.9c-0.6-0.4-1.2-0.8-1.7-1.2
		c-0.5-0.3-1.1-0.6-2-0.9c-0.2,2-1.4,3-3.7,3c-0.9,0-1.6-0.2-2.3-0.6c-0.8-0.4-1.2-1.1-1.2-1.9c0-0.9,0.4-1.5,1.3-1.9
		c0.7-0.3,1.5-0.5,2.4-0.5c0.6,0,1.4,0.1,2.2,0.3c0-0.4,0-0.9,0-1.5c0-0.8,0-1.3,0-1.5c0,0,0,0,0-0.1c0-0.1,0-0.1,0-0.1
		c-1.6,0.1-2.9,0.2-3.9,0.4c-0.1,0-0.2,0-0.4,0.1c-0.2,0.1-0.3,0.1-0.4,0.1c-0.4,0-0.6-0.2-0.6-0.7c0-0.5,0.4-0.9,1.3-0.9
		c0.7-0.1,2-0.2,3.8-0.2c0-0.8,0-1.8,0-3c-1.3,0-2.1,0.1-2.3,0.1c-0.9,0.1-1.6,0.2-2.3,0.3c-0.6,0.2-0.9,0.2-1,0.2
		c-0.5,0-0.8-0.3-0.8-0.9c0-0.2,0.1-0.4,0.2-0.5c0.2-0.2,2.2-0.3,6.1-0.3c0-1.1-0.1-1.8-0.1-1.9c0-0.6,0.3-0.9,0.8-0.9
		c0.6,0,0.9,0.3,0.9,0.9c0,0.5,0,1.2-0.1,1.9c2.9,0.1,4.9,0.2,5.8,0.2c0.4,0,0.5,0.1,0.5,0.2c0,0.3-0.1,0.6-0.4,1
		c-0.3,0.4-0.5,0.6-0.7,0.6c0.1,0-0.3-0.1-1.2-0.4c-0.9-0.2-2.2-0.4-4.1-0.5c0,1,0,2,0,2.9c1.8,0,3.4,0.1,4.8,0.3
		c0.1,0,0.2,0,0.3,0.1c0,0,0.1,0.1,0.1,0.2c0,0.3-0.1,0.5-0.3,0.8c-0.2,0.3-0.4,0.5-0.6,0.5c0,0-0.6-0.1-1.5-0.3
		c-0.8-0.2-1.8-0.2-2.9-0.3c0,0.2,0,1.3-0.1,3.6c1.5,0.4,2.9,0.9,4.2,1.4c0.9,0.3,1.8,0.5,2.8,0.6C445.4,73.8,445.6,73.9,445.6,74.1
		z M436.8,72.6c-1-0.3-1.8-0.4-2.4-0.4c-1.6,0-2.5,0.5-2.5,1.4c0,0.4,0.3,0.8,0.9,1c0.4,0.2,0.9,0.3,1.4,0.3c0.8,0,1.4-0.2,1.8-0.6
		C436.4,74,436.6,73.4,436.8,72.6z"/>
	<path class="st0" d="M468.2,64.2c-0.1,0.3-0.3,0.8-0.7,1.2c-0.4,0.5-0.8,0.8-1.1,0.8c-0.3-0.1-0.8-0.3-1.4-0.6
		c-1.3-0.5-2.8-0.8-4.4-0.9c0,0.9,0,2.2-0.1,4c0.4,1.1,0.6,1.9,0.6,2.4c0,1-0.3,1.9-1,2.8c-0.6,0.8-1.4,1.5-2.3,1.9
		c-1.1,0.6-2,0.8-2.7,0.8c-0.4,0-0.8-0.2-1.2-0.6c-0.4-0.4-0.6-0.8-0.6-1.2c0-0.1,0.2-0.2,0.7-0.3c1.4-0.1,2.4-0.2,3-0.4
		c1.1-0.3,1.9-0.9,2.4-1.8c0.3-0.6,0.5-1.1,0.5-1.5c0,0,0-0.1,0-0.1c0-0.1,0-0.2,0-0.2c-0.3,0.5-0.7,0.9-1.3,1.2
		c-0.6,0.3-1.2,0.5-1.7,0.5c-0.8,0-1.5-0.3-2.2-0.8c-0.6-0.5-1-1.2-1-1.9c0-0.9,0.4-1.5,1.1-2c0.6-0.4,1.4-0.6,2.3-0.6
		c0.7,0,1.3,0.2,2.1,0.6c0-0.4,0-1.3,0-2.8c-2.4,0-4.5,0.3-6.5,0.9c-1.1,0.4-1.7,0.6-1.8,0.6c-0.5,0-0.8-0.3-0.8-0.9
		c0-0.5,0.6-0.9,1.9-1.2c0.8-0.1,1.6-0.2,2.4-0.3c1.4-0.2,3-0.3,4.8-0.3c-0.1-1.5-0.1-2.3-0.1-2.4c0-0.7,0.2-1,0.7-1
		c0.6,0,0.8,0.4,0.8,1.3c0,0.2,0,0.6,0,1.1c0,0.4,0,0.8,0,1c2.7,0.2,5.1,0.3,7.1,0.3C467.9,64,468.1,64.1,468.2,64.2z M459.2,69
		c-0.5-0.7-1.2-1-2-1c-0.5,0-1,0.1-1.5,0.4c-0.5,0.3-0.7,0.7-0.7,1.2c0,0.5,0.2,0.9,0.5,1.2c0.4,0.3,0.8,0.4,1.3,0.4
		C458.3,71.1,459.1,70.4,459.2,69z"/>
	<path class="st0" d="M478.3,74.7c0,0.8-0.3,1.5-0.8,2c-0.5,0.5-1.2,0.8-2,0.8c-0.8,0-1.5-0.3-2-0.8c-0.6-0.6-0.8-1.2-0.8-2
		s0.3-1.5,0.8-2c0.6-0.6,1.2-0.9,2-0.9c0.8,0,1.5,0.3,2,0.9C478,73.3,478.3,73.9,478.3,74.7z M477.4,74.7c0-0.5-0.2-1-0.6-1.4
		c-0.4-0.4-0.8-0.6-1.4-0.6c-0.5,0-1,0.2-1.4,0.6c-0.4,0.4-0.6,0.9-0.6,1.4s0.2,1,0.6,1.4c0.4,0.4,0.9,0.6,1.4,0.6
		c0.5,0,1-0.2,1.4-0.6C477.2,75.7,477.4,75.3,477.4,74.7z"/>
</g>
</svg>
