<?xml version="1.0" encoding="utf-8"?>
<!-- Generator: Adobe Illustrator 24.0.3, SVG Export Plug-In . SVG Version: 6.00 Build 0)  -->
<svg version="1.1" id="レイヤー_1" xmlns="http://www.w3.org/2000/svg" xmlns:xlink="http://www.w3.org/1999/xlink" x="0px"
	 y="0px" viewBox="0 0 221.7 159.1" style="enable-background:new 0 0 221.7 159.1;" xml:space="preserve">
<style type="text/css">
	.st0{fill:#D7CBAC;}
	.st1{fill:#F29F8F;}
	.st2{fill:#EA5235;}
	.st3{fill:#D89866;}
	.st4{fill:#450A08;}
	.st5{fill:#EF7B1D;}
	.st6{fill:#F5A73A;}
	.st7{fill:#F5B91B;}
	.st8{fill:#B95E21;}
	.st9{fill:#F18D1B;}
	.st10{fill:#5E4940;}
</style>
<g>
	<path class="st0" d="M70.4,85C69.8,85,69.9,85.5,70.4,85L70.4,85z"/>
	<path class="st1" d="M82.9,4.7c0.2-0.2,0.1-0.9,0-1.1c-0.2-0.5-0.8-0.4-1.1-0.1c-0.3,0.3-0.3,0.8-0.1,1.1C81.9,4.9,82.5,5,82.9,4.7
		z M82.1,3.8c0.1-0.2,0.4-0.2,0.4,0c0,0.1,0.1,0.2,0,0.4c0,0,0,0,0,0c-0.1,0-0.2,0.1-0.2,0.1c-0.1,0-0.1,0-0.2-0.1
		C82.1,4.1,82,3.9,82.1,3.8z"/>
	<path class="st1" d="M158.1,94.1c0.1-0.1,0.1-0.2,0.1-0.3c0,0,0-0.2,0-0.1c0,0,0-0.1,0-0.1c0,0,0,0,0-0.1c0,0-0.1-0.1-0.1-0.1
		c-0.1-0.1-0.1-0.1-0.2-0.2c0.1,0-0.2,0-0.1,0c-0.1,0-0.1,0-0.1,0c0,0-0.1,0.1-0.1,0.1c-0.1,0.1-0.1,0.2-0.1,0.3
		c0,0.1,0.1,0.2,0.1,0.3c0.1,0.1,0.2,0.3,0.3,0.4c0,0,0,0,0,0C158,94.4,158.1,94.2,158.1,94.1z"/>
	<path class="st1" d="M149.3,93.9c-0.4-0.1-0.9,0.2-1,0.5c-0.2,0.5,0.1,0.8,0.5,1.1c0.3,0,0.6,0,0.8-0.3
		C150,94.9,149.9,94.1,149.3,93.9z"/>
	<g>
		<path class="st1" d="M79.5,63c0.1,0,0.2,0.1,0.3,0.1c0,0,0.2,0,0.1,0c0,0,0.1,0,0.1,0c0,0,0,0,0,0c0,0,0.1-0.1,0-0.1
			c0.1-0.1,0.1-0.1,0.1-0.2c0,0.1,0-0.1,0-0.1c0,0,0-0.1,0-0.1c0,0,0,0-0.1-0.1c-0.1,0-0.2,0-0.3,0c-0.1,0-0.2,0.1-0.3,0.1
			c-0.1,0.1-0.2,0.2-0.3,0.2c0,0,0,0,0,0C79.3,62.9,79.4,63,79.5,63z"/>
		<path class="st1" d="M79.1,56.1c0.1-0.3-0.2-0.7-0.5-0.7c-0.4-0.1-0.6,0.1-0.8,0.5c0,0.2,0.1,0.4,0.3,0.6
			C78.3,56.7,78.9,56.6,79.1,56.1z"/>
		<path class="st1" d="M79.9,63.9c0.6-0.1,1-0.6,0.8-1.2c-0.1-0.3-0.8-0.8-1.3-0.6c0,0-0.7,0.3-0.9,0.6C78.3,63.4,79.4,64,79.9,63.9
			z M79.5,62.6c0.1-0.1,0.2-0.1,0.3-0.1c0.1,0,0.2,0,0.3,0c0,0,0.1,0,0.1,0.1c0,0.1,0,0.1,0,0.1c0,0,0,0.1,0,0.1
			c-0.1,0.1,0,0.1-0.1,0.2c0,0-0.1,0.1,0,0.1c0,0,0,0,0,0c0,0-0.1,0-0.1,0c0.1,0-0.1,0-0.1,0c-0.1,0-0.2,0-0.3-0.1
			c-0.1,0-0.2-0.1-0.2-0.1c0,0,0,0,0,0C79.3,62.8,79.4,62.7,79.5,62.6z"/>
		<path class="st1" d="M75.4,60.2c-0.1-0.5-0.8-0.9-1.3-0.7c0,0,0,0,0,0c-0.3,0.1-0.5,0.3-0.6,0.5c-0.2,0.3-0.2,0.8,0,1
			c0.2,0.3,0.5,0.5,0.9,0.5c0,0,0,0,0,0C75.2,61.6,75.6,60.9,75.4,60.2C75.4,60.3,75.4,60.2,75.4,60.2z"/>
		<path class="st1" d="M79.5,56.5c0.4-0.6,0-1.3-0.6-1.6c-0.6-0.3-1.5,0-1.6,0.7c0,0,0,0.1-0.1,0.1c-0.1,0.3,0.1,0.7,0.3,0.9
			C78.1,57.4,79,57.2,79.5,56.5z M78,56.5c-0.2-0.2-0.3-0.4-0.3-0.6c0.2-0.3,0.4-0.6,0.8-0.5c0.3,0.1,0.6,0.4,0.5,0.7
			C78.9,56.6,78.3,56.7,78,56.5z"/>
		<path class="st1" d="M85.8,48.9C85.8,48.9,85.8,48.9,85.8,48.9c0.5-0.2,0.5-0.9,0.1-1.2c-0.4-0.4-1.2-0.2-1.3,0.4c0,0,0,0,0,0
			c0,0.3,0,0.5,0.2,0.7C85.1,49.1,85.5,49.1,85.8,48.9z"/>
		<path class="st1" d="M82.3,4.2c0,0,0.1-0.1,0.2-0.1c0,0,0,0,0,0c0-0.1,0-0.2,0-0.4c-0.1-0.2-0.3-0.1-0.4,0c-0.1,0.1,0,0.3,0.1,0.3
			C82.2,4.2,82.2,4.2,82.3,4.2z"/>
		<path class="st1" d="M159.3,93.7c-0.1-0.8-0.7-1.3-1.5-1.2c-0.4,0.1-1.1,1-0.9,1.6c0,0.1,0.2,1,0.7,1.2
			C158.5,95.6,159.3,94.3,159.3,93.7z M157.6,94c-0.1-0.1-0.1-0.2-0.1-0.3c0-0.1,0-0.2,0.1-0.3c0-0.1,0.1-0.1,0.1-0.1
			c0.1,0,0.1,0,0.1,0c-0.1,0,0.2,0.1,0.1,0c0.1,0.1,0.1,0.1,0.2,0.2c0,0,0.1,0.1,0.1,0.1c0,0,0,0.1,0,0.1c0,0,0,0.1,0,0.1
			c0-0.1,0,0.2,0,0.1c0,0.1-0.1,0.2-0.1,0.3c0,0.1-0.1,0.2-0.2,0.3c0,0,0,0,0,0C157.8,94.4,157.7,94.2,157.6,94z"/>
		<path class="st1" d="M154.2,99c-0.7,0.1-1.2,0.9-1,1.6c0,0,0,0,0,0c0.1,0.3,0.3,0.6,0.6,0.8c0.4,0.2,1,0.3,1.3,0
			c0.4-0.2,0.7-0.6,0.7-1.1c0,0,0,0,0,0C155.8,99.4,155,98.8,154.2,99C154.2,99,154.2,99,154.2,99z"/>
		<path class="st1" d="M149.9,93.4c-0.7-0.6-1.7-0.1-2.1,0.6c-0.5,0.8-0.2,1.9,0.8,2.1c0.1,0,0.1,0.1,0.2,0.1c0.4,0.2,0.9,0,1.2-0.3
			C150.8,95.2,150.7,94.1,149.9,93.4z M149.6,95.3c-0.2,0.2-0.5,0.3-0.8,0.3c-0.4-0.3-0.7-0.6-0.5-1.1c0.1-0.4,0.6-0.7,1-0.5
			C149.9,94.1,150,94.9,149.6,95.3z"/>
		<path class="st1" d="M140.9,84.5C140.9,84.5,140.9,84.5,140.9,84.5c-0.3-0.6-1.1-0.7-1.5-0.3c-0.5,0.5-0.4,1.5,0.4,1.6
			c0,0,0,0,0,0c0.3,0.1,0.7,0,0.9-0.2C141.1,85.4,141.1,84.9,140.9,84.5z"/>
		<path class="st2" d="M141.2,114.3c-0.1-0.2-0.2-0.4-0.2-0.6c-4.4-1.5-8.9-3.1-13.6-3.5c-2.4-0.2-5.2-0.2-7.4,0.8
			c-2.3,1.1-3.3,2.6-4.5,4.6c1.7,7.2,0.8,15.2-3.3,21.3c-2.1,3.1-4.6,5.9-7.5,8.4c-1.8,1.5-3.8,2.8-5.6,4.4
			c-0.8,0.7-1.8,1.5-2.4,2.5c-0.8,1.5,2.2,1.5,3.1,1.5c3.2-0.1,6.2-1.7,8.5-3.9c4.4-4.2,7-9.8,10.1-15c0.3-0.5,0.6-0.4,0.5,0.2
			c-0.6,3.1-2.5,10.5-5,13.8c-1.5,2-2.5,3.7-3.9,5.3c-0.5,0.6-1.1,1.1-1.5,1.7c-1.6,1.6,0.4,2.9,1.4,2.6c3.5-1,7-4.2,9-7.1
			c2.4-3.5,3.9-7.5,5.7-11.3c0.5-1,0.5-0.9,0.4,0.3c-0.1,2-0.9,8.7-1.3,10.5c-0.6,2.4-2.1,5.4-1.5,7.8c0.6,2.6,6.8-4.1,7.4-5
			c5.6-7.3,7.2-16.1,8.9-24.9c0.2-1,0.9-1,0.8,0.1c-0.3,4.1-0.6,7.6-1.4,12.3c-0.2,0.9-0.3,1.8-0.4,2.7c-0.2,3,0.2,6,1.2,8.8
			c0.5,1.3,1.1,2.9,2,4c1.3,1.6,2.2,0.2,2.7-1.1c0.8-2.3,1.2-4.7,1.4-7.1c1-11.3-2.1-22.2-3.4-33.3
			C141.1,114.8,141.1,114.5,141.2,114.3z"/>
		<path class="st3" d="M221.2,124c-0.6-0.9-1.1-1.1-2.8-1.9c-3.6-1.3-7.2-2.5-11-3.2c-6-1.2-12-1-18.1-0.6
			c-13.2,0.9-26.3,3.5-39.4,5c-25.4,3-51.9,2.9-76-6.5c-9.4-3.7-18.3-8.4-26.6-14c0-0.9,0.4-9.8,0.4-10c1.6-0.1,4.6-1,6.2-3.2
			c1.7-2.3,3.3-5.1,3.4-7.9c0-1.1-1.5,0-1.5-0.1c0,3.3-3.8,9.5-8.1,9.3c0.6-3.1,1.9-6,3.3-8.4c0,0-0.5-1.4-1.2-0.5
			c-2,2.9-3.2,5.8-3.9,9.3c-0.4,1.9-0.5,3.6-0.5,5.5c0,1.6,0,3.3,0,4.8c-8.2-5.7-16-12.1-23.2-19.1c-1-1.2-2-2.4-3-3.5
			c0.2-0.2,5-6.2,3.5-13.4c-0.2-0.8-1.3-0.6-1.2,0.2c1.1,6.7-2.1,10.3-3.4,11.8c-5.5-6.4-11.2-13.1-17-19.3c-0.6-0.6-1.5,0.2-1,0.8
			c4.7,5.6,20,24.3,23.1,27.3c0.8,0.9,1.6,1.8,2.5,2.7c-0.6,0.3-12.9,4.5-17.7-0.1c-0.7-0.7-2.2,0-1.8,0.8c1.6,3.3,7.1,3.7,10.2,3.9
			c2.7,0.2,10.6-1.9,11.1-2.6c5,5.4,10.1,10.5,15.6,15.4c4,3.5,8.1,6.8,12.5,9.8c-4.6,1-13.3,5.3-13.4,5.3c-2.3-2.1-6.7-1-9.6-0.5
			c-0.7,0.1,0,1.3,0.1,1.2c1.9-0.3,6.3-1.8,8.1,0l-0.4,0.3c-3.5,2.1-6.7,4.6-9.4,8.1c-0.1,0.2,0.6,1,0.7,0.9
			c3.4-4.1,8.9-7.3,9.8-7.8c0.4,5.3-2.8,8.3-3.3,8.9c0,0,0.4,0.7,0.4,0.7c2-1.8,5-6.4,3.9-9.8c1.3-0.6,9.6-5,16.5-5.1
			c3.1,2,6.4,3.8,9.7,5.5c4,2,8.2,3.7,12.4,5.1c-2,1.7-3.8,3.7-5.7,5.5c-2.2-0.8-4.6-0.2-6.7,0.5c-2.4,0.8-5.3,1.7-7,3.7
			c-0.5,0.6,0.4,1.6,1,1.2c3.1-1.4,7-3.8,10.5-2.7c1.9,0.6,2.8,2,3.1,3.8c0,0.2,0,0.4,0,0.6c0,0.1,0,0.1,0,0.2
			c-0.3,1.3-0.7,2.7-1.2,3.9c-0.4,0.9-0.8,1.7-1,2.3c-0.1,0.2-0.2,0.3-0.3,0.5c-0.5,0.9,0.9,1.8,1.4,0.9c0.1-0.2,0.3-0.5,0.4-0.8
			c0,0,0.1,0,0.1-0.1c0.6-0.7,1.1-1.7,1.6-2.8c1.4-3.1,2.2-7.2,0.4-9.7c0.4-0.5,0.7-1,1.1-1.5c0.3-0.3,0.6-0.5,0.8-0.8
			c1.3-1.3,2.6-2.6,3.8-4c0,0,0,0,0-0.1c5.4,1.6,10.8,2.7,16.4,3.4c19.8,2.3,39.7,0.3,59.3-1.7c10-1.1,20-2.8,30-2.6
			c8.7,0.1,17.2,0.9,25.6,3c2.9,0.4,3.6,0.3,4.3-0.2c1.2-0.9,1.9-2.4,2.2-3.9C221.6,126.3,222.1,125.3,221.2,124z M9.9,90.8
			C9.8,90.8,9.8,90.7,9.9,90.8C9.9,90.7,9.9,90.8,9.9,90.8z"/>
		<path class="st4" d="M9.9,90.7C9.8,90.7,9.8,90.8,9.9,90.7C9.9,90.8,9.9,90.7,9.9,90.7z"/>
		<path class="st5" d="M178.2,34c-0.3-1.2-0.4-1.2,0.6-0.5c1.1,0.7,2.3,1.3,3.3,2.2c-0.1-0.6-0.8-1.9-0.9-2.1
			c-1.1-2.4-2.4-4.7-4.2-6.6c-0.6-0.7-1.1-0.8,0.3-0.8c0.6,0,1.3,0.2,1.9,0.3c-1.2-2.4-3.7-3.9-5.8-5.3c-1.1-0.7-0.8-0.5-0.3-1
			c2.3-2.6,3.7-6.5,4.1-10c-15,9.6-38.5-10.6-49.5,7.5c0.1-0.3-2.4-4.3-2.8-4.8c-1.3-1.5-2.9-2.5-4.8-3.2c-4.4-1.9-9.6-2.6-14.4-2.9
			C97.1,6.1,86.9,7.2,80.9,0c-0.2,4.2,1.3,9,4.5,11.5c0.5,0.4,0.4,0.4-0.4,1.2c-3,2.5-6.2,5.2-7.4,9c1.4-0.2,3.1-0.2,4.6-0.2
			c0.5,0,0.4,0.2,0.1,0.4c-2.6,2.2-4.9,4.9-6.1,8.6c1-0.3,2.5-0.6,3.7-0.6c0.5,0,0.6,0.3,0.3,0.6c-4.8,4.9-5.7,10.1-6.1,13.8
			c-0.2,1.7,0.2,4,0.6,5.2c0.5-0.2,1-0.4,1.6-0.5c2-0.3,4.9,0.2,6.5,2.3c7,9.7,5.9,22.8,2.9,32.6c-0.5,1.6-1.2,3.1-1.9,4.5
			c0.3,0.9,1.2,3,1.7,4.2c1.3,2.4,2.5,4.9,3.9,7.3c2.4,4.1,5.2,7.7,9.3,10.2c20.3,12.7,49.4,3.7,52.6,0.1c2.9-3.1,7-4.8,10.1-7.7
			c3-2.8,5.4-5.9,8.1-8.8c-2.5-6.1-3.7-12.7-3.2-19.2c0.4-5.6,1.3-12.1,5.3-16.4c2.5-2.7,7.4-3.2,9.2-3c0-0.7,0-1.6,0.1-2.1
			c0-1.6,0-3.3,0-4.9C180.6,43.3,179.5,38.7,178.2,34z"/>
		<path class="st6" d="M72.8,71.4c1.5,5.7,3.4,11.3,3.4,17.2c0,4-0.1,8-1.2,11.8c2.3-2.5,5.1-4.7,6.8-7.8c2.5-4.5,4.1-9.2,5.4-14.2
			c3.3-12.5-2-32.9-9.4-32.2c-3.7,0.4-6.3,2.8-7,6.2C69.5,58.8,71.1,65.2,72.8,71.4z"/>
		<path class="st6" d="M181.9,53.3c-2.7-1.2-9.3,0.3-12.2,5c-3.4,5.4-4.2,12.7-4.1,19c0.1,7.1,1.6,14.2,4.8,20.5
			c1.9,3.7,3.7,7.8,6.3,11.2c-0.3-0.6-0.5-1.2-0.6-1.9c-0.6-2.5-0.6-5.1-0.2-7.6c0.9-5.3,3-10.3,5-15.2
			C184.5,75.4,190.7,60.9,181.9,53.3z"/>
		<path class="st7" d="M130.8,52.8C98.2,51,91.6,75.4,95.2,88.4c5,17.9,24.6,20.7,35.5,19.6c13.3-1.3,25.8-8.9,27.3-22.8
			C159.9,67.6,142.6,53.5,130.8,52.8z"/>
		<path class="st8" d="M154,110.5c-1.3-2.8-3.7-1.3-3.8,0.7c-0.1,3.4,1.5,8.1,2.4,11.4c0.5-1.7,1.2-4.7,1.4-6.5
			C154.3,114.4,154.8,112,154,110.5z"/>
		<path class="st8" d="M148.3,110.1c-1.2-0.4-2.1,1.2-2.1,2.1c0,3.5,2,8.8,2.9,12.1c0.4-2.1,1-6.5,1.1-8.7
			C150.3,114,150.3,110.7,148.3,110.1z"/>
		<path class="st8" d="M110.2,112.8c-1,1.8-0.7,4.3-0.5,6.2c0.3,2.6,1,6.8,1.7,9.3c0.4-1.7,1.3-4.6,1.4-5.1c0.6-3.2,1.4-6.7,0.6-9.9
			C113,111.7,111.1,111.3,110.2,112.8z"/>
		<path class="st8" d="M140.8,113.6c-0.9,3,2.6,11.6,3.2,13.1c0.3-1.5,0.6-4.2,0.8-5.7c0.4-2.5,1.4-6.3,0-8.6
			C143.8,110.8,141.5,110.9,140.8,113.6z"/>
		<path class="st8" d="M117.1,112.8c-4.8-0.2-1.6,10-0.9,15.6C118.4,122.6,120.2,113,117.1,112.8z"/>
		<path class="st8" d="M105.1,111.9c-1.2,1.8-1.4,4.6-1,6.7c0.4,2.5,1.7,5.7,2.2,8.3c0.9-3.9,3-9,2.9-13
			C109.2,111.9,106.9,109.4,105.1,111.9z"/>
		<path class="st9" d="M105.5,62.4c-0.6,1.3-1.5,2.3-2.2,3.5c-0.2,0.3,0.2,0.6,0.4,0.3c0.9-1,1.6-2.5,2-3.7
			C105.8,62.3,105.5,62.2,105.5,62.4z"/>
		<path class="st9" d="M107.5,63c-0.1,0.4-0.3,0.8-0.4,1.1c-0.1,0.3-0.3,0.7-0.4,1c0,0.3,0.4,0.4,0.6,0.2c0.2-0.3,0.2-0.7,0.3-1.1
			c0.1-0.4,0.2-0.8,0.2-1.3C107.8,62.9,107.6,62.9,107.5,63z"/>
		<path class="st9" d="M109.5,64.9c-0.1-0.5-0.1-0.9,0-1.4c0-0.2-0.4-0.3-0.4-0.1c-0.1,0.7-0.4,2.2,0.3,2.7c0.2,0.1,0.4,0,0.4-0.2
			C109.8,65.5,109.6,65.2,109.5,64.9z"/>
		<path class="st9" d="M113,66.1c-0.3-0.2-0.6-0.4-0.8-0.7c-0.3-0.4-0.4-0.8-0.5-1.3c0-0.3-0.5-0.2-0.4,0.1c0.1,1,0.6,2.2,1.6,2.3
			C113.1,66.7,113.2,66.3,113,66.1z"/>
		<path class="st9" d="M115.8,66.1c-0.2-0.6-0.5-1.2-0.6-1.9c-0.1-0.3-0.6-0.2-0.5,0.1c0.1,0.7,0.3,1.3,0.5,2
			C115.3,66.7,115.9,66.5,115.8,66.1z"/>
		<path class="st9" d="M130.3,59.8c0-0.2-0.2-0.2-0.2,0c-0.1,0.8-0.3,1.6-0.5,2.4c-0.1,0.3,0.4,0.5,0.5,0.1
			C130.1,61.4,130.2,60.6,130.3,59.8z"/>
		<path class="st9" d="M132.5,60.5c0-0.3-0.5-0.3-0.5,0c-0.1,0.7-0.4,1.5-0.3,2.3c0,0.2,0.4,0.3,0.5,0
			C132.5,62,132.5,61.2,132.5,60.5z"/>
		<path class="st9" d="M134.8,61.8c0-0.3,0-0.7,0.1-1c0.1-0.3-0.4-0.5-0.5-0.2c-0.2,0.7-0.4,1.7,0,2.3c0.2,0.3,0.5,0,0.5-0.3
			C134.9,62.4,134.8,62.1,134.8,61.8z"/>
		<path class="st9" d="M138.9,62.2c-0.2-0.3-0.4-0.5-0.6-0.7c-0.2-0.3-0.4-0.6-0.5-0.9c-0.1-0.3-0.7-0.1-0.6,0.2
			c0.2,0.7,0.6,1.8,1.4,1.9C138.9,62.7,139,62.4,138.9,62.2z"/>
		<path class="st9" d="M140.8,61.3c-0.2-0.1-0.5-0.2-0.6-0.5c-0.1-0.3-0.6-0.1-0.4,0.2c0.1,0.3,0.4,0.5,0.7,0.7
			C140.8,62,141.1,61.5,140.8,61.3z"/>
		<path class="st9" d="M143.6,62.3c-0.3-0.3-0.5-0.7-0.7-1.1c-0.2-0.3-0.7-0.1-0.5,0.2c0.2,0.4,0.5,0.8,0.8,1.2
			C143.4,62.9,143.8,62.6,143.6,62.3z"/>
		<path class="st9" d="M123.1,69.6c0-0.1-0.2-0.2-0.2,0c-0.1,0.8-0.5,1.5-0.7,2.2c-0.2,0.5-0.4,0.9-0.4,1.4c0,0.4,0.6,0.4,0.7,0
			C122.9,72.2,123.2,70.8,123.1,69.6z"/>
		<path class="st9" d="M124.6,71c-0.1,0.3-0.1,0.6-0.2,0.9c0,0.3-0.1,0.7-0.1,1c0,0.3,0.5,0.3,0.6,0c0-0.3,0-0.5,0-0.8
			c0-0.3,0.1-0.7,0.2-1C125.2,70.8,124.7,70.7,124.6,71z"/>
		<path class="st9" d="M127.3,73.4c-0.1-0.5-0.4-1-0.4-1.5c0-0.2-0.3-0.3-0.4,0c-0.1,0.6,0,1.1,0.3,1.6
			C127,73.7,127.4,73.6,127.3,73.4z"/>
		<path class="st9" d="M130.5,73.4c-0.1-0.4-0.3-0.6-0.5-1c-0.2-0.4-0.4-0.8-0.4-1.3c0-0.2-0.3-0.1-0.3,0.1c0,0.7,0.2,2,0.9,2.4
			C130.3,73.8,130.6,73.6,130.5,73.4z"/>
		<path class="st9" d="M133.1,73.5c-0.5-0.5-0.9-0.9-1-1.6c0-0.3-0.4-0.2-0.4,0.1c0.1,0.7,0.5,1.4,1.1,1.9
			C133,74.1,133.3,73.7,133.1,73.5z"/>
		<path class="st9" d="M135.4,72.8c-0.1-0.5-0.4-0.9-0.7-1.3c-0.2-0.3-0.7-0.1-0.5,0.3c0.2,0.4,0.5,0.8,0.6,1.2
			C134.9,73.3,135.5,73.2,135.4,72.8z"/>
		<path class="st9" d="M106.8,77.9c-0.2,0.6-0.5,1.1-0.8,1.6c-0.3,0.5-0.7,0.9-0.9,1.4c-0.2,0.4,0.4,0.6,0.6,0.3
			c0.4-0.4,0.6-1,0.8-1.5c0.2-0.6,0.5-1.1,0.6-1.7C107.1,77.8,106.8,77.7,106.8,77.9z"/>
		<path class="st9" d="M108.2,79.2c-0.1,0.5-0.3,0.9-0.5,1.3c-0.2,0.4-0.4,0.8-0.5,1.3c0,0.3,0.4,0.4,0.5,0.2
			c0.3-0.4,0.3-0.8,0.4-1.3c0.1-0.5,0.2-1,0.3-1.5C108.5,79.1,108.2,79,108.2,79.2z"/>
		<path class="st9" d="M109.8,81.3c-0.1-0.5-0.1-1,0-1.5c0-0.3-0.4-0.3-0.4,0c0,0.5-0.1,1.1-0.1,1.6c0,0.4,0,0.9,0.2,1.2
			c0.2,0.2,0.5,0.1,0.5-0.2C110.1,82,109.9,81.6,109.8,81.3z"/>
		<path class="st9" d="M112.2,82.3c-0.3-0.5-0.6-0.9-0.6-1.5c0-0.3-0.4-0.3-0.4,0c-0.1,0.7,0.1,1.5,0.7,1.9
			C112,82.8,112.3,82.6,112.2,82.3z"/>
		<path class="st9" d="M114.2,81.7c-0.1-0.1-0.1-0.2-0.1-0.3c0-0.1-0.1-0.2-0.2-0.3c-0.2-0.3-0.6,0.1-0.4,0.3
			c0.1,0.1,0.1,0.2,0.1,0.3c0,0.1,0.1,0.2,0.2,0.3C114,82.3,114.4,81.9,114.2,81.7z"/>
		<path class="st9" d="M117.7,82.1c-0.6-0.4-1.1-1-1.5-1.5c-0.2-0.2-0.6,0-0.4,0.3c0.4,0.7,1,1.3,1.7,1.7
			C117.7,82.7,118,82.3,117.7,82.1z"/>
		<path class="st9" d="M137,77.9c0-0.1-0.2-0.1-0.2,0c0,0.5,0,0.9-0.1,1.4c-0.1,0.4-0.2,0.9-0.2,1.3c0,0.3,0.4,0.4,0.5,0.1
			C137.4,79.9,137.2,78.7,137,77.9z"/>
		<path class="st9" d="M138.9,78.8c-0.2,0.5-0.2,1.1-0.4,1.6c-0.1,0.3,0.4,0.5,0.5,0.1c0.1-0.5,0.1-1.1,0.3-1.6
			C139.3,78.7,139,78.6,138.9,78.8z"/>
		<path class="st9" d="M141.3,80.3c-0.1-0.4-0.2-0.8-0.3-1.2c0-0.2-0.4-0.3-0.4,0c0,0.5,0,0.9,0.2,1.4
			C141,80.7,141.4,80.5,141.3,80.3z"/>
		<path class="st9" d="M144,80.5c-0.3-0.4-0.5-0.9-0.6-1.4c-0.1-0.3-0.5-0.2-0.4,0.1c0.1,0.6,0.3,1.1,0.6,1.6
			C143.8,81.2,144.3,80.9,144,80.5z"/>
		<path class="st9" d="M147,80c-0.4-0.2-0.8-0.5-1.1-1c-0.1-0.2-0.5-0.1-0.4,0.2c0.3,0.5,0.7,1,1.2,1.3
			C147.1,80.9,147.4,80.2,147,80z"/>
		<path class="st9" d="M149.3,78.9c-0.2-0.1-0.3-0.4-0.4-0.6c-0.2-0.4-0.8-0.1-0.6,0.3c0.2,0.3,0.3,0.6,0.6,0.8
			C149.3,79.7,149.7,79.1,149.3,78.9z"/>
		<path class="st9" d="M127.6,86c-0.2,1.4-1,2.4-1.6,3.7c-0.2,0.4,0.5,0.7,0.7,0.3c0.7-1.2,1-2.6,1.1-4
			C127.8,85.9,127.6,85.8,127.6,86z"/>
		<path class="st9" d="M129.2,86.4c0-0.1-0.2-0.1-0.2,0c-0.1,0.7-0.2,1.3-0.4,1.9c-0.1,0.5-0.4,0.9-0.3,1.5c0.1,0.3,0.5,0.4,0.7,0.1
			c0.3-0.5,0.3-1.1,0.3-1.7C129.3,87.6,129.3,87,129.2,86.4z"/>
		<path class="st9" d="M131.3,88.9c-0.1-0.7-0.2-1.4-0.4-2.1c-0.1-0.2-0.4-0.2-0.4,0.1c0.1,0.8,0,1.7,0,2.5c0,0.5,0,1.2,0.5,1.4
			c0.2,0.1,0.4-0.1,0.4-0.2C131.8,90.1,131.4,89.4,131.3,88.9z"/>
		<path class="st9" d="M134.2,89.9c-0.1-0.4-0.4-0.8-0.6-1.2c-0.2-0.5-0.3-1.1-0.5-1.6c0-0.2-0.3-0.1-0.2,0c0.2,1-0.1,2.5,0.7,3.2
			C133.9,90.5,134.3,90.2,134.2,89.9z"/>
		<path class="st9" d="M137.2,89.3c-0.2-0.4-0.5-0.8-0.8-1.2c-0.3-0.4-0.6-0.7-0.9-1.1c-0.1-0.1-0.3,0-0.2,0.1
			c0.5,0.8,0.6,2.1,1.5,2.5C137,89.9,137.3,89.6,137.2,89.3z"/>
		<path class="st9" d="M139.3,89.2c-0.2-0.6-0.7-1.2-1.1-1.8c-0.2-0.3-0.7,0-0.5,0.3c0.4,0.6,0.7,1.1,1,1.7
			C138.9,89.8,139.4,89.5,139.3,89.2z"/>
		<path class="st9" d="M105.1,89.4c-0.3,0.7-0.6,1.5-0.8,2.2c-0.1,0.5,0.6,0.7,0.7,0.2c0.2-0.7,0.3-1.5,0.6-2.2
			C105.7,89.3,105.3,89.1,105.1,89.4z"/>
		<path class="st9" d="M107.6,91.2c0-0.4-0.5-0.4-0.6,0c0,0.3-0.1,0.7-0.2,1c-0.1,0.3-0.2,0.7-0.3,1c0,0.4,0.5,0.5,0.7,0.1
			C107.6,92.7,107.6,91.9,107.6,91.2z"/>
		<path class="st9" d="M109.4,93.4c-0.1-0.4-0.1-0.9-0.2-1.3c-0.1-0.4-0.7-0.3-0.6,0.1c0.1,0.4,0.1,0.8,0.2,1.2
			C109,93.9,109.5,93.8,109.4,93.4z"/>
		<path class="st9" d="M111.8,93.5c-0.2-0.5-0.5-1-0.5-1.6c0-0.3-0.5-0.4-0.5,0c0,0.6,0,1.4,0.5,1.9C111.5,94,111.9,93.8,111.8,93.5
			z"/>
		<path class="st9" d="M114.7,93.6c-0.2-0.6-0.7-1.1-0.9-1.7c-0.1-0.3-0.7-0.1-0.5,0.2c0.3,0.6,0.5,1.1,0.8,1.7
			C114.3,94.2,114.8,94,114.7,93.6z"/>
		<path class="st9" d="M120.4,97.4c-0.3,0.6-0.6,1.2-0.9,1.8c-0.2,0.4-0.5,0.8-0.6,1.3c-0.1,0.5,0.6,0.9,0.8,0.4
			c0.5-1,0.8-2.3,1-3.5C120.8,97.3,120.5,97.2,120.4,97.4z"/>
		<path class="st9" d="M122,99.8c0-0.4,0-0.9,0-1.3c0-0.3-0.4-0.3-0.5,0c0,0.4-0.1,0.9-0.1,1.3c0,0.4-0.2,0.9-0.2,1.3
			c0,0.5,0.7,0.5,0.8,0C122.1,100.7,122.1,100.3,122,99.8z"/>
		<path class="st9" d="M124.6,100.9c0-0.3-0.2-0.7-0.3-1c-0.1-0.4-0.2-0.7-0.2-1.1c-0.1-0.4-0.6-0.2-0.5,0.1c0.1,0.7,0,1.7,0.4,2.3
			C124.2,101.5,124.6,101.2,124.6,100.9z"/>
		<path class="st9" d="M127,100.6c-0.3-0.5-0.5-1-0.6-1.6c-0.1-0.4-0.6-0.2-0.6,0.1c0.1,0.5,0.3,1,0.5,1.5c0.2,0.5,0.3,1.1,0.8,1.4
			c0.2,0.1,0.4,0,0.4-0.2C127.5,101.3,127.2,100.9,127,100.6z"/>
		<path class="st9" d="M130,100.4c-0.2-0.3-0.5-0.5-0.7-0.8c-0.2-0.3-0.4-0.6-0.5-0.9c-0.1-0.4-0.7-0.1-0.6,0.3
			c0.3,0.7,0.6,1.5,1.1,2.1C129.7,101.4,130.3,100.9,130,100.4z"/>
		<path class="st9" d="M131.6,99.5c-0.3-0.5-0.8-1-1.1-1.5c-0.2-0.3-0.6-0.1-0.5,0.2c0.2,0.6,0.6,1.2,1,1.7
			C131.3,100.3,131.9,99.9,131.6,99.5z"/>
		<path class="st9" d="M145.4,92.7c0-0.3-0.5-0.3-0.5,0c0,0.6-0.1,1.1-0.2,1.7c-0.1,0.4-0.3,0.9-0.2,1.3c0.1,0.4,0.6,0.5,0.7,0.1
			C145.7,95,145.6,93.7,145.4,92.7z"/>
		<path class="st9" d="M147.7,93.7c-0.1-0.3-0.1-0.6-0.2-0.9c-0.1-0.3-0.6-0.2-0.5,0.1c0,0.3,0.1,0.6,0.1,0.9c0,0.3,0,0.6,0.2,0.8
			c0.2,0.2,0.5,0.2,0.5-0.1C147.9,94.3,147.8,94,147.7,93.7z"/>
		<path class="st9" d="M149.1,92.6c-0.2-0.3-0.7-0.1-0.5,0.2c0.1,0.2,0.2,0.4,0.3,0.6c0.1,0.2,0.1,0.4,0.3,0.5
			c0.2,0.2,0.5,0.1,0.5-0.2C149.7,93.3,149.4,92.9,149.1,92.6z"/>
		<path class="st9" d="M151.9,92.4c-0.2-0.2-0.4-0.3-0.6-0.5c-0.2-0.3-0.7,0-0.5,0.3c0.1,0.2,0.3,0.5,0.5,0.7
			c0.2,0.2,0.4,0.4,0.7,0.5c0.1,0,0.3,0,0.4-0.1C152.7,92.9,152.2,92.6,151.9,92.4z"/>
		<path class="st9" d="M154.5,92.1c-0.4-0.5-0.7-1-1.2-1.4c-0.3-0.2-0.7,0.3-0.3,0.5c0.2,0.2,0.4,0.4,0.5,0.6
			c0.2,0.3,0.4,0.5,0.7,0.7C154.4,92.7,154.7,92.3,154.5,92.1z"/>
		<path class="st9" d="M100.1,69.8c-0.4,0.5-0.7,1-1.1,1.4c-0.3,0.3-0.6,0.7-0.8,1.1c-0.2,0.4,0.4,0.6,0.6,0.3
			c0.3-0.4,0.5-0.8,0.7-1.2c0.3-0.5,0.6-0.9,0.9-1.4C100.5,69.8,100.3,69.6,100.1,69.8z"/>
		<path class="st9" d="M100.8,71.6c-0.2,0.6-0.5,1.1-0.7,1.7c-0.2,0.4,0.6,0.7,0.7,0.2c0.1-0.6,0.4-1.2,0.5-1.8
			C101.3,71.4,100.9,71.3,100.8,71.6z"/>
		<path class="st9" d="M102.4,71.6c0-0.2-0.3-0.1-0.3,0.1c0.1,0.8-0.1,1.6,0,2.4c0,0.3,0.6,0.3,0.6,0
			C102.7,73.2,102.5,72.4,102.4,71.6z"/>
		<path class="st9" d="M104.9,73.5c-0.1-0.4-0.1-0.8-0.2-1.2c-0.1-0.4-0.7-0.3-0.6,0.1c0.1,0.4,0.1,0.8,0.2,1.3
			C104.4,74,105.1,73.8,104.9,73.5z"/>
		<path class="st9" d="M106.7,73c-0.5,0-0.5,0.7,0,0.7C107.1,73.7,107.2,73,106.7,73z"/>
		<path class="st9" d="M97.5,83.3c-0.3,0.6-0.5,1.3-0.9,1.8c-0.2,0.4,0.4,0.7,0.6,0.3c0.3-0.6,0.4-1.3,0.7-1.9
			C98,83.2,97.6,83,97.5,83.3z"/>
		<path class="st9" d="M100.2,85c0-0.5-0.7-0.6-0.8-0.1c-0.1,0.5-0.1,0.9-0.1,1.4c0,0.5,0.8,0.6,0.8,0.1
			C100.2,85.9,100.2,85.5,100.2,85z"/>
		<path class="st9" d="M103,85.7c-0.1-0.2-0.2-0.5-0.2-0.7c-0.2-0.4-0.9-0.1-0.7,0.3c0.1,0.2,0.1,0.5,0.2,0.7
			C102.5,86.4,103.2,86.1,103,85.7z"/>
		<path class="st9" d="M149.1,70.1c-0.1-0.3-0.1-0.6-0.1-1c0-0.3-0.4-0.3-0.5,0c0,0.3,0,0.6,0,1c0,0.3,0,0.7,0.1,1
			c0.1,0.4,0.7,0.3,0.6-0.1C149.3,70.7,149.2,70.4,149.1,70.1z"/>
		<path class="st9" d="M150.7,69.6c0-0.4-0.6-0.4-0.6,0c0,0.4,0.1,0.8,0.1,1.2c0,0.4,0.6,0.4,0.6,0C150.8,70.5,150.7,70,150.7,69.6z
			"/>
		<path class="st9" d="M153.6,71.9c-0.4-0.7-0.8-1.4-1.3-2c-0.2-0.3-0.7,0-0.5,0.3c0.4,0.7,0.7,1.4,1,2
			C153.1,72.8,153.9,72.4,153.6,71.9z"/>
		<path class="st9" d="M108.1,99.9c-0.2,0.4-0.4,0.8-0.6,1.2c-0.2,0.3-0.4,0.7-0.3,1.1c0.1,0.3,0.5,0.3,0.7,0
			c-0.1,0.1,0.1-0.1,0.1-0.1c0.1-0.1,0.1-0.2,0.1-0.2c0.1-0.2,0.1-0.4,0.2-0.6c0.1-0.4,0.3-0.8,0.4-1.2
			C108.8,99.7,108.3,99.6,108.1,99.9z"/>
		<path class="st9" d="M109.3,101.3c0,0.2,0,0.5,0,0.7c0,0.4,0.6,0.4,0.6,0c0-0.2,0-0.5,0.1-0.7C109.9,101,109.3,100.9,109.3,101.3z
			"/>
		<path class="st9" d="M112.1,103.3c-0.2-0.4-0.4-0.8-0.5-1.2c-0.1-0.2-0.4-0.1-0.4,0.1c0.1,0.5,0.2,0.9,0.5,1.3
			C111.8,103.8,112.2,103.6,112.1,103.3z"/>
		<path class="st9" d="M113.5,102.5c-0.4,0-0.4,0.6,0,0.6C113.9,103.1,113.9,102.5,113.5,102.5z"/>
		<path class="st9" d="M115.2,57.5c-0.2,0.2-0.3,0.4-0.4,0.7c-0.1,0.2-0.3,0.5-0.3,0.8c0,0.3,0.4,0.4,0.5,0.2
			c0.1-0.2,0.2-0.4,0.2-0.6c0.1-0.3,0.2-0.5,0.3-0.8C115.7,57.5,115.3,57.3,115.2,57.5z"/>
		<path class="st9" d="M118.1,57.3c-0.3,0.7-1,1.7-0.8,2.5c0.1,0.3,0.5,0.3,0.6,0c0.1-0.4,0.1-0.8,0.2-1.1c0.1-0.5,0.2-0.9,0.4-1.4
			C118.5,57.2,118.2,57.2,118.1,57.3z"/>
		<path class="st9" d="M120.6,60c-0.2-0.5-0.4-1-0.5-1.6c-0.1-0.4-0.6-0.3-0.6,0.1c0.1,0.6,0.2,1.2,0.4,1.8
			C120.2,60.7,120.8,60.4,120.6,60z"/>
		<path class="st9" d="M122.6,59.9c-0.3-0.3-0.3-0.8-0.4-1.1c-0.1-0.3-0.6-0.2-0.5,0.1c0.1,0.5,0.2,1,0.5,1.4
			C122.4,60.5,122.8,60.2,122.6,59.9z"/>
		<path class="st9" d="M124.1,59c-0.4,0-0.5,0.6,0,0.7C124.5,59.7,124.5,59,124.1,59z"/>
		<path class="st9" d="M136.3,103.3c0-0.4,0-0.8,0-1.2c0-0.3-0.5-0.4-0.5,0c0,0.4,0,0.8-0.1,1.2c0,0.4-0.1,0.8,0,1.2
			c0.1,0.4,0.7,0.4,0.7,0C136.4,104.1,136.3,103.7,136.3,103.3z"/>
		<path class="st9" d="M138.6,103.2c-0.1-0.4-0.1-0.8-0.2-1.2c-0.1-0.4-0.7-0.3-0.6,0.1c0.1,0.4,0,0.8,0,1.1c0,0.4-0.1,0.7,0.2,1
			c0.2,0.2,0.5,0.2,0.6,0C138.7,103.9,138.6,103.6,138.6,103.2z"/>
		<path class="st9" d="M141,102.7c-0.2-0.3-0.4-0.6-0.5-1c-0.2-0.4-0.8-0.1-0.6,0.3c0.1,0.3,0.3,0.6,0.5,1c0.2,0.3,0.2,0.6,0.5,0.9
			c0.2,0.2,0.5,0,0.6-0.3C141.4,103.2,141.2,103,141,102.7z"/>
		<path class="st9" d="M143.3,102.5c-0.1-0.2-0.1-0.4-0.2-0.5c-0.1-0.2-0.2-0.4-0.2-0.6c-0.1-0.2-0.2-0.4-0.5-0.3
			c-0.2,0-0.4,0.3-0.3,0.5c0.1,0.3,0.1,0.5,0.2,0.8c0,0.1,0.1,0.3,0.2,0.4c0.1,0.1,0.3,0.2,0.4,0.2
			C143.1,103,143.4,102.8,143.3,102.5z"/>
		<path class="st9" d="M144.6,100.6c-0.5,0-0.5,0.7-0.1,0.8C145.1,101.4,145.1,100.7,144.6,100.6z"/>
		<path class="st8" d="M134.3,46.1c-1.5-0.9-2.9-1.4-5.1-1.3c-1.6,0-4.4,0.5-4.7,1.9c-0.3,1.2,3.6,9.8,4.5,11.7
			C132.1,54.8,135.1,46.7,134.3,46.1z"/>
		<path class="st10" d="M117.3,34.2c-0.7,2.3-1.9,4.6-3.6,6.3c-1.7,1.8-4.2,2.7-6.2,1c-1-0.8-1.7-2.1-2.2-3.3
			c-0.5-1.2-2.5-0.6-2,0.6c1.5,3.8,5,7.2,9.2,5.1c3.4-1.8,5.6-5.6,6.7-9.2C119.6,33.4,117.6,32.9,117.3,34.2L117.3,34.2z"/>
		<path class="st10" d="M139.6,34.3c0.3,3.6,1.8,7.4,4.9,9.4c4.3,2.9,7.6-0.8,8.5-4.9c0.3-1.3-1.8-1.8-2.1-0.5
			c-0.2,0.9-0.6,1.8-1,2.7c-1.3,2.4-3.6,1.6-5.3,0.1c-1.8-1.6-2.7-4.5-2.9-6.9C141.6,32.8,139.5,32.9,139.6,34.3L139.6,34.3z"/>
	</g>
</g>
</svg>
