<?xml version="1.0" encoding="utf-8"?>
<!-- Generator: Adobe Illustrator 24.0.3, SVG Export Plug-In . SVG Version: 6.00 Build 0)  -->
<svg version="1.1" id="レイヤー_1" xmlns="http://www.w3.org/2000/svg" xmlns:xlink="http://www.w3.org/1999/xlink" x="0px"
	 y="0px" viewBox="0 0 191 183.5" style="enable-background:new 0 0 191 183.5;" xml:space="preserve">
<style type="text/css">
	.st0{fill:#F5FAFC;stroke:#503819;stroke-width:5;stroke-miterlimit:10;}
	.st1{fill:#C4DAE7;}
	.st2{fill:#7AB942;}
	.st3{fill:none;stroke:#503819;stroke-width:4;stroke-miterlimit:10;}
	.st4{fill:none;stroke:#7AB2BF;stroke-width:6.782;stroke-linecap:round;stroke-miterlimit:10;}
	.st5{fill:none;stroke:#503819;stroke-width:3.222;stroke-miterlimit:10;}
	.st6{fill:none;stroke:#503819;stroke-width:3.222;stroke-linecap:round;stroke-miterlimit:10;}
	.st7{fill:#3C4350;}
</style>
<g>
	
		<ellipse transform="matrix(0.9762 -0.2166 0.2166 0.9762 -20.7561 21.4661)" class="st0" cx="87.5" cy="105.4" rx="69.8" ry="65.7"/>
	<ellipse transform="matrix(0.977 -0.2132 0.2132 0.977 -20.6127 20.643)" class="st1" cx="85.4" cy="105.9" rx="54.2" ry="54.2"/>
	<path class="st2" d="M79.7,139l-1.6-7.3l-21.7,4.8l0.3-10.7l-16.8-12.4l3.9-14.7L32,96.6c-1.2,6.8-1.1,13.9,0.5,21
		c5,22.4,23.2,38.5,44.7,41.8l2.9-4.7l-10.1-10.3L79.7,139z"/>
	<ellipse transform="matrix(0.974 -0.2265 0.2265 0.974 -21.2694 22.0727)" class="st3" cx="85.5" cy="103.7" rx="67.8" ry="67.8"/>
	<path class="st4" d="M9.9,135.8c-1.9-4.5-3.4-9.3-4.5-14.3c-9.8-44.3,18.1-88.1,62.4-98c8.3-1.8,16.6-2.4,24.6-1.7"/>
	<path class="st4" d="M155.3,60.4c4.7,7.7,8.3,16.2,10.4,25.5c8.9,40-13.1,79.7-50.1,94.2"/>
	<path class="st2" d="M138.3,94.1c-5.6-25.2-27.8-42.3-52.6-42.4l-5.1,6.4l10,1.3l-1.7,15L67.2,86.4c-1.9,1-2,3.7-0.3,5l10.5,11
		l11.2-4.8l15.9,6.8l-2,18.7l11.8,8.7l10.9-16.6l7.6,4l6.8-14.2C139.5,101.4,139.1,97.7,138.3,94.1z"/>
	<path class="st5" d="M65.1,166.1L65.1,166.1c0.3-0.9,1.2-1.4,2.1-1.4l5.5,0c0.8,0,1.5-0.4,1.9-1.1l4.5-7.3c0.5-0.9,0.4-2-0.3-2.7
		l-6.8-7c-1-1.1-0.8-2.8,0.5-3.5l5.7-3.2c0.9-0.5,1.3-1.5,1.1-2.4l-0.8-3.5c-0.3-1.2-1.5-2-2.7-1.7l-16.7,3.7
		c-1.4,0.3-2.8-0.8-2.7-2.3l0.2-6.7c0-0.7-0.3-1.4-0.8-1.8l-14.4-11.5c-0.7-0.5-1-1.4-0.8-2.3l2.5-10.2c0.3-1.3-0.5-2.5-1.8-2.7
		l-11.5-2.2c-0.2,0-0.4-0.1-0.6-0.2L22,92.4c-1.5-0.7-3.2,0.3-3.2,1.9c-0.5,12.7,1,57.4,43.5,73C63.4,167.8,64.7,167.2,65.1,166.1z"
		/>
	<path class="st2" d="M140.1,44.6c0,0-27.8,6.9-37.1-36.6C103,8,145.1,16.8,140.1,44.6z"/>
	<path class="st2" d="M143.2,47.2c0,0-4-36.5,46.2-31.3C189.4,15.9,172.8,63.6,143.2,47.2z"/>
	<path class="st6" d="M144.4,43.4c0,0-6.5-36.3,44.5-36.3C188.9,7.1,175.3,56.8,144.4,43.4z"/>
	<path class="st6" d="M141.9,42.5c0,0-31.2,5.2-33.2-40.3C108.6,2.1,152.3,14.1,141.9,42.5z"/>
	<path class="st7" d="M139.2,68.3"/>
	<g>
		<path class="st7" d="M145,38.4c0.2-0.3,0.3-0.5,0.4-0.7c0.1-0.2,0.3-0.4,0.4-0.7c0.3-0.4,0.6-0.9,0.8-1.3c0.3-0.4,0.6-0.8,0.9-1.2
			c0.3-0.4,0.6-0.8,0.9-1.2c0.6-0.8,1.3-1.5,2-2.2l1-1.1c0.3-0.3,0.7-0.7,1.1-1c2.8-2.7,5.9-5.1,9.2-7.2c0.8-0.5,1.7-1,2.5-1.5
			c0.4-0.2,0.8-0.5,1.3-0.7l1.3-0.6c0.9-0.4,1.7-0.9,2.6-1.2l2.7-1.1l1.3-0.5l1.4-0.4l2.7-0.9c0.4-0.2,0.9-0.3,1.4-0.4l1.4-0.3
			l2.8-0.7l-2.7,1l-1.3,0.5c-0.4,0.2-0.9,0.3-1.3,0.5l-2.6,1.1l-1.3,0.6l-1.3,0.7L170,19c-0.8,0.5-1.6,1-2.4,1.5l-1.2,0.7
			c-0.4,0.3-0.8,0.5-1.1,0.8c-0.8,0.5-1.5,1.1-2.3,1.6c-2.9,2.3-5.6,4.8-8,7.6c-0.3,0.4-0.6,0.7-0.9,1l-0.8,1.1
			c-0.6,0.7-1.1,1.5-1.6,2.2c-0.3,0.4-0.5,0.8-0.7,1.1c-0.2,0.4-0.5,0.8-0.7,1.2c-0.2,0.4-0.4,0.8-0.6,1.2c-0.1,0.2-0.2,0.4-0.3,0.6
			c-0.1,0.2-0.2,0.4-0.2,0.5c-0.4,1.2-1.7,1.8-2.9,1.4c-1.2-0.4-1.8-1.7-1.4-2.9C144.9,38.6,144.9,38.5,145,38.4L145,38.4z"/>
	</g>
	<g>
		<path class="st7" d="M139.2,39.7c0-0.1-0.1-0.3-0.1-0.5c0-0.2-0.1-0.4-0.2-0.6c-0.1-0.4-0.2-0.8-0.4-1.2c-0.1-0.4-0.3-0.8-0.4-1.2
			c-0.2-0.4-0.3-0.8-0.5-1.2c-0.3-0.8-0.6-1.5-1-2.3l-0.6-1.1c-0.2-0.4-0.4-0.7-0.6-1.1c-1.6-2.9-3.6-5.7-5.8-8.3
			c-0.3-0.3-0.6-0.6-0.9-1l-0.9-0.9l-0.9-0.9c-0.3-0.3-0.6-0.6-0.9-0.9l-1.9-1.8l-2-1.6l-1-0.8c-0.3-0.3-0.7-0.5-1-0.8l-2.1-1.5
			c-0.2-0.1-0.4-0.3-0.5-0.4l-0.6-0.3l-1.1-0.7l-2.2-1.3l2.4,1.1l1.2,0.6l0.6,0.3c0.2,0.1,0.4,0.2,0.6,0.3l2.3,1.3
			c0.4,0.2,0.8,0.4,1.1,0.7l1.1,0.7l2.2,1.4l2.1,1.6c0.3,0.3,0.7,0.5,1,0.8l1,0.9l1,0.9c0.3,0.3,0.7,0.6,1,0.9
			c2.6,2.4,4.9,5.2,6.9,8.1c0.3,0.4,0.5,0.7,0.8,1.1l0.7,1.1c0.5,0.8,0.9,1.6,1.4,2.3c0.2,0.4,0.4,0.8,0.6,1.2
			c0.2,0.4,0.4,0.8,0.6,1.2c0.2,0.4,0.4,0.8,0.5,1.3c0.1,0.2,0.2,0.4,0.3,0.7c0.1,0.2,0.2,0.4,0.2,0.7l0,0.1
			c0.3,1.1-0.3,2.2-1.4,2.6c-1.1,0.3-2.2-0.3-2.6-1.4C139.2,39.9,139.2,39.8,139.2,39.7z"/>
	</g>
	<path class="st6" d="M112.6,72.7c0,0,27.2-0.9,29.6-34.8"/>
	<path class="st5" d="M149.3,80.7l-10.1-1.8l-1.3,8.2l5.6,9.6l-10.8,22.4l-7.6-4l-10.9,16.6l-11.8-8.7l2-18.7l-15.9-6.8l-11.2,4.8
		l-10.5-11c-1.8-1.2-1.6-3.9,0.3-5l21.6-11.9l1.7-15l-10-1.3l9.2-11.5l21.5-4.4"/>
</g>
</svg>
