<?xml version="1.0" encoding="utf-8"?>
<!-- Generator: Adobe Illustrator 24.0.3, SVG Export Plug-In . SVG Version: 6.00 Build 0)  -->
<svg version="1.1" id="レイヤー_1" xmlns="http://www.w3.org/2000/svg" xmlns:xlink="http://www.w3.org/1999/xlink" x="0px"
	 y="0px" viewBox="0 0 113.3 120.1" style="enable-background:new 0 0 113.3 120.1;" xml:space="preserve">
<style type="text/css">
	.st0{fill:#418E8B;}
</style>
<g>
	<path class="st0" d="M12.9,56.9c-0.8,0-1.3,0-1.7,0.1v-1.1c-0.8,0.4-1.1,0.6-1.7,0.9c-0.5-0.9-0.5-0.9-1.1-1.7
		c1.5-0.6,2.8-1.3,3.9-2.1c0.5-0.4,1.3-1.1,1.8-1.7c0.3-0.4,0.5-0.6,0.9-1.2h2c0.9,1.2,1.7,2,2.8,2.8c1.3,0.9,2.4,1.5,3.9,2
		c-0.6,0.8-0.8,1.2-1,1.8c-0.7-0.3-1.2-0.6-1.9-1V57c-0.5,0-1-0.1-1.7-0.1h-2.3v1.8h2.6c0.8,0,1.3,0,1.8-0.1v1.8
		c-0.4,0-1-0.1-1.8-0.1h-2.6v2.2h4.2c0.8,0,1.5,0,2-0.1v1.9c-0.5-0.1-1.2-0.1-2-0.1h-10c-0.8,0-1.5,0-2,0.1v-1.9
		c0.5,0.1,1.2,0.1,2,0.1h4v-2.2h-2.4c-0.8,0-1.3,0-1.8,0.1v-1.8c0.5,0.1,1,0.1,1.8,0.1H15v-1.8H12.9z M19.1,55.3c0.3,0,0.4,0,0.8,0
		c-1.8-1.2-2.8-2.1-3.9-3.6C15,53,13.8,54.1,12,55.2c0.3,0,0.5,0,0.7,0H19.1z"/>
	<path class="st0" d="M25.1,52.3c0-0.7,0-1.3-0.1-1.9c0.5,0.1,1,0.1,1.9,0.1H37c0.8,0,1.3,0,1.9-0.1c-0.1,0.6-0.1,1.1-0.1,1.9v10.3
		c0,1.1,0,1.6,0.1,2.1H37v-0.9H26.8v0.9H25c0.1-0.5,0.1-1,0.1-2.1V52.3z M26.8,62.2H37V52H26.8V62.2z M29.2,54.6c-0.7,0-1,0-1.5,0.1
		V53c0.4,0.1,0.7,0.1,1.5,0.1h5.4c0.7,0,1.1,0,1.5-0.1v1.6c-0.4-0.1-0.8-0.1-1.5-0.1h-2v1.7h1.6c0.7,0,1,0,1.4-0.1v1.6
		c-0.3,0-0.6-0.1-1-0.1c0.4,0.5,0.7,1,1,1.6l-0.9,0.5c0.8,0,1.1,0,1.6-0.1v1.7c-0.4-0.1-0.9-0.1-1.5-0.1H29c-0.7,0-1.1,0-1.5,0.1
		v-1.7c0.5,0.1,0.8,0.1,1.5,0.1h1.9v-2h-1.4c-0.7,0-1,0-1.4,0.1v-1.6c0.4,0.1,0.7,0.1,1.4,0.1h1.4v-1.7H29.2z M32.6,59.7h1.7
		c-0.3-0.7-0.6-1.1-1-1.6l0.8-0.4h-1.6V59.7z"/>
</g>
<g>
	<g>
		<defs>
			<path id="SVGID_1_" d="M103.9,14c0,0.4,0.2,1.2,0.4,1.5c0.1,0.2,0.5,0.3,0.7,0.4c0.2,0.1,0.3,0.2,0.5,0.3c0.1-0.2,0.8-1,1-1.1
				c0.2-0.1,0.5,0,0.7,0.1c0,0.1,0,0.1,0.1,0.1c-0.2,0.2-0.3,0.5-0.5,0.6c-0.2,0.1-0.7,0.1-0.8,0.4c-0.2,0.2,0,0.8-0.2,1
				c-0.3,0.2-0.6,0-1,0.1c-0.2,0.1-1.1,0.5-1.1,0.7c0.1,0.1,0.1,0.2,0.1,0.3c-0.1,0-0.2-0.1-0.3,0c-0.3,0.1-0.3,0.4-0.5,0.5
				c-0.1,0.1-0.6,0.1-0.8,0c0,0,0,0,0-0.1c0.1-0.1,0.2-0.2,0.3-0.3c0,0,0,0,0-0.1c-0.1,0-0.3,0-0.4,0c-0.3,0.2-0.7,0.1-0.7,0.5
				c0.1,0.1,0.4,0.2,0.4,0.4c0,0-0.1,0.1-0.1,0.1c-0.5,0-1,0-1.4,0.1c-0.4,0.1-0.7-0.1-1-0.1c-0.1-0.1-0.1-0.3-0.2-0.4
				c-0.8,0.2-1.3,0.6-1.8,1c-1.1,0.8-2,1.9-2.7,3.1c-0.3,0.5-0.7,1-0.8,1.5c-0.1,0.3,0.1,1.1,0.1,1.3c0.1,0.3-0.1,0.7-0.1,0.9
				c-0.1,0.4-0.1,0.8-0.2,1.2c-0.3,0-0.3-0.2-0.4-0.4c-0.2-0.3-0.6-0.7-0.9-0.8c-0.4-0.1-0.8-0.2-1.3-0.3c-0.6-0.2-1.2-0.4-1.8-0.7
				c-0.6-0.3-1.2-0.6-1.6-1c-0.2-0.2-0.4-0.4-0.6-0.6c-0.2-0.1-0.6,0-0.8-0.1c-0.1-0.1-0.2-0.2-0.3-0.3c-0.2-0.2-0.5-0.4-0.8-0.5
				c-0.3-0.1-0.6-0.1-1-0.1c-0.2,0-0.5,0-0.7,0c-0.6,0.2-1.8,0.9-2.2,1.4c-0.3,0.5-0.7,0.9-1.1,1.3c-0.1,0-0.2,0-0.3-0.1
				c0,0,0,0,0-0.1c0.1-0.1,0.1-0.1,0.1-0.2c-0.1,0-0.1,0-0.2,0c-0.2-0.4-0.3-0.9-0.6-1.3c-0.1-0.2-0.3-0.1-0.5-0.3
				c-0.1-0.1-0.1-0.3-0.2-0.4c-0.3-0.3-0.7,0.1-0.9,0.2c-0.3,0.2-0.5,0.3-0.7,0.5c-0.1,0.1-0.1,0.3-0.2,0.4
				c-0.1,0.2-0.3,0.3-0.4,0.6c0,0.2,0,0.6,0,0.7c0.1,0.2,0.3,0.2,0.5,0.3c0.3,0.2,0.5,0.5,0.9,0.6c0.4,0.1,0.8-0.3,1.3-0.1
				c0.3,0.2,0.3,0.5,0.4,0.8c0.1,0.2,0.4,0.3,0.5,0.4c0.1,0.1,0.1,0.3,0.2,0.3c0.2,0.2,0.5,0,0.8,0.2c0.2,0.1,0.6,0.7,0.7,1
				c-0.5,0.2-0.7,0.7-1.4,0.7c-0.1-0.1-0.7-0.5-1-0.4c-0.1,0-0.3,0.2-0.5,0.2c-0.1,0-0.1,0-0.1-0.1c0.1-0.1,0.1-0.1,0.1-0.2
				c-0.1-0.1-0.2-0.2-0.4-0.2c0,0,0,0-0.1,0c-0.1,0.2-0.1,0.5-0.1,0.6c-0.1,0.2-0.5,0.3-0.7,0.4c0,0.1-0.1,0.1-0.2,0.2
				c0,0.2,0.1,0.4,0.1,0.6c0.1,0.6-0.8,0.6-1,0.9c-0.2,0.2-0.3,0.6-0.7,0.6c-0.2-0.2-0.7,0-0.9-0.4c-0.1-0.2-0.5-1.1-0.4-1.4
				c0.1-0.3,0.3-0.5,0.4-0.7c0-0.2,0-0.4,0-0.6c0.1-0.1,0.3-0.1,0.4-0.1c0,0,0-0.1,0-0.2c0.1-0.1,0.1-0.6,0-0.8
				c-0.2-0.3-0.5-0.7-0.7-1c-0.1-0.1-0.3-0.2-0.4-0.4c0-0.1-0.1-0.3-0.1-0.4C73.3,27.1,73.2,27,73,27c-0.1-0.1-0.5-0.9-0.4-1.2
				c0.1-0.2,0.2-0.3,0.3-0.5c0.1-0.2,0.2-0.4,0.2-0.6c0.1-0.5-0.6-1.6,0.1-1.8c0.2-0.2,0.6,0.1,0.8,0c0.2-0.1,0.4-0.2,0.5-0.4
				c0.1-0.3,0-0.6,0.4-0.6c0.1,0.2,0.4,0.3,0.7,0.4c0,0,0,0,0-0.1c0.2-0.3,0.2-0.7,0.3-1c0.2-0.3,0.8-0.3,0.9-0.7
				c-0.2-0.2-0.2-0.5-0.4-0.7c-0.2-0.3-0.7-0.6-0.9-1c-0.1-0.3,0.1-0.9,0.3-0.9c0.1-0.1,0.2,0,0.3-0.1c0.1-0.1,0.3-0.3,0.4-0.4
				c0.1,0,0,0,0.1,0c0.3,0.1,0.6,0.3,0.8,0.4c0.1,0.2,0.3,0.3,0.4,0.4c0.2,0.1,0.4,0.1,0.6,0.2c0.2,0.1,0.3,0.2,0.6,0.2
				c0.2-0.2,0.4-0.4,0.7-0.4c0.1,0.2,0.1,0.4,0.3,0.5c0.3,0.3,1-0.1,1.2-0.2c0.6-0.6,0.7-1.1,0.5-2.2c0-0.2,0-0.4,0-0.7
				c-0.1-0.4-0.6-1.2-0.2-1.7c0.4-0.6,1.1-0.3,1.4-1.2c0.1-0.2,0.2-1.3,0.1-1.6c-0.1-0.3-0.2-0.8-0.1-1.2C83,9.4,83.2,9,83.3,8.5
				c0.1-0.2,0.1-0.4,0.1-0.7c0-0.2,0.1-0.6,0.1-0.8c-0.2-0.7-0.5-1.4-0.7-2c-0.2-0.6-0.4-1.1-0.6-1.7c-0.1-0.2-0.2-0.6-0.1-0.9
				c0-0.2,0.2-0.4,0.2-0.5c0.1-0.4-0.3-1.1,0.2-1.2c0.4,0.4,0.7,0.2,1.2,0.1c0.1-0.2,0-0.5,0-0.7c0,0,0,0,0-0.1c0.1,0,0.1,0,0.1-0.1
				c0.2,0.1,0.4,0.2,0.5,0.4c0.1,0.2,0.2,0.4,0.4,0.5c0.3,0.3,0.8,0.6,1,0.9C86,2,86.1,2.3,86.3,2.5c0.3,0.3,0.7,0.5,0.9,0.8
				c0.6,0.9,1.2,1.8,1.9,2.6c0.3,0.4,0.7,0.7,1.1,1c0.5,0.4,0.9,0.8,1.4,1.2c0.8,0.6,1.8,1.1,2.7,1.6c0.2,0.1,1,0.2,1,0.4
				c-0.2,0.1-0.3,0.1-0.5,0.2c0,0,0,0.1,0,0.1c0.3,0.2,0.7,0.4,1.1,0.2c0-0.1,0-0.1,0-0.2c-0.2-0.1-0.3-0.3-0.4-0.4c0,0,0,0,0,0
				c0.1-0.1,0.2-0.1,0.4-0.1c0.4,0.1,0.8,0.1,1.2,0.1c0,0.1,0.1,0.1,0.1,0.2C97.1,10.4,97,11,97.4,11c0.1-0.2,0.1-0.6,0.1-0.8
				c0.1,0,0.2-0.1,0.4-0.1c0.1,0.1,0.1,0.1,0.1,0.2c0.2,0.3,0.1,0.8,0.4,0.9c0.2,0.2,0.9,0.1,1.1,0.2c0.3,0.1,0.9,0.2,1.2,0.1
				c0.4-0.1,0.8-0.7,1-1c0.4-0.5,1-0.9,1.3-1.5c0.2-0.3,0.3-1,0.7-1.1c0,0,0.1,0,0.1,0c0,0,0.1,0.1,0.1,0.1c0.2,0.3,0.2,1.1,0.1,1.5
				c-0.3,0.6-0.6,1.2-0.9,1.8c-0.1,0.3-0.4,0.7-0.3,1.3c0,0.2,0,0.4,0.1,0.5c0.1,0.2,0.6,0.5,0.8,0.6c0.3,0.1,0.5,0.1,0.7,0.4
				c0.1,0.1,0.1,0.4,0,0.6c-0.1,0,0,0.1-0.1,0C104.2,14.3,104.2,14.1,103.9,14L103.9,14z M79.1,0.9c0,0,0.1,0,0.1,0
				c0.1,0.1,0.1,0.3,0.2,0.4c0,0.2,0,1.1-0.1,1.2c0,0.1-0.1,0.1-0.2,0.1c-0.1-0.2-0.2-0.4-0.3-0.7c0-0.2,0-0.4,0-0.6
				c0-0.1-0.1-0.1-0.1-0.2c0,0,0-0.1,0-0.1C78.9,1,79,1,79.1,0.9L79.1,0.9z M79.9,2.4c0.6,0,0.7,0.3,1,0.5c0.1,0.5-0.2,0.8-0.8,0.8
				c-0.1-0.1-0.2-0.1-0.3-0.2c-0.1-0.1-0.1-0.2-0.1-0.3C79.6,2.9,79.7,2.7,79.9,2.4L79.9,2.4z M112.7,10.6c0.2,0,0.5,0.2,0.6,0.3
				c0,0,0,0.1,0,0.2c-0.1,0.1-0.1,0.2-0.2,0.3c-0.2,0.3-0.6,0.5-0.9,0.6c-0.2,0.1-0.2,0.2-0.4,0.2c-0.2-0.2-0.4-0.3-0.4-0.7
				c0.2-0.2,0.3-0.3,0.6-0.4c0.1,0,0.3,0,0.4-0.1c0.1-0.1,0.2-0.3,0.2-0.4C112.6,10.6,112.6,10.6,112.7,10.6L112.7,10.6z
				 M109.9,12.8c0.1,0,0.1,0,0.2,0c0.1,0.1,0.2,0.4-0.1,0.4c-0.1-0.1-0.2-0.1-0.2-0.3C109.8,12.9,109.8,12.9,109.9,12.8
				C109.9,12.8,109.9,12.9,109.9,12.8L109.9,12.8z M109.2,13.7c0.2,0,0.4,0,0.5,0.2c0.1,0.1,0.1,0.2,0,0.3c-0.1,0.2-0.3,0.4-0.5,0.4
				c0,0,0,0-0.1,0c-0.1-0.2-0.3-0.5-0.3-0.8C108.9,13.7,109.1,13.8,109.2,13.7L109.2,13.7z M98.5,14.3c0,0.1-0.1,0.1-0.2,0.1
				c-0.1,0.1-0.1,0.1-0.1,0.2c0,0,0,0.1,0,0.1c0.1,0.1,0.1,0.2,0.3,0.2c0.1-0.2,0.3-0.4,0.3-0.6c0,0,0,0-0.1-0.1
				C98.7,14.3,98.6,14.3,98.5,14.3L98.5,14.3z M107.6,14.5c0.1,0,0.3,0,0.4,0c0,0,0,0,0.1,0.1c0,0,0,0.1-0.1,0.1
				c-0.1,0-0.1,0.1-0.2,0.1C107.7,14.7,107.6,14.7,107.6,14.5L107.6,14.5z M108.8,14.7c0.1,0,0.2,0,0.2,0.2c0,0,0,0,0,0.1
				c-0.1,0.1-0.2,0.1-0.3,0.1c0,0,0,0,0-0.1c0,0,0-0.1,0.1-0.2C108.7,14.7,108.8,14.7,108.8,14.7L108.8,14.7z M108.5,15
				c0,0,0.1,0,0.2,0c0,0,0,0,0.1,0.1c-0.1,0.2-0.2,0.2-0.4,0.2C108.4,15.1,108.5,15.1,108.5,15L108.5,15z M82.1,22
				c-0.2,0.2-0.4,0.2-0.7,0.2c0,0.1,0,0.2,0,0.3c0.1,0.1,0.1,0.2,0.3,0.3c0.1-0.1,0.2-0.2,0.2-0.3c0.2-0.2,0.4,0,0.4-0.3
				c0,0,0-0.1,0-0.1C82.3,22.1,82.3,22,82.1,22C82.2,22,82.2,22,82.1,22L82.1,22z M79,23.5c-0.2,0.1-0.2,0.1-0.2,0.4
				c0.1,0.1,0.1,0.1,0.4,0.1c0.1-0.1,0.1-0.1,0.2-0.1c0.1-0.1,0-0.2,0-0.3c0,0-0.1,0-0.1,0C79.1,23.5,79.1,23.5,79,23.5L79,23.5z
				 M71,26.5c0.1,0,0.3,0,0.4,0c0,0,0,0.1,0,0.1c0,0.1-0.1,1.1-0.2,1.3c-0.2,0.1-0.2,0.3-0.5,0.3c-0.1-0.3-0.5-1.4-0.1-1.6
				C70.7,26.6,70.9,26.6,71,26.5L71,26.5z M84.8,40.3C84.9,40.3,84.9,40.3,84.8,40.3c0.2,0.1,0.4,0.3,0.5,0.4
				c0.2,0.3,0.3,0.6,0.4,0.9c0.1,0.1,0.2,0.2,0.2,0.4c0.1,0.5-0.2,0.8,0,1.2c0.1,0.1,0.2,0.3,0.3,0.4c0.2,0.1,0.3,0,0.4,0.2
				c0.1,0.2,0,0.5,0,0.7c0,0.2,0.2,0.3,0.2,0.5c0,0.1,0,0.2,0,0.4c0.1,0.5,0.1,0.5-0.1,1c0,0,0,0,0.1,0c0.1,0,0.1-0.1,0.2-0.1
				c0.1,0.1,0.1,0.3,0.1,0.4c0.1,0.2,0.2,0.2,0.2,0.5c-0.1,0.1-0.2,0.3-0.2,0.5c0.1,0.1,0.1,0.3,0.1,0.5c-0.2,0.1-0.4,0.2-0.6,0.3
				c0,0,0,0,0,0.1c0.1,0,0.2,0,0.3,0c0,0.1,0,0.2,0,0.3c-0.1,0.1-0.3,0.2-0.4,0.4c0,0,0,0,0,0.1c0.1,0,0.2,0,0.3,0.1
				c0.1,0,0.1,0.1,0.2,0.2c-0.2,0.1-0.3,0.2-0.4,0.4c0.1,0,0.1,0,0.2,0.1c0,0.1,0,0,0,0.1c0,0.1-0.2,0.2-0.2,0.3
				c0,0.2,0.1,0.3,0.1,0.5c-0.2,0.1-0.4,0.1-0.4,0.4c0.1,0.1,0.1,0.1,0.1,0.2c0,0-0.1,0-0.1,0c-0.1,0.1-0.3-0.1-0.4-0.1
				c-0.1,0.1-0.1,0.3-0.2,0.4c-0.1,0.1-0.3,0.2-0.4,0.2c0.1,0.2,0.1,0.6,0,0.8c-0.1,0-0.1,0-0.1,0.1c-0.1-0.1-0.3-0.2-0.4-0.2
				c0,0,0,0,0,0.1c-0.1,0.1,0,0.2,0,0.3c0,0.2-0.1,0.3-0.1,0.6c0.1,0.1,0.2,0.2,0.2,0.4c0,0-0.1,0.1-0.1,0.2
				c-0.1,0.1-0.5,0.1-0.6,0.2c0.1,0.1,0.3,0.2,0.4,0.4c-0.1,0.1-0.2,0.2-0.2,0.3c0.2,0.1,0.3,0.2,0.3,0.4c-0.1,0-0.1,0.1-0.2,0.1
				c0.3,0.2,0.2,0.5,0.1,0.9c-0.1,0-0.1,0-0.2,0.1c0,0.2,0.2,0.1,0.2,0.3c0.1,0.2,0,0.8-0.1,0.9c0,0,0,0-0.1,0
				c-0.2-0.2-0.3-0.4-0.5-0.5c-0.1-0.1-0.2,0-0.2-0.1c-0.1-0.2,0-0.4,0.1-0.5c-0.1,0-0.3,0-0.3,0c-0.1,0-0.2-0.2-0.3-0.1
				c-0.2,0-0.4,0.1-0.6,0.1c-0.1,0.1-0.1,0.2-0.1,0.4c0,0,0,0,0,0c0,0-0.1,0-0.1,0c0,0-0.1,0-0.2,0c-0.3,0.5-0.7,1-0.9,1.6
				c-0.4,1.2,0.2,2.3,0.5,3.2c0.2,0.6,0.2,1.2,0.3,1.7c0.1,0.3,0,1,0,1.3c0,0.1,0,0.2,0,0.3c-0.1,0.5-0.1,1.1-0.2,1.7
				c-0.1,0.4,0,0.9-0.2,1.2c-0.2,0.2-0.5,0.4-0.7,0.6c-0.1,0-0.3,0-0.3,0.1c0,0.1,0,0.1,0,0.2c-0.1,0.1,0,0.2-0.1,0.3
				c-0.1,0.2-0.2,0.4-0.2,0.6c-0.1,0.3,0,0.6-0.1,0.9c-0.1,0.3-0.3,0.6-0.4,1c-0.1,0.5,0,1-0.1,1.5c-0.1,0.3-0.4,0.6-0.3,1.1
				c0.1,0.4,0.3,0.8,0.5,1.1c0.1,0.1,0.3,0.2,0.4,0.4c0.2,0.4,0.2,0.8,0.5,1.2c0.2,0.3,0.7,0.4,0.8,0.7c-0.1,0.1-0.1,0.3-0.1,0.5
				c-0.3,0.1-0.9,0-1.2,0.1c-0.7,0.2-1,0.7-1.3,1.2c-0.1,0.1-0.3,0.3-0.3,0.4c0,0.1,0,0.3,0,0.4c0,0.6,0.2,1.2,0,1.8
				C78,82.7,77.5,82.8,77,83c-0.2,0-0.3,0.1-0.5,0.1c-0.1,0.1-0.2,0.2-0.2,0.2c-0.2,0.1-0.3,0.2-0.4,0.3c-0.2,0.2-0.2,0.8-0.4,1
				c-0.1,0-0.1,0-0.2,0c-0.2,0.1-0.2,0.2-0.6,0.2c0-0.1-0.1-0.2-0.2-0.3c-0.2-0.1-0.5-0.1-0.5-0.3c0,0,0-0.1,0-0.1
				c0,0,0.1-0.1,0.1-0.1c0.2-0.1,0.4,0.1,0.4-0.2c-0.3-0.3,0-0.7,0-1c0,0-0.1,0-0.1,0c-0.4-0.6,0.1-0.4,0.2-0.7c0-0.1,0-0.2,0-0.3
				c-0.2-0.1-0.5-0.2-0.6-0.3c0.1-0.1,0.2-0.2,0.3-0.2c0.1,0,0.2-0.1,0.3-0.1c0.2-0.1,0.2-0.4,0.2-0.7c0.5-0.2,1.4-0.6,1-1.4
				c-0.1-0.2-0.2-0.2-0.3-0.3c-0.2,0-0.5,0-0.6,0c0,0,0,0.1,0,0.2c-0.2,0-0.6,0-0.8,0.1c0,0,0,0,0,0.1c0,0.1,0,0.2,0,0.3
				c0.2,0.1,0.2,0.2,0.2,0.4c0,0,0,0.1-0.1,0.2c-0.7,0.3-0.9,0.6-0.8,1.6c0.1,0.1,0.1,0.2,0.2,0.2c0.1,0.1,0.3,0.1,0.3,0.2
				c0,0,0,0,0,0c0,0,0,0,0,0c-0.1,0.2-0.2,0.2-0.3,0.3c0,0.1,0,0.3,0,0.4c0,0.2-0.3,0.3-0.4,0.3c-0.1-0.1-0.3-0.2-0.4-0.4
				c-0.1-0.2,0.1-0.2,0.1-0.4c0-0.2-0.2-0.2-0.3-0.3c-0.1-0.1,0-0.1-0.1-0.2c-0.1-0.1-0.4-0.1-0.6-0.1c-0.8-0.2-1.5,0.2-1.7,0.7
				c-0.1,0.2-0.1,0.5-0.1,0.8c-0.1,0-0.2,0.1-0.3,0.1c0,0.2-0.1,0.4-0.1,0.6c0.1,0.1,0.2,0.2,0.3,0.3c0,0.2,0.1,0.6,0,0.8
				c-0.1,0.3-0.4,0.5-0.6,0.8c-0.1,0.1-0.3,0.3-0.3,0.4c-0.1,0.2,0,0.3-0.1,0.4c-0.1,0.1-1,0.7-1.2,0.7c-0.6-0.7-0.7-1.2-0.5-2.3
				c0.1-0.4-0.1-0.7-0.1-1c0.2-0.1,0.6-0.1,0.7-0.4c-0.2-0.2-0.3-0.1-0.5-0.2c-0.1-0.1-0.2-0.2-0.3-0.2c-0.5-0.1-0.9,0.4-1.1,0.6
				c0,0-0.1,0.1-0.1,0.1c0,0.1,0,0.2,0,0.3c-0.1,0.2-0.2,0.4-0.4,0.5c-0.1,0,0,0-0.1,0c-0.1-0.1,0-0.3-0.1-0.4c0,0,0,0,0,0
				c-0.1,0.1-0.2,0.3-0.3,0.5c-0.1,0.2-0.3,0.3-0.4,0.5c-0.1,0.2-0.1,0.4-0.2,0.5c-0.1,0.2-0.5,0.3-0.6,0.6
				c-0.1,0.3,0.1,0.6,0.1,0.9c0,0-0.1,0-0.2,0c-0.1-0.1-0.3-0.1-0.4-0.1c-0.3-0.1-0.6-0.2-0.9-0.3c-0.3-0.1-0.7,0-1,0
				c-0.2,0-0.5-0.1-0.6-0.1c-0.4-0.1-0.8,0-1.1-0.2c0-0.1,0-0.1,0-0.2c0-0.1,0.1-0.1,0.1-0.2C60,86.1,59.9,86,59.8,86
				c-0.1,0.1-0.2,0.1-0.3,0.1c0,0.1,0,0,0,0.1c0.1,0.2,0.2,0.2,0.2,0.4c-0.1,0-0.1,0-0.2,0.1c-0.3,0.2-0.6,0-1,0.1
				c-0.7,0.2-1.6,0.8-2.5,0.6c0-0.1,0-0.1,0-0.2c0.1-0.1,0.1-0.4,0.2-0.5c0.2-0.1,0.3,0.1,0.5,0.1c0.1,0,0.3-0.2,0.4-0.3
				c0.2-0.1,0.4-0.1,0.5-0.2c0.1-0.1,0.1-0.1,0.1-0.2c0,0,0,0,0-0.1c-0.2-0.1-0.4-0.2-0.6-0.3c-0.3-0.1-0.7,0.1-0.9,0.2
				c-0.2,0-0.3,0-0.4-0.1c0-0.1-0.1-0.2-0.2-0.3c-0.1-0.3,0.1-0.3-0.1-0.6c0,0-0.1,0-0.1,0c-0.1,0.2-0.2,0.3-0.3,0.4
				c-0.1,0.2,0.2,0.4,0.3,0.5c0.1,0.2,0,0.4,0,0.6c-0.1,0-0.1,0-0.2,0.1c-0.1-0.1-0.3-0.1-0.4-0.2c-0.1-0.1-0.2-0.2-0.2-0.2
				c0-0.1,0.1-0.6,0-0.7c-0.1-0.3-0.3-0.2-0.3-0.7c0.2-0.2,0.1-0.5,0.3-0.7c0.1-0.2,0.3-0.1,0.3-0.4c0,0,0-0.1,0-0.1
				c-0.2,0-0.3,0.2-0.5,0.3c-0.1,0-0.2,0-0.2,0c-0.1,0-0.2,0.1-0.2,0.2c-0.4,0.2-0.4,0-0.4,0.6c-0.1,0.2-0.1,0.6-0.2,0.8
				c-0.1,0.1-0.3,0.1-0.4,0.2c-0.1,0.1-0.1,0.2-0.2,0.3c0,0.2,0,1.1,0.1,1.3c0.1,0.3,0.6,0.4,0.9,0.6c0.1,0.1,0.2,0.2,0.4,0.3
				c0.3,0.1,0.8-0.1,1,0.1c0,0,0,0.1,0,0.1c-0.1,0.1-0.2,0.2-0.3,0.3c0,0,0,0,0,0c0.1,0.1,0.3,0.2,0.3,0.4c-0.1,0.1-0.3,0.1-0.4,0.2
				c0.1,0.1,0.2,0.2,0.2,0.3c-0.2,0.2-0.2,0.4-0.2,0.7c0,0,0,0-0.1,0c-0.1,0.1-0.7,0.2-1,0.2c0,0,0-0.1,0-0.1c0.1,0,0.2-0.1,0.3-0.1
				c0,0,0,0,0-0.1c-0.1,0-0.2-0.1-0.4-0.1c-0.1,0-0.2,0.1-0.4,0.1c-0.1-0.1-0.1-0.2-0.2-0.2c-0.1,0-0.1,0-0.2,0c0,0.1,0,0.2,0,0.3
				c-0.4,0.2-1.6,0.2-1.7,0.6c0,0.1-0.1,0.1-0.1,0.2c0.1,0,0.2,0,0.2,0.1c0.1,0.1,0.1,0.1,0.1,0.2c-0.1,0.1-0.1,0.1-0.2,0.2
				c0,0,0,0,0,0.1c0,0,0.1,0.1,0.1,0.1c0,0.1,0,0,0,0.1c-0.1,0.1-0.2,0.1-0.3,0.2c0,0.2,0,0.4,0,0.6c-0.4-0.1-0.4,0.2-0.7,0.4
				c-0.2,0.1-0.4,0.1-0.6,0.3c-0.1,0.1-0.1,0.2-0.1,0.3c-0.1,0.1-0.2,0.2-0.2,0.3c-0.1,0.2,0,0.5-0.1,0.7c-0.2,0.3-0.5,0.7-0.8,1
				c0,0.1,0,0.1,0.1,0.2c-0.3,0.2-0.6,0.6-0.9,0.8c0,0,0,0,0,0c0,0,0,0,0,0c-0.1-0.1-0.3-0.2-0.4-0.2c-0.2-0.1-0.4-0.2-0.6-0.2
				c-0.1,0-0.2,0-0.2,0c-0.4-0.1-0.8-0.3-1.2-0.4c-0.2-0.3-0.6-0.7-0.6-1.2c0.1,0,0.1,0,0.2-0.1c0.1-0.2-0.1-0.2-0.3-0.3
				c-0.2-0.1-0.3-0.3-0.5-0.4c-0.1,0-0.2,0-0.3-0.1c-0.2-0.1-0.1-0.4-0.3-0.4c-0.1-0.1-0.3-0.1-0.5-0.2c0,0,0-0.1-0.1-0.1
				c0.1-0.2,0.1-0.4,0.2-0.5c0-0.1-0.1-0.1-0.1-0.2c0.1-0.1,0.1-0.3,0.2-0.4c0.1-0.1,0.3,0,0.3-0.2c0,0,0-0.1,0-0.1
				c-0.1,0-0.2,0-0.3,0c-0.1,0-0.1,0-0.2,0c0,0,0,0,0-0.1c0-0.1,0-0.2,0-0.2c0.1-0.3,0.5-0.3,0.7-0.4c0,0,0,0,0-0.1
				c-0.2-0.1-0.2-0.2-0.3-0.4c-0.1-0.1-0.3-0.1-0.3-0.3c-0.1-0.1-0.1-0.1-0.1-0.3c0.1-0.1,0.1-0.1,0.2-0.2c0,0,0.2-0.1,0.2-0.2
				c0.2-0.1,0.3-0.1,0.5-0.1c0.3-0.2,0.4-0.4,0.6-0.6c0.3-0.3,0.5-0.4,0.7-0.7c0.1-0.2,0.2-0.8,0.1-1.1c0-0.1-0.1-0.2-0.2-0.3
				c-0.2,0-0.4,0-0.7,0.1c-0.1,0-0.2,0.2-0.3,0.2c-0.2,0.1-1,0.3-1.3,0.3c-0.5-0.1-0.9-0.4-1.2-0.7c-0.2-0.1-0.3-0.3-0.5-0.4
				c-0.3,0-0.6,0-0.9,0c-0.1,0-0.3-0.1-0.4-0.1c-0.1,0.2-0.6,0.3-0.9,0.2c0,0-0.2-0.1-0.2,0c-0.1,0-0.1,0.1-0.3,0.1c0,0,0,0.1,0,0.1
				c-0.4,0.2-0.5,0.4-0.8,0.7c-0.1,0.1-0.2,0.1-0.3,0.2c-0.2,0-0.3-0.2-0.5,0c0.1,0,0.1,0,0.2,0.1c0.1,0.2-0.3,0.4-0.4,0.5
				c-0.2,0-0.6,0-0.7,0c-0.1,0-0.2,0.2-0.2,0.1c-0.2-0.1-0.2-0.3-0.3-0.4c-0.4,0.1-0.6,0.5-1,0.5c-0.1-0.1-0.1-0.1-0.2-0.2
				c0,0.2,0,0.2-0.1,0.2c-0.2,0.1-0.5,0.1-0.7,0.2c0-0.2,0.1-0.2,0.2-0.3c-0.1,0-0.1,0-0.2,0c0,0-0.3,0-0.4,0.1c0,0.2,0.1,0.4,0,0.5
				c-0.1,0.2-0.2,0.2-0.3,0.3c-0.2,0-0.4,0-0.5,0c-0.1-0.1-0.1-0.2-0.3-0.2c-0.1,0.1-0.1,0.2-0.1,0.4c-0.1,0.1-0.2,0.1-0.2,0.1
				c-0.3-0.1-0.2-0.5-0.4-0.6c-0.1,0-0.1,0-0.2-0.1c0,0,0,0,0,0c0,0.1,0,0.2,0,0.3c-0.5,0-0.9,0.3-1.3,0.2c0-0.1,0-0.1-0.1-0.2
				c-0.2,0.3-0.5,0.2-0.8,0.3c-0.1,0.1-0.1,0.2-0.2,0.3c-0.1,0-0.3,0.1-0.4,0.1c0,0.1-0.1,0.1-0.2,0.2c-0.1,0-0.2,0-0.3,0.1
				c-0.2,0.1-0.1,0.4-0.4,0.4c-0.1-0.1-0.4-0.6-0.4-0.8c0-0.1,0-0.1,0.1-0.2c-0.1-0.1-0.2-0.1-0.2-0.3c-0.7,0-1.8,0.2-1.8,0.7
				c-0.1,0.1,0,0.3,0,0.5c0,0.1-0.2,0.2-0.3,0.4c0,0.2,0,0.4,0,0.6c-0.1,0.3-0.1,0.6-0.1,0.9c-0.1,0.1-0.4,0.2-0.5,0.3
				c-0.1,0.2,0,0.3-0.2,0.4c0-0.2-0.1-0.3-0.2-0.4c-0.2-0.1-0.5-0.1-0.7-0.2c-0.2-0.1-0.4-0.4-0.6-0.4c-0.1,0-0.2,0-0.2,0
				c0,0,0-0.1,0-0.1c0,0,0.1-0.1,0.2-0.1c0,0,0,0,0,0c-0.3-0.1-0.8-0.4-1.3-0.3C20.5,90.8,20.3,91,20,91c-0.1-0.1-0.2-0.2-0.3-0.4
				c-0.5,0.2-0.4,0-0.5-0.4c0,0,0,0,0,0c0,0.5-0.4,0.8-0.8,0.9c-0.3,0-0.6,0-0.8-0.1c-0.2-0.3-0.3-0.8-0.9-0.8c0,0-0.5,0.4-0.6,0.4
				c-0.1,0-0.2,0-0.3-0.1c-0.1-0.4-0.3-0.8-0.3-1.2c0.2-0.1,0.4-0.3,0.4-0.7c-0.1-0.1,0-0.2-0.1-0.3c-0.1-0.2-0.3-0.2-0.3-0.5
				c0.1-0.1,0-0.5,0.2-0.6c0.1-0.1,0.4-0.1,0.6-0.1c0,0,0,0,0,0c-0.1-0.1-0.1-0.1-0.1-0.2c0.2,0,0.5,0.2,0.7,0.1
				c0.1,0,0.2-0.2,0.4-0.1c0,0,0.1,0.1,0.1,0.1c0.2,0,0.5,0,0.7,0c0.3,0,0.7,0.1,1,0.1c0.1-0.2,0.6-1,0.7-1c0.1,0,0.3-0.1,0.4-0.1
				c0-0.1,0-0.2,0-0.3c0.1,0,0.1-0.1,0.2-0.1c0,0.1,0.1,0.1,0.2,0.1c0.2-0.2,0.5-0.2,0.7-0.3c0.3-0.1,0.5-0.3,0.7-0.5
				c0.2-0.2,0.3-0.3,0.5-0.5c0.1-0.1,0.2-0.1,0.3-0.2c0.2-0.2,0.3-0.5,0.5-0.6c0.1-0.1,0.2-0.1,0.3-0.2c0.3-0.2,0.6-0.6,0.9-0.8
				c0.2-0.1,0.4-0.2,0.6-0.3c0.1-0.2,0.3-0.3,0.4-0.5c0.1-0.1,0.2-0.1,0.3-0.2c0-0.1,0-0.1,0.1-0.1c0.5-0.4,1.5-0.5,1.5-1.4
				c-0.1-0.1-0.1-0.2-0.2-0.4c0.3-0.1,0.6-0.3,0.9-0.4c0-0.1,0,0,0-0.1c0.3-0.1,0.7-0.2,1-0.3c0.2,0,0.4-0.1,0.7-0.1
				c0.2-0.1,0.8-0.4,1.1-0.3c0.1,0,0.3,0.2,0.5,0.2c0.3,0.1,0.5-0.1,0.8,0c0,0,0,0.1,0,0.1c0,0,0,0,0,0c-0.2,0.2-0.5,0.2-0.7,0.3
				c0,0.1,0,0.1-0.1,0.2c0.2,0,0.3,0.2,0.5,0.2c0,0,0,0,0,0c-0.1-0.1-0.2-0.3-0.2-0.4c0.1,0,0.1-0.1,0.2-0.1
				c0.2,0.2,0.4,0.4,0.7,0.4c0.2-0.2,0.9-0.5,1.3-0.4c0.4,0.1,0.8,0.4,1.3,0.3c0.5-0.1,1-0.2,1.5-0.3c0.4,0,0.8,0,1.1-0.1
				c0.4-0.1,0.6-0.3,1-0.4c0-0.1,0-0.1,0-0.1c0.3-0.3,1.4-0.5,2.1-0.4c0.3,0,0.6,0,0.9,0c0.1,0.1,0.3,0.2,0.5,0.2
				c0.2-0.2,0.5-0.3,0.7-0.4c0.1-0.1,0.3-0.3,0.4-0.3c0.2-0.1,0.3,0,0.5-0.1c0.1,0,0.2-0.1,0.2-0.1c0.3-0.1,0.7,0.2,0.7,0.3
				c0.1,0.1,0.2,0.6,0.1,0.7c-0.2,0.1-0.4,0.1-0.4,0.4c0.1,0.2,0.2,0.5,0.3,0.7c0,0,0,0,0.1,0c0.1-0.1,0.1-0.1,0.3-0.1
				c0-0.3,0.3-0.5,0.5-0.5c0.1,0.2,0.3,0.1,0.3,0.4c0,0.1,0,0.1,0,0.2c0.1,0,0.2,0.1,0.2,0.2c0,0,0,0,0.1,0c0.1-0.2,0.5-0.4,0.7-0.4
				c0.1,0.1,0,0.3,0.2,0.3c0.1-0.2,0.1-0.4,0.3-0.5c0.1-0.1,0.5,0,0.6-0.1c0,0,0-0.1,0-0.2c-0.1-0.1-0.1-0.2-0.1-0.3
				c0.3,0,0.9,0.2,0.9-0.3c-0.1-0.1-0.1-0.4,0-0.5c0.1-0.1,0.2-0.2,0.4-0.2c0.2,0.2,0.2,0.4,0.4,0.7c0.1,0,0.1,0.1,0.3,0.1
				c0-0.1,0-0.1,0-0.2c-0.1-0.2-0.1-0.4-0.2-0.6c-0.1-0.2-0.4-0.3-0.4-0.5c-0.1-0.2,0-0.5-0.1-0.7c-0.1-0.2-0.3-0.4-0.2-0.6
				c0.1-0.4,0.4-0.6,0.6-0.9c0.2-0.3,0.2-0.7,0.4-0.9c0.1-0.2,0.4-0.2,0.5-0.3c0.1-0.1,0.2-0.2,0.3-0.3c0,0,0.1,0,0.1,0
				c0,0,0-0.1,0.1-0.1c0.2-0.2,0.3-0.3,0.5-0.5c0.8-0.7,1.5-1.5,1.9-2.5c0.2-0.3,0.4-0.6,0.5-0.9c0.1-0.4-0.1-0.9-0.1-1.3
				c0-0.2,0.1-0.6,0-0.7c-0.1-0.2-0.2-0.2-0.4-0.3c0.1-0.3,0.2-0.6,0.2-0.8c0.1-0.3,0-0.6,0.1-0.8c0.3-0.2,0.5-0.4,0.9-0.5
				c0.2,0,0.4,0,0.5,0c0.2-0.1,0.4-0.4,0.6-0.5c0.6-0.4,1.2-0.7,2.1-0.7c0.1,0.1,0.1,0.3,0.1,0.4c-0.1,0.1-0.1,0.3-0.1,0.4
				c-0.2,0.1-0.4,0.1-0.5,0.2c0,0.1,0,0.1,0.1,0.2c0.1,0.8-0.2,0.7-0.8,0.7c-0.1,0.1-0.2,0.4-0.4,0.5c-0.1,0.1-0.3,0-0.4,0
				c-0.1,0-0.2,0-0.2,0.1c-0.1,0.2-0.2,0.4-0.2,0.7c0.1,0.1,0.2,0.3,0.2,0.4c0.1,0,0,0,0.1,0c0.2-0.1,0.2-0.2,0.4-0.3
				c0,0,0,0.1,0,0.1c0.1,0.2,0,1.2-0.1,1.2c-0.1,0.1-0.3,0.3-0.2,0.5c0,0.2,0.2,0.2,0.3,0.3c0.5,0.5,0.9,0.6,1.8,0.3
				c0.1-0.3,0.3-1,0.5-1.1c0.3-0.2,0.8-0.3,1.1-0.4c0.5-0.2,1-0.4,1.5-0.6c0.3-0.1,0.6-0.2,0.9-0.3c0.3-0.1,0.4-0.5,0.7-0.6
				c0.1,0,0.2,0,0.4,0c0.3-0.1,0.7-0.1,0.9-0.3c0.4-0.3,0.7-0.8,1-1.1c0.4-0.3,0.7-0.7,1-1c0.1-0.2,0.2-0.3,0.3-0.5
				c0.1-0.1,0.3-0.2,0.4-0.4c0.1-0.2,0.1-0.6,0.2-0.9c0.1-0.4,0.3-0.7,0.5-1c0.1-0.1,0.3-0.3,0.4-0.4c0.2-0.1,0.3-0.4,0.5-0.5
				c0.5-0.3,1.2-0.3,1.7-0.7c0.3-0.2,0.5-0.5,0.7-0.8c0.2-0.4,0.3-0.9,0.4-1.4c0.1-0.4-0.1-0.8,0-1.1c0.1-0.2,0.2-0.4,0.3-0.6
				c0,0,0.1,0,0.1,0c0-0.1,0-0.1,0-0.2c0-0.1,0.1-0.2,0.2-0.3c0.1-0.2,0-0.4,0.1-0.5c0.2-0.4,0.6-0.6,0.9-1c0.1-0.2,0.2-0.5,0.3-0.7
				c0.2-0.4,0.4-0.8,0.5-1.2c0-0.2,0-0.5,0.1-0.7c0,0-0.1-0.1-0.1-0.2c0-0.2,0.2-0.3,0.2-0.4c0.1-0.2-0.1-0.3,0-0.6
				c0.1-0.3,0.3-0.4,0.4-0.6c0.2-0.4,0.1-0.9,0.2-1.4C75,47,75,46,74.3,45.2c-0.2,0-0.5,0-0.7,0.1c-0.1,0.1-0.1,0.2-0.2,0.2
				c-0.2,0.1-0.4-0.1-0.5-0.2c-0.3-0.2-0.6-0.8-0.4-1.3c0,0,0,0,0.1,0c0,0,0.9,0.1,1.2,0.1c0.2-0.2,0.4-0.4,0.5-0.7
				c0-0.5,0.1-0.9,0.2-1.4c0-0.2,0.1-0.6,0-0.7c-0.1-0.2-0.3-0.3-0.4-0.5c-0.1-0.3,0.1-0.9-0.2-1.1c-0.1,0-0.2-0.1-0.3-0.1
				c0-0.1-0.1-0.1-0.1-0.3c0.3-0.3,0.6-0.6,0.8-0.9c0.1-0.2,0.1-0.4,0.5-0.4c0.2,0.2,1-0.3,1.1-0.4c0.1-0.1,0-0.2,0.1-0.4
				c0.1-0.4,0.1-0.9,0.2-1.3c0.1-0.1,0.1-0.1,0.2-0.2c0,0,0,0,0,0c-0.3,0-0.1-0.2-0.3-0.3c-0.1-0.1-0.3-0.1-0.4-0.3
				c0.2-0.1,0.3-0.1,0.4-0.2c0.1-0.2,0-0.5,0.1-0.7c0-0.1,0.1-0.2,0.2-0.3c0.2,0.1,0.4,0.3,0.6,0.3c0.2,0.1,0.4-0.1,0.7-0.1
				c0.1,0.1,0.2,0.1,0.3,0.2c0.1,0.2,0.1,0.5,0.1,0.7c0.1,0.4,0.3,0.9,0.4,1.3c0.1,0.3,0.1,0.8,0.5,0.8c0.1-0.1,0.3-0.1,0.3-0.2
				c0.2-0.4-0.2-1.1,0.5-1.1c0.1,0.1,0.3,0.1,0.3,0.2c0.1,0.1,0.1,0.2,0.1,0.3c0.2,0.3,0.9,0.7,1.2,0.3c0.1-0.2,0.2-0.8,0.2-1.1
				c0-0.2,0-0.4,0-0.5c0-0.1,0.1-0.2,0.1-0.2c0-0.4,0-0.9-0.5-0.9c0,0.1-0.1,0.3-0.1,0.4c-0.1,0.1-0.2,0.2-0.3,0.3
				c0,0,0,0.1-0.1,0.2c-0.3,0.1-0.8,0-1,0.1c-0.1,0.1-0.6,0.4-0.7,0.3c-0.1,0-0.1,0-0.1-0.1c-0.1-0.2-0.1-0.6-0.1-0.8
				c0-0.1,0-0.2,0-0.3c0.1-0.4,0.1-0.7,0.2-1.1c0.1-0.2,0.3-0.4,0.3-0.6c0.1-0.3-0.2-0.5,0.1-0.6c0.1-0.1,0.1-0.1,0.2-0.1
				c0.3,0.3,0.8,0.3,1.1,0.5c0.4,0.2,0.5,0.7,1,0.8c0.5,0.1,0.9-0.4,1.2-0.5c0,0.1,0,0.1,0.1,0.2c-0.2,0.3-0.1,0.7-0.2,1
				c-0.3,1.3-0.2,3.4,0.3,4.4c0.1,0.3,0.2,0.9,0.6,1.1c0.1,0.1,0.3,0,0.4,0.1C84.2,39.4,84.8,40.2,84.8,40.3L84.8,40.3z M79.8,39.6
				c-0.1,0.2-0.3,0.1-0.4,0.4c-0.1,0.2,0.1,0.5,0.2,0.4c0.1,0,0.1-0.1,0.2-0.1c0.1,0,0.1,0.1,0.2,0.1c0,0,0-0.1,0-0.2
				c0.1,0,0.1,0,0.2-0.1C80.1,39.9,80,39.6,79.8,39.6C79.8,39.6,79.8,39.6,79.8,39.6L79.8,39.6z M74.5,43.6
				c-0.1,0.1-0.2,0.1-0.3,0.2c0,0.1-0.1,0.1-0.1,0.2c0,0.7,0.1,0.8,0.4,1.1c0.2-0.1,0.2-0.1,0.5-0.1c0.1-0.2,0.1-0.7,0.1-1
				c0-0.1-0.1-0.2-0.1-0.3C74.8,43.7,74.7,43.7,74.5,43.6L74.5,43.6z M74.4,43.8c0.1,0,0.2,0,0.3,0c0.2,0.3,0.2,0.7,0.1,1.1
				c-0.1,0-0.3,0-0.4,0c0,0,0,0,0,0C74.3,44.4,74.2,44.3,74.4,43.8L74.4,43.8z M65.5,57.7c0.1,0,0.2,0,0.3,0c0,0.1,0.1,0.1,0.1,0.3
				c-0.1,0.2-0.1,0.5-0.2,0.7c-0.1,0.3-0.3,0.4-0.3,0.9c0.1,0.1,0.1,0.1,0.2,0.1c0.2-0.2,0.4-0.3,0.7-0.3c0,0.1,0.1,0.1,0.1,0.2
				c-0.2,0.3-0.2,0.8-0.4,1.1c-0.1,0.1-0.8,0.7-0.9,0.8c-0.1,0-0.2,0-0.2,0.1c-0.3,0.1-0.6,0.4-0.9,0.1c-0.1-0.1,0,0,0-0.1
				c0.3-0.1,0.4-0.3,0.4-0.7c0.2-0.1,0.5-0.2,0.5-0.5c0,0,0,0,0-0.1c-0.1,0-0.2,0-0.2,0c-0.1,0.1-0.3,0.4-0.5,0.4
				c0-0.1-0.1-0.1-0.1-0.1c0-0.2,0-0.3,0-0.5c0.1-0.2,0.2-0.4,0.3-0.5c0.1-0.2,0.1-0.4,0.2-0.5c0.1-0.2,0.5-0.3,0.6-0.5
				c0.2-0.2,0.3-0.6,0.6-0.7C65.4,57.7,65.5,57.7,65.5,57.7L65.5,57.7z M75,63.4c0,0-0.1,0-0.2,0c0,0,0,0,0,0.1
				c-0.2,0.3,0.2,0.8,0.3,0.9c0.2,0.1,0.4-0.2,0.5-0.3c0-0.3,0-0.6-0.2-0.6C75.3,63.3,75.2,63.3,75,63.4L75,63.4z M56.6,66.6
				C56.7,66.6,56.7,66.6,56.6,66.6c0.3,0.4-0.1,0.6-0.4,0.6c-0.1-0.1-0.2-0.2-0.3-0.3c0,0,0,0,0,0C56.1,66.7,56.5,66.8,56.6,66.6
				L56.6,66.6z M32,72.8c0.1,0,0.2,0,0.3,0c0.2,0.3,0.6,0.5,0.5,1.1c0,0.1,0,0.2-0.1,0.3c-0.1,0-0.2,0.1-0.3,0.1
				c-0.2,0.1,0,0.2-0.3,0.2c-0.3-0.2-0.7-0.2-0.7-0.7c0.1-0.2,0.1-0.4,0.2-0.6C31.7,73,31.9,72.9,32,72.8L32,72.8z M30.3,74.3
				c0.2,0,0.4,0,0.6,0.1c0,0.1,0.1,0.1,0.1,0.2c-0.3,0.2-0.7,0.4-1.1,0.4c-0.1-0.1-0.1-0.1-0.1-0.3c0.1-0.1,0.1-0.3,0.3-0.3
				C30.1,74.4,30.2,74.4,30.3,74.3L30.3,74.3z M77.9,76.1c0.2,0,0.3-0.1,0.5-0.1c0.1,0.1,0.3,0.2,0.6,0.2c0,0,0,0,0-0.1
				c-0.5-0.3-0.6-1.4-1.3-1.4c0,0,0,0,0,0c0,0,0,0,0,0.1c0.2,0.1,0.5,0.3,0.5,0.5c-0.1,0-0.1,0-0.2,0.1c-0.3,0.2-0.7-0.1-0.9-0.1
				c0,0,0,0.1,0,0.1c0.1,0.1,0.2,0.2,0.3,0.3c0.2,0.1,0.5,0,0.6,0c0.1,0,0.1,0,0.1,0.1c0,0,0,0,0,0c0,0,0,0,0,0
				c0,0.1-0.1,0.1-0.2,0.1C77.9,76,77.9,76.1,77.9,76.1L77.9,76.1z M78.9,74.8c0,0.4,0.4,1.3,0.7,1.3c0-0.1,0-0.1,0-0.2
				C79.3,75.7,79.1,75.2,78.9,74.8C78.9,74.8,78.9,74.8,78.9,74.8L78.9,74.8z M31.2,74.9c0,0,0.1,0,0.2,0c0.1,0.1,0.1,0.2,0.1,0.3
				c-0.1,0.1-0.5,0.5-0.7,0.2c-0.1-0.1,0-0.2,0-0.3C30.9,75,31.1,75,31.2,74.9L31.2,74.9z M30.4,79.3c-0.2,0.1-0.5,0.1-0.7,0.2
				c-0.1,0.1-0.1,0.3-0.1,0.5c0.1,0,0.2,0,0.3,0c0.3-0.2,0.9-0.1,1.3-0.2c0.1,0,0.3-0.1,0.4-0.1c0,0,0-0.1,0-0.1
				c-0.1-0.1-0.1-0.2-0.2-0.3C31.1,79.3,30.7,79.3,30.4,79.3L30.4,79.3z M51,79.8c-0.1,0.6-0.9,0.3-0.9,1c0.1,0.1,0.3,0.2,0.3,0.4
				c-0.1,0.1-0.2,0.3-0.3,0.4c-0.2,0.2-0.5,0.3-0.6,0.5c-0.1,0.3,0.1,0.7,0,0.9c-0.1,0.2-0.2,0.4-0.1,0.8c0.1,0,0.1,0,0.1,0.1
				c0,0,0,0,0,0c0.2-0.3,0.2-0.8,0.4-1.1c0.2-0.2,0.5-0.2,0.7-0.4c0.1-0.1,0.3-0.3,0.4-0.4c0.3-0.2,0.5-0.1,0.5-0.6
				c-0.2-0.2,0-0.4-0.1-0.7C51.4,80.4,51.3,79.8,51,79.8L51,79.8z M6.8,84.1c0,0,0.1,0,0.1,0c0.1,0.1,0.1,0.2,0.2,0.3
				c0.1,0.3-0.5,1.2-0.6,1.4c-0.1,0.1-0.2,0.2-0.3,0.3c-0.1,0.3,0,1-0.3,1.1c-0.1,0-0.2-0.1-0.3-0.1c-0.1-0.1-0.1-0.1-0.2-0.2
				c-0.2-0.1-0.2,0.1-0.3-0.1c-0.2-0.3,0.1-0.7,0.2-0.9c0.1-0.2,0.1-0.6,0.2-0.8c0.2-0.3,0.5-0.3,0.8-0.5
				C6.5,84.4,6.7,84.2,6.8,84.1L6.8,84.1z M71.7,85.6c0.1,0,0.1,0,0.1,0c0.1,0,0.3,0.2,0.4,0.3c0.1,0.1,0.1,0.3,0.1,0.5
				c-0.2,0.1-0.3,0.2-0.5,0.2c-0.2-0.3-0.3-0.5-0.2-0.9C71.6,85.7,71.7,85.6,71.7,85.6L71.7,85.6z M4.9,87c0.2,0,0.2,0.1,0.5,0.1
				c0.1,0.1,0.2,0.2,0.2,0.3c0.1,0.1,0.2,0,0.2,0.1c0,0,0,0.1,0,0.2C5.6,88,5.3,88.9,4.8,89c-0.1-0.1-0.2-0.1-0.3-0.1
				c-0.1-0.1-0.1-0.2-0.1-0.3C4.7,88.1,4.7,87.4,4.9,87L4.9,87z M42.8,87c0.1,0,0.1,0,0.2,0c0,0,0,0,0,0.1c0.1,0.2-0.2,0.6-0.3,0.8
				c-0.2,0.2-0.4,0.6-0.5,0.8c0,0.1,0.1,0.2,0.1,0.3c0,0.1,0,0.3,0,0.4c0.2,0,0.3,0.2,0.3,0.4c-0.2,0.2-0.5,0.4-0.8,0.6
				c-0.2,0.1-0.2,0.3-0.5,0.4c-0.2-0.2-0.4-0.3-0.5-0.4c0-0.2,0.1-0.2,0.1-0.4c-0.2-0.1-0.4-0.2-0.6-0.3c0-0.1,0-0.1,0-0.2
				c0.1-0.3,0.4-0.2,0.6-0.4c0-0.1,0.1-0.2,0.1-0.3c0.1-0.2,0.2-0.3,0.3-0.5c0.2-0.2,0.4-0.3,0.6-0.4c0.2-0.2,0.4-0.4,0.6-0.6
				C42.5,87.1,42.7,87.1,42.8,87L42.8,87z M37.7,88.2c0-0.2,0.1-0.1,0.1-0.3c0,0,0,0,0,0c-0.4,0-0.3,0.1-0.6,0.1
				c0-0.2,0.1-0.2,0.2-0.3c0-0.1,0-0.2,0-0.3c0-0.1,0.1-0.1,0.2-0.1c0.2-0.2,0.9-0.2,1.2-0.1c0,0,0,0.1,0,0.1
				c0.1,0.1-0.2,0.8-0.2,0.8c-0.1,0-0.1,0-0.2,0c0,0,0,0-0.1,0c0,0,0-0.1,0-0.2c0,0,0,0,0.1-0.1c0,0,0,0-0.1,0c0,0-0.1,0-0.1,0
				c-0.1,0.1-0.2,0.2-0.4,0.3C37.8,88.2,37.8,88.2,37.7,88.2L37.7,88.2z M37.4,89c0.2,0,0.2-0.1,0.4-0.1c0,0,0.3,0.4,0.3,0.4
				c0.2,0.1,0.5,0,0.6,0.1c0.2,0.1,0.2,0.3,0.4,0.5c0.1-0.1,0.4-0.1,0.6-0.2c0.1,0.1,0.3,0.2,0.4,0.2c0,0.2,0,0.3,0,0.4
				c0.1,0.1,0.3,0.1,0.4,0.2c0.2,0.4-0.5,0.5-0.5,0.8c0.1,0.1,0.1,0.4,0.1,0.5c0.2,0.1,0.6,0.1,0.8,0.1c0,0,0,0,0,0.1
				c0,0,0,0.1,0,0.2c-0.2,0.1-0.3,0.3-0.4,0.4c0,0.1,0,0,0,0.1c0.1,0.1,0.5,0,0.6,0.1c0,0,0,0,0,0.1c-0.1,0.1-0.2,0.2-0.4,0.2
				c-0.2,0.1-0.4,0.1-0.6,0.2c-0.2,0.1-0.3,0.4-0.5,0.5c-0.2,0.2-0.6,0.1-0.8,0.3c-0.2,0.1-0.3,0.4-0.4,0.6
				c-0.1,0.1-0.3,0.3-0.4,0.4c-0.2,0.4-0.6,1-0.7,1.4c-0.1,0.3-0.1,1-0.3,1.1c0,0,0,0,0,0c0,0,0,0,0,0c-0.3-0.1-0.6-0.8-0.8-1
				c-0.1-0.1-0.2-0.2-0.4-0.3c-0.2-0.2-0.7-0.8-0.9-0.9c-0.2-0.1-0.4,0-0.5,0c-0.1,0-0.2-0.2-0.4-0.2c0,0-1,0.1-1,0.1
				c-0.1,0-0.1,0.1-0.2,0.2c-0.2,0.1-0.5,0-0.6,0.2c0,0,0,0,0,0c0.1,0,0.2,0,0.2,0c0,0,0,0.1,0,0.1c0,0-0.1,0-0.1,0
				c-0.6,0.4-1.4,0.1-1.4,1.1c0,0,0.1,0,0.1,0.1c-0.1,0.2-0.5,1-0.6,1c0-0.1,0-0.1-0.2-0.1c0,0-0.1,0.1-0.2,0.1
				c-0.1,0.1,0,0.2-0.1,0.3c-0.1,0.2-0.3,0.5-0.5,0.6c0,0-0.1-0.1-0.1-0.2c-0.2,0.3-0.4,0.4-0.4,0.8c0.1,0,0.1,0,0.1,0.1
				c-0.1,0.1-0.3,0.3-0.3,0.5c0.1,0.1,0.1,0.2,0.1,0.4c0,0.1,0.1,0.1,0.2,0.2c0.1,0.2,0,0.4,0,0.6c0,0,0,0-0.1,0c0,0-0.1,0-0.1,0
				c-0.3-0.2-0.4-0.6-0.9-0.6c-0.1,0.1-0.1,0.2-0.2,0.2c-0.1-0.1-0.4,0-0.7,0.1c0-0.1-0.1-0.1-0.1-0.1c0,0,0-0.1,0-0.2
				c-0.2,0-0.6,0-0.8,0c0-0.1,0,0,0-0.1c0-0.1,0.1-0.4,0.2-0.4c0.1-0.2,0.2,0,0.2-0.3c-0.1-0.1-0.1-0.3-0.4-0.3c0,0-0.1,0-0.1,0
				c0,0,0,0.1-0.1,0.1c-0.1,0-0.2,0-0.4,0c-0.1,0-0.1,0.1-0.2,0.1c-0.1-0.1-0.1-0.1-0.1-0.1c0,0,0.1-0.8,0.1-1c-0.1,0-0.1,0-0.1-0.1
				c-0.1,0.1-0.2,0.2-0.3,0.2c0,0,0-0.1,0-0.1c-0.1-0.1,0-0.4,0-0.5c0.1,0,0.2-0.1,0.3-0.1c0,0,0,0,0,0c-0.1-0.1-0.1-0.5-0.1-0.7
				c-0.1-0.1-0.3-0.1-0.4-0.3c0,0,0-0.1,0-0.2c0.1,0,0.1,0,0.2,0c0.1,0.1,0.3,0.2,0.5,0.3c0.1-0.1,0.2-0.1,0.3-0.1
				c-0.1-0.2-0.1-0.4-0.2-0.6c-0.2-0.2-0.5-0.1-0.6-0.4c0,0,0-0.1,0-0.2c-0.1,0-0.1,0-0.2,0c0-0.1,0-0.1,0-0.2
				c0.1-0.1,0.3-0.3,0.3-0.4c-0.1,0-0.2,0-0.3,0c-0.1,0.1-0.4,0.1-0.5,0.2c-0.4,0.2-1,0.9-1.5,0.3c-0.1-0.1,0-0.1,0-0.2
				c0.4,0,0.7-0.2,1-0.4c0.4-0.2,0.7-0.2,1-0.4c0.5-0.3,0.9-0.8,1.3-1.1c0.3-0.2,0.7-0.4,0.9-0.7c0.2-0.3,0.1-1,0.3-1.3
				c0-0.1,0.1-0.1,0.2-0.1c0.2-0.3,0.4-0.6,0.6-0.8c0.1,0,0.2-0.1,0.3-0.1c0.1,0,0.1-0.2,0.1-0.2c0.1-0.1,0.2-0.2,0.3-0.3
				c0,0,0.1,0,0.2,0c0.1,0.1,0.1,0.1,0.2,0.1c0.2,0.1,0.4,0.5,0.6,0.7c0.1,0.2,0.2,0.5,0.5,0.6c0.4,0.2,0.7-0.3,1-0.4
				c0.4-0.2,0.7,0.1,1.1,0.1c0.3-0.1,0.5-0.3,0.9-0.3c0,0,0-0.1,0-0.1c0.1,0,0.1-0.1,0.2-0.1c0.1-0.2,0-0.8,0-0.9
				c-0.1-0.1-0.3-0.2-0.3-0.4c0,0,0.1,0,0.1,0c0.2,0.2,0.8,0,0.9-0.1c0.2-0.1,0.3-0.3,0.4-0.4c0.2-0.1,0.8-0.3,1.1-0.3
				c0.3-0.1,0.4,0.3,0.8,0.1c0.2-0.1,0.3-0.2,0.5-0.2c0,0,0.1,0.1,0.1,0.1C37.4,88.8,37.4,88.9,37.4,89L37.4,89z M71.4,89.4
				c-0.1,0-0.1,0-0.2,0c0-0.1-0.1-0.1-0.1-0.2c-0.1-0.2,0.1-0.6,0.3-0.7c0,0.1,0,0.1,0.1,0.2C71.5,89,71.4,89.2,71.4,89.4L71.4,89.4
				z M31.1,88.6c0.2,0.1,0.5,0.5,0.1,0.6c0-0.1-0.1-0.2-0.1-0.3c0,0,0,0,0,0c0,0.1-0.1,0.1-0.2,0.2c-0.1,0-0.2,0-0.2,0
				c0,0,0-0.1,0-0.2c0.1,0,0.1-0.2,0.2-0.2C31,88.7,30.9,88.8,31.1,88.6C31.1,88.7,31.1,88.7,31.1,88.6L31.1,88.6z M31.2,89.4
				C31.2,89.4,31.2,89.4,31.2,89.4c-0.1,0.1-0.1,0.2-0.2,0.2c-0.1,0.1-0.2,0.1-0.4,0c0-0.1,0-0.2-0.1-0.2c-0.1,0.1-0.4,0.2-0.6,0.2
				c0-0.1,0-0.1,0-0.2c0.1-0.1,0.1-0.1,0.2-0.1c0,0,0-0.1,0-0.1c-0.1,0-0.1,0-0.1-0.1c0.1,0,0.1,0,0.1-0.2c0,0,0-0.1,0-0.1
				c0.1,0,0.2-0.1,0.3-0.1c0,0,0.1,0.1,0.2,0.1c0.1,0.1,0.1,0.5,0.2,0.5c0.1-0.1,0.1-0.1,0.2-0.1C31,89.3,31,89.4,31.2,89.4
				L31.2,89.4z M29.7,88.7c0.1,0.1,0.1,0.1,0.1,0.3c-0.2,0.1-0.1,0.3-0.2,0.5c-0.1,0-0.1,0-0.2,0c-0.1,0.1-0.2,0-0.3,0
				c0-0.1-0.1-0.1-0.1-0.3c0,0,0,0,0-0.1C29.3,89,29.5,88.9,29.7,88.7L29.7,88.7z M26,90.2c0-0.2,0.1-0.2,0.1-0.4
				c-0.1,0-0.4-0.2-0.4-0.3c-0.1-0.1-0.1-0.3-0.1-0.4c0.1,0,0.1,0,0.2,0c0.1,0,0.2,0.1,0.3,0.1c0-0.2,0-0.2,0-0.3c0.1,0,0.1,0,0.2,0
				c0.1,0.1,0.2,0.1,0.3,0.2c0.1,0.2-0.1,0.8-0.1,1c0,0,0,0,0.1,0c0-0.2,0.1-0.3,0.3-0.3c0.1,0.1,0.2,0.1,0.2,0.3
				c-0.1,0-0.2,0.1-0.2,0.2c0,0,0.1,0.1,0.1,0.2c0,0,0.1,0,0.2,0c0,0.1,0.1,0.1,0.1,0.2c-0.1,0.1-0.3,0.1-0.4,0.2
				c-0.1,0.1,0,0.1-0.1,0.2c0,0-0.1,0-0.2,0c0-0.1,0-0.1-0.1-0.2c0,0,0-0.1,0.1-0.1c0,0-0.1,0-0.1,0c-0.1,0-0.1,0-0.2,0
				c0-0.1-0.1-0.1-0.1-0.3c0.1,0,0.1-0.1,0.2-0.1C26.1,90.2,26.1,90.2,26,90.2L26,90.2z M26,89.3c0,0.1,0,0.1,0.1,0.2c0,0,0,0,0.1,0
				c0-0.1,0-0.1,0.1-0.1c0,0,0,0,0,0c0,0,0,0,0-0.1C26.1,89.3,26.1,89.3,26,89.3L26,89.3z M29.8,90.4c0-0.1,0-0.3,0-0.3
				c0-0.1,0.1,0,0.1-0.1c-0.1-0.1-0.1-0.1-0.1-0.2c0.1-0.1,0.2-0.1,0.4-0.1c0.1,0.1,0.2,0.1,0.3,0.3c-0.1,0.1-0.4,0.3-0.5,0.4
				C29.9,90.4,29.8,90.4,29.8,90.4L29.8,90.4z M70.5,90c0.2,0,0.4,0.1,0.4,0.3c-0.1,0.1-0.2,0.2-0.3,0.3c-0.1,0,0,0-0.1,0
				c-0.1,0-0.1-0.1-0.1-0.3C70.4,90.2,70.4,90.1,70.5,90L70.5,90z M26.4,90.2C26.4,90.1,26.4,90.1,26.4,90.2c-0.1,0-0.1,0-0.2,0
				c0,0,0,0,0,0c0,0,0,0,0.1,0C26.3,90.2,26.4,90.2,26.4,90.2L26.4,90.2z M22.1,96.6c-0.1,0.4-0.4,0.5-0.5,0.8
				c0.1,0.1,0.3,0.2,0.4,0.3c0,0.2-0.1,0.3-0.1,0.4c0,0,0,0,0.1,0c0.1-0.2,0.4-0.4,0.7-0.4c0,0.1,0,0.1,0.1,0.2
				c-0.1,0.2-0.2,0.4-0.3,0.6c-0.1,0.1-0.3,0.2-0.4,0.3c0,0,0,0,0,0c0,0,0,0,0,0c0.2,0.2,0.7,0.1,1,0.1c0,0.1,0,0.1,0,0.2
				c-0.1,0.1-0.4,0.5-0.5,0.7c0.1,0.1,0.2,0.2,0.2,0.3c-0.2,0.2-0.6,0.1-0.8,0.3c-0.1,0.2-0.1,0.5-0.3,0.7c-0.3,0.5-1.2,0.6-1.3,1.3
				c0.2,0.1,0.3,0.2,0.3,0.4c0,0,0,0.1-0.1,0.1c-0.1,0-0.2,0-0.3,0.1c-0.3,0.2-0.3,0.7-0.5,1c-0.5,0.9-0.9,2-1.2,3.1
				c-0.1,0.4,0.2,0.6,0.2,0.8c0,0.3-0.3,0.6-0.4,0.9c-0.1,0.2,0,0.4-0.1,0.5c-0.1,0.1-0.2,0.2-0.3,0.3c0,0.2,0,0.4,0,0.6
				c-0.1,0.3-0.6,1.2-0.9,1.2c-0.2-0.3-0.6-0.4-0.7-0.8c-0.4,0-0.9,0-1.2,0.1c0,0.1,0,0.1,0,0.2c0,0.1,0.1,0.1,0.1,0.2
				c0.2,0.1,0.6,0.2,0.7,0.4c0,0,0,0.1,0,0.2c-0.1,0.1-0.2,0.3-0.3,0.4c-0.2,0.1-0.4,0.1-0.5,0.2c-0.1,0.1-0.1,0.2-0.1,0.3
				c-0.1,0.1-0.3,0.2-0.4,0.3c-0.4,0.2-0.8,0.2-1.2,0.4c-0.3,0.1-0.5,0.4-0.8,0.4c0-0.1,0-0.1,0-0.2c0.2-0.2,0.2-0.5,0.3-0.7
				c0.1-0.1,0.3-0.2,0.4-0.3c0.1-0.2,0-0.4,0.1-0.6c0.1-0.3,0.3-0.7,0.2-1.2c-0.1-0.5-0.6-0.8-0.5-1.4c0,0,0,0-0.1,0
				c-0.1,0.1-0.3,0-0.4,0c-0.1-0.1-0.1-0.2-0.1-0.3c0,0,0-0.1,0.1-0.1c0.1-0.1,0.2-0.2,0.4-0.2c0.2,0.2,0.4,0.6,0.7,0.6
				c0.1-0.2,0.2-0.5,0.2-0.8c-0.1-0.1-0.4-0.2-0.5-0.3c0,0,0,0,0-0.1c-0.2,0-0.3,0-0.4,0c-0.1,0.2-0.1,0.4-0.3,0.5
				c-0.1,0-0.1,0.1-0.2,0.1c0,0.2-0.1,0.3-0.1,0.4c-0.1,0.4-0.5,0.9-0.3,1.4c0,0.1,0.4,0.6,0.5,0.7c0.1,0.1,0.3,0.1,0.4,0.2
				c0.2,0.3-0.6,0.8-0.7,1c-0.9,0-0.5-0.5-1-0.7c-0.4-0.2-1.1,0.1-1.5-0.1c-0.2-0.1-0.4-0.5-0.5-0.8c0-0.1,0-0.2,0-0.3
				c0-0.1-0.3-0.3-0.4-0.4c0,0,0,0,0-0.1c0,0,0.1,0,0.1,0c0.2-0.1,0.8,0,1,0c0.1-0.1,0.2-0.3,0.3-0.4c0.2-0.4,0.2-1.2-0.1-1.6
				c-0.1-0.2-0.5-0.3-0.6-0.4c-0.1-0.1-0.1-0.5,0-0.7c0-0.2,0.1-0.4,0.2-0.5c0.1-0.3-0.1-0.5-0.1-0.7c0-0.1,0.2-0.8,0.3-0.8
				c0.2-0.2,0.5,0.1,0.7,0.1c0.2-0.3,0.2-0.7,0.4-1c0.2-0.1,0.3-0.3,0.5-0.4c0.1-0.2,0.2-0.4,0.3-0.7c0.2-0.3,0.5-0.3,0.4-0.8
				c-0.1-0.3,0.5-0.7,0.4-0.9c0-0.1,0,0-0.1-0.1c-0.2-0.1-0.8,0.5-1,0c0,0,0-0.1,0-0.1c0.1-0.1,0.2-0.3,0.4-0.4
				c0.2-0.1,0.3-0.1,0.4-0.1c0.2-0.1,0.3-0.4,0.4-0.5c0-0.6-0.7-1.2-1-1.7c-0.1-0.2-0.1-0.3-0.1-0.5c0-0.2,0-0.3,0-0.4
				c-0.1-0.3-0.2-0.5-0.3-0.7c-0.3,0.2-0.2-0.1-0.6,0c-0.2,0-0.3,0.1-0.5,0.1c0,0.1-0.1,0.1-0.1,0.2c0,0.1,0,0,0,0.1
				c0,0,0.4,0.4,0.4,0.4c0,0.7-0.3,1-0.7,1.3c0,0,0,0,0,0.1c0.1,0.1,0.1,0.1,0.2,0.2c0.3,0,0.4-0.2,0.6-0.3c0.5-0.1,0.6,0.5,0.8,0.7
				c0,0.8-0.2,0.8-0.5,1.2c-0.1,0.1-0.2,0.3-0.4,0.4c-0.1,0-0.1,0-0.2,0.1c-0.1,0.1-0.1,0.1-0.2,0.2c-0.2,0.1-0.4-0.1-0.5-0.1
				c-0.1-0.1-0.1-0.2-0.2-0.3c-0.2-0.6,0.6-0.6,0.7-1.1c-0.5-0.3-0.6,0-1,0.1c-0.2,0.1-0.5,0-0.6,0c0,0.1,0.1,0.2,0.1,0.3
				c-0.2,0.1-0.5,0.2-0.6,0.3c-0.2,0.2-0.4,0.6-0.7,0.6c0-0.1,0-0.2,0-0.4c0.1-0.2,0-0.3,0.1-0.6c0.1-0.2,0.2-0.3,0.2-0.6
				c-0.1,0-0.3-0.1-0.3-0.2c-0.1-0.1,0.1-0.2-0.1-0.2c-0.1,0-0.3,0-0.4-0.1c0,0,0,0,0-0.1c-0.1-0.1-0.1-0.3-0.1-0.4
				c-0.3-0.2-0.5-0.5-0.6-0.9c0-0.2-0.1-0.5,0.1-0.6c0.1,0,0.1,0,0.2-0.1c0.2,0.2,0.6,0.4,0.8,0.5c0.2,0.1,0.3,0,0.4,0.2
				C8.3,98.1,8,98.4,8,98.6C8,98.6,8,98.8,8.1,98.9c0.1,0,0.1,0,0.2,0.1c0.1-0.1,0.1-0.2,0.3-0.2c0.1,0.1,0.2,0.1,0.2,0.1
				c0-0.1,0-0.1,0-0.2c-0.2-0.3-0.1-0.6-0.1-1c-0.1,0-0.3-0.1-0.4-0.2c-0.2-0.2-0.2-0.4-0.6-0.4c-0.3,0.2-0.6-0.2-0.7-0.4
				c0-0.1,0-0.2,0-0.3c-0.1-0.1-0.3-0.1-0.4-0.1c-0.2-0.4-0.2-0.5-0.2-1.1c0-0.3,0-0.4,0-0.7c0.1,0,0.1-0.1,0.3-0.1
				c0.2,0.1,0.3,0.2,0.5,0.2c0.1,0,0.2,0,0.4,0c0.1,0,0.1,0.1,0.2,0.1c0.1,0,0.1-0.1,0.2-0.1c0,0.1,0,0.1,0,0.2
				c0,0.2,0.1,0.2,0.2,0.3c0.1,0,0.2,0,0.2-0.1c0-0.1,0-0.2,0-0.3c-0.1-0.1-0.1-0.2-0.2-0.3c-0.1-0.1-0.2,0-0.3-0.1
				c-0.1-0.1-0.1-0.1-0.2-0.2c0,0,0-0.1,0-0.1C8,94.1,8.4,94,8.5,93.8c0.1-0.2-0.1-0.4,0.3-0.4c0.1,0.1,0.3,0.2,0.4,0.2
				c0.1,0,0.2,0,0.2,0c0.1,0.1,0.1,0.5,0.1,0.7c0.1-0.1,0.2-0.2,0.3-0.2c0,0,0-0.1,0-0.1c0.1,0,0.2-0.1,0.2-0.2
				c0.1-0.1,0.3,0,0.4-0.1c0,0,0,0,0-0.1c-0.2-0.1-0.4-0.1-0.4-0.4c0.3-0.2,0.7-0.5,1.1-0.6c0,0.1,0,0.1,0.1,0.2
				c-0.1,0.1-0.1,0.2-0.1,0.2c0,0.1,0.1,0.1,0.2,0.2c0.4,0,0.7-0.1,0.7-0.4c-0.3,0-0.6-0.1-0.7-0.2c0,0,0,0,0-0.1c0,0,0,0,0.1,0
				c0.2-0.1,0.3,0,0.6,0c0.1,0,0.2-0.1,0.4-0.1c0-0.1,0.1-0.2,0.2-0.3c0-0.2,0-0.3,0-0.5c0.1-0.3,0.4-0.6,0.7-0.7
				c0.2-0.1,0.4,0.1,0.7,0c0.3-0.1,0.6-0.4,1-0.2c0-0.2,0.1-0.3,0.2-0.4c0.3,0.1,0.4,0.3,0.8,0.4c0.3,0.1,0.6-0.2,1-0.1
				c0,0,0,0.1,0,0.1c-0.2,0.1-0.3,0.2-0.4,0.3c0,0.7,0,1.8,0.4,2.1c0.2,0.2,0.7,0.3,0.9,0.4c0,0,0.1,0.1,0.1,0.2
				c0.2,0.1,0.4,0.2,0.8,0.2c0.2-0.4,0.5-0.7,1-0.9c0.7-0.2,1.6,0.7,1.5,1.3c-0.1,0.7-0.6,1.1-1.1,1.3c-0.2,0.1-0.5,0-0.6,0.2
				c-0.1,0.1,0,0.3,0,0.4c0.3,0,0.5,0.1,0.7,0.2c0.2,0,0.4,0,0.6,0c0.2,0.1,0.6,0.2,0.9,0.1C21.8,96.7,22,96.6,22.1,96.6L22.1,96.6z
				 M73,90.8c0.2,0,0.3,0,0.3,0.1c0.1,0.1,0.1,0.4,0,0.4c-0.2,0.2-0.6,0.2-0.6-0.2c0-0.1,0.1-0.2,0.1-0.3C72.9,90.9,73,90.8,73,90.8
				L73,90.8z M7.8,90.9c0.1,0,0.2,0,0.3,0.1c0.4,0.1,0.4,0.7,0.3,1.1c-0.1,0.1-0.4,0.2-0.6,0.1c0,0-0.1-0.1-0.1-0.1
				c-0.1-0.1-0.2,0.1-0.2-0.1C7.4,91.7,7.6,91.1,7.8,90.9C7.8,90.9,7.8,90.9,7.8,90.9L7.8,90.9z M24.2,91.9c0,0,0.1,0,0.1,0
				c0.1,0.2,0.2,0.5,0.4,0.5c0.2-0.1,0.6-0.1,0.7,0c0,0,0,0,0,0.1c0,0,0,0-0.1,0c-0.2,0.2-0.6,0-1,0.1c-0.1,0-0.2,0.1-0.4,0.1
				c-0.1-0.1-0.1-0.1-0.2-0.2c-0.1-0.1,0-0.4,0.1-0.5C24,92,24.1,92,24.2,91.9L24.2,91.9z M73.5,92.8c0.1,0,0.1,0,0.2,0
				c0.1,0.1,0.1,0.1,0.1,0.2c0,0.1,0,0.1,0,0.2c-0.1,0.1-0.2,0-0.4,0c0-0.1,0-0.1-0.1-0.2C73.4,92.9,73.5,92.8,73.5,92.8L73.5,92.8z
				 M6.1,94.8c0.1,0,0.1,0,0.2,0c0,0.1,0,0.1,0.1,0.2c0,0.1,0,0.2-0.1,0.2c-0.1,0.1-0.2,0.2-0.3,0.3c0,0.1,0,0.2,0,0.3
				c0,0.1-0.2,0.1-0.3,0.2c-0.1,0.1-0.1,0.2-0.2,0.3c-0.1,0.1-0.3,0.1-0.5,0c0,0,0,0,0-0.1c0,0,0-0.1,0-0.2C5,96.1,5,96,5.1,95.9
				c0.1,0,0.1-0.1,0.2-0.2c0.1-0.1,0-0.2,0.1-0.3c0.1-0.1,0.2-0.2,0.3-0.2c0.1-0.1,0.1-0.2,0.1-0.2C5.9,94.9,6,94.9,6.1,94.8
				L6.1,94.8z M3.6,95.8c0,0.3,0.2,0.8,0.2,0.9c0,0.1-0.1,0.1-0.1,0.2c0,0.2-0.1,0.5-0.1,0.7c0.2,0,0.2-0.1,0.3-0.1
				c0.1,0,0.2,0,0.4,0c0,0.1,0,0.1,0,0.2c0,0-0.7,0.6-0.7,0.6c-0.2,0.3,0,0.6-0.4,0.7c-0.1,0.1-0.2,0-0.3,0c0-0.1,0-0.2,0-0.3
				C3,98.4,3,98.1,3,97.9c-0.1-0.1-0.2-0.1-0.2-0.3c0.2-0.2,0-0.7,0.5-0.7c0,0,0,0,0.1,0c0-0.3,0.1-0.2,0.1-0.3
				C3.5,96.4,3.4,96,3.6,95.8C3.6,95.8,3.6,95.8,3.6,95.8L3.6,95.8z M2.8,98.6c0,0-0.1,0-0.1,0c-0.1-0.3-0.3-0.3-0.4-0.6
				c0-0.1,0.1-0.1,0.1-0.2c0.1-0.1,0.2-0.1,0.3-0.1c0,0,0,0.1,0,0.1C2.8,98,2.8,98.4,2.8,98.6L2.8,98.6z M1.9,98.4c0,0,0.1,0,0.1,0
				c0.1,0.1,0.2,0.2,0.3,0.3c0,0,0,0,0,0c0,0.2-0.2,0.4-0.4,0.4c-0.1-0.1-0.2-0.1-0.2-0.2c-0.1-0.1,0-0.3,0-0.4c0,0,0,0,0,0
				C1.8,98.5,1.9,98.5,1.9,98.4L1.9,98.4z M75.6,99.3c0,0,0,0.1,0,0.2c0,0,0,0,0,0c-0.1,0-0.4-0.1-0.4-0.2c0,0,0-0.1,0-0.1
				c0-0.1-0.2-0.2-0.3-0.2c0-0.1,0-0.2,0-0.2c0.1,0,0.2,0,0.3,0c0.1,0.2,0.5,0.3,0.5,0.4c0,0.1,0.1,0.1,0.1,0.2
				C75.7,99.2,75.7,99.2,75.6,99.3C75.6,99.3,75.6,99.3,75.6,99.3L75.6,99.3z M1.4,98.8c0,0,0.1,0,0.2,0c0,0.3,0.2,0.3,0.2,0.6
				c-0.1,0.1-0.1,0.1-0.1,0.2C1.8,99.7,2,100,2,100.2c0,0-0.1,0-0.1,0c-0.2,0.1-0.6-0.1-0.8-0.1c0,0,0,0.1,0,0.1
				c0.1,0,0.1,0.1,0.2,0.2c-0.1,0-0.1,0.1-0.1,0.1c-0.2,0-0.3-0.1-0.5-0.1c-0.2,0-0.4,0-0.5,0c0-0.1-0.1-0.1-0.1-0.1
				c-0.1-0.2,0.3-0.7,0.4-0.8c0.1-0.1-0.2-0.3,0.1-0.5c0.1,0,0.1-0.1,0.2-0.1c0.1,0.2,0.1,0.2,0.4,0.2C1.2,99,1.3,99,1.4,98.8
				L1.4,98.8z M10.2,101.5c0.1,0,0.2,0,0.2,0.1c0.1,0.2,0,0.3,0.1,0.5c0.1,0.2,0.2,0.2,0.2,0.4c-0.4,0.6-0.7,1.4-1.2,1.9
				c-0.1,0.1-0.6,0.5-0.7,0.2c-0.1-0.1,0-0.3,0-0.5c-0.1-0.1-0.1-0.1-0.1-0.2c0.1-0.1,0.2-0.2,0.1-0.3c0-0.1-0.1-0.2-0.1-0.4
				c0.2-0.3,0.2-0.8,0.4-1.1c0.1-0.2,0.4-0.4,0.6-0.5C9.8,101.5,10,101.6,10.2,101.5L10.2,101.5z M11.5,101.6c0.1,0,0.1,0,0.2,0
				c0.1,0,0.2,0.1,0.1,0.3c0.3,0.4-0.3,1.2-0.6,1.2c-0.2-0.2-0.7-0.7-0.4-1C10.9,101.8,11.3,101.8,11.5,101.6L11.5,101.6z
				 M7.8,106.8c0.1,0,0.1,0,0.2,0.1c0,0,0,0,0,0.1c-0.2,0.3-0.4,0.6-0.7,0.9c-0.1,0.2-0.1,0.5-0.4,0.6c-0.1,0.1-0.9-0.1-1-0.2
				c0,0,0,0,0-0.1c0.3-0.3,0.7-0.6,1.1-0.9C7.3,107.1,7.6,107,7.8,106.8L7.8,106.8z M15.3,115.4c0.1,0,0.1,0,0.2,0
				c0,0.1,0.1,0.1,0.1,0.2c-0.3,0.4-0.2,0.9-0.5,1.3c-0.2,0.4-0.6,0.5-0.8,1c-0.2,0.5-0.1,0.6-0.6,0.8c-0.1,0-0.2,0.1-0.3,0.1
				c-0.2-0.2-0.1-0.6,0-0.9c0.2-0.1,0.5-0.3,0.6-0.4c0.1-0.3,0.1-0.7,0.2-1c0.1-0.2,0.4-0.4,0.6-0.6c0.1-0.1,0.1-0.3,0.2-0.4
				c0.1,0,0.1-0.1,0.2-0.2C15.3,115.4,15.3,115.4,15.3,115.4L15.3,115.4z M11,117.8c0.4,0,1.2,0.9,1.2,1.3c-0.3,0.3-0.3,0.8-0.7,1
				c-1,0.4-1.6-0.7-1.5-1.6C10.4,118.3,10.8,118.2,11,117.8L11,117.8z"/>
		</defs>
		<use xlink:href="#SVGID_1_"  style="overflow:visible;fill-rule:evenodd;clip-rule:evenodd;fill:#418E8B;"/>
		<clipPath id="SVGID_2_">
			<use xlink:href="#SVGID_1_"  style="overflow:visible;"/>
		</clipPath>
	</g>
</g>
</svg>
