<?xml version="1.0" encoding="utf-8"?>
<!-- Generator: Adobe Illustrator 24.0.3, SVG Export Plug-In . SVG Version: 6.00 Build 0)  -->
<svg version="1.1" id="レイヤー_1" xmlns="http://www.w3.org/2000/svg" xmlns:xlink="http://www.w3.org/1999/xlink" x="0px"
	 y="0px" viewBox="0 0 497.7 47.8" style="enable-background:new 0 0 497.7 47.8;" xml:space="preserve">
<style type="text/css">
	.st0{fill:#513813;}
</style>
<g>
	<g>
		<path class="st0" d="M12.9,0.7h8c0.2,0,0.4,0.1,0.4,0.3c0,0.3-0.1,0.6-0.3,0.8c-0.2,0.2-0.5,0.3-0.8,0.3c-0.2,0-0.6-0.1-1.4-0.2
			c-0.7,0-1.5-0.1-2.4-0.1c-1.5,0-2.5,0.1-3.2,0.2c-0.3,0.1-0.5,0.2-0.6,0.2c0,0.4,0.1,0.8,0.1,1.3c0.1,0,0.1,0,0.2,0h6.7
			c0.4,0,0.6,0.2,0.6,0.6c0,0.3-0.2,0.5-0.6,0.5c-2.9,0-5.2,0.1-6.9,0.2c0,0.4,0,0.8,0,1.3c0.1,0,0.1,0,0.2,0h6.7
			c0.4,0,0.6,0.2,0.6,0.6C20.2,6.9,20,7,19.5,7c-2.9,0-5.2,0.1-6.9,0.2c0,0.1,0,0.2,0,0.3c0,0.4,0,0.8-0.1,1.1h12.2
			c0.2,0,0.3,0.1,0.4,0.3c0,0.3-0.1,0.5-0.3,0.8C24.6,9.9,24.4,10,24,10c-0.4,0-1.5,0-3.3-0.1c-1.8,0-3.7,0-5.8,0
			c-1.2,0-2.2,0-3.1,0c0,0,0,0.1,0,0.1c0,2.1-0.1,3.8-0.2,4.9c0,0,0.1,0.1,0.2,0.1c0.8-0.3,1.8-0.6,2.9-1c0.5-0.2,0.8-0.2,1.1-0.2
			c0.3,0,0.4,0.1,0.4,0.4c0,0.2-0.1,0.4-0.2,0.5c-0.1,0.1-0.3,0.2-0.4,0.3c-2.2,0.9-3.8,1.6-4.8,2.2c-0.3,0.1-0.4,0.2-0.5,0.2
			c-0.5,0-0.8-0.3-0.8-0.7c0-0.2,0.2-0.5,0.6-0.7c0.2-0.2,0.3-0.4,0.3-0.6c0.1-0.7,0.1-1.6,0.1-2.6c0-0.8-0.1-1.7-0.2-2.8
			c-0.9,0-1.6,0.1-2.2,0.1c-0.8,0.1-1.3,0.2-1.6,0.2C6,10.2,5.7,10,5.6,9.5c0-0.2,0.2-0.4,0.4-0.6c0.2-0.1,0.5-0.2,0.9-0.2h4.2
			c0-0.1,0-0.2,0-0.3c0.1-1,0.1-2,0.1-3.1c0-1-0.1-2.4-0.4-4.1c0-0.5,0.3-0.7,0.8-0.7c0.3,0,0.5,0.1,0.6,0.3
			C12.5,0.7,12.7,0.7,12.9,0.7z M20.5,10c0.6,0,0.8,0.3,0.8,0.8c0,0.3-0.2,0.5-0.6,0.6c-0.4,0.2-0.9,0.4-1.5,0.6c0,0,0,0,0,0
			c2.8,1.7,4.5,2.6,5.2,2.8c0.4,0.1,1,0.2,1.6,0.2c0.3,0,0.5,0.1,0.5,0.4c0,0.4-0.3,0.7-0.8,1.1c-0.5,0.4-1.1,0.5-1.7,0.5
			c-0.4,0-0.8-0.2-1.1-0.5c-1-1-2.2-2-3.5-3.1c-0.6-0.4-1.1-0.7-1.5-0.9c-0.1,0-0.1,0-0.2-0.1c0,0-0.1,0-0.2,0
			c-1,0.3-1.5,0.5-1.7,0.5c-0.4,0-0.6-0.2-0.6-0.5c0-0.2,0.1-0.4,0.4-0.4c1.9-0.7,3.4-1.4,4.5-2C20.3,10,20.4,10,20.5,10z"/>
		<path class="st0" d="M37.6,0.4c0.4,0,0.6,0.2,0.6,0.5c0,0.2-0.1,0.4-0.2,0.6c-0.2,0.3-0.4,0.6-0.6,0.9h10.5c0.2,0,0.3,0.1,0.4,0.3
			c0,0.3-0.1,0.6-0.3,0.8c-0.2,0.2-0.5,0.3-0.9,0.3c-0.3,0-0.9-0.1-1.9-0.2c-1,0-2.2-0.1-3.4-0.1c0,0.1,0.1,0.3,0.1,0.5
			c0,0.8-0.1,1.6-0.1,2.4h5.3c0.2,0,0.4,0.1,0.4,0.3c0,0.3-0.1,0.6-0.3,0.8c-0.2,0.2-0.5,0.3-0.8,0.3c-0.3,0-0.9-0.1-1.8-0.2
			c-0.8,0-1.8-0.1-2.8-0.1c0,0.1,0,0.2,0,0.4l0,3.2c1.3,0,2.8,0.1,4.4,0.2c1.4,0.1,2.8,0.1,4.1,0.1c0.4,0,0.8,0,1.1-0.1
			c0.1,0,0.1,0.1,0.1,0.3c0,0.4-0.1,0.9-0.4,1.3c-0.3,0.5-0.5,0.7-0.8,0.7c-0.4,0-0.8-0.1-1.2-0.3c-1.6-0.5-3-0.8-4.3-1
			c-0.9-0.1-1.9-0.2-3.1-0.2l0,3.5c0,1-0.3,1.5-0.8,1.5c-0.4,0-0.7-0.5-0.7-1.5c0-1.3,0-2.4,0-3.5c-1.5,0-2.9,0.1-4.1,0.3
			c-1.4,0.3-2.8,0.6-4.2,1c-0.4,0.1-0.8,0.2-1,0.2c-0.5,0-0.7-0.3-0.7-0.8c0-0.3,0.1-0.5,0.4-0.7c0.2-0.2,0.5-0.3,0.8-0.4
			c1.3-0.1,2.4-0.3,3.5-0.4c0-0.1,0-0.1,0-0.2c0.1-0.6,0.1-1.2,0.1-1.8c0-0.7-0.1-1.5-0.3-2.6c0-0.4,0.2-0.7,0.7-0.7
			c0.3,0,0.5,0.1,0.6,0.3c0.2,0,0.4-0.1,0.6-0.1h3.6c0-0.7,0-1.5-0.1-2.4c0-0.2,0-0.3,0.1-0.5c-1.2,0-2.2,0.1-2.9,0.2
			c-0.5,0.1-0.8,0.2-1,0.2c-0.1,0-0.2,0-0.3,0c-0.4,0.4-0.8,0.9-1.2,1.3c-0.4,0.4-0.8,0.6-1.1,0.6c-0.3,0-0.7-0.2-1.1-0.5
			c-0.4-0.3-0.5-0.6-0.5-0.9c0-0.2,0.2-0.4,0.5-0.4c0.8-0.2,1.5-0.6,2.2-1.2c0.7-0.6,1.4-1.3,2-2.3C37.4,0.4,37.5,0.4,37.6,0.4z
			 M40.4,11.1c0-1.2,0-2.3,0-3.2c0-0.1,0-0.2,0-0.4c-1.4,0-2.5,0.1-3.2,0.2c-0.4,0.1-0.7,0.2-0.9,0.2c0,0.6,0,1.5,0,2.5
			c0,0.4,0,0.7-0.1,0.9C38,11.2,39.4,11.1,40.4,11.1z"/>
		<path class="st0" d="M73.4,8.7c0,2.8-1.5,4.9-4.6,6.3c-1.2,0.6-2.2,0.9-2.9,0.9c-0.4,0-0.8-0.2-1.2-0.5c-0.4-0.3-0.7-0.7-0.7-1.1
			c0-0.1,0.2-0.3,0.6-0.3c0.3,0,0.7-0.1,1.2-0.2c1.4-0.2,2.6-0.6,3.5-1.1c0.8-0.5,1.5-1.1,2-1.8c0.6-0.8,0.8-1.7,0.8-2.6
			c0-0.7-0.2-1.5-0.7-2.2c-0.9-1.6-2.5-2.4-4.8-2.4c-0.1,0-0.2,0-0.4,0c-0.2,0-0.3,0-0.3,0c-0.9,4.1-2.1,7.2-3.6,9
			c-0.9,1.1-1.6,1.6-2.2,1.6c-0.8,0-1.5-0.6-2.1-1.9c-0.4-1-0.6-2-0.6-3c0-1.5,0.5-2.9,1.5-4.1c1.6-1.9,4-2.8,7.2-2.8
			c2,0,3.7,0.5,5.1,1.6C72.6,5.2,73.4,6.7,73.4,8.7z M64.4,3.8c-2.1,0.4-3.6,1.1-4.5,2.2c-0.9,1.1-1.4,2.2-1.4,3.2
			c0,0.6,0.1,1.2,0.4,2c0.3,0.9,0.7,1.3,1.2,1.3c0.4,0,0.9-0.3,1.4-1C62.7,9.9,63.7,7.3,64.4,3.8z"/>
		<path class="st0" d="M79.3,13.1c0.4,0.1,0.7,0.1,0.8,0.1c0.4,0,1-0.2,1.7-0.5c0.2,0,0.3,0.1,0.3,0.3c0,0.2-0.2,0.6-0.7,1.2
			c-0.5,0.6-0.9,0.9-1.2,0.9c-0.3,0-0.5-0.1-0.7-0.4C79.1,14.4,79,14,79,13.5C79,13.3,79.1,13.1,79.3,13.1z M84.4,0.3
			C84.8,0.3,85,0.5,85,1c0,0.3-0.2,0.7-0.5,1c-0.8,1-1.7,1.9-2.7,2.7c-0.2,0.1-0.3,0.3-0.3,0.5c0,0,0.2,0.2,0.5,0.4
			c0.3,0.1,0.6,0.4,0.9,0.7c0,0,0.1,0.1,0.1,0.1c0.7-0.8,1.4-1.5,2.1-2.2C85.3,4.1,85.4,4,85.6,4c0.1,0,0.3,0.1,0.4,0.2
			c0.1,0.1,0.1,0.3,0.1,0.5c0,0.2-0.1,0.4-0.2,0.5c-1.3,1.3-2.6,2.6-3.9,4C82,9.2,82,9.4,82,9.5c0,0,0,0.1,0.1,0.1
			c0.2,0,0.7,0.1,1.5,0.1c0.9,0,1.6,0,2.2-0.1c0.1,0,0.2-0.1,0.2-0.3c-0.2-0.5-0.4-0.9-0.7-1.3c-0.1-0.1-0.1-0.2-0.1-0.3
			c0-0.1,0.1-0.2,0.2-0.4c0.1-0.1,0.3-0.2,0.5-0.2c0.1,0,0.2,0.1,0.3,0.3c0.3,0.5,0.6,1.1,0.9,1.8c0.2,0.3,0.2,0.6,0.2,0.8
			c0,0.5-0.2,0.8-0.7,0.8c-0.3-0.1-0.6-0.1-0.8-0.1c-0.4,0-0.7,0-1.1,0c0,0.1,0.1,0.3,0.1,0.5c-0.1,0.7-0.1,1.2-0.1,1.8l0.1,2.9
			c0,1-0.3,1.5-0.8,1.5c-0.4,0-0.7-0.5-0.7-1.5c0.1-1.2,0.1-2.2,0.1-2.9c0-0.5,0-1.1-0.1-1.8c0-0.2,0-0.3,0.1-0.5
			c-0.4,0-0.9,0-1.4-0.1c-0.4,0-0.9,0-1.3,0.1c-0.6,0-0.9-0.2-0.9-0.6c0-0.2,0.1-0.5,0.3-0.7c0.8-0.8,1.5-1.5,2.3-2.3
			c0,0-0.1,0-0.1,0c-1-0.6-1.8-1-2.3-1.2c-0.3-0.1-0.4-0.2-0.4-0.5c0-0.2,0.1-0.4,0.4-0.6c0.4-0.2,0.9-0.6,1.3-1.1
			c1-0.8,1.9-1.9,2.7-3.1C84,0.4,84.2,0.3,84.4,0.3z M86,12.4c0.1,0,0.2,0,0.4,0.1c0.3,0.4,0.6,0.6,1,0.7c0.3,0.1,0.4,0.2,0.4,0.4
			c0,0.3-0.1,0.5-0.3,0.7c-0.2,0.2-0.5,0.3-0.8,0.3c-0.2,0-0.4-0.3-0.6-0.8c-0.2-0.5-0.3-0.8-0.3-1C85.7,12.5,85.8,12.4,86,12.4z
			 M90.2,11.2h2.5l0-1.2c0-0.6,0.2-0.9,0.7-0.9c0.6,0,0.9,0.3,0.9,0.9l0,1.2h3.1c0.2,0,0.4,0.1,0.4,0.3c0,0.3-0.1,0.6-0.3,0.8
			c-0.2,0.2-0.5,0.3-0.8,0.3c-0.2,0-0.6-0.1-1.2-0.2c-0.4,0-0.8,0-1.2,0L94.1,15c0.9,0,2,0.1,3.4,0.1c0.3,0,0.6,0,0.8,0
			c0.2,0,0.6,0,1-0.1c0.4-0.1,0.6-0.1,0.7-0.1c0.2,0,0.3,0.1,0.3,0.2c0,0.4-0.2,0.8-0.5,1.3c-0.4,0.5-0.7,0.7-1.1,0.7
			c-0.2,0-0.6-0.1-1.1-0.3c-1.1-0.4-2.5-0.6-4.2-0.6c-2.2,0-3.8,0.1-4.6,0.4c-0.4,0.1-0.8,0.2-1,0.2c-0.4,0-0.6-0.2-0.6-0.6
			c0-0.2,0.1-0.5,0.3-0.7c0.2-0.2,0.4-0.3,0.6-0.3c0.2,0,0.3,0,0.5,0.1c1.6-0.2,3-0.2,4.3-0.3l-0.1-2.7c-1,0-1.8,0.1-2.3,0.2
			c-0.3,0.1-0.6,0.2-0.6,0.2c-0.5,0-0.7-0.3-0.7-0.7c0-0.2,0.1-0.4,0.4-0.6C89.6,11.2,89.8,11.2,90.2,11.2z M92.4,1
			c0.7,0,1.7,0.1,2.9,0.2c0.2,0,0.5-0.1,0.9-0.2C96.8,1,97,1.3,97,1.8C97,1.9,97,2,96.8,2.2c-0.2,0.2-0.5,0.7-0.9,1.5
			c-0.4,0.7-0.9,1.4-1.4,2c1.4,0.7,2.6,1.1,3.5,1.4c0.9,0.3,1.7,0.4,2.3,0.5c0.2,0,0.3,0.1,0.3,0.3c0,0.4-0.3,0.9-0.8,1.4
			c-0.3,0.3-0.7,0.5-1,0.5c-0.2,0-0.5-0.1-0.8-0.2c-0.4-0.2-1.4-0.8-3-1.8c-0.5-0.3-1-0.6-1.5-0.9c-1,1.1-2.2,1.9-3.5,2.5
			c-0.4,0.2-0.8,0.3-1,0.3c-0.3,0-0.6-0.2-1-0.5c-0.3-0.2-0.4-0.5-0.4-0.7c0-0.3,0.1-0.4,0.3-0.5c0.8-0.1,1.5-0.3,2.2-0.5
			C91,7,91.8,6.6,92.4,6c-0.5-0.3-0.9-0.5-1.2-0.7c-0.5-0.3-1.1-0.4-1.6-0.6C89.2,4.7,89,4.5,89,4.1c0-0.4,0.2-0.6,0.6-0.6
			c0.2,0,0.4,0.1,0.7,0.2c1.2,0.5,2.3,1,3.2,1.4c0.3-0.3,0.6-0.7,0.8-1c0.5-0.6,0.8-1.2,1-1.6l0.1-0.2c0-0.1-0.1-0.2-0.3-0.2
			c-0.3,0-0.7-0.1-1.2-0.1c-0.4,0-1.1,0-2,0.1c-0.5,0.1-1,0.2-1.5,0.3c-0.5,0-0.7-0.2-0.7-0.6c0-0.3,0.2-0.6,0.6-0.7
			C91.3,1.1,92,1,92.4,1z"/>
		<path class="st0" d="M104.8,13c0.3,0,0.6,0.1,0.8,0.1c0.4,0,0.8-0.2,1.4-0.5c0.1,0,0.2,0.1,0.2,0.3c0,0.2-0.2,0.5-0.6,1.1
			c-0.4,0.5-0.7,0.8-1,0.8c-0.3,0-0.5-0.1-0.6-0.4c-0.2-0.3-0.3-0.7-0.3-1.1C104.6,13,104.7,13,104.8,13z M107.5,0.9h7.6
			c0.2,0,0.4,0.1,0.4,0.2c0,0.3-0.1,0.6-0.3,0.9c-0.2,0.2-0.5,0.4-0.8,0.4c-0.2,0-0.6-0.1-1.3-0.2c-0.5,0-1.1,0-1.7,0l0,1.7h2.6
			c0.2,0,0.3,0.1,0.3,0.4c0,0.2-0.1,0.3-0.2,0.5c-0.2,0.2-0.4,0.3-0.6,0.3c-0.5-0.1-1.2-0.1-2.1-0.2l0,1.8h2.7
			c0.2,0,0.3,0.1,0.3,0.4c0,0.2-0.1,0.3-0.2,0.5c-0.2,0.2-0.4,0.3-0.6,0.3c-0.5-0.1-1.2-0.1-2.1-0.2l0,1.7c0.7,0,1.5,0.1,2.6,0.2
			c0.2,0,0.4,0,0.7-0.1c0.5,0,0.7,0.2,0.7,0.7c0,0.2,0,0.4-0.1,0.7c-0.1,0.6-0.2,1.7-0.4,3.4c-0.1,1.2-0.5,2.1-1.2,2.7
			c-0.5,0.4-0.9,0.6-1.4,0.6c-0.3,0-0.6-0.1-0.9-0.3c-0.2-0.2-0.4-0.5-0.4-0.7c0-0.2,0.1-0.4,0.3-0.5c1-0.3,1.7-1,2.1-2.1
			c0.3-0.9,0.4-2,0.4-3.1c0-0.2-0.2-0.3-0.5-0.3c-0.5-0.1-1.3-0.1-2.2-0.1c-0.8,0-1.6,0-2.4,0.1c-0.8,0.1-1.3,0.2-1.8,0.3
			c-0.3,0.1-0.5,0.2-0.6,0.2c-0.4,0-0.6-0.3-0.6-0.7c0-0.3,0-0.7,0.1-1.4c0.1-1.2,0.2-2.2,0.2-3s-0.1-1.8-0.2-3
			c-0.1-0.7-0.1-1.1-0.1-1.3c0-0.4,0.2-0.6,0.6-0.6c0.2,0,0.4,0.1,0.6,0.2C107.1,1,107.3,0.9,107.5,0.9z M107.2,7.8
			c0,0.4,0,0.9,0,1.3c0,0.1,0.1,0.2,0.3,0.2c0.8,0,1.7-0.1,2.6-0.1l0-1.7c-0.2,0-0.4,0-0.5,0c-0.5,0-1.2,0.1-2.2,0.3
			C107.3,7.8,107.2,7.8,107.2,7.8z M107.2,5c0,0.5,0,1.1,0,1.7c0.1,0,0.2-0.1,0.3-0.1h2.5l0-1.9c-0.2,0-0.3,0-0.5,0
			c-0.5,0-1.2,0.1-2.2,0.3C107.3,5,107.3,5,107.2,5z M107.2,2.3c0,0.5,0,1,0,1.5c0.1,0,0.2,0,0.3,0h2.4V2.1c-1,0-1.7,0.1-2.2,0.1
			C107.5,2.3,107.4,2.3,107.2,2.3z M108.5,12.3c0.4,0,0.6,0.2,0.6,0.6l-0.3,1.4c0,0.2-0.1,0.3-0.3,0.3c-0.2,0-0.4-0.1-0.4-0.4
			l-0.2-1.4C107.9,12.4,108.1,12.3,108.5,12.3z M110.2,12.3c0.4,0,0.6,0.2,0.6,0.6l-0.3,1.3c0,0.2-0.1,0.3-0.3,0.3
			c-0.2,0-0.4-0.1-0.4-0.3l-0.2-1.3C109.7,12.4,109.9,12.3,110.2,12.3z M111.8,12c0.1,0,0.2,0,0.3,0.1c0.2,0.3,0.5,0.5,0.8,0.7
			c0.2,0,0.4,0.1,0.4,0.3c0,0.2-0.1,0.4-0.3,0.6c-0.2,0.1-0.4,0.2-0.7,0.2c-0.1,0-0.3-0.2-0.5-0.7c-0.2-0.4-0.3-0.7-0.3-0.8
			C111.5,12.1,111.6,12,111.8,12z M120.5,0.6c0.4,0,0.5,0.2,0.6,0.6c0,0,0,0,0,0c0.1,0.1,0.3,0.2,0.6,0.4c2.1,1.5,3.5,2.4,4,2.6
			c0.3,0.1,0.7,0.2,1.2,0.2c0.2,0,0.4,0.1,0.4,0.4c0,0.3-0.2,0.6-0.7,0.9C126,6,125.5,6.1,125,6.1c-0.3,0-0.7-0.1-1-0.4
			c-0.7-0.9-1.6-1.9-2.5-2.9c-0.4-0.4-0.7-0.6-1-0.8c-0.8,1.1-1.5,1.9-1.9,2.3c-0.7,0.6-1.4,1.1-2.3,1.4c-0.2,0.1-0.4,0.2-0.6,0.2
			c-0.4,0-0.8-0.1-1-0.4c-0.3-0.2-0.4-0.4-0.4-0.7c0-0.2,0.1-0.3,0.3-0.3c0.9-0.2,1.7-0.4,2.3-0.7c0.5-0.2,1-0.6,1.4-1
			c0.5-0.5,1.1-1.2,1.8-2.2C120.2,0.6,120.3,0.6,120.5,0.6z M118.1,5.4l0.8,0.1c2.2,0,3.7,0,4.4-0.1c0.2,0,0.3,0.1,0.3,0.4
			c0,0.2-0.1,0.3-0.3,0.5c-0.2,0.2-0.4,0.3-0.7,0.3c-0.4-0.1-0.9-0.2-1.7-0.2c0,0.1,0,0.2,0,0.4c0,0.7,0,1.3,0,1.8h0.1
			c0.7,0,1.5,0,2.5,0.1c0.2,0,0.4,0,0.7-0.1c0.4,0,0.6,0.2,0.6,0.6c0,0,0,0.1,0,0.1c-0.1,0.1-0.1,0.4-0.1,0.7c0,0.4-0.1,0.9-0.1,1.4
			c0,0.3,0,0.6,0.1,1.1c0,0.4-0.2,0.6-0.6,0.6c-1.3-0.1-2.5-0.2-3.5-0.2c-0.2,1.2-0.5,2.1-1,2.7c-0.8,1-1.7,1.5-2.5,1.5
			c-0.4,0-0.7-0.2-1.1-0.6c-0.2-0.3-0.3-0.5-0.3-0.7c0-0.2,0.1-0.3,0.4-0.3c1.2-0.1,2.1-0.6,2.8-1.6c0.2-0.2,0.3-0.6,0.4-1
			c-1,0-1.6,0-1.9,0.1c-0.3,0-0.7,0.1-1.1,0.2c-0.4,0-0.6-0.2-0.6-0.6c0.1-0.7,0.2-1.3,0.2-1.8c0-0.4-0.1-1-0.2-1.6
			c0-0.4,0.2-0.6,0.7-0.6c0.2,0,0.4,0,0.6,0s0.5,0,0.9,0h1.8c0-0.6-0.1-1.3-0.1-2c0-0.1,0-0.1,0-0.2c-0.5,0-1.1,0.1-1.8,0.3
			c-0.4,0-0.6-0.2-0.6-0.5c0-0.2,0.1-0.4,0.3-0.6C117.7,5.5,117.9,5.4,118.1,5.4z M119.8,12.1c0.1-0.6,0.1-1.3,0.1-2.2
			c0-0.1,0-0.2,0-0.3c-0.6,0-1.3,0-2,0c-0.3,0-0.4,0.1-0.4,0.4c0,0.6-0.1,1.2-0.2,1.7c0,0.3,0.2,0.5,0.5,0.5
			C118.4,12.1,119,12.1,119.8,12.1z M121.1,9.7c0,0.3,0,0.5,0,0.7c0,0.6,0,1.2-0.1,1.7c0.7,0,1.5,0,2.4,0.1c0.3,0,0.4-0.1,0.4-0.4
			V10c0-0.1-0.1-0.2-0.2-0.2C122.9,9.7,122.1,9.7,121.1,9.7z M122.4,14.4c0,0,0.1,0,0.1,0c0.7,0.5,1.2,0.8,1.7,1
			c0.3,0.1,0.7,0.2,1.1,0.2c0.2,0,0.3,0.1,0.3,0.3c0,0.3-0.2,0.5-0.5,0.7c-0.6,0.4-1.1,0.6-1.4,0.6c-0.1,0-0.2-0.1-0.3-0.2
			c-0.2-0.2-0.6-0.9-1.2-2.1c0-0.1-0.1-0.2-0.1-0.2C122.2,14.4,122.3,14.4,122.4,14.4z"/>
		<path class="st0" d="M147.9,6.3c0,0.3-0.3,0.6-0.9,1c-1.4,0.9-3.4,2-6,3.4c0,0.1,0,0.4,0,0.8c0,0.3,0,0.6,0,0.8
			c0,0.5-0.3,0.7-0.8,0.7c-0.3,0-0.5-0.2-0.6-0.6c0-0.1,0-0.4,0-1c-1,0.5-1.6,0.8-1.9,1.1c-0.8,0.6-1.2,1.1-1.2,1.7
			c0,0.4,0.4,0.6,1.2,0.8c0.6,0.1,1.2,0.2,1.8,0.2c1.7,0,3.3-0.3,4.7-0.8c1.1-0.4,1.6-0.6,1.7-0.6c0.1,0,0.2,0.1,0.2,0.4
			c0,0.5-0.2,1-0.5,1.5c-0.2,0.4-0.9,0.6-1.9,0.8c-0.8,0.1-1.7,0.1-2.7,0.1c-1.3,0-2.4-0.1-3.4-0.4c-1.5-0.4-2.2-1.1-2.2-2
			c0-0.8,0.6-1.6,1.7-2.4c0.2-0.2,1.1-0.7,2.6-1.7c0-0.9-0.1-1.4-0.1-1.6c-0.2-0.6-0.6-0.9-1.2-0.9c-0.9,0-1.6,0.2-2.2,0.5
			c-0.3,0.1-0.9,0.6-1.9,1.4c-0.1,0.1-0.3,0.2-0.5,0.3c-0.4,0-0.7-0.3-0.7-0.9c0-0.4,0.5-0.9,1.4-1.4c1.3-0.8,2.5-1.8,3.5-3.2
			c-0.5,0.1-1.3,0.2-2.3,0.3c0,0-0.3,0.1-0.9,0.2c-0.4,0.1-0.7,0.2-0.9,0.2c-0.4,0-0.6-0.2-0.6-0.7c0-0.6,0.5-0.9,1.4-1
			c0.9,0,2.2-0.1,3.9-0.1c0.2-0.3,0.5-0.9,0.9-1.9c0.2-0.5,0.5-0.7,0.9-0.7c0.5,0,0.8,0.2,0.8,0.7c0,0.2-0.3,0.8-1,1.9
			c0.5,0,1.2,0,2.3,0c1,0,1.8,0,2.3,0c0.1,0,0.3,0,0.6,0c0.2,0,0.4-0.1,0.6-0.1c0.1,0,0.2,0.1,0.3,0.2c0,0.3-0.2,0.6-0.5,1
			c-0.3,0.4-0.6,0.6-0.9,0.6c-0.3,0-0.6-0.1-0.9-0.2c-0.3-0.1-0.6-0.1-0.9-0.2c-0.7-0.2-1.8-0.3-3.3-0.3c-0.8,1-1.5,1.9-2.2,2.6
			c0.6-0.1,1.1-0.1,1.6-0.1c1.3,0,2.1,0.8,2.2,2.3c0,0.2,0,0.3,0.1,0.4c2.1-1.3,3.9-2.4,5.2-3.3c0.4-0.3,0.8-0.4,1.1-0.4
			C147.7,5.6,147.9,5.8,147.9,6.3z"/>
		<path class="st0" d="M170.8,4.5c0,0.3-0.2,0.7-0.6,1.2c-0.4,0.5-0.7,0.7-1,0.7c0.1,0-0.4-0.1-1.5-0.4c-1.3-0.3-2.6-0.5-3.9-0.5
			c-0.2,0-0.4,0-0.6,0c-0.3,0-0.6,0-0.7,0c-0.1,1.1-0.2,2.1-0.2,3l4.2,0c0.8,0,1.1,0.1,1.1,0.3c0,0.2-0.1,0.5-0.3,0.7
			c-0.2,0.2-0.4,0.4-0.6,0.4c-1.3-0.2-2.2-0.3-2.8-0.3c-0.2,0-0.7,0-1.6,0c0,1.5,0.1,2.6,0.3,3.4c0.3,1.4,1,2.2,2,2.2
			c0.7,0,1.5-0.2,2.5-0.6c1-0.5,1.7-1,2.2-1.5c0.3-0.3,0.5-0.5,0.6-0.5c0.3,0,0.4,0.3,0.4,0.8c0,0.8-0.1,1.4-0.4,1.8
			c-0.3,0.5-1,0.8-2.3,1.1c-0.9,0.2-1.8,0.3-2.6,0.3c-1.8,0-3-0.8-3.5-2.3c-0.4-0.9-0.5-2.4-0.5-4.5c-1.1,0.1-1.8,0.1-1.9,0.1
			c-0.8,0.1-1.5,0.2-1.8,0.3c-0.4,0.1-0.6,0.2-0.5,0.2c-0.3,0-0.4-0.2-0.4-0.6c0-0.5,0.4-0.8,1.1-1c0.5-0.1,1.8-0.2,3.7-0.3
			c0-1.5,0-2.5,0.1-3l-1.6,0.1c-0.5,0.1-1.1,0.2-1.9,0.4c-1.1,0.3-1.7,0.5-1.8,0.6c-0.3,0-0.5-0.2-0.5-0.6c0-0.8,0.5-1.3,1.4-1.3
			c1-0.1,2.5-0.2,4.5-0.3c0.1-1,0.1-1.8,0.1-2.4c0-0.8,0.3-1.2,0.8-1.2c0.6,0,0.9,0.3,0.9,0.8c0,0-0.1,0.9-0.4,2.7c0.2,0,0.5,0,1,0
			c0.4,0,0.7,0,0.9,0c0.5,0,1.2,0,2.1,0c0.9,0,1.6,0,2.1,0c0.6,0,1.1,0,1.3-0.1c0.4,0,0.5-0.1,0.6-0.1
			C170.7,4.4,170.8,4.4,170.8,4.5z"/>
		<path class="st0" d="M192.9,13.4c0,0.6-0.2,1.1-0.5,1.5c-0.3,0.4-0.8,0.7-1.3,0.8c-0.9,0.2-2.6,0.3-5.2,0.3c-4.7,0-7-1-7-3.1
			c0-1,0.4-1.9,1.3-2.8c0.2-0.2,1-0.9,2.4-2.1c-0.2-1-0.2-1.8-0.2-2.6V3.1c0-1.5,0.3-2.3,0.8-2.3c0.6,0,0.9,0.3,0.9,0.9
			c0,0.1,0,0.3-0.1,0.5c-0.1,0.3-0.1,0.5-0.1,0.6c-0.1,0.7-0.1,1.6-0.1,2.7c0,0.5,0,1.1,0.1,1.5c2.3-1.7,3.7-2.6,4.2-2.6
			c0.3,0,0.5,0.1,0.6,0.3c0.1,0.2,0.2,0.3,0.4,0.5c0,0.4-0.3,0.7-0.8,1c-1,0.5-2.1,1.1-3.1,1.6c-1.5,0.8-2.7,1.6-3.5,2.3
			c-1.1,0.9-1.7,1.8-1.7,2.7c0,1.1,1,1.7,3.1,1.7c1.3,0,2.9-0.1,4.7-0.3c1.5-0.2,2.8-0.5,3.9-0.8c0.4-0.2,0.8-0.2,1-0.2
			C192.8,13.1,192.9,13.2,192.9,13.4z"/>
		<path class="st0" d="M204.5,11.7c-0.2,0.8-0.5,1.6-0.9,2.5c-0.6,1.3-1.1,1.9-1.5,1.9c-0.5,0-0.9-0.6-1.3-1.9
			c-0.3-1.1-0.5-2.7-0.5-4.8c0-0.8,0.1-2,0.4-3.6c0.3-1.7,0.6-2.8,0.9-3.4c0.2-0.4,0.5-0.6,0.9-0.6c0.5,0,0.8,0.2,0.8,0.7
			c0,0.1-0.1,0.5-0.4,1c-0.4,0.8-0.6,1.7-0.9,2.8c-0.3,1.1-0.4,2.1-0.4,2.8c0,3.1,0.2,4.7,0.7,4.7c0.2,0,0.7-0.8,1.5-2.3
			c0.1-0.2,0.2-0.3,0.3-0.3C204.4,11.4,204.5,11.5,204.5,11.7z M216.6,12.5c0,0.1-0.2,0.5-0.5,1.2c-0.3,0.6-0.6,0.9-1,1.1
			c-0.5,0.2-1.6,0.3-3.4,0.3c-1.4,0-2.6-0.2-3.6-0.6c-1.4-0.6-2.1-1.5-2.1-2.7c0-1.3,0.3-2,0.9-2c0.1,0,0.2,0.1,0.2,0.3
			c-0.2,0.6-0.2,1-0.2,1.2c0,1.4,1.1,2.1,3.3,2.1c0.9,0,2-0.1,3.2-0.3c0.7-0.1,1.3-0.3,1.9-0.5c0.5-0.2,0.8-0.3,1-0.3
			C216.4,12.1,216.5,12.3,216.6,12.5z M214.5,3.8c0,0.2-0.6,0.8-1.8,1.6c-1.2,0.8-1.9,1.2-2.1,1.2c-0.3,0-0.4-0.1-0.4-0.3
			c0-0.1,0.3-0.5,0.8-1c0.5-0.4,0.8-0.8,1.1-0.9c-0.1,0-0.2,0-0.3,0c-1,0-2.1,0.1-3.3,0.3c-1.3,0.2-1.9,0.4-1.8,0.4
			c-0.3,0-0.4-0.2-0.4-0.5c0-0.5,0.2-0.8,0.6-1c0.2,0,0.6-0.1,1.3-0.2c1.6-0.2,3.5-0.2,5.6-0.2C214.2,3.1,214.5,3.4,214.5,3.8z"/>
		<path class="st0" d="M229.7,16.2c0,0.3-0.3,0.6-0.9,1c-0.6,0.4-1,0.6-1.3,0.6s-0.6-0.3-1-0.8c-0.8-1.2-1.7-2.3-2.4-3.1
			c-0.7-0.8-1-1.3-1-1.5c0-0.3,0.2-0.4,0.5-0.4c0.2,0,1.5,0.9,3.8,2.8c0.5,0.4,1.2,0.8,2.1,1.2C229.6,16,229.7,16.1,229.7,16.2z"/>
		<path class="st0" d="M244.8,1.9c0.4,0,0.6,0.2,0.6,0.5c0,0.2-0.1,0.4-0.2,0.6c-0.3,0.6-0.6,1.2-1,1.7h3.9l0-3
			c0-0.6,0.3-0.8,0.8-0.8c0.6,0,0.9,0.3,0.9,0.8l0,3h5.6c0.2,0,0.4,0.1,0.4,0.3c0,0.3-0.1,0.6-0.3,0.8c-0.2,0.2-0.5,0.3-0.8,0.3
			c-0.3,0-0.9-0.1-2-0.2c-0.9,0-1.8-0.1-2.8-0.1l0,3.5h4.8c0.2,0,0.4,0.1,0.4,0.3c0,0.3-0.1,0.6-0.3,0.8c-0.2,0.2-0.5,0.3-0.8,0.3
			c-0.3,0-0.9-0.1-1.8-0.2c-0.7,0-1.4-0.1-2.2-0.1l-0.1,3.8c1.3,0,2.8,0.2,4.3,0.4c1.5,0.2,2.9,0.3,4.2,0.3c0.4,0,0.8,0,1.1-0.1
			c0.1,0,0.1,0.1,0.1,0.3c0,0.4-0.1,0.9-0.3,1.3c-0.3,0.5-0.5,0.7-0.8,0.7c-0.4,0-0.8-0.1-1.2-0.3c-1.6-0.6-3.1-1-4.4-1.2
			c-1.1-0.1-2.3-0.2-3.9-0.2c-1.8,0-3.3,0.1-4.6,0.3c-1.4,0.3-2.8,0.7-4.1,1.2c-0.4,0.2-0.7,0.2-1,0.2c-0.5,0-0.7-0.3-0.7-0.8
			c0-0.3,0.1-0.5,0.4-0.7c0.2-0.2,0.5-0.3,0.8-0.4c4-0.6,6.9-1,8.7-1l-0.1-3.8c-1.6,0-2.8,0.1-3.6,0.3c-0.5,0.1-0.8,0.2-0.9,0.2
			c-0.5,0-0.8-0.3-0.8-0.8c0-0.2,0.2-0.4,0.4-0.6c0.2-0.1,0.5-0.2,0.9-0.2h4.1l0-3.5c-1.6,0-2.8,0.1-3.6,0.2c-0.5,0.1-0.9,0.2-1,0.2
			c-0.2,0-0.3,0-0.4-0.1c-0.3,0.4-0.6,0.7-0.8,1.1c-0.4,0.5-0.8,0.7-1.1,0.7c-0.3,0-0.7-0.1-1.1-0.4c-0.4-0.3-0.5-0.6-0.5-0.9
			c0-0.2,0.2-0.4,0.5-0.4c0.8-0.3,1.6-0.8,2.3-1.4c0.8-0.7,1.4-1.6,2.1-2.8C244.6,1.9,244.7,1.9,244.8,1.9z"/>
		<path class="st0" d="M264.3,2.1c0.6,0,0.9,0.2,0.9,0.7c0,0.6-0.1,1.2-0.2,2.1c0,0.2,0.1,0.3,0.4,0.3c0.6,0,1.4-0.1,2.2-0.1
			c0-1.1,0-2.4-0.1-3.7c0-0.6,0.2-0.9,0.7-0.9c0.5,0,0.7,0.3,0.7,0.9c0,1.4-0.1,2.6-0.1,3.8c0.5,0,1.1,0,1.9,0.1
			c0.2,0,0.3,0.1,0.3,0.4c0,0.3-0.1,0.5-0.3,0.6c-0.2,0.1-0.4,0.1-0.6,0.1c-0.5,0-0.9-0.1-1.2-0.1l0,3.3c0.7-0.2,1.3-0.3,1.8-0.4
			c0.3,0,0.4,0.1,0.4,0.4c0,0.4-0.2,0.6-0.5,0.6c-0.6,0.2-1.1,0.4-1.7,0.6l0,5.1c0,1-0.3,1.5-0.8,1.5c-0.4,0-0.6-0.5-0.6-1.5
			c0-1.7,0-3.2,0-4.6c-1.3,0.5-2.5,1.1-3.6,1.7c-0.5,0-0.7-0.2-0.7-0.6c0-0.4,0.1-0.6,0.2-0.8c0.1-0.2,0.3-0.4,0.6-0.5
			c1.4-0.4,2.6-0.8,3.6-1.1c0-1.4,0-2.6,0-3.7c-0.8,0-1.5,0.1-2.3,0.2c-0.5,0-0.9,0.1-1.2,0.3c-0.2,0.1-0.3,0.1-0.3,0.1
			c-0.4,0-0.6-0.2-0.6-0.5c0-0.1,0.1-0.4,0.4-0.7c0.1-0.4,0.2-0.8,0.2-1.2c0-0.2,0-0.5,0-0.9c-0.1-0.4-0.1-0.7-0.1-0.8
			C263.7,2.3,263.9,2.1,264.3,2.1z M275.8,0.8c0.4,0,0.6,0.2,0.6,0.5c0,0.2-0.1,0.4-0.2,0.6c-0.3,0.6-0.6,1.2-0.9,1.8
			c0.6,0,1.4,0,2.5,0h4.6c0.1,0,0.4-0.1,0.8-0.2c0.6,0,0.8,0.3,0.8,0.8c-0.4,2.1-0.6,4.1-0.7,6.2c-0.2,2.8-0.6,4.7-1.4,5.6
			c-0.6,0.8-1.4,1.2-2.3,1.2c-0.4,0-0.8-0.2-1-0.5c-0.2-0.3-0.3-0.6-0.3-0.9c0-0.3,0.1-0.4,0.4-0.5c1.3-0.1,2.1-0.5,2.4-1.1
			c0.4-0.6,0.8-2.5,1.1-5.6c0.1-1.9,0.2-3.1,0.2-3.5c0-0.2-0.1-0.4-0.3-0.4h-1.6c0,0,0,0.1,0,0.1l0,0.2c-0.1,0.5-0.3,1.4-0.6,2.5
			c-0.5,1.9-1.2,3.6-2.1,5.1c-0.5,1-1.1,1.8-1.8,2.5c-0.9,0.8-1.5,1.2-1.8,1.2c-0.3,0-0.6-0.2-1-0.6c-0.3-0.3-0.5-0.6-0.5-0.8
			c0-0.2,0.2-0.3,0.6-0.4c0.7-0.2,1.5-0.7,2.2-1.5c0.8-0.7,1.7-2,2.5-3.8c0.6-1.4,1-2.9,1.1-4.4c0,0,0-0.1,0-0.1h-0.5
			c-0.4,0-0.8,0-1.2,0l0,0.1c-0.1,0.4-0.3,0.9-0.5,1.7c-0.4,1.3-1,2.4-1.7,3.5c-0.4,0.7-0.9,1.2-1.5,1.7c-0.7,0.5-1.2,0.8-1.5,0.8
			c-0.3,0-0.6-0.2-0.9-0.5c-0.3-0.3-0.4-0.6-0.4-0.8c0-0.2,0.2-0.3,0.6-0.4c0.6-0.1,1.2-0.4,1.8-1c0.7-0.4,1.3-1.2,2-2.4
			c0.4-0.9,0.8-1.7,0.9-2.6c-0.2,0-0.4,0-0.6,0.1c-0.6,0.1-0.9,0.2-1.1,0.2c-0.1,0-0.2,0-0.2,0c-0.1,0.2-0.3,0.4-0.4,0.6
			c-0.3,0.4-0.6,0.7-0.8,0.7c-0.3,0-0.6-0.1-1-0.4c-0.3-0.3-0.5-0.5-0.5-0.8c0-0.2,0.2-0.2,0.5-0.3c0.7-0.3,1.3-0.7,1.8-1.3
			c0.6-0.6,1.1-1.4,1.7-2.5C275.7,0.8,275.8,0.8,275.8,0.8z"/>
		<path class="st0" d="M303.3,6.3c0.4,0,0.6,0.2,0.6,0.6c0,0.2-0.1,0.3-0.3,0.5c0,0-0.1,0.1-0.1,0.1c0.8,0.6,1.5,1.2,2.3,1.8
			c0.2,0,0.5,0.1,0.6,0.3c0.2,0.2,0.4,0.4,0.4,0.7c0,0.3-0.4,0.6-1.1,1c-3.7,2.4-7.2,4.2-10.5,5.3c-1.3,0.5-2.8,0.8-4.4,0.8
			c-0.4,0-0.7-0.1-1-0.4c-0.6-0.6-0.8-1.1-0.8-1.7c0-0.4,0.1-0.6,0.4-0.6c0.2,0,0.4,0.1,0.6,0.2c0.4,0.2,0.8,0.2,1.4,0.2
			c1.8,0,3.4-0.2,4.7-0.5c1-0.3,2-0.6,3.1-1.1c-0.6-0.6-1-1-1.3-1.1c-0.3-0.1-0.4-0.3-0.4-0.5c0-0.5,0.3-0.8,0.8-0.8
			c0,0,0.4,0.3,0.9,0.8c0.5,0.5,0.8,0.9,0.8,1.1c0.9-0.4,1.8-0.8,2.7-1.3c1.5-0.8,2.3-1.3,2.3-1.5c0-0.1-0.1-0.3-0.4-0.5
			c-0.7-0.4-1.3-0.8-1.9-1.2c-0.1-0.1-0.3-0.2-0.3-0.4c-2.2,1.3-4.1,2.3-5.9,3c-1.5,0.6-2.6,0.9-3.3,0.9c-0.4,0-0.7-0.1-1-0.4
			c-0.3-0.2-0.4-0.5-0.4-0.8c0-0.2,0.1-0.3,0.3-0.4c2.7-0.5,4.7-1,6.1-1.6c1.3-0.4,2.8-1.2,4.7-2.4C303,6.4,303.1,6.3,303.3,6.3z
			 M301.1,0.3c0.4,0,0.5,0.2,0.6,0.6c0,0.1,0,0.2-0.1,0.3c0.6,0.5,1.2,1,1.8,1.6c0.2,0,0.4,0.1,0.5,0.3c0.2,0.2,0.3,0.4,0.3,0.6
			c0,0.2-0.3,0.5-0.9,0.7c-2.8,1.8-5.4,3.1-7.9,3.9c-1,0.4-2.1,0.6-3.3,0.6c-0.2,0-0.5-0.1-0.7-0.4c-0.4-0.5-0.6-1-0.6-1.4
			c0-0.3,0.1-0.5,0.3-0.5c0.2,0,0.3,0.1,0.5,0.2c0.3,0.1,0.8,0.2,1.3,0.2c1.3,0,2.3-0.1,3.2-0.4c0.4-0.1,0.8-0.2,1.1-0.4
			c-0.5-0.5-0.9-0.8-1.2-1c-0.3-0.1-0.4-0.3-0.4-0.5c0-0.5,0.3-0.8,0.8-0.8c0.1,0,0.4,0.3,0.9,0.8c0.5,0.5,0.7,0.8,0.8,1.1
			c0.8-0.3,1.7-0.7,2.5-1.2c1-0.5,1.5-0.9,1.5-1.1c0-0.1-0.1-0.3-0.3-0.4c-0.4-0.4-0.9-0.8-1.3-1.1c-0.1-0.1-0.2-0.2-0.2-0.3
			c-1.8,0.9-3.4,1.5-4.9,2c-1.2,0.4-2.1,0.6-2.7,0.6c-0.4,0-0.7-0.1-0.9-0.4c-0.3-0.2-0.4-0.5-0.4-0.8c0-0.2,0.1-0.3,0.3-0.4
			c2.2-0.3,3.9-0.6,5-1c1-0.3,2.3-0.8,3.8-1.5C300.8,0.4,301,0.3,301.1,0.3z"/>
		<path class="st0" d="M314.1,3.9h2.8c0-0.8-0.1-1.7-0.1-2.5c0-0.6,0.2-0.9,0.7-0.9c0.5,0,0.8,0.3,0.8,0.9c0,0.9-0.1,1.7-0.1,2.5
			h2.6c0.2,0,0.3,0.1,0.3,0.3c0,0.3-0.1,0.5-0.3,0.7c-0.2,0.2-0.5,0.3-0.8,0.3c-0.2,0-0.5,0-1.1-0.1c-0.2,0-0.5,0-0.7,0
			c0,0.3,0,0.7,0,1l0,1.2c0,0,0.1,0,0.2,0c0,0,0.4,0.3,1,0.8c0.6,0.5,0.9,0.9,0.9,1.1c0,0.4-0.2,0.6-0.7,0.6c0,0-0.1,0-0.3-0.1
			c-0.5-0.4-0.9-0.8-1.2-0.9l0.1,7.5c0,1-0.3,1.5-0.9,1.5c-0.4,0-0.6-0.5-0.6-1.5c0-2.8,0-5.1,0-7.1c-0.4,0.5-0.7,1-1.1,1.4
			c-0.5,0.6-1,1-1.7,1.4c-0.1,0.1-0.2,0.1-0.3,0.1c-0.4,0-0.7-0.2-1.1-0.6c-0.3-0.3-0.5-0.6-0.5-0.9c0-0.2,0.2-0.3,0.6-0.3
			c0.4-0.1,0.8-0.1,1-0.2c0.5-0.2,1-0.5,1.5-0.9c0.5-0.5,0.9-1,1.2-1.6c0.1-0.1,0.2-0.2,0.3-0.2c0-0.4,0-0.7,0-1c0-0.3,0-0.7,0-1
			c-1.2,0-2.1,0.1-2.7,0.2c-0.3,0.1-0.5,0.2-0.6,0.2c-0.4,0-0.7-0.2-0.7-0.6c0-0.2,0.1-0.4,0.4-0.6C313.5,3.9,313.8,3.9,314.1,3.9z
			 M324.7,0.5c0.4,0.1,0.6,0.3,0.7,0.6c0.2,0.9,0.3,1.5,0.3,1.7c0,0,0,0.1,0,0.1h3.4c0-0.1,0.2-0.8,0.6-2c0.1-0.3,0.3-0.4,0.7-0.4
			c0.5,0,0.8,0.3,0.8,0.7c0,0.1-0.1,0.3-0.2,0.4c-0.4,0.5-0.7,0.9-1,1.2c0,0-0.1,0.1-0.1,0.1h2.6c0.2,0,0.3,0.1,0.4,0.3
			c0,0.3-0.1,0.6-0.3,0.8c-0.2,0.2-0.5,0.3-0.9,0.3c-0.2,0-0.8-0.1-1.6-0.2c-0.7,0-1.4-0.1-2.1-0.1c0,0.1,0,0.2,0,0.4
			c0,0.4,0,0.8,0,1.1h3.4c0.2,0,0.3,0.1,0.3,0.2c0,0.3-0.1,0.5-0.3,0.7c-0.2,0.2-0.5,0.3-0.8,0.3c-0.2,0-0.6,0-1.3-0.1
			c-0.4,0-0.9,0-1.4,0c0,0.5,0,1,0,1.5c0.9,0,2.1,0.1,3.6,0.1c0.3,0,0.6,0,0.9,0c0.2,0,0.5,0,1-0.1c0.4-0.1,0.6-0.2,0.7-0.2
			c0.2,0,0.3,0.1,0.3,0.2c0,0.4-0.2,0.8-0.6,1.3c-0.4,0.5-0.7,0.7-1.1,0.7c-0.2,0-0.6-0.1-1.2-0.3c-1-0.3-2.2-0.5-3.6-0.6L328,16
			c0,1-0.3,1.5-0.8,1.5c-0.4,0-0.6-0.5-0.6-1.5c0-2.7,0-4.9,0-6.6c-1.9,0-3.2,0.1-4,0.4c-0.4,0.1-0.7,0.2-1,0.2
			c-0.4,0-0.6-0.2-0.6-0.6c0-0.2,0.1-0.5,0.3-0.7c0.2-0.2,0.4-0.3,0.6-0.3c0.2,0,0.3,0,0.5,0.1c1.6-0.2,3-0.3,4.2-0.3
			c0-0.5,0-1,0-1.5c-1.1,0-1.9,0.1-2.4,0.1c-0.4,0.1-0.6,0.1-0.7,0.1c-0.4,0-0.6-0.2-0.7-0.6c0-0.2,0.1-0.4,0.4-0.6
			c0.2-0.1,0.4-0.2,0.8-0.2h2.6c0-0.4,0-0.7,0-1.1c0-0.1,0-0.3,0-0.4c-1.4,0-2.4,0.1-3,0.2c-0.4,0.1-0.7,0.2-0.9,0.2
			c-0.4,0-0.7-0.2-0.7-0.6c0-0.2,0.1-0.5,0.4-0.6c0.2-0.1,0.5-0.2,0.8-0.2h1.7c0,0-0.1-0.1-0.1-0.1c-0.2-0.4-0.4-0.7-0.6-1.1
			c-0.1-0.2-0.1-0.4-0.1-0.6C323.9,0.7,324.2,0.5,324.7,0.5z M324.9,14c0.3,0,0.4,0.1,0.4,0.4c0,0.2-0.1,0.4-0.2,0.6
			c-1.7,1.2-2.6,1.9-2.9,1.9c-0.6,0-0.9-0.2-0.9-0.6c0-0.5,0.1-0.8,0.4-0.9C321.6,15.2,322.7,14.8,324.9,14z M322.7,10.7
			c0.1,0,0.5,0.2,1.4,0.7c0.8,0.5,1.2,0.8,1.2,1.1c0,0.4-0.2,0.6-0.7,0.6c-0.1,0-0.2,0-0.4-0.1c-0.9-0.5-1.5-0.9-1.9-1
			c-0.4-0.1-0.6-0.3-0.6-0.4C321.8,11,322.1,10.7,322.7,10.7z M331.9,10.7c0.4,0,0.7,0.3,0.7,0.8c0,0.3-0.1,0.5-0.3,0.6
			c-1.6,0.7-2.5,1-2.5,1c-0.4,0-0.6-0.1-0.6-0.3c0-0.2,0.1-0.3,0.2-0.5l2.2-1.6C331.8,10.7,331.9,10.7,331.9,10.7z M329.5,14
			c0,0,0.1,0,0.1,0c0.8,0.5,1.5,0.9,2,1.1c0.3,0.1,0.8,0.2,1.3,0.2c0.2,0,0.3,0.1,0.3,0.3c0,0.3-0.2,0.5-0.5,0.7
			c-0.6,0.4-1.1,0.6-1.4,0.6c-0.2,0-0.3-0.1-0.4-0.2c-0.2-0.2-0.8-1-1.7-2.2c-0.1-0.1-0.1-0.2-0.1-0.3C329.2,14.1,329.3,14,329.5,14
			z"/>
		<path class="st0" d="M339.8,3.1c0.4,0,0.6,0.3,0.6,0.8c-0.1,0.7-0.1,1.3-0.1,1.8v3c0,0.9-0.2,1.4-0.7,1.4c-0.4,0-0.6-0.5-0.6-1.4
			c0.1-1.3,0.2-2.3,0.2-3c0-0.5,0-1.1-0.1-1.8C339.1,3.4,339.3,3.1,339.8,3.1z M342.6,0.3c0.5,0,0.7,0.3,0.7,0.9
			c-0.1,1.7-0.1,3.3-0.1,4.7l0.1,10c0,1-0.3,1.5-0.8,1.5c-0.4,0-0.6-0.5-0.6-1.5c0.1-4.3,0.1-7.6,0.1-10c0-1.4,0-2.9-0.1-4.7
			C341.9,0.6,342.1,0.3,342.6,0.3z M345.6,1.4c0.5,0,0.7,0.2,0.7,0.6l-1.4,3c-0.1,0.3-0.3,0.4-0.6,0.4c-0.2,0-0.4-0.2-0.4-0.5l0.9-3
			C345.1,1.6,345.3,1.4,345.6,1.4z M349.1,2.4c0.4,0,0.6,0.2,0.6,0.5c0,0.2-0.1,0.5-0.2,0.7c-0.2,0.5-0.4,1-0.7,1.5c0,0,0,0,0,0h3.1
			l0-3.6c0-0.6,0.2-0.8,0.7-0.8c0.6,0,0.9,0.3,0.9,0.8l0,3.6h4.5c0.2,0,0.4,0.1,0.4,0.3c0,0.3-0.1,0.6-0.3,0.8
			c-0.2,0.2-0.5,0.3-0.8,0.3c-0.2,0-0.8-0.1-1.6-0.2c-0.7,0-1.4-0.1-2.1-0.1l0,3.3h3.8c0.2,0,0.3,0.1,0.4,0.3c0,0.3-0.1,0.6-0.3,0.8
			c-0.2,0.2-0.5,0.3-0.9,0.3c-0.2,0-0.7-0.1-1.4-0.2c-0.5,0-1-0.1-1.6-0.1l0,3.6c0.8,0,1.6,0.1,2.5,0.2c1,0.1,1.9,0.1,2.8,0.1
			c0.4,0,0.8,0,1.1-0.1c0.1,0,0.1,0.1,0.1,0.3c0,0.4-0.1,0.9-0.4,1.3c-0.3,0.5-0.5,0.7-0.8,0.7s-0.5-0.1-0.8-0.3c-1.1-0.5-2-0.8-3-1
			c-0.7-0.1-1.6-0.2-2.6-0.2c-1.2,0-2.2,0.1-3.1,0.3c-0.9,0.2-1.8,0.6-2.7,1c-0.3,0.1-0.5,0.2-0.6,0.2c-0.4,0-0.6-0.3-0.6-0.7
			c0-0.3,0.1-0.5,0.3-0.7c0.2-0.2,0.5-0.3,0.8-0.4c2.5-0.4,4.4-0.7,5.6-0.7l-0.1-3.6c-1.3,0-2.2,0.1-2.8,0.2
			c-0.4,0.1-0.6,0.2-0.8,0.2c-0.4,0-0.7-0.2-0.7-0.6c0-0.2,0.1-0.4,0.4-0.6c0.2-0.1,0.5-0.2,0.8-0.2h3.1l0-3.3
			c-1.2,0-2.2,0.1-2.8,0.2c-0.4,0.1-0.7,0.2-0.8,0.2c-0.2,0-0.3,0-0.4-0.1c-0.2,0.3-0.4,0.6-0.6,0.8c-0.3,0.4-0.6,0.6-0.8,0.6
			c-0.3,0-0.7-0.1-1.1-0.4c-0.4-0.3-0.5-0.6-0.5-0.9c0-0.2,0.2-0.4,0.5-0.4c0.6-0.3,1.2-0.7,1.7-1.2c0.5-0.6,1-1.4,1.5-2.4
			C348.9,2.5,349,2.4,349.1,2.4z"/>
		<path class="st0" d="M381.6,7.5c0,1.2-0.5,2.1-1.6,2.9c-0.9,0.7-2,1-3.2,1c-0.8,0-1.4-0.2-1.8-0.6c-0.4-0.5-0.6-0.9-0.6-1.3
			c0-0.2,0-0.3,0.1-0.3c0.2,0,0.6,0.1,1.2,0.2c0.5,0.1,1,0.2,1.3,0.2c0.7,0,1.4-0.2,2.1-0.6c0.8-0.4,1.2-1,1.2-1.6
			c0-0.6-0.2-1.1-0.7-1.5c-0.4-0.3-1-0.5-1.6-0.5c-1.6,0-3.9,0.5-6.8,1.4c0.4,2.4,1,4.4,1.9,6c0.6,1.2,1.3,2.1,2,2.7
			c0.2,0.1,0.4,0.3,0.6,0.6c0,0.2-0.3,0.4-0.8,0.7c-0.5,0.2-0.9,0.3-1.2,0.3c-0.7,0-1.5-1.5-2.4-4.4c-0.6-2.1-1.1-3.9-1.3-5.5
			c-0.8,0.3-2.1,0.8-3.7,1.4l-1.3,0.6c-0.5,0-0.8-0.3-0.8-0.9c0-0.4,0.8-0.9,2.5-1.4c0.3-0.1,1.4-0.4,3.2-0.9
			c-0.2-1.8-0.3-3.2-0.3-4.2c0-0.5,0.3-0.7,0.8-0.7c0.3,0,0.5,0.2,0.6,0.7c0,0.3,0,0.7,0,1.3c0,1,0.1,1.9,0.2,2.7
			c3-0.8,5.2-1.2,6.6-1.2c1.1,0,2,0.2,2.7,0.7C381.2,5.8,381.6,6.5,381.6,7.5z M376.8,1.2c0,0.3-0.4,0.8-1.1,1.6
			c-0.8,0.8-1.3,1.1-1.5,1.1c-0.3,0-0.6-0.2-1-0.6c-0.4-0.4-0.6-0.7-0.6-0.9c0-0.1,0.4-0.2,1.1-0.3c0.5,0,1.1-0.3,1.8-0.6
			c0.7-0.4,1-0.6,1-0.6C376.8,0.9,376.8,1,376.8,1.2z"/>
		<path class="st0" d="M397.7,6.1c1.3,0,2.8,0.1,4.5,0.2c1.3,0.1,2.5,0.1,3.4,0.1c0.5,0,1.1-0.1,1.8-0.3c0.1,0,0.2,0.2,0.2,0.5
			c0,0.5-0.2,1.1-0.6,1.6c-0.3,0.4-0.5,0.6-0.7,0.6c-0.4,0-0.9-0.1-1.5-0.4c-0.9-0.4-2-0.8-3.1-0.9c-1.2-0.2-2.6-0.3-4.1-0.3
			c-0.6,0-1.2,0-1.8,0c-0.4,0.6-0.8,1.3-1.3,2c-1.2,1.4-2.6,2.5-3.9,3.3c-0.9,0.5-1.7,0.8-2.3,0.8c-0.3,0-0.5-0.1-0.8-0.3
			c-0.4-0.3-0.5-0.7-0.5-1c0-0.2,0.2-0.4,0.7-0.5c1.8-0.2,3.4-1,4.9-2.2c0.7-0.6,1.3-1.3,1.8-2c-0.5,0-1,0.1-1.6,0.1
			c-0.9,0.1-2.4,0.5-4.2,1.3c-0.6,0-0.8-0.2-0.8-0.7c0-0.3,0.1-0.5,0.4-0.7c0.3-0.3,0.7-0.5,1.2-0.5c2.3-0.4,4.2-0.6,5.9-0.7
			c0.3-0.5,0.6-1.1,0.8-1.7c0-0.2,0.2-0.3,0.5-0.3c0.4,0,0.7,0.2,0.7,0.7c0,0-0.1,0.1-0.1,0.3c-0.1,0.3-0.3,0.6-0.5,1
			C396.9,6.1,397.3,6.1,397.7,6.1z M389.1,1.9h4.2l-0.1-0.7c0-0.4,0.2-0.6,0.7-0.6s0.7,0.2,0.7,0.7v0.6h5.2l0.1-0.6
			c0-0.6,0.2-0.8,0.7-0.8s0.7,0.2,0.7,0.7l-0.2,0.7h5.1c0.2,0,0.3,0.1,0.4,0.3c0,0.3-0.1,0.6-0.3,0.8c-0.2,0.2-0.5,0.3-0.9,0.3
			c-0.4,0-1.5-0.1-3.2-0.2c-0.5,0-0.9,0-1.4,0l-0.3,1c-0.1,0.3-0.3,0.4-0.6,0.4c-0.3,0-0.5-0.2-0.5-0.6l0.1-0.8c-1,0-2,0-3,0
			c-0.7,0-1.4,0-2.1,0v0.8c0,0.4-0.2,0.6-0.5,0.6c-0.3,0-0.5-0.2-0.6-0.6L393.5,3c-1.5,0-2.6,0.1-3.4,0.2c-0.8,0.1-1.3,0.2-1.5,0.2
			c-0.5,0-0.8-0.3-0.8-0.7c0-0.2,0.2-0.5,0.4-0.6C388.4,1.9,388.7,1.9,389.1,1.9z M394.6,10.5c0.2,0,0.5,0,0.7,0.1
			c0.2,0.1,0.6,0.1,1,0.1h3c0.7,0,1.5,0,2.4,0.1c0.2,0,0.5-0.1,0.8-0.2c0.4,0,0.7,0.2,0.7,0.7c0,0,0,0.1,0,0.2
			c-0.1,0.2-0.1,0.5-0.2,0.9c0,0.6-0.1,1.2-0.1,1.8c0,0.4,0,0.9,0.1,1.6c0,0.5-0.2,0.7-0.6,0.7c-1.5-0.1-2.9-0.2-4.1-0.2
			c-1.3,0-2.1,0-2.5,0.1c-0.3,0-0.6,0.1-1.1,0.1c-0.4,0-0.6-0.2-0.6-0.6c0.1-0.9,0.2-1.7,0.2-2.4c0-0.6-0.1-1.4-0.2-2.4
			C394,10.7,394.2,10.5,394.6,10.5z M398.2,15.3c0.9,0,2,0,3.1,0.1c0.2,0,0.4-0.1,0.4-0.3v-3c0-0.2-0.1-0.3-0.2-0.3
			c-1.2-0.1-3-0.1-5.4-0.1c-0.3,0-0.5,0.2-0.5,0.5c0,1-0.1,1.9-0.2,2.8c0,0.3,0.2,0.4,0.6,0.4C396.6,15.3,397.3,15.3,398.2,15.3z"/>
		<path class="st0" d="M418.4,2.5h3.3L421.7,1c0-0.5,0.3-0.7,0.8-0.7c0.6,0,0.8,0.2,0.8,0.7l-0.1,1.5h3.9c0.1,0,0.2,0,0.2,0.1
			c0.4-0.4,0.8-0.9,1.2-1.3c0.1-0.1,0.3-0.1,0.5-0.1c0.4,0,0.5,0.3,0.6,0.6c0,0.2-0.1,0.3-0.2,0.4c-1.2,1.3-2.3,2.4-3.3,3.3
			c0.4,0,0.9,0.1,1.3,0.1c1.4,0.1,2.6,0.2,3.7,0.2c0.5,0,1.2-0.1,1.9-0.3c0.1,0,0.2,0.2,0.2,0.5c0,0.5-0.2,1-0.6,1.6
			c-0.3,0.4-0.6,0.6-0.8,0.6c-0.4,0-1-0.1-1.6-0.4c-1-0.4-2.1-0.7-3.3-0.9c-0.6-0.1-1.3-0.1-1.9-0.2c-1,0.8-1.8,1.5-2.6,1.9
			c-0.3,0.2-0.6,0.4-0.8,0.5c0.2,0,0.4,0,0.6,0h2.5c0.6,0,1.3,0,2,0.1c0.2,0,0.5-0.1,0.9-0.2c0.4,0,0.6,0.3,0.6,0.8c0,0,0,0.1,0,0.2
			c-0.1,0.2-0.1,0.6-0.2,1.2c0,0.8-0.1,1.6-0.1,2.5c0,0.6,0,1.3,0.1,2.3c0,0.6-0.2,0.8-0.6,0.8c-1.2-0.2-2.4-0.3-3.4-0.3
			c-1.3,0-2.1,0-2.5,0.1c-0.3,0-0.7,0.1-1.1,0.2c-0.4,0-0.7-0.2-0.7-0.7c0.1-1.2,0.2-2.3,0.2-3.2c0-0.8,0-1.8-0.1-2.9
			c-1.4,0.7-2.9,1.3-4.5,1.8c-0.7,0.3-1.3,0.4-1.7,0.4c-0.5,0-0.9-0.2-1.2-0.5c-0.3-0.3-0.5-0.6-0.5-0.9c0-0.2,0.1-0.4,0.4-0.4
			c2.8-0.4,5-0.9,6.7-1.6c1.3-0.5,2.7-1.3,4-2.2c-0.2,0-0.3,0-0.5,0c-1.6,0-3.2,0.1-4.7,0.2c-0.9,0.1-2.3,0.5-4.1,1.1
			c-0.5,0-0.7-0.2-0.7-0.6c0-0.3,0.1-0.5,0.3-0.7c0.3-0.3,0.6-0.5,1.1-0.5c3.2-0.4,5.6-0.6,7.5-0.6l-0.1-1.8c-1.4,0-2.4,0.1-3,0.2
			C418.4,4,418.1,4,418,4c-0.5,0-0.7-0.2-0.7-0.6c0-0.2,0.1-0.4,0.4-0.6C417.8,2.6,418.1,2.5,418.4,2.5z M424,15.4
			c0.7,0,1.5,0,2.4,0.1c0.2,0,0.4-0.1,0.4-0.4v-1.9c-2.3,0-4.1,0.1-5.3,0.2c0,0-0.1,0-0.1,0c0,0.5,0,1.1-0.1,1.6
			c0,0.3,0.2,0.5,0.6,0.5C422.4,15.4,423.1,15.4,424,15.4z M421.3,12.2c0.1,0,0.1,0,0.2,0h5.2v-1.6c0-0.2-0.1-0.3-0.2-0.3
			c-1.1-0.1-2.7-0.1-4.7-0.1c-0.3,0-0.5,0.2-0.5,0.5C421.3,11.2,421.3,11.7,421.3,12.2z M424.4,5.5c0.6-0.5,1.2-1.1,1.9-1.7
			c-0.3,0-0.7,0-1.4-0.1c-0.5,0-1.1,0-1.7,0l-0.1,1.8C423.5,5.4,424,5.5,424.4,5.5z"/>
		<path class="st0" d="M447.8,0c0.6,0,0.8,0.3,0.8,0.9c-0.1,0.4-0.2,0.8-0.2,1.1c1.2,0,2.6,0.1,4.2,0.3c1.5,0.1,2.8,0.2,3.8,0.2
			c0.5,0,1.2-0.1,1.9-0.2c0.1,0,0.2,0.2,0.2,0.5c0,0.5-0.2,1-0.6,1.6c-0.3,0.4-0.6,0.6-0.8,0.6c-0.4,0-1-0.2-1.7-0.5
			c-1.1-0.5-2.2-0.8-3.5-1c-1.4-0.2-2.9-0.3-4.5-0.3c-0.2,0-0.4,0-0.6,0c0,0.1,0,0.2,0,0.3c0,0,0,0.1-0.1,0.2c-0.4,0.5-0.8,1-1,1.3
			c-0.2,0.2-0.5,0.5-0.8,0.8c0,0.1,0.1,0.2,0.4,0.2h5.4c0.2,0,0.4-0.1,0.4-0.3c0,0,0,0,0-0.1c-0.2-0.3-0.5-0.6-0.8-1
			c0,0-0.1-0.1-0.1-0.1c0-0.4,0.2-0.6,0.7-0.6c0.1,0,0.2,0,0.2,0.1c0.5,0.6,1.1,1.3,1.7,2.2c0.1,0.1,0.1,0.2,0.1,0.3
			c0,0.4-0.2,0.6-0.6,0.6h-6.9c-0.5,0-1,0-1.7,0.1c-0.6,0-0.8-0.2-0.8-0.6c0-0.2,0.1-0.4,0.3-0.6c0.2-0.2,0.4-0.3,0.6-0.5
			c0.3-0.2,0.5-0.5,0.8-0.8c0.3-0.4,0.6-0.8,0.9-1.3c-1,0-2,0.1-2.9,0.2c-1,0.1-2.4,0.5-4.3,1.3c-0.6,0-0.8-0.2-0.8-0.7
			c0-0.3,0.1-0.5,0.4-0.7c0.3-0.3,0.7-0.5,1.1-0.5c3.6-0.5,6.3-0.8,8.3-0.8c0-0.4-0.1-0.7-0.2-1.1C446.9,0.3,447.2,0,447.8,0z
			 M443.8,8c0.3,0,0.5,0.1,0.6,0.2l6.3,0.1c0.2,0,0.5-0.1,1-0.2c0.6,0,0.8,0.2,0.8,0.6c-0.3,1-0.4,2.3-0.4,3.8
			c0,0.9,0.1,2.3,0.2,4.1c0,0.6-0.2,0.9-0.7,0.9c-0.2,0-0.4-0.1-0.5-0.3c-0.1-0.3-0.1-0.7-0.1-1.2c0-0.5,0-1,0-1.4
			c-2.8,0-5,0.1-6.6,0.2c0,0-0.1,0-0.1,0c-0.2,0.5-0.4,1-0.7,1.3c-0.8,0.8-1.5,1.2-2.2,1.2c-0.4,0-0.8-0.2-1.2-0.7
			c-0.2-0.3-0.3-0.6-0.3-0.8c0-0.1,0.1-0.2,0.4-0.2c1-0.1,1.9-0.5,2.5-1.2c0.4-0.5,0.7-1.6,0.7-3.1c0-0.8-0.1-1.6-0.3-2.5
			C443,8.2,443.3,8,443.8,8z M444.5,13.6h6.5c0-0.6,0-1.2,0-1.7c-2.7,0-4.8,0.1-6.3,0.2c0,0-0.1,0-0.1,0
			C444.6,12.7,444.6,13.2,444.5,13.6z M444.7,11c0,0,0.1,0,0.1,0h6.2c0,0,0.1,0,0.1,0c0-0.6,0.1-1.1,0.1-1.5c0-0.1-0.2-0.2-0.6-0.2
			c-2.2,0-4.1,0-5.9,0.1C444.7,10,444.7,10.5,444.7,11z"/>
		<path class="st0" d="M466.6,3.6h7.1c-0.1-1.2-0.1-2-0.1-2.4c0-0.4,0.2-0.6,0.6-0.6c0.5,0,0.8,0.3,0.8,0.7v0.8c0,0.5,0,1,0,1.5h6.3
			c0.2,0,0.4,0.1,0.4,0.2c0,0.3-0.1,0.6-0.3,0.8c-0.2,0.2-0.5,0.4-0.8,0.4c-0.4,0-1.3-0.1-2.7-0.2c-0.9,0-1.8-0.1-2.8-0.1
			c0,0.8,0.1,1.5,0.2,2.1c0.2,1.4,0.6,2.7,1.2,3.7c0.2,0.4,0.4,0.8,0.7,1.2c0.8-1.2,1.4-2.6,1.9-4.3c0-0.2,0.2-0.3,0.6-0.3
			c0.4,0,0.6,0.2,0.6,0.7c0,0-0.1,0.1-0.1,0.3c-0.4,1.3-1.1,2.8-2,4.5c0,0-0.1,0.1-0.1,0.1c0.4,0.4,0.8,0.7,1.2,1
			c0.8,0.6,1.8,1,3,1.3c0.3,0,0.4,0.2,0.4,0.5c0,0.3-0.2,0.6-0.5,1c-0.4,0.4-0.7,0.6-1.1,0.6c-0.3,0-0.7-0.2-1.2-0.6
			c-1-0.7-1.9-1.5-2.8-2.5c-0.7,0.8-1.4,1.5-2.1,2.1c-0.8,0.6-1.4,0.9-1.8,0.9c-0.3,0-0.6-0.1-0.8-0.3c-0.4-0.4-0.6-0.7-0.6-1.1
			c0-0.2,0.3-0.4,0.8-0.5c1.3-0.2,2.6-0.9,3.7-2.1c-0.7-1.1-1.2-2.3-1.6-3.6c-0.4-1.1-0.6-2.7-0.8-4.7c-0.2,0-0.4,0-0.6,0
			c-2.6,0-4.5,0-5.7,0.1C467,4.9,466.6,5,466.4,5c0,0.1,0,0.3,0,0.4l0,2.7c0.3,0,0.9-0.1,1.7-0.1h2.5c0.1,0,0.4-0.1,0.8-0.2
			c0.6,0,0.8,0.3,0.8,0.8c-0.3,1-0.5,2.1-0.6,3.1c-0.1,1.4-0.5,2.4-1.1,2.8c-0.5,0.4-1.1,0.6-1.8,0.6c-0.4,0-0.7-0.2-1-0.5
			c-0.2-0.3-0.3-0.6-0.3-0.8c0-0.3,0.1-0.4,0.4-0.5c0.9,0,1.5-0.2,1.7-0.4c0.3-0.3,0.6-1,0.8-2.2c0.1-0.8,0.2-1.2,0.2-1.4
			c0-0.3-0.1-0.4-0.3-0.4h-1.5c-0.7,0-1.4,0.1-2,0.2c-0.2,0.1-0.4,0.1-0.5,0.1c0,1-0.2,1.9-0.4,2.6c-0.4,1.1-0.9,2-1.6,2.9
			c-0.4,0.5-0.8,0.7-1.1,0.7c-0.4,0-0.9-0.2-1.4-0.7c-0.4-0.3-0.6-0.6-0.6-0.9c0-0.3,0.2-0.4,0.6-0.5c0.5-0.1,0.9-0.2,1.2-0.5
			c0.7-0.4,1.2-1.1,1.5-2.1c0.3-0.9,0.4-2,0.4-3.4c0-0.8-0.1-1.9-0.3-3.4c0-0.6,0.2-0.8,0.7-0.8c0.3,0,0.6,0.1,0.7,0.2
			C466.3,3.6,466.5,3.6,466.6,3.6z M479.6,0.6c0.4,0,0.6,0.2,0.6,0.6c0,0.3,0,0.5-0.1,0.7c-1.2,0.9-1.8,1.4-1.9,1.4
			c-0.3,0-0.5-0.1-0.5-0.4c0-0.1,0.3-0.7,1-1.9C479,0.7,479.2,0.6,479.6,0.6z"/>
		<path class="st0" d="M493.6,16.2c0,0.3-0.3,0.6-0.9,1c-0.6,0.4-1,0.6-1.3,0.6c-0.3,0-0.6-0.3-1-0.8c-0.8-1.2-1.7-2.3-2.4-3.1
			c-0.7-0.8-1-1.3-1-1.5c0-0.3,0.2-0.4,0.5-0.4c0.2,0,1.5,0.9,3.8,2.8c0.5,0.4,1.2,0.8,2.1,1.2C493.4,16,493.5,16.1,493.6,16.2z"/>
		<path class="st0" d="M1.2,35.4h2l0-3.9c0-0.6,0.2-0.8,0.7-0.8c0.6,0,0.9,0.3,0.9,0.8l-0.1,3.9h2.4c0.2,0,0.3,0.1,0.3,0.3
			c0,0.2-0.1,0.5-0.3,0.6c-0.2,0.2-0.5,0.3-0.8,0.3c-0.1,0-0.5,0-1-0.1c-0.2,0-0.5,0-0.7,0l-0.1,4.6c1.1-0.2,2-0.4,2.6-0.5
			c0.3,0,0.4,0.1,0.4,0.4c0,0.4-0.2,0.6-0.5,0.7c-2.3,0.6-4.4,1.3-6.3,2.1c-0.5,0-0.7-0.2-0.7-0.6c0-0.4,0.1-0.6,0.2-0.8
			c0.1-0.2,0.3-0.3,0.6-0.4c0.9-0.2,1.7-0.4,2.4-0.6l0-4.9c-0.9,0-1.5,0.1-1.9,0.2c-0.3,0.1-0.5,0.2-0.6,0.2c-0.4,0-0.7-0.2-0.7-0.6
			c0-0.2,0.1-0.4,0.4-0.6C0.6,35.5,0.9,35.4,1.2,35.4z M19.3,35c0.5,0,0.7,0.3,0.7,0.8c0,0.1-0.1,0.3-0.2,0.5
			c-0.3,0.7-0.8,1.9-1.5,3.8c-0.1,0.4-0.3,0.6-0.7,0.6c-0.4,0-0.6-0.2-0.6-0.5c0.1-0.7,0.5-1.8,1-3.4c0-0.1-0.1-0.2-0.4-0.2
			c-0.2,0-0.6,0-1.1,0.1c-0.6,0.1-1.2,0.2-1.7,0.3l0,3.7c0,0.9-0.2,1.4-0.7,1.4c-0.4,0-0.6-0.5-0.6-1.4c0-1.3,0-2.4,0-3.4
			c-0.9,0.2-1.7,0.4-2.4,0.6c0,1.7-0.1,3.7-0.1,5.8c0,0.4,0.2,0.6,0.6,0.7c0.8,0.1,2.7,0.1,5.9,0.1c1.5,0,2.8-0.2,4-0.6
			c0.2,0,0.3,0.2,0.3,0.5c0,0.4-0.1,0.9-0.4,1.4c-0.3,0.6-0.6,0.9-0.8,0.9c-0.4,0-3.6-0.3-9.6-0.9c-0.9-0.1-1.4-0.5-1.4-1.1
			c0.1-2.6,0.2-4.6,0.2-6c0-0.1,0-0.3,0-0.4c-0.5,0.2-1,0.4-1.6,0.6c-0.6,0-0.8-0.2-0.8-0.6c0-0.3,0.1-0.5,0.3-0.8
			c0.1-0.2,0.4-0.3,0.7-0.3c0.5-0.1,1-0.2,1.5-0.4c0-1,0-2.1-0.1-3.2c0-0.4,0.2-0.6,0.7-0.6c0.6,0,0.8,0.3,0.8,0.8
			c0,0.8,0,1.7,0,2.7c0.9-0.2,1.7-0.4,2.4-0.5c0-0.6,0-1.1,0-1.6c0-0.9,0-2-0.1-3.1c0-0.6,0.2-0.8,0.7-0.8c0.4,0,0.6,0.3,0.6,0.8
			c-0.1,1.2-0.1,2.2-0.1,3.1l0,1.4c1-0.2,1.9-0.3,2.7-0.4c0.5-0.1,0.8-0.2,1.1-0.3C18.9,35,19.1,35,19.3,35z"/>
		<path class="st0" d="M27.2,35.6h2l-0.1-3.3c0-0.6,0.2-0.8,0.7-0.8c0.6,0,0.9,0.3,0.9,0.8l0,3.3H33c0.2,0,0.3,0.1,0.3,0.3
			c0,0.3-0.1,0.5-0.3,0.7c-0.2,0.2-0.5,0.3-0.8,0.3c-0.1,0-0.4,0-1-0.1c-0.2,0-0.4,0-0.5,0l-0.1,4.2c0.9-0.3,1.6-0.4,2.1-0.5
			c0.2,0,0.3,0.1,0.3,0.4c0,0.3-0.1,0.5-0.4,0.6c-2,0.7-4,1.6-5.7,2.5c-0.5,0-0.7-0.2-0.7-0.6c0-0.3,0.1-0.6,0.2-0.7
			c0.1-0.2,0.2-0.4,0.5-0.5c0.9-0.3,1.7-0.5,2.4-0.8l-0.1-4.6c-0.9,0-1.6,0.1-2,0.2c-0.3,0.1-0.5,0.2-0.6,0.2
			c-0.4,0-0.7-0.2-0.7-0.6c0-0.2,0.1-0.4,0.4-0.6C26.6,35.7,26.9,35.6,27.2,35.6z M39.6,41.9c0.2,0,0.3,0.1,0.3,0.4
			c0,0.3-0.1,0.5-0.4,0.6c-2,0.6-3.9,1.3-5.6,2.1c-0.5,0-0.7-0.2-0.7-0.6c0-0.3,0.1-0.6,0.2-0.7c0.1-0.2,0.2-0.3,0.5-0.4
			C36.6,42.5,38.5,42.1,39.6,41.9z M34.7,33.6h6c0-0.9,0-1.8,0-2.6c0-0.4,0.2-0.6,0.6-0.6c0.4,0,0.6,0.2,0.6,0.6
			c0,0.9-0.1,1.8-0.1,2.6h4.5c0.2,0,0.4,0.1,0.4,0.3c0,0.3-0.1,0.6-0.3,0.8c-0.2,0.2-0.5,0.3-0.8,0.3c-0.3,0-1-0.1-2.1-0.2
			c-0.5,0-1.1,0-1.7,0c0,1.1,0.2,2.3,0.4,3.4c0.2,1.2,0.5,2.2,0.9,3.1c0.6-1,1.1-2.1,1.5-3.5c0-0.2,0.2-0.3,0.5-0.3
			c0.4,0,0.7,0.2,0.7,0.6c0,0-0.1,0.1-0.1,0.3c-0.4,1.2-1,2.5-1.8,4.1c0,0,0,0,0,0c0.1,0.2,0.2,0.4,0.3,0.5c0.8,1.2,1.8,1.9,3,2.3
			c0.2,0.1,0.4,0.3,0.4,0.5c0,0.2-0.2,0.5-0.6,0.8c-0.4,0.3-0.7,0.4-1,0.4c-0.3,0-0.6-0.1-1-0.4c-0.8-0.6-1.5-1.5-2.1-2.8
			c-0.6,0.7-1.2,1.3-1.9,1.8c-0.7,0.5-1.2,0.8-1.7,0.8c-0.3,0-0.5-0.1-0.8-0.3c-0.4-0.3-0.6-0.7-0.6-1c0-0.2,0.3-0.4,0.8-0.5
			c1.2-0.2,2.4-0.9,3.5-2c-0.1-0.2-0.1-0.3-0.2-0.5c-0.7-1.9-1-4-1.2-6.2c0-0.4,0-0.8,0-1.2c-0.3,0-0.6,0-0.9,0
			c-2.1,0-3.6,0.1-4.5,0.2c-0.5,0.1-0.9,0.2-1,0.2c-0.5,0-0.7-0.2-0.7-0.6c0-0.2,0.1-0.4,0.4-0.6C34.1,33.6,34.3,33.6,34.7,33.6z
			 M34.7,36.7c0.2,0,0.4,0,0.6,0c0.2,0,0.5,0,0.9,0h1c0.2,0,0.5,0,0.8,0.1c0.2,0,0.5,0,0.7-0.1c0.4,0,0.7,0.2,0.7,0.6c0,0,0,0,0,0.1
			c-0.1,0.1-0.1,0.3-0.2,0.6c0,0.4-0.1,0.8-0.1,1.3c0,0.2,0,0.5,0.1,1c0,0.4-0.2,0.6-0.6,0.6c-0.8-0.1-1.4-0.2-2-0.2
			c-0.8,0-1.2,0-1.4,0.1c-0.2,0-0.4,0.1-0.6,0.2c-0.4,0-0.6-0.2-0.6-0.6c0.1-0.7,0.2-1.2,0.2-1.7c0-0.4-0.1-0.9-0.2-1.5
			C34,36.9,34.3,36.7,34.7,36.7z M36.7,40c0.3,0,0.6,0,1,0.1c0.2,0,0.4-0.1,0.4-0.4v-1.6c0-0.1-0.1-0.2-0.2-0.2
			c-0.4-0.1-1.1-0.1-2-0.1c-0.2,0-0.4,0.1-0.4,0.4c0,0.5-0.1,1-0.2,1.4c0,0.3,0.2,0.5,0.5,0.5C36.1,40,36.3,40,36.7,40z M45.2,30.7
			c0.4,0,0.6,0.2,0.6,0.6c0,0.3,0,0.5-0.1,0.6c-1,0.7-1.6,1.1-1.7,1.1c-0.2,0-0.4-0.1-0.4-0.3c0-0.1,0.3-0.6,0.8-1.6
			C44.7,30.8,44.9,30.7,45.2,30.7z"/>
		<path class="st0" d="M56.3,37.7c0.2,0,0.4,0.1,0.4,0.3c0,0.3-0.1,0.5-0.3,0.6l-4.3,1.6c-0.6,0-0.8-0.2-0.8-0.7c0-0.6,0.2-1,0.6-1
			L56.3,37.7z M53.8,30.7c0.1,0,0.3,0.1,0.6,0.2c0.8,0.6,1.7,1.3,2.7,2c0.1,0.1,0.2,0.2,0.2,0.3c0,0.3-0.2,0.4-0.5,0.4
			c-0.1,0-0.2,0-0.5-0.1c-1.5-0.6-2.4-0.9-2.8-1.1c-0.4-0.3-0.7-0.6-0.7-1C52.9,30.9,53.2,30.7,53.8,30.7z M56.8,43.2
			c0.3,0,0.4,0.1,0.4,0.4c0,0.2-0.1,0.4-0.2,0.6c-1.6,1.8-2.5,2.6-2.7,2.6c-0.7,0-1-0.2-1-0.6c0-0.5,0.1-0.9,0.4-1
			C53.6,45.1,54.7,44.4,56.8,43.2z M69.1,30.9c0.3,0,0.5,0.1,0.5,0.4c0,0.3-0.1,0.5-0.4,0.6c-1.4,0.4-2.6,0.8-3.8,1.1l0,3.4
			c0.7,0,1.6,0,2.5,0.1c1,0,1.8,0.1,2.5,0.1c0.5,0,1-0.1,1.7-0.2c0.1,0,0.2,0.2,0.2,0.5c0,0.5-0.2,1-0.6,1.6
			c-0.3,0.4-0.5,0.6-0.7,0.6c-0.3,0-0.7-0.1-1.2-0.4c-0.7-0.4-1.5-0.6-2.4-0.8c-0.7-0.1-1.4-0.2-2.1-0.2l0,3.5h0
			c0.7,0,1.5,0,2.4,0.1c0.2,0,0.5-0.1,0.9-0.2c0.4,0,0.6,0.2,0.6,0.7c0,0,0,0.1,0,0.2c-0.1,0.2-0.1,0.5-0.2,0.9
			c0,0.6-0.1,1.2-0.1,1.8c0,0.4,0,0.9,0.1,1.6c0,0.5-0.2,0.8-0.6,0.8c-1.5-0.1-2.8-0.2-3.9-0.2c-1.4,0-2.2,0-2.6,0
			c-0.3,0-0.7,0.1-1.2,0.1c-0.4,0-0.6-0.2-0.6-0.7c0.1-0.9,0.2-1.7,0.2-2.4c0-0.6-0.1-1.4-0.2-2.4c0-0.4,0.2-0.6,0.6-0.6
			c0.2,0,0.5,0,0.7,0.1c0.2,0.1,0.6,0.1,1,0.1H64l0-3.5c-0.9,0-1.8,0.1-2.6,0.2c-0.6,0.1-1.5,0.4-2.7,1c-0.6,0-0.8-0.2-0.8-0.6
			c0-0.3,0.1-0.5,0.4-0.7c0.3-0.3,0.7-0.5,1.2-0.5c1.9-0.3,3.5-0.4,4.6-0.5l0-3c-0.4,0.1-0.8,0.2-1.2,0.2c-1.1,0.2-1.9,0.3-2.2,0.3
			c-0.4,0-0.8-0.2-1.2-0.5c-0.2-0.2-0.4-0.5-0.4-0.8c0-0.2,0.1-0.3,0.4-0.3c2.2,0,4.1-0.2,5.5-0.5c1.5-0.2,2.7-0.5,3.7-0.8
			C68.8,30.9,69,30.9,69.1,30.9z M64.5,45.5c0.9,0,1.8,0,2.9,0.1c0.2,0,0.4-0.1,0.4-0.3v-3c0-0.2-0.1-0.3-0.2-0.3
			c-1.2,0-3.1-0.1-5.4-0.1c-0.3,0-0.5,0.2-0.5,0.5c0,1-0.1,1.9-0.2,2.8c0,0.3,0.2,0.4,0.6,0.4C62.8,45.5,63.6,45.5,64.5,45.5z"/>
		<path class="st0" d="M77.8,33.1c0.4,0,0.6,0.3,0.6,0.8c-0.1,0.7-0.1,1.3-0.1,1.8v3c0,0.9-0.2,1.4-0.7,1.4c-0.4,0-0.6-0.5-0.6-1.4
			c0.1-1.3,0.2-2.3,0.2-3c0-0.5,0-1.1-0.1-1.8C77.1,33.4,77.3,33.1,77.8,33.1z M80.6,30.3c0.5,0,0.7,0.3,0.7,0.9
			c-0.1,1.7-0.1,3.3-0.1,4.7l0.1,10c0,1-0.3,1.5-0.8,1.5c-0.4,0-0.6-0.5-0.6-1.5c0.1-4.3,0.1-7.6,0.1-10c0-1.4,0-2.9-0.1-4.7
			C79.9,30.6,80.1,30.3,80.6,30.3z M83.6,31.4c0.5,0,0.7,0.2,0.7,0.6l-1.4,3c-0.1,0.3-0.3,0.4-0.6,0.4c-0.2,0-0.4-0.2-0.4-0.5l0.9-3
			C83,31.6,83.3,31.4,83.6,31.4z M87.1,32.4c0.4,0,0.6,0.2,0.6,0.5c0,0.2-0.1,0.5-0.2,0.7c-0.2,0.5-0.4,1-0.7,1.5c0,0,0,0,0,0h3.1
			l0-3.6c0-0.6,0.2-0.8,0.7-0.8c0.6,0,0.9,0.3,0.9,0.8l0,3.6H96c0.2,0,0.4,0.1,0.4,0.3c0,0.3-0.1,0.6-0.3,0.8
			c-0.2,0.2-0.5,0.3-0.8,0.3c-0.2,0-0.8-0.1-1.6-0.2c-0.7,0-1.4-0.1-2.1-0.1l0,3.3h3.8c0.2,0,0.3,0.1,0.4,0.3c0,0.3-0.1,0.6-0.3,0.8
			c-0.2,0.2-0.5,0.3-0.9,0.3c-0.2,0-0.7-0.1-1.4-0.2c-0.5,0-1-0.1-1.6-0.1l0,3.6c0.8,0,1.6,0.1,2.5,0.2c1,0.1,1.9,0.1,2.8,0.1
			c0.4,0,0.8,0,1.1-0.1c0.1,0,0.1,0.1,0.1,0.3c0,0.4-0.1,0.9-0.4,1.3c-0.3,0.5-0.5,0.7-0.8,0.7s-0.5-0.1-0.8-0.3c-1.1-0.5-2-0.8-3-1
			c-0.7-0.1-1.6-0.2-2.6-0.2c-1.2,0-2.2,0.1-3.1,0.3c-0.9,0.2-1.8,0.6-2.7,1c-0.3,0.1-0.5,0.2-0.6,0.2c-0.4,0-0.6-0.3-0.6-0.7
			c0-0.3,0.1-0.5,0.3-0.7c0.2-0.2,0.5-0.3,0.8-0.4c2.5-0.4,4.4-0.7,5.6-0.7L90,40.6c-1.3,0-2.2,0.1-2.8,0.2
			c-0.4,0.1-0.6,0.2-0.8,0.2c-0.4,0-0.7-0.2-0.7-0.6c0-0.2,0.1-0.4,0.4-0.6c0.2-0.1,0.5-0.2,0.8-0.2H90l0-3.3
			c-1.2,0-2.2,0.1-2.8,0.2c-0.4,0.1-0.7,0.2-0.8,0.2c-0.2,0-0.3,0-0.4-0.1c-0.2,0.3-0.4,0.6-0.6,0.8c-0.3,0.4-0.6,0.6-0.8,0.6
			c-0.3,0-0.7-0.1-1.1-0.4c-0.4-0.3-0.5-0.6-0.5-0.9c0-0.2,0.2-0.4,0.5-0.4c0.6-0.3,1.2-0.7,1.7-1.2c0.5-0.6,1-1.4,1.5-2.4
			C86.9,32.5,87,32.4,87.1,32.4z"/>
		<path class="st0" d="M109.2,30.6c0.4,0,0.6,0.2,0.6,0.5c0,0.2-0.1,0.4-0.2,0.7c-0.7,0.9-1.5,1.7-2.3,2.4c0.1,0.2,0.1,0.4,0.1,0.6
			c-0.1,1.3-0.1,2.5-0.1,3.6l0,7.4c0,1-0.3,1.5-0.9,1.5c-0.4,0-0.6-0.5-0.6-1.5c0.1-3.2,0.2-5.6,0.2-7.4c0-0.9,0-2,0-3.1
			c-0.3,0.2-0.5,0.4-0.8,0.6c-0.7,0.5-1.2,0.7-1.7,0.7c-0.3,0-0.7-0.2-1.1-0.5c-0.4-0.3-0.5-0.6-0.5-0.9c0-0.2,0.2-0.4,0.5-0.4
			c1.2-0.3,2.4-0.8,3.4-1.4c1.1-0.7,2.2-1.6,3.1-2.8C108.9,30.6,109.1,30.6,109.2,30.6z M118.9,35c0.6,0,0.9,0.3,0.9,0.9
			c0,0.3-0.2,0.5-0.6,0.7c-0.9,0.3-2.1,0.7-3.7,1.1c-1.1,0.3-1.8,0.5-2,0.5c0,0-0.1,0-0.1,0c0,1.6-0.1,3.4-0.1,5.3
			c0,0.4,0.2,0.6,0.5,0.6c0.6,0.1,2.2,0.1,4.7,0.1c1.6,0,3-0.2,4.3-0.6c0.2,0,0.3,0.2,0.3,0.5c0,0.4-0.2,0.9-0.5,1.5
			c-0.4,0.6-0.7,0.9-1,0.9c-0.4,0-3.2-0.3-8.5-0.9c-0.8-0.1-1.2-0.5-1.2-1.1c0.1-2.7,0.2-4.8,0.2-6.2c0-1.6,0-3.3-0.1-5.3
			c0-0.4,0.2-0.6,0.6-0.6c0.6,0,0.9,0.2,0.9,0.7c0,1.2,0,2.5,0,3.9c2.1-0.7,3.8-1.4,5-2C118.7,35,118.8,35,118.9,35z"/>
		<path class="st0" d="M130.8,30.2c0.4,0,0.6,0.2,0.6,0.5c0,0.2-0.1,0.4-0.2,0.6c-0.1,0.2-0.2,0.3-0.3,0.5h4.9
			c0.2,0,0.3,0.1,0.3,0.2c0,0.3-0.1,0.5-0.3,0.7c-0.2,0.2-0.4,0.3-0.8,0.3c-0.1,0-0.4,0-0.8-0.1c-0.3,0-0.7,0-1,0
			c0,0.2,0.1,0.5,0.1,1c0,0.4-0.1,0.6-0.4,0.6c-0.3,0-0.4-0.1-0.5-0.3c-0.3-0.7-0.5-1-0.5-1.2c0,0,0,0,0-0.1c-0.5,0-0.9,0.1-1.2,0.1
			c-0.3,0.1-0.4,0.1-0.5,0.1c-0.1,0-0.2,0-0.2,0c-0.4,0.6-0.8,1.1-1.3,1.6c-0.4,0.4-0.7,0.6-0.9,0.6c-0.3,0-0.7-0.2-1.1-0.5
			c-0.4-0.3-0.5-0.6-0.5-0.9c0-0.2,0.2-0.3,0.5-0.4c0.7-0.2,1.4-0.6,2-1.1c0.7-0.5,1.3-1.2,1.8-2.2
			C130.6,30.3,130.7,30.2,130.8,30.2z M132,35.5h3.9l0-0.3c0-0.5,0.3-0.7,0.8-0.7c0.6,0,0.8,0.2,0.8,0.7l0,0.3h4.6
			c0.2,0,0.4,0.1,0.4,0.3c0,0.3-0.1,0.6-0.3,0.8c-0.2,0.2-0.5,0.3-0.8,0.3c-0.2,0-0.8-0.1-1.8-0.2c-0.7,0-1.4-0.1-2.1-0.1l-0.1,1.5
			c1.3,0,2.6,0.1,4.1,0.3c1.4,0.1,2.7,0.2,4,0.2c0.4,0,0.7,0,1.1-0.1c0.1,0,0.1,0.1,0.1,0.3c0,0.4-0.1,0.9-0.4,1.3
			c-0.3,0.5-0.5,0.7-0.8,0.7c-0.4,0-0.8-0.1-1.2-0.3c-1.5-0.6-2.9-0.9-4.2-1.1c-1-0.1-2.3-0.2-3.7-0.2c-1.7,0-3.1,0.1-4.3,0.3
			c-1.3,0.3-2.6,0.6-3.8,1c-0.4,0.1-0.7,0.2-0.9,0.2c-0.4,0-0.6-0.3-0.7-0.7c0-0.3,0.1-0.5,0.4-0.7c0.2-0.2,0.5-0.4,0.8-0.4
			c3.7-0.5,6.5-0.8,8.2-0.8l-0.1-1.5c-1.6,0-2.8,0.1-3.5,0.2c-0.5,0.1-0.8,0.2-0.9,0.2c-0.5,0-0.7-0.2-0.8-0.6
			c0-0.2,0.2-0.4,0.4-0.6C131.4,35.6,131.7,35.5,132,35.5z M131.2,41.4h7.7c0-0.2,0-0.3,0-0.4c0-0.7,0.3-1,0.8-1
			c0.6,0,0.8,0.3,0.8,0.8c0,0.1,0,0.3-0.1,0.6h2.7c0.2,0,0.4,0.1,0.4,0.3c0,0.3-0.1,0.6-0.3,0.8c-0.2,0.2-0.5,0.3-0.8,0.3
			c-0.3,0-1-0.1-2.1-0.2c0,0.1,0,0.1,0,0.2c0.1,1.1,0.1,2,0.1,2.5c0,0.9-0.4,1.5-1.2,1.7c-0.5,0.1-1,0.2-1.5,0.2
			c-0.4,0-0.6-0.1-0.9-0.3c-0.3-0.3-0.4-0.6-0.4-0.9c0-0.2,0.1-0.3,0.4-0.4c0.8,0,1.4-0.1,1.7-0.2c0.3-0.1,0.5-0.2,0.6-0.3
			c0.1-0.2,0.1-0.5,0.1-0.9c0-0.6,0-1.2-0.1-1.8c-0.8,0-1.6,0-2.5,0c-2.1,0-3.7,0.1-4.6,0.2c-0.6,0.1-0.9,0.2-1.1,0.2
			c-0.4,0-0.7-0.3-0.7-0.7c0-0.2,0.1-0.4,0.4-0.6C130.6,41.4,130.8,41.4,131.2,41.4z M135.1,43.7c0.2,0,0.3,0.1,0.3,0.4
			c0,0.1-0.1,0.3-0.2,0.5c-1.6,1.4-2.5,2.2-2.7,2.2c-0.6,0-0.8-0.2-0.8-0.5c0-0.5,0.1-0.8,0.4-0.9C132,45.2,133.1,44.6,135.1,43.7z
			 M139.5,30.3c0.4,0,0.6,0.2,0.6,0.5c0,0.2-0.1,0.4-0.2,0.6c-0.1,0.2-0.1,0.3-0.2,0.5h4.4c0.8,0,1.6-0.2,2.6-0.5
			c0.2,0,0.3,0.1,0.3,0.4c0,0.4-0.1,0.7-0.3,1.1c-0.2,0.4-0.6,0.5-1,0.5c-1.5-0.2-2.7-0.4-3.5-0.4c0,0.3,0.1,0.6,0.1,1
			c0,0.4-0.1,0.6-0.4,0.6c-0.3,0-0.4-0.1-0.5-0.3c-0.3-0.7-0.5-1.1-0.5-1.2c-0.5,0-1,0.1-1.6,0.2c-0.1,0-0.2,0-0.3,0
			c-0.2,0.3-0.4,0.6-0.6,0.8c-0.2,0.3-0.4,0.4-0.6,0.4c-0.3,0-0.6-0.1-1-0.4c-0.3-0.3-0.5-0.5-0.5-0.8c0-0.2,0.2-0.2,0.5-0.3
			c0.5-0.2,0.9-0.4,1.2-0.8c0.4-0.4,0.8-0.9,1.1-1.5C139.3,30.4,139.4,30.3,139.5,30.3z"/>
		<path class="st0" d="M157.2,41.7c-0.2,0.8-0.5,1.6-0.9,2.5c-0.6,1.3-1.1,1.9-1.5,1.9c-0.5,0-0.9-0.6-1.3-1.9
			c-0.3-1.1-0.5-2.7-0.5-4.8c0-0.8,0.1-2,0.4-3.6c0.3-1.7,0.6-2.8,0.9-3.4c0.2-0.4,0.5-0.6,0.9-0.6c0.5,0,0.8,0.2,0.8,0.7
			c0,0.1-0.1,0.5-0.4,1c-0.4,0.8-0.6,1.7-0.9,2.8c-0.3,1.1-0.4,2.1-0.4,2.8c0,3.1,0.2,4.7,0.7,4.7c0.2,0,0.7-0.8,1.5-2.3
			c0.1-0.2,0.2-0.3,0.3-0.3C157.1,41.4,157.2,41.5,157.2,41.7z M169.3,42.5c0,0.1-0.2,0.5-0.5,1.2c-0.3,0.6-0.6,0.9-1,1.1
			c-0.5,0.2-1.6,0.3-3.4,0.3c-1.4,0-2.6-0.2-3.6-0.6c-1.4-0.6-2.1-1.5-2.1-2.7c0-1.3,0.3-2,0.9-2c0.1,0,0.2,0.1,0.2,0.3
			c-0.2,0.6-0.2,1-0.2,1.2c0,1.4,1.1,2.1,3.3,2.1c0.9,0,2-0.1,3.2-0.3c0.7-0.1,1.3-0.3,1.9-0.5c0.5-0.2,0.8-0.3,1-0.3
			C169.2,42.1,169.2,42.3,169.3,42.5z M167.2,33.8c0,0.2-0.6,0.8-1.8,1.6c-1.2,0.8-1.9,1.2-2.1,1.2c-0.3,0-0.4-0.1-0.4-0.3
			c0-0.1,0.3-0.5,0.8-1c0.5-0.4,0.8-0.8,1.1-0.9c-0.1,0-0.2,0-0.3,0c-1,0-2.1,0.1-3.3,0.3c-1.3,0.2-1.9,0.4-1.8,0.4
			c-0.3,0-0.4-0.2-0.4-0.5c0-0.5,0.2-0.8,0.6-1c0.2,0,0.6-0.1,1.3-0.2c1.6-0.2,3.5-0.2,5.6-0.2C167,33.1,167.2,33.4,167.2,33.8z"/>
		<path class="st0" d="M177.6,30.8l4.7,0.1c0.5-0.1,0.8-0.1,0.9-0.1c0.6,0,0.9,0.2,0.9,0.6c-0.2,0.7-0.3,1.4-0.4,2.2
			c0,0.4,0,1.3,0,2.5c0,0.4-0.2,0.7-0.6,0.7c-0.1,0-0.3,0-0.4-0.1c0,0-0.1,0-0.1,0c-2.1,0-3.7,0.1-4.9,0.2c0,0,0,0,0,0v2.5
			c0,1.5-0.1,2.7-0.2,3.8c-0.2,1-0.4,1.9-0.8,2.7c-0.4,0.7-0.6,1-0.9,1c-0.3,0-0.7-0.2-1.1-0.5c-0.4-0.4-0.7-0.6-0.7-0.8
			c0-0.2,0.1-0.3,0.4-0.4c0.6-0.4,1.1-1.2,1.4-2.2c0.4-1.1,0.5-3.3,0.5-6.6c0-1.6-0.1-3.3-0.3-5.1c0-0.4,0.2-0.6,0.7-0.6
			c0.3,0,0.5,0,0.6,0.1C177.4,30.8,177.5,30.8,177.6,30.8z M177.7,31.8c0,0.1,0,0.2,0,0.3v1.2c0,0,0.1,0,0.1,0h4.7h0
			c0-0.5,0-1,0.1-1.3c0-0.2-0.1-0.3-0.3-0.3C181,31.7,179.5,31.7,177.7,31.8z M177.6,35.8c0,0,0.1,0,0.1,0h4.7c0,0,0-0.1,0-0.1
			c0-0.5,0-1,0-1.5c-2,0-3.6,0.1-4.8,0.2c0,0,0,0,0,0V35.8z M183.5,37.8c0.3,0,0.5,0.2,0.6,0.5c0.1,0.6,0.1,0.9,0.1,1
			c0,0,0,0.1,0,0.1c0.9,0,1.7,0,2.4,0c0-0.2,0.1-0.6,0.2-1.2c0.1-0.2,0.3-0.4,0.6-0.4c0.4,0,0.7,0.2,0.7,0.6c0,0.1,0,0.2-0.1,0.3
			c-0.2,0.3-0.4,0.5-0.5,0.7c0.8,0,1.4,0,1.8-0.1c0.2,0,0.3,0.1,0.3,0.4c0,0.2-0.1,0.3-0.2,0.5c-0.2,0.2-0.4,0.3-0.7,0.3
			c-0.7-0.1-1.6-0.1-2.9-0.2c0,0.1,0,0.2,0,0.3c-0.1,0.4-0.1,0.8-0.2,1.3c0.8,0,1.8,0.1,3.1,0.1c0.3,0,0.5,0,0.7,0
			c0.2,0,0.5,0,0.9-0.1c0.4-0.1,0.6-0.1,0.7-0.1c0.1,0,0.2,0.1,0.2,0.2c0,0.4-0.2,0.7-0.5,1.2c-0.3,0.4-0.6,0.6-0.9,0.6
			c-0.2,0-0.5-0.1-1-0.3c-0.9-0.3-2-0.5-3.4-0.5c-0.1,0.5-0.2,0.9-0.4,1.3c-0.4,0.8-0.9,1.4-1.5,1.8c-0.8,0.6-1.4,0.9-2.1,0.9
			c-0.3,0-0.5-0.1-0.7-0.3c-0.3-0.3-0.5-0.7-0.5-1c0-0.1,0.1-0.2,0.4-0.2c0.7-0.1,1.3-0.2,1.7-0.4c0.7-0.2,1.3-0.8,1.8-1.6
			c0.1-0.2,0.2-0.4,0.3-0.6c-1.6,0-2.8,0.1-3.5,0.4c-0.4,0.1-0.7,0.2-0.9,0.2c-0.3,0-0.5-0.2-0.5-0.6c0-0.2,0.1-0.4,0.3-0.6
			c0.2-0.2,0.3-0.3,0.5-0.3c0.2,0,0.3,0,0.5,0.1c1.4-0.2,2.7-0.2,3.8-0.3c0-0.2,0-0.3,0-0.5c-0.1-0.4-0.1-0.7-0.1-1c0,0,0-0.1,0-0.1
			c-0.2,0-0.4,0-0.6,0c-0.6,0-1.3,0.1-2.4,0.3c-0.4,0-0.6-0.2-0.6-0.5c0-0.2,0.1-0.4,0.3-0.6c0.2-0.2,0.4-0.3,0.6-0.3l0.8,0.1
			c0.3,0,0.6,0,0.9,0c-0.2-0.3-0.3-0.5-0.5-0.7c-0.1-0.1-0.1-0.3-0.1-0.4C182.8,38,183.1,37.8,183.5,37.8z M186.8,44.4
			c0,0,0.1,0,0.1,0c0.7,0.4,1.2,0.7,1.7,0.8c0.3,0.1,0.7,0.2,1.1,0.2c0.1,0,0.2,0.1,0.2,0.3c0,0.2-0.1,0.5-0.4,0.7
			c-0.5,0.4-1,0.5-1.2,0.5c-0.1,0-0.2-0.1-0.3-0.2c-0.2-0.2-0.6-0.8-1.3-1.9c0-0.1-0.1-0.2-0.1-0.2
			C186.5,44.5,186.6,44.4,186.8,44.4z M187.2,30.7c0.2,0,0.4,0,0.6,0.1l4.8,0.1c0.2,0,0.6-0.1,1.1-0.2c0.6,0,0.9,0.2,0.9,0.6
			c-0.3,1.9-0.5,4.2-0.5,6.9c0,1.9,0.1,4.7,0.3,8.2c0,0.6-0.3,0.9-0.8,0.9c-0.2,0-0.4-0.1-0.5-0.4c-0.1-0.3-0.1-0.7-0.1-1.2
			c0-3.5,0-6.5,0.1-9.1c-0.1,0-0.1,0-0.2,0c-0.9-0.1-1.6-0.1-2.2-0.1c-0.7,0-1.4,0-2.2,0.1c-0.4,0-0.7,0.1-1,0.2
			c-0.1,0-0.2,0.1-0.3,0.1c-0.4,0-0.6-0.1-0.6-0.4c0-0.2,0-0.6,0.1-1c0-0.6,0.1-1.1,0.1-1.7c0-0.3,0-0.8-0.1-1.4
			c-0.1-0.6-0.1-1-0.1-1.2C186.6,30.8,186.8,30.7,187.2,30.7z M192.9,35.5c0-0.5,0-1,0-1.4c-2,0-3.6,0.1-4.8,0.2c-0.1,0-0.2,0-0.2,0
			c0,0.3,0,0.7-0.1,1c0,0.2,0.1,0.3,0.3,0.3c0.6-0.1,1.4-0.1,2.3-0.1H192.9z M188,33.2c0.1,0,0.2,0,0.2,0h4.7c0,0,0,0,0,0
			c0-0.4,0-0.8,0-1.2c0-0.2-0.2-0.3-0.7-0.3c-1.6,0-3,0-4.3,0C188.1,32.2,188.1,32.7,188,33.2z"/>
		<path class="st0" d="M218.5,34.4c-0.1,0.3-0.3,0.8-0.7,1.2c-0.4,0.5-0.8,0.8-1.1,0.8c-0.3-0.1-0.8-0.3-1.4-0.6
			c-1.3-0.5-2.8-0.8-4.4-0.9c0,0.9,0,2.2-0.1,4c0.4,1.1,0.6,1.9,0.6,2.4c0,1-0.3,1.9-1,2.8c-0.6,0.8-1.4,1.5-2.3,1.9
			c-1.1,0.6-2,0.8-2.7,0.8c-0.4,0-0.8-0.2-1.2-0.6c-0.4-0.4-0.6-0.8-0.6-1.2c0-0.1,0.2-0.2,0.7-0.3c1.4-0.1,2.4-0.2,3-0.4
			c1.1-0.3,1.9-0.9,2.4-1.8c0.3-0.6,0.5-1.1,0.5-1.5c0,0,0-0.1,0-0.1c0-0.1,0-0.2,0-0.2c-0.3,0.5-0.7,0.9-1.3,1.2
			c-0.6,0.3-1.2,0.5-1.7,0.5c-0.8,0-1.5-0.3-2.2-0.8c-0.6-0.5-1-1.2-1-1.9c0-0.9,0.4-1.5,1.1-2c0.6-0.4,1.4-0.6,2.3-0.6
			c0.7,0,1.3,0.2,2.1,0.6c0-0.4,0-1.3,0-2.8c-2.4,0-4.5,0.3-6.5,0.9c-1.1,0.4-1.7,0.6-1.8,0.6c-0.5,0-0.8-0.3-0.8-0.9
			c0-0.5,0.6-0.9,1.9-1.2c0.8-0.1,1.6-0.2,2.4-0.3c1.4-0.2,3-0.3,4.8-0.3c-0.1-1.5-0.1-2.3-0.1-2.4c0-0.7,0.2-1,0.7-1
			c0.6,0,0.8,0.4,0.8,1.3c0,0.2,0,0.6,0,1.1c0,0.4,0,0.8,0,1c2.7,0.2,5.1,0.3,7.1,0.3C218.3,34.2,218.5,34.3,218.5,34.4z
			 M209.6,39.1c-0.5-0.7-1.2-1-2-1c-0.5,0-1,0.1-1.5,0.4c-0.5,0.3-0.7,0.7-0.7,1.2c0,0.5,0.2,0.9,0.5,1.2c0.4,0.3,0.8,0.4,1.3,0.4
			C208.6,41.3,209.4,40.6,209.6,39.1z"/>
		<path class="st0" d="M238.1,41.5c0,1.7-0.8,3-2.4,3.9c-1.3,0.7-2.8,1.1-4.7,1.1c-0.9,0-1.7-0.2-2.5-0.6c-0.9-0.5-1.4-1.1-1.4-1.9
			c0-1.2,0.7-1.8,2.2-1.8c1.8,0,3.2,0.9,4.3,2.6c0.8-0.3,1.4-0.6,1.9-1.2c0.5-0.6,0.8-1.3,0.8-2.1c0-0.9-0.4-1.6-1.1-2.1
			c-0.6-0.4-1.4-0.6-2.4-0.6c-1.2,0-2.5,0.2-3.8,0.6c-1.4,0.5-2.5,1.1-3.4,1.9c-0.4,0.4-0.7,0.6-0.9,0.6c-0.5,0-0.8-0.3-0.8-0.8
			c0-0.3,0.3-0.7,0.8-1.2l7.8-6.7c0.1-0.1,0.2-0.2,0.3-0.3c-0.1-0.1-0.3-0.1-0.5-0.1c-0.7,0-1.7,0-2.8,0.1c-1.5,0.1-2.3,0.2-2.6,0.3
			c-0.5,0-0.7-0.2-0.7-0.7c0-0.5,0.5-0.7,1.4-0.7c1.7,0,4.1-0.1,7-0.1c0.7,0,1,0.2,1,0.5c0,0.2-0.2,0.5-0.7,0.8
			c-2.6,2-4.9,3.9-6.9,5.6c1.6-0.7,3.3-1,5-1c1.2,0,2.3,0.3,3.2,0.9C237.6,39.4,238.1,40.4,238.1,41.5z M232.3,45.2
			c-0.9-1.4-1.9-2.1-2.9-2.1c-0.8,0-1.2,0.3-1.2,0.9c0,0.8,1,1.3,2.9,1.3C231.3,45.3,231.7,45.2,232.3,45.2z"/>
		<path class="st0" d="M254.5,37c0,0.9-0.4,2.2-1.1,3.7c-0.7,1.4-1.7,2.7-3.2,3.8c-1.5,1.2-2.6,1.8-3.4,1.8c-0.3,0-0.7-0.2-1.2-0.7
			c-0.5-0.4-0.8-0.8-0.8-1.1c0-0.1,0.3-0.2,0.8-0.3c0.8-0.1,1.7-0.5,2.8-1c1.2-0.6,2.3-1.4,3.1-2.5c1-1.2,1.5-2.4,1.6-3.7
			c0-0.8,0.2-1.2,0.6-1.2C254.3,36,254.5,36.3,254.5,37z M261.9,33.5c0,0.6-0.6,1.5-1.9,2.7c-1.3,1.3-2.3,2-2.9,2.2
			c-0.3,0-0.4-0.1-0.4-0.4l1.4-1.6c0.9-1.1,1.3-1.8,1.3-2.2c-0.3-0.1-1.4-0.2-3.3-0.2c-2.2,0-4.3,0.2-6.3,0.6
			c-1.4,0.2-2.1,0.4-2.1,0.4c-0.4,0-0.7-0.3-0.7-0.8c0-0.4,0.1-0.7,0.4-1c0.3-0.3,2-0.4,5.2-0.4h2.6c1.7,0,3.3,0.1,4.8,0.2
			c0.1-0.1,0.4-0.1,0.9-0.1c0.2,0,0.4,0.1,0.6,0.2C261.8,33.1,261.9,33.3,261.9,33.5z"/>
		<path class="st0" d="M281.5,40.2c0,0.3-0.4,0.7-1.1,1.2c-0.8,0.5-1.3,0.8-1.6,0.8c-0.3,0-0.7-0.3-1.2-1c-1.4-1.7-3.1-3-5.1-3.9
			c0,0.9,0,2.3,0,4.2c0,1.8,0.1,3.2,0.1,4.2c0,0.7-0.3,1-0.9,1c-0.5,0-0.7-0.4-0.7-1.2c0-0.7,0-1.8,0-3.2c0-1.4,0.1-2.5,0.1-3.2
			v-4.4c0-0.3,0-0.8-0.1-1.4c0-0.7,0-1.1,0-1.5c0-0.6,0.3-0.9,0.9-0.9c0.5,0,0.8,0.3,0.8,0.9c0,0.5,0,1.2-0.1,2.1s-0.1,1.7-0.1,2.1
			c1.6,0.7,3.2,1.5,5,2.5c1.5,0.8,2.6,1.2,3.5,1.3C281.4,40,281.5,40.1,281.5,40.2z M280,32c0,0.2-0.2,0.4-0.5,0.6
			c-0.3,0.2-0.6,0.3-0.7,0.3c-0.2,0-0.6-0.4-1.1-1.2c-0.5-0.8-0.7-1.4-0.7-1.7c0-0.2,0.1-0.3,0.2-0.3s0.3,0.1,0.4,0.3
			c0.4,0.4,0.7,0.8,1,1C279,31.3,279.5,31.6,280,32z M283,30.9c0,0.1-0.2,0.4-0.5,0.6c-0.3,0.3-0.5,0.4-0.7,0.4
			c-0.3-0.1-0.8-0.5-1.3-1.1c-0.5-0.7-0.8-1.2-0.8-1.5c0-0.1,0-0.2,0.1-0.2c0,0,0.3,0.2,0.8,0.5c0.5,0.3,0.8,0.5,0.9,0.6
			C282,30.5,282.5,30.7,283,30.9z"/>
		<path class="st0" d="M294.6,35.3c0,0.4-0.2,1.3-0.5,2.6c-0.3,1.3-0.8,2.5-1.5,3.6c-1,1.6-1.8,2.4-2.4,2.4c-0.4,0-0.8-0.2-1.3-0.6
			c-0.5-0.4-0.7-0.8-0.7-1.1c0-0.1,0.4-0.3,1.2-0.6c1.2-0.5,2.1-1.3,2.9-2.4c0.7-1,1.2-2.3,1.5-4.1c0-0.4,0.2-0.6,0.5-0.6
			C294.4,34.7,294.6,34.9,294.6,35.3z M307.4,42c0,0.3-0.3,0.7-0.9,1.2c-0.6,0.5-1,0.8-1.3,0.8c-0.9,0-2-1.3-3.3-4
			c-1.2-2.5-1.9-4.2-1.9-5.3c0-0.3,0.2-0.4,0.5-0.4c0.2,0,0.4,0.2,0.5,0.5c0.1,0.2,0.2,0.6,0.4,1.1c0.6,1.3,1.2,2.4,1.8,3.2
			c1,1.2,2,2,3,2.3C306.6,41.6,307,41.8,307.4,42z M305.1,33.5c0,0.2-0.2,0.4-0.5,0.6c-0.3,0.2-0.5,0.3-0.7,0.3
			c-0.3,0-0.6-0.4-1.1-1.2c-0.5-0.8-0.7-1.3-0.7-1.6c0-0.2,0-0.3,0.1-0.3c0.1,0,0.3,0.1,0.4,0.3c0.7,0.8,1.3,1.4,2,1.6
			C304.8,33.2,305,33.4,305.1,33.5z M308.1,32.4c-0.1,0.2-0.2,0.4-0.5,0.7c-0.3,0.2-0.5,0.4-0.7,0.4c-0.3-0.1-0.8-0.5-1.3-1.2
			c-0.6-0.7-0.9-1.2-0.9-1.5c0-0.1,0.1-0.2,0.2-0.2c0,0,0.3,0.2,0.8,0.5c0.5,0.4,0.8,0.6,0.9,0.6C307.1,32,307.6,32.2,308.1,32.4z"
			/>
		<path class="st0" d="M327.1,32c0,0.5-0.7,1.4-2,2.6c-1.1,1-2,1.7-2.8,2.2c0,1.8,0,3.6,0,5.2c0,0.3,0,0.9,0.1,1.8
			c0.1,0.8,0.1,1.4,0.1,1.8c0,0.8-0.2,1.3-0.6,1.3c-0.7,0-1-0.4-1-1.3c0-3.7,0-6.4,0.1-8c-3,1.5-5.3,2.2-6.9,2.2
			c-0.4,0-0.9-0.2-1.3-0.6c-0.4-0.4-0.6-0.9-0.6-1.3c0-0.2,0.3-0.3,0.8-0.4c0.3,0,0.7,0,1.2,0c2.8-0.2,5.2-0.8,7.2-2
			c1.9-1.1,3.2-2.2,4-3.3c0.4-0.6,0.8-0.9,1.2-0.9C326.9,31.3,327.1,31.5,327.1,32z"/>
		<path class="st0" d="M350.8,43.4c-0.1,0.3-0.4,0.7-1,1.2c-0.6,0.5-1.1,0.7-1.4,0.7c-0.3,0-0.9-0.6-1.8-1.8c-0.9-1.2-2.3-2.3-4-3.5
			c-1.9,1.9-3.6,3.3-5.2,4.1c-1.3,0.7-2.2,1-2.6,1c-0.3,0-0.7-0.2-1.2-0.6c-0.4-0.4-0.6-0.8-0.6-1.1c0-0.2,0.2-0.3,0.6-0.4
			c4.1-0.7,7.5-3,10.4-6.8c0.4-0.5,0.6-0.8,0.8-1.1c0.4-0.6,0.6-1,0.6-1.1c-0.1,0-0.7-0.1-1.8-0.1c-2.4,0-4.2,0.1-5.6,0.4
			c-0.7,0.2-1.2,0.2-1.5,0.2c-0.4,0-0.5-0.2-0.5-0.7c0-0.3,0.2-0.6,0.6-0.8c0.4-0.2,1.7-0.3,4-0.3h3.3c0.7,0,1.2,0,1.5,0.1
			c0.2-0.1,0.5-0.1,0.9-0.1c0.6,0,0.8,0.2,0.8,0.6c0,0.4-0.5,1.4-1.6,2.9c-0.8,1.2-1.6,2.2-2.2,2.9l4,2.5c1,0.7,1.8,1,2.4,1.2
			c0.2,0,0.4,0.1,0.6,0.1C350.6,43.1,350.8,43.2,350.8,43.4z"/>
		<path class="st0" d="M371.7,36.3c0,0.3-0.3,0.6-0.9,1c-1.4,0.9-3.4,2-6,3.4c0,0.1,0,0.4,0,0.8c0,0.3,0,0.6,0,0.8
			c0,0.5-0.3,0.7-0.8,0.7c-0.3,0-0.5-0.2-0.6-0.6c0-0.1,0-0.4,0-1c-1,0.5-1.6,0.8-1.9,1.1c-0.8,0.6-1.2,1.1-1.2,1.7
			c0,0.4,0.4,0.6,1.2,0.8c0.6,0.1,1.2,0.2,1.8,0.2c1.7,0,3.3-0.3,4.7-0.8c1.1-0.4,1.6-0.6,1.7-0.6c0.1,0,0.2,0.1,0.2,0.4
			c0,0.5-0.2,1-0.5,1.5c-0.2,0.4-0.9,0.6-1.9,0.8c-0.8,0.1-1.7,0.1-2.7,0.1c-1.3,0-2.4-0.1-3.4-0.4c-1.5-0.4-2.2-1.1-2.2-2
			c0-0.8,0.6-1.6,1.7-2.4c0.2-0.2,1.1-0.7,2.6-1.7c0-0.9-0.1-1.4-0.1-1.6c-0.2-0.6-0.6-0.9-1.2-0.9c-0.9,0-1.6,0.2-2.2,0.5
			c-0.3,0.1-0.9,0.6-1.9,1.4c-0.1,0.1-0.3,0.2-0.5,0.3c-0.4,0-0.7-0.3-0.7-0.9c0-0.4,0.5-0.9,1.4-1.4c1.3-0.8,2.5-1.8,3.5-3.2
			c-0.5,0.1-1.3,0.2-2.3,0.3c0,0-0.3,0.1-0.9,0.2c-0.4,0.1-0.7,0.2-0.9,0.2c-0.4,0-0.6-0.2-0.6-0.7c0-0.6,0.5-0.9,1.4-1
			c0.9,0,2.2-0.1,3.9-0.1c0.2-0.3,0.5-0.9,0.9-1.9c0.2-0.5,0.5-0.7,0.9-0.7c0.5,0,0.8,0.2,0.8,0.7c0,0.2-0.3,0.8-1,1.9
			c0.5,0,1.2,0,2.3,0c1,0,1.8,0,2.3,0c0.1,0,0.3,0,0.6,0c0.2,0,0.4-0.1,0.6-0.1c0.1,0,0.2,0.1,0.3,0.2c0,0.3-0.2,0.6-0.5,1
			c-0.3,0.4-0.6,0.6-0.9,0.6c-0.3,0-0.6-0.1-0.9-0.2c-0.3-0.1-0.6-0.1-0.9-0.2c-0.7-0.2-1.8-0.3-3.3-0.3c-0.8,1-1.5,1.9-2.2,2.6
			c0.6-0.1,1.1-0.1,1.6-0.1c1.3,0,2.1,0.8,2.2,2.3c0,0.2,0,0.3,0.1,0.4c2.1-1.3,3.9-2.4,5.2-3.3c0.4-0.3,0.8-0.4,1.1-0.4
			C371.5,35.6,371.7,35.8,371.7,36.3z"/>
		<path class="st0" d="M387.1,41.2c0,0.5-0.5,1.4-1.6,2.7c-1.1,1.3-2,2-2.6,2c-0.6,0-1.2-0.4-1.9-1.1c-1.2-1.4-1.8-3.9-1.8-7.6
			c0-1.9,0.1-3,0.3-3.5c0.2-0.3,0.4-0.5,0.8-0.5c0.5,0,0.8,0.2,0.8,0.7c0,0-0.1,0.5-0.2,1.3c-0.2,1.4-0.3,2.7-0.3,3.9
			c0,1.5,0.3,2.7,0.8,3.6c0.5,0.8,1,1.2,1.5,1.2c0.5,0,1.2-0.5,2.3-1.5c1-1,1.6-1.5,1.7-1.5C387,40.8,387.1,40.9,387.1,41.2z
			 M396.2,40.5c0,0.3-0.3,0.7-0.8,1.2c-0.5,0.4-0.9,0.6-1.2,0.6c-0.5,0-1.3-0.8-2.3-2.4c-1-1.6-1.6-2.8-1.6-3.3
			c0-0.2,0.1-0.3,0.3-0.3c0.2,0,0.5,0.3,1,1c0.5,0.7,1.2,1.3,1.9,1.8c0.7,0.6,1.4,1,1.9,1.1c0.2,0,0.3,0.1,0.4,0.1
			C396,40.3,396.1,40.4,396.2,40.5z"/>
		<path class="st0" d="M412.6,34.1c0,0.2-0.1,0.4-0.3,0.7s-0.3,0.5-0.5,0.5c-1.1-0.2-2-0.3-2.8-0.3c-0.1,0-0.3,0-0.5,0
			c-0.2,0-0.4,0-0.5,0c-0.4,1.7-0.8,3.3-1.4,4.7c-1.6,4.1-2.9,6.1-3.8,6.1c-0.3,0-0.6-0.1-1-0.2c-0.5-0.2-0.7-0.4-0.7-0.6
			c0-0.1,0.3-0.5,1-1.2c1.1-1.1,2.1-2.5,3-4.1c0.9-1.6,1.5-3.2,1.8-4.6c-1.5,0.1-2.9,0.3-4.1,0.7c-0.4-0.1-0.6-0.2-0.6-0.6
			s0.1-0.5,0.2-0.7c0.1-0.2,0.9-0.3,2.2-0.5c0.8-0.1,1.6-0.2,2.4-0.2c0.1-0.6,0.2-1.4,0.2-2.1c0-0.6,0.3-0.9,0.7-0.9
			c0.4,0,0.7,0.2,0.7,0.6c0,0.2-0.1,1-0.4,2.3c2.1-0.1,3.4-0.2,3.7-0.2S412.6,33.8,412.6,34.1z M419,43.7c0,0.4-0.1,0.8-0.4,1.4
			c-0.3,0.5-0.8,0.9-1.5,1.1c-0.4,0.1-1,0.1-1.9,0.1c-4.1,0-6.1-1-6.1-3c0-0.3,0.1-0.6,0.2-0.9c0.1-0.4,0.3-0.6,0.6-0.6
			c0.3,0,0.4,0.1,0.4,0.4c0,0.1,0,0.3-0.1,0.5c0,0.2-0.1,0.4-0.1,0.5c0,0.9,0.8,1.4,2.3,1.4c2.4,0,4.4-0.4,5.8-1.1
			c0.4-0.2,0.6-0.3,0.6-0.3C418.9,43.2,419,43.4,419,43.7z M416.8,37.4c-0.1,0.2-0.6,0.7-1.5,1.4c-0.9,0.7-1.6,1.1-1.9,1.2
			c-0.1,0-0.2-0.1-0.2-0.3c0-0.2,0.2-0.5,0.6-0.9c0.3-0.2,0.6-0.5,0.8-0.8c-0.1,0-0.3,0-0.6,0c-1.1,0-2,0.1-2.7,0.2
			c-0.9,0.2-1.3,0.3-1.3,0.3c-0.3,0-0.5-0.1-0.5-0.4c0-0.3,0.1-0.5,0.3-0.7c0.4-0.4,1.9-0.6,4.6-0.6h0.9
			C416.2,36.8,416.7,37,416.8,37.4z"/>
		<path class="st0" d="M439.1,41.5c0,0.5-0.1,1-0.4,1.6c-0.4,1-1.6,1.9-3.6,2.5c-1.6,0.5-3.1,0.8-4.5,0.8c-1.7,0-2.8-0.7-3.4-2.1
			c-0.4-0.9-0.5-3.2-0.5-6.8c0-3.6,0.1-5.6,0.3-5.8c0.2-0.2,0.5-0.4,0.8-0.4c0.6,0,0.9,0.4,0.9,1.1c0,0.2-0.1,0.9-0.2,2.1
			c-0.2,1.9-0.3,3.7-0.3,5.3c0,1.4,0,2.3,0.1,2.6c0.1,1.2,0.4,2,0.9,2.3c0.4,0.2,0.8,0.3,1.4,0.3c1.2,0,2.5-0.3,3.9-1
			c1.3-0.6,2.4-1.4,3.4-2.3c0.6-0.6,1-0.9,1-0.9C439,40.8,439.1,41,439.1,41.5z"/>
		<path class="st0" d="M462.2,44.3c-0.1,0.3-0.3,0.7-0.8,1.2c-0.4,0.5-0.8,0.8-1.1,0.8c-0.4,0-1-0.3-2-0.9c-0.6-0.4-1.2-0.8-1.7-1.2
			c-0.5-0.3-1.1-0.6-2-0.9c-0.2,2-1.4,3-3.7,3c-0.9,0-1.6-0.2-2.3-0.6c-0.8-0.4-1.2-1.1-1.2-1.9c0-0.9,0.4-1.5,1.3-1.9
			c0.7-0.3,1.5-0.5,2.4-0.5c0.6,0,1.4,0.1,2.2,0.3c0-0.4,0-0.9,0-1.5c0-0.8,0-1.3,0-1.5c0,0,0,0,0-0.1c0-0.1,0-0.1,0-0.1
			c-1.6,0.1-2.9,0.2-3.9,0.4c-0.1,0-0.2,0-0.4,0.1c-0.2,0.1-0.3,0.1-0.4,0.1c-0.4,0-0.6-0.2-0.6-0.7c0-0.5,0.4-0.9,1.3-0.9
			c0.7-0.1,2-0.2,3.8-0.2c0-0.8,0-1.8,0-3c-1.3,0-2.1,0.1-2.3,0.1c-0.9,0.1-1.6,0.2-2.3,0.3c-0.6,0.2-0.9,0.2-1,0.2
			c-0.5,0-0.8-0.3-0.8-0.9c0-0.2,0.1-0.4,0.2-0.5c0.2-0.2,2.2-0.3,6.1-0.3c0-1.1-0.1-1.8-0.1-1.9c0-0.6,0.3-0.9,0.8-0.9
			c0.6,0,0.9,0.3,0.9,0.9c0,0.5,0,1.2-0.1,1.9c2.9,0.1,4.9,0.2,5.8,0.2c0.4,0,0.5,0.1,0.5,0.2c0,0.3-0.1,0.6-0.4,1
			c-0.3,0.4-0.5,0.6-0.7,0.6c0.1,0-0.3-0.1-1.2-0.4c-0.9-0.2-2.2-0.4-4.1-0.5c0,1,0,2,0,2.9c1.8,0,3.4,0.1,4.8,0.3
			c0.1,0,0.2,0,0.3,0.1c0,0,0.1,0.1,0.1,0.2c0,0.3-0.1,0.5-0.3,0.8c-0.2,0.3-0.4,0.5-0.6,0.5c0,0-0.6-0.1-1.5-0.3
			c-0.8-0.2-1.8-0.2-2.9-0.3c0,0.2,0,1.3-0.1,3.6c1.5,0.4,2.9,0.9,4.2,1.4c0.9,0.3,1.8,0.5,2.8,0.6C462,44,462.1,44.1,462.2,44.3z
			 M453.3,42.8c-1-0.3-1.8-0.4-2.4-0.4c-1.6,0-2.5,0.5-2.5,1.4c0,0.4,0.3,0.8,0.9,1c0.4,0.2,0.9,0.3,1.4,0.3c0.8,0,1.4-0.2,1.8-0.6
			C452.9,44.2,453.2,43.6,453.3,42.8z"/>
		<path class="st0" d="M486.2,34.4c-0.1,0.3-0.3,0.8-0.7,1.2c-0.4,0.5-0.8,0.8-1.1,0.8c-0.3-0.1-0.8-0.3-1.4-0.6
			c-1.3-0.5-2.8-0.8-4.4-0.9c0,0.9,0,2.2-0.1,4c0.4,1.1,0.6,1.9,0.6,2.4c0,1-0.3,1.9-1,2.8c-0.6,0.8-1.4,1.5-2.3,1.9
			c-1.1,0.6-2,0.8-2.7,0.8c-0.4,0-0.8-0.2-1.2-0.6c-0.4-0.4-0.6-0.8-0.6-1.2c0-0.1,0.2-0.2,0.7-0.3c1.4-0.1,2.4-0.2,3-0.4
			c1.1-0.3,1.9-0.9,2.4-1.8c0.3-0.6,0.5-1.1,0.5-1.5c0,0,0-0.1,0-0.1c0-0.1,0-0.2,0-0.2c-0.3,0.5-0.7,0.9-1.3,1.2
			c-0.6,0.3-1.2,0.5-1.7,0.5c-0.8,0-1.5-0.3-2.2-0.8c-0.6-0.5-1-1.2-1-1.9c0-0.9,0.4-1.5,1.1-2c0.6-0.4,1.4-0.6,2.3-0.6
			c0.7,0,1.3,0.2,2.1,0.6c0-0.4,0-1.3,0-2.8c-2.4,0-4.5,0.3-6.5,0.9c-1.1,0.4-1.7,0.6-1.8,0.6c-0.5,0-0.8-0.3-0.8-0.9
			c0-0.5,0.6-0.9,1.9-1.2c0.8-0.1,1.6-0.2,2.4-0.3c1.4-0.2,3-0.3,4.8-0.3c-0.1-1.5-0.1-2.3-0.1-2.4c0-0.7,0.2-1,0.7-1
			c0.6,0,0.8,0.4,0.8,1.3c0,0.2,0,0.6,0,1.1c0,0.4,0,0.8,0,1c2.7,0.2,5.1,0.3,7.1,0.3C485.9,34.2,486.1,34.3,486.2,34.4z
			 M477.2,39.1c-0.5-0.7-1.2-1-2-1c-0.5,0-1,0.1-1.5,0.4c-0.5,0.3-0.7,0.7-0.7,1.2c0,0.5,0.2,0.9,0.5,1.2c0.4,0.3,0.8,0.4,1.3,0.4
			C476.3,41.3,477.1,40.6,477.2,39.1z"/>
		<path class="st0" d="M497.7,44.9c0,0.8-0.3,1.5-0.8,2c-0.5,0.5-1.2,0.8-2,0.8c-0.8,0-1.5-0.3-2-0.8c-0.6-0.6-0.8-1.2-0.8-2
			s0.3-1.5,0.8-2c0.6-0.6,1.2-0.9,2-0.9c0.8,0,1.5,0.3,2,0.9C497.4,43.4,497.7,44.1,497.7,44.9z M496.8,44.9c0-0.5-0.2-1-0.6-1.4
			c-0.4-0.4-0.8-0.6-1.4-0.6c-0.5,0-1,0.2-1.4,0.6c-0.4,0.4-0.6,0.9-0.6,1.4s0.2,1,0.6,1.4c0.4,0.4,0.9,0.6,1.4,0.6
			c0.5,0,1-0.2,1.4-0.6C496.6,45.9,496.8,45.5,496.8,44.9z"/>
	</g>
</g>
</svg>
