<?xml version="1.0" encoding="utf-8"?>
<!-- Generator: Adobe Illustrator 24.0.3, SVG Export Plug-In . SVG Version: 6.00 Build 0)  -->
<svg version="1.1" id="レイヤー_1" xmlns="http://www.w3.org/2000/svg" xmlns:xlink="http://www.w3.org/1999/xlink" x="0px"
	 y="0px" viewBox="0 0 154.5 120" style="enable-background:new 0 0 154.5 120;" xml:space="preserve">
<style type="text/css">
	.st0{fill:#418E8B;}
	.st1{fill:#FFFFFF;}
</style>
<g>
	<g>
		<g>
			<g>
				<g>
					<g>
						<path class="st0" d="M123.4,46.7c0.4,1,0,2.2,0.4,2.8c0.2,0.3,0.4,0.4,1.2,0.2c0.7-0.2,1-0.2,1,0.1c0.1,0.7,0.4,2,0.6,1.9
							c0.1,0,0.1-0.2,0.1-0.7c0-1.7-0.3-3.9,0.1-5c0.4-1.1,1.2-1.9,1.9-2c0.6-0.1,1.5,0,2.3-1.4c0.7-1.4-0.4-0.8,0.2-1.7
							c0.3-0.4,1.6,0,1.3-1c-0.3-1,0.6-1.1,0.6-1.8c0-0.7,0-1.4,1.4-1.7c0.4-0.1,1.4-1.3,1.6-2.1c0.1-0.8,1.4-1.2,2.2-1.4
							c0.9-0.2,2.5,0.3,3.6-2c0.9-1.9,2.3-1,3-1.3c0.3-0.1,1.1-1.4,1.1-2.5c-0.3,0.4-0.9,0.5-1.4,0.9c-0.8,0.5-2.9,0.8-3.5,0.2
							c-0.6-0.5-1.2-0.8-1.9-1.3c-0.4-0.3-0.8-0.9-1.2-1.5c-0.3,0.2-1.1,0.6-1.6,1.2c-0.4,0.5-0.4,1.4-0.6,1.7
							c-0.7,0.9-1.1,1-1.1,1.9c-0.1,1.1-1.4,2.6-2.1,3.6c-0.7,1-1.1,1.9-1.9,2.8c-1.3,1.4-0.3,2.2-0.9,3c-0.8,1-3.6,3.2-4.3,4
							C124.3,44.9,123,45.8,123.4,46.7z"/>
						<path class="st0" d="M16,79.9c0-0.9,0.4-1.7,0.6-1.6c0.5,0.1,2,2.4,2.4,1.6c0.1-0.3-0.1-0.9,0.1-1.5c0.1-0.3,1.2-1.8,1.9-2.8
							c0.5-0.8,2.5-2.1,2.5-2.6c-0.1-1.1-1-2.4-1.7-3.3c-0.2-0.3-0.4-0.6-0.6-1c-0.5-0.7-1-1.6-1.6-2.1c-0.3-0.2,0.4-2.1,0.6-3
							c0.1-0.5,1.4-0.4,2-0.6c0.5-0.2,0.2-0.9,0.6-0.9c0.5,0,1,0.5,1.4,1c0.4,0.4,1,1,1.6,1.5c1.2,0.9,1.9,1.5,2.6,1.8
							c0.5,0.3,0.5,1.1,1.2,0.9c0.4-0.1,1-0.5,1.1-0.7c0.1-0.1,0.3,0.4,0.6,0.3c0.5-0.2,1-1.1,2.3-0.8c0.5,0.1,0,0.9,0,1.1
							c0.1,0.2,1.5,0.8,2.5,1.3c0.5,0.3,1.1,0.1,1.5,0c1.8-0.6,1.9-1.3,2.6-2.1c0.7-0.7,1.8-2.3,1.6-4.3c-0.1-1.3-0.2-2.7-1.3-4.4
							c-0.1-0.5,0.1-0.8,0.2-1.4c-0.2-0.9-0.5-1.4-0.5-1.8c-0.1-1.4-0.6-2.1-0.5-2.7c0.1-0.6,0.8-2,1.3-2.2c0.5-0.3,1.9-1.1,2.6-1.3
							c1.1-0.2,1.9-2.7,2.1-4.3c0.2-2,0.2-2.9,0-4c-0.2-1.2-0.2-4.7-0.2-4.7c0.1-0.4,1.2-2.7,1.8-4.2c0.6-1.5,1-5.3,0.9-6.3
							c-0.1-1.2-0.7-4.3-1.2-5.8c-0.3-1-1.2-3.1-1.8-4.9c-0.6-1.8-1.8-3.8-1.8-6c0-1.5,1.5-2.9,1.3-3.7c-0.5-1.8-0.4-2.2,0-2.5
							c0.4-0.1,0.6,0.9,1.1,1.3c0.5,0.1,1.1-0.2,1.6-0.2c1-0.1,1.5-0.5,1.5-0.9c0.1-0.7,0.8-1.8,1.1-2.2C50.5,0.1,50.8-0.1,51,0
							c0.2,0.1,0.5,0.8,0.7,1c0.6,0.6,0.8,1.5,1.1,1.7c0.6,0.6,1.5,1.3,2.6,2.1c0.3,0.2,0.9,1.3,1.3,1.8c0.5,0.6,1.4,1.6,1.9,2.3
							c0.4,0.7,1.4,2.2,2.2,2.9c0.5,0.4,1.5,1.4,1.8,1.7c0.5,0.5,1.2,2.4,1.7,3.5c0.2,0.3,0.8,0.6,1.1,1.1c0.3,0.4,0.9,1.9,1.6,2.9
							c1,1.3,1.9,2.3,2.8,3.1c0.8,0.7,1.7,2.3,2.7,3.2c0.6,0.5,1.4,0.7,1.8,0.9c0.2,0.1,1,1.1,1.9,1.7c2.1,1.5,4.9,4,7,5.2
							c2.8,1.6,3.3,1.7,4.5,2.1c0.8,0.2,1.2,0.4,1.2,0.7c0,0.2-0.9,0.1-1.6,0.1c0.8,0.8,1.5,2.3,2.3,2.4c0.3,0,1-0.2,1.7-0.2
							c0.6,0,1.3,0.2,1.5,0.1c0.4-0.3,0-0.9-0.8-1c-0.6-0.1-2.4-0.9-2.5-1.4c1.1,0.2,3.4,0.9,4.1,1.1c1,0.3,2.8,0.6,3.5,0.9
							c-0.5,0.6-0.9,0.5-0.9,1.1c0.1,1.2,1.6,0.7,1.8,0.1c0.1-0.5,0.1-0.6,0-1.2c0-0.2,0.7,0,1.2,0c0.1,1.3,0.6,2.9,1.5,3.2
							c0.3,0.1,1.8,1.4,3.4,1.7c2.3,0.4,5.5,0.1,6.3-0.3c1.5-0.9,2.1-1.8,3.3-3.5c0.7-1.1,3.2-3.4,4.1-4.2c1.1-1,2.1-2.6,2.6-3.6
							c0.6-1.2,0.4-1,0.7-1.3c0.1,0.2,0.2,0.4,0.4,0.7c0.3,0.5,0.6,1.1,0.6,1.6c-0.1,1-0.3,1.6-0.9,2.6c-0.7,1.2-1.2,2.5-1.4,3.7
							c-0.2,0.8-1.1,1.4-1.6,2.4c-0.7,1.2-1,2.7-1,4c0,0.5-0.7,0.9-0.6,1.6c0,1.1,0.9,2.3,1.3,2.8c0.7,0.8,1.5,1.4,3.3,1.9
							c0.6,0.2,1.1,0.5,1.6,1c0.6,0.5-0.8,1.6-0.8,1.1c0-0.2,0.5-0.5,0.3-0.8c-0.2-0.2-0.6-0.5-1.1-0.4c-0.4-0.2-0.7-0.5-1.2-0.8
							c-0.1-0.1-0.3,0.2-0.4,0.3c0.4,0.7,1.2,2.2,1.6,3.6c0.4,1.3,0.5,2.5,1.1,3c0.4,0.3,1.8,1.8,1.9,2c-0.8,0.1-1.5-1.4-2.8-1.1
							c-0.3,0.1,1.4,0.9,1.7,1.2c0,0.4,0.9,1,1.5,0.9c0.2,0,0.2-0.2-0.2-0.7c1.3,0.4,1.9,0.4,2,0.3c0.4-0.2,1.4-1.7,2.3-2.6
							c0.4-0.4,0.6-0.7,1.5-0.9c0.8-0.2,1.7-0.3,2.4-0.1c0.1,0.8-0.4,1.2-1.2,1.6c-0.6,0.4-1.8,0.8-2.3,1c-0.4,0.5-1,0.9-1.1,1.2
							c-0.3,0.5-0.1,1-0.3,1.4c-0.2,0.5-0.3,0.9-0.6,1.5c-0.3,0,0-0.2-1.1-0.5c-0.5-0.1-1.7,0.3-2.7,0.6c-0.8,0.2-1.7,0.9-2.1,1.1
							c-0.9-0.1-2.3,0.1-2.3,0.9c0,0.4,0.7,0.6,1.2,0.9c0.1,0.1-0.5,0.1-1.3,0.3c-0.4,0.1-1.9,1.4-1.6,2.1c-0.4,0.3-1.9,0.4-2.8,0.4
							c-0.6-0.2-1-1.1-1.1-1.5c1.2,0.7,2.4,0.5,1.6-0.5c-0.3-0.3-2.1-1.1-1.6,0.2c-0.1,0.1-0.2,0.2-0.4,0.3c-0.2,0-0.7-0.6-1.5,0.7
							c-0.5,0.9,0.6,1.8,0.9,2.1c-0.9,0.5-1.4,0.6-2,0.4c-1.8-0.5-2.3-0.4-4-0.2c-1.3,0.2-2-0.5-2.6-0.6c-0.4-0.1-0.3-1.1-1.4-1.1
							c-0.8,0-3.1,1-3.8,1.4c-1.2,0.7-3.4,1.9-5.1,3.6c-1.6,1.6-3.1,3.3-3.9,4.4c-0.3,0.5-0.9,1.1-1.2,1.6c-1.4,1.9-2.7,3.9-3.6,5.4
							c-0.8,1.2-1.4,2.7-2,4.3c-0.4,0.9,0.2,3.2,0.3,4.6c0,1.4-0.2,3.3-0.6,4c-0.5,0.8-0.6,1.8-0.6,2.7c-2.1-0.9-2-2.4-4.2-3.9
							c-0.5-0.3-1.8-1-3.1-1.5c-0.9-0.4-1.9-0.6-2.4-0.7c-1.9-0.7-3.1-1.6-6-3c-3.1-1.5-5.4-3.7-6.2-4.6c-1.1-1.5-2.3-1.6-3.4-1.7
							c-0.2,0-0.9-0.5-1.9-1.2c-1-0.7-2.3-2.3-3.6-2.6c-1.3-0.3-2.5-0.6-3.9-0.3c-0.9,0.2-3.3,1.3-5.3,2.4c-1.5,0.8-1.6,1.7-2.5,2.2
							c-0.8,0.5-1.5,0.9-2.2,1.4c-0.5,0.4-0.7,0.7-0.9,1.1c-0.4,0.7-1.1,1.9-1.4,2c-0.4,0.3-1.5,0.1-1.6-0.3c-0.3-0.9,0.9,0.1,1-0.4
							c0.1-0.5-1.1-0.8-1.5-1c-0.3-0.2,0-0.9-0.9-2.2c-0.6-0.8-1.3-1.3-2.2-1.4c-0.3-0.6-0.5-2.4-1.9-2.4c-0.8,0-1.4,0.1-2.2,0.4
							c-0.3,0.1-0.5-0.3-0.8-0.3c-0.4,0-1.5-0.3-2.4,0.6c-0.6,0.6-1.6,1.9-1.9,2.8c-0.4,0.9-0.8,1.9-1,3.2c-0.2,1.3-0.4,2.8,0.6,3.1
							c1,0.3,1.7,0.6,2.9,1.7c1.2,1,2,2.1,2.6,2c0.7-0.1,2.6-0.6,3.5,0c0.8,0.5,1.2,1.7,1.9,2.5c0.6,0.6,0.7,0.5,1.1,0.9
							c0.7,0.6,1.1,1.8,1.6,2.1c0.2,0.2,0.7,0.8,1.2,0.8c1,0,1.9,0.7,2.3,1.1c0.2,0.2,0.6,0.5,0.8,1.1c0.1,0.4,0.6,0.4,0.5,0.7
							c-0.1,0.2-0.6,0.3-1.2,0.6c-1.1,0.5-1.7,2.3-2.1,2.4c-1,0.4-1.6,0.5-1.6,0.4c0-0.4,0-0.7-0.2-1c-0.2-0.3-0.7-0.6-1.2-0.8
							c-0.6-0.3-1.7-0.6-2.4-0.6c-1,0.1-1,0.4-1.6,0.4c-0.1,0-0.2-0.3,0.6-0.9c0.3-0.2-0.6-0.6-1.3-1c-0.3-0.1-1,0.3-1.3,1.1
							c-0.8,1.8-1.8,2.1-2.9,2.5c-1,0.4-0.9,2.3-0.8,4c0.1,1.9-3.2,1.7-3.7,2.4c-0.3,0.4-0.9,2.2-1.4,2.3c-0.1,0-1-0.8-1.7-0.9
							c-0.6-0.1-1.3,0.2-2-0.8c-0.3-0.4-0.6-1.1-0.8-2.3c-0.1-1.2-0.2-1.3-0.1-2.3c0.1-0.7,0.5-1.3,0.6-2.4c0-0.5,1.5-2.2,1.5-3.3
							c0-0.1,0.7-0.8,0.9-1.4c0.2-0.7,0.5-1.8,0.2-2.9c-0.1-0.4-1-3.8-2.2-4.4c-1.4-1.4-2.4-0.4-2.7-1.6c-0.2-0.7-0.5-1.5-1.9-1.9
							c-0.5-0.1-0.6-1.3-1-2.6c-0.2-0.8,0.9-2.4,1.7-3c0.5-0.3,0-1.8-0.3-2.9C9,86,8.9,85.3,9.1,84.6c0.4-1.2,1.4-2,1.9-2.2
							c0.7-0.3,1.9-0.1,2.5-0.4c0.8-0.5,1-0.8,1.2-0.9C15.5,80.7,16,80.2,16,79.9z"/>
						<path class="st0" d="M34.9,8.6c0.1-0.6,0.8-0.8,1.5-1c0.6,0.5,1.7,1.1,2.1,1.4c0.4,0.4,0.4,1,0.3,1.7
							c-0.2,0.7-0.6,1.1-1.2,1.3c-0.3,0.1-2.2-0.7-2.3-1.2C35.2,10.4,34.9,8.9,34.9,8.6z"/>
						<path class="st0" d="M32.5,6.2c-0.2-0.4-0.5-0.9-0.6-1.4c-0.2-1,0-0.9-0.1-1.5c-0.1-0.3-0.4-0.7-0.3-0.9
							c0.1-0.2,0.6,0.2,1.1,0.6C32.8,3,33,2.3,33.2,2.5c0.3,0.4,0.1,1.2,0.2,1.7c0.2,0.9,0.2,1.3,0.1,1.9c-0.1,0.6,0,0.8-0.5,1
							C32.7,7.2,32.7,6.6,32.5,6.2z"/>
						<path class="st0" d="M135.2,57.9c0.1,0.2-0.5,0.2-0.8,0.3c-0.4-0.1-0.1-0.5-0.7-1c-0.1-0.1,0.1-0.3,0.7-0.1
							c0.2,0.1,0.6-0.2,0.7-0.1C135.1,57.2,135,57.7,135.2,57.9z"/>
						<path class="st0" d="M137.6,54.5c0.4-0.2,0.5-0.4,1.2-0.5c0.5-0.1,0.6,0.1,1.3,0.4c-0.4,0.3,0.1,1-0.2,1.2
							c-0.4,0.4-1.2,0.9-1.4,0.5C137.8,55.3,137.5,54.6,137.6,54.5z"/>
						<path class="st0" d="M141.9,51.6c-0.1-0.1,0-0.1,0.1-0.4c0.1-0.3,0.5-0.4,0.8-0.2c0.3,0.2,0.5,0.3,0.2,0.5
							C142.8,51.6,142.2,51.6,141.9,51.6z"/>
						<path class="st0" d="M1.4,95.9c0.7,0.1,1.6-0.4,2.1-0.6c0.1,0.5-0.7,1.5-0.9,2.6c-0.1,0.4-0.2,1-0.2,1.3
							c-0.1,0.9-1.5,1.8-1.8,1.6c-0.3-0.2-0.6-2-0.5-3.3c0-0.8,0.2-1.1,0.6-1.8C0.7,95.4,0.8,95.8,1.4,95.9z"/>
						<path class="st0" d="M152.3,43.6c0.4-0.3,0.4-0.8,0.6-0.7c0.2,0,0.1,0.9,0.9,1.2c0.5,0.1,0.8,0.9,0.6,1.1
							c-0.3,0.2-1.6,1-1.7,1.1c-0.7,0.4,0,0.6-1.4,1.1c-1.3,0.5-1.5,1.3-2.1,1.3c-0.4-0.6-1.5-1-1.4-1.3c0.1-0.2-0.3-1.2,0-1.6
							c0.8-0.7,2.5-0.6,2.9-1.1C150.4,44.2,151.7,44,152.3,43.6z"/>
						<path class="st0" d="M137.3,58.2c-0.5,0.1-0.7-0.3-0.5-0.4c0.2-0.1,0.6-0.2,0.9-0.3c0.2-0.1,0.3-0.3,0.5-0.3
							C138.7,57.2,138,57.9,137.3,58.2z"/>
						<path class="st0" d="M136.3,59.7c-0.2,0-0.2-0.1-0.1-0.3c0.1-0.2,0.1-0.2,0.3-0.2C136.8,59.3,136.6,59.5,136.3,59.7z"/>
					</g>
				</g>
			</g>
		</g>
	</g>
</g>
<g>
	<path class="st1" d="M50.6,60.4c-0.7,0-1.1,0-1.5,0.1v-1.9c0.4,0.1,0.7,0.1,1.5,0.1H53v-1.8c0-0.8,0-1.3-0.1-1.8h2
		c-0.1,0.5-0.1,1-0.1,1.8v10.8c0,0.9,0,1.4,0.1,1.9h-2c0.1-0.5,0.1-1,0.1-1.9V66c-1,0.5-1.8,1-3,1.5c-0.3,0.1-0.5,0.2-0.7,0.3
		l-0.6-1.9c0.5-0.1,0.8-0.2,1.4-0.4c1.3-0.5,1.8-0.8,2.9-1.3v-3.8H50.6z M58.6,67.1c0,0.4,0.2,0.5,1.3,0.5c1.1,0,1.5-0.1,1.7-0.5
		c0.2-0.3,0.3-1.5,0.3-2.9c0.6,0.3,1.1,0.5,1.7,0.7c-0.1,2.2-0.4,3.3-0.9,3.8c-0.3,0.2-0.7,0.4-1.2,0.5c-0.4,0-0.8,0.1-1.6,0.1
		c-1.4,0-1.9,0-2.3-0.3c-0.5-0.2-0.7-0.6-0.7-1.4V56.9c0-0.9,0-1.3-0.1-1.8h2c-0.1,0.5-0.1,1-0.1,1.8v3.2c1.5-0.8,3-2,3.6-2.7
		l1.3,1.5c-0.2,0.1-0.3,0.2-0.5,0.4c-0.5,0.4-1.8,1.3-2.5,1.8c-0.7,0.4-0.7,0.4-1.8,1V67.1z"/>
	<path class="st1" d="M65.4,59.1c1.1,0.7,1.7,1.2,2.6,2l-1.1,1.3c-0.9-1-1.4-1.4-2.6-2.1L65.4,59.1z M68.1,64.7
		c-0.4,1.5-0.8,2.3-1.4,3.7l-0.6,1.3l-1.5-1.3c0.1-0.1,0.2-0.2,0.3-0.4c0.6-1,1.2-2.5,1.8-4.4L68.1,64.7z M66.2,55.1
		c1,0.7,1.6,1.2,2.4,2.1l-1.2,1.3c-0.9-1-1.5-1.6-2.4-2.2L66.2,55.1z M76.8,56.3c1.2,0,1.7,0,2.3-0.1V58c-0.4,0-0.9-0.1-2.1-0.1h-6
		c-0.3,0.4-0.5,0.8-0.7,1.1h6.2c0.8,0,1.2,0,1.7,0c0,0.2,0,0.4-0.1,0.9c0,0.1,0,0.9-0.1,2.4c0.8,0,1,0,1.4-0.1v1.7
		c-0.5-0.1-0.9-0.1-1.3-0.1h-0.2c-0.1,0.8-0.1,1.3-0.2,2c0.6,0,0.9,0,1.2-0.1v1.7c-0.4,0-0.7-0.1-1.2-0.1h-0.2
		c-0.3,2-0.7,2.4-2.4,2.4c-0.3,0-0.4,0-1.4-0.1c0-0.7-0.1-1.1-0.3-1.6c0.6,0.1,1.2,0.2,1.6,0.2c0.6,0,0.7-0.1,0.8-0.8h-5.4
		c-0.1,0.5-0.1,0.7-0.3,1.3l-1.8-0.2c0.4-1.3,0.8-2.8,1.1-4.6h-0.2c-0.5,0-0.8,0-1.2,0.1v-1.7c0.4,0.1,0.8,0.1,1.5,0.1h0.2
		c0.1-1.2,0.2-1.9,0.2-2.5c-0.3,0.4-0.5,0.6-1,1c-0.3-0.5-0.7-0.9-1.2-1.3c1-0.9,1.5-1.5,2-2.4c0.5-0.8,0.8-1.6,0.9-2.3l1.8,0.3
		c-0.4,0.8-0.4,0.8-0.5,1.2H76.8z M72.6,65.7c0.1-0.7,0.1-0.9,0.3-2H71c-0.1,0.7-0.1,0.8-0.3,2H72.6z M73,62.2c0-0.5,0-0.5,0.1-1.7
		h-1.7c0,0.8-0.1,1-0.1,1.7H73z M76.1,65.7c0.1-0.7,0.1-1.3,0.2-2h-1.9c-0.1,0.6-0.1,1.3-0.2,2H76.1z M76.3,62.2c0-1,0-1,0-1.7h-1.8
		c-0.1,1.3-0.1,1.3-0.1,1.7H76.3z"/>
	<path class="st1" d="M80.8,61c0.4,0.1,0.7,0.1,1.3,0.1h1.2c0.5,0,0.9,0,1.2-0.1c-0.1,0.5-0.1,0.9-0.1,1.7v3.3
		c0.4,0.6,0.6,0.8,1.1,1.1c0.8,0.4,1.9,0.5,4.2,0.5c2.3,0,4.2-0.1,6-0.3c-0.3,0.7-0.4,1.1-0.5,1.9c-2.9,0.1-4.3,0.1-5.5,0.1
		c-2.3,0-3.5-0.1-4.4-0.5c-0.7-0.3-1.1-0.6-1.7-1.3C83,68,82.4,68.6,81.7,69c-0.2,0.1-0.3,0.2-0.4,0.4l-0.8-1.8
		c0.6-0.2,1.3-0.7,2.3-1.6v-3.4h-0.9c-0.4,0-0.7,0-1.1,0.1V61z M82,55.2c1.2,1.1,2,1.8,2.7,2.9l-1.3,1.2c-0.9-1.3-1.6-2-2.7-3
		L82,55.2z M87.5,56.7c-0.2-0.4-0.5-0.9-0.9-1.3l1.6-0.5c0.4,0.6,0.7,1,1.1,1.8h1.4c0.4-0.5,0.7-1.1,1-1.8l1.7,0.4
		c-0.3,0.5-0.6,1-0.9,1.4h1c0.7,0,1.1,0,1.6-0.1v1.6c-0.5,0-1-0.1-1.6-0.1h-2.7c-0.2,0.4-0.3,0.5-0.4,0.8h2.3c0.7,0,1.2,0,1.4-0.1
		c0,0.4-0.1,0.9-0.1,1.5v4.7c0,0.6,0,1.1,0.1,1.6c-0.5,0-0.8,0-1.2,0h-5.6c-0.5,0-0.8,0-1.5,0c0-0.4,0-1,0-1.5v-4.8
		c0-0.5,0-1.1-0.1-1.5c0.4,0,0.8,0,1.6,0h1.2c0.2-0.4,0.2-0.5,0.4-0.8h-2.4c-0.7,0-1.2,0-1.6,0.1v-1.6c0.4,0.1,0.9,0.1,1.6,0.1H87.5
		z M87.5,65.3h4.9v-0.9h-4.9V65.3z M87.5,61.1h4.9v-0.9h-4.9V61.1z M87.5,63.2h4.9v-0.8h-4.9V63.2z"/>
</g>
</svg>
