<?xml version="1.0" encoding="utf-8"?>
<!-- Generator: Adobe Illustrator 24.0.3, SVG Export Plug-In . SVG Version: 6.00 Build 0)  -->
<svg version="1.1" id="レイヤー_1" xmlns="http://www.w3.org/2000/svg" xmlns:xlink="http://www.w3.org/1999/xlink" x="0px"
	 y="0px" viewBox="0 0 204.6 161.4" style="enable-background:new 0 0 204.6 161.4;" xml:space="preserve">
<style type="text/css">
	.st0{fill:#7EC13E;stroke:#513813;stroke-width:4.5654;stroke-miterlimit:10;}
	.st1{fill:#FFFFFF;}
</style>
<g>
	<path class="st0" d="M179.1,2.3H25.4C12.7,2.3,2.3,12.7,2.3,25.4v59.3c0,12.7,10.4,23.1,23.2,23.1h13.5h4.7l-2.8,46.5l36.4-46.5
		h101.9c12.7,0,23.2-10.4,23.2-23.1V25.4C202.3,12.7,191.9,2.3,179.1,2.3z"/>
	<g>
		<g>
			<path class="st1" d="M45.5,28.3c-1,0.6-1.4,0.9-2.6,1.4c-0.3-0.6-0.5-1.1-0.9-1.6c1.7-0.7,2.8-1.3,4-2.2c1.1-0.8,1.9-1.7,2.5-2.7
				h1.9c0.8,1.2,1.5,1.8,2.7,2.7c1.4,1,2.7,1.6,4.1,2.2c-0.4,0.7-0.7,1.1-0.9,1.8c-1-0.4-1.6-0.8-2.7-1.5v1.2
				c-0.4,0-0.8-0.1-1.4-0.1h-5.3c-0.5,0-0.9,0-1.4,0.1V28.3z M44.6,32.4c-0.8,0-1.4,0-1.9,0.1v-1.9c0.5,0.1,1.1,0.1,1.9,0.1h10
				c0.8,0,1.3,0,1.9-0.1v1.9c-0.5-0.1-1.1-0.1-1.9-0.1h-5.5c-0.5,1.2-1,2.1-1.7,3.1c2.8-0.2,2.8-0.2,5.1-0.4
				c-0.5-0.6-0.8-0.8-1.7-1.8l1.6-0.7c1.7,1.7,2.4,2.5,3.7,4.3l-1.5,1c-0.5-0.8-0.7-1-1-1.4c-1.3,0.2-2.3,0.3-2.9,0.4
				c-1.6,0.1-4.8,0.4-5.4,0.5c-0.9,0.1-1.7,0.1-2.1,0.2l-0.3-2c0.4,0,0.7,0,0.9,0c0.1,0,0.6,0,1.4-0.1c0.8-1.2,1.3-2.1,1.7-3.2H44.6
				z M52.2,27.8c0.3,0,0.4,0,0.7,0c-1.5-1-2.4-1.8-3.3-3.1c-0.8,1.1-1.8,2.1-3.3,3.1c0.3,0,0.4,0,0.7,0H52.2z"/>
			<path class="st1" d="M66.3,24.4c-0.1,0.5-0.2,1.1-0.4,2c0,0.3,0,0.3-0.1,0.5c0.5,0,0.7,0,1,0c1.1,0,1.8,0.3,2.4,0.8
				c0.5,0.6,0.8,1.4,0.8,2.8c0,2.8-0.5,4.9-1.2,5.8c-0.4,0.5-0.9,0.7-1.8,0.7c-0.7,0-1.4-0.1-2.5-0.5c0-0.3,0-0.5,0-0.7
				c0-0.4,0-0.7-0.2-1.4c0.9,0.4,1.8,0.6,2.3,0.6c0.5,0,0.7-0.3,1-1.1c0.3-0.8,0.4-2.3,0.4-3.6c0-1.5-0.4-1.9-1.6-1.9
				c-0.3,0-0.6,0-1,0c-0.8,3.3-1.5,5.2-3.3,8.7l-1.9-1c1.2-1.7,2.5-4.6,3.2-7.5c-0.2,0-0.2,0-0.8,0.1l-1.5,0.2
				c-0.3,0-0.4,0.1-0.7,0.2l-0.2-1.9c0.7,0,1.6-0.1,3.4-0.3c0.3-1.8,0.4-2.7,0.4-3.2c0-0.1,0-0.2,0-0.3l2.1,0.2
				c0,0.1-0.1,0.3-0.1,0.5L66.3,24.4z M71.1,23.7c0.7,0.8,1.1,1.4,1.7,2.4l-1.1,0.6c-0.5-1-1-1.6-1.7-2.4L71.1,23.7z M72.6,26.9
				c1.1,1.5,1.9,3.2,2.4,5.1l-1.8,0.9c-0.3-1.7-1.3-4-2.2-5.2L72.6,26.9z M73.6,25.7c-0.5-0.9-1-1.6-1.6-2.3l1.1-0.6
				c0.7,0.7,1.2,1.3,1.7,2.3L73.6,25.7z"/>
			<path class="st1" d="M84.4,24c0-0.4,0-0.7-0.1-1h2c-0.1,0.3-0.1,0.6-0.1,1v0.2h4.7c0.7,0,1.2,0,1.7-0.1v1.6
				c-0.5-0.1-0.9-0.1-1.7-0.1h-11c-0.7,0-1.1,0-1.6,0.1v-1.6c0.5,0.1,1,0.1,1.7,0.1h4.4V24z M78.6,31.9c0-0.5,0-1-0.1-1.5
				c0.5,0,1,0.1,1.7,0.1h10.4c0.8,0,1.2,0,1.6-0.1c0,0.5-0.1,0.9-0.1,1.4v4.1c0,0.8-0.1,1.1-0.4,1.4c-0.3,0.3-0.8,0.4-1.9,0.4
				c-0.3,0-0.4,0-0.9,0c-0.3,0-0.3,0-0.5,0c0-0.7-0.1-1.1-0.4-1.6c0.9,0.1,1.6,0.1,2,0.1c0.3,0,0.4-0.1,0.4-0.3v-4H80.3v4.3
				c0,0.8,0,1.2,0.1,1.8h-1.9c0.1-0.3,0.1-1,0.1-1.8V31.9z M80.6,27.4c0-0.5,0-0.8,0-1.2c0.5,0,0.8,0.1,1.6,0.1h6.7
				c0.6,0,1,0,1.4-0.1c0,0.4,0,0.7,0,1.2v1.4c0,0.6,0,0.8,0,1.2c-0.4,0-0.8-0.1-1.5-0.1h-6.6c-0.6,0-1,0-1.5,0.1c0-0.3,0-0.6,0-1.2
				V27.4z M88.8,34.8c0,0.5,0,0.8,0,1.1c-0.3,0-0.9,0-1.3,0h-4v0.8h-1.6c0-0.3,0.1-0.7,0.1-1.3v-1.9c0-0.5,0-0.7,0-1.1
				c0.4,0,0.7,0,1.3,0h4.4c0.6,0,0.8,0,1.3,0c0,0.3,0,0.5,0,1V34.8z M82.3,28.5h6.2v-1h-6.2V28.5z M83.5,34.6h3.8v-0.9h-3.8V34.6z"
				/>
			<path class="st1" d="M102,26.5c0.7,0,0.9,0,1.4-0.1v0.4c1.1-1.1,1.9-2.4,2.3-3.7h1.8c0.3,0.8,0.8,1.5,1.4,2.3
				c0.6,0.8,1.2,1.3,2,1.8c-0.4,0.7-0.5,0.9-0.8,1.7c-0.6-0.5-0.9-0.8-1.2-1.2V29c-0.3,0-0.5,0-1.3,0H106c-0.7,0-1,0-1.3,0v-1.2
				c-0.4,0.4-0.5,0.6-1,1c-0.2-0.4-0.3-0.5-0.5-0.8c-0.2,0-0.9,0-1.3,0h-4.4c-0.8,0-1.1,0-1.7,0.1v-1.6c0.4,0,0.5,0.1,1,0.1v-1.2
				c0-0.7,0-0.9-0.1-1.4h1.5c0,0.4-0.1,0.6-0.1,1.4v1.2h1v-1.9c0-0.8,0-1.1-0.1-1.6h1.7c-0.1,0.4-0.1,0.7-0.1,1.2h0.9
				c0.6,0,0.8,0,1.3-0.1v1.4c-0.4,0-0.7-0.1-1.3-0.1h-0.9v1H102z M101.8,28.9c0-0.2,0-0.3,0-0.5h1.5c0,0.4-0.1,0.9-0.1,1.5V36
				c0,0.9,0,1.2,0.1,1.7h-1.5v-0.6h-4v0.7h-1.5c0.1-0.5,0.1-0.9,0.1-1.8v-6c0-0.7,0-1.2-0.1-1.6h1.5c0,0.2,0,0.3,0,0.5l0.8-0.4
				c0.3,0.7,0.5,1.1,0.6,1.8v-0.7c0-0.5,0-1-0.1-1.3h1.3c0,0.4,0,0.8,0,1.3v0.7c0.3-0.7,0.4-1.1,0.6-1.8L101.8,28.9z M97.6,31
				c0.1,0,0.2,0,0.3,0h1.3v-0.7l-0.9,0.4c-0.2-0.9-0.4-1.3-0.6-1.8c0,0.4,0,0.5,0,0.8V31z M97.6,33.8c0.4-0.4,0.7-0.8,1-1.6h-0.8
				c-0.1,0-0.1,0-0.3,0V33.8z M97.6,35.8h4.3v-1.4c-0.1,0.1-0.1,0.2-0.1,0.3c-0.1,0.2-0.2,0.3-0.3,0.5c-0.6-0.7-0.8-1-1.2-2
				c0,0.3,0,0.3,0,0.6c0,0,0,0.1,0,0.6v0.5c0,0.3,0,0.5,0,0.7H99c0-0.3,0-0.4,0-0.7v-0.5c0-0.3,0-0.3,0-0.4c0-0.1,0-0.2,0-0.3
				c0-0.1,0-0.2,0-0.4c-0.4,1-0.6,1.4-1.2,2c-0.1-0.3-0.2-0.4-0.4-0.6V35.8z M101.8,29.8c0-0.3,0-0.5,0-0.8
				c-0.2,0.6-0.4,1.3-0.7,1.9l-0.8-0.4V31h1.6V29.8z M101.8,32.2h-1.1c0.4,0.8,0.6,1.1,1.1,1.5V32.2z M104.9,31.6
				c-0.6,0-0.9,0-1.3,0.1V30c0.4,0.1,0.7,0.1,1.5,0.1h3.4c0.7,0,1.2,0,1.5-0.1c0,0.4-0.1,0.8-0.1,1.6v3.4c0,1.2-0.4,1.5-1.9,1.5
				c-0.2,0-0.3,0-0.7,0c0-0.7-0.1-1-0.3-1.6c0.6,0.1,0.7,0.1,1,0.1c0.2,0,0.3-0.1,0.3-0.3v-2.9h-1.7v4.6c0,0.9,0,1.3,0.1,1.8h-1.8
				c0.1-0.5,0.1-0.8,0.1-1.8v-4.6H104.9z M107.4,27.5c0.6,0,0.8,0,1.1,0c-0.9-1-1.3-1.6-1.9-2.8c-0.5,1.2-0.9,1.9-1.7,2.8
				c0.3,0,0.5,0,1.1,0H107.4z"/>
			<path class="st1" d="M115.9,31.4c0-0.6,0-0.7,0-1.8c-0.4,0.6-1,1.4-1.6,2.1c-0.3-0.9-0.4-1-0.8-1.9c1-1,1.6-1.7,2.2-2.8
				c0.8-1.4,1.4-2.9,1.6-4l1.9,0.5c-0.1,0.3-0.2,0.5-0.4,0.9c-0.4,1-0.4,1.2-1.2,2.8v8.6c0,0.7,0,1.4,0.1,2h-2
				c0.1-0.7,0.1-1.3,0.1-2.1V31.4z M122.2,35.2c0,0.4,0.3,0.5,1.6,0.5c1.4,0,2-0.1,2.2-0.4c0.3-0.4,0.4-1,0.4-2.9
				c0.6,0.3,1.2,0.5,1.7,0.6c-0.1,2-0.4,3-0.7,3.5c-0.5,0.6-1.4,0.8-4,0.8c-2.6,0-3.1-0.3-3.1-1.7V25.1c0-0.8,0-1.5-0.1-1.9h2
				c-0.1,0.5-0.1,1.1-0.1,1.9v3.6c1.8-1,3.5-2.3,4.4-3.4l1.4,1.4c-0.1,0.1-0.2,0.2-0.4,0.3c-1.7,1.6-3.2,2.6-5.4,3.7V35.2z"/>
			<path class="st1" d="M135,23.8c-0.1,0.5-0.1,0.9-0.2,2.2c-0.1,1.5-0.2,4.7-0.2,5.9c0,1.5,0.1,2.1,0.4,2.6
				c0.4,0.5,1.1,0.8,2.1,0.8c1.7,0,3.1-1,3.9-2.7c0.4-0.8,0.6-1.6,0.7-2.7c0.9,0.7,1.2,0.9,1.9,1.2c-0.6,2.2-1.1,3.2-1.9,4.1
				c-1.2,1.4-2.8,2-4.8,2c-1.1,0-2.1-0.3-2.8-0.7c-1.1-0.7-1.6-2-1.6-4.1c0-0.8,0-2.4,0.1-6.5c0-0.5,0-0.8,0-1c0-0.4,0-0.7-0.1-1.1
				L135,23.8z"/>
			<path class="st1" d="M146.3,25.4c0.4,0,0.5,0,0.6,0c0.3,0,0.3,0,2.6-0.2c0.9,0,3.6-0.2,8-0.4c1.3-0.1,1.6-0.1,1.8-0.2l0.1,2
				c-0.2,0-0.2,0-0.3,0c-1,0-2.1,0.3-3.2,0.9c-2,1.1-3.2,2.7-3.2,4.3c0,1.2,0.8,2.2,2.1,2.6c0.8,0.2,1.8,0.4,2.4,0.4
				c0,0,0.2,0,0.3,0l-0.3,2.2c-0.2,0-0.3-0.1-0.5-0.1c-1.8-0.2-2.8-0.5-3.7-1.1c-1.5-0.8-2.3-2.2-2.3-3.9c0-1.4,0.5-2.7,1.5-3.8
				c0.6-0.7,1.2-1.1,2.2-1.6c-1.3,0.2-1.9,0.2-5.4,0.5c-1.1,0.1-2,0.2-2.7,0.3L146.3,25.4z"/>
			<path class="st1" d="M77.1,51.2c1.2,0.6,1.9,1,3,1.9l-1,1.5c-1.1-0.9-1.8-1.4-3-2L77.1,51.2z M80.1,56.6
				c-0.8,1.9-1.6,3.7-2.4,4.9l-1.6-1.2c0.2-0.2,0.4-0.4,0.6-0.7c0.7-1,1.3-2.2,2-4L80.1,56.6z M77.7,47.2c1.4,0.9,1.8,1.2,2.8,2.1
				l-1,1.4c-1-0.9-1.6-1.4-2.9-2.2L77.7,47.2z M84.6,49.8c-1.6,0.2-1.9,0.2-3.3,0.3c-0.1-0.6-0.3-0.9-0.6-1.6
				c3.5-0.1,7.1-0.7,8.6-1.4l1.2,1.6c-0.3,0.1-0.3,0.1-0.8,0.2c-0.8,0.2-2.2,0.5-3.3,0.7v2.1h2.8c0.8,0,1.3,0,1.8-0.1v1.8
				c-0.5-0.1-1-0.1-1.8-0.1h-2.8v2.1h2.4c0.6,0,1,0,1.3-0.1c0,0.4-0.1,0.9-0.1,1.4v3.4c0,0.6,0,1.2,0.1,1.6h-1.8V61h-5.4v0.8h-1.8
				c0-0.4,0.1-1,0.1-1.7v-3.5c0-0.5,0-0.9-0.1-1.4c0.4,0,0.7,0.1,1.3,0.1h2.2v-2.1h-2.5c-0.7,0-1.2,0-1.8,0.1v-1.8
				c0.5,0.1,1,0.1,1.8,0.1h2.5V49.8z M82.8,59.4h5.4v-2.5h-5.4V59.4z"/>
			<path class="st1" d="M97.6,49c-1.1,0.1-1.6,0.1-2.8,0.2c-0.1-0.4-0.3-0.7-0.6-1.3c3.1,0,5.9-0.4,7-0.9l1,1.3
				c-0.1,0-0.7,0.1-0.9,0.1c-0.6,0.1-1.4,0.2-2.2,0.4v0.9h1.7c0.8,0,1.1,0,1.5-0.1v1.5c-0.2,0-0.4-0.1-1.2-0.1h-2v0.7h1.6
				c0.7,0,1,0,1.3,0c0,0.3,0,0.6,0,1.4v2.2c0,0.8,0,1.2,0,1.5c-0.4,0-0.7,0-1.4,0h-1.5v0.7h1.4c0.8,0,1.1,0,1.5-0.1v1.5
				c-0.3-0.1-0.5-0.1-1.1-0.1h-1.8v0.8c0.8-0.1,1.4-0.1,2.9-0.4v0.7c0.7-1,1.2-2.3,1.5-3.7c0.2-1.2,0.3-2.2,0.4-4.2
				c-0.7,0-0.9,0-1.3,0.1v-1.7c0.3,0,0.6,0.1,1.1,0.1h0.2c0-0.4,0-0.7,0-1.2c0-1.3,0-1.6-0.1-2h1.8c-0.1,0.4-0.1,0.4-0.1,3.2h1.4
				c0.7,0,1.1,0,1.5-0.1c-0.1,0.6-0.1,0.7-0.1,3c-0.1,4.1-0.3,6.4-0.7,7.3c-0.3,0.7-0.8,0.9-2,0.9c-0.3,0-1,0-1.3,0
				c0-0.7-0.1-1-0.4-1.7c-0.4,0.8-0.6,1.2-1.3,2.1c-0.3-0.5-0.7-0.9-1.3-1.3c-2.2,0.3-3.4,0.4-6.3,0.7c-0.3,0-0.5,0.1-0.9,0.1
				L94,59.7c0.3,0,0.5,0,0.8,0c0.7,0,1,0,2.7-0.1v-0.9h-1.6c-0.5,0-1.1,0-1.5,0.1v-1.5c0.4,0.1,0.8,0.1,1.5,0.1h1.6v-0.7h-1.4
				c-0.7,0-1.1,0-1.6,0c0-0.4,0-0.7,0-1.5v-2.1c0-0.8,0-1.1,0-1.5c0.4,0,0.9,0,1.6,0h1.4V51h-2c-0.7,0-1,0-1.5,0.1v-1.5
				c0.4,0.1,0.8,0.1,1.5,0.1h2V49z M96.2,52.9v0.7h1.4v-0.7H96.2z M96.2,54.8v0.7h1.4v-0.7H96.2z M99.1,53.6h1.4v-0.7h-1.4V53.6z
				 M99.1,55.5h1.4v-0.7h-1.4V55.5z M105.6,52c-0.2,3.8-0.5,5.7-1.5,7.8c0.8,0.1,1.1,0.2,1.4,0.2c0.7,0,0.8-0.2,1-1.7
				c0.1-0.8,0.2-1.5,0.2-3.3c0-0.6,0-0.6,0-1.9c0-0.5,0-0.6,0-1.1H105.6z"/>
			<path class="st1" d="M117.7,48.4c-0.1,0.5-0.2,1.1-0.4,2c0,0.3,0,0.3-0.1,0.5c0.5,0,0.7,0,1,0c1.1,0,1.8,0.3,2.4,0.8
				c0.5,0.6,0.8,1.4,0.8,2.8c0,2.8-0.5,4.9-1.2,5.8c-0.4,0.5-0.9,0.7-1.8,0.7c-0.7,0-1.4-0.1-2.5-0.5c0-0.3,0-0.5,0-0.7
				c0-0.4,0-0.7-0.2-1.4c0.9,0.4,1.8,0.6,2.3,0.6c0.5,0,0.7-0.3,1-1.1c0.3-0.8,0.4-2.3,0.4-3.6c0-1.5-0.4-1.9-1.6-1.9
				c-0.3,0-0.6,0-1,0c-0.8,3.3-1.5,5.2-3.3,8.7l-1.9-1c1.2-1.7,2.5-4.6,3.2-7.5c-0.2,0-0.2,0-0.8,0.1l-1.5,0.2
				c-0.3,0-0.4,0.1-0.7,0.2l-0.2-1.9c0.7,0,1.6-0.1,3.4-0.3c0.3-1.8,0.4-2.7,0.4-3.2c0-0.1,0-0.2,0-0.3l2.1,0.2
				c0,0.1-0.1,0.3-0.1,0.5L117.7,48.4z M122.6,47.7c0.7,0.8,1.1,1.4,1.7,2.4l-1.1,0.6c-0.5-1-1-1.6-1.7-2.4L122.6,47.7z M124.1,50.9
				c1.1,1.5,1.9,3.2,2.4,5.1l-1.8,0.9c-0.3-1.7-1.3-4-2.2-5.2L124.1,50.9z M125.1,49.7c-0.5-0.9-1-1.6-1.6-2.3l1.1-0.6
				c0.7,0.7,1.2,1.3,1.7,2.3L125.1,49.7z"/>
			<path class="st1" d="M51.3,79.4c0-0.5,0-0.9,0-1.8c-0.5,0.8-0.7,1.2-1.2,1.8c-0.2-0.8-0.4-1.2-0.7-1.9c0.8-0.9,1.5-1.9,2-3.1
				c0.5-1.1,1-2.5,1.1-3.4l1.8,0.4c-0.7,2.1-0.9,2.8-1.3,3.6v9c0,0.7,0,1.2,0.1,1.9h-1.8c0.1-0.6,0.1-1.1,0.1-1.9V79.4z M56.4,82.1
				c-0.7,0-1.1,0-1.5,0.1v-1h-1.2c0-0.3,0.1-0.6,0.1-1.1v-0.8c0-0.5,0-0.8-0.1-1.1c0.4,0,0.8,0,1.5,0h7.6c0.7,0,1.2,0,1.7-0.1
				c0,0.4,0,0.7,0,1.1v0.8c0,0.4,0,0.7,0.1,1.1h-1.1v0.9c-0.4-0.1-0.9-0.1-1.6-0.1h-1.7v2.1c0,1.2-0.4,1.5-2.4,1.5
				c-0.4,0-0.7,0-1.4,0c-0.1-0.6-0.2-1.1-0.4-1.7c0.6,0.1,1.3,0.2,1.8,0.2c0.5,0,0.6-0.1,0.6-0.4v-1.7H56.4z M58.2,72
				c0-0.4,0-0.7-0.1-0.9H60c-0.1,0.3-0.1,0.5-0.1,1v0.2h2.6c0.7,0,1.3,0,1.7-0.1v1.6c-0.5,0-0.9-0.1-1.6-0.1h-7
				c-0.6,0-1.1,0-1.5,0.1v-1.6c0.5,0.1,0.9,0.1,1.7,0.1h2.4V72z M54.9,75.4c0-0.4,0-0.7-0.1-1.1c0.4,0,0.9,0.1,1.6,0.1h5.2
				c0.6,0,1.1,0,1.5-0.1c0,0.4-0.1,0.6-0.1,1.1v1.3c0,0.4,0,0.7,0.1,1c-0.4,0-0.8,0-1.6,0h-5.1c-0.7,0-1.1,0-1.6,0
				c0-0.4,0.1-0.6,0.1-1.1V75.4z M62.7,79.8h-7.3v0.8c0.3,0,0.5,0,0.9,0h5.5c0.4,0,0.6,0,0.9,0V79.8z M56.6,76.4h4.8v-0.7h-4.8V76.4
				z"/>
			<path class="st1" d="M68.3,75.2c1.1,0.6,1.6,0.9,2.7,1.8l-1,1.5c-1-0.9-1.4-1.2-2.7-2L68.3,75.2z M71,80.8c-0.6,2-1,2.9-2.1,4.9
				l-1.5-1.3c0.8-0.9,1.5-2.3,2.3-4.7L71,80.8z M72.2,73.9c-0.6,0-0.6,0-0.8,0.1v-0.7l-1,1.3c-0.8-0.9-1.4-1.3-2.6-2.1l1.1-1.3
				c1.1,0.7,1.6,1.1,2.4,1.9v-0.8c0.2,0,0.5,0.1,0.8,0.1v-0.1c0-0.5,0-0.8-0.1-1.2h1.7c-0.1,0.4-0.1,0.6-0.1,1.1v0.2h1.8v-0.1
				c0-0.6,0-0.9-0.1-1.2h1.8c-0.1,0.3-0.1,0.7-0.1,1.2v0.1h2v-0.2c0-0.5,0-0.8-0.1-1.1h1.7c-0.1,0.3-0.1,0.6-0.1,1.2v0.1
				c0.7,0,1,0,1.3-0.1V74c-0.4-0.1-0.7-0.1-1.3-0.1v1.4c0,0.4,0,0.7,0,1c-0.4,0-0.7,0-1.4,0h-5.9c-0.5,0-1.1,0-1.4,0
				c0-0.3,0-0.6,0-1V73.9z M73.8,81.2v2.2c0,0.8,0,1.2,0.1,1.6h-1.8c0-0.5,0.1-1,0.1-1.8V81c0-0.3,0-0.6,0-0.9h-1.1c0-0.3,0-0.6,0-1
				V78c0-0.4,0-0.7,0-1c0.2,0,0.7,0,1.3,0h8.2c0.8,0,1,0,1.5-0.1c0,0.3,0,0.5,0,1.1V79c0,0.5,0,0.8,0.1,1.1h-1.1c0,0.3,0,0.5,0,0.9
				v2.4c0,0.7-0.1,0.9-0.3,1.1c-0.2,0.2-0.6,0.3-1.3,0.3c-0.3,0-0.7,0-1.1,0c-0.1-0.7-0.1-0.9-0.3-1.5c0.6,0.1,0.8,0.1,1.1,0.1
				c0.3,0,0.3-0.1,0.3-0.3v-1.9h-2v3.1c0,0.7,0,1.1,0.1,1.6h-1.9c0.1-0.5,0.1-0.9,0.1-1.6v-3.1H73.8z M75.6,78.6h-2.8v1.1
				c0.3,0,0.5,0,0.9,0h1.9V78.6z M73.8,74.9h1.8v-1h-1.8V74.9z M79.2,74.9v-1h-2v1H79.2z M79.5,79.7c0.3,0,0.5,0,0.8,0v-1.1h-3v1.1
				H79.5z"/>
			<path class="st1" d="M88.5,73.9c-0.7,1.1-1.4,1.9-2.4,2.8c-0.4-0.5-0.8-0.9-1.2-1.2c1.4-1.2,2.2-2.3,2.9-3.6
				c0.2-0.4,0.3-0.7,0.4-1l1.9,0.3c-0.1,0.3-0.1,0.3-0.6,1.1h7.4c0.9,0,1.5,0,2-0.1V74c-0.5-0.1-1.2-0.1-2-0.1H88.5z M93.8,85.4
				c-1-0.9-1.7-1.6-2.8-2.5c-1.2,1.1-2.3,1.7-4.6,2.9c-0.3-0.6-0.6-0.9-1.2-1.5c2.2-0.9,3.3-1.5,4.4-2.4c-1-0.7-1.5-1.1-2.8-1.8
				L88,79c1.2,0.7,1.7,1,2.8,1.8c0.8-0.8,1.2-1.5,1.4-2l1.7,0.8c-0.2,0.2-0.3,0.4-0.7,0.9c-0.4,0.5-0.6,0.9-1,1.3
				c1,0.8,1.8,1.4,2.8,2.3L93.8,85.4z M87.6,78.5c-0.8,0-1.4,0-1.8,0.1V77c0.4,0.1,0.8,0.1,1.4,0.1h8.1c1.1,0,1.4,0,1.9-0.1
				c-0.1,0.5-0.1,0.9-0.1,1.5c0,1.7,0.2,3.1,0.4,4.1c0.2,0.6,0.3,0.8,0.6,1.1c0.2-0.3,0.3-1.1,0.4-2.4c0.5,0.5,0.8,0.7,1.4,1
				c-0.3,2.5-0.8,3.5-1.7,3.5c-0.7,0-1.5-0.8-2-2c-0.5-1.3-0.7-2.8-0.7-5.2H87.6z M88,74.6c0.2,0,0.7,0.1,1.2,0.1h6.7
				c0.8,0,1.3,0,1.7-0.1v1.6c-0.5-0.1-0.9-0.1-1.7-0.1h-6.4c-0.7,0-1.1,0-1.5,0.1V74.6z"/>
			<path class="st1" d="M106.3,82.9v-0.8h-1.4v1.6h-1.7c0.1-0.5,0.1-1.1,0.1-1.9v-7.9c0-0.7,0-1.2-0.1-1.6c0.4,0,0.8,0.1,1.4,0.1
				h1.9c0.6,0,1,0,1.4-0.1c0,0.3,0,0.8,0,1.6v7.3c0,0.7,0,1.2,0,1.6c1.4-1.2,2.5-2.6,3.3-4.1h-1.6c-0.6,0-0.9,0-1.4,0.1v-1.8
				c0.5,0,0.7,0.1,1.4,0.1h2.2v-2.1h-1.3c-0.7,0-1.2,0-1.7,0.1v-1.8c0.5,0.1,1,0.1,1.7,0.1h1.3v-0.9c0-0.6,0-0.9-0.1-1.3h1.8
				c-0.1,0.4-0.1,0.7-0.1,1.3v0.9h1.7c0.8,0,1.3,0,1.8-0.1V75c-0.5-0.1-1.1-0.1-1.8-0.1h-1.7V77h2.2c0.8,0,1.4,0,1.9-0.1v1.8
				c-0.4-0.1-1.1-0.1-1.9-0.1h-1.8c0.8,1.8,2.2,3.2,4.2,4.5c-0.4,0.6-0.7,1.1-0.9,1.7c-2-1.5-3-2.8-3.7-4.5c0,0.7,0,1,0,1.6v2.3
				c0,0.7,0,1.1,0.1,1.6h-1.9c0.1-0.5,0.1-1,0.1-1.6v-2.3c0-0.5,0-0.9,0-1.6c-0.5,1.1-0.9,1.7-1.7,2.7c-0.8,0.9-1.4,1.5-2.3,2.1
				c-0.4-0.5-0.7-0.9-1.2-1.4c0.6-0.4,0.8-0.5,1.1-0.8H106.3z M104.8,80.6h1.4V74h-1.4V80.6z"/>
			<path class="st1" d="M124,78.4c0,0.8-0.6,1.4-1.4,1.4s-1.4-0.6-1.4-1.4c0-0.8,0.6-1.4,1.4-1.4S124,77.7,124,78.4z M129.4,78.4
				c0,0.8-0.6,1.4-1.4,1.4s-1.4-0.6-1.4-1.4c0-0.8,0.6-1.4,1.4-1.4S129.4,77.7,129.4,78.4z M134.7,78.4c0,0.8-0.6,1.4-1.4,1.4
				c-0.8,0-1.4-0.6-1.4-1.4c0-0.8,0.6-1.4,1.4-1.4C134.1,77,134.7,77.7,134.7,78.4z"/>
			<path class="st1" d="M141.6,78.4c0,0.8-0.6,1.4-1.4,1.4c-0.8,0-1.4-0.6-1.4-1.4c0-0.8,0.6-1.4,1.4-1.4
				C141,77,141.6,77.7,141.6,78.4z M146.9,78.4c0,0.8-0.6,1.4-1.4,1.4c-0.8,0-1.4-0.6-1.4-1.4c0-0.8,0.6-1.4,1.4-1.4
				C146.3,77,146.9,77.7,146.9,78.4z M152.3,78.4c0,0.8-0.6,1.4-1.4,1.4s-1.4-0.6-1.4-1.4c0-0.8,0.6-1.4,1.4-1.4
				S152.3,77.7,152.3,78.4z"/>
		</g>
	</g>
</g>
</svg>
