<?xml version="1.0" encoding="utf-8"?>
<!-- Generator: Adobe Illustrator 24.0.3, SVG Export Plug-In . SVG Version: 6.00 Build 0)  -->
<svg version="1.1" id="レイヤー_1" xmlns="http://www.w3.org/2000/svg" xmlns:xlink="http://www.w3.org/1999/xlink" x="0px"
	 y="0px" viewBox="0 0 204.6 161.4" style="enable-background:new 0 0 204.6 161.4;" xml:space="preserve">
<style type="text/css">
	.st0{fill:#7EC13E;stroke:#513813;stroke-width:4.5654;stroke-miterlimit:10;}
	.st1{fill:#FFFFFF;}
</style>
<g>
	<path class="st0" d="M179.1,2.3H25.4C12.7,2.3,2.3,12.7,2.3,25.4v59.3c0,12.7,10.4,23.1,23.2,23.1h13.5h4.7l-2.8,46.5l36.4-46.5
		h101.9c12.7,0,23.2-10.4,23.2-23.1V25.4C202.3,12.7,191.9,2.3,179.1,2.3z"/>
	<g>
		<g>
			<path class="st1" d="M50.7,37.8c0.1-0.5,0.1-1.1,0.1-2.1V25.6c0-0.8,0-1.3-0.1-1.9c0.6,0.1,1.1,0.1,1.9,0.1h10
				c0.8,0,1.3,0,1.9-0.1c-0.1,0.6-0.1,1.1-0.1,1.9v10.2c0,1,0,1.6,0.1,2.1h-1.8v-0.9H52.5v0.9H50.7z M52.5,35.4h10.1V25.3H52.5V35.4
				z M58.7,26.8c0-0.6,0-0.8-0.1-1.2h1.8c-0.1,0.3-0.1,0.6-0.1,1.2v0.6h0.4c0.5,0,1,0,1.3-0.1v1.6c-0.3,0-0.8-0.1-1.3-0.1h-0.4v4.5
				c0,1.3-0.4,1.6-2.2,1.6c-0.4,0-0.5,0-1.5-0.1c-0.1-0.8-0.1-1-0.4-1.6c0.9,0.1,1.5,0.2,1.9,0.2c0.4,0,0.5-0.1,0.5-0.4v-4.2h-4
				c-0.7,0-1.1,0-1.5,0.1v-1.6c0.4,0.1,0.8,0.1,1.5,0.1h4V26.8z M56,33c-0.7-1.4-1.1-2-1.9-3l1.3-0.9c0.9,1.1,1.3,1.6,2,3L56,33z"/>
			<path class="st1" d="M71.4,36c0,0.8,0,1.4,0.1,1.9h-1.9c0.1-0.6,0.1-1.1,0.1-1.9v-4.4c0-0.8,0-1.1,0-1.8
				c-0.4,0.7-0.7,1.2-1.2,1.7c-0.2-0.8-0.4-1.3-0.7-1.9c1.8-1.9,2.9-4.1,3.4-6.5l1.8,0.5c-0.6,1.6-1,2.6-1.5,3.7v6.3
				c1.7-1.3,3.3-3.5,4.2-5.8h-1.7c-0.5,0-1.2,0-1.7,0.1V26c0.5,0,1.1,0.1,1.7,0.1h2.3v-1.5c0-0.5,0-1-0.1-1.5H78
				c-0.1,0.5-0.1,1-0.1,1.5v1.4h3c0.7,0,1.3,0,1.8-0.1v1.8c-0.5-0.1-1.2-0.1-1.8-0.1h-2.4c0.5,1.2,1,2,1.9,3.2
				c0.7,0.9,1.5,1.8,2.7,2.7c-0.4,0.5-0.7,0.9-1.1,1.6c-0.8-0.8-1.2-1.2-1.8-1.9v1.5c-0.3,0-0.7-0.1-1.2-0.1h-1.2v1.3
				c0,0.6,0,1.2,0.1,1.7h-1.9c0.1-0.6,0.1-1.2,0.1-1.7v-1.3h-1.1c-0.4,0-0.8,0-1.1,0.1v-1.5c-0.6,0.8-0.9,1-1.7,1.7
				c-0.4-0.6-0.5-0.9-0.9-1.3V36z M76.2,31.3c0-0.8,0-1.2,0-1.9c-0.7,1.7-1.2,2.6-2.1,3.8c0.3,0,0.6,0,1.1,0h1.1V31.3z M79.1,33.3
				c0.5,0,0.7,0,1.1,0c-0.9-1.2-1.6-2.3-2.3-3.9c0,0.9,0,1.3,0,1.9v2H79.1z"/>
			<path class="st1" d="M91.5,23.4c0.1,1.1,0.5,3.4,1.1,5c1-0.4,1-0.4,4.1-1.4c0.3-0.1,0.4-0.1,0.6-0.2l0.7,2
				c-1.4,0.3-3.5,0.9-5.3,1.5c-2.3,0.9-3.5,1.9-3.5,3c0,1.2,1.1,1.7,3.7,1.7c2,0,4-0.2,5.2-0.7l0.2,2.2c-0.4,0-0.4,0-1.3,0.1
				c-1.7,0.2-2.6,0.2-3.7,0.2c-2.2,0-3.6-0.3-4.6-0.9c-0.9-0.5-1.4-1.5-1.4-2.7c0-1.1,0.5-2.1,1.4-2.9c0.6-0.5,1.1-0.8,2.2-1.4
				c-0.4-1.3-0.7-2.4-1.1-4.3c-0.2-0.8-0.2-0.8-0.3-1L91.5,23.4z"/>
			<path class="st1" d="M102.6,37.8c0.1-0.5,0.1-1.1,0.1-2.1V25.6c0-0.8,0-1.3-0.1-1.9c0.6,0.1,1.1,0.1,1.9,0.1h10
				c0.8,0,1.3,0,1.9-0.1c-0.1,0.6-0.1,1.1-0.1,1.9v10.2c0,1,0,1.6,0.1,2.1h-1.8v-0.9h-10.1v0.9H102.6z M104.4,35.4h10.1V25.3h-10.1
				V35.4z M110.6,26.8c0-0.6,0-0.8-0.1-1.2h1.8c-0.1,0.3-0.1,0.6-0.1,1.2v0.6h0.4c0.5,0,1,0,1.3-0.1v1.6c-0.3,0-0.8-0.1-1.3-0.1
				h-0.4v4.5c0,1.3-0.4,1.6-2.2,1.6c-0.4,0-0.5,0-1.5-0.1c-0.1-0.8-0.1-1-0.4-1.6c0.9,0.1,1.5,0.2,1.9,0.2c0.4,0,0.5-0.1,0.5-0.4
				v-4.2h-4c-0.7,0-1.1,0-1.5,0.1v-1.6c0.4,0.1,0.8,0.1,1.5,0.1h4V26.8z M107.9,33c-0.7-1.4-1.1-2-1.9-3l1.3-0.9
				c0.9,1.1,1.3,1.6,2,3L107.9,33z"/>
			<path class="st1" d="M123.3,36c0,0.8,0,1.4,0.1,1.9h-1.9c0.1-0.6,0.1-1.1,0.1-1.9v-4.4c0-0.8,0-1.1,0-1.8
				c-0.4,0.7-0.7,1.2-1.2,1.7c-0.2-0.8-0.4-1.3-0.7-1.9c1.8-1.9,2.9-4.1,3.4-6.5l1.8,0.5c-0.6,1.6-1,2.6-1.5,3.7v6.3
				c1.7-1.3,3.3-3.5,4.2-5.8h-1.7c-0.5,0-1.2,0-1.7,0.1V26c0.5,0,1.1,0.1,1.7,0.1h2.3v-1.5c0-0.5,0-1-0.1-1.5h1.9
				c-0.1,0.5-0.1,1-0.1,1.5v1.4h3c0.7,0,1.3,0,1.8-0.1v1.8c-0.5-0.1-1.2-0.1-1.8-0.1h-2.4c0.5,1.2,1,2,1.9,3.2
				c0.7,0.9,1.5,1.8,2.7,2.7c-0.4,0.5-0.7,0.9-1.1,1.6c-0.8-0.8-1.2-1.2-1.8-1.9v1.5c-0.3,0-0.7-0.1-1.2-0.1h-1.2v1.3
				c0,0.6,0,1.2,0.1,1.7h-1.9c0.1-0.6,0.1-1.2,0.1-1.7v-1.3h-1.1c-0.4,0-0.8,0-1.1,0.1v-1.5c-0.6,0.8-0.9,1-1.7,1.7
				c-0.4-0.6-0.5-0.9-0.9-1.3V36z M128.2,31.3c0-0.8,0-1.2,0-1.9c-0.7,1.7-1.2,2.6-2.1,3.8c0.3,0,0.6,0,1.1,0h1.1V31.3z M131,33.3
				c0.5,0,0.7,0,1.1,0c-0.9-1.2-1.6-2.3-2.3-3.9c0,0.9,0,1.3,0,1.9v2H131z"/>
			<path class="st1" d="M144.7,32.8c-0.9,2.1-1.9,3-3.2,3c-1.8,0-3.1-1.9-3.1-4.4c0-1.8,0.6-3.4,1.8-4.7c1.3-1.5,3.2-2.2,5.5-2.2
				c3.8,0,6.3,2.3,6.3,5.9c0,2.8-1.4,5-3.9,6c-0.8,0.3-1.4,0.5-2.5,0.7c-0.3-0.8-0.5-1.2-1-1.9c1.5-0.2,2.4-0.4,3.2-0.9
				c1.4-0.8,2.2-2.3,2.2-4c0-1.5-0.7-2.8-2-3.6c-0.5-0.3-0.9-0.4-1.6-0.5C146.1,28.8,145.5,31,144.7,32.8z M142.3,27.1
				c-1.3,1-2.2,2.6-2.2,4.3c0,1.3,0.6,2.4,1.3,2.4c0.5,0,1.1-0.7,1.6-2c0.6-1.4,1.1-3.6,1.3-5.4C143.6,26.4,143,26.6,142.3,27.1z"/>
			<path class="st1" d="M51.7,53.2c0.4,0.1,0.7,0.1,1.3,0.1h1.2c0.5,0,0.8,0,1.2-0.1c0,0.5-0.1,0.9-0.1,1.7v3.4
				c0.3,0.4,0.4,0.6,0.7,0.8c0.8,0.5,1.7,0.7,3.7,0.7c3.2,0,5.1-0.1,6.9-0.3c-0.3,0.9-0.3,1-0.5,1.9c-1.3,0.1-3.7,0.1-5.6,0.1
				c-2.8,0-3.7-0.1-4.7-0.6c-0.6-0.3-0.9-0.6-1.4-1.2c-0.8,0.7-1.1,1-1.9,1.5c-0.2,0.1-0.3,0.2-0.5,0.4l-0.8-1.8
				c0.6-0.2,1.5-0.8,2.3-1.6v-3.5h-0.9c-0.4,0-0.7,0-1.1,0.1V53.2z M53,47.2c1.1,0.9,1.7,1.6,2.8,2.9l-1.3,1.3c-1-1.3-1.5-1.9-2.7-3
				L53,47.2z M57.1,49.7c-0.7,0-1,0-1.3,0.1v-1.6c0.5,0.1,1,0.1,1.8,0.1h2.4c0-0.5,0-0.8-0.1-1.2h1.8c-0.1,0.4-0.1,0.7-0.1,1.2h2.6
				c0.8,0,1.4,0,1.8-0.1v1.6c-0.4-0.1-0.8-0.1-1.6-0.1h-2.8v0.8h2.5c0.6,0,0.9,0,1.3-0.1c0,0.4-0.1,0.7-0.1,1.2v3.3
				c0,0.5,0,0.8,0.1,1.2c-0.4,0-0.8,0-1.3,0h-2.5v0.8h2.9c0.8,0,1.2,0,1.6-0.1v1.6c-0.4-0.1-0.8-0.1-1.6-0.1h-2.9
				c0,0.5,0,0.9,0.1,1.3H60c0.1-0.5,0.1-0.7,0.1-1.3h-2.5c-0.6,0-1.2,0-1.6,0.1v-1.5c0.3,0,0.7,0.1,1.6,0.1h2.5V56h-2.3
				c-0.5,0-0.9,0-1.3,0c0-0.4,0.1-0.7,0.1-1.2v-3.4c0-0.5,0-0.7-0.1-1.1c0.4,0,0.8,0.1,1.3,0.1h2.3v-0.8H57.1z M58.1,51.7v0.9h2
				v-0.9H58.1z M58.1,53.8v0.9h2v-0.9H58.1z M61.7,52.6h2.1v-0.9h-2.1V52.6z M61.7,54.7h2.1v-0.9h-2.1V54.7z"/>
			<path class="st1" d="M80.8,54.1h1.9c0.7,0,1.1,0,1.5-0.1v1.4c-0.4-0.1-0.8-0.1-1.4-0.1h-6.3c-0.4,0-0.7,0-1.2,0
				c0-0.4,0-0.7,0-1.2v-1.3c0-0.5,0-0.7,0-1.2c-0.2,0.3-0.4,0.6-0.8,0.9c-0.2-0.5-0.4-0.7-0.7-1.1c-0.1,0-0.2,0-0.4,0h-0.2V54
				c0.5-0.2,0.7-0.3,1.6-0.6l0,1.6c-0.8,0.3-0.9,0.4-1.6,0.6v4.6l0,0.3c1.9-0.5,2.9-1.4,3.2-3h-1c-0.4,0-0.7,0-1.1,0.1v-1.7
				c0.4,0.1,0.7,0.1,1.3,0.1h5.3c0.6,0,1,0,1.3,0c-0.1,0.3-0.1,0.3-0.2,0.7c-0.1,0.2-0.2,0.6-0.3,0.9H83c0.6,0,0.9,0,1.2-0.1
				c-0.1,0.5-0.1,0.5-0.1,0.9c-0.2,1.3-0.5,2.2-0.8,2.7c-0.4,0.5-0.8,0.7-1.9,0.7c-0.5,0-1.1,0-1.9-0.1c-0.1-0.7-0.2-1-0.4-1.6
				c0.8,0.1,1.4,0.2,1.9,0.2c0.5,0,0.7,0,0.8-0.3c0.1-0.2,0.2-0.4,0.4-1h-1.6c-0.4,0-0.8,0-1,0c0.2-0.4,0.4-0.8,0.5-1.5h-1.9
				c-0.2,1.1-0.6,2-1.3,2.8c-0.7,0.8-1.5,1.2-2.8,1.7c-0.3-0.5-0.5-0.9-0.8-1.4c-0.1,0.6-0.3,0.8-0.8,1c-0.5,0.1-0.8,0.2-1.5,0.2
				c-0.2,0-0.4,0-0.8,0c0-0.7-0.1-1-0.4-1.7c0.5,0.1,0.9,0.1,1.3,0.1c0.4,0,0.5-0.1,0.5-0.5v-3.6c-0.4,0.1-0.5,0.2-0.9,0.3
				c-0.3,0.1-0.5,0.2-0.8,0.3l-0.3-1.8c0.5,0,1-0.1,2-0.4v-3H71c-0.4,0-0.8,0-1.2,0.1v-1.7c0.4,0.1,0.7,0.1,1.2,0.1h0.6v-1.2
				c0-0.8,0-1.1-0.1-1.6h1.9c-0.1,0.5-0.1,0.9-0.1,1.6V50h0.2c0.4,0,0.6,0,0.9-0.1v0.6c1-1.1,1.7-2.4,2-3.6l1.7,0.4
				c-0.3,0.8-0.4,0.9-0.7,1.3h2c0.3-0.5,0.5-0.9,0.8-1.5l1.7,0.3c-0.3,0.6-0.5,0.9-0.7,1.2h1.6c0.7,0,1.1,0,1.4-0.1V50
				c-0.4-0.1-0.7-0.1-1.2-0.1h-2v0.6h1.3c0.8,0,1.1,0,1.5-0.1v1.3c-0.4,0-0.7,0-1.5,0h-1.3v0.6h1.3c0.8,0,1.1,0,1.5-0.1v1.3
				c-0.3,0-0.7,0-1.5,0h-1.3V54.1z M79.3,49.9h-2.4v0.6h2.4V49.9z M79.3,51.7h-2.4v0.6h2.4V51.7z M76.9,53.5v0.6h2.4v-0.6H76.9z"/>
			<path class="st1" d="M88.4,49c0.7,0.1,1.7,0.2,3.7,0.2c0.4-1,0.6-1.4,0.6-2l2.1,0.2c-0.1,0.2-0.1,0.2-0.6,1.4
				c-0.1,0.2-0.1,0.2-0.1,0.3c0.1,0,0.1,0,1-0.1c1.9-0.1,3.3-0.3,4.2-0.5l0.1,1.8c-0.4,0-0.4,0-1.3,0.1c-1.2,0.1-3.2,0.3-4.8,0.3
				c-0.5,0.9-0.9,1.6-1.5,2.1l0,0c0.1-0.1,0.1-0.1,0.3-0.2c0.6-0.4,1.4-0.7,2.3-0.7c1.2,0,2,0.6,2.3,1.7c1.2-0.4,2-0.7,2.4-0.9
				c0.9-0.3,0.9-0.3,1.2-0.5l0.8,1.8c-0.4,0.1-0.9,0.2-1.8,0.4c-0.2,0.1-1,0.3-2.4,0.8v0.2c0,0.4,0,0.4,0,0.6c0,0.2,0,0.4,0,0.6
				c0,0.3,0,0.4,0,0.5c0,0.4,0,0.6,0,0.8l-1.9,0c0.1-0.3,0.1-1.1,0.1-1.9c0-0.2,0-0.2,0-0.4c-0.8,0.4-1.2,0.6-1.5,0.8
				c-0.6,0.4-0.8,0.8-0.8,1.3c0,0.8,0.8,1.2,2.7,1.2c1.9,0,3.6-0.2,4.7-0.7l0.2,2.1c-0.3,0-0.4,0-0.7,0.1c-1.2,0.2-2.7,0.3-4.1,0.3
				c-1.7,0-2.8-0.2-3.6-0.7c-0.7-0.4-1.2-1.2-1.2-2.1c0-0.7,0.2-1.2,0.7-1.8c0.7-0.9,1.6-1.5,3.4-2.3c-0.1-0.6-0.4-0.9-1-0.9
				c-0.9,0-2,0.6-3.3,1.6c-0.7,0.6-1,1-1.4,1.5l-1.5-1.4c0.4-0.3,0.9-0.8,1.4-1.4c0.6-0.7,1.6-2.1,1.9-2.7c0.1-0.1,0.1-0.1,0.1-0.2
				c-0.1,0-0.3,0-0.3,0c-0.3,0-1.7,0-2,0c-0.3,0-0.3,0-0.4,0c0,0-0.1,0-0.3,0L88.4,49z"/>
			<path class="st1" d="M105.4,53.5c0.7,0.3,1.2,0.4,2.8,0.6c0.1-0.6,0.2-1.6,0.3-2.2c-0.9-0.1-1.2-0.2-2.3-0.4
				c-0.2,0-0.3-0.1-0.5-0.1l0.2-1.8c0.7,0.3,1.8,0.5,2.9,0.6c0.2-1.3,0.3-2.2,0.3-2.7c0,0,0-0.1,0-0.2l2.1,0.2
				c-0.2,0.5-0.2,0.7-0.5,2.7c1.8,0,2.7-0.1,3.6-0.3l-0.1,1.9c-0.2,0-0.3,0-0.6,0.1c-1.2,0.1-1.7,0.1-2.2,0.1c-0.2,0-0.3,0-1,0
				c-0.2,1.2-0.2,1.5-0.3,2.3c0.5,0,0.6,0,0.8,0c1.1,0,2.3-0.1,3.1-0.3l0,1.8c-0.2,0-0.2,0-0.5,0c-0.7,0.1-1.6,0.1-2.4,0.1
				c-0.3,0-0.4,0-1,0c0,0.4-0.1,0.8-0.1,1.1c0,0.8,0.2,1.3,0.6,1.6c0.5,0.4,1.1,0.6,2,0.6c2,0,3.2-0.9,3.2-2.5
				c0-0.9-0.5-1.8-1.4-2.7c0.9-0.1,1.2-0.1,2-0.4c0.4,0.5,0.6,0.7,0.8,1c0.4,0.7,0.7,1.6,0.7,2.4c0,1.1-0.6,2.2-1.5,3
				c-0.9,0.7-2.1,1.1-3.6,1.1c-2.9,0-4.5-1.4-4.5-4c0-0.4,0-0.8,0.1-1.4c-1-0.1-1.6-0.2-2.2-0.4c-0.3-0.1-0.4-0.1-0.6-0.1
				L105.4,53.5z"/>
			<path class="st1" d="M122,53.2c0.4,0,0.4,0,1.7-0.3c2.2-0.5,3.6-0.7,4.9-0.7c1.8,0,3.1,0.5,3.8,1.6c0.4,0.6,0.6,1.3,0.6,2.1
				c0,2.1-1.5,3.9-4,4.7c-1,0.3-1.4,0.4-3.5,0.6c-0.2-0.8-0.3-1.1-0.7-1.8c0.1,0,0.2,0,0.2,0c0.6,0,1.5-0.1,2.3-0.2
				c1.2-0.2,2-0.5,2.7-1.1c0.8-0.6,1.1-1.3,1.1-2.2c0-1.2-0.9-1.9-2.6-1.9c-1.1,0-2.3,0.2-4.2,0.6c-1,0.2-1.3,0.3-1.9,0.5L122,53.2z
				"/>
			<path class="st1" d="M142.5,47.4c0.1,1.1,0.5,3.4,1.1,5c1-0.4,1-0.4,4.1-1.4c0.3-0.1,0.4-0.1,0.6-0.2l0.7,2
				c-1.4,0.3-3.5,0.9-5.3,1.5c-2.3,0.9-3.5,1.9-3.5,3c0,1.2,1.1,1.7,3.7,1.7c2,0,4-0.2,5.2-0.7l0.2,2.2c-0.4,0-0.4,0-1.3,0.1
				c-1.7,0.2-2.6,0.2-3.7,0.2c-2.2,0-3.6-0.3-4.6-0.9c-0.9-0.5-1.4-1.5-1.4-2.7c0-1.1,0.5-2.1,1.4-2.9c0.6-0.5,1.1-0.8,2.2-1.4
				c-0.4-1.3-0.7-2.4-1.1-4.3c-0.2-0.8-0.2-0.8-0.3-1L142.5,47.4z"/>
			<path class="st1" d="M44.1,79.4c0-0.6,0-0.9,0-1.8c-0.4,0.8-0.7,1.1-1.2,1.7c-0.3-0.9-0.4-1.2-0.8-2c1.1-1.1,1.9-2.4,2.6-4.1
				c0.3-0.9,0.6-1.6,0.6-2.2l1.8,0.7c-0.3,1-0.9,2.4-1.3,3.4V84c0,0.7,0,1.2,0.1,1.9H44c0.1-0.7,0.1-1.1,0.1-1.9V79.4z M51.2,77.2
				h-2c-0.8,0-1.2,0-1.6,0.1c0-0.4,0.1-0.8,0.1-1.5V73c0-0.6,0-0.9-0.1-1.4c0.5,0.1,0.9,0.1,1.7,0.1h5.2c0.8,0,1.3,0,1.8-0.1
				c-0.1,0.4-0.1,0.7-0.1,1.5v2.6c0,0.6,0,1,0.1,1.4c-0.4,0-0.9,0-1.6,0h-1.9v2h2.3c0.7,0,1,0,1.5-0.1v1.7c-0.5-0.1-0.8-0.1-1.5-0.1
				h-2.3v2.7c0.7,0.1,1.5,0.2,2.6,0.2c0.5,0,1,0,1.9-0.1c-0.2,0.7-0.3,1.1-0.4,1.9c-0.9,0-0.9,0-1.2,0c-1.9,0-3.7-0.3-4.7-0.8
				c-0.9-0.4-1.6-1-2.3-2c-0.4,1.3-0.8,2.1-1.6,3.2c-0.4-0.5-0.7-0.8-1.3-1.2c0.8-1,1.3-2.1,1.7-3.5c0.2-0.8,0.4-2.1,0.4-2.8
				c0-0.1,0-0.1,0-0.3l1.8,0.3c0,0.2,0,0.2-0.1,0.7c0,0.1-0.1,0.7-0.3,1.7c0.5,0.9,1,1.5,1.8,2V77.2z M49.3,75.6h5.2v-2.3h-5.2V75.6
				z"/>
			<path class="st1" d="M60.8,77.1c0.4,0.1,0.7,0.1,1.3,0.1h1.2c0.5,0,0.8,0,1.2-0.1c0,0.5-0.1,0.9-0.1,1.7v3.3
				c0.4,0.7,0.6,0.9,1.2,1.2c0.7,0.3,1.7,0.5,3.5,0.5c3,0,5-0.1,6.7-0.4c-0.3,0.8-0.4,1.1-0.5,1.9c-1.4,0.1-3.5,0.1-5.4,0.1
				c-2.4,0-3.5-0.1-4.3-0.4c-0.8-0.3-1.4-0.7-2-1.5c-0.7,0.7-1,0.9-1.9,1.6c-0.2,0.1-0.4,0.3-0.5,0.4l-0.8-1.8
				c0.6-0.3,1.3-0.8,2.3-1.6v-3.4h-0.9c-0.4,0-0.7,0-1.1,0.1V77.1z M62.2,71.3c1.2,1,2,1.9,2.8,2.9l-1.3,1.3c-1-1.3-1.5-1.9-2.7-3
				L62.2,71.3z M71.7,81.2h1.9c0.8,0,1.2,0,1.6-0.1v1.6c-0.4-0.1-0.9-0.1-1.6-0.1h-6.3c-0.7,0-1,0-1.5,0.1c0-0.5,0.1-0.8,0.1-1.6
				v-4.1c0-0.3,0-0.6,0-0.9c-0.3,0.5-0.5,0.7-1,1.2c-0.4-0.7-0.6-1-1-1.4c1.6-1.5,2.3-2.5,3-4.2c0.1-0.3,0.2-0.5,0.2-0.7l1.8,0.3
				c-0.3,0.5-0.3,0.5-0.5,1c0,0-0.2,0.3-0.5,0.9h2c0.5-0.8,0.8-1.4,1-2.1l1.7,0.3c-0.1,0.2-0.2,0.3-0.4,0.7
				c-0.2,0.4-0.4,0.7-0.7,1.1h1.7c0.7,0,1.2,0,1.6-0.1v1.6c-0.4,0-0.8-0.1-1.4-0.1h-2v1.2H73c0.9,0,1.2,0,1.6-0.1v1.5
				c-0.4,0-0.7,0-1.6,0h-1.3v1.2H73c0.9,0,1.2,0,1.6-0.1v1.5c-0.4,0-0.7,0-1.6,0h-1.3V81.2z M70.1,74.7h-2.4v1.2h2.4V74.7z
				 M70.1,77.3h-2.4v1.2h2.4V77.3z M67.6,79.8v1.4h2.4v-1.4H67.6z"/>
			<path class="st1" d="M82.4,71.8c-0.1,0.5-0.1,0.9-0.2,2.2c-0.1,1.5-0.2,4.7-0.2,5.9c0,1.5,0.1,2.1,0.4,2.6
				c0.4,0.5,1.1,0.8,2.1,0.8c1.7,0,3.1-1,3.9-2.7c0.4-0.8,0.6-1.6,0.7-2.7c0.9,0.7,1.2,0.9,1.9,1.2c-0.6,2.2-1.1,3.2-1.9,4.1
				c-1.2,1.4-2.8,2-4.8,2c-1.1,0-2.1-0.3-2.8-0.7c-1.1-0.7-1.6-2-1.6-4.1c0-0.8,0-2.4,0.1-6.5c0-0.5,0-0.8,0-1c0-0.4,0-0.7-0.1-1.1
				L82.4,71.8z"/>
			<path class="st1" d="M94.5,73.9c0.6,0.1,1.2,0.1,2.1,0.1c0.2,0,0.4,0,0.7,0c0.1-0.8,0.3-2,0.3-2.4c0-0.1,0-0.2,0-0.3l2.1,0.2
				c-0.1,0.4-0.1,0.4-0.3,1.5c-0.1,0.4-0.1,0.5-0.2,0.9c1.2-0.1,1.9-0.2,2.7-0.5l0.1,1.8c-0.1,0-0.1,0-0.5,0.1
				c-0.8,0.2-2.1,0.3-2.6,0.3c-0.2,1-0.6,2.7-1,4.1c-0.5,1.7-0.7,2.5-1.8,5.3l-2-0.8c1.1-2,2.3-5.8,2.9-8.6c-0.1,0-0.2,0-0.2,0h-0.9
				c-0.1,0-0.2,0-0.5,0c-0.3,0-0.5,0-0.6,0c-0.1,0-0.2,0-0.3,0L94.5,73.9z M102.5,80.1c-0.6,0.8-0.8,1.2-0.8,1.8
				c0,0.8,0.8,1.2,2.4,1.2c1.2,0,2.7-0.3,3.6-0.6l0.1,2c-0.3,0-0.4,0-0.8,0.1c-1.3,0.2-2,0.3-3,0.3c-1.4,0-2.4-0.2-3.2-0.6
				c-0.7-0.4-1.1-1.2-1.1-2c0-0.8,0.3-1.6,1.2-2.8L102.5,80.1z M107.2,78c-0.8-0.1-1.2-0.1-2-0.1c-1.6,0-2.6,0.1-4.2,0.5l-0.1-1.8
				c2.3-0.4,3-0.5,4.8-0.5c0.4,0,0.6,0,1.6,0L107.2,78z"/>
			<path class="st1" d="M113.7,72.8c-0.1,0.6-0.1,1.4-0.1,2.4c0,1.4,0.1,3.3,0.3,4.3c0.3,1.7,0.8,2.7,1.3,2.7c0.2,0,0.5-0.2,0.7-0.7
				c0.4-0.9,0.7-1.8,0.8-2.9c0.6,0.6,0.8,0.9,1.6,1.5c-0.8,3.1-1.8,4.4-3.1,4.4c-1.1,0-1.9-0.8-2.6-2.3c-0.7-1.6-0.9-3.9-1-8.4
				c0-0.6,0-0.7-0.1-1H113.7z M121.3,73.5c2,2.4,3.1,5.1,3.6,8.6l-2,0.8c-0.1-1.5-0.5-3.2-1-4.6c-0.5-1.5-1.3-2.8-2.3-3.9
				L121.3,73.5z"/>
			<path class="st1" d="M131.3,78.4c0,0.8-0.6,1.4-1.4,1.4s-1.4-0.6-1.4-1.4c0-0.8,0.6-1.4,1.4-1.4S131.3,77.7,131.3,78.4z
				 M136.6,78.4c0,0.8-0.6,1.4-1.4,1.4s-1.4-0.6-1.4-1.4c0-0.8,0.6-1.4,1.4-1.4S136.6,77.7,136.6,78.4z M141.9,78.4
				c0,0.8-0.6,1.4-1.4,1.4c-0.8,0-1.4-0.6-1.4-1.4c0-0.8,0.6-1.4,1.4-1.4C141.3,77,141.9,77.7,141.9,78.4z"/>
			<path class="st1" d="M148.8,78.4c0,0.8-0.6,1.4-1.4,1.4s-1.4-0.6-1.4-1.4c0-0.8,0.6-1.4,1.4-1.4S148.8,77.7,148.8,78.4z
				 M154.1,78.4c0,0.8-0.6,1.4-1.4,1.4s-1.4-0.6-1.4-1.4c0-0.8,0.6-1.4,1.4-1.4S154.1,77.7,154.1,78.4z M159.5,78.4
				c0,0.8-0.6,1.4-1.4,1.4c-0.8,0-1.4-0.6-1.4-1.4c0-0.8,0.6-1.4,1.4-1.4C158.9,77,159.5,77.7,159.5,78.4z"/>
		</g>
	</g>
</g>
</svg>
