<?xml version="1.0" encoding="utf-8"?>
<!-- Generator: Adobe Illustrator 24.0.3, SVG Export Plug-In . SVG Version: 6.00 Build 0)  -->
<svg version="1.1" id="レイヤー_1" xmlns="http://www.w3.org/2000/svg" xmlns:xlink="http://www.w3.org/1999/xlink" x="0px"
	 y="0px" viewBox="0 0 124.5 110" style="enable-background:new 0 0 124.5 110;" xml:space="preserve">
<style type="text/css">
	.st0{fill:#418E8B;}
	.st1{fill:#FFFFFF;}
</style>
<path class="st0" d="M35.3,98.4c0,0.1-0.2,0.2-0.2,0.2c-0.3,0-0.6-0.1-0.8-0.4c-0.1-0.1-0.1-0.2,0-0.2c0.3-0.4,0.4-0.8,0.7-1.2
	c0.2-0.3,0.6-0.7,1-0.6c0.3,0.7-0.5,1.2-0.8,1.8C35.1,98,35.3,98.2,35.3,98.4 M34.9,93.5c0.4-0.2,0.7-0.8,1.2-0.4
	c0.1,0.1,0.2,0.2,0.1,0.3c-0.3,0.5-0.9,0.9-1.5,0.9C34.6,94,34.6,93.7,34.9,93.5z M122.9,37.3c-0.3,1-1.6,0.6-1.8,1.1
	c-0.5,1.1,0.1,2.9-0.4,4c-0.2,0.4-1.2,0.5-1.7,0.7c-0.6,0.8-0.7,2.1-1.2,2.8c-1,1.4-2.2,1.7-3.3,2.9c-1.2,1.2-2.4,3.6-2.9,4.3
	c-0.4,1.1-0.6,2.6-0.9,3.6c-0.1,0.5,0.3,0.7,0.4,1.1c0.2,0.6,0,1.3-0.4,1.8c-1.1,1.5-2.9,1.9-4.2,3.2c-1.6,1.8-1.2,4.3-2.2,6.3
	c-0.8,1.6-3.8,2.3-4.2,3.1c-0.3,0.6-0.8,1.8-1.6,2.2c-0.8,0.4-1.8,0.2-2.5,0.2c-0.3-0.1-0.9,0-1.1,0.1c-1.5,0.9-2.9,1.3-4.5,2
	c-0.6,0.3-1.2,1-1.5,1.6c-0.5,0.9-0.8,3.1-0.9,4c-0.2,1.4-1,1.5-1.5,2.7c-0.8,1.9,0.1,3.9,0.2,5.9c0,0.7,0.8,1.4,0.9,2
	c0.2,1.7-0.4,3.6-0.4,5.3c-1.9,0.4-3.9,0.8-5.9,1.2c-3.2,0.7-6.6,1.3-9.7,2.2c-3.1,1-6.6,1.8-9.6,3c-4,1.6-8.5,3.2-12.2,4.1
	c-1.5,0.1-3.7-0.2-5.1-0.1c-1.3,0.1-2.1,0.5-3.5,0.8c-0.7,0.2-2.2,0.3-3.1,0.2c-1-0.1-1.5,0.2-1.8-0.2c-0.2-0.3,0.7-0.7,0.9-1
	c1.1-2.6,2.7-6.1,4-8.3c0.4-0.7,0.7-1.3,1.4-1.2c0.6,0.1,2.8,1.2,3.1,1.6c0.2,0.2-1.8-0.4-1.5-0.2c0.9,0.6,1.7,1.2,1.7,2.4
	c0,0.3,0.3,0,0.4,0c1-0.7,2.6-0.3,3.3-1.2c0.7-1-1.4-0.6-1.2-1.3c0.1-0.3,1,0,1.4-0.2c1.1-0.5,2.1-0.3,3.3-0.4
	c0.4-0.1,1.1-0.6,1.5-1.1c0.3-0.2,0.5-0.2,0.6-0.4c1.2,0,1.8-0.4,2.8-1.1c0.2-0.2,0.6,0,0.8-0.1c0.7-0.2,1.2-0.8,1.6-1.1
	c0.2-0.2,1.3-0.9,2.1-0.6c0.5,0.2,0.9-0.5,0.8-0.9c-0.2-0.7-0.1-1.4,0-2.1c0.7-0.5,3.2-1.3,3.2-1.3l0.2,5.1c0,0-0.7,0.3-0.8,0.4
	c-0.3,0.4-0.8,0.4-0.5,0.8c0.2,0.4,2.1,0,2.5-0.1c0.4-0.1,0.9-0.7,0.5-0.9c-0.4-0.2-0.7-0.5,0.2-0.7c0.4-0.1,0.6-1.3,0.6-1.3
	L68.5,95L68,94.7l-0.2-3.3l4.1,0l0-1l-2.8-0.1L69,85.4l2.7-0.5l-2.3-0.4l-0.9-1.3l0.7-0.8c-0.4-0.5-0.7-0.8-1.3-1.1
	c-0.3-0.2-1.3-0.8-2.1-0.9c-1.2-0.1-2.5,0.9-3.6,0.7c-0.4-0.1-4.2-1.9-5-1.5l1,0.8l-1.2,1.3L56,80.9l0.5-0.8c0,0-0.9,0.4-1.3,0.9
	c-0.8,1.2,0.1,2.8-0.5,4c-0.2,0.4-1.4,1.1-1.9,1.2c-0.7-0.9,0.3-1.1,0.5-1.7c0.1-0.4-0.1-0.8-0.6-0.9c-0.3,0.1-0.9,0.2-1.3,0.4
	c-0.3,0.1-0.6,0.2-0.9,0.3c-0.1,0-0.5-0.6-0.6-0.6c-1.1,0.1-2.1,0-3-1c-0.3-0.3-1.4,0.9-1.9,1.2c-0.8,0-1.2,1.2-1.7,1.1
	c-0.5-0.1-0.4-1.1-0.9-1.3c-0.7-0.3-0.8,0-1.5,0.4c-0.4,0.2-0.8-0.1-0.8-0.3c-0.1,0.7-0.8,1.1-1.5,1.2c-0.3,0.1-1.4-0.8-1.7-1.2
	c-0.9-1.2-3-3.6-3-3.6s0.7-1.7,1-2.5c0.2-0.7,0.6-1.4,0.8-2.2c-0.8,0.5-2.5,4.2-2.5,4.2l-1.1-1.1c0.2-1.3,1.2-2.6,1.4-3.9
	c-0.6,0.9-1,1.6-1.4,2.1c-0.3,0.3-0.5-0.1-0.9-0.4c-0.4-0.3-0.6-0.4-0.8-0.7c-0.2-0.2,0.5-0.9,0.6-1.1c0.1-0.3-0.4-0.7-0.4-0.7
	l1.1-2.1c0,0,0.5-1.7,1.2-2.5c0.2-0.3,0.2-0.5-0.1-0.4c-0.1-0.6,0.2-1.6,0.2-2c0-1.4,0.1-2.8,0.5-4.2c0.1-0.5,0.6-1.5,0.7-1.9
	l-0.8-0.2c-0.3,0.9-1.2,2.8-1.1,3.8c0,0.4,0.1,0.8-0.2,1.3c-0.1,0.2-0.3,0.3-0.3,0.5c-0.1,0.3,0.2,0.7,0.3,0.9
	c0.3,1.1-1.9,3.7-1.9,3.7l0.6,0.6l-0.6,0.7l-0.6-0.6c0,0-1.3-0.5-1.9-0.1c0,0.5,1.2,0.5,1.2,0.5l-0.8,1.2l-1.3-0.4
	c-0.1,0.1-0.1,0.6-0.1,0.6l0.6,0.1l0,0.7l-0.5-0.2c0,0,0.3,3,0.2,3.4c0,0.2-0.6,0.1-0.6,0.4c0.1,0.6-0.1,1.8-0.2,2.5
	c-0.3,1.6-0.5,4.5-0.4,4.9c0.2,0.5,1.7,1.8,2.4,2.6c0.7,0.8,2.2,2.2,3,3.4c-0.7,1.4,1.4,3.6,0.9,4.1c-0.7,0.5-2.2-0.4-3.3-0.6
	c-0.4-0.1-0.5-0.7-0.9-0.5c-1.9,0.5-7-3.6-9.2-5.8c-0.6-0.5-1.4-1.2-1.4-1.9c0-2.3,1.1-4.9,1.9-7c0.2-2,0.4-4-0.2-6
	c-0.4-1.5-2.1-1.5-2.1-2.2c0.1-0.8-1.4-1.6-1.6-2.5c-0.2-1.6,0.1-3.7,0-5.7c0.1-0.5,0.4-1.8,0.4-2.2c0-0.6-0.3-1.4-0.3-1.4l1.2-1.6
	l0.6-0.1l0.2-1.1l0.9-1.4l0.5-0.3L18.7,54l0.4-1l1.6,0.8l0.5-0.6l-1.6-0.9l1.7-2.9l2,0l0.2-0.5l-0.8-0.1l0.3-1.5l1-0.3
	c0,0,0.3-0.8,0.3-1.1l-1.2-0.1l-1.5,2.7l-0.9-0.1l0.4-1.2l-0.2-0.6c0,0,0.4-0.7,0.7-1.1l1.4,0c0.6-1.1,0.3-2.7,1-3.8
	c-0.5,0.4-0.9,1.1-1.3,1.5c-0.6-0.2-0.8,0.2-1.2,0.3c-0.6,0.2-0.3,1.4-1,1.8c-0.1,0.1-0.5,0-0.5,0.1c0.1,0.5-0.1,0.7-0.2,1.3
	c-0.1,1-0.1,2.4-0.1,2.4l-1.2,1.2l-0.4-2l0.4-0.9c0,0-0.3-0.2-0.2-0.7c0.1-0.5,0.5-1.3,0.6-1.7c0.4-1.6-0.8-2.8-1-4.3
	c-0.3,1.2,0.3,2.3,0.2,3.5c0,0.1-0.7,0.2-0.7,0.2c-1-1.2-2.7-2.4-4-2.9l-0.8-0.2l0.4,0.8c1.1,1,2.4,1.3,3.2,2.7c0.2,0.4,0,0.7-0.3,1
	c-0.1,0.1,0,0.4,0.1,0.4c0.3,0.1,1.2-0.2,1.2,0.2c0.1,0.3-0.4,1.3-0.3,1.7l0.8,2.5L15.2,51l-0.3-2.8l-0.8-0.4l-0.8,0.2l0.2,3.2
	l-3,1.4c0,0-2.6-3.1-2.6-3.6c0.1-1.5,0.1-3.2,0.1-4.4c0-0.9-3.2-4.1-4.6-5.4c-1.2-0.3-2.6-0.9-3-1.9c0,0-0.2-1.8-0.2-2.6
	c-0.1-1.3-0.1-2.9,0.2-4.1c0.4-1,0.5-1.7,0.6-2.7c0.1-1-0.1-2.3-0.1-3.4c-0.1-0.5-0.1-1.2,0.1-1.5c0.4-0.8,1.3-1.4,2-2.1
	c0.8-0.8,1.3-1.7,1.6-2.3c0.9-0.8,1.6-1.7,2.2-2.8C7,15,7.6,13.5,8.1,12.4c0.2-0.4,0.3-0.7,0.4-1c0.2-1,0.6-1.4,0.9-2
	c0.8-1.6,0.8-1.9,1.3-2.5c0.2-0.4,0.3-0.8,0.7-0.8c0.4,0,1.7,0.2,1.9,0.6c0.2,0.4,0.4,0.8,1,0.8c0.6,0,2.9,0.4,3.5,0.2
	c1.2-0.3,1.5-0.9,2.8-1.3c0.9-0.3,2.4-0.5,3.5-0.7c0.8-0.1,2.2-0.2,3-0.3c0.3-0.1,1-1.3,1.9-1.9C29.6,3.1,30,3.1,30.5,3
	c0.3,0,0.6-0.7,0.8-0.9c0.3-0.3,0-1.3,0.4-1.6c0.4-0.3,2.1-0.9,2.2-0.3c0.2,0.6-0.7,1.6-0.5,2.2c0.2,0.7,1.7,0.8,1.9,1.5
	c0.3,0.9,1.1,1.8,1.5,1.9c1.3,0.3,2.1,0.9,3.4,1.8c0.8,0.6,0.2,1.9,0.3,3.1c0.8-0.3,2.1,0,2.3,0.6c0.2,0.8-0.4,2-0.1,2.8
	c0.2,0.6,1,0.4,1.4,0.8c0.3,0.4-0.1,1,0.3,1.5c0.1,0.2,0.9,0.3,1.2,0.2c0.8-0.9,1.9-1.4,2.9-0.6c0.8,0.5,1.4,0.9,2.2,1.3
	c0.2,0.1,0.5,0.8,0.7,1c0.6,0.6,2-0.5,2.3,0.4c0.3,1.2,0.9,3.1,2,3.1c1.7,0,3.1-0.5,4.7-1.2c0.9-0.2,2.4-0.2,2.8-0.9
	c0.5-0.9,0.7-2.2,1.7-2.1c0.6,0.1,1.2,0.2,1.7,0.2c0.4,0,0.7-0.2,1.2-0.2c0.4,0,1.3,0,1.6,0.2c0.7,0.4,0.9,1.2,1.6,1.6
	c0.7,0.4,1.4,1.1,1.7,1.9c0.5,0.3,1.1,0.3,2.2,0c0.7-0.2,1.5,0.1,1.8,0.5c0.6,0.6,0,2.2,0.6,2.5c0.7,0.4,1.5,0.3,2.3,0.5
	c0.6,0.2,1.2,0.7,1.6,1.3c0.6,0.2,3-1.6,4.3-2.2c1.1-0.8,2.4-1.5,3.7-2.3c1-0.6,1.2-1.9,2.1-2.6c0.9-0.8,2.9,0.3,3.9-0.2
	c0.5-0.2,0.3-0.8,0.8-0.8c0.2,0,0.4,0,0.6,0.2c0.2,0.3,0.4,0.8-0.3,1.6c-1.2,1.4-2,2.3-1.1,3.8c1.2,2.1,2.3,3,2.6,4.6
	c0.1,0.3,0.3,1.3,0.7,1.5c0.6,0.5,2.4-1.2,3.2-1.4c0.4-0.1,1.5,0.3,2.3,0.1c0.5-0.1,1.1-0.8,1.4-1.4c0.3-0.3,1-0.5,1.4-0.6
	c1.6-0.6,3.3-1.2,4-1.3c1.5-0.1,2.6,1.5,3.9,2c0.2,0.1,1,0,1.3,0c0.7-0.1,1.6-0.5,2.1,0c0.3,0.3,0,1.2,0.3,1.4
	c2.1,1.4,4.6-1.1,6.3-0.7c0.2,0.8-0.7,2.1-1.3,2.9c-0.3,0.3-0.8,1-0.5,1.3c0.6,0.6,1.5,0.9,1.7,1.4c0.2,0.5,0,0.9-0.2,1.7
	c0,0.1,0.3,0.6,0.3,0.7C124.5,36.7,123.4,36.9,122.9,37.3z M39.5,91.4c-0.1-0.1-0.2-0.2-0.3-0.1c-0.3,0.2-0.5,0.6-1,0.5
	c-0.3-0.1-0.3-0.4-0.2-0.6c0.1-0.3,0-0.5,0.1-0.8c0.3-0.6,1.2-0.6,1.7-0.1c0.2,0.2,0.2,0.4,0.4,0.5c0.1,0.1,0.4,0.2,0.5,0.3
	c0.1,0.1,0.2,0.2,0.2,0.3c-0.2,0.4-0.1,0.8-0.2,1.1c0,0.1-0.1,0.1-0.1,0.1c-0.4,0.1-0.8,0-0.9-0.4C39.5,92,39.7,91.7,39.5,91.4z"/>
<g>
	<path class="st1" d="M43.4,51.1c-0.7,1.4-1.2,2-2.4,3.1l-1.1-1.1c0.7-0.6,1-0.9,1.4-1.4h-1.7c0-0.5,0.1-0.8,0.1-1.2v-1
		c0-0.5,0-0.9-0.1-1.4c0.5,0.1,0.9,0.1,1.8,0.1h0.9c-0.1-0.4-0.3-0.6-0.4-0.9l-1.3,0c-0.1-0.6-0.3-0.9-0.6-1.5c0.7,0,1.3,0,1.6,0
		c2.4,0,5.9-0.2,7.9-0.4c1.1-0.1,1.7-0.3,2.5-0.5l1.2,1.5c-1.2,0.2-2.1,0.3-2.6,0.4l1.1,0.3c-0.2,0.3-0.2,0.3-0.5,0.7
		c-0.1,0.2-0.2,0.2-0.3,0.4h1c0.9,0,1.3,0,1.7-0.1c0,0.4-0.1,0.8-0.1,1.3v1c0,0.4,0,0.7,0.1,1.2h-1.5c0.7,0.7,0.8,0.8,1.3,1.5
		l-1.2,1.1c-0.8-1-1.4-1.8-2-2.5c-0.1,0.7-0.3,1-0.6,1.2c-0.4,0.3-0.9,0.4-2.9,0.4c-0.3,0-0.4,0-0.8,0c-0.3,0.3-0.3,0.4-0.5,0.7h3.5
		c0.6,0,1,0,1.3-0.1l1.1,1c-0.1,0.1-0.2,0.2-0.3,0.3c-1.1,1.1-1.6,1.5-2.5,2.1c1.7,0.5,3.4,0.8,5.8,0.8c-0.3,0.6-0.5,1-0.7,1.7
		c-2.9-0.2-4.8-0.6-6.9-1.5c-2,0.9-3.5,1.3-6.5,1.6c-0.2-0.6-0.4-1.1-0.8-1.6c2.6-0.2,3.9-0.4,5.6-1c-0.7-0.5-1-0.8-1.7-1.4
		c-0.9,0.6-1.5,0.9-2.8,1.5c-0.3-0.5-0.5-0.9-1-1.3c2.5-0.9,3.4-1.5,4.6-2.8c-0.5-0.1-0.6-0.3-0.6-0.8v-1.2V51.1z M43.4,51
		c0-0.4,0-0.5,0-0.8h1.7c0,0.3-0.1,0.5-0.1,0.9v0.7c0,0.3,0.1,0.3,1.8,0.3c0.8,0,1.4,0,1.6-0.1c0.3-0.1,0.4-0.3,0.5-1.3
		c0.4,0.2,0.5,0.3,0.8,0.4l1-0.8c0.5,0.5,0.6,0.6,1.3,1.3v-1.8h-5.1c0.6,0.4,0.8,0.6,1.4,1.2l-1.2,0.9c-0.7-0.8-1-1.1-1.7-1.6
		l0.8-0.5h-4.9v2c0.3-0.5,0.5-0.7,0.8-1.4L43.4,51z M46,48.3c-0.2-0.4-0.3-0.7-0.5-1c-0.4,0-0.7,0-0.8,0c-0.8,0-0.8,0-1.2,0
		c0.2,0.3,0.3,0.5,0.5,1H46z M44.6,55.3c0.6,0.6,1.1,0.9,2,1.4c0.8-0.4,1.3-0.7,2-1.4H44.6z M49.2,48.3c0.3-0.5,0.5-0.9,0.7-1.4
		c-0.9,0.1-1.7,0.2-2.8,0.2c0.2,0.5,0.4,0.8,0.5,1.1H49.2z"/>
	<path class="st1" d="M58.1,48.8c-0.4,0.9-0.8,1.4-1.4,2.2c-0.4-0.5-0.8-0.8-1.4-1.2c1-1.1,1.6-2.1,2-3.7c0.1-0.4,0.2-0.7,0.2-1
		l1.8,0.4c-0.1,0.2-0.1,0.4-0.3,0.8c-0.1,0.3-0.2,0.6-0.3,1h2.4c0.8,0,1.1,0,1.6-0.1v1.7c-0.5,0-1-0.1-1.6-0.1h-0.6
		c0,1.7,0,1.7-0.1,2.5h1c0.7,0,1.1,0,1.5-0.1V53c-0.4-0.1-0.9-0.1-1.6-0.1h-1.1c0,0.2,0,0.3-0.1,0.5c0.4,0.7,0.5,0.8,0.8,1.3
		c0.6,0.8,1.1,1.3,2.1,2c-0.4,0.5-0.7,1-1,1.7c-1.2-1.1-2-2-2.5-3c-0.6,1.6-1.4,2.6-3.1,4c-0.4-0.6-0.7-1-1.3-1.4
		c1.3-0.8,2.1-1.7,2.7-2.9c0.3-0.7,0.5-1.3,0.7-2.3h-1.2c-0.8,0-1.3,0-1.7,0.1v-1.8c0.5,0.1,0.9,0.1,1.8,0.1h1.4
		c0-0.5,0.1-1.3,0.1-2.5H58.1z M65.1,59.4h-1.8c0-0.5,0.1-1.2,0.1-1.8v-9.4c0-0.6,0-1.2-0.1-1.7c0.5,0.1,0.8,0.1,1.5,0.1h3.4
		c0.6,0,1,0,1.5-0.1c-0.1,0.5-0.1,1-0.1,1.7v9.3c0,0.7,0,1.4,0.1,2h-1.8v-1.1h-2.8V59.4z M65.1,56.8h2.7v-8.6h-2.7V56.8z"/>
	<path class="st1" d="M76.3,56.6c-1.2,1.5-2.1,2.4-3.7,3.2c-0.5-0.6-0.7-0.8-1.2-1.3c0.9-0.4,1.4-0.7,2.1-1.2
		c0.6-0.5,0.9-0.8,1.4-1.5L76.3,56.6z M79.4,58.3c0,0.9,0,1.3,0.1,1.8h-2c0.1-0.5,0.1-1,0.1-1.8v-2.7h-3.9c-0.7,0-1.2,0-1.7,0.1
		c0.1-0.4,0.1-0.8,0.1-1.7v-5.6c0-0.8,0-1.1-0.1-1.6h1.8c0,0.5-0.1,0.8-0.1,1.6v5.7h10.1c0.9,0,1.3,0,1.8-0.1v1.7
		c-0.5-0.1-1-0.1-1.8-0.1h-4.5V58.3z M84,51.9c0,0.6,0,1.1,0.1,1.5c-0.4,0-0.9-0.1-1.6-0.1h-5.8c-0.6,0-1.1,0-1.6,0.1
		c0-0.4,0.1-0.9,0.1-1.5v-4.8c0-0.5,0-1-0.1-1.4c0.5,0,0.9,0.1,1.6,0.1h5.8c0.6,0,1.1,0,1.5-0.1c0,0.4-0.1,0.8-0.1,1.5V51.9z
		 M76.9,47.9h5.4v-0.8h-5.4V47.9z M76.9,49.9h5.4v-0.8h-5.4V49.9z M76.9,52h5.4v-0.8h-5.4V52z M82.2,55.8c1.2,1.3,2,1.9,3.7,2.6
		c-0.5,0.6-0.7,0.8-1.2,1.5c-1-0.5-1.4-0.8-2-1.3c-0.8-0.6-1.2-1.1-1.9-1.9L82.2,55.8z"/>
</g>
</svg>
