<?xml version="1.0" encoding="utf-8"?>
<!-- Generator: Adobe Illustrator 24.0.3, SVG Export Plug-In . SVG Version: 6.00 Build 0)  -->
<svg version="1.1" id="レイヤー_1" xmlns="http://www.w3.org/2000/svg" xmlns:xlink="http://www.w3.org/1999/xlink" x="0px"
	 y="0px" viewBox="0 0 83.7 99.3" style="enable-background:new 0 0 83.7 99.3;" xml:space="preserve">
<style type="text/css">
	.st0{fill:#4A9143;}
	.st1{fill:none;stroke:#513813;stroke-width:4.9489;stroke-miterlimit:10;}
</style>
<g>
	<g>
		<g>
			<g>
				<g>
					<path class="st0" d="M44.1,48.1c12.2,0.7,22.3-9.9,21.6-22.7c-0.5-11-9-19.9-19.5-20.4C34.1,4.3,24,14.8,24.6,27.6
						C25.2,38.6,33.7,47.5,44.1,48.1z"/>
					<path class="st0" d="M75.7,99.3c4.3,0,7.5-4.3,6.6-9C78.8,70.6,64.2,53,46.8,53c-17.4,0-32,17.6-35.6,37.3
						c-0.8,4.6,2.3,9,6.6,9L75.7,99.3z"/>
				</g>
			</g>
		</g>
	</g>
	<g>
		<g>
			<g>
				<path class="st1" d="M39.5,47.8C53,48.5,64,37.5,63.4,24C62.8,12.5,53.4,3.1,41.9,2.5C28.4,1.8,17.3,12.9,18,26.3
					C18.6,37.9,28,47.3,39.5,47.8z"/>
				<path class="st1" d="M73.8,96.8c4.7,0,8.2-4.3,7.3-9c-3.9-19.7-20-37.3-39.2-37.4c-19.2,0-35.3,17.6-39.3,37.3
					c-0.9,4.6,2.6,9,7.3,9L73.8,96.8z"/>
			</g>
		</g>
	</g>
</g>
</svg>
