<?xml version="1.0" encoding="utf-8"?>
<!-- Generator: Adobe Illustrator 24.0.3, SVG Export Plug-In . SVG Version: 6.00 Build 0)  -->
<svg version="1.1" id="レイヤー_1" xmlns="http://www.w3.org/2000/svg" xmlns:xlink="http://www.w3.org/1999/xlink" x="0px"
	 y="0px" viewBox="0 0 204.6 161.4" style="enable-background:new 0 0 204.6 161.4;" xml:space="preserve">
<style type="text/css">
	.st0{fill:#7EC13E;stroke:#513813;stroke-width:4.5654;stroke-miterlimit:10;}
	.st1{fill:#FFFFFF;}
</style>
<g>
	<path class="st0" d="M179.1,2.3H25.4C12.7,2.3,2.3,12.7,2.3,25.4v59.3c0,12.7,10.4,23.1,23.2,23.1h13.5h4.7l-2.8,46.5l36.4-46.5
		h101.9c12.7,0,23.2-10.4,23.2-23.1V25.4C202.3,12.7,191.9,2.3,179.1,2.3z"/>
	<g>
		<g>
			<path class="st1" d="M29.5,35.7c-1.1,0-1.5,0-2,0.1v-2.1c0.6,0.1,0.9,0.1,2,0.1h7.3v-7h-7c-1.1,0-1.5,0-2,0.1v-2.1
				c0.6,0.1,0.9,0.1,2.1,0.1h7.7c0.8,0,0.8,0,1.4,0c0,0.4,0,0.6,0,1.3v8.8c0,0.8,0,1.2,0.1,1.6h-2.1v-1H29.5z"/>
			<path class="st1" d="M45.3,25c0.8,1.5,1.3,2.7,1.9,4.7l-2,0.6c-0.4-1.8-1.1-3.4-1.8-4.8L45.3,25z M56.6,25.1
				c-0.1,0.4-0.2,0.5-0.4,1.6c-1.1,5.1-3.7,8.4-8.5,10.7c-0.4-0.8-0.6-1.1-1.4-1.8c1.8-0.7,3.2-1.5,4.5-2.8c1.3-1.2,2.1-2.6,2.8-4.4
				c0.5-1.4,0.8-2.7,0.8-3.8L56.6,25.1z M49.4,24.2c0.8,1.3,1.4,2.7,1.9,4.5l-2,0.6c-0.5-1.8-0.9-3-1.8-4.6L49.4,24.2z"/>
			<path class="st1" d="M62.9,35.7c-1.1,0-1.5,0-2,0.1v-2.1c0.6,0.1,0.9,0.1,2,0.1h7.3v-7h-7c-1.1,0-1.5,0-2,0.1v-2.1
				c0.6,0.1,0.9,0.1,2.1,0.1h7.7c0.8,0,0.8,0,1.4,0c0,0.4,0,0.6,0,1.3v8.8c0,0.8,0,1.2,0.1,1.6h-2.1v-1H62.9z"/>
			<path class="st1" d="M78.7,25c0.8,1.5,1.3,2.7,1.9,4.7l-2,0.6c-0.4-1.8-1.1-3.4-1.8-4.8L78.7,25z M90,25.1
				c-0.1,0.4-0.2,0.5-0.4,1.6c-1.1,5.1-3.7,8.4-8.5,10.7c-0.4-0.8-0.6-1.1-1.4-1.8c1.8-0.7,3.2-1.5,4.5-2.8c1.3-1.2,2.1-2.6,2.8-4.4
				c0.5-1.4,0.8-2.7,0.8-3.8L90,25.1z M82.8,24.2c0.8,1.3,1.4,2.7,1.9,4.5l-2,0.6c-0.5-1.8-0.9-3-1.8-4.6L82.8,24.2z"/>
			<path class="st1" d="M95.5,32.2c-0.1,2.2-0.3,3.4-0.6,4.9l-1.4-0.7c0.4-1.3,0.5-2,0.6-4.4L95.5,32.2z M93.5,29.8
				c0.2,0,0.4,0,0.7,0c0.1,0,0.2,0,0.6,0c0.5-0.6,0.5-0.6,0.8-1.2c-0.6-0.8-1.2-1.5-2.1-2.4l0.8-1.4l0.6,0.7c0.6-0.9,1-1.9,1.2-2.6
				l1.5,0.6c-0.1,0.2-0.2,0.3-0.3,0.6c-0.5,1-1,1.8-1.4,2.5c0.3,0.4,0.4,0.5,0.6,0.8c0.9-1.5,1.2-2,1.4-2.7l1.4,0.8
				c-0.2,0.3-0.2,0.3-0.8,1.2c-0.5,0.8-1.5,2.2-2.1,3.1c0.9,0,1.2-0.1,1.6-0.1c-0.1-0.5-0.2-0.7-0.5-1.2l1.1-0.4
				c0.4,1,0.7,1.8,0.9,2.7v-0.4c0-0.6,0-0.8-0.1-1.2c0.3,0,0.6,0,1.4,0h5.5c0.7,0,1.1,0,1.5-0.1c0,0.4,0,0.6,0,1.1v1
				c0,0.5,0,0.8,0.1,1.1h-1.7v-1.8h-5.3v1.8h-1.6c0-0.4,0.1-0.4,0.1-1l-1,0.4c0-0.3-0.1-0.5-0.1-0.7c-0.4,0-0.5,0.1-1,0.1v5.1
				c0,0.8,0,1.2,0.1,1.7h-1.7C96,37.4,96,37,96,36.2v-4.9c-0.3,0-0.5,0-0.6,0c-0.3,0-0.5,0-0.6,0c-0.6,0-0.8,0-1,0.1L93.5,29.8z
				 M99.1,31.9c0.3,1.5,0.4,1.9,0.5,3.5l-1.3,0.4c-0.1-1.7-0.2-2.3-0.4-3.6L99.1,31.9z M103.3,31.4c0,0.3,0,0.3-0.1,1.2
				c-0.1,1.4-0.4,2.5-1.1,3.4c-0.6,0.8-1.1,1.2-2.6,1.9c-0.3-0.6-0.6-1.1-1.1-1.5c1.3-0.5,1.8-0.8,2.3-1.4s0.8-1.6,0.8-2.8
				c0-0.3,0-0.5,0-0.7H103.3z M101.2,25.8c-0.8,0-1.3,0-1.7,0.1v-1.6c0.5,0.1,1,0.1,1.8,0.1h1.5v-0.2c0-0.5,0-0.8-0.1-1.2h1.8
				c-0.1,0.4-0.1,0.7-0.1,1.2v0.1h2c0.8,0,1.3,0,1.8-0.1v1.6c-0.4-0.1-0.9-0.1-1.7-0.1h-2V27h1.6c0.8,0,1.2,0,1.6-0.1v1.6
				c-0.4,0-0.9-0.1-1.6-0.1h-4.7c-0.7,0-1.2,0-1.6,0.1v-1.6c0.5,0.1,0.9,0.1,1.6,0.1h1.4v-1.1H101.2z M105.7,31.4
				c-0.1,0.3-0.1,0.7-0.1,1.1v3.1c0,0.3,0.1,0.3,0.5,0.3c0.3,0,0.5-0.1,0.6-0.2c0.2-0.2,0.2-0.8,0.3-2.1c0.5,0.3,1,0.5,1.5,0.6
				c-0.1,1.3-0.2,2-0.4,2.4c-0.3,0.6-0.8,0.8-2.1,0.8c-1.6,0-2-0.3-2-1.3v-3.7c0-0.5,0-0.8-0.1-1.1H105.7z"/>
			<path class="st1" d="M116.7,31.6c-1.1,1.9-1.8,4-1.8,5.1l-1.9,0.1c0-0.2,0-0.3-0.1-0.6c-0.4-1.8-0.6-3.4-0.6-5.2
				c0-1.8,0.1-2.8,0.6-6.1c0.1-0.7,0.1-0.8,0.1-1.2l2.1,0.2c-0.2,0.6-0.3,1-0.5,2c-0.3,1.4-0.3,1.8-0.4,3.2
				c-0.1,1.1-0.1,1.5-0.1,1.8c0,0,0,0.2,0,0.5c0,0.2,0,0.4,0,1.2c0,0.1,0,0.2,0,0.3c0,0.3,0,0.4,0,0.6c0.3-0.9,0.7-1.9,1.1-2.6
				L116.7,31.6z M116.3,27c0.7,0.1,1.6,0.2,2.8,0.2c0.6,0,0.9,0,1.7-0.1c-0.1-2.8-0.1-3-0.2-3.5l2,0c0,0.3,0,0.4,0,0.5
				c0,0.2,0,0.3,0,1c0,0.2,0,0.8,0.1,1.8c1.1-0.2,1.8-0.4,2.4-0.6l0.1,1.9c-0.3,0-0.4,0-0.9,0.2c-0.7,0.2-0.9,0.2-1.6,0.3
				c0,0.3,0,0.5,0,0.8c0,1.7-0.1,3-0.3,3.8c-0.4,1.3-0.9,2.3-1.8,3.1c-0.5,0.4-0.9,0.7-1.7,1.2c-0.6-0.7-0.8-1-1.6-1.5
				c1.1-0.5,1.8-1,2.4-1.7c0.8-1,1.1-2.1,1.1-4.5c0-0.3,0-0.5,0-1c-0.5,0-1.4,0.1-2.2,0.1c-0.4,0-1,0-1.5,0c-0.5,0-0.5,0-0.7,0
				c-0.1,0-0.1,0-0.2,0V27z"/>
			<path class="st1" d="M129.1,25.4c0.4,0,0.5,0,0.6,0c0.3,0,0.3,0,2.6-0.2c0.9,0,3.6-0.2,8-0.4c1.3-0.1,1.6-0.1,1.8-0.2l0.1,2
				c-0.2,0-0.2,0-0.3,0c-1,0-2.1,0.3-3.2,0.9c-2,1.1-3.2,2.7-3.2,4.3c0,1.2,0.8,2.2,2.1,2.6c0.8,0.2,1.8,0.4,2.4,0.4
				c0,0,0.2,0,0.3,0l-0.3,2.2c-0.2,0-0.3-0.1-0.5-0.1c-1.8-0.2-2.8-0.5-3.7-1.1c-1.5-0.8-2.3-2.2-2.3-3.9c0-1.4,0.5-2.7,1.5-3.8
				c0.6-0.7,1.2-1.1,2.2-1.6c-1.3,0.2-1.9,0.2-5.4,0.5c-1.1,0.1-2,0.2-2.7,0.3L129.1,25.4z"/>
			<path class="st1" d="M146.7,25.6c0.5,0,0.8,0.1,1.5,0.1c1.2,0,2.1,0,3.3-0.2c0-0.1,0-0.1-0.2-0.4c-0.4-0.9-0.6-1.4-0.6-1.5l2-0.3
				c0.1,0.4,0.2,0.9,0.7,1.9c1.4-0.2,3.2-0.6,4.3-1l0.2,1.7c-0.2,0-0.2,0-0.5,0.1c-1.1,0.3-2.8,0.6-3.3,0.7c0.3,0.6,0.4,0.8,0.6,1.3
				c1.4-0.3,2.1-0.4,2.2-0.5c0.9-0.2,1.1-0.3,1.5-0.5l0.2,1.7c-0.3,0-0.6,0.1-1,0.2c-0.7,0.2-1.2,0.3-1.6,0.4
				c-0.4,0.1-0.4,0.1-0.6,0.1c0.8,1.4,1.1,1.7,2.1,2.9l-1.4,1c-1.2-0.5-2.1-0.7-3.7-0.7c-1.2,0-2.1,0.2-2.7,0.4
				c-0.4,0.3-0.7,0.6-0.7,1c0,0.4,0.3,0.8,0.7,0.9c0.5,0.2,1.4,0.4,2.3,0.4c1.7,0,3.9-0.5,4.9-1l0.3,2c-0.3,0-0.3,0-1,0.2
				c-1.4,0.4-2.7,0.5-4.1,0.5c-1.8,0-3-0.2-3.9-0.8c-0.8-0.5-1.2-1.3-1.2-2.2c0-0.9,0.5-1.7,1.3-2.2c0.8-0.5,2.1-0.8,3.7-0.8
				c1,0,1.9,0.1,2.8,0.3c-0.3-0.2-0.6-0.7-1.2-1.8c-1.7,0.3-2.7,0.3-6.2,0.4c-0.3,0-0.4,0-0.7,0l-0.1-1.7c0.5,0.1,0.6,0.1,1.6,0.1
				c1.7,0,3-0.1,4.5-0.3c-0.1-0.2-0.2-0.3-0.3-0.6c-0.2-0.3-0.2-0.4-0.3-0.7c-1.3,0.1-2.4,0.2-4.3,0.2c-0.7,0-0.8,0-1.1,0
				L146.7,25.6z"/>
			<path class="st1" d="M162.9,25.9c0.6,0.1,1.2,0.1,2.1,0.1c0.2,0,0.4,0,0.7,0c0.1-0.8,0.3-2,0.3-2.4c0-0.1,0-0.2,0-0.3l2.1,0.2
				c-0.1,0.4-0.1,0.4-0.3,1.5c-0.1,0.4-0.1,0.5-0.2,0.9c1.2-0.1,1.9-0.2,2.7-0.5l0.1,1.8c-0.1,0-0.1,0-0.5,0.1
				c-0.8,0.2-2.1,0.3-2.6,0.3c-0.2,1-0.6,2.7-1,4.1c-0.5,1.7-0.7,2.5-1.8,5.3l-2-0.8c1.1-2,2.3-5.8,2.9-8.6c-0.1,0-0.2,0-0.2,0h-0.9
				c-0.1,0-0.2,0-0.5,0c-0.3,0-0.5,0-0.6,0c-0.1,0-0.2,0-0.3,0L162.9,25.9z M170.8,32.1c-0.6,0.8-0.8,1.2-0.8,1.8
				c0,0.8,0.8,1.2,2.4,1.2c1.2,0,2.7-0.3,3.6-0.6l0.1,2c-0.3,0-0.4,0-0.8,0.1c-1.3,0.2-2,0.3-3,0.3c-1.4,0-2.4-0.2-3.2-0.6
				c-0.7-0.4-1.1-1.2-1.1-2c0-0.8,0.3-1.6,1.2-2.8L170.8,32.1z M175.6,30c-0.8-0.1-1.2-0.1-2-0.1c-1.6,0-2.6,0.1-4.2,0.5l-0.1-1.8
				c2.3-0.4,3-0.5,4.8-0.5c0.4,0,0.6,0,1.6,0L175.6,30z"/>
			<path class="st1" d="M59.5,49.4c-0.5,0-0.8,0-1.2,0.1v-1.7c0.4,0.1,0.8,0.1,1.4,0.1h1.6c0.6,0,1,0,1.4-0.1v1.7
				c-0.4-0.1-0.6-0.1-1-0.1h-0.2v3.2c0.4,0,0.6,0,0.9-0.1v1.6c-0.3,0-0.6,0-0.9,0v3c0.4-0.2,0.7-0.3,1.6-0.7V58
				c-1.5,0.7-2.4,1.1-3.7,1.6c-0.3,0.1-0.6,0.3-0.8,0.4l-0.4-1.8c0.3,0,0.8-0.1,1.8-0.5V54h-0.2c-0.4,0-0.8,0-1.1,0.1v-1.6
				c0.4,0.1,0.6,0.1,1.1,0.1h0.1v-3.2H59.5z M72.6,57.7c-0.1,0.1-0.2,0.2-0.4,0.4c-0.4,0.4-0.7,0.6-1.2,0.9c0.9,0.5,1.5,0.7,2.4,1
				c-0.3,0.4-0.6,1-0.9,1.6c-1.2-0.5-1.9-0.9-2.8-1.5c-0.8-0.6-1.1-0.9-1.6-1.6c0,0.5,0.1,0.8,0.1,1.2v0.9c0,0.6,0,0.9,0.1,1.3h-1.8
				c0.1-0.4,0.1-0.7,0.1-1.4v-0.9c0-0.3,0-0.8,0-1.1c-1,1.2-2,1.9-4.1,2.9c-0.3-0.6-0.6-1-1.1-1.5c2.1-0.7,3.5-1.6,4.6-2.9h-1.3
				c-0.5,0-1.1,0-1.3,0c0-0.2,0.1-0.5,0.1-1v-1.3c0-0.4,0-0.7,0-1c0.4,0,0.8,0,1.3,0h5.8c0.6,0,1.1,0,1.4,0c0,0.3,0,0.6,0,1v1.4
				c0,0.4,0,0.7,0,1c-0.2,0-0.3,0-0.5,0L72.6,57.7z M62.8,51.7c0.5,0.1,0.9,0.1,1.5,0.1h7.1c0.7,0,1.1,0,1.5-0.1v1.6
				c-0.5-0.1-0.9-0.1-1.5-0.1h-7.1c-0.6,0-1.1,0-1.5,0.1V51.7z M63.1,48.6c0-0.6,0-0.8-0.1-1.2c0.4,0,0.8,0.1,1.3,0.1h6.9
				c0.4,0,0.9,0,1.3-0.1c0,0.4-0.1,0.8-0.1,1.1v1.5c0,0.4,0,0.8,0,1.1c-0.4,0-0.6,0-1.2,0h-6.9c-0.6,0-0.8,0-1.3,0
				c0-0.3,0-0.5,0-1.1V48.6z M65.8,48.8h-1.2V50h1.2V48.8z M65.1,55.9h5.2v-0.8h-5.2V55.9z M68.4,48.8h-1.2V50h1.2V48.8z M68.6,57.2
				c0.4,0.4,0.6,0.7,1.1,1.1c0.6-0.4,0.8-0.6,1.3-1.1h-0.2H68.6z M71,48.8h-1.2V50H71V48.8z"/>
			<path class="st1" d="M77.9,49c0-0.8,0-1.3-0.1-1.8h1.9c-0.1,0.5-0.1,0.9-0.1,1.8v2.1c0.5,0,0.8,0,1.1,0v1.7
				c-0.3,0-0.6-0.1-1.1-0.1v3.9c0.4-0.2,0.6-0.3,1.4-0.6l0.1,1.7c-1.1,0.5-2.1,0.9-3.9,1.7c-0.3,0.1-0.5,0.2-0.7,0.3l-0.4-1.9
				c0.4-0.1,0.8-0.2,1.8-0.5v-4.6h-0.4c-0.5,0-0.9,0-1.3,0.1v-1.7c0.4,0.1,0.8,0.1,1.3,0.1h0.3V49z M82.9,58c-0.5,0-0.7,0-1.4,0
				c0-0.3,0-0.6,0-1.2V54c0-0.6,0-0.9-0.1-1.3c0.4,0,0.8,0,1.5,0h5.6c0.7,0,1.1,0,1.5,0c0,0.4-0.1,0.7-0.1,1.3v2.8
				c0,0.5,0,0.9,0.1,1.3c-0.4,0-0.7,0-1.3,0h-1.2v1.8c0,0.3,0.1,0.4,1,0.4c0.7,0,0.9,0,1-0.2c0.1-0.2,0.1-0.6,0.1-1.6
				c0.5,0.3,0.9,0.4,1.6,0.6c-0.2,2.4-0.5,2.7-2.8,2.7c-1,0-1.5-0.1-1.9-0.2c-0.4-0.2-0.5-0.4-0.5-1V58h-1.1c-0.1,1.1-0.4,1.7-1,2.4
				c-0.8,0.8-1.7,1.2-3.6,1.6c-0.3-0.7-0.5-1-0.9-1.5c2.7-0.3,3.7-1,3.9-2.5H82.9z M88.8,48.4c0.7,0,1.3,0,1.7-0.1v1.5
				c-0.5,0-0.8-0.1-1.6-0.1c-0.2,0.5-0.3,0.7-0.5,1.1h0.9c0.8,0,1.2,0,1.6-0.1v1.6c-0.5-0.1-0.9-0.1-1.7-0.1h-6.8c-0.8,0-1,0-1.5,0
				v-1.6c0.5,0,0.8,0.1,1.4,0.1h0.7c-0.1-0.4-0.2-0.7-0.4-1.1c-0.8,0-1,0-1.4,0.1v-1.5c0.5,0.1,1,0.1,1.7,0.1h1.9V48
				c0-0.4,0-0.7-0.1-1h1.9c-0.1,0.3-0.1,0.5-0.1,0.9v0.4H88.8z M83.2,54.7h5.2v-0.6h-5.2V54.7z M83.2,56.7h5.2V56h-5.2V56.7z
				 M86.7,50.8c0.2-0.4,0.3-0.7,0.5-1.1h-2.8c0.2,0.4,0.3,0.7,0.4,1.1H86.7z"/>
			<path class="st1" d="M95.2,51.2c1.2,0.6,1.9,1,3,1.9l-1,1.5c-1.1-0.9-1.8-1.4-3-2L95.2,51.2z M98.2,56.6
				c-0.8,1.9-1.6,3.7-2.4,4.9l-1.6-1.2c0.2-0.2,0.4-0.4,0.6-0.7c0.7-1,1.3-2.2,2-4L98.2,56.6z M95.8,47.2c1.4,0.9,1.8,1.2,2.8,2.1
				l-1,1.4c-1-0.9-1.6-1.4-2.9-2.2L95.8,47.2z M102.7,49.8c-1.6,0.2-1.9,0.2-3.3,0.3c-0.1-0.6-0.3-0.9-0.6-1.6
				c3.5-0.1,7.1-0.7,8.6-1.4l1.2,1.6c-0.3,0.1-0.3,0.1-0.8,0.2c-0.8,0.2-2.2,0.5-3.3,0.7v2.1h2.8c0.8,0,1.3,0,1.8-0.1v1.8
				c-0.5-0.1-1-0.1-1.8-0.1h-2.8v2.1h2.4c0.6,0,1,0,1.3-0.1c0,0.4-0.1,0.9-0.1,1.4v3.4c0,0.6,0,1.2,0.1,1.6h-1.8V61H101v0.8h-1.8
				c0-0.4,0.1-1,0.1-1.7v-3.5c0-0.5,0-0.9-0.1-1.4c0.4,0,0.7,0.1,1.3,0.1h2.2v-2.1h-2.5c-0.7,0-1.2,0-1.8,0.1v-1.8
				c0.5,0.1,1,0.1,1.8,0.1h2.5V49.8z M101,59.4h5.4v-2.5H101V59.4z"/>
			<path class="st1" d="M115.7,49c-1.1,0.1-1.6,0.1-2.8,0.2c-0.1-0.4-0.3-0.7-0.6-1.3c3.1,0,5.9-0.4,7-0.9l1,1.3
				c-0.1,0-0.7,0.1-0.9,0.1c-0.6,0.1-1.4,0.2-2.2,0.4v0.9h1.7c0.8,0,1.1,0,1.5-0.1v1.5c-0.2,0-0.4-0.1-1.2-0.1h-2v0.7h1.6
				c0.7,0,1,0,1.3,0c0,0.3,0,0.6,0,1.4v2.2c0,0.8,0,1.2,0,1.5c-0.4,0-0.7,0-1.4,0h-1.5v0.7h1.4c0.8,0,1.1,0,1.5-0.1v1.5
				c-0.3-0.1-0.5-0.1-1.1-0.1h-1.8v0.8c0.8-0.1,1.4-0.1,2.9-0.4v0.7c0.7-1,1.2-2.3,1.5-3.7c0.2-1.2,0.3-2.2,0.4-4.2
				c-0.7,0-0.9,0-1.3,0.1v-1.7c0.3,0,0.6,0.1,1.1,0.1h0.2c0-0.4,0-0.7,0-1.2c0-1.3,0-1.6-0.1-2h1.8c-0.1,0.4-0.1,0.4-0.1,3.2h1.4
				c0.7,0,1.1,0,1.5-0.1c-0.1,0.6-0.1,0.7-0.1,3c-0.1,4.1-0.3,6.4-0.7,7.3c-0.3,0.7-0.8,0.9-2,0.9c-0.3,0-1,0-1.3,0
				c0-0.7-0.1-1-0.4-1.7c-0.4,0.8-0.6,1.2-1.3,2.1c-0.3-0.5-0.7-0.9-1.3-1.3c-2.2,0.3-3.4,0.4-6.3,0.7c-0.3,0-0.5,0.1-0.9,0.1
				l-0.3-1.7c0.3,0,0.5,0,0.8,0c0.7,0,1,0,2.7-0.1v-0.9H114c-0.5,0-1.1,0-1.5,0.1v-1.5c0.4,0.1,0.8,0.1,1.5,0.1h1.6v-0.7h-1.4
				c-0.7,0-1.1,0-1.6,0c0-0.4,0-0.7,0-1.5v-2.1c0-0.8,0-1.1,0-1.5c0.4,0,0.9,0,1.6,0h1.4V51h-2c-0.7,0-1,0-1.5,0.1v-1.5
				c0.4,0.1,0.8,0.1,1.5,0.1h2V49z M114.3,52.9v0.7h1.4v-0.7H114.3z M114.3,54.8v0.7h1.4v-0.7H114.3z M117.2,53.6h1.4v-0.7h-1.4
				V53.6z M117.2,55.5h1.4v-0.7h-1.4V55.5z M123.7,52c-0.2,3.8-0.5,5.7-1.5,7.8c0.8,0.1,1.1,0.2,1.4,0.2c0.7,0,0.8-0.2,1-1.7
				c0.1-0.8,0.2-1.5,0.2-3.3c0-0.6,0-0.6,0-1.9c0-0.5,0-0.6,0-1.1H123.7z"/>
			<path class="st1" d="M136.6,56.8c-0.9,2.1-1.9,3-3.2,3c-1.8,0-3.1-1.9-3.1-4.4c0-1.8,0.6-3.4,1.8-4.7c1.3-1.5,3.2-2.2,5.5-2.2
				c3.8,0,6.3,2.3,6.3,5.9c0,2.8-1.4,5-3.9,6c-0.8,0.3-1.4,0.5-2.5,0.7c-0.3-0.8-0.5-1.2-1-1.9c1.5-0.2,2.4-0.4,3.2-0.9
				c1.4-0.8,2.2-2.3,2.2-4c0-1.5-0.7-2.8-2-3.6c-0.5-0.3-0.9-0.4-1.6-0.5C138,52.8,137.4,55,136.6,56.8z M134.3,51.1
				c-1.3,1-2.2,2.6-2.2,4.3c0,1.3,0.6,2.4,1.3,2.4c0.5,0,1.1-0.7,1.6-2c0.6-1.4,1.1-3.6,1.3-5.4C135.5,50.4,134.9,50.6,134.3,51.1z"
				/>
			<path class="st1" d="M37.6,76.6c-0.1,0.2-0.1,0.2-0.4,0.8c-0.7,1.7-1.3,2.9-2.2,4c0.3,0.6,0.6,1,1,1.4c0.3,0.3,0.6,0.6,0.7,0.6
				c0.1,0,0.1-0.1,0.2-0.3c0.1-0.4,0.1-0.4,0.3-1.9c0.5,0.5,0.8,0.7,1.4,1.1c-0.4,2.2-0.9,3.1-1.8,3.1c-0.8,0-2.1-1.1-3-2.6
				c-1.2,1.2-2.4,2.1-3.9,2.8c-0.5-0.7-0.7-0.9-1.2-1.4c1.7-0.7,3.1-1.6,4.3-2.9c-0.7-1.6-1-3.6-1.2-6.4h-5c0,1.5,0,1.5,0,2.1h2.9
				c0.6,0,0.8,0,1.1-0.1c0,0.3-0.1,0.7-0.1,1.4c-0.2,2.9-0.3,3.7-0.5,4.4c-0.3,0.6-0.8,0.9-2.1,0.9c-0.4,0-0.7,0-1.2,0
				c-0.1-0.7-0.2-1.1-0.4-1.7c0.8,0.1,1.1,0.1,1.6,0.1c0.5,0,0.6-0.1,0.7-0.5c0.1-0.6,0.2-1.6,0.2-2.9h-2.3c-0.1,1.8-0.3,2.9-0.5,4
				c-0.3,1.3-0.6,2-1.3,3.1c-0.5-0.6-0.8-0.9-1.4-1.4c0.6-0.9,0.9-1.6,1.1-2.5c0.3-1.3,0.5-3.5,0.5-6.3c0-1.2,0-1.6-0.1-2.3
				c0.6,0,1.2,0.1,2.1,0.1h4.6c0-0.1,0-0.5,0-1.2c0-0.6,0-0.7-0.1-1h1.9c0,0.3-0.1,1-0.1,1.5c0,0.1,0,0.6,0,0.7h2.1
				c-0.4-0.6-0.8-0.9-1.4-1.5l1.2-0.8c0.7,0.6,1,0.9,1.6,1.7l-0.8,0.6h0.5c0.8,0,1.3,0,1.7-0.1V75c-0.5,0-1.1-0.1-2-0.1h-2.9
				c0.1,2.1,0.4,3.6,0.7,4.8c0.8-1.3,1.3-2.6,1.5-3.7L37.6,76.6z"/>
			<path class="st1" d="M45.5,78.1c-0.8,0-1.4,0-1.9,0.1c0.1-0.5,0.1-0.9,0.1-1.8v-3.1c0-0.9,0-1.2-0.1-1.7c0.5,0.1,1,0.1,1.9,0.1
				H53c0.9,0,1.4,0,1.9-0.1c-0.1,0.4-0.1,0.8-0.1,1.8v3c0,1,0,1.4,0.1,1.8c-0.6-0.1-1-0.1-1.9-0.1h-3V79h4.6c0.9,0,1.4,0,1.8-0.1
				v1.8c-0.5-0.1-1.1-0.1-1.8-0.1h-3.5c0.7,0.7,1.3,1.2,2.2,1.7c1.2,0.7,2.1,1.1,3.5,1.4c-0.4,0.6-0.6,1-0.9,1.7
				c-2.4-0.8-4.4-2.1-5.9-3.9c0,0.2,0,0.2,0,0.5c0,0.2,0,0.4,0,0.6v1.4c0,0.8,0,1.2,0.1,1.7h-2c0.1-0.5,0.1-0.9,0.1-1.7v-1.4
				c0-0.6,0-0.6,0-1.1c-0.7,0.9-1.6,1.6-2.5,2.3c-0.9,0.6-1.6,1-3.1,1.6c-0.3-0.7-0.5-1.1-1-1.6c1.1-0.3,2.2-0.8,3.1-1.4
				c0.9-0.6,1.5-1.1,2.2-1.9h-3.2c-0.8,0-1.3,0-1.8,0.1v-1.8c0.5,0.1,0.9,0.1,1.8,0.1h4.4v-0.9H45.5z M45.3,73.2v1.1h2.9v-1.1H45.3z
				 M45.3,75.6v1.1h2.9v-1.1H45.3z M50,74.2h3.2v-1.1H50V74.2z M50,76.7h3.2v-1.1H50V76.7z"/>
			<path class="st1" d="M65.8,72.4c-0.1,0.5-0.2,1.1-0.4,2c0,0.3,0,0.3-0.1,0.5c0.5,0,0.7,0,1,0c1.1,0,1.8,0.3,2.4,0.8
				c0.5,0.6,0.8,1.4,0.8,2.8c0,2.8-0.5,4.9-1.2,5.8c-0.4,0.5-0.9,0.7-1.8,0.7c-0.7,0-1.4-0.1-2.5-0.5c0-0.3,0-0.5,0-0.7
				c0-0.4,0-0.7-0.2-1.4c0.9,0.4,1.8,0.6,2.3,0.6c0.5,0,0.7-0.3,1-1.1c0.3-0.8,0.4-2.3,0.4-3.6c0-1.5-0.4-1.9-1.6-1.9
				c-0.3,0-0.6,0-1,0c-0.8,3.3-1.5,5.2-3.3,8.7l-1.9-1c1.2-1.7,2.5-4.6,3.2-7.5c-0.2,0-0.2,0-0.8,0.1l-1.5,0.2
				c-0.3,0-0.4,0.1-0.7,0.2l-0.2-1.9c0.7,0,1.6-0.1,3.4-0.3c0.3-1.8,0.4-2.7,0.4-3.2c0-0.1,0-0.2,0-0.3l2.1,0.2
				c0,0.1-0.1,0.3-0.1,0.5L65.8,72.4z M70.7,71.7c0.7,0.8,1.1,1.4,1.7,2.4l-1.1,0.6c-0.5-1-1-1.6-1.7-2.4L70.7,71.7z M72.2,74.9
				c1.1,1.5,1.9,3.2,2.4,5.1l-1.8,0.9c-0.3-1.7-1.3-4-2.2-5.2L72.2,74.9z M73.2,73.7c-0.5-0.9-1-1.6-1.6-2.3l1.1-0.6
				c0.7,0.7,1.2,1.3,1.7,2.3L73.2,73.7z"/>
			<path class="st1" d="M80.5,81.1c-0.8,0-1.3,0-1.7,0c0.1-0.5,0.1-1,0.1-1.7v-5.8c0-0.9,0-1.6-0.1-2c0.5,0.1,0.9,0.1,1.7,0.1h7.4
				c0.7,0,1.2,0,1.7-0.1c0,0.4-0.1,1.1-0.1,2v5.8c0,0.8,0,1.2,0.1,1.7c-0.4,0-1,0-1.7,0h-1.4v2.5c0,0.4,0.1,0.5,1.4,0.5
				c1.2,0,1.6-0.1,1.7-0.3c0.2-0.2,0.2-0.8,0.3-2c0.7,0.4,1,0.5,1.6,0.7c-0.2,1.8-0.3,2.4-0.7,2.8c-0.4,0.4-1.1,0.5-2.9,0.5
				c-2.7,0-3.1-0.2-3.1-1.4v-3.1h-1.4c-0.2,1.2-0.7,2.2-1.5,3c-1,0.9-2.2,1.5-4.1,1.9c-0.3-0.7-0.5-1-0.9-1.6
				c1.5-0.3,2.4-0.6,3.1-1.1c0.9-0.6,1.3-1.2,1.5-2.3H80.5z M80.6,74.4h7.2v-1h-7.2V74.4z M80.6,76.9h7.2v-1.1h-7.2V76.9z
				 M80.6,79.6h7.2v-1.1h-7.2V79.6z"/>
			<path class="st1" d="M96.5,75.6c0.4,0,0.6,0,0.9,0c1.6,0,3.7-0.1,5.7-0.4c0.7-0.1,1-0.1,1.3-0.3l1.1,1.4
				c-0.3,0.2-0.6,0.5-1.4,1.2c-0.9,0.8-2.2,2.1-2.7,2.4c0.4-0.1,0.6-0.2,1-0.2c0.6,0,1,0.2,1.3,0.7c0.2,0.4,0.3,0.6,0.4,1.5
				c0.1,1.3,0.3,1.5,1.4,1.5c1.1,0,2.3-0.2,3.2-0.6l0.2,2c-0.3,0-0.4,0-1.4,0.2c-1,0.1-1.6,0.2-2.2,0.2c-1.1,0-1.8-0.2-2.2-0.6
				c-0.4-0.4-0.6-0.8-0.7-2.1c0-0.6-0.1-0.8-0.2-1c-0.1-0.2-0.4-0.3-0.7-0.3c-0.8,0-1.5,0.4-2.8,1.7c-0.8,0.8-1.7,1.7-2.3,2.4
				L95,83.6c0.7-0.5,0.7-0.5,3.7-3.2c0.4-0.3,0.7-0.6,1.9-1.8c0.4-0.4,1.1-1,1.9-1.8c-0.9,0.1-1.3,0.2-2.1,0.3c-0.2,0-0.2,0-1.6,0.1
				c-0.3,0-0.3,0-0.8,0.1c-0.6,0-0.7,0.1-1.2,0.1L96.5,75.6z M98.5,71.4c1.8,0.6,3.9,0.8,6.4,0.9l-0.3,1.8c-3.2-0.2-4.4-0.4-6.6-0.9
				L98.5,71.4z"/>
			<path class="st1" d="M118.1,71.5c-0.1,0.3-0.1,0.3-0.3,1.1c-0.1,0.4-0.2,0.7-0.3,1.4c1.1-0.1,1.9-0.3,2.6-0.4l0,1.8
				c-0.2,0-0.2,0-0.5,0.1c-0.6,0.1-1.6,0.2-2.5,0.3c-0.5,1.6-1,3.1-1.8,4.6c-0.4,0.8-0.5,1.1-1.1,2.2c-0.2,0.4-0.2,0.4-0.3,0.6
				l-1.8-1c0.6-0.7,1-1.5,1.6-2.6c0.6-1.3,0.9-1.9,1.5-3.8c-0.7,0-0.8,0-1,0c-0.2,0-0.3,0-0.6,0l-0.8,0v-1.8
				c0.6,0.1,1.2,0.1,2.2,0.1c0.2,0,0.5,0,0.8,0c0.3-1.1,0.4-2.1,0.5-2.8L118.1,71.5z M125.4,84.4c-0.6-0.7-1.5-1.4-2.4-2
				c0,0.1,0,0.3,0,0.3c0,0.6-0.3,1.3-0.7,1.7c-0.6,0.6-1.5,0.9-2.7,0.9c-2.1,0-3.5-1.1-3.5-2.7c0-1.6,1.4-2.8,3.5-2.8
				c0.5,0,0.8,0,1.5,0.1c0-0.7-0.1-1.4-0.1-1.8c0-0.6,0-1.1,0.1-1.6l1.9,0.1c-0.2,0.6-0.2,1-0.2,1.6c0,0.6,0,1.3,0.1,2.2
				c1.2,0.5,1.3,0.6,2.5,1.5c0.2,0.2,0.3,0.2,0.6,0.4c0.1,0.1,0.1,0.1,0.2,0.2L125.4,84.4z M119.7,81.5c-1,0-1.7,0.4-1.7,1.1
				c0,0.7,0.6,1,1.6,1c1.1,0,1.6-0.4,1.6-1.3c0-0.2,0-0.5,0-0.5C120.6,81.6,120.2,81.5,119.7,81.5z M125.4,77.1
				c-1.4-0.9-2.8-1.6-4.6-2.2l1-1.6c1.9,0.7,3.1,1.3,4.5,2.1L125.4,77.1z"/>
			<path class="st1" d="M132.4,72.8c-0.1,0.6-0.1,1.4-0.1,2.4c0,1.4,0.1,3.3,0.3,4.3c0.3,1.7,0.8,2.7,1.3,2.7c0.2,0,0.5-0.2,0.7-0.7
				c0.4-0.9,0.7-1.8,0.8-2.9c0.6,0.6,0.8,0.9,1.6,1.5c-0.8,3.1-1.8,4.4-3.1,4.4c-1.1,0-1.9-0.8-2.6-2.3c-0.7-1.6-0.9-3.9-1-8.4
				c0-0.6,0-0.7-0.1-1H132.4z M139.9,73.5c2,2.4,3.1,5.1,3.6,8.6l-2,0.8c-0.1-1.5-0.5-3.2-1-4.6c-0.5-1.5-1.3-2.8-2.3-3.9
				L139.9,73.5z"/>
			<path class="st1" d="M149.9,78.4c0,0.8-0.6,1.4-1.4,1.4c-0.8,0-1.4-0.6-1.4-1.4c0-0.8,0.6-1.4,1.4-1.4
				C149.3,77,149.9,77.7,149.9,78.4z M155.3,78.4c0,0.8-0.6,1.4-1.4,1.4c-0.8,0-1.4-0.6-1.4-1.4c0-0.8,0.6-1.4,1.4-1.4
				C154.6,77,155.3,77.7,155.3,78.4z M160.6,78.4c0,0.8-0.6,1.4-1.4,1.4s-1.4-0.6-1.4-1.4c0-0.8,0.6-1.4,1.4-1.4
				S160.6,77.7,160.6,78.4z"/>
			<path class="st1" d="M167.5,78.4c0,0.8-0.6,1.4-1.4,1.4s-1.4-0.6-1.4-1.4c0-0.8,0.6-1.4,1.4-1.4S167.5,77.7,167.5,78.4z
				 M172.8,78.4c0,0.8-0.6,1.4-1.4,1.4s-1.4-0.6-1.4-1.4c0-0.8,0.6-1.4,1.4-1.4S172.8,77.7,172.8,78.4z M178.2,78.4
				c0,0.8-0.6,1.4-1.4,1.4c-0.8,0-1.4-0.6-1.4-1.4c0-0.8,0.6-1.4,1.4-1.4C177.5,77,178.2,77.7,178.2,78.4z"/>
		</g>
	</g>
</g>
</svg>
