<?xml version="1.0" encoding="utf-8"?>
<!-- Generator: Adobe Illustrator 24.0.3, SVG Export Plug-In . SVG Version: 6.00 Build 0)  -->
<svg version="1.1" id="レイヤー_1" xmlns="http://www.w3.org/2000/svg" xmlns:xlink="http://www.w3.org/1999/xlink" x="0px"
	 y="0px" viewBox="0 0 204.6 161.4" style="enable-background:new 0 0 204.6 161.4;" xml:space="preserve">
<style type="text/css">
	.st0{fill:#7EC13E;stroke:#513813;stroke-width:4.5654;stroke-miterlimit:10;}
	.st1{fill:#FFFFFF;}
</style>
<g>
	<path class="st0" d="M179.1,2.3H25.4C12.7,2.3,2.3,12.7,2.3,25.4v59.3c0,12.7,10.4,23.1,23.2,23.1h13.5h4.7l-2.8,46.5l36.4-46.5
		h101.9c12.7,0,23.2-10.4,23.2-23.1V25.4C202.3,12.7,191.9,2.3,179.1,2.3z"/>
	<g>
		<g>
			<path class="st1" d="M52.6,32.8c-0.3,1.2-0.6,1.8-1.1,2.4c-0.9,1.1-2.4,1.7-4.4,1.7c-1.7,0-3.1-0.5-4.1-1.5c-1.1-1.2-1.7-3-1.7-5
				c0-2.1,0.7-4,1.9-5.2c1-1,2.4-1.5,4-1.5c1.2,0,2.2,0.2,3.1,0.8c0.7,0.4,1.3,1,1.7,1.7c0.2,0.3,0.3,0.6,0.5,1.2L50.2,28
				c-0.2-0.7-0.4-1-0.7-1.4c-0.5-0.7-1.3-1-2.3-1c-2.3,0-3.6,1.8-3.6,4.7c0,2.9,1.4,4.8,3.6,4.8c1.1,0,2.1-0.4,2.6-1.2
				c0.3-0.4,0.4-0.7,0.5-1.5L52.6,32.8z"/>
			<path class="st1" d="M58.3,32.7c0.1,0.7,0.2,1,0.4,1.4c0.5,0.6,1.3,0.9,2.3,0.9c1.6,0,2.6-0.7,2.6-1.9c0-0.7-0.3-1.2-0.8-1.5
				c-0.5-0.3-0.6-0.3-2.8-0.8c-1.2-0.3-1.8-0.5-2.4-1c-0.8-0.6-1.2-1.5-1.2-2.6c0-2.2,1.8-3.7,4.5-3.7c1.8,0,3.2,0.6,4,1.6
				c0.4,0.5,0.6,1,0.8,1.9l-2.3,0.3c-0.1-0.5-0.2-0.8-0.5-1.1c-0.4-0.5-1.1-0.8-2-0.8c-1.4,0-2.3,0.7-2.3,1.7c0,0.7,0.4,1.1,1.1,1.5
				c0.4,0.1,0.5,0.2,2.3,0.6c1.3,0.3,2,0.6,2.6,1c0.9,0.7,1.3,1.6,1.3,2.8c0,1.1-0.4,2.1-1,2.7C64,36.6,62.7,37,61,37
				c-1.3,0-2.6-0.3-3.4-0.8c-0.6-0.4-1.1-1-1.4-1.8c-0.1-0.4-0.2-0.7-0.3-1.3L58.3,32.7z"/>
			<path class="st1" d="M77.7,36.7c0-0.4-0.3-1.2-0.8-2.6c-0.9-2.2-1.4-2.8-2.7-2.8h-2.4v3.3c0,1,0,1.5,0.1,2.1h-2.4
				c0.1-0.7,0.1-1.1,0.1-2.1V26c0-0.8,0-1.3-0.1-2.1c0.7,0,1.2,0,2,0h3.8c2.4,0,3.8,1.2,3.8,3.3c0,1-0.3,1.8-0.8,2.4
				c-0.4,0.5-0.9,0.7-1.8,0.9c1,0.3,1.3,0.8,2.9,4.5c0.1,0.3,0.5,1.2,0.8,1.6H77.7z M75.1,29.5c0.6,0,1.2-0.2,1.5-0.6
				c0.3-0.3,0.5-0.8,0.5-1.4c0-1.2-0.7-1.7-2-1.7h-3.3v3.7H75.1z"/>
			<path class="st1" d="M84.7,32.9c1.5,1.1,2.4,2,3.6,3.5l-1.5,1.4c-1.2-1.6-2.1-2.5-3.5-3.6L84.7,32.9z"/>
			<path class="st1" d="M95.7,32.7c0.1,0.7,0.2,1,0.4,1.4c0.5,0.6,1.3,0.9,2.3,0.9c1.6,0,2.6-0.7,2.6-1.9c0-0.7-0.3-1.2-0.8-1.5
				c-0.5-0.3-0.6-0.3-2.8-0.8c-1.2-0.3-1.8-0.5-2.4-1c-0.8-0.6-1.2-1.5-1.2-2.6c0-2.2,1.8-3.7,4.5-3.7c1.8,0,3.2,0.6,4,1.6
				c0.4,0.5,0.6,1,0.8,1.9l-2.3,0.3c-0.1-0.5-0.2-0.8-0.5-1.1c-0.4-0.5-1.1-0.8-2-0.8c-1.4,0-2.3,0.7-2.3,1.7c0,0.7,0.4,1.1,1.1,1.5
				c0.4,0.1,0.5,0.2,2.3,0.6c1.3,0.3,2,0.6,2.6,1c0.9,0.7,1.3,1.6,1.3,2.8c0,1.1-0.4,2.1-1,2.7c-0.8,0.8-2.1,1.2-3.8,1.2
				c-1.3,0-2.6-0.3-3.4-0.8c-0.6-0.4-1.1-1-1.4-1.8c-0.1-0.4-0.2-0.7-0.3-1.3L95.7,32.7z"/>
			<path class="st1" d="M107.1,26c0-0.9,0-1.4-0.1-2.1c0.6,0,1,0,2,0h2.9c2,0,3.3,0.4,4.3,1.4c1.2,1.1,1.8,2.8,1.8,4.8
				c0,2.2-0.6,3.9-1.9,5.1c-1,1-2.3,1.4-4.2,1.4H109c-1,0-1.4,0-2,0c0.1-0.7,0.1-1.2,0.1-2.1V26z M111.8,34.8c1.3,0,2.2-0.3,2.8-1
				c0.8-0.8,1.2-2,1.2-3.6c0-1.5-0.4-2.7-1.1-3.4c-0.7-0.7-1.5-1-2.9-1h-2.6v9H111.8z"/>
			<path class="st1" d="M132.2,33.4c0,0.9,0,1.4,0.1,2.1c-1.1,0.6-1.7,0.9-2.6,1.1c-0.7,0.2-1.6,0.3-2.4,0.3c-2,0-3.5-0.6-4.5-1.8
				c-1-1.2-1.5-2.9-1.5-4.9c0-2.5,0.9-4.5,2.6-5.6c1-0.7,2.1-0.9,3.6-0.9c1.5,0,2.8,0.5,3.7,1.4c0.6,0.5,0.8,1,1.2,1.9l-2.2,0.6
				c-0.5-1.5-1.3-2-2.9-2c-0.9,0-1.8,0.4-2.4,1c-0.8,0.8-1.2,2-1.2,3.6c0,1.6,0.4,2.9,1.1,3.7c0.7,0.8,1.5,1.1,2.8,1.1
				c1.1,0,1.9-0.2,2.7-0.7v-2.6h-0.9c-0.8,0-1.2,0-1.6,0.1v-2.1c0.6,0.1,0.9,0.1,1.9,0.1h0.8c0.7,0,1.2,0,1.9-0.1
				c-0.1,0.6-0.1,1.1-0.1,2V33.4z"/>
			<path class="st1" d="M137.9,33.8c0.3,1.1,0.9,1.5,2.1,1.5c1.2,0,1.9-0.5,1.9-1.2c0-0.3-0.2-0.6-0.4-0.8c-0.3-0.2-0.4-0.2-1.7-0.5
				c-1.3-0.3-1.8-0.4-2.3-0.7c-0.9-0.4-1.4-1.2-1.4-2.1c0-0.6,0.2-1.1,0.5-1.5c0.7-0.8,1.7-1.2,3.2-1.2c1.3,0,2.4,0.3,3,0.9
				c0.4,0.4,0.6,0.8,0.9,1.6l-2.1,0.3c-0.2-0.9-0.7-1.3-1.8-1.3c-1,0-1.7,0.4-1.7,1.1c0,0.3,0.2,0.6,0.5,0.8
				c0.4,0.2,0.7,0.3,1.6,0.5c1.6,0.4,2.3,0.6,2.8,1c0.6,0.4,0.9,1.1,0.9,2c0,0.7-0.3,1.4-0.8,1.8c-0.7,0.7-1.9,1-3.3,1
				c-1.6,0-2.9-0.5-3.6-1.4c-0.3-0.4-0.4-0.7-0.6-1.4L137.9,33.8z"/>
			<path class="st1" d="M148.3,37c0-0.3,0-0.4-0.1-0.8c-0.3-1.9-0.4-3.2-0.4-4.8c0-2.1,0.2-3.9,0.7-6.3c0.2-0.9,0.2-1.1,0.2-1.5
				l2.1,0.2c-0.4,0.9-0.8,2.7-1,4.8c-0.2,1.2-0.2,2.1-0.2,3.5c0,0.4,0,0.5,0,0.9c0.2-0.6,0.2-0.7,0.8-2.1l1.3,0.6
				c-0.9,1.9-1.4,3.7-1.4,4.9c0,0.1,0,0.2,0,0.4L148.3,37z M155.1,30.7c-0.8,0.9-1.1,1.6-1.1,2.3c0,0.9,0.9,1.4,2.5,1.4
				c1.4,0,2.8-0.2,3.8-0.6l0.2,2c-0.2,0-0.3,0-0.7,0.1c-1.3,0.2-2.3,0.3-3.3,0.3c-2,0-3.3-0.4-4-1.4c-0.3-0.4-0.5-1-0.5-1.6
				c0-1,0.5-2.1,1.5-3.3L155.1,30.7z M152.5,25.4c0.7,0.2,1.6,0.3,3,0.3c1.8,0,3.3-0.1,4.4-0.4l0.1,1.9c-0.1,0-0.4,0-1.1,0.1
				c-1,0.1-2.2,0.2-3.4,0.2c-1.2,0-1.2,0-2.9-0.2L152.5,25.4z"/>
			<path class="st1" d="M42.2,60.1c0,0.8,0,1.3,0.1,1.7h-1.9c0.1-0.5,0.1-1.1,0.1-1.7v-1.5c-1.6,0.5-2.7,0.8-3.4,0.9
				c-0.6,0.1-1,0.2-1.3,0.3l-0.4-1.8c0.4,0,0.6,0,1.2-0.2v-8.7c-0.5,0-0.7,0-1.1,0.1v-1.7c0.4,0,0.9,0.1,1.4,0.1h4.9
				c0.6,0,1,0,1.5-0.1v1c0.3,0,0.6,0,1,0h4.2c0.4,0,0.9,0,1.3-0.1c0,0.2-0.1,0.5-0.1,1c-0.2,2.7-1,5.4-2.3,7.6
				c0.9,1.2,1.6,1.9,3.1,2.8c-0.4,0.6-0.8,1.2-1,1.8c-1.6-1.2-2.3-1.8-3.2-3c-0.9,1.3-1.7,2-3.2,3c-0.3-0.7-0.5-1.2-1-1.8V60.1z
				 M38.3,50.9h2.2v-1.8h-2.2V50.9z M38.3,54.1h2.2v-1.7h-2.2V54.1z M38.3,57.6c1.1-0.2,1.2-0.2,2.2-0.5v-1.6h-2.2V57.6z M42.2,59.9
				c1.6-0.9,2.2-1.5,3.2-2.8c-0.5-1-0.9-1.9-1.2-2.9c-0.4-1.2-0.5-2-0.7-4c-0.3,0-0.4,0-0.7,0.1v-1c-0.2,0-0.3,0-0.6,0V59.9z
				 M45.1,50.1c0.3,2.6,0.6,3.7,1.3,5.3c0.7-1.5,1.1-2.9,1.5-5.3H45.1z"/>
			<path class="st1" d="M56.9,47.4c-0.2,0.5-0.3,1-0.6,3.1c-0.1,0.7-0.2,1.2-0.2,1.6h0c0-0.1,0-0.1,0.1-0.4c0.2-0.6,0.6-1.3,1-1.9
				c0.9-1.1,1.9-1.6,3-1.6c1.1,0,2,0.5,2.7,1.4c0.8,1.1,1.2,2.4,1.2,4.3c0,3.1-1.4,5.4-4.1,6.6c-0.8,0.4-1.9,0.7-3.1,0.9
				c-0.3-0.9-0.5-1.3-0.9-1.9c1.6-0.2,2.5-0.4,3.5-0.9c1.9-0.9,2.7-2.5,2.7-4.9c0-2.3-0.8-3.6-2.1-3.6c-0.6,0-1.2,0.3-1.7,0.8
				c-1.2,1.3-2,3.3-2,5.2c0,0.1,0,0.2,0,0.3l-1.9,0c0-0.1,0-0.2,0-0.2c0-0.1,0-0.2,0-0.3c0-0.5,0-1.6,0-2c0-1.3,0.1-3.1,0.2-4.2
				l0.2-2c0-0.3,0-0.3,0-0.5L56.9,47.4z"/>
			<path class="st1" d="M70.7,56.2c-0.2,2.4-0.4,3.3-0.8,4.7l-1.4-0.6c0.5-1.2,0.8-2.5,0.8-4.3L70.7,56.2z M68.7,53.8
				c0.3,0,0.5,0,1,0c0,0,0.1,0,0.4,0c0.4-0.5,0.4-0.5,0.7-1c-0.8-1.1-1.6-1.9-2.3-2.5l0.8-1.4c0.4,0.3,0.4,0.4,0.7,0.7
				c0.5-0.8,1.1-2.1,1.3-2.6l1.6,0.6c-0.1,0.2-0.2,0.3-0.3,0.5c-0.8,1.4-0.8,1.4-1.6,2.6c0.3,0.3,0.4,0.4,0.7,0.8
				c0.9-1.4,1.4-2.3,1.7-2.9l1.4,0.8c-0.1,0.2-0.2,0.3-0.4,0.7c-0.9,1.4-2,3-2.6,3.7c0.6,0,0.8,0,1.8-0.2c-0.2-0.5-0.3-0.6-0.5-1.1
				l1.2-0.6c0.7,1.3,1,2.1,1.3,3.2l-1.3,0.6c-0.1-0.4-0.1-0.5-0.2-0.8c-0.4,0-0.8,0.1-1.3,0.1v5c0,0.8,0,1.2,0.1,1.7h-1.8
				c0.1-0.5,0.1-0.9,0.1-1.7v-4.9c-0.4,0-0.8,0.1-1.2,0.1c-0.8,0.1-0.8,0.1-1.2,0.1L68.7,53.8z M74.5,56c0.3,1,0.4,1.6,0.5,3.1
				l-1.3,0.3c-0.1-1.4-0.2-2.1-0.4-3.1L74.5,56z M82.4,59.7c0.4,0,0.7,0,1-0.1v1.8c-0.5-0.1-1.1-0.1-1.6-0.1h-5.9
				c-0.6,0-1.2,0-1.6,0.1v-1.8c0.3,0.1,0.7,0.1,1.1,0.1h0.5V49.3c0-0.6,0-1.1-0.1-1.6c0.5,0,0.9,0,1.6,0h3.3c0.8,0,1.2,0,1.7-0.1
				c0,0.5-0.1,1-0.1,1.8v10.2H82.4z M77.4,51.6h3.2v-2.3h-3.2V51.6z M77.4,55.5h3.2v-2.3h-3.2V55.5z M77.4,59.7h3.2v-2.6h-3.2V59.7z
				"/>
			<path class="st1" d="M88.3,48.1c0.4,0.1,0.8,0.1,1.6,0.1c1,0,2.4-0.1,3-0.1c0.3,0,0.4-0.1,0.6-0.2l1.3,1.1
				c-0.1,0.2-0.2,0.4-0.3,0.7c-0.1,0.2-1.1,3.1-1.2,3.6c1.2,0.2,2.3,0.5,3.5,1c0.1-0.8,0.2-1.5,0.2-3c0-0.4,0-0.5-0.1-0.8l2,0.1
				c-0.1,0.3-0.1,0.5-0.1,1.1c0,1.4-0.1,2.4-0.3,3.4c0.5,0.3,1.2,0.6,1.7,0.9c0.4,0.3,0.5,0.3,0.7,0.4l-0.7,2.1
				c-0.5-0.4-1.4-1-2.2-1.5c-0.4,1.2-0.9,2-1.7,2.8c-0.7,0.7-1.5,1.3-2.4,1.8c-0.7-0.8-0.8-1-1.5-1.4c1.2-0.6,1.8-1,2.5-1.7
				c0.6-0.7,1.2-1.6,1.4-2.4c-1.1-0.5-2.1-0.8-3.6-1.1c-0.7,2.1-1.1,3.1-1.6,3.9c-0.6,1-1.3,1.5-2.2,1.5c-1.5,0-2.6-1.3-2.6-3
				c0-1.5,0.7-2.7,2-3.5c0.8-0.5,1.7-0.7,3-0.8c0.4-1.3,0.6-1.9,1-3.3c-0.8,0.1-1.2,0.1-2.8,0.1c-0.7,0-0.9,0-1.3,0.1L88.3,48.1z
				 M88.8,55.7c-0.4,0.4-0.6,1-0.6,1.5c0,0.7,0.4,1.2,0.8,1.2c0.3,0,0.5-0.3,0.9-1c0.3-0.6,0.7-1.6,1-2.7
				C89.8,54.9,89.3,55.2,88.8,55.7z"/>
			<path class="st1" d="M104,49.9c0.6,0.1,1.2,0.1,2.1,0.1c0.2,0,0.4,0,0.7,0c0.1-0.8,0.3-2,0.3-2.4c0-0.1,0-0.2,0-0.3l2.1,0.2
				c-0.1,0.4-0.1,0.4-0.3,1.5c-0.1,0.4-0.1,0.5-0.2,0.9c1.2-0.1,1.9-0.2,2.7-0.5l0.1,1.8c-0.1,0-0.1,0-0.5,0.1
				c-0.8,0.2-2.1,0.3-2.6,0.3c-0.2,1-0.6,2.7-1,4.1c-0.5,1.7-0.7,2.5-1.8,5.3l-2-0.8c1.1-2,2.3-5.8,2.9-8.6c-0.1,0-0.2,0-0.2,0h-0.9
				c-0.1,0-0.2,0-0.5,0c-0.3,0-0.5,0-0.6,0c-0.1,0-0.2,0-0.3,0L104,49.9z M112,56.1c-0.6,0.8-0.8,1.2-0.8,1.8c0,0.8,0.8,1.2,2.4,1.2
				c1.2,0,2.7-0.3,3.6-0.6l0.1,2c-0.3,0-0.4,0-0.8,0.1c-1.3,0.2-2,0.3-3,0.3c-1.4,0-2.4-0.2-3.2-0.6c-0.7-0.4-1.1-1.2-1.1-2
				c0-0.8,0.3-1.6,1.2-2.8L112,56.1z M116.7,54c-0.8-0.1-1.2-0.1-2-0.1c-1.6,0-2.6,0.1-4.2,0.5l-0.1-1.8c2.3-0.4,3-0.5,4.8-0.5
				c0.4,0,0.6,0,1.6,0L116.7,54z"/>
			<path class="st1" d="M123.2,48.8c-0.1,0.6-0.1,1.4-0.1,2.4c0,1.4,0.1,3.3,0.3,4.3c0.3,1.7,0.8,2.7,1.3,2.7c0.2,0,0.5-0.2,0.7-0.7
				c0.4-0.9,0.7-1.8,0.8-2.9c0.6,0.6,0.8,0.9,1.6,1.5c-0.8,3.1-1.8,4.4-3.1,4.4c-1.1,0-1.9-0.8-2.6-2.3c-0.7-1.6-0.9-3.9-1-8.4
				c0-0.6,0-0.7-0.1-1H123.2z M130.8,49.5c2,2.4,3.1,5.1,3.6,8.6l-2,0.8c-0.1-1.5-0.5-3.2-1-4.6c-0.5-1.5-1.3-2.8-2.3-3.9
				L130.8,49.5z"/>
			<path class="st1" d="M142.7,55.6c-1.1,1.9-1.8,4-1.8,5.1l-1.9,0.1c0-0.2,0-0.3-0.1-0.6c-0.4-1.8-0.6-3.4-0.6-5.2s0.1-2.8,0.6-6.1
				c0.1-0.7,0.1-0.8,0.1-1.2l2.1,0.2c-0.2,0.6-0.3,1-0.5,2c-0.3,1.4-0.3,1.8-0.4,3.2c-0.1,1.1-0.1,1.5-0.1,1.8c0,0,0,0.2,0,0.5
				c0,0.2,0,0.4,0,1.2c0,0.1,0,0.2,0,0.3c0,0.3,0,0.4,0,0.6c0.3-0.9,0.7-1.9,1.1-2.6L142.7,55.6z M142.3,51c0.7,0.1,1.6,0.2,2.8,0.2
				c0.6,0,0.9,0,1.7-0.1c-0.1-2.8-0.1-3-0.2-3.5l2,0c0,0.3,0,0.4,0,0.5c0,0.2,0,0.3,0,1c0,0.2,0,0.8,0.1,1.8
				c1.1-0.2,1.8-0.4,2.4-0.6l0.1,1.9c-0.3,0-0.4,0-0.9,0.2c-0.7,0.2-0.9,0.2-1.6,0.3c0,0.3,0,0.5,0,0.8c0,1.7-0.1,3-0.3,3.8
				c-0.4,1.3-0.9,2.3-1.8,3.1c-0.5,0.4-0.9,0.7-1.7,1.2c-0.6-0.7-0.8-1-1.6-1.5c1.1-0.5,1.8-1,2.4-1.7c0.8-1,1.1-2.1,1.1-4.5
				c0-0.3,0-0.5,0-1c-0.5,0-1.4,0.1-2.2,0.1c-0.4,0-1,0-1.5,0c-0.5,0-0.5,0-0.7,0c-0.1,0-0.1,0-0.2,0V51z"/>
			<path class="st1" d="M158.6,47.5c0,0.8,0.6,3.7,1.1,5c1-0.4,1.6-0.6,3.6-1.2c0.8-0.3,0.8-0.3,1.1-0.4l0.7,2
				c-1.4,0.3-3.5,0.9-5.3,1.5c-2.3,0.9-3.5,1.9-3.5,3c0,1.2,1.1,1.7,3.7,1.7c2,0,4-0.2,5.2-0.6l0.2,2.2c-0.3,0-0.4,0-1.3,0.1
				c-1.7,0.2-2.6,0.2-3.7,0.2c-2.2,0-3.6-0.3-4.6-0.9c-0.9-0.5-1.4-1.5-1.4-2.7c0-1.1,0.5-2.1,1.4-2.9c0.6-0.5,1.1-0.8,2.2-1.4
				c-0.4-1.2-0.7-2.4-1.1-4.3c-0.2-0.8-0.2-0.8-0.3-1.1L158.6,47.5z M163.9,47.5c0.7,0.8,1.1,1.4,1.7,2.4l-1.1,0.6
				c-0.5-1-1-1.6-1.7-2.4L163.9,47.5z M166.4,49.5c-0.5-0.9-1-1.6-1.6-2.3l1.1-0.6c0.7,0.7,1.2,1.3,1.7,2.3L166.4,49.5z"/>
			<path class="st1" d="M28.8,83.8c0,0.9,0,1.5,0.1,2.1H27c0.1-0.6,0.1-1.2,0.1-2.1v-4.5c0-0.8,0-1.1,0-1.8
				c-0.4,0.6-0.7,1.1-1.3,1.8c-0.3-0.8-0.5-1.2-0.9-1.8c1.1-1.2,1.9-2.4,2.6-3.9c0.4-1,0.7-2,0.8-2.7l1.8,0.6
				c-0.6,1.8-0.7,2.1-1.4,3.6V83.8z M32.2,73.5c-0.8,0-1.4,0-1.9,0.1v-1.8c0.5,0.1,1.1,0.1,1.8,0.1h6.1c0.7,0,1.2,0,1.8-0.1v1.7
				c-0.4,0-0.6,0-1.2-0.1v10.3c0,0.8-0.2,1.2-0.7,1.4c-0.4,0.2-1.1,0.2-2.1,0.2c-0.1,0-0.4,0-0.7,0c-0.1,0-0.3,0-0.6,0
				c-0.1-0.9-0.2-1.2-0.4-1.8c0.8,0.1,1.3,0.1,2,0.1c0.8,0,0.9-0.1,0.9-0.4v-9.9H32.2z M35.7,80.2c0,0.6,0,0.9,0,1.2
				c-0.3,0-0.6,0-1.2,0h-2.4v1.2h-1.7c0.1-0.4,0.1-0.8,0.1-1.3v-4.9c0-0.6,0-0.9-0.1-1.3c0.3,0,0.7,0.1,1.3,0.1h2.8
				c0.6,0,0.9,0,1.2,0c0,0.4,0,0.6,0,1.2V80.2z M32.1,79.9h2v-3.2h-2V79.9z"/>
			<path class="st1" d="M43.9,73c0.7,0.1,1.7,0.2,3.7,0.2c0.4-1,0.6-1.4,0.6-2l2.1,0.2c-0.1,0.2-0.1,0.2-0.6,1.4
				c-0.1,0.2-0.1,0.2-0.1,0.3c0.1,0,0.1,0,1-0.1c1.9-0.1,3.3-0.3,4.2-0.5l0.1,1.8c-0.4,0-0.4,0-1.3,0.1c-1.2,0.1-3.2,0.3-4.8,0.3
				c-0.5,0.9-0.9,1.6-1.5,2.1l0,0c0.1-0.1,0.1-0.1,0.3-0.2c0.6-0.4,1.4-0.7,2.3-0.7c1.2,0,2,0.6,2.3,1.7c1.2-0.4,2-0.7,2.4-0.9
				c0.9-0.3,0.9-0.3,1.2-0.5l0.8,1.8c-0.4,0.1-0.9,0.2-1.8,0.4c-0.2,0.1-1,0.3-2.4,0.8v0.2c0,0.4,0,0.4,0,0.6c0,0.2,0,0.4,0,0.6
				c0,0.3,0,0.4,0,0.5c0,0.4,0,0.6,0,0.8l-1.9,0c0.1-0.3,0.1-1.1,0.1-1.9c0-0.2,0-0.2,0-0.4c-0.8,0.4-1.2,0.6-1.5,0.8
				c-0.6,0.4-0.8,0.8-0.8,1.3c0,0.8,0.8,1.2,2.7,1.2c1.9,0,3.6-0.2,4.7-0.7l0.2,2.1c-0.3,0-0.4,0-0.7,0.1c-1.2,0.2-2.7,0.3-4.1,0.3
				c-1.7,0-2.8-0.2-3.6-0.7c-0.7-0.4-1.2-1.2-1.2-2.1c0-0.7,0.2-1.2,0.7-1.8c0.7-0.9,1.6-1.5,3.4-2.3c-0.1-0.6-0.4-0.9-1-0.9
				c-0.9,0-2,0.6-3.3,1.6c-0.7,0.6-1,1-1.4,1.5l-1.5-1.4c0.4-0.3,0.9-0.8,1.4-1.4c0.6-0.7,1.6-2.1,1.9-2.7c0.1-0.1,0.1-0.1,0.1-0.2
				c-0.1,0-0.3,0-0.3,0c-0.3,0-1.7,0-2,0c-0.3,0-0.3,0-0.4,0c0,0-0.1,0-0.3,0L43.9,73z"/>
			<path class="st1" d="M68.9,77.4c0,0.1,0,0.2,0,0.4c0.4,0.7,0.5,1.4,0.5,2.3c0,1.7-0.8,3.2-2.4,4.3c-0.7,0.5-1.4,0.8-2.9,1.3
				c-0.4-1-0.6-1.2-1.1-1.8c1.3-0.3,2-0.5,2.7-0.9c1.1-0.6,1.7-1.4,1.9-2.3c-0.5,0.7-1.3,1.1-2.4,1.1c-0.7,0-1.3-0.2-1.9-0.6
				c-0.8-0.5-1.1-1.2-1.1-2.2c0-1.7,1.3-2.9,3.2-2.9c0.7,0,1.3,0.2,1.7,0.5c0-0.1,0-0.1,0-0.2c0,0,0-0.9,0-1.4
				c-2.3,0.1-3.8,0.1-4.5,0.2c-2.4,0.2-2.4,0.2-2.8,0.2l-0.1-1.9c0.4,0,0.5,0,0.8,0c0.4,0,0.7,0,2.7-0.1c1,0,1.2,0,2.5-0.1
				c0.5,0,0.5,0,1.4,0c0-1.5,0-1.5-0.1-1.9l2,0c-0.1,0.5-0.1,0.5-0.1,1.9c2.8,0,4,0,4.6-0.1l0,1.8c-0.6,0-1.4-0.1-2.7-0.1
				c-0.4,0-0.7,0-1.9,0v1L68.9,77.4z M65.7,77.5c-0.8,0-1.5,0.6-1.5,1.3c0,0.7,0.6,1.3,1.4,1.3c0.9,0,1.6-0.6,1.6-1.4
				C67.1,78,66.5,77.5,65.7,77.5z"/>
			<path class="st1" d="M81.5,77c0.5-0.5,0.8-0.8,2-1.7c1.4-1.1,2.4-1.5,3.4-1.5c1.3,0,2.2,0.8,2.2,2.1c0,0.5-0.1,1.2-0.4,2.4
				C88.2,80.8,88,81.5,88,82c0,0.5,0.2,0.8,0.7,0.8c0.4,0,0.8-0.3,1.1-0.8c0.4-0.6,0.7-1.2,0.9-1.8c0.4,0.8,0.5,1.2,1.1,1.9
				c-0.5,0.8-0.7,1.1-1.1,1.6c-0.7,0.8-1.5,1.2-2.4,1.2c-0.5,0-1-0.2-1.4-0.4c-0.6-0.4-0.8-1-0.8-2c0-0.9,0.1-1.4,0.7-4
				c0.2-1,0.3-1.6,0.3-2c0-0.4-0.2-0.6-0.7-0.6c-0.5,0-1.2,0.3-2,0.9c-1.2,0.9-2.3,1.9-2.9,2.6c0,0.7,0,1.2,0,1.6c0,0.1,0,0.1,0,1.9
				c0,2,0,2,0.1,2.6h-2.1c0.1-0.7,0.1-0.7,0.1-2.5c0-1.7,0-1.7,0-2.1l0,0c-0.1,0.2-0.3,0.4-1.1,1.3c-0.4,0.4-0.6,0.7-0.7,0.9
				l-0.9-1.9c0.4-0.3,0.6-0.5,1-0.9c1.5-1.5,1.5-1.5,1.8-1.8c0-0.8,0-0.9,0-1.6c0-0.4,0-0.4,0-0.8c-1.7,0.1-2,0.1-2.4,0.2l-0.1-1.8
				c0.3,0,0.4,0,0.7,0c0.3,0,1.2,0,1.9-0.1c0-0.2,0-0.2,0-0.6c0-0.4,0-0.9,0-1.3c0-0.4,0-0.5,0-0.9l2,0c0,0.2,0,0.2-0.1,0.6
				c0,0.1,0,0.3,0,0.6c0,0.3,0,0.4-0.1,1.4c0,0,0.1,0,0.2-0.1l0.6,0.7c-0.2,0.1-0.2,0.2-0.5,0.5c-0.1,0.1-0.1,0.1-0.2,0.3
				c-0.1,0.1-0.1,0.1-0.2,0.3l0,0.9C81.5,76.7,81.5,76.8,81.5,77L81.5,77z"/>
			<path class="st1" d="M95.8,85.3c0-0.2,0-0.3-0.1-0.6c-0.3-1.9-0.4-3.4-0.4-5.1c0-1.4,0.1-2.8,0.3-4.2c0.1-0.5,0.1-0.5,0.4-2.3
				c0.1-0.6,0.2-1,0.2-1.2c0,0,0,0,0,0l2.2,0.2c-0.6,1.4-1.3,5.6-1.3,8.1c0,0.4,0,0.6,0,0.6v0.2c0,0.2,0,0.4,0,0.6h0l0.1-0.2
				l0.2-0.5c0.2-0.6,0.3-0.7,0.4-1.1c0-0.1,0.1-0.2,0.2-0.5l1.3,0.6c-0.9,1.9-1.6,3.8-1.6,4.9c0,0.1,0,0.2,0,0.4L95.8,85.3z
				 M99.5,74.8c0.7,0.2,1.6,0.2,2.9,0.2c0.5,0,0.9,0,1.5,0c0-0.4,0-0.6,0-0.8c0-0.3,0-0.5,0-0.6v-1.1c0-0.4,0-0.5,0-0.6l2,0
				c-0.1,0.5-0.1,1.1-0.1,2.2v0.8c1.1-0.1,2-0.3,2.6-0.5l0.1,1.8c-0.1,0-0.2,0-0.5,0.1c-0.6,0.1-1.5,0.3-2.2,0.4V77
				c0,0.8,0,1.2,0.1,2.1l0,0.8l0,0.7c1.1,0.5,1.7,0.9,2.5,1.5c0.2,0.1,0.3,0.2,0.4,0.3l-0.8,1.9c-0.4-0.5-0.8-0.8-2.2-1.7
				c0,0.1,0,0.1,0,0.2c0,0.3,0,0.7-0.1,0.9c-0.4,0.9-1.5,1.5-3,1.5c-2.1,0-3.4-1-3.4-2.6c0-1.5,1.4-2.6,3.3-2.6c0.6,0,1,0.1,1.4,0.2
				c0-0.5-0.1-1.7-0.1-3.4c-0.6,0-1,0-1.4,0c-0.6,0-1.2,0-2-0.1c-0.2,0-0.4,0-0.5,0c-0.1,0-0.2,0-0.3,0c-0.1,0-0.1,0-0.1,0
				s-0.1,0-0.1,0L99.5,74.8z M102.7,81.5c-1,0-1.7,0.4-1.7,1c0,0.6,0.6,1,1.5,1c0.6,0,1.1-0.2,1.3-0.5c0.1-0.2,0.2-0.4,0.2-0.9
				c0-0.2,0-0.4,0-0.4C103.5,81.6,103.2,81.5,102.7,81.5z M106.9,71c0.5,0.8,0.8,1.6,1.1,2.5l-1.1,0.4c-0.3-1-0.6-1.8-1.1-2.5
				L106.9,71z M108.8,73.3c-0.3-0.9-0.7-1.8-1.1-2.4l1-0.4c0.4,0.7,0.8,1.4,1.1,2.4L108.8,73.3z"/>
			<path class="st1" d="M115.5,72.8c-0.1,0.6-0.1,1.4-0.1,2.4c0,1.4,0.1,3.3,0.3,4.3c0.3,1.7,0.8,2.7,1.3,2.7c0.2,0,0.5-0.2,0.7-0.7
				c0.4-0.9,0.7-1.8,0.8-2.9c0.6,0.6,0.8,0.9,1.6,1.5c-0.8,3.1-1.8,4.4-3.1,4.4c-1.1,0-1.9-0.8-2.6-2.3c-0.7-1.6-0.9-3.9-1-8.4
				c0-0.6,0-0.7-0.1-1H115.5z M123.1,73.5c2,2.4,3.1,5.1,3.6,8.6l-2,0.8c-0.1-1.5-0.5-3.2-1-4.6c-0.5-1.5-1.3-2.8-2.3-3.9
				L123.1,73.5z"/>
			<path class="st1" d="M132.4,72.8c-0.1,0.6-0.1,1.4-0.1,2.4c0,1.4,0.1,3.3,0.3,4.3c0.3,1.7,0.8,2.7,1.3,2.7c0.2,0,0.5-0.2,0.7-0.7
				c0.4-0.9,0.7-1.8,0.8-2.9c0.6,0.6,0.8,0.9,1.6,1.5c-0.8,3.1-1.8,4.4-3.1,4.4c-1.1,0-1.9-0.8-2.6-2.3c-0.7-1.6-0.9-3.9-1-8.4
				c0-0.6,0-0.7-0.1-1H132.4z M140,73.5c2,2.4,3.1,5.1,3.6,8.6l-2,0.8c-0.1-1.5-0.5-3.2-1-4.6c-0.5-1.5-1.3-2.8-2.3-3.9L140,73.5z"
				/>
			<path class="st1" d="M153.5,80.8c-0.9,2.1-1.9,3-3.2,3c-1.8,0-3.1-1.9-3.1-4.4c0-1.8,0.6-3.4,1.8-4.7c1.3-1.5,3.2-2.2,5.5-2.2
				c3.8,0,6.3,2.3,6.3,5.9c0,2.8-1.4,5-3.9,6c-0.8,0.3-1.4,0.5-2.5,0.7c-0.3-0.8-0.5-1.2-1-1.9c1.5-0.2,2.4-0.4,3.2-0.9
				c1.4-0.8,2.2-2.3,2.2-4c0-1.5-0.7-2.8-2-3.6c-0.5-0.3-0.9-0.4-1.6-0.5C154.9,76.8,154.3,79,153.5,80.8z M151.2,75.1
				c-1.3,1-2.2,2.6-2.2,4.3c0,1.3,0.6,2.4,1.3,2.4c0.5,0,1.1-0.7,1.6-2c0.6-1.4,1.1-3.6,1.3-5.4C152.4,74.4,151.9,74.6,151.2,75.1z"
				/>
			<path class="st1" d="M168.6,81.3c0-0.3,0-0.5,0-0.7l0-0.3c0-0.8,0.2-1.5,0.7-2.1c0.3-0.4,0.5-0.5,1.5-1.2s1.4-1.2,1.4-1.9
				c0-1-0.8-1.6-2.2-1.6c-0.8,0-1.5,0.3-1.9,0.9c-0.2,0.3-0.3,0.6-0.4,1.2l-2.4-0.3c0.3-1.2,0.6-1.8,1.3-2.4c0.8-0.7,2-1.1,3.5-1.1
				c1.3,0,2.4,0.3,3.2,1c0.8,0.6,1.1,1.3,1.1,2.2c0,0.8-0.2,1.4-0.6,1.9c-0.4,0.5-0.7,0.8-2,1.6c-1,0.7-1.2,1.1-1.2,1.9
				c0,0.3,0,0.5,0,0.8H168.6z M170.8,82.6v2.2h-2.3v-2.2H170.8z"/>
		</g>
	</g>
</g>
</svg>
