<?xml version="1.0" encoding="utf-8"?>
<!-- Generator: Adobe Illustrator 24.0.3, SVG Export Plug-In . SVG Version: 6.00 Build 0)  -->
<svg version="1.1" id="レイヤー_1" xmlns="http://www.w3.org/2000/svg" xmlns:xlink="http://www.w3.org/1999/xlink" x="0px"
	 y="0px" viewBox="0 0 255.3 107.5" style="enable-background:new 0 0 255.3 107.5;" xml:space="preserve">
<style type="text/css">
	.st0{fill:#513813;}
</style>
<g>
	<g>
		<path class="st0" d="M23.2,0.4h8c0.2,0,0.4,0.1,0.4,0.3c0,0.3-0.1,0.6-0.3,0.8c-0.2,0.2-0.5,0.3-0.8,0.3c-0.2,0-0.6-0.1-1.4-0.2
			c-0.7,0-1.5-0.1-2.4-0.1c-1.5,0-2.5,0.1-3.2,0.2c-0.3,0.1-0.5,0.2-0.6,0.2c0,0.4,0.1,0.8,0.1,1.3c0.1,0,0.1,0,0.2,0h6.7
			c0.4,0,0.6,0.2,0.6,0.6c0,0.3-0.2,0.5-0.6,0.5c-2.9,0-5.2,0.1-6.9,0.2c0,0.4,0,0.8,0,1.3c0.1,0,0.1,0,0.2,0h6.7
			c0.4,0,0.6,0.2,0.6,0.6c0,0.3-0.2,0.5-0.6,0.5c-2.9,0-5.2,0.1-6.9,0.2c0,0.1,0,0.2,0,0.3c0,0.4,0,0.8-0.1,1.1H35
			c0.2,0,0.3,0.1,0.4,0.3c0,0.3-0.1,0.5-0.3,0.8c-0.2,0.2-0.5,0.3-0.8,0.3c-0.4,0-1.5,0-3.3-0.1c-1.8,0-3.7,0-5.8,0
			c-1.2,0-2.2,0-3.1,0c0,0,0,0.1,0,0.1c0,2.1-0.1,3.8-0.2,4.9c0,0,0.1,0.1,0.2,0.1c0.8-0.3,1.8-0.6,2.9-1c0.5-0.2,0.8-0.2,1.1-0.2
			c0.3,0,0.4,0.1,0.4,0.4c0,0.2-0.1,0.4-0.2,0.5c-0.1,0.1-0.3,0.2-0.4,0.3c-2.2,0.9-3.8,1.6-4.8,2.2c-0.3,0.1-0.4,0.2-0.5,0.2
			c-0.5,0-0.8-0.3-0.8-0.7c0-0.2,0.2-0.5,0.6-0.7c0.2-0.2,0.3-0.4,0.3-0.6c0.1-0.7,0.1-1.6,0.1-2.6c0-0.8-0.1-1.7-0.2-2.8
			c-0.9,0-1.6,0.1-2.2,0.1c-0.8,0.1-1.3,0.2-1.6,0.2c-0.5,0-0.8-0.3-0.9-0.7c0-0.2,0.2-0.4,0.4-0.6c0.2-0.1,0.5-0.2,0.9-0.2h4.2
			c0-0.1,0-0.2,0-0.3c0.1-1,0.1-2,0.1-3.1c0-1-0.1-2.4-0.4-4.1c0-0.5,0.3-0.7,0.8-0.7c0.3,0,0.5,0.1,0.6,0.3
			C22.8,0.4,23,0.4,23.2,0.4z M30.7,9.7c0.6,0,0.8,0.3,0.8,0.8c0,0.3-0.2,0.5-0.6,0.6c-0.4,0.2-0.9,0.4-1.5,0.6c0,0,0,0,0,0
			c2.8,1.7,4.5,2.6,5.2,2.8c0.4,0.1,1,0.2,1.6,0.2c0.3,0,0.5,0.1,0.5,0.4c0,0.4-0.3,0.7-0.8,1.1c-0.5,0.4-1.1,0.5-1.7,0.5
			c-0.4,0-0.8-0.2-1.1-0.5c-1-1-2.2-2-3.5-3.1c-0.6-0.4-1.1-0.7-1.5-0.9c-0.1,0-0.1,0-0.2-0.1c0,0-0.1,0-0.2,0
			c-1,0.3-1.5,0.5-1.7,0.5c-0.4,0-0.6-0.2-0.6-0.5c0-0.2,0.1-0.4,0.4-0.4c1.9-0.7,3.4-1.4,4.5-2C30.5,9.7,30.6,9.7,30.7,9.7z"/>
		<path class="st0" d="M47.8,0.1c0.4,0,0.6,0.2,0.6,0.5c0,0.2-0.1,0.4-0.2,0.6c-0.2,0.3-0.4,0.6-0.6,0.9h10.5c0.2,0,0.3,0.1,0.4,0.3
			c0,0.3-0.1,0.6-0.3,0.8c-0.2,0.2-0.5,0.3-0.9,0.3c-0.3,0-0.9-0.1-1.9-0.2c-1,0-2.2-0.1-3.4-0.1c0,0.1,0.1,0.3,0.1,0.5
			c0,0.8-0.1,1.6-0.1,2.4h5.3c0.2,0,0.4,0.1,0.4,0.3c0,0.3-0.1,0.6-0.3,0.8c-0.2,0.2-0.5,0.3-0.8,0.3c-0.3,0-0.9-0.1-1.8-0.2
			c-0.8,0-1.8-0.1-2.8-0.1c0,0.1,0,0.2,0,0.4l0,3.2c1.3,0,2.8,0.1,4.4,0.2c1.4,0.1,2.8,0.1,4.1,0.1c0.4,0,0.8,0,1.1-0.1
			c0.1,0,0.1,0.1,0.1,0.3c0,0.4-0.1,0.9-0.4,1.3c-0.3,0.5-0.5,0.7-0.8,0.7c-0.4,0-0.8-0.1-1.2-0.3c-1.6-0.5-3-0.8-4.3-1
			c-0.9-0.1-1.9-0.2-3.1-0.2l0,3.5c0,1-0.3,1.5-0.8,1.5c-0.4,0-0.7-0.5-0.7-1.5c0-1.3,0-2.4,0-3.5c-1.5,0-2.9,0.1-4.1,0.3
			c-1.4,0.3-2.8,0.6-4.2,1c-0.4,0.1-0.8,0.2-1,0.2c-0.5,0-0.7-0.3-0.7-0.8c0-0.3,0.1-0.5,0.4-0.7c0.2-0.2,0.5-0.3,0.8-0.4
			c1.3-0.1,2.4-0.3,3.5-0.4c0-0.1,0-0.1,0-0.2c0.1-0.6,0.1-1.2,0.1-1.8c0-0.7-0.1-1.5-0.3-2.6c0-0.4,0.2-0.7,0.7-0.7
			c0.3,0,0.5,0.1,0.6,0.3c0.2,0,0.4-0.1,0.6-0.1h3.6c0-0.7,0-1.5-0.1-2.4c0-0.2,0-0.3,0.1-0.5c-1.2,0-2.2,0.1-2.9,0.2
			c-0.5,0.1-0.8,0.2-1,0.2c-0.1,0-0.2,0-0.3,0c-0.4,0.4-0.8,0.9-1.2,1.3c-0.4,0.4-0.8,0.6-1.1,0.6c-0.3,0-0.7-0.2-1.1-0.5
			c-0.4-0.3-0.5-0.6-0.5-0.9c0-0.2,0.2-0.4,0.5-0.4c0.8-0.2,1.5-0.6,2.2-1.2c0.7-0.6,1.4-1.3,2-2.3C47.6,0.2,47.7,0.1,47.8,0.1z
			 M50.7,10.8c0-1.2,0-2.3,0-3.2c0-0.1,0-0.2,0-0.4c-1.4,0-2.5,0.1-3.2,0.2c-0.4,0.1-0.7,0.2-0.9,0.2c0,0.6,0,1.5,0,2.5
			c0,0.4,0,0.7-0.1,0.9C48.3,10.9,49.6,10.8,50.7,10.8z"/>
		<path class="st0" d="M83.6,8.4c0,2.8-1.5,4.9-4.6,6.3c-1.2,0.6-2.2,0.9-2.9,0.9c-0.4,0-0.8-0.2-1.2-0.5c-0.4-0.3-0.7-0.7-0.7-1.1
			c0-0.1,0.2-0.3,0.6-0.3c0.3,0,0.7-0.1,1.2-0.2c1.4-0.2,2.6-0.6,3.5-1.1c0.8-0.5,1.5-1.1,2-1.8C82,9.8,82.3,8.9,82.3,8
			c0-0.7-0.2-1.5-0.7-2.2c-0.9-1.6-2.5-2.4-4.8-2.4c-0.1,0-0.2,0-0.4,0c-0.2,0-0.3,0-0.3,0c-0.9,4.1-2.1,7.2-3.6,9
			c-0.9,1.1-1.6,1.6-2.2,1.6c-0.8,0-1.5-0.6-2.1-1.9c-0.4-1-0.6-2-0.6-3c0-1.5,0.5-2.9,1.5-4.1c1.6-1.9,4-2.8,7.2-2.8
			c2,0,3.7,0.5,5.1,1.6C82.9,4.9,83.6,6.4,83.6,8.4z M74.6,3.6c-2.1,0.4-3.6,1.1-4.5,2.2c-0.9,1.1-1.4,2.2-1.4,3.2
			c0,0.6,0.1,1.2,0.4,2c0.3,0.9,0.7,1.3,1.2,1.3c0.4,0,0.9-0.3,1.4-1C72.9,9.6,73.9,7,74.6,3.6z"/>
		<path class="st0" d="M89.6,12.8c0.4,0.1,0.7,0.1,0.8,0.1c0.4,0,1-0.2,1.7-0.5c0.2,0,0.3,0.1,0.3,0.3c0,0.2-0.2,0.6-0.7,1.2
			c-0.5,0.6-0.9,0.9-1.2,0.9c-0.3,0-0.5-0.1-0.7-0.4c-0.3-0.4-0.4-0.8-0.4-1.2C89.3,13,89.4,12.8,89.6,12.8z M94.6,0
			c0.4,0,0.7,0.2,0.7,0.7c0,0.3-0.2,0.7-0.5,1c-0.8,1-1.7,1.9-2.7,2.7c-0.2,0.1-0.3,0.3-0.3,0.5c0,0,0.2,0.2,0.5,0.4
			c0.3,0.1,0.6,0.4,0.9,0.7c0,0,0.1,0.1,0.1,0.1c0.7-0.8,1.4-1.5,2.1-2.2c0.1-0.1,0.2-0.1,0.4-0.1c0.1,0,0.3,0.1,0.4,0.2
			c0.1,0.1,0.1,0.3,0.1,0.5c0,0.2-0.1,0.4-0.2,0.5c-1.3,1.3-2.6,2.6-3.9,4c-0.1,0.1-0.1,0.2-0.1,0.3c0,0,0,0.1,0.1,0.1
			c0.2,0,0.7,0.1,1.5,0.1c0.9,0,1.6,0,2.2-0.1c0.1,0,0.2-0.1,0.2-0.3c-0.2-0.5-0.4-0.9-0.7-1.3c-0.1-0.1-0.1-0.2-0.1-0.3
			c0-0.1,0.1-0.2,0.2-0.4c0.1-0.1,0.3-0.2,0.5-0.2c0.1,0,0.2,0.1,0.3,0.3C96.7,7.7,97,8.2,97.4,9c0.2,0.3,0.2,0.6,0.2,0.8
			c0,0.5-0.2,0.8-0.7,0.8c-0.3-0.1-0.6-0.1-0.8-0.1c-0.4,0-0.7,0-1.1,0c0,0.1,0.1,0.3,0.1,0.5c-0.1,0.7-0.1,1.2-0.1,1.8l0.1,2.9
			c0,1-0.3,1.5-0.8,1.5c-0.4,0-0.7-0.5-0.7-1.5c0.1-1.2,0.1-2.2,0.1-2.9c0-0.5,0-1.1-0.1-1.8c0-0.2,0-0.3,0.1-0.5
			c-0.4,0-0.9,0-1.4-0.1c-0.4,0-0.9,0-1.3,0.1c-0.6,0-0.9-0.2-0.9-0.6c0-0.2,0.1-0.5,0.3-0.7c0.8-0.8,1.5-1.5,2.3-2.3
			c0,0-0.1,0-0.1,0c-1-0.6-1.8-1-2.3-1.2c-0.3-0.1-0.4-0.2-0.4-0.5c0-0.2,0.1-0.4,0.4-0.6c0.4-0.2,0.9-0.6,1.3-1.1
			c1-0.8,1.9-1.9,2.7-3.1C94.2,0.1,94.4,0,94.6,0z M96.2,12.1c0.1,0,0.2,0,0.4,0.1c0.3,0.4,0.6,0.6,1,0.7c0.3,0.1,0.4,0.2,0.4,0.4
			c0,0.3-0.1,0.5-0.3,0.7c-0.2,0.2-0.5,0.3-0.8,0.3c-0.2,0-0.4-0.3-0.6-0.8c-0.2-0.5-0.3-0.8-0.3-1C95.9,12.2,96,12.1,96.2,12.1z
			 M100.4,10.9h2.5l0-1.2c0-0.6,0.2-0.9,0.7-0.9c0.6,0,0.9,0.3,0.9,0.9l0,1.2h3.1c0.2,0,0.4,0.1,0.4,0.3c0,0.3-0.1,0.6-0.3,0.8
			c-0.2,0.2-0.5,0.3-0.8,0.3c-0.2,0-0.6-0.1-1.2-0.2c-0.4,0-0.8,0-1.2,0l-0.1,2.7c0.9,0,2,0.1,3.4,0.1c0.3,0,0.6,0,0.8,0
			c0.2,0,0.6,0,1-0.1c0.4-0.1,0.6-0.1,0.7-0.1c0.2,0,0.3,0.1,0.3,0.2c0,0.4-0.2,0.8-0.5,1.3c-0.4,0.5-0.7,0.7-1.1,0.7
			c-0.2,0-0.6-0.1-1.1-0.3c-1.1-0.4-2.5-0.6-4.2-0.6c-2.2,0-3.8,0.1-4.6,0.4c-0.4,0.1-0.8,0.2-1,0.2c-0.4,0-0.6-0.2-0.6-0.6
			c0-0.2,0.1-0.5,0.3-0.7c0.2-0.2,0.4-0.3,0.6-0.3c0.2,0,0.3,0,0.5,0.1c1.6-0.2,3-0.2,4.3-0.3l-0.1-2.7c-1,0-1.8,0.1-2.3,0.2
			c-0.3,0.1-0.6,0.2-0.6,0.2c-0.5,0-0.7-0.3-0.7-0.7c0-0.2,0.1-0.4,0.4-0.6C99.8,10.9,100.1,10.9,100.4,10.9z M102.7,0.7
			c0.7,0,1.7,0.1,2.9,0.2c0.2,0,0.5-0.1,0.9-0.2c0.5,0,0.8,0.3,0.8,0.8c0,0.1-0.1,0.2-0.3,0.4c-0.2,0.2-0.5,0.7-0.9,1.5
			c-0.4,0.7-0.9,1.4-1.4,2c1.4,0.7,2.6,1.1,3.5,1.4c0.9,0.3,1.7,0.4,2.3,0.5c0.2,0,0.3,0.1,0.3,0.3c0,0.4-0.3,0.9-0.8,1.4
			c-0.3,0.3-0.7,0.5-1,0.5c-0.2,0-0.5-0.1-0.8-0.2c-0.4-0.2-1.4-0.8-3-1.8c-0.5-0.3-1-0.6-1.5-0.9c-1,1.1-2.2,1.9-3.5,2.5
			c-0.4,0.2-0.8,0.3-1,0.3c-0.3,0-0.6-0.2-1-0.5c-0.3-0.2-0.4-0.5-0.4-0.7c0-0.3,0.1-0.4,0.3-0.5c0.8-0.1,1.5-0.3,2.2-0.5
			c1-0.4,1.7-0.8,2.4-1.3c-0.5-0.3-0.9-0.5-1.2-0.7c-0.5-0.3-1.1-0.4-1.6-0.6c-0.4-0.1-0.6-0.3-0.6-0.7c0-0.4,0.2-0.6,0.6-0.6
			c0.2,0,0.4,0.1,0.7,0.2c1.2,0.5,2.3,1,3.2,1.4c0.3-0.3,0.6-0.7,0.8-1c0.5-0.6,0.8-1.2,1-1.6l0.1-0.2c0-0.1-0.1-0.2-0.3-0.2
			c-0.3,0-0.7-0.1-1.2-0.1c-0.4,0-1.1,0-2,0.1c-0.5,0.1-1,0.2-1.5,0.3c-0.5,0-0.7-0.2-0.7-0.6c0-0.3,0.2-0.6,0.6-0.7
			C101.5,0.8,102.2,0.7,102.7,0.7z"/>
		<path class="st0" d="M115,12.7c0.3,0,0.6,0.1,0.8,0.1c0.4,0,0.8-0.2,1.4-0.5c0.1,0,0.2,0.1,0.2,0.3c0,0.2-0.2,0.5-0.6,1.1
			c-0.4,0.5-0.7,0.8-1,0.8c-0.3,0-0.5-0.1-0.6-0.4c-0.2-0.3-0.3-0.7-0.3-1.1C114.9,12.8,114.9,12.7,115,12.7z M117.8,0.6h7.6
			c0.2,0,0.4,0.1,0.4,0.2c0,0.3-0.1,0.6-0.3,0.9c-0.2,0.2-0.5,0.4-0.8,0.4c-0.2,0-0.6-0.1-1.3-0.2c-0.5,0-1.1,0-1.7,0l0,1.7h2.6
			c0.2,0,0.3,0.1,0.3,0.4c0,0.2-0.1,0.3-0.2,0.5c-0.2,0.2-0.4,0.3-0.6,0.3c-0.5-0.1-1.2-0.1-2.1-0.2l0,1.8h2.7
			c0.2,0,0.3,0.1,0.3,0.4c0,0.2-0.1,0.3-0.2,0.5c-0.2,0.2-0.4,0.3-0.6,0.3c-0.5-0.1-1.2-0.1-2.1-0.2l0,1.7c0.7,0,1.5,0.1,2.6,0.2
			c0.2,0,0.4,0,0.7-0.1c0.5,0,0.7,0.2,0.7,0.7c0,0.2,0,0.4-0.1,0.7c-0.1,0.6-0.2,1.7-0.4,3.4c-0.1,1.2-0.5,2.1-1.2,2.7
			c-0.5,0.4-0.9,0.6-1.4,0.6c-0.3,0-0.6-0.1-0.9-0.3c-0.2-0.2-0.4-0.5-0.4-0.7c0-0.2,0.1-0.4,0.3-0.5c1-0.3,1.7-1,2.1-2.1
			c0.3-0.9,0.4-2,0.4-3.1c0-0.2-0.2-0.3-0.5-0.3c-0.5-0.1-1.3-0.1-2.2-0.1c-0.8,0-1.6,0-2.4,0.1c-0.8,0.1-1.3,0.2-1.8,0.3
			c-0.3,0.1-0.5,0.2-0.6,0.2c-0.4,0-0.6-0.3-0.6-0.7c0-0.3,0-0.7,0.1-1.4c0.1-1.2,0.2-2.2,0.2-3s-0.1-1.8-0.2-3
			C116,1.8,116,1.4,116,1.1c0-0.4,0.2-0.6,0.6-0.6c0.2,0,0.4,0.1,0.6,0.2C117.4,0.7,117.6,0.6,117.8,0.6z M117.4,7.5
			c0,0.4,0,0.9,0,1.3c0,0.1,0.1,0.2,0.3,0.2c0.8,0,1.7-0.1,2.6-0.1l0-1.7c-0.2,0-0.4,0-0.5,0c-0.5,0-1.2,0.1-2.2,0.3
			C117.5,7.5,117.5,7.5,117.4,7.5z M117.5,4.7c0,0.5,0,1.1,0,1.7c0.1,0,0.2-0.1,0.3-0.1h2.5l0-1.9c-0.2,0-0.3,0-0.5,0
			c-0.5,0-1.2,0.1-2.2,0.3C117.6,4.7,117.5,4.7,117.5,4.7z M117.5,2c0,0.5,0,1,0,1.5c0.1,0,0.2,0,0.3,0h2.4V1.8
			c-1,0-1.7,0.1-2.2,0.1C117.8,2,117.6,2,117.5,2z M118.7,12c0.4,0,0.6,0.2,0.6,0.6l-0.3,1.4c0,0.2-0.1,0.3-0.3,0.3
			c-0.2,0-0.4-0.1-0.4-0.4l-0.2-1.4C118.1,12.2,118.3,12,118.7,12z M120.5,12c0.4,0,0.6,0.2,0.6,0.6l-0.3,1.3c0,0.2-0.1,0.3-0.3,0.3
			c-0.2,0-0.4-0.1-0.4-0.3l-0.2-1.3C119.9,12.2,120.1,12,120.5,12z M122,11.7c0.1,0,0.2,0,0.3,0.1c0.2,0.3,0.5,0.5,0.8,0.7
			c0.2,0,0.4,0.1,0.4,0.3c0,0.2-0.1,0.4-0.3,0.6c-0.2,0.1-0.4,0.2-0.7,0.2c-0.1,0-0.3-0.2-0.5-0.7c-0.2-0.4-0.3-0.7-0.3-0.8
			C121.7,11.8,121.8,11.7,122,11.7z M130.7,0.3c0.4,0,0.5,0.2,0.6,0.6c0,0,0,0,0,0c0.1,0.1,0.3,0.2,0.6,0.4c2.1,1.5,3.5,2.4,4,2.6
			c0.3,0.1,0.7,0.2,1.2,0.2c0.2,0,0.4,0.1,0.4,0.4c0,0.3-0.2,0.6-0.7,0.9c-0.5,0.3-0.9,0.4-1.4,0.4c-0.3,0-0.7-0.1-1-0.4
			c-0.7-0.9-1.6-1.9-2.5-2.9c-0.4-0.4-0.7-0.6-1-0.8c-0.8,1.1-1.5,1.9-1.9,2.3c-0.7,0.6-1.4,1.1-2.3,1.4c-0.2,0.1-0.4,0.2-0.6,0.2
			c-0.4,0-0.8-0.1-1-0.4c-0.3-0.2-0.4-0.4-0.4-0.7c0-0.2,0.1-0.3,0.3-0.3c0.9-0.2,1.7-0.4,2.3-0.7c0.5-0.2,1-0.6,1.4-1
			c0.5-0.5,1.1-1.2,1.8-2.2C130.4,0.3,130.6,0.3,130.7,0.3z M128.4,5.2l0.8,0.1c2.2,0,3.7,0,4.4-0.1c0.2,0,0.3,0.1,0.3,0.4
			c0,0.2-0.1,0.3-0.3,0.5c-0.2,0.2-0.4,0.3-0.7,0.3c-0.4-0.1-0.9-0.2-1.7-0.2c0,0.1,0,0.2,0,0.4c0,0.7,0,1.3,0,1.8h0.1
			c0.7,0,1.5,0,2.5,0.1c0.2,0,0.4,0,0.7-0.1c0.4,0,0.6,0.2,0.6,0.6c0,0,0,0.1,0,0.1c-0.1,0.1-0.1,0.4-0.1,0.7c0,0.4-0.1,0.9-0.1,1.4
			c0,0.3,0,0.6,0.1,1.1c0,0.4-0.2,0.6-0.6,0.6c-1.3-0.1-2.5-0.2-3.5-0.2c-0.2,1.2-0.5,2.1-1,2.7c-0.8,1-1.7,1.5-2.5,1.5
			c-0.4,0-0.7-0.2-1.1-0.6c-0.2-0.3-0.3-0.5-0.3-0.7c0-0.2,0.1-0.3,0.4-0.3c1.2-0.1,2.1-0.6,2.8-1.6c0.2-0.2,0.3-0.6,0.4-1
			c-1,0-1.6,0-1.9,0.1c-0.3,0-0.7,0.1-1.1,0.2c-0.4,0-0.6-0.2-0.6-0.6c0.1-0.7,0.2-1.3,0.2-1.8c0-0.4-0.1-1-0.2-1.6
			c0-0.4,0.2-0.6,0.7-0.6c0.2,0,0.4,0,0.6,0c0.2,0,0.5,0,0.9,0h1.8c0-0.6-0.1-1.3-0.1-2c0-0.1,0-0.1,0-0.2c-0.5,0-1.1,0.1-1.8,0.3
			c-0.4,0-0.6-0.2-0.6-0.5c0-0.2,0.1-0.4,0.3-0.6C128,5.2,128.2,5.2,128.4,5.2z M130,11.8c0.1-0.6,0.1-1.3,0.1-2.2
			c0-0.1,0-0.2,0-0.3c-0.6,0-1.3,0-2,0c-0.3,0-0.4,0.1-0.4,0.4c0,0.6-0.1,1.2-0.2,1.7c0,0.3,0.2,0.5,0.5,0.5
			C128.6,11.9,129.3,11.8,130,11.8z M131.3,9.4c0,0.3,0,0.5,0,0.7c0,0.6,0,1.2-0.1,1.7c0.7,0,1.5,0,2.4,0.1c0.3,0,0.4-0.1,0.4-0.4
			V9.7c0-0.1-0.1-0.2-0.2-0.2C133.1,9.4,132.3,9.4,131.3,9.4z M132.7,14.1c0,0,0.1,0,0.1,0c0.7,0.5,1.2,0.8,1.7,1
			c0.3,0.1,0.7,0.2,1.1,0.2c0.2,0,0.3,0.1,0.3,0.3c0,0.3-0.2,0.5-0.5,0.7c-0.6,0.4-1.1,0.6-1.4,0.6c-0.1,0-0.2-0.1-0.3-0.2
			c-0.2-0.2-0.6-0.9-1.2-2.1c0-0.1-0.1-0.2-0.1-0.2C132.4,14.2,132.5,14.1,132.7,14.1z"/>
		<path class="st0" d="M158.1,6c0,0.3-0.3,0.6-0.9,1c-1.4,0.9-3.4,2-6,3.4c0,0.1,0,0.4,0,0.8c0,0.3,0,0.6,0,0.8
			c0,0.5-0.3,0.7-0.8,0.7c-0.3,0-0.5-0.2-0.6-0.6c0-0.1,0-0.4,0-1c-1,0.5-1.6,0.8-1.9,1.1c-0.8,0.6-1.2,1.1-1.2,1.7
			c0,0.4,0.4,0.6,1.2,0.8c0.6,0.1,1.2,0.2,1.8,0.2c1.7,0,3.3-0.3,4.7-0.8c1.1-0.4,1.6-0.6,1.7-0.6c0.1,0,0.2,0.1,0.2,0.4
			c0,0.5-0.2,1-0.5,1.5c-0.2,0.4-0.9,0.6-1.9,0.8c-0.8,0.1-1.7,0.1-2.7,0.1c-1.3,0-2.4-0.1-3.4-0.4c-1.5-0.4-2.2-1.1-2.2-2
			c0-0.8,0.6-1.6,1.7-2.4c0.2-0.2,1.1-0.7,2.6-1.7c0-0.9-0.1-1.4-0.1-1.6c-0.2-0.6-0.6-0.9-1.2-0.9c-0.9,0-1.6,0.2-2.2,0.5
			c-0.3,0.1-0.9,0.6-1.9,1.4c-0.1,0.1-0.3,0.2-0.5,0.3c-0.4,0-0.7-0.3-0.7-0.9c0-0.4,0.5-0.9,1.4-1.4c1.3-0.8,2.5-1.8,3.5-3.2
			c-0.5,0.1-1.3,0.2-2.3,0.3c0,0-0.3,0.1-0.9,0.2c-0.4,0.1-0.7,0.2-0.9,0.2c-0.4,0-0.6-0.2-0.6-0.7c0-0.6,0.5-0.9,1.4-1
			c0.9,0,2.2-0.1,3.9-0.1c0.2-0.3,0.5-0.9,0.9-1.9c0.2-0.5,0.5-0.7,0.9-0.7c0.5,0,0.8,0.2,0.8,0.7c0,0.2-0.3,0.8-1,1.9
			c0.5,0,1.2,0,2.3,0c1,0,1.8,0,2.3,0c0.1,0,0.3,0,0.6,0c0.2,0,0.4-0.1,0.6-0.1c0.1,0,0.2,0.1,0.3,0.2c0,0.3-0.2,0.6-0.5,1
			c-0.3,0.4-0.6,0.6-0.9,0.6c-0.3,0-0.6-0.1-0.9-0.2c-0.3-0.1-0.6-0.1-0.9-0.2c-0.7-0.2-1.8-0.3-3.3-0.3c-0.8,1-1.5,1.9-2.2,2.6
			c0.6-0.1,1.1-0.1,1.6-0.1c1.3,0,2.1,0.8,2.2,2.3c0,0.2,0,0.3,0.1,0.4c2.1-1.3,3.9-2.4,5.2-3.3c0.4-0.3,0.8-0.4,1.1-0.4
			C157.9,5.3,158.1,5.5,158.1,6z"/>
		<path class="st0" d="M181.1,4.2c0,0.3-0.2,0.7-0.6,1.2c-0.4,0.5-0.7,0.7-1,0.7c0.1,0-0.4-0.1-1.5-0.4c-1.3-0.3-2.6-0.5-3.9-0.5
			c-0.2,0-0.4,0-0.6,0c-0.3,0-0.6,0-0.7,0c-0.1,1.1-0.2,2.1-0.2,3l4.2,0c0.8,0,1.1,0.1,1.1,0.3c0,0.2-0.1,0.5-0.3,0.7
			c-0.2,0.2-0.4,0.4-0.6,0.4c-1.3-0.2-2.2-0.3-2.8-0.3c-0.2,0-0.7,0-1.6,0c0,1.5,0.1,2.6,0.3,3.4c0.3,1.4,1,2.2,2,2.2
			c0.7,0,1.5-0.2,2.5-0.6c1-0.5,1.7-1,2.2-1.5c0.3-0.3,0.5-0.5,0.6-0.5c0.3,0,0.4,0.3,0.4,0.8c0,0.8-0.1,1.4-0.4,1.8
			c-0.3,0.5-1,0.8-2.3,1.1c-0.9,0.2-1.8,0.3-2.6,0.3c-1.8,0-3-0.8-3.5-2.3c-0.4-0.9-0.5-2.4-0.5-4.5c-1.1,0.1-1.8,0.1-1.9,0.1
			c-0.8,0.1-1.5,0.2-1.8,0.3c-0.4,0.1-0.6,0.2-0.5,0.2c-0.3,0-0.4-0.2-0.4-0.6c0-0.5,0.4-0.8,1.1-1c0.5-0.1,1.8-0.2,3.7-0.3
			c0-1.5,0-2.5,0.1-3l-1.6,0.1c-0.5,0.1-1.1,0.2-1.9,0.4c-1.1,0.3-1.7,0.5-1.8,0.6c-0.3,0-0.5-0.2-0.5-0.6c0-0.8,0.5-1.3,1.4-1.3
			c1-0.1,2.5-0.2,4.5-0.3c0.1-1,0.1-1.8,0.1-2.4c0-0.8,0.3-1.2,0.8-1.2c0.6,0,0.9,0.3,0.9,0.8c0,0-0.1,0.9-0.4,2.7c0.2,0,0.5,0,1,0
			c0.4,0,0.7,0,0.9,0c0.5,0,1.2,0,2.1,0c0.9,0,1.6,0,2.1,0c0.6,0,1.1,0,1.3-0.1c0.4,0,0.5-0.1,0.6-0.1C181,4.1,181.1,4.2,181.1,4.2z
			"/>
		<path class="st0" d="M203.1,13.1c0,0.6-0.2,1.1-0.5,1.5c-0.3,0.4-0.8,0.7-1.3,0.8c-0.9,0.2-2.6,0.3-5.2,0.3c-4.7,0-7-1-7-3.1
			c0-1,0.4-1.9,1.3-2.8c0.2-0.2,1-0.9,2.4-2.1c-0.2-1-0.2-1.8-0.2-2.6V2.9c0-1.5,0.3-2.3,0.8-2.3c0.6,0,0.9,0.3,0.9,0.9
			c0,0.1,0,0.3-0.1,0.5c-0.1,0.3-0.1,0.5-0.1,0.6C194,3.2,194,4.2,194,5.3c0,0.5,0,1.1,0.1,1.5c2.3-1.7,3.7-2.6,4.2-2.6
			c0.3,0,0.5,0.1,0.6,0.3c0.1,0.2,0.2,0.3,0.4,0.5c0,0.4-0.3,0.7-0.8,1c-1,0.5-2.1,1.1-3.1,1.6c-1.5,0.8-2.7,1.6-3.5,2.3
			c-1.1,0.9-1.7,1.8-1.7,2.7c0,1.1,1,1.7,3.1,1.7c1.3,0,2.9-0.1,4.7-0.3c1.5-0.2,2.8-0.5,3.9-0.8c0.4-0.2,0.8-0.2,1-0.2
			C203.1,12.8,203.1,12.9,203.1,13.1z"/>
		<path class="st0" d="M214.7,11.4c-0.2,0.8-0.5,1.6-0.9,2.5c-0.6,1.3-1.1,1.9-1.5,1.9c-0.5,0-0.9-0.6-1.3-1.9
			c-0.3-1.1-0.5-2.7-0.5-4.8c0-0.8,0.1-2,0.4-3.6c0.3-1.7,0.6-2.8,0.9-3.4c0.2-0.4,0.5-0.6,0.9-0.6c0.5,0,0.8,0.2,0.8,0.7
			c0,0.1-0.1,0.5-0.4,1c-0.4,0.8-0.6,1.7-0.9,2.8c-0.3,1.1-0.4,2.1-0.4,2.8c0,3.1,0.2,4.7,0.7,4.7c0.2,0,0.7-0.8,1.5-2.3
			c0.1-0.2,0.2-0.3,0.3-0.3C214.6,11.1,214.7,11.2,214.7,11.4z M226.8,12.2c0,0.1-0.2,0.5-0.5,1.2c-0.3,0.6-0.6,0.9-1,1.1
			c-0.5,0.2-1.6,0.3-3.4,0.3c-1.4,0-2.6-0.2-3.6-0.6c-1.4-0.6-2.1-1.5-2.1-2.7c0-1.3,0.3-2,0.9-2c0.1,0,0.2,0.1,0.2,0.3
			c-0.2,0.6-0.2,1-0.2,1.2c0,1.4,1.1,2.1,3.3,2.1c0.9,0,2-0.1,3.2-0.3c0.7-0.1,1.3-0.3,1.9-0.5c0.5-0.2,0.8-0.3,1-0.3
			C226.7,11.9,226.7,12,226.8,12.2z M224.7,3.5c0,0.2-0.6,0.8-1.8,1.6c-1.2,0.8-1.9,1.2-2.1,1.2c-0.3,0-0.4-0.1-0.4-0.3
			c0-0.1,0.3-0.5,0.8-1c0.5-0.4,0.8-0.8,1.1-0.9c-0.1,0-0.2,0-0.3,0c-1,0-2.1,0.1-3.3,0.3c-1.3,0.2-1.9,0.4-1.8,0.4
			c-0.3,0-0.4-0.2-0.4-0.5c0-0.5,0.2-0.8,0.6-1c0.2,0,0.6-0.1,1.3-0.2c1.6-0.2,3.5-0.2,5.6-0.2C224.5,2.9,224.7,3.1,224.7,3.5z"/>
		<path class="st0" d="M240,16c0,0.3-0.3,0.6-0.9,1c-0.6,0.4-1,0.6-1.3,0.6c-0.3,0-0.6-0.3-1-0.8c-0.8-1.2-1.7-2.3-2.4-3.1
			c-0.7-0.8-1-1.3-1-1.5c0-0.3,0.2-0.4,0.5-0.4c0.2,0,1.5,0.9,3.8,2.8c0.5,0.4,1.2,0.8,2.1,1.2C239.8,15.7,239.9,15.8,240,16z"/>
		<path class="st0" d="M6.5,31.6c0.4,0,0.6,0.2,0.6,0.5c0,0.2-0.1,0.4-0.2,0.6c-0.3,0.6-0.6,1.2-1,1.7h3.9l0-3
			c0-0.6,0.3-0.8,0.8-0.8c0.6,0,0.9,0.3,0.9,0.8l0,3H17c0.2,0,0.4,0.1,0.4,0.3c0,0.3-0.1,0.6-0.3,0.8c-0.2,0.2-0.5,0.3-0.8,0.3
			c-0.3,0-0.9-0.1-2-0.2c-0.9,0-1.8-0.1-2.8-0.1l0,3.5h4.8c0.2,0,0.4,0.1,0.4,0.3c0,0.3-0.1,0.6-0.3,0.8c-0.2,0.2-0.5,0.3-0.8,0.3
			c-0.3,0-0.9-0.1-1.8-0.2c-0.7,0-1.4-0.1-2.2-0.1l-0.1,3.8c1.3,0,2.8,0.2,4.3,0.4c1.5,0.2,2.9,0.3,4.2,0.3c0.4,0,0.8,0,1.1-0.1
			c0.1,0,0.1,0.1,0.1,0.3c0,0.4-0.1,0.9-0.3,1.3c-0.3,0.5-0.5,0.7-0.8,0.7c-0.4,0-0.8-0.1-1.2-0.3c-1.6-0.6-3.1-1-4.4-1.2
			c-1.1-0.1-2.3-0.2-3.9-0.2c-1.8,0-3.3,0.1-4.6,0.3c-1.4,0.3-2.8,0.7-4.1,1.2c-0.4,0.2-0.7,0.2-1,0.2C0.3,46.8,0,46.6,0,46
			c0-0.3,0.1-0.5,0.4-0.7c0.2-0.2,0.5-0.3,0.8-0.4c4-0.6,6.9-1,8.7-1l-0.1-3.8c-1.6,0-2.8,0.1-3.6,0.3c-0.5,0.1-0.8,0.2-0.9,0.2
			c-0.5,0-0.8-0.3-0.8-0.8c0-0.2,0.2-0.4,0.4-0.6C5.1,39.1,5.4,39,5.8,39h4.1l0-3.5c-1.6,0-2.8,0.1-3.6,0.2c-0.5,0.1-0.9,0.2-1,0.2
			c-0.2,0-0.3,0-0.4-0.1C4.6,36.3,4.3,36.6,4,37c-0.4,0.5-0.8,0.7-1.1,0.7c-0.3,0-0.7-0.1-1.1-0.4c-0.4-0.3-0.5-0.6-0.5-0.9
			c0-0.2,0.2-0.4,0.5-0.4c0.8-0.3,1.6-0.8,2.3-1.4c0.8-0.7,1.4-1.6,2.1-2.8C6.3,31.6,6.4,31.6,6.5,31.6z"/>
		<path class="st0" d="M26,31.8c0.6,0,0.9,0.2,0.9,0.7c0,0.6-0.1,1.2-0.2,2.1c0,0.2,0.1,0.3,0.4,0.3c0.6,0,1.4-0.1,2.2-0.1
			c0-1.1,0-2.4-0.1-3.7c0-0.6,0.2-0.9,0.7-0.9c0.5,0,0.7,0.3,0.7,0.9c0,1.4-0.1,2.6-0.1,3.8c0.5,0,1.1,0,1.9,0.1
			c0.2,0,0.3,0.1,0.3,0.4c0,0.3-0.1,0.5-0.3,0.6c-0.2,0.1-0.4,0.1-0.6,0.1c-0.5,0-0.9-0.1-1.2-0.1l0,3.3c0.7-0.2,1.3-0.3,1.8-0.4
			c0.3,0,0.4,0.1,0.4,0.4c0,0.4-0.2,0.6-0.5,0.6c-0.6,0.2-1.1,0.4-1.7,0.6l0,5.1c0,1-0.3,1.5-0.8,1.5c-0.4,0-0.6-0.5-0.6-1.5
			c0-1.7,0-3.2,0-4.6c-1.3,0.5-2.5,1.1-3.6,1.7c-0.5,0-0.7-0.2-0.7-0.6c0-0.4,0.1-0.6,0.2-0.8c0.1-0.2,0.3-0.4,0.6-0.5
			c1.4-0.4,2.6-0.8,3.6-1.1c0-1.4,0-2.6,0-3.7c-0.8,0-1.5,0.1-2.3,0.2c-0.5,0-0.9,0.1-1.2,0.3c-0.2,0.1-0.3,0.1-0.3,0.1
			c-0.4,0-0.6-0.2-0.6-0.5c0-0.1,0.1-0.4,0.4-0.7c0.1-0.4,0.2-0.8,0.2-1.2c0-0.2,0-0.5,0-0.9c-0.1-0.4-0.1-0.7-0.1-0.8
			C25.4,32,25.6,31.8,26,31.8z M37.5,30.5c0.4,0,0.6,0.2,0.6,0.5c0,0.2-0.1,0.4-0.2,0.6c-0.3,0.6-0.6,1.2-0.9,1.8c0.6,0,1.4,0,2.5,0
			h4.6c0.1,0,0.4-0.1,0.8-0.2c0.6,0,0.8,0.3,0.8,0.8c-0.4,2.1-0.6,4.1-0.7,6.2c-0.2,2.8-0.6,4.7-1.4,5.6c-0.6,0.8-1.4,1.2-2.3,1.2
			c-0.4,0-0.8-0.2-1-0.5c-0.2-0.3-0.3-0.6-0.3-0.9c0-0.3,0.1-0.4,0.4-0.5c1.3-0.1,2.1-0.5,2.4-1.1c0.4-0.6,0.8-2.5,1.1-5.6
			c0.1-1.9,0.2-3.1,0.2-3.5c0-0.2-0.1-0.4-0.3-0.4h-1.6c0,0,0,0.1,0,0.1l0,0.2c-0.1,0.5-0.3,1.4-0.6,2.5c-0.5,1.9-1.2,3.6-2.1,5.1
			c-0.5,1-1.1,1.8-1.8,2.5c-0.9,0.8-1.5,1.2-1.8,1.2c-0.3,0-0.6-0.2-1-0.6c-0.3-0.3-0.5-0.6-0.5-0.8c0-0.2,0.2-0.3,0.6-0.4
			c0.7-0.2,1.5-0.7,2.2-1.5c0.8-0.7,1.7-2,2.5-3.8c0.6-1.4,1-2.9,1.1-4.4c0,0,0-0.1,0-0.1h-0.5c-0.4,0-0.8,0-1.2,0l0,0.1
			c-0.1,0.4-0.3,0.9-0.5,1.7c-0.4,1.3-1,2.4-1.7,3.5c-0.4,0.7-0.9,1.2-1.5,1.7c-0.7,0.5-1.2,0.8-1.5,0.8c-0.3,0-0.6-0.2-0.9-0.5
			c-0.3-0.3-0.4-0.6-0.4-0.8c0-0.2,0.2-0.3,0.6-0.4c0.6-0.1,1.2-0.4,1.8-1c0.7-0.4,1.3-1.2,2-2.4c0.4-0.9,0.8-1.7,0.9-2.6
			c-0.2,0-0.4,0-0.6,0.1c-0.6,0.1-0.9,0.2-1.1,0.2c-0.1,0-0.2,0-0.2,0c-0.1,0.2-0.3,0.4-0.4,0.6C35.3,35.8,35,36,34.8,36
			c-0.3,0-0.6-0.1-1-0.4c-0.3-0.3-0.5-0.5-0.5-0.8c0-0.2,0.2-0.2,0.5-0.3c0.7-0.3,1.3-0.7,1.8-1.3c0.6-0.6,1.1-1.4,1.7-2.5
			C37.4,30.5,37.5,30.5,37.5,30.5z"/>
		<path class="st0" d="M65,36c0.4,0,0.6,0.2,0.6,0.6c0,0.2-0.1,0.3-0.3,0.5c0,0-0.1,0.1-0.1,0.1c0.8,0.6,1.5,1.2,2.3,1.8
			c0.2,0,0.5,0.1,0.6,0.3c0.2,0.2,0.4,0.4,0.4,0.7c0,0.3-0.4,0.6-1.1,1c-3.7,2.4-7.2,4.2-10.5,5.3c-1.3,0.5-2.8,0.8-4.4,0.8
			c-0.4,0-0.7-0.1-1-0.4c-0.6-0.6-0.8-1.1-0.8-1.7c0-0.4,0.1-0.6,0.4-0.6c0.2,0,0.4,0.1,0.6,0.2c0.4,0.2,0.8,0.2,1.4,0.2
			c1.8,0,3.4-0.2,4.7-0.5c1-0.3,2-0.6,3.1-1.1c-0.6-0.6-1-1-1.3-1.1c-0.3-0.1-0.4-0.3-0.4-0.5c0-0.5,0.3-0.8,0.8-0.8
			c0,0,0.4,0.3,0.9,0.8c0.5,0.5,0.8,0.9,0.8,1.1c0.9-0.4,1.8-0.8,2.7-1.3c1.5-0.8,2.3-1.3,2.3-1.5c0-0.1-0.1-0.3-0.4-0.5
			c-0.7-0.4-1.3-0.8-1.9-1.2c-0.1-0.1-0.3-0.2-0.3-0.4c-2.2,1.3-4.1,2.3-5.9,3c-1.5,0.6-2.6,0.9-3.3,0.9c-0.4,0-0.7-0.1-1-0.4
			c-0.3-0.2-0.4-0.5-0.4-0.8c0-0.2,0.1-0.3,0.3-0.4c2.7-0.5,4.7-1,6.1-1.6c1.3-0.4,2.8-1.2,4.7-2.4C64.7,36.1,64.8,36,65,36z
			 M62.8,30c0.4,0,0.5,0.2,0.6,0.6c0,0.1,0,0.2-0.1,0.3c0.6,0.5,1.2,1,1.8,1.6c0.2,0,0.4,0.1,0.5,0.3c0.2,0.2,0.3,0.4,0.3,0.6
			c0,0.2-0.3,0.5-0.9,0.7c-2.8,1.8-5.4,3.1-7.9,3.9c-1,0.4-2.1,0.6-3.3,0.6c-0.2,0-0.5-0.1-0.7-0.4c-0.4-0.5-0.6-1-0.6-1.4
			c0-0.3,0.1-0.5,0.3-0.5c0.2,0,0.3,0.1,0.5,0.2c0.3,0.1,0.8,0.2,1.3,0.2c1.3,0,2.3-0.1,3.2-0.4c0.4-0.1,0.8-0.2,1.1-0.4
			c-0.5-0.5-0.9-0.8-1.2-1c-0.3-0.1-0.4-0.3-0.4-0.5c0-0.5,0.3-0.8,0.8-0.8c0.1,0,0.4,0.3,0.9,0.8c0.5,0.5,0.7,0.8,0.8,1.1
			c0.8-0.3,1.7-0.7,2.5-1.2c1-0.5,1.5-0.9,1.5-1.1c0-0.1-0.1-0.3-0.3-0.4c-0.4-0.4-0.9-0.8-1.3-1.1c-0.1-0.1-0.2-0.2-0.2-0.3
			c-1.8,0.9-3.4,1.5-4.9,2c-1.2,0.4-2.1,0.6-2.7,0.6c-0.4,0-0.7-0.1-0.9-0.4c-0.3-0.2-0.4-0.5-0.4-0.8c0-0.2,0.1-0.3,0.3-0.4
			c2.2-0.3,3.9-0.6,5-1c1-0.3,2.3-0.8,3.8-1.5C62.5,30.1,62.7,30,62.8,30z"/>
		<path class="st0" d="M75.8,33.6h2.8c0-0.8-0.1-1.7-0.1-2.5c0-0.6,0.2-0.9,0.7-0.9c0.5,0,0.8,0.3,0.8,0.9c0,0.9-0.1,1.7-0.1,2.5
			h2.6c0.2,0,0.3,0.1,0.3,0.3c0,0.3-0.1,0.5-0.3,0.7c-0.2,0.2-0.5,0.3-0.8,0.3c-0.2,0-0.5,0-1.1-0.1c-0.2,0-0.5,0-0.7,0
			c0,0.3,0,0.7,0,1l0,1.2c0,0,0.1,0,0.2,0c0,0,0.4,0.3,1,0.8c0.6,0.5,0.9,0.9,0.9,1.1c0,0.4-0.2,0.6-0.7,0.6c0,0-0.1,0-0.3-0.1
			c-0.5-0.4-0.9-0.8-1.2-0.9l0.1,7.5c0,1-0.3,1.5-0.9,1.5c-0.4,0-0.6-0.5-0.6-1.5c0-2.8,0-5.1,0-7.1c-0.4,0.5-0.7,1-1.1,1.4
			c-0.5,0.6-1,1-1.7,1.4c-0.1,0.1-0.2,0.1-0.3,0.1c-0.4,0-0.7-0.2-1.1-0.6c-0.3-0.3-0.5-0.6-0.5-0.9c0-0.2,0.2-0.3,0.6-0.3
			c0.4-0.1,0.8-0.1,1-0.2c0.5-0.2,1-0.5,1.5-0.9c0.5-0.5,0.9-1,1.2-1.6c0.1-0.1,0.2-0.2,0.3-0.2c0-0.4,0-0.7,0-1c0-0.3,0-0.7,0-1
			c-1.2,0-2.1,0.1-2.7,0.2c-0.3,0.1-0.5,0.2-0.6,0.2c-0.4,0-0.7-0.2-0.7-0.6c0-0.2,0.1-0.4,0.4-0.6C75.2,33.6,75.5,33.6,75.8,33.6z
			 M86.4,30.2c0.4,0.1,0.6,0.3,0.7,0.6c0.2,0.9,0.3,1.5,0.3,1.7c0,0,0,0.1,0,0.1h3.4c0-0.1,0.2-0.8,0.6-2c0.1-0.3,0.3-0.4,0.7-0.4
			c0.5,0,0.8,0.3,0.8,0.7c0,0.1-0.1,0.3-0.2,0.4c-0.4,0.5-0.7,0.9-1,1.2c0,0-0.1,0.1-0.1,0.1h2.6c0.2,0,0.3,0.1,0.4,0.3
			c0,0.3-0.1,0.6-0.3,0.8C94,33.9,93.7,34,93.4,34c-0.2,0-0.8-0.1-1.6-0.2c-0.7,0-1.4-0.1-2.1-0.1c0,0.1,0,0.2,0,0.4
			c0,0.4,0,0.8,0,1.1H93c0.2,0,0.3,0.1,0.3,0.2c0,0.3-0.1,0.5-0.3,0.7c-0.2,0.2-0.5,0.3-0.8,0.3c-0.2,0-0.6,0-1.3-0.1
			c-0.4,0-0.9,0-1.4,0c0,0.5,0,1,0,1.5c0.9,0,2.1,0.1,3.6,0.1c0.3,0,0.6,0,0.9,0c0.2,0,0.5,0,1-0.1c0.4-0.1,0.6-0.2,0.7-0.2
			c0.2,0,0.3,0.1,0.3,0.2c0,0.4-0.2,0.8-0.6,1.3c-0.4,0.5-0.7,0.7-1.1,0.7c-0.2,0-0.6-0.1-1.2-0.3c-1-0.3-2.2-0.5-3.6-0.6l0.1,6.6
			c0,1-0.3,1.5-0.8,1.5c-0.4,0-0.6-0.5-0.6-1.5c0-2.7,0-4.9,0-6.6c-1.9,0-3.2,0.1-4,0.4c-0.4,0.1-0.7,0.2-1,0.2
			c-0.4,0-0.6-0.2-0.6-0.6c0-0.2,0.1-0.5,0.3-0.7c0.2-0.2,0.4-0.3,0.6-0.3c0.2,0,0.3,0,0.5,0.1c1.6-0.2,3-0.3,4.2-0.3
			c0-0.5,0-1,0-1.5c-1.1,0-1.9,0.1-2.4,0.1c-0.4,0.1-0.6,0.1-0.7,0.1c-0.4,0-0.6-0.2-0.7-0.6c0-0.2,0.1-0.4,0.4-0.6
			c0.2-0.1,0.4-0.2,0.8-0.2h2.6c0-0.4,0-0.7,0-1.1c0-0.1,0-0.3,0-0.4c-1.4,0-2.4,0.1-3,0.2c-0.4,0.1-0.7,0.2-0.9,0.2
			c-0.4,0-0.7-0.2-0.7-0.6c0-0.2,0.1-0.5,0.4-0.6c0.2-0.1,0.5-0.2,0.8-0.2h1.7c0,0-0.1-0.1-0.1-0.1c-0.2-0.4-0.4-0.7-0.6-1.1
			c-0.1-0.2-0.1-0.4-0.1-0.6C85.6,30.4,85.9,30.2,86.4,30.2z M86.6,43.7c0.3,0,0.4,0.1,0.4,0.4c0,0.2-0.1,0.4-0.2,0.6
			c-1.7,1.2-2.6,1.9-2.9,1.9c-0.6,0-0.9-0.2-0.9-0.6c0-0.5,0.1-0.8,0.4-0.9C83.3,44.9,84.4,44.5,86.6,43.7z M84.4,40.4
			c0.1,0,0.5,0.2,1.4,0.7c0.8,0.5,1.2,0.8,1.2,1.1c0,0.4-0.2,0.6-0.7,0.6c-0.1,0-0.2,0-0.4-0.1c-0.9-0.5-1.5-0.9-1.9-1
			c-0.4-0.1-0.6-0.3-0.6-0.4C83.5,40.7,83.8,40.4,84.4,40.4z M93.6,40.4c0.4,0,0.7,0.3,0.7,0.8c0,0.3-0.1,0.5-0.3,0.6
			c-1.6,0.7-2.5,1-2.5,1c-0.4,0-0.6-0.1-0.6-0.3c0-0.2,0.1-0.3,0.2-0.5l2.2-1.6C93.5,40.4,93.6,40.4,93.6,40.4z M91.2,43.7
			c0,0,0.1,0,0.1,0c0.8,0.5,1.5,0.9,2,1.1c0.3,0.1,0.8,0.2,1.3,0.2c0.2,0,0.3,0.1,0.3,0.3c0,0.3-0.2,0.5-0.5,0.7
			c-0.6,0.4-1.1,0.6-1.4,0.6c-0.2,0-0.3-0.1-0.4-0.2c-0.2-0.2-0.8-1-1.7-2.2C91,44.1,90.9,44,90.9,44C90.9,43.8,91,43.7,91.2,43.7z"
			/>
		<path class="st0" d="M101.5,32.8c0.4,0,0.6,0.3,0.6,0.8c-0.1,0.7-0.1,1.3-0.1,1.8v3c0,0.9-0.2,1.4-0.7,1.4c-0.4,0-0.6-0.5-0.6-1.4
			c0.1-1.3,0.2-2.3,0.2-3c0-0.5,0-1.1-0.1-1.8C100.8,33.1,101,32.8,101.5,32.8z M104.3,30c0.5,0,0.7,0.3,0.7,0.9
			c-0.1,1.7-0.1,3.3-0.1,4.7l0.1,10c0,1-0.3,1.5-0.8,1.5c-0.4,0-0.6-0.5-0.6-1.5c0.1-4.3,0.1-7.6,0.1-10c0-1.4,0-2.9-0.1-4.7
			C103.6,30.3,103.8,30,104.3,30z M107.3,31.1c0.5,0,0.7,0.2,0.7,0.6l-1.4,3c-0.1,0.3-0.3,0.4-0.6,0.4c-0.2,0-0.4-0.2-0.4-0.5l0.9-3
			C106.8,31.3,107,31.1,107.3,31.1z M110.8,32.2c0.4,0,0.6,0.2,0.6,0.5c0,0.2-0.1,0.5-0.2,0.7c-0.2,0.5-0.4,1-0.7,1.5c0,0,0,0,0,0
			h3.1l0-3.6c0-0.6,0.2-0.8,0.7-0.8c0.6,0,0.9,0.3,0.9,0.8l0,3.6h4.5c0.2,0,0.4,0.1,0.4,0.3c0,0.3-0.1,0.6-0.3,0.8
			c-0.2,0.2-0.5,0.3-0.8,0.3c-0.2,0-0.8-0.1-1.6-0.2c-0.7,0-1.4-0.1-2.1-0.1l0,3.3h3.8c0.2,0,0.3,0.1,0.4,0.3c0,0.3-0.1,0.6-0.3,0.8
			c-0.2,0.2-0.5,0.3-0.9,0.3c-0.2,0-0.7-0.1-1.4-0.2c-0.5,0-1-0.1-1.6-0.1l0,3.6c0.8,0,1.6,0.1,2.5,0.2c1,0.1,1.9,0.1,2.8,0.1
			c0.4,0,0.8,0,1.1-0.1c0.1,0,0.1,0.1,0.1,0.3c0,0.4-0.1,0.9-0.4,1.3c-0.3,0.5-0.5,0.7-0.8,0.7s-0.5-0.1-0.8-0.3c-1.1-0.5-2-0.8-3-1
			c-0.7-0.1-1.6-0.2-2.6-0.2c-1.2,0-2.2,0.1-3.1,0.3c-0.9,0.2-1.8,0.6-2.7,1c-0.3,0.1-0.5,0.2-0.6,0.2c-0.4,0-0.6-0.3-0.6-0.7
			c0-0.3,0.1-0.5,0.3-0.7c0.2-0.2,0.5-0.3,0.8-0.4c2.5-0.4,4.4-0.7,5.6-0.7l-0.1-3.6c-1.3,0-2.2,0.1-2.8,0.2
			c-0.4,0.1-0.6,0.2-0.8,0.2c-0.4,0-0.7-0.2-0.7-0.6c0-0.2,0.1-0.4,0.4-0.6c0.2-0.1,0.5-0.2,0.8-0.2h3.1l0-3.3
			c-1.2,0-2.2,0.1-2.8,0.2c-0.4,0.1-0.7,0.2-0.8,0.2c-0.2,0-0.3,0-0.4-0.1c-0.2,0.3-0.4,0.6-0.6,0.8c-0.3,0.4-0.6,0.6-0.8,0.6
			c-0.3,0-0.7-0.1-1.1-0.4c-0.4-0.3-0.5-0.6-0.5-0.9c0-0.2,0.2-0.4,0.5-0.4c0.6-0.3,1.2-0.7,1.7-1.2c0.5-0.6,1-1.4,1.5-2.4
			C110.6,32.2,110.7,32.2,110.8,32.2z"/>
		<path class="st0" d="M143.3,37.2c0,1.2-0.5,2.1-1.6,2.9c-0.9,0.7-2,1-3.2,1c-0.8,0-1.4-0.2-1.8-0.6c-0.4-0.5-0.6-0.9-0.6-1.3
			c0-0.2,0-0.3,0.1-0.3c0.2,0,0.6,0.1,1.2,0.2c0.5,0.1,1,0.2,1.3,0.2c0.7,0,1.4-0.2,2.1-0.6c0.8-0.4,1.2-1,1.2-1.6
			c0-0.6-0.2-1.1-0.7-1.5c-0.4-0.3-1-0.5-1.6-0.5c-1.6,0-3.9,0.5-6.8,1.4c0.4,2.4,1,4.4,1.9,6c0.6,1.2,1.3,2.1,2,2.7
			c0.2,0.1,0.4,0.3,0.6,0.6c0,0.2-0.3,0.4-0.8,0.7c-0.5,0.2-0.9,0.3-1.2,0.3c-0.7,0-1.5-1.5-2.4-4.4c-0.6-2.1-1.1-3.9-1.3-5.5
			c-0.8,0.3-2.1,0.8-3.7,1.4l-1.3,0.6c-0.5,0-0.8-0.3-0.8-0.9c0-0.4,0.8-0.9,2.5-1.4c0.3-0.1,1.4-0.4,3.2-0.9
			c-0.2-1.8-0.3-3.2-0.3-4.2c0-0.5,0.3-0.7,0.8-0.7c0.3,0,0.5,0.2,0.6,0.7c0,0.3,0,0.7,0,1.3c0,1,0.1,1.9,0.2,2.7
			c3-0.8,5.2-1.2,6.6-1.2c1.1,0,2,0.2,2.7,0.7C142.9,35.5,143.3,36.3,143.3,37.2z M138.5,30.9c0,0.3-0.4,0.8-1.1,1.6
			c-0.8,0.8-1.3,1.1-1.5,1.1c-0.3,0-0.6-0.2-1-0.6c-0.4-0.4-0.6-0.7-0.6-0.9c0-0.1,0.4-0.2,1.1-0.3c0.5,0,1.1-0.3,1.8-0.6
			c0.7-0.4,1-0.6,1-0.6C138.5,30.6,138.5,30.7,138.5,30.9z"/>
		<path class="st0" d="M159.4,35.8c1.3,0,2.8,0.1,4.5,0.2c1.3,0.1,2.5,0.1,3.4,0.1c0.5,0,1.1-0.1,1.8-0.3c0.1,0,0.2,0.2,0.2,0.5
			c0,0.5-0.2,1.1-0.6,1.6c-0.3,0.4-0.5,0.6-0.7,0.6c-0.4,0-0.9-0.1-1.5-0.4c-0.9-0.4-2-0.8-3.1-0.9c-1.2-0.2-2.6-0.3-4.1-0.3
			c-0.6,0-1.2,0-1.8,0c-0.4,0.6-0.8,1.3-1.3,2c-1.2,1.4-2.6,2.5-3.9,3.3c-0.9,0.5-1.7,0.8-2.3,0.8c-0.3,0-0.5-0.1-0.8-0.3
			c-0.4-0.3-0.5-0.7-0.5-1c0-0.2,0.2-0.4,0.7-0.5c1.8-0.2,3.4-1,4.9-2.2c0.7-0.6,1.3-1.3,1.8-2c-0.5,0-1,0.1-1.6,0.1
			c-0.9,0.1-2.4,0.5-4.2,1.3c-0.6,0-0.8-0.2-0.8-0.7c0-0.3,0.1-0.5,0.4-0.7c0.3-0.3,0.7-0.5,1.2-0.5c2.3-0.4,4.2-0.6,5.9-0.7
			c0.3-0.5,0.6-1.1,0.8-1.7c0-0.2,0.2-0.3,0.5-0.3c0.4,0,0.7,0.2,0.7,0.7c0,0-0.1,0.1-0.1,0.3c-0.1,0.3-0.3,0.6-0.5,1
			C158.6,35.8,159,35.8,159.4,35.8z M150.8,31.6h4.2l-0.1-0.7c0-0.4,0.2-0.6,0.7-0.6s0.7,0.2,0.7,0.7v0.6h5.2l0.1-0.6
			c0-0.6,0.2-0.8,0.7-0.8s0.7,0.2,0.7,0.7l-0.2,0.7h5.1c0.2,0,0.3,0.1,0.4,0.3c0,0.3-0.1,0.6-0.3,0.8c-0.2,0.2-0.5,0.3-0.9,0.3
			c-0.4,0-1.5-0.1-3.2-0.2c-0.5,0-0.9,0-1.4,0l-0.3,1c-0.1,0.3-0.3,0.4-0.6,0.4c-0.3,0-0.5-0.2-0.5-0.6l0.1-0.8c-1,0-2,0-3,0
			c-0.7,0-1.4,0-2.1,0v0.8c0,0.4-0.2,0.6-0.5,0.6c-0.3,0-0.5-0.2-0.6-0.6l-0.1-0.7c-1.5,0-2.6,0.1-3.4,0.2c-0.8,0.1-1.3,0.2-1.5,0.2
			c-0.5,0-0.8-0.3-0.8-0.7c0-0.2,0.2-0.5,0.4-0.6C150.1,31.7,150.4,31.6,150.8,31.6z M156.3,40.2c0.2,0,0.5,0,0.7,0.1
			c0.2,0.1,0.6,0.1,1,0.1h3c0.7,0,1.5,0,2.4,0.1c0.2,0,0.5-0.1,0.8-0.2c0.4,0,0.7,0.2,0.7,0.7c0,0,0,0.1,0,0.2
			c-0.1,0.2-0.1,0.5-0.2,0.9c0,0.6-0.1,1.2-0.1,1.8c0,0.4,0,0.9,0.1,1.6c0,0.5-0.2,0.7-0.6,0.7c-1.5-0.1-2.9-0.2-4.1-0.2
			c-1.3,0-2.1,0-2.5,0.1c-0.3,0-0.6,0.1-1.1,0.1c-0.4,0-0.6-0.2-0.6-0.6c0.1-0.9,0.2-1.7,0.2-2.4c0-0.6-0.1-1.4-0.2-2.4
			C155.7,40.4,155.9,40.2,156.3,40.2z M159.9,45c0.9,0,2,0,3.1,0.1c0.2,0,0.4-0.1,0.4-0.3v-3c0-0.2-0.1-0.3-0.2-0.3
			c-1.2-0.1-3-0.1-5.4-0.1c-0.3,0-0.5,0.2-0.5,0.5c0,1-0.1,1.9-0.2,2.8c0,0.3,0.2,0.4,0.6,0.4C158.3,45,159,45,159.9,45z"/>
		<path class="st0" d="M180.1,32.3h3.3l-0.1-1.5c0-0.5,0.3-0.7,0.8-0.7c0.6,0,0.8,0.2,0.8,0.7l-0.1,1.5h3.9c0.1,0,0.2,0,0.2,0.1
			c0.4-0.4,0.8-0.9,1.2-1.3c0.1-0.1,0.3-0.1,0.5-0.1c0.4,0,0.5,0.3,0.6,0.6c0,0.2-0.1,0.3-0.2,0.4c-1.2,1.3-2.3,2.4-3.3,3.3
			c0.4,0,0.9,0.1,1.3,0.1c1.4,0.1,2.6,0.2,3.7,0.2c0.5,0,1.2-0.1,1.9-0.3c0.1,0,0.2,0.2,0.2,0.5c0,0.5-0.2,1-0.6,1.6
			c-0.3,0.4-0.6,0.6-0.8,0.6c-0.4,0-1-0.1-1.6-0.4c-1-0.4-2.1-0.7-3.3-0.9c-0.6-0.1-1.3-0.1-1.9-0.2c-1,0.8-1.8,1.5-2.6,1.9
			c-0.3,0.2-0.6,0.4-0.8,0.5c0.2,0,0.4,0,0.6,0h2.5c0.6,0,1.3,0,2,0.1c0.2,0,0.5-0.1,0.9-0.2c0.4,0,0.6,0.3,0.6,0.8c0,0,0,0.1,0,0.2
			c-0.1,0.2-0.1,0.6-0.2,1.2c0,0.8-0.1,1.6-0.1,2.5c0,0.6,0,1.3,0.1,2.3c0,0.6-0.2,0.8-0.6,0.8c-1.2-0.2-2.4-0.3-3.4-0.3
			c-1.3,0-2.1,0-2.5,0.1c-0.3,0-0.7,0.1-1.1,0.2c-0.4,0-0.7-0.2-0.7-0.7c0.1-1.2,0.2-2.3,0.2-3.2c0-0.8,0-1.8-0.1-2.9
			c-1.4,0.7-2.9,1.3-4.5,1.8c-0.7,0.3-1.3,0.4-1.7,0.4c-0.5,0-0.9-0.2-1.2-0.5c-0.3-0.3-0.5-0.6-0.5-0.9c0-0.2,0.1-0.4,0.4-0.4
			c2.8-0.4,5-0.9,6.7-1.6c1.3-0.5,2.7-1.3,4-2.2c-0.2,0-0.3,0-0.5,0c-1.6,0-3.2,0.1-4.7,0.2c-0.9,0.1-2.3,0.5-4.1,1.1
			c-0.5,0-0.7-0.2-0.7-0.6c0-0.3,0.1-0.5,0.3-0.7c0.3-0.3,0.6-0.5,1.1-0.5c3.2-0.4,5.6-0.6,7.5-0.6l-0.1-1.8c-1.4,0-2.4,0.1-3,0.2
			c-0.4,0.1-0.7,0.2-0.8,0.2c-0.5,0-0.7-0.2-0.7-0.6c0-0.2,0.1-0.4,0.4-0.6C179.5,32.3,179.8,32.3,180.1,32.3z M185.7,45.1
			c0.7,0,1.5,0,2.4,0.1c0.2,0,0.4-0.1,0.4-0.4v-1.9c-2.3,0-4.1,0.1-5.3,0.2c0,0-0.1,0-0.1,0c0,0.5,0,1.1-0.1,1.6
			c0,0.3,0.2,0.5,0.6,0.5C184.1,45.1,184.8,45.1,185.7,45.1z M183,41.9c0.1,0,0.1,0,0.2,0h5.2v-1.6c0-0.2-0.1-0.3-0.2-0.3
			c-1.1-0.1-2.7-0.1-4.7-0.1c-0.3,0-0.5,0.2-0.5,0.5C183,40.9,183,41.4,183,41.9z M186.1,35.2c0.6-0.5,1.2-1.1,1.9-1.7
			c-0.3,0-0.7,0-1.4-0.1c-0.5,0-1.1,0-1.7,0l-0.1,1.8C185.2,35.2,185.7,35.2,186.1,35.2z"/>
		<path class="st0" d="M209.5,29.7c0.6,0,0.8,0.3,0.8,0.9c-0.1,0.4-0.2,0.8-0.2,1.1c1.2,0,2.6,0.1,4.2,0.3c1.5,0.1,2.8,0.2,3.8,0.2
			c0.5,0,1.2-0.1,1.9-0.2c0.1,0,0.2,0.2,0.2,0.5c0,0.5-0.2,1-0.6,1.6c-0.3,0.4-0.6,0.6-0.8,0.6c-0.4,0-1-0.2-1.7-0.5
			c-1.1-0.5-2.2-0.8-3.5-1c-1.4-0.2-2.9-0.3-4.5-0.3c-0.2,0-0.4,0-0.6,0c0,0.1,0,0.2,0,0.3c0,0,0,0.1-0.1,0.2c-0.4,0.5-0.8,1-1,1.3
			c-0.2,0.2-0.5,0.5-0.8,0.8c0,0.1,0.1,0.2,0.4,0.2h5.4c0.2,0,0.4-0.1,0.4-0.3c0,0,0,0,0-0.1c-0.2-0.3-0.5-0.6-0.8-1
			c0,0-0.1-0.1-0.1-0.1c0-0.4,0.2-0.6,0.7-0.6c0.1,0,0.2,0,0.2,0.1c0.5,0.6,1.1,1.3,1.7,2.2c0.1,0.1,0.1,0.2,0.1,0.3
			c0,0.4-0.2,0.6-0.6,0.6h-6.9c-0.5,0-1,0-1.7,0.1c-0.6,0-0.8-0.2-0.8-0.6c0-0.2,0.1-0.4,0.3-0.6c0.2-0.2,0.4-0.3,0.6-0.5
			c0.3-0.2,0.5-0.5,0.8-0.8c0.3-0.4,0.6-0.8,0.9-1.3c-1,0-2,0.1-2.9,0.2c-1,0.1-2.4,0.5-4.3,1.3c-0.6,0-0.8-0.2-0.8-0.7
			c0-0.3,0.1-0.5,0.4-0.7c0.3-0.3,0.7-0.5,1.1-0.5c3.6-0.5,6.3-0.8,8.3-0.8c0-0.4-0.1-0.7-0.2-1.1C208.6,30,208.9,29.7,209.5,29.7z
			 M205.5,37.7c0.3,0,0.5,0.1,0.6,0.2l6.3,0.1c0.2,0,0.5-0.1,1-0.2c0.6,0,0.8,0.2,0.8,0.6c-0.3,1-0.4,2.3-0.4,3.8
			c0,0.9,0.1,2.3,0.2,4.1c0,0.6-0.2,0.9-0.7,0.9c-0.2,0-0.4-0.1-0.5-0.3c-0.1-0.3-0.1-0.7-0.1-1.2c0-0.5,0-1,0-1.4
			c-2.8,0-5,0.1-6.6,0.2c0,0-0.1,0-0.1,0c-0.2,0.5-0.4,1-0.7,1.3c-0.8,0.8-1.5,1.2-2.2,1.2c-0.4,0-0.8-0.2-1.2-0.7
			c-0.2-0.3-0.3-0.6-0.3-0.8c0-0.1,0.1-0.2,0.4-0.2c1-0.1,1.9-0.5,2.5-1.2c0.4-0.5,0.7-1.6,0.7-3.1c0-0.8-0.1-1.6-0.3-2.5
			C204.7,37.9,205,37.7,205.5,37.7z M206.2,43.3h6.5c0-0.6,0-1.2,0-1.7c-2.7,0-4.8,0.1-6.3,0.2c0,0-0.1,0-0.1,0
			C206.3,42.4,206.3,42.9,206.2,43.3z M206.4,40.7c0,0,0.1,0,0.1,0h6.2c0,0,0.1,0,0.1,0c0-0.6,0.1-1.1,0.1-1.5
			c0-0.1-0.2-0.2-0.6-0.2c-2.2,0-4.1,0-5.9,0.1C206.4,39.7,206.4,40.3,206.4,40.7z"/>
		<path class="st0" d="M228.3,33.3h7.1c-0.1-1.2-0.1-2-0.1-2.4c0-0.4,0.2-0.6,0.6-0.6c0.5,0,0.8,0.3,0.8,0.7v0.8c0,0.5,0,1,0,1.5
			h6.3c0.2,0,0.4,0.1,0.4,0.2c0,0.3-0.1,0.6-0.3,0.8c-0.2,0.2-0.5,0.4-0.8,0.4c-0.4,0-1.3-0.1-2.7-0.2c-0.9,0-1.8-0.1-2.8-0.1
			c0,0.8,0.1,1.5,0.2,2.1c0.2,1.4,0.6,2.7,1.2,3.7c0.2,0.4,0.4,0.8,0.7,1.2c0.8-1.2,1.4-2.6,1.9-4.3c0-0.2,0.2-0.3,0.6-0.3
			c0.4,0,0.6,0.2,0.6,0.7c0,0-0.1,0.1-0.1,0.3c-0.4,1.3-1.1,2.8-2,4.5c0,0-0.1,0.1-0.1,0.1c0.4,0.4,0.8,0.7,1.2,1
			c0.8,0.6,1.8,1,3,1.3c0.3,0,0.4,0.2,0.4,0.5c0,0.3-0.2,0.6-0.5,1c-0.4,0.4-0.7,0.6-1.1,0.6c-0.3,0-0.7-0.2-1.2-0.6
			c-1-0.7-1.9-1.5-2.8-2.5c-0.7,0.8-1.4,1.5-2.1,2.1c-0.8,0.6-1.4,0.9-1.8,0.9c-0.3,0-0.6-0.1-0.8-0.3c-0.4-0.4-0.6-0.7-0.6-1.1
			c0-0.2,0.3-0.4,0.8-0.5c1.3-0.2,2.6-0.9,3.7-2.1c-0.7-1.1-1.2-2.3-1.6-3.6c-0.4-1.1-0.6-2.7-0.8-4.7c-0.2,0-0.4,0-0.6,0
			c-2.6,0-4.5,0-5.7,0.1c-0.5,0.1-0.8,0.1-1.1,0.1c0,0.1,0,0.3,0,0.4l0,2.7c0.3,0,0.9-0.1,1.7-0.1h2.5c0.1,0,0.4-0.1,0.8-0.2
			c0.6,0,0.8,0.3,0.8,0.8c-0.3,1-0.5,2.1-0.6,3.1c-0.1,1.4-0.5,2.4-1.1,2.8c-0.5,0.4-1.1,0.6-1.8,0.6c-0.4,0-0.7-0.2-1-0.5
			c-0.2-0.3-0.3-0.6-0.3-0.8c0-0.3,0.1-0.4,0.4-0.5c0.9,0,1.5-0.2,1.7-0.4c0.3-0.3,0.6-1,0.8-2.2c0.1-0.8,0.2-1.2,0.2-1.4
			c0-0.3-0.1-0.4-0.3-0.4h-1.5c-0.7,0-1.4,0.1-2,0.2c-0.2,0.1-0.4,0.1-0.5,0.1c0,1-0.2,1.9-0.4,2.6c-0.4,1.1-0.9,2-1.6,2.9
			c-0.4,0.5-0.8,0.7-1.1,0.7c-0.4,0-0.9-0.2-1.4-0.7c-0.4-0.3-0.6-0.6-0.6-0.9c0-0.3,0.2-0.4,0.6-0.5c0.5-0.1,0.9-0.2,1.2-0.5
			c0.7-0.4,1.2-1.1,1.5-2.1c0.3-0.9,0.4-2,0.4-3.4c0-0.8-0.1-1.9-0.3-3.4c0-0.6,0.2-0.8,0.7-0.8c0.3,0,0.6,0.1,0.7,0.2
			C228,33.3,228.2,33.3,228.3,33.3z M241.3,30.3c0.4,0,0.6,0.2,0.6,0.6c0,0.3,0,0.5-0.1,0.7c-1.2,0.9-1.8,1.4-1.9,1.4
			c-0.3,0-0.5-0.1-0.5-0.4c0-0.1,0.3-0.7,1-1.9C240.7,30.4,240.9,30.3,241.3,30.3z"/>
		<path class="st0" d="M255.3,46c0,0.3-0.3,0.6-0.9,1c-0.6,0.4-1,0.6-1.3,0.6c-0.3,0-0.6-0.3-1-0.8c-0.8-1.2-1.7-2.3-2.4-3.1
			c-0.7-0.8-1-1.3-1-1.5c0-0.3,0.2-0.4,0.5-0.4c0.2,0,1.5,0.9,3.8,2.8c0.5,0.4,1.2,0.8,2.1,1.2C255.1,45.7,255.2,45.8,255.3,46z"/>
		<path class="st0" d="M9.7,65.2h2l0-3.9c0-0.6,0.2-0.8,0.7-0.8c0.6,0,0.9,0.3,0.9,0.8l-0.1,3.9h2.4c0.2,0,0.3,0.1,0.3,0.3
			c0,0.2-0.1,0.5-0.3,0.6c-0.2,0.2-0.5,0.3-0.8,0.3c-0.1,0-0.5,0-1-0.1c-0.2,0-0.5,0-0.7,0l-0.1,4.6c1.1-0.2,2-0.4,2.6-0.5
			c0.3,0,0.4,0.1,0.4,0.4c0,0.4-0.2,0.6-0.5,0.7c-2.3,0.6-4.4,1.3-6.3,2.1c-0.5,0-0.7-0.2-0.7-0.6c0-0.4,0.1-0.6,0.2-0.8
			c0.1-0.2,0.3-0.3,0.6-0.4c0.9-0.2,1.7-0.4,2.4-0.6l0-4.9c-0.9,0-1.5,0.1-1.9,0.2c-0.3,0.1-0.5,0.2-0.6,0.2c-0.4,0-0.7-0.2-0.7-0.6
			c0-0.2,0.1-0.4,0.4-0.6C9,65.2,9.3,65.2,9.7,65.2z M27.8,64.7c0.5,0,0.7,0.3,0.7,0.8c0,0.1-0.1,0.3-0.2,0.5
			c-0.3,0.7-0.8,1.9-1.5,3.8c-0.1,0.4-0.3,0.6-0.7,0.6c-0.4,0-0.6-0.2-0.6-0.5c0.1-0.7,0.5-1.8,1-3.4c0-0.1-0.1-0.2-0.4-0.2
			c-0.2,0-0.6,0-1.1,0.1c-0.6,0.1-1.2,0.2-1.7,0.3l0,3.7c0,0.9-0.2,1.4-0.7,1.4c-0.4,0-0.6-0.5-0.6-1.4c0-1.3,0-2.4,0-3.4
			c-0.9,0.2-1.7,0.4-2.4,0.6c0,1.7-0.1,3.7-0.1,5.8c0,0.4,0.2,0.6,0.6,0.7c0.8,0.1,2.7,0.1,5.9,0.1c1.5,0,2.8-0.2,4-0.6
			c0.2,0,0.3,0.2,0.3,0.5c0,0.4-0.1,0.9-0.4,1.4c-0.3,0.6-0.6,0.9-0.8,0.9c-0.4,0-3.6-0.3-9.6-0.9c-0.9-0.1-1.4-0.5-1.4-1.1
			c0.1-2.6,0.2-4.6,0.2-6c0-0.1,0-0.3,0-0.4c-0.5,0.2-1,0.4-1.6,0.6c-0.6,0-0.8-0.2-0.8-0.6c0-0.3,0.1-0.5,0.3-0.8
			c0.1-0.2,0.4-0.3,0.7-0.3c0.5-0.1,1-0.2,1.5-0.4c0-1,0-2.1-0.1-3.2c0-0.4,0.2-0.6,0.7-0.6c0.6,0,0.8,0.3,0.8,0.8
			c0,0.8,0,1.7,0,2.7c0.9-0.2,1.7-0.4,2.4-0.5c0-0.6,0-1.1,0-1.6c0-0.9,0-2-0.1-3.1c0-0.6,0.2-0.8,0.7-0.8c0.4,0,0.6,0.3,0.6,0.8
			c-0.1,1.2-0.1,2.2-0.1,3.1l0,1.4c1-0.2,1.9-0.3,2.7-0.4c0.5-0.1,0.8-0.2,1.1-0.3C27.3,64.7,27.5,64.7,27.8,64.7z"/>
		<path class="st0" d="M35.6,65.4h2l-0.1-3.3c0-0.6,0.2-0.8,0.7-0.8c0.6,0,0.9,0.3,0.9,0.8l0,3.3h2.2c0.2,0,0.3,0.1,0.3,0.3
			c0,0.3-0.1,0.5-0.3,0.7c-0.2,0.2-0.5,0.3-0.8,0.3c-0.1,0-0.4,0-1-0.1c-0.2,0-0.4,0-0.5,0l-0.1,4.2c0.9-0.3,1.6-0.4,2.1-0.5
			c0.2,0,0.3,0.1,0.3,0.4c0,0.3-0.1,0.5-0.4,0.6c-2,0.7-4,1.6-5.7,2.5c-0.5,0-0.7-0.2-0.7-0.6c0-0.3,0.1-0.6,0.2-0.7
			c0.1-0.2,0.2-0.4,0.5-0.5c0.9-0.3,1.7-0.5,2.4-0.8l-0.1-4.6c-0.9,0-1.6,0.1-2,0.2c-0.3,0.1-0.5,0.2-0.6,0.2
			c-0.4,0-0.7-0.2-0.7-0.6c0-0.2,0.1-0.4,0.4-0.6C35,65.4,35.3,65.4,35.6,65.4z M48,71.6c0.2,0,0.3,0.1,0.3,0.4
			c0,0.3-0.1,0.5-0.4,0.6c-2,0.6-3.9,1.3-5.6,2.1c-0.5,0-0.7-0.2-0.7-0.6c0-0.3,0.1-0.6,0.2-0.7c0.1-0.2,0.2-0.3,0.5-0.4
			C45,72.2,46.9,71.8,48,71.6z M43.1,63.3h6c0-0.9,0-1.8,0-2.6c0-0.4,0.2-0.6,0.6-0.6c0.4,0,0.6,0.2,0.6,0.6c0,0.9-0.1,1.8-0.1,2.6
			h4.5c0.2,0,0.4,0.1,0.4,0.3c0,0.3-0.1,0.6-0.3,0.8c-0.2,0.2-0.5,0.3-0.8,0.3c-0.3,0-1-0.1-2.1-0.2c-0.5,0-1.1,0-1.7,0
			c0,1.1,0.2,2.3,0.4,3.4c0.2,1.2,0.5,2.2,0.9,3.1c0.6-1,1.1-2.1,1.5-3.5c0-0.2,0.2-0.3,0.5-0.3c0.4,0,0.7,0.2,0.7,0.6
			c0,0-0.1,0.1-0.1,0.3c-0.4,1.2-1,2.5-1.8,4.1c0,0,0,0,0,0c0.1,0.2,0.2,0.4,0.3,0.5c0.8,1.2,1.8,1.9,3,2.3c0.2,0.1,0.4,0.3,0.4,0.5
			c0,0.2-0.2,0.5-0.6,0.8c-0.4,0.3-0.7,0.4-1,0.4c-0.3,0-0.6-0.1-1-0.4c-0.8-0.6-1.5-1.5-2.1-2.8c-0.6,0.7-1.2,1.3-1.9,1.8
			c-0.7,0.5-1.2,0.8-1.7,0.8c-0.3,0-0.5-0.1-0.8-0.3c-0.4-0.3-0.6-0.7-0.6-1c0-0.2,0.3-0.4,0.8-0.5c1.2-0.2,2.4-0.9,3.5-2
			c-0.1-0.2-0.1-0.3-0.2-0.5c-0.7-1.9-1-4-1.2-6.2c0-0.4,0-0.8,0-1.2c-0.3,0-0.6,0-0.9,0c-2.1,0-3.6,0.1-4.5,0.2
			c-0.5,0.1-0.9,0.2-1,0.2c-0.5,0-0.7-0.2-0.7-0.6c0-0.2,0.1-0.4,0.4-0.6C42.5,63.4,42.8,63.3,43.1,63.3z M43.1,66.4
			c0.2,0,0.4,0,0.6,0c0.2,0,0.5,0,0.9,0h1c0.2,0,0.5,0,0.8,0.1c0.2,0,0.5,0,0.7-0.1c0.4,0,0.7,0.2,0.7,0.6c0,0,0,0,0,0.1
			c-0.1,0.1-0.1,0.3-0.2,0.6c0,0.4-0.1,0.8-0.1,1.3c0,0.2,0,0.5,0.1,1c0,0.4-0.2,0.6-0.6,0.6c-0.8-0.1-1.4-0.2-2-0.2
			c-0.8,0-1.2,0-1.4,0.1c-0.2,0-0.4,0.1-0.6,0.2c-0.4,0-0.6-0.2-0.6-0.6c0.1-0.7,0.2-1.2,0.2-1.7c0-0.4-0.1-0.9-0.2-1.5
			C42.5,66.6,42.7,66.4,43.1,66.4z M45.1,69.7c0.3,0,0.6,0,1,0.1c0.2,0,0.4-0.1,0.4-0.4v-1.6c0-0.1-0.1-0.2-0.2-0.2
			c-0.4-0.1-1.1-0.1-2-0.1c-0.2,0-0.4,0.1-0.4,0.4c0,0.5-0.1,1-0.2,1.4c0,0.3,0.2,0.5,0.5,0.5C44.5,69.7,44.8,69.7,45.1,69.7z
			 M53.6,60.4c0.4,0,0.6,0.2,0.6,0.6c0,0.3,0,0.5-0.1,0.6c-1,0.7-1.6,1.1-1.7,1.1c-0.2,0-0.4-0.1-0.4-0.3c0-0.1,0.3-0.6,0.8-1.6
			C53.1,60.5,53.4,60.4,53.6,60.4z"/>
		<path class="st0" d="M64.8,67.4c0.2,0,0.4,0.1,0.4,0.3c0,0.3-0.1,0.5-0.3,0.6l-4.3,1.6c-0.6,0-0.8-0.2-0.8-0.7c0-0.6,0.2-1,0.6-1
			L64.8,67.4z M62.2,60.4c0.1,0,0.3,0.1,0.6,0.2c0.8,0.6,1.7,1.3,2.7,2c0.1,0.1,0.2,0.2,0.2,0.3c0,0.3-0.2,0.4-0.5,0.4
			c-0.1,0-0.2,0-0.5-0.1c-1.5-0.6-2.4-0.9-2.8-1.1c-0.4-0.3-0.7-0.6-0.7-1C61.3,60.6,61.6,60.4,62.2,60.4z M65.2,72.9
			c0.3,0,0.4,0.1,0.4,0.4c0,0.2-0.1,0.4-0.2,0.6c-1.6,1.8-2.5,2.6-2.7,2.6c-0.7,0-1-0.2-1-0.6c0-0.5,0.1-0.9,0.4-1
			C62.1,74.8,63.1,74.1,65.2,72.9z M77.5,60.6c0.3,0,0.5,0.1,0.5,0.4c0,0.3-0.1,0.5-0.4,0.6c-1.4,0.4-2.6,0.8-3.8,1.1l0,3.4
			c0.7,0,1.6,0,2.5,0.1c1,0,1.8,0.1,2.5,0.1c0.5,0,1-0.1,1.7-0.2c0.1,0,0.2,0.2,0.2,0.5c0,0.5-0.2,1-0.6,1.6
			c-0.3,0.4-0.5,0.6-0.7,0.6c-0.3,0-0.7-0.1-1.2-0.4c-0.7-0.4-1.5-0.6-2.4-0.8c-0.7-0.1-1.4-0.2-2.1-0.2l0,3.5h0
			c0.7,0,1.5,0,2.4,0.1c0.2,0,0.5-0.1,0.9-0.2c0.4,0,0.6,0.2,0.6,0.7c0,0,0,0.1,0,0.2c-0.1,0.2-0.1,0.5-0.2,0.9
			c0,0.6-0.1,1.2-0.1,1.8c0,0.4,0,0.9,0.1,1.6c0,0.5-0.2,0.8-0.6,0.8c-1.5-0.1-2.8-0.2-3.9-0.2c-1.4,0-2.2,0-2.6,0
			c-0.3,0-0.7,0.1-1.2,0.1c-0.4,0-0.6-0.2-0.6-0.7c0.1-0.9,0.2-1.7,0.2-2.4c0-0.6-0.1-1.4-0.2-2.4c0-0.4,0.2-0.6,0.6-0.6
			c0.2,0,0.5,0,0.7,0.1c0.2,0.1,0.6,0.1,1,0.1h1.6l0-3.5c-0.9,0-1.8,0.1-2.6,0.2c-0.6,0.1-1.5,0.4-2.7,1c-0.6,0-0.8-0.2-0.8-0.6
			c0-0.3,0.1-0.5,0.4-0.7c0.3-0.3,0.7-0.5,1.2-0.5c1.9-0.3,3.5-0.4,4.6-0.5l0-3c-0.4,0.1-0.8,0.2-1.2,0.2c-1.1,0.2-1.9,0.3-2.2,0.3
			c-0.4,0-0.8-0.2-1.2-0.5c-0.2-0.2-0.4-0.5-0.4-0.8c0-0.2,0.1-0.3,0.4-0.3c2.2,0,4.1-0.2,5.5-0.5c1.5-0.2,2.7-0.5,3.7-0.8
			C77.2,60.6,77.4,60.6,77.5,60.6z M72.9,75.2c0.9,0,1.8,0,2.9,0.1c0.2,0,0.4-0.1,0.4-0.3v-3c0-0.2-0.1-0.3-0.2-0.3
			c-1.2,0-3.1-0.1-5.4-0.1c-0.3,0-0.5,0.2-0.5,0.5c0,1-0.1,1.9-0.2,2.8c0,0.3,0.2,0.4,0.6,0.4C71.2,75.2,72,75.2,72.9,75.2z"/>
		<path class="st0" d="M86.2,62.8c0.4,0,0.6,0.3,0.6,0.8c-0.1,0.7-0.1,1.3-0.1,1.8v3c0,0.9-0.2,1.4-0.7,1.4c-0.4,0-0.6-0.5-0.6-1.4
			c0.1-1.3,0.2-2.3,0.2-3c0-0.5,0-1.1-0.1-1.8C85.5,63.1,85.7,62.8,86.2,62.8z M89,60c0.5,0,0.7,0.3,0.7,0.9
			c-0.1,1.7-0.1,3.3-0.1,4.7l0.1,10c0,1-0.3,1.5-0.8,1.5c-0.4,0-0.6-0.5-0.6-1.5c0.1-4.3,0.1-7.6,0.1-10c0-1.4,0-2.9-0.1-4.7
			C88.3,60.3,88.6,60,89,60z M92,61.1c0.5,0,0.7,0.2,0.7,0.6l-1.4,3c-0.1,0.3-0.3,0.4-0.6,0.4c-0.2,0-0.4-0.2-0.4-0.5l0.9-3
			C91.5,61.3,91.7,61.1,92,61.1z M95.5,62.2c0.4,0,0.6,0.2,0.6,0.5c0,0.2-0.1,0.5-0.2,0.7c-0.2,0.5-0.4,1-0.7,1.5c0,0,0,0,0,0h3.1
			l0-3.6c0-0.6,0.2-0.8,0.7-0.8c0.6,0,0.9,0.3,0.9,0.8l0,3.6h4.5c0.2,0,0.4,0.1,0.4,0.3c0,0.3-0.1,0.6-0.3,0.8
			c-0.2,0.2-0.5,0.3-0.8,0.3c-0.2,0-0.8-0.1-1.6-0.2c-0.7,0-1.4-0.1-2.1-0.1l0,3.3h3.8c0.2,0,0.3,0.1,0.4,0.3c0,0.3-0.1,0.6-0.3,0.8
			c-0.2,0.2-0.5,0.3-0.9,0.3c-0.2,0-0.7-0.1-1.4-0.2c-0.5,0-1-0.1-1.6-0.1l0,3.6c0.8,0,1.6,0.1,2.5,0.2c1,0.1,1.9,0.1,2.8,0.1
			c0.4,0,0.8,0,1.1-0.1c0.1,0,0.1,0.1,0.1,0.3c0,0.4-0.1,0.9-0.4,1.3c-0.3,0.5-0.5,0.7-0.8,0.7s-0.5-0.1-0.8-0.3c-1.1-0.5-2-0.8-3-1
			c-0.7-0.1-1.6-0.2-2.6-0.2c-1.2,0-2.2,0.1-3.1,0.3c-0.9,0.2-1.8,0.6-2.7,1c-0.3,0.1-0.5,0.2-0.6,0.2c-0.4,0-0.6-0.3-0.6-0.7
			c0-0.3,0.1-0.5,0.3-0.7c0.2-0.2,0.5-0.3,0.8-0.4c2.5-0.4,4.4-0.7,5.6-0.7l-0.1-3.6c-1.3,0-2.2,0.1-2.8,0.2
			c-0.4,0.1-0.6,0.2-0.8,0.2c-0.4,0-0.7-0.2-0.7-0.6c0-0.2,0.1-0.4,0.4-0.6c0.2-0.1,0.5-0.2,0.8-0.2h3.1l0-3.3
			c-1.2,0-2.2,0.1-2.8,0.2c-0.4,0.1-0.7,0.2-0.8,0.2c-0.2,0-0.3,0-0.4-0.1c-0.2,0.3-0.4,0.6-0.6,0.8c-0.3,0.4-0.6,0.6-0.8,0.6
			c-0.3,0-0.7-0.1-1.1-0.4c-0.4-0.3-0.5-0.6-0.5-0.9c0-0.2,0.2-0.4,0.5-0.4c0.6-0.3,1.2-0.7,1.7-1.2c0.5-0.6,1-1.4,1.5-2.4
			C95.3,62.2,95.4,62.2,95.5,62.2z"/>
		<path class="st0" d="M117.6,60.3c0.4,0,0.6,0.2,0.6,0.5c0,0.2-0.1,0.4-0.2,0.7c-0.7,0.9-1.5,1.7-2.3,2.4c0.1,0.2,0.1,0.4,0.1,0.6
			c-0.1,1.3-0.1,2.5-0.1,3.6l0,7.4c0,1-0.3,1.5-0.9,1.5c-0.4,0-0.6-0.5-0.6-1.5c0.1-3.2,0.2-5.6,0.2-7.4c0-0.9,0-2,0-3.1
			c-0.3,0.2-0.5,0.4-0.8,0.6c-0.7,0.5-1.2,0.7-1.7,0.7c-0.3,0-0.7-0.2-1.1-0.5c-0.4-0.3-0.5-0.6-0.5-0.9c0-0.2,0.2-0.4,0.5-0.4
			c1.2-0.3,2.4-0.8,3.4-1.4c1.1-0.7,2.2-1.6,3.1-2.8C117.4,60.4,117.5,60.3,117.6,60.3z M127.3,64.7c0.6,0,0.9,0.3,0.9,0.9
			c0,0.3-0.2,0.5-0.6,0.7c-0.9,0.3-2.1,0.7-3.7,1.1c-1.1,0.3-1.8,0.5-2,0.5c0,0-0.1,0-0.1,0c0,1.6-0.1,3.4-0.1,5.3
			c0,0.4,0.2,0.6,0.5,0.6c0.6,0.1,2.2,0.1,4.7,0.1c1.6,0,3-0.2,4.3-0.6c0.2,0,0.3,0.2,0.3,0.5c0,0.4-0.2,0.9-0.5,1.5
			c-0.4,0.6-0.7,0.9-1,0.9c-0.4,0-3.2-0.3-8.5-0.9c-0.8-0.1-1.2-0.5-1.2-1.1c0.1-2.7,0.2-4.8,0.2-6.2c0-1.6,0-3.3-0.1-5.3
			c0-0.4,0.2-0.6,0.6-0.6c0.6,0,0.9,0.2,0.9,0.7c0,1.2,0,2.5,0,3.9c2.1-0.7,3.8-1.4,5-2C127.1,64.7,127.2,64.7,127.3,64.7z"/>
		<path class="st0" d="M139.3,59.9c0.4,0,0.6,0.2,0.6,0.5c0,0.2-0.1,0.4-0.2,0.6c-0.1,0.2-0.2,0.3-0.3,0.5h4.9
			c0.2,0,0.3,0.1,0.3,0.2c0,0.3-0.1,0.5-0.3,0.7c-0.2,0.2-0.4,0.3-0.8,0.3c-0.1,0-0.4,0-0.8-0.1c-0.3,0-0.7,0-1,0
			c0,0.2,0.1,0.5,0.1,1c0,0.4-0.1,0.6-0.4,0.6c-0.3,0-0.4-0.1-0.5-0.3c-0.3-0.7-0.5-1-0.5-1.2c0,0,0,0,0-0.1c-0.5,0-0.9,0.1-1.2,0.1
			c-0.3,0.1-0.4,0.1-0.5,0.1c-0.1,0-0.2,0-0.2,0c-0.4,0.6-0.8,1.1-1.3,1.6c-0.4,0.4-0.7,0.6-0.9,0.6c-0.3,0-0.7-0.2-1.1-0.5
			c-0.4-0.3-0.5-0.6-0.5-0.9c0-0.2,0.2-0.3,0.5-0.4c0.7-0.2,1.4-0.6,2-1.1c0.7-0.5,1.3-1.2,1.8-2.2C139.1,60,139.2,59.9,139.3,59.9z
			 M140.5,65.3h3.9l0-0.3c0-0.5,0.3-0.7,0.8-0.7c0.6,0,0.8,0.2,0.8,0.7l0,0.3h4.6c0.2,0,0.4,0.1,0.4,0.3c0,0.3-0.1,0.6-0.3,0.8
			c-0.2,0.2-0.5,0.3-0.8,0.3c-0.2,0-0.8-0.1-1.8-0.2c-0.7,0-1.4-0.1-2.1-0.1l-0.1,1.5c1.3,0,2.6,0.1,4.1,0.3c1.4,0.1,2.7,0.2,4,0.2
			c0.4,0,0.7,0,1.1-0.1c0.1,0,0.1,0.1,0.1,0.3c0,0.4-0.1,0.9-0.4,1.3c-0.3,0.5-0.5,0.7-0.8,0.7c-0.4,0-0.8-0.1-1.2-0.3
			c-1.5-0.6-2.9-0.9-4.2-1.1c-1-0.1-2.3-0.2-3.7-0.2c-1.7,0-3.1,0.1-4.3,0.3c-1.3,0.3-2.6,0.6-3.8,1c-0.4,0.1-0.7,0.2-0.9,0.2
			c-0.4,0-0.6-0.3-0.7-0.7c0-0.3,0.1-0.5,0.4-0.7c0.2-0.2,0.5-0.4,0.8-0.4c3.7-0.5,6.5-0.8,8.2-0.8l-0.1-1.5c-1.6,0-2.8,0.1-3.5,0.2
			c-0.5,0.1-0.8,0.2-0.9,0.2c-0.5,0-0.7-0.2-0.8-0.6c0-0.2,0.2-0.4,0.4-0.6C139.8,65.3,140.1,65.3,140.5,65.3z M139.6,71.1h7.7
			c0-0.2,0-0.3,0-0.4c0-0.7,0.3-1,0.8-1c0.6,0,0.8,0.3,0.8,0.8c0,0.1,0,0.3-0.1,0.6h2.7c0.2,0,0.4,0.1,0.4,0.3
			c0,0.3-0.1,0.6-0.3,0.8c-0.2,0.2-0.5,0.3-0.8,0.3c-0.3,0-1-0.1-2.1-0.2c0,0.1,0,0.1,0,0.2c0.1,1.1,0.1,2,0.1,2.5
			c0,0.9-0.4,1.5-1.2,1.7c-0.5,0.1-1,0.2-1.5,0.2c-0.4,0-0.6-0.1-0.9-0.3c-0.3-0.3-0.4-0.6-0.4-0.9c0-0.2,0.1-0.3,0.4-0.4
			c0.8,0,1.4-0.1,1.7-0.2c0.3-0.1,0.5-0.2,0.6-0.3c0.1-0.2,0.1-0.5,0.1-0.9c0-0.6,0-1.2-0.1-1.8c-0.8,0-1.6,0-2.5,0
			c-2.1,0-3.7,0.1-4.6,0.2c-0.6,0.1-0.9,0.2-1.1,0.2c-0.4,0-0.7-0.3-0.7-0.7c0-0.2,0.1-0.4,0.4-0.6C139,71.1,139.3,71.1,139.6,71.1z
			 M143.6,73.4c0.2,0,0.3,0.1,0.3,0.4c0,0.1-0.1,0.3-0.2,0.5c-1.6,1.4-2.5,2.2-2.7,2.2c-0.6,0-0.8-0.2-0.8-0.5
			c0-0.5,0.1-0.8,0.4-0.9C140.5,74.9,141.5,74.4,143.6,73.4z M147.9,60c0.4,0,0.6,0.2,0.6,0.5c0,0.2-0.1,0.4-0.2,0.6
			c-0.1,0.2-0.1,0.3-0.2,0.5h4.4c0.8,0,1.6-0.2,2.6-0.5c0.2,0,0.3,0.1,0.3,0.4c0,0.4-0.1,0.7-0.3,1.1c-0.2,0.4-0.6,0.5-1,0.5
			c-1.5-0.2-2.7-0.4-3.5-0.4c0,0.3,0.1,0.6,0.1,1c0,0.4-0.1,0.6-0.4,0.6c-0.3,0-0.4-0.1-0.5-0.3c-0.3-0.7-0.5-1.1-0.5-1.2
			c-0.5,0-1,0.1-1.6,0.2c-0.1,0-0.2,0-0.3,0c-0.2,0.3-0.4,0.6-0.6,0.8c-0.2,0.3-0.4,0.4-0.6,0.4c-0.3,0-0.6-0.1-1-0.4
			s-0.5-0.5-0.5-0.8c0-0.2,0.2-0.2,0.5-0.3c0.5-0.2,0.9-0.4,1.2-0.8c0.4-0.4,0.8-0.9,1.1-1.5C147.7,60.1,147.8,60,147.9,60z"/>
		<path class="st0" d="M165.7,71.4c-0.2,0.8-0.5,1.6-0.9,2.5c-0.6,1.3-1.1,1.9-1.5,1.9c-0.5,0-0.9-0.6-1.3-1.9
			c-0.3-1.1-0.5-2.7-0.5-4.8c0-0.8,0.1-2,0.4-3.6c0.3-1.7,0.6-2.8,0.9-3.4c0.2-0.4,0.5-0.6,0.9-0.6c0.5,0,0.8,0.2,0.8,0.7
			c0,0.1-0.1,0.5-0.4,1c-0.4,0.8-0.6,1.7-0.9,2.8c-0.3,1.1-0.4,2.1-0.4,2.8c0,3.1,0.2,4.7,0.7,4.7c0.2,0,0.7-0.8,1.5-2.3
			c0.1-0.2,0.2-0.3,0.3-0.3C165.6,71.1,165.7,71.2,165.7,71.4z M177.7,72.2c0,0.1-0.2,0.5-0.5,1.2c-0.3,0.6-0.6,0.9-1,1.1
			c-0.5,0.2-1.6,0.3-3.4,0.3c-1.4,0-2.6-0.2-3.6-0.6c-1.4-0.6-2.1-1.5-2.1-2.7c0-1.3,0.3-2,0.9-2c0.1,0,0.2,0.1,0.2,0.3
			c-0.2,0.6-0.2,1-0.2,1.2c0,1.4,1.1,2.1,3.3,2.1c0.9,0,2-0.1,3.2-0.3c0.7-0.1,1.3-0.3,1.9-0.5c0.5-0.2,0.8-0.3,1-0.3
			C177.6,71.9,177.7,72,177.7,72.2z M175.7,63.5c0,0.2-0.6,0.8-1.8,1.6c-1.2,0.8-1.9,1.2-2.1,1.2c-0.3,0-0.4-0.1-0.4-0.3
			c0-0.1,0.3-0.5,0.8-1c0.5-0.4,0.8-0.8,1.1-0.9c-0.1,0-0.2,0-0.3,0c-1,0-2.1,0.1-3.3,0.3c-1.3,0.2-1.9,0.4-1.8,0.4
			c-0.3,0-0.4-0.2-0.4-0.5c0-0.5,0.2-0.8,0.6-1c0.2,0,0.6-0.1,1.3-0.2c1.6-0.2,3.5-0.2,5.6-0.2C175.4,62.9,175.7,63.1,175.7,63.5z"
			/>
		<path class="st0" d="M186,60.5l4.7,0.1c0.5-0.1,0.8-0.1,0.9-0.1c0.6,0,0.9,0.2,0.9,0.6c-0.2,0.7-0.3,1.4-0.4,2.2
			c0,0.4,0,1.3,0,2.5c0,0.4-0.2,0.7-0.6,0.7c-0.1,0-0.3,0-0.4-0.1c0,0-0.1,0-0.1,0c-2.1,0-3.7,0.1-4.9,0.2c0,0,0,0,0,0v2.5
			c0,1.5-0.1,2.7-0.2,3.8c-0.2,1-0.4,1.9-0.8,2.7c-0.4,0.7-0.6,1-0.9,1c-0.3,0-0.7-0.2-1.1-0.5c-0.4-0.4-0.7-0.6-0.7-0.8
			c0-0.2,0.1-0.3,0.4-0.4c0.6-0.4,1.1-1.2,1.4-2.2c0.4-1.1,0.5-3.3,0.5-6.6c0-1.6-0.1-3.3-0.3-5.1c0-0.4,0.2-0.6,0.7-0.6
			c0.3,0,0.5,0,0.6,0.1C185.9,60.5,186,60.5,186,60.5z M186.1,61.5c0,0.1,0,0.2,0,0.3V63c0,0,0.1,0,0.1,0h4.7h0c0-0.5,0-1,0.1-1.3
			c0-0.2-0.1-0.3-0.3-0.3C189.4,61.4,187.9,61.4,186.1,61.5z M186.1,65.5c0,0,0.1,0,0.1,0h4.7c0,0,0-0.1,0-0.1c0-0.5,0-1,0-1.5
			c-2,0-3.6,0.1-4.8,0.2c0,0,0,0,0,0V65.5z M191.9,67.5c0.3,0,0.5,0.2,0.6,0.5c0.1,0.6,0.1,0.9,0.1,1c0,0,0,0.1,0,0.1
			c0.9,0,1.7,0,2.4,0c0-0.2,0.1-0.6,0.2-1.2c0.1-0.2,0.3-0.4,0.6-0.4c0.4,0,0.7,0.2,0.7,0.6c0,0.1,0,0.2-0.1,0.3
			c-0.2,0.3-0.4,0.5-0.5,0.7c0.8,0,1.4,0,1.8-0.1c0.2,0,0.3,0.1,0.3,0.4c0,0.2-0.1,0.3-0.2,0.5c-0.2,0.2-0.4,0.3-0.7,0.3
			c-0.7-0.1-1.6-0.1-2.9-0.2c0,0.1,0,0.2,0,0.3c-0.1,0.4-0.1,0.8-0.2,1.3c0.8,0,1.8,0.1,3.1,0.1c0.3,0,0.5,0,0.7,0
			c0.2,0,0.5,0,0.9-0.1c0.4-0.1,0.6-0.1,0.7-0.1c0.1,0,0.2,0.1,0.2,0.2c0,0.4-0.2,0.7-0.5,1.2c-0.3,0.4-0.6,0.6-0.9,0.6
			c-0.2,0-0.5-0.1-1-0.3c-0.9-0.3-2-0.5-3.4-0.5c-0.1,0.5-0.2,0.9-0.4,1.3c-0.4,0.8-0.9,1.4-1.5,1.8c-0.8,0.6-1.4,0.9-2.1,0.9
			c-0.3,0-0.5-0.1-0.7-0.3c-0.3-0.3-0.5-0.7-0.5-1c0-0.1,0.1-0.2,0.4-0.2c0.7-0.1,1.3-0.2,1.7-0.4c0.7-0.2,1.3-0.8,1.8-1.6
			c0.1-0.2,0.2-0.4,0.3-0.6c-1.6,0-2.8,0.1-3.5,0.4c-0.4,0.1-0.7,0.2-0.9,0.2c-0.3,0-0.5-0.2-0.5-0.6c0-0.2,0.1-0.4,0.3-0.6
			c0.2-0.2,0.3-0.3,0.5-0.3c0.2,0,0.3,0,0.5,0.1c1.4-0.2,2.7-0.2,3.8-0.3c0-0.2,0-0.3,0-0.5c-0.1-0.4-0.1-0.7-0.1-1c0,0,0-0.1,0-0.1
			c-0.2,0-0.4,0-0.6,0c-0.6,0-1.3,0.1-2.4,0.3c-0.4,0-0.6-0.2-0.6-0.5c0-0.2,0.1-0.4,0.3-0.6c0.2-0.2,0.4-0.3,0.6-0.3l0.8,0.1
			c0.3,0,0.6,0,0.9,0c-0.2-0.3-0.3-0.5-0.5-0.7c-0.1-0.1-0.1-0.3-0.1-0.4C191.3,67.7,191.5,67.5,191.9,67.5z M195.2,74.2
			c0,0,0.1,0,0.1,0c0.7,0.4,1.2,0.7,1.7,0.8c0.3,0.1,0.7,0.2,1.1,0.2c0.1,0,0.2,0.1,0.2,0.3c0,0.2-0.1,0.5-0.4,0.7
			c-0.5,0.4-1,0.5-1.2,0.5c-0.1,0-0.2-0.1-0.3-0.2c-0.2-0.2-0.6-0.8-1.3-1.9c0-0.1-0.1-0.2-0.1-0.2C194.9,74.3,195,74.2,195.2,74.2z
			 M195.6,60.4c0.2,0,0.4,0,0.6,0.1l4.8,0.1c0.2,0,0.6-0.1,1.1-0.2c0.6,0,0.9,0.2,0.9,0.6c-0.3,1.9-0.5,4.2-0.5,6.9
			c0,1.9,0.1,4.7,0.3,8.2c0,0.6-0.3,0.9-0.8,0.9c-0.2,0-0.4-0.1-0.5-0.4c-0.1-0.3-0.1-0.7-0.1-1.2c0-3.5,0-6.5,0.1-9.1
			c-0.1,0-0.1,0-0.2,0c-0.9-0.1-1.6-0.1-2.2-0.1c-0.7,0-1.4,0-2.2,0.1c-0.4,0-0.7,0.1-1,0.2c-0.1,0-0.2,0.1-0.3,0.1
			c-0.4,0-0.6-0.1-0.6-0.4c0-0.2,0-0.6,0.1-1c0-0.6,0.1-1.1,0.1-1.7c0-0.3,0-0.8-0.1-1.4c-0.1-0.6-0.1-1-0.1-1.2
			C195,60.5,195.2,60.4,195.6,60.4z M201.4,65.3c0-0.5,0-1,0-1.4c-2,0-3.6,0.1-4.8,0.2c-0.1,0-0.2,0-0.2,0c0,0.3,0,0.7-0.1,1
			c0,0.2,0.1,0.3,0.3,0.3c0.6-0.1,1.4-0.1,2.3-0.1H201.4z M196.5,62.9c0.1,0,0.2,0,0.2,0h4.7c0,0,0,0,0,0c0-0.4,0-0.8,0-1.2
			c0-0.2-0.2-0.3-0.7-0.3c-1.6,0-3,0-4.3,0C196.5,61.9,196.5,62.4,196.5,62.9z"/>
		<path class="st0" d="M227,64.1c-0.1,0.3-0.3,0.8-0.7,1.2c-0.4,0.5-0.8,0.8-1.1,0.8c-0.3-0.1-0.8-0.3-1.4-0.6
			c-1.3-0.5-2.8-0.8-4.4-0.9c0,0.9,0,2.2-0.1,4c0.4,1.1,0.6,1.9,0.6,2.4c0,1-0.3,1.9-1,2.8c-0.6,0.8-1.4,1.5-2.3,1.9
			c-1.1,0.6-2,0.8-2.7,0.8c-0.4,0-0.8-0.2-1.2-0.6c-0.4-0.4-0.6-0.8-0.6-1.2c0-0.1,0.2-0.2,0.7-0.3c1.4-0.1,2.4-0.2,3-0.4
			c1.1-0.3,1.9-0.9,2.4-1.8c0.3-0.6,0.5-1.1,0.5-1.5c0,0,0-0.1,0-0.1c0-0.1,0-0.2,0-0.2c-0.3,0.5-0.7,0.9-1.3,1.2
			c-0.6,0.3-1.2,0.5-1.7,0.5c-0.8,0-1.5-0.3-2.2-0.8c-0.6-0.5-1-1.2-1-1.9c0-0.9,0.4-1.5,1.1-2c0.6-0.4,1.4-0.6,2.3-0.6
			c0.7,0,1.3,0.2,2.1,0.6c0-0.4,0-1.3,0-2.8c-2.4,0-4.5,0.3-6.5,0.9c-1.1,0.4-1.7,0.6-1.8,0.6c-0.5,0-0.8-0.3-0.8-0.9
			c0-0.5,0.6-0.9,1.9-1.2c0.8-0.1,1.6-0.2,2.4-0.3c1.4-0.2,3-0.3,4.8-0.3c-0.1-1.5-0.1-2.3-0.1-2.4c0-0.7,0.2-1,0.7-1
			c0.6,0,0.8,0.4,0.8,1.3c0,0.2,0,0.6,0,1.1c0,0.4,0,0.8,0,1c2.7,0.2,5.1,0.3,7.1,0.3C226.7,63.9,226.9,64,227,64.1z M218,68.9
			c-0.5-0.7-1.2-1-2-1c-0.5,0-1,0.1-1.5,0.4c-0.5,0.3-0.7,0.7-0.7,1.2c0,0.5,0.2,0.9,0.5,1.2c0.4,0.3,0.8,0.4,1.3,0.4
			C217.1,71,217.9,70.3,218,68.9z"/>
		<path class="st0" d="M246.6,71.3c0,1.7-0.8,3-2.4,3.9c-1.3,0.7-2.8,1.1-4.7,1.1c-0.9,0-1.7-0.2-2.5-0.6c-0.9-0.5-1.4-1.1-1.4-1.9
			c0-1.2,0.7-1.8,2.2-1.8c1.8,0,3.2,0.9,4.3,2.6c0.8-0.3,1.4-0.6,1.9-1.2c0.5-0.6,0.8-1.3,0.8-2.1c0-0.9-0.4-1.6-1.1-2.1
			c-0.6-0.4-1.4-0.6-2.4-0.6c-1.2,0-2.5,0.2-3.8,0.6c-1.4,0.5-2.5,1.1-3.4,1.9c-0.4,0.4-0.7,0.6-0.9,0.6c-0.5,0-0.8-0.3-0.8-0.8
			c0-0.3,0.3-0.7,0.8-1.2l7.8-6.7c0.1-0.1,0.2-0.2,0.3-0.3c-0.1-0.1-0.3-0.1-0.5-0.1c-0.7,0-1.7,0-2.8,0.1c-1.5,0.1-2.3,0.2-2.6,0.3
			c-0.5,0-0.7-0.2-0.7-0.7c0-0.5,0.5-0.7,1.4-0.7c1.7,0,4.1-0.1,7-0.1c0.7,0,1,0.2,1,0.5c0,0.2-0.2,0.5-0.7,0.8
			c-2.6,2-4.9,3.9-6.9,5.6c1.6-0.7,3.3-1,5-1c1.2,0,2.3,0.3,3.2,0.9C246,69.1,246.6,70.1,246.6,71.3z M240.7,74.9
			c-0.9-1.4-1.9-2.1-2.9-2.1c-0.8,0-1.2,0.3-1.2,0.9c0,0.8,1,1.3,2.9,1.3C239.7,75,240.1,75,240.7,74.9z"/>
		<path class="st0" d="M11.2,96.7c0,0.9-0.4,2.2-1.1,3.7c-0.7,1.4-1.7,2.7-3.2,3.8c-1.5,1.2-2.6,1.8-3.4,1.8c-0.3,0-0.7-0.2-1.2-0.7
			c-0.5-0.4-0.8-0.8-0.8-1.1c0-0.1,0.3-0.2,0.8-0.3c0.8-0.1,1.7-0.5,2.8-1c1.2-0.6,2.3-1.4,3.1-2.5c1-1.2,1.5-2.4,1.6-3.7
			c0-0.8,0.2-1.2,0.6-1.2C11,95.7,11.2,96,11.2,96.7z M18.5,93.2c0,0.6-0.6,1.5-1.9,2.7c-1.3,1.3-2.3,2-2.9,2.2
			c-0.3,0-0.4-0.1-0.4-0.4l1.4-1.6c0.9-1.1,1.3-1.8,1.3-2.2c-0.3-0.1-1.4-0.2-3.3-0.2c-2.2,0-4.3,0.2-6.3,0.6
			c-1.4,0.2-2.1,0.4-2.1,0.4c-0.4,0-0.7-0.3-0.7-0.8c0-0.4,0.1-0.7,0.4-1c0.3-0.3,2-0.4,5.2-0.4h2.6c1.7,0,3.3,0.1,4.8,0.2
			c0.1-0.1,0.4-0.1,0.9-0.1c0.2,0,0.4,0.1,0.6,0.2C18.4,92.8,18.5,93,18.5,93.2z"/>
		<path class="st0" d="M38.2,99.9c0,0.3-0.4,0.7-1.1,1.2c-0.8,0.5-1.3,0.8-1.6,0.8c-0.3,0-0.7-0.3-1.2-1c-1.4-1.7-3.1-3-5.1-3.9
			c0,0.9,0,2.3,0,4.2c0,1.8,0.1,3.2,0.1,4.2c0,0.7-0.3,1-0.9,1c-0.5,0-0.7-0.4-0.7-1.2c0-0.7,0-1.8,0-3.2c0-1.4,0.1-2.5,0.1-3.2
			v-4.4c0-0.3,0-0.8-0.1-1.4c0-0.7,0-1.1,0-1.5c0-0.6,0.3-0.9,0.9-0.9c0.5,0,0.8,0.3,0.8,0.9c0,0.5,0,1.2-0.1,2.1
			c0,0.9-0.1,1.7-0.1,2.1c1.6,0.7,3.2,1.5,5,2.5c1.5,0.8,2.6,1.2,3.5,1.3C38,99.7,38.2,99.8,38.2,99.9z M36.6,91.7
			c0,0.2-0.2,0.4-0.5,0.6c-0.3,0.2-0.6,0.3-0.7,0.3c-0.2,0-0.6-0.4-1.1-1.2c-0.5-0.8-0.7-1.4-0.7-1.7c0-0.2,0.1-0.3,0.2-0.3
			s0.3,0.1,0.4,0.3c0.4,0.4,0.7,0.8,1,1C35.6,91,36.1,91.3,36.6,91.7z M39.6,90.6c0,0.1-0.2,0.4-0.5,0.6c-0.3,0.3-0.5,0.4-0.7,0.4
			c-0.3-0.1-0.8-0.5-1.3-1.1c-0.5-0.7-0.8-1.2-0.8-1.5c0-0.1,0-0.2,0.1-0.2c0,0,0.3,0.2,0.8,0.5c0.5,0.3,0.8,0.5,0.9,0.6
			C38.7,90.2,39.2,90.4,39.6,90.6z"/>
		<path class="st0" d="M51.2,95c0,0.4-0.2,1.3-0.5,2.6c-0.3,1.3-0.8,2.5-1.5,3.6c-1,1.6-1.8,2.4-2.4,2.4c-0.4,0-0.8-0.2-1.3-0.6
			c-0.5-0.4-0.7-0.8-0.7-1.1c0-0.1,0.4-0.3,1.2-0.6c1.2-0.5,2.1-1.3,2.9-2.4c0.7-1,1.2-2.3,1.5-4.1c0-0.4,0.2-0.6,0.5-0.6
			C51,94.4,51.2,94.6,51.2,95z M64.1,101.8c0,0.3-0.3,0.7-0.9,1.2c-0.6,0.5-1,0.8-1.3,0.8c-0.9,0-2-1.3-3.3-4
			c-1.2-2.5-1.9-4.2-1.9-5.3c0-0.3,0.2-0.4,0.5-0.4c0.2,0,0.4,0.2,0.5,0.5c0.1,0.2,0.2,0.6,0.4,1.1c0.6,1.3,1.2,2.4,1.8,3.2
			c1,1.2,2,2,3,2.3C63.2,101.3,63.6,101.5,64.1,101.8z M61.7,93.2c0,0.2-0.2,0.4-0.5,0.6c-0.3,0.2-0.5,0.3-0.7,0.3
			c-0.3,0-0.6-0.4-1.1-1.2c-0.5-0.8-0.7-1.3-0.7-1.6c0-0.2,0-0.3,0.1-0.3c0.1,0,0.3,0.1,0.4,0.3c0.7,0.8,1.3,1.4,2,1.6
			C61.5,93,61.7,93.1,61.7,93.2z M64.7,92.1c-0.1,0.2-0.2,0.4-0.5,0.7c-0.3,0.2-0.5,0.4-0.7,0.4c-0.3-0.1-0.8-0.5-1.3-1.2
			c-0.6-0.7-0.9-1.2-0.9-1.5c0-0.1,0.1-0.2,0.2-0.2c0,0,0.3,0.2,0.8,0.5s0.8,0.6,0.9,0.6C63.7,91.7,64.2,91.9,64.7,92.1z"/>
		<path class="st0" d="M83.8,91.7c0,0.5-0.7,1.4-2,2.6c-1.1,1-2,1.7-2.8,2.2c0,1.8,0,3.6,0,5.2c0,0.3,0,0.9,0.1,1.8
			c0.1,0.8,0.1,1.4,0.1,1.8c0,0.8-0.2,1.3-0.6,1.3c-0.7,0-1-0.4-1-1.3c0-3.7,0-6.4,0.1-8c-3,1.5-5.3,2.2-6.9,2.2
			c-0.4,0-0.9-0.2-1.3-0.6c-0.4-0.4-0.6-0.9-0.6-1.3c0-0.2,0.3-0.3,0.8-0.4c0.3,0,0.7,0,1.2,0c2.8-0.2,5.2-0.8,7.2-2
			c1.9-1.1,3.2-2.2,4-3.3c0.4-0.6,0.8-0.9,1.2-0.9C83.6,91,83.8,91.2,83.8,91.7z"/>
		<path class="st0" d="M107.5,103.1c-0.1,0.3-0.4,0.7-1,1.2c-0.6,0.5-1.1,0.7-1.4,0.7c-0.3,0-0.9-0.6-1.8-1.8
			c-0.9-1.2-2.3-2.3-4-3.5c-1.9,1.9-3.6,3.3-5.2,4.1c-1.3,0.7-2.2,1-2.6,1c-0.3,0-0.7-0.2-1.2-0.6c-0.4-0.4-0.6-0.8-0.6-1.1
			c0-0.2,0.2-0.3,0.6-0.4c4.1-0.7,7.5-3,10.4-6.8c0.4-0.5,0.6-0.8,0.8-1.1c0.4-0.6,0.6-1,0.6-1.1c-0.1,0-0.7-0.1-1.8-0.1
			c-2.4,0-4.2,0.1-5.6,0.4c-0.7,0.2-1.2,0.2-1.5,0.2c-0.4,0-0.5-0.2-0.5-0.7c0-0.3,0.2-0.6,0.6-0.8c0.4-0.2,1.7-0.3,4-0.3h3.3
			c0.7,0,1.2,0,1.5,0.1c0.2-0.1,0.5-0.1,0.9-0.1c0.6,0,0.8,0.2,0.8,0.6c0,0.4-0.5,1.4-1.6,2.9c-0.8,1.2-1.6,2.2-2.2,2.9l4,2.5
			c1,0.7,1.8,1,2.4,1.2c0.2,0,0.4,0.1,0.6,0.1C107.3,102.8,107.5,103,107.5,103.1z"/>
		<path class="st0" d="M128.4,96c0,0.3-0.3,0.6-0.9,1c-1.4,0.9-3.4,2-6,3.4c0,0.1,0,0.4,0,0.8c0,0.3,0,0.6,0,0.8
			c0,0.5-0.3,0.7-0.8,0.7c-0.3,0-0.5-0.2-0.6-0.6c0-0.1,0-0.4,0-1c-1,0.5-1.6,0.8-1.9,1.1c-0.8,0.6-1.2,1.1-1.2,1.7
			c0,0.4,0.4,0.6,1.2,0.8c0.6,0.1,1.2,0.2,1.8,0.2c1.7,0,3.3-0.3,4.7-0.8c1.1-0.4,1.6-0.6,1.7-0.6c0.1,0,0.2,0.1,0.2,0.4
			c0,0.5-0.2,1-0.5,1.5c-0.2,0.4-0.9,0.6-1.9,0.8c-0.8,0.1-1.7,0.1-2.7,0.1c-1.3,0-2.4-0.1-3.4-0.4c-1.5-0.4-2.2-1.1-2.2-2
			c0-0.8,0.6-1.6,1.7-2.4c0.2-0.2,1.1-0.7,2.6-1.7c0-0.9-0.1-1.4-0.1-1.6c-0.2-0.6-0.6-0.9-1.2-0.9c-0.9,0-1.6,0.2-2.2,0.5
			c-0.3,0.1-0.9,0.6-1.9,1.4c-0.1,0.1-0.3,0.2-0.5,0.3c-0.4,0-0.7-0.3-0.7-0.9c0-0.4,0.5-0.9,1.4-1.4c1.3-0.8,2.5-1.8,3.5-3.2
			c-0.5,0.1-1.3,0.2-2.3,0.3c0,0-0.3,0.1-0.9,0.2c-0.4,0.1-0.7,0.2-0.9,0.2c-0.4,0-0.6-0.2-0.6-0.7c0-0.6,0.5-0.9,1.4-1
			c0.9,0,2.2-0.1,3.9-0.1c0.2-0.3,0.5-0.9,0.9-1.9c0.2-0.5,0.5-0.7,0.9-0.7c0.5,0,0.8,0.2,0.8,0.7c0,0.2-0.3,0.8-1,1.9
			c0.5,0,1.2,0,2.3,0c1,0,1.8,0,2.3,0c0.1,0,0.3,0,0.6,0c0.2,0,0.4-0.1,0.6-0.1c0.1,0,0.2,0.1,0.3,0.2c0,0.3-0.2,0.6-0.5,1
			c-0.3,0.4-0.6,0.6-0.9,0.6c-0.3,0-0.6-0.1-0.9-0.2c-0.3-0.1-0.6-0.1-0.9-0.2c-0.7-0.2-1.8-0.3-3.3-0.3c-0.8,1-1.5,1.9-2.2,2.6
			c0.6-0.1,1.1-0.1,1.6-0.1c1.3,0,2.1,0.8,2.2,2.3c0,0.2,0,0.3,0.1,0.4c2.1-1.3,3.9-2.4,5.2-3.3c0.4-0.3,0.8-0.4,1.1-0.4
			C128.1,95.3,128.4,95.5,128.4,96z"/>
		<path class="st0" d="M143.7,100.9c0,0.5-0.5,1.4-1.6,2.7c-1.1,1.3-2,2-2.6,2c-0.6,0-1.2-0.4-1.9-1.1c-1.2-1.4-1.8-3.9-1.8-7.6
			c0-1.9,0.1-3,0.3-3.5c0.2-0.3,0.4-0.5,0.8-0.5c0.5,0,0.8,0.2,0.8,0.7c0,0-0.1,0.5-0.2,1.3c-0.2,1.4-0.3,2.7-0.3,3.9
			c0,1.5,0.3,2.7,0.8,3.6c0.5,0.8,1,1.2,1.5,1.2c0.5,0,1.2-0.5,2.3-1.5c1-1,1.6-1.5,1.7-1.5C143.6,100.5,143.7,100.6,143.7,100.9z
			 M152.8,100.2c0,0.3-0.3,0.7-0.8,1.2c-0.5,0.4-0.9,0.6-1.2,0.6c-0.5,0-1.3-0.8-2.3-2.4c-1-1.6-1.6-2.8-1.6-3.3
			c0-0.2,0.1-0.3,0.3-0.3c0.2,0,0.5,0.3,1,1c0.5,0.7,1.2,1.3,1.9,1.8c0.7,0.6,1.4,1,1.9,1.1c0.2,0,0.3,0.1,0.4,0.1
			C152.7,100,152.8,100.1,152.8,100.2z"/>
		<path class="st0" d="M169.2,93.8c0,0.2-0.1,0.4-0.3,0.7c-0.2,0.3-0.3,0.5-0.5,0.5c-1.1-0.2-2-0.3-2.8-0.3c-0.1,0-0.3,0-0.5,0
			c-0.2,0-0.4,0-0.5,0c-0.4,1.7-0.8,3.3-1.4,4.7c-1.6,4.1-2.9,6.1-3.8,6.1c-0.3,0-0.6-0.1-1-0.2c-0.5-0.2-0.7-0.4-0.7-0.6
			c0-0.1,0.3-0.5,1-1.2c1.1-1.1,2.1-2.5,3-4.1c0.9-1.6,1.5-3.2,1.8-4.6c-1.5,0.1-2.9,0.3-4.1,0.7c-0.4-0.1-0.6-0.2-0.6-0.6
			c0-0.3,0.1-0.5,0.2-0.7c0.1-0.2,0.9-0.3,2.2-0.5c0.8-0.1,1.6-0.2,2.4-0.2c0.1-0.6,0.2-1.4,0.2-2.1c0-0.6,0.3-0.9,0.7-0.9
			c0.4,0,0.7,0.2,0.7,0.6c0,0.2-0.1,1-0.4,2.3c2.1-0.1,3.4-0.2,3.7-0.2S169.2,93.5,169.2,93.8z M175.7,103.4c0,0.4-0.1,0.8-0.4,1.4
			c-0.3,0.5-0.8,0.9-1.5,1.1c-0.4,0.1-1,0.1-1.9,0.1c-4.1,0-6.1-1-6.1-3c0-0.3,0.1-0.6,0.2-0.9c0.1-0.4,0.3-0.6,0.6-0.6
			c0.3,0,0.4,0.1,0.4,0.4c0,0.1,0,0.3-0.1,0.5c0,0.2-0.1,0.4-0.1,0.5c0,0.9,0.8,1.4,2.3,1.4c2.4,0,4.4-0.4,5.8-1.1
			c0.4-0.2,0.6-0.3,0.6-0.3C175.6,103,175.7,103.1,175.7,103.4z M173.4,97.1c-0.1,0.2-0.6,0.7-1.5,1.4c-0.9,0.7-1.6,1.1-1.9,1.2
			c-0.1,0-0.2-0.1-0.2-0.3c0-0.2,0.2-0.5,0.6-0.9c0.3-0.2,0.6-0.5,0.8-0.8c-0.1,0-0.3,0-0.6,0c-1.1,0-2,0.1-2.7,0.2
			c-0.9,0.2-1.3,0.3-1.3,0.3c-0.3,0-0.5-0.1-0.5-0.4c0-0.3,0.1-0.5,0.3-0.7c0.4-0.4,1.9-0.6,4.6-0.6h0.9
			C172.8,96.5,173.3,96.7,173.4,97.1z"/>
		<path class="st0" d="M195.8,101.2c0,0.5-0.1,1-0.4,1.6c-0.4,1-1.6,1.9-3.6,2.5c-1.6,0.5-3.1,0.8-4.5,0.8c-1.7,0-2.8-0.7-3.4-2.1
			c-0.4-0.9-0.5-3.2-0.5-6.8c0-3.6,0.1-5.6,0.3-5.8c0.2-0.2,0.5-0.4,0.8-0.4c0.6,0,0.9,0.4,0.9,1.1c0,0.2-0.1,0.9-0.2,2.1
			c-0.2,1.9-0.3,3.7-0.3,5.3c0,1.4,0,2.3,0.1,2.6c0.1,1.2,0.4,2,0.9,2.3c0.4,0.2,0.8,0.3,1.4,0.3c1.2,0,2.5-0.3,3.9-1
			c1.3-0.6,2.4-1.4,3.4-2.3c0.6-0.6,1-0.9,1-0.9C195.7,100.5,195.8,100.7,195.8,101.2z"/>
		<path class="st0" d="M218.8,104c-0.1,0.3-0.3,0.7-0.8,1.2c-0.4,0.5-0.8,0.8-1.1,0.8c-0.4,0-1-0.3-2-0.9c-0.6-0.4-1.2-0.8-1.7-1.2
			c-0.5-0.3-1.1-0.6-2-0.9c-0.2,2-1.4,3-3.7,3c-0.9,0-1.6-0.2-2.3-0.6c-0.8-0.4-1.2-1.1-1.2-1.9c0-0.9,0.4-1.5,1.3-1.9
			c0.7-0.3,1.5-0.5,2.4-0.5c0.6,0,1.4,0.1,2.2,0.3c0-0.4,0-0.9,0-1.5c0-0.8,0-1.3,0-1.5c0,0,0,0,0-0.1c0-0.1,0-0.1,0-0.1
			c-1.6,0.1-2.9,0.2-3.9,0.4c-0.1,0-0.2,0-0.4,0.1c-0.2,0.1-0.3,0.1-0.4,0.1c-0.4,0-0.6-0.2-0.6-0.7c0-0.5,0.4-0.9,1.3-0.9
			c0.7-0.1,2-0.2,3.8-0.2c0-0.8,0-1.8,0-3c-1.3,0-2.1,0.1-2.3,0.1c-0.9,0.1-1.6,0.2-2.3,0.3c-0.6,0.2-0.9,0.2-1,0.2
			c-0.5,0-0.8-0.3-0.8-0.9c0-0.2,0.1-0.4,0.2-0.5c0.2-0.2,2.2-0.3,6.1-0.3c0-1.1-0.1-1.8-0.1-1.9c0-0.6,0.3-0.9,0.8-0.9
			c0.6,0,0.9,0.3,0.9,0.9c0,0.5,0,1.2-0.1,1.9c2.9,0.1,4.9,0.2,5.8,0.2c0.4,0,0.5,0.1,0.5,0.2c0,0.3-0.1,0.6-0.4,1
			c-0.3,0.4-0.5,0.6-0.7,0.6c0.1,0-0.3-0.1-1.2-0.4c-0.9-0.2-2.2-0.4-4.1-0.5c0,1,0,2,0,2.9c1.8,0,3.4,0.1,4.8,0.3
			c0.1,0,0.2,0,0.3,0.1c0,0,0.1,0.1,0.1,0.2c0,0.3-0.1,0.5-0.3,0.8c-0.2,0.3-0.4,0.5-0.6,0.5c0,0-0.6-0.1-1.5-0.3
			c-0.8-0.2-1.8-0.2-2.9-0.3c0,0.2,0,1.3-0.1,3.6c1.5,0.4,2.9,0.9,4.2,1.4c0.9,0.3,1.8,0.5,2.8,0.6
			C218.6,103.7,218.8,103.8,218.8,104z M210,102.5c-1-0.3-1.8-0.4-2.4-0.4c-1.6,0-2.5,0.5-2.5,1.4c0,0.4,0.3,0.8,0.9,1
			c0.4,0.2,0.9,0.3,1.4,0.3c0.8,0,1.4-0.2,1.8-0.6C209.6,103.9,209.9,103.3,210,102.5z"/>
		<path class="st0" d="M242.8,94.1c-0.1,0.3-0.3,0.8-0.7,1.2c-0.4,0.5-0.8,0.8-1.1,0.8c-0.3-0.1-0.8-0.3-1.4-0.6
			c-1.3-0.5-2.8-0.8-4.4-0.9c0,0.9,0,2.2-0.1,4c0.4,1.1,0.6,1.9,0.6,2.4c0,1-0.3,1.9-1,2.8c-0.6,0.8-1.4,1.5-2.3,1.9
			c-1.1,0.6-2,0.8-2.7,0.8c-0.4,0-0.8-0.2-1.2-0.6c-0.4-0.4-0.6-0.8-0.6-1.2c0-0.1,0.2-0.2,0.7-0.3c1.4-0.1,2.4-0.2,3-0.4
			c1.1-0.3,1.9-0.9,2.4-1.8c0.3-0.6,0.5-1.1,0.5-1.5c0,0,0-0.1,0-0.1c0-0.1,0-0.2,0-0.2c-0.3,0.5-0.7,0.9-1.3,1.2
			c-0.6,0.3-1.2,0.5-1.7,0.5c-0.8,0-1.5-0.3-2.2-0.8c-0.6-0.5-1-1.2-1-1.9c0-0.9,0.4-1.5,1.1-2c0.6-0.4,1.4-0.6,2.3-0.6
			c0.7,0,1.3,0.2,2.1,0.6c0-0.4,0-1.3,0-2.8c-2.4,0-4.5,0.3-6.5,0.9c-1.1,0.4-1.7,0.6-1.8,0.6c-0.5,0-0.8-0.3-0.8-0.9
			c0-0.5,0.6-0.9,1.9-1.2c0.8-0.1,1.6-0.2,2.4-0.3c1.4-0.2,3-0.3,4.8-0.3c-0.1-1.5-0.1-2.3-0.1-2.4c0-0.7,0.2-1,0.7-1
			c0.6,0,0.8,0.4,0.8,1.3c0,0.2,0,0.6,0,1.1c0,0.4,0,0.8,0,1c2.7,0.2,5.1,0.3,7.1,0.3C242.6,93.9,242.8,94,242.8,94.1z M233.9,98.9
			c-0.5-0.7-1.2-1-2-1c-0.5,0-1,0.1-1.5,0.4c-0.5,0.3-0.7,0.7-0.7,1.2c0,0.5,0.2,0.9,0.5,1.2c0.4,0.3,0.8,0.4,1.3,0.4
			C232.9,101,233.7,100.3,233.9,98.9z"/>
		<path class="st0" d="M254.4,104.6c0,0.8-0.3,1.5-0.8,2c-0.5,0.5-1.2,0.8-2,0.8c-0.8,0-1.5-0.3-2-0.8c-0.6-0.6-0.8-1.2-0.8-2
			c0-0.8,0.3-1.5,0.8-2c0.6-0.6,1.2-0.9,2-0.9c0.8,0,1.5,0.3,2,0.9C254.1,103.2,254.4,103.8,254.4,104.6z M253.5,104.6
			c0-0.5-0.2-1-0.6-1.4c-0.4-0.4-0.8-0.6-1.4-0.6c-0.5,0-1,0.2-1.4,0.6c-0.4,0.4-0.6,0.9-0.6,1.4c0,0.5,0.2,1,0.6,1.4
			c0.4,0.4,0.9,0.6,1.4,0.6c0.5,0,1-0.2,1.4-0.6C253.3,105.6,253.5,105.2,253.5,104.6z"/>
	</g>
</g>
</svg>
