<?xml version="1.0" encoding="utf-8"?>
<!-- Generator: Adobe Illustrator 24.0.3, SVG Export Plug-In . SVG Version: 6.00 Build 0)  -->
<svg version="1.1" id="レイヤー_1" xmlns="http://www.w3.org/2000/svg" xmlns:xlink="http://www.w3.org/1999/xlink" x="0px"
	 y="0px" viewBox="0 0 141 159.2" style="enable-background:new 0 0 141 159.2;" xml:space="preserve">
<style type="text/css">
	.st0{fill:#55433C;}
	.st1{fill:#89715C;}
	.st2{fill:#FFA02A;}
	.st3{fill:#5E4940;}
	.st4{fill:#CAB58E;}
	.st5{fill:#D9CDAD;}
	.st6{fill:#B39D89;}
	.st7{fill:#463C38;}
	.st8{fill:#E4DCB9;}
	.st9{fill:#DF9700;}
	.st10{fill:#FFCA4D;}
</style>
<g>
	<g>
		<g>
			<g>
				<path class="st0" d="M104.5,111.1L104.5,111.1C104.5,111.1,104.5,111.1,104.5,111.1z"/>
			</g>
		</g>
		<g>
			<path class="st1" d="M33.6,135.2c-0.3-0.8,3.7-1.9,5.5-0.5c1.7,1.4,1.6,4.1,1.6,4.1l-2.1,0.1c0,0,0.4-1.6-1.3-2.8
				C35.5,135,33.8,135.7,33.6,135.2z"/>
		</g>
		<g>
			<path class="st1" d="M26.8,147.3c-0.8-0.4,1.3-3.3,3.6-3.4c2.2-0.2,4,1.4,4,1.4l0.5,1.2c0,0-2.7-0.7-4.8-0.4
				C28.2,146.2,27.3,147.5,26.8,147.3z"/>
		</g>
		<g>
			<path class="st1" d="M28,139.9c-0.6-0.7,2.7-2.9,4.9-2.1c2.1,0.7,3.6,3.2,3.6,3.2l-0.4,1.2c0,0-2-1.4-4-2
				C30.2,139.7,28.4,140.3,28,139.9z"/>
		</g>
		<g>
			<path class="st1" d="M36.8,158.6c0.1-0.8,2.3-1,3.8-2.7c1.5-1.7,0.7-2.8,0.7-2.8l2.8,0.6c0,0,1,2.8-1.4,4.3
				C40.3,159.5,36.7,159.4,36.8,158.6z"/>
		</g>
		<g>
			<path class="st2" d="M33.6,144.8c0,0,1.4-0.9,3.7,0.2c1.5,0.7,3.9,1.6,3.9,1.6s-2.1-2.4-4.6-2.9c-2.5-0.5-1-3-1-3
				s1.2-0.7,2.3,0.5c1.4,1.5,3.9,4.1,3.9,4.1s-1.1-2.4-2-3.7c-0.9-1.3-1.7-1.9-1.4-2.6c0.2-0.5,1.4-0.6,1.9-0.4
				c0.8,0.1,2.3,0.9,2.4,2.7c0.2,2.8,1.2,5.1,1.2,5.1s1.3,0,2-0.3c0.7-0.3,4.1-2.2,4.1-2.2l1.4,5.1c-2.7,0.7-4.8,1-7.3,0.4
				c0.4,0.4,0.7,1.1,1,1.8c0.9,2.1-0.3,3.2-0.8,3.7c-0.6,0.5-2,0.7-3.2-0.1c-0.7-0.5-0.5-0.9,0.5-2.6c1-1.7-0.1-3.2-0.1-3.2
				s-0.9-0.7-3.4-1.2c-2.7-0.5-2.9-0.3-4.7-1C33,146.5,33.6,144.8,33.6,144.8z"/>
		</g>
		<g>
			<path class="st3" d="M88.3,127.8c0,0-3.6,9.2-11.8,13.5c-8.2,4.3-22.7,9.7-25,7.6c-2.3-2.1-4.4-2.9-2.6-5.1
				c1.7-2.2,5.6-4.6,8.2-9.6s-0.7-5.2,4.7-11.5C67.1,116.4,91.6,119.7,88.3,127.8z"/>
		</g>
		<g>
			<path class="st0" d="M100.7,124.4"/>
		</g>
		<g>
			<path class="st4" d="M102.9,117.9c0,0,7.1,6.3,17.6,7.4c9.7,1,13.4-0.1,12.2,3.1c-1.2,3-12.9,5.6-21.6,0
				c-8.7-5.6-11.8-9.9-11.8-9.9L102.9,117.9z"/>
		</g>
		<g>
			<path class="st5" d="M104.4,118.1c0,0,16.2,1.9,23.2,2.1c5.8,0.2,13.5,0.5,6.6,4.1c-8,4.2-27.9,0.6-31.3-4.6L104.4,118.1z"/>
		</g>
		<g>
			<path class="st4" d="M106.4,114.9c0,0,20.1-1.1,24.6-3.2c4.5-2.1,14.9-3.5,7.3,2.8c-9.4,7.9-20.4,7.1-28.4,5
				c-4.5-1.2-6-2.7-6-2.7L106.4,114.9z"/>
		</g>
		<g>
			<path class="st5" d="M106.1,112.3c0.9,0.1,12.1-2.3,18.9-5.4c6.9-3.1,15.1-9.4,11.2-2c-4.3,8-19.2,13.3-30.5,9.5L106.1,112.3z"/>
		</g>
		<g>
			<path class="st4" d="M106.6,110.8c0,0,11.3-5.9,14.2-9.1c2.9-3.2,10.9-10.7,8.2-3c-2.7,7.7-7.3,13.1-14.5,13.6
				c-7.2,0.5-9.3,1.1-9.3,1.1L106.6,110.8z"/>
		</g>
		<g>
			<path class="st6" d="M51.1,108.4c1.5-2.4,4.1-4.1,6.7-5.2c8-3.5,18.2-4.4,26.6-2c3.2,0.9,17.5,7.5,26.5,8.4
				c0.2,0,0.4,0.2,0.5,0.4c0.1,0.2,0,0.4,0,0.6c-0.5,1.7-2.2,2.6-3.7,3.4c1.1,0,2.1,0,3.2,0.1c0.2,0,0.3,0,0.4,0.1
				c0.3,0.2,0,0.7-0.2,1c-1.6,1.6-3.8,2.6-6.1,2.7c1.3-0.1,2.6,0,3.8,0.2c0.2,0.6-0.4,1.2-1,1.6c-2,1.3-4.3,2-6.7,2.1
				c1.4,0.2,2.7,0.4,4.1,0.7c-0.3,1.1-1.1,1.9-2,2.6c-3.3,2.6-6.5,3.3-11.3,5.4c-0.6,0.3-3.3,1-4,0.6c-2.3,0.8-3.5-1.5-4.8-3.7
				c-0.4,0.7-2.2,1.1-3,0.9c-2.6-0.7-5-2-6.9-3.8c0.1,0.3,0.1,0.6-0.1,0.8c-0.3,0.7-1.1,1.1-1.8,1.2c-0.8,0.1-1.5-0.2-2.2-0.4
				c-1.3-0.4-2.6-0.9-3.6-1.7c0.4,0.7,0.3,1.6-0.1,2.2c-0.6,0.9-1.8,1.4-2.9,1.2c-0.9-0.1-1.7-0.6-2.5-1c-4.1-2.3-8.4-5.1-9.9-9.6
				C49,114.5,49.4,111.1,51.1,108.4z"/>
		</g>
		<g>
			<path class="st5" d="M35.6,90c0,0,15.9,3.2,22.2,0.4c6.2-2.9,21.3,11.5,16.5,17.4c-4.8,5.8-14.9,2.1-14.9,2.1s8.4,3.5,6,6
				c-1.9,1.9-5.9-0.1-7.9-0.8c1.6,0.7,5,3.6,2.9,4.9c-1.7,1.1-5.7-0.8-6.3-0.7c1,0.4,3.6,2.4,2.2,3.6c-1.8,1.6-5.7-0.2-10-2.6
				c-3.1-1.8-6.6-8.6-11.3-12.3c-4.1-3.3-6.7-6.9-6.7-6.9L35.6,90z"/>
		</g>
		<g>
			<g>
				<g>
					<path class="st7" d="M82.3,22.2c-4.4-12-9.9-19.8-4.9-17.4c4.4,2,6.3,4.4,8.2,9.6c6.5,18.2,0.3,29.7,0.3,29.7L84.7,44
						C84.7,44,86.8,34.5,82.3,22.2z"/>
				</g>
				<g>
					<path class="st7" d="M89,15.2c-1.7-8.8-5.7-16.3-2.3-15.1c5.6,2,11.8,11.9,8.4,26.7c-3.2,13.4-8.5,20.3-8.5,20.3L85,45.7
						C85,45.7,91.1,26,89,15.2z"/>
				</g>
				<g>
					<path class="st7" d="M99.4,21.7c2.6-8.6,3.1-16.7,4.9-14.5c3.4,3.9,4.9,17.4-4.1,29.7C92.2,48,85.9,50.3,85.9,50.3l1.9-6.4
						C87.8,43.9,96.2,32.5,99.4,21.7z"/>
				</g>
				<g>
					<path class="st7" d="M109.4,28.5c4.4-7.8,6.2-15.8,8.1-13c3.5,5.1,2.2,20.5-10.5,29.8c-11.5,8.5-19.6,12.2-19.6,12.2l2.9-7.5
						C90.3,50,103.8,38.3,109.4,28.5z"/>
				</g>
				<g>
					<path class="st7" d="M109.5,45.3c6.2-6.5,12.7-15.3,12.5-10.5c-0.4,6.2-3.6,15.3-17.7,24.7c-11.8,7.9-22,10.9-22,10.9l3.3-6.3
						C85.5,64,101.6,53.4,109.5,45.3z"/>
				</g>
				<g>
					<path class="st7" d="M108.4,59.7c7.3-5.2,15.4-12.6,14.2-8c-1.5,6-7.1,15.7-22.6,22.3c-13.1,5.6-22.6,4-22.6,4l4-4.4
						C81.3,73.5,99.1,66.2,108.4,59.7z"/>
				</g>
				<g>
					<path class="st7" d="M108.1,72.1c7.3-5.2,15.1-11.1,13.9-6.5c-2.2,8.4-5.8,16.6-22.3,20.2c-14.2,3.1-24.4,0.5-24.4,0.5l3.3-4.5
						C78.5,81.8,98.8,78.7,108.1,72.1z"/>
				</g>
				<g>
					<path class="st7" d="M107.2,86.3c8-3.1,14.9-6.5,13.8-1.8c-1.7,7.2-10.5,12.3-24.5,12.4c-12.1,0.1-21.2-4.9-21.2-4.9l1.8-4.1
						C77,87.9,98.6,89.6,107.2,86.3z"/>
				</g>
				<g>
					<path class="st7" d="M94.8,97.9c6.8-0.6,15.1-0.9,12.6,2c-4.4,5-10.5,7.1-21.2,4.1c-9.2-2.6-17.3-7.9-17.3-7.9l2.3-2.7
						C71.2,93.4,87.5,98.5,94.8,97.9z"/>
				</g>
				<g>
					<path class="st7" d="M85.8,104.7c6.3,1.5,12.2,3,9.3,4.4c-5.5,2.7-8.4,2.5-16.9-1.4c-7.1-3.4-12.4-9.8-12.4-9.8l2.3-1.9
						C68.1,96,79.9,103.3,85.8,104.7z"/>
				</g>
			</g>
			<g>
				<path class="st7" d="M75.9,107.8c4.1,2.5,7.9,4.9,5.6,5c-4.4,0.2-6.5-0.6-11.6-5.2c-4.3-3.9-6.7-9.1-6.7-9.1l2-0.5
					C65.3,98,72.1,105.5,75.9,107.8z"/>
			</g>
			<g>
				<path class="st7" d="M68.4,108.4c2.4,2.7,4.6,5.3,2.9,4.9c-3.3-0.7-4.6-1.8-7.2-6.3c-2.2-3.8-2.7-8.2-2.7-8.2l1.6,0
					C63,98.9,66.2,105.9,68.4,108.4z"/>
			</g>
		</g>
		<g>
			<path class="st4" d="M32,87.5c3.2,1.5,7.7-0.7,8.3,0.6c1.2,2.5-4.9,4.3-4.9,4.3s6.9-1.9,5.7,0.5c-1.2,2.4-7.8,3.1-7.8,3.1
				s8.4-0.1,6.2,2.2c-2.1,2.3-7.8,0.5-7.8,0.5s8.1,1.3,6,3c-1.8,1.6-6.7,0.1-6.7,0.1s5.4,2.6,2.6,3.6s-6-2.9-7.7-2.9
				c-1.7,0-5.8,0.5-7.6-0.7c-1.7-1.2-3.6-2.3-3.5-2.8c0.1-0.5-6.4-1.2-5.2-5.4C11.1,89.2,21.2,82.6,32,87.5z"/>
		</g>
		<g>
			<path class="st8" d="M11.3,85.8c0.9-0.8,1.9-2.7,2.2-2.8c0.2,0.8,0.3,1.5,0.5,2.3c1-2,3-3.4,5.2-3.8c-0.5,0.9-1.4,2-1.9,2.9
				c2.8-2.4,6.7-3.8,10.4-2.4c-1.2,1-2.2,1.4-3.4,2.4c2.2-0.7,4.7-0.5,6.8,0.5c-0.6,0.4-1.4,0.4-2.1,0.8c1.5,0.2,1.9,0.7,2.9,0.9
				c1,0.2,2.1,0.9,2.5,1.8c-2.5-0.3-3.9-0.8-6.4-1.1c-0.8-0.1-2.7-0.1-3.5,0c-2.2,0.3-3.8,1.9-5.4,3.4c-1.1,0.9-2.3,1.7-3.5,2.3
				c-1.2,0.7-3.6,1.6-5.1,1.8c-0.5,0-3-1.4-2.9-1.8C8.1,90.9,9.6,87.5,11.3,85.8z"/>
		</g>
		<g>
			<path class="st9" d="M17.6,97.7c0,0,0.5,1-1.1,2.2c-2.1,1.7-3.1,1.9-5.4,1.8c-1.1,0-2.7-0.7-5.4,0s-3.3,2.9-3.3,2.9
				s-1.7-2.6-1.1-3.5c3.2-4.9,14.1-2.1,14.1-2.1h0.5L17.6,97.7z"/>
		</g>
		<g>
			<path class="st10" d="M17.6,97.7c0,0-0.8,1.5-2.4,2c-2.3,0.8-4.1-0.8-6.7-0.2c-2.6,0.6-3.5,0.6-4.7,1.9c-1.2,1.2-1.6,3.2-1.6,3.2
				s-2-2.1-2.3-4.2c-0.2-1,0.6-3.3,2.3-4.6c1.3-1.1,2.2-1.4,3.5-2c1.3-0.6,1.9-1.3,1.9-1.3s1.2,1.4,1.8,1.7c1.9,1,2.4-0.3,3.4,0.7
				c1.4,1.2,1.3,1.9,2.8,2.5C17.1,97.9,17.6,97.7,17.6,97.7z"/>
		</g>
		<g>
			<path class="st6" d="M85.2,38.5c0-3-0.3-11.2,1.3-8.9c4.6,6.6-0.6,15.7-0.6,15.7l-1.3,0.8C84.6,46.1,85.1,42.5,85.2,38.5z"/>
		</g>
		<g>
			<g>
				<path class="st6" d="M88.4,38.8c1.4-4.1,3.1-10.6,4.4-8.5c5.3,8.2-7.8,20.9-7.8,20.9l-1.4-2.9C83.7,48.3,87,43,88.4,38.8z"/>
			</g>
			<g>
				<path class="st6" d="M92.3,44c2.2-3.7,5.4-9.5,5.8-7.2C99.9,48,85,54.8,85,54.8l0-4.2C85,50.6,90,47.7,92.3,44z"/>
			</g>
			<g>
				<path class="st6" d="M93.3,49.6c3.9-1.9,8.3-7.2,8.3-4.8c-0.5,13.3-20,18.5-20,18.5l0.3-7.9C81.9,55.4,88.5,51.9,93.3,49.6z"/>
			</g>
			<g>
				<path class="st6" d="M89.7,60c5-1.7,10.9-6.8,11-3.9c0.4,11.3-19.9,16.2-19.9,16.2l-5.9,0.9l3.4-9.1
					C78.3,64.2,83.5,62.1,89.7,60z"/>
			</g>
			<g>
				<path class="st6" d="M87.2,70.1c5.8-1.6,13.4-7.5,12.8-3.7c-2.1,13-22.5,17.3-22.5,17.3l-7.8-1.6l4.2-8
					C73.9,74.1,79.9,72.1,87.2,70.1z"/>
			</g>
			<g>
				<path class="st6" d="M86.2,79.6c4.4,0.2,10.8-1.9,9.8,0.3c-4,8.6-21.3,6.3-21.3,6.3l1.2-6.8C76,79.4,80.7,79.3,86.2,79.6z"/>
			</g>
			<g>
				<path class="st6" d="M81.9,86.6c4,0.9,10,0,8.9,2c-4.1,8-19.8,2.7-19.8,2.7L63.3,87l9.3-2.3C72.6,84.6,76.9,85.4,81.9,86.6z"/>
			</g>
			<g>
				<path class="st6" d="M77.9,93.6c3.5,1.9,9.5,2.8,7.7,4.2c-6.8,5-19.7-3.6-19.7-3.6l-7.8-3l11.6-1.7
					C69.8,89.3,73.6,91.2,77.9,93.6z"/>
			</g>
			<g>
				<path class="st6" d="M73.3,98.4c2.8,2.2,8.1,4.3,6.2,4.9c-7.2,2.2-17.2-7.2-17.2-7.2l4.4-2.7C66.7,93.3,69.8,95.6,73.3,98.4z"/>
			</g>
			<g>
				<path class="st6" d="M69.8,101.4c2.2,2.3,6.6,5.1,4.9,5.1c-6.7,0.2-18.8-10.9-18.8-10.9l8.7,0.4C64.6,96.1,67,98.5,69.8,101.4z"
					/>
			</g>
			<g>
				<path class="st6" d="M65,102.4c2,2.5,6.3,5.6,4.5,5.5c-6.7-0.3-13.7-10.3-13.7-10.3l4.4-0.8C60.2,96.7,62.5,99.3,65,102.4z"/>
			</g>
			<g>
				<path class="st6" d="M60.2,101.8c1.5,2.4,4.8,5.8,3.3,5.4c-5.7-1.6-10.7-11.3-10.7-11.3l3.8,0.2C56.6,96.2,58.3,98.8,60.2,101.8
					z"/>
			</g>
		</g>
		<g>
			<path class="st3" d="M49.4,94.2c0,0,10.6-3.2,24.7-25.1c7-10.8,7.8-15.1,8.4-17.1c2.1-7.1,2.1-9.4,2.1-9.4s4.2-2.8,4.2-0.9
				c0.1,3.9-3.9,6.6-3.9,6.6s6.3-3.4,5.8-0.7c-0.8,4.5-7.5,7.1-7.5,7.1s8.5-5.1,6.5-0.2c-2,5-11.7,10.1-11.7,10.1s10.5-6.2,9.9-2.8
				c-1.5,7.8-13.3,10.7-13.3,10.7s11.8-4.6,11.1-1.5C84.1,79.1,69.4,81,69.4,81s13.5-1.8,11.2,0.8c-4.4,5.1-15.7,5.7-15.7,5.7
				s10.1,2,8.2,3.5c-5,4-13.1,0.1-13.1,0.1s9.4,3,7.3,4.5c-4.1,2.9-10.9-1.3-11.3-1.4c0,0,10.1,5.9,4.6,6.4
				C54.8,101.1,49.4,94.2,49.4,94.2z"/>
		</g>
	</g>
	<g>
		<g>
			<path class="st7" d="M21,91.5c0.2,1.2,0,2.7-1.1,3.4c-1.4,0.9-2.8-0.3-3.3-1.6c-0.2-0.5,0.5-0.8,0.7-0.3c0.4,0.9,1.4,2.1,2.4,1.1
				c0.6-0.6,0.6-1.7,0.4-2.4C20.1,91.1,20.9,91,21,91.5L21,91.5z"/>
		</g>
	</g>
</g>
</svg>
