<?xml version="1.0" encoding="utf-8"?>
<!-- Generator: Adobe Illustrator 24.0.3, SVG Export Plug-In . SVG Version: 6.00 Build 0)  -->
<svg version="1.1" id="レイヤー_1" xmlns="http://www.w3.org/2000/svg" xmlns:xlink="http://www.w3.org/1999/xlink" x="0px"
	 y="0px" viewBox="0 0 144.2 155.5" style="enable-background:new 0 0 144.2 155.5;" xml:space="preserve">
<style type="text/css">
	.st0{fill:#6B968B;}
	.st1{fill:#7EC13E;}
	.st2{fill:#4A9143;}
	.st3{fill:#513813;}
	.st4{fill:none;stroke:#513813;stroke-width:4.3859;stroke-miterlimit:10;}
	.st5{fill:none;stroke:#513813;stroke-width:4.74;stroke-miterlimit:10;}
	.st6{fill:#C7DDEB;}
	.st7{fill:none;stroke:#513813;stroke-width:4.2431;stroke-miterlimit:10;}
	.st8{fill:none;stroke:#513813;stroke-width:4.5856;stroke-miterlimit:10;}
	.st9{fill:#FDC345;stroke:#513813;stroke-width:2.3841;stroke-linecap:round;stroke-linejoin:round;stroke-miterlimit:10;}
	.st10{fill:none;stroke:#513813;stroke-width:3.1737;stroke-miterlimit:10;}
	.st11{fill:none;stroke:#513813;stroke-width:3.8506;stroke-miterlimit:10;}
</style>
<g>
	<g>
		<g>
			<path class="st0" d="M56.7,8.7h50.1c4.2,0,7.6,4.5,7.6,10.1v25.9c0,5.6-3.4,10.1-7.6,10.1h-4.4h-1.5l0.4,15.4L89.9,54.8H56.7
				c-4.2,0-7.6-4.5-7.6-10.1V18.8C49.1,13.2,52.5,8.7,56.7,8.7z"/>
			<path class="st1" d="M81.2,17.6H27c-4.5,0-8.2,3.5-8.2,7.7v19.8c0,4.3,3.7,7.7,8.2,7.7h4.8h1.6l-1.5,15.2l13.3-15.2h35.9
				c4.5,0,8.2-3.5,8.2-7.7V25.3C89.4,21.1,85.7,17.6,81.2,17.6z"/>
			<path class="st2" d="M80.2,13.4H45v24.4c0,7.3,4,13.3,8.8,13.3h30c2.8-1.4,4.8-4.3,4.8-7.6V21.8C88.7,17.2,84.8,13.4,80.2,13.4z"
				/>
			<g>
				<g>
					<g>
						<path class="st3" d="M33.6,115.1c9.1,0.5,16.7-7.4,16.2-17C49.4,90,43,83.3,35.2,82.9c-9.2-0.5-16.7,7.4-16.2,17
							C19.4,108,25.7,114.7,33.6,115.1z"/>
						<path class="st3" d="M57.2,153.5c3.2,0,5.6-3.2,5-6.7c-2.7-14.8-13.6-28-26.6-28c-13.1,0-24,13.2-26.7,27.9
							c-0.6,3.5,1.8,6.7,5,6.7L57.2,153.5z"/>
					</g>
				</g>
			</g>
			<g>
				<g>
					<path class="st4" d="M30.1,115c10.1,0.5,18.4-7.8,17.9-17.8c-0.4-8.6-7.4-15.7-16.1-16.1C21.8,80.5,13.5,88.8,14,98.9
						C14.4,107.5,21.5,114.5,30.1,115z"/>
					<path class="st4" d="M55.8,151.6c3.5,0,6.2-3.2,5.5-6.7c-2.9-14.8-15-28-29.4-28c-14.4,0-26.5,13.2-29.4,27.9
						c-0.7,3.5,1.9,6.7,5.5,6.7L55.8,151.6z"/>
				</g>
			</g>
			<g>
				<g>
					<g>
						<path class="st5" d="M30.1,115c10.1,0.5,18.4-7.8,17.9-17.8c-0.4-8.6-7.4-15.7-16.1-16.1C21.8,80.5,13.5,88.8,14,98.9
							C14.4,107.5,21.5,114.5,30.1,115z"/>
						<path class="st5" d="M55.8,151.6c3.5,0,6.2-3.2,5.5-6.7c-2.9-14.8-15-28-29.4-28c-14.4,0-26.5,13.2-29.4,27.9
							c-0.7,3.5,1.9,6.7,5.5,6.7L55.8,151.6z"/>
					</g>
				</g>
			</g>
			<g>
				<g>
					<g>
						<path class="st6" d="M113.9,120c9.8,0.5,17.8-7.5,17.3-17.3c-0.4-8.4-7.2-15.2-15.6-15.6c-9.8-0.5-17.8,7.5-17.3,17.3
							C98.8,112.8,105.6,119.6,113.9,120z"/>
						<path class="st6" d="M138.8,155.5c3.4,0,6-3.1,5.3-6.5c-2.8-14.3-14.5-27-28.4-27.1c-13.9,0-25.6,12.7-28.5,27
							c-0.7,3.4,1.9,6.5,5.3,6.5L138.8,155.5z"/>
					</g>
				</g>
			</g>
			<g>
				<g>
					<path class="st7" d="M106.6,115.9c9.8,0.5,17.8-7.5,17.3-17.3c-0.4-8.4-7.2-15.2-15.6-15.6c-9.8-0.5-17.8,7.5-17.3,17.3
						C91.5,108.6,98.3,115.4,106.6,115.9z"/>
					<path class="st7" d="M131.5,151.3c3.4,0,6-3.1,5.3-6.5c-2.8-14.3-14.5-27-28.4-27.1c-13.9,0-25.6,12.7-28.5,27
						c-0.7,3.4,1.9,6.5,5.3,6.5L131.5,151.3z"/>
				</g>
			</g>
			<g>
				<g>
					<g>
						<path class="st8" d="M106.6,115.9c9.8,0.5,17.8-7.5,17.3-17.3c-0.4-8.4-7.2-15.2-15.6-15.6c-9.8-0.5-17.8,7.5-17.3,17.3
							C91.5,108.6,98.3,115.4,106.6,115.9z"/>
						<path class="st8" d="M131.5,151.3c3.4,0,6-3.1,5.3-6.5c-2.8-14.3-14.5-27-28.4-27.1c-13.9,0-25.6,12.7-28.5,27
							c-0.7,3.4,1.9,6.5,5.3,6.5L131.5,151.3z"/>
					</g>
				</g>
			</g>
			<path class="st9" d="M78.5,34.6c0.3-0.9,0.4-1.9,0.4-2.9l3.1-1.4l-1.2-4.4l-3.3,0.4c-0.5-0.9-1.1-1.7-1.9-2.4l1.2-3.1l-4-2.2
				l-2,2.6c-1-0.3-2.1-0.4-3.2-0.4l-1.3-2.9L61.8,19l0.4,3.2c-0.9,0.5-1.8,1.2-2.5,2l-3-1.1l-2.2,4l2.6,2c-0.3,1-0.4,2.1-0.4,3.2
				l-3,1.3l1.2,4.4l3.3-0.4c0.5,0.9,1.2,1.7,1.9,2.4L58.9,43l4,2.2l2.1-2.7c1,0.2,1.9,0.4,2.9,0.3l1.4,3.2l4.4-1.2l-0.4-3.5
				c0.9-0.5,1.6-1.1,2.3-1.8l3.3,1.2l2.2-4L78.5,34.6z M66.8,37.3c-3.1-0.6-5.1-3.5-4.5-6.6c0.6-3.1,3.5-5.1,6.6-4.5
				c3.1,0.6,5.1,3.5,4.5,6.6C72.8,35.8,69.8,37.8,66.8,37.3z"/>
			<path class="st10" d="M80.3,11.9H21.5c-4.9,0-8.9,4-8.9,8.8v22.7c0,4.9,4,8.8,8.9,8.8h5.2h1.8l-1.1,17.8l13.9-17.8h39
				c4.9,0,8.9-4,8.9-8.8V20.8C89.2,15.9,85.2,11.9,80.3,11.9z"/>
			<path class="st11" d="M53.6,1.9h59.5c4.9,0,9,4.9,9,11v28.2c0,6-4,11-9,11h-5.2h-1.8l1.7,17.8L93,52.1H53.6c-4.9,0-9-4.9-9-11
				V12.9C44.6,6.9,48.7,1.9,53.6,1.9z"/>
		</g>
		<polygon class="st1" points="29.4,149.9 33.6,130.7 29.7,122.2 41.4,122.2 37.2,130.7 42.1,149.9 		"/>
	</g>
</g>
</svg>
