<?xml version="1.0" encoding="utf-8"?>
<!-- Generator: Adobe Illustrator 24.0.3, SVG Export Plug-In . SVG Version: 6.00 Build 0)  -->
<svg version="1.1" id="レイヤー_1" xmlns="http://www.w3.org/2000/svg" xmlns:xlink="http://www.w3.org/1999/xlink" x="0px"
	 y="0px" viewBox="0 0 595.6 84" style="enable-background:new 0 0 595.6 84;" xml:space="preserve">
<style type="text/css">
	.st0{fill:#513813;}
</style>
<g>
	<path class="st0" d="M121.5,5c0.4,0,0.6,0.2,0.6,0.5c0,0.2-0.1,0.4-0.2,0.6c-0.3,0.6-0.6,1.2-1,1.7h3.9l0-3c0-0.6,0.3-0.8,0.8-0.8
		c0.6,0,0.9,0.3,0.9,0.8l0,3h5.6c0.2,0,0.4,0.1,0.4,0.3c0,0.3-0.1,0.6-0.3,0.8c-0.2,0.2-0.5,0.3-0.8,0.3c-0.3,0-0.9-0.1-2-0.2
		c-0.9,0-1.8-0.1-2.8-0.1l0,3.5h4.8c0.2,0,0.4,0.1,0.4,0.3c0,0.3-0.1,0.6-0.3,0.8c-0.2,0.2-0.5,0.3-0.8,0.3c-0.3,0-0.9-0.1-1.8-0.2
		c-0.7,0-1.4-0.1-2.2-0.1l-0.1,3.8c1.3,0,2.8,0.2,4.3,0.4c1.5,0.2,2.9,0.3,4.2,0.3c0.4,0,0.8,0,1.1-0.1c0.1,0,0.1,0.1,0.1,0.3
		c0,0.4-0.1,0.9-0.3,1.3c-0.3,0.5-0.5,0.7-0.8,0.7c-0.4,0-0.8-0.1-1.2-0.3c-1.6-0.6-3.1-1-4.4-1.2c-1.1-0.1-2.3-0.2-3.9-0.2
		c-1.8,0-3.3,0.1-4.6,0.3c-1.4,0.3-2.8,0.7-4.1,1.2c-0.4,0.2-0.7,0.2-1,0.2c-0.5,0-0.7-0.3-0.7-0.8c0-0.3,0.1-0.5,0.4-0.7
		c0.2-0.2,0.5-0.3,0.8-0.4c4-0.6,6.9-1,8.7-1l-0.1-3.8c-1.6,0-2.8,0.1-3.6,0.3c-0.5,0.1-0.8,0.2-0.9,0.2c-0.5,0-0.8-0.3-0.8-0.8
		c0-0.2,0.2-0.4,0.4-0.6c0.2-0.1,0.5-0.2,0.9-0.2h4.1l0-3.5c-1.6,0-2.8,0.1-3.6,0.2c-0.5,0.1-0.9,0.2-1,0.2c-0.2,0-0.3,0-0.4-0.1
		c-0.3,0.4-0.6,0.7-0.8,1.1c-0.4,0.5-0.8,0.7-1.1,0.7c-0.3,0-0.7-0.1-1.1-0.4c-0.4-0.3-0.5-0.6-0.5-0.9c0-0.2,0.2-0.4,0.5-0.4
		c0.8-0.3,1.6-0.8,2.3-1.4c0.8-0.7,1.4-1.6,2.1-2.8C121.2,5.1,121.4,5,121.5,5z"/>
	<path class="st0" d="M139.6,5.2c0.6,0,0.9,0.2,0.9,0.7c0,0.6-0.1,1.2-0.2,2.1c0,0.2,0.1,0.3,0.4,0.3c0.6,0,1.4-0.1,2.2-0.1
		c0-1.1,0-2.4-0.1-3.7c0-0.6,0.2-0.9,0.7-0.9c0.5,0,0.7,0.3,0.7,0.9c0,1.4-0.1,2.6-0.1,3.8c0.5,0,1.1,0,1.9,0.1
		c0.2,0,0.3,0.1,0.3,0.4c0,0.3-0.1,0.5-0.3,0.6c-0.2,0.1-0.4,0.1-0.6,0.1c-0.5,0-0.9-0.1-1.2-0.1l0,3.3c0.7-0.2,1.3-0.3,1.8-0.4
		c0.3,0,0.4,0.1,0.4,0.4c0,0.4-0.2,0.6-0.5,0.6c-0.6,0.2-1.1,0.4-1.7,0.6l0,5.1c0,1-0.3,1.5-0.8,1.5c-0.4,0-0.6-0.5-0.6-1.5
		c0-1.7,0-3.2,0-4.6c-1.3,0.5-2.5,1.1-3.6,1.7c-0.5,0-0.7-0.2-0.7-0.6c0-0.4,0.1-0.6,0.2-0.8c0.1-0.2,0.3-0.4,0.6-0.5
		c1.4-0.4,2.6-0.8,3.6-1.1c0-1.4,0-2.6,0-3.7c-0.8,0-1.5,0.1-2.3,0.2c-0.5,0-0.9,0.1-1.2,0.3c-0.2,0.1-0.3,0.1-0.3,0.1
		c-0.4,0-0.6-0.2-0.6-0.5c0-0.1,0.1-0.4,0.4-0.7c0.1-0.4,0.2-0.8,0.2-1.2c0-0.2,0-0.5,0-0.9c-0.1-0.4-0.1-0.7-0.1-0.8
		C138.9,5.4,139.1,5.2,139.6,5.2z M151.1,3.9c0.4,0,0.6,0.2,0.6,0.5c0,0.2-0.1,0.4-0.2,0.6c-0.3,0.6-0.6,1.2-0.9,1.8
		c0.6,0,1.4,0,2.5,0h4.6c0.1,0,0.4-0.1,0.8-0.2c0.6,0,0.8,0.3,0.8,0.8c-0.4,2.1-0.6,4.1-0.7,6.2c-0.2,2.8-0.6,4.7-1.4,5.6
		c-0.6,0.8-1.4,1.2-2.3,1.2c-0.4,0-0.8-0.2-1-0.5c-0.2-0.3-0.3-0.6-0.3-0.9c0-0.3,0.1-0.4,0.4-0.5c1.3-0.1,2.1-0.5,2.4-1.1
		c0.4-0.6,0.8-2.5,1.1-5.6c0.1-1.9,0.2-3.1,0.2-3.5c0-0.2-0.1-0.4-0.3-0.4h-1.6c0,0,0,0.1,0,0.1l0,0.2c-0.1,0.5-0.3,1.4-0.6,2.5
		c-0.5,1.9-1.2,3.6-2.1,5.1c-0.5,1-1.1,1.8-1.8,2.5c-0.9,0.8-1.5,1.2-1.8,1.2c-0.3,0-0.6-0.2-1-0.6c-0.3-0.3-0.5-0.6-0.5-0.8
		c0-0.2,0.2-0.3,0.6-0.4c0.7-0.2,1.5-0.7,2.2-1.5c0.8-0.7,1.7-2,2.5-3.8c0.6-1.4,1-2.9,1.1-4.4c0,0,0-0.1,0-0.1H154
		c-0.4,0-0.8,0-1.2,0l0,0.1c-0.1,0.4-0.3,0.9-0.5,1.7c-0.4,1.3-1,2.4-1.7,3.5c-0.4,0.7-0.9,1.2-1.5,1.7c-0.7,0.5-1.2,0.8-1.5,0.8
		c-0.3,0-0.6-0.2-0.9-0.5c-0.3-0.3-0.4-0.6-0.4-0.8c0-0.2,0.2-0.3,0.6-0.4c0.6-0.1,1.2-0.4,1.8-1c0.7-0.4,1.3-1.2,2-2.4
		c0.4-0.9,0.8-1.7,0.9-2.6c-0.2,0-0.4,0-0.6,0.1c-0.6,0.1-0.9,0.2-1.1,0.2c-0.1,0-0.2,0-0.2,0c-0.1,0.2-0.3,0.4-0.4,0.6
		c-0.3,0.4-0.6,0.7-0.8,0.7c-0.3,0-0.6-0.1-1-0.4s-0.5-0.5-0.5-0.8c0-0.2,0.2-0.2,0.5-0.3c0.7-0.3,1.3-0.7,1.8-1.3
		c0.6-0.6,1.1-1.4,1.7-2.5C150.9,4,151,3.9,151.1,3.9z"/>
	<path class="st0" d="M177.1,9.5c0.4,0,0.6,0.2,0.6,0.6c0,0.2-0.1,0.3-0.3,0.5c0,0-0.1,0.1-0.1,0.1c0.8,0.6,1.5,1.2,2.3,1.8
		c0.2,0,0.5,0.1,0.6,0.3c0.2,0.2,0.4,0.4,0.4,0.7c0,0.3-0.4,0.6-1.1,1c-3.7,2.4-7.2,4.2-10.5,5.3c-1.3,0.5-2.8,0.8-4.4,0.8
		c-0.4,0-0.7-0.1-1-0.4c-0.6-0.6-0.8-1.1-0.8-1.7c0-0.4,0.1-0.6,0.4-0.6c0.2,0,0.4,0.1,0.6,0.2c0.4,0.2,0.8,0.2,1.4,0.2
		c1.8,0,3.4-0.2,4.7-0.5c1-0.3,2-0.6,3.1-1.1c-0.6-0.6-1-1-1.3-1.1c-0.3-0.1-0.4-0.3-0.4-0.5c0-0.5,0.3-0.8,0.8-0.8
		c0,0,0.4,0.3,0.9,0.8c0.5,0.5,0.8,0.9,0.8,1.1c0.9-0.4,1.8-0.8,2.7-1.3c1.5-0.8,2.3-1.3,2.3-1.5c0-0.1-0.1-0.3-0.4-0.5
		c-0.7-0.4-1.3-0.8-1.9-1.2c-0.1-0.1-0.3-0.2-0.3-0.4c-2.2,1.3-4.1,2.3-5.9,3c-1.5,0.6-2.6,0.9-3.3,0.9c-0.4,0-0.7-0.1-1-0.4
		c-0.3-0.2-0.4-0.5-0.4-0.8c0-0.2,0.1-0.3,0.3-0.4c2.7-0.5,4.7-1,6.1-1.6c1.3-0.4,2.8-1.2,4.7-2.4C176.8,9.5,176.9,9.5,177.1,9.5z
		 M174.9,3.5c0.4,0,0.5,0.2,0.6,0.6c0,0.1,0,0.2-0.1,0.3c0.6,0.5,1.2,1,1.8,1.6c0.2,0,0.4,0.1,0.5,0.3c0.2,0.2,0.3,0.4,0.3,0.6
		c0,0.2-0.3,0.5-0.9,0.7c-2.8,1.8-5.4,3.1-7.9,3.9c-1,0.4-2.1,0.6-3.3,0.6c-0.2,0-0.5-0.1-0.7-0.4c-0.4-0.5-0.6-1-0.6-1.4
		c0-0.3,0.1-0.5,0.3-0.5c0.2,0,0.3,0.1,0.5,0.2c0.3,0.1,0.8,0.2,1.3,0.2c1.3,0,2.3-0.1,3.2-0.4c0.4-0.1,0.8-0.2,1.1-0.4
		c-0.5-0.5-0.9-0.8-1.2-1c-0.3-0.1-0.4-0.3-0.4-0.5c0-0.5,0.3-0.8,0.8-0.8c0.1,0,0.4,0.3,0.9,0.8c0.5,0.5,0.7,0.8,0.8,1.1
		c0.8-0.3,1.7-0.7,2.5-1.2c1-0.5,1.5-0.9,1.5-1.1c0-0.1-0.1-0.3-0.3-0.4c-0.4-0.4-0.9-0.8-1.3-1.1c-0.1-0.1-0.2-0.2-0.2-0.3
		c-1.8,0.9-3.4,1.5-4.9,2c-1.2,0.4-2.1,0.6-2.7,0.6c-0.4,0-0.7-0.1-0.9-0.4c-0.3-0.2-0.4-0.5-0.4-0.8c0-0.2,0.1-0.3,0.3-0.4
		c2.2-0.3,3.9-0.6,5-1c1-0.3,2.3-0.8,3.8-1.5C174.6,3.5,174.8,3.5,174.9,3.5z"/>
	<path class="st0" d="M186.5,7h2.8c0-0.8-0.1-1.7-0.1-2.5c0-0.6,0.2-0.9,0.7-0.9c0.5,0,0.8,0.3,0.8,0.9c0,0.9-0.1,1.7-0.1,2.5h2.6
		c0.2,0,0.3,0.1,0.3,0.3c0,0.3-0.1,0.5-0.3,0.7c-0.2,0.2-0.5,0.3-0.8,0.3c-0.2,0-0.5,0-1.1-0.1c-0.2,0-0.5,0-0.7,0c0,0.3,0,0.7,0,1
		l0,1.2c0,0,0.1,0,0.2,0c0,0,0.4,0.3,1,0.8c0.6,0.5,0.9,0.9,0.9,1.1c0,0.4-0.2,0.6-0.7,0.6c0,0-0.1,0-0.3-0.1
		c-0.5-0.4-0.9-0.8-1.2-0.9l0.1,7.5c0,1-0.3,1.5-0.9,1.5c-0.4,0-0.6-0.5-0.6-1.5c0-2.8,0-5.1,0-7.1c-0.4,0.5-0.7,1-1.1,1.4
		c-0.5,0.6-1,1-1.7,1.4c-0.1,0.1-0.2,0.1-0.3,0.1c-0.4,0-0.7-0.2-1.1-0.6c-0.3-0.3-0.5-0.6-0.5-0.9c0-0.2,0.2-0.3,0.6-0.3
		c0.4-0.1,0.8-0.1,1-0.2c0.5-0.2,1-0.5,1.5-0.9c0.5-0.5,0.9-1,1.2-1.6c0.1-0.1,0.2-0.2,0.3-0.2c0-0.4,0-0.7,0-1c0-0.3,0-0.7,0-1
		c-1.2,0-2.1,0.1-2.7,0.2c-0.3,0.1-0.5,0.2-0.6,0.2c-0.4,0-0.7-0.2-0.7-0.6c0-0.2,0.1-0.4,0.4-0.6C185.9,7.1,186.1,7,186.5,7z
		 M197.1,3.6c0.4,0.1,0.6,0.3,0.7,0.6c0.2,0.9,0.3,1.5,0.3,1.7c0,0,0,0.1,0,0.1h3.4c0-0.1,0.2-0.8,0.6-2c0.1-0.3,0.3-0.4,0.7-0.4
		c0.5,0,0.8,0.3,0.8,0.7c0,0.1-0.1,0.3-0.2,0.4c-0.4,0.5-0.7,0.9-1,1.2c0,0-0.1,0.1-0.1,0.1h2.6c0.2,0,0.3,0.1,0.4,0.3
		c0,0.3-0.1,0.6-0.3,0.8c-0.2,0.2-0.5,0.3-0.9,0.3c-0.2,0-0.8-0.1-1.6-0.2c-0.7,0-1.4-0.1-2.1-0.1c0,0.1,0,0.2,0,0.4
		c0,0.4,0,0.8,0,1.1h3.4c0.2,0,0.3,0.1,0.3,0.2c0,0.3-0.1,0.5-0.3,0.7c-0.2,0.2-0.5,0.3-0.8,0.3c-0.2,0-0.6,0-1.3-0.1
		c-0.4,0-0.9,0-1.4,0c0,0.5,0,1,0,1.5c0.9,0,2.1,0.1,3.6,0.1c0.3,0,0.6,0,0.9,0c0.2,0,0.5,0,1-0.1c0.4-0.1,0.6-0.2,0.7-0.2
		c0.2,0,0.3,0.1,0.3,0.2c0,0.4-0.2,0.8-0.6,1.3c-0.4,0.5-0.7,0.7-1.1,0.7c-0.2,0-0.6-0.1-1.2-0.3c-1-0.3-2.2-0.5-3.6-0.6l0.1,6.6
		c0,1-0.3,1.5-0.8,1.5c-0.4,0-0.6-0.5-0.6-1.5c0-2.7,0-4.9,0-6.6c-1.9,0-3.2,0.1-4,0.4c-0.4,0.1-0.7,0.2-1,0.2
		c-0.4,0-0.6-0.2-0.6-0.6c0-0.2,0.1-0.5,0.3-0.7c0.2-0.2,0.4-0.3,0.6-0.3c0.2,0,0.3,0,0.5,0.1c1.6-0.2,3-0.3,4.2-0.3
		c0-0.5,0-1,0-1.5c-1.1,0-1.9,0.1-2.4,0.1c-0.4,0.1-0.6,0.1-0.7,0.1c-0.4,0-0.6-0.2-0.7-0.6c0-0.2,0.1-0.4,0.4-0.6
		c0.2-0.1,0.4-0.2,0.8-0.2h2.6c0-0.4,0-0.7,0-1.1c0-0.1,0-0.3,0-0.4c-1.4,0-2.4,0.1-3,0.2c-0.4,0.1-0.7,0.2-0.9,0.2
		c-0.4,0-0.7-0.2-0.7-0.6c0-0.2,0.1-0.5,0.4-0.6c0.2-0.1,0.5-0.2,0.8-0.2h1.7c0,0-0.1-0.1-0.1-0.1c-0.2-0.4-0.4-0.7-0.6-1.1
		c-0.1-0.2-0.1-0.4-0.1-0.6C196.2,3.9,196.5,3.7,197.1,3.6z M197.3,17.2c0.3,0,0.4,0.1,0.4,0.4c0,0.2-0.1,0.4-0.2,0.6
		c-1.7,1.2-2.6,1.9-2.9,1.9c-0.6,0-0.9-0.2-0.9-0.6c0-0.5,0.1-0.8,0.4-0.9C194,18.4,195.1,17.9,197.3,17.2z M195.1,13.9
		c0.1,0,0.5,0.2,1.4,0.7c0.8,0.5,1.2,0.8,1.2,1.1c0,0.4-0.2,0.6-0.7,0.6c-0.1,0-0.2,0-0.4-0.1c-0.9-0.5-1.5-0.9-1.9-1
		c-0.4-0.1-0.6-0.3-0.6-0.4C194.2,14.2,194.5,13.9,195.1,13.9z M204.3,13.9c0.4,0,0.7,0.3,0.7,0.8c0,0.3-0.1,0.5-0.3,0.6
		c-1.6,0.7-2.5,1-2.5,1c-0.4,0-0.6-0.1-0.6-0.3c0-0.2,0.1-0.3,0.2-0.5l2.2-1.6C204.2,13.9,204.3,13.9,204.3,13.9z M201.9,17.2
		c0,0,0.1,0,0.1,0c0.8,0.5,1.5,0.9,2,1.1c0.3,0.1,0.8,0.2,1.3,0.2c0.2,0,0.3,0.1,0.3,0.3c0,0.3-0.2,0.5-0.5,0.7
		c-0.6,0.4-1.1,0.6-1.4,0.6c-0.2,0-0.3-0.1-0.4-0.2c-0.2-0.2-0.8-1-1.7-2.2c-0.1-0.1-0.1-0.2-0.1-0.3
		C201.6,17.2,201.7,17.2,201.9,17.2z"/>
	<path class="st0" d="M210.7,6.3c0.4,0,0.6,0.3,0.6,0.8c-0.1,0.7-0.1,1.3-0.1,1.8v3c0,0.9-0.2,1.4-0.7,1.4c-0.4,0-0.6-0.5-0.6-1.4
		c0.1-1.3,0.2-2.3,0.2-3c0-0.5,0-1.1-0.1-1.8C210,6.5,210.2,6.3,210.7,6.3z M213.5,3.5c0.5,0,0.7,0.3,0.7,0.9
		c-0.1,1.7-0.1,3.3-0.1,4.7l0.1,10c0,1-0.3,1.5-0.8,1.5c-0.4,0-0.6-0.5-0.6-1.5c0.1-4.3,0.1-7.6,0.1-10c0-1.4,0-2.9-0.1-4.7
		C212.8,3.8,213,3.5,213.5,3.5z M216.5,4.6c0.5,0,0.7,0.2,0.7,0.6l-1.4,3c-0.1,0.3-0.3,0.4-0.6,0.4c-0.2,0-0.4-0.2-0.4-0.5l0.9-3
		C216,4.8,216.2,4.6,216.5,4.6z M220,5.6c0.4,0,0.6,0.2,0.6,0.5c0,0.2-0.1,0.5-0.2,0.7c-0.2,0.5-0.4,1-0.7,1.5c0,0,0,0,0,0h3.1
		l0-3.6c0-0.6,0.2-0.8,0.7-0.8c0.6,0,0.9,0.3,0.9,0.8l0,3.6h4.5c0.2,0,0.4,0.1,0.4,0.3c0,0.3-0.1,0.6-0.3,0.8
		c-0.2,0.2-0.5,0.3-0.8,0.3c-0.2,0-0.8-0.1-1.6-0.2c-0.7,0-1.4-0.1-2.1-0.1l0,3.3h3.8c0.2,0,0.3,0.1,0.4,0.3c0,0.3-0.1,0.6-0.3,0.8
		c-0.2,0.2-0.5,0.3-0.9,0.3c-0.2,0-0.7-0.1-1.4-0.2c-0.5,0-1-0.1-1.6-0.1l0,3.6c0.8,0,1.6,0.1,2.5,0.2c1,0.1,1.9,0.1,2.8,0.1
		c0.4,0,0.8,0,1.1-0.1c0.1,0,0.1,0.1,0.1,0.3c0,0.4-0.1,0.9-0.4,1.3c-0.3,0.5-0.5,0.7-0.8,0.7s-0.5-0.1-0.8-0.3c-1.1-0.5-2-0.8-3-1
		c-0.7-0.1-1.6-0.2-2.6-0.2c-1.2,0-2.2,0.1-3.1,0.3c-0.9,0.2-1.8,0.6-2.7,1c-0.3,0.1-0.5,0.2-0.6,0.2c-0.4,0-0.6-0.3-0.6-0.7
		c0-0.3,0.1-0.5,0.3-0.7c0.2-0.2,0.5-0.3,0.8-0.4c2.5-0.4,4.4-0.7,5.6-0.7l-0.1-3.6c-1.3,0-2.2,0.1-2.8,0.2
		c-0.4,0.1-0.6,0.2-0.8,0.2c-0.4,0-0.7-0.2-0.7-0.6c0-0.2,0.1-0.4,0.4-0.6c0.2-0.1,0.5-0.2,0.8-0.2h3.1l0-3.3
		c-1.2,0-2.2,0.1-2.8,0.2c-0.4,0.1-0.7,0.2-0.8,0.2c-0.2,0-0.3,0-0.4-0.1c-0.2,0.3-0.4,0.6-0.6,0.8c-0.3,0.4-0.6,0.6-0.8,0.6
		c-0.3,0-0.7-0.1-1.1-0.4c-0.4-0.3-0.5-0.6-0.5-0.9c0-0.2,0.2-0.4,0.5-0.4c0.6-0.3,1.2-0.7,1.7-1.2c0.5-0.6,1-1.4,1.5-2.4
		C219.8,5.7,219.9,5.6,220,5.6z"/>
	<path class="st0" d="M249.8,9.5c0,0.3-0.3,0.6-0.9,1c-1.4,0.9-3.4,2-6,3.4c0,0.1,0,0.4,0,0.8c0,0.3,0,0.6,0,0.8
		c0,0.5-0.3,0.7-0.8,0.7c-0.3,0-0.5-0.2-0.6-0.6c0-0.1,0-0.4,0-1c-1,0.5-1.6,0.8-1.9,1.1c-0.8,0.6-1.2,1.1-1.2,1.7
		c0,0.4,0.4,0.6,1.2,0.8c0.6,0.1,1.2,0.2,1.8,0.2c1.7,0,3.3-0.3,4.7-0.8c1.1-0.4,1.6-0.6,1.7-0.6c0.1,0,0.2,0.1,0.2,0.4
		c0,0.5-0.2,1-0.5,1.5c-0.2,0.4-0.9,0.6-1.9,0.8c-0.8,0.1-1.7,0.1-2.7,0.1c-1.3,0-2.4-0.1-3.4-0.4c-1.5-0.4-2.2-1.1-2.2-2
		c0-0.8,0.6-1.6,1.7-2.4c0.2-0.2,1.1-0.7,2.6-1.7c0-0.9-0.1-1.4-0.1-1.6c-0.2-0.6-0.6-0.9-1.2-0.9c-0.9,0-1.6,0.2-2.2,0.5
		c-0.3,0.1-0.9,0.6-1.9,1.4c-0.1,0.1-0.3,0.2-0.5,0.3c-0.4,0-0.7-0.3-0.7-0.9c0-0.4,0.5-0.9,1.4-1.4c1.3-0.8,2.5-1.8,3.5-3.2
		c-0.5,0.1-1.3,0.2-2.3,0.3c0,0-0.3,0.1-0.9,0.2c-0.4,0.1-0.7,0.2-0.9,0.2c-0.4,0-0.6-0.2-0.6-0.7c0-0.6,0.5-0.9,1.4-1
		c0.9,0,2.2-0.1,3.9-0.1c0.2-0.3,0.5-0.9,0.9-1.9c0.2-0.5,0.5-0.7,0.9-0.7c0.5,0,0.8,0.2,0.8,0.7c0,0.2-0.3,0.8-1,1.9
		c0.5,0,1.2,0,2.3,0c1,0,1.8,0,2.3,0c0.1,0,0.3,0,0.6,0c0.2,0,0.4-0.1,0.6-0.1c0.1,0,0.2,0.1,0.3,0.2c0,0.3-0.2,0.6-0.5,1
		c-0.3,0.4-0.6,0.6-0.9,0.6c-0.3,0-0.6-0.1-0.9-0.2c-0.3-0.1-0.6-0.1-0.9-0.2c-0.7-0.2-1.8-0.3-3.3-0.3c-0.8,1-1.5,1.9-2.2,2.6
		c0.6-0.1,1.1-0.1,1.6-0.1c1.3,0,2.1,0.8,2.2,2.3c0,0.2,0,0.3,0.1,0.4c2.1-1.3,3.9-2.4,5.2-3.3c0.4-0.3,0.8-0.4,1.1-0.4
		C249.6,8.8,249.8,9,249.8,9.5z"/>
	<path class="st0" d="M256.3,6.9c0.2,0,0.5,0,0.7,0.1c0.2,0,0.6,0.1,1.1,0.1h5.2c0-0.8,0-1.7-0.1-2.6c0-0.7,0.3-1,0.9-1
		c0.5,0,0.7,0.3,0.7,1c0,0.9-0.1,1.8-0.1,2.6h0.5c1.6,0,3.5,0,5.7,0.1c0.2,0,0.6-0.1,0.9-0.2c0.5,0,0.7,0.3,0.7,0.8
		c0,0,0,0.1-0.1,0.2c-0.1,0.2-0.1,0.6-0.2,1.1c-0.1,0.7-0.1,1.4-0.1,2.2c0,0.5,0,1.1,0.1,1.9c0,0.6-0.2,0.8-0.6,0.8
		c-2.5-0.1-4.8-0.2-6.8-0.2l0.1,4.9c0,1.1-0.3,1.7-0.9,1.7c-0.5,0-0.8-0.6-0.8-1.7c0-1.8,0.1-3.4,0.1-4.9c-2.4,0-3.9,0-4.6,0.1
		c-0.7,0-1.4,0.1-2.4,0.2c-0.4,0-0.6-0.2-0.6-0.7c0.1-1.1,0.2-2.1,0.2-2.9c0-0.8-0.1-1.8-0.2-2.9C255.6,7.2,255.8,6.9,256.3,6.9z
		 M263.3,12.7c0-1.4,0-2.6,0-3.6c0-0.3,0-0.5,0-0.8c-1.7,0-3.5,0-5.5,0c-0.3,0-0.5,0.2-0.5,0.5c0,1.2-0.1,2.4-0.2,3.5
		c0,0.4,0.2,0.6,0.6,0.6C259.3,12.8,261.2,12.7,263.3,12.7z M264.7,8.4c0,0.3,0,0.5,0,0.8l0.1,3.6c1.8,0,3.7,0,5.7,0.1
		c0.3,0,0.4-0.1,0.4-0.4c0-1.7,0-3,0.1-3.7c0-0.2-0.1-0.3-0.4-0.3C269,8.4,267,8.4,264.7,8.4z"/>
	<path class="st0" d="M277.2,12.2c0.5,0.1,0.8,0.1,1,0.1c0.7,0,1.6-0.4,2.7-1.3c0.2,0,0.3,0.1,0.3,0.4c0,0.3-0.4,0.9-1.1,1.8
		c-0.7,0.9-1.4,1.4-1.9,1.4c-0.3,0-0.6-0.2-0.9-0.5c-0.3-0.4-0.4-0.9-0.4-1.4C276.9,12.3,277,12.2,277.2,12.2z M284.9,9.9
		c0.6,0,0.9,0.3,0.9,0.8c0,0.4-0.4,1.5-1.3,3.3c-0.2,0.2-0.3,0.4-0.3,0.6c0,0.1,0.2,0.2,0.5,0.2c2.3,0,4.5,0.3,6.7,0.8
		c0.7,0.2,1.5,0.2,2.3,0.2c0.8,0,1.6-0.1,2.5-0.3c0.5-0.2,0.8-0.2,0.9-0.2c0.2,0,0.4,0.2,0.4,0.5c0,0.5-0.2,1.1-0.6,1.8
		c-0.4,0.8-0.8,1.2-1.3,1.2c-0.4,0-1.3-0.2-2.6-0.7c-2.8-1.1-5.5-1.6-8.1-1.6c-0.6,0-1.4,0.1-2.2,0.3c-0.6,0-0.8-0.2-0.8-0.6
		c0-0.2,0.2-0.7,0.7-1.3c0.8-1.2,1.4-2.4,1.6-3.9C284.3,10.2,284.6,9.9,284.9,9.9z M290.8,6.4c0.5,0,0.7,0.2,0.7,0.7
		c0,0.3,0,0.5-0.1,0.6c-1.3,1.6-2,2.4-2.2,2.4c-0.3,0-0.5-0.1-0.5-0.4c0-0.1,0.4-1.1,1.2-2.9C290.2,6.5,290.5,6.4,290.8,6.4z
		 M295.1,8.8c0.6,0,0.8,0.2,0.8,0.6c0,0.4,0,0.6-0.1,0.7c-1.7,1.4-2.7,2.1-2.8,2.1c-0.3,0-0.5-0.1-0.5-0.4c0-0.1,0.6-1,1.7-2.6
		C294.5,9,294.7,8.8,295.1,8.8z"/>
	<path class="st0" d="M316.9,16.5c0,0.6-0.2,1.1-0.5,1.5c-0.3,0.4-0.8,0.7-1.3,0.8c-0.9,0.2-2.6,0.3-5.2,0.3c-4.7,0-7-1-7-3.1
		c0-1,0.4-1.9,1.3-2.8c0.2-0.2,1-0.9,2.4-2.1c-0.2-1-0.2-1.8-0.2-2.6V6.3c0-1.5,0.3-2.3,0.8-2.3c0.6,0,0.9,0.3,0.9,0.9
		c0,0.1,0,0.3-0.1,0.5c-0.1,0.3-0.1,0.5-0.1,0.6c-0.1,0.7-0.1,1.6-0.1,2.7c0,0.5,0,1.1,0.1,1.5c2.3-1.7,3.7-2.6,4.2-2.6
		c0.3,0,0.5,0.1,0.6,0.3c0.1,0.2,0.2,0.3,0.4,0.5c0,0.4-0.3,0.7-0.8,1c-1,0.5-2.1,1.1-3.1,1.6c-1.5,0.8-2.7,1.6-3.5,2.3
		c-1.1,0.9-1.7,1.8-1.7,2.7c0,1.1,1,1.7,3.1,1.7c1.3,0,2.9-0.1,4.7-0.3c1.5-0.2,2.8-0.5,3.9-0.8c0.4-0.2,0.8-0.2,1-0.2
		C316.8,16.2,316.9,16.3,316.9,16.5z"/>
	<path class="st0" d="M336.3,14.6c0,0.5-0.1,1-0.4,1.6c-0.4,1-1.6,1.9-3.6,2.5c-1.6,0.5-3.1,0.8-4.5,0.8c-1.7,0-2.8-0.7-3.4-2.1
		c-0.4-0.9-0.5-3.2-0.5-6.8c0-3.6,0.1-5.6,0.3-5.8c0.2-0.2,0.5-0.4,0.8-0.4c0.6,0,0.9,0.4,0.9,1.1c0,0.2-0.1,0.9-0.2,2.1
		c-0.2,1.9-0.3,3.7-0.3,5.3c0,1.4,0,2.3,0.1,2.6c0.1,1.2,0.4,2,0.9,2.3c0.4,0.2,0.8,0.3,1.4,0.3c1.2,0,2.5-0.3,3.9-1
		c1.3-0.6,2.4-1.4,3.4-2.3c0.6-0.6,1-0.9,1-0.9C336.2,14,336.3,14.2,336.3,14.6z"/>
	<path class="st0" d="M353,7.3c0,0.2-0.1,0.4-0.3,0.7c-0.2,0.3-0.3,0.5-0.5,0.5c-1.1-0.2-2-0.3-2.8-0.3c-0.1,0-0.3,0-0.5,0
		c-0.2,0-0.4,0-0.5,0c-0.4,1.7-0.8,3.3-1.4,4.7c-1.6,4.1-2.9,6.1-3.8,6.1c-0.3,0-0.6-0.1-1-0.2c-0.5-0.2-0.7-0.4-0.7-0.6
		c0-0.1,0.3-0.5,1-1.2c1.1-1.1,2.1-2.5,3-4.1c0.9-1.6,1.5-3.2,1.8-4.6c-1.5,0.1-2.9,0.3-4.1,0.7c-0.4-0.1-0.6-0.2-0.6-0.6
		c0-0.3,0.1-0.5,0.2-0.7c0.1-0.2,0.9-0.3,2.2-0.5c0.8-0.1,1.6-0.2,2.4-0.2c0.1-0.6,0.2-1.4,0.2-2.1c0-0.6,0.3-0.9,0.7-0.9
		s0.7,0.2,0.7,0.6c0,0.2-0.1,1-0.4,2.3c2.1-0.1,3.4-0.2,3.7-0.2S353,7,353,7.3z M359.5,16.8c0,0.4-0.1,0.8-0.4,1.4
		c-0.3,0.5-0.8,0.9-1.5,1.1c-0.4,0.1-1,0.1-1.9,0.1c-4.1,0-6.1-1-6.1-3c0-0.3,0.1-0.6,0.2-0.9c0.1-0.4,0.3-0.6,0.6-0.6
		c0.3,0,0.4,0.1,0.4,0.4c0,0.1,0,0.3-0.1,0.5c0,0.2-0.1,0.4-0.1,0.5c0,0.9,0.8,1.4,2.3,1.4c2.4,0,4.4-0.4,5.8-1.1
		c0.4-0.2,0.6-0.3,0.6-0.3C359.4,16.4,359.5,16.6,359.5,16.8z M357.2,10.5c-0.1,0.2-0.6,0.7-1.5,1.4c-0.9,0.7-1.6,1.1-1.9,1.2
		c-0.1,0-0.2-0.1-0.2-0.3c0-0.2,0.2-0.5,0.6-0.9c0.3-0.2,0.6-0.5,0.8-0.8c-0.1,0-0.3,0-0.6,0c-1.1,0-2,0.1-2.7,0.2
		c-0.9,0.2-1.3,0.3-1.3,0.3c-0.3,0-0.5-0.1-0.5-0.4c0-0.3,0.1-0.5,0.3-0.7c0.4-0.4,1.9-0.6,4.6-0.6h0.9
		C356.6,10,357.1,10.2,357.2,10.5z"/>
	<path class="st0" d="M364.6,5.2h6c0.2,0,0.3,0.1,0.3,0.3c0,0.3-0.1,0.5-0.3,0.6c-0.2,0.2-0.5,0.3-0.8,0.3c-0.1,0-0.5,0-1-0.1
		c-0.3,0-0.5,0-0.8,0l0,3.3h2.4c0.2,0,0.3,0.1,0.3,0.3c0,0.2-0.1,0.5-0.3,0.6c-0.2,0.2-0.4,0.3-0.8,0.3c-0.1,0-0.4,0-0.9-0.1
		c-0.2,0-0.5,0-0.7,0l0,3.5c1.1-0.3,1.9-0.4,2.5-0.5c0.3,0,0.4,0.1,0.4,0.4c0,0.4-0.2,0.6-0.5,0.7c-2.3,0.6-4.4,1.4-6.3,2.3
		c-0.5,0-0.7-0.2-0.7-0.6c0-0.4,0.1-0.6,0.2-0.8c0.1-0.2,0.3-0.3,0.6-0.4c0.9-0.2,1.7-0.5,2.5-0.6l0-3.8c-0.8,0-1.4,0.1-1.8,0.2
		c-0.3,0.1-0.4,0.2-0.5,0.2c-0.4,0-0.7-0.2-0.7-0.6c0-0.2,0.1-0.4,0.4-0.6c0.2-0.1,0.5-0.2,0.8-0.2h1.8l0-3.3
		c-0.8,0-1.5,0.1-1.9,0.2c-0.3,0.1-0.5,0.2-0.6,0.2c-0.4,0-0.7-0.3-0.7-0.7c0-0.2,0.1-0.4,0.4-0.6C364,5.3,364.3,5.2,364.6,5.2z
		 M373.9,10.5c0.2,0,0.4,0,0.6,0c0.2,0,0.5,0,0.9,0h2.8c0.6,0,1.4,0,2.2,0.1c0.2,0,0.5,0,0.8-0.1c0.4,0,0.6,0.2,0.6,0.6
		c0,0,0,0,0,0.1c-0.1,0.1-0.1,0.3-0.2,0.6c0,0.4-0.1,0.7-0.1,1.1c0,0.2,0,0.4,0.1,0.8c0,0.4-0.2,0.6-0.6,0.6
		c-1.3-0.1-2.4-0.2-3.5-0.2c0,0.1,0.1,0.3,0.1,0.5c-0.1,0.6-0.1,1.2-0.1,1.7l0.1,2.8c0,0.9-0.2,1.3-0.7,1.3c-0.4,0-0.6-0.4-0.6-1.3
		c0.1-1.2,0.1-2.1,0.1-2.8c0-0.4,0-0.8,0-1.2c-1,1.2-2.2,2.2-3.6,3.2c-0.6,0.4-1.1,0.6-1.4,0.6c-0.3,0-0.6-0.1-1-0.4
		s-0.5-0.5-0.5-0.8c0-0.2,0.2-0.3,0.5-0.3c1.1-0.2,2.1-0.6,3-1.2c0.9-0.5,1.7-1.2,2.5-2c-0.4,0-0.7,0-0.9,0.1
		c-0.3,0-0.6,0.1-1.1,0.2c-0.4,0-0.6-0.2-0.6-0.6c0.1-0.6,0.2-1.1,0.2-1.5c0-0.3-0.1-0.7-0.2-1.2C373.2,10.7,373.5,10.5,373.9,10.5z
		 M372.4,8.7h11c0.2,0,0.3,0.1,0.3,0.3c0,0.2-0.1,0.5-0.3,0.6c-0.2,0.2-0.4,0.3-0.8,0.3c-0.3,0-0.9,0-1.9-0.1c-1.1,0-2.2,0-3.5,0
		c-2,0-3.4,0.1-4.3,0.2c-0.5,0.1-0.8,0.2-1,0.2c-0.4,0-0.6-0.2-0.7-0.6c0-0.2,0.2-0.4,0.4-0.6C371.8,8.8,372.1,8.7,372.4,8.7z
		 M372.6,3.8c0.2,0,0.4,0,0.6,0c0.2,0,0.5,0,0.9,0h4.2c0.9,0,2.1,0,3.4,0.1c0.2,0,0.5,0,0.7-0.1c0.4,0,0.7,0.2,0.7,0.6l0,0.1
		c-0.1,0.1-0.1,0.3-0.2,0.6c0,0.4-0.1,0.7-0.1,1.2c0,0.2,0,0.5,0.1,0.8c0,0.4-0.2,0.7-0.6,0.7c-1.9-0.1-3.6-0.2-5.1-0.2
		c-1.7,0-2.8,0-3.3,0.1c-0.4,0-0.9,0.1-1.5,0.2c-0.4,0-0.6-0.2-0.6-0.7c0.1-0.6,0.2-1.1,0.2-1.5c0-0.4-0.1-0.8-0.2-1.3
		C371.9,4.1,372.2,3.8,372.6,3.8z M375.5,6.8l0-1.8c-0.5,0-1,0-1.6,0c-0.3,0-0.4,0.1-0.4,0.4c0,0.4-0.1,0.7-0.2,1
		c0,0.3,0.2,0.5,0.5,0.5C374.3,6.8,374.8,6.8,375.5,6.8z M377.3,13.3c0.8,0,1.7,0,2.7,0.1c0.2,0,0.4-0.1,0.4-0.4v-1.1
		c0-0.1-0.1-0.2-0.2-0.2c-1.2-0.1-2.9-0.1-5.1-0.1c-0.3,0-0.4,0.1-0.4,0.4c0,0.3-0.1,0.6-0.2,0.9c0,0.3,0.2,0.5,0.5,0.5
		C375.7,13.3,376.4,13.3,377.3,13.3z M377.3,6.7c0.4,0,0.8,0,1.2,0L378.4,5c-0.6,0-1.2,0-1.9,0v1.8C376.8,6.7,377,6.7,377.3,6.7z
		 M382.9,13.8c0.5,0,0.7,0.2,0.7,0.7c0,0.3-0.2,0.5-0.5,0.7c-0.7,0.4-1.6,0.8-2.7,1.2c-0.1,0-0.2,0.1-0.3,0.1l0,0
		c1.8,1.2,2.9,1.9,3.3,2.1c0.3,0.1,0.6,0.1,1,0.2c0.3,0,0.4,0.1,0.4,0.3c0,0.3-0.2,0.5-0.6,0.8c-0.4,0.3-0.9,0.4-1.3,0.4
		c-0.3,0-0.6-0.1-0.8-0.3c-0.6-0.8-1.3-1.6-2-2.4c-0.3-0.3-0.6-0.6-0.9-0.7c0,0-0.1,0-0.1,0c-0.1,0-0.1,0-0.1,0
		c-0.4,0-0.6-0.2-0.6-0.5c0-0.2,0.1-0.4,0.3-0.5c1.6-0.8,2.9-1.4,3.8-2.1C382.7,13.8,382.8,13.8,382.9,13.8z M379.5,5v1.8
		c0.6,0,1.2,0,1.8,0.1c0.3,0,0.4-0.1,0.4-0.4V5.2c0-0.1-0.1-0.2-0.2-0.2C380.9,5,380.3,5,379.5,5z"/>
	<path class="st0" d="M388.6,8.1h1.9l0-3.6c0-0.6,0.2-0.8,0.7-0.8c0.6,0,0.9,0.3,0.9,0.8L392,8.1h2.3c0.2,0,0.3,0.1,0.3,0.3
		c0,0.3-0.1,0.5-0.3,0.6c-0.2,0.2-0.4,0.3-0.8,0.3c-0.1,0-0.4,0-0.9-0.1c-0.2,0-0.4,0-0.6,0l-0.1,4.3c1.1-0.3,2-0.4,2.6-0.5
		c0.3,0,0.4,0.1,0.4,0.4c0,0.4-0.2,0.6-0.5,0.6c-2.2,0.6-4.2,1.3-6,2.1c-0.5,0-0.7-0.2-0.7-0.6c0-0.4,0.1-0.6,0.2-0.8
		c0.1-0.2,0.2-0.3,0.6-0.4c0.8-0.2,1.5-0.4,2.2-0.5l0-4.6c-0.8,0-1.4,0.1-1.8,0.2c-0.3,0.1-0.5,0.2-0.6,0.2c-0.4,0-0.7-0.2-0.7-0.6
		c0-0.2,0.1-0.5,0.4-0.6C387.9,8.2,388.2,8.1,388.6,8.1z M397.5,9.9c0.2,0,0.5,0,0.7,0c0.2,0,0.6,0,1,0h3c0.7,0,1.5,0,2.4,0.1
		c0.2,0,0.5,0,0.8-0.1c0.4,0,0.7,0.2,0.7,0.6c0,0,0,0.1-0.1,0.2c-0.1,0.2-0.1,0.5-0.1,0.9c0,0.6-0.1,1.2-0.1,1.8c0,0.4,0,1,0.1,1.7
		c0,0.4-0.2,0.7-0.7,0.7c-0.7-0.1-1.3-0.1-1.9-0.1c0,0,0,0.1,0,0.1c0,0.6,0,1.4-0.1,2.3c0,0.2,0.1,0.3,0.2,0.3
		c0.2,0,0.8,0.1,1.6,0.1c1.4,0,2.7-0.2,3.7-0.6c0.2,0,0.3,0.2,0.3,0.5c0,0.4-0.1,0.8-0.4,1.3c-0.3,0.5-0.6,0.8-0.9,0.8
		c-0.2,0-1.9-0.2-5.1-0.7c-0.5-0.1-0.7-0.4-0.7-0.8c0.1-0.9,0.1-1.5,0.1-2c0-0.4,0-0.9-0.1-1.4c-0.2,0-0.4,0-0.7,0
		c-0.3,0-0.6,0-0.9,0c0,0.1,0,0.1,0,0.2c0,0-0.1,0-0.1,0.1c-0.3,0.6-0.9,1.4-1.7,2.2c-0.8,0.8-1.7,1.3-2.6,1.7
		c-0.6,0.3-1.1,0.4-1.5,0.4c-0.3,0-0.5-0.1-0.8-0.3c-0.4-0.3-0.6-0.6-0.6-1c0-0.3,0.3-0.4,0.8-0.5c1.1-0.1,2.2-0.4,3.2-0.9
		c0.9-0.5,1.5-1.2,2-1.9c-0.2,0-0.4,0-0.6,0c-0.3,0-0.7,0.1-1.2,0.2c-0.4,0-0.6-0.2-0.6-0.7c0.1-0.9,0.2-1.7,0.2-2.4
		c0-0.7-0.1-1.4-0.2-2.4C396.8,10.2,397,9.9,397.5,9.9z M401.3,3.4c0.6,0,0.9,0.3,0.9,0.8c-0.1,0.3-0.2,0.6-0.2,0.9h4.6
		c0.2,0,0.3,0.1,0.3,0.3c0,0.3-0.1,0.5-0.3,0.6c-0.2,0.2-0.5,0.3-0.8,0.3c-0.2,0-0.7,0-1.6-0.1L403.9,8h3.8c0.2,0,0.4,0.1,0.4,0.2
		c0,0.3-0.1,0.6-0.3,0.9c-0.2,0.2-0.5,0.4-0.8,0.4c-0.3,0-1-0.1-2-0.2c-1.1-0.1-2.3-0.1-3.6-0.1c-2,0-3.5,0.1-4.4,0.2
		c-0.5,0.1-0.9,0.1-1,0.1c-0.4,0-0.6-0.2-0.7-0.6c0-0.2,0.2-0.4,0.4-0.6c0.2-0.1,0.4-0.2,0.8-0.2h2.9l-0.5-1.7c-0.4,0-0.7,0.1-1,0.1
		c-0.4,0.1-0.7,0.2-0.8,0.2c-0.4,0-0.6-0.2-0.7-0.6c0-0.2,0.2-0.4,0.4-0.6c0.2-0.1,0.4-0.2,0.8-0.2h3.4c0-0.3-0.1-0.6-0.2-0.8
		C400.5,3.7,400.8,3.4,401.3,3.4z M401.3,14.8c0.9,0,1.8,0,2.9,0.1c0.3,0,0.4-0.1,0.4-0.4v-1.1c0,0-0.1,0-0.1,0
		c-2.6,0-4.6,0.1-6.1,0.2c0,0-0.1,0-0.1,0c0,0.3,0,0.6-0.1,0.8c0,0.3,0.2,0.5,0.6,0.5C399.5,14.8,400.4,14.8,401.3,14.8z
		 M398.4,12.5c0,0,0.1,0,0.1,0h5.9c0.1,0,0.1,0,0.2,0v-1.2c0-0.1-0.1-0.2-0.2-0.2c-1.3,0-3.1-0.1-5.5-0.1c-0.3,0-0.5,0.1-0.5,0.4
		C398.4,11.8,398.4,12.1,398.4,12.5z M400.1,8h2.7l0.2-1.8c-0.5,0-1.1,0-1.7,0c-0.5,0-1,0-1.4,0L400.1,8z"/>
	<path class="st0" d="M418.6,3.6c0.4,0,0.6,0.2,0.6,0.5c0,0.2-0.1,0.5-0.2,0.7c-0.7,0.8-1.4,1.5-2.1,2.1c0.1,0.2,0.2,0.4,0.2,0.7
		c-0.1,1.4-0.1,2.6-0.1,3.7l0,7.7c0,1-0.3,1.5-0.8,1.5c-0.4,0-0.6-0.5-0.6-1.5c0.1-3.3,0.2-5.9,0.2-7.7c0-1,0-2.1-0.1-3.4
		c-0.3,0.2-0.6,0.5-1,0.7c-0.7,0.4-1.2,0.7-1.7,0.7c-0.3,0-0.7-0.1-1.1-0.4c-0.4-0.3-0.5-0.6-0.5-0.9c0-0.2,0.2-0.4,0.5-0.4
		c1.2-0.3,2.4-0.7,3.4-1.3c1.1-0.6,2.2-1.4,3.1-2.5C418.4,3.7,418.5,3.6,418.6,3.6z M424.6,12.4c0-0.3,0-0.6,0-1
		c0-0.6,0.2-0.9,0.7-0.9s0.7,0.3,0.7,0.9c0,0.3,0,0.7,0,1c0.9,0,1.9,0.1,3,0.2c1.1,0.1,2.1,0.1,3.1,0.1c0.4,0,0.8,0,1.1-0.1
		c0.1,0,0.1,0.1,0.1,0.3c0,0.4-0.1,0.9-0.4,1.3c-0.3,0.5-0.5,0.7-0.8,0.7c-0.3,0-0.6-0.1-0.9-0.3c-1.2-0.5-2.3-0.9-3.3-1.1
		c-0.6-0.1-1.3-0.2-2-0.2c0,0.2,0,0.4,0,0.6l0.1,5c0,1-0.3,1.5-0.8,1.5c-0.4,0-0.6-0.5-0.6-1.5c0-2.1,0.1-3.8,0.1-5
		c0-0.2,0-0.4,0-0.6c-1,0-1.9,0.1-2.6,0.3c-0.9,0.2-1.8,0.6-2.7,1c-0.3,0.1-0.5,0.2-0.7,0.2c-0.4,0-0.6-0.3-0.6-0.7
		c0-0.3,0.1-0.5,0.4-0.7c0.2-0.2,0.5-0.4,0.8-0.4C421.6,12.7,423.4,12.4,424.6,12.4z M419.1,16.8c0.4,0.1,0.7,0.1,0.9,0.1
		c0.6,0,1.3-0.2,2.2-0.7c0.2,0,0.3,0.1,0.3,0.3c0,0.2-0.3,0.7-0.9,1.4c-0.6,0.7-1.1,1.1-1.5,1.1c-0.3,0-0.6-0.2-0.8-0.5
		c-0.3-0.4-0.4-0.8-0.4-1.3C418.8,16.9,418.9,16.8,419.1,16.8z M421.6,4.3c0.2,0,0.4,0,0.7,0.1c0.2,0.1,0.6,0.1,1,0.1h2.9
		c0.6,0,1.4,0,2.3,0.1c0.2,0,0.5-0.1,0.8-0.2c0.4,0,0.6,0.2,0.6,0.7c0,0,0,0.1,0,0.2c-0.1,0.2-0.1,0.4-0.1,0.8
		c0,0.6-0.1,1.1-0.1,1.8c0,0.4,0,0.8,0.1,1.5c0,0.5-0.2,0.7-0.6,0.7c-1.4-0.1-2.6-0.2-3.7-0.2c-1.4,0-2.2,0-2.6,0
		c-0.3,0-0.7,0.1-1.1,0.1c-0.4,0-0.7-0.2-0.7-0.6c0.1-0.9,0.2-1.6,0.2-2.3c0-0.6-0.1-1.3-0.2-2.2C420.9,4.5,421.1,4.3,421.6,4.3z
		 M425.3,8.8c0.8,0,1.7,0,2.7,0.1c0.3,0,0.4-0.1,0.4-0.3V5.9c0-0.2-0.1-0.3-0.2-0.3c-1.2-0.1-3-0.1-5.3-0.1c-0.3,0-0.5,0.2-0.5,0.5
		c0,0.9-0.1,1.7-0.2,2.5c0,0.3,0.2,0.4,0.6,0.4C423.6,8.8,424.4,8.8,425.3,8.8z M428.6,16.1c0,0,0.1,0,0.1,0
		c0.7,0.4,1.3,0.7,1.8,0.8c0.3,0.1,0.7,0.2,1.2,0.2c0.2,0,0.3,0.1,0.3,0.3c0,0.3-0.2,0.6-0.5,0.9c-0.7,0.4-1.2,0.6-1.5,0.6
		c-0.1,0-0.2-0.1-0.3-0.2c-0.2-0.2-0.6-0.8-1.3-2c0-0.1-0.1-0.2-0.1-0.2C428.4,16.2,428.5,16.1,428.6,16.1z"/>
	<path class="st0" d="M445.9,3.7c0.3,0,0.5,0.2,0.6,0.5c0.3,0.1,0.6,0.3,1.1,0.6c3.6,2.3,5.8,3.6,6.7,3.9c0.6,0.2,1.2,0.3,2,0.3
		c0.3,0,0.5,0.1,0.5,0.4c0,0.4-0.3,0.7-0.8,1.1c-0.5,0.4-1.1,0.5-1.7,0.5c-0.4,0-0.8-0.2-1.1-0.5c-1.5-1.3-3.1-2.7-4.9-4.1
		c-0.8-0.5-1.5-1-2.1-1.2c-0.1,0-0.2-0.1-0.2-0.1c-1.2,1.3-2.5,2.4-3.9,3.3c-1.2,0.8-2.6,1.5-4.2,2.1c-0.4,0.1-0.6,0.2-0.7,0.2
		c-0.4,0-0.8-0.2-1.2-0.7c-0.4-0.3-0.6-0.6-0.6-0.9c0-0.2,0.3-0.3,0.7-0.4c1.2-0.1,2-0.2,2.5-0.4c1.4-0.3,2.7-0.9,3.9-1.7
		c1.3-0.8,2.3-1.8,3.2-2.8C445.6,3.8,445.7,3.7,445.9,3.7z M441.9,9.8h9.1c0.2,0,0.3,0.1,0.4,0.3c0,0.3-0.1,0.6-0.3,0.8
		c-0.2,0.2-0.5,0.3-0.9,0.3c-0.2,0-0.7-0.1-1.6-0.2c-0.6,0-1.3-0.1-2-0.1l0,2.9h3.7c0.2,0,0.4,0.1,0.4,0.3c0,0.3-0.1,0.6-0.3,0.8
		c-0.2,0.2-0.5,0.3-0.8,0.3c-0.2,0-0.7-0.1-1.4-0.2c-0.5,0-1-0.1-1.5-0.1l0,3.1c0.8,0,1.8,0,2.7,0c1,0,2,0,2.9,0c0.4,0,0.7,0,1-0.1
		c0.1,0,0.1,0.1,0.1,0.3c0,0.4-0.1,0.8-0.3,1.2c-0.2,0.4-0.5,0.6-0.7,0.6c-0.3,0-0.5-0.1-0.8-0.2c-1.1-0.4-2.1-0.7-3-0.8
		c-0.7-0.1-1.6-0.1-2.7-0.1c-1.2,0-2.2,0.1-3,0.2c-0.9,0.2-1.8,0.4-2.7,0.6c-0.3,0.1-0.5,0.1-0.6,0.1c-0.4,0-0.6-0.3-0.6-0.7
		c0-0.2,0.1-0.5,0.3-0.7c0.2-0.2,0.4-0.3,0.7-0.4c2.5-0.2,4.3-0.2,5.5-0.3l0-3.1c-1.3,0-2.2,0.1-2.8,0.2c-0.4,0.1-0.6,0.2-0.7,0.2
		c-0.5,0-0.7-0.2-0.7-0.6c0-0.2,0.1-0.4,0.4-0.6c0.2-0.1,0.5-0.2,0.8-0.2h3l0-2.9c-1.3,0-2.3,0.1-2.9,0.2c-0.4,0.1-0.7,0.2-0.8,0.2
		c-0.5,0-0.8-0.3-0.8-0.7c0-0.2,0.2-0.4,0.4-0.6C441.2,9.9,441.5,9.8,441.9,9.8z"/>
	<path class="st0" d="M477.8,10.7c0,1.2-0.5,2.1-1.6,2.9c-0.9,0.7-2,1-3.2,1c-0.8,0-1.4-0.2-1.8-0.6c-0.4-0.5-0.6-0.9-0.6-1.3
		c0-0.2,0-0.3,0.1-0.3c0.2,0,0.6,0.1,1.2,0.2c0.5,0.1,1,0.2,1.3,0.2c0.7,0,1.4-0.2,2.1-0.6c0.8-0.4,1.2-1,1.2-1.6
		c0-0.6-0.2-1.1-0.7-1.5c-0.4-0.3-1-0.5-1.6-0.5c-1.6,0-3.9,0.5-6.8,1.4c0.4,2.4,1,4.4,1.9,6c0.6,1.2,1.3,2.1,2,2.7
		c0.2,0.1,0.4,0.3,0.6,0.6c0,0.2-0.3,0.4-0.8,0.7c-0.5,0.2-0.9,0.3-1.2,0.3c-0.7,0-1.5-1.5-2.4-4.4c-0.6-2.1-1.1-3.9-1.3-5.5
		c-0.8,0.3-2.1,0.8-3.7,1.4l-1.3,0.6c-0.5,0-0.8-0.3-0.8-0.9c0-0.4,0.8-0.9,2.5-1.4c0.3-0.1,1.4-0.4,3.2-0.9
		c-0.2-1.8-0.3-3.2-0.3-4.2c0-0.5,0.3-0.7,0.8-0.7c0.3,0,0.5,0.2,0.6,0.7c0,0.3,0,0.7,0,1.3c0,1,0.1,1.9,0.2,2.7
		c3-0.8,5.2-1.2,6.6-1.2c1.1,0,2,0.2,2.7,0.7C477.4,8.9,477.8,9.7,477.8,10.7z M473.1,4.4c0,0.3-0.4,0.8-1.1,1.6
		c-0.8,0.8-1.3,1.1-1.5,1.1c-0.3,0-0.6-0.2-1-0.6c-0.4-0.4-0.6-0.7-0.6-0.9c0-0.1,0.4-0.2,1.1-0.3c0.5,0,1.1-0.3,1.8-0.6
		c0.7-0.4,1-0.6,1-0.6C473,4.1,473.1,4.2,473.1,4.4z"/>
	<path class="st0" d="M63.8,39.5c0.4,0,0.6,0.2,0.6,0.6c0,0.2-0.1,0.3-0.3,0.5c0,0-0.1,0.1-0.1,0.1c0.8,0.6,1.5,1.2,2.3,1.8
		c0.2,0,0.5,0.1,0.6,0.3c0.2,0.2,0.4,0.4,0.4,0.7c0,0.3-0.4,0.6-1.1,1c-3.7,2.4-7.2,4.2-10.5,5.3c-1.3,0.5-2.8,0.8-4.4,0.8
		c-0.4,0-0.7-0.1-1-0.4c-0.6-0.6-0.8-1.1-0.8-1.7c0-0.4,0.1-0.6,0.4-0.6c0.2,0,0.4,0.1,0.6,0.2c0.4,0.2,0.8,0.2,1.4,0.2
		c1.8,0,3.4-0.2,4.7-0.5c1-0.3,2-0.6,3.1-1.1c-0.6-0.6-1-1-1.3-1.1c-0.3-0.1-0.4-0.3-0.4-0.5c0-0.5,0.3-0.8,0.8-0.8
		c0,0,0.4,0.3,0.9,0.8c0.5,0.5,0.8,0.9,0.8,1.1c0.9-0.4,1.8-0.8,2.7-1.3c1.5-0.8,2.3-1.3,2.3-1.5c0-0.1-0.1-0.3-0.4-0.5
		c-0.7-0.4-1.3-0.8-1.9-1.2c-0.1-0.1-0.3-0.2-0.3-0.4c-2.2,1.3-4.1,2.3-5.9,3c-1.5,0.6-2.6,0.9-3.3,0.9c-0.4,0-0.7-0.1-1-0.4
		c-0.3-0.2-0.4-0.5-0.4-0.8c0-0.2,0.1-0.3,0.3-0.4c2.7-0.5,4.7-1,6.1-1.6c1.3-0.4,2.8-1.2,4.7-2.4C63.4,39.5,63.6,39.5,63.8,39.5z
		 M61.6,33.5c0.4,0,0.5,0.2,0.6,0.6c0,0.1,0,0.2-0.1,0.3c0.6,0.5,1.2,1,1.8,1.6c0.2,0,0.4,0.1,0.5,0.3c0.2,0.2,0.3,0.4,0.3,0.6
		c0,0.2-0.3,0.5-0.9,0.7c-2.8,1.8-5.4,3.1-7.9,3.9c-1,0.4-2.1,0.6-3.3,0.6c-0.2,0-0.5-0.1-0.7-0.4c-0.4-0.5-0.6-1-0.6-1.4
		c0-0.3,0.1-0.5,0.3-0.5c0.2,0,0.3,0.1,0.5,0.2c0.3,0.1,0.8,0.2,1.3,0.2c1.3,0,2.3-0.1,3.2-0.4c0.4-0.1,0.8-0.2,1.1-0.4
		c-0.5-0.5-0.9-0.8-1.2-1c-0.3-0.1-0.4-0.3-0.4-0.5c0-0.5,0.3-0.8,0.8-0.8c0.1,0,0.4,0.3,0.9,0.8c0.5,0.5,0.7,0.8,0.8,1.1
		c0.8-0.3,1.7-0.7,2.5-1.2c1-0.5,1.5-0.9,1.5-1.1c0-0.1-0.1-0.3-0.3-0.4c-0.4-0.4-0.9-0.8-1.3-1.1c-0.1-0.1-0.2-0.2-0.2-0.3
		c-1.8,0.9-3.4,1.5-4.9,2c-1.2,0.4-2.1,0.6-2.7,0.6c-0.4,0-0.7-0.1-0.9-0.4C52.2,37,52,36.7,52,36.5c0-0.2,0.1-0.3,0.3-0.4
		c2.2-0.3,3.9-0.6,5-1c1-0.3,2.3-0.8,3.8-1.5C61.3,33.5,61.4,33.5,61.6,33.5z"/>
	<path class="st0" d="M81.1,39.5c0-1.2-0.1-2.8-0.2-4.6c0-0.4,0.2-0.6,0.6-0.6c0.5,0,0.8,0.2,0.8,0.7c0,0.9,0.1,2.4,0.1,4.5
		c0.9,0,2,0.1,3.1,0.1c0-1.2,0-2.4,0-3.9c0-0.8,0.2-1.2,0.7-1.2c0.4,0,0.7,0.3,0.7,0.8c-0.1,1.6-0.2,3-0.2,4.4c0.1,0,0.2,0,0.2,0
		c1.5,0.1,2.7,0.2,3.8,0.2c0.5,0,1-0.1,1.7-0.2c0.1,0,0.2,0.2,0.2,0.5c0,0.5-0.2,1-0.6,1.6c-0.3,0.4-0.5,0.6-0.7,0.6
		c-0.4,0-1-0.2-1.6-0.5c-0.9-0.4-2-0.7-3-0.9c0,1.7,0.1,2.8,0.1,3.4c0,0.5-0.2,0.7-0.7,0.7c-0.4,0-1.1-0.1-2.1-0.1
		c-0.8,0-1.6,0.1-2.3,0.4c-0.5,0-0.7-0.3-0.7-0.8c0-1.1,0.1-2.2,0.1-3.2c0-0.2,0-0.5,0-0.7c-1.1,0-2.2,0.1-3.3,0.2
		c0,2.1-0.1,4.4-0.1,6.8c0,0.3,0.1,0.4,0.4,0.4h8.5c0.3,0,1,0,2-0.1c0.3,0,0.5,0.2,0.5,0.5c0,0.2-0.1,0.5-0.4,0.7
		c-0.3,0.3-0.6,0.4-1,0.4c-1.6-0.1-3.5-0.2-5.5-0.2c-2.1,0-3.8,0.1-5.2,0.2c-0.7,0-1-0.3-1-0.9c0.2-2.8,0.4-5.1,0.4-6.8
		c0-0.2,0-0.5,0-0.7c-1,0.2-2.4,0.6-4.1,1.4c-0.6,0-0.8-0.2-0.8-0.6c0-0.3,0.1-0.5,0.4-0.7c0.3-0.3,0.7-0.5,1.2-0.5
		c1.2-0.2,2.4-0.4,3.4-0.6c0-1.5-0.1-3-0.2-4.5c0-0.5,0.3-0.7,0.8-0.7c0.6,0,0.9,0.4,0.9,1.1c0,1.3,0,2.6,0,3.9
		C79,39.6,80.1,39.5,81.1,39.5z M82.4,40.7c0,0.9,0,1.9,0,3c0,0.3,0.1,0.4,0.4,0.4c0.4-0.1,0.9-0.2,1.3-0.2c0.3,0,0.7,0,1,0.1
		c0.3,0,0.5-0.1,0.5-0.4c0-0.8-0.1-1.7-0.1-2.7C84.6,40.8,83.5,40.7,82.4,40.7z"/>
	<path class="st0" d="M102.2,33.6c0.4,0,0.6,0.2,0.6,0.5c0,0.2-0.1,0.5-0.2,0.7c-0.7,0.8-1.4,1.6-2.2,2.3c0.1,0.1,0.1,0.3,0.1,0.6
		c-0.1,1.4-0.1,2.6-0.1,3.7l0.1,7.6c0,1-0.3,1.5-0.8,1.5c-0.4,0-0.6-0.5-0.6-1.5c0-3.2,0.1-5.8,0.1-7.6c0-0.9,0-2,0-3.1
		c-0.2,0.2-0.4,0.3-0.6,0.5c-0.6,0.4-1.1,0.7-1.6,0.7c-0.4,0-0.7-0.1-1.1-0.4c-0.4-0.3-0.6-0.6-0.6-0.9c0-0.2,0.2-0.4,0.5-0.4
		c1.2-0.3,2.2-0.7,3.2-1.3c1-0.6,2-1.4,2.9-2.5C102,33.7,102.1,33.6,102.2,33.6z M103,39.6h4.1c-0.1-0.7-0.2-1.5-0.2-2.3
		c-0.1-1.4-0.1-2.4-0.1-2.8c0-0.4,0.2-0.6,0.6-0.6c0.5,0,0.7,0.3,0.7,0.7v0.8c0,1.8,0.1,3.2,0.2,4.2h6.1c0.2,0,0.4,0.1,0.4,0.3
		c0,0.3-0.1,0.6-0.3,0.8c-0.2,0.2-0.5,0.3-0.8,0.3c-0.3,0-1-0.1-2.1-0.2c-1,0-2-0.1-3.1-0.1c0.3,1.1,0.6,2.1,1.2,2.9
		c0.8,1.4,1.8,2.5,3,3.2c0.8,0.6,2,1,3.4,1.3c0.2,0,0.4,0.2,0.4,0.5c0,0.3-0.2,0.7-0.5,1c-0.4,0.4-0.7,0.6-1.1,0.6
		c-0.3,0-0.8-0.2-1.3-0.6c-1.3-0.8-2.5-1.8-3.6-3.1c-1-1.2-1.7-2.5-2.2-4c-0.2-0.5-0.4-1.1-0.5-1.8c-1.7,0-2.9,0.1-3.7,0.2
		c-0.5,0.1-0.9,0.2-1,0.2c-0.5,0-0.8-0.3-0.8-0.7c0-0.2,0.2-0.4,0.4-0.6C102.4,39.7,102.7,39.6,103,39.6z M113.2,34.3
		c0.5,0,0.7,0.2,0.7,0.7c0,0.3,0,0.5-0.1,0.6c-1.4,1-2.1,1.5-2.3,1.5c-0.3,0-0.5-0.1-0.5-0.4c0-0.1,0.4-0.8,1.3-2.1
		C112.6,34.4,112.8,34.3,113.2,34.3z"/>
	<path class="st0" d="M127.4,42c0,0.6-0.2,1.2-0.7,1.6c-0.5,0.4-1.1,0.6-1.7,0.6c-0.7,0-1.2-0.2-1.6-0.6c-0.4-0.4-0.7-0.9-0.7-1.6
		c0-0.7,0.2-1.2,0.6-1.6c0.4-0.4,1-0.6,1.7-0.6c0.6,0,1.2,0.2,1.7,0.5C127.1,40.9,127.4,41.4,127.4,42z"/>
	<path class="st0" d="M148.8,39.5c0.4,0,0.6,0.2,0.6,0.6c0,0.2-0.1,0.3-0.3,0.5c0,0-0.1,0.1-0.1,0.1c0.8,0.6,1.5,1.2,2.3,1.8
		c0.2,0,0.5,0.1,0.6,0.3c0.2,0.2,0.4,0.4,0.4,0.7c0,0.3-0.4,0.6-1.1,1c-3.7,2.4-7.2,4.2-10.5,5.3c-1.3,0.5-2.8,0.8-4.4,0.8
		c-0.4,0-0.7-0.1-1-0.4c-0.6-0.6-0.8-1.1-0.8-1.7c0-0.4,0.1-0.6,0.4-0.6c0.2,0,0.4,0.1,0.6,0.2c0.4,0.2,0.8,0.2,1.4,0.2
		c1.8,0,3.4-0.2,4.7-0.5c1-0.3,2-0.6,3.1-1.1c-0.6-0.6-1-1-1.3-1.1c-0.3-0.1-0.4-0.3-0.4-0.5c0-0.5,0.3-0.8,0.8-0.8
		c0,0,0.4,0.3,0.9,0.8c0.5,0.5,0.8,0.9,0.8,1.1c0.9-0.4,1.8-0.8,2.7-1.3c1.5-0.8,2.3-1.3,2.3-1.5c0-0.1-0.1-0.3-0.4-0.5
		c-0.7-0.4-1.3-0.8-1.9-1.2c-0.1-0.1-0.3-0.2-0.3-0.4c-2.2,1.3-4.1,2.3-5.9,3c-1.5,0.6-2.6,0.9-3.3,0.9c-0.4,0-0.7-0.1-1-0.4
		c-0.3-0.2-0.4-0.5-0.4-0.8c0-0.2,0.1-0.3,0.3-0.4c2.7-0.5,4.7-1,6.1-1.6c1.3-0.4,2.8-1.2,4.7-2.4C148.5,39.5,148.7,39.5,148.8,39.5
		z M146.7,33.5c0.4,0,0.5,0.2,0.6,0.6c0,0.1,0,0.2-0.1,0.3c0.6,0.5,1.2,1,1.8,1.6c0.2,0,0.4,0.1,0.5,0.3c0.2,0.2,0.3,0.4,0.3,0.6
		c0,0.2-0.3,0.5-0.9,0.7c-2.8,1.8-5.4,3.1-7.9,3.9c-1,0.4-2.1,0.6-3.3,0.6c-0.2,0-0.5-0.1-0.7-0.4c-0.4-0.5-0.6-1-0.6-1.4
		c0-0.3,0.1-0.5,0.3-0.5c0.2,0,0.3,0.1,0.5,0.2c0.3,0.1,0.8,0.2,1.3,0.2c1.3,0,2.3-0.1,3.2-0.4c0.4-0.1,0.8-0.2,1.1-0.4
		c-0.5-0.5-0.9-0.8-1.2-1c-0.3-0.1-0.4-0.3-0.4-0.5c0-0.5,0.3-0.8,0.8-0.8c0.1,0,0.4,0.3,0.9,0.8c0.5,0.5,0.7,0.8,0.8,1.1
		c0.8-0.3,1.7-0.7,2.5-1.2c1-0.5,1.5-0.9,1.5-1.1c0-0.1-0.1-0.3-0.3-0.4c-0.4-0.4-0.9-0.8-1.3-1.1c-0.1-0.1-0.2-0.2-0.2-0.3
		c-1.8,0.9-3.4,1.5-4.9,2c-1.2,0.4-2.1,0.6-2.7,0.6c-0.4,0-0.7-0.1-0.9-0.4c-0.3-0.2-0.4-0.5-0.4-0.8c0-0.2,0.1-0.3,0.3-0.4
		c2.2-0.3,3.9-0.6,5-1c1-0.3,2.3-0.8,3.8-1.5C146.3,33.5,146.5,33.5,146.7,33.5z"/>
	<path class="st0" d="M158.2,34c0.2,0,0.5,0,0.7,0.1c0.2,0.1,0.6,0.1,1.1,0.1h7.5c1.7,0,3.7,0,6,0.1c0.3,0,0.6-0.1,1-0.2
		c0.5,0,0.7,0.3,0.7,0.9c0,0,0,0.2-0.1,0.5c-0.1,0.5-0.2,1.3-0.2,2.6c-0.1,1.6-0.1,3.4-0.1,5.3c0,1.4,0,3.4,0.1,5.9
		c0,0.6-0.2,0.9-0.6,0.9c-3-0.1-5.7-0.2-8.1-0.2c-3,0-4.9,0-5.7,0.1c-0.7,0-1.5,0.1-2.5,0.2c-0.4,0-0.7-0.3-0.7-0.8
		c0.1-2.6,0.2-4.9,0.2-6.8c0-2.1-0.1-4.7-0.2-7.8C157.4,34.3,157.7,34,158.2,34z M166.2,48.6c2.1,0,4.4,0,6.9,0.1
		c0.2,0,0.4-0.1,0.4-0.4c0-5.8,0-10,0.1-12.6c0-0.2-0.1-0.3-0.4-0.3c-3.1-0.1-7.7-0.1-13.7-0.1c-0.3,0-0.5,0.2-0.5,0.5
		c0,4.3-0.1,8.4-0.2,12.3c0,0.4,0.2,0.6,0.6,0.6C161.4,48.7,163.7,48.6,166.2,48.6z M161.2,38.6c0.2,0,0.3,0,0.5,0.1
		c1.7-0.2,3.1-0.3,4.4-0.3c0.5,0,1.2,0,2,0.1c0-0.6,0-1.1,0-1.3c0-0.6,0.2-0.9,0.7-0.9s0.7,0.3,0.7,0.8c0,0.1,0,0.3-0.1,0.5
		c-0.1,0.4-0.1,0.7-0.1,1.1c0.1,0,0.3,0,0.4,0c0.3,0,0.5,0,0.7,0s0.5,0,1-0.1c0.4-0.1,0.6-0.2,0.7-0.2c0.2,0,0.3,0.1,0.3,0.2
		c0,0.4-0.2,0.8-0.6,1.3c-0.4,0.5-0.7,0.7-1.1,0.7c-0.2,0-0.5-0.1-1-0.3c-0.1,0-0.3-0.1-0.5-0.1c0,1.8,0.1,3.3,0.1,4.3
		c0,1.5-0.4,2.4-1.3,2.8c-0.6,0.2-1.1,0.4-1.6,0.4c-0.3,0-0.6-0.1-0.9-0.3c-0.3-0.3-0.4-0.6-0.4-0.9c0-0.2,0.1-0.3,0.4-0.4
		c1-0.1,1.6-0.2,1.9-0.4c0.3-0.2,0.5-0.5,0.6-0.8c0.1-0.4,0.1-1,0.1-2c0-1,0-1.9-0.1-2.9c-0.6-0.1-1.3-0.1-2.1-0.1
		c-2,0-3.5,0.1-4.2,0.4c-0.4,0.1-0.7,0.2-0.9,0.2c-0.4,0-0.6-0.2-0.6-0.6c0-0.2,0.1-0.5,0.3-0.7C160.8,38.7,161,38.6,161.2,38.6z
		 M164.8,41.9c0.2,0,0.3,0.1,0.3,0.3c0,0.1-0.1,0.3-0.2,0.5c-1.6,1.6-2.6,2.4-2.8,2.4c-0.6,0-0.8-0.2-0.8-0.5c0-0.4,0.1-0.7,0.3-0.8
		C161.5,43.6,162.6,43,164.8,41.9z"/>
	<path class="st0" d="M185.6,33.7c0.4,0,0.6,0.2,0.6,0.5c0,0.2-0.1,0.4-0.2,0.7c-0.6,0.8-1.3,1.6-2.1,2.4c0.2,0.1,0.3,0.4,0.3,0.8
		c-0.1,1.3-0.1,2.5-0.1,3.6l0.1,7.4c0,1-0.3,1.5-0.8,1.5c-0.4,0-0.6-0.5-0.6-1.5c0-3.2,0.1-5.6,0.1-7.4c0-1,0-2.1-0.1-3.3
		c-0.2,0.2-0.4,0.4-0.6,0.5c-0.6,0.5-1.1,0.7-1.5,0.7c-0.4,0-0.7-0.2-1.1-0.5c-0.4-0.3-0.6-0.6-0.6-0.9c0-0.2,0.2-0.3,0.5-0.4
		c1.1-0.3,2.1-0.7,3-1.4c1-0.6,1.9-1.5,2.7-2.6C185.4,33.8,185.5,33.7,185.6,33.7z M187.8,37.7h4c0-0.9,0-1.9-0.1-3
		c0-0.6,0.2-0.9,0.7-0.9c0.5,0,0.7,0.3,0.7,0.9c0,1.1-0.1,2.1-0.1,3h5c0.2,0,0.4,0.1,0.4,0.3c0,0.3-0.1,0.6-0.3,0.8
		c-0.2,0.2-0.5,0.3-0.8,0.3c-0.3,0-0.9-0.1-1.8-0.2c-0.8,0-1.6,0-2.5,0c0.2,0.1,0.5,0.4,0.9,0.8c2.8,2.9,4.5,4.5,5.2,4.9
		c0.4,0.2,1,0.4,1.6,0.5c0.3,0,0.5,0.1,0.5,0.4c0,0.3-0.2,0.6-0.7,0.9c-0.5,0.3-1,0.5-1.5,0.5c-0.4,0-0.7-0.1-1-0.4
		c-1.1-1.6-2.3-3.2-3.6-4.9c-0.4-0.5-0.8-0.8-1.1-1.1l0.1,5.7h3c0.2,0,0.3,0.1,0.3,0.2c0,0.3-0.1,0.5-0.3,0.7
		c-0.2,0.2-0.4,0.3-0.8,0.3c-0.2,0-0.5,0-1.2-0.1c-0.4,0-0.7,0-1.1,0l0,1.9c0,1-0.3,1.5-0.8,1.5c-0.4,0-0.6-0.5-0.6-1.5
		c0-0.7,0-1.3,0-1.9c-1,0-1.7,0-2.2,0.1c-0.3,0.1-0.5,0.1-0.6,0.1c-0.4,0-0.6-0.2-0.7-0.6c0-0.2,0.1-0.4,0.4-0.6
		c0.2-0.1,0.4-0.2,0.8-0.2h2.4c0-2.2,0-4.1,0-5.6c-1,1.8-1.7,3.1-2.3,3.7c-0.8,1-1.8,1.8-2.8,2.4c-0.3,0.2-0.5,0.3-0.7,0.3
		c-0.5,0-0.8-0.1-1.1-0.4c-0.3-0.2-0.4-0.5-0.4-0.8c0-0.2,0.1-0.3,0.4-0.3c1.1-0.3,2-0.7,2.7-1.2c0.6-0.4,1.2-1,1.8-1.8
		c0.6-0.8,1.3-1.9,2.1-3.5c-1.4,0-2.5,0.1-3.2,0.2c-0.5,0.1-0.8,0.2-0.9,0.2c-0.5,0-0.8-0.3-0.8-0.7c0-0.2,0.2-0.4,0.4-0.6
		C187.1,37.7,187.4,37.7,187.8,37.7z"/>
	<path class="st0" d="M204.8,39.9c0.9,0,1.7,0.1,2.5,0.2c0.3-0.1,0.5-0.2,0.7-0.2c0.6,0,0.8,0.2,0.8,0.7c0,0.2-0.1,0.4-0.3,0.6
		c-0.5,0.8-0.9,1.6-1.2,2.4c-0.3,0.8-0.5,1.7-0.6,2.7c0.8,0.1,2.2,0.2,4.3,0.5c5.1,0.6,8.6,1,10.5,1c0.7,0,1.2-0.1,1.7-0.2
		c0.3-0.1,0.5-0.1,0.6-0.1c0.1,0,0.2,0.1,0.2,0.4c0,0.4-0.2,1-0.7,1.6c-0.4,0.6-0.8,0.9-1.2,0.9c-0.4,0-0.8-0.1-1.2-0.2
		c-5.3-1.2-8.9-1.9-10.9-2.3c-1.7-0.3-2.8-0.5-3.2-0.5c-0.6,0-1.3,0.5-2.1,1.5c-0.2,0.3-0.5,0.4-0.7,0.4c-0.4,0-0.6-0.2-0.6-0.6
		c0-0.2,0.5-0.8,1.6-1.9c0.2-0.2,0.4-0.4,0.6-0.5c0.4-2,0.8-3.7,1.4-5.2c0-0.1,0-0.2-0.1-0.2c-0.1,0-0.2,0-0.2,0
		c-0.7,0-1.3,0-1.9,0.1c-0.2,0-0.5,0.1-0.7,0.2c-0.4,0-0.6-0.2-0.6-0.6C203.4,40.2,203.9,39.9,204.8,39.9z M205.2,34.3l3.4,1.6
		c0.3,0.1,0.4,0.3,0.4,0.6c0,0.2-0.2,0.3-0.5,0.3l-3.4-0.7c-0.5-0.1-0.7-0.5-0.7-1.1C204.4,34.5,204.7,34.3,205.2,34.3z M211.5,35h4
		c0-0.3,0-0.6,0-0.8c0-0.6,0.2-0.8,0.6-0.8c0.4,0,0.6,0.3,0.6,0.8c0,0.3,0,0.6,0,0.8h5c0.2,0,0.3,0.1,0.3,0.2c0,0.3-0.1,0.5-0.3,0.7
		c-0.2,0.2-0.4,0.3-0.8,0.3c-0.2,0-0.8,0-1.8-0.1c-0.8,0-1.6,0-2.5,0c0,0.4,0,0.8,0,1.1h0.3c0.7,0,1.6,0,2.6,0.1
		c0.2,0,0.5-0.1,0.8-0.2c0.4,0,0.6,0.3,0.6,0.8l0,0.1c-0.1,0.2-0.1,0.5-0.1,0.9c-0.1,0.6-0.1,1.2-0.1,1.8c0,0.4,0,0.9,0.1,1.5
		c0,0.5-0.2,0.8-0.6,0.8c-1.3-0.1-2.5-0.2-3.5-0.2v1.1h5.3c0.2,0,0.4,0.1,0.4,0.3c0,0.3-0.1,0.6-0.3,0.8c-0.2,0.2-0.5,0.3-0.8,0.3
		c-0.3,0-0.9-0.1-2-0.2c-0.8,0-1.6-0.1-2.5-0.1v0.6c0,0.9-0.2,1.3-0.7,1.3c-0.4,0-0.6-0.4-0.6-1.3c0-0.2,0-0.4,0-0.7
		c-1.9,0-3.2,0.1-4.1,0.2c-0.5,0.1-0.8,0.2-1,0.2c-0.5,0-0.7-0.2-0.8-0.6c0-0.2,0.2-0.4,0.4-0.6c0.2-0.1,0.5-0.2,0.8-0.2h4.6
		c0-0.4,0-0.8,0-1.1c-1.1,0-1.8,0-2.2,0c-0.4,0-0.8,0.1-1.3,0.1c-0.4,0-0.6-0.2-0.6-0.7c0.1-0.9,0.2-1.7,0.2-2.4
		c0-0.6-0.1-1.4-0.2-2.3c0-0.4,0.2-0.7,0.6-0.7c0.2,0,0.5,0,0.7,0.1c0.2,0.1,0.6,0.1,1,0.1h1.9c0-0.4,0-0.7,0-1.1
		c-1.6,0-2.8,0.1-3.6,0.2c-0.5,0.1-0.8,0.1-0.9,0.1c-0.4,0-0.6-0.2-0.6-0.6c0-0.2,0.1-0.4,0.3-0.6C210.9,35.1,211.2,35,211.5,35z
		 M215.5,41.8c0-0.4,0-0.9,0-1.3c-1,0-1.9,0.1-2.6,0.1c0,0-0.1,0-0.1,0c0,0.3-0.1,0.6-0.1,0.8c0,0.3,0.2,0.4,0.6,0.4
		C213.9,41.9,214.7,41.8,215.5,41.8z M212.9,39.6C212.9,39.6,213,39.6,212.9,39.6h2.6c0-0.4,0-0.8,0-1.2c-0.7,0-1.4,0-2.1,0
		c-0.3,0-0.5,0.2-0.5,0.5C212.9,39.1,212.9,39.3,212.9,39.6z M216.6,38.4l0,1.2h2.8c0,0,0.1,0,0.1,0v-0.8c0-0.2-0.1-0.3-0.2-0.3
		C218.6,38.4,217.7,38.4,216.6,38.4z M216.7,40.5l0,1.3c0.8,0,1.6,0,2.5,0.1c0.3,0,0.4-0.1,0.4-0.3v-1.1
		C218.5,40.5,217.5,40.5,216.7,40.5z"/>
	<path class="st0" d="M227.8,37.1h2.7c0-0.9,0-1.8,0-2.7c0-0.7,0.3-1,0.8-1c0.5,0,0.7,0.2,0.7,0.7c0,0.1,0,0.4-0.1,0.7
		c0,0.4-0.1,0.7-0.1,0.9c0,0.5,0,0.9,0,1.3h2.3c0.2,0,0.3,0.1,0.3,0.3c0,0.3-0.1,0.5-0.2,0.7c-0.2,0.2-0.5,0.3-0.8,0.3
		c-0.2,0-0.5,0-1.1-0.1c-0.1,0-0.3,0-0.5,0c0,1.2,0,2.4,0.1,3.4c0.8-0.2,1.4-0.4,1.9-0.5c0.3,0,0.4,0.1,0.4,0.4
		c0,0.4-0.2,0.6-0.5,0.6c-0.6,0.2-1.2,0.4-1.8,0.7c0,1.6,0.1,2.7,0.1,3.6c0,1.4-0.3,2.4-1,3.1c-0.5,0.5-1.2,0.8-1.9,0.8
		c-0.4,0-0.7-0.1-1-0.4c-0.2-0.2-0.3-0.5-0.3-0.7c0-0.2,0.2-0.4,0.5-0.5c1.1-0.3,1.8-0.6,2-1.1c0.2-0.4,0.3-0.9,0.3-1.6
		c0-0.9,0-1.8,0-2.7c-1.2,0.5-2.2,1-3.3,1.6c-0.5,0-0.7-0.2-0.7-0.6c0-0.4,0.1-0.6,0.2-0.8c0.1-0.2,0.3-0.4,0.6-0.5
		c1.2-0.4,2.3-0.8,3.2-1.1c0-1.1,0-2.3,0-3.4c0-0.1,0-0.3,0-0.5c0,0-0.1,0-0.1,0c-1.2,0-2,0.1-2.5,0.2c-0.3,0.1-0.5,0.2-0.6,0.2
		c-0.4,0-0.7-0.2-0.7-0.6c0-0.2,0.1-0.5,0.4-0.6C227.2,37.2,227.4,37.1,227.8,37.1z M236.3,43.7h6.9c0.1,0,0.2,0,0.4-0.1
		c0.1-0.1,0.3-0.1,0.5-0.1c0.4,0,0.6,0.3,0.6,0.7c0,0.1-0.1,0.2-0.3,0.3c-0.4,0.3-1,0.7-1.6,1.4c0,0.1,0.1,0.2,0.2,0.2h2.5
		c0.1,0,0.3,0,0.4,0c0.2,0,0.3,0,0.4,0c0.4,0,0.6,0.2,0.6,0.6c0,0,0,0.1-0.1,0.2c-0.1,0.1-0.2,0.3-0.3,0.4c-0.5,1-1,1.7-1.5,2.2
		c-0.4,0.4-0.8,0.7-1.4,0.9c-0.4,0.1-0.7,0.2-0.9,0.2c-0.4,0-0.7-0.2-1-0.5c-0.3-0.3-0.4-0.5-0.5-0.7c0-0.2,0.1-0.3,0.3-0.4
		c0.6,0,1.1-0.1,1.5-0.2c0.5-0.1,0.8-0.2,1.1-0.4c0.3-0.1,0.7-0.4,1.2-1c0-0.1-0.1-0.2-0.3-0.2c-1.9,0-3,0-3.2,0.1
		c-0.1,0.1-0.3,0.1-0.4,0.1c-0.4,0-0.6-0.2-0.6-0.6c0-0.1,0.1-0.2,0.2-0.4c0.4-0.5,0.8-1,1.3-1.5c0-0.1-0.1-0.1-0.2-0.1
		c-0.9,0-1.8,0-2.6,0c0,0,0,0.1,0,0.2c0,0-0.1,0.1-0.1,0.2c-0.3,0.8-0.7,1.7-1.3,2.7c-0.7,0.9-1.4,1.6-2.1,2.1
		c-0.5,0.3-0.9,0.5-1.2,0.5c-0.3,0-0.5-0.1-0.8-0.3c-0.4-0.3-0.6-0.6-0.6-1c0-0.3,0.2-0.4,0.7-0.5c0.9-0.1,1.7-0.5,2.4-1.2
		c0.7-0.7,1.2-1.6,1.6-2.6c-0.4,0-0.7,0-1.1,0c-0.8,0.1-1.2,0.2-1.3,0.2c-0.4,0-0.7-0.2-0.7-0.6c0-0.2,0.1-0.3,0.3-0.5
		C235.9,43.8,236.1,43.7,236.3,43.7z M238.5,33.7c0.4,0,0.6,0.2,0.6,0.5c0,0.1-0.1,0.2-0.2,0.5c-0.3,0.4-0.5,0.7-0.7,1.1
		c0,0,0.1,0,0.1,0h8.6c0.2,0,0.3,0.1,0.3,0.2c0,0.3-0.1,0.5-0.3,0.7c-0.2,0.2-0.5,0.3-0.8,0.3c-0.2,0-0.7,0-1.5-0.1
		c-0.7,0-1.4,0-2.2,0v0.9h3.6c0.2,0,0.3,0.1,0.3,0.2c0,0.2-0.1,0.5-0.2,0.6c-0.2,0.2-0.4,0.3-0.7,0.3c-0.2,0-0.7,0-1.4-0.1
		c-0.5,0-1,0-1.6,0l0,1h3.6c0.2,0,0.3,0.1,0.3,0.2c0,0.2-0.1,0.5-0.2,0.6c-0.2,0.2-0.4,0.3-0.7,0.3c-0.2,0-0.6,0-1.4-0.1
		c-0.5,0-1,0-1.6,0l0,1c0.5,0,1.1,0.1,1.6,0.1c0.8,0,1.3,0.1,1.5,0.1c0.7,0,1.4-0.1,2-0.2c0.2-0.1,0.4-0.1,0.5-0.1
		c0.1,0,0.2,0.2,0.2,0.5c0,0.3-0.1,0.7-0.4,1.1c-0.3,0.3-0.5,0.5-0.7,0.5c-0.3,0-0.6-0.1-0.9-0.2c-0.6-0.2-1.2-0.4-1.9-0.5
		c-1.1-0.2-2.3-0.2-3.4-0.2s-2.2,0.1-3.2,0.3c-0.1,0.1-0.3,0.2-0.6,0.2c-0.4,0-0.6-0.3-0.6-0.8c0.1-0.8,0.1-1.5,0.1-2.3
		c0-0.6,0-1.3-0.1-2.2c-0.2,0.1-0.4,0.2-0.6,0.2c-0.2,0-0.5-0.1-0.9-0.3c-0.3-0.2-0.4-0.4-0.5-0.6c0-0.1,0.1-0.1,0.2-0.2
		c0.6-0.2,1.1-0.5,1.6-0.9c0.6-0.5,1.3-1.1,2-2C238.3,33.8,238.4,33.7,238.5,33.7z M241.1,37.7l0-0.9c-1.1,0-2,0.1-2.5,0.1
		c-0.4,0.1-0.7,0.1-0.8,0.1c0,0,0,0-0.1,0c0,0.2,0,0.4,0,0.7c0.1,0,0.2,0,0.2,0H241.1z M241.2,39.6l0-1c-1.3,0-2.2,0-2.8,0.1
		c-0.2,0-0.4,0.1-0.6,0.1c0,0.3,0,0.6,0,0.9c0.1,0,0.2,0,0.3,0H241.2z M241.2,41.5v-0.9c-1.2,0-2.2,0-2.7,0.1
		c-0.3,0-0.5,0.1-0.6,0.1c0,0.2,0,0.4,0,0.6c0,0.1,0,0.1,0,0.2c1.1,0,2.1-0.1,3-0.1C241,41.5,241.1,41.5,241.2,41.5z M242.7,33.7
		c0.4,0,0.6,0.2,0.6,0.5c0,0.3,0,0.5-0.1,0.6c-0.9,0.6-1.4,0.9-1.5,0.9c-0.2,0-0.4-0.1-0.4-0.3c0,0,0.2-0.5,0.7-1.4
		C242.2,33.8,242.4,33.7,242.7,33.7z"/>
	<path class="st0" d="M257.6,49.4c0,0.3-0.3,0.6-0.9,1c-0.6,0.4-1,0.6-1.3,0.6s-0.6-0.3-1-0.8c-0.8-1.2-1.7-2.3-2.4-3.1
		c-0.7-0.8-1-1.3-1-1.5c0-0.3,0.2-0.4,0.5-0.4c0.2,0,1.5,0.9,3.8,2.8c0.5,0.4,1.2,0.8,2.1,1.2C257.4,49.1,257.5,49.3,257.6,49.4z"/>
	<path class="st0" d="M265.8,38.6h2l0-3.9c0-0.6,0.2-0.8,0.7-0.8c0.6,0,0.9,0.3,0.9,0.8l-0.1,3.9h2.4c0.2,0,0.3,0.1,0.3,0.3
		c0,0.2-0.1,0.5-0.3,0.6c-0.2,0.2-0.5,0.3-0.8,0.3c-0.1,0-0.5,0-1-0.1c-0.2,0-0.5,0-0.7,0l-0.1,4.6c1.1-0.2,2-0.4,2.6-0.5
		c0.3,0,0.4,0.1,0.4,0.4c0,0.4-0.2,0.6-0.5,0.7c-2.3,0.6-4.4,1.3-6.3,2.1c-0.5,0-0.7-0.2-0.7-0.6c0-0.4,0.1-0.6,0.2-0.8
		c0.1-0.2,0.3-0.3,0.6-0.4c0.9-0.2,1.7-0.4,2.4-0.6l0-4.9c-0.9,0-1.5,0.1-1.9,0.2c-0.3,0.1-0.5,0.2-0.6,0.2c-0.4,0-0.7-0.2-0.7-0.6
		c0-0.2,0.1-0.4,0.4-0.6C265.2,38.7,265.5,38.6,265.8,38.6z M283.9,38.1c0.5,0,0.7,0.3,0.7,0.8c0,0.1-0.1,0.3-0.2,0.5
		c-0.3,0.7-0.8,1.9-1.5,3.8c-0.1,0.4-0.3,0.6-0.7,0.6c-0.4,0-0.6-0.2-0.6-0.5c0.1-0.7,0.5-1.8,1-3.4c0-0.1-0.1-0.2-0.4-0.2
		c-0.2,0-0.6,0-1.1,0.1c-0.6,0.1-1.2,0.2-1.7,0.3l0,3.7c0,0.9-0.2,1.4-0.7,1.4c-0.4,0-0.6-0.5-0.6-1.4c0-1.3,0-2.4,0-3.4
		c-0.9,0.2-1.7,0.4-2.4,0.6c0,1.7-0.1,3.7-0.1,5.8c0,0.4,0.2,0.6,0.6,0.7c0.8,0.1,2.7,0.1,5.9,0.1c1.5,0,2.8-0.2,4-0.6
		c0.2,0,0.3,0.2,0.3,0.5c0,0.4-0.1,0.9-0.4,1.4c-0.3,0.6-0.6,0.9-0.8,0.9c-0.4,0-3.6-0.3-9.6-0.9c-0.9-0.1-1.4-0.5-1.4-1.1
		c0.1-2.6,0.2-4.6,0.2-6c0-0.1,0-0.3,0-0.4c-0.5,0.2-1,0.4-1.6,0.6c-0.6,0-0.8-0.2-0.8-0.6c0-0.3,0.1-0.5,0.3-0.8
		c0.1-0.2,0.4-0.3,0.7-0.3c0.5-0.1,1-0.2,1.5-0.4c0-1,0-2.1-0.1-3.2c0-0.4,0.2-0.6,0.7-0.6c0.6,0,0.8,0.3,0.8,0.8c0,0.8,0,1.7,0,2.7
		c0.9-0.2,1.7-0.4,2.4-0.5c0-0.6,0-1.1,0-1.6c0-0.9,0-2-0.1-3.1c0-0.6,0.2-0.8,0.7-0.8c0.4,0,0.6,0.3,0.6,0.8
		c-0.1,1.2-0.1,2.2-0.1,3.1l0,1.4c1-0.2,1.9-0.3,2.7-0.4c0.5-0.1,0.8-0.2,1.1-0.3C283.5,38.2,283.7,38.1,283.9,38.1z"/>
	<path class="st0" d="M290.4,38.8h2l-0.1-3.3c0-0.6,0.2-0.8,0.7-0.8c0.6,0,0.9,0.3,0.9,0.8l0,3.3h2.2c0.2,0,0.3,0.1,0.3,0.3
		c0,0.3-0.1,0.5-0.3,0.7c-0.2,0.2-0.5,0.3-0.8,0.3c-0.1,0-0.4,0-1-0.1c-0.2,0-0.4,0-0.5,0l-0.1,4.2c0.9-0.3,1.6-0.4,2.1-0.5
		c0.2,0,0.3,0.1,0.3,0.4c0,0.3-0.1,0.5-0.4,0.6c-2,0.7-4,1.6-5.7,2.5c-0.5,0-0.7-0.2-0.7-0.6c0-0.3,0.1-0.6,0.2-0.7
		c0.1-0.2,0.2-0.4,0.5-0.5c0.9-0.3,1.7-0.5,2.4-0.8l-0.1-4.6c-0.9,0-1.6,0.1-2,0.2c-0.3,0.1-0.5,0.2-0.6,0.2c-0.4,0-0.7-0.2-0.7-0.6
		c0-0.2,0.1-0.4,0.4-0.6C289.7,38.9,290,38.8,290.4,38.8z M302.7,45.1c0.2,0,0.3,0.1,0.3,0.4c0,0.3-0.1,0.5-0.4,0.6
		c-2,0.6-3.9,1.3-5.6,2.1c-0.5,0-0.7-0.2-0.7-0.6c0-0.3,0.1-0.6,0.2-0.7c0.1-0.2,0.2-0.3,0.5-0.4C299.7,45.7,301.7,45.2,302.7,45.1z
		 M297.8,36.7h6c0-0.9,0-1.8,0-2.6c0-0.4,0.2-0.6,0.6-0.6c0.4,0,0.6,0.2,0.6,0.6c0,0.9-0.1,1.8-0.1,2.6h4.5c0.2,0,0.4,0.1,0.4,0.3
		c0,0.3-0.1,0.6-0.3,0.8c-0.2,0.2-0.5,0.3-0.8,0.3c-0.3,0-1-0.1-2.1-0.2c-0.5,0-1.1,0-1.7,0c0,1.1,0.2,2.3,0.4,3.4
		c0.2,1.2,0.5,2.2,0.9,3.1c0.6-1,1.1-2.1,1.5-3.5c0-0.2,0.2-0.3,0.5-0.3c0.4,0,0.7,0.2,0.7,0.6c0,0-0.1,0.1-0.1,0.3
		c-0.4,1.2-1,2.5-1.8,4.1c0,0,0,0,0,0c0.1,0.2,0.2,0.4,0.3,0.5c0.8,1.2,1.8,1.9,3,2.3c0.2,0.1,0.4,0.3,0.4,0.5
		c0,0.2-0.2,0.5-0.6,0.8c-0.4,0.3-0.7,0.4-1,0.4c-0.3,0-0.6-0.1-1-0.4c-0.8-0.6-1.5-1.5-2.1-2.8c-0.6,0.7-1.2,1.3-1.9,1.8
		c-0.7,0.5-1.2,0.8-1.7,0.8c-0.3,0-0.5-0.1-0.8-0.3c-0.4-0.3-0.6-0.7-0.6-1c0-0.2,0.3-0.4,0.8-0.5c1.2-0.2,2.4-0.9,3.5-2
		c-0.1-0.2-0.1-0.3-0.2-0.5c-0.7-1.9-1-4-1.2-6.2c0-0.4,0-0.8,0-1.2c-0.3,0-0.6,0-0.9,0c-2.1,0-3.6,0.1-4.5,0.2
		c-0.5,0.1-0.9,0.2-1,0.2c-0.5,0-0.7-0.2-0.7-0.6c0-0.2,0.1-0.4,0.4-0.6C297.2,36.8,297.5,36.7,297.8,36.7z M297.8,39.8
		c0.2,0,0.4,0,0.6,0c0.2,0,0.5,0,0.9,0h1c0.2,0,0.5,0,0.8,0.1c0.2,0,0.5,0,0.7-0.1c0.4,0,0.7,0.2,0.7,0.6c0,0,0,0,0,0.1
		c-0.1,0.1-0.1,0.3-0.2,0.6c0,0.4-0.1,0.8-0.1,1.3c0,0.2,0,0.5,0.1,1c0,0.4-0.2,0.6-0.6,0.6c-0.8-0.1-1.4-0.2-2-0.2
		c-0.8,0-1.2,0-1.4,0.1c-0.2,0-0.4,0.1-0.6,0.2c-0.4,0-0.6-0.2-0.6-0.6c0.1-0.7,0.2-1.2,0.2-1.7c0-0.4-0.1-0.9-0.2-1.5
		C297.2,40.1,297.4,39.8,297.8,39.8z M299.8,43.1c0.3,0,0.6,0,1,0.1c0.2,0,0.4-0.1,0.4-0.4v-1.6c0-0.1-0.1-0.2-0.2-0.2
		c-0.4-0.1-1.1-0.1-2-0.1c-0.2,0-0.4,0.1-0.4,0.4c0,0.5-0.1,1-0.2,1.4c0,0.3,0.2,0.5,0.5,0.5C299.2,43.2,299.5,43.1,299.8,43.1z
		 M308.4,33.8c0.4,0,0.6,0.2,0.6,0.6c0,0.3,0,0.5-0.1,0.6c-1,0.7-1.6,1.1-1.7,1.1c-0.2,0-0.4-0.1-0.4-0.3c0-0.1,0.3-0.6,0.8-1.6
		C307.9,34,308.1,33.8,308.4,33.8z"/>
	<path class="st0" d="M318.1,40.9c0.2,0,0.4,0.1,0.4,0.3c0,0.3-0.1,0.5-0.3,0.6l-4.3,1.6c-0.6,0-0.8-0.2-0.8-0.7c0-0.6,0.2-1,0.6-1
		L318.1,40.9z M315.5,33.8c0.1,0,0.3,0.1,0.6,0.2c0.8,0.6,1.7,1.3,2.7,2c0.1,0.1,0.2,0.2,0.2,0.3c0,0.3-0.2,0.4-0.5,0.4
		c-0.1,0-0.2,0-0.5-0.1c-1.5-0.6-2.4-0.9-2.8-1.1c-0.4-0.3-0.7-0.6-0.7-1C314.6,34.1,314.9,33.8,315.5,33.8z M318.5,46.4
		c0.3,0,0.4,0.1,0.4,0.4c0,0.2-0.1,0.4-0.2,0.6c-1.6,1.8-2.5,2.6-2.7,2.6c-0.7,0-1-0.2-1-0.6c0-0.5,0.1-0.9,0.4-1
		C315.3,48.2,316.4,47.6,318.5,46.4z M330.8,34c0.3,0,0.5,0.1,0.5,0.4c0,0.3-0.1,0.5-0.4,0.6c-1.4,0.4-2.6,0.8-3.8,1.1l0,3.4
		c0.7,0,1.6,0,2.5,0.1c1,0,1.8,0.1,2.5,0.1c0.5,0,1-0.1,1.7-0.2c0.1,0,0.2,0.2,0.2,0.5c0,0.5-0.2,1-0.6,1.6
		c-0.3,0.4-0.5,0.6-0.7,0.6c-0.3,0-0.7-0.1-1.2-0.4c-0.7-0.4-1.5-0.6-2.4-0.8c-0.7-0.1-1.4-0.2-2.1-0.2l0,3.5h0c0.7,0,1.5,0,2.4,0.1
		c0.2,0,0.5-0.1,0.9-0.2c0.4,0,0.6,0.2,0.6,0.7c0,0,0,0.1,0,0.2c-0.1,0.2-0.1,0.5-0.2,0.9c0,0.6-0.1,1.2-0.1,1.8
		c0,0.4,0,0.9,0.1,1.6c0,0.5-0.2,0.8-0.6,0.8c-1.5-0.1-2.8-0.2-3.9-0.2c-1.4,0-2.2,0-2.6,0c-0.3,0-0.7,0.1-1.2,0.1
		c-0.4,0-0.6-0.2-0.6-0.7c0.1-0.9,0.2-1.7,0.2-2.4c0-0.6-0.1-1.4-0.2-2.4c0-0.4,0.2-0.6,0.6-0.6c0.2,0,0.5,0,0.7,0.1
		c0.2,0.1,0.6,0.1,1,0.1h1.6l0-3.5c-0.9,0-1.8,0.1-2.6,0.2c-0.6,0.1-1.5,0.4-2.7,1c-0.6,0-0.8-0.2-0.8-0.6c0-0.3,0.1-0.5,0.4-0.7
		c0.3-0.3,0.7-0.5,1.2-0.5c1.9-0.3,3.5-0.4,4.6-0.5l0-3c-0.4,0.1-0.8,0.2-1.2,0.2c-1.1,0.2-1.9,0.3-2.2,0.3c-0.4,0-0.8-0.2-1.2-0.5
		c-0.2-0.2-0.4-0.5-0.4-0.8c0-0.2,0.1-0.3,0.4-0.3c2.2,0,4.1-0.2,5.5-0.5c1.5-0.2,2.7-0.5,3.7-0.8C330.5,34,330.7,34,330.8,34z
		 M326.2,48.6c0.9,0,1.8,0,2.9,0.1c0.2,0,0.4-0.1,0.4-0.3v-3c0-0.2-0.1-0.3-0.2-0.3c-1.2,0-3.1-0.1-5.4-0.1c-0.3,0-0.5,0.2-0.5,0.5
		c0,1-0.1,1.9-0.2,2.8c0,0.3,0.2,0.4,0.6,0.4C324.5,48.7,325.3,48.6,326.2,48.6z"/>
	<path class="st0" d="M338.1,36.3c0.4,0,0.6,0.3,0.6,0.8c-0.1,0.7-0.1,1.3-0.1,1.8v3c0,0.9-0.2,1.4-0.7,1.4c-0.4,0-0.6-0.5-0.6-1.4
		c0.1-1.3,0.2-2.3,0.2-3c0-0.5,0-1.1-0.1-1.8C337.3,36.5,337.6,36.3,338.1,36.3z M340.9,33.5c0.5,0,0.7,0.3,0.7,0.9
		c-0.1,1.7-0.1,3.3-0.1,4.7l0.1,10c0,1-0.3,1.5-0.8,1.5c-0.4,0-0.6-0.5-0.6-1.5c0.1-4.3,0.1-7.6,0.1-10c0-1.4,0-2.9-0.1-4.7
		C340.1,33.8,340.4,33.5,340.9,33.5z M343.9,34.6c0.5,0,0.7,0.2,0.7,0.6l-1.4,3c-0.1,0.3-0.3,0.4-0.6,0.4c-0.2,0-0.4-0.2-0.4-0.5
		l0.9-3C343.3,34.8,343.5,34.6,343.9,34.6z M347.4,35.6c0.4,0,0.6,0.2,0.6,0.5c0,0.2-0.1,0.5-0.2,0.7c-0.2,0.5-0.4,1-0.7,1.5
		c0,0,0,0,0,0h3.1l0-3.6c0-0.6,0.2-0.8,0.7-0.8c0.6,0,0.9,0.3,0.9,0.8l0,3.6h4.5c0.2,0,0.4,0.1,0.4,0.3c0,0.3-0.1,0.6-0.3,0.8
		c-0.2,0.2-0.5,0.3-0.8,0.3c-0.2,0-0.8-0.1-1.6-0.2c-0.7,0-1.4-0.1-2.1-0.1l0,3.3h3.8c0.2,0,0.3,0.1,0.4,0.3c0,0.3-0.1,0.6-0.3,0.8
		c-0.2,0.2-0.5,0.3-0.9,0.3c-0.2,0-0.7-0.1-1.4-0.2c-0.5,0-1-0.1-1.6-0.1l0,3.6c0.8,0,1.6,0.1,2.5,0.2c1,0.1,1.9,0.1,2.8,0.1
		c0.4,0,0.8,0,1.1-0.1c0.1,0,0.1,0.1,0.1,0.3c0,0.4-0.1,0.9-0.4,1.3c-0.3,0.5-0.5,0.7-0.8,0.7s-0.5-0.1-0.8-0.3c-1.1-0.5-2-0.8-3-1
		c-0.7-0.1-1.6-0.2-2.6-0.2c-1.2,0-2.2,0.1-3.1,0.3c-0.9,0.2-1.8,0.6-2.7,1c-0.3,0.1-0.5,0.2-0.6,0.2c-0.4,0-0.6-0.3-0.6-0.7
		c0-0.3,0.1-0.5,0.3-0.7c0.2-0.2,0.5-0.3,0.8-0.4c2.5-0.4,4.4-0.7,5.6-0.7l-0.1-3.6c-1.3,0-2.2,0.1-2.8,0.2
		c-0.4,0.1-0.6,0.2-0.8,0.2c-0.4,0-0.7-0.2-0.7-0.6c0-0.2,0.1-0.4,0.4-0.6c0.2-0.1,0.5-0.2,0.8-0.2h3.1l0-3.3
		c-1.2,0-2.2,0.1-2.8,0.2c-0.4,0.1-0.7,0.2-0.8,0.2c-0.2,0-0.3,0-0.4-0.1c-0.2,0.3-0.4,0.6-0.6,0.8c-0.3,0.4-0.6,0.6-0.8,0.6
		c-0.3,0-0.7-0.1-1.1-0.4c-0.4-0.3-0.5-0.6-0.5-0.9c0-0.2,0.2-0.4,0.5-0.4c0.6-0.3,1.2-0.7,1.7-1.2c0.5-0.6,1-1.4,1.5-2.4
		C347.1,35.7,347.3,35.6,347.4,35.6z"/>
	<path class="st0" d="M368,33.7c0.4,0,0.6,0.2,0.6,0.5c0,0.2-0.1,0.4-0.2,0.7c-0.7,0.9-1.5,1.7-2.3,2.4c0.1,0.2,0.1,0.4,0.1,0.6
		c-0.1,1.3-0.1,2.5-0.1,3.6l0,7.4c0,1-0.3,1.5-0.9,1.5c-0.4,0-0.6-0.5-0.6-1.5c0.1-3.2,0.2-5.6,0.2-7.4c0-0.9,0-2,0-3.1
		c-0.3,0.2-0.5,0.4-0.8,0.6c-0.7,0.5-1.2,0.7-1.7,0.7c-0.3,0-0.7-0.2-1.1-0.5c-0.4-0.3-0.5-0.6-0.5-0.9c0-0.2,0.2-0.4,0.5-0.4
		c1.2-0.3,2.4-0.8,3.4-1.4c1.1-0.7,2.2-1.6,3.1-2.8C367.8,33.8,367.9,33.7,368,33.7z M377.7,38.1c0.6,0,0.9,0.3,0.9,0.9
		c0,0.3-0.2,0.5-0.6,0.7c-0.9,0.3-2.1,0.7-3.7,1.1c-1.1,0.3-1.8,0.5-2,0.5c0,0-0.1,0-0.1,0c0,1.6-0.1,3.4-0.1,5.3
		c0,0.4,0.2,0.6,0.5,0.6c0.6,0.1,2.2,0.1,4.7,0.1c1.6,0,3-0.2,4.3-0.6c0.2,0,0.3,0.2,0.3,0.5c0,0.4-0.2,0.9-0.5,1.5
		c-0.4,0.6-0.7,0.9-1,0.9c-0.4,0-3.2-0.3-8.5-0.9c-0.8-0.1-1.2-0.5-1.2-1.1c0.1-2.7,0.2-4.8,0.2-6.2c0-1.6,0-3.3-0.1-5.3
		c0-0.4,0.2-0.6,0.6-0.6c0.6,0,0.9,0.2,0.9,0.7c0,1.2,0,2.5,0,3.9c2.1-0.7,3.8-1.4,5-2C377.5,38.2,377.6,38.1,377.7,38.1z"/>
	<path class="st0" d="M391.5,49.4c0,0.3-0.3,0.6-0.9,1c-0.6,0.4-1,0.6-1.3,0.6c-0.3,0-0.6-0.3-1-0.8c-0.8-1.2-1.7-2.3-2.4-3.1
		c-0.7-0.8-1-1.3-1-1.5c0-0.3,0.2-0.4,0.5-0.4c0.2,0,1.5,0.9,3.8,2.8c0.5,0.4,1.2,0.8,2.1,1.2C391.3,49.1,391.4,49.3,391.5,49.4z"/>
	<path class="st0" d="M409.6,39.3c1.3,0,2.8,0.1,4.5,0.2c1.3,0.1,2.5,0.1,3.4,0.1c0.5,0,1.1-0.1,1.8-0.3c0.1,0,0.2,0.2,0.2,0.5
		c0,0.5-0.2,1.1-0.6,1.6c-0.3,0.4-0.5,0.6-0.7,0.6c-0.4,0-0.9-0.1-1.5-0.4c-0.9-0.4-2-0.8-3.1-0.9c-1.2-0.2-2.6-0.3-4.1-0.3
		c-0.6,0-1.2,0-1.8,0c-0.4,0.6-0.8,1.3-1.3,2c-1.2,1.4-2.6,2.5-3.9,3.3c-0.9,0.5-1.7,0.8-2.3,0.8c-0.3,0-0.5-0.1-0.8-0.3
		c-0.4-0.3-0.5-0.7-0.5-1c0-0.2,0.2-0.4,0.7-0.5c1.8-0.2,3.4-1,4.9-2.2c0.7-0.6,1.3-1.3,1.8-2c-0.5,0-1,0.1-1.6,0.1
		c-0.9,0.1-2.4,0.5-4.2,1.3c-0.6,0-0.8-0.2-0.8-0.7c0-0.3,0.1-0.5,0.4-0.7c0.3-0.3,0.7-0.5,1.2-0.5c2.3-0.4,4.2-0.6,5.9-0.7
		c0.3-0.5,0.6-1.1,0.8-1.7c0-0.2,0.2-0.3,0.5-0.3c0.4,0,0.7,0.2,0.7,0.7c0,0-0.1,0.1-0.1,0.3c-0.1,0.3-0.3,0.6-0.5,1
		C408.8,39.3,409.2,39.3,409.6,39.3z M400.9,35h4.2l-0.1-0.7c0-0.4,0.2-0.6,0.7-0.6s0.7,0.2,0.7,0.7V35h5.2l0.1-0.6
		c0-0.6,0.2-0.8,0.7-0.8s0.7,0.2,0.7,0.7l-0.2,0.7h5.1c0.2,0,0.3,0.1,0.4,0.3c0,0.3-0.1,0.6-0.3,0.8c-0.2,0.2-0.5,0.3-0.9,0.3
		c-0.4,0-1.5-0.1-3.2-0.2c-0.5,0-0.9,0-1.4,0l-0.3,1c-0.1,0.3-0.3,0.4-0.6,0.4c-0.3,0-0.5-0.2-0.5-0.6l0.1-0.8c-1,0-2,0-3,0
		c-0.7,0-1.4,0-2.1,0V37c0,0.4-0.2,0.6-0.5,0.6c-0.3,0-0.5-0.2-0.6-0.6l-0.1-0.7c-1.5,0-2.6,0.1-3.4,0.2c-0.8,0.1-1.3,0.2-1.5,0.2
		c-0.5,0-0.8-0.3-0.8-0.7c0-0.2,0.2-0.5,0.4-0.6C400.2,35.1,400.6,35,400.9,35z M406.5,43.7c0.2,0,0.5,0,0.7,0.1
		c0.2,0.1,0.6,0.1,1,0.1h3c0.7,0,1.5,0,2.4,0.1c0.2,0,0.5-0.1,0.8-0.2c0.4,0,0.7,0.2,0.7,0.7c0,0,0,0.1,0,0.2
		c-0.1,0.2-0.1,0.5-0.2,0.9c0,0.6-0.1,1.2-0.1,1.8c0,0.4,0,0.9,0.1,1.6c0,0.5-0.2,0.7-0.6,0.7c-1.5-0.1-2.9-0.2-4.1-0.2
		c-1.3,0-2.1,0-2.5,0.1c-0.3,0-0.6,0.1-1.1,0.1c-0.4,0-0.6-0.2-0.6-0.6c0.1-0.9,0.2-1.7,0.2-2.4c0-0.6-0.1-1.4-0.2-2.4
		C405.8,43.9,406,43.7,406.5,43.7z M410,48.5c0.9,0,2,0,3.1,0.1c0.2,0,0.4-0.1,0.4-0.3v-3c0-0.2-0.1-0.3-0.2-0.3
		c-1.2-0.1-3-0.1-5.4-0.1c-0.3,0-0.5,0.2-0.5,0.5c0,1-0.1,1.9-0.2,2.8c0,0.3,0.2,0.4,0.6,0.4C408.4,48.5,409.2,48.5,410,48.5z"/>
	<path class="st0" d="M428.9,35.7h3.3l-0.1-1.5c0-0.5,0.3-0.7,0.8-0.7c0.6,0,0.8,0.2,0.8,0.7l-0.1,1.5h3.9c0.1,0,0.2,0,0.2,0.1
		c0.4-0.4,0.8-0.9,1.2-1.3c0.1-0.1,0.3-0.1,0.5-0.1c0.4,0,0.5,0.3,0.6,0.6c0,0.2-0.1,0.3-0.2,0.4c-1.2,1.3-2.3,2.4-3.3,3.3
		c0.4,0,0.9,0.1,1.3,0.1c1.4,0.1,2.6,0.2,3.7,0.2c0.5,0,1.2-0.1,1.9-0.3c0.1,0,0.2,0.2,0.2,0.5c0,0.5-0.2,1-0.6,1.6
		c-0.3,0.4-0.6,0.6-0.8,0.6c-0.4,0-1-0.1-1.6-0.4c-1-0.4-2.1-0.7-3.3-0.9c-0.6-0.1-1.3-0.1-1.9-0.2c-1,0.8-1.8,1.5-2.6,1.9
		c-0.3,0.2-0.6,0.4-0.8,0.5c0.2,0,0.4,0,0.6,0h2.5c0.6,0,1.3,0,2,0.1c0.2,0,0.5-0.1,0.9-0.2c0.4,0,0.6,0.3,0.6,0.8c0,0,0,0.1,0,0.2
		c-0.1,0.2-0.1,0.6-0.2,1.2c0,0.8-0.1,1.6-0.1,2.5c0,0.6,0,1.3,0.1,2.3c0,0.6-0.2,0.8-0.6,0.8c-1.2-0.2-2.4-0.3-3.4-0.3
		c-1.3,0-2.1,0-2.5,0.1c-0.3,0-0.7,0.1-1.1,0.2c-0.4,0-0.7-0.2-0.7-0.7c0.1-1.2,0.2-2.3,0.2-3.2c0-0.8,0-1.8-0.1-2.9
		c-1.4,0.7-2.9,1.3-4.5,1.8c-0.7,0.3-1.3,0.4-1.7,0.4c-0.5,0-0.9-0.2-1.2-0.5c-0.3-0.3-0.5-0.6-0.5-0.9c0-0.2,0.1-0.4,0.4-0.4
		c2.8-0.4,5-0.9,6.7-1.6c1.3-0.5,2.7-1.3,4-2.2c-0.2,0-0.3,0-0.5,0c-1.6,0-3.2,0.1-4.7,0.2c-0.9,0.1-2.3,0.5-4.1,1.1
		c-0.5,0-0.7-0.2-0.7-0.6c0-0.3,0.1-0.5,0.3-0.7c0.3-0.3,0.6-0.5,1.1-0.5c3.2-0.4,5.6-0.6,7.5-0.6l-0.1-1.8c-1.4,0-2.4,0.1-3,0.2
		c-0.4,0.1-0.7,0.2-0.8,0.2c-0.5,0-0.7-0.2-0.7-0.6c0-0.2,0.1-0.4,0.4-0.6C428.2,35.8,428.5,35.7,428.9,35.7z M434.4,48.6
		c0.7,0,1.5,0,2.4,0.1c0.2,0,0.4-0.1,0.4-0.4v-1.9c-2.3,0-4.1,0.1-5.3,0.2c0,0-0.1,0-0.1,0c0,0.5,0,1.1-0.1,1.6
		c0,0.3,0.2,0.5,0.6,0.5C432.8,48.6,433.5,48.6,434.4,48.6z M431.7,45.4c0.1,0,0.1,0,0.2,0h5.2v-1.6c0-0.2-0.1-0.3-0.2-0.3
		c-1.1-0.1-2.7-0.1-4.7-0.1c-0.3,0-0.5,0.2-0.5,0.5C431.8,44.4,431.8,44.9,431.7,45.4z M434.8,38.7c0.6-0.5,1.2-1.1,1.9-1.7
		c-0.3,0-0.7,0-1.4-0.1c-0.5,0-1.1,0-1.7,0l-0.1,1.8C434,38.6,434.4,38.6,434.8,38.7z"/>
	<path class="st0" d="M451.3,40.9c0.2,0,0.4,0.1,0.4,0.3c0,0.3-0.1,0.5-0.3,0.6l-4.3,1.6c-0.6,0-0.8-0.2-0.8-0.7c0-0.6,0.2-1,0.6-1
		L451.3,40.9z M448.8,33.8c0.1,0,0.3,0.1,0.6,0.2c0.8,0.6,1.7,1.3,2.7,2c0.1,0.1,0.2,0.2,0.2,0.3c0,0.3-0.2,0.4-0.5,0.4
		c-0.1,0-0.2,0-0.5-0.1c-1.5-0.6-2.4-0.9-2.8-1.1c-0.4-0.3-0.7-0.6-0.7-1C447.8,34.1,448.1,33.8,448.8,33.8z M451.8,46.4
		c0.3,0,0.4,0.1,0.4,0.4c0,0.2-0.1,0.4-0.2,0.6c-1.6,1.8-2.5,2.6-2.7,2.6c-0.7,0-1-0.2-1-0.6c0-0.5,0.1-0.9,0.4-1
		C448.6,48.2,449.6,47.6,451.8,46.4z M464,34c0.3,0,0.5,0.1,0.5,0.4c0,0.3-0.1,0.5-0.4,0.6c-1.4,0.4-2.6,0.8-3.8,1.1l0,3.4
		c0.7,0,1.6,0,2.5,0.1c1,0,1.8,0.1,2.5,0.1c0.5,0,1-0.1,1.7-0.2c0.1,0,0.2,0.2,0.2,0.5c0,0.5-0.2,1-0.6,1.6
		c-0.3,0.4-0.5,0.6-0.7,0.6c-0.3,0-0.7-0.1-1.2-0.4c-0.7-0.4-1.5-0.6-2.4-0.8c-0.7-0.1-1.4-0.2-2.1-0.2l0,3.5h0c0.7,0,1.5,0,2.4,0.1
		c0.2,0,0.5-0.1,0.9-0.2c0.4,0,0.6,0.2,0.6,0.7c0,0,0,0.1,0,0.2c-0.1,0.2-0.1,0.5-0.2,0.9c0,0.6-0.1,1.2-0.1,1.8
		c0,0.4,0,0.9,0.1,1.6c0,0.5-0.2,0.8-0.6,0.8c-1.5-0.1-2.8-0.2-3.9-0.2c-1.4,0-2.2,0-2.6,0c-0.3,0-0.7,0.1-1.2,0.1
		c-0.4,0-0.6-0.2-0.6-0.7c0.1-0.9,0.2-1.7,0.2-2.4c0-0.6-0.1-1.4-0.2-2.4c0-0.4,0.2-0.6,0.6-0.6c0.2,0,0.5,0,0.7,0.1
		c0.2,0.1,0.6,0.1,1,0.1h1.6l0-3.5c-0.9,0-1.8,0.1-2.6,0.2c-0.6,0.1-1.5,0.4-2.7,1c-0.6,0-0.8-0.2-0.8-0.6c0-0.3,0.1-0.5,0.4-0.7
		c0.3-0.3,0.7-0.5,1.2-0.5c1.9-0.3,3.5-0.4,4.6-0.5l0-3c-0.4,0.1-0.8,0.2-1.2,0.2c-1.1,0.2-1.9,0.3-2.2,0.3c-0.4,0-0.8-0.2-1.2-0.5
		c-0.2-0.2-0.4-0.5-0.4-0.8c0-0.2,0.1-0.3,0.4-0.3c2.2,0,4.1-0.2,5.5-0.5c1.5-0.2,2.7-0.5,3.7-0.8C463.8,34,463.9,34,464,34z
		 M459.5,48.6c0.9,0,1.8,0,2.9,0.1c0.2,0,0.4-0.1,0.4-0.3v-3c0-0.2-0.1-0.3-0.2-0.3c-1.2,0-3.1-0.1-5.4-0.1c-0.3,0-0.5,0.2-0.5,0.5
		c0,1-0.1,1.9-0.2,2.8c0,0.3,0.2,0.4,0.6,0.4C457.7,48.7,458.5,48.6,459.5,48.6z"/>
	<path class="st0" d="M473.2,34.4c0.3,0,0.6,0.1,0.7,0.2l11.7,0.1c0.2,0,0.6-0.1,1.1-0.3c0.6,0,0.9,0.2,0.9,0.6
		c-0.3,1.8-0.5,4-0.5,6.6c0,1.8,0.1,4.4,0.3,7.8c0,0.6-0.3,0.9-0.8,0.9c-0.2,0-0.4-0.1-0.5-0.4c-0.1-0.3-0.1-0.7-0.1-1.2
		c0-1.4,0-2.6,0-3.8c-1.9,0-3.7,0-5.3,0l0,3.8c0,1-0.3,1.5-0.8,1.5c-0.4,0-0.6-0.5-0.6-1.5c0-1.4,0-2.7,0-3.8
		c-2.1,0-3.8,0.1-5.3,0.1c0,0-0.1,0-0.1,0c0,0.5-0.1,1-0.2,1.4c-0.2,1-0.7,1.9-1.3,2.6c-0.5,0.6-1,0.9-1.4,0.9
		c-0.3,0-0.7-0.2-1.1-0.5c-0.4-0.4-0.7-0.6-0.7-0.8c0-0.2,0.1-0.3,0.4-0.4c1-0.4,1.7-1.1,2.3-2.1c0.5-1,0.8-3.1,0.8-6.4
		c0-1.5-0.1-3.2-0.3-4.9C472.4,34.6,472.7,34.4,473.2,34.4z M474,44c0,0,0.1,0,0.2,0h5.1c0-1.4,0-2.5,0-3.5c-2,0-3.8,0.1-5.2,0.1
		c0,0,0,0,0,0v2.3C474.1,43.3,474.1,43.6,474,44z M474.1,39.4c0.1,0,0.1,0,0.2,0h5c0-1,0-2.1-0.1-3.3c0-0.1,0-0.2,0-0.3
		c-1.8,0-3.6,0-5.2,0V39.4z M480.7,35.7c0,0.1,0,0.2,0,0.4c0,1.2-0.1,2.3-0.1,3.3h5.4c0,0,0.1,0,0.1,0c0-1.2,0-2.4,0.1-3.4
		c0-0.2-0.2-0.3-0.7-0.3C483.9,35.7,482.3,35.7,480.7,35.7z M480.7,40.4l0,3.6h5.3c0-1.3,0-2.5,0-3.6c0,0-0.1,0-0.1,0
		C484.1,40.4,482.3,40.4,480.7,40.4z"/>
	<path class="st0" d="M504.2,37.1c0,0.2-0.1,0.4-0.3,0.7c-0.2,0.3-0.3,0.4-0.5,0.5c-1.1-0.2-2-0.3-2.8-0.3c-0.1,0-0.3,0-0.5,0
		c-0.2,0-0.4,0-0.5,0c-0.4,1.7-0.8,3.2-1.4,4.7c-1.6,4.1-2.9,6.2-3.8,6.2c-0.3,0-0.6-0.1-1-0.3c-0.5-0.2-0.7-0.4-0.7-0.6
		c0-0.1,0.3-0.5,1-1.2c1.1-1.1,2.1-2.5,2.9-4.1c0.9-1.7,1.5-3.2,1.8-4.7c-0.6,0-1.5,0.2-2.7,0.4c-0.9,0.3-1.4,0.4-1.3,0.4
		c-0.4,0-0.6-0.2-0.6-0.5c0-0.3,0.1-0.6,0.2-0.7c0.2-0.2,0.9-0.3,2.2-0.5c0.8,0,1.7-0.1,2.5-0.2c0.1-0.6,0.2-1.4,0.2-2.1
		c0-0.6,0.3-0.9,0.7-0.9c0.4,0,0.7,0.2,0.7,0.6c0,0.2-0.1,0.9-0.4,2.3c1.8-0.1,3-0.1,3.7-0.1C504,36.7,504.2,36.8,504.2,37.1z
		 M510.3,47.5c-0.1,0.3-0.3,0.6-0.7,1.1c-0.4,0.5-0.7,0.7-1,0.7c-0.1,0-0.7-0.3-1.9-1c-1.3-0.8-2-1.2-2.1-1.3
		c-0.3,1.6-1.4,2.5-3.5,2.5c-0.8,0-1.6-0.2-2.2-0.6c-0.7-0.5-1.1-1.1-1.1-1.8c0-1.5,1.2-2.3,3.5-2.3c0.6,0,1.2,0.1,2,0.4v-1.2
		c0-0.5,0-1-0.1-1.4c0-0.1,0-0.4-0.1-0.7c0-0.3-0.1-0.5-0.1-0.7c0-0.5,0.2-0.8,0.7-0.8c0.4,0,0.6,0.3,0.6,1c0,1,0.1,2.4,0.2,4.3
		c0.8,0.3,1.6,0.6,2.4,0.8c0.9,0.3,1.8,0.5,2.5,0.6c0.2,0,0.3,0.1,0.4,0.1C510.2,47.4,510.3,47.4,510.3,47.5z M503.3,46.6
		c-1.2-0.4-2.1-0.6-2.7-0.6c-1.2,0-1.7,0.4-1.7,1.2c0,0.8,0.6,1.2,1.8,1.2C502.3,48.4,503.1,47.8,503.3,46.6z M510.4,39.5
		c0,0.3-0.1,0.7-0.4,1.1c-0.3,0.5-0.6,0.7-0.8,0.7c-0.6,0-1.4-0.4-2.3-1.2c-0.9-0.8-1.4-1.6-1.4-2.2c0-0.2,0.1-0.3,0.2-0.3
		c0.6,0.3,1.2,0.6,1.8,1c0.5,0.3,1.2,0.4,2,0.5C510.1,39.2,510.4,39.3,510.4,39.5z"/>
	<path class="st0" d="M530.5,46.5c0,0.6-0.2,1.1-0.5,1.5c-0.3,0.4-0.8,0.7-1.3,0.8c-0.9,0.2-2.6,0.3-5.2,0.3c-4.7,0-7-1-7-3.1
		c0-1,0.4-1.9,1.3-2.8c0.2-0.2,1-0.9,2.4-2.1c-0.2-1-0.2-1.8-0.2-2.6v-2.2c0-1.5,0.3-2.3,0.8-2.3c0.6,0,0.9,0.3,0.9,0.9
		c0,0.1,0,0.3-0.1,0.5c-0.1,0.3-0.1,0.5-0.1,0.6c-0.1,0.7-0.1,1.6-0.1,2.7c0,0.5,0,1.1,0.1,1.5c2.3-1.7,3.7-2.6,4.2-2.6
		c0.3,0,0.5,0.1,0.6,0.3c0.1,0.2,0.2,0.3,0.4,0.5c0,0.4-0.3,0.7-0.8,1c-1,0.5-2.1,1.1-3.1,1.6c-1.5,0.8-2.7,1.6-3.5,2.3
		c-1.1,0.9-1.7,1.8-1.7,2.7c0,1.1,1,1.7,3.1,1.7c1.3,0,2.9-0.1,4.7-0.3c1.5-0.2,2.8-0.5,3.9-0.8c0.4-0.2,0.8-0.2,1-0.2
		C530.4,46.2,530.5,46.3,530.5,46.5z M530.6,37.1c0,0.1-0.1,0.4-0.4,0.7c-0.3,0.4-0.5,0.5-0.6,0.5c-0.3,0-0.8-0.3-1.4-1
		c-0.6-0.7-0.9-1.1-0.9-1.3c0-0.2,0.1-0.3,0.2-0.3c0,0,0.3,0.2,1.1,0.5c0.7,0.3,1.3,0.5,1.7,0.5C530.5,36.8,530.6,37,530.6,37.1z
		 M533.4,35.4c0,0.2-0.2,0.4-0.5,0.8c-0.3,0.3-0.5,0.5-0.6,0.5c-0.3,0-0.7-0.3-1.4-1c-0.7-0.6-1-1.1-1-1.4c0-0.2,0.1-0.3,0.2-0.3
		c0.1,0,0.4,0.1,0.9,0.4c0.6,0.4,1.3,0.6,2,0.6C533.3,35.2,533.4,35.3,533.4,35.4z"/>
	<path class="st0" d="M543,49.4c0,0.3-0.3,0.6-0.9,1c-0.6,0.4-1,0.6-1.3,0.6c-0.3,0-0.6-0.3-1-0.8c-0.8-1.2-1.7-2.3-2.4-3.1
		c-0.7-0.8-1-1.3-1-1.5c0-0.3,0.2-0.4,0.5-0.4c0.2,0,1.5,0.9,3.8,2.8c0.5,0.4,1.2,0.8,2.1,1.2C542.9,49.1,543,49.3,543,49.4z"/>
	<path class="st0" d="M2.8,66.3c0.4,0.1,0.7,0.1,0.9,0.1c1,0,2.2-0.4,3.6-1.1c0.2,0,0.3,0.1,0.3,0.3c0,0.3-0.5,0.8-1.4,1.6
		c-1,0.8-1.8,1.3-2.5,1.3c-0.3,0-0.6-0.2-0.8-0.5c-0.3-0.4-0.4-0.8-0.4-1.3C2.5,66.4,2.6,66.3,2.8,66.3z M12,64
		c0.6,0,0.9,0.3,0.9,0.8l-0.2,5.6l4.7,0.1c0.3,0,0.6,0,1.1-0.1c0.6,0,0.9,0.2,0.9,0.6c-0.2,2.3-0.3,4.7-0.4,7.2
		c0,0.6-0.3,0.8-0.9,0.8c-1.5-0.1-3.5-0.2-6-0.2c-2.6,0-4.8,0.1-6.7,0.3c-0.4,0-0.6-0.2-0.6-0.6c0-0.5,0.2-0.7,0.5-0.8
		c1.3-0.1,3.3-0.2,5.8-0.2c1.5,0,3.6,0,6.2,0.1c0.4,0,0.5-0.3,0.5-0.8c0-0.6,0-1.2,0-1.7c0,0,0,0,0,0c-5.2,0-9.2,0.1-12.1,0.2
		c-0.5,0-0.7-0.2-0.7-0.6c0-0.4,0.3-0.7,0.9-0.7h11.9c0,0,0,0,0,0c0-0.8,0-1.5,0-2.1c0-0.2-0.2-0.4-0.5-0.4c-1-0.1-2.7-0.1-5.3-0.1
		c-2,0-4.2,0.1-6.6,0.3C5.2,72,5,71.8,5,71.4c0-0.5,0.2-0.8,0.6-0.8l5.8-0.1l-0.2-5.6C11.2,64.3,11.5,64,12,64z M16.7,65.1
		c0,0,0.1,0,0.2,0.1c1.1,0.6,2,1,2.6,1.2c0.5,0.2,1.1,0.3,1.8,0.3c0.2,0,0.3,0.1,0.3,0.3c0,0.3-0.2,0.6-0.5,0.9
		c-0.7,0.4-1.2,0.6-1.5,0.6c-0.2,0-0.4-0.1-0.6-0.2c-0.3-0.2-1.1-1-2.4-2.5c-0.1-0.1-0.1-0.2-0.1-0.3C16.4,65.3,16.5,65.1,16.7,65.1
		z"/>
	<path class="st0" d="M25.8,68.4h2.5c0-1.2,0-2.6-0.1-4c0-0.6,0.2-0.9,0.7-0.9s0.7,0.3,0.7,0.9c0,1.5-0.1,2.8-0.1,4h3
		c0.2,0,0.4,0.1,0.4,0.3c0,0.3-0.1,0.6-0.3,0.8c-0.2,0.2-0.5,0.3-0.8,0.3c-0.2,0-0.5-0.1-1.2-0.2c-0.4,0-0.7,0-1.1,0l0.1,9.6
		c0,1-0.3,1.5-0.8,1.5c-0.4,0-0.6-0.5-0.6-1.5c0-4,0.1-7.2,0.1-9.6c-1.1,0-1.9,0.1-2.4,0.2c-0.3,0.1-0.5,0.2-0.6,0.2
		c-0.5,0-0.7-0.3-0.8-0.7c0-0.2,0.2-0.4,0.4-0.6C25.2,68.5,25.4,68.4,25.8,68.4z M34.1,73.9c0.1-0.3,0.1-0.6,0.1-0.9
		c0-0.4,0.2-0.6,0.6-0.6c0.2,0,0.3,0.1,0.4,0.2c0.2,0.2,0.2,0.3,0.2,0.4l0,0.1c0,0.2-0.1,0.5-0.2,0.8h1.7c0.1,0,0.4-0.1,0.7-0.2
		c0.5,0,0.8,0.2,0.8,0.7c-0.3,0.9-0.4,1.9-0.5,2.8c-0.1,1.3-0.5,2.1-1,2.5c-0.4,0.4-1,0.6-1.7,0.6c-0.4,0-0.6-0.1-0.9-0.4
		c-0.2-0.3-0.2-0.5-0.2-0.7c0-0.3,0.1-0.4,0.4-0.5c0.8,0,1.3-0.2,1.6-0.4c0.3-0.2,0.5-0.9,0.7-1.9c0.1-0.7,0.1-1.1,0.1-1.2
		c0-0.2-0.1-0.4-0.2-0.4H35c-0.3,1.1-0.7,2.2-1.2,3c-0.3,0.6-0.7,1.2-1.1,1.6c-0.5,0.5-0.9,0.7-1.1,0.7c-0.3,0-0.5-0.1-0.8-0.4
		c-0.3-0.3-0.4-0.5-0.4-0.7c0-0.2,0.2-0.3,0.5-0.4c0.4-0.1,0.8-0.4,1.2-0.9c0.5-0.4,0.9-1.2,1.4-2.3c0.1-0.2,0.2-0.4,0.2-0.6
		c-0.3,0-0.7,0.1-1,0.1c-0.4,0.1-0.6,0.2-0.7,0.2c-0.4,0-0.6-0.2-0.6-0.5c0-0.5,0.2-0.8,0.6-0.8C32.5,73.9,33.1,73.9,34.1,73.9z
		 M37.7,65.6c0.1-0.5,0.3-1,0.3-1.5c0-0.4,0.2-0.6,0.6-0.6c0.1,0,0.3,0.1,0.4,0.2c0.2,0.2,0.2,0.3,0.2,0.4l0,0.1
		c-0.1,0.3-0.2,0.8-0.4,1.4h3.2c0.1,0,0.4-0.1,0.7-0.2c0.5,0,0.8,0.2,0.8,0.7c-0.3,0.9-0.5,1.9-0.6,2.8c-0.1,1.3-0.5,2.1-1.1,2.5
		c-0.5,0.4-1.1,0.6-1.9,0.6c-0.4,0-0.6-0.1-0.9-0.4c-0.2-0.3-0.2-0.5-0.2-0.7c0-0.3,0.1-0.4,0.4-0.5c0.9,0,1.6-0.2,1.8-0.4
		c0.3-0.2,0.6-0.9,0.8-1.9c0.1-0.6,0.2-1,0.2-1.2c0-0.3-0.1-0.4-0.2-0.4h-3.3c0,0,0,0,0,0c-0.4,1-0.8,1.9-1.4,2.8
		c-0.4,0.6-0.9,1.2-1.4,1.7c-0.7,0.5-1.2,0.8-1.4,0.8s-0.6-0.2-0.8-0.5c-0.3-0.3-0.4-0.5-0.4-0.7c0-0.2,0.2-0.3,0.5-0.4
		c0.6-0.1,1.1-0.5,1.7-1c0.6-0.4,1.3-1.3,1.9-2.4c0-0.1,0.1-0.2,0.1-0.3c-0.5,0-1,0.1-1.5,0.1C35.3,67,35,67,34.9,67
		c-0.4,0-0.6-0.2-0.6-0.5c0-0.5,0.2-0.8,0.6-0.8C35.4,65.6,36.3,65.6,37.7,65.6z M41.6,73.9c0.1-0.3,0.1-0.6,0.1-0.9
		c0-0.4,0.2-0.6,0.6-0.6c0.1,0,0.3,0.1,0.4,0.2c0.1,0.2,0.2,0.3,0.2,0.4l0,0.1c0,0.2-0.1,0.5-0.2,0.8h1.8c0.1,0,0.4-0.1,0.7-0.2
		c0.5,0,0.7,0.2,0.7,0.7c-0.2,0.9-0.4,1.9-0.5,2.8c-0.1,1.3-0.4,2.1-0.9,2.5c-0.4,0.4-0.9,0.6-1.5,0.6c-0.4,0-0.6-0.1-0.9-0.4
		c-0.2-0.3-0.2-0.5-0.2-0.7c0-0.3,0.1-0.4,0.4-0.5c0.7,0,1.1-0.2,1.3-0.4c0.3-0.2,0.5-0.9,0.6-1.9c0.1-0.7,0.1-1.1,0.1-1.2
		c0-0.2-0.1-0.4-0.2-0.4h-1.8c-0.3,1.1-0.6,2.2-1.1,3c-0.3,0.6-0.6,1.2-1,1.6c-0.5,0.5-0.8,0.7-1,0.7c-0.3,0-0.6-0.1-0.8-0.4
		c-0.3-0.3-0.4-0.5-0.4-0.7c0-0.2,0.2-0.3,0.5-0.4c0.4-0.1,0.8-0.4,1.2-0.9c0.4-0.4,0.9-1.2,1.3-2.3c0.1-0.2,0.1-0.4,0.2-0.6
		c-0.3,0-0.6,0.1-0.9,0.1c-0.4,0.1-0.6,0.2-0.7,0.2c-0.4,0-0.6-0.2-0.6-0.5c0-0.5,0.2-0.8,0.6-0.8C40.1,73.9,40.7,73.9,41.6,73.9z"
		/>
	<path class="st0" d="M58.8,63.6c0.3,0,0.5,0.2,0.5,0.5c0.3,0,0.7,0.2,1.2,0.6c3.5,2.2,5.7,3.5,6.6,3.8c0.6,0.1,1.2,0.3,2,0.3
		c0.3,0,0.5,0.1,0.5,0.4c0,0.4-0.3,0.7-0.8,1.1c-0.5,0.4-1.1,0.6-1.7,0.6c-0.4,0-0.8-0.2-1.1-0.5c-1.4-1.3-3-2.6-4.8-3.9
		c-0.8-0.5-1.5-0.9-2.1-1.2c-0.1,0-0.2-0.1-0.3-0.2c-1.2,1.3-2.6,2.4-4,3.3c-1.2,0.8-2.6,1.5-4.2,2c-0.3,0.1-0.6,0.1-0.7,0.1
		c-0.4,0-0.8-0.2-1.2-0.7C48.2,69.6,48,69.3,48,69c0-0.2,0.3-0.4,0.7-0.4c1.2-0.1,2-0.2,2.5-0.4c1.4-0.3,2.7-0.8,3.9-1.6
		c1.3-0.8,2.3-1.7,3.2-2.7C58.4,63.7,58.6,63.6,58.8,63.6z M51.9,73c0.2,0,0.3,0,0.5,0.1c2.2-0.2,4.2-0.3,6-0.3c1.1,0,2.8,0,5.1,0.1
		c0.4,0,0.7,0,1,0c0.2,0,0.5,0,1-0.1c0.4-0.1,0.6-0.2,0.7-0.2c0.2,0,0.3,0.1,0.3,0.2c0,0.4-0.2,0.8-0.6,1.2
		c-0.4,0.5-0.7,0.7-1.1,0.7c-0.3,0-0.7-0.1-1.3-0.3c-1.4-0.4-3.1-0.6-5.1-0.6c-0.1,0-0.2,0-0.3,0c0,0.1,0.1,0.3,0.1,0.5
		c0,0.1,0,0.2-0.1,0.2c-0.5,0.8-1,1.5-1.3,2c-0.3,0.4-0.6,0.8-1,1.2c0,0.1,0.1,0.2,0.4,0.2h5.6c0.3,0,0.5-0.1,0.5-0.3
		c0,0,0-0.1,0-0.1c-0.3-0.4-0.6-1-1-1.5c0-0.1-0.1-0.1-0.1-0.1c0-0.4,0.2-0.7,0.7-0.7c0.1,0,0.2,0,0.3,0.1c0.6,0.7,1.2,1.6,1.9,2.7
		c0.1,0.1,0.1,0.3,0.1,0.4c0,0.4-0.2,0.6-0.6,0.6h-7.3c-0.5,0-1.1,0-1.8,0.1c-0.6,0-0.9-0.2-0.9-0.6c0-0.2,0.1-0.4,0.4-0.6
		c0.3-0.2,0.5-0.5,0.7-0.7c0.3-0.4,0.6-0.8,1-1.2c0.4-0.5,0.8-1.2,1.2-2.1c0,0,0,0,0-0.1c-1.8,0-3.1,0.2-3.9,0.4
		c-0.5,0.1-0.9,0.2-1.2,0.2c-0.4,0-0.6-0.2-0.6-0.6c0-0.2,0.1-0.5,0.3-0.7C51.5,73.1,51.7,73,51.9,73z M55.8,69.6h6.7
		c0.2,0,0.3,0.1,0.3,0.3c0,0.2-0.1,0.5-0.3,0.6c-0.2,0.2-0.5,0.3-0.8,0.3c-0.2,0-0.5,0-1.1-0.1c-0.6,0-1.3,0-2,0
		c-1.2,0-2.1,0.1-2.7,0.2c-0.3,0.1-0.5,0.2-0.6,0.2c-0.5,0-0.7-0.3-0.7-0.7c0-0.2,0.1-0.4,0.4-0.6C55.2,69.6,55.5,69.6,55.8,69.6z"
		/>
	<path class="st0" d="M89.6,71.9c0,2.8-1.5,4.9-4.6,6.3c-1.2,0.6-2.2,0.9-2.9,0.9c-0.4,0-0.8-0.2-1.2-0.5c-0.4-0.3-0.7-0.7-0.7-1.1
		c0-0.1,0.2-0.3,0.6-0.3c0.3,0,0.7-0.1,1.2-0.2c1.4-0.2,2.6-0.6,3.5-1.1c0.8-0.5,1.5-1.1,2-1.8c0.6-0.8,0.8-1.7,0.8-2.6
		c0-0.7-0.2-1.5-0.7-2.2c-0.9-1.6-2.5-2.4-4.8-2.4c-0.1,0-0.2,0-0.4,0c-0.2,0-0.3,0-0.3,0c-0.9,4.1-2.1,7.2-3.6,9
		c-0.9,1.1-1.6,1.6-2.2,1.6c-0.8,0-1.5-0.6-2.1-1.9c-0.4-1-0.6-2-0.6-3c0-1.5,0.5-2.9,1.5-4.1c1.6-1.9,4-2.8,7.2-2.8
		c2,0,3.7,0.5,5.1,1.6C88.8,68.4,89.6,69.9,89.6,71.9z M80.5,67c-2.1,0.4-3.6,1.1-4.5,2.2c-0.9,1.1-1.4,2.2-1.4,3.2
		c0,0.6,0.1,1.2,0.4,2c0.3,0.9,0.7,1.3,1.2,1.3c0.4,0,0.9-0.3,1.4-1C78.8,73,79.8,70.5,80.5,67z"/>
	<path class="st0" d="M95.7,64.1l4.8,0.1c0.5-0.1,0.8-0.1,0.9-0.1c0.6,0,0.8,0.3,0.8,0.8c-0.2,0.5-0.3,1.1-0.4,1.7c0,0.3,0,1,0,1.9
		c0,0.4-0.2,0.6-0.6,0.6c-0.2,0-0.3,0-0.4-0.1c-0.1,0-0.1,0-0.2,0c-1.8,0-3.1,0.1-4.1,0.2c0,0.8-0.2,1.7-0.5,2.5
		c0,0.1,0.2,0.2,0.5,0.2c0.9-0.1,1.6-0.1,2.2-0.1c0.8,0,1.5,0,2.1,0.1c0.1,0,0.3,0,0.5,0c0.2-0.1,0.3-0.1,0.4-0.1
		c0.6,0,0.9,0.3,0.9,0.8c-0.2,0.3-0.3,0.7-0.3,1.3c-0.1,3.2-0.8,5.1-2.1,5.8c-0.8,0.5-1.5,0.7-2.3,0.7c-0.3,0-0.7-0.2-1.1-0.5
		c-0.3-0.3-0.4-0.5-0.4-0.7c0-0.3,0.2-0.5,0.5-0.6c1.5-0.2,2.4-0.6,2.9-1.1c0.5-0.4,0.8-1,1-1.7c0.2-1,0.3-1.8,0.3-2.6
		c0-0.2-0.2-0.3-0.6-0.3c-0.6-0.1-1.2-0.1-1.9-0.1c-0.7,0-1.4,0.1-2.3,0.2c-0.5,0.2-0.9,0.3-1.1,0.3c-0.5,0-0.7-0.3-0.7-0.7
		c0-0.2,0.1-0.5,0.4-0.9c0.2-0.6,0.3-1.2,0.3-1.9c0-0.4,0-0.9-0.1-1.3c0-0.5,0.2-0.7,0.7-0.7c0.2,0,0.4,0,0.6,0.1c0.1,0,0.3,0,0.4,0
		h4c0-1.1,0-2,0.1-2.5c0-0.2-0.1-0.3-0.3-0.3c-1.4,0-3.1,0-5.2,0.1c-0.4,0-0.6-0.2-0.6-0.5c0-0.3,0.1-0.5,0.4-0.6
		C95.3,64.2,95.5,64.1,95.7,64.1z M107.8,63.5c0.6,0,0.8,0.3,0.8,0.9c0,0.1,0,0.1-0.1,0.2c-0.6,0.7-1,1.3-1.3,1.7
		c-0.3,0.3-0.6,0.7-1,1c0,0.1,0.1,0.2,0.4,0.2h4.8c0.3,0,0.5-0.1,0.5-0.3c0,0,0-0.1,0-0.1c-0.3-0.5-0.7-1-1.2-1.6
		c0-0.1-0.1-0.1-0.1-0.2c0-0.4,0.2-0.6,0.7-0.6c0.1,0,0.2,0,0.3,0.1c0.6,0.7,1.3,1.6,2,2.7c0.1,0.1,0.1,0.3,0.1,0.4
		c0,0.4-0.2,0.6-0.6,0.6h-3.4c0,0.1,0,0.2,0,0.3c0,0.5,0,1,0,1.6h0.1c0.8,0,1.8,0,3,0.1c0.2,0,0.5-0.1,0.9-0.2
		c0.4,0,0.6,0.2,0.6,0.7c0,0,0,0.1,0,0.1c-0.1,0.1-0.1,0.4-0.2,0.8c0,0.5-0.1,1-0.1,1.5c0,0.3,0,0.7,0.1,1.2c0,0.5-0.2,0.7-0.6,0.7
		c-1.7-0.1-3.2-0.2-4.6-0.2c0,0,0,0.1,0,0.1c-0.4,0.9-1.1,1.9-2,3c0,0.1,0.1,0.1,0.2,0.1h4.3c0.3,0,0.5-0.1,0.5-0.2
		c0-0.1-0.1-0.4-0.4-1c-0.3-0.4-0.5-0.8-0.5-1c0-0.3,0.3-0.4,0.8-0.5c0.3,0,0.5,0.2,0.6,0.5c0.6,1.3,0.9,2.2,0.9,2.6
		c0,0.6-0.3,0.8-0.9,0.8c-1-0.1-2.1-0.1-3.2-0.1c-1,0-1.8,0.1-2.4,0.2c-0.4,0.1-0.8,0.1-1.2,0.1c-0.5-0.1-0.8-0.3-0.8-0.8
		c0-0.2,0.1-0.3,0.2-0.5c1.3-1.2,2.2-2.4,2.7-3.6c-0.8,0-1.4,0-1.7,0c-0.4,0-0.8,0.1-1.3,0.1c-0.4,0-0.7-0.2-0.7-0.6
		c0.1-0.8,0.2-1.5,0.2-2.1c0-0.5-0.1-1.1-0.2-1.9c0-0.4,0.2-0.7,0.7-0.7c0.2,0,0.4,0,0.7,0.1c0.2,0.1,0.6,0.1,1,0.1h2.2
		c0-0.5-0.1-1.1-0.2-1.7c0-0.1,0-0.1,0-0.2h-1.5c-0.5,0-1.1,0-1.8,0.1c-0.6,0-0.9-0.2-0.9-0.6c0-0.2,0.1-0.4,0.4-0.6
		c0.3-0.2,0.5-0.4,0.7-0.6c0.3-0.3,0.7-0.7,1-1.1c0.4-0.4,0.8-1,1.2-1.8C107.2,63.6,107.5,63.5,107.8,63.5z M107.8,74.3
		c0.3-0.9,0.4-1.7,0.4-2.5c0-0.1,0-0.2,0-0.2c-0.8,0-1.6,0-2.5,0c-0.3,0-0.5,0.2-0.5,0.5c0,0.7-0.1,1.3-0.2,2c0,0.2,0.2,0.4,0.6,0.4
		C106.3,74.3,107,74.3,107.8,74.3z M109.6,71.5c0,0.4-0.1,0.7-0.1,1.1c-0.1,0.5-0.2,1.1-0.3,1.6c1,0,2,0,3.1,0.1
		c0.2,0,0.4-0.1,0.4-0.3v-2.2c0-0.2-0.1-0.3-0.2-0.3C111.7,71.6,110.7,71.6,109.6,71.5z"/>
	<path class="st0" d="M136.8,75.6c-0.1,0.3-0.3,0.7-0.8,1.2c-0.5,0.5-0.9,0.7-1.1,0.7c0,0-1-0.6-3.1-1.7c-0.4,0.8-1.1,1.7-1.9,2.6
		c-1,1.1-1.8,1.7-2.4,1.7c-0.3,0-0.7-0.2-1.3-0.5c-0.5-0.3-0.8-0.6-0.8-0.9c0-0.1,0.5-0.3,1.4-0.5c1.6-0.5,2.9-1.5,3.9-3
		c-1.7-0.8-3.4-1.4-5.3-1.9c-2.3,2.8-4,4.3-5.3,4.3c-0.5,0-0.9-0.2-1.2-0.7c-0.3-0.4-0.4-0.8-0.4-1.4c0-1.2,0.6-2.2,1.9-2.8
		c1-0.5,2.2-0.7,3.6-0.7c0.1,0,0.4,0,1,0.1c0.5-0.7,1.6-2.5,3.3-5.3c-1.1,0-1.9,0-2.3,0.1c-0.8,0.1-1.6,0.2-2.3,0.4
		c-0.7,0.2-1,0.3-1.1,0.3c-0.5,0-0.7-0.2-0.7-0.5c0-0.7,0.4-1.1,1.1-1.2c1.1-0.2,2.3-0.4,3.5-0.4h2.4c0.9,0,1.3,0.2,1.3,0.7
		c0,0.3-0.6,1.3-1.7,2.9c-0.9,1.4-1.7,2.5-2.3,3.3c1.4,0.4,3.1,0.9,5.2,1.5c0.3-0.8,0.5-1.6,0.6-2.3c0-0.4,0.2-0.5,0.6-0.5
		c0.4,0,0.6,0.2,0.6,0.6c0,0.7-0.2,1.5-0.7,2.6c1.4,0.5,2.7,0.9,3.9,1C136.6,75.3,136.8,75.5,136.8,75.6z M124.1,73.1
		c-0.4,0-0.8,0-0.9,0c-0.9,0-1.7,0.2-2.4,0.6c-0.8,0.4-1.3,1.1-1.3,1.9c0,0.6,0.2,0.8,0.6,0.8C121,76.4,122.4,75.3,124.1,73.1z"/>
	<path class="st0" d="M156.1,69.5c0,0.3-0.3,0.6-0.9,1c-1.4,0.9-3.4,2-6,3.4c0,0.1,0,0.4,0,0.8c0,0.3,0,0.6,0,0.8
		c0,0.5-0.3,0.7-0.8,0.7c-0.3,0-0.5-0.2-0.6-0.6c0-0.1,0-0.4,0-1c-1,0.5-1.6,0.8-1.9,1.1c-0.8,0.6-1.2,1.1-1.2,1.7
		c0,0.4,0.4,0.6,1.2,0.8c0.6,0.1,1.2,0.2,1.8,0.2c1.7,0,3.3-0.3,4.7-0.8c1.1-0.4,1.6-0.6,1.7-0.6c0.1,0,0.2,0.1,0.2,0.4
		c0,0.5-0.2,1-0.5,1.5c-0.2,0.4-0.9,0.6-1.9,0.8c-0.8,0.1-1.7,0.1-2.7,0.1c-1.3,0-2.4-0.1-3.4-0.4c-1.5-0.4-2.2-1.1-2.2-2
		c0-0.8,0.6-1.6,1.7-2.4c0.2-0.2,1.1-0.7,2.6-1.7c0-0.9-0.1-1.4-0.1-1.6c-0.2-0.6-0.6-0.9-1.2-0.9c-0.9,0-1.6,0.2-2.2,0.5
		c-0.3,0.1-0.9,0.6-1.9,1.4c-0.1,0.1-0.3,0.2-0.5,0.3c-0.4,0-0.7-0.3-0.7-0.9c0-0.4,0.5-0.9,1.4-1.4c1.3-0.8,2.5-1.8,3.5-3.2
		c-0.5,0.1-1.3,0.2-2.3,0.3c0,0-0.3,0.1-0.9,0.2c-0.4,0.1-0.7,0.2-0.9,0.2c-0.4,0-0.6-0.2-0.6-0.7c0-0.6,0.5-0.9,1.4-1
		c0.9,0,2.2-0.1,3.9-0.1c0.2-0.3,0.5-0.9,0.9-1.9c0.2-0.5,0.5-0.7,0.9-0.7c0.5,0,0.8,0.2,0.8,0.7c0,0.2-0.3,0.8-1,1.9
		c0.5,0,1.2,0,2.3,0c1,0,1.8,0,2.3,0c0.1,0,0.3,0,0.6,0c0.2,0,0.4-0.1,0.6-0.1c0.1,0,0.2,0.1,0.3,0.2c0,0.3-0.2,0.6-0.5,1
		c-0.3,0.4-0.6,0.6-0.9,0.6c-0.3,0-0.6-0.1-0.9-0.2c-0.3-0.1-0.6-0.1-0.9-0.2c-0.7-0.2-1.8-0.3-3.3-0.3c-0.8,1-1.5,1.9-2.2,2.6
		c0.6-0.1,1.1-0.1,1.6-0.1c1.3,0,2.1,0.8,2.2,2.3c0,0.2,0,0.3,0.1,0.4c2.1-1.3,3.9-2.4,5.2-3.3c0.4-0.3,0.8-0.4,1.1-0.4
		C155.8,68.8,156.1,69,156.1,69.5z"/>
	<path class="st0" d="M165.2,70.9c0.2,0,0.4,0.1,0.4,0.3c0,0.3-0.1,0.5-0.3,0.6l-4.3,1.6c-0.6,0-0.8-0.2-0.8-0.7c0-0.6,0.2-1,0.6-1
		L165.2,70.9z M162.7,63.8c0.1,0,0.3,0.1,0.6,0.2c0.8,0.6,1.7,1.3,2.7,2c0.1,0.1,0.2,0.2,0.2,0.3c0,0.3-0.2,0.4-0.5,0.4
		c-0.1,0-0.2,0-0.5-0.1c-1.5-0.6-2.4-0.9-2.8-1.1c-0.4-0.3-0.7-0.6-0.7-1C161.7,64.1,162.1,63.8,162.7,63.8z M165.7,76.4
		c0.3,0,0.4,0.1,0.4,0.4c0,0.2-0.1,0.4-0.2,0.6c-1.6,1.8-2.5,2.6-2.7,2.6c-0.7,0-1-0.2-1-0.6c0-0.5,0.1-0.9,0.4-1
		C162.5,78.2,163.6,77.6,165.7,76.4z M178,64c0.3,0,0.5,0.1,0.5,0.4c0,0.3-0.1,0.5-0.4,0.6c-1.4,0.4-2.6,0.8-3.8,1.1l0,3.4
		c0.7,0,1.6,0,2.5,0.1c1,0,1.8,0.1,2.5,0.1c0.5,0,1-0.1,1.7-0.2c0.1,0,0.2,0.2,0.2,0.5c0,0.5-0.2,1-0.6,1.6
		c-0.3,0.4-0.5,0.6-0.7,0.6c-0.3,0-0.7-0.1-1.2-0.4c-0.7-0.4-1.5-0.6-2.4-0.8c-0.7-0.1-1.4-0.2-2.1-0.2l0,3.5h0c0.7,0,1.5,0,2.4,0.1
		c0.2,0,0.5-0.1,0.9-0.2c0.4,0,0.6,0.2,0.6,0.7c0,0,0,0.1,0,0.2c-0.1,0.2-0.1,0.5-0.2,0.9c0,0.6-0.1,1.2-0.1,1.8
		c0,0.4,0,0.9,0.1,1.6c0,0.5-0.2,0.8-0.6,0.8c-1.5-0.1-2.8-0.2-3.9-0.2c-1.4,0-2.2,0-2.6,0c-0.3,0-0.7,0.1-1.2,0.1
		c-0.4,0-0.6-0.2-0.6-0.7c0.1-0.9,0.2-1.7,0.2-2.4c0-0.6-0.1-1.4-0.2-2.4c0-0.4,0.2-0.6,0.6-0.6c0.2,0,0.5,0,0.7,0.1
		c0.2,0.1,0.6,0.1,1,0.1h1.6l0-3.5c-0.9,0-1.8,0.1-2.6,0.2c-0.6,0.1-1.5,0.4-2.7,1c-0.6,0-0.8-0.2-0.8-0.6c0-0.3,0.1-0.5,0.4-0.7
		c0.3-0.3,0.7-0.5,1.2-0.5c1.9-0.3,3.5-0.4,4.6-0.5l0-3c-0.4,0.1-0.8,0.2-1.2,0.2c-1.1,0.2-1.9,0.3-2.2,0.3c-0.4,0-0.8-0.2-1.2-0.5
		c-0.2-0.2-0.4-0.5-0.4-0.8c0-0.2,0.1-0.3,0.4-0.3c2.2,0,4.1-0.2,5.5-0.5c1.5-0.2,2.7-0.5,3.7-0.8C177.7,64,177.8,64,178,64z
		 M173.4,78.6c0.9,0,1.8,0,2.9,0.1c0.2,0,0.4-0.1,0.4-0.3v-3c0-0.2-0.1-0.3-0.2-0.3c-1.2,0-3.1-0.1-5.4-0.1c-0.3,0-0.5,0.2-0.5,0.5
		c0,1-0.1,1.9-0.2,2.8c0,0.3,0.2,0.4,0.6,0.4C171.6,78.7,172.5,78.6,173.4,78.6z"/>
	<path class="st0" d="M196.2,71.1c0,1.6-0.3,3.2-0.8,4.8c-0.8,2-1.8,3-3.2,3c-0.3,0-0.6-0.2-1-0.7c-0.4-0.5-0.5-0.9-0.5-1.2
		c0-0.2,0.3-0.3,1-0.3c0.8-0.1,1.3-0.3,1.5-0.5c0.6-0.5,1-1.4,1.4-2.8c0.3-1.1,0.4-2.2,0.4-3.2c0-1-0.5-1.4-1.6-1.4
		c-0.4,0-1.1,0-2,0.1c-0.5,1.8-1,3.3-1.6,4.4c-0.6,1.3-1.5,2.6-2.6,3.9c-1,1.1-1.7,1.7-2.1,1.7c-0.3,0-0.7-0.2-1.1-0.6
		c-0.4-0.4-0.6-0.6-0.6-0.9c0-0.1,0.1-0.3,0.3-0.4c0.2-0.1,0.6-0.3,1-0.6c1.1-0.7,2.1-1.5,2.9-2.5c1-1.2,1.8-2.9,2.6-4.9
		c-0.8,0.1-2.1,0.3-3.7,0.6c-0.4,0-0.6-0.2-0.6-0.6c0-0.7,0.7-1,2.2-1.1c0.4,0,1.2-0.1,2.4-0.1c0.2-0.8,0.4-1.6,0.4-2.6
		c0-0.5,0.2-0.8,0.6-0.8c0.5,0,0.7,0.2,0.7,0.7c0,0.2-0.2,1.1-0.5,2.6c0.8,0,1.3,0,1.6,0c1.1,0,1.9,0.3,2.4,0.9
		C196,69.1,196.2,69.9,196.2,71.1z M203.7,70.3c0,0.2-0.2,0.6-0.7,1.2c-0.5,0.5-0.8,0.8-1.1,0.8c-0.5,0-1.2-0.6-2.2-1.7
		c-1-1.1-1.5-1.9-1.5-2.4c0-0.2,0.1-0.4,0.3-0.4c0.1,0,0.4,0.2,0.9,0.6c0.5,0.4,1,0.8,1.8,1.2c0.6,0.3,1.2,0.5,1.8,0.5
		C203.5,70.1,203.7,70.2,203.7,70.3z"/>
	<path class="st0" d="M221.9,74.6c0,0.5-0.1,1-0.4,1.6c-0.4,1-1.6,1.9-3.6,2.5c-1.6,0.5-3.1,0.8-4.5,0.8c-1.7,0-2.8-0.7-3.4-2.1
		c-0.4-0.9-0.5-3.2-0.5-6.8c0-3.6,0.1-5.6,0.3-5.8c0.2-0.2,0.5-0.4,0.8-0.4c0.6,0,0.9,0.4,0.9,1.1c0,0.2-0.1,0.9-0.2,2.1
		c-0.2,1.9-0.3,3.7-0.3,5.3c0,1.4,0,2.3,0.1,2.6c0.1,1.2,0.4,2,0.9,2.3c0.4,0.2,0.8,0.3,1.4,0.3c1.2,0,2.5-0.3,3.9-1
		c1.3-0.6,2.4-1.4,3.4-2.3c0.6-0.6,1-0.9,1-0.9C221.8,74,221.9,74.2,221.9,74.6z"/>
	<path class="st0" d="M238.6,67.3c0,0.2-0.1,0.4-0.3,0.7c-0.2,0.3-0.3,0.5-0.5,0.5c-1.1-0.2-2-0.3-2.8-0.3c-0.1,0-0.3,0-0.5,0
		c-0.2,0-0.4,0-0.5,0c-0.4,1.7-0.8,3.3-1.4,4.7c-1.6,4.1-2.9,6.1-3.8,6.1c-0.3,0-0.6-0.1-1-0.2c-0.5-0.2-0.7-0.4-0.7-0.6
		c0-0.1,0.3-0.5,1-1.2c1.1-1.1,2.1-2.5,3-4.1c0.9-1.6,1.5-3.2,1.8-4.6c-1.5,0.1-2.9,0.3-4.1,0.7c-0.4-0.1-0.6-0.2-0.6-0.6
		s0.1-0.5,0.2-0.7c0.1-0.2,0.9-0.3,2.2-0.5c0.8-0.1,1.6-0.2,2.4-0.2c0.1-0.6,0.2-1.4,0.2-2.1c0-0.6,0.3-0.9,0.7-0.9
		c0.4,0,0.7,0.2,0.7,0.6c0,0.2-0.1,1-0.4,2.3c2.1-0.1,3.4-0.2,3.7-0.2S238.6,67,238.6,67.3z M245,76.8c0,0.4-0.1,0.8-0.4,1.4
		c-0.3,0.5-0.8,0.9-1.5,1.1c-0.4,0.1-1,0.1-1.9,0.1c-4.1,0-6.1-1-6.1-3c0-0.3,0.1-0.6,0.2-0.9c0.1-0.4,0.3-0.6,0.6-0.6
		c0.3,0,0.4,0.1,0.4,0.4c0,0.1,0,0.3-0.1,0.5c0,0.2-0.1,0.4-0.1,0.5c0,0.9,0.8,1.4,2.3,1.4c2.4,0,4.4-0.4,5.8-1.1
		c0.4-0.2,0.6-0.3,0.6-0.3C244.9,76.4,245,76.6,245,76.8z M242.8,70.5c-0.1,0.2-0.6,0.7-1.5,1.4c-0.9,0.7-1.6,1.1-1.9,1.2
		c-0.1,0-0.2-0.1-0.2-0.3c0-0.2,0.2-0.5,0.6-0.9c0.3-0.2,0.6-0.5,0.8-0.8c-0.1,0-0.3,0-0.6,0c-1.1,0-2,0.1-2.7,0.2
		c-0.9,0.2-1.3,0.3-1.3,0.3c-0.3,0-0.5-0.1-0.5-0.4c0-0.3,0.1-0.5,0.3-0.7c0.4-0.4,1.9-0.6,4.6-0.6h0.9
		C242.2,70,242.7,70.2,242.8,70.5z"/>
	<path class="st0" d="M250.2,65.2h6c0.2,0,0.3,0.1,0.3,0.3c0,0.3-0.1,0.5-0.3,0.6c-0.2,0.2-0.5,0.3-0.8,0.3c-0.1,0-0.5,0-1-0.1
		c-0.3,0-0.5,0-0.8,0l0,3.3h2.4c0.2,0,0.3,0.1,0.3,0.3c0,0.2-0.1,0.5-0.3,0.6c-0.2,0.2-0.4,0.3-0.8,0.3c-0.1,0-0.4,0-0.9-0.1
		c-0.2,0-0.5,0-0.7,0l0,3.5c1.1-0.3,1.9-0.4,2.5-0.5c0.3,0,0.4,0.1,0.4,0.4c0,0.4-0.2,0.6-0.5,0.7c-2.3,0.6-4.4,1.4-6.3,2.3
		c-0.5,0-0.7-0.2-0.7-0.6c0-0.4,0.1-0.6,0.2-0.8c0.1-0.2,0.3-0.3,0.6-0.4c0.9-0.2,1.7-0.5,2.5-0.6l0-3.8c-0.8,0-1.4,0.1-1.8,0.2
		c-0.3,0.1-0.4,0.2-0.5,0.2c-0.4,0-0.7-0.2-0.7-0.6c0-0.2,0.1-0.4,0.4-0.6c0.2-0.1,0.5-0.2,0.8-0.2h1.8l0-3.3
		c-0.8,0-1.5,0.1-1.9,0.2c-0.3,0.1-0.5,0.2-0.6,0.2c-0.4,0-0.7-0.3-0.7-0.7c0-0.2,0.1-0.4,0.4-0.6C249.5,65.3,249.8,65.2,250.2,65.2
		z M259.5,70.5c0.2,0,0.4,0,0.6,0c0.2,0,0.5,0,0.9,0h2.8c0.6,0,1.4,0,2.2,0.1c0.2,0,0.5,0,0.8-0.1c0.4,0,0.6,0.2,0.6,0.6
		c0,0,0,0,0,0.1c-0.1,0.1-0.1,0.3-0.2,0.6c0,0.4-0.1,0.7-0.1,1.1c0,0.2,0,0.4,0.1,0.8c0,0.4-0.2,0.6-0.6,0.6
		c-1.3-0.1-2.4-0.2-3.5-0.2c0,0.1,0.1,0.3,0.1,0.5c-0.1,0.6-0.1,1.2-0.1,1.7l0.1,2.8c0,0.9-0.2,1.3-0.7,1.3c-0.4,0-0.6-0.4-0.6-1.3
		c0.1-1.2,0.1-2.1,0.1-2.8c0-0.4,0-0.8,0-1.2c-1,1.2-2.2,2.2-3.6,3.2c-0.6,0.4-1.1,0.6-1.4,0.6c-0.3,0-0.6-0.1-1-0.4
		c-0.3-0.3-0.5-0.5-0.5-0.8c0-0.2,0.2-0.3,0.5-0.3c1.1-0.2,2.1-0.6,3-1.2c0.9-0.5,1.7-1.2,2.5-2c-0.4,0-0.7,0-0.9,0.1
		c-0.3,0-0.6,0.1-1.1,0.2c-0.4,0-0.6-0.2-0.6-0.6c0.1-0.6,0.2-1.1,0.2-1.5c0-0.3-0.1-0.7-0.2-1.2C258.8,70.7,259,70.5,259.5,70.5z
		 M257.9,68.7h11c0.2,0,0.3,0.1,0.3,0.3c0,0.2-0.1,0.5-0.3,0.6c-0.2,0.2-0.4,0.3-0.8,0.3c-0.3,0-0.9,0-1.9-0.1c-1.1,0-2.2,0-3.5,0
		c-2,0-3.4,0.1-4.3,0.2c-0.5,0.1-0.8,0.2-1,0.2c-0.4,0-0.6-0.2-0.7-0.6c0-0.2,0.2-0.4,0.4-0.6C257.4,68.8,257.6,68.7,257.9,68.7z
		 M258.1,63.8c0.2,0,0.4,0,0.6,0c0.2,0,0.5,0,0.9,0h4.2c0.9,0,2.1,0,3.4,0.1c0.2,0,0.5,0,0.7-0.1c0.4,0,0.7,0.2,0.7,0.6l0,0.1
		c-0.1,0.1-0.1,0.3-0.2,0.6c0,0.4-0.1,0.7-0.1,1.2c0,0.2,0,0.5,0.1,0.8c0,0.4-0.2,0.7-0.6,0.7c-1.9-0.1-3.6-0.2-5.1-0.2
		c-1.7,0-2.8,0-3.3,0.1c-0.4,0-0.9,0.1-1.5,0.2c-0.4,0-0.6-0.2-0.6-0.7c0.1-0.6,0.2-1.1,0.2-1.5c0-0.4-0.1-0.8-0.2-1.3
		C257.5,64.1,257.7,63.8,258.1,63.8z M261,66.8l0-1.8c-0.5,0-1,0-1.6,0c-0.3,0-0.4,0.1-0.4,0.4c0,0.4-0.1,0.7-0.2,1
		c0,0.3,0.2,0.5,0.5,0.5C259.8,66.8,260.4,66.8,261,66.8z M262.8,73.3c0.8,0,1.7,0,2.7,0.1c0.2,0,0.4-0.1,0.4-0.4v-1.1
		c0-0.1-0.1-0.2-0.2-0.2c-1.2-0.1-2.9-0.1-5.1-0.1c-0.3,0-0.4,0.1-0.4,0.4c0,0.3-0.1,0.6-0.2,0.9c0,0.3,0.2,0.5,0.5,0.5
		C261.2,73.3,262,73.3,262.8,73.3z M262.8,66.7c0.4,0,0.8,0,1.2,0L264,65c-0.6,0-1.2,0-1.9,0v1.8C262.3,66.7,262.6,66.7,262.8,66.7z
		 M268.5,73.8c0.5,0,0.7,0.2,0.7,0.7c0,0.3-0.2,0.5-0.5,0.7c-0.7,0.4-1.6,0.8-2.7,1.2c-0.1,0-0.2,0.1-0.3,0.1l0,0
		c1.8,1.2,2.9,1.9,3.3,2.1c0.3,0.1,0.6,0.1,1,0.2c0.3,0,0.4,0.1,0.4,0.3c0,0.3-0.2,0.5-0.6,0.8c-0.4,0.3-0.9,0.4-1.3,0.4
		c-0.3,0-0.6-0.1-0.8-0.3c-0.6-0.8-1.3-1.6-2-2.4c-0.3-0.3-0.6-0.6-0.9-0.7c0,0-0.1,0-0.1,0c-0.1,0-0.1,0-0.1,0
		c-0.4,0-0.6-0.2-0.6-0.5c0-0.2,0.1-0.4,0.3-0.5c1.6-0.8,2.9-1.4,3.8-2.1C268.3,73.8,268.4,73.8,268.5,73.8z M265.1,65v1.8
		c0.6,0,1.2,0,1.8,0.1c0.3,0,0.4-0.1,0.4-0.4v-1.2c0-0.1-0.1-0.2-0.2-0.2C266.5,65,265.8,65,265.1,65z"/>
	<path class="st0" d="M274.1,68.1h1.9l0-3.6c0-0.6,0.2-0.8,0.7-0.8c0.6,0,0.9,0.3,0.9,0.8l-0.1,3.6h2.3c0.2,0,0.3,0.1,0.3,0.3
		c0,0.3-0.1,0.5-0.3,0.6c-0.2,0.2-0.4,0.3-0.8,0.3c-0.1,0-0.4,0-0.9-0.1c-0.2,0-0.4,0-0.6,0l-0.1,4.3c1.1-0.3,2-0.4,2.6-0.5
		c0.3,0,0.4,0.1,0.4,0.4c0,0.4-0.2,0.6-0.5,0.6c-2.2,0.6-4.2,1.3-6,2.1c-0.5,0-0.7-0.2-0.7-0.6s0.1-0.6,0.2-0.8
		c0.1-0.2,0.2-0.3,0.6-0.4c0.8-0.2,1.5-0.4,2.2-0.5l0-4.6c-0.8,0-1.4,0.1-1.8,0.2c-0.3,0.1-0.5,0.2-0.6,0.2c-0.4,0-0.7-0.2-0.7-0.6
		c0-0.2,0.1-0.5,0.4-0.6C273.5,68.2,273.8,68.1,274.1,68.1z M283,69.9c0.2,0,0.5,0,0.7,0c0.2,0,0.6,0,1,0h3c0.7,0,1.5,0,2.4,0.1
		c0.2,0,0.5,0,0.8-0.1c0.4,0,0.7,0.2,0.7,0.6c0,0,0,0.1-0.1,0.2c-0.1,0.2-0.1,0.5-0.1,0.9c0,0.6-0.1,1.2-0.1,1.8c0,0.4,0,1,0.1,1.7
		c0,0.4-0.2,0.7-0.7,0.7c-0.7-0.1-1.3-0.1-1.9-0.1c0,0,0,0.1,0,0.1c0,0.6,0,1.4-0.1,2.3c0,0.2,0.1,0.3,0.2,0.3
		c0.2,0,0.8,0.1,1.6,0.1c1.4,0,2.7-0.2,3.7-0.6c0.2,0,0.3,0.2,0.3,0.5c0,0.4-0.1,0.8-0.4,1.3c-0.3,0.5-0.6,0.8-0.9,0.8
		c-0.2,0-1.9-0.2-5.1-0.7c-0.5-0.1-0.7-0.4-0.7-0.8c0.1-0.9,0.1-1.5,0.1-2c0-0.4,0-0.9-0.1-1.4c-0.2,0-0.4,0-0.7,0
		c-0.3,0-0.6,0-0.9,0c0,0.1,0,0.1,0,0.2c0,0-0.1,0-0.1,0.1c-0.3,0.6-0.9,1.4-1.7,2.2c-0.8,0.8-1.7,1.3-2.6,1.7
		c-0.6,0.3-1.1,0.4-1.5,0.4c-0.3,0-0.5-0.1-0.8-0.3c-0.4-0.3-0.6-0.6-0.6-1c0-0.3,0.3-0.4,0.8-0.5c1.1-0.1,2.2-0.4,3.2-0.9
		c0.9-0.5,1.5-1.2,2-1.9c-0.2,0-0.4,0-0.6,0c-0.3,0-0.7,0.1-1.2,0.2c-0.4,0-0.6-0.2-0.6-0.7c0.1-0.9,0.2-1.7,0.2-2.4
		c0-0.7-0.1-1.4-0.2-2.4C282.4,70.2,282.6,69.9,283,69.9z M286.9,63.4c0.6,0,0.9,0.3,0.9,0.8c-0.1,0.3-0.2,0.6-0.2,0.9h4.6
		c0.2,0,0.3,0.1,0.3,0.3c0,0.3-0.1,0.5-0.3,0.6c-0.2,0.2-0.5,0.3-0.8,0.3c-0.2,0-0.7,0-1.6-0.1l-0.4,1.7h3.8c0.2,0,0.4,0.1,0.4,0.2
		c0,0.3-0.1,0.6-0.3,0.9c-0.2,0.2-0.5,0.4-0.8,0.4c-0.3,0-1-0.1-2-0.2c-1.1-0.1-2.3-0.1-3.6-0.1c-2,0-3.5,0.1-4.4,0.2
		c-0.5,0.1-0.9,0.1-1,0.1c-0.4,0-0.6-0.2-0.7-0.6c0-0.2,0.2-0.4,0.4-0.6c0.2-0.1,0.4-0.2,0.8-0.2h2.9l-0.5-1.7c-0.4,0-0.7,0.1-1,0.1
		c-0.4,0.1-0.7,0.2-0.8,0.2c-0.4,0-0.6-0.2-0.7-0.6c0-0.2,0.2-0.4,0.4-0.6c0.2-0.1,0.4-0.2,0.8-0.2h3.4c0-0.3-0.1-0.6-0.2-0.8
		C286,63.7,286.3,63.4,286.9,63.4z M286.9,74.8c0.9,0,1.8,0,2.9,0.1c0.3,0,0.4-0.1,0.4-0.4v-1.1c0,0-0.1,0-0.1,0
		c-2.6,0-4.6,0.1-6.1,0.2c0,0-0.1,0-0.1,0c0,0.3,0,0.6-0.1,0.8c0,0.3,0.2,0.5,0.6,0.5C285.1,74.8,285.9,74.8,286.9,74.8z
		 M283.9,72.5c0,0,0.1,0,0.1,0h5.9c0.1,0,0.1,0,0.2,0v-1.2c0-0.1-0.1-0.2-0.2-0.2c-1.3,0-3.1-0.1-5.5-0.1c-0.3,0-0.5,0.1-0.5,0.4
		C284,71.8,284,72.1,283.9,72.5z M285.7,68h2.7l0.2-1.8c-0.5,0-1.1,0-1.7,0c-0.5,0-1,0-1.4,0L285.7,68z"/>
	<path class="st0" d="M301.9,70.9c0.2,0,0.4,0.1,0.4,0.3c0,0.3-0.1,0.5-0.3,0.6l-4.3,1.6c-0.6,0-0.8-0.2-0.8-0.7c0-0.6,0.2-1,0.6-1
		L301.9,70.9z M299.4,63.8c0.1,0,0.3,0.1,0.6,0.2c0.8,0.6,1.7,1.3,2.7,2c0.1,0.1,0.2,0.2,0.2,0.3c0,0.3-0.2,0.4-0.5,0.4
		c-0.1,0-0.2,0-0.5-0.1c-1.5-0.6-2.4-0.9-2.8-1.1c-0.4-0.3-0.7-0.6-0.7-1C298.4,64.1,298.7,63.8,299.4,63.8z M302.4,76.4
		c0.3,0,0.4,0.1,0.4,0.4c0,0.2-0.1,0.4-0.2,0.6c-1.6,1.8-2.5,2.6-2.7,2.6c-0.7,0-1-0.2-1-0.6c0-0.5,0.1-0.9,0.4-1
		C299.2,78.2,300.2,77.6,302.4,76.4z M314.7,64c0.3,0,0.5,0.1,0.5,0.4c0,0.3-0.1,0.5-0.4,0.6c-1.4,0.4-2.6,0.8-3.8,1.1l0,3.4
		c0.7,0,1.6,0,2.5,0.1c1,0,1.8,0.1,2.5,0.1c0.5,0,1-0.1,1.7-0.2c0.1,0,0.2,0.2,0.2,0.5c0,0.5-0.2,1-0.6,1.6
		c-0.3,0.4-0.5,0.6-0.7,0.6c-0.3,0-0.7-0.1-1.2-0.4c-0.7-0.4-1.5-0.6-2.4-0.8c-0.7-0.1-1.4-0.2-2.1-0.2l0,3.5h0c0.7,0,1.5,0,2.4,0.1
		c0.2,0,0.5-0.1,0.9-0.2c0.4,0,0.6,0.2,0.6,0.7c0,0,0,0.1,0,0.2c-0.1,0.2-0.1,0.5-0.2,0.9c0,0.6-0.1,1.2-0.1,1.8
		c0,0.4,0,0.9,0.1,1.6c0,0.5-0.2,0.8-0.6,0.8c-1.5-0.1-2.8-0.2-3.9-0.2c-1.4,0-2.2,0-2.6,0c-0.3,0-0.7,0.1-1.2,0.1
		c-0.4,0-0.6-0.2-0.6-0.7c0.1-0.9,0.2-1.7,0.2-2.4c0-0.6-0.1-1.4-0.2-2.4c0-0.4,0.2-0.6,0.6-0.6c0.2,0,0.5,0,0.7,0.1
		c0.2,0.1,0.6,0.1,1,0.1h1.6l0-3.5c-0.9,0-1.8,0.1-2.6,0.2c-0.6,0.1-1.5,0.4-2.7,1c-0.6,0-0.8-0.2-0.8-0.6c0-0.3,0.1-0.5,0.4-0.7
		c0.3-0.3,0.7-0.5,1.2-0.5c1.9-0.3,3.5-0.4,4.6-0.5l0-3c-0.4,0.1-0.8,0.2-1.2,0.2c-1.1,0.2-1.9,0.3-2.2,0.3c-0.4,0-0.8-0.2-1.2-0.5
		c-0.2-0.2-0.4-0.5-0.4-0.8c0-0.2,0.1-0.3,0.4-0.3c2.2,0,4.1-0.2,5.5-0.5c1.5-0.2,2.7-0.5,3.7-0.8C314.4,64,314.5,64,314.7,64z
		 M310.1,78.6c0.9,0,1.8,0,2.9,0.1c0.2,0,0.4-0.1,0.4-0.3v-3c0-0.2-0.1-0.3-0.2-0.3c-1.2,0-3.1-0.1-5.4-0.1c-0.3,0-0.5,0.2-0.5,0.5
		c0,1-0.1,1.9-0.2,2.8c0,0.3,0.2,0.4,0.6,0.4C308.3,78.7,309.1,78.6,310.1,78.6z"/>
	<path class="st0" d="M330.5,63.6c0.3,0,0.5,0.2,0.5,0.5s-0.1,0.5-0.4,0.6c-1.2,0.3-2.4,0.5-3.4,0.6v1.4h4.2c0.2,0,0.4,0.1,0.4,0.3
		c0,0.3-0.1,0.6-0.3,0.8c-0.2,0.2-0.5,0.3-0.8,0.3c-0.2,0-0.8-0.1-1.7-0.2c-0.6,0-1.2-0.1-1.8-0.1V69c0.7,0,1.5,0,2.4,0.1
		c0.2,0,0.5,0,0.8-0.1c0.4,0,0.7,0.2,0.7,0.6c0,0,0,0.1-0.1,0.1c-0.1,0.2-0.1,0.4-0.1,0.8c0,0.5-0.1,1.1-0.1,1.7
		c0,0.4,0,0.9,0.1,1.5c0,0.4-0.2,0.6-0.7,0.6c-1.1-0.1-2.1-0.2-3-0.2l0,1.1h3.3c0.2,0,0.3,0.1,0.3,0.3c0,0.3-0.1,0.5-0.3,0.6
		c-0.2,0.2-0.5,0.3-0.8,0.3c-0.2,0-0.6,0-1.3-0.1c-0.4,0-0.8,0-1.2,0v1.1c1.4-0.2,2.5-0.3,3.3-0.4c0.2,0,0.3,0.1,0.3,0.4
		c0,0.3-0.1,0.5-0.4,0.6c-3,0.5-5.8,1.1-8.3,1.8c-0.5,0-0.8-0.2-0.8-0.6c0-0.3,0.1-0.6,0.2-0.7c0.1-0.1,0.4-0.2,0.8-0.3
		c1.4-0.2,2.6-0.4,3.6-0.5v-1.3c-1.2,0-2.1,0.1-2.7,0.2c-0.4,0.1-0.6,0.2-0.7,0.2c-0.4,0-0.6-0.3-0.6-0.7c0-0.2,0.1-0.4,0.3-0.6
		c0.2-0.1,0.5-0.2,0.8-0.2h2.9v-1.1c-1.2,0-2,0-2.4,0.1c-0.3,0-0.7,0.1-1.2,0.2c-0.4,0-0.6-0.2-0.6-0.6c0.1-0.9,0.2-1.6,0.2-2.3
		c0-0.6-0.1-1.3-0.2-2.2c0-0.4,0.2-0.6,0.6-0.6c0.2,0,0.5,0,0.7,0c0.2,0,0.6,0,1,0h1.8v-1.1c-1.7,0-2.9,0.1-3.6,0.2
		c-0.4,0.1-0.7,0.2-0.9,0.2c-0.4,0-0.7-0.2-0.7-0.6c0-0.2,0.1-0.4,0.4-0.6c0.2-0.1,0.5-0.2,0.8-0.2h4.1l0-1.2
		c-0.3,0-0.6,0.1-0.9,0.1c-1,0.1-1.7,0.2-2,0.2c-0.4,0-0.8-0.1-1.1-0.4c-0.2-0.2-0.3-0.5-0.3-0.7c0-0.2,0.1-0.3,0.4-0.3
		c2,0,3.7-0.1,5-0.3c1.3-0.1,2.4-0.3,3.3-0.5C330.3,63.7,330.4,63.6,330.5,63.6z M325.8,73.4v-1.2c-1,0-1.8,0.1-2.5,0.1
		c-0.1,0-0.1,0-0.2,0c0,0.2-0.1,0.4-0.1,0.7c0,0.3,0.2,0.5,0.6,0.5C324.2,73.4,324.9,73.4,325.8,73.4z M323.2,71.3
		c0.1,0,0.2,0,0.2,0h2.4l0-1.2c-0.6,0-1.3,0-2.1,0c-0.3,0-0.5,0.1-0.5,0.4C323.2,70.7,323.2,71,323.2,71.3z M327.2,70.1l0,1.2h2.3
		c0,0,0.1,0,0.1,0v-1c0-0.1-0.1-0.2-0.2-0.2C328.8,70.1,328,70.1,327.2,70.1z M327.2,72.2v1.2c0.6,0,1.3,0,2,0.1
		c0.3,0,0.4-0.1,0.4-0.4v-1C328.7,72.2,327.9,72.2,327.2,72.2z M335.5,68.5c0.2-1.5,0.4-2.9,0.4-4.1c0-0.4,0.3-0.6,0.6-0.6
		c0.5,0,0.7,0.2,0.7,0.7c0,0.1,0,0.4-0.1,0.9c-0.1,1.2-0.3,2.2-0.4,3.2h3c0.1,0,0.4-0.1,0.8-0.2c0.6,0,0.8,0.3,0.8,0.8
		c-0.4,1.8-0.6,3.6-0.7,5.4c-0.2,2.5-0.6,4.1-1.4,4.8c-0.6,0.7-1.4,1.1-2.4,1.1c-0.4,0-0.8-0.2-1-0.5c-0.2-0.3-0.3-0.6-0.3-0.9
		c0-0.3,0.1-0.4,0.4-0.5c1.3-0.1,2.1-0.4,2.5-0.9c0.5-0.5,0.8-2.1,1.1-4.7c0.2-1.6,0.2-2.6,0.2-2.9c0-0.3-0.1-0.4-0.3-0.4h-3
		c-0.2,1.2-0.4,2.2-0.6,3c-0.4,1.5-0.9,3-1.5,4.3c-0.5,1.1-1.2,2.1-2.1,2.9c-0.3,0.3-0.6,0.5-0.9,0.5c-0.2,0-0.5-0.1-0.8-0.4
		c-0.3-0.3-0.4-0.6-0.5-0.9c0-0.2,0.1-0.4,0.3-0.4c0.9-0.3,1.5-0.8,2-1.4c0.6-0.8,1.2-2,1.8-3.6c0.4-1.2,0.7-2.5,1-4
		c-0.6,0-1.1,0.1-1.7,0.2c-0.5,0.1-0.8,0.2-1,0.2c-0.4,0-0.6-0.2-0.6-0.5c0-0.5,0.2-0.8,0.7-0.9C333.3,68.6,334.2,68.5,335.5,68.5z"
		/>
	<path class="st0" d="M359,67.6c0,0.4-0.1,1.3-0.2,3l-0.4,5.1c0.3,0.3,0.5,0.6,0.5,0.8c0,0.4-0.4,0.7-1.2,0.7
		c-0.2,0-0.9-0.1-2.2-0.2c-1.2-0.1-2.4-0.1-3.6-0.1c-1.2,0-2.3,0.1-3.2,0.3c-0.8,0.2-1.4,0.3-1.9,0.3c-0.4,0-0.6-0.3-0.6-0.8
		c0-0.4,0.3-0.7,0.8-0.8c0.6-0.2,2.1-0.3,4.4-0.3h3.7c0.6,0,1.2,0,1.8,0.1l0.1-7c-0.5-0.1-1.9-0.2-4.2-0.2c-1.2,0-2.4,0-3.4,0.1
		c-1.5,0.2-2.2,0.2-2.1,0.2c-0.4,0-0.6-0.2-0.6-0.7c0-0.6,0.6-0.9,1.9-0.9c0.9,0,2.4,0,4.2,0.1c1.9,0,3.3,0,4.2,0
		c0.2,0,0.4-0.1,0.5-0.2c0.1,0,0.2,0,0.4,0C358.7,66.8,359,67.1,359,67.6z"/>
	<path class="st0" d="M371.4,69.4c0,0.3-0.1,0.4-0.4,0.4c-0.5,0-1.4-0.3-2.5-0.9c-1.3-0.6-1.9-1.1-1.9-1.6c0-0.3,0.1-0.5,0.3-0.7
		c0.2-0.2,0.5-0.3,0.7-0.3c0.3,0,1.1,0.4,2.2,1.3C370.9,68.6,371.4,69.1,371.4,69.4z M380.8,68.1c0,0.5-0.6,1.5-1.8,3
		c-2.4,3.2-5.4,5.6-9.2,7.1c-1.1,0.5-1.9,0.7-2.3,0.7c-0.7,0-1-0.3-1-1c0-0.6,0.4-1,1.3-1.2c1-0.2,2.3-0.7,3.8-1.3
		c1.9-0.8,3.6-2,5-3.4c1.5-1.4,2.5-2.7,3-3.8c0.2-0.4,0.4-0.5,0.6-0.5C380.6,67.6,380.8,67.8,380.8,68.1z"/>
	<path class="st0" d="M404.4,69.1c0,0.3-0.2,0.7-0.6,1.3c-0.3,0.5-0.6,0.8-0.9,0.8c-0.2,0-0.7-0.1-1.5-0.4c-0.6-0.2-1.6-0.4-2.9-0.6
		c-0.1,1.9-0.3,3.3-0.5,4.1c-0.4,1.4-1.1,2.5-2.1,3.5c-1.4,1.3-2.6,1.9-3.6,1.9c-0.4,0-0.8-0.1-1.4-0.4c-0.6-0.3-0.9-0.6-0.9-1
		c0-0.1,0.4-0.3,1.3-0.5c0.9-0.2,1.8-0.6,2.7-1.2c1.9-1.3,2.9-3.5,3.1-6.7c-0.9-0.1-1.6-0.2-2.3-0.2c-0.6,0-1.4,0.1-2.4,0.2v2.8
		c0,0.6,0,0.9,0,1c-0.1,0.4-0.3,0.6-0.6,0.6c-0.6,0-0.8-0.3-0.8-0.8v-3.3c-0.8,0.1-2,0.4-3.6,0.8c-0.8,0.3-1.2,0.5-1.2,0.5
		c-0.4,0-0.7-0.2-0.7-0.7c0-0.5,0.2-0.9,0.7-1.2c0.5-0.2,2.1-0.5,4.8-0.7v-3.3c0-0.5,0.2-0.8,0.7-0.8c0.4,0,0.6,0.3,0.7,0.9
		c0,0,0,0.5,0,1.3v1.7c0.9,0,2.5,0,4.7,0c0-0.3,0-0.7,0-1.1v-2.4c0-0.4,0.3-0.7,0.8-0.7c0.4,0,0.6,0.2,0.6,0.7c0,0.4,0.1,1,0,1.8
		c0,1-0.1,1.6-0.1,1.8c1.6,0.1,2.9,0.1,4,0.1c0.2,0,0.4,0,0.8,0c0.3,0,0.6,0,0.8,0S404.4,68.9,404.4,69.1z"/>
	<path class="st0" d="M413.6,67.3c0,1.4-0.2,2.8-0.6,4.3c-0.4,1.6-1,3-1.7,4c-0.7,0.9-1.2,1.5-1.6,1.9c-0.6,0.4-0.9,0.6-1.2,0.6
		c-0.2,0-0.6-0.2-1.2-0.6c-0.6-0.4-0.8-0.7-0.8-0.9c0-0.2,0.3-0.4,1-0.7c2-0.8,3.4-2.3,4.2-4.5c0.4-1,0.6-2.5,0.7-4.4
		c0-0.6,0.2-0.8,0.5-0.8C413.3,66.2,413.6,66.6,413.6,67.3z M425.2,71.3c0,0.2-0.6,0.9-1.8,2.2c-0.9,0.9-1.9,1.9-3.1,2.9
		c-1.6,1.2-2.7,1.9-3.5,1.9c-0.6,0-0.9-0.4-0.9-1.2c0-0.6,0-1.5,0-2.6c0-1.2,0.1-2,0.1-2.6c0-0.7,0-1.6-0.1-2.9
		c-0.1-1.3-0.1-2.2-0.1-2.9c0-0.7,0.3-1.1,1-1.1c0.2,0,0.4,0.1,0.5,0.4c0.1,0.2,0.2,0.4,0.2,0.6l-0.1,10c0.3,0,1.2-0.4,2.5-1.3
		c1.1-0.8,2.3-1.7,3.5-2.9c0.8-0.8,1.2-1.2,1.2-1.2C425,70.7,425.2,70.9,425.2,71.3z"/>
	<path class="st0" d="M445.6,69.5c0,0.3-0.3,0.6-0.9,1c-1.4,0.9-3.4,2-6,3.4c0,0.1,0,0.4,0,0.8c0,0.3,0,0.6,0,0.8
		c0,0.5-0.3,0.7-0.8,0.7c-0.3,0-0.5-0.2-0.6-0.6c0-0.1,0-0.4,0-1c-1,0.5-1.6,0.8-1.9,1.1c-0.8,0.6-1.2,1.1-1.2,1.7
		c0,0.4,0.4,0.6,1.2,0.8c0.6,0.1,1.2,0.2,1.8,0.2c1.7,0,3.3-0.3,4.7-0.8c1.1-0.4,1.6-0.6,1.7-0.6c0.1,0,0.2,0.1,0.2,0.4
		c0,0.5-0.2,1-0.5,1.5c-0.2,0.4-0.9,0.6-1.9,0.8c-0.8,0.1-1.7,0.1-2.7,0.1c-1.3,0-2.4-0.1-3.4-0.4c-1.5-0.4-2.2-1.1-2.2-2
		c0-0.8,0.6-1.6,1.7-2.4c0.2-0.2,1.1-0.7,2.6-1.7c0-0.9-0.1-1.4-0.1-1.6c-0.2-0.6-0.6-0.9-1.2-0.9c-0.9,0-1.6,0.2-2.2,0.5
		c-0.3,0.1-0.9,0.6-1.9,1.4c-0.1,0.1-0.3,0.2-0.5,0.3c-0.4,0-0.7-0.3-0.7-0.9c0-0.4,0.5-0.9,1.4-1.4c1.3-0.8,2.5-1.8,3.5-3.2
		c-0.5,0.1-1.3,0.2-2.3,0.3c0,0-0.3,0.1-0.9,0.2c-0.4,0.1-0.7,0.2-0.9,0.2c-0.4,0-0.6-0.2-0.6-0.7c0-0.6,0.5-0.9,1.4-1
		c0.9,0,2.2-0.1,3.9-0.1c0.2-0.3,0.5-0.9,0.9-1.9c0.2-0.5,0.5-0.7,0.9-0.7c0.5,0,0.8,0.2,0.8,0.7c0,0.2-0.3,0.8-1,1.9
		c0.5,0,1.2,0,2.3,0c1,0,1.8,0,2.3,0c0.1,0,0.3,0,0.6,0c0.2,0,0.4-0.1,0.6-0.1c0.1,0,0.2,0.1,0.3,0.2c0,0.3-0.2,0.6-0.5,1
		c-0.3,0.4-0.6,0.6-0.9,0.6c-0.3,0-0.6-0.1-0.9-0.2c-0.3-0.1-0.6-0.1-0.9-0.2c-0.7-0.2-1.8-0.3-3.3-0.3c-0.8,1-1.5,1.9-2.2,2.6
		c0.6-0.1,1.1-0.1,1.6-0.1c1.3,0,2.1,0.8,2.2,2.3c0,0.2,0,0.3,0.1,0.4c2.1-1.3,3.9-2.4,5.2-3.3c0.4-0.3,0.8-0.4,1.1-0.4
		C445.4,68.8,445.6,69,445.6,69.5z"/>
	<path class="st0" d="M465,76.4c-0.2,1.3-0.8,2.1-1.8,2.4c-0.4,0.1-1.4,0.2-3.2,0.2c-2.1,0-3.8-0.2-5.2-0.6
		c-2.3-0.6-3.4-1.7-3.4-3.2c0-0.4,0.1-0.9,0.3-1.4c0.3-0.6,0.6-0.9,1.1-0.9c0.1,0,0.2,0.1,0.3,0.3c-0.1,0.1-0.2,0.4-0.5,0.9
		c-0.2,0.3-0.3,0.7-0.3,1c0,1.3,1.5,2,4.6,2c2.4,0,4.3-0.2,5.8-0.6c1.3-0.3,2-0.5,2-0.5C464.9,76.1,465,76.2,465,76.4z M462,67.5
		c0,0.3-0.3,0.5-0.9,0.8c-2.5,1.2-3.9,1.8-4.1,1.8c-0.2,0-0.3-0.1-0.3-0.3c0-0.3,0.4-0.6,1.2-1.1c0.8-0.5,1.2-0.8,1.3-0.9
		c-0.1,0-0.3-0.1-0.8-0.1c-1.5,0-2.7,0-3.4,0.1c-0.1,0-0.4,0.1-0.8,0.2c-0.3,0-0.6,0.1-0.8,0.1c-0.5,0-0.7-0.2-0.7-0.5
		c0-0.6,0.3-0.9,0.8-1.1c0.6-0.2,1.5-0.2,2.7-0.2h1.6C460.4,66.3,461.8,66.7,462,67.5z M466.4,66.4c0,0.1-0.1,0.4-0.4,0.7
		c-0.3,0.3-0.5,0.5-0.6,0.5c-0.3,0-0.8-0.3-1.4-1c-0.7-0.7-1-1.1-1-1.3c0-0.2,0.1-0.3,0.2-0.3c0.6,0.2,1.6,0.6,3,1.1
		C466.4,66.1,466.4,66.2,466.4,66.4z M470,65.1c0,0.1-0.1,0.4-0.4,0.7c-0.3,0.3-0.5,0.5-0.6,0.5c-0.3,0-0.8-0.3-1.5-1
		c-0.7-0.7-1-1.1-1-1.4c0-0.2,0.1-0.3,0.2-0.3c0.4,0.2,0.9,0.4,1.4,0.6c0.4,0.2,0.9,0.3,1.5,0.5C469.8,64.8,470,64.9,470,65.1z"/>
	<path class="st0" d="M472.9,67.1h3c0-0.8,0-1.6,0-2.4c0-0.7,0.3-1,0.8-1c0.5,0,0.7,0.2,0.7,0.7c0,0.1,0,0.4-0.1,0.7
		c0,0.4,0,0.7,0,0.9c0,0.4,0,0.7,0,1.1h2.4c0.2,0,0.4,0.1,0.4,0.3c0,0.3-0.1,0.6-0.3,0.8c-0.2,0.2-0.5,0.3-0.8,0.3
		c-0.2,0-0.5-0.1-1.2-0.2c-0.2,0-0.4,0-0.5,0c0,1.2,0,2.3,0.1,3.4c0.7-0.2,1.3-0.3,1.8-0.4c0.2,0,0.3,0.1,0.3,0.4
		c0,0.3-0.1,0.5-0.4,0.6c-0.6,0.2-1.1,0.4-1.7,0.6v0c0,1.7,0.1,3,0.1,3.9c0,1.4-0.4,2.4-1.1,3.1c-0.6,0.5-1.4,0.8-2.2,0.8
		c-0.4,0-0.7-0.1-1-0.4c-0.2-0.2-0.3-0.5-0.3-0.7c0-0.3,0.2-0.4,0.5-0.5c1.3-0.3,2.1-0.6,2.4-1.1c0.2-0.3,0.3-0.8,0.3-1.5
		c0-1.1,0-2.1,0-3.2c-1.3,0.5-2.5,1-3.6,1.6c-0.5,0-0.7-0.2-0.7-0.6c0-0.3,0.1-0.6,0.2-0.7c0.1-0.2,0.3-0.4,0.6-0.5
		c1.4-0.4,2.5-0.8,3.6-1.1c0-1,0-2,0-3c0-0.2,0-0.5,0-0.7c-0.1,0-0.1,0-0.2,0c-1.3,0-2.2,0.1-2.7,0.2c-0.3,0.1-0.6,0.2-0.6,0.2
		c-0.4,0-0.7-0.2-0.7-0.6c0-0.2,0.1-0.5,0.4-0.6C472.3,67.2,472.5,67.1,472.9,67.1z M481.2,71.4h11.1c0.2,0,0.4,0.1,0.4,0.3
		c0,0.3-0.1,0.6-0.3,0.8c-0.2,0.2-0.5,0.3-0.8,0.3c-0.3,0-0.9-0.1-2-0.2c-0.8,0-1.6-0.1-2.4-0.1l0,1.9c0.1,0,0.2,0,0.4,0h2.8
		c0.5,0,0.7,0.2,0.7,0.7c0,0.3-0.2,0.5-0.7,0.5c-1.3,0-2.3,0.1-3,0.3c-0.1,0-0.2,0-0.2,0l0,1.6c0.8,0.2,1.5,0.3,1.8,0.3
		c1,0.2,1.8,0.2,2.4,0.2c0.5,0,0.9,0,1.4-0.1c0.2,0,0.3,0,0.4,0c0.2,0,0.3,0.1,0.3,0.4c0,0.4-0.3,0.9-0.8,1.4
		c-0.6,0.6-1,0.8-1.4,0.8c-0.2,0-0.4-0.1-0.6-0.2c-1.2-0.6-3.4-1.4-6.8-2.5c-0.5-0.1-0.9-0.2-1.2-0.2c-0.1,0-0.3,0-0.4-0.1
		c-0.5,0.9-1,1.6-1.5,2.1c-0.4,0.4-0.6,0.6-0.9,0.6c-0.3,0-0.6-0.1-0.8-0.3c-0.4-0.4-0.6-0.7-0.6-1.1c0-0.2,0.3-0.4,0.8-0.5
		c0.6-0.1,1.1-0.6,1.7-1.3c0.5-0.8,0.9-1.7,1.2-2.9c0.1-0.2,0.2-0.3,0.6-0.3c0.4,0,0.7,0.2,0.7,0.6c0,0,0,0.1-0.1,0.2
		c-0.1,0.6-0.3,1.2-0.6,1.9c0.1,0,0.2,0,0.3,0c1.1,0.2,2,0.4,2.8,0.6l-0.1-4.6c-1.8,0-3.1,0.1-3.9,0.2c-0.5,0.1-0.8,0.2-1,0.2
		c-0.4,0-0.7-0.3-0.7-0.7c0-0.2,0.1-0.4,0.4-0.6C480.5,71.5,480.8,71.4,481.2,71.4z M482.5,63.9c0.2,0,0.5,0,0.7,0.1
		c0.2,0,0.6,0.1,1,0.1h2.6c0.6,0,1.3,0,2.1,0.1c0.2,0,0.5-0.1,0.8-0.2c0.4,0,0.7,0.2,0.7,0.7c0,0,0,0.1-0.1,0.2
		c-0.1,0.2-0.1,0.5-0.1,1c0,0.6-0.1,1.3-0.1,2c0,0.4,0,1,0.1,1.8c0,0.5-0.2,0.7-0.7,0.7c-1.5-0.1-2.9-0.2-4.1-0.2
		c-1.1,0-1.8,0-2.1,0.1c-0.3,0-0.6,0.1-0.9,0.1c-0.4,0-0.6-0.2-0.6-0.6c0.1-1,0.2-1.9,0.2-2.6c0-0.7-0.1-1.6-0.2-2.6
		C481.9,64.2,482.1,63.9,482.5,63.9z M485.5,69.1c0.9,0,2,0,3.1,0.1c0.3,0,0.4-0.1,0.4-0.3v-1.3c-2.3,0-4.1,0.1-5.4,0.2
		c0,0-0.1,0-0.2,0c0,0.4-0.1,0.7-0.1,1c0,0.2,0.2,0.4,0.6,0.4C484.3,69.1,484.9,69.1,485.5,69.1z M483.5,66.6c0.1,0,0.1,0,0.2,0h5.3
		c0,0,0.1,0,0.1,0v-1.1c0-0.2-0.1-0.3-0.2-0.3c-1.1-0.1-2.7-0.1-4.9-0.1c-0.3,0-0.5,0.2-0.5,0.5C483.5,66,483.5,66.3,483.5,66.6z"/>
	<path class="st0" d="M501.9,63.7c0.4,0,0.6,0.2,0.6,0.5c0,0.2-0.1,0.4-0.2,0.7c-0.7,0.8-1.5,1.6-2.3,2.4c0.1,0.2,0.1,0.4,0.1,0.6
		c-0.1,1.3-0.1,2.6-0.1,3.6l0.1,7.5c0,1-0.3,1.5-0.8,1.5c-0.4,0-0.6-0.5-0.6-1.5c0.1-3.2,0.1-5.7,0.1-7.5c0-1,0-2-0.1-3.2
		c-0.2,0.1-0.4,0.2-0.5,0.4c-0.6,0.4-1.1,0.7-1.6,0.7c-0.3,0-0.7-0.1-1.1-0.4c-0.4-0.3-0.5-0.6-0.5-0.9c0-0.2,0.2-0.4,0.5-0.4
		c1.2-0.3,2.2-0.7,3.2-1.3c1-0.6,2-1.4,2.9-2.4C501.6,63.8,501.8,63.7,501.9,63.7z M503.7,68.4h2l-0.1-3.2c0-0.5,0.2-0.7,0.7-0.7
		c0.6,0,0.8,0.2,0.8,0.7l0,3.2h3.4l-0.1-3.2c0-0.5,0.2-0.7,0.7-0.7c0.6,0,0.9,0.2,0.9,0.7l-0.1,3.2h2.6c0.2,0,0.4,0.1,0.4,0.3
		c0,0.3-0.1,0.6-0.3,0.8c-0.2,0.2-0.5,0.3-0.8,0.3c-0.3,0-0.9-0.1-1.9-0.2l-0.1,3.8c0.3,0,0.5,0,0.7,0.1c1.1,0.1,2.1,0.2,3,0.2
		c0.4,0,0.8,0,1.1-0.1c0.1,0,0.1,0.1,0.1,0.3c0,0.4-0.1,0.9-0.4,1.3c-0.3,0.5-0.5,0.7-0.8,0.7c-0.3,0-0.6-0.1-0.9-0.3
		c-1.1-0.5-2.2-0.9-3.2-1.1c-0.8-0.1-1.7-0.2-2.8-0.2c-1.3,0-2.5,0.1-3.5,0.3c-1,0.2-2,0.6-3,1c-0.3,0.1-0.5,0.2-0.7,0.2
		c-0.5,0-0.7-0.3-0.7-0.8c0-0.3,0.1-0.5,0.4-0.7c0.2-0.2,0.5-0.3,0.8-0.4c1.4-0.2,2.7-0.4,3.7-0.5l-0.1-3.8c-0.6,0-1.1,0.1-1.5,0.1
		c-0.5,0.1-0.8,0.2-1,0.2c-0.4,0-0.7-0.3-0.7-0.7c0-0.2,0.1-0.4,0.4-0.6C503.1,68.5,503.4,68.4,503.7,68.4z M503.3,77.9
		c0.4,0.1,0.7,0.1,0.8,0.1c0.7,0,1.6-0.4,2.6-1.1c0.2,0,0.3,0.1,0.3,0.3c0,0.3-0.4,0.8-1.1,1.6c-0.7,0.8-1.3,1.2-1.8,1.2
		c-0.3,0-0.5-0.2-0.7-0.5c-0.2-0.4-0.4-0.8-0.4-1.2C503,78,503.1,77.9,503.3,77.9z M507.1,73.3c0.7-0.1,1.3-0.1,1.8-0.1
		c0.6,0,1.1,0,1.8,0.1l-0.1-3.7c-0.7,0-1.4,0-2.1,0c-0.5,0-0.9,0-1.3,0L507.1,73.3z M511,76.9c0,0,0.1,0,0.1,0c0.8,0.5,1.5,0.9,2,1
		c0.3,0.1,0.8,0.2,1.3,0.2c0.2,0,0.3,0.1,0.3,0.3c0,0.3-0.2,0.6-0.5,0.9c-0.7,0.4-1.2,0.6-1.5,0.6c-0.1,0-0.3-0.1-0.4-0.2
		c-0.2-0.2-0.7-1-1.5-2.3c-0.1-0.1-0.1-0.2-0.1-0.3C510.7,77,510.8,76.9,511,76.9z"/>
	<path class="st0" d="M534.8,74.6c0,0.5-0.1,1-0.4,1.6c-0.4,1-1.6,1.9-3.6,2.5c-1.6,0.5-3.1,0.8-4.5,0.8c-1.7,0-2.8-0.7-3.4-2.1
		c-0.4-0.9-0.5-3.2-0.5-6.8c0-3.6,0.1-5.6,0.3-5.8c0.2-0.2,0.5-0.4,0.8-0.4c0.6,0,0.9,0.4,0.9,1.1c0,0.2-0.1,0.9-0.2,2.1
		c-0.2,1.9-0.3,3.7-0.3,5.3c0,1.4,0,2.3,0.1,2.6c0.1,1.2,0.4,2,0.9,2.3c0.4,0.2,0.8,0.3,1.4,0.3c1.2,0,2.5-0.3,3.9-1
		c1.3-0.6,2.4-1.4,3.4-2.3c0.6-0.6,1-0.9,1-0.9C534.7,74,534.8,74.2,534.8,74.6z"/>
	<path class="st0" d="M556.4,77.4c-0.1,0.3-0.3,0.7-0.8,1.2c-0.4,0.5-0.8,0.8-1.1,0.8c-0.4,0-1-0.3-2-0.9c-0.6-0.4-1.2-0.8-1.7-1.2
		c-0.5-0.3-1.1-0.6-2-0.9c-0.2,2-1.4,3-3.7,3c-0.9,0-1.6-0.2-2.3-0.6c-0.8-0.4-1.2-1.1-1.2-1.9c0-0.9,0.4-1.5,1.3-1.9
		c0.7-0.3,1.5-0.5,2.4-0.5c0.6,0,1.4,0.1,2.2,0.3c0-0.4,0-0.9,0-1.5c0-0.8,0-1.3,0-1.5c0,0,0,0,0-0.1c0-0.1,0-0.1,0-0.1
		c-1.6,0.1-2.9,0.2-3.9,0.4c-0.1,0-0.2,0-0.4,0.1c-0.2,0.1-0.3,0.1-0.4,0.1c-0.4,0-0.6-0.2-0.6-0.7c0-0.5,0.4-0.9,1.3-0.9
		c0.7-0.1,2-0.2,3.8-0.2c0-0.8,0-1.8,0-3c-1.3,0-2.1,0.1-2.3,0.1c-0.9,0.1-1.6,0.2-2.3,0.3c-0.6,0.2-0.9,0.2-1,0.2
		c-0.5,0-0.8-0.3-0.8-0.9c0-0.2,0.1-0.4,0.2-0.5c0.2-0.2,2.2-0.3,6.1-0.3c0-1.1-0.1-1.8-0.1-1.9c0-0.6,0.3-0.9,0.8-0.9
		c0.6,0,0.9,0.3,0.9,0.9c0,0.5,0,1.2-0.1,1.9c2.9,0.1,4.9,0.2,5.8,0.2c0.4,0,0.5,0.1,0.5,0.2c0,0.3-0.1,0.6-0.4,1
		c-0.3,0.4-0.5,0.6-0.7,0.6c0.1,0-0.3-0.1-1.2-0.4c-0.9-0.2-2.2-0.4-4.1-0.5c0,1,0,2,0,2.9c1.8,0,3.4,0.1,4.8,0.3
		c0.1,0,0.2,0,0.3,0.1c0,0,0.1,0.1,0.1,0.2c0,0.3-0.1,0.5-0.3,0.8c-0.2,0.3-0.4,0.5-0.6,0.5c0,0-0.6-0.1-1.5-0.3
		c-0.8-0.2-1.8-0.2-2.9-0.3c0,0.2,0,1.3-0.1,3.6c1.5,0.4,2.9,0.9,4.2,1.4c0.9,0.3,1.8,0.5,2.8,0.6C556.2,77.2,556.4,77.2,556.4,77.4
		z M547.6,75.9c-1-0.3-1.8-0.4-2.4-0.4c-1.6,0-2.5,0.5-2.5,1.4c0,0.4,0.3,0.8,0.9,1c0.4,0.2,0.9,0.3,1.4,0.3c0.8,0,1.4-0.2,1.8-0.6
		C547.2,77.3,547.4,76.8,547.6,75.9z"/>
	<path class="st0" d="M578.9,67.6c-0.1,0.3-0.3,0.8-0.7,1.2c-0.4,0.5-0.8,0.8-1.1,0.8c-0.3-0.1-0.8-0.3-1.4-0.6
		c-1.3-0.5-2.8-0.8-4.4-0.9c0,0.9,0,2.2-0.1,4c0.4,1.1,0.6,1.9,0.6,2.4c0,1-0.3,1.9-1,2.8c-0.6,0.8-1.4,1.5-2.3,1.9
		c-1.1,0.6-2,0.8-2.7,0.8c-0.4,0-0.8-0.2-1.2-0.6c-0.4-0.4-0.6-0.8-0.6-1.2c0-0.1,0.2-0.2,0.7-0.3c1.4-0.1,2.4-0.2,3-0.4
		c1.1-0.3,1.9-0.9,2.4-1.8c0.3-0.6,0.5-1.1,0.5-1.5c0,0,0-0.1,0-0.1c0-0.1,0-0.2,0-0.2c-0.3,0.5-0.7,0.9-1.3,1.2
		c-0.6,0.3-1.2,0.5-1.7,0.5c-0.8,0-1.5-0.3-2.2-0.8c-0.6-0.5-1-1.2-1-1.9c0-0.9,0.4-1.5,1.1-2c0.6-0.4,1.4-0.6,2.3-0.6
		c0.7,0,1.3,0.2,2.1,0.6c0-0.4,0-1.3,0-2.8c-2.4,0-4.5,0.3-6.5,0.9c-1.1,0.4-1.7,0.6-1.8,0.6c-0.5,0-0.8-0.3-0.8-0.9
		c0-0.5,0.6-0.9,1.9-1.2c0.8-0.1,1.6-0.2,2.4-0.3c1.4-0.2,3-0.3,4.8-0.3c-0.1-1.5-0.1-2.3-0.1-2.4c0-0.7,0.2-1,0.7-1
		c0.6,0,0.8,0.4,0.8,1.3c0,0.2,0,0.6,0,1.1c0,0.4,0,0.8,0,1c2.7,0.2,5.1,0.3,7.1,0.3C578.7,67.4,578.9,67.4,578.9,67.6z M570,72.3
		c-0.5-0.7-1.2-1-2-1c-0.5,0-1,0.1-1.5,0.4c-0.5,0.3-0.7,0.7-0.7,1.2c0,0.5,0.2,0.9,0.5,1.2c0.4,0.3,0.8,0.4,1.3,0.4
		C569.1,74.5,569.9,73.8,570,72.3z"/>
	<path class="st0" d="M589.1,78.1c0,0.8-0.3,1.5-0.8,2c-0.5,0.5-1.2,0.8-2,0.8c-0.8,0-1.5-0.3-2-0.8c-0.6-0.6-0.8-1.2-0.8-2
		s0.3-1.5,0.8-2c0.6-0.6,1.2-0.9,2-0.9c0.8,0,1.5,0.3,2,0.9C588.8,76.6,589.1,77.3,589.1,78.1z M588.2,78.1c0-0.5-0.2-1-0.6-1.4
		c-0.4-0.4-0.8-0.6-1.4-0.6c-0.5,0-1,0.2-1.4,0.6c-0.4,0.4-0.6,0.9-0.6,1.4s0.2,1,0.6,1.4c0.4,0.4,0.9,0.6,1.4,0.6
		c0.5,0,1-0.2,1.4-0.6C588,79.1,588.2,78.6,588.2,78.1z"/>
</g>
</svg>
