<?xml version="1.0" encoding="utf-8"?>
<!-- Generator: Adobe Illustrator 24.0.3, SVG Export Plug-In . SVG Version: 6.00 Build 0)  -->
<svg version="1.1" id="レイヤー_1" xmlns="http://www.w3.org/2000/svg" xmlns:xlink="http://www.w3.org/1999/xlink" x="0px"
	 y="0px" viewBox="0 0 139.5 118.4" style="enable-background:new 0 0 139.5 118.4;" xml:space="preserve">
<style type="text/css">
	.st0{fill:#E96500;}
	.st1{fill:#FF7E04;}
	.st2{fill:#FF9200;}
	.st3{fill:#813512;}
	.st4{fill:#722405;}
</style>
<g>
	<g>
		<path class="st0" d="M88.8,73c0,0-5.6,11-4,26.3c0.2,1.6-13.3,6.8-9,9c3.2,1.6,23.7,0.6,25.7-3.4c2-4,6.8-35.5,6.8-35.5L88.8,73z"
			/>
	</g>
	<g>
		<path class="st1" d="M93.1,80.2c0,0-4.9,15.1-2,25.1c0.6,2-8.7,3.6-7.6,7.4c1.2,4,25.5,0.2,27.1-1.8c2.8-3.6,2-7.8,6.4-12.4
			c9-9.4,24-38.4,22.3-53.8c-2.2-19.7-12.3-32.1-23.9-37.1c-16.3-7-26.9-1.2-31.7-2.2c-5-1-8.6-7.8-21.3-4.6
			C49.7,4,40.5,17.2,38.9,18c-1.6,0.8-14.1,36.3-14,41.1c0.6,23.7,8.7,42,7.4,47.2c-0.6,2.4-7.8,3.2-5.8,6.6
			c2.8,4.6,16.3,4.8,18.3,0c2-4.8-0.2-33.3,4-31.9c4.8,1.6,4,4.4,4.4,9.2c0.4,4.8-0.8,17.1-1.6,18.7c-0.8,1.6-9.9,4.8-5.2,8
			c4.4,3,15.8,1,17.9-1.6C68.6,110.3,79,90,81,81C81,81,89.1,81.8,93.1,80.2z"/>
	</g>
	<g>
		<path class="st0" d="M14.2,16.4c0,0,10.1-8.8,26-5.6c0,0,4.5-11.4,12.2-7.3c7.3,3.9,2,14.1,2,14.1c11.3,14.5,6.5,30.4,4.9,32
			c0,0-1.1-2-2.7-3.5c0,0,1.1,12.4-9.4,20.9c0,0-0.1-2.3-0.9-3.3c0,0-8.2,10.5-16.9,13.4c0,0-0.7-4-5.1-8.8c0,0,0.7,1.9-1.1,4.3
			c0,0-1.6-1.8-4.5-3.7C13.1,65.2,3.8,58.7,1,47.5c-2.8-11.3,2-18.9,2-18.9S-3.8,18,3,12.8C8.1,9,13,14,14.2,16.4z"/>
	</g>
	<g>
		<path class="st2" d="M31.3,33c6.1-0.8,9.3,12.5,10,18.5c1.2,11.3-15.9,13-17.3,4.3C22.5,45.6,28.4,33.4,31.3,33z"/>
	</g>
	<g>
		<path class="st3" d="M5.5,26.2l5.1-4.8c0,0-3.5-6-5.7-4C1.7,20.3,4.4,23,5.5,26.2z"/>
	</g>
	<g>
		<path class="st3" d="M50.6,7.9C46,6.8,45.3,14,45.3,14l5.6,2.8C50.9,16.8,56.7,9.3,50.6,7.9z"/>
	</g>
	<g>
		<path class="st3" d="M29.1,53.6C28,51.2,38.2,49,38,51.1C37.5,54.9,30.5,56.9,29.1,53.6z"/>
	</g>
	<g>
		<path class="st3" d="M39,56.4c-0.2-0.1-0.5-0.1-0.6,0.1c-0.1,0.2-0.1,0.3-0.2,0.5c-0.3,0.5-0.7,0.9-1.1,1.2
			c-1.1,0.8-2.3,0-3.1-0.8c-0.1-0.1-0.2-0.2-0.3-0.3c0,0-0.1-0.1-0.1-0.1c0,0,0,0,0,0c0-0.1,0-0.1,0-0.2c0-0.3,0-0.7,0-1
			c0-0.6,0.2-1.6-0.1-2.2c-0.1-0.3-0.6-0.1-0.6,0.2c0,0.6,0,1.2,0,1.7c0,0.4,0,0.8,0,1.2c0,0.1,0,0.2,0,0.2c0,0.3-0.2,0.5-0.4,0.7
			c-0.1,0.1-0.1,0.1-0.2,0.2c-0.9,0.9-1.9,1.4-3.2,0.9c-0.5-0.2-1-0.6-1.2-0.8c0,0-0.5-0.6-0.7-0.6c-0.2,0-0.4,0.3-0.3,0.5
			c1.2,1.6,3.4,2.5,5.1,1c0.3-0.3,0.9-0.7,1.2-1.1c0.1,0.1,0.1,0.1,0.1,0.2c0.3,0.3,0.6,0.6,0.9,0.8c0.7,0.5,1.6,0.6,2.4,0.4
			c1-0.3,1.8-1.3,2.2-2.3C39.1,56.6,39,56.5,39,56.4z"/>
	</g>
	<g>
		<g>
			<path class="st4" d="M23.3,36.1c-0.3,1.7-1.2,3.9-3,4.5c-2.2,0.7-2.6-2.7-2.6-4.2c0-0.6-1-0.6-1,0c0,2,0.5,5.3,3.1,5.3
				c2.6,0,4-3.1,4.4-5.3C24.4,35.8,23.4,35.5,23.3,36.1L23.3,36.1z"/>
		</g>
	</g>
	<g>
		<g>
			<path class="st4" d="M38.1,32.7c0.5,1.9,1.5,4,3.4,4.7c2.3,0.8,4.2-1.6,4.3-3.7c0-0.6-1-0.6-1,0c-0.1,1.7-1.6,3.5-3.4,2.5
				c-1.3-0.7-2-2.5-2.4-3.8C38.9,31.8,38,32.1,38.1,32.7L38.1,32.7z"/>
		</g>
	</g>
</g>
</svg>
