<?xml version="1.0" encoding="utf-8"?>
<!-- Generator: Adobe Illustrator 24.0.3, SVG Export Plug-In . SVG Version: 6.00 Build 0)  -->
<svg version="1.1" id="レイヤー_1" xmlns="http://www.w3.org/2000/svg" xmlns:xlink="http://www.w3.org/1999/xlink" x="0px"
	 y="0px" viewBox="0 0 111.4 164.8" style="enable-background:new 0 0 111.4 164.8;" xml:space="preserve">
<style type="text/css">
	.st0{fill:#FFBE00;}
	.st1{fill:#FF7438;}
	.st2{fill:#FF9B00;}
	.st3{fill:#9A6548;}
	.st4{fill:#D36C2D;}
	.st5{fill:#F4F0D8;}
	.st6{fill:#894C3F;}
</style>
<g>
	<g>
		<path class="st0" d="M75.5,16.5c0,0-10.2-19.6-16-16c-5.8,3.6,3.3,19.1,3.9,19.3C63.9,20.1,75.5,16.5,75.5,16.5z"/>
	</g>
	<g>
		<path class="st1" d="M65.3,2.2c5,4.5,10.2,14.3,10.2,14.3s-3.1,1-6.2,1.9c-3-3.2-5.6-6.7-7.2-10.6C61.5,5,62,1.1,65.3,2.2z"/>
	</g>
	<g>
		<path class="st0" d="M33.9,20.9c2-4.3,17.5,3.7,20.3,5.2c0.3,0.1,0.4,0.2,0.4,0.2l-3.3,14.1c-2.3,1.5-4.1,2.1-11.7-3
			C32,32.2,31.7,25.6,33.9,20.9z"/>
	</g>
	<g>
		<path class="st0" d="M85.1,90.4c0,0-7.9,50.1-13.8,52.9c-5.9,2.8-21-2.9-22.3-19C47.7,108.3,81,56,85.1,90.4z"/>
	</g>
	<g>
		<path class="st2" d="M106.5,28.2c2,0.4,3.7,0.7,4.5,1.3c0.7,0.4,0.5,3.5-0.6,5.2c-0.3,0.4-0.5,0.9-0.8,1.3
			C107.2,34.1,105.7,31.5,106.5,28.2z"/>
	</g>
	<g>
		<path class="st3" d="M87.4,120.1c-1.5,5.4-2.8,9.2-3.1,11.6c-0.7,5.5-0.7,7.7,0.7,9.2c1.5,1.5,4.4,6.4,0.9,7.9
			c-3.5,1.5-10.9-3.3-12-9.6c-0.5-2.8,0.2-10.2,1.1-17.9C79.5,122.1,83.5,120.8,87.4,120.1z"/>
	</g>
	<g>
		<g>
			<path class="st0" d="M40,72.5c0.6-8,4.7-17.6,7-26.3c3.3-12.3,6.9-23.9,10.1-27c5.5-5.2,16.1-3.5,19.2-2.7
				c3,0.8,11.5,5.7,17.6,8.5c3.9,1.8,8.9,2.5,12.6,3.2c-0.7,3.3,0.7,6,3.1,7.8c-3.1,4.8-8.4,9.7-17.1,14.8c-0.2,0-0.4,0-0.6,0
				c-4.6-0.2-8.6-2.3-11-6.3c-0.1-0.2-0.3-0.2-0.5-0.2c-0.1,0-0.2,0-0.3,0.1c-1,0.7-2.3,0.8-3.4,0.5c-0.5-0.1-0.8,0.7-0.2,0.8
				c1.3,0.3,2.7,0.2,3.9-0.5c2.5,3.8,6.3,6,10.8,6.3c-0.9,0.5-1.8,1-2.8,1.5c-18.4,9.7-19.6-4.1-29.3,5.5
				c-9.7,9.7,10.5,80.4,8.3,85.1c-2.2,4.7-26.5,10.1-28.2,3C35.9,133.3,38.4,93.8,40,72.5z"/>
		</g>
		<g>
			<path class="st4" d="M80.3,45.4c-1.1,0.7-2.6,0.8-3.9,0.5c-0.6-0.1-0.3-1,0.2-0.8c1.1,0.3,2.4,0.1,3.4-0.5
				c0.1-0.1,0.2-0.1,0.3-0.1c0.2-0.1,0.4,0,0.5,0.2c2.4,4,6.4,6,11,6.3c0.2,0,0.4,0,0.6,0c-0.5,0.3-0.9,0.5-1.4,0.8
				C86.6,51.3,82.8,49.1,80.3,45.4z"/>
		</g>
	</g>
	<g>
		<path class="st3" d="M69.6,120.7c0.3,7.9,0.7,17.2,1.4,18.5c0.7,1.7,7.2,5.9,3.7,8.7c-3.5,2.8-10,0.5-12.9-6.3
			c-1.9-4.3-3.8-12.8-5.3-22.7C60.6,120.7,65,122,69.6,120.7z"/>
	</g>
	<g>
		<path class="st2" d="M56.4,118.9c-3.1-20.4-4.5-46.7-0.1-55.2c3.1-6.1,30.9-9.2,33-1.5c0.3,1,6.6,5.3,4.2,27.4
			c-1.4,12.8-4,23-6.1,30.4c-4,0.7-8,2-12.3,1.2c1.1-9.3,2.4-19.3,2.2-22.6c-0.4-7-3.5-9.4-5.7-8.5c-2.2,0.9-2.4,17.7-2.2,26
			c0,1.4,0.1,2.9,0.1,4.5C65,122,60.6,120.7,56.4,118.9z"/>
	</g>
	<g>
		<path class="st5" d="M54.5,75.4c0,0,1.1-2.5,2.8-5.8c0.3,4,1.4,10.6,2.8,12c0,0,0.2-1.3,1.4-3.2c1.2,3.7,4.9,8.4,4.9,7.8
			c0.2-2.6,0.4-4.4,0.4-4.4c2.2-1.3,5.8,8.4,6.1,8.1c2.4-3.2,3.9-7.7,3.9-7.7c1.8,0,3.1,6.6,3.1,6.6c2.6-5,2.9-9.6,2.9-9.6
			s1.2,0.1,2.6,3.5c0,0,2.6-4.5,0.7-11c5,4.3,5.4,7.7,5.6,7.3c5.5-19.3-4.7-25.1-4.7-25.1c-10.9,3.9-16.3-0.5-24.2,1
			C54.7,56.3,53,68,54.5,75.4z"/>
	</g>
	<g>
		<path class="st5" d="M37.7,147c2.9-2.3,6.5-1,9.9-0.7c0,0,0,0,0.1,0.1c0,0,0,0-0.1-0.1c0.4,0,0.8,0.1,1.2,0.1
			c-0.4,0-0.8,0-1.2-0.1c-1.8-1.8-2.8-4.3-4.6-6c3.2-0.8,6.8-0.7,9.9,0.5c0.1,0.4,0.2,0.8,0.3,1.2c-0.1-0.4-0.2-0.8-0.3-1.2
			c0.5,0.2,1,0.4,1.4,0.6c-0.5-0.2-0.9-0.4-1.4-0.6c-1-3.7-3-6.7-5-9.7c1.4,0.7,2.9,1.4,4.8,2.4c9.2,4.8,20.8,14,24.1,29.6
			c0,0-2.6-2-6.3-2.4c-1.1-0.1,1.7,1.1,2.4,4.1c0.1,0.6-14.3-6.5-23-5.9c-1.3,0.1-3,0-4.9-0.3C44.2,153.9,42.1,149.5,37.7,147z"/>
	</g>
	<g>
		<path class="st2" d="M9.2,113.8c14.2-7.6,28.4-4.1,28.4-4.1l0.1,8.8c0,0-10.9,5-4.8,7c7.1,2.4,9.6,3,14.9,5.5c2.1,3,4,6.1,5,9.7
			c-3.1-1.2-6.7-1.4-9.9-0.5c-0.4-0.4-0.9-0.8-1.4-1.1h0.6h-0.6c0.5,0.3,1,0.7,1.4,1.1c-1.1,0.3-2.1,0.6-3,1.1c1-0.5,2-0.9,3-1.1
			c1.8,1.8,2.9,4.3,4.6,6c-3.3-0.3-7-1.6-9.9,0.7c-0.4-0.2-0.7-0.4-1.1-0.6c0.4,0.2,0.8,0.4,1.1,0.6c-0.2,0.2-0.4,0.3-0.6,0.5
			c0.2-0.2,0.4-0.4,0.6-0.5c4.4,2.5,6.4,6.9,7.3,11.6c-10.6-1.7-28.9-8.9-37.5-17.2C-0.5,133.7-5,121.3,9.2,113.8z"/>
	</g>
	<g>
		<path class="st1" d="M33.8,21.2c3.1,6.6,14.6,4.1,16.7,10.3c1.8,4.4-2.9,6.6-8.1,7.6c-0.8-0.5-1.7-1.1-2.7-1.8
			C32.1,32.3,31.7,25.8,33.8,21.2z"/>
	</g>
	<g>
		<g>
			<path class="st6" d="M86.5,23.6c1.5,1.8,2.8,5.4-0.4,6.3c-2.4,0.7-5.2-1.8-6.6-3.4c-0.4-0.4,0.2-1,0.6-0.6
				c1.3,1.4,2.9,2.7,4.7,3.2c1.7,0.4,2.7-1,2.3-2.6c-0.2-0.8-0.7-1.6-1.2-2.3C85.5,23.8,86.2,23.2,86.5,23.6L86.5,23.6z"/>
		</g>
	</g>
	<g>
		<g>
			<path class="st6" d="M69.8,35.4c0.7,0.5,1.5,1,2.3,1.2c1.7,0.5,2.9-0.8,2.8-2.4c-0.1-1.9-1.7-3.7-3-5c-0.4-0.4,0.2-1,0.6-0.6
				c1.7,1.7,3.8,4.3,3.2,6.9c-0.8,3.3-4.7,2.1-6.5,0.6C68.7,35.7,69.4,35,69.8,35.4L69.8,35.4z"/>
		</g>
	</g>
</g>
</svg>
